<?xml version="1.0" encoding="utf-8" ?>
<svg baseProfile="tiny" height="272" version="1.2" viewBox="-3 -3 520 272" width="520" xmlns="http://www.w3.org/2000/svg" xmlns:ev="http://www.w3.org/2001/xml-events" xmlns:xlink="http://www.w3.org/1999/xlink"><defs /><path d="M157 1 L157 0 " fill="none" stroke="black" /><path d="M157 1 L157 0 M0 251 L2 251 L3 251 L6 251 L7 251 L11 251 L13 251 L14 251 L15 250 L19 250 L23 250 L27 250 L29 250 L32 250 L34 250 L37 250 L40 251 L43 251 L49 252 L53 253 L56 254 L59 254 L62 255 L67 256 L71 257 L74 258 L76 259 L79 259 L82 260 L87 260 L94 262 L99 262 L101 262 L105 262 L108 262 L109 262 L111 262 L115 262 L119 262 L125 262 L129 261 L137 261 L138 261 L140 261 L141 261 L142 261 L144 261 L145 261 L145 262 L149 263 L152 263 L153 263 L156 263 L160 262 L163 262 L165 261 L167 260 L171 257 L174 255 L179 253 L182 251 L184 249 L186 246 L189 245 L191 244 L196 243 L201 243 L207 243 L212 243 L217 244 L220 244 L223 245 L226 246 L230 248 L236 250 L239 250 L242 251 L246 253 L251 255 L258 257 L264 258 L273 260 L284 260 L288 260 L289 260 L291 260 L294 257 L298 255 L298 254 L300 253 L304 252 L308 252 L314 252 L319 253 L320 253 L324 254 L326 255 L328 257 L334 260 L337 262 L342 264 L346 266 L353 269 L359 270 L375 271 L396 272 L417 271 L423 269 L424 268 L427 266 L430 262 L434 261 L437 259 L441 259 L444 258 L449 258 L454 258 L458 260 L461 260 L462 261 L466 262 L470 263 L474 263 L475 263 L479 263 L487 263 L492 263 L494 263 L496 262 L498 261 L501 259 L504 258 L509 258 L514 257 L520 257 " fill="none" stroke="black" /></svg>