<?xml version="1.0" encoding="utf-8" ?>
<svg baseProfile="tiny" height="56" version="1.2" viewBox="-3 -3 390 56" width="390" xmlns="http://www.w3.org/2000/svg" xmlns:ev="http://www.w3.org/2001/xml-events" xmlns:xlink="http://www.w3.org/1999/xlink"><defs /><path d="M33 48 L30 48 L26 48 L23 48 L17 46 L12 40 L5 35 L2 31 L0 28 L0 25 L0 22 L2 19 L3 16 L8 14 L14 13 L19 11 L25 11 L32 11 L39 11 L44 11 L50 12 L56 14 L62 18 L68 22 L75 26 L84 33 L89 37 L93 41 L94 46 L95 52 L93 56 L92 56 L91 56 L85 50 L80 43 L80 38 L80 34 L81 31 L85 28 L89 26 L94 25 L103 24 L116 23 L123 23 L129 23 L139 25 L147 26 L149 28 L152 31 L153 35 L154 38 L154 41 L154 43 L152 47 L150 50 L149 50 L147 50 L143 44 L139 37 L138 32 L136 27 L136 23 L138 18 L141 14 L145 10 L152 5 L160 2 L167 0 L173 0 L176 0 L179 4 L184 9 L190 14 L195 19 L197 22 L201 27 L203 32 L203 37 L202 39 L200 39 L195 36 L191 31 L188 24 L187 19 L187 14 L188 10 L191 8 L196 6 L204 5 L216 5 L229 6 L245 10 L252 14 L258 20 L265 27 L270 32 L274 38 L275 43 L275 45 L273 47 L272 47 L270 47 L264 43 L257 37 L255 34 L253 30 L253 27 L253 22 L256 18 L259 15 L264 11 L268 9 L275 7 L281 7 L290 9 L297 14 L303 19 L310 24 L316 29 L320 33 L325 39 L327 44 L329 51 L328 55 L327 56 L325 56 L319 51 L314 44 L312 40 L312 37 L312 35 L313 32 L314 31 L317 29 L322 26 L332 25 L346 24 L362 24 L368 24 L375 25 L380 28 L385 30 L387 31 L388 31 L388 32 L389 33 L389 34 L390 36 L390 37 L390 38 " fill="none" stroke="black" /></svg>