<?xml version="1.0" encoding="utf-8" ?>
<svg baseProfile="tiny" height="193" version="1.2" viewBox="-3 -3 480 193" width="480" xmlns="http://www.w3.org/2000/svg" xmlns:ev="http://www.w3.org/2001/xml-events" xmlns:xlink="http://www.w3.org/1999/xlink"><defs /><path d="M27 83 L32 80 L37 76 L44 70 L51 63 L56 59 L62 56 L66 54 L72 52 L77 52 L84 52 L98 54 L111 59 L119 65 L124 70 L130 77 L134 83 L139 88 L149 95 L154 97 L155 97 L159 93 L164 87 L170 81 L183 71 L188 65 L194 61 L195 60 L196 60 L215 64 L223 70 L228 78 L233 90 L240 100 L241 101 L241 104 L242 107 L246 106 L253 99 L259 83 L266 69 L272 60 L280 50 L286 42 L293 36 L303 31 L306 29 L307 29 L312 32 L317 37 L328 51 L335 65 L346 89 L353 102 L353 95 L353 72 L356 48 L364 25 L374 4 L377 0 L378 0 L379 1 L387 13 L406 28 L411 34 L422 55 L429 68 L436 84 L438 86 L439 86 L439 75 L439 58 L439 43 L444 28 L448 21 L449 19 L453 22 L464 38 L475 57 L480 79 L479 99 L473 122 L465 142 L460 148 L430 150 L404 151 L381 145 L347 118 L325 92 L302 61 L290 43 L283 32 L282 31 L279 45 L274 73 L258 98 L249 114 L241 122 L238 123 L224 119 L205 111 L186 81 L168 53 L161 35 L157 24 L151 15 L150 15 L148 15 L143 22 L134 44 L124 69 L113 99 L108 126 L105 137 L92 118 L77 97 L64 73 L53 50 L40 28 L34 22 L31 20 L27 21 L17 42 L7 86 L0 127 L2 167 L18 187 L62 193 L129 187 L257 153 L321 115 L342 88 L343 65 L343 59 L348 63 L356 85 L367 111 L371 124 L374 133 L376 135 L384 114 L392 91 L399 72 L402 70 L412 82 L433 114 L444 142 L450 171 " fill="none" stroke="black" /></svg>