<?xml version="1.0" encoding="utf-8" ?>
<svg baseProfile="tiny" height="153" version="1.2" viewBox="-3 -3 710 153" width="710" xmlns="http://www.w3.org/2000/svg" xmlns:ev="http://www.w3.org/2001/xml-events" xmlns:xlink="http://www.w3.org/1999/xlink"><defs /><path d="M164 75 L167 71 L197 41 L211 19 L209 20 L68 89 L3 118 L0 109 L6 76 L16 54 L16 52 L16 72 L32 101 L156 112 L313 72 L345 60 L327 64 L266 76 L264 77 L270 70 L271 68 L264 69 L222 81 L221 82 L233 72 L256 50 L258 49 L256 50 L258 53 L299 49 L329 42 L330 42 L325 60 L333 81 L366 76 L404 49 L425 34 L423 35 L421 38 L429 40 L444 37 L445 38 L438 54 L438 56 L445 58 L446 57 L435 69 L434 71 L434 72 L434 71 L433 76 L436 94 L450 100 L486 96 L525 86 L539 81 L533 85 L533 88 L537 88 L544 83 L550 80 L549 80 L553 76 L565 69 L565 67 L553 65 L545 70 L548 74 L562 70 L590 61 L614 51 L587 42 L559 39 L557 39 L557 42 L560 43 L555 47 L499 65 L490 68 L512 46 L563 26 L594 30 L605 49 L636 81 L703 93 L710 93 L705 91 L682 96 L671 102 L676 102 L682 96 L684 94 L670 96 L618 104 L615 105 L622 99 L655 76 L661 70 L643 70 L535 82 L424 93 L415 94 L414 88 L412 81 L405 74 L378 63 L361 52 L357 36 L355 15 L354 1 L351 0 L342 2 L315 11 L304 18 L304 19 L304 20 L295 27 L205 79 L134 108 L136 102 L140 97 L134 100 L103 125 L103 127 L123 122 L172 114 L205 110 L205 115 L208 137 L232 153 L283 141 L337 109 L356 98 L358 96 L358 95 L375 89 L410 81 L417 78 L417 85 L412 91 L424 88 L459 65 L461 62 L460 62 L460 67 L462 68 L463 68 L466 65 L472 59 " fill="none" stroke="black" /></svg>