<?xml version="1.0" encoding="utf-8" ?>
<svg baseProfile="tiny" height="200" version="1.2" viewBox="-3 -3 306 200" width="306" xmlns="http://www.w3.org/2000/svg" xmlns:ev="http://www.w3.org/2001/xml-events" xmlns:xlink="http://www.w3.org/1999/xlink"><defs /><path d="M193 133 L195 112 L213 90 L236 84 L267 90 L288 112 L300 147 L297 173 L290 188 L275 194 L168 173 L84 135 L31 97 L22 65 L29 45 L58 37 L118 40 L198 78 L236 116 L241 138 L237 152 L213 169 L169 172 L119 160 L100 149 L87 116 L83 86 L96 72 L123 64 L187 71 L223 88 L246 117 L253 158 L247 177 L228 185 L135 175 L44 151 L26 131 L18 106 L21 73 L51 50 L108 45 L190 55 L275 89 L306 115 L304 138 L294 164 L270 183 L238 188 L183 176 L137 150 L102 106 L91 64 L89 27 L104 7 L146 0 L201 12 L241 44 L253 78 L242 119 L222 146 L190 165 L132 172 L118 159 L103 128 L95 92 L100 69 L125 61 L155 59 L179 76 L207 121 L224 161 L226 185 L220 195 L201 192 L138 162 L67 122 L54 95 L54 70 L73 54 L119 45 L196 51 L236 75 L253 99 L253 129 L237 164 L205 183 L147 186 L91 177 L40 153 L12 117 L0 81 L1 52 L30 22 L62 13 L129 21 L201 52 L229 82 L241 115 L240 140 L225 169 L201 192 L165 200 L128 196 L97 162 L74 116 L69 83 L82 59 L134 51 L179 58 L221 79 L243 112 L240 146 L232 178 L222 193 L147 186 L98 174 L77 161 L73 142 L79 123 L99 107 L122 99 L139 100 L156 120 L166 145 L170 165 L164 172 L127 174 L74 162 L46 152 L27 127 L19 99 L25 82 L52 67 L106 55 L165 52 L212 59 L235 75 L248 107 L249 131 L244 152 L235 172 L231 177 L224 172 L190 145 L152 114 L144 99 L145 96 L147 95 " fill="none" stroke="black" /></svg>