<?xml version="1.0" encoding="utf-8" ?>
<svg baseProfile="tiny" height="464" version="1.2" viewBox="-3 -3 923 464" width="923" xmlns="http://www.w3.org/2000/svg" xmlns:ev="http://www.w3.org/2001/xml-events" xmlns:xlink="http://www.w3.org/1999/xlink"><defs /><path d="M923 233 L913 245 L893 271 L892 272 L884 248 L879 243 L873 248 L872 250 L870 247 L867 249 L838 286 L824 301 L822 301 L799 287 L774 301 L721 356 L682 379 L677 362 L673 335 L666 358 L649 457 L646 464 L644 463 L595 381 L503 311 L488 309 L487 309 L487 303 L473 266 L456 249 L452 248 L444 236 L430 221 L395 230 L348 269 L325 300 L317 315 L315 315 L287 284 L186 273 L32 323 L0 341 L7 317 L8 303 L3 296 L6 268 L32 224 L48 207 L52 201 L76 180 L77 178 L77 179 L118 134 L128 120 L125 118 L125 117 L131 135 L132 145 L165 149 L262 139 L273 137 L259 229 L201 373 L178 459 L189 456 L312 325 L334 269 L332 266 L322 294 L328 301 L421 249 L496 166 L499 154 L485 178 L471 204 L472 202 L509 146 L532 104 L532 103 L514 130 L458 251 L442 283 L462 251 L472 236 L461 275 L400 388 L366 434 L406 406 L566 281 L589 238 L591 233 L569 298 L550 357 L550 358 L596 246 L685 76 L732 0 L730 20 L690 127 L671 202 L685 193 L740 121 L757 92 L733 150 L675 309 L660 384 L674 377 L732 279 L742 243 L740 246 L690 338 L653 403 L686 342 L703 294 L697 290 L571 347 L298 428 L253 399 L284 301 L325 220 L326 216 L313 241 L301 282 L305 279 L346 232 L356 212 L348 216 L295 272 L274 295 L291 277 L395 191 L421 161 L419 159 L401 180 L378 234 L388 254 L441 230 L493 196 L488 205 L413 272 L373 307 L430 297 L593 237 L635 213 L635 212 L622 213 L622 214 " fill="none" stroke="black" /></svg>