<?xml version="1.0" encoding="utf-8" ?>
<svg baseProfile="tiny" height="19" version="1.2" viewBox="-3 -3 466 19" width="466" xmlns="http://www.w3.org/2000/svg" xmlns:ev="http://www.w3.org/2001/xml-events" xmlns:xlink="http://www.w3.org/1999/xlink"><defs /><path d="M0 2 L1 3 L3 3 L5 3 L8 3 L11 3 L18 3 L21 3 L22 3 L25 2 L29 2 L35 1 L40 1 L42 1 L46 0 L50 0 L54 0 L55 0 L58 0 L59 0 L62 0 L66 0 L67 1 L69 1 L71 2 L74 3 L77 3 L80 4 L83 4 L86 4 L87 4 L91 4 L92 4 L93 4 L96 4 L100 4 L105 4 L106 4 L108 4 L113 4 L116 4 L119 4 L121 4 L122 4 L126 4 L130 4 L133 4 L135 4 L141 6 L143 6 L146 7 L151 8 L155 8 L156 9 L158 9 L160 9 L164 9 L167 9 L168 9 L169 9 L170 9 L171 9 L176 10 L181 11 L185 11 L190 11 L196 12 L201 13 L203 13 L207 13 L211 14 L212 14 L216 13 L217 13 L219 13 L224 10 L227 8 L232 7 L233 7 L237 6 L241 6 L245 6 L248 6 L251 6 L258 7 L261 7 L263 8 L267 9 L271 9 L274 9 L276 9 L279 9 L284 10 L289 11 L296 11 L301 13 L304 13 L307 14 L310 14 L314 14 L317 15 L321 16 L326 16 L327 16 L330 16 L332 16 L333 16 L337 16 L340 16 L347 16 L349 16 L350 16 L355 16 L356 16 L357 16 L358 15 L361 15 L365 15 L371 15 L376 16 L380 17 L385 17 L390 17 L395 17 L399 18 L406 19 L408 19 L409 19 L410 19 L413 19 L417 18 L418 18 L419 18 L420 17 L423 16 L425 16 L430 16 L435 16 L440 16 L443 16 L446 16 L448 16 L449 16 L454 16 L458 16 L459 16 L462 16 L465 16 L466 16 " fill="none" stroke="black" /></svg>