<?xml version="1.0" encoding="utf-8" ?>
<svg baseProfile="tiny" height="243" version="1.2" viewBox="-3 -3 564 243" width="564" xmlns="http://www.w3.org/2000/svg" xmlns:ev="http://www.w3.org/2001/xml-events" xmlns:xlink="http://www.w3.org/1999/xlink"><defs /><path d="M0 243 L1 242 L5 239 L10 234 L23 226 L44 219 L61 213 L80 208 L93 202 L100 199 L107 195 L123 189 L130 186 L135 184 L138 183 L141 183 L145 181 L151 181 L156 179 L160 179 L165 178 L171 177 L179 175 L186 174 L190 173 L193 173 L198 171 L205 170 L210 169 L214 168 L216 167 L217 167 L221 166 L225 165 L228 165 L229 165 L230 164 L233 164 L234 164 L235 164 L237 164 L238 164 L240 164 L243 164 L244 164 L245 164 L248 164 L252 164 L255 164 L257 164 L261 164 L264 164 L268 164 L271 164 L276 164 L279 164 L283 164 L290 162 L297 162 L302 160 L307 158 L312 156 L318 153 L323 151 L329 149 L335 146 L341 144 L346 142 L353 138 L358 136 L364 134 L369 132 L376 128 L381 125 L385 124 L388 122 L390 121 L395 119 L400 115 L402 115 L402 114 L405 113 L408 111 L411 110 L416 108 L419 107 L419 106 L420 105 L424 103 L425 102 L428 101 L429 100 L431 98 L433 97 L435 94 L437 93 L438 92 L441 90 L445 88 L447 87 L448 85 L449 84 L451 83 L453 81 L455 80 L457 79 L461 77 L463 76 L464 76 L467 74 L469 72 L471 71 L475 68 L479 65 L483 62 L487 60 L492 55 L498 51 L499 50 L500 50 L502 48 L504 46 L507 43 L510 41 L512 39 L516 36 L520 33 L521 32 L524 29 L529 26 L534 23 L539 21 L539 20 L541 19 L541 18 L543 17 L548 13 L550 13 L551 12 L551 11 L552 10 L553 9 L555 8 L556 7 L557 6 L559 4 L559 3 L561 2 L563 0 L564 0 " fill="none" stroke="black" /></svg>