<?xml version="1.0" encoding="utf-8" ?>
<svg baseProfile="tiny" height="118" version="1.2" viewBox="-3 -3 608 118" width="608" xmlns="http://www.w3.org/2000/svg" xmlns:ev="http://www.w3.org/2001/xml-events" xmlns:xlink="http://www.w3.org/1999/xlink"><defs /><path d="M0 113 L1 113 L4 116 L12 117 L24 111 L27 113 L34 118 L40 116 L44 111 L49 116 L52 118 L65 109 L75 100 L77 98 L81 103 L86 106 L92 104 L95 100 L96 100 L102 110 L107 111 L113 98 L114 96 L115 96 L119 101 L125 101 L128 97 L129 97 L139 101 L145 102 L147 99 L148 99 L149 99 L154 102 L162 100 L171 98 L175 99 L178 100 L187 100 L200 95 L200 94 L205 90 L226 94 L235 95 L237 93 L237 92 L244 95 L249 96 L257 86 L263 80 L269 92 L270 93 L274 89 L286 67 L296 61 L303 75 L310 83 L310 84 L314 81 L315 79 L316 79 L322 83 L328 83 L339 74 L340 74 L344 78 L346 80 L347 80 L350 76 L357 83 L359 84 L370 60 L379 48 L384 47 L387 50 L389 50 L391 49 L391 48 L391 47 L392 47 L393 47 L393 46 L396 47 L396 48 L397 48 L400 47 L408 51 L419 57 L426 58 L443 50 L450 47 L455 53 L460 58 L464 56 L470 44 L475 36 L477 41 L483 49 L488 43 L490 44 L491 44 L492 43 L493 42 L495 38 L499 34 L500 33 L502 33 L505 30 L511 24 L511 22 L513 23 L513 24 L516 19 L518 16 L520 17 L522 17 L522 16 L530 19 L533 24 L534 24 L539 17 L540 14 L544 17 L549 22 L550 23 L554 22 L556 18 L557 16 L559 15 L562 12 L564 7 L566 4 L568 4 L571 4 L576 0 L579 0 L584 3 L587 5 L587 6 L588 6 L592 9 L596 6 L598 1 L600 3 L603 5 L604 5 L606 6 L607 6 L608 6 L608 0 " fill="none" stroke="black" /></svg>