<?xml version="1.0" encoding="utf-8" ?>
<svg baseProfile="tiny" height="173" version="1.2" viewBox="-3 -3 372 173" width="372" xmlns="http://www.w3.org/2000/svg" xmlns:ev="http://www.w3.org/2001/xml-events" xmlns:xlink="http://www.w3.org/1999/xlink"><defs /><path d="M0 0 L1 1 L3 2 L3 4 L6 7 L8 10 L11 13 L13 16 L18 20 L20 23 L24 28 L28 32 L31 35 L33 37 L35 39 L38 40 L41 41 L43 41 L44 42 L46 42 L47 42 L49 41 L52 39 L52 38 L53 38 L54 38 L54 37 L60 35 L64 34 L68 34 L71 34 L73 34 L78 34 L82 35 L85 35 L86 36 L87 37 L90 39 L93 43 L97 46 L101 50 L104 53 L108 57 L111 61 L115 64 L119 69 L122 73 L124 76 L127 78 L129 80 L131 82 L133 83 L134 85 L138 87 L141 88 L144 90 L147 91 L148 92 L149 92 L153 93 L155 93 L158 93 L159 93 L161 92 L162 91 L163 90 L164 89 L165 89 L166 89 L171 89 L173 89 L175 90 L176 90 L177 90 L180 92 L183 94 L185 95 L187 97 L188 97 L190 100 L191 100 L192 101 L194 103 L197 106 L203 110 L206 114 L208 115 L211 117 L212 118 L215 119 L219 120 L223 120 L225 121 L226 121 L229 121 L233 120 L234 120 L236 119 L242 118 L243 118 L244 118 L246 118 L249 119 L250 119 L252 120 L253 121 L254 122 L255 124 L257 125 L260 128 L262 129 L262 130 L265 133 L268 137 L270 139 L272 140 L273 141 L275 142 L280 145 L284 146 L285 146 L289 147 L290 147 L292 147 L293 147 L298 147 L304 146 L309 146 L313 146 L317 146 L324 146 L328 146 L330 146 L333 147 L338 149 L341 149 L343 151 L344 152 L346 153 L347 154 L348 156 L353 160 L358 165 L364 168 L365 169 L365 170 L368 172 L372 173 " fill="none" stroke="black" /></svg>