<?xml version="1.0" encoding="utf-8" ?>
<svg baseProfile="tiny" height="197" version="1.2" viewBox="-3 -3 395 197" width="395" xmlns="http://www.w3.org/2000/svg" xmlns:ev="http://www.w3.org/2001/xml-events" xmlns:xlink="http://www.w3.org/1999/xlink"><defs /><path d="M0 85 L0 79 L0 76 L3 72 L6 69 L9 66 L14 64 L20 64 L26 65 L34 69 L41 72 L46 75 L57 81 L82 84 L104 87 L136 88 L168 87 L183 82 L188 77 L188 68 L188 59 L186 53 L182 46 L182 41 L185 36 L188 33 L201 26 L222 21 L242 19 L258 17 L267 17 L277 22 L286 28 L291 33 L299 51 L306 60 L310 65 L313 71 L322 82 L324 86 L328 90 L333 94 L338 95 L345 93 L355 90 L367 89 L377 89 L382 89 L383 90 L388 96 L392 101 L394 107 L395 114 L395 118 L393 124 L388 130 L376 136 L362 142 L346 143 L315 143 L297 143 L292 143 L291 143 L291 147 L290 152 L290 159 L292 165 L293 171 L294 175 L291 182 L286 187 L262 195 L216 197 L180 189 L169 182 L157 166 L146 149 L143 143 L142 139 L148 135 L155 133 L170 124 L224 100 L276 71 L285 43 L272 20 L250 4 L238 0 L232 2 L227 7 L223 13 L217 25 L214 30 L214 35 L216 41 L218 46 L221 56 L223 64 L226 77 L228 104 L222 119 L209 126 L186 131 L170 128 L147 114 L125 96 L117 87 L110 76 L104 67 L98 58 L92 52 L76 43 L60 36 L53 34 L47 36 L43 40 L38 49 L37 58 L39 64 L45 77 L54 94 L64 104 L72 111 L79 115 L84 114 L90 104 L92 79 L92 56 L97 45 L108 40 L131 42 L153 47 L171 56 L200 71 L208 78 L210 89 L210 104 L214 111 L214 118 L214 123 L216 127 L222 132 L243 141 L269 148 L294 151 L321 151 L338 143 L338 139 L339 133 L345 120 L355 95 " fill="none" stroke="black" /></svg>