<?xml version="1.0" encoding="utf-8" ?>
<svg baseProfile="tiny" height="92" version="1.2" viewBox="-3 -3 334 92" width="334" xmlns="http://www.w3.org/2000/svg" xmlns:ev="http://www.w3.org/2001/xml-events" xmlns:xlink="http://www.w3.org/1999/xlink"><defs /><path d="M214 31 L219 31 L225 34 L229 38 L234 42 L239 46 L245 52 L253 57 L256 60 L257 60 L263 60 L264 60 L267 59 L272 52 L272 47 L275 41 L282 34 L289 29 L293 27 L295 27 L300 27 L306 29 L310 33 L316 38 L320 43 L327 53 L331 59 L334 66 L334 73 L330 80 L325 83 L309 84 L297 84 L291 80 L283 71 L277 63 L272 54 L266 45 L263 38 L260 32 L253 25 L248 21 L242 17 L238 14 L237 14 L231 14 L225 19 L218 24 L213 30 L212 32 L210 38 L210 41 L209 44 L206 51 L203 56 L197 63 L191 69 L172 75 L158 75 L153 72 L147 66 L138 56 L132 48 L128 42 L124 36 L119 29 L117 25 L116 23 L115 21 L113 20 L111 20 L106 18 L102 18 L95 20 L90 23 L87 25 L83 35 L79 45 L76 51 L76 56 L76 64 L77 69 L77 74 L74 81 L69 87 L62 91 L56 91 L49 92 L35 83 L22 68 L12 50 L2 26 L0 17 L0 14 L1 9 L5 7 L16 7 L26 12 L36 18 L42 27 L54 47 L59 53 L63 58 L67 64 L77 74 L84 80 L88 81 L97 83 L125 84 L139 78 L143 73 L144 60 L140 33 L140 25 L141 17 L144 10 L146 8 L147 8 L152 9 L162 14 L167 19 L173 27 L180 39 L189 48 L198 55 L204 61 L208 65 L215 70 L221 74 L235 81 L237 81 L237 75 L237 68 L231 48 L228 36 L227 26 L228 14 L232 7 L234 3 L236 0 L237 0 L241 1 L248 3 L249 4 L250 5 L250 7 L251 10 L251 12 " fill="none" stroke="black" /></svg>