<?xml version="1.0" encoding="utf-8" ?>
<svg baseProfile="tiny" height="36" version="1.2" viewBox="-3 -3 518 36" width="518" xmlns="http://www.w3.org/2000/svg" xmlns:ev="http://www.w3.org/2001/xml-events" xmlns:xlink="http://www.w3.org/1999/xlink"><defs /><path d="M0 22 L3 18 L6 15 L13 8 L15 8 L18 10 L22 15 L25 12 L30 7 L33 5 L39 2 L44 0 L48 1 L56 10 L63 19 L68 24 L74 29 L80 29 L85 25 L92 20 L99 13 L104 11 L109 11 L115 13 L119 18 L125 20 L131 22 L139 23 L141 23 L142 23 L144 22 L145 22 L145 21 L148 20 L152 18 L153 18 L159 23 L163 28 L166 32 L167 34 L171 33 L177 28 L188 21 L195 15 L199 11 L201 10 L203 11 L209 17 L215 24 L220 27 L224 29 L226 29 L230 30 L233 30 L240 27 L246 23 L251 18 L253 16 L254 16 L256 20 L260 24 L263 28 L266 30 L266 31 L267 31 L270 31 L273 28 L276 23 L280 19 L285 14 L289 11 L290 11 L292 13 L297 19 L300 21 L301 23 L303 24 L305 23 L308 21 L314 16 L317 13 L319 10 L325 8 L327 10 L332 15 L338 21 L343 27 L349 31 L350 31 L352 31 L357 29 L360 25 L363 20 L365 17 L366 14 L367 14 L370 17 L373 21 L375 23 L378 27 L381 28 L385 28 L388 28 L391 24 L395 17 L398 12 L400 8 L402 10 L405 13 L409 17 L412 21 L415 24 L419 26 L422 27 L425 27 L429 27 L433 24 L436 20 L437 19 L437 18 L438 18 L439 19 L443 24 L446 28 L450 33 L453 35 L456 35 L460 36 L464 35 L471 30 L473 28 L473 27 L474 27 L476 31 L477 34 L478 35 L483 35 L486 35 L490 31 L495 24 L498 19 L499 16 L500 16 L501 19 L503 25 L504 27 L505 28 L506 28 L508 28 L510 27 L518 27 " fill="none" stroke="black" /></svg>