<?xml version="1.0" encoding="utf-8" ?>
<svg baseProfile="tiny" height="529" version="1.2" viewBox="-3 -3 905 529" width="905" xmlns="http://www.w3.org/2000/svg" xmlns:ev="http://www.w3.org/2001/xml-events" xmlns:xlink="http://www.w3.org/1999/xlink"><defs /><path d="M463 255 L506 223 L557 116 L556 30 L487 0 L411 62 L470 162 L644 187 L719 131 L692 101 L544 120 L471 166 L529 200 L614 182 L611 158 L472 182 L389 257 L429 292 L514 277 L512 242 L414 197 L314 215 L315 246 L500 276 L687 230 L713 198 L665 167 L394 183 L360 213 L442 242 L623 188 L650 144 L566 106 L311 127 L254 157 L338 168 L501 112 L521 70 L450 63 L295 132 L290 168 L403 170 L511 107 L498 90 L359 156 L298 232 L432 270 L621 237 L689 198 L659 180 L308 268 L227 334 L336 320 L459 245 L490 186 L368 187 L256 250 L290 287 L487 246 L670 150 L664 117 L461 180 L327 277 L357 290 L526 235 L610 168 L576 164 L410 237 L402 300 L572 296 L719 231 L724 196 L558 204 L406 297 L429 338 L466 322 L444 265 L292 182 L188 147 L193 127 L213 91 L229 126 L265 210 L279 228 L298 197 L302 132 L297 118 L332 191 L482 330 L599 340 L686 234 L714 158 L705 156 L713 243 L775 284 L876 247 L905 211 L865 230 L801 309 L800 316 L862 225 L895 119 L864 116 L661 270 L509 381 L522 365 L652 212 L699 131 L658 147 L419 286 L243 390 L290 355 L473 221 L516 182 L369 302 L44 503 L0 529 L155 363 L281 211 L280 177 L213 190 L209 212 L370 231 L451 224 L452 230 L480 316 L598 387 L693 374 L688 351 L640 341 L560 349 L558 350 L574 332 L567 327 L396 358 L231 416 L230 414 L313 324 L449 215 L528 187 L510 231 L487 288 L495 302 L644 256 L846 152 L849 123 L818 118 L792 127 " fill="none" stroke="black" /></svg>