<?xml version="1.0" encoding="utf-8" ?>
<svg baseProfile="tiny" height="98" version="1.2" viewBox="-3 -3 748 98" width="748" xmlns="http://www.w3.org/2000/svg" xmlns:ev="http://www.w3.org/2001/xml-events" xmlns:xlink="http://www.w3.org/1999/xlink"><defs /><path d="M510 49 L514 43 L522 28 L529 21 L534 19 L540 22 L553 33 L572 51 L590 72 L593 76 L594 76 L605 65 L613 56 L636 45 L647 39 L660 32 L666 28 L667 28 L673 36 L685 50 L703 59 L711 62 L718 60 L723 54 L729 47 L733 36 L736 30 L738 34 L746 41 L747 43 L748 43 " fill="none" stroke="black" /><path d="M510 49 L514 43 L522 28 L529 21 L534 19 L540 22 L553 33 L572 51 L590 72 L593 76 L594 76 L605 65 L613 56 L636 45 L647 39 L660 32 L666 28 L667 28 L673 36 L685 50 L703 59 L711 62 L718 60 L723 54 L729 47 L733 36 L736 30 L738 34 L746 41 L747 43 L748 43 M0 24 L0 23 L0 22 L22 13 L51 4 L94 0 L164 14 L213 39 L231 55 L237 58 L242 56 L256 47 L271 40 L277 34 L286 26 L292 21 L294 20 L298 20 L304 25 L311 32 L317 37 L321 39 L336 39 L360 35 L386 22 L393 14 L396 11 L397 11 L403 11 L419 26 L444 56 L470 86 L477 92 L483 98 L487 98 L493 89 L500 71 L507 49 L512 39 L516 35 L517 34 L519 35 L540 58 L566 80 L580 85 L585 81 L593 64 L603 47 L609 38 L611 34 L613 36 L632 60 L654 79 L665 81 L670 71 L678 49 L687 24 L689 18 L691 19 L694 21 " fill="none" stroke="black" /><path d="M510 49 L514 43 L522 28 L529 21 L534 19 L540 22 L553 33 L572 51 L590 72 L593 76 L594 76 L605 65 L613 56 L636 45 L647 39 L660 32 L666 28 L667 28 L673 36 L685 50 L703 59 L711 62 L718 60 L723 54 L729 47 L733 36 L736 30 L738 34 L746 41 L747 43 L748 43 M0 24 L0 23 L0 22 L22 13 L51 4 L94 0 L164 14 L213 39 L231 55 L237 58 L242 56 L256 47 L271 40 L277 34 L286 26 L292 21 L294 20 L298 20 L304 25 L311 32 L317 37 L321 39 L336 39 L360 35 L386 22 L393 14 L396 11 L397 11 L403 11 L419 26 L444 56 L470 86 L477 92 L483 98 L487 98 L493 89 L500 71 L507 49 L512 39 L516 35 L517 34 L519 35 L540 58 L566 80 L580 85 L585 81 L593 64 L603 47 L609 38 L611 34 L613 36 L632 60 L654 79 L665 81 L670 71 L678 49 L687 24 L689 18 L691 19 L694 21 M107 51 L107 50 L110 47 L114 41 L122 23 L131 17 L154 15 L178 18 L203 34 L229 59 L253 76 L269 84 L276 84 L287 76 L299 61 L314 45 L320 38 L324 34 L329 35 L358 54 L394 77 L422 88 L435 86 L444 71 L452 59 L458 48 L464 42 L468 38 L473 42 L482 57 L503 73 L511 76 L514 75 L519 68 L522 58 L529 40 L533 34 L534 33 L539 35 L550 42 L558 63 L581 82 L588 83 L591 81 L595 71 L601 56 L602 47 L602 44 L603 44 L618 58 L640 71 L659 81 L665 82 L669 79 L673 72 L673 62 L675 57 L676 56 " fill="none" stroke="black" /></svg>