<?xml version="1.0" encoding="utf-8" ?>
<svg baseProfile="tiny" height="323" version="1.2" viewBox="-3 -3 965 323" width="965" xmlns="http://www.w3.org/2000/svg" xmlns:ev="http://www.w3.org/2001/xml-events" xmlns:xlink="http://www.w3.org/1999/xlink"><defs /><path d="M202 289 L184 307 L271 259 L408 161 L443 136 L431 143 L385 164 L428 126 L435 113 L431 114 L396 141 L427 178 L688 193 L788 184 L785 185 L665 243 L665 266 L686 267 L689 264 L623 283 L510 300 L512 291 L522 262 L500 243 L300 228 L235 233 L303 192 L479 90 L526 67 L525 68 L436 126 L398 149 L493 119 L800 31 L929 0 L917 15 L745 111 L722 144 L804 134 L837 110 L813 114 L621 167 L497 209 L511 209 L539 199 L539 198 L491 227 L347 298 L347 299 L350 296 L174 297 L0 323 L10 311 L213 206 L449 129 L497 125 L373 191 L310 213 L420 169 L596 90 L608 85 L441 130 L244 168 L305 144 L457 84 L481 71 L454 87 L240 150 L166 174 L322 171 L486 128 L487 128 L421 158 L332 184 L418 191 L582 166 L592 162 L505 195 L324 260 L361 284 L721 258 L838 227 L820 227 L545 270 L520 282 L561 284 L883 227 L965 208 L962 210 L874 267 L843 302 L876 290 L928 220 L930 189 L722 150 L462 177 L445 182 L470 150 L564 93 L596 66 L589 66 L429 105 L390 118 L440 99 L512 70 L514 68 L502 68 L483 76 L510 65 L533 42 L527 33 L426 24 L272 81 L209 115 L215 119 L275 93 L338 82 L351 85 L321 134 L176 210 L163 220 L197 210 L255 183 L106 223 L19 260 L49 271 L276 258 L527 237 L582 231 L558 244 L471 263 L473 263 L561 231 L598 212 L595 212 L462 234 L446 238 L515 216 L628 157 L623 152 L554 149 L454 160 L473 159 L648 139 L717 130 L722 133 L689 156 L658 167 L655 167 " fill="none" stroke="black" /></svg>