<?xml version="1.0" encoding="utf-8" ?>
<svg baseProfile="tiny" height="330" version="1.2" viewBox="-3 -3 788 330" width="788" xmlns="http://www.w3.org/2000/svg" xmlns:ev="http://www.w3.org/2001/xml-events" xmlns:xlink="http://www.w3.org/1999/xlink"><defs /><path d="M313 289 L306 272 L304 251 L304 250 L289 252 L335 171 L361 146 L353 153 L320 180 L339 188 L354 195 L355 217 L396 246 L532 253 L521 244 L466 223 L456 224 L468 227 L471 218 L452 202 L452 197 L456 187 L456 186 L458 182 L492 160 L496 159 L473 164 L402 166 L401 166 L401 137 L389 123 L254 127 L140 149 L248 115 L415 69 L413 72 L369 95 L376 92 L374 100 L366 115 L430 89 L561 25 L562 34 L506 98 L500 121 L630 81 L788 13 L757 37 L510 156 L413 208 L472 190 L561 145 L563 142 L497 183 L471 202 L525 189 L589 152 L584 150 L447 211 L218 311 L227 313 L403 258 L454 230 L421 237 L147 302 L0 330 L41 291 L146 202 L168 150 L164 132 L182 121 L207 112 L204 114 L210 126 L256 127 L319 117 L319 120 L285 162 L277 171 L377 142 L663 63 L660 72 L550 145 L382 226 L391 225 L498 174 L509 168 L446 196 L390 216 L411 208 L435 191 L435 195 L432 231 L429 244 L459 218 L544 85 L553 54 L543 96 L547 180 L558 195 L579 162 L577 109 L571 89 L570 108 L581 182 L582 184 L582 173 L559 137 L536 131 L515 141 L513 142 L511 142 L499 135 L442 135 L389 179 L365 201 L349 185 L271 55 L206 0 L200 4 L210 32 L223 42 L224 40 L211 20 L209 20 L209 62 L261 142 L377 221 L393 226 L392 226 L273 256 L250 285 L258 293 L287 294 L301 286 L307 281 L355 222 L385 139 L387 132 L370 160 L361 191 L395 201 L438 194 L448 186 L448 185 L449 186 L483 194 L499 192 L500 192 " fill="none" stroke="black" /></svg>