<?xml version="1.0" encoding="utf-8" ?>
<svg baseProfile="tiny" height="176" version="1.2" viewBox="-3 -3 427 176" width="427" xmlns="http://www.w3.org/2000/svg" xmlns:ev="http://www.w3.org/2001/xml-events" xmlns:xlink="http://www.w3.org/1999/xlink"><defs /><path d="M153 71 L172 78 L175 82 L180 87 L188 99 L190 106 L188 121 L185 140 L179 147 L172 154 L148 162 L117 169 L80 166 L62 159 L41 138 L14 112 L1 84 L0 71 L5 59 L14 49 L25 41 L49 38 L72 40 L101 49 L125 56 L148 64 L169 71 L190 80 L213 87 L218 89 L224 94 L230 101 L232 106 L232 113 L230 126 L225 135 L219 140 L213 146 L207 150 L197 151 L183 148 L169 140 L140 108 L127 75 L130 59 L135 53 L145 46 L159 42 L175 42 L197 44 L207 48 L231 55 L238 60 L251 69 L271 84 L288 100 L303 121 L309 134 L310 144 L309 153 L303 158 L295 166 L277 172 L272 176 L263 176 L241 169 L219 145 L200 123 L194 117 L192 104 L191 91 L191 86 L195 80 L201 73 L213 65 L234 59 L256 56 L282 55 L310 59 L328 64 L336 69 L357 81 L386 96 L399 105 L403 111 L405 116 L405 121 L399 130 L389 150 L361 160 L336 166 L332 166 L320 163 L306 156 L297 146 L287 123 L275 98 L274 88 L274 82 L277 76 L283 66 L288 61 L297 55 L318 49 L327 47 L333 47 L353 48 L376 54 L388 57 L392 60 L403 68 L416 75 L422 82 L423 88 L426 93 L427 100 L427 109 L424 129 L417 146 L409 161 L405 166 L396 168 L379 169 L360 163 L332 145 L314 130 L305 118 L297 102 L292 91 L288 78 L286 69 L285 61 L283 54 L282 47 L284 36 L286 31 L291 25 L297 16 L304 10 L311 5 L316 1 L320 0 L338 2 L344 6 L353 11 L360 15 L362 16 L364 18 " fill="none" stroke="black" /></svg>