<?xml version="1.0" encoding="utf-8" ?>
<svg baseProfile="tiny" height="173" version="1.2" viewBox="-3 -3 1384 173" width="1384" xmlns="http://www.w3.org/2000/svg" xmlns:ev="http://www.w3.org/2001/xml-events" xmlns:xlink="http://www.w3.org/1999/xlink"><defs /><path d="M189 123 L195 124 L218 125 L256 121 L303 112 L348 104 L397 94 L443 84 L494 69 L529 53 L566 31 L601 15 L637 5 L666 1 L706 1 L735 3 L751 8 L766 17 L784 29 L807 42 L831 55 L862 60 L894 67 L928 67 L966 67 L1008 65 L1052 55 L1073 49 L1096 39 L1114 27 L1127 16 L1139 10 L1150 7 L1160 7 L1177 13 L1200 22 L1219 30 L1231 34 L1244 40 L1254 43 L1266 47 L1283 51 L1299 51 L1308 49 L1298 56 L1267 78 L1220 103 L1156 127 L1087 151 L1044 161 L981 172 L928 173 L878 173 L834 169 L783 159 L741 144 L706 128 L657 103 L612 89 L572 82 L532 81 L490 81 L458 89 L417 108 L389 126 L363 142 L334 153 L313 157 L298 157 L273 153 L244 147 L208 138 L174 125 L141 111 L116 102 L93 92 L70 85 L50 76 L38 70 L32 67 L31 65 L29 65 L23 71 L11 83 L1 91 L0 93 L2 91 L14 84 L41 71 L57 64 L95 55 L136 47 L175 42 L213 43 L248 51 L277 61 L305 72 L327 85 L354 100 L387 111 L415 115 L440 115 L477 111 L509 95 L536 75 L560 50 L594 27 L638 11 L696 0 L740 0 L772 4 L789 16 L816 31 L844 49 L877 70 L904 84 L930 90 L953 91 L973 86 L991 74 L1004 54 L1020 34 L1040 17 L1063 11 L1080 10 L1104 12 L1132 23 L1149 32 L1167 42 L1185 52 L1206 60 L1224 64 L1240 66 L1250 64 L1260 59 L1276 49 L1296 38 L1317 31 L1332 33 L1344 39 L1360 47 L1372 54 L1379 61 L1384 65 L1384 66 " fill="none" stroke="black" /></svg>