<?xml version="1.0" encoding="utf-8" ?>
<svg baseProfile="tiny" height="169" version="1.2" viewBox="-3 -3 1161 169" width="1161" xmlns="http://www.w3.org/2000/svg" xmlns:ev="http://www.w3.org/2001/xml-events" xmlns:xlink="http://www.w3.org/1999/xlink"><defs /><path d="M0 85 L6 85 L20 85 L56 85 L153 74 L258 54 L320 34 L351 18 L358 12 " fill="none" stroke="black" /><path d="M0 85 L6 85 L20 85 L56 85 L153 74 L258 54 L320 34 L351 18 L358 12 M386 0 L400 3 L432 10 L484 21 L562 36 L703 53 " fill="none" stroke="black" /><path d="M0 85 L6 85 L20 85 L56 85 L153 74 L258 54 L320 34 L351 18 L358 12 M386 0 L400 3 L432 10 L484 21 L562 36 L703 53 M1161 65 L1131 65 L1025 75 L862 106 L635 144 L443 169 " fill="none" stroke="black" /><path d="M0 85 L6 85 L20 85 L56 85 L153 74 L258 54 L320 34 L351 18 L358 12 M386 0 L400 3 L432 10 L484 21 L562 36 L703 53 M1161 65 L1131 65 L1025 75 L862 106 L635 144 L443 169 M191 134 L286 134 L426 134 L592 134 L738 134 L861 134 L925 132 L937 132 L938 132 " fill="none" stroke="black" /></svg>