<?xml version="1.0" encoding="utf-8" ?>
<svg baseProfile="tiny" height="100" version="1.2" viewBox="-3 -3 989 100" width="989" xmlns="http://www.w3.org/2000/svg" xmlns:ev="http://www.w3.org/2001/xml-events" xmlns:xlink="http://www.w3.org/1999/xlink"><defs /><path d="M0 99 L1 97 L8 92 L24 79 L40 60 L50 44 L51 43 L52 43 L55 43 L62 50 L76 68 L95 85 L111 96 L118 97 L125 86 L130 63 L131 37 L124 8 L118 3 L116 12 L121 42 L144 67 L159 72 L164 65 L164 53 L159 46 L152 41 L148 39 L148 42 L160 60 L179 64 L193 56 L196 48 L195 43 L193 41 L192 41 L197 48 L220 50 L252 43 L274 27 L284 11 L292 3 L299 0 L321 8 L348 28 L362 48 L364 60 L364 72 L364 80 L365 88 L372 94 L392 96 L425 84 L447 68 L452 52 L448 40 L443 33 L442 32 L447 33 L468 34 L488 38 L504 50 L520 60 L524 63 L531 52 L535 37 L540 32 L556 36 L588 52 L617 61 L640 61 L657 47 L666 36 L670 35 L686 41 L712 56 L734 61 L747 56 L758 44 L772 36 L789 35 L816 44 L846 60 L860 64 L869 61 L881 53 L896 45 L916 42 L947 46 L968 55 L985 59 L989 59 L984 49 L968 28 L952 19 L936 36 L899 64 L858 83 L818 85 L763 79 L726 84 L698 96 L679 100 L653 90 L616 79 L574 80 L547 89 L524 94 L492 89 L457 83 L408 74 " fill="none" stroke="black" /></svg>