<?xml version="1.0" encoding="utf-8" ?>
<svg baseProfile="tiny" height="102" version="1.2" viewBox="-3 -3 638 102" width="638" xmlns="http://www.w3.org/2000/svg" xmlns:ev="http://www.w3.org/2001/xml-events" xmlns:xlink="http://www.w3.org/1999/xlink"><defs /><path d="M142 70 L138 51 L135 42 L137 44 L145 55 L147 58 L149 52 L149 47 L151 53 L158 64 L158 63 L158 56 L163 69 L167 73 L168 59 L169 45 L171 46 L181 66 L184 70 L186 64 L187 49 L190 50 L195 62 L199 66 L201 55 L203 46 L207 47 L217 62 L220 66 L222 59 L223 49 L224 50 L229 62 L230 62 L230 58 L230 55 L231 55 L234 59 L235 50 L237 44 L239 44 L253 59 L283 72 L290 73 L289 69 L285 65 L285 64 L297 61 L302 57 L303 56 L321 57 L343 57 L343 56 L344 56 L346 57 L346 58 L347 58 L349 58 L355 58 L365 58 L367 58 L368 58 L373 48 L377 26 L377 22 L383 42 L391 61 L392 62 L392 58 L391 50 L391 47 L396 58 L400 64 L402 58 L404 30 L404 17 L411 31 L422 56 L425 60 L425 44 L425 17 L423 6 L417 14 L363 45 L300 62 L283 67 L286 75 L292 78 L291 62 L232 31 L142 41 L101 63 L95 67 L89 52 L68 41 L44 71 L56 102 L95 98 L127 42 L102 0 L38 3 L8 70 L36 99 L65 81 L56 38 L11 24 L0 46 L130 86 L288 54 L278 22 L95 18 L9 52 L103 77 L227 58 L219 46 L187 40 L190 47 L245 74 L307 95 L307 91 L294 60 L287 25 L287 22 L305 58 L333 96 L339 89 L332 40 L332 24 L342 45 L363 83 L372 90 L380 59 L380 49 L380 58 L391 90 L413 98 L446 76 L459 55 L462 58 L489 76 L534 87 L545 88 L546 86 L535 84 L515 72 L510 55 L546 34 L608 35 L635 42 L638 42 " fill="none" stroke="black" /></svg>