<?xml version="1.0" encoding="utf-8" ?>
<svg baseProfile="tiny" height="309" version="1.2" viewBox="-3 -3 702 309" width="702" xmlns="http://www.w3.org/2000/svg" xmlns:ev="http://www.w3.org/2001/xml-events" xmlns:xlink="http://www.w3.org/1999/xlink"><defs /><path d="M41 72 L31 73 L17 84 L6 102 L0 124 L0 140 L7 165 L18 180 L32 188 L44 193 L64 191 L84 178 L101 149 L107 120 L107 91 L104 68 L96 55 L91 51 L81 57 L74 76 L71 105 L80 140 L99 168 L119 181 L128 183 L132 177 L139 157 L145 127 L146 99 L143 74 L132 58 L124 54 L118 57 L108 71 L104 97 L108 131 L128 165 L148 181 L167 189 L185 190 L211 185 L228 160 L240 113 L236 78 L227 57 L216 51 L201 53 L174 69 L145 108 L144 138 L158 165 L184 189 L212 203 L240 205 L268 185 L278 155 L278 119 L272 79 L253 50 L227 37 L196 39 L180 57 L172 86 L174 123 L190 161 L218 187 L255 205 L280 205 L302 184 L320 142 L327 96 L321 56 L299 25 L276 13 L253 14 L233 26 L217 54 L212 104 L232 186 L258 219 L283 234 L302 237 L320 233 L337 209 L356 156 L361 110 L356 71 L336 48 L314 43 L292 49 L275 74 L271 108 L292 154 L340 192 L399 208 L444 201 L476 172 L484 132 L484 89 L463 60 L409 53 L328 107 L259 245 L276 308 L332 309 L433 238 L480 141 L468 71 L413 56 L364 113 L352 189 L376 220 L428 197 L475 129 L457 60 L408 41 L373 71 L371 146 L415 209 L486 218 L559 157 L559 107 L513 73 L458 70 L419 109 L419 171 L494 217 L600 194 L663 122 L648 57 L576 8 L512 0 L476 39 L484 96 L526 147 L582 161 L634 140 L649 97 L616 49 L548 33 L490 60 L473 124 L504 197 L576 233 L674 210 L702 159 L681 112 L643 93 L625 92 " fill="none" stroke="black" /></svg>