<?xml version="1.0" encoding="utf-8" ?>
<svg baseProfile="tiny" height="234" version="1.2" viewBox="-3 -3 1060 234" width="1060" xmlns="http://www.w3.org/2000/svg" xmlns:ev="http://www.w3.org/2001/xml-events" xmlns:xlink="http://www.w3.org/1999/xlink"><defs /><path d="M422 136 L422 118 L428 92 L441 65 L456 51 L464 51 L479 61 L495 81 L504 95 L508 98 L509 98 L516 92 L530 79 L556 61 L589 44 L628 37 L680 45 L712 59 L726 67 L728 68 L730 65 L732 51 L738 29 L740 24 L751 29 L780 47 L803 56 L816 56 L824 57 L828 61 L844 80 L869 116 L885 156 L888 188 L876 208 L848 208 L775 194 L691 176 L632 169 L588 177 L580 183 L568 180 L532 186 L491 221 L472 234 L465 223 L450 185 L425 147 L402 127 L396 128 L392 152 L387 181 L383 191 L380 189 L366 174 L328 148 L291 134 L264 132 L241 150 L232 158 L229 156 L208 133 L182 114 L160 100 L145 98 L120 127 L94 166 L79 180 L72 172 L55 153 L32 133 L12 117 L9 116 L8 116 L8 114 L5 100 L0 75 L0 54 L0 47 L8 50 L36 72 L64 94 L68 97 L72 84 L84 44 L100 5 L103 0 L112 14 L142 62 L167 104 L172 113 L176 98 L183 65 L192 29 L202 3 L205 0 L216 9 L245 60 L281 132 L319 201 L353 230 L376 227 L396 192 L413 117 L417 60 L414 16 L405 1 L402 2 L394 21 L390 72 L406 123 L443 167 L493 197 L532 206 L556 192 L564 159 L557 138 L554 135 L557 142 L574 164 L596 177 L609 176 L611 170 L611 152 L608 120 L616 83 L634 64 L668 68 L711 84 L746 100 L762 115 L771 135 L780 156 L788 164 L796 164 L807 160 L817 150 L822 136 L824 128 L830 126 L860 135 L906 139 L957 132 L996 123 L1026 116 L1051 115 L1059 113 L1060 111 L1056 106 " fill="none" stroke="black" /></svg>