<?xml version="1.0" encoding="utf-8" ?>
<svg baseProfile="tiny" height="199" version="1.2" viewBox="-3 -3 1071 199" width="1071" xmlns="http://www.w3.org/2000/svg" xmlns:ev="http://www.w3.org/2001/xml-events" xmlns:xlink="http://www.w3.org/1999/xlink"><defs /><path d="M0 167 L15 168 L27 164 L42 137 L66 98 L89 67 L96 60 L97 62 L120 126 L153 181 L161 186 L173 152 L173 108 L153 76 L151 78 L154 107 L169 135 L173 138 L172 127 L159 108 L117 88 L85 90 L65 108 L58 132 L71 160 L109 186 L181 199 L247 187 L296 165 L317 142 L317 112 L302 72 L280 48 L242 29 L209 24 L183 25 L175 35 L186 72 L222 113 L274 138 L339 139 L401 114 L425 76 L413 41 L400 29 L398 32 L399 32 L413 16 L432 0 L458 24 L466 95 L456 165 L446 182 L437 171 L416 129 L409 86 L409 82 L423 104 L429 148 L429 184 L433 191 L451 176 L497 127 L502 88 L486 67 L469 73 L459 110 L486 166 L557 189 L625 177 L641 150 L614 116 L553 99 L517 122 L533 152 L588 167 L662 146 L682 115 L668 77 L654 57 L657 57 L692 64 L745 75 L767 84 L769 97 L767 122 L770 130 L773 128 L781 103 L794 72 L798 69 L811 118 L833 152 L851 154 L864 132 L865 108 L865 100 L873 125 L900 162 L931 169 L959 146 L970 108 L960 80 L949 76 L945 99 L962 133 L996 144 L1023 136 L1029 124 L1020 117 L1001 123 L1001 132 L1004 137 L1006 137 L1011 124 L1016 99 L1016 91 L1029 117 L1053 149 L1065 161 L1067 162 L1067 148 L1071 117 " fill="none" stroke="black" /></svg>