<?xml version="1.0" encoding="utf-8" ?>
<svg baseProfile="tiny" height="79" version="1.2" viewBox="-3 -3 1035 79" width="1035" xmlns="http://www.w3.org/2000/svg" xmlns:ev="http://www.w3.org/2001/xml-events" xmlns:xlink="http://www.w3.org/1999/xlink"><defs /><path d="M42 73 L43 73 L49 73 L61 73 L78 72 L90 72 L102 72 L112 72 L128 70 L141 67 L159 64 L176 60 L195 56 L212 53 L234 48 L251 45 L268 42 L277 40 L286 39 L291 38 L296 38 L300 38 L304 40 L312 44 L320 46 L326 48 L332 50 L339 52 L347 52 L358 56 L368 57 L379 58 L389 58 L400 58 L412 58 L424 58 L437 58 L459 55 L472 52 L483 50 L489 48 L496 47 L504 45 L515 43 L524 41 L536 39 L548 36 L561 33 L577 30 L593 27 L611 24 L621 23 L632 23 L640 23 L649 23 L660 23 L674 23 L686 23 L698 23 L712 23 L728 23 L749 23 L766 23 L782 23 L796 23 L809 23 L826 23 L844 23 L868 23 L888 23 L912 23 L937 23 L961 23 L996 17 L1017 12 L1030 5 L1034 2 L1035 1 L1035 0 L1034 0 L1029 2 L1018 6 L1008 10 L993 16 L976 24 L963 28 L951 33 L939 38 L928 42 L912 45 L884 51 L860 56 L836 60 L809 65 L784 70 L760 72 L737 72 L721 72 L705 72 L693 72 L682 68 L663 60 L648 55 L637 51 L628 48 L612 45 L596 43 L573 40 L551 40 L532 40 L513 40 L497 40 L479 41 L461 44 L441 49 L428 53 L412 58 L400 62 L387 65 L372 68 L358 71 L341 74 L320 77 L304 79 L287 79 L272 79 L256 79 L240 79 L228 76 L216 74 L207 72 L198 69 L188 65 L182 62 L177 60 L172 58 L163 52 L152 44 L146 40 L140 38 L132 35 L124 33 L112 32 L103 32 L92 32 L80 32 L64 32 " fill="none" stroke="black" /><path d="M42 73 L43 73 L49 73 L61 73 L78 72 L90 72 L102 72 L112 72 L128 70 L141 67 L159 64 L176 60 L195 56 L212 53 L234 48 L251 45 L268 42 L277 40 L286 39 L291 38 L296 38 L300 38 L304 40 L312 44 L320 46 L326 48 L332 50 L339 52 L347 52 L358 56 L368 57 L379 58 L389 58 L400 58 L412 58 L424 58 L437 58 L459 55 L472 52 L483 50 L489 48 L496 47 L504 45 L515 43 L524 41 L536 39 L548 36 L561 33 L577 30 L593 27 L611 24 L621 23 L632 23 L640 23 L649 23 L660 23 L674 23 L686 23 L698 23 L712 23 L728 23 L749 23 L766 23 L782 23 L796 23 L809 23 L826 23 L844 23 L868 23 L888 23 L912 23 L937 23 L961 23 L996 17 L1017 12 L1030 5 L1034 2 L1035 1 L1035 0 L1034 0 L1029 2 L1018 6 L1008 10 L993 16 L976 24 L963 28 L951 33 L939 38 L928 42 L912 45 L884 51 L860 56 L836 60 L809 65 L784 70 L760 72 L737 72 L721 72 L705 72 L693 72 L682 68 L663 60 L648 55 L637 51 L628 48 L612 45 L596 43 L573 40 L551 40 L532 40 L513 40 L497 40 L479 41 L461 44 L441 49 L428 53 L412 58 L400 62 L387 65 L372 68 L358 71 L341 74 L320 77 L304 79 L287 79 L272 79 L256 79 L240 79 L228 76 L216 74 L207 72 L198 69 L188 65 L182 62 L177 60 L172 58 L163 52 L152 44 L146 40 L140 38 L132 35 L124 33 L112 32 L103 32 L92 32 L80 32 L64 32 M10 32 L0 32 " fill="none" stroke="black" /></svg>