<?xml version="1.0" encoding="utf-8" ?>
<svg baseProfile="tiny" height="203" version="1.2" viewBox="-3 -3 1136 203" width="1136" xmlns="http://www.w3.org/2000/svg" xmlns:ev="http://www.w3.org/2001/xml-events" xmlns:xlink="http://www.w3.org/1999/xlink"><defs /><path d="M0 190 L40 196 L161 199 L380 199 L602 199 L718 196 L724 196 " fill="none" stroke="black" /><path d="M0 190 L40 196 L161 199 L380 199 L602 199 L718 196 L724 196 M724 195 L725 191 L730 162 L742 92 L748 38 L754 8 L755 2 L756 0 " fill="none" stroke="black" /><path d="M0 190 L40 196 L161 199 L380 199 L602 199 L718 196 L724 196 M724 195 L725 191 L730 162 L742 92 L748 38 L754 8 L755 2 L756 0 M829 52 L869 81 L938 120 L1011 168 L1071 196 L1104 203 L1116 203 L1131 201 L1136 200 L1122 197 L996 196 L791 196 L552 196 L271 196 L103 196 L40 196 L28 196 L27 196 L28 182 L40 151 L56 114 L68 83 L73 68 L74 67 L76 66 L89 76 L156 104 L415 153 L718 157 L942 157 L1040 157 L1053 157 " fill="none" stroke="black" /></svg>