<?xml version="1.0" encoding="utf-8" ?>
<svg baseProfile="tiny" height="183" version="1.2" viewBox="-3 -3 1045 183" width="1045" xmlns="http://www.w3.org/2000/svg" xmlns:ev="http://www.w3.org/2001/xml-events" xmlns:xlink="http://www.w3.org/1999/xlink"><defs /><path d="M267 2 L259 3 L257 14 L264 34 L274 38 L277 38 L280 39 L281 39 L282 39 L282 40 L291 53 L313 60 L326 63 L328 65 L331 66 L332 66 L333 60 L331 51 L330 50 L331 72 L338 98 L341 100 L344 86 L349 70 L352 72 L361 94 L373 111 L377 107 L379 96 L379 95 L391 113 L402 126 L409 114 L413 88 L413 84 L418 95 L430 112 L433 114 L433 99 L433 90 L437 96 L453 127 L465 143 L468 141 L469 123 L470 119 L480 130 L503 153 L517 158 L525 142 L523 101 L507 75 L501 78 L499 116 L513 159 L545 174 L589 142 L593 99 L560 62 L498 52 L484 78 L507 114 L584 120 L626 92 L622 72 L589 67 L572 96 L591 138 L650 158 L694 143 L693 126 L648 114 L612 130 L620 164 L657 182 L687 168 L694 142 L676 119 L637 115 L629 141 L653 174 L680 174 L699 147 L693 110 L660 91 L642 103 L656 159 L698 183 L746 166 L762 123 L741 84 L711 76 L702 119 L728 163 L756 170 L777 139 L778 94 L761 71 L745 98 L747 147 L761 164 L782 145 L797 102 L781 62 L771 62 L774 102 L809 135 L856 127 L883 91 L868 56 L832 58 L829 82 L881 102 L981 94 L1019 71 L1001 58 L930 52 L986 40 L1039 17 L1045 3 L1038 0 L1035 16 L1041 66 L1040 122 L982 162 L845 159 L643 118 L365 64 L155 23 L22 6 L0 6 L16 21 L140 54 L334 72 L357 72 L356 73 " fill="none" stroke="black" /></svg>