<?xml version="1.0" encoding="utf-8" ?>
<svg baseProfile="tiny" height="23" version="1.2" viewBox="-3 -3 1019 23" width="1019" xmlns="http://www.w3.org/2000/svg" xmlns:ev="http://www.w3.org/2001/xml-events" xmlns:xlink="http://www.w3.org/1999/xlink"><defs /><path d="M0 23 L3 23 L10 23 L25 23 L45 23 L63 23 L78 23 L100 23 L129 23 L163 23 L193 23 L221 23 L241 23 L253 23 L268 23 L292 23 L317 23 L347 23 L389 23 L427 23 L480 23 L527 20 L568 14 L606 13 L650 13 L691 13 L724 10 L765 10 L799 6 L829 0 L860 0 L885 0 L914 0 L941 0 L966 0 L988 0 L1005 0 L1016 0 L1019 0 " fill="none" stroke="black" /></svg>