<?xml version="1.0" encoding="utf-8" ?>
<svg baseProfile="tiny" height="88" version="1.2" viewBox="-3 -3 964 88" width="964" xmlns="http://www.w3.org/2000/svg" xmlns:ev="http://www.w3.org/2001/xml-events" xmlns:xlink="http://www.w3.org/1999/xlink"><defs /><path d="M186 82 L187 82 L189 82 L191 82 L197 80 L205 79 L217 78 L229 75 L238 73 L249 70 L260 66 L269 62 L277 58 L282 56 L287 54 L296 52 L302 49 L311 47 L321 46 L329 45 L339 45 L347 45 L358 45 L373 45 L385 45 L397 45 L408 45 L416 45 L425 45 L437 45 L445 45 L453 45 L461 45 L466 45 L471 45 L477 45 L482 45 L489 45 L497 45 L507 45 L517 45 L530 45 L541 45 L553 45 L563 45 L570 45 L575 45 L579 45 L583 44 L585 42 L592 38 L595 36 L598 34 L603 30 L608 26 L613 22 L620 19 L623 17 L677 13 L686 15 L697 17 L705 18 L715 20 " fill="none" stroke="black" /><path d="M186 82 L187 82 L189 82 L191 82 L197 80 L205 79 L217 78 L229 75 L238 73 L249 70 L260 66 L269 62 L277 58 L282 56 L287 54 L296 52 L302 49 L311 47 L321 46 L329 45 L339 45 L347 45 L358 45 L373 45 L385 45 L397 45 L408 45 L416 45 L425 45 L437 45 L445 45 L453 45 L461 45 L466 45 L471 45 L477 45 L482 45 L489 45 L497 45 L507 45 L517 45 L530 45 L541 45 L553 45 L563 45 L570 45 L575 45 L579 45 L583 44 L585 42 L592 38 L595 36 L598 34 L603 30 L608 26 L613 22 L620 19 L623 17 L677 13 L686 15 L697 17 L705 18 L715 20 M735 20 L743 20 L754 20 L764 20 L774 20 L784 20 L792 20 L799 20 L809 20 L816 20 L825 20 L834 20 L845 20 L857 20 L868 20 L882 20 L892 20 L901 20 L913 20 L925 20 L937 20 L953 23 L961 26 L964 28 L964 32 L964 39 L950 58 L918 69 L865 82 L787 88 L669 86 L580 70 L533 55 L490 36 L453 25 L419 22 L373 26 L321 36 L282 46 L267 58 L265 69 L263 76 L261 78 L237 74 L187 65 L137 54 L81 42 L37 26 L11 15 L2 10 L0 8 L1 6 L6 2 L7 2 L7 1 L9 1 L26 1 L74 1 L189 1 L349 1 L477 1 L569 1 L594 1 L596 1 L597 0 " fill="none" stroke="black" /></svg>