<?xml version="1.0" encoding="utf-8" ?>
<svg baseProfile="tiny" height="135" version="1.2" viewBox="-3 -3 1232 135" width="1232" xmlns="http://www.w3.org/2000/svg" xmlns:ev="http://www.w3.org/2001/xml-events" xmlns:xlink="http://www.w3.org/1999/xlink"><defs /><path d="M170 61 L175 57 L180 50 L188 36 L197 18 L207 9 L209 8 L211 8 L217 10 L226 16 L238 26 L249 34 L261 44 L274 48 L289 50 L311 53 L342 53 L384 51 L426 41 L476 21 L511 7 L526 4 L538 9 L561 25 L581 37 L589 38 L592 37 L599 27 L608 13 L614 10 L625 17 L632 21 L636 17 L643 4 L644 0 L661 12 L708 38 L728 38 L732 20 L732 10 L740 13 L767 31 L797 37 L807 33 L813 32 L843 35 L910 42 L1000 42 L1088 33 L1131 26 L1152 26 L1168 33 L1187 45 L1204 53 L1222 50 L1232 41 L1232 37 L1231 41 L1218 52 L1168 67 L1080 84 L988 101 L895 121 L832 133 L784 135 L729 129 L712 123 L692 112 L661 97 L628 91 L596 90 " fill="none" stroke="black" /><path d="M170 61 L175 57 L180 50 L188 36 L197 18 L207 9 L209 8 L211 8 L217 10 L226 16 L238 26 L249 34 L261 44 L274 48 L289 50 L311 53 L342 53 L384 51 L426 41 L476 21 L511 7 L526 4 L538 9 L561 25 L581 37 L589 38 L592 37 L599 27 L608 13 L614 10 L625 17 L632 21 L636 17 L643 4 L644 0 L661 12 L708 38 L728 38 L732 20 L732 10 L740 13 L767 31 L797 37 L807 33 L813 32 L843 35 L910 42 L1000 42 L1088 33 L1131 26 L1152 26 L1168 33 L1187 45 L1204 53 L1222 50 L1232 41 L1232 37 L1231 41 L1218 52 L1168 67 L1080 84 L988 101 L895 121 L832 133 L784 135 L729 129 L712 123 L692 112 L661 97 L628 91 L596 90 M524 65 L523 65 L522 65 L511 60 L480 56 L446 56 L408 59 L376 64 L349 71 L340 73 L327 77 L304 85 L286 89 L267 89 L236 83 L211 77 L188 69 L160 63 L140 61 L122 63 L104 63 L85 61 L64 57 L48 54 L35 51 L20 45 L0 37 " fill="none" stroke="black" /></svg>