<?xml version="1.0" encoding="utf-8" ?>
<svg baseProfile="tiny" height="121" version="1.2" viewBox="-3 -3 856 121" width="856" xmlns="http://www.w3.org/2000/svg" xmlns:ev="http://www.w3.org/2001/xml-events" xmlns:xlink="http://www.w3.org/1999/xlink"><defs /><path d="M113 92 L126 96 L134 97 L147 100 L159 100 L175 100 L190 100 L203 100 L218 100 L229 99 L240 96 L251 93 L265 88 L279 81 L299 75 L312 68 L329 65 L345 62 L360 61 " fill="none" stroke="black" /><circle cx="406" cy="61" fill="black" r="1" /><path d="M113 92 L126 96 L134 97 L147 100 L159 100 L175 100 L190 100 L203 100 L218 100 L229 99 L240 96 L251 93 L265 88 L279 81 L299 75 L312 68 L329 65 L345 62 L360 61 M452 68 L471 72 L494 76 L518 76 L535 79 L551 82 L567 84 L588 84 L605 84 L621 84 L637 84 L649 83 L658 80 L665 80 L672 78 L677 76 L684 73 L693 70 L707 65 L722 63 L735 61 L747 61 L757 61 L766 61 L776 64 L788 67 L797 71 L802 73 L803 75 L806 81 L807 88 L807 90 L807 92 L804 95 L797 98 L784 103 L757 108 L731 112 L698 112 L663 108 L631 102 L596 96 L550 86 L508 77 L459 68 L413 68 L367 68 L324 68 L278 76 L247 81 L221 89 L209 96 L206 101 L200 107 L192 115 L182 120 L167 121 L151 121 L133 120 L111 112 L79 100 L54 91 L35 84 L23 79 L15 76 L7 71 L2 68 L0 66 L0 65 L2 63 L8 60 L24 59 L46 59 L68 59 L87 59 L103 61 L120 67 L140 73 L152 77 L169 77 L188 75 L207 67 L216 59 L221 46 L227 31 L239 13 L250 3 L256 0 L263 2 L278 20 L295 41 L307 54 L311 56 L312 56 L314 51 L317 38 L322 28 L324 24 L327 24 L335 24 L350 26 L372 31 L390 32 L403 32 L415 32 L426 34 L440 36 L459 36 L473 36 L495 34 L515 29 L538 25 L564 20 L599 19 L631 19 L660 19 L684 19 L707 19 L725 19 L752 19 L771 19 L786 20 L799 24 L816 31 L833 37 L846 42 L851 44 L854 44 L855 44 L856 44 " fill="none" stroke="black" /></svg>