<?xml version="1.0" encoding="utf-8" ?>
<svg baseProfile="tiny" height="235" version="1.2" viewBox="-3 -3 972 235" width="972" xmlns="http://www.w3.org/2000/svg" xmlns:ev="http://www.w3.org/2001/xml-events" xmlns:xlink="http://www.w3.org/1999/xlink"><defs /><path d="M0 115 L1 115 L4 115 L6 114 L8 105 L10 95 L10 92 L11 91 L15 97 L17 100 L18 100 L19 100 L22 102 L25 103 L32 103 L40 99 L56 95 L72 95 L99 93 L144 86 L205 72 L278 59 L332 58 L340 58 L336 59 L296 59 L205 59 L123 57 L105 53 L105 51 L108 51 L108 54 L112 59 L117 62 L121 67 L128 75 L167 87 L240 95 L268 95 L265 92 L265 91 L266 89 L269 83 L275 67 L281 54 L282 56 L289 83 L299 105 L301 107 L302 89 L301 74 L301 75 L311 103 L316 113 L319 100 L324 59 L327 39 L337 60 L358 100 L372 110 L390 94 L421 68 L463 61 L531 79 L616 100 L687 103 L705 99 L688 96 L580 95 L350 95 L229 87 L206 74 L212 67 L292 57 L440 55 L521 44 L520 42 L508 40 L506 40 L507 40 L530 45 L544 53 L544 55 L545 46 L545 41 L545 43 L560 68 L567 73 L573 62 L578 45 L584 44 L616 66 L684 83 L726 76 L738 66 L739 67 L760 74 L805 73 L819 71 L826 71 L829 72 L821 72 L740 71 L636 71 L632 71 L697 58 L892 19 L972 3 L956 5 L911 16 L910 17 L927 5 L935 0 L932 17 L924 58 L915 103 L908 109 L871 70 L817 15 L783 21 L764 109 L750 220 L752 235 L747 232 L684 203 L531 165 L458 152 L450 166 L457 193 L453 203 L404 201 L315 184 L279 175 L276 167 L278 155 L283 142 L286 134 L288 128 " fill="none" stroke="black" /></svg>