<?xml version="1.0" encoding="utf-8" ?>
<svg baseProfile="tiny" height="142" version="1.2" viewBox="-3 -3 976 142" width="976" xmlns="http://www.w3.org/2000/svg" xmlns:ev="http://www.w3.org/2001/xml-events" xmlns:xlink="http://www.w3.org/1999/xlink"><defs /><path d="M128 67 L128 65 L129 61 L130 59 L134 60 L140 64 L149 72 L157 77 L158 79 " fill="none" stroke="black" /><circle cx="275" cy="66" fill="black" r="1" /><circle cx="355" cy="66" fill="black" r="1" /><circle cx="402" cy="70" fill="black" r="1" /><circle cx="430" cy="70" fill="black" r="1" /><path d="M128 67 L128 65 L129 61 L130 59 L134 60 L140 64 L149 72 L157 77 L158 79 M437 70 L450 70 " fill="none" stroke="black" /><circle cx="507" cy="70" fill="black" r="1" /><path d="M128 67 L128 65 L129 61 L130 59 L134 60 L140 64 L149 72 L157 77 L158 79 M437 70 L450 70 M526 70 L533 70 " fill="none" stroke="black" /><path d="M128 67 L128 65 L129 61 L130 59 L134 60 L140 64 L149 72 L157 77 L158 79 M437 70 L450 70 M526 70 L533 70 M545 70 L554 70 " fill="none" stroke="black" /><path d="M128 67 L128 65 L129 61 L130 59 L134 60 L140 64 L149 72 L157 77 L158 79 M437 70 L450 70 M526 70 L533 70 M545 70 L554 70 M593 70 L597 70 " fill="none" stroke="black" /><circle cx="653" cy="71" fill="black" r="1" /><path d="M128 67 L128 65 L129 61 L130 59 L134 60 L140 64 L149 72 L157 77 L158 79 M437 70 L450 70 M526 70 L533 70 M545 70 L554 70 M593 70 L597 70 M673 73 L677 73 " fill="none" stroke="black" /><circle cx="708" cy="73" fill="black" r="1" /><circle cx="742" cy="73" fill="black" r="1" /><path d="M128 67 L128 65 L129 61 L130 59 L134 60 L140 64 L149 72 L157 77 L158 79 M437 70 L450 70 M526 70 L533 70 M545 70 L554 70 M593 70 L597 70 M673 73 L677 73 M775 74 L790 74 " fill="none" stroke="black" /><path d="M128 67 L128 65 L129 61 L130 59 L134 60 L140 64 L149 72 L157 77 L158 79 M437 70 L450 70 M526 70 L533 70 M545 70 L554 70 M593 70 L597 70 M673 73 L677 73 M775 74 L790 74 M840 81 L843 82 " fill="none" stroke="black" /><path d="M128 67 L128 65 L129 61 L130 59 L134 60 L140 64 L149 72 L157 77 L158 79 M437 70 L450 70 M526 70 L533 70 M545 70 L554 70 M593 70 L597 70 M673 73 L677 73 M775 74 L790 74 M840 81 L843 82 M859 88 L860 88 L851 93 " fill="none" stroke="black" /><path d="M128 67 L128 65 L129 61 L130 59 L134 60 L140 64 L149 72 L157 77 L158 79 M437 70 L450 70 M526 70 L533 70 M545 70 L554 70 M593 70 L597 70 M673 73 L677 73 M775 74 L790 74 M840 81 L843 82 M859 88 L860 88 L851 93 M788 126 L725 140 L640 142 L501 130 L333 97 L197 70 L49 40 L7 32 L2 31 L0 37 L0 46 L0 52 " fill="none" stroke="black" /><path d="M128 67 L128 65 L129 61 L130 59 L134 60 L140 64 L149 72 L157 77 L158 79 M437 70 L450 70 M526 70 L533 70 M545 70 L554 70 M593 70 L597 70 M673 73 L677 73 M775 74 L790 74 M840 81 L843 82 M859 88 L860 88 L851 93 M788 126 L725 140 L640 142 L501 130 L333 97 L197 70 L49 40 L7 32 L2 31 L0 37 L0 46 L0 52 M413 60 L587 44 L765 9 L898 0 L962 0 L976 2 " fill="none" stroke="black" /></svg>