<?xml version="1.0" encoding="utf-8" ?>
<svg baseProfile="tiny" height="339" version="1.2" viewBox="-3 -3 804 339" width="804" xmlns="http://www.w3.org/2000/svg" xmlns:ev="http://www.w3.org/2001/xml-events" xmlns:xlink="http://www.w3.org/1999/xlink"><defs /><path d="M55 220 L56 219 L70 202 L96 165 L105 137 L104 110 L79 87 L34 84 L0 120 L35 264 L170 339 L354 284 L468 116 L422 0 L192 4 L74 136 L187 200 L407 147 L434 98 L329 80 L269 131 L367 185 L540 156 L543 121 L474 68 L456 36 L472 30 L633 86 L746 160 L746 240 L697 293 L689 292 L684 228 L682 122 L685 104 L690 122 L697 186 L729 262 L776 294 L804 262 L778 176 L635 60 L428 32 L286 123 L274 249 L447 329 L682 258 L747 177 L673 154 L532 212 L508 268 L594 269 L655 220 L597 195 L389 233 L347 268 L396 281 L480 254 L454 234 L410 224 L406 221 L406 206 L402 168 L353 92 " fill="none" stroke="black" /></svg>