<?xml version="1.0" encoding="utf-8" ?>
<svg baseProfile="tiny" height="116" version="1.2" viewBox="-3 -3 1163 116" width="1163" xmlns="http://www.w3.org/2000/svg" xmlns:ev="http://www.w3.org/2001/xml-events" xmlns:xlink="http://www.w3.org/1999/xlink"><defs /><path d="M184 70 L186 69 L188 68 L191 67 L198 66 L204 66 L208 66 L217 69 L226 73 L234 77 L247 84 L259 91 L268 94 L272 94 L276 94 L281 94 L284 91 L287 82 L289 73 L290 68 L292 63 L295 59 L304 55 L312 55 L324 56 L336 60 L349 67 L364 75 L376 80 L380 80 L385 79 L392 72 L395 63 L397 52 L401 41 L408 36 L415 32 L424 32 L440 32 L465 32 L500 32 L524 32 L543 34 L556 36 L573 40 L596 44 L624 50 L647 55 L670 59 L693 60 L719 60 L740 60 L755 60 L771 56 L780 52 L790 47 L802 40 L818 32 L843 24 L856 22 L868 20 L879 20 L890 22 L900 28 L912 33 L924 38 L934 41 L944 44 L960 48 L979 52 L1005 56 L1024 60 L1044 63 L1064 63 L1077 63 L1092 61 L1112 56 L1131 50 L1146 42 L1156 34 L1162 25 L1163 20 L1163 15 L1163 11 L1161 7 L1159 4 L1155 1 L1152 0 L1148 0 L1144 0 L1138 2 L1130 7 L1121 12 L1115 16 L1107 24 L1096 32 L1088 38 L1081 41 L1074 46 L1066 49 L1054 54 L1034 62 L1017 69 L996 77 L973 86 L944 94 L919 99 L884 105 L860 105 L837 105 L811 103 L784 98 L756 90 L728 79 L696 71 L667 66 L635 60 L600 53 L564 53 L539 53 L511 56 L484 61 L461 66 L441 73 L412 84 L386 95 L360 101 L336 106 L309 111 L284 116 L262 116 L228 116 L201 116 L177 116 L151 111 L120 104 L91 98 L68 93 L39 88 L23 84 L14 83 L8 82 L3 80 L0 78 " fill="none" stroke="black" /></svg>