<?xml version="1.0" encoding="utf-8" ?>
<svg baseProfile="tiny" height="255" version="1.2" viewBox="-3 -3 939 255" width="939" xmlns="http://www.w3.org/2000/svg" xmlns:ev="http://www.w3.org/2001/xml-events" xmlns:xlink="http://www.w3.org/1999/xlink"><defs /><path d="M223 161 L272 155 L288 134 L285 101 L267 68 L264 56 L275 57 L280 63 L279 71 L277 79 L277 87 L283 100 L280 105 L245 116 L225 120 L227 117 L231 110 L237 116 L249 135 L267 151 L287 156 L304 142 L305 132 L289 140 L288 150 L299 150 L311 139 L312 136 L317 156 L331 187 L335 189 L335 159 L339 108 L344 96 L360 120 L380 143 L396 139 L409 115 L411 110 L423 125 L454 146 L495 148 L523 143 L528 144 L528 146 L511 142 L427 119 L316 96 L273 88 L275 87 L345 87 L443 92 L451 97 L445 105 L444 109 L447 117 L455 130 L461 136 L463 136 L463 132 L477 140 L497 152 L512 156 L523 151 L524 136 L525 130 L533 136 L547 152 L554 155 L556 142 L556 132 L559 132 L572 144 L582 152 L584 145 L591 109 L595 108 L613 136 L632 154 L638 148 L644 120 L647 113 L658 128 L671 134 L692 112 L719 72 L744 55 L765 77 L723 166 L647 161 L513 138 L373 113 L345 107 L365 103 L421 91 L437 89 L436 87 L480 93 L543 109 L573 122 L577 124 L579 124 L588 106 L630 52 L648 45 L676 72 L701 96 L714 100 L721 92 L724 88 L737 105 L759 121 L769 120 L783 96 L799 82 L821 94 L842 112 L862 121 L883 112 L895 104 L909 107 L931 140 L938 163 L939 167 L939 163 L939 139 L931 126 L927 136 L918 179 L864 229 L708 255 L609 240 L543 213 L440 204 L359 230 L324 237 L312 227 L295 208 L235 204 L219 211 L218 211 L205 200 L149 187 L103 186 L96 184 L93 175 L80 156 L60 128 L34 74 L0 0 " fill="none" stroke="black" /></svg>