<?xml version="1.0" encoding="utf-8" ?>
<svg baseProfile="tiny" height="122" version="1.2" viewBox="-3 -3 1058 122" width="1058" xmlns="http://www.w3.org/2000/svg" xmlns:ev="http://www.w3.org/2001/xml-events" xmlns:xlink="http://www.w3.org/1999/xlink"><defs /><path d="M330 86 L330 84 L332 85 L342 90 L346 88 L351 61 L352 40 L353 40 L372 80 L384 100 L386 97 L386 76 L384 63 L384 66 L394 91 L397 94 L397 91 L396 82 L404 94 L407 99 L408 89 L408 74 L408 72 L416 86 L423 100 L424 100 L424 86 L424 80 L425 84 L433 99 L435 102 L435 92 L432 82 L437 92 L445 100 L446 100 L446 92 L446 88 L449 92 L464 115 L475 122 L476 112 L476 76 L476 62 L476 66 L488 82 L495 87 L499 80 L499 65 L499 64 L508 78 L524 92 L530 91 L532 76 L530 59 L530 58 L549 73 L568 81 L569 80 L562 72 L548 64 L548 63 L491 17 L677 19 L698 20 L712 26 L718 37 L717 52 L708 69 L688 84 L668 88 L636 88 L596 84 L561 75 L530 64 L504 60 L496 65 L493 72 L494 80 L508 88 L536 96 L585 101 L626 93 L659 76 L680 58 L688 52 L690 55 L710 76 L732 90 L744 94 L748 92 L752 81 L760 63 L772 55 L788 66 L807 89 L812 94 L816 88 L821 71 L834 50 L856 49 L889 68 L916 80 L928 80 L929 75 L929 72 L937 72 L963 76 L993 74 L1012 64 L1020 54 L1028 53 L1040 63 L1053 71 L1057 72 L1058 69 L1057 64 L1058 76 L1052 95 L1020 108 L975 104 L901 76 L742 14 L660 0 L620 28 L592 72 L583 85 L579 84 L550 72 L513 79 L484 99 L472 105 L460 92 L415 65 L365 65 L324 91 L300 106 L292 100 L262 77 L199 60 L123 72 L96 85 L94 86 L86 72 L64 56 L44 51 L35 54 L32 55 L22 48 L0 33 " fill="none" stroke="black" /></svg>