<?xml version="1.0" encoding="utf-8" ?>
<svg baseProfile="tiny" height="394" version="1.2" viewBox="-3 -3 773 394" width="773" xmlns="http://www.w3.org/2000/svg" xmlns:ev="http://www.w3.org/2001/xml-events" xmlns:xlink="http://www.w3.org/1999/xlink"><defs /><path d="M0 372 L19 371 L35 371 L66 369 L85 369 L128 368 L148 370 L169 373 L183 376 L207 377 L225 377 L233 379 L256 380 L274 381 L282 381 L296 382 L316 384 L328 384 L337 386 L355 388 L375 389 L381 390 L394 393 L410 393 L423 393 L427 393 L436 394 L448 394 L455 393 L464 391 L469 390 L476 388 L485 384 L496 381 L509 379 L524 374 L544 369 L553 366 L559 363 L566 360 L579 350 L601 335 L613 325 L620 317 L625 311 L632 302 L639 293 L646 284 L654 274 L662 266 L669 253 L673 245 L677 237 L680 229 L690 212 L694 208 L698 203 L703 196 L707 190 L710 183 L713 176 L713 171 L715 166 L716 161 L716 158 L716 154 L717 150 L718 146 L719 138 L723 131 L725 122 L730 113 L733 110 L746 82 L751 70 L755 57 L759 48 L761 38 L761 34 L761 32 L765 27 L769 17 L771 12 L773 6 L773 0 " fill="none" stroke="black" /></svg>