<?xml version="1.0" encoding="utf-8" ?>
<svg baseProfile="tiny" height="301" version="1.2" viewBox="-3 -3 956 301" width="956" xmlns="http://www.w3.org/2000/svg" xmlns:ev="http://www.w3.org/2001/xml-events" xmlns:xlink="http://www.w3.org/1999/xlink"><defs /><path d="M0 301 L0 298 L4 293 L8 284 L12 279 L15 275 L18 272 L22 268 L26 264 L30 260 L33 256 L36 254 L39 251 L41 249 L45 245 L52 242 L59 238 L73 236 L80 236 L89 236 L102 236 L122 236 L128 236 L133 239 L146 242 L157 247 L168 253 L173 258 L177 263 L184 270 L193 278 L199 280 L208 286 L213 288 L220 292 L234 295 L255 295 L266 294 L280 290 L291 287 L293 285 L298 280 L304 273 L311 265 L321 254 L334 243 L343 235 L351 226 L357 218 L366 209 L385 200 L403 193 L433 185 L454 182 L468 181 L490 185 L497 188 L500 190 L524 193 L549 200 L565 211 L591 226 L605 236 L611 243 L636 259 L650 266 L656 268 L663 272 L679 280 L696 285 L704 288 L709 288 L731 282 L749 276 L761 271 L773 267 L788 260 L802 251 L822 238 L834 231 L841 227 L845 224 L847 223 L857 209 L886 168 L898 149 L911 126 L921 109 L929 97 L941 75 L944 63 L947 53 L949 47 L952 40 L954 31 L955 23 L955 19 L956 0 " fill="none" stroke="black" /></svg>