<?xml version="1.0" encoding="utf-8" ?>
<svg baseProfile="tiny" height="400" version="1.2" viewBox="-3 -3 1022 400" width="1022" xmlns="http://www.w3.org/2000/svg" xmlns:ev="http://www.w3.org/2001/xml-events" xmlns:xlink="http://www.w3.org/1999/xlink"><defs /><path d="M0 400 L11 377 L32 348 L47 327 L56 312 L69 293 L93 268 L108 252 L143 228 L165 218 L181 211 L222 204 L247 204 L267 204 L318 188 L346 177 L380 169 L394 169 L412 170 L432 176 L449 190 L460 204 L473 230 L477 251 L477 276 L474 293 L468 310 L457 327 L444 340 L409 354 L380 354 L350 348 L339 339 L331 326 L323 288 L326 243 L334 199 L377 147 L402 123 L435 104 L451 100 L462 99 L465 99 L509 78 L549 58 L574 48 L601 44 L626 42 L635 42 L646 42 L670 48 L678 51 L684 54 L689 58 L700 69 L705 77 L709 83 L715 92 L720 106 L721 124 L721 142 L712 177 L701 199 L680 229 L665 245 L639 256 L618 254 L599 239 L593 199 L602 147 L624 103 L763 3 L852 0 L870 2 L872 2 L907 14 L934 28 L951 46 L966 71 L976 89 L986 105 L995 123 L1001 137 L1009 156 L1015 172 L1020 183 L1022 190 " fill="none" stroke="black" /></svg>