<?xml version="1.0" encoding="utf-8" ?>
<svg baseProfile="tiny" height="263" version="1.2" viewBox="-3 -3 851 263" width="851" xmlns="http://www.w3.org/2000/svg" xmlns:ev="http://www.w3.org/2001/xml-events" xmlns:xlink="http://www.w3.org/1999/xlink"><defs /><path d="M0 263 L12 259 L21 256 L29 253 L37 250 L48 245 L57 241 L68 235 L76 231 L92 224 L102 220 L112 216 L118 213 L130 209 L147 203 L163 196 L170 194 L187 183 L208 177 L216 173 L221 171 L233 166 L245 163 L261 158 L264 156 L274 151 L285 146 L301 140 L308 138 L319 133 L332 130 L345 126 L358 122 L368 118 L385 115 L401 111 L411 108 L428 103 L433 101 L442 98 L452 95 L460 92 L475 85 L487 82 L499 78 L503 77 L514 74 L528 70 L543 66 L546 65 L551 63 L559 60 L571 55 L581 53 L587 50 L593 48 L604 44 L618 40 L633 37 L640 34 L650 31 L657 30 L664 29 L668 29 L672 27 L676 27 L683 24 L688 23 L694 22 L699 21 L704 20 L710 18 L715 17 L717 17 L721 17 L723 17 L728 16 L730 16 L735 15 L739 14 L746 13 L749 12 L754 12 L758 11 L761 11 L765 11 L767 10 L772 9 L778 8 L785 7 L788 7 L790 7 L791 7 L793 7 L794 7 L797 7 L800 5 L804 4 L806 4 L810 4 L817 4 L823 4 L826 4 L829 3 L834 3 L839 2 L844 2 L849 1 L851 0 " fill="none" stroke="black" /></svg>