<?xml version="1.0" encoding="utf-8" ?>
<svg baseProfile="tiny" height="341" version="1.2" viewBox="-3 -3 432 341" width="432" xmlns="http://www.w3.org/2000/svg" xmlns:ev="http://www.w3.org/2001/xml-events" xmlns:xlink="http://www.w3.org/1999/xlink"><defs /><path d="M8 317 L6 310 L1 275 L0 233 L4 190 L25 139 L42 104 L73 72 L126 32 L204 4 L246 0 L322 7 L402 50 L427 103 L432 145 L426 243 L404 295 L364 325 L264 341 L185 312 L140 283 L115 242 L115 178 L142 136 L218 99 L283 105 L313 126 L322 149 L312 220 L265 268 L233 286 L199 287 L172 264 L163 239 L180 203 L238 176 L253 175 L277 183 L287 208 L277 227 L265 238 L220 238 L201 220 L200 197 L216 188 L233 187 L240 199 L238 216 L228 226 L221 230 L219 229 L218 223 L221 220 L222 220 L223 220 L224 218 " fill="none" stroke="black" /></svg>