<?xml version="1.0" encoding="utf-8" ?>
<svg baseProfile="tiny" height="533" version="1.2" viewBox="-3 -3 717 533" width="717" xmlns="http://www.w3.org/2000/svg" xmlns:ev="http://www.w3.org/2001/xml-events" xmlns:xlink="http://www.w3.org/1999/xlink"><defs /><path d="M150 149 L66 139 L24 149 L10 161 L0 202 L2 261 L23 317 L143 376 L295 377 L467 344 L561 288 L554 180 L489 131 L399 105 L322 104 L277 126 L236 281 L282 359 L393 408 L633 389 L654 345 L545 241 L447 206 L345 211 L261 257 L233 415 L282 492 L453 533 L643 486 L710 351 L575 224 L384 149 L257 136 L179 149 L132 203 L140 309 L247 435 L553 443 L717 260 L648 154 L488 30 L327 0 L238 19 L159 126 L141 270 L178 350 L348 413 L578 382 L691 317 L678 201 L546 101 L426 77 L341 91 L283 143 L263 248 L283 307 L431 333 L548 291 L561 269 L461 202 L400 196 L378 206 L366 258 L374 295 L423 323 L504 317 L524 307 L525 304 L513 289 L475 270 L463 269 L437 266 L423 266 L416 266 " fill="none" stroke="black" /></svg>