<?xml version="1.0" encoding="utf-8" ?>
<svg baseProfile="tiny" height="656" version="1.2" viewBox="-3 -3 1035 656" width="1035" xmlns="http://www.w3.org/2000/svg" xmlns:ev="http://www.w3.org/2001/xml-events" xmlns:xlink="http://www.w3.org/1999/xlink"><defs /><path d="M0 357 L36 327 L252 175 L494 51 L533 36 L526 69 L369 368 L519 620 L519 640 L603 499 L666 424 L667 422 L555 551 L463 656 L460 656 L564 458 L689 314 L697 306 L590 422 L496 532 L485 544 L483 539 L611 367 L651 327 L652 326 L489 456 L459 487 L454 479 L609 231 L739 119 L742 118 L610 242 L481 422 L470 443 L468 445 L721 216 L835 145 L838 144 L739 288 L626 451 L621 462 L740 322 L950 137 L967 123 L886 252 L757 454 L735 491 L757 424 L939 205 L1035 116 L1019 177 L874 413 L831 495 L866 441 L1000 265 L1014 247 L968 320 L827 539 L775 600 L805 468 L867 274 L876 253 L765 319 L526 543 L503 566 L496 552 L590 323 L687 190 L684 188 L498 323 L373 438 L347 458 L385 280 L541 54 L580 2 L564 0 L290 251 L196 326 L190 332 L187 329 " fill="none" stroke="black" /></svg>