<?xml version="1.0" encoding="utf-8" ?>
<svg baseProfile="tiny" height="396" version="1.2" viewBox="-3 -3 1009 396" width="1009" xmlns="http://www.w3.org/2000/svg" xmlns:ev="http://www.w3.org/2001/xml-events" xmlns:xlink="http://www.w3.org/1999/xlink"><defs /><path d="M0 264 L12 244 L46 198 L125 140 L167 108 L213 74 L257 46 L314 23 L364 10 L393 10 L421 10 L425 7 L429 7 L479 4 L568 0 L607 0 L638 2 L664 5 L687 10 L701 14 L714 17 L727 23 L743 32 L766 45 L784 58 L787 60 L790 62 L821 73 L841 87 L869 107 L887 121 L908 139 L931 158 L944 175 L962 201 L980 231 L991 251 L1005 287 L1009 315 L1004 343 L991 362 L959 384 L887 395 L809 396 L710 389 L648 384 L584 374 L518 363 L476 357 L417 337 L378 318 L345 305 L318 296 L303 292 L297 289 L292 287 L288 281 L284 276 L284 270 L284 265 L284 262 L284 259 L284 254 L284 251 L284 250 L286 247 L286 244 L287 241 L287 238 L287 237 L287 235 L288 233 L288 232 L288 231 L289 230 L292 229 L293 227 L298 225 L309 219 L334 210 L354 204 L375 197 L403 194 L426 192 L447 192 L457 195 L472 200 L482 203 L491 205 L499 206 L503 206 L510 205 L512 201 L520 180 L522 161 L522 148 L522 132 L519 119 L509 110 L491 102 L475 97 L441 90 L424 89 L394 89 L373 91 L341 101 L315 114 L292 127 L264 141 L245 164 L221 209 L211 237 L205 280 L205 307 L211 340 " fill="none" stroke="black" /></svg>