<?xml version="1.0" encoding="utf-8" ?>
<svg baseProfile="tiny" height="488" version="1.2" viewBox="-3 -3 490 488" width="490" xmlns="http://www.w3.org/2000/svg" xmlns:ev="http://www.w3.org/2001/xml-events" xmlns:xlink="http://www.w3.org/1999/xlink"><defs /><path d="M1 354 L163 199 L380 51 L397 43 L400 48 L320 200 L196 359 L189 369 L198 326 L322 141 L340 121 L338 124 L153 281 L43 368 L9 395 L57 273 L192 82 L268 0 L266 0 L120 147 L34 267 L22 295 L22 298 L221 216 L405 87 L410 83 L248 196 L118 364 L102 393 L121 396 L350 327 L383 304 L350 261 L202 194 L155 187 L84 219 L61 273 L77 328 L303 382 L420 326 L490 237 L409 153 L180 95 L70 125 L0 196 L10 262 L159 345 L345 274 L352 268 L328 231 L130 157 L55 153 L29 182 L44 294 L216 478 L352 488 L431 395 L419 217 L298 147 L247 138 L213 166 L211 262 L266 308 L330 304 L365 230 L337 197 L299 215 L252 310 L257 333 L299 328 L344 259 L346 242 L325 242 L289 330 L289 370 L337 376 L393 317 L408 266 L355 215 " fill="none" stroke="black" /></svg>