<?xml version="1.0" encoding="utf-8" ?>
<svg baseProfile="tiny" height="287" version="1.2" viewBox="-3 -3 734 287" width="734" xmlns="http://www.w3.org/2000/svg" xmlns:ev="http://www.w3.org/2001/xml-events" xmlns:xlink="http://www.w3.org/1999/xlink"><defs /><path d="M5 208 L3 205 L1 190 L0 164 L0 152 L0 134 L0 120 L2 107 L4 97 L7 86 L11 76 L15 68 L18 61 L22 56 L27 50 L32 44 L36 39 L40 33 L43 29 L49 25 L55 21 L63 18 L70 15 L76 14 L81 14 L89 14 L99 14 L107 16 L114 19 L118 22 L127 34 L129 49 L130 76 L128 110 L125 144 L124 179 L125 204 L127 217 L132 224 L145 230 L159 226 L177 200 L184 175 L189 132 L193 80 L201 53 L218 25 L241 6 L267 0 L280 4 L288 27 L277 99 L259 167 L246 211 L245 227 L250 236 L269 243 L286 240 L305 205 L302 159 L292 131 L291 106 L302 67 L315 43 L322 33 L331 30 L342 31 L364 83 L359 153 L348 216 L351 249 L361 268 L368 274 L387 264 L402 227 L396 182 L384 141 L386 108 L401 66 L425 37 L452 20 L459 18 L467 23 L488 57 L503 122 L505 232 L504 275 L503 284 L503 286 L503 287 L549 245 L566 202 L556 146 L548 112 L551 78 L564 52 L589 26 L619 13 L638 13 L655 28 L681 88 L689 150 L687 193 L687 215 L689 223 L710 235 L725 236 L732 235 L734 235 " fill="none" stroke="black" /></svg>