<?xml version="1.0" encoding="utf-8" ?>
<svg baseProfile="tiny" height="312" version="1.2" viewBox="-3 -3 1107 312" width="1107" xmlns="http://www.w3.org/2000/svg" xmlns:ev="http://www.w3.org/2001/xml-events" xmlns:xlink="http://www.w3.org/1999/xlink"><defs /><path d="M0 303 L6 294 L33 268 L64 249 L82 236 L109 218 L123 208 L154 190 L178 176 L198 157 L221 144 L235 138 L241 134 L255 122 L268 115 L280 109 L290 102 L304 94 L317 88 L330 83 L336 80 L347 74 L357 70 L369 65 L377 63 L386 60 L400 56 L412 53 L429 45 L442 33 L458 28 L484 22 L493 20 L509 16 L524 12 L532 10 L537 8 L551 4 L567 2 L582 1 L591 0 L604 0 L615 0 L627 1 L638 6 L655 13 L667 17 L674 20 L685 26 L697 33 L708 38 L718 44 L728 51 L738 57 L752 68 L769 84 L775 91 L776 92 L782 95 L798 101 L803 105 L816 112 L837 121 L855 128 L879 143 L901 154 L919 169 L947 187 L960 196 L969 203 L985 216 L995 225 L1000 228 L1007 231 L1019 237 L1028 244 L1034 248 L1050 262 L1064 273 L1072 280 L1078 285 L1088 295 L1093 300 L1098 304 L1103 309 L1107 312 " fill="none" stroke="black" /></svg>