<?xml version="1.0" encoding="utf-8" ?>
<svg baseProfile="tiny" height="357" version="1.2" viewBox="-3 -3 949 357" width="949" xmlns="http://www.w3.org/2000/svg" xmlns:ev="http://www.w3.org/2001/xml-events" xmlns:xlink="http://www.w3.org/1999/xlink"><defs /><path d="M0 0 L19 11 L50 27 L101 45 L128 53 L167 65 L234 91 L259 101 L304 113 L340 125 L368 136 L400 153 L431 165 L451 172 L473 178 L488 182 L516 186 L557 194 L581 204 L586 205 L587 205 L590 206 L590 208 L590 210 L604 216 L643 232 L690 250 L703 253 L740 265 L765 271 L791 287 L817 296 L854 311 L874 320 L881 324 L887 327 L903 334 L918 342 L925 345 L940 352 L949 357 " fill="none" stroke="black" /></svg>