<?xml version="1.0" encoding="utf-8" ?>
<svg baseProfile="tiny" height="413" version="1.2" viewBox="-3 -3 1007 413" width="1007" xmlns="http://www.w3.org/2000/svg" xmlns:ev="http://www.w3.org/2001/xml-events" xmlns:xlink="http://www.w3.org/1999/xlink"><defs /><path d="M78 252 L85 223 L104 192 L133 168 L226 105 L287 81 L330 68 L424 65 L502 73 L521 81 L549 101 L570 133 L585 180 L586 227 L579 259 L563 286 L545 309 L528 327 L512 342 L497 353 L489 359 L471 370 L447 380 L438 384 L421 392 L403 398 L390 401 L380 403 L369 405 L356 407 L346 408 L340 408 L331 408 L324 408 L311 408 L304 408 L296 408 L285 408 L266 406 L255 404 L236 400 L215 396 L196 392 L174 386 L149 378 L126 370 L100 360 L86 349 L69 334 L56 323 L43 303 L36 287 L27 277 L19 267 L10 253 L4 241 L0 230 L0 218 L10 205 L21 187 L32 172 L43 159 L59 144 L76 132 L89 121 L103 111 L120 98 L132 90 L145 82 L160 74 L173 69 L183 66 L200 60 L222 52 L236 46 L262 38 L289 33 L303 29 L321 26 L335 22 L341 15 L370 3 L391 0 L401 0 L434 1 L456 4 L477 13 L495 19 L510 27 L531 37 L554 48 L564 56 L583 70 L599 80 L607 87 L613 93 L625 106 L639 121 L658 154 L678 201 L683 214 L683 215 L689 225 L696 236 L706 249 L713 258 L718 265 L723 271 L726 277 L731 287 L739 296 L747 304 L756 310 L762 314 L774 321 L790 330 L807 338 L810 341 L815 344 L829 348 L843 352 L853 355 L866 360 L891 370 L929 383 L954 389 L981 398 L999 408 L1007 413 " fill="none" stroke="black" /></svg>