<?xml version="1.0" encoding="utf-8" ?>
<svg baseProfile="tiny" height="366" version="1.2" viewBox="-3 -3 687 366" width="687" xmlns="http://www.w3.org/2000/svg" xmlns:ev="http://www.w3.org/2001/xml-events" xmlns:xlink="http://www.w3.org/1999/xlink"><defs /><path d="M0 308 L0 274 L4 222 L20 183 L44 146 L78 113 L94 96 L117 78 L150 60 L182 41 L204 30 L226 20 L266 13 L321 3 L349 2 L391 0 L440 13 L476 33 L496 40 L520 44 L594 60 L628 71 L647 79 L660 88 L669 98 L680 121 L685 139 L686 156 L687 174 L687 184 L686 196 L681 208 L679 219 L675 228 L663 250 L645 274 L623 301 L586 332 L541 351 L480 360 L432 365 L394 366 L368 366 L316 359 L293 352 L267 339 L250 328 L237 315 L223 297 L215 282 L210 270 L207 254 L207 231 L209 216 L212 203 L219 190 L230 170 L239 153 L252 137 L267 122 L281 112 L304 100 L327 90 L337 88 L364 83 L393 83 L417 83 L429 85 L441 88 L463 97 L479 105 L493 113 L509 130 L518 143 L521 150 L524 175 L524 193 L523 210 L518 229 L509 250 L500 273 L484 291 L463 305 L452 313 L418 330 L403 336 L366 345 L343 346 L312 340 L287 332 L279 325 L267 303 L260 281 L259 261 L266 230 L274 214 L285 198 L317 168 L330 158 L340 153 L352 149 L365 149 L392 151 L409 155 L412 157 L417 162 L424 177 L426 193 L426 211 L426 227 L423 236 L403 263 L387 276 L367 290 L333 297 L315 298 L302 298 L296 298 L288 287 L285 266 L302 225 L315 204 L320 198 L324 195 " fill="none" stroke="black" /></svg>