<?xml version="1.0" encoding="utf-8" ?>
<svg baseProfile="tiny" height="437" version="1.2" viewBox="-3 -3 708 437" width="708" xmlns="http://www.w3.org/2000/svg" xmlns:ev="http://www.w3.org/2001/xml-events" xmlns:xlink="http://www.w3.org/1999/xlink"><defs /><path d="M29 368 L15 331 L4 290 L1 251 L0 212 L2 184 L10 153 L36 113 L69 76 L113 51 L196 23 L346 0 L461 3 L543 16 L593 35 L624 54 L667 91 L688 125 L702 161 L708 193 L702 230 L656 277 L595 327 L533 373 L488 398 L414 428 L343 437 L269 435 L212 423 L168 396 L128 364 L110 331 L88 273 L84 220 L95 180 L145 124 L219 80 L285 47 L330 36 L405 36 L470 52 L503 72 L524 94 L550 164 L550 199 L542 223 L519 248 L470 285 L422 308 L364 323 L307 331 L288 335 L262 338 L235 334 L206 310 L177 272 L172 239 L189 165 L209 131 L219 120 L265 99 L335 83 L350 82 L356 83 L366 89 L376 99 L388 124 L394 148 L399 176 L399 184 L395 193 L363 220 L319 248 L300 255 L275 261 L249 262 L230 261 L217 256 L204 234 L195 209 L201 161 L225 125 L237 108 L246 101 L261 96 L279 96 L309 97 L320 100 L327 105 L332 112 L336 124 L336 134 L335 156 L327 176 L318 185 L303 195 L296 199 L277 209 L257 215 L250 215 L240 213 L233 207 L227 199 L229 179 L238 164 L258 143 L276 134 L283 133 L286 133 L295 135 L299 139 L303 148 L301 156 L298 162 L276 176 L251 183 L244 183 L241 183 " fill="none" stroke="black" /></svg>