<?xml version="1.0" encoding="utf-8" ?>
<svg baseProfile="tiny" height="305" version="1.2" viewBox="-3 -3 931 305" width="931" xmlns="http://www.w3.org/2000/svg" xmlns:ev="http://www.w3.org/2001/xml-events" xmlns:xlink="http://www.w3.org/1999/xlink"><defs /><path d="M0 305 L27 285 L51 272 L83 253 L94 248 L122 233 L152 223 L182 211 L206 200 L226 185 L286 152 L378 97 L489 61 L516 60 L548 93 L586 175 L612 238 L616 250 L616 252 L610 200 L606 137 L616 110 L649 116 L672 145 L688 153 L716 77 L720 34 L731 32 L752 54 L759 61 L775 37 L776 30 L785 40 L794 66 L795 74 L797 73 L800 27 L800 24 L800 23 L822 60 L837 96 L841 110 L842 113 L844 114 L845 113 L849 107 L854 104 L863 103 L866 90 L872 82 L878 80 L884 80 L908 45 L917 31 L929 7 L931 0 " fill="none" stroke="black" /></svg>