<?xml version="1.0" encoding="utf-8" ?>
<svg baseProfile="tiny" height="363" version="1.2" viewBox="-3 -3 848 363" width="848" xmlns="http://www.w3.org/2000/svg" xmlns:ev="http://www.w3.org/2001/xml-events" xmlns:xlink="http://www.w3.org/1999/xlink"><defs /><path d="M0 346 L1 340 L7 316 L12 298 L17 277 L20 262 L25 247 L29 235 L36 217 L42 202 L48 192 L53 180 L62 163 L66 152 L70 141 L76 126 L81 117 L86 109 L93 101 L99 92 L105 81 L111 69 L126 47 L140 32 L156 16 L169 5 L187 1 L211 0 L215 0 L234 1 L257 6 L264 10 L266 11 L280 17 L297 23 L310 31 L325 45 L342 63 L352 74 L361 86 L371 105 L373 112 L374 115 L377 123 L380 134 L380 139 L382 146 L385 154 L390 169 L393 181 L396 188 L398 191 L401 196 L406 207 L411 224 L414 232 L414 235 L421 245 L432 257 L442 269 L448 277 L452 283 L465 294 L477 301 L485 305 L490 310 L505 319 L524 324 L533 326 L537 326 L542 326 L553 326 L557 325 L560 322 L564 320 L568 315 L571 313 L572 310 L573 309 L575 308 L575 307 L576 307 L576 305 L576 304 L577 303 L578 300 L578 298 L579 296 L581 291 L581 287 L581 285 L581 282 L581 280 L581 278 L581 276 L581 273 L581 271 L581 267 L581 259 L581 252 L581 242 L579 230 L570 209 L564 195 L559 186 L553 174 L544 158 L539 147 L536 136 L532 122 L528 110 L523 98 L521 88 L520 76 L520 61 L521 37 L521 35 L532 32 L552 29 L580 27 L601 27 L637 33 L669 41 L677 45 L698 55 L716 66 L721 72 L726 81 L734 97 L740 113 L746 127 L756 153 L760 167 L766 180 L770 191 L774 202 L777 217 L784 232 L792 250 L800 265 L816 297 L824 317 L832 330 L844 351 L848 363 " fill="none" stroke="black" /></svg>