<?xml version="1.0" encoding="utf-8" ?>
<svg baseProfile="tiny" height="428" version="1.2" viewBox="-3 -3 726 428" width="726" xmlns="http://www.w3.org/2000/svg" xmlns:ev="http://www.w3.org/2001/xml-events" xmlns:xlink="http://www.w3.org/1999/xlink"><defs /><path d="M0 98 L21 80 L53 58 L70 50 L99 37 L121 28 L131 22 L156 14 L178 10 L199 6 L229 2 L269 1 L304 0 L339 3 L363 8 L380 12 L386 12 L452 12 L554 32 L624 57 L667 92 L698 126 L714 176 L719 198 L725 232 L726 256 L725 279 L720 298 L713 324 L706 348 L689 367 L668 385 L624 408 L579 418 L520 426 L476 428 L436 428 L391 428 L320 423 L255 406 L204 385 L170 368 L140 339 L121 308 L116 289 L116 262 L121 228 L136 197 L147 182 L158 166 L173 148 L189 132 L207 117 L224 104 L247 94 L268 89 L292 83 L322 80 L353 79 L372 79 L380 79 L414 82 L435 88 L455 96 L487 109 L524 136 L550 154 L557 161 L564 174 L571 185 L578 195 L586 211 L590 233 L593 268 L586 297 L576 316 L568 329 L548 343 L514 354 L456 354 L431 353 L393 351 L359 344 L320 333 L294 322 L271 312 L252 300 L227 264 L219 247 L217 235 L217 225 L221 205 L233 180 L242 167 L246 159 L255 152 L281 136 L294 129 L303 126 L321 120 L346 117 L365 117 L400 119 L437 129 L459 138 L469 146 L499 176 L511 189 L519 205 L526 231 L526 247 L524 263 L516 276 L504 288 L492 295 L453 310 L433 314 L406 314 L377 313 L353 305 L331 299 L318 288 L305 270 L298 260 L290 237 L291 207 L298 180 L305 163 L309 155 L318 147 L336 139 L346 136 L355 136 L372 136 L388 139 L395 142 L400 145 L410 160 L421 180 L428 191 L432 214 L432 227 L432 234 L428 241 L421 251 L418 254 L415 258 L409 262 L406 265 L404 265 " fill="none" stroke="black" /></svg>