<?xml version="1.0" encoding="utf-8" ?>
<svg baseProfile="tiny" height="414" version="1.2" viewBox="-3 -3 745 414" width="745" xmlns="http://www.w3.org/2000/svg" xmlns:ev="http://www.w3.org/2001/xml-events" xmlns:xlink="http://www.w3.org/1999/xlink"><defs /><path d="M0 259 L3 249 L17 224 L29 198 L35 183 L43 162 L53 144 L63 131 L77 116 L108 91 L136 71 L169 55 L225 32 L361 0 L447 0 L516 11 L612 33 L654 47 L687 64 L706 85 L727 125 L741 163 L745 211 L735 246 L719 273 L673 313 L573 366 L481 387 L377 401 L309 413 L234 414 L182 404 L150 389 L114 351 L77 281 L61 223 L61 176 L78 139 L122 95 L170 62 L231 39 L277 34 L363 37 L450 60 L516 105 L549 142 L567 169 L561 212 L546 248 L483 302 L401 331 L326 341 L263 347 L214 347 L167 340 L134 316 L107 280 L90 234 L86 187 L106 125 L132 93 L155 72 L218 48 L331 30 L393 38 L443 68 L476 123 L482 163 L478 182 L429 213 L349 254 L282 272 L228 274 L198 273 L177 260 L156 231 L148 186 L159 155 L187 125 L251 95 L319 86 L359 96 L384 116 L397 144 L399 174 L366 203 L331 223 L287 237 L254 239 L248 238 L241 230 L244 212 L261 183 L271 171 L283 162 L378 147 L401 148 L412 154 L418 162 L420 175 L412 190 L364 213 L299 230 L271 233 L262 233 L259 233 L256 231 " fill="none" stroke="black" /></svg>