<?xml version="1.0" encoding="utf-8" ?>
<svg baseProfile="tiny" height="136" version="1.2" viewBox="-3 -3 961 136" width="961" xmlns="http://www.w3.org/2000/svg" xmlns:ev="http://www.w3.org/2001/xml-events" xmlns:xlink="http://www.w3.org/1999/xlink"><defs /><path d="M0 29 L9 23 L14 22 L19 22 L24 23 L29 27 L32 30 L35 33 L38 39 L41 45 L42 47 L43 50 L43 52 L44 54 L44 56 L45 59 L46 61 L47 63 L48 64 L49 65 L49 66 L50 67 L50 68 L51 69 L52 70 L53 71 L54 72 L56 74 L57 75 L58 76 L60 78 L63 80 L66 83 L70 86 L75 88 L80 91 L86 94 L91 96 L97 98 L103 101 L110 102 L117 105 L125 107 L134 108 L142 109 L151 109 L159 104 L169 94 L175 83 L178 74 L180 68 L183 62 L188 54 L195 46 L203 39 L211 36 L225 36 L237 42 L250 53 L263 70 L274 88 L285 104 L297 120 L307 129 L322 135 L333 136 L344 133 L352 127 L360 117 L364 105 L367 87 L373 64 L380 51 L388 43 L399 40 L413 40 L430 46 L450 56 L470 70 L483 85 L488 94 L490 98 L491 98 L506 99 L530 99 L550 99 L566 91 L575 77 L579 64 L581 53 L583 44 L588 37 L602 28 L630 17 L654 14 L667 17 L677 28 L684 47 L692 65 L697 80 L702 91 L710 99 L722 103 L734 103 L743 102 L749 97 L752 87 L752 67 L753 46 L757 28 L761 24 L767 24 L778 24 L789 27 L802 35 L816 48 L822 58 L826 65 L828 74 L829 80 L830 84 L831 86 L833 88 L836 89 L842 91 L854 91 L863 88 L870 81 L872 60 L872 32 L870 17 L870 11 L872 5 L875 1 L877 0 L879 0 L884 0 L902 10 L930 28 L953 56 L959 78 L960 92 L960 95 L960 96 L961 97 L961 99 L961 100 L961 97 L961 91 L961 88 " fill="none" stroke="black" /></svg>