<?xml version="1.0" encoding="utf-8" ?>
<svg baseProfile="tiny" height="449" version="1.2" viewBox="-3 -3 571 449" width="571" xmlns="http://www.w3.org/2000/svg" xmlns:ev="http://www.w3.org/2001/xml-events" xmlns:xlink="http://www.w3.org/1999/xlink"><defs /><path d="M45 0 L46 0 L54 0 L93 0 L127 1 L143 3 L144 5 L113 16 L47 43 L13 58 L0 64 L8 64 L33 64 L75 64 L115 64 L130 64 L134 64 L132 66 L110 77 L75 95 L58 105 L55 108 L78 109 L112 109 L127 109 L131 110 L129 112 L103 129 L72 152 L52 168 L50 170 L56 171 L79 170 L96 170 L102 170 L103 170 L95 179 L78 198 L65 212 L62 216 L77 216 L93 216 L103 216 L104 216 L104 217 L98 225 L86 240 L81 249 L80 251 L85 251 L103 251 L112 251 L114 251 L113 253 L99 270 L90 289 L86 299 L85 300 L92 300 L98 301 L117 306 L124 308 L124 310 L116 317 L103 326 L97 331 L97 332 L110 332 L121 333 L123 334 L119 343 L106 359 L99 371 L99 374 L116 375 L134 377 L138 379 L134 387 L123 401 L117 411 L117 413 L120 414 L126 414 L131 414 L132 415 L132 416 L132 417 L131 420 L131 422 L131 423 L142 423 L147 423 L148 424 L148 427 L145 435 L142 443 L142 445 L143 445 L153 445 L159 445 L161 445 L161 446 L161 447 L162 449 L166 449 L169 449 L174 449 L180 449 L188 449 L196 449 L201 447 L208 443 L214 440 L220 436 L224 433 L225 433 L226 433 L229 435 L242 439 L255 443 L271 444 L275 445 L292 445 L304 443 L321 435 L331 430 L336 430 L344 433 L358 439 L376 442 L390 442 L399 442 L406 442 L412 440 L416 437 L419 436 L423 435 L434 434 L448 434 L464 437 L478 442 L487 447 L493 449 L502 449 L513 445 L523 443 L535 442 L553 441 L571 437 " fill="none" stroke="black" /></svg>