<?xml version="1.0" encoding="utf-8" ?>
<svg baseProfile="tiny" height="145" version="1.2" viewBox="-3 -3 851 145" width="851" xmlns="http://www.w3.org/2000/svg" xmlns:ev="http://www.w3.org/2001/xml-events" xmlns:xlink="http://www.w3.org/1999/xlink"><defs /><path d="M0 0 L2 0 L13 1 L31 1 L48 1 L59 1 L64 1 L67 1 L69 1 L73 1 L79 1 L85 1 L91 1 L96 1 L98 1 L99 1 L101 1 L105 1 L111 1 L117 1 L119 1 L121 1 L122 1 L123 3 L127 7 L133 13 L140 19 L147 27 L152 33 L155 37 L158 40 L161 43 L164 46 L167 50 L171 53 L175 57 L179 60 L184 64 L191 68 L197 71 L201 73 L204 75 L208 77 L212 79 L215 80 L219 81 L223 83 L227 85 L232 88 L239 90 L245 93 L252 94 L259 97 L268 98 L276 100 L283 102 L292 105 L303 107 L314 109 L327 111 L336 113 L346 114 L354 116 L363 117 L372 119 L383 121 L393 122 L403 123 L412 124 L423 125 L433 126 L443 127 L458 128 L471 130 L487 132 L506 133 L524 133 L537 134 L538 134 L559 137 L579 140 L595 141 L606 143 L617 144 L625 145 L632 145 L642 145 L652 145 L662 145 L671 145 L679 144 L687 143 L694 141 L700 140 L710 137 L718 133 L729 127 L737 122 L741 117 L743 114 L744 110 L745 109 L747 108 L750 106 L752 105 L753 103 L754 102 L757 98 L768 89 L782 82 L793 77 L801 73 L806 71 L810 69 L813 68 L819 65 L833 58 L844 54 L849 51 L851 50 L851 49 " fill="none" stroke="black" /></svg>