<?xml version="1.0" encoding="utf-8" ?>
<svg baseProfile="tiny" height="249" version="1.2" viewBox="-3 -3 391 249" width="391" xmlns="http://www.w3.org/2000/svg" xmlns:ev="http://www.w3.org/2001/xml-events" xmlns:xlink="http://www.w3.org/1999/xlink"><defs /><path d="M0 239 L1 239 L5 244 L10 249 L12 249 L14 247 L14 243 L14 241 L16 241 L17 241 L20 243 L21 244 L21 237 L21 230 L22 228 L27 234 L36 246 L40 247 L38 233 L35 220 L34 217 L37 220 L44 227 L49 231 L51 232 L53 230 L55 227 L56 226 L57 228 L60 230 L62 231 L62 224 L60 217 L64 222 L71 228 L73 229 L74 222 L74 214 L75 211 L79 213 L84 218 L87 220 L88 219 L90 214 L91 211 L92 211 L96 216 L101 221 L103 222 L105 210 L108 195 L110 190 L114 192 L121 197 L129 198 L135 190 L137 177 L139 173 L144 177 L152 186 L157 187 L166 167 L172 151 L174 147 L176 147 L182 149 L190 144 L196 131 L197 128 L200 129 L205 135 L208 138 L209 136 L211 130 L212 127 L217 127 L220 128 L222 126 L225 117 L227 111 L228 111 L229 112 L229 113 L230 111 L232 112 L237 117 L239 117 L243 107 L247 95 L249 92 L250 93 L252 96 L254 98 L254 99 L255 98 L258 98 L263 98 L266 95 L266 88 L266 83 L267 81 L268 81 L271 82 L274 83 L275 82 L281 75 L286 71 L288 70 L288 71 L293 71 L298 74 L303 75 L304 66 L304 53 L305 46 L306 45 L307 46 L311 50 L322 56 L328 54 L330 46 L331 42 L332 42 L335 42 L339 42 L341 42 L343 37 L344 37 L347 37 L351 38 L356 37 L361 29 L363 25 L364 25 L365 25 L367 25 L369 22 L370 19 L371 19 L372 19 L373 20 L374 21 L380 10 L384 2 L385 1 L386 2 L388 4 L389 4 L390 1 L391 0 " fill="none" stroke="black" /></svg>