<?xml version="1.0" encoding="utf-8" ?>
<svg baseProfile="tiny" height="304" version="1.2" viewBox="-3 -3 786 304" width="786" xmlns="http://www.w3.org/2000/svg" xmlns:ev="http://www.w3.org/2001/xml-events" xmlns:xlink="http://www.w3.org/1999/xlink"><defs /><path d="M16 164 L15 164 L15 162 L12 153 L9 138 L2 112 L0 93 L1 74 L9 55 L17 42 L24 37 L32 37 L44 40 L54 49 L65 61 L73 73 L76 81 L78 87 L79 96 L80 107 L81 115 L83 126 L87 141 L91 158 L97 175 L101 188 L105 202 L112 217 L119 228 L126 235 L133 239 L139 240 L150 235 L163 223 L170 201 L167 174 L155 148 L147 130 L141 111 L135 95 L133 82 L133 66 L138 52 L148 39 L161 30 L177 28 L196 28 L214 39 L227 60 L237 84 L245 115 L251 156 L252 192 L252 228 L251 253 L254 274 L267 286 L287 290 L304 285 L322 269 L334 249 L340 225 L340 196 L334 150 L324 111 L315 64 L312 29 L312 13 L317 5 L325 0 L335 0 L348 4 L360 18 L372 46 L380 69 L388 107 L391 138 L392 162 L392 180 L392 197 L393 210 L398 222 L402 227 L410 235 L420 242 L433 249 L449 253 L467 254 L476 249 L482 235 L483 202 L475 156 L468 121 L465 91 L464 70 L464 47 L465 34 L468 28 L472 26 L480 26 L489 28 L496 32 L502 42 L508 62 L510 79 L510 97 L510 122 L510 145 L510 166 L510 198 L510 212 L520 218 L535 229 L548 238 L554 240 L558 239 L563 220 L564 176 L556 136 L550 120 L548 114 L548 107 L556 92 L575 56 L593 33 L606 22 L614 25 L629 51 L649 106 L672 169 L685 207 L691 234 L694 249 L698 261 L705 271 L719 288 L735 300 L747 304 L758 300 L772 279 L782 249 L785 228 L786 222 " fill="none" stroke="black" /></svg>