<?xml version="1.0" encoding="utf-8" ?>
<svg baseProfile="tiny" height="79" version="1.2" viewBox="-3 -3 651 79" width="651" xmlns="http://www.w3.org/2000/svg" xmlns:ev="http://www.w3.org/2001/xml-events" xmlns:xlink="http://www.w3.org/1999/xlink"><defs /><path d="M0 38 L0 37 L1 29 L3 15 L6 6 L7 4 L11 5 L20 10 L30 15 L34 16 L35 13 L35 9 L35 6 L37 6 L44 15 L53 27 L59 32 L62 28 L63 24 L66 25 L77 29 L89 30 L101 25 L105 20 L106 20 L108 21 L114 25 L122 28 L127 28 L129 28 L131 28 L133 28 L138 31 L141 32 L144 25 L145 18 L146 16 L149 18 L162 36 L168 43 L171 44 L174 37 L176 32 L178 30 L184 29 L193 29 L205 35 L213 38 L217 39 L218 31 L223 18 L232 6 L246 4 L270 20 L285 31 L291 35 L293 35 L292 31 L311 64 L320 77 L322 79 L323 63 L323 42 L323 32 L323 31 L326 34 L337 44 L345 49 L351 46 L352 36 L353 25 L354 25 L360 30 L368 40 L374 45 L375 45 L378 32 L378 21 L378 18 L381 21 L390 31 L395 34 L396 35 L397 34 L397 33 L398 33 L399 34 L401 36 L403 33 L407 19 L409 12 L410 11 L412 15 L416 22 L418 26 L419 27 L420 27 L423 22 L428 14 L430 11 L432 11 L435 19 L439 27 L442 29 L446 23 L450 12 L453 7 L454 6 L456 10 L462 17 L470 21 L481 17 L484 17 L491 22 L498 29 L504 36 L510 36 L522 23 L532 5 L536 0 L540 1 L548 22 L559 44 L567 56 L569 55 L571 50 L576 44 L580 39 L588 39 L595 41 L598 43 L599 42 L605 38 L621 34 L638 32 L649 32 L651 32 " fill="none" stroke="black" /></svg>