<?xml version="1.0" encoding="utf-8" ?>
<svg baseProfile="tiny" height="593" version="1.2" viewBox="-3 -3 643 593" width="643" xmlns="http://www.w3.org/2000/svg" xmlns:ev="http://www.w3.org/2001/xml-events" xmlns:xlink="http://www.w3.org/1999/xlink"><defs /><path d="M342 306 L321 295 L301 272 L311 253 L348 250 L384 267 L411 295 L440 310 L503 304 L539 259 L526 177 L464 135 L352 167 L253 286 L163 391 L124 421 L96 410 L100 289 L157 186 L242 147 L348 188 L452 310 L495 389 L504 421 L397 377 L178 257 L93 220 L52 196 L87 192 L217 226 L305 267 L341 291 L347 302 L318 313 L201 290 L203 280 L290 234 L423 297 L485 468 L469 544 L412 585 L317 593 L261 539 L275 447 L403 298 L443 259 L464 241 L447 255 L350 281 L283 280 L245 248 L249 222 L258 209 L258 207 L204 221 L161 246 L139 266 L138 284 L226 271 L345 215 L459 194 L489 207 L468 274 L423 325 L392 344 L377 328 L394 186 L415 101 L422 69 L423 62 L422 63 L418 66 L376 93 L361 106 L358 112 L415 130 L510 165 L542 189 L539 215 L486 242 L413 243 L336 177 L310 121 L297 89 L289 74 L274 74 L240 97 L223 111 L222 118 L304 157 L406 194 L517 226 L564 237 L578 245 L580 259 L572 268 L570 270 L591 266 L635 268 L643 280 L625 314 L485 334 L333 340 L208 335 L165 321 L153 309 L237 282 L321 281 L353 301 L356 334 L303 391 L253 420 L220 395 L196 265 L209 86 L224 26 L226 16 L215 16 L135 48 L36 94 L0 108 L10 120 L76 168 L149 217 L209 255 L226 269 L227 274 L222 275 L258 263 L460 210 L586 196 L627 218 L630 237 L588 251 L539 255 L517 240 L523 164 L560 32 L568 5 L570 0 L567 18 L542 117 L535 198 L534 224 L533 229 L531 229 L523 231 L483 241 L448 248 L433 251 " fill="none" stroke="black" /></svg>