<?xml version="1.0" encoding="utf-8" ?>
<svg baseProfile="tiny" height="411" version="1.2" viewBox="-3 -3 513 411" width="513" xmlns="http://www.w3.org/2000/svg" xmlns:ev="http://www.w3.org/2001/xml-events" xmlns:xlink="http://www.w3.org/1999/xlink"><defs /><path d="M0 0 L1 0 L11 0 L20 0 L26 0 L31 1 L34 2 L38 5 L41 8 L45 12 L47 17 L48 20 L50 23 L51 27 L52 31 L53 36 L54 41 L56 46 L57 53 L58 58 L59 62 L59 66 L60 71 L61 77 L61 83 L63 91 L64 95 L65 99 L66 104 L68 112 L71 123 L73 132 L75 142 L77 154 L78 160 L79 164 L80 166 L80 174 L81 205 L82 208 L85 215 L90 228 L94 241 L98 256 L101 268 L105 279 L108 288 L112 298 L115 306 L118 315 L120 321 L123 327 L126 334 L131 342 L139 351 L147 358 L153 364 L160 370 L166 375 L172 380 L178 384 L184 388 L191 392 L198 396 L205 400 L211 403 L217 406 L225 408 L232 409 L238 410 L246 411 L254 411 L261 411 L268 411 L274 411 L281 411 L288 411 L298 410 L305 410 L314 409 L322 409 L330 409 L338 408 L346 408 L353 408 L363 407 L371 407 L380 406 L389 405 L399 404 L407 402 L415 401 L423 400 L428 399 L433 398 L437 397 L440 397 L444 396 L450 396 L455 395 L462 394 L466 394 L470 394 L474 393 L478 393 L483 392 L488 391 L495 389 L504 387 L510 385 L512 384 L513 382 " fill="none" stroke="black" /></svg>