<?xml version="1.0" encoding="utf-8" ?>
<svg baseProfile="tiny" height="600" version="1.2" viewBox="-3 -3 162 600" width="162" xmlns="http://www.w3.org/2000/svg" xmlns:ev="http://www.w3.org/2001/xml-events" xmlns:xlink="http://www.w3.org/1999/xlink"><defs /><path d="M0 101 L0 99 L0 97 L3 93 L6 90 L10 89 L16 89 L23 92 L29 98 L33 110 L34 131 L34 167 L34 214 L30 306 L29 406 L28 499 L24 577 L22 600 " fill="none" stroke="black" /><path d="M0 101 L0 99 L0 97 L3 93 L6 90 L10 89 L16 89 L23 92 L29 98 L33 110 L34 131 L34 167 L34 214 L30 306 L29 406 L28 499 L24 577 L22 600 M102 11 L103 10 L108 7 L113 4 L118 1 L123 0 L126 0 L130 0 L134 1 L139 4 L145 8 L148 12 L150 17 L152 22 L153 29 L155 36 L156 46 L157 55 L158 69 L160 82 L161 97 L162 113 L162 132 L162 155 L162 190 L162 228 L162 258 L162 292 L162 319 L162 324 L162 332 L162 345 L159 361 L157 371 L156 379 L155 387 L155 399 L154 408 L153 415 L152 421 L152 426 L152 433 L152 440 L152 448 L152 459 L152 465 L152 472 L152 480 L152 488 L153 494 L153 500 L154 506 L154 512 L155 516 L156 520 L156 527 L156 538 L156 547 L154 557 L152 570 L151 576 L151 579 L151 583 L151 585 " fill="none" stroke="black" /></svg>