<?xml version="1.0" encoding="utf-8" ?>
<svg baseProfile="tiny" height="262" version="1.2" viewBox="-3 -3 280 262" width="280" xmlns="http://www.w3.org/2000/svg" xmlns:ev="http://www.w3.org/2001/xml-events" xmlns:xlink="http://www.w3.org/1999/xlink"><defs /><path d="M111 139 L112 141 L115 145 L118 149 L124 153 L130 155 L137 156 L141 156 L145 153 L147 150 L149 145 L150 139 L150 133 L147 123 L140 111 L134 106 L127 103 L120 102 L112 102 L107 104 L104 108 L102 113 L101 120 L100 126 L99 136 L99 147 L100 157 L104 164 L109 171 L118 177 L126 181 L136 184 L148 184 L160 182 L169 177 L177 170 L182 162 L185 148 L185 138 L185 126 L179 114 L171 101 L161 90 L151 81 L136 73 L122 68 L108 66 L98 66 L92 70 L87 78 L77 91 L68 109 L62 125 L61 141 L61 153 L64 167 L67 179 L70 189 L74 196 L80 201 L91 209 L105 216 L120 222 L136 225 L154 226 L171 225 L188 217 L209 202 L223 187 L232 167 L238 145 L239 117 L238 88 L229 63 L215 45 L198 31 L183 24 L166 20 L151 19 L133 19 L112 26 L87 39 L64 57 L51 70 L41 89 L32 108 L25 127 L24 141 L24 155 L27 170 L35 189 L43 204 L54 216 L68 229 L79 237 L91 242 L108 248 L129 252 L152 254 L176 253 L192 249 L205 243 L218 236 L232 226 L246 215 L264 188 L277 144 L280 105 L280 84 L274 69 L265 52 L252 36 L236 23 L203 8 L173 1 L148 0 L117 1 L88 9 L64 20 L45 32 L27 50 L17 64 L9 80 L4 96 L1 110 L0 122 L0 134 L0 147 L3 163 L11 185 L18 199 L29 212 L48 230 L65 243 L76 248 L89 253 L106 256 L124 259 L142 261 L156 262 L170 262 L184 262 L198 259 L209 256 L212 255 " fill="none" stroke="black" /></svg>