<?xml version="1.0" encoding="utf-8" ?>
<svg baseProfile="tiny" height="33" version="1.2" viewBox="-3 -3 1048 33" width="1048" xmlns="http://www.w3.org/2000/svg" xmlns:ev="http://www.w3.org/2001/xml-events" xmlns:xlink="http://www.w3.org/1999/xlink"><defs /><path d="M0 30 L3 30 L8 30 L14 30 L20 30 L27 31 L34 31 L40 31 L45 31 L49 32 L53 32 L57 33 L63 33 L68 33 L73 33 L76 33 L79 33 L84 33 L91 33 L98 33 L108 33 L118 33 L129 33 L138 33 L147 33 L156 33 L162 33 L168 33 L177 33 L185 33 L193 33 L202 33 L211 33 L220 33 L229 33 L240 32 L250 32 L261 31 L274 30 L287 29 L301 28 L314 27 L331 25 L341 25 L351 24 L362 24 L373 23 L383 23 L395 22 L409 22 L429 22 L448 22 L468 22 L486 22 L502 22 L519 22 L527 22 L534 22 L545 22 L561 22 L576 22 L591 22 L604 22 L617 22 L627 22 L635 22 L643 22 L650 22 L656 22 L663 22 L669 22 L678 22 L685 22 L694 21 L705 19 L715 18 L726 17 L738 15 L753 14 L772 11 L790 9 L805 8 L821 7 L836 6 L852 5 L868 5 L887 4 L902 3 L915 3 L930 2 L942 2 L957 2 L970 2 L984 3 L999 3 L1008 3 L1016 3 L1028 3 L1043 1 L1048 0 " fill="none" stroke="black" /></svg>