<?xml version="1.0" encoding="utf-8" ?>
<svg baseProfile="tiny" height="389" version="1.2" viewBox="-3 -3 909 389" width="909" xmlns="http://www.w3.org/2000/svg" xmlns:ev="http://www.w3.org/2001/xml-events" xmlns:xlink="http://www.w3.org/1999/xlink"><defs /><path d="M51 352 L51 348 L51 344 L51 340 L51 335 L49 332 L47 330 L42 329 L36 327 L28 326 L21 326 L14 328 L7 334 L1 342 L0 348 L0 359 L3 372 L8 381 L11 385 L14 387 L17 388 L20 388 L25 388 L34 389 L46 389 L54 389 L62 386 L71 381 L76 376 L82 367 L89 355 L96 339 L104 324 L111 311 L117 298 L127 285 L137 276 L150 266 L169 257 L183 253 L202 251 L216 251 L223 254 L233 259 L241 266 L248 271 L252 275 L256 280 L260 286 L262 291 L263 293 L263 296 L263 301 L263 303 L263 306 L263 312 L263 317 L264 321 L272 328 L285 334 L303 337 L321 337 L341 331 L352 322 L362 303 L372 284 L378 269 L384 257 L389 245 L394 234 L405 224 L420 217 L432 213 L447 212 L461 212 L474 216 L489 220 L502 222 L520 220 L536 214 L569 199 L612 167 L632 141 L649 111 L655 100 L657 94 L662 87 L671 78 L692 67 L717 62 L746 62 L774 68 L799 79 L814 88 L825 93 L836 97 L847 97 L858 97 L871 92 L883 80 L893 64 L898 51 L901 39 L903 30 L903 21 L903 16 L904 10 L904 7 L905 5 L908 1 L909 0 " fill="none" stroke="black" /></svg>