<?xml version="1.0" encoding="utf-8" ?>
<svg baseProfile="tiny" height="425" version="1.2" viewBox="-3 -3 892 425" width="892" xmlns="http://www.w3.org/2000/svg" xmlns:ev="http://www.w3.org/2001/xml-events" xmlns:xlink="http://www.w3.org/1999/xlink"><defs /><path d="M0 0 L0 1 L0 2 L0 3 L0 4 L1 5 L2 6 L2 8 L3 9 L3 10 L4 12 L5 13 L6 15 L7 17 L8 20 L9 23 L10 26 L12 29 L13 32 L14 35 L15 38 L16 41 L17 44 L19 48 L21 53 L23 57 L25 61 L27 64 L28 66 L30 69 L31 71 L32 74 L34 75 L35 77 L36 79 L37 81 L39 84 L41 87 L42 89 L43 91 L44 92 L45 94 L47 96 L50 98 L52 100 L55 102 L58 104 L63 106 L67 108 L71 109 L76 110 L81 112 L86 113 L92 114 L97 114 L105 114 L111 115 L117 115 L122 115 L124 115 L127 116 L128 116 L130 116 L132 116 L133 116 L135 116 L137 117 L140 118 L145 119 L150 122 L156 124 L161 127 L163 128 L166 130 L168 131 L170 132 L174 133 L180 136 L188 140 L197 145 L207 150 L216 154 L229 159 L242 165 L258 174 L273 182 L276 183 L277 183 L288 189 L297 194 L308 199 L317 203 L329 208 L341 215 L351 220 L360 225 L372 231 L385 237 L400 243 L418 252 L435 259 L450 266 L464 272 L485 280 L505 291 L527 301 L545 309 L560 314 L576 320 L588 324 L600 328 L614 334 L628 340 L642 344 L658 349 L672 354 L689 360 L710 367 L733 375 L762 386 L793 395 L821 401 L849 409 L883 422 L892 425 " fill="none" stroke="black" /></svg>