<?xml version="1.0" encoding="utf-8" ?>
<svg baseProfile="tiny" height="166" version="1.2" viewBox="-3 -3 800 166" width="800" xmlns="http://www.w3.org/2000/svg" xmlns:ev="http://www.w3.org/2001/xml-events" xmlns:xlink="http://www.w3.org/1999/xlink"><defs /><path d="M0 166 L2 166 L5 166 L12 166 L17 166 L23 166 L28 166 L33 166 L40 166 L47 165 L54 164 L59 163 L62 163 L64 163 L65 163 L68 163 L70 163 L73 163 L75 162 L76 162 L78 162 L80 162 L84 162 L87 162 L90 162 L94 161 L98 161 L102 161 L106 161 L109 160 L111 160 L114 160 L117 160 L120 159 L124 159 L129 158 L134 157 L140 156 L146 155 L151 154 L157 152 L163 151 L168 150 L172 149 L176 149 L181 148 L186 147 L193 145 L201 144 L209 143 L217 141 L224 139 L234 138 L243 136 L252 134 L262 132 L273 129 L280 128 L287 126 L294 124 L300 123 L305 121 L310 120 L314 118 L317 117 L321 116 L325 115 L334 112 L345 108 L359 104 L376 98 L397 91 L409 86 L422 82 L431 79 L443 74 L457 69 L462 67 L464 66 L469 66 L473 66 L476 66 L477 65 L478 65 L480 64 L484 64 L489 62 L492 61 L496 60 L500 59 L504 57 L508 56 L513 54 L519 53 L527 52 L533 50 L539 49 L546 48 L552 48 L557 47 L566 46 L576 45 L586 43 L595 42 L603 42 L612 41 L621 40 L629 38 L636 38 L641 37 L644 36 L647 36 L651 35 L655 35 L661 34 L667 32 L673 31 L678 31 L681 30 L683 30 L685 29 L688 29 L691 28 L695 28 L703 26 L710 25 L717 23 L725 21 L734 18 L742 17 L748 16 L757 14 L765 13 L772 10 L784 6 L794 2 L800 0 " fill="none" stroke="black" /></svg>