<?xml version="1.0" encoding="utf-8" ?>
<svg baseProfile="tiny" height="498" version="1.2" viewBox="-3 -3 1046 498" width="1046" xmlns="http://www.w3.org/2000/svg" xmlns:ev="http://www.w3.org/2001/xml-events" xmlns:xlink="http://www.w3.org/1999/xlink"><defs /><path d="M0 36 L17 33 L65 23 L136 14 L208 4 L256 0 L288 0 L304 3 L314 9 L318 14 L318 16 L316 18 L307 25 L292 32 L274 38 L249 42 L217 44 L177 47 L152 49 L129 51 L110 57 L91 66 L77 80 L73 92 L81 102 L137 102 L245 90 L368 67 L454 53 L507 49 L524 50 L528 53 L506 71 L414 123 L296 174 L230 199 L198 216 L191 225 L194 229 L235 230 L372 214 L516 181 L656 153 L741 151 L769 152 L778 154 L767 164 L665 208 L575 256 L531 289 L515 304 L512 309 L512 310 L514 310 L551 306 L637 271 L725 220 L796 188 L831 176 L843 175 L844 175 L835 181 L771 220 L730 251 L708 267 L698 273 L696 274 L695 275 L696 275 L707 275 L751 275 L804 260 L862 215 L899 187 L920 177 L931 176 L934 187 L934 195 L934 205 L929 242 L917 292 L906 325 L902 338 L901 342 L902 347 L910 352 L930 353 L977 353 L1013 353 L1035 359 L1045 387 L1046 454 L1045 488 L1044 498 " fill="none" stroke="black" /></svg>