<?xml version="1.0" encoding="utf-8" ?>
<svg baseProfile="tiny" height="418" version="1.2" viewBox="-3 -3 436 418" width="436" xmlns="http://www.w3.org/2000/svg" xmlns:ev="http://www.w3.org/2001/xml-events" xmlns:xlink="http://www.w3.org/1999/xlink"><defs /><path d="M0 0 L4 6 L6 10 L7 11 L8 12 L8 13 L8 14 L9 15 L10 16 L10 17 L11 17 L11 18 L12 19 L14 21 L16 24 L18 26 L19 29 L21 31 L22 34 L23 35 L24 36 L24 37 L25 37 L26 38 L28 40 L30 42 L32 45 L34 47 L36 49 L37 51 L42 57 L46 62 L51 69 L55 77 L57 83 L57 85 L57 87 L58 93 L63 100 L71 105 L77 107 L80 108 L82 108 L83 109 L83 112 L83 120 L83 124 L86 124 L93 124 L98 123 L99 123 L100 124 L100 128 L100 129 L108 130 L116 131 L119 134 L120 136 L120 137 L123 139 L129 143 L131 145 L131 146 L131 147 L132 149 L134 151 L137 157 L138 164 L140 168 L142 169 L143 170 L144 171 L146 173 L148 175 L150 178 L152 181 L154 183 L156 186 L159 188 L162 191 L165 194 L169 199 L172 203 L173 206 L175 214 L175 217 L176 217 L184 224 L199 237 L208 246 L218 257 L225 265 L232 273 L240 280 L250 288 L258 293 L265 300 L267 305 L267 310 L267 315 L266 319 L271 323 L289 325 L300 327 L304 329 L305 332 L309 338 L323 349 L332 356 L336 360 L339 366 L349 373 L361 379 L366 382 L368 384 L369 386 L376 388 L382 390 L386 394 L388 403 L391 410 L398 411 L416 412 L430 416 L435 418 L436 418 " fill="none" stroke="black" /></svg>