<?xml version="1.0" encoding="utf-8" ?>
<svg baseProfile="tiny" height="83" version="1.2" viewBox="-3 -3 982 83" width="982" xmlns="http://www.w3.org/2000/svg" xmlns:ev="http://www.w3.org/2001/xml-events" xmlns:xlink="http://www.w3.org/1999/xlink"><defs /><path d="M0 70 L3 60 L17 22 L23 7 L25 6 L29 22 L40 54 L49 70 L59 74 L75 54 L95 22 L106 16 L128 28 L150 57 L164 76 L172 81 L183 67 L196 47 L204 39 L214 41 L233 53 L247 61 L263 62 L289 32 L305 12 L324 3 L336 10 L349 21 L360 26 L379 21 L398 6 L417 0 L452 11 L490 46 L523 74 L550 83 L575 74 L593 58 L608 45 L628 35 L654 27 L674 31 L693 44 L707 53 L718 57 L722 57 L723 56 L733 40 L754 24 L798 14 L836 28 L865 55 L886 75 L900 81 L926 61 L952 36 L974 20 L982 18 " fill="none" stroke="black" /></svg>