<?xml version="1.0" encoding="utf-8" ?>
<svg baseProfile="tiny" height="382" version="1.2" viewBox="-3 -3 1031 382" width="1031" xmlns="http://www.w3.org/2000/svg" xmlns:ev="http://www.w3.org/2001/xml-events" xmlns:xlink="http://www.w3.org/1999/xlink"><defs /><path d="M0 382 L8 377 L18 371 L33 365 L43 360 L66 350 L84 341 L99 333 L111 326 L121 321 L131 316 L140 311 L149 306 L165 296 L179 288 L194 281 L208 273 L221 267 L236 259 L246 254 L259 247 L272 240 L286 233 L295 228 L304 223 L314 219 L323 215 L329 213 L337 210 L345 206 L352 203 L364 198 L376 193 L385 189 L397 185 L404 182 L409 180 L412 178 L415 176 L421 174 L432 168 L445 163 L457 157 L473 151 L485 147 L496 144 L510 140 L523 136 L526 135 L530 133 L544 125 L558 117 L569 111 L576 107 L581 104 L584 103 L586 102 L589 100 L594 97 L598 95 L605 91 L613 87 L622 82 L630 78 L638 75 L648 70 L655 67 L662 63 L668 61 L672 58 L676 55 L680 53 L682 51 L685 49 L687 47 L688 46 L690 44 L693 42 L696 40 L700 38 L705 35 L708 34 L711 33 L714 32 L717 30 L719 29 L722 28 L725 26 L730 23 L733 22 L736 20 L738 19 L741 18 L743 17 L746 15 L748 15 L753 13 L758 12 L762 12 L768 12 L772 12 L775 12 L778 12 L780 12 L784 12 L788 11 L792 11 L794 10 L796 9 L798 9 L802 9 L805 9 L808 9 L810 8 L812 8 L813 8 L814 8 L819 8 L830 10 L849 11 L860 11 L867 11 L871 11 L875 10 L879 9 L884 9 L890 9 L899 7 L906 6 L915 4 L924 3 L932 1 L939 0 L946 0 L954 0 L959 0 L963 0 L968 0 L974 2 L980 4 L985 7 L989 8 L993 10 L999 11 L1005 13 L1010 13 L1015 14 L1019 14 L1025 14 L1031 13 " fill="none" stroke="black" /></svg>