<?xml version="1.0" encoding="utf-8" ?>
<svg baseProfile="tiny" height="278" version="1.2" viewBox="-3 -3 754 278" width="754" xmlns="http://www.w3.org/2000/svg" xmlns:ev="http://www.w3.org/2001/xml-events" xmlns:xlink="http://www.w3.org/1999/xlink"><defs /><path d="M2 6 L1 6 L0 7 L0 8 L0 9 L0 10 L1 13 L7 19 L15 23 L25 25 L38 26 L51 23 L61 19 L65 15 L65 13 L65 12 L65 9 L65 5 L65 3 L65 2 L66 2 L68 2 L73 1 L78 0 L83 0 L86 0 L89 0 L93 0 L99 4 L104 9 L108 15 L112 20 L115 26 L118 30 L121 34 L124 39 L128 44 L132 48 L136 53 L140 57 L142 60 L144 63 L147 66 L151 71 L155 75 L159 78 L164 82 L169 86 L176 91 L183 96 L189 100 L196 105 L200 109 L207 113 L214 118 L221 123 L229 127 L239 133 L248 138 L258 146 L268 153 L276 158 L281 162 L285 164 L291 167 L297 171 L304 177 L311 181 L317 185 L323 189 L328 193 L334 196 L340 198 L346 200 L351 202 L359 206 L366 210 L374 213 L382 216 L390 219 L399 224 L408 227 L418 232 L425 236 L432 239 L438 242 L445 245 L452 248 L461 251 L470 254 L480 257 L489 260 L498 263 L506 266 L513 269 L521 271 L529 274 L534 275 L541 277 L548 278 L555 278 L562 278 L569 278 L576 277 L582 276 L591 275 L598 275 L605 275 L613 275 L620 275 L629 275 L637 275 L645 275 L654 275 L663 275 L671 275 L682 275 L695 275 L710 275 L722 275 L734 276 L740 276 L750 275 L754 274 " fill="none" stroke="black" /></svg>