<?xml version="1.0" encoding="utf-8" ?>
<svg baseProfile="tiny" height="466" version="1.2" viewBox="-3 -3 589 466" width="589" xmlns="http://www.w3.org/2000/svg" xmlns:ev="http://www.w3.org/2001/xml-events" xmlns:xlink="http://www.w3.org/1999/xlink"><defs /><path d="M0 466 L5 460 L24 438 L41 418 L47 409 L49 408 L49 409 L49 410 L49 413 L49 419 L50 423 L50 424 L51 424 L59 420 L78 398 L96 372 L109 357 L118 347 L120 345 L120 346 L116 354 L110 364 L107 372 L106 376 L109 377 L122 371 L141 356 L157 334 L167 319 L171 313 L173 312 L174 310 L177 308 L178 308 L173 315 L166 326 L163 334 L162 336 L175 331 L197 315 L223 296 L244 279 L256 268 L263 263 L266 260 L270 257 L272 255 L273 255 L272 255 L270 259 L269 261 L269 263 L269 264 L269 265 L269 266 L270 266 L274 266 L281 264 L290 260 L301 251 L314 234 L322 224 L332 215 L343 203 L353 195 L359 190 L360 190 L361 190 L359 192 L351 206 L345 218 L342 224 L341 226 L341 227 L341 228 L347 227 L363 207 L383 174 L403 146 L415 132 L420 126 L422 124 L425 121 L427 118 L429 117 L429 120 L426 131 L423 142 L422 146 L422 147 L431 139 L445 120 L467 94 L483 78 L492 69 L495 64 L496 62 L496 64 L494 68 L491 79 L488 87 L488 94 L488 96 L492 96 L503 84 L521 60 L544 36 L571 14 L589 0 " fill="none" stroke="black" /></svg>