<?xml version="1.0" encoding="utf-8" ?>
<svg baseProfile="tiny" height="56" version="1.2" viewBox="-3 -3 946 56" width="946" xmlns="http://www.w3.org/2000/svg" xmlns:ev="http://www.w3.org/2001/xml-events" xmlns:xlink="http://www.w3.org/1999/xlink"><defs /><path d="M0 29 L88 27 L185 8 L286 0 L386 25 L471 53 L498 56 L499 56 L510 53 L522 50 L532 49 L550 43 L568 38 L578 36 L587 35 L593 35 L600 34 L606 34 L612 34 L617 34 L623 34 L629 34 L634 34 L639 34 L646 34 L651 34 L656 33 L662 33 L668 33 L673 33 L678 33 L684 33 L690 33 L695 33 L700 33 L707 33 L712 33 L717 33 L723 33 L729 33 L735 33 L739 33 L745 33 L751 33 L756 33 L762 33 L768 33 L774 33 L779 33 L784 33 L790 33 L796 33 L801 33 L806 32 L813 32 L818 32 L823 32 L829 32 L835 32 L841 32 L845 32 L851 32 L857 32 L862 32 L867 32 L874 32 L879 32 L885 32 L890 32 L896 32 L901 32 L906 32 L912 32 L918 32 L923 32 L929 32 L935 32 L940 31 L946 31 " fill="none" stroke="black" /></svg>