<?xml version="1.0" encoding="utf-8" ?>
<svg baseProfile="tiny" height="59" version="1.2" viewBox="-3 -3 43 59" width="43" xmlns="http://www.w3.org/2000/svg" xmlns:ev="http://www.w3.org/2001/xml-events" xmlns:xlink="http://www.w3.org/1999/xlink"><defs /><path d="M32 17 L30 18 L28 20 L26 21 L24 22 L23 23 L23 24 L24 24 L26 24 L27 22 L29 21 L29 20 L29 19 L29 18 L28 17 L26 17 L23 17 L21 17 L20 17 L19 17 L20 17 L22 17 L23 16 L24 16 L25 16 L24 16 L23 17 L23 19 L23 22 L23 25 L24 26 L26 26 L27 26 L28 25 L28 24 L28 23 L27 22 L24 21 L21 21 L19 21 L18 21 L17 21 L17 22 L18 23 " fill="none" stroke="black" /><path d="M32 17 L30 18 L28 20 L26 21 L24 22 L23 23 L23 24 L24 24 L26 24 L27 22 L29 21 L29 20 L29 19 L29 18 L28 17 L26 17 L23 17 L21 17 L20 17 L19 17 L20 17 L22 17 L23 16 L24 16 L25 16 L24 16 L23 17 L23 19 L23 22 L23 25 L24 26 L26 26 L27 26 L28 25 L28 24 L28 23 L27 22 L24 21 L21 21 L19 21 L18 21 L17 21 L17 22 L18 23 M19 23 L14 29 L8 48 L7 56 L7 59 L13 58 L21 52 L24 48 L40 15 L43 7 L42 5 L37 2 L29 1 L21 0 L17 0 L14 0 L10 2 L3 15 L0 29 L0 33 L0 36 L5 39 L12 40 L24 37 L36 28 L39 26 L40 25 L40 22 L40 18 L38 15 L33 11 L25 7 L17 6 L6 14 L2 18 L1 23 L1 32 L2 37 L4 40 L8 42 L12 43 L27 32 L38 22 L40 20 L40 18 L40 16 L39 15 L35 14 L30 14 L23 19 L17 26 L14 30 L14 34 L13 40 L13 43 L13 45 L17 43 L27 32 L35 18 L36 15 L35 12 L26 12 L19 12 L17 12 L12 15 L6 25 L3 35 L2 43 L5 50 L11 53 L16 53 L20 52 L23 49 L25 44 L25 40 L25 36 L23 34 L21 33 L18 33 L15 34 L10 40 L9 50 L9 54 L12 57 L19 57 L25 54 L30 49 L31 45 L30 40 L26 36 L22 34 L18 34 L16 35 L14 36 L13 36 L14 37 L15 37 L18 36 L20 33 L20 32 L20 31 L18 31 L18 32 L18 34 L18 33 L18 32 " fill="none" stroke="black" /></svg>