<?xml version="1.0" encoding="utf-8" ?>
<svg baseProfile="tiny" height="51" version="1.2" viewBox="-3 -3 326 51" width="326" xmlns="http://www.w3.org/2000/svg" xmlns:ev="http://www.w3.org/2001/xml-events" xmlns:xlink="http://www.w3.org/1999/xlink"><defs /><path d="M0 51 L1 51 L2 51 L5 44 L7 37 L9 35 L13 28 L14 24 L16 22 L17 21 L18 20 L19 20 L20 20 L26 26 L32 33 L34 36 L36 38 L37 39 L38 40 L38 41 L38 39 L39 38 L39 37 L42 31 L44 27 L44 25 L45 24 L46 22 L46 21 L47 23 L49 27 L53 35 L57 39 L58 42 L60 43 L60 44 L60 46 L61 46 L61 45 L61 44 L62 43 L62 42 L65 37 L72 26 L76 21 L77 18 L78 17 L78 16 L79 16 L82 20 L86 26 L88 29 L90 31 L91 33 L91 34 L92 35 L93 36 L94 38 L95 39 L96 40 L97 40 L97 41 L97 39 L104 26 L107 20 L108 18 L109 18 L110 17 L110 16 L111 16 L113 17 L115 20 L117 23 L121 27 L123 29 L125 31 L127 33 L129 35 L131 36 L132 37 L133 37 L134 37 L135 37 L136 35 L141 25 L142 22 L144 20 L144 19 L144 18 L145 16 L147 11 L149 8 L150 7 L151 5 L152 5 L154 7 L157 11 L160 15 L162 19 L165 24 L167 28 L168 31 L169 32 L170 34 L170 35 L171 35 L173 31 L175 26 L177 21 L179 16 L181 13 L181 11 L183 10 L183 9 L183 8 L184 10 L192 26 L197 37 L198 40 L199 42 L199 43 L199 44 L201 41 L205 35 L206 31 L211 21 L214 14 L215 11 L216 10 L218 7 L220 3 L220 2 L222 0 L223 0 L224 5 L226 8 L233 11 L241 14 L249 16 L258 19 L267 21 L275 23 L281 24 L289 24 L296 25 L303 26 L308 26 L314 26 L320 26 L326 26 " fill="none" stroke="black" /></svg>