<?xml version="1.0" encoding="utf-8" ?>
<svg baseProfile="tiny" height="35" version="1.2" viewBox="-3 -3 539 35" width="539" xmlns="http://www.w3.org/2000/svg" xmlns:ev="http://www.w3.org/2001/xml-events" xmlns:xlink="http://www.w3.org/1999/xlink"><defs /><path d="M0 9 L7 6 L11 5 L14 4 L17 3 L20 2 L22 1 L24 0 L25 0 L27 0 L28 0 L29 0 L30 0 L32 0 L33 0 L34 0 L35 0 L36 0 L37 0 L38 0 L39 0 L41 0 L42 0 L43 0 L45 0 L46 1 L49 1 L50 1 L52 2 L54 3 L55 4 L58 5 L60 6 L62 7 L65 8 L67 10 L70 11 L73 12 L74 14 L77 14 L78 15 L79 15 L82 15 L83 15 L85 15 L86 15 L87 15 L88 15 L89 15 L90 15 L93 16 L94 16 L95 16 L96 16 L99 16 L101 16 L103 16 L104 16 L105 15 L106 14 L108 13 L109 12 L112 11 L113 11 L114 9 L116 8 L118 7 L119 7 L120 7 L121 7 L123 7 L124 7 L125 7 L126 7 L129 8 L131 9 L134 11 L136 12 L138 13 L140 14 L142 16 L145 18 L148 19 L149 20 L150 21 L152 22 L155 23 L159 23 L161 23 L164 23 L168 23 L174 23 L178 22 L181 21 L188 18 L193 15 L196 14 L198 12 L199 11 L200 10 L200 9 L205 6 L215 3 L224 2 L235 2 L253 5 L266 8 L275 11 L284 14 L294 16 L304 19 L310 21 L318 24 L327 28 L333 30 L340 32 L348 33 L354 35 L358 35 L364 35 L370 35 L376 35 L381 35 L386 35 L393 30 L400 24 L404 21 L411 17 L417 16 L425 15 L432 14 L438 13 L444 13 L448 13 L454 13 L461 13 L466 15 L472 17 L477 18 L483 20 L488 21 L494 21 L500 21 L506 22 L510 23 L516 23 L523 24 L528 25 L533 25 L539 25 " fill="none" stroke="black" /></svg>