<?xml version="1.0" encoding="utf-8" ?>
<svg baseProfile="tiny" height="190" version="1.2" viewBox="-3 -3 234 190" width="234" xmlns="http://www.w3.org/2000/svg" xmlns:ev="http://www.w3.org/2001/xml-events" xmlns:xlink="http://www.w3.org/1999/xlink"><defs /><path d="M26 24 L17 24 L12 25 L9 30 L5 45 L6 71 L9 79 L15 85 L32 93 L60 95 L100 58 L108 41 L107 28 L104 17 L92 8 L70 2 L50 3 L35 10 L25 19 L11 46 L5 78 L6 86 L12 93 L45 105 L76 100 L109 60 L115 39 L115 25 L111 15 L100 6 L82 1 L54 6 L21 22 L5 45 L0 63 L3 87 L14 107 L18 110 L24 113 L45 114 L96 85 L115 60 L122 43 L122 21 L119 11 L106 2 L81 0 L37 28 L23 46 L18 70 L22 102 L30 114 L39 122 L55 131 L64 133 L74 131 L114 100 L139 56 L144 26 L142 19 L132 13 L77 18 L54 30 L50 35 L46 48 L49 69 L55 89 L59 96 L65 101 L78 107 L90 109 L109 105 L142 80 L157 51 L159 26 L156 13 L150 5 L134 1 L112 4 L71 34 L51 70 L52 88 L63 112 L98 152 L131 173 L148 177 L164 172 L182 151 L202 103 L203 85 L201 76 L191 68 L161 59 L119 64 L100 75 L86 89 L78 105 L75 135 L82 157 L98 178 L123 190 L155 186 L178 165 L190 134 L188 97 L179 78 L158 65 L137 63 L120 67 L111 76 L99 116 L104 145 L121 162 L137 166 L159 163 L170 154 L180 134 L182 123 L181 116 L174 110 L162 109 L148 113 L136 129 L134 167 L140 179 L153 184 L168 183 L190 168 L208 146 L208 132 L201 117 L182 101 L165 97 L154 99 L142 108 L132 142 L141 170 L165 185 L198 190 L222 173 L234 140 L234 117 L228 101 L214 90 L189 87 L152 116 L143 137 L144 147 L154 163 L167 174 " fill="none" stroke="black" /></svg>