<?xml version="1.0" encoding="utf-8" ?>
<svg baseProfile="tiny" height="179" version="1.2" viewBox="-3 -3 363 179" width="363" xmlns="http://www.w3.org/2000/svg" xmlns:ev="http://www.w3.org/2001/xml-events" xmlns:xlink="http://www.w3.org/1999/xlink"><defs /><path d="M28 97 L34 80 L34 77 L34 71 L29 49 L21 24 L19 19 L17 18 L16 18 L12 22 L4 35 L0 48 L0 77 L3 101 L7 112 L9 117 L12 121 L18 125 L29 126 L45 120 L76 98 L81 93 L82 90 L87 64 L85 35 L81 23 L76 16 L69 10 L65 7 L63 7 L61 7 L56 15 L48 48 L47 79 L51 95 L54 107 L58 114 L60 117 L66 124 L75 129 L84 130 L92 129 L102 124 L105 121 L140 44 L143 27 L142 25 L138 20 L133 14 L124 6 L119 2 L116 0 L114 0 L105 18 L101 41 L101 60 L103 81 L107 101 L110 110 L114 116 L119 125 L125 131 L130 134 L136 136 L146 136 L151 135 L176 109 L188 95 L189 93 L189 92 L190 86 L190 74 L189 63 L178 33 L170 21 L165 17 L163 15 L161 14 L159 14 L158 15 L156 26 L150 70 L149 93 L151 121 L156 141 L158 149 L161 154 L165 159 L172 165 L180 167 L207 156 L231 131 L256 73 L260 49 L260 44 L259 40 L256 36 L252 30 L248 27 L246 26 L244 26 L235 31 L210 55 L203 66 L198 75 L190 117 L190 132 L190 137 L193 145 L197 152 L199 155 L203 158 L211 161 L216 162 L224 160 L231 154 L241 141 L247 130 L258 100 L260 73 L260 60 L257 43 L255 36 L254 33 L253 33 L252 33 L251 35 L245 51 L233 105 L230 138 L230 147 L230 151 L231 160 L235 169 L236 173 L237 175 L239 177 L242 178 L250 179 L264 178 L275 176 L297 171 L315 168 L318 168 L328 165 L353 158 L358 158 L361 158 L362 158 L363 157 " fill="none" stroke="black" /></svg>