<?xml version="1.0" encoding="utf-8" ?>
<svg baseProfile="tiny" height="755" version="1.2" viewBox="-3 -3 952 755" width="952" xmlns="http://www.w3.org/2000/svg" xmlns:ev="http://www.w3.org/2001/xml-events" xmlns:xlink="http://www.w3.org/1999/xlink"><defs /><circle cx="0" cy="592" fill="black" r="1" /><path d="M0 592 L14 534 L17 513 L17 510 L17 502 L18 478 L19 473 L19 472 L19 470 L19 469 L19 468 L19 466 L19 467 L19 468 L19 469 L19 470 L19 471 L19 470 L20 470 L80 593 L115 678 L118 688 L118 689 L117 665 L138 408 L138 362 L135 353 L135 352 L136 342 L138 332 L139 330 L139 329 L144 338 L203 518 L236 594 L262 639 L267 647 L267 648 L268 496 L288 365 L308 254 L314 219 L314 218 L313 218 L313 219 L313 221 L325 279 L349 366 L386 437 L444 543 L467 589 L468 591 L468 592 L468 555 L497 355 L569 134 L589 73 L593 70 L598 70 L602 72 L607 73 L611 75 L615 78 L624 163 L656 280 L691 435 L723 598 L732 659 L737 660 L743 660 L749 660 L754 660 L760 660 L766 660 L770 660 L778 660 L782 657 L774 555 L771 457 L788 375 L803 312 L816 255 L819 232 L823 226 L828 224 L832 222 L836 221 L841 219 L846 201 L853 157 L876 26 L881 0 L885 0 L889 1 L896 3 L901 4 L923 52 L952 211 L952 429 L952 645 L952 727 L952 736 L952 755 " fill="none" stroke="black" /></svg>