<?xml version="1.0" encoding="utf-8" ?>
<svg baseProfile="tiny" height="284" version="1.2" viewBox="-3 -3 545 284" width="545" xmlns="http://www.w3.org/2000/svg" xmlns:ev="http://www.w3.org/2001/xml-events" xmlns:xlink="http://www.w3.org/1999/xlink"><defs /><path d="M175 1 L163 0 L140 0 L119 2 L104 5 L92 9 L78 14 L66 22 L59 27 L48 37 L37 52 L29 65 L23 76 L17 90 L10 118 L3 150 L0 167 L0 176 L0 184 L1 191 L3 200 L7 210 L13 224 L20 236 L32 248 L47 260 L61 269 L74 276 L89 280 L107 283 L122 284 L138 283 L155 281 L169 278 L180 276 L193 273 L202 271 L216 266 L233 260 L248 253 L260 245 L268 239 L273 235 L282 224 L289 213 L290 210 L291 208 L292 205 L294 196 L308 116 L309 85 L308 83 L308 81 L307 80 L304 74 L299 66 L296 62 L292 58 L286 53 L279 47 L273 42 L266 37 L261 33 L257 31 L254 29 L250 26 L246 25 L242 23 L238 20 L234 19 L230 16 L227 15 L222 13 L218 12 L214 11 L210 10 L207 9 L204 8 L202 8 L201 8 L199 8 L198 8 L197 8 L196 7 L195 6 L194 6 L193 5 L193 4 L192 4 L191 4 L190 4 L189 4 L187 3 L185 2 L184 2 L183 2 L182 2 " fill="none" stroke="black" /><path d="M175 1 L163 0 L140 0 L119 2 L104 5 L92 9 L78 14 L66 22 L59 27 L48 37 L37 52 L29 65 L23 76 L17 90 L10 118 L3 150 L0 167 L0 176 L0 184 L1 191 L3 200 L7 210 L13 224 L20 236 L32 248 L47 260 L61 269 L74 276 L89 280 L107 283 L122 284 L138 283 L155 281 L169 278 L180 276 L193 273 L202 271 L216 266 L233 260 L248 253 L260 245 L268 239 L273 235 L282 224 L289 213 L290 210 L291 208 L292 205 L294 196 L308 116 L309 85 L308 83 L308 81 L307 80 L304 74 L299 66 L296 62 L292 58 L286 53 L279 47 L273 42 L266 37 L261 33 L257 31 L254 29 L250 26 L246 25 L242 23 L238 20 L234 19 L230 16 L227 15 L222 13 L218 12 L214 11 L210 10 L207 9 L204 8 L202 8 L201 8 L199 8 L198 8 L197 8 L196 7 L195 6 L194 6 L193 5 L193 4 L192 4 L191 4 L190 4 L189 4 L187 3 L185 2 L184 2 L183 2 L182 2 M198 277 L216 277 L253 272 L280 271 L309 271 L323 271 L339 270 L359 268 L371 268 L382 267 L400 265 L428 260 L455 257 L469 255 L483 253 L492 250 L499 248 L508 245 L518 243 L529 240 L536 238 L540 238 L542 238 L544 238 L545 238 " fill="none" stroke="black" /></svg>