<?xml version="1.0" encoding="utf-8" ?>
<svg baseProfile="tiny" height="573" version="1.2" viewBox="-3 -3 498 573" width="498" xmlns="http://www.w3.org/2000/svg" xmlns:ev="http://www.w3.org/2001/xml-events" xmlns:xlink="http://www.w3.org/1999/xlink"><defs /><path d="M7 493 L7 506 L18 534 L24 540 L31 540 L50 528 L58 514 L62 495 L53 456 L27 446 L12 451 L2 468 L0 497 L18 539 L46 563 L63 572 L69 573 L76 569 L91 549 L104 503 L103 433 L92 410 L63 406 L31 422 L14 437 L4 462 L8 495 L30 526 L60 552 L83 564 L107 565 L165 516 L185 480 L196 444 L201 392 L191 345 L177 332 L140 327 L81 359 L66 382 L63 420 L90 477 L128 521 L157 542 L175 547 L196 540 L251 475 L274 421 L279 363 L269 301 L230 259 L182 236 L153 230 L92 283 L76 325 L83 383 L115 438 L173 481 L216 492 L260 484 L315 441 L360 375 L372 324 L370 258 L333 223 L304 209 L267 202 L211 229 L178 282 L172 319 L183 360 L214 399 L269 439 L307 444 L417 359 L485 247 L493 200 L498 145 L463 69 L434 19 L402 0 L357 5 L320 29 L280 63 L252 122 L252 197 L266 267 L282 296 L313 322 L331 328 " fill="none" stroke="black" /></svg>