<?xml version="1.0" encoding="utf-8" ?>
<svg baseProfile="tiny" height="674" version="1.2" viewBox="-3 -3 1188 674" width="1188" xmlns="http://www.w3.org/2000/svg" xmlns:ev="http://www.w3.org/2001/xml-events" xmlns:xlink="http://www.w3.org/1999/xlink"><defs /><path d="M705 492 L709 492 L716 492 L721 492 L726 492 L732 492 L738 492 L743 492 L748 492 L754 492 L760 492 L766 492 L770 492 L777 492 L782 492 L788 492 L793 492 L799 492 L805 492 L810 492 L815 492 L822 492 L827 492 L832 492 L838 492 L844 492 L849 492 L854 492 L860 492 L866 492 L871 492 L876 492 L883 492 L887 492 L893 492 L899 492 L905 492 L910 492 L915 492 L921 492 L927 492 L932 492 L937 492 L944 492 L948 492 L954 492 L960 492 L966 492 L971 492 L976 492 L982 492 L988 492 L993 492 L999 492 L1005 492 L1010 492 L1016 492 L1021 492 L1027 492 L1032 492 L1037 492 L1043 492 L1050 492 L1054 492 L1060 492 L1066 492 L1072 492 L1077 492 L1082 492 L1088 491 L1093 491 L1099 491 L1105 491 L1111 491 L1115 491 L1121 491 L1127 491 L1133 491 L1138 491 L1143 491 L1149 491 L1154 491 L1160 491 L1166 491 L1172 491 L1176 491 L1183 491 L1188 490 " fill="none" stroke="black" /><path d="M705 492 L709 492 L716 492 L721 492 L726 492 L732 492 L738 492 L743 492 L748 492 L754 492 L760 492 L766 492 L770 492 L777 492 L782 492 L788 492 L793 492 L799 492 L805 492 L810 492 L815 492 L822 492 L827 492 L832 492 L838 492 L844 492 L849 492 L854 492 L860 492 L866 492 L871 492 L876 492 L883 492 L887 492 L893 492 L899 492 L905 492 L910 492 L915 492 L921 492 L927 492 L932 492 L937 492 L944 492 L948 492 L954 492 L960 492 L966 492 L971 492 L976 492 L982 492 L988 492 L993 492 L999 492 L1005 492 L1010 492 L1016 492 L1021 492 L1027 492 L1032 492 L1037 492 L1043 492 L1050 492 L1054 492 L1060 492 L1066 492 L1072 492 L1077 492 L1082 492 L1088 491 L1093 491 L1099 491 L1105 491 L1111 491 L1115 491 L1121 491 L1127 491 L1133 491 L1138 491 L1143 491 L1149 491 L1154 491 L1160 491 L1166 491 L1172 491 L1176 491 L1183 491 L1188 490 M235 507 L234 494 L224 357 L232 189 L235 73 L228 46 L222 42 L205 34 L168 33 L115 54 L88 65 L55 102 L20 199 L18 258 L32 335 L61 381 L126 418 L173 433 L251 426 L316 382 L367 301 L385 238 L387 175 L367 120 L306 38 L244 0 L174 14 L84 102 L25 215 L0 387 L37 536 L110 605 L185 674 L290 674 L382 655 L464 601 L546 496 L576 391 L573 281 L545 246 L478 198 L414 181 L317 240 L256 308 L226 363 L218 474 L246 559 L285 574 L354 579 L450 553 L515 505 L566 428 L593 311 L593 233 L576 181 L548 121 L525 93 L514 87 L510 86 L509 86 L508 86 L507 86 " fill="none" stroke="black" /></svg>