<?xml version="1.0" encoding="utf-8" ?>
<svg baseProfile="tiny" height="3" version="1.2" viewBox="-3 -3 66 3" width="66" xmlns="http://www.w3.org/2000/svg" xmlns:ev="http://www.w3.org/2001/xml-events" xmlns:xlink="http://www.w3.org/1999/xlink"><defs /><path d="M0 0 L2 0 L4 0 L5 0 L7 0 L8 1 L11 2 L12 2 L13 2 L15 2 L17 2 L20 3 L21 3 L23 3 L24 3 L25 3 L26 3 L28 3 L29 3 L30 3 L31 3 L32 3 L33 3 L35 3 L37 3 L39 3 L40 3 L42 3 L43 3 L45 3 L47 3 L48 3 L49 3 L50 3 L52 3 L53 3 L54 3 L56 3 L58 3 L59 3 L60 3 L61 3 L62 3 L64 3 L65 3 L66 3 " fill="none" stroke="black" /></svg>