<?xml version="1.0" encoding="utf-8" ?>
<svg baseProfile="tiny" height="423" version="1.2" viewBox="-3 -3 803 423" width="803" xmlns="http://www.w3.org/2000/svg" xmlns:ev="http://www.w3.org/2001/xml-events" xmlns:xlink="http://www.w3.org/1999/xlink"><defs /><circle cx="0" cy="423" fill="black" r="1" /><path d="M0 423 L14 398 L27 380 L31 375 L32 374 L32 373 L33 373 L34 374 L37 378 L42 387 L47 398 L53 405 L54 408 L56 410 L57 411 L58 413 L58 414 L58 415 L59 415 L60 415 L64 415 L78 416 L97 416 L115 415 L131 415 L156 416 L168 418 L177 418 L188 418 L196 418 L203 418 L216 418 L236 418 L246 418 L251 418 L255 418 L259 418 L260 418 L261 418 L263 418 L264 418 L264 416 L264 415 L305 293 L307 276 L307 275 L307 276 L307 277 L307 279 L308 281 L312 288 L324 305 L337 321 L341 328 L347 339 L357 355 L363 364 L370 375 L381 393 L386 403 L388 405 L389 407 L390 408 L390 409 L391 409 L392 409 L392 410 L392 411 L393 411 L397 411 L424 411 L464 414 L481 414 L493 414 L503 414 L511 414 L518 414 L525 414 L529 414 L535 414 L541 414 L547 414 L552 414 L557 414 L563 414 L568 414 L574 414 L579 414 L584 414 L589 414 L595 414 L601 414 L606 414 L611 413 L617 413 L625 407 L672 214 L688 46 L698 0 L703 0 L708 0 L714 1 L720 1 L725 2 L731 2 L736 4 L743 5 L747 8 L754 13 L766 100 L777 181 L785 232 L795 277 L803 299 " fill="none" stroke="black" /></svg>