<?xml version="1.0" encoding="utf-8" ?>
<svg baseProfile="tiny" height="10" version="1.2" viewBox="-3 -3 796 10" width="796" xmlns="http://www.w3.org/2000/svg" xmlns:ev="http://www.w3.org/2001/xml-events" xmlns:xlink="http://www.w3.org/1999/xlink"><defs /><path d="M0 6 L3 6 L5 6 L7 6 L11 6 L14 6 L17 6 L20 6 L25 6 L27 6 L32 6 L38 8 L43 8 L47 8 L53 8 L58 8 L63 8 L68 9 L74 10 L80 10 L88 10 L95 10 L103 10 L112 10 L118 10 L123 10 L129 9 L134 7 L137 7 L143 6 L149 5 L152 4 L155 4 L159 3 L163 3 L171 3 L178 3 L187 3 L194 3 L197 3 L203 3 L206 3 L210 3 L213 3 L218 3 L221 3 L223 3 L225 3 L226 3 L229 3 L235 3 L241 3 L244 3 L247 3 L248 3 L249 3 L250 3 L251 3 L269 3 L282 3 L294 3 L303 3 L311 3 L317 3 L323 3 L329 3 L335 3 L340 3 L345 3 L352 3 L357 3 L362 3 L368 3 L374 3 L379 3 L384 3 L390 3 L396 3 L401 3 L406 3 L413 3 L418 3 L423 3 L429 3 L435 3 L440 3 L445 3 L451 3 L457 3 L462 3 L467 3 L474 3 L479 3 L484 3 L490 3 L496 3 L501 2 L507 2 L512 2 L519 2 L523 2 L529 1 L535 1 L541 1 L546 1 L551 1 L557 1 L563 1 L568 1 L573 1 L580 1 L585 1 L590 1 L596 1 L602 1 L607 1 L612 1 L618 1 L624 1 L629 1 L634 1 L641 1 L646 1 L652 1 L657 1 L663 1 L668 1 L673 1 L679 1 L686 1 L690 1 L696 1 L702 1 L707 1 L713 1 L718 1 L724 1 L729 1 L735 1 L740 1 L747 1 L751 1 L757 1 L763 1 L767 1 L774 1 L779 1 L785 1 L790 1 L796 0 " fill="none" stroke="black" /></svg>