<?xml version="1.0" encoding="utf-8" ?>
<svg baseProfile="tiny" height="172" version="1.2" viewBox="-3 -3 1120 172" width="1120" xmlns="http://www.w3.org/2000/svg" xmlns:ev="http://www.w3.org/2001/xml-events" xmlns:xlink="http://www.w3.org/1999/xlink"><defs /><path d="M0 172 L70 169 L125 167 L189 167 L251 167 L300 167 L332 166 L358 162 L373 161 L390 159 L426 155 L454 152 L498 146 L538 148 L546 149 L560 149 L571 147 L576 146 L605 130 L617 123 L619 122 L621 122 L622 121 L623 121 L659 47 L688 13 L703 2 L710 0 L715 0 L721 0 L727 0 L734 0 L739 0 L744 0 L750 0 L756 0 L761 0 L766 0 L772 0 L778 0 L783 0 L788 0 L795 0 L800 0 L806 0 L811 0 L817 0 L823 0 L827 0 L833 0 L839 0 L844 0 L849 0 L855 0 L861 0 L865 0 L871 0 L877 0 L882 0 L888 0 L893 0 L900 0 L904 0 L910 0 L916 0 L922 0 L927 0 L933 0 L938 0 L945 0 L949 0 L954 0 L961 0 L965 0 L971 0 L977 0 L983 0 L988 0 L994 0 L999 0 L1006 0 L1010 0 L1016 0 L1022 0 L1026 0 L1033 0 L1038 0 L1044 0 L1049 0 L1055 0 L1060 0 L1067 0 L1071 0 L1077 0 L1083 0 L1087 0 L1094 0 L1099 0 L1105 0 L1110 0 L1116 0 L1120 0 " fill="none" stroke="black" /></svg>