<?xml version="1.0" encoding="utf-8" ?>
<svg baseProfile="tiny" height="390" version="1.2" viewBox="-3 -3 1049 390" width="1049" xmlns="http://www.w3.org/2000/svg" xmlns:ev="http://www.w3.org/2001/xml-events" xmlns:xlink="http://www.w3.org/1999/xlink"><defs /><path d="M92 147 L52 203 L32 254 L28 273 L28 284 L33 317 L37 327 L42 335 L60 351 L86 371 L98 374 L122 371 L166 345 L201 300 L225 254 L229 248 L229 222 L234 97 L221 63 L213 54 L194 37 L172 25 L148 21 L111 27 L62 75 L19 151 L0 189 L0 190 L8 225 L25 265 L30 270 L32 271 L34 273 L36 275 L38 275 L39 276 L40 277 L42 277 " fill="none" stroke="black" /><path d="M92 147 L52 203 L32 254 L28 273 L28 284 L33 317 L37 327 L42 335 L60 351 L86 371 L98 374 L122 371 L166 345 L201 300 L225 254 L229 248 L229 222 L234 97 L221 63 L213 54 L194 37 L172 25 L148 21 L111 27 L62 75 L19 151 L0 189 L0 190 L8 225 L25 265 L30 270 L32 271 L34 273 L36 275 L38 275 L39 276 L40 277 L42 277 M359 51 L335 36 L309 22 L294 19 L290 19 L276 30 L265 46 L252 67 L235 115 L231 135 L228 148 L224 180 L224 201 L225 213 L232 237 L246 268 L259 288 L274 301 L301 323 L318 332 L330 336 L345 336 L369 334 L395 322 L419 299 L445 281 L459 269 L513 125 L518 112 L519 106 L486 51 L446 19 L409 7 L376 1 L344 8 L286 29 L254 39 L243 43 L239 50 L240 79 L244 88 " fill="none" stroke="black" /><path d="M92 147 L52 203 L32 254 L28 273 L28 284 L33 317 L37 327 L42 335 L60 351 L86 371 L98 374 L122 371 L166 345 L201 300 L225 254 L229 248 L229 222 L234 97 L221 63 L213 54 L194 37 L172 25 L148 21 L111 27 L62 75 L19 151 L0 189 L0 190 L8 225 L25 265 L30 270 L32 271 L34 273 L36 275 L38 275 L39 276 L40 277 L42 277 M359 51 L335 36 L309 22 L294 19 L290 19 L276 30 L265 46 L252 67 L235 115 L231 135 L228 148 L224 180 L224 201 L225 213 L232 237 L246 268 L259 288 L274 301 L301 323 L318 332 L330 336 L345 336 L369 334 L395 322 L419 299 L445 281 L459 269 L513 125 L518 112 L519 106 L486 51 L446 19 L409 7 L376 1 L344 8 L286 29 L254 39 L243 43 L239 50 L240 79 L244 88 M720 12 L684 1 L643 0 L617 4 L605 8 L581 17 L546 39 L529 55 L514 83 L499 176 L501 228 L504 254 L509 274 L519 292 L553 331 L607 372 L660 390 L729 384 L779 358 L804 329 L845 280 L864 242 L870 208 L871 162 L862 123 L837 100 L792 71 L753 52 L710 49 L672 49 L652 48 L635 49 L618 58 L611 66 L609 69 " fill="none" stroke="black" /><path d="M92 147 L52 203 L32 254 L28 273 L28 284 L33 317 L37 327 L42 335 L60 351 L86 371 L98 374 L122 371 L166 345 L201 300 L225 254 L229 248 L229 222 L234 97 L221 63 L213 54 L194 37 L172 25 L148 21 L111 27 L62 75 L19 151 L0 189 L0 190 L8 225 L25 265 L30 270 L32 271 L34 273 L36 275 L38 275 L39 276 L40 277 L42 277 M359 51 L335 36 L309 22 L294 19 L290 19 L276 30 L265 46 L252 67 L235 115 L231 135 L228 148 L224 180 L224 201 L225 213 L232 237 L246 268 L259 288 L274 301 L301 323 L318 332 L330 336 L345 336 L369 334 L395 322 L419 299 L445 281 L459 269 L513 125 L518 112 L519 106 L486 51 L446 19 L409 7 L376 1 L344 8 L286 29 L254 39 L243 43 L239 50 L240 79 L244 88 M720 12 L684 1 L643 0 L617 4 L605 8 L581 17 L546 39 L529 55 L514 83 L499 176 L501 228 L504 254 L509 274 L519 292 L553 331 L607 372 L660 390 L729 384 L779 358 L804 329 L845 280 L864 242 L870 208 L871 162 L862 123 L837 100 L792 71 L753 52 L710 49 L672 49 L652 48 L635 49 L618 58 L611 66 L609 69 M933 36 L898 83 L877 139 L866 177 L859 202 L854 242 L856 281 L860 310 L864 325 L869 340 L880 353 L896 361 L905 363 L930 358 L985 326 L1026 251 L1038 185 L1047 143 L1049 123 L1049 108 L1047 97 L1031 80 L1025 77 L1013 73 L985 75 L977 78 L965 83 L955 86 L951 86 L946 88 L943 92 L941 94 L940 94 L940 93 L940 91 L940 90 " fill="none" stroke="black" /></svg>