<?xml version="1.0" encoding="utf-8" ?>
<svg baseProfile="tiny" height="226" version="1.2" viewBox="-3 -3 928 226" width="928" xmlns="http://www.w3.org/2000/svg" xmlns:ev="http://www.w3.org/2001/xml-events" xmlns:xlink="http://www.w3.org/1999/xlink"><defs /><path d="M0 146 L56 36 L69 9 L71 3 L71 1 L71 0 L82 15 L164 97 L240 171 L282 221 L286 225 L286 226 L287 226 L291 225 L302 222 L320 221 L352 214 L374 210 L389 207 L415 200 L432 195 L442 193 L452 192 L463 190 L470 190 L474 190 L478 190 L483 189 L487 188 L493 187 L499 185 L508 183 L530 180 L538 180 L541 180 L544 180 L545 180 L547 179 L548 177 L550 176 L561 170 L572 167 L581 164 L590 163 L598 162 L605 160 L611 160 L619 157 L630 148 L640 131 L646 127 L653 123 L659 120 L665 116 L671 112 L678 109 L683 107 L693 105 L697 104 L703 104 L709 104 L715 104 L719 104 L725 104 L731 104 L737 104 L742 104 L747 104 L754 104 L758 104 L764 104 L770 104 L776 104 L781 104 L786 104 L792 104 L798 104 L803 104 L808 104 L815 104 L820 104 L825 104 L831 104 L837 104 L842 104 L847 104 L854 104 L860 104 L864 104 L870 104 L876 104 L881 104 L887 104 L892 104 L899 104 L903 104 L909 104 L915 104 L921 104 L926 104 L928 104 L928 103 " fill="none" stroke="black" /></svg>