<?xml version="1.0" encoding="utf-8" ?>
<svg baseProfile="tiny" height="531" version="1.2" viewBox="-3 -3 730 531" width="730" xmlns="http://www.w3.org/2000/svg" xmlns:ev="http://www.w3.org/2001/xml-events" xmlns:xlink="http://www.w3.org/1999/xlink"><defs /><path d="M25 323 L57 289 L78 275 L80 275 L82 276 L82 278 L84 287 L94 312 L99 322 L101 326 L103 329 L108 332 L111 332 L115 333 L128 332 L202 288 L257 245 L296 217 L308 208 L310 207 L311 207 L311 209 L302 287 L277 366 L254 427 L253 432 L253 433 L253 432 L263 421 L274 409 L276 406 L278 404 L281 400 L288 390 L339 284 L351 173 L325 129 L297 117 L239 156 L172 237 L154 278 L155 296 L165 315 L201 337 L277 333 L348 277 L384 192 L372 125 L313 47 L207 33 L77 184 L0 402 L10 497 L107 531 L282 484 L389 364 L440 195 L399 101 L316 76 L228 112 L142 248 L130 355 L148 380 L199 394 L286 342 L329 249 L322 216 L303 207 L263 228 L244 292 L259 317 L311 325 L392 278 L411 236 L409 200 L394 187 L337 202 L318 239 L318 281 L331 294 L392 287 L446 236 L453 185 L435 161 L415 163 L387 195 L389 224 L408 255 L435 267 L470 259 L500 213 L497 171 L491 164 L487 165 L467 207 L465 214 L465 215 L465 216 L465 214 L465 209 L465 207 L464 207 L463 209 L463 211 L463 209 L491 107 L502 59 L502 54 L503 56 L518 98 L531 138 L537 153 L549 187 L557 200 L564 203 L572 204 L580 200 L602 67 L608 28 L619 3 L626 0 L631 0 L636 0 L642 0 L655 7 L674 23 L691 40 L712 66 L721 70 L730 72 " fill="none" stroke="black" /></svg>