<?xml version="1.0" encoding="utf-8" ?>
<svg baseProfile="tiny" height="198" version="1.2" viewBox="-3 -3 404 198" width="404" xmlns="http://www.w3.org/2000/svg" xmlns:ev="http://www.w3.org/2001/xml-events" xmlns:xlink="http://www.w3.org/1999/xlink"><defs /><path d="M12 82 L8 82 L7 82 L4 83 L4 85 L2 95 L1 105 L0 121 L3 146 L8 160 L10 165 L13 168 L15 171 L19 173 L27 174 L40 173 L53 168 L61 163 L75 140 L101 63 L101 57 L101 56 L100 53 L94 45 L88 38 L86 36 L84 36 L81 36 L77 42 L69 64 L62 96 L63 128 L70 152 L74 163 L79 172 L90 184 L99 193 L106 198 L112 198 L178 153 L204 124 L214 107 L217 91 L219 82 L218 74 L215 60 L212 51 L208 47 L202 44 L197 42 L193 41 L191 41 L183 51 L168 88 L166 99 L166 108 L168 126 L171 138 L175 150 L183 161 L188 166 L191 169 L195 169 L202 167 L206 164 L236 119 L246 83 L250 70 L254 63 L256 49 L248 26 L242 15 L240 11 L238 11 L234 11 L217 24 L203 39 L201 42 L201 47 L202 73 L204 88 L205 93 L205 96 L206 101 L207 104 L210 110 L214 116 L216 119 L219 121 L222 123 L230 124 L241 124 L268 116 L299 98 L314 83 L325 50 L329 27 L332 16 L335 13 L337 10 L336 4 L335 2 L329 0 L323 1 L319 2 L309 7 L297 15 L294 17 L292 19 L284 31 L278 39 L276 42 L275 45 L273 51 L272 56 L272 60 L273 70 L292 112 L295 117 L296 119 L298 120 L310 118 L329 109 L339 98 L342 93 L344 88 L354 60 L355 51 L354 50 L351 46 L343 39 L331 34 L328 34 L325 34 L323 34 L321 35 L320 36 L315 46 L312 57 L312 67 L314 78 L324 93 L334 105 L338 109 L341 110 L342 112 L347 112 L374 106 L394 102 L404 101 " fill="none" stroke="black" /></svg>