<?xml version="1.0" encoding="utf-8" ?>
<svg baseProfile="tiny" height="140" version="1.2" viewBox="-3 -3 552 140" width="552" xmlns="http://www.w3.org/2000/svg" xmlns:ev="http://www.w3.org/2001/xml-events" xmlns:xlink="http://www.w3.org/1999/xlink"><defs /><path d="M0 108 L16 79 L31 50 L32 46 L33 45 L36 41 L37 40 L39 37 L40 36 L41 36 L41 35 L42 36 L51 48 L60 60 L72 78 L84 97 L89 105 L94 112 L100 118 L102 120 L104 122 L105 123 L105 124 L106 124 L108 123 L112 117 L122 101 L125 97 L125 95 L126 93 L127 90 L136 75 L140 67 L141 64 L149 52 L153 46 L155 43 L156 42 L156 41 L158 40 L158 39 L158 38 L158 39 L158 41 L159 43 L162 48 L172 59 L181 68 L190 76 L197 82 L199 85 L201 87 L204 89 L207 91 L209 93 L211 93 L212 94 L213 96 L214 96 L214 95 L225 60 L230 38 L230 35 L230 34 L230 33 L230 32 L230 30 L230 29 L231 31 L232 32 L238 38 L281 103 L298 133 L300 137 L301 138 L301 139 L301 140 L303 129 L310 109 L316 107 L322 106 L327 105 L333 103 L339 103 L345 103 L350 101 L362 95 L375 85 L383 82 L391 73 L404 27 L411 4 L415 3 L422 1 L427 0 L432 0 L437 0 L446 8 L470 50 L482 65 L495 87 L512 127 L518 131 L525 132 L529 133 L535 134 L541 135 L546 135 L552 135 " fill="none" stroke="black" /></svg>