<?xml version="1.0" encoding="utf-8" ?>
<svg baseProfile="tiny" height="201" version="1.2" viewBox="-3 -3 70 201" width="70" xmlns="http://www.w3.org/2000/svg" xmlns:ev="http://www.w3.org/2001/xml-events" xmlns:xlink="http://www.w3.org/1999/xlink"><defs /><path d="M13 21 L12 23 L11 25 L10 28 L9 31 L9 34 L8 38 L8 42 L8 46 L8 49 L9 54 L10 57 L11 60 L13 65 L15 70 L17 73 L19 77 L20 79 L22 81 L24 84 L26 87 L29 91 L32 95 L35 100 L38 105 L42 112 L43 115 L44 119 L44 121 L44 122 L44 124 L43 125 L41 126 L37 128 L33 130 L30 131 L27 133 L23 135 L20 137 L15 139 L11 142 L8 144 L5 146 L4 147 L3 150 L1 153 L0 158 L0 164 L0 168 L0 171 L1 176 L2 180 L4 184 L6 186 L8 188 L11 191 L14 195 L17 197 L21 199 L23 200 L25 200 L27 201 L30 201 L35 200 L38 200 L40 199 L40 198 L41 197 L42 195 L42 192 L42 189 L40 186 L39 182 L38 181 L37 180 L35 178 L35 177 L34 176 L32 172 L30 170 L29 168 L29 166 L29 163 L29 162 L29 159 L30 156 L33 152 L35 150 L37 148 L40 146 L43 142 L46 139 L49 136 L52 134 L56 131 L58 128 L60 126 L63 123 L65 119 L68 116 L69 114 L70 111 L70 108 L70 105 L70 101 L70 97 L68 93 L66 88 L63 84 L60 80 L57 75 L54 72 L52 69 L50 65 L48 62 L46 59 L44 56 L42 53 L41 50 L40 46 L38 42 L38 38 L37 34 L37 31 L37 28 L39 26 L41 24 L44 21 L46 18 L47 17 L49 16 L49 15 L49 13 L48 9 L46 6 L45 2 L44 1 L42 1 L42 0 L41 0 L40 0 L38 2 L35 4 L33 7 L31 8 L30 10 L29 11 L28 13 L27 14 L27 15 " fill="none" stroke="black" /></svg>