<?xml version="1.0" encoding="utf-8" ?>
<svg baseProfile="tiny" height="166" version="1.2" viewBox="-3 -3 197 166" width="197" xmlns="http://www.w3.org/2000/svg" xmlns:ev="http://www.w3.org/2001/xml-events" xmlns:xlink="http://www.w3.org/1999/xlink"><defs /><path d="M77 0 L60 7 L35 21 L0 35 " fill="none" stroke="black" /><path d="M77 0 L60 7 L35 21 L0 35 M84 28 L73 33 L51 42 " fill="none" stroke="black" /><path d="M77 0 L60 7 L35 21 L0 35 M84 28 L73 33 L51 42 M127 57 L105 64 L79 74 " fill="none" stroke="black" /><path d="M77 0 L60 7 L35 21 L0 35 M84 28 L73 33 L51 42 M127 57 L105 64 L79 74 M144 97 L138 100 L123 104 L104 109 " fill="none" stroke="black" /><path d="M77 0 L60 7 L35 21 L0 35 M84 28 L73 33 L51 42 M127 57 L105 64 L79 74 M144 97 L138 100 L123 104 L104 109 M158 137 L156 139 L144 143 " fill="none" stroke="black" /><path d="M77 0 L60 7 L35 21 L0 35 M84 28 L73 33 L51 42 M127 57 L105 64 L79 74 M144 97 L138 100 L123 104 L104 109 M158 137 L156 139 L144 143 M197 160 L193 162 L180 166 " fill="none" stroke="black" /></svg>