<?xml version="1.0" encoding="utf-8" ?>
<svg baseProfile="tiny" height="151" version="1.2" viewBox="-3 -3 185 151" width="185" xmlns="http://www.w3.org/2000/svg" xmlns:ev="http://www.w3.org/2001/xml-events" xmlns:xlink="http://www.w3.org/1999/xlink"><defs /><path d="M0 146 L0 143 L0 139 L0 132 L0 123 L0 115 L0 107 L0 98 L0 90 L0 83 L1 76 L1 72 L1 68 L1 66 L1 64 L2 62 L2 61 L2 59 L2 58 L3 55 L3 52 L4 49 L5 46 L5 44 L5 42 L6 41 L6 40 L6 39 L7 38 L8 35 L9 31 L10 28 L10 25 L12 22 L13 19 L14 14 L15 11 L16 8 L16 7 L16 6 L16 7 L17 11 L19 18 L22 26 L24 36 L26 45 L28 57 L30 68 L33 82 L36 98 L37 108 L38 114 L38 118 L38 117 L38 99 L39 69 L43 33 L46 13 L46 5 L47 1 L47 0 L49 5 L51 15 L58 33 L65 55 L70 73 L75 88 L78 103 L79 114 L79 122 L80 126 L80 127 L81 123 L85 103 L94 67 L104 32 L109 10 L111 3 L111 2 L112 3 L113 9 L115 25 L120 51 L127 84 L131 109 L132 122 L133 129 L133 130 L134 126 L140 105 L152 69 L167 31 L177 10 L178 8 L179 10 L179 11 L179 14 L180 20 L181 31 L182 50 L184 74 L184 103 L185 129 L185 145 L184 151 " fill="none" stroke="black" /></svg>