<?xml version="1.0" encoding="utf-8" ?>
<svg baseProfile="tiny" height="115" version="1.2" viewBox="-3 -3 273 115" width="273" xmlns="http://www.w3.org/2000/svg" xmlns:ev="http://www.w3.org/2001/xml-events" xmlns:xlink="http://www.w3.org/1999/xlink"><defs /><path d="M1 40 L4 46 L7 45 L15 37 L23 36 L29 36 L37 41 L45 43 L58 41 L73 35 L85 34 L94 40 L99 45 L105 44 L109 41 L111 42 " fill="none" stroke="black" /><path d="M1 40 L4 46 L7 45 L15 37 L23 36 L29 36 L37 41 L45 43 L58 41 L73 35 L85 34 L94 40 L99 45 L105 44 L109 41 L111 42 M0 0 L1 0 L6 0 L19 1 L28 2 " fill="none" stroke="black" /><path d="M1 40 L4 46 L7 45 L15 37 L23 36 L29 36 L37 41 L45 43 L58 41 L73 35 L85 34 L94 40 L99 45 L105 44 L109 41 L111 42 M0 0 L1 0 L6 0 L19 1 L28 2 M67 7 L82 8 L101 10 L113 12 " fill="none" stroke="black" /><path d="M1 40 L4 46 L7 45 L15 37 L23 36 L29 36 L37 41 L45 43 L58 41 L73 35 L85 34 L94 40 L99 45 L105 44 L109 41 L111 42 M0 0 L1 0 L6 0 L19 1 L28 2 M67 7 L82 8 L101 10 L113 12 M190 39 L187 39 L183 40 L175 42 L168 46 L163 50 L161 55 L161 63 L161 70 L162 75 L164 78 L166 81 L168 85 L174 91 L183 96 L192 99 L205 99 L218 97 L227 93 L231 89 L235 84 L237 77 L238 69 L238 59 L235 50 L230 41 L226 34 L222 30 L219 28 L214 26 L207 26 L201 25 L194 25 L189 26 L187 26 L184 26 L177 28 L173 29 L170 30 L166 33 L162 38 L157 45 L153 53 L150 60 L148 66 L147 73 L147 81 L148 88 L152 95 L159 100 L166 104 L170 105 L177 108 L187 111 L197 112 L206 113 L218 114 L230 115 L239 115 L251 114 L260 110 L266 102 L271 93 L272 81 L273 66 L270 52 L264 40 L258 31 L252 24 L243 19 L230 15 L225 13 " fill="none" stroke="black" /><path d="M1 40 L4 46 L7 45 L15 37 L23 36 L29 36 L37 41 L45 43 L58 41 L73 35 L85 34 L94 40 L99 45 L105 44 L109 41 L111 42 M0 0 L1 0 L6 0 L19 1 L28 2 M67 7 L82 8 L101 10 L113 12 M190 39 L187 39 L183 40 L175 42 L168 46 L163 50 L161 55 L161 63 L161 70 L162 75 L164 78 L166 81 L168 85 L174 91 L183 96 L192 99 L205 99 L218 97 L227 93 L231 89 L235 84 L237 77 L238 69 L238 59 L235 50 L230 41 L226 34 L222 30 L219 28 L214 26 L207 26 L201 25 L194 25 L189 26 L187 26 L184 26 L177 28 L173 29 L170 30 L166 33 L162 38 L157 45 L153 53 L150 60 L148 66 L147 73 L147 81 L148 88 L152 95 L159 100 L166 104 L170 105 L177 108 L187 111 L197 112 L206 113 L218 114 L230 115 L239 115 L251 114 L260 110 L266 102 L271 93 L272 81 L273 66 L270 52 L264 40 L258 31 L252 24 L243 19 L230 15 L225 13 M192 40 L193 40 L198 41 L200 42 L202 45 L205 48 L206 50 L206 51 L206 55 L206 58 L206 61 L206 64 L206 65 L204 66 L202 68 L201 68 L198 69 L197 69 L196 69 L193 67 L192 66 L191 64 L190 61 L189 59 L189 58 L189 57 L190 57 " fill="none" stroke="black" /></svg>