<?xml version="1.0" encoding="utf-8" ?>
<svg baseProfile="tiny" height="259" version="1.2" viewBox="-3 -3 539 259" width="539" xmlns="http://www.w3.org/2000/svg" xmlns:ev="http://www.w3.org/2001/xml-events" xmlns:xlink="http://www.w3.org/1999/xlink"><defs /><path d="M0 91 L2 103 L3 119 L5 125 L9 126 L21 119 L32 111 L37 110 L39 112 L42 119 L47 128 L49 130 L54 126 L67 116 L77 112 L79 113 L84 123 L93 134 L96 135 L103 129 L114 122 L122 121 L127 126 L135 134 L140 138 L148 133 L164 122 L178 115 L182 119 L189 133 L195 141 L203 140 L220 127 L232 122 L240 130 L251 143 L266 143 L282 131 L286 128 L288 140 L291 157 L293 162 L293 161 L293 160 L289 171 L278 181 L266 178 L244 161 L221 151 L199 159 L181 180 L169 185 L159 175 L143 165 L119 179 L92 203 L85 205 L77 190 L65 180 L49 193 L34 211 L33 212 L29 195 L25 186 L22 197 L19 216 L18 219 L21 218 L26 217 L37 232 L54 251 L82 254 L116 243 L143 242 L153 252 L157 259 L166 255 L187 241 L196 238 L198 247 L201 253 L211 248 L224 237 L227 237 L234 251 L241 257 L256 250 L276 235 L297 226 L307 228 L315 241 L319 246 L323 239 L331 220 L333 214 L334 218 L336 222 L341 210 L347 184 L349 169 L349 171 L349 182 L349 178 L350 152 L345 124 L341 116 L340 120 L339 126 L338 123 L332 106 L325 96 L324 98 L320 109 L319 110 L316 89 L300 45 L286 23 L284 31 L280 52 L279 55 L279 42 L280 23 L286 16 L299 23 L325 42 L337 49 L347 37 L361 11 L368 4 L372 11 L384 27 L396 30 L408 16 L415 5 L424 24 L440 61 L449 68 L475 34 L492 0 L494 2 L499 25 L506 36 L507 36 L509 34 L514 44 L531 80 L534 88 L536 83 L539 73 " fill="none" stroke="black" /></svg>