<?xml version="1.0" encoding="utf-8" ?>
<svg baseProfile="tiny" height="204" version="1.2" viewBox="-3 -3 371 204" width="371" xmlns="http://www.w3.org/2000/svg" xmlns:ev="http://www.w3.org/2001/xml-events" xmlns:xlink="http://www.w3.org/1999/xlink"><defs /><path d="M0 135 L0 129 L0 124 L0 118 L0 109 L0 98 L1 89 L2 88 L2 90 L8 108 L14 122 L14 120 L18 86 L21 56 L21 55 L25 71 L29 81 L31 79 L38 59 L40 54 L44 67 L46 71 L52 54 L57 39 L58 42 L58 41 L60 32 L61 31 L68 45 L72 51 L73 48 L74 41 L74 51 L76 82 L78 88 L84 79 L85 77 L89 94 L95 112 L95 114 L95 123 L94 136 L93 146 L93 165 L93 182 L94 182 L97 197 L101 204 L103 203 L107 198 L109 197 L114 189 L122 173 L124 165 L125 164 L130 148 L134 130 L135 130 L140 137 L144 130 L151 111 L152 106 L153 108 L154 108 L159 89 L164 66 L165 65 L168 77 L171 74 L177 52 L178 43 L180 51 L186 60 L195 45 L206 22 L208 21 L212 44 L218 61 L221 68 L221 78 L219 93 L219 102 L220 108 L220 114 L220 125 L219 138 L217 160 L216 165 L215 177 L214 191 L215 191 L218 190 L219 190 L222 179 L232 153 L241 124 L244 111 L244 103 L244 84 L244 81 L247 99 L247 101 L249 87 L250 71 L250 70 L251 70 L256 59 L272 18 L279 0 L280 7 L282 20 L283 17 L287 6 L287 7 L291 26 L293 29 L299 18 L302 14 L302 16 L304 33 L306 51 L306 52 L306 58 L304 86 L302 108 L302 109 L303 126 L305 143 L307 149 L309 153 L311 163 L312 168 L313 168 L317 161 L320 157 L321 157 L322 158 L324 159 L335 139 L350 107 L361 81 L363 74 L363 75 L363 77 L363 63 L365 38 L366 35 L367 48 L368 50 L371 37 " fill="none" stroke="black" /></svg>