<?xml version="1.0" encoding="utf-8" ?>
<svg baseProfile="tiny" height="242" version="1.2" viewBox="-3 -3 300 242" width="300" xmlns="http://www.w3.org/2000/svg" xmlns:ev="http://www.w3.org/2001/xml-events" xmlns:xlink="http://www.w3.org/1999/xlink"><defs /><path d="M89 49 L77 50 L62 57 L48 71 L34 95 L36 118 L52 137 L75 151 L103 170 L121 190 L127 205 L130 227 L128 240 L119 242 " fill="none" stroke="black" /><path d="M89 49 L77 50 L62 57 L48 71 L34 95 L36 118 L52 137 L75 151 L103 170 L121 190 L127 205 L130 227 L128 240 L119 242 M152 66 L147 70 L139 82 L130 96 L125 113 L126 129 L133 141 L140 149 L149 161 L160 177 L172 196 L173 205 L171 211 L164 221 " fill="none" stroke="black" /><path d="M89 49 L77 50 L62 57 L48 71 L34 95 L36 118 L52 137 L75 151 L103 170 L121 190 L127 205 L130 227 L128 240 L119 242 M152 66 L147 70 L139 82 L130 96 L125 113 L126 129 L133 141 L140 149 L149 161 L160 177 L172 196 L173 205 L171 211 L164 221 M188 62 L184 67 L174 81 L170 100 L177 128 L191 150 L199 161 L204 173 L206 189 L206 206 L203 218 " fill="none" stroke="black" /><path d="M89 49 L77 50 L62 57 L48 71 L34 95 L36 118 L52 137 L75 151 L103 170 L121 190 L127 205 L130 227 L128 240 L119 242 M152 66 L147 70 L139 82 L130 96 L125 113 L126 129 L133 141 L140 149 L149 161 L160 177 L172 196 L173 205 L171 211 L164 221 M188 62 L184 67 L174 81 L170 100 L177 128 L191 150 L199 161 L204 173 L206 189 L206 206 L203 218 M234 65 L228 73 L223 85 L223 106 L228 131 L236 155 L245 177 L246 189 L244 197 L238 208 " fill="none" stroke="black" /><path d="M89 49 L77 50 L62 57 L48 71 L34 95 L36 118 L52 137 L75 151 L103 170 L121 190 L127 205 L130 227 L128 240 L119 242 M152 66 L147 70 L139 82 L130 96 L125 113 L126 129 L133 141 L140 149 L149 161 L160 177 L172 196 L173 205 L171 211 L164 221 M188 62 L184 67 L174 81 L170 100 L177 128 L191 150 L199 161 L204 173 L206 189 L206 206 L203 218 M234 65 L228 73 L223 85 L223 106 L228 131 L236 155 L245 177 L246 189 L244 197 L238 208 M87 0 L92 4 L102 12 L108 16 L115 15 L129 10 L145 11 L161 23 L177 31 L191 29 L203 23 L213 22 L221 27 L228 33 L232 35 L240 31 L254 26 L264 27 L270 33 L276 37 L281 37 L284 35 L286 36 L291 44 " fill="none" stroke="black" /><path d="M89 49 L77 50 L62 57 L48 71 L34 95 L36 118 L52 137 L75 151 L103 170 L121 190 L127 205 L130 227 L128 240 L119 242 M152 66 L147 70 L139 82 L130 96 L125 113 L126 129 L133 141 L140 149 L149 161 L160 177 L172 196 L173 205 L171 211 L164 221 M188 62 L184 67 L174 81 L170 100 L177 128 L191 150 L199 161 L204 173 L206 189 L206 206 L203 218 M234 65 L228 73 L223 85 L223 106 L228 131 L236 155 L245 177 L246 189 L244 197 L238 208 M87 0 L92 4 L102 12 L108 16 L115 15 L129 10 L145 11 L161 23 L177 31 L191 29 L203 23 L213 22 L221 27 L228 33 L232 35 L240 31 L254 26 L264 27 L270 33 L276 37 L281 37 L284 35 L286 36 L291 44 M22 57 L11 68 L2 78 L0 94 L13 116 L32 134 L38 145 L38 154 L43 173 L50 189 L52 203 L63 226 L68 235 L68 237 L69 242 " fill="none" stroke="black" /><path d="M89 49 L77 50 L62 57 L48 71 L34 95 L36 118 L52 137 L75 151 L103 170 L121 190 L127 205 L130 227 L128 240 L119 242 M152 66 L147 70 L139 82 L130 96 L125 113 L126 129 L133 141 L140 149 L149 161 L160 177 L172 196 L173 205 L171 211 L164 221 M188 62 L184 67 L174 81 L170 100 L177 128 L191 150 L199 161 L204 173 L206 189 L206 206 L203 218 M234 65 L228 73 L223 85 L223 106 L228 131 L236 155 L245 177 L246 189 L244 197 L238 208 M87 0 L92 4 L102 12 L108 16 L115 15 L129 10 L145 11 L161 23 L177 31 L191 29 L203 23 L213 22 L221 27 L228 33 L232 35 L240 31 L254 26 L264 27 L270 33 L276 37 L281 37 L284 35 L286 36 L291 44 M22 57 L11 68 L2 78 L0 94 L13 116 L32 134 L38 145 L38 154 L43 173 L50 189 L52 203 L63 226 L68 235 L68 237 L69 242 M300 88 L293 94 L288 103 L288 120 L296 143 L300 157 L300 169 L300 187 L300 203 L298 218 L295 232 L292 240 " fill="none" stroke="black" /></svg>