<?xml version="1.0" encoding="utf-8" ?>
<svg baseProfile="tiny" height="227" version="1.2" viewBox="-3 -3 193 227" width="193" xmlns="http://www.w3.org/2000/svg" xmlns:ev="http://www.w3.org/2001/xml-events" xmlns:xlink="http://www.w3.org/1999/xlink"><defs /><path d="M2 135 L2 130 L1 126 L1 123 L0 121 L0 117 L0 112 L0 106 L0 102 L0 97 L0 91 L1 85 L1 78 L1 71 L2 63 L3 55 L5 48 L7 41 L10 35 L15 30 L19 25 L26 19 L35 13 L42 9 L49 6 L60 3 L73 1 L85 0 L94 0 L103 3 L111 6 L121 11 L132 17 L141 23 L146 27 L150 31 L155 36 L158 41 L162 47 L166 54 L170 61 L174 70 L178 80 L182 89 L184 95 L186 101 L188 109 L189 120 L191 130 L192 140 L193 150 L193 157 L193 163 L191 169 L189 177 L185 184 L180 192 L174 199 L165 206 L155 212 L145 218 L136 222 L129 224 L120 226 L110 227 L99 227 L90 227 L84 227 L81 227 L79 226 L75 225 L72 224 L68 220 L61 213 L54 204 L47 192 L43 183 L39 175 L36 168 L34 161 L31 153 L29 145 L27 136 L26 127 L25 118 L24 109 L24 101 L24 94 L25 87 L27 81 L29 77 L32 73 L36 70 L39 67 L45 65 L51 62 L60 60 L71 59 L77 59 L87 62 L102 66 L111 71 L120 77 L128 84 L133 93 L139 103 L143 115 L146 125 L148 135 L149 144 L149 151 L149 156 L147 160 L143 165 L139 168 L136 171 L132 174 L129 175 L126 176 L122 176 L117 176 L106 174 L99 172 L94 169 L90 167 L85 163 L83 160 L80 154 L77 144 L74 136 L73 127 L73 122 L74 118 L77 114 L80 111 L86 107 L87 106 L88 107 L91 109 L94 113 L97 117 L100 121 L102 125 L104 128 L106 131 L106 134 L107 137 L108 140 L108 143 L109 145 " fill="none" stroke="black" /></svg>