<?xml version="1.0" encoding="utf-8" ?>
<svg baseProfile="tiny" height="146" version="1.2" viewBox="-3 -3 429 146" width="429" xmlns="http://www.w3.org/2000/svg" xmlns:ev="http://www.w3.org/2001/xml-events" xmlns:xlink="http://www.w3.org/1999/xlink"><defs /><path d="M10 34 L4 41 L1 44 L0 45 L1 46 L12 46 L40 44 L74 41 L89 41 L91 41 L91 44 L88 49 L79 56 L65 65 L53 75 L50 78 L54 79 L66 79 L91 78 L133 76 L169 75 L173 75 L170 77 L163 85 L151 91 L141 97 L140 99 L148 101 L175 102 L218 102 L255 102 L263 101 L262 104 L253 111 L241 119 L238 120 L250 121 L281 123 L309 125 L311 126 L307 130 L305 132 L309 136 L318 139 L325 142 L326 143 L323 145 L322 146 L321 146 " fill="none" stroke="black" /><path d="M10 34 L4 41 L1 44 L0 45 L1 46 L12 46 L40 44 L74 41 L89 41 L91 41 L91 44 L88 49 L79 56 L65 65 L53 75 L50 78 L54 79 L66 79 L91 78 L133 76 L169 75 L173 75 L170 77 L163 85 L151 91 L141 97 L140 99 L148 101 L175 102 L218 102 L255 102 L263 101 L262 104 L253 111 L241 119 L238 120 L250 121 L281 123 L309 125 L311 126 L307 130 L305 132 L309 136 L318 139 L325 142 L326 143 L323 145 L322 146 L321 146 M158 25 L155 27 L149 32 L144 37 L144 40 L153 45 L175 49 L200 54 L210 57 L210 58 L210 60 L211 63 L227 71 L253 79 L264 82 L261 84 L259 86 L268 88 L299 90 L335 91 L352 92 L353 92 L353 93 L355 97 L359 100 L359 103 L356 107 L354 110 " fill="none" stroke="black" /><path d="M10 34 L4 41 L1 44 L0 45 L1 46 L12 46 L40 44 L74 41 L89 41 L91 41 L91 44 L88 49 L79 56 L65 65 L53 75 L50 78 L54 79 L66 79 L91 78 L133 76 L169 75 L173 75 L170 77 L163 85 L151 91 L141 97 L140 99 L148 101 L175 102 L218 102 L255 102 L263 101 L262 104 L253 111 L241 119 L238 120 L250 121 L281 123 L309 125 L311 126 L307 130 L305 132 L309 136 L318 139 L325 142 L326 143 L323 145 L322 146 L321 146 M158 25 L155 27 L149 32 L144 37 L144 40 L153 45 L175 49 L200 54 L210 57 L210 58 L210 60 L211 63 L227 71 L253 79 L264 82 L261 84 L259 86 L268 88 L299 90 L335 91 L352 92 L353 92 L353 93 L355 97 L359 100 L359 103 L356 107 L354 110 M262 0 L253 8 L249 14 L250 17 L264 22 L289 28 L312 34 L314 38 L307 45 L306 50 L316 56 L332 62 L335 63 L335 65 L339 67 L362 72 L405 75 L428 77 L429 77 L429 78 L427 80 " fill="none" stroke="black" /></svg>