<?xml version="1.0" encoding="utf-8" ?>
<svg baseProfile="tiny" height="261" version="1.2" viewBox="-3 -3 355 261" width="355" xmlns="http://www.w3.org/2000/svg" xmlns:ev="http://www.w3.org/2001/xml-events" xmlns:xlink="http://www.w3.org/1999/xlink"><defs /><path d="M49 0 L48 1 L45 4 L36 11 L27 19 L19 27 L11 34 L6 43 L3 50 L1 54 L0 61 L0 67 L0 70 L3 76 L9 81 L13 82 L19 82 L27 81 L36 78 L46 70 L52 64 L55 61 L60 57 L65 53 L70 49 L77 45 L86 41 L98 37 L113 35 L130 35 L144 36 L148 39 L151 45 L154 51 L154 57 L153 63 L147 69 L141 75 L134 80 L128 84 L123 88 L120 89 L118 91 L114 94 L108 96 L101 100 L95 104 L92 106 L90 109 L88 113 L87 116 L87 119 L89 123 L91 126 L93 128 L98 129 L107 129 L120 125 L133 121 L142 117 L152 111 L163 105 L172 101 L184 96 L198 92 L212 90 L228 92 L240 94 L242 97 L245 101 L246 108 L246 113 L245 119 L242 125 L234 131 L222 138 L207 145 L196 150 L191 153 L185 158 L178 167 L173 176 L171 189 L171 198 L173 202 L174 202 L181 200 L196 194 L216 186 L236 179 L252 173 L268 167 L286 162 L301 160 L315 159 L329 162 L343 167 L350 172 L352 176 L353 183 L353 188 L350 191 L333 198 L311 206 L297 213 L290 218 L283 227 L278 235 L277 241 L279 248 L282 253 L288 258 L294 261 L301 259 L321 252 L344 248 L354 245 L355 245 " fill="none" stroke="black" /></svg>