<?xml version="1.0" encoding="utf-8" ?>
<svg baseProfile="tiny" height="135" version="1.2" viewBox="-3 -3 342 135" width="342" xmlns="http://www.w3.org/2000/svg" xmlns:ev="http://www.w3.org/2001/xml-events" xmlns:xlink="http://www.w3.org/1999/xlink"><defs /><path d="M0 70 L2 65 L4 61 L6 54 L8 49 L10 44 L11 41 L13 36 L15 31 L17 28 L18 26 L19 24 L21 22 L22 20 L23 18 L25 16 L28 13 L32 9 L35 6 L36 6 L37 5 L40 4 L43 2 L46 1 L49 1 L53 1 L58 0 L63 0 L68 1 L71 3 L73 3 L77 5 L82 7 L86 9 L90 11 L92 14 L94 16 L97 20 L100 24 L103 29 L106 34 L108 37 L109 42 L111 46 L113 51 L114 54 L115 57 L116 61 L117 65 L118 69 L120 74 L123 84 L127 92 L129 97 L130 100 L131 104 L133 108 L135 113 L137 116 L137 118 L138 119 L139 120 L140 123 L143 126 L145 128 L147 130 L149 131 L151 133 L154 135 L156 135 L158 135 L159 135 L161 134 L163 132 L166 130 L169 127 L171 125 L173 121 L175 117 L177 113 L179 109 L180 104 L182 98 L185 93 L187 87 L189 81 L191 77 L192 72 L194 67 L196 62 L198 57 L200 54 L201 51 L203 49 L205 46 L207 43 L209 40 L211 38 L214 33 L217 29 L220 27 L222 25 L223 24 L225 23 L227 21 L230 20 L232 20 L234 19 L238 19 L242 19 L247 19 L251 20 L256 23 L262 26 L266 29 L271 33 L276 37 L280 41 L283 45 L286 51 L288 56 L290 60 L291 65 L294 70 L296 77 L299 84 L301 89 L303 93 L305 97 L307 101 L309 106 L311 109 L312 112 L313 114 L314 116 L315 118 L317 119 L318 120 L319 121 L320 122 L321 123 L323 124 L326 126 L330 128 L334 129 L336 130 L338 130 L340 130 L341 130 L342 130 " fill="none" stroke="black" /></svg>