<?xml version="1.0" encoding="utf-8" ?>
<svg baseProfile="tiny" height="286" version="1.2" viewBox="-3 -3 535 286" width="535" xmlns="http://www.w3.org/2000/svg" xmlns:ev="http://www.w3.org/2001/xml-events" xmlns:xlink="http://www.w3.org/1999/xlink"><defs /><path d="M0 140 L4 145 L9 152 L15 157 L19 159 L23 158 L29 155 L34 152 L39 146 L43 139 L45 133 L46 127 L46 122 L46 116 L47 108 L46 99 L46 91 L44 81 L44 71 L43 61 L43 55 L43 51 L43 47 L43 44 L43 39 L44 34 L46 28 L49 21 L53 15 L56 11 L61 6 L67 2 L71 0 L75 0 L82 3 L90 11 L98 23 L104 35 L108 51 L112 67 L113 78 L113 89 L113 97 L113 104 L113 110 L113 117 L112 124 L111 131 L111 138 L111 144 L112 151 L113 160 L115 167 L116 170 L118 175 L120 182 L121 185 L123 189 L126 194 L129 198 L131 200 L134 202 L138 204 L141 205 L145 206 L150 206 L156 206 L161 205 L164 203 L167 202 L169 200 L172 196 L174 193 L176 189 L179 179 L182 166 L186 153 L189 138 L192 124 L196 118 L202 114 L209 112 L215 113 L219 119 L225 135 L229 153 L229 168 L229 185 L229 203 L231 220 L235 231 L239 238 L242 242 L247 247 L251 249 L254 248 L258 243 L263 231 L268 217 L272 204 L275 193 L277 184 L279 177 L280 172 L282 166 L284 160 L287 156 L292 152 L298 151 L307 152 L319 157 L326 166 L330 180 L333 196 L334 213 L333 232 L332 242 L332 251 L333 258 L336 262 L344 268 L353 269 L362 265 L368 258 L375 247 L381 232 L384 213 L387 197 L387 185 L388 180 L389 178 L396 178 L434 187 L462 198 L467 206 L468 216 L468 228 L467 239 L465 251 L463 263 L466 275 L470 282 L473 285 L486 286 L513 283 L530 273 L534 261 L535 246 L535 228 L534 220 " fill="none" stroke="black" /></svg>