<?xml version="1.0" encoding="utf-8" ?>
<svg baseProfile="tiny" height="222" version="1.2" viewBox="-3 -3 167 222" width="167" xmlns="http://www.w3.org/2000/svg" xmlns:ev="http://www.w3.org/2001/xml-events" xmlns:xlink="http://www.w3.org/1999/xlink"><defs /><path d="M104 123 L101 119 L95 117 L91 116 L88 116 L84 119 L81 123 L78 129 L77 134 L77 139 L78 141 L81 143 L85 143 L86 142 L90 139 L95 134 L96 131 L97 128 L97 127 " fill="none" stroke="black" /><path d="M104 123 L101 119 L95 117 L91 116 L88 116 L84 119 L81 123 L78 129 L77 134 L77 139 L78 141 L81 143 L85 143 L86 142 L90 139 L95 134 L96 131 L97 128 L97 127 M58 91 L59 91 " fill="none" stroke="black" /><circle cx="107" cy="93" fill="black" r="1" /><path d="M104 123 L101 119 L95 117 L91 116 L88 116 L84 119 L81 123 L78 129 L77 134 L77 139 L78 141 L81 143 L85 143 L86 142 L90 139 L95 134 L96 131 L97 128 L97 127 M58 91 L59 91 M125 129 L126 132 L128 136 L130 138 L135 140 L138 140 L141 138 L143 133 L144 129 L144 122 L145 117 L146 115 L147 113 L149 108 L151 102 L154 96 L155 90 L155 86 L154 83 L149 78 L142 71 L134 66 L126 61 L125 61 L122 59 L114 54 L99 51 L95 51 L93 48 L86 40 L80 36 L79 35 L77 37 L76 37 L74 37 L66 50 L60 66 L59 67 L57 64 L51 63 L45 69 L36 87 L31 95 L27 95 L22 95 L16 101 L11 116 L11 120 L10 125 L14 141 L25 157 L55 178 L61 185 L62 187 L63 188 L65 185 L70 178 L83 185 L100 199 L110 194 L126 177 L134 171 L138 175 L144 171 L153 155 L154 148 L155 148 L159 138 L164 121 L165 117 L165 116 L167 97 L165 76 L165 74 L164 70 L157 60 L149 53 L138 49 L131 42 L125 34 L119 31 L117 27 L108 11 L95 1 L89 0 L87 1 L86 1 L80 1 L62 17 L49 28 L48 28 L41 21 L30 27 L19 36 L19 37 L14 46 L8 66 L6 77 L6 79 L6 83 L5 100 L8 121 L9 130 L7 132 L1 144 L0 152 L1 153 L2 157 L9 173 L20 182 L26 183 L27 184 L33 200 L38 206 L44 204 L47 203 L54 211 L67 218 L91 222 L96 222 " fill="none" stroke="black" /></svg>