<?xml version="1.0" encoding="utf-8" ?>
<svg baseProfile="tiny" height="122" version="1.2" viewBox="-3 -3 104 122" width="104" xmlns="http://www.w3.org/2000/svg" xmlns:ev="http://www.w3.org/2001/xml-events" xmlns:xlink="http://www.w3.org/1999/xlink"><defs /><path d="M74 3 L74 2 L73 1 L70 0 L63 0 L54 0 L44 1 L34 3 L27 6 L22 8 L17 13 L12 19 L8 26 L5 32 L3 41 L1 53 L0 62 L0 70 L0 76 L1 81 L2 87 L4 92 L6 97 L9 103 L12 107 L16 111 L20 115 L26 117 L36 120 L49 122 L53 122 L57 122 L62 121 L66 120 L72 118 L81 115 L88 112 L92 109 L97 104 L100 99 L102 93 L104 84 L104 74 L104 65 L103 59 L101 52 L98 47 L94 41 L91 37 L88 34 L85 31 L82 28 L78 25 L75 23 L72 22 L68 21 L64 21 L61 21 L56 23 L50 25 L46 27 L43 29 L40 32 L38 34 L37 36 L34 40 L33 43 L31 46 L30 50 L29 55 L28 60 L28 64 L28 68 L28 73 L28 76 L29 79 L30 81 L31 83 L33 85 L35 87 L38 89 L39 90 L40 91 L43 92 L46 93 L48 93 L50 93 L53 93 L55 93 L57 92 L59 92 L61 91 L63 89 L66 87 L68 85 L70 84 L72 81 L74 78 L75 75 L76 73 L77 71 L77 68 L77 66 L77 63 L77 62 L76 60 L75 58 L73 56 L71 55 L69 54 L67 54 L66 54 L65 54 L63 56 L61 57 L60 58 L59 60 L58 62 L57 64 L56 65 L56 68 L55 72 L55 74 " fill="none" stroke="black" /></svg>