<?xml version="1.0" encoding="utf-8" ?>
<svg baseProfile="tiny" height="217" version="1.2" viewBox="-3 -3 566 217" width="566" xmlns="http://www.w3.org/2000/svg" xmlns:ev="http://www.w3.org/2001/xml-events" xmlns:xlink="http://www.w3.org/1999/xlink"><defs /><path d="M0 188 L1 188 L4 187 L10 186 L18 187 L27 187 L31 187 L33 187 L37 188 L42 188 L48 188 L58 188 L75 190 L88 191 L94 191 L99 191 L107 193 L114 193 L119 193 L123 194 L134 195 L141 196 L148 197 L158 199 L173 200 L185 202 L192 202 L197 203 L204 203 L216 204 L225 204 L234 205 L253 207 L273 209 L287 210 L296 211 L314 213 L338 215 L352 216 L358 216 L370 217 L382 217 L389 217 L403 215 L421 213 L435 210 L446 208 L456 205 L470 202 L484 198 L497 194 L507 189 L516 185 L525 179 L534 172 L541 166 L546 159 L550 154 L554 148 L558 141 L561 134 L564 129 L565 125 L565 121 L566 115 L566 107 L566 97 L565 88 L564 82 L561 74 L555 61 L548 50 L540 41 L529 32 L518 24 L508 16 L498 10 L487 5 L474 2 L463 0 L449 0 L428 3 L407 8 L388 16 L372 25 L357 39 L345 55 L336 75 L332 97 L333 121 L338 143 L350 160 L369 169 L397 166 L430 155 L465 144 L473 136 L477 122 L479 105 L477 90 L475 87 L474 86 L472 85 L466 84 L460 84 L454 86 L450 88 L446 90 L442 95 L439 101 L439 102 " fill="none" stroke="black" /></svg>