<?xml version="1.0" encoding="utf-8" ?>
<svg baseProfile="tiny" height="291" version="1.2" viewBox="-3 -3 305 291" width="305" xmlns="http://www.w3.org/2000/svg" xmlns:ev="http://www.w3.org/2001/xml-events" xmlns:xlink="http://www.w3.org/1999/xlink"><defs /><path d="M0 153 L10 156 L20 158 L29 159 L38 160 L45 160 L51 161 L58 161 L67 162 L76 163 L83 164 L93 165 L101 165 L109 166 L118 167 L126 167 L133 167 L140 165 L146 163 L154 161 L159 157 L165 153 L170 148 L175 143 L181 136 L187 130 L192 122 L197 114 L199 106 L201 100 L202 94 L203 88 L204 82 L205 76 L205 70 L206 64 L206 57 L207 51 L208 43 L210 34 L214 26 L219 18 L224 12 L228 8 L235 4 L242 1 L249 1 L257 0 L263 2 L269 6 L278 13 L286 21 L291 30 L295 42 L299 53 L302 66 L304 80 L305 95 L305 105 L303 114 L301 121 L298 130 L293 139 L287 146 L280 153 L275 159 L268 165 L261 171 L253 177 L246 184 L239 188 L227 195 L215 200 L208 203 L201 204 L194 205 L181 206 L165 206 L151 207 L140 208 L128 209 L120 211 L112 214 L104 217 L96 221 L89 225 L83 229 L80 233 L77 237 L76 241 L75 247 L75 253 L76 259 L77 263 L79 266 L81 271 L84 274 L87 277 L91 280 L97 284 L102 285 L107 286 L114 289 L121 290 L127 291 L132 291 L138 291 L144 291 L151 290 L158 289 L165 286 L171 283 L176 281 L180 279 L184 276 L187 273 L190 270 L193 266 L196 261 L199 255 L203 249 L207 242 L211 237 L215 232 L220 227 L224 223 L229 221 L233 219 L236 218 L240 218 L243 218 L247 220 L253 225 L258 229 L263 232 L267 234 L270 235 L275 235 L280 235 L285 232 L291 228 L295 225 L298 221 L301 217 L302 214 L303 210 L303 207 L304 203 L304 201 " fill="none" stroke="black" /></svg>