<?xml version="1.0" encoding="utf-8" ?>
<svg baseProfile="tiny" height="241" version="1.2" viewBox="-3 -3 896 241" width="896" xmlns="http://www.w3.org/2000/svg" xmlns:ev="http://www.w3.org/2001/xml-events" xmlns:xlink="http://www.w3.org/1999/xlink"><defs /><path d="M194 166 L202 166 L227 167 L260 170 L303 175 L349 179 L356 179 L359 179 L368 179 L382 179 L403 180 L426 181 L449 182 L470 184 L489 186 L509 188 L532 190 L542 192 L543 192 L544 206 L546 217 L551 216 L574 192 L592 178 L598 187 L604 199 L616 190 L638 165 L641 161 L643 165 L647 162 L656 171 L680 197 L715 157 L755 106 L758 131 L770 200 L783 191 L807 154 L810 149 L817 164 L830 152 L855 115 L862 122 L887 196 L893 202 L896 182 L870 164 L841 181 L840 181 L809 140 L757 88 L727 74 L674 150 L661 179 L661 122 L620 65 L578 78 L542 106 L504 96 L455 54 L381 31 L294 94 L287 148 L315 130 L320 104 L308 123 L301 145 L304 131 L298 59 L266 2 L247 0 L244 68 L297 179 L459 218 L623 163 L642 80 L530 19 L378 46 L314 133 L356 228 L501 215 L606 124 L557 31 L358 27 L231 131 L303 225 L507 208 L598 142 L497 70 L277 67 L218 148 L392 221 L601 202 L565 138 L321 78 L45 93 L0 163 L183 213 L418 192 L434 148 L244 129 L113 178 L233 215 L518 218 L622 172 L442 116 L213 114 L266 160 L527 196 L642 189 L510 174 L438 188 L571 221 L701 241 L668 196 L539 116 L476 84 L483 85 L487 96 L484 102 " fill="none" stroke="black" /></svg>