<?xml version="1.0" encoding="utf-8" ?>
<svg baseProfile="tiny" height="131" version="1.2" viewBox="-3 -3 239 131" width="239" xmlns="http://www.w3.org/2000/svg" xmlns:ev="http://www.w3.org/2001/xml-events" xmlns:xlink="http://www.w3.org/1999/xlink"><defs /><path d="M0 107 L7 112 L17 118 L33 124 L55 127 L76 129 L95 130 L108 131 L121 130 L135 127 L147 124 L161 120 L174 117 L184 114 L192 111 L201 107 L208 104 L213 101 L218 98 L223 94 L227 90 L232 85 L235 79 L238 73 L239 69 L239 65 L239 59 L239 56 L239 52 L238 47 L235 42 L232 38 L229 33 L224 28 L215 21 L208 16 L202 13 L197 10 L193 8 L189 6 L186 5 L182 4 L172 2 L160 1 L152 0 L147 0 L138 0 L129 0 L124 0 L117 0 L109 3 L102 5 L95 7 L89 11 L84 14 L79 17 L75 21 L70 25 L64 29 L60 34 L56 38 L52 43 L49 47 L46 51 L44 55 L41 60 L40 64 L40 66 L39 68 L39 72 L39 76 L40 80 L41 84 L43 87 L45 90 L49 94 L56 98 L64 100 L69 100 L77 100 L86 100 L94 98 L100 97 L107 97 L115 96 L122 96 L129 95 L137 94 L145 94 L152 92 L158 91 L162 89 L165 87 L169 83 L175 77 L178 71 L180 66 L181 61 L181 56 L181 50 L179 46 L176 41 L173 38 L170 35 L165 33 L160 32 L155 31 L148 30 L142 30 L137 30 L132 30 L125 31 L119 33 L112 36 L105 39 L101 41 L97 44 L94 49 L93 53 L92 57 L92 62 L92 66 L93 68 L94 69 L95 69 L97 69 L99 69 L101 69 L105 70 L108 70 L112 71 L114 71 L115 71 L117 71 L121 72 L123 71 L127 69 L131 67 L135 64 L138 63 L139 61 L140 59 L141 58 L141 57 L141 56 L141 55 L140 54 L139 54 L138 54 " fill="none" stroke="black" /></svg>