<?xml version="1.0" encoding="utf-8" ?>
<svg baseProfile="tiny" height="139" version="1.2" viewBox="-3 -3 251 139" width="251" xmlns="http://www.w3.org/2000/svg" xmlns:ev="http://www.w3.org/2001/xml-events" xmlns:xlink="http://www.w3.org/1999/xlink"><defs /><path d="M37 35 L38 38 L38 39 L40 37 L41 36 L44 36 L49 40 L52 42 L55 43 L58 40 L67 32 L75 27 L80 27 L87 32 L96 41 L104 48 L107 50 L109 49 L115 44 L120 42 L125 42 L133 47 L144 52 L161 54 L185 53 L194 52 L194 59 L189 69 L176 79 L152 87 L122 92 L94 91 L79 84 L70 77 L64 75 L58 78 L51 85 L45 92 L41 95 L39 96 L40 95 L45 92 L53 94 L68 108 L78 121 L82 125 L89 126 L107 126 L130 124 L148 124 L154 130 L159 137 L162 139 L168 136 L179 128 L187 124 L191 123 L197 127 L205 130 L213 129 L225 119 L238 106 L243 97 L244 97 L248 87 L251 66 L251 50 L250 47 L250 45 L244 35 L234 26 L227 22 L225 22 L221 25 L218 26 L213 24 L199 12 L183 4 L176 5 L168 10 L161 12 L153 11 L135 5 L114 4 L100 8 L93 11 L90 10 L82 5 L66 0 L52 2 L43 8 L38 11 L35 9 L28 4 L16 3 L7 11 L3 18 L2 19 L1 23 L0 32 L1 39 L3 38 L5 37 L9 43 L17 53 L25 54 L33 44 L37 39 L38 40 L40 44 L44 43 L48 40 L51 42 L52 43 L55 40 L57 39 L63 43 " fill="none" stroke="black" /></svg>