<?xml version="1.0" encoding="utf-8" ?>
<svg baseProfile="tiny" height="121" version="1.2" viewBox="-3 -3 371 121" width="371" xmlns="http://www.w3.org/2000/svg" xmlns:ev="http://www.w3.org/2001/xml-events" xmlns:xlink="http://www.w3.org/1999/xlink"><defs /><path d="M6 117 L4 111 L2 105 L1 98 L0 93 L0 88 L0 85 L2 83 L8 79 L15 75 L25 73 L36 73 L48 74 L63 76 L87 81 L110 85 L125 88 L136 92 L147 95 L154 98 L158 99 L163 101 L170 103 L175 104 L186 107 L194 109 L200 110 L206 110 L214 111 L225 113 L231 114 L238 115 L245 118 L251 118 L255 119 L258 120 L262 120 L268 120 L278 121 L286 121 L290 121 L295 121 L302 120 L308 119 L312 117 L316 116 L319 114 L327 110 L333 106 L338 103 L342 100 L347 97 L350 95 L354 92 L359 89 L361 87 L363 85 L364 84 L365 83 L366 80 L367 78 L368 75 L369 71 L370 66 L370 61 L371 56 L371 52 L371 48 L371 46 L371 44 L371 40 L371 36 L370 33 L369 30 L368 27 L366 24 L364 21 L362 18 L359 17 L356 14 L351 12 L345 8 L340 6 L336 4 L331 3 L326 1 L322 0 L318 0 L314 0 L309 0 L302 2 L295 5 L289 8 L284 11 L279 14 L274 18 L269 23 L265 28 L262 34 L260 41 L259 48 L259 56 L260 64 L262 69 L265 72 L268 74 L271 76 L274 78 L277 78 L281 78 L285 77 L289 75 L292 74 L295 72 L297 71 L300 68 L304 65 L307 62 L309 60 L310 57 L311 53 L312 49 L312 45 L311 41 L310 38 L308 37 L307 36 L305 35 L304 35 L302 36 L299 38 L298 39 L296 41 L295 44 L294 48 L294 52 L294 56 L295 58 L295 59 L296 59 L297 59 L298 58 " fill="none" stroke="black" /></svg>