<?xml version="1.0" encoding="utf-8" ?>
<svg baseProfile="tiny" height="36" version="1.2" viewBox="-3 -3 832 36" width="832" xmlns="http://www.w3.org/2000/svg" xmlns:ev="http://www.w3.org/2001/xml-events" xmlns:xlink="http://www.w3.org/1999/xlink"><defs /><path d="M0 9 L1 9 L5 9 L10 10 L16 10 L21 10 L27 10 L38 10 L45 10 L52 10 L58 10 L64 10 L69 9 L76 9 L82 9 L87 9 L92 9 L98 9 L104 8 L110 7 L114 7 L119 7 L125 7 L130 6 L136 6 L146 6 L154 6 L164 7 L177 8 L196 9 L223 9 L244 9 L260 9 L275 9 L286 9 L296 9 L304 9 L311 9 L316 9 L321 9 L325 9 L329 9 L333 9 L340 9 L346 9 L352 9 L357 9 L362 9 L366 9 L371 9 L375 9 L379 10 L384 10 L390 10 L396 10 L400 10 L405 10 L409 10 L412 10 L416 9 L422 6 L428 4 L437 0 L443 0 L448 0 L452 0 L454 0 L458 3 L465 9 L472 15 L482 22 L491 26 L501 29 L509 31 L516 32 L523 31 L530 25 L539 20 L549 16 L557 14 L565 14 L569 14 L572 14 L574 16 L575 18 L577 19 L577 20 L581 20 L588 23 L597 25 L605 25 L614 25 L622 25 L633 21 L644 15 L657 10 L669 7 L684 7 L694 8 L703 13 L712 18 L723 22 L733 24 L746 25 L757 26 L768 30 L776 34 L790 36 L803 36 L812 36 L820 35 L825 35 L832 35 " fill="none" stroke="black" /></svg>