<?xml version="1.0" encoding="utf-8" ?>
<svg baseProfile="tiny" height="144" version="1.2" viewBox="-3 -3 891 144" width="891" xmlns="http://www.w3.org/2000/svg" xmlns:ev="http://www.w3.org/2001/xml-events" xmlns:xlink="http://www.w3.org/1999/xlink"><defs /><path d="M0 0 L0 2 L12 20 L32 49 L50 79 L63 103 L72 122 L76 131 L79 136 L81 138 L82 139 L83 141 L83 142 L84 143 L84 144 L85 144 L86 144 L86 143 L87 143 L87 141 L88 139 L88 138 L89 137 L91 134 L92 131 L94 126 L95 122 L97 117 L98 112 L102 105 L106 98 L110 92 L113 86 L116 81 L119 77 L121 75 L121 74 L122 73 L122 72 L121 73 L121 74 L122 79 L128 88 L136 98 L145 105 L159 109 L182 110 L196 101 L202 88 L203 78 L197 74 L192 76 L189 91 L189 103 L196 111 L217 114 L245 110 L261 97 L264 86 L258 84 L253 88 L253 99 L262 110 L302 118 L355 111 L386 91 L391 83 L389 83 L385 92 L383 107 L389 117 L422 124 L452 120 L463 104 L461 94 L447 94 L439 104 L439 115 L450 118 L473 114 L500 103 L516 91 L519 87 L514 92 L511 104 L517 111 L545 111 L577 101 L589 90 L588 82 L581 84 L580 97 L585 108 L599 112 L614 112 L626 101 L628 95 L624 94 L622 101 L622 111 L631 117 L661 119 L677 108 L680 96 L673 90 L665 93 L664 106 L687 126 L718 138 L747 141 L756 136 L760 125 L760 120 L760 119 L766 122 L785 123 L810 113 L820 102 L820 98 L810 102 L809 111 L812 115 L826 116 L840 104 L847 96 L847 94 L847 96 L847 100 L853 101 L863 99 L873 92 L875 90 L872 94 L871 99 L876 101 L886 102 L891 102 " fill="none" stroke="black" /></svg>