<?xml version="1.0" encoding="utf-8" ?>
<svg baseProfile="tiny" height="166" version="1.2" viewBox="-3 -3 657 166" width="657" xmlns="http://www.w3.org/2000/svg" xmlns:ev="http://www.w3.org/2001/xml-events" xmlns:xlink="http://www.w3.org/1999/xlink"><defs /><path d="M0 137 L0 134 L2 126 L7 116 L15 99 L22 81 L28 65 L33 51 L36 36 L39 28 L41 18 L43 13 L43 9 L43 6 L44 3 L44 1 L44 0 L45 0 L45 1 L45 5 L46 10 L46 17 L49 30 L55 41 L65 56 L76 74 L85 88 L92 100 L99 108 L102 113 L104 117 L106 120 L107 122 L108 123 L109 124 L110 126 L111 127 L111 128 L112 130 L112 132 L113 133 L114 133 L115 133 L117 130 L121 122 L125 114 L127 108 L133 98 L142 84 L153 64 L163 45 L167 34 L170 25 L173 17 L175 11 L176 8 L177 7 L177 8 L177 12 L177 17 L177 23 L177 28 L176 33 L176 38 L177 47 L179 55 L182 65 L186 74 L189 82 L195 96 L202 110 L213 125 L224 136 L236 144 L250 147 L268 149 L286 149 L296 145 L304 140 L310 134 L318 125 L329 114 L335 106 L337 103 L338 101 L338 99 L338 98 L336 96 L335 95 L333 94 L331 94 L329 93 L326 93 L323 93 L322 93 L320 93 L318 94 L316 96 L314 98 L312 100 L311 102 L311 106 L311 108 L311 111 L312 113 L314 117 L316 120 L318 122 L321 125 L328 127 L342 130 L369 132 L394 132 L415 132 L435 131 L454 124 L471 115 L485 102 L492 93 L494 90 L494 87 L494 86 L492 85 L489 85 L485 85 L482 85 L479 85 L477 86 L476 87 L475 89 L475 92 L475 95 L475 97 L476 99 L478 101 L479 101 L479 102 L485 113 L494 124 L507 136 L523 147 L542 158 L565 165 L585 166 L606 166 L628 160 L642 156 L650 155 L657 152 " fill="none" stroke="black" /></svg>