<?xml version="1.0" encoding="utf-8" ?>
<svg baseProfile="tiny" height="141" version="1.2" viewBox="-3 -3 278 141" width="278" xmlns="http://www.w3.org/2000/svg" xmlns:ev="http://www.w3.org/2001/xml-events" xmlns:xlink="http://www.w3.org/1999/xlink"><defs /><path d="M0 64 L2 68 L5 73 L8 79 L12 84 L15 88 L17 91 L18 93 L20 95 L21 96 L21 97 L22 98 L23 98 L24 98 L25 98 L26 96 L29 94 L33 88 L37 81 L41 75 L44 70 L47 67 L52 62 L55 60 L57 59 L58 59 L59 59 L60 62 L61 66 L63 71 L66 77 L71 84 L74 90 L78 95 L80 98 L81 100 L82 101 L83 102 L84 102 L85 100 L87 98 L89 95 L92 91 L94 87 L98 83 L101 80 L103 78 L105 75 L107 72 L109 70 L111 68 L112 67 L113 66 L113 67 L114 71 L116 78 L121 90 L125 95 L128 100 L129 102 L130 103 L132 105 L132 106 L133 107 L134 107 L135 105 L137 100 L137 96 L139 88 L141 78 L145 68 L150 55 L156 31 L162 15 L166 4 L168 1 L169 0 L169 7 L169 19 L171 37 L177 56 L181 76 L185 89 L188 100 L190 106 L191 113 L192 119 L193 122 L193 123 L194 123 L194 122 L195 120 L196 119 L196 117 L197 116 L197 113 L198 110 L199 107 L201 104 L202 98 L205 92 L207 88 L208 86 L210 85 L211 85 L211 88 L212 94 L213 99 L215 104 L218 109 L220 113 L223 118 L225 121 L226 123 L227 123 L227 122 L228 115 L228 106 L228 94 L230 81 L233 61 L236 46 L239 34 L241 26 L243 25 L244 25 L245 31 L245 37 L246 50 L249 72 L255 96 L259 109 L262 118 L265 125 L266 131 L268 136 L270 140 L270 141 L271 141 L271 138 L272 134 L273 131 L273 128 L273 126 L273 123 L274 119 L275 116 L277 113 L278 112 L278 110 " fill="none" stroke="black" /></svg>