<?xml version="1.0" encoding="utf-8" ?>
<svg baseProfile="tiny" height="95" version="1.2" viewBox="-3 -3 513 95" width="513" xmlns="http://www.w3.org/2000/svg" xmlns:ev="http://www.w3.org/2001/xml-events" xmlns:xlink="http://www.w3.org/1999/xlink"><defs /><path d="M0 58 L3 51 L7 44 L12 35 L17 30 L22 26 L27 23 L34 20 L41 19 L50 19 L59 19 L67 19 L77 22 L84 24 L92 28 L99 34 L102 39 L104 45 L104 52 L104 59 L104 63 L101 67 L97 70 L91 73 L86 74 L81 76 L76 76 L71 76 L70 75 L69 73 L68 70 L68 66 L67 60 L67 55 L67 48 L68 42 L71 36 L75 30 L82 23 L89 19 L98 14 L110 8 L123 6 L139 5 L153 5 L180 5 L206 8 L223 14 L240 20 L249 25 L257 31 L262 37 L264 42 L265 45 L265 47 L264 49 L261 52 L258 56 L256 58 L253 60 L251 62 L248 65 L244 66 L239 68 L235 68 L231 68 L226 67 L220 65 L216 62 L211 57 L208 51 L206 45 L206 39 L206 32 L207 27 L213 21 L220 14 L228 9 L236 4 L244 1 L255 0 L269 0 L288 1 L303 6 L318 13 L332 21 L340 27 L349 37 L355 47 L359 54 L361 60 L361 66 L361 71 L360 77 L357 81 L353 83 L350 85 L345 86 L340 86 L335 86 L331 83 L328 80 L326 77 L325 73 L324 68 L323 63 L323 56 L324 49 L326 42 L331 34 L337 26 L344 18 L355 10 L368 5 L382 3 L397 3 L413 3 L426 5 L451 17 L470 24 L483 31 L489 37 L493 44 L495 53 L495 62 L495 69 L495 76 L493 81 L491 86 L489 91 L484 94 L477 95 L469 95 L460 92 L454 87 L450 83 L446 76 L445 70 L444 62 L444 56 L444 50 L453 41 L465 35 L483 27 L496 21 L506 16 L510 14 L511 14 L512 14 L513 14 " fill="none" stroke="black" /></svg>