<?xml version="1.0" encoding="utf-8" ?>
<svg baseProfile="tiny" height="138" version="1.2" viewBox="-3 -3 664 138" width="664" xmlns="http://www.w3.org/2000/svg" xmlns:ev="http://www.w3.org/2001/xml-events" xmlns:xlink="http://www.w3.org/1999/xlink"><defs /><path d="M0 98 L2 98 L11 97 L23 91 L37 84 L52 75 L74 59 L91 46 L107 36 L120 28 L131 24 L144 22 L160 22 L173 26 L187 36 L200 48 L211 59 L222 70 L238 87 L250 99 L259 107 L271 116 L283 124 L298 132 L321 138 L342 138 L361 136 L377 131 L392 124 L412 113 L435 98 L454 85 L475 71 L494 59 L510 51 L527 46 L553 44 L571 44 L588 48 L602 52 L615 58 L628 64 L644 69 " fill="none" stroke="black" /><path d="M0 98 L2 98 L11 97 L23 91 L37 84 L52 75 L74 59 L91 46 L107 36 L120 28 L131 24 L144 22 L160 22 L173 26 L187 36 L200 48 L211 59 L222 70 L238 87 L250 99 L259 107 L271 116 L283 124 L298 132 L321 138 L342 138 L361 136 L377 131 L392 124 L412 113 L435 98 L454 85 L475 71 L494 59 L510 51 L527 46 L553 44 L571 44 L588 48 L602 52 L615 58 L628 64 L644 69 M96 60 L97 58 L100 50 L104 37 L107 28 L110 20 L114 13 L118 8 L121 7 L124 10 L130 21 L141 39 L155 60 L168 75 L178 84 L191 91 L205 91 L228 75 L246 59 L253 50 L257 43 L260 37 L261 36 L261 37 L262 50 L267 69 L277 94 L285 113 L293 131 L297 135 L299 136 L305 126 L310 108 L317 81 L325 51 L331 36 L334 34 L336 39 L338 55 L346 77 L354 95 L364 110 L370 116 L377 118 L383 110 L390 89 L400 62 L415 35 L425 25 L431 24 L437 39 L446 68 L451 82 L456 90 L461 95 L466 96 L470 93 L484 64 L506 26 L521 6 L528 0 L530 0 L531 13 L533 30 L541 56 L549 80 L554 97 L558 104 L561 104 L564 95 L567 83 L570 71 L576 59 L586 43 L595 31 L599 28 L600 28 L602 36 L604 45 L606 53 L609 60 L614 66 L616 67 L618 67 L621 63 L624 57 L628 49 L633 41 L639 32 L641 29 L642 29 L643 32 L644 39 L648 48 L653 55 L656 61 L659 67 L661 70 L663 71 L664 72 L663 72 " fill="none" stroke="black" /><path d="M0 98 L2 98 L11 97 L23 91 L37 84 L52 75 L74 59 L91 46 L107 36 L120 28 L131 24 L144 22 L160 22 L173 26 L187 36 L200 48 L211 59 L222 70 L238 87 L250 99 L259 107 L271 116 L283 124 L298 132 L321 138 L342 138 L361 136 L377 131 L392 124 L412 113 L435 98 L454 85 L475 71 L494 59 L510 51 L527 46 L553 44 L571 44 L588 48 L602 52 L615 58 L628 64 L644 69 M96 60 L97 58 L100 50 L104 37 L107 28 L110 20 L114 13 L118 8 L121 7 L124 10 L130 21 L141 39 L155 60 L168 75 L178 84 L191 91 L205 91 L228 75 L246 59 L253 50 L257 43 L260 37 L261 36 L261 37 L262 50 L267 69 L277 94 L285 113 L293 131 L297 135 L299 136 L305 126 L310 108 L317 81 L325 51 L331 36 L334 34 L336 39 L338 55 L346 77 L354 95 L364 110 L370 116 L377 118 L383 110 L390 89 L400 62 L415 35 L425 25 L431 24 L437 39 L446 68 L451 82 L456 90 L461 95 L466 96 L470 93 L484 64 L506 26 L521 6 L528 0 L530 0 L531 13 L533 30 L541 56 L549 80 L554 97 L558 104 L561 104 L564 95 L567 83 L570 71 L576 59 L586 43 L595 31 L599 28 L600 28 L602 36 L604 45 L606 53 L609 60 L614 66 L616 67 L618 67 L621 63 L624 57 L628 49 L633 41 L639 32 L641 29 L642 29 L643 32 L644 39 L648 48 L653 55 L656 61 L659 67 L661 70 L663 71 L664 72 L663 72 M98 55 L94 52 L83 37 L78 28 L78 26 " fill="none" stroke="black" /></svg>