<?xml version="1.0" encoding="utf-8" ?>
<svg baseProfile="tiny" height="308" version="1.2" viewBox="-3 -3 557 308" width="557" xmlns="http://www.w3.org/2000/svg" xmlns:ev="http://www.w3.org/2001/xml-events" xmlns:xlink="http://www.w3.org/1999/xlink"><defs /><path d="M0 308 L2 308 L6 305 L13 296 L22 284 L46 242 L82 181 L121 119 L143 81 L152 65 L156 59 L157 56 L157 55 L156 55 L155 55 L153 57 L150 58 L148 62 L148 72 L152 81 L166 86 L193 86 L211 70 L214 53 L200 48 L191 55 L191 66 L197 70 L213 57 L217 39 L214 38 L210 57 L210 67 L228 66 L243 51 L246 44 L238 63 L233 80 L233 84 L240 80 L244 57 L228 42 L209 44 L208 60 L226 66 L259 61 L278 41 L279 35 L265 57 L260 87 L267 95 L290 88 L301 70 L297 69 L288 91 L286 107 L300 106 L322 79 L327 62 L317 66 L306 90 L305 101 L329 85 L355 53 L360 32 L335 27 L287 75 L279 110 L287 122 L313 115 L326 91 L321 54 L266 23 L257 32 L264 38 L313 42 L362 42 L386 33 L369 19 L309 41 L267 98 L259 130 L264 134 L275 130 L264 108 L208 92 L169 102 L164 114 L174 116 L219 104 L261 62 L267 32 L258 27 L250 36 L251 45 L282 46 L343 45 L369 38 L376 32 L376 50 L384 66 L416 69 L426 60 L428 53 L422 52 L417 61 L417 66 L427 67 L436 62 L443 55 L440 52 L413 57 L392 84 L391 93 L401 94 L418 80 L426 63 L418 52 L394 51 L384 72 L388 84 L409 90 L437 84 L451 66 L444 57 L429 65 L428 83 L447 96 L490 97 L530 66 L557 14 L556 0 L542 18 L536 45 L540 51 L552 49 L557 36 L502 10 L346 7 L255 74 L229 141 L234 169 L281 171 L339 154 " fill="none" stroke="black" /></svg>