<?xml version="1.0" encoding="utf-8" ?>
<svg baseProfile="tiny" height="58" version="1.2" viewBox="-3 -3 403 58" width="403" xmlns="http://www.w3.org/2000/svg" xmlns:ev="http://www.w3.org/2001/xml-events" xmlns:xlink="http://www.w3.org/1999/xlink"><defs /><path d="M0 45 L3 44 L5 43 L8 42 L11 40 L13 38 L17 36 L20 34 L22 32 L24 29 L27 26 L30 23 L34 19 L37 17 L40 14 L43 11 L46 8 L50 6 L55 3 L58 1 L62 0 L67 0 L71 0 L75 0 L79 0 L82 2 L84 3 L87 5 L89 7 L90 9 L93 13 L95 17 L97 21 L99 25 L101 28 L103 31 L105 35 L108 38 L110 40 L111 42 L113 43 L115 45 L116 46 L119 47 L121 49 L123 49 L125 50 L129 50 L134 52 L138 53 L142 54 L147 54 L151 54 L156 54 L161 54 L166 52 L171 49 L176 47 L181 44 L185 42 L189 40 L194 37 L198 34 L202 31 L206 28 L210 26 L214 23 L219 20 L223 18 L226 16 L230 14 L234 13 L238 12 L241 11 L244 10 L247 10 L249 10 L253 10 L255 10 L258 10 L259 10 L260 11 L261 12 L262 13 L264 15 L265 16 L267 18 L268 20 L269 22 L270 23 L272 25 L273 28 L274 30 L276 32 L276 34 L277 36 L278 38 L280 41 L282 43 L283 44 L285 45 L287 47 L288 49 L290 51 L292 53 L294 55 L297 56 L299 57 L301 58 L305 58 L309 58 L315 58 L322 58 L328 58 L333 58 L339 56 L343 54 L346 52 L349 50 L351 49 L353 47 L356 45 L358 43 L360 40 L362 37 L365 35 L368 33 L371 31 L374 30 L377 29 L380 29 L383 28 L385 27 L388 26 L390 26 L392 26 L394 26 L396 26 L398 26 L399 26 L400 27 L401 28 L401 30 L401 32 L402 33 L402 35 L402 36 L402 38 L403 39 L403 40 " fill="none" stroke="black" /></svg>