<?xml version="1.0" encoding="utf-8" ?>
<svg baseProfile="tiny" height="181" version="1.2" viewBox="-3 -3 595 181" width="595" xmlns="http://www.w3.org/2000/svg" xmlns:ev="http://www.w3.org/2001/xml-events" xmlns:xlink="http://www.w3.org/1999/xlink"><defs /><path d="M0 158 L2 156 L8 148 L16 137 L26 118 L39 93 L50 69 L64 42 L74 25 L81 13 L87 5 L89 2 L90 0 L91 0 L92 0 L92 1 L92 4 L92 6 L92 9 L92 11 L92 15 L92 21 L92 31 L93 47 L100 72 L104 89 L108 105 L112 121 L116 137 L120 153 L124 167 L127 175 L129 178 L130 178 L130 176 L134 176 L139 174 L146 172 L152 169 L160 165 L168 160 L177 153 L187 146 L197 139 L207 130 L213 123 L217 118 L220 113 L220 109 L219 107 L215 107 L213 108 L212 113 L212 119 L211 123 L211 127 L211 132 L214 137 L221 143 L229 148 L241 154 L253 159 L270 164 L288 165 L302 165 L315 160 L327 152 L339 141 L348 130 L353 122 L355 114 L355 110 L355 109 L352 109 L349 109 L347 113 L345 118 L345 121 L345 123 L345 126 L346 129 L347 132 L349 135 L354 140 L359 147 L366 153 L377 160 L390 165 L407 169 L424 172 L444 173 L458 172 L470 165 L476 159 L481 151 L485 143 L487 137 L488 130 L488 125 L487 123 L485 121 L484 120 L483 120 L480 121 L477 125 L475 127 L474 130 L473 132 L473 134 L473 136 L475 139 L477 143 L482 148 L490 155 L500 162 L510 169 L521 177 L528 180 L536 181 L546 181 L557 175 L569 165 L576 153 L580 141 L582 132 L583 126 L583 123 L582 122 L579 122 L577 122 L575 123 L575 126 L575 127 L576 128 L577 129 L578 130 L580 134 L583 139 L585 145 L588 151 L591 156 L594 161 L595 164 L595 166 L595 168 L595 170 " fill="none" stroke="black" /></svg>