<?xml version="1.0" encoding="utf-8" ?>
<svg baseProfile="tiny" height="297" version="1.2" viewBox="-3 -3 358 297" width="358" xmlns="http://www.w3.org/2000/svg" xmlns:ev="http://www.w3.org/2001/xml-events" xmlns:xlink="http://www.w3.org/1999/xlink"><defs /><path d="M0 0 L0 2 L0 20 L0 35 L0 49 L0 63 L0 85 L0 106 L0 131 L1 151 L2 167 L4 182 L6 195 L9 210 L10 221 L12 232 L15 242 L16 251 L19 259 L21 270 L25 280 L28 285 L30 290 L34 293 L40 295 L46 296 L52 297 L57 297 L61 297 L65 295 L69 293 L72 290 L76 286 L79 280 L82 273 L85 265 L90 245 L97 223 L102 201 L104 190 L104 180 L105 173 L105 167 L105 160 L106 149 L106 143 L106 139 L108 134 L109 130 L111 125 L113 120 L116 114 L118 108 L120 104 L123 99 L127 91 L130 85 L133 82 L136 80 L140 78 L144 77 L149 77 L154 77 L156 78 L158 81 L159 83 L160 87 L160 92 L161 96 L162 100 L164 105 L165 112 L167 118 L168 125 L170 135 L172 146 L175 156 L177 166 L180 175 L182 184 L185 190 L187 195 L189 199 L191 201 L193 203 L196 204 L198 204 L201 203 L203 200 L206 198 L207 195 L209 193 L211 188 L214 183 L217 174 L222 158 L229 133 L237 112 L246 92 L251 84 L255 82 L257 81 L261 80 L264 80 L266 81 L268 84 L271 88 L273 93 L274 99 L276 105 L277 113 L278 123 L280 134 L282 143 L283 152 L285 159 L286 166 L288 173 L289 178 L289 182 L290 185 L290 186 L291 188 L292 189 L293 190 L294 191 L295 191 L296 192 L298 192 L299 192 L301 191 L303 187 L305 183 L307 177 L313 164 L322 136 L327 120 L330 111 L332 106 L334 103 L337 100 L340 100 L343 100 L347 102 L352 107 L355 110 L357 111 L358 112 " fill="none" stroke="black" /></svg>