<?xml version="1.0" encoding="utf-8" ?>
<svg baseProfile="tiny" height="68" version="1.2" viewBox="-3 -3 408 68" width="408" xmlns="http://www.w3.org/2000/svg" xmlns:ev="http://www.w3.org/2001/xml-events" xmlns:xlink="http://www.w3.org/1999/xlink"><defs /><path d="M0 45 L4 38 L8 33 L12 28 L17 22 L24 15 L30 9 L37 3 L40 1 L43 0 L44 0 L46 2 L48 6 L50 12 L53 18 L57 24 L60 30 L64 36 L67 42 L70 47 L74 52 L76 55 L78 56 L79 57 L81 57 L85 55 L92 48 L100 41 L107 35 L114 28 L119 22 L122 17 L124 15 L125 14 L127 13 L128 13 L129 13 L130 17 L132 24 L135 32 L138 39 L140 43 L142 45 L144 47 L146 49 L148 52 L149 54 L150 55 L151 55 L152 55 L153 54 L154 53 L155 52 L156 51 L158 49 L162 46 L166 43 L171 40 L175 36 L180 31 L185 26 L188 23 L189 22 L190 21 L188 20 L188 24 L190 31 L192 38 L195 46 L197 51 L201 58 L203 61 L206 65 L209 67 L212 68 L217 68 L221 68 L224 66 L228 64 L232 61 L235 58 L238 56 L242 53 L244 51 L246 49 L249 46 L251 43 L253 41 L257 38 L261 36 L267 36 L272 36 L278 36 L283 36 L289 36 L293 36 L297 36 L301 36 L304 36 L307 36 L310 36 L314 36 L317 36 L320 36 L323 36 L325 36 L328 36 L330 36 L332 36 L334 36 L336 36 L337 36 L339 36 L341 36 L342 36 L345 36 L348 37 L352 38 L357 39 L361 39 L364 40 L367 41 L371 41 L374 42 L378 42 L382 43 L384 43 L387 43 L389 43 L391 43 L393 43 L394 43 L396 42 L397 42 L399 42 L401 42 L403 42 L405 42 L406 42 L408 41 L408 37 " fill="none" stroke="black" /></svg>