<?xml version="1.0" encoding="utf-8" ?>
<svg baseProfile="tiny" height="222" version="1.2" viewBox="-3 -3 669 222" width="669" xmlns="http://www.w3.org/2000/svg" xmlns:ev="http://www.w3.org/2001/xml-events" xmlns:xlink="http://www.w3.org/1999/xlink"><defs /><path d="M47 159 L47 156 L47 148 L47 133 L47 117 L47 91 L49 72 L55 50 L61 32 L68 19 L79 9 L91 2 L102 0 L113 0 L121 0 L128 4 L134 11 L139 22 L144 34 L147 47 L151 59 L155 76 L159 92 L164 115 L169 134 L177 154 L183 169 L192 184 L201 194 L211 203 L221 209 L231 211 L244 211 L254 208 L261 204 L267 199 L271 193 L276 187 L281 178 L286 167 L293 150 L304 129 L313 114 L320 101 L328 86 L338 69 L350 50 L367 25 L382 10 L392 5 L404 3 L417 11 L429 23 L440 39 L448 57 L455 82 L459 109 L464 137 L470 165 L479 193 L487 207 L496 215 L507 220 L519 222 L532 220 L554 205 L575 182 L593 153 L603 131 L610 109 L614 94 L618 78 L619 69 L620 64 L620 62 " fill="none" stroke="black" /><path d="M47 159 L47 156 L47 148 L47 133 L47 117 L47 91 L49 72 L55 50 L61 32 L68 19 L79 9 L91 2 L102 0 L113 0 L121 0 L128 4 L134 11 L139 22 L144 34 L147 47 L151 59 L155 76 L159 92 L164 115 L169 134 L177 154 L183 169 L192 184 L201 194 L211 203 L221 209 L231 211 L244 211 L254 208 L261 204 L267 199 L271 193 L276 187 L281 178 L286 167 L293 150 L304 129 L313 114 L320 101 L328 86 L338 69 L350 50 L367 25 L382 10 L392 5 L404 3 L417 11 L429 23 L440 39 L448 57 L455 82 L459 109 L464 137 L470 165 L479 193 L487 207 L496 215 L507 220 L519 222 L532 220 L554 205 L575 182 L593 153 L603 131 L610 109 L614 94 L618 78 L619 69 L620 64 L620 62 M0 119 L1 119 L6 113 L17 100 L24 91 L31 85 L35 84 L37 86 L40 99 L47 115 L55 125 L65 135 L71 140 L77 142 L82 139 L90 125 L96 116 L102 110 L108 107 L113 107 L117 110 L130 122 L146 135 L167 146 L186 151 L202 151 L216 141 L228 128 L236 118 L240 115 L244 115 L249 121 L257 130 L275 144 L288 150 L305 152 L326 146 L349 130 L366 115 L377 110 L388 109 L396 113 L405 122 L416 131 L424 137 L429 140 L431 140 L431 137 L436 142 L458 160 L482 177 L501 183 L518 179 L541 158 L552 147 L558 143 L561 143 L564 151 L570 164 L577 176 L582 180 L590 180 L602 168 L615 158 L623 156 L627 158 L633 167 L638 170 L644 170 L651 163 L659 157 L665 155 L668 155 L669 155 L669 156 " fill="none" stroke="black" /></svg>