<?xml version="1.0" encoding="utf-8" ?>
<svg baseProfile="tiny" height="105" version="1.2" viewBox="-3 -3 403 105" width="403" xmlns="http://www.w3.org/2000/svg" xmlns:ev="http://www.w3.org/2001/xml-events" xmlns:xlink="http://www.w3.org/1999/xlink"><defs /><path d="M0 47 L0 45 L0 43 L1 42 L2 40 L3 39 L5 37 L7 35 L10 34 L12 32 L15 30 L17 28 L19 26 L21 24 L23 22 L24 22 L25 22 " fill="none" stroke="black" /><path d="M0 47 L0 45 L0 43 L1 42 L2 40 L3 39 L5 37 L7 35 L10 34 L12 32 L15 30 L17 28 L19 26 L21 24 L23 22 L24 22 L25 22 M35 16 L37 15 L39 14 L42 13 L45 11 L48 10 L51 9 L53 8 L54 8 L56 7 L57 7 L59 6 L58 6 " fill="none" stroke="black" /><path d="M0 47 L0 45 L0 43 L1 42 L2 40 L3 39 L5 37 L7 35 L10 34 L12 32 L15 30 L17 28 L19 26 L21 24 L23 22 L24 22 L25 22 M35 16 L37 15 L39 14 L42 13 L45 11 L48 10 L51 9 L53 8 L54 8 L56 7 L57 7 L59 6 L58 6 M84 1 L87 1 L95 1 L100 1 L106 1 L111 1 L113 2 L114 2 " fill="none" stroke="black" /><path d="M0 47 L0 45 L0 43 L1 42 L2 40 L3 39 L5 37 L7 35 L10 34 L12 32 L15 30 L17 28 L19 26 L21 24 L23 22 L24 22 L25 22 M35 16 L37 15 L39 14 L42 13 L45 11 L48 10 L51 9 L53 8 L54 8 L56 7 L57 7 L59 6 L58 6 M84 1 L87 1 L95 1 L100 1 L106 1 L111 1 L113 2 L114 2 M132 8 L133 8 L136 9 L140 11 L142 13 L145 15 L147 17 L149 19 L149 20 " fill="none" stroke="black" /><path d="M0 47 L0 45 L0 43 L1 42 L2 40 L3 39 L5 37 L7 35 L10 34 L12 32 L15 30 L17 28 L19 26 L21 24 L23 22 L24 22 L25 22 M35 16 L37 15 L39 14 L42 13 L45 11 L48 10 L51 9 L53 8 L54 8 L56 7 L57 7 L59 6 L58 6 M84 1 L87 1 L95 1 L100 1 L106 1 L111 1 L113 2 L114 2 M132 8 L133 8 L136 9 L140 11 L142 13 L145 15 L147 17 L149 19 L149 20 M156 27 L157 28 L159 30 L160 32 L162 36 L163 38 L164 40 L165 42 L165 43 " fill="none" stroke="black" /><path d="M0 47 L0 45 L0 43 L1 42 L2 40 L3 39 L5 37 L7 35 L10 34 L12 32 L15 30 L17 28 L19 26 L21 24 L23 22 L24 22 L25 22 M35 16 L37 15 L39 14 L42 13 L45 11 L48 10 L51 9 L53 8 L54 8 L56 7 L57 7 L59 6 L58 6 M84 1 L87 1 L95 1 L100 1 L106 1 L111 1 L113 2 L114 2 M132 8 L133 8 L136 9 L140 11 L142 13 L145 15 L147 17 L149 19 L149 20 M156 27 L157 28 L159 30 L160 32 L162 36 L163 38 L164 40 L165 42 L165 43 M168 54 L168 56 L168 59 L168 63 L169 67 L170 70 L171 72 L171 74 L172 76 " fill="none" stroke="black" /><path d="M0 47 L0 45 L0 43 L1 42 L2 40 L3 39 L5 37 L7 35 L10 34 L12 32 L15 30 L17 28 L19 26 L21 24 L23 22 L24 22 L25 22 M35 16 L37 15 L39 14 L42 13 L45 11 L48 10 L51 9 L53 8 L54 8 L56 7 L57 7 L59 6 L58 6 M84 1 L87 1 L95 1 L100 1 L106 1 L111 1 L113 2 L114 2 M132 8 L133 8 L136 9 L140 11 L142 13 L145 15 L147 17 L149 19 L149 20 M156 27 L157 28 L159 30 L160 32 L162 36 L163 38 L164 40 L165 42 L165 43 M168 54 L168 56 L168 59 L168 63 L169 67 L170 70 L171 72 L171 74 L172 76 M180 92 L179 92 L178 92 L177 93 L176 94 L176 95 L175 96 L175 97 L174 97 L174 98 L174 99 L175 99 L176 99 L177 99 L178 99 L180 99 L180 98 L181 98 L181 97 L181 96 L182 95 " fill="none" stroke="black" /><path d="M0 47 L0 45 L0 43 L1 42 L2 40 L3 39 L5 37 L7 35 L10 34 L12 32 L15 30 L17 28 L19 26 L21 24 L23 22 L24 22 L25 22 M35 16 L37 15 L39 14 L42 13 L45 11 L48 10 L51 9 L53 8 L54 8 L56 7 L57 7 L59 6 L58 6 M84 1 L87 1 L95 1 L100 1 L106 1 L111 1 L113 2 L114 2 M132 8 L133 8 L136 9 L140 11 L142 13 L145 15 L147 17 L149 19 L149 20 M156 27 L157 28 L159 30 L160 32 L162 36 L163 38 L164 40 L165 42 L165 43 M168 54 L168 56 L168 59 L168 63 L169 67 L170 70 L171 72 L171 74 L172 76 M180 92 L179 92 L178 92 L177 93 L176 94 L176 95 L175 96 L175 97 L174 97 L174 98 L174 99 L175 99 L176 99 L177 99 L178 99 L180 99 L180 98 L181 98 L181 97 L181 96 L182 95 M186 80 L188 73 L197 62 L206 48 L213 38 L221 26 L229 15 L236 7 L242 3 L247 1 L252 0 L256 0 L260 0 L264 1 L269 4 L273 8 L275 12 L276 16 L277 22 L277 28 L278 35 L279 42 L280 48 L281 57 L283 68 L284 75 L285 82 L287 88 L288 95 L290 99 L295 103 L299 104 L304 105 L309 105 L314 104 L318 100 L322 96 L325 91 L327 87 L329 82 L332 77 L335 70 L338 62 L341 54 L345 47 L349 40 L353 35 L358 29 L366 23 L372 20 L377 20 L382 20 L385 20 L388 21 L392 25 L394 29 L395 32 L397 36 L399 44 L401 52 L403 59 L403 62 L403 64 L403 65 " fill="none" stroke="black" /></svg>