<?xml version="1.0" encoding="utf-8" ?>
<svg baseProfile="tiny" height="110" version="1.2" viewBox="-3 -3 377 110" width="377" xmlns="http://www.w3.org/2000/svg" xmlns:ev="http://www.w3.org/2001/xml-events" xmlns:xlink="http://www.w3.org/1999/xlink"><defs /><path d="M0 101 L0 99 L1 85 L6 66 L17 40 L36 12 L53 1 L67 0 L82 20 L100 58 L112 88 L121 101 L133 104 L141 99 L147 93 L151 93 L154 94 L158 101 L161 105 L167 105 L176 99 L186 95 L190 95 L192 96 L194 98 L195 98 L197 97 L199 96 L200 96 L202 98 L205 100 L207 100 L209 98 L213 95 L216 95 L223 102 L227 106 L229 107 L232 104 L235 102 L236 102 L239 105 L241 108 L243 108 L245 107 L247 106 L249 106 L253 107 L256 109 L259 109 L262 107 L266 106 L270 106 L273 106 L278 105 L281 102 L284 100 L286 99 L289 99 L293 100 L298 100 L302 98 L305 98 L307 98 L311 101 L314 104 L317 104 L319 103 L322 101 L325 101 L331 104 L337 108 L344 110 L354 97 L361 86 L364 83 L367 83 L369 86 L372 88 L375 88 L376 88 L377 88 " fill="none" stroke="black" /></svg>