<?xml version="1.0" encoding="utf-8" ?>
<svg baseProfile="tiny" height="70" version="1.2" viewBox="-3 -3 450 70" width="450" xmlns="http://www.w3.org/2000/svg" xmlns:ev="http://www.w3.org/2001/xml-events" xmlns:xlink="http://www.w3.org/1999/xlink"><defs /><path d="M0 70 L5 69 L11 66 L18 63 L23 60 L28 56 L33 51 L38 45 L45 39 L49 34 L53 30 L56 26 L58 23 L60 19 L61 17 L62 15 L63 14 L64 12 L64 11 L64 10 L64 9 L63 9 L62 9 L61 10 L60 11 L60 12 L59 13 L59 14 L59 16 L59 17 L59 18 L59 19 L59 20 L59 21 L59 22 L60 23 L60 25 L61 27 L63 29 L65 31 L68 33 L71 36 L76 38 L79 41 L84 43 L88 45 L93 47 L98 48 L104 50 L110 51 L117 51 L123 51 L129 51 L136 51 L141 51 L150 51 L159 49 L168 46 L177 43 L189 38 L201 33 L210 28 L218 24 L225 19 L229 16 L231 14 L232 13 L232 11 L232 10 L231 10 L230 10 L229 10 L229 11 L228 11 L227 12 L227 13 L226 14 L226 15 L226 16 L226 17 L226 18 L226 19 L226 20 L226 21 L226 22 L226 23 L226 24 L226 25 L227 25 L228 26 L229 27 L230 28 L231 29 L233 31 L234 32 L236 33 L238 35 L241 36 L245 39 L250 41 L255 42 L260 44 L264 44 L270 45 L278 45 L283 45 L290 43 L297 41 L304 37 L311 33 L320 27 L328 22 L333 17 L338 13 L341 10 L343 7 L344 5 L345 3 L345 1 L345 0 L344 0 L344 2 L343 4 L342 6 L341 8 L340 10 L340 12 L340 13 L340 14 L340 16 L340 18 L340 21 L341 25 L342 30 L345 34 L349 38 L354 41 L360 43 L366 43 L374 43 L382 43 L390 43 L407 43 L424 43 L435 41 L441 38 L446 35 L448 34 L449 33 L450 33 " fill="none" stroke="black" /></svg>