<?xml version="1.0" encoding="utf-8" ?>
<svg baseProfile="tiny" height="210" version="1.2" viewBox="-3 -3 635 210" width="635" xmlns="http://www.w3.org/2000/svg" xmlns:ev="http://www.w3.org/2001/xml-events" xmlns:xlink="http://www.w3.org/1999/xlink"><defs /><path d="M18 42 L15 49 L5 81 L0 163 L22 190 L65 200 L99 182 L122 150 L126 119 L104 102 L77 103 L75 114 L79 122 L101 124 L137 114 L156 81 L159 48 L139 35 L123 39 L120 56 L124 73 L145 87 L195 86 L217 55 L222 22 L206 4 L181 0 L163 18 L152 68 L151 109 L162 136 L185 153 L216 157 L250 152 L281 131 L290 118 L292 114 L291 120 L284 136 L281 151 L281 159 L290 156 L303 133 L323 100 L343 69 L354 56 L357 55 L357 64 L357 80 L358 88 L363 94 L368 101 L374 108 L378 116 L382 122 L385 128 L387 132 L389 134 L393 133 L398 127 L404 119 L411 112 L422 99 L434 86 L442 79 L444 79 L445 82 L446 93 L448 108 L452 120 L455 129 L460 137 L464 140 L468 141 L474 138 L481 124 L490 102 L503 76 L511 62 L517 55 L520 55 L521 66 L521 90 L516 123 L512 164 L512 193 L516 205 L524 210 L540 208 L551 195 L562 176 L569 164 L576 152 L582 145 L586 145 L586 155 L586 161 L587 162 L595 160 L603 157 L607 159 L609 162 L613 164 L622 152 L631 138 L633 136 L634 138 L634 141 L635 141 " fill="none" stroke="black" /></svg>