<?xml version="1.0" encoding="utf-8" ?>
<svg baseProfile="tiny" height="127" version="1.2" viewBox="-3 -3 363 127" width="363" xmlns="http://www.w3.org/2000/svg" xmlns:ev="http://www.w3.org/2001/xml-events" xmlns:xlink="http://www.w3.org/1999/xlink"><defs /><path d="M0 88 L2 86 L4 83 L7 80 L10 76 L15 72 L21 66 L25 60 L28 56 L31 52 L34 49 L36 45 L40 40 L42 37 L45 32 L48 27 L52 23 L55 19 L60 14 L64 11 L68 8 L72 5 L75 4 L77 2 L80 1 L84 0 L88 0 L92 0 L96 0 L101 0 L106 1 L109 2 L112 4 L114 6 L116 9 L118 11 L120 13 L122 16 L124 19 L125 21 L127 23 L128 24 L129 26 L131 29 L132 31 L134 33 L135 35 L137 37 L138 40 L140 43 L141 45 L142 48 L144 51 L145 55 L146 60 L148 64 L149 67 L150 70 L151 72 L152 74 L154 76 L155 80 L157 82 L158 84 L159 87 L161 90 L162 92 L164 96 L165 99 L167 102 L169 105 L171 107 L173 110 L177 112 L180 114 L183 116 L185 118 L188 119 L190 121 L194 122 L196 124 L199 125 L202 125 L204 125 L206 126 L209 126 L211 126 L213 125 L215 124 L216 123 L218 122 L221 120 L223 118 L226 116 L229 113 L233 111 L236 108 L241 105 L244 102 L247 99 L251 96 L253 94 L257 91 L261 90 L265 89 L267 89 L270 89 L272 89 L274 91 L276 93 L279 95 L280 97 L282 99 L283 101 L285 104 L286 106 L288 109 L289 112 L291 116 L293 119 L295 121 L300 123 L303 124 L306 124 L309 125 L312 126 L315 126 L318 127 L319 127 L321 126 L322 124 L324 122 L326 121 L328 119 L330 117 L332 114 L334 112 L336 111 L338 110 L341 110 L342 109 L343 109 L345 109 L348 109 L350 109 L353 109 L356 110 L359 111 L361 112 L363 112 " fill="none" stroke="black" /></svg>