<?xml version="1.0" encoding="utf-8" ?>
<svg baseProfile="tiny" height="96" version="1.2" viewBox="-3 -3 605 96" width="605" xmlns="http://www.w3.org/2000/svg" xmlns:ev="http://www.w3.org/2001/xml-events" xmlns:xlink="http://www.w3.org/1999/xlink"><defs /><path d="M0 85 L8 82 L19 78 L28 74 L37 67 L47 56 L53 43 L59 31 L63 22 L65 16 L65 11 L60 8 L54 8 L49 8 L44 10 L42 14 L40 16 L40 19 L40 25 L40 29 L40 33 L40 38 L40 43 L40 48 L40 54 L42 59 L43 64 L46 69 L50 75 L55 81 L63 87 L72 91 L81 94 L93 96 L108 96 L125 96 L148 91 L169 84 L190 74 L202 65 L209 57 L217 43 L220 34 L221 25 L221 20 L221 16 L220 13 L217 11 L212 9 L208 8 L204 8 L201 8 L198 9 L195 11 L193 13 L191 16 L190 19 L188 22 L188 25 L187 29 L186 36 L185 46 L185 62 L185 77 L186 84 L189 87 L195 89 L207 92 L219 95 L236 95 L257 95 L275 95 L293 90 L303 83 L311 76 L318 68 L323 57 L327 47 L329 34 L330 24 L329 18 L326 14 L323 12 L319 12 L316 12 L313 13 L310 16 L307 19 L306 23 L304 27 L304 31 L304 34 L304 38 L304 42 L304 47 L306 52 L309 59 L317 66 L328 71 L344 75 L361 77 L378 77 L398 77 L415 74 L427 69 L440 63 L449 55 L456 48 L459 38 L463 20 L463 11 L462 5 L454 2 L445 0 L438 0 L431 1 L429 4 L428 8 L427 11 L425 15 L424 20 L424 27 L424 33 L424 40 L425 45 L429 50 L433 53 L440 57 L451 60 L464 62 L478 63 L491 64 L502 65 L512 65 L522 65 L531 65 L541 65 L553 62 L566 57 L584 47 L595 38 L602 31 L605 26 L605 22 L605 20 L603 17 L599 15 L595 14 L593 14 L591 13 " fill="none" stroke="black" /></svg>