<?xml version="1.0" encoding="utf-8" ?>
<svg baseProfile="tiny" height="306" version="1.2" viewBox="-3 -3 291 306" width="291" xmlns="http://www.w3.org/2000/svg" xmlns:ev="http://www.w3.org/2001/xml-events" xmlns:xlink="http://www.w3.org/1999/xlink"><defs /><path d="M179 185 L190 168 L191 150 L176 130 L149 120 L125 120 L117 128 L117 142 L123 159 L139 168 L166 173 L198 168 L228 149 L246 125 L250 102 L227 82 L190 74 L165 75 L156 93 L154 119 L156 138 L174 155 L196 160 L217 156 L229 144 L233 124 L220 101 L166 70 L115 55 L71 52 L49 64 L39 91 L37 131 L39 172 L56 188 L79 192 L105 183 L121 165 L128 144 L115 134 L83 132 L49 145 L30 182 L27 218 L34 240 L61 261 L91 266 L129 261 L154 243 L167 226 L167 213 L142 204 L122 204 L116 213 L117 223 L136 235 L170 247 L207 251 L229 241 L243 221 L247 194 L239 169 L212 153 L178 148 L167 159 L167 178 L174 194 L191 202 L215 204 L243 191 L271 161 L287 131 L291 101 L277 83 L244 77 L223 81 L219 103 L220 117 L232 128 L248 134 L262 135 L270 127 L274 107 L267 92 L235 78 L188 75 L161 91 L146 130 L140 189 L141 212 L151 220 L161 218 L169 199 L171 174 L148 154 L102 143 L69 146 L62 163 L63 181 L92 201 L129 205 L160 200 L179 176 L185 135 L169 61 L118 13 L53 0 L21 38 L11 85 L10 148 L27 186 L86 218 L161 221 L218 201 L245 177 L252 154 L228 134 L163 117 L81 114 L63 136 L62 168 L88 210 L149 244 L204 253 L248 244 L260 224 L259 187 L201 135 L111 108 L43 108 L5 157 L0 228 L18 273 L71 302 L158 306 L225 277 L262 241 L265 205 L201 140 L87 86 L26 80 L12 89 L21 113 L65 140 L134 155 L194 151 L220 132 L227 110 L218 88 " fill="none" stroke="black" /></svg>