<?xml version="1.0" encoding="utf-8" ?>
<svg baseProfile="tiny" height="179" version="1.2" viewBox="-3 -3 290 179" width="290" xmlns="http://www.w3.org/2000/svg" xmlns:ev="http://www.w3.org/2001/xml-events" xmlns:xlink="http://www.w3.org/1999/xlink"><defs /><path d="M290 138 L290 139 " fill="none" stroke="black" /><path d="M290 138 L290 139 M126 86 L136 75 L146 68 L162 61 L186 53 L205 50 L210 50 L220 54 L238 70 L252 87 L261 104 L267 118 L273 132 L274 140 L277 152 L277 164 L277 172 L277 175 L277 176 " fill="none" stroke="black" /><path d="M290 138 L290 139 M126 86 L136 75 L146 68 L162 61 L186 53 L205 50 L210 50 L220 54 L238 70 L252 87 L261 104 L267 118 L273 132 L274 140 L277 152 L277 164 L277 172 L277 175 L277 176 M153 131 L153 124 L159 110 L175 100 L188 97 L191 97 L207 103 L215 106 L215 107 L217 111 L226 123 L233 134 L235 139 L237 142 L237 149 L237 153 L237 158 L230 161 " fill="none" stroke="black" /><path d="M290 138 L290 139 M126 86 L136 75 L146 68 L162 61 L186 53 L205 50 L210 50 L220 54 L238 70 L252 87 L261 104 L267 118 L273 132 L274 140 L277 152 L277 164 L277 172 L277 175 L277 176 M153 131 L153 124 L159 110 L175 100 L188 97 L191 97 L207 103 L215 106 L215 107 L217 111 L226 123 L233 134 L235 139 L237 142 L237 149 L237 153 L237 158 L230 161 M84 161 L84 146 L91 108 L100 77 L108 65 L124 59 L162 52 L178 52 L186 53 L196 63 L203 76 L210 90 L212 98 L212 104 L212 110 L211 117 L205 127 L200 132 L196 136 L195 139 L194 139 " fill="none" stroke="black" /><path d="M290 138 L290 139 M126 86 L136 75 L146 68 L162 61 L186 53 L205 50 L210 50 L220 54 L238 70 L252 87 L261 104 L267 118 L273 132 L274 140 L277 152 L277 164 L277 172 L277 175 L277 176 M153 131 L153 124 L159 110 L175 100 L188 97 L191 97 L207 103 L215 106 L215 107 L217 111 L226 123 L233 134 L235 139 L237 142 L237 149 L237 153 L237 158 L230 161 M84 161 L84 146 L91 108 L100 77 L108 65 L124 59 L162 52 L178 52 L186 53 L196 63 L203 76 L210 90 L212 98 L212 104 L212 110 L211 117 L205 127 L200 132 L196 136 L195 139 L194 139 M71 162 L71 158 L71 148 L71 136 L78 120 L96 106 L123 94 L156 86 L193 84 L208 85 L222 98 L233 116 L238 130 L241 140 L241 147 L241 153 L241 155 L241 157 L235 163 L232 165 L231 166 L223 172 L213 176 L202 178 " fill="none" stroke="black" /><path d="M290 138 L290 139 M126 86 L136 75 L146 68 L162 61 L186 53 L205 50 L210 50 L220 54 L238 70 L252 87 L261 104 L267 118 L273 132 L274 140 L277 152 L277 164 L277 172 L277 175 L277 176 M153 131 L153 124 L159 110 L175 100 L188 97 L191 97 L207 103 L215 106 L215 107 L217 111 L226 123 L233 134 L235 139 L237 142 L237 149 L237 153 L237 158 L230 161 M84 161 L84 146 L91 108 L100 77 L108 65 L124 59 L162 52 L178 52 L186 53 L196 63 L203 76 L210 90 L212 98 L212 104 L212 110 L211 117 L205 127 L200 132 L196 136 L195 139 L194 139 M71 162 L71 158 L71 148 L71 136 L78 120 L96 106 L123 94 L156 86 L193 84 L208 85 L222 98 L233 116 L238 130 L241 140 L241 147 L241 153 L241 155 L241 157 L235 163 L232 165 L231 166 L223 172 L213 176 L202 178 M92 179 L86 175 L79 164 L68 147 L58 125 L51 99 L49 71 L57 49 L73 32 L106 13 L120 4 L129 2 L143 2 L152 4 L168 14 L184 30 L194 47 L203 65 L211 83 L215 93 L217 101 L218 112 L219 119 L219 123 L219 131 L219 136 " fill="none" stroke="black" /><path d="M290 138 L290 139 M126 86 L136 75 L146 68 L162 61 L186 53 L205 50 L210 50 L220 54 L238 70 L252 87 L261 104 L267 118 L273 132 L274 140 L277 152 L277 164 L277 172 L277 175 L277 176 M153 131 L153 124 L159 110 L175 100 L188 97 L191 97 L207 103 L215 106 L215 107 L217 111 L226 123 L233 134 L235 139 L237 142 L237 149 L237 153 L237 158 L230 161 M84 161 L84 146 L91 108 L100 77 L108 65 L124 59 L162 52 L178 52 L186 53 L196 63 L203 76 L210 90 L212 98 L212 104 L212 110 L211 117 L205 127 L200 132 L196 136 L195 139 L194 139 M71 162 L71 158 L71 148 L71 136 L78 120 L96 106 L123 94 L156 86 L193 84 L208 85 L222 98 L233 116 L238 130 L241 140 L241 147 L241 153 L241 155 L241 157 L235 163 L232 165 L231 166 L223 172 L213 176 L202 178 M92 179 L86 175 L79 164 L68 147 L58 125 L51 99 L49 71 L57 49 L73 32 L106 13 L120 4 L129 2 L143 2 L152 4 L168 14 L184 30 L194 47 L203 65 L211 83 L215 93 L217 101 L218 112 L219 119 L219 123 L219 131 L219 136 M8 169 L7 162 L7 135 L0 102 L8 62 L25 38 L37 28 L67 20 L105 13 L154 4 L195 0 L202 3 L216 14 L230 23 L242 35 L249 47 L257 66 L258 79 L260 89 L260 98 L261 109 L261 114 L262 119 L263 123 L264 124 L265 127 L265 128 L265 129 " fill="none" stroke="black" /><path d="M290 138 L290 139 M126 86 L136 75 L146 68 L162 61 L186 53 L205 50 L210 50 L220 54 L238 70 L252 87 L261 104 L267 118 L273 132 L274 140 L277 152 L277 164 L277 172 L277 175 L277 176 M153 131 L153 124 L159 110 L175 100 L188 97 L191 97 L207 103 L215 106 L215 107 L217 111 L226 123 L233 134 L235 139 L237 142 L237 149 L237 153 L237 158 L230 161 M84 161 L84 146 L91 108 L100 77 L108 65 L124 59 L162 52 L178 52 L186 53 L196 63 L203 76 L210 90 L212 98 L212 104 L212 110 L211 117 L205 127 L200 132 L196 136 L195 139 L194 139 M71 162 L71 158 L71 148 L71 136 L78 120 L96 106 L123 94 L156 86 L193 84 L208 85 L222 98 L233 116 L238 130 L241 140 L241 147 L241 153 L241 155 L241 157 L235 163 L232 165 L231 166 L223 172 L213 176 L202 178 M92 179 L86 175 L79 164 L68 147 L58 125 L51 99 L49 71 L57 49 L73 32 L106 13 L120 4 L129 2 L143 2 L152 4 L168 14 L184 30 L194 47 L203 65 L211 83 L215 93 L217 101 L218 112 L219 119 L219 123 L219 131 L219 136 M8 169 L7 162 L7 135 L0 102 L8 62 L25 38 L37 28 L67 20 L105 13 L154 4 L195 0 L202 3 L216 14 L230 23 L242 35 L249 47 L257 66 L258 79 L260 89 L260 98 L261 109 L261 114 L262 119 L263 123 L264 124 L265 127 L265 128 L265 129 M100 127 L106 111 L111 103 L132 90 L168 85 L176 87 L183 95 L188 101 L193 107 L197 111 L198 115 L198 116 " fill="none" stroke="black" /></svg>