<?xml version="1.0" encoding="utf-8" ?>
<svg baseProfile="tiny" height="164" version="1.2" viewBox="-3 -3 905 164" width="905" xmlns="http://www.w3.org/2000/svg" xmlns:ev="http://www.w3.org/2001/xml-events" xmlns:xlink="http://www.w3.org/1999/xlink"><defs /><path d="M0 97 L39 99 L75 99 L96 99 L110 99 L119 100 L153 100 L213 100 L298 100 L360 100 L406 100 L444 100 L489 100 L551 100 L602 100 L651 100 L685 100 L711 100 L749 100 L765 100 L772 100 L773 100 " fill="none" stroke="black" /><path d="M0 97 L39 99 L75 99 L96 99 L110 99 L119 100 L153 100 L213 100 L298 100 L360 100 L406 100 L444 100 L489 100 L551 100 L602 100 L651 100 L685 100 L711 100 L749 100 L765 100 L772 100 L773 100 M153 66 L152 78 L154 88 L154 87 L154 70 L154 66 L176 61 L230 56 L280 56 L316 56 L357 56 L420 48 L469 41 L491 38 L494 38 L523 38 L547 38 L548 38 L553 38 L588 37 L615 36 L618 36 L621 36 L630 53 L635 63 L636 64 L639 74 L641 85 L642 90 " fill="none" stroke="black" /><path d="M0 97 L39 99 L75 99 L96 99 L110 99 L119 100 L153 100 L213 100 L298 100 L360 100 L406 100 L444 100 L489 100 L551 100 L602 100 L651 100 L685 100 L711 100 L749 100 L765 100 L772 100 L773 100 M153 66 L152 78 L154 88 L154 87 L154 70 L154 66 L176 61 L230 56 L280 56 L316 56 L357 56 L420 48 L469 41 L491 38 L494 38 L523 38 L547 38 L548 38 L553 38 L588 37 L615 36 L618 36 L621 36 L630 53 L635 63 L636 64 L639 74 L641 85 L642 90 M29 126 L94 123 L150 116 L209 108 L276 99 L352 96 L450 96 L580 83 L658 76 L704 75 L741 75 L775 71 L799 71 L807 71 " fill="none" stroke="black" /><path d="M0 97 L39 99 L75 99 L96 99 L110 99 L119 100 L153 100 L213 100 L298 100 L360 100 L406 100 L444 100 L489 100 L551 100 L602 100 L651 100 L685 100 L711 100 L749 100 L765 100 L772 100 L773 100 M153 66 L152 78 L154 88 L154 87 L154 70 L154 66 L176 61 L230 56 L280 56 L316 56 L357 56 L420 48 L469 41 L491 38 L494 38 L523 38 L547 38 L548 38 L553 38 L588 37 L615 36 L618 36 L621 36 L630 53 L635 63 L636 64 L639 74 L641 85 L642 90 M29 126 L94 123 L150 116 L209 108 L276 99 L352 96 L450 96 L580 83 L658 76 L704 75 L741 75 L775 71 L799 71 L807 71 M11 40 L65 59 L144 81 L224 105 L310 121 L392 133 L466 143 L561 148 L668 148 L752 152 L817 152 L870 152 L903 152 L905 152 " fill="none" stroke="black" /><path d="M0 97 L39 99 L75 99 L96 99 L110 99 L119 100 L153 100 L213 100 L298 100 L360 100 L406 100 L444 100 L489 100 L551 100 L602 100 L651 100 L685 100 L711 100 L749 100 L765 100 L772 100 L773 100 M153 66 L152 78 L154 88 L154 87 L154 70 L154 66 L176 61 L230 56 L280 56 L316 56 L357 56 L420 48 L469 41 L491 38 L494 38 L523 38 L547 38 L548 38 L553 38 L588 37 L615 36 L618 36 L621 36 L630 53 L635 63 L636 64 L639 74 L641 85 L642 90 M29 126 L94 123 L150 116 L209 108 L276 99 L352 96 L450 96 L580 83 L658 76 L704 75 L741 75 L775 71 L799 71 L807 71 M11 40 L65 59 L144 81 L224 105 L310 121 L392 133 L466 143 L561 148 L668 148 L752 152 L817 152 L870 152 L903 152 L905 152 M65 164 L87 164 L229 138 L390 112 L457 101 L496 92 L533 80 L592 65 L677 39 L776 16 L832 4 L845 0 " fill="none" stroke="black" /></svg>