<?xml version="1.0" encoding="utf-8" ?>
<svg baseProfile="tiny" height="257" version="1.2" viewBox="-3 -3 964 257" width="964" xmlns="http://www.w3.org/2000/svg" xmlns:ev="http://www.w3.org/2001/xml-events" xmlns:xlink="http://www.w3.org/1999/xlink"><defs /><path d="M0 51 L3 56 L10 67 L18 77 L26 86 L36 96 L48 112 L63 128 L75 140 L88 151 L98 158 L111 168 L132 180 L157 196 L181 209 L200 220 L222 231 L243 240 L271 248 L316 254 L358 257 L398 257 L434 257 L450 257 L460 255 L466 254 L474 251 L505 243 L529 238 L550 231 L584 222 L610 214 L619 208 L645 187 L684 160 L703 141 L712 129 L737 98 L751 84 L756 74 L762 56 L769 39 L777 18 L777 11 L778 8 " fill="none" stroke="black" /><path d="M0 51 L3 56 L10 67 L18 77 L26 86 L36 96 L48 112 L63 128 L75 140 L88 151 L98 158 L111 168 L132 180 L157 196 L181 209 L200 220 L222 231 L243 240 L271 248 L316 254 L358 257 L398 257 L434 257 L450 257 L460 255 L466 254 L474 251 L505 243 L529 238 L550 231 L584 222 L610 214 L619 208 L645 187 L684 160 L703 141 L712 129 L737 98 L751 84 L756 74 L762 56 L769 39 L777 18 L777 11 L778 8 M34 49 L36 50 L38 61 L40 70 L41 79 L42 82 L43 82 L50 83 L73 83 L82 83 L83 85 L86 93 L91 109 L97 127 L99 134 L102 137 L110 138 L127 138 L131 138 L132 138 L135 146 L146 165 L151 179 L154 184 L170 185 L188 184 L194 184 L196 186 L202 194 L206 206 L211 214 L215 216 L217 217 L235 217 L259 213 L271 211 L272 211 L284 216 L298 227 L304 233 L307 234 L326 229 L359 214 L374 210 L375 210 L384 223 L400 232 L411 234 L418 234 L432 222 L444 212 L455 205 L464 202 L468 201 L473 203 L486 212 L495 216 L507 218 L515 218 L522 215 L527 207 L544 192 L557 184 L559 184 L560 184 L571 192 L586 199 L598 198 L602 189 L610 170 L617 159 L622 155 L626 154 L634 155 L643 158 L645 159 L659 159 L666 154 L672 142 L676 123 L681 101 L687 90 L693 87 L695 87 L725 75 L777 53 L779 51 L779 45 L777 33 L777 25 L775 19 L774 11 L773 8 L773 4 L773 3 L773 1 L771 0 " fill="none" stroke="black" /><path d="M0 51 L3 56 L10 67 L18 77 L26 86 L36 96 L48 112 L63 128 L75 140 L88 151 L98 158 L111 168 L132 180 L157 196 L181 209 L200 220 L222 231 L243 240 L271 248 L316 254 L358 257 L398 257 L434 257 L450 257 L460 255 L466 254 L474 251 L505 243 L529 238 L550 231 L584 222 L610 214 L619 208 L645 187 L684 160 L703 141 L712 129 L737 98 L751 84 L756 74 L762 56 L769 39 L777 18 L777 11 L778 8 M34 49 L36 50 L38 61 L40 70 L41 79 L42 82 L43 82 L50 83 L73 83 L82 83 L83 85 L86 93 L91 109 L97 127 L99 134 L102 137 L110 138 L127 138 L131 138 L132 138 L135 146 L146 165 L151 179 L154 184 L170 185 L188 184 L194 184 L196 186 L202 194 L206 206 L211 214 L215 216 L217 217 L235 217 L259 213 L271 211 L272 211 L284 216 L298 227 L304 233 L307 234 L326 229 L359 214 L374 210 L375 210 L384 223 L400 232 L411 234 L418 234 L432 222 L444 212 L455 205 L464 202 L468 201 L473 203 L486 212 L495 216 L507 218 L515 218 L522 215 L527 207 L544 192 L557 184 L559 184 L560 184 L571 192 L586 199 L598 198 L602 189 L610 170 L617 159 L622 155 L626 154 L634 155 L643 158 L645 159 L659 159 L666 154 L672 142 L676 123 L681 101 L687 90 L693 87 L695 87 L725 75 L777 53 L779 51 L779 45 L777 33 L777 25 L775 19 L774 11 L773 8 L773 4 L773 3 L773 1 L771 0 M140 110 L197 119 L457 115 L891 52 L964 44 " fill="none" stroke="black" /></svg>