<?xml version="1.0" encoding="utf-8" ?>
<svg baseProfile="tiny" height="429" version="1.2" viewBox="-3 -3 1265 429" width="1265" xmlns="http://www.w3.org/2000/svg" xmlns:ev="http://www.w3.org/2001/xml-events" xmlns:xlink="http://www.w3.org/1999/xlink"><defs /><path d="M178 394 L184 400 L197 406 L224 409 L269 409 L346 408 L554 374 L774 324 L921 270 L1034 220 L1117 173 L1133 162 L1133 161 L1136 155 L1148 137 L1151 134 " fill="none" stroke="black" /><path d="M178 394 L184 400 L197 406 L224 409 L269 409 L346 408 L554 374 L774 324 L921 270 L1034 220 L1117 173 L1133 162 L1133 161 L1136 155 L1148 137 L1151 134 M105 392 L113 399 L128 407 L178 413 L227 416 L283 416 L328 416 L383 416 L463 407 L523 397 L642 378 L751 354 L874 315 L949 285 L1000 256 L1080 211 L1151 180 L1190 158 L1213 140 L1229 128 L1235 123 L1237 122 " fill="none" stroke="black" /><path d="M178 394 L184 400 L197 406 L224 409 L269 409 L346 408 L554 374 L774 324 L921 270 L1034 220 L1117 173 L1133 162 L1133 161 L1136 155 L1148 137 L1151 134 M105 392 L113 399 L128 407 L178 413 L227 416 L283 416 L328 416 L383 416 L463 407 L523 397 L642 378 L751 354 L874 315 L949 285 L1000 256 L1080 211 L1151 180 L1190 158 L1213 140 L1229 128 L1235 123 L1237 122 M114 391 L118 400 L127 407 L148 417 L189 426 L231 429 L290 429 L342 429 L364 429 L405 426 L519 397 L579 380 L605 369 L657 349 L708 333 L742 323 L808 305 L882 283 L959 254 L1057 206 L1131 157 L1174 134 L1211 105 L1232 82 L1252 64 L1263 54 L1265 52 " fill="none" stroke="black" /><path d="M178 394 L184 400 L197 406 L224 409 L269 409 L346 408 L554 374 L774 324 L921 270 L1034 220 L1117 173 L1133 162 L1133 161 L1136 155 L1148 137 L1151 134 M105 392 L113 399 L128 407 L178 413 L227 416 L283 416 L328 416 L383 416 L463 407 L523 397 L642 378 L751 354 L874 315 L949 285 L1000 256 L1080 211 L1151 180 L1190 158 L1213 140 L1229 128 L1235 123 L1237 122 M114 391 L118 400 L127 407 L148 417 L189 426 L231 429 L290 429 L342 429 L364 429 L405 426 L519 397 L579 380 L605 369 L657 349 L708 333 L742 323 L808 305 L882 283 L959 254 L1057 206 L1131 157 L1174 134 L1211 105 L1232 82 L1252 64 L1263 54 L1265 52 M0 372 L25 383 L58 397 L100 408 L151 417 L246 423 L343 424 L427 424 L519 422 L615 408 L715 390 L805 359 L859 333 L897 305 L923 285 L963 260 L1016 229 L1068 198 L1102 168 L1134 125 L1164 89 L1185 57 L1199 26 L1213 1 L1213 0 L1212 9 " fill="none" stroke="black" /><path d="M178 394 L184 400 L197 406 L224 409 L269 409 L346 408 L554 374 L774 324 L921 270 L1034 220 L1117 173 L1133 162 L1133 161 L1136 155 L1148 137 L1151 134 M105 392 L113 399 L128 407 L178 413 L227 416 L283 416 L328 416 L383 416 L463 407 L523 397 L642 378 L751 354 L874 315 L949 285 L1000 256 L1080 211 L1151 180 L1190 158 L1213 140 L1229 128 L1235 123 L1237 122 M114 391 L118 400 L127 407 L148 417 L189 426 L231 429 L290 429 L342 429 L364 429 L405 426 L519 397 L579 380 L605 369 L657 349 L708 333 L742 323 L808 305 L882 283 L959 254 L1057 206 L1131 157 L1174 134 L1211 105 L1232 82 L1252 64 L1263 54 L1265 52 M0 372 L25 383 L58 397 L100 408 L151 417 L246 423 L343 424 L427 424 L519 422 L615 408 L715 390 L805 359 L859 333 L897 305 L923 285 L963 260 L1016 229 L1068 198 L1102 168 L1134 125 L1164 89 L1185 57 L1199 26 L1213 1 L1213 0 L1212 9 M27 323 L41 343 L59 363 L68 371 L77 379 L105 401 L151 411 L189 414 L242 414 L362 414 L495 398 L650 355 L717 324 L776 290 L826 259 L871 229 L916 204 L980 169 L1016 146 L1051 121 L1072 101 L1090 85 L1105 70 L1117 50 L1127 34 L1143 19 L1146 16 " fill="none" stroke="black" /><path d="M178 394 L184 400 L197 406 L224 409 L269 409 L346 408 L554 374 L774 324 L921 270 L1034 220 L1117 173 L1133 162 L1133 161 L1136 155 L1148 137 L1151 134 M105 392 L113 399 L128 407 L178 413 L227 416 L283 416 L328 416 L383 416 L463 407 L523 397 L642 378 L751 354 L874 315 L949 285 L1000 256 L1080 211 L1151 180 L1190 158 L1213 140 L1229 128 L1235 123 L1237 122 M114 391 L118 400 L127 407 L148 417 L189 426 L231 429 L290 429 L342 429 L364 429 L405 426 L519 397 L579 380 L605 369 L657 349 L708 333 L742 323 L808 305 L882 283 L959 254 L1057 206 L1131 157 L1174 134 L1211 105 L1232 82 L1252 64 L1263 54 L1265 52 M0 372 L25 383 L58 397 L100 408 L151 417 L246 423 L343 424 L427 424 L519 422 L615 408 L715 390 L805 359 L859 333 L897 305 L923 285 L963 260 L1016 229 L1068 198 L1102 168 L1134 125 L1164 89 L1185 57 L1199 26 L1213 1 L1213 0 L1212 9 M27 323 L41 343 L59 363 L68 371 L77 379 L105 401 L151 411 L189 414 L242 414 L362 414 L495 398 L650 355 L717 324 L776 290 L826 259 L871 229 L916 204 L980 169 L1016 146 L1051 121 L1072 101 L1090 85 L1105 70 L1117 50 L1127 34 L1143 19 L1146 16 M69 301 L80 322 L100 348 L133 377 L174 397 L221 407 L274 414 L321 415 L379 415 L440 399 L514 378 L608 349 L687 315 L719 298 L759 272 L809 243 L848 222 L875 206 L906 184 L932 162 L956 137 L970 118 L977 111 L983 105 L998 88 L1017 67 L1039 47 L1041 45 " fill="none" stroke="black" /></svg>