<?xml version="1.0" encoding="utf-8" ?>
<svg baseProfile="tiny" height="487" version="1.2" viewBox="-3 -3 712 487" width="712" xmlns="http://www.w3.org/2000/svg" xmlns:ev="http://www.w3.org/2001/xml-events" xmlns:xlink="http://www.w3.org/1999/xlink"><defs /><path d="M320 143 L354 155 L380 166 L386 172 L386 190 L368 226 L324 269 L312 273 L311 273 L308 273 " fill="none" stroke="black" /><path d="M320 143 L354 155 L380 166 L386 172 L386 190 L368 226 L324 269 L312 273 L311 273 L308 273 M270 71 L235 106 L224 140 L240 162 L285 160 L309 153 L310 153 L295 159 L261 184 L247 201 L252 217 L268 234 L320 249 L351 246 L353 246 L354 245 " fill="none" stroke="black" /><path d="M320 143 L354 155 L380 166 L386 172 L386 190 L368 226 L324 269 L312 273 L311 273 L308 273 M270 71 L235 106 L224 140 L240 162 L285 160 L309 153 L310 153 L295 159 L261 184 L247 201 L252 217 L268 234 L320 249 L351 246 L353 246 L354 245 M269 29 L296 41 L337 48 L382 57 L391 67 L393 90 L382 123 L341 162 L340 163 L340 168 L418 189 L482 197 L494 207 L494 230 L479 269 L450 297 L378 309 L318 309 L315 309 " fill="none" stroke="black" /><path d="M320 143 L354 155 L380 166 L386 172 L386 190 L368 226 L324 269 L312 273 L311 273 L308 273 M270 71 L235 106 L224 140 L240 162 L285 160 L309 153 L310 153 L295 159 L261 184 L247 201 L252 217 L268 234 L320 249 L351 246 L353 246 L354 245 M269 29 L296 41 L337 48 L382 57 L391 67 L393 90 L382 123 L341 162 L340 163 L340 168 L418 189 L482 197 L494 207 L494 230 L479 269 L450 297 L378 309 L318 309 L315 309 M273 53 L259 52 L218 70 L186 102 L170 137 L166 168 L176 187 L206 191 L245 191 L268 192 L270 192 L262 200 L213 228 L184 248 L183 254 L190 270 L215 294 L264 310 L314 317 L350 318 L353 318 L354 318 " fill="none" stroke="black" /><path d="M320 143 L354 155 L380 166 L386 172 L386 190 L368 226 L324 269 L312 273 L311 273 L308 273 M270 71 L235 106 L224 140 L240 162 L285 160 L309 153 L310 153 L295 159 L261 184 L247 201 L252 217 L268 234 L320 249 L351 246 L353 246 L354 245 M269 29 L296 41 L337 48 L382 57 L391 67 L393 90 L382 123 L341 162 L340 163 L340 168 L418 189 L482 197 L494 207 L494 230 L479 269 L450 297 L378 309 L318 309 L315 309 M273 53 L259 52 L218 70 L186 102 L170 137 L166 168 L176 187 L206 191 L245 191 L268 192 L270 192 L262 200 L213 228 L184 248 L183 254 L190 270 L215 294 L264 310 L314 317 L350 318 L353 318 L354 318 M285 92 L288 94 L343 102 L362 115 L360 137 L316 153 L298 157 L298 158 L303 169 L330 188 L364 207 L367 210 L356 220 L302 248 L247 271 L232 277 L233 278 " fill="none" stroke="black" /><path d="M320 143 L354 155 L380 166 L386 172 L386 190 L368 226 L324 269 L312 273 L311 273 L308 273 M270 71 L235 106 L224 140 L240 162 L285 160 L309 153 L310 153 L295 159 L261 184 L247 201 L252 217 L268 234 L320 249 L351 246 L353 246 L354 245 M269 29 L296 41 L337 48 L382 57 L391 67 L393 90 L382 123 L341 162 L340 163 L340 168 L418 189 L482 197 L494 207 L494 230 L479 269 L450 297 L378 309 L318 309 L315 309 M273 53 L259 52 L218 70 L186 102 L170 137 L166 168 L176 187 L206 191 L245 191 L268 192 L270 192 L262 200 L213 228 L184 248 L183 254 L190 270 L215 294 L264 310 L314 317 L350 318 L353 318 L354 318 M285 92 L288 94 L343 102 L362 115 L360 137 L316 153 L298 157 L298 158 L303 169 L330 188 L364 207 L367 210 L356 220 L302 248 L247 271 L232 277 L233 278 M314 108 L310 107 L280 114 L230 126 L215 131 L214 135 L239 163 L286 172 L305 175 L287 191 L237 225 L224 239 L221 251 L221 262 L233 275 L260 280 L291 281 L294 281 " fill="none" stroke="black" /><path d="M320 143 L354 155 L380 166 L386 172 L386 190 L368 226 L324 269 L312 273 L311 273 L308 273 M270 71 L235 106 L224 140 L240 162 L285 160 L309 153 L310 153 L295 159 L261 184 L247 201 L252 217 L268 234 L320 249 L351 246 L353 246 L354 245 M269 29 L296 41 L337 48 L382 57 L391 67 L393 90 L382 123 L341 162 L340 163 L340 168 L418 189 L482 197 L494 207 L494 230 L479 269 L450 297 L378 309 L318 309 L315 309 M273 53 L259 52 L218 70 L186 102 L170 137 L166 168 L176 187 L206 191 L245 191 L268 192 L270 192 L262 200 L213 228 L184 248 L183 254 L190 270 L215 294 L264 310 L314 317 L350 318 L353 318 L354 318 M285 92 L288 94 L343 102 L362 115 L360 137 L316 153 L298 157 L298 158 L303 169 L330 188 L364 207 L367 210 L356 220 L302 248 L247 271 L232 277 L233 278 M314 108 L310 107 L280 114 L230 126 L215 131 L214 135 L239 163 L286 172 L305 175 L287 191 L237 225 L224 239 L221 251 L221 262 L233 275 L260 280 L291 281 L294 281 M391 0 L407 3 L414 11 L420 36 L425 68 L429 100 L438 128 L457 141 L509 140 L591 132 L618 136 L623 157 L611 210 L598 252 L601 265 L627 283 L669 300 L681 302 L695 310 L702 324 L701 347 L692 374 L698 388 L704 398 L707 400 L710 400 L712 404 L711 408 L712 406 " fill="none" stroke="black" /><path d="M320 143 L354 155 L380 166 L386 172 L386 190 L368 226 L324 269 L312 273 L311 273 L308 273 M270 71 L235 106 L224 140 L240 162 L285 160 L309 153 L310 153 L295 159 L261 184 L247 201 L252 217 L268 234 L320 249 L351 246 L353 246 L354 245 M269 29 L296 41 L337 48 L382 57 L391 67 L393 90 L382 123 L341 162 L340 163 L340 168 L418 189 L482 197 L494 207 L494 230 L479 269 L450 297 L378 309 L318 309 L315 309 M273 53 L259 52 L218 70 L186 102 L170 137 L166 168 L176 187 L206 191 L245 191 L268 192 L270 192 L262 200 L213 228 L184 248 L183 254 L190 270 L215 294 L264 310 L314 317 L350 318 L353 318 L354 318 M285 92 L288 94 L343 102 L362 115 L360 137 L316 153 L298 157 L298 158 L303 169 L330 188 L364 207 L367 210 L356 220 L302 248 L247 271 L232 277 L233 278 M314 108 L310 107 L280 114 L230 126 L215 131 L214 135 L239 163 L286 172 L305 175 L287 191 L237 225 L224 239 L221 251 L221 262 L233 275 L260 280 L291 281 L294 281 M391 0 L407 3 L414 11 L420 36 L425 68 L429 100 L438 128 L457 141 L509 140 L591 132 L618 136 L623 157 L611 210 L598 252 L601 265 L627 283 L669 300 L681 302 L695 310 L702 324 L701 347 L692 374 L698 388 L704 398 L707 400 L710 400 L712 404 L711 408 L712 406 M175 80 L137 92 L79 136 L65 173 L82 206 L127 238 L132 253 L116 285 L86 328 L72 362 L72 400 L81 420 L84 428 L75 437 L35 452 L4 473 L0 485 L2 487 L3 487 " fill="none" stroke="black" /></svg>