<?xml version="1.0" encoding="utf-8" ?>
<svg baseProfile="tiny" height="92" version="1.2" viewBox="-3 -3 436 92" width="436" xmlns="http://www.w3.org/2000/svg" xmlns:ev="http://www.w3.org/2001/xml-events" xmlns:xlink="http://www.w3.org/1999/xlink"><defs /><path d="M78 72 L79 72 L80 72 L87 72 L90 71 L92 71 L95 71 L100 71 L102 71 L104 71 L105 71 L107 71 L108 71 L111 71 L113 71 L114 71 L116 71 L119 71 L120 71 L121 71 L122 71 L122 70 L126 69 L127 69 L129 68 L132 66 L138 62 L143 57 L145 51 L145 48 L146 46 L147 44 L149 40 L149 38 L149 37 L150 37 L153 36 L155 36 L159 37 L163 40 L167 43 L169 44 L172 45 L174 47 L175 49 L178 52 L179 53 L180 54 L182 57 L182 58 L182 59 L190 66 L263 80 L336 90 L343 91 L344 91 L343 91 L342 91 L340 92 L339 92 L338 92 " fill="none" stroke="black" /><path d="M78 72 L79 72 L80 72 L87 72 L90 71 L92 71 L95 71 L100 71 L102 71 L104 71 L105 71 L107 71 L108 71 L111 71 L113 71 L114 71 L116 71 L119 71 L120 71 L121 71 L122 71 L122 70 L126 69 L127 69 L129 68 L132 66 L138 62 L143 57 L145 51 L145 48 L146 46 L147 44 L149 40 L149 38 L149 37 L150 37 L153 36 L155 36 L159 37 L163 40 L167 43 L169 44 L172 45 L174 47 L175 49 L178 52 L179 53 L180 54 L182 57 L182 58 L182 59 L190 66 L263 80 L336 90 L343 91 L344 91 L343 91 L342 91 L340 92 L339 92 L338 92 M4 14 L4 23 L5 27 L8 35 L10 44 L12 53 L12 54 L13 54 L22 50 L41 40 L44 38 L47 42 L50 48 L54 54 L57 57 L58 59 L61 62 L62 63 L75 55 L93 48 L100 48 L101 48 L157 53 L170 55 L170 54 L169 48 L169 42 L169 35 L176 25 L194 18 L204 18 L213 19 L216 20 L219 23 L231 35 L248 49 L250 52 L251 55 L254 62 L260 69 L272 76 L283 79 L308 80 L353 80 L376 81 L379 81 L393 85 L431 90 L436 90 " fill="none" stroke="black" /><path d="M78 72 L79 72 L80 72 L87 72 L90 71 L92 71 L95 71 L100 71 L102 71 L104 71 L105 71 L107 71 L108 71 L111 71 L113 71 L114 71 L116 71 L119 71 L120 71 L121 71 L122 71 L122 70 L126 69 L127 69 L129 68 L132 66 L138 62 L143 57 L145 51 L145 48 L146 46 L147 44 L149 40 L149 38 L149 37 L150 37 L153 36 L155 36 L159 37 L163 40 L167 43 L169 44 L172 45 L174 47 L175 49 L178 52 L179 53 L180 54 L182 57 L182 58 L182 59 L190 66 L263 80 L336 90 L343 91 L344 91 L343 91 L342 91 L340 92 L339 92 L338 92 M4 14 L4 23 L5 27 L8 35 L10 44 L12 53 L12 54 L13 54 L22 50 L41 40 L44 38 L47 42 L50 48 L54 54 L57 57 L58 59 L61 62 L62 63 L75 55 L93 48 L100 48 L101 48 L157 53 L170 55 L170 54 L169 48 L169 42 L169 35 L176 25 L194 18 L204 18 L213 19 L216 20 L219 23 L231 35 L248 49 L250 52 L251 55 L254 62 L260 69 L272 76 L283 79 L308 80 L353 80 L376 81 L379 81 L393 85 L431 90 L436 90 M0 3 L4 14 L5 18 L8 25 L9 29 L19 25 L32 22 L39 21 L44 22 L47 26 L51 30 L52 31 L53 33 L56 33 L77 35 L88 34 L89 34 L90 34 L119 34 L148 34 L159 31 L161 30 L164 26 L176 17 L182 9 L185 5 L189 2 L209 0 L247 0 L278 2 L298 10 L310 20 L319 29 L329 39 L339 51 L349 60 L360 69 L370 73 L385 78 L409 83 " fill="none" stroke="black" /></svg>