<?xml version="1.0" encoding="utf-8" ?>
<svg baseProfile="tiny" height="618" version="1.2" viewBox="-3 -3 751 618" width="751" xmlns="http://www.w3.org/2000/svg" xmlns:ev="http://www.w3.org/2001/xml-events" xmlns:xlink="http://www.w3.org/1999/xlink"><defs /><path d="M1 346 L1 353 L12 337 L42 289 L69 242 L71 237 L76 248 L115 320 L170 432 L203 494 L204 496 L205 489 L222 424 L256 366 L264 345 L264 344 L281 390 L351 552 L385 618 L393 617 L409 550 L418 466 L437 383 L437 362 L437 361 L443 372 L506 488 L546 538 L549 538 L552 535 L572 475 L618 393 L648 353 L649 352 L651 351 L687 403 L730 468 L733 470 L732 433 L724 354 L721 321 L721 300 L722 279 L722 267 L722 255 L724 247 L725 242 L725 237 L727 214 L735 172 L741 110 L747 70 L751 43 L751 39 L678 76 L564 143 L528 171 L526 175 L522 168 L494 114 L458 65 L438 38 L430 34 L423 40 L345 126 L269 197 L257 207 L245 177 L224 130 L203 94 L186 66 L179 60 L177 60 L153 68 L125 100 L119 136 L119 143 L119 124 L118 87 L109 51 L89 17 L80 6 L78 4 L76 3 L73 1 L71 0 L65 0 L59 2 L53 7 L48 14 L44 21 L35 33 L29 43 L25 49 L23 55 L21 59 L20 62 L17 69 L11 80 L8 88 L2 100 L0 106 L4 110 " fill="none" stroke="black" /><path d="M1 346 L1 353 L12 337 L42 289 L69 242 L71 237 L76 248 L115 320 L170 432 L203 494 L204 496 L205 489 L222 424 L256 366 L264 345 L264 344 L281 390 L351 552 L385 618 L393 617 L409 550 L418 466 L437 383 L437 362 L437 361 L443 372 L506 488 L546 538 L549 538 L552 535 L572 475 L618 393 L648 353 L649 352 L651 351 L687 403 L730 468 L733 470 L732 433 L724 354 L721 321 L721 300 L722 279 L722 267 L722 255 L724 247 L725 242 L725 237 L727 214 L735 172 L741 110 L747 70 L751 43 L751 39 L678 76 L564 143 L528 171 L526 175 L522 168 L494 114 L458 65 L438 38 L430 34 L423 40 L345 126 L269 197 L257 207 L245 177 L224 130 L203 94 L186 66 L179 60 L177 60 L153 68 L125 100 L119 136 L119 143 L119 124 L118 87 L109 51 L89 17 L80 6 L78 4 L76 3 L73 1 L71 0 L65 0 L59 2 L53 7 L48 14 L44 21 L35 33 L29 43 L25 49 L23 55 L21 59 L20 62 L17 69 L11 80 L8 88 L2 100 L0 106 L4 110 M51 104 L50 103 " fill="none" stroke="black" /><path d="M1 346 L1 353 L12 337 L42 289 L69 242 L71 237 L76 248 L115 320 L170 432 L203 494 L204 496 L205 489 L222 424 L256 366 L264 345 L264 344 L281 390 L351 552 L385 618 L393 617 L409 550 L418 466 L437 383 L437 362 L437 361 L443 372 L506 488 L546 538 L549 538 L552 535 L572 475 L618 393 L648 353 L649 352 L651 351 L687 403 L730 468 L733 470 L732 433 L724 354 L721 321 L721 300 L722 279 L722 267 L722 255 L724 247 L725 242 L725 237 L727 214 L735 172 L741 110 L747 70 L751 43 L751 39 L678 76 L564 143 L528 171 L526 175 L522 168 L494 114 L458 65 L438 38 L430 34 L423 40 L345 126 L269 197 L257 207 L245 177 L224 130 L203 94 L186 66 L179 60 L177 60 L153 68 L125 100 L119 136 L119 143 L119 124 L118 87 L109 51 L89 17 L80 6 L78 4 L76 3 L73 1 L71 0 L65 0 L59 2 L53 7 L48 14 L44 21 L35 33 L29 43 L25 49 L23 55 L21 59 L20 62 L17 69 L11 80 L8 88 L2 100 L0 106 L4 110 M51 104 L50 103 M211 262 L213 264 " fill="none" stroke="black" /><circle cx="397" cy="192" fill="black" r="1" /><circle cx="357" cy="387" fill="black" r="1" /><circle cx="532" cy="218" fill="black" r="1" /><circle cx="546" cy="405" fill="black" r="1" /><circle cx="642" cy="204" fill="black" r="1" /><circle cx="669" cy="300" fill="black" r="1" /><circle cx="75" cy="174" fill="black" r="1" /><circle cx="137" cy="269" fill="black" r="1" /><circle cx="144" cy="349" fill="black" r="1" /><circle cx="334" cy="237" fill="black" r="1" /><circle cx="343" cy="314" fill="black" r="1" /><circle cx="459" cy="253" fill="black" r="1" /><circle cx="479" cy="339" fill="black" r="1" /><circle cx="524" cy="279" fill="black" r="1" /><circle cx="536" cy="351" fill="black" r="1" /><circle cx="593" cy="195" fill="black" r="1" /><circle cx="601" cy="358" fill="black" r="1" /><circle cx="709" cy="293" fill="black" r="1" /><circle cx="674" cy="121" fill="black" r="1" /><circle cx="375" cy="167" fill="black" r="1" /><circle cx="160" cy="227" fill="black" r="1" /><circle cx="150" cy="135" fill="black" r="1" /><circle cx="309" cy="350" fill="black" r="1" /><circle cx="372" cy="477" fill="black" r="1" /><circle cx="501" cy="387" fill="black" r="1" /><circle cx="549" cy="479" fill="black" r="1" /><circle cx="629" cy="336" fill="black" r="1" /><path d="M1 346 L1 353 L12 337 L42 289 L69 242 L71 237 L76 248 L115 320 L170 432 L203 494 L204 496 L205 489 L222 424 L256 366 L264 345 L264 344 L281 390 L351 552 L385 618 L393 617 L409 550 L418 466 L437 383 L437 362 L437 361 L443 372 L506 488 L546 538 L549 538 L552 535 L572 475 L618 393 L648 353 L649 352 L651 351 L687 403 L730 468 L733 470 L732 433 L724 354 L721 321 L721 300 L722 279 L722 267 L722 255 L724 247 L725 242 L725 237 L727 214 L735 172 L741 110 L747 70 L751 43 L751 39 L678 76 L564 143 L528 171 L526 175 L522 168 L494 114 L458 65 L438 38 L430 34 L423 40 L345 126 L269 197 L257 207 L245 177 L224 130 L203 94 L186 66 L179 60 L177 60 L153 68 L125 100 L119 136 L119 143 L119 124 L118 87 L109 51 L89 17 L80 6 L78 4 L76 3 L73 1 L71 0 L65 0 L59 2 L53 7 L48 14 L44 21 L35 33 L29 43 L25 49 L23 55 L21 59 L20 62 L17 69 L11 80 L8 88 L2 100 L0 106 L4 110 M51 104 L50 103 M211 262 L213 264 M625 287 L624 287 L616 287 " fill="none" stroke="black" /><circle cx="390" cy="270" fill="black" r="1" /><path d="M1 346 L1 353 L12 337 L42 289 L69 242 L71 237 L76 248 L115 320 L170 432 L203 494 L204 496 L205 489 L222 424 L256 366 L264 345 L264 344 L281 390 L351 552 L385 618 L393 617 L409 550 L418 466 L437 383 L437 362 L437 361 L443 372 L506 488 L546 538 L549 538 L552 535 L572 475 L618 393 L648 353 L649 352 L651 351 L687 403 L730 468 L733 470 L732 433 L724 354 L721 321 L721 300 L722 279 L722 267 L722 255 L724 247 L725 242 L725 237 L727 214 L735 172 L741 110 L747 70 L751 43 L751 39 L678 76 L564 143 L528 171 L526 175 L522 168 L494 114 L458 65 L438 38 L430 34 L423 40 L345 126 L269 197 L257 207 L245 177 L224 130 L203 94 L186 66 L179 60 L177 60 L153 68 L125 100 L119 136 L119 143 L119 124 L118 87 L109 51 L89 17 L80 6 L78 4 L76 3 L73 1 L71 0 L65 0 L59 2 L53 7 L48 14 L44 21 L35 33 L29 43 L25 49 L23 55 L21 59 L20 62 L17 69 L11 80 L8 88 L2 100 L0 106 L4 110 M51 104 L50 103 M211 262 L213 264 M625 287 L624 287 L616 287 M299 268 L294 268 L284 268 " fill="none" stroke="black" /><circle cx="63" cy="180" fill="black" r="1" /><path d="M1 346 L1 353 L12 337 L42 289 L69 242 L71 237 L76 248 L115 320 L170 432 L203 494 L204 496 L205 489 L222 424 L256 366 L264 345 L264 344 L281 390 L351 552 L385 618 L393 617 L409 550 L418 466 L437 383 L437 362 L437 361 L443 372 L506 488 L546 538 L549 538 L552 535 L572 475 L618 393 L648 353 L649 352 L651 351 L687 403 L730 468 L733 470 L732 433 L724 354 L721 321 L721 300 L722 279 L722 267 L722 255 L724 247 L725 242 L725 237 L727 214 L735 172 L741 110 L747 70 L751 43 L751 39 L678 76 L564 143 L528 171 L526 175 L522 168 L494 114 L458 65 L438 38 L430 34 L423 40 L345 126 L269 197 L257 207 L245 177 L224 130 L203 94 L186 66 L179 60 L177 60 L153 68 L125 100 L119 136 L119 143 L119 124 L118 87 L109 51 L89 17 L80 6 L78 4 L76 3 L73 1 L71 0 L65 0 L59 2 L53 7 L48 14 L44 21 L35 33 L29 43 L25 49 L23 55 L21 59 L20 62 L17 69 L11 80 L8 88 L2 100 L0 106 L4 110 M51 104 L50 103 M211 262 L213 264 M625 287 L624 287 L616 287 M299 268 L294 268 L284 268 M120 264 L130 272 L158 290 L168 296 " fill="none" stroke="black" /><path d="M1 346 L1 353 L12 337 L42 289 L69 242 L71 237 L76 248 L115 320 L170 432 L203 494 L204 496 L205 489 L222 424 L256 366 L264 345 L264 344 L281 390 L351 552 L385 618 L393 617 L409 550 L418 466 L437 383 L437 362 L437 361 L443 372 L506 488 L546 538 L549 538 L552 535 L572 475 L618 393 L648 353 L649 352 L651 351 L687 403 L730 468 L733 470 L732 433 L724 354 L721 321 L721 300 L722 279 L722 267 L722 255 L724 247 L725 242 L725 237 L727 214 L735 172 L741 110 L747 70 L751 43 L751 39 L678 76 L564 143 L528 171 L526 175 L522 168 L494 114 L458 65 L438 38 L430 34 L423 40 L345 126 L269 197 L257 207 L245 177 L224 130 L203 94 L186 66 L179 60 L177 60 L153 68 L125 100 L119 136 L119 143 L119 124 L118 87 L109 51 L89 17 L80 6 L78 4 L76 3 L73 1 L71 0 L65 0 L59 2 L53 7 L48 14 L44 21 L35 33 L29 43 L25 49 L23 55 L21 59 L20 62 L17 69 L11 80 L8 88 L2 100 L0 106 L4 110 M51 104 L50 103 M211 262 L213 264 M625 287 L624 287 L616 287 M299 268 L294 268 L284 268 M120 264 L130 272 L158 290 L168 296 M524 280 L525 280 L532 261 L538 254 " fill="none" stroke="black" /></svg>