<?xml version="1.0" encoding="utf-8" ?>
<svg baseProfile="tiny" height="474" version="1.2" viewBox="-3 -3 1593 474" width="1593" xmlns="http://www.w3.org/2000/svg" xmlns:ev="http://www.w3.org/2001/xml-events" xmlns:xlink="http://www.w3.org/1999/xlink"><defs /><path d="M0 358 L6 363 L21 376 L50 405 L81 426 L108 437 L130 445 L170 456 L218 470 L248 474 L262 467 L296 450 L321 437 L338 424 L365 411 L417 385 L430 376 L452 358 L502 322 L535 300 L557 276 L617 231 L669 202 L707 179 L755 146 L821 108 L842 91 L853 72 L876 43 L902 21 L915 13 L945 10 L993 3 L1018 0 L1025 1 L1064 6 L1075 11 L1079 20 L1091 37 L1114 57 L1124 65 L1144 80 L1176 101 L1207 120 L1228 134 L1264 146 L1291 155 L1310 161 L1338 169 L1365 173 L1407 173 L1453 174 L1469 174 L1503 171 L1548 161 L1586 151 L1593 130 L1593 120 L1593 108 L1593 95 L1593 94 " fill="none" stroke="black" /></svg>