<?xml version="1.0" encoding="utf-8" ?>
<svg baseProfile="tiny" height="82" version="1.2" viewBox="-3 -3 253 82" width="253" xmlns="http://www.w3.org/2000/svg" xmlns:ev="http://www.w3.org/2001/xml-events" xmlns:xlink="http://www.w3.org/1999/xlink"><defs /><circle cx="5" cy="14" fill="black" r="1" /><circle cx="0" cy="61" fill="black" r="1" /><circle cx="7" cy="21" fill="black" r="1" /><circle cx="7" cy="54" fill="black" r="1" /><circle cx="16" cy="27" fill="black" r="1" /><circle cx="24" cy="54" fill="black" r="1" /><circle cx="24" cy="34" fill="black" r="1" /><path d="M27 9 L27 11 " fill="none" stroke="black" /><circle cx="26" cy="64" fill="black" r="1" /><circle cx="26" cy="64" fill="black" r="1" /><path d="M27 9 L27 11 M56 59 L58 59 L59 59 " fill="none" stroke="black" /><circle cx="41" cy="31" fill="black" r="1" /><path d="M27 9 L27 11 M56 59 L58 59 L59 59 M37 10 L38 11 L38 20 " fill="none" stroke="black" /><circle cx="37" cy="62" fill="black" r="1" /><circle cx="37" cy="62" fill="black" r="1" /><path d="M27 9 L27 11 M56 59 L58 59 L59 59 M37 10 L38 11 L38 20 M42 35 L43 34 " fill="none" stroke="black" /><path d="M27 9 L27 11 M56 59 L58 59 L59 59 M37 10 L38 11 L38 20 M42 35 L43 34 M58 31 L63 34 L64 35 L64 36 " fill="none" stroke="black" /><path d="M27 9 L27 11 M56 59 L58 59 L59 59 M37 10 L38 11 L38 20 M42 35 L43 34 M58 31 L63 34 L64 35 L64 36 M46 38 L45 41 L48 48 " fill="none" stroke="black" /><circle cx="56" cy="67" fill="black" r="1" /><path d="M27 9 L27 11 M56 59 L58 59 L59 59 M37 10 L38 11 L38 20 M42 35 L43 34 M58 31 L63 34 L64 35 L64 36 M46 38 L45 41 L48 48 M55 67 L54 67 L54 64 " fill="none" stroke="black" /><circle cx="59" cy="41" fill="black" r="1" /><path d="M27 9 L27 11 M56 59 L58 59 L59 59 M37 10 L38 11 L38 20 M42 35 L43 34 M58 31 L63 34 L64 35 L64 36 M46 38 L45 41 L48 48 M55 67 L54 67 L54 64 M52 0 L53 3 " fill="none" stroke="black" /><path d="M27 9 L27 11 M56 59 L58 59 L59 59 M37 10 L38 11 L38 20 M42 35 L43 34 M58 31 L63 34 L64 35 L64 36 M46 38 L45 41 L48 48 M55 67 L54 67 L54 64 M52 0 L53 3 M62 17 L62 18 L62 19 " fill="none" stroke="black" /><circle cx="64" cy="26" fill="black" r="1" /><path d="M27 9 L27 11 M56 59 L58 59 L59 59 M37 10 L38 11 L38 20 M42 35 L43 34 M58 31 L63 34 L64 35 L64 36 M46 38 L45 41 L48 48 M55 67 L54 67 L54 64 M52 0 L53 3 M62 17 L62 18 L62 19 M72 30 L72 31 " fill="none" stroke="black" /><circle cx="74" cy="14" fill="black" r="1" /><path d="M27 9 L27 11 M56 59 L58 59 L59 59 M37 10 L38 11 L38 20 M42 35 L43 34 M58 31 L63 34 L64 35 L64 36 M46 38 L45 41 L48 48 M55 67 L54 67 L54 64 M52 0 L53 3 M62 17 L62 18 L62 19 M72 30 L72 31 M75 20 L77 31 L77 43 L77 49 " fill="none" stroke="black" /><circle cx="73" cy="62" fill="black" r="1" /><path d="M27 9 L27 11 M56 59 L58 59 L59 59 M37 10 L38 11 L38 20 M42 35 L43 34 M58 31 L63 34 L64 35 L64 36 M46 38 L45 41 L48 48 M55 67 L54 67 L54 64 M52 0 L53 3 M62 17 L62 18 L62 19 M72 30 L72 31 M75 20 L77 31 L77 43 L77 49 M75 61 L76 61 " fill="none" stroke="black" /><circle cx="97" cy="47" fill="black" r="1" /><path d="M27 9 L27 11 M56 59 L58 59 L59 59 M37 10 L38 11 L38 20 M42 35 L43 34 M58 31 L63 34 L64 35 L64 36 M46 38 L45 41 L48 48 M55 67 L54 67 L54 64 M52 0 L53 3 M62 17 L62 18 L62 19 M72 30 L72 31 M75 20 L77 31 L77 43 L77 49 M75 61 L76 61 M86 29 L94 25 " fill="none" stroke="black" /><path d="M27 9 L27 11 M56 59 L58 59 L59 59 M37 10 L38 11 L38 20 M42 35 L43 34 M58 31 L63 34 L64 35 L64 36 M46 38 L45 41 L48 48 M55 67 L54 67 L54 64 M52 0 L53 3 M62 17 L62 18 L62 19 M72 30 L72 31 M75 20 L77 31 L77 43 L77 49 M75 61 L76 61 M86 29 L94 25 M96 19 L96 21 L96 35 " fill="none" stroke="black" /><circle cx="97" cy="52" fill="black" r="1" /><path d="M27 9 L27 11 M56 59 L58 59 L59 59 M37 10 L38 11 L38 20 M42 35 L43 34 M58 31 L63 34 L64 35 L64 36 M46 38 L45 41 L48 48 M55 67 L54 67 L54 64 M52 0 L53 3 M62 17 L62 18 L62 19 M72 30 L72 31 M75 20 L77 31 L77 43 L77 49 M75 61 L76 61 M86 29 L94 25 M96 19 L96 21 L96 35 M97 52 L96 53 " fill="none" stroke="black" /><circle cx="79" cy="67" fill="black" r="1" /><circle cx="109" cy="60" fill="black" r="1" /><circle cx="109" cy="60" fill="black" r="1" /><circle cx="106" cy="47" fill="black" r="1" /><circle cx="102" cy="59" fill="black" r="1" /><circle cx="70" cy="82" fill="black" r="1" /><path d="M27 9 L27 11 M56 59 L58 59 L59 59 M37 10 L38 11 L38 20 M42 35 L43 34 M58 31 L63 34 L64 35 L64 36 M46 38 L45 41 L48 48 M55 67 L54 67 L54 64 M52 0 L53 3 M62 17 L62 18 L62 19 M72 30 L72 31 M75 20 L77 31 L77 43 L77 49 M75 61 L76 61 M86 29 L94 25 M96 19 L96 21 L96 35 M97 52 L96 53 M98 81 L99 80 L100 80 " fill="none" stroke="black" /><circle cx="99" cy="59" fill="black" r="1" /><circle cx="128" cy="25" fill="black" r="1" /><path d="M27 9 L27 11 M56 59 L58 59 L59 59 M37 10 L38 11 L38 20 M42 35 L43 34 M58 31 L63 34 L64 35 L64 36 M46 38 L45 41 L48 48 M55 67 L54 67 L54 64 M52 0 L53 3 M62 17 L62 18 L62 19 M72 30 L72 31 M75 20 L77 31 L77 43 L77 49 M75 61 L76 61 M86 29 L94 25 M96 19 L96 21 L96 35 M97 52 L96 53 M98 81 L99 80 L100 80 M114 19 L114 23 L114 40 L114 45 " fill="none" stroke="black" /><circle cx="114" cy="45" fill="black" r="1" /><path d="M27 9 L27 11 M56 59 L58 59 L59 59 M37 10 L38 11 L38 20 M42 35 L43 34 M58 31 L63 34 L64 35 L64 36 M46 38 L45 41 L48 48 M55 67 L54 67 L54 64 M52 0 L53 3 M62 17 L62 18 L62 19 M72 30 L72 31 M75 20 L77 31 L77 43 L77 49 M75 61 L76 61 M86 29 L94 25 M96 19 L96 21 L96 35 M97 52 L96 53 M98 81 L99 80 L100 80 M114 19 L114 23 L114 40 L114 45 M122 60 L123 61 " fill="none" stroke="black" /><circle cx="124" cy="51" fill="black" r="1" /><path d="M27 9 L27 11 M56 59 L58 59 L59 59 M37 10 L38 11 L38 20 M42 35 L43 34 M58 31 L63 34 L64 35 L64 36 M46 38 L45 41 L48 48 M55 67 L54 67 L54 64 M52 0 L53 3 M62 17 L62 18 L62 19 M72 30 L72 31 M75 20 L77 31 L77 43 L77 49 M75 61 L76 61 M86 29 L94 25 M96 19 L96 21 L96 35 M97 52 L96 53 M98 81 L99 80 L100 80 M114 19 L114 23 L114 40 L114 45 M122 60 L123 61 M122 35 L123 35 " fill="none" stroke="black" /><path d="M27 9 L27 11 M56 59 L58 59 L59 59 M37 10 L38 11 L38 20 M42 35 L43 34 M58 31 L63 34 L64 35 L64 36 M46 38 L45 41 L48 48 M55 67 L54 67 L54 64 M52 0 L53 3 M62 17 L62 18 L62 19 M72 30 L72 31 M75 20 L77 31 L77 43 L77 49 M75 61 L76 61 M86 29 L94 25 M96 19 L96 21 L96 35 M97 52 L96 53 M98 81 L99 80 L100 80 M114 19 L114 23 L114 40 L114 45 M122 60 L123 61 M122 35 L123 35 M129 43 L130 43 L132 44 " fill="none" stroke="black" /><circle cx="136" cy="47" fill="black" r="1" /><circle cx="138" cy="40" fill="black" r="1" /><circle cx="138" cy="39" fill="black" r="1" /><circle cx="135" cy="13" fill="black" r="1" /><path d="M27 9 L27 11 M56 59 L58 59 L59 59 M37 10 L38 11 L38 20 M42 35 L43 34 M58 31 L63 34 L64 35 L64 36 M46 38 L45 41 L48 48 M55 67 L54 67 L54 64 M52 0 L53 3 M62 17 L62 18 L62 19 M72 30 L72 31 M75 20 L77 31 L77 43 L77 49 M75 61 L76 61 M86 29 L94 25 M96 19 L96 21 L96 35 M97 52 L96 53 M98 81 L99 80 L100 80 M114 19 L114 23 L114 40 L114 45 M122 60 L123 61 M122 35 L123 35 M129 43 L130 43 L132 44 M135 14 L136 24 L137 32 " fill="none" stroke="black" /><circle cx="137" cy="34" fill="black" r="1" /><circle cx="139" cy="58" fill="black" r="1" /><path d="M27 9 L27 11 M56 59 L58 59 L59 59 M37 10 L38 11 L38 20 M42 35 L43 34 M58 31 L63 34 L64 35 L64 36 M46 38 L45 41 L48 48 M55 67 L54 67 L54 64 M52 0 L53 3 M62 17 L62 18 L62 19 M72 30 L72 31 M75 20 L77 31 L77 43 L77 49 M75 61 L76 61 M86 29 L94 25 M96 19 L96 21 L96 35 M97 52 L96 53 M98 81 L99 80 L100 80 M114 19 L114 23 L114 40 L114 45 M122 60 L123 61 M122 35 L123 35 M129 43 L130 43 L132 44 M135 14 L136 24 L137 32 M142 59 L143 59 " fill="none" stroke="black" /><path d="M27 9 L27 11 M56 59 L58 59 L59 59 M37 10 L38 11 L38 20 M42 35 L43 34 M58 31 L63 34 L64 35 L64 36 M46 38 L45 41 L48 48 M55 67 L54 67 L54 64 M52 0 L53 3 M62 17 L62 18 L62 19 M72 30 L72 31 M75 20 L77 31 L77 43 L77 49 M75 61 L76 61 M86 29 L94 25 M96 19 L96 21 L96 35 M97 52 L96 53 M98 81 L99 80 L100 80 M114 19 L114 23 L114 40 L114 45 M122 60 L123 61 M122 35 L123 35 M129 43 L130 43 L132 44 M135 14 L136 24 L137 32 M142 59 L143 59 M145 51 L146 51 " fill="none" stroke="black" /><circle cx="148" cy="47" fill="black" r="1" /><circle cx="147" cy="38" fill="black" r="1" /><circle cx="148" cy="37" fill="black" r="1" /><circle cx="147" cy="27" fill="black" r="1" /><circle cx="147" cy="23" fill="black" r="1" /><circle cx="147" cy="19" fill="black" r="1" /><circle cx="160" cy="21" fill="black" r="1" /><circle cx="156" cy="37" fill="black" r="1" /><circle cx="162" cy="36" fill="black" r="1" /><circle cx="153" cy="49" fill="black" r="1" /><circle cx="168" cy="56" fill="black" r="1" /><circle cx="147" cy="55" fill="black" r="1" /><path d="M27 9 L27 11 M56 59 L58 59 L59 59 M37 10 L38 11 L38 20 M42 35 L43 34 M58 31 L63 34 L64 35 L64 36 M46 38 L45 41 L48 48 M55 67 L54 67 L54 64 M52 0 L53 3 M62 17 L62 18 L62 19 M72 30 L72 31 M75 20 L77 31 L77 43 L77 49 M75 61 L76 61 M86 29 L94 25 M96 19 L96 21 L96 35 M97 52 L96 53 M98 81 L99 80 L100 80 M114 19 L114 23 L114 40 L114 45 M122 60 L123 61 M122 35 L123 35 M129 43 L130 43 L132 44 M135 14 L136 24 L137 32 M142 59 L143 59 M145 51 L146 51 M147 68 L148 68 " fill="none" stroke="black" /><circle cx="159" cy="62" fill="black" r="1" /><circle cx="126" cy="72" fill="black" r="1" /><circle cx="184" cy="19" fill="black" r="1" /><circle cx="183" cy="43" fill="black" r="1" /><circle cx="183" cy="59" fill="black" r="1" /><circle cx="177" cy="31" fill="black" r="1" /><circle cx="176" cy="46" fill="black" r="1" /><circle cx="163" cy="45" fill="black" r="1" /><circle cx="193" cy="31" fill="black" r="1" /><path d="M27 9 L27 11 M56 59 L58 59 L59 59 M37 10 L38 11 L38 20 M42 35 L43 34 M58 31 L63 34 L64 35 L64 36 M46 38 L45 41 L48 48 M55 67 L54 67 L54 64 M52 0 L53 3 M62 17 L62 18 L62 19 M72 30 L72 31 M75 20 L77 31 L77 43 L77 49 M75 61 L76 61 M86 29 L94 25 M96 19 L96 21 L96 35 M97 52 L96 53 M98 81 L99 80 L100 80 M114 19 L114 23 L114 40 L114 45 M122 60 L123 61 M122 35 L123 35 M129 43 L130 43 L132 44 M135 14 L136 24 L137 32 M142 59 L143 59 M145 51 L146 51 M147 68 L148 68 M192 44 L192 45 " fill="none" stroke="black" /><circle cx="194" cy="54" fill="black" r="1" /><path d="M27 9 L27 11 M56 59 L58 59 L59 59 M37 10 L38 11 L38 20 M42 35 L43 34 M58 31 L63 34 L64 35 L64 36 M46 38 L45 41 L48 48 M55 67 L54 67 L54 64 M52 0 L53 3 M62 17 L62 18 L62 19 M72 30 L72 31 M75 20 L77 31 L77 43 L77 49 M75 61 L76 61 M86 29 L94 25 M96 19 L96 21 L96 35 M97 52 L96 53 M98 81 L99 80 L100 80 M114 19 L114 23 L114 40 L114 45 M122 60 L123 61 M122 35 L123 35 M129 43 L130 43 L132 44 M135 14 L136 24 L137 32 M142 59 L143 59 M145 51 L146 51 M147 68 L148 68 M192 44 L192 45 M201 22 L201 24 " fill="none" stroke="black" /><circle cx="201" cy="36" fill="black" r="1" /><circle cx="205" cy="42" fill="black" r="1" /><path d="M27 9 L27 11 M56 59 L58 59 L59 59 M37 10 L38 11 L38 20 M42 35 L43 34 M58 31 L63 34 L64 35 L64 36 M46 38 L45 41 L48 48 M55 67 L54 67 L54 64 M52 0 L53 3 M62 17 L62 18 L62 19 M72 30 L72 31 M75 20 L77 31 L77 43 L77 49 M75 61 L76 61 M86 29 L94 25 M96 19 L96 21 L96 35 M97 52 L96 53 M98 81 L99 80 L100 80 M114 19 L114 23 L114 40 L114 45 M122 60 L123 61 M122 35 L123 35 M129 43 L130 43 L132 44 M135 14 L136 24 L137 32 M142 59 L143 59 M145 51 L146 51 M147 68 L148 68 M192 44 L192 45 M201 22 L201 24 M202 52 L202 53 " fill="none" stroke="black" /><path d="M27 9 L27 11 M56 59 L58 59 L59 59 M37 10 L38 11 L38 20 M42 35 L43 34 M58 31 L63 34 L64 35 L64 36 M46 38 L45 41 L48 48 M55 67 L54 67 L54 64 M52 0 L53 3 M62 17 L62 18 L62 19 M72 30 L72 31 M75 20 L77 31 L77 43 L77 49 M75 61 L76 61 M86 29 L94 25 M96 19 L96 21 L96 35 M97 52 L96 53 M98 81 L99 80 L100 80 M114 19 L114 23 L114 40 L114 45 M122 60 L123 61 M122 35 L123 35 M129 43 L130 43 L132 44 M135 14 L136 24 L137 32 M142 59 L143 59 M145 51 L146 51 M147 68 L148 68 M192 44 L192 45 M201 22 L201 24 M202 52 L202 53 M216 57 L216 58 " fill="none" stroke="black" /><circle cx="214" cy="43" fill="black" r="1" /><path d="M27 9 L27 11 M56 59 L58 59 L59 59 M37 10 L38 11 L38 20 M42 35 L43 34 M58 31 L63 34 L64 35 L64 36 M46 38 L45 41 L48 48 M55 67 L54 67 L54 64 M52 0 L53 3 M62 17 L62 18 L62 19 M72 30 L72 31 M75 20 L77 31 L77 43 L77 49 M75 61 L76 61 M86 29 L94 25 M96 19 L96 21 L96 35 M97 52 L96 53 M98 81 L99 80 L100 80 M114 19 L114 23 L114 40 L114 45 M122 60 L123 61 M122 35 L123 35 M129 43 L130 43 L132 44 M135 14 L136 24 L137 32 M142 59 L143 59 M145 51 L146 51 M147 68 L148 68 M192 44 L192 45 M201 22 L201 24 M202 52 L202 53 M216 57 L216 58 M218 24 L219 24 " fill="none" stroke="black" /><path d="M27 9 L27 11 M56 59 L58 59 L59 59 M37 10 L38 11 L38 20 M42 35 L43 34 M58 31 L63 34 L64 35 L64 36 M46 38 L45 41 L48 48 M55 67 L54 67 L54 64 M52 0 L53 3 M62 17 L62 18 L62 19 M72 30 L72 31 M75 20 L77 31 L77 43 L77 49 M75 61 L76 61 M86 29 L94 25 M96 19 L96 21 L96 35 M97 52 L96 53 M98 81 L99 80 L100 80 M114 19 L114 23 L114 40 L114 45 M122 60 L123 61 M122 35 L123 35 M129 43 L130 43 L132 44 M135 14 L136 24 L137 32 M142 59 L143 59 M145 51 L146 51 M147 68 L148 68 M192 44 L192 45 M201 22 L201 24 M202 52 L202 53 M216 57 L216 58 M218 24 L219 24 M232 47 L232 48 " fill="none" stroke="black" /><circle cx="227" cy="52" fill="black" r="1" /><circle cx="226" cy="15" fill="black" r="1" /><circle cx="225" cy="35" fill="black" r="1" /><path d="M27 9 L27 11 M56 59 L58 59 L59 59 M37 10 L38 11 L38 20 M42 35 L43 34 M58 31 L63 34 L64 35 L64 36 M46 38 L45 41 L48 48 M55 67 L54 67 L54 64 M52 0 L53 3 M62 17 L62 18 L62 19 M72 30 L72 31 M75 20 L77 31 L77 43 L77 49 M75 61 L76 61 M86 29 L94 25 M96 19 L96 21 L96 35 M97 52 L96 53 M98 81 L99 80 L100 80 M114 19 L114 23 L114 40 L114 45 M122 60 L123 61 M122 35 L123 35 M129 43 L130 43 L132 44 M135 14 L136 24 L137 32 M142 59 L143 59 M145 51 L146 51 M147 68 L148 68 M192 44 L192 45 M201 22 L201 24 M202 52 L202 53 M216 57 L216 58 M218 24 L219 24 M232 47 L232 48 M242 41 L243 45 " fill="none" stroke="black" /><circle cx="238" cy="58" fill="black" r="1" /><circle cx="241" cy="36" fill="black" r="1" /><circle cx="253" cy="31" fill="black" r="1" /><circle cx="247" cy="55" fill="black" r="1" /><circle cx="229" cy="17" fill="black" r="1" /><circle cx="251" cy="49" fill="black" r="1" /><circle cx="248" cy="21" fill="black" r="1" /></svg>