<?xml version="1.0" encoding="utf-8" ?>
<svg baseProfile="tiny" height="661" version="1.2" viewBox="-3 -3 1086 661" width="1086" xmlns="http://www.w3.org/2000/svg" xmlns:ev="http://www.w3.org/2001/xml-events" xmlns:xlink="http://www.w3.org/1999/xlink"><defs /><path d="M215 500 L216 500 L218 500 L220 500 L221 500 L223 500 L223 501 L227 501 L229 501 L232 501 L236 501 L238 502 L242 503 L244 505 L247 507 L248 508 L250 509 L253 511 L254 512 L255 512 L256 513 L257 513 L258 514 " fill="none" stroke="black" /><path d="M215 500 L216 500 L218 500 L220 500 L221 500 L223 500 L223 501 L227 501 L229 501 L232 501 L236 501 L238 502 L242 503 L244 505 L247 507 L248 508 L250 509 L253 511 L254 512 L255 512 L256 513 L257 513 L258 514 M151 521 L149 485 L149 432 L163 378 L217 315 L362 276 L525 331 L686 466 L728 526 L743 558 L747 566 L747 571 L747 591 " fill="none" stroke="black" /><path d="M215 500 L216 500 L218 500 L220 500 L221 500 L223 500 L223 501 L227 501 L229 501 L232 501 L236 501 L238 502 L242 503 L244 505 L247 507 L248 508 L250 509 L253 511 L254 512 L255 512 L256 513 L257 513 L258 514 M151 521 L149 485 L149 432 L163 378 L217 315 L362 276 L525 331 L686 466 L728 526 L743 558 L747 566 L747 571 L747 591 M192 491 L202 478 L220 468 L238 464 L250 464 L260 470 L283 480 L309 494 L315 509 L320 537 L320 549 L320 563 L320 574 L320 577 L320 579 L320 580 L320 585 L316 591 L315 592 " fill="none" stroke="black" /><path d="M215 500 L216 500 L218 500 L220 500 L221 500 L223 500 L223 501 L227 501 L229 501 L232 501 L236 501 L238 502 L242 503 L244 505 L247 507 L248 508 L250 509 L253 511 L254 512 L255 512 L256 513 L257 513 L258 514 M151 521 L149 485 L149 432 L163 378 L217 315 L362 276 L525 331 L686 466 L728 526 L743 558 L747 566 L747 571 L747 591 M192 491 L202 478 L220 468 L238 464 L250 464 L260 470 L283 480 L309 494 L315 509 L320 537 L320 549 L320 563 L320 574 L320 577 L320 579 L320 580 L320 585 L316 591 L315 592 M138 544 L117 515 L96 479 L83 432 L79 370 L151 258 L357 162 L760 177 L963 285 L1061 434 L1085 502 L1086 513 L1086 526 L1081 553 L1076 571 L1072 579 L1058 595 L1030 611 L999 628 L978 640 L972 643 L897 653 L709 657 L677 661 L560 632 L377 556 L258 502 L213 485 L211 480 L209 440 L248 356 L441 259 L564 240 L584 313 L489 485 L233 559 L0 408 L3 283 L213 132 L483 24 L669 115 L707 283 L671 441 L499 524 L387 525 L383 514 L412 484 " fill="none" stroke="black" /><path d="M215 500 L216 500 L218 500 L220 500 L221 500 L223 500 L223 501 L227 501 L229 501 L232 501 L236 501 L238 502 L242 503 L244 505 L247 507 L248 508 L250 509 L253 511 L254 512 L255 512 L256 513 L257 513 L258 514 M151 521 L149 485 L149 432 L163 378 L217 315 L362 276 L525 331 L686 466 L728 526 L743 558 L747 566 L747 571 L747 591 M192 491 L202 478 L220 468 L238 464 L250 464 L260 470 L283 480 L309 494 L315 509 L320 537 L320 549 L320 563 L320 574 L320 577 L320 579 L320 580 L320 585 L316 591 L315 592 M138 544 L117 515 L96 479 L83 432 L79 370 L151 258 L357 162 L760 177 L963 285 L1061 434 L1085 502 L1086 513 L1086 526 L1081 553 L1076 571 L1072 579 L1058 595 L1030 611 L999 628 L978 640 L972 643 L897 653 L709 657 L677 661 L560 632 L377 556 L258 502 L213 485 L211 480 L209 440 L248 356 L441 259 L564 240 L584 313 L489 485 L233 559 L0 408 L3 283 L213 132 L483 24 L669 115 L707 283 L671 441 L499 524 L387 525 L383 514 L412 484 M698 21 L711 23 L735 27 L739 28 L744 30 L749 32 L755 34 L761 36 L767 37 L771 38 L776 39 L781 41 L784 42 L787 45 L800 58 L808 67 L812 73 L816 78 L820 86 L823 96 L823 98 " fill="none" stroke="black" /><circle cx="814" cy="0" fill="black" r="1" /><circle cx="838" cy="80" fill="black" r="1" /><circle cx="897" cy="26" fill="black" r="1" /><circle cx="899" cy="129" fill="black" r="1" /><path d="M215 500 L216 500 L218 500 L220 500 L221 500 L223 500 L223 501 L227 501 L229 501 L232 501 L236 501 L238 502 L242 503 L244 505 L247 507 L248 508 L250 509 L253 511 L254 512 L255 512 L256 513 L257 513 L258 514 M151 521 L149 485 L149 432 L163 378 L217 315 L362 276 L525 331 L686 466 L728 526 L743 558 L747 566 L747 571 L747 591 M192 491 L202 478 L220 468 L238 464 L250 464 L260 470 L283 480 L309 494 L315 509 L320 537 L320 549 L320 563 L320 574 L320 577 L320 579 L320 580 L320 585 L316 591 L315 592 M138 544 L117 515 L96 479 L83 432 L79 370 L151 258 L357 162 L760 177 L963 285 L1061 434 L1085 502 L1086 513 L1086 526 L1081 553 L1076 571 L1072 579 L1058 595 L1030 611 L999 628 L978 640 L972 643 L897 653 L709 657 L677 661 L560 632 L377 556 L258 502 L213 485 L211 480 L209 440 L248 356 L441 259 L564 240 L584 313 L489 485 L233 559 L0 408 L3 283 L213 132 L483 24 L669 115 L707 283 L671 441 L499 524 L387 525 L383 514 L412 484 M698 21 L711 23 L735 27 L739 28 L744 30 L749 32 L755 34 L761 36 L767 37 L771 38 L776 39 L781 41 L784 42 L787 45 L800 58 L808 67 L812 73 L816 78 L820 86 L823 96 L823 98 M967 221 L968 221 " fill="none" stroke="black" /><circle cx="1020" cy="133" fill="black" r="1" /><circle cx="787" cy="134" fill="black" r="1" /><circle cx="602" cy="17" fill="black" r="1" /><circle cx="666" cy="92" fill="black" r="1" /><circle cx="978" cy="20" fill="black" r="1" /><circle cx="954" cy="147" fill="black" r="1" /><circle cx="747" cy="123" fill="black" r="1" /><circle cx="894" cy="153" fill="black" r="1" /><path d="M215 500 L216 500 L218 500 L220 500 L221 500 L223 500 L223 501 L227 501 L229 501 L232 501 L236 501 L238 502 L242 503 L244 505 L247 507 L248 508 L250 509 L253 511 L254 512 L255 512 L256 513 L257 513 L258 514 M151 521 L149 485 L149 432 L163 378 L217 315 L362 276 L525 331 L686 466 L728 526 L743 558 L747 566 L747 571 L747 591 M192 491 L202 478 L220 468 L238 464 L250 464 L260 470 L283 480 L309 494 L315 509 L320 537 L320 549 L320 563 L320 574 L320 577 L320 579 L320 580 L320 585 L316 591 L315 592 M138 544 L117 515 L96 479 L83 432 L79 370 L151 258 L357 162 L760 177 L963 285 L1061 434 L1085 502 L1086 513 L1086 526 L1081 553 L1076 571 L1072 579 L1058 595 L1030 611 L999 628 L978 640 L972 643 L897 653 L709 657 L677 661 L560 632 L377 556 L258 502 L213 485 L211 480 L209 440 L248 356 L441 259 L564 240 L584 313 L489 485 L233 559 L0 408 L3 283 L213 132 L483 24 L669 115 L707 283 L671 441 L499 524 L387 525 L383 514 L412 484 M698 21 L711 23 L735 27 L739 28 L744 30 L749 32 L755 34 L761 36 L767 37 L771 38 L776 39 L781 41 L784 42 L787 45 L800 58 L808 67 L812 73 L816 78 L820 86 L823 96 L823 98 M967 221 L968 221 M863 196 L868 188 L874 180 L878 176 L880 175 L884 175 L890 175 L895 180 L895 186 L895 188 L895 191 L890 206 L889 207 " fill="none" stroke="black" /></svg>