<?xml version="1.0" encoding="utf-8" ?>
<svg baseProfile="tiny" height="318" version="1.2" viewBox="-3 -3 364 318" width="364" xmlns="http://www.w3.org/2000/svg" xmlns:ev="http://www.w3.org/2001/xml-events" xmlns:xlink="http://www.w3.org/1999/xlink"><defs /><path d="M21 264 L17 260 L13 253 L10 250 L8 242 L5 237 L4 231 L2 226 L1 218 L0 210 L0 204 L0 197 L0 187 L0 180 L1 172 L3 167 L6 160 L9 154 L11 149 L13 145 L16 141 L22 133 L24 130 L28 124 L30 121 L32 115 L39 108 L41 100 L59 86 L62 83 L63 83 L75 69 L76 69 L82 61 L96 48 L97 47 L98 47 L113 39 L140 31 L185 16 L190 14 L202 14 L218 5 L225 2 L226 2 L229 2 L231 0 " fill="none" stroke="black" /><path d="M21 264 L17 260 L13 253 L10 250 L8 242 L5 237 L4 231 L2 226 L1 218 L0 210 L0 204 L0 197 L0 187 L0 180 L1 172 L3 167 L6 160 L9 154 L11 149 L13 145 L16 141 L22 133 L24 130 L28 124 L30 121 L32 115 L39 108 L41 100 L59 86 L62 83 L63 83 L75 69 L76 69 L82 61 L96 48 L97 47 L98 47 L113 39 L140 31 L185 16 L190 14 L202 14 L218 5 L225 2 L226 2 L229 2 L231 0 M141 290 L134 288 L125 273 L118 258 L113 241 L112 228 L109 215 L108 199 L107 184 L105 171 L105 160 L105 148 L109 138 L111 133 L113 128 L117 120 L120 115 L123 110 L127 104 L130 100 L136 92 L140 89 L141 88 L145 84 L147 82 L158 75 L162 72 L166 69 L175 62 L179 61 L181 61 L185 61 L187 59 L190 58 L196 55 L208 52 L213 51 L214 50 L218 49 L223 47 L224 47 L231 47 L239 45 L244 44 L258 41 L289 36 L302 35 L306 35 L313 35 L314 35 L317 35 L339 37 L340 38 L343 38 L346 40 " fill="none" stroke="black" /><path d="M21 264 L17 260 L13 253 L10 250 L8 242 L5 237 L4 231 L2 226 L1 218 L0 210 L0 204 L0 197 L0 187 L0 180 L1 172 L3 167 L6 160 L9 154 L11 149 L13 145 L16 141 L22 133 L24 130 L28 124 L30 121 L32 115 L39 108 L41 100 L59 86 L62 83 L63 83 L75 69 L76 69 L82 61 L96 48 L97 47 L98 47 L113 39 L140 31 L185 16 L190 14 L202 14 L218 5 L225 2 L226 2 L229 2 L231 0 M141 290 L134 288 L125 273 L118 258 L113 241 L112 228 L109 215 L108 199 L107 184 L105 171 L105 160 L105 148 L109 138 L111 133 L113 128 L117 120 L120 115 L123 110 L127 104 L130 100 L136 92 L140 89 L141 88 L145 84 L147 82 L158 75 L162 72 L166 69 L175 62 L179 61 L181 61 L185 61 L187 59 L190 58 L196 55 L208 52 L213 51 L214 50 L218 49 L223 47 L224 47 L231 47 L239 45 L244 44 L258 41 L289 36 L302 35 L306 35 L313 35 L314 35 L317 35 L339 37 L340 38 L343 38 L346 40 M249 318 L249 315 L246 311 L242 302 L237 290 L228 269 L222 255 L215 243 L208 227 L205 208 L204 189 L204 173 L207 163 L209 156 L211 150 L215 143 L217 138 L221 132 L225 128 L228 125 L230 122 L235 116 L242 109 L249 105 L255 101 L265 96 L275 92 L278 92 L281 92 L283 92 L294 89 L306 88 L311 87 L313 87 L315 86 L317 86 L321 85 L322 85 L329 85 L337 85 L340 85 L341 85 L343 86 L348 86 L355 86 L360 87 L364 88 L364 91 " fill="none" stroke="black" /></svg>