<?xml version="1.0" encoding="utf-8" ?>
<svg baseProfile="tiny" height="145" version="1.2" viewBox="-3 -3 931 145" width="931" xmlns="http://www.w3.org/2000/svg" xmlns:ev="http://www.w3.org/2001/xml-events" xmlns:xlink="http://www.w3.org/1999/xlink"><defs /><path d="M57 61 L57 62 L57 65 L81 83 L136 110 L179 124 L207 127 L228 132 L246 137 L277 139 L319 139 L364 139 L386 139 L389 139 L390 139 L394 139 L453 136 L487 132 L494 130 L500 128 L545 116 L558 112 L559 111 L566 108 L604 100 L613 98 L619 94 L641 85 L646 83 L649 80 L657 76 L663 71 L666 70 L676 65 L688 58 L695 54 L707 47 L715 42 L718 39 L722 36 L726 33 L731 28 L735 25 L737 22 L740 19 L742 15 L745 12 L745 10 L754 1 L756 0 " fill="none" stroke="black" /><path d="M57 61 L57 62 L57 65 L81 83 L136 110 L179 124 L207 127 L228 132 L246 137 L277 139 L319 139 L364 139 L386 139 L389 139 L390 139 L394 139 L453 136 L487 132 L494 130 L500 128 L545 116 L558 112 L559 111 L566 108 L604 100 L613 98 L619 94 L641 85 L646 83 L649 80 L657 76 L663 71 L666 70 L676 65 L688 58 L695 54 L707 47 L715 42 L718 39 L722 36 L726 33 L731 28 L735 25 L737 22 L740 19 L742 15 L745 12 L745 10 L754 1 L756 0 M0 137 L16 138 L55 138 L87 138 L117 138 L149 138 L182 138 L204 138 L224 138 L246 140 L267 143 L289 145 L308 145 L329 145 L362 145 L393 145 L403 145 L422 145 L460 145 L474 145 L488 145 L518 145 L548 145 L559 145 L576 145 L607 145 L636 145 L655 145 L677 145 L709 145 L734 145 L745 145 L764 144 L787 140 L797 139 L800 139 L801 139 L837 139 L868 139 L873 139 L888 139 L921 139 L931 138 " fill="none" stroke="black" /></svg>