<?xml version="1.0" encoding="utf-8" ?>
<svg baseProfile="tiny" height="85" version="1.2" viewBox="-3 -3 105 85" width="105" xmlns="http://www.w3.org/2000/svg" xmlns:ev="http://www.w3.org/2001/xml-events" xmlns:xlink="http://www.w3.org/1999/xlink"><defs /><path d="M65 5 L60 3 L57 2 L53 2 L47 1 L45 0 L44 0 L41 0 L38 0 L34 0 L28 0 L22 3 L19 4 L15 7 L13 8 L12 10 L4 18 L2 20 L0 33 L0 42 L7 61 L16 71 L20 73 L22 73 L30 80 L40 85 L44 85 L46 85 L49 85 L52 85 L55 85 L58 85 L61 84 L63 84 L65 83 L68 81 L70 80 L75 78 L89 68 L96 64 L104 55 L104 54 L105 44 L105 40 L104 39 L103 33 L102 29 L99 23 L97 22 L94 20 L89 18 L84 16 L78 14 L75 13 L71 10 L69 9 L66 9 L63 8 L60 8 L58 8 L54 7 L53 7 L51 7 L49 7 L47 8 L45 8 L42 8 L40 9 L40 10 L39 10 L38 11 L38 10 L44 9 L52 9 L54 10 L55 13 L56 19 L52 27 L51 28 L47 32 L41 40 L39 42 L39 53 L40 59 L42 63 L44 63 L51 66 L55 68 L58 68 L59 68 L60 68 L62 68 L77 62 L83 56 L84 53 L84 51 L84 47 L84 46 L82 43 L80 41 L79 39 L74 39 L70 37 L67 37 L66 37 L65 37 L61 43 L61 44 L61 46 L62 46 L63 46 L65 46 " fill="none" stroke="black" /><path d="M65 5 L60 3 L57 2 L53 2 L47 1 L45 0 L44 0 L41 0 L38 0 L34 0 L28 0 L22 3 L19 4 L15 7 L13 8 L12 10 L4 18 L2 20 L0 33 L0 42 L7 61 L16 71 L20 73 L22 73 L30 80 L40 85 L44 85 L46 85 L49 85 L52 85 L55 85 L58 85 L61 84 L63 84 L65 83 L68 81 L70 80 L75 78 L89 68 L96 64 L104 55 L104 54 L105 44 L105 40 L104 39 L103 33 L102 29 L99 23 L97 22 L94 20 L89 18 L84 16 L78 14 L75 13 L71 10 L69 9 L66 9 L63 8 L60 8 L58 8 L54 7 L53 7 L51 7 L49 7 L47 8 L45 8 L42 8 L40 9 L40 10 L39 10 L38 11 L38 10 L44 9 L52 9 L54 10 L55 13 L56 19 L52 27 L51 28 L47 32 L41 40 L39 42 L39 53 L40 59 L42 63 L44 63 L51 66 L55 68 L58 68 L59 68 L60 68 L62 68 L77 62 L83 56 L84 53 L84 51 L84 47 L84 46 L82 43 L80 41 L79 39 L74 39 L70 37 L67 37 L66 37 L65 37 L61 43 L61 44 L61 46 L62 46 L63 46 L65 46 M24 22 L18 34 L14 41 L14 44 L14 47 L16 50 L17 52 L18 52 L22 55 L23 56 L24 58 L24 64 L24 65 L23 65 L22 66 L21 66 L20 66 L18 67 " fill="none" stroke="black" /><path d="M65 5 L60 3 L57 2 L53 2 L47 1 L45 0 L44 0 L41 0 L38 0 L34 0 L28 0 L22 3 L19 4 L15 7 L13 8 L12 10 L4 18 L2 20 L0 33 L0 42 L7 61 L16 71 L20 73 L22 73 L30 80 L40 85 L44 85 L46 85 L49 85 L52 85 L55 85 L58 85 L61 84 L63 84 L65 83 L68 81 L70 80 L75 78 L89 68 L96 64 L104 55 L104 54 L105 44 L105 40 L104 39 L103 33 L102 29 L99 23 L97 22 L94 20 L89 18 L84 16 L78 14 L75 13 L71 10 L69 9 L66 9 L63 8 L60 8 L58 8 L54 7 L53 7 L51 7 L49 7 L47 8 L45 8 L42 8 L40 9 L40 10 L39 10 L38 11 L38 10 L44 9 L52 9 L54 10 L55 13 L56 19 L52 27 L51 28 L47 32 L41 40 L39 42 L39 53 L40 59 L42 63 L44 63 L51 66 L55 68 L58 68 L59 68 L60 68 L62 68 L77 62 L83 56 L84 53 L84 51 L84 47 L84 46 L82 43 L80 41 L79 39 L74 39 L70 37 L67 37 L66 37 L65 37 L61 43 L61 44 L61 46 L62 46 L63 46 L65 46 M24 22 L18 34 L14 41 L14 44 L14 47 L16 50 L17 52 L18 52 L22 55 L23 56 L24 58 L24 64 L24 65 L23 65 L22 66 L21 66 L20 66 L18 67 M23 12 L30 17 L34 20 L35 22 L37 27 L38 34 L38 40 L38 46 L38 50 L38 57 L38 61 L38 64 L38 66 L38 71 L40 76 L41 76 L42 76 L43 76 L45 76 L46 76 " fill="none" stroke="black" /></svg>