<?xml version="1.0" encoding="utf-8" ?>
<svg baseProfile="tiny" height="366" version="1.2" viewBox="-3 -3 1408 366" width="1408" xmlns="http://www.w3.org/2000/svg" xmlns:ev="http://www.w3.org/2001/xml-events" xmlns:xlink="http://www.w3.org/1999/xlink"><defs /><path d="M0 246 L0 283 L0 324 L0 354 L0 366 L69 366 L281 359 L491 354 L598 354 L689 351 L735 345 L743 343 " fill="none" stroke="black" /><path d="M0 246 L0 283 L0 324 L0 354 L0 366 L69 366 L281 359 L491 354 L598 354 L689 351 L735 345 L743 343 M743 343 L744 329 L763 276 L771 263 L780 249 L793 227 L800 217 L813 198 L833 166 L846 141 L854 123 L864 105 L870 96 L871 94 L893 77 L918 65 L923 63 L934 62 L1019 50 L1074 40 L1120 35 L1222 26 L1325 12 L1390 3 L1408 0 " fill="none" stroke="black" /></svg>