<?xml version="1.0" encoding="utf-8" ?>
<svg baseProfile="tiny" height="171" version="1.2" viewBox="-3 -3 289 171" width="289" xmlns="http://www.w3.org/2000/svg" xmlns:ev="http://www.w3.org/2001/xml-events" xmlns:xlink="http://www.w3.org/1999/xlink"><defs /><path d="M135 117 L81 103 L106 97 L178 88 L185 88 L142 111 L116 122 L121 122 L174 117 L182 115 L151 104 L136 97 L151 92 L248 101 L287 119 L282 120 L225 114 L194 95 L192 85 L203 79 L227 90 L237 103 L237 104 L226 101 L183 90 L171 90 L175 107 L255 120 L289 113 L256 96 L203 92 L198 92 L203 87 L223 77 L232 64 L233 63 L229 67 L205 107 L194 147 L193 148 L191 131 L184 109 L184 102 L187 100 L192 105 L190 125 L183 131 L182 133 L180 136 L177 135 L155 97 L143 72 L142 72 L165 113 L184 136 L174 125 L142 106 L131 102 L132 110 L168 131 L191 133 L192 126 L170 101 L135 93 L134 96 L166 105 L214 100 L215 97 L209 97 L211 95 L265 65 L280 47 L251 33 L195 17 L185 16 L187 20 L197 54 L211 88 L214 95 L214 97 L196 93 L130 78 L114 76 L114 83 L159 120 L182 133 L149 120 L127 79 L134 33 L162 2 L191 0 L213 19 L241 44 L244 50 L227 64 L134 84 L12 93 L0 92 L93 91 L200 91 L204 93 L152 101 L49 121 L35 122 L100 133 L166 138 L170 139 L167 141 L158 151 L157 169 L180 171 L200 148 L190 106 L169 70 L168 66 L172 67 L206 114 L217 151 L220 158 L216 137 L215 120 L228 115 L244 115 L252 115 L251 113 L231 99 L216 92 L231 90 L257 85 L239 84 L152 83 L146 83 L169 87 L201 97 L199 104 L155 112 L107 112 L103 111 L110 90 L119 68 L131 40 L136 28 L151 26 L190 32 L204 45 L201 52 L138 60 L112 60 L130 72 L174 98 " fill="none" stroke="black" /></svg>