<?xml version="1.0" encoding="utf-8" ?>
<svg baseProfile="tiny" height="483" version="1.2" viewBox="-3 -3 599 483" width="599" xmlns="http://www.w3.org/2000/svg" xmlns:ev="http://www.w3.org/2001/xml-events" xmlns:xlink="http://www.w3.org/1999/xlink"><defs /><path d="M38 43 L20 77 L8 111 L3 143 L0 173 L7 208 L25 257 L35 292 L44 317 L58 345 L75 371 L102 397 L131 420 L174 441 L201 455 L229 466 L264 479 L303 483 L346 483 L388 479 L432 459 L449 452 L467 439 L499 419 L519 406 L553 380 L577 351 L584 330 L589 307 L593 281 L598 248 L599 224 L599 207 L596 174 L592 153 L589 129 L580 105 L573 93 L568 87 L564 81 L559 77 L551 67 L545 58 L538 47 L529 40 L523 34 L511 27 L499 22 L484 16 L468 11 L465 11 L461 8 L434 3 L424 1 L423 0 L419 4 " fill="none" stroke="black" /><path d="M38 43 L20 77 L8 111 L3 143 L0 173 L7 208 L25 257 L35 292 L44 317 L58 345 L75 371 L102 397 L131 420 L174 441 L201 455 L229 466 L264 479 L303 483 L346 483 L388 479 L432 459 L449 452 L467 439 L499 419 L519 406 L553 380 L577 351 L584 330 L589 307 L593 281 L598 248 L599 224 L599 207 L596 174 L592 153 L589 129 L580 105 L573 93 L568 87 L564 81 L559 77 L551 67 L545 58 L538 47 L529 40 L523 34 L511 27 L499 22 L484 16 L468 11 L465 11 L461 8 L434 3 L424 1 L423 0 L419 4 M420 49 L419 47 L412 43 L395 36 L366 31 L343 28 L325 26 L298 26 L261 28 L195 50 L164 69 L151 88 L146 108 L144 131 L142 158 L142 191 L142 217 L142 234 L143 252 L156 288 L173 324 L190 343 L211 361 L236 381 L256 395 L273 404 L312 418 L335 427 L364 429 L394 426 L402 423 L431 406 L445 396 L460 374 L467 353 L478 327 L488 298 L496 254 L500 233 L502 213 L502 181 L504 173 L503 162 L494 144 L485 131 L475 122 L464 110 L455 102 L435 91 L419 83 L418 82 L396 72 L358 61 L347 57 L310 68 L295 74 L288 77 L278 80 L258 90 L244 95 L217 108 L200 115 L195 120 L187 132 L180 149 L175 168 L175 189 L175 206 L175 233 L183 263 L194 290 L221 326 L244 350 L269 363 L292 369 L313 372 L325 372 L347 371 L374 359 L405 344 L425 325 L445 308 L458 298 L468 284 L484 257 L490 237 L494 211 L495 191 L495 176 L488 157 L474 137 L463 130 L457 127 L455 128 " fill="none" stroke="black" /></svg>