<?xml version="1.0" encoding="utf-8" ?>
<svg baseProfile="tiny" height="83" version="1.2" viewBox="-3 -3 1310 83" width="1310" xmlns="http://www.w3.org/2000/svg" xmlns:ev="http://www.w3.org/2001/xml-events" xmlns:xlink="http://www.w3.org/1999/xlink"><defs /><path d="M1297 7 L1298 7 " fill="none" stroke="black" /><path d="M1297 7 L1298 7 M0 41 L0 48 L1 60 L1 67 L1 73 L2 73 L22 65 L36 49 L39 45 L46 56 L56 76 L61 83 L76 69 L108 48 L123 43 L126 43 L128 43 L143 45 L156 51 L170 53 L176 53 L203 37 L221 27 L224 27 L232 37 L239 45 L246 48 L263 48 L277 45 L284 42 L302 37 L333 33 L334 33 L337 36 L338 39 L340 44 L344 49 L357 51 L377 49 L396 39 L401 36 L407 36 L425 40 L437 45 L450 47 L464 47 L492 46 L519 33 L543 22 L554 21 L561 22 L565 25 L572 28 L586 35 L598 39 L599 39 L619 39 L642 39 L644 37 L645 35 L651 35 L675 40 L689 44 L690 44 L731 30 L774 20 L795 17 L796 19 L796 20 L799 24 L801 27 L821 24 L870 10 L896 6 L897 6 L901 10 L908 17 L915 21 L934 22 L962 22 L969 22 L972 22 L1007 22 L1017 23 L1022 26 L1036 35 L1043 39 L1051 41 L1073 42 L1110 33 L1153 18 L1164 15 L1172 18 L1185 26 L1204 28 L1216 26 L1226 16 L1240 1 L1241 0 L1249 4 L1254 10 L1255 10 L1281 10 L1304 8 L1307 8 L1308 11 L1310 15 L1310 16 L1245 17 L1207 13 L1187 8 L1174 8 L1172 11 L1167 27 L1145 45 L1140 46 L1120 31 L1115 26 L1120 20 L1115 27 L1104 41 L1102 41 L1082 33 L1070 30 L1069 30 L1063 31 L1062 38 L1061 40 L1061 41 L1056 37 L1056 36 L1056 37 L1049 38 L1032 40 L1032 41 L1020 24 L1001 10 L958 9 L878 26 L811 48 L770 48 L746 43 L735 37 L707 26 L703 26 L701 27 L693 59 L692 59 " fill="none" stroke="black" /></svg>