<?xml version="1.0" encoding="utf-8" ?>
<svg baseProfile="tiny" height="465" version="1.2" viewBox="-3 -3 586 465" width="586" xmlns="http://www.w3.org/2000/svg" xmlns:ev="http://www.w3.org/2001/xml-events" xmlns:xlink="http://www.w3.org/1999/xlink"><defs /><path d="M0 65 L9 96 L28 141 L58 211 L82 268 L106 350 L135 443 L144 465 L149 428 L176 361 L218 266 L274 161 L324 81 L342 60 L342 59 L342 64 L401 155 L448 226 L472 269 L500 318 L520 358 L530 378 L535 390 L535 382 L543 330 L553 245 L561 162 L567 118 L570 97 L573 84 L574 71 L578 47 L580 30 L584 13 L586 2 L586 0 " fill="none" stroke="black" /><path d="M0 65 L9 96 L28 141 L58 211 L82 268 L106 350 L135 443 L144 465 L149 428 L176 361 L218 266 L274 161 L324 81 L342 60 L342 59 L342 64 L401 155 L448 226 L472 269 L500 318 L520 358 L530 378 L535 390 L535 382 L543 330 L553 245 L561 162 L567 118 L570 97 L573 84 L574 71 L578 47 L580 30 L584 13 L586 2 L586 0 M113 119 L121 124 L131 128 L133 133 L122 150 L92 169 L79 180 L79 181 L84 185 L105 192 L128 198 L142 203 L143 208 L143 220 L116 244 L90 261 L89 269 L107 283 L148 295 L182 305 L185 307 L185 308 L183 326 L173 348 L159 363 L155 369 L155 370 L155 371 " fill="none" stroke="black" /><path d="M0 65 L9 96 L28 141 L58 211 L82 268 L106 350 L135 443 L144 465 L149 428 L176 361 L218 266 L274 161 L324 81 L342 60 L342 59 L342 64 L401 155 L448 226 L472 269 L500 318 L520 358 L530 378 L535 390 L535 382 L543 330 L553 245 L561 162 L567 118 L570 97 L573 84 L574 71 L578 47 L580 30 L584 13 L586 2 L586 0 M113 119 L121 124 L131 128 L133 133 L122 150 L92 169 L79 180 L79 181 L84 185 L105 192 L128 198 L142 203 L143 208 L143 220 L116 244 L90 261 L89 269 L107 283 L148 295 L182 305 L185 307 L185 308 L183 326 L173 348 L159 363 L155 369 L155 370 L155 371 M413 53 L418 58 L452 72 L465 80 L467 84 L462 102 L433 135 L430 139 L430 142 L439 152 L461 162 L468 166 L470 170 L471 182 L472 199 L470 222 L470 239 L477 256 L520 281 L538 288 L539 288 L539 289 L522 302 L519 317 L521 329 L523 332 L526 335 L527 336 L529 341 L531 348 " fill="none" stroke="black" /><path d="M0 65 L9 96 L28 141 L58 211 L82 268 L106 350 L135 443 L144 465 L149 428 L176 361 L218 266 L274 161 L324 81 L342 60 L342 59 L342 64 L401 155 L448 226 L472 269 L500 318 L520 358 L530 378 L535 390 L535 382 L543 330 L553 245 L561 162 L567 118 L570 97 L573 84 L574 71 L578 47 L580 30 L584 13 L586 2 L586 0 M113 119 L121 124 L131 128 L133 133 L122 150 L92 169 L79 180 L79 181 L84 185 L105 192 L128 198 L142 203 L143 208 L143 220 L116 244 L90 261 L89 269 L107 283 L148 295 L182 305 L185 307 L185 308 L183 326 L173 348 L159 363 L155 369 L155 370 L155 371 M413 53 L418 58 L452 72 L465 80 L467 84 L462 102 L433 135 L430 139 L430 142 L439 152 L461 162 L468 166 L470 170 L471 182 L472 199 L470 222 L470 239 L477 256 L520 281 L538 288 L539 288 L539 289 L522 302 L519 317 L521 329 L523 332 L526 335 L527 336 L529 341 L531 348 M273 223 L273 224 L288 225 L344 227 L398 227 L410 227 " fill="none" stroke="black" /><path d="M0 65 L9 96 L28 141 L58 211 L82 268 L106 350 L135 443 L144 465 L149 428 L176 361 L218 266 L274 161 L324 81 L342 60 L342 59 L342 64 L401 155 L448 226 L472 269 L500 318 L520 358 L530 378 L535 390 L535 382 L543 330 L553 245 L561 162 L567 118 L570 97 L573 84 L574 71 L578 47 L580 30 L584 13 L586 2 L586 0 M113 119 L121 124 L131 128 L133 133 L122 150 L92 169 L79 180 L79 181 L84 185 L105 192 L128 198 L142 203 L143 208 L143 220 L116 244 L90 261 L89 269 L107 283 L148 295 L182 305 L185 307 L185 308 L183 326 L173 348 L159 363 L155 369 L155 370 L155 371 M413 53 L418 58 L452 72 L465 80 L467 84 L462 102 L433 135 L430 139 L430 142 L439 152 L461 162 L468 166 L470 170 L471 182 L472 199 L470 222 L470 239 L477 256 L520 281 L538 288 L539 288 L539 289 L522 302 L519 317 L521 329 L523 332 L526 335 L527 336 L529 341 L531 348 M273 223 L273 224 L288 225 L344 227 L398 227 L410 227 M275 229 L292 266 L306 301 L314 322 L329 349 L351 380 L379 399 L395 404 L400 404 L417 389 L431 379 L436 359 L436 322 L427 285 L418 252 L414 239 L408 225 L404 220 " fill="none" stroke="black" /><circle cx="338" cy="268" fill="black" r="1" /><circle cx="378" cy="282" fill="black" r="1" /><circle cx="355" cy="323" fill="black" r="1" /><circle cx="393" cy="367" fill="black" r="1" /><circle cx="385" cy="283" fill="black" r="1" /><circle cx="320" cy="221" fill="black" r="1" /><circle cx="307" cy="249" fill="black" r="1" /><circle cx="315" cy="294" fill="black" r="1" /><circle cx="401" cy="284" fill="black" r="1" /><circle cx="423" cy="247" fill="black" r="1" /><circle cx="394" cy="227" fill="black" r="1" /><path d="M0 65 L9 96 L28 141 L58 211 L82 268 L106 350 L135 443 L144 465 L149 428 L176 361 L218 266 L274 161 L324 81 L342 60 L342 59 L342 64 L401 155 L448 226 L472 269 L500 318 L520 358 L530 378 L535 390 L535 382 L543 330 L553 245 L561 162 L567 118 L570 97 L573 84 L574 71 L578 47 L580 30 L584 13 L586 2 L586 0 M113 119 L121 124 L131 128 L133 133 L122 150 L92 169 L79 180 L79 181 L84 185 L105 192 L128 198 L142 203 L143 208 L143 220 L116 244 L90 261 L89 269 L107 283 L148 295 L182 305 L185 307 L185 308 L183 326 L173 348 L159 363 L155 369 L155 370 L155 371 M413 53 L418 58 L452 72 L465 80 L467 84 L462 102 L433 135 L430 139 L430 142 L439 152 L461 162 L468 166 L470 170 L471 182 L472 199 L470 222 L470 239 L477 256 L520 281 L538 288 L539 288 L539 289 L522 302 L519 317 L521 329 L523 332 L526 335 L527 336 L529 341 L531 348 M273 223 L273 224 L288 225 L344 227 L398 227 L410 227 M275 229 L292 266 L306 301 L314 322 L329 349 L351 380 L379 399 L395 404 L400 404 L417 389 L431 379 L436 359 L436 322 L427 285 L418 252 L414 239 L408 225 L404 220 M353 257 L353 258 " fill="none" stroke="black" /><circle cx="373" cy="329" fill="black" r="1" /><circle cx="392" cy="348" fill="black" r="1" /><circle cx="440" cy="344" fill="black" r="1" /><circle cx="388" cy="248" fill="black" r="1" /><circle cx="379" cy="245" fill="black" r="1" /><circle cx="318" cy="282" fill="black" r="1" /><circle cx="372" cy="339" fill="black" r="1" /><circle cx="367" cy="373" fill="black" r="1" /><circle cx="356" cy="409" fill="black" r="1" /><circle cx="393" cy="382" fill="black" r="1" /><circle cx="410" cy="347" fill="black" r="1" /><circle cx="391" cy="290" fill="black" r="1" /><circle cx="350" cy="292" fill="black" r="1" /><circle cx="382" cy="310" fill="black" r="1" /><circle cx="415" cy="316" fill="black" r="1" /></svg>