<?xml version="1.0" encoding="utf-8" ?>
<svg baseProfile="tiny" height="170" version="1.2" viewBox="-3 -3 117 170" width="117" xmlns="http://www.w3.org/2000/svg" xmlns:ev="http://www.w3.org/2001/xml-events" xmlns:xlink="http://www.w3.org/1999/xlink"><defs /><path d="M3 83 L0 89 L26 99 L66 107 L83 118 L85 123 L71 135 L46 149 L21 165 L18 167 L17 168 L17 170 " fill="none" stroke="black" /><path d="M3 83 L0 89 L26 99 L66 107 L83 118 L85 123 L71 135 L46 149 L21 165 L18 167 L17 168 L17 170 M8 70 L15 54 L18 48 L22 53 L31 70 L38 78 L39 78 L37 63 L35 50 L34 49 L35 50 L37 54 L39 53 L40 43 L41 39 L42 40 " fill="none" stroke="black" /><path d="M3 83 L0 89 L26 99 L66 107 L83 118 L85 123 L71 135 L46 149 L21 165 L18 167 L17 168 L17 170 M8 70 L15 54 L18 48 L22 53 L31 70 L38 78 L39 78 L37 63 L35 50 L34 49 L35 50 L37 54 L39 53 L40 43 L41 39 L42 40 M33 87 L33 92 L33 98 L33 100 L44 94 L60 84 L59 91 L59 93 L59 98 L59 99 L61 97 L62 97 L62 119 L62 133 L62 134 L77 121 L86 111 L87 109 " fill="none" stroke="black" /><path d="M3 83 L0 89 L26 99 L66 107 L83 118 L85 123 L71 135 L46 149 L21 165 L18 167 L17 168 L17 170 M8 70 L15 54 L18 48 L22 53 L31 70 L38 78 L39 78 L37 63 L35 50 L34 49 L35 50 L37 54 L39 53 L40 43 L41 39 L42 40 M33 87 L33 92 L33 98 L33 100 L44 94 L60 84 L59 91 L59 93 L59 98 L59 99 L61 97 L62 97 L62 119 L62 133 L62 134 L77 121 L86 111 L87 109 M12 90 L17 92 L30 92 L43 92 L52 84 L62 76 L76 68 L84 64 L89 63 L94 62 L98 62 L108 67 L114 71 L116 72 L117 76 L117 82 L117 85 L115 89 L111 94 L105 100 L102 102 L98 103 L90 109 L86 114 L85 115 " fill="none" stroke="black" /><path d="M3 83 L0 89 L26 99 L66 107 L83 118 L85 123 L71 135 L46 149 L21 165 L18 167 L17 168 L17 170 M8 70 L15 54 L18 48 L22 53 L31 70 L38 78 L39 78 L37 63 L35 50 L34 49 L35 50 L37 54 L39 53 L40 43 L41 39 L42 40 M33 87 L33 92 L33 98 L33 100 L44 94 L60 84 L59 91 L59 93 L59 98 L59 99 L61 97 L62 97 L62 119 L62 133 L62 134 L77 121 L86 111 L87 109 M12 90 L17 92 L30 92 L43 92 L52 84 L62 76 L76 68 L84 64 L89 63 L94 62 L98 62 L108 67 L114 71 L116 72 L117 76 L117 82 L117 85 L115 89 L111 94 L105 100 L102 102 L98 103 L90 109 L86 114 L85 115 M83 98 L86 94 L92 86 L94 79 L97 73 L98 70 " fill="none" stroke="black" /><path d="M3 83 L0 89 L26 99 L66 107 L83 118 L85 123 L71 135 L46 149 L21 165 L18 167 L17 168 L17 170 M8 70 L15 54 L18 48 L22 53 L31 70 L38 78 L39 78 L37 63 L35 50 L34 49 L35 50 L37 54 L39 53 L40 43 L41 39 L42 40 M33 87 L33 92 L33 98 L33 100 L44 94 L60 84 L59 91 L59 93 L59 98 L59 99 L61 97 L62 97 L62 119 L62 133 L62 134 L77 121 L86 111 L87 109 M12 90 L17 92 L30 92 L43 92 L52 84 L62 76 L76 68 L84 64 L89 63 L94 62 L98 62 L108 67 L114 71 L116 72 L117 76 L117 82 L117 85 L115 89 L111 94 L105 100 L102 102 L98 103 L90 109 L86 114 L85 115 M83 98 L86 94 L92 86 L94 79 L97 73 L98 70 M19 136 L27 132 L31 137 L39 156 L41 160 L40 149 L40 132 L40 123 L43 123 L50 137 L55 141 L56 141 L60 134 L62 131 L62 130 L70 134 L74 140 L74 141 L73 127 L72 119 " fill="none" stroke="black" /><path d="M3 83 L0 89 L26 99 L66 107 L83 118 L85 123 L71 135 L46 149 L21 165 L18 167 L17 168 L17 170 M8 70 L15 54 L18 48 L22 53 L31 70 L38 78 L39 78 L37 63 L35 50 L34 49 L35 50 L37 54 L39 53 L40 43 L41 39 L42 40 M33 87 L33 92 L33 98 L33 100 L44 94 L60 84 L59 91 L59 93 L59 98 L59 99 L61 97 L62 97 L62 119 L62 133 L62 134 L77 121 L86 111 L87 109 M12 90 L17 92 L30 92 L43 92 L52 84 L62 76 L76 68 L84 64 L89 63 L94 62 L98 62 L108 67 L114 71 L116 72 L117 76 L117 82 L117 85 L115 89 L111 94 L105 100 L102 102 L98 103 L90 109 L86 114 L85 115 M83 98 L86 94 L92 86 L94 79 L97 73 L98 70 M19 136 L27 132 L31 137 L39 156 L41 160 L40 149 L40 132 L40 123 L43 123 L50 137 L55 141 L56 141 L60 134 L62 131 L62 130 L70 134 L74 140 L74 141 L73 127 L72 119 M0 0 L3 6 L10 21 L12 30 L12 31 L19 21 L35 10 L36 9 L37 13 L29 33 L26 40 L30 36 L35 34 L36 36 L36 46 L36 51 L36 52 L37 52 L42 43 L50 32 L51 31 " fill="none" stroke="black" /><path d="M3 83 L0 89 L26 99 L66 107 L83 118 L85 123 L71 135 L46 149 L21 165 L18 167 L17 168 L17 170 M8 70 L15 54 L18 48 L22 53 L31 70 L38 78 L39 78 L37 63 L35 50 L34 49 L35 50 L37 54 L39 53 L40 43 L41 39 L42 40 M33 87 L33 92 L33 98 L33 100 L44 94 L60 84 L59 91 L59 93 L59 98 L59 99 L61 97 L62 97 L62 119 L62 133 L62 134 L77 121 L86 111 L87 109 M12 90 L17 92 L30 92 L43 92 L52 84 L62 76 L76 68 L84 64 L89 63 L94 62 L98 62 L108 67 L114 71 L116 72 L117 76 L117 82 L117 85 L115 89 L111 94 L105 100 L102 102 L98 103 L90 109 L86 114 L85 115 M83 98 L86 94 L92 86 L94 79 L97 73 L98 70 M19 136 L27 132 L31 137 L39 156 L41 160 L40 149 L40 132 L40 123 L43 123 L50 137 L55 141 L56 141 L60 134 L62 131 L62 130 L70 134 L74 140 L74 141 L73 127 L72 119 M0 0 L3 6 L10 21 L12 30 L12 31 L19 21 L35 10 L36 9 L37 13 L29 33 L26 40 L30 36 L35 34 L36 36 L36 46 L36 51 L36 52 L37 52 L42 43 L50 32 L51 31 M8 72 L10 67 L13 59 L18 64 L19 66 L20 66 L30 45 L41 26 L42 25 " fill="none" stroke="black" /><circle cx="57" cy="59" fill="black" r="1" /><circle cx="55" cy="55" fill="black" r="1" /><circle cx="47" cy="68" fill="black" r="1" /><circle cx="46" cy="77" fill="black" r="1" /><circle cx="18" cy="85" fill="black" r="1" /><circle cx="18" cy="81" fill="black" r="1" /><path d="M3 83 L0 89 L26 99 L66 107 L83 118 L85 123 L71 135 L46 149 L21 165 L18 167 L17 168 L17 170 M8 70 L15 54 L18 48 L22 53 L31 70 L38 78 L39 78 L37 63 L35 50 L34 49 L35 50 L37 54 L39 53 L40 43 L41 39 L42 40 M33 87 L33 92 L33 98 L33 100 L44 94 L60 84 L59 91 L59 93 L59 98 L59 99 L61 97 L62 97 L62 119 L62 133 L62 134 L77 121 L86 111 L87 109 M12 90 L17 92 L30 92 L43 92 L52 84 L62 76 L76 68 L84 64 L89 63 L94 62 L98 62 L108 67 L114 71 L116 72 L117 76 L117 82 L117 85 L115 89 L111 94 L105 100 L102 102 L98 103 L90 109 L86 114 L85 115 M83 98 L86 94 L92 86 L94 79 L97 73 L98 70 M19 136 L27 132 L31 137 L39 156 L41 160 L40 149 L40 132 L40 123 L43 123 L50 137 L55 141 L56 141 L60 134 L62 131 L62 130 L70 134 L74 140 L74 141 L73 127 L72 119 M0 0 L3 6 L10 21 L12 30 L12 31 L19 21 L35 10 L36 9 L37 13 L29 33 L26 40 L30 36 L35 34 L36 36 L36 46 L36 51 L36 52 L37 52 L42 43 L50 32 L51 31 M8 72 L10 67 L13 59 L18 64 L19 66 L20 66 L30 45 L41 26 L42 25 M73 82 L74 82 " fill="none" stroke="black" /><circle cx="78" cy="60" fill="black" r="1" /><circle cx="92" cy="76" fill="black" r="1" /><circle cx="84" cy="95" fill="black" r="1" /><circle cx="68" cy="100" fill="black" r="1" /><circle cx="63" cy="92" fill="black" r="1" /><circle cx="106" cy="89" fill="black" r="1" /><path d="M3 83 L0 89 L26 99 L66 107 L83 118 L85 123 L71 135 L46 149 L21 165 L18 167 L17 168 L17 170 M8 70 L15 54 L18 48 L22 53 L31 70 L38 78 L39 78 L37 63 L35 50 L34 49 L35 50 L37 54 L39 53 L40 43 L41 39 L42 40 M33 87 L33 92 L33 98 L33 100 L44 94 L60 84 L59 91 L59 93 L59 98 L59 99 L61 97 L62 97 L62 119 L62 133 L62 134 L77 121 L86 111 L87 109 M12 90 L17 92 L30 92 L43 92 L52 84 L62 76 L76 68 L84 64 L89 63 L94 62 L98 62 L108 67 L114 71 L116 72 L117 76 L117 82 L117 85 L115 89 L111 94 L105 100 L102 102 L98 103 L90 109 L86 114 L85 115 M83 98 L86 94 L92 86 L94 79 L97 73 L98 70 M19 136 L27 132 L31 137 L39 156 L41 160 L40 149 L40 132 L40 123 L43 123 L50 137 L55 141 L56 141 L60 134 L62 131 L62 130 L70 134 L74 140 L74 141 L73 127 L72 119 M0 0 L3 6 L10 21 L12 30 L12 31 L19 21 L35 10 L36 9 L37 13 L29 33 L26 40 L30 36 L35 34 L36 36 L36 46 L36 51 L36 52 L37 52 L42 43 L50 32 L51 31 M8 72 L10 67 L13 59 L18 64 L19 66 L20 66 L30 45 L41 26 L42 25 M73 82 L74 82 M100 84 L100 81 " fill="none" stroke="black" /><circle cx="107" cy="60" fill="black" r="1" /><path d="M3 83 L0 89 L26 99 L66 107 L83 118 L85 123 L71 135 L46 149 L21 165 L18 167 L17 168 L17 170 M8 70 L15 54 L18 48 L22 53 L31 70 L38 78 L39 78 L37 63 L35 50 L34 49 L35 50 L37 54 L39 53 L40 43 L41 39 L42 40 M33 87 L33 92 L33 98 L33 100 L44 94 L60 84 L59 91 L59 93 L59 98 L59 99 L61 97 L62 97 L62 119 L62 133 L62 134 L77 121 L86 111 L87 109 M12 90 L17 92 L30 92 L43 92 L52 84 L62 76 L76 68 L84 64 L89 63 L94 62 L98 62 L108 67 L114 71 L116 72 L117 76 L117 82 L117 85 L115 89 L111 94 L105 100 L102 102 L98 103 L90 109 L86 114 L85 115 M83 98 L86 94 L92 86 L94 79 L97 73 L98 70 M19 136 L27 132 L31 137 L39 156 L41 160 L40 149 L40 132 L40 123 L43 123 L50 137 L55 141 L56 141 L60 134 L62 131 L62 130 L70 134 L74 140 L74 141 L73 127 L72 119 M0 0 L3 6 L10 21 L12 30 L12 31 L19 21 L35 10 L36 9 L37 13 L29 33 L26 40 L30 36 L35 34 L36 36 L36 46 L36 51 L36 52 L37 52 L42 43 L50 32 L51 31 M8 72 L10 67 L13 59 L18 64 L19 66 L20 66 L30 45 L41 26 L42 25 M73 82 L74 82 M100 84 L100 81 M95 36 L95 38 " fill="none" stroke="black" /><circle cx="95" cy="38" fill="black" r="1" /><circle cx="58" cy="41" fill="black" r="1" /><circle cx="51" cy="32" fill="black" r="1" /></svg>