<?xml version="1.0" encoding="utf-8" ?>
<svg baseProfile="tiny" height="420" version="1.2" viewBox="-3 -3 1222 420" width="1222" xmlns="http://www.w3.org/2000/svg" xmlns:ev="http://www.w3.org/2001/xml-events" xmlns:xlink="http://www.w3.org/1999/xlink"><defs /><path d="M4 258 L41 258 L244 258 L732 198 L1173 148 L1222 98 L1222 83 L1219 84 L1218 84 " fill="none" stroke="black" /><path d="M4 258 L41 258 L244 258 L732 198 L1173 148 L1222 98 L1222 83 L1219 84 L1218 84 M0 296 L3 296 L17 297 L86 292 L206 274 L331 257 L511 239 L839 198 L1042 171 L1194 151 L1222 133 L1222 129 L1222 124 L1222 123 " fill="none" stroke="black" /><path d="M4 258 L41 258 L244 258 L732 198 L1173 148 L1222 98 L1222 83 L1219 84 L1218 84 M0 296 L3 296 L17 297 L86 292 L206 274 L331 257 L511 239 L839 198 L1042 171 L1194 151 L1222 133 L1222 129 L1222 124 L1222 123 M34 324 L66 324 L126 315 L258 289 L426 267 L616 239 L897 199 L1164 162 L1222 133 L1222 125 L1222 124 " fill="none" stroke="black" /><path d="M4 258 L41 258 L244 258 L732 198 L1173 148 L1222 98 L1222 83 L1219 84 L1218 84 M0 296 L3 296 L17 297 L86 292 L206 274 L331 257 L511 239 L839 198 L1042 171 L1194 151 L1222 133 L1222 129 L1222 124 L1222 123 M34 324 L66 324 L126 315 L258 289 L426 267 L616 239 L897 199 L1164 162 L1222 133 L1222 125 L1222 124 M36 371 L104 363 L335 325 L633 282 L928 238 L1183 176 L1222 142 L1222 137 " fill="none" stroke="black" /><path d="M4 258 L41 258 L244 258 L732 198 L1173 148 L1222 98 L1222 83 L1219 84 L1218 84 M0 296 L3 296 L17 297 L86 292 L206 274 L331 257 L511 239 L839 198 L1042 171 L1194 151 L1222 133 L1222 129 L1222 124 L1222 123 M34 324 L66 324 L126 315 L258 289 L426 267 L616 239 L897 199 L1164 162 L1222 133 L1222 125 L1222 124 M36 371 L104 363 L335 325 L633 282 L928 238 L1183 176 L1222 142 L1222 137 M19 244 L35 241 L167 224 L488 179 L974 103 L1222 30 L1222 0 " fill="none" stroke="black" /><path d="M4 258 L41 258 L244 258 L732 198 L1173 148 L1222 98 L1222 83 L1219 84 L1218 84 M0 296 L3 296 L17 297 L86 292 L206 274 L331 257 L511 239 L839 198 L1042 171 L1194 151 L1222 133 L1222 129 L1222 124 L1222 123 M34 324 L66 324 L126 315 L258 289 L426 267 L616 239 L897 199 L1164 162 L1222 133 L1222 125 L1222 124 M36 371 L104 363 L335 325 L633 282 L928 238 L1183 176 L1222 142 L1222 137 M19 244 L35 241 L167 224 L488 179 L974 103 L1222 30 L1222 0 M20 377 L37 378 L112 378 L168 378 L246 378 L443 352 L785 259 L1145 175 L1222 132 L1222 126 " fill="none" stroke="black" /><path d="M4 258 L41 258 L244 258 L732 198 L1173 148 L1222 98 L1222 83 L1219 84 L1218 84 M0 296 L3 296 L17 297 L86 292 L206 274 L331 257 L511 239 L839 198 L1042 171 L1194 151 L1222 133 L1222 129 L1222 124 L1222 123 M34 324 L66 324 L126 315 L258 289 L426 267 L616 239 L897 199 L1164 162 L1222 133 L1222 125 L1222 124 M36 371 L104 363 L335 325 L633 282 L928 238 L1183 176 L1222 142 L1222 137 M19 244 L35 241 L167 224 L488 179 L974 103 L1222 30 L1222 0 M20 377 L37 378 L112 378 L168 378 L246 378 L443 352 L785 259 L1145 175 L1222 132 L1222 126 M26 256 L61 256 L123 254 L208 251 L331 242 L545 208 L902 149 L1218 106 L1222 71 L1222 50 L1222 37 L1222 25 L1222 19 " fill="none" stroke="black" /><path d="M4 258 L41 258 L244 258 L732 198 L1173 148 L1222 98 L1222 83 L1219 84 L1218 84 M0 296 L3 296 L17 297 L86 292 L206 274 L331 257 L511 239 L839 198 L1042 171 L1194 151 L1222 133 L1222 129 L1222 124 L1222 123 M34 324 L66 324 L126 315 L258 289 L426 267 L616 239 L897 199 L1164 162 L1222 133 L1222 125 L1222 124 M36 371 L104 363 L335 325 L633 282 L928 238 L1183 176 L1222 142 L1222 137 M19 244 L35 241 L167 224 L488 179 L974 103 L1222 30 L1222 0 M20 377 L37 378 L112 378 L168 378 L246 378 L443 352 L785 259 L1145 175 L1222 132 L1222 126 M26 256 L61 256 L123 254 L208 251 L331 242 L545 208 L902 149 L1218 106 L1222 71 L1222 50 L1222 37 L1222 25 L1222 19 M8 247 L10 266 L12 298 L21 360 L24 392 L24 408 L24 410 L24 394 L23 370 L22 340 L17 308 L16 284 L16 272 L16 275 L16 305 L20 341 L29 371 L30 387 L32 399 L32 414 L33 420 L34 420 L34 406 L27 374 L22 339 L22 312 L22 297 L22 286 L22 276 L22 270 L22 262 L22 271 L22 316 L28 358 L30 375 L30 378 L30 381 " fill="none" stroke="black" /><path d="M4 258 L41 258 L244 258 L732 198 L1173 148 L1222 98 L1222 83 L1219 84 L1218 84 M0 296 L3 296 L17 297 L86 292 L206 274 L331 257 L511 239 L839 198 L1042 171 L1194 151 L1222 133 L1222 129 L1222 124 L1222 123 M34 324 L66 324 L126 315 L258 289 L426 267 L616 239 L897 199 L1164 162 L1222 133 L1222 125 L1222 124 M36 371 L104 363 L335 325 L633 282 L928 238 L1183 176 L1222 142 L1222 137 M19 244 L35 241 L167 224 L488 179 L974 103 L1222 30 L1222 0 M20 377 L37 378 L112 378 L168 378 L246 378 L443 352 L785 259 L1145 175 L1222 132 L1222 126 M26 256 L61 256 L123 254 L208 251 L331 242 L545 208 L902 149 L1218 106 L1222 71 L1222 50 L1222 37 L1222 25 L1222 19 M8 247 L10 266 L12 298 L21 360 L24 392 L24 408 L24 410 L24 394 L23 370 L22 340 L17 308 L16 284 L16 272 L16 275 L16 305 L20 341 L29 371 L30 387 L32 399 L32 414 L33 420 L34 420 L34 406 L27 374 L22 339 L22 312 L22 297 L22 286 L22 276 L22 270 L22 262 L22 271 L22 316 L28 358 L30 375 L30 378 L30 381 M42 391 L59 390 L103 379 L238 365 L465 336 L806 290 L1083 246 L1222 214 L1222 211 L1222 197 L1222 188 L1222 186 " fill="none" stroke="black" /><path d="M4 258 L41 258 L244 258 L732 198 L1173 148 L1222 98 L1222 83 L1219 84 L1218 84 M0 296 L3 296 L17 297 L86 292 L206 274 L331 257 L511 239 L839 198 L1042 171 L1194 151 L1222 133 L1222 129 L1222 124 L1222 123 M34 324 L66 324 L126 315 L258 289 L426 267 L616 239 L897 199 L1164 162 L1222 133 L1222 125 L1222 124 M36 371 L104 363 L335 325 L633 282 L928 238 L1183 176 L1222 142 L1222 137 M19 244 L35 241 L167 224 L488 179 L974 103 L1222 30 L1222 0 M20 377 L37 378 L112 378 L168 378 L246 378 L443 352 L785 259 L1145 175 L1222 132 L1222 126 M26 256 L61 256 L123 254 L208 251 L331 242 L545 208 L902 149 L1218 106 L1222 71 L1222 50 L1222 37 L1222 25 L1222 19 M8 247 L10 266 L12 298 L21 360 L24 392 L24 408 L24 410 L24 394 L23 370 L22 340 L17 308 L16 284 L16 272 L16 275 L16 305 L20 341 L29 371 L30 387 L32 399 L32 414 L33 420 L34 420 L34 406 L27 374 L22 339 L22 312 L22 297 L22 286 L22 276 L22 270 L22 262 L22 271 L22 316 L28 358 L30 375 L30 378 L30 381 M42 391 L59 390 L103 379 L238 365 L465 336 L806 290 L1083 246 L1222 214 L1222 211 L1222 197 L1222 188 L1222 186 M37 353 L54 356 L101 356 L254 324 L569 241 L852 179 L1097 141 L1222 122 L1222 98 L1222 79 L1222 74 L1222 69 L1222 63 L1222 62 " fill="none" stroke="black" /><path d="M4 258 L41 258 L244 258 L732 198 L1173 148 L1222 98 L1222 83 L1219 84 L1218 84 M0 296 L3 296 L17 297 L86 292 L206 274 L331 257 L511 239 L839 198 L1042 171 L1194 151 L1222 133 L1222 129 L1222 124 L1222 123 M34 324 L66 324 L126 315 L258 289 L426 267 L616 239 L897 199 L1164 162 L1222 133 L1222 125 L1222 124 M36 371 L104 363 L335 325 L633 282 L928 238 L1183 176 L1222 142 L1222 137 M19 244 L35 241 L167 224 L488 179 L974 103 L1222 30 L1222 0 M20 377 L37 378 L112 378 L168 378 L246 378 L443 352 L785 259 L1145 175 L1222 132 L1222 126 M26 256 L61 256 L123 254 L208 251 L331 242 L545 208 L902 149 L1218 106 L1222 71 L1222 50 L1222 37 L1222 25 L1222 19 M8 247 L10 266 L12 298 L21 360 L24 392 L24 408 L24 410 L24 394 L23 370 L22 340 L17 308 L16 284 L16 272 L16 275 L16 305 L20 341 L29 371 L30 387 L32 399 L32 414 L33 420 L34 420 L34 406 L27 374 L22 339 L22 312 L22 297 L22 286 L22 276 L22 270 L22 262 L22 271 L22 316 L28 358 L30 375 L30 378 L30 381 M42 391 L59 390 L103 379 L238 365 L465 336 L806 290 L1083 246 L1222 214 L1222 211 L1222 197 L1222 188 L1222 186 M37 353 L54 356 L101 356 L254 324 L569 241 L852 179 L1097 141 L1222 122 L1222 98 L1222 79 L1222 74 L1222 69 L1222 63 L1222 62 M16 276 L21 278 L27 278 L49 278 L168 264 L393 232 L623 198 L935 153 L1129 131 L1187 131 L1222 131 L1222 130 L1222 129 " fill="none" stroke="black" /></svg>