<?xml version="1.0" encoding="utf-8" ?>
<svg baseProfile="tiny" height="150" version="1.2" viewBox="-3 -3 841 150" width="841" xmlns="http://www.w3.org/2000/svg" xmlns:ev="http://www.w3.org/2001/xml-events" xmlns:xlink="http://www.w3.org/1999/xlink"><defs /><path d="M0 150 L2 148 L16 137 L45 114 L118 73 L166 44 L191 36 L198 36 L199 39 L203 51 L206 76 L208 91 L209 98 L211 102 L211 103 L211 104 L215 106 L222 108 L230 108 L236 108 L241 107 L244 105 L247 102 L251 99 L254 97 L259 93 L265 89 L281 80 L311 61 L360 33 L402 5 L411 1 L413 0 L410 9 L402 33 L395 60 L393 76 L393 86 L393 89 L393 91 L394 92 L395 92 L399 93 L406 95 L411 96 L414 97 L418 97 L422 97 L428 96 L433 94 L443 88 L461 78 L482 67 L512 50 L530 43 L541 40 L544 40 L546 40 L547 40 L550 47 L552 60 L552 69 L554 75 L557 82 L559 86 L559 87 L568 85 L584 80 L592 77 L604 70 L615 64 L637 50 L649 43 L659 39 L665 38 L668 38 L673 38 L676 38 L680 45 L684 60 L684 86 L684 105 L685 120 L687 129 L688 131 L692 129 L703 119 L729 92 L743 75 L763 52 L776 38 L783 31 L786 29 L789 29 L790 29 L795 38 L805 64 L811 84 L813 104 L819 124 L826 136 L837 145 L841 147 " fill="none" stroke="black" /></svg>