<?xml version="1.0" encoding="utf-8" ?>
<svg baseProfile="tiny" height="492" version="1.2" viewBox="-3 -3 1009 492" width="1009" xmlns="http://www.w3.org/2000/svg" xmlns:ev="http://www.w3.org/2001/xml-events" xmlns:xlink="http://www.w3.org/1999/xlink"><defs /><path d="M618 3 L384 113 L161 307 L28 459 L8 486 L1 492 L0 492 L1 491 L84 441 L596 221 L905 193 L989 189 L997 189 L999 189 " fill="none" stroke="black" /><path d="M618 3 L384 113 L161 307 L28 459 L8 486 L1 492 L0 492 L1 491 L84 441 L596 221 L905 193 L989 189 L997 189 L999 189 M710 168 L859 159 L970 157 L1000 157 L1008 158 L1009 158 " fill="none" stroke="black" /><path d="M618 3 L384 113 L161 307 L28 459 L8 486 L1 492 L0 492 L1 491 L84 441 L596 221 L905 193 L989 189 L997 189 L999 189 M710 168 L859 159 L970 157 L1000 157 L1008 158 L1009 158 M825 117 L866 108 L892 105 L906 105 L908 105 " fill="none" stroke="black" /><path d="M618 3 L384 113 L161 307 L28 459 L8 486 L1 492 L0 492 L1 491 L84 441 L596 221 L905 193 L989 189 L997 189 L999 189 M710 168 L859 159 L970 157 L1000 157 L1008 158 L1009 158 M825 117 L866 108 L892 105 L906 105 L908 105 M891 78 L906 75 L915 74 L922 73 L924 72 L925 72 " fill="none" stroke="black" /><path d="M618 3 L384 113 L161 307 L28 459 L8 486 L1 492 L0 492 L1 491 L84 441 L596 221 L905 193 L989 189 L997 189 L999 189 M710 168 L859 159 L970 157 L1000 157 L1008 158 L1009 158 M825 117 L866 108 L892 105 L906 105 L908 105 M891 78 L906 75 L915 74 L922 73 L924 72 L925 72 M903 45 L912 43 L918 41 L923 38 L925 37 " fill="none" stroke="black" /><path d="M618 3 L384 113 L161 307 L28 459 L8 486 L1 492 L0 492 L1 491 L84 441 L596 221 L905 193 L989 189 L997 189 L999 189 M710 168 L859 159 L970 157 L1000 157 L1008 158 L1009 158 M825 117 L866 108 L892 105 L906 105 L908 105 M891 78 L906 75 L915 74 L922 73 L924 72 L925 72 M903 45 L912 43 L918 41 L923 38 L925 37 M911 27 L916 25 L924 24 L927 23 " fill="none" stroke="black" /><path d="M618 3 L384 113 L161 307 L28 459 L8 486 L1 492 L0 492 L1 491 L84 441 L596 221 L905 193 L989 189 L997 189 L999 189 M710 168 L859 159 L970 157 L1000 157 L1008 158 L1009 158 M825 117 L866 108 L892 105 L906 105 L908 105 M891 78 L906 75 L915 74 L922 73 L924 72 L925 72 M903 45 L912 43 L918 41 L923 38 L925 37 M911 27 L916 25 L924 24 L927 23 M921 3 L926 1 L930 0 " fill="none" stroke="black" /></svg>