<?xml version="1.0" encoding="utf-8" ?>
<svg baseProfile="tiny" height="469" version="1.2" viewBox="-3 -3 1092 469" width="1092" xmlns="http://www.w3.org/2000/svg" xmlns:ev="http://www.w3.org/2001/xml-events" xmlns:xlink="http://www.w3.org/1999/xlink"><defs /><path d="M0 249 L3 250 L14 254 L35 256 L49 256 L67 256 L88 258 L106 259 L118 260 L123 260 L124 260 L125 260 L129 260 L141 259 L151 258 L159 258 L165 257 L170 257 L173 256 L177 254 L179 253 L181 251 L185 248 L188 243 L191 238 L197 230 L218 197 L236 167 L242 161 L243 161 L263 277 L272 415 L274 448 L277 460 L279 467 L281 469 L282 469 L286 465 L289 459 L296 443 L329 399 L359 360 L384 321 L412 258 L453 150 L475 106 L497 68 L503 58 L506 54 L509 52 L512 49 L517 44 L521 42 L522 40 L525 39 L530 36 L535 32 L540 28 L545 25 L548 24 L549 22 L551 22 L553 21 L555 21 L557 20 L559 18 L561 17 L563 14 L565 13 L567 12 L570 10 L573 9 L574 9 L577 9 L580 8 L586 8 L592 8 L597 8 L602 8 L605 8 L608 8 L611 8 L615 6 L620 4 L628 2 L635 1 L639 1 L644 0 L650 0 L661 0 L669 0 L683 2 L697 6 L732 15 L741 16 L745 16 L746 16 L756 16 L768 16 L779 15 L792 13 L802 12 L813 11 L823 11 L831 11 L843 10 L854 10 L870 9 L881 9 L894 9 L897 9 L898 9 L899 9 L918 7 L951 5 L989 4 L1022 3 L1041 3 L1054 3 L1071 3 L1078 3 L1083 3 L1088 3 L1090 3 L1092 3 " fill="none" stroke="black" /></svg>