<?xml version="1.0" encoding="utf-8" ?>
<svg baseProfile="tiny" height="385" version="1.2" viewBox="-3 -3 193 385" width="193" xmlns="http://www.w3.org/2000/svg" xmlns:ev="http://www.w3.org/2001/xml-events" xmlns:xlink="http://www.w3.org/1999/xlink"><defs /><path d="M37 9 L7 82 L0 115 L3 117 L79 90 L111 74 L112 73 L103 84 L81 114 L75 122 L90 114 L92 113 L89 118 L80 128 L68 145 L67 148 L67 149 L68 150 L68 153 L61 164 L60 167 L63 168 L74 166 L76 166 L76 169 L73 175 L73 178 L73 179 L70 184 L61 217 L58 242 L58 247 L61 247 L64 246 L64 245 L63 248 L57 263 L54 273 L54 274 L55 274 L55 275 L52 285 L46 298 L46 303 L46 304 L47 303 L47 306 L44 321 L44 324 L44 325 L43 329 L38 344 L31 369 L30 382 L30 383 L30 384 L30 385 " fill="none" stroke="black" /><path d="M37 9 L7 82 L0 115 L3 117 L79 90 L111 74 L112 73 L103 84 L81 114 L75 122 L90 114 L92 113 L89 118 L80 128 L68 145 L67 148 L67 149 L68 150 L68 153 L61 164 L60 167 L63 168 L74 166 L76 166 L76 169 L73 175 L73 178 L73 179 L70 184 L61 217 L58 242 L58 247 L61 247 L64 246 L64 245 L63 248 L57 263 L54 273 L54 274 L55 274 L55 275 L52 285 L46 298 L46 303 L46 304 L47 303 L47 306 L44 321 L44 324 L44 325 L43 329 L38 344 L31 369 L30 382 L30 383 L30 384 L30 385 M193 0 L170 42 L148 100 L147 112 L147 113 L163 108 L175 104 L180 103 L180 104 L173 128 L155 173 L139 208 L138 211 L138 215 L138 224 L138 228 L139 229 L141 230 L143 243 L143 277 L143 282 L143 283 L143 284 L143 287 L142 299 L142 307 L142 309 L143 309 L143 315 L140 323 L138 331 L138 333 L138 334 L138 335 L138 337 L138 340 L136 344 " fill="none" stroke="black" /></svg>