<?xml version="1.0" encoding="utf-8" ?>
<svg baseProfile="tiny" height="312" version="1.2" viewBox="-3 -3 357 312" width="357" xmlns="http://www.w3.org/2000/svg" xmlns:ev="http://www.w3.org/2001/xml-events" xmlns:xlink="http://www.w3.org/1999/xlink"><defs /><path d="M168 145 L176 145 L186 144 L192 141 L196 136 L198 133 L198 126 L196 121 L192 114 L188 110 L179 107 L173 106 L170 106 L166 106 L164 106 " fill="none" stroke="black" /><path d="M168 145 L176 145 L186 144 L192 141 L196 136 L198 133 L198 126 L196 121 L192 114 L188 110 L179 107 L173 106 L170 106 L166 106 L164 106 M184 73 L175 73 L163 77 L156 81 L150 86 L142 94 L134 107 L131 114 L131 124 L131 133 L136 141 L146 147 L176 159 L197 163 L208 163 L216 161 L222 155 L230 138 L234 110 L232 96 L221 83 L210 76 L202 73 L199 72 " fill="none" stroke="black" /><path d="M168 145 L176 145 L186 144 L192 141 L196 136 L198 133 L198 126 L196 121 L192 114 L188 110 L179 107 L173 106 L170 106 L166 106 L164 106 M184 73 L175 73 L163 77 L156 81 L150 86 L142 94 L134 107 L131 114 L131 124 L131 133 L136 141 L146 147 L176 159 L197 163 L208 163 L216 161 L222 155 L230 138 L234 110 L232 96 L221 83 L210 76 L202 73 L199 72 M179 46 L166 55 L144 77 L123 107 L115 124 L113 135 L113 145 L118 166 L130 178 L154 193 L179 198 L205 198 L226 193 L238 188 L247 180 L255 169 L257 159 L257 148 L251 135 L240 115 L233 102 L219 86 L206 79 L189 72 L179 69 L175 68 " fill="none" stroke="black" /><path d="M168 145 L176 145 L186 144 L192 141 L196 136 L198 133 L198 126 L196 121 L192 114 L188 110 L179 107 L173 106 L170 106 L166 106 L164 106 M184 73 L175 73 L163 77 L156 81 L150 86 L142 94 L134 107 L131 114 L131 124 L131 133 L136 141 L146 147 L176 159 L197 163 L208 163 L216 161 L222 155 L230 138 L234 110 L232 96 L221 83 L210 76 L202 73 L199 72 M179 46 L166 55 L144 77 L123 107 L115 124 L113 135 L113 145 L118 166 L130 178 L154 193 L179 198 L205 198 L226 193 L238 188 L247 180 L255 169 L257 159 L257 148 L251 135 L240 115 L233 102 L219 86 L206 79 L189 72 L179 69 L175 68 M170 30 L160 31 L149 37 L142 45 L129 69 L114 102 L101 139 L97 164 L97 198 L105 217 L116 229 L129 239 L151 245 L184 241 L215 230 L244 218 L259 206 L272 186 L277 156 L277 115 L273 72 L259 45 L245 33 L217 22 L181 16 L163 15 L155 15 L153 15 " fill="none" stroke="black" /><path d="M168 145 L176 145 L186 144 L192 141 L196 136 L198 133 L198 126 L196 121 L192 114 L188 110 L179 107 L173 106 L170 106 L166 106 L164 106 M184 73 L175 73 L163 77 L156 81 L150 86 L142 94 L134 107 L131 114 L131 124 L131 133 L136 141 L146 147 L176 159 L197 163 L208 163 L216 161 L222 155 L230 138 L234 110 L232 96 L221 83 L210 76 L202 73 L199 72 M179 46 L166 55 L144 77 L123 107 L115 124 L113 135 L113 145 L118 166 L130 178 L154 193 L179 198 L205 198 L226 193 L238 188 L247 180 L255 169 L257 159 L257 148 L251 135 L240 115 L233 102 L219 86 L206 79 L189 72 L179 69 L175 68 M170 30 L160 31 L149 37 L142 45 L129 69 L114 102 L101 139 L97 164 L97 198 L105 217 L116 229 L129 239 L151 245 L184 241 L215 230 L244 218 L259 206 L272 186 L277 156 L277 115 L273 72 L259 45 L245 33 L217 22 L181 16 L163 15 L155 15 L153 15 M125 5 L108 37 L85 85 L72 140 L72 169 L78 191 L86 202 L102 213 L128 223 L160 228 L184 228 L218 224 L249 213 L270 203 L287 193 L293 186 L298 175 L301 157 L298 130 L288 111 L276 90 L265 77 L249 61 L220 39 L195 24 L164 8 L142 2 L127 1 L121 2 " fill="none" stroke="black" /><path d="M168 145 L176 145 L186 144 L192 141 L196 136 L198 133 L198 126 L196 121 L192 114 L188 110 L179 107 L173 106 L170 106 L166 106 L164 106 M184 73 L175 73 L163 77 L156 81 L150 86 L142 94 L134 107 L131 114 L131 124 L131 133 L136 141 L146 147 L176 159 L197 163 L208 163 L216 161 L222 155 L230 138 L234 110 L232 96 L221 83 L210 76 L202 73 L199 72 M179 46 L166 55 L144 77 L123 107 L115 124 L113 135 L113 145 L118 166 L130 178 L154 193 L179 198 L205 198 L226 193 L238 188 L247 180 L255 169 L257 159 L257 148 L251 135 L240 115 L233 102 L219 86 L206 79 L189 72 L179 69 L175 68 M170 30 L160 31 L149 37 L142 45 L129 69 L114 102 L101 139 L97 164 L97 198 L105 217 L116 229 L129 239 L151 245 L184 241 L215 230 L244 218 L259 206 L272 186 L277 156 L277 115 L273 72 L259 45 L245 33 L217 22 L181 16 L163 15 L155 15 L153 15 M125 5 L108 37 L85 85 L72 140 L72 169 L78 191 L86 202 L102 213 L128 223 L160 228 L184 228 L218 224 L249 213 L270 203 L287 193 L293 186 L298 175 L301 157 L298 130 L288 111 L276 90 L265 77 L249 61 L220 39 L195 24 L164 8 L142 2 L127 1 L121 2 M109 0 L103 6 L85 26 L43 99 L9 161 L0 203 L2 257 L14 284 L31 303 L50 310 L77 312 L131 308 L180 290 L237 266 L284 238 L316 215 L330 200 L347 173 L357 142 L356 128 L346 115 L289 74 L212 31 L181 14 L143 8 L130 10 L112 16 L107 16 " fill="none" stroke="black" /></svg>