<?xml version="1.0" encoding="utf-8" ?>
<svg baseProfile="tiny" height="471" version="1.2" viewBox="-3 -3 447 471" width="447" xmlns="http://www.w3.org/2000/svg" xmlns:ev="http://www.w3.org/2001/xml-events" xmlns:xlink="http://www.w3.org/1999/xlink"><defs /><path d="M291 173 L295 182 L299 204 L304 251 L307 327 L305 353 L303 359 " fill="none" stroke="black" /><path d="M291 173 L295 182 L299 204 L304 251 L307 327 L305 353 L303 359 M321 120 L332 174 L341 254 L343 300 L345 328 " fill="none" stroke="black" /><path d="M291 173 L295 182 L299 204 L304 251 L307 327 L305 353 L303 359 M321 120 L332 174 L341 254 L343 300 L345 328 M376 189 L390 264 L394 312 L397 340 " fill="none" stroke="black" /><path d="M291 173 L295 182 L299 204 L304 251 L307 327 L305 353 L303 359 M321 120 L332 174 L341 254 L343 300 L345 328 M376 189 L390 264 L394 312 L397 340 M430 237 L440 326 L444 369 L447 382 " fill="none" stroke="black" /><path d="M291 173 L295 182 L299 204 L304 251 L307 327 L305 353 L303 359 M321 120 L332 174 L341 254 L343 300 L345 328 M376 189 L390 264 L394 312 L397 340 M430 237 L440 326 L444 369 L447 382 M35 127 L45 192 L49 239 L56 281 L57 295 L59 304 L61 309 L61 312 L68 312 L123 308 L173 304 L188 299 L191 296 L191 288 L180 263 L165 208 L123 44 L113 18 L106 7 L101 4 L95 1 L88 0 L84 0 L81 0 L79 0 L78 4 L74 11 L62 27 L51 44 L40 60 L33 73 L27 84 L24 94 L24 101 L24 111 L25 114 L26 116 L27 117 L28 120 L31 124 L32 126 " fill="none" stroke="black" /><path d="M291 173 L295 182 L299 204 L304 251 L307 327 L305 353 L303 359 M321 120 L332 174 L341 254 L343 300 L345 328 M376 189 L390 264 L394 312 L397 340 M430 237 L440 326 L444 369 L447 382 M35 127 L45 192 L49 239 L56 281 L57 295 L59 304 L61 309 L61 312 L68 312 L123 308 L173 304 L188 299 L191 296 L191 288 L180 263 L165 208 L123 44 L113 18 L106 7 L101 4 L95 1 L88 0 L84 0 L81 0 L79 0 L78 4 L74 11 L62 27 L51 44 L40 60 L33 73 L27 84 L24 94 L24 101 L24 111 L25 114 L26 116 L27 117 L28 120 L31 124 L32 126 M164 155 L190 178 L226 241 L241 330 L241 404 L239 439 L224 471 L223 471 L171 452 L67 404 L11 326 L0 285 L0 276 L9 261 L28 238 L47 221 L69 204 L83 196 L98 190 L108 189 L112 189 " fill="none" stroke="black" /></svg>