<?xml version="1.0" encoding="utf-8" ?>
<svg baseProfile="tiny" height="337" version="1.2" viewBox="-3 -3 587 337" width="587" xmlns="http://www.w3.org/2000/svg" xmlns:ev="http://www.w3.org/2001/xml-events" xmlns:xlink="http://www.w3.org/1999/xlink"><defs /><circle cx="142" cy="35" fill="black" r="1" /><circle cx="0" cy="155" fill="black" r="1" /><circle cx="160" cy="66" fill="black" r="1" /><circle cx="45" cy="0" fill="black" r="1" /><circle cx="120" cy="179" fill="black" r="1" /><circle cx="349" cy="45" fill="black" r="1" /><circle cx="427" cy="109" fill="black" r="1" /><circle cx="560" cy="209" fill="black" r="1" /><circle cx="587" cy="0" fill="black" r="1" /><circle cx="375" cy="258" fill="black" r="1" /><circle cx="268" cy="17" fill="black" r="1" /><circle cx="63" cy="308" fill="black" r="1" /><path d="M23 164 L31 166 L46 169 L55 171 L60 171 L65 172 L68 172 L69 172 " fill="none" stroke="black" /><path d="M23 164 L31 166 L46 169 L55 171 L60 171 L65 172 L68 172 L69 172 M144 102 L141 113 L138 121 L137 127 L136 129 L136 131 L136 132 " fill="none" stroke="black" /><path d="M23 164 L31 166 L46 169 L55 171 L60 171 L65 172 L68 172 L69 172 M144 102 L141 113 L138 121 L137 127 L136 129 L136 131 L136 132 M82 13 L90 18 L106 23 L119 26 L127 30 L130 32 L131 33 " fill="none" stroke="black" /><path d="M23 164 L31 166 L46 169 L55 171 L60 171 L65 172 L68 172 L69 172 M144 102 L141 113 L138 121 L137 127 L136 129 L136 131 L136 132 M82 13 L90 18 L106 23 L119 26 L127 30 L130 32 L131 33 M201 38 L213 35 L221 33 L230 31 L234 30 L236 30 L238 30 L242 29 " fill="none" stroke="black" /><path d="M23 164 L31 166 L46 169 L55 171 L60 171 L65 172 L68 172 L69 172 M144 102 L141 113 L138 121 L137 127 L136 129 L136 131 L136 132 M82 13 L90 18 L106 23 L119 26 L127 30 L130 32 L131 33 M201 38 L213 35 L221 33 L230 31 L234 30 L236 30 L238 30 L242 29 M104 220 L103 224 L95 241 L77 275 L62 306 L51 331 L48 336 L48 337 " fill="none" stroke="black" /><path d="M23 164 L31 166 L46 169 L55 171 L60 171 L65 172 L68 172 L69 172 M144 102 L141 113 L138 121 L137 127 L136 129 L136 131 L136 132 M82 13 L90 18 L106 23 L119 26 L127 30 L130 32 L131 33 M201 38 L213 35 L221 33 L230 31 L234 30 L236 30 L238 30 L242 29 M104 220 L103 224 L95 241 L77 275 L62 306 L51 331 L48 336 L48 337 M190 204 L233 217 L263 231 L287 239 L300 241 L308 244 L311 244 " fill="none" stroke="black" /><path d="M23 164 L31 166 L46 169 L55 171 L60 171 L65 172 L68 172 L69 172 M144 102 L141 113 L138 121 L137 127 L136 129 L136 131 L136 132 M82 13 L90 18 L106 23 L119 26 L127 30 L130 32 L131 33 M201 38 L213 35 L221 33 L230 31 L234 30 L236 30 L238 30 L242 29 M104 220 L103 224 L95 241 L77 275 L62 306 L51 331 L48 336 L48 337 M190 204 L233 217 L263 231 L287 239 L300 241 L308 244 L311 244 M416 246 L428 244 L446 242 L458 240 L470 237 L477 235 L479 234 L480 233 " fill="none" stroke="black" /><path d="M23 164 L31 166 L46 169 L55 171 L60 171 L65 172 L68 172 L69 172 M144 102 L141 113 L138 121 L137 127 L136 129 L136 131 L136 132 M82 13 L90 18 L106 23 L119 26 L127 30 L130 32 L131 33 M201 38 L213 35 L221 33 L230 31 L234 30 L236 30 L238 30 L242 29 M104 220 L103 224 L95 241 L77 275 L62 306 L51 331 L48 336 L48 337 M190 204 L233 217 L263 231 L287 239 L300 241 L308 244 L311 244 M416 246 L428 244 L446 242 L458 240 L470 237 L477 235 L479 234 L480 233 M376 68 L386 74 L393 79 L400 84 L402 85 " fill="none" stroke="black" /><path d="M23 164 L31 166 L46 169 L55 171 L60 171 L65 172 L68 172 L69 172 M144 102 L141 113 L138 121 L137 127 L136 129 L136 131 L136 132 M82 13 L90 18 L106 23 L119 26 L127 30 L130 32 L131 33 M201 38 L213 35 L221 33 L230 31 L234 30 L236 30 L238 30 L242 29 M104 220 L103 224 L95 241 L77 275 L62 306 L51 331 L48 336 L48 337 M190 204 L233 217 L263 231 L287 239 L300 241 L308 244 L311 244 M416 246 L428 244 L446 242 L458 240 L470 237 L477 235 L479 234 L480 233 M376 68 L386 74 L393 79 L400 84 L402 85 M448 89 L457 84 L466 77 L479 66 L496 52 L512 38 L519 33 L523 30 L526 27 L527 26 " fill="none" stroke="black" /></svg>