<?xml version="1.0" encoding="utf-8" ?>
<svg baseProfile="tiny" height="382" version="1.2" viewBox="-3 -3 299 382" width="299" xmlns="http://www.w3.org/2000/svg" xmlns:ev="http://www.w3.org/2001/xml-events" xmlns:xlink="http://www.w3.org/1999/xlink"><defs /><path d="M21 0 L15 29 L5 92 L1 148 L0 188 L0 215 L3 233 L4 239 L5 243 L6 244 L8 244 L9 235 L11 209 L17 156 L25 93 L31 57 L36 13 L37 3 L37 2 L32 34 L21 157 L15 265 L15 312 L16 355 L18 375 L20 382 L20 381 L21 364 L28 319 L38 249 L47 186 L52 141 L54 103 L61 66 L65 34 L65 28 L65 43 L65 74 L69 134 L71 172 L71 187 L72 199 L74 211 L75 216 L76 217 L78 213 L80 204 L84 187 L91 162 L95 143 L101 119 L102 110 L104 102 L105 96 L107 89 L109 80 L112 73 L116 65 L118 62 L118 68 L118 83 L117 100 L114 131 L111 159 L110 179 L110 201 L110 214 L110 234 L112 246 L116 260 L120 269 L122 273 L125 278 L129 283 L133 288 L142 292 L155 298 L156 298 L157 298 L161 299 L170 300 L178 301 L189 301 L199 301 L206 301 L213 301 L216 301 L223 301 L230 301 L241 301 L248 300 L257 298 L264 295 L270 292 L274 290 L277 288 L282 285 L286 284 L290 282 L292 280 L295 277 L297 274 L298 272 L299 270 L299 267 L299 264 L299 261 L299 259 L299 257 L299 256 L296 254 L293 252 L289 251 L286 250 L285 250 L283 250 L282 250 L281 250 L279 250 L277 250 " fill="none" stroke="black" /></svg>