<?xml version="1.0" encoding="utf-8" ?>
<svg baseProfile="tiny" height="322" version="1.2" viewBox="-3 -3 337 322" width="337" xmlns="http://www.w3.org/2000/svg" xmlns:ev="http://www.w3.org/2001/xml-events" xmlns:xlink="http://www.w3.org/1999/xlink"><defs /><path d="M35 259 L34 259 L34 258 L33 256 L33 255 " fill="none" stroke="black" /><path d="M35 259 L34 259 L34 258 L33 256 L33 255 M0 6 L7 13 L14 23 L29 48 L40 71 L52 102 L63 130 L67 144 L71 165 L72 178 L72 194 L70 208 L64 226 L60 234 L58 237 L57 238 L56 238 " fill="none" stroke="black" /><path d="M35 259 L34 259 L34 258 L33 256 L33 255 M0 6 L7 13 L14 23 L29 48 L40 71 L52 102 L63 130 L67 144 L71 165 L72 178 L72 194 L70 208 L64 226 L60 234 L58 237 L57 238 L56 238 M82 11 L85 18 L110 55 L149 119 L169 162 L174 184 L174 196 L174 209 L174 216 L173 221 L172 222 L172 223 " fill="none" stroke="black" /><path d="M35 259 L34 259 L34 258 L33 256 L33 255 M0 6 L7 13 L14 23 L29 48 L40 71 L52 102 L63 130 L67 144 L71 165 L72 178 L72 194 L70 208 L64 226 L60 234 L58 237 L57 238 L56 238 M82 11 L85 18 L110 55 L149 119 L169 162 L174 184 L174 196 L174 209 L174 216 L173 221 L172 222 L172 223 M146 12 L162 27 L191 65 L225 135 L245 192 L250 224 L250 234 L250 246 L250 249 L249 250 " fill="none" stroke="black" /><path d="M35 259 L34 259 L34 258 L33 256 L33 255 M0 6 L7 13 L14 23 L29 48 L40 71 L52 102 L63 130 L67 144 L71 165 L72 178 L72 194 L70 208 L64 226 L60 234 L58 237 L57 238 L56 238 M82 11 L85 18 L110 55 L149 119 L169 162 L174 184 L174 196 L174 209 L174 216 L173 221 L172 222 L172 223 M146 12 L162 27 L191 65 L225 135 L245 192 L250 224 L250 234 L250 246 L250 249 L249 250 M202 0 L266 75 L298 137 L324 203 L333 240 L337 276 L337 305 L336 315 L334 319 L332 322 " fill="none" stroke="black" /></svg>