<?xml version="1.0" encoding="utf-8" ?>
<svg baseProfile="tiny" height="417" version="1.2" viewBox="-3 -3 639 417" width="639" xmlns="http://www.w3.org/2000/svg" xmlns:ev="http://www.w3.org/2001/xml-events" xmlns:xlink="http://www.w3.org/1999/xlink"><defs /><path d="M45 122 L49 116 L78 89 L84 98 L89 104 L92 108 L95 109 L96 110 L98 110 L111 102 L122 96 L134 91 L140 90 L143 89 L145 89 L147 88 L151 88 L154 88 L158 88 L161 89 L164 92 L167 95 L169 97 L178 97 L194 92 L204 87 L209 85 L213 82 L214 82 L218 81 L219 81 L222 84 L223 87 L220 87 L214 89 L209 91 L207 92 L209 92 L212 91 L219 89 L224 88 L232 87 L238 85 L240 85 L241 85 L242 86 L242 90 L243 94 L243 98 L245 98 L252 95 L259 92 L269 86 L282 77 L288 71 L291 69 L292 69 L292 70 L291 78 L290 89 L290 92 L293 93 L303 93 L311 92 L313 91 L326 90 L336 88 L339 88 L342 91 L347 96 L351 97 L361 97 L367 96 L374 94 L375 93 L380 93 L389 94 L394 94 L395 93 L397 90 L398 89 L400 89 L404 90 L406 91 L407 91 L408 91 L409 90 L409 88 L410 86 L413 82 L416 81 L419 81 L421 80 L421 79 L421 75 L422 72 L423 71 L424 71 L425 71 L430 71 L440 71 L445 71 L448 71 L450 71 L450 70 L450 69 L450 68 L451 67 L453 65 L455 61 L455 56 L455 54 L455 53 L431 49 L293 25 L109 8 L30 3 L2 0 L0 0 L21 0 L57 13 L74 19 L76 20 " fill="none" stroke="black" /><path d="M45 122 L49 116 L78 89 L84 98 L89 104 L92 108 L95 109 L96 110 L98 110 L111 102 L122 96 L134 91 L140 90 L143 89 L145 89 L147 88 L151 88 L154 88 L158 88 L161 89 L164 92 L167 95 L169 97 L178 97 L194 92 L204 87 L209 85 L213 82 L214 82 L218 81 L219 81 L222 84 L223 87 L220 87 L214 89 L209 91 L207 92 L209 92 L212 91 L219 89 L224 88 L232 87 L238 85 L240 85 L241 85 L242 86 L242 90 L243 94 L243 98 L245 98 L252 95 L259 92 L269 86 L282 77 L288 71 L291 69 L292 69 L292 70 L291 78 L290 89 L290 92 L293 93 L303 93 L311 92 L313 91 L326 90 L336 88 L339 88 L342 91 L347 96 L351 97 L361 97 L367 96 L374 94 L375 93 L380 93 L389 94 L394 94 L395 93 L397 90 L398 89 L400 89 L404 90 L406 91 L407 91 L408 91 L409 90 L409 88 L410 86 L413 82 L416 81 L419 81 L421 80 L421 79 L421 75 L422 72 L423 71 L424 71 L425 71 L430 71 L440 71 L445 71 L448 71 L450 71 L450 70 L450 69 L450 68 L451 67 L453 65 L455 61 L455 56 L455 54 L455 53 L431 49 L293 25 L109 8 L30 3 L2 0 L0 0 L21 0 L57 13 L74 19 L76 20 M94 237 L101 241 L140 254 L170 258 L180 258 L201 251 L205 249 L210 247 L213 244 L214 242 L214 241 L214 240 L215 240 L225 243 L250 255 L301 290 L317 302 L347 311 L423 342 L467 367 L473 371 L502 366 L543 363 L573 363 L592 363 L599 363 L601 363 L604 356 L616 325 L634 295 L639 282 L639 274 L639 271 L634 266 L621 259 L589 256 L390 285 L322 297 L288 309 L264 320 L242 338 L228 351 L210 377 L202 392 L198 407 L196 411 L196 414 L196 416 L196 417 L192 417 L173 412 L138 404 L107 397 L85 387 L71 380 L67 377 L66 377 " fill="none" stroke="black" /></svg>