<?xml version="1.0" encoding="utf-8" ?>
<svg baseProfile="tiny" height="5" version="1.2" viewBox="-3 -3 386 5" width="386" xmlns="http://www.w3.org/2000/svg" xmlns:ev="http://www.w3.org/2001/xml-events" xmlns:xlink="http://www.w3.org/1999/xlink"><defs /><path d="M0 4 L1 4 L2 4 L4 4 L5 4 L6 4 L8 4 L9 4 L11 4 L13 4 L15 4 L17 4 L18 4 L21 4 L22 4 L25 4 L26 5 L29 5 L30 5 L33 5 L34 5 L37 5 L39 5 L41 5 L42 5 L43 5 L44 5 L45 5 L47 5 L48 5 L49 5 L51 5 L53 5 L55 5 L57 5 L62 5 L68 5 L72 4 L76 4 L79 4 L83 4 L85 4 L91 4 L95 4 L98 4 L100 4 " fill="none" stroke="black" /><path d="M0 4 L1 4 L2 4 L4 4 L5 4 L6 4 L8 4 L9 4 L11 4 L13 4 L15 4 L17 4 L18 4 L21 4 L22 4 L25 4 L26 5 L29 5 L30 5 L33 5 L34 5 L37 5 L39 5 L41 5 L42 5 L43 5 L44 5 L45 5 L47 5 L48 5 L49 5 L51 5 L53 5 L55 5 L57 5 L62 5 L68 5 L72 4 L76 4 L79 4 L83 4 L85 4 L91 4 L95 4 L98 4 L100 4 M100 4 L102 4 L104 4 L107 4 L109 4 L114 4 L118 4 L122 4 L126 4 L129 4 L133 4 L136 4 L139 4 L140 4 L143 4 L144 4 L145 4 L146 4 L148 4 L151 4 L153 4 L156 4 L158 4 L160 4 L162 4 L167 4 L172 4 L178 4 L184 4 L190 4 L196 3 L203 3 L210 3 L213 3 L218 3 L222 3 L225 3 L229 3 L231 3 L233 3 L236 3 L239 3 L242 3 L246 3 L249 3 L253 3 L256 3 L259 3 L262 4 L263 4 L264 4 L265 4 L268 4 L273 4 L275 4 L279 4 L283 4 L286 4 L289 3 L291 3 L293 3 L295 2 L298 2 L301 2 L305 2 L308 2 L312 2 L315 2 L318 2 L322 2 L324 2 L326 2 L328 2 L332 2 L334 2 L336 2 L338 2 L339 2 L340 2 L341 2 L342 2 L343 2 L345 2 L346 2 L348 2 L350 2 L351 2 L354 2 L356 2 L359 2 L362 2 L365 1 L374 0 L382 0 L385 0 L386 0 " fill="none" stroke="black" /></svg>