<?xml version="1.0" encoding="utf-8" ?>
<svg baseProfile="tiny" height="135" version="1.2" viewBox="-3 -3 699 135" width="699" xmlns="http://www.w3.org/2000/svg" xmlns:ev="http://www.w3.org/2001/xml-events" xmlns:xlink="http://www.w3.org/1999/xlink"><defs /><path d="M0 57 L10 57 L70 57 L206 57 L341 51 L411 44 L446 43 L453 43 L456 43 L458 43 L466 42 L481 42 L498 42 L521 44 L533 47 L541 48 L545 49 L552 51 L559 53 L568 58 L572 61 L575 64 L576 65 L577 66 L577 67 L575 67 L573 67 L570 67 L567 67 L557 67 L542 67 L532 67 L525 67 L518 67 L497 67 L460 71 L419 75 L363 86 L328 94 L308 99 L303 100 L300 100 L306 100 L320 101 L329 104 L336 106 L340 107 L346 108 L349 109 L352 109 L354 109 L356 109 L358 110 L359 110 L360 110 L362 111 L363 111 L364 112 L366 113 L367 114 L370 115 L371 116 L374 117 L376 118 L377 119 L378 117 L382 117 L388 119 L400 123 L410 125 L423 127 L441 130 L458 132 L493 134 L523 135 L579 133 L659 121 L695 115 L698 115 L699 112 L699 105 L696 97 L693 95 L689 95 L685 94 L678 94 L666 93 L647 90 L621 87 L584 81 L558 76 L534 68 L520 64 L513 62 L511 61 " fill="none" stroke="black" /><path d="M0 57 L10 57 L70 57 L206 57 L341 51 L411 44 L446 43 L453 43 L456 43 L458 43 L466 42 L481 42 L498 42 L521 44 L533 47 L541 48 L545 49 L552 51 L559 53 L568 58 L572 61 L575 64 L576 65 L577 66 L577 67 L575 67 L573 67 L570 67 L567 67 L557 67 L542 67 L532 67 L525 67 L518 67 L497 67 L460 71 L419 75 L363 86 L328 94 L308 99 L303 100 L300 100 L306 100 L320 101 L329 104 L336 106 L340 107 L346 108 L349 109 L352 109 L354 109 L356 109 L358 110 L359 110 L360 110 L362 111 L363 111 L364 112 L366 113 L367 114 L370 115 L371 116 L374 117 L376 118 L377 119 L378 117 L382 117 L388 119 L400 123 L410 125 L423 127 L441 130 L458 132 L493 134 L523 135 L579 133 L659 121 L695 115 L698 115 L699 112 L699 105 L696 97 L693 95 L689 95 L685 94 L678 94 L666 93 L647 90 L621 87 L584 81 L558 76 L534 68 L520 64 L513 62 L511 61 M508 58 L416 17 L189 0 L91 16 L63 20 L41 20 L37 20 L36 20 L36 19 L38 15 L41 10 " fill="none" stroke="black" /></svg>