<?xml version="1.0" encoding="utf-8" ?>
<svg baseProfile="tiny" height="388" version="1.2" viewBox="-3 -3 99 388" width="99" xmlns="http://www.w3.org/2000/svg" xmlns:ev="http://www.w3.org/2001/xml-events" xmlns:xlink="http://www.w3.org/1999/xlink"><defs /><path d="M4 57 L4 58 L4 60 L3 65 L3 75 L2 94 L0 125 L0 151 L0 170 L2 192 L4 206 L8 218 L10 226 L11 228 L12 228 L13 228 L13 222 L13 211 L13 187 L12 157 L18 94 L24 63 L28 53 L30 49 L31 49 L31 78 L20 226 L6 306 L1 348 L1 379 L2 387 L2 388 L2 380 L2 356 L4 287 L11 201 L19 129 L27 90 L29 76 L29 72 L30 71 L31 70 L32 68 L34 66 L37 62 L39 60 L41 60 L41 61 L41 75 L41 104 L37 126 L32 158 L28 183 L24 206 L22 226 L22 242 L22 253 L22 260 L22 262 L22 257 L22 239 L26 176 L37 115 L52 51 L63 17 L68 2 L69 0 L69 5 L69 34 L64 78 L56 139 L52 193 L49 243 L49 271 L49 296 L49 303 L49 306 L49 314 L54 343 L57 362 L58 370 L59 374 L60 379 L60 381 L61 383 L62 383 L64 381 L64 367 L64 331 L64 277 L68 224 L76 149 L85 91 L90 53 L97 10 L99 2 L99 7 L95 68 L85 152 L78 223 L76 277 L76 324 L76 349 L78 366 L79 371 L80 373 L81 373 " fill="none" stroke="black" /></svg>