<?xml version="1.0" encoding="utf-8" ?>
<svg baseProfile="tiny" height="418" version="1.2" viewBox="-3 -3 175 418" width="175" xmlns="http://www.w3.org/2000/svg" xmlns:ev="http://www.w3.org/2001/xml-events" xmlns:xlink="http://www.w3.org/1999/xlink"><defs /><path d="M60 387 L59 374 L59 362 L57 334 L57 317 L53 299 L49 283 L46 263 L42 232 L41 216 L41 215 L40 214 L37 210 L29 202 L24 197 L18 191 L13 184 L8 174 L2 152 L0 140 L1 112 L16 78 L38 43 L63 20 L96 3 L111 0 L123 0 L129 2 L140 19 L145 50 L146 68 L135 111 L120 142 L108 175 L100 196 L94 209 L90 220 L89 223 L88 224 L88 221 L88 218 L88 213 L91 198 L101 171 L122 128 L142 98 L160 71 L165 64 L169 62 L171 62 L175 82 L174 136 L143 233 L117 295 L91 347 L74 375 L70 382 L69 383 L68 384 L68 385 L68 387 L67 390 L67 394 L67 399 L67 405 L67 410 L69 412 L76 415 L85 417 L94 418 L101 418 L112 418 L123 414 L128 409 L138 398 L153 373 L163 348 L167 325 L169 281 L164 250 L160 243 L156 237 L152 233 L143 226 L137 221 L133 216 L132 212 L131 206 L131 192 L133 182 L137 174 L143 166 L148 160 L150 157 " fill="none" stroke="black" /></svg>