<?xml version="1.0" encoding="utf-8" ?>
<svg baseProfile="tiny" height="369" version="1.2" viewBox="-3 -3 288 369" width="288" xmlns="http://www.w3.org/2000/svg" xmlns:ev="http://www.w3.org/2001/xml-events" xmlns:xlink="http://www.w3.org/1999/xlink"><defs /><path d="M126 0 L121 3 L72 26 L31 52 L22 57 L107 55 L221 54 L227 55 L221 57 L120 85 L36 120 L29 124 L97 110 L109 108 L109 110 L83 123 L8 173 L0 180 L17 180 L206 169 L264 163 L265 163 L249 163 L122 223 L78 252 L73 258 L114 246 L281 193 L288 192 L280 192 L179 251 L121 309 L112 327 L143 332 L183 333 L200 332 L174 337 L114 364 L106 369 L112 365 L267 226 L275 217 L274 217 L269 221 L248 252 L239 271 L240 272 L269 264 L273 262 L265 268 L244 275 L238 275 L231 251 L224 194 L220 180 L218 180 " fill="none" stroke="black" /></svg>