<?xml version="1.0" encoding="utf-8" ?>
<svg baseProfile="tiny" height="478" version="1.2" viewBox="-3 -3 613 478" width="613" xmlns="http://www.w3.org/2000/svg" xmlns:ev="http://www.w3.org/2001/xml-events" xmlns:xlink="http://www.w3.org/1999/xlink"><defs /><path d="M67 168 L80 184 L93 383 L80 445 L103 465 L195 478 L240 467 L264 442 L267 432 L250 415 L146 386 L76 389 L72 393 L94 387 L226 304 L279 238 L269 234 L218 247 L201 257 L213 252 L204 256 L96 280 L32 284 L26 264 L74 161 L183 36 L235 4 L247 0 L247 1 L276 135 L357 304 L382 356 L396 394 L409 427 L412 432 L417 426 L422 325 L379 265 L100 162 L10 147 L0 146 L11 148 L345 293 L412 309 L439 300 L508 265 L517 257 L517 256 L503 246 L426 215 L294 180 L241 171 L232 159 L317 66 L427 11 L471 10 L525 38 L565 79 L613 183 L613 221 L604 232 L497 263 L362 266 L242 239 L209 217 L198 197 L206 185 L422 73 L503 66 L545 94 L572 126 " fill="none" stroke="black" /></svg>