<?xml version="1.0" encoding="utf-8" ?>
<svg baseProfile="tiny" height="102" version="1.2" viewBox="-3 -3 881 102" width="881" xmlns="http://www.w3.org/2000/svg" xmlns:ev="http://www.w3.org/2001/xml-events" xmlns:xlink="http://www.w3.org/1999/xlink"><defs /><path d="M0 15 L15 13 L48 10 L86 10 L173 5 L364 0 L471 18 L491 23 L497 23 L500 23 L519 19 L559 16 L598 15 L621 16 L642 16 L666 16 L685 16 L692 15 L695 14 L698 13 L707 10 L715 9 L723 9 L729 9 L734 9 L735 8 " fill="none" stroke="black" /><path d="M0 15 L15 13 L48 10 L86 10 L173 5 L364 0 L471 18 L491 23 L497 23 L500 23 L519 19 L559 16 L598 15 L621 16 L642 16 L666 16 L685 16 L692 15 L695 14 L698 13 L707 10 L715 9 L723 9 L729 9 L734 9 L735 8 M42 41 L75 41 L160 41 L267 42 L343 42 L418 42 L448 43 L455 43 L469 44 L509 44 L549 42 L579 41 L613 39 L632 38 L655 37 L672 37 L687 37 L693 36 L694 36 L696 36 " fill="none" stroke="black" /><path d="M0 15 L15 13 L48 10 L86 10 L173 5 L364 0 L471 18 L491 23 L497 23 L500 23 L519 19 L559 16 L598 15 L621 16 L642 16 L666 16 L685 16 L692 15 L695 14 L698 13 L707 10 L715 9 L723 9 L729 9 L734 9 L735 8 M42 41 L75 41 L160 41 L267 42 L343 42 L418 42 L448 43 L455 43 L469 44 L509 44 L549 42 L579 41 L613 39 L632 38 L655 37 L672 37 L687 37 L693 36 L694 36 L696 36 M17 62 L45 62 L240 62 L411 62 L457 62 L485 65 L494 67 L500 67 L538 67 L677 56 L742 48 L792 41 L837 40 L867 40 L877 40 L880 40 L881 40 " fill="none" stroke="black" /><path d="M0 15 L15 13 L48 10 L86 10 L173 5 L364 0 L471 18 L491 23 L497 23 L500 23 L519 19 L559 16 L598 15 L621 16 L642 16 L666 16 L685 16 L692 15 L695 14 L698 13 L707 10 L715 9 L723 9 L729 9 L734 9 L735 8 M42 41 L75 41 L160 41 L267 42 L343 42 L418 42 L448 43 L455 43 L469 44 L509 44 L549 42 L579 41 L613 39 L632 38 L655 37 L672 37 L687 37 L693 36 L694 36 L696 36 M17 62 L45 62 L240 62 L411 62 L457 62 L485 65 L494 67 L500 67 L538 67 L677 56 L742 48 L792 41 L837 40 L867 40 L877 40 L880 40 L881 40 M38 102 L81 98 L243 88 L406 91 L450 94 L471 96 L474 96 L475 96 L492 94 L568 83 L651 70 L688 64 L734 52 L767 48 L781 48 L793 48 L799 48 L805 48 L810 48 L815 49 L816 50 " fill="none" stroke="black" /></svg>