<?xml version="1.0" encoding="utf-8" ?>
<svg baseProfile="tiny" height="405" version="1.2" viewBox="-3 -3 626 405" width="626" xmlns="http://www.w3.org/2000/svg" xmlns:ev="http://www.w3.org/2001/xml-events" xmlns:xlink="http://www.w3.org/1999/xlink"><defs /><path d="M245 113 L244 110 L243 105 L243 92 L243 70 L249 37 L257 11 L261 3 L262 0 L266 8 L277 34 L284 62 L286 71 L287 77 L287 80 L287 81 L288 82 " fill="none" stroke="black" /><path d="M245 113 L244 110 L243 105 L243 92 L243 70 L249 37 L257 11 L261 3 L262 0 L266 8 L277 34 L284 62 L286 71 L287 77 L287 80 L287 81 L288 82 M364 114 L393 111 L564 107 L619 110 L625 112 L626 112 L626 113 L620 116 L586 138 L548 165 L511 190 L493 200 L492 200 " fill="none" stroke="black" /><path d="M245 113 L244 110 L243 105 L243 92 L243 70 L249 37 L257 11 L261 3 L262 0 L266 8 L277 34 L284 62 L286 71 L287 77 L287 80 L287 81 L288 82 M364 114 L393 111 L564 107 L619 110 L625 112 L626 112 L626 113 L620 116 L586 138 L548 165 L511 190 L493 200 L492 200 M169 154 L158 154 L115 160 L45 166 L10 169 L2 170 L0 170 L11 170 L57 170 L148 170 L188 179 L192 180 " fill="none" stroke="black" /><path d="M245 113 L244 110 L243 105 L243 92 L243 70 L249 37 L257 11 L261 3 L262 0 L266 8 L277 34 L284 62 L286 71 L287 77 L287 80 L287 81 L288 82 M364 114 L393 111 L564 107 L619 110 L625 112 L626 112 L626 113 L620 116 L586 138 L548 165 L511 190 L493 200 L492 200 M169 154 L158 154 L115 160 L45 166 L10 169 L2 170 L0 170 L11 170 L57 170 L148 170 L188 179 L192 180 M304 278 L355 331 L405 390 L415 404 L417 405 L420 404 L423 369 L427 300 L427 274 L427 267 L427 266 " fill="none" stroke="black" /></svg>