<?xml version="1.0" encoding="utf-8" ?>
<svg baseProfile="tiny" height="297" version="1.2" viewBox="-3 -3 757 297" width="757" xmlns="http://www.w3.org/2000/svg" xmlns:ev="http://www.w3.org/2001/xml-events" xmlns:xlink="http://www.w3.org/1999/xlink"><defs /><path d="M0 219 L30 214 L81 208 L89 207 L76 233 L55 273 L50 282 L50 283 L54 280 L59 277 L60 276 L61 276 L74 278 L106 268 L130 256 L131 254 L131 255 L130 257 L129 260 L130 257 L155 230 L188 195 L193 190 L194 190 L194 197 L195 210 L198 221 L200 225 L202 225 L208 220 L213 208 L214 207 L219 226 L236 277 L243 294 L248 297 L253 295 L284 252 L297 230 L298 230 L298 231 L298 237 L298 240 L300 240 L307 235 L309 233 L315 236 L325 244 L331 249 L341 251 L344 251 L360 256 L370 259 L375 259 L391 251 L409 233 L425 216 L432 209 L438 204 L441 203 L443 203 L444 206 L446 211 L453 224 L460 236 L464 240 L465 241 L473 244 L487 250 L496 254 L503 257 L506 260 L507 261 L509 263 L510 264 L510 265 L513 264 L580 182 L714 36 L753 0 L757 0 " fill="none" stroke="black" /></svg>