<?xml version="1.0" encoding="utf-8" ?>
<svg baseProfile="tiny" height="333" version="1.2" viewBox="-3 -3 349 333" width="349" xmlns="http://www.w3.org/2000/svg" xmlns:ev="http://www.w3.org/2001/xml-events" xmlns:xlink="http://www.w3.org/1999/xlink"><defs /><path d="M118 84 L115 93 L112 102 L110 110 L109 116 L109 119 L110 122 L112 124 L117 127 L124 130 L133 132 L139 133 L150 134 L162 136 L171 137 L194 140 L211 143 L219 145 L231 149 L236 154 L242 162 L242 170 L241 184 L233 204 L225 219 L219 227 L215 234 L214 236 L213 239 L215 245 L217 248 L224 255 L231 259 L238 259 L247 260 L260 260 L268 260 L280 260 L290 260 L298 260 L304 261 L312 265 L318 268 L328 277 L336 283 L340 290 L346 300 L348 307 L348 309 L349 311 L349 315 L343 322 L340 327 L334 330 L320 332 L306 333 L298 333 L287 331 L272 327 L265 323 L258 318 L251 310 L249 303 L247 295 L247 286 L248 275 L250 265 L251 254 L253 246 L255 238 L256 230 L256 225 L256 217 L256 208 L254 204 L253 199 L252 198 L247 195 L238 192 L229 191 L215 189 L204 189 L196 187 L187 185 L176 183 L171 181 L167 177 L163 174 L162 169 L162 163 L162 157 L164 152 L166 145 L169 135 L171 129 L173 121 L174 117 L175 113 L175 108 L174 104 L172 100 L165 93 L155 84 L146 79 L138 75 L132 74 L123 74 L114 74 L107 74 L96 74 L84 74 L78 74 L74 72 L71 67 L71 62 L71 55 L72 50 L74 45 L76 36 L79 29 L81 24 L83 20 L84 17 L85 15 L85 14 L83 13 L79 10 L74 9 L68 8 L54 4 L41 1 L33 0 L25 0 L18 0 L12 4 L8 6 L5 10 L3 15 L1 23 L1 31 L0 36 L0 42 L0 46 L0 57 L1 67 L2 73 L3 75 L4 76 L5 77 L5 78 " fill="none" stroke="black" /></svg>