<?xml version="1.0" encoding="utf-8" ?>
<svg baseProfile="tiny" height="273" version="1.2" viewBox="-3 -3 365 273" width="365" xmlns="http://www.w3.org/2000/svg" xmlns:ev="http://www.w3.org/2001/xml-events" xmlns:xlink="http://www.w3.org/1999/xlink"><defs /><path d="M0 0 L3 1 L7 1 L10 2 L14 2 L19 2 L22 2 L27 2 L33 2 L39 2 L47 3 L57 4 L65 6 L76 8 L86 12 L91 15 L100 22 L107 27 L112 31 L117 36 L121 40 L123 44 L126 50 L127 54 L127 60 L127 64 L127 69 L125 77 L122 87 L120 95 L116 106 L111 123 L109 136 L108 149 L108 158 L108 164 L109 173 L113 185 L117 201 L126 216 L139 226 L159 237 L181 251 L208 263 L228 270 L248 273 L263 273 L284 273 L305 271 L320 269 L332 265 L342 260 L349 258 L355 255 L359 252 L361 251 L362 250 L364 249 L365 248 L365 247 L364 247 L363 247 L362 246 L361 245 L357 245 L354 244 L349 242 L345 241 L342 239 L338 236 L335 235 L331 233 L323 230 L309 226 L295 224 L282 222 L272 222 L261 221 L244 218 L227 216 L205 212 L173 201 L151 191 L134 187 L125 183 L111 177 L86 165 L74 157 L70 152 L67 146 L66 139 L66 133 L66 127 L66 120 L70 111 L73 102 L76 95 L80 88 L84 80 L87 76 L91 69 L94 64 L97 59 L99 54 L101 51 L102 46 L104 43 L105 38 L107 34 L109 28 L110 24 L111 19 L111 15 L111 12 L111 9 L111 7 L111 5 L109 1 L106 0 L104 0 L101 0 L97 0 L91 0 L82 2 L74 4 L66 8 L58 11 L52 19 L51 22 L50 29 L52 36 L56 46 L62 57 L65 64 L73 75 L82 87 L89 92 L97 98 L108 106 L118 111 L133 116 L153 124 L171 128 L183 132 L191 133 L195 135 L196 135 L197 135 L198 135 " fill="none" stroke="black" /></svg>