<?xml version="1.0" encoding="utf-8" ?>
<svg baseProfile="tiny" height="237" version="1.2" viewBox="-3 -3 477 237" width="477" xmlns="http://www.w3.org/2000/svg" xmlns:ev="http://www.w3.org/2001/xml-events" xmlns:xlink="http://www.w3.org/1999/xlink"><defs /><path d="M60 63 L55 66 L52 69 L49 70 L48 73 L46 75 L44 78 L43 82 L41 85 L40 89 L40 92 L38 95 L38 99 L38 101 L36 104 L35 108 L33 113 L31 119 L30 125 L29 129 L28 132 L28 135 L28 137 L27 140 L27 143 L26 146 L26 150 L26 153 L26 156 L26 159 L26 161 L26 164 L26 165 L26 168 L26 171 L26 174 L27 177 L28 181 L29 184 L29 187 L30 190 L32 193 L34 197 L35 200 L37 204 L40 211 L42 215 L45 218 L48 220 L51 224 L54 225 L59 228 L61 229 L64 230 L67 230 L73 230 L80 228 L93 222 L111 206 L151 174 L197 133 L225 105 L250 86 L265 77 L275 71 L289 65 L304 57 L313 50 L323 44 L333 39 L338 37 L347 33 L359 29 L370 25 L381 23 L392 21 L399 21 L407 22 L415 24 L428 31 L443 38 L454 46 L463 54 L467 57 L468 59 L472 64 L475 72 L476 77 L477 86 L477 96 L475 105 L472 121 L469 134 L464 150 L455 171 L443 191 L434 206 L427 215 L423 223 L415 231 L407 236 L399 237 L382 235 L345 209 L300 174 L235 120 L178 78 L144 54 L103 23 L80 8 L68 5 L60 3 L51 0 L29 0 L24 1 L22 3 L17 4 L13 7 L9 11 L4 18 L2 23 L1 28 L1 32 L0 36 L0 43 L1 51 L3 58 L6 69 L9 79 L12 86 L16 94 L24 101 L34 108 L50 115 L72 125 L92 133 L127 143 L150 147 L167 150 L187 150 L215 149 L239 145 L256 140 L274 138 L299 131 L306 130 L307 129 L309 129 L310 128 L311 128 " fill="none" stroke="black" /></svg>