<?xml version="1.0" encoding="utf-8" ?>
<svg baseProfile="tiny" height="241" version="1.2" viewBox="-3 -3 302 241" width="302" xmlns="http://www.w3.org/2000/svg" xmlns:ev="http://www.w3.org/2001/xml-events" xmlns:xlink="http://www.w3.org/1999/xlink"><defs /><path d="M34 83 L24 93 L14 102 L4 108 L1 111 L0 111 L0 110 L7 105 L14 101 L31 84 L60 62 L89 44 L108 34 L125 23 L133 17 L143 11 L149 8 L150 8 L139 19 L127 32 L108 52 L82 80 L68 93 L54 103 L46 109 L43 113 L41 114 L45 109 L58 99 L82 76 L110 53 L138 28 L162 11 L173 3 L179 0 L180 0 L181 0 L180 2 L172 14 L154 32 L130 62 L111 86 L89 110 L75 128 L70 134 L67 137 L67 138 L66 138 L69 137 L79 125 L96 106 L125 79 L149 58 L170 39 L179 30 L184 27 L185 25 L186 25 L184 28 L183 30 L151 70 L128 102 L105 138 L85 169 L77 182 L76 185 L81 177 L116 142 L164 100 L195 76 L217 57 L225 53 L226 51 L227 51 L227 54 L211 71 L186 98 L162 128 L136 161 L121 184 L116 190 L115 192 L115 191 L117 190 L138 161 L164 133 L184 112 L206 93 L218 82 L222 78 L224 75 L224 76 L218 85 L209 93 L194 108 L182 122 L179 126 L177 129 L176 129 L176 130 L177 130 L179 129 L181 128 L185 126 L187 126 L192 126 L200 128 L206 130 L212 135 L217 137 L220 138 L223 138 L229 137 L240 131 L251 125 L254 124 L256 124 L253 125 L232 146 L187 191 L150 232 L143 240 L142 241 L143 237 L162 215 L188 189 L222 160 L238 147 L252 137 L262 131 L269 126 L271 125 L272 125 L269 131 L258 140 L238 163 L214 195 L197 218 L187 234 L186 237 L187 235 L199 222 L221 203 L263 172 L288 155 L298 147 L301 145 L301 144 L302 144 " fill="none" stroke="black" /></svg>