<?xml version="1.0" encoding="utf-8" ?>
<svg baseProfile="tiny" height="270" version="1.2" viewBox="-3 -3 370 270" width="370" xmlns="http://www.w3.org/2000/svg" xmlns:ev="http://www.w3.org/2001/xml-events" xmlns:xlink="http://www.w3.org/1999/xlink"><defs /><path d="M3 60 L1 61 L0 61 L0 62 L1 62 L5 62 L15 61 L32 55 L49 45 L59 38 L66 30 L75 20 L82 13 L89 6 L94 1 L99 0 L104 0 L112 3 L116 7 L122 14 L123 27 L117 47 L102 70 L85 88 L71 98 L63 104 L60 107 L59 109 L59 110 L62 110 L74 110 L85 108 L100 102 L112 94 L120 87 L128 80 L137 73 L145 67 L154 60 L162 54 L168 50 L173 49 L175 49 L175 50 L177 54 L175 66 L165 89 L148 120 L134 142 L123 158 L120 162 L119 163 L119 164 L130 165 L140 163 L151 156 L162 142 L168 135 L175 127 L182 118 L186 111 L194 105 L199 101 L205 99 L211 98 L218 98 L222 98 L223 98 L224 100 L224 104 L219 118 L205 144 L194 160 L188 169 L183 173 L181 176 L177 183 L176 190 L176 193 L176 194 L180 194 L189 193 L208 185 L222 178 L231 171 L239 162 L244 155 L250 146 L256 139 L260 133 L262 130 L265 127 L267 127 L269 127 L272 127 L274 130 L275 135 L270 154 L263 173 L248 199 L229 222 L221 232 L217 236 L216 236 L216 237 L228 235 L252 223 L265 213 L274 202 L281 195 L286 190 L291 184 L295 180 L300 175 L303 172 L307 170 L315 170 L323 173 L329 176 L333 184 L329 198 L320 210 L311 219 L303 227 L300 230 L298 232 L298 233 L298 234 L298 236 L299 237 L300 240 L304 245 L311 250 L321 251 L331 248 L337 240 L346 227 L352 216 L358 207 L363 202 L365 201 L367 201 L368 201 L370 207 L370 222 L367 239 L361 252 L355 266 L353 269 L353 270 " fill="none" stroke="black" /></svg>