<?xml version="1.0" encoding="utf-8" ?>
<svg baseProfile="tiny" height="249" version="1.2" viewBox="-3 -3 632 249" width="632" xmlns="http://www.w3.org/2000/svg" xmlns:ev="http://www.w3.org/2001/xml-events" xmlns:xlink="http://www.w3.org/1999/xlink"><defs /><path d="M44 249 L64 217 L77 195 L85 176 L89 162 L98 144 L108 125 L116 110 L123 96 L132 72 L137 57 L144 42 L154 28 L166 12 L173 3 L175 1 L180 0 L193 4 L206 10 L212 15 L217 20 L220 30 L222 45 L221 73 L216 98 L208 123 L201 148 L195 162 L191 177 L187 189 L187 196 L187 204 L187 211 L188 215 L190 218 L192 221 L195 223 L198 224 L201 227 L203 227 L210 229 L218 231 L226 232 L236 233 L247 234 L258 234 L268 234 L275 235 L280 235 L288 236 L296 236 L305 236 L312 236 L319 236 L326 235 L335 232 L339 229 L348 215 L359 183 L367 159 L373 140 L382 114 L393 77 L401 41 L403 31 L405 28 L408 23 L412 20 L419 15 L426 13 L429 13 L433 13 L438 16 L442 19 L445 24 L445 39 L436 75 L425 115 L420 131 L418 141 L418 154 L418 163 L418 169 L422 183 L424 192 L436 214 L447 231 L454 238 L463 243 L472 245 L481 245 L491 245 L500 245 L508 243 L519 242 L529 240 L535 239 L542 239 L549 239 L555 239 L563 238 L569 238 L573 237 L575 237 L579 236 L581 236 L588 238 L597 242 L605 244 L610 246 L611 247 L613 247 L615 247 L618 246 L622 236 L627 213 L628 196 L631 183 L631 179 L632 178 L632 176 L632 173 L631 170 L629 167 L626 165 L623 162 L618 158 L605 151 L585 148 L560 144 L528 138 L478 130 L427 124 L382 122 L315 118 L253 113 L209 111 L154 108 L119 108 L100 110 L89 112 L85 112 L84 112 L83 112 L79 113 L69 114 L42 120 L10 127 L0 129 " fill="none" stroke="black" /></svg>