<?xml version="1.0" encoding="utf-8" ?>
<svg baseProfile="tiny" height="289" version="1.2" viewBox="-3 -3 497 289" width="497" xmlns="http://www.w3.org/2000/svg" xmlns:ev="http://www.w3.org/2001/xml-events" xmlns:xlink="http://www.w3.org/1999/xlink"><defs /><path d="M2 44 L3 42 L11 35 L27 23 L41 10 L53 2 L60 0 L64 0 L65 0 L66 3 L66 6 L59 14 L45 26 L34 43 L24 62 L16 75 L7 87 L2 98 L0 101 L0 102 L6 98 L15 86 L30 67 L44 51 L61 35 L73 22 L86 10 L93 4 L95 2 L96 2 L97 4 L96 8 L95 10 L75 40 L59 72 L45 97 L33 116 L28 127 L25 135 L22 139 L22 140 L23 138 L30 126 L56 97 L77 70 L99 49 L114 35 L122 27 L125 24 L125 23 L125 25 L110 54 L77 104 L50 153 L42 169 L59 149 L98 109 L119 88 L125 83 L125 84 L110 110 L80 152 L75 158 L78 157 L132 103 L170 64 L173 62 L137 107 L83 187 L64 221 L67 220 L104 187 L147 150 L157 142 L158 141 L140 168 L87 246 L59 288 L62 289 L103 249 L193 150 L222 115 L224 111 L223 115 L203 134 L179 161 L169 176 L168 176 L215 128 L262 77 L272 69 L270 71 L235 118 L191 186 L175 216 L177 213 L207 188 L251 149 L263 140 L264 139 L251 160 L213 224 L179 283 L178 288 L209 266 L300 176 L336 145 L339 142 L338 144 L324 160 L312 172 L299 194 L295 203 L312 188 L336 169 L343 165 L343 164 L343 168 L323 194 L311 210 L311 212 L320 205 L341 185 L354 178 L356 177 L357 179 L351 190 L341 214 L339 221 L340 221 L351 215 L360 212 L362 211 L362 212 L357 220 L352 228 L352 230 L353 230 L369 226 L392 233 L416 241 L431 245 L457 254 L477 264 L491 273 L495 276 L496 277 L496 278 L497 278 " fill="none" stroke="black" /></svg>