<?xml version="1.0" encoding="utf-8" ?>
<svg baseProfile="tiny" height="322" version="1.2" viewBox="-3 -3 288 322" width="288" xmlns="http://www.w3.org/2000/svg" xmlns:ev="http://www.w3.org/2001/xml-events" xmlns:xlink="http://www.w3.org/1999/xlink"><defs /><path d="M178 197 L178 202 L177 207 L176 213 L174 218 L173 223 L171 226 L168 229 L167 231 L164 234 L161 236 L158 240 L157 241 L152 246 L148 249 L143 251 L135 253 L130 254 L123 255 L116 255 L109 255 L97 251 L86 247 L78 240 L67 231 L56 219 L49 211 L42 197 L40 190 L36 175 L34 161 L32 149 L32 134 L32 122 L33 113 L35 102 L37 95 L40 89 L46 82 L54 73 L62 67 L70 60 L78 55 L87 50 L98 45 L107 43 L116 42 L129 42 L148 42 L162 45 L178 51 L194 61 L211 75 L222 90 L227 99 L229 105 L231 116 L235 127 L241 140 L246 151 L251 169 L253 181 L254 195 L254 207 L254 220 L254 231 L253 241 L252 255 L248 271 L247 276 L244 280 L241 283 L238 287 L232 293 L221 302 L212 308 L198 313 L184 318 L170 322 L161 322 L155 321 L144 318 L134 315 L125 313 L114 309 L105 304 L97 299 L89 291 L78 281 L68 274 L58 264 L50 251 L45 242 L37 233 L28 220 L20 204 L14 194 L11 184 L7 170 L5 158 L4 147 L2 131 L1 117 L0 104 L1 87 L3 76 L5 64 L12 48 L22 34 L36 24 L50 16 L72 9 L96 5 L127 1 L152 0 L170 2 L190 7 L211 12 L224 18 L236 25 L245 31 L256 44 L265 58 L271 67 L274 76 L278 90 L280 100 L282 119 L285 136 L287 158 L288 176 L288 196 L286 209 L284 226 L283 240 L282 256 L279 277 L276 285 L273 289 L267 294 L259 301 L246 310 L236 315 L228 317 L217 318 L211 318 L208 319 L204 319 L202 319 L201 319 " fill="none" stroke="black" /></svg>