<?xml version="1.0" encoding="utf-8" ?>
<svg baseProfile="tiny" height="277" version="1.2" viewBox="-3 -3 606 277" width="606" xmlns="http://www.w3.org/2000/svg" xmlns:ev="http://www.w3.org/2001/xml-events" xmlns:xlink="http://www.w3.org/1999/xlink"><defs /><path d="M161 187 L159 185 L158 182 L157 181 L156 180 L155 179 L154 178 L152 177 L151 176 L150 174 L149 174 L148 173 L148 172 L147 168 L146 164 L145 158 L143 152 L139 143 L134 132 L125 121 L115 109 L105 98 L97 93 L84 92 L78 92 L77 93 L75 98 L75 104 L74 117 L70 133 L68 147 L68 159 L69 168 L70 172 L74 175 L82 181 L91 189 L97 194 L102 199 L106 202 L114 205 L122 208 L128 210 L133 211 L141 215 L150 219 L162 223 L172 227 L181 230 L193 233 L205 237 L216 239 L231 241 L248 245 L268 247 L292 252 L320 257 L337 260 L356 263 L375 265 L397 266 L419 267 L439 267 L455 267 L471 267 L484 267 L500 266 L514 262 L524 261 L535 259 L545 255 L553 254 L563 252 L573 251 L579 250 L587 248 L594 247 L600 246 L605 245 L606 245 L606 243 L603 238 L591 231 L579 229 L569 231 L547 241 L510 254 L487 261 L465 266 L441 270 L422 271 L402 275 L383 276 L365 276 L343 276 L326 276 L310 276 L290 276 L273 277 L252 277 L231 274 L212 270 L195 264 L184 257 L175 248 L167 235 L163 223 L163 214 L163 198 L163 181 L166 168 L167 154 L168 140 L168 130 L164 117 L157 101 L151 80 L136 50 L118 26 L107 11 L97 3 L85 0 L73 0 L63 6 L40 32 L18 57 L4 84 L0 96 L1 104 L8 130 L17 143 L31 158 L50 173 L74 185 L96 194 L113 198 L131 202 L155 207 L175 211 L198 215 L223 217 L240 219 L259 220 L279 221 L298 223 L317 225 L335 229 L349 232 L358 233 L361 234 " fill="none" stroke="black" /></svg>