<?xml version="1.0" encoding="utf-8" ?>
<svg baseProfile="tiny" height="147" version="1.2" viewBox="-3 -3 492 147" width="492" xmlns="http://www.w3.org/2000/svg" xmlns:ev="http://www.w3.org/2001/xml-events" xmlns:xlink="http://www.w3.org/1999/xlink"><defs /><path d="M169 0 L182 12 L190 27 L192 47 L185 77 L174 98 L171 106 L170 109 L170 111 L170 114 L172 121 L176 128 L179 134 L187 141 L194 145 L202 147 L208 147 L214 147 L222 147 L233 143 L239 141 L245 137 L251 129 L256 119 L262 104 L265 93 L269 86 L274 79 L281 73 L288 72 L292 72 L298 72 L304 75 L312 81 L320 86 L327 92 L333 100 L335 106 L339 121 L341 133 L344 138 L353 142 L365 143 L371 139 L380 118 L384 98 L385 89 L386 77 L391 59 L396 45 L402 35 L408 26 L415 19 L428 7 L448 1 L457 1 L461 2 L464 5 L469 8 L477 21 L480 36 L485 62 L488 86 L491 97 L492 116 L492 126 L491 131 L489 138 L484 143 L477 146 L469 145 L460 140 L454 133 L447 124 L441 114 L436 102 L430 92 L428 84 L422 72 L417 60 L413 52 L401 38 L390 25 L384 20 L373 12 L352 6 L344 4 L329 2 L309 3 L291 7 L268 16 L255 24 L245 31 L233 40 L225 48 L219 56 L212 64 L207 68 L199 74 L190 77 L183 79 L174 81 L163 80 L155 77 L143 71 L131 59 L125 52 L114 45 L100 37 L88 30 L78 28 L71 26 L66 26 L60 26 L53 27 L46 28 L39 30 L32 32 L24 34 L14 37 L12 38 L10 38 L10 40 L10 42 L11 44 L12 47 L13 49 L16 52 L17 55 L18 56 L18 57 L18 58 L18 59 L18 60 L18 62 L16 65 L14 68 L12 71 L10 73 L7 79 L4 86 L1 95 L0 100 L2 105 L5 109 L10 112 L16 111 L33 105 L51 96 L56 92 " fill="none" stroke="black" /></svg>