<?xml version="1.0" encoding="utf-8" ?>
<svg baseProfile="tiny" height="352" version="1.2" viewBox="-3 -3 623 352" width="623" xmlns="http://www.w3.org/2000/svg" xmlns:ev="http://www.w3.org/2001/xml-events" xmlns:xlink="http://www.w3.org/1999/xlink"><defs /><path d="M445 352 L438 348 L428 341 L417 334 L408 330 L399 323 L392 317 L389 315 L385 310 L372 299 L361 289 L342 276 L330 266 L324 258 L318 250 L312 243 L306 239 L298 232 L290 222 L285 215 L279 208 L272 201 L267 197 L260 190 L256 185 L251 181 L248 176 L245 173 L238 167 L235 164 L233 164 L226 157 L220 150 L211 142 L207 135 L202 130 L196 124 L190 116 L185 108 L177 100 L172 94 L164 86 L156 77 L151 72 L146 67 L141 65 L139 63 L137 62 L134 60 L132 59 L128 57 L125 55 L122 52 L113 46 L103 37 L93 28 L90 24 L85 20 L81 16 L77 15 L73 14 L66 12 L58 10 L51 8 L35 3 L20 0 L17 0 L14 0 L13 1 L12 5 L9 8 L7 13 L4 19 L1 25 L0 32 L0 39 L0 43 L0 45 L0 50 L3 59 L5 68 L8 75 L11 83 L14 91 L21 105 L31 118 L43 130 L55 148 L68 163 L81 174 L99 190 L117 204 L137 219 L160 237 L179 249 L192 257 L212 266 L230 275 L253 283 L278 291 L302 294 L337 294 L378 294 L408 293 L448 287 L484 282 L509 277 L534 273 L548 272 L562 271 L579 273 L590 277 L599 284 L609 296 L616 304 L619 311 L621 318 L623 324 L623 331 L618 339 L607 347 L591 351 L566 351 L548 351 L530 351 L507 348 L486 342 L459 339 L435 332 L416 321 L391 304 L371 292 L352 271 L339 251 L330 238 L322 221 L314 205 L309 191 L298 169 L286 149 L276 133 L268 120 L261 109 L251 91 L240 74 L235 66 L232 64 L232 63 L231 63 L230 63 " fill="none" stroke="black" /></svg>