<?xml version="1.0" encoding="utf-8" ?>
<svg baseProfile="tiny" height="281" version="1.2" viewBox="-3 -3 345 281" width="345" xmlns="http://www.w3.org/2000/svg" xmlns:ev="http://www.w3.org/2001/xml-events" xmlns:xlink="http://www.w3.org/1999/xlink"><defs /><path d="M2 178 L0 190 L0 199 L0 204 L1 207 L2 209 L4 209 L5 209 L7 209 L11 203 L14 198 L18 193 L22 188 L30 181 L38 170 L46 161 L56 148 L66 137 L72 128 L79 115 L90 104 L100 93 L112 76 L125 60 L141 42 L161 22 L175 10 L192 1 L202 0 L208 0 L211 2 L213 7 L213 14 L207 31 L198 54 L188 73 L171 92 L158 106 L147 120 L137 131 L128 138 L118 150 L110 163 L105 173 L102 183 L100 190 L100 195 L102 198 L104 201 L105 202 L107 203 L108 204 L108 205 L110 205 L113 205 L115 202 L121 194 L126 186 L131 180 L140 169 L148 153 L155 141 L164 127 L174 115 L182 101 L191 84 L199 73 L208 65 L217 59 L227 53 L235 51 L244 50 L250 50 L256 51 L261 55 L263 62 L262 72 L256 85 L246 105 L228 139 L210 167 L198 181 L185 198 L172 215 L164 228 L156 248 L153 263 L153 269 L154 270 L158 270 L163 267 L176 256 L197 237 L211 219 L223 195 L231 173 L239 152 L247 137 L252 127 L259 117 L266 107 L275 100 L286 93 L293 90 L295 90 L298 91 L299 97 L298 107 L292 131 L281 159 L263 189 L247 209 L236 221 L226 232 L215 243 L208 254 L201 269 L199 276 L199 277 L202 278 L210 276 L225 272 L245 262 L265 246 L279 226 L291 197 L297 168 L300 151 L305 136 L310 127 L315 122 L324 115 L334 112 L339 112 L343 113 L345 116 L345 123 L332 150 L317 178 L298 204 L285 219 L277 230 L268 240 L262 251 L256 263 L251 274 L248 279 L248 280 L247 280 L247 281 " fill="none" stroke="black" /></svg>