<?xml version="1.0" encoding="utf-8" ?>
<svg baseProfile="tiny" height="321" version="1.2" viewBox="-3 -3 447 321" width="447" xmlns="http://www.w3.org/2000/svg" xmlns:ev="http://www.w3.org/2001/xml-events" xmlns:xlink="http://www.w3.org/1999/xlink"><defs /><path d="M17 73 L7 75 L3 77 L0 80 L0 83 L0 86 L3 88 L7 89 L14 91 L23 94 L36 97 L50 100 L63 100 L78 97 L89 92 L102 85 L115 73 L130 58 L143 45 L151 35 L160 22 L169 12 L180 5 L195 1 L211 0 L226 1 L242 6 L251 12 L262 24 L268 37 L269 65 L262 96 L249 137 L230 172 L218 190 L204 203 L188 212 L164 218 L127 222 L104 217 L93 211 L92 205 L95 193 L106 172 L123 152 L140 138 L170 130 L196 128 L216 129 L240 134 L260 137 L271 137 L283 136 L291 131 L298 121 L305 110 L308 100 L309 91 L307 82 L299 74 L282 66 L272 65 L270 66 L269 67 L273 90 L286 121 L309 173 L325 207 L332 222 L337 240 L337 263 L330 290 L313 314 L294 321 L266 315 L245 294 L237 273 L237 264 L240 254 L265 236 L294 226 L320 222 L338 221 L351 221 L361 220 L365 218 L367 215 L372 208 L377 200 L379 193 L380 187 L380 181 L379 178 L377 174 L375 173 L371 173 L365 173 L361 175 L360 176 L358 178 L360 192 L370 216 L383 243 L393 253 L406 258 L412 259 L415 261 L418 264 L419 266 L419 272 L412 284 L394 295 L381 297 L370 297 L360 293 L354 288 L347 278 L342 271 L342 267 L343 263 L347 260 L367 254 L394 254 L411 254 L416 255 L421 255 L424 255 L428 253 L433 249 L436 245 L440 239 L442 236 L443 233 L444 230 L445 228 L446 225 L446 223 L447 220 L447 216 L447 211 L446 209 L445 204 L444 202 L444 200 L444 198 L444 196 L444 194 L444 193 L444 192 " fill="none" stroke="black" /></svg>