<?xml version="1.0" encoding="utf-8" ?>
<svg baseProfile="tiny" height="391" version="1.2" viewBox="-3 -3 589 391" width="589" xmlns="http://www.w3.org/2000/svg" xmlns:ev="http://www.w3.org/2001/xml-events" xmlns:xlink="http://www.w3.org/1999/xlink"><defs /><path d="M0 23 L7 17 L22 7 L49 2 L68 0 L83 0 L100 4 L113 13 L128 23 L142 37 L160 57 L173 73 L186 98 L194 122 L201 158 L205 190 L206 221 L206 246 L205 274 L205 291 L205 311 L204 327 L203 337 L199 349 L195 357 L188 363 L173 367 L157 371 L141 371 L125 371 L116 368 L107 362 L98 347 L94 335 L91 323 L90 302 L91 277 L100 239 L112 202 L121 181 L136 152 L155 125 L174 101 L200 74 L226 54 L249 40 L277 31 L304 27 L338 27 L375 36 L406 50 L440 69 L470 91 L496 118 L519 150 L533 175 L537 189 L538 213 L527 260 L514 296 L498 337 L484 360 L470 374 L458 384 L446 389 L434 391 L419 391 L398 387 L377 381 L355 368 L343 360 L329 350 L317 338 L308 326 L302 312 L299 293 L295 274 L295 257 L296 234 L299 216 L306 195 L311 180 L316 168 L324 151 L334 135 L343 126 L352 118 L361 113 L373 107 L391 103 L410 99 L421 99 L438 99 L451 99 L470 102 L485 106 L499 112 L517 122 L531 132 L542 143 L554 158 L568 181 L576 199 L586 232 L589 246 L589 254 L588 266 L585 276 L580 295 L571 311 L556 333 L544 347 L522 363 L502 368 L483 370 L459 366 L444 361 L427 351 L410 330 L400 316 L391 292 L387 274 L387 264 L386 250 L387 236 L389 227 L394 217 L400 205 L405 200 L414 195 L422 190 L428 188 L435 184 L440 184 L445 183 L452 183 L461 186 L468 190 L473 196 L476 200 L481 209 L484 218 L484 231 L479 255 L476 263 L476 265 " fill="none" stroke="black" /></svg>