<?xml version="1.0" encoding="utf-8" ?>
<svg baseProfile="tiny" height="349" version="1.2" viewBox="-3 -3 339 349" width="339" xmlns="http://www.w3.org/2000/svg" xmlns:ev="http://www.w3.org/2001/xml-events" xmlns:xlink="http://www.w3.org/1999/xlink"><defs /><path d="M87 76 L76 99 L56 126 L36 147 L25 161 L23 165 L23 167 L26 167 L29 167 L43 163 L60 154 L89 134 L110 120 L126 109 L144 101 L153 97 L158 96 L162 98 L165 103 L165 107 L157 126 L127 158 L102 178 L77 191 L67 196 L65 197 L65 198 L65 200 L67 200 L69 200 L77 197 L90 193 L106 188 L135 177 L167 161 L187 151 L195 147 L196 147 L196 148 L196 152 L196 154 L194 161 L186 183 L173 200 L154 216 L130 224 L114 228 L103 232 L97 235 L97 237 L97 239 L101 240 L112 240 L132 240 L155 239 L175 232 L194 224 L209 214 L218 208 L225 205 L233 202 L238 201 L241 201 L241 203 L241 205 L228 216 L187 244 L153 257 L128 264 L124 265 L122 266 L122 268 L124 271 L135 274 L160 279 L200 278 L228 270 L240 263 L251 258 L257 255 L263 254 L268 254 L269 254 L271 259 L268 285 L257 313 L246 333 L237 345 L235 347 L234 348 L233 349 L232 349 L227 346 L224 341 L217 327 L201 307 L185 287 L168 262 L148 234 L133 217 L120 198 L106 179 L82 155 L60 124 L41 101 L31 87 L23 72 L17 61 L8 47 L2 38 L0 35 L11 32 L38 24 L96 5 L145 0 L178 10 L212 27 L235 45 L243 56 L248 64 L250 69 L248 75 L230 107 L199 144 L186 156 L184 160 L193 158 L220 154 L247 152 L271 152 L286 152 L291 153 L294 153 L295 156 L293 164 L280 194 L272 214 L270 218 L270 219 L279 218 L292 217 L304 221 L325 230 L334 236 L338 239 L339 246 L334 266 L331 287 L330 294 L330 297 " fill="none" stroke="black" /></svg>