<?xml version="1.0" encoding="utf-8" ?>
<svg baseProfile="tiny" height="401" version="1.2" viewBox="-3 -3 382 401" width="382" xmlns="http://www.w3.org/2000/svg" xmlns:ev="http://www.w3.org/2001/xml-events" xmlns:xlink="http://www.w3.org/1999/xlink"><defs /><path d="M66 250 L70 257 L73 260 L77 264 L84 270 L95 280 L108 289 L125 302 L145 312 L159 315 L177 319 L196 323 L210 325 L225 326 L236 326 L243 326 L254 322 L266 316 L279 309 L289 301 L295 294 L302 286 L309 277 L315 270 L320 262 L326 253 L328 246 L332 237 L334 228 L337 221 L338 210 L340 195 L339 183 L338 171 L337 152 L335 140 L334 131 L330 122 L326 113 L317 98 L301 81 L288 70 L273 61 L260 53 L249 48 L231 42 L212 38 L196 35 L181 32 L169 32 L154 32 L138 34 L127 36 L116 39 L106 43 L99 49 L90 57 L83 65 L76 73 L66 89 L59 105 L54 114 L46 133 L41 149 L35 166 L32 182 L29 192 L28 208 L30 234 L33 254 L38 280 L46 297 L53 306 L67 317 L83 327 L110 336 L141 342 L165 346 L202 349 L230 350 L247 350 L264 350 L281 350 L295 349 L312 344 L328 340 L338 335 L348 327 L358 314 L364 303 L370 285 L375 262 L378 244 L380 225 L382 206 L382 193 L382 183 L380 172 L378 165 L375 155 L370 145 L367 135 L361 122 L357 111 L351 99 L342 83 L335 73 L330 65 L323 57 L317 50 L305 38 L292 28 L283 21 L268 12 L252 7 L243 4 L237 2 L227 1 L220 1 L212 0 L206 0 L200 0 L190 0 L181 0 L169 0 L154 0 L141 1 L127 4 L112 6 L97 9 L82 15 L60 31 L43 48 L27 69 L15 95 L7 114 L2 150 L0 189 L2 215 L6 249 L15 280 L32 323 L47 358 L65 374 L90 386 L112 396 L119 400 L121 401 L122 401 " fill="none" stroke="black" /></svg>