<?xml version="1.0" encoding="utf-8" ?>
<svg baseProfile="tiny" height="297" version="1.2" viewBox="-3 -3 376 297" width="376" xmlns="http://www.w3.org/2000/svg" xmlns:ev="http://www.w3.org/2001/xml-events" xmlns:xlink="http://www.w3.org/1999/xlink"><defs /><path d="M54 0 L55 0 L16 44 L2 60 L14 50 L20 45 L15 50 L12 54 L12 55 L21 48 L23 46 L24 46 L17 52 L12 59 L26 47 L36 38 L37 38 L36 39 L37 39 L45 32 L46 31 L46 33 L18 73 L1 95 L0 97 L28 68 L54 40 L64 31 L62 34 L42 62 L24 88 L23 90 L46 70 L79 41 L85 38 L54 73 L37 95 L36 96 L46 87 L61 74 L64 71 L64 73 L53 86 L43 99 L62 83 L89 61 L92 59 L92 61 L68 90 L50 115 L49 116 L71 98 L105 69 L112 64 L84 98 L59 130 L54 136 L76 117 L124 76 L133 68 L99 103 L78 127 L77 128 L94 115 L110 102 L111 101 L110 105 L76 157 L58 185 L59 185 L99 146 L142 110 L155 98 L131 123 L101 159 L97 162 L112 148 L136 123 L138 121 L138 122 L134 127 L133 127 L143 118 L146 114 L136 130 L128 140 L150 118 L167 101 L169 101 L157 119 L125 165 L124 165 L143 146 L166 126 L167 125 L163 130 L155 140 L154 141 L153 142 L153 141 L215 167 L283 216 L301 230 L304 231 L303 231 L302 231 L301 231 L307 223 L339 183 L354 163 L355 162 L332 197 L301 239 L291 252 L301 244 L324 220 L337 209 L337 208 L324 229 L302 260 L301 262 L321 248 L338 232 L339 231 L335 240 L322 265 L320 268 L326 266 L334 259 L335 259 L334 260 L331 265 L331 266 L356 253 L373 241 L375 241 L373 249 L359 267 L355 274 L371 264 L375 258 L376 258 L371 268 L353 291 L348 297 L353 293 L363 284 L363 282 L363 283 " fill="none" stroke="black" /></svg>