<?xml version="1.0" encoding="utf-8" ?>
<svg baseProfile="tiny" height="364" version="1.2" viewBox="-3 -3 435 364" width="435" xmlns="http://www.w3.org/2000/svg" xmlns:ev="http://www.w3.org/2001/xml-events" xmlns:xlink="http://www.w3.org/1999/xlink"><defs /><path d="M154 187 L132 178 L113 173 L100 172 L92 171 L89 171 L87 172 L85 179 L81 191 L78 205 L76 219 L74 233 L75 238 L75 239 L76 241 L82 244 L92 252 L106 260 L123 268 L147 275 L158 278 L175 279 L196 279 L212 275 L228 270 L238 263 L245 255 L256 240 L266 221 L270 208 L271 194 L267 177 L254 158 L228 124 L194 101 L166 93 L137 87 L108 85 L92 86 L76 90 L60 99 L49 112 L42 130 L36 144 L31 159 L23 181 L22 200 L21 221 L21 239 L22 248 L25 256 L29 261 L35 267 L51 280 L77 299 L106 312 L144 328 L175 336 L214 342 L253 347 L286 348 L311 344 L342 330 L358 315 L373 287 L385 245 L388 217 L386 184 L370 144 L352 113 L331 86 L300 57 L250 22 L215 6 L187 0 L161 0 L134 0 L104 7 L90 13 L76 22 L61 35 L50 48 L37 66 L30 78 L21 99 L14 123 L9 140 L5 162 L2 186 L1 206 L0 229 L1 256 L7 279 L14 301 L21 312 L29 319 L45 329 L72 342 L98 350 L129 355 L154 357 L200 359 L240 363 L266 364 L301 361 L333 358 L355 357 L378 351 L392 348 L397 345 L401 343 L403 341 L407 338 L410 335 L415 332 L418 328 L422 323 L424 318 L427 314 L429 311 L429 309 L430 306 L432 303 L432 299 L433 294 L433 286 L434 281 L434 277 L434 274 L434 272 L435 262 L435 251 L434 245 L433 235 L431 225 L427 209 L423 194 L419 181 L412 167 L407 156 L405 150 L396 131 L383 108 L376 101 L372 97 L368 94 L367 93 L366 93 L365 92 L364 92 " fill="none" stroke="black" /></svg>