<?xml version="1.0" encoding="utf-8" ?>
<svg baseProfile="tiny" height="386" version="1.2" viewBox="-3 -3 626 386" width="626" xmlns="http://www.w3.org/2000/svg" xmlns:ev="http://www.w3.org/2001/xml-events" xmlns:xlink="http://www.w3.org/1999/xlink"><defs /><path d="M45 0 L47 3 L48 5 L49 9 L50 15 L51 19 L51 26 L51 31 L48 36 L41 44 L32 54 L23 65 L15 75 L7 84 L1 96 L0 99 L2 100 L9 98 L26 91 L51 76 L65 63 L79 45 L94 28 L103 21 L109 17 L112 16 L114 16 L117 17 L119 22 L118 42 L100 83 L70 126 L55 150 L47 163 L46 164 L46 165 L47 165 L56 164 L74 156 L97 135 L119 104 L131 87 L140 77 L145 72 L152 68 L164 65 L173 63 L181 63 L184 63 L186 67 L186 87 L176 135 L160 171 L142 200 L137 208 L137 209 L138 207 L152 199 L175 186 L198 169 L215 155 L230 141 L242 130 L251 124 L260 118 L268 117 L280 117 L285 121 L287 126 L279 140 L253 170 L235 188 L221 207 L215 221 L214 227 L213 233 L213 234 L219 235 L236 236 L265 229 L291 214 L313 188 L324 175 L330 169 L337 165 L345 162 L358 162 L365 164 L367 165 L371 201 L346 251 L321 285 L308 298 L307 299 L309 299 L325 297 L345 291 L366 279 L389 261 L405 250 L420 241 L429 232 L438 228 L451 226 L464 229 L471 235 L475 248 L469 271 L458 291 L440 312 L429 325 L428 327 L428 328 L432 331 L447 338 L463 340 L481 336 L494 329 L515 317 L533 304 L541 296 L549 284 L555 277 L561 273 L564 272 L565 272 L568 285 L568 311 L568 327 L568 340 L568 347 L567 353 L567 357 L567 362 L567 363 L569 363 L577 358 L586 348 L599 336 L610 325 L617 317 L622 313 L624 311 L626 312 L626 331 L625 344 L622 365 L620 376 L619 380 L620 386 " fill="none" stroke="black" /></svg>