<?xml version="1.0" encoding="utf-8" ?>
<svg baseProfile="tiny" height="142" version="1.2" viewBox="-3 -3 49 142" width="49" xmlns="http://www.w3.org/2000/svg" xmlns:ev="http://www.w3.org/2001/xml-events" xmlns:xlink="http://www.w3.org/1999/xlink"><defs /><path d="M27 44 L30 55 L31 62 L32 72 L32 83 L31 89 L31 94 L30 102 L30 108 L29 115 L29 123 L28 128 L27 131 L27 134 L26 137 L25 139 L25 141 L25 142 " fill="none" stroke="black" /><path d="M27 44 L30 55 L31 62 L32 72 L32 83 L31 89 L31 94 L30 102 L30 108 L29 115 L29 123 L28 128 L27 131 L27 134 L26 137 L25 139 L25 141 L25 142 M28 44 L24 42 L13 36 L8 34 L5 32 L4 31 L3 30 L2 29 L1 25 L0 20 L0 18 L0 15 L2 13 L8 9 L12 5 L15 3 L19 1 L23 0 L26 0 L33 0 L35 0 L38 0 " fill="none" stroke="black" /><path d="M27 44 L30 55 L31 62 L32 72 L32 83 L31 89 L31 94 L30 102 L30 108 L29 115 L29 123 L28 128 L27 131 L27 134 L26 137 L25 139 L25 141 L25 142 M28 44 L24 42 L13 36 L8 34 L5 32 L4 31 L3 30 L2 29 L1 25 L0 20 L0 18 L0 15 L2 13 L8 9 L12 5 L15 3 L19 1 L23 0 L26 0 L33 0 L35 0 L38 0 M36 0 L37 0 L37 2 L38 3 L38 4 L39 5 L42 7 L43 8 L44 9 L45 10 L46 11 L47 12 L47 14 L47 15 L47 16 L47 18 L46 20 L45 24 " fill="none" stroke="black" /><path d="M27 44 L30 55 L31 62 L32 72 L32 83 L31 89 L31 94 L30 102 L30 108 L29 115 L29 123 L28 128 L27 131 L27 134 L26 137 L25 139 L25 141 L25 142 M28 44 L24 42 L13 36 L8 34 L5 32 L4 31 L3 30 L2 29 L1 25 L0 20 L0 18 L0 15 L2 13 L8 9 L12 5 L15 3 L19 1 L23 0 L26 0 L33 0 L35 0 L38 0 M36 0 L37 0 L37 2 L38 3 L38 4 L39 5 L42 7 L43 8 L44 9 L45 10 L46 11 L47 12 L47 14 L47 15 L47 16 L47 18 L46 20 L45 24 M33 42 L32 42 L31 42 L30 42 L29 42 L28 42 L27 42 L28 42 L30 42 L32 42 L34 42 L35 42 L38 42 L39 40 L40 39 L41 39 L41 38 L41 36 L41 34 L42 33 L43 32 L44 31 L45 30 L45 29 L46 29 L47 28 L48 27 L48 26 L49 26 L49 25 L49 24 L49 23 L49 22 " fill="none" stroke="black" /><path d="M27 44 L30 55 L31 62 L32 72 L32 83 L31 89 L31 94 L30 102 L30 108 L29 115 L29 123 L28 128 L27 131 L27 134 L26 137 L25 139 L25 141 L25 142 M28 44 L24 42 L13 36 L8 34 L5 32 L4 31 L3 30 L2 29 L1 25 L0 20 L0 18 L0 15 L2 13 L8 9 L12 5 L15 3 L19 1 L23 0 L26 0 L33 0 L35 0 L38 0 M36 0 L37 0 L37 2 L38 3 L38 4 L39 5 L42 7 L43 8 L44 9 L45 10 L46 11 L47 12 L47 14 L47 15 L47 16 L47 18 L46 20 L45 24 M33 42 L32 42 L31 42 L30 42 L29 42 L28 42 L27 42 L28 42 L30 42 L32 42 L34 42 L35 42 L38 42 L39 40 L40 39 L41 39 L41 38 L41 36 L41 34 L42 33 L43 32 L44 31 L45 30 L45 29 L46 29 L47 28 L48 27 L48 26 L49 26 L49 25 L49 24 L49 23 L49 22 M24 44 L24 47 L24 52 L23 60 L23 67 L23 74 L23 77 L23 79 L23 81 L23 82 L23 84 L24 86 L25 90 L25 92 L26 96 L26 98 L27 100 L28 101 L28 103 L28 105 L28 106 L28 107 L28 108 L28 110 L28 111 L27 112 L27 113 L26 115 L25 116 L25 117 L24 117 L24 118 L23 118 L23 119 L22 120 L22 121 L22 122 L22 123 L22 124 L22 125 L22 126 L22 127 L22 128 L22 129 L22 130 L22 131 L22 132 L22 133 L22 135 L22 136 L22 137 L22 138 L22 139 L22 140 L22 141 " fill="none" stroke="black" /></svg>