<?xml version="1.0" encoding="utf-8" ?>
<svg baseProfile="tiny" height="106" version="1.2" viewBox="-3 -3 110 106" width="110" xmlns="http://www.w3.org/2000/svg" xmlns:ev="http://www.w3.org/2001/xml-events" xmlns:xlink="http://www.w3.org/1999/xlink"><defs /><path d="M41 25 L46 24 L52 24 L58 24 L65 25 L69 29 L73 49 L49 92 L37 100 L34 102 L32 102 L31 102 L30 93 L34 76 L41 66 L57 54 L68 51 L73 50 L75 50 L78 50 L79 52 L79 61 L62 101 L52 106 L47 106 L27 84 L16 57 L17 52 L20 49 L31 45 L50 41 L59 41 L63 42 L65 45 L66 53 L64 68 L59 84 L56 89 L51 92 L45 93 " fill="none" stroke="black" /><path d="M41 25 L46 24 L52 24 L58 24 L65 25 L69 29 L73 49 L49 92 L37 100 L34 102 L32 102 L31 102 L30 93 L34 76 L41 66 L57 54 L68 51 L73 50 L75 50 L78 50 L79 52 L79 61 L62 101 L52 106 L47 106 L27 84 L16 57 L17 52 L20 49 L31 45 L50 41 L59 41 L63 42 L65 45 L66 53 L64 68 L59 84 L56 89 L51 92 L45 93 M0 34 L0 36 " fill="none" stroke="black" /><path d="M41 25 L46 24 L52 24 L58 24 L65 25 L69 29 L73 49 L49 92 L37 100 L34 102 L32 102 L31 102 L30 93 L34 76 L41 66 L57 54 L68 51 L73 50 L75 50 L78 50 L79 52 L79 61 L62 101 L52 106 L47 106 L27 84 L16 57 L17 52 L20 49 L31 45 L50 41 L59 41 L63 42 L65 45 L66 53 L64 68 L59 84 L56 89 L51 92 L45 93 M0 34 L0 36 M77 5 L77 4 L78 3 L78 2 L78 0 " fill="none" stroke="black" /><path d="M41 25 L46 24 L52 24 L58 24 L65 25 L69 29 L73 49 L49 92 L37 100 L34 102 L32 102 L31 102 L30 93 L34 76 L41 66 L57 54 L68 51 L73 50 L75 50 L78 50 L79 52 L79 61 L62 101 L52 106 L47 106 L27 84 L16 57 L17 52 L20 49 L31 45 L50 41 L59 41 L63 42 L65 45 L66 53 L64 68 L59 84 L56 89 L51 92 L45 93 M0 34 L0 36 M77 5 L77 4 L78 3 L78 2 L78 0 M25 17 L23 34 L22 35 " fill="none" stroke="black" /><path d="M41 25 L46 24 L52 24 L58 24 L65 25 L69 29 L73 49 L49 92 L37 100 L34 102 L32 102 L31 102 L30 93 L34 76 L41 66 L57 54 L68 51 L73 50 L75 50 L78 50 L79 52 L79 61 L62 101 L52 106 L47 106 L27 84 L16 57 L17 52 L20 49 L31 45 L50 41 L59 41 L63 42 L65 45 L66 53 L64 68 L59 84 L56 89 L51 92 L45 93 M0 34 L0 36 M77 5 L77 4 L78 3 L78 2 L78 0 M25 17 L23 34 L22 35 M110 24 L105 30 L82 55 L75 62 L74 63 L73 63 " fill="none" stroke="black" /></svg>