<?xml version="1.0" encoding="utf-8" ?>
<svg baseProfile="tiny" height="60" version="1.2" viewBox="-3 -3 136 60" width="136" xmlns="http://www.w3.org/2000/svg" xmlns:ev="http://www.w3.org/2001/xml-events" xmlns:xlink="http://www.w3.org/1999/xlink"><defs /><path d="M22 54 L25 55 L27 55 L29 55 L30 55 L31 55 L31 54 L32 53 L32 51 L34 49 L37 46 L38 45 L40 43 L42 42 L44 40 L46 40 L47 39 L50 39 L51 38 L52 38 L54 39 L54 40 L55 41 L56 43 L56 44 L57 47 L58 49 L58 51 L59 52 L59 54 L60 56 L61 57 L62 57 L64 57 L67 57 L73 57 L80 58 L82 58 L85 58 L87 58 L88 58 L90 55 L91 52 L93 49 L95 47 L96 46 L97 46 L97 45 L98 45 L99 45 L101 45 L103 45 L104 45 L107 46 L109 48 L111 50 L113 52 L114 53 L114 55 L116 57 L116 58 L117 59 L118 60 L119 60 L120 60 L123 60 L125 60 L128 60 L130 60 L132 60 L133 60 L134 60 L135 60 L136 60 L136 59 L136 57 L136 54 L136 52 L136 51 L136 49 L135 46 L135 45 L135 43 L135 41 L135 39 L135 38 L135 36 L135 35 L135 34 L134 33 L134 32 L133 31 L132 31 L130 30 L129 30 L128 29 L127 29 L125 29 L124 29 L123 29 L122 28 L120 28 L117 28 L115 27 L111 27 L109 27 L106 27 L104 26 L103 26 L102 25 L101 23 L99 22 L98 20 L96 16 L94 11 L93 8 L92 7 L91 5 L87 3 L84 1 L79 0 L74 0 L65 1 L56 4 L48 7 L45 9 L42 11 L39 12 L38 13 L35 13 L34 13 L32 14 L29 15 L27 16 L26 17 L23 20 L20 24 L19 26 L17 28 L15 30 L13 32 L12 33 L10 33 L8 34 L6 36 L4 38 L3 40 L1 45 L1 48 L0 50 " fill="none" stroke="black" /></svg>