<?xml version="1.0" encoding="utf-8" ?>
<svg baseProfile="tiny" height="99" version="1.2" viewBox="-3 -3 156 99" width="156" xmlns="http://www.w3.org/2000/svg" xmlns:ev="http://www.w3.org/2001/xml-events" xmlns:xlink="http://www.w3.org/1999/xlink"><defs /><path d="M12 32 L8 40 L4 48 L3 62 L5 69 L11 74 L19 75 L29 70 L45 56 L50 47 L50 44 L50 42 L49 41 L43 40 L39 40 L35 42 L29 48 L26 56 L25 68 L26 76 L29 81 L36 86 L67 85 L82 82 L89 79 L91 78 L97 72 L102 64 L105 60 L105 58 L104 57 L100 56 L96 56 L91 56 L88 58 L85 63 L83 67 L83 74 L85 82 L90 87 L93 88 L100 88 L104 87 L107 85 L114 78 L124 62 L126 55 L126 52 L126 49 L126 46 L126 41 L125 35 L123 30 L122 25 L121 20 L121 17 L120 15 L119 12 L119 9 L119 7 L119 5 L119 4 L120 2 L127 0 L137 0 L143 0 L145 0 L146 2 L148 6 L150 13 L150 19 L150 26 L146 33 L139 49 L134 62 L133 69 L133 73 L137 79 L141 83 L147 89 L151 91 L153 93 L155 94 L156 96 L156 97 L155 98 L149 98 L134 98 L113 98 L98 98 L91 98 L77 98 L61 99 L54 99 L45 99 L38 99 L29 99 L18 99 L12 99 L8 98 L6 97 L4 96 L3 93 L2 90 L0 77 L0 66 L1 50 L2 40 L3 37 L3 35 L3 34 L3 33 L3 32 L3 31 L5 30 L35 24 L59 22 L63 22 L73 24 L87 26 L98 28 L112 31 L118 31 L123 32 L125 32 L127 33 L129 33 L130 33 " fill="none" stroke="black" /></svg>