<?xml version="1.0" encoding="utf-8" ?>
<svg baseProfile="tiny" height="149" version="1.2" viewBox="-3 -3 183 149" width="183" xmlns="http://www.w3.org/2000/svg" xmlns:ev="http://www.w3.org/2001/xml-events" xmlns:xlink="http://www.w3.org/1999/xlink"><defs /><path d="M0 57 L4 81 L10 109 L11 119 L15 129 L19 139 L20 142 L22 145 L26 147 L30 149 L33 149 L37 149 L40 149 L43 145 L48 132 L52 116 L54 111 L55 105 L55 103 L55 100 L55 97 L55 91 L55 83 L55 75 L55 71 L57 66 L59 60 L61 55 L62 52 L64 48 L67 43 L71 39 L75 37 L78 37 L84 41 L90 57 L91 65 L92 74 L92 83 L92 90 L92 99 L93 108 L93 112 L94 115 L95 118 L99 122 L104 126 L111 131 L122 135 L128 137 L131 137 L133 137 L134 136 L136 128 L138 112 L138 104 L138 92 L139 82 L140 74 L140 68 L142 59 L146 47 L148 43 L149 42 L150 42 L160 41 L167 42 L171 43 L173 45 L176 50 L177 56 L177 58 L177 60 L177 65 L177 71 L177 82 L179 101 L179 107 L179 111 L180 115 L181 119 L181 126 L182 130 L182 134 L182 137 L183 138 " fill="none" stroke="black" /><path d="M0 57 L4 81 L10 109 L11 119 L15 129 L19 139 L20 142 L22 145 L26 147 L30 149 L33 149 L37 149 L40 149 L43 145 L48 132 L52 116 L54 111 L55 105 L55 103 L55 100 L55 97 L55 91 L55 83 L55 75 L55 71 L57 66 L59 60 L61 55 L62 52 L64 48 L67 43 L71 39 L75 37 L78 37 L84 41 L90 57 L91 65 L92 74 L92 83 L92 90 L92 99 L93 108 L93 112 L94 115 L95 118 L99 122 L104 126 L111 131 L122 135 L128 137 L131 137 L133 137 L134 136 L136 128 L138 112 L138 104 L138 92 L139 82 L140 74 L140 68 L142 59 L146 47 L148 43 L149 42 L150 42 L160 41 L167 42 L171 43 L173 45 L176 50 L177 56 L177 58 L177 60 L177 65 L177 71 L177 82 L179 101 L179 107 L179 111 L180 115 L181 119 L181 126 L182 130 L182 134 L182 137 L183 138 M28 2 L26 2 L13 7 L6 10 L3 12 L1 14 L0 15 L0 19 L0 23 L0 25 L2 29 L7 32 L10 33 L14 33 L21 33 L26 32 L32 29 L33 28 L36 26 L36 25 L37 24 L37 20 L37 16 L36 13 L35 11 L33 8 L31 7 L30 6 L28 4 L27 2 L26 1 L25 0 " fill="none" stroke="black" /></svg>