<?xml version="1.0" encoding="utf-8" ?>
<svg baseProfile="tiny" height="117" version="1.2" viewBox="-3 -3 211 117" width="211" xmlns="http://www.w3.org/2000/svg" xmlns:ev="http://www.w3.org/2001/xml-events" xmlns:xlink="http://www.w3.org/1999/xlink"><defs /><path d="M0 101 L5 101 L22 104 L31 105 L37 105 L38 105 L39 104 L40 94 L37 59 L33 42 L31 27 L28 8 L28 3 L27 2 L27 0 L27 2 L36 27 L60 84 L63 93 L64 97 L66 104 L67 110 L67 113 L68 115 L68 117 L68 113 " fill="none" stroke="black" /><path d="M0 101 L5 101 L22 104 L31 105 L37 105 L38 105 L39 104 L40 94 L37 59 L33 42 L31 27 L28 8 L28 3 L27 2 L27 0 L27 2 L36 27 L60 84 L63 93 L64 97 L66 104 L67 110 L67 113 L68 115 L68 117 L68 113 M64 107 L64 101 L66 89 L67 82 L68 80 L68 78 L69 77 L70 77 L71 77 L73 80 L80 85 L84 89 L88 92 L90 94 L91 95 L93 96 L94 97 L95 97 L96 95 L98 84 L98 77 L99 75 L99 74 L100 74 L102 75 L107 82 L112 89 L115 93 L116 94 L117 94 L119 93 L123 85 L125 76 L130 65 L132 61 L133 60 L134 60 L139 65 L150 79 L157 88 L160 93 L161 94 L163 95 L165 95 L168 94 L172 91 L176 88 L190 84 L211 81 " fill="none" stroke="black" /></svg>