<?xml version="1.0" encoding="utf-8" ?>
<svg baseProfile="tiny" height="85" version="1.2" viewBox="-3 -3 256 85" width="256" xmlns="http://www.w3.org/2000/svg" xmlns:ev="http://www.w3.org/2001/xml-events" xmlns:xlink="http://www.w3.org/1999/xlink"><defs /><path d="M0 71 L9 59 L13 55 L15 53 L16 53 L18 59 L21 68 L23 72 L23 74 L24 75 L28 74 L38 68 L45 64 L47 63 L48 62 L50 62 L53 64 L56 66 L58 67 L64 69 L75 67 L80 65 L84 65 L87 65 L89 65 L92 65 L95 63 L103 62 L108 61 L110 61 L114 61 L117 62 L120 64 L135 63 L139 64 L146 66 L158 73 L162 76 L164 77 L166 78 L167 79 L167 81 L167 82 L167 84 L167 85 L167 82 L167 80 L168 76 L168 70 L168 67 L169 66 L169 65 L170 64 L171 65 L171 66 L172 66 L173 68 L176 72 L176 75 L176 78 L176 79 L176 80 L176 81 L176 82 L177 78 L177 75 L178 73 L179 72 L182 72 L187 73 L190 75 L191 76 L193 77 L196 77 L200 75 L202 75 L204 73 L205 72 L206 71 L207 70 L209 70 L210 70 L212 71 L214 72 L215 72 L218 73 L219 73 L222 73 L223 73 L225 73 L228 73 L230 75 L231 77 L233 77 L241 75 L245 71 L247 70 L248 69 L250 69 L252 73 L255 78 L256 79 L256 80 " fill="none" stroke="black" /><path d="M0 71 L9 59 L13 55 L15 53 L16 53 L18 59 L21 68 L23 72 L23 74 L24 75 L28 74 L38 68 L45 64 L47 63 L48 62 L50 62 L53 64 L56 66 L58 67 L64 69 L75 67 L80 65 L84 65 L87 65 L89 65 L92 65 L95 63 L103 62 L108 61 L110 61 L114 61 L117 62 L120 64 L135 63 L139 64 L146 66 L158 73 L162 76 L164 77 L166 78 L167 79 L167 81 L167 82 L167 84 L167 85 L167 82 L167 80 L168 76 L168 70 L168 67 L169 66 L169 65 L170 64 L171 65 L171 66 L172 66 L173 68 L176 72 L176 75 L176 78 L176 79 L176 80 L176 81 L176 82 L177 78 L177 75 L178 73 L179 72 L182 72 L187 73 L190 75 L191 76 L193 77 L196 77 L200 75 L202 75 L204 73 L205 72 L206 71 L207 70 L209 70 L210 70 L212 71 L214 72 L215 72 L218 73 L219 73 L222 73 L223 73 L225 73 L228 73 L230 75 L231 77 L233 77 L241 75 L245 71 L247 70 L248 69 L250 69 L252 73 L255 78 L256 79 L256 80 M56 14 L58 23 L65 36 L71 43 L77 48 L82 51 L88 54 L95 57 L102 59 L108 60 L113 60 L118 59 L123 55 L131 37 L131 34 L131 29 L127 23 L119 15 L110 8 L105 4 L100 1 L94 0 L83 0 L67 1 L59 3 L57 4 L55 4 L54 6 L53 7 L52 8 L51 10 " fill="none" stroke="black" /></svg>