<?xml version="1.0" encoding="utf-8" ?>
<svg baseProfile="tiny" height="120" version="1.2" viewBox="-3 -3 90 120" width="90" xmlns="http://www.w3.org/2000/svg" xmlns:ev="http://www.w3.org/2001/xml-events" xmlns:xlink="http://www.w3.org/1999/xlink"><defs /><path d="M46 0 L44 3 L44 4 L42 5 L32 8 L23 12 L21 14 L19 15 L16 17 L15 18 L14 20 L11 29 L7 39 L5 51 L4 67 L3 72 L3 74 L3 75 L3 79 L2 82 L1 85 L0 88 L0 89 L0 90 L0 91 L1 91 L2 91 L5 92 L8 92 L11 92 L13 93 L16 93 L22 95 L25 95 L28 95 L30 95 L36 94 L40 94 L43 94 L46 93 L51 92 L55 90 L61 88 L68 86 L73 86 L76 86 L78 85 L80 83 L83 81 L85 80 L87 78 L88 77 L90 74 L90 71 L90 68 L90 65 L90 63 L89 61 L87 56 L83 49 L80 44 L77 41 L75 40 L73 37 L69 31 L66 27 L65 26 L64 24 L62 23 L60 20 L55 15 L51 11 L49 10 L49 9 L48 9 L47 8 L46 7 L46 6 L45 5 L44 5 " fill="none" stroke="black" /><path d="M46 0 L44 3 L44 4 L42 5 L32 8 L23 12 L21 14 L19 15 L16 17 L15 18 L14 20 L11 29 L7 39 L5 51 L4 67 L3 72 L3 74 L3 75 L3 79 L2 82 L1 85 L0 88 L0 89 L0 90 L0 91 L1 91 L2 91 L5 92 L8 92 L11 92 L13 93 L16 93 L22 95 L25 95 L28 95 L30 95 L36 94 L40 94 L43 94 L46 93 L51 92 L55 90 L61 88 L68 86 L73 86 L76 86 L78 85 L80 83 L83 81 L85 80 L87 78 L88 77 L90 74 L90 71 L90 68 L90 65 L90 63 L89 61 L87 56 L83 49 L80 44 L77 41 L75 40 L73 37 L69 31 L66 27 L65 26 L64 24 L62 23 L60 20 L55 15 L51 11 L49 10 L49 9 L48 9 L47 8 L46 7 L46 6 L45 5 L44 5 M31 98 L32 98 L33 98 L35 98 L38 98 L41 98 L43 98 L45 98 L46 99 L47 101 L47 102 L46 107 L43 111 L38 116 L33 119 L31 119 L30 120 L28 120 L26 120 L25 120 L24 120 L23 118 L23 117 L23 115 L23 114 L23 112 L24 111 L25 110 L26 108 L27 107 L28 105 L29 104 L30 103 L30 102 L30 101 L31 101 L32 100 L33 100 L34 99 L35 99 " fill="none" stroke="black" /></svg>