<?xml version="1.0" encoding="utf-8" ?>
<svg baseProfile="tiny" height="87" version="1.2" viewBox="-3 -3 88 87" width="88" xmlns="http://www.w3.org/2000/svg" xmlns:ev="http://www.w3.org/2001/xml-events" xmlns:xlink="http://www.w3.org/1999/xlink"><defs /><path d="M59 0 L73 2 L83 4 L86 6 L86 8 L87 9 L87 14 L88 35 L88 46 L88 62 L88 79 L87 82 L87 84 L86 85 L86 86 L85 87 L84 87 L81 87 L66 86 L30 81 L20 80 L15 78 L8 77 L5 77 L4 76 L2 76 L0 75 " fill="none" stroke="black" /><path d="M59 0 L73 2 L83 4 L86 6 L86 8 L87 9 L87 14 L88 35 L88 46 L88 62 L88 79 L87 82 L87 84 L86 85 L86 86 L85 87 L84 87 L81 87 L66 86 L30 81 L20 80 L15 78 L8 77 L5 77 L4 76 L2 76 L0 75 M4 3 L4 7 L6 19 L8 36 L8 44 L8 49 L8 52 L8 56 L8 61 L7 63 L7 65 L7 68 L6 69 L6 70 L5 70 L4 70 " fill="none" stroke="black" /><path d="M59 0 L73 2 L83 4 L86 6 L86 8 L87 9 L87 14 L88 35 L88 46 L88 62 L88 79 L87 82 L87 84 L86 85 L86 86 L85 87 L84 87 L81 87 L66 86 L30 81 L20 80 L15 78 L8 77 L5 77 L4 76 L2 76 L0 75 M4 3 L4 7 L6 19 L8 36 L8 44 L8 49 L8 52 L8 56 L8 61 L7 63 L7 65 L7 68 L6 69 L6 70 L5 70 L4 70 M44 28 L43 28 L37 28 L31 28 L25 31 L22 33 L21 34 L20 36 L19 39 L18 41 L18 42 L18 45 L19 47 L20 49 L24 53 L27 56 L30 58 L32 59 L35 60 L40 61 L43 62 L48 62 L55 62 L58 62 L60 61 L62 60 L66 58 L68 56 L69 54 L70 52 L71 50 L71 49 L71 46 L71 43 L71 41 L70 38 L69 36 L66 34 L64 33 L62 32 L61 32 L58 31 L56 30 L54 29 L53 29 L52 29 L51 29 L49 29 L48 29 " fill="none" stroke="black" /><path d="M59 0 L73 2 L83 4 L86 6 L86 8 L87 9 L87 14 L88 35 L88 46 L88 62 L88 79 L87 82 L87 84 L86 85 L86 86 L85 87 L84 87 L81 87 L66 86 L30 81 L20 80 L15 78 L8 77 L5 77 L4 76 L2 76 L0 75 M4 3 L4 7 L6 19 L8 36 L8 44 L8 49 L8 52 L8 56 L8 61 L7 63 L7 65 L7 68 L6 69 L6 70 L5 70 L4 70 M44 28 L43 28 L37 28 L31 28 L25 31 L22 33 L21 34 L20 36 L19 39 L18 41 L18 42 L18 45 L19 47 L20 49 L24 53 L27 56 L30 58 L32 59 L35 60 L40 61 L43 62 L48 62 L55 62 L58 62 L60 61 L62 60 L66 58 L68 56 L69 54 L70 52 L71 50 L71 49 L71 46 L71 43 L71 41 L70 38 L69 36 L66 34 L64 33 L62 32 L61 32 L58 31 L56 30 L54 29 L53 29 L52 29 L51 29 L49 29 L48 29 M35 29 L33 29 L31 29 L30 29 L29 29 L30 29 L32 30 L34 31 L36 33 L39 36 L42 37 L44 39 L46 41 L47 42 L49 43 L52 44 L53 45 L54 46 L55 47 L56 48 L58 49 L59 50 L61 51 L64 52 L65 52 L66 52 L67 52 L68 51 L68 49 L68 48 L68 44 L66 40 L63 37 L62 36 L60 35 L57 35 L54 34 L52 34 L50 34 L49 36 L48 39 L45 44 L41 49 L39 52 L37 54 L35 55 L31 55 L28 55 L26 55 L24 55 L21 54 L20 52 L19 51 L17 47 L17 45 L17 43 L19 42 " fill="none" stroke="black" /></svg>