<?xml version="1.0" encoding="utf-8" ?>
<svg baseProfile="tiny" height="219" version="1.2" viewBox="-3 -3 205 219" width="205" xmlns="http://www.w3.org/2000/svg" xmlns:ev="http://www.w3.org/2001/xml-events" xmlns:xlink="http://www.w3.org/1999/xlink"><defs /><path d="M50 0 L48 0 L28 2 L2 10 L0 12 L0 15 L15 34 L27 41 L51 35 L73 12 L77 5 L77 3 L73 1 L56 1 L35 8 L28 12 L25 17 L22 37 L22 54 L25 58 L36 60 L81 48 L94 36 L95 35 L94 32 L88 28 L69 28 L63 30 L55 37 L49 48 L47 66 L50 77 L53 80 L71 85 L101 80 L111 76 L114 73 L117 65 L117 62 L115 59 L100 60 L69 79 L62 88 L60 98 L60 107 L63 112 L75 121 L109 126 L153 111 L159 106 L162 103 L162 100 L162 98 L160 96 L152 96 L130 106 L108 131 L104 142 L106 152 L130 166 L171 170 L195 166 L204 157 L205 149 L205 144 L201 139 L193 137 L165 151 L150 163 L146 167 L145 174 L146 186 L163 206 L189 218 L197 219 " fill="none" stroke="black" /></svg>