<?xml version="1.0" encoding="utf-8" ?>
<svg baseProfile="tiny" height="146" version="1.2" viewBox="-3 -3 96 146" width="96" xmlns="http://www.w3.org/2000/svg" xmlns:ev="http://www.w3.org/2001/xml-events" xmlns:xlink="http://www.w3.org/1999/xlink"><defs /><path d="M47 79 L47 86 L46 102 L46 111 L45 119 L44 125 L44 133 L44 138 L43 142 L43 144 L43 146 " fill="none" stroke="black" /><path d="M47 79 L47 86 L46 102 L46 111 L45 119 L44 125 L44 133 L44 138 L43 142 L43 144 L43 146 M46 77 L45 77 L42 77 L35 75 L28 73 L19 69 L13 65 L8 61 L3 56 L1 53 L0 50 L1 43 L7 31 L15 24 L18 22 L23 20 L31 18 L37 17 L44 17 L50 17 L54 17 L59 18 L70 24 L78 30 L83 38 L87 55 L87 62 L87 65 L87 69 L87 72 L85 75 L82 78 " fill="none" stroke="black" /><path d="M47 79 L47 86 L46 102 L46 111 L45 119 L44 125 L44 133 L44 138 L43 142 L43 144 L43 146 M46 77 L45 77 L42 77 L35 75 L28 73 L19 69 L13 65 L8 61 L3 56 L1 53 L0 50 L1 43 L7 31 L15 24 L18 22 L23 20 L31 18 L37 17 L44 17 L50 17 L54 17 L59 18 L70 24 L78 30 L83 38 L87 55 L87 62 L87 65 L87 69 L87 72 L85 75 L82 78 M41 73 L42 74 L44 76 L45 77 L46 77 L48 77 L49 77 L51 77 L53 77 L56 77 L59 77 L63 76 L66 75 L70 74 L73 73 L74 73 L76 73 L77 73 L79 73 " fill="none" stroke="black" /><circle cx="46" cy="47" fill="black" r="1" /><circle cx="46" cy="47" fill="black" r="1" /><circle cx="46" cy="47" fill="black" r="1" /><path d="M47 79 L47 86 L46 102 L46 111 L45 119 L44 125 L44 133 L44 138 L43 142 L43 144 L43 146 M46 77 L45 77 L42 77 L35 75 L28 73 L19 69 L13 65 L8 61 L3 56 L1 53 L0 50 L1 43 L7 31 L15 24 L18 22 L23 20 L31 18 L37 17 L44 17 L50 17 L54 17 L59 18 L70 24 L78 30 L83 38 L87 55 L87 62 L87 65 L87 69 L87 72 L85 75 L82 78 M41 73 L42 74 L44 76 L45 77 L46 77 L48 77 L49 77 L51 77 L53 77 L56 77 L59 77 L63 76 L66 75 L70 74 L73 73 L74 73 L76 73 L77 73 L79 73 M30 23 L32 26 L35 29 L36 32 L39 35 L40 37 L41 40 L43 42 L43 43 " fill="none" stroke="black" /><path d="M47 79 L47 86 L46 102 L46 111 L45 119 L44 125 L44 133 L44 138 L43 142 L43 144 L43 146 M46 77 L45 77 L42 77 L35 75 L28 73 L19 69 L13 65 L8 61 L3 56 L1 53 L0 50 L1 43 L7 31 L15 24 L18 22 L23 20 L31 18 L37 17 L44 17 L50 17 L54 17 L59 18 L70 24 L78 30 L83 38 L87 55 L87 62 L87 65 L87 69 L87 72 L85 75 L82 78 M41 73 L42 74 L44 76 L45 77 L46 77 L48 77 L49 77 L51 77 L53 77 L56 77 L59 77 L63 76 L66 75 L70 74 L73 73 L74 73 L76 73 L77 73 L79 73 M30 23 L32 26 L35 29 L36 32 L39 35 L40 37 L41 40 L43 42 L43 43 M45 45 L45 46 L43 47 L41 48 L39 48 L37 49 L36 50 L34 50 L33 51 L32 51 L31 51 L29 52 L28 53 L27 53 L26 54 L25 55 L24 56 L23 56 L23 57 L22 58 " fill="none" stroke="black" /><path d="M47 79 L47 86 L46 102 L46 111 L45 119 L44 125 L44 133 L44 138 L43 142 L43 144 L43 146 M46 77 L45 77 L42 77 L35 75 L28 73 L19 69 L13 65 L8 61 L3 56 L1 53 L0 50 L1 43 L7 31 L15 24 L18 22 L23 20 L31 18 L37 17 L44 17 L50 17 L54 17 L59 18 L70 24 L78 30 L83 38 L87 55 L87 62 L87 65 L87 69 L87 72 L85 75 L82 78 M41 73 L42 74 L44 76 L45 77 L46 77 L48 77 L49 77 L51 77 L53 77 L56 77 L59 77 L63 76 L66 75 L70 74 L73 73 L74 73 L76 73 L77 73 L79 73 M30 23 L32 26 L35 29 L36 32 L39 35 L40 37 L41 40 L43 42 L43 43 M45 45 L45 46 L43 47 L41 48 L39 48 L37 49 L36 50 L34 50 L33 51 L32 51 L31 51 L29 52 L28 53 L27 53 L26 54 L25 55 L24 56 L23 56 L23 57 L22 58 M46 47 L47 47 L49 49 L50 51 L52 53 L54 56 L56 58 L58 60 L58 61 L60 64 L61 65 L62 65 " fill="none" stroke="black" /><path d="M47 79 L47 86 L46 102 L46 111 L45 119 L44 125 L44 133 L44 138 L43 142 L43 144 L43 146 M46 77 L45 77 L42 77 L35 75 L28 73 L19 69 L13 65 L8 61 L3 56 L1 53 L0 50 L1 43 L7 31 L15 24 L18 22 L23 20 L31 18 L37 17 L44 17 L50 17 L54 17 L59 18 L70 24 L78 30 L83 38 L87 55 L87 62 L87 65 L87 69 L87 72 L85 75 L82 78 M41 73 L42 74 L44 76 L45 77 L46 77 L48 77 L49 77 L51 77 L53 77 L56 77 L59 77 L63 76 L66 75 L70 74 L73 73 L74 73 L76 73 L77 73 L79 73 M30 23 L32 26 L35 29 L36 32 L39 35 L40 37 L41 40 L43 42 L43 43 M45 45 L45 46 L43 47 L41 48 L39 48 L37 49 L36 50 L34 50 L33 51 L32 51 L31 51 L29 52 L28 53 L27 53 L26 54 L25 55 L24 56 L23 56 L23 57 L22 58 M46 47 L47 47 L49 49 L50 51 L52 53 L54 56 L56 58 L58 60 L58 61 L60 64 L61 65 L62 65 M51 43 L52 43 L58 40 L61 39 L65 37 L68 36 L70 35 L72 34 L74 33 L75 32 " fill="none" stroke="black" /><path d="M47 79 L47 86 L46 102 L46 111 L45 119 L44 125 L44 133 L44 138 L43 142 L43 144 L43 146 M46 77 L45 77 L42 77 L35 75 L28 73 L19 69 L13 65 L8 61 L3 56 L1 53 L0 50 L1 43 L7 31 L15 24 L18 22 L23 20 L31 18 L37 17 L44 17 L50 17 L54 17 L59 18 L70 24 L78 30 L83 38 L87 55 L87 62 L87 65 L87 69 L87 72 L85 75 L82 78 M41 73 L42 74 L44 76 L45 77 L46 77 L48 77 L49 77 L51 77 L53 77 L56 77 L59 77 L63 76 L66 75 L70 74 L73 73 L74 73 L76 73 L77 73 L79 73 M30 23 L32 26 L35 29 L36 32 L39 35 L40 37 L41 40 L43 42 L43 43 M45 45 L45 46 L43 47 L41 48 L39 48 L37 49 L36 50 L34 50 L33 51 L32 51 L31 51 L29 52 L28 53 L27 53 L26 54 L25 55 L24 56 L23 56 L23 57 L22 58 M46 47 L47 47 L49 49 L50 51 L52 53 L54 56 L56 58 L58 60 L58 61 L60 64 L61 65 L62 65 M51 43 L52 43 L58 40 L61 39 L65 37 L68 36 L70 35 L72 34 L74 33 L75 32 M65 0 L66 0 L69 1 L72 2 L74 4 L77 8 L81 12 L86 18 L88 21 L90 24 " fill="none" stroke="black" /><path d="M47 79 L47 86 L46 102 L46 111 L45 119 L44 125 L44 133 L44 138 L43 142 L43 144 L43 146 M46 77 L45 77 L42 77 L35 75 L28 73 L19 69 L13 65 L8 61 L3 56 L1 53 L0 50 L1 43 L7 31 L15 24 L18 22 L23 20 L31 18 L37 17 L44 17 L50 17 L54 17 L59 18 L70 24 L78 30 L83 38 L87 55 L87 62 L87 65 L87 69 L87 72 L85 75 L82 78 M41 73 L42 74 L44 76 L45 77 L46 77 L48 77 L49 77 L51 77 L53 77 L56 77 L59 77 L63 76 L66 75 L70 74 L73 73 L74 73 L76 73 L77 73 L79 73 M30 23 L32 26 L35 29 L36 32 L39 35 L40 37 L41 40 L43 42 L43 43 M45 45 L45 46 L43 47 L41 48 L39 48 L37 49 L36 50 L34 50 L33 51 L32 51 L31 51 L29 52 L28 53 L27 53 L26 54 L25 55 L24 56 L23 56 L23 57 L22 58 M46 47 L47 47 L49 49 L50 51 L52 53 L54 56 L56 58 L58 60 L58 61 L60 64 L61 65 L62 65 M51 43 L52 43 L58 40 L61 39 L65 37 L68 36 L70 35 L72 34 L74 33 L75 32 M65 0 L66 0 L69 1 L72 2 L74 4 L77 8 L81 12 L86 18 L88 21 L90 24 M84 25 L87 25 L88 25 L90 25 L92 26 L93 26 L94 26 L95 26 L96 26 " fill="none" stroke="black" /><path d="M47 79 L47 86 L46 102 L46 111 L45 119 L44 125 L44 133 L44 138 L43 142 L43 144 L43 146 M46 77 L45 77 L42 77 L35 75 L28 73 L19 69 L13 65 L8 61 L3 56 L1 53 L0 50 L1 43 L7 31 L15 24 L18 22 L23 20 L31 18 L37 17 L44 17 L50 17 L54 17 L59 18 L70 24 L78 30 L83 38 L87 55 L87 62 L87 65 L87 69 L87 72 L85 75 L82 78 M41 73 L42 74 L44 76 L45 77 L46 77 L48 77 L49 77 L51 77 L53 77 L56 77 L59 77 L63 76 L66 75 L70 74 L73 73 L74 73 L76 73 L77 73 L79 73 M30 23 L32 26 L35 29 L36 32 L39 35 L40 37 L41 40 L43 42 L43 43 M45 45 L45 46 L43 47 L41 48 L39 48 L37 49 L36 50 L34 50 L33 51 L32 51 L31 51 L29 52 L28 53 L27 53 L26 54 L25 55 L24 56 L23 56 L23 57 L22 58 M46 47 L47 47 L49 49 L50 51 L52 53 L54 56 L56 58 L58 60 L58 61 L60 64 L61 65 L62 65 M51 43 L52 43 L58 40 L61 39 L65 37 L68 36 L70 35 L72 34 L74 33 L75 32 M65 0 L66 0 L69 1 L72 2 L74 4 L77 8 L81 12 L86 18 L88 21 L90 24 M84 25 L87 25 L88 25 L90 25 L92 26 L93 26 L94 26 L95 26 L96 26 M93 7 L93 10 L93 13 L93 16 L93 17 L93 19 L93 20 L93 21 L93 22 L93 23 L93 24 " fill="none" stroke="black" /></svg>