<?xml version="1.0" encoding="utf-8" ?>
<svg baseProfile="tiny" height="82" version="1.2" viewBox="-3 -3 95 82" width="95" xmlns="http://www.w3.org/2000/svg" xmlns:ev="http://www.w3.org/2001/xml-events" xmlns:xlink="http://www.w3.org/1999/xlink"><defs /><path d="M0 52 L0 55 L0 58 L0 60 L0 62 L0 65 L0 68 L0 69 L0 70 L1 72 L2 72 L3 73 L4 72 L5 71 L6 70 L6 67 L7 63 L7 57 L7 51 L7 48 L7 44 L9 39 L12 33 L14 27 L16 18 L17 13 L18 10 L19 8 L19 7 L19 6 L19 7 L13 20 L11 32 L11 46 L13 53 L14 60 L14 61 L14 63 L14 65 L14 66 L15 66 L16 63 L19 54 L22 40 L24 26 L26 20 L28 12 L30 8 L31 5 L32 4 L33 2 L33 1 L33 0 L34 0 L34 3 L36 16 L40 40 L42 50 L44 56 L46 65 L47 69 L47 72 L47 74 L47 76 L47 78 L47 76 L47 67 L49 55 L51 46 L52 41 L54 34 L56 28 L56 22 L57 18 L57 16 L57 14 L57 12 L57 10 L57 9 L57 7 L57 6 L57 5 L58 5 L58 8 " fill="none" stroke="black" /><path d="M0 52 L0 55 L0 58 L0 60 L0 62 L0 65 L0 68 L0 69 L0 70 L1 72 L2 72 L3 73 L4 72 L5 71 L6 70 L6 67 L7 63 L7 57 L7 51 L7 48 L7 44 L9 39 L12 33 L14 27 L16 18 L17 13 L18 10 L19 8 L19 7 L19 6 L19 7 L13 20 L11 32 L11 46 L13 53 L14 60 L14 61 L14 63 L14 65 L14 66 L15 66 L16 63 L19 54 L22 40 L24 26 L26 20 L28 12 L30 8 L31 5 L32 4 L33 2 L33 1 L33 0 L34 0 L34 3 L36 16 L40 40 L42 50 L44 56 L46 65 L47 69 L47 72 L47 74 L47 76 L47 78 L47 76 L47 67 L49 55 L51 46 L52 41 L54 34 L56 28 L56 22 L57 18 L57 16 L57 14 L57 12 L57 10 L57 9 L57 7 L57 6 L57 5 L58 5 L58 8 M57 2 L57 1 L57 2 L58 7 L58 18 L58 35 L59 43 L59 48 L59 53 L59 57 L59 61 L59 64 L58 68 L58 70 L58 72 L58 73 L59 71 L63 62 L68 47 L69 40 L69 34 L69 31 L69 28 L69 26 L69 24 L69 20 L69 18 L68 16 L68 14 L68 12 L68 11 L70 17 L73 37 L75 52 L76 59 L76 65 L76 68 L78 74 L78 78 L78 80 L78 82 L78 80 L79 73 L81 57 L82 48 L83 42 L85 33 L86 25 L87 20 L87 17 L87 14 L87 13 L88 12 L89 12 L90 14 L90 18 L92 39 L92 57 L93 62 L94 67 L95 72 L95 74 L95 76 L95 79 L95 80 L94 82 " fill="none" stroke="black" /></svg>