<?xml version="1.0" encoding="utf-8" ?>
<svg baseProfile="tiny" height="113" version="1.2" viewBox="-3 -3 127 113" width="127" xmlns="http://www.w3.org/2000/svg" xmlns:ev="http://www.w3.org/2001/xml-events" xmlns:xlink="http://www.w3.org/1999/xlink"><defs /><path d="M23 30 L18 35 L8 47 L4 53 L2 57 L1 59 L0 63 L0 67 L0 70 L0 75 L1 79 L2 83 L4 87 L6 90 L9 92 L15 94 L23 95 L28 95 L34 96 L40 96 L44 96 L49 96 L54 96 L57 96 L61 96 L66 96 L71 96 L75 96 L80 95 L85 93 L88 92 L89 89 L92 87 L93 85 L94 82 L95 78 L95 72 L94 67 L92 64 L89 60 L83 54 L76 48 L72 44 L66 39 L61 36 L57 33 L52 31 L48 30 L45 28 L43 27 L41 27 L39 26 L38 26 L37 25 L36 25 L35 24 " fill="none" stroke="black" /><path d="M23 30 L18 35 L8 47 L4 53 L2 57 L1 59 L0 63 L0 67 L0 70 L0 75 L1 79 L2 83 L4 87 L6 90 L9 92 L15 94 L23 95 L28 95 L34 96 L40 96 L44 96 L49 96 L54 96 L57 96 L61 96 L66 96 L71 96 L75 96 L80 95 L85 93 L88 92 L89 89 L92 87 L93 85 L94 82 L95 78 L95 72 L94 67 L92 64 L89 60 L83 54 L76 48 L72 44 L66 39 L61 36 L57 33 L52 31 L48 30 L45 28 L43 27 L41 27 L39 26 L38 26 L37 25 L36 25 L35 24 M34 25 L32 25 L31 22 L30 20 L29 19 L29 17 L29 15 L28 14 L28 12 L28 10 L28 8 L28 5 L29 4 L30 3 L32 3 L33 3 L35 3 L37 3 L39 3 L40 4 L41 6 L42 8 L43 11 L43 13 L43 15 L41 20 L40 24 L38 26 L36 28 L34 29 L33 29 L32 29 " fill="none" stroke="black" /><path d="M23 30 L18 35 L8 47 L4 53 L2 57 L1 59 L0 63 L0 67 L0 70 L0 75 L1 79 L2 83 L4 87 L6 90 L9 92 L15 94 L23 95 L28 95 L34 96 L40 96 L44 96 L49 96 L54 96 L57 96 L61 96 L66 96 L71 96 L75 96 L80 95 L85 93 L88 92 L89 89 L92 87 L93 85 L94 82 L95 78 L95 72 L94 67 L92 64 L89 60 L83 54 L76 48 L72 44 L66 39 L61 36 L57 33 L52 31 L48 30 L45 28 L43 27 L41 27 L39 26 L38 26 L37 25 L36 25 L35 24 M34 25 L32 25 L31 22 L30 20 L29 19 L29 17 L29 15 L28 14 L28 12 L28 10 L28 8 L28 5 L29 4 L30 3 L32 3 L33 3 L35 3 L37 3 L39 3 L40 4 L41 6 L42 8 L43 11 L43 13 L43 15 L41 20 L40 24 L38 26 L36 28 L34 29 L33 29 L32 29 M21 94 L21 98 L22 103 L22 105 L23 107 L24 109 L25 111 L26 112 L29 113 L32 113 L35 113 L37 113 L38 113 L40 112 L45 108 L47 106 L49 105 L50 103 L50 102 L50 100 L50 99 " fill="none" stroke="black" /><path d="M23 30 L18 35 L8 47 L4 53 L2 57 L1 59 L0 63 L0 67 L0 70 L0 75 L1 79 L2 83 L4 87 L6 90 L9 92 L15 94 L23 95 L28 95 L34 96 L40 96 L44 96 L49 96 L54 96 L57 96 L61 96 L66 96 L71 96 L75 96 L80 95 L85 93 L88 92 L89 89 L92 87 L93 85 L94 82 L95 78 L95 72 L94 67 L92 64 L89 60 L83 54 L76 48 L72 44 L66 39 L61 36 L57 33 L52 31 L48 30 L45 28 L43 27 L41 27 L39 26 L38 26 L37 25 L36 25 L35 24 M34 25 L32 25 L31 22 L30 20 L29 19 L29 17 L29 15 L28 14 L28 12 L28 10 L28 8 L28 5 L29 4 L30 3 L32 3 L33 3 L35 3 L37 3 L39 3 L40 4 L41 6 L42 8 L43 11 L43 13 L43 15 L41 20 L40 24 L38 26 L36 28 L34 29 L33 29 L32 29 M21 94 L21 98 L22 103 L22 105 L23 107 L24 109 L25 111 L26 112 L29 113 L32 113 L35 113 L37 113 L38 113 L40 112 L45 108 L47 106 L49 105 L50 103 L50 102 L50 100 L50 99 M127 0 L121 6 L115 11 L110 16 L106 20 L100 25 L97 28 L91 32 L87 36 L85 37 L83 38 L81 40 L78 42 L76 43 L74 45 L73 46 " fill="none" stroke="black" /><path d="M23 30 L18 35 L8 47 L4 53 L2 57 L1 59 L0 63 L0 67 L0 70 L0 75 L1 79 L2 83 L4 87 L6 90 L9 92 L15 94 L23 95 L28 95 L34 96 L40 96 L44 96 L49 96 L54 96 L57 96 L61 96 L66 96 L71 96 L75 96 L80 95 L85 93 L88 92 L89 89 L92 87 L93 85 L94 82 L95 78 L95 72 L94 67 L92 64 L89 60 L83 54 L76 48 L72 44 L66 39 L61 36 L57 33 L52 31 L48 30 L45 28 L43 27 L41 27 L39 26 L38 26 L37 25 L36 25 L35 24 M34 25 L32 25 L31 22 L30 20 L29 19 L29 17 L29 15 L28 14 L28 12 L28 10 L28 8 L28 5 L29 4 L30 3 L32 3 L33 3 L35 3 L37 3 L39 3 L40 4 L41 6 L42 8 L43 11 L43 13 L43 15 L41 20 L40 24 L38 26 L36 28 L34 29 L33 29 L32 29 M21 94 L21 98 L22 103 L22 105 L23 107 L24 109 L25 111 L26 112 L29 113 L32 113 L35 113 L37 113 L38 113 L40 112 L45 108 L47 106 L49 105 L50 103 L50 102 L50 100 L50 99 M127 0 L121 6 L115 11 L110 16 L106 20 L100 25 L97 28 L91 32 L87 36 L85 37 L83 38 L81 40 L78 42 L76 43 L74 45 L73 46 M71 37 L70 37 L68 37 L67 38 L64 40 L62 42 L61 43 L60 45 L60 46 L60 47 L61 48 L62 50 L65 52 L70 54 L74 55 L76 55 L79 55 L80 55 L82 54 L82 53 L82 51 L84 50 L84 48 L83 46 " fill="none" stroke="black" /></svg>