<?xml version="1.0" encoding="utf-8" ?>
<svg baseProfile="tiny" height="92" version="1.2" viewBox="-3 -3 94 92" width="94" xmlns="http://www.w3.org/2000/svg" xmlns:ev="http://www.w3.org/2001/xml-events" xmlns:xlink="http://www.w3.org/1999/xlink"><defs /><path d="M89 26 L91 34 L91 39 L92 43 L93 48 L93 52 L94 54 L94 56 L93 60 L92 64 L91 67 L87 69 L83 72 L80 75 L73 78 L65 78 L59 79 L53 79 L48 80 L45 80 L41 80 L37 80 L35 80 L31 80 L27 79 L22 79 L19 79 L15 79 L13 78 L10 77 L8 77 L6 76 L3 73 L2 71 L0 66 L0 62 L0 60 L0 57 L0 55 L1 52 L1 49 L2 47 L3 43 L3 40 L4 37 L5 34 L5 30 L5 27 L5 25 L5 23 L5 21 L5 19 L5 17 L5 14 L5 12 L4 10 L4 8 L4 6 L4 4 L4 3 L4 2 L4 1 L4 0 L4 1 L6 2 L8 3 L11 4 L14 4 L15 4 L17 4 L18 4 L19 4 L20 4 L20 3 L20 2 L20 1 L21 1 L21 0 L21 4 L21 6 L21 7 L21 8 L21 13 L23 22 L25 39 L26 47 L26 54 L26 60 L26 67 L27 76 L27 82 L27 84 L27 88 L27 90 L27 91 L27 92 L28 90 L31 78 L35 66 L40 54 L44 43 L45 39 L47 36 L47 32 L48 28 L48 24 L48 21 L48 19 L48 17 L48 15 L48 14 L48 11 L48 9 L48 7 L48 6 L48 5 L48 4 L48 3 L48 2 L49 2 L50 4 L51 5 L53 6 L54 7 L55 7 L57 7 L58 9 L59 9 L59 10 L59 11 L59 13 L59 17 L59 34 L60 42 L60 45 L60 46 L60 49 L60 53 L60 55 L60 57 L61 60 L62 61 L62 63 L62 65 L62 66 L62 67 L62 68 L62 69 L62 70 " fill="none" stroke="black" /></svg>