<?xml version="1.0" encoding="utf-8" ?>
<svg baseProfile="tiny" height="159" version="1.2" viewBox="-3 -3 88 159" width="88" xmlns="http://www.w3.org/2000/svg" xmlns:ev="http://www.w3.org/2001/xml-events" xmlns:xlink="http://www.w3.org/1999/xlink"><defs /><path d="M11 134 L13 131 L16 121 L16 115 L17 111 L17 108 L17 107 L17 106 L17 105 L17 104 L16 103 L14 100 L13 98 L10 96 L8 94 L6 92 L5 91 L3 90 L2 88 L1 87 L0 85 L0 81 L0 80 L0 77 L0 73 L0 70 L2 67 L4 63 L7 59 L10 56 L14 52 L20 50 L28 48 L37 47 L41 47 L46 47 L52 49 L58 51 L64 54 L68 56 L71 59 L74 62 L76 65 L77 71 L78 76 L78 81 L77 84 L76 86 L75 90 L73 95 L71 100 L71 105 L71 108 L73 112 L76 116 L79 119 L81 121 L85 124 L87 128 L88 129 L88 131 L88 135 L79 141 L71 146 L63 150 L59 152 L53 154 L47 156 L44 157 L39 158 L33 159 L30 159 L27 159 L24 158 L19 155 L16 152 L14 150 L12 146 L11 142 L11 139 L10 136 L10 132 " fill="none" stroke="black" /><path d="M11 134 L13 131 L16 121 L16 115 L17 111 L17 108 L17 107 L17 106 L17 105 L17 104 L16 103 L14 100 L13 98 L10 96 L8 94 L6 92 L5 91 L3 90 L2 88 L1 87 L0 85 L0 81 L0 80 L0 77 L0 73 L0 70 L2 67 L4 63 L7 59 L10 56 L14 52 L20 50 L28 48 L37 47 L41 47 L46 47 L52 49 L58 51 L64 54 L68 56 L71 59 L74 62 L76 65 L77 71 L78 76 L78 81 L77 84 L76 86 L75 90 L73 95 L71 100 L71 105 L71 108 L73 112 L76 116 L79 119 L81 121 L85 124 L87 128 L88 129 L88 131 L88 135 L79 141 L71 146 L63 150 L59 152 L53 154 L47 156 L44 157 L39 158 L33 159 L30 159 L27 159 L24 158 L19 155 L16 152 L14 150 L12 146 L11 142 L11 139 L10 136 L10 132 M43 104 L40 107 L39 110 L38 111 L38 114 L39 117 L42 121 L43 123 L45 125 L46 126 L48 127 L51 127 L53 126 L54 124 L54 117 L54 113 L53 109 L52 107 L51 104 L50 104 L48 103 L46 101 " fill="none" stroke="black" /><path d="M11 134 L13 131 L16 121 L16 115 L17 111 L17 108 L17 107 L17 106 L17 105 L17 104 L16 103 L14 100 L13 98 L10 96 L8 94 L6 92 L5 91 L3 90 L2 88 L1 87 L0 85 L0 81 L0 80 L0 77 L0 73 L0 70 L2 67 L4 63 L7 59 L10 56 L14 52 L20 50 L28 48 L37 47 L41 47 L46 47 L52 49 L58 51 L64 54 L68 56 L71 59 L74 62 L76 65 L77 71 L78 76 L78 81 L77 84 L76 86 L75 90 L73 95 L71 100 L71 105 L71 108 L73 112 L76 116 L79 119 L81 121 L85 124 L87 128 L88 129 L88 131 L88 135 L79 141 L71 146 L63 150 L59 152 L53 154 L47 156 L44 157 L39 158 L33 159 L30 159 L27 159 L24 158 L19 155 L16 152 L14 150 L12 146 L11 142 L11 139 L10 136 L10 132 M43 104 L40 107 L39 110 L38 111 L38 114 L39 117 L42 121 L43 123 L45 125 L46 126 L48 127 L51 127 L53 126 L54 124 L54 117 L54 113 L53 109 L52 107 L51 104 L50 104 L48 103 L46 101 M24 40 L23 33 L23 24 L22 17 L22 13 L22 10 L22 8 L22 6 L23 4 L23 3 L24 1 L24 0 L26 0 L28 1 L32 4 L36 9 L39 15 L40 18 L41 22 L41 24 L41 26 L41 31 L41 34 L41 37 L41 39 L41 40 L41 41 " fill="none" stroke="black" /></svg>