<?xml version="1.0" encoding="utf-8" ?>
<svg baseProfile="tiny" height="71" version="1.2" viewBox="-3 -3 64 71" width="64" xmlns="http://www.w3.org/2000/svg" xmlns:ev="http://www.w3.org/2001/xml-events" xmlns:xlink="http://www.w3.org/1999/xlink"><defs /><path d="M40 2 L31 1 L25 0 L22 0 L20 0 L18 1 L15 6 L11 11 L7 18 L5 21 L4 24 L2 27 L1 32 L0 37 L0 41 L1 45 L4 48 L11 52 L22 55 L27 57 L29 58 L32 58 L35 55 L36 52 L37 49 L37 46 L37 44 L37 42 L37 39 L37 36 L37 29 L37 28 L37 26 L37 24 L38 21 L38 19 L38 17 L38 15 L38 14 L38 12 L38 11 L38 10 L39 9 L39 8 L39 6 " fill="none" stroke="black" /><path d="M40 2 L31 1 L25 0 L22 0 L20 0 L18 1 L15 6 L11 11 L7 18 L5 21 L4 24 L2 27 L1 32 L0 37 L0 41 L1 45 L4 48 L11 52 L22 55 L27 57 L29 58 L32 58 L35 55 L36 52 L37 49 L37 46 L37 44 L37 42 L37 39 L37 36 L37 29 L37 28 L37 26 L37 24 L38 21 L38 19 L38 17 L38 15 L38 14 L38 12 L38 11 L38 10 L39 9 L39 8 L39 6 M36 11 L36 12 L36 13 L38 13 L42 11 L46 11 L49 10 L53 9 L54 8 L56 7 L58 5 L59 3 L62 1 L64 0 " fill="none" stroke="black" /><path d="M40 2 L31 1 L25 0 L22 0 L20 0 L18 1 L15 6 L11 11 L7 18 L5 21 L4 24 L2 27 L1 32 L0 37 L0 41 L1 45 L4 48 L11 52 L22 55 L27 57 L29 58 L32 58 L35 55 L36 52 L37 49 L37 46 L37 44 L37 42 L37 39 L37 36 L37 29 L37 28 L37 26 L37 24 L38 21 L38 19 L38 17 L38 15 L38 14 L38 12 L38 11 L38 10 L39 9 L39 8 L39 6 M36 11 L36 12 L36 13 L38 13 L42 11 L46 11 L49 10 L53 9 L54 8 L56 7 L58 5 L59 3 L62 1 L64 0 M41 32 L41 34 L41 35 L42 36 L43 36 L44 36 L47 36 L50 36 L51 36 L54 35 L55 35 L56 34 L58 33 L59 33 L60 32 L62 31 " fill="none" stroke="black" /><path d="M40 2 L31 1 L25 0 L22 0 L20 0 L18 1 L15 6 L11 11 L7 18 L5 21 L4 24 L2 27 L1 32 L0 37 L0 41 L1 45 L4 48 L11 52 L22 55 L27 57 L29 58 L32 58 L35 55 L36 52 L37 49 L37 46 L37 44 L37 42 L37 39 L37 36 L37 29 L37 28 L37 26 L37 24 L38 21 L38 19 L38 17 L38 15 L38 14 L38 12 L38 11 L38 10 L39 9 L39 8 L39 6 M36 11 L36 12 L36 13 L38 13 L42 11 L46 11 L49 10 L53 9 L54 8 L56 7 L58 5 L59 3 L62 1 L64 0 M41 32 L41 34 L41 35 L42 36 L43 36 L44 36 L47 36 L50 36 L51 36 L54 35 L55 35 L56 34 L58 33 L59 33 L60 32 L62 31 M38 53 L37 54 L37 55 L37 56 L37 58 L37 60 L39 61 L41 63 L43 64 L44 64 L48 66 L50 67 L52 68 L54 69 L56 71 L57 71 L58 71 " fill="none" stroke="black" /></svg>