<?xml version="1.0" encoding="utf-8" ?>
<svg baseProfile="tiny" height="107" version="1.2" viewBox="-3 -3 371 107" width="371" xmlns="http://www.w3.org/2000/svg" xmlns:ev="http://www.w3.org/2001/xml-events" xmlns:xlink="http://www.w3.org/1999/xlink"><defs /><path d="M84 27 L90 34 L128 60 L151 79 L153 82 L154 83 L136 78 L22 15 L0 5 L0 6 L2 9 L75 54 L124 79 L134 84 L135 84 L133 84 L89 62 L52 40 L52 39 L66 45 L119 57 L125 57 L125 55 L95 21 L84 11 L109 36 L165 85 L171 86 L172 86 L162 73 L91 6 L87 3 L96 7 L122 17 L139 20 L142 20 L142 19 L133 8 L121 1 L120 0 L122 3 L211 58 L232 73 " fill="none" stroke="black" /><path d="M84 27 L90 34 L128 60 L151 79 L153 82 L154 83 L136 78 L22 15 L0 5 L0 6 L2 9 L75 54 L124 79 L134 84 L135 84 L133 84 L89 62 L52 40 L52 39 L66 45 L119 57 L125 57 L125 55 L95 21 L84 11 L109 36 L165 85 L171 86 L172 86 L162 73 L91 6 L87 3 L96 7 L122 17 L139 20 L142 20 L142 19 L133 8 L121 1 L120 0 L122 3 L211 58 L232 73 M161 7 L162 8 L163 8 L162 7 L161 7 L160 6 L162 7 L237 52 L245 57 L240 53 L185 14 L174 7 L174 6 L193 14 L233 31 L256 41 L259 42 L258 41 L244 30 L240 27 L303 105 L308 107 L307 105 L296 92 L267 60 L261 53 L260 51 L282 55 L294 56 L295 55 L281 40 L259 24 L258 22 L259 22 L269 26 L278 28 L287 31 L292 34 L293 34 L307 41 L363 77 L370 78 L371 78 L371 77 L369 72 L364 67 L360 63 L360 62 L359 61 " fill="none" stroke="black" /></svg>