<?xml version="1.0" encoding="utf-8" ?>
<svg baseProfile="tiny" height="100" version="1.2" viewBox="-3 -3 76 100" width="76" xmlns="http://www.w3.org/2000/svg" xmlns:ev="http://www.w3.org/2001/xml-events" xmlns:xlink="http://www.w3.org/1999/xlink"><defs /><path d="M0 9 L5 9 L25 8 L40 7 L47 7 L49 7 L50 7 L50 8 L51 11 L52 18 L53 29 L53 36 L53 45 L52 51 L52 57 L51 62 L51 65 L51 68 L51 71 L51 73 L51 76 L51 78 L50 81 L50 84 L50 87 L49 90 L49 92 L48 93 L48 95 L48 96 L47 96 L46 96 L43 96 L37 94 L30 93 L27 92 L25 92 L23 92 L21 92 L20 92 L19 92 L18 91 L17 90 L17 89 L17 88 L17 83 L16 75 L16 69 L16 65 L16 64 L15 62 L15 60 L14 58 L13 55 L13 51 L12 45 L12 38 L10 28 L10 23 L9 21 L9 18 L8 17 L8 15 L7 14 L6 12 L6 11 L5 10 L5 9 L5 8 L4 8 L3 8 L3 9 L3 10 " fill="none" stroke="black" /><path d="M0 9 L5 9 L25 8 L40 7 L47 7 L49 7 L50 7 L50 8 L51 11 L52 18 L53 29 L53 36 L53 45 L52 51 L52 57 L51 62 L51 65 L51 68 L51 71 L51 73 L51 76 L51 78 L50 81 L50 84 L50 87 L49 90 L49 92 L48 93 L48 95 L48 96 L47 96 L46 96 L43 96 L37 94 L30 93 L27 92 L25 92 L23 92 L21 92 L20 92 L19 92 L18 91 L17 90 L17 89 L17 88 L17 83 L16 75 L16 69 L16 65 L16 64 L15 62 L15 60 L14 58 L13 55 L13 51 L12 45 L12 38 L10 28 L10 23 L9 21 L9 18 L8 17 L8 15 L7 14 L6 12 L6 11 L5 10 L5 9 L5 8 L4 8 L3 8 L3 9 L3 10 M28 0 L29 0 L29 1 L29 3 L29 6 L30 13 L30 23 L31 31 L32 40 L33 47 L34 51 L34 53 L34 55 L34 58 L35 61 L36 64 L36 66 L37 70 L37 74 L37 77 L37 80 L36 82 L36 84 L35 85 L35 86 L34 88 L33 89 L32 90 L32 92 " fill="none" stroke="black" /><path d="M0 9 L5 9 L25 8 L40 7 L47 7 L49 7 L50 7 L50 8 L51 11 L52 18 L53 29 L53 36 L53 45 L52 51 L52 57 L51 62 L51 65 L51 68 L51 71 L51 73 L51 76 L51 78 L50 81 L50 84 L50 87 L49 90 L49 92 L48 93 L48 95 L48 96 L47 96 L46 96 L43 96 L37 94 L30 93 L27 92 L25 92 L23 92 L21 92 L20 92 L19 92 L18 91 L17 90 L17 89 L17 88 L17 83 L16 75 L16 69 L16 65 L16 64 L15 62 L15 60 L14 58 L13 55 L13 51 L12 45 L12 38 L10 28 L10 23 L9 21 L9 18 L8 17 L8 15 L7 14 L6 12 L6 11 L5 10 L5 9 L5 8 L4 8 L3 8 L3 9 L3 10 M28 0 L29 0 L29 1 L29 3 L29 6 L30 13 L30 23 L31 31 L32 40 L33 47 L34 51 L34 53 L34 55 L34 58 L35 61 L36 64 L36 66 L37 70 L37 74 L37 77 L37 80 L36 82 L36 84 L35 85 L35 86 L34 88 L33 89 L32 90 L32 92 M51 4 L52 4 L54 4 L56 4 L58 4 L59 5 L60 6 L62 8 L64 8 L65 10 L66 11 L67 12 L68 14 L68 17 L69 20 L69 29 L71 40 L72 47 L72 55 L72 60 L73 66 L73 71 L75 78 L76 83 L76 86 L76 88 L76 90 L76 92 L76 93 L76 95 L76 96 L75 98 L74 99 L73 99 L71 100 L66 100 L60 100 L55 99 L50 99 L47 98 L45 98 L43 98 L42 98 L40 98 L39 98 " fill="none" stroke="black" /></svg>