<?xml version="1.0" encoding="utf-8" ?>
<svg baseProfile="tiny" height="62" version="1.2" viewBox="-3 -3 89 62" width="89" xmlns="http://www.w3.org/2000/svg" xmlns:ev="http://www.w3.org/2001/xml-events" xmlns:xlink="http://www.w3.org/1999/xlink"><defs /><path d="M7 18 L8 18 L10 18 L14 19 L23 19 L30 21 L34 22 L39 22 L44 23 L49 24 L53 24 L58 24 L63 24 L66 24 L69 24 L71 23 L73 23 L74 22 L74 20 L74 19 L75 18 L75 17 L76 14 L76 13 L76 11 L76 7 L76 5 L75 4 L73 2 L71 2 L70 1 L68 1 L65 1 L63 1 L59 0 L55 0 L51 0 L46 0 L42 0 L38 0 L34 0 L26 1 L22 2 L19 2 L17 2 L15 2 L13 3 L10 4 L9 4 L7 5 L6 6 L4 6 L3 7 L3 8 L2 9 L2 10 L2 11 L1 12 L1 13 L1 14 L1 15 L1 16 L1 17 L1 18 L2 20 L2 22 L3 24 L4 28 L4 32 L4 34 L4 36 L4 39 L4 41 L4 43 L4 46 L4 49 L4 51 L4 52 L4 53 L4 54 L5 55 L7 56 L9 56 L11 56 L14 56 L17 56 L19 56 L23 56 L27 56 L35 56 L41 56 L46 56 L51 56 L58 57 L61 57 L65 58 L69 58 L72 58 L74 58 L76 58 L78 58 L80 58 L81 58 L82 58 L82 57 L82 52 L81 48 L80 42 L78 35 L77 32 L76 28 L75 26 L75 24 L75 22 L74 20 L74 19 L74 17 L74 16 L74 15 " fill="none" stroke="black" /><path d="M7 18 L8 18 L10 18 L14 19 L23 19 L30 21 L34 22 L39 22 L44 23 L49 24 L53 24 L58 24 L63 24 L66 24 L69 24 L71 23 L73 23 L74 22 L74 20 L74 19 L75 18 L75 17 L76 14 L76 13 L76 11 L76 7 L76 5 L75 4 L73 2 L71 2 L70 1 L68 1 L65 1 L63 1 L59 0 L55 0 L51 0 L46 0 L42 0 L38 0 L34 0 L26 1 L22 2 L19 2 L17 2 L15 2 L13 3 L10 4 L9 4 L7 5 L6 6 L4 6 L3 7 L3 8 L2 9 L2 10 L2 11 L1 12 L1 13 L1 14 L1 15 L1 16 L1 17 L1 18 L2 20 L2 22 L3 24 L4 28 L4 32 L4 34 L4 36 L4 39 L4 41 L4 43 L4 46 L4 49 L4 51 L4 52 L4 53 L4 54 L5 55 L7 56 L9 56 L11 56 L14 56 L17 56 L19 56 L23 56 L27 56 L35 56 L41 56 L46 56 L51 56 L58 57 L61 57 L65 58 L69 58 L72 58 L74 58 L76 58 L78 58 L80 58 L81 58 L82 58 L82 57 L82 52 L81 48 L80 42 L78 35 L77 32 L76 28 L75 26 L75 24 L75 22 L74 20 L74 19 L74 17 L74 16 L74 15 M3 18 L3 19 L5 21 L13 29 L21 35 L27 39 L31 42 L37 44 L46 46 L55 48 L64 49 L70 49 L77 45 L85 39 L87 37 L88 35 L89 33 L89 31 L88 29 L82 26 L77 26 L69 26 L59 31 L43 38 L19 50 L13 55 L9 57 L5 60 L3 60 L1 61 L0 62 " fill="none" stroke="black" /></svg>