<?xml version="1.0" encoding="utf-8" ?>
<svg baseProfile="tiny" height="140" version="1.2" viewBox="-3 -3 311 140" width="311" xmlns="http://www.w3.org/2000/svg" xmlns:ev="http://www.w3.org/2001/xml-events" xmlns:xlink="http://www.w3.org/1999/xlink"><defs /><path d="M1 52 L0 58 L0 59 L1 59 L11 58 L30 50 L58 39 L86 31 L103 28 L116 32 L122 36 L129 45 L132 79 L114 114 L90 131 L56 140 L33 130 L6 89 L4 61 L24 46 L73 37 L100 33 L125 40 L155 63 L167 84 L166 112 L160 124 L151 124 L143 119 L110 85 L92 68 L87 59 L85 54 L86 43 L112 10 L129 1 L135 0 L155 15 L190 52 L200 66 L203 74 L203 83 L190 90 L176 92 L171 92 L168 92 L167 87 L174 72 L226 34 L261 22 L292 20 L305 21 L310 23 L311 26 L283 75 L237 115 L210 119 L195 119 L179 114 " fill="none" stroke="black" /></svg>