<?xml version="1.0" encoding="utf-8" ?>
<svg baseProfile="tiny" height="177" version="1.2" viewBox="-3 -3 157 177" width="157" xmlns="http://www.w3.org/2000/svg" xmlns:ev="http://www.w3.org/2001/xml-events" xmlns:xlink="http://www.w3.org/1999/xlink"><defs /><path d="M0 13 L3 18 L6 26 L13 39 L20 55 L23 64 L25 72 L28 86 L29 103 L29 111 L29 117 L29 120 L27 124 L24 127 L22 130 L20 131 L17 134 L15 139 L13 143 L13 145 L13 154 L13 157 L13 158 L11 161 L9 164 L7 169 L7 172 L5 173 L3 176 L1 177 " fill="none" stroke="black" /><path d="M0 13 L3 18 L6 26 L13 39 L20 55 L23 64 L25 72 L28 86 L29 103 L29 111 L29 117 L29 120 L27 124 L24 127 L22 130 L20 131 L17 134 L15 139 L13 143 L13 145 L13 154 L13 157 L13 158 L11 161 L9 164 L7 169 L7 172 L5 173 L3 176 L1 177 M34 0 L35 0 L40 11 L50 28 L64 66 L70 89 L73 107 L73 113 L73 115 L73 122 L73 129 L72 135 L70 138 L69 140 L66 145 L62 148 L57 154 L54 155 L53 156 L53 157 L51 162 L50 163 L50 164 L50 165 L50 167 L49 168 " fill="none" stroke="black" /><path d="M0 13 L3 18 L6 26 L13 39 L20 55 L23 64 L25 72 L28 86 L29 103 L29 111 L29 117 L29 120 L27 124 L24 127 L22 130 L20 131 L17 134 L15 139 L13 143 L13 145 L13 154 L13 157 L13 158 L11 161 L9 164 L7 169 L7 172 L5 173 L3 176 L1 177 M34 0 L35 0 L40 11 L50 28 L64 66 L70 89 L73 107 L73 113 L73 115 L73 122 L73 129 L72 135 L70 138 L69 140 L66 145 L62 148 L57 154 L54 155 L53 156 L53 157 L51 162 L50 163 L50 164 L50 165 L50 167 L49 168 M82 25 L86 29 L90 33 L92 34 L99 52 L102 65 L102 71 L102 76 L100 82 L100 86 L99 88 L99 91 L99 93 L98 97 L96 104 L96 110 L96 113 L96 117 L96 120 L96 123 L96 127 L96 134 L96 136 L96 138 L94 141 L94 142 L92 144 L92 146 L91 147 L91 148 " fill="none" stroke="black" /><path d="M0 13 L3 18 L6 26 L13 39 L20 55 L23 64 L25 72 L28 86 L29 103 L29 111 L29 117 L29 120 L27 124 L24 127 L22 130 L20 131 L17 134 L15 139 L13 143 L13 145 L13 154 L13 157 L13 158 L11 161 L9 164 L7 169 L7 172 L5 173 L3 176 L1 177 M34 0 L35 0 L40 11 L50 28 L64 66 L70 89 L73 107 L73 113 L73 115 L73 122 L73 129 L72 135 L70 138 L69 140 L66 145 L62 148 L57 154 L54 155 L53 156 L53 157 L51 162 L50 163 L50 164 L50 165 L50 167 L49 168 M82 25 L86 29 L90 33 L92 34 L99 52 L102 65 L102 71 L102 76 L100 82 L100 86 L99 88 L99 91 L99 93 L98 97 L96 104 L96 110 L96 113 L96 117 L96 120 L96 123 L96 127 L96 134 L96 136 L96 138 L94 141 L94 142 L92 144 L92 146 L91 147 L91 148 M119 41 L120 43 L120 50 L122 54 L122 61 L124 71 L124 76 L124 79 L124 87 L124 91 L124 95 L124 101 L124 105 L124 108 L124 114 L124 118 L124 121 L124 123 L124 124 L124 125 L124 127 L123 127 L122 127 L120 129 L118 129 L117 129 L117 130 L116 130 " fill="none" stroke="black" /><path d="M0 13 L3 18 L6 26 L13 39 L20 55 L23 64 L25 72 L28 86 L29 103 L29 111 L29 117 L29 120 L27 124 L24 127 L22 130 L20 131 L17 134 L15 139 L13 143 L13 145 L13 154 L13 157 L13 158 L11 161 L9 164 L7 169 L7 172 L5 173 L3 176 L1 177 M34 0 L35 0 L40 11 L50 28 L64 66 L70 89 L73 107 L73 113 L73 115 L73 122 L73 129 L72 135 L70 138 L69 140 L66 145 L62 148 L57 154 L54 155 L53 156 L53 157 L51 162 L50 163 L50 164 L50 165 L50 167 L49 168 M82 25 L86 29 L90 33 L92 34 L99 52 L102 65 L102 71 L102 76 L100 82 L100 86 L99 88 L99 91 L99 93 L98 97 L96 104 L96 110 L96 113 L96 117 L96 120 L96 123 L96 127 L96 134 L96 136 L96 138 L94 141 L94 142 L92 144 L92 146 L91 147 L91 148 M119 41 L120 43 L120 50 L122 54 L122 61 L124 71 L124 76 L124 79 L124 87 L124 91 L124 95 L124 101 L124 105 L124 108 L124 114 L124 118 L124 121 L124 123 L124 124 L124 125 L124 127 L123 127 L122 127 L120 129 L118 129 L117 129 L117 130 L116 130 M141 73 L141 75 L142 78 L142 80 L142 82 L142 85 L143 88 L143 91 L143 95 L143 101 L143 103 L143 105 L143 108 L143 109 L143 110 L143 111 L143 113 " fill="none" stroke="black" /><path d="M0 13 L3 18 L6 26 L13 39 L20 55 L23 64 L25 72 L28 86 L29 103 L29 111 L29 117 L29 120 L27 124 L24 127 L22 130 L20 131 L17 134 L15 139 L13 143 L13 145 L13 154 L13 157 L13 158 L11 161 L9 164 L7 169 L7 172 L5 173 L3 176 L1 177 M34 0 L35 0 L40 11 L50 28 L64 66 L70 89 L73 107 L73 113 L73 115 L73 122 L73 129 L72 135 L70 138 L69 140 L66 145 L62 148 L57 154 L54 155 L53 156 L53 157 L51 162 L50 163 L50 164 L50 165 L50 167 L49 168 M82 25 L86 29 L90 33 L92 34 L99 52 L102 65 L102 71 L102 76 L100 82 L100 86 L99 88 L99 91 L99 93 L98 97 L96 104 L96 110 L96 113 L96 117 L96 120 L96 123 L96 127 L96 134 L96 136 L96 138 L94 141 L94 142 L92 144 L92 146 L91 147 L91 148 M119 41 L120 43 L120 50 L122 54 L122 61 L124 71 L124 76 L124 79 L124 87 L124 91 L124 95 L124 101 L124 105 L124 108 L124 114 L124 118 L124 121 L124 123 L124 124 L124 125 L124 127 L123 127 L122 127 L120 129 L118 129 L117 129 L117 130 L116 130 M141 73 L141 75 L142 78 L142 80 L142 82 L142 85 L143 88 L143 91 L143 95 L143 101 L143 103 L143 105 L143 108 L143 109 L143 110 L143 111 L143 113 M157 77 L157 79 L157 80 L157 83 L157 85 L157 89 L157 91 L157 93 L157 95 L157 96 L156 98 L156 99 L156 100 L156 102 L156 103 L156 105 L156 106 L156 108 L156 109 " fill="none" stroke="black" /></svg>