<?xml version="1.0" encoding="utf-8" ?>
<svg baseProfile="tiny" height="78" version="1.2" viewBox="-3 -3 458 78" width="458" xmlns="http://www.w3.org/2000/svg" xmlns:ev="http://www.w3.org/2001/xml-events" xmlns:xlink="http://www.w3.org/1999/xlink"><defs /><path d="M0 53 L2 54 L3 54 L9 52 L14 44 L17 40 L17 38 L19 35 L21 31 L23 27 L23 24 L23 18 L24 14 L24 12 L24 10 L26 8 L27 6 L29 4 L30 3 L31 2 L32 0 L37 0 L41 1 L42 1 L45 4 L47 8 L49 10 L51 10 L54 13 L56 16 L57 18 L58 20 L61 23 L63 26 L65 28 L66 29 L67 31 L69 34 L70 35 L71 36 L72 38 L73 39 L75 42 L77 45 L78 48 L79 50 L80 53 L81 54 L81 56 L83 58 L83 59 L84 61 L84 62 L87 65 L88 66 L89 67 L90 68 L92 69 L93 71 L96 75 L97 77 L98 78 L106 78 L111 78 L115 77 L120 72 L126 64 L130 60 L133 56 L137 51 L139 46 L141 43 L143 42 L143 41 L144 39 L144 38 L145 37 L150 34 L155 26 L161 22 L164 20 L165 19 L165 17 L167 15 L167 13 L169 12 L171 9 L173 7 L174 7 L174 6 L175 5 L176 5 L177 4 L179 4 L182 4 L188 4 L197 6 L200 13 L201 14 L201 15 L201 18 L203 23 L203 26 L204 28 L204 30 L206 34 L208 39 L210 41 L212 43 L214 46 L214 47 L214 48 L215 49 L216 49 L216 50 L217 51 L218 52 L222 52 L225 52 L229 52 L248 52 L267 52 L286 52 L288 51 L293 50 L299 49 L308 49 L312 49 L316 49 L326 49 L329 49 L330 49 L336 49 L344 49 L347 49 L349 49 L356 49 L362 49 L370 49 L385 49 L400 49 L410 49 L413 49 L421 49 L423 49 L424 49 L434 49 L437 49 L453 49 L458 49 " fill="none" stroke="black" /></svg>