<?xml version="1.0" encoding="utf-8" ?>
<svg baseProfile="tiny" height="97" version="1.2" viewBox="-3 -3 131 97" width="131" xmlns="http://www.w3.org/2000/svg" xmlns:ev="http://www.w3.org/2001/xml-events" xmlns:xlink="http://www.w3.org/1999/xlink"><defs /><path d="M131 12 L129 11 L123 7 L117 7 L114 6 L107 5 L94 2 L84 2 L77 2 L68 1 L62 0 L59 0 L55 0 L46 0 L42 2 L42 3 L40 5 L36 11 L31 15 L26 17 L25 18 L20 19 L17 20 L11 23 L9 25 L6 27 L5 28 L2 33 L0 36 L0 41 L0 42 L0 44 L5 54 L11 62 L16 66 L18 68 L19 68 L20 70 L28 77 L34 81 L37 83 L41 86 L45 87 L50 90 L51 91 L54 91 L59 92 L64 94 L68 95 L70 96 L72 96 L75 96 L80 97 L96 97 L100 97 L110 97 L114 97 L116 96 L117 93 L120 91 L120 89 L122 85 L122 83 L122 82 L123 79 L124 74 L126 70 L126 63 L126 58 L126 55 L126 54 L126 53 L124 51 L122 48 L119 44 L115 40 L113 37 L109 35 L108 33 L104 31 L103 31 L101 30 L96 30 L91 30 L84 30 L77 30 L72 30 L68 30 L63 30 L60 30 L56 32 L52 34 L47 36 L46 37 L43 39 L41 41 L39 42 L38 43 L36 46 L36 48 L36 51 L36 56 L36 59 L36 60 L36 61 L37 63 L39 65 L40 66 L44 70 L53 74 L54 75 L58 76 L63 78 L64 78 L67 78 L74 78 L90 78 L93 78 L95 78 L97 77 L99 74 L100 70 L101 66 L101 64 L101 61 L101 58 L101 56 L101 55 L101 53 L100 51 L98 50 L94 49 L89 47 L85 47 L82 45 L79 45 L77 45 L74 45 L72 45 L69 46 L68 48 L67 51 L67 52 L66 53 L66 56 L66 59 L66 60 L70 67 L70 68 " fill="none" stroke="black" /></svg>