<?xml version="1.0" encoding="utf-8" ?>
<svg baseProfile="tiny" height="48" version="1.2" viewBox="-3 -3 723 48" width="723" xmlns="http://www.w3.org/2000/svg" xmlns:ev="http://www.w3.org/2001/xml-events" xmlns:xlink="http://www.w3.org/1999/xlink"><defs /><path d="M0 4 L20 16 L41 36 L50 41 L58 40 L74 15 L74 13 L75 13 L90 31 L95 35 L98 35 L106 16 L106 15 L110 18 L111 19 L117 2 L118 0 L124 9 L130 18 L132 19 L145 10 L146 9 L147 11 L150 17 L158 17 L177 1 L178 1 L177 5 L177 7 L177 14 L206 7 L214 6 L220 9 L222 16 L228 16 L260 8 L263 7 L264 7 L264 12 L263 12 L263 9 L263 12 L263 15 L264 15 L266 26 L266 29 L270 26 L275 26 L279 26 L291 10 L296 5 L301 13 L311 42 L315 48 L330 42 L337 40 L338 39 L339 41 L341 41 L342 41 L342 43 L342 46 L350 37 L352 35 L352 34 L366 22 L369 21 L371 23 L372 28 L374 31 L406 31 L426 20 L426 19 L429 19 L429 20 L434 21 L441 19 L442 19 L443 19 L454 12 L464 6 L467 11 L467 14 L473 14 L480 8 L482 4 L485 11 L486 21 L490 24 L510 20 L524 11 L525 10 L526 14 L526 20 L530 17 L532 10 L532 18 L532 22 L535 23 L546 14 L553 5 L554 9 L556 13 L561 14 L565 14 L566 14 L572 14 L579 14 L585 13 L585 12 L590 16 L590 20 L592 19 L596 18 L598 18 L599 19 L610 15 L611 15 L613 19 L616 23 L628 24 L652 22 L661 17 L661 23 L661 26 L662 25 L665 20 L666 21 L666 22 L666 24 L670 24 L675 24 L678 24 L679 24 L681 24 L682 24 L685 21 L686 20 L687 20 L688 20 L693 27 L694 27 L697 27 L698 26 L698 25 L703 36 L705 40 L712 32 L721 28 L723 28 " fill="none" stroke="black" /></svg>