<?xml version="1.0" encoding="utf-8" ?>
<svg baseProfile="tiny" height="82" version="1.2" viewBox="-3 -3 665 82" width="665" xmlns="http://www.w3.org/2000/svg" xmlns:ev="http://www.w3.org/2001/xml-events" xmlns:xlink="http://www.w3.org/1999/xlink"><defs /><path d="M0 0 L2 7 L3 22 L3 32 L3 41 L3 54 L3 65 L3 72 L5 79 L5 81 L5 82 L8 81 L9 72 L16 56 L19 47 L20 45 L21 43 L22 36 L23 30 L25 23 L25 20 L26 19 L28 17 L29 15 L35 27 L37 36 L37 41 L38 46 L40 50 L41 56 L42 57 L45 57 L55 42 L56 38 L57 36 L58 34 L59 31 L60 28 L60 27 L79 32 L97 38 L102 41 L104 41 L117 51 L144 59 L146 59 L152 57 L172 37 L183 23 L188 19 L188 18 L200 18 L231 22 L261 30 L300 38 L317 41 L320 43 L327 50 L332 53 L333 53 L338 53 L351 44 L374 28 L395 24 L404 22 L417 22 L439 22 L453 27 L474 37 L487 44 L494 47 L500 49 L502 49 L511 53 L559 46 L589 37 L596 36 L599 36 L603 36 L619 36 L638 36 L644 37 L644 38 L650 43 L661 52 L664 55 L665 55 " fill="none" stroke="black" /></svg>