<?xml version="1.0" encoding="utf-8" ?>
<svg baseProfile="tiny" height="21" version="1.2" viewBox="-3 -3 541 21" width="541" xmlns="http://www.w3.org/2000/svg" xmlns:ev="http://www.w3.org/2001/xml-events" xmlns:xlink="http://www.w3.org/1999/xlink"><defs /><circle cx="0" cy="9" fill="black" r="1" /><circle cx="38" cy="16" fill="black" r="1" /><circle cx="50" cy="17" fill="black" r="1" /><circle cx="81" cy="17" fill="black" r="1" /><path d="M93 18 L94 18 " fill="none" stroke="black" /><path d="M93 18 L94 18 M130 18 L131 18 " fill="none" stroke="black" /><circle cx="176" cy="18" fill="black" r="1" /><path d="M93 18 L94 18 M130 18 L131 18 M178 18 L179 18 " fill="none" stroke="black" /><path d="M93 18 L94 18 M130 18 L131 18 M178 18 L179 18 M186 18 L190 19 L195 19 " fill="none" stroke="black" /><circle cx="230" cy="21" fill="black" r="1" /><circle cx="235" cy="21" fill="black" r="1" /><path d="M93 18 L94 18 M130 18 L131 18 M178 18 L179 18 M186 18 L190 19 L195 19 M257 17 L260 17 L274 17 " fill="none" stroke="black" /><circle cx="304" cy="17" fill="black" r="1" /><circle cx="354" cy="10" fill="black" r="1" /><path d="M93 18 L94 18 M130 18 L131 18 M178 18 L179 18 M186 18 L190 19 L195 19 M257 17 L260 17 L274 17 M368 13 L376 17 " fill="none" stroke="black" /><circle cx="411" cy="15" fill="black" r="1" /><circle cx="466" cy="18" fill="black" r="1" /><circle cx="482" cy="17" fill="black" r="1" /><circle cx="541" cy="0" fill="black" r="1" /><path d="M93 18 L94 18 M130 18 L131 18 M178 18 L179 18 M186 18 L190 19 L195 19 M257 17 L260 17 L274 17 M368 13 L376 17 M51 16 L52 16 L53 16 L55 16 L56 16 L58 16 L59 16 L60 16 L64 17 L67 19 L69 19 " fill="none" stroke="black" /><path d="M93 18 L94 18 M130 18 L131 18 M178 18 L179 18 M186 18 L190 19 L195 19 M257 17 L260 17 L274 17 M368 13 L376 17 M51 16 L52 16 L53 16 L55 16 L56 16 L58 16 L59 16 L60 16 L64 17 L67 19 L69 19 M106 14 L107 14 L111 14 L115 15 L117 15 L118 15 L120 15 L122 15 L123 17 L125 17 L127 17 L129 17 L131 19 L135 19 L136 19 L138 19 L139 20 L142 20 L143 20 L145 20 L155 20 L158 20 L159 20 " fill="none" stroke="black" /><path d="M93 18 L94 18 M130 18 L131 18 M178 18 L179 18 M186 18 L190 19 L195 19 M257 17 L260 17 L274 17 M368 13 L376 17 M51 16 L52 16 L53 16 L55 16 L56 16 L58 16 L59 16 L60 16 L64 17 L67 19 L69 19 M106 14 L107 14 L111 14 L115 15 L117 15 L118 15 L120 15 L122 15 L123 17 L125 17 L127 17 L129 17 L131 19 L135 19 L136 19 L138 19 L139 20 L142 20 L143 20 L145 20 L155 20 L158 20 L159 20 M217 14 L220 14 L222 14 L227 15 L228 15 L230 15 L230 16 L232 17 L233 17 L235 19 L236 19 L239 20 L240 21 L241 21 " fill="none" stroke="black" /><path d="M93 18 L94 18 M130 18 L131 18 M178 18 L179 18 M186 18 L190 19 L195 19 M257 17 L260 17 L274 17 M368 13 L376 17 M51 16 L52 16 L53 16 L55 16 L56 16 L58 16 L59 16 L60 16 L64 17 L67 19 L69 19 M106 14 L107 14 L111 14 L115 15 L117 15 L118 15 L120 15 L122 15 L123 17 L125 17 L127 17 L129 17 L131 19 L135 19 L136 19 L138 19 L139 20 L142 20 L143 20 L145 20 L155 20 L158 20 L159 20 M217 14 L220 14 L222 14 L227 15 L228 15 L230 15 L230 16 L232 17 L233 17 L235 19 L236 19 L239 20 L240 21 L241 21 M299 17 L300 17 L302 17 L306 17 L307 17 L308 17 L310 17 L311 16 L313 15 L314 14 L315 14 L320 12 L323 12 L327 11 L332 11 L336 10 L341 10 " fill="none" stroke="black" /><path d="M93 18 L94 18 M130 18 L131 18 M178 18 L179 18 M186 18 L190 19 L195 19 M257 17 L260 17 L274 17 M368 13 L376 17 M51 16 L52 16 L53 16 L55 16 L56 16 L58 16 L59 16 L60 16 L64 17 L67 19 L69 19 M106 14 L107 14 L111 14 L115 15 L117 15 L118 15 L120 15 L122 15 L123 17 L125 17 L127 17 L129 17 L131 19 L135 19 L136 19 L138 19 L139 20 L142 20 L143 20 L145 20 L155 20 L158 20 L159 20 M217 14 L220 14 L222 14 L227 15 L228 15 L230 15 L230 16 L232 17 L233 17 L235 19 L236 19 L239 20 L240 21 L241 21 M299 17 L300 17 L302 17 L306 17 L307 17 L308 17 L310 17 L311 16 L313 15 L314 14 L315 14 L320 12 L323 12 L327 11 L332 11 L336 10 L341 10 M377 13 L377 14 L379 14 L380 14 L382 14 L385 14 L386 14 L388 14 L389 14 L390 14 L394 14 " fill="none" stroke="black" /><path d="M93 18 L94 18 M130 18 L131 18 M178 18 L179 18 M186 18 L190 19 L195 19 M257 17 L260 17 L274 17 M368 13 L376 17 M51 16 L52 16 L53 16 L55 16 L56 16 L58 16 L59 16 L60 16 L64 17 L67 19 L69 19 M106 14 L107 14 L111 14 L115 15 L117 15 L118 15 L120 15 L122 15 L123 17 L125 17 L127 17 L129 17 L131 19 L135 19 L136 19 L138 19 L139 20 L142 20 L143 20 L145 20 L155 20 L158 20 L159 20 M217 14 L220 14 L222 14 L227 15 L228 15 L230 15 L230 16 L232 17 L233 17 L235 19 L236 19 L239 20 L240 21 L241 21 M299 17 L300 17 L302 17 L306 17 L307 17 L308 17 L310 17 L311 16 L313 15 L314 14 L315 14 L320 12 L323 12 L327 11 L332 11 L336 10 L341 10 M377 13 L377 14 L379 14 L380 14 L382 14 L385 14 L386 14 L388 14 L389 14 L390 14 L394 14 M428 16 L430 16 L432 16 L433 16 L440 16 L441 17 L442 17 L443 17 L445 17 L447 17 L450 17 " fill="none" stroke="black" /><path d="M93 18 L94 18 M130 18 L131 18 M178 18 L179 18 M186 18 L190 19 L195 19 M257 17 L260 17 L274 17 M368 13 L376 17 M51 16 L52 16 L53 16 L55 16 L56 16 L58 16 L59 16 L60 16 L64 17 L67 19 L69 19 M106 14 L107 14 L111 14 L115 15 L117 15 L118 15 L120 15 L122 15 L123 17 L125 17 L127 17 L129 17 L131 19 L135 19 L136 19 L138 19 L139 20 L142 20 L143 20 L145 20 L155 20 L158 20 L159 20 M217 14 L220 14 L222 14 L227 15 L228 15 L230 15 L230 16 L232 17 L233 17 L235 19 L236 19 L239 20 L240 21 L241 21 M299 17 L300 17 L302 17 L306 17 L307 17 L308 17 L310 17 L311 16 L313 15 L314 14 L315 14 L320 12 L323 12 L327 11 L332 11 L336 10 L341 10 M377 13 L377 14 L379 14 L380 14 L382 14 L385 14 L386 14 L388 14 L389 14 L390 14 L394 14 M428 16 L430 16 L432 16 L433 16 L440 16 L441 17 L442 17 L443 17 L445 17 L447 17 L450 17 M493 19 L495 19 L497 19 L499 19 L501 19 L504 17 L507 17 L508 17 L513 14 L520 8 L523 8 L526 7 L527 7 L528 7 " fill="none" stroke="black" /></svg>