<?xml version="1.0" encoding="utf-8" ?>
<svg baseProfile="tiny" height="80" version="1.2" viewBox="-3 -3 222 80" width="222" xmlns="http://www.w3.org/2000/svg" xmlns:ev="http://www.w3.org/2001/xml-events" xmlns:xlink="http://www.w3.org/1999/xlink"><defs /><path d="M10 3 L10 10 L12 15 L13 16 L13 18 L15 24 L15 25 L15 26 L15 31 L15 41 L15 48 L10 44 L9 36 L7 31 L7 30 L8 30 L9 30 L10 30 L12 28 L13 18 L15 15 L15 14 L27 21 L34 29 L35 30 L30 9 L28 0 L28 8 L30 22 L24 19 L23 18 L24 23 L28 39 L30 46 L30 47 L24 39 L3 12 L3 13 L3 15 L0 9 L30 45 L45 80 L44 58 L40 19 L37 9 L38 11 L47 34 L49 38 L49 34 L49 33 L49 37 L49 34 L49 35 L48 22 L48 20 L49 28 L49 30 L52 25 L52 11 L55 19 L55 24 L58 24 L59 23 L62 30 L64 32 L64 29 L64 26 L65 33 L67 36 L67 30 L67 29 L67 30 L80 45 L82 38 L82 37 L83 37 L88 38 L91 40 L91 38 L95 46 L97 49 L104 45 L106 29 L106 27 L113 34 L113 30 L113 26 L114 28 L113 47 L124 64 L136 56 L145 29 L147 23 L147 25 L148 28 L151 22 L154 34 L161 58 L163 60 L166 50 L170 38 L170 37 L172 37 L174 38 L176 39 L180 32 L180 31 L182 33 L187 41 L190 42 L194 37 L194 31 L194 30 L202 43 L204 47 L206 47 L212 42 L215 36 L220 38 L222 40 L222 35 " fill="none" stroke="black" /><path d="M10 3 L10 10 L12 15 L13 16 L13 18 L15 24 L15 25 L15 26 L15 31 L15 41 L15 48 L10 44 L9 36 L7 31 L7 30 L8 30 L9 30 L10 30 L12 28 L13 18 L15 15 L15 14 L27 21 L34 29 L35 30 L30 9 L28 0 L28 8 L30 22 L24 19 L23 18 L24 23 L28 39 L30 46 L30 47 L24 39 L3 12 L3 13 L3 15 L0 9 L30 45 L45 80 L44 58 L40 19 L37 9 L38 11 L47 34 L49 38 L49 34 L49 33 L49 37 L49 34 L49 35 L48 22 L48 20 L49 28 L49 30 L52 25 L52 11 L55 19 L55 24 L58 24 L59 23 L62 30 L64 32 L64 29 L64 26 L65 33 L67 36 L67 30 L67 29 L67 30 L80 45 L82 38 L82 37 L83 37 L88 38 L91 40 L91 38 L95 46 L97 49 L104 45 L106 29 L106 27 L113 34 L113 30 L113 26 L114 28 L113 47 L124 64 L136 56 L145 29 L147 23 L147 25 L148 28 L151 22 L154 34 L161 58 L163 60 L166 50 L170 38 L170 37 L172 37 L174 38 L176 39 L180 32 L180 31 L182 33 L187 41 L190 42 L194 37 L194 31 L194 30 L202 43 L204 47 L206 47 L212 42 L215 36 L220 38 L222 40 L222 35 M199 36 L198 35 L198 36 L196 34 L195 32 L194 32 L189 39 L183 45 L168 46 L163 39 L153 23 L151 20 L154 33 L139 26 L131 26 L127 33 L125 32 L124 31 L120 35 L115 41 L114 42 L110 44 L95 36 L91 32 L90 33 " fill="none" stroke="black" /></svg>