<?xml version="1.0" encoding="utf-8" ?>
<svg baseProfile="tiny" height="272" version="1.2" viewBox="-3 -3 493 272" width="493" xmlns="http://www.w3.org/2000/svg" xmlns:ev="http://www.w3.org/2001/xml-events" xmlns:xlink="http://www.w3.org/1999/xlink"><defs /><path d="M0 183 L6 183 L14 184 L21 185 L25 185 L29 185 L42 187 L55 189 L64 189 L78 190 L89 190 L103 190 L120 190 L142 190 L161 190 L176 190 L181 190 L186 191 L190 191 L198 191 L210 191 L219 191 L227 191 L240 191 L252 191 L282 191 L296 189 L306 187 L315 184 L342 179 L351 179 L358 177 L360 177 L366 173 L374 167 L383 163 L391 157 L406 145 L418 133 L425 127 L430 122 L449 111 L463 104 L466 101 L469 98 L473 92 L479 85 L481 83 L483 79 L484 77 L484 74 L484 70 L485 66 L485 63 L486 61 L487 57 L489 53 L490 49 L491 48 L492 46 L492 42 L493 39 L493 38 L493 36 L493 35 L493 31 L493 28 L493 26 L493 25 L493 23 L493 22 L493 21 L492 20 L491 19 L489 16 L488 14 L487 13 L485 11 L485 10 L485 9 L485 8 " fill="none" stroke="black" /><path d="M0 183 L6 183 L14 184 L21 185 L25 185 L29 185 L42 187 L55 189 L64 189 L78 190 L89 190 L103 190 L120 190 L142 190 L161 190 L176 190 L181 190 L186 191 L190 191 L198 191 L210 191 L219 191 L227 191 L240 191 L252 191 L282 191 L296 189 L306 187 L315 184 L342 179 L351 179 L358 177 L360 177 L366 173 L374 167 L383 163 L391 157 L406 145 L418 133 L425 127 L430 122 L449 111 L463 104 L466 101 L469 98 L473 92 L479 85 L481 83 L483 79 L484 77 L484 74 L484 70 L485 66 L485 63 L486 61 L487 57 L489 53 L490 49 L491 48 L492 46 L492 42 L493 39 L493 38 L493 36 L493 35 L493 31 L493 28 L493 26 L493 25 L493 23 L493 22 L493 21 L492 20 L491 19 L489 16 L488 14 L487 13 L485 11 L485 10 L485 9 L485 8 M438 117 L441 116 L445 117 L446 118 L450 120 L455 127 L458 131 L460 134 L461 138 L463 142 L465 146 L467 151 L469 158 L471 163 L473 167 L475 172 L475 177 L479 182 L480 185 L481 189 L481 191 L481 195 L481 200 L481 205 L481 208 L481 210 L481 212 L481 218 L481 222 L481 224 L481 227 L481 229 L481 235 L481 240 L480 243 L480 246 L479 251 L479 253 L479 254 L479 255 L478 256 L478 257 L478 259 L478 261 L476 262 L476 264 L476 265 L476 266 L476 269 L475 270 L475 271 L474 271 L474 272 " fill="none" stroke="black" /><path d="M0 183 L6 183 L14 184 L21 185 L25 185 L29 185 L42 187 L55 189 L64 189 L78 190 L89 190 L103 190 L120 190 L142 190 L161 190 L176 190 L181 190 L186 191 L190 191 L198 191 L210 191 L219 191 L227 191 L240 191 L252 191 L282 191 L296 189 L306 187 L315 184 L342 179 L351 179 L358 177 L360 177 L366 173 L374 167 L383 163 L391 157 L406 145 L418 133 L425 127 L430 122 L449 111 L463 104 L466 101 L469 98 L473 92 L479 85 L481 83 L483 79 L484 77 L484 74 L484 70 L485 66 L485 63 L486 61 L487 57 L489 53 L490 49 L491 48 L492 46 L492 42 L493 39 L493 38 L493 36 L493 35 L493 31 L493 28 L493 26 L493 25 L493 23 L493 22 L493 21 L492 20 L491 19 L489 16 L488 14 L487 13 L485 11 L485 10 L485 9 L485 8 M438 117 L441 116 L445 117 L446 118 L450 120 L455 127 L458 131 L460 134 L461 138 L463 142 L465 146 L467 151 L469 158 L471 163 L473 167 L475 172 L475 177 L479 182 L480 185 L481 189 L481 191 L481 195 L481 200 L481 205 L481 208 L481 210 L481 212 L481 218 L481 222 L481 224 L481 227 L481 229 L481 235 L481 240 L480 243 L480 246 L479 251 L479 253 L479 254 L479 255 L478 256 L478 257 L478 259 L478 261 L476 262 L476 264 L476 265 L476 266 L476 269 L475 270 L475 271 L474 271 L474 272 M493 23 L493 22 L493 21 L493 19 L493 17 L493 16 L493 14 L493 12 L493 10 L492 9 L490 6 L488 4 L487 2 L487 1 L486 0 " fill="none" stroke="black" /></svg>