<?xml version="1.0" encoding="utf-8" ?>
<svg baseProfile="tiny" height="140" version="1.2" viewBox="-3 -3 207 140" width="207" xmlns="http://www.w3.org/2000/svg" xmlns:ev="http://www.w3.org/2001/xml-events" xmlns:xlink="http://www.w3.org/1999/xlink"><defs /><circle cx="39" cy="0" fill="black" r="1" /><circle cx="98" cy="25" fill="black" r="1" /><circle cx="76" cy="45" fill="black" r="1" /><circle cx="93" cy="59" fill="black" r="1" /><circle cx="139" cy="66" fill="black" r="1" /><circle cx="111" cy="87" fill="black" r="1" /><circle cx="78" cy="97" fill="black" r="1" /><circle cx="56" cy="111" fill="black" r="1" /><circle cx="117" cy="138" fill="black" r="1" /><circle cx="126" cy="128" fill="black" r="1" /><circle cx="140" cy="116" fill="black" r="1" /><circle cx="142" cy="87" fill="black" r="1" /><circle cx="143" cy="90" fill="black" r="1" /><circle cx="110" cy="113" fill="black" r="1" /><path d="M110 114 L109 114 L107 114 L105 114 " fill="none" stroke="black" /><path d="M110 114 L109 114 L107 114 L105 114 M100 115 L100 116 L97 116 " fill="none" stroke="black" /><path d="M110 114 L109 114 L107 114 L105 114 M100 115 L100 116 L97 116 M80 120 L79 122 " fill="none" stroke="black" /><circle cx="61" cy="109" fill="black" r="1" /><circle cx="76" cy="140" fill="black" r="1" /><circle cx="82" cy="125" fill="black" r="1" /><circle cx="37" cy="96" fill="black" r="1" /><circle cx="5" cy="82" fill="black" r="1" /><path d="M110 114 L109 114 L107 114 L105 114 M100 115 L100 116 L97 116 M80 120 L79 122 M16 81 L30 79 " fill="none" stroke="black" /><path d="M110 114 L109 114 L107 114 L105 114 M100 115 L100 116 L97 116 M80 120 L79 122 M16 81 L30 79 M53 83 L62 85 L76 85 " fill="none" stroke="black" /><path d="M110 114 L109 114 L107 114 L105 114 M100 115 L100 116 L97 116 M80 120 L79 122 M16 81 L30 79 M53 83 L62 85 L76 85 M76 85 L77 85 " fill="none" stroke="black" /><path d="M110 114 L109 114 L107 114 L105 114 M100 115 L100 116 L97 116 M80 120 L79 122 M16 81 L30 79 M53 83 L62 85 L76 85 M76 85 L77 85 M88 82 L89 82 " fill="none" stroke="black" /><path d="M110 114 L109 114 L107 114 L105 114 M100 115 L100 116 L97 116 M80 120 L79 122 M16 81 L30 79 M53 83 L62 85 L76 85 M76 85 L77 85 M88 82 L89 82 M101 63 L102 62 " fill="none" stroke="black" /><circle cx="131" cy="56" fill="black" r="1" /><circle cx="147" cy="64" fill="black" r="1" /><circle cx="202" cy="96" fill="black" r="1" /><path d="M110 114 L109 114 L107 114 L105 114 M100 115 L100 116 L97 116 M80 120 L79 122 M16 81 L30 79 M53 83 L62 85 L76 85 M76 85 L77 85 M88 82 L89 82 M101 63 L102 62 M207 101 L207 102 " fill="none" stroke="black" /><circle cx="202" cy="110" fill="black" r="1" /><path d="M110 114 L109 114 L107 114 L105 114 M100 115 L100 116 L97 116 M80 120 L79 122 M16 81 L30 79 M53 83 L62 85 L76 85 M76 85 L77 85 M88 82 L89 82 M101 63 L102 62 M207 101 L207 102 M166 120 L160 120 " fill="none" stroke="black" /><path d="M110 114 L109 114 L107 114 L105 114 M100 115 L100 116 L97 116 M80 120 L79 122 M16 81 L30 79 M53 83 L62 85 L76 85 M76 85 L77 85 M88 82 L89 82 M101 63 L102 62 M207 101 L207 102 M166 120 L160 120 M142 120 L142 119 " fill="none" stroke="black" /><circle cx="165" cy="98" fill="black" r="1" /><path d="M110 114 L109 114 L107 114 L105 114 M100 115 L100 116 L97 116 M80 120 L79 122 M16 81 L30 79 M53 83 L62 85 L76 85 M76 85 L77 85 M88 82 L89 82 M101 63 L102 62 M207 101 L207 102 M166 120 L160 120 M142 120 L142 119 M173 94 L174 94 " fill="none" stroke="black" /><circle cx="188" cy="68" fill="black" r="1" /><path d="M110 114 L109 114 L107 114 L105 114 M100 115 L100 116 L97 116 M80 120 L79 122 M16 81 L30 79 M53 83 L62 85 L76 85 M76 85 L77 85 M88 82 L89 82 M101 63 L102 62 M207 101 L207 102 M166 120 L160 120 M142 120 L142 119 M173 94 L174 94 M183 54 L182 54 " fill="none" stroke="black" /><path d="M110 114 L109 114 L107 114 L105 114 M100 115 L100 116 L97 116 M80 120 L79 122 M16 81 L30 79 M53 83 L62 85 L76 85 M76 85 L77 85 M88 82 L89 82 M101 63 L102 62 M207 101 L207 102 M166 120 L160 120 M142 120 L142 119 M173 94 L174 94 M183 54 L182 54 M178 44 L176 41 " fill="none" stroke="black" /><path d="M110 114 L109 114 L107 114 L105 114 M100 115 L100 116 L97 116 M80 120 L79 122 M16 81 L30 79 M53 83 L62 85 L76 85 M76 85 L77 85 M88 82 L89 82 M101 63 L102 62 M207 101 L207 102 M166 120 L160 120 M142 120 L142 119 M173 94 L174 94 M183 54 L182 54 M178 44 L176 41 M164 45 L160 41 " fill="none" stroke="black" /><circle cx="138" cy="35" fill="black" r="1" /><circle cx="126" cy="39" fill="black" r="1" /><path d="M110 114 L109 114 L107 114 L105 114 M100 115 L100 116 L97 116 M80 120 L79 122 M16 81 L30 79 M53 83 L62 85 L76 85 M76 85 L77 85 M88 82 L89 82 M101 63 L102 62 M207 101 L207 102 M166 120 L160 120 M142 120 L142 119 M173 94 L174 94 M183 54 L182 54 M178 44 L176 41 M164 45 L160 41 M118 44 L117 44 " fill="none" stroke="black" /><circle cx="107" cy="47" fill="black" r="1" /><circle cx="108" cy="78" fill="black" r="1" /><path d="M110 114 L109 114 L107 114 L105 114 M100 115 L100 116 L97 116 M80 120 L79 122 M16 81 L30 79 M53 83 L62 85 L76 85 M76 85 L77 85 M88 82 L89 82 M101 63 L102 62 M207 101 L207 102 M166 120 L160 120 M142 120 L142 119 M173 94 L174 94 M183 54 L182 54 M178 44 L176 41 M164 45 L160 41 M118 44 L117 44 M115 91 L116 92 " fill="none" stroke="black" /><circle cx="124" cy="99" fill="black" r="1" /><circle cx="109" cy="97" fill="black" r="1" /><circle cx="105" cy="98" fill="black" r="1" /><path d="M110 114 L109 114 L107 114 L105 114 M100 115 L100 116 L97 116 M80 120 L79 122 M16 81 L30 79 M53 83 L62 85 L76 85 M76 85 L77 85 M88 82 L89 82 M101 63 L102 62 M207 101 L207 102 M166 120 L160 120 M142 120 L142 119 M173 94 L174 94 M183 54 L182 54 M178 44 L176 41 M164 45 L160 41 M118 44 L117 44 M115 91 L116 92 M101 98 L98 98 " fill="none" stroke="black" /><circle cx="96" cy="98" fill="black" r="1" /><circle cx="93" cy="98" fill="black" r="1" /><path d="M110 114 L109 114 L107 114 L105 114 M100 115 L100 116 L97 116 M80 120 L79 122 M16 81 L30 79 M53 83 L62 85 L76 85 M76 85 L77 85 M88 82 L89 82 M101 63 L102 62 M207 101 L207 102 M166 120 L160 120 M142 120 L142 119 M173 94 L174 94 M183 54 L182 54 M178 44 L176 41 M164 45 L160 41 M118 44 L117 44 M115 91 L116 92 M101 98 L98 98 M78 117 L75 117 " fill="none" stroke="black" /><path d="M110 114 L109 114 L107 114 L105 114 M100 115 L100 116 L97 116 M80 120 L79 122 M16 81 L30 79 M53 83 L62 85 L76 85 M76 85 L77 85 M88 82 L89 82 M101 63 L102 62 M207 101 L207 102 M166 120 L160 120 M142 120 L142 119 M173 94 L174 94 M183 54 L182 54 M178 44 L176 41 M164 45 L160 41 M118 44 L117 44 M115 91 L116 92 M101 98 L98 98 M78 117 L75 117 M68 116 L67 116 " fill="none" stroke="black" /><circle cx="62" cy="116" fill="black" r="1" /><path d="M110 114 L109 114 L107 114 L105 114 M100 115 L100 116 L97 116 M80 120 L79 122 M16 81 L30 79 M53 83 L62 85 L76 85 M76 85 L77 85 M88 82 L89 82 M101 63 L102 62 M207 101 L207 102 M166 120 L160 120 M142 120 L142 119 M173 94 L174 94 M183 54 L182 54 M178 44 L176 41 M164 45 L160 41 M118 44 L117 44 M115 91 L116 92 M101 98 L98 98 M78 117 L75 117 M68 116 L67 116 M71 118 L95 113 " fill="none" stroke="black" /><circle cx="114" cy="115" fill="black" r="1" /><circle cx="109" cy="130" fill="black" r="1" /><circle cx="98" cy="132" fill="black" r="1" /><path d="M110 114 L109 114 L107 114 L105 114 M100 115 L100 116 L97 116 M80 120 L79 122 M16 81 L30 79 M53 83 L62 85 L76 85 M76 85 L77 85 M88 82 L89 82 M101 63 L102 62 M207 101 L207 102 M166 120 L160 120 M142 120 L142 119 M173 94 L174 94 M183 54 L182 54 M178 44 L176 41 M164 45 L160 41 M118 44 L117 44 M115 91 L116 92 M101 98 L98 98 M78 117 L75 117 M68 116 L67 116 M71 118 L95 113 M98 132 L104 129 " fill="none" stroke="black" /><path d="M110 114 L109 114 L107 114 L105 114 M100 115 L100 116 L97 116 M80 120 L79 122 M16 81 L30 79 M53 83 L62 85 L76 85 M76 85 L77 85 M88 82 L89 82 M101 63 L102 62 M207 101 L207 102 M166 120 L160 120 M142 120 L142 119 M173 94 L174 94 M183 54 L182 54 M178 44 L176 41 M164 45 L160 41 M118 44 L117 44 M115 91 L116 92 M101 98 L98 98 M78 117 L75 117 M68 116 L67 116 M71 118 L95 113 M98 132 L104 129 M148 88 L149 87 " fill="none" stroke="black" /><path d="M110 114 L109 114 L107 114 L105 114 M100 115 L100 116 L97 116 M80 120 L79 122 M16 81 L30 79 M53 83 L62 85 L76 85 M76 85 L77 85 M88 82 L89 82 M101 63 L102 62 M207 101 L207 102 M166 120 L160 120 M142 120 L142 119 M173 94 L174 94 M183 54 L182 54 M178 44 L176 41 M164 45 L160 41 M118 44 L117 44 M115 91 L116 92 M101 98 L98 98 M78 117 L75 117 M68 116 L67 116 M71 118 L95 113 M98 132 L104 129 M148 88 L149 87 M161 76 L162 76 " fill="none" stroke="black" /><circle cx="163" cy="60" fill="black" r="1" /><circle cx="163" cy="60" fill="black" r="1" /><circle cx="180" cy="86" fill="black" r="1" /><circle cx="176" cy="96" fill="black" r="1" /><circle cx="175" cy="100" fill="black" r="1" /><path d="M110 114 L109 114 L107 114 L105 114 M100 115 L100 116 L97 116 M80 120 L79 122 M16 81 L30 79 M53 83 L62 85 L76 85 M76 85 L77 85 M88 82 L89 82 M101 63 L102 62 M207 101 L207 102 M166 120 L160 120 M142 120 L142 119 M173 94 L174 94 M183 54 L182 54 M178 44 L176 41 M164 45 L160 41 M118 44 L117 44 M115 91 L116 92 M101 98 L98 98 M78 117 L75 117 M68 116 L67 116 M71 118 L95 113 M98 132 L104 129 M148 88 L149 87 M161 76 L162 76 M188 108 L189 108 " fill="none" stroke="black" /><circle cx="173" cy="109" fill="black" r="1" /><circle cx="149" cy="106" fill="black" r="1" /><circle cx="149" cy="106" fill="black" r="1" /><circle cx="139" cy="99" fill="black" r="1" /><circle cx="131" cy="82" fill="black" r="1" /><circle cx="122" cy="74" fill="black" r="1" /><circle cx="120" cy="67" fill="black" r="1" /><path d="M110 114 L109 114 L107 114 L105 114 M100 115 L100 116 L97 116 M80 120 L79 122 M16 81 L30 79 M53 83 L62 85 L76 85 M76 85 L77 85 M88 82 L89 82 M101 63 L102 62 M207 101 L207 102 M166 120 L160 120 M142 120 L142 119 M173 94 L174 94 M183 54 L182 54 M178 44 L176 41 M164 45 L160 41 M118 44 L117 44 M115 91 L116 92 M101 98 L98 98 M78 117 L75 117 M68 116 L67 116 M71 118 L95 113 M98 132 L104 129 M148 88 L149 87 M161 76 L162 76 M188 108 L189 108 M120 65 L120 64 " fill="none" stroke="black" /><circle cx="28" cy="72" fill="black" r="1" /><circle cx="52" cy="68" fill="black" r="1" /><circle cx="66" cy="66" fill="black" r="1" /><circle cx="71" cy="66" fill="black" r="1" /><circle cx="75" cy="66" fill="black" r="1" /><path d="M110 114 L109 114 L107 114 L105 114 M100 115 L100 116 L97 116 M80 120 L79 122 M16 81 L30 79 M53 83 L62 85 L76 85 M76 85 L77 85 M88 82 L89 82 M101 63 L102 62 M207 101 L207 102 M166 120 L160 120 M142 120 L142 119 M173 94 L174 94 M183 54 L182 54 M178 44 L176 41 M164 45 L160 41 M118 44 L117 44 M115 91 L116 92 M101 98 L98 98 M78 117 L75 117 M68 116 L67 116 M71 118 L95 113 M98 132 L104 129 M148 88 L149 87 M161 76 L162 76 M188 108 L189 108 M120 65 L120 64 M34 32 L34 33 " fill="none" stroke="black" /><circle cx="35" cy="46" fill="black" r="1" /><path d="M110 114 L109 114 L107 114 L105 114 M100 115 L100 116 L97 116 M80 120 L79 122 M16 81 L30 79 M53 83 L62 85 L76 85 M76 85 L77 85 M88 82 L89 82 M101 63 L102 62 M207 101 L207 102 M166 120 L160 120 M142 120 L142 119 M173 94 L174 94 M183 54 L182 54 M178 44 L176 41 M164 45 L160 41 M118 44 L117 44 M115 91 L116 92 M101 98 L98 98 M78 117 L75 117 M68 116 L67 116 M71 118 L95 113 M98 132 L104 129 M148 88 L149 87 M161 76 L162 76 M188 108 L189 108 M120 65 L120 64 M34 32 L34 33 M20 50 L17 51 " fill="none" stroke="black" /><circle cx="0" cy="59" fill="black" r="1" /><path d="M110 114 L109 114 L107 114 L105 114 M100 115 L100 116 L97 116 M80 120 L79 122 M16 81 L30 79 M53 83 L62 85 L76 85 M76 85 L77 85 M88 82 L89 82 M101 63 L102 62 M207 101 L207 102 M166 120 L160 120 M142 120 L142 119 M173 94 L174 94 M183 54 L182 54 M178 44 L176 41 M164 45 L160 41 M118 44 L117 44 M115 91 L116 92 M101 98 L98 98 M78 117 L75 117 M68 116 L67 116 M71 118 L95 113 M98 132 L104 129 M148 88 L149 87 M161 76 L162 76 M188 108 L189 108 M120 65 L120 64 M34 32 L34 33 M20 50 L17 51 M49 60 L51 60 " fill="none" stroke="black" /><path d="M110 114 L109 114 L107 114 L105 114 M100 115 L100 116 L97 116 M80 120 L79 122 M16 81 L30 79 M53 83 L62 85 L76 85 M76 85 L77 85 M88 82 L89 82 M101 63 L102 62 M207 101 L207 102 M166 120 L160 120 M142 120 L142 119 M173 94 L174 94 M183 54 L182 54 M178 44 L176 41 M164 45 L160 41 M118 44 L117 44 M115 91 L116 92 M101 98 L98 98 M78 117 L75 117 M68 116 L67 116 M71 118 L95 113 M98 132 L104 129 M148 88 L149 87 M161 76 L162 76 M188 108 L189 108 M120 65 L120 64 M34 32 L34 33 M20 50 L17 51 M49 60 L51 60 M52 59 L52 51 " fill="none" stroke="black" /><circle cx="44" cy="46" fill="black" r="1" /><path d="M110 114 L109 114 L107 114 L105 114 M100 115 L100 116 L97 116 M80 120 L79 122 M16 81 L30 79 M53 83 L62 85 L76 85 M76 85 L77 85 M88 82 L89 82 M101 63 L102 62 M207 101 L207 102 M166 120 L160 120 M142 120 L142 119 M173 94 L174 94 M183 54 L182 54 M178 44 L176 41 M164 45 L160 41 M118 44 L117 44 M115 91 L116 92 M101 98 L98 98 M78 117 L75 117 M68 116 L67 116 M71 118 L95 113 M98 132 L104 129 M148 88 L149 87 M161 76 L162 76 M188 108 L189 108 M120 65 L120 64 M34 32 L34 33 M20 50 L17 51 M49 60 L51 60 M52 59 L52 51 M55 46 L56 46 " fill="none" stroke="black" /><path d="M110 114 L109 114 L107 114 L105 114 M100 115 L100 116 L97 116 M80 120 L79 122 M16 81 L30 79 M53 83 L62 85 L76 85 M76 85 L77 85 M88 82 L89 82 M101 63 L102 62 M207 101 L207 102 M166 120 L160 120 M142 120 L142 119 M173 94 L174 94 M183 54 L182 54 M178 44 L176 41 M164 45 L160 41 M118 44 L117 44 M115 91 L116 92 M101 98 L98 98 M78 117 L75 117 M68 116 L67 116 M71 118 L95 113 M98 132 L104 129 M148 88 L149 87 M161 76 L162 76 M188 108 L189 108 M120 65 L120 64 M34 32 L34 33 M20 50 L17 51 M49 60 L51 60 M52 59 L52 51 M55 46 L56 46 M67 42 L70 40 " fill="none" stroke="black" /><path d="M110 114 L109 114 L107 114 L105 114 M100 115 L100 116 L97 116 M80 120 L79 122 M16 81 L30 79 M53 83 L62 85 L76 85 M76 85 L77 85 M88 82 L89 82 M101 63 L102 62 M207 101 L207 102 M166 120 L160 120 M142 120 L142 119 M173 94 L174 94 M183 54 L182 54 M178 44 L176 41 M164 45 L160 41 M118 44 L117 44 M115 91 L116 92 M101 98 L98 98 M78 117 L75 117 M68 116 L67 116 M71 118 L95 113 M98 132 L104 129 M148 88 L149 87 M161 76 L162 76 M188 108 L189 108 M120 65 L120 64 M34 32 L34 33 M20 50 L17 51 M49 60 L51 60 M52 59 L52 51 M55 46 L56 46 M67 42 L70 40 M75 30 L78 30 " fill="none" stroke="black" /><path d="M110 114 L109 114 L107 114 L105 114 M100 115 L100 116 L97 116 M80 120 L79 122 M16 81 L30 79 M53 83 L62 85 L76 85 M76 85 L77 85 M88 82 L89 82 M101 63 L102 62 M207 101 L207 102 M166 120 L160 120 M142 120 L142 119 M173 94 L174 94 M183 54 L182 54 M178 44 L176 41 M164 45 L160 41 M118 44 L117 44 M115 91 L116 92 M101 98 L98 98 M78 117 L75 117 M68 116 L67 116 M71 118 L95 113 M98 132 L104 129 M148 88 L149 87 M161 76 L162 76 M188 108 L189 108 M120 65 L120 64 M34 32 L34 33 M20 50 L17 51 M49 60 L51 60 M52 59 L52 51 M55 46 L56 46 M67 42 L70 40 M75 30 L78 30 M113 38 L114 40 " fill="none" stroke="black" /></svg>