<?xml version="1.0" encoding="utf-8" ?>
<svg baseProfile="tiny" height="291" version="1.2" viewBox="-3 -3 614 291" width="614" xmlns="http://www.w3.org/2000/svg" xmlns:ev="http://www.w3.org/2001/xml-events" xmlns:xlink="http://www.w3.org/1999/xlink"><defs /><path d="M23 256 L22 226 L17 181 L5 115 L0 82 L0 63 L1 58 L2 55 L8 43 L8 41 L9 40 L11 44 L24 58 L31 66 L33 71 L37 82 L40 95 L44 109 L48 136 L59 166 L65 182 L68 203 L70 238 L73 274 L76 290 L76 291 L79 291 L88 274 L100 254 L115 234 L131 189 L137 146 L137 108 L137 84 L140 58 L142 38 L142 27 L142 25 L143 29 L147 43 L153 64 L159 86 L161 99 L164 123 L164 151 L164 189 L166 229 L166 250 L166 257 L167 266 L169 278 L171 283 L177 268 L191 208 L209 157 L226 123 L242 93 L250 65 L251 35 L251 14 L253 9 L257 23 L263 44 L267 87 L273 116 L275 149 L276 184 L276 215 L276 237 L277 244 L278 251 L281 258 L282 266 L283 269 L283 272 L284 276 L284 278 L286 263 L296 237 L305 203 L322 151 L336 96 L343 64 L347 47 L353 24 L361 8 L361 7 L363 14 L364 40 L367 73 L372 122 L379 168 L388 203 L389 223 L389 244 L389 257 L389 267 L389 268 L389 269 L389 272 L392 273 L405 227 L417 182 L430 146 L440 118 L445 85 L445 58 L446 34 L446 28 L449 19 L459 2 L459 1 L462 0 L465 8 L476 29 L487 68 L495 108 L499 152 L502 195 L503 218 L503 241 L503 252 L503 261 L503 266 L503 267 L504 267 L520 245 L532 218 L536 175 L540 134 L552 101 L555 88 L555 74 L555 55 L556 39 L556 34 L556 31 L564 43 L577 78 L587 117 L593 159 L597 189 L601 207 L604 224 L605 236 L607 248 L612 268 L613 285 L614 287 " fill="none" stroke="black" /></svg>