<?xml version="1.0" encoding="utf-8" ?>
<svg baseProfile="tiny" height="33" version="1.2" viewBox="-3 -3 769 33" width="769" xmlns="http://www.w3.org/2000/svg" xmlns:ev="http://www.w3.org/2001/xml-events" xmlns:xlink="http://www.w3.org/1999/xlink"><defs /><path d="M0 33 L1 33 L11 21 L13 16 L16 14 L17 12 L18 11 L21 8 L25 5 L28 5 L32 3 L37 1 L42 1 L50 1 L64 0 L70 0 L79 0 L85 0 L89 0 L95 0 L105 0 L111 0 L118 0 L128 0 L140 0 L150 0 L159 0 L167 0 L173 0 L179 0 L185 1 L192 2 L205 6 L214 9 L219 9 L224 11 L230 14 L234 16 L236 16 L243 19 L250 21 L256 22 L262 24 L268 24 L272 26 L277 28 L279 28 L281 28 L286 28 L293 30 L296 30 L300 30 L304 30 L310 30 L317 30 L324 30 L328 30 L330 30 L333 30 L342 30 L349 30 L355 30 L359 30 L362 30 L364 30 L372 30 L382 28 L393 26 L398 24 L406 22 L409 19 L413 18 L420 17 L432 14 L437 13 L441 12 L449 11 L454 10 L461 9 L470 9 L476 9 L482 9 L486 9 L487 9 L490 9 L499 9 L501 9 L511 9 L525 9 L531 9 L534 9 L544 10 L551 10 L556 10 L566 10 L570 11 L571 11 L574 11 L577 11 L581 11 L591 11 L596 12 L605 14 L625 17 L629 17 L630 17 L636 18 L641 18 L644 19 L650 21 L659 23 L666 24 L670 24 L677 24 L684 24 L685 24 L691 24 L697 24 L703 24 L708 24 L709 24 L714 24 L715 24 L721 24 L730 21 L737 19 L740 19 L742 18 L746 17 L747 16 L751 16 L757 16 L758 16 L759 16 L761 16 L767 16 L769 16 " fill="none" stroke="black" /></svg>