<?xml version="1.0" encoding="utf-8" ?>
<svg baseProfile="tiny" height="14" version="1.2" viewBox="-3 -3 243 14" width="243" xmlns="http://www.w3.org/2000/svg" xmlns:ev="http://www.w3.org/2001/xml-events" xmlns:xlink="http://www.w3.org/1999/xlink"><defs /><path d="M0 10 L4 6 L5 5 L6 5 L7 4 L8 3 L11 2 L14 3 L17 7 L18 7 L19 7 L20 7 L22 3 L22 2 L23 2 L24 2 L24 1 L24 0 L26 2 L26 4 L34 9 L36 10 L38 10 L39 7 L40 6 L42 7 L42 6 L43 5 L43 4 L44 4 L45 4 L47 4 L54 6 L55 7 L58 7 L59 7 L60 7 L61 7 L64 7 L64 8 L65 8 L67 6 L67 5 L70 4 L71 6 L72 6 L73 6 L74 6 L75 6 L76 6 L78 7 L81 2 L83 0 L85 3 L86 3 L87 3 L88 3 L89 2 L89 1 L95 4 L97 6 L97 3 L97 2 L98 2 L98 3 L99 3 L100 3 L102 2 L103 2 L108 3 L110 5 L111 5 L111 3 L113 3 L114 3 L116 2 L117 2 L120 3 L121 3 L122 4 L125 4 L129 4 L135 9 L140 14 L143 9 L143 6 L144 4 L145 4 L146 3 L152 8 L153 9 L154 7 L154 5 L154 4 L155 5 L159 12 L159 13 L160 11 L160 7 L160 5 L160 4 L160 3 L164 4 L165 2 L165 1 L170 3 L173 9 L173 7 L174 7 L177 8 L178 9 L180 9 L182 10 L184 9 L185 8 L188 8 L193 7 L194 7 L197 7 L198 7 L199 7 L202 8 L203 8 L208 4 L209 3 L210 2 L212 2 L213 2 L217 1 L218 0 L220 0 L221 0 L226 6 L228 10 L229 10 L229 8 L231 8 L231 9 L232 8 L232 6 L232 5 L234 5 L234 6 L235 7 L237 7 L239 5 L241 5 L242 5 L243 5 " fill="none" stroke="black" /></svg>