<?xml version="1.0" encoding="utf-8" ?>
<svg baseProfile="tiny" height="305" version="1.2" viewBox="-3 -3 674 305" width="674" xmlns="http://www.w3.org/2000/svg" xmlns:ev="http://www.w3.org/2001/xml-events" xmlns:xlink="http://www.w3.org/1999/xlink"><defs /><path d="M0 0 L8 3 L16 7 L25 11 L29 14 L35 19 L42 28 L50 36 L56 43 L63 50 L70 62 L82 80 L90 90 L95 95 L99 105 L107 119 L111 127 L113 131 L115 138 L118 151 L119 159 L120 168 L121 172 L121 180 L122 187 L122 190 L123 196 L124 206 L124 212 L126 219 L128 225 L128 227 L130 231 L130 241 L130 243 L131 246 L131 248 L132 252 L132 258 L132 261 L134 268 L138 279 L139 283 L139 284 L140 287 L144 290 L147 292 L154 295 L159 297 L160 298 L167 300 L178 303 L179 303 L181 303 L190 302 L196 297 L208 292 L214 287 L224 280 L231 270 L237 260 L245 250 L249 244 L253 234 L258 225 L265 214 L272 207 L274 198 L279 188 L283 182 L287 175 L291 169 L296 157 L298 148 L300 143 L304 138 L308 131 L311 121 L316 112 L323 101 L325 91 L331 78 L334 71 L334 65 L339 56 L349 46 L351 45 L365 38 L377 38 L388 39 L399 42 L400 42 L410 51 L415 56 L416 58 L418 64 L420 68 L422 75 L424 81 L426 87 L429 98 L436 114 L438 133 L441 144 L443 155 L446 164 L448 171 L448 176 L450 182 L452 188 L454 195 L457 205 L460 215 L462 223 L476 239 L517 276 L544 297 L551 303 L552 303 L558 305 L561 305 L565 305 L570 305 L583 300 L587 292 L593 276 L596 267 L596 263 L590 242 L588 224 L590 218 L593 209 L594 196 L596 176 L603 154 L614 141 L620 133 L623 125 L627 121 L637 110 L644 103 L650 101 L654 98 L658 94 L660 90 L665 85 L670 82 L672 81 L672 78 L674 75 " fill="none" stroke="black" /></svg>