<?xml version="1.0" encoding="utf-8" ?>
<svg baseProfile="tiny" height="57" version="1.2" viewBox="-3 -3 174 57" width="174" xmlns="http://www.w3.org/2000/svg" xmlns:ev="http://www.w3.org/2001/xml-events" xmlns:xlink="http://www.w3.org/1999/xlink"><defs /><path d="M0 57 L0 56 L2 55 L11 54 L17 51 L19 50 L21 46 L25 41 L27 39 L27 36 L29 33 L30 30 L30 28 L30 27 L30 26 L28 24 L27 23 L26 20 L24 19 L21 17 L20 17 L19 17 L16 15 L12 13 L11 13 L10 13 L7 12 L6 11 L4 13 L4 14 L4 15 L4 18 L4 22 L4 24 L4 26 L4 27 L4 28 L4 30 L4 31 L4 32 L5 34 L6 34 L8 34 L10 34 L14 34 L16 34 L16 33 L15 32 L15 31 L15 30 L14 29 " fill="none" stroke="black" /><path d="M0 57 L0 56 L2 55 L11 54 L17 51 L19 50 L21 46 L25 41 L27 39 L27 36 L29 33 L30 30 L30 28 L30 27 L30 26 L28 24 L27 23 L26 20 L24 19 L21 17 L20 17 L19 17 L16 15 L12 13 L11 13 L10 13 L7 12 L6 11 L4 13 L4 14 L4 15 L4 18 L4 22 L4 24 L4 26 L4 27 L4 28 L4 30 L4 31 L4 32 L5 34 L6 34 L8 34 L10 34 L14 34 L16 34 L16 33 L15 32 L15 31 L15 30 L14 29 M70 50 L73 51 L77 52 L81 52 L85 52 L93 52 L98 52 L99 52 L99 51 L101 47 L103 44 L104 42 L106 40 L106 37 L106 34 L106 30 L106 28 L106 25 L105 21 L103 17 L102 15 L100 13 L99 12 L97 9 L96 9 L95 9 L94 9 L92 9 L91 9 L90 9 L88 13 L88 14 L88 15 L88 17 L88 18 L86 20 L86 21 L86 23 L86 24 L86 26 L86 27 L87 28 L88 30 L89 31 L91 32 L93 32 L93 31 L93 28 L94 28 " fill="none" stroke="black" /><path d="M0 57 L0 56 L2 55 L11 54 L17 51 L19 50 L21 46 L25 41 L27 39 L27 36 L29 33 L30 30 L30 28 L30 27 L30 26 L28 24 L27 23 L26 20 L24 19 L21 17 L20 17 L19 17 L16 15 L12 13 L11 13 L10 13 L7 12 L6 11 L4 13 L4 14 L4 15 L4 18 L4 22 L4 24 L4 26 L4 27 L4 28 L4 30 L4 31 L4 32 L5 34 L6 34 L8 34 L10 34 L14 34 L16 34 L16 33 L15 32 L15 31 L15 30 L14 29 M70 50 L73 51 L77 52 L81 52 L85 52 L93 52 L98 52 L99 52 L99 51 L101 47 L103 44 L104 42 L106 40 L106 37 L106 34 L106 30 L106 28 L106 25 L105 21 L103 17 L102 15 L100 13 L99 12 L97 9 L96 9 L95 9 L94 9 L92 9 L91 9 L90 9 L88 13 L88 14 L88 15 L88 17 L88 18 L86 20 L86 21 L86 23 L86 24 L86 26 L86 27 L87 28 L88 30 L89 31 L91 32 L93 32 L93 31 L93 28 L94 28 M137 49 L139 48 L144 48 L155 46 L163 45 L165 45 L166 44 L170 41 L172 39 L174 36 L174 33 L174 32 L174 29 L174 27 L174 24 L174 22 L172 20 L172 17 L170 13 L169 10 L167 8 L166 6 L164 4 L164 3 L161 1 L158 0 L157 0 L154 2 L152 3 L152 5 L152 6 L152 7 L152 8 L151 10 L151 12 L151 15 L151 17 L152 19 L152 20 L153 20 L155 21 L157 22 L158 23 L158 21 L158 20 L158 19 L158 18 L158 17 " fill="none" stroke="black" /></svg>