<?xml version="1.0" encoding="utf-8" ?>
<svg baseProfile="tiny" height="161" version="1.2" viewBox="-3 -3 133 161" width="133" xmlns="http://www.w3.org/2000/svg" xmlns:ev="http://www.w3.org/2001/xml-events" xmlns:xlink="http://www.w3.org/1999/xlink"><defs /><path d="M0 45 L2 56 L9 71 L11 78 L11 84 L12 91 L12 97 L13 102 L13 105 L13 111 L13 122 L13 127 L13 129 L12 132 L12 135 L12 138 L12 141 L12 146 L12 152 L12 155 L12 156 " fill="none" stroke="black" /><path d="M0 45 L2 56 L9 71 L11 78 L11 84 L12 91 L12 97 L13 102 L13 105 L13 111 L13 122 L13 127 L13 129 L12 132 L12 135 L12 138 L12 141 L12 146 L12 152 L12 155 L12 156 M28 4 L27 6 L27 16 L27 24 L27 28 L27 33 L27 36 L27 41 L27 51 L27 63 L28 73 L28 77 L28 81 L28 86 L28 94 L28 95 L28 99 L28 104 L28 107 L28 110 L28 115 L28 119 L28 121 L28 125 L29 133 L30 138 L30 141 L30 144 L31 147 L31 149 L31 150 " fill="none" stroke="black" /><path d="M0 45 L2 56 L9 71 L11 78 L11 84 L12 91 L12 97 L13 102 L13 105 L13 111 L13 122 L13 127 L13 129 L12 132 L12 135 L12 138 L12 141 L12 146 L12 152 L12 155 L12 156 M28 4 L27 6 L27 16 L27 24 L27 28 L27 33 L27 36 L27 41 L27 51 L27 63 L28 73 L28 77 L28 81 L28 86 L28 94 L28 95 L28 99 L28 104 L28 107 L28 110 L28 115 L28 119 L28 121 L28 125 L29 133 L30 138 L30 141 L30 144 L31 147 L31 149 L31 150 M53 0 L53 11 L53 19 L53 29 L53 41 L53 52 L53 62 L53 68 L53 71 L53 77 L53 85 L53 96 L53 103 L53 110 L53 115 L53 118 L54 121 L54 126 L54 131 L56 135 L56 141 L56 144 L56 146 L56 152 L56 159 L58 161 " fill="none" stroke="black" /><path d="M0 45 L2 56 L9 71 L11 78 L11 84 L12 91 L12 97 L13 102 L13 105 L13 111 L13 122 L13 127 L13 129 L12 132 L12 135 L12 138 L12 141 L12 146 L12 152 L12 155 L12 156 M28 4 L27 6 L27 16 L27 24 L27 28 L27 33 L27 36 L27 41 L27 51 L27 63 L28 73 L28 77 L28 81 L28 86 L28 94 L28 95 L28 99 L28 104 L28 107 L28 110 L28 115 L28 119 L28 121 L28 125 L29 133 L30 138 L30 141 L30 144 L31 147 L31 149 L31 150 M53 0 L53 11 L53 19 L53 29 L53 41 L53 52 L53 62 L53 68 L53 71 L53 77 L53 85 L53 96 L53 103 L53 110 L53 115 L53 118 L54 121 L54 126 L54 131 L56 135 L56 141 L56 144 L56 146 L56 152 L56 159 L58 161 M74 11 L74 16 L75 35 L77 46 L77 53 L77 66 L77 76 L77 86 L77 93 L77 96 L77 101 L77 105 L77 107 L76 112 L76 117 L76 122 L76 126 L76 130 L76 136 L76 139 L76 141 L76 142 L76 145 L76 147 L77 148 " fill="none" stroke="black" /><path d="M0 45 L2 56 L9 71 L11 78 L11 84 L12 91 L12 97 L13 102 L13 105 L13 111 L13 122 L13 127 L13 129 L12 132 L12 135 L12 138 L12 141 L12 146 L12 152 L12 155 L12 156 M28 4 L27 6 L27 16 L27 24 L27 28 L27 33 L27 36 L27 41 L27 51 L27 63 L28 73 L28 77 L28 81 L28 86 L28 94 L28 95 L28 99 L28 104 L28 107 L28 110 L28 115 L28 119 L28 121 L28 125 L29 133 L30 138 L30 141 L30 144 L31 147 L31 149 L31 150 M53 0 L53 11 L53 19 L53 29 L53 41 L53 52 L53 62 L53 68 L53 71 L53 77 L53 85 L53 96 L53 103 L53 110 L53 115 L53 118 L54 121 L54 126 L54 131 L56 135 L56 141 L56 144 L56 146 L56 152 L56 159 L58 161 M74 11 L74 16 L75 35 L77 46 L77 53 L77 66 L77 76 L77 86 L77 93 L77 96 L77 101 L77 105 L77 107 L76 112 L76 117 L76 122 L76 126 L76 130 L76 136 L76 139 L76 141 L76 142 L76 145 L76 147 L77 148 M99 11 L101 13 L101 16 L101 20 L102 25 L103 30 L105 40 L107 55 L109 66 L109 75 L109 86 L109 93 L109 96 L109 103 L108 111 L106 116 L106 120 L105 125 L104 133 L104 139 L104 143 L104 145 L104 147 L104 150 L104 151 " fill="none" stroke="black" /><path d="M0 45 L2 56 L9 71 L11 78 L11 84 L12 91 L12 97 L13 102 L13 105 L13 111 L13 122 L13 127 L13 129 L12 132 L12 135 L12 138 L12 141 L12 146 L12 152 L12 155 L12 156 M28 4 L27 6 L27 16 L27 24 L27 28 L27 33 L27 36 L27 41 L27 51 L27 63 L28 73 L28 77 L28 81 L28 86 L28 94 L28 95 L28 99 L28 104 L28 107 L28 110 L28 115 L28 119 L28 121 L28 125 L29 133 L30 138 L30 141 L30 144 L31 147 L31 149 L31 150 M53 0 L53 11 L53 19 L53 29 L53 41 L53 52 L53 62 L53 68 L53 71 L53 77 L53 85 L53 96 L53 103 L53 110 L53 115 L53 118 L54 121 L54 126 L54 131 L56 135 L56 141 L56 144 L56 146 L56 152 L56 159 L58 161 M74 11 L74 16 L75 35 L77 46 L77 53 L77 66 L77 76 L77 86 L77 93 L77 96 L77 101 L77 105 L77 107 L76 112 L76 117 L76 122 L76 126 L76 130 L76 136 L76 139 L76 141 L76 142 L76 145 L76 147 L77 148 M99 11 L101 13 L101 16 L101 20 L102 25 L103 30 L105 40 L107 55 L109 66 L109 75 L109 86 L109 93 L109 96 L109 103 L108 111 L106 116 L106 120 L105 125 L104 133 L104 139 L104 143 L104 145 L104 147 L104 150 L104 151 M133 5 L132 7 L131 13 L131 25 L131 36 L130 50 L130 64 L129 74 L127 82 L125 88 L124 98 L123 115 L123 126 L123 129 L123 132 L123 138 L123 143 L123 145 L124 146 L125 148 L127 149 L128 150 " fill="none" stroke="black" /></svg>