<?xml version="1.0" encoding="utf-8" ?>
<svg baseProfile="tiny" height="277" version="1.2" viewBox="-3 -3 216 277" width="216" xmlns="http://www.w3.org/2000/svg" xmlns:ev="http://www.w3.org/2001/xml-events" xmlns:xlink="http://www.w3.org/1999/xlink"><defs /><path d="M10 132 L11 132 L16 143 L17 147 L22 156 L23 157 L25 160 L27 167 L27 173 L27 177 L27 180 L27 181 L27 185 L26 186 L23 188 L18 190 L17 191 L14 193 L8 197 L5 199 L4 199 L4 200 L3 200 L0 201 " fill="none" stroke="black" /><path d="M10 132 L11 132 L16 143 L17 147 L22 156 L23 157 L25 160 L27 167 L27 173 L27 177 L27 180 L27 181 L27 185 L26 186 L23 188 L18 190 L17 191 L14 193 L8 197 L5 199 L4 199 L4 200 L3 200 L0 201 M35 123 L38 123 L41 125 L47 130 L51 138 L54 142 L56 146 L58 150 L59 155 L61 164 L64 173 L65 176 L65 179 L65 180 L64 181 L62 183 L59 184 L58 185 L57 185 L55 187 L54 187 L52 188 L50 189 " fill="none" stroke="black" /><path d="M10 132 L11 132 L16 143 L17 147 L22 156 L23 157 L25 160 L27 167 L27 173 L27 177 L27 180 L27 181 L27 185 L26 186 L23 188 L18 190 L17 191 L14 193 L8 197 L5 199 L4 199 L4 200 L3 200 L0 201 M35 123 L38 123 L41 125 L47 130 L51 138 L54 142 L56 146 L58 150 L59 155 L61 164 L64 173 L65 176 L65 179 L65 180 L64 181 L62 183 L59 184 L58 185 L57 185 L55 187 L54 187 L52 188 L50 189 M54 66 L59 66 L65 66 L74 71 L83 79 L93 87 L100 95 L104 102 L107 106 L114 120 L118 136 L121 148 L125 158 L125 167 L125 185 L125 195 L125 199 L125 204 L122 212 L119 218 L117 221 L116 224 L109 232 L107 235 L105 236 L103 240 L101 243 L101 244 L100 244 L98 247 L97 247 " fill="none" stroke="black" /><path d="M10 132 L11 132 L16 143 L17 147 L22 156 L23 157 L25 160 L27 167 L27 173 L27 177 L27 180 L27 181 L27 185 L26 186 L23 188 L18 190 L17 191 L14 193 L8 197 L5 199 L4 199 L4 200 L3 200 L0 201 M35 123 L38 123 L41 125 L47 130 L51 138 L54 142 L56 146 L58 150 L59 155 L61 164 L64 173 L65 176 L65 179 L65 180 L64 181 L62 183 L59 184 L58 185 L57 185 L55 187 L54 187 L52 188 L50 189 M54 66 L59 66 L65 66 L74 71 L83 79 L93 87 L100 95 L104 102 L107 106 L114 120 L118 136 L121 148 L125 158 L125 167 L125 185 L125 195 L125 199 L125 204 L122 212 L119 218 L117 221 L116 224 L109 232 L107 235 L105 236 L103 240 L101 243 L101 244 L100 244 L98 247 L97 247 M74 16 L81 18 L101 31 L110 35 L118 40 L133 55 L155 82 L167 98 L175 108 L178 122 L178 144 L177 170 L176 186 L176 192 L176 197 L172 208 L168 218 L164 225 L162 232 L160 239 L157 247 L156 252 L154 253 L153 254 L151 255 L150 256 L149 257 L147 258 L146 259 L146 260 L144 261 L144 262 L143 263 L143 264 " fill="none" stroke="black" /><path d="M10 132 L11 132 L16 143 L17 147 L22 156 L23 157 L25 160 L27 167 L27 173 L27 177 L27 180 L27 181 L27 185 L26 186 L23 188 L18 190 L17 191 L14 193 L8 197 L5 199 L4 199 L4 200 L3 200 L0 201 M35 123 L38 123 L41 125 L47 130 L51 138 L54 142 L56 146 L58 150 L59 155 L61 164 L64 173 L65 176 L65 179 L65 180 L64 181 L62 183 L59 184 L58 185 L57 185 L55 187 L54 187 L52 188 L50 189 M54 66 L59 66 L65 66 L74 71 L83 79 L93 87 L100 95 L104 102 L107 106 L114 120 L118 136 L121 148 L125 158 L125 167 L125 185 L125 195 L125 199 L125 204 L122 212 L119 218 L117 221 L116 224 L109 232 L107 235 L105 236 L103 240 L101 243 L101 244 L100 244 L98 247 L97 247 M74 16 L81 18 L101 31 L110 35 L118 40 L133 55 L155 82 L167 98 L175 108 L178 122 L178 144 L177 170 L176 186 L176 192 L176 197 L172 208 L168 218 L164 225 L162 232 L160 239 L157 247 L156 252 L154 253 L153 254 L151 255 L150 256 L149 257 L147 258 L146 259 L146 260 L144 261 L144 262 L143 263 L143 264 M131 0 L136 0 L137 0 L144 4 L149 8 L160 20 L169 35 L173 42 L177 50 L183 62 L194 90 L200 112 L205 129 L208 142 L214 168 L216 181 L216 183 L216 188 L216 198 L216 209 L216 215 L215 223 L212 233 L207 244 L206 247 L205 251 L204 255 L203 259 L202 263 L199 266 L198 268 L197 270 L197 271 L196 271 L194 274 L193 275 L192 277 " fill="none" stroke="black" /></svg>