<?xml version="1.0" encoding="utf-8" ?>
<svg baseProfile="tiny" height="114" version="1.2" viewBox="-3 -3 165 114" width="165" xmlns="http://www.w3.org/2000/svg" xmlns:ev="http://www.w3.org/2001/xml-events" xmlns:xlink="http://www.w3.org/1999/xlink"><defs /><path d="M0 39 L0 40 L3 50 L7 69 L8 70 L9 81 L10 87 L11 86 L11 81 L11 76 L11 74 L12 71 L14 66 L14 57 L14 50 L14 45 L16 36 L18 28 L18 24 L20 22 L21 28 L26 47 L34 71 L37 80 L39 83 L39 85 L39 90 L40 92 L42 87 L42 79 L42 64 L42 57 L42 50 L46 43 L46 42 L46 36 L46 35 L46 24 L46 19 L47 32 L54 81 L59 100 L61 107 L63 113 L65 114 L68 79 L71 27 L75 4 L76 1 L77 0 L79 37 L81 81 L82 99 L84 104 L84 105 L84 106 L84 92 L84 70 L82 61 L81 41 L81 26 L81 17 L81 16 L81 25 L87 65 L87 87 L89 91 L89 90 L89 62 L89 43 L89 30 L89 24 L91 25 L92 52 L94 77 L94 83 L94 84 L96 65 L100 49 L102 43 L102 36 L102 24 L102 22 L107 43 L108 69 L111 83 L112 87 L114 76 L115 46 L117 23 L117 14 L118 19 L120 47 L123 75 L124 84 L125 86 L125 65 L126 28 L128 17 L128 14 L128 19 L128 53 L128 64 L128 67 L128 69 L129 55 L136 33 L137 27 L138 26 L140 54 L140 62 L140 64 L140 50 L146 19 L146 10 L146 9 L146 10 L146 41 L146 73 L146 81 L146 83 L146 70 L146 36 L148 32 L148 31 L148 34 L148 63 L148 80 L148 81 L148 70 L151 37 L151 30 L152 29 L156 47 L157 63 L159 63 L159 41 L159 25 L159 24 L159 31 L159 54 L159 71 L159 74 L159 56 L159 53 L160 64 L163 75 L164 75 L165 75 " fill="none" stroke="black" /></svg>