<?xml version="1.0" encoding="utf-8" ?>
<svg baseProfile="tiny" height="176" version="1.2" viewBox="-3 -3 159 176" width="159" xmlns="http://www.w3.org/2000/svg" xmlns:ev="http://www.w3.org/2001/xml-events" xmlns:xlink="http://www.w3.org/1999/xlink"><defs /><path d="M126 15 L124 17 L122 20 L120 26 L116 30 L114 33 L110 40 L107 51 L106 57 L106 59 L105 61 L105 65 L105 71 L107 75 L109 78 L113 83 L114 85 L115 85 L115 87 L116 89 L118 90 L118 91 L121 93 L125 95 L127 97 L132 97 L137 100 L139 100 L140 101 L142 101 L144 101 " fill="none" stroke="black" /><path d="M126 15 L124 17 L122 20 L120 26 L116 30 L114 33 L110 40 L107 51 L106 57 L106 59 L105 61 L105 65 L105 71 L107 75 L109 78 L113 83 L114 85 L115 85 L115 87 L116 89 L118 90 L118 91 L121 93 L125 95 L127 97 L132 97 L137 100 L139 100 L140 101 L142 101 L144 101 M124 97 L123 97 L122 97 L121 97 L119 97 L118 97 L118 98 L117 99 L117 101 L117 102 L117 103 L117 105 L117 107 L117 109 L117 112 L117 113 L117 114 L117 115 L117 118 L117 121 L117 123 L117 124 L117 125 L117 126 L117 131 L117 133 L117 134 L117 135 L117 137 L119 138 L120 140 L122 141 L123 142 L125 144 L127 146 L127 147 L128 149 L129 151 L131 154 L131 155 L134 157 L134 158 L136 159 L136 161 L137 161 L138 162 L140 164 L141 166 L142 167 L144 169 L144 170 L145 171 L146 171 L147 172 L149 173 L150 174 L151 174 L152 175 L153 175 L155 176 L157 176 L158 176 L159 176 " fill="none" stroke="black" /><path d="M126 15 L124 17 L122 20 L120 26 L116 30 L114 33 L110 40 L107 51 L106 57 L106 59 L105 61 L105 65 L105 71 L107 75 L109 78 L113 83 L114 85 L115 85 L115 87 L116 89 L118 90 L118 91 L121 93 L125 95 L127 97 L132 97 L137 100 L139 100 L140 101 L142 101 L144 101 M124 97 L123 97 L122 97 L121 97 L119 97 L118 97 L118 98 L117 99 L117 101 L117 102 L117 103 L117 105 L117 107 L117 109 L117 112 L117 113 L117 114 L117 115 L117 118 L117 121 L117 123 L117 124 L117 125 L117 126 L117 131 L117 133 L117 134 L117 135 L117 137 L119 138 L120 140 L122 141 L123 142 L125 144 L127 146 L127 147 L128 149 L129 151 L131 154 L131 155 L134 157 L134 158 L136 159 L136 161 L137 161 L138 162 L140 164 L141 166 L142 167 L144 169 L144 170 L145 171 L146 171 L147 172 L149 173 L150 174 L151 174 L152 175 L153 175 L155 176 L157 176 L158 176 L159 176 M47 96 L48 95 L49 95 L51 91 L51 86 L52 82 L53 77 L53 72 L53 68 L53 66 L53 59 L53 54 L53 48 L51 46 L51 44 L49 41 L49 38 L47 35 L46 33 L44 28 L41 22 L36 10 L32 2 L31 1 L31 0 L30 0 L29 0 L27 0 L21 0 L18 0 L15 0 L3 0 L0 0 " fill="none" stroke="black" /><path d="M126 15 L124 17 L122 20 L120 26 L116 30 L114 33 L110 40 L107 51 L106 57 L106 59 L105 61 L105 65 L105 71 L107 75 L109 78 L113 83 L114 85 L115 85 L115 87 L116 89 L118 90 L118 91 L121 93 L125 95 L127 97 L132 97 L137 100 L139 100 L140 101 L142 101 L144 101 M124 97 L123 97 L122 97 L121 97 L119 97 L118 97 L118 98 L117 99 L117 101 L117 102 L117 103 L117 105 L117 107 L117 109 L117 112 L117 113 L117 114 L117 115 L117 118 L117 121 L117 123 L117 124 L117 125 L117 126 L117 131 L117 133 L117 134 L117 135 L117 137 L119 138 L120 140 L122 141 L123 142 L125 144 L127 146 L127 147 L128 149 L129 151 L131 154 L131 155 L134 157 L134 158 L136 159 L136 161 L137 161 L138 162 L140 164 L141 166 L142 167 L144 169 L144 170 L145 171 L146 171 L147 172 L149 173 L150 174 L151 174 L152 175 L153 175 L155 176 L157 176 L158 176 L159 176 M47 96 L48 95 L49 95 L51 91 L51 86 L52 82 L53 77 L53 72 L53 68 L53 66 L53 59 L53 54 L53 48 L51 46 L51 44 L49 41 L49 38 L47 35 L46 33 L44 28 L41 22 L36 10 L32 2 L31 1 L31 0 L30 0 L29 0 L27 0 L21 0 L18 0 L15 0 L3 0 L0 0 M48 88 L49 88 L50 88 L53 92 L57 98 L57 100 L59 105 L61 114 L61 118 L61 120 L61 122 L61 124 L60 126 L58 128 L57 128 L55 130 L52 139 L51 140 L50 141 L48 142 L47 142 L46 143 L45 143 " fill="none" stroke="black" /></svg>