<?xml version="1.0" encoding="utf-8" ?>
<svg baseProfile="tiny" height="24" version="1.2" viewBox="-3 -3 331 24" width="331" xmlns="http://www.w3.org/2000/svg" xmlns:ev="http://www.w3.org/2001/xml-events" xmlns:xlink="http://www.w3.org/1999/xlink"><defs /><path d="M0 6 L1 5 L4 5 L6 5 L8 5 L11 5 L14 5 L20 7 L20 8 L21 10 L21 14 L21 15 L21 16 L21 17 L22 19 " fill="none" stroke="black" /><path d="M0 6 L1 5 L4 5 L6 5 L8 5 L11 5 L14 5 L20 7 L20 8 L21 10 L21 14 L21 15 L21 16 L21 17 L22 19 M23 13 L23 12 L24 12 L24 11 L26 11 L28 9 L30 7 L33 5 L35 4 L36 3 L39 3 L49 3 L52 4 L54 4 L58 6 L62 9 L63 9 L65 11 L68 13 L69 13 L70 14 L71 16 L71 17 L71 18 " fill="none" stroke="black" /><path d="M0 6 L1 5 L4 5 L6 5 L8 5 L11 5 L14 5 L20 7 L20 8 L21 10 L21 14 L21 15 L21 16 L21 17 L22 19 M23 13 L23 12 L24 12 L24 11 L26 11 L28 9 L30 7 L33 5 L35 4 L36 3 L39 3 L49 3 L52 4 L54 4 L58 6 L62 9 L63 9 L65 11 L68 13 L69 13 L70 14 L71 16 L71 17 L71 18 M69 11 L70 11 L72 10 L72 9 L72 8 L76 5 L78 4 L85 4 L86 4 L97 5 L100 5 L101 7 L104 9 L107 11 L110 14 L111 15 L112 19 " fill="none" stroke="black" /><path d="M0 6 L1 5 L4 5 L6 5 L8 5 L11 5 L14 5 L20 7 L20 8 L21 10 L21 14 L21 15 L21 16 L21 17 L22 19 M23 13 L23 12 L24 12 L24 11 L26 11 L28 9 L30 7 L33 5 L35 4 L36 3 L39 3 L49 3 L52 4 L54 4 L58 6 L62 9 L63 9 L65 11 L68 13 L69 13 L70 14 L71 16 L71 17 L71 18 M69 11 L70 11 L72 10 L72 9 L72 8 L76 5 L78 4 L85 4 L86 4 L97 5 L100 5 L101 7 L104 9 L107 11 L110 14 L111 15 L112 19 M110 12 L110 10 L111 7 L111 5 L112 4 L114 2 L116 1 L117 1 L118 1 L121 0 L122 0 L125 0 L128 0 L130 1 L136 1 L138 1 L139 1 L141 3 L144 4 L148 6 L150 6 L151 7 L152 7 L153 8 L155 10 L156 11 L158 13 " fill="none" stroke="black" /><path d="M0 6 L1 5 L4 5 L6 5 L8 5 L11 5 L14 5 L20 7 L20 8 L21 10 L21 14 L21 15 L21 16 L21 17 L22 19 M23 13 L23 12 L24 12 L24 11 L26 11 L28 9 L30 7 L33 5 L35 4 L36 3 L39 3 L49 3 L52 4 L54 4 L58 6 L62 9 L63 9 L65 11 L68 13 L69 13 L70 14 L71 16 L71 17 L71 18 M69 11 L70 11 L72 10 L72 9 L72 8 L76 5 L78 4 L85 4 L86 4 L97 5 L100 5 L101 7 L104 9 L107 11 L110 14 L111 15 L112 19 M110 12 L110 10 L111 7 L111 5 L112 4 L114 2 L116 1 L117 1 L118 1 L121 0 L122 0 L125 0 L128 0 L130 1 L136 1 L138 1 L139 1 L141 3 L144 4 L148 6 L150 6 L151 7 L152 7 L153 8 L155 10 L156 11 L158 13 M157 7 L157 6 L159 5 L159 4 L164 2 L165 2 L167 2 L176 2 L180 2 L181 2 L183 2 L186 2 L200 7 L208 9 L209 9 L209 10 L211 13 L213 16 L215 19 " fill="none" stroke="black" /><path d="M0 6 L1 5 L4 5 L6 5 L8 5 L11 5 L14 5 L20 7 L20 8 L21 10 L21 14 L21 15 L21 16 L21 17 L22 19 M23 13 L23 12 L24 12 L24 11 L26 11 L28 9 L30 7 L33 5 L35 4 L36 3 L39 3 L49 3 L52 4 L54 4 L58 6 L62 9 L63 9 L65 11 L68 13 L69 13 L70 14 L71 16 L71 17 L71 18 M69 11 L70 11 L72 10 L72 9 L72 8 L76 5 L78 4 L85 4 L86 4 L97 5 L100 5 L101 7 L104 9 L107 11 L110 14 L111 15 L112 19 M110 12 L110 10 L111 7 L111 5 L112 4 L114 2 L116 1 L117 1 L118 1 L121 0 L122 0 L125 0 L128 0 L130 1 L136 1 L138 1 L139 1 L141 3 L144 4 L148 6 L150 6 L151 7 L152 7 L153 8 L155 10 L156 11 L158 13 M157 7 L157 6 L159 5 L159 4 L164 2 L165 2 L167 2 L176 2 L180 2 L181 2 L183 2 L186 2 L200 7 L208 9 L209 9 L209 10 L211 13 L213 16 L215 19 M212 9 L212 8 L214 7 L218 4 L220 3 L222 2 L229 2 L230 2 L232 2 L237 2 L241 3 L243 5 L248 7 L252 10 L255 14 L256 15 " fill="none" stroke="black" /><path d="M0 6 L1 5 L4 5 L6 5 L8 5 L11 5 L14 5 L20 7 L20 8 L21 10 L21 14 L21 15 L21 16 L21 17 L22 19 M23 13 L23 12 L24 12 L24 11 L26 11 L28 9 L30 7 L33 5 L35 4 L36 3 L39 3 L49 3 L52 4 L54 4 L58 6 L62 9 L63 9 L65 11 L68 13 L69 13 L70 14 L71 16 L71 17 L71 18 M69 11 L70 11 L72 10 L72 9 L72 8 L76 5 L78 4 L85 4 L86 4 L97 5 L100 5 L101 7 L104 9 L107 11 L110 14 L111 15 L112 19 M110 12 L110 10 L111 7 L111 5 L112 4 L114 2 L116 1 L117 1 L118 1 L121 0 L122 0 L125 0 L128 0 L130 1 L136 1 L138 1 L139 1 L141 3 L144 4 L148 6 L150 6 L151 7 L152 7 L153 8 L155 10 L156 11 L158 13 M157 7 L157 6 L159 5 L159 4 L164 2 L165 2 L167 2 L176 2 L180 2 L181 2 L183 2 L186 2 L200 7 L208 9 L209 9 L209 10 L211 13 L213 16 L215 19 M212 9 L212 8 L214 7 L218 4 L220 3 L222 2 L229 2 L230 2 L232 2 L237 2 L241 3 L243 5 L248 7 L252 10 L255 14 L256 15 M254 10 L254 8 L254 6 L254 5 L254 4 L254 2 L258 2 L266 2 L267 2 L268 2 L269 2 L272 3 L276 8 L277 9 L278 11 L287 21 L289 24 " fill="none" stroke="black" /><path d="M0 6 L1 5 L4 5 L6 5 L8 5 L11 5 L14 5 L20 7 L20 8 L21 10 L21 14 L21 15 L21 16 L21 17 L22 19 M23 13 L23 12 L24 12 L24 11 L26 11 L28 9 L30 7 L33 5 L35 4 L36 3 L39 3 L49 3 L52 4 L54 4 L58 6 L62 9 L63 9 L65 11 L68 13 L69 13 L70 14 L71 16 L71 17 L71 18 M69 11 L70 11 L72 10 L72 9 L72 8 L76 5 L78 4 L85 4 L86 4 L97 5 L100 5 L101 7 L104 9 L107 11 L110 14 L111 15 L112 19 M110 12 L110 10 L111 7 L111 5 L112 4 L114 2 L116 1 L117 1 L118 1 L121 0 L122 0 L125 0 L128 0 L130 1 L136 1 L138 1 L139 1 L141 3 L144 4 L148 6 L150 6 L151 7 L152 7 L153 8 L155 10 L156 11 L158 13 M157 7 L157 6 L159 5 L159 4 L164 2 L165 2 L167 2 L176 2 L180 2 L181 2 L183 2 L186 2 L200 7 L208 9 L209 9 L209 10 L211 13 L213 16 L215 19 M212 9 L212 8 L214 7 L218 4 L220 3 L222 2 L229 2 L230 2 L232 2 L237 2 L241 3 L243 5 L248 7 L252 10 L255 14 L256 15 M254 10 L254 8 L254 6 L254 5 L254 4 L254 2 L258 2 L266 2 L267 2 L268 2 L269 2 L272 3 L276 8 L277 9 L278 11 L287 21 L289 24 M280 7 L282 7 L294 6 L303 3 L309 1 L313 1 L317 3 L321 3 L321 4 L323 6 L324 7 L327 10 L328 11 L331 13 " fill="none" stroke="black" /></svg>