<?xml version="1.0" encoding="utf-8" ?>
<svg baseProfile="tiny" height="14" version="1.2" viewBox="-3 -3 893 14" width="893" xmlns="http://www.w3.org/2000/svg" xmlns:ev="http://www.w3.org/2001/xml-events" xmlns:xlink="http://www.w3.org/1999/xlink"><defs /><path d="M0 14 L1 14 L7 14 L15 14 L22 14 L25 14 L31 14 L37 14 L42 14 L46 14 L51 14 L56 14 L66 14 L71 14 L75 14 L81 14 L86 14 L93 14 L108 14 L125 14 L133 14 L145 14 L159 14 L171 14 L178 14 L180 14 L184 14 L189 14 L198 14 L205 13 L213 13 L218 13 L224 13 L228 13 L235 13 L241 12 L245 12 L255 12 L269 12 L277 12 L280 12 L291 12 L299 12 L308 12 L311 12 L324 12 L334 12 L339 12 L345 12 L349 12 L359 12 L376 12 L391 12 L397 12 L403 12 L414 12 L426 11 L433 11 L437 10 L441 10 L442 10 L451 10 L465 9 L468 9 L484 9 L494 9 L498 9 L501 9 L507 9 L509 9 L513 9 L517 9 L521 9 L533 9 L543 11 L546 11 L550 11 L557 12 L567 12 L569 12 L574 12 L579 12 L582 12 L585 12 L592 12 L594 12 L595 12 L603 12 L608 12 L611 12 L620 11 L621 11 L623 11 L628 11 L630 11 " fill="none" stroke="black" /><path d="M0 14 L1 14 L7 14 L15 14 L22 14 L25 14 L31 14 L37 14 L42 14 L46 14 L51 14 L56 14 L66 14 L71 14 L75 14 L81 14 L86 14 L93 14 L108 14 L125 14 L133 14 L145 14 L159 14 L171 14 L178 14 L180 14 L184 14 L189 14 L198 14 L205 13 L213 13 L218 13 L224 13 L228 13 L235 13 L241 12 L245 12 L255 12 L269 12 L277 12 L280 12 L291 12 L299 12 L308 12 L311 12 L324 12 L334 12 L339 12 L345 12 L349 12 L359 12 L376 12 L391 12 L397 12 L403 12 L414 12 L426 11 L433 11 L437 10 L441 10 L442 10 L451 10 L465 9 L468 9 L484 9 L494 9 L498 9 L501 9 L507 9 L509 9 L513 9 L517 9 L521 9 L533 9 L543 11 L546 11 L550 11 L557 12 L567 12 L569 12 L574 12 L579 12 L582 12 L585 12 L592 12 L594 12 L595 12 L603 12 L608 12 L611 12 L620 11 L621 11 L623 11 L628 11 L630 11 M629 12 L631 12 L639 12 L659 12 L666 12 L675 11 L694 10 L705 10 L708 10 L717 7 L727 6 L732 5 L745 5 L755 4 L756 4 L770 4 L776 2 L778 2 L788 2 L789 2 L795 1 L807 1 L810 0 L817 0 L827 0 L828 0 L829 0 L838 0 L842 0 L843 0 L847 0 L850 0 L853 0 L854 0 L859 0 L860 0 L862 0 L866 0 L872 0 L874 0 L877 0 L882 0 L885 0 L892 0 L893 0 " fill="none" stroke="black" /></svg>