<?xml version="1.0" encoding="utf-8" ?>
<svg baseProfile="tiny" height="123" version="1.2" viewBox="-3 -3 161 123" width="161" xmlns="http://www.w3.org/2000/svg" xmlns:ev="http://www.w3.org/2001/xml-events" xmlns:xlink="http://www.w3.org/1999/xlink"><defs /><path d="M62 94 L56 105 L43 114 L28 115 L20 113 L13 103 L14 96 L19 89 L27 80 L35 72 L40 65 L52 44 L56 28 L57 24 L57 23 L48 17 L41 15 L34 14 L25 14 L23 14 L23 15 L25 20 L30 29 L48 45 L67 57 L87 66 L97 70 L100 75 L103 84 L103 96 L101 104 L97 108 L95 111 L94 111 L85 114 L84 114 L83 114 L80 114 L81 109 L96 94 L108 81 L113 71 L120 58 L121 49 L121 41 L117 37 L109 33 L105 31 L102 30 L95 30 L90 34 L87 38 L86 43 L86 46 L89 51 L96 58 L100 61 L113 66 L129 75 L135 82 L138 95 L136 108 L125 118 L114 123 L88 123 L49 113 L37 107 L24 97 L13 81 L9 67 L11 50 L22 34 L37 22 L69 16 L100 17 L120 21 L133 26 L146 35 L152 43 L154 53 L149 65 L135 78 L116 87 L104 92 L91 93 L77 90 L69 79 L63 68 L63 62 L66 57 L67 56 L69 56 L75 58 L86 62 L114 63 L124 63 L126 61 L131 55 L133 50 L134 46 L134 40 L130 34 L123 23 L101 12 L78 6 L65 5 L54 15 L53 39 L64 60 L73 69 L81 79 L88 89 L91 101 L90 108 L84 113 L73 117 L52 114 L34 107 L20 95 L6 79 L1 65 L0 50 L2 40 L5 33 L11 25 L17 20 L26 18 L37 16 L53 17 L99 26 L122 31 L135 33 L148 33 L158 30 L160 29 L161 23 L157 13 L139 2 L122 0 L91 7 L77 19 L77 39 L88 59 L106 73 L109 81 L111 94 L109 103 L101 108 L100 110 L99 110 " fill="none" stroke="black" /></svg>