<?xml version="1.0" encoding="utf-8" ?>
<svg baseProfile="tiny" height="309" version="1.2" viewBox="-3 -3 363 309" width="363" xmlns="http://www.w3.org/2000/svg" xmlns:ev="http://www.w3.org/2001/xml-events" xmlns:xlink="http://www.w3.org/1999/xlink"><defs /><path d="M80 253 L82 249 L97 226 L110 204 L120 184 L129 164 L134 150 L139 136 L143 127 L146 115 L149 103 L152 92 L154 83 L154 82 L156 84 L156 86 L157 86 L166 104 L181 130 L185 145 L192 168 L196 186 L196 192 L193 206 L182 221 L169 225 L146 218 L123 203 L111 189 L105 178 L104 169 L104 166 L119 160 L156 154 L187 153 L227 152 L279 147 L304 142 L313 134 L320 121 L316 104 L293 81 L264 63 L260 62 L251 81 L248 121 L260 160 L277 192 L277 206 L276 234 L266 264 L243 278 L222 275 L199 253 L190 233 L190 220 L200 211 L233 198 L287 185 L325 168 L353 144 L360 125 L353 110 L321 80 L241 39 L169 24 L130 27 L101 38 L71 59 L66 71 L66 83 L82 93 L119 102 L187 119 L259 134 L278 141 L294 156 L308 177 L311 187 L314 195 L314 200 L312 206 L308 212 L307 212 L307 206 L307 194 L304 183 L289 150 L268 114 L258 81 L252 40 L250 31 L249 26 L247 22 L244 13 L236 1 L236 0 L232 9 L213 91 L205 162 L204 224 L201 275 L198 301 L197 307 L197 309 L196 309 L193 307 L159 290 L101 266 L56 247 L28 229 L8 219 L3 216 L0 216 L0 215 L33 213 L99 216 L160 218 L219 219 L261 219 L266 219 L281 218 L294 218 L305 218 L325 209 L347 190 L363 154 L356 129 L329 108 L287 80 L244 55 L242 54 L238 52 L223 48 L183 37 L151 30 L148 29 L147 29 L146 38 L158 88 L193 151 L239 201 L266 228 L292 254 L303 266 L304 269 " fill="none" stroke="black" /></svg>