<?xml version="1.0" encoding="utf-8" ?>
<svg baseProfile="tiny" height="165" version="1.2" viewBox="-3 -3 361 165" width="361" xmlns="http://www.w3.org/2000/svg" xmlns:ev="http://www.w3.org/2001/xml-events" xmlns:xlink="http://www.w3.org/1999/xlink"><defs /><path d="M53 69 L57 84 L61 97 L68 111 L88 134 L109 144 L118 141 L141 126 L159 109 L162 94 L162 75 L162 63 L162 57 L162 52 L162 46 L163 39 L164 35 L164 34 L175 33 L180 31 L181 31 L185 31 L187 33 L193 40 L199 51 L205 62 L210 72 L223 88 L238 102 L249 108 L266 112 L285 111 L303 105 L319 95 L328 85 L334 69 L338 59 L340 56 L342 51 L342 49 L343 40 L345 24 L345 16 L345 12 L345 8 L346 12 L350 27 L354 44 L356 55 L357 63 L357 77 L358 90 L359 99 L361 109 L360 120 L358 130 L354 135 L346 138 L331 141 L309 141 L286 140 L269 137 L257 134 L245 128 L232 119 L223 112 L218 109 L214 105 L206 102 L197 101 L186 105 L174 114 L166 124 L161 131 L156 138 L150 144 L141 151 L131 159 L119 164 L106 165 L95 165 L77 163 L62 159 L55 154 L44 143 L36 132 L29 117 L22 103 L18 94 L12 88 L9 85 L7 84 L6 82 L5 82 L5 81 L5 80 L5 79 L4 79 L3 75 L1 63 L0 54 L0 52 L0 48 L2 38 L3 34 L5 32 L6 30 L10 25 L14 20 L22 11 L28 4 L32 2 L35 0 L37 0 L38 0 L40 1 L45 6 L47 8 L49 11 L52 16 L53 17 L55 20 L56 24 L57 26 L59 28 L59 30 L61 32 L62 34 L63 36 L64 37 L65 38 L67 40 L68 41 L69 41 L70 42 L74 44 L76 46 L79 48 L80 49 L80 50 L81 52 L82 55 L82 59 L82 61 L81 67 L78 74 L73 84 L68 93 L64 101 L61 107 " fill="none" stroke="black" /></svg>