<?xml version="1.0" encoding="utf-8" ?>
<svg baseProfile="tiny" height="156" version="1.2" viewBox="-3 -3 307 156" width="307" xmlns="http://www.w3.org/2000/svg" xmlns:ev="http://www.w3.org/2001/xml-events" xmlns:xlink="http://www.w3.org/1999/xlink"><defs /><path d="M113 56 L113 40 L115 31 L115 30 L114 26 L109 14 L103 9 L104 9 L114 14 L126 25 L137 41 L139 49 L138 59 L131 73 L124 84 L119 97 L117 107 L114 113 L102 122 L91 125 L83 125 L67 125 L61 124 L60 124 L88 128 L141 131 L169 130 L170 117 L169 99 L158 76 L151 49 L147 37 L147 33 L147 26 L147 19 L147 18 L147 17 L156 26 L176 46 L189 65 L190 84 L192 103 L192 115 L190 125 L184 132 L173 139 L167 141 L159 144 L155 145 L155 146 L161 144 L177 133 L186 124 L188 115 L188 99 L187 81 L191 61 L191 49 L192 37 L193 21 L192 16 L194 15 L212 24 L226 38 L233 53 L238 69 L237 83 L236 101 L234 113 L229 124 L220 136 L214 145 L206 151 L201 155 L201 156 L200 156 L201 156 L217 149 L259 126 L276 89 L277 40 L275 32 L273 28 L272 27 L271 25 L266 23 L250 15 L246 13 L240 6 L239 6 L239 7 L257 21 L278 38 L296 57 L306 76 L307 94 L300 110 L291 122 L279 130 L266 139 L249 149 L209 154 L182 154 L165 152 L124 146 L102 145 L75 144 L51 140 L26 134 L16 130 L11 125 L7 111 L8 98 L14 81 L20 65 L25 50 L28 35 L30 28 L31 25 L38 21 L55 14 L58 13 L58 12 L53 14 L28 22 L12 30 L10 35 L6 43 L3 56 L2 65 L0 72 L0 77 L0 82 L1 81 L5 70 L10 51 L15 38 L22 27 L31 19 L42 11 L50 6 L58 2 L62 1 L64 1 L72 0 L80 0 L85 0 L97 1 L108 2 L109 2 " fill="none" stroke="black" /></svg>