<?xml version="1.0" encoding="utf-8" ?>
<svg baseProfile="tiny" height="314" version="1.2" viewBox="-3 -3 365 314" width="365" xmlns="http://www.w3.org/2000/svg" xmlns:ev="http://www.w3.org/2001/xml-events" xmlns:xlink="http://www.w3.org/1999/xlink"><defs /><path d="M215 127 L214 137 L214 145 L214 154 L214 162 L214 169 L214 175 L214 185 L215 198 L218 212 L221 224 L224 235 L227 244 L230 253 L233 261 L236 271 L239 279 L242 285 L246 293 L248 297 L250 301 L251 305 L251 307 L251 309 L251 310 L252 310 L252 311 L252 313 L252 314 L247 305 L241 292 L235 278 L226 255 L218 238 L213 226 L208 217 L202 209 L196 199 L186 187 L180 180 L174 176 L165 172 L152 169 L132 164 L110 161 L95 161 L84 161 L69 160 L52 159 L38 159 L29 159 L16 159 L8 159 L5 153 L1 139 L0 122 L0 112 L0 108 L0 103 L1 103 L8 103 L22 104 L37 107 L56 109 L78 111 L95 111 L109 111 L120 111 L137 104 L156 92 L172 77 L184 59 L194 42 L204 27 L214 17 L223 9 L230 4 L235 0 L236 0 L236 7 L227 27 L216 51 L212 63 L212 71 L212 85 L212 98 L214 112 L216 122 L217 133 L217 150 L217 162 L217 169 L215 177 L215 183 L215 187 L215 193 L215 198 L215 200 L215 203 L215 206 L216 208 L218 210 L220 212 L221 214 L223 214 L233 202 L235 181 L239 162 L243 140 L246 124 L247 115 L249 107 L249 103 L249 110 L248 135 L249 162 L251 178 L252 191 L254 206 L255 219 L258 231 L258 233 L260 232 L274 206 L286 176 L288 148 L289 134 L290 120 L290 113 L290 122 L289 156 L288 196 L288 228 L290 252 L291 260 L292 261 L296 254 L316 219 L339 172 L348 143 L356 118 L362 103 L365 98 L365 102 L361 136 L358 182 L358 213 L357 230 L357 236 L357 237 " fill="none" stroke="black" /></svg>