<?xml version="1.0" encoding="utf-8" ?>
<svg baseProfile="tiny" height="215" version="1.2" viewBox="-3 -3 355 215" width="355" xmlns="http://www.w3.org/2000/svg" xmlns:ev="http://www.w3.org/2001/xml-events" xmlns:xlink="http://www.w3.org/1999/xlink"><defs /><path d="M105 106 L107 108 L112 108 L120 107 L126 107 L127 107 L128 107 L129 113 L132 116 L137 117 L153 115 L164 113 L166 115 L167 121 L175 123 L192 122 L205 119 L206 121 L208 126 L209 127 L223 127 L258 126 L269 126 L272 132 L274 146 L270 159 L253 165 L222 165 L186 164 L159 160 L139 156 L128 151 L119 145 L104 138 L80 132 L50 125 L32 120 L24 112 L16 93 L16 64 L35 32 L81 12 L115 2 L135 0 L169 1 L201 4 L230 12 L263 20 L269 23 L275 28 L285 38 L286 51 L278 66 L272 79 L265 84 L255 91 L238 98 L216 107 L204 113 L200 115 L198 120 L196 131 L197 137 L198 137 L201 138 L228 140 L255 140 L260 140 L261 140 L265 146 L269 152 L276 155 L301 155 L315 154 L316 154 L317 154 L321 159 L324 161 L332 161 L340 161 L340 162 L346 162 L351 162 L352 162 L353 167 L354 173 L355 176 L355 177 L345 186 L324 198 L323 199 L322 197 L315 198 L307 200 L306 199 L298 201 L292 203 L289 203 L262 206 L236 210 L235 210 L235 207 L235 206 L232 206 L216 211 L208 213 L207 213 L203 208 L202 205 L201 205 L192 210 L184 215 L180 209 L173 202 L168 201 L155 209 L149 211 L148 211 L143 204 L141 201 L140 201 L130 206 L125 208 L124 207 L123 204 L121 204 L112 208 L109 208 L108 208 L105 199 L98 190 L93 191 L82 195 L81 196 L77 190 L70 184 L65 184 L49 189 L40 193 L39 193 L35 196 L33 197 L28 200 L15 203 L14 203 L13 203 L8 197 L2 188 L1 187 L0 187 " fill="none" stroke="black" /></svg>