<?xml version="1.0" encoding="utf-8" ?>
<svg baseProfile="tiny" height="218" version="1.2" viewBox="-3 -3 559 218" width="559" xmlns="http://www.w3.org/2000/svg" xmlns:ev="http://www.w3.org/2001/xml-events" xmlns:xlink="http://www.w3.org/1999/xlink"><defs /><path d="M0 1 L1 1 L5 1 L11 5 L17 18 L42 41 L156 56 L229 36 L231 35 L228 50 L231 77 L248 84 L318 86 L381 92 L380 105 L362 135 L315 163 L261 175 L208 172 L152 163 L116 154 L114 152 L122 145 L214 121 L317 95 L350 75 L353 71 L354 66 L340 44 L280 14 L219 2 L189 0 L182 0 L188 6 L228 49 L268 92 L270 103 L271 104 L283 64 L316 6 L320 4 L321 57 L321 106 L323 107 L363 58 L388 30 L390 48 L390 84 L392 85 L412 56 L417 52 L416 69 L415 103 L416 107 L417 107 L426 97 L426 98 L425 126 L381 179 L346 199 L333 181 L302 154 L281 143 L280 142 L285 142 L316 146 L337 137 L338 109 L338 94 L339 94 L366 148 L394 203 L396 205 L410 172 L430 140 L431 140 L438 164 L448 186 L448 187 L450 178 L451 178 L443 192 L401 215 L339 218 L299 206 L275 194 L266 191 L260 186 L247 171 L237 159 L236 146 L233 118 L231 87 L229 70 L228 72 L218 94 L217 95 L214 83 L206 45 L205 42 L201 61 L190 82 L184 89 L179 84 L164 66 L163 64 L149 79 L138 88 L134 89 L126 76 L122 63 L121 63 L108 83 L98 98 L97 97 L97 103 L95 122 L95 129 L99 138 L157 160 L227 165 L242 165 L243 166 L255 168 L314 171 L343 167 L363 166 L396 164 L402 159 L407 145 L413 113 L415 98 L417 97 L428 122 L436 149 L437 151 L444 142 L475 108 L501 94 L509 99 L518 111 L519 112 L520 112 L532 99 L547 86 L554 80 L559 56 L551 35 L549 33 " fill="none" stroke="black" /></svg>