<?xml version="1.0" encoding="utf-8" ?>
<svg baseProfile="tiny" height="243" version="1.2" viewBox="-3 -3 605 243" width="605" xmlns="http://www.w3.org/2000/svg" xmlns:ev="http://www.w3.org/2001/xml-events" xmlns:xlink="http://www.w3.org/1999/xlink"><defs /><path d="M0 45 L20 36 L41 24 L57 17 L67 14 L79 10 L96 6 L111 3 L121 2 L128 1 L134 1 L143 0 L150 0 L152 0 L160 2 L164 4 L166 4 L167 6 L168 6 L170 9 L172 11 L173 13 L175 15 L177 19 L179 21 L180 23 L181 26 L182 28 L184 32 L187 36 L189 41 L192 45 L194 50 L196 54 L197 57 L200 61 L203 65 L206 71 L209 77 L213 82 L216 86 L219 90 L222 94 L226 97 L230 100 L234 105 L241 109 L244 112 L249 115 L254 119 L259 121 L266 125 L275 129 L283 131 L295 134 L306 136 L318 136 L332 136 L343 136 L353 136 L363 136 L372 132 L386 124 L398 114 L409 106 L419 96 L430 88 L437 83 L445 78 L454 74 L462 72 L474 70 L488 67 L500 65 L515 65 L534 65 L544 67 L556 73 L569 79 L579 86 L588 93 L596 102 L601 111 L604 124 L605 139 L605 152 L602 165 L595 177 L586 191 L576 203 L569 210 L563 216 L558 220 L551 225 L543 229 L532 233 L520 237 L508 239 L497 241 L484 243 L470 243 L455 242 L434 239 L420 237 L400 234 L362 231 L323 228 L307 226 L302 224 L292 217 L276 206 L261 194 L248 183 L236 175 L224 169 L215 166 L206 163 L196 163 L183 162 L172 162 L159 163 L144 168 L137 171 L134 173 L127 178 L119 184 L111 192 L104 198 L99 202 L92 208 L83 214 L77 218 L70 222 L65 225 L62 226 L56 228 L51 228 L47 229 L45 229 L41 229 L39 229 L37 229 L34 227 L33 226 L30 224 L29 223 L29 222 L28 221 L28 219 L27 219 " fill="none" stroke="black" /></svg>