<?xml version="1.0" encoding="utf-8" ?>
<svg baseProfile="tiny" height="128" version="1.2" viewBox="-3 -3 521 128" width="521" xmlns="http://www.w3.org/2000/svg" xmlns:ev="http://www.w3.org/2001/xml-events" xmlns:xlink="http://www.w3.org/1999/xlink"><defs /><path d="M216 20 L235 27 L248 39 L261 67 L263 84 L259 93 L243 105 L216 116 L192 120 L184 118 L174 107 L169 96 L168 91 L171 83 L176 75 L181 70 L186 67 L190 65 L191 65 L193 65 L195 65 L198 66 L209 68 L212 71 L214 75 L216 81 L216 86 L217 87 L221 92 L235 101 L248 105 L263 106 L277 102 L285 98 L292 91 L296 82 L301 72 L305 63 L308 57 L311 53 L313 49 L316 45 L321 38 L326 31 L330 28 L333 26 L339 23 L344 22 L347 21 L350 21 L353 20 L355 19 L359 19 L361 19 L364 18 L368 18 L372 18 L378 18 L383 18 L389 19 L398 20 L408 21 L410 22 L410 23 L414 33 L416 44 L416 45 L417 48 L420 53 L425 60 L430 68 L433 70 L434 70 L445 70 L467 68 L489 58 L510 36 L521 18 L521 7 L514 1 L505 0 L493 10 L485 22 L484 39 L485 59 L486 70 L485 85 L473 103 L452 118 L437 122 L427 115 L413 101 L402 91 L399 88 L397 86 L393 79 L389 71 L384 62 L380 57 L379 56 L379 55 L376 55 L371 56 L364 60 L358 64 L355 66 L351 71 L346 76 L341 82 L335 90 L327 98 L322 103 L318 105 L313 106 L297 107 L280 108 L265 108 L254 109 L237 112 L226 115 L218 116 L210 117 L205 118 L201 118 L193 118 L179 116 L171 113 L164 110 L155 106 L149 102 L141 93 L135 85 L129 78 L121 72 L105 69 L90 71 L80 80 L69 92 L56 107 L41 121 L30 127 L24 128 L23 128 L17 125 L8 117 L3 107 L0 101 L0 95 L7 90 L9 89 " fill="none" stroke="black" /></svg>