<?xml version="1.0" encoding="utf-8" ?>
<svg baseProfile="tiny" height="148" version="1.2" viewBox="-3 -3 425 148" width="425" xmlns="http://www.w3.org/2000/svg" xmlns:ev="http://www.w3.org/2001/xml-events" xmlns:xlink="http://www.w3.org/1999/xlink"><defs /><path d="M90 27 L107 24 L115 24 L123 24 L131 24 L139 27 L141 28 L141 32 L136 39 L124 43 L107 44 L90 45 L74 45 L65 43 L65 42 L62 38 L62 29 L71 16 L86 6 L96 1 L103 0 L103 7 L99 21 L97 33 L97 43 L101 50 L113 54 L147 54 L187 54 L225 54 L236 55 L237 60 L238 74 L230 90 L225 100 L210 109 L193 118 L179 122 L158 127 L131 131 L96 132 L75 131 L58 127 L39 117 L29 107 L26 96 L34 78 L57 62 L71 57 L97 53 L133 51 L174 49 L213 48 L234 48 L239 49 L246 51 L256 54 L282 58 L296 59 L300 60 L301 60 L309 60 L327 60 L343 60 L363 56 L382 51 L394 48 L404 45 L415 43 L421 42 L422 42 L420 46 L398 55 L376 60 L355 62 L322 63 L295 63 L271 62 L250 62 L230 63 L215 66 L191 70 L174 74 L162 75 L146 78 L127 80 L117 80 L109 80 L97 81 L85 82 L77 82 L67 83 L55 84 L44 85 L28 87 L14 90 L5 92 L0 95 L0 97 L1 98 L9 100 L46 104 L106 105 L158 105 L208 105 L263 104 L289 107 L291 109 L291 110 L290 114 L270 124 L251 133 L239 139 L225 143 L203 147 L180 148 L161 147 L156 142 L146 130 L135 119 L115 115 L84 115 L54 120 L33 127 L26 131 L24 137 L23 139 L37 139 L76 139 L114 140 L149 141 L186 139 L221 138 L258 138 L287 137 L311 136 L328 136 L334 135 L338 135 L345 133 L357 131 L369 130 L381 129 L390 129 L398 128 L405 128 L414 127 L420 127 L423 126 L425 126 " fill="none" stroke="black" /></svg>