<?xml version="1.0" encoding="utf-8" ?>
<svg baseProfile="tiny" height="180" version="1.2" viewBox="-3 -3 280 180" width="280" xmlns="http://www.w3.org/2000/svg" xmlns:ev="http://www.w3.org/2001/xml-events" xmlns:xlink="http://www.w3.org/1999/xlink"><defs /><path d="M20 59 L24 62 L29 65 L33 66 L35 66 L36 66 L39 64 L41 63 L42 61 L44 58 L46 56 L49 51 L51 46 L55 40 L60 33 L62 28 L65 23 L70 17 L74 13 L77 9 L81 5 L85 4 L88 2 L90 1 L91 0 L92 0 L93 0 L94 2 L96 4 L98 8 L100 12 L101 16 L102 20 L103 26 L105 31 L106 36 L107 41 L109 48 L111 53 L114 56 L118 61 L125 65 L130 68 L133 69 L138 70 L143 70 L150 70 L155 70 L161 67 L165 63 L169 59 L173 53 L179 45 L184 38 L188 32 L193 27 L198 24 L205 21 L214 19 L220 18 L223 18 L226 18 L229 19 L235 21 L241 24 L246 27 L252 32 L259 38 L264 45 L268 51 L272 56 L274 62 L277 68 L279 76 L280 82 L280 88 L280 95 L279 105 L274 116 L270 126 L262 140 L254 151 L247 161 L241 165 L237 168 L226 171 L217 173 L209 174 L204 175 L201 175 L199 172 L196 165 L195 156 L194 149 L190 137 L187 127 L185 120 L185 119 L184 119 L182 118 L177 117 L172 116 L168 116 L161 118 L152 122 L148 125 L147 126 L142 131 L135 138 L132 142 L129 145 L126 148 L122 152 L120 155 L118 159 L116 162 L112 167 L108 171 L103 175 L99 177 L97 177 L94 179 L92 180 L90 180 L85 180 L79 177 L76 176 L75 174 L71 171 L66 165 L63 157 L59 149 L57 140 L55 133 L54 126 L52 120 L50 115 L46 111 L44 107 L41 105 L37 103 L34 101 L31 101 L24 101 L17 100 L13 100 L9 100 L4 101 L2 101 L0 101 " fill="none" stroke="black" /></svg>