<?xml version="1.0" encoding="utf-8" ?>
<svg baseProfile="tiny" height="171" version="1.2" viewBox="-3 -3 225 171" width="225" xmlns="http://www.w3.org/2000/svg" xmlns:ev="http://www.w3.org/2001/xml-events" xmlns:xlink="http://www.w3.org/1999/xlink"><defs /><path d="M0 37 L1 41 L5 46 L10 49 L14 50 L30 50 L55 50 L68 48 L83 44 L105 44 L114 45 L117 47 L122 55 L124 63 L124 71 L120 82 L110 92 L105 96 L99 97 L94 97 L88 95 L78 85 L76 78 L77 76 L88 76 L106 76 L140 78 L179 78 L191 76 L202 64 L208 55 L208 51 L206 46 L204 44 L203 44 L200 52 L196 63 L191 72 L187 79 L179 91 L171 105 L163 124 L148 143 L137 151 L120 154 L86 150 L55 139 L40 132 L34 129 L32 127 L31 124 L23 114 L19 107 L15 98 L14 88 L13 86 L16 83 L26 79 L50 77 L80 75 L103 75 L121 75 L155 72 L192 66 L204 61 L220 52 L225 45 L225 40 L221 35 L210 31 L192 26 L187 25 L182 31 L178 40 L178 53 L184 65 L198 75 L204 82 L210 96 L210 116 L202 128 L191 138 L176 145 L160 145 L152 143 L138 130 L128 121 L128 117 L131 112 L150 100 L165 80 L171 58 L172 40 L168 14 L162 2 L161 0 L158 0 L147 4 L127 25 L106 54 L99 68 L96 90 L93 112 L88 124 L80 138 L71 147 L60 151 L51 153 L40 150 L24 136 L15 124 L9 110 L6 99 L6 87 L10 76 L19 62 L30 52 L42 43 L56 32 L63 24 L65 17 L66 13 L64 8 L56 4 L48 4 L38 9 L22 20 L14 31 L13 39 L13 47 L20 63 L42 83 L70 100 L102 118 L146 134 L172 144 L186 150 L190 154 L191 159 L190 164 L181 169 L170 171 L151 169 L113 157 L98 151 L90 148 L69 145 " fill="none" stroke="black" /></svg>