<?xml version="1.0" encoding="utf-8" ?>
<svg baseProfile="tiny" height="116" version="1.2" viewBox="-3 -3 361 116" width="361" xmlns="http://www.w3.org/2000/svg" xmlns:ev="http://www.w3.org/2001/xml-events" xmlns:xlink="http://www.w3.org/1999/xlink"><defs /><path d="M118 2 L122 0 L123 0 L129 1 L166 11 L185 15 L224 26 L265 37 L279 41 L300 44 L322 48 L338 51 L351 54 L360 56 L361 56 L359 58 L349 60 L340 60 L321 60 L297 58 L283 56 L265 54 L248 53 L232 53 L211 51 L197 49 L174 47 L158 46 L148 45 L137 42 L127 40 L121 38 L118 38 L112 40 L106 45 L100 50 L95 55 L90 60 L86 64 L79 68 L74 71 L72 72 L69 73 L68 73 L60 73 L50 71 L41 69 L38 66 L32 63 L31 63 L29 63 L16 61 L12 61 L11 60 L10 57 L6 48 L4 41 L3 34 L3 33 L2 33 L2 34 L0 48 L2 59 L7 66 L11 69 L18 74 L31 79 L41 80 L57 78 L78 76 L88 74 L99 70 L112 64 L117 62 L118 61 L123 58 L126 56 L128 55 L136 54 L141 55 L163 67 L188 79 L199 87 L219 95 L228 97 L232 98 L253 100 L285 94 L305 89 L312 86 L320 83 L324 82 L326 82 L330 81 L338 80 L340 80 L346 80 L350 79 L350 86 L350 92 L350 98 L349 100 L345 102 L328 107 L306 111 L276 113 L256 113 L241 113 L233 113 L224 111 L209 110 L195 109 L182 107 L174 104 L165 100 L159 95 L152 88 L150 87 L149 87 L146 87 L134 89 L124 92 L118 94 L112 97 L108 100 L99 105 L94 109 L93 110 L92 110 L91 111 L86 114 L83 115 L81 116 L80 116 L77 111 L68 103 L60 97 L59 97 L57 97 L52 95 L48 95 L41 95 L31 94 L25 94 L23 94 L17 93 L14 93 L10 93 L5 93 L4 92 " fill="none" stroke="black" /></svg>