<?xml version="1.0" encoding="utf-8" ?>
<svg baseProfile="tiny" height="153" version="1.2" viewBox="-3 -3 273 153" width="273" xmlns="http://www.w3.org/2000/svg" xmlns:ev="http://www.w3.org/2001/xml-events" xmlns:xlink="http://www.w3.org/1999/xlink"><defs /><path d="M37 44 L34 54 L31 66 L32 71 L33 72 L40 71 L51 66 L64 58 L72 53 L73 52 L77 50 L84 47 L90 46 L104 45 L108 45 L110 45 L114 49 L116 54 L117 57 L119 61 L121 65 L123 68 L126 71 L129 73 L133 75 L138 76 L148 76 L170 74 L201 64 L229 59 L241 58 L243 61 L243 77 L234 95 L217 106 L196 110 L177 111 L170 111 L169 107 L166 86 L166 60 L166 34 L166 16 L166 7 L166 6 L161 8 L149 17 L143 23 L140 29 L136 37 L134 47 L131 57 L127 70 L121 85 L115 99 L105 113 L97 124 L87 135 L77 141 L74 142 L73 142 L72 142 L65 136 L62 128 L61 120 L61 112 L62 106 L62 102 L62 98 L60 97 L52 100 L38 107 L33 110 L32 110 L31 110 L29 110 L24 107 L18 101 L10 90 L3 72 L1 64 L0 57 L0 49 L1 39 L6 25 L14 13 L21 6 L29 2 L33 0 L35 0 L41 0 L50 4 L57 8 L65 16 L71 22 L75 28 L82 39 L88 50 L93 61 L98 79 L105 104 L112 120 L118 128 L126 137 L135 147 L144 152 L155 153 L173 151 L196 143 L212 134 L225 127 L236 117 L248 104 L262 85 L270 66 L273 52 L273 43 L273 38 L272 35 L266 32 L262 30 L258 30 L244 31 L235 33 L229 36 L220 43 L212 51 L208 58 L205 66 L200 78 L195 88 L189 99 L181 108 L172 115 L165 118 L159 121 L152 121 L143 120 L139 119 L137 118 L137 117 L136 115 L135 110 L135 106 L134 106 L134 103 L132 99 L130 94 L129 90 L127 86 " fill="none" stroke="black" /></svg>