<?xml version="1.0" encoding="utf-8" ?>
<svg baseProfile="tiny" height="130" version="1.2" viewBox="-3 -3 519 130" width="519" xmlns="http://www.w3.org/2000/svg" xmlns:ev="http://www.w3.org/2001/xml-events" xmlns:xlink="http://www.w3.org/1999/xlink"><defs /><path d="M0 69 L0 71 L4 69 L17 58 L24 50 L26 54 L25 64 L25 67 L28 62 L38 51 L39 51 L42 59 L43 62 L53 54 L64 44 L68 57 L70 62 L72 62 L90 42 L107 27 L108 30 L114 48 L115 49 L116 49 L134 24 L152 0 L152 1 L155 19 L156 37 L157 38 L162 34 L171 27 L179 41 L183 54 L185 58 L188 58 L200 53 L204 52 L209 58 L214 69 L216 72 L218 70 L229 61 L232 59 L234 61 L237 69 L238 70 L240 68 L249 58 L251 56 L254 60 L259 71 L260 72 L265 69 L285 56 L291 53 L295 65 L300 75 L309 66 L321 57 L324 60 L326 66 L328 64 L349 30 L360 17 L363 31 L364 37 L377 26 L391 16 L393 22 L397 41 L398 52 L398 53 L399 53 L403 69 L405 81 L406 83 L408 78 L416 65 L417 64 L419 67 L421 77 L422 78 L423 77 L442 61 L453 55 L455 62 L458 73 L460 71 L470 55 L474 50 L478 57 L481 62 L482 62 L497 45 L512 29 L514 30 L517 42 L518 50 L518 57 L519 60 L516 74 L502 95 L486 101 L452 92 L429 74 L424 65 L422 69 L409 91 L399 102 L396 100 L383 76 L377 62 L376 66 L365 91 L358 103 L356 103 L349 91 L344 84 L341 87 L324 104 L312 116 L310 117 L302 113 L294 108 L289 107 L270 114 L240 128 L231 130 L221 119 L199 92 L191 85 L185 88 L178 91 L165 66 L159 61 L152 72 L138 92 L132 98 L122 79 L119 73 L118 73 L104 95 L92 110 L91 110 L85 94 L83 92 L76 98 L68 106 L67 106 " fill="none" stroke="black" /></svg>