<?xml version="1.0" encoding="utf-8" ?>
<svg baseProfile="tiny" height="196" version="1.2" viewBox="-3 -3 350 196" width="350" xmlns="http://www.w3.org/2000/svg" xmlns:ev="http://www.w3.org/2001/xml-events" xmlns:xlink="http://www.w3.org/1999/xlink"><defs /><path d="M174 42 L187 43 L198 48 L212 55 L231 62 L242 67 L274 75 L294 77 L308 78 L324 81 L326 82 L328 84 L328 91 L328 97 L324 103 L316 112 L305 122 L293 130 L278 139 L261 147 L256 150 L245 150 L225 144 L206 129 L205 128 L205 120 L211 111 L220 103 L226 94 L232 84 L237 71 L238 59 L238 46 L235 37 L229 32 L220 30 L206 30 L182 33 L169 38 L162 47 L158 54 L158 65 L161 75 L165 82 L179 96 L190 107 L199 118 L214 130 L221 138 L227 147 L232 152 L234 153 L239 157 L246 162 L250 165 L257 170 L265 174 L268 176 L273 178 L279 181 L280 181 L281 182 L257 182 L218 177 L202 174 L193 171 L182 168 L175 167 L163 164 L148 161 L140 159 L128 157 L121 155 L115 154 L109 153 L101 151 L94 150 L85 150 L75 149 L66 148 L55 147 L48 146 L39 145 L34 145 L26 144 L18 143 L11 143 L9 143 L5 150 L2 155 L2 159 L1 162 L1 167 L0 175 L0 182 L0 183 L2 184 L24 187 L76 192 L102 194 L128 194 L161 194 L171 194 L185 195 L200 196 L204 196 L209 196 L215 196 L218 196 L228 196 L235 196 L238 196 L242 195 L245 195 L248 195 L250 195 L253 195 L258 195 L265 195 L271 195 L279 195 L281 195 L285 195 L290 195 L293 195 L298 195 L306 193 L312 191 L318 188 L322 185 L329 176 L333 162 L339 137 L343 110 L346 93 L350 71 L350 59 L350 51 L347 39 L337 27 L326 24 L311 22 L279 17 L248 12 L233 8 L205 5 L181 2 L170 0 L155 0 L153 0 " fill="none" stroke="black" /></svg>