<?xml version="1.0" encoding="utf-8" ?>
<svg baseProfile="tiny" height="214" version="1.2" viewBox="-3 -3 481 214" width="481" xmlns="http://www.w3.org/2000/svg" xmlns:ev="http://www.w3.org/2001/xml-events" xmlns:xlink="http://www.w3.org/1999/xlink"><defs /><path d="M107 11 L103 12 L42 41 L47 56 L78 55 L91 49 L91 50 L102 53 L110 48 L110 49 L103 57 L118 60 L217 62 L252 65 L166 77 L162 77 L168 77 L256 69 L266 68 L254 73 L266 80 L275 80 L225 84 L226 87 L357 91 L373 92 L321 96 L222 97 L188 99 L300 70 L328 62 L309 60 L310 58 L313 56 L304 54 L303 53 L303 51 L304 48 L260 48 L185 49 L189 44 L205 25 L222 11 L167 16 L92 28 L94 27 L104 17 L113 13 L113 12 L103 16 L99 17 L114 14 L186 1 L195 0 L192 15 L181 36 L216 39 L318 28 L326 28 L324 38 L345 44 L387 40 L392 46 L399 50 L398 52 L390 61 L413 63 L480 51 L481 51 L460 67 L434 83 L434 85 L448 78 L446 78 L412 103 L396 116 L396 114 L380 109 L329 113 L328 115 L331 112 L302 109 L291 109 L291 108 L277 101 L217 100 L201 104 L206 99 L182 98 L115 109 L114 110 L113 110 L105 115 L98 129 L106 146 L189 153 L234 142 L215 153 L215 157 L274 154 L319 151 L320 157 L325 165 L347 171 L421 168 L427 167 L408 180 L393 190 L376 193 L369 188 L326 167 L266 150 L266 149 L224 153 L183 165 L183 163 L194 132 L196 119 L184 118 L136 130 L115 138 L108 141 L100 144 L93 144 L80 147 L33 154 L0 156 L15 145 L36 137 L38 144 L45 168 L60 177 L163 177 L210 174 L211 181 L211 188 L234 195 L298 192 L312 187 L313 187 L313 186 L321 190 L351 202 L357 203 L365 203 L367 203 L368 203 L371 207 L375 212 L379 214 " fill="none" stroke="black" /></svg>