<?xml version="1.0" encoding="utf-8" ?>
<svg baseProfile="tiny" height="327" version="1.2" viewBox="-3 -3 621 327" width="621" xmlns="http://www.w3.org/2000/svg" xmlns:ev="http://www.w3.org/2001/xml-events" xmlns:xlink="http://www.w3.org/1999/xlink"><defs /><path d="M365 122 L396 81 L398 79 L399 81 L407 101 L414 153 L417 226 L416 259 L409 274 L396 281 L375 284 L348 276 L286 255 L235 232 L224 221 L222 206 L225 193 L238 185 L281 180 L331 180 L406 188 L464 192 L504 192 L570 190 L614 188 L619 187 L620 187 L621 187 L620 201 L605 236 L585 257 L567 272 L545 286 L525 298 L516 303 L514 306 L506 311 L501 312 L479 307 L414 294 L376 290 L354 287 L317 284 L299 281 L285 278 L279 277 L278 276 L278 275 L285 266 L300 253 L331 236 L373 219 L389 209 L402 194 L416 176 L422 155 L423 134 L423 130 L420 136 L411 187 L414 243 L414 270 L407 280 L390 287 L371 290 L359 288 L341 277 L327 268 L307 255 L286 236 L280 224 L280 215 L291 211 L328 217 L390 228 L447 236 L497 240 L518 240 L524 236 L530 226 L519 200 L490 170 L459 144 L400 112 L360 91 L354 86 L353 97 L359 159 L380 228 L404 284 L413 314 L414 325 L413 327 L410 327 L351 305 L254 267 L227 249 L226 247 L229 237 L254 223 L311 220 L369 221 L401 222 L446 223 L482 225 L494 226 L492 205 L464 164 L425 115 L406 90 L401 83 L394 75 L385 68 L377 67 L364 101 L356 148 L360 215 L357 268 L338 281 L273 288 L146 264 L67 231 L27 206 L6 193 L0 184 L0 176 L11 169 L74 151 L137 141 L210 140 L306 137 L359 134 L370 132 L382 126 L383 121 L370 96 L344 65 L294 22 L266 3 L263 0 L262 2 L272 54 L308 152 L339 215 L345 227 L346 230 L347 234 L347 239 L349 247 L349 250 " fill="none" stroke="black" /></svg>