<?xml version="1.0" encoding="utf-8" ?>
<svg baseProfile="tiny" height="236" version="1.2" viewBox="-3 -3 399 236" width="399" xmlns="http://www.w3.org/2000/svg" xmlns:ev="http://www.w3.org/2001/xml-events" xmlns:xlink="http://www.w3.org/1999/xlink"><defs /><path d="M40 68 L30 104 L34 139 L50 172 L84 203 L132 215 L216 226 L304 233 L348 224 L359 215 L372 198 L386 161 L386 135 L384 112 L376 84 L364 62 L353 50 L333 34 L308 24 L274 13 L246 7 L223 4 L186 2 L150 0 L132 0 L112 4 L75 14 L52 21 L50 22 L43 24 L34 28 L33 28 L33 29 L33 31 L31 40 L31 49 L30 57 L29 64 L24 75 L21 87 L19 93 L18 96 L16 97 L15 97 L12 99 L9 100 L8 101 L4 102 L0 103 L7 109 L25 128 L30 136 L36 144 L41 154 L48 165 L55 175 L59 181 L63 182 L74 188 L113 202 L144 210 L167 218 L194 223 L212 225 L239 231 L266 236 L283 236 L303 232 L327 230 L333 229 L337 226 L339 222 L341 214 L344 199 L344 188 L343 186 L335 181 L310 168 L279 154 L269 148 L269 147 L268 147 L264 138 L252 112 L238 84 L227 60 L214 31 L204 8 L204 3 L209 3 L245 13 L289 30 L322 46 L347 57 L372 70 L392 81 L399 86 L398 97 L379 138 L357 185 L353 204 L352 212 L351 220 L351 223 L350 223 L349 223 L332 222 L303 218 L289 216 L278 213 L254 208 L234 206 L217 205 L204 204 L195 204 L180 205 L162 206 L152 206 L132 205 L103 201 L91 199 L81 195 L74 193 L65 191 L53 189 L44 187 L43 186 L48 189 L79 202 L92 204 L110 208 L161 218 L173 220 L175 221 L178 221 L188 216 L196 207 L203 192 L209 164 L214 139 L216 126 L216 123 L217 123 L220 135 L221 152 L221 175 L221 202 L221 215 L221 216 L221 217 " fill="none" stroke="black" /></svg>