<?xml version="1.0" encoding="utf-8" ?>
<svg baseProfile="tiny" height="147" version="1.2" viewBox="-3 -3 318 147" width="318" xmlns="http://www.w3.org/2000/svg" xmlns:ev="http://www.w3.org/2001/xml-events" xmlns:xlink="http://www.w3.org/1999/xlink"><defs /><path d="M169 30 L172 32 L174 34 L178 37 L186 41 L190 45 L197 48 L206 51 L216 56 L227 61 L231 63 L236 70 L238 71 L238 73 L238 74 L238 76 L235 79 L220 82 L200 82 L181 82 L161 80 L136 79 L108 79 L96 78 L90 77 L89 77 L93 70 L110 55 L145 41 L172 36 L193 34 L209 30 L223 26 L234 23 L243 20 L254 17 L261 16 L266 16 L276 14 L287 14 L302 13 L309 13 L315 12 L317 12 L318 13 L312 18 L301 25 L294 26 L285 28 L269 29 L256 30 L246 29 L228 23 L206 15 L195 8 L184 5 L177 4 L166 2 L151 1 L142 0 L125 1 L113 3 L107 4 L99 8 L90 14 L81 20 L75 24 L70 28 L57 34 L44 40 L35 42 L30 43 L22 47 L11 51 L9 51 L8 52 L38 54 L77 55 L101 56 L130 56 L153 54 L175 52 L200 52 L218 52 L232 52 L245 52 L253 52 L257 53 L264 55 L266 57 L266 58 L266 62 L266 70 L266 73 L262 77 L256 83 L246 88 L231 95 L219 100 L210 106 L202 115 L196 124 L189 133 L186 136 L186 137 L185 135 L176 122 L171 115 L169 112 L167 109 L164 106 L159 103 L156 102 L148 102 L145 101 L144 101 L136 103 L126 110 L111 117 L101 121 L96 121 L85 120 L68 118 L57 116 L48 115 L40 112 L32 110 L27 109 L20 106 L16 104 L8 99 L1 92 L0 88 L2 83 L14 76 L23 74 L34 74 L41 77 L47 81 L52 86 L60 98 L62 108 L68 120 L73 128 L80 133 L102 144 L128 147 L134 147 L145 146 L148 146 " fill="none" stroke="black" /></svg>