<?xml version="1.0" encoding="utf-8" ?>
<svg baseProfile="tiny" height="160" version="1.2" viewBox="-3 -3 225 160" width="225" xmlns="http://www.w3.org/2000/svg" xmlns:ev="http://www.w3.org/2001/xml-events" xmlns:xlink="http://www.w3.org/1999/xlink"><defs /><path d="M0 0 L1 0 L3 0 L4 0 L5 0 L7 0 L9 0 L11 0 L12 0 L14 0 L15 0 L17 0 L18 0 L19 0 L20 0 L21 0 L22 0 L23 0 L25 1 L27 1 L29 2 L30 2 L31 3 L32 3 L33 3 L34 4 L34 5 L35 5 L36 6 L37 6 L39 7 L40 8 L42 9 L43 10 L44 11 L46 13 L47 14 L50 15 L52 17 L54 18 L56 20 L59 21 L62 23 L65 26 L68 27 L70 28 L71 30 L72 31 L74 31 L75 32 L76 32 L78 34 L79 34 L80 35 L82 35 L83 36 L84 36 L85 37 L86 38 L88 39 L90 40 L91 40 L92 41 L92 42 L95 42 L99 44 L101 44 L104 45 L106 46 L108 47 L110 47 L113 48 L116 50 L119 51 L120 51 L121 53 L121 54 L123 54 L124 55 L129 58 L131 59 L133 60 L135 61 L138 63 L140 64 L141 64 L143 65 L144 67 L145 68 L146 68 L148 69 L150 70 L153 71 L155 72 L156 73 L156 74 L157 74 L160 76 L162 77 L163 78 L165 80 L169 82 L171 84 L173 85 L175 87 L176 88 L178 88 L179 89 L182 92 L185 94 L186 94 L188 95 L191 97 L194 99 L196 101 L197 103 L198 105 L199 107 L201 108 L201 109 L201 110 L202 111 L205 113 L205 114 L206 114 L207 116 L209 120 L213 124 L215 128 L216 129 L217 132 L218 134 L219 135 L219 136 L220 138 L221 140 L221 141 L222 142 L223 144 L223 145 L223 147 L224 149 L224 150 L224 152 L225 153 L225 154 L225 156 L225 158 L225 159 L225 160 " fill="none" stroke="black" /></svg>