<?xml version="1.0" encoding="utf-8" ?>
<svg baseProfile="tiny" height="304" version="1.2" viewBox="-3 -3 491 304" width="491" xmlns="http://www.w3.org/2000/svg" xmlns:ev="http://www.w3.org/2001/xml-events" xmlns:xlink="http://www.w3.org/1999/xlink"><defs /><path d="M0 304 L2 304 L3 304 L4 304 L5 304 L7 304 L8 304 L10 304 L11 304 L12 304 L13 304 L16 303 L22 301 L30 300 L34 299 L35 298 L40 296 L44 295 L47 294 L50 292 L52 292 L55 290 L65 286 L76 283 L101 277 L118 274 L123 272 L125 272 L125 271 L127 270 L131 267 L132 265 L133 263 L136 261 L140 258 L146 254 L149 252 L155 249 L165 244 L177 237 L187 233 L193 230 L197 227 L200 223 L202 221 L202 219 L204 217 L209 214 L211 212 L215 209 L217 208 L220 205 L223 204 L225 202 L226 201 L229 199 L233 196 L234 195 L236 192 L240 190 L242 189 L245 187 L248 185 L251 183 L255 181 L257 180 L260 177 L263 173 L264 171 L267 169 L270 167 L271 166 L273 163 L276 158 L279 154 L283 149 L285 145 L289 142 L291 140 L295 137 L300 133 L306 130 L309 127 L313 125 L317 123 L321 121 L324 120 L327 119 L329 118 L331 117 L335 114 L339 112 L340 111 L342 108 L344 105 L346 103 L348 102 L350 99 L354 96 L355 95 L357 94 L360 92 L361 91 L364 90 L365 89 L368 88 L373 85 L377 84 L382 82 L385 81 L386 81 L387 80 L388 78 L390 74 L393 70 L395 67 L398 64 L400 62 L402 60 L403 59 L405 57 L407 56 L412 53 L418 49 L421 46 L425 44 L426 40 L429 35 L434 29 L439 25 L442 21 L447 18 L450 14 L453 11 L455 9 L457 7 L460 5 L466 3 L470 3 L473 2 L475 2 L476 2 L477 2 L479 1 L484 1 L486 0 L488 0 L489 0 L490 0 L491 0 " fill="none" stroke="black" /></svg>