<?xml version="1.0" encoding="utf-8" ?>
<svg baseProfile="tiny" height="38" version="1.2" viewBox="-3 -3 314 38" width="314" xmlns="http://www.w3.org/2000/svg" xmlns:ev="http://www.w3.org/2001/xml-events" xmlns:xlink="http://www.w3.org/1999/xlink"><defs /><circle cx="0" cy="28" fill="black" r="1" /><path d="M0 28 L3 23 L7 20 L9 19 L11 19 L13 20 L15 25 L15 29 L16 33 L17 33 L19 32 L21 31 L22 31 L24 31 L27 29 L33 22 L35 20 L37 20 L37 22 L37 25 L37 26 L39 19 L41 15 L42 15 L45 14 L48 12 L49 15 L51 21 L53 31 L53 36 L54 36 L59 31 L62 29 L62 34 L62 35 L63 34 L64 34 L64 35 L64 36 L65 35 L68 32 L72 28 L78 21 L82 19 L83 21 L83 26 L84 33 L84 35 L84 34 L87 32 L88 30 L89 32 L90 36 L90 37 L91 38 L92 38 L94 37 L97 34 L98 30 L103 22 L110 9 L114 4 L115 3 L117 3 L118 3 L121 10 L124 17 L125 30 L126 32 L126 33 L127 33 L129 32 L132 27 L133 25 L133 29 L133 30 L137 25 L138 25 L138 27 L139 27 L140 27 L141 27 L143 27 L145 27 L147 28 L148 30 L150 31 L152 31 L155 31 L158 31 L162 31 L163 31 L172 27 L184 17 L188 13 L190 12 L190 17 L191 23 L192 25 L193 25 L199 22 L204 22 L208 22 L213 25 L215 32 L216 35 L221 31 L225 29 L225 30 L227 26 L232 16 L240 4 L243 1 L247 0 L248 0 L249 0 L251 5 L255 13 L257 18 L258 20 L260 20 L265 19 L269 17 L270 17 L273 23 L273 24 L273 26 L274 26 L280 23 L284 22 L284 24 L285 26 L286 26 L290 23 L293 23 L295 22 L296 22 L296 23 L298 20 L300 19 L302 19 L303 19 L305 19 L307 19 L310 19 L312 19 L313 19 L314 20 L314 22 " fill="none" stroke="black" /></svg>