<?xml version="1.0" encoding="utf-8" ?>
<svg baseProfile="tiny" height="101" version="1.2" viewBox="-3 -3 141 101" width="141" xmlns="http://www.w3.org/2000/svg" xmlns:ev="http://www.w3.org/2001/xml-events" xmlns:xlink="http://www.w3.org/1999/xlink"><defs /><path d="M57 44 L55 44 L41 46 L31 47 L28 47 L30 48 L26 49 L24 49 L28 49 L34 51 L33 51 L29 51 L25 52 L27 52 L32 52 L33 53 L31 54 L26 56 L33 56 L44 58 L42 58 L31 61 L7 69 L17 71 L35 79 L32 80 L34 80 L40 77 L39 77 L33 82 L34 81 L38 79 L38 80 L36 87 L36 90 L36 89 L36 90 L36 94 L36 96 L40 89 L46 84 L48 82 L51 77 L54 74 L54 77 L54 82 L55 80 L59 78 L69 81 L77 92 L82 101 L88 94 L92 88 L93 87 L93 88 L93 91 L92 92 L87 94 L75 99 L70 100 L70 99 L81 83 L95 71 L98 69 L98 71 L98 76 L98 77 L99 77 L103 75 L105 74 L104 74 L110 74 L116 73 L114 73 L112 72 L113 72 L123 67 L125 63 L126 61 L126 60 L129 60 L137 60 L136 60 L128 60 L126 59 L126 58 L127 55 L130 50 L131 50 L135 50 L139 49 L139 47 L139 39 L141 27 L141 24 L139 25 L126 41 L117 51 L117 47 L117 43 L117 41 L116 41 L113 41 L109 41 L109 40 L109 32 L109 29 L108 33 L104 40 L97 34 L83 18 L81 14 L81 17 L81 22 L81 26 L81 22 L81 18 L74 23 L65 29 L63 23 L62 20 L59 25 L58 27 L53 17 L51 12 L51 10 L50 0 L43 1 L27 10 L12 20 L8 22 L9 22 L14 22 L15 22 L22 24 L34 24 L38 24 L25 28 L0 38 L13 38 L35 38 L44 38 L50 38 L52 38 L53 38 L53 39 L53 40 L43 44 L40 45 " fill="none" stroke="black" /></svg>