<?xml version="1.0" encoding="utf-8" ?>
<svg baseProfile="tiny" height="98" version="1.2" viewBox="-3 -3 276 98" width="276" xmlns="http://www.w3.org/2000/svg" xmlns:ev="http://www.w3.org/2001/xml-events" xmlns:xlink="http://www.w3.org/1999/xlink"><defs /><path d="M0 29 L3 32 L7 34 L10 34 L12 31 L17 19 L20 10 L23 6 L26 4 L30 1 L36 0 L40 0 L43 0 L47 5 L49 9 L50 12 L52 15 L52 16 L52 18 L52 21 L53 25 L54 28 L55 30 L57 30 L59 32 L62 33 L65 33 L66 33 L69 33 L72 33 L75 30 L81 27 L83 26 L85 25 L86 23 L87 22 L89 21 L90 20 L92 20 L96 19 L100 19 L101 19 L103 19 L104 19 L105 21 L105 22 L106 25 L106 26 L106 28 L107 29 L107 31 L107 33 L108 36 L108 38 L108 39 L110 39 L115 41 L118 42 L121 42 L122 42 L124 37 L124 34 L127 33 L131 32 L140 31 L145 31 L147 31 L150 33 L151 35 L153 39 L153 41 L154 44 L154 47 L154 48 L154 51 L154 54 L154 56 L154 59 L154 62 L154 64 L154 66 L155 68 L158 69 L160 69 L163 69 L168 69 L171 67 L172 67 L174 65 L177 63 L181 60 L182 59 L185 57 L187 55 L188 54 L190 53 L191 51 L193 50 L194 50 L197 50 L200 50 L202 53 L203 55 L204 57 L205 59 L205 61 L206 63 L206 64 L206 67 L206 70 L208 74 L208 77 L209 79 L209 80 L211 82 L213 83 L216 85 L218 85 L219 85 L220 85 L221 85 L222 85 L224 83 L225 80 L226 79 L228 76 L231 74 L234 70 L236 69 L239 68 L243 67 L248 67 L251 67 L252 67 L253 67 L254 70 L254 71 L255 75 L255 78 L256 79 L256 83 L258 86 L259 88 L261 90 L263 92 L267 95 L269 96 L271 98 L273 98 L276 98 " fill="none" stroke="black" /></svg>