<?xml version="1.0" encoding="utf-8" ?>
<svg baseProfile="tiny" height="318" version="1.2" viewBox="-3 -3 96 318" width="96" xmlns="http://www.w3.org/2000/svg" xmlns:ev="http://www.w3.org/2001/xml-events" xmlns:xlink="http://www.w3.org/1999/xlink"><defs /><path d="M0 0 L1 0 L2 0 L3 0 L4 0 L5 0 L5 1 L6 2 L6 3 L6 4 L7 5 L8 6 L10 8 L11 8 L12 9 L13 10 L14 11 L15 11 L16 12 L18 13 L19 15 L20 16 L22 17 L22 18 L22 19 L23 19 L23 20 L24 20 L25 20 L25 21 L27 23 L30 25 L34 30 L39 36 L41 42 L44 44 L46 49 L48 53 L49 56 L50 60 L51 63 L52 65 L52 66 L53 67 L53 68 L54 70 L54 71 L54 72 L54 74 L54 78 L54 82 L54 85 L54 88 L54 91 L54 93 L54 96 L54 98 L54 99 L55 100 L55 103 L55 104 L55 106 L55 107 L55 108 L55 111 L55 114 L55 117 L55 119 L55 122 L55 125 L55 127 L55 130 L55 133 L56 137 L56 139 L56 142 L57 145 L57 147 L58 147 L60 150 L61 151 L63 153 L64 156 L65 158 L66 160 L66 162 L67 164 L67 166 L67 167 L67 169 L67 171 L67 172 L68 174 L68 177 L68 178 L68 179 L68 180 L68 185 L69 190 L70 194 L71 197 L71 201 L71 205 L72 208 L72 210 L72 211 L72 213 L72 216 L72 218 L72 223 L73 227 L73 230 L73 232 L73 233 L73 236 L73 239 L74 243 L75 247 L75 249 L75 251 L76 254 L76 256 L77 257 L77 259 L77 260 L78 263 L80 266 L83 273 L86 278 L87 280 L87 281 L87 282 L87 284 L89 288 L90 291 L92 296 L94 300 L94 301 L94 302 L95 303 L95 305 L95 307 L95 309 L95 310 L95 311 L96 313 L96 314 L96 316 L96 317 L96 318 " fill="none" stroke="black" /></svg>