<?xml version="1.0" encoding="utf-8" ?>
<svg baseProfile="tiny" height="133" version="1.2" viewBox="-3 -3 676 133" width="676" xmlns="http://www.w3.org/2000/svg" xmlns:ev="http://www.w3.org/2001/xml-events" xmlns:xlink="http://www.w3.org/1999/xlink"><defs /><path d="M0 108 L8 102 L16 92 L26 81 L26 83 L26 94 L26 97 L28 97 L42 90 L58 83 L71 81 L76 89 L78 112 L78 128 L78 130 L79 126 L82 120 L82 124 L80 130 L79 133 L80 127 L91 111 L93 108 L95 111 L99 113 L103 113 L106 111 L108 106 L118 97 L137 81 L137 88 L137 91 L139 91 L148 82 L158 79 L162 79 L165 91 L167 103 L167 104 L168 102 L169 106 L174 107 L187 103 L204 89 L212 77 L221 59 L224 56 L224 57 L224 73 L224 86 L224 83 L225 65 L231 41 L234 36 L237 34 L237 35 L239 47 L242 65 L247 95 L248 107 L250 104 L256 101 L260 100 L264 100 L265 106 L265 107 L267 102 L268 100 L268 101 L268 106 L268 107 L276 100 L294 88 L303 87 L304 87 L304 90 L304 100 L305 107 L306 104 L308 102 L308 103 L308 105 L319 71 L342 8 L347 0 L348 9 L351 22 L355 44 L356 58 L356 59 L356 62 L358 86 L361 107 L363 120 L366 114 L367 114 L368 114 L371 112 L375 106 L375 107 L378 111 L379 114 L381 112 L386 107 L393 103 L401 103 L404 105 L405 106 L413 97 L444 62 L471 40 L481 37 L496 44 L515 72 L528 101 L532 111 L532 113 L534 113 L546 108 L554 104 L555 104 L555 106 L557 113 L559 113 L563 112 L572 108 L578 106 L581 105 L581 107 L582 107 L586 104 L592 99 L595 97 L595 98 L595 100 L597 100 L602 99 L606 98 L608 98 L609 99 L609 100 L613 100 L626 94 L644 86 L668 75 L676 71 L676 69 " fill="none" stroke="black" /></svg>