<?xml version="1.0" encoding="utf-8" ?>
<svg baseProfile="tiny" height="122" version="1.2" viewBox="-3 -3 160 122" width="160" xmlns="http://www.w3.org/2000/svg" xmlns:ev="http://www.w3.org/2001/xml-events" xmlns:xlink="http://www.w3.org/1999/xlink"><defs /><path d="M0 122 L3 120 L5 119 L6 119 L8 119 L9 118 L11 118 L14 118 L17 117 L19 117 L21 117 L22 117 L24 117 L26 117 L27 117 L28 116 L30 115 L30 113 L31 112 L31 110 L31 109 L31 107 L31 105 L31 104 L31 102 L31 100 L32 98 L33 96 L33 94 L34 93 L36 91 L38 91 L39 90 L40 90 L42 90 L43 90 L43 89 L45 89 L46 89 L47 89 L49 89 L50 89 L52 89 L53 89 L55 89 L56 89 L58 89 L60 89 L62 88 L63 87 L65 87 L65 86 L65 85 L66 83 L66 82 L66 81 L66 79 L67 78 L67 77 L67 76 L68 74 L68 73 L68 71 L68 69 L68 68 L68 67 L68 66 L68 65 L69 65 L70 63 L72 63 L73 63 L75 62 L77 62 L81 62 L82 62 L83 62 L86 61 L87 61 L89 61 L90 61 L92 61 L94 61 L95 61 L97 61 L98 61 L99 59 L99 58 L100 57 L100 56 L100 54 L100 53 L100 51 L100 50 L100 49 L100 46 L100 44 L100 43 L101 41 L101 40 L102 39 L102 38 L103 38 L104 36 L106 35 L108 34 L109 33 L110 33 L111 33 L113 33 L116 32 L119 32 L120 32 L123 32 L125 32 L126 32 L127 32 L129 32 L130 32 L131 32 L134 32 L135 31 L137 30 L138 30 L138 28 L139 27 L139 26 L139 24 L140 24 L140 22 L140 19 L140 15 L140 13 L140 9 L140 7 L140 5 L140 4 L140 3 L140 1 L141 1 L144 0 L146 0 L150 0 L154 0 L155 0 L156 0 L157 0 L158 0 L159 0 L160 0 " fill="none" stroke="black" /></svg>