<?xml version="1.0" encoding="utf-8" ?>
<svg baseProfile="tiny" height="204" version="1.2" viewBox="-3 -3 1330 204" width="1330" xmlns="http://www.w3.org/2000/svg" xmlns:ev="http://www.w3.org/2001/xml-events" xmlns:xlink="http://www.w3.org/1999/xlink"><defs /><path d="M0 124 L0 126 L0 128 L0 132 L2 134 L4 138 L8 144 L11 146 L14 151 L19 153 L23 155 L24 155 L25 155 L30 154 L35 154 L40 152 L46 151 L57 149 L67 148 L78 147 L103 143 L132 141 L153 139 L181 136 L216 135 L245 135 L253 135 L254 134 L261 127 L268 120 L270 116 L272 110 L273 102 L274 91 L274 86 L274 84 L274 81 L272 77 L267 73 L253 65 L234 56 L225 53 L213 53 L196 62 L184 74 L180 78 L175 87 L168 105 L163 121 L161 131 L161 143 L162 152 L166 156 L179 162 L197 166 L220 166 L231 166 L237 166 L245 166 L264 161 L334 144 L413 129 L455 114 L489 97 L528 84 L557 75 L563 72 L565 69 L565 65 L552 44 L534 24 L512 7 L502 3 L497 1 L494 0 L488 1 L475 6 L466 11 L454 20 L442 31 L430 45 L423 55 L415 65 L409 77 L407 83 L404 90 L400 96 L398 102 L397 105 L394 112 L394 115 L394 120 L400 132 L416 144 L454 154 L510 159 L602 167 L706 177 L771 181 L795 181 L818 174 L829 167 L834 163 L834 162 L834 156 L834 152 L834 139 L833 120 L824 109 L814 105 L786 104 L753 110 L735 117 L723 129 L717 136 L713 147 L711 156 L707 168 L705 180 L705 187 L705 191 L721 199 L749 204 L785 204 L893 198 L1001 179 L1079 152 L1094 139 L1105 123 L1109 112 L1112 107 L1114 101 L1129 91 L1178 66 L1219 44 L1223 41 L1214 41 L1142 47 L1077 71 L1061 85 L1059 96 L1066 122 L1093 152 L1125 170 L1206 184 L1254 186 L1291 186 L1314 186 L1326 186 L1330 186 " fill="none" stroke="black" /></svg>