<?xml version="1.0" encoding="utf-8" ?>
<svg baseProfile="tiny" height="314" version="1.2" viewBox="-3 -3 563 314" width="563" xmlns="http://www.w3.org/2000/svg" xmlns:ev="http://www.w3.org/2001/xml-events" xmlns:xlink="http://www.w3.org/1999/xlink"><defs /><path d="M0 314 L27 303 L101 269 L157 238 L175 226 L187 208 L196 182 L202 159 L204 150 L209 142 L213 135 L214 131 L214 125 L214 124 L216 121 L217 119 L219 115 L220 112 L221 111 L221 109 L222 104 L224 100 L224 98 L226 93 L227 87 L229 83 L231 80 L235 75 L242 72 L246 71 L252 69 L258 68 L262 66 L266 65 L270 65 L278 65 L293 65 L302 65 L304 65 L306 64 L309 63 L313 62 L315 62 L316 62 L318 62 L319 62 L320 62 L321 62 L323 62 L324 62 L326 62 L328 62 L330 62 L331 62 L331 59 L331 56 L332 54 L333 53 L335 52 L336 51 L337 50 L338 49 L339 49 L340 49 L341 49 L342 48 L344 48 L345 48 L347 48 L348 48 L349 48 L351 48 L353 48 L356 48 L358 48 L360 48 L362 48 L365 48 L366 48 L367 48 L370 48 L372 48 L376 48 L378 49 L379 49 L381 49 L385 49 L389 49 L396 48 L401 47 L405 47 L407 47 L408 46 L411 45 L417 45 L424 43 L427 43 L429 43 L430 43 L430 42 L433 41 L435 41 L439 41 L443 41 L445 40 L448 39 L452 39 L455 39 L457 39 L459 38 L460 37 L461 35 L463 34 L464 33 L465 32 L465 31 L466 29 L468 28 L468 27 L469 26 L470 25 L473 23 L476 22 L478 21 L480 20 L481 20 L483 19 L486 19 L487 18 L490 17 L493 16 L497 16 L502 16 L505 16 L507 16 L510 15 L513 15 L517 14 L519 14 L520 13 L522 11 L525 7 L531 3 L534 2 L539 2 L542 1 L546 0 L547 0 L555 0 L563 0 " fill="none" stroke="black" /></svg>