<?xml version="1.0" encoding="utf-8" ?>
<svg baseProfile="tiny" height="61" version="1.2" viewBox="-3 -3 110 61" width="110" xmlns="http://www.w3.org/2000/svg" xmlns:ev="http://www.w3.org/2001/xml-events" xmlns:xlink="http://www.w3.org/1999/xlink"><defs /><path d="M0 0 L1 0 L2 0 L3 0 L4 0 L6 0 L6 1 L7 1 L7 2 L7 3 L7 4 L7 6 L8 6 L10 6 L11 6 L12 6 L13 6 L14 6 L14 7 L14 8 L14 9 L15 9 L16 9 L17 10 L18 10 L19 10 L20 10 L21 10 L22 10 L22 11 L22 12 L23 12 L24 12 L26 12 L28 12 L29 12 L30 12 L31 12 L31 14 L31 15 L31 16 L32 16 L34 16 L35 16 L35 17 L35 18 L35 19 L36 20 L37 20 L38 20 L39 20 L40 20 L41 20 L41 22 L41 23 L41 25 L41 26 L43 26 L45 26 L48 26 L49 26 L49 27 L49 29 L49 30 L50 30 L50 31 L51 31 L53 31 L53 33 L54 33 L57 33 L60 33 L60 34 L60 35 L60 36 L61 36 L62 36 L63 36 L64 36 L65 36 L66 36 L67 36 L68 38 L68 39 L69 39 L71 39 L72 39 L73 39 L75 39 L75 40 L75 41 L75 42 L75 43 L81 43 L84 43 L85 43 L86 43 L86 44 L86 46 L89 46 L90 46 L91 46 L92 46 L92 47 L92 48 L92 50 L92 51 L97 51 L100 51 L101 51 L101 52 L101 54 L101 55 L101 56 L102 56 L103 56 L104 56 L104 57 L104 58 L104 59 L108 59 L110 59 L110 61 " fill="none" stroke="black" /></svg>