<?xml version="1.0" encoding="utf-8" ?>
<svg baseProfile="tiny" height="65" version="1.2" viewBox="-3 -3 209 65" width="209" xmlns="http://www.w3.org/2000/svg" xmlns:ev="http://www.w3.org/2001/xml-events" xmlns:xlink="http://www.w3.org/1999/xlink"><defs /><path d="M12 22 L10 22 L8 22 L5 23 L3 24 L2 25 L0 26 L0 27 L0 30 L0 31 L0 33 L0 37 L1 41 L3 45 L4 49 L6 50 L10 52 L15 55 L18 55 L21 56 L23 56 L25 56 L27 56 L29 56 L31 56 L33 55 L37 53 L45 50 L54 46 L60 44 L69 41 L75 38 L79 35 L79 33 L81 30 L81 26 L82 23 L82 20 L82 16 L82 14 L79 12 L75 11 L68 10 L64 9 L61 9 L51 10 L47 12 L47 13 L45 15 L45 18 L43 21 L43 23 L42 28 L41 33 L41 34 L41 38 L41 41 L41 43 L41 45 L41 47 L41 50 L42 53 L43 55 L45 56 L46 58 L49 60 L51 61 L54 62 L56 62 L58 62 L60 62 L63 62 L71 62 L78 62 L88 61 L106 58 L124 51 L134 46 L148 39 L157 33 L162 27 L165 24 L166 23 L165 23 L161 21 L154 20 L150 19 L147 18 L144 18 L139 16 L135 16 L133 16 L131 16 L129 16 L127 16 L126 19 L124 21 L122 25 L120 29 L118 30 L117 34 L117 39 L117 47 L117 50 L118 54 L118 56 L119 59 L121 60 L124 62 L127 63 L133 65 L139 65 L147 65 L156 65 L162 65 L176 58 L193 48 L203 34 L206 26 L208 19 L209 12 L209 5 L209 3 L209 1 L209 0 L206 0 L203 0 L198 0 L196 1 L194 2 L192 4 L189 7 L187 9 L184 12 L183 14 L182 17 L182 21 L181 23 L180 25 L180 27 L180 29 L180 30 L180 31 L180 32 L180 33 L180 34 L180 35 L180 37 L180 38 L180 39 " fill="none" stroke="black" /></svg>