<?xml version="1.0" encoding="utf-8" ?>
<svg baseProfile="tiny" height="64" version="1.2" viewBox="-3 -3 89 64" width="89" xmlns="http://www.w3.org/2000/svg" xmlns:ev="http://www.w3.org/2001/xml-events" xmlns:xlink="http://www.w3.org/1999/xlink"><defs /><path d="M20 18 L18 21 L18 23 L18 25 L19 27 L24 28 L28 30 L27 30 L26 30 L27 32 L27 34 L27 35 L26 36 L24 37 L20 39 L19 39 L20 40 L24 43 L29 45 L28 45 L30 45 L34 43 L35 41 L36 41 L36 42 L36 44 L36 49 L37 48 L39 45 L40 42 L40 44 L40 42 L40 44 L41 45 L42 46 L45 46 L46 46 L48 46 L50 44 L52 43 L53 41 L55 40 L55 41 L56 42 L57 43 L59 43 L60 43 L61 44 L63 44 L66 44 L68 42 L70 41 L74 41 L77 41 L77 39 L77 38 L77 36 L71 36 L64 36 L63 36 L63 35 L63 34 L62 34 L61 34 L61 31 L61 29 L61 26 L63 23 L64 22 L65 19 L68 15 L68 14 L69 13 L68 13 L66 13 L65 13 L65 7 L65 4 L65 2 L65 3 L65 6 L64 6 L60 10 L56 13 L54 14 L54 13 L54 12 L52 9 L51 6 L49 9 L47 13 L47 14 L46 19 L46 22 L45 22 L45 23 " fill="none" stroke="black" /><path d="M20 18 L18 21 L18 23 L18 25 L19 27 L24 28 L28 30 L27 30 L26 30 L27 32 L27 34 L27 35 L26 36 L24 37 L20 39 L19 39 L20 40 L24 43 L29 45 L28 45 L30 45 L34 43 L35 41 L36 41 L36 42 L36 44 L36 49 L37 48 L39 45 L40 42 L40 44 L40 42 L40 44 L41 45 L42 46 L45 46 L46 46 L48 46 L50 44 L52 43 L53 41 L55 40 L55 41 L56 42 L57 43 L59 43 L60 43 L61 44 L63 44 L66 44 L68 42 L70 41 L74 41 L77 41 L77 39 L77 38 L77 36 L71 36 L64 36 L63 36 L63 35 L63 34 L62 34 L61 34 L61 31 L61 29 L61 26 L63 23 L64 22 L65 19 L68 15 L68 14 L69 13 L68 13 L66 13 L65 13 L65 7 L65 4 L65 2 L65 3 L65 6 L64 6 L60 10 L56 13 L54 14 L54 13 L54 12 L52 9 L51 6 L49 9 L47 13 L47 14 L46 19 L46 22 L45 22 L45 23 M25 7 L25 6 L22 5 L15 3 L10 2 L5 1 L3 0 L2 0 L0 2 L0 4 L0 8 L0 12 L0 14 L2 20 L2 24 L3 26 L4 27 L5 29 L6 34 L6 39 L6 42 L6 46 L6 47 L6 48 L8 53 L9 54 L13 55 L20 55 L24 54 L26 54 L27 54 L30 59 L32 63 L33 64 L36 64 L41 63 L44 64 L45 64 L46 64 L51 60 L56 57 L59 57 L63 57 L68 55 L70 53 L72 53 L73 52 L75 52 L80 52 L86 51 L88 50 L88 48 L89 45 L89 44 " fill="none" stroke="black" /></svg>