<?xml version="1.0" encoding="utf-8" ?>
<svg baseProfile="tiny" height="239" version="1.2" viewBox="-3 -3 163 239" width="163" xmlns="http://www.w3.org/2000/svg" xmlns:ev="http://www.w3.org/2001/xml-events" xmlns:xlink="http://www.w3.org/1999/xlink"><defs /><path d="M0 3 L1 2 L2 2 L3 2 L4 2 L6 1 L8 1 L9 1 L10 0 L11 0 L12 0 L13 0 L15 0 L17 0 L20 0 L22 0 L23 0 L25 0 L27 0 L28 0 L30 0 L32 0 L34 0 L36 0 L38 1 L39 2 L40 2 L42 3 L43 4 L45 4 L47 4 L48 5 L50 6 L52 6 L56 6 L58 6 L61 6 L63 7 L64 7 L66 8 L67 8 L69 10 L71 11 L72 12 L73 12 L74 14 L76 14 L77 15 L78 17 L80 18 L81 19 L84 22 L86 23 L88 25 L89 26 L91 27 L92 27 L93 28 L96 30 L98 33 L99 34 L101 35 L102 37 L102 39 L103 41 L104 42 L104 45 L105 46 L105 47 L106 49 L109 53 L112 57 L113 58 L115 60 L116 62 L117 64 L118 66 L119 68 L120 70 L121 71 L122 73 L123 75 L123 77 L124 79 L124 83 L124 85 L124 88 L124 90 L124 91 L126 92 L128 95 L130 96 L132 99 L134 101 L135 103 L136 104 L137 107 L138 108 L138 110 L139 111 L139 113 L140 116 L140 118 L141 120 L141 124 L142 127 L142 128 L142 131 L142 132 L145 136 L147 141 L149 144 L150 147 L151 151 L151 154 L151 155 L152 158 L152 161 L153 163 L153 166 L153 170 L153 173 L153 174 L153 176 L153 177 L153 178 L153 181 L153 185 L154 191 L155 199 L156 205 L156 209 L156 213 L156 218 L156 222 L157 223 L157 225 L157 228 L157 229 L157 230 L157 231 L158 232 L158 233 L158 235 L159 235 L160 236 L161 237 L162 238 L162 239 L163 239 " fill="none" stroke="black" /></svg>