<?xml version="1.0" encoding="utf-8" ?>
<svg baseProfile="tiny" height="127" version="1.2" viewBox="-3 -3 299 127" width="299" xmlns="http://www.w3.org/2000/svg" xmlns:ev="http://www.w3.org/2001/xml-events" xmlns:xlink="http://www.w3.org/1999/xlink"><defs /><path d="M0 127 L1 125 L3 122 L3 119 L4 116 L4 115 L5 113 L6 111 L6 109 L6 108 L7 106 L8 105 L9 104 L11 101 L13 97 L16 92 L17 88 L19 85 L19 83 L21 80 L24 77 L25 75 L27 73 L30 71 L34 70 L35 69 L39 69 L41 69 L43 69 L45 69 L48 69 L52 69 L54 69 L55 70 L57 71 L60 74 L63 75 L65 77 L66 77 L69 77 L71 78 L72 78 L73 78 L76 78 L79 78 L82 77 L88 75 L91 73 L93 73 L96 71 L98 70 L100 68 L101 66 L103 65 L103 64 L103 63 L104 61 L104 59 L105 57 L107 54 L108 50 L109 48 L111 47 L111 45 L111 44 L112 42 L113 40 L114 38 L115 37 L115 35 L116 33 L118 32 L120 30 L122 29 L124 27 L126 27 L128 27 L131 27 L135 27 L138 27 L142 27 L145 27 L147 28 L150 29 L152 30 L153 30 L154 31 L156 32 L158 32 L160 33 L161 34 L163 35 L165 35 L167 35 L170 35 L172 36 L174 36 L175 37 L176 37 L180 38 L183 38 L187 38 L190 38 L192 38 L193 38 L194 36 L195 35 L196 33 L200 28 L203 24 L205 23 L205 21 L207 19 L208 18 L210 17 L213 14 L216 12 L217 11 L219 10 L220 9 L222 9 L225 8 L228 7 L232 7 L235 7 L237 7 L239 7 L240 7 L242 7 L244 7 L247 8 L251 9 L253 9 L255 9 L259 11 L263 11 L267 12 L270 13 L271 13 L274 13 L280 13 L290 13 L294 12 L296 11 L297 9 L297 8 L298 6 L299 3 L299 2 L299 0 " fill="none" stroke="black" /></svg>