<?xml version="1.0" encoding="utf-8" ?>
<svg baseProfile="tiny" height="14" version="1.2" viewBox="-3 -3 1025 14" width="1025" xmlns="http://www.w3.org/2000/svg" xmlns:ev="http://www.w3.org/2001/xml-events" xmlns:xlink="http://www.w3.org/1999/xlink"><defs /><path d="M0 1 L1 1 L3 1 L5 1 L10 1 L11 1 L16 1 L20 1 L24 1 L25 1 L26 1 L27 1 L33 1 L41 1 L48 1 L53 1 L54 1 L56 1 L58 0 L61 0 L62 0 L63 0 L64 0 L67 0 L71 0 L72 0 L75 0 L79 0 L84 0 L94 0 L108 1 L128 5 L141 6 L145 6 L150 6 L151 6 L152 6 L154 7 L157 7 L159 7 L161 7 L163 8 L168 8 L174 8 L178 8 L182 8 L184 8 L186 8 L193 8 L201 5 L209 3 L218 3 L227 3 L238 3 L244 3 L247 3 L248 3 L252 3 L262 3 L271 3 L284 3 L295 3 L302 4 L304 5 L306 5 L315 7 L330 11 L339 13 L343 13 L346 13 L348 13 L349 13 L353 13 L368 13 L385 11 L395 11 L399 11 L401 10 L402 10 L408 9 L413 7 L424 5 L430 4 L431 4 L435 4 L445 4 L452 4 L462 6 L467 6 L473 8 L487 11 L498 13 L502 14 L506 14 L514 14 L534 14 L557 14 L570 14 L574 14 L582 12 L592 7 L599 5 L605 4 L611 4 L616 4 L617 4 L619 4 L626 4 L634 4 L641 4 L647 4 L650 4 L652 4 L654 4 L665 6 L687 8 L708 12 L712 13 L719 13 L742 11 L761 9 L777 8 L787 8 L800 8 L818 6 L829 6 L833 6 L851 4 L863 3 L876 2 L884 3 L897 3 L928 6 L948 6 L955 8 L960 9 L967 11 L975 11 L982 11 L986 12 L992 12 L996 12 L1002 12 L1005 12 L1009 12 L1011 11 L1014 10 L1022 10 L1025 10 " fill="none" stroke="black" /></svg>