<?xml version="1.0" encoding="utf-8" ?>
<svg baseProfile="tiny" height="218" version="1.2" viewBox="-3 -3 550 218" width="550" xmlns="http://www.w3.org/2000/svg" xmlns:ev="http://www.w3.org/2001/xml-events" xmlns:xlink="http://www.w3.org/1999/xlink"><defs /><path d="M0 129 L0 116 L2 91 L6 52 L9 32 L10 36 L19 75 L29 125 L31 137 L31 135 L32 123 L46 73 L50 59 L53 52 L53 53 L55 72 L60 120 L63 140 L63 138 L65 115 L68 95 L72 75 L74 73 L74 80 L77 110 L80 138 L81 143 L84 133 L99 84 L108 55 L112 45 L112 47 L112 62 L112 89 L112 103 L112 108 L112 106 L113 99 L119 83 L128 64 L132 56 L132 57 L139 100 L149 175 L152 196 L156 166 L166 103 L178 52 L178 58 L178 102 L181 139 L187 113 L209 32 L221 4 L221 27 L221 53 L224 83 L225 76 L232 43 L244 17 L244 19 L248 63 L252 116 L254 139 L254 147 L254 146 L255 128 L263 87 L272 28 L278 10 L279 36 L285 90 L288 114 L289 125 L289 124 L290 117 L300 83 L309 53 L314 39 L314 43 L316 87 L322 150 L324 169 L324 165 L329 122 L338 48 L340 37 L340 38 L341 64 L343 90 L345 117 L345 121 L345 120 L346 107 L358 52 L377 0 L379 19 L385 62 L388 89 L390 107 L390 102 L394 71 L403 34 L407 22 L407 26 L414 61 L422 107 L425 124 L426 127 L428 114 L432 81 L437 59 L441 43 L441 45 L444 66 L456 168 L463 218 L463 217 L463 196 L464 126 L470 93 L472 84 L472 92 L472 134 L472 157 L472 164 L472 163 L472 154 L487 76 L497 37 L497 38 L497 66 L497 105 L498 119 L498 121 L498 120 L500 113 L504 100 L511 77 L515 69 L521 66 L538 67 L547 78 L549 90 L550 92 L550 89 L550 79 L550 72 L550 64 L550 63 " fill="none" stroke="black" /></svg>