<?xml version="1.0" encoding="utf-8" ?>
<svg baseProfile="tiny" height="376" version="1.2" viewBox="-3 -3 920 376" width="920" xmlns="http://www.w3.org/2000/svg" xmlns:ev="http://www.w3.org/2001/xml-events" xmlns:xlink="http://www.w3.org/1999/xlink"><defs /><path d="M0 4 L1 4 L3 4 L7 3 L12 3 L18 1 L23 0 L25 0 L28 0 L36 0 L42 0 L51 0 L55 0 L56 0 L61 0 L71 0 L80 0 L101 4 L119 11 L134 19 L143 26 L151 35 L154 41 L154 42 L158 45 L165 50 L181 67 L201 84 L212 99 L217 109 L222 121 L224 127 L225 133 L227 142 L231 160 L232 171 L233 176 L233 180 L233 185 L233 187 L236 196 L243 210 L247 220 L254 232 L261 242 L265 252 L266 254 L267 257 L267 259 L271 263 L283 271 L295 276 L310 284 L320 289 L324 293 L325 293 L332 298 L347 305 L361 312 L368 313 L380 315 L384 316 L386 316 L388 316 L398 317 L422 319 L448 321 L457 323 L459 324 L464 324 L477 324 L487 324 L500 324 L510 324 L514 324 L516 324 L526 324 L545 324 L566 324 L575 324 L579 324 L582 324 L583 324 L588 324 L597 324 L609 325 L619 326 L620 326 L632 326 L660 328 L682 330 L687 332 L690 333 L695 334 L711 341 L728 348 L735 351 L741 353 L742 353 L753 353 L764 354 L776 355 L784 356 L785 357 L787 357 L788 358 L797 362 L809 367 L819 369 L823 370 L825 370 L826 370 L830 370 L837 370 L848 371 L854 372 L855 372 L862 373 L873 374 L885 375 L888 376 L894 376 L904 376 L910 376 L918 376 L920 376 " fill="none" stroke="black" /></svg>