<?xml version="1.0" encoding="utf-8" ?>
<svg baseProfile="tiny" height="153" version="1.2" viewBox="-3 -3 675 153" width="675" xmlns="http://www.w3.org/2000/svg" xmlns:ev="http://www.w3.org/2001/xml-events" xmlns:xlink="http://www.w3.org/1999/xlink"><defs /><path d="M0 49 L13 78 L59 110 L148 109 L222 81 L233 72 L233 63 L217 46 L189 24 L124 4 L95 11 L84 32 L84 47 L101 87 L137 121 L175 126 L255 108 L315 67 L325 50 L323 43 L288 22 L184 0 L108 10 L85 31 L72 59 L72 90 L81 112 L105 141 L142 153 L185 149 L216 129 L225 115 L227 96 L213 66 L191 52 L158 44 L129 54 L116 71 L116 76 L127 90 L162 107 L222 114 L255 106 L287 87 L294 71 L294 66 L282 59 L232 57 L168 81 L153 100 L148 114 L157 123 L190 133 L218 134 L259 123 L279 109 L283 95 L282 81 L239 59 L177 55 L141 70 L116 95 L112 108 L127 122 L162 134 L269 139 L359 112 L393 86 L416 57 L412 37 L361 20 L304 13 L259 23 L241 51 L236 79 L242 101 L266 136 L304 147 L369 135 L410 107 L445 80 L450 66 L439 41 L435 44 L427 70 L425 93 L428 117 L442 130 L472 133 L513 126 L556 108 L572 91 L575 77 L571 62 L551 33 L502 14 L451 17 L408 44 L397 68 L395 84 L399 96 L415 114 L445 129 L466 131 L525 115 L571 89 L581 73 L581 61 L571 52 L527 37 L443 37 L418 48 L404 68 L402 83 L412 101 L435 115 L492 125 L543 124 L585 111 L602 101 L625 83 L631 67 L628 56 L598 37 L555 33 L527 39 L521 48 L517 64 L518 87 L530 105 L542 111 L580 112 L645 99 L669 88 L674 82 L675 73 L667 60 L633 46 L595 40 L545 43 L531 55 L529 63 L528 73 L536 92 L558 109 L575 117 L597 120 L616 120 L630 120 L634 119 " fill="none" stroke="black" /></svg>