<?xml version="1.0" encoding="utf-8" ?>
<svg baseProfile="tiny" height="19" version="1.2" viewBox="-3 -3 927 19" width="927" xmlns="http://www.w3.org/2000/svg" xmlns:ev="http://www.w3.org/2001/xml-events" xmlns:xlink="http://www.w3.org/1999/xlink"><defs /><path d="M0 17 L1 17 L3 17 L4 17 L6 17 L7 17 L11 17 L15 17 L18 17 L20 17 L21 17 L28 17 L34 17 L43 17 L48 17 L50 17 L58 17 L74 17 L85 17 L96 17 L101 17 L108 17 L114 17 L117 17 L119 17 L125 17 L127 17 L130 17 L138 17 L149 17 L158 17 L162 17 L164 17 L171 17 L187 17 L205 16 L224 16 L230 15 L237 15 L245 15 L258 15 L290 13 L327 13 L355 13 L377 15 L396 18 L399 19 L407 19 L418 19 L445 18 L483 13 L508 10 L544 8 L556 8 L562 8 L581 6 L640 3 L693 2 L713 2 L720 2 L722 2 L723 2 L725 2 L727 2 L729 2 L732 2 L735 2 L736 2 L737 2 L740 2 L741 2 L742 2 L743 2 L744 2 L746 2 L748 2 L749 2 L751 2 L753 2 L755 2 L757 2 L758 2 L763 2 L774 0 L790 0 L800 0 L815 0 L834 0 L840 1 L846 2 L856 3 L863 4 L866 4 L871 5 L874 5 L875 5 L876 5 L877 5 L879 5 L883 5 L886 5 L887 5 L891 5 L902 5 L911 5 L913 5 L916 5 L919 5 L922 5 L923 5 L924 5 L925 5 L927 5 " fill="none" stroke="black" /></svg>