<?xml version="1.0" encoding="utf-8" ?>
<svg baseProfile="tiny" height="83" version="1.2" viewBox="-3 -3 1315 83" width="1315" xmlns="http://www.w3.org/2000/svg" xmlns:ev="http://www.w3.org/2001/xml-events" xmlns:xlink="http://www.w3.org/1999/xlink"><defs /><path d="M0 13 L13 40 L15 40 L20 40 L28 40 L38 40 L50 40 L61 40 L69 40 L81 38 L92 37 L105 36 L118 36 L134 36 L154 36 L167 35 L196 31 L213 32 L230 33 L247 36 L265 39 L279 39 L300 39 L316 39 L321 40 L347 40 L385 46 L397 46 L397 48 L397 49 L397 52 L395 52 L392 57 L389 72 L389 80 L388 83 L390 81 L409 77 L425 74 L445 68 L471 59 L495 50 L528 41 L563 35 L591 28 L633 24 L666 22 L715 13 L769 9 L802 7 L839 5 L869 4 L914 0 L957 0 L1003 0 L1055 0 L1105 4 L1141 11 L1187 20 L1241 36 L1273 46 L1300 53 L1315 57 " fill="none" stroke="black" /></svg>