<?xml version="1.0" encoding="utf-8" ?>
<svg baseProfile="tiny" height="556" version="1.2" viewBox="-3 -3 697 556" width="697" xmlns="http://www.w3.org/2000/svg" xmlns:ev="http://www.w3.org/2001/xml-events" xmlns:xlink="http://www.w3.org/1999/xlink"><defs /><path d="M224 556 L220 556 L200 548 L160 536 L129 525 L96 512 L76 502 L44 476 L24 450 L5 406 L0 375 L4 328 L16 289 L39 242 L107 153 L150 102 L202 62 L252 34 L302 7 L321 2 L361 0 L382 7 L401 18 L426 30 L450 45 L492 70 L513 85 L541 98 L557 110 L577 127 L599 146 L622 164 L639 182 L667 214 L685 238 L694 256 L697 271 L697 281 L696 301 L687 339 L678 367 L665 400 L653 422 L643 439 L625 462 L597 482 L567 502 L538 518 L529 521 L524 526 " fill="none" stroke="black" /></svg>