<?xml version="1.0" encoding="utf-8" ?>
<svg baseProfile="tiny" height="448" version="1.2" viewBox="-3 -3 708 448" width="708" xmlns="http://www.w3.org/2000/svg" xmlns:ev="http://www.w3.org/2001/xml-events" xmlns:xlink="http://www.w3.org/1999/xlink"><defs /><path d="M19 332 L7 269 L0 168 L0 144 L0 149 L5 178 L21 245 L31 264 L36 266 L36 236 L22 175 L20 169 L20 182 L54 306 L60 326 L62 327 L60 260 L39 68 L39 47 L40 50 L163 290 L247 439 L253 448 L252 442 L199 200 L191 147 L190 137 L190 136 L198 162 L204 180 L204 184 L204 180 L192 56 L192 3 L192 0 L192 5 L192 17 L197 36 L202 52 L211 88 L215 103 L216 112 L216 116 L216 124 L216 128 L216 132 L220 138 L223 144 L228 151 L233 154 L240 159 L244 163 L249 166 L257 171 L268 176 L275 180 L279 184 L284 189 L287 191 L292 191 L305 191 L323 191 L327 191 L331 191 L333 191 L337 191 L340 191 L344 191 L352 191 L363 191 L376 191 L392 191 L424 191 L432 188 L440 188 L441 188 L444 188 L458 183 L480 180 L497 180 L510 180 L521 180 L530 181 L544 181 L556 182 L576 187 L596 188 L608 191 L619 196 L628 199 L640 201 L654 204 L670 204 L685 200 L704 192 L708 190 L708 191 " fill="none" stroke="black" /></svg>