<?xml version="1.0" encoding="utf-8" ?>
<svg baseProfile="tiny" height="863.0" version="1.2" viewBox="-3 -3 1551.8000011444092 863.0" width="1551.8" xmlns="http://www.w3.org/2000/svg" xmlns:ev="http://www.w3.org/2001/xml-events" xmlns:xlink="http://www.w3.org/1999/xlink"><defs /><path d="M447 459.60000228881836 L447 463.60000228881836 L447 473.60000228881836 L450 476.60000228881836 L456 471.60000228881836 L459 457.60000228881836 L459 449.60000228881836 " fill="none" stroke="black" /><path d="M447 459.60000228881836 L447 463.60000228881836 L447 473.60000228881836 L450 476.60000228881836 L456 471.60000228881836 L459 457.60000228881836 L459 449.60000228881836 M468 377.60000228881836 L470 387.60000228881836 L482 436.60000228881836 L493 485.60000228881836 L505 524.6000022888184 L509 535.6000022888184 L510 537.6000022888184 L512 524.6000022888184 L508 464.60000228881836 L496 387.60000228881836 L493 349.60000228881836 L493 330.60000228881836 L493 332.60000228881836 L493 345.60000228881836 L494 369.60000228881836 L512 458.60000228881836 L516 485.60000228881836 L520 489.60000228881836 L525 470.60000228881836 L527 409.60000228881836 L527 363.60000228881836 L526 359.60000228881836 L526 365.60000228881836 L539 403.60000228881836 L553 449.60000228881836 L560 472.60000228881836 L564 473.60000228881836 L568 357.60000228881836 L568 269.60000228881836 L568 252.60000228881836 L568 262.60000228881836 L633 427.60000228881836 L682 556.6000022888184 L686 561.6000022888184 L680 381.60000228881836 L646 164.60000228881836 L620 46.60000228881836 L619 49.60000228881836 L648 229.60000228881836 L742 548.6000022888184 L845 833.6000022888184 L868 863.0 L880 843.0 L899 443.0 L864 240.0 L853 208.0 L855 232.0 L951 501.0 L1064 792.0 L1092 846.0 L1096 836.0 L1043 496.0 L1009 262.0 L1005 243.0 L1016 313.0 L1116 640.0 L1204 863.0 L1221 863.0 L1238 734.0 L1217 456.0 L1177 252.0 L1169 246.0 L1190 364.0 L1273 628.0 L1298 668.0 L1303 574.0 L1260 347.0 L1219 232.0 L1214 228.0 L1260 374.0 L1376 648.0 L1409 709.0 L1427 668.0 L1437 472.0 L1348 212.0 L1269 221.0 L1092 572.0 L1094 863.0 L1160 863.0 L1238 813.0 L1282 189.0 L1142 0.0 L648 21.60000228881836 L291 351.60000228881836 L260 605.6000022888184 L478 830.6000022888184 L791 830.0 L940 569.0 L809 376.0 L125 361.0 L0 555.0 L30 832.0 L517 863.0 L1453 646.0 L1551.8000011444092 325.0 L1469.8000011444092 106.0 L519.8000011444092 205.60000228881836 L16.80000114440918 580.6000022888184 L8 863.0 L389 863.0 L1390 404.0 L1551.8000011444092 0.0 " fill="none" stroke="black" /></svg>