<?xml version="1.0" encoding="utf-8" ?>
<svg baseProfile="tiny" height="565" version="1.2" viewBox="-3 -3 970 565" width="970" xmlns="http://www.w3.org/2000/svg" xmlns:ev="http://www.w3.org/2001/xml-events" xmlns:xlink="http://www.w3.org/1999/xlink"><defs /><path d="M130 278 L132 281 L133 287 L134 295 L137 311 L140 336 L140 351 L140 373 L140 386 L140 391 L140 394 L138 399 L137 401 L137 402 L138 402 L141 395 L145 379 L147 359 L147 347 L147 334 L147 324 L147 317 L147 312 L144 303 L143 294 L143 283 L142 275 L142 272 L142 271 L142 269 L145 269 L149 269 L153 271 L157 277 L161 295 L165 313 L168 342 L168 376 L166 411 L165 433 L165 439 L165 443 L172 426 L179 412 L185 395 L187 360 L186 322 L175 251 L171 193 L171 170 L171 167 L173 167 L177 170 L189 188 L206 233 L220 301 L229 370 L243 439 L249 472 L249 491 L249 501 L249 504 L254 499 L267 470 L279 392 L281 325 L277 252 L274 231 L274 223 L280 207 L286 202 L312 207 L344 226 L409 311 L438 392 L445 460 L449 506 L453 553 L453 562 L453 565 L465 531 L504 377 L544 212 L549 175 L541 115 L532 77 L575 25 L634 0 L668 25 L709 110 L728 252 L730 335 L718 381 L700 429 L695 466 L701 491 L725 501 L796 470 L843 422 L874 368 L871 327 L853 297 L818 246 L801 204 L852 155 L902 152 L941 165 L961 195 L969 216 L970 275 L958 345 L949 406 L945 431 L941 452 L941 459 L941 456 L943 398 L940 348 L912 309 L795 219 L745 186 L649 159 L265 132 L0 95 " fill="none" stroke="black" /></svg>