<?xml version="1.0" encoding="utf-8" ?>
<svg baseProfile="tiny" height="324" version="1.2" viewBox="-3 -3 363 324" width="363" xmlns="http://www.w3.org/2000/svg" xmlns:ev="http://www.w3.org/2001/xml-events" xmlns:xlink="http://www.w3.org/1999/xlink"><defs /><path d="M141 324 L141 321 L140 312 L140 309 L143 309 L146 313 L147 317 L149 319 L152 314 L152 311 L152 310 L155 311 L158 314 L158 315 L160 315 L162 311 L162 307 L162 310 L162 314 L162 317 L164 315 L168 311 L168 307 " fill="none" stroke="black" /><path d="M141 324 L141 321 L140 312 L140 309 L143 309 L146 313 L147 317 L149 319 L152 314 L152 311 L152 310 L155 311 L158 314 L158 315 L160 315 L162 311 L162 307 L162 310 L162 314 L162 317 L164 315 L168 311 L168 307 M105 291 L106 288 L110 287 L112 287 L120 291 L124 295 L128 295 L132 289 L132 282 L132 278 L132 281 L132 284 L132 288 L136 288 L140 288 L147 288 L155 289 L163 291 L170 297 L174 297 L176 293 L176 290 L176 288 L179 288 L191 288 L194 288 L197 286 " fill="none" stroke="black" /><path d="M141 324 L141 321 L140 312 L140 309 L143 309 L146 313 L147 317 L149 319 L152 314 L152 311 L152 310 L155 311 L158 314 L158 315 L160 315 L162 311 L162 307 L162 310 L162 314 L162 317 L164 315 L168 311 L168 307 M105 291 L106 288 L110 287 L112 287 L120 291 L124 295 L128 295 L132 289 L132 282 L132 278 L132 281 L132 284 L132 288 L136 288 L140 288 L147 288 L155 289 L163 291 L170 297 L174 297 L176 293 L176 290 L176 288 L179 288 L191 288 L194 288 L197 286 M80 265 L80 257 L79 249 L80 219 L80 205 L80 203 L83 204 L88 216 L92 225 L104 233 L114 234 L132 226 L134 224 L140 224 L164 235 L173 243 L176 244 L177 244 L184 213 L185 202 L194 219 L215 239 L224 249 L224 251 L226 251 L234 247 L246 243 " fill="none" stroke="black" /><path d="M141 324 L141 321 L140 312 L140 309 L143 309 L146 313 L147 317 L149 319 L152 314 L152 311 L152 310 L155 311 L158 314 L158 315 L160 315 L162 311 L162 307 L162 310 L162 314 L162 317 L164 315 L168 311 L168 307 M105 291 L106 288 L110 287 L112 287 L120 291 L124 295 L128 295 L132 289 L132 282 L132 278 L132 281 L132 284 L132 288 L136 288 L140 288 L147 288 L155 289 L163 291 L170 297 L174 297 L176 293 L176 290 L176 288 L179 288 L191 288 L194 288 L197 286 M80 265 L80 257 L79 249 L80 219 L80 205 L80 203 L83 204 L88 216 L92 225 L104 233 L114 234 L132 226 L134 224 L140 224 L164 235 L173 243 L176 244 L177 244 L184 213 L185 202 L194 219 L215 239 L224 249 L224 251 L226 251 L234 247 L246 243 M3 152 L0 120 L1 36 L8 1 L12 0 L48 35 L104 127 L130 166 L136 170 L140 170 L146 139 L152 122 L153 123 L180 155 L208 178 L213 178 L227 158 L238 139 L252 146 L317 238 L360 308 L363 314 " fill="none" stroke="black" /></svg>