<?xml version="1.0" encoding="utf-8" ?>
<svg baseProfile="tiny" height="782" version="1.2" viewBox="-3 -3 1327.0 782" width="1327.0" xmlns="http://www.w3.org/2000/svg" xmlns:ev="http://www.w3.org/2001/xml-events" xmlns:xlink="http://www.w3.org/1999/xlink"><defs /><path d="M590.1999988555908 408 L591.1999988555908 413 L639.1999988555908 500 L652.1999988555908 528 L655.1999988555908 530 L651.1999988555908 490 L609.1999988555908 308 L603.1999988555908 293 L608.1999988555908 308 L656.1999988555908 436 L665.1999988555908 458 L666.1999988555908 457 L663.1999988555908 402 L656.1999988555908 374 L656.1999988555908 373 L734.1999988555908 506 L767.1999988555908 567 L771.1999988555908 572 L771.1999988555908 545 L747.1999988555908 323 L735.1999988555908 243 L735.1999988555908 246 L760.1999988555908 336 L786.1999988555908 400 L792.1999988555908 413 L767.1999988555908 312 L755.1999988555908 287 L755.1999988555908 288 L791.1999988555908 372 L823.1999988555908 457 L829.1999988555908 471 L829.1999988555908 472 L809.1999988555908 383 L786.1999988555908 302 L783.1999988555908 300 L795.1999988555908 334 L823.1999988555908 420 L827.1999988555908 442 L827.1999988555908 440 L790.1999988555908 380 L767.1999988555908 351 L765.1999988555908 356 L771.1999988555908 385 L780.1999988555908 419 L779.1999988555908 423 L705.1999988555908 386 L532.1999988555908 317 L485.1999988555908 312 L471.1999988555908 342 L458.1999988555908 396 L451.1999988555908 433 L426.1999988555908 436 L303.1999988555908 417 L203.19999885559082 399 L186.19999885559082 404 L200.19999885559082 439 L235.19999885559082 488 L287.1999988555908 508 L323.1999988555908 492 L345.1999988555908 448 L346.1999988555908 440 L385.1999988555908 471 L635.1999988555908 664 L807.1999988555908 777 L816.1999988555908 782 L769.1999988555908 670 L591.1999988555908 492 L492.1999988555908 469 L473.1999988555908 484 L470.1999988555908 515 L473.1999988555908 540 L479.1999988555908 534 L444.1999988555908 506 L308.1999988555908 491 L234.19999885559082 500 L239.19999885559082 502 L710.1999988555908 432 L1088.1999988555908 310 L1101.1999988555908 298 L871.1999988555908 316 L471.1999988555908 464 L352.1999988555908 521 L353.1999988555908 523 L656.1999988555908 335 L811.1999988555908 164 L818.1999988555908 131 L738.1999988555908 186 L549.1999988555908 504 L568.1999988555908 612 L797.1999988555908 605 L926.1999988555908 452 L917.1999988555908 296 L617.1999988555908 201 L285.1999988555908 346 L143.19999885559082 584 L187.19999885559082 651 L528.1999988555908 604 L709.1999988555908 399 L682.1999988555908 260 L290.1999988555908 287 L109.19999885559082 441 L131.19999885559082 574 L599.1999988555908 632 L1201.1999988555908 364 L1327.0 169 L1164.0 100 L738.0 262 L498.0 516 L546.0 663 L1115.0 749 L1327.0 628 L1315.0 411 L1071.0 153 L846.0 95 L717.0 179 L672.0 421 L748.0 668 L774.0 708 L776.0 706 L655.0 537 L333.0 352 L105.0 388 L0.0 576 L8.0 740 L45.0 772 L114.0 700 L202.0 304 L177.0 0 L163.0 0 L164.0 15 L307.0 282 L658.0 560 L868.0 620 L882.0 599 L776.0 359 L618.0 220 L556.0 191 L551.0 216 L629.0 470 L668.0 582 L677.0 597 L667.0 469 L596.0 205 L523.0 60 L460.0 50 L298.0 265 L264.0 446 L277.0 504 L300.0 515 L344.0 498 " fill="none" stroke="black" /></svg>