<?xml version="1.0" encoding="utf-8" ?>
<svg baseProfile="tiny" height="487" version="1.2" viewBox="-3 -3 1094 487" width="1094" xmlns="http://www.w3.org/2000/svg" xmlns:ev="http://www.w3.org/2001/xml-events" xmlns:xlink="http://www.w3.org/1999/xlink"><defs /><path d="M557 216 L543 238 L535 260 L531 276 L531 285 L531 289 L533 300 L534 304 L538 312 L545 322 L553 332 L556 336 L564 343 L575 352 L591 356 L596 361 L612 366 L655 374 L671 379 L684 381 L732 381 L771 377 L799 370 L839 342 L876 314 L887 299 L891 256 L888 244 L882 233 L871 221 L856 206 L846 199 L835 192 L823 189 L807 186 L794 183 L776 180 L736 178 L724 178 L711 176 L694 176 L685 175 L681 175 L679 175 L678 175 L677 175 L676 176 " fill="none" stroke="black" /><path d="M557 216 L543 238 L535 260 L531 276 L531 285 L531 289 L533 300 L534 304 L538 312 L545 322 L553 332 L556 336 L564 343 L575 352 L591 356 L596 361 L612 366 L655 374 L671 379 L684 381 L732 381 L771 377 L799 370 L839 342 L876 314 L887 299 L891 256 L888 244 L882 233 L871 221 L856 206 L846 199 L835 192 L823 189 L807 186 L794 183 L776 180 L736 178 L724 178 L711 176 L694 176 L685 175 L681 175 L679 175 L678 175 L677 175 L676 176 M783 120 L757 120 L710 116 L647 111 L593 109 L535 116 L456 143 L391 195 L333 258 L317 301 L319 334 L321 346 L323 352 L330 359 L353 380 L372 394 L400 404 L455 419 L507 430 L555 436 L595 436 L647 443 L681 449 L711 457 L726 457 L764 455 L811 447 L837 442 L880 431 L958 410 L1004 389 L1013 384 L1027 368 L1051 352 L1063 343 L1076 328 L1086 314 L1092 306 L1094 292 L1088 272 L1082 260 L1067 244 L1039 223 L1019 206 L997 189 L970 176 L950 164 L931 156 L913 146 L902 142 L889 140 L883 139 L868 135 L864 135 L859 135 L840 131 L830 131 L825 131 L819 128 L811 124 L808 124 L804 124 L803 123 L799 122 L795 122 L788 122 L785 121 " fill="none" stroke="black" /><path d="M557 216 L543 238 L535 260 L531 276 L531 285 L531 289 L533 300 L534 304 L538 312 L545 322 L553 332 L556 336 L564 343 L575 352 L591 356 L596 361 L612 366 L655 374 L671 379 L684 381 L732 381 L771 377 L799 370 L839 342 L876 314 L887 299 L891 256 L888 244 L882 233 L871 221 L856 206 L846 199 L835 192 L823 189 L807 186 L794 183 L776 180 L736 178 L724 178 L711 176 L694 176 L685 175 L681 175 L679 175 L678 175 L677 175 L676 176 M783 120 L757 120 L710 116 L647 111 L593 109 L535 116 L456 143 L391 195 L333 258 L317 301 L319 334 L321 346 L323 352 L330 359 L353 380 L372 394 L400 404 L455 419 L507 430 L555 436 L595 436 L647 443 L681 449 L711 457 L726 457 L764 455 L811 447 L837 442 L880 431 L958 410 L1004 389 L1013 384 L1027 368 L1051 352 L1063 343 L1076 328 L1086 314 L1092 306 L1094 292 L1088 272 L1082 260 L1067 244 L1039 223 L1019 206 L997 189 L970 176 L950 164 L931 156 L913 146 L902 142 L889 140 L883 139 L868 135 L864 135 L859 135 L840 131 L830 131 L825 131 L819 128 L811 124 L808 124 L804 124 L803 123 L799 122 L795 122 L788 122 L785 121 M830 10 L807 12 L753 18 L664 7 L578 2 L414 2 L305 0 L227 2 L157 13 L79 44 L35 63 L5 106 L0 155 L3 246 L9 292 L15 312 L37 335 L70 362 L104 377 L154 396 L161 327 L170 333 L196 334 L312 174 L303 258 L359 271 L435 282 L685 351 L935 448 L1042 485 L1051 487 L1062 487 L1074 486 L1076 486 L1078 486 " fill="none" stroke="black" /></svg>