<?xml version="1.0" encoding="utf-8" ?>
<svg baseProfile="tiny" height="242" version="1.2" viewBox="-3 -3 453 242" width="453" xmlns="http://www.w3.org/2000/svg" xmlns:ev="http://www.w3.org/2001/xml-events" xmlns:xlink="http://www.w3.org/1999/xlink"><defs /><path d="M326 102 L325 112 L322 121 L320 124 L315 129 L311 132 L294 132 L278 132 L266 132 L253 134 L245 134 L235 134 L230 134 L225 134 L219 134 L214 130 L210 126 L208 121 L208 116 L208 111 L208 107 L208 103 L203 98 L200 95 L195 91 " fill="none" stroke="black" /><path d="M326 102 L325 112 L322 121 L320 124 L315 129 L311 132 L294 132 L278 132 L266 132 L253 134 L245 134 L235 134 L230 134 L225 134 L219 134 L214 130 L210 126 L208 121 L208 116 L208 111 L208 107 L208 103 L203 98 L200 95 L195 91 M259 84 L264 76 L262 77 L259 80 L256 84 L255 87 L255 90 L255 91 L257 91 L261 91 L265 88 L268 87 L271 83 L274 76 L274 68 L274 64 L272 62 L266 62 L260 62 L256 65 L252 68 L251 77 L251 80 L254 84 L258 90 L261 91 L265 91 L268 91 L270 87 L274 78 L274 68 L274 64 L270 62 L266 62 L260 62 L257 64 L255 68 L255 72 L258 76 L262 79 L265 79 L268 79 L270 77 L274 70 L274 65 L272 60 L267 60 L264 60 L260 64 L258 72 L258 76 L258 80 L258 83 L261 83 L264 83 L266 83 L268 80 L270 76 L270 68 L270 64 L266 64 L262 65 L258 68 L258 73 L258 77 L261 80 L262 82 L264 82 L269 77 L271 70 L271 65 L271 64 L270 65 L266 69 L262 78 L260 82 L259 87 L257 88 L255 88 L255 83 L258 78 L262 74 L265 74 L266 74 " fill="none" stroke="black" /><path d="M326 102 L325 112 L322 121 L320 124 L315 129 L311 132 L294 132 L278 132 L266 132 L253 134 L245 134 L235 134 L230 134 L225 134 L219 134 L214 130 L210 126 L208 121 L208 116 L208 111 L208 107 L208 103 L203 98 L200 95 L195 91 M259 84 L264 76 L262 77 L259 80 L256 84 L255 87 L255 90 L255 91 L257 91 L261 91 L265 88 L268 87 L271 83 L274 76 L274 68 L274 64 L272 62 L266 62 L260 62 L256 65 L252 68 L251 77 L251 80 L254 84 L258 90 L261 91 L265 91 L268 91 L270 87 L274 78 L274 68 L274 64 L270 62 L266 62 L260 62 L257 64 L255 68 L255 72 L258 76 L262 79 L265 79 L268 79 L270 77 L274 70 L274 65 L272 60 L267 60 L264 60 L260 64 L258 72 L258 76 L258 80 L258 83 L261 83 L264 83 L266 83 L268 80 L270 76 L270 68 L270 64 L266 64 L262 65 L258 68 L258 73 L258 77 L261 80 L262 82 L264 82 L269 77 L271 70 L271 65 L271 64 L270 65 L266 69 L262 78 L260 82 L259 87 L257 88 L255 88 L255 83 L258 78 L262 74 L265 74 L266 74 M0 83 L0 80 L2 70 L2 60 L2 56 L2 52 L3 44 L8 18 L8 2 L8 0 L11 4 L13 13 L26 37 L55 80 L79 107 L106 142 L122 165 L152 205 L167 222 L179 236 L182 240 L182 242 " fill="none" stroke="black" /><path d="M326 102 L325 112 L322 121 L320 124 L315 129 L311 132 L294 132 L278 132 L266 132 L253 134 L245 134 L235 134 L230 134 L225 134 L219 134 L214 130 L210 126 L208 121 L208 116 L208 111 L208 107 L208 103 L203 98 L200 95 L195 91 M259 84 L264 76 L262 77 L259 80 L256 84 L255 87 L255 90 L255 91 L257 91 L261 91 L265 88 L268 87 L271 83 L274 76 L274 68 L274 64 L272 62 L266 62 L260 62 L256 65 L252 68 L251 77 L251 80 L254 84 L258 90 L261 91 L265 91 L268 91 L270 87 L274 78 L274 68 L274 64 L270 62 L266 62 L260 62 L257 64 L255 68 L255 72 L258 76 L262 79 L265 79 L268 79 L270 77 L274 70 L274 65 L272 60 L267 60 L264 60 L260 64 L258 72 L258 76 L258 80 L258 83 L261 83 L264 83 L266 83 L268 80 L270 76 L270 68 L270 64 L266 64 L262 65 L258 68 L258 73 L258 77 L261 80 L262 82 L264 82 L269 77 L271 70 L271 65 L271 64 L270 65 L266 69 L262 78 L260 82 L259 87 L257 88 L255 88 L255 83 L258 78 L262 74 L265 74 L266 74 M0 83 L0 80 L2 70 L2 60 L2 56 L2 52 L3 44 L8 18 L8 2 L8 0 L11 4 L13 13 L26 37 L55 80 L79 107 L106 142 L122 165 L152 205 L167 222 L179 236 L182 240 L182 242 M424 39 L431 35 L445 32 L447 32 L450 32 L453 35 L453 40 L447 50 L438 62 L403 108 L383 136 L364 174 L356 196 L351 206 L350 209 L347 212 L344 216 L343 216 L342 216 " fill="none" stroke="black" /></svg>