<?xml version="1.0" encoding="utf-8" ?>
<svg baseProfile="tiny" height="325" version="1.2" viewBox="-3 -3 363 325" width="363" xmlns="http://www.w3.org/2000/svg" xmlns:ev="http://www.w3.org/2001/xml-events" xmlns:xlink="http://www.w3.org/1999/xlink"><defs /><circle cx="148" cy="197" fill="black" r="1" /><path d="M152 156 L144 168 L139 172 L111 184 L97 191 L93 195 L91 200 L91 204 L95 208 L105 212 L114 216 L128 223 L135 225 L139 225 L145 224 L160 220 L171 207 L176 201 L176 194 L176 187 L176 182 L176 178 L173 174 L169 169 L165 166 L161 164 L156 164 L152 164 L149 164 L146 164 L140 164 L138 165 L138 169 L138 173 L136 184 L133 193 L133 204 L133 208 L133 212 L134 215 L138 218 L154 222 L169 228 L195 230 L207 231 L212 231 L220 226 L224 222 L226 199 L232 154 L231 144 L226 137 L209 119 L182 108 L128 102 L93 110 L52 131 L36 142 L34 150 L36 162 L49 194 L78 219 L114 252 L156 274 L227 286 L256 286 L272 283 L328 227 L359 180 L363 146 L342 99 L284 53 L200 7 L125 0 L46 28 L14 45 L0 76 L3 132 L32 222 L83 276 L200 315 L256 325 " fill="none" stroke="black" /></svg>