<?xml version="1.0" encoding="utf-8" ?>
<svg baseProfile="tiny" height="435" version="1.2" viewBox="-3 -3 505 435" width="505" xmlns="http://www.w3.org/2000/svg" xmlns:ev="http://www.w3.org/2001/xml-events" xmlns:xlink="http://www.w3.org/1999/xlink"><defs /><path d="M0 299 L0 301 L1 304 L1 305 L1 306 L3 310 L6 321 L14 330 L27 345 L33 353 L37 360 L42 367 L57 379 L73 388 L85 394 L89 400 L95 404 L105 411 L119 417 L139 423 L159 429 L181 434 L187 435 L194 435 L225 435 L250 435 L271 435 L289 435 L301 435 L307 435 L322 429 L341 424 L365 418 L378 413 L385 409 L391 408 L404 401 L421 396 L431 393 L435 393 L439 390 L449 383 L455 376 L461 365 L468 355 L473 345 L481 330 L484 321 L489 312 L493 308 L497 301 L499 297 L500 293 L501 289 L503 280 L505 272 L505 261 L505 257 L505 251 L504 242 L503 234 L502 226 L502 209 L502 199 L499 191 L494 177 L492 161 L492 157 L491 154 L491 141 L490 140 L490 139 L489 139 L489 140 L491 144 L494 147 L497 152 L500 152 L499 150 L497 148 L497 133 L497 113 L497 97 L497 89 L497 81 L497 66 L497 52 L497 43 L495 37 L493 29 L493 21 L493 4 L493 0 " fill="none" stroke="black" /></svg>