<?xml version="1.0" encoding="utf-8" ?>
<svg baseProfile="tiny" height="542" version="1.2" viewBox="-3 -3 1042 542" width="1042" xmlns="http://www.w3.org/2000/svg" xmlns:ev="http://www.w3.org/2001/xml-events" xmlns:xlink="http://www.w3.org/1999/xlink"><defs /><path d="M75 293 L77 293 L83 291 L110 286 L129 284 L145 282 L160 282 L166 282 L175 282 L183 282 L187 282 L190 282 L195 282 L205 284 L215 286 L225 287 L234 290 L245 292 L259 295 L275 299 L286 306 L295 309 L307 318 L317 322 L325 328 L328 331 L337 337 L353 343 L373 354 L391 363 L400 373 L423 386 L450 397 L491 414 L525 440 L567 462 L581 467 L513 441 L298 370 L166 314 L70 278 L26 256 L3 243 L0 242 " fill="none" stroke="black" /><circle cx="203" cy="229" fill="black" r="1" /><path d="M75 293 L77 293 L83 291 L110 286 L129 284 L145 282 L160 282 L166 282 L175 282 L183 282 L187 282 L190 282 L195 282 L205 284 L215 286 L225 287 L234 290 L245 292 L259 295 L275 299 L286 306 L295 309 L307 318 L317 322 L325 328 L328 331 L337 337 L353 343 L373 354 L391 363 L400 373 L423 386 L450 397 L491 414 L525 440 L567 462 L581 467 L513 441 L298 370 L166 314 L70 278 L26 256 L3 243 L0 242 M218 248 L219 248 L223 248 L242 249 L259 249 L266 250 L267 250 L270 250 L276 251 L283 252 L294 253 L302 253 L311 254 L315 254 L321 254 L328 254 L337 254 L343 254 L356 254 L372 254 L386 254 L399 254 L412 254 L434 254 L464 254 L502 258 L531 263 L555 273 L588 282 L607 288 L652 308 L687 334 L726 358 L747 376 L787 414 L811 433 L823 446 L825 449 " fill="none" stroke="black" /><path d="M75 293 L77 293 L83 291 L110 286 L129 284 L145 282 L160 282 L166 282 L175 282 L183 282 L187 282 L190 282 L195 282 L205 284 L215 286 L225 287 L234 290 L245 292 L259 295 L275 299 L286 306 L295 309 L307 318 L317 322 L325 328 L328 331 L337 337 L353 343 L373 354 L391 363 L400 373 L423 386 L450 397 L491 414 L525 440 L567 462 L581 467 L513 441 L298 370 L166 314 L70 278 L26 256 L3 243 L0 242 M218 248 L219 248 L223 248 L242 249 L259 249 L266 250 L267 250 L270 250 L276 251 L283 252 L294 253 L302 253 L311 254 L315 254 L321 254 L328 254 L337 254 L343 254 L356 254 L372 254 L386 254 L399 254 L412 254 L434 254 L464 254 L502 258 L531 263 L555 273 L588 282 L607 288 L652 308 L687 334 L726 358 L747 376 L787 414 L811 433 L823 446 L825 449 M189 134 L251 134 L319 134 L411 134 L516 145 L602 169 L670 196 L712 219 L784 286 L831 348 L863 394 L876 431 " fill="none" stroke="black" /><path d="M75 293 L77 293 L83 291 L110 286 L129 284 L145 282 L160 282 L166 282 L175 282 L183 282 L187 282 L190 282 L195 282 L205 284 L215 286 L225 287 L234 290 L245 292 L259 295 L275 299 L286 306 L295 309 L307 318 L317 322 L325 328 L328 331 L337 337 L353 343 L373 354 L391 363 L400 373 L423 386 L450 397 L491 414 L525 440 L567 462 L581 467 L513 441 L298 370 L166 314 L70 278 L26 256 L3 243 L0 242 M218 248 L219 248 L223 248 L242 249 L259 249 L266 250 L267 250 L270 250 L276 251 L283 252 L294 253 L302 253 L311 254 L315 254 L321 254 L328 254 L337 254 L343 254 L356 254 L372 254 L386 254 L399 254 L412 254 L434 254 L464 254 L502 258 L531 263 L555 273 L588 282 L607 288 L652 308 L687 334 L726 358 L747 376 L787 414 L811 433 L823 446 L825 449 M189 134 L251 134 L319 134 L411 134 L516 145 L602 169 L670 196 L712 219 L784 286 L831 348 L863 394 L876 431 M216 0 L288 10 L376 25 L447 36 L547 54 L651 86 L752 117 L822 154 L930 267 L999 383 L1038 498 L1042 530 L1042 542 " fill="none" stroke="black" /></svg>