<?xml version="1.0" encoding="utf-8" ?>
<svg baseProfile="tiny" height="561" version="1.2" viewBox="-3 -3 1339 561" width="1339" xmlns="http://www.w3.org/2000/svg" xmlns:ev="http://www.w3.org/2001/xml-events" xmlns:xlink="http://www.w3.org/1999/xlink"><defs /><path d="M50 339 L50 336 L49 332 L64 211 L64 202 L66 194 L71 183 L72 176 L75 171 L78 168 L83 168 L87 165 L101 159 L118 159 L126 159 L130 162 L132 167 L132 172 L132 177 L132 182 L132 187 L132 194 L132 206 L132 217 L132 227 L132 235 L132 247 L132 260 L132 276 L133 289 L133 302 L136 321 L136 331 L136 342 L140 349 L145 370 L152 387 L164 400 L171 410 L176 415 L180 419 L184 423 L193 432 L208 438 L220 443 L228 448 L231 449 L233 449 L236 449 L240 453 L250 456 L266 462 L277 466 L288 472 L296 476 L306 480 L310 482 L313 483 L312 483 L313 484 L322 486 L326 487 L334 489 L343 490 L351 493 L357 494 L363 496 L370 502 L376 505 L380 512 L384 515 L392 520 L400 523 L414 526 L421 526 L432 526 L449 526 L468 526 L484 527 L511 527 L525 529 L538 529 L545 530 L563 531 L572 531 L583 532 L593 532 L611 533 L626 533 L636 534 L656 534 L666 534 L674 535 L686 535 L704 535 L739 535 L779 536 L803 540 L815 540 L825 540 L839 543 L852 543 L861 543 L872 543 L876 543 L884 543 L888 543 L896 542 L905 538 L909 536 L922 533 L934 533 L954 533 L975 533 L1008 535 L1032 540 L1063 549 L1100 558 L1116 561 L1121 561 L975 503 L764 415 L514 290 L348 182 L284 125 L248 88 L221 53 L205 33 L188 16 L186 11 L186 9 L186 8 L186 5 L188 3 L192 0 L194 0 " fill="none" stroke="black" /><path d="M50 339 L50 336 L49 332 L64 211 L64 202 L66 194 L71 183 L72 176 L75 171 L78 168 L83 168 L87 165 L101 159 L118 159 L126 159 L130 162 L132 167 L132 172 L132 177 L132 182 L132 187 L132 194 L132 206 L132 217 L132 227 L132 235 L132 247 L132 260 L132 276 L133 289 L133 302 L136 321 L136 331 L136 342 L140 349 L145 370 L152 387 L164 400 L171 410 L176 415 L180 419 L184 423 L193 432 L208 438 L220 443 L228 448 L231 449 L233 449 L236 449 L240 453 L250 456 L266 462 L277 466 L288 472 L296 476 L306 480 L310 482 L313 483 L312 483 L313 484 L322 486 L326 487 L334 489 L343 490 L351 493 L357 494 L363 496 L370 502 L376 505 L380 512 L384 515 L392 520 L400 523 L414 526 L421 526 L432 526 L449 526 L468 526 L484 527 L511 527 L525 529 L538 529 L545 530 L563 531 L572 531 L583 532 L593 532 L611 533 L626 533 L636 534 L656 534 L666 534 L674 535 L686 535 L704 535 L739 535 L779 536 L803 540 L815 540 L825 540 L839 543 L852 543 L861 543 L872 543 L876 543 L884 543 L888 543 L896 542 L905 538 L909 536 L922 533 L934 533 L954 533 L975 533 L1008 535 L1032 540 L1063 549 L1100 558 L1116 561 L1121 561 L975 503 L764 415 L514 290 L348 182 L284 125 L248 88 L221 53 L205 33 L188 16 L186 11 L186 9 L186 8 L186 5 L188 3 L192 0 L194 0 M0 262 L4 238 L10 226 L14 217 L25 203 L38 191 L49 179 L56 175 L65 171 L73 171 L78 171 L82 173 L86 178 L92 183 L95 190 L100 198 L104 203 L108 207 L112 215 L120 225 L125 232 L129 240 L135 244 L139 248 L144 252 L148 257 L158 260 L164 262 L168 266 L172 268 L179 272 L183 275 L187 278 L192 282 L199 285 L208 291 L212 293 L216 295 L224 297 L232 300 L241 301 L248 303 L264 306 L277 310 L282 311 L283 311 L283 313 L281 313 L279 313 L277 313 L281 314 L288 315 L299 316 L307 318 L313 318 L317 319 L328 320 L336 322 L346 324 L356 325 L363 327 L376 327 L390 329 L406 329 L415 331 L427 333 L440 333 L453 333 L464 335 L472 335 L484 335 L504 335 L516 335 L522 335 L537 335 L552 335 L562 335 L570 335 L585 335 L606 335 L619 335 L632 335 L648 337 L672 338 L688 340 L696 340 L709 343 L730 343 L734 343 L739 343 L764 343 L788 340 L813 340 L836 343 L867 343 L908 349 L956 355 L995 355 L1038 363 L1076 367 L1086 367 " fill="none" stroke="black" /><path d="M50 339 L50 336 L49 332 L64 211 L64 202 L66 194 L71 183 L72 176 L75 171 L78 168 L83 168 L87 165 L101 159 L118 159 L126 159 L130 162 L132 167 L132 172 L132 177 L132 182 L132 187 L132 194 L132 206 L132 217 L132 227 L132 235 L132 247 L132 260 L132 276 L133 289 L133 302 L136 321 L136 331 L136 342 L140 349 L145 370 L152 387 L164 400 L171 410 L176 415 L180 419 L184 423 L193 432 L208 438 L220 443 L228 448 L231 449 L233 449 L236 449 L240 453 L250 456 L266 462 L277 466 L288 472 L296 476 L306 480 L310 482 L313 483 L312 483 L313 484 L322 486 L326 487 L334 489 L343 490 L351 493 L357 494 L363 496 L370 502 L376 505 L380 512 L384 515 L392 520 L400 523 L414 526 L421 526 L432 526 L449 526 L468 526 L484 527 L511 527 L525 529 L538 529 L545 530 L563 531 L572 531 L583 532 L593 532 L611 533 L626 533 L636 534 L656 534 L666 534 L674 535 L686 535 L704 535 L739 535 L779 536 L803 540 L815 540 L825 540 L839 543 L852 543 L861 543 L872 543 L876 543 L884 543 L888 543 L896 542 L905 538 L909 536 L922 533 L934 533 L954 533 L975 533 L1008 535 L1032 540 L1063 549 L1100 558 L1116 561 L1121 561 L975 503 L764 415 L514 290 L348 182 L284 125 L248 88 L221 53 L205 33 L188 16 L186 11 L186 9 L186 8 L186 5 L188 3 L192 0 L194 0 M0 262 L4 238 L10 226 L14 217 L25 203 L38 191 L49 179 L56 175 L65 171 L73 171 L78 171 L82 173 L86 178 L92 183 L95 190 L100 198 L104 203 L108 207 L112 215 L120 225 L125 232 L129 240 L135 244 L139 248 L144 252 L148 257 L158 260 L164 262 L168 266 L172 268 L179 272 L183 275 L187 278 L192 282 L199 285 L208 291 L212 293 L216 295 L224 297 L232 300 L241 301 L248 303 L264 306 L277 310 L282 311 L283 311 L283 313 L281 313 L279 313 L277 313 L281 314 L288 315 L299 316 L307 318 L313 318 L317 319 L328 320 L336 322 L346 324 L356 325 L363 327 L376 327 L390 329 L406 329 L415 331 L427 333 L440 333 L453 333 L464 335 L472 335 L484 335 L504 335 L516 335 L522 335 L537 335 L552 335 L562 335 L570 335 L585 335 L606 335 L619 335 L632 335 L648 337 L672 338 L688 340 L696 340 L709 343 L730 343 L734 343 L739 343 L764 343 L788 340 L813 340 L836 343 L867 343 L908 349 L956 355 L995 355 L1038 363 L1076 367 L1086 367 M37 264 L61 257 L94 251 L114 250 L128 254 L144 262 L155 271 L161 283 L171 310 L184 343 L196 359 L231 392 L272 421 L331 440 L388 455 L469 467 L513 469 L514 470 L517 462 L546 455 L624 450 L686 450 L784 453 L916 469 L1036 492 L1174 522 L1339 557 L1339 560 " fill="none" stroke="black" /></svg>