<?xml version="1.0" encoding="utf-8" ?>
<svg baseProfile="tiny" height="287" version="1.2" viewBox="-3 -3 725 287" width="725" xmlns="http://www.w3.org/2000/svg" xmlns:ev="http://www.w3.org/2001/xml-events" xmlns:xlink="http://www.w3.org/1999/xlink"><defs /><path d="M0 0 L2 0 L6 0 L10 0 L14 0 L18 0 L19 0 L21 0 L23 0 L26 0 L27 0 L30 1 L32 1 L36 1 L42 1 L50 1 L57 1 L60 1 L66 1 L69 3 L70 5 L70 9 L73 12 L74 17 L74 21 L74 31 L74 39 L75 47 L75 50 L76 55 L77 59 L81 63 L84 67 L89 71 L93 75 L98 79 L102 83 L106 87 L109 88 L111 89 L114 90 L116 90 L118 92 L122 95 L126 96 L130 97 L134 98 L136 99 L139 99 L144 99 L150 103 L154 103 L158 105 L162 106 L166 108 L170 110 L174 111 L176 111 L181 114 L187 116 L194 119 L199 121 L202 123 L207 125 L210 127 L214 128 L219 130 L230 134 L238 138 L245 139 L251 141 L259 143 L270 147 L278 149 L289 151 L295 153 L302 154 L306 155 L310 156 L318 159 L331 163 L342 168 L354 171 L370 177 L375 179 L378 179 L379 182 L386 187 L396 191 L402 191 L410 195 L415 196 L423 199 L425 199 L431 200 L445 201 L457 204 L460 204 L466 204 L481 206 L490 207 L494 207 L506 210 L511 213 L512 214 L516 215 L526 219 L527 219 L528 219 L534 220 L546 222 L547 222 L556 224 L578 227 L591 231 L602 234 L610 237 L628 244 L641 248 L647 253 L651 255 L668 260 L684 269 L686 272 L702 277 L716 283 L725 287 " fill="none" stroke="black" /></svg>