<?xml version="1.0" encoding="utf-8" ?>
<svg baseProfile="tiny" height="313" version="1.2" viewBox="-3 -3 495 313" width="495" xmlns="http://www.w3.org/2000/svg" xmlns:ev="http://www.w3.org/2001/xml-events" xmlns:xlink="http://www.w3.org/1999/xlink"><defs /><path d="M303 4 L293 1 L288 1 L283 1 L280 1 L277 1 L275 3 L272 7 L268 16 L263 31 L257 43 L253 57 L249 71 L244 89 L237 108 L225 137 L215 160 L201 194 L187 220 L184 229 L179 233 L175 237 L171 239 L162 241 L155 243 L152 245 L152 246 L156 246 L159 246 L165 246 L169 246 L178 246 L210 246 L244 246 L282 246 L301 246 L313 246 L354 238 L407 237 L440 237 L450 237 L453 237 L455 237 L460 237 L479 233 L486 233 L494 230 L495 226 L495 220 L495 210 L493 192 L485 154 L477 136 L465 124 L451 112 L440 99 L427 89 L402 78 L387 69 L374 53 L362 41 L351 33 L339 23 L329 16 L317 11 L310 9 L305 9 L303 9 L303 10 " fill="none" stroke="black" /><path d="M303 4 L293 1 L288 1 L283 1 L280 1 L277 1 L275 3 L272 7 L268 16 L263 31 L257 43 L253 57 L249 71 L244 89 L237 108 L225 137 L215 160 L201 194 L187 220 L184 229 L179 233 L175 237 L171 239 L162 241 L155 243 L152 245 L152 246 L156 246 L159 246 L165 246 L169 246 L178 246 L210 246 L244 246 L282 246 L301 246 L313 246 L354 238 L407 237 L440 237 L450 237 L453 237 L455 237 L460 237 L479 233 L486 233 L494 230 L495 226 L495 220 L495 210 L493 192 L485 154 L477 136 L465 124 L451 112 L440 99 L427 89 L402 78 L387 69 L374 53 L362 41 L351 33 L339 23 L329 16 L317 11 L310 9 L305 9 L303 9 L303 10 M307 236 L307 242 L305 250 L305 265 L305 278 L302 296 L300 305 L299 309 L299 313 L304 313 L311 313 L319 313 L327 307 L334 298 L338 284 L340 276 L345 265 L346 258 L346 244 L346 235 L346 231 L341 226 L338 224 L335 224 " fill="none" stroke="black" /><path d="M303 4 L293 1 L288 1 L283 1 L280 1 L277 1 L275 3 L272 7 L268 16 L263 31 L257 43 L253 57 L249 71 L244 89 L237 108 L225 137 L215 160 L201 194 L187 220 L184 229 L179 233 L175 237 L171 239 L162 241 L155 243 L152 245 L152 246 L156 246 L159 246 L165 246 L169 246 L178 246 L210 246 L244 246 L282 246 L301 246 L313 246 L354 238 L407 237 L440 237 L450 237 L453 237 L455 237 L460 237 L479 233 L486 233 L494 230 L495 226 L495 220 L495 210 L493 192 L485 154 L477 136 L465 124 L451 112 L440 99 L427 89 L402 78 L387 69 L374 53 L362 41 L351 33 L339 23 L329 16 L317 11 L310 9 L305 9 L303 9 L303 10 M307 236 L307 242 L305 250 L305 265 L305 278 L302 296 L300 305 L299 309 L299 313 L304 313 L311 313 L319 313 L327 307 L334 298 L338 284 L340 276 L345 265 L346 258 L346 244 L346 235 L346 231 L341 226 L338 224 L335 224 M0 155 L1 153 L15 134 L31 116 L47 105 L55 97 L73 77 L80 67 L82 63 L82 68 L83 78 L96 92 L112 103 L118 113 L125 122 L128 125 L135 124 L165 109 L173 106 L173 102 L173 91 L168 68 L158 52 L148 35 L145 26 L139 17 L134 10 L119 3 L101 0 L90 1 L75 13 L59 22 L45 27 L41 29 L36 33 L35 36 L35 41 L37 45 L42 50 L46 52 L49 53 L55 58 L59 65 L63 69 L67 73 L70 77 L71 81 L74 84 L74 85 " fill="none" stroke="black" /><path d="M303 4 L293 1 L288 1 L283 1 L280 1 L277 1 L275 3 L272 7 L268 16 L263 31 L257 43 L253 57 L249 71 L244 89 L237 108 L225 137 L215 160 L201 194 L187 220 L184 229 L179 233 L175 237 L171 239 L162 241 L155 243 L152 245 L152 246 L156 246 L159 246 L165 246 L169 246 L178 246 L210 246 L244 246 L282 246 L301 246 L313 246 L354 238 L407 237 L440 237 L450 237 L453 237 L455 237 L460 237 L479 233 L486 233 L494 230 L495 226 L495 220 L495 210 L493 192 L485 154 L477 136 L465 124 L451 112 L440 99 L427 89 L402 78 L387 69 L374 53 L362 41 L351 33 L339 23 L329 16 L317 11 L310 9 L305 9 L303 9 L303 10 M307 236 L307 242 L305 250 L305 265 L305 278 L302 296 L300 305 L299 309 L299 313 L304 313 L311 313 L319 313 L327 307 L334 298 L338 284 L340 276 L345 265 L346 258 L346 244 L346 235 L346 231 L341 226 L338 224 L335 224 M0 155 L1 153 L15 134 L31 116 L47 105 L55 97 L73 77 L80 67 L82 63 L82 68 L83 78 L96 92 L112 103 L118 113 L125 122 L128 125 L135 124 L165 109 L173 106 L173 102 L173 91 L168 68 L158 52 L148 35 L145 26 L139 17 L134 10 L119 3 L101 0 L90 1 L75 13 L59 22 L45 27 L41 29 L36 33 L35 36 L35 41 L37 45 L42 50 L46 52 L49 53 L55 58 L59 65 L63 69 L67 73 L70 77 L71 81 L74 84 L74 85 M196 107 L201 110 L205 115 L212 119 L215 122 L221 125 L223 127 L227 130 " fill="none" stroke="black" /></svg>