<?xml version="1.0" encoding="utf-8" ?>
<svg baseProfile="tiny" height="588" version="1.2" viewBox="-3 -3 865 588" width="865" xmlns="http://www.w3.org/2000/svg" xmlns:ev="http://www.w3.org/2001/xml-events" xmlns:xlink="http://www.w3.org/1999/xlink"><defs /><path d="M0 320 L7 320 L27 320 L41 320 L54 320 L65 320 L76 320 L85 317 L103 308 L139 288 L170 276 L213 263 L238 260 L252 260 L265 256 L293 253 L310 251 L329 248 L344 243 L364 238 L375 232 L385 228 L403 213 L426 196 L441 188 L443 186 L447 180 L453 172 L453 169 L457 160 L457 156 L457 152 L457 149 L458 144 L458 140 L458 135 L458 131 L458 126 L458 119 L457 113 L453 108 L452 102 L449 99 L447 95 L444 89 L441 83 L438 77 L436 71 L435 64 L434 61 L430 54 L429 49 L427 48 L426 47 L424 44 L419 38 L416 35 L413 32 L409 32 L405 31 L401 30 L396 25 L389 21 L381 15 L370 8 L366 5 L359 0 L355 0 L353 0 " fill="none" stroke="black" /><path d="M0 320 L7 320 L27 320 L41 320 L54 320 L65 320 L76 320 L85 317 L103 308 L139 288 L170 276 L213 263 L238 260 L252 260 L265 256 L293 253 L310 251 L329 248 L344 243 L364 238 L375 232 L385 228 L403 213 L426 196 L441 188 L443 186 L447 180 L453 172 L453 169 L457 160 L457 156 L457 152 L457 149 L458 144 L458 140 L458 135 L458 131 L458 126 L458 119 L457 113 L453 108 L452 102 L449 99 L447 95 L444 89 L441 83 L438 77 L436 71 L435 64 L434 61 L430 54 L429 49 L427 48 L426 47 L424 44 L419 38 L416 35 L413 32 L409 32 L405 31 L401 30 L396 25 L389 21 L381 15 L370 8 L366 5 L359 0 L355 0 L353 0 M865 272 L862 272 L835 268 L803 264 L785 261 L765 257 L739 252 L717 245 L697 240 L678 236 L656 236 L638 242 L608 248 L578 260 L541 275 L515 290 L479 312 L459 329 L438 349 L417 374 L400 397 L385 435 L378 464 L376 507 L376 524 L376 532 L376 540 L376 550 L377 553 L377 558 L377 564 L378 568 L378 573 L378 576 L378 580 L379 582 L379 587 L379 588 L380 588 " fill="none" stroke="black" /></svg>