<?xml version="1.0" encoding="utf-8" ?>
<svg baseProfile="tiny" height="358" version="1.2" viewBox="-3 -3 324 358" width="324" xmlns="http://www.w3.org/2000/svg" xmlns:ev="http://www.w3.org/2001/xml-events" xmlns:xlink="http://www.w3.org/1999/xlink"><defs /><path d="M3 302 L4 302 L18 302 L52 297 L96 278 L141 254 L171 238 L220 194 L240 170 L246 165 L246 163 L247 173 L252 190 L252 201 L252 205 L272 228 L295 243 L304 248 L309 249 L317 249 L321 249 L322 247 L322 242 L324 221 L324 210 L323 197 L317 186 L314 176 L308 166 L307 162 L300 156 L296 154 L289 152 L282 151 L278 151 L273 151 L270 151 L267 151 L266 151 L262 151 L259 151 L257 151 L255 151 L249 151 L247 151 L247 153 L246 156 L243 161 L243 163 L243 164 L243 166 " fill="none" stroke="black" /><path d="M3 302 L4 302 L18 302 L52 297 L96 278 L141 254 L171 238 L220 194 L240 170 L246 165 L246 163 L247 173 L252 190 L252 201 L252 205 L272 228 L295 243 L304 248 L309 249 L317 249 L321 249 L322 247 L322 242 L324 221 L324 210 L323 197 L317 186 L314 176 L308 166 L307 162 L300 156 L296 154 L289 152 L282 151 L278 151 L273 151 L270 151 L267 151 L266 151 L262 151 L259 151 L257 151 L255 151 L249 151 L247 151 L247 153 L246 156 L243 161 L243 163 L243 164 L243 166 M319 254 L318 255 L304 272 L276 295 L245 323 L224 338 L205 347 L181 354 L160 356 L139 356 L124 356 L115 358 L101 358 L83 358 L68 358 L62 358 L52 358 L48 356 L45 352 L44 349 L39 341 L36 338 L28 333 L25 330 L20 326 L17 322 L12 322 L10 321 L7 317 L3 310 L0 306 L0 302 L0 299 L0 298 L0 297 L0 294 " fill="none" stroke="black" /><path d="M3 302 L4 302 L18 302 L52 297 L96 278 L141 254 L171 238 L220 194 L240 170 L246 165 L246 163 L247 173 L252 190 L252 201 L252 205 L272 228 L295 243 L304 248 L309 249 L317 249 L321 249 L322 247 L322 242 L324 221 L324 210 L323 197 L317 186 L314 176 L308 166 L307 162 L300 156 L296 154 L289 152 L282 151 L278 151 L273 151 L270 151 L267 151 L266 151 L262 151 L259 151 L257 151 L255 151 L249 151 L247 151 L247 153 L246 156 L243 161 L243 163 L243 164 L243 166 M319 254 L318 255 L304 272 L276 295 L245 323 L224 338 L205 347 L181 354 L160 356 L139 356 L124 356 L115 358 L101 358 L83 358 L68 358 L62 358 L52 358 L48 356 L45 352 L44 349 L39 341 L36 338 L28 333 L25 330 L20 326 L17 322 L12 322 L10 321 L7 317 L3 310 L0 306 L0 302 L0 299 L0 298 L0 297 L0 294 M262 187 L263 195 L264 195 L270 187 L280 174 L295 158 L301 144 L308 114 L308 93 L303 72 L297 51 L291 39 L289 36 " fill="none" stroke="black" /><path d="M3 302 L4 302 L18 302 L52 297 L96 278 L141 254 L171 238 L220 194 L240 170 L246 165 L246 163 L247 173 L252 190 L252 201 L252 205 L272 228 L295 243 L304 248 L309 249 L317 249 L321 249 L322 247 L322 242 L324 221 L324 210 L323 197 L317 186 L314 176 L308 166 L307 162 L300 156 L296 154 L289 152 L282 151 L278 151 L273 151 L270 151 L267 151 L266 151 L262 151 L259 151 L257 151 L255 151 L249 151 L247 151 L247 153 L246 156 L243 161 L243 163 L243 164 L243 166 M319 254 L318 255 L304 272 L276 295 L245 323 L224 338 L205 347 L181 354 L160 356 L139 356 L124 356 L115 358 L101 358 L83 358 L68 358 L62 358 L52 358 L48 356 L45 352 L44 349 L39 341 L36 338 L28 333 L25 330 L20 326 L17 322 L12 322 L10 321 L7 317 L3 310 L0 306 L0 302 L0 299 L0 298 L0 297 L0 294 M262 187 L263 195 L264 195 L270 187 L280 174 L295 158 L301 144 L308 114 L308 93 L303 72 L297 51 L291 39 L289 36 M261 191 L263 186 L268 174 L273 159 L278 145 L284 127 L287 110 L287 105 L289 88 L289 68 L289 61 L289 60 L289 58 L289 53 L286 40 L281 31 L278 30 L277 30 L279 30 L282 30 L284 33 L286 33 L290 32 L300 25 L321 5 L320 3 L308 0 L292 0 L265 2 L256 7 L255 12 L256 22 L259 30 L262 34 L264 36 L270 31 L273 28 L279 24 " fill="none" stroke="black" /></svg>