<?xml version="1.0" encoding="utf-8" ?>
<svg baseProfile="tiny" height="420" version="1.2" viewBox="-3 -3 505 420" width="505" xmlns="http://www.w3.org/2000/svg" xmlns:ev="http://www.w3.org/2001/xml-events" xmlns:xlink="http://www.w3.org/1999/xlink"><defs /><path d="M144 108 L153 115 L166 123 L170 126 L175 124 L178 160 L186 197 L191 216 L192 226 L193 232 L193 236 L194 240 L197 242 " fill="none" stroke="black" /><path d="M144 108 L153 115 L166 123 L170 126 L175 124 L178 160 L186 197 L191 216 L192 226 L193 232 L193 236 L194 240 L197 242 M505 142 L455 177 L422 212 L394 260 L386 284 L384 312 L384 332 L383 345 L373 363 L342 391 L271 415 L213 420 L148 411 L115 388 L89 319 L88 259 L101 214 L111 196 L122 192 L150 184 L202 184 L263 192 L299 204 L340 229 L357 254 L358 264 L358 271 L306 313 L245 333 L189 321 L156 274 L145 200 L155 126 L174 96 L220 66 L294 60 L358 76 L425 103 L453 136 L477 177 L478 201 L460 241 L408 273 L302 316 L213 315 L142 289 L85 247 L36 166 L26 98 L37 57 L74 25 L131 4 L220 0 L286 9 L357 29 L407 64 L437 96 L450 135 L450 155 L426 205 L387 245 L312 296 L254 312 L185 311 L131 295 L82 267 L58 240 L45 211 L58 164 L88 130 L163 100 L234 98 L321 111 L373 141 L412 176 L429 210 L428 251 L366 321 L268 363 L135 381 L71 367 L20 332 L0 272 L22 154 L65 80 L103 37 " fill="none" stroke="black" /></svg>