<?xml version="1.0" encoding="utf-8" ?>
<svg baseProfile="tiny" height="283" version="1.2" viewBox="-3 -3 429 283" width="429" xmlns="http://www.w3.org/2000/svg" xmlns:ev="http://www.w3.org/2001/xml-events" xmlns:xlink="http://www.w3.org/1999/xlink"><defs /><path d="M191 157 L191 161 L191 180 L193 193 L201 201 L217 205 L229 205 L241 203 L247 193 L254 176 L256 165 L253 161 L245 157 L231 157 L220 155 L217 155 L212 155 L208 159 L203 162 L199 163 L196 164 L193 164 L189 164 L185 164 L184 163 L185 163 L186 163 L187 163 " fill="none" stroke="black" /><path d="M191 157 L191 161 L191 180 L193 193 L201 201 L217 205 L229 205 L241 203 L247 193 L254 176 L256 165 L253 161 L245 157 L231 157 L220 155 L217 155 L212 155 L208 159 L203 162 L199 163 L196 164 L193 164 L189 164 L185 164 L184 163 L185 163 L186 163 L187 163 M153 119 L153 133 L146 197 L145 224 L144 253 L144 264 L145 272 L148 275 L156 282 L163 283 L179 283 L214 281 L242 281 L273 281 L289 281 L307 274 L313 272 L318 241 L313 190 L296 139 L284 117 L277 104 L276 100 L276 99 L273 99 L267 100 L224 111 L185 123 L156 134 L136 145 L129 149 L125 151 " fill="none" stroke="black" /><circle cx="0" cy="270" fill="black" r="1" /><circle cx="143" cy="0" fill="black" r="1" /><circle cx="341" cy="7" fill="black" r="1" /><circle cx="429" cy="245" fill="black" r="1" /></svg>