<?xml version="1.0" encoding="utf-8" ?>
<svg baseProfile="tiny" height="245" version="1.2" viewBox="-3 -3 1201 245" width="1201" xmlns="http://www.w3.org/2000/svg" xmlns:ev="http://www.w3.org/2001/xml-events" xmlns:xlink="http://www.w3.org/1999/xlink"><defs /><path d="M18 41 L19 41 L20 39 L30 32 L45 23 L57 17 L67 13 L85 7 L98 2 L109 1 L116 0 L121 1 L127 3 L134 7 L142 10 L152 15 L162 19 L173 24 L188 29 L196 31 L199 32 L208 34 L212 35 L220 38 L233 41 L242 44 L256 46 L269 50 L282 52 L294 54 L313 54 L332 54 L350 54 L368 50 L388 45 L427 36 L443 32 L451 29 L468 24 L487 17 L504 12 L522 8 L536 5 L549 4 L558 3 L565 3 L580 3 L596 4 L605 5 L610 6 L623 11 L635 15 L647 19 L659 25 L677 31 L688 36 L697 41 L704 44 L715 48 L723 51 L734 53 L744 55 L754 56 L768 58 L783 58 L791 55 L804 53 L816 48 L828 43 L848 33 L865 24 L883 15 L901 9 L921 6 L947 4 L981 6 L1006 9 L1028 19 L1057 31 L1084 47 L1109 64 L1124 75 L1134 84 L1142 88 L1145 89 L1147 90 " fill="none" stroke="black" /><path d="M18 41 L19 41 L20 39 L30 32 L45 23 L57 17 L67 13 L85 7 L98 2 L109 1 L116 0 L121 1 L127 3 L134 7 L142 10 L152 15 L162 19 L173 24 L188 29 L196 31 L199 32 L208 34 L212 35 L220 38 L233 41 L242 44 L256 46 L269 50 L282 52 L294 54 L313 54 L332 54 L350 54 L368 50 L388 45 L427 36 L443 32 L451 29 L468 24 L487 17 L504 12 L522 8 L536 5 L549 4 L558 3 L565 3 L580 3 L596 4 L605 5 L610 6 L623 11 L635 15 L647 19 L659 25 L677 31 L688 36 L697 41 L704 44 L715 48 L723 51 L734 53 L744 55 L754 56 L768 58 L783 58 L791 55 L804 53 L816 48 L828 43 L848 33 L865 24 L883 15 L901 9 L921 6 L947 4 L981 6 L1006 9 L1028 19 L1057 31 L1084 47 L1109 64 L1124 75 L1134 84 L1142 88 L1145 89 L1147 90 M0 236 L1 235 L5 228 L14 216 L35 201 L64 190 L91 185 L128 185 L173 189 L198 192 L218 196 L238 200 L258 206 L300 219 L334 224 L359 230 L411 239 L469 245 L509 245 L552 245 L617 237 L646 228 L660 222 L676 215 L683 211 L693 204 L701 197 L713 190 L724 183 L736 175 L754 168 L767 162 L787 155 L800 152 L809 150 L824 148 L844 145 L852 143 L861 142 L867 142 L874 142 L892 145 L915 149 L949 157 L995 165 L1026 172 L1052 179 L1072 186 L1099 193 L1139 202 L1176 210 L1191 212 L1194 212 L1195 212 L1199 210 L1201 207 " fill="none" stroke="black" /></svg>