<?xml version="1.0" encoding="utf-8" ?>
<svg baseProfile="tiny" height="307" version="1.2" viewBox="-3 -3 785 307" width="785" xmlns="http://www.w3.org/2000/svg" xmlns:ev="http://www.w3.org/2001/xml-events" xmlns:xlink="http://www.w3.org/1999/xlink"><defs /><path d="M160 20 L161 18 L163 15 L164 13 L165 10 L166 8 L167 6 L167 4 L168 2 L169 0 L173 3 L176 5 L180 7 L196 18 L221 35 L238 49 L250 60 L257 66 L262 72 L270 80 L276 87 L280 89 L281 90 L282 91 L283 92 L284 93 L285 93 L289 96 L301 97 L318 99 L330 101 L351 101 L375 101 L399 101 L425 102 L444 104 L458 106 L474 109 L482 110 L484 110 L490 105 L498 96 L505 85 L510 77 L516 69 L521 61 L525 57 L532 49 L542 37 L553 26 L558 18 L560 15 L561 13 L562 11 L564 8 L566 5 L568 3 L568 2 L569 2 L571 3 L574 6 L581 12 L591 20 L597 26 L601 31 L607 37 L612 44 L619 52 L626 63 L633 73 L637 82 L641 88 L647 94 L650 99 L656 103 L673 111 L692 116 L710 121 L730 124 L755 126 L771 126 L781 127 L785 126 " fill="none" stroke="black" /><path d="M160 20 L161 18 L163 15 L164 13 L165 10 L166 8 L167 6 L167 4 L168 2 L169 0 L173 3 L176 5 L180 7 L196 18 L221 35 L238 49 L250 60 L257 66 L262 72 L270 80 L276 87 L280 89 L281 90 L282 91 L283 92 L284 93 L285 93 L289 96 L301 97 L318 99 L330 101 L351 101 L375 101 L399 101 L425 102 L444 104 L458 106 L474 109 L482 110 L484 110 L490 105 L498 96 L505 85 L510 77 L516 69 L521 61 L525 57 L532 49 L542 37 L553 26 L558 18 L560 15 L561 13 L562 11 L564 8 L566 5 L568 3 L568 2 L569 2 L571 3 L574 6 L581 12 L591 20 L597 26 L601 31 L607 37 L612 44 L619 52 L626 63 L633 73 L637 82 L641 88 L647 94 L650 99 L656 103 L673 111 L692 116 L710 121 L730 124 L755 126 L771 126 L781 127 L785 126 M0 298 L3 298 L14 298 L48 298 L88 299 L108 300 L119 300 L126 300 L134 301 L140 302 L145 302 L154 302 L164 304 L165 304 L168 300 L184 281 L200 253 L210 238 L216 227 L221 221 L223 216 L226 211 L230 204 L233 197 L237 191 L239 187 L239 186 L242 187 L245 190 L252 196 L261 204 L270 214 L278 223 L283 227 L286 231 L289 237 L294 246 L300 257 L303 263 L306 268 L308 274 L310 277 L312 280 L314 284 L316 288 L317 291 L319 293 L321 293 L334 295 L366 301 L406 305 L416 307 L420 307 L422 307 L423 307 L432 307 L445 307 L456 307 L473 307 L480 307 L483 307 L484 307 L485 307 L488 305 L492 303 L493 301 L493 300 " fill="none" stroke="black" /></svg>