<?xml version="1.0" encoding="utf-8" ?>
<svg baseProfile="tiny" height="352" version="1.2" viewBox="-3 -3 886 352" width="886" xmlns="http://www.w3.org/2000/svg" xmlns:ev="http://www.w3.org/2001/xml-events" xmlns:xlink="http://www.w3.org/1999/xlink"><defs /><path d="M184 0 L181 2 L175 4 L169 8 L158 14 L146 20 L135 28 L119 37 L97 51 L86 59 L77 67 L65 77 L54 89 L45 96 L35 111 L26 125 L18 139 L15 146 L11 157 L8 169 L5 180 L3 191 L2 203 L0 219 L1 236 L5 252 L14 266 L31 286 L50 296 L80 299 L122 292 L164 282 L208 257 L248 221 L291 175 L307 146 L321 115 L329 90 L334 74 L337 60 L337 52 L337 47 L336 37 L334 33 L333 32 L332 31 L327 31 L317 30 L304 34 L286 42 L259 58 L246 72 L238 84 L223 109 L212 132 L198 174 L184 214 L177 245 L173 274 L176 303 L182 319 L184 322 L195 322 L274 319 L372 312 L430 301 L476 278 L507 242 L548 169 L570 113 L577 79 L577 54 L576 43 L574 34 L571 31 L569 30 L566 29 L555 30 L537 33 L530 36 L514 44 L501 53 L483 71 L466 91 L441 131 L424 166 L413 205 L406 247 L404 276 L407 296 L413 308 L429 323 L452 331 L513 337 L568 339 L602 337 L650 330 L731 301 L794 265 L823 233 L839 208 L843 186 L845 150 L842 116 L833 89 L822 70 L812 62 L804 57 L797 52 L791 49 L788 50 L778 56 L755 74 L744 89 L738 99 L732 111 L720 136 L709 170 L698 204 L691 224 L688 236 L685 247 L686 254 L687 260 L689 265 L697 280 L712 300 L722 317 L726 323 L728 326 L738 333 L755 342 L786 348 L825 352 L859 352 L874 348 L886 340 " fill="none" stroke="black" /></svg>