<?xml version="1.0" encoding="utf-8" ?>
<svg baseProfile="tiny" height="311" version="1.2" viewBox="-3 -3 360 311" width="360" xmlns="http://www.w3.org/2000/svg" xmlns:ev="http://www.w3.org/2001/xml-events" xmlns:xlink="http://www.w3.org/1999/xlink"><defs /><path d="M210 148 L198 165 L166 184 L102 189 L77 177 L67 146 L70 115 L94 98 L145 93 L187 117 L205 155 L208 207 L196 237 L148 259 L59 257 L19 243 L0 199 L8 123 L48 77 L124 63 L166 72 L184 92 L191 134 L185 185 L167 207 L104 224 L38 215 L26 196 L21 141 L54 97 L179 58 L273 71 L300 97 L309 159 L290 217 L259 243 L217 248 L176 224 L134 178 L125 156 L125 136 L142 114 L187 94 L216 98 L240 128 L251 163 L249 181 L237 191 L211 195 L190 191 L182 177 L181 157 L193 108 L242 78 L331 74 L353 87 L360 112 L352 161 L310 205 L249 229 L206 228 L190 212 L175 162 L177 90 L197 56 L208 54 L214 63 L223 133 L202 196 L158 227 L77 243 L28 234 L7 209 L4 153 L29 88 L71 51 L140 34 L202 44 L226 72 L235 126 L217 170 L180 194 L145 192 L118 171 L81 116 L70 80 L69 43 L88 16 L117 1 L142 0 L155 9 L174 30 L188 63 L186 102 L172 127 L141 153 L107 164 L73 161 L58 144 L47 95 L62 45 L102 21 L136 23 L159 41 L186 76 L196 99 L196 121 L187 140 L151 170 L104 193 L90 196 L89 195 L84 181 L97 129 L136 106 L184 113 L219 148 L231 199 L228 213 L211 226 L186 235 L139 244 L124 240 L119 232 L115 198 L145 174 L202 173 L236 195 L245 222 L230 269 L183 299 L124 311 L112 301 L84 258 L81 209 L104 169 L139 156 L168 160 L194 182 L204 201 L200 213 L177 235 L145 245 L125 238 L114 189 L131 111 L170 80 L232 79 L237 83 L237 85 " fill="none" stroke="black" /></svg>