<?xml version="1.0" encoding="utf-8" ?>
<svg baseProfile="tiny" height="297" version="1.2" viewBox="-3 -3 360 297" width="360" xmlns="http://www.w3.org/2000/svg" xmlns:ev="http://www.w3.org/2001/xml-events" xmlns:xlink="http://www.w3.org/1999/xlink"><defs /><path d="M35 17 L34 21 L26 35 L17 52 L8 69 L3 77 L3 79 L2 84 L0 89 L0 92 L0 93 L0 92 L11 87 L42 78 L57 71 L60 69 L64 66 L65 65 L65 69 L57 81 L52 89 L45 97 L44 99 L44 100 L44 101 L63 93 L86 81 L101 71 L128 51 L144 43 L176 30 L194 24 L216 17 L248 7 L277 3 L285 1 L289 0 L290 0 L291 2 L293 8 L292 19 L287 31 L282 40 L276 46 L267 55 L251 71 L229 89 L211 103 L198 115 L183 126 L171 137 L160 147 L153 154 L146 160 L141 166 L139 168 L135 174 L134 174 L138 171 L160 155 L165 153 L165 152 L164 156 L159 169 L154 177 L154 178 L157 174 L170 162 L182 155 L183 154 L182 159 L177 169 L166 186 L165 188 L165 187 L172 181 L184 172 L190 168 L190 170 L188 179 L183 188 L181 191 L181 192 L180 191 L188 181 L213 166 L214 165 L215 169 L213 180 L208 190 L204 197 L204 198 L203 200 L203 202 L204 200 L214 185 L247 148 L288 112 L327 86 L339 78 L342 77 L343 76 L343 77 L347 81 L354 96 L359 109 L360 127 L357 156 L347 183 L339 198 L334 208 L330 217 L325 225 L322 230 L319 234 L317 238 L316 241 L314 244 L312 246 L311 249 L311 250 L310 252 L309 254 L307 257 L307 260 L306 263 L311 259 L320 253 L322 252 L322 256 L318 271 L316 280 L315 281 L318 277 L328 269 L335 263 L336 265 L336 275 L334 284 L333 286 L335 281 L340 275 L343 282 L345 293 L345 297 " fill="none" stroke="black" /></svg>