<?xml version="1.0" encoding="utf-8" ?>
<svg baseProfile="tiny" height="271" version="1.2" viewBox="-3 -3 764 271" width="764" xmlns="http://www.w3.org/2000/svg" xmlns:ev="http://www.w3.org/2001/xml-events" xmlns:xlink="http://www.w3.org/1999/xlink"><defs /><path d="M0 50 L6 49 L66 47 L125 47 L146 45 L150 45 L156 45 L183 45 L205 45 L231 45 L256 45 L292 45 L324 45 L342 45 L368 45 L385 45 L396 46 L425 47 L467 44 L504 44 L536 43 L555 43 L565 43 L583 43 L599 43 L611 42 L622 42 L661 42 L669 42 " fill="none" stroke="black" /><path d="M0 50 L6 49 L66 47 L125 47 L146 45 L150 45 L156 45 L183 45 L205 45 L231 45 L256 45 L292 45 L324 45 L342 45 L368 45 L385 45 L396 46 L425 47 L467 44 L504 44 L536 43 L555 43 L565 43 L583 43 L599 43 L611 42 L622 42 L661 42 L669 42 M14 187 L17 188 L55 186 L182 180 L293 178 L376 189 L412 190 L455 190 L540 188 L609 188 L646 187 L688 182 L716 178 L745 174 L762 172 L764 172 " fill="none" stroke="black" /><path d="M0 50 L6 49 L66 47 L125 47 L146 45 L150 45 L156 45 L183 45 L205 45 L231 45 L256 45 L292 45 L324 45 L342 45 L368 45 L385 45 L396 46 L425 47 L467 44 L504 44 L536 43 L555 43 L565 43 L583 43 L599 43 L611 42 L622 42 L661 42 L669 42 M14 187 L17 188 L55 186 L182 180 L293 178 L376 189 L412 190 L455 190 L540 188 L609 188 L646 187 L688 182 L716 178 L745 174 L762 172 L764 172 M87 0 L88 3 L94 19 L101 42 L106 70 L108 81 L107 82 " fill="none" stroke="black" /><path d="M0 50 L6 49 L66 47 L125 47 L146 45 L150 45 L156 45 L183 45 L205 45 L231 45 L256 45 L292 45 L324 45 L342 45 L368 45 L385 45 L396 46 L425 47 L467 44 L504 44 L536 43 L555 43 L565 43 L583 43 L599 43 L611 42 L622 42 L661 42 L669 42 M14 187 L17 188 L55 186 L182 180 L293 178 L376 189 L412 190 L455 190 L540 188 L609 188 L646 187 L688 182 L716 178 L745 174 L762 172 L764 172 M87 0 L88 3 L94 19 L101 42 L106 70 L108 81 L107 82 M245 11 L254 23 L275 67 L291 106 L302 124 L302 125 " fill="none" stroke="black" /><path d="M0 50 L6 49 L66 47 L125 47 L146 45 L150 45 L156 45 L183 45 L205 45 L231 45 L256 45 L292 45 L324 45 L342 45 L368 45 L385 45 L396 46 L425 47 L467 44 L504 44 L536 43 L555 43 L565 43 L583 43 L599 43 L611 42 L622 42 L661 42 L669 42 M14 187 L17 188 L55 186 L182 180 L293 178 L376 189 L412 190 L455 190 L540 188 L609 188 L646 187 L688 182 L716 178 L745 174 L762 172 L764 172 M87 0 L88 3 L94 19 L101 42 L106 70 L108 81 L107 82 M245 11 L254 23 L275 67 L291 106 L302 124 L302 125 M459 27 L468 46 L480 84 L488 100 L489 102 " fill="none" stroke="black" /><path d="M0 50 L6 49 L66 47 L125 47 L146 45 L150 45 L156 45 L183 45 L205 45 L231 45 L256 45 L292 45 L324 45 L342 45 L368 45 L385 45 L396 46 L425 47 L467 44 L504 44 L536 43 L555 43 L565 43 L583 43 L599 43 L611 42 L622 42 L661 42 L669 42 M14 187 L17 188 L55 186 L182 180 L293 178 L376 189 L412 190 L455 190 L540 188 L609 188 L646 187 L688 182 L716 178 L745 174 L762 172 L764 172 M87 0 L88 3 L94 19 L101 42 L106 70 L108 81 L107 82 M245 11 L254 23 L275 67 L291 106 L302 124 L302 125 M459 27 L468 46 L480 84 L488 100 L489 102 M552 15 L558 23 L572 55 L582 82 L584 85 " fill="none" stroke="black" /><path d="M0 50 L6 49 L66 47 L125 47 L146 45 L150 45 L156 45 L183 45 L205 45 L231 45 L256 45 L292 45 L324 45 L342 45 L368 45 L385 45 L396 46 L425 47 L467 44 L504 44 L536 43 L555 43 L565 43 L583 43 L599 43 L611 42 L622 42 L661 42 L669 42 M14 187 L17 188 L55 186 L182 180 L293 178 L376 189 L412 190 L455 190 L540 188 L609 188 L646 187 L688 182 L716 178 L745 174 L762 172 L764 172 M87 0 L88 3 L94 19 L101 42 L106 70 L108 81 L107 82 M245 11 L254 23 L275 67 L291 106 L302 124 L302 125 M459 27 L468 46 L480 84 L488 100 L489 102 M552 15 L558 23 L572 55 L582 82 L584 85 M126 170 L130 184 L131 203 L133 224 L135 232 " fill="none" stroke="black" /><path d="M0 50 L6 49 L66 47 L125 47 L146 45 L150 45 L156 45 L183 45 L205 45 L231 45 L256 45 L292 45 L324 45 L342 45 L368 45 L385 45 L396 46 L425 47 L467 44 L504 44 L536 43 L555 43 L565 43 L583 43 L599 43 L611 42 L622 42 L661 42 L669 42 M14 187 L17 188 L55 186 L182 180 L293 178 L376 189 L412 190 L455 190 L540 188 L609 188 L646 187 L688 182 L716 178 L745 174 L762 172 L764 172 M87 0 L88 3 L94 19 L101 42 L106 70 L108 81 L107 82 M245 11 L254 23 L275 67 L291 106 L302 124 L302 125 M459 27 L468 46 L480 84 L488 100 L489 102 M552 15 L558 23 L572 55 L582 82 L584 85 M126 170 L130 184 L131 203 L133 224 L135 232 M265 137 L269 146 L281 175 L292 207 L298 222 L299 223 " fill="none" stroke="black" /><path d="M0 50 L6 49 L66 47 L125 47 L146 45 L150 45 L156 45 L183 45 L205 45 L231 45 L256 45 L292 45 L324 45 L342 45 L368 45 L385 45 L396 46 L425 47 L467 44 L504 44 L536 43 L555 43 L565 43 L583 43 L599 43 L611 42 L622 42 L661 42 L669 42 M14 187 L17 188 L55 186 L182 180 L293 178 L376 189 L412 190 L455 190 L540 188 L609 188 L646 187 L688 182 L716 178 L745 174 L762 172 L764 172 M87 0 L88 3 L94 19 L101 42 L106 70 L108 81 L107 82 M245 11 L254 23 L275 67 L291 106 L302 124 L302 125 M459 27 L468 46 L480 84 L488 100 L489 102 M552 15 L558 23 L572 55 L582 82 L584 85 M126 170 L130 184 L131 203 L133 224 L135 232 M265 137 L269 146 L281 175 L292 207 L298 222 L299 223 M502 168 L507 175 L518 221 L530 261 L532 271 L535 269 " fill="none" stroke="black" /><path d="M0 50 L6 49 L66 47 L125 47 L146 45 L150 45 L156 45 L183 45 L205 45 L231 45 L256 45 L292 45 L324 45 L342 45 L368 45 L385 45 L396 46 L425 47 L467 44 L504 44 L536 43 L555 43 L565 43 L583 43 L599 43 L611 42 L622 42 L661 42 L669 42 M14 187 L17 188 L55 186 L182 180 L293 178 L376 189 L412 190 L455 190 L540 188 L609 188 L646 187 L688 182 L716 178 L745 174 L762 172 L764 172 M87 0 L88 3 L94 19 L101 42 L106 70 L108 81 L107 82 M245 11 L254 23 L275 67 L291 106 L302 124 L302 125 M459 27 L468 46 L480 84 L488 100 L489 102 M552 15 L558 23 L572 55 L582 82 L584 85 M126 170 L130 184 L131 203 L133 224 L135 232 M265 137 L269 146 L281 175 L292 207 L298 222 L299 223 M502 168 L507 175 L518 221 L530 261 L532 271 L535 269 M652 148 L662 182 L673 223 L686 248 L689 252 " fill="none" stroke="black" /><path d="M0 50 L6 49 L66 47 L125 47 L146 45 L150 45 L156 45 L183 45 L205 45 L231 45 L256 45 L292 45 L324 45 L342 45 L368 45 L385 45 L396 46 L425 47 L467 44 L504 44 L536 43 L555 43 L565 43 L583 43 L599 43 L611 42 L622 42 L661 42 L669 42 M14 187 L17 188 L55 186 L182 180 L293 178 L376 189 L412 190 L455 190 L540 188 L609 188 L646 187 L688 182 L716 178 L745 174 L762 172 L764 172 M87 0 L88 3 L94 19 L101 42 L106 70 L108 81 L107 82 M245 11 L254 23 L275 67 L291 106 L302 124 L302 125 M459 27 L468 46 L480 84 L488 100 L489 102 M552 15 L558 23 L572 55 L582 82 L584 85 M126 170 L130 184 L131 203 L133 224 L135 232 M265 137 L269 146 L281 175 L292 207 L298 222 L299 223 M502 168 L507 175 L518 221 L530 261 L532 271 L535 269 M652 148 L662 182 L673 223 L686 248 L689 252 M373 144 L374 146 L380 169 L389 194 L394 212 L395 216 L395 217 " fill="none" stroke="black" /><path d="M0 50 L6 49 L66 47 L125 47 L146 45 L150 45 L156 45 L183 45 L205 45 L231 45 L256 45 L292 45 L324 45 L342 45 L368 45 L385 45 L396 46 L425 47 L467 44 L504 44 L536 43 L555 43 L565 43 L583 43 L599 43 L611 42 L622 42 L661 42 L669 42 M14 187 L17 188 L55 186 L182 180 L293 178 L376 189 L412 190 L455 190 L540 188 L609 188 L646 187 L688 182 L716 178 L745 174 L762 172 L764 172 M87 0 L88 3 L94 19 L101 42 L106 70 L108 81 L107 82 M245 11 L254 23 L275 67 L291 106 L302 124 L302 125 M459 27 L468 46 L480 84 L488 100 L489 102 M552 15 L558 23 L572 55 L582 82 L584 85 M126 170 L130 184 L131 203 L133 224 L135 232 M265 137 L269 146 L281 175 L292 207 L298 222 L299 223 M502 168 L507 175 L518 221 L530 261 L532 271 L535 269 M652 148 L662 182 L673 223 L686 248 L689 252 M373 144 L374 146 L380 169 L389 194 L394 212 L395 216 L395 217 M382 6 L390 35 L400 80 L405 103 L406 106 " fill="none" stroke="black" /><path d="M0 50 L6 49 L66 47 L125 47 L146 45 L150 45 L156 45 L183 45 L205 45 L231 45 L256 45 L292 45 L324 45 L342 45 L368 45 L385 45 L396 46 L425 47 L467 44 L504 44 L536 43 L555 43 L565 43 L583 43 L599 43 L611 42 L622 42 L661 42 L669 42 M14 187 L17 188 L55 186 L182 180 L293 178 L376 189 L412 190 L455 190 L540 188 L609 188 L646 187 L688 182 L716 178 L745 174 L762 172 L764 172 M87 0 L88 3 L94 19 L101 42 L106 70 L108 81 L107 82 M245 11 L254 23 L275 67 L291 106 L302 124 L302 125 M459 27 L468 46 L480 84 L488 100 L489 102 M552 15 L558 23 L572 55 L582 82 L584 85 M126 170 L130 184 L131 203 L133 224 L135 232 M265 137 L269 146 L281 175 L292 207 L298 222 L299 223 M502 168 L507 175 L518 221 L530 261 L532 271 L535 269 M652 148 L662 182 L673 223 L686 248 L689 252 M373 144 L374 146 L380 169 L389 194 L394 212 L395 216 L395 217 M382 6 L390 35 L400 80 L405 103 L406 106 M190 24 L192 45 L195 77 L197 93 L198 97 L198 101 " fill="none" stroke="black" /><path d="M0 50 L6 49 L66 47 L125 47 L146 45 L150 45 L156 45 L183 45 L205 45 L231 45 L256 45 L292 45 L324 45 L342 45 L368 45 L385 45 L396 46 L425 47 L467 44 L504 44 L536 43 L555 43 L565 43 L583 43 L599 43 L611 42 L622 42 L661 42 L669 42 M14 187 L17 188 L55 186 L182 180 L293 178 L376 189 L412 190 L455 190 L540 188 L609 188 L646 187 L688 182 L716 178 L745 174 L762 172 L764 172 M87 0 L88 3 L94 19 L101 42 L106 70 L108 81 L107 82 M245 11 L254 23 L275 67 L291 106 L302 124 L302 125 M459 27 L468 46 L480 84 L488 100 L489 102 M552 15 L558 23 L572 55 L582 82 L584 85 M126 170 L130 184 L131 203 L133 224 L135 232 M265 137 L269 146 L281 175 L292 207 L298 222 L299 223 M502 168 L507 175 L518 221 L530 261 L532 271 L535 269 M652 148 L662 182 L673 223 L686 248 L689 252 M373 144 L374 146 L380 169 L389 194 L394 212 L395 216 L395 217 M382 6 L390 35 L400 80 L405 103 L406 106 M190 24 L192 45 L195 77 L197 93 L198 97 L198 101 M192 157 L197 160 L201 177 L204 208 L206 218 L206 219 " fill="none" stroke="black" /><path d="M0 50 L6 49 L66 47 L125 47 L146 45 L150 45 L156 45 L183 45 L205 45 L231 45 L256 45 L292 45 L324 45 L342 45 L368 45 L385 45 L396 46 L425 47 L467 44 L504 44 L536 43 L555 43 L565 43 L583 43 L599 43 L611 42 L622 42 L661 42 L669 42 M14 187 L17 188 L55 186 L182 180 L293 178 L376 189 L412 190 L455 190 L540 188 L609 188 L646 187 L688 182 L716 178 L745 174 L762 172 L764 172 M87 0 L88 3 L94 19 L101 42 L106 70 L108 81 L107 82 M245 11 L254 23 L275 67 L291 106 L302 124 L302 125 M459 27 L468 46 L480 84 L488 100 L489 102 M552 15 L558 23 L572 55 L582 82 L584 85 M126 170 L130 184 L131 203 L133 224 L135 232 M265 137 L269 146 L281 175 L292 207 L298 222 L299 223 M502 168 L507 175 L518 221 L530 261 L532 271 L535 269 M652 148 L662 182 L673 223 L686 248 L689 252 M373 144 L374 146 L380 169 L389 194 L394 212 L395 216 L395 217 M382 6 L390 35 L400 80 L405 103 L406 106 M190 24 L192 45 L195 77 L197 93 L198 97 L198 101 M192 157 L197 160 L201 177 L204 208 L206 218 L206 219 M579 167 L583 188 L587 208 L593 229 L595 236 L596 238 L597 242 L597 248 " fill="none" stroke="black" /></svg>