<?xml version="1.0" encoding="utf-8" ?>
<svg baseProfile="tiny" height="379" version="1.2" viewBox="-3 -3 820 379" width="820" xmlns="http://www.w3.org/2000/svg" xmlns:ev="http://www.w3.org/2001/xml-events" xmlns:xlink="http://www.w3.org/1999/xlink"><defs /><path d="M63 26 L95 10 L127 1 L128 1 L124 25 L104 62 L94 76 L127 50 L233 8 L252 7 L244 31 L194 97 L176 115 L177 113 L237 48 L316 0 L319 0 L287 76 L221 163 L217 166 L227 152 L282 102 L352 87 L357 96 L340 131 L331 143 L332 143 L351 119 L382 98 L383 102 L358 157 L342 183 L342 184 L367 162 L440 109 L473 94 L468 107 L427 168 L416 181 L453 143 L573 88 L599 88 L559 184 L513 245 L512 245 L522 230 L554 196 L601 184 L598 209 L569 269 L567 274 L571 268 L618 217 L663 189 L662 205 L636 287 L635 296 L652 268 L720 186 L756 158 L748 204 L705 330 L703 337 L707 330 L741 292 L777 284 L784 335 L779 361 L780 361 L798 327 L820 283 " fill="none" stroke="black" /><path d="M63 26 L95 10 L127 1 L128 1 L124 25 L104 62 L94 76 L127 50 L233 8 L252 7 L244 31 L194 97 L176 115 L177 113 L237 48 L316 0 L319 0 L287 76 L221 163 L217 166 L227 152 L282 102 L352 87 L357 96 L340 131 L331 143 L332 143 L351 119 L382 98 L383 102 L358 157 L342 183 L342 184 L367 162 L440 109 L473 94 L468 107 L427 168 L416 181 L453 143 L573 88 L599 88 L559 184 L513 245 L512 245 L522 230 L554 196 L601 184 L598 209 L569 269 L567 274 L571 268 L618 217 L663 189 L662 205 L636 287 L635 296 L652 268 L720 186 L756 158 L748 204 L705 330 L703 337 L707 330 L741 292 L777 284 L784 335 L779 361 L780 361 L798 327 L820 283 M110 89 L95 100 L94 100 L126 85 L291 55 L342 50 L341 58 L308 121 L269 163 L269 164 L281 155 L344 120 L439 102 L443 110 L419 160 L398 191 L399 191 L426 175 L545 128 L585 118 L565 157 L531 221 L530 222 L536 215 L581 176 L649 146 L665 155 L639 240 L619 282 L619 283 L650 248 L720 201 L763 192 L757 251 L710 363 L699 379 L702 375 L725 334 L767 285 L776 279 L776 289 L772 339 L774 337 L782 323 L783 320 " fill="none" stroke="black" /><path d="M63 26 L95 10 L127 1 L128 1 L124 25 L104 62 L94 76 L127 50 L233 8 L252 7 L244 31 L194 97 L176 115 L177 113 L237 48 L316 0 L319 0 L287 76 L221 163 L217 166 L227 152 L282 102 L352 87 L357 96 L340 131 L331 143 L332 143 L351 119 L382 98 L383 102 L358 157 L342 183 L342 184 L367 162 L440 109 L473 94 L468 107 L427 168 L416 181 L453 143 L573 88 L599 88 L559 184 L513 245 L512 245 L522 230 L554 196 L601 184 L598 209 L569 269 L567 274 L571 268 L618 217 L663 189 L662 205 L636 287 L635 296 L652 268 L720 186 L756 158 L748 204 L705 330 L703 337 L707 330 L741 292 L777 284 L784 335 L779 361 L780 361 L798 327 L820 283 M110 89 L95 100 L94 100 L126 85 L291 55 L342 50 L341 58 L308 121 L269 163 L269 164 L281 155 L344 120 L439 102 L443 110 L419 160 L398 191 L399 191 L426 175 L545 128 L585 118 L565 157 L531 221 L530 222 L536 215 L581 176 L649 146 L665 155 L639 240 L619 282 L619 283 L650 248 L720 201 L763 192 L757 251 L710 363 L699 379 L702 375 L725 334 L767 285 L776 279 L776 289 L772 339 L774 337 L782 323 L783 320 M6 48 L0 52 L0 53 L11 51 L110 33 L205 24 L234 26 L230 38 L212 78 L203 94 L212 89 L268 81 L372 115 L390 134 L391 142 L399 137 L414 133 L422 131 L424 130 L425 131 L426 138 L427 149 L427 153 L442 143 L455 137 L457 152 L456 176 L456 179 L466 169 L501 143 L518 136 L519 144 L522 169 L523 170 " fill="none" stroke="black" /></svg>