<?xml version="1.0" encoding="utf-8" ?>
<svg baseProfile="tiny" height="183" version="1.2" viewBox="-3 -3 587 183" width="587" xmlns="http://www.w3.org/2000/svg" xmlns:ev="http://www.w3.org/2001/xml-events" xmlns:xlink="http://www.w3.org/1999/xlink"><defs /><path d="M63 13 L75 11 L85 11 L92 10 L101 9 L109 7 L116 4 L119 3 L127 0 L139 0 L152 1 L159 1 L169 2 L176 4 L186 9 L198 14 L203 16 L209 19 L218 23 L230 27 L238 29 L241 31 L249 32 L260 34 L270 36 L280 37 L288 37 L292 37 L300 36 L311 34 L321 33 L329 31 L346 28 L362 28 L366 28 L370 28 L374 28 L380 28 L383 29 L388 29 L395 30 L399 30 L403 30 L414 31 L424 34 L432 35 L442 39 L457 41 L468 43 L480 44 L491 46 L513 50 L524 52 L528 53 L535 53 L546 53 L553 53 L562 52 L570 49 L579 46 L586 42 L587 42 " fill="none" stroke="black" /><path d="M63 13 L75 11 L85 11 L92 10 L101 9 L109 7 L116 4 L119 3 L127 0 L139 0 L152 1 L159 1 L169 2 L176 4 L186 9 L198 14 L203 16 L209 19 L218 23 L230 27 L238 29 L241 31 L249 32 L260 34 L270 36 L280 37 L288 37 L292 37 L300 36 L311 34 L321 33 L329 31 L346 28 L362 28 L366 28 L370 28 L374 28 L380 28 L383 29 L388 29 L395 30 L399 30 L403 30 L414 31 L424 34 L432 35 L442 39 L457 41 L468 43 L480 44 L491 46 L513 50 L524 52 L528 53 L535 53 L546 53 L553 53 L562 52 L570 49 L579 46 L586 42 L587 42 M0 105 L1 105 L2 106 L2 107 L16 107 L64 107 L107 110 L113 110 L114 109 L121 108 L127 105 L130 103 L135 101 L143 97 L147 96 L150 96 L155 95 L160 94 L166 94 L175 94 L195 96 L208 99 L220 100 L244 105 L260 108 L271 112 L283 113 L296 115 L303 116 L314 118 L329 120 L339 122 L345 122 L356 123 L364 123 L369 123 L371 123 L373 123 L378 123 L383 122 L391 121 L402 119 L409 118 L422 117 L434 117 L447 117 L454 116 L460 116 L464 117 L466 117 L476 119 L488 122 L492 123 L493 124 L496 125 L502 127 L514 129 L522 131 L527 131 L534 131 L540 131 L548 129 L562 121 L571 117 L574 116 " fill="none" stroke="black" /><path d="M63 13 L75 11 L85 11 L92 10 L101 9 L109 7 L116 4 L119 3 L127 0 L139 0 L152 1 L159 1 L169 2 L176 4 L186 9 L198 14 L203 16 L209 19 L218 23 L230 27 L238 29 L241 31 L249 32 L260 34 L270 36 L280 37 L288 37 L292 37 L300 36 L311 34 L321 33 L329 31 L346 28 L362 28 L366 28 L370 28 L374 28 L380 28 L383 29 L388 29 L395 30 L399 30 L403 30 L414 31 L424 34 L432 35 L442 39 L457 41 L468 43 L480 44 L491 46 L513 50 L524 52 L528 53 L535 53 L546 53 L553 53 L562 52 L570 49 L579 46 L586 42 L587 42 M0 105 L1 105 L2 106 L2 107 L16 107 L64 107 L107 110 L113 110 L114 109 L121 108 L127 105 L130 103 L135 101 L143 97 L147 96 L150 96 L155 95 L160 94 L166 94 L175 94 L195 96 L208 99 L220 100 L244 105 L260 108 L271 112 L283 113 L296 115 L303 116 L314 118 L329 120 L339 122 L345 122 L356 123 L364 123 L369 123 L371 123 L373 123 L378 123 L383 122 L391 121 L402 119 L409 118 L422 117 L434 117 L447 117 L454 116 L460 116 L464 117 L466 117 L476 119 L488 122 L492 123 L493 124 L496 125 L502 127 L514 129 L522 131 L527 131 L534 131 L540 131 L548 129 L562 121 L571 117 L574 116 M114 183 L118 180 L130 174 L144 168 L152 165 L158 162 L171 157 L182 152 L189 150 L195 146 L207 139 L218 132 L228 123 L234 117 L242 109 L248 101 L255 96 L262 90 L269 84 L276 80 L283 77 L292 73 L296 72 " fill="none" stroke="black" /></svg>