<?xml version="1.0" encoding="utf-8" ?>
<svg baseProfile="tiny" height="231" version="1.2" viewBox="-3 -3 1182 231" width="1182" xmlns="http://www.w3.org/2000/svg" xmlns:ev="http://www.w3.org/2001/xml-events" xmlns:xlink="http://www.w3.org/1999/xlink"><defs /><path d="M77 35 L88 68 L73 150 L16 213 L2 218 L0 190 L11 112 L53 42 L94 27 L118 45 L135 98 L124 175 L106 200 L100 201 L96 194 L93 144 L118 62 L168 35 L208 37 L223 68 L221 157 L201 191 L174 198 L163 191 L146 139 L146 54 L198 3 L241 2 L279 44 L292 102 L271 158 L248 177 L218 185 L198 176 L185 138 L197 79 L244 43 L302 39 L333 69 L345 127 L336 177 L319 195 L303 199 L291 192 L282 148 L294 86 L322 50 L349 46 L364 60 L378 103 L371 140 L342 177 L328 185 L324 169 L339 99 L405 43 L421 38 L425 43 L432 64 L428 107 L402 127 L383 133 L382 98 L401 41 L467 4 L573 28 L597 77 L592 115 L565 168 L517 185 L475 175 L458 153 L457 95 L488 39 L560 12 L669 28 L706 76 L693 153 L649 206 L591 231 L564 226 L541 193 L538 119 L573 51 L628 29 L710 48 L752 106 L754 172 L734 210 L719 224 L710 223 L700 193 L693 104 L708 80 L765 61 L812 75 L832 119 L825 195 L809 219 L793 224 L784 217 L768 184 L763 100 L797 43 L861 21 L897 33 L937 96 L951 151 L935 184 L916 197 L912 197 L898 158 L892 81 L930 19 L982 4 L1015 24 L1040 72 L1034 136 L1012 171 L977 184 L956 181 L948 161 L961 80 L1028 18 L1110 0 L1148 28 L1182 117 L1173 177 L1154 193 L1144 193 L1134 187 L1120 175 L1118 171 L1118 166 " fill="none" stroke="black" /></svg>