<?xml version="1.0" encoding="utf-8" ?>
<svg baseProfile="tiny" height="308" version="1.2" viewBox="-3 -3 730 308" width="730" xmlns="http://www.w3.org/2000/svg" xmlns:ev="http://www.w3.org/2001/xml-events" xmlns:xlink="http://www.w3.org/1999/xlink"><defs /><path d="M594 198 L595 198 L612 238 L652 303 L658 308 L662 302 L674 284 L678 279 L678 278 " fill="none" stroke="black" /><path d="M594 198 L595 198 L612 238 L652 303 L658 308 L662 302 L674 284 L678 279 L678 278 M8 111 L16 107 L53 97 L77 95 L89 108 L111 136 L150 173 L162 175 L180 160 L238 111 L286 84 L292 83 L312 110 L359 154 L369 161 L376 158 L420 133 L457 119 L461 121 L469 135 L501 182 L503 183 L505 180 L517 165 L526 155 L527 156 L549 198 L579 243 L582 246 L585 242 L604 222 L620 205 L621 205 L629 224 L640 245 L641 247 " fill="none" stroke="black" /><path d="M594 198 L595 198 L612 238 L652 303 L658 308 L662 302 L674 284 L678 279 L678 278 M8 111 L16 107 L53 97 L77 95 L89 108 L111 136 L150 173 L162 175 L180 160 L238 111 L286 84 L292 83 L312 110 L359 154 L369 161 L376 158 L420 133 L457 119 L461 121 L469 135 L501 182 L503 183 L505 180 L517 165 L526 155 L527 156 L549 198 L579 243 L582 246 L585 242 L604 222 L620 205 L621 205 L629 224 L640 245 L641 247 M42 208 L44 208 L46 207 L69 198 L142 177 L164 171 L165 173 L173 189 L183 202 L184 202 L209 191 L330 143 L389 124 L401 135 L430 182 L445 206 L453 199 L494 175 L525 168 L533 174 L548 190 L565 210 L568 213 L571 212 L581 210 L583 210 " fill="none" stroke="black" /><path d="M594 198 L595 198 L612 238 L652 303 L658 308 L662 302 L674 284 L678 279 L678 278 M8 111 L16 107 L53 97 L77 95 L89 108 L111 136 L150 173 L162 175 L180 160 L238 111 L286 84 L292 83 L312 110 L359 154 L369 161 L376 158 L420 133 L457 119 L461 121 L469 135 L501 182 L503 183 L505 180 L517 165 L526 155 L527 156 L549 198 L579 243 L582 246 L585 242 L604 222 L620 205 L621 205 L629 224 L640 245 L641 247 M42 208 L44 208 L46 207 L69 198 L142 177 L164 171 L165 173 L173 189 L183 202 L184 202 L209 191 L330 143 L389 124 L401 135 L430 182 L445 206 L453 199 L494 175 L525 168 L533 174 L548 190 L565 210 L568 213 L571 212 L581 210 L583 210 M70 9 L69 10 L64 14 L54 23 L45 29 L34 37 L27 43 L21 48 L13 53 L12 53 L12 54 L11 55 L2 61 L1 62 L0 62 " fill="none" stroke="black" /><path d="M594 198 L595 198 L612 238 L652 303 L658 308 L662 302 L674 284 L678 279 L678 278 M8 111 L16 107 L53 97 L77 95 L89 108 L111 136 L150 173 L162 175 L180 160 L238 111 L286 84 L292 83 L312 110 L359 154 L369 161 L376 158 L420 133 L457 119 L461 121 L469 135 L501 182 L503 183 L505 180 L517 165 L526 155 L527 156 L549 198 L579 243 L582 246 L585 242 L604 222 L620 205 L621 205 L629 224 L640 245 L641 247 M42 208 L44 208 L46 207 L69 198 L142 177 L164 171 L165 173 L173 189 L183 202 L184 202 L209 191 L330 143 L389 124 L401 135 L430 182 L445 206 L453 199 L494 175 L525 168 L533 174 L548 190 L565 210 L568 213 L571 212 L581 210 L583 210 M70 9 L69 10 L64 14 L54 23 L45 29 L34 37 L27 43 L21 48 L13 53 L12 53 L12 54 L11 55 L2 61 L1 62 L0 62 M73 11 L75 12 L81 16 L86 20 L93 27 L103 35 L112 44 L119 48 L121 51 L122 51 L123 51 L134 49 L165 36 L195 20 L208 10 L212 6 L215 2 L216 1 L217 0 L221 2 L232 10 L247 22 L258 29 L266 34 L271 38 L272 39 L274 39 L284 42 L306 47 L321 52 L322 53 L323 53 L326 56 L327 57 L330 59 L332 60 L335 60 L347 57 L386 45 L408 34 L420 27 L423 25 L428 31 L449 63 L468 93 L471 98 L479 90 L511 64 L526 51 L530 48 L538 58 L582 115 L608 147 L611 150 L621 144 L648 125 L671 108 L686 97 L687 97 L694 112 L720 148 L730 161 L730 162 " fill="none" stroke="black" /></svg>