<?xml version="1.0" encoding="utf-8" ?>
<svg baseProfile="tiny" height="189" version="1.2" viewBox="-3 -3 301 189" width="301" xmlns="http://www.w3.org/2000/svg" xmlns:ev="http://www.w3.org/2001/xml-events" xmlns:xlink="http://www.w3.org/1999/xlink"><defs /><path d="M21 4 L30 1 L36 0 L37 1 L40 1 L50 5 L57 8 L58 8 L59 8 L63 13 L70 18 L73 22 L79 28 L87 33 L97 40 L104 43 L112 45 L121 48 L128 48 L138 48 L144 47 L148 45 L153 43 L161 39 L167 35 L173 32 L181 28 L185 27 L190 26 L196 25 L201 25 L206 25 L223 27 L233 30 L235 32 L241 38 L252 50 L261 63 L271 75 L275 80 L277 81 L281 82 L292 82 L298 78 L300 77 L301 76 L301 75 " fill="none" stroke="black" /><path d="M21 4 L30 1 L36 0 L37 1 L40 1 L50 5 L57 8 L58 8 L59 8 L63 13 L70 18 L73 22 L79 28 L87 33 L97 40 L104 43 L112 45 L121 48 L128 48 L138 48 L144 47 L148 45 L153 43 L161 39 L167 35 L173 32 L181 28 L185 27 L190 26 L196 25 L201 25 L206 25 L223 27 L233 30 L235 32 L241 38 L252 50 L261 63 L271 75 L275 80 L277 81 L281 82 L292 82 L298 78 L300 77 L301 76 L301 75 M0 84 L4 78 L11 73 L21 71 L23 70 L25 71 L36 74 L46 79 L54 83 L57 85 L58 87 L61 91 L68 96 L80 104 L90 108 L94 109 L101 109 L109 109 L125 108 L132 107 L135 106 L141 102 L147 99 L150 96 L155 95 L161 93 L169 90 L179 88 L184 88 L187 87 L188 87 L200 94 L227 104 L234 108 L236 109 L237 111 L242 115 L249 123 L254 127 L257 128 L262 129 L278 130 L286 131 L287 130 L289 126 L291 123 " fill="none" stroke="black" /><path d="M21 4 L30 1 L36 0 L37 1 L40 1 L50 5 L57 8 L58 8 L59 8 L63 13 L70 18 L73 22 L79 28 L87 33 L97 40 L104 43 L112 45 L121 48 L128 48 L138 48 L144 47 L148 45 L153 43 L161 39 L167 35 L173 32 L181 28 L185 27 L190 26 L196 25 L201 25 L206 25 L223 27 L233 30 L235 32 L241 38 L252 50 L261 63 L271 75 L275 80 L277 81 L281 82 L292 82 L298 78 L300 77 L301 76 L301 75 M0 84 L4 78 L11 73 L21 71 L23 70 L25 71 L36 74 L46 79 L54 83 L57 85 L58 87 L61 91 L68 96 L80 104 L90 108 L94 109 L101 109 L109 109 L125 108 L132 107 L135 106 L141 102 L147 99 L150 96 L155 95 L161 93 L169 90 L179 88 L184 88 L187 87 L188 87 L200 94 L227 104 L234 108 L236 109 L237 111 L242 115 L249 123 L254 127 L257 128 L262 129 L278 130 L286 131 L287 130 L289 126 L291 123 M6 172 L6 171 L5 170 L3 168 L1 165 L0 164 L0 162 L2 159 L4 157 L8 152 L16 149 L23 147 L31 145 L37 145 L42 145 L46 146 L52 149 L57 154 L62 160 L68 166 L70 168 L75 171 L85 175 L92 177 L93 177 L96 177 L106 177 L110 176 L113 174 L122 170 L133 164 L140 159 L146 155 L156 155 L164 155 L168 156 L174 160 L183 165 L187 168 L189 171 L191 174 L193 179 L195 181 L197 183 L201 186 L205 189 L207 189 L209 189 L218 189 L229 189 L232 189 L234 189 L242 189 L246 187 L251 184 L253 183 L254 181 " fill="none" stroke="black" /></svg>