<?xml version="1.0" encoding="utf-8" ?>
<svg baseProfile="tiny" height="574" version="1.2" viewBox="-3 -3 596 574" width="596" xmlns="http://www.w3.org/2000/svg" xmlns:ev="http://www.w3.org/2001/xml-events" xmlns:xlink="http://www.w3.org/1999/xlink"><defs /><path d="M550 4 L552 4 L565 4 L584 12 L594 24 L596 42 L580 68 L549 83 L525 80 L511 67 L503 47 L503 27 L512 10 L537 0 L541 0 L553 21 L567 75 L564 119 L540 140 L501 145 L482 135 L476 119 L481 90 L505 74 L531 71 L533 75 L538 104 L523 142 L485 168 L440 174 L423 168 L418 154 L424 125 L450 112 L475 123 L488 144 L487 170 L462 195 L393 210 L357 208 L351 199 L350 174 L367 153 L399 148 L418 163 L427 202 L422 233 L385 283 L344 300 L327 296 L317 279 L316 245 L350 207 L398 194 L424 196 L428 218 L414 273 L367 311 L332 317 L320 313 L309 296 L308 256 L349 222 L395 217 L406 226 L408 264 L387 314 L364 336 L333 342 L324 339 L319 332 L317 298 L334 271 L355 269 L360 286 L337 353 L274 402 L172 428 L137 426 L136 408 L150 367 L178 335 L225 310 L277 304 L281 306 L281 329 L269 355 L237 369 L207 368 L204 361 L213 333 L245 313 L322 317 L341 336 L335 370 L299 414 L230 442 L171 441 L157 433 L157 403 L178 371 L213 356 L230 362 L234 384 L227 420 L162 472 L106 485 L93 485 L94 472 L110 429 L152 400 L190 402 L198 418 L189 452 L144 492 L101 504 L90 503 L88 500 L88 483 L105 458 L128 453 L142 462 L143 474 L126 501 L77 530 L54 532 L52 531 L52 521 L67 500 L99 487 L120 492 L122 503 L112 532 L69 563 L24 574 L12 573 L12 570 L16 550 L40 523 L83 516 L96 522 L97 540 L84 560 L46 573 L16 572 L10 568 L6 562 L0 551 " fill="none" stroke="black" /></svg>