<?xml version="1.0" encoding="utf-8" ?>
<svg baseProfile="tiny" height="148" version="1.2" viewBox="-3 -3 921 148" width="921" xmlns="http://www.w3.org/2000/svg" xmlns:ev="http://www.w3.org/2001/xml-events" xmlns:xlink="http://www.w3.org/1999/xlink"><defs /><path d="M0 102 L2 102 L12 101 L46 101 L88 103 L130 106 L156 109 L179 111 L189 112 L205 115 L245 120 L276 122 L286 122 L291 122 L302 122 L308 123 L309 123 L315 123 L324 122 L329 121 L332 120 L336 117 L341 113 L348 107 L354 102 L361 97 L368 92 L372 87 L378 83 L388 76 L402 66 L414 58 L426 48 L436 41 L446 33 L456 27 L467 21 L479 14 L487 10 L500 8 L511 6 L528 5 L544 2 L559 1 L573 0 L579 0 L582 0 L586 1 L602 4 L614 8 L617 9 L622 12 L638 20 L647 27 L651 30 L655 33 L662 38 L668 43 L672 48 L675 52 L678 58 L679 61 L682 66 L685 74 L688 80 L688 82 L689 83 L690 86 L691 91 L693 98 L694 102 L696 109 L698 116 L700 123 L702 128 L703 130 L705 133 L707 136 L711 139 L715 140 L720 142 L726 144 L734 145 L739 146 L749 147 L760 148 L769 148 L780 148 L786 148 L791 148 L801 148 L807 148 L810 148 L812 148 L815 147 L817 147 L818 147 L821 147 L826 147 L833 147 L843 147 L848 146 L852 146 L856 146 L860 146 L863 145 L867 145 L870 144 L873 144 L877 143 L882 143 L888 141 L896 141 L902 140 L907 140 L909 139 L913 139 L917 137 L920 137 L921 137 " fill="none" stroke="black" /></svg>