<?xml version="1.0" encoding="utf-8" ?>
<svg baseProfile="tiny" height="504" version="1.2" viewBox="-3 -3 759 504" width="759" xmlns="http://www.w3.org/2000/svg" xmlns:ev="http://www.w3.org/2001/xml-events" xmlns:xlink="http://www.w3.org/1999/xlink"><defs /><path d="M0 369 L3 364 L9 350 L16 337 L24 322 L33 309 L43 299 L46 297 L50 295 L60 292 L75 288 L93 284 L100 282 L106 279 L114 274 L125 263 L136 248 L147 230 L158 209 L166 192 L173 176 L185 158 L199 138 L209 129 L218 123 L230 118 L236 118 L241 118 L253 117 L263 116 L270 114 L281 108 L303 89 L330 59 L344 39 L354 24 L364 6 L366 0 " fill="none" stroke="black" /><path d="M0 369 L3 364 L9 350 L16 337 L24 322 L33 309 L43 299 L46 297 L50 295 L60 292 L75 288 L93 284 L100 282 L106 279 L114 274 L125 263 L136 248 L147 230 L158 209 L166 192 L173 176 L185 158 L199 138 L209 129 L218 123 L230 118 L236 118 L241 118 L253 117 L263 116 L270 114 L281 108 L303 89 L330 59 L344 39 L354 24 L364 6 L366 0 M142 432 L147 422 L158 409 L165 403 L170 401 L180 401 L196 402 L222 404 L258 406 L268 403 L274 397 L283 380 L294 346 L305 321 L312 301 L319 286 L324 279 L336 267 L345 260 L348 257 L349 257 L363 255 L400 245 L418 235 L424 229 L430 219 L438 201 L449 178 L458 153 L470 130 L478 116 L484 109 L488 106 L489 105 L490 105 L492 106 " fill="none" stroke="black" /><path d="M0 369 L3 364 L9 350 L16 337 L24 322 L33 309 L43 299 L46 297 L50 295 L60 292 L75 288 L93 284 L100 282 L106 279 L114 274 L125 263 L136 248 L147 230 L158 209 L166 192 L173 176 L185 158 L199 138 L209 129 L218 123 L230 118 L236 118 L241 118 L253 117 L263 116 L270 114 L281 108 L303 89 L330 59 L344 39 L354 24 L364 6 L366 0 M142 432 L147 422 L158 409 L165 403 L170 401 L180 401 L196 402 L222 404 L258 406 L268 403 L274 397 L283 380 L294 346 L305 321 L312 301 L319 286 L324 279 L336 267 L345 260 L348 257 L349 257 L363 255 L400 245 L418 235 L424 229 L430 219 L438 201 L449 178 L458 153 L470 130 L478 116 L484 109 L488 106 L489 105 L490 105 L492 106 M398 504 L401 501 L409 489 L420 472 L427 458 L438 439 L453 423 L466 415 L477 411 L490 411 L510 411 L531 408 L549 403 L561 397 L569 391 L581 379 L587 370 L595 356 L601 344 L603 337 L605 331 L606 325 L607 316 L608 299 L612 277 L617 253 L622 240 L626 234 L630 230 L638 226 L648 221 L655 219 L664 217 L670 217 L677 217 L681 214 L696 205 L720 190 L737 177 L749 169 L753 165 L756 162 L758 161 L759 159 L759 158 " fill="none" stroke="black" /></svg>