<?xml version="1.0" encoding="utf-8" ?>
<svg baseProfile="tiny" height="490" version="1.2" viewBox="-3 -3 551 490" width="551" xmlns="http://www.w3.org/2000/svg" xmlns:ev="http://www.w3.org/2001/xml-events" xmlns:xlink="http://www.w3.org/1999/xlink"><defs /><path d="M149 350 L134 326 L125 260 L167 206 L240 198 L267 212 L271 261 L251 317 L207 343 L155 349 L141 337 L139 275 L164 196 L250 147 L310 163 L354 225 L347 306 L321 349 L274 369 L251 368 L237 348 L229 323 L231 271 L261 221 L317 202 L350 207 L359 241 L338 315 L307 350 L267 356 L247 343 L238 297 L257 223 L324 168 L413 150 L441 162 L447 191 L436 236 L410 263 L384 266 L362 251 L329 188 L327 126 L365 78 L414 74 L466 101 L480 131 L478 172 L451 217 L396 242 L369 238 L362 219 L364 155 L399 97 L467 70 L532 78 L551 106 L549 141 L522 212 L450 279 L402 294 L396 292 L394 264 L403 229 L436 217 L459 231 L471 278 L460 334 L427 370 L377 391 L348 395 L347 394 L349 376 L356 367 L363 370 L373 389 L363 412 L308 455 L214 478 L179 475 L178 471 L182 447 L200 422 L235 414 L253 422 L253 442 L234 471 L177 490 L80 488 L44 470 L40 431 L48 383 L74 344 L114 320 L153 319 L166 345 L155 396 L132 416 L101 418 L86 401 L73 350 L74 305 L104 252 L125 235 L128 235 L134 252 L128 275 L108 286 L81 283 L43 245 L35 194 L64 122 L103 87 L126 83 L132 93 L136 123 L117 166 L70 196 L18 198 L2 182 L0 120 L28 67 L120 26 L210 28 L224 53 L219 92 L198 123 L190 126 L177 124 L166 102 L171 64 L209 21 L259 0 L320 12 L335 34 L333 63 L316 89 L282 103 L237 103 L230 96 L236 62 L280 23 L387 4 L426 26 L440 72 L431 108 L403 124 L348 133 L335 134 L335 133 " fill="none" stroke="black" /></svg>