<?xml version="1.0" encoding="utf-8" ?>
<svg baseProfile="tiny" height="303" version="1.2" viewBox="-3 -3 878 303" width="878" xmlns="http://www.w3.org/2000/svg" xmlns:ev="http://www.w3.org/2001/xml-events" xmlns:xlink="http://www.w3.org/1999/xlink"><defs /><path d="M878 289 L877 292 L875 294 L860 298 L823 303 L791 300 L779 296 L745 282 L700 258 L678 243 L662 224 L658 209 L653 184 L653 150 L663 116 L674 95 L688 82 L693 80 L698 83 L712 100 L730 130 L736 150 L736 172 L735 190 L726 219 L715 238 L704 256 L689 268 L672 278 L654 285 L633 291 L618 294 L596 294 L574 284 L564 275 L548 252 L524 212 L509 177 L500 137 L500 106 L503 76 L511 58 L518 49 L525 44 L529 46 L537 57 L545 70 L551 88 L552 120 L549 145 L541 172 L528 199 L513 223 L500 240 L486 250 L467 260 L444 267 L425 269 L417 269 L413 266 L386 234 L355 189 L340 147 L336 118 L337 84 L348 55 L359 34 L382 9 L393 1 L394 0 L398 3 L407 15 L414 29 L418 45 L419 69 L419 89 L418 109 L413 127 L395 165 L365 207 L342 235 L327 248 L315 258 L300 264 L293 266 L288 265 L279 260 L253 240 L232 215 L217 176 L209 142 L211 108 L218 79 L229 56 L245 37 L252 31 L253 31 L256 33 L265 49 L275 71 L278 97 L277 117 L265 145 L241 184 L214 214 L186 242 L152 261 L139 264 L133 265 L117 248 L87 221 L71 199 L65 186 L59 173 L57 166 L56 160 L55 154 L55 143 L56 128 L56 118 L56 106 L59 100 L62 97 L66 96 L70 98 L75 102 L88 113 L103 135 L110 164 L105 186 L95 203 L68 233 L27 268 L0 284 L0 285 " fill="none" stroke="black" /></svg>