<?xml version="1.0" encoding="utf-8" ?>
<svg baseProfile="tiny" height="596" version="1.2" viewBox="-3 -3 993 596" width="993" xmlns="http://www.w3.org/2000/svg" xmlns:ev="http://www.w3.org/2001/xml-events" xmlns:xlink="http://www.w3.org/1999/xlink"><defs /><path d="M176 0 L170 8 L144 35 L114 70 L69 125 L42 154 L19 185 L4 205 L0 214 L0 215 L19 199 L92 163 L170 125 L203 99 L224 77 L244 55 L264 38 L272 32 L275 29 L279 24 L283 20 L284 18 L282 20 L255 59 L208 116 L171 167 L133 214 L101 253 L81 282 L66 311 L58 328 L54 335 L54 336 L81 320 L164 282 L231 241 L279 195 L317 164 L346 137 L372 116 L385 107 L395 97 L402 92 L416 82 L420 79 L411 94 L378 133 L355 163 L302 226 L267 271 L236 315 L210 355 L190 386 L179 403 L176 406 L180 402 L262 357 L340 320 L405 282 L463 243 L492 218 L515 203 L536 189 L544 181 L553 173 L557 170 L559 169 L558 172 L547 204 L516 259 L468 335 L435 398 L411 444 L399 472 L390 492 L386 498 L386 499 L397 486 L447 449 L498 408 L569 344 L643 275 L676 229 L693 204 L707 180 L711 174 L712 173 L711 177 L698 220 L676 288 L655 357 L637 412 L628 439 L623 449 L623 452 L620 458 L616 466 L614 470 L613 472 L613 474 L612 477 L611 479 L611 482 L610 483 L610 485 L610 487 L609 490 L609 493 L609 495 L609 494 L640 475 L717 396 L782 323 L809 281 L819 263 L824 254 L827 248 L829 244 L828 249 L815 308 L799 385 L781 443 L772 491 L762 526 L754 544 L749 552 L747 557 L747 558 L759 545 L828 495 L880 446 L912 403 L948 350 L981 301 L992 286 L993 285 L988 330 L972 414 L938 541 L919 592 L918 596 L917 594 " fill="none" stroke="black" /></svg>