<?xml version="1.0" encoding="utf-8" ?>
<svg baseProfile="tiny" height="216" version="1.2" viewBox="-3 -3 660 216" width="660" xmlns="http://www.w3.org/2000/svg" xmlns:ev="http://www.w3.org/2001/xml-events" xmlns:xlink="http://www.w3.org/1999/xlink"><defs /><path d="M8 22 L10 17 L13 11 L20 5 L25 2 L30 0 L40 1 L58 7 L92 19 L110 30 L118 35 L123 39 L127 43 L138 50 L148 54 L157 58 L163 60 L173 63 L181 63 L187 63 L195 61 L202 58 L209 53 L221 47 L239 39 L255 34 L272 30 L284 28 L299 29 L326 32 L350 38 L365 44 L374 49 L385 56 L395 64 L417 81 L443 97 L451 102 L484 112 L504 113 L538 113 L553 110 L558 109 L558 108 " fill="none" stroke="black" /><path d="M8 22 L10 17 L13 11 L20 5 L25 2 L30 0 L40 1 L58 7 L92 19 L110 30 L118 35 L123 39 L127 43 L138 50 L148 54 L157 58 L163 60 L173 63 L181 63 L187 63 L195 61 L202 58 L209 53 L221 47 L239 39 L255 34 L272 30 L284 28 L299 29 L326 32 L350 38 L365 44 L374 49 L385 56 L395 64 L417 81 L443 97 L451 102 L484 112 L504 113 L538 113 L553 110 L558 109 L558 108 M0 97 L5 95 L30 91 L81 81 L127 79 L142 79 L153 82 L160 87 L171 95 L187 106 L201 114 L216 123 L247 134 L278 142 L300 144 L309 144 L315 141 L332 136 L359 128 L388 120 L424 116 L453 115 L477 118 L508 128 L525 138 L547 153 L572 171 L607 189 L629 197 L649 198 L659 197 L660 196 " fill="none" stroke="black" /><path d="M8 22 L10 17 L13 11 L20 5 L25 2 L30 0 L40 1 L58 7 L92 19 L110 30 L118 35 L123 39 L127 43 L138 50 L148 54 L157 58 L163 60 L173 63 L181 63 L187 63 L195 61 L202 58 L209 53 L221 47 L239 39 L255 34 L272 30 L284 28 L299 29 L326 32 L350 38 L365 44 L374 49 L385 56 L395 64 L417 81 L443 97 L451 102 L484 112 L504 113 L538 113 L553 110 L558 109 L558 108 M0 97 L5 95 L30 91 L81 81 L127 79 L142 79 L153 82 L160 87 L171 95 L187 106 L201 114 L216 123 L247 134 L278 142 L300 144 L309 144 L315 141 L332 136 L359 128 L388 120 L424 116 L453 115 L477 118 L508 128 L525 138 L547 153 L572 171 L607 189 L629 197 L649 198 L659 197 L660 196 M4 162 L7 160 L22 157 L62 151 L143 154 L177 162 L185 166 L188 168 L197 174 L206 179 L223 183 L249 187 L300 193 L358 197 L380 198 L393 195 L426 187 L487 176 L543 169 L572 171 L594 178 L615 189 L625 194 L635 203 L646 214 L648 216 " fill="none" stroke="black" /></svg>