<?xml version="1.0" encoding="utf-8" ?>
<svg baseProfile="tiny" height="313" version="1.2" viewBox="-3 -3 304 313" width="304" xmlns="http://www.w3.org/2000/svg" xmlns:ev="http://www.w3.org/2001/xml-events" xmlns:xlink="http://www.w3.org/1999/xlink"><defs /><path d="M1 78 L1 79 L0 80 L1 80 L12 73 L39 66 L48 65 L46 70 L34 88 L18 109 L14 115 L15 114 L30 101 L58 84 L65 81 L65 82 L65 88 L61 98 L59 105 L58 109 L59 107 L68 95 L75 88 L79 86 L80 84 L81 81 L85 76 L87 72 L90 68 L93 63 L94 61 L95 61 L96 60 L98 58 L100 56 L103 54 L106 52 L112 47 L116 45 L120 42 L125 38 L135 33 L154 22 L174 14 L187 10 L203 7 L232 1 L254 0 L274 0 L284 2 L293 6 L297 10 L300 14 L303 21 L304 36 L301 49 L295 63 L289 74 L285 80 L280 85 L273 96 L262 110 L254 121 L246 130 L238 143 L227 154 L219 163 L211 169 L207 174 L203 178 L201 179 L201 180 L199 181 L196 186 L191 191 L187 197 L183 203 L180 208 L178 211 L176 214 L175 216 L173 218 L172 219 L172 220 L172 221 L172 224 L172 226 L172 227 L173 228 L173 230 L174 232 L175 234 L176 236 L176 237 L176 238 L177 239 L178 240 L178 241 L179 242 L180 243 L180 244 L181 245 L182 246 L186 250 L188 251 L189 252 L191 253 L192 254 L194 256 L197 258 L199 260 L200 261 L201 262 L202 264 L203 265 L206 267 L207 268 L208 269 L210 270 L211 271 L213 272 L215 274 L219 277 L222 279 L224 281 L224 282 L225 282 L226 283 L227 283 L230 283 L239 281 L263 271 L275 267 L282 264 L282 272 L279 279 L278 283 L279 282 L280 280 L281 284 L279 297 L277 304 L277 305 L281 299 L293 289 L295 288 L295 300 L293 310 L292 313 L292 312 " fill="none" stroke="black" /></svg>