<?xml version="1.0" encoding="utf-8" ?>
<svg baseProfile="tiny" height="332" version="1.2" viewBox="-3 -3 427 332" width="427" xmlns="http://www.w3.org/2000/svg" xmlns:ev="http://www.w3.org/2001/xml-events" xmlns:xlink="http://www.w3.org/1999/xlink"><defs /><path d="M24 11 L13 29 L2 46 L0 51 L1 50 L35 27 L91 2 L95 0 L95 2 L87 24 L71 45 L67 52 L69 48 L89 32 L117 12 L118 11 L113 23 L98 47 L95 53 L96 52 L112 39 L142 20 L144 19 L142 29 L125 62 L111 77 L111 78 L112 76 L126 60 L148 39 L150 37 L146 53 L131 83 L126 90 L127 88 L141 74 L156 63 L157 63 L153 76 L144 101 L142 103 L143 103 L151 92 L166 73 L176 64 L175 67 L165 93 L159 113 L159 114 L168 103 L188 86 L194 84 L194 98 L183 134 L178 150 L179 148 L194 126 L206 106 L209 102 L208 104 L201 124 L194 137 L203 122 L215 109 L216 108 L214 121 L207 144 L197 167 L197 166 L204 154 L220 135 L223 132 L223 134 L217 159 L214 170 L214 169 L227 153 L247 138 L243 156 L235 180 L231 188 L234 184 L244 167 L257 154 L257 155 L249 185 L240 213 L246 202 L268 180 L288 164 L288 166 L279 196 L269 223 L267 227 L271 220 L283 203 L295 188 L288 210 L278 236 L277 237 L278 237 L285 227 L302 200 L312 192 L313 197 L305 242 L299 264 L305 252 L321 228 L327 222 L324 236 L312 270 L310 278 L313 272 L324 255 L344 229 L345 228 L344 247 L332 293 L330 300 L333 295 L344 276 L358 257 L359 256 L358 264 L355 287 L353 297 L354 295 L364 283 L373 268 L372 290 L370 310 L374 305 L393 283 L416 266 L416 271 L415 308 L414 321 L415 320 L421 306 L427 296 L426 319 L426 332 L426 329 " fill="none" stroke="black" /></svg>