<?xml version="1.0" encoding="utf-8" ?>
<svg baseProfile="tiny" height="468" version="1.2" viewBox="-3 -3 691 468" width="691" xmlns="http://www.w3.org/2000/svg" xmlns:ev="http://www.w3.org/2001/xml-events" xmlns:xlink="http://www.w3.org/1999/xlink"><defs /><path d="M359 122 L367 86 L367 85 L367 132 L361 239 L352 276 L338 316 L331 340 L331 343 L331 344 L333 343 L386 206 L407 77 L419 46 L407 88 L393 193 L384 238 L374 278 L365 298 L363 301 L375 255 L396 125 L399 110 L399 111 L392 221 L383 298 L373 340 L371 348 L371 347 L425 167 L457 43 L466 0 L466 2 L426 128 L400 270 L384 386 L382 408 L429 282 L485 192 L496 168 L490 189 L428 362 L406 457 L404 468 L467 342 L528 166 L538 103 L537 103 L485 173 L457 273 L476 301 L523 295 L568 250 L557 214 L442 187 L374 192 L259 244 L217 302 L223 338 L368 305 L464 195 L473 151 L439 128 L274 133 L131 198 L64 292 L75 331 L147 330 L335 249 L409 164 L398 140 L339 133 L175 178 L32 273 L0 357 L24 371 L208 320 L317 246 L369 171 L366 165 L325 171 L247 288 L248 372 L328 388 L479 332 L573 225 L573 165 L489 158 L398 202 L301 341 L293 397 L376 394 L510 316 L603 195 L604 160 L503 152 L335 211 L241 307 L235 371 L277 378 L390 312 L418 233 L381 191 L277 178 L166 202 L127 251 L121 274 L126 271 L211 162 L214 136 L182 133 L84 165 L58 186 L60 220 L83 221 L151 170 L223 106 L229 96 L221 104 L122 245 L109 311 L109 315 L167 260 L317 121 L329 112 L319 128 L202 278 L176 318 L178 319 L316 216 L358 185 L347 204 L294 297 L240 365 L235 400 L282 359 L400 242 L449 201 L449 200 L382 312 L342 392 L352 391 L514 335 L524 335 L524 336 L522 379 L520 405 L529 405 L683 405 L691 405 " fill="none" stroke="black" /></svg>