<?xml version="1.0" encoding="utf-8" ?>
<svg baseProfile="tiny" height="546" version="1.2" viewBox="-3 -3 1010 546" width="1010" xmlns="http://www.w3.org/2000/svg" xmlns:ev="http://www.w3.org/2001/xml-events" xmlns:xlink="http://www.w3.org/1999/xlink"><defs /><path d="M95 380 L142 285 L166 249 L182 230 L209 208 L225 196 L267 176 L279 174 L289 192 L282 250 L265 309 L243 394 L241 437 L245 442 L263 436 L379 281 L452 146 L484 95 L498 87 L507 92 L523 117 L531 189 L514 232 L452 315 L406 398 L400 417 L403 419 L426 419 L506 344 L548 240 L574 156 L610 98 L620 94 L630 110 L639 250 L624 400 L624 503 L646 512 L742 397 L866 248 L939 108 L955 56 L796 135 L673 232 L543 343 L483 382 L483 383 L481 379 L420 201 L365 129 L233 129 L105 197 L78 245 L79 292 L119 351 L236 376 L400 326 L605 207 L756 78 L828 9 L846 0 L853 7 L820 178 L775 335 L747 433 L767 453 L895 461 L976 424 L1010 381 L1005 371 L798 298 L593 270 L361 290 L204 358 L141 380 L137 381 L143 308 L136 136 L79 50 L48 68 L0 310 L26 508 L66 546 L165 523 L397 427 L555 296 L628 232 L641 198 L642 191 L642 195 L665 295 L724 354 L798 368 L897 329 L949 284 L956 276 L957 275 L959 277 L961 282 L961 287 L961 293 L956 296 L838 206 L755 142 " fill="none" stroke="black" /></svg>