<?xml version="1.0" encoding="utf-8" ?>
<svg baseProfile="tiny" height="555" version="1.2" viewBox="-3 -3 1157 555" width="1157" xmlns="http://www.w3.org/2000/svg" xmlns:ev="http://www.w3.org/2001/xml-events" xmlns:xlink="http://www.w3.org/1999/xlink"><defs /><path d="M66 356 L137 307 L209 279 L215 281 L176 335 L99 441 L115 449 L241 373 L243 370 L219 395 L206 419 L234 399 L342 326 L336 331 L316 349 L377 326 L593 191 L590 196 L464 331 L462 344 L653 245 L841 94 L840 90 L707 263 L618 422 L642 427 L960 252 L1058 223 L1040 239 L888 440 L845 555 L973 522 L1069 414 L1073 398 L935 435 L851 486 L872 479 L1105 328 L1157 239 L1018 250 L713 391 L626 453 L737 390 L914 219 L927 185 L741 232 L529 363 L502 383 L546 343 L718 149 L643 117 L455 175 L361 257 L366 264 L502 184 L578 96 L520 99 L284 237 L202 345 L244 348 L417 220 L497 132 L405 140 L188 273 L126 355 L144 379 L335 234 L372 162 L259 151 L54 276 L0 337 L13 349 L214 181 L387 0 L347 23 L164 204 L74 407 L125 428 L397 251 L624 118 L625 136 L487 343 L431 437 L487 436 L691 297 L701 277 L575 354 L472 467 L486 469 L746 309 L786 264 L757 266 L636 311 L603 317 L590 286 L543 105 " fill="none" stroke="black" /></svg>