<?xml version="1.0" encoding="utf-8" ?>
<svg baseProfile="tiny" height="436" version="1.2" viewBox="-3 -3 1048 436" width="1048" xmlns="http://www.w3.org/2000/svg" xmlns:ev="http://www.w3.org/2001/xml-events" xmlns:xlink="http://www.w3.org/1999/xlink"><defs /><path d="M0 335 L55 278 L127 213 L167 176 L203 144 L215 141 L238 255 L232 307 L236 352 L274 387 L389 395 L483 339 L548 221 L559 161 L539 139 L501 126 L458 135 L452 156 L479 184 L636 204 L789 167 L854 135 L858 89 L795 16 L730 23 L685 75 L670 160 L686 239 L782 285 L877 271 L948 210 L969 161 L952 101 L852 45 L753 78 L673 163 L648 303 L667 368 L774 377 L864 331 L905 263 L861 212 L613 170 L465 198 L349 323 L331 421 L347 436 L459 344 L511 198 L476 149 L353 146 L212 243 L179 287 L244 263 L338 176 L336 142 L245 134 L133 219 L106 267 L122 265 L237 166 L240 138 L182 127 L73 193 L56 243 L88 252 L264 185 L361 122 L323 93 L195 123 L109 236 L101 336 L191 327 L433 174 L497 75 L462 54 L331 89 L213 268 L199 377 L264 386 L457 287 L553 172 L544 147 L460 127 L352 205 L331 296 L410 300 L553 228 L677 88 L662 29 L550 35 L473 141 L450 238 L509 264 L756 181 L883 63 L877 1 L788 0 L645 97 L563 262 L603 339 L815 298 L1002 143 L1020 73 L962 45 L840 141 L798 312 L823 375 L966 323 L1045 234 L1048 109 L927 43 L773 117 L715 151 " fill="none" stroke="black" /></svg>