<?xml version="1.0" encoding="utf-8" ?>
<svg baseProfile="tiny" height="360" version="1.2" viewBox="-3 -3 747 360" width="747" xmlns="http://www.w3.org/2000/svg" xmlns:ev="http://www.w3.org/2001/xml-events" xmlns:xlink="http://www.w3.org/1999/xlink"><defs /><path d="M106 55 L108 71 L96 100 L81 141 L77 157 L77 164 L79 167 L189 144 L228 124 L262 95 L292 83 L294 84 L294 90 L289 130 L285 160 L284 166 L287 168 L334 158 L382 141 L393 133 L428 110 L435 106 L438 104 L451 103 L476 99 L491 98 L501 103 L507 110 L513 118 L522 138 L556 172 L580 186 L597 194 L605 195 L613 193 L655 126 L678 92 L690 78 L714 57 L724 58 L739 78 L747 108 L744 164 L737 192 L737 212 L735 222 L722 239 L684 257 L631 268 L545 264 L484 252 L469 247 L463 247 L462 247 L466 293 L477 357 L477 360 L446 347 L292 288 L262 268 L243 254 L232 245 L227 244 L220 251 L217 278 L217 287 L217 290 L213 297 L199 308 L185 310 L159 294 L118 263 L95 244 L85 238 L80 238 L71 245 L58 270 L52 295 L51 316 L51 321 L51 322 L51 317 L43 281 L33 243 L31 237 L31 236 L37 237 L58 247 L94 265 L158 278 L186 267 L229 230 L269 199 L273 198 L281 199 L307 211 L341 236 L365 248 L380 249 L410 244 L426 239 L435 231 L455 210 L473 197 L486 195 L530 199 L555 203 L566 204 L590 195 L631 176 L649 172 L662 170 L679 172 L693 175 L700 175 L711 171 L722 163 L729 150 L722 121 L656 60 L569 28 L524 4 L505 0 L492 11 L422 110 L401 141 L380 160 L363 171 L350 176 L328 178 L305 177 L285 169 L249 131 L230 97 L221 81 L213 72 L208 67 L199 64 L165 70 L128 96 L112 127 L104 137 L91 143 L79 146 L69 146 L36 142 L13 135 L4 133 L0 133 " fill="none" stroke="black" /></svg>