<?xml version="1.0" encoding="utf-8" ?>
<svg baseProfile="tiny" height="433" version="1.2" viewBox="-3 -3 1079 433" width="1079" xmlns="http://www.w3.org/2000/svg" xmlns:ev="http://www.w3.org/2001/xml-events" xmlns:xlink="http://www.w3.org/1999/xlink"><defs /><path d="M27 392 L57 366 L65 359 L11 410 L0 429 L3 431 L11 431 L13 431 L13 433 L74 405 L126 363 L108 379 L86 403 L169 325 L176 319 L130 359 L125 374 L269 279 L268 279 L223 327 L224 338 L260 314 L260 311 L152 419 L180 404 L380 218 L346 238 L181 388 L191 398 L359 269 L320 285 L238 350 L284 342 L440 234 L356 275 L288 366 L361 329 L470 225 L370 283 L287 369 L391 308 L508 204 L474 221 L327 349 L345 347 L494 244 L490 247 L445 286 L459 290 L579 219 L523 260 L464 331 L493 316 L634 207 L624 214 L538 284 L552 281 L731 195 L661 244 L630 263 L688 254 L826 167 L803 165 L767 176 L767 177 L776 174 L782 169 L706 231 L689 248 L801 147 L818 130 L786 154 L729 221 L795 193 L904 93 L875 97 L754 206 L763 227 L967 109 L999 88 L929 161 L927 192 L1042 146 L1061 130 L985 159 L942 211 L962 215 L1079 152 L1058 149 L990 184 L988 199 L1018 186 L1018 177 L945 161 L938 165 L943 167 L966 154 L921 165 L806 261 L827 250 L981 90 L863 118 L769 169 L769 168 L811 133 L775 91 L612 214 L565 289 L612 272 L793 121 L776 113 L647 195 L601 259 L616 246 L773 7 L728 0 L576 146 L555 180 L681 71 L684 55 L620 87 L608 164 L612 180 " fill="none" stroke="black" /></svg>