<?xml version="1.0" encoding="utf-8" ?>
<svg baseProfile="tiny" height="397" version="1.2" viewBox="-3 -3 1142 397" width="1142" xmlns="http://www.w3.org/2000/svg" xmlns:ev="http://www.w3.org/2001/xml-events" xmlns:xlink="http://www.w3.org/1999/xlink"><defs /><path d="M83 298 L82 298 L80 299 L79 298 L91 271 L108 237 L110 236 L100 256 L88 282 L91 282 L245 130 L246 132 L172 222 L172 226 L292 134 L298 129 L244 191 L227 219 L318 147 L322 143 L228 267 L192 326 L234 293 L420 125 L428 126 L380 206 L372 233 L567 103 L683 0 L661 23 L525 160 L510 202 L628 128 L755 8 L752 13 L582 156 L437 312 L435 322 L684 103 L777 8 L749 27 L547 213 L421 352 L440 346 L717 104 L821 12 L792 44 L613 258 L551 343 L683 279 L966 43 L968 36 L828 152 L688 338 L694 346 L902 164 L938 142 L912 161 L831 238 L835 238 L989 112 L990 108 L849 180 L793 220 L793 217 L821 115 L771 113 L651 223 L646 236 L729 193 L812 90 L686 112 L457 257 L411 292 L412 288 L454 198 L452 196 L365 276 L360 285 L360 280 L341 229 L93 305 L25 395 L96 397 L298 225 L357 153 L312 151 L78 282 L0 393 L23 384 L291 162 L364 90 L359 95 L243 235 L229 264 L329 191 L429 74 L419 77 L264 291 L260 376 L436 266 L608 98 L608 86 L396 268 L294 382 L379 332 L648 84 L693 34 L611 87 L461 286 L461 316 L661 174 L800 34 L799 40 L650 235 L635 288 L801 235 L1016 79 L1036 60 L916 169 L820 295 L836 301 L1060 140 L1142 67 L1117 82 L858 321 L822 364 L963 271 L1053 182 L1049 185 L938 287 L932 292 L933 290 " fill="none" stroke="black" /></svg>