<?xml version="1.0" encoding="utf-8" ?>
<svg baseProfile="tiny" height="239" version="1.2" viewBox="-3 -3 524 239" width="524" xmlns="http://www.w3.org/2000/svg" xmlns:ev="http://www.w3.org/2001/xml-events" xmlns:xlink="http://www.w3.org/1999/xlink"><defs /><path d="M242 90 L264 90 L277 90 L291 91 L302 93 L316 95 L326 98 L332 101 L340 104 L345 106 L353 109 L357 112 L361 115 L363 117 L363 120 L362 123 L359 127 L350 131 L341 134 L330 136 L322 137 L312 137 L299 137 L290 137 L276 137 L261 137 L250 137 L238 137 L216 137 L198 137 L187 137 L166 138 L152 139 L143 139 L138 139 L132 139 L127 140 L122 140 L116 140 L112 140 L107 141 L103 142 L99 142 L96 142 L91 143 L86 143 L80 144 L68 147 L59 150 L50 153 L39 157 L28 162 L19 166 L15 169 L11 173 L8 176 L5 182 L1 195 L0 212 L0 222 L2 226 L4 230 L9 233 L19 236 L30 239 L37 239 L44 239 L53 239 L66 237 L79 234 L85 231 L90 228 L99 224 L114 218 L136 208 L159 196 L175 189 L187 183 L196 179 L206 173 L216 167 L227 161 L234 156 L245 144 L262 121 L277 98 L284 85 L289 79 L296 71 L303 64 L311 56 L322 49 L334 44 L342 40 L353 36 L367 33 L383 29 L397 25 L437 13 L474 4 L488 1 L499 0 L511 0 L514 1 L517 4 L522 20 L524 39 L523 53 L518 63 L511 71 L503 79 L492 87 L485 93 L471 99 L446 106 L425 114 L402 121 L356 131 L332 135 L311 137 L305 137 L300 137 L286 134 L263 128 L248 124 L231 118 L216 112 L202 105 L191 99 L177 90 L164 83 L152 77 L142 72 L131 70 L119 69 L112 68 L108 69 L105 71 L103 76 L102 90 L106 108 L107 115 L110 120 L111 123 L112 129 L114 137 L117 145 L120 155 L121 160 L123 163 " fill="none" stroke="black" /></svg>