<?xml version="1.0" encoding="utf-8" ?>
<svg baseProfile="tiny" height="499" version="1.2" viewBox="-3 -3 1079 499" width="1079" xmlns="http://www.w3.org/2000/svg" xmlns:ev="http://www.w3.org/2001/xml-events" xmlns:xlink="http://www.w3.org/1999/xlink"><defs /><path d="M0 324 L73 261 L248 138 L358 95 L375 100 L374 104 L211 239 L80 338 L75 345 L248 224 L420 89 L467 49 L457 57 L266 229 L133 398 L121 430 L239 376 L512 220 L664 144 L656 150 L438 323 L279 458 L224 499 L333 391 L591 191 L717 125 L708 130 L539 249 L367 399 L347 427 L404 394 L701 189 L833 120 L840 115 L744 174 L488 337 L403 407 L405 406 L603 268 L891 64 L984 0 L980 1 L781 180 L629 321 L577 388 L579 391 L755 327 L971 186 L1078 117 L1079 116 L977 178 L812 321 L707 434 L703 442 L717 441 L948 319 L1063 252 L1072 245 L1067 247 L864 386 L800 452 L785 466 L789 465 L979 316 L1070 230 L1071 228 L965 258 L790 354 L728 415 L728 416 L741 412 L790 386 L796 382 " fill="none" stroke="black" /></svg>