<?xml version="1.0" encoding="utf-8" ?>
<svg baseProfile="tiny" height="347" version="1.2" viewBox="-3 -3 711 347" width="711" xmlns="http://www.w3.org/2000/svg" xmlns:ev="http://www.w3.org/2001/xml-events" xmlns:xlink="http://www.w3.org/1999/xlink"><defs /><path d="M0 195 L161 44 L194 26 L170 99 L175 139 L193 139 L317 86 L378 107 L377 130 L373 137 L375 142 L408 156 L414 158 L415 160 L447 164 L472 164 L473 166 L484 170 L676 104 L675 107 L580 220 L565 249 L575 249 L653 220 L654 224 L609 262 L608 264 L711 210 L684 220 L436 332 L400 347 L401 340 L383 311 L306 320 L301 321 L301 317 L273 293 L249 290 L248 288 L286 212 L283 201 L235 202 L223 204 L224 202 L247 163 L234 160 L179 195 L178 196 L179 191 L179 189 L178 187 L177 185 L172 188 L91 248 L99 246 L248 117 L281 88 L252 92 L242 93 L275 76 L370 43 L373 44 L368 78 L393 91 L518 69 L522 85 L469 147 L454 169 L473 172 L563 130 L562 132 L527 169 L526 170 L593 136 L633 106 L633 105 L624 93 L507 0 " fill="none" stroke="black" /></svg>