<?xml version="1.0" encoding="utf-8" ?>
<svg baseProfile="tiny" height="197" version="1.2" viewBox="-3 -3 532 197" width="532" xmlns="http://www.w3.org/2000/svg" xmlns:ev="http://www.w3.org/2001/xml-events" xmlns:xlink="http://www.w3.org/1999/xlink"><defs /><path d="M375 131 L382 130 L392 130 L398 131 L402 133 L408 138 L414 142 L419 147 L424 151 L427 155 L429 158 L432 162 L435 165 L439 169 L448 174 L466 180 L474 182 L478 184 L487 186 L502 188 L507 188 L507 185 L508 180 L511 174 L515 169 L519 163 L522 159 L524 153 L528 147 L530 139 L532 134 L532 129 L531 118 L529 107 L525 96 L519 85 L512 77 L505 71 L487 58 L467 46 L455 42 L441 38 L420 37 L395 35 L373 35 L357 38 L344 42 L329 49 L314 58 L295 72 L279 82 L261 91 L250 97 L241 104 L223 116 L207 126 L196 132 L186 139 L173 149 L162 157 L153 163 L145 170 L138 175 L125 182 L115 187 L107 190 L95 193 L80 195 L67 195 L58 193 L51 192 L41 188 L31 183 L20 177 L12 171 L7 162 L3 154 L0 147 L0 141 L0 135 L8 123 L25 107 L33 101 L37 100 L40 99 L50 96 L102 86 L146 86 L189 90 L208 95 L219 99 L228 104 L236 108 L245 113 L254 119 L265 125 L274 131 L289 145 L310 161 L329 171 L354 180 L397 193 L409 196 L417 197 L438 196 L458 191 L470 186 L479 178 L486 168 L488 155 L482 133 L477 121 L469 111 L441 94 L423 89 L411 89 L398 92 L368 102 L355 110 L345 117 L335 124 L319 132 L307 138 L295 143 L274 150 L253 157 L239 163 L225 167 L215 168 L209 168 L204 167 L199 163 L190 151 L179 115 L173 88 L171 78 L170 74 L170 67 L174 60 L178 52 L184 44 L195 32 L212 20 L232 9 L241 5 L250 2 L263 0 L277 0 L281 1 L284 1 " fill="none" stroke="black" /></svg>