<?xml version="1.0" encoding="utf-8" ?>
<svg baseProfile="tiny" height="615" version="1.2" viewBox="-3 -3 997 615" width="997" xmlns="http://www.w3.org/2000/svg" xmlns:ev="http://www.w3.org/2001/xml-events" xmlns:xlink="http://www.w3.org/1999/xlink"><defs /><path d="M0 468 L22 434 L43 406 L63 379 L83 352 L107 331 L119 322 L145 304 L164 296 L168 296 L161 322 L64 485 L24 546 L24 552 L27 557 L32 558 L84 512 L181 386 L241 289 L358 143 L416 82 L470 59 L484 61 L471 124 L384 267 L292 398 L214 497 L145 615 L144 615 L152 615 L234 568 L314 484 L416 369 L517 241 L587 160 L619 135 L630 133 L638 135 L649 144 L648 184 L583 288 L496 387 L453 455 L439 488 L440 491 L444 492 L555 378 L645 274 L700 193 L776 117 L830 72 L843 65 L852 66 L872 71 L882 81 L835 184 L745 290 L706 331 L699 354 L701 364 L703 367 L711 363 L845 220 L882 173 L915 132 L993 64 L997 55 L997 92 L968 160 L887 216 L866 234 L821 280 L777 315 L761 330 L725 366 L704 386 L703 387 L702 387 L702 386 L762 288 L844 151 L880 119 L921 102 L950 109 L955 120 L945 139 L868 237 L808 314 L759 364 L737 378 L726 384 L721 387 L718 387 L714 382 L625 248 L566 160 L541 132 L530 131 L427 212 L346 298 L306 364 L282 399 L273 422 L271 425 L270 425 L267 418 L203 237 L169 170 L126 121 L105 100 L98 100 L59 126 L27 176 L20 254 L33 300 L43 316 L56 322 L178 274 L228 228 L319 155 L428 79 L565 5 L596 0 L612 12 L625 97 L591 208 L582 260 L588 293 L610 311 L663 308 L725 276 L733 270 " fill="none" stroke="black" /></svg>