<?xml version="1.0" encoding="utf-8" ?>
<svg baseProfile="tiny" height="518" version="1.2" viewBox="-3 -3 1332 518" width="1332" xmlns="http://www.w3.org/2000/svg" xmlns:ev="http://www.w3.org/2001/xml-events" xmlns:xlink="http://www.w3.org/1999/xlink"><defs /><path d="M58 255 L87 218 L199 108 L231 111 L196 195 L139 269 L113 317 L123 326 L285 202 L404 80 L409 74 L323 166 L211 287 L206 309 L340 252 L472 172 L514 150 L476 193 L292 430 L247 503 L288 480 L578 251 L715 155 L704 162 L462 393 L386 478 L455 425 L655 273 L672 269 L552 448 L494 518 L598 468 L867 320 L914 294 L825 356 L747 453 L802 425 L1026 247 L1108 201 L1062 270 L964 400 L958 414 L1175 325 L1332 242 L1326 222 L1181 292 L1054 382 L1049 382 L1062 345 L1107 42 L989 0 L677 96 L566 166 L572 164 L721 85 L791 71 L835 186 L840 209 L838 208 L521 59 L408 64 L405 109 L497 164 L604 178 L609 178 L475 147 L281 102 L276 118 L375 233 L436 249 L244 206 L26 163 L13 162 L96 240 L192 298 L227 304 L197 285 L8 219 L0 222 L40 270 L162 320 L306 302 L317 258 L306 242 L306 241 L317 241 L644 324 L884 386 L909 379 L888 340 L792 262 L684 196 L682 196 L733 260 L841 322 L844 324 L584 104 L478 17 L473 61 L514 123 L563 150 L567 150 L533 120 L465 76 L452 64 L421 16 " fill="none" stroke="black" /></svg>