<?xml version="1.0" encoding="utf-8" ?>
<svg baseProfile="tiny" height="231" version="1.2" viewBox="-3 -3 689 231" width="689" xmlns="http://www.w3.org/2000/svg" xmlns:ev="http://www.w3.org/2001/xml-events" xmlns:xlink="http://www.w3.org/1999/xlink"><defs /><path d="M449 38 L458 36 L467 34 L475 33 L481 31 L486 30 L492 29 L498 28 L506 28 L512 27 L524 25 L537 24 L549 22 L561 22 L570 20 L579 19 L585 18 L592 16 L603 14 L614 12 L625 10 L636 7 L646 6 L652 4 L667 2 L674 1 L680 0 L684 0 L687 0 L688 0 L689 0 L688 0 L667 8 L594 31 L555 42 L539 44 L491 53 L450 59 L419 62 L398 64 L361 67 L347 67 L323 69 L305 73 L283 77 L260 81 L248 84 L231 88 L211 93 L201 96 L192 99 L183 103 L171 107 L159 110 L146 115 L135 118 L123 122 L113 125 L107 127 L103 129 L95 132 L86 135 L80 137 L70 140 L59 144 L49 149 L35 156 L13 165 L5 170 L0 174 L0 175 L4 178 L44 176 L93 164 L130 156 L161 151 L193 147 L212 146 L230 144 L239 142 L259 138 L289 131 L304 127 L338 114 L367 103 L388 98 L404 95 L429 92 L477 84 L487 84 L498 81 L537 75 L559 71 L573 68 L586 65 L594 62 L607 59 L628 54 L643 51 L649 50 L658 48 L670 46 L676 46 L681 45 L683 45 L685 45 L686 45 L661 47 L611 54 L565 60 L533 68 L455 89 L399 106 L340 119 L298 129 L276 137 L262 142 L242 150 L229 155 L219 158 L206 163 L196 167 L185 172 L175 177 L160 182 L134 191 L116 197 L94 204 L75 212 L62 218 L56 222 L54 223 L54 224 L64 229 L131 231 L210 201 L255 181 L280 174 L309 167 L342 160 L359 158 L395 153 L422 148 L438 146 L450 143 L500 131 L542 125 L567 121 L583 118 L585 118 " fill="none" stroke="black" /></svg>