<?xml version="1.0" encoding="utf-8" ?>
<svg baseProfile="tiny" height="256" version="1.2" viewBox="-3 -3 711 256" width="711" xmlns="http://www.w3.org/2000/svg" xmlns:ev="http://www.w3.org/2001/xml-events" xmlns:xlink="http://www.w3.org/1999/xlink"><defs /><path d="M0 245 L16 216 L73 132 L94 123 L106 183 L94 224 L92 230 L93 231 L124 204 L146 179 L147 184 L147 199 L147 205 L182 179 L280 105 L278 115 L253 161 L252 163 L299 127 L355 94 L349 109 L323 153 L322 160 L340 157 L393 118 L395 117 L369 145 L366 149 L373 149 L479 119 L480 119 L468 135 L463 149 L474 152 L553 125 L570 117 L567 121 L572 122 L639 106 L643 108 L633 120 L629 125 L646 122 L687 117 L686 120 L652 151 L650 153 L684 152 L700 151 L701 152 L680 171 L677 174 L693 176 L711 175 L711 176 L691 198 L689 200 L692 201 L694 201 L592 235 L571 241 L620 168 L630 147 L559 152 L512 164 L509 165 L513 159 L510 159 L390 230 L389 230 L392 228 L405 213 L343 233 L279 256 L283 253 L287 249 L270 251 L259 253 L258 249 L261 241 L261 240 L245 243 L241 245 L242 242 L245 236 L245 230 L227 149 L196 0 " fill="none" stroke="black" /></svg>