<?xml version="1.0" encoding="utf-8" ?>
<svg baseProfile="tiny" height="318" version="1.2" viewBox="-3 -3 910 318" width="910" xmlns="http://www.w3.org/2000/svg" xmlns:ev="http://www.w3.org/2001/xml-events" xmlns:xlink="http://www.w3.org/1999/xlink"><defs /><path d="M116 172 L160 148 L233 114 L290 94 L357 81 L426 75 L443 71 L488 61 L563 47 L571 47 L572 47 L526 66 L330 157 L128 261 L11 312 L0 317 L47 293 L277 177 L426 113 L448 110 L409 126 L266 204 L187 249 L185 251 L293 190 L559 66 L739 13 L770 4 L770 5 L746 14 L587 54 L431 122 L323 185 L313 195 L341 183 L597 63 L714 30 L792 3 L802 0 L798 3 L647 67 L509 157 L394 238 L367 256 L368 256 L574 149 L716 88 L800 55 L813 55 L812 57 L677 159 L532 256 L456 310 L453 313 L548 282 L755 183 L877 129 L894 123 L893 124 L799 185 L694 246 L662 276 L660 278 L662 278 L803 206 L886 165 L907 154 L910 153 L878 175 L706 281 L677 303 L675 306 L675 307 L680 308 L760 275 L852 221 L860 218 L860 219 L838 243 L780 306 L773 316 L772 318 " fill="none" stroke="black" /></svg>