<?xml version="1.0" encoding="utf-8" ?>
<svg baseProfile="tiny" height="415" version="1.2" viewBox="-3 -3 1220 415" width="1220" xmlns="http://www.w3.org/2000/svg" xmlns:ev="http://www.w3.org/2001/xml-events" xmlns:xlink="http://www.w3.org/1999/xlink"><defs /><path d="M61 319 L62 318 L64 312 L64 311 L64 309 L45 330 L0 388 L129 265 L315 87 L310 94 L167 244 L142 291 L176 273 L252 196 L249 199 L202 248 L208 248 L247 228 L235 237 L137 355 L202 327 L445 122 L452 118 L336 239 L289 336 L323 326 L542 129 L559 109 L446 257 L394 339 L408 332 L618 113 L661 53 L552 127 L423 259 L376 296 L497 215 L737 11 L752 0 L569 180 L443 359 L427 415 L584 289 L827 87 L849 73 L757 231 L669 366 L672 378 L929 226 L1073 167 L1070 172 L989 282 L982 300 L1144 219 L1220 160 L1215 160 L1048 307 L1012 346 L1016 344 L1179 163 L1185 156 L965 276 L821 356 L814 362 L938 173 L965 129 L847 166 L682 272 L614 316 L621 306 L715 185 L708 184 L529 280 L504 297 L508 288 L451 289 L388 314 L397 300 L476 191 L453 195 L218 318 L201 331 L316 220 L329 199 L280 196 L211 249 L205 269 L208 267 L211 259 L211 257 " fill="none" stroke="black" /></svg>