<?xml version="1.0" encoding="utf-8" ?>
<svg baseProfile="tiny" height="334" version="1.2" viewBox="-3 -3 1015 334" width="1015" xmlns="http://www.w3.org/2000/svg" xmlns:ev="http://www.w3.org/2001/xml-events" xmlns:xlink="http://www.w3.org/1999/xlink"><defs /><path d="M53 200 L56 212 L81 217 L114 209 L118 209 L122 211 L127 211 L133 215 L135 225 L138 227 L176 191 L178 189 L168 195 L166 198 L280 132 L287 129 L277 143 L273 159 L345 144 L364 139 L340 207 L339 252 L412 236 L446 216 L444 218 L433 227 L445 226 L551 160 L548 166 L560 174 L802 98 L829 94 L791 149 L783 172 L888 163 L976 134 L967 136 L863 192 L865 192 L1009 136 L1015 133 L824 212 L719 277 L718 280 L719 278 L717 277 L573 298 L565 300 L565 299 L564 297 L403 315 L349 334 L357 317 L429 196 L407 192 L298 234 L292 237 L313 216 L444 30 L426 32 L264 97 L248 109 L250 108 L343 0 L337 4 L179 159 L161 176 L164 176 L200 142 L203 132 L131 136 L61 160 L56 161 L55 161 L54 161 L44 160 L7 165 L0 165 L12 105 L49 15 L46 15 L43 18 L42 25 L53 31 L96 16 L101 16 L73 101 L79 114 L152 89 L234 47 L236 49 L215 81 L212 87 L213 89 L219 84 " fill="none" stroke="black" /></svg>