<?xml version="1.0" encoding="utf-8" ?>
<svg baseProfile="tiny" height="470" version="1.2" viewBox="-3 -3 1087 470" width="1087" xmlns="http://www.w3.org/2000/svg" xmlns:ev="http://www.w3.org/2001/xml-events" xmlns:xlink="http://www.w3.org/1999/xlink"><defs /><path d="M154 414 L156 409 L155 409 L141 446 L161 459 L224 428 L243 442 L243 460 L244 460 L275 431 L264 441 L236 469 L413 328 L513 240 L438 302 L384 380 L507 323 L540 291 L467 348 L452 406 L661 298 L723 251 L683 272 L680 276 L899 147 L855 164 L714 264 L769 254 L1080 30 L915 138 L950 134 L1087 12 L1034 0 L924 16 L892 60 L854 107 L764 172 L751 182 L762 182 L729 200 L599 318 L578 340 L656 279 L752 172 L647 200 L331 417 L252 470 L318 378 L348 318 L259 374 L165 464 L246 404 L324 327 L181 413 L139 447 L273 307 L316 247 L58 380 L0 413 L132 291 L160 261 L87 305 L83 311 L260 252 L280 251 L248 338 L267 349 L413 297 L413 301 L402 320 L563 285 L636 259 L506 357 L450 419 L530 410 L620 376 L576 407 L548 449 L641 446 L730 400 L726 408 L714 425 L875 349 L960 272 L751 353 L646 409 L671 369 L732 198 L617 202 L418 296 L410 300 L412 297 L389 306 L272 398 L288 391 L460 256 L363 314 L269 410 L276 410 L304 386 L299 384 L221 434 L219 438 L388 341 L406 335 L326 393 L308 413 L312 415 L314 416 " fill="none" stroke="black" /></svg>