<?xml version="1.0" encoding="utf-8" ?>
<svg baseProfile="tiny" height="431" version="1.2" viewBox="-3 -3 706 431" width="706" xmlns="http://www.w3.org/2000/svg" xmlns:ev="http://www.w3.org/2001/xml-events" xmlns:xlink="http://www.w3.org/1999/xlink"><defs /><path d="M61 264 L173 169 L358 43 L485 7 L526 8 L518 12 L400 90 L227 198 L95 280 L41 321 L40 321 L45 320 L203 198 L326 105 L356 91 L358 91 L321 128 L130 294 L20 388 L11 405 L18 405 L244 247 L481 78 L574 40 L560 44 L277 188 L43 337 L0 360 L50 338 L282 195 L490 118 L548 115 L545 118 L374 213 L131 361 L7 431 L6 431 L134 323 L408 141 L573 61 L577 59 L450 127 L212 260 L85 365 L70 380 L174 314 L451 94 L598 0 L594 1 L465 86 L239 220 L90 350 L85 359 L207 284 L363 169 L506 80 L509 79 L351 171 L158 302 L120 336 L123 336 L303 204 L476 106 L514 94 L452 139 L305 229 L221 307 L217 317 L303 292 L524 158 L610 107 L611 107 L496 161 L312 297 L230 386 L350 318 L545 205 L632 156 L559 191 L341 322 L243 401 L237 408 L280 384 L507 201 L695 86 L706 77 L699 81 L487 186 L323 309 L280 348 L282 347 L436 236 L604 91 L656 44 L655 44 L546 103 L385 216 L274 320 L269 327 L270 327 L278 321 L280 319 L281 318 L281 317 " fill="none" stroke="black" /></svg>