<?xml version="1.0" encoding="utf-8" ?>
<svg baseProfile="tiny" height="37" version="1.2" viewBox="-3 -3 302 37" width="302" xmlns="http://www.w3.org/2000/svg" xmlns:ev="http://www.w3.org/2001/xml-events" xmlns:xlink="http://www.w3.org/1999/xlink"><defs /><path d="M0 22 L2 21 L6 20 L8 20 L10 20 L11 20 L13 21 L14 23 L16 24 L17 28 L20 32 L20 34 L22 36 L23 36 L24 37 L25 37 L28 37 L32 36 L35 34 L39 31 L41 29 L43 27 L45 24 L47 21 L48 19 L50 17 L53 17 L59 17 L62 17 L65 17 L69 19 L71 21 L72 21 L76 23 L77 25 L78 25 L79 26 L80 27 L81 28 L83 29 L84 29 L85 29 L87 27 L89 25 L91 22 L94 20 L95 19 L97 17 L98 17 L101 15 L104 15 L105 14 L108 14 L109 14 L111 14 L112 14 L113 15 L114 17 L116 18 L116 19 L117 20 L118 21 L119 22 L120 22 L121 22 L130 22 L138 22 L144 22 L147 22 L149 22 L153 19 L158 16 L162 13 L164 12 L167 11 L170 11 L171 11 L172 11 L174 11 L175 11 L176 13 L178 14 L179 15 L180 17 L181 18 L183 19 L184 19 L185 19 L186 19 L187 19 L190 19 L192 19 L194 19 L197 19 L198 18 L200 18 L203 17 L206 16 L207 16 L210 16 L211 16 L212 16 L213 16 L214 16 L215 16 L217 16 L218 16 L220 15 L229 8 L237 3 L243 1 L246 0 L249 0 L251 0 L253 1 L254 2 L256 4 L257 6 L259 9 L261 12 L264 16 L265 18 L267 20 L269 20 L270 21 L271 21 L272 21 " fill="none" stroke="black" /><path d="M0 22 L2 21 L6 20 L8 20 L10 20 L11 20 L13 21 L14 23 L16 24 L17 28 L20 32 L20 34 L22 36 L23 36 L24 37 L25 37 L28 37 L32 36 L35 34 L39 31 L41 29 L43 27 L45 24 L47 21 L48 19 L50 17 L53 17 L59 17 L62 17 L65 17 L69 19 L71 21 L72 21 L76 23 L77 25 L78 25 L79 26 L80 27 L81 28 L83 29 L84 29 L85 29 L87 27 L89 25 L91 22 L94 20 L95 19 L97 17 L98 17 L101 15 L104 15 L105 14 L108 14 L109 14 L111 14 L112 14 L113 15 L114 17 L116 18 L116 19 L117 20 L118 21 L119 22 L120 22 L121 22 L130 22 L138 22 L144 22 L147 22 L149 22 L153 19 L158 16 L162 13 L164 12 L167 11 L170 11 L171 11 L172 11 L174 11 L175 11 L176 13 L178 14 L179 15 L180 17 L181 18 L183 19 L184 19 L185 19 L186 19 L187 19 L190 19 L192 19 L194 19 L197 19 L198 18 L200 18 L203 17 L206 16 L207 16 L210 16 L211 16 L212 16 L213 16 L214 16 L215 16 L217 16 L218 16 L220 15 L229 8 L237 3 L243 1 L246 0 L249 0 L251 0 L253 1 L254 2 L256 4 L257 6 L259 9 L261 12 L264 16 L265 18 L267 20 L269 20 L270 21 L271 21 L272 21 M274 21 L275 19 L276 18 L277 18 L277 17 L278 15 L279 14 L280 13 L280 12 L280 11 L281 9 L282 8 L282 7 L284 6 L285 6 L286 5 L290 4 L292 4 L293 4 L295 4 L298 6 L301 8 L302 9 " fill="none" stroke="black" /></svg>