<?xml version="1.0" encoding="utf-8" ?>
<svg baseProfile="tiny" height="121" version="1.2" viewBox="-3 -3 266 121" width="266" xmlns="http://www.w3.org/2000/svg" xmlns:ev="http://www.w3.org/2001/xml-events" xmlns:xlink="http://www.w3.org/1999/xlink"><defs /><path d="M0 94 L2 94 L3 94 L4 95 L6 97 L7 100 L9 102 L10 104 L11 107 L13 108 L13 110 L15 111 L16 111 L18 110 L20 109 L23 106 L25 103 L29 98 L30 95 L34 93 L34 92 L36 90 L37 90 L39 90 L41 90 L42 90 L45 91 L46 93 L48 95 L50 99 L52 101 L53 103 L55 105 L56 108 L57 109 L58 110 L59 110 L61 107 L64 101 L66 97 L68 95 L69 93 L71 91 L72 90 L73 89 L75 89 L77 89 L79 90 L80 91 L82 94 L84 97 L85 99 L86 101 L87 102 L88 105 L88 106 L89 106 L90 107 L91 108 L92 108 L93 108 L96 107 L97 106 L97 105 L99 102 L100 100 L102 96 L103 94 L104 93 L104 92 L106 91 L108 91 L115 94 L119 97 L123 100 L126 104 L128 107 L131 111 L133 115 L135 117 L136 118 L139 119 L142 119 L144 118 L147 114 L152 107 L155 100 L156 94 L157 91 L158 87 L158 84 L159 79 L159 77 L159 76 L159 75 L161 78 L163 83 L167 90 L169 96 L172 104 L175 109 L179 114 L183 118 L186 120 L188 121 L190 121 L196 113 L202 94 L210 63 L213 45 L213 37 L213 31 L215 23 L216 12 L216 2 L216 0 L218 3 L221 12 L222 18 L225 26 L226 35 L227 39 L229 44 L230 50 L231 53 L231 56 L232 59 L232 63 L232 65 L233 67 L233 72 L233 75 L233 78 L233 80 L234 84 L236 86 L237 88 L239 88 L242 89 L246 89 L250 89 L253 89 L255 89 L257 89 L259 89 L261 88 L262 88 L264 87 L265 85 L266 84 " fill="none" stroke="black" /></svg>