<?xml version="1.0" encoding="utf-8" ?>
<svg baseProfile="tiny" height="93" version="1.2" viewBox="-3 -3 300 93" width="300" xmlns="http://www.w3.org/2000/svg" xmlns:ev="http://www.w3.org/2001/xml-events" xmlns:xlink="http://www.w3.org/1999/xlink"><defs /><path d="M0 64 L2 65 L3 65 L4 65 L5 65 L7 65 L9 64 L11 63 L12 62 L13 60 L14 60 L15 59 L17 58 L19 57 L21 57 L24 57 L27 57 L35 58 L37 60 L39 61 L41 62 L43 62 L45 62 L46 62 L49 61 L50 59 L53 57 L55 55 L57 54 L58 54 L59 53 L61 53 L62 53 L63 53 L65 53 L66 53 L67 53 L69 53 L70 53 L72 53 L75 55 L78 56 L81 57 L84 57 L86 57 L89 57 L93 56 L96 55 L99 55 L101 54 L103 54 L104 53 L105 53 L107 52 L108 51 L110 50 L112 50 L113 50 L114 49 L115 49 L116 49 L117 49 L119 50 L120 50 L120 51 L123 52 L128 54 L132 56 L136 57 L141 57 L142 57 L147 53 L150 50 L152 45 L158 37 L160 30 L165 22 L169 16 L174 9 L179 1 L181 0 L183 0 L184 7 L184 16 L184 25 L184 32 L185 42 L185 46 L187 49 L187 50 L188 51 L189 53 L190 53 L192 53 L193 53 L197 53 L199 53 L201 52 " fill="none" stroke="black" /><path d="M0 64 L2 65 L3 65 L4 65 L5 65 L7 65 L9 64 L11 63 L12 62 L13 60 L14 60 L15 59 L17 58 L19 57 L21 57 L24 57 L27 57 L35 58 L37 60 L39 61 L41 62 L43 62 L45 62 L46 62 L49 61 L50 59 L53 57 L55 55 L57 54 L58 54 L59 53 L61 53 L62 53 L63 53 L65 53 L66 53 L67 53 L69 53 L70 53 L72 53 L75 55 L78 56 L81 57 L84 57 L86 57 L89 57 L93 56 L96 55 L99 55 L101 54 L103 54 L104 53 L105 53 L107 52 L108 51 L110 50 L112 50 L113 50 L114 49 L115 49 L116 49 L117 49 L119 50 L120 50 L120 51 L123 52 L128 54 L132 56 L136 57 L141 57 L142 57 L147 53 L150 50 L152 45 L158 37 L160 30 L165 22 L169 16 L174 9 L179 1 L181 0 L183 0 L184 7 L184 16 L184 25 L184 32 L185 42 L185 46 L187 49 L187 50 L188 51 L189 53 L190 53 L192 53 L193 53 L197 53 L199 53 L201 52 M210 47 L211 47 L212 46 L214 46 L214 45 L221 41 L226 37 L235 34 L240 33 L244 33 L247 34 L250 37 L254 43 L257 47 L259 54 L261 60 L261 66 L262 73 L263 77 L264 80 L265 82 L265 85 L266 87 L267 88 L268 90 L269 91 L271 93 L274 93 L278 93 " fill="none" stroke="black" /><path d="M0 64 L2 65 L3 65 L4 65 L5 65 L7 65 L9 64 L11 63 L12 62 L13 60 L14 60 L15 59 L17 58 L19 57 L21 57 L24 57 L27 57 L35 58 L37 60 L39 61 L41 62 L43 62 L45 62 L46 62 L49 61 L50 59 L53 57 L55 55 L57 54 L58 54 L59 53 L61 53 L62 53 L63 53 L65 53 L66 53 L67 53 L69 53 L70 53 L72 53 L75 55 L78 56 L81 57 L84 57 L86 57 L89 57 L93 56 L96 55 L99 55 L101 54 L103 54 L104 53 L105 53 L107 52 L108 51 L110 50 L112 50 L113 50 L114 49 L115 49 L116 49 L117 49 L119 50 L120 50 L120 51 L123 52 L128 54 L132 56 L136 57 L141 57 L142 57 L147 53 L150 50 L152 45 L158 37 L160 30 L165 22 L169 16 L174 9 L179 1 L181 0 L183 0 L184 7 L184 16 L184 25 L184 32 L185 42 L185 46 L187 49 L187 50 L188 51 L189 53 L190 53 L192 53 L193 53 L197 53 L199 53 L201 52 M210 47 L211 47 L212 46 L214 46 L214 45 L221 41 L226 37 L235 34 L240 33 L244 33 L247 34 L250 37 L254 43 L257 47 L259 54 L261 60 L261 66 L262 73 L263 77 L264 80 L265 82 L265 85 L266 87 L267 88 L268 90 L269 91 L271 93 L274 93 L278 93 M300 32 L299 38 L298 42 L297 45 L296 49 L296 52 L295 55 L293 58 L292 61 L291 64 L290 65 L289 66 L289 67 L288 68 L286 69 L286 70 L285 71 L284 72 L282 74 L282 77 L281 78 L281 79 L281 80 " fill="none" stroke="black" /></svg>