<?xml version="1.0" encoding="utf-8" ?>
<svg baseProfile="tiny" height="109" version="1.2" viewBox="-3 -3 145 109" width="145" xmlns="http://www.w3.org/2000/svg" xmlns:ev="http://www.w3.org/2001/xml-events" xmlns:xlink="http://www.w3.org/1999/xlink"><defs /><path d="M3 93 L5 109 " fill="none" stroke="black" /><path d="M3 93 L5 109 M11 25 L11 32 L13 40 L13 43 L13 45 L13 48 L13 51 L13 54 L13 56 L14 58 L14 61 L14 62 L14 65 L15 68 L15 71 L15 75 L16 77 L16 78 L16 79 L17 81 L17 83 L18 88 L18 89 L18 91 L18 92 L18 90 L14 80 L12 70 L9 58 L5 46 L5 37 L4 27 L1 13 L0 4 L0 2 L0 1 L0 0 L0 1 L0 3 L0 5 L0 7 L1 8 L1 11 L2 14 L3 19 L3 26 L3 32 L4 41 L5 46 L6 54 L8 62 L8 65 " fill="none" stroke="black" /><path d="M3 93 L5 109 M11 25 L11 32 L13 40 L13 43 L13 45 L13 48 L13 51 L13 54 L13 56 L14 58 L14 61 L14 62 L14 65 L15 68 L15 71 L15 75 L16 77 L16 78 L16 79 L17 81 L17 83 L18 88 L18 89 L18 91 L18 92 L18 90 L14 80 L12 70 L9 58 L5 46 L5 37 L4 27 L1 13 L0 4 L0 2 L0 1 L0 0 L0 1 L0 3 L0 5 L0 7 L1 8 L1 11 L2 14 L3 19 L3 26 L3 32 L4 41 L5 46 L6 54 L8 62 L8 65 M17 68 L20 69 L24 70 L29 70 L31 70 L34 70 L37 70 L39 70 L41 70 L44 70 L47 70 L48 70 L49 70 L50 70 L51 70 L52 70 L53 70 L54 70 L55 70 L56 70 L57 70 L59 70 L61 70 L64 70 L65 70 L68 70 L70 70 L72 70 L73 69 L75 68 L78 68 L79 68 L80 67 L81 67 L82 67 L83 67 L84 67 L85 67 L84 64 " fill="none" stroke="black" /><path d="M3 93 L5 109 M11 25 L11 32 L13 40 L13 43 L13 45 L13 48 L13 51 L13 54 L13 56 L14 58 L14 61 L14 62 L14 65 L15 68 L15 71 L15 75 L16 77 L16 78 L16 79 L17 81 L17 83 L18 88 L18 89 L18 91 L18 92 L18 90 L14 80 L12 70 L9 58 L5 46 L5 37 L4 27 L1 13 L0 4 L0 2 L0 1 L0 0 L0 1 L0 3 L0 5 L0 7 L1 8 L1 11 L2 14 L3 19 L3 26 L3 32 L4 41 L5 46 L6 54 L8 62 L8 65 M17 68 L20 69 L24 70 L29 70 L31 70 L34 70 L37 70 L39 70 L41 70 L44 70 L47 70 L48 70 L49 70 L50 70 L51 70 L52 70 L53 70 L54 70 L55 70 L56 70 L57 70 L59 70 L61 70 L64 70 L65 70 L68 70 L70 70 L72 70 L73 69 L75 68 L78 68 L79 68 L80 67 L81 67 L82 67 L83 67 L84 67 L85 67 L84 64 M75 27 L75 25 L75 24 L75 25 L77 36 L83 56 L86 67 L88 74 L88 78 " fill="none" stroke="black" /><path d="M3 93 L5 109 M11 25 L11 32 L13 40 L13 43 L13 45 L13 48 L13 51 L13 54 L13 56 L14 58 L14 61 L14 62 L14 65 L15 68 L15 71 L15 75 L16 77 L16 78 L16 79 L17 81 L17 83 L18 88 L18 89 L18 91 L18 92 L18 90 L14 80 L12 70 L9 58 L5 46 L5 37 L4 27 L1 13 L0 4 L0 2 L0 1 L0 0 L0 1 L0 3 L0 5 L0 7 L1 8 L1 11 L2 14 L3 19 L3 26 L3 32 L4 41 L5 46 L6 54 L8 62 L8 65 M17 68 L20 69 L24 70 L29 70 L31 70 L34 70 L37 70 L39 70 L41 70 L44 70 L47 70 L48 70 L49 70 L50 70 L51 70 L52 70 L53 70 L54 70 L55 70 L56 70 L57 70 L59 70 L61 70 L64 70 L65 70 L68 70 L70 70 L72 70 L73 69 L75 68 L78 68 L79 68 L80 67 L81 67 L82 67 L83 67 L84 67 L85 67 L84 64 M75 27 L75 25 L75 24 L75 25 L77 36 L83 56 L86 67 L88 74 L88 78 M89 82 L89 83 L89 84 L90 84 L90 78 L92 70 L93 59 L93 54 L93 50 L93 48 L93 45 " fill="none" stroke="black" /><circle cx="91" cy="38" fill="black" r="1" /><path d="M3 93 L5 109 M11 25 L11 32 L13 40 L13 43 L13 45 L13 48 L13 51 L13 54 L13 56 L14 58 L14 61 L14 62 L14 65 L15 68 L15 71 L15 75 L16 77 L16 78 L16 79 L17 81 L17 83 L18 88 L18 89 L18 91 L18 92 L18 90 L14 80 L12 70 L9 58 L5 46 L5 37 L4 27 L1 13 L0 4 L0 2 L0 1 L0 0 L0 1 L0 3 L0 5 L0 7 L1 8 L1 11 L2 14 L3 19 L3 26 L3 32 L4 41 L5 46 L6 54 L8 62 L8 65 M17 68 L20 69 L24 70 L29 70 L31 70 L34 70 L37 70 L39 70 L41 70 L44 70 L47 70 L48 70 L49 70 L50 70 L51 70 L52 70 L53 70 L54 70 L55 70 L56 70 L57 70 L59 70 L61 70 L64 70 L65 70 L68 70 L70 70 L72 70 L73 69 L75 68 L78 68 L79 68 L80 67 L81 67 L82 67 L83 67 L84 67 L85 67 L84 64 M75 27 L75 25 L75 24 L75 25 L77 36 L83 56 L86 67 L88 74 L88 78 M89 82 L89 83 L89 84 L90 84 L90 78 L92 70 L93 59 L93 54 L93 50 L93 48 L93 45 M91 35 L92 46 " fill="none" stroke="black" /><circle cx="97" cy="64" fill="black" r="1" /><path d="M3 93 L5 109 M11 25 L11 32 L13 40 L13 43 L13 45 L13 48 L13 51 L13 54 L13 56 L14 58 L14 61 L14 62 L14 65 L15 68 L15 71 L15 75 L16 77 L16 78 L16 79 L17 81 L17 83 L18 88 L18 89 L18 91 L18 92 L18 90 L14 80 L12 70 L9 58 L5 46 L5 37 L4 27 L1 13 L0 4 L0 2 L0 1 L0 0 L0 1 L0 3 L0 5 L0 7 L1 8 L1 11 L2 14 L3 19 L3 26 L3 32 L4 41 L5 46 L6 54 L8 62 L8 65 M17 68 L20 69 L24 70 L29 70 L31 70 L34 70 L37 70 L39 70 L41 70 L44 70 L47 70 L48 70 L49 70 L50 70 L51 70 L52 70 L53 70 L54 70 L55 70 L56 70 L57 70 L59 70 L61 70 L64 70 L65 70 L68 70 L70 70 L72 70 L73 69 L75 68 L78 68 L79 68 L80 67 L81 67 L82 67 L83 67 L84 67 L85 67 L84 64 M75 27 L75 25 L75 24 L75 25 L77 36 L83 56 L86 67 L88 74 L88 78 M89 82 L89 83 L89 84 L90 84 L90 78 L92 70 L93 59 L93 54 L93 50 L93 48 L93 45 M91 35 L92 46 M97 64 L98 64 L109 64 L112 64 L117 64 L119 63 L121 62 L122 62 L124 62 L125 62 " fill="none" stroke="black" /><path d="M3 93 L5 109 M11 25 L11 32 L13 40 L13 43 L13 45 L13 48 L13 51 L13 54 L13 56 L14 58 L14 61 L14 62 L14 65 L15 68 L15 71 L15 75 L16 77 L16 78 L16 79 L17 81 L17 83 L18 88 L18 89 L18 91 L18 92 L18 90 L14 80 L12 70 L9 58 L5 46 L5 37 L4 27 L1 13 L0 4 L0 2 L0 1 L0 0 L0 1 L0 3 L0 5 L0 7 L1 8 L1 11 L2 14 L3 19 L3 26 L3 32 L4 41 L5 46 L6 54 L8 62 L8 65 M17 68 L20 69 L24 70 L29 70 L31 70 L34 70 L37 70 L39 70 L41 70 L44 70 L47 70 L48 70 L49 70 L50 70 L51 70 L52 70 L53 70 L54 70 L55 70 L56 70 L57 70 L59 70 L61 70 L64 70 L65 70 L68 70 L70 70 L72 70 L73 69 L75 68 L78 68 L79 68 L80 67 L81 67 L82 67 L83 67 L84 67 L85 67 L84 64 M75 27 L75 25 L75 24 L75 25 L77 36 L83 56 L86 67 L88 74 L88 78 M89 82 L89 83 L89 84 L90 84 L90 78 L92 70 L93 59 L93 54 L93 50 L93 48 L93 45 M91 35 L92 46 M97 64 L98 64 L109 64 L112 64 L117 64 L119 63 L121 62 L122 62 L124 62 L125 62 M128 62 L128 61 L128 54 L128 47 L128 46 L130 46 L133 52 L135 57 L137 61 L138 66 L139 69 L140 70 L140 71 L140 66 L139 59 L137 50 L137 46 L138 46 L142 49 L143 49 L143 50 L143 51 L145 52 " fill="none" stroke="black" /></svg>