<?xml version="1.0" encoding="utf-8" ?>
<svg baseProfile="tiny" height="15" version="1.2" viewBox="-3 -3 435 15" width="435" xmlns="http://www.w3.org/2000/svg" xmlns:ev="http://www.w3.org/2001/xml-events" xmlns:xlink="http://www.w3.org/1999/xlink"><defs /><path d="M0 1 L6 0 L10 0 L14 0 L17 0 L19 0 L23 0 L26 0 L31 0 L36 0 L39 1 L43 1 L45 1 L48 1 L54 2 L58 3 L60 4 L63 4 L66 4 L68 4 L70 4 L71 4 L72 5 L74 5 L76 5 L78 5 L81 6 L86 6 L88 6 L91 6 L93 6 L94 6 L97 6 L99 6 L101 6 L103 6 L105 6 L107 6 L109 6 L114 6 L117 5 L121 5 L125 4 L128 3 L133 3 L138 3 L142 3 L147 2 L150 1 L154 1 L159 1 L164 1 L167 1 L170 1 L173 1 L176 1 L179 1 L182 1 L185 1 L187 1 L190 1 L191 1 L193 1 L195 1 L196 1 L197 1 L198 1 L199 1 L201 1 L202 1 L203 1 L205 2 L210 4 L217 7 L224 10 L233 12 L237 12 L242 14 L244 14 L247 15 L249 15 L250 15 L252 15 L254 15 L257 15 L259 15 L261 15 L264 15 L266 15 L270 15 L274 15 L277 14 L280 14 L282 14 L285 13 L287 13 L289 12 L294 11 L295 11 L298 10 L300 10 L302 10 L308 10 L312 9 L314 9 L318 8 L323 8 L329 7 L336 6 L343 4 L346 4 L351 4 L356 4 " fill="none" stroke="black" /><path d="M0 1 L6 0 L10 0 L14 0 L17 0 L19 0 L23 0 L26 0 L31 0 L36 0 L39 1 L43 1 L45 1 L48 1 L54 2 L58 3 L60 4 L63 4 L66 4 L68 4 L70 4 L71 4 L72 5 L74 5 L76 5 L78 5 L81 6 L86 6 L88 6 L91 6 L93 6 L94 6 L97 6 L99 6 L101 6 L103 6 L105 6 L107 6 L109 6 L114 6 L117 5 L121 5 L125 4 L128 3 L133 3 L138 3 L142 3 L147 2 L150 1 L154 1 L159 1 L164 1 L167 1 L170 1 L173 1 L176 1 L179 1 L182 1 L185 1 L187 1 L190 1 L191 1 L193 1 L195 1 L196 1 L197 1 L198 1 L199 1 L201 1 L202 1 L203 1 L205 2 L210 4 L217 7 L224 10 L233 12 L237 12 L242 14 L244 14 L247 15 L249 15 L250 15 L252 15 L254 15 L257 15 L259 15 L261 15 L264 15 L266 15 L270 15 L274 15 L277 14 L280 14 L282 14 L285 13 L287 13 L289 12 L294 11 L295 11 L298 10 L300 10 L302 10 L308 10 L312 9 L314 9 L318 8 L323 8 L329 7 L336 6 L343 4 L346 4 L351 4 L356 4 M370 4 L373 4 L377 4 L378 4 L381 4 L382 4 L383 4 L384 4 " fill="none" stroke="black" /><circle cx="385" cy="4" fill="black" r="1" /><path d="M0 1 L6 0 L10 0 L14 0 L17 0 L19 0 L23 0 L26 0 L31 0 L36 0 L39 1 L43 1 L45 1 L48 1 L54 2 L58 3 L60 4 L63 4 L66 4 L68 4 L70 4 L71 4 L72 5 L74 5 L76 5 L78 5 L81 6 L86 6 L88 6 L91 6 L93 6 L94 6 L97 6 L99 6 L101 6 L103 6 L105 6 L107 6 L109 6 L114 6 L117 5 L121 5 L125 4 L128 3 L133 3 L138 3 L142 3 L147 2 L150 1 L154 1 L159 1 L164 1 L167 1 L170 1 L173 1 L176 1 L179 1 L182 1 L185 1 L187 1 L190 1 L191 1 L193 1 L195 1 L196 1 L197 1 L198 1 L199 1 L201 1 L202 1 L203 1 L205 2 L210 4 L217 7 L224 10 L233 12 L237 12 L242 14 L244 14 L247 15 L249 15 L250 15 L252 15 L254 15 L257 15 L259 15 L261 15 L264 15 L266 15 L270 15 L274 15 L277 14 L280 14 L282 14 L285 13 L287 13 L289 12 L294 11 L295 11 L298 10 L300 10 L302 10 L308 10 L312 9 L314 9 L318 8 L323 8 L329 7 L336 6 L343 4 L346 4 L351 4 L356 4 M370 4 L373 4 L377 4 L378 4 L381 4 L382 4 L383 4 L384 4 M345 15 L349 15 L350 15 L351 15 L358 14 L373 10 L386 6 L391 5 L394 5 L397 5 L398 5 L399 5 L401 5 L404 5 L406 5 L410 5 L413 5 L416 5 L419 5 L421 5 L423 6 L425 6 L429 6 L431 6 L432 6 L434 6 L435 6 " fill="none" stroke="black" /></svg>