<?xml version="1.0" encoding="utf-8" ?>
<svg baseProfile="tiny" height="161" version="1.2" viewBox="-3 -3 248 161" width="248" xmlns="http://www.w3.org/2000/svg" xmlns:ev="http://www.w3.org/2001/xml-events" xmlns:xlink="http://www.w3.org/1999/xlink"><defs /><path d="M18 90 L18 92 L15 101 L1 129 L0 131 L5 124 L32 98 L45 86 L51 82 L53 81 L48 86 L35 97 L21 111 L14 117 L13 118 L13 119 L19 116 L31 107 L40 101 L43 98 L44 98 L45 98 L43 103 L38 109 L29 122 L26 128 L25 131 L24 133 L24 132 L40 115 L62 91 L87 65 L105 46 L113 36 L114 35 L112 41 L100 58 L83 88 L71 115 L56 146 L52 157 L51 160 L51 161 L57 151 L68 133 L76 116 L82 103 L85 98 L86 95 L86 94 L86 95 L84 102 L74 116 L71 120 L71 121 L70 122 L71 120 L83 107 L98 90 L105 79 L123 59 L124 58 L125 58 L125 65 L125 78 L111 118 L106 129 L103 137 L102 137 L101 138 L101 135 L102 125 L113 100 L123 82 L131 67 L134 64 L134 63 L135 63 L135 69 L131 86 L127 100 L126 109 L124 115 L124 116 L131 101 L135 94 L137 89 L140 85 L141 84 L142 83 L142 92 L135 112 L126 137 L123 142 L123 145 L123 144 L131 128 L143 101 L152 79 L158 65 L159 62 L161 61 L162 60 L163 58 L164 57 L165 57 L166 58 L164 71 L157 93 L148 113 L146 120 L145 125 L144 127 L144 128 L152 111 L166 87 L173 74 L176 67 L176 64 L177 64 L177 66 L176 71 L171 82 L167 93 L164 100 L162 105 L162 107 L161 107 " fill="none" stroke="black" /><path d="M18 90 L18 92 L15 101 L1 129 L0 131 L5 124 L32 98 L45 86 L51 82 L53 81 L48 86 L35 97 L21 111 L14 117 L13 118 L13 119 L19 116 L31 107 L40 101 L43 98 L44 98 L45 98 L43 103 L38 109 L29 122 L26 128 L25 131 L24 133 L24 132 L40 115 L62 91 L87 65 L105 46 L113 36 L114 35 L112 41 L100 58 L83 88 L71 115 L56 146 L52 157 L51 160 L51 161 L57 151 L68 133 L76 116 L82 103 L85 98 L86 95 L86 94 L86 95 L84 102 L74 116 L71 120 L71 121 L70 122 L71 120 L83 107 L98 90 L105 79 L123 59 L124 58 L125 58 L125 65 L125 78 L111 118 L106 129 L103 137 L102 137 L101 138 L101 135 L102 125 L113 100 L123 82 L131 67 L134 64 L134 63 L135 63 L135 69 L131 86 L127 100 L126 109 L124 115 L124 116 L131 101 L135 94 L137 89 L140 85 L141 84 L142 83 L142 92 L135 112 L126 137 L123 142 L123 145 L123 144 L131 128 L143 101 L152 79 L158 65 L159 62 L161 61 L162 60 L163 58 L164 57 L165 57 L166 58 L164 71 L157 93 L148 113 L146 120 L145 125 L144 127 L144 128 L152 111 L166 87 L173 74 L176 67 L176 64 L177 64 L177 66 L176 71 L171 82 L167 93 L164 100 L162 105 L162 107 L161 107 M162 106 L165 104 L171 98 L179 90 L197 65 L213 42 L227 22 L241 6 L245 1 L247 0 L248 0 L248 1 L246 17 L232 54 L214 93 L205 113 L195 129 L192 134 L190 138 L188 140 L188 141 " fill="none" stroke="black" /></svg>