<?xml version="1.0" encoding="utf-8" ?>
<svg baseProfile="tiny" height="181" version="1.2" viewBox="-3 -3 249 181" width="249" xmlns="http://www.w3.org/2000/svg" xmlns:ev="http://www.w3.org/2001/xml-events" xmlns:xlink="http://www.w3.org/1999/xlink"><defs /><path d="M131 0 L124 17 L105 53 L99 66 L97 72 L97 74 L104 69 L135 34 L152 16 L163 4 L164 4 L164 9 L155 31 L150 41 L115 104 L106 123 L100 139 L97 149 L97 152 L99 152 L110 144 L124 127 L143 99 L155 81 L169 66 L174 61 L179 57 L181 57 L179 67 L163 99 L155 110 L154 113 L154 114 L156 110 L179 74 L196 47 L209 29 L214 23 L216 20 L216 21 L216 33 L211 59 L204 77 L194 107 L188 124 L185 134 L185 135 L187 131 L202 104 L212 88 L216 80 L217 78 " fill="none" stroke="black" /><path d="M131 0 L124 17 L105 53 L99 66 L97 72 L97 74 L104 69 L135 34 L152 16 L163 4 L164 4 L164 9 L155 31 L150 41 L115 104 L106 123 L100 139 L97 149 L97 152 L99 152 L110 144 L124 127 L143 99 L155 81 L169 66 L174 61 L179 57 L181 57 L179 67 L163 99 L155 110 L154 113 L154 114 L156 110 L179 74 L196 47 L209 29 L214 23 L216 20 L216 21 L216 33 L211 59 L204 77 L194 107 L188 124 L185 134 L185 135 L187 131 L202 104 L212 88 L216 80 L217 78 M0 113 L3 110 L38 86 L82 52 L129 21 L161 6 L173 1 L177 1 L179 1 L179 3 L176 21 L167 40 L149 66 L127 87 L98 106 L86 112 L77 114 L72 114 L69 114 L73 90 L83 68 L89 58 L109 32 L117 27 L125 23 L130 22 L137 22 L139 22 L141 23 L141 30 L141 40 L137 58 L131 71 L121 85 L114 91 L111 95 L109 96 L113 91 L130 69 L144 55 L161 41 L182 26 L192 19 L198 16 L201 14 L204 14 L205 14 L204 31 L193 58 L176 85 L164 97 L147 109 L137 112 L133 113 L131 113 L141 109 L154 101 L171 92 L182 87 L195 81 L206 76 L213 72 L221 70 L224 68 L225 68 L226 68 L228 67 L232 64 L237 60 L238 59 L239 59 L239 58 L240 58 L239 59 L223 82 L198 121 L180 152 L168 168 L164 174 L161 176 L158 179 L156 180 L156 181 L157 175 L171 155 L185 135 L201 111 L210 98 L219 84 L227 75 L233 68 L238 63 L241 58 L245 53 L247 50 L248 49 L249 49 " fill="none" stroke="black" /></svg>