<?xml version="1.0" encoding="utf-8" ?>
<svg baseProfile="tiny" height="24" version="1.2" viewBox="-3 -3 163 24" width="163" xmlns="http://www.w3.org/2000/svg" xmlns:ev="http://www.w3.org/2001/xml-events" xmlns:xlink="http://www.w3.org/1999/xlink"><defs /><path d="M0 4 L1 8 L2 9 L4 12 L5 14 L6 15 L7 16 " fill="none" stroke="black" /><path d="M0 4 L1 8 L2 9 L4 12 L5 14 L6 15 L7 16 M9 20 L10 20 " fill="none" stroke="black" /><circle cx="10" cy="10" fill="black" r="1" /><path d="M0 4 L1 8 L2 9 L4 12 L5 14 L6 15 L7 16 M9 20 L10 20 M10 9 L12 6 L12 5 L12 4 L13 3 L13 2 L14 2 L16 2 L17 3 L17 4 L18 5 L20 6 L21 8 L22 8 L23 9 L24 9 L24 11 L25 12 L25 13 L26 13 L26 14 L26 15 L27 15 L29 13 L30 10 L31 8 L32 6 L33 5 L34 5 L34 4 L35 4 L36 4 L37 4 L38 5 L39 6 L39 7 L40 8 L41 9 L42 10 L43 11 L44 12 L44 13 L45 13 L46 14 L47 14 L47 15 L48 15 L49 15 L51 13 L52 11 L53 10 L53 8 L54 6 L55 4 L56 3 L57 2 L58 1 L59 0 L60 1 L64 5 L67 9 L72 14 L74 17 L76 19 L77 20 L78 20 L79 22 L81 23 L82 24 L83 24 L83 19 L84 15 L85 12 L86 9 L86 7 L87 6 L87 5 L88 5 L89 5 L90 5 L95 7 L96 8 L97 8 L99 10 L100 10 L101 11 L103 12 L104 13 L104 14 L105 14 L105 15 L106 15 L107 14 L107 12 L108 10 L108 9 L109 9 L109 8 L110 8 L111 6 L112 5 L113 5 L115 7 L117 8 L119 9 L120 12 L122 13 L124 15 L125 16 L127 17 L128 18 L129 18 L131 12 L132 9 L132 8 L133 7 L134 7 L135 6 L136 4 L137 4 L137 3 L138 3 L141 6 L146 10 L149 13 L151 15 L152 16 L154 18 L155 19 L156 19 L156 20 L157 20 L158 17 L159 16 L160 13 L161 11 L162 10 L162 9 L163 9 L163 8 " fill="none" stroke="black" /></svg>