<?xml version="1.0" encoding="utf-8" ?>
<svg baseProfile="tiny" height="77" version="1.2" viewBox="-3 -3 267 77" width="267" xmlns="http://www.w3.org/2000/svg" xmlns:ev="http://www.w3.org/2001/xml-events" xmlns:xlink="http://www.w3.org/1999/xlink"><defs /><path d="M0 30 L1 33 L2 34 L5 37 L9 38 L12 39 L16 40 L21 40 L23 40 L25 40 L28 38 L30 33 L35 25 " fill="none" stroke="black" /><path d="M0 30 L1 33 L2 34 L5 37 L9 38 L12 39 L16 40 L21 40 L23 40 L25 40 L28 38 L30 33 L35 25 M43 15 L45 12 L47 10 L50 6 L52 4 L54 2 L55 0 L56 0 L58 0 L59 0 L60 0 L61 2 L62 5 L63 7 L64 9 L65 13 L65 16 L66 18 L66 21 L66 22 L67 22 L67 23 L68 24 L69 26 L71 28 L73 30 L75 31 L77 32 L80 32 L83 32 L88 32 L92 31 L94 30 L97 29 L100 28 L101 27 L104 26 L107 25 L110 24 L113 24 L114 24 L115 24 " fill="none" stroke="black" /><circle cx="115" cy="23" fill="black" r="1" /><path d="M0 30 L1 33 L2 34 L5 37 L9 38 L12 39 L16 40 L21 40 L23 40 L25 40 L28 38 L30 33 L35 25 M43 15 L45 12 L47 10 L50 6 L52 4 L54 2 L55 0 L56 0 L58 0 L59 0 L60 0 L61 2 L62 5 L63 7 L64 9 L65 13 L65 16 L66 18 L66 21 L66 22 L67 22 L67 23 L68 24 L69 26 L71 28 L73 30 L75 31 L77 32 L80 32 L83 32 L88 32 L92 31 L94 30 L97 29 L100 28 L101 27 L104 26 L107 25 L110 24 L113 24 L114 24 L115 24 M115 16 L115 17 L116 22 L116 28 L116 33 L116 38 L117 41 L118 44 L118 46 L118 47 L118 48 L119 48 L120 48 L121 48 L122 48 L123 47 L124 45 L126 43 L127 41 L129 36 L130 32 " fill="none" stroke="black" /><path d="M0 30 L1 33 L2 34 L5 37 L9 38 L12 39 L16 40 L21 40 L23 40 L25 40 L28 38 L30 33 L35 25 M43 15 L45 12 L47 10 L50 6 L52 4 L54 2 L55 0 L56 0 L58 0 L59 0 L60 0 L61 2 L62 5 L63 7 L64 9 L65 13 L65 16 L66 18 L66 21 L66 22 L67 22 L67 23 L68 24 L69 26 L71 28 L73 30 L75 31 L77 32 L80 32 L83 32 L88 32 L92 31 L94 30 L97 29 L100 28 L101 27 L104 26 L107 25 L110 24 L113 24 L114 24 L115 24 M115 16 L115 17 L116 22 L116 28 L116 33 L116 38 L117 41 L118 44 L118 46 L118 47 L118 48 L119 48 L120 48 L121 48 L122 48 L123 47 L124 45 L126 43 L127 41 L129 36 L130 32 M134 17 L135 17 L136 17 L138 17 L139 18 L141 19 L143 20 L145 20 L147 20 L150 20 L152 20 L154 20 L156 20 L158 20 L160 20 L161 20 L162 20 " fill="none" stroke="black" /><path d="M0 30 L1 33 L2 34 L5 37 L9 38 L12 39 L16 40 L21 40 L23 40 L25 40 L28 38 L30 33 L35 25 M43 15 L45 12 L47 10 L50 6 L52 4 L54 2 L55 0 L56 0 L58 0 L59 0 L60 0 L61 2 L62 5 L63 7 L64 9 L65 13 L65 16 L66 18 L66 21 L66 22 L67 22 L67 23 L68 24 L69 26 L71 28 L73 30 L75 31 L77 32 L80 32 L83 32 L88 32 L92 31 L94 30 L97 29 L100 28 L101 27 L104 26 L107 25 L110 24 L113 24 L114 24 L115 24 M115 16 L115 17 L116 22 L116 28 L116 33 L116 38 L117 41 L118 44 L118 46 L118 47 L118 48 L119 48 L120 48 L121 48 L122 48 L123 47 L124 45 L126 43 L127 41 L129 36 L130 32 M134 17 L135 17 L136 17 L138 17 L139 18 L141 19 L143 20 L145 20 L147 20 L150 20 L152 20 L154 20 L156 20 L158 20 L160 20 L161 20 L162 20 M162 20 L163 21 L169 32 L176 45 L183 62 L186 71 L189 77 " fill="none" stroke="black" /><path d="M0 30 L1 33 L2 34 L5 37 L9 38 L12 39 L16 40 L21 40 L23 40 L25 40 L28 38 L30 33 L35 25 M43 15 L45 12 L47 10 L50 6 L52 4 L54 2 L55 0 L56 0 L58 0 L59 0 L60 0 L61 2 L62 5 L63 7 L64 9 L65 13 L65 16 L66 18 L66 21 L66 22 L67 22 L67 23 L68 24 L69 26 L71 28 L73 30 L75 31 L77 32 L80 32 L83 32 L88 32 L92 31 L94 30 L97 29 L100 28 L101 27 L104 26 L107 25 L110 24 L113 24 L114 24 L115 24 M115 16 L115 17 L116 22 L116 28 L116 33 L116 38 L117 41 L118 44 L118 46 L118 47 L118 48 L119 48 L120 48 L121 48 L122 48 L123 47 L124 45 L126 43 L127 41 L129 36 L130 32 M134 17 L135 17 L136 17 L138 17 L139 18 L141 19 L143 20 L145 20 L147 20 L150 20 L152 20 L154 20 L156 20 L158 20 L160 20 L161 20 L162 20 M162 20 L163 21 L169 32 L176 45 L183 62 L186 71 L189 77 M200 19 L200 21 L200 26 L200 31 L200 34 L200 36 " fill="none" stroke="black" /><path d="M0 30 L1 33 L2 34 L5 37 L9 38 L12 39 L16 40 L21 40 L23 40 L25 40 L28 38 L30 33 L35 25 M43 15 L45 12 L47 10 L50 6 L52 4 L54 2 L55 0 L56 0 L58 0 L59 0 L60 0 L61 2 L62 5 L63 7 L64 9 L65 13 L65 16 L66 18 L66 21 L66 22 L67 22 L67 23 L68 24 L69 26 L71 28 L73 30 L75 31 L77 32 L80 32 L83 32 L88 32 L92 31 L94 30 L97 29 L100 28 L101 27 L104 26 L107 25 L110 24 L113 24 L114 24 L115 24 M115 16 L115 17 L116 22 L116 28 L116 33 L116 38 L117 41 L118 44 L118 46 L118 47 L118 48 L119 48 L120 48 L121 48 L122 48 L123 47 L124 45 L126 43 L127 41 L129 36 L130 32 M134 17 L135 17 L136 17 L138 17 L139 18 L141 19 L143 20 L145 20 L147 20 L150 20 L152 20 L154 20 L156 20 L158 20 L160 20 L161 20 L162 20 M162 20 L163 21 L169 32 L176 45 L183 62 L186 71 L189 77 M200 19 L200 21 L200 26 L200 31 L200 34 L200 36 M205 3 L205 5 L205 7 L205 8 L205 9 L205 11 L205 12 " fill="none" stroke="black" /><circle cx="220" cy="14" fill="black" r="1" /><path d="M0 30 L1 33 L2 34 L5 37 L9 38 L12 39 L16 40 L21 40 L23 40 L25 40 L28 38 L30 33 L35 25 M43 15 L45 12 L47 10 L50 6 L52 4 L54 2 L55 0 L56 0 L58 0 L59 0 L60 0 L61 2 L62 5 L63 7 L64 9 L65 13 L65 16 L66 18 L66 21 L66 22 L67 22 L67 23 L68 24 L69 26 L71 28 L73 30 L75 31 L77 32 L80 32 L83 32 L88 32 L92 31 L94 30 L97 29 L100 28 L101 27 L104 26 L107 25 L110 24 L113 24 L114 24 L115 24 M115 16 L115 17 L116 22 L116 28 L116 33 L116 38 L117 41 L118 44 L118 46 L118 47 L118 48 L119 48 L120 48 L121 48 L122 48 L123 47 L124 45 L126 43 L127 41 L129 36 L130 32 M134 17 L135 17 L136 17 L138 17 L139 18 L141 19 L143 20 L145 20 L147 20 L150 20 L152 20 L154 20 L156 20 L158 20 L160 20 L161 20 L162 20 M162 20 L163 21 L169 32 L176 45 L183 62 L186 71 L189 77 M200 19 L200 21 L200 26 L200 31 L200 34 L200 36 M205 3 L205 5 L205 7 L205 8 L205 9 L205 11 L205 12 M216 15 L216 13 L216 12 L232 5 L235 3 L237 3 L238 3 L239 3 L240 3 L242 3 L243 3 L246 3 L248 3 L249 3 L251 3 L252 4 L254 5 L256 5 L259 7 L261 8 L263 9 L265 9 L265 10 L266 10 L266 11 L266 14 L266 20 L266 24 L266 33 L266 42 L266 44 L266 47 L266 49 L267 50 L267 52 " fill="none" stroke="black" /></svg>