<?xml version="1.0" encoding="utf-8" ?>
<svg baseProfile="tiny" height="78" version="1.2" viewBox="-3 -3 103 78" width="103" xmlns="http://www.w3.org/2000/svg" xmlns:ev="http://www.w3.org/2001/xml-events" xmlns:xlink="http://www.w3.org/1999/xlink"><defs /><path d="M7 56 L9 58 L9 59 L9 60 L10 61 L10 62 L10 64 L10 65 L10 66 L10 68 L10 69 L10 70 L10 72 L10 73 L10 74 L10 76 L11 76 L13 76 L15 76 L18 76 L21 76 L25 75 L30 73 L32 72 L35 72 L39 71 L41 71 L49 70 L53 69 L57 69 L61 68 L65 68 L67 68 L70 68 L74 68 L76 68 L79 69 L82 70 L83 71 L86 72 L87 73 L89 75 L91 75 L91 76 L93 77 L94 77 L95 78 L97 78 L98 78 L99 78 L100 78 L102 78 L103 76 L103 75 L102 71 L100 63 L99 59 L98 53 L97 50 L97 47 L96 45 L96 44 L95 41 L95 40 L94 39 L93 37 L92 35 L92 34 L91 32 L90 31 L90 30 L88 29 L88 27 L87 24 L86 21 L85 18 L85 17 L85 15 L84 13 L84 11 L84 10 L84 9 L83 7 L83 5 L83 4 L83 3 L80 4 L74 7 L70 9 L64 13 L59 15 L56 17 L54 17 L52 18 L50 19 L48 19 L45 20 L42 22 L40 22 L37 24 L35 24 L31 25 L27 27 L25 27 L23 28 L21 28 L18 28 L16 29 L14 29 L12 29 L11 29 L9 29 L6 29 L5 29 L4 29 L2 29 L1 29 L1 28 L1 27 L0 27 L0 26 L1 26 L4 26 L6 26 L7 26 L8 26 " fill="none" stroke="black" /><path d="M7 56 L9 58 L9 59 L9 60 L10 61 L10 62 L10 64 L10 65 L10 66 L10 68 L10 69 L10 70 L10 72 L10 73 L10 74 L10 76 L11 76 L13 76 L15 76 L18 76 L21 76 L25 75 L30 73 L32 72 L35 72 L39 71 L41 71 L49 70 L53 69 L57 69 L61 68 L65 68 L67 68 L70 68 L74 68 L76 68 L79 69 L82 70 L83 71 L86 72 L87 73 L89 75 L91 75 L91 76 L93 77 L94 77 L95 78 L97 78 L98 78 L99 78 L100 78 L102 78 L103 76 L103 75 L102 71 L100 63 L99 59 L98 53 L97 50 L97 47 L96 45 L96 44 L95 41 L95 40 L94 39 L93 37 L92 35 L92 34 L91 32 L90 31 L90 30 L88 29 L88 27 L87 24 L86 21 L85 18 L85 17 L85 15 L84 13 L84 11 L84 10 L84 9 L83 7 L83 5 L83 4 L83 3 L80 4 L74 7 L70 9 L64 13 L59 15 L56 17 L54 17 L52 18 L50 19 L48 19 L45 20 L42 22 L40 22 L37 24 L35 24 L31 25 L27 27 L25 27 L23 28 L21 28 L18 28 L16 29 L14 29 L12 29 L11 29 L9 29 L6 29 L5 29 L4 29 L2 29 L1 29 L1 28 L1 27 L0 27 L0 26 L1 26 L4 26 L6 26 L7 26 L8 26 M22 26 L21 24 L20 23 L20 22 L19 20 L18 19 L18 18 L17 17 L17 15 L17 14 L17 13 L16 12 L16 11 " fill="none" stroke="black" /><path d="M7 56 L9 58 L9 59 L9 60 L10 61 L10 62 L10 64 L10 65 L10 66 L10 68 L10 69 L10 70 L10 72 L10 73 L10 74 L10 76 L11 76 L13 76 L15 76 L18 76 L21 76 L25 75 L30 73 L32 72 L35 72 L39 71 L41 71 L49 70 L53 69 L57 69 L61 68 L65 68 L67 68 L70 68 L74 68 L76 68 L79 69 L82 70 L83 71 L86 72 L87 73 L89 75 L91 75 L91 76 L93 77 L94 77 L95 78 L97 78 L98 78 L99 78 L100 78 L102 78 L103 76 L103 75 L102 71 L100 63 L99 59 L98 53 L97 50 L97 47 L96 45 L96 44 L95 41 L95 40 L94 39 L93 37 L92 35 L92 34 L91 32 L90 31 L90 30 L88 29 L88 27 L87 24 L86 21 L85 18 L85 17 L85 15 L84 13 L84 11 L84 10 L84 9 L83 7 L83 5 L83 4 L83 3 L80 4 L74 7 L70 9 L64 13 L59 15 L56 17 L54 17 L52 18 L50 19 L48 19 L45 20 L42 22 L40 22 L37 24 L35 24 L31 25 L27 27 L25 27 L23 28 L21 28 L18 28 L16 29 L14 29 L12 29 L11 29 L9 29 L6 29 L5 29 L4 29 L2 29 L1 29 L1 28 L1 27 L0 27 L0 26 L1 26 L4 26 L6 26 L7 26 L8 26 M22 26 L21 24 L20 23 L20 22 L19 20 L18 19 L18 18 L17 17 L17 15 L17 14 L17 13 L16 12 L16 11 M52 9 L52 8 L52 6 L51 5 L51 4 L50 4 L50 3 L50 2 L50 1 L49 1 L49 0 " fill="none" stroke="black" /></svg>