<?xml version="1.0" encoding="utf-8" ?>
<svg baseProfile="tiny" height="8" version="1.2" viewBox="-3 -3 268 8" width="268" xmlns="http://www.w3.org/2000/svg" xmlns:ev="http://www.w3.org/2001/xml-events" xmlns:xlink="http://www.w3.org/1999/xlink"><defs /><path d="M0 8 L2 8 L5 8 L8 8 L12 8 L15 7 L18 7 L21 7 L23 7 L25 7 L26 6 L28 6 L32 5 L34 4 L36 4 L38 4 L40 4 L43 4 L44 3 L47 3 L50 3 L52 3 L54 3 L55 3 L57 3 L60 3 L61 3 L65 3 L67 3 L70 3 L72 3 L73 3 L75 3 L76 3 L77 3 L78 3 L79 3 L80 3 L82 3 L84 3 L86 3 L87 3 L88 3 L90 3 L92 3 L95 2 L97 1 L98 1 L99 0 L100 0 L101 0 L102 0 L103 0 L103 1 L104 2 L105 2 L106 3 L107 3 L109 3 L110 4 L111 4 L113 4 L114 5 L115 5 L117 5 L119 5 L121 5 L122 5 L124 5 L126 5 L127 5 L128 5 L130 5 L131 5 L132 5 L134 5 L135 5 L136 5 L137 5 L139 5 L140 5 L142 5 L143 5 L144 5 L146 5 L147 5 L148 5 L151 5 L152 5 L154 5 L159 3 L162 2 L165 2 L167 1 L170 1 L172 1 L175 1 L178 1 L181 1 L183 1 L185 1 L186 1 L189 1 L190 1 L192 1 L193 1 L194 1 L194 2 L195 2 L196 4 L197 5 L198 5 L199 6 L200 6 L202 6 L204 6 L205 6 L206 6 L207 6 L208 6 L209 6 L210 6 L211 6 L213 6 L217 4 L218 4 " fill="none" stroke="black" /><path d="M0 8 L2 8 L5 8 L8 8 L12 8 L15 7 L18 7 L21 7 L23 7 L25 7 L26 6 L28 6 L32 5 L34 4 L36 4 L38 4 L40 4 L43 4 L44 3 L47 3 L50 3 L52 3 L54 3 L55 3 L57 3 L60 3 L61 3 L65 3 L67 3 L70 3 L72 3 L73 3 L75 3 L76 3 L77 3 L78 3 L79 3 L80 3 L82 3 L84 3 L86 3 L87 3 L88 3 L90 3 L92 3 L95 2 L97 1 L98 1 L99 0 L100 0 L101 0 L102 0 L103 0 L103 1 L104 2 L105 2 L106 3 L107 3 L109 3 L110 4 L111 4 L113 4 L114 5 L115 5 L117 5 L119 5 L121 5 L122 5 L124 5 L126 5 L127 5 L128 5 L130 5 L131 5 L132 5 L134 5 L135 5 L136 5 L137 5 L139 5 L140 5 L142 5 L143 5 L144 5 L146 5 L147 5 L148 5 L151 5 L152 5 L154 5 L159 3 L162 2 L165 2 L167 1 L170 1 L172 1 L175 1 L178 1 L181 1 L183 1 L185 1 L186 1 L189 1 L190 1 L192 1 L193 1 L194 1 L194 2 L195 2 L196 4 L197 5 L198 5 L199 6 L200 6 L202 6 L204 6 L205 6 L206 6 L207 6 L208 6 L209 6 L210 6 L211 6 L213 6 L217 4 L218 4 M218 4 L220 4 L223 4 L228 6 L233 6 L238 6 L240 6 L244 6 L246 6 L250 6 L252 7 L254 7 L255 7 L257 7 L258 7 L259 7 L260 7 L261 7 L262 7 L263 7 L264 7 L266 7 L267 7 L268 7 " fill="none" stroke="black" /></svg>