<?xml version="1.0" encoding="utf-8" ?>
<svg baseProfile="tiny" height="117" version="1.2" viewBox="-3 -3 287 117" width="287" xmlns="http://www.w3.org/2000/svg" xmlns:ev="http://www.w3.org/2001/xml-events" xmlns:xlink="http://www.w3.org/1999/xlink"><defs /><path d="M0 64 L4 55 L5 53 " fill="none" stroke="black" /><path d="M0 64 L4 55 L5 53 M12 47 L14 53 L15 67 L15 83 L15 100 " fill="none" stroke="black" /><path d="M0 64 L4 55 L5 53 M12 47 L14 53 L15 67 L15 83 L15 100 M43 61 L40 65 L34 70 L30 73 L24 77 L21 78 L21 80 L21 84 L21 87 L21 88 L21 89 L21 90 L21 92 L18 100 L15 109 L12 115 L11 117 " fill="none" stroke="black" /><path d="M0 64 L4 55 L5 53 M12 47 L14 53 L15 67 L15 83 L15 100 M43 61 L40 65 L34 70 L30 73 L24 77 L21 78 L21 80 L21 84 L21 87 L21 88 L21 89 L21 90 L21 92 L18 100 L15 109 L12 115 L11 117 M43 65 L43 66 L43 69 L45 74 L46 77 L47 81 L48 83 L49 85 L50 86 L51 87 L52 88 L54 88 L57 88 L62 88 L66 86 L72 84 L76 83 L78 82 L83 81 L84 81 L87 80 L88 80 L90 80 L91 80 L94 80 L95 80 L97 80 L98 80 L99 80 L100 80 L102 80 L103 80 L104 80 L106 80 L107 80 L108 80 L110 80 L112 80 L115 80 L119 80 L123 80 L126 80 L128 80 L130 80 L131 76 L137 57 L142 42 L145 34 L147 28 L148 28 L149 28 L149 30 L151 35 L152 43 L153 48 L153 52 L153 58 L153 61 L153 65 L153 68 L154 70 L154 71 L155 70 L157 67 L160 61 L163 54 L167 44 L171 34 L172 28 L173 24 L174 19 L174 16 L175 14 L176 10 L176 8 L177 8 L177 10 L179 18 L180 29 L180 40 L180 48 L180 55 L180 63 L180 66 L180 69 L180 75 L180 78 L180 81 L180 83 L188 81 L199 77 L210 74 L217 73 L222 73 L226 73 L229 73 L231 73 L232 73 L233 73 L233 71 L231 53 L227 35 L227 9 L229 2 L230 1 L230 0 L232 0 L234 12 L237 28 L238 40 L239 52 L239 62 L241 71 L241 74 L241 75 L241 76 L245 76 L254 73 L266 69 L273 68 L281 65 L284 64 L286 64 L287 64 " fill="none" stroke="black" /></svg>