<?xml version="1.0" encoding="utf-8" ?>
<svg baseProfile="tiny" height="17" version="1.2" viewBox="-3 -3 184 17" width="184" xmlns="http://www.w3.org/2000/svg" xmlns:ev="http://www.w3.org/2001/xml-events" xmlns:xlink="http://www.w3.org/1999/xlink"><defs /><path d="M0 10 L1 10 L1 11 L2 12 L2 13 L3 13 L3 14 L4 14 L5 14 L6 14 L7 14 L8 14 L10 13 L11 12 L13 12 L14 11 L15 11 L16 11 L17 10 L18 10 L19 10 L21 10 L22 10 L23 11 L23 12 L24 13 L25 14 L25 15 L25 16 L26 17 L27 17 L28 17 L30 17 L31 17 L32 17 L34 15 L35 14 L35 13 L36 12 L36 11 L37 11 L39 10 L41 10 L43 9 L44 9 L45 9 L46 9 L47 10 L48 11 L48 12 L49 12 L50 13 L50 14 L51 14 L52 14 L54 14 L56 14 L58 14 L61 13 L64 12 L67 10 L69 10 L71 10 L72 10 L74 10 L75 10 L76 10 L77 10 L78 10 L79 11 L80 12 L81 12 L81 13 L82 13 L82 14 L83 14 L84 14 L85 14 L86 12 L88 11 L89 10 L90 10 L90 9 L92 9 L93 8 L94 8 L96 8 L98 8 L100 8 L103 8 L105 9 L106 10 L107 10 L108 11 L108 12 L109 12 L110 12 L112 12 L113 12 L114 12 L116 11 L117 11 L117 10 L118 10 L119 10 L120 10 L121 10 L122 10 L123 11 L124 12 L125 12 L125 13 L126 13 L128 13 L129 13 L130 13 L131 13 L132 13 L133 13 L133 12 L133 11 L138 10 L143 9 L146 9 L147 9 L149 9 L150 9 L151 9 L152 9 L154 9 L156 9 L158 11 L159 12 L160 13 L163 13 L164 13 L167 13 L169 11 L171 8 L173 5 L175 3 L176 2 L177 1 L178 0 L179 0 L180 0 L181 0 L182 0 L183 1 L184 1 " fill="none" stroke="black" /></svg>