<?xml version="1.0" encoding="utf-8" ?>
<svg baseProfile="tiny" height="14" version="1.2" viewBox="-3 -3 283 14" width="283" xmlns="http://www.w3.org/2000/svg" xmlns:ev="http://www.w3.org/2001/xml-events" xmlns:xlink="http://www.w3.org/1999/xlink"><defs /><path d="M0 5 L2 5 L3 5 L4 5 L6 5 L10 5 L11 5 L13 5 L14 5 L16 5 L17 5 L19 5 L20 5 L21 5 L22 5 L24 5 L26 5 L28 5 L30 5 L32 5 L35 5 L38 5 L40 5 L42 5 L44 5 L46 5 L49 4 L50 4 L53 4 L55 4 L57 4 L60 4 L63 4 L65 4 L66 4 L68 4 L69 4 L70 4 L73 4 L74 4 L76 4 L81 4 L83 4 L85 4 L86 4 L88 4 L89 4 L91 4 L93 4 L94 4 L96 4 L98 4 L100 4 L102 4 L104 4 L106 4 L109 4 L111 4 L113 4 L115 4 L116 4 L117 4 L119 4 L120 4 L121 4 L122 4 L123 4 L124 4 L126 4 L127 4 L129 4 L130 4 L132 4 L134 4 L135 4 L137 4 L138 3 L139 3 L142 3 L143 3 L146 2 L147 2 L148 2 L149 2 L150 2 L151 2 L153 2 L155 2 L158 2 L161 2 L162 1 L165 1 L167 1 L169 0 L170 0 L171 0 L172 0 L173 0 L178 2 L185 4 L188 5 L192 6 L196 7 L198 8 L201 8 L202 9 L205 10 L206 11 L209 12 L211 13 L213 13 L215 14 L216 14 L217 14 L220 14 L221 14 L223 13 L225 13 L226 13 L229 12 L230 12 L232 12 L233 11 L235 11 L236 11 L238 11 L240 10 L241 10 L243 9 L244 9 L247 9 L252 9 L258 11 L260 11 L261 12 L264 12 L265 12 L266 12 L266 13 L268 13 L270 13 L271 13 L272 13 L274 13 L275 13 L277 13 L279 13 L281 13 L282 13 L283 13 " fill="none" stroke="black" /></svg>