<?xml version="1.0" encoding="utf-8" ?>
<svg baseProfile="tiny" height="46" version="1.2" viewBox="-3 -3 264 46" width="264" xmlns="http://www.w3.org/2000/svg" xmlns:ev="http://www.w3.org/2001/xml-events" xmlns:xlink="http://www.w3.org/1999/xlink"><defs /><path d="M0 42 L3 40 L5 37 L8 31 L10 28 L12 24 L12 21 L12 18 L12 15 L13 10 L13 8 L14 6 L15 4 L16 4 L17 2 L18 1 L20 1 L23 0 L25 0 L27 1 L30 4 L32 9 L34 12 L35 14 L36 15 L37 16 L38 17 L39 18 L39 20 L41 21 L42 22 L43 23 L44 23 L46 23 L51 20 L52 20 L56 20 L61 20 L68 20 L72 20 L74 20 L76 20 L78 20 L80 18 L82 18 L85 17 L88 16 L91 16 L96 14 L100 13 L101 13 L102 14 L102 16 L103 19 L103 20 L104 22 L104 23 L104 24 L105 25 L105 26 L106 26 L108 26 L109 26 L114 26 L115 25 L116 23 L119 17 L121 10 L123 6 L124 5 L124 4 L125 4 L126 4 L129 4 L130 4 L131 4 L132 5 L133 6 L133 7 L135 10 L136 11 L137 13 L138 14 L139 15 L140 15 L141 16 L143 16 L145 16 L148 15 L153 13 L155 12 L158 11 L160 11 L162 11 L164 10 L165 10 L166 10 L167 10 L168 13 L171 18 L174 26 L178 33 L181 38 L182 41 L182 43 L183 43 L184 44 L185 44 L185 45 L186 45 L187 46 L188 46 L189 46 L191 46 L194 46 L198 43 L205 34 L210 23 L215 8 L217 4 L218 1 L220 1 L221 1 L222 1 L224 1 L225 1 L226 1 L228 2 L230 3 L231 4 L232 5 L233 5 L234 6 L236 7 L238 7 L239 7 L241 7 L242 7 L245 7 L249 7 L254 6 L257 5 L258 5 L259 5 L260 5 L261 5 L262 5 L263 5 L264 5 " fill="none" stroke="black" /></svg>