<?xml version="1.0" encoding="utf-8" ?>
<svg baseProfile="tiny" height="49" version="1.2" viewBox="-3 -3 237 49" width="237" xmlns="http://www.w3.org/2000/svg" xmlns:ev="http://www.w3.org/2001/xml-events" xmlns:xlink="http://www.w3.org/1999/xlink"><defs /><path d="M0 21 L2 19 L4 18 L6 17 L7 17 L9 17 L10 17 L12 17 L13 18 L14 20 L15 23 L16 26 L17 30 L17 32 L17 34 L18 36 L19 36 L20 36 L22 36 L24 34 L26 32 L29 28 L34 22 L36 17 L39 14 L40 13 L43 11 L46 10 L47 10 L48 10 L49 10 L50 11 L52 14 L53 19 L54 23 L55 27 L55 30 L57 33 L57 35 L57 37 L57 39 L58 39 L59 40 L60 40 L64 39 L67 37 L69 34 L70 31 L71 28 L72 23 L73 21 L75 18 L77 16 L78 14 L80 13 L82 12 L83 11 L84 11 L85 11 L87 12 L89 16 L90 20 L91 24 L93 32 L93 35 L93 36 L94 39 L95 41 L97 42 L98 43 L101 43 L102 43 L104 42 L107 37 L109 31 L111 27 L113 22 L115 19 L117 14 L118 10 L119 8 L120 7 L120 6 L121 6 L123 6 L124 6 L127 9 L129 14 L132 23 L134 30 L136 35 L136 39 L138 43 L140 48 L140 49 L143 48 L148 42 L151 38 L155 29 L158 22 L162 15 L166 8 L168 4 L169 2 L171 2 L171 1 L172 1 L173 1 L175 1 L177 6 L178 10 L179 17 L180 23 L180 30 L181 33 L181 35 L182 37 L184 40 L185 41 L187 42 L189 42 L191 42 L194 41 L198 33 L203 22 L205 13 L207 8 L209 5 L210 4 L211 3 L213 1 L215 0 L217 0 L218 0 L220 0 L221 0 L223 4 L226 9 L229 19 L230 24 L231 27 L232 28 L232 29 L233 29 L235 25 L236 24 L236 22 L237 21 L237 20 L237 19 " fill="none" stroke="black" /></svg>