<?xml version="1.0" encoding="utf-8" ?>
<svg baseProfile="tiny" height="337" version="1.2" viewBox="-3 -3 457 337" width="457" xmlns="http://www.w3.org/2000/svg" xmlns:ev="http://www.w3.org/2001/xml-events" xmlns:xlink="http://www.w3.org/1999/xlink"><defs /><path d="M0 325 L67 255 L100 197 L121 159 L146 116 L165 93 L184 73 L198 58 L205 50 L208 45 L211 42 L210 49 L201 70 L149 195 L148 199 L147 200 L149 196 L161 175 L183 144 L222 97 L249 67 L272 48 L281 43 L285 42 L287 42 L286 49 L271 74 L227 133 L173 195 L139 242 L121 275 L112 295 L110 299 L110 300 L110 301 L113 294 L147 250 L183 202 L218 154 L235 129 L250 111 L260 101 L268 92 L272 88 L273 87 L273 91 L256 118 L232 154 L215 182 L205 200 L202 207 L200 212 L200 213 L205 207 L233 174 L258 142 L285 111 L301 93 L316 81 L318 78 L320 77 L320 76 L321 76 L311 91 L288 122 L257 163 L240 186 L221 211 L215 220 L213 224 L212 224 L215 223 L243 195 L279 153 L330 96 L352 71 L365 58 L369 53 L371 53 L371 58 L361 80 L310 161 L289 191 L275 208 L264 221 L259 225 L256 229 L261 219 L289 177 L312 142 L329 117 L342 95 L347 89 L350 86 L352 84 L353 84 L354 84 L354 85 L351 100 L335 133 L319 163 L296 202 L287 216 L284 221 L283 223 L283 224 L283 221 L291 210 L303 197 L351 134 L356 127 L357 124 L353 130 L338 153 L320 181 L304 210 L296 224 L293 230 L292 232 L291 234 L304 210 L338 161 L360 130 L377 105 L392 81 L402 69 L421 47 L435 33 L445 20 L456 1 L457 0 L453 12 L434 45 L379 136 L337 210 L301 282 L262 333 L258 335 L258 337 L257 337 L259 332 L272 315 L292 289 L317 252 L330 235 L333 230 L336 226 L337 224 L337 223 L338 223 " fill="none" stroke="black" /></svg>