<?xml version="1.0" encoding="utf-8" ?>
<svg baseProfile="tiny" height="77" version="1.2" viewBox="-3 -3 99 77" width="99" xmlns="http://www.w3.org/2000/svg" xmlns:ev="http://www.w3.org/2001/xml-events" xmlns:xlink="http://www.w3.org/1999/xlink"><defs /><path d="M0 31 L0 35 L0 39 L2 45 L3 49 L4 50 L4 52 L5 57 L5 63 L5 66 L5 69 L5 70 L5 71 L11 72 L16 72 L25 74 L33 75 L39 75 L44 76 L48 76 L51 77 L56 77 L61 77 L65 77 L71 77 L73 77 L77 77 L79 77 L81 77 L84 77 L86 77 L87 77 L88 77 L90 77 L92 76 L94 76 L96 76 L97 76 L98 75 L99 75 L99 73 L98 69 L96 64 L96 60 L95 57 L94 52 L94 48 L93 45 L93 43 L93 41 L93 40 L93 39 L93 38 L93 37 L93 35 L93 33 L93 31 L93 29 L93 28 L93 27 L93 26 L93 25 L93 24 L92 24 L90 24 L87 24 L84 24 L78 25 L71 27 L63 30 L56 31 L49 32 L45 33 L39 34 L35 35 L29 35 L26 35 L23 35 L19 35 L16 35 L13 35 L10 35 L8 35 L6 35 L5 34 L4 33 L3 32 L3 31 L2 31 L2 29 L2 28 L6 28 L14 28 L20 28 L26 28 L30 28 L35 28 L37 28 L38 28 L39 28 L41 28 L43 28 L46 28 L47 28 L50 29 L52 30 L54 30 L55 30 L57 30 L58 30 L61 30 L63 30 L66 30 L68 30 L71 30 L73 29 L76 28 L79 26 L82 25 L85 24 L87 23 L88 23 L92 22 L94 22 L95 21 " fill="none" stroke="black" /><path d="M0 31 L0 35 L0 39 L2 45 L3 49 L4 50 L4 52 L5 57 L5 63 L5 66 L5 69 L5 70 L5 71 L11 72 L16 72 L25 74 L33 75 L39 75 L44 76 L48 76 L51 77 L56 77 L61 77 L65 77 L71 77 L73 77 L77 77 L79 77 L81 77 L84 77 L86 77 L87 77 L88 77 L90 77 L92 76 L94 76 L96 76 L97 76 L98 75 L99 75 L99 73 L98 69 L96 64 L96 60 L95 57 L94 52 L94 48 L93 45 L93 43 L93 41 L93 40 L93 39 L93 38 L93 37 L93 35 L93 33 L93 31 L93 29 L93 28 L93 27 L93 26 L93 25 L93 24 L92 24 L90 24 L87 24 L84 24 L78 25 L71 27 L63 30 L56 31 L49 32 L45 33 L39 34 L35 35 L29 35 L26 35 L23 35 L19 35 L16 35 L13 35 L10 35 L8 35 L6 35 L5 34 L4 33 L3 32 L3 31 L2 31 L2 29 L2 28 L6 28 L14 28 L20 28 L26 28 L30 28 L35 28 L37 28 L38 28 L39 28 L41 28 L43 28 L46 28 L47 28 L50 29 L52 30 L54 30 L55 30 L57 30 L58 30 L61 30 L63 30 L66 30 L68 30 L71 30 L73 29 L76 28 L79 26 L82 25 L85 24 L87 23 L88 23 L92 22 L94 22 L95 21 M66 24 L66 23 L66 21 L66 17 L65 11 L65 9 L65 7 L65 6 L65 4 L65 3 L65 2 L65 1 " fill="none" stroke="black" /><circle cx="65" cy="1" fill="black" r="1" /><path d="M0 31 L0 35 L0 39 L2 45 L3 49 L4 50 L4 52 L5 57 L5 63 L5 66 L5 69 L5 70 L5 71 L11 72 L16 72 L25 74 L33 75 L39 75 L44 76 L48 76 L51 77 L56 77 L61 77 L65 77 L71 77 L73 77 L77 77 L79 77 L81 77 L84 77 L86 77 L87 77 L88 77 L90 77 L92 76 L94 76 L96 76 L97 76 L98 75 L99 75 L99 73 L98 69 L96 64 L96 60 L95 57 L94 52 L94 48 L93 45 L93 43 L93 41 L93 40 L93 39 L93 38 L93 37 L93 35 L93 33 L93 31 L93 29 L93 28 L93 27 L93 26 L93 25 L93 24 L92 24 L90 24 L87 24 L84 24 L78 25 L71 27 L63 30 L56 31 L49 32 L45 33 L39 34 L35 35 L29 35 L26 35 L23 35 L19 35 L16 35 L13 35 L10 35 L8 35 L6 35 L5 34 L4 33 L3 32 L3 31 L2 31 L2 29 L2 28 L6 28 L14 28 L20 28 L26 28 L30 28 L35 28 L37 28 L38 28 L39 28 L41 28 L43 28 L46 28 L47 28 L50 29 L52 30 L54 30 L55 30 L57 30 L58 30 L61 30 L63 30 L66 30 L68 30 L71 30 L73 29 L76 28 L79 26 L82 25 L85 24 L87 23 L88 23 L92 22 L94 22 L95 21 M66 24 L66 23 L66 21 L66 17 L65 11 L65 9 L65 7 L65 6 L65 4 L65 3 L65 2 L65 1 M17 18 L17 17 L17 15 L16 14 L16 11 L15 10 L14 7 L14 4 L14 2 L14 1 L14 0 " fill="none" stroke="black" /></svg>