<?xml version="1.0" encoding="utf-8" ?>
<svg baseProfile="tiny" height="127" version="1.2" viewBox="-3 -3 538 127" width="538" xmlns="http://www.w3.org/2000/svg" xmlns:ev="http://www.w3.org/2001/xml-events" xmlns:xlink="http://www.w3.org/1999/xlink"><defs /><path d="M0 69 L0 66 L0 64 L0 56 L3 51 L4 47 L4 46 L8 45 L19 44 L27 44 L37 50 L48 62 L54 69 L60 76 L64 79 L65 81 L66 79 L67 72 L70 66 L72 62 L74 59 L79 55 L84 52 L87 50 L93 48 L95 47 L96 47 L97 47 L98 47 L99 47 L100 50 L102 54 L103 57 L105 61 L105 63 L107 65 L107 66 L108 66 L109 66 L112 66 L113 66 L117 60 L122 55 L126 51 L132 46 L139 43 L145 40 L149 39 L152 39 L156 42 L161 47 L168 56 L173 62 L176 67 L179 72 L182 76 L183 78 L184 79 L185 79 L187 79 L190 77 L193 74 L197 70 L204 64 L206 60 L214 50 L216 45 L217 43 L217 42 L218 42 L218 41 L222 42 L228 45 L236 52 L244 60 L249 67 L253 76 L257 82 L259 89 L260 90 L261 90 L262 90 L264 86 L266 80 L268 73 L269 67 L272 60 L275 52 L276 47 L277 44 L278 42 L279 39 L280 38 L282 36 L282 35 L288 37 L297 43 L305 48 L309 51 L313 54 L316 56 L318 57 L321 58 L325 61 L331 65 L336 70 L337 71 L338 69 L345 54 L352 44 L366 28 L371 24 L373 22 L374 21 L375 20 L379 23 L385 31 L391 37 L394 43 L400 51 L405 62 L412 74 L416 77 L417 80 L419 80 L424 72 L428 63 L431 55 L435 45 L441 36 L443 29 L446 26 L447 25 L453 26 L462 31 L470 37 L490 59 L509 88 L525 115 L531 125 L531 127 L531 121 L528 111 L523 88 L521 76 L522 35 L533 9 L537 2 L538 0 " fill="none" stroke="black" /></svg>