<?xml version="1.0" encoding="utf-8" ?>
<svg baseProfile="tiny" height="26" version="1.2" viewBox="-3 -3 1166 26" width="1166" xmlns="http://www.w3.org/2000/svg" xmlns:ev="http://www.w3.org/2001/xml-events" xmlns:xlink="http://www.w3.org/1999/xlink"><defs /><path d="M0 25 L7 26 L12 26 L15 26 L20 26 L24 26 L39 26 L49 26 L56 26 L68 26 L78 26 L86 26 L100 26 L109 26 L121 26 L131 26 L140 26 L148 26 L172 26 L188 26 L204 26 L213 26 L215 26 L220 26 L228 25 L236 25 L246 24 L253 24 L255 24 L256 24 L261 24 L262 24 L264 24 L269 24 L275 24 L276 24 L278 24 " fill="none" stroke="black" /><path d="M0 25 L7 26 L12 26 L15 26 L20 26 L24 26 L39 26 L49 26 L56 26 L68 26 L78 26 L86 26 L100 26 L109 26 L121 26 L131 26 L140 26 L148 26 L172 26 L188 26 L204 26 L213 26 L215 26 L220 26 L228 25 L236 25 L246 24 L253 24 L255 24 L256 24 L261 24 L262 24 L264 24 L269 24 L275 24 L276 24 L278 24 M290 22 L293 22 L296 22 L300 22 L305 22 L312 22 L319 22 L325 22 L335 22 L344 22 L351 22 L360 22 L366 22 L374 22 L380 22 L388 22 L397 22 L408 22 L418 21 L425 20 L429 20 L439 19 L447 19 L460 19 L466 19 L472 19 L477 19 L484 19 L496 19 L510 19 L520 19 L524 19 L529 19 L540 19 L543 19 L545 19 L551 19 L557 19 L565 20 L573 20 L580 21 L581 21 L583 21 L586 21 L598 21 L600 21 " fill="none" stroke="black" /><path d="M0 25 L7 26 L12 26 L15 26 L20 26 L24 26 L39 26 L49 26 L56 26 L68 26 L78 26 L86 26 L100 26 L109 26 L121 26 L131 26 L140 26 L148 26 L172 26 L188 26 L204 26 L213 26 L215 26 L220 26 L228 25 L236 25 L246 24 L253 24 L255 24 L256 24 L261 24 L262 24 L264 24 L269 24 L275 24 L276 24 L278 24 M290 22 L293 22 L296 22 L300 22 L305 22 L312 22 L319 22 L325 22 L335 22 L344 22 L351 22 L360 22 L366 22 L374 22 L380 22 L388 22 L397 22 L408 22 L418 21 L425 20 L429 20 L439 19 L447 19 L460 19 L466 19 L472 19 L477 19 L484 19 L496 19 L510 19 L520 19 L524 19 L529 19 L540 19 L543 19 L545 19 L551 19 L557 19 L565 20 L573 20 L580 21 L581 21 L583 21 L586 21 L598 21 L600 21 M628 18 L632 18 L638 18 L641 18 L652 18 L656 18 L663 18 L668 18 L675 18 L682 18 L693 17 L701 17 L708 16 L709 16 L719 16 L725 15 L734 14 L743 14 L752 14 L758 14 L765 14 L772 14 L778 14 L782 14 L790 14 L799 14 L806 14 L810 14 L812 14 L820 14 L824 14 L832 14 L837 14 L841 14 L847 14 L855 14 L865 14 L879 14 L881 14 " fill="none" stroke="black" /><path d="M0 25 L7 26 L12 26 L15 26 L20 26 L24 26 L39 26 L49 26 L56 26 L68 26 L78 26 L86 26 L100 26 L109 26 L121 26 L131 26 L140 26 L148 26 L172 26 L188 26 L204 26 L213 26 L215 26 L220 26 L228 25 L236 25 L246 24 L253 24 L255 24 L256 24 L261 24 L262 24 L264 24 L269 24 L275 24 L276 24 L278 24 M290 22 L293 22 L296 22 L300 22 L305 22 L312 22 L319 22 L325 22 L335 22 L344 22 L351 22 L360 22 L366 22 L374 22 L380 22 L388 22 L397 22 L408 22 L418 21 L425 20 L429 20 L439 19 L447 19 L460 19 L466 19 L472 19 L477 19 L484 19 L496 19 L510 19 L520 19 L524 19 L529 19 L540 19 L543 19 L545 19 L551 19 L557 19 L565 20 L573 20 L580 21 L581 21 L583 21 L586 21 L598 21 L600 21 M628 18 L632 18 L638 18 L641 18 L652 18 L656 18 L663 18 L668 18 L675 18 L682 18 L693 17 L701 17 L708 16 L709 16 L719 16 L725 15 L734 14 L743 14 L752 14 L758 14 L765 14 L772 14 L778 14 L782 14 L790 14 L799 14 L806 14 L810 14 L812 14 L820 14 L824 14 L832 14 L837 14 L841 14 L847 14 L855 14 L865 14 L879 14 L881 14 M901 12 L902 12 L908 12 L919 11 L932 10 L951 7 L963 6 L977 4 L995 2 L1013 0 L1031 0 L1048 0 L1065 0 L1084 0 L1104 0 L1119 0 L1133 1 L1138 2 L1140 2 L1144 2 L1147 2 L1148 2 L1148 3 L1152 4 L1154 4 L1163 4 L1165 5 L1166 5 " fill="none" stroke="black" /></svg>