<?xml version="1.0" encoding="utf-8" ?>
<svg baseProfile="tiny" height="26" version="1.2" viewBox="-3 -3 758 26" width="758" xmlns="http://www.w3.org/2000/svg" xmlns:ev="http://www.w3.org/2001/xml-events" xmlns:xlink="http://www.w3.org/1999/xlink"><defs /><path d="M0 9 L1 9 L8 9 L20 9 L39 9 L77 10 L153 10 L244 10 L311 10 L414 14 L510 16 L580 16 L624 16 L672 18 L704 18 L705 18 L716 18 L721 18 L725 19 L746 20 L758 20 " fill="none" stroke="black" /><path d="M0 9 L1 9 L8 9 L20 9 L39 9 L77 10 L153 10 L244 10 L311 10 L414 14 L510 16 L580 16 L624 16 L672 18 L704 18 L705 18 L716 18 L721 18 L725 19 L746 20 L758 20 M36 11 L39 11 L44 8 L46 6 L50 5 L51 5 L53 8 L55 10 L56 11 L57 11 L59 11 L62 9 L65 7 L71 4 L76 0 L77 0 L78 2 L80 6 L81 6 L83 8 L88 9 L88 11 L89 11 L90 11 L92 12 L93 13 L93 14 L94 14 L95 14 L96 13 L100 11 L104 10 L106 9 L109 8 L111 7 L112 7 L114 5 L115 5 L116 5 L128 7 L129 7 L129 8 L136 11 L137 11 L139 10 L148 7 L154 3 L157 1 L158 1 L163 7 L168 11 L170 14 L171 14 L175 14 L178 14 L183 10 L185 8 L187 8 L188 7 L192 10 L198 16 L206 20 L207 20 L208 20 L212 16 L216 13 L223 10 L228 8 L229 7 L230 6 L233 6 L241 9 L248 13 L252 15 L254 15 L256 16 L257 16 L259 16 L265 14 L272 12 L273 11 L276 10 L284 11 L288 13 L297 18 L301 20 L303 21 L304 21 L307 20 L312 18 L324 13 L332 10 L334 9 L336 8 L341 7 L347 5 L348 5 L352 6 L354 8 L358 11 L366 16 L369 17 L371 18 L372 18 L373 18 L378 17 L380 16 L391 10 L392 9 L394 9 L405 13 L424 22 L434 26 L436 26 L439 26 L445 22 L454 19 L459 16 L480 12 L491 10 L494 10 L497 10 L504 12 L506 12 L516 12 L517 12 " fill="none" stroke="black" /></svg>