<?xml version="1.0" encoding="utf-8" ?>
<svg baseProfile="tiny" height="144" version="1.2" viewBox="-3 -3 273 144" width="273" xmlns="http://www.w3.org/2000/svg" xmlns:ev="http://www.w3.org/2001/xml-events" xmlns:xlink="http://www.w3.org/1999/xlink"><defs /><path d="M5 1 L12 2 L16 2 L27 2 L40 2 L55 2 L67 2 L84 2 L100 2 L111 2 L119 2 L126 2 L136 2 L150 2 L179 2 L199 2 L216 2 L236 2 L240 2 L252 0 L267 0 L273 0 " fill="none" stroke="black" /><path d="M5 1 L12 2 L16 2 L27 2 L40 2 L55 2 L67 2 L84 2 L100 2 L111 2 L119 2 L126 2 L136 2 L150 2 L179 2 L199 2 L216 2 L236 2 L240 2 L252 0 L267 0 L273 0 M0 32 L5 32 L19 32 L28 32 L32 32 L42 32 L52 32 L63 32 L79 32 L104 32 L115 32 L123 32 L136 32 L147 32 L161 32 L174 32 L184 32 L189 32 L197 32 L210 32 L223 32 L224 32 L228 32 L231 32 L232 32 L240 32 L245 32 L246 32 L248 32 L251 32 L252 32 L253 32 L257 32 L270 32 L271 32 " fill="none" stroke="black" /><path d="M5 1 L12 2 L16 2 L27 2 L40 2 L55 2 L67 2 L84 2 L100 2 L111 2 L119 2 L126 2 L136 2 L150 2 L179 2 L199 2 L216 2 L236 2 L240 2 L252 0 L267 0 L273 0 M0 32 L5 32 L19 32 L28 32 L32 32 L42 32 L52 32 L63 32 L79 32 L104 32 L115 32 L123 32 L136 32 L147 32 L161 32 L174 32 L184 32 L189 32 L197 32 L210 32 L223 32 L224 32 L228 32 L231 32 L232 32 L240 32 L245 32 L246 32 L248 32 L251 32 L252 32 L253 32 L257 32 L270 32 L271 32 M1 65 L2 65 L7 65 L18 65 L36 65 L51 65 L63 65 L75 65 L88 65 L104 65 L117 65 L128 65 L139 65 L154 67 L167 68 L176 68 L180 68 L186 68 L196 68 L202 68 L220 71 L240 72 L244 72 L245 72 L248 72 L249 72 L250 71 L251 71 L252 70 L253 70 L254 69 L256 69 L257 68 L259 68 L263 68 L269 68 " fill="none" stroke="black" /><path d="M5 1 L12 2 L16 2 L27 2 L40 2 L55 2 L67 2 L84 2 L100 2 L111 2 L119 2 L126 2 L136 2 L150 2 L179 2 L199 2 L216 2 L236 2 L240 2 L252 0 L267 0 L273 0 M0 32 L5 32 L19 32 L28 32 L32 32 L42 32 L52 32 L63 32 L79 32 L104 32 L115 32 L123 32 L136 32 L147 32 L161 32 L174 32 L184 32 L189 32 L197 32 L210 32 L223 32 L224 32 L228 32 L231 32 L232 32 L240 32 L245 32 L246 32 L248 32 L251 32 L252 32 L253 32 L257 32 L270 32 L271 32 M1 65 L2 65 L7 65 L18 65 L36 65 L51 65 L63 65 L75 65 L88 65 L104 65 L117 65 L128 65 L139 65 L154 67 L167 68 L176 68 L180 68 L186 68 L196 68 L202 68 L220 71 L240 72 L244 72 L245 72 L248 72 L249 72 L250 71 L251 71 L252 70 L253 70 L254 69 L256 69 L257 68 L259 68 L263 68 L269 68 M8 105 L13 105 L27 105 L44 105 L70 105 L100 105 L111 105 L131 105 L152 105 L164 105 L176 105 L196 104 L209 101 L223 101 L239 101 L246 101 L248 101 L252 101 L257 101 L258 101 L262 101 L266 102 L267 102 L270 102 L272 102 " fill="none" stroke="black" /><path d="M5 1 L12 2 L16 2 L27 2 L40 2 L55 2 L67 2 L84 2 L100 2 L111 2 L119 2 L126 2 L136 2 L150 2 L179 2 L199 2 L216 2 L236 2 L240 2 L252 0 L267 0 L273 0 M0 32 L5 32 L19 32 L28 32 L32 32 L42 32 L52 32 L63 32 L79 32 L104 32 L115 32 L123 32 L136 32 L147 32 L161 32 L174 32 L184 32 L189 32 L197 32 L210 32 L223 32 L224 32 L228 32 L231 32 L232 32 L240 32 L245 32 L246 32 L248 32 L251 32 L252 32 L253 32 L257 32 L270 32 L271 32 M1 65 L2 65 L7 65 L18 65 L36 65 L51 65 L63 65 L75 65 L88 65 L104 65 L117 65 L128 65 L139 65 L154 67 L167 68 L176 68 L180 68 L186 68 L196 68 L202 68 L220 71 L240 72 L244 72 L245 72 L248 72 L249 72 L250 71 L251 71 L252 70 L253 70 L254 69 L256 69 L257 68 L259 68 L263 68 L269 68 M8 105 L13 105 L27 105 L44 105 L70 105 L100 105 L111 105 L131 105 L152 105 L164 105 L176 105 L196 104 L209 101 L223 101 L239 101 L246 101 L248 101 L252 101 L257 101 L258 101 L262 101 L266 102 L267 102 L270 102 L272 102 M7 138 L11 138 L20 138 L32 141 L39 142 L49 142 L64 143 L71 143 L87 143 L118 144 L132 144 L152 143 L176 142 L184 140 L187 140 L190 140 L198 140 L204 139 L216 139 L222 139 L225 139 L232 139 L236 139 L238 139 L239 139 L240 139 L253 139 L256 139 L257 139 L260 139 L264 139 L265 139 " fill="none" stroke="black" /></svg>