<?xml version="1.0" encoding="utf-8" ?>
<svg baseProfile="tiny" height="184" version="1.2" viewBox="-3 -3 779 184" width="779" xmlns="http://www.w3.org/2000/svg" xmlns:ev="http://www.w3.org/2001/xml-events" xmlns:xlink="http://www.w3.org/1999/xlink"><defs /><path d="M0 36 L4 37 L30 37 L80 37 L151 42 L219 47 L264 48 L276 48 L283 42 L295 28 L314 13 L334 1 L336 0 L337 1 L344 4 L354 9 L360 13 L366 17 L372 20 L372 21 L373 23 L388 34 L399 41 L403 43 L403 44 L404 44 L418 45 L443 46 L479 46 L528 46 L576 46 L636 47 L703 55 L755 59 L779 61 " fill="none" stroke="black" /><path d="M0 36 L4 37 L30 37 L80 37 L151 42 L219 47 L264 48 L276 48 L283 42 L295 28 L314 13 L334 1 L336 0 L337 1 L344 4 L354 9 L360 13 L366 17 L372 20 L372 21 L373 23 L388 34 L399 41 L403 43 L403 44 L404 44 L418 45 L443 46 L479 46 L528 46 L576 46 L636 47 L703 55 L755 59 L779 61 M11 139 L20 135 L31 134 L40 132 L68 132 L116 132 L145 131 L164 130 L202 130 L236 130 L249 130 L257 130 L264 130 L267 130 L282 141 L294 150 L300 156 L301 157 L301 158 L307 163 L323 175 L326 176 L328 177 L328 178 L329 179 L335 183 L337 184 L341 183 L352 176 L368 167 L395 156 L416 143 L420 141 L425 141 L439 141 L444 141 L458 141 L472 141 L498 141 L520 142 L544 142 L571 142 L604 142 L644 142 L667 142 L677 142 L693 144 L717 148 L732 149 L733 149 " fill="none" stroke="black" /></svg>