<?xml version="1.0" encoding="utf-8" ?>
<svg baseProfile="tiny" height="408" version="1.2" viewBox="-3 -3 554 408" width="554" xmlns="http://www.w3.org/2000/svg" xmlns:ev="http://www.w3.org/2001/xml-events" xmlns:xlink="http://www.w3.org/1999/xlink"><defs /><path d="M336 201 L334 203 L331 206 L329 208 L328 211 L327 215 L327 219 L326 222 L326 223 L326 228 L327 232 L329 235 L331 236 L334 239 L338 242 L346 242 L353 243 L358 243 L370 242 L375 239 L382 235 L386 229 L387 217 L385 203 L382 193 L378 184 L371 174 L362 167 L349 159 L343 156 L338 155 L326 155 L318 155 L310 156 L302 159 L295 163 L288 168 L279 179 L275 185 L270 192 L267 198 L265 207 L262 216 L262 227 L262 234 L262 244 L266 257 L270 271 L276 282 L283 291 L294 302 L303 308 L321 318 L337 323 L356 326 L370 326 L390 313 L434 291 L463 271 L471 257 L474 241 L474 218 L473 201 L469 179 L460 158 L449 138 L440 127 L419 107 L398 91 L380 79 L362 71 L350 70 L318 70 L284 76 L256 83 L235 92 L216 108 L206 118 L190 134 L177 149 L169 167 L167 183 L166 195 L166 209 L172 224 L174 232 L180 243 L186 256 L194 270 L198 279 L207 291 L214 303 L218 307 L225 315 L234 326 L247 338 L261 350 L272 360 L287 371 L302 379 L314 385 L334 392 L355 399 L385 405 L414 408 L439 408 L460 407 L494 397 L515 387 L525 375 L532 363 L538 347 L545 319 L551 301 L554 273 L554 243 L554 219 L550 196 L540 163 L526 130 L516 106 L503 83 L484 62 L474 51 L457 42 L434 31 L412 23 L384 15 L343 8 L313 3 L278 0 L243 0 L214 0 L194 0 L182 2 L170 3 L148 9 L126 16 L98 28 L74 49 L53 71 L42 83 L30 100 L19 125 L10 147 L5 164 L2 191 L0 212 L0 220 L0 221 " fill="none" stroke="black" /></svg>