<?xml version="1.0" encoding="utf-8" ?>
<svg baseProfile="tiny" height="433" version="1.2" viewBox="-3 -3 570 433" width="570" xmlns="http://www.w3.org/2000/svg" xmlns:ev="http://www.w3.org/2001/xml-events" xmlns:xlink="http://www.w3.org/1999/xlink"><defs /><path d="M150 0 L152 0 L159 0 L189 4 L264 6 L367 6 L428 6 L438 6 " fill="none" stroke="black" /><path d="M150 0 L152 0 L159 0 L189 4 L264 6 L367 6 L428 6 L438 6 M98 13 L89 21 L70 43 L31 90 L2 121 L1 124 L0 124 " fill="none" stroke="black" /><path d="M150 0 L152 0 L159 0 L189 4 L264 6 L367 6 L428 6 L438 6 M98 13 L89 21 L70 43 L31 90 L2 121 L1 124 L0 124 M3 167 L3 174 L4 184 L6 197 L7 215 L7 235 L7 257 L7 273 L7 280 L7 286 L7 289 L7 290 " fill="none" stroke="black" /><path d="M150 0 L152 0 L159 0 L189 4 L264 6 L367 6 L428 6 L438 6 M98 13 L89 21 L70 43 L31 90 L2 121 L1 124 L0 124 M3 167 L3 174 L4 184 L6 197 L7 215 L7 235 L7 257 L7 273 L7 280 L7 286 L7 289 L7 290 M42 330 L52 339 L70 358 L91 384 L111 409 L131 430 L134 433 " fill="none" stroke="black" /><path d="M150 0 L152 0 L159 0 L189 4 L264 6 L367 6 L428 6 L438 6 M98 13 L89 21 L70 43 L31 90 L2 121 L1 124 L0 124 M3 167 L3 174 L4 184 L6 197 L7 215 L7 235 L7 257 L7 273 L7 280 L7 286 L7 289 L7 290 M42 330 L52 339 L70 358 L91 384 L111 409 L131 430 L134 433 M207 423 L222 423 L257 425 L292 425 L362 425 L439 427 L468 427 L470 427 " fill="none" stroke="black" /><path d="M150 0 L152 0 L159 0 L189 4 L264 6 L367 6 L428 6 L438 6 M98 13 L89 21 L70 43 L31 90 L2 121 L1 124 L0 124 M3 167 L3 174 L4 184 L6 197 L7 215 L7 235 L7 257 L7 273 L7 280 L7 286 L7 289 L7 290 M42 330 L52 339 L70 358 L91 384 L111 409 L131 430 L134 433 M207 423 L222 423 L257 425 L292 425 L362 425 L439 427 L468 427 L470 427 M570 237 L566 245 L552 277 L529 320 L511 350 L499 368 L499 369 " fill="none" stroke="black" /><path d="M150 0 L152 0 L159 0 L189 4 L264 6 L367 6 L428 6 L438 6 M98 13 L89 21 L70 43 L31 90 L2 121 L1 124 L0 124 M3 167 L3 174 L4 184 L6 197 L7 215 L7 235 L7 257 L7 273 L7 280 L7 286 L7 289 L7 290 M42 330 L52 339 L70 358 L91 384 L111 409 L131 430 L134 433 M207 423 L222 423 L257 425 L292 425 L362 425 L439 427 L468 427 L470 427 M570 237 L566 245 L552 277 L529 320 L511 350 L499 368 L499 369 M562 142 L562 154 L562 169 L561 191 L561 209 " fill="none" stroke="black" /><path d="M150 0 L152 0 L159 0 L189 4 L264 6 L367 6 L428 6 L438 6 M98 13 L89 21 L70 43 L31 90 L2 121 L1 124 L0 124 M3 167 L3 174 L4 184 L6 197 L7 215 L7 235 L7 257 L7 273 L7 280 L7 286 L7 289 L7 290 M42 330 L52 339 L70 358 L91 384 L111 409 L131 430 L134 433 M207 423 L222 423 L257 425 L292 425 L362 425 L439 427 L468 427 L470 427 M570 237 L566 245 L552 277 L529 320 L511 350 L499 368 L499 369 M562 142 L562 154 L562 169 L561 191 L561 209 M478 41 L481 45 L495 60 L507 73 L530 103 L543 121 L545 124 " fill="none" stroke="black" /><path d="M150 0 L152 0 L159 0 L189 4 L264 6 L367 6 L428 6 L438 6 M98 13 L89 21 L70 43 L31 90 L2 121 L1 124 L0 124 M3 167 L3 174 L4 184 L6 197 L7 215 L7 235 L7 257 L7 273 L7 280 L7 286 L7 289 L7 290 M42 330 L52 339 L70 358 L91 384 L111 409 L131 430 L134 433 M207 423 L222 423 L257 425 L292 425 L362 425 L439 427 L468 427 L470 427 M570 237 L566 245 L552 277 L529 320 L511 350 L499 368 L499 369 M562 142 L562 154 L562 169 L561 191 L561 209 M478 41 L481 45 L495 60 L507 73 L530 103 L543 121 L545 124 M149 133 L167 135 L302 147 L376 150 L410 150 " fill="none" stroke="black" /><path d="M150 0 L152 0 L159 0 L189 4 L264 6 L367 6 L428 6 L438 6 M98 13 L89 21 L70 43 L31 90 L2 121 L1 124 L0 124 M3 167 L3 174 L4 184 L6 197 L7 215 L7 235 L7 257 L7 273 L7 280 L7 286 L7 289 L7 290 M42 330 L52 339 L70 358 L91 384 L111 409 L131 430 L134 433 M207 423 L222 423 L257 425 L292 425 L362 425 L439 427 L468 427 L470 427 M570 237 L566 245 L552 277 L529 320 L511 350 L499 368 L499 369 M562 142 L562 154 L562 169 L561 191 L561 209 M478 41 L481 45 L495 60 L507 73 L530 103 L543 121 L545 124 M149 133 L167 135 L302 147 L376 150 L410 150 M163 209 L216 215 L345 218 L406 218 L413 218 " fill="none" stroke="black" /><path d="M150 0 L152 0 L159 0 L189 4 L264 6 L367 6 L428 6 L438 6 M98 13 L89 21 L70 43 L31 90 L2 121 L1 124 L0 124 M3 167 L3 174 L4 184 L6 197 L7 215 L7 235 L7 257 L7 273 L7 280 L7 286 L7 289 L7 290 M42 330 L52 339 L70 358 L91 384 L111 409 L131 430 L134 433 M207 423 L222 423 L257 425 L292 425 L362 425 L439 427 L468 427 L470 427 M570 237 L566 245 L552 277 L529 320 L511 350 L499 368 L499 369 M562 142 L562 154 L562 169 L561 191 L561 209 M478 41 L481 45 L495 60 L507 73 L530 103 L543 121 L545 124 M149 133 L167 135 L302 147 L376 150 L410 150 M163 209 L216 215 L345 218 L406 218 L413 218 M234 315 L275 329 L375 335 L471 334 L493 332 " fill="none" stroke="black" /></svg>