<?xml version="1.0" encoding="utf-8" ?>
<svg baseProfile="tiny" height="768.4" version="1.2" viewBox="-3 -3 1535 768.3999977111816" width="1535" xmlns="http://www.w3.org/2000/svg" xmlns:ev="http://www.w3.org/2001/xml-events" xmlns:xlink="http://www.w3.org/1999/xlink"><defs /><path d="M347 290 L455 266 L738 206 L996 167 L1014 164 L990 191 L757 352 L403 563 L303 638 L408 606 L747 468 L999 367 L1021 358 L1038 376 L1166 396 L1236 387 L1227 394 L1194 422 L1212 442 L1339 433 L1396 415 L1395 420 L1383 444 L1402 506 L1420 530 L1420 533 L1484 558 L1535 568 L1534 568 L1438 614 L1165 716 L1025 757 L1000 756 L979 742 L956 701 L1001 506 L1038 408 L894 402 L509 479 L493 476 L580 338 L692 178 L692 176 L606 209 L478 259 L461 266 L526 218 L723 128 L687 157 L400 288 L183 386 L185 373 L216 312 L171 300 L0 374 L0 430 L4 432 L139 445 L555 449 L808 458 L818 471 L811 484 L814 484 L1016 400 L1239 248 L1259 230 L1161 278 L881 396 L881 397 L952 343 L1107 215 L1108 216 L739 451 L523 562 L528 546 L710 329 L732 306 L550 429 L357 601 L344 653 L357 669 L527 562 L956 218 L1217 0 L1200 54 L1085 267 L948 473 L890 554 L942 454 L1096 177 L1115 138 L998 257 L738 480 L485 670 L466 666 L486 509 L511 225 L513 154 L495 288 L436 571 L396 768.3999977111816 L413 760.3999977111816 L569 562.3999977111816 L665 444.39999771118164 L665 452.39999771118164 L656 558.3999977111816 L674 652.3999977111816 L750 646.3999977111816 L960 532.3999977111816 L1044 505.39999771118164 L1060 536.3999977111816 L1047 579.3999977111816 L1026 638.3999977111816 L1024 643.3999977111816 L1102 477.39999771118164 L1203 176.39999771118164 L1208 116.39999771118164 L1152 144.39999771118164 L978 267.39999771118164 L821 368.39999771118164 L784 384.39999771118164 L780 364.39999771118164 L780 327.39999771118164 " fill="none" stroke="black" /></svg>