<?xml version="1.0" encoding="utf-8" ?>
<svg baseProfile="tiny" height="613" version="1.2" viewBox="-3 -3 864 613" width="864" xmlns="http://www.w3.org/2000/svg" xmlns:ev="http://www.w3.org/2001/xml-events" xmlns:xlink="http://www.w3.org/1999/xlink"><defs /><path d="M0 613 L9 609 L19 602 L30 595 L46 586 L61 576 L77 560 L99 538 L111 522 L125 502 L137 480 L152 452 L165 428 L178 406 L188 390 L196 376 L205 361 L217 343 L229 325 L241 307 L249 293 L257 274 L269 252 L277 235 L284 219 L289 199 L295 178 L299 162 L304 146 L308 138 L309 133 L316 121 L321 110 L327 99 L331 93 L335 87 L339 80 L344 74 L348 69 L351 64 L356 58 L364 48 L369 42 L373 38 L379 32 L382 28 L385 26 L385 22 L389 18 L391 14 L393 14 L393 11 L397 7 L400 5 L403 3 L413 0 L417 0 L421 0 L427 0 L435 2 L446 10 L462 20 L474 30 L482 38 L488 45 L490 50 L493 57 L500 70 L507 86 L515 103 L518 115 L519 129 L520 140 L520 157 L520 176 L520 198 L520 215 L520 226 L520 238 L520 252 L520 267 L520 278 L520 294 L520 306 L521 319 L524 343 L526 359 L528 370 L531 381 L533 393 L535 407 L537 418 L542 434 L549 454 L557 473 L563 483 L569 497 L577 512 L584 524 L589 533 L597 544 L605 555 L609 562 L614 569 L621 577 L625 580 L630 586 L637 593 L641 596 L651 603 L659 608 L664 609 L668 609 L677 610 L689 610 L701 607 L712 603 L717 600 L729 594 L741 586 L749 582 L761 571 L773 561 L778 554 L785 545 L793 536 L805 517 L813 501 L821 486 L824 482 L825 479 L829 467 L832 452 L837 434 L839 422 L841 418 L842 414 L842 413 L844 406 L846 400 L848 396 L849 390 L852 382 L856 370 L858 362 L860 354 L861 353 L861 350 L862 345 L864 340 " fill="none" stroke="black" /></svg>