<?xml version="1.0" encoding="utf-8" ?>
<svg baseProfile="tiny" height="469" version="1.2" viewBox="-3 -3 734 469" width="734" xmlns="http://www.w3.org/2000/svg" xmlns:ev="http://www.w3.org/2001/xml-events" xmlns:xlink="http://www.w3.org/1999/xlink"><defs /><path d="M385 6 L368 3 L364 3 L362 3 L357 2 L348 2 L337 0 L322 0 L304 0 L284 0 L252 3 L220 8 L188 15 L160 21 L144 28 L124 38 L104 50 L88 62 L66 78 L46 94 L30 113 L18 130 L8 147 L4 162 L1 176 L0 190 L0 202 L0 217 L2 231 L4 246 L11 262 L16 276 L24 290 L35 309 L50 329 L64 342 L96 370 L126 391 L152 407 L184 422 L216 434 L251 443 L306 456 L368 466 L410 468 L453 469 L500 469 L556 463 L602 452 L640 437 L662 415 L680 390 L699 367 L711 345 L721 315 L729 287 L734 260 L734 231 L734 206 L732 174 L724 153 L713 129 L702 111 L690 98 L677 90 L660 82 L632 71 L603 61 L573 50 L554 44 L532 37 L508 30 L492 24 L467 18 L438 12 L414 8 L398 6 L383 4 L364 4 L350 4 L348 4 L347 4 " fill="none" stroke="black" /><path d="M385 6 L368 3 L364 3 L362 3 L357 2 L348 2 L337 0 L322 0 L304 0 L284 0 L252 3 L220 8 L188 15 L160 21 L144 28 L124 38 L104 50 L88 62 L66 78 L46 94 L30 113 L18 130 L8 147 L4 162 L1 176 L0 190 L0 202 L0 217 L2 231 L4 246 L11 262 L16 276 L24 290 L35 309 L50 329 L64 342 L96 370 L126 391 L152 407 L184 422 L216 434 L251 443 L306 456 L368 466 L410 468 L453 469 L500 469 L556 463 L602 452 L640 437 L662 415 L680 390 L699 367 L711 345 L721 315 L729 287 L734 260 L734 231 L734 206 L732 174 L724 153 L713 129 L702 111 L690 98 L677 90 L660 82 L632 71 L603 61 L573 50 L554 44 L532 37 L508 30 L492 24 L467 18 L438 12 L414 8 L398 6 L383 4 L364 4 L350 4 L348 4 L347 4 M343 161 L340 161 L337 161 L334 161 L331 162 L328 163 L324 166 L320 170 L316 174 L315 177 L312 180 L310 186 L308 191 L307 197 L307 198 L307 200 L307 204 L308 207 L308 210 L311 214 L315 218 L318 220 L323 224 L327 226 L332 227 L341 227 L347 227 L352 227 L360 222 L365 218 L369 216 L374 209 L376 205 L377 202 L378 199 L379 195 L379 194 L379 190 L379 188 L379 186 L378 182 L376 180 L376 178 L374 175 L372 173 L370 171 L368 169 L366 167 L360 164 L358 163 L354 162 L349 161 L347 160 L345 160 L344 160 L342 160 L341 160 L340 160 " fill="none" stroke="black" /><circle cx="338" cy="196" fill="black" r="1" /></svg>