<?xml version="1.0" encoding="utf-8" ?>
<svg baseProfile="tiny" height="51" version="1.2" viewBox="-3 -3 668 51" width="668" xmlns="http://www.w3.org/2000/svg" xmlns:ev="http://www.w3.org/2001/xml-events" xmlns:xlink="http://www.w3.org/1999/xlink"><defs /><path d="M0 15 L1 15 L9 15 L23 13 L45 5 L52 1 L53 0 L54 0 L58 7 L61 12 L63 13 L64 15 L66 17 L68 17 L71 16 L81 12 L88 9 L93 9 L102 7 L104 6 L105 7 L107 9 L112 16 L115 17 L117 18 L120 18 L123 18 L127 17 L132 13 L139 9 L145 8 L149 6 L151 7 L156 14 L163 17 L167 19 L168 19 L170 18 L173 18 L178 17 L188 15 L197 13 L201 11 L203 11 L204 11 L207 11 L212 15 L220 20 L224 22 L228 22 L234 21 L243 20 L250 18 L257 17 L264 15 L267 14 L268 14 L270 14 L270 15 L275 20 L283 25 L287 27 L289 27 L291 27 L294 26 L306 20 L316 17 L323 15 L328 13 L330 13 L338 19 L345 23 L351 25 L352 25 L356 25 L367 20 L379 15 L389 9 L397 7 L404 5 L406 5 L415 13 L424 17 L427 20 L429 20 L432 19 L438 17 L446 15 L449 14 L453 14 L459 17 L472 27 L483 33 L484 33 L490 29 L499 22 L504 20 L509 17 L513 17 L514 17 L526 24 L532 28 L535 29 L536 30 L537 30 L545 29 L553 26 L558 24 L560 24 L564 25 L571 32 L574 34 L576 35 L578 35 L582 35 L589 33 L595 31 L596 31 L599 33 L604 37 L612 41 L620 45 L623 47 L628 47 L637 45 L641 45 L651 45 L659 48 L666 51 L667 51 L668 51 " fill="none" stroke="black" /></svg>