<?xml version="1.0" encoding="utf-8" ?>
<svg baseProfile="tiny" height="287" version="1.2" viewBox="-3 -3 1440 287" width="1440" xmlns="http://www.w3.org/2000/svg" xmlns:ev="http://www.w3.org/2001/xml-events" xmlns:xlink="http://www.w3.org/1999/xlink"><defs /><path d="M178 0 L178 1 " fill="none" stroke="black" /><path d="M178 0 L178 1 M0 275 L4 275 L19 275 L37 275 L63 275 L79 275 L80 275 " fill="none" stroke="black" /><path d="M178 0 L178 1 M0 275 L4 275 L19 275 L37 275 L63 275 L79 275 L80 275 M249 277 L256 278 L268 282 L300 284 L328 287 L374 287 L380 287 " fill="none" stroke="black" /><path d="M178 0 L178 1 M0 275 L4 275 L19 275 L37 275 L63 275 L79 275 L80 275 M249 277 L256 278 L268 282 L300 284 L328 287 L374 287 L380 287 M529 272 L532 272 L552 275 L584 279 L618 280 L626 280 L635 279 " fill="none" stroke="black" /><path d="M178 0 L178 1 M0 275 L4 275 L19 275 L37 275 L63 275 L79 275 L80 275 M249 277 L256 278 L268 282 L300 284 L328 287 L374 287 L380 287 M529 272 L532 272 L552 275 L584 279 L618 280 L626 280 L635 279 M795 261 L796 261 L808 261 L824 262 L852 263 L870 263 L887 263 L899 263 L900 263 " fill="none" stroke="black" /><path d="M178 0 L178 1 M0 275 L4 275 L19 275 L37 275 L63 275 L79 275 L80 275 M249 277 L256 278 L268 282 L300 284 L328 287 L374 287 L380 287 M529 272 L532 272 L552 275 L584 279 L618 280 L626 280 L635 279 M795 261 L796 261 L808 261 L824 262 L852 263 L870 263 L887 263 L899 263 L900 263 M1072 263 L1077 263 L1086 263 L1100 261 L1144 256 L1192 253 L1198 251 L1199 251 " fill="none" stroke="black" /><path d="M178 0 L178 1 M0 275 L4 275 L19 275 L37 275 L63 275 L79 275 L80 275 M249 277 L256 278 L268 282 L300 284 L328 287 L374 287 L380 287 M529 272 L532 272 L552 275 L584 279 L618 280 L626 280 L635 279 M795 261 L796 261 L808 261 L824 262 L852 263 L870 263 L887 263 L899 263 L900 263 M1072 263 L1077 263 L1086 263 L1100 261 L1144 256 L1192 253 L1198 251 L1199 251 M1336 251 L1356 253 L1396 253 L1412 253 L1431 253 L1438 253 L1440 253 " fill="none" stroke="black" /></svg>