<?xml version="1.0" encoding="utf-8" ?>
<svg baseProfile="tiny" height="191" version="1.2" viewBox="-3 -3 1535 191" width="1535" xmlns="http://www.w3.org/2000/svg" xmlns:ev="http://www.w3.org/2001/xml-events" xmlns:xlink="http://www.w3.org/1999/xlink"><defs /><path d="M0 0 L2 0 L4 0 L8 0 L12 0 L16 0 L21 1 L24 1 L28 1 L31 2 L36 3 L40 4 L46 4 L49 4 L51 4 L53 4 L60 5 L68 5 L78 6 L96 9 L106 9 L115 10 L121 11 L124 11 L129 11 L140 11 L153 11 L163 11 L174 12 L187 13 L200 14 L224 16 L239 17 L247 18 L257 19 L268 19 L281 20 L293 20 L309 22 L328 24 L352 24 L379 25 L403 25 L432 25 L458 25 L485 25 L512 25 L534 25 L550 25 L563 25 L573 25 L585 25 L604 25 L634 25 L664 26 L702 28 L732 29 L764 29 L808 29 L838 29 L872 30 L895 31 L928 31 L971 31 L1004 31 L1022 31 L1048 31 L1096 31 L1176 32 L1272 34 L1354 34 L1428 34 L1514 34 L1535 34 L1535 36 " fill="none" stroke="black" /><path d="M0 0 L2 0 L4 0 L8 0 L12 0 L16 0 L21 1 L24 1 L28 1 L31 2 L36 3 L40 4 L46 4 L49 4 L51 4 L53 4 L60 5 L68 5 L78 6 L96 9 L106 9 L115 10 L121 11 L124 11 L129 11 L140 11 L153 11 L163 11 L174 12 L187 13 L200 14 L224 16 L239 17 L247 18 L257 19 L268 19 L281 20 L293 20 L309 22 L328 24 L352 24 L379 25 L403 25 L432 25 L458 25 L485 25 L512 25 L534 25 L550 25 L563 25 L573 25 L585 25 L604 25 L634 25 L664 26 L702 28 L732 29 L764 29 L808 29 L838 29 L872 30 L895 31 L928 31 L971 31 L1004 31 L1022 31 L1048 31 L1096 31 L1176 32 L1272 34 L1354 34 L1428 34 L1514 34 L1535 34 L1535 36 M0 175 L1 175 L8 175 L15 173 L27 170 L30 169 L36 168 L50 166 L65 164 L85 161 L98 160 L113 160 L134 160 L163 160 L194 160 L225 161 L259 163 L307 167 L347 169 L388 172 L441 176 L485 179 L524 180 L565 182 L620 183 L676 185 L733 187 L792 187 L869 187 L944 189 L1040 189 L1154 189 L1299 191 L1400 191 L1488 191 L1535 191 L1535 188 L1535 185 L1535 182 L1535 180 " fill="none" stroke="black" /></svg>