<?xml version="1.0" encoding="utf-8" ?>
<svg baseProfile="tiny" height="20" version="1.2" viewBox="-3 -3 781 20" width="781" xmlns="http://www.w3.org/2000/svg" xmlns:ev="http://www.w3.org/2001/xml-events" xmlns:xlink="http://www.w3.org/1999/xlink"><defs /><circle cx="0" cy="0" fill="black" r="1" /><path d="M19 2 L22 2 L25 2 L31 2 L40 3 L47 4 L51 4 L55 4 L64 5 L66 5 " fill="none" stroke="black" /><circle cx="99" cy="0" fill="black" r="1" /><path d="M19 2 L22 2 L25 2 L31 2 L40 3 L47 4 L51 4 L55 4 L64 5 L66 5 M125 2 L130 2 L138 2 L143 2 L148 2 L167 4 L189 7 L190 7 " fill="none" stroke="black" /><circle cx="215" cy="5" fill="black" r="1" /><path d="M19 2 L22 2 L25 2 L31 2 L40 3 L47 4 L51 4 L55 4 L64 5 L66 5 M125 2 L130 2 L138 2 L143 2 L148 2 L167 4 L189 7 L190 7 M240 6 L241 6 L242 6 L243 6 L257 8 L277 11 L287 12 L295 12 L310 12 L324 12 L327 12 " fill="none" stroke="black" /><circle cx="344" cy="9" fill="black" r="1" /><path d="M19 2 L22 2 L25 2 L31 2 L40 3 L47 4 L51 4 L55 4 L64 5 L66 5 M125 2 L130 2 L138 2 L143 2 L148 2 L167 4 L189 7 L190 7 M240 6 L241 6 L242 6 L243 6 L257 8 L277 11 L287 12 L295 12 L310 12 L324 12 L327 12 M381 11 L382 11 L387 11 L418 11 L441 11 L443 11 L444 11 L451 11 L451 10 " fill="none" stroke="black" /><circle cx="487" cy="11" fill="black" r="1" /><path d="M19 2 L22 2 L25 2 L31 2 L40 3 L47 4 L51 4 L55 4 L64 5 L66 5 M125 2 L130 2 L138 2 L143 2 L148 2 L167 4 L189 7 L190 7 M240 6 L241 6 L242 6 L243 6 L257 8 L277 11 L287 12 L295 12 L310 12 L324 12 L327 12 M381 11 L382 11 L387 11 L418 11 L441 11 L443 11 L444 11 L451 11 L451 10 M521 12 L522 12 L527 12 L538 12 L559 9 L623 5 L631 4 " fill="none" stroke="black" /><path d="M19 2 L22 2 L25 2 L31 2 L40 3 L47 4 L51 4 L55 4 L64 5 L66 5 M125 2 L130 2 L138 2 L143 2 L148 2 L167 4 L189 7 L190 7 M240 6 L241 6 L242 6 L243 6 L257 8 L277 11 L287 12 L295 12 L310 12 L324 12 L327 12 M381 11 L382 11 L387 11 L418 11 L441 11 L443 11 L444 11 L451 11 L451 10 M521 12 L522 12 L527 12 L538 12 L559 9 L623 5 L631 4 M650 7 L651 8 " fill="none" stroke="black" /><path d="M19 2 L22 2 L25 2 L31 2 L40 3 L47 4 L51 4 L55 4 L64 5 L66 5 M125 2 L130 2 L138 2 L143 2 L148 2 L167 4 L189 7 L190 7 M240 6 L241 6 L242 6 L243 6 L257 8 L277 11 L287 12 L295 12 L310 12 L324 12 L327 12 M381 11 L382 11 L387 11 L418 11 L441 11 L443 11 L444 11 L451 11 L451 10 M521 12 L522 12 L527 12 L538 12 L559 9 L623 5 L631 4 M650 7 L651 8 M691 8 L692 8 L699 9 L739 16 L765 18 " fill="none" stroke="black" /><circle cx="781" cy="20" fill="black" r="1" /></svg>