<?xml version="1.0" encoding="utf-8" ?>
<svg baseProfile="tiny" height="599" version="1.2" viewBox="-3 -3 1112 599" width="1112" xmlns="http://www.w3.org/2000/svg" xmlns:ev="http://www.w3.org/2001/xml-events" xmlns:xlink="http://www.w3.org/1999/xlink"><defs /><path d="M501 23 L501 26 L501 33 L498 44 L495 57 L490 78 L486 88 L481 103 L473 120 L465 136 L459 150 L448 166 L434 184 L410 218 L390 240 L371 256 L356 267 L332 283 L303 296 L275 308 L250 317 L227 325 L201 332 L170 339 L136 346 L97 352 L54 356 L35 356 L32 356 L20 355 L1 353 " fill="none" stroke="black" /><path d="M501 23 L501 26 L501 33 L498 44 L495 57 L490 78 L486 88 L481 103 L473 120 L465 136 L459 150 L448 166 L434 184 L410 218 L390 240 L371 256 L356 267 L332 283 L303 296 L275 308 L250 317 L227 325 L201 332 L170 339 L136 346 L97 352 L54 356 L35 356 L32 356 L20 355 L1 353 M0 356 L0 358 L0 360 L0 362 L0 364 L1 367 L1 368 L1 369 L1 371 L4 375 L5 376 L6 379 L8 382 L11 386 L12 387 L16 390 L19 392 L22 395 L26 396 L32 399 L39 400 L44 400 L54 400 L63 400 L70 400 L81 400 L85 400 L94 400 L108 399 L120 398 L134 397 L144 397 L152 396 L158 396 L172 394 L179 392 L189 391 L203 390 L221 387 L235 384 L245 383 L258 380 L269 378 L282 376 L301 375 L330 371 L361 368 L386 368 L412 368 L455 372 L500 381 L545 393 L589 408 L633 425 L684 448 L737 478 L775 504 L799 522 L827 548 L840 560 L845 568 L857 584 L861 591 L865 596 L866 599 " fill="none" stroke="black" /><path d="M501 23 L501 26 L501 33 L498 44 L495 57 L490 78 L486 88 L481 103 L473 120 L465 136 L459 150 L448 166 L434 184 L410 218 L390 240 L371 256 L356 267 L332 283 L303 296 L275 308 L250 317 L227 325 L201 332 L170 339 L136 346 L97 352 L54 356 L35 356 L32 356 L20 355 L1 353 M0 356 L0 358 L0 360 L0 362 L0 364 L1 367 L1 368 L1 369 L1 371 L4 375 L5 376 L6 379 L8 382 L11 386 L12 387 L16 390 L19 392 L22 395 L26 396 L32 399 L39 400 L44 400 L54 400 L63 400 L70 400 L81 400 L85 400 L94 400 L108 399 L120 398 L134 397 L144 397 L152 396 L158 396 L172 394 L179 392 L189 391 L203 390 L221 387 L235 384 L245 383 L258 380 L269 378 L282 376 L301 375 L330 371 L361 368 L386 368 L412 368 L455 372 L500 381 L545 393 L589 408 L633 425 L684 448 L737 478 L775 504 L799 522 L827 548 L840 560 L845 568 L857 584 L861 591 L865 596 L866 599 M587 204 L611 205 L650 200 L704 173 L764 128 L849 46 L881 12 L894 0 " fill="none" stroke="black" /><path d="M501 23 L501 26 L501 33 L498 44 L495 57 L490 78 L486 88 L481 103 L473 120 L465 136 L459 150 L448 166 L434 184 L410 218 L390 240 L371 256 L356 267 L332 283 L303 296 L275 308 L250 317 L227 325 L201 332 L170 339 L136 346 L97 352 L54 356 L35 356 L32 356 L20 355 L1 353 M0 356 L0 358 L0 360 L0 362 L0 364 L1 367 L1 368 L1 369 L1 371 L4 375 L5 376 L6 379 L8 382 L11 386 L12 387 L16 390 L19 392 L22 395 L26 396 L32 399 L39 400 L44 400 L54 400 L63 400 L70 400 L81 400 L85 400 L94 400 L108 399 L120 398 L134 397 L144 397 L152 396 L158 396 L172 394 L179 392 L189 391 L203 390 L221 387 L235 384 L245 383 L258 380 L269 378 L282 376 L301 375 L330 371 L361 368 L386 368 L412 368 L455 372 L500 381 L545 393 L589 408 L633 425 L684 448 L737 478 L775 504 L799 522 L827 548 L840 560 L845 568 L857 584 L861 591 L865 596 L866 599 M587 204 L611 205 L650 200 L704 173 L764 128 L849 46 L881 12 L894 0 M675 260 L741 260 L853 253 L1076 300 L1112 387 L1112 476 L1112 516 L1112 528 " fill="none" stroke="black" /></svg>