<?xml version="1.0" encoding="utf-8" ?>
<svg baseProfile="tiny" height="394" version="1.2" viewBox="-3 -3 382 394" width="382" xmlns="http://www.w3.org/2000/svg" xmlns:ev="http://www.w3.org/2001/xml-events" xmlns:xlink="http://www.w3.org/1999/xlink"><defs /><path d="M382 0 L382 9 L380 30 L380 61 L380 102 L380 156 L380 193 L380 233 L380 284 L380 338 L380 366 L380 381 L380 394 " fill="none" stroke="black" /><path d="M382 0 L382 9 L380 30 L380 61 L380 102 L380 156 L380 193 L380 233 L380 284 L380 338 L380 366 L380 381 L380 394 M0 83 L0 84 L13 86 L40 90 L72 91 L92 91 L121 91 L173 93 L224 93 L264 93 L308 93 L324 93 L328 93 L340 93 L344 93 L347 93 L348 93 L350 93 L351 94 L352 94 " fill="none" stroke="black" /><path d="M382 0 L382 9 L380 30 L380 61 L380 102 L380 156 L380 193 L380 233 L380 284 L380 338 L380 366 L380 381 L380 394 M0 83 L0 84 L13 86 L40 90 L72 91 L92 91 L121 91 L173 93 L224 93 L264 93 L308 93 L324 93 L328 93 L340 93 L344 93 L347 93 L348 93 L350 93 L351 94 L352 94 M12 180 L14 180 L31 182 L41 182 L54 182 L105 182 L164 182 L184 182 L204 182 L254 185 L282 185 L296 185 L310 185 L317 185 L326 185 L334 185 L340 185 " fill="none" stroke="black" /><path d="M382 0 L382 9 L380 30 L380 61 L380 102 L380 156 L380 193 L380 233 L380 284 L380 338 L380 366 L380 381 L380 394 M0 83 L0 84 L13 86 L40 90 L72 91 L92 91 L121 91 L173 93 L224 93 L264 93 L308 93 L324 93 L328 93 L340 93 L344 93 L347 93 L348 93 L350 93 L351 94 L352 94 M12 180 L14 180 L31 182 L41 182 L54 182 L105 182 L164 182 L184 182 L204 182 L254 185 L282 185 L296 185 L310 185 L317 185 L326 185 L334 185 L340 185 M68 290 L69 290 L78 291 L95 292 L140 293 L177 293 L203 293 L233 293 L264 293 L288 293 L318 293 L336 293 L345 293 L357 293 L362 293 " fill="none" stroke="black" /></svg>