<?xml version="1.0" encoding="utf-8" ?>
<svg baseProfile="tiny" height="34" version="1.2" viewBox="-3 -3 943 34" width="943" xmlns="http://www.w3.org/2000/svg" xmlns:ev="http://www.w3.org/2001/xml-events" xmlns:xlink="http://www.w3.org/1999/xlink"><defs /><path d="M0 8 L3 8 L5 8 L7 9 L8 9 L14 9 L21 10 L34 11 L39 12 L40 12 L45 12 L49 13 L50 13 L59 12 L76 12 L79 12 L85 12 L91 13 L95 13 L99 13 L108 13 L115 13 L120 14 L127 14 L130 14 L134 14 L139 14 L142 14 L147 14 L154 15 L163 15 L167 15 L170 15 L180 16 L186 16 L197 16 L204 17 L208 17 L213 17 L218 17 L223 17 L227 17 L232 17 L239 17 L247 17 L255 18 L262 18 L268 18 L274 19 L277 19 L279 19 L287 19 L291 19 L296 19 L305 19 L312 19 L316 19 L321 19 L326 19 L331 19 L339 19 L343 19 L350 19 L355 19 L360 19 L364 19 L369 19 L375 19 L382 19 L389 19 L396 19 L402 19 L406 19 L407 19 L410 19 L415 19 L420 19 L423 19 L427 19 L431 18 L434 17 L439 17 L444 15 L449 13 L455 12 L463 9 L471 4 L477 1 L480 1 L482 0 L487 0 L489 0 L492 0 L495 1 L499 3 L501 3 L503 4 L510 7 L511 7 L513 9 L516 9 L517 10 L519 12 L523 14 L527 15 L531 17 L537 20 L539 21 L540 21 L541 21 L546 21 L550 22 L556 23 L567 25 L571 25 L580 27 L589 27 L594 28 L606 28 L617 29 L626 29 L637 29 L641 29 L647 29 L659 29 L677 29 L691 29 L709 29 L722 30 L736 30 L755 31 L772 32 L787 32 L797 33 L810 33 L821 33 L832 33 L837 33 L843 33 L845 33 L850 33 L859 33 L875 33 L883 33 L891 33 L906 34 L918 34 L920 34 L934 34 L943 34 " fill="none" stroke="black" /></svg>