<?xml version="1.0" encoding="utf-8" ?>
<svg baseProfile="tiny" height="592" version="1.2" viewBox="-3 -3 1525 592" width="1525" xmlns="http://www.w3.org/2000/svg" xmlns:ev="http://www.w3.org/2001/xml-events" xmlns:xlink="http://www.w3.org/1999/xlink"><defs /><path d="M131 0 L132 2 " fill="none" stroke="black" /><path d="M131 0 L132 2 M0 292 L2 288 L9 273 L25 244 L44 221 L50 215 L50 216 L54 228 L68 259 L74 275 L74 276 L92 256 L153 204 L199 166 L210 156 L211 156 L214 167 L240 243 L265 308 L275 329 L277 331 L282 325 L306 294 L343 259 L398 220 L442 193 L452 188 L453 190 L468 216 L499 278 L520 318 L522 320 L531 320 L579 296 L668 228 L742 180 L775 164 L778 165 L802 196 L858 276 L895 335 L897 337 L910 332 L932 308 L964 267 L1002 236 L1028 220 L1031 220 L1060 243 L1107 300 L1138 351 L1146 360 L1151 360 L1172 346 L1227 292 L1283 245 L1305 229 L1309 231 L1329 255 L1382 321 L1423 373 L1438 391 L1443 391 L1470 371 L1525 296 L1525 248 L1525 240 L1525 252 L1525 286 L1525 343 L1525 383 L1525 388 " fill="none" stroke="black" /><path d="M131 0 L132 2 M0 292 L2 288 L9 273 L25 244 L44 221 L50 215 L50 216 L54 228 L68 259 L74 275 L74 276 L92 256 L153 204 L199 166 L210 156 L211 156 L214 167 L240 243 L265 308 L275 329 L277 331 L282 325 L306 294 L343 259 L398 220 L442 193 L452 188 L453 190 L468 216 L499 278 L520 318 L522 320 L531 320 L579 296 L668 228 L742 180 L775 164 L778 165 L802 196 L858 276 L895 335 L897 337 L910 332 L932 308 L964 267 L1002 236 L1028 220 L1031 220 L1060 243 L1107 300 L1138 351 L1146 360 L1151 360 L1172 346 L1227 292 L1283 245 L1305 229 L1309 231 L1329 255 L1382 321 L1423 373 L1438 391 L1443 391 L1470 371 L1525 296 L1525 248 L1525 240 L1525 252 L1525 286 L1525 343 L1525 383 L1525 388 M10 536 L19 525 L59 482 L137 416 L212 370 L238 360 L240 361 L255 382 L281 419 L308 459 L350 509 L392 527 L456 521 L550 480 L598 452 L636 437 L650 436 L658 444 L686 486 L732 568 L746 589 L750 592 L758 592 L822 558 L928 500 L1058 449 L1097 441 L1106 443 L1134 461 L1178 503 L1219 542 L1248 561 L1289 562 L1359 530 L1418 493 L1454 473 L1462 472 L1472 484 L1492 505 L1523 528 L1525 536 L1525 528 L1525 517 L1525 508 L1525 506 " fill="none" stroke="black" /></svg>