<?xml version="1.0" encoding="utf-8" ?>
<svg baseProfile="tiny" height="521" version="1.2" viewBox="-3 -3 1490 521" width="1490" xmlns="http://www.w3.org/2000/svg" xmlns:ev="http://www.w3.org/2001/xml-events" xmlns:xlink="http://www.w3.org/1999/xlink"><defs /><path d="M106 0 L108 1 " fill="none" stroke="black" /><path d="M106 0 L108 1 M0 461 L1 461 L4 464 L11 469 L20 476 L34 483 L47 489 L67 495 L75 497 L85 497 L106 497 L126 497 L143 493 L162 489 L180 484 L194 477 L210 469 L238 453 L263 433 L277 417 L290 397 L300 377 L307 362 L313 345 L319 335 L325 325 L343 309 L357 298 L374 286 L389 277 L399 273 L405 269 L415 266 L424 264 L433 261 L439 261 L447 259 L459 258 L471 258 L483 258 L497 260 L518 266 L530 270 L537 273 L543 277 L555 285 L563 289 L569 295 L585 308 L595 317 L607 327 L615 337 L623 347 L631 360 L648 385 L660 403 L673 419 L696 439 L708 449 L716 453 L731 460 L739 464 L759 472 L775 476 L790 478 L808 481 L819 481 L831 481 L854 477 L872 471 L894 460 L920 446 L930 440 L944 427 L958 416 L972 401 L987 385 L1000 369 L1008 357 L1015 348 L1023 337 L1032 322 L1039 314 L1046 306 L1050 302 L1057 298 L1063 294 L1069 288 L1075 284 L1080 280 L1088 276 L1092 274 L1095 273 L1100 270 L1107 269 L1111 266 L1116 266 L1126 264 L1135 261 L1145 260 L1152 257 L1159 256 L1172 253 L1185 251 L1196 251 L1212 251 L1231 251 L1251 254 L1273 261 L1302 275 L1328 289 L1347 303 L1368 318 L1382 329 L1391 341 L1406 357 L1426 379 L1441 397 L1467 425 L1490 449 L1490 462 L1490 477 L1490 489 L1490 501 L1490 509 L1490 516 L1490 520 L1490 521 " fill="none" stroke="black" /></svg>