<?xml version="1.0" encoding="utf-8" ?>
<svg baseProfile="tiny" height="197" version="1.2" viewBox="-3 -3 264 197" width="264" xmlns="http://www.w3.org/2000/svg" xmlns:ev="http://www.w3.org/2001/xml-events" xmlns:xlink="http://www.w3.org/1999/xlink"><defs /><path d="M117 97 L118 97 L122 96 L123 95 L125 94 L126 92 L126 90 L126 87 L126 85 L126 84 L126 80 L126 79 L126 78 L125 78 L124 78 L123 77 L121 77 L119 76 L116 76 L114 76 L113 76 L111 76 L110 76 L108 76 L107 76 L106 76 L105 78 L104 79 L102 80 L102 81 L101 83 L101 84 L100 85 L100 87 L100 88 L100 89 L100 90 L100 91 L101 91 L102 91 L103 91 " fill="none" stroke="black" /><path d="M117 97 L118 97 L122 96 L123 95 L125 94 L126 92 L126 90 L126 87 L126 85 L126 84 L126 80 L126 79 L126 78 L125 78 L124 78 L123 77 L121 77 L119 76 L116 76 L114 76 L113 76 L111 76 L110 76 L108 76 L107 76 L106 76 L105 78 L104 79 L102 80 L102 81 L101 83 L101 84 L100 85 L100 87 L100 88 L100 89 L100 90 L100 91 L101 91 L102 91 L103 91 M114 28 L110 30 L108 32 L103 33 L98 36 L93 40 L86 44 L78 49 L71 56 L62 62 L56 67 L51 72 L46 78 L43 84 L42 88 L42 93 L42 98 L42 100 L42 105 L43 110 L51 118 L63 125 L82 133 L98 135 L108 136 L120 136 L126 136 L133 135 L141 132 L153 128 L156 125 L160 119 L163 111 L166 101 L167 94 L167 87 L165 68 L161 53 L159 50 L158 50 L158 49 L153 47 L147 44 L146 43 L144 43 L137 40 L127 36 L121 32 L116 31 L113 30 L111 29 L110 29 " fill="none" stroke="black" /><path d="M117 97 L118 97 L122 96 L123 95 L125 94 L126 92 L126 90 L126 87 L126 85 L126 84 L126 80 L126 79 L126 78 L125 78 L124 78 L123 77 L121 77 L119 76 L116 76 L114 76 L113 76 L111 76 L110 76 L108 76 L107 76 L106 76 L105 78 L104 79 L102 80 L102 81 L101 83 L101 84 L100 85 L100 87 L100 88 L100 89 L100 90 L100 91 L101 91 L102 91 L103 91 M114 28 L110 30 L108 32 L103 33 L98 36 L93 40 L86 44 L78 49 L71 56 L62 62 L56 67 L51 72 L46 78 L43 84 L42 88 L42 93 L42 98 L42 100 L42 105 L43 110 L51 118 L63 125 L82 133 L98 135 L108 136 L120 136 L126 136 L133 135 L141 132 L153 128 L156 125 L160 119 L163 111 L166 101 L167 94 L167 87 L165 68 L161 53 L159 50 L158 50 L158 49 L153 47 L147 44 L146 43 L144 43 L137 40 L127 36 L121 32 L116 31 L113 30 L111 29 L110 29 M82 0 L77 2 L71 5 L62 10 L50 14 L40 23 L32 28 L20 41 L15 48 L10 58 L6 65 L3 74 L1 86 L0 96 L1 108 L5 122 L14 138 L25 152 L39 167 L53 176 L71 184 L91 190 L114 195 L138 196 L169 197 L206 191 L234 180 L246 170 L255 156 L261 141 L264 130 L264 117 L260 103 L254 87 L247 73 L234 52 L222 37 L215 29 L210 25 L207 22 L198 18 L190 13 L182 10 L174 8 L165 5 L153 3 L140 0 L126 0 L123 0 L115 0 L106 0 L94 0 L90 0 L87 0 L86 0 L84 0 L83 0 " fill="none" stroke="black" /></svg>