<?xml version="1.0" encoding="utf-8" ?>
<svg baseProfile="tiny" height="395" version="1.2" viewBox="-3 -3 676 395" width="676" xmlns="http://www.w3.org/2000/svg" xmlns:ev="http://www.w3.org/2001/xml-events" xmlns:xlink="http://www.w3.org/1999/xlink"><defs /><path d="M0 0 L2 1 " fill="none" stroke="black" /><path d="M0 0 L2 1 M589 229 L589 236 L590 253 L591 280 L591 302 L591 337 L591 381 L591 395 " fill="none" stroke="black" /><path d="M0 0 L2 1 M589 229 L589 236 L590 253 L591 280 L591 302 L591 337 L591 381 L591 395 M521 318 L524 319 L527 319 L541 319 L556 319 L572 319 L583 319 L593 321 L606 321 L623 321 L642 321 L652 321 L663 321 L664 321 L666 321 L668 321 L669 321 " fill="none" stroke="black" /><path d="M0 0 L2 1 M589 229 L589 236 L590 253 L591 280 L591 302 L591 337 L591 381 L591 395 M521 318 L524 319 L527 319 L541 319 L556 319 L572 319 L583 319 L593 321 L606 321 L623 321 L642 321 L652 321 L663 321 L664 321 L666 321 L668 321 L669 321 M513 220 L513 225 L513 231 L513 243 L514 257 L515 268 L515 277 L516 296 L517 310 L517 320 L517 325 L517 331 L519 342 L520 349 L520 353 L520 354 L520 357 L520 366 L520 373 L521 381 L522 385 L523 388 L529 393 L530 393 L533 393 L537 393 L544 393 L553 394 L554 394 L555 394 L560 394 L563 394 L565 394 L576 394 L589 394 L590 394 L598 394 L617 394 L621 394 L625 394 L629 394 L632 394 L637 393 L655 393 L660 393 L662 393 L671 393 L673 393 L675 393 L676 393 L676 391 L676 387 L676 381 L676 377 L676 373 L676 367 L676 362 L675 357 L675 353 L674 349 L673 343 L673 336 L672 321 L671 314 L671 307 L671 298 L671 292 L671 282 L671 267 L671 254 L671 244 L670 235 L670 228 L669 217 L669 215 L669 214 L669 212 L669 211 L668 211 L667 211 L659 209 L650 208 L645 207 L643 207 L637 207 L629 207 L624 207 L617 207 L612 207 L606 207 L601 207 L589 207 L577 208 L569 209 L565 209 L555 211 L542 212 L528 213 L520 215 L517 216 L507 217 L498 218 " fill="none" stroke="black" /><path d="M0 0 L2 1 M589 229 L589 236 L590 253 L591 280 L591 302 L591 337 L591 381 L591 395 M521 318 L524 319 L527 319 L541 319 L556 319 L572 319 L583 319 L593 321 L606 321 L623 321 L642 321 L652 321 L663 321 L664 321 L666 321 L668 321 L669 321 M513 220 L513 225 L513 231 L513 243 L514 257 L515 268 L515 277 L516 296 L517 310 L517 320 L517 325 L517 331 L519 342 L520 349 L520 353 L520 354 L520 357 L520 366 L520 373 L521 381 L522 385 L523 388 L529 393 L530 393 L533 393 L537 393 L544 393 L553 394 L554 394 L555 394 L560 394 L563 394 L565 394 L576 394 L589 394 L590 394 L598 394 L617 394 L621 394 L625 394 L629 394 L632 394 L637 393 L655 393 L660 393 L662 393 L671 393 L673 393 L675 393 L676 393 L676 391 L676 387 L676 381 L676 377 L676 373 L676 367 L676 362 L675 357 L675 353 L674 349 L673 343 L673 336 L672 321 L671 314 L671 307 L671 298 L671 292 L671 282 L671 267 L671 254 L671 244 L670 235 L670 228 L669 217 L669 215 L669 214 L669 212 L669 211 L668 211 L667 211 L659 209 L650 208 L645 207 L643 207 L637 207 L629 207 L624 207 L617 207 L612 207 L606 207 L601 207 L589 207 L577 208 L569 209 L565 209 L555 211 L542 212 L528 213 L520 215 L517 216 L507 217 L498 218 M589 209 L589 210 L589 213 L589 220 L589 224 L589 226 L589 228 L589 229 " fill="none" stroke="black" /></svg>