<?xml version="1.0" encoding="utf-8" ?>
<svg baseProfile="tiny" height="239" version="1.2" viewBox="-3 -3 289 239" width="289" xmlns="http://www.w3.org/2000/svg" xmlns:ev="http://www.w3.org/2001/xml-events" xmlns:xlink="http://www.w3.org/1999/xlink"><defs /><path d="M145 102 L118 111 L132 124 L178 123 L214 99 L213 81 L190 68 L149 74 L121 100 L130 131 L170 138 L189 126 L186 115 L170 120 L183 147 L231 176 L247 179 L230 173 L178 166 L142 167 L126 161 L122 127 L154 97 L200 86 L204 90 L170 95 L118 95 L101 108 L132 149 L171 170 L174 151 L142 92 L68 35 L49 29 L114 64 L238 101 L265 107 L237 107 L174 120 L112 153 L96 178 L139 167 L198 135 L202 133 L209 180 L242 219 L248 210 L182 131 L87 36 L73 1 L135 0 L234 13 L251 17 L214 15 L127 23 L63 75 L57 150 L88 202 L97 206 L75 199 L48 199 L67 214 L174 239 L198 235 L141 190 L76 125 L61 77 L97 53 L226 71 L289 88 L274 85 L189 76 L65 93 L3 143 L0 172 L60 192 L167 215 L186 223 L170 211 L126 158 L98 91 L102 78 L176 101 L278 149 L286 155 L210 138 L126 147 L101 192 L102 221 L114 199 L148 141 " fill="none" stroke="black" /></svg>