<?xml version="1.0" encoding="utf-8" ?>
<svg baseProfile="tiny" height="238" version="1.2" viewBox="-3 -3 166 238" width="166" xmlns="http://www.w3.org/2000/svg" xmlns:ev="http://www.w3.org/2001/xml-events" xmlns:xlink="http://www.w3.org/1999/xlink"><defs /><path d="M0 189 L0 197 L0 187 L4 161 L4 159 L0 187 L2 226 L4 230 L8 208 L10 177 L11 169 L10 181 L10 210 L12 213 L13 174 L18 141 L19 137 L20 157 L28 216 L28 215 L33 159 L37 125 L37 145 L39 218 L39 238 L39 208 L41 148 L44 124 L46 141 L52 173 L54 162 L64 100 L71 65 L72 77 L78 129 L83 149 L84 128 L88 87 L88 84 L91 106 L92 112 L97 73 L100 27 L101 32 L105 81 L107 101 L112 81 L116 49 L116 62 L112 111 L115 106 L130 55 L138 37 L139 48 L139 59 L143 44 L148 17 L148 18 L150 37 L152 38 L157 21 L157 20 L159 42 L159 47 L160 32 L164 7 L166 0 L166 19 L157 61 L155 73 L155 57 L153 28 L152 26 L147 64 L143 115 L140 129 L140 111 L140 78 L137 81 L131 129 L124 169 L120 174 L115 146 L108 125 L104 135 L100 177 L96 189 L95 159 L90 112 L88 113 L87 163 L84 201 L80 196 L72 152 L69 134 L65 152 L54 205 L48 215 L52 172 L58 129 L58 133 L60 185 L66 224 L70 217 L84 169 L93 157 L99 174 L105 200 L111 196 L131 141 L136 122 L136 149 L136 197 L136 205 L148 178 L156 151 L153 157 L148 193 L148 198 L152 184 L152 174 L150 194 L150 237 L152 237 L160 175 L162 122 L160 118 L158 140 L160 181 L163 186 L166 159 L164 126 L163 125 L158 173 L157 237 " fill="none" stroke="black" /></svg>