<?xml version="1.0" encoding="utf-8" ?>
<svg baseProfile="tiny" height="312" version="1.2" viewBox="-3 -3 704 312" width="704" xmlns="http://www.w3.org/2000/svg" xmlns:ev="http://www.w3.org/2001/xml-events" xmlns:xlink="http://www.w3.org/1999/xlink"><defs /><path d="M0 190 L6 179 L13 163 L25 136 L38 113 L44 104 L44 109 L42 132 L42 156 L41 186 L40 206 L40 212 L41 212 L46 202 L56 172 L72 129 L89 89 L100 67 L100 65 L100 67 L98 83 L94 126 L88 180 L80 231 L77 247 L77 246 L80 225 L88 186 L104 126 L121 71 L129 48 L130 47 L129 61 L129 96 L132 150 L137 220 L140 263 L141 271 L143 266 L152 234 L166 170 L180 89 L191 35 L196 19 L196 51 L192 107 L187 187 L184 249 L183 283 L183 285 L192 259 L213 184 L239 87 L253 30 L256 22 L255 31 L250 79 L242 164 L236 258 L233 305 L233 312 L240 291 L252 215 L270 101 L288 20 L292 0 L292 3 L292 52 L292 148 L292 233 L292 279 L292 284 L298 266 L314 178 L326 76 L330 20 L330 15 L330 31 L331 103 L339 201 L347 257 L349 265 L361 236 L384 148 L410 51 L419 19 L419 21 L414 67 L407 156 L400 234 L400 257 L404 245 L432 173 L465 97 L479 55 L472 103 L470 183 L472 223 L478 229 L505 204 L560 158 L596 134 L596 139 L594 185 L601 219 L613 214 L645 188 L686 163 L704 153 " fill="none" stroke="black" /></svg>