<?xml version="1.0" encoding="utf-8" ?>
<svg baseProfile="tiny" height="253" version="1.2" viewBox="-3 -3 203 253" width="203" xmlns="http://www.w3.org/2000/svg" xmlns:ev="http://www.w3.org/2001/xml-events" xmlns:xlink="http://www.w3.org/1999/xlink"><defs /><path d="M122 96 L127 84 L75 65 L58 64 L125 76 L144 76 L80 73 L32 73 L87 81 L203 88 L169 94 L65 108 L62 119 L111 122 L105 126 L94 133 L116 132 L103 125 L19 118 L1 121 L97 127 L145 120 L78 115 L38 114 L73 114 L99 114 L65 123 L66 133 L156 135 L161 130 L40 134 L0 150 L86 157 L177 152 L120 153 L51 157 L52 159 L67 160 L143 161 L139 161 L34 172 L8 182 L80 186 L157 182 L145 182 L66 182 L52 183 L91 184 L148 185 L111 188 L21 188 L10 188 L74 189 L128 189 L90 194 L4 201 L5 206 L89 208 L106 208 L39 212 L9 216 L37 219 L53 219 L29 224 L37 225 L117 212 L127 204 L73 202 L58 206 L91 210 L111 208 L81 216 L45 232 L72 235 L101 228 L58 234 L26 248 L65 249 L89 239 L82 237 L91 240 L109 242 L82 241 L53 240 L72 241 L94 236 L77 234 L61 238 L78 241 L83 241 L37 245 L13 252 L54 249 L93 241 L78 244 L43 252 L48 253 L88 233 L94 213 L57 201 L33 196 L48 188 L90 168 L85 161 L45 158 L49 153 L102 140 L109 136 L60 136 L49 132 L92 115 L105 109 L53 110 L32 109 L78 90 L113 72 L76 66 L49 63 L69 50 L90 35 L91 30 L89 30 L85 30 L80 22 L121 10 L155 4 L124 4 L69 4 L77 4 L129 0 L147 0 L109 2 L66 3 L76 7 L129 20 L141 33 L97 40 L74 43 L85 51 L103 59 L91 59 L45 52 L120 66 L151 72 L116 70 L93 66 L109 68 L125 72 L109 75 " fill="none" stroke="black" /></svg>