<?xml version="1.0" encoding="utf-8" ?>
<svg baseProfile="tiny" height="263" version="1.2" viewBox="-3 -3 320 263" width="320" xmlns="http://www.w3.org/2000/svg" xmlns:ev="http://www.w3.org/2001/xml-events" xmlns:xlink="http://www.w3.org/1999/xlink"><defs /><path d="M247 19 L232 0 L204 4 L129 38 L52 83 L0 149 L7 209 L115 261 L204 240 L257 192 L279 121 L271 61 L237 29 L189 30 L149 58 L141 139 L203 218 L276 227 L310 181 L300 111 L258 61 L220 55 L176 83 L152 132 L170 176 L217 178 L248 140 L250 95 L215 59 L175 65 L152 108 L156 160 L181 183 L203 156 L196 94 L140 47 L88 57 L75 128 L121 206 L174 214 L186 164 L144 99 L98 85 L84 125 L107 188 L152 202 L174 165 L144 103 L84 88 L64 130 L93 196 L133 206 L145 157 L114 96 L79 88 L68 128 L105 203 L162 223 L182 179 L151 100 L94 73 L56 104 L58 179 L96 219 L140 189 L163 103 L132 56 L83 67 L36 135 L46 219 L135 263 L232 209 L256 117 L201 46 L125 39 L66 92 L66 183 L156 249 L273 226 L320 154 L266 81 L167 59 L109 101 L109 178 L176 238 L253 213 L271 129 L212 51 L141 37 L112 87 L143 168 L234 208 L276 176 L254 94 L188 44 L154 63 L164 121 L208 160 L223 144 L200 95 L145 60 L127 78 L148 134 L201 177 L223 163 L200 102 L127 49 L88 60 L82 122 L128 183 L172 172 L181 110 L131 41 L63 38 L24 96 L43 171 L124 203 L174 170 L170 99 L116 60 L68 79 L57 146 L114 215 L217 225 L260 173 L226 107 L169 82 L136 96 " fill="none" stroke="black" /></svg>