<?xml version="1.0" encoding="utf-8" ?>
<svg baseProfile="tiny" height="227" version="1.2" viewBox="-3 -3 62 227" width="62" xmlns="http://www.w3.org/2000/svg" xmlns:ev="http://www.w3.org/2001/xml-events" xmlns:xlink="http://www.w3.org/1999/xlink"><defs /><path d="M26 129 L26 116 L26 106 L26 104 L26 106 L26 120 L26 128 L27 121 L29 112 L30 109 L31 116 L31 128 L31 135 L31 128 L31 124 L31 128 L31 142 L31 147 L31 146 L31 137 L31 136 L31 142 L31 154 L31 155 L31 151 L31 142 L31 141 L30 156 L28 168 L28 169 L27 162 L27 153 L27 152 L27 163 L27 173 L27 174 L26 166 L26 158 L26 159 L26 175 L24 180 L23 172 L23 153 L23 148 L20 161 L15 188 L14 193 L13 183 L13 159 L13 154 L15 164 L15 192 L14 201 L13 195 L14 179 L15 176 L17 196 L20 216 L19 216 L17 199 L17 192 L19 199 L19 219 L19 222 L19 203 L24 167 L27 156 L28 171 L28 204 L28 220 L28 214 L31 192 L33 182 L34 195 L35 221 L35 227 L35 210 L37 179 L38 172 L39 185 L41 210 L41 211 L43 174 L49 128 L53 115 L53 126 L51 157 L48 165 L48 147 L57 103 L62 86 L61 94 L53 132 L45 152 L44 145 L46 103 L48 73 L43 95 L40 104 L39 96 L39 62 L39 48 L39 55 L38 72 L37 49 L39 30 L35 52 L27 70 L26 65 L23 24 L23 0 L21 8 L17 42 L11 65 L10 59 L10 21 L13 0 L13 9 L7 52 L1 88 L0 92 L3 79 L4 75 L7 98 L11 135 L11 140 L11 132 L11 125 L11 127 L11 133 L11 131 L10 113 L10 112 L10 139 L11 163 L11 156 L15 108 L21 75 L21 77 L21 117 L21 146 L21 140 L23 99 L23 80 L24 88 L25 121 L25 129 L27 115 L31 98 L31 104 " fill="none" stroke="black" /></svg>