<?xml version="1.0" encoding="utf-8" ?>
<svg baseProfile="tiny" height="316" version="1.2" viewBox="-3 -3 344 316" width="344" xmlns="http://www.w3.org/2000/svg" xmlns:ev="http://www.w3.org/2001/xml-events" xmlns:xlink="http://www.w3.org/1999/xlink"><defs /><path d="M202 159 L176 151 L169 192 L208 255 L251 254 L258 191 L226 159 L202 184 L221 246 L261 268 L265 229 L226 181 L183 184 L182 224 L233 266 L254 224 L228 152 L171 120 L153 161 L173 210 L245 251 L253 194 L193 124 L145 119 L145 163 L202 204 L238 171 L213 98 L153 68 L135 88 L173 148 L230 156 L228 101 L144 44 L97 53 L104 104 L165 150 L205 132 L159 66 L57 33 L33 64 L87 126 L147 138 L128 104 L68 84 L47 111 L92 171 L139 185 L118 158 L66 144 L70 176 L138 219 L163 203 L101 148 L33 131 L31 163 L70 204 L82 205 L61 195 L45 202 L78 237 L122 247 L114 230 L53 216 L29 240 L69 284 L121 280 L125 239 L95 197 L69 203 L58 256 L99 297 L145 281 L153 236 L113 207 L81 228 L103 290 L154 308 L170 272 L145 229 L125 228 L152 282 L223 316 L251 287 L228 233 L189 213 L188 240 L243 300 L294 304 L297 251 L249 194 L225 188 L239 235 L310 280 L344 249 L311 172 L246 123 L238 126 L285 174 L331 184 L329 144 L273 96 L244 90 L246 104 L249 108 L238 78 L195 44 L182 53 L223 101 L263 108 L246 57 L166 2 L133 15 L151 77 L201 109 L224 79 L185 18 L137 2 L134 32 L170 73 L188 64 L162 24 L94 0 L68 25 L101 95 L145 120 L147 98 L80 56 L36 66 L57 125 L143 168 L165 146 L117 101 L69 90 L71 123 L108 157 L121 146 L75 120 L18 128 L26 174 L77 198 L95 178 L77 156 L57 157 L55 188 L65 202 L70 184 L38 157 L0 161 L2 204 " fill="none" stroke="black" /></svg>