<?xml version="1.0" encoding="utf-8" ?>
<svg baseProfile="tiny" height="328" version="1.2" viewBox="-3 -3 541 328" width="541" xmlns="http://www.w3.org/2000/svg" xmlns:ev="http://www.w3.org/2001/xml-events" xmlns:xlink="http://www.w3.org/1999/xlink"><defs /><path d="M541 132 L533 121 L525 110 L515 100 L485 78 L465 67 L420 45 L384 32 L346 20 L308 9 L269 4 L237 1 L194 0 L154 1 L113 6 L89 13 L71 20 L53 32 L35 48 L24 60 L9 89 L3 116 L0 152 L0 185 L9 222 L21 249 L37 275 L60 293 L86 304 L117 313 L165 321 L209 326 L245 328 L285 323 L333 310 L382 292 L413 268 L425 236 L429 202 L426 175 L417 156 L402 140 L376 119 L341 97 L300 77 L265 65 L233 61 L201 61 L169 71 L144 85 L118 109 L97 131 L81 155 L77 181 L84 213 L105 239 L136 260 L180 270 L226 269 L263 256 L281 235 L293 201 L301 165 L303 140 L295 120 L278 107 L249 97 L206 95 L166 100 L142 114 L126 140 L121 174 L132 205 L157 219 L188 220 L212 215 L235 201 L251 180 L257 156 L252 125 L238 104 L224 99 L201 105 L172 126 L155 156 L153 195 L177 224 L217 231 L245 213 L253 183 L252 149 L238 120 L217 111 L194 116 L170 140 L164 172 L178 197 L207 204 L236 191 L245 165 L241 133 L230 118 L218 120 L211 137 L215 161 L228 174 " fill="none" stroke="black" /></svg>