<?xml version="1.0" encoding="utf-8" ?>
<svg baseProfile="tiny" height="240" version="1.2" viewBox="-3 -3 570 240" width="570" xmlns="http://www.w3.org/2000/svg" xmlns:ev="http://www.w3.org/2001/xml-events" xmlns:xlink="http://www.w3.org/1999/xlink"><defs /><path d="M325 26 L434 12 L433 5 L403 0 L297 0 L96 1 L0 8 L28 22 L271 40 L552 36 L570 29 L445 14 L205 5 L66 12 L104 34 L279 51 L440 52 L485 43 L355 25 L148 12 L47 26 L100 59 L312 90 L425 92 L360 79 L184 65 L93 76 L184 111 L394 126 L460 120 L372 99 L248 88 L213 99 L315 119 L456 121 L473 118 L339 114 L179 124 L164 148 L320 191 L459 196 L392 184 L206 163 L117 160 L194 176 L393 181 L432 180 L300 172 L156 172 L186 182 L360 187 L396 189 L313 198 L265 216 L296 230 L328 228 L260 216 L199 224 L252 240 L348 226 L329 204 L252 183 L245 185 L311 192 L340 176 L287 163 L237 163 L256 164 L301 151 L277 141 L248 140 L269 142 L296 133 L267 119 L258 115 L309 109 L342 96 " fill="none" stroke="black" /></svg>