<?xml version="1.0" encoding="utf-8" ?>
<svg baseProfile="tiny" height="119" version="1.2" viewBox="-3 -3 310 119" width="310" xmlns="http://www.w3.org/2000/svg" xmlns:ev="http://www.w3.org/2001/xml-events" xmlns:xlink="http://www.w3.org/1999/xlink"><defs /><path d="M6 32 L4 34 L5 34 L22 23 L43 14 L53 11 L51 11 L38 19 L19 32 L16 37 L22 35 L48 18 L57 11 L55 13 L40 26 L29 38 L30 39 L46 30 L75 11 L84 7 L79 12 L63 26 L50 37 L46 40 L57 34 L77 17 L97 0 L96 1 L79 18 L62 40 L57 53 L60 53 L87 32 L118 13 L131 8 L122 19 L95 39 L76 55 L74 57 L90 45 L119 19 L135 5 L134 7 L119 27 L102 51 L98 59 L111 53 L142 34 L161 23 L160 23 L146 37 L137 53 L136 55 L150 44 L174 23 L181 18 L170 29 L151 52 L145 62 L151 57 L181 33 L204 20 L208 22 L196 42 L180 63 L182 67 L206 56 L244 34 L254 30 L239 41 L214 63 L208 71 L217 65 L246 43 L262 33 L259 35 L246 52 L242 63 L247 61 L269 47 L278 43 L276 47 L271 62 L271 68 L284 60 L305 44 L310 41 L305 49 L299 59 L299 61 L306 53 L307 49 L299 59 L273 83 L256 96 L259 92 L275 69 L279 63 L273 67 L245 91 L215 104 L209 105 L220 92 L226 86 L220 88 L189 106 L153 119 L153 115 L183 83 L197 66 L190 67 L163 86 L139 99 L141 95 L163 67 L170 55 L155 60 L116 84 L86 97 L90 92 L112 65 L114 58 L94 68 L69 87 L66 89 L86 62 L99 37 L90 39 L50 66 L17 85 L17 83 L37 54 L46 37 L41 36 L38 41 L40 38 L38 28 L20 23 L0 30 " fill="none" stroke="black" /></svg>