<?xml version="1.0" encoding="utf-8" ?>
<svg baseProfile="tiny" height="423" version="1.2" viewBox="-3 -3 739 423" width="739" xmlns="http://www.w3.org/2000/svg" xmlns:ev="http://www.w3.org/2001/xml-events" xmlns:xlink="http://www.w3.org/1999/xlink"><defs /><path d="M0 171 L0 172 L2 172 L5 172 L14 173 L23 174 L31 174 L39 175 L47 175 L53 175 L61 175 L71 173 L79 171 L84 169 L90 167 L97 164 L106 160 L112 157 L120 153 L129 148 L137 144 L145 139 L154 133 L163 127 L171 120 L182 112 L192 104 L207 92 L221 78 L229 67 L232 57 L235 46 L235 36 L235 29 L231 21 L227 13 L221 6 L213 2 L203 0 L191 0 L178 4 L168 10 L161 19 L157 28 L152 39 L149 51 L149 64 L149 76 L151 90 L159 104 L168 116 L182 127 L205 134 L231 137 L256 137 L279 132 L297 124 L308 113 L315 100 L316 88 L313 75 L307 65 L300 56 L288 51 L270 47 L251 47 L240 52 L232 63 L227 80 L227 101 L231 123 L242 144 L263 164 L289 179 L319 184 L350 180 L368 168 L375 152 L374 133 L367 122 L356 116 L335 112 L301 112 L271 119 L255 137 L254 164 L267 198 L303 235 L359 265 L419 276 L458 268 L467 243 L459 204 L437 164 L409 145 L367 144 L335 162 L328 199 L351 248 L414 292 L484 306 L522 300 L538 276 L539 247 L525 220 L503 208 L467 209 L434 235 L433 291 L483 357 L559 375 L616 349 L639 309 L624 271 L577 248 L527 250 L515 290 L559 364 L663 421 L739 423 " fill="none" stroke="black" /></svg>