<?xml version="1.0" encoding="utf-8" ?>
<svg baseProfile="tiny" height="181" version="1.2" viewBox="-3 -3 371 181" width="371" xmlns="http://www.w3.org/2000/svg" xmlns:ev="http://www.w3.org/2001/xml-events" xmlns:xlink="http://www.w3.org/1999/xlink"><defs /><path d="M0 64 L1 65 L7 67 L28 72 L69 74 L111 72 L137 65 L139 65 L135 68 L128 88 L132 98 L140 96 L153 79 L163 57 L163 53 L156 57 L148 72 L153 101 L183 112 L210 103 L220 85 L219 61 L208 59 L191 72 L186 101 L204 119 L231 115 L245 96 L247 78 L235 55 L211 53 L194 72 L195 97 L240 130 L286 127 L298 104 L291 78 L270 68 L243 79 L239 106 L261 134 L296 136 L319 114 L323 85 L314 67 L303 68 L303 93 L328 127 L359 133 L364 114 L353 82 L328 70 L311 84 L317 117 L345 139 L363 129 L356 96 L305 57 L258 53 L243 74 L249 99 L257 100 L258 69 L215 19 L164 0 L135 13 L132 48 L148 62 L156 46 L143 16 L106 5 L81 25 L85 64 L109 87 L119 76 L108 40 L68 16 L45 25 L58 65 L93 96 L105 93 L89 54 L39 24 L9 31 L10 71 L51 118 L90 119 L95 86 L59 45 L23 42 L26 84 L80 138 L134 147 L143 120 L114 86 L86 81 L91 109 L155 159 L206 169 L206 149 L179 124 L177 128 L223 162 L266 172 L259 148 L220 113 L207 112 L225 145 L291 181 L327 172 L327 133 L307 110 L303 120 L336 160 L365 169 L363 145 L343 118 L342 117 L363 125 L371 118 L344 92 L310 77 L303 78 L303 85 " fill="none" stroke="black" /></svg>