<?xml version="1.0" encoding="utf-8" ?>
<svg baseProfile="tiny" height="103" version="1.2" viewBox="-3 -3 55 103" width="55" xmlns="http://www.w3.org/2000/svg" xmlns:ev="http://www.w3.org/2001/xml-events" xmlns:xlink="http://www.w3.org/1999/xlink"><defs /><path d="M4 66 L2 83 L2 79 L4 41 L6 13 L4 37 L1 65 L0 71 L0 67 L4 36 L8 8 L8 32 L12 61 L12 67 L12 64 L16 39 L24 15 L24 13 L21 25 L13 66 L9 98 L9 101 L11 82 L19 30 L24 1 L23 20 L19 65 L17 89 L16 69 L17 38 L18 19 L18 17 L14 48 L10 85 L8 92 L18 61 L32 24 L36 7 L36 8 L32 42 L25 82 L24 91 L24 77 L24 40 L24 26 L23 42 L20 69 L20 78 L20 69 L23 33 L24 5 L24 6 L24 38 L20 77 L17 93 L17 86 L26 43 L33 9 L34 8 L32 31 L28 70 L25 90 L25 89 L27 60 L32 17 L32 1 L32 5 L32 46 L30 89 L29 102 L29 96 L39 47 L47 5 L48 0 L46 14 L40 56 L36 87 L34 92 L35 75 L41 35 L44 8 L44 7 L43 27 L40 69 L39 89 L39 87 L41 50 L43 10 L43 1 L41 7 L36 48 L34 78 L33 82 L33 70 L36 30 L36 10 L36 11 L36 38 L36 77 L36 100 L42 63 L50 22 L53 9 L53 19 L53 66 L52 99 L52 101 L52 79 L55 48 L55 24 L55 19 L54 29 L52 65 L51 89 L51 63 L51 29 L51 19 L48 33 L43 54 L41 64 L41 66 L40 79 L40 87 L40 89 L41 80 L47 60 L48 42 L48 41 L48 50 L47 69 L47 81 L47 82 L47 85 L47 89 L47 93 L46 101 L46 102 L45 102 L44 103 L42 97 L42 91 L42 86 L42 85 L42 86 L42 92 L42 96 L42 97 L43 91 L45 82 L45 79 " fill="none" stroke="black" /></svg>