<?xml version="1.0" encoding="utf-8" ?>
<svg baseProfile="tiny" height="168" version="1.2" viewBox="-3 -3 235 168" width="235" xmlns="http://www.w3.org/2000/svg" xmlns:ev="http://www.w3.org/2001/xml-events" xmlns:xlink="http://www.w3.org/1999/xlink"><defs /><path d="M235 20 L227 12 L217 8 L187 4 L118 0 L55 7 L15 29 L0 70 L10 117 L53 157 L127 168 L179 156 L214 128 L223 76 L215 40 L203 24 L182 17 L141 18 L83 31 L48 57 L41 95 L67 140 L103 151 L134 135 L159 100 L168 56 L156 27 L127 12 L83 11 L46 23 L27 48 L32 91 L72 130 L115 136 L139 114 L153 78 L151 50 L137 36 L105 36 L79 56 L71 84 L94 114 L128 122 L153 105 L156 71 L139 44 L112 37 L76 52 L62 84 L81 124 L123 135 L147 112 L145 70 L116 40 L88 40 L75 68 L99 109 L147 128 L168 107 L151 64 L121 45 L113 62 L124 103 L143 120 L149 104 L143 64 L131 52 L127 66 L145 102 L169 111 L172 87 L147 56 L133 55 L131 86 L142 113 L149 109 L147 70 L127 45 L116 55 L124 95 L145 112 L149 95 L129 61 L109 52 L109 76 L140 113 L156 118 L148 87 L113 56 L105 56 " fill="none" stroke="black" /></svg>