<?xml version="1.0" encoding="utf-8" ?>
<svg baseProfile="tiny" height="267" version="1.2" viewBox="-3 -3 331 267" width="331" xmlns="http://www.w3.org/2000/svg" xmlns:ev="http://www.w3.org/2001/xml-events" xmlns:xlink="http://www.w3.org/1999/xlink"><defs /><path d="M197 88 L195 86 L192 84 L189 83 L176 82 L113 83 L44 111 L51 157 L154 190 L234 164 L244 121 L197 56 L92 33 L21 65 L26 135 L141 197 L250 204 L284 165 L212 100 L100 67 L60 102 L144 168 L215 176 L231 144 L173 91 L89 84 L84 137 L196 204 L212 190 L137 140 L84 127 L120 155 L268 190 L310 172 L245 124 L161 102 L178 120 L283 143 L331 132 L287 113 L218 108 L219 107 L236 76 L215 44 L172 44 L172 64 L231 72 L241 51 L172 32 L147 43 L186 52 L203 33 L155 14 L130 26 L172 50 L208 37 L148 4 L64 0 L65 19 L112 25 L101 16 L34 23 L39 46 L96 55 L66 45 L0 51 L23 79 L95 93 L82 88 L26 101 L87 131 L228 132 L209 115 L112 102 L116 116 L176 149 L110 156 L11 150 L43 150 L161 150 L144 157 L85 170 L127 192 L252 209 L222 212 L92 220 L88 240 L235 262 L304 263 L254 262 L204 267 L221 267 L250 242 L183 214 L49 212 L25 224 L123 231 L236 204 L201 188 L99 181 L87 185 L144 168 L147 148 L78 142 L49 164 L138 190 L226 170 " fill="none" stroke="black" /></svg>