<?xml version="1.0" encoding="utf-8" ?>
<svg baseProfile="tiny" height="66" version="1.2" viewBox="-3 -3 766 66" width="766" xmlns="http://www.w3.org/2000/svg" xmlns:ev="http://www.w3.org/2001/xml-events" xmlns:xlink="http://www.w3.org/1999/xlink"><defs /><path d="M0 35 L12 35 L30 35 L50 34 L66 31 L79 31 L84 31 L86 31 L90 31 L107 18 L111 14 L111 16 L112 32 L117 36 L126 24 L134 12 L135 11 L138 18 L150 27 L167 11 L174 0 L175 0 L178 15 L186 32 L189 31 L196 12 L200 6 L202 10 L208 27 L216 34 L224 27 L236 10 L240 7 L246 22 L256 34 L264 28 L272 14 L272 11 L276 22 L282 32 L285 30 L293 19 L296 16 L303 36 L316 52 L324 44 L329 24 L330 22 L334 32 L339 41 L345 35 L356 15 L356 11 L358 26 L364 43 L365 43 L375 24 L376 22 L379 30 L384 38 L389 33 L398 15 L400 12 L408 27 L421 40 L433 32 L440 22 L440 24 L446 48 L452 55 L463 38 L468 22 L468 27 L480 51 L487 54 L493 39 L495 32 L496 40 L502 55 L504 58 L516 30 L519 11 L519 15 L527 42 L532 49 L537 40 L541 31 L544 34 L552 41 L556 41 L561 41 L570 44 L577 43 L583 38 L585 38 L599 55 L616 63 L625 55 L631 47 L647 53 L680 66 L708 63 L721 59 L742 58 L766 59 " fill="none" stroke="black" /></svg>