<?xml version="1.0" encoding="utf-8" ?>
<svg baseProfile="tiny" height="315" version="1.2" viewBox="-3 -3 365 315" width="365" xmlns="http://www.w3.org/2000/svg" xmlns:ev="http://www.w3.org/2001/xml-events" xmlns:xlink="http://www.w3.org/1999/xlink"><defs /><path d="M104 79 L103 82 L102 100 L102 107 L102 108 L102 107 L103 107 L104 116 L108 139 L111 145 L115 121 L123 74 L125 67 L123 110 L122 142 L126 129 L132 78 L135 69 L140 98 L159 140 L166 139 L160 84 L148 67 L142 98 L153 136 L160 131 L156 84 L151 74 L152 114 L180 158 L197 139 L189 82 L185 76 L205 138 L244 184 L248 159 L224 102 L216 103 L224 146 L227 152 L214 112 L209 104 L215 161 L229 218 L226 181 L209 74 L205 61 L209 121 L216 160 L223 129 L232 30 L223 17 L192 67 L170 154 L170 166 L172 83 L151 18 L136 34 L132 102 L134 114 L130 63 L112 22 L103 49 L108 118 L109 124 L94 90 L90 82 L104 103 L110 106 L100 39 L87 0 L80 44 L84 155 L95 182 L96 126 L82 74 L80 81 L84 132 L88 145 L90 122 L92 113 L107 144 L126 172 L131 150 L128 95 L123 95 L120 171 L132 218 L135 194 L136 145 L137 150 L149 206 L157 223 L169 166 L178 125 L183 150 L204 208 L209 204 L206 159 L207 164 L237 228 L257 247 L256 193 L255 154 L256 154 L260 161 L264 134 L267 108 L267 109 L260 126 L254 118 L203 47 L114 7 L22 48 L0 142 L61 247 L135 246 L160 164 L116 83 L69 82 L59 158 L105 256 L126 253 L104 170 L40 122 L37 177 L142 288 L228 288 L182 178 L63 102 L35 150 L126 281 L241 315 L217 234 L133 172 L139 198 L265 272 L294 258 L213 190 L159 172 L199 218 L349 281 L365 254 L286 182 L259 175 L321 218 L361 213 L299 154 L208 126 L229 166 " fill="none" stroke="black" /></svg>