<?xml version="1.0" encoding="utf-8" ?>
<svg baseProfile="tiny" height="341" version="1.2" viewBox="-3 -3 675 341" width="675" xmlns="http://www.w3.org/2000/svg" xmlns:ev="http://www.w3.org/2001/xml-events" xmlns:xlink="http://www.w3.org/1999/xlink"><defs /><path d="M0 1 L15 0 L41 0 L89 7 L152 16 L257 31 L333 36 L418 39 L484 40 L528 41 L565 42 L583 43 L587 45 L588 47 L584 53 L574 59 L548 67 L496 74 L437 75 L376 75 L317 74 L268 74 L237 76 L211 82 L185 87 L150 91 L116 94 L97 95 L83 97 L79 98 L83 98 L113 99 L173 106 L243 113 L318 119 L399 121 L468 122 L522 125 L564 127 L597 128 L618 129 L624 129 L625 130 L621 133 L607 139 L573 143 L525 147 L465 151 L405 155 L357 157 L315 159 L282 162 L248 167 L211 169 L170 172 L119 175 L87 178 L74 181 L70 183 L70 184 L75 186 L99 190 L157 195 L252 202 L351 210 L440 214 L509 214 L573 215 L620 215 L657 215 L674 215 L675 215 L669 221 L651 231 L617 243 L573 254 L526 261 L470 266 L416 268 L363 269 L303 271 L250 274 L198 278 L156 282 L126 287 L105 295 L95 301 L93 303 L95 304 L116 304 L172 304 L245 309 L317 317 L381 325 L432 331 L472 334 L508 336 L542 339 L577 340 L601 341 L612 341 L614 341 " fill="none" stroke="black" /></svg>