<?xml version="1.0" encoding="utf-8" ?>
<svg baseProfile="tiny" height="133" version="1.2" viewBox="-3 -3 452 133" width="452" xmlns="http://www.w3.org/2000/svg" xmlns:ev="http://www.w3.org/2001/xml-events" xmlns:xlink="http://www.w3.org/1999/xlink"><defs /><path d="M0 92 L6 71 L13 38 L17 17 L17 16 L13 36 L10 70 L10 77 L18 62 L31 29 L35 22 L35 25 L31 61 L31 80 L36 69 L46 32 L55 9 L55 22 L50 56 L49 64 L54 50 L71 7 L76 0 L76 21 L77 62 L79 74 L90 48 L103 22 L103 44 L103 70 L103 77 L115 43 L124 23 L120 43 L118 90 L118 98 L129 66 L139 36 L140 34 L140 58 L141 75 L151 61 L167 29 L168 30 L160 74 L159 109 L163 102 L184 58 L192 44 L189 59 L186 96 L186 102 L212 68 L239 30 L239 34 L231 75 L231 97 L238 83 L254 49 L255 46 L248 78 L247 100 L255 86 L278 46 L280 42 L280 66 L287 87 L296 81 L311 59 L310 66 L306 118 L306 133 L326 98 L363 33 L367 24 L363 54 L363 94 L367 96 L394 51 L407 29 L403 43 L399 86 L399 94 L416 71 L435 56 L444 70 L452 96 " fill="none" stroke="black" /></svg>