<?xml version="1.0" encoding="utf-8" ?>
<svg baseProfile="tiny" height="7" version="1.2" viewBox="-3 -3 1241 7" width="1241" xmlns="http://www.w3.org/2000/svg" xmlns:ev="http://www.w3.org/2001/xml-events" xmlns:xlink="http://www.w3.org/1999/xlink"><defs /><path d="M0 4 L4 4 L10 4 L25 4 L39 4 L49 4 L59 4 L73 4 L83 4 L97 4 L107 4 L113 4 L120 3 L128 3 L135 3 L142 2 L151 1 L161 1 L168 1 L181 0 L190 0 L201 0 L211 0 L225 0 L236 0 L243 0 L252 0 L262 0 L277 0 L287 0 L300 0 L316 0 L331 0 L347 0 L364 1 L379 2 L393 2 L409 2 L422 2 L435 2 L445 2 L455 2 L466 2 L478 2 L490 2 L506 2 L525 3 L546 3 L565 3 L584 3 L600 3 L617 4 L633 4 L647 4 L661 4 L679 4 L693 4 L709 4 L723 4 L736 4 L752 5 L774 7 L798 7 L821 7 L837 7 L848 7 L856 7 L866 6 L882 5 L899 5 L915 5 L932 5 L949 5 L965 4 L979 4 L993 4 L1004 4 L1012 4 L1020 4 L1028 4 L1039 4 L1048 4 L1056 3 L1065 3 L1074 3 L1083 2 L1093 2 L1103 2 L1113 2 L1128 2 L1142 2 L1157 2 L1173 1 L1181 1 L1186 1 L1194 0 L1205 0 L1217 0 L1231 0 L1241 0 " fill="none" stroke="black" /></svg>