<?xml version="1.0" encoding="utf-8" ?>
<svg baseProfile="tiny" height="151" version="1.2" viewBox="-3 -3 274 151" width="274" xmlns="http://www.w3.org/2000/svg" xmlns:ev="http://www.w3.org/2001/xml-events" xmlns:xlink="http://www.w3.org/1999/xlink"><defs /><path d="M80 76 L102 107 L132 106 L177 65 L174 25 L118 3 L65 19 L49 59 L65 94 L107 100 L162 76 L176 40 L139 3 L73 3 L42 29 L48 81 L73 99 L117 88 L155 45 L153 13 L116 0 L78 22 L66 70 L81 109 L117 117 L150 99 L168 69 L150 44 L83 41 L53 67 L55 100 L101 140 L169 144 L217 120 L223 89 L136 46 L62 52 L48 75 L62 118 L131 135 L202 106 L217 71 L196 44 L147 53 L123 87 L136 128 L185 151 L244 138 L274 99 L241 59 L144 44 L109 61 L112 100 L152 126 L217 125 L258 88 L247 44 L177 9 L115 22 L110 57 L132 91 L188 99 L230 79 L239 51 L216 35 L80 38 L56 53 L50 100 L78 118 L146 106 L195 68 L192 28 L109 1 L16 23 L0 65 L23 99 L81 103 L138 76 L152 44 L132 28 L119 34 L117 69 L131 97 L152 101 L184 84 L192 51 L169 28 L108 37 L73 73 L83 111 L108 122 L137 112 L154 82 L133 51 L95 49 L86 69 L101 105 L126 116 L162 106 L183 81 L169 45 L131 39 L90 60 L89 86 L110 106 L137 108 L158 90 L158 60 L134 48 L113 62 L111 95 L135 133 L149 133 L195 106 L200 78 L150 47 L93 52 L69 81 L79 117 L103 125 L128 119 L151 89 L139 66 L117 65 L114 82 L127 100 L147 103 L162 91 L160 71 L138 63 L127 72 L132 101 L155 116 L192 107 L209 91 L207 73 L184 66 L165 75 L169 102 L185 112 L199 108 L206 94 L191 77 L156 71 L151 83 L157 101 L166 105 L169 103 L166 96 " fill="none" stroke="black" /></svg>