<?xml version="1.0" encoding="utf-8" ?>
<svg baseProfile="tiny" height="377" version="1.2" viewBox="-3 -3 530 377" width="530" xmlns="http://www.w3.org/2000/svg" xmlns:ev="http://www.w3.org/2001/xml-events" xmlns:xlink="http://www.w3.org/1999/xlink"><defs /><path d="M182 342 L222 352 L242 356 L251 356 L259 356 L267 356 L276 356 L288 355 L299 353 L322 352 L350 350 L381 344 L415 337 L446 327 L463 322 L484 315 L496 306 L504 297 L511 289 L520 276 L526 264 L529 255 L530 245 L530 237 L530 230 L528 221 L525 213 L523 204 L515 191 L504 174 L492 160 L476 139 L451 117 L432 106 L410 94 L389 84 L376 78 L363 74 L347 69 L337 67 L321 64 L288 59 L259 55 L236 54 L211 51 L194 50 L174 51 L153 52 L132 55 L120 57 L109 59 L98 61 L84 66 L74 71 L66 76 L58 81 L50 87 L47 90 L44 92 L41 95 L37 98 L33 104 L26 113 L20 122 L11 143 L9 152 L9 160 L8 166 L8 172 L8 181 L9 191 L9 202 L10 213 L11 224 L15 242 L21 265 L31 288 L46 312 L67 335 L77 345 L94 358 L115 368 L143 372 L172 377 L218 375 L255 373 L316 372 L368 366 L413 361 L445 351 L470 339 L487 330 L495 325 L502 318 L508 313 L512 306 L514 301 L517 295 L519 289 L520 283 L522 270 L521 257 L519 240 L515 218 L511 194 L504 171 L495 149 L477 118 L455 95 L432 72 L394 42 L370 22 L348 11 L321 4 L304 1 L287 0 L268 0 L244 2 L222 4 L197 6 L174 8 L156 9 L139 11 L127 14 L111 16 L93 21 L84 25 L76 29 L58 38 L44 45 L32 53 L21 65 L14 73 L10 81 L7 87 L4 93 L2 99 L1 107 L0 119 L0 129 L0 138 L2 151 L3 162 L4 173 L7 189 L12 202 L14 207 L16 209 L21 214 " fill="none" stroke="black" /></svg>