<?xml version="1.0" encoding="utf-8" ?>
<svg baseProfile="tiny" height="229" version="1.2" viewBox="-3 -3 801 229" width="801" xmlns="http://www.w3.org/2000/svg" xmlns:ev="http://www.w3.org/2001/xml-events" xmlns:xlink="http://www.w3.org/1999/xlink"><defs /><path d="M359 107 L360 98 L360 91 L360 82 L358 77 L357 70 L355 64 L353 60 L350 57 L341 51 L333 43 L329 41 L325 38 L322 35 L316 29 L303 20 L296 17 L291 15 L281 12 L271 11 L263 9 L253 8 L231 4 L218 3 L213 3 L205 3 L193 3 L179 2 L168 2 L159 2 L148 2 L134 1 L123 1 L113 0 L105 1 L99 1 L93 1 L89 1 L83 2 L76 4 L71 7 L63 13 L57 16 L50 21 L45 23 L41 27 L34 34 L25 45 L18 55 L11 63 L5 70 L3 73 L2 78 L0 84 L0 92 L0 96 L1 101 L2 106 L3 111 L6 116 L8 122 L9 124 L12 128 L13 132 L16 135 L19 137 L23 141 L27 145 L31 149 L36 154 L41 158 L44 161 L46 163 L47 164 L48 165 L51 168 L52 168 L55 171 L59 173 L68 177 L79 180 L88 184 L99 189 L107 192 L120 194 L131 196 L144 197 L157 202 L168 204 L182 208 L220 214 L248 219 L272 223 L296 226 L311 227 L331 227 L357 227 L394 227 L424 229 L456 226 L476 222 L499 216 L520 210 L537 199 L548 191 L552 183 L555 175 L557 169 L559 164 L559 160 L559 159 L558 159 L549 162 L539 167 L531 175 L527 181 L524 193 L525 201 L531 205 L544 206 L568 199 L591 185 L595 178 L588 171 L581 170 L575 174 L574 178 L579 185 L596 190 L635 190 L654 186 L657 179 L657 177 L655 177 L646 185 L644 195 L649 198 L665 199 L699 191 L709 186 L708 185 L706 185 L700 192 L700 199 L705 200 L733 195 L773 172 L793 159 L798 156 L801 154 " fill="none" stroke="black" /></svg>