<?xml version="1.0" encoding="utf-8" ?>
<svg baseProfile="tiny" height="412" version="1.2" viewBox="-3 -3 1643 412" width="1643" xmlns="http://www.w3.org/2000/svg" xmlns:ev="http://www.w3.org/2001/xml-events" xmlns:xlink="http://www.w3.org/1999/xlink"><defs /><path d="M0 354 L0 353 L2 350 L7 345 L16 334 L37 314 L58 293 L78 266 L98 239 L110 217 L131 187 L149 173 L167 164 L192 143 L218 115 L238 92 L257 70 L272 53 L280 47 L281 46 L281 49 L280 61 L280 72 L279 105 L278 142 L279 180 L278 200 L279 235 L281 249 L283 264 L286 273 L289 280 L292 282 L299 281 L314 274 L343 260 L379 238 L407 214 L457 177 L511 137 L561 100 L602 68 L626 46 L646 27 L663 9 L669 3 L673 1 L674 0 L673 0 L669 9 L660 26 L651 45 L643 73 L629 116 L620 165 L614 208 L612 246 L611 283 L611 302 L611 307 L612 307 L618 303 L634 290 L654 277 L683 256 L720 228 L755 203 L795 173 L829 147 L861 123 L893 95 L909 82 L925 72 L938 62 L953 53 L956 51 L957 50 L958 50 L958 52 L957 61 L950 87 L938 134 L925 200 L919 252 L917 290 L915 315 L915 325 L918 323 L931 311 L949 296 L971 277 L993 256 L1022 232 L1047 214 L1066 192 L1104 161 L1120 146 L1147 120 L1168 102 L1182 88 L1191 78 L1197 71 L1198 70 L1197 74 L1196 86 L1192 110 L1185 160 L1183 227 L1184 299 L1184 357 L1185 387 L1187 406 L1187 412 L1195 405 L1216 384 L1254 347 L1306 288 L1341 248 L1374 208 L1411 169 L1432 146 L1442 137 L1448 132 L1455 127 L1457 125 L1460 123 L1463 120 L1466 119 L1467 128 L1467 147 L1466 183 L1467 231 L1469 283 L1477 319 L1482 331 L1485 333 L1496 325 L1515 307 L1540 282 L1569 250 L1601 218 L1625 193 L1638 175 L1642 171 L1643 170 " fill="none" stroke="black" /></svg>