<?xml version="1.0" encoding="utf-8" ?>
<svg baseProfile="tiny" height="169" version="1.2" viewBox="-3 -3 1140 169" width="1140" xmlns="http://www.w3.org/2000/svg" xmlns:ev="http://www.w3.org/2001/xml-events" xmlns:xlink="http://www.w3.org/1999/xlink"><defs /><path d="M0 112 L12 99 L20 92 L25 90 L26 90 L28 98 L31 110 L38 130 L46 141 L53 148 L58 152 L62 152 L74 146 L96 130 L115 113 L127 103 L136 97 L137 97 L138 97 L140 103 L142 114 L146 131 L154 149 L163 159 L173 162 L187 159 L203 148 L221 128 L236 111 L253 95 L263 87 L271 83 L275 84 L276 91 L277 116 L282 134 L288 149 L291 155 L297 156 L302 152 L312 142 L326 128 L341 106 L363 81 L380 63 L400 40 L419 29 L438 21 L450 14 L451 15 L453 28 L455 56 L460 95 L470 139 L480 166 L481 169 L485 164 L496 144 L509 121 L523 96 L541 71 L551 61 L558 55 L560 56 L561 61 L564 71 L565 82 L570 101 L579 125 L587 140 L593 147 L597 145 L611 134 L624 116 L637 95 L660 71 L680 57 L691 50 L691 56 L692 67 L692 86 L693 110 L698 132 L705 144 L709 148 L713 146 L721 137 L732 118 L748 91 L771 63 L789 40 L797 30 L801 29 L802 35 L807 55 L820 84 L829 110 L837 128 L843 141 L844 141 L846 137 L851 126 L863 97 L871 71 L878 49 L887 29 L891 23 L892 23 L893 24 L895 37 L899 61 L904 93 L913 114 L916 123 L921 115 L928 105 L951 79 L963 56 L976 39 L982 32 L983 34 L984 45 L988 69 L993 94 L999 116 L1006 137 L1008 143 L1010 143 L1013 138 L1026 119 L1044 92 L1063 60 L1086 28 L1100 5 L1103 0 L1104 0 L1104 7 L1105 34 L1112 74 L1117 109 L1122 131 L1125 140 L1125 139 L1131 135 L1136 131 L1137 131 L1138 131 L1139 131 L1140 131 " fill="none" stroke="black" /></svg>