<?xml version="1.0" encoding="utf-8" ?>
<svg baseProfile="tiny" height="223" version="1.2" viewBox="-3 -3 302 223" width="302" xmlns="http://www.w3.org/2000/svg" xmlns:ev="http://www.w3.org/2001/xml-events" xmlns:xlink="http://www.w3.org/1999/xlink"><defs /><path d="M245 72 L244 85 L245 88 L266 87 L295 87 L302 87 L288 87 L252 93 L245 95 L246 96 L255 98 L272 99 L270 102 L259 108 L244 114 L240 118 L245 120 L257 121 L258 124 L243 131 L209 142 L185 155 L185 156 L191 147 L197 140 L197 141 L196 150 L190 176 L188 199 L188 201 L191 193 L192 181 L185 178 L159 189 L129 210 L124 213 L123 206 L118 177 L93 136 L77 125 L77 127 L86 145 L96 150 L79 138 L23 120 L0 113 L1 113 L21 116 L66 122 L113 123 L112 116 L92 98 L46 71 L29 64 L32 64 L54 64 L95 64 L104 65 L101 64 L74 59 L32 49 L30 48 L39 47 L63 47 L89 45 L93 44 L92 42 L83 38 L77 36 L79 36 L95 35 L141 36 L161 36 L161 35 L159 35 L157 38 L160 45 L164 46 L163 45 L153 36 L146 29 L146 27 L149 26 L154 26 L161 28 L165 34 L171 37 L181 29 L197 7 L201 0 L200 9 L199 30 L201 35 L214 32 L245 17 L255 13 L253 24 L250 44 L252 56 L260 54 L274 44 L281 39 L279 54 L279 82 L285 109 L288 112 L291 104 L292 92 L287 94 L278 109 L278 134 L283 151 L284 153 L274 148 L232 144 L199 140 L201 151 L226 176 L242 193 L263 213 L262 213 L229 199 L181 185 L179 188 L200 204 L224 217 L234 223 L231 222 L187 207 L126 191 L120 191 L127 189 L133 181 L127 171 L102 155 L91 151 L116 152 L129 151 L125 146 L92 132 L70 123 L69 122 L71 121 L75 116 L76 111 L69 106 L53 99 L55 96 L62 92 L73 82 " fill="none" stroke="black" /></svg>