<?xml version="1.0" encoding="utf-8" ?>
<svg baseProfile="tiny" height="285" version="1.2" viewBox="-3 -3 360 285" width="360" xmlns="http://www.w3.org/2000/svg" xmlns:ev="http://www.w3.org/2001/xml-events" xmlns:xlink="http://www.w3.org/1999/xlink"><defs /><path d="M162 90 L141 95 L95 169 L86 229 L102 215 L131 107 L129 34 L129 39 L135 105 L159 177 L181 176 L197 88 L189 56 L185 77 L197 156 L201 166 L207 134 L209 112 L208 116 L204 155 L206 177 L213 164 L227 115 L227 109 L227 135 L231 153 L235 151 L246 124 L248 112 L248 113 " fill="none" stroke="black" /><path d="M162 90 L141 95 L95 169 L86 229 L102 215 L131 107 L129 34 L129 39 L135 105 L159 177 L181 176 L197 88 L189 56 L185 77 L197 156 L201 166 L207 134 L209 112 L208 116 L204 155 L206 177 L213 164 L227 115 L227 109 L227 135 L231 153 L235 151 L246 124 L248 112 L248 113 M25 85 L29 87 L45 92 L53 94 L67 97 L74 99 L74 100 L63 100 L27 102 L6 107 L0 117 L14 126 L35 134 L38 135 L37 135 L30 137 L27 139 L32 140 L57 144 L58 146 L47 148 L37 151 L34 157 L48 163 L58 165 L58 167 L55 173 L45 193 L40 225 L55 231 L76 224 L90 218 L91 222 L96 235 L107 245 L122 245 L159 235 L165 233 L165 244 L168 261 L173 263 L187 263 L195 263 L197 267 L209 275 L229 271 L250 260 L256 256 L259 274 L264 285 L280 279 L314 233 L318 204 L318 203 L318 215 L319 223 L332 209 L352 171 L356 153 L357 161 L357 163 L360 147 L359 113 L339 84 L323 79 L322 80 L325 69 L327 64 L323 66 L314 71 L311 74 L314 65 L314 41 L306 25 L293 30 L277 44 L269 49 L269 46 L268 23 L262 15 L248 18 L237 26 L236 26 L237 19 L235 7 L231 4 L218 16 L204 36 L203 37 L201 28 L189 4 L164 0 L147 12 L141 23 L140 22 L139 15 L139 9 L132 13 L116 34 L107 49 L106 50 L103 46 L76 28 L54 22 L51 32 L53 56 L55 65 L44 63 L25 64 L24 64 L26 64 L26 65 L29 71 L35 78 L36 78 L42 82 L47 85 L49 87 L50 87 " fill="none" stroke="black" /></svg>