<?xml version="1.0" encoding="utf-8" ?>
<svg baseProfile="tiny" height="589" version="1.2" viewBox="-3 -3 1060 589" width="1060" xmlns="http://www.w3.org/2000/svg" xmlns:ev="http://www.w3.org/2001/xml-events" xmlns:xlink="http://www.w3.org/1999/xlink"><defs /><path d="M0 589 L14 586 L28 582 L40 580 L55 577 L71 575 L88 572 L106 567 L120 562 L135 557 L155 552 L171 546 L192 536 L217 527 L238 516 L261 504 L284 492 L308 483 L327 473 L348 461 L366 448 L381 436 L395 426 L404 418 L413 412 L421 406 L429 400 L440 393 L450 388 L456 384 L468 376 L472 373 L477 369 L481 366 L488 362 L496 357 L504 352 L511 346 L517 341 L523 337 L530 332 L537 327 L543 322 L551 317 L564 310 L579 301 L590 295 L599 288 L611 280 L619 274 L629 268 L637 261 L647 255 L656 249 L665 242 L673 236 L679 232 L685 227 L692 223 L699 218 L704 213 L711 206 L719 200 L726 195 L732 189 L739 184 L746 177 L752 172 L757 168 L761 164 L766 160 L770 156 L776 151 L782 146 L791 139 L797 133 L802 128 L808 123 L813 119 L817 115 L822 110 L826 106 L831 101 L836 97 L840 93 L844 90 L849 86 L855 82 L859 79 L862 77 L868 73 L873 70 L878 66 L884 63 L889 59 L895 56 L901 52 L907 49 L912 46 L918 43 L921 41 L925 39 L927 38 L930 36 L932 35 L935 33 L937 32 L941 30 L944 28 L946 27 L949 26 L952 25 L954 24 L957 23 L961 21 L965 19 L969 17 L973 15 L976 14 L978 13 L980 12 L981 12 L983 12 L984 11 L985 11 L987 11 L991 10 L998 9 L1000 9 L1003 8 L1007 8 L1011 8 L1015 7 L1019 7 L1021 6 L1024 6 L1028 5 L1031 4 L1034 3 L1039 3 L1041 3 L1045 2 L1048 2 L1049 2 L1050 2 L1051 2 L1053 1 L1057 1 L1059 0 L1060 0 " fill="none" stroke="black" /></svg>