<?xml version="1.0" encoding="utf-8" ?>
<svg baseProfile="tiny" height="194" version="1.2" viewBox="-3 -3 617 194" width="617" xmlns="http://www.w3.org/2000/svg" xmlns:ev="http://www.w3.org/2001/xml-events" xmlns:xlink="http://www.w3.org/1999/xlink"><defs /><path d="M0 194 L1 192 L3 188 L4 186 L5 183 L7 180 L9 177 L13 173 L16 168 L20 164 L23 161 L28 157 L32 153 L36 149 L39 147 L41 145 L44 144 L46 143 L48 142 L50 142 L51 141 L53 141 L54 141 L56 141 L58 142 L61 144 L62 146 L64 147 L67 150 L68 151 L69 153 L70 154 L72 157 L73 159 L74 160 L76 163 L77 164 L78 167 L80 169 L81 171 L82 172 L83 173 L84 173 L85 174 L87 175 L88 175 L90 176 L93 175 L95 175 L99 174 L101 173 L104 171 L108 168 L112 162 L117 157 L122 149 L127 142 L135 135 L141 128 L149 121 L156 116 L164 111 L171 108 L179 107 L183 107 L186 106 L188 107 L191 108 L194 109 L197 111 L200 114 L204 116 L208 118 L212 121 L216 123 L219 125 L223 128 L226 130 L232 134 L235 135 L237 136 L240 137 L243 137 L244 138 L248 138 L251 138 L254 138 L256 138 L258 137 L260 136 L264 134 L268 131 L270 129 L272 127 L274 125 L277 121 L280 118 L284 114 L287 110 L288 108 L290 103 L293 96 L297 89 L301 83 L308 76 L318 68 L334 57 L347 50 L356 46 L364 45 L374 44 L380 46 L385 48 L391 54 L398 62 L404 70 L410 75 L419 80 L428 81 L439 82 L452 82 L469 82 L484 77 L496 71 L508 63 L522 56 L532 50 L547 42 L559 36 L568 30 L577 24 L583 19 L588 17 L591 15 L594 13 L596 11 L598 9 L600 8 L600 7 L601 6 L602 6 L603 5 L604 5 L607 4 L610 2 L611 2 L613 1 L615 1 L616 0 L617 0 " fill="none" stroke="black" /></svg>