<?xml version="1.0" encoding="utf-8" ?>
<svg baseProfile="tiny" height="422" version="1.2" viewBox="-3 -3 475 422" width="475" xmlns="http://www.w3.org/2000/svg" xmlns:ev="http://www.w3.org/2001/xml-events" xmlns:xlink="http://www.w3.org/1999/xlink"><defs /><path d="M164 200 L162 223 L175 238 L197 234 L222 208 L216 179 L184 158 L158 158 L140 176 L128 222 L132 265 L151 296 L190 311 L241 311 L294 297 L331 272 L347 244 L356 216 L355 173 L341 136 L323 116 L275 88 L235 83 L204 84 L182 90 L168 99 L154 111 L129 129 L110 152 L99 176 L92 199 L91 222 L92 248 L98 274 L118 306 L150 337 L168 347 L183 349 L225 346 L270 333 L300 324 L323 311 L335 302 L339 297 L341 294 L342 290 " fill="none" stroke="black" /><path d="M164 200 L162 223 L175 238 L197 234 L222 208 L216 179 L184 158 L158 158 L140 176 L128 222 L132 265 L151 296 L190 311 L241 311 L294 297 L331 272 L347 244 L356 216 L355 173 L341 136 L323 116 L275 88 L235 83 L204 84 L182 90 L168 99 L154 111 L129 129 L110 152 L99 176 L92 199 L91 222 L92 248 L98 274 L118 306 L150 337 L168 347 L183 349 L225 346 L270 333 L300 324 L323 311 L335 302 L339 297 L341 294 L342 290 M21 194 L15 193 L7 195 L1 201 L0 213 L8 224 L31 224 L59 204 L62 184 L48 175 L35 179 L17 195 L11 214 L12 218 L26 211 L41 199 L40 193 L31 192 L22 195 L10 214 " fill="none" stroke="black" /><path d="M164 200 L162 223 L175 238 L197 234 L222 208 L216 179 L184 158 L158 158 L140 176 L128 222 L132 265 L151 296 L190 311 L241 311 L294 297 L331 272 L347 244 L356 216 L355 173 L341 136 L323 116 L275 88 L235 83 L204 84 L182 90 L168 99 L154 111 L129 129 L110 152 L99 176 L92 199 L91 222 L92 248 L98 274 L118 306 L150 337 L168 347 L183 349 L225 346 L270 333 L300 324 L323 311 L335 302 L339 297 L341 294 L342 290 M21 194 L15 193 L7 195 L1 201 L0 213 L8 224 L31 224 L59 204 L62 184 L48 175 L35 179 L17 195 L11 214 L12 218 L26 211 L41 199 L40 193 L31 192 L22 195 L10 214 M70 345 L59 358 L59 374 L72 390 L95 392 L112 375 L112 354 L99 348 L80 354 L67 378 L68 384 L79 379 L89 364 L85 354 L79 354 L74 364 L74 374 " fill="none" stroke="black" /><path d="M164 200 L162 223 L175 238 L197 234 L222 208 L216 179 L184 158 L158 158 L140 176 L128 222 L132 265 L151 296 L190 311 L241 311 L294 297 L331 272 L347 244 L356 216 L355 173 L341 136 L323 116 L275 88 L235 83 L204 84 L182 90 L168 99 L154 111 L129 129 L110 152 L99 176 L92 199 L91 222 L92 248 L98 274 L118 306 L150 337 L168 347 L183 349 L225 346 L270 333 L300 324 L323 311 L335 302 L339 297 L341 294 L342 290 M21 194 L15 193 L7 195 L1 201 L0 213 L8 224 L31 224 L59 204 L62 184 L48 175 L35 179 L17 195 L11 214 L12 218 L26 211 L41 199 L40 193 L31 192 L22 195 L10 214 M70 345 L59 358 L59 374 L72 390 L95 392 L112 375 L112 354 L99 348 L80 354 L67 378 L68 384 L79 379 L89 364 L85 354 L79 354 L74 364 L74 374 M286 388 L283 400 L285 415 L293 422 L307 417 L323 395 L320 379 L309 376 L296 387 L289 408 L292 420 L298 421 L304 411 L303 395 L300 393 L306 393 " fill="none" stroke="black" /><path d="M164 200 L162 223 L175 238 L197 234 L222 208 L216 179 L184 158 L158 158 L140 176 L128 222 L132 265 L151 296 L190 311 L241 311 L294 297 L331 272 L347 244 L356 216 L355 173 L341 136 L323 116 L275 88 L235 83 L204 84 L182 90 L168 99 L154 111 L129 129 L110 152 L99 176 L92 199 L91 222 L92 248 L98 274 L118 306 L150 337 L168 347 L183 349 L225 346 L270 333 L300 324 L323 311 L335 302 L339 297 L341 294 L342 290 M21 194 L15 193 L7 195 L1 201 L0 213 L8 224 L31 224 L59 204 L62 184 L48 175 L35 179 L17 195 L11 214 L12 218 L26 211 L41 199 L40 193 L31 192 L22 195 L10 214 M70 345 L59 358 L59 374 L72 390 L95 392 L112 375 L112 354 L99 348 L80 354 L67 378 L68 384 L79 379 L89 364 L85 354 L79 354 L74 364 L74 374 M286 388 L283 400 L285 415 L293 422 L307 417 L323 395 L320 379 L309 376 L296 387 L289 408 L292 420 L298 421 L304 411 L303 395 L300 393 L306 393 M452 293 L450 295 L450 302 L455 305 L461 304 L475 285 L471 261 L438 247 L411 252 L404 277 L412 299 L429 302 L444 280 L438 255 L423 247 L420 249 L420 253 L423 253 " fill="none" stroke="black" /><path d="M164 200 L162 223 L175 238 L197 234 L222 208 L216 179 L184 158 L158 158 L140 176 L128 222 L132 265 L151 296 L190 311 L241 311 L294 297 L331 272 L347 244 L356 216 L355 173 L341 136 L323 116 L275 88 L235 83 L204 84 L182 90 L168 99 L154 111 L129 129 L110 152 L99 176 L92 199 L91 222 L92 248 L98 274 L118 306 L150 337 L168 347 L183 349 L225 346 L270 333 L300 324 L323 311 L335 302 L339 297 L341 294 L342 290 M21 194 L15 193 L7 195 L1 201 L0 213 L8 224 L31 224 L59 204 L62 184 L48 175 L35 179 L17 195 L11 214 L12 218 L26 211 L41 199 L40 193 L31 192 L22 195 L10 214 M70 345 L59 358 L59 374 L72 390 L95 392 L112 375 L112 354 L99 348 L80 354 L67 378 L68 384 L79 379 L89 364 L85 354 L79 354 L74 364 L74 374 M286 388 L283 400 L285 415 L293 422 L307 417 L323 395 L320 379 L309 376 L296 387 L289 408 L292 420 L298 421 L304 411 L303 395 L300 393 L306 393 M452 293 L450 295 L450 302 L455 305 L461 304 L475 285 L471 261 L438 247 L411 252 L404 277 L412 299 L429 302 L444 280 L438 255 L423 247 L420 249 L420 253 L423 253 M394 85 L388 103 L395 120 L408 126 L427 112 L433 80 L418 63 L389 62 L386 71 L394 93 L413 103 L427 99 L428 85 L415 74 " fill="none" stroke="black" /><path d="M164 200 L162 223 L175 238 L197 234 L222 208 L216 179 L184 158 L158 158 L140 176 L128 222 L132 265 L151 296 L190 311 L241 311 L294 297 L331 272 L347 244 L356 216 L355 173 L341 136 L323 116 L275 88 L235 83 L204 84 L182 90 L168 99 L154 111 L129 129 L110 152 L99 176 L92 199 L91 222 L92 248 L98 274 L118 306 L150 337 L168 347 L183 349 L225 346 L270 333 L300 324 L323 311 L335 302 L339 297 L341 294 L342 290 M21 194 L15 193 L7 195 L1 201 L0 213 L8 224 L31 224 L59 204 L62 184 L48 175 L35 179 L17 195 L11 214 L12 218 L26 211 L41 199 L40 193 L31 192 L22 195 L10 214 M70 345 L59 358 L59 374 L72 390 L95 392 L112 375 L112 354 L99 348 L80 354 L67 378 L68 384 L79 379 L89 364 L85 354 L79 354 L74 364 L74 374 M286 388 L283 400 L285 415 L293 422 L307 417 L323 395 L320 379 L309 376 L296 387 L289 408 L292 420 L298 421 L304 411 L303 395 L300 393 L306 393 M452 293 L450 295 L450 302 L455 305 L461 304 L475 285 L471 261 L438 247 L411 252 L404 277 L412 299 L429 302 L444 280 L438 255 L423 247 L420 249 L420 253 L423 253 M394 85 L388 103 L395 120 L408 126 L427 112 L433 80 L418 63 L389 62 L386 71 L394 93 L413 103 L427 99 L428 85 L415 74 M229 16 L228 20 L231 24 L233 25 L244 23 L254 10 L248 0 L227 0 L203 16 L206 36 L217 43 L226 37 L222 17 L206 3 L200 3 L196 10 L196 15 L199 17 " fill="none" stroke="black" /></svg>