<?xml version="1.0" encoding="utf-8" ?>
<svg baseProfile="tiny" height="58" version="1.2" viewBox="-3 -3 996 58" width="996" xmlns="http://www.w3.org/2000/svg" xmlns:ev="http://www.w3.org/2001/xml-events" xmlns:xlink="http://www.w3.org/1999/xlink"><defs /><path d="M0 53 L4 53 L9 53 L12 54 L18 54 L24 54 L30 54 L35 54 L42 54 L47 54 L53 54 L61 54 L69 55 L75 55 L80 55 L94 54 L98 54 L105 54 L111 54 L118 54 L122 53 L128 53 L133 52 L138 51 L142 50 L146 49 L149 48 L152 47 L155 47 L158 46 L162 46 L166 45 L169 45 L172 45 L175 45 L179 45 L181 45 L186 45 L190 45 L194 45 L197 45 L201 46 L204 46 L210 48 L215 49 L220 51 L225 53 L230 53 L236 54 L240 55 L246 56 L249 56 L257 56 L266 57 L274 58 L283 57 L293 55 L301 53 L310 50 L317 47 L324 43 L329 41 L335 40 L345 38 L352 37 L362 37 L369 37 L376 37 L381 37 L384 39 L388 41 L392 43 L398 46 L402 48 L407 49 L411 50 L419 52 L425 53 L431 53 L436 52 L441 52 L446 50 L450 48 L455 46 L463 43 L469 42 L475 39 L483 37 L492 36 L501 35 L509 34 L516 35 L523 36 L528 37 L533 40 L539 43 L545 45 L552 47 L562 49 L574 51 L583 53 L594 52 L601 52 L607 50 L612 49 L617 44 L623 35 L629 32 L632 31 L636 30 L639 29 L646 28 L658 28 L669 28 L678 28 L689 28 L697 29 L704 30 L710 31 L718 32 L729 33 L734 33 L747 34 L757 34 L775 34 L795 34 L810 34 L821 32 L830 29 L836 27 L843 24 L850 21 L858 17 L869 15 L886 10 L905 7 L920 4 L933 1 L939 1 L944 0 L953 1 L964 2 L974 2 L979 3 L985 2 L988 2 L993 2 L994 3 L995 3 L996 2 " fill="none" stroke="black" /></svg>