<?xml version="1.0" encoding="utf-8" ?>
<svg baseProfile="tiny" height="239" version="1.2" viewBox="-3 -3 1194 239" width="1194" xmlns="http://www.w3.org/2000/svg" xmlns:ev="http://www.w3.org/2001/xml-events" xmlns:xlink="http://www.w3.org/1999/xlink"><defs /><path d="M0 64 L27 73 L59 84 L95 89 L113 90 L127 90 L139 87 L152 85 L170 80 L182 75 L194 70 L211 61 L227 54 L241 45 L251 37 L260 29 L265 22 L268 17 L270 12 L271 8 L271 5 L270 3 L270 1 L269 1 L268 0 L267 0 L265 1 L263 2 L260 3 L257 5 L254 9 L251 13 L249 19 L249 21 L248 28 L249 36 L251 45 L255 56 L263 70 L275 85 L290 98 L310 109 L334 118 L372 128 L407 129 L439 124 L469 113 L497 94 L511 79 L522 59 L530 44 L532 35 L533 25 L533 16 L531 11 L530 10 L528 10 L525 10 L519 10 L513 11 L510 11 L507 15 L506 17 L504 23 L501 29 L500 35 L500 39 L500 46 L500 54 L500 62 L500 69 L500 76 L502 83 L504 91 L510 99 L520 108 L530 117 L538 122 L552 127 L568 128 L592 126 L621 122 L651 113 L685 96 L714 80 L741 60 L752 42 L753 30 L752 23 L751 21 L749 20 L746 20 L743 22 L739 24 L734 26 L730 30 L728 33 L725 38 L722 45 L721 51 L720 59 L720 68 L720 76 L721 82 L722 92 L724 100 L727 111 L730 118 L735 126 L745 134 L760 143 L781 149 L806 155 L834 156 L866 154 L908 146 L943 130 L968 112 L983 91 L988 74 L988 62 L985 53 L982 46 L979 42 L977 41 L974 40 L969 42 L962 43 L958 45 L954 48 L951 52 L949 57 L948 63 L948 71 L949 78 L949 85 L951 95 L954 110 L956 123 L966 145 L981 170 L1004 197 L1032 220 L1070 237 L1112 239 L1152 233 L1176 225 L1189 212 L1192 206 L1194 205 " fill="none" stroke="black" /></svg>