<?xml version="1.0" encoding="utf-8" ?>
<svg baseProfile="tiny" height="225" version="1.2" viewBox="-3 -3 1538 225" width="1538" xmlns="http://www.w3.org/2000/svg" xmlns:ev="http://www.w3.org/2001/xml-events" xmlns:xlink="http://www.w3.org/1999/xlink"><defs /><path d="M0 205 L3 212 L9 219 L20 224 L40 224 L60 225 L77 225 L101 221 L140 211 L181 195 L222 178 L254 157 L307 125 L354 99 L396 73 L434 55 L456 41 L476 28 L503 14 L525 5 L541 2 L553 2 L558 2 L561 5 L564 9 L568 14 L573 23 L577 32 L578 40 L578 48 L577 56 L576 62 L575 66 L572 72 L568 79 L564 85 L561 91 L557 99 L555 107 L554 115 L554 123 L554 133 L555 138 L556 143 L557 149 L559 154 L564 160 L571 166 L580 170 L588 172 L596 172 L605 171 L615 168 L629 162 L647 153 L673 139 L701 120 L731 106 L759 92 L790 67 L814 51 L845 37 L870 26 L887 20 L896 18 L901 16 L905 18 L905 19 L908 25 L909 29 L910 35 L910 38 L909 42 L908 47 L908 52 L906 59 L904 65 L902 70 L901 75 L899 82 L897 88 L896 95 L896 103 L896 109 L897 113 L898 117 L898 119 L899 123 L900 126 L900 129 L901 131 L902 134 L903 137 L904 140 L906 141 L908 142 L909 143 L911 143 L916 144 L921 145 L927 145 L935 145 L946 142 L957 136 L971 128 L998 109 L1028 85 L1068 52 L1109 26 L1149 8 L1182 1 L1208 0 L1215 1 L1215 7 L1212 15 L1204 29 L1189 48 L1174 67 L1161 87 L1149 112 L1140 133 L1137 149 L1136 160 L1137 163 L1137 165 L1138 166 L1146 168 L1164 169 L1187 169 L1215 168 L1237 165 L1252 159 L1264 147 L1275 134 L1291 120 L1326 97 L1352 84 L1402 65 L1476 40 L1495 34 L1503 33 L1507 33 L1514 32 L1525 32 L1533 32 L1535 32 L1536 32 L1537 32 L1538 32 L1537 32 " fill="none" stroke="black" /></svg>