<?xml version="1.0" encoding="utf-8" ?>
<svg baseProfile="tiny" height="580" version="1.2" viewBox="-3 -3 1203 580" width="1203" xmlns="http://www.w3.org/2000/svg" xmlns:ev="http://www.w3.org/2001/xml-events" xmlns:xlink="http://www.w3.org/1999/xlink"><defs /><path d="M0 0 L5 11 L7 16 L11 24 L13 28 L16 33 L21 39 L26 49 L31 56 L36 61 L42 67 L47 74 L55 82 L61 91 L67 99 L72 106 L78 113 L81 131 L90 154 L96 168 L103 177 L110 189 L117 201 L127 214 L134 227 L142 236 L147 245 L156 256 L167 267 L177 278 L187 288 L198 301 L206 309 L211 316 L215 322 L221 327 L228 333 L233 337 L240 344 L246 351 L251 354 L257 358 L260 360 L264 362 L278 367 L286 371 L294 375 L302 380 L309 383 L313 384 L318 385 L322 386 L328 387 L335 389 L343 391 L350 392 L354 393 L361 394 L367 394 L372 394 L377 394 L381 395 L386 395 L391 396 L399 396 L409 397 L423 397 L433 398 L441 399 L450 400 L460 401 L465 401 L470 401 L479 401 L492 401 L505 401 L513 400 L520 400 L528 399 L534 397 L541 397 L548 396 L554 394 L559 394 L563 392 L568 392 L571 391 L574 390 L579 389 L584 388 L591 388 L598 387 L605 387 L614 387 L626 388 L643 390 L665 395 L689 398 L708 402 L728 409 L745 416 L754 421 L763 428 L770 431 L773 435 L776 438 L781 441 L786 445 L793 449 L801 452 L804 454 L807 456 L811 458 L815 460 L821 463 L828 468 L836 473 L845 479 L856 485 L866 490 L878 495 L887 496 L893 497 L898 497 L902 497 L906 495 L909 494 L912 492 L915 491 L921 489 L926 488 L931 488 L946 488 L962 488 L973 488 L980 488 L993 490 L1009 495 L1032 504 L1052 514 L1071 522 L1094 534 L1110 543 L1136 555 L1168 572 L1179 576 L1195 580 L1200 580 L1203 580 " fill="none" stroke="black" /></svg>