<?xml version="1.0" encoding="utf-8" ?>
<svg baseProfile="tiny" height="176" version="1.2" viewBox="-3 -3 1511 176" width="1511" xmlns="http://www.w3.org/2000/svg" xmlns:ev="http://www.w3.org/2001/xml-events" xmlns:xlink="http://www.w3.org/1999/xlink"><defs /><path d="M0 137 L5 141 L24 144 L42 145 L62 145 L79 144 L92 140 L105 133 L124 108 L127 91 L127 79 L127 71 L126 67 L125 67 L117 70 L107 77 L100 85 L97 97 L96 105 L97 121 L105 135 L126 148 L164 157 L205 158 L237 152 L270 139 L292 121 L306 96 L311 75 L310 64 L307 63 L296 65 L279 69 L267 81 L262 99 L265 118 L294 144 L363 163 L438 156 L475 120 L482 75 L480 39 L476 27 L463 25 L435 41 L422 69 L424 113 L474 162 L546 176 L610 150 L636 101 L627 65 L618 51 L607 47 L590 57 L575 82 L575 109 L610 128 L680 124 L736 98 L768 57 L772 20 L759 5 L707 7 L683 32 L677 75 L696 112 L737 120 L793 103 L863 61 L892 18 L889 0 L871 4 L846 34 L844 73 L882 106 L949 112 L1032 89 L1079 49 L1077 36 L1057 36 L1024 60 L1019 88 L1029 103 L1075 111 L1123 84 L1135 49 L1131 42 L1122 46 L1111 59 L1109 80 L1114 87 L1147 81 L1177 52 L1185 27 L1179 21 L1169 27 L1161 47 L1162 66 L1171 74 L1202 70 L1241 44 L1245 33 L1232 32 L1213 49 L1212 78 L1226 94 L1268 88 L1299 65 L1300 51 L1270 49 L1259 62 L1262 79 L1290 90 L1334 86 L1348 77 L1346 75 L1339 81 L1336 96 L1340 104 L1357 108 L1370 106 L1372 105 L1371 106 L1369 110 L1368 119 L1378 129 L1392 133 L1410 130 L1416 121 L1413 117 L1402 123 L1400 143 L1406 159 L1418 163 L1441 156 L1445 149 L1445 148 L1438 152 L1433 161 L1437 165 L1456 166 L1511 155 L1511 140 L1511 136 L1511 135 " fill="none" stroke="black" /></svg>