<?xml version="1.0" encoding="utf-8" ?>
<svg baseProfile="tiny" height="351" version="1.2" viewBox="-3 -3 349 351" width="349" xmlns="http://www.w3.org/2000/svg" xmlns:ev="http://www.w3.org/2001/xml-events" xmlns:xlink="http://www.w3.org/1999/xlink"><defs /><path d="M291 39 L283 37 L276 35 L267 33 L250 29 L243 28 L237 27 L228 26 L221 25 L215 25 L210 25 L206 25 L204 24 L198 24 L194 23 L188 23 L179 23 L171 23 L165 23 L159 23 L154 22 L144 23 L134 23 L127 24 L120 26 L113 30 L108 33 L105 36 L99 40 L94 46 L90 52 L82 60 L74 70 L66 79 L57 88 L47 98 L36 112 L24 127 L17 142 L7 160 L1 175 L0 189 L0 199 L0 206 L0 213 L2 220 L5 228 L10 236 L16 243 L21 249 L30 257 L39 265 L49 274 L63 287 L74 295 L85 303 L90 305 L97 308 L107 311 L114 311 L126 313 L135 315 L143 316 L154 319 L162 319 L169 318 L176 319 L183 319 L195 319 L205 319 L219 318 L230 318 L238 317 L254 313 L268 308 L281 301 L296 291 L308 281 L315 273 L321 263 L327 254 L332 245 L339 234 L343 217 L346 202 L347 182 L349 162 L347 143 L345 122 L337 98 L322 71 L313 58 L300 38 L287 23 L277 11 L270 6 L263 2 L255 1 L248 1 L234 0 L214 0 L194 1 L175 1 L161 2 L148 3 L142 5 L135 8 L126 12 L119 16 L112 20 L107 23 L105 25 L91 34 L81 41 L69 51 L58 60 L50 70 L41 81 L36 91 L32 100 L27 116 L24 135 L23 159 L26 202 L31 232 L36 257 L45 280 L50 292 L57 304 L60 314 L66 324 L75 335 L92 346 L112 351 L147 343 L187 340 L207 336 L232 329 L249 322 L262 315 L277 306 L292 295 L308 285 L318 276 L324 268 L330 258 L332 250 L333 245 L334 239 " fill="none" stroke="black" /></svg>