<?xml version="1.0" encoding="utf-8" ?>
<svg baseProfile="tiny" height="123" version="1.2" viewBox="-3 -3 1278 123" width="1278" xmlns="http://www.w3.org/2000/svg" xmlns:ev="http://www.w3.org/2001/xml-events" xmlns:xlink="http://www.w3.org/1999/xlink"><defs /><path d="M0 13 L14 48 L84 66 L139 49 L141 40 L134 43 L128 82 L150 105 L189 97 L206 54 L172 33 L143 50 L145 91 L184 104 L220 83 L220 49 L197 43 L190 59 L207 85 L243 82 L259 52 L238 26 L222 31 L211 65 L242 99 L274 88 L290 40 L261 20 L248 27 L257 53 L303 65 L349 38 L345 12 L331 8 L327 27 L345 49 L373 45 L381 13 L367 0 L357 8 L358 35 L381 46 L410 33 L412 17 L399 15 L390 26 L401 48 L431 54 L455 46 L457 39 L449 41 L443 51 L469 74 L528 77 L564 67 L565 62 L556 66 L553 76 L556 80 L592 82 L608 68 L600 65 L579 74 L574 91 L587 97 L612 83 L613 67 L600 65 L592 78 L603 92 L657 84 L680 69 L668 65 L653 71 L654 88 L701 106 L740 98 L743 87 L730 81 L722 92 L731 111 L774 117 L798 108 L799 100 L784 100 L772 114 L775 123 L796 115 L802 90 L788 76 L772 78 L769 90 L785 98 L813 86 L819 69 L811 64 L798 69 L795 82 L814 93 L852 84 L867 70 L859 67 L852 74 L854 92 L885 95 L914 86 L913 76 L903 77 L897 88 L901 99 L925 97 L946 83 L946 79 L942 83 L947 97 L982 106 L1007 88 L991 77 L978 77 L975 89 L989 102 L1009 94 L1013 77 L1001 72 L997 75 L1003 89 L1045 100 L1070 90 L1069 85 L1064 86 L1064 100 L1081 109 L1102 99 L1107 81 L1102 76 L1101 85 L1117 101 L1144 101 L1164 88 L1162 79 L1157 82 L1157 99 L1185 112 L1247 105 L1255 94 L1252 91 L1252 92 L1264 97 L1274 94 L1278 90 " fill="none" stroke="black" /></svg>