<?xml version="1.0" encoding="utf-8" ?>
<svg baseProfile="tiny" height="458" version="1.2" viewBox="-3 -3 927 458" width="927" xmlns="http://www.w3.org/2000/svg" xmlns:ev="http://www.w3.org/2001/xml-events" xmlns:xlink="http://www.w3.org/1999/xlink"><defs /><path d="M0 339 L3 342 L6 345 L9 348 L12 351 L15 354 L18 357 L21 359 L23 362 L25 363 L28 365 L31 368 L34 370 L36 371 L38 372 L40 373 L42 374 L45 376 L48 377 L52 379 L61 384 L70 389 L81 394 L88 399 L94 403 L101 408 L107 410 L112 411 L122 413 L131 414 L141 415 L148 415 L155 415 L163 414 L169 414 L175 414 L181 414 L188 414 L193 414 L197 413 L202 413 L208 413 L212 413 L217 412 L222 412 L225 412 L230 412 L239 411 L245 410 L251 409 L259 409 L265 409 L271 408 L279 408 L286 408 L294 407 L303 406 L313 406 L323 405 L331 405 L338 405 L351 404 L359 403 L371 402 L385 401 L398 400 L412 400 L427 398 L440 397 L453 396 L462 394 L473 389 L486 383 L498 375 L508 368 L517 358 L529 345 L538 334 L547 322 L557 310 L564 300 L572 284 L579 269 L586 255 L593 239 L596 223 L600 208 L604 191 L607 175 L609 160 L610 146 L611 136 L611 128 L611 120 L612 114 L613 107 L615 100 L616 93 L617 87 L618 79 L619 71 L621 65 L622 60 L623 54 L623 50 L625 42 L625 38 L626 33 L626 30 L626 27 L626 24 L627 22 L627 19 L628 15 L629 12 L629 10 L629 8 L630 6 L630 3 L630 0 L630 2 L629 9 L629 21 L629 34 L629 51 L629 73 L630 94 L631 117 L632 156 L637 195 L645 234 L656 277 L667 316 L686 355 L711 395 L727 422 L744 441 L764 454 L782 458 L790 458 L801 455 L818 450 L838 443 L853 434 L873 425 L897 416 L921 407 L925 404 L926 403 L927 402 " fill="none" stroke="black" /></svg>