<?xml version="1.0" encoding="utf-8" ?>
<svg baseProfile="tiny" height="298" version="1.2" viewBox="-3 -3 691 298" width="691" xmlns="http://www.w3.org/2000/svg" xmlns:ev="http://www.w3.org/2001/xml-events" xmlns:xlink="http://www.w3.org/1999/xlink"><defs /><path d="M691 130 L660 129 L654 133 L657 137 L663 135 L667 121 L658 102 L636 94 L623 94 L623 98 L639 102 L646 98 L644 89 L622 81 L599 79 L597 81 L600 82 L605 79 L605 72 L592 60 L554 49 L519 49 L515 51 L519 53 L520 51 L517 45 L493 29 L442 22 L415 20 L414 24 L417 25 L417 24 L411 13 L388 4 L357 8 L340 16 L338 23 L339 24 L341 17 L335 8 L314 5 L261 10 L251 20 L253 31 L257 32 L256 22 L245 5 L209 0 L183 6 L179 16 L181 21 L184 19 L182 8 L171 3 L143 7 L132 17 L130 28 L130 29 L126 23 L113 19 L95 19 L78 25 L78 29 L82 33 L89 31 L90 23 L81 17 L56 20 L34 33 L31 54 L36 61 L37 57 L35 51 L25 52 L8 63 L2 79 L8 92 L29 98 L36 94 L19 92 L5 96 L0 108 L10 131 L28 142 L35 137 L31 133 L22 133 L16 143 L23 171 L39 186 L50 186 L49 182 L42 182 L27 186 L26 195 L36 205 L57 209 L60 207 L57 204 L42 205 L33 208 L34 213 L51 220 L82 221 L85 219 L80 218 L65 224 L61 229 L65 232 L102 239 L127 237 L127 234 L121 234 L111 244 L112 248 L140 254 L175 250 L186 242 L185 238 L180 241 L174 256 L178 267 L216 272 L274 268 L291 254 L288 249 L287 251 L290 270 L309 285 L348 285 L381 273 L381 264 L381 268 L394 282 L429 290 L468 275 L475 256 L464 250 L465 267 L483 291 L516 298 L544 288 L553 277 L556 279 L578 284 L600 283 L627 275 L648 271 L659 271 " fill="none" stroke="black" /></svg>