<?xml version="1.0" encoding="utf-8" ?>
<svg baseProfile="tiny" height="389" version="1.2" viewBox="-3 -3 374 389" width="374" xmlns="http://www.w3.org/2000/svg" xmlns:ev="http://www.w3.org/2001/xml-events" xmlns:xlink="http://www.w3.org/1999/xlink"><defs /><path d="M323 294 L333 221 L324 157 L293 112 L246 95 L191 96 L137 117 L109 151 L93 193 L97 234 L118 265 L146 281 L179 286 L204 276 L220 263 L251 225 L274 167 L276 149 L266 127 L253 122 L234 122 L209 132 L183 160 L175 193 L182 239 L203 266 L230 279 L260 279 L296 267 L343 230 L367 188 L365 146 L338 107 L296 88 L246 87 L199 109 L165 158 L153 210 L162 265 L187 298 L219 313 L262 309 L311 293 L358 259 L374 218 L369 181 L346 154 L303 137 L245 137 L185 162 L152 194 L140 241 L148 308 L179 348 L219 361 L265 354 L304 328 L322 278 L315 224 L283 185 L243 167 L205 171 L164 200 L147 234 L141 281 L163 321 L197 339 L237 333 L276 312 L301 272 L299 220 L264 160 L201 120 L144 111 L95 124 L65 147 L49 182 L55 226 L79 265 L124 290 L163 292 L222 266 L266 228 L283 176 L273 123 L243 95 L177 72 L90 75 L28 105 L6 143 L9 211 L35 264 L71 300 L116 321 L158 325 L206 311 L251 281 L271 244 L276 200 L260 154 L221 121 L157 109 L94 122 L38 163 L10 220 L11 283 L36 336 L66 359 L121 366 L174 347 L228 293 L250 220 L237 161 L205 120 L134 102 L78 108 L48 137 L29 193 L34 258 L49 302 L84 321 L129 324 L168 312 L215 274 L250 220 L263 143 L238 66 L187 17 L126 0 L59 22 L9 89 L0 168 L24 261 L69 333 L133 379 L191 389 L248 372 L298 334 L326 282 L328 203 L296 133 L236 87 L161 62 L94 63 L46 98 L9 164 L8 237 L26 290 L50 313 L65 316 " fill="none" stroke="black" /></svg>