<?xml version="1.0" encoding="utf-8" ?>
<svg baseProfile="tiny" height="33" version="1.2" viewBox="-3 -3 164 33" width="164" xmlns="http://www.w3.org/2000/svg" xmlns:ev="http://www.w3.org/2001/xml-events" xmlns:xlink="http://www.w3.org/1999/xlink"><defs /><path d="M0 23 L1 23 L2 23 L4 22 L4 19 L6 17 L6 15 L8 12 L9 11 L10 8 L11 7 L12 7 L13 5 L14 4 L15 3 L16 2 L17 0 L19 0 L20 0 L21 3 L24 5 L26 9 L28 11 L29 13 L32 15 L33 18 L35 20 L36 21 L37 22 L37 23 L39 24 L40 25 L41 26 L42 27 L44 24 L44 20 L45 18 L46 16 L48 14 L48 12 L48 9 L48 8 L48 7 L48 6 L48 4 L49 4 L51 3 L52 2 L52 1 L52 0 L53 0 L55 0 L56 3 L56 5 L57 7 L59 9 L60 11 L60 13 L62 15 L63 17 L64 19 L65 20 L66 21 L68 22 L68 23 L69 24 L69 25 L71 25 L72 23 L73 20 L75 17 L76 15 L76 13 L77 10 L79 8 L80 7 L80 6 L80 5 L80 4 L80 3 L78 1 L80 2 L84 6 L89 9 L94 13 L99 16 L103 19 L108 23 L110 24 L112 27 L114 28 L114 27 L115 26 L116 23 L116 21 L118 19 L119 17 L120 15 L121 12 L122 11 L123 10 L124 9 L125 7 L126 7 L128 6 L128 5 L128 3 L128 1 L129 1 L130 2 L131 3 L132 5 L132 7 L134 10 L136 13 L137 16 L140 19 L140 21 L142 23 L144 25 L145 27 L146 29 L147 30 L148 31 L149 32 L150 33 L152 33 L152 32 L152 30 L152 27 L152 25 L152 23 L152 20 L154 18 L155 16 L156 14 L156 11 L157 10 L158 7 L159 7 L160 5 L160 4 L160 3 L160 2 L162 2 L163 2 L164 2 L164 3 L164 4 L164 5 " fill="none" stroke="black" /></svg>