<?xml version="1.0" encoding="utf-8" ?>
<svg baseProfile="tiny" height="307" version="1.2" viewBox="-3 -3 128 307" width="128" xmlns="http://www.w3.org/2000/svg" xmlns:ev="http://www.w3.org/2001/xml-events" xmlns:xlink="http://www.w3.org/1999/xlink"><defs /><path d="M0 307 L0 303 L0 301 L0 297 L0 294 L0 290 L0 287 L1 283 L1 282 L1 277 L2 273 L4 257 L10 221 L14 192 L22 148 L28 105 L34 61 L37 41 L38 30 L38 20 L39 15 L39 8 L39 6 L39 3 L39 2 L39 1 L39 0 L39 1 L39 2 L39 3 L39 5 L39 7 L39 9 L39 12 L39 14 L40 17 L40 20 L42 26 L43 30 L43 37 L45 46 L46 58 L46 67 L46 77 L46 83 L46 92 L46 97 L46 102 L46 106 L46 110 L46 113 L47 115 L48 117 L49 118 L50 118 L51 118 L52 118 L54 117 L55 115 L57 114 L58 111 L58 110 L59 110 L61 108 L62 107 L62 106 L63 105 L63 103 L65 102 L66 102 L66 105 L66 108 L66 111 L66 115 L66 119 L66 124 L66 129 L66 134 L66 138 L66 143 L66 148 L66 151 L66 153 L68 154 L69 154 L70 154 L71 153 L74 151 L76 149 L78 143 L81 140 L82 136 L83 134 L84 130 L85 129 L86 126 L87 126 L89 125 L90 125 L91 126 L93 126 L94 128 L94 130 L96 133 L97 134 L97 137 L97 139 L97 142 L97 146 L97 149 L98 152 L99 154 L101 155 L101 156 L102 157 L103 157 L105 157 L106 157 L109 154 L110 152 L112 150 L113 147 L114 146 L115 143 L116 141 L118 139 L118 137 L120 134 L120 133 L122 131 L122 130 L124 129 L125 129 L126 129 L127 130 L128 133 L128 134 L128 137 L128 139 L128 140 L128 142 L128 143 L128 144 L128 146 L128 148 L128 149 L128 150 L128 152 L128 153 L128 154 " fill="none" stroke="black" /></svg>