<?xml version="1.0" encoding="utf-8" ?>
<svg baseProfile="tiny" height="549" version="1.2" viewBox="-3 -3 822 549" width="822" xmlns="http://www.w3.org/2000/svg" xmlns:ev="http://www.w3.org/2001/xml-events" xmlns:xlink="http://www.w3.org/1999/xlink"><defs /><path d="M146 297 L146 292 L155 241 L164 202 L170 174 L183 137 L186 126 L187 126 L186 126 L185 126 L185 129 L185 132 L187 136 L189 142 L192 150 L198 166 L201 172 L201 176 L203 178 L203 179 L203 180 L204 178 L205 175 L207 163 L216 142 L219 134 L220 133 L220 132 L221 132 L221 134 L223 138 L225 142 L229 149 L233 156 L235 161 L237 164 L237 166 L239 169 L240 170 L241 170 L242 170 L243 170 L243 167 " fill="none" stroke="black" /><path d="M146 297 L146 292 L155 241 L164 202 L170 174 L183 137 L186 126 L187 126 L186 126 L185 126 L185 129 L185 132 L187 136 L189 142 L192 150 L198 166 L201 172 L201 176 L203 178 L203 179 L203 180 L204 178 L205 175 L207 163 L216 142 L219 134 L220 133 L220 132 L221 132 L221 134 L223 138 L225 142 L229 149 L233 156 L235 161 L237 164 L237 166 L239 169 L240 170 L241 170 L242 170 L243 170 L243 167 M380 155 L401 100 " fill="none" stroke="black" /><path d="M146 297 L146 292 L155 241 L164 202 L170 174 L183 137 L186 126 L187 126 L186 126 L185 126 L185 129 L185 132 L187 136 L189 142 L192 150 L198 166 L201 172 L201 176 L203 178 L203 179 L203 180 L204 178 L205 175 L207 163 L216 142 L219 134 L220 133 L220 132 L221 132 L221 134 L223 138 L225 142 L229 149 L233 156 L235 161 L237 164 L237 166 L239 169 L240 170 L241 170 L242 170 L243 170 L243 167 M380 155 L401 100 M449 285 L472 254 L620 67 L656 23 L657 20 " fill="none" stroke="black" /><path d="M146 297 L146 292 L155 241 L164 202 L170 174 L183 137 L186 126 L187 126 L186 126 L185 126 L185 129 L185 132 L187 136 L189 142 L192 150 L198 166 L201 172 L201 176 L203 178 L203 179 L203 180 L204 178 L205 175 L207 163 L216 142 L219 134 L220 133 L220 132 L221 132 L221 134 L223 138 L225 142 L229 149 L233 156 L235 161 L237 164 L237 166 L239 169 L240 170 L241 170 L242 170 L243 170 L243 167 M380 155 L401 100 M449 285 L472 254 L620 67 L656 23 L657 20 M588 341 L691 233 L808 132 L821 119 L822 118 " fill="none" stroke="black" /><path d="M146 297 L146 292 L155 241 L164 202 L170 174 L183 137 L186 126 L187 126 L186 126 L185 126 L185 129 L185 132 L187 136 L189 142 L192 150 L198 166 L201 172 L201 176 L203 178 L203 179 L203 180 L204 178 L205 175 L207 163 L216 142 L219 134 L220 133 L220 132 L221 132 L221 134 L223 138 L225 142 L229 149 L233 156 L235 161 L237 164 L237 166 L239 169 L240 170 L241 170 L242 170 L243 170 L243 167 M380 155 L401 100 M449 285 L472 254 L620 67 L656 23 L657 20 M588 341 L691 233 L808 132 L821 119 L822 118 M297 163 L229 93 L129 15 L104 1 L103 0 " fill="none" stroke="black" /><path d="M146 297 L146 292 L155 241 L164 202 L170 174 L183 137 L186 126 L187 126 L186 126 L185 126 L185 129 L185 132 L187 136 L189 142 L192 150 L198 166 L201 172 L201 176 L203 178 L203 179 L203 180 L204 178 L205 175 L207 163 L216 142 L219 134 L220 133 L220 132 L221 132 L221 134 L223 138 L225 142 L229 149 L233 156 L235 161 L237 164 L237 166 L239 169 L240 170 L241 170 L242 170 L243 170 L243 167 M380 155 L401 100 M449 285 L472 254 L620 67 L656 23 L657 20 M588 341 L691 233 L808 132 L821 119 L822 118 M297 163 L229 93 L129 15 L104 1 L103 0 M166 281 L89 251 L22 226 L1 219 L0 219 " fill="none" stroke="black" /><path d="M146 297 L146 292 L155 241 L164 202 L170 174 L183 137 L186 126 L187 126 L186 126 L185 126 L185 129 L185 132 L187 136 L189 142 L192 150 L198 166 L201 172 L201 176 L203 178 L203 179 L203 180 L204 178 L205 175 L207 163 L216 142 L219 134 L220 133 L220 132 L221 132 L221 134 L223 138 L225 142 L229 149 L233 156 L235 161 L237 164 L237 166 L239 169 L240 170 L241 170 L242 170 L243 170 L243 167 M380 155 L401 100 M449 285 L472 254 L620 67 L656 23 L657 20 M588 341 L691 233 L808 132 L821 119 L822 118 M297 163 L229 93 L129 15 L104 1 L103 0 M166 281 L89 251 L22 226 L1 219 L0 219 M137 326 L91 504 L82 545 L81 549 " fill="none" stroke="black" /><path d="M146 297 L146 292 L155 241 L164 202 L170 174 L183 137 L186 126 L187 126 L186 126 L185 126 L185 129 L185 132 L187 136 L189 142 L192 150 L198 166 L201 172 L201 176 L203 178 L203 179 L203 180 L204 178 L205 175 L207 163 L216 142 L219 134 L220 133 L220 132 L221 132 L221 134 L223 138 L225 142 L229 149 L233 156 L235 161 L237 164 L237 166 L239 169 L240 170 L241 170 L242 170 L243 170 L243 167 M380 155 L401 100 M449 285 L472 254 L620 67 L656 23 L657 20 M588 341 L691 233 L808 132 L821 119 L822 118 M297 163 L229 93 L129 15 L104 1 L103 0 M166 281 L89 251 L22 226 L1 219 L0 219 M137 326 L91 504 L82 545 L81 549 M306 404 L310 434 L313 452 L313 457 " fill="none" stroke="black" /><path d="M146 297 L146 292 L155 241 L164 202 L170 174 L183 137 L186 126 L187 126 L186 126 L185 126 L185 129 L185 132 L187 136 L189 142 L192 150 L198 166 L201 172 L201 176 L203 178 L203 179 L203 180 L204 178 L205 175 L207 163 L216 142 L219 134 L220 133 L220 132 L221 132 L221 134 L223 138 L225 142 L229 149 L233 156 L235 161 L237 164 L237 166 L239 169 L240 170 L241 170 L242 170 L243 170 L243 167 M380 155 L401 100 M449 285 L472 254 L620 67 L656 23 L657 20 M588 341 L691 233 L808 132 L821 119 L822 118 M297 163 L229 93 L129 15 L104 1 L103 0 M166 281 L89 251 L22 226 L1 219 L0 219 M137 326 L91 504 L82 545 L81 549 M306 404 L310 434 L313 452 L313 457 M420 402 L519 417 L656 448 L683 459 L687 461 L688 462 " fill="none" stroke="black" /><path d="M146 297 L146 292 L155 241 L164 202 L170 174 L183 137 L186 126 L187 126 L186 126 L185 126 L185 129 L185 132 L187 136 L189 142 L192 150 L198 166 L201 172 L201 176 L203 178 L203 179 L203 180 L204 178 L205 175 L207 163 L216 142 L219 134 L220 133 L220 132 L221 132 L221 134 L223 138 L225 142 L229 149 L233 156 L235 161 L237 164 L237 166 L239 169 L240 170 L241 170 L242 170 L243 170 L243 167 M380 155 L401 100 M449 285 L472 254 L620 67 L656 23 L657 20 M588 341 L691 233 L808 132 L821 119 L822 118 M297 163 L229 93 L129 15 L104 1 L103 0 M166 281 L89 251 L22 226 L1 219 L0 219 M137 326 L91 504 L82 545 L81 549 M306 404 L310 434 L313 452 L313 457 M420 402 L519 417 L656 448 L683 459 L687 461 L688 462 M417 216 L457 116 L488 38 L489 30 " fill="none" stroke="black" /><path d="M146 297 L146 292 L155 241 L164 202 L170 174 L183 137 L186 126 L187 126 L186 126 L185 126 L185 129 L185 132 L187 136 L189 142 L192 150 L198 166 L201 172 L201 176 L203 178 L203 179 L203 180 L204 178 L205 175 L207 163 L216 142 L219 134 L220 133 L220 132 L221 132 L221 134 L223 138 L225 142 L229 149 L233 156 L235 161 L237 164 L237 166 L239 169 L240 170 L241 170 L242 170 L243 170 L243 167 M380 155 L401 100 M449 285 L472 254 L620 67 L656 23 L657 20 M588 341 L691 233 L808 132 L821 119 L822 118 M297 163 L229 93 L129 15 L104 1 L103 0 M166 281 L89 251 L22 226 L1 219 L0 219 M137 326 L91 504 L82 545 L81 549 M306 404 L310 434 L313 452 L313 457 M420 402 L519 417 L656 448 L683 459 L687 461 L688 462 M417 216 L457 116 L488 38 L489 30 M341 91 L325 35 L317 18 L316 18 " fill="none" stroke="black" /><path d="M146 297 L146 292 L155 241 L164 202 L170 174 L183 137 L186 126 L187 126 L186 126 L185 126 L185 129 L185 132 L187 136 L189 142 L192 150 L198 166 L201 172 L201 176 L203 178 L203 179 L203 180 L204 178 L205 175 L207 163 L216 142 L219 134 L220 133 L220 132 L221 132 L221 134 L223 138 L225 142 L229 149 L233 156 L235 161 L237 164 L237 166 L239 169 L240 170 L241 170 L242 170 L243 170 L243 167 M380 155 L401 100 M449 285 L472 254 L620 67 L656 23 L657 20 M588 341 L691 233 L808 132 L821 119 L822 118 M297 163 L229 93 L129 15 L104 1 L103 0 M166 281 L89 251 L22 226 L1 219 L0 219 M137 326 L91 504 L82 545 L81 549 M306 404 L310 434 L313 452 L313 457 M420 402 L519 417 L656 448 L683 459 L687 461 L688 462 M417 216 L457 116 L488 38 L489 30 M341 91 L325 35 L317 18 L316 18 M498 325 L516 325 L676 303 L762 295 L776 297 L777 298 " fill="none" stroke="black" /><path d="M146 297 L146 292 L155 241 L164 202 L170 174 L183 137 L186 126 L187 126 L186 126 L185 126 L185 129 L185 132 L187 136 L189 142 L192 150 L198 166 L201 172 L201 176 L203 178 L203 179 L203 180 L204 178 L205 175 L207 163 L216 142 L219 134 L220 133 L220 132 L221 132 L221 134 L223 138 L225 142 L229 149 L233 156 L235 161 L237 164 L237 166 L239 169 L240 170 L241 170 L242 170 L243 170 L243 167 M380 155 L401 100 M449 285 L472 254 L620 67 L656 23 L657 20 M588 341 L691 233 L808 132 L821 119 L822 118 M297 163 L229 93 L129 15 L104 1 L103 0 M166 281 L89 251 L22 226 L1 219 L0 219 M137 326 L91 504 L82 545 L81 549 M306 404 L310 434 L313 452 L313 457 M420 402 L519 417 L656 448 L683 459 L687 461 L688 462 M417 216 L457 116 L488 38 L489 30 M341 91 L325 35 L317 18 L316 18 M498 325 L516 325 L676 303 L762 295 L776 297 L777 298 M551 251 L588 251 L601 251 L604 251 L605 251 L604 249 L596 230 L582 204 L570 191 L567 190 L566 190 L565 190 L570 188 L666 135 L710 102 L715 97 L715 96 " fill="none" stroke="black" /><path d="M146 297 L146 292 L155 241 L164 202 L170 174 L183 137 L186 126 L187 126 L186 126 L185 126 L185 129 L185 132 L187 136 L189 142 L192 150 L198 166 L201 172 L201 176 L203 178 L203 179 L203 180 L204 178 L205 175 L207 163 L216 142 L219 134 L220 133 L220 132 L221 132 L221 134 L223 138 L225 142 L229 149 L233 156 L235 161 L237 164 L237 166 L239 169 L240 170 L241 170 L242 170 L243 170 L243 167 M380 155 L401 100 M449 285 L472 254 L620 67 L656 23 L657 20 M588 341 L691 233 L808 132 L821 119 L822 118 M297 163 L229 93 L129 15 L104 1 L103 0 M166 281 L89 251 L22 226 L1 219 L0 219 M137 326 L91 504 L82 545 L81 549 M306 404 L310 434 L313 452 L313 457 M420 402 L519 417 L656 448 L683 459 L687 461 L688 462 M417 216 L457 116 L488 38 L489 30 M341 91 L325 35 L317 18 L316 18 M498 325 L516 325 L676 303 L762 295 L776 297 L777 298 M551 251 L588 251 L601 251 L604 251 L605 251 L604 249 L596 230 L582 204 L570 191 L567 190 L566 190 L565 190 L570 188 L666 135 L710 102 L715 97 L715 96 M487 142 L520 142 L543 142 L547 142 L548 142 L545 139 L537 130 L504 97 L480 70 L472 61 L472 58 L477 55 L502 48 L541 30 L557 20 L558 17 L558 16 " fill="none" stroke="black" /><path d="M146 297 L146 292 L155 241 L164 202 L170 174 L183 137 L186 126 L187 126 L186 126 L185 126 L185 129 L185 132 L187 136 L189 142 L192 150 L198 166 L201 172 L201 176 L203 178 L203 179 L203 180 L204 178 L205 175 L207 163 L216 142 L219 134 L220 133 L220 132 L221 132 L221 134 L223 138 L225 142 L229 149 L233 156 L235 161 L237 164 L237 166 L239 169 L240 170 L241 170 L242 170 L243 170 L243 167 M380 155 L401 100 M449 285 L472 254 L620 67 L656 23 L657 20 M588 341 L691 233 L808 132 L821 119 L822 118 M297 163 L229 93 L129 15 L104 1 L103 0 M166 281 L89 251 L22 226 L1 219 L0 219 M137 326 L91 504 L82 545 L81 549 M306 404 L310 434 L313 452 L313 457 M420 402 L519 417 L656 448 L683 459 L687 461 L688 462 M417 216 L457 116 L488 38 L489 30 M341 91 L325 35 L317 18 L316 18 M498 325 L516 325 L676 303 L762 295 L776 297 L777 298 M551 251 L588 251 L601 251 L604 251 L605 251 L604 249 L596 230 L582 204 L570 191 L567 190 L566 190 L565 190 L570 188 L666 135 L710 102 L715 97 L715 96 M487 142 L520 142 L543 142 L547 142 L548 142 L545 139 L537 130 L504 97 L480 70 L472 61 L472 58 L477 55 L502 48 L541 30 L557 20 L558 17 L558 16 M338 144 L313 142 L283 130 L279 125 L279 121 L282 117 L289 110 L307 91 L321 78 L325 73 L325 69 L288 40 L229 15 L205 5 L202 4 L201 4 " fill="none" stroke="black" /><path d="M146 297 L146 292 L155 241 L164 202 L170 174 L183 137 L186 126 L187 126 L186 126 L185 126 L185 129 L185 132 L187 136 L189 142 L192 150 L198 166 L201 172 L201 176 L203 178 L203 179 L203 180 L204 178 L205 175 L207 163 L216 142 L219 134 L220 133 L220 132 L221 132 L221 134 L223 138 L225 142 L229 149 L233 156 L235 161 L237 164 L237 166 L239 169 L240 170 L241 170 L242 170 L243 170 L243 167 M380 155 L401 100 M449 285 L472 254 L620 67 L656 23 L657 20 M588 341 L691 233 L808 132 L821 119 L822 118 M297 163 L229 93 L129 15 L104 1 L103 0 M166 281 L89 251 L22 226 L1 219 L0 219 M137 326 L91 504 L82 545 L81 549 M306 404 L310 434 L313 452 L313 457 M420 402 L519 417 L656 448 L683 459 L687 461 L688 462 M417 216 L457 116 L488 38 L489 30 M341 91 L325 35 L317 18 L316 18 M498 325 L516 325 L676 303 L762 295 L776 297 L777 298 M551 251 L588 251 L601 251 L604 251 L605 251 L604 249 L596 230 L582 204 L570 191 L567 190 L566 190 L565 190 L570 188 L666 135 L710 102 L715 97 L715 96 M487 142 L520 142 L543 142 L547 142 L548 142 L545 139 L537 130 L504 97 L480 70 L472 61 L472 58 L477 55 L502 48 L541 30 L557 20 L558 17 L558 16 M338 144 L313 142 L283 130 L279 125 L279 121 L282 117 L289 110 L307 91 L321 78 L325 73 L325 69 L288 40 L229 15 L205 5 L202 4 L201 4 M156 375 L180 405 L197 427 L202 432 L203 434 " fill="none" stroke="black" /></svg>