<?xml version="1.0" encoding="utf-8" ?>
<svg baseProfile="tiny" height="579" version="1.2" viewBox="-3 -3 1269 579" width="1269" xmlns="http://www.w3.org/2000/svg" xmlns:ev="http://www.w3.org/2001/xml-events" xmlns:xlink="http://www.w3.org/1999/xlink"><defs /><path d="M493 405 L500 404 L531 403 L560 403 L582 403 L612 403 L648 402 L668 404 L685 407 L690 408 L703 409 L713 409 L717 410 " fill="none" stroke="black" /><path d="M493 405 L500 404 L531 403 L560 403 L582 403 L612 403 L648 402 L668 404 L685 407 L690 408 L703 409 L713 409 L717 410 M486 346 L506 320 L517 304 L527 293 L536 287 L541 284 L546 283 L562 281 L576 280 L604 280 L632 286 L658 296 L673 303 L677 307 L680 310 L684 314 L684 316 L686 318 L687 320 " fill="none" stroke="black" /><path d="M493 405 L500 404 L531 403 L560 403 L582 403 L612 403 L648 402 L668 404 L685 407 L690 408 L703 409 L713 409 L717 410 M486 346 L506 320 L517 304 L527 293 L536 287 L541 284 L546 283 L562 281 L576 280 L604 280 L632 286 L658 296 L673 303 L677 307 L680 310 L684 314 L684 316 L686 318 L687 320 M565 216 L563 208 L551 168 " fill="none" stroke="black" /><path d="M493 405 L500 404 L531 403 L560 403 L582 403 L612 403 L648 402 L668 404 L685 407 L690 408 L703 409 L713 409 L717 410 M486 346 L506 320 L517 304 L527 293 L536 287 L541 284 L546 283 L562 281 L576 280 L604 280 L632 286 L658 296 L673 303 L677 307 L680 310 L684 314 L684 316 L686 318 L687 320 M565 216 L563 208 L551 168 M491 289 L445 258 L392 224 L363 204 L354 200 " fill="none" stroke="black" /><path d="M493 405 L500 404 L531 403 L560 403 L582 403 L612 403 L648 402 L668 404 L685 407 L690 408 L703 409 L713 409 L717 410 M486 346 L506 320 L517 304 L527 293 L536 287 L541 284 L546 283 L562 281 L576 280 L604 280 L632 286 L658 296 L673 303 L677 307 L680 310 L684 314 L684 316 L686 318 L687 320 M565 216 L563 208 L551 168 M491 289 L445 258 L392 224 L363 204 L354 200 M617 225 L665 176 L694 148 L700 145 " fill="none" stroke="black" /><path d="M493 405 L500 404 L531 403 L560 403 L582 403 L612 403 L648 402 L668 404 L685 407 L690 408 L703 409 L713 409 L717 410 M486 346 L506 320 L517 304 L527 293 L536 287 L541 284 L546 283 L562 281 L576 280 L604 280 L632 286 L658 296 L673 303 L677 307 L680 310 L684 314 L684 316 L686 318 L687 320 M565 216 L563 208 L551 168 M491 289 L445 258 L392 224 L363 204 L354 200 M617 225 L665 176 L694 148 L700 145 M734 255 L813 179 L836 158 " fill="none" stroke="black" /><path d="M493 405 L500 404 L531 403 L560 403 L582 403 L612 403 L648 402 L668 404 L685 407 L690 408 L703 409 L713 409 L717 410 M486 346 L506 320 L517 304 L527 293 L536 287 L541 284 L546 283 L562 281 L576 280 L604 280 L632 286 L658 296 L673 303 L677 307 L680 310 L684 314 L684 316 L686 318 L687 320 M565 216 L563 208 L551 168 M491 289 L445 258 L392 224 L363 204 L354 200 M617 225 L665 176 L694 148 L700 145 M734 255 L813 179 L836 158 M434 373 L361 412 L285 452 L263 463 L260 464 " fill="none" stroke="black" /><path d="M493 405 L500 404 L531 403 L560 403 L582 403 L612 403 L648 402 L668 404 L685 407 L690 408 L703 409 L713 409 L717 410 M486 346 L506 320 L517 304 L527 293 L536 287 L541 284 L546 283 L562 281 L576 280 L604 280 L632 286 L658 296 L673 303 L677 307 L680 310 L684 314 L684 316 L686 318 L687 320 M565 216 L563 208 L551 168 M491 289 L445 258 L392 224 L363 204 L354 200 M617 225 L665 176 L694 148 L700 145 M734 255 L813 179 L836 158 M434 373 L361 412 L285 452 L263 463 L260 464 M493 444 L612 488 L639 500 L648 504 L650 505 " fill="none" stroke="black" /><path d="M493 405 L500 404 L531 403 L560 403 L582 403 L612 403 L648 402 L668 404 L685 407 L690 408 L703 409 L713 409 L717 410 M486 346 L506 320 L517 304 L527 293 L536 287 L541 284 L546 283 L562 281 L576 280 L604 280 L632 286 L658 296 L673 303 L677 307 L680 310 L684 314 L684 316 L686 318 L687 320 M565 216 L563 208 L551 168 M491 289 L445 258 L392 224 L363 204 L354 200 M617 225 L665 176 L694 148 L700 145 M734 255 L813 179 L836 158 M434 373 L361 412 L285 452 L263 463 L260 464 M493 444 L612 488 L639 500 L648 504 L650 505 M698 448 L808 454 L850 457 " fill="none" stroke="black" /><path d="M493 405 L500 404 L531 403 L560 403 L582 403 L612 403 L648 402 L668 404 L685 407 L690 408 L703 409 L713 409 L717 410 M486 346 L506 320 L517 304 L527 293 L536 287 L541 284 L546 283 L562 281 L576 280 L604 280 L632 286 L658 296 L673 303 L677 307 L680 310 L684 314 L684 316 L686 318 L687 320 M565 216 L563 208 L551 168 M491 289 L445 258 L392 224 L363 204 L354 200 M617 225 L665 176 L694 148 L700 145 M734 255 L813 179 L836 158 M434 373 L361 412 L285 452 L263 463 L260 464 M493 444 L612 488 L639 500 L648 504 L650 505 M698 448 L808 454 L850 457 M712 350 L726 350 L924 380 L1061 426 L1083 436 L1083 437 " fill="none" stroke="black" /><path d="M493 405 L500 404 L531 403 L560 403 L582 403 L612 403 L648 402 L668 404 L685 407 L690 408 L703 409 L713 409 L717 410 M486 346 L506 320 L517 304 L527 293 L536 287 L541 284 L546 283 L562 281 L576 280 L604 280 L632 286 L658 296 L673 303 L677 307 L680 310 L684 314 L684 316 L686 318 L687 320 M565 216 L563 208 L551 168 M491 289 L445 258 L392 224 L363 204 L354 200 M617 225 L665 176 L694 148 L700 145 M734 255 L813 179 L836 158 M434 373 L361 412 L285 452 L263 463 L260 464 M493 444 L612 488 L639 500 L648 504 L650 505 M698 448 L808 454 L850 457 M712 350 L726 350 L924 380 L1061 426 L1083 436 L1083 437 M575 0 L576 14 L590 118 L598 183 L599 192 L599 195 L599 196 " fill="none" stroke="black" /><path d="M493 405 L500 404 L531 403 L560 403 L582 403 L612 403 L648 402 L668 404 L685 407 L690 408 L703 409 L713 409 L717 410 M486 346 L506 320 L517 304 L527 293 L536 287 L541 284 L546 283 L562 281 L576 280 L604 280 L632 286 L658 296 L673 303 L677 307 L680 310 L684 314 L684 316 L686 318 L687 320 M565 216 L563 208 L551 168 M491 289 L445 258 L392 224 L363 204 L354 200 M617 225 L665 176 L694 148 L700 145 M734 255 L813 179 L836 158 M434 373 L361 412 L285 452 L263 463 L260 464 M493 444 L612 488 L639 500 L648 504 L650 505 M698 448 L808 454 L850 457 M712 350 L726 350 L924 380 L1061 426 L1083 436 L1083 437 M575 0 L576 14 L590 118 L598 183 L599 192 L599 195 L599 196 M392 76 L417 75 L595 61 L675 66 L684 69 L687 71 L687 72 " fill="none" stroke="black" /><path d="M493 405 L500 404 L531 403 L560 403 L582 403 L612 403 L648 402 L668 404 L685 407 L690 408 L703 409 L713 409 L717 410 M486 346 L506 320 L517 304 L527 293 L536 287 L541 284 L546 283 L562 281 L576 280 L604 280 L632 286 L658 296 L673 303 L677 307 L680 310 L684 314 L684 316 L686 318 L687 320 M565 216 L563 208 L551 168 M491 289 L445 258 L392 224 L363 204 L354 200 M617 225 L665 176 L694 148 L700 145 M734 255 L813 179 L836 158 M434 373 L361 412 L285 452 L263 463 L260 464 M493 444 L612 488 L639 500 L648 504 L650 505 M698 448 L808 454 L850 457 M712 350 L726 350 L924 380 L1061 426 L1083 436 L1083 437 M575 0 L576 14 L590 118 L598 183 L599 192 L599 195 L599 196 M392 76 L417 75 L595 61 L675 66 L684 69 L687 71 L687 72 M172 178 L180 240 L186 392 L186 454 L187 486 L188 496 " fill="none" stroke="black" /><path d="M493 405 L500 404 L531 403 L560 403 L582 403 L612 403 L648 402 L668 404 L685 407 L690 408 L703 409 L713 409 L717 410 M486 346 L506 320 L517 304 L527 293 L536 287 L541 284 L546 283 L562 281 L576 280 L604 280 L632 286 L658 296 L673 303 L677 307 L680 310 L684 314 L684 316 L686 318 L687 320 M565 216 L563 208 L551 168 M491 289 L445 258 L392 224 L363 204 L354 200 M617 225 L665 176 L694 148 L700 145 M734 255 L813 179 L836 158 M434 373 L361 412 L285 452 L263 463 L260 464 M493 444 L612 488 L639 500 L648 504 L650 505 M698 448 L808 454 L850 457 M712 350 L726 350 L924 380 L1061 426 L1083 436 L1083 437 M575 0 L576 14 L590 118 L598 183 L599 192 L599 195 L599 196 M392 76 L417 75 L595 61 L675 66 L684 69 L687 71 L687 72 M172 178 L180 240 L186 392 L186 454 L187 486 L188 496 M1005 173 L1044 209 L1143 339 L1192 442 L1201 468 L1203 478 L1203 480 L1203 481 " fill="none" stroke="black" /><path d="M493 405 L500 404 L531 403 L560 403 L582 403 L612 403 L648 402 L668 404 L685 407 L690 408 L703 409 L713 409 L717 410 M486 346 L506 320 L517 304 L527 293 L536 287 L541 284 L546 283 L562 281 L576 280 L604 280 L632 286 L658 296 L673 303 L677 307 L680 310 L684 314 L684 316 L686 318 L687 320 M565 216 L563 208 L551 168 M491 289 L445 258 L392 224 L363 204 L354 200 M617 225 L665 176 L694 148 L700 145 M734 255 L813 179 L836 158 M434 373 L361 412 L285 452 L263 463 L260 464 M493 444 L612 488 L639 500 L648 504 L650 505 M698 448 L808 454 L850 457 M712 350 L726 350 L924 380 L1061 426 L1083 436 L1083 437 M575 0 L576 14 L590 118 L598 183 L599 192 L599 195 L599 196 M392 76 L417 75 L595 61 L675 66 L684 69 L687 71 L687 72 M172 178 L180 240 L186 392 L186 454 L187 486 L188 496 M1005 173 L1044 209 L1143 339 L1192 442 L1201 468 L1203 478 L1203 480 L1203 481 M829 92 L947 57 L1019 46 L1069 38 L1072 38 " fill="none" stroke="black" /><path d="M493 405 L500 404 L531 403 L560 403 L582 403 L612 403 L648 402 L668 404 L685 407 L690 408 L703 409 L713 409 L717 410 M486 346 L506 320 L517 304 L527 293 L536 287 L541 284 L546 283 L562 281 L576 280 L604 280 L632 286 L658 296 L673 303 L677 307 L680 310 L684 314 L684 316 L686 318 L687 320 M565 216 L563 208 L551 168 M491 289 L445 258 L392 224 L363 204 L354 200 M617 225 L665 176 L694 148 L700 145 M734 255 L813 179 L836 158 M434 373 L361 412 L285 452 L263 463 L260 464 M493 444 L612 488 L639 500 L648 504 L650 505 M698 448 L808 454 L850 457 M712 350 L726 350 L924 380 L1061 426 L1083 436 L1083 437 M575 0 L576 14 L590 118 L598 183 L599 192 L599 195 L599 196 M392 76 L417 75 L595 61 L675 66 L684 69 L687 71 L687 72 M172 178 L180 240 L186 392 L186 454 L187 486 L188 496 M1005 173 L1044 209 L1143 339 L1192 442 L1201 468 L1203 478 L1203 480 L1203 481 M829 92 L947 57 L1019 46 L1069 38 L1072 38 M317 268 L256 159 L224 106 L208 83 L205 79 L203 78 " fill="none" stroke="black" /><path d="M493 405 L500 404 L531 403 L560 403 L582 403 L612 403 L648 402 L668 404 L685 407 L690 408 L703 409 L713 409 L717 410 M486 346 L506 320 L517 304 L527 293 L536 287 L541 284 L546 283 L562 281 L576 280 L604 280 L632 286 L658 296 L673 303 L677 307 L680 310 L684 314 L684 316 L686 318 L687 320 M565 216 L563 208 L551 168 M491 289 L445 258 L392 224 L363 204 L354 200 M617 225 L665 176 L694 148 L700 145 M734 255 L813 179 L836 158 M434 373 L361 412 L285 452 L263 463 L260 464 M493 444 L612 488 L639 500 L648 504 L650 505 M698 448 L808 454 L850 457 M712 350 L726 350 L924 380 L1061 426 L1083 436 L1083 437 M575 0 L576 14 L590 118 L598 183 L599 192 L599 195 L599 196 M392 76 L417 75 L595 61 L675 66 L684 69 L687 71 L687 72 M172 178 L180 240 L186 392 L186 454 L187 486 L188 496 M1005 173 L1044 209 L1143 339 L1192 442 L1201 468 L1203 478 L1203 480 L1203 481 M829 92 L947 57 L1019 46 L1069 38 L1072 38 M317 268 L256 159 L224 106 L208 83 L205 79 L203 78 M436 172 L426 167 L319 90 L278 61 L276 60 " fill="none" stroke="black" /><path d="M493 405 L500 404 L531 403 L560 403 L582 403 L612 403 L648 402 L668 404 L685 407 L690 408 L703 409 L713 409 L717 410 M486 346 L506 320 L517 304 L527 293 L536 287 L541 284 L546 283 L562 281 L576 280 L604 280 L632 286 L658 296 L673 303 L677 307 L680 310 L684 314 L684 316 L686 318 L687 320 M565 216 L563 208 L551 168 M491 289 L445 258 L392 224 L363 204 L354 200 M617 225 L665 176 L694 148 L700 145 M734 255 L813 179 L836 158 M434 373 L361 412 L285 452 L263 463 L260 464 M493 444 L612 488 L639 500 L648 504 L650 505 M698 448 L808 454 L850 457 M712 350 L726 350 L924 380 L1061 426 L1083 436 L1083 437 M575 0 L576 14 L590 118 L598 183 L599 192 L599 195 L599 196 M392 76 L417 75 L595 61 L675 66 L684 69 L687 71 L687 72 M172 178 L180 240 L186 392 L186 454 L187 486 L188 496 M1005 173 L1044 209 L1143 339 L1192 442 L1201 468 L1203 478 L1203 480 L1203 481 M829 92 L947 57 L1019 46 L1069 38 L1072 38 M317 268 L256 159 L224 106 L208 83 L205 79 L203 78 M436 172 L426 167 L319 90 L278 61 L276 60 M49 221 L16 324 L2 366 L0 370 " fill="none" stroke="black" /><path d="M493 405 L500 404 L531 403 L560 403 L582 403 L612 403 L648 402 L668 404 L685 407 L690 408 L703 409 L713 409 L717 410 M486 346 L506 320 L517 304 L527 293 L536 287 L541 284 L546 283 L562 281 L576 280 L604 280 L632 286 L658 296 L673 303 L677 307 L680 310 L684 314 L684 316 L686 318 L687 320 M565 216 L563 208 L551 168 M491 289 L445 258 L392 224 L363 204 L354 200 M617 225 L665 176 L694 148 L700 145 M734 255 L813 179 L836 158 M434 373 L361 412 L285 452 L263 463 L260 464 M493 444 L612 488 L639 500 L648 504 L650 505 M698 448 L808 454 L850 457 M712 350 L726 350 L924 380 L1061 426 L1083 436 L1083 437 M575 0 L576 14 L590 118 L598 183 L599 192 L599 195 L599 196 M392 76 L417 75 L595 61 L675 66 L684 69 L687 71 L687 72 M172 178 L180 240 L186 392 L186 454 L187 486 L188 496 M1005 173 L1044 209 L1143 339 L1192 442 L1201 468 L1203 478 L1203 480 L1203 481 M829 92 L947 57 L1019 46 L1069 38 L1072 38 M317 268 L256 159 L224 106 L208 83 L205 79 L203 78 M436 172 L426 167 L319 90 L278 61 L276 60 M49 221 L16 324 L2 366 L0 370 M124 504 L204 536 L289 572 L311 579 " fill="none" stroke="black" /><path d="M493 405 L500 404 L531 403 L560 403 L582 403 L612 403 L648 402 L668 404 L685 407 L690 408 L703 409 L713 409 L717 410 M486 346 L506 320 L517 304 L527 293 L536 287 L541 284 L546 283 L562 281 L576 280 L604 280 L632 286 L658 296 L673 303 L677 307 L680 310 L684 314 L684 316 L686 318 L687 320 M565 216 L563 208 L551 168 M491 289 L445 258 L392 224 L363 204 L354 200 M617 225 L665 176 L694 148 L700 145 M734 255 L813 179 L836 158 M434 373 L361 412 L285 452 L263 463 L260 464 M493 444 L612 488 L639 500 L648 504 L650 505 M698 448 L808 454 L850 457 M712 350 L726 350 L924 380 L1061 426 L1083 436 L1083 437 M575 0 L576 14 L590 118 L598 183 L599 192 L599 195 L599 196 M392 76 L417 75 L595 61 L675 66 L684 69 L687 71 L687 72 M172 178 L180 240 L186 392 L186 454 L187 486 L188 496 M1005 173 L1044 209 L1143 339 L1192 442 L1201 468 L1203 478 L1203 480 L1203 481 M829 92 L947 57 L1019 46 L1069 38 L1072 38 M317 268 L256 159 L224 106 L208 83 L205 79 L203 78 M436 172 L426 167 L319 90 L278 61 L276 60 M49 221 L16 324 L2 366 L0 370 M124 504 L204 536 L289 572 L311 579 M468 532 L611 529 L665 524 L684 520 " fill="none" stroke="black" /><path d="M493 405 L500 404 L531 403 L560 403 L582 403 L612 403 L648 402 L668 404 L685 407 L690 408 L703 409 L713 409 L717 410 M486 346 L506 320 L517 304 L527 293 L536 287 L541 284 L546 283 L562 281 L576 280 L604 280 L632 286 L658 296 L673 303 L677 307 L680 310 L684 314 L684 316 L686 318 L687 320 M565 216 L563 208 L551 168 M491 289 L445 258 L392 224 L363 204 L354 200 M617 225 L665 176 L694 148 L700 145 M734 255 L813 179 L836 158 M434 373 L361 412 L285 452 L263 463 L260 464 M493 444 L612 488 L639 500 L648 504 L650 505 M698 448 L808 454 L850 457 M712 350 L726 350 L924 380 L1061 426 L1083 436 L1083 437 M575 0 L576 14 L590 118 L598 183 L599 192 L599 195 L599 196 M392 76 L417 75 L595 61 L675 66 L684 69 L687 71 L687 72 M172 178 L180 240 L186 392 L186 454 L187 486 L188 496 M1005 173 L1044 209 L1143 339 L1192 442 L1201 468 L1203 478 L1203 480 L1203 481 M829 92 L947 57 L1019 46 L1069 38 L1072 38 M317 268 L256 159 L224 106 L208 83 L205 79 L203 78 M436 172 L426 167 L319 90 L278 61 L276 60 M49 221 L16 324 L2 366 L0 370 M124 504 L204 536 L289 572 L311 579 M468 532 L611 529 L665 524 L684 520 M847 516 L935 506 L1040 502 L1152 511 L1183 517 L1188 520 " fill="none" stroke="black" /><path d="M493 405 L500 404 L531 403 L560 403 L582 403 L612 403 L648 402 L668 404 L685 407 L690 408 L703 409 L713 409 L717 410 M486 346 L506 320 L517 304 L527 293 L536 287 L541 284 L546 283 L562 281 L576 280 L604 280 L632 286 L658 296 L673 303 L677 307 L680 310 L684 314 L684 316 L686 318 L687 320 M565 216 L563 208 L551 168 M491 289 L445 258 L392 224 L363 204 L354 200 M617 225 L665 176 L694 148 L700 145 M734 255 L813 179 L836 158 M434 373 L361 412 L285 452 L263 463 L260 464 M493 444 L612 488 L639 500 L648 504 L650 505 M698 448 L808 454 L850 457 M712 350 L726 350 L924 380 L1061 426 L1083 436 L1083 437 M575 0 L576 14 L590 118 L598 183 L599 192 L599 195 L599 196 M392 76 L417 75 L595 61 L675 66 L684 69 L687 71 L687 72 M172 178 L180 240 L186 392 L186 454 L187 486 L188 496 M1005 173 L1044 209 L1143 339 L1192 442 L1201 468 L1203 478 L1203 480 L1203 481 M829 92 L947 57 L1019 46 L1069 38 L1072 38 M317 268 L256 159 L224 106 L208 83 L205 79 L203 78 M436 172 L426 167 L319 90 L278 61 L276 60 M49 221 L16 324 L2 366 L0 370 M124 504 L204 536 L289 572 L311 579 M468 532 L611 529 L665 524 L684 520 M847 516 L935 506 L1040 502 L1152 511 L1183 517 L1188 520 M998 341 L949 268 L880 157 L872 148 L870 148 " fill="none" stroke="black" /><path d="M493 405 L500 404 L531 403 L560 403 L582 403 L612 403 L648 402 L668 404 L685 407 L690 408 L703 409 L713 409 L717 410 M486 346 L506 320 L517 304 L527 293 L536 287 L541 284 L546 283 L562 281 L576 280 L604 280 L632 286 L658 296 L673 303 L677 307 L680 310 L684 314 L684 316 L686 318 L687 320 M565 216 L563 208 L551 168 M491 289 L445 258 L392 224 L363 204 L354 200 M617 225 L665 176 L694 148 L700 145 M734 255 L813 179 L836 158 M434 373 L361 412 L285 452 L263 463 L260 464 M493 444 L612 488 L639 500 L648 504 L650 505 M698 448 L808 454 L850 457 M712 350 L726 350 L924 380 L1061 426 L1083 436 L1083 437 M575 0 L576 14 L590 118 L598 183 L599 192 L599 195 L599 196 M392 76 L417 75 L595 61 L675 66 L684 69 L687 71 L687 72 M172 178 L180 240 L186 392 L186 454 L187 486 L188 496 M1005 173 L1044 209 L1143 339 L1192 442 L1201 468 L1203 478 L1203 480 L1203 481 M829 92 L947 57 L1019 46 L1069 38 L1072 38 M317 268 L256 159 L224 106 L208 83 L205 79 L203 78 M436 172 L426 167 L319 90 L278 61 L276 60 M49 221 L16 324 L2 366 L0 370 M124 504 L204 536 L289 572 L311 579 M468 532 L611 529 L665 524 L684 520 M847 516 L935 506 L1040 502 L1152 511 L1183 517 L1188 520 M998 341 L949 268 L880 157 L872 148 L870 148 M1081 130 L1156 191 L1226 264 L1256 331 L1268 356 L1269 360 L1269 362 " fill="none" stroke="black" /><path d="M493 405 L500 404 L531 403 L560 403 L582 403 L612 403 L648 402 L668 404 L685 407 L690 408 L703 409 L713 409 L717 410 M486 346 L506 320 L517 304 L527 293 L536 287 L541 284 L546 283 L562 281 L576 280 L604 280 L632 286 L658 296 L673 303 L677 307 L680 310 L684 314 L684 316 L686 318 L687 320 M565 216 L563 208 L551 168 M491 289 L445 258 L392 224 L363 204 L354 200 M617 225 L665 176 L694 148 L700 145 M734 255 L813 179 L836 158 M434 373 L361 412 L285 452 L263 463 L260 464 M493 444 L612 488 L639 500 L648 504 L650 505 M698 448 L808 454 L850 457 M712 350 L726 350 L924 380 L1061 426 L1083 436 L1083 437 M575 0 L576 14 L590 118 L598 183 L599 192 L599 195 L599 196 M392 76 L417 75 L595 61 L675 66 L684 69 L687 71 L687 72 M172 178 L180 240 L186 392 L186 454 L187 486 L188 496 M1005 173 L1044 209 L1143 339 L1192 442 L1201 468 L1203 478 L1203 480 L1203 481 M829 92 L947 57 L1019 46 L1069 38 L1072 38 M317 268 L256 159 L224 106 L208 83 L205 79 L203 78 M436 172 L426 167 L319 90 L278 61 L276 60 M49 221 L16 324 L2 366 L0 370 M124 504 L204 536 L289 572 L311 579 M468 532 L611 529 L665 524 L684 520 M847 516 L935 506 L1040 502 L1152 511 L1183 517 L1188 520 M998 341 L949 268 L880 157 L872 148 L870 148 M1081 130 L1156 191 L1226 264 L1256 331 L1268 356 L1269 360 L1269 362 M623 5 L674 8 L767 9 L784 14 L787 18 " fill="none" stroke="black" /><path d="M493 405 L500 404 L531 403 L560 403 L582 403 L612 403 L648 402 L668 404 L685 407 L690 408 L703 409 L713 409 L717 410 M486 346 L506 320 L517 304 L527 293 L536 287 L541 284 L546 283 L562 281 L576 280 L604 280 L632 286 L658 296 L673 303 L677 307 L680 310 L684 314 L684 316 L686 318 L687 320 M565 216 L563 208 L551 168 M491 289 L445 258 L392 224 L363 204 L354 200 M617 225 L665 176 L694 148 L700 145 M734 255 L813 179 L836 158 M434 373 L361 412 L285 452 L263 463 L260 464 M493 444 L612 488 L639 500 L648 504 L650 505 M698 448 L808 454 L850 457 M712 350 L726 350 L924 380 L1061 426 L1083 436 L1083 437 M575 0 L576 14 L590 118 L598 183 L599 192 L599 195 L599 196 M392 76 L417 75 L595 61 L675 66 L684 69 L687 71 L687 72 M172 178 L180 240 L186 392 L186 454 L187 486 L188 496 M1005 173 L1044 209 L1143 339 L1192 442 L1201 468 L1203 478 L1203 480 L1203 481 M829 92 L947 57 L1019 46 L1069 38 L1072 38 M317 268 L256 159 L224 106 L208 83 L205 79 L203 78 M436 172 L426 167 L319 90 L278 61 L276 60 M49 221 L16 324 L2 366 L0 370 M124 504 L204 536 L289 572 L311 579 M468 532 L611 529 L665 524 L684 520 M847 516 L935 506 L1040 502 L1152 511 L1183 517 L1188 520 M998 341 L949 268 L880 157 L872 148 L870 148 M1081 130 L1156 191 L1226 264 L1256 331 L1268 356 L1269 360 L1269 362 M623 5 L674 8 L767 9 L784 14 L787 18 M404 18 L379 18 L278 20 L264 19 " fill="none" stroke="black" /></svg>