<?xml version="1.0" encoding="utf-8" ?>
<svg baseProfile="tiny" height="363" version="1.2" viewBox="-3 -3 477 363" width="477" xmlns="http://www.w3.org/2000/svg" xmlns:ev="http://www.w3.org/2001/xml-events" xmlns:xlink="http://www.w3.org/1999/xlink"><defs /><path d="M182 227 L184 235 L186 246 L188 254 L193 261 L201 268 L211 276 L228 285 L246 293 L256 298 L262 300 L268 303 L275 305 L281 307 L293 309 L303 310 L316 312 L326 312 L338 312 L351 309 L372 301 L397 289 L412 280 L421 272 L428 263 L436 251 L437 240 L438 226 L433 204 L421 169 L412 153 L408 146 L402 140 L388 129 L383 125 L377 121 L366 114 L353 108 L338 102 L326 97 L312 93 L304 92 L296 91 L287 91 L272 91 L258 92 L247 93 L238 95 L228 97 L216 100 L208 103 L201 107 L196 110 L188 114 L184 116 L179 119 L173 123 L168 126 L163 131 L158 136 L153 143 L149 152 L146 160 L142 171 L141 179 L141 188 L141 194 L141 202 L144 212 L148 222 L153 232 L159 242 L164 251 L174 267 L182 277 L188 285 L194 295 L198 302 L203 308 L206 315 L209 320 L215 328 L227 336 L274 354 L304 362 L308 363 L316 363 L332 361 L347 359 L366 354 L386 349 L406 341 L413 336 L423 328 L428 320 L440 304 L448 290 L453 284 L458 276 L461 269 L467 260 L470 252 L472 248 L472 246 L474 244 L475 241 L476 240 L477 239 L477 238 " fill="none" stroke="black" /><path d="M182 227 L184 235 L186 246 L188 254 L193 261 L201 268 L211 276 L228 285 L246 293 L256 298 L262 300 L268 303 L275 305 L281 307 L293 309 L303 310 L316 312 L326 312 L338 312 L351 309 L372 301 L397 289 L412 280 L421 272 L428 263 L436 251 L437 240 L438 226 L433 204 L421 169 L412 153 L408 146 L402 140 L388 129 L383 125 L377 121 L366 114 L353 108 L338 102 L326 97 L312 93 L304 92 L296 91 L287 91 L272 91 L258 92 L247 93 L238 95 L228 97 L216 100 L208 103 L201 107 L196 110 L188 114 L184 116 L179 119 L173 123 L168 126 L163 131 L158 136 L153 143 L149 152 L146 160 L142 171 L141 179 L141 188 L141 194 L141 202 L144 212 L148 222 L153 232 L159 242 L164 251 L174 267 L182 277 L188 285 L194 295 L198 302 L203 308 L206 315 L209 320 L215 328 L227 336 L274 354 L304 362 L308 363 L316 363 L332 361 L347 359 L366 354 L386 349 L406 341 L413 336 L423 328 L428 320 L440 304 L448 290 L453 284 L458 276 L461 269 L467 260 L470 252 L472 248 L472 246 L474 244 L475 241 L476 240 L477 239 L477 238 M472 224 L470 219 L460 196 L455 187 L451 182 L449 180 L448 178 L446 172 L443 159 L441 149 L437 142 L436 137 L433 132 L432 128 L431 126 L430 124 L427 117 L420 104 L394 65 L373 36 L364 19 L362 16 L361 16 L345 16 L271 8 L212 0 L173 0 L135 1 L120 3 L102 8 L81 18 L68 31 L50 50 L37 68 L25 95 L5 189 L0 222 L0 228 L1 231 L1 232 L1 233 " fill="none" stroke="black" /></svg>