<?xml version="1.0" encoding="utf-8" ?>
<svg baseProfile="tiny" height="501" version="1.2" viewBox="-3 -3 737 501" width="737" xmlns="http://www.w3.org/2000/svg" xmlns:ev="http://www.w3.org/2001/xml-events" xmlns:xlink="http://www.w3.org/1999/xlink"><defs /><circle cx="388" cy="309" fill="black" r="1" /><circle cx="457" cy="302" fill="black" r="1" /><circle cx="438" cy="261" fill="black" r="1" /><circle cx="340" cy="160" fill="black" r="1" /><path d="M329 153 L315 146 L314 146 " fill="none" stroke="black" /><circle cx="314" cy="146" fill="black" r="1" /><circle cx="239" cy="137" fill="black" r="1" /><circle cx="145" cy="175" fill="black" r="1" /><circle cx="144" cy="177" fill="black" r="1" /><circle cx="128" cy="249" fill="black" r="1" /><circle cx="131" cy="282" fill="black" r="1" /><circle cx="148" cy="325" fill="black" r="1" /><circle cx="204" cy="350" fill="black" r="1" /><circle cx="204" cy="350" fill="black" r="1" /><circle cx="339" cy="390" fill="black" r="1" /><circle cx="492" cy="389" fill="black" r="1" /><circle cx="628" cy="326" fill="black" r="1" /><circle cx="531" cy="106" fill="black" r="1" /><circle cx="464" cy="166" fill="black" r="1" /><circle cx="376" cy="200" fill="black" r="1" /><circle cx="325" cy="205" fill="black" r="1" /><circle cx="220" cy="218" fill="black" r="1" /><circle cx="185" cy="249" fill="black" r="1" /><circle cx="251" cy="257" fill="black" r="1" /><circle cx="307" cy="257" fill="black" r="1" /><circle cx="332" cy="255" fill="black" r="1" /><circle cx="260" cy="214" fill="black" r="1" /><circle cx="204" cy="184" fill="black" r="1" /><circle cx="268" cy="173" fill="black" r="1" /><circle cx="264" cy="128" fill="black" r="1" /><circle cx="330" cy="110" fill="black" r="1" /><circle cx="356" cy="145" fill="black" r="1" /><circle cx="396" cy="183" fill="black" r="1" /><circle cx="423" cy="196" fill="black" r="1" /><circle cx="437" cy="205" fill="black" r="1" /><circle cx="492" cy="208" fill="black" r="1" /><circle cx="503" cy="166" fill="black" r="1" /><circle cx="472" cy="109" fill="black" r="1" /><circle cx="420" cy="111" fill="black" r="1" /><circle cx="411" cy="149" fill="black" r="1" /><circle cx="389" cy="136" fill="black" r="1" /><circle cx="376" cy="115" fill="black" r="1" /><circle cx="452" cy="141" fill="black" r="1" /><circle cx="426" cy="174" fill="black" r="1" /><circle cx="483" cy="210" fill="black" r="1" /><circle cx="483" cy="210" fill="black" r="1" /><circle cx="492" cy="273" fill="black" r="1" /><circle cx="501" cy="286" fill="black" r="1" /><circle cx="521" cy="342" fill="black" r="1" /><circle cx="576" cy="341" fill="black" r="1" /><circle cx="545" cy="300" fill="black" r="1" /><circle cx="508" cy="251" fill="black" r="1" /><circle cx="555" cy="265" fill="black" r="1" /><circle cx="524" cy="193" fill="black" r="1" /><circle cx="537" cy="165" fill="black" r="1" /><circle cx="566" cy="156" fill="black" r="1" /><circle cx="588" cy="221" fill="black" r="1" /><circle cx="521" cy="277" fill="black" r="1" /><circle cx="307" cy="501" fill="black" r="1" /><path d="M329 153 L315 146 L314 146 M296 493 L271 477 " fill="none" stroke="black" /><circle cx="259" cy="466" fill="black" r="1" /><circle cx="170" cy="400" fill="black" r="1" /><circle cx="118" cy="355" fill="black" r="1" /><circle cx="118" cy="355" fill="black" r="1" /><circle cx="119" cy="297" fill="black" r="1" /><path d="M329 153 L315 146 L314 146 M296 493 L271 477 M119 297 L120 295 " fill="none" stroke="black" /><circle cx="196" cy="88" fill="black" r="1" /><circle cx="196" cy="88" fill="black" r="1" /><circle cx="196" cy="88" fill="black" r="1" /><circle cx="664" cy="248" fill="black" r="1" /><circle cx="664" cy="248" fill="black" r="1" /><path d="M329 153 L315 146 L314 146 M296 493 L271 477 M119 297 L120 295 M664 248 L652 250 " fill="none" stroke="black" /><path d="M329 153 L315 146 L314 146 M296 493 L271 477 M119 297 L120 295 M664 248 L652 250 M627 253 L580 268 " fill="none" stroke="black" /><circle cx="424" cy="357" fill="black" r="1" /><circle cx="424" cy="357" fill="black" r="1" /><circle cx="283" cy="356" fill="black" r="1" /><circle cx="283" cy="356" fill="black" r="1" /><circle cx="407" cy="446" fill="black" r="1" /><circle cx="407" cy="446" fill="black" r="1" /><path d="M329 153 L315 146 L314 146 M296 493 L271 477 M119 297 L120 295 M664 248 L652 250 M627 253 L580 268 M430 427 L404 317 " fill="none" stroke="black" /><circle cx="356" cy="231" fill="black" r="1" /><circle cx="356" cy="231" fill="black" r="1" /><circle cx="329" cy="221" fill="black" r="1" /><path d="M329 153 L315 146 L314 146 M296 493 L271 477 M119 297 L120 295 M664 248 L652 250 M627 253 L580 268 M430 427 L404 317 M6 174 L10 182 L47 277 L80 356 L93 382 L98 392 " fill="none" stroke="black" /><circle cx="246" cy="75" fill="black" r="1" /><circle cx="347" cy="65" fill="black" r="1" /><circle cx="347" cy="65" fill="black" r="1" /><path d="M329 153 L315 146 L314 146 M296 493 L271 477 M119 297 L120 295 M664 248 L652 250 M627 253 L580 268 M430 427 L404 317 M6 174 L10 182 L47 277 L80 356 L93 382 L98 392 M162 63 L260 37 L424 10 L471 0 L481 0 L482 1 " fill="none" stroke="black" /><circle cx="526" cy="83" fill="black" r="1" /><path d="M329 153 L315 146 L314 146 M296 493 L271 477 M119 297 L120 295 M664 248 L652 250 M627 253 L580 268 M430 427 L404 317 M6 174 L10 182 L47 277 L80 356 L93 382 L98 392 M162 63 L260 37 L424 10 L471 0 L481 0 L482 1 M532 41 L602 85 L679 168 L710 220 L726 260 L735 289 L737 295 L737 297 " fill="none" stroke="black" /><path d="M329 153 L315 146 L314 146 M296 493 L271 477 M119 297 L120 295 M664 248 L652 250 M627 253 L580 268 M430 427 L404 317 M6 174 L10 182 L47 277 L80 356 L93 382 L98 392 M162 63 L260 37 L424 10 L471 0 L481 0 L482 1 M532 41 L602 85 L679 168 L710 220 L726 260 L735 289 L737 295 L737 297 M649 388 L592 416 L530 443 L460 470 L428 475 L403 475 L396 475 L394 475 L392 475 " fill="none" stroke="black" /><circle cx="84" cy="133" fill="black" r="1" /><circle cx="95" cy="177" fill="black" r="1" /><circle cx="158" cy="357" fill="black" r="1" /><circle cx="243" cy="389" fill="black" r="1" /><circle cx="339" cy="442" fill="black" r="1" /><circle cx="186" cy="463" fill="black" r="1" /><circle cx="121" cy="421" fill="black" r="1" /><circle cx="227" cy="426" fill="black" r="1" /><path d="M329 153 L315 146 L314 146 M296 493 L271 477 M119 297 L120 295 M664 248 L652 250 M627 253 L580 268 M430 427 L404 317 M6 174 L10 182 L47 277 L80 356 L93 382 L98 392 M162 63 L260 37 L424 10 L471 0 L481 0 L482 1 M532 41 L602 85 L679 168 L710 220 L726 260 L735 289 L737 295 L737 297 M649 388 L592 416 L530 443 L460 470 L428 475 L403 475 L396 475 L394 475 L392 475 M0 86 L5 85 L18 81 L20 79 L23 78 L25 77 L28 77 L29 76 L32 74 L34 74 L36 74 L39 74 L40 74 L43 73 L47 73 L49 73 L52 73 L53 73 L54 73 " fill="none" stroke="black" /></svg>