<?xml version="1.0" encoding="utf-8" ?>
<svg baseProfile="tiny" height="592" version="1.2" viewBox="-3 -3 1485 592" width="1485" xmlns="http://www.w3.org/2000/svg" xmlns:ev="http://www.w3.org/2001/xml-events" xmlns:xlink="http://www.w3.org/1999/xlink"><defs /><path d="M444 187 L453 243 L487 426 L496 475 L498 481 L496 459 L515 321 L517 307 L520 299 L523 299 L547 338 L578 415 L590 447 L592 450 L592 449 L676 241 L704 166 L704 164 L704 167 L714 208 L748 330 L767 399 L774 423 L774 425 L773 420 L776 327 L781 279 L784 275 L792 279 L856 367 L880 423 L884 435 L880 357 L894 210 L897 200 L898 200 L904 212 L948 323 L972 382 L975 388 L968 335 L980 212 L988 215 L1026 278 L1056 328 L1064 339 L1064 340 L1062 335 L1053 319 L1072 286 L1140 115 L1142 108 L1144 112 L1231 306 L1281 418 L1288 429 L1269 336 L1268 239 L1269 235 L1278 252 L1337 339 L1360 366 L1365 368 L1360 327 L1358 271 L1358 260 L1360 259 L1379 271 L1454 335 L1482 363 L1483 363 L1480 349 L1476 311 L1482 293 L1484 292 L1485 293 L1485 294 L1485 295 " fill="none" stroke="black" /><path d="M444 187 L453 243 L487 426 L496 475 L498 481 L496 459 L515 321 L517 307 L520 299 L523 299 L547 338 L578 415 L590 447 L592 450 L592 449 L676 241 L704 166 L704 164 L704 167 L714 208 L748 330 L767 399 L774 423 L774 425 L773 420 L776 327 L781 279 L784 275 L792 279 L856 367 L880 423 L884 435 L880 357 L894 210 L897 200 L898 200 L904 212 L948 323 L972 382 L975 388 L968 335 L980 212 L988 215 L1026 278 L1056 328 L1064 339 L1064 340 L1062 335 L1053 319 L1072 286 L1140 115 L1142 108 L1144 112 L1231 306 L1281 418 L1288 429 L1269 336 L1268 239 L1269 235 L1278 252 L1337 339 L1360 366 L1365 368 L1360 327 L1358 271 L1358 260 L1360 259 L1379 271 L1454 335 L1482 363 L1483 363 L1480 349 L1476 311 L1482 293 L1484 292 L1485 293 L1485 294 L1485 295 M308 382 L297 264 L288 219 L285 215 L283 218 L270 344 L252 550 L251 592 L249 591 L229 551 L194 203 L182 131 L178 128 L179 173 L158 437 L158 448 L158 443 L156 327 L176 127 L170 127 L163 171 L151 246 L152 279 L148 327 L144 335 L134 315 L104 47 L96 14 L93 23 L66 127 L17 344 L16 358 L15 358 L11 344 L3 303 L2 302 L0 334 L0 432 L0 439 L0 440 L0 439 " fill="none" stroke="black" /><path d="M444 187 L453 243 L487 426 L496 475 L498 481 L496 459 L515 321 L517 307 L520 299 L523 299 L547 338 L578 415 L590 447 L592 450 L592 449 L676 241 L704 166 L704 164 L704 167 L714 208 L748 330 L767 399 L774 423 L774 425 L773 420 L776 327 L781 279 L784 275 L792 279 L856 367 L880 423 L884 435 L880 357 L894 210 L897 200 L898 200 L904 212 L948 323 L972 382 L975 388 L968 335 L980 212 L988 215 L1026 278 L1056 328 L1064 339 L1064 340 L1062 335 L1053 319 L1072 286 L1140 115 L1142 108 L1144 112 L1231 306 L1281 418 L1288 429 L1269 336 L1268 239 L1269 235 L1278 252 L1337 339 L1360 366 L1365 368 L1360 327 L1358 271 L1358 260 L1360 259 L1379 271 L1454 335 L1482 363 L1483 363 L1480 349 L1476 311 L1482 293 L1484 292 L1485 293 L1485 294 L1485 295 M308 382 L297 264 L288 219 L285 215 L283 218 L270 344 L252 550 L251 592 L249 591 L229 551 L194 203 L182 131 L178 128 L179 173 L158 437 L158 448 L158 443 L156 327 L176 127 L170 127 L163 171 L151 246 L152 279 L148 327 L144 335 L134 315 L104 47 L96 14 L93 23 L66 127 L17 344 L16 358 L15 358 L11 344 L3 303 L2 302 L0 334 L0 432 L0 439 L0 440 L0 439 M408 164 L415 143 L443 55 L446 49 L452 59 L491 160 L523 246 L528 252 L530 251 L596 108 L650 4 L660 0 L698 38 L817 223 L828 237 L829 238 L820 193 L832 99 L836 106 L861 158 L889 206 L892 207 L922 64 L938 24 L950 22 L982 45 L1005 65 L1006 65 L998 43 L1013 56 L1020 65 " fill="none" stroke="black" /></svg>