<?xml version="1.0" encoding="utf-8" ?>
<svg baseProfile="tiny" height="220" version="1.2" viewBox="-3 -3 173 220" width="173" xmlns="http://www.w3.org/2000/svg" xmlns:ev="http://www.w3.org/2001/xml-events" xmlns:xlink="http://www.w3.org/1999/xlink"><defs /><path d="M101 123 L105 122 L108 121 L111 119 L114 118 L118 114 L121 113 L123 112 L125 110 L126 107 L127 105 L128 102 L128 101 L128 98 L128 94 L127 87 L125 81 L125 78 L123 74 L121 72 L119 69 L117 66 L113 64 L109 60 L104 58 L100 56 L93 54 L91 54 L87 55 L84 56 L80 58 L76 58 L73 60 L69 62 L66 66 L63 69 L60 72 L57 78 L53 86 L51 94 L49 102 L49 110 L49 118 L50 126 L52 134 L55 145 L57 150 L61 156 L64 161 L65 163 L69 166 L84 168 L97 170 L109 170 L121 169 L126 167 L134 165 L139 163 L145 159 L149 156 L153 152 L158 145 L162 140 L165 130 L169 120 L170 113 L172 105 L173 97 L173 86 L172 75 L169 63 L165 55 L159 45 L153 38 L145 28 L141 22 L137 18 L134 16 L132 14 L129 11 L126 10 L125 9 L122 7 L120 6 L117 6 L116 6 L113 4 L113 3 L112 3 L111 3 L110 3 L109 3 L104 1 L97 1 L92 0 L88 0 L85 0 L81 0 L77 0 L74 0 L71 0 L66 1 L61 2 L55 4 L48 7 L44 10 L39 11 L33 14 L28 17 L25 19 L21 22 L17 25 L15 28 L13 33 L10 38 L8 42 L5 47 L2 55 L2 60 L1 67 L0 74 L0 83 L0 90 L0 98 L0 109 L1 118 L4 133 L6 142 L9 154 L12 162 L15 172 L19 181 L24 190 L29 195 L39 202 L52 208 L65 212 L81 216 L100 219 L110 220 L118 220 L124 220 L129 220 L135 218 L138 218 L141 217 L143 216 L145 215 L147 215 L149 215 " fill="none" stroke="black" /></svg>