<?xml version="1.0" encoding="utf-8" ?>
<svg baseProfile="tiny" height="491" version="1.2" viewBox="-3 -3 863 491" width="863" xmlns="http://www.w3.org/2000/svg" xmlns:ev="http://www.w3.org/2001/xml-events" xmlns:xlink="http://www.w3.org/1999/xlink"><defs /><path d="M459 112 L457 112 L454 111 L453 111 " fill="none" stroke="black" /><path d="M459 112 L457 112 L454 111 L453 111 M417 216 L417 249 L414 286 L413 300 L412 303 L412 305 L411 306 L410 307 " fill="none" stroke="black" /><circle cx="481" cy="261" fill="black" r="1" /><path d="M459 112 L457 112 L454 111 L453 111 M417 216 L417 249 L414 286 L413 300 L412 303 L412 305 L411 306 L410 307 M365 253 L387 253 L422 254 L432 255 L434 256 L437 257 L439 258 L442 259 L445 259 L453 260 L461 261 L467 262 L476 263 L484 263 L489 264 L492 265 L493 266 L496 266 " fill="none" stroke="black" /><path d="M459 112 L457 112 L454 111 L453 111 M417 216 L417 249 L414 286 L413 300 L412 303 L412 305 L411 306 L410 307 M365 253 L387 253 L422 254 L432 255 L434 256 L437 257 L439 258 L442 259 L445 259 L453 260 L461 261 L467 262 L476 263 L484 263 L489 264 L492 265 L493 266 L496 266 M663 143 L666 51 L666 24 L665 21 " fill="none" stroke="black" /><path d="M459 112 L457 112 L454 111 L453 111 M417 216 L417 249 L414 286 L413 300 L412 303 L412 305 L411 306 L410 307 M365 253 L387 253 L422 254 L432 255 L434 256 L437 257 L439 258 L442 259 L445 259 L453 260 L461 261 L467 262 L476 263 L484 263 L489 264 L492 265 L493 266 L496 266 M663 143 L666 51 L666 24 L665 21 M357 38 L291 3 L281 0 " fill="none" stroke="black" /><path d="M459 112 L457 112 L454 111 L453 111 M417 216 L417 249 L414 286 L413 300 L412 303 L412 305 L411 306 L410 307 M365 253 L387 253 L422 254 L432 255 L434 256 L437 257 L439 258 L442 259 L445 259 L453 260 L461 261 L467 262 L476 263 L484 263 L489 264 L492 265 L493 266 L496 266 M663 143 L666 51 L666 24 L665 21 M357 38 L291 3 L281 0 M193 87 L185 103 L137 198 L126 221 " fill="none" stroke="black" /><path d="M459 112 L457 112 L454 111 L453 111 M417 216 L417 249 L414 286 L413 300 L412 303 L412 305 L411 306 L410 307 M365 253 L387 253 L422 254 L432 255 L434 256 L437 257 L439 258 L442 259 L445 259 L453 260 L461 261 L467 262 L476 263 L484 263 L489 264 L492 265 L493 266 L496 266 M663 143 L666 51 L666 24 L665 21 M357 38 L291 3 L281 0 M193 87 L185 103 L137 198 L126 221 M141 278 L153 296 L185 340 L190 349 " fill="none" stroke="black" /><path d="M459 112 L457 112 L454 111 L453 111 M417 216 L417 249 L414 286 L413 300 L412 303 L412 305 L411 306 L410 307 M365 253 L387 253 L422 254 L432 255 L434 256 L437 257 L439 258 L442 259 L445 259 L453 260 L461 261 L467 262 L476 263 L484 263 L489 264 L492 265 L493 266 L496 266 M663 143 L666 51 L666 24 L665 21 M357 38 L291 3 L281 0 M193 87 L185 103 L137 198 L126 221 M141 278 L153 296 L185 340 L190 349 M244 387 L253 392 L361 432 L418 457 L421 460 " fill="none" stroke="black" /><path d="M459 112 L457 112 L454 111 L453 111 M417 216 L417 249 L414 286 L413 300 L412 303 L412 305 L411 306 L410 307 M365 253 L387 253 L422 254 L432 255 L434 256 L437 257 L439 258 L442 259 L445 259 L453 260 L461 261 L467 262 L476 263 L484 263 L489 264 L492 265 L493 266 L496 266 M663 143 L666 51 L666 24 L665 21 M357 38 L291 3 L281 0 M193 87 L185 103 L137 198 L126 221 M141 278 L153 296 L185 340 L190 349 M244 387 L253 392 L361 432 L418 457 L421 460 M506 462 L612 422 L664 402 L681 400 L683 400 " fill="none" stroke="black" /><path d="M459 112 L457 112 L454 111 L453 111 M417 216 L417 249 L414 286 L413 300 L412 303 L412 305 L411 306 L410 307 M365 253 L387 253 L422 254 L432 255 L434 256 L437 257 L439 258 L442 259 L445 259 L453 260 L461 261 L467 262 L476 263 L484 263 L489 264 L492 265 L493 266 L496 266 M663 143 L666 51 L666 24 L665 21 M357 38 L291 3 L281 0 M193 87 L185 103 L137 198 L126 221 M141 278 L153 296 L185 340 L190 349 M244 387 L253 392 L361 432 L418 457 L421 460 M506 462 L612 422 L664 402 L681 400 L683 400 M655 304 L654 297 L653 294 " fill="none" stroke="black" /><path d="M459 112 L457 112 L454 111 L453 111 M417 216 L417 249 L414 286 L413 300 L412 303 L412 305 L411 306 L410 307 M365 253 L387 253 L422 254 L432 255 L434 256 L437 257 L439 258 L442 259 L445 259 L453 260 L461 261 L467 262 L476 263 L484 263 L489 264 L492 265 L493 266 L496 266 M663 143 L666 51 L666 24 L665 21 M357 38 L291 3 L281 0 M193 87 L185 103 L137 198 L126 221 M141 278 L153 296 L185 340 L190 349 M244 387 L253 392 L361 432 L418 457 L421 460 M506 462 L612 422 L664 402 L681 400 L683 400 M655 304 L654 297 L653 294 M585 96 L542 65 L496 27 L486 18 " fill="none" stroke="black" /><path d="M459 112 L457 112 L454 111 L453 111 M417 216 L417 249 L414 286 L413 300 L412 303 L412 305 L411 306 L410 307 M365 253 L387 253 L422 254 L432 255 L434 256 L437 257 L439 258 L442 259 L445 259 L453 260 L461 261 L467 262 L476 263 L484 263 L489 264 L492 265 L493 266 L496 266 M663 143 L666 51 L666 24 L665 21 M357 38 L291 3 L281 0 M193 87 L185 103 L137 198 L126 221 M141 278 L153 296 L185 340 L190 349 M244 387 L253 392 L361 432 L418 457 L421 460 M506 462 L612 422 L664 402 L681 400 L683 400 M655 304 L654 297 L653 294 M585 96 L542 65 L496 27 L486 18 M293 112 L285 104 L284 104 " fill="none" stroke="black" /><path d="M459 112 L457 112 L454 111 L453 111 M417 216 L417 249 L414 286 L413 300 L412 303 L412 305 L411 306 L410 307 M365 253 L387 253 L422 254 L432 255 L434 256 L437 257 L439 258 L442 259 L445 259 L453 260 L461 261 L467 262 L476 263 L484 263 L489 264 L492 265 L493 266 L496 266 M663 143 L666 51 L666 24 L665 21 M357 38 L291 3 L281 0 M193 87 L185 103 L137 198 L126 221 M141 278 L153 296 L185 340 L190 349 M244 387 L253 392 L361 432 L418 457 L421 460 M506 462 L612 422 L664 402 L681 400 L683 400 M655 304 L654 297 L653 294 M585 96 L542 65 L496 27 L486 18 M293 112 L285 104 L284 104 M229 65 L154 50 L122 49 L101 52 L89 56 L67 68 L43 95 L20 140 L3 219 L0 253 L3 280 L12 317 L17 335 L18 340 L18 342 L18 343 " fill="none" stroke="black" /><path d="M459 112 L457 112 L454 111 L453 111 M417 216 L417 249 L414 286 L413 300 L412 303 L412 305 L411 306 L410 307 M365 253 L387 253 L422 254 L432 255 L434 256 L437 257 L439 258 L442 259 L445 259 L453 260 L461 261 L467 262 L476 263 L484 263 L489 264 L492 265 L493 266 L496 266 M663 143 L666 51 L666 24 L665 21 M357 38 L291 3 L281 0 M193 87 L185 103 L137 198 L126 221 M141 278 L153 296 L185 340 L190 349 M244 387 L253 392 L361 432 L418 457 L421 460 M506 462 L612 422 L664 402 L681 400 L683 400 M655 304 L654 297 L653 294 M585 96 L542 65 L496 27 L486 18 M293 112 L285 104 L284 104 M229 65 L154 50 L122 49 L101 52 L89 56 L67 68 L43 95 L20 140 L3 219 L0 253 L3 280 L12 317 L17 335 L18 340 L18 342 L18 343 M413 90 L449 56 L475 40 L501 36 L549 39 L634 56 L691 78 L765 118 L822 160 L848 196 L862 258 L863 302 L860 328 L859 332 L857 334 L857 335 L856 336 L855 336 " fill="none" stroke="black" /><path d="M459 112 L457 112 L454 111 L453 111 M417 216 L417 249 L414 286 L413 300 L412 303 L412 305 L411 306 L410 307 M365 253 L387 253 L422 254 L432 255 L434 256 L437 257 L439 258 L442 259 L445 259 L453 260 L461 261 L467 262 L476 263 L484 263 L489 264 L492 265 L493 266 L496 266 M663 143 L666 51 L666 24 L665 21 M357 38 L291 3 L281 0 M193 87 L185 103 L137 198 L126 221 M141 278 L153 296 L185 340 L190 349 M244 387 L253 392 L361 432 L418 457 L421 460 M506 462 L612 422 L664 402 L681 400 L683 400 M655 304 L654 297 L653 294 M585 96 L542 65 L496 27 L486 18 M293 112 L285 104 L284 104 M229 65 L154 50 L122 49 L101 52 L89 56 L67 68 L43 95 L20 140 L3 219 L0 253 L3 280 L12 317 L17 335 L18 340 L18 342 L18 343 M413 90 L449 56 L475 40 L501 36 L549 39 L634 56 L691 78 L765 118 L822 160 L848 196 L862 258 L863 302 L860 328 L859 332 L857 334 L857 335 L856 336 L855 336 M108 419 L117 424 L166 440 L209 448 L230 451 L254 453 L264 454 L265 454 L265 452 " fill="none" stroke="black" /><path d="M459 112 L457 112 L454 111 L453 111 M417 216 L417 249 L414 286 L413 300 L412 303 L412 305 L411 306 L410 307 M365 253 L387 253 L422 254 L432 255 L434 256 L437 257 L439 258 L442 259 L445 259 L453 260 L461 261 L467 262 L476 263 L484 263 L489 264 L492 265 L493 266 L496 266 M663 143 L666 51 L666 24 L665 21 M357 38 L291 3 L281 0 M193 87 L185 103 L137 198 L126 221 M141 278 L153 296 L185 340 L190 349 M244 387 L253 392 L361 432 L418 457 L421 460 M506 462 L612 422 L664 402 L681 400 L683 400 M655 304 L654 297 L653 294 M585 96 L542 65 L496 27 L486 18 M293 112 L285 104 L284 104 M229 65 L154 50 L122 49 L101 52 L89 56 L67 68 L43 95 L20 140 L3 219 L0 253 L3 280 L12 317 L17 335 L18 340 L18 342 L18 343 M413 90 L449 56 L475 40 L501 36 L549 39 L634 56 L691 78 L765 118 L822 160 L848 196 L862 258 L863 302 L860 328 L859 332 L857 334 L857 335 L856 336 L855 336 M108 419 L117 424 L166 440 L209 448 L230 451 L254 453 L264 454 L265 454 L265 452 M468 488 L491 490 L535 491 L609 489 L645 489 L665 488 L680 488 L707 484 L736 477 L755 468 L782 444 L788 436 L789 436 " fill="none" stroke="black" /><path d="M459 112 L457 112 L454 111 L453 111 M417 216 L417 249 L414 286 L413 300 L412 303 L412 305 L411 306 L410 307 M365 253 L387 253 L422 254 L432 255 L434 256 L437 257 L439 258 L442 259 L445 259 L453 260 L461 261 L467 262 L476 263 L484 263 L489 264 L492 265 L493 266 L496 266 M663 143 L666 51 L666 24 L665 21 M357 38 L291 3 L281 0 M193 87 L185 103 L137 198 L126 221 M141 278 L153 296 L185 340 L190 349 M244 387 L253 392 L361 432 L418 457 L421 460 M506 462 L612 422 L664 402 L681 400 L683 400 M655 304 L654 297 L653 294 M585 96 L542 65 L496 27 L486 18 M293 112 L285 104 L284 104 M229 65 L154 50 L122 49 L101 52 L89 56 L67 68 L43 95 L20 140 L3 219 L0 253 L3 280 L12 317 L17 335 L18 340 L18 342 L18 343 M413 90 L449 56 L475 40 L501 36 L549 39 L634 56 L691 78 L765 118 L822 160 L848 196 L862 258 L863 302 L860 328 L859 332 L857 334 L857 335 L856 336 L855 336 M108 419 L117 424 L166 440 L209 448 L230 451 L254 453 L264 454 L265 454 L265 452 M468 488 L491 490 L535 491 L609 489 L645 489 L665 488 L680 488 L707 484 L736 477 L755 468 L782 444 L788 436 L789 436 M451 110 L443 112 L401 125 L392 129 L375 137 L347 152 L324 168 L313 176 L301 191 L292 208 L283 236 L282 260 L285 268 L297 284 L309 298 L325 312 L331 317 L337 321 L341 324 L353 331 L392 348 L403 353 L406 354 L409 354 L413 354 L417 354 L420 354 L422 354 " fill="none" stroke="black" /></svg>