<?xml version="1.0" encoding="utf-8" ?>
<svg baseProfile="tiny" height="402" version="1.2" viewBox="-3 -3 499 402" width="499" xmlns="http://www.w3.org/2000/svg" xmlns:ev="http://www.w3.org/2001/xml-events" xmlns:xlink="http://www.w3.org/1999/xlink"><defs /><circle cx="158" cy="77" fill="black" r="1" /><path d="M181 214 L169 213 L86 201 L45 198 L34 198 L27 201 L26 201 " fill="none" stroke="black" /><path d="M181 214 L169 213 L86 201 L45 198 L34 198 L27 201 L26 201 M271 158 L271 155 L274 150 L274 146 L276 144 L276 142 L276 140 L276 137 L280 122 L291 72 L294 49 L294 48 L293 48 L292 48 " fill="none" stroke="black" /><path d="M181 214 L169 213 L86 201 L45 198 L34 198 L27 201 L26 201 M271 158 L271 155 L274 150 L274 146 L276 144 L276 142 L276 140 L276 137 L280 122 L291 72 L294 49 L294 48 L293 48 L292 48 M325 175 L346 157 L403 117 L415 109 L418 108 " fill="none" stroke="black" /><path d="M181 214 L169 213 L86 201 L45 198 L34 198 L27 201 L26 201 M271 158 L271 155 L274 150 L274 146 L276 144 L276 142 L276 140 L276 137 L280 122 L291 72 L294 49 L294 48 L293 48 L292 48 M325 175 L346 157 L403 117 L415 109 L418 108 M343 210 L348 221 L388 311 L400 343 L406 360 L407 365 L407 367 L407 369 L407 371 " fill="none" stroke="black" /><path d="M181 214 L169 213 L86 201 L45 198 L34 198 L27 201 L26 201 M271 158 L271 155 L274 150 L274 146 L276 144 L276 142 L276 140 L276 137 L280 122 L291 72 L294 49 L294 48 L293 48 L292 48 M325 175 L346 157 L403 117 L415 109 L418 108 M343 210 L348 221 L388 311 L400 343 L406 360 L407 365 L407 367 L407 369 L407 371 M310 233 L309 255 L307 299 L304 359 L302 387 L300 397 L299 399 L298 401 " fill="none" stroke="black" /><path d="M181 214 L169 213 L86 201 L45 198 L34 198 L27 201 L26 201 M271 158 L271 155 L274 150 L274 146 L276 144 L276 142 L276 140 L276 137 L280 122 L291 72 L294 49 L294 48 L293 48 L292 48 M325 175 L346 157 L403 117 L415 109 L418 108 M343 210 L348 221 L388 311 L400 343 L406 360 L407 365 L407 367 L407 369 L407 371 M310 233 L309 255 L307 299 L304 359 L302 387 L300 397 L299 399 L298 401 M272 248 L231 314 L214 344 L203 361 L201 365 L200 366 " fill="none" stroke="black" /><path d="M181 214 L169 213 L86 201 L45 198 L34 198 L27 201 L26 201 M271 158 L271 155 L274 150 L274 146 L276 144 L276 142 L276 140 L276 137 L280 122 L291 72 L294 49 L294 48 L293 48 L292 48 M325 175 L346 157 L403 117 L415 109 L418 108 M343 210 L348 221 L388 311 L400 343 L406 360 L407 365 L407 367 L407 369 L407 371 M310 233 L309 255 L307 299 L304 359 L302 387 L300 397 L299 399 L298 401 M272 248 L231 314 L214 344 L203 361 L201 365 L200 366 M215 245 L192 263 L178 277 L173 281 L167 284 L158 289 L140 298 L126 307 L117 314 L110 320 L106 325 L103 328 L102 329 L100 332 L98 333 " fill="none" stroke="black" /><path d="M181 214 L169 213 L86 201 L45 198 L34 198 L27 201 L26 201 M271 158 L271 155 L274 150 L274 146 L276 144 L276 142 L276 140 L276 137 L280 122 L291 72 L294 49 L294 48 L293 48 L292 48 M325 175 L346 157 L403 117 L415 109 L418 108 M343 210 L348 221 L388 311 L400 343 L406 360 L407 365 L407 367 L407 369 L407 371 M310 233 L309 255 L307 299 L304 359 L302 387 L300 397 L299 399 L298 401 M272 248 L231 314 L214 344 L203 361 L201 365 L200 366 M215 245 L192 263 L178 277 L173 281 L167 284 L158 289 L140 298 L126 307 L117 314 L110 320 L106 325 L103 328 L102 329 L100 332 L98 333 M322 100 L326 77 L327 69 " fill="none" stroke="black" /><path d="M181 214 L169 213 L86 201 L45 198 L34 198 L27 201 L26 201 M271 158 L271 155 L274 150 L274 146 L276 144 L276 142 L276 140 L276 137 L280 122 L291 72 L294 49 L294 48 L293 48 L292 48 M325 175 L346 157 L403 117 L415 109 L418 108 M343 210 L348 221 L388 311 L400 343 L406 360 L407 365 L407 367 L407 369 L407 371 M310 233 L309 255 L307 299 L304 359 L302 387 L300 397 L299 399 L298 401 M272 248 L231 314 L214 344 L203 361 L201 365 L200 366 M215 245 L192 263 L178 277 L173 281 L167 284 L158 289 L140 298 L126 307 L117 314 L110 320 L106 325 L103 328 L102 329 L100 332 L98 333 M322 100 L326 77 L327 69 M239 106 L227 77 L203 22 L192 3 L189 1 L187 0 " fill="none" stroke="black" /><path d="M181 214 L169 213 L86 201 L45 198 L34 198 L27 201 L26 201 M271 158 L271 155 L274 150 L274 146 L276 144 L276 142 L276 140 L276 137 L280 122 L291 72 L294 49 L294 48 L293 48 L292 48 M325 175 L346 157 L403 117 L415 109 L418 108 M343 210 L348 221 L388 311 L400 343 L406 360 L407 365 L407 367 L407 369 L407 371 M310 233 L309 255 L307 299 L304 359 L302 387 L300 397 L299 399 L298 401 M272 248 L231 314 L214 344 L203 361 L201 365 L200 366 M215 245 L192 263 L178 277 L173 281 L167 284 L158 289 L140 298 L126 307 L117 314 L110 320 L106 325 L103 328 L102 329 L100 332 L98 333 M322 100 L326 77 L327 69 M239 106 L227 77 L203 22 L192 3 L189 1 L187 0 M174 170 L122 165 L78 165 L62 165 L52 165 L49 165 " fill="none" stroke="black" /><path d="M181 214 L169 213 L86 201 L45 198 L34 198 L27 201 L26 201 M271 158 L271 155 L274 150 L274 146 L276 144 L276 142 L276 140 L276 137 L280 122 L291 72 L294 49 L294 48 L293 48 L292 48 M325 175 L346 157 L403 117 L415 109 L418 108 M343 210 L348 221 L388 311 L400 343 L406 360 L407 365 L407 367 L407 369 L407 371 M310 233 L309 255 L307 299 L304 359 L302 387 L300 397 L299 399 L298 401 M272 248 L231 314 L214 344 L203 361 L201 365 L200 366 M215 245 L192 263 L178 277 L173 281 L167 284 L158 289 L140 298 L126 307 L117 314 L110 320 L106 325 L103 328 L102 329 L100 332 L98 333 M322 100 L326 77 L327 69 M239 106 L227 77 L203 22 L192 3 L189 1 L187 0 M174 170 L122 165 L78 165 L62 165 L52 165 L49 165 M150 257 L105 273 L39 308 L10 325 L1 329 L0 330 " fill="none" stroke="black" /><path d="M181 214 L169 213 L86 201 L45 198 L34 198 L27 201 L26 201 M271 158 L271 155 L274 150 L274 146 L276 144 L276 142 L276 140 L276 137 L280 122 L291 72 L294 49 L294 48 L293 48 L292 48 M325 175 L346 157 L403 117 L415 109 L418 108 M343 210 L348 221 L388 311 L400 343 L406 360 L407 365 L407 367 L407 369 L407 371 M310 233 L309 255 L307 299 L304 359 L302 387 L300 397 L299 399 L298 401 M272 248 L231 314 L214 344 L203 361 L201 365 L200 366 M215 245 L192 263 L178 277 L173 281 L167 284 L158 289 L140 298 L126 307 L117 314 L110 320 L106 325 L103 328 L102 329 L100 332 L98 333 M322 100 L326 77 L327 69 M239 106 L227 77 L203 22 L192 3 L189 1 L187 0 M174 170 L122 165 L78 165 L62 165 L52 165 L49 165 M150 257 L105 273 L39 308 L10 325 L1 329 L0 330 M215 279 L209 289 L174 356 L158 385 L152 397 L150 400 L150 401 L148 402 " fill="none" stroke="black" /><path d="M181 214 L169 213 L86 201 L45 198 L34 198 L27 201 L26 201 M271 158 L271 155 L274 150 L274 146 L276 144 L276 142 L276 140 L276 137 L280 122 L291 72 L294 49 L294 48 L293 48 L292 48 M325 175 L346 157 L403 117 L415 109 L418 108 M343 210 L348 221 L388 311 L400 343 L406 360 L407 365 L407 367 L407 369 L407 371 M310 233 L309 255 L307 299 L304 359 L302 387 L300 397 L299 399 L298 401 M272 248 L231 314 L214 344 L203 361 L201 365 L200 366 M215 245 L192 263 L178 277 L173 281 L167 284 L158 289 L140 298 L126 307 L117 314 L110 320 L106 325 L103 328 L102 329 L100 332 L98 333 M322 100 L326 77 L327 69 M239 106 L227 77 L203 22 L192 3 L189 1 L187 0 M174 170 L122 165 L78 165 L62 165 L52 165 L49 165 M150 257 L105 273 L39 308 L10 325 L1 329 L0 330 M215 279 L209 289 L174 356 L158 385 L152 397 L150 400 L150 401 L148 402 M328 255 L342 285 L370 349 L378 371 L383 381 L384 384 " fill="none" stroke="black" /><path d="M181 214 L169 213 L86 201 L45 198 L34 198 L27 201 L26 201 M271 158 L271 155 L274 150 L274 146 L276 144 L276 142 L276 140 L276 137 L280 122 L291 72 L294 49 L294 48 L293 48 L292 48 M325 175 L346 157 L403 117 L415 109 L418 108 M343 210 L348 221 L388 311 L400 343 L406 360 L407 365 L407 367 L407 369 L407 371 M310 233 L309 255 L307 299 L304 359 L302 387 L300 397 L299 399 L298 401 M272 248 L231 314 L214 344 L203 361 L201 365 L200 366 M215 245 L192 263 L178 277 L173 281 L167 284 L158 289 L140 298 L126 307 L117 314 L110 320 L106 325 L103 328 L102 329 L100 332 L98 333 M322 100 L326 77 L327 69 M239 106 L227 77 L203 22 L192 3 L189 1 L187 0 M174 170 L122 165 L78 165 L62 165 L52 165 L49 165 M150 257 L105 273 L39 308 L10 325 L1 329 L0 330 M215 279 L209 289 L174 356 L158 385 L152 397 L150 400 L150 401 L148 402 M328 255 L342 285 L370 349 L378 371 L383 381 L384 384 M358 194 L450 196 L489 204 L498 205 L499 207 " fill="none" stroke="black" /><path d="M181 214 L169 213 L86 201 L45 198 L34 198 L27 201 L26 201 M271 158 L271 155 L274 150 L274 146 L276 144 L276 142 L276 140 L276 137 L280 122 L291 72 L294 49 L294 48 L293 48 L292 48 M325 175 L346 157 L403 117 L415 109 L418 108 M343 210 L348 221 L388 311 L400 343 L406 360 L407 365 L407 367 L407 369 L407 371 M310 233 L309 255 L307 299 L304 359 L302 387 L300 397 L299 399 L298 401 M272 248 L231 314 L214 344 L203 361 L201 365 L200 366 M215 245 L192 263 L178 277 L173 281 L167 284 L158 289 L140 298 L126 307 L117 314 L110 320 L106 325 L103 328 L102 329 L100 332 L98 333 M322 100 L326 77 L327 69 M239 106 L227 77 L203 22 L192 3 L189 1 L187 0 M174 170 L122 165 L78 165 L62 165 L52 165 L49 165 M150 257 L105 273 L39 308 L10 325 L1 329 L0 330 M215 279 L209 289 L174 356 L158 385 L152 397 L150 400 L150 401 L148 402 M328 255 L342 285 L370 349 L378 371 L383 381 L384 384 M358 194 L450 196 L489 204 L498 205 L499 207 M258 171 L254 171 L249 174 L246 177 L244 178 L242 181 L239 182 L237 185 L235 186 L232 190 L229 195 L226 199 L224 205 L222 209 L222 214 L222 221 L222 225 L224 228 L227 233 L238 241 L248 245 L256 249 L263 249 L278 248 L289 245 L299 241 L305 237 L310 234 L311 233 L313 230 L314 229 L314 225 L314 221 L313 213 L310 206 L306 196 L302 189 L299 185 L296 182 L283 176 L274 173 L266 173 L264 174 L260 175 L257 177 " fill="none" stroke="black" /></svg>