<?xml version="1.0" encoding="utf-8" ?>
<svg baseProfile="tiny" height="320" version="1.2" viewBox="-3 -3 378 320" width="378" xmlns="http://www.w3.org/2000/svg" xmlns:ev="http://www.w3.org/2001/xml-events" xmlns:xlink="http://www.w3.org/1999/xlink"><defs /><path d="M233 100 L249 100 L253 100 L255 100 L258 100 L259 100 " fill="none" stroke="black" /><path d="M233 100 L249 100 L253 100 L255 100 L258 100 L259 100 M67 87 L67 102 L69 128 L70 144 L70 152 L72 164 L79 184 L82 197 L83 204 L83 206 L83 208 L83 210 L83 212 L85 216 L85 218 L85 221 L85 224 L85 226 L95 227 L122 228 L147 228 L168 228 L178 229 L185 230 L192 231 L204 232 L214 234 L224 234 L238 234 L248 234 L259 234 L263 234 L270 234 L274 234 L277 234 L279 234 L282 234 L283 234 L284 233 L285 232 L285 228 L285 224 L285 221 L285 217 L285 214 L285 205 L285 192 L285 180 L285 174 L285 167 L285 161 L287 152 L287 144 L289 131 L291 116 L291 107 L291 104 L290 102 L289 100 L289 99 L288 97 L287 97 L285 97 L283 97 L281 97 L279 97 L273 97 L269 97 L264 97 L262 97 L259 97 L256 97 L254 97 L252 97 L251 97 L250 97 " fill="none" stroke="black" /><path d="M233 100 L249 100 L253 100 L255 100 L258 100 L259 100 M67 87 L67 102 L69 128 L70 144 L70 152 L72 164 L79 184 L82 197 L83 204 L83 206 L83 208 L83 210 L83 212 L85 216 L85 218 L85 221 L85 224 L85 226 L95 227 L122 228 L147 228 L168 228 L178 229 L185 230 L192 231 L204 232 L214 234 L224 234 L238 234 L248 234 L259 234 L263 234 L270 234 L274 234 L277 234 L279 234 L282 234 L283 234 L284 233 L285 232 L285 228 L285 224 L285 221 L285 217 L285 214 L285 205 L285 192 L285 180 L285 174 L285 167 L285 161 L287 152 L287 144 L289 131 L291 116 L291 107 L291 104 L290 102 L289 100 L289 99 L288 97 L287 97 L285 97 L283 97 L281 97 L279 97 L273 97 L269 97 L264 97 L262 97 L259 97 L256 97 L254 97 L252 97 L251 97 L250 97 M86 24 L83 24 L72 28 L59 35 L53 41 L47 48 L33 73 L19 108 L9 137 L5 150 L2 164 L0 188 L0 208 L3 227 L7 240 L15 254 L37 278 L63 300 L79 310 L94 316 L110 317 L139 318 L177 320 L207 320 L242 316 L259 312 L280 306 L299 298 L318 288 L347 275 L358 269 L362 265 L368 250 L372 239 L373 232 L375 222 L377 203 L378 176 L378 154 L378 140 L375 117 L373 105 L369 95 L358 75 L341 53 L326 39 L300 21 L283 14 L271 11 L252 6 L239 3 L224 1 L210 0 L185 0 L171 1 L159 4 L149 7 L143 8 L138 9 L131 11 L128 12 L124 12 L122 13 L115 14 L109 14 L106 14 L101 15 L99 15 " fill="none" stroke="black" /></svg>