<?xml version="1.0" encoding="utf-8" ?>
<svg baseProfile="tiny" height="563" version="1.2" viewBox="-3 -3 1250 563" width="1250" xmlns="http://www.w3.org/2000/svg" xmlns:ev="http://www.w3.org/2001/xml-events" xmlns:xlink="http://www.w3.org/1999/xlink"><defs /><path d="M701 403 L728 404 L731 404 L732 404 L769 401 L916 380 L1065 364 L1093 368 L1096 368 L1096 369 " fill="none" stroke="black" /><path d="M701 403 L728 404 L731 404 L732 404 L769 401 L916 380 L1065 364 L1093 368 L1096 368 L1096 369 M291 355 L453 306 L569 279 L571 273 L583 272 L611 272 L673 271 L721 265 L801 259 L877 251 L949 247 L981 250 L999 251 L1007 251 L1013 251 L1046 256 L1053 259 L1055 260 L1056 261 " fill="none" stroke="black" /><path d="M701 403 L728 404 L731 404 L732 404 L769 401 L916 380 L1065 364 L1093 368 L1096 368 L1096 369 M291 355 L453 306 L569 279 L571 273 L583 272 L611 272 L673 271 L721 265 L801 259 L877 251 L949 247 L981 250 L999 251 L1007 251 L1013 251 L1046 256 L1053 259 L1055 260 L1056 261 M281 212 L325 204 L415 185 L486 175 L525 168 L573 162 L622 161 L673 158 L728 164 L764 165 L805 168 L829 165 L849 164 L865 164 L884 162 L889 161 L893 161 L897 160 L900 159 L905 157 L922 153 L927 152 L929 152 L930 152 " fill="none" stroke="black" /><path d="M701 403 L728 404 L731 404 L732 404 L769 401 L916 380 L1065 364 L1093 368 L1096 368 L1096 369 M291 355 L453 306 L569 279 L571 273 L583 272 L611 272 L673 271 L721 265 L801 259 L877 251 L949 247 L981 250 L999 251 L1007 251 L1013 251 L1046 256 L1053 259 L1055 260 L1056 261 M281 212 L325 204 L415 185 L486 175 L525 168 L573 162 L622 161 L673 158 L728 164 L764 165 L805 168 L829 165 L849 164 L865 164 L884 162 L889 161 L893 161 L897 160 L900 159 L905 157 L922 153 L927 152 L929 152 L930 152 M351 505 L371 503 L473 496 L491 488 L483 478 L490 479 L514 480 L549 480 L581 477 L627 473 L666 470 L700 467 L744 461 L785 460 L841 460 L883 460 L921 463 L952 468 L979 472 L1018 481 L1042 488 L1066 496 L1089 501 L1100 502 L1101 502 L1105 503 L1111 504 L1113 504 L1115 505 " fill="none" stroke="black" /><path d="M701 403 L728 404 L731 404 L732 404 L769 401 L916 380 L1065 364 L1093 368 L1096 368 L1096 369 M291 355 L453 306 L569 279 L571 273 L583 272 L611 272 L673 271 L721 265 L801 259 L877 251 L949 247 L981 250 L999 251 L1007 251 L1013 251 L1046 256 L1053 259 L1055 260 L1056 261 M281 212 L325 204 L415 185 L486 175 L525 168 L573 162 L622 161 L673 158 L728 164 L764 165 L805 168 L829 165 L849 164 L865 164 L884 162 L889 161 L893 161 L897 160 L900 159 L905 157 L922 153 L927 152 L929 152 L930 152 M351 505 L371 503 L473 496 L491 488 L483 478 L490 479 L514 480 L549 480 L581 477 L627 473 L666 470 L700 467 L744 461 L785 460 L841 460 L883 460 L921 463 L952 468 L979 472 L1018 481 L1042 488 L1066 496 L1089 501 L1100 502 L1101 502 L1105 503 L1111 504 L1113 504 L1115 505 M245 131 L261 105 L271 92 L273 88 " fill="none" stroke="black" /><path d="M701 403 L728 404 L731 404 L732 404 L769 401 L916 380 L1065 364 L1093 368 L1096 368 L1096 369 M291 355 L453 306 L569 279 L571 273 L583 272 L611 272 L673 271 L721 265 L801 259 L877 251 L949 247 L981 250 L999 251 L1007 251 L1013 251 L1046 256 L1053 259 L1055 260 L1056 261 M281 212 L325 204 L415 185 L486 175 L525 168 L573 162 L622 161 L673 158 L728 164 L764 165 L805 168 L829 165 L849 164 L865 164 L884 162 L889 161 L893 161 L897 160 L900 159 L905 157 L922 153 L927 152 L929 152 L930 152 M351 505 L371 503 L473 496 L491 488 L483 478 L490 479 L514 480 L549 480 L581 477 L627 473 L666 470 L700 467 L744 461 L785 460 L841 460 L883 460 L921 463 L952 468 L979 472 L1018 481 L1042 488 L1066 496 L1089 501 L1100 502 L1101 502 L1105 503 L1111 504 L1113 504 L1115 505 M245 131 L261 105 L271 92 L273 88 M435 90 L513 28 L550 1 L554 0 L554 2 L554 4 " fill="none" stroke="black" /><path d="M701 403 L728 404 L731 404 L732 404 L769 401 L916 380 L1065 364 L1093 368 L1096 368 L1096 369 M291 355 L453 306 L569 279 L571 273 L583 272 L611 272 L673 271 L721 265 L801 259 L877 251 L949 247 L981 250 L999 251 L1007 251 L1013 251 L1046 256 L1053 259 L1055 260 L1056 261 M281 212 L325 204 L415 185 L486 175 L525 168 L573 162 L622 161 L673 158 L728 164 L764 165 L805 168 L829 165 L849 164 L865 164 L884 162 L889 161 L893 161 L897 160 L900 159 L905 157 L922 153 L927 152 L929 152 L930 152 M351 505 L371 503 L473 496 L491 488 L483 478 L490 479 L514 480 L549 480 L581 477 L627 473 L666 470 L700 467 L744 461 L785 460 L841 460 L883 460 L921 463 L952 468 L979 472 L1018 481 L1042 488 L1066 496 L1089 501 L1100 502 L1101 502 L1105 503 L1111 504 L1113 504 L1115 505 M245 131 L261 105 L271 92 L273 88 M435 90 L513 28 L550 1 L554 0 L554 2 L554 4 M566 103 L609 86 L743 29 L817 10 L825 10 L825 12 L823 14 L821 24 L821 47 L824 56 L825 63 L825 68 L825 73 L824 77 L824 84 L824 88 L824 92 L822 93 L821 94 L822 94 L824 94 L844 91 L878 81 L892 77 L893 76 L893 75 " fill="none" stroke="black" /><path d="M701 403 L728 404 L731 404 L732 404 L769 401 L916 380 L1065 364 L1093 368 L1096 368 L1096 369 M291 355 L453 306 L569 279 L571 273 L583 272 L611 272 L673 271 L721 265 L801 259 L877 251 L949 247 L981 250 L999 251 L1007 251 L1013 251 L1046 256 L1053 259 L1055 260 L1056 261 M281 212 L325 204 L415 185 L486 175 L525 168 L573 162 L622 161 L673 158 L728 164 L764 165 L805 168 L829 165 L849 164 L865 164 L884 162 L889 161 L893 161 L897 160 L900 159 L905 157 L922 153 L927 152 L929 152 L930 152 M351 505 L371 503 L473 496 L491 488 L483 478 L490 479 L514 480 L549 480 L581 477 L627 473 L666 470 L700 467 L744 461 L785 460 L841 460 L883 460 L921 463 L952 468 L979 472 L1018 481 L1042 488 L1066 496 L1089 501 L1100 502 L1101 502 L1105 503 L1111 504 L1113 504 L1115 505 M245 131 L261 105 L271 92 L273 88 M435 90 L513 28 L550 1 L554 0 L554 2 L554 4 M566 103 L609 86 L743 29 L817 10 L825 10 L825 12 L823 14 L821 24 L821 47 L824 56 L825 63 L825 68 L825 73 L824 77 L824 84 L824 88 L824 92 L822 93 L821 94 L822 94 L824 94 L844 91 L878 81 L892 77 L893 76 L893 75 M994 163 L1077 137 L1109 136 L1110 136 " fill="none" stroke="black" /><path d="M701 403 L728 404 L731 404 L732 404 L769 401 L916 380 L1065 364 L1093 368 L1096 368 L1096 369 M291 355 L453 306 L569 279 L571 273 L583 272 L611 272 L673 271 L721 265 L801 259 L877 251 L949 247 L981 250 L999 251 L1007 251 L1013 251 L1046 256 L1053 259 L1055 260 L1056 261 M281 212 L325 204 L415 185 L486 175 L525 168 L573 162 L622 161 L673 158 L728 164 L764 165 L805 168 L829 165 L849 164 L865 164 L884 162 L889 161 L893 161 L897 160 L900 159 L905 157 L922 153 L927 152 L929 152 L930 152 M351 505 L371 503 L473 496 L491 488 L483 478 L490 479 L514 480 L549 480 L581 477 L627 473 L666 470 L700 467 L744 461 L785 460 L841 460 L883 460 L921 463 L952 468 L979 472 L1018 481 L1042 488 L1066 496 L1089 501 L1100 502 L1101 502 L1105 503 L1111 504 L1113 504 L1115 505 M245 131 L261 105 L271 92 L273 88 M435 90 L513 28 L550 1 L554 0 L554 2 L554 4 M566 103 L609 86 L743 29 L817 10 L825 10 L825 12 L823 14 L821 24 L821 47 L824 56 L825 63 L825 68 L825 73 L824 77 L824 84 L824 88 L824 92 L822 93 L821 94 L822 94 L824 94 L844 91 L878 81 L892 77 L893 76 L893 75 M994 163 L1077 137 L1109 136 L1110 136 M1162 563 L1192 556 L1243 545 L1249 544 L1250 544 " fill="none" stroke="black" /><path d="M701 403 L728 404 L731 404 L732 404 L769 401 L916 380 L1065 364 L1093 368 L1096 368 L1096 369 M291 355 L453 306 L569 279 L571 273 L583 272 L611 272 L673 271 L721 265 L801 259 L877 251 L949 247 L981 250 L999 251 L1007 251 L1013 251 L1046 256 L1053 259 L1055 260 L1056 261 M281 212 L325 204 L415 185 L486 175 L525 168 L573 162 L622 161 L673 158 L728 164 L764 165 L805 168 L829 165 L849 164 L865 164 L884 162 L889 161 L893 161 L897 160 L900 159 L905 157 L922 153 L927 152 L929 152 L930 152 M351 505 L371 503 L473 496 L491 488 L483 478 L490 479 L514 480 L549 480 L581 477 L627 473 L666 470 L700 467 L744 461 L785 460 L841 460 L883 460 L921 463 L952 468 L979 472 L1018 481 L1042 488 L1066 496 L1089 501 L1100 502 L1101 502 L1105 503 L1111 504 L1113 504 L1115 505 M245 131 L261 105 L271 92 L273 88 M435 90 L513 28 L550 1 L554 0 L554 2 L554 4 M566 103 L609 86 L743 29 L817 10 L825 10 L825 12 L823 14 L821 24 L821 47 L824 56 L825 63 L825 68 L825 73 L824 77 L824 84 L824 88 L824 92 L822 93 L821 94 L822 94 L824 94 L844 91 L878 81 L892 77 L893 76 L893 75 M994 163 L1077 137 L1109 136 L1110 136 M1162 563 L1192 556 L1243 545 L1249 544 L1250 544 M245 514 L229 514 L112 514 L77 517 L65 520 L64 520 L63 520 " fill="none" stroke="black" /><path d="M701 403 L728 404 L731 404 L732 404 L769 401 L916 380 L1065 364 L1093 368 L1096 368 L1096 369 M291 355 L453 306 L569 279 L571 273 L583 272 L611 272 L673 271 L721 265 L801 259 L877 251 L949 247 L981 250 L999 251 L1007 251 L1013 251 L1046 256 L1053 259 L1055 260 L1056 261 M281 212 L325 204 L415 185 L486 175 L525 168 L573 162 L622 161 L673 158 L728 164 L764 165 L805 168 L829 165 L849 164 L865 164 L884 162 L889 161 L893 161 L897 160 L900 159 L905 157 L922 153 L927 152 L929 152 L930 152 M351 505 L371 503 L473 496 L491 488 L483 478 L490 479 L514 480 L549 480 L581 477 L627 473 L666 470 L700 467 L744 461 L785 460 L841 460 L883 460 L921 463 L952 468 L979 472 L1018 481 L1042 488 L1066 496 L1089 501 L1100 502 L1101 502 L1105 503 L1111 504 L1113 504 L1115 505 M245 131 L261 105 L271 92 L273 88 M435 90 L513 28 L550 1 L554 0 L554 2 L554 4 M566 103 L609 86 L743 29 L817 10 L825 10 L825 12 L823 14 L821 24 L821 47 L824 56 L825 63 L825 68 L825 73 L824 77 L824 84 L824 88 L824 92 L822 93 L821 94 L822 94 L824 94 L844 91 L878 81 L892 77 L893 76 L893 75 M994 163 L1077 137 L1109 136 L1110 136 M1162 563 L1192 556 L1243 545 L1249 544 L1250 544 M245 514 L229 514 L112 514 L77 517 L65 520 L64 520 L63 520 M177 336 L113 306 L53 273 L25 260 L13 253 L6 249 L3 248 L1 247 L0 247 " fill="none" stroke="black" /><path d="M701 403 L728 404 L731 404 L732 404 L769 401 L916 380 L1065 364 L1093 368 L1096 368 L1096 369 M291 355 L453 306 L569 279 L571 273 L583 272 L611 272 L673 271 L721 265 L801 259 L877 251 L949 247 L981 250 L999 251 L1007 251 L1013 251 L1046 256 L1053 259 L1055 260 L1056 261 M281 212 L325 204 L415 185 L486 175 L525 168 L573 162 L622 161 L673 158 L728 164 L764 165 L805 168 L829 165 L849 164 L865 164 L884 162 L889 161 L893 161 L897 160 L900 159 L905 157 L922 153 L927 152 L929 152 L930 152 M351 505 L371 503 L473 496 L491 488 L483 478 L490 479 L514 480 L549 480 L581 477 L627 473 L666 470 L700 467 L744 461 L785 460 L841 460 L883 460 L921 463 L952 468 L979 472 L1018 481 L1042 488 L1066 496 L1089 501 L1100 502 L1101 502 L1105 503 L1111 504 L1113 504 L1115 505 M245 131 L261 105 L271 92 L273 88 M435 90 L513 28 L550 1 L554 0 L554 2 L554 4 M566 103 L609 86 L743 29 L817 10 L825 10 L825 12 L823 14 L821 24 L821 47 L824 56 L825 63 L825 68 L825 73 L824 77 L824 84 L824 88 L824 92 L822 93 L821 94 L822 94 L824 94 L844 91 L878 81 L892 77 L893 76 L893 75 M994 163 L1077 137 L1109 136 L1110 136 M1162 563 L1192 556 L1243 545 L1249 544 L1250 544 M245 514 L229 514 L112 514 L77 517 L65 520 L64 520 L63 520 M177 336 L113 306 L53 273 L25 260 L13 253 L6 249 L3 248 L1 247 L0 247 M170 240 L129 216 L96 196 L74 185 L64 180 L59 179 L57 177 " fill="none" stroke="black" /></svg>