<?xml version="1.0" encoding="utf-8" ?>
<svg baseProfile="tiny" height="162" version="1.2" viewBox="-3 -3 198 162" width="198" xmlns="http://www.w3.org/2000/svg" xmlns:ev="http://www.w3.org/2001/xml-events" xmlns:xlink="http://www.w3.org/1999/xlink"><defs /><path d="M91 129 L96 129 L98 129 L102 130 L105 130 L109 130 L112 130 L115 130 L118 130 L120 130 L122 130 L122 128 L122 124 L121 120 L120 116 L118 113 L116 96 L114 88 L114 85 L112 82 L111 81 L110 74 L103 34 L99 21 L98 18 L97 15 L95 13 L93 10 L92 7 L90 6 L86 4 L82 2 L78 1 L74 0 L70 0 L63 1 L54 2 L44 2 L38 2 L30 2 L22 2 L14 2 L9 2 L6 2 L3 2 L2 4 L1 5 L0 6 L0 7 L0 10 L0 13 L1 17 L2 24 L4 35 L6 50 L7 58 L7 67 L10 81 L11 95 L12 105 L14 110 L15 120 L17 126 L18 132 L19 135 L19 138 L19 141 L20 143 L20 145 L22 146 L22 149 L23 150 L24 153 L26 154 L26 155 L26 157 L27 158 L28 158 L28 157 L35 158 L45 159 L54 160 L59 161 L63 161 L69 162 L74 162 L81 162 L86 162 L94 162 L102 161 L110 159 L118 159 L126 158 L134 158 L139 158 L142 158 L146 158 L150 158 L152 158 L154 158 L156 158 L157 158 L158 158 L159 158 L160 158 L161 158 L162 158 L163 158 L164 158 L164 157 L163 153 L162 149 L162 146 L160 144 L159 141 L158 134 L158 130 L158 126 L158 122 L158 119 L158 112 L158 103 L158 94 L158 85 L158 68 L158 60 L157 57 L156 54 L155 53 L154 50 L153 48 L153 47 L151 46 L150 46 L154 46 L165 46 L173 46 L179 46 L183 46 L186 46 L187 46 L190 46 L191 46 L193 46 L194 46 L195 46 L196 46 L197 46 L198 46 " fill="none" stroke="black" /></svg>