<?xml version="1.0" encoding="utf-8" ?>
<svg baseProfile="tiny" height="468" version="1.2" viewBox="-3 -3 739 468" width="739" xmlns="http://www.w3.org/2000/svg" xmlns:ev="http://www.w3.org/2001/xml-events" xmlns:xlink="http://www.w3.org/1999/xlink"><defs /><path d="M274 183 L274 206 L274 244 L269 280 L266 300 L266 307 L266 316 L266 327 L266 333 L266 337 L266 341 L266 343 " fill="none" stroke="black" /><path d="M274 183 L274 206 L274 244 L269 280 L266 300 L266 307 L266 316 L266 327 L266 333 L266 337 L266 341 L266 343 M317 5 L319 42 L322 76 L326 119 L326 145 L326 169 L326 186 L328 205 L329 213 L330 226 L332 248 L334 272 L335 286 L335 293 L335 300 L336 307 L337 316 L337 319 L337 323 L337 327 L337 330 L337 333 L337 336 L337 337 " fill="none" stroke="black" /><path d="M274 183 L274 206 L274 244 L269 280 L266 300 L266 307 L266 316 L266 327 L266 333 L266 337 L266 341 L266 343 M317 5 L319 42 L322 76 L326 119 L326 145 L326 169 L326 186 L328 205 L329 213 L330 226 L332 248 L334 272 L335 286 L335 293 L335 300 L336 307 L337 316 L337 319 L337 323 L337 327 L337 330 L337 333 L337 336 L337 337 M105 72 L121 68 L167 60 L202 59 L239 59 L276 59 L318 59 L337 61 L361 63 L386 64 L395 64 L397 64 L398 64 " fill="none" stroke="black" /><path d="M274 183 L274 206 L274 244 L269 280 L266 300 L266 307 L266 316 L266 327 L266 333 L266 337 L266 341 L266 343 M317 5 L319 42 L322 76 L326 119 L326 145 L326 169 L326 186 L328 205 L329 213 L330 226 L332 248 L334 272 L335 286 L335 293 L335 300 L336 307 L337 316 L337 319 L337 323 L337 327 L337 330 L337 333 L337 336 L337 337 M105 72 L121 68 L167 60 L202 59 L239 59 L276 59 L318 59 L337 61 L361 63 L386 64 L395 64 L397 64 L398 64 M43 315 L52 313 L98 308 L147 303 L177 300 L206 300 L234 300 L268 296 L299 293 L328 292 L348 292 L377 293 L397 295 L412 295 L418 295 L420 295 L421 295 L422 295 L423 295 L424 295 " fill="none" stroke="black" /><path d="M274 183 L274 206 L274 244 L269 280 L266 300 L266 307 L266 316 L266 327 L266 333 L266 337 L266 341 L266 343 M317 5 L319 42 L322 76 L326 119 L326 145 L326 169 L326 186 L328 205 L329 213 L330 226 L332 248 L334 272 L335 286 L335 293 L335 300 L336 307 L337 316 L337 319 L337 323 L337 327 L337 330 L337 333 L337 336 L337 337 M105 72 L121 68 L167 60 L202 59 L239 59 L276 59 L318 59 L337 61 L361 63 L386 64 L395 64 L397 64 L398 64 M43 315 L52 313 L98 308 L147 303 L177 300 L206 300 L234 300 L268 296 L299 293 L328 292 L348 292 L377 293 L397 295 L412 295 L418 295 L420 295 L421 295 L422 295 L423 295 L424 295 M0 157 L82 156 L179 151 L284 145 L358 139 L410 141 L455 145 L474 148 L478 148 L479 149 " fill="none" stroke="black" /><path d="M274 183 L274 206 L274 244 L269 280 L266 300 L266 307 L266 316 L266 327 L266 333 L266 337 L266 341 L266 343 M317 5 L319 42 L322 76 L326 119 L326 145 L326 169 L326 186 L328 205 L329 213 L330 226 L332 248 L334 272 L335 286 L335 293 L335 300 L336 307 L337 316 L337 319 L337 323 L337 327 L337 330 L337 333 L337 336 L337 337 M105 72 L121 68 L167 60 L202 59 L239 59 L276 59 L318 59 L337 61 L361 63 L386 64 L395 64 L397 64 L398 64 M43 315 L52 313 L98 308 L147 303 L177 300 L206 300 L234 300 L268 296 L299 293 L328 292 L348 292 L377 293 L397 295 L412 295 L418 295 L420 295 L421 295 L422 295 L423 295 L424 295 M0 157 L82 156 L179 151 L284 145 L358 139 L410 141 L455 145 L474 148 L478 148 L479 149 M94 0 L97 29 L104 160 L109 224 L118 312 L122 364 L124 402 L126 435 L127 451 L127 456 L127 459 L129 463 L129 464 L129 467 L129 468 " fill="none" stroke="black" /><path d="M274 183 L274 206 L274 244 L269 280 L266 300 L266 307 L266 316 L266 327 L266 333 L266 337 L266 341 L266 343 M317 5 L319 42 L322 76 L326 119 L326 145 L326 169 L326 186 L328 205 L329 213 L330 226 L332 248 L334 272 L335 286 L335 293 L335 300 L336 307 L337 316 L337 319 L337 323 L337 327 L337 330 L337 333 L337 336 L337 337 M105 72 L121 68 L167 60 L202 59 L239 59 L276 59 L318 59 L337 61 L361 63 L386 64 L395 64 L397 64 L398 64 M43 315 L52 313 L98 308 L147 303 L177 300 L206 300 L234 300 L268 296 L299 293 L328 292 L348 292 L377 293 L397 295 L412 295 L418 295 L420 295 L421 295 L422 295 L423 295 L424 295 M0 157 L82 156 L179 151 L284 145 L358 139 L410 141 L455 145 L474 148 L478 148 L479 149 M94 0 L97 29 L104 160 L109 224 L118 312 L122 364 L124 402 L126 435 L127 451 L127 456 L127 459 L129 463 L129 464 L129 467 L129 468 M533 236 L534 236 L548 236 L568 235 L598 234 L622 234 L654 234 L673 234 L694 234 L705 234 L714 234 L724 234 L729 235 L732 236 L734 236 L736 236 L737 236 L738 236 L739 236 L738 236 L734 236 L729 233 L721 231 L679 217 L645 202 L637 196 L635 192 L635 191 L635 189 L635 188 L635 187 L635 186 L636 186 L634 190 L634 195 L634 204 L634 223 L635 246 L636 269 L636 293 L636 303 L636 307 L636 310 L636 312 L636 314 L636 315 L636 316 L636 317 L636 318 L635 318 L634 317 L630 312 L581 252 L519 185 L490 163 L487 162 " fill="none" stroke="black" /></svg>