<?xml version="1.0" encoding="utf-8" ?>
<svg baseProfile="tiny" height="342" version="1.2" viewBox="-3 -3 547 342" width="547" xmlns="http://www.w3.org/2000/svg" xmlns:ev="http://www.w3.org/2001/xml-events" xmlns:xlink="http://www.w3.org/1999/xlink"><defs /><path d="M0 184 L0 181 L0 177 L0 172 L0 166 L0 157 L0 147 L0 136 L0 125 L0 120 L0 111 L1 104 L2 91 L3 80 L5 60 L6 46 L6 35 L6 30 L6 26 L6 22 L6 16 L6 13 L6 8 L6 6 L6 3 L6 1 L6 0 L10 0 L21 0 L40 0 L65 3 L93 5 L125 7 L134 9 L141 11 L149 12 L151 13 L154 14 L155 13 L155 16 L155 29 L155 55 L155 91 L152 126 L148 152 L145 175 L145 191 L142 211 L141 226 L140 233 L140 235 L139 238 L139 239 L139 243 L139 245 L139 249 L139 252 L141 257 L141 260 L141 264 L141 267 L141 268 L141 269 L143 269 L155 271 L181 275 L202 276 L221 278 L232 279 L241 279 L249 280 L255 282 L261 283 L263 284 L264 283 L264 281 L261 255 L260 221 L258 201 L255 178 L253 158 L253 146 L250 117 L248 99 L243 74 L238 51 L235 35 L233 30 L233 24 L232 18 L229 13 L229 11 L228 7 L228 6 L228 4 L228 3 L228 2 L228 1 L231 2 L242 4 L254 6 L279 9 L314 15 L336 18 L346 21 L351 22 L355 23 L357 24 L359 26 L361 27 L362 31 L367 43 L375 163 L369 230 L364 290 L358 314 L357 325 L357 327 L355 330 L354 331 L353 334 L353 335 L353 337 L353 338 L353 339 L360 339 L382 338 L403 337 L423 337 L429 337 L436 337 L443 337 L451 337 L459 337 L469 337 L477 338 L489 339 L500 340 L507 341 L513 342 L517 342 L522 342 L529 342 L533 342 L536 342 L540 342 L543 342 L545 342 L547 342 " fill="none" stroke="black" /></svg>