<?xml version="1.0" encoding="utf-8" ?>
<svg baseProfile="tiny" height="338" version="1.2" viewBox="-3 -3 1236 338" width="1236" xmlns="http://www.w3.org/2000/svg" xmlns:ev="http://www.w3.org/2001/xml-events" xmlns:xlink="http://www.w3.org/1999/xlink"><defs /><path d="M109 238 L108 231 L107 200 L109 182 L109 177 L111 167 L116 138 L120 129 L129 107 L160 53 L175 39 L193 27 L231 12 L277 0 L308 1 L325 5 L352 20 L376 38 L393 69 L400 104 L401 149 L391 185 L380 209 L363 230 L339 256 L314 271 L284 278 L258 278 L247 277 L238 273 L232 269 L224 259 L210 236 L198 214 L194 169 L197 148 L200 142 L202 141 L206 140 L210 139 L213 139 L216 139 L218 139 L219 139 " fill="none" stroke="black" /><path d="M109 238 L108 231 L107 200 L109 182 L109 177 L111 167 L116 138 L120 129 L129 107 L160 53 L175 39 L193 27 L231 12 L277 0 L308 1 L325 5 L352 20 L376 38 L393 69 L400 104 L401 149 L391 185 L380 209 L363 230 L339 256 L314 271 L284 278 L258 278 L247 277 L238 273 L232 269 L224 259 L210 236 L198 214 L194 169 L197 148 L200 142 L202 141 L206 140 L210 139 L213 139 L216 139 L218 139 L219 139 M407 165 L433 161 L472 154 L486 153 L513 145 L540 139 L569 134 L586 133 L596 133 L608 133 L631 135 L643 136 L650 138 L656 140 L661 141 L663 141 L665 141 L666 141 " fill="none" stroke="black" /><path d="M109 238 L108 231 L107 200 L109 182 L109 177 L111 167 L116 138 L120 129 L129 107 L160 53 L175 39 L193 27 L231 12 L277 0 L308 1 L325 5 L352 20 L376 38 L393 69 L400 104 L401 149 L391 185 L380 209 L363 230 L339 256 L314 271 L284 278 L258 278 L247 277 L238 273 L232 269 L224 259 L210 236 L198 214 L194 169 L197 148 L200 142 L202 141 L206 140 L210 139 L213 139 L216 139 L218 139 L219 139 M407 165 L433 161 L472 154 L486 153 L513 145 L540 139 L569 134 L586 133 L596 133 L608 133 L631 135 L643 136 L650 138 L656 140 L661 141 L663 141 L665 141 L666 141 M664 35 L666 40 L678 75 L688 113 L693 145 L696 162 L699 177 L700 197 L703 214 L705 236 L708 259 L711 278 L712 290 L712 301 L714 309 L714 316 L714 320 L714 322 L714 324 L714 326 L714 327 " fill="none" stroke="black" /><path d="M109 238 L108 231 L107 200 L109 182 L109 177 L111 167 L116 138 L120 129 L129 107 L160 53 L175 39 L193 27 L231 12 L277 0 L308 1 L325 5 L352 20 L376 38 L393 69 L400 104 L401 149 L391 185 L380 209 L363 230 L339 256 L314 271 L284 278 L258 278 L247 277 L238 273 L232 269 L224 259 L210 236 L198 214 L194 169 L197 148 L200 142 L202 141 L206 140 L210 139 L213 139 L216 139 L218 139 L219 139 M407 165 L433 161 L472 154 L486 153 L513 145 L540 139 L569 134 L586 133 L596 133 L608 133 L631 135 L643 136 L650 138 L656 140 L661 141 L663 141 L665 141 L666 141 M664 35 L666 40 L678 75 L688 113 L693 145 L696 162 L699 177 L700 197 L703 214 L705 236 L708 259 L711 278 L712 290 L712 301 L714 309 L714 316 L714 320 L714 322 L714 324 L714 326 L714 327 M732 177 L758 170 L800 163 L840 161 L868 158 L880 158 L892 158 L896 158 L898 158 " fill="none" stroke="black" /><path d="M109 238 L108 231 L107 200 L109 182 L109 177 L111 167 L116 138 L120 129 L129 107 L160 53 L175 39 L193 27 L231 12 L277 0 L308 1 L325 5 L352 20 L376 38 L393 69 L400 104 L401 149 L391 185 L380 209 L363 230 L339 256 L314 271 L284 278 L258 278 L247 277 L238 273 L232 269 L224 259 L210 236 L198 214 L194 169 L197 148 L200 142 L202 141 L206 140 L210 139 L213 139 L216 139 L218 139 L219 139 M407 165 L433 161 L472 154 L486 153 L513 145 L540 139 L569 134 L586 133 L596 133 L608 133 L631 135 L643 136 L650 138 L656 140 L661 141 L663 141 L665 141 L666 141 M664 35 L666 40 L678 75 L688 113 L693 145 L696 162 L699 177 L700 197 L703 214 L705 236 L708 259 L711 278 L712 290 L712 301 L714 309 L714 316 L714 320 L714 322 L714 324 L714 326 L714 327 M732 177 L758 170 L800 163 L840 161 L868 158 L880 158 L892 158 L896 158 L898 158 M968 165 L974 164 L983 159 L993 148 L1000 138 L1003 132 L1003 128 L1000 115 L984 89 L971 73 L964 69 L957 67 L931 67 L904 70 L886 75 L872 87 L831 158 L813 200 L811 220 L817 232 L832 253 L882 301 L937 325 L984 330 L1010 322 L1020 317 L1023 317 L1024 317 L1025 317 " fill="none" stroke="black" /><path d="M109 238 L108 231 L107 200 L109 182 L109 177 L111 167 L116 138 L120 129 L129 107 L160 53 L175 39 L193 27 L231 12 L277 0 L308 1 L325 5 L352 20 L376 38 L393 69 L400 104 L401 149 L391 185 L380 209 L363 230 L339 256 L314 271 L284 278 L258 278 L247 277 L238 273 L232 269 L224 259 L210 236 L198 214 L194 169 L197 148 L200 142 L202 141 L206 140 L210 139 L213 139 L216 139 L218 139 L219 139 M407 165 L433 161 L472 154 L486 153 L513 145 L540 139 L569 134 L586 133 L596 133 L608 133 L631 135 L643 136 L650 138 L656 140 L661 141 L663 141 L665 141 L666 141 M664 35 L666 40 L678 75 L688 113 L693 145 L696 162 L699 177 L700 197 L703 214 L705 236 L708 259 L711 278 L712 290 L712 301 L714 309 L714 316 L714 320 L714 322 L714 324 L714 326 L714 327 M732 177 L758 170 L800 163 L840 161 L868 158 L880 158 L892 158 L896 158 L898 158 M968 165 L974 164 L983 159 L993 148 L1000 138 L1003 132 L1003 128 L1000 115 L984 89 L971 73 L964 69 L957 67 L931 67 L904 70 L886 75 L872 87 L831 158 L813 200 L811 220 L817 232 L832 253 L882 301 L937 325 L984 330 L1010 322 L1020 317 L1023 317 L1024 317 L1025 317 M1036 182 L1096 173 L1134 168 L1163 165 L1168 165 L1169 165 L1170 163 L1170 162 " fill="none" stroke="black" /><path d="M109 238 L108 231 L107 200 L109 182 L109 177 L111 167 L116 138 L120 129 L129 107 L160 53 L175 39 L193 27 L231 12 L277 0 L308 1 L325 5 L352 20 L376 38 L393 69 L400 104 L401 149 L391 185 L380 209 L363 230 L339 256 L314 271 L284 278 L258 278 L247 277 L238 273 L232 269 L224 259 L210 236 L198 214 L194 169 L197 148 L200 142 L202 141 L206 140 L210 139 L213 139 L216 139 L218 139 L219 139 M407 165 L433 161 L472 154 L486 153 L513 145 L540 139 L569 134 L586 133 L596 133 L608 133 L631 135 L643 136 L650 138 L656 140 L661 141 L663 141 L665 141 L666 141 M664 35 L666 40 L678 75 L688 113 L693 145 L696 162 L699 177 L700 197 L703 214 L705 236 L708 259 L711 278 L712 290 L712 301 L714 309 L714 316 L714 320 L714 322 L714 324 L714 326 L714 327 M732 177 L758 170 L800 163 L840 161 L868 158 L880 158 L892 158 L896 158 L898 158 M968 165 L974 164 L983 159 L993 148 L1000 138 L1003 132 L1003 128 L1000 115 L984 89 L971 73 L964 69 L957 67 L931 67 L904 70 L886 75 L872 87 L831 158 L813 200 L811 220 L817 232 L832 253 L882 301 L937 325 L984 330 L1010 322 L1020 317 L1023 317 L1024 317 L1025 317 M1036 182 L1096 173 L1134 168 L1163 165 L1168 165 L1169 165 L1170 163 L1170 162 M1173 77 L1190 110 L1208 155 L1220 203 L1230 243 L1235 272 L1236 289 L1236 313 L1236 328 L1236 333 L1236 336 L1236 337 L1236 338 " fill="none" stroke="black" /><path d="M109 238 L108 231 L107 200 L109 182 L109 177 L111 167 L116 138 L120 129 L129 107 L160 53 L175 39 L193 27 L231 12 L277 0 L308 1 L325 5 L352 20 L376 38 L393 69 L400 104 L401 149 L391 185 L380 209 L363 230 L339 256 L314 271 L284 278 L258 278 L247 277 L238 273 L232 269 L224 259 L210 236 L198 214 L194 169 L197 148 L200 142 L202 141 L206 140 L210 139 L213 139 L216 139 L218 139 L219 139 M407 165 L433 161 L472 154 L486 153 L513 145 L540 139 L569 134 L586 133 L596 133 L608 133 L631 135 L643 136 L650 138 L656 140 L661 141 L663 141 L665 141 L666 141 M664 35 L666 40 L678 75 L688 113 L693 145 L696 162 L699 177 L700 197 L703 214 L705 236 L708 259 L711 278 L712 290 L712 301 L714 309 L714 316 L714 320 L714 322 L714 324 L714 326 L714 327 M732 177 L758 170 L800 163 L840 161 L868 158 L880 158 L892 158 L896 158 L898 158 M968 165 L974 164 L983 159 L993 148 L1000 138 L1003 132 L1003 128 L1000 115 L984 89 L971 73 L964 69 L957 67 L931 67 L904 70 L886 75 L872 87 L831 158 L813 200 L811 220 L817 232 L832 253 L882 301 L937 325 L984 330 L1010 322 L1020 317 L1023 317 L1024 317 L1025 317 M1036 182 L1096 173 L1134 168 L1163 165 L1168 165 L1169 165 L1170 163 L1170 162 M1173 77 L1190 110 L1208 155 L1220 203 L1230 243 L1235 272 L1236 289 L1236 313 L1236 328 L1236 333 L1236 336 L1236 337 L1236 338 M0 167 L20 165 L30 165 L32 165 L35 165 L37 165 L40 165 L41 165 " fill="none" stroke="black" /></svg>