<?xml version="1.0" encoding="utf-8" ?>
<svg baseProfile="tiny" height="428" version="1.2" viewBox="-3 -3 1340 428" width="1340" xmlns="http://www.w3.org/2000/svg" xmlns:ev="http://www.w3.org/2001/xml-events" xmlns:xlink="http://www.w3.org/1999/xlink"><defs /><path d="M442 405 L442 406 L440 395 L429 323 L428 238 L430 192 L432 184 L433 184 L433 186 L432 186 L436 189 L465 217 L546 324 L583 392 L594 412 L596 416 L596 418 L597 415 L597 373 L615 226 L606 166 L600 138 L600 136 L600 137 L600 138 L600 139 L602 144 L618 169 L689 273 L712 305 L721 318 L723 322 L722 322 L720 321 L741 219 L753 106 L761 23 L761 21 L761 22 L763 27 L772 58 L812 188 L844 299 L855 331 L859 339 L859 341 L859 342 L862 322 L890 183 L910 25 L911 1 L911 0 L911 1 L911 3 L911 5 L911 6 L911 8 L911 13 L965 202 L1028 342 L1039 369 L1040 370 L1038 369 L1040 362 L1085 159 L1088 106 L1087 87 L1087 82 L1088 81 L1088 80 L1089 80 L1092 83 L1114 116 L1168 193 L1192 244 L1209 280 L1212 286 L1209 271 L1205 228 L1207 120 L1207 79 L1206 70 L1206 68 L1207 68 L1208 68 L1208 69 L1215 75 L1244 106 L1324 243 L1339 286 L1340 294 L1340 295 L1340 296 " fill="none" stroke="black" /><path d="M442 405 L442 406 L440 395 L429 323 L428 238 L430 192 L432 184 L433 184 L433 186 L432 186 L436 189 L465 217 L546 324 L583 392 L594 412 L596 416 L596 418 L597 415 L597 373 L615 226 L606 166 L600 138 L600 136 L600 137 L600 138 L600 139 L602 144 L618 169 L689 273 L712 305 L721 318 L723 322 L722 322 L720 321 L741 219 L753 106 L761 23 L761 21 L761 22 L763 27 L772 58 L812 188 L844 299 L855 331 L859 339 L859 341 L859 342 L862 322 L890 183 L910 25 L911 1 L911 0 L911 1 L911 3 L911 5 L911 6 L911 8 L911 13 L965 202 L1028 342 L1039 369 L1040 370 L1038 369 L1040 362 L1085 159 L1088 106 L1087 87 L1087 82 L1088 81 L1088 80 L1089 80 L1092 83 L1114 116 L1168 193 L1192 244 L1209 280 L1212 286 L1209 271 L1205 228 L1207 120 L1207 79 L1206 70 L1206 68 L1207 68 L1208 68 L1208 69 L1215 75 L1244 106 L1324 243 L1339 286 L1340 294 L1340 295 L1340 296 M304 313 L286 210 L276 115 L262 34 L254 13 L252 12 L251 14 L251 18 L248 67 L217 313 L200 414 L196 426 L195 428 L193 428 L192 427 L190 413 L184 326 L185 251 L184 218 L184 217 L183 218 L181 218 L180 222 L179 226 L177 242 L168 324 L164 365 L160 378 L159 378 L153 365 L134 298 L103 194 L96 139 L91 123 L89 122 L88 122 L86 122 L84 129 L81 190 L69 265 L63 303 L57 322 L54 326 L52 326 L47 319 L38 288 L37 246 L37 191 L33 170 L32 167 L30 169 L28 180 L21 216 L8 270 L3 294 L1 300 L0 301 " fill="none" stroke="black" /></svg>