<?xml version="1.0" encoding="utf-8" ?>
<svg baseProfile="tiny" height="262" version="1.2" viewBox="-3 -3 496 262" width="496" xmlns="http://www.w3.org/2000/svg" xmlns:ev="http://www.w3.org/2001/xml-events" xmlns:xlink="http://www.w3.org/1999/xlink"><defs /><path d="M1 0 L0 0 L0 2 L4 5 L12 9 L21 12 L27 12 L33 12 L39 10 L43 8 L44 7 L47 6 L48 4 L49 4 L50 4 L49 4 L48 6 L45 8 L44 10 L43 13 L42 16 L42 21 L45 24 L59 28 L82 28 L111 28 L122 28 L126 28 L128 28 L130 28 L131 28 L130 29 L128 31 L126 34 L115 50 L106 71 L100 91 L98 102 L98 111 L100 115 L104 120 L108 121 L116 123 L120 123 L122 123 L124 123 L150 120 L171 112 L176 109 L176 107 L176 104 L173 102 L170 101 L167 103 L164 106 L164 112 L164 118 L168 131 L174 140 L184 148 L201 153 L223 156 L228 156 L230 156 L231 156 L234 156 L236 156 L238 156 L238 153 L237 151 L236 150 L233 149 L232 149 L228 150 L225 152 L224 156 L221 160 L220 162 L220 167 L220 171 L224 176 L246 186 L290 196 L308 197 L312 198 L313 198 L314 198 L324 196 L328 195 L331 191 L332 188 L331 184 L326 181 L324 179 L320 179 L314 180 L310 182 L304 186 L301 190 L299 195 L296 200 L295 208 L295 217 L295 225 L298 232 L303 236 L310 240 L324 244 L354 247 L367 246 L380 244 L386 242 L388 240 L391 240 L392 238 L393 237 L393 235 L391 233 L385 232 L380 233 L376 236 L371 239 L366 244 L364 248 L364 253 L364 256 L368 259 L372 260 L384 262 L408 259 L443 254 L465 248 L486 236 L492 229 L495 224 L496 220 L496 216 L496 212 L496 210 L495 205 L492 200 L488 190 L483 182 L480 179 L478 177 L476 176 L472 176 L471 176 L468 176 L467 176 " fill="none" stroke="black" /></svg>