<?xml version="1.0" encoding="utf-8" ?>
<svg baseProfile="tiny" height="520" version="1.2" viewBox="-3 -3 1013 520" width="1013" xmlns="http://www.w3.org/2000/svg" xmlns:ev="http://www.w3.org/2001/xml-events" xmlns:xlink="http://www.w3.org/1999/xlink"><defs /><path d="M0 297 L1 292 L6 269 L16 207 L20 190 L21 188 L26 196 L45 222 L58 239 L60 240 L56 220 L51 200 L87 262 L105 281 L108 252 L113 168 L114 180 L149 264 L183 292 L213 232 L224 175 L220 181 L227 244 L239 261 L243 236 L247 183 L246 192 L251 235 L260 246 L265 208 L279 108 L278 120 L298 200 L321 232 L325 224 L309 84 L308 82 L319 128 L356 198 L361 196 L353 72 L351 63 L393 208 L422 269 L426 264 L412 116 L415 121 L457 257 L473 296 L476 296 L461 272 L453 265 L537 168 L660 1 L653 0 L648 22 L669 148 L686 173 L689 172 L682 148 L677 147 L700 223 L721 250 L726 237 L729 125 L727 122 L763 248 L786 288 L793 276 L799 209 L801 208 L797 260 L800 315 L803 314 L815 246 L825 215 L832 228 L851 274 L857 275 L897 158 L901 158 L906 196 L914 238 L917 235 L941 163 L944 164 L939 222 L939 234 L943 216 L977 117 L980 169 L983 280 L984 285 L986 279 L993 253 L994 259 L1003 302 L1003 310 L1011 324 L1013 358 L956 508 L951 520 L948 508 L942 441 L937 431 L920 462 L905 490 L907 468 L949 393 L953 400 L941 453 L939 458 L921 432 L880 403 L813 428 L761 469 L754 473 L777 388 L802 313 L794 337 L761 416 L757 422 L758 390 L760 368 L751 390 L734 420 L729 407 L729 360 L721 372 L681 428 L673 428 L672 384 L672 375 L667 386 L647 421 L642 424 L636 381 L631 372 L614 398 L605 408 L600 401 L592 384 L585 392 L577 406 L568 411 L557 406 L553 404 L551 404 L549 405 L549 406 " fill="none" stroke="black" /></svg>