<?xml version="1.0" encoding="utf-8" ?>
<svg baseProfile="tiny" height="378" version="1.2" viewBox="-3 -3 319 378" width="319" xmlns="http://www.w3.org/2000/svg" xmlns:ev="http://www.w3.org/2001/xml-events" xmlns:xlink="http://www.w3.org/1999/xlink"><defs /><path d="M0 305 L0 270 L0 255 L0 248 L0 243 L0 237 L0 231 L0 228 L0 226 L0 225 L0 223 " fill="none" stroke="black" /><path d="M0 305 L0 270 L0 255 L0 248 L0 243 L0 237 L0 231 L0 228 L0 226 L0 225 L0 223 M33 330 L32 297 L32 271 L30 235 L29 223 L29 217 L28 213 L27 210 L26 207 L26 199 L26 196 L25 194 L25 192 L24 191 " fill="none" stroke="black" /><path d="M0 305 L0 270 L0 255 L0 248 L0 243 L0 237 L0 231 L0 228 L0 226 L0 225 L0 223 M33 330 L32 297 L32 271 L30 235 L29 223 L29 217 L28 213 L27 210 L26 207 L26 199 L26 196 L25 194 L25 192 L24 191 M73 362 L64 243 L62 182 L60 145 L61 113 L65 66 L68 41 L68 33 L68 31 L67 30 L66 29 " fill="none" stroke="black" /><path d="M0 305 L0 270 L0 255 L0 248 L0 243 L0 237 L0 231 L0 228 L0 226 L0 225 L0 223 M33 330 L32 297 L32 271 L30 235 L29 223 L29 217 L28 213 L27 210 L26 207 L26 199 L26 196 L25 194 L25 192 L24 191 M73 362 L64 243 L62 182 L60 145 L61 113 L65 66 L68 41 L68 33 L68 31 L67 30 L66 29 M116 359 L115 355 L113 349 L112 340 L112 332 L112 322 L111 310 L108 292 L108 289 L108 287 " fill="none" stroke="black" /><path d="M0 305 L0 270 L0 255 L0 248 L0 243 L0 237 L0 231 L0 228 L0 226 L0 225 L0 223 M33 330 L32 297 L32 271 L30 235 L29 223 L29 217 L28 213 L27 210 L26 207 L26 199 L26 196 L25 194 L25 192 L24 191 M73 362 L64 243 L62 182 L60 145 L61 113 L65 66 L68 41 L68 33 L68 31 L67 30 L66 29 M116 359 L115 355 L113 349 L112 340 L112 332 L112 322 L111 310 L108 292 L108 289 L108 287 M133 356 L133 355 L133 353 L133 350 L133 348 L132 344 L130 334 L129 323 L128 317 L128 314 L128 310 L127 308 L127 305 L127 303 L127 301 L127 299 L126 295 L125 293 L125 291 " fill="none" stroke="black" /><path d="M0 305 L0 270 L0 255 L0 248 L0 243 L0 237 L0 231 L0 228 L0 226 L0 225 L0 223 M33 330 L32 297 L32 271 L30 235 L29 223 L29 217 L28 213 L27 210 L26 207 L26 199 L26 196 L25 194 L25 192 L24 191 M73 362 L64 243 L62 182 L60 145 L61 113 L65 66 L68 41 L68 33 L68 31 L67 30 L66 29 M116 359 L115 355 L113 349 L112 340 L112 332 L112 322 L111 310 L108 292 L108 289 L108 287 M133 356 L133 355 L133 353 L133 350 L133 348 L132 344 L130 334 L129 323 L128 317 L128 314 L128 310 L127 308 L127 305 L127 303 L127 301 L127 299 L126 295 L125 293 L125 291 M164 351 L164 343 L164 333 L164 327 L164 322 L164 318 L164 312 L164 308 L164 305 L164 301 L164 298 L164 295 L164 291 L164 288 L164 284 L164 283 " fill="none" stroke="black" /><path d="M0 305 L0 270 L0 255 L0 248 L0 243 L0 237 L0 231 L0 228 L0 226 L0 225 L0 223 M33 330 L32 297 L32 271 L30 235 L29 223 L29 217 L28 213 L27 210 L26 207 L26 199 L26 196 L25 194 L25 192 L24 191 M73 362 L64 243 L62 182 L60 145 L61 113 L65 66 L68 41 L68 33 L68 31 L67 30 L66 29 M116 359 L115 355 L113 349 L112 340 L112 332 L112 322 L111 310 L108 292 L108 289 L108 287 M133 356 L133 355 L133 353 L133 350 L133 348 L132 344 L130 334 L129 323 L128 317 L128 314 L128 310 L127 308 L127 305 L127 303 L127 301 L127 299 L126 295 L125 293 L125 291 M164 351 L164 343 L164 333 L164 327 L164 322 L164 318 L164 312 L164 308 L164 305 L164 301 L164 298 L164 295 L164 291 L164 288 L164 284 L164 283 M210 378 L205 292 L210 98 L214 35 L212 10 L212 2 L212 1 L210 0 L209 0 " fill="none" stroke="black" /><path d="M0 305 L0 270 L0 255 L0 248 L0 243 L0 237 L0 231 L0 228 L0 226 L0 225 L0 223 M33 330 L32 297 L32 271 L30 235 L29 223 L29 217 L28 213 L27 210 L26 207 L26 199 L26 196 L25 194 L25 192 L24 191 M73 362 L64 243 L62 182 L60 145 L61 113 L65 66 L68 41 L68 33 L68 31 L67 30 L66 29 M116 359 L115 355 L113 349 L112 340 L112 332 L112 322 L111 310 L108 292 L108 289 L108 287 M133 356 L133 355 L133 353 L133 350 L133 348 L132 344 L130 334 L129 323 L128 317 L128 314 L128 310 L127 308 L127 305 L127 303 L127 301 L127 299 L126 295 L125 293 L125 291 M164 351 L164 343 L164 333 L164 327 L164 322 L164 318 L164 312 L164 308 L164 305 L164 301 L164 298 L164 295 L164 291 L164 288 L164 284 L164 283 M210 378 L205 292 L210 98 L214 35 L212 10 L212 2 L212 1 L210 0 L209 0 M244 362 L244 354 L244 349 L244 345 L244 343 L244 339 L244 332 L244 327 L242 317 L239 301 L236 284 L236 283 L235 280 L235 279 L235 278 L235 276 " fill="none" stroke="black" /><path d="M0 305 L0 270 L0 255 L0 248 L0 243 L0 237 L0 231 L0 228 L0 226 L0 225 L0 223 M33 330 L32 297 L32 271 L30 235 L29 223 L29 217 L28 213 L27 210 L26 207 L26 199 L26 196 L25 194 L25 192 L24 191 M73 362 L64 243 L62 182 L60 145 L61 113 L65 66 L68 41 L68 33 L68 31 L67 30 L66 29 M116 359 L115 355 L113 349 L112 340 L112 332 L112 322 L111 310 L108 292 L108 289 L108 287 M133 356 L133 355 L133 353 L133 350 L133 348 L132 344 L130 334 L129 323 L128 317 L128 314 L128 310 L127 308 L127 305 L127 303 L127 301 L127 299 L126 295 L125 293 L125 291 M164 351 L164 343 L164 333 L164 327 L164 322 L164 318 L164 312 L164 308 L164 305 L164 301 L164 298 L164 295 L164 291 L164 288 L164 284 L164 283 M210 378 L205 292 L210 98 L214 35 L212 10 L212 2 L212 1 L210 0 L209 0 M244 362 L244 354 L244 349 L244 345 L244 343 L244 339 L244 332 L244 327 L242 317 L239 301 L236 284 L236 283 L235 280 L235 279 L235 278 L235 276 M264 346 L264 344 L264 342 L264 339 L264 338 L263 335 L263 334 L261 331 L260 328 " fill="none" stroke="black" /><path d="M0 305 L0 270 L0 255 L0 248 L0 243 L0 237 L0 231 L0 228 L0 226 L0 225 L0 223 M33 330 L32 297 L32 271 L30 235 L29 223 L29 217 L28 213 L27 210 L26 207 L26 199 L26 196 L25 194 L25 192 L24 191 M73 362 L64 243 L62 182 L60 145 L61 113 L65 66 L68 41 L68 33 L68 31 L67 30 L66 29 M116 359 L115 355 L113 349 L112 340 L112 332 L112 322 L111 310 L108 292 L108 289 L108 287 M133 356 L133 355 L133 353 L133 350 L133 348 L132 344 L130 334 L129 323 L128 317 L128 314 L128 310 L127 308 L127 305 L127 303 L127 301 L127 299 L126 295 L125 293 L125 291 M164 351 L164 343 L164 333 L164 327 L164 322 L164 318 L164 312 L164 308 L164 305 L164 301 L164 298 L164 295 L164 291 L164 288 L164 284 L164 283 M210 378 L205 292 L210 98 L214 35 L212 10 L212 2 L212 1 L210 0 L209 0 M244 362 L244 354 L244 349 L244 345 L244 343 L244 339 L244 332 L244 327 L242 317 L239 301 L236 284 L236 283 L235 280 L235 279 L235 278 L235 276 M264 346 L264 344 L264 342 L264 339 L264 338 L263 335 L263 334 L261 331 L260 328 M279 279 L280 280 L281 290 L281 295 L281 302 L281 305 L281 308 L281 311 L281 315 L281 319 L283 325 L284 329 L284 335 L285 339 L285 342 L285 345 L286 348 L287 352 L287 354 L287 357 L287 359 L288 361 L288 363 L288 365 " fill="none" stroke="black" /><path d="M0 305 L0 270 L0 255 L0 248 L0 243 L0 237 L0 231 L0 228 L0 226 L0 225 L0 223 M33 330 L32 297 L32 271 L30 235 L29 223 L29 217 L28 213 L27 210 L26 207 L26 199 L26 196 L25 194 L25 192 L24 191 M73 362 L64 243 L62 182 L60 145 L61 113 L65 66 L68 41 L68 33 L68 31 L67 30 L66 29 M116 359 L115 355 L113 349 L112 340 L112 332 L112 322 L111 310 L108 292 L108 289 L108 287 M133 356 L133 355 L133 353 L133 350 L133 348 L132 344 L130 334 L129 323 L128 317 L128 314 L128 310 L127 308 L127 305 L127 303 L127 301 L127 299 L126 295 L125 293 L125 291 M164 351 L164 343 L164 333 L164 327 L164 322 L164 318 L164 312 L164 308 L164 305 L164 301 L164 298 L164 295 L164 291 L164 288 L164 284 L164 283 M210 378 L205 292 L210 98 L214 35 L212 10 L212 2 L212 1 L210 0 L209 0 M244 362 L244 354 L244 349 L244 345 L244 343 L244 339 L244 332 L244 327 L242 317 L239 301 L236 284 L236 283 L235 280 L235 279 L235 278 L235 276 M264 346 L264 344 L264 342 L264 339 L264 338 L263 335 L263 334 L261 331 L260 328 M279 279 L280 280 L281 290 L281 295 L281 302 L281 305 L281 308 L281 311 L281 315 L281 319 L283 325 L284 329 L284 335 L285 339 L285 342 L285 345 L286 348 L287 352 L287 354 L287 357 L287 359 L288 361 L288 363 L288 365 M318 376 L318 355 L317 303 L318 274 L318 242 L319 221 L319 212 L319 210 " fill="none" stroke="black" /></svg>