<?xml version="1.0" encoding="utf-8" ?>
<svg baseProfile="tiny" height="288" version="1.2" viewBox="-3 -3 387 288" width="387" xmlns="http://www.w3.org/2000/svg" xmlns:ev="http://www.w3.org/2001/xml-events" xmlns:xlink="http://www.w3.org/1999/xlink"><defs /><path d="M123 229 L123 239 L128 245 L136 251 L151 258 L179 266 L208 269 L232 269 L254 261 L272 234 L284 219 L289 200 L288 188 L288 180 L285 171 L279 165 L271 164 L263 161 L256 161 L241 168 L225 191 L220 209 L220 218 L222 225 L226 233 L230 236 L231 240 L236 244 L241 249 L247 252 L259 258 L279 268 L297 273 L309 276 L325 277 L338 277 L353 268 L362 252 L370 229 L375 211 L380 190 L386 168 L387 153 L387 145 L387 137 L385 132 L383 128 L379 126 L371 122 L363 121 L354 121 L345 121 L337 121 L328 126 L317 133 L312 142 L312 146 L316 152 L324 156 L328 156 L334 156 L340 153 L348 133 L350 119 L341 99 L296 50 L273 23 L264 13 L246 4 L223 0 L202 0 L187 4 L180 18 L175 30 L172 45 L177 54 L184 61 L191 67 L195 67 L197 67 L201 66 L201 56 L189 42 L159 19 L142 10 L121 8 L102 8 L96 15 L87 26 L75 48 L71 58 L74 70 L86 82 L102 98 L117 105 L120 105 L120 100 L119 93 L117 86 L102 74 L83 74 L63 74 L54 75 L41 83 L25 97 L8 113 L1 127 L0 131 L0 137 L8 152 L22 161 L38 167 L55 167 L66 164 L72 154 L72 145 L72 136 L64 128 L60 126 L53 126 L38 132 L28 140 L24 154 L18 165 L12 176 L12 183 L12 193 L18 204 L30 217 L39 224 L51 229 L67 231 L87 227 L90 221 L93 206 L95 198 L94 188 L92 187 L91 192 L97 219 L112 246 L137 276 L152 285 L168 288 L185 284 L196 273 L199 259 L199 250 L199 245 L197 243 " fill="none" stroke="black" /></svg>