<?xml version="1.0" encoding="utf-8" ?>
<svg baseProfile="tiny" height="298" version="1.2" viewBox="-3 -3 598 298" width="598" xmlns="http://www.w3.org/2000/svg" xmlns:ev="http://www.w3.org/2001/xml-events" xmlns:xlink="http://www.w3.org/1999/xlink"><defs /><path d="M51 217 L57 224 L61 225 L67 228 L72 230 L77 230 L82 232 L92 234 L100 234 L113 234 L120 232 L129 229 L141 222 L152 217 L160 211 L168 204 L171 198 L176 192 L182 185 L190 174 L195 159 L199 149 L200 139 L200 125 L194 112 L188 103 L184 94 L176 87 L166 76 L148 62 L132 53 L112 40 L96 34 L93 33 L85 31 L75 29 L65 29 " fill="none" stroke="black" /><path d="M51 217 L57 224 L61 225 L67 228 L72 230 L77 230 L82 232 L92 234 L100 234 L113 234 L120 232 L129 229 L141 222 L152 217 L160 211 L168 204 L171 198 L176 192 L182 185 L190 174 L195 159 L199 149 L200 139 L200 125 L194 112 L188 103 L184 94 L176 87 L166 76 L148 62 L132 53 L112 40 L96 34 L93 33 L85 31 L75 29 L65 29 M324 27 L320 28 L315 31 L294 38 L251 53 L237 63 L224 72 L212 90 L206 108 L197 130 L196 146 L200 160 L206 169 L220 191 L268 241 L303 271 L331 290 L350 298 L364 296 L398 276 L418 252 L431 230 L437 205 L436 176 L428 148 L417 124 L410 114 L407 111 L400 107 L384 103 L356 89 L342 85 L331 81 L312 75 L291 75 L273 75 L257 75 L248 77 L245 79 L241 79 L236 81 L234 81 " fill="none" stroke="black" /><path d="M51 217 L57 224 L61 225 L67 228 L72 230 L77 230 L82 232 L92 234 L100 234 L113 234 L120 232 L129 229 L141 222 L152 217 L160 211 L168 204 L171 198 L176 192 L182 185 L190 174 L195 159 L199 149 L200 139 L200 125 L194 112 L188 103 L184 94 L176 87 L166 76 L148 62 L132 53 L112 40 L96 34 L93 33 L85 31 L75 29 L65 29 M324 27 L320 28 L315 31 L294 38 L251 53 L237 63 L224 72 L212 90 L206 108 L197 130 L196 146 L200 160 L206 169 L220 191 L268 241 L303 271 L331 290 L350 298 L364 296 L398 276 L418 252 L431 230 L437 205 L436 176 L428 148 L417 124 L410 114 L407 111 L400 107 L384 103 L356 89 L342 85 L331 81 L312 75 L291 75 L273 75 L257 75 L248 77 L245 79 L241 79 L236 81 L234 81 M523 32 L518 32 L488 49 L452 70 L437 80 L432 91 L426 105 L426 124 L427 143 L442 166 L453 174 L467 180 L487 186 L514 191 L535 178 L551 153 L557 131 L557 103 L552 73 L547 52 L546 40 L537 28 L522 16 L489 3 L444 0 L422 2 L407 10 L402 20 L394 35 L391 45 L388 62 L388 79 L394 108 L410 131 L430 145 L488 189 L522 203 L544 206 L568 193 L583 178 L593 150 L598 127 L598 108 L592 85 L578 64 L558 37 L542 17 L524 11 L510 4 L492 4 L474 4 L469 5 L462 6 L458 7 " fill="none" stroke="black" /><path d="M51 217 L57 224 L61 225 L67 228 L72 230 L77 230 L82 232 L92 234 L100 234 L113 234 L120 232 L129 229 L141 222 L152 217 L160 211 L168 204 L171 198 L176 192 L182 185 L190 174 L195 159 L199 149 L200 139 L200 125 L194 112 L188 103 L184 94 L176 87 L166 76 L148 62 L132 53 L112 40 L96 34 L93 33 L85 31 L75 29 L65 29 M324 27 L320 28 L315 31 L294 38 L251 53 L237 63 L224 72 L212 90 L206 108 L197 130 L196 146 L200 160 L206 169 L220 191 L268 241 L303 271 L331 290 L350 298 L364 296 L398 276 L418 252 L431 230 L437 205 L436 176 L428 148 L417 124 L410 114 L407 111 L400 107 L384 103 L356 89 L342 85 L331 81 L312 75 L291 75 L273 75 L257 75 L248 77 L245 79 L241 79 L236 81 L234 81 M523 32 L518 32 L488 49 L452 70 L437 80 L432 91 L426 105 L426 124 L427 143 L442 166 L453 174 L467 180 L487 186 L514 191 L535 178 L551 153 L557 131 L557 103 L552 73 L547 52 L546 40 L537 28 L522 16 L489 3 L444 0 L422 2 L407 10 L402 20 L394 35 L391 45 L388 62 L388 79 L394 108 L410 131 L430 145 L488 189 L522 203 L544 206 L568 193 L583 178 L593 150 L598 127 L598 108 L592 85 L578 64 L558 37 L542 17 L524 11 L510 4 L492 4 L474 4 L469 5 L462 6 L458 7 M60 29 L58 29 L49 38 L26 60 L12 83 L1 96 L0 108 L0 117 L3 131 L6 141 L8 145 L10 147 L16 150 L23 153 L30 161 L32 163 L33 166 " fill="none" stroke="black" /></svg>