<?xml version="1.0" encoding="utf-8" ?>
<svg baseProfile="tiny" height="30" version="1.2" viewBox="-3 -3 776 30" width="776" xmlns="http://www.w3.org/2000/svg" xmlns:ev="http://www.w3.org/2001/xml-events" xmlns:xlink="http://www.w3.org/1999/xlink"><defs /><path d="M0 2 L12 2 L19 5 L26 5 L38 9 L41 11 L48 11 L55 11 L64 11 L70 11 L75 11 L82 11 L91 8 L97 8 L103 7 L107 7 L110 7 L111 6 L115 5 L121 5 L125 5 L131 5 L135 5 L140 5 L146 5 L147 5 L154 5 L160 5 L163 5 L167 5 L175 5 L178 5 L182 5 L187 5 L190 5 L200 5 L207 5 L210 5 L215 5 L219 5 L226 5 L228 5 L229 5 L233 5 L240 5 L249 5 L251 5 L258 5 L271 3 L274 3 L283 1 L289 1 L296 1 L299 1 L305 1 L310 1 L316 1 L323 1 L332 0 L338 0 L343 0 L352 0 L357 0 L360 0 L363 0 L367 0 L375 0 L380 0 L384 0 L391 0 L396 0 L399 0 L408 0 L418 1 L424 3 L426 4 L434 7 L442 8 L444 8 L446 8 L453 9 L459 12 L467 16 L472 16 L476 16 L479 16 L484 16 L490 16 L495 17 L500 19 L506 21 L511 24 L519 25 L524 27 L529 28 L533 28 L537 28 L542 30 L546 30 L552 30 L560 30 L566 30 L570 30 L578 30 L586 29 L588 29 L596 29 L597 28 L599 28 L604 26 L606 26 L607 25 L613 25 L618 22 L621 22 L624 21 L628 20 L629 19 L633 18 L640 16 L646 15 L649 14 L654 14 L661 12 L664 12 L665 11 L667 11 L672 11 L674 11 L678 11 L682 9 L683 8 L686 7 L689 7 L690 7 L696 6 L701 5 L704 5 L710 5 L719 5 L726 5 L733 5 L745 5 L749 7 L752 7 L759 7 L766 7 L772 7 L773 7 L776 9 " fill="none" stroke="black" /></svg>