<?xml version="1.0" encoding="utf-8" ?>
<svg baseProfile="tiny" height="411" version="1.2" viewBox="-3 -3 715 411" width="715" xmlns="http://www.w3.org/2000/svg" xmlns:ev="http://www.w3.org/2001/xml-events" xmlns:xlink="http://www.w3.org/1999/xlink"><defs /><circle cx="61" cy="173" fill="black" r="1" /><path d="M116 286 L119 287 L122 286 " fill="none" stroke="black" /><path d="M116 286 L119 287 L122 286 M176 285 L183 283 " fill="none" stroke="black" /><circle cx="166" cy="125" fill="black" r="1" /><path d="M116 286 L119 287 L122 286 M176 285 L183 283 M157 86 L169 82 L186 72 " fill="none" stroke="black" /><path d="M116 286 L119 287 L122 286 M176 285 L183 283 M157 86 L169 82 L186 72 M317 123 L323 125 L320 131 " fill="none" stroke="black" /><path d="M116 286 L119 287 L122 286 M176 285 L183 283 M157 86 L169 82 L186 72 M317 123 L323 125 L320 131 M273 183 L273 191 L271 196 " fill="none" stroke="black" /><path d="M116 286 L119 287 L122 286 M176 285 L183 283 M157 86 L169 82 L186 72 M317 123 L323 125 L320 131 M273 183 L273 191 L271 196 M353 305 L359 307 L360 309 L373 309 " fill="none" stroke="black" /><path d="M116 286 L119 287 L122 286 M176 285 L183 283 M157 86 L169 82 L186 72 M317 123 L323 125 L320 131 M273 183 L273 191 L271 196 M353 305 L359 307 L360 309 L373 309 M436 313 L439 313 L442 312 " fill="none" stroke="black" /><path d="M116 286 L119 287 L122 286 M176 285 L183 283 M157 86 L169 82 L186 72 M317 123 L323 125 L320 131 M273 183 L273 191 L271 196 M353 305 L359 307 L360 309 L373 309 M436 313 L439 313 L442 312 M458 231 L459 230 " fill="none" stroke="black" /><circle cx="390" cy="126" fill="black" r="1" /><circle cx="351" cy="89" fill="black" r="1" /><path d="M116 286 L119 287 L122 286 M176 285 L183 283 M157 86 L169 82 L186 72 M317 123 L323 125 L320 131 M273 183 L273 191 L271 196 M353 305 L359 307 L360 309 L373 309 M436 313 L439 313 L442 312 M458 231 L459 230 M357 53 L358 52 " fill="none" stroke="black" /><path d="M116 286 L119 287 L122 286 M176 285 L183 283 M157 86 L169 82 L186 72 M317 123 L323 125 L320 131 M273 183 L273 191 L271 196 M353 305 L359 307 L360 309 L373 309 M436 313 L439 313 L442 312 M458 231 L459 230 M357 53 L358 52 M479 20 L481 20 " fill="none" stroke="black" /><path d="M116 286 L119 287 L122 286 M176 285 L183 283 M157 86 L169 82 L186 72 M317 123 L323 125 L320 131 M273 183 L273 191 L271 196 M353 305 L359 307 L360 309 L373 309 M436 313 L439 313 L442 312 M458 231 L459 230 M357 53 L358 52 M479 20 L481 20 M604 21 L605 22 L605 23 " fill="none" stroke="black" /><path d="M116 286 L119 287 L122 286 M176 285 L183 283 M157 86 L169 82 L186 72 M317 123 L323 125 L320 131 M273 183 L273 191 L271 196 M353 305 L359 307 L360 309 L373 309 M436 313 L439 313 L442 312 M458 231 L459 230 M357 53 L358 52 M479 20 L481 20 M604 21 L605 22 L605 23 M715 140 L715 143 L708 154 " fill="none" stroke="black" /><path d="M116 286 L119 287 L122 286 M176 285 L183 283 M157 86 L169 82 L186 72 M317 123 L323 125 L320 131 M273 183 L273 191 L271 196 M353 305 L359 307 L360 309 L373 309 M436 313 L439 313 L442 312 M458 231 L459 230 M357 53 L358 52 M479 20 L481 20 M604 21 L605 22 L605 23 M715 140 L715 143 L708 154 M651 196 L647 197 " fill="none" stroke="black" /><path d="M116 286 L119 287 L122 286 M176 285 L183 283 M157 86 L169 82 L186 72 M317 123 L323 125 L320 131 M273 183 L273 191 L271 196 M353 305 L359 307 L360 309 L373 309 M436 313 L439 313 L442 312 M458 231 L459 230 M357 53 L358 52 M479 20 L481 20 M604 21 L605 22 L605 23 M715 140 L715 143 L708 154 M651 196 L647 197 M612 261 L612 278 L612 282 " fill="none" stroke="black" /><path d="M116 286 L119 287 L122 286 M176 285 L183 283 M157 86 L169 82 L186 72 M317 123 L323 125 L320 131 M273 183 L273 191 L271 196 M353 305 L359 307 L360 309 L373 309 M436 313 L439 313 L442 312 M458 231 L459 230 M357 53 L358 52 M479 20 L481 20 M604 21 L605 22 L605 23 M715 140 L715 143 L708 154 M651 196 L647 197 M612 261 L612 278 L612 282 M635 310 L639 311 L650 314 " fill="none" stroke="black" /><circle cx="695" cy="322" fill="black" r="1" /><circle cx="688" cy="281" fill="black" r="1" /><path d="M116 286 L119 287 L122 286 M176 285 L183 283 M157 86 L169 82 L186 72 M317 123 L323 125 L320 131 M273 183 L273 191 L271 196 M353 305 L359 307 L360 309 L373 309 M436 313 L439 313 L442 312 M458 231 L459 230 M357 53 L358 52 M479 20 L481 20 M604 21 L605 22 L605 23 M715 140 L715 143 L708 154 M651 196 L647 197 M612 261 L612 278 L612 282 M635 310 L639 311 L650 314 M654 212 L653 212 " fill="none" stroke="black" /><circle cx="296" cy="8" fill="black" r="1" /><circle cx="296" cy="8" fill="black" r="1" /><circle cx="168" cy="15" fill="black" r="1" /><path d="M116 286 L119 287 L122 286 M176 285 L183 283 M157 86 L169 82 L186 72 M317 123 L323 125 L320 131 M273 183 L273 191 L271 196 M353 305 L359 307 L360 309 L373 309 M436 313 L439 313 L442 312 M458 231 L459 230 M357 53 L358 52 M479 20 L481 20 M604 21 L605 22 L605 23 M715 140 L715 143 L708 154 M651 196 L647 197 M612 261 L612 278 L612 282 M635 310 L639 311 L650 314 M654 212 L653 212 M127 47 L127 50 L127 55 " fill="none" stroke="black" /><path d="M116 286 L119 287 L122 286 M176 285 L183 283 M157 86 L169 82 L186 72 M317 123 L323 125 L320 131 M273 183 L273 191 L271 196 M353 305 L359 307 L360 309 L373 309 M436 313 L439 313 L442 312 M458 231 L459 230 M357 53 L358 52 M479 20 L481 20 M604 21 L605 22 L605 23 M715 140 L715 143 L708 154 M651 196 L647 197 M612 261 L612 278 L612 282 M635 310 L639 311 L650 314 M654 212 L653 212 M127 47 L127 50 L127 55 M106 110 L105 112 " fill="none" stroke="black" /><path d="M116 286 L119 287 L122 286 M176 285 L183 283 M157 86 L169 82 L186 72 M317 123 L323 125 L320 131 M273 183 L273 191 L271 196 M353 305 L359 307 L360 309 L373 309 M436 313 L439 313 L442 312 M458 231 L459 230 M357 53 L358 52 M479 20 L481 20 M604 21 L605 22 L605 23 M715 140 L715 143 L708 154 M651 196 L647 197 M612 261 L612 278 L612 282 M635 310 L639 311 L650 314 M654 212 L653 212 M127 47 L127 50 L127 55 M106 110 L105 112 M42 168 L41 174 L38 185 " fill="none" stroke="black" /><path d="M116 286 L119 287 L122 286 M176 285 L183 283 M157 86 L169 82 L186 72 M317 123 L323 125 L320 131 M273 183 L273 191 L271 196 M353 305 L359 307 L360 309 L373 309 M436 313 L439 313 L442 312 M458 231 L459 230 M357 53 L358 52 M479 20 L481 20 M604 21 L605 22 L605 23 M715 140 L715 143 L708 154 M651 196 L647 197 M612 261 L612 278 L612 282 M635 310 L639 311 L650 314 M654 212 L653 212 M127 47 L127 50 L127 55 M106 110 L105 112 M42 168 L41 174 L38 185 M0 278 L5 280 L10 281 " fill="none" stroke="black" /><path d="M116 286 L119 287 L122 286 M176 285 L183 283 M157 86 L169 82 L186 72 M317 123 L323 125 L320 131 M273 183 L273 191 L271 196 M353 305 L359 307 L360 309 L373 309 M436 313 L439 313 L442 312 M458 231 L459 230 M357 53 L358 52 M479 20 L481 20 M604 21 L605 22 L605 23 M715 140 L715 143 L708 154 M651 196 L647 197 M612 261 L612 278 L612 282 M635 310 L639 311 L650 314 M654 212 L653 212 M127 47 L127 50 L127 55 M106 110 L105 112 M42 168 L41 174 L38 185 M0 278 L5 280 L10 281 M86 331 L90 332 L106 336 " fill="none" stroke="black" /><path d="M116 286 L119 287 L122 286 M176 285 L183 283 M157 86 L169 82 L186 72 M317 123 L323 125 L320 131 M273 183 L273 191 L271 196 M353 305 L359 307 L360 309 L373 309 M436 313 L439 313 L442 312 M458 231 L459 230 M357 53 L358 52 M479 20 L481 20 M604 21 L605 22 L605 23 M715 140 L715 143 L708 154 M651 196 L647 197 M612 261 L612 278 L612 282 M635 310 L639 311 L650 314 M654 212 L653 212 M127 47 L127 50 L127 55 M106 110 L105 112 M42 168 L41 174 L38 185 M0 278 L5 280 L10 281 M86 331 L90 332 L106 336 M218 347 L221 347 " fill="none" stroke="black" /><path d="M116 286 L119 287 L122 286 M176 285 L183 283 M157 86 L169 82 L186 72 M317 123 L323 125 L320 131 M273 183 L273 191 L271 196 M353 305 L359 307 L360 309 L373 309 M436 313 L439 313 L442 312 M458 231 L459 230 M357 53 L358 52 M479 20 L481 20 M604 21 L605 22 L605 23 M715 140 L715 143 L708 154 M651 196 L647 197 M612 261 L612 278 L612 282 M635 310 L639 311 L650 314 M654 212 L653 212 M127 47 L127 50 L127 55 M106 110 L105 112 M42 168 L41 174 L38 185 M0 278 L5 280 L10 281 M86 331 L90 332 L106 336 M218 347 L221 347 M266 334 L274 328 " fill="none" stroke="black" /><path d="M116 286 L119 287 L122 286 M176 285 L183 283 M157 86 L169 82 L186 72 M317 123 L323 125 L320 131 M273 183 L273 191 L271 196 M353 305 L359 307 L360 309 L373 309 M436 313 L439 313 L442 312 M458 231 L459 230 M357 53 L358 52 M479 20 L481 20 M604 21 L605 22 L605 23 M715 140 L715 143 L708 154 M651 196 L647 197 M612 261 L612 278 L612 282 M635 310 L639 311 L650 314 M654 212 L653 212 M127 47 L127 50 L127 55 M106 110 L105 112 M42 168 L41 174 L38 185 M0 278 L5 280 L10 281 M86 331 L90 332 L106 336 M218 347 L221 347 M266 334 L274 328 M299 244 L302 244 L305 243 L319 232 " fill="none" stroke="black" /><path d="M116 286 L119 287 L122 286 M176 285 L183 283 M157 86 L169 82 L186 72 M317 123 L323 125 L320 131 M273 183 L273 191 L271 196 M353 305 L359 307 L360 309 L373 309 M436 313 L439 313 L442 312 M458 231 L459 230 M357 53 L358 52 M479 20 L481 20 M604 21 L605 22 L605 23 M715 140 L715 143 L708 154 M651 196 L647 197 M612 261 L612 278 L612 282 M635 310 L639 311 L650 314 M654 212 L653 212 M127 47 L127 50 L127 55 M106 110 L105 112 M42 168 L41 174 L38 185 M0 278 L5 280 L10 281 M86 331 L90 332 L106 336 M218 347 L221 347 M266 334 L274 328 M299 244 L302 244 L305 243 L319 232 M365 205 L368 205 " fill="none" stroke="black" /><circle cx="426" cy="130" fill="black" r="1" /><path d="M116 286 L119 287 L122 286 M176 285 L183 283 M157 86 L169 82 L186 72 M317 123 L323 125 L320 131 M273 183 L273 191 L271 196 M353 305 L359 307 L360 309 L373 309 M436 313 L439 313 L442 312 M458 231 L459 230 M357 53 L358 52 M479 20 L481 20 M604 21 L605 22 L605 23 M715 140 L715 143 L708 154 M651 196 L647 197 M612 261 L612 278 L612 282 M635 310 L639 311 L650 314 M654 212 L653 212 M127 47 L127 50 L127 55 M106 110 L105 112 M42 168 L41 174 L38 185 M0 278 L5 280 L10 281 M86 331 L90 332 L106 336 M218 347 L221 347 M266 334 L274 328 M299 244 L302 244 L305 243 L319 232 M365 205 L368 205 M508 132 L512 137 L521 151 " fill="none" stroke="black" /><path d="M116 286 L119 287 L122 286 M176 285 L183 283 M157 86 L169 82 L186 72 M317 123 L323 125 L320 131 M273 183 L273 191 L271 196 M353 305 L359 307 L360 309 L373 309 M436 313 L439 313 L442 312 M458 231 L459 230 M357 53 L358 52 M479 20 L481 20 M604 21 L605 22 L605 23 M715 140 L715 143 L708 154 M651 196 L647 197 M612 261 L612 278 L612 282 M635 310 L639 311 L650 314 M654 212 L653 212 M127 47 L127 50 L127 55 M106 110 L105 112 M42 168 L41 174 L38 185 M0 278 L5 280 L10 281 M86 331 L90 332 L106 336 M218 347 L221 347 M266 334 L274 328 M299 244 L302 244 L305 243 L319 232 M365 205 L368 205 M508 132 L512 137 L521 151 M552 201 L552 206 " fill="none" stroke="black" /><path d="M116 286 L119 287 L122 286 M176 285 L183 283 M157 86 L169 82 L186 72 M317 123 L323 125 L320 131 M273 183 L273 191 L271 196 M353 305 L359 307 L360 309 L373 309 M436 313 L439 313 L442 312 M458 231 L459 230 M357 53 L358 52 M479 20 L481 20 M604 21 L605 22 L605 23 M715 140 L715 143 L708 154 M651 196 L647 197 M612 261 L612 278 L612 282 M635 310 L639 311 L650 314 M654 212 L653 212 M127 47 L127 50 L127 55 M106 110 L105 112 M42 168 L41 174 L38 185 M0 278 L5 280 L10 281 M86 331 L90 332 L106 336 M218 347 L221 347 M266 334 L274 328 M299 244 L302 244 L305 243 L319 232 M365 205 L368 205 M508 132 L512 137 L521 151 M552 201 L552 206 M540 234 L539 241 L537 253 " fill="none" stroke="black" /><path d="M116 286 L119 287 L122 286 M176 285 L183 283 M157 86 L169 82 L186 72 M317 123 L323 125 L320 131 M273 183 L273 191 L271 196 M353 305 L359 307 L360 309 L373 309 M436 313 L439 313 L442 312 M458 231 L459 230 M357 53 L358 52 M479 20 L481 20 M604 21 L605 22 L605 23 M715 140 L715 143 L708 154 M651 196 L647 197 M612 261 L612 278 L612 282 M635 310 L639 311 L650 314 M654 212 L653 212 M127 47 L127 50 L127 55 M106 110 L105 112 M42 168 L41 174 L38 185 M0 278 L5 280 L10 281 M86 331 L90 332 L106 336 M218 347 L221 347 M266 334 L274 328 M299 244 L302 244 L305 243 L319 232 M365 205 L368 205 M508 132 L512 137 L521 151 M552 201 L552 206 M540 234 L539 241 L537 253 M498 324 L495 326 L491 327 " fill="none" stroke="black" /><path d="M116 286 L119 287 L122 286 M176 285 L183 283 M157 86 L169 82 L186 72 M317 123 L323 125 L320 131 M273 183 L273 191 L271 196 M353 305 L359 307 L360 309 L373 309 M436 313 L439 313 L442 312 M458 231 L459 230 M357 53 L358 52 M479 20 L481 20 M604 21 L605 22 L605 23 M715 140 L715 143 L708 154 M651 196 L647 197 M612 261 L612 278 L612 282 M635 310 L639 311 L650 314 M654 212 L653 212 M127 47 L127 50 L127 55 M106 110 L105 112 M42 168 L41 174 L38 185 M0 278 L5 280 L10 281 M86 331 L90 332 L106 336 M218 347 L221 347 M266 334 L274 328 M299 244 L302 244 L305 243 L319 232 M365 205 L368 205 M508 132 L512 137 L521 151 M552 201 L552 206 M540 234 L539 241 L537 253 M498 324 L495 326 L491 327 M415 289 L402 286 L358 271 " fill="none" stroke="black" /><path d="M116 286 L119 287 L122 286 M176 285 L183 283 M157 86 L169 82 L186 72 M317 123 L323 125 L320 131 M273 183 L273 191 L271 196 M353 305 L359 307 L360 309 L373 309 M436 313 L439 313 L442 312 M458 231 L459 230 M357 53 L358 52 M479 20 L481 20 M604 21 L605 22 L605 23 M715 140 L715 143 L708 154 M651 196 L647 197 M612 261 L612 278 L612 282 M635 310 L639 311 L650 314 M654 212 L653 212 M127 47 L127 50 L127 55 M106 110 L105 112 M42 168 L41 174 L38 185 M0 278 L5 280 L10 281 M86 331 L90 332 L106 336 M218 347 L221 347 M266 334 L274 328 M299 244 L302 244 L305 243 L319 232 M365 205 L368 205 M508 132 L512 137 L521 151 M552 201 L552 206 M540 234 L539 241 L537 253 M498 324 L495 326 L491 327 M415 289 L402 286 L358 271 M243 207 L241 205 L234 202 " fill="none" stroke="black" /><path d="M116 286 L119 287 L122 286 M176 285 L183 283 M157 86 L169 82 L186 72 M317 123 L323 125 L320 131 M273 183 L273 191 L271 196 M353 305 L359 307 L360 309 L373 309 M436 313 L439 313 L442 312 M458 231 L459 230 M357 53 L358 52 M479 20 L481 20 M604 21 L605 22 L605 23 M715 140 L715 143 L708 154 M651 196 L647 197 M612 261 L612 278 L612 282 M635 310 L639 311 L650 314 M654 212 L653 212 M127 47 L127 50 L127 55 M106 110 L105 112 M42 168 L41 174 L38 185 M0 278 L5 280 L10 281 M86 331 L90 332 L106 336 M218 347 L221 347 M266 334 L274 328 M299 244 L302 244 L305 243 L319 232 M365 205 L368 205 M508 132 L512 137 L521 151 M552 201 L552 206 M540 234 L539 241 L537 253 M498 324 L495 326 L491 327 M415 289 L402 286 L358 271 M243 207 L241 205 L234 202 M95 142 L92 142 " fill="none" stroke="black" /><path d="M116 286 L119 287 L122 286 M176 285 L183 283 M157 86 L169 82 L186 72 M317 123 L323 125 L320 131 M273 183 L273 191 L271 196 M353 305 L359 307 L360 309 L373 309 M436 313 L439 313 L442 312 M458 231 L459 230 M357 53 L358 52 M479 20 L481 20 M604 21 L605 22 L605 23 M715 140 L715 143 L708 154 M651 196 L647 197 M612 261 L612 278 L612 282 M635 310 L639 311 L650 314 M654 212 L653 212 M127 47 L127 50 L127 55 M106 110 L105 112 M42 168 L41 174 L38 185 M0 278 L5 280 L10 281 M86 331 L90 332 L106 336 M218 347 L221 347 M266 334 L274 328 M299 244 L302 244 L305 243 L319 232 M365 205 L368 205 M508 132 L512 137 L521 151 M552 201 L552 206 M540 234 L539 241 L537 253 M498 324 L495 326 L491 327 M415 289 L402 286 L358 271 M243 207 L241 205 L234 202 M95 142 L92 142 M56 169 L56 174 L57 187 " fill="none" stroke="black" /><path d="M116 286 L119 287 L122 286 M176 285 L183 283 M157 86 L169 82 L186 72 M317 123 L323 125 L320 131 M273 183 L273 191 L271 196 M353 305 L359 307 L360 309 L373 309 M436 313 L439 313 L442 312 M458 231 L459 230 M357 53 L358 52 M479 20 L481 20 M604 21 L605 22 L605 23 M715 140 L715 143 L708 154 M651 196 L647 197 M612 261 L612 278 L612 282 M635 310 L639 311 L650 314 M654 212 L653 212 M127 47 L127 50 L127 55 M106 110 L105 112 M42 168 L41 174 L38 185 M0 278 L5 280 L10 281 M86 331 L90 332 L106 336 M218 347 L221 347 M266 334 L274 328 M299 244 L302 244 L305 243 L319 232 M365 205 L368 205 M508 132 L512 137 L521 151 M552 201 L552 206 M540 234 L539 241 L537 253 M498 324 L495 326 L491 327 M415 289 L402 286 L358 271 M243 207 L241 205 L234 202 M95 142 L92 142 M56 169 L56 174 L57 187 M131 244 L138 244 " fill="none" stroke="black" /><path d="M116 286 L119 287 L122 286 M176 285 L183 283 M157 86 L169 82 L186 72 M317 123 L323 125 L320 131 M273 183 L273 191 L271 196 M353 305 L359 307 L360 309 L373 309 M436 313 L439 313 L442 312 M458 231 L459 230 M357 53 L358 52 M479 20 L481 20 M604 21 L605 22 L605 23 M715 140 L715 143 L708 154 M651 196 L647 197 M612 261 L612 278 L612 282 M635 310 L639 311 L650 314 M654 212 L653 212 M127 47 L127 50 L127 55 M106 110 L105 112 M42 168 L41 174 L38 185 M0 278 L5 280 L10 281 M86 331 L90 332 L106 336 M218 347 L221 347 M266 334 L274 328 M299 244 L302 244 L305 243 L319 232 M365 205 L368 205 M508 132 L512 137 L521 151 M552 201 L552 206 M540 234 L539 241 L537 253 M498 324 L495 326 L491 327 M415 289 L402 286 L358 271 M243 207 L241 205 L234 202 M95 142 L92 142 M56 169 L56 174 L57 187 M131 244 L138 244 M179 209 L188 207 L205 186 " fill="none" stroke="black" /><path d="M116 286 L119 287 L122 286 M176 285 L183 283 M157 86 L169 82 L186 72 M317 123 L323 125 L320 131 M273 183 L273 191 L271 196 M353 305 L359 307 L360 309 L373 309 M436 313 L439 313 L442 312 M458 231 L459 230 M357 53 L358 52 M479 20 L481 20 M604 21 L605 22 L605 23 M715 140 L715 143 L708 154 M651 196 L647 197 M612 261 L612 278 L612 282 M635 310 L639 311 L650 314 M654 212 L653 212 M127 47 L127 50 L127 55 M106 110 L105 112 M42 168 L41 174 L38 185 M0 278 L5 280 L10 281 M86 331 L90 332 L106 336 M218 347 L221 347 M266 334 L274 328 M299 244 L302 244 L305 243 L319 232 M365 205 L368 205 M508 132 L512 137 L521 151 M552 201 L552 206 M540 234 L539 241 L537 253 M498 324 L495 326 L491 327 M415 289 L402 286 L358 271 M243 207 L241 205 L234 202 M95 142 L92 142 M56 169 L56 174 L57 187 M131 244 L138 244 M179 209 L188 207 L205 186 M211 124 L216 119 " fill="none" stroke="black" /><circle cx="245" cy="64" fill="black" r="1" /><path d="M116 286 L119 287 L122 286 M176 285 L183 283 M157 86 L169 82 L186 72 M317 123 L323 125 L320 131 M273 183 L273 191 L271 196 M353 305 L359 307 L360 309 L373 309 M436 313 L439 313 L442 312 M458 231 L459 230 M357 53 L358 52 M479 20 L481 20 M604 21 L605 22 L605 23 M715 140 L715 143 L708 154 M651 196 L647 197 M612 261 L612 278 L612 282 M635 310 L639 311 L650 314 M654 212 L653 212 M127 47 L127 50 L127 55 M106 110 L105 112 M42 168 L41 174 L38 185 M0 278 L5 280 L10 281 M86 331 L90 332 L106 336 M218 347 L221 347 M266 334 L274 328 M299 244 L302 244 L305 243 L319 232 M365 205 L368 205 M508 132 L512 137 L521 151 M552 201 L552 206 M540 234 L539 241 L537 253 M498 324 L495 326 L491 327 M415 289 L402 286 L358 271 M243 207 L241 205 L234 202 M95 142 L92 142 M56 169 L56 174 L57 187 M131 244 L138 244 M179 209 L188 207 L205 186 M211 124 L216 119 M310 25 L312 25 " fill="none" stroke="black" /><path d="M116 286 L119 287 L122 286 M176 285 L183 283 M157 86 L169 82 L186 72 M317 123 L323 125 L320 131 M273 183 L273 191 L271 196 M353 305 L359 307 L360 309 L373 309 M436 313 L439 313 L442 312 M458 231 L459 230 M357 53 L358 52 M479 20 L481 20 M604 21 L605 22 L605 23 M715 140 L715 143 L708 154 M651 196 L647 197 M612 261 L612 278 L612 282 M635 310 L639 311 L650 314 M654 212 L653 212 M127 47 L127 50 L127 55 M106 110 L105 112 M42 168 L41 174 L38 185 M0 278 L5 280 L10 281 M86 331 L90 332 L106 336 M218 347 L221 347 M266 334 L274 328 M299 244 L302 244 L305 243 L319 232 M365 205 L368 205 M508 132 L512 137 L521 151 M552 201 L552 206 M540 234 L539 241 L537 253 M498 324 L495 326 L491 327 M415 289 L402 286 L358 271 M243 207 L241 205 L234 202 M95 142 L92 142 M56 169 L56 174 L57 187 M131 244 L138 244 M179 209 L188 207 L205 186 M211 124 L216 119 M310 25 L312 25 M379 0 L382 0 L400 5 " fill="none" stroke="black" /><path d="M116 286 L119 287 L122 286 M176 285 L183 283 M157 86 L169 82 L186 72 M317 123 L323 125 L320 131 M273 183 L273 191 L271 196 M353 305 L359 307 L360 309 L373 309 M436 313 L439 313 L442 312 M458 231 L459 230 M357 53 L358 52 M479 20 L481 20 M604 21 L605 22 L605 23 M715 140 L715 143 L708 154 M651 196 L647 197 M612 261 L612 278 L612 282 M635 310 L639 311 L650 314 M654 212 L653 212 M127 47 L127 50 L127 55 M106 110 L105 112 M42 168 L41 174 L38 185 M0 278 L5 280 L10 281 M86 331 L90 332 L106 336 M218 347 L221 347 M266 334 L274 328 M299 244 L302 244 L305 243 L319 232 M365 205 L368 205 M508 132 L512 137 L521 151 M552 201 L552 206 M540 234 L539 241 L537 253 M498 324 L495 326 L491 327 M415 289 L402 286 L358 271 M243 207 L241 205 L234 202 M95 142 L92 142 M56 169 L56 174 L57 187 M131 244 L138 244 M179 209 L188 207 L205 186 M211 124 L216 119 M310 25 L312 25 M379 0 L382 0 L400 5 M508 43 L520 59 L532 74 " fill="none" stroke="black" /><path d="M116 286 L119 287 L122 286 M176 285 L183 283 M157 86 L169 82 L186 72 M317 123 L323 125 L320 131 M273 183 L273 191 L271 196 M353 305 L359 307 L360 309 L373 309 M436 313 L439 313 L442 312 M458 231 L459 230 M357 53 L358 52 M479 20 L481 20 M604 21 L605 22 L605 23 M715 140 L715 143 L708 154 M651 196 L647 197 M612 261 L612 278 L612 282 M635 310 L639 311 L650 314 M654 212 L653 212 M127 47 L127 50 L127 55 M106 110 L105 112 M42 168 L41 174 L38 185 M0 278 L5 280 L10 281 M86 331 L90 332 L106 336 M218 347 L221 347 M266 334 L274 328 M299 244 L302 244 L305 243 L319 232 M365 205 L368 205 M508 132 L512 137 L521 151 M552 201 L552 206 M540 234 L539 241 L537 253 M498 324 L495 326 L491 327 M415 289 L402 286 L358 271 M243 207 L241 205 L234 202 M95 142 L92 142 M56 169 L56 174 L57 187 M131 244 L138 244 M179 209 L188 207 L205 186 M211 124 L216 119 M310 25 L312 25 M379 0 L382 0 L400 5 M508 43 L520 59 L532 74 M570 124 L575 138 " fill="none" stroke="black" /><path d="M116 286 L119 287 L122 286 M176 285 L183 283 M157 86 L169 82 L186 72 M317 123 L323 125 L320 131 M273 183 L273 191 L271 196 M353 305 L359 307 L360 309 L373 309 M436 313 L439 313 L442 312 M458 231 L459 230 M357 53 L358 52 M479 20 L481 20 M604 21 L605 22 L605 23 M715 140 L715 143 L708 154 M651 196 L647 197 M612 261 L612 278 L612 282 M635 310 L639 311 L650 314 M654 212 L653 212 M127 47 L127 50 L127 55 M106 110 L105 112 M42 168 L41 174 L38 185 M0 278 L5 280 L10 281 M86 331 L90 332 L106 336 M218 347 L221 347 M266 334 L274 328 M299 244 L302 244 L305 243 L319 232 M365 205 L368 205 M508 132 L512 137 L521 151 M552 201 L552 206 M540 234 L539 241 L537 253 M498 324 L495 326 L491 327 M415 289 L402 286 L358 271 M243 207 L241 205 L234 202 M95 142 L92 142 M56 169 L56 174 L57 187 M131 244 L138 244 M179 209 L188 207 L205 186 M211 124 L216 119 M310 25 L312 25 M379 0 L382 0 L400 5 M508 43 L520 59 L532 74 M570 124 L575 138 M606 255 L606 279 L605 294 " fill="none" stroke="black" /><path d="M116 286 L119 287 L122 286 M176 285 L183 283 M157 86 L169 82 L186 72 M317 123 L323 125 L320 131 M273 183 L273 191 L271 196 M353 305 L359 307 L360 309 L373 309 M436 313 L439 313 L442 312 M458 231 L459 230 M357 53 L358 52 M479 20 L481 20 M604 21 L605 22 L605 23 M715 140 L715 143 L708 154 M651 196 L647 197 M612 261 L612 278 L612 282 M635 310 L639 311 L650 314 M654 212 L653 212 M127 47 L127 50 L127 55 M106 110 L105 112 M42 168 L41 174 L38 185 M0 278 L5 280 L10 281 M86 331 L90 332 L106 336 M218 347 L221 347 M266 334 L274 328 M299 244 L302 244 L305 243 L319 232 M365 205 L368 205 M508 132 L512 137 L521 151 M552 201 L552 206 M540 234 L539 241 L537 253 M498 324 L495 326 L491 327 M415 289 L402 286 L358 271 M243 207 L241 205 L234 202 M95 142 L92 142 M56 169 L56 174 L57 187 M131 244 L138 244 M179 209 L188 207 L205 186 M211 124 L216 119 M310 25 L312 25 M379 0 L382 0 L400 5 M508 43 L520 59 L532 74 M570 124 L575 138 M606 255 L606 279 L605 294 M590 356 L586 366 L581 373 " fill="none" stroke="black" /><circle cx="573" cy="375" fill="black" r="1" /><circle cx="360" cy="275" fill="black" r="1" /><circle cx="335" cy="224" fill="black" r="1" /><circle cx="245" cy="131" fill="black" r="1" /><circle cx="167" cy="131" fill="black" r="1" /><path d="M116 286 L119 287 L122 286 M176 285 L183 283 M157 86 L169 82 L186 72 M317 123 L323 125 L320 131 M273 183 L273 191 L271 196 M353 305 L359 307 L360 309 L373 309 M436 313 L439 313 L442 312 M458 231 L459 230 M357 53 L358 52 M479 20 L481 20 M604 21 L605 22 L605 23 M715 140 L715 143 L708 154 M651 196 L647 197 M612 261 L612 278 L612 282 M635 310 L639 311 L650 314 M654 212 L653 212 M127 47 L127 50 L127 55 M106 110 L105 112 M42 168 L41 174 L38 185 M0 278 L5 280 L10 281 M86 331 L90 332 L106 336 M218 347 L221 347 M266 334 L274 328 M299 244 L302 244 L305 243 L319 232 M365 205 L368 205 M508 132 L512 137 L521 151 M552 201 L552 206 M540 234 L539 241 L537 253 M498 324 L495 326 L491 327 M415 289 L402 286 L358 271 M243 207 L241 205 L234 202 M95 142 L92 142 M56 169 L56 174 L57 187 M131 244 L138 244 M179 209 L188 207 L205 186 M211 124 L216 119 M310 25 L312 25 M379 0 L382 0 L400 5 M508 43 L520 59 L532 74 M570 124 L575 138 M606 255 L606 279 L605 294 M590 356 L586 366 L581 373 M83 149 L79 155 L68 166 " fill="none" stroke="black" /><path d="M116 286 L119 287 L122 286 M176 285 L183 283 M157 86 L169 82 L186 72 M317 123 L323 125 L320 131 M273 183 L273 191 L271 196 M353 305 L359 307 L360 309 L373 309 M436 313 L439 313 L442 312 M458 231 L459 230 M357 53 L358 52 M479 20 L481 20 M604 21 L605 22 L605 23 M715 140 L715 143 L708 154 M651 196 L647 197 M612 261 L612 278 L612 282 M635 310 L639 311 L650 314 M654 212 L653 212 M127 47 L127 50 L127 55 M106 110 L105 112 M42 168 L41 174 L38 185 M0 278 L5 280 L10 281 M86 331 L90 332 L106 336 M218 347 L221 347 M266 334 L274 328 M299 244 L302 244 L305 243 L319 232 M365 205 L368 205 M508 132 L512 137 L521 151 M552 201 L552 206 M540 234 L539 241 L537 253 M498 324 L495 326 L491 327 M415 289 L402 286 L358 271 M243 207 L241 205 L234 202 M95 142 L92 142 M56 169 L56 174 L57 187 M131 244 L138 244 M179 209 L188 207 L205 186 M211 124 L216 119 M310 25 L312 25 M379 0 L382 0 L400 5 M508 43 L520 59 L532 74 M570 124 L575 138 M606 255 L606 279 L605 294 M590 356 L586 366 L581 373 M83 149 L79 155 L68 166 M16 218 L13 226 L13 227 L13 230 " fill="none" stroke="black" /><path d="M116 286 L119 287 L122 286 M176 285 L183 283 M157 86 L169 82 L186 72 M317 123 L323 125 L320 131 M273 183 L273 191 L271 196 M353 305 L359 307 L360 309 L373 309 M436 313 L439 313 L442 312 M458 231 L459 230 M357 53 L358 52 M479 20 L481 20 M604 21 L605 22 L605 23 M715 140 L715 143 L708 154 M651 196 L647 197 M612 261 L612 278 L612 282 M635 310 L639 311 L650 314 M654 212 L653 212 M127 47 L127 50 L127 55 M106 110 L105 112 M42 168 L41 174 L38 185 M0 278 L5 280 L10 281 M86 331 L90 332 L106 336 M218 347 L221 347 M266 334 L274 328 M299 244 L302 244 L305 243 L319 232 M365 205 L368 205 M508 132 L512 137 L521 151 M552 201 L552 206 M540 234 L539 241 L537 253 M498 324 L495 326 L491 327 M415 289 L402 286 L358 271 M243 207 L241 205 L234 202 M95 142 L92 142 M56 169 L56 174 L57 187 M131 244 L138 244 M179 209 L188 207 L205 186 M211 124 L216 119 M310 25 L312 25 M379 0 L382 0 L400 5 M508 43 L520 59 L532 74 M570 124 L575 138 M606 255 L606 279 L605 294 M590 356 L586 366 L581 373 M83 149 L79 155 L68 166 M16 218 L13 226 L13 227 L13 230 M12 265 L12 268 " fill="none" stroke="black" /><circle cx="24" cy="322" fill="black" r="1" /><path d="M116 286 L119 287 L122 286 M176 285 L183 283 M157 86 L169 82 L186 72 M317 123 L323 125 L320 131 M273 183 L273 191 L271 196 M353 305 L359 307 L360 309 L373 309 M436 313 L439 313 L442 312 M458 231 L459 230 M357 53 L358 52 M479 20 L481 20 M604 21 L605 22 L605 23 M715 140 L715 143 L708 154 M651 196 L647 197 M612 261 L612 278 L612 282 M635 310 L639 311 L650 314 M654 212 L653 212 M127 47 L127 50 L127 55 M106 110 L105 112 M42 168 L41 174 L38 185 M0 278 L5 280 L10 281 M86 331 L90 332 L106 336 M218 347 L221 347 M266 334 L274 328 M299 244 L302 244 L305 243 L319 232 M365 205 L368 205 M508 132 L512 137 L521 151 M552 201 L552 206 M540 234 L539 241 L537 253 M498 324 L495 326 L491 327 M415 289 L402 286 L358 271 M243 207 L241 205 L234 202 M95 142 L92 142 M56 169 L56 174 L57 187 M131 244 L138 244 M179 209 L188 207 L205 186 M211 124 L216 119 M310 25 L312 25 M379 0 L382 0 L400 5 M508 43 L520 59 L532 74 M570 124 L575 138 M606 255 L606 279 L605 294 M590 356 L586 366 L581 373 M83 149 L79 155 L68 166 M16 218 L13 226 L13 227 L13 230 M12 265 L12 268 M74 400 L76 400 " fill="none" stroke="black" /><path d="M116 286 L119 287 L122 286 M176 285 L183 283 M157 86 L169 82 L186 72 M317 123 L323 125 L320 131 M273 183 L273 191 L271 196 M353 305 L359 307 L360 309 L373 309 M436 313 L439 313 L442 312 M458 231 L459 230 M357 53 L358 52 M479 20 L481 20 M604 21 L605 22 L605 23 M715 140 L715 143 L708 154 M651 196 L647 197 M612 261 L612 278 L612 282 M635 310 L639 311 L650 314 M654 212 L653 212 M127 47 L127 50 L127 55 M106 110 L105 112 M42 168 L41 174 L38 185 M0 278 L5 280 L10 281 M86 331 L90 332 L106 336 M218 347 L221 347 M266 334 L274 328 M299 244 L302 244 L305 243 L319 232 M365 205 L368 205 M508 132 L512 137 L521 151 M552 201 L552 206 M540 234 L539 241 L537 253 M498 324 L495 326 L491 327 M415 289 L402 286 L358 271 M243 207 L241 205 L234 202 M95 142 L92 142 M56 169 L56 174 L57 187 M131 244 L138 244 M179 209 L188 207 L205 186 M211 124 L216 119 M310 25 L312 25 M379 0 L382 0 L400 5 M508 43 L520 59 L532 74 M570 124 L575 138 M606 255 L606 279 L605 294 M590 356 L586 366 L581 373 M83 149 L79 155 L68 166 M16 218 L13 226 L13 227 L13 230 M12 265 L12 268 M74 400 L76 400 M113 409 L117 410 L131 411 " fill="none" stroke="black" /><circle cx="194" cy="380" fill="black" r="1" /><path d="M116 286 L119 287 L122 286 M176 285 L183 283 M157 86 L169 82 L186 72 M317 123 L323 125 L320 131 M273 183 L273 191 L271 196 M353 305 L359 307 L360 309 L373 309 M436 313 L439 313 L442 312 M458 231 L459 230 M357 53 L358 52 M479 20 L481 20 M604 21 L605 22 L605 23 M715 140 L715 143 L708 154 M651 196 L647 197 M612 261 L612 278 L612 282 M635 310 L639 311 L650 314 M654 212 L653 212 M127 47 L127 50 L127 55 M106 110 L105 112 M42 168 L41 174 L38 185 M0 278 L5 280 L10 281 M86 331 L90 332 L106 336 M218 347 L221 347 M266 334 L274 328 M299 244 L302 244 L305 243 L319 232 M365 205 L368 205 M508 132 L512 137 L521 151 M552 201 L552 206 M540 234 L539 241 L537 253 M498 324 L495 326 L491 327 M415 289 L402 286 L358 271 M243 207 L241 205 L234 202 M95 142 L92 142 M56 169 L56 174 L57 187 M131 244 L138 244 M179 209 L188 207 L205 186 M211 124 L216 119 M310 25 L312 25 M379 0 L382 0 L400 5 M508 43 L520 59 L532 74 M570 124 L575 138 M606 255 L606 279 L605 294 M590 356 L586 366 L581 373 M83 149 L79 155 L68 166 M16 218 L13 226 L13 227 L13 230 M12 265 L12 268 M74 400 L76 400 M113 409 L117 410 L131 411 M216 354 L220 353 L226 352 " fill="none" stroke="black" /><circle cx="254" cy="262" fill="black" r="1" /><circle cx="280" cy="252" fill="black" r="1" /></svg>