<?xml version="1.0" encoding="utf-8" ?>
<svg baseProfile="tiny" height="446" version="1.2" viewBox="-3 -3 910 446" width="910" xmlns="http://www.w3.org/2000/svg" xmlns:ev="http://www.w3.org/2001/xml-events" xmlns:xlink="http://www.w3.org/1999/xlink"><defs /><path d="M560 0 L500 2 L468 3 L453 8 L450 8 L455 13 L535 40 L586 51 L589 53 L587 53 L542 50 L463 33 L392 18 L352 9 L343 9 L343 14 L407 29 L527 53 L635 68 L690 74 L710 78 L711 79 L653 83 L521 83 L430 83 L351 83 L314 85 L308 89 L341 89 L450 89 L593 99 L704 109 L774 113 L800 117 L794 122 L723 130 L556 130 L356 110 L256 99 L228 99 L225 104 L301 127 L527 182 L722 206 L818 218 L855 227 L845 228 L714 224 L455 177 L323 157 L282 150 L387 166 L692 234 L809 263 L810 264 L778 274 L630 272 L473 254 L449 249 L453 246 L521 246 L658 268 L680 268 L664 272 L594 278 L502 261 L484 256 L483 254 L525 263 L676 318 L714 335 L714 338 L692 340 L640 340 L612 339 L615 339 L620 340 L613 346 L566 353 L524 353 L521 353 L537 358 L601 374 L641 384 L640 385 L603 382 L542 368 L533 368 L556 370 L594 381 L598 384 L582 393 L543 393 L520 393 L523 394 L582 425 L597 437 L592 439 L578 444 L562 445 L560 445 L560 446 L556 430 " fill="none" stroke="black" /><path d="M560 0 L500 2 L468 3 L453 8 L450 8 L455 13 L535 40 L586 51 L589 53 L587 53 L542 50 L463 33 L392 18 L352 9 L343 9 L343 14 L407 29 L527 53 L635 68 L690 74 L710 78 L711 79 L653 83 L521 83 L430 83 L351 83 L314 85 L308 89 L341 89 L450 89 L593 99 L704 109 L774 113 L800 117 L794 122 L723 130 L556 130 L356 110 L256 99 L228 99 L225 104 L301 127 L527 182 L722 206 L818 218 L855 227 L845 228 L714 224 L455 177 L323 157 L282 150 L387 166 L692 234 L809 263 L810 264 L778 274 L630 272 L473 254 L449 249 L453 246 L521 246 L658 268 L680 268 L664 272 L594 278 L502 261 L484 256 L483 254 L525 263 L676 318 L714 335 L714 338 L692 340 L640 340 L612 339 L615 339 L620 340 L613 346 L566 353 L524 353 L521 353 L537 358 L601 374 L641 384 L640 385 L603 382 L542 368 L533 368 L556 370 L594 381 L598 384 L582 393 L543 393 L520 393 L523 394 L582 425 L597 437 L592 439 L578 444 L562 445 L560 445 L560 446 L556 430 M503 183 L572 183 L602 183 L667 183 L734 186 L738 186 L741 188 L690 187 L347 108 L201 79 L180 77 L165 79 L143 82 L247 103 L531 169 L723 213 L789 219 L794 219 L793 224 L762 235 L651 239 L456 235 L347 235 L291 245 L285 250 L289 251 L342 232 L520 230 L653 230 L740 228 L802 226 L811 226 L796 225 L687 216 L443 166 L214 117 L81 84 L9 84 L0 84 L7 84 L164 116 L468 176 L755 221 L868 229 L905 229 L910 229 " fill="none" stroke="black" /></svg>