<?xml version="1.0" encoding="utf-8" ?>
<svg baseProfile="tiny" height="164" version="1.2" viewBox="-3 -3 628 164" width="628" xmlns="http://www.w3.org/2000/svg" xmlns:ev="http://www.w3.org/2001/xml-events" xmlns:xlink="http://www.w3.org/1999/xlink"><defs /><path d="M0 0 L1 0 L3 0 L5 0 L7 0 L8 0 L11 0 L15 0 L19 0 L23 1 L25 1 L29 1 L30 1 L32 1 L36 1 L41 1 L52 2 L55 3 L61 5 L70 8 L74 8 L82 11 L85 11 L88 12 L89 12 L100 14 L104 14 L108 14 L112 14 L117 16 L119 16 L122 16 L125 16 L134 21 L139 24 L142 24 L147 27 L153 27 L161 27 L164 27 L168 27 L169 27 L175 27 L176 27 L180 27 L183 27 L185 27 L190 27 L196 27 L197 27 L201 27 L205 27 L209 28 L215 28 L216 28 L220 29 L221 31 L224 32 L227 32 L232 34 L235 34 L238 34 L247 37 L252 41 L254 42 L257 42 L258 42 L261 43 L266 46 L269 46 L270 46 L275 48 L277 48 L285 49 L289 50 L296 55 L300 58 L308 59 L313 61 L316 61 L319 63 L322 64 L323 65 L327 66 L331 66 L341 74 L349 80 L352 82 L356 83 L359 83 L365 84 L368 86 L374 87 L377 87 L382 89 L386 91 L390 91 L395 93 L398 93 L402 95 L409 96 L413 97 L415 97 L420 98 L424 98 L426 98 L432 100 L435 101 L438 101 L439 101 L445 101 L450 102 L454 103 L457 106 L458 106 L460 106 L461 106 L464 106 L467 107 L469 108 L477 110 L479 110 L485 113 L494 115 L498 117 L504 120 L507 121 L512 122 L513 124 L524 134 L528 134 L536 136 L538 136 L544 138 L550 139 L560 143 L571 146 L574 146 L579 148 L583 149 L585 149 L586 149 L594 152 L598 153 L603 155 L606 156 L610 158 L621 160 L628 164 " fill="none" stroke="black" /></svg>