<?xml version="1.0" encoding="utf-8" ?>
<svg baseProfile="tiny" height="381" version="1.2" viewBox="-3 -3 420 381" width="420" xmlns="http://www.w3.org/2000/svg" xmlns:ev="http://www.w3.org/2001/xml-events" xmlns:xlink="http://www.w3.org/1999/xlink"><defs /><path d="M151 168 L153 181 L174 177 L209 140 L205 110 L153 74 L117 77 L77 110 L81 138 L168 197 L266 206 L306 171 L309 155 L308 154 L242 153 L201 171 L192 183 L196 184 L288 195 L389 192 L389 188 L294 175 L222 200 L192 217 L190 221 L183 221 L175 157 L212 82 L210 93 L149 180 L87 227 L83 222 L79 141 L90 68 L100 49 L101 52 L47 146 L0 210 L14 178 L74 103 L127 73 L130 88 L140 164 L115 251 L98 271 L99 272 L117 177 L197 40 L224 4 L224 6 L220 84 L184 250 L182 267 L191 262 L212 189 L230 102 L230 89 L224 112 L202 199 L213 255 L223 263 L250 241 L281 160 L267 86 L262 72 L256 77 L201 183 L176 304 L190 312 L226 278 L281 199 L309 116 L306 92 L287 112 L230 194 L183 276 L180 304 L202 299 L342 220 L417 172 L420 169 L420 191 L404 291 L370 336 L367 336 L334 307 L189 165 L100 28 L86 0 L83 6 L138 123 L287 309 L357 380 L359 381 L324 306 L237 196 L190 151 L188 151 L185 152 L188 233 L237 293 L290 311 L308 278 L294 201 L253 147 L198 140 L138 189 L117 253 L118 254 L193 216 L361 108 L394 62 L366 109 L288 229 L221 281 L218 282 L225 269 L270 202 L313 134 L313 131 L294 161 L219 211 L91 232 L48 221 L47 134 L78 71 L157 45 L211 59 L234 88 L245 141 L169 262 L110 306 L109 307 L109 306 L140 230 L266 142 L274 140 L258 154 L155 209 L49 243 L43 244 L97 220 L179 201 L188 197 L180 205 L108 255 L72 285 L75 281 L153 238 L220 200 " fill="none" stroke="black" /></svg>