<?xml version="1.0" encoding="utf-8" ?>
<svg baseProfile="tiny" height="120" version="1.2" viewBox="-3 -3 640 120" width="640" xmlns="http://www.w3.org/2000/svg" xmlns:ev="http://www.w3.org/2001/xml-events" xmlns:xlink="http://www.w3.org/1999/xlink"><defs /><path d="M0 110 L9 110 L17 110 L25 110 L32 103 L41 96 L52 89 L57 85 L62 81 L67 77 L72 72 L74 68 L78 64 L82 57 L85 53 L87 49 L91 44 L93 39 L96 35 L99 30 L103 26 L107 23 L113 18 L117 16 L120 13 L123 11 L128 9 L131 8 L134 4 L139 1 L141 0 L142 0 L145 0 L146 0 L149 0 L153 0 L155 2 L158 6 L162 10 L163 13 L164 16 L167 20 L169 24 L170 30 L176 36 L176 39 L179 41 L181 46 L183 50 L186 58 L187 59 L190 63 L193 66 L197 72 L201 77 L202 81 L208 83 L219 96 L227 105 L235 108 L245 112 L256 115 L263 116 L272 116 L281 112 L284 108 L287 107 L290 102 L296 95 L301 84 L308 80 L310 73 L315 62 L320 54 L323 47 L326 44 L331 39 L338 28 L345 25 L352 20 L357 18 L359 18 L364 15 L374 14 L379 12 L382 12 L384 13 L386 16 L387 17 L390 24 L393 31 L394 34 L394 40 L396 47 L398 55 L400 59 L401 67 L404 73 L407 79 L408 81 L409 85 L413 90 L415 94 L425 101 L435 107 L440 112 L452 117 L463 120 L473 120 L480 120 L486 115 L491 107 L497 100 L498 94 L499 85 L503 77 L505 71 L508 65 L510 60 L514 54 L516 49 L519 49 L521 47 L525 43 L530 38 L538 33 L542 30 L546 26 L548 26 L552 26 L559 25 L569 25 L575 25 L581 25 L590 26 L598 29 L609 31 L616 34 L621 38 L626 42 L629 45 L632 53 L636 57 L636 59 L638 64 L639 68 L640 71 L640 74 L640 75 " fill="none" stroke="black" /></svg>