<?xml version="1.0" encoding="utf-8" ?>
<svg baseProfile="tiny" height="504" version="1.2" viewBox="-3 -3 883 504" width="883" xmlns="http://www.w3.org/2000/svg" xmlns:ev="http://www.w3.org/2001/xml-events" xmlns:xlink="http://www.w3.org/1999/xlink"><defs /><path d="M258 133 L303 70 L319 48 L320 48 L320 98 L317 142 L317 148 L330 138 L358 88 L371 61 L368 92 L363 118 L360 124 L364 125 L395 75 L419 43 L419 45 L415 82 L411 112 L411 119 L413 120 L457 74 L498 45 L499 45 L495 67 L487 95 L484 108 L486 107 L512 75 L542 43 L543 44 L534 93 L520 116 L524 106 L538 67 L547 54 L548 61 L548 133 L548 146 L553 147 L581 87 L617 23 L623 19 L618 59 L610 84 L610 87 L648 53 L650 50 L649 62 L643 76 L653 56 L673 24 L676 21 L669 71 L659 105 L680 75 L702 44 L704 45 L699 101 L691 124 L713 89 L749 43 L754 40 L743 86 L734 127 L733 129 L737 121 L740 108 " fill="none" stroke="black" /><path d="M258 133 L303 70 L319 48 L320 48 L320 98 L317 142 L317 148 L330 138 L358 88 L371 61 L368 92 L363 118 L360 124 L364 125 L395 75 L419 43 L419 45 L415 82 L411 112 L411 119 L413 120 L457 74 L498 45 L499 45 L495 67 L487 95 L484 108 L486 107 L512 75 L542 43 L543 44 L534 93 L520 116 L524 106 L538 67 L547 54 L548 61 L548 133 L548 146 L553 147 L581 87 L617 23 L623 19 L618 59 L610 84 L610 87 L648 53 L650 50 L649 62 L643 76 L653 56 L673 24 L676 21 L669 71 L659 105 L680 75 L702 44 L704 45 L699 101 L691 124 L713 89 L749 43 L754 40 L743 86 L734 127 L733 129 L737 121 L740 108 M740 108 L743 105 L756 84 L769 63 L771 65 L771 106 L771 124 L809 72 L860 10 L866 0 L856 45 L841 90 L841 92 L847 71 L853 45 L853 47 L852 52 L868 26 L883 3 L883 9 L868 73 L857 94 L867 71 L874 47 " fill="none" stroke="black" /><path d="M258 133 L303 70 L319 48 L320 48 L320 98 L317 142 L317 148 L330 138 L358 88 L371 61 L368 92 L363 118 L360 124 L364 125 L395 75 L419 43 L419 45 L415 82 L411 112 L411 119 L413 120 L457 74 L498 45 L499 45 L495 67 L487 95 L484 108 L486 107 L512 75 L542 43 L543 44 L534 93 L520 116 L524 106 L538 67 L547 54 L548 61 L548 133 L548 146 L553 147 L581 87 L617 23 L623 19 L618 59 L610 84 L610 87 L648 53 L650 50 L649 62 L643 76 L653 56 L673 24 L676 21 L669 71 L659 105 L680 75 L702 44 L704 45 L699 101 L691 124 L713 89 L749 43 L754 40 L743 86 L734 127 L733 129 L737 121 L740 108 M740 108 L743 105 L756 84 L769 63 L771 65 L771 106 L771 124 L809 72 L860 10 L866 0 L856 45 L841 90 L841 92 L847 71 L853 45 L853 47 L852 52 L868 26 L883 3 L883 9 L868 73 L857 94 L867 71 L874 47 M76 234 L78 233 L93 209 L108 146 L115 101 L115 102 L121 176 L107 260 L107 269 L129 203 L151 123 L161 90 L163 95 L153 166 L141 225 L140 228 L166 171 L190 84 L193 72 L193 78 L190 178 L180 233 L182 227 L219 120 L230 103 L230 122 L234 189 L234 210 L239 189 L258 122 L259 120 L262 121 L262 156 L258 189 L258 192 L287 143 L320 99 L323 97 L335 157 L347 215 L351 225 L355 224 L376 175 L396 140 L399 139 L399 171 L399 208 L399 213 L399 204 L399 198 " fill="none" stroke="black" /><path d="M258 133 L303 70 L319 48 L320 48 L320 98 L317 142 L317 148 L330 138 L358 88 L371 61 L368 92 L363 118 L360 124 L364 125 L395 75 L419 43 L419 45 L415 82 L411 112 L411 119 L413 120 L457 74 L498 45 L499 45 L495 67 L487 95 L484 108 L486 107 L512 75 L542 43 L543 44 L534 93 L520 116 L524 106 L538 67 L547 54 L548 61 L548 133 L548 146 L553 147 L581 87 L617 23 L623 19 L618 59 L610 84 L610 87 L648 53 L650 50 L649 62 L643 76 L653 56 L673 24 L676 21 L669 71 L659 105 L680 75 L702 44 L704 45 L699 101 L691 124 L713 89 L749 43 L754 40 L743 86 L734 127 L733 129 L737 121 L740 108 M740 108 L743 105 L756 84 L769 63 L771 65 L771 106 L771 124 L809 72 L860 10 L866 0 L856 45 L841 90 L841 92 L847 71 L853 45 L853 47 L852 52 L868 26 L883 3 L883 9 L868 73 L857 94 L867 71 L874 47 M76 234 L78 233 L93 209 L108 146 L115 101 L115 102 L121 176 L107 260 L107 269 L129 203 L151 123 L161 90 L163 95 L153 166 L141 225 L140 228 L166 171 L190 84 L193 72 L193 78 L190 178 L180 233 L182 227 L219 120 L230 103 L230 122 L234 189 L234 210 L239 189 L258 122 L259 120 L262 121 L262 156 L258 189 L258 192 L287 143 L320 99 L323 97 L335 157 L347 215 L351 225 L355 224 L376 175 L396 140 L399 139 L399 171 L399 208 L399 213 L399 204 L399 198 M111 85 L95 156 L74 243 L40 363 L14 456 L3 494 L0 504 " fill="none" stroke="black" /></svg>