<?xml version="1.0" encoding="utf-8" ?>
<svg baseProfile="tiny" height="308" version="1.2" viewBox="-3 -3 497 308" width="497" xmlns="http://www.w3.org/2000/svg" xmlns:ev="http://www.w3.org/2001/xml-events" xmlns:xlink="http://www.w3.org/1999/xlink"><defs /><path d="M71 201 L71 199 " fill="none" stroke="black" /><circle cx="4" cy="140" fill="black" r="1" /><path d="M71 201 L71 199 M0 128 L2 125 " fill="none" stroke="black" /><path d="M71 201 L71 199 M0 128 L2 125 M73 104 L87 113 L89 115 " fill="none" stroke="black" /><path d="M71 201 L71 199 M0 128 L2 125 M73 104 L87 113 L89 115 M55 154 L54 156 L52 158 " fill="none" stroke="black" /><path d="M71 201 L71 199 M0 128 L2 125 M73 104 L87 113 L89 115 M55 154 L54 156 L52 158 M44 201 L53 207 L73 217 " fill="none" stroke="black" /><path d="M71 201 L71 199 M0 128 L2 125 M73 104 L87 113 L89 115 M55 154 L54 156 L52 158 M44 201 L53 207 L73 217 M120 219 L118 214 " fill="none" stroke="black" /><path d="M71 201 L71 199 M0 128 L2 125 M73 104 L87 113 L89 115 M55 154 L54 156 L52 158 M44 201 L53 207 L73 217 M120 219 L118 214 M52 168 L52 165 " fill="none" stroke="black" /><path d="M71 201 L71 199 M0 128 L2 125 M73 104 L87 113 L89 115 M55 154 L54 156 L52 158 M44 201 L53 207 L73 217 M120 219 L118 214 M52 168 L52 165 M21 119 L24 118 " fill="none" stroke="black" /><path d="M71 201 L71 199 M0 128 L2 125 M73 104 L87 113 L89 115 M55 154 L54 156 L52 158 M44 201 L53 207 L73 217 M120 219 L118 214 M52 168 L52 165 M21 119 L24 118 M60 104 L64 104 L67 105 " fill="none" stroke="black" /><path d="M71 201 L71 199 M0 128 L2 125 M73 104 L87 113 L89 115 M55 154 L54 156 L52 158 M44 201 L53 207 L73 217 M120 219 L118 214 M52 168 L52 165 M21 119 L24 118 M60 104 L64 104 L67 105 M76 154 L76 161 L74 175 " fill="none" stroke="black" /><path d="M71 201 L71 199 M0 128 L2 125 M73 104 L87 113 L89 115 M55 154 L54 156 L52 158 M44 201 L53 207 L73 217 M120 219 L118 214 M52 168 L52 165 M21 119 L24 118 M60 104 L64 104 L67 105 M76 154 L76 161 L74 175 M91 186 L95 186 L98 186 " fill="none" stroke="black" /><circle cx="141" cy="172" fill="black" r="1" /><circle cx="114" cy="155" fill="black" r="1" /><circle cx="88" cy="130" fill="black" r="1" /><circle cx="102" cy="66" fill="black" r="1" /><path d="M71 201 L71 199 M0 128 L2 125 M73 104 L87 113 L89 115 M55 154 L54 156 L52 158 M44 201 L53 207 L73 217 M120 219 L118 214 M52 168 L52 165 M21 119 L24 118 M60 104 L64 104 L67 105 M76 154 L76 161 L74 175 M91 186 L95 186 L98 186 M154 83 L159 86 L160 87 L160 98 " fill="none" stroke="black" /><path d="M71 201 L71 199 M0 128 L2 125 M73 104 L87 113 L89 115 M55 154 L54 156 L52 158 M44 201 L53 207 L73 217 M120 219 L118 214 M52 168 L52 165 M21 119 L24 118 M60 104 L64 104 L67 105 M76 154 L76 161 L74 175 M91 186 L95 186 L98 186 M154 83 L159 86 L160 87 L160 98 M158 161 L158 164 L158 165 " fill="none" stroke="black" /><path d="M71 201 L71 199 M0 128 L2 125 M73 104 L87 113 L89 115 M55 154 L54 156 L52 158 M44 201 L53 207 L73 217 M120 219 L118 214 M52 168 L52 165 M21 119 L24 118 M60 104 L64 104 L67 105 M76 154 L76 161 L74 175 M91 186 L95 186 L98 186 M154 83 L159 86 L160 87 L160 98 M158 161 L158 164 L158 165 M157 190 L162 191 " fill="none" stroke="black" /><circle cx="183" cy="190" fill="black" r="1" /><circle cx="201" cy="175" fill="black" r="1" /><path d="M71 201 L71 199 M0 128 L2 125 M73 104 L87 113 L89 115 M55 154 L54 156 L52 158 M44 201 L53 207 L73 217 M120 219 L118 214 M52 168 L52 165 M21 119 L24 118 M60 104 L64 104 L67 105 M76 154 L76 161 L74 175 M91 186 L95 186 L98 186 M154 83 L159 86 L160 87 L160 98 M158 161 L158 164 L158 165 M157 190 L162 191 M158 126 L153 124 " fill="none" stroke="black" /><path d="M71 201 L71 199 M0 128 L2 125 M73 104 L87 113 L89 115 M55 154 L54 156 L52 158 M44 201 L53 207 L73 217 M120 219 L118 214 M52 168 L52 165 M21 119 L24 118 M60 104 L64 104 L67 105 M76 154 L76 161 L74 175 M91 186 L95 186 L98 186 M154 83 L159 86 L160 87 L160 98 M158 161 L158 164 L158 165 M157 190 L162 191 M158 126 L153 124 M55 71 L64 75 " fill="none" stroke="black" /><path d="M71 201 L71 199 M0 128 L2 125 M73 104 L87 113 L89 115 M55 154 L54 156 L52 158 M44 201 L53 207 L73 217 M120 219 L118 214 M52 168 L52 165 M21 119 L24 118 M60 104 L64 104 L67 105 M76 154 L76 161 L74 175 M91 186 L95 186 L98 186 M154 83 L159 86 L160 87 L160 98 M158 161 L158 164 L158 165 M157 190 L162 191 M158 126 L153 124 M55 71 L64 75 M102 96 L116 105 L176 143 " fill="none" stroke="black" /><circle cx="265" cy="187" fill="black" r="1" /><circle cx="130" cy="147" fill="black" r="1" /><path d="M71 201 L71 199 M0 128 L2 125 M73 104 L87 113 L89 115 M55 154 L54 156 L52 158 M44 201 L53 207 L73 217 M120 219 L118 214 M52 168 L52 165 M21 119 L24 118 M60 104 L64 104 L67 105 M76 154 L76 161 L74 175 M91 186 L95 186 L98 186 M154 83 L159 86 L160 87 L160 98 M158 161 L158 164 L158 165 M157 190 L162 191 M158 126 L153 124 M55 71 L64 75 M102 96 L116 105 L176 143 M113 112 L132 110 " fill="none" stroke="black" /><circle cx="182" cy="94" fill="black" r="1" /><path d="M71 201 L71 199 M0 128 L2 125 M73 104 L87 113 L89 115 M55 154 L54 156 L52 158 M44 201 L53 207 L73 217 M120 219 L118 214 M52 168 L52 165 M21 119 L24 118 M60 104 L64 104 L67 105 M76 154 L76 161 L74 175 M91 186 L95 186 L98 186 M154 83 L159 86 L160 87 L160 98 M158 161 L158 164 L158 165 M157 190 L162 191 M158 126 L153 124 M55 71 L64 75 M102 96 L116 105 L176 143 M113 112 L132 110 M194 102 L199 106 " fill="none" stroke="black" /><path d="M71 201 L71 199 M0 128 L2 125 M73 104 L87 113 L89 115 M55 154 L54 156 L52 158 M44 201 L53 207 L73 217 M120 219 L118 214 M52 168 L52 165 M21 119 L24 118 M60 104 L64 104 L67 105 M76 154 L76 161 L74 175 M91 186 L95 186 L98 186 M154 83 L159 86 L160 87 L160 98 M158 161 L158 164 L158 165 M157 190 L162 191 M158 126 L153 124 M55 71 L64 75 M102 96 L116 105 L176 143 M113 112 L132 110 M194 102 L199 106 M202 127 L204 128 " fill="none" stroke="black" /><path d="M71 201 L71 199 M0 128 L2 125 M73 104 L87 113 L89 115 M55 154 L54 156 L52 158 M44 201 L53 207 L73 217 M120 219 L118 214 M52 168 L52 165 M21 119 L24 118 M60 104 L64 104 L67 105 M76 154 L76 161 L74 175 M91 186 L95 186 L98 186 M154 83 L159 86 L160 87 L160 98 M158 161 L158 164 L158 165 M157 190 L162 191 M158 126 L153 124 M55 71 L64 75 M102 96 L116 105 L176 143 M113 112 L132 110 M194 102 L199 106 M202 127 L204 128 M241 153 L244 155 " fill="none" stroke="black" /><circle cx="257" cy="149" fill="black" r="1" /><path d="M71 201 L71 199 M0 128 L2 125 M73 104 L87 113 L89 115 M55 154 L54 156 L52 158 M44 201 L53 207 L73 217 M120 219 L118 214 M52 168 L52 165 M21 119 L24 118 M60 104 L64 104 L67 105 M76 154 L76 161 L74 175 M91 186 L95 186 L98 186 M154 83 L159 86 L160 87 L160 98 M158 161 L158 164 L158 165 M157 190 L162 191 M158 126 L153 124 M55 71 L64 75 M102 96 L116 105 L176 143 M113 112 L132 110 M194 102 L199 106 M202 127 L204 128 M241 153 L244 155 M255 106 L254 105 " fill="none" stroke="black" /><circle cx="217" cy="83" fill="black" r="1" /><circle cx="217" cy="83" fill="black" r="1" /><circle cx="126" cy="47" fill="black" r="1" /><circle cx="126" cy="47" fill="black" r="1" /><path d="M71 201 L71 199 M0 128 L2 125 M73 104 L87 113 L89 115 M55 154 L54 156 L52 158 M44 201 L53 207 L73 217 M120 219 L118 214 M52 168 L52 165 M21 119 L24 118 M60 104 L64 104 L67 105 M76 154 L76 161 L74 175 M91 186 L95 186 L98 186 M154 83 L159 86 L160 87 L160 98 M158 161 L158 164 L158 165 M157 190 L162 191 M158 126 L153 124 M55 71 L64 75 M102 96 L116 105 L176 143 M113 112 L132 110 M194 102 L199 106 M202 127 L204 128 M241 153 L244 155 M255 106 L254 105 M107 76 L111 77 " fill="none" stroke="black" /><path d="M71 201 L71 199 M0 128 L2 125 M73 104 L87 113 L89 115 M55 154 L54 156 L52 158 M44 201 L53 207 L73 217 M120 219 L118 214 M52 168 L52 165 M21 119 L24 118 M60 104 L64 104 L67 105 M76 154 L76 161 L74 175 M91 186 L95 186 L98 186 M154 83 L159 86 L160 87 L160 98 M158 161 L158 164 L158 165 M157 190 L162 191 M158 126 L153 124 M55 71 L64 75 M102 96 L116 105 L176 143 M113 112 L132 110 M194 102 L199 106 M202 127 L204 128 M241 153 L244 155 M255 106 L254 105 M107 76 L111 77 M200 162 L202 165 L204 167 " fill="none" stroke="black" /><circle cx="220" cy="185" fill="black" r="1" /><circle cx="243" cy="188" fill="black" r="1" /><circle cx="259" cy="172" fill="black" r="1" /><circle cx="270" cy="171" fill="black" r="1" /><path d="M71 201 L71 199 M0 128 L2 125 M73 104 L87 113 L89 115 M55 154 L54 156 L52 158 M44 201 L53 207 L73 217 M120 219 L118 214 M52 168 L52 165 M21 119 L24 118 M60 104 L64 104 L67 105 M76 154 L76 161 L74 175 M91 186 L95 186 L98 186 M154 83 L159 86 L160 87 L160 98 M158 161 L158 164 L158 165 M157 190 L162 191 M158 126 L153 124 M55 71 L64 75 M102 96 L116 105 L176 143 M113 112 L132 110 M194 102 L199 106 M202 127 L204 128 M241 153 L244 155 M255 106 L254 105 M107 76 L111 77 M200 162 L202 165 L204 167 M274 162 L275 161 " fill="none" stroke="black" /><circle cx="265" cy="135" fill="black" r="1" /><circle cx="265" cy="123" fill="black" r="1" /><circle cx="257" cy="116" fill="black" r="1" /><circle cx="254" cy="116" fill="black" r="1" /><circle cx="226" cy="90" fill="black" r="1" /><circle cx="218" cy="84" fill="black" r="1" /><path d="M71 201 L71 199 M0 128 L2 125 M73 104 L87 113 L89 115 M55 154 L54 156 L52 158 M44 201 L53 207 L73 217 M120 219 L118 214 M52 168 L52 165 M21 119 L24 118 M60 104 L64 104 L67 105 M76 154 L76 161 L74 175 M91 186 L95 186 L98 186 M154 83 L159 86 L160 87 L160 98 M158 161 L158 164 L158 165 M157 190 L162 191 M158 126 L153 124 M55 71 L64 75 M102 96 L116 105 L176 143 M113 112 L132 110 M194 102 L199 106 M202 127 L204 128 M241 153 L244 155 M255 106 L254 105 M107 76 L111 77 M200 162 L202 165 L204 167 M274 162 L275 161 M98 21 L104 22 L127 34 L168 45 L250 86 L293 117 L312 138 L333 172 L345 201 L349 225 L349 230 L349 231 L345 231 L335 228 " fill="none" stroke="black" /><path d="M71 201 L71 199 M0 128 L2 125 M73 104 L87 113 L89 115 M55 154 L54 156 L52 158 M44 201 L53 207 L73 217 M120 219 L118 214 M52 168 L52 165 M21 119 L24 118 M60 104 L64 104 L67 105 M76 154 L76 161 L74 175 M91 186 L95 186 L98 186 M154 83 L159 86 L160 87 L160 98 M158 161 L158 164 L158 165 M157 190 L162 191 M158 126 L153 124 M55 71 L64 75 M102 96 L116 105 L176 143 M113 112 L132 110 M194 102 L199 106 M202 127 L204 128 M241 153 L244 155 M255 106 L254 105 M107 76 L111 77 M200 162 L202 165 L204 167 M274 162 L275 161 M98 21 L104 22 L127 34 L168 45 L250 86 L293 117 L312 138 L333 172 L345 201 L349 225 L349 230 L349 231 L345 231 L335 228 M166 2 L166 0 L173 2 L231 38 L321 115 L358 164 L378 199 L387 217 L393 241 L394 251 L394 254 L391 256 " fill="none" stroke="black" /><path d="M71 201 L71 199 M0 128 L2 125 M73 104 L87 113 L89 115 M55 154 L54 156 L52 158 M44 201 L53 207 L73 217 M120 219 L118 214 M52 168 L52 165 M21 119 L24 118 M60 104 L64 104 L67 105 M76 154 L76 161 L74 175 M91 186 L95 186 L98 186 M154 83 L159 86 L160 87 L160 98 M158 161 L158 164 L158 165 M157 190 L162 191 M158 126 L153 124 M55 71 L64 75 M102 96 L116 105 L176 143 M113 112 L132 110 M194 102 L199 106 M202 127 L204 128 M241 153 L244 155 M255 106 L254 105 M107 76 L111 77 M200 162 L202 165 L204 167 M274 162 L275 161 M98 21 L104 22 L127 34 L168 45 L250 86 L293 117 L312 138 L333 172 L345 201 L349 225 L349 230 L349 231 L345 231 L335 228 M166 2 L166 0 L173 2 L231 38 L321 115 L358 164 L378 199 L387 217 L393 241 L394 251 L394 254 L391 256 M248 14 L281 39 L349 95 L386 134 L399 157 L418 184 L424 203 L425 213 L430 229 L432 243 L432 248 L432 251 " fill="none" stroke="black" /><path d="M71 201 L71 199 M0 128 L2 125 M73 104 L87 113 L89 115 M55 154 L54 156 L52 158 M44 201 L53 207 L73 217 M120 219 L118 214 M52 168 L52 165 M21 119 L24 118 M60 104 L64 104 L67 105 M76 154 L76 161 L74 175 M91 186 L95 186 L98 186 M154 83 L159 86 L160 87 L160 98 M158 161 L158 164 L158 165 M157 190 L162 191 M158 126 L153 124 M55 71 L64 75 M102 96 L116 105 L176 143 M113 112 L132 110 M194 102 L199 106 M202 127 L204 128 M241 153 L244 155 M255 106 L254 105 M107 76 L111 77 M200 162 L202 165 L204 167 M274 162 L275 161 M98 21 L104 22 L127 34 L168 45 L250 86 L293 117 L312 138 L333 172 L345 201 L349 225 L349 230 L349 231 L345 231 L335 228 M166 2 L166 0 L173 2 L231 38 L321 115 L358 164 L378 199 L387 217 L393 241 L394 251 L394 254 L391 256 M248 14 L281 39 L349 95 L386 134 L399 157 L418 184 L424 203 L425 213 L430 229 L432 243 L432 248 L432 251 M315 13 L318 15 L326 29 L371 84 L421 153 L472 233 L492 283 L497 304 L497 308 L491 307 " fill="none" stroke="black" /><circle cx="217" cy="151" fill="black" r="1" /><path d="M71 201 L71 199 M0 128 L2 125 M73 104 L87 113 L89 115 M55 154 L54 156 L52 158 M44 201 L53 207 L73 217 M120 219 L118 214 M52 168 L52 165 M21 119 L24 118 M60 104 L64 104 L67 105 M76 154 L76 161 L74 175 M91 186 L95 186 L98 186 M154 83 L159 86 L160 87 L160 98 M158 161 L158 164 L158 165 M157 190 L162 191 M158 126 L153 124 M55 71 L64 75 M102 96 L116 105 L176 143 M113 112 L132 110 M194 102 L199 106 M202 127 L204 128 M241 153 L244 155 M255 106 L254 105 M107 76 L111 77 M200 162 L202 165 L204 167 M274 162 L275 161 M98 21 L104 22 L127 34 L168 45 L250 86 L293 117 L312 138 L333 172 L345 201 L349 225 L349 230 L349 231 L345 231 L335 228 M166 2 L166 0 L173 2 L231 38 L321 115 L358 164 L378 199 L387 217 L393 241 L394 251 L394 254 L391 256 M248 14 L281 39 L349 95 L386 134 L399 157 L418 184 L424 203 L425 213 L430 229 L432 243 L432 248 L432 251 M315 13 L318 15 L326 29 L371 84 L421 153 L472 233 L492 283 L497 304 L497 308 L491 307 M235 171 L244 189 " fill="none" stroke="black" /><circle cx="262" cy="242" fill="black" r="1" /><path d="M71 201 L71 199 M0 128 L2 125 M73 104 L87 113 L89 115 M55 154 L54 156 L52 158 M44 201 L53 207 L73 217 M120 219 L118 214 M52 168 L52 165 M21 119 L24 118 M60 104 L64 104 L67 105 M76 154 L76 161 L74 175 M91 186 L95 186 L98 186 M154 83 L159 86 L160 87 L160 98 M158 161 L158 164 L158 165 M157 190 L162 191 M158 126 L153 124 M55 71 L64 75 M102 96 L116 105 L176 143 M113 112 L132 110 M194 102 L199 106 M202 127 L204 128 M241 153 L244 155 M255 106 L254 105 M107 76 L111 77 M200 162 L202 165 L204 167 M274 162 L275 161 M98 21 L104 22 L127 34 L168 45 L250 86 L293 117 L312 138 L333 172 L345 201 L349 225 L349 230 L349 231 L345 231 L335 228 M166 2 L166 0 L173 2 L231 38 L321 115 L358 164 L378 199 L387 217 L393 241 L394 251 L394 254 L391 256 M248 14 L281 39 L349 95 L386 134 L399 157 L418 184 L424 203 L425 213 L430 229 L432 243 L432 248 L432 251 M315 13 L318 15 L326 29 L371 84 L421 153 L472 233 L492 283 L497 304 L497 308 L491 307 M235 171 L244 189 M272 245 L275 245 " fill="none" stroke="black" /><path d="M71 201 L71 199 M0 128 L2 125 M73 104 L87 113 L89 115 M55 154 L54 156 L52 158 M44 201 L53 207 L73 217 M120 219 L118 214 M52 168 L52 165 M21 119 L24 118 M60 104 L64 104 L67 105 M76 154 L76 161 L74 175 M91 186 L95 186 L98 186 M154 83 L159 86 L160 87 L160 98 M158 161 L158 164 L158 165 M157 190 L162 191 M158 126 L153 124 M55 71 L64 75 M102 96 L116 105 L176 143 M113 112 L132 110 M194 102 L199 106 M202 127 L204 128 M241 153 L244 155 M255 106 L254 105 M107 76 L111 77 M200 162 L202 165 L204 167 M274 162 L275 161 M98 21 L104 22 L127 34 L168 45 L250 86 L293 117 L312 138 L333 172 L345 201 L349 225 L349 230 L349 231 L345 231 L335 228 M166 2 L166 0 L173 2 L231 38 L321 115 L358 164 L378 199 L387 217 L393 241 L394 251 L394 254 L391 256 M248 14 L281 39 L349 95 L386 134 L399 157 L418 184 L424 203 L425 213 L430 229 L432 243 L432 248 L432 251 M315 13 L318 15 L326 29 L371 84 L421 153 L472 233 L492 283 L497 304 L497 308 L491 307 M235 171 L244 189 M272 245 L275 245 M303 231 L305 230 " fill="none" stroke="black" /><circle cx="197" cy="156" fill="black" r="1" /><path d="M71 201 L71 199 M0 128 L2 125 M73 104 L87 113 L89 115 M55 154 L54 156 L52 158 M44 201 L53 207 L73 217 M120 219 L118 214 M52 168 L52 165 M21 119 L24 118 M60 104 L64 104 L67 105 M76 154 L76 161 L74 175 M91 186 L95 186 L98 186 M154 83 L159 86 L160 87 L160 98 M158 161 L158 164 L158 165 M157 190 L162 191 M158 126 L153 124 M55 71 L64 75 M102 96 L116 105 L176 143 M113 112 L132 110 M194 102 L199 106 M202 127 L204 128 M241 153 L244 155 M255 106 L254 105 M107 76 L111 77 M200 162 L202 165 L204 167 M274 162 L275 161 M98 21 L104 22 L127 34 L168 45 L250 86 L293 117 L312 138 L333 172 L345 201 L349 225 L349 230 L349 231 L345 231 L335 228 M166 2 L166 0 L173 2 L231 38 L321 115 L358 164 L378 199 L387 217 L393 241 L394 251 L394 254 L391 256 M248 14 L281 39 L349 95 L386 134 L399 157 L418 184 L424 203 L425 213 L430 229 L432 243 L432 248 L432 251 M315 13 L318 15 L326 29 L371 84 L421 153 L472 233 L492 283 L497 304 L497 308 L491 307 M235 171 L244 189 M272 245 L275 245 M303 231 L305 230 M69 140 L66 140 " fill="none" stroke="black" /><path d="M71 201 L71 199 M0 128 L2 125 M73 104 L87 113 L89 115 M55 154 L54 156 L52 158 M44 201 L53 207 L73 217 M120 219 L118 214 M52 168 L52 165 M21 119 L24 118 M60 104 L64 104 L67 105 M76 154 L76 161 L74 175 M91 186 L95 186 L98 186 M154 83 L159 86 L160 87 L160 98 M158 161 L158 164 L158 165 M157 190 L162 191 M158 126 L153 124 M55 71 L64 75 M102 96 L116 105 L176 143 M113 112 L132 110 M194 102 L199 106 M202 127 L204 128 M241 153 L244 155 M255 106 L254 105 M107 76 L111 77 M200 162 L202 165 L204 167 M274 162 L275 161 M98 21 L104 22 L127 34 L168 45 L250 86 L293 117 L312 138 L333 172 L345 201 L349 225 L349 230 L349 231 L345 231 L335 228 M166 2 L166 0 L173 2 L231 38 L321 115 L358 164 L378 199 L387 217 L393 241 L394 251 L394 254 L391 256 M248 14 L281 39 L349 95 L386 134 L399 157 L418 184 L424 203 L425 213 L430 229 L432 243 L432 248 L432 251 M315 13 L318 15 L326 29 L371 84 L421 153 L472 233 L492 283 L497 304 L497 308 L491 307 M235 171 L244 189 M272 245 L275 245 M303 231 L305 230 M69 140 L66 140 M41 150 L42 153 L42 154 " fill="none" stroke="black" /><circle cx="42" cy="200" fill="black" r="1" /></svg>