<?xml version="1.0" encoding="utf-8" ?>
<svg baseProfile="tiny" height="410" version="1.2" viewBox="-3 -3 329 410" width="329" xmlns="http://www.w3.org/2000/svg" xmlns:ev="http://www.w3.org/2001/xml-events" xmlns:xlink="http://www.w3.org/1999/xlink"><defs /><path d="M108 406 L122 409 L134 410 L150 410 L166 410 L178 407 L191 400 L209 393 L221 382 L236 375 L253 365 L271 355 L287 343 L301 328 L313 308 L324 285 L325 266 L325 253 L325 237 L325 220 L327 196 L327 171 L328 154 L329 143 L329 137 L328 127 L325 115 L316 101 L302 76 L290 58 L279 47 L265 32 L251 24 L236 13 L218 6 L204 2 L183 0 L155 0 L132 0 L116 2 L101 6 L79 12 L64 27 L50 34 L37 42 L28 55 L23 68 L17 80 L9 92 L3 106 L0 123 L0 144 L0 165 L0 181 L1 195 L4 209 L9 224 L20 244 L29 262 L37 271 L47 281 L60 294 L100 333 L117 350 L128 361 L137 368 L148 375 L160 380 L177 383 L191 383 L205 381 L214 372 L226 355 L234 336 L242 320 L247 301 L251 287 L254 273 L257 257 L260 241 L260 227 L261 212 L261 198 L261 186 L251 161 L245 146 L236 133 L229 124 L220 116 L212 113 L206 113 L186 109 L159 101 L141 99 L134 99 L106 100 L93 106 L83 109 L74 123 L64 136 L57 155 L56 167 L61 183 L68 199 L77 212 L90 229 L103 243 L112 250 L124 258 L135 262 L149 265 L161 264 L174 257 L182 251 L187 242 L193 233 L197 224 L198 206 L198 192 L198 179 L195 165 L191 156 L189 151 L179 145 L171 138 L159 133 L148 127 L140 124 L136 124 L129 126 L122 128 L117 132 L112 139 L107 148 L103 153 L103 158 L103 161 L103 167 L104 171 L108 172 L113 176 L120 179 L128 182 L138 183 L145 183 L151 183 L150 179 L149 178 L146 173 " fill="none" stroke="black" /></svg>