<?xml version="1.0" encoding="utf-8" ?>
<svg baseProfile="tiny" height="371" version="1.2" viewBox="-3 -3 473 371" width="473" xmlns="http://www.w3.org/2000/svg" xmlns:ev="http://www.w3.org/2001/xml-events" xmlns:xlink="http://www.w3.org/1999/xlink"><defs /><path d="M216 146 L220 148 L229 152 L251 150 L278 139 L294 128 L320 104 L332 82 L343 64 L356 46 L361 34 L369 21 L371 15 L371 16 L365 32 L357 57 L353 79 L347 104 L344 125 L344 142 L344 152 L347 159 L351 162 L363 169 L372 172 L398 168 L421 150 L440 136 L456 118 L465 105 L470 91 L473 86 L473 83 L466 84 L437 105 L406 131 L376 152 L361 172 L351 191 L333 223 L319 254 L316 276 L316 281 L328 287 L337 292 L351 301 L370 301 L390 292 L397 274 L397 258 L397 248 L392 241 L388 237 L384 236 L378 233 L361 233 L334 233 L322 234 L305 242 L285 256 L260 272 L249 282 L243 293 L243 300 L253 323 L258 332 L265 340 L275 346 L281 348 L292 339 L299 323 L299 311 L299 301 L297 283 L288 268 L278 255 L273 248 L265 239 L262 237 L255 237 L241 233 L219 233 L201 235 L185 245 L167 254 L150 269 L141 285 L135 306 L138 325 L147 343 L166 363 L173 368 L187 371 L201 366 L212 350 L216 316 L211 291 L201 271 L187 249 L178 238 L173 228 L169 225 L162 222 L146 217 L132 213 L119 210 L105 210 L88 210 L72 213 L60 220 L42 234 L33 251 L28 263 L30 280 L37 291 L50 307 L62 320 L75 325 L91 323 L108 306 L116 286 L115 262 L103 217 L94 182 L88 157 L80 129 L74 111 L57 91 L41 80 L27 79 L20 79 L11 84 L3 102 L0 115 L1 122 L9 132 L17 140 L31 148 L58 159 L82 164 L100 147 L119 130 L131 112 L145 83 L149 59 L152 36 L152 19 L151 7 L149 1 L148 0 " fill="none" stroke="black" /></svg>