<?xml version="1.0" encoding="utf-8" ?>
<svg baseProfile="tiny" height="450" version="1.2" viewBox="-3 -3 598 450" width="598" xmlns="http://www.w3.org/2000/svg" xmlns:ev="http://www.w3.org/2001/xml-events" xmlns:xlink="http://www.w3.org/1999/xlink"><defs /><path d="M51 300 L47 308 L45 312 L44 316 L40 326 L36 335 L32 349 L26 358 L22 367 L19 381 L15 389 L10 396 L4 403 L3 409 L0 414 L0 417 L3 416 L8 415 L11 414 L13 410 L18 404 L21 398 L26 392 L29 389 L33 383 L37 378 L39 373 L42 370 L47 365 L55 355 L65 341 L78 323 L99 292 L126 257 L153 212 L188 159 L202 137 L221 105 L243 72 L264 45 L280 22 L295 5 L298 1 L299 0 L296 6 L287 23 L269 45 L259 71 L251 99 L242 125 L233 149 L225 176 L221 197 L215 220 L209 244 L201 265 L192 285 L188 306 L180 326 L175 351 L169 370 L164 390 L159 405 L158 418 L155 431 L155 443 L155 446 L155 450 L159 450 L166 450 L172 450 L177 444 L186 428 L196 409 L206 389 L225 360 L243 337 L261 308 L278 276 L300 241 L325 203 L352 164 L366 137 L376 122 L383 106 L387 101 L385 106 L375 126 L366 145 L358 167 L354 183 L348 202 L344 220 L337 243 L328 269 L324 285 L321 295 L320 309 L319 320 L316 337 L313 365 L313 377 L319 391 L324 398 L329 407 L332 412 L335 413 L336 413 L339 413 L346 413 L360 413 L376 398 L391 378 L407 351 L423 317 L439 278 L454 237 L468 175 L479 138 L485 118 L490 110 L492 104 L493 100 L493 102 L492 111 L488 128 L481 151 L471 183 L465 207 L459 230 L458 249 L458 271 L456 299 L456 320 L461 333 L468 341 L473 347 L482 352 L495 356 L503 358 L517 351 L528 332 L540 313 L558 282 L575 252 L586 222 L593 192 L597 174 L598 166 " fill="none" stroke="black" /></svg>