<?xml version="1.0" encoding="utf-8" ?>
<svg baseProfile="tiny" height="165" version="1.2" viewBox="-3 -3 637 165" width="637" xmlns="http://www.w3.org/2000/svg" xmlns:ev="http://www.w3.org/2001/xml-events" xmlns:xlink="http://www.w3.org/1999/xlink"><defs /><path d="M0 54 L2 52 L7 47 L8 46 L12 45 L18 45 L23 45 L26 45 L30 45 L33 45 L37 45 L39 45 L43 45 L44 46 L45 49 L49 54 L53 58 L59 65 L63 69 L74 80 L79 87 L83 92 L88 94 L90 97 L93 101 L94 101 L101 103 L107 103 L112 103 L121 102 L130 97 L133 95 L135 91 L138 86 L141 83 L145 77 L146 74 L148 69 L151 66 L154 60 L156 56 L159 52 L163 49 L171 42 L177 37 L183 34 L188 30 L192 28 L196 26 L200 24 L206 24 L210 24 L215 27 L220 30 L226 36 L231 40 L236 46 L242 56 L246 63 L253 72 L257 80 L262 88 L270 98 L278 102 L289 108 L296 108 L303 108 L311 105 L319 96 L323 83 L326 75 L329 65 L330 53 L332 44 L334 31 L334 26 L334 22 L334 20 L336 16 L341 15 L345 15 L348 15 L349 15 L359 21 L376 33 L384 41 L385 44 L387 52 L390 59 L393 74 L393 86 L393 103 L393 115 L393 121 L395 125 L397 125 L403 125 L414 119 L425 111 L430 99 L435 78 L436 61 L436 49 L436 40 L436 34 L436 25 L441 18 L446 12 L454 10 L461 10 L465 10 L466 10 L471 16 L481 31 L491 46 L495 56 L498 65 L498 75 L498 89 L498 103 L499 112 L507 123 L517 130 L523 132 L532 131 L540 121 L543 99 L543 81 L542 62 L541 47 L541 40 L541 28 L544 14 L552 6 L562 0 L568 0 L573 0 L581 4 L584 10 L590 27 L610 70 L613 94 L613 111 L613 121 L613 126 L614 134 L618 143 L632 162 L637 165 " fill="none" stroke="black" /></svg>