<?xml version="1.0" encoding="utf-8" ?>
<svg baseProfile="tiny" height="408" version="1.2" viewBox="-3 -3 893 408" width="893" xmlns="http://www.w3.org/2000/svg" xmlns:ev="http://www.w3.org/2001/xml-events" xmlns:xlink="http://www.w3.org/1999/xlink"><defs /><path d="M304 325 L322 260 " fill="none" stroke="black" /><path d="M304 325 L322 260 M423 105 L403 197 L388 274 L385 293 L385 295 " fill="none" stroke="black" /><path d="M304 325 L322 260 M423 105 L403 197 L388 274 L385 293 L385 295 M486 112 L487 131 L481 201 L473 271 L469 291 L469 292 " fill="none" stroke="black" /><path d="M304 325 L322 260 M423 105 L403 197 L388 274 L385 293 L385 295 M486 112 L487 131 L481 201 L473 271 L469 291 L469 292 M589 100 L543 233 L508 358 L504 406 L504 408 L509 405 L524 343 " fill="none" stroke="black" /><path d="M304 325 L322 260 M423 105 L403 197 L388 274 L385 293 L385 295 M486 112 L487 131 L481 201 L473 271 L469 291 L469 292 M589 100 L543 233 L508 358 L504 406 L504 408 L509 405 L524 343 M625 125 L624 203 L616 295 L614 306 L614 307 L632 279 " fill="none" stroke="black" /><path d="M304 325 L322 260 M423 105 L403 197 L388 274 L385 293 L385 295 M486 112 L487 131 L481 201 L473 271 L469 291 L469 292 M589 100 L543 233 L508 358 L504 406 L504 408 L509 405 L524 343 M625 125 L624 203 L616 295 L614 306 L614 307 L632 279 M848 88 L813 147 L782 236 L774 285 L766 299 L766 307 " fill="none" stroke="black" /><path d="M304 325 L322 260 M423 105 L403 197 L388 274 L385 293 L385 295 M486 112 L487 131 L481 201 L473 271 L469 291 L469 292 M589 100 L543 233 L508 358 L504 406 L504 408 L509 405 L524 343 M625 125 L624 203 L616 295 L614 306 L614 307 L632 279 M848 88 L813 147 L782 236 L774 285 L766 299 L766 307 M220 91 L219 93 L215 100 L201 127 L177 198 L161 254 L156 270 " fill="none" stroke="black" /><path d="M304 325 L322 260 M423 105 L403 197 L388 274 L385 293 L385 295 M486 112 L487 131 L481 201 L473 271 L469 291 L469 292 M589 100 L543 233 L508 358 L504 406 L504 408 L509 405 L524 343 M625 125 L624 203 L616 295 L614 306 L614 307 L632 279 M848 88 L813 147 L782 236 L774 285 L766 299 L766 307 M220 91 L219 93 L215 100 L201 127 L177 198 L161 254 L156 270 M292 95 L292 96 L270 147 L241 214 L223 268 L218 280 L219 283 " fill="none" stroke="black" /><path d="M304 325 L322 260 M423 105 L403 197 L388 274 L385 293 L385 295 M486 112 L487 131 L481 201 L473 271 L469 291 L469 292 M589 100 L543 233 L508 358 L504 406 L504 408 L509 405 L524 343 M625 125 L624 203 L616 295 L614 306 L614 307 L632 279 M848 88 L813 147 L782 236 L774 285 L766 299 L766 307 M220 91 L219 93 L215 100 L201 127 L177 198 L161 254 L156 270 M292 95 L292 96 L270 147 L241 214 L223 268 L218 280 L219 283 M326 77 L336 145 L336 207 L336 253 L336 266 L336 262 " fill="none" stroke="black" /><path d="M304 325 L322 260 M423 105 L403 197 L388 274 L385 293 L385 295 M486 112 L487 131 L481 201 L473 271 L469 291 L469 292 M589 100 L543 233 L508 358 L504 406 L504 408 L509 405 L524 343 M625 125 L624 203 L616 295 L614 306 L614 307 L632 279 M848 88 L813 147 L782 236 L774 285 L766 299 L766 307 M220 91 L219 93 L215 100 L201 127 L177 198 L161 254 L156 270 M292 95 L292 96 L270 147 L241 214 L223 268 L218 280 L219 283 M326 77 L336 145 L336 207 L336 253 L336 266 L336 262 M431 145 L431 232 L426 290 L426 295 L434 256 " fill="none" stroke="black" /><path d="M304 325 L322 260 M423 105 L403 197 L388 274 L385 293 L385 295 M486 112 L487 131 L481 201 L473 271 L469 291 L469 292 M589 100 L543 233 L508 358 L504 406 L504 408 L509 405 L524 343 M625 125 L624 203 L616 295 L614 306 L614 307 L632 279 M848 88 L813 147 L782 236 L774 285 L766 299 L766 307 M220 91 L219 93 L215 100 L201 127 L177 198 L161 254 L156 270 M292 95 L292 96 L270 147 L241 214 L223 268 L218 280 L219 283 M326 77 L336 145 L336 207 L336 253 L336 266 L336 262 M431 145 L431 232 L426 290 L426 295 L434 256 M501 106 L495 186 L485 262 L489 305 L491 307 L494 306 " fill="none" stroke="black" /><path d="M304 325 L322 260 M423 105 L403 197 L388 274 L385 293 L385 295 M486 112 L487 131 L481 201 L473 271 L469 291 L469 292 M589 100 L543 233 L508 358 L504 406 L504 408 L509 405 L524 343 M625 125 L624 203 L616 295 L614 306 L614 307 L632 279 M848 88 L813 147 L782 236 L774 285 L766 299 L766 307 M220 91 L219 93 L215 100 L201 127 L177 198 L161 254 L156 270 M292 95 L292 96 L270 147 L241 214 L223 268 L218 280 L219 283 M326 77 L336 145 L336 207 L336 253 L336 266 L336 262 M431 145 L431 232 L426 290 L426 295 L434 256 M501 106 L495 186 L485 262 L489 305 L491 307 L494 306 M663 74 L669 98 L668 200 L664 243 L664 245 L664 246 " fill="none" stroke="black" /><path d="M304 325 L322 260 M423 105 L403 197 L388 274 L385 293 L385 295 M486 112 L487 131 L481 201 L473 271 L469 291 L469 292 M589 100 L543 233 L508 358 L504 406 L504 408 L509 405 L524 343 M625 125 L624 203 L616 295 L614 306 L614 307 L632 279 M848 88 L813 147 L782 236 L774 285 L766 299 L766 307 M220 91 L219 93 L215 100 L201 127 L177 198 L161 254 L156 270 M292 95 L292 96 L270 147 L241 214 L223 268 L218 280 L219 283 M326 77 L336 145 L336 207 L336 253 L336 266 L336 262 M431 145 L431 232 L426 290 L426 295 L434 256 M501 106 L495 186 L485 262 L489 305 L491 307 L494 306 M663 74 L669 98 L668 200 L664 243 L664 245 L664 246 M734 157 L718 251 L698 329 L696 338 L700 311 " fill="none" stroke="black" /><path d="M304 325 L322 260 M423 105 L403 197 L388 274 L385 293 L385 295 M486 112 L487 131 L481 201 L473 271 L469 291 L469 292 M589 100 L543 233 L508 358 L504 406 L504 408 L509 405 L524 343 M625 125 L624 203 L616 295 L614 306 L614 307 L632 279 M848 88 L813 147 L782 236 L774 285 L766 299 L766 307 M220 91 L219 93 L215 100 L201 127 L177 198 L161 254 L156 270 M292 95 L292 96 L270 147 L241 214 L223 268 L218 280 L219 283 M326 77 L336 145 L336 207 L336 253 L336 266 L336 262 M431 145 L431 232 L426 290 L426 295 L434 256 M501 106 L495 186 L485 262 L489 305 L491 307 L494 306 M663 74 L669 98 L668 200 L664 243 L664 245 L664 246 M734 157 L718 251 L698 329 L696 338 L700 311 M777 113 L751 209 L731 268 L699 312 L677 332 L676 333 " fill="none" stroke="black" /><path d="M304 325 L322 260 M423 105 L403 197 L388 274 L385 293 L385 295 M486 112 L487 131 L481 201 L473 271 L469 291 L469 292 M589 100 L543 233 L508 358 L504 406 L504 408 L509 405 L524 343 M625 125 L624 203 L616 295 L614 306 L614 307 L632 279 M848 88 L813 147 L782 236 L774 285 L766 299 L766 307 M220 91 L219 93 L215 100 L201 127 L177 198 L161 254 L156 270 M292 95 L292 96 L270 147 L241 214 L223 268 L218 280 L219 283 M326 77 L336 145 L336 207 L336 253 L336 266 L336 262 M431 145 L431 232 L426 290 L426 295 L434 256 M501 106 L495 186 L485 262 L489 305 L491 307 L494 306 M663 74 L669 98 L668 200 L664 243 L664 245 L664 246 M734 157 L718 251 L698 329 L696 338 L700 311 M777 113 L751 209 L731 268 L699 312 L677 332 L676 333 M476 0 L428 77 L382 156 L364 218 L360 240 L360 243 " fill="none" stroke="black" /><path d="M304 325 L322 260 M423 105 L403 197 L388 274 L385 293 L385 295 M486 112 L487 131 L481 201 L473 271 L469 291 L469 292 M589 100 L543 233 L508 358 L504 406 L504 408 L509 405 L524 343 M625 125 L624 203 L616 295 L614 306 L614 307 L632 279 M848 88 L813 147 L782 236 L774 285 L766 299 L766 307 M220 91 L219 93 L215 100 L201 127 L177 198 L161 254 L156 270 M292 95 L292 96 L270 147 L241 214 L223 268 L218 280 L219 283 M326 77 L336 145 L336 207 L336 253 L336 266 L336 262 M431 145 L431 232 L426 290 L426 295 L434 256 M501 106 L495 186 L485 262 L489 305 L491 307 L494 306 M663 74 L669 98 L668 200 L664 243 L664 245 L664 246 M734 157 L718 251 L698 329 L696 338 L700 311 M777 113 L751 209 L731 268 L699 312 L677 332 L676 333 M476 0 L428 77 L382 156 L364 218 L360 240 L360 243 M362 125 L323 199 L301 248 L290 294 L284 320 L279 326 L277 329 " fill="none" stroke="black" /><path d="M304 325 L322 260 M423 105 L403 197 L388 274 L385 293 L385 295 M486 112 L487 131 L481 201 L473 271 L469 291 L469 292 M589 100 L543 233 L508 358 L504 406 L504 408 L509 405 L524 343 M625 125 L624 203 L616 295 L614 306 L614 307 L632 279 M848 88 L813 147 L782 236 L774 285 L766 299 L766 307 M220 91 L219 93 L215 100 L201 127 L177 198 L161 254 L156 270 M292 95 L292 96 L270 147 L241 214 L223 268 L218 280 L219 283 M326 77 L336 145 L336 207 L336 253 L336 266 L336 262 M431 145 L431 232 L426 290 L426 295 L434 256 M501 106 L495 186 L485 262 L489 305 L491 307 L494 306 M663 74 L669 98 L668 200 L664 243 L664 245 L664 246 M734 157 L718 251 L698 329 L696 338 L700 311 M777 113 L751 209 L731 268 L699 312 L677 332 L676 333 M476 0 L428 77 L382 156 L364 218 L360 240 L360 243 M362 125 L323 199 L301 248 L290 294 L284 320 L279 326 L277 329 M274 84 L270 112 L261 160 L240 219 L219 271 L207 298 L206 301 " fill="none" stroke="black" /><path d="M304 325 L322 260 M423 105 L403 197 L388 274 L385 293 L385 295 M486 112 L487 131 L481 201 L473 271 L469 291 L469 292 M589 100 L543 233 L508 358 L504 406 L504 408 L509 405 L524 343 M625 125 L624 203 L616 295 L614 306 L614 307 L632 279 M848 88 L813 147 L782 236 L774 285 L766 299 L766 307 M220 91 L219 93 L215 100 L201 127 L177 198 L161 254 L156 270 M292 95 L292 96 L270 147 L241 214 L223 268 L218 280 L219 283 M326 77 L336 145 L336 207 L336 253 L336 266 L336 262 M431 145 L431 232 L426 290 L426 295 L434 256 M501 106 L495 186 L485 262 L489 305 L491 307 L494 306 M663 74 L669 98 L668 200 L664 243 L664 245 L664 246 M734 157 L718 251 L698 329 L696 338 L700 311 M777 113 L751 209 L731 268 L699 312 L677 332 L676 333 M476 0 L428 77 L382 156 L364 218 L360 240 L360 243 M362 125 L323 199 L301 248 L290 294 L284 320 L279 326 L277 329 M274 84 L270 112 L261 160 L240 219 L219 271 L207 298 L206 301 M215 90 L204 145 L181 223 L170 259 L165 281 L161 299 L159 303 " fill="none" stroke="black" /><path d="M304 325 L322 260 M423 105 L403 197 L388 274 L385 293 L385 295 M486 112 L487 131 L481 201 L473 271 L469 291 L469 292 M589 100 L543 233 L508 358 L504 406 L504 408 L509 405 L524 343 M625 125 L624 203 L616 295 L614 306 L614 307 L632 279 M848 88 L813 147 L782 236 L774 285 L766 299 L766 307 M220 91 L219 93 L215 100 L201 127 L177 198 L161 254 L156 270 M292 95 L292 96 L270 147 L241 214 L223 268 L218 280 L219 283 M326 77 L336 145 L336 207 L336 253 L336 266 L336 262 M431 145 L431 232 L426 290 L426 295 L434 256 M501 106 L495 186 L485 262 L489 305 L491 307 L494 306 M663 74 L669 98 L668 200 L664 243 L664 245 L664 246 M734 157 L718 251 L698 329 L696 338 L700 311 M777 113 L751 209 L731 268 L699 312 L677 332 L676 333 M476 0 L428 77 L382 156 L364 218 L360 240 L360 243 M362 125 L323 199 L301 248 L290 294 L284 320 L279 326 L277 329 M274 84 L270 112 L261 160 L240 219 L219 271 L207 298 L206 301 M215 90 L204 145 L181 223 L170 259 L165 281 L161 299 L159 303 M83 115 L100 115 L172 130 L291 151 L432 172 L533 183 L632 194 L735 219 L794 235 L812 237 L816 237 L819 237 L822 237 " fill="none" stroke="black" /><path d="M304 325 L322 260 M423 105 L403 197 L388 274 L385 293 L385 295 M486 112 L487 131 L481 201 L473 271 L469 291 L469 292 M589 100 L543 233 L508 358 L504 406 L504 408 L509 405 L524 343 M625 125 L624 203 L616 295 L614 306 L614 307 L632 279 M848 88 L813 147 L782 236 L774 285 L766 299 L766 307 M220 91 L219 93 L215 100 L201 127 L177 198 L161 254 L156 270 M292 95 L292 96 L270 147 L241 214 L223 268 L218 280 L219 283 M326 77 L336 145 L336 207 L336 253 L336 266 L336 262 M431 145 L431 232 L426 290 L426 295 L434 256 M501 106 L495 186 L485 262 L489 305 L491 307 L494 306 M663 74 L669 98 L668 200 L664 243 L664 245 L664 246 M734 157 L718 251 L698 329 L696 338 L700 311 M777 113 L751 209 L731 268 L699 312 L677 332 L676 333 M476 0 L428 77 L382 156 L364 218 L360 240 L360 243 M362 125 L323 199 L301 248 L290 294 L284 320 L279 326 L277 329 M274 84 L270 112 L261 160 L240 219 L219 271 L207 298 L206 301 M215 90 L204 145 L181 223 L170 259 L165 281 L161 299 L159 303 M83 115 L100 115 L172 130 L291 151 L432 172 L533 183 L632 194 L735 219 L794 235 L812 237 L816 237 L819 237 L822 237 M95 191 L96 191 L117 191 L186 191 L421 208 L586 245 L675 265 L754 284 L830 294 L862 294 L865 294 " fill="none" stroke="black" /><path d="M304 325 L322 260 M423 105 L403 197 L388 274 L385 293 L385 295 M486 112 L487 131 L481 201 L473 271 L469 291 L469 292 M589 100 L543 233 L508 358 L504 406 L504 408 L509 405 L524 343 M625 125 L624 203 L616 295 L614 306 L614 307 L632 279 M848 88 L813 147 L782 236 L774 285 L766 299 L766 307 M220 91 L219 93 L215 100 L201 127 L177 198 L161 254 L156 270 M292 95 L292 96 L270 147 L241 214 L223 268 L218 280 L219 283 M326 77 L336 145 L336 207 L336 253 L336 266 L336 262 M431 145 L431 232 L426 290 L426 295 L434 256 M501 106 L495 186 L485 262 L489 305 L491 307 L494 306 M663 74 L669 98 L668 200 L664 243 L664 245 L664 246 M734 157 L718 251 L698 329 L696 338 L700 311 M777 113 L751 209 L731 268 L699 312 L677 332 L676 333 M476 0 L428 77 L382 156 L364 218 L360 240 L360 243 M362 125 L323 199 L301 248 L290 294 L284 320 L279 326 L277 329 M274 84 L270 112 L261 160 L240 219 L219 271 L207 298 L206 301 M215 90 L204 145 L181 223 L170 259 L165 281 L161 299 L159 303 M83 115 L100 115 L172 130 L291 151 L432 172 L533 183 L632 194 L735 219 L794 235 L812 237 L816 237 L819 237 L822 237 M95 191 L96 191 L117 191 L186 191 L421 208 L586 245 L675 265 L754 284 L830 294 L862 294 L865 294 M0 256 L4 256 L16 256 L120 267 L286 295 L378 306 L464 323 L556 338 L683 341 L763 341 L817 341 L840 341 L846 341 L859 341 L870 342 L876 342 L887 342 L892 342 L893 342 " fill="none" stroke="black" /></svg>