<?xml version="1.0" encoding="utf-8" ?>
<svg baseProfile="tiny" height="55" version="1.2" viewBox="-3 -3 554 55" width="554" xmlns="http://www.w3.org/2000/svg" xmlns:ev="http://www.w3.org/2001/xml-events" xmlns:xlink="http://www.w3.org/1999/xlink"><defs /><path d="M0 10 L7 19 L11 27 L13 30 L15 26 L19 18 L19 15 L22 14 L26 14 L28 14 L43 5 L45 0 L46 3 L56 17 L65 34 L66 37 L68 36 L75 28 L78 24 L79 24 L87 35 L94 43 L94 34 L97 26 L97 23 L105 29 L109 34 L114 34 L123 29 L124 28 L125 28 L129 31 L130 32 L131 32 L141 30 L144 28 L150 33 L156 42 L157 44 L158 44 L166 36 L170 32 L172 33 L177 39 L179 44 L188 40 L195 27 L197 23 L199 25 L205 35 L207 40 L210 33 L217 21 L220 18 L226 22 L231 33 L233 35 L233 34 L238 24 L241 23 L246 27 L253 34 L253 32 L259 26 L260 23 L261 21 L264 21 L273 27 L274 30 L279 27 L280 26 L285 25 L294 36 L297 41 L298 42 L299 44 L302 45 L305 44 L311 31 L313 28 L316 29 L328 40 L336 52 L337 55 L337 50 L337 44 L337 42 L338 40 L342 40 L354 40 L368 33 L372 26 L376 28 L379 32 L382 35 L385 31 L386 30 L388 33 L394 40 L395 41 L398 39 L402 31 L405 32 L407 39 L407 44 L408 45 L413 32 L415 26 L417 35 L418 39 L419 41 L425 33 L433 20 L433 29 L433 37 L437 38 L447 25 L450 18 L452 19 L451 25 L449 41 L449 43 L462 20 L463 19 L464 17 L465 19 L467 28 L468 32 L470 35 L472 34 L485 19 L487 18 L487 24 L487 25 L492 24 L505 15 L508 15 L510 18 L516 22 L518 26 L520 25 L526 10 L528 10 L532 8 L538 15 L541 19 L546 19 L551 19 L553 22 L554 22 " fill="none" stroke="black" /></svg>