<?xml version="1.0" encoding="utf-8" ?>
<svg baseProfile="tiny" height="492" version="1.2" viewBox="-3 -3 743 492" width="743" xmlns="http://www.w3.org/2000/svg" xmlns:ev="http://www.w3.org/2001/xml-events" xmlns:xlink="http://www.w3.org/1999/xlink"><defs /><path d="M104 188 L116 178 L144 103 L166 34 L173 35 L186 84 L188 148 L184 174 L184 165 L184 78 L194 31 L194 32 L194 56 L194 128 L194 143 L196 145 L200 134 L209 89 L214 85 L229 135 L238 170 L239 175 L244 174 L264 133 L272 94 L275 119 L282 158 L284 164 L290 162 L291 124 L291 103 L304 136 L317 156 L319 162 L322 163 L330 132 L335 102 L341 129 L345 173 L345 194 L348 194 L361 154 L372 91 L372 80 L375 90 L389 141 L399 172 L403 172 L405 139 L394 94 L390 91 L411 127 L432 193 L440 205 L445 206 L442 164 L422 104 L409 88 L411 92 L448 156 L474 224 L483 240 L475 232 L417 144 L401 120 L412 123 L468 191 L513 255 L524 274 L525 276 L499 235 L459 156 L437 125 L496 194 L560 276 L577 298 L576 299 L526 219 L500 180 L500 179 L552 235 L656 359 L740 489 L743 492 L738 478 L596 278 L496 131 L483 113 L514 149 L568 213 L580 233 L557 223 L456 134 L382 65 L379 62 L390 81 L400 95 L364 39 L329 0 L326 3 L299 48 L260 99 L240 116 L214 58 L204 37 L201 36 L206 89 L208 126 L209 131 L213 129 L213 79 L211 50 L208 53 L205 92 L183 130 L181 130 L177 132 L154 87 L139 76 L139 77 L124 130 L106 156 L103 161 L103 135 L115 70 L116 67 L116 79 L97 143 L44 228 L21 268 L19 277 L14 290 L12 294 L37 258 L90 186 L114 126 L114 119 L101 177 L32 300 L3 354 L0 359 L5 357 L11 344 L48 286 L82 223 L106 166 L118 130 L121 124 L120 124 L117 126 " fill="none" stroke="black" /></svg>