<?xml version="1.0" encoding="utf-8" ?>
<svg baseProfile="tiny" height="210" version="1.2" viewBox="-3 -3 572 210" width="572" xmlns="http://www.w3.org/2000/svg" xmlns:ev="http://www.w3.org/2001/xml-events" xmlns:xlink="http://www.w3.org/1999/xlink"><defs /><path d="M217 7 L213 15 L210 24 L206 36 L203 48 L199 65 L194 77 L192 90 L189 102 L186 110 L186 120 L186 127 L188 136 L190 143 L193 151 L197 158 L201 164 L211 175 L220 185 L229 190 L238 194 L254 203 L261 203 L276 205 L288 205 L298 205 L320 205 L338 196 L348 186 L353 179 L357 170 L361 155 L364 141 L369 124 L369 107 L369 88 L367 66 L363 49 L359 35 L354 25 L347 21 L335 15 L321 9 L301 4 L287 0 L270 0 L255 0 L251 0 L248 0 L245 0 L244 0 " fill="none" stroke="black" /><path d="M217 7 L213 15 L210 24 L206 36 L203 48 L199 65 L194 77 L192 90 L189 102 L186 110 L186 120 L186 127 L188 136 L190 143 L193 151 L197 158 L201 164 L211 175 L220 185 L229 190 L238 194 L254 203 L261 203 L276 205 L288 205 L298 205 L320 205 L338 196 L348 186 L353 179 L357 170 L361 155 L364 141 L369 124 L369 107 L369 88 L367 66 L363 49 L359 35 L354 25 L347 21 L335 15 L321 9 L301 4 L287 0 L270 0 L255 0 L251 0 L248 0 L245 0 L244 0 M530 38 L507 35 L472 27 L446 24 L426 24 L414 29 L404 44 L395 62 L391 77 L387 97 L384 111 L385 122 L389 134 L394 143 L401 156 L415 179 L428 192 L436 198 L444 202 L455 206 L466 209 L483 210 L500 210 L513 206 L524 196 L534 186 L544 172 L549 161 L556 148 L563 136 L569 122 L571 107 L572 97 L572 92 L569 84 L563 74 L555 66 L548 60 L539 55 L527 48 L519 43 L509 42 L495 37 L489 35 L485 35 L481 35 L479 35 " fill="none" stroke="black" /><path d="M217 7 L213 15 L210 24 L206 36 L203 48 L199 65 L194 77 L192 90 L189 102 L186 110 L186 120 L186 127 L188 136 L190 143 L193 151 L197 158 L201 164 L211 175 L220 185 L229 190 L238 194 L254 203 L261 203 L276 205 L288 205 L298 205 L320 205 L338 196 L348 186 L353 179 L357 170 L361 155 L364 141 L369 124 L369 107 L369 88 L367 66 L363 49 L359 35 L354 25 L347 21 L335 15 L321 9 L301 4 L287 0 L270 0 L255 0 L251 0 L248 0 L245 0 L244 0 M530 38 L507 35 L472 27 L446 24 L426 24 L414 29 L404 44 L395 62 L391 77 L387 97 L384 111 L385 122 L389 134 L394 143 L401 156 L415 179 L428 192 L436 198 L444 202 L455 206 L466 209 L483 210 L500 210 L513 206 L524 196 L534 186 L544 172 L549 161 L556 148 L563 136 L569 122 L571 107 L572 97 L572 92 L569 84 L563 74 L555 66 L548 60 L539 55 L527 48 L519 43 L509 42 L495 37 L489 35 L485 35 L481 35 L479 35 M17 75 L17 79 L17 86 L17 93 L14 101 L14 104 L14 109 L17 116 L17 118 L19 128 L24 139 L28 152 L37 168 L39 171 L41 179 L45 183 L50 187 L54 191 L60 194 L67 199 L84 209 L96 210 L102 210 L107 205 L109 197 L112 186 L115 176 L118 166 L120 157 L123 146 L126 125 L126 108 L126 91 L125 82 L122 73 L121 66 L116 58 L108 55 L100 52 L78 45 L59 42 L53 42 L40 43 L22 50 L10 57 L6 76 L0 86 L0 92 L2 98 L4 101 L9 102 L10 103 " fill="none" stroke="black" /></svg>