<?xml version="1.0" encoding="utf-8" ?>
<svg baseProfile="tiny" height="170" version="1.2" viewBox="-3 -3 379 170" width="379" xmlns="http://www.w3.org/2000/svg" xmlns:ev="http://www.w3.org/2001/xml-events" xmlns:xlink="http://www.w3.org/1999/xlink"><defs /><path d="M9 111 L9 114 L9 116 L11 117 L17 92 L20 93 L20 105 L20 108 L21 109 L41 88 L45 80 L53 124 L59 159 L65 152 L69 105 L72 96 L72 100 L72 124 L72 129 L77 118 L93 91 L93 88 L99 118 L100 139 L104 141 L117 121 L123 92 L123 90 L120 115 L120 128 L124 128 L133 109 L133 100 L133 107 L133 126 L139 121 L143 104 L143 112 L149 134 L154 132 L165 104 L170 92 L169 92 L169 96 L169 102 L169 116 L171 117 L174 108 L174 103 L174 106 L179 125 L182 126 L187 115 L188 101 L188 102 L188 104 L189 106 L192 102 L199 92 L202 94 L205 101 L207 105 L208 108 L211 108 L217 104 L220 106 L226 118 L227 121 L231 121 L233 114 L236 105 L235 102 L235 104 L235 109 L233 113 L233 111 L237 104 L237 107 L237 130 L237 133 L237 130 L244 112 L248 103 L248 108 L249 120 L251 122 L254 118 L259 109 L259 111 L263 119 L264 120 L265 121 L270 116 L275 107 L275 109 L278 130 L279 131 L282 131 L287 123 L289 119 L290 120 L295 109 L302 103 L305 122 L306 126 L310 124 L312 121 L316 124 L325 134 L335 144 L346 135 L352 114 L352 111 L352 115 L352 119 L353 123 L359 123 L360 126 L362 129 L366 121 L366 122 L367 123 L370 119 L370 121 L372 121 L373 120 L373 118 L373 109 L373 55 L373 11 L373 1 L373 0 L373 1 L373 36 L373 82 L378 106 L379 110 L379 112 " fill="none" stroke="black" /><path d="M9 111 L9 114 L9 116 L11 117 L17 92 L20 93 L20 105 L20 108 L21 109 L41 88 L45 80 L53 124 L59 159 L65 152 L69 105 L72 96 L72 100 L72 124 L72 129 L77 118 L93 91 L93 88 L99 118 L100 139 L104 141 L117 121 L123 92 L123 90 L120 115 L120 128 L124 128 L133 109 L133 100 L133 107 L133 126 L139 121 L143 104 L143 112 L149 134 L154 132 L165 104 L170 92 L169 92 L169 96 L169 102 L169 116 L171 117 L174 108 L174 103 L174 106 L179 125 L182 126 L187 115 L188 101 L188 102 L188 104 L189 106 L192 102 L199 92 L202 94 L205 101 L207 105 L208 108 L211 108 L217 104 L220 106 L226 118 L227 121 L231 121 L233 114 L236 105 L235 102 L235 104 L235 109 L233 113 L233 111 L237 104 L237 107 L237 130 L237 133 L237 130 L244 112 L248 103 L248 108 L249 120 L251 122 L254 118 L259 109 L259 111 L263 119 L264 120 L265 121 L270 116 L275 107 L275 109 L278 130 L279 131 L282 131 L287 123 L289 119 L290 120 L295 109 L302 103 L305 122 L306 126 L310 124 L312 121 L316 124 L325 134 L335 144 L346 135 L352 114 L352 111 L352 115 L352 119 L353 123 L359 123 L360 126 L362 129 L366 121 L366 122 L367 123 L370 119 L370 121 L372 121 L373 120 L373 118 L373 109 L373 55 L373 11 L373 1 L373 0 L373 1 L373 36 L373 82 L378 106 L379 110 L379 112 M11 115 L11 111 L11 66 L6 14 L5 5 L4 5 L3 39 L3 121 L0 165 L0 170 " fill="none" stroke="black" /></svg>