<?xml version="1.0" encoding="utf-8" ?>
<svg baseProfile="tiny" height="514" version="1.2" viewBox="-3 -3 867 514" width="867" xmlns="http://www.w3.org/2000/svg" xmlns:ev="http://www.w3.org/2001/xml-events" xmlns:xlink="http://www.w3.org/1999/xlink"><defs /><path d="M0 354 L23 271 L45 216 L84 163 L127 116 L200 70 L261 58 L293 52 L312 52 L322 55 L327 57 L328 60 " fill="none" stroke="black" /><path d="M0 354 L23 271 L45 216 L84 163 L127 116 L200 70 L261 58 L293 52 L312 52 L322 55 L327 57 L328 60 M81 432 L87 428 L91 383 L110 305 L124 247 L137 198 L163 154 L189 131 L250 104 L292 100 L295 100 L299 100 L311 104 L319 107 L319 124 " fill="none" stroke="black" /><path d="M0 354 L23 271 L45 216 L84 163 L127 116 L200 70 L261 58 L293 52 L312 52 L322 55 L327 57 L328 60 M81 432 L87 428 L91 383 L110 305 L124 247 L137 198 L163 154 L189 131 L250 104 L292 100 L295 100 L299 100 L311 104 L319 107 L319 124 M146 514 L146 506 L146 448 L146 373 L156 309 L170 256 L192 204 L224 153 L268 115 L311 97 L328 97 L363 111 L383 124 L383 129 " fill="none" stroke="black" /><path d="M0 354 L23 271 L45 216 L84 163 L127 116 L200 70 L261 58 L293 52 L312 52 L322 55 L327 57 L328 60 M81 432 L87 428 L91 383 L110 305 L124 247 L137 198 L163 154 L189 131 L250 104 L292 100 L295 100 L299 100 L311 104 L319 107 L319 124 M146 514 L146 506 L146 448 L146 373 L156 309 L170 256 L192 204 L224 153 L268 115 L311 97 L328 97 L363 111 L383 124 L383 129 M240 442 L245 399 L255 339 L261 297 L268 262 L279 238 L299 208 L326 190 L364 179 L387 176 L414 193 L437 224 L438 228 L438 230 " fill="none" stroke="black" /><path d="M0 354 L23 271 L45 216 L84 163 L127 116 L200 70 L261 58 L293 52 L312 52 L322 55 L327 57 L328 60 M81 432 L87 428 L91 383 L110 305 L124 247 L137 198 L163 154 L189 131 L250 104 L292 100 L295 100 L299 100 L311 104 L319 107 L319 124 M146 514 L146 506 L146 448 L146 373 L156 309 L170 256 L192 204 L224 153 L268 115 L311 97 L328 97 L363 111 L383 124 L383 129 M240 442 L245 399 L255 339 L261 297 L268 262 L279 238 L299 208 L326 190 L364 179 L387 176 L414 193 L437 224 L438 228 L438 230 M406 514 L394 442 L397 348 L405 288 L411 248 L423 220 L439 193 L462 176 L493 164 L529 158 L543 159 L549 159 L552 160 " fill="none" stroke="black" /><path d="M0 354 L23 271 L45 216 L84 163 L127 116 L200 70 L261 58 L293 52 L312 52 L322 55 L327 57 L328 60 M81 432 L87 428 L91 383 L110 305 L124 247 L137 198 L163 154 L189 131 L250 104 L292 100 L295 100 L299 100 L311 104 L319 107 L319 124 M146 514 L146 506 L146 448 L146 373 L156 309 L170 256 L192 204 L224 153 L268 115 L311 97 L328 97 L363 111 L383 124 L383 129 M240 442 L245 399 L255 339 L261 297 L268 262 L279 238 L299 208 L326 190 L364 179 L387 176 L414 193 L437 224 L438 228 L438 230 M406 514 L394 442 L397 348 L405 288 L411 248 L423 220 L439 193 L462 176 L493 164 L529 158 L543 159 L549 159 L552 160 M556 475 L543 434 L528 358 L528 294 L531 250 L541 202 L558 157 L576 138 L599 128 L623 123 L644 123 L662 123 L665 123 " fill="none" stroke="black" /><path d="M0 354 L23 271 L45 216 L84 163 L127 116 L200 70 L261 58 L293 52 L312 52 L322 55 L327 57 L328 60 M81 432 L87 428 L91 383 L110 305 L124 247 L137 198 L163 154 L189 131 L250 104 L292 100 L295 100 L299 100 L311 104 L319 107 L319 124 M146 514 L146 506 L146 448 L146 373 L156 309 L170 256 L192 204 L224 153 L268 115 L311 97 L328 97 L363 111 L383 124 L383 129 M240 442 L245 399 L255 339 L261 297 L268 262 L279 238 L299 208 L326 190 L364 179 L387 176 L414 193 L437 224 L438 228 L438 230 M406 514 L394 442 L397 348 L405 288 L411 248 L423 220 L439 193 L462 176 L493 164 L529 158 L543 159 L549 159 L552 160 M556 475 L543 434 L528 358 L528 294 L531 250 L541 202 L558 157 L576 138 L599 128 L623 123 L644 123 L662 123 L665 123 M695 478 L682 465 L641 394 L587 291 L559 171 L559 132 L564 112 L574 101 L592 92 L620 88 L637 88 L647 89 L655 94 L655 97 " fill="none" stroke="black" /><path d="M0 354 L23 271 L45 216 L84 163 L127 116 L200 70 L261 58 L293 52 L312 52 L322 55 L327 57 L328 60 M81 432 L87 428 L91 383 L110 305 L124 247 L137 198 L163 154 L189 131 L250 104 L292 100 L295 100 L299 100 L311 104 L319 107 L319 124 M146 514 L146 506 L146 448 L146 373 L156 309 L170 256 L192 204 L224 153 L268 115 L311 97 L328 97 L363 111 L383 124 L383 129 M240 442 L245 399 L255 339 L261 297 L268 262 L279 238 L299 208 L326 190 L364 179 L387 176 L414 193 L437 224 L438 228 L438 230 M406 514 L394 442 L397 348 L405 288 L411 248 L423 220 L439 193 L462 176 L493 164 L529 158 L543 159 L549 159 L552 160 M556 475 L543 434 L528 358 L528 294 L531 250 L541 202 L558 157 L576 138 L599 128 L623 123 L644 123 L662 123 L665 123 M695 478 L682 465 L641 394 L587 291 L559 171 L559 132 L564 112 L574 101 L592 92 L620 88 L637 88 L647 89 L655 94 L655 97 M753 400 L749 393 L680 343 L617 275 L576 209 L555 145 L549 84 L559 46 L585 22 L610 7 L620 0 L634 0 L661 7 L696 29 " fill="none" stroke="black" /><path d="M0 354 L23 271 L45 216 L84 163 L127 116 L200 70 L261 58 L293 52 L312 52 L322 55 L327 57 L328 60 M81 432 L87 428 L91 383 L110 305 L124 247 L137 198 L163 154 L189 131 L250 104 L292 100 L295 100 L299 100 L311 104 L319 107 L319 124 M146 514 L146 506 L146 448 L146 373 L156 309 L170 256 L192 204 L224 153 L268 115 L311 97 L328 97 L363 111 L383 124 L383 129 M240 442 L245 399 L255 339 L261 297 L268 262 L279 238 L299 208 L326 190 L364 179 L387 176 L414 193 L437 224 L438 228 L438 230 M406 514 L394 442 L397 348 L405 288 L411 248 L423 220 L439 193 L462 176 L493 164 L529 158 L543 159 L549 159 L552 160 M556 475 L543 434 L528 358 L528 294 L531 250 L541 202 L558 157 L576 138 L599 128 L623 123 L644 123 L662 123 L665 123 M695 478 L682 465 L641 394 L587 291 L559 171 L559 132 L564 112 L574 101 L592 92 L620 88 L637 88 L647 89 L655 94 L655 97 M753 400 L749 393 L680 343 L617 275 L576 209 L555 145 L549 84 L559 46 L585 22 L610 7 L620 0 L634 0 L661 7 L696 29 M830 412 L815 406 L735 359 L668 306 L642 275 L618 237 L610 206 L610 184 L634 166 L655 156 L692 153 L716 153 L725 158 L728 164 " fill="none" stroke="black" /><path d="M0 354 L23 271 L45 216 L84 163 L127 116 L200 70 L261 58 L293 52 L312 52 L322 55 L327 57 L328 60 M81 432 L87 428 L91 383 L110 305 L124 247 L137 198 L163 154 L189 131 L250 104 L292 100 L295 100 L299 100 L311 104 L319 107 L319 124 M146 514 L146 506 L146 448 L146 373 L156 309 L170 256 L192 204 L224 153 L268 115 L311 97 L328 97 L363 111 L383 124 L383 129 M240 442 L245 399 L255 339 L261 297 L268 262 L279 238 L299 208 L326 190 L364 179 L387 176 L414 193 L437 224 L438 228 L438 230 M406 514 L394 442 L397 348 L405 288 L411 248 L423 220 L439 193 L462 176 L493 164 L529 158 L543 159 L549 159 L552 160 M556 475 L543 434 L528 358 L528 294 L531 250 L541 202 L558 157 L576 138 L599 128 L623 123 L644 123 L662 123 L665 123 M695 478 L682 465 L641 394 L587 291 L559 171 L559 132 L564 112 L574 101 L592 92 L620 88 L637 88 L647 89 L655 94 L655 97 M753 400 L749 393 L680 343 L617 275 L576 209 L555 145 L549 84 L559 46 L585 22 L610 7 L620 0 L634 0 L661 7 L696 29 M830 412 L815 406 L735 359 L668 306 L642 275 L618 237 L610 206 L610 184 L634 166 L655 156 L692 153 L716 153 L725 158 L728 164 M805 384 L798 378 L748 324 L716 276 L705 245 L705 217 L716 186 L744 164 L756 161 L763 161 L783 164 L803 174 L811 181 L817 185 " fill="none" stroke="black" /><path d="M0 354 L23 271 L45 216 L84 163 L127 116 L200 70 L261 58 L293 52 L312 52 L322 55 L327 57 L328 60 M81 432 L87 428 L91 383 L110 305 L124 247 L137 198 L163 154 L189 131 L250 104 L292 100 L295 100 L299 100 L311 104 L319 107 L319 124 M146 514 L146 506 L146 448 L146 373 L156 309 L170 256 L192 204 L224 153 L268 115 L311 97 L328 97 L363 111 L383 124 L383 129 M240 442 L245 399 L255 339 L261 297 L268 262 L279 238 L299 208 L326 190 L364 179 L387 176 L414 193 L437 224 L438 228 L438 230 M406 514 L394 442 L397 348 L405 288 L411 248 L423 220 L439 193 L462 176 L493 164 L529 158 L543 159 L549 159 L552 160 M556 475 L543 434 L528 358 L528 294 L531 250 L541 202 L558 157 L576 138 L599 128 L623 123 L644 123 L662 123 L665 123 M695 478 L682 465 L641 394 L587 291 L559 171 L559 132 L564 112 L574 101 L592 92 L620 88 L637 88 L647 89 L655 94 L655 97 M753 400 L749 393 L680 343 L617 275 L576 209 L555 145 L549 84 L559 46 L585 22 L610 7 L620 0 L634 0 L661 7 L696 29 M830 412 L815 406 L735 359 L668 306 L642 275 L618 237 L610 206 L610 184 L634 166 L655 156 L692 153 L716 153 L725 158 L728 164 M805 384 L798 378 L748 324 L716 276 L705 245 L705 217 L716 186 L744 164 L756 161 L763 161 L783 164 L803 174 L811 181 L817 185 M867 416 L866 417 L825 382 L782 333 L760 296 L749 265 L757 238 L771 217 L776 211 L784 211 L788 210 " fill="none" stroke="black" /></svg>