<?xml version="1.0" encoding="utf-8" ?>
<svg baseProfile="tiny" height="234" version="1.2" viewBox="-3 -3 734 234" width="734" xmlns="http://www.w3.org/2000/svg" xmlns:ev="http://www.w3.org/2001/xml-events" xmlns:xlink="http://www.w3.org/1999/xlink"><defs /><path d="M0 219 L1 219 L196 232 L443 234 L604 226 L619 225 " fill="none" stroke="black" /><path d="M0 219 L1 219 L196 232 L443 234 L604 226 L619 225 M52 218 L58 219 L62 218 L70 204 L75 189 L75 182 L75 172 L75 165 L75 164 " fill="none" stroke="black" /><path d="M0 219 L1 219 L196 232 L443 234 L604 226 L619 225 M52 218 L58 219 L62 218 L70 204 L75 189 L75 182 L75 172 L75 165 L75 164 M130 223 L118 220 L106 212 L98 200 L97 194 L95 183 L94 173 L95 163 L96 159 L98 159 L104 157 L109 154 L113 149 L114 126 L112 117 L106 115 L105 115 L116 114 L126 113 L119 104 L82 85 L73 85 L72 90 L80 97 L84 96 L83 94 L80 92 L77 95 L71 104 L63 101 L48 100 L46 109 L57 117 L58 118 L55 117 L51 120 L48 132 L50 135 L50 134 L47 134 L44 140 L45 151 L52 154 L54 156 L58 158 L72 162 L82 162 L84 162 " fill="none" stroke="black" /><path d="M0 219 L1 219 L196 232 L443 234 L604 226 L619 225 M52 218 L58 219 L62 218 L70 204 L75 189 L75 182 L75 172 L75 165 L75 164 M130 223 L118 220 L106 212 L98 200 L97 194 L95 183 L94 173 L95 163 L96 159 L98 159 L104 157 L109 154 L113 149 L114 126 L112 117 L106 115 L105 115 L116 114 L126 113 L119 104 L82 85 L73 85 L72 90 L80 97 L84 96 L83 94 L80 92 L77 95 L71 104 L63 101 L48 100 L46 109 L57 117 L58 118 L55 117 L51 120 L48 132 L50 135 L50 134 L47 134 L44 140 L45 151 L52 154 L54 156 L58 158 L72 162 L82 162 L84 162 M83 161 L85 161 L89 160 L90 160 L92 160 L94 160 L96 159 L97 158 " fill="none" stroke="black" /><path d="M0 219 L1 219 L196 232 L443 234 L604 226 L619 225 M52 218 L58 219 L62 218 L70 204 L75 189 L75 182 L75 172 L75 165 L75 164 M130 223 L118 220 L106 212 L98 200 L97 194 L95 183 L94 173 L95 163 L96 159 L98 159 L104 157 L109 154 L113 149 L114 126 L112 117 L106 115 L105 115 L116 114 L126 113 L119 104 L82 85 L73 85 L72 90 L80 97 L84 96 L83 94 L80 92 L77 95 L71 104 L63 101 L48 100 L46 109 L57 117 L58 118 L55 117 L51 120 L48 132 L50 135 L50 134 L47 134 L44 140 L45 151 L52 154 L54 156 L58 158 L72 162 L82 162 L84 162 M83 161 L85 161 L89 160 L90 160 L92 160 L94 160 L96 159 L97 158 M722 114 L707 117 L690 112 L672 106 L668 106 L664 111 L647 107 L639 102 L636 103 L623 98 L612 89 L611 89 " fill="none" stroke="black" /><path d="M0 219 L1 219 L196 232 L443 234 L604 226 L619 225 M52 218 L58 219 L62 218 L70 204 L75 189 L75 182 L75 172 L75 165 L75 164 M130 223 L118 220 L106 212 L98 200 L97 194 L95 183 L94 173 L95 163 L96 159 L98 159 L104 157 L109 154 L113 149 L114 126 L112 117 L106 115 L105 115 L116 114 L126 113 L119 104 L82 85 L73 85 L72 90 L80 97 L84 96 L83 94 L80 92 L77 95 L71 104 L63 101 L48 100 L46 109 L57 117 L58 118 L55 117 L51 120 L48 132 L50 135 L50 134 L47 134 L44 140 L45 151 L52 154 L54 156 L58 158 L72 162 L82 162 L84 162 M83 161 L85 161 L89 160 L90 160 L92 160 L94 160 L96 159 L97 158 M722 114 L707 117 L690 112 L672 106 L668 106 L664 111 L647 107 L639 102 L636 103 L623 98 L612 89 L611 89 M725 75 L715 71 L695 61 L678 51 L677 51 L676 50 L656 39 L651 38 L640 32 L632 28 " fill="none" stroke="black" /><path d="M0 219 L1 219 L196 232 L443 234 L604 226 L619 225 M52 218 L58 219 L62 218 L70 204 L75 189 L75 182 L75 172 L75 165 L75 164 M130 223 L118 220 L106 212 L98 200 L97 194 L95 183 L94 173 L95 163 L96 159 L98 159 L104 157 L109 154 L113 149 L114 126 L112 117 L106 115 L105 115 L116 114 L126 113 L119 104 L82 85 L73 85 L72 90 L80 97 L84 96 L83 94 L80 92 L77 95 L71 104 L63 101 L48 100 L46 109 L57 117 L58 118 L55 117 L51 120 L48 132 L50 135 L50 134 L47 134 L44 140 L45 151 L52 154 L54 156 L58 158 L72 162 L82 162 L84 162 M83 161 L85 161 L89 160 L90 160 L92 160 L94 160 L96 159 L97 158 M722 114 L707 117 L690 112 L672 106 L668 106 L664 111 L647 107 L639 102 L636 103 L623 98 L612 89 L611 89 M725 75 L715 71 L695 61 L678 51 L677 51 L676 50 L656 39 L651 38 L640 32 L632 28 M734 32 L712 24 L698 14 L686 9 L676 3 L669 2 L666 1 L654 0 L652 0 " fill="none" stroke="black" /><path d="M0 219 L1 219 L196 232 L443 234 L604 226 L619 225 M52 218 L58 219 L62 218 L70 204 L75 189 L75 182 L75 172 L75 165 L75 164 M130 223 L118 220 L106 212 L98 200 L97 194 L95 183 L94 173 L95 163 L96 159 L98 159 L104 157 L109 154 L113 149 L114 126 L112 117 L106 115 L105 115 L116 114 L126 113 L119 104 L82 85 L73 85 L72 90 L80 97 L84 96 L83 94 L80 92 L77 95 L71 104 L63 101 L48 100 L46 109 L57 117 L58 118 L55 117 L51 120 L48 132 L50 135 L50 134 L47 134 L44 140 L45 151 L52 154 L54 156 L58 158 L72 162 L82 162 L84 162 M83 161 L85 161 L89 160 L90 160 L92 160 L94 160 L96 159 L97 158 M722 114 L707 117 L690 112 L672 106 L668 106 L664 111 L647 107 L639 102 L636 103 L623 98 L612 89 L611 89 M725 75 L715 71 L695 61 L678 51 L677 51 L676 50 L656 39 L651 38 L640 32 L632 28 M734 32 L712 24 L698 14 L686 9 L676 3 L669 2 L666 1 L654 0 L652 0 M166 216 L166 214 L164 199 L164 194 L164 193 L160 205 L159 211 L158 214 L156 217 L154 221 L149 227 L145 231 " fill="none" stroke="black" /><path d="M0 219 L1 219 L196 232 L443 234 L604 226 L619 225 M52 218 L58 219 L62 218 L70 204 L75 189 L75 182 L75 172 L75 165 L75 164 M130 223 L118 220 L106 212 L98 200 L97 194 L95 183 L94 173 L95 163 L96 159 L98 159 L104 157 L109 154 L113 149 L114 126 L112 117 L106 115 L105 115 L116 114 L126 113 L119 104 L82 85 L73 85 L72 90 L80 97 L84 96 L83 94 L80 92 L77 95 L71 104 L63 101 L48 100 L46 109 L57 117 L58 118 L55 117 L51 120 L48 132 L50 135 L50 134 L47 134 L44 140 L45 151 L52 154 L54 156 L58 158 L72 162 L82 162 L84 162 M83 161 L85 161 L89 160 L90 160 L92 160 L94 160 L96 159 L97 158 M722 114 L707 117 L690 112 L672 106 L668 106 L664 111 L647 107 L639 102 L636 103 L623 98 L612 89 L611 89 M725 75 L715 71 L695 61 L678 51 L677 51 L676 50 L656 39 L651 38 L640 32 L632 28 M734 32 L712 24 L698 14 L686 9 L676 3 L669 2 L666 1 L654 0 L652 0 M166 216 L166 214 L164 199 L164 194 L164 193 L160 205 L159 211 L158 214 L156 217 L154 221 L149 227 L145 231 M162 209 L163 212 L168 218 L171 223 L172 224 L174 229 L178 231 L180 232 L181 232 " fill="none" stroke="black" /><path d="M0 219 L1 219 L196 232 L443 234 L604 226 L619 225 M52 218 L58 219 L62 218 L70 204 L75 189 L75 182 L75 172 L75 165 L75 164 M130 223 L118 220 L106 212 L98 200 L97 194 L95 183 L94 173 L95 163 L96 159 L98 159 L104 157 L109 154 L113 149 L114 126 L112 117 L106 115 L105 115 L116 114 L126 113 L119 104 L82 85 L73 85 L72 90 L80 97 L84 96 L83 94 L80 92 L77 95 L71 104 L63 101 L48 100 L46 109 L57 117 L58 118 L55 117 L51 120 L48 132 L50 135 L50 134 L47 134 L44 140 L45 151 L52 154 L54 156 L58 158 L72 162 L82 162 L84 162 M83 161 L85 161 L89 160 L90 160 L92 160 L94 160 L96 159 L97 158 M722 114 L707 117 L690 112 L672 106 L668 106 L664 111 L647 107 L639 102 L636 103 L623 98 L612 89 L611 89 M725 75 L715 71 L695 61 L678 51 L677 51 L676 50 L656 39 L651 38 L640 32 L632 28 M734 32 L712 24 L698 14 L686 9 L676 3 L669 2 L666 1 L654 0 L652 0 M166 216 L166 214 L164 199 L164 194 L164 193 L160 205 L159 211 L158 214 L156 217 L154 221 L149 227 L145 231 M162 209 L163 212 L168 218 L171 223 L172 224 L174 229 L178 231 L180 232 L181 232 M155 194 L162 194 L169 194 L174 194 L178 194 L181 194 " fill="none" stroke="black" /><path d="M0 219 L1 219 L196 232 L443 234 L604 226 L619 225 M52 218 L58 219 L62 218 L70 204 L75 189 L75 182 L75 172 L75 165 L75 164 M130 223 L118 220 L106 212 L98 200 L97 194 L95 183 L94 173 L95 163 L96 159 L98 159 L104 157 L109 154 L113 149 L114 126 L112 117 L106 115 L105 115 L116 114 L126 113 L119 104 L82 85 L73 85 L72 90 L80 97 L84 96 L83 94 L80 92 L77 95 L71 104 L63 101 L48 100 L46 109 L57 117 L58 118 L55 117 L51 120 L48 132 L50 135 L50 134 L47 134 L44 140 L45 151 L52 154 L54 156 L58 158 L72 162 L82 162 L84 162 M83 161 L85 161 L89 160 L90 160 L92 160 L94 160 L96 159 L97 158 M722 114 L707 117 L690 112 L672 106 L668 106 L664 111 L647 107 L639 102 L636 103 L623 98 L612 89 L611 89 M725 75 L715 71 L695 61 L678 51 L677 51 L676 50 L656 39 L651 38 L640 32 L632 28 M734 32 L712 24 L698 14 L686 9 L676 3 L669 2 L666 1 L654 0 L652 0 M166 216 L166 214 L164 199 L164 194 L164 193 L160 205 L159 211 L158 214 L156 217 L154 221 L149 227 L145 231 M162 209 L163 212 L168 218 L171 223 L172 224 L174 229 L178 231 L180 232 L181 232 M155 194 L162 194 L169 194 L174 194 L178 194 L181 194 M166 187 L168 187 L169 186 L169 183 L169 178 L168 174 L167 173 L161 171 L157 171 L154 171 L153 173 L153 178 L156 183 L157 185 L158 186 L159 187 L161 187 L163 187 L166 189 L168 189 " fill="none" stroke="black" /></svg>