<?xml version="1.0" encoding="utf-8" ?>
<svg baseProfile="tiny" height="300" version="1.2" viewBox="-3 -3 460 300" width="460" xmlns="http://www.w3.org/2000/svg" xmlns:ev="http://www.w3.org/2001/xml-events" xmlns:xlink="http://www.w3.org/1999/xlink"><defs /><path d="M247 115 L217 153 L208 201 L228 230 L287 254 L323 242 L326 191 L318 144 L294 117 L285 115 L264 115 L256 116 L252 117 L247 120 L243 122 L242 122 " fill="none" stroke="black" /><path d="M247 115 L217 153 L208 201 L228 230 L287 254 L323 242 L326 191 L318 144 L294 117 L285 115 L264 115 L256 116 L252 117 L247 120 L243 122 L242 122 M266 156 L258 161 L253 164 L249 167 L247 181 L252 196 L269 202 L284 202 L285 202 L285 190 L287 178 L287 175 L282 166 L277 159 L273 157 L271 155 L269 154 L267 154 L260 156 " fill="none" stroke="black" /><path d="M247 115 L217 153 L208 201 L228 230 L287 254 L323 242 L326 191 L318 144 L294 117 L285 115 L264 115 L256 116 L252 117 L247 120 L243 122 L242 122 M266 156 L258 161 L253 164 L249 167 L247 181 L252 196 L269 202 L284 202 L285 202 L285 190 L287 178 L287 175 L282 166 L277 159 L273 157 L271 155 L269 154 L267 154 L260 156 M253 247 L247 254 L237 281 L228 294 L225 298 L213 300 L200 299 L199 298 " fill="none" stroke="black" /><path d="M247 115 L217 153 L208 201 L228 230 L287 254 L323 242 L326 191 L318 144 L294 117 L285 115 L264 115 L256 116 L252 117 L247 120 L243 122 L242 122 M266 156 L258 161 L253 164 L249 167 L247 181 L252 196 L269 202 L284 202 L285 202 L285 190 L287 178 L287 175 L282 166 L277 159 L273 157 L271 155 L269 154 L267 154 L260 156 M253 247 L247 254 L237 281 L228 294 L225 298 L213 300 L200 299 L199 298 M287 257 L295 267 L307 277 L321 290 L335 293 L347 294 L353 293 L354 293 " fill="none" stroke="black" /><path d="M247 115 L217 153 L208 201 L228 230 L287 254 L323 242 L326 191 L318 144 L294 117 L285 115 L264 115 L256 116 L252 117 L247 120 L243 122 L242 122 M266 156 L258 161 L253 164 L249 167 L247 181 L252 196 L269 202 L284 202 L285 202 L285 190 L287 178 L287 175 L282 166 L277 159 L273 157 L271 155 L269 154 L267 154 L260 156 M253 247 L247 254 L237 281 L228 294 L225 298 L213 300 L200 299 L199 298 M287 257 L295 267 L307 277 L321 290 L335 293 L347 294 L353 293 L354 293 M351 105 L369 112 L389 115 L397 104 L399 103 L442 93 L458 81 L459 78 L460 77 " fill="none" stroke="black" /><path d="M247 115 L217 153 L208 201 L228 230 L287 254 L323 242 L326 191 L318 144 L294 117 L285 115 L264 115 L256 116 L252 117 L247 120 L243 122 L242 122 M266 156 L258 161 L253 164 L249 167 L247 181 L252 196 L269 202 L284 202 L285 202 L285 190 L287 178 L287 175 L282 166 L277 159 L273 157 L271 155 L269 154 L267 154 L260 156 M253 247 L247 254 L237 281 L228 294 L225 298 L213 300 L200 299 L199 298 M287 257 L295 267 L307 277 L321 290 L335 293 L347 294 L353 293 L354 293 M351 105 L369 112 L389 115 L397 104 L399 103 L442 93 L458 81 L459 78 L460 77 M287 102 L297 88 L311 60 L307 59 L305 57 L311 46 L312 32 L310 25 L306 23 " fill="none" stroke="black" /><path d="M247 115 L217 153 L208 201 L228 230 L287 254 L323 242 L326 191 L318 144 L294 117 L285 115 L264 115 L256 116 L252 117 L247 120 L243 122 L242 122 M266 156 L258 161 L253 164 L249 167 L247 181 L252 196 L269 202 L284 202 L285 202 L285 190 L287 178 L287 175 L282 166 L277 159 L273 157 L271 155 L269 154 L267 154 L260 156 M253 247 L247 254 L237 281 L228 294 L225 298 L213 300 L200 299 L199 298 M287 257 L295 267 L307 277 L321 290 L335 293 L347 294 L353 293 L354 293 M351 105 L369 112 L389 115 L397 104 L399 103 L442 93 L458 81 L459 78 L460 77 M287 102 L297 88 L311 60 L307 59 L305 57 L311 46 L312 32 L310 25 L306 23 M245 79 L222 54 L211 26 L207 15 L194 3 L192 0 L190 0 " fill="none" stroke="black" /><path d="M247 115 L217 153 L208 201 L228 230 L287 254 L323 242 L326 191 L318 144 L294 117 L285 115 L264 115 L256 116 L252 117 L247 120 L243 122 L242 122 M266 156 L258 161 L253 164 L249 167 L247 181 L252 196 L269 202 L284 202 L285 202 L285 190 L287 178 L287 175 L282 166 L277 159 L273 157 L271 155 L269 154 L267 154 L260 156 M253 247 L247 254 L237 281 L228 294 L225 298 L213 300 L200 299 L199 298 M287 257 L295 267 L307 277 L321 290 L335 293 L347 294 L353 293 L354 293 M351 105 L369 112 L389 115 L397 104 L399 103 L442 93 L458 81 L459 78 L460 77 M287 102 L297 88 L311 60 L307 59 L305 57 L311 46 L312 32 L310 25 L306 23 M245 79 L222 54 L211 26 L207 15 L194 3 L192 0 L190 0 M201 110 L193 115 L161 113 L139 102 L136 93 L124 71 L121 66 L120 66 " fill="none" stroke="black" /><path d="M247 115 L217 153 L208 201 L228 230 L287 254 L323 242 L326 191 L318 144 L294 117 L285 115 L264 115 L256 116 L252 117 L247 120 L243 122 L242 122 M266 156 L258 161 L253 164 L249 167 L247 181 L252 196 L269 202 L284 202 L285 202 L285 190 L287 178 L287 175 L282 166 L277 159 L273 157 L271 155 L269 154 L267 154 L260 156 M253 247 L247 254 L237 281 L228 294 L225 298 L213 300 L200 299 L199 298 M287 257 L295 267 L307 277 L321 290 L335 293 L347 294 L353 293 L354 293 M351 105 L369 112 L389 115 L397 104 L399 103 L442 93 L458 81 L459 78 L460 77 M287 102 L297 88 L311 60 L307 59 L305 57 L311 46 L312 32 L310 25 L306 23 M245 79 L222 54 L211 26 L207 15 L194 3 L192 0 L190 0 M201 110 L193 115 L161 113 L139 102 L136 93 L124 71 L121 66 L120 66 M207 162 L197 163 L188 163 L163 159 L153 154 L146 150 L125 142 L121 139 L120 139 " fill="none" stroke="black" /><path d="M247 115 L217 153 L208 201 L228 230 L287 254 L323 242 L326 191 L318 144 L294 117 L285 115 L264 115 L256 116 L252 117 L247 120 L243 122 L242 122 M266 156 L258 161 L253 164 L249 167 L247 181 L252 196 L269 202 L284 202 L285 202 L285 190 L287 178 L287 175 L282 166 L277 159 L273 157 L271 155 L269 154 L267 154 L260 156 M253 247 L247 254 L237 281 L228 294 L225 298 L213 300 L200 299 L199 298 M287 257 L295 267 L307 277 L321 290 L335 293 L347 294 L353 293 L354 293 M351 105 L369 112 L389 115 L397 104 L399 103 L442 93 L458 81 L459 78 L460 77 M287 102 L297 88 L311 60 L307 59 L305 57 L311 46 L312 32 L310 25 L306 23 M245 79 L222 54 L211 26 L207 15 L194 3 L192 0 L190 0 M201 110 L193 115 L161 113 L139 102 L136 93 L124 71 L121 66 L120 66 M207 162 L197 163 L188 163 L163 159 L153 154 L146 150 L125 142 L121 139 L120 139 M14 239 L20 237 L35 233 L62 230 L87 225 L108 217 L113 216 " fill="none" stroke="black" /><path d="M247 115 L217 153 L208 201 L228 230 L287 254 L323 242 L326 191 L318 144 L294 117 L285 115 L264 115 L256 116 L252 117 L247 120 L243 122 L242 122 M266 156 L258 161 L253 164 L249 167 L247 181 L252 196 L269 202 L284 202 L285 202 L285 190 L287 178 L287 175 L282 166 L277 159 L273 157 L271 155 L269 154 L267 154 L260 156 M253 247 L247 254 L237 281 L228 294 L225 298 L213 300 L200 299 L199 298 M287 257 L295 267 L307 277 L321 290 L335 293 L347 294 L353 293 L354 293 M351 105 L369 112 L389 115 L397 104 L399 103 L442 93 L458 81 L459 78 L460 77 M287 102 L297 88 L311 60 L307 59 L305 57 L311 46 L312 32 L310 25 L306 23 M245 79 L222 54 L211 26 L207 15 L194 3 L192 0 L190 0 M201 110 L193 115 L161 113 L139 102 L136 93 L124 71 L121 66 L120 66 M207 162 L197 163 L188 163 L163 159 L153 154 L146 150 L125 142 L121 139 L120 139 M14 239 L20 237 L35 233 L62 230 L87 225 L108 217 L113 216 M0 255 L30 250 L53 248 L65 247 L77 244 L87 242 L97 239 L105 238 L110 236 L112 235 L115 233 L117 233 L117 232 " fill="none" stroke="black" /><path d="M247 115 L217 153 L208 201 L228 230 L287 254 L323 242 L326 191 L318 144 L294 117 L285 115 L264 115 L256 116 L252 117 L247 120 L243 122 L242 122 M266 156 L258 161 L253 164 L249 167 L247 181 L252 196 L269 202 L284 202 L285 202 L285 190 L287 178 L287 175 L282 166 L277 159 L273 157 L271 155 L269 154 L267 154 L260 156 M253 247 L247 254 L237 281 L228 294 L225 298 L213 300 L200 299 L199 298 M287 257 L295 267 L307 277 L321 290 L335 293 L347 294 L353 293 L354 293 M351 105 L369 112 L389 115 L397 104 L399 103 L442 93 L458 81 L459 78 L460 77 M287 102 L297 88 L311 60 L307 59 L305 57 L311 46 L312 32 L310 25 L306 23 M245 79 L222 54 L211 26 L207 15 L194 3 L192 0 L190 0 M201 110 L193 115 L161 113 L139 102 L136 93 L124 71 L121 66 L120 66 M207 162 L197 163 L188 163 L163 159 L153 154 L146 150 L125 142 L121 139 L120 139 M14 239 L20 237 L35 233 L62 230 L87 225 L108 217 L113 216 M0 255 L30 250 L53 248 L65 247 L77 244 L87 242 L97 239 L105 238 L110 236 L112 235 L115 233 L117 233 L117 232 M114 211 L117 209 L123 200 L130 189 L134 185 L139 184 L147 189 L150 193 L154 197 L160 203 L163 207 L167 213 L167 217 L167 225 L165 227 L163 230 L158 232 L156 234 L153 235 L150 236 L148 236 L147 236 L145 236 L143 237 L140 239 L137 239 L134 239 L131 238 L128 238 L122 235 L119 233 L117 232 L114 227 L112 224 L110 220 L109 217 L108 217 " fill="none" stroke="black" /></svg>