<?xml version="1.0" encoding="utf-8" ?>
<svg baseProfile="tiny" height="323" version="1.2" viewBox="-3 -3 933 323" width="933" xmlns="http://www.w3.org/2000/svg" xmlns:ev="http://www.w3.org/2001/xml-events" xmlns:xlink="http://www.w3.org/1999/xlink"><defs /><path d="M0 101 L34 121 L52 86 L57 71 L63 88 L100 134 L116 130 L129 96 L131 94 L137 129 L160 167 L175 168 L244 118 L301 25 L303 20 L324 65 L359 98 L379 106 L460 116 L531 111 L570 107 L627 99 L656 96 L687 93 L693 91 L702 86 L722 82 L765 80 L784 78 L790 77 " fill="none" stroke="black" /><path d="M0 101 L34 121 L52 86 L57 71 L63 88 L100 134 L116 130 L129 96 L131 94 L137 129 L160 167 L175 168 L244 118 L301 25 L303 20 L324 65 L359 98 L379 106 L460 116 L531 111 L570 107 L627 99 L656 96 L687 93 L693 91 L702 86 L722 82 L765 80 L784 78 L790 77 M776 81 L778 81 L799 81 L814 81 L821 80 L831 79 L842 79 L853 78 L865 79 L873 79 L882 79 L887 79 L894 77 L900 77 L908 77 L915 77 L922 77 L924 77 L925 77 " fill="none" stroke="black" /><path d="M0 101 L34 121 L52 86 L57 71 L63 88 L100 134 L116 130 L129 96 L131 94 L137 129 L160 167 L175 168 L244 118 L301 25 L303 20 L324 65 L359 98 L379 106 L460 116 L531 111 L570 107 L627 99 L656 96 L687 93 L693 91 L702 86 L722 82 L765 80 L784 78 L790 77 M776 81 L778 81 L799 81 L814 81 L821 80 L831 79 L842 79 L853 78 L865 79 L873 79 L882 79 L887 79 L894 77 L900 77 L908 77 L915 77 L922 77 L924 77 L925 77 M899 77 L904 77 L909 75 L912 72 L921 67 L929 62 L932 57 L933 42 L928 35 L914 23 L890 10 L869 0 L859 0 L852 4 L838 14 L810 37 L797 54 L788 70 L777 105 L776 126 L777 136 L781 144 L789 149 L805 154 L817 156 L838 156 L853 155 L867 151 L880 142 L897 126 L900 115 L901 107 L896 92 L891 88 L883 86 L875 87 L866 92 L847 104 L836 119 L828 133 L823 147 L818 157 L816 174 L822 187 L832 194 L842 200 L858 203 L864 203 L870 203 L877 203 L880 200 L882 195 L882 185 L877 177 L874 174 L870 172 L863 169 L856 169 L845 173 L825 183 L814 202 L802 225 L801 242 L806 250 L814 261 L824 268 L837 273 L852 275 L860 275 L866 271 L873 267 L879 260 L879 254 L875 246 L865 237 L859 237 L857 238 L854 240 L853 240 L853 241 L851 241 L850 241 L846 243 L837 247 L833 249 L826 253 L819 261 L809 272 L807 280 L807 287 L807 293 L809 300 L813 305 L818 307 L825 311 L831 315 L839 320 L842 322 L842 323 " fill="none" stroke="black" /></svg>