<?xml version="1.0" encoding="utf-8" ?>
<svg baseProfile="tiny" height="115" version="1.2" viewBox="-3 -3 1071 115" width="1071" xmlns="http://www.w3.org/2000/svg" xmlns:ev="http://www.w3.org/2001/xml-events" xmlns:xlink="http://www.w3.org/1999/xlink"><defs /><path d="M1 73 L1 72 L16 49 L34 13 L35 13 L37 23 L47 70 L49 70 L54 32 L62 16 L74 45 L85 59 L90 32 L98 13 L105 51 L108 54 L122 18 L129 6 L133 45 L152 74 L164 53 L185 16 L192 11 L208 66 L215 79 L225 39 L246 0 L247 2 L264 71 L272 85 L277 46 L280 17 L289 59 L300 86 L301 60 L320 13 L322 10 L334 48 L350 73 L356 55 L373 6 L377 26 L399 70 L404 72 L429 14 L433 8 L444 39 L455 60 L461 41 L471 21 L475 29 L497 66 L498 58 L510 15 L511 14 L532 65 L539 70 L558 33 L562 25 L585 67 L594 75 L605 52 L618 27 L632 61 L649 90 L654 78 L675 30 L676 30 L706 101 L712 107 L733 57 L740 43 L760 91 L763 93 L777 39 L781 29 L799 70 L810 86 L823 58 L838 32 L848 54 L888 95 L896 79 L914 44 L918 47 L953 108 L959 97 L977 56 L982 60 L1007 99 L1011 96 L1024 62 L1026 61 L1042 89 L1044 90 L1063 66 L1071 56 " fill="none" stroke="black" /><path d="M1 73 L1 72 L16 49 L34 13 L35 13 L37 23 L47 70 L49 70 L54 32 L62 16 L74 45 L85 59 L90 32 L98 13 L105 51 L108 54 L122 18 L129 6 L133 45 L152 74 L164 53 L185 16 L192 11 L208 66 L215 79 L225 39 L246 0 L247 2 L264 71 L272 85 L277 46 L280 17 L289 59 L300 86 L301 60 L320 13 L322 10 L334 48 L350 73 L356 55 L373 6 L377 26 L399 70 L404 72 L429 14 L433 8 L444 39 L455 60 L461 41 L471 21 L475 29 L497 66 L498 58 L510 15 L511 14 L532 65 L539 70 L558 33 L562 25 L585 67 L594 75 L605 52 L618 27 L632 61 L649 90 L654 78 L675 30 L676 30 L706 101 L712 107 L733 57 L740 43 L760 91 L763 93 L777 39 L781 29 L799 70 L810 86 L823 58 L838 32 L848 54 L888 95 L896 79 L914 44 L918 47 L953 108 L959 97 L977 56 L982 60 L1007 99 L1011 96 L1024 62 L1026 61 L1042 89 L1044 90 L1063 66 L1071 56 M0 78 L2 78 L29 80 L73 85 L96 86 L127 88 L156 87 L179 87 L199 87 L222 85 L238 84 L279 81 L297 80 L327 83 L370 83 L401 83 L423 80 L461 79 L497 81 L548 85 L576 88 L610 89 L630 89 L651 84 L686 84 L720 83 L760 80 L784 82 L795 81 L811 77 L818 74 L841 74 L865 81 L944 109 L975 114 L986 115 L1000 115 L1015 114 L1035 114 L1046 112 L1053 109 L1054 107 L1055 106 " fill="none" stroke="black" /></svg>