<?xml version="1.0" encoding="utf-8" ?>
<svg baseProfile="tiny" height="418" version="1.2" viewBox="-3 -3 1122 418" width="1122" xmlns="http://www.w3.org/2000/svg" xmlns:ev="http://www.w3.org/2001/xml-events" xmlns:xlink="http://www.w3.org/1999/xlink"><defs /><path d="M0 124 L5 95 L14 67 L26 35 L35 24 L47 16 L67 15 L79 15 L86 23 L101 42 L108 62 L109 72 L106 91 L102 107 L96 127 L95 137 L91 159 L87 180 L80 208 L74 240 L74 263 L74 288 L83 305 L90 316 L100 324 L113 327 L151 320 L177 309 L191 300 L219 266 L234 237 L243 198 L250 165 L254 119 L255 84 L259 48 L267 32 L275 19 L284 9 L286 4 L318 0 L340 11 L362 19 L370 29 L381 62 L378 95 L368 124 L363 137 L359 155 L351 174 L344 196 L343 223 L342 242 L343 261 L357 280 L367 295 L386 317 L407 339 L421 348 L456 352 L493 347 L513 325 L530 287 L543 258 L549 228 L564 181 L562 119 L559 57 L563 22 L572 5 L585 0 L596 0 L599 2 L602 3 L605 7 L612 26 L626 58 L634 90 L640 123 L641 143 L644 163 L649 204 L652 234 L661 258 L676 290 L690 319 L707 336 L730 348 L736 351 L737 351 L753 349 L778 343 L782 340 L788 327 L797 292 L799 235 L800 203 L799 173 L801 152 L804 137 L808 125 L808 123 L800 94 L798 51 L800 33 L808 26 L827 13 L866 6 L903 3 L942 14 L964 50 L970 99 L965 150 L948 205 L940 230 L932 260 L929 275 L929 299 L935 327 L947 343 L956 349 L961 350 L973 350 L1005 345 L1017 338 L1038 316 L1053 277 L1058 227 L1058 169 L1041 117 L1037 95 L1031 60 L1031 47 L1031 22 L1038 5 L1060 2 L1067 4 L1081 20 L1100 70 L1120 125 L1122 145 L1122 192 L1114 248 L1106 310 L1106 337 L1102 365 L1102 395 L1110 415 L1112 417 L1115 418 " fill="none" stroke="black" /></svg>