<?xml version="1.0" encoding="utf-8" ?>
<svg baseProfile="tiny" height="382" version="1.2" viewBox="-3 -3 874 382" width="874" xmlns="http://www.w3.org/2000/svg" xmlns:ev="http://www.w3.org/2001/xml-events" xmlns:xlink="http://www.w3.org/1999/xlink"><defs /><path d="M11 6 L7 36 L2 77 L0 82 L13 69 L26 11 L27 10 L37 37 L37 59 L43 56 L54 11 L55 0 L58 28 L59 38 L64 34 L71 18 L75 38 L89 67 L98 67 L123 23 L131 8 L136 28 L148 62 L151 64 L154 24 L154 18 L154 56 L163 80 L175 48 L190 16 L195 53 L213 73 L225 51 L231 31 L231 83 L238 97 L247 65 L250 68 L259 107 L266 93 L276 64 L275 89 L286 110 L297 81 L298 75 L312 115 L321 105 L331 80 L338 149 L349 154 L355 128 L353 147 L354 157 L369 130 L372 146 L384 175 L396 154 L396 148 L400 163 L408 149 L411 141 L421 180 L427 179 L437 153 L444 185 L461 191 L469 161 L471 182 L490 206 L500 190 L501 202 L523 231 L529 222 L530 223 L552 242 L563 232 L563 238 L600 274 L610 255 L611 251 L630 266 L637 263 L641 254 L658 299 L673 311 L682 283 L692 305 L702 313 L706 307 L710 297 L725 332 L732 318 L737 295 L745 322 L759 349 L773 317 L776 312 L812 382 L827 356 L837 332 L854 356 L859 358 L863 358 L874 372 " fill="none" stroke="black" /></svg>