<?xml version="1.0" encoding="utf-8" ?>
<svg baseProfile="tiny" height="256" version="1.2" viewBox="-3 -3 462 256" width="462" xmlns="http://www.w3.org/2000/svg" xmlns:ev="http://www.w3.org/2001/xml-events" xmlns:xlink="http://www.w3.org/1999/xlink"><defs /><path d="M216 36 L247 38 L262 32 L263 33 L301 38 L310 33 " fill="none" stroke="black" /><path d="M216 36 L247 38 L262 32 L263 33 L301 38 L310 33 M63 107 L110 121 L150 120 L157 114 L161 113 L217 115 L230 105 L235 105 L241 102 L246 101 L263 97 L295 86 L297 85 L311 81 L314 81 L314 80 " fill="none" stroke="black" /><path d="M216 36 L247 38 L262 32 L263 33 L301 38 L310 33 M63 107 L110 121 L150 120 L157 114 L161 113 L217 115 L230 105 L235 105 L241 102 L246 101 L263 97 L295 86 L297 85 L311 81 L314 81 L314 80 M69 164 L108 177 L192 193 L205 190 L210 188 L273 166 L296 157 L297 157 L309 157 L317 155 L342 145 L344 145 L345 145 " fill="none" stroke="black" /><path d="M216 36 L247 38 L262 32 L263 33 L301 38 L310 33 M63 107 L110 121 L150 120 L157 114 L161 113 L217 115 L230 105 L235 105 L241 102 L246 101 L263 97 L295 86 L297 85 L311 81 L314 81 L314 80 M69 164 L108 177 L192 193 L205 190 L210 188 L273 166 L296 157 L297 157 L309 157 L317 155 L342 145 L344 145 L345 145 M0 249 L17 250 L204 256 L365 255 L398 254 L442 252 L462 249 " fill="none" stroke="black" /><path d="M216 36 L247 38 L262 32 L263 33 L301 38 L310 33 M63 107 L110 121 L150 120 L157 114 L161 113 L217 115 L230 105 L235 105 L241 102 L246 101 L263 97 L295 86 L297 85 L311 81 L314 81 L314 80 M69 164 L108 177 L192 193 L205 190 L210 188 L273 166 L296 157 L297 157 L309 157 L317 155 L342 145 L344 145 L345 145 M0 249 L17 250 L204 256 L365 255 L398 254 L442 252 L462 249 M354 0 L355 4 L361 54 L364 93 L366 122 L367 136 L368 153 L370 164 L370 179 L372 196 L374 204 L374 210 L374 214 L375 219 L375 223 L375 227 L377 233 L377 238 L379 241 L379 243 L378 244 L378 246 " fill="none" stroke="black" /><path d="M216 36 L247 38 L262 32 L263 33 L301 38 L310 33 M63 107 L110 121 L150 120 L157 114 L161 113 L217 115 L230 105 L235 105 L241 102 L246 101 L263 97 L295 86 L297 85 L311 81 L314 81 L314 80 M69 164 L108 177 L192 193 L205 190 L210 188 L273 166 L296 157 L297 157 L309 157 L317 155 L342 145 L344 145 L345 145 M0 249 L17 250 L204 256 L365 255 L398 254 L442 252 L462 249 M354 0 L355 4 L361 54 L364 93 L366 122 L367 136 L368 153 L370 164 L370 179 L372 196 L374 204 L374 210 L374 214 L375 219 L375 223 L375 227 L377 233 L377 238 L379 241 L379 243 L378 244 L378 246 M349 145 L355 144 L359 143 L363 141 L368 139 L369 139 " fill="none" stroke="black" /><path d="M216 36 L247 38 L262 32 L263 33 L301 38 L310 33 M63 107 L110 121 L150 120 L157 114 L161 113 L217 115 L230 105 L235 105 L241 102 L246 101 L263 97 L295 86 L297 85 L311 81 L314 81 L314 80 M69 164 L108 177 L192 193 L205 190 L210 188 L273 166 L296 157 L297 157 L309 157 L317 155 L342 145 L344 145 L345 145 M0 249 L17 250 L204 256 L365 255 L398 254 L442 252 L462 249 M354 0 L355 4 L361 54 L364 93 L366 122 L367 136 L368 153 L370 164 L370 179 L372 196 L374 204 L374 210 L374 214 L375 219 L375 223 L375 227 L377 233 L377 238 L379 241 L379 243 L378 244 L378 246 M349 145 L355 144 L359 143 L363 141 L368 139 L369 139 M317 77 L320 75 L335 74 L342 74 L350 73 L358 72 " fill="none" stroke="black" /><path d="M216 36 L247 38 L262 32 L263 33 L301 38 L310 33 M63 107 L110 121 L150 120 L157 114 L161 113 L217 115 L230 105 L235 105 L241 102 L246 101 L263 97 L295 86 L297 85 L311 81 L314 81 L314 80 M69 164 L108 177 L192 193 L205 190 L210 188 L273 166 L296 157 L297 157 L309 157 L317 155 L342 145 L344 145 L345 145 M0 249 L17 250 L204 256 L365 255 L398 254 L442 252 L462 249 M354 0 L355 4 L361 54 L364 93 L366 122 L367 136 L368 153 L370 164 L370 179 L372 196 L374 204 L374 210 L374 214 L375 219 L375 223 L375 227 L377 233 L377 238 L379 241 L379 243 L378 244 L378 246 M349 145 L355 144 L359 143 L363 141 L368 139 L369 139 M317 77 L320 75 L335 74 L342 74 L350 73 L358 72 M314 37 L317 37 L318 37 L320 38 L326 39 L330 39 L334 39 L342 38 L348 38 L354 37 L357 36 " fill="none" stroke="black" /><path d="M216 36 L247 38 L262 32 L263 33 L301 38 L310 33 M63 107 L110 121 L150 120 L157 114 L161 113 L217 115 L230 105 L235 105 L241 102 L246 101 L263 97 L295 86 L297 85 L311 81 L314 81 L314 80 M69 164 L108 177 L192 193 L205 190 L210 188 L273 166 L296 157 L297 157 L309 157 L317 155 L342 145 L344 145 L345 145 M0 249 L17 250 L204 256 L365 255 L398 254 L442 252 L462 249 M354 0 L355 4 L361 54 L364 93 L366 122 L367 136 L368 153 L370 164 L370 179 L372 196 L374 204 L374 210 L374 214 L375 219 L375 223 L375 227 L377 233 L377 238 L379 241 L379 243 L378 244 L378 246 M349 145 L355 144 L359 143 L363 141 L368 139 L369 139 M317 77 L320 75 L335 74 L342 74 L350 73 L358 72 M314 37 L317 37 L318 37 L320 38 L326 39 L330 39 L334 39 L342 38 L348 38 L354 37 L357 36 M72 161 L75 159 L85 174 L99 186 L111 186 L122 182 L123 181 L132 188 L158 193 L177 179 L178 179 L183 188 L191 190 L214 175 L217 182 L227 186 L240 177 L258 171 L262 176 L268 177 L278 168 L283 176 L290 178 L302 167 L309 164 L317 164 L320 166 L321 167 " fill="none" stroke="black" /><path d="M216 36 L247 38 L262 32 L263 33 L301 38 L310 33 M63 107 L110 121 L150 120 L157 114 L161 113 L217 115 L230 105 L235 105 L241 102 L246 101 L263 97 L295 86 L297 85 L311 81 L314 81 L314 80 M69 164 L108 177 L192 193 L205 190 L210 188 L273 166 L296 157 L297 157 L309 157 L317 155 L342 145 L344 145 L345 145 M0 249 L17 250 L204 256 L365 255 L398 254 L442 252 L462 249 M354 0 L355 4 L361 54 L364 93 L366 122 L367 136 L368 153 L370 164 L370 179 L372 196 L374 204 L374 210 L374 214 L375 219 L375 223 L375 227 L377 233 L377 238 L379 241 L379 243 L378 244 L378 246 M349 145 L355 144 L359 143 L363 141 L368 139 L369 139 M317 77 L320 75 L335 74 L342 74 L350 73 L358 72 M314 37 L317 37 L318 37 L320 38 L326 39 L330 39 L334 39 L342 38 L348 38 L354 37 L357 36 M72 161 L75 159 L85 174 L99 186 L111 186 L122 182 L123 181 L132 188 L158 193 L177 179 L178 179 L183 188 L191 190 L214 175 L217 182 L227 186 L240 177 L258 171 L262 176 L268 177 L278 168 L283 176 L290 178 L302 167 L309 164 L317 164 L320 166 L321 167 M92 104 L93 107 L110 120 L137 122 L146 115 L150 120 L193 144 L229 116 L246 105 L253 106 L257 108 L271 109 L284 98 L286 96 L296 113 L308 113 L319 97 L326 99 L329 100 L332 97 L342 89 L342 88 L343 88 " fill="none" stroke="black" /><path d="M216 36 L247 38 L262 32 L263 33 L301 38 L310 33 M63 107 L110 121 L150 120 L157 114 L161 113 L217 115 L230 105 L235 105 L241 102 L246 101 L263 97 L295 86 L297 85 L311 81 L314 81 L314 80 M69 164 L108 177 L192 193 L205 190 L210 188 L273 166 L296 157 L297 157 L309 157 L317 155 L342 145 L344 145 L345 145 M0 249 L17 250 L204 256 L365 255 L398 254 L442 252 L462 249 M354 0 L355 4 L361 54 L364 93 L366 122 L367 136 L368 153 L370 164 L370 179 L372 196 L374 204 L374 210 L374 214 L375 219 L375 223 L375 227 L377 233 L377 238 L379 241 L379 243 L378 244 L378 246 M349 145 L355 144 L359 143 L363 141 L368 139 L369 139 M317 77 L320 75 L335 74 L342 74 L350 73 L358 72 M314 37 L317 37 L318 37 L320 38 L326 39 L330 39 L334 39 L342 38 L348 38 L354 37 L357 36 M72 161 L75 159 L85 174 L99 186 L111 186 L122 182 L123 181 L132 188 L158 193 L177 179 L178 179 L183 188 L191 190 L214 175 L217 182 L227 186 L240 177 L258 171 L262 176 L268 177 L278 168 L283 176 L290 178 L302 167 L309 164 L317 164 L320 166 L321 167 M92 104 L93 107 L110 120 L137 122 L146 115 L150 120 L193 144 L229 116 L246 105 L253 106 L257 108 L271 109 L284 98 L286 96 L296 113 L308 113 L319 97 L326 99 L329 100 L332 97 L342 89 L342 88 L343 88 M69 47 L71 49 L81 46 L87 43 L89 41 L93 42 L94 42 L100 44 L112 49 L114 49 L115 49 L117 48 " fill="none" stroke="black" /></svg>