<?xml version="1.0" encoding="utf-8" ?>
<svg baseProfile="tiny" height="483" version="1.2" viewBox="-3 -3 1104 483" width="1104" xmlns="http://www.w3.org/2000/svg" xmlns:ev="http://www.w3.org/2001/xml-events" xmlns:xlink="http://www.w3.org/1999/xlink"><defs /><path d="M49 0 L48 0 L46 5 L44 13 L43 26 L41 32 L40 38 L39 42 L39 47 L35 54 L33 61 L33 65 L34 71 L35 75 L35 83 L35 94 L34 104 L32 121 L29 131 L28 139 L25 146 L22 155 L21 164 L18 174 L15 185 L15 199 L15 212 L15 226 L12 241 L11 253 L10 264 L10 278 L7 291 L6 300 L5 308 L2 316 L2 328 L1 338 L0 349 L1 358 L4 369 L8 382 L12 391 L16 404 L21 411 L26 421 L31 429 L37 434 L41 437 L46 441 L57 448 L64 454 L69 458 L77 464 L88 469 L94 472 L100 474 L107 475 L115 478 L126 480 L141 482 L153 483 L160 483 L167 483 L176 483 L187 483 L198 483 L208 483 L219 481 L228 481 L237 480 L244 480 L254 480 L264 480 L269 480 L280 480 L287 480 L299 480 L307 480 L314 480 L328 478 L344 477 L358 475 L380 472 L402 471 L412 471 L421 470 L430 469 L450 469 L460 469 L472 466 L487 463 L499 455 L505 450 L520 442 L540 432 L557 423 L563 418 L575 409 L591 400 L598 394 L605 389 L614 382 L621 376 L629 372 L637 367 L642 362 L647 360 L654 356 L663 350 L689 339 L702 334 L707 331 L714 329 L723 324 L732 323 L744 323 L768 323 L784 324 L795 325 L814 325 L829 325 L844 326 L855 328 L863 331 L889 341 L920 354 L949 367 L968 374 L991 378 L1002 380 L1011 383 L1025 385 L1041 379 L1064 369 L1078 360 L1094 353 L1101 348 L1102 347 L1104 347 " fill="none" stroke="black" /></svg>