<?xml version="1.0" encoding="utf-8" ?>
<svg baseProfile="tiny" height="497" version="1.2" viewBox="-3 -3 964 497" width="964" xmlns="http://www.w3.org/2000/svg" xmlns:ev="http://www.w3.org/2001/xml-events" xmlns:xlink="http://www.w3.org/1999/xlink"><defs /><path d="M36 0 L35 10 L29 39 L27 55 L27 70 L25 89 L24 109 L23 122 L19 150 L13 177 L8 212 L5 238 L3 267 L1 287 L0 309 L0 327 L0 343 L0 360 L0 373 L3 389 L13 418 L22 438 L35 458 L41 469 L52 478 L66 488 L78 492 L93 497 L103 497 L143 489 L171 479 L182 469 L215 442 L237 408 L255 379 L265 351 L269 325 L275 300 L280 270 L280 241 L280 218 L281 203 L282 193 L286 170 L287 146 L284 119 L277 86 L271 58 L267 48 L261 37 L255 29 L248 20 L244 18 L242 18 L237 25 L219 42 L205 60 L196 81 L182 124 L175 172 L173 214 L173 277 L181 324 L191 359 L202 386 L211 411 L224 437 L233 444 L249 457 L275 471 L297 480 L311 482 L346 481 L385 477 L447 462 L511 436 L543 421 L564 409 L591 378 L604 349 L623 302 L640 265 L655 212 L658 187 L651 143 L646 116 L637 84 L629 61 L622 45 L615 28 L603 17 L599 12 L597 10 L596 10 L595 10 L588 13 L572 29 L563 39 L547 57 L532 77 L514 122 L500 187 L495 256 L500 314 L503 353 L510 386 L524 423 L534 444 L544 455 L556 467 L564 471 L570 476 L575 478 L653 481 L709 483 L723 482 L734 480 L742 475 L759 468 L777 459 L798 448 L845 430 L866 420 L885 406 L904 388 L921 363 L933 341 L941 320 L950 300 L956 270 L959 248 L961 226 L963 204 L964 178 L959 156 L957 144 L957 139 " fill="none" stroke="black" /></svg>