<?xml version="1.0" encoding="utf-8" ?>
<svg baseProfile="tiny" height="418" version="1.2" viewBox="-3 -3 1173 418" width="1173" xmlns="http://www.w3.org/2000/svg" xmlns:ev="http://www.w3.org/2001/xml-events" xmlns:xlink="http://www.w3.org/1999/xlink"><defs /><path d="M0 418 L10 416 L62 384 L141 345 L173 320 L194 279 L211 229 L211 169 L212 117 L227 83 L236 63 L246 47 L259 28 L266 22 L283 10 L299 4 L334 2 L344 0 L356 9 L362 16 L364 25 L362 38 L357 53 L351 63 L347 73 L341 85 L337 94 L334 111 L334 123 L339 131 L344 140 L348 142 L352 144 L363 145 L374 145 L386 145 L415 142 L427 139 L443 136 L474 131 L490 130 L495 121 L509 110 L523 107 L558 104 L620 99 L636 98 L643 98 L652 97 L666 98 L674 99 L685 101 L694 101 L713 102 L743 100 L752 95 L758 90 L769 78 L780 59 L804 39 L826 23 L836 15 L860 11 L880 11 L897 19 L917 40 L933 71 L941 85 L949 91 L978 94 L1018 97 L1049 97 L1079 93 L1114 91 L1132 89 L1156 87 L1164 87 L1169 87 L1172 87 L1173 87 " fill="none" stroke="black" /></svg>