<?xml version="1.0" encoding="utf-8" ?>
<svg baseProfile="tiny" height="168" version="1.2" viewBox="-3 -3 905 168" width="905" xmlns="http://www.w3.org/2000/svg" xmlns:ev="http://www.w3.org/2001/xml-events" xmlns:xlink="http://www.w3.org/1999/xlink"><defs /><path d="M0 130 L0 131 L4 134 L8 136 L9 138 L11 140 L12 141 L13 141 L14 142 L16 143 L16 144 L18 145 L20 146 L22 146 L23 146 L24 147 L26 148 L27 148 L29 149 L31 149 L34 151 L36 152 L40 153 L48 155 L51 156 L55 156 L57 157 L58 157 L60 157 L60 158 L62 160 L68 161 L74 161 L80 161 L84 161 L87 161 L89 161 L94 161 L96 161 L98 161 L99 161 L101 161 L102 161 L105 161 L110 163 L119 163 L126 163 L131 163 L133 164 L139 164 L148 164 L152 166 L159 166 L166 166 L174 167 L178 168 L182 167 L192 167 L197 165 L205 165 L210 164 L218 163 L221 163 L222 162 L224 162 L229 162 L232 162 L233 162 L237 162 L242 164 L245 164 L248 165 L251 166 L252 167 L253 167 L256 167 L266 167 L280 166 L286 165 L293 163 L302 162 L310 161 L321 161 L330 160 L343 160 L350 161 L355 161 L360 161 L366 161 L371 161 L376 161 L381 160 L385 160 L387 160 L390 158 L394 158 L397 157 L401 157 L407 157 L412 158 L415 158 L421 158 L432 158 L441 159 L445 159 L449 159 L455 160 L459 160 L462 160 L471 160 L476 160 L482 161 L489 163 L500 166 L510 166 L520 163 L526 163 L531 161 L536 160 L556 159 L573 158 L582 158 L594 158 L605 160 L615 161 L622 161 L631 162 L642 162 L654 163 L671 163 L680 164 L693 162 L703 161 L718 160 L734 159 L750 158 L782 156 L817 156 L846 157 L888 157 L896 157 L905 158 " fill="none" stroke="black" /><path d="M0 130 L0 131 L4 134 L8 136 L9 138 L11 140 L12 141 L13 141 L14 142 L16 143 L16 144 L18 145 L20 146 L22 146 L23 146 L24 147 L26 148 L27 148 L29 149 L31 149 L34 151 L36 152 L40 153 L48 155 L51 156 L55 156 L57 157 L58 157 L60 157 L60 158 L62 160 L68 161 L74 161 L80 161 L84 161 L87 161 L89 161 L94 161 L96 161 L98 161 L99 161 L101 161 L102 161 L105 161 L110 163 L119 163 L126 163 L131 163 L133 164 L139 164 L148 164 L152 166 L159 166 L166 166 L174 167 L178 168 L182 167 L192 167 L197 165 L205 165 L210 164 L218 163 L221 163 L222 162 L224 162 L229 162 L232 162 L233 162 L237 162 L242 164 L245 164 L248 165 L251 166 L252 167 L253 167 L256 167 L266 167 L280 166 L286 165 L293 163 L302 162 L310 161 L321 161 L330 160 L343 160 L350 161 L355 161 L360 161 L366 161 L371 161 L376 161 L381 160 L385 160 L387 160 L390 158 L394 158 L397 157 L401 157 L407 157 L412 158 L415 158 L421 158 L432 158 L441 159 L445 159 L449 159 L455 160 L459 160 L462 160 L471 160 L476 160 L482 161 L489 163 L500 166 L510 166 L520 163 L526 163 L531 161 L536 160 L556 159 L573 158 L582 158 L594 158 L605 160 L615 161 L622 161 L631 162 L642 162 L654 163 L671 163 L680 164 L693 162 L703 161 L718 160 L734 159 L750 158 L782 156 L817 156 L846 157 L888 157 L896 157 L905 158 M426 0 L427 0 " fill="none" stroke="black" /></svg>