<?xml version="1.0" encoding="utf-8" ?>
<svg baseProfile="tiny" height="283" version="1.2" viewBox="-3 -3 933 283" width="933" xmlns="http://www.w3.org/2000/svg" xmlns:ev="http://www.w3.org/2001/xml-events" xmlns:xlink="http://www.w3.org/1999/xlink"><defs /><path d="M0 274 L2 217 L22 143 L35 100 L48 64 L54 48 L60 31 L64 26 L64 25 L67 32 L68 39 L69 42 L70 43 L70 44 L74 46 L78 49 L79 50 L81 50 L84 51 L87 51 L91 51 L96 50 L99 50 L108 47 L110 46 L111 46 L114 45 L117 44 L123 42 L128 42 L134 41 L134 44 L131 73 L131 83 L131 91 L131 122 L130 178 L131 210 L131 235 L131 255 L133 268 L135 276 L135 277 L149 271 L165 264 L173 249 L187 216 L204 172 L211 141 L214 121 L216 101 L221 81 L228 58 L233 41 L237 34 L241 27 L245 20 L252 13 L258 8 L260 7 L260 6 L273 6 L291 6 L305 5 L320 5 L331 6 L342 7 L353 10 L356 11 L358 12 L353 45 L341 101 L339 164 L339 209 L339 241 L342 252 L343 253 L344 267 L345 273 L345 274 L358 269 L398 245 L411 234 L425 215 L436 198 L440 167 L442 118 L442 74 L439 40 L438 20 L438 15 L450 15 L477 16 L492 17 L507 17 L515 16 L522 15 L526 15 L527 15 L528 14 L525 57 L517 120 L518 145 L519 174 L521 203 L521 225 L521 228 L521 237 L523 247 L524 251 L528 251 L564 247 L637 254 L640 254 L640 238 L634 156 L627 106 L627 60 L628 46 L630 39 L631 32 L632 14 L635 7 L636 5 L637 5 L653 2 L701 0 L722 0 L744 2 L772 6 L774 8 L777 24 L777 73 L780 118 L781 158 L778 208 L778 259 L781 279 L783 283 L806 279 L912 261 L926 256 L926 255 L931 240 L933 189 L927 97 L926 40 L927 37 L928 37 " fill="none" stroke="black" /></svg>