<?xml version="1.0" encoding="utf-8" ?>
<svg baseProfile="tiny" height="548" version="1.2" viewBox="-3 -3 811 548" width="811" xmlns="http://www.w3.org/2000/svg" xmlns:ev="http://www.w3.org/2001/xml-events" xmlns:xlink="http://www.w3.org/1999/xlink"><defs /><path d="M0 529 L1 529 L8 520 L11 421 L8 268 L21 176 L31 119 L36 87 " fill="none" stroke="black" /><path d="M0 529 L1 529 L8 520 L11 421 L8 268 L21 176 L31 119 L36 87 M36 89 L40 85 L46 69 L52 45 L54 40 L54 39 L53 74 L57 238 L83 449 L93 519 L93 525 L93 528 L93 540 L93 548 L95 512 L100 306 L116 173 L117 86 L137 42 L140 29 L139 116 L140 347 L154 446 L164 485 L164 487 L169 481 L168 382 L168 132 L166 8 L166 0 L192 155 L232 361 L252 455 L257 492 L257 505 L257 507 L264 502 L270 341 L272 215 L272 144 L273 117 L274 104 L275 102 L275 101 L276 56 L279 25 L280 24 L287 130 L286 353 L296 449 L296 453 L298 454 L305 473 L309 482 L310 484 L313 484 L342 464 L318 209 L306 87 L307 65 L308 61 L308 60 L313 238 L316 436 L335 528 L338 533 L339 533 L350 526 L384 501 L386 419 L362 262 L360 104 L375 58 L383 43 L384 42 L399 160 L422 338 L454 446 L465 480 L467 482 L469 482 L464 305 L472 147 L475 89 L481 65 L483 61 L506 238 L530 365 L544 425 L548 437 L549 439 L549 440 L549 441 L546 305 L548 132 L548 78 L551 59 L551 56 L554 134 L570 381 L590 469 L595 483 L595 484 L592 347 L594 130 L599 68 L602 64 L605 59 L606 58 L607 64 L639 230 L668 359 L681 413 L685 424 L685 426 L682 426 L677 289 L671 86 L667 38 L668 22 L671 20 L671 19 L673 32 L728 294 L762 397 L772 422 L774 426 L775 428 L782 420 L770 206 L731 44 L726 25 L724 25 L736 127 L774 325 L805 426 L810 433 L810 434 L811 435 " fill="none" stroke="black" /></svg>