<?xml version="1.0" encoding="utf-8" ?>
<svg baseProfile="tiny" height="429" version="1.2" viewBox="-3 -3 1191 429" width="1191" xmlns="http://www.w3.org/2000/svg" xmlns:ev="http://www.w3.org/2001/xml-events" xmlns:xlink="http://www.w3.org/1999/xlink"><defs /><path d="M140 0 L135 1 L108 23 L81 50 L68 69 L41 121 L21 170 L5 210 L0 243 L0 282 L7 307 L15 319 L30 324 L54 325 L96 312 L131 301 L160 289 L219 249 L240 215 L244 171 L229 129 L213 110 L199 106 L187 114 L176 124 L141 161 L123 193 L111 235 L108 272 L123 311 L138 335 L162 356 L192 363 L248 361 L313 350 L373 333 L391 305 L420 253 L447 181 L440 149 L431 126 L414 113 L392 108 L367 120 L329 158 L316 189 L305 258 L310 299 L329 343 L347 367 L368 382 L389 387 L431 391 L486 379 L565 347 L599 319 L618 281 L644 243 L647 189 L633 143 L613 123 L576 109 L561 111 L545 131 L522 184 L511 247 L513 298 L530 343 L540 360 L561 380 L586 389 L627 400 L663 397 L722 366 L761 330 L790 295 L818 243 L824 193 L816 149 L807 130 L805 129 L804 128 L796 128 L757 142 L735 158 L724 180 L722 220 L727 266 L743 309 L754 331 L762 346 L776 358 L791 367 L820 372 L867 374 L910 360 L955 327 L1000 300 L1023 264 L1027 208 L1009 146 L994 117 L993 116 L989 117 L960 130 L934 150 L916 186 L911 249 L921 299 L934 328 L947 352 L957 365 L983 395 L1018 412 L1041 414 L1095 399 L1121 385 L1136 364 L1148 342 L1152 317 L1152 269 L1151 236 L1140 186 L1115 144 L1109 137 L1106 136 L1085 168 L1064 227 L1062 274 L1066 313 L1088 360 L1103 381 L1123 401 L1138 410 L1154 417 L1182 427 L1191 429 " fill="none" stroke="black" /></svg>