<?xml version="1.0" encoding="utf-8" ?>
<svg baseProfile="tiny" height="463" version="1.2" viewBox="-3 -3 1137 463" width="1137" xmlns="http://www.w3.org/2000/svg" xmlns:ev="http://www.w3.org/2001/xml-events" xmlns:xlink="http://www.w3.org/1999/xlink"><defs /><path d="M0 397 L4 394 L31 376 L32 373 L21 370 L21 364 L48 310 L49 287 L41 283 L62 260 L53 240 L48 226 L63 195 L35 181 L64 156 L54 143 L61 122 L81 95 L41 75 L64 45 L65 45 L123 17 L120 18 L166 26 L145 41 L216 55 L278 60 L203 80 L238 90 L191 107 L274 115 L210 139 L235 156 L166 189 L204 209 L144 240 L166 249 L121 278 L148 301 L214 306 L219 314 L225 343 L191 363 L233 380 L219 389 L268 400 L274 399 L348 357 L318 364 L321 353 L405 317 L410 274 L414 246 L399 231 L425 192 L399 153 L409 116 L368 81 L388 47 L388 41 L416 17 L425 12 L435 9 L496 0 L483 9 L549 54 L542 58 L659 84 L589 122 L639 139 L575 176 L632 207 L630 240 L571 268 L608 301 L559 329 L586 348 L458 382 L604 405 L595 408 L681 426 L700 431 L770 410 L776 406 L840 375 L825 349 L780 325 L840 263 L802 225 L828 175 L738 111 L762 92 L759 82 L791 59 L835 61 L855 69 L875 85 L936 128 L922 139 L973 216 L939 244 L1037 277 L1011 292 L1022 307 L986 345 L986 354 L981 402 L984 420 L984 422 L987 428 L1016 432 L1026 429 L981 445 L1089 463 L1091 457 L1122 378 L1137 328 L1030 261 L1079 202 L1060 130 L1036 51 L1013 28 L1013 24 L1010 20 L999 6 L1000 5 " fill="none" stroke="black" /></svg>