<?xml version="1.0" encoding="utf-8" ?>
<svg baseProfile="tiny" height="389" version="1.2" viewBox="-3 -3 739 389" width="739" xmlns="http://www.w3.org/2000/svg" xmlns:ev="http://www.w3.org/2001/xml-events" xmlns:xlink="http://www.w3.org/1999/xlink"><defs /><path d="M0 389 L7 384 L16 381 L27 376 L44 340 L50 332 L89 343 L137 332 L124 300 L122 299 L146 292 L156 203 L156 175 L158 174 L177 148 L188 141 L202 97 L203 90 L228 93 L252 50 L255 48 L274 58 L305 26 L352 29 L367 22 L370 21 L373 20 L380 17 L381 17 L389 15 L419 13 L437 9 L449 6 L485 4 L512 4 L529 1 L541 1 L550 0 L556 0 L564 0 L580 0 L600 2 L626 6 L630 7 L648 9 L683 20 L703 26 L705 26 L706 26 L707 26 L708 26 L709 26 L710 26 L721 25 L733 25 L739 25 " fill="none" stroke="black" /></svg>