<?xml version="1.0" encoding="utf-8" ?>
<svg baseProfile="tiny" height="360" version="1.2" viewBox="-3 -3 1297 360" width="1297" xmlns="http://www.w3.org/2000/svg" xmlns:ev="http://www.w3.org/2001/xml-events" xmlns:xlink="http://www.w3.org/1999/xlink"><defs /><path d="M0 45 L3 104 L16 213 L24 248 L53 233 L57 80 L53 62 L58 133 L90 254 L103 271 L131 131 L184 7 L185 31 L216 186 L223 205 L235 96 L245 61 L252 147 L277 255 L293 206 L309 57 L312 63 L335 271 L351 256 L366 56 L368 21 L397 152 L407 169 L422 47 L427 0 L459 166 L466 182 L470 108 L471 66 L491 204 L499 217 L499 127 L499 57 L525 203 L538 228 L558 92 L557 57 L580 180 L589 186 L592 83 L592 74 L630 258 L636 266 L648 100 L649 87 L686 246 L693 225 L694 122 L692 136 L729 247 L733 208 L733 99 L737 146 L780 311 L787 237 L786 137 L799 214 L820 280 L828 217 L833 153 L854 269 L873 314 L888 195 L891 152 L912 254 L916 262 L933 150 L935 129 L960 235 L971 230 L986 131 L986 128 L1015 237 L1024 228 L1034 116 L1034 112 L1055 231 L1057 233 L1075 133 L1076 121 L1106 273 L1110 265 L1124 142 L1155 289 L1161 283 L1170 162 L1172 155 L1202 301 L1213 216 L1213 213 L1238 328 L1245 319 L1256 216 L1256 221 L1290 360 L1297 343 L1285 284 " fill="none" stroke="black" /></svg>