<?xml version="1.0" encoding="utf-8" ?>
<svg baseProfile="tiny" height="521" version="1.2" viewBox="-3 -3 1314 521" width="1314" xmlns="http://www.w3.org/2000/svg" xmlns:ev="http://www.w3.org/2001/xml-events" xmlns:xlink="http://www.w3.org/1999/xlink"><defs /><path d="M0 521 L8 518 L28 508 L64 488 L101 468 L136 440 L178 409 L196 390 L209 371 L220 343 L225 312 L226 271 L233 222 L236 179 L237 147 L241 107 L244 78 L250 64 L256 43 L263 30 L271 25 L285 12 L297 6 L315 2 L325 0 L342 0 L357 0 L380 2 L428 7 L442 14 L475 19 L480 23 L498 52 L517 113 L517 179 L515 235 L513 267 L508 310 L507 345 L505 378 L505 397 L508 413 L510 426 L514 437 L519 445 L523 453 L528 458 L532 463 L537 469 L541 474 L549 473 L568 476 L594 482 L621 485 L649 482 L660 477 L685 462 L719 440 L753 416 L791 393 L822 362 L840 332 L859 262 L860 180 L861 137 L861 112 L862 93 L868 81 L874 70 L892 51 L899 45 L909 35 L919 24 L928 18 L930 17 L955 13 L1030 12 L1046 15 L1054 21 L1078 37 L1110 86 L1122 118 L1128 173 L1129 217 L1125 275 L1126 317 L1129 344 L1141 378 L1149 396 L1164 413 L1182 429 L1193 436 L1199 442 L1203 445 L1205 446 L1213 446 L1220 446 L1244 446 L1259 447 L1268 450 L1296 450 L1314 450 " fill="none" stroke="black" /></svg>