<?xml version="1.0" encoding="utf-8" ?>
<svg baseProfile="tiny" height="158" version="1.2" viewBox="-3 -3 971 158" width="971" xmlns="http://www.w3.org/2000/svg" xmlns:ev="http://www.w3.org/2001/xml-events" xmlns:xlink="http://www.w3.org/1999/xlink"><defs /><path d="M11 0 L12 14 L12 31 L21 23 L30 10 L31 17 L37 24 L64 2 L65 4 L63 34 L81 21 L74 23 L82 27 L94 18 L91 26 L172 11 L169 18 L178 18 L186 14 L185 20 L222 18 L212 27 L219 28 L220 25 L220 29 L257 21 L256 22 L258 26 L275 18 L275 20 L357 1 L348 14 L350 30 L355 30 L356 30 L364 22 L368 25 L429 14 L430 5 L433 14 L438 12 L435 14 L479 2 L479 3 L514 11 L541 7 L538 9 L549 8 L548 12 L566 14 L577 16 L577 18 L597 20 L587 35 L659 23 L661 20 L669 27 L677 33 L655 49 L716 23 L716 21 L829 24 L787 51 L795 55 L812 50 L828 53 L923 54 L900 66 L941 51 L940 54 L971 40 " fill="none" stroke="black" /><path d="M11 0 L12 14 L12 31 L21 23 L30 10 L31 17 L37 24 L64 2 L65 4 L63 34 L81 21 L74 23 L82 27 L94 18 L91 26 L172 11 L169 18 L178 18 L186 14 L185 20 L222 18 L212 27 L219 28 L220 25 L220 29 L257 21 L256 22 L258 26 L275 18 L275 20 L357 1 L348 14 L350 30 L355 30 L356 30 L364 22 L368 25 L429 14 L430 5 L433 14 L438 12 L435 14 L479 2 L479 3 L514 11 L541 7 L538 9 L549 8 L548 12 L566 14 L577 16 L577 18 L597 20 L587 35 L659 23 L661 20 L669 27 L677 33 L655 49 L716 23 L716 21 L829 24 L787 51 L795 55 L812 50 L828 53 L923 54 L900 66 L941 51 L940 54 L971 40 M0 137 L1 137 L42 140 L217 104 L206 111 L341 114 L356 113 L383 112 L383 114 L377 142 L469 155 L463 158 L477 151 L529 135 L530 137 L594 129 L596 129 L673 126 L664 130 L727 136 L753 158 L764 148 L818 144 L823 142 L898 149 L909 151 " fill="none" stroke="black" /></svg>