<?xml version="1.0" encoding="utf-8" ?>
<svg baseProfile="tiny" height="127" version="1.2" viewBox="-3 -3 245 127" width="245" xmlns="http://www.w3.org/2000/svg" xmlns:ev="http://www.w3.org/2001/xml-events" xmlns:xlink="http://www.w3.org/1999/xlink"><defs /><path d="M0 86 L5 85 L114 82 L217 78 L218 78 " fill="none" stroke="black" /><path d="M0 86 L5 85 L114 82 L217 78 L218 78 M28 90 L26 90 L22 93 L22 94 L24 105 L29 120 L45 126 L59 126 L69 127 L71 124 L72 110 L70 100 L69 98 L64 92 L54 86 L48 86 L42 85 L32 86 L28 89 L25 91 " fill="none" stroke="black" /><path d="M0 86 L5 85 L114 82 L217 78 L218 78 M28 90 L26 90 L22 93 L22 94 L24 105 L29 120 L45 126 L59 126 L69 127 L71 124 L72 110 L70 100 L69 98 L64 92 L54 86 L48 86 L42 85 L32 86 L28 89 L25 91 M167 82 L159 87 L158 88 L157 96 L164 105 L174 112 L183 116 L197 119 L202 119 L206 117 L211 110 L212 100 L209 94 L205 90 L202 87 L196 85 L190 84 L185 84 L183 84 L177 82 L171 82 L167 85 " fill="none" stroke="black" /><path d="M0 86 L5 85 L114 82 L217 78 L218 78 M28 90 L26 90 L22 93 L22 94 L24 105 L29 120 L45 126 L59 126 L69 127 L71 124 L72 110 L70 100 L69 98 L64 92 L54 86 L48 86 L42 85 L32 86 L28 89 L25 91 M167 82 L159 87 L158 88 L157 96 L164 105 L174 112 L183 116 L197 119 L202 119 L206 117 L211 110 L212 100 L209 94 L205 90 L202 87 L196 85 L190 84 L185 84 L183 84 L177 82 L171 82 L167 85 M213 77 L214 77 L215 77 L221 73 L224 70 L228 70 L234 70 L237 70 L241 70 L244 70 L245 70 L245 69 L244 53 L243 48 L243 43 L242 37 L240 31 L239 31 L231 33 L220 33 L208 33 L202 34 L196 35 L194 36 L193 36 L188 21 L186 13 L186 9 L185 8 L184 8 L173 7 L167 4 L166 4 L164 3 L141 0 L120 0 L116 1 L111 2 L103 4 L97 4 L90 5 L86 6 L81 7 L77 7 L73 7 L73 13 L73 22 L73 24 L73 26 L74 31 L74 33 L74 34 L74 36 L74 37 L73 38 L69 41 L53 43 L44 44 L38 45 L34 45 L30 45 L26 45 L20 46 L19 47 L19 49 L20 60 L22 69 L24 73 L25 77 L26 80 L27 82 L27 84 L27 85 " fill="none" stroke="black" /><path d="M0 86 L5 85 L114 82 L217 78 L218 78 M28 90 L26 90 L22 93 L22 94 L24 105 L29 120 L45 126 L59 126 L69 127 L71 124 L72 110 L70 100 L69 98 L64 92 L54 86 L48 86 L42 85 L32 86 L28 89 L25 91 M167 82 L159 87 L158 88 L157 96 L164 105 L174 112 L183 116 L197 119 L202 119 L206 117 L211 110 L212 100 L209 94 L205 90 L202 87 L196 85 L190 84 L185 84 L183 84 L177 82 L171 82 L167 85 M213 77 L214 77 L215 77 L221 73 L224 70 L228 70 L234 70 L237 70 L241 70 L244 70 L245 70 L245 69 L244 53 L243 48 L243 43 L242 37 L240 31 L239 31 L231 33 L220 33 L208 33 L202 34 L196 35 L194 36 L193 36 L188 21 L186 13 L186 9 L185 8 L184 8 L173 7 L167 4 L166 4 L164 3 L141 0 L120 0 L116 1 L111 2 L103 4 L97 4 L90 5 L86 6 L81 7 L77 7 L73 7 L73 13 L73 22 L73 24 L73 26 L74 31 L74 33 L74 34 L74 36 L74 37 L73 38 L69 41 L53 43 L44 44 L38 45 L34 45 L30 45 L26 45 L20 46 L19 47 L19 49 L20 60 L22 69 L24 73 L25 77 L26 80 L27 82 L27 84 L27 85 M142 21 L143 31 L143 35 L142 36 L144 39 L147 41 L153 43 L158 43 L164 41 L167 41 L169 41 L171 40 L171 33 L168 24 L167 22 L165 22 L165 21 L161 21 L154 19 L147 20 L140 24 L136 26 L135 27 " fill="none" stroke="black" /></svg>