<?xml version="1.0" encoding="utf-8" ?>
<svg baseProfile="tiny" height="562" version="1.2" viewBox="-3 -3 1187 562" width="1187" xmlns="http://www.w3.org/2000/svg" xmlns:ev="http://www.w3.org/2001/xml-events" xmlns:xlink="http://www.w3.org/1999/xlink"><defs /><path d="M107 257 L609 235 L858 228 L904 228 L943 228 " fill="none" stroke="black" /><path d="M107 257 L609 235 L858 228 L904 228 L943 228 M178 298 L542 167 L828 69 L920 43 L955 35 " fill="none" stroke="black" /><path d="M107 257 L609 235 L858 228 L904 228 L943 228 M178 298 L542 167 L828 69 L920 43 L955 35 M503 304 L760 240 L843 222 L859 219 " fill="none" stroke="black" /><path d="M107 257 L609 235 L858 228 L904 228 L943 228 M178 298 L542 167 L828 69 L920 43 L955 35 M503 304 L760 240 L843 222 L859 219 M438 337 L793 246 L902 216 L937 206 L961 200 " fill="none" stroke="black" /><path d="M107 257 L609 235 L858 228 L904 228 L943 228 M178 298 L542 167 L828 69 L920 43 L955 35 M503 304 L760 240 L843 222 L859 219 M438 337 L793 246 L902 216 L937 206 L961 200 M273 326 L546 202 L683 153 L730 140 L739 139 " fill="none" stroke="black" /><path d="M107 257 L609 235 L858 228 L904 228 L943 228 M178 298 L542 167 L828 69 L920 43 L955 35 M503 304 L760 240 L843 222 L859 219 M438 337 L793 246 L902 216 L937 206 L961 200 M273 326 L546 202 L683 153 L730 140 L739 139 M619 317 L809 258 L867 241 L877 239 L894 234 " fill="none" stroke="black" /><path d="M107 257 L609 235 L858 228 L904 228 L943 228 M178 298 L542 167 L828 69 L920 43 L955 35 M503 304 L760 240 L843 222 L859 219 M438 337 L793 246 L902 216 L937 206 L961 200 M273 326 L546 202 L683 153 L730 140 L739 139 M619 317 L809 258 L867 241 L877 239 L894 234 M217 468 L459 419 L762 357 L866 332 L906 323 L935 317 " fill="none" stroke="black" /><path d="M107 257 L609 235 L858 228 L904 228 L943 228 M178 298 L542 167 L828 69 L920 43 L955 35 M503 304 L760 240 L843 222 L859 219 M438 337 L793 246 L902 216 L937 206 L961 200 M273 326 L546 202 L683 153 L730 140 L739 139 M619 317 L809 258 L867 241 L877 239 L894 234 M217 468 L459 419 L762 357 L866 332 L906 323 L935 317 M416 298 L867 139 L1020 79 L1069 63 L1095 54 " fill="none" stroke="black" /><path d="M107 257 L609 235 L858 228 L904 228 L943 228 M178 298 L542 167 L828 69 L920 43 L955 35 M503 304 L760 240 L843 222 L859 219 M438 337 L793 246 L902 216 L937 206 L961 200 M273 326 L546 202 L683 153 L730 140 L739 139 M619 317 L809 258 L867 241 L877 239 L894 234 M217 468 L459 419 L762 357 L866 332 L906 323 L935 317 M416 298 L867 139 L1020 79 L1069 63 L1095 54 M41 286 L153 253 L406 197 L553 159 L588 150 L592 150 L601 148 " fill="none" stroke="black" /><path d="M107 257 L609 235 L858 228 L904 228 L943 228 M178 298 L542 167 L828 69 L920 43 L955 35 M503 304 L760 240 L843 222 L859 219 M438 337 L793 246 L902 216 L937 206 L961 200 M273 326 L546 202 L683 153 L730 140 L739 139 M619 317 L809 258 L867 241 L877 239 L894 234 M217 468 L459 419 L762 357 L866 332 L906 323 L935 317 M416 298 L867 139 L1020 79 L1069 63 L1095 54 M41 286 L153 253 L406 197 L553 159 L588 150 L592 150 L601 148 M494 352 L831 232 L987 180 L1049 164 L1087 154 " fill="none" stroke="black" /><path d="M107 257 L609 235 L858 228 L904 228 L943 228 M178 298 L542 167 L828 69 L920 43 L955 35 M503 304 L760 240 L843 222 L859 219 M438 337 L793 246 L902 216 L937 206 L961 200 M273 326 L546 202 L683 153 L730 140 L739 139 M619 317 L809 258 L867 241 L877 239 L894 234 M217 468 L459 419 L762 357 L866 332 L906 323 L935 317 M416 298 L867 139 L1020 79 L1069 63 L1095 54 M41 286 L153 253 L406 197 L553 159 L588 150 L592 150 L601 148 M494 352 L831 232 L987 180 L1049 164 L1087 154 M291 441 L555 366 L835 297 L935 274 L953 270 " fill="none" stroke="black" /><path d="M107 257 L609 235 L858 228 L904 228 L943 228 M178 298 L542 167 L828 69 L920 43 L955 35 M503 304 L760 240 L843 222 L859 219 M438 337 L793 246 L902 216 L937 206 L961 200 M273 326 L546 202 L683 153 L730 140 L739 139 M619 317 L809 258 L867 241 L877 239 L894 234 M217 468 L459 419 L762 357 L866 332 L906 323 L935 317 M416 298 L867 139 L1020 79 L1069 63 L1095 54 M41 286 L153 253 L406 197 L553 159 L588 150 L592 150 L601 148 M494 352 L831 232 L987 180 L1049 164 L1087 154 M291 441 L555 366 L835 297 L935 274 L953 270 M680 429 L961 323 L1091 275 L1160 250 L1187 240 " fill="none" stroke="black" /><path d="M107 257 L609 235 L858 228 L904 228 L943 228 M178 298 L542 167 L828 69 L920 43 L955 35 M503 304 L760 240 L843 222 L859 219 M438 337 L793 246 L902 216 L937 206 L961 200 M273 326 L546 202 L683 153 L730 140 L739 139 M619 317 L809 258 L867 241 L877 239 L894 234 M217 468 L459 419 L762 357 L866 332 L906 323 L935 317 M416 298 L867 139 L1020 79 L1069 63 L1095 54 M41 286 L153 253 L406 197 L553 159 L588 150 L592 150 L601 148 M494 352 L831 232 L987 180 L1049 164 L1087 154 M291 441 L555 366 L835 297 L935 274 L953 270 M680 429 L961 323 L1091 275 L1160 250 L1187 240 M226 477 L253 441 L428 295 L597 178 L753 84 L825 40 " fill="none" stroke="black" /><path d="M107 257 L609 235 L858 228 L904 228 L943 228 M178 298 L542 167 L828 69 L920 43 L955 35 M503 304 L760 240 L843 222 L859 219 M438 337 L793 246 L902 216 L937 206 L961 200 M273 326 L546 202 L683 153 L730 140 L739 139 M619 317 L809 258 L867 241 L877 239 L894 234 M217 468 L459 419 L762 357 L866 332 L906 323 L935 317 M416 298 L867 139 L1020 79 L1069 63 L1095 54 M41 286 L153 253 L406 197 L553 159 L588 150 L592 150 L601 148 M494 352 L831 232 L987 180 L1049 164 L1087 154 M291 441 L555 366 L835 297 L935 274 L953 270 M680 429 L961 323 L1091 275 L1160 250 L1187 240 M226 477 L253 441 L428 295 L597 178 L753 84 L825 40 M0 394 L97 333 L300 197 L458 102 L575 46 L665 0 " fill="none" stroke="black" /><path d="M107 257 L609 235 L858 228 L904 228 L943 228 M178 298 L542 167 L828 69 L920 43 L955 35 M503 304 L760 240 L843 222 L859 219 M438 337 L793 246 L902 216 L937 206 L961 200 M273 326 L546 202 L683 153 L730 140 L739 139 M619 317 L809 258 L867 241 L877 239 L894 234 M217 468 L459 419 L762 357 L866 332 L906 323 L935 317 M416 298 L867 139 L1020 79 L1069 63 L1095 54 M41 286 L153 253 L406 197 L553 159 L588 150 L592 150 L601 148 M494 352 L831 232 L987 180 L1049 164 L1087 154 M291 441 L555 366 L835 297 L935 274 L953 270 M680 429 L961 323 L1091 275 L1160 250 L1187 240 M226 477 L253 441 L428 295 L597 178 L753 84 L825 40 M0 394 L97 333 L300 197 L458 102 L575 46 L665 0 M395 421 L654 283 L813 209 L926 157 L954 145 " fill="none" stroke="black" /><path d="M107 257 L609 235 L858 228 L904 228 L943 228 M178 298 L542 167 L828 69 L920 43 L955 35 M503 304 L760 240 L843 222 L859 219 M438 337 L793 246 L902 216 L937 206 L961 200 M273 326 L546 202 L683 153 L730 140 L739 139 M619 317 L809 258 L867 241 L877 239 L894 234 M217 468 L459 419 L762 357 L866 332 L906 323 L935 317 M416 298 L867 139 L1020 79 L1069 63 L1095 54 M41 286 L153 253 L406 197 L553 159 L588 150 L592 150 L601 148 M494 352 L831 232 L987 180 L1049 164 L1087 154 M291 441 L555 366 L835 297 L935 274 L953 270 M680 429 L961 323 L1091 275 L1160 250 L1187 240 M226 477 L253 441 L428 295 L597 178 L753 84 L825 40 M0 394 L97 333 L300 197 L458 102 L575 46 L665 0 M395 421 L654 283 L813 209 L926 157 L954 145 M817 361 L935 307 L978 289 L1008 275 " fill="none" stroke="black" /><path d="M107 257 L609 235 L858 228 L904 228 L943 228 M178 298 L542 167 L828 69 L920 43 L955 35 M503 304 L760 240 L843 222 L859 219 M438 337 L793 246 L902 216 L937 206 L961 200 M273 326 L546 202 L683 153 L730 140 L739 139 M619 317 L809 258 L867 241 L877 239 L894 234 M217 468 L459 419 L762 357 L866 332 L906 323 L935 317 M416 298 L867 139 L1020 79 L1069 63 L1095 54 M41 286 L153 253 L406 197 L553 159 L588 150 L592 150 L601 148 M494 352 L831 232 L987 180 L1049 164 L1087 154 M291 441 L555 366 L835 297 L935 274 L953 270 M680 429 L961 323 L1091 275 L1160 250 L1187 240 M226 477 L253 441 L428 295 L597 178 L753 84 L825 40 M0 394 L97 333 L300 197 L458 102 L575 46 L665 0 M395 421 L654 283 L813 209 L926 157 L954 145 M817 361 L935 307 L978 289 L1008 275 M599 562 L830 470 L991 404 L1062 375 L1122 352 " fill="none" stroke="black" /></svg>