<?xml version="1.0" encoding="utf-8" ?>
<svg baseProfile="tiny" height="631" version="1.2" viewBox="-3 -3 864 631" width="864" xmlns="http://www.w3.org/2000/svg" xmlns:ev="http://www.w3.org/2001/xml-events" xmlns:xlink="http://www.w3.org/1999/xlink"><defs /><path d="M30 105 L16 110 L9 115 L8 117 L11 119 L24 114 L37 99 L40 92 L39 90 L32 94 L26 105 L26 113 L32 116 L38 115 L41 111 L41 108 L29 110 L11 119 L1 128 L1 129 L0 129 L0 124 L2 100 L21 60 L53 25 L100 8 L141 1 L179 0 L201 1 L218 7 L234 21 L240 37 L243 89 L233 158 L211 233 L174 341 L149 411 L136 467 L134 505 L138 524 L146 533 L156 538 L165 540 L173 541 L180 541 L186 541 L190 540 L198 537 L204 534 L209 532 L212 530 L216 528 L221 525 L226 523 L228 521 L230 521 L231 521 L232 522 L236 526 L247 536 L260 546 L271 550 L279 551 L285 550 L287 549 L288 549 L301 556 L325 565 L349 567 L362 560 L365 558 L366 557 L371 557 L379 556 L395 551 L403 546 L405 545 L410 544 L420 541 L431 537 L434 536 L435 536 L436 536 L443 537 L450 537 L454 537 L456 537 L458 537 L459 537 L460 537 L474 537 L490 535 L503 535 L508 535 L511 538 L517 543 L529 547 L542 550 L548 551 L549 552 L551 553 L555 555 L562 557 L566 558 L568 559 L570 560 L585 563 L602 565 L615 566 L619 566 L621 567 L634 570 L644 571 L648 572 L649 572 L650 572 L654 572 L660 573 L667 575 L673 576 L679 578 L686 580 L694 581 L702 581 L729 583 L747 584 L761 586 L764 587 L767 588 L775 591 L785 595 L788 596 L789 598 L790 598 L794 600 L799 603 L804 606 L810 612 L818 618 L825 622 L832 624 L836 626 L839 626 L843 627 L848 629 L853 629 L858 630 L862 631 L864 631 " fill="none" stroke="black" /></svg>