<?xml version="1.0" encoding="utf-8" ?>
<svg baseProfile="tiny" height="292" version="1.2" viewBox="-3 -3 487 292" width="487" xmlns="http://www.w3.org/2000/svg" xmlns:ev="http://www.w3.org/2001/xml-events" xmlns:xlink="http://www.w3.org/1999/xlink"><defs /><path d="M159 292 L163 209 L166 140 L170 90 L170 63 L170 24 L170 9 L170 2 L170 1 L170 0 L169 3 L154 33 L117 94 L65 152 L28 189 L10 209 L2 218 L1 220 L0 220 L0 221 L2 221 L10 221 L23 223 L34 226 L45 228 L59 230 L70 231 L80 232 L90 232 L100 232 L107 230 L114 226 L120 221 L127 215 L134 209 L141 204 L148 198 L153 194 L155 191 L158 189 L160 188 L163 188 L165 188 L168 188 L172 188 L177 189 L181 191 L184 194 L187 196 L191 199 L195 201 L199 203 L207 204 L214 206 L221 207 L226 207 L232 207 L239 207 L246 206 L251 206 L254 206 L256 206 L260 206 L263 206 L264 207 L266 208 L267 209 L269 210 L270 212 L272 215 L274 218 L276 220 L278 222 L281 223 L283 225 L286 225 L288 226 L291 226 L294 225 L296 223 L299 222 L301 220 L303 219 L305 217 L306 216 L308 215 L312 213 L314 212 L316 211 L317 210 L319 210 L321 210 L324 210 L326 211 L329 213 L331 214 L333 216 L336 219 L339 222 L341 224 L343 225 L346 225 L350 225 L355 224 L360 222 L364 220 L370 218 L374 217 L376 215 L377 215 L379 214 L382 214 L384 215 L386 215 L388 216 L391 218 L393 220 L396 222 L401 224 L404 226 L406 227 L409 227 L412 227 L415 227 L419 225 L421 223 L424 221 L426 219 L428 218 L432 215 L436 212 L440 210 L445 208 L449 207 L452 207 L454 206 L456 206 L459 207 L463 208 L465 210 L467 211 L469 213 L471 214 L474 217 L477 218 L479 220 L481 221 L483 222 L485 222 L486 222 L487 222 " fill="none" stroke="black" /></svg>