<?xml version="1.0" encoding="utf-8" ?>
<svg baseProfile="tiny" height="622" version="1.2" viewBox="-3 -3 1335 622" width="1335" xmlns="http://www.w3.org/2000/svg" xmlns:ev="http://www.w3.org/2001/xml-events" xmlns:xlink="http://www.w3.org/1999/xlink"><defs /><path d="M210 261 L217 324 L233 358 L254 365 L285 343 L337 255 L394 150 L436 91 L470 67 L492 74 L514 122 L535 202 L554 270 L577 313 L606 335 L645 331 L703 268 L760 167 L809 70 L838 16 L853 0 L862 0 L876 22 L895 71 L914 129 L934 193 L959 260 L976 287 L991 295 L1018 282 L1050 237 L1074 191 L1100 134 L1118 102 L1131 87 L1136 87 L1145 106 L1158 164 L1168 239 L1186 335 L1202 389 L1231 448 L1248 467 L1260 472 L1270 468 L1284 449 L1296 423 L1314 389 L1326 368 L1335 356 " fill="none" stroke="black" /><path d="M210 261 L217 324 L233 358 L254 365 L285 343 L337 255 L394 150 L436 91 L470 67 L492 74 L514 122 L535 202 L554 270 L577 313 L606 335 L645 331 L703 268 L760 167 L809 70 L838 16 L853 0 L862 0 L876 22 L895 71 L914 129 L934 193 L959 260 L976 287 L991 295 L1018 282 L1050 237 L1074 191 L1100 134 L1118 102 L1131 87 L1136 87 L1145 106 L1158 164 L1168 239 L1186 335 L1202 389 L1231 448 L1248 467 L1260 472 L1270 468 L1284 449 L1296 423 L1314 389 L1326 368 L1335 356 M19 408 L34 454 L55 479 L81 477 L115 433 L153 351 L171 318 L181 310 L195 320 L226 388 L276 485 L343 574 L393 600 L476 599 L595 500 L704 345 L821 145 L874 65 L908 40 L937 45 L978 118 L1022 221 L1067 313 L1093 339 L1114 348 L1130 352 L1144 360 L1161 385 L1184 433 L1220 478 L1247 488 L1264 493 " fill="none" stroke="black" /><path d="M210 261 L217 324 L233 358 L254 365 L285 343 L337 255 L394 150 L436 91 L470 67 L492 74 L514 122 L535 202 L554 270 L577 313 L606 335 L645 331 L703 268 L760 167 L809 70 L838 16 L853 0 L862 0 L876 22 L895 71 L914 129 L934 193 L959 260 L976 287 L991 295 L1018 282 L1050 237 L1074 191 L1100 134 L1118 102 L1131 87 L1136 87 L1145 106 L1158 164 L1168 239 L1186 335 L1202 389 L1231 448 L1248 467 L1260 472 L1270 468 L1284 449 L1296 423 L1314 389 L1326 368 L1335 356 M19 408 L34 454 L55 479 L81 477 L115 433 L153 351 L171 318 L181 310 L195 320 L226 388 L276 485 L343 574 L393 600 L476 599 L595 500 L704 345 L821 145 L874 65 L908 40 L937 45 L978 118 L1022 221 L1067 313 L1093 339 L1114 348 L1130 352 L1144 360 L1161 385 L1184 433 L1220 478 L1247 488 L1264 493 M0 307 L15 293 L34 286 L53 284 L72 295 L110 359 L152 436 L197 514 L252 571 L307 591 L392 579 L526 456 L624 316 L681 221 L732 158 L765 137 L788 139 L839 209 L883 315 L915 423 L946 513 L970 553 L995 572 L1017 570 L1054 521 L1106 435 L1142 374 L1159 354 L1169 351 L1188 366 L1226 413 L1274 476 L1308 520 L1326 542 " fill="none" stroke="black" /><path d="M210 261 L217 324 L233 358 L254 365 L285 343 L337 255 L394 150 L436 91 L470 67 L492 74 L514 122 L535 202 L554 270 L577 313 L606 335 L645 331 L703 268 L760 167 L809 70 L838 16 L853 0 L862 0 L876 22 L895 71 L914 129 L934 193 L959 260 L976 287 L991 295 L1018 282 L1050 237 L1074 191 L1100 134 L1118 102 L1131 87 L1136 87 L1145 106 L1158 164 L1168 239 L1186 335 L1202 389 L1231 448 L1248 467 L1260 472 L1270 468 L1284 449 L1296 423 L1314 389 L1326 368 L1335 356 M19 408 L34 454 L55 479 L81 477 L115 433 L153 351 L171 318 L181 310 L195 320 L226 388 L276 485 L343 574 L393 600 L476 599 L595 500 L704 345 L821 145 L874 65 L908 40 L937 45 L978 118 L1022 221 L1067 313 L1093 339 L1114 348 L1130 352 L1144 360 L1161 385 L1184 433 L1220 478 L1247 488 L1264 493 M0 307 L15 293 L34 286 L53 284 L72 295 L110 359 L152 436 L197 514 L252 571 L307 591 L392 579 L526 456 L624 316 L681 221 L732 158 L765 137 L788 139 L839 209 L883 315 L915 423 L946 513 L970 553 L995 572 L1017 570 L1054 521 L1106 435 L1142 374 L1159 354 L1169 351 L1188 366 L1226 413 L1274 476 L1308 520 L1326 542 M144 171 L222 170 L294 210 L356 298 L423 420 L483 526 L547 598 L632 622 L699 595 L772 543 L847 483 L897 456 L970 444 L1026 449 L1073 479 L1110 513 L1142 543 L1171 563 L1194 571 L1207 573 " fill="none" stroke="black" /><path d="M210 261 L217 324 L233 358 L254 365 L285 343 L337 255 L394 150 L436 91 L470 67 L492 74 L514 122 L535 202 L554 270 L577 313 L606 335 L645 331 L703 268 L760 167 L809 70 L838 16 L853 0 L862 0 L876 22 L895 71 L914 129 L934 193 L959 260 L976 287 L991 295 L1018 282 L1050 237 L1074 191 L1100 134 L1118 102 L1131 87 L1136 87 L1145 106 L1158 164 L1168 239 L1186 335 L1202 389 L1231 448 L1248 467 L1260 472 L1270 468 L1284 449 L1296 423 L1314 389 L1326 368 L1335 356 M19 408 L34 454 L55 479 L81 477 L115 433 L153 351 L171 318 L181 310 L195 320 L226 388 L276 485 L343 574 L393 600 L476 599 L595 500 L704 345 L821 145 L874 65 L908 40 L937 45 L978 118 L1022 221 L1067 313 L1093 339 L1114 348 L1130 352 L1144 360 L1161 385 L1184 433 L1220 478 L1247 488 L1264 493 M0 307 L15 293 L34 286 L53 284 L72 295 L110 359 L152 436 L197 514 L252 571 L307 591 L392 579 L526 456 L624 316 L681 221 L732 158 L765 137 L788 139 L839 209 L883 315 L915 423 L946 513 L970 553 L995 572 L1017 570 L1054 521 L1106 435 L1142 374 L1159 354 L1169 351 L1188 366 L1226 413 L1274 476 L1308 520 L1326 542 M144 171 L222 170 L294 210 L356 298 L423 420 L483 526 L547 598 L632 622 L699 595 L772 543 L847 483 L897 456 L970 444 L1026 449 L1073 479 L1110 513 L1142 543 L1171 563 L1194 571 L1207 573 M253 562 L298 541 L376 485 L480 372 L550 284 L592 236 L624 216 L658 216 L704 238 L769 290 L831 341 L898 386 L950 414 L1012 440 " fill="none" stroke="black" /></svg>