<?xml version="1.0" encoding="utf-8" ?>
<svg baseProfile="tiny" height="582" version="1.2" viewBox="-3 -3 230 582" width="230" xmlns="http://www.w3.org/2000/svg" xmlns:ev="http://www.w3.org/2001/xml-events" xmlns:xlink="http://www.w3.org/1999/xlink"><defs /><path d="M168 63 L119 44 L60 16 L33 2 L28 0 L33 2 L64 22 L98 62 L106 79 L100 81 L71 73 L41 64 L28 62 L34 75 L64 113 L80 136 L83 140 L71 126 L31 80 L17 66 L15 64 L33 87 L68 126 L81 142 L74 140 L42 109 L23 91 L18 86 L28 100 L66 144 L82 165 L78 166 L48 147 L21 137 L9 136 L18 183 L34 230 L37 241 L32 236 L15 205 L3 179 L0 170 L7 171 L36 190 L57 207 L59 210 L49 201 L28 181 L17 172 L15 173 L39 209 L64 249 L73 275 L75 284 L67 283 L48 269 L34 257 L58 291 L70 314 L74 322 L70 321 L39 284 L24 268 L20 264 L37 282 L75 323 L91 348 L94 356 L72 340 L47 327 L36 323 L37 331 L53 354 L62 369 L64 375 L77 386 L124 432 L147 459 L154 470 L140 470 L111 462 L95 456 L92 455 L106 472 L148 507 L162 515 L163 517 L143 502 L95 462 L67 443 L59 444 L90 503 L112 553 L119 578 L117 582 L92 562 L58 525 L47 508 L48 507 L75 510 L112 526 L129 534 L133 536 L127 524 L115 507 L110 498 L115 499 L167 537 L192 554 L202 560 L203 559 L194 536 L185 514 L183 507 L189 510 L198 515 L202 517 L199 500 L181 444 L174 411 L176 408 L199 421 L221 438 L230 443 L223 422 L161 286 L140 237 L131 210 L141 207 L180 225 L202 234 L208 235 L208 210 L198 169 L193 148 L192 145 L194 152 L197 157 L193 143 L182 119 L177 107 L177 106 L188 117 L197 125 L201 128 L200 120 L194 108 L190 100 L189 98 " fill="none" stroke="black" /></svg>