<?xml version="1.0" encoding="utf-8" ?>
<svg baseProfile="tiny" height="230" version="1.2" viewBox="-3 -3 667 230" width="667" xmlns="http://www.w3.org/2000/svg" xmlns:ev="http://www.w3.org/2001/xml-events" xmlns:xlink="http://www.w3.org/1999/xlink"><defs /><path d="M17 75 L40 59 L36 63 L19 79 L17 83 L67 50 L84 40 L25 89 L0 110 L47 78 L103 37 L121 25 L77 54 L61 65 L121 24 L154 0 L143 11 L94 48 L77 63 L123 32 L144 19 L123 39 L95 64 L92 69 L134 40 L153 28 L103 61 L72 84 L109 58 L173 10 L189 0 L121 58 L94 82 L100 82 L134 59 L147 52 L106 87 L86 106 L95 103 L127 78 L141 67 L105 96 L92 108 L159 65 L209 28 L223 18 L161 71 L133 96 L160 80 L187 62 L186 61 L128 103 L101 125 L151 93 L191 66 L191 65 L115 129 L86 158 L175 101 L217 76 L217 80 L152 138 L118 167 L143 151 L214 99 L228 87 L178 122 L155 140 L182 123 L254 69 L284 48 L213 115 L175 150 L167 162 L240 113 L267 95 L208 143 L165 182 L151 198 L244 133 L279 108 L274 112 L215 167 L199 185 L284 129 L324 99 L289 122 L216 177 L188 201 L320 110 L380 73 L398 65 L354 109 L336 130 L378 108 L410 89 L413 86 L358 127 L333 149 L401 110 L460 71 L431 94 L374 142 L351 165 L385 150 L420 134 L413 142 L391 158 L387 163 L453 115 L496 85 L470 98 L425 133 L409 149 L475 112 L506 94 L488 112 L445 148 L441 154 L500 116 L521 103 L498 120 L478 139 L510 127 L557 104 L577 97 L554 120 L541 136 L555 138 L587 124 L592 123 L569 153 L560 169 L568 171 L577 167 L578 167 L582 165 L569 183 L541 219 L537 230 L577 219 L595 212 L590 216 L577 226 L604 215 L647 188 L667 176 L654 195 L646 212 L662 203 " fill="none" stroke="black" /></svg>