<?xml version="1.0" encoding="utf-8" ?>
<svg baseProfile="tiny" height="695" version="1.2" viewBox="-3 -3 1398 695" width="1398" xmlns="http://www.w3.org/2000/svg" xmlns:ev="http://www.w3.org/2001/xml-events" xmlns:xlink="http://www.w3.org/1999/xlink"><defs /><path d="M151 356 L161 350 L170 346 L176 345 L181 345 L184 350 L184 362 L166 386 L127 434 L78 500 L24 594 L3 648 L0 679 L12 692 L53 695 L144 658 L272 555 L337 469 L369 407 L384 363 L387 331 L382 313 L371 304 L356 299 L333 303 L305 322 L282 344 L267 363 L257 382 L252 396 L250 409 L250 414 L259 416 L298 402 L358 351 L419 285 L470 221 L495 191 L504 180 L506 176 L502 181 L486 204 L461 251 L422 321 L381 400 L363 460 L358 514 L374 562 L401 582 L439 587 L483 568 L537 516 L579 451 L605 386 L608 349 L602 330 L577 315 L547 307 L512 317 L485 349 L459 392 L443 430 L440 455 L447 469 L480 476 L521 469 L583 434 L642 383 L691 333 L728 293 L757 252 L765 233 L768 221 L766 216 L752 213 L720 222 L682 248 L633 298 L586 356 L557 414 L546 473 L548 512 L571 540 L606 549 L664 542 L734 512 L793 468 L846 407 L950 267 L1017 160 L1051 89 L1070 43 L1079 4 L1061 0 L1040 2 L1004 23 L954 61 L900 113 L855 176 L821 254 L809 302 L804 346 L802 380 L806 410 L819 432 L830 443 L847 449 L879 455 L912 458 L949 456 L972 449 L986 443 L987 443 L1026 418 L1095 366 L1131 330 L1145 309 L1149 295 L1148 286 L1142 279 L1128 271 L1099 273 L1065 297 L1035 338 L1016 390 L1013 441 L1032 498 L1061 533 L1105 553 L1170 547 L1218 516 L1264 469 L1306 409 L1337 337 L1356 279 L1363 240 L1363 225 L1357 218 L1352 217 L1347 221 L1343 229 L1341 242 L1341 253 L1342 268 L1348 286 L1360 308 L1382 330 L1398 356 L1398 376 L1398 384 L1398 395 " fill="none" stroke="black" /></svg>