<?xml version="1.0" encoding="utf-8" ?>
<svg baseProfile="tiny" height="142" version="1.2" viewBox="-3 -3 508 142" width="508" xmlns="http://www.w3.org/2000/svg" xmlns:ev="http://www.w3.org/2001/xml-events" xmlns:xlink="http://www.w3.org/1999/xlink"><defs /><path d="M213 28 L302 39 L352 46 L364 47 L238 35 L110 23 L65 16 L105 11 L194 6 L258 6 L265 6 L207 5 L165 9 L153 12 L241 14 L286 13 L296 11 L232 10 L201 12 L197 13 L318 20 L373 22 L382 22 L264 31 L189 39 L159 43 L309 37 L419 31 L461 28 L397 28 L248 29 L195 31 L237 29 L401 16 L453 10 L419 5 L237 5 L153 17 L145 19 L259 20 L340 24 L378 24 L252 37 L73 69 L0 81 L63 73 L291 39 L384 28 L415 23 L265 18 L167 21 L126 26 L204 26 L441 26 L508 27 L459 34 L188 96 L116 119 L94 134 L263 136 L365 136 L405 136 L329 138 L198 142 L156 131 L165 105 L388 43 L469 29 L500 20 L403 5 L274 0 L221 0 L225 7 L317 25 L363 31 L373 33 L240 33 L128 41 L90 44 L171 44 L364 43 L430 40 L441 40 L290 66 L186 94 L174 106 L263 119 L332 122 L358 122 L291 132 L193 140 L168 141 L223 128 L357 108 L403 99 L400 92 L253 68 L194 55 L179 51 L235 50 L305 51 L333 53 L275 51 L166 49 L107 49 L119 53 L221 69 L287 80 L309 83 L213 83 L129 84 L96 87 L166 98 L322 107 L379 109 L380 107 L182 102 L87 97 L59 92 L134 77 L332 54 L400 42 L387 32 L243 24 L174 20 L148 20 L160 21 L257 31 L294 34 L287 35 L151 31 L52 30 L19 27 L48 23 L169 20 L278 22 L309 23 L246 21 L142 21 L102 19 L137 23 L213 34 L236 37 " fill="none" stroke="black" /></svg>