<?xml version="1.0" encoding="utf-8" ?>
<svg baseProfile="tiny" height="808" version="1.2" viewBox="-3 -3 978 808" width="978" xmlns="http://www.w3.org/2000/svg" xmlns:ev="http://www.w3.org/2001/xml-events" xmlns:xlink="http://www.w3.org/1999/xlink"><defs /><path d="M486 410 L546 478 L650 501 L757 484 L814 436 L833 380 L827 303 L757 239 L635 209 L489 228 L382 297 L320 382 L301 478 L324 575 L388 625 L484 651 L605 642 L718 570 L834 397 L868 266 L863 162 L805 92 L702 51 L575 52 L445 128 L321 272 L274 391 L264 505 L286 596 L350 669 L465 717 L577 722 L691 673 L776 597 L858 486 L911 377 L930 253 L915 173 L841 95 L731 39 L575 8 L392 42 L181 186 L67 340 L14 480 L0 625 L34 758 L132 808 L275 808 L413 807 L556 765 L718 674 L836 575 L935 428 L963 320 L955 212 L900 133 L812 67 L684 14 L471 0 L347 56 L243 164 L197 265 L179 369 L179 467 L229 556 L317 625 L419 666 L540 679 L663 663 L770 618 L870 541 L932 442 L970 318 L976 223 L952 165 L871 96 L714 38 L553 34 L448 76 L380 158 L323 266 L288 407 L293 521 L347 637 L432 739 L526 800 L664 808 L774 801 L882 734 L941 667 L974 600 L978 541 L958 480 L907 427 L822 385 L690 365 L538 389 L433 458 L376 536 L350 634 L358 706 L383 742 L431 752 L486 727 L563 648 L602 580 L618 524 L612 491 L583 473 L551 469 L530 477 L522 499 L523 520 L539 537 L578 544 L600 536 L607 523 L608 508 L595 495 L567 487 L553 490 L547 500 L546 513 L553 524 L576 531 L597 531 L602 527 L602 524 L591 522 L566 522 L521 558 L499 597 L491 632 L493 650 L507 658 L531 658 L567 634 L598 592 L606 563 L604 549 L577 537 L520 524 L440 522 L344 553 L283 591 L251 624 L236 653 L235 675 L235 683 " fill="none" stroke="black" /></svg>