<?xml version="1.0" encoding="utf-8" ?>
<svg baseProfile="tiny" height="82" version="1.2" viewBox="-3 -3 1130 82" width="1130" xmlns="http://www.w3.org/2000/svg" xmlns:ev="http://www.w3.org/2001/xml-events" xmlns:xlink="http://www.w3.org/1999/xlink"><defs /><path d="M2 29 L348 21 L823 21 L1034 21 L1114 23 L1126 24 " fill="none" stroke="black" /><path d="M2 29 L348 21 L823 21 L1034 21 L1114 23 L1126 24 M0 28 L4 27 L11 26 L17 24 L24 23 L29 21 L36 19 L42 17 L48 16 L54 14 L61 13 L70 12 L75 10 L82 10 L90 10 L99 10 L107 12 L116 13 L126 15 L139 18 L153 20 L164 22 L179 24 L199 27 L216 30 L236 33 L254 35 L272 37 L287 38 L307 40 L324 41 L345 41 L367 41 L382 39 L399 37 L413 37 L424 36 L435 34 L448 33 L462 31 L475 30 L488 28 L501 27 L515 26 L527 24 L536 24 L543 23 L551 23 L558 22 L567 22 L577 21 L588 21 L603 20 L613 20 L622 20 L632 19 L657 19 L685 19 L699 19 L712 19 L721 19 L730 18 L739 18 L748 17 L754 17 L759 16 L764 16 L768 16 L773 16 L778 16 L783 16 L786 16 L789 17 L792 17 L795 17 L798 17 L800 17 L803 17 L806 18 L809 19 L812 20 L815 22 L818 23 L820 25 L824 28 L828 30 L832 30 L833 30 L842 30 L858 30 L883 28 L899 24 L912 21 L922 19 L934 16 L948 11 L968 6 L984 3 L998 1 L1012 1 L1027 0 L1037 0 L1050 2 L1060 5 L1069 8 L1074 10 L1077 12 L1079 14 L1083 16 L1087 18 L1093 20 L1101 23 L1108 26 L1117 30 L1124 31 L1127 32 L1129 32 L1130 32 " fill="none" stroke="black" /><path d="M2 29 L348 21 L823 21 L1034 21 L1114 23 L1126 24 M0 28 L4 27 L11 26 L17 24 L24 23 L29 21 L36 19 L42 17 L48 16 L54 14 L61 13 L70 12 L75 10 L82 10 L90 10 L99 10 L107 12 L116 13 L126 15 L139 18 L153 20 L164 22 L179 24 L199 27 L216 30 L236 33 L254 35 L272 37 L287 38 L307 40 L324 41 L345 41 L367 41 L382 39 L399 37 L413 37 L424 36 L435 34 L448 33 L462 31 L475 30 L488 28 L501 27 L515 26 L527 24 L536 24 L543 23 L551 23 L558 22 L567 22 L577 21 L588 21 L603 20 L613 20 L622 20 L632 19 L657 19 L685 19 L699 19 L712 19 L721 19 L730 18 L739 18 L748 17 L754 17 L759 16 L764 16 L768 16 L773 16 L778 16 L783 16 L786 16 L789 17 L792 17 L795 17 L798 17 L800 17 L803 17 L806 18 L809 19 L812 20 L815 22 L818 23 L820 25 L824 28 L828 30 L832 30 L833 30 L842 30 L858 30 L883 28 L899 24 L912 21 L922 19 L934 16 L948 11 L968 6 L984 3 L998 1 L1012 1 L1027 0 L1037 0 L1050 2 L1060 5 L1069 8 L1074 10 L1077 12 L1079 14 L1083 16 L1087 18 L1093 20 L1101 23 L1108 26 L1117 30 L1124 31 L1127 32 L1129 32 L1130 32 M15 29 L39 32 L70 32 L108 31 L175 23 L237 14 L280 8 L331 3 L383 0 L437 0 L496 4 L537 10 L577 19 L609 29 L645 44 L702 64 L751 74 L809 79 L868 82 L921 76 L1003 58 L1045 42 " fill="none" stroke="black" /></svg>