<?xml version="1.0" encoding="utf-8" ?>
<svg baseProfile="tiny" height="406" version="1.2" viewBox="-3 -3 382 406" width="382" xmlns="http://www.w3.org/2000/svg" xmlns:ev="http://www.w3.org/2001/xml-events" xmlns:xlink="http://www.w3.org/1999/xlink"><defs /><path d="M0 3 L11 0 L17 0 L18 8 L7 15 L3 17 L3 11 L12 3 L25 0 L30 9 L23 30 L10 38 L2 41 L2 40 L14 32 L34 31 L48 45 L50 58 L42 64 L38 66 L38 63 L43 56 L53 54 L57 62 L53 76 L44 83 L41 85 L41 83 L50 76 L62 76 L67 87 L66 101 L56 110 L52 113 L53 109 L60 101 L66 100 L70 101 L65 117 L51 132 L48 135 L48 128 L56 116 L74 110 L86 118 L91 148 L83 164 L75 173 L73 174 L77 169 L87 162 L92 163 L94 173 L90 184 L83 190 L82 191 L83 189 L100 177 L118 175 L127 179 L127 190 L114 201 L105 206 L105 207 L113 198 L131 192 L142 191 L146 198 L140 211 L127 220 L124 222 L125 220 L139 207 L150 202 L157 201 L157 206 L147 222 L137 235 L131 240 L130 241 L130 240 L142 225 L148 222 L149 222 L150 226 L150 232 L150 234 L167 236 L190 249 L202 269 L191 294 L162 317 L143 326 L137 326 L137 317 L149 307 L165 307 L177 317 L180 329 L177 335 L172 338 L173 335 L188 327 L201 324 L207 326 L207 339 L193 360 L183 369 L182 370 L189 357 L209 345 L228 344 L237 349 L236 373 L218 395 L207 405 L205 406 L208 386 L223 368 L243 364 L252 366 L254 370 L254 373 L253 374 L253 356 L267 331 L284 324 L293 324 L297 331 L296 341 L290 350 L289 351 L291 346 L303 335 L315 332 L320 333 L321 336 L321 337 L319 337 L319 329 L331 306 L354 289 L375 284 L381 284 L382 286 L382 289 L380 291 L379 291 L379 292 " fill="none" stroke="black" /></svg>