<?xml version="1.0" encoding="utf-8" ?>
<svg baseProfile="tiny" height="539" version="1.2" viewBox="-3 -3 478 539" width="478" xmlns="http://www.w3.org/2000/svg" xmlns:ev="http://www.w3.org/2001/xml-events" xmlns:xlink="http://www.w3.org/1999/xlink"><defs /><path d="M289 323 L302 280 L306 255 L308 248 L310 250 L327 289 L347 326 L355 343 L356 347 L332 337 L266 298 L231 276 L221 266 L280 255 L367 247 L417 247 L413 271 L336 340 L289 378 L276 387 L297 345 L325 289 L333 269 L332 272 L299 318 L274 365 L269 388 L302 372 L339 331 L352 306 L336 300 L287 303 L265 311 L264 330 L277 387 L285 449 L284 479 L283 484 L282 454 L303 280 L336 108 L357 32 L370 7 L377 0 L389 5 L414 47 L441 117 L451 212 L429 332 L358 437 L306 470 L253 477 L212 466 L184 434 L172 387 L177 305 L200 248 L241 199 L276 168 L307 154 L339 153 L371 168 L391 194 L399 234 L383 311 L319 407 L222 488 L125 532 L69 539 L36 521 L18 461 L15 377 L46 278 L96 219 L152 176 L202 152 L257 139 L313 135 L367 141 L403 159 L428 187 L444 221 L448 266 L419 321 L346 368 L218 402 L116 403 L38 373 L6 331 L0 267 L33 201 L98 141 L146 123 L211 115 L271 114 L328 117 L390 137 L424 159 L453 190 L472 231 L478 291 L469 348 L398 402 L305 425 L225 420 L173 381 L145 302 L149 147 L164 99 L216 30 L252 15 L309 12 L354 21 L392 42 L418 66 L437 92 L451 125 L456 155 L457 194 L453 240 L427 293 L351 382 L280 425 L201 444 L129 433 L86 378 L71 261 L93 149 L132 92 L191 65 L244 63 L294 82 L331 112 L371 155 L390 187 L399 217 L402 240 L402 268 L397 300 L387 333 L367 379 L358 402 L355 415 L354 419 L353 422 " fill="none" stroke="black" /></svg>