<?xml version="1.0" encoding="utf-8" ?>
<svg baseProfile="tiny" height="490" version="1.2" viewBox="-3 -3 1285 490" width="1285" xmlns="http://www.w3.org/2000/svg" xmlns:ev="http://www.w3.org/2001/xml-events" xmlns:xlink="http://www.w3.org/1999/xlink"><defs /><path d="M0 0 L39 9 L127 47 L166 79 L179 110 L167 144 L115 171 L82 178 L69 175 L69 157 L73 145 L80 140 L104 139 L128 138 L163 140 L194 146 L228 155 L257 164 L280 175 L301 190 L322 221 L328 251 L327 287 L305 322 L268 348 L207 364 L145 367 L114 362 L102 354 L101 332 L130 261 L194 160 L257 101 L328 64 L402 37 L473 21 L548 13 L587 18 L611 33 L624 53 L632 85 L633 124 L620 177 L581 251 L536 301 L500 329 L471 346 L447 353 L430 355 L424 355 L423 350 L432 326 L464 268 L498 224 L556 187 L595 181 L630 180 L663 194 L689 221 L707 261 L720 306 L722 327 L721 341 L722 344 L730 369 L737 410 L737 443 L724 466 L699 480 L677 488 L664 490 L661 485 L660 455 L678 394 L723 320 L763 272 L830 220 L860 206 L885 202 L910 202 L922 206 L935 218 L942 234 L946 258 L944 297 L920 363 L888 414 L852 448 L815 472 L799 479 L791 479 L790 470 L805 436 L838 387 L889 342 L936 317 L978 309 L1017 308 L1046 313 L1073 324 L1095 333 L1111 341 L1119 348 L1121 350 L1121 352 L1121 356 L1121 361 L1117 365 L1112 367 L1110 367 L1110 365 L1113 337 L1146 248 L1189 158 L1223 103 L1237 85 L1244 78 L1246 78 L1247 78 L1249 78 L1253 83 L1257 89 L1260 95 L1264 107 L1270 117 L1274 126 L1277 132 L1279 139 L1280 148 L1281 157 L1279 170 L1270 183 L1258 195 L1249 200 L1244 202 L1242 202 L1241 197 L1241 179 L1245 165 L1250 155 L1257 149 L1264 145 L1271 141 L1275 140 L1276 140 L1278 140 L1283 140 L1285 138 L1285 134 L1285 133 " fill="none" stroke="black" /></svg>