<?xml version="1.0" encoding="utf-8" ?>
<svg baseProfile="tiny" height="327" version="1.2" viewBox="-3 -3 469 327" width="469" xmlns="http://www.w3.org/2000/svg" xmlns:ev="http://www.w3.org/2001/xml-events" xmlns:xlink="http://www.w3.org/1999/xlink"><defs /><path d="M0 309 L0 324 L15 254 L35 169 L45 135 L48 225 L48 291 L45 317 L46 286 L54 241 L59 223 L60 250 L58 267 L58 260 L76 195 L86 156 L89 150 L87 199 L85 221 L86 218 L103 164 L111 134 L113 137 L110 153 L109 155 L114 120 L122 91 L127 82 L128 105 L128 116 L129 111 L156 59 L174 33 L186 30 L191 68 L193 81 L194 82 L195 77 L195 76 L195 88 L195 120 L195 128 L202 120 L210 107 L213 104 L213 126 L209 149 L209 147 L223 104 L233 75 L240 88 L243 249 L238 301 L237 314 L265 213 L293 52 L299 0 L300 21 L285 242 L274 311 L271 327 L276 240 L297 120 L307 74 L309 110 L306 170 L304 197 L307 187 L327 136 L338 111 L341 139 L331 182 L327 204 L329 195 L345 150 L352 126 L352 134 L353 159 L353 168 L355 160 L362 139 L364 132 L364 139 L365 154 L366 157 L368 147 L370 138 L371 137 L371 145 L372 148 L372 146 L374 142 L374 141 L374 144 L374 146 L374 143 L377 132 L379 128 L380 143 L379 163 L379 166 L381 145 L385 119 L387 112 L389 142 L389 171 L389 177 L393 159 L398 137 L400 131 L400 139 L400 146 L402 139 L416 104 L423 85 L424 86 L419 125 L417 143 L417 142 L418 125 L419 117 L419 125 L413 157 L411 167 L411 158 L417 133 L419 124 L419 140 L416 160 L414 165 L419 141 L426 116 L429 109 L432 122 L434 133 L439 132 L452 106 L458 93 L460 92 L458 109 L457 119 L458 120 L464 117 L468 114 L469 115 L467 124 L466 125 L467 112 L469 99 " fill="none" stroke="black" /></svg>