<?xml version="1.0" encoding="utf-8" ?>
<svg baseProfile="tiny" height="101" version="1.2" viewBox="-3 -3 190 101" width="190" xmlns="http://www.w3.org/2000/svg" xmlns:ev="http://www.w3.org/2001/xml-events" xmlns:xlink="http://www.w3.org/1999/xlink"><defs /><path d="M34 75 L40 76 L42 76 L36 68 L16 47 L4 35 L0 33 L0 36 L15 54 L42 73 L59 80 L61 78 L58 70 L33 42 L14 29 L8 26 L7 26 L34 48 L69 75 L83 89 L86 94 L75 99 L49 98 L37 81 L34 58 L38 42 L58 37 L83 45 L103 75 L105 93 L104 100 L102 101 L99 84 L98 36 L100 5 L103 1 L105 3 L105 35 L91 76 L70 98 L62 101 L60 88 L64 54 L78 31 L113 26 L147 41 L165 65 L164 79 L149 86 L133 86 L123 64 L123 33 L126 25 L139 26 L152 48 L155 74 L151 85 L147 89 L144 78 L144 45 L151 23 L163 18 L175 26 L182 42 L180 60 L173 65 L166 65 L163 42 L164 14 L174 0 L183 4 L188 11 L190 15 " fill="none" stroke="black" /></svg>