<?xml version="1.0" encoding="utf-8" ?>
<svg baseProfile="tiny" height="205" version="1.2" viewBox="-3 -3 439 205" width="439" xmlns="http://www.w3.org/2000/svg" xmlns:ev="http://www.w3.org/2001/xml-events" xmlns:xlink="http://www.w3.org/1999/xlink"><defs /><path d="M1 154 L1 163 L0 165 L8 136 L15 119 L15 120 L11 130 L10 132 L14 126 L19 122 L19 127 L16 141 L16 143 L19 136 L21 132 L21 138 L18 147 L17 150 L23 139 L28 132 L29 133 L27 140 L26 142 L29 130 L34 121 L36 124 L36 138 L36 143 L39 132 L45 119 L49 115 L50 115 L51 115 L51 112 L52 112 L51 137 L49 153 L49 156 L72 121 L90 100 L92 100 L90 109 L87 113 L94 97 L116 55 L122 47 L116 72 L109 86 L108 88 L111 74 L114 69 L115 80 L114 96 L113 102 L115 102 L118 120 L118 136 L120 134 L144 92 L161 65 L167 59 L167 66 L167 76 L167 78 L171 79 L173 95 L167 134 L163 152 L168 136 L203 70 L220 40 L224 35 L215 49 L191 85 L183 96 L199 74 L227 42 L233 37 L234 38 L234 40 L234 42 L236 54 L197 167 L178 205 L183 201 L262 81 L285 46 L292 36 L291 39 L291 41 L294 42 L294 44 L293 48 L293 46 L294 33 L296 29 L290 47 L282 64 L280 69 L291 56 L299 48 L300 47 L299 50 L298 51 L300 48 L302 44 L303 43 L305 37 L306 37 L304 46 L300 55 L299 57 L309 42 L321 27 L322 27 L322 33 L321 35 L326 29 L337 18 L343 20 L343 43 L343 53 L345 52 L361 31 L369 22 L371 31 L370 40 L370 41 L383 28 L390 23 L391 27 L384 38 L383 40 L384 37 L387 36 L386 49 L381 63 L381 66 L400 40 L416 19 L421 14 L421 22 L419 28 L419 27 L428 13 L435 6 L437 6 L438 4 L438 0 L439 0 " fill="none" stroke="black" /></svg>