<?xml version="1.0" encoding="utf-8" ?>
<svg baseProfile="tiny" height="500" version="1.2" viewBox="-3 -3 1299 500" width="1299" xmlns="http://www.w3.org/2000/svg" xmlns:ev="http://www.w3.org/2001/xml-events" xmlns:xlink="http://www.w3.org/1999/xlink"><defs /><path d="M0 471 L36 489 L74 500 L108 498 L130 486 L145 458 L168 324 L194 177 L220 83 L240 25 L252 7 L262 0 L274 0 L279 2 L282 8 L285 17 L286 29 L286 43 L285 58 L282 71 L276 83 L269 96 L262 108 L255 123 L245 146 L237 173 L228 216 L220 273 L215 339 L219 392 L234 415 L265 429 L303 431 L334 424 L363 407 L379 390 L386 380 L387 376 L384 370 L360 355 L334 341 L318 335 L316 334 L315 334 L319 334 L337 336 L378 340 L426 344 L460 346 L481 349 L495 350 L507 351 L525 353 L540 354 L553 354 L562 355 L568 355 L573 355 L582 355 L589 354 L595 354 L600 352 L603 351 L606 350 L609 348 L610 346 L612 345 L614 344 L618 343 L625 341 L632 341 L638 341 L644 342 L650 343 L655 344 L657 345 L657 346 L654 346 L639 346 L592 342 L495 331 L424 319 L363 308 L322 300 L307 297 L305 296 L308 296 L339 296 L464 321 L602 351 L716 368 L777 374 L796 376 L798 377 L777 378 L691 379 L609 371 L583 369 L578 369 L608 366 L737 362 L817 365 L842 365 L847 366 L846 366 " fill="none" stroke="black" /><path d="M0 471 L36 489 L74 500 L108 498 L130 486 L145 458 L168 324 L194 177 L220 83 L240 25 L252 7 L262 0 L274 0 L279 2 L282 8 L285 17 L286 29 L286 43 L285 58 L282 71 L276 83 L269 96 L262 108 L255 123 L245 146 L237 173 L228 216 L220 273 L215 339 L219 392 L234 415 L265 429 L303 431 L334 424 L363 407 L379 390 L386 380 L387 376 L384 370 L360 355 L334 341 L318 335 L316 334 L315 334 L319 334 L337 336 L378 340 L426 344 L460 346 L481 349 L495 350 L507 351 L525 353 L540 354 L553 354 L562 355 L568 355 L573 355 L582 355 L589 354 L595 354 L600 352 L603 351 L606 350 L609 348 L610 346 L612 345 L614 344 L618 343 L625 341 L632 341 L638 341 L644 342 L650 343 L655 344 L657 345 L657 346 L654 346 L639 346 L592 342 L495 331 L424 319 L363 308 L322 300 L307 297 L305 296 L308 296 L339 296 L464 321 L602 351 L716 368 L777 374 L796 376 L798 377 L777 378 L691 379 L609 371 L583 369 L578 369 L608 366 L737 362 L817 365 L842 365 L847 366 L846 366 M446 335 L666 341 L849 353 L938 360 L955 363 L957 363 L954 364 L923 366 L842 363 L688 351 L638 346 L630 345 L699 345 L928 345 L1181 347 L1278 351 L1299 353 L1279 353 L1092 348 L769 334 L580 328 L508 328 L511 328 L644 335 L847 363 L934 372 L960 373 L955 373 L939 374 L932 373 L930 372 L928 372 L919 372 L912 371 L911 371 L911 370 L912 370 L913 369 L915 368 L917 367 L919 366 L920 366 L921 366 L922 366 " fill="none" stroke="black" /></svg>