<?xml version="1.0" encoding="utf-8" ?>
<svg baseProfile="tiny" height="458" version="1.2" viewBox="-3 -3 508 458" width="508" xmlns="http://www.w3.org/2000/svg" xmlns:ev="http://www.w3.org/2001/xml-events" xmlns:xlink="http://www.w3.org/1999/xlink"><defs /><path d="M0 130 L27 131 L29 129 L27 120 L25 112 L25 107 L25 106 L25 104 L25 97 L25 58 L29 15 L33 0 L43 57 L55 347 L55 428 L50 458 L54 380 L69 306 L74 277 L76 282 L75 289 L83 244 L97 176 L97 162 L92 164 L87 166 L86 152 L87 144 L90 152 L94 167 L101 167 L117 134 L123 120 L124 134 L120 166 L120 170 L122 160 L124 156 L124 164 L123 172 L128 160 L135 149 L136 150 L132 159 L133 153 L154 122 L168 113 L166 134 L163 142 L170 131 L185 122 L195 141 L195 161 L212 116 L246 56 L257 49 L258 62 L258 65 L260 56 L263 53 L266 80 L268 98 L269 99 L270 92 L266 97 L259 107 L256 109 L254 92 L252 84 L245 101 L242 111 L243 105 L249 89 L254 85 L255 110 L257 138 L279 124 L300 106 L307 103 L305 116 L303 122 L313 103 L319 92 L320 97 L319 110 L318 111 L328 93 L331 89 L330 111 L328 132 L336 128 L362 92 L374 81 L372 94 L370 105 L372 104 L378 98 L380 98 L380 112 L380 115 L382 109 L384 106 L383 117 L382 127 L388 109 L396 87 L399 83 L399 103 L399 116 L413 103 L419 94 L422 99 L422 119 L422 121 L436 94 L441 80 L442 80 L443 86 L444 88 L444 85 L445 84 L448 97 L449 99 L451 73 L451 58 L452 58 L453 63 L458 58 L467 41 L469 38 L466 67 L467 94 L473 95 L480 93 L483 94 L484 105 L485 108 L492 101 L495 98 L495 100 L495 101 L495 103 L498 110 L500 114 L500 113 L502 101 L505 89 L507 86 L508 86 L508 88 " fill="none" stroke="black" /></svg>