<?xml version="1.0" encoding="utf-8" ?>
<svg baseProfile="tiny" height="214" version="1.2" viewBox="-3 -3 198 214" width="198" xmlns="http://www.w3.org/2000/svg" xmlns:ev="http://www.w3.org/2001/xml-events" xmlns:xlink="http://www.w3.org/1999/xlink"><defs /><path d="M117 92 L122 88 L120 86 L112 86 L109 91 L110 95 L113 94 L114 86 L110 83 L105 84 L104 92 L107 96 L113 95 L114 90 L106 89 L95 94 L91 108 L94 115 L106 118 L110 111 L110 100 L90 95 L65 107 L57 125 L73 136 L110 129 L126 107 L128 92 L113 89 L99 99 L99 114 L115 116 L127 102 L128 89 L112 87 L95 105 L92 126 L108 129 L126 108 L130 74 L108 61 L67 95 L50 149 L73 167 L114 152 L132 117 L129 93 L69 92 L41 119 L45 142 L96 142 L131 113 L136 91 L112 85 L89 97 L84 120 L100 132 L127 124 L142 85 L127 53 L78 56 L56 81 L59 103 L105 109 L152 75 L165 28 L136 18 L68 54 L37 111 L34 156 L57 172 L99 147 L119 82 L120 47 L90 29 L50 57 L31 114 L56 167 L113 185 L169 159 L198 82 L190 48 L141 43 L94 65 L74 98 L78 120 L113 124 L138 93 L143 54 L114 31 L73 35 L56 57 L71 88 L128 102 L179 75 L194 36 L171 10 L104 10 L21 72 L0 131 L7 182 L44 202 L95 196 L135 151 L151 65 L135 21 L95 8 L57 15 L38 47 L46 89 L104 123 L160 110 L189 62 L191 21 L156 0 L78 5 L29 52 L28 108 L56 148 L82 161 L98 156 L103 116 L84 93 L50 86 L23 98 L13 132 L21 172 L61 205 L96 214 L122 213 L137 207 L145 201 L147 198 L158 191 L181 172 L195 139 L195 107 L169 95 L142 94 L128 109 L127 126 L129 138 L139 144 L149 144 L160 132 L166 119 L167 108 L166 100 L164 95 " fill="none" stroke="black" /></svg>