<?xml version="1.0" encoding="utf-8" ?>
<svg baseProfile="tiny" height="126" version="1.2" viewBox="-3 -3 93 126" width="93" xmlns="http://www.w3.org/2000/svg" xmlns:ev="http://www.w3.org/2001/xml-events" xmlns:xlink="http://www.w3.org/1999/xlink"><defs /><path d="M30 122 L27 122 L24 117 L21 112 L17 106 L12 98 L8 92 L6 88 L5 84 L3 78 L2 74 L1 70 L0 66 L0 61 L0 52 L0 43 L0 37 L0 31 L1 27 L1 26 L2 26 L3 25 L4 23 L6 19 L8 14 L9 13 L9 12 L10 11 L12 8 L15 5 L17 4 L17 3 L18 3 L19 3 L20 3 L21 3 L26 3 L35 3 L45 1 L54 0 L59 0 L64 0 L70 0 L76 0 L81 2 L84 3 L86 5 L88 9 L90 14 L92 21 L93 28 L93 35 L93 44 L93 53 L92 62 L90 68 L88 73 L85 79 L83 82 L80 87 L77 91 L73 96 L69 100 L66 103 L63 107 L60 110 L58 112 L55 114 L52 116 L51 118 L50 118 L49 119 L47 120 L42 123 L39 125 L38 126 L38 125 L38 124 L38 123 L39 123 L39 122 L39 121 L39 120 L39 119 L39 118 L40 116 L40 115 L40 114 L37 114 L36 114 L36 113 L36 111 L37 108 L38 108 L37 108 L36 108 L36 107 L36 105 L35 104 L35 103 L35 102 L36 101 L36 100 L36 98 L36 96 L36 93 L36 92 L36 91 L36 89 L39 83 L41 80 L40 80 L40 79 L40 78 L42 75 L42 74 L42 73 L42 72 L41 72 L41 71 L41 70 L40 70 L40 69 L40 67 L41 66 L42 64 L42 63 L44 61 L45 60 L46 59 L46 57 L46 55 L46 54 L46 51 L46 47 L46 43 L46 40 L46 36 L46 29 L46 16 L47 7 L47 5 " fill="none" stroke="black" /></svg>