<?xml version="1.0" encoding="utf-8" ?>
<svg baseProfile="tiny" height="147" version="1.2" viewBox="-3 -3 150 147" width="150" xmlns="http://www.w3.org/2000/svg" xmlns:ev="http://www.w3.org/2001/xml-events" xmlns:xlink="http://www.w3.org/1999/xlink"><defs /><path d="M2 147 L2 138 L2 110 L2 88 L2 64 L2 50 L2 32 L2 22 L2 19 L2 16 L1 12 L1 11 L2 11 L4 11 L5 11 L6 11 L9 11 L17 11 L28 10 L39 9 L50 6 L64 4 L74 3 L84 2 L94 1 L102 1 L111 0 L121 0 L131 0 L137 0 L145 0 L148 0 L149 0 L150 0 L149 0 L149 1 L149 2 L148 3 L148 4 L147 5 L147 8 L147 12 L147 16 L147 21 L147 24 L147 29 L147 32 L147 35 L147 38 L147 42 L147 44 L147 46 L147 47 L147 48 L146 51 L146 56 L145 60 L145 62 L144 62 L143 62 L143 63 L142 63 L141 63 L140 63 L139 63 L138 63 L137 63 L136 63 L135 63 L134 63 L128 63 L116 62 L103 61 L98 60 L97 60 L97 62 L94 68 L90 76 L88 77 L87 77 L85 77 L81 74 L78 72 L77 72 L77 73 L76 73 L69 71 L66 70 L66 74 L64 79 L63 82 L62 83 L60 83 L60 84 L60 92 L59 95 L58 96 L57 96 L56 96 L56 97 L56 98 L56 101 L56 103 L55 103 L51 103 L48 103 L48 104 L48 106 L48 107 L47 107 L47 108 L46 112 L44 117 L42 119 L36 121 L31 125 L24 134 L20 139 L19 140 L18 140 L17 140 L16 141 L12 143 L5 144 L2 144 L0 144 " fill="none" stroke="black" /></svg>