<?xml version="1.0" encoding="utf-8" ?>
<svg baseProfile="tiny" height="331" version="1.2" viewBox="-3 -3 89 331" width="89" xmlns="http://www.w3.org/2000/svg" xmlns:ev="http://www.w3.org/2001/xml-events" xmlns:xlink="http://www.w3.org/1999/xlink"><defs /><path d="M65 5 L55 5 L44 5 L35 5 L32 5 L29 7 L24 12 L14 22 L9 29 L5 36 L4 40 L2 44 L1 48 L1 53 L0 57 L0 61 L0 66 L3 70 L5 72 L9 74 L15 75 L25 75 L37 75 L48 75 L55 74 L57 73 L62 70 L66 67 L67 66 L74 56 L82 43 L86 35 L89 23 L89 16 L88 12 L83 9 L78 5 L72 3 L65 1 L62 0 L61 0 " fill="none" stroke="black" /><path d="M65 5 L55 5 L44 5 L35 5 L32 5 L29 7 L24 12 L14 22 L9 29 L5 36 L4 40 L2 44 L1 48 L1 53 L0 57 L0 61 L0 66 L3 70 L5 72 L9 74 L15 75 L25 75 L37 75 L48 75 L55 74 L57 73 L62 70 L66 67 L67 66 L74 56 L82 43 L86 35 L89 23 L89 16 L88 12 L83 9 L78 5 L72 3 L65 1 L62 0 L61 0 M47 74 L46 75 L44 79 L40 85 L35 93 L32 98 L30 101 L28 105 L19 118 L10 129 L7 134 L6 138 L5 143 L5 150 L5 155 L9 162 L19 170 L32 181 L42 190 L49 200 L53 213 L54 227 L42 267 L25 311 L22 322 L22 325 L33 329 L50 331 L61 331 L64 331 L64 329 L64 321 L64 314 L65 307 L65 298 L65 287 L65 274 L65 263 L71 246 L80 234 L87 227 L87 225 L84 222 L75 217 L70 210 L68 201 L68 194 L68 189 L70 183 L71 176 L71 169 L71 162 L71 153 L70 142 L68 137 L67 135 L65 132 L65 130 L63 126 L62 122 L61 119 L59 112 L58 108 L57 105 L56 103 L54 100 L54 97 L53 94 L53 91 L52 88 L51 86 L50 83 L49 81 L48 79 L48 78 " fill="none" stroke="black" /></svg>