<?xml version="1.0" encoding="utf-8" ?>
<svg baseProfile="tiny" height="254" version="1.2" viewBox="-3 -3 150 254" width="150" xmlns="http://www.w3.org/2000/svg" xmlns:ev="http://www.w3.org/2001/xml-events" xmlns:xlink="http://www.w3.org/1999/xlink"><defs /><path d="M39 94 L39 103 L39 154 L39 188 L39 208 L39 205 L37 177 L33 119 L33 60 L33 37 L33 36 L33 45 L48 115 L63 177 L71 205 L73 210 L73 209 L73 188 L73 140 L72 110 L71 101 L71 102 L74 133 L82 180 L88 205 L89 208 L89 200 L86 144 L81 68 L79 20 L78 17 L78 27 L84 81 L95 146 L102 178 L103 183 L104 179 L104 107 L104 29 L104 3 L104 1 L106 17 L119 93 L132 158 L139 192 L140 195 L140 189 L140 150 L138 105 L136 84 L136 82 L136 88 L140 157 L146 220 L149 251 L150 254 L150 247 L139 185 L124 117 L115 85 L111 77 L110 80 L110 113 L110 147 L110 168 L110 169 L107 151 L95 89 L83 31 L80 22 L80 43 L84 98 L88 147 L88 169 L89 172 L88 162 L76 116 L63 82 L56 71 L54 71 L54 97 L54 166 L54 222 L54 237 L54 234 L44 189 L31 109 L23 52 L20 35 L20 34 L20 57 L26 131 L28 160 L29 166 L29 164 L21 125 L10 77 L2 50 L0 43 L1 53 L14 104 L28 167 L37 208 L42 220 L44 220 L47 210 L56 164 L65 109 L66 93 L67 111 L74 176 L82 225 L87 250 L88 252 L88 243 L75 121 L67 34 L64 5 L63 2 L63 11 L72 54 L86 116 L94 151 L96 156 L96 152 L96 115 L96 53 L95 17 L95 8 L97 55 L107 130 L117 199 L123 232 L126 245 L127 247 L127 243 L123 209 L117 88 L114 23 L113 1 L113 0 L113 17 L119 57 L131 112 L138 136 L140 142 " fill="none" stroke="black" /></svg>