<?xml version="1.0" encoding="utf-8" ?>
<svg baseProfile="tiny" height="89" version="1.2" viewBox="-3 -3 552 89" width="552" xmlns="http://www.w3.org/2000/svg" xmlns:ev="http://www.w3.org/2001/xml-events" xmlns:xlink="http://www.w3.org/1999/xlink"><defs /><path d="M0 89 L0 88 L3 78 L13 59 L18 47 L21 40 L23 32 L24 24 L24 18 L25 14 L26 9 L27 7 L29 4 L34 2 L39 0 L48 0 L55 1 L59 7 L63 19 L66 29 L68 37 L70 48 L72 59 L73 66 L74 73 L75 77 L76 78 L80 79 L84 79 L91 79 L99 75 L104 70 L107 66 L110 61 L112 56 L114 53 L118 51 L122 49 L128 48 L135 48 L140 49 L144 54 L148 61 L151 66 L153 68 L157 69 L164 69 L169 66 L175 61 L179 58 L184 56 L188 55 L195 55 L203 61 L207 66 L210 69 L215 69 L222 69 L228 68 L233 64 L239 60 L249 57 L267 56 L280 59 L287 62 L289 63 L291 61 L294 58 L298 58 L302 58 L308 60 L315 62 L323 60 L326 59 L327 59 L328 59 L331 59 L339 59 L344 60 L347 61 L350 61 L356 61 L361 61 L368 61 L377 61 L389 60 L399 59 L402 59 L404 59 L405 58 L406 58 L406 57 L406 56 L409 56 L411 57 L412 57 L412 56 L413 56 L418 58 L421 60 L422 60 L423 60 L429 60 L433 60 L435 59 L436 59 L438 59 L442 58 L443 58 L444 57 L445 57 L447 55 L449 54 L450 54 L452 57 L454 60 L455 61 L456 58 L457 56 L458 56 L458 54 L460 57 L464 59 L468 59 L469 57 L470 57 L471 57 L486 48 L495 38 L497 37 L497 39 L498 43 L499 44 L499 45 L504 51 L506 54 L510 53 L514 47 L516 46 L518 46 L520 48 L521 49 L525 47 L527 45 L528 45 L533 45 L544 40 L551 36 L552 36 " fill="none" stroke="black" /></svg>