<?xml version="1.0" encoding="utf-8" ?>
<svg baseProfile="tiny" height="105" version="1.2" viewBox="-3 -3 306 105" width="306" xmlns="http://www.w3.org/2000/svg" xmlns:ev="http://www.w3.org/2001/xml-events" xmlns:xlink="http://www.w3.org/1999/xlink"><defs /><path d="M24 16 L49 16 L82 16 L139 12 L192 6 L241 2 L268 0 L288 0 L301 0 L305 0 L306 1 L305 1 L300 2 L289 3 L268 8 L248 15 L229 22 L215 27 L213 29 L212 30 L210 33 L207 37 L206 39 L206 40 L207 40 L206 41 L204 44 L204 49 L204 53 L205 55 L203 56 L198 58 L197 59 L200 64 L209 70 L212 72 L213 73 L210 75 L201 85 L200 89 L200 92 L200 93 L197 93 L180 93 L156 93 L145 93 L148 94 L163 99 L173 104 L174 105 L172 105 L149 105 L127 101 L124 99 L124 98 L118 89 L97 77 L81 72 L79 71 L85 71 L99 71 L107 70 L107 69 L94 65 L73 62 L66 60 L66 59 L66 58 L67 56 L65 48 L55 42 L47 39 L46 38 L46 37 L47 35 L45 31 L30 22 L15 15 L5 10 L2 8 L1 6 L1 5 L0 5 L0 4 L0 3 " fill="none" stroke="black" /></svg>