<?xml version="1.0" encoding="utf-8" ?>
<svg baseProfile="tiny" height="136" version="1.2" viewBox="-3 -3 369 136" width="369" xmlns="http://www.w3.org/2000/svg" xmlns:ev="http://www.w3.org/2001/xml-events" xmlns:xlink="http://www.w3.org/1999/xlink"><defs /><path d="M0 101 L0 96 L0 74 L0 59 L0 57 L0 70 L0 111 L3 131 L5 136 L5 135 L22 53 L30 15 L31 9 L31 14 L35 44 L38 63 L39 67 L39 52 L39 21 L39 15 L39 18 L39 34 L40 45 L40 46 L40 25 L40 4 L39 0 L39 22 L43 60 L47 75 L48 72 L50 38 L50 19 L50 18 L55 47 L59 63 L61 65 L61 42 L61 15 L61 11 L61 17 L66 41 L70 54 L71 52 L71 32 L71 25 L71 27 L71 45 L71 54 L72 55 L72 41 L72 38 L72 39 L80 71 L91 90 L96 94 L96 78 L96 65 L100 77 L104 84 L105 84 L105 76 L105 73 L106 73 L106 72 L106 71 L106 70 L107 70 L108 70 L112 70 L118 70 L124 68 L129 67 L134 67 L141 65 L148 64 L155 63 L161 61 L170 60 L180 59 L185 59 L186 60 L187 60 L187 58 L187 57 L188 57 L194 62 L202 66 L204 66 L204 65 L204 64 L204 65 L209 70 L213 71 L217 67 L219 62 L220 63 L221 64 L223 65 L223 62 L223 61 L225 64 L227 66 L232 59 L239 44 L240 40 L241 40 L250 53 L260 63 L264 65 L265 62 L265 60 L268 61 L271 62 L278 59 L281 56 L281 55 L282 56 L284 56 L287 55 L290 53 L291 53 L299 52 L334 52 L362 53 L368 54 L369 55 " fill="none" stroke="black" /></svg>