<?xml version="1.0" encoding="utf-8" ?>
<svg baseProfile="tiny" height="185" version="1.2" viewBox="-3 -3 183 185" width="183" xmlns="http://www.w3.org/2000/svg" xmlns:ev="http://www.w3.org/2001/xml-events" xmlns:xlink="http://www.w3.org/1999/xlink"><defs /><path d="M0 180 L2 180 L18 180 L30 180 L42 179 L56 172 L79 154 L91 144 L101 134 L106 126 L111 117 L115 105 L119 94 L126 76 L132 61 L135 50 L137 43 L139 36 L141 31 L143 26 L146 19 L148 13 L149 11 L150 8 L152 6 L153 5 L156 2 L157 1 L158 0 L159 0 L160 0 L161 0 L163 0 L167 0 L169 0 L171 1 L172 1 L173 2 L174 3 L175 4 L177 5 L178 7 L180 11 L181 15 L182 20 L183 26 L183 30 L183 34 L183 38 L183 41 L183 43 L183 46 L182 48 L181 51 L181 53 L180 54 L180 56 L179 58 L179 60 L177 62 L176 65 L174 69 L173 72 L171 75 L171 77 L170 79 L168 83 L165 88 L163 92 L162 94 L161 96 L161 97 L160 98 L160 99 L159 101 L158 103 L157 104 L157 105 L157 106 L156 108 L156 113 L156 116 L157 118 L159 120 L162 122 L162 123 L153 128 L142 134 L141 137 L141 140 L146 143 L153 145 L154 146 L153 148 L152 149 L151 152 L155 155 L159 157 L160 158 L146 171 L135 182 L132 185 L129 185 L98 181 L64 174 L48 170 L43 168 L39 165 L34 162 L30 160 " fill="none" stroke="black" /></svg>