<?xml version="1.0" encoding="utf-8" ?>
<svg baseProfile="tiny" height="123" version="1.2" viewBox="-3 -3 225 123" width="225" xmlns="http://www.w3.org/2000/svg" xmlns:ev="http://www.w3.org/2001/xml-events" xmlns:xlink="http://www.w3.org/1999/xlink"><defs /><path d="M0 0 L0 1 L0 8 L0 14 L0 23 L0 37 L0 49 L1 57 L2 66 L3 77 L4 91 L5 98 L7 103 L8 106 L9 108 L10 110 L13 113 L16 116 L20 118 L26 120 L33 122 L39 123 L43 123 L45 123 L46 122 L47 121 L47 120 L48 118 L48 117 L48 116 L48 115 L48 114 L49 112 L52 107 L60 97 L65 90 L67 85 L70 80 L72 76 L73 74 L73 73 L74 73 L75 73 L77 75 L82 76 L88 78 L94 81 L101 85 L106 88 L110 90 L112 92 L113 93 L115 94 L118 95 L120 96 L129 98 L140 100 L154 102 L165 102 L169 102 L170 102 L173 102 L180 101 L193 99 L205 98 L212 97 L215 96 L217 95 L219 94 L220 94 L221 93 L221 87 L221 77 L221 70 L221 67 L221 65 L221 64 L220 64 L220 63 L219 63 L218 63 L217 63 L210 63 L203 63 L202 63 L201 64 L200 64 L201 64 L202 64 L203 64 L205 63 L207 62 L207 61 L208 60 L211 53 L213 45 L215 38 L216 35 L217 33 L218 31 L219 29 L219 28 L219 26 L218 24 " fill="none" stroke="black" /><path d="M0 0 L0 1 L0 8 L0 14 L0 23 L0 37 L0 49 L1 57 L2 66 L3 77 L4 91 L5 98 L7 103 L8 106 L9 108 L10 110 L13 113 L16 116 L20 118 L26 120 L33 122 L39 123 L43 123 L45 123 L46 122 L47 121 L47 120 L48 118 L48 117 L48 116 L48 115 L48 114 L49 112 L52 107 L60 97 L65 90 L67 85 L70 80 L72 76 L73 74 L73 73 L74 73 L75 73 L77 75 L82 76 L88 78 L94 81 L101 85 L106 88 L110 90 L112 92 L113 93 L115 94 L118 95 L120 96 L129 98 L140 100 L154 102 L165 102 L169 102 L170 102 L173 102 L180 101 L193 99 L205 98 L212 97 L215 96 L217 95 L219 94 L220 94 L221 93 L221 87 L221 77 L221 70 L221 67 L221 65 L221 64 L220 64 L220 63 L219 63 L218 63 L217 63 L210 63 L203 63 L202 63 L201 64 L200 64 L201 64 L202 64 L203 64 L205 63 L207 62 L207 61 L208 60 L211 53 L213 45 L215 38 L216 35 L217 33 L218 31 L219 29 L219 28 L219 26 L218 24 M218 22 L218 34 L218 52 L218 69 L222 88 L224 98 L225 101 L225 102 " fill="none" stroke="black" /><path d="M0 0 L0 1 L0 8 L0 14 L0 23 L0 37 L0 49 L1 57 L2 66 L3 77 L4 91 L5 98 L7 103 L8 106 L9 108 L10 110 L13 113 L16 116 L20 118 L26 120 L33 122 L39 123 L43 123 L45 123 L46 122 L47 121 L47 120 L48 118 L48 117 L48 116 L48 115 L48 114 L49 112 L52 107 L60 97 L65 90 L67 85 L70 80 L72 76 L73 74 L73 73 L74 73 L75 73 L77 75 L82 76 L88 78 L94 81 L101 85 L106 88 L110 90 L112 92 L113 93 L115 94 L118 95 L120 96 L129 98 L140 100 L154 102 L165 102 L169 102 L170 102 L173 102 L180 101 L193 99 L205 98 L212 97 L215 96 L217 95 L219 94 L220 94 L221 93 L221 87 L221 77 L221 70 L221 67 L221 65 L221 64 L220 64 L220 63 L219 63 L218 63 L217 63 L210 63 L203 63 L202 63 L201 64 L200 64 L201 64 L202 64 L203 64 L205 63 L207 62 L207 61 L208 60 L211 53 L213 45 L215 38 L216 35 L217 33 L218 31 L219 29 L219 28 L219 26 L218 24 M218 22 L218 34 L218 52 L218 69 L222 88 L224 98 L225 101 L225 102 M225 101 L213 101 L173 101 L125 101 L75 101 L47 101 L38 101 L36 101 " fill="none" stroke="black" /></svg>