<?xml version="1.0" encoding="utf-8" ?>
<svg baseProfile="tiny" height="103" version="1.2" viewBox="-3 -3 286 103" width="286" xmlns="http://www.w3.org/2000/svg" xmlns:ev="http://www.w3.org/2001/xml-events" xmlns:xlink="http://www.w3.org/1999/xlink"><defs /><path d="M0 70 L3 70 L8 70 L13 70 L18 70 L28 72 L40 73 L54 75 L72 75 L84 75 L93 74 L99 72 L103 71 L109 68 L119 64 L133 58 L139 53 L146 47 L151 42 L156 38 L159 35 L165 31 L167 29 L171 26 L176 22 L182 16 L186 12 L188 11 L193 8 L198 5 L201 3 L202 3 L204 3 L210 2 L217 1 L224 0 L231 0 L239 0 L243 0 L249 1 L253 2 L258 4 L263 6 L266 7 L269 9 L271 10 L274 12 L277 14 L279 17 L280 19 L281 20 L283 22 L283 23 L284 25 L285 28 L286 30 L286 31 L286 32 L286 34 L286 36 L286 37 L286 38 L286 41 L286 44 L286 48 L284 52 L283 56 L282 60 L280 62 L279 65 L277 68 L275 71 L272 74 L270 77 L268 78 L267 78 L266 79 L265 79 L261 81 L253 85 L244 91 L237 94 L230 96 L224 98 L219 99 L214 100 L203 101 L189 103 L175 103 L165 103 L157 102 L151 101 L142 99 L131 96 L126 94 L121 93 L116 91 L112 90 L110 89 L106 88 L100 86 L94 83 L88 82 L83 80 L80 79 L79 78 L78 78 L77 78 L76 78 L76 77 L73 77 L68 76 L65 75 L60 75 L56 74 L52 74 L50 73 L48 73 L46 73 L44 72 L39 72 L35 72 L31 72 L28 72 L24 72 L21 72 L19 72 L18 72 L17 72 L16 72 L14 73 L11 74 L9 74 L8 74 " fill="none" stroke="black" /></svg>