<?xml version="1.0" encoding="utf-8" ?>
<svg baseProfile="tiny" height="128" version="1.2" viewBox="-3 -3 287 128" width="287" xmlns="http://www.w3.org/2000/svg" xmlns:ev="http://www.w3.org/2001/xml-events" xmlns:xlink="http://www.w3.org/1999/xlink"><defs /><path d="M8 122 L13 122 L33 122 L59 122 L83 122 L94 121 L102 121 L110 121 L122 121 L134 120 L149 119 L162 118 L177 116 L191 116 L202 116 L211 116 L218 116 L227 116 L237 116 L246 116 L254 116 L259 116 L265 116 L271 116 L276 116 L279 116 L281 116 L283 116 L285 116 L286 115 L287 115 L287 114 L287 113 L287 111 L287 108 L287 105 L287 101 L287 96 L287 93 L286 88 L284 84 L283 79 L282 76 L280 71 L275 64 L268 56 L261 50 L250 41 L242 34 L236 31 L228 26 L218 21 L209 17 L199 12 L189 9 L174 5 L163 3 L156 1 L152 1 L148 0 L143 0 L136 0 L131 0 L125 0 L120 0 L115 1 L112 1 L107 3 L100 5 L96 7 L93 8 L85 10 L80 13 L72 17 L55 27 L42 34 L38 37 L37 39 L37 40 L34 45 L30 52 L27 56 L26 58 L23 62 L20 68 L17 73 L13 80 L8 87 L5 93 L3 97 L2 101 L1 104 L0 107 L0 110 L0 113 L0 115 L0 116 L0 117 L1 120 L3 124 L4 126 L4 128 L5 128 " fill="none" stroke="black" /></svg>