<?xml version="1.0" encoding="utf-8" ?>
<svg baseProfile="tiny" height="122" version="1.2" viewBox="-3 -3 217 122" width="217" xmlns="http://www.w3.org/2000/svg" xmlns:ev="http://www.w3.org/2001/xml-events" xmlns:xlink="http://www.w3.org/1999/xlink"><defs /><path d="M0 114 L4 114 L25 114 L49 109 L72 103 L90 99 L106 95 L124 88 L142 79 L155 71 L168 64 L176 59 L186 53 L195 46 L201 40 L204 38 L205 36 L210 31 L215 26 L217 25 L217 24 L217 25 L215 27 L214 28 L212 29 L210 31 L209 32 L207 33 L206 33 L205 33 L197 37 L188 40 L182 44 L176 46 L171 49 L167 51 L166 52 L164 52 L157 55 L149 57 L145 59 L144 59 L143 59 L142 59 L142 60 L143 60 L144 58 L145 55 L145 51 L145 48 L145 47 L144 46 L144 45 L141 37 L137 23 L136 16 L136 15 L135 15 L135 14 L133 14 L130 10 L126 4 L124 2 L123 1 L123 0 L123 2 L124 6 L125 16 L127 31 L128 44 L128 52 L128 55 L127 58 L125 62 L119 74 L114 82 L109 87 L107 88 L106 89 L105 89 L104 89 L102 89 L95 92 L89 94 L86 95 L85 95 L83 95 L81 96 L71 99 L62 101 L53 104 L44 106 L36 109 L30 111 L25 113 L22 115 L20 116 L18 120 L17 122 " fill="none" stroke="black" /></svg>