<?xml version="1.0" encoding="utf-8" ?>
<svg baseProfile="tiny" height="102" version="1.2" viewBox="-3 -3 196 102" width="196" xmlns="http://www.w3.org/2000/svg" xmlns:ev="http://www.w3.org/2001/xml-events" xmlns:xlink="http://www.w3.org/1999/xlink"><defs /><path d="M0 83 L9 83 L22 83 L34 83 L47 83 L61 82 L72 81 L83 81 L90 80 L99 80 L110 79 L118 79 L125 79 L130 79 L136 78 L146 78 L155 77 L163 77 L170 76 L176 76 L183 76 L188 75 L192 75 L195 74 L196 74 " fill="none" stroke="black" /><path d="M0 83 L9 83 L22 83 L34 83 L47 83 L61 82 L72 81 L83 81 L90 80 L99 80 L110 79 L118 79 L125 79 L130 79 L136 78 L146 78 L155 77 L163 77 L170 76 L176 76 L183 76 L188 75 L192 75 L195 74 L196 74 M51 80 L51 77 L51 69 L51 61 L51 57 L52 55 L53 54 L54 53 L55 52 L55 51 L56 50 L57 50 L57 49 L58 48 L59 48 L61 47 L63 46 L65 45 L67 44 L69 43 L71 42 L73 42 L76 41 L79 40 L83 39 L87 38 L91 37 L95 36 L100 36 L105 36 L109 36 L113 36 L117 36 L120 37 L123 38 L126 39 L128 39 L129 40 L130 41 L131 42 L131 43 L132 43 L132 44 L132 45 L133 46 L134 47 L136 48 L137 51 L139 53 L140 55 L141 56 L141 58 L141 59 L141 60 L141 61 L142 62 L142 63 L142 64 L142 65 L142 66 L142 67 L142 68 L142 69 L142 70 L142 71 " fill="none" stroke="black" /><path d="M0 83 L9 83 L22 83 L34 83 L47 83 L61 82 L72 81 L83 81 L90 80 L99 80 L110 79 L118 79 L125 79 L130 79 L136 78 L146 78 L155 77 L163 77 L170 76 L176 76 L183 76 L188 75 L192 75 L195 74 L196 74 M51 80 L51 77 L51 69 L51 61 L51 57 L52 55 L53 54 L54 53 L55 52 L55 51 L56 50 L57 50 L57 49 L58 48 L59 48 L61 47 L63 46 L65 45 L67 44 L69 43 L71 42 L73 42 L76 41 L79 40 L83 39 L87 38 L91 37 L95 36 L100 36 L105 36 L109 36 L113 36 L117 36 L120 37 L123 38 L126 39 L128 39 L129 40 L130 41 L131 42 L131 43 L132 43 L132 44 L132 45 L133 46 L134 47 L136 48 L137 51 L139 53 L140 55 L141 56 L141 58 L141 59 L141 60 L141 61 L142 62 L142 63 L142 64 L142 65 L142 66 L142 67 L142 68 L142 69 L142 70 L142 71 M91 0 L91 6 L91 16 L95 40 L99 57 L103 76 L106 89 L107 96 L108 100 L108 101 L108 102 " fill="none" stroke="black" /></svg>