<?xml version="1.0" encoding="utf-8" ?>
<svg baseProfile="tiny" height="125" version="1.2" viewBox="-3 -3 172 125" width="172" xmlns="http://www.w3.org/2000/svg" xmlns:ev="http://www.w3.org/2001/xml-events" xmlns:xlink="http://www.w3.org/1999/xlink"><defs /><path d="M130 125 L129 125 L106 125 L70 122 L48 114 L28 100 L18 86 L12 68 L11 50 L11 38 L11 34 L11 30 L11 28 L11 27 L11 25 L12 17 L12 11 L11 7 L6 4 L2 2 L0 2 L1 1 L2 0 L3 0 L5 0 L10 0 L19 0 L32 0 L45 0 L54 2 L56 4 L56 7 L56 16 L53 28 L48 40 L47 44 L47 45 L51 48 L60 52 L66 54 L68 55 L68 56 L68 57 L69 57 L70 58 L73 61 L78 64 L80 66 L81 67 L82 68 L83 68 L86 66 L96 57 L105 45 L109 38 L110 35 L110 34 L109 34 L109 35 L109 40 L109 44 L110 45 L111 45 L111 44 L113 47 L128 61 L136 66 L138 67 L139 63 L139 56 L139 54 L138 54 L139 60 L147 68 L154 71 L156 72 L155 72 L155 80 L159 97 L168 112 L172 116 L171 115 L168 114 L167 114 L166 116 L166 117 L159 118 L148 119 L140 119 L136 119 L134 119 L132 119 L130 119 L128 119 L125 119 L124 119 " fill="none" stroke="black" /></svg>