<?xml version="1.0" encoding="utf-8" ?>
<svg baseProfile="tiny" height="122" version="1.2" viewBox="-3 -3 232 122" width="232" xmlns="http://www.w3.org/2000/svg" xmlns:ev="http://www.w3.org/2001/xml-events" xmlns:xlink="http://www.w3.org/1999/xlink"><defs /><path d="M69 38 L72 38 L73 38 L66 38 L46 39 L42 40 L89 40 L173 36 L210 31 L212 31 L186 31 L165 31 L162 31 L179 27 L203 23 L205 23 L142 25 L110 30 L105 32 L122 32 L134 31 L130 31 L89 34 L80 35 L130 25 L206 5 L232 0 L177 10 L107 29 L69 41 L72 41 L86 37 L88 37 L44 41 L6 51 L0 53 L45 48 L90 38 L97 37 L58 41 L37 46 L38 47 L95 39 L118 35 L119 35 L93 46 L83 50 L124 44 L170 32 L181 29 L148 37 L119 47 L113 48 L145 41 L179 33 L172 33 L96 52 L61 61 L57 62 L87 56 L109 51 L97 52 L77 58 L72 60 L101 54 L141 45 L154 44 L137 50 L87 69 L69 75 L101 64 L133 53 L141 51 L122 55 L102 62 L98 63 L127 55 L144 51 L141 52 L103 67 L86 74 L107 70 L161 55 L188 47 L182 48 L125 67 L108 72 L127 66 L168 55 L186 50 L158 60 L115 73 L97 79 L120 76 L179 61 L192 58 L144 71 L89 89 L67 95 L91 89 L139 76 L159 71 L128 82 L84 100 L72 104 L112 100 L167 88 L181 86 L139 99 L69 119 L59 122 L105 108 L134 101 L139 100 L95 110 L72 117 L69 118 L113 107 L135 103 L136 103 L121 109 L114 112 L126 109 L160 100 L171 97 L156 104 " fill="none" stroke="black" /></svg>