<?xml version="1.0" encoding="utf-8" ?>
<svg baseProfile="tiny" height="60" version="1.2" viewBox="-3 -3 191 60" width="191" xmlns="http://www.w3.org/2000/svg" xmlns:ev="http://www.w3.org/2001/xml-events" xmlns:xlink="http://www.w3.org/1999/xlink"><defs /><path d="M0 30 L9 30 L30 30 L47 30 L58 30 L65 30 L72 30 L82 28 L93 27 L104 25 L114 24 L123 22 L127 21 L131 20 L137 19 L141 18 L143 17 L147 17 L149 17 L152 17 L153 17 L156 16 L159 16 L163 16 L167 16 L171 16 L175 17 L178 18 L180 19 L183 21 L186 22 L188 24 L189 26 L191 29 L191 32 L191 36 L191 40 L190 44 L188 47 L186 49 L179 54 L171 58 L167 60 L166 60 L165 60 L163 60 L162 60 L161 59 L161 58 L160 58 L156 56 L142 47 L124 33 L107 21 L95 13 L87 9 L84 8 L73 4 L61 1 L54 0 L50 0 L48 1 L46 2 L43 4 L40 8 L38 11 L35 15 L33 19 L32 23 L31 25 L31 26 L30 27 L30 28 L29 29 L27 33 L23 38 L19 44 L17 48 L16 51 L14 55 L12 57 L11 58 L10 59 L9 59 L8 56 L6 52 L5 49 L4 46 L3 43 L3 40 L3 36 L3 33 L2 31 L2 29 L2 28 L2 27 L1 27 L1 26 " fill="none" stroke="black" /></svg>