<?xml version="1.0" encoding="utf-8" ?>
<svg baseProfile="tiny" height="319" version="1.2" viewBox="-3 -3 347 319" width="347" xmlns="http://www.w3.org/2000/svg" xmlns:ev="http://www.w3.org/2001/xml-events" xmlns:xlink="http://www.w3.org/1999/xlink"><defs /><path d="M0 220 L4 220 L16 216 L27 210 L37 202 L44 196 L48 192 L51 188 L54 183 L56 180 L59 166 L67 138 L77 91 L80 62 L80 52 L80 53 L80 55 L80 73 L80 161 L87 257 L93 304 L95 316 L95 319 L95 317 L95 309 L92 276 L92 171 L100 41 L104 6 L104 0 L104 2 L104 6 L105 11 L111 34 L130 102 L145 152 L150 172 L153 188 L156 206 L156 218 L156 221 L156 222 L156 223 L156 224 L156 228 L154 233 L153 237 L153 239 L153 240 L153 241 L152 241 L152 242 L152 243 L152 244 L151 244 L152 244 L154 246 L158 249 L160 250 L161 250 L162 250 L163 250 L163 248 L164 244 L164 239 L164 235 L165 231 L169 219 L175 198 L181 174 L191 142 L201 106 L203 92 L203 85 L203 82 L202 82 L202 83 L201 86 L201 104 L201 150 L205 192 L207 218 L207 232 L208 240 L208 242 L208 243 L208 242 L209 240 L209 235 L210 223 L231 150 L257 57 L263 25 L263 20 L263 21 L263 22 L263 23 L263 24 L264 25 L265 27 L272 34 L279 46 L285 61 L289 82 L289 106 L289 127 L284 142 L280 153 L276 165 L275 178 L275 192 L275 207 L281 221 L290 229 L301 234 L313 236 L320 236 L326 234 L338 209 L347 170 L347 149 L347 147 L347 146 L346 146 L345 146 " fill="none" stroke="black" /></svg>