<?xml version="1.0" encoding="utf-8" ?>
<svg baseProfile="tiny" height="123" version="1.2" viewBox="-3 -3 211 123" width="211" xmlns="http://www.w3.org/2000/svg" xmlns:ev="http://www.w3.org/2001/xml-events" xmlns:xlink="http://www.w3.org/1999/xlink"><defs /><path d="M0 115 L0 97 L8 68 L10 59 L18 46 L27 34 L32 27 L36 26 L46 20 L65 12 L83 7 L100 3 L114 1 L126 0 L139 0 L145 1 L151 5 L158 10 L165 14 L170 19 L176 26 L182 34 L186 41 L190 48 L193 55 L195 59 L198 66 L202 75 L205 83 L208 92 L210 96 L211 99 L211 103 L211 107 L211 110 L211 112 L211 114 L211 116 L211 117 L211 118 L210 118 L209 119 L208 119 L206 119 L199 120 L191 122 L184 123 L183 123 L182 123 L181 123 L179 122 L176 120 L174 118 L173 116 L170 113 L169 110 L167 105 L165 101 L163 97 L162 94 L160 89 L159 87 L158 83 L156 81 L155 79 L153 78 L151 77 L149 76 L146 75 L142 75 L139 75 L137 75 L137 76 L137 77 L136 79 L136 81 L134 84 L133 88 L132 91 L131 95 L129 100 L127 106 L125 111 L124 114 L123 116 L122 118 L120 119 L120 120 L118 120 L116 120 L113 120 L107 118 L102 115 L97 113 L93 112 L89 110 L84 108 L81 108 L78 107 L75 106 L70 105 L66 105 L61 105 L54 105 L45 105 L35 105 L28 105 L26 105 L24 105 L19 105 L10 108 L6 109 L4 109 L3 109 " fill="none" stroke="black" /></svg>