<?xml version="1.0" encoding="utf-8" ?>
<svg baseProfile="tiny" height="193" version="1.2" viewBox="-3 -3 337 193" width="337" xmlns="http://www.w3.org/2000/svg" xmlns:ev="http://www.w3.org/2001/xml-events" xmlns:xlink="http://www.w3.org/1999/xlink"><defs /><path d="M0 193 L2 165 L22 107 L29 87 L30 86 L30 92 L30 117 L34 140 L40 150 L43 152 L46 138 L51 117 L53 112 L54 117 L63 149 L75 166 L80 171 L82 168 L82 165 L80 165 L80 169 L81 172 L87 173 L89 174 L90 174 L92 174 L110 172 L151 157 L176 144 L181 141 L181 142 L181 151 L181 157 L182 158 L183 157 L183 155 L181 156 L181 159 L181 160 L188 160 L194 160 L195 159 L197 165 L207 171 L214 171 L215 171 L214 171 L239 171 L259 161 L262 155 L258 155 L256 157 L256 159 L257 160 L258 160 L257 159 L248 161 L245 167 L247 173 L268 170 L276 156 L276 150 L274 150 L275 152 L281 153 L284 143 L283 137 L281 137 L281 140 L286 144 L296 141 L299 128 L299 122 L296 122 L296 125 L306 125 L318 109 L319 95 L313 92 L309 93 L309 95 L321 96 L337 73 L337 63 L325 61 L320 63 L320 68 L325 69 L332 62 L333 46 L321 41 L317 41 L317 43 L323 45 L328 41 L328 34 L324 32 L322 31 L322 26 L323 9 L316 0 " fill="none" stroke="black" /></svg>