<?xml version="1.0" encoding="utf-8" ?>
<svg baseProfile="tiny" height="273" version="1.2" viewBox="-3 -3 153 273" width="153" xmlns="http://www.w3.org/2000/svg" xmlns:ev="http://www.w3.org/2001/xml-events" xmlns:xlink="http://www.w3.org/1999/xlink"><defs /><path d="M59 151 L59 155 L59 163 L59 173 L59 183 L59 197 L59 213 L59 228 L59 233 L59 235 L59 231 L59 220 L58 185 L57 160 L56 150 L56 149 L56 154 L56 175 L61 216 L66 241 L68 249 L69 249 L69 235 L69 195 L69 168 L69 159 L69 181 L69 237 L73 259 L74 263 L75 262 L75 220 L75 182 L75 162 L75 160 L75 181 L81 220 L87 241 L89 245 L90 244 L90 209 L90 172 L90 156 L90 155 L90 183 L95 235 L104 266 L108 273 L109 272 L113 205 L116 137 L116 107 L116 148 L126 212 L132 244 L134 251 L135 251 L136 233 L136 218 L137 216 L137 215 L91 203 L37 198 L4 196 L0 196 L1 196 L32 195 L79 190 L102 187 L105 186 L91 186 L62 185 L46 185 L44 185 L49 185 L86 179 L116 171 L124 167 L124 166 L100 166 L63 166 L48 166 L58 166 L107 148 L144 134 L153 130 L133 138 L99 149 L91 152 L91 153 L94 153 L108 148 L118 141 L119 139 L99 138 L66 138 L59 138 L62 135 L69 123 L74 115 L75 112 L70 112 L65 111 L64 111 L64 110 L64 105 L64 79 L68 40 L71 16 L71 3 L71 0 L70 0 L70 1 " fill="none" stroke="black" /><path d="M59 151 L59 155 L59 163 L59 173 L59 183 L59 197 L59 213 L59 228 L59 233 L59 235 L59 231 L59 220 L58 185 L57 160 L56 150 L56 149 L56 154 L56 175 L61 216 L66 241 L68 249 L69 249 L69 235 L69 195 L69 168 L69 159 L69 181 L69 237 L73 259 L74 263 L75 262 L75 220 L75 182 L75 162 L75 160 L75 181 L81 220 L87 241 L89 245 L90 244 L90 209 L90 172 L90 156 L90 155 L90 183 L95 235 L104 266 L108 273 L109 272 L113 205 L116 137 L116 107 L116 148 L126 212 L132 244 L134 251 L135 251 L136 233 L136 218 L137 216 L137 215 L91 203 L37 198 L4 196 L0 196 L1 196 L32 195 L79 190 L102 187 L105 186 L91 186 L62 185 L46 185 L44 185 L49 185 L86 179 L116 171 L124 167 L124 166 L100 166 L63 166 L48 166 L58 166 L107 148 L144 134 L153 130 L133 138 L99 149 L91 152 L91 153 L94 153 L108 148 L118 141 L119 139 L99 138 L66 138 L59 138 L62 135 L69 123 L74 115 L75 112 L70 112 L65 111 L64 111 L64 110 L64 105 L64 79 L68 40 L71 16 L71 3 L71 0 L70 0 L70 1 M70 1 L70 12 L70 27 L70 45 L70 58 L74 70 L77 76 L79 80 L80 82 L82 84 L82 85 L86 87 L89 90 L93 92 L100 96 L108 102 L112 106 L115 111 L119 117 L121 120 L121 123 L121 125 L121 126 L121 127 L121 128 L121 129 L121 130 L121 131 L121 132 " fill="none" stroke="black" /></svg>