<?xml version="1.0" encoding="utf-8" ?>
<svg baseProfile="tiny" height="195" version="1.2" viewBox="-3 -3 356 195" width="356" xmlns="http://www.w3.org/2000/svg" xmlns:ev="http://www.w3.org/2001/xml-events" xmlns:xlink="http://www.w3.org/1999/xlink"><defs /><path d="M115 58 L127 62 L134 65 L138 66 L141 66 L146 68 L149 69 L150 70 L155 72 L155 81 L131 105 L87 136 L48 161 L17 174 L6 175 L4 175 L2 174 L0 171 L2 163 L14 148 L41 124 L57 110 L63 106 L70 106 L86 115 L105 126 L120 137 L129 146 L130 147 L131 149 L132 150 L134 154 L142 162 L164 179 L191 190 L220 194 L238 194 L257 194 L280 191 L312 175 L334 153 L350 126 L356 102 L356 90 L352 81 L326 70 L285 60 L248 55 L230 55 L225 63 L219 77 L213 92 L209 99 L208 102 L207 106 L207 108 L206 111 L206 115 L206 118 L206 124 L206 129 L206 134 L198 145 L172 167 L154 181 L142 190 L134 194 L133 195 L129 188 L118 165 L106 141 L100 128 L98 121 L97 118 L110 115 L150 115 L182 115 L191 114 L191 112 L179 107 L155 101 L134 98 L128 98 L129 98 L135 100 L134 100 L98 94 L60 80 L37 72 L33 69 L32 69 L31 69 L39 69 L80 62 L151 40 L198 21 L227 10 L238 6 L248 4 L258 2 L263 0 L265 1 L262 23 L232 95 L203 146 L175 175 L170 178 L170 177 L170 169 L175 153 L186 127 L194 91 L196 70 L196 59 L194 55 L181 54 L162 50 L156 46 L166 53 L222 81 L266 101 L288 114 L290 117 L290 121 L290 126 L284 132 L282 134 L282 135 L282 138 L287 150 L291 160 L291 168 L258 182 L193 186 L169 182 L166 178 L166 175 L166 174 L169 173 L186 165 L213 154 L250 140 L281 128 L285 126 L285 125 L285 123 L283 122 L277 118 L272 115 L272 114 " fill="none" stroke="black" /></svg>