<?xml version="1.0" encoding="utf-8" ?>
<svg baseProfile="tiny" height="258" version="1.2" viewBox="-3 -3 324 258" width="324" xmlns="http://www.w3.org/2000/svg" xmlns:ev="http://www.w3.org/2001/xml-events" xmlns:xlink="http://www.w3.org/1999/xlink"><defs /><path d="M20 99 L39 103 L55 106 L64 109 L76 110 L95 110 L121 110 L137 106 L152 100 L169 93 L188 86 L202 79 L213 73 L226 64 L241 55 L251 48 L257 40 L259 34 L261 26 L261 18 L260 12 L259 9 L257 6 L254 2 L245 0 L236 0 L225 0 L214 0 L204 0 L188 4 L171 10 L160 16 L147 27 L135 38 L124 53 L115 70 L107 82 L101 91 L96 101 L88 111 L82 120 L73 130 L63 139 L51 150 L43 154 L36 157 L30 158 L24 159 L17 159 L10 157 L4 150 L0 140 L0 134 L0 126 L2 119 L8 114 L20 107 L42 102 L65 101 L92 106 L100 111 L109 116 L120 122 L134 129 L149 134 L167 140 L183 145 L200 149 L216 153 L234 153 L258 153 L279 150 L294 140 L306 125 L313 111 L316 100 L316 90 L318 88 L319 85 L308 82 L274 82 L244 82 L228 88 L223 97 L212 113 L203 129 L197 142 L192 155 L178 176 L161 192 L143 207 L128 219 L112 230 L99 237 L86 242 L75 245 L60 245 L53 241 L52 230 L55 213 L67 194 L76 184 L81 180 L85 178 L92 178 L102 178 L118 178 L130 175 L136 174 L140 174 L144 174 L148 174 L156 175 L165 179 L173 182 L183 186 L192 190 L200 193 L211 198 L225 201 L243 204 L261 206 L278 206 L294 203 L308 193 L316 183 L320 177 L323 171 L324 166 L324 163 L324 160 L323 158 L321 156 L320 155 L319 154 L316 154 L314 154 L308 157 L293 167 L272 183 L254 196 L240 210 L228 220 L218 230 L209 238 L204 244 L199 248 L194 254 L190 257 L189 258 " fill="none" stroke="black" /></svg>