<?xml version="1.0" encoding="utf-8" ?>
<svg baseProfile="tiny" height="269" version="1.2" viewBox="-3 -3 315 269" width="315" xmlns="http://www.w3.org/2000/svg" xmlns:ev="http://www.w3.org/2001/xml-events" xmlns:xlink="http://www.w3.org/1999/xlink"><defs /><path d="M201 1 L169 0 L140 1 L119 13 L107 26 L88 49 L67 76 L54 103 L43 131 L35 152 L29 167 L17 182 L5 190 L0 191 L0 188 L14 172 L52 150 L90 127 L115 114 L129 107 L138 107 L147 107 L158 107 L169 111 L186 121 L209 135 L223 144 L238 150 L247 151 L255 150 L263 146 L268 140 L269 131 L269 115 L265 98 L258 81 L248 66 L237 55 L228 52 L212 52 L180 57 L148 64 L130 75 L119 87 L115 95 L115 104 L121 119 L130 145 L134 171 L134 199 L134 215 L131 223 L125 229 L116 235 L103 237 L83 236 L74 229 L71 215 L71 196 L70 170 L70 144 L83 118 L96 107 L107 102 L115 102 L129 106 L147 114 L167 127 L179 135 L185 143 L191 152 L198 163 L204 171 L211 181 L221 185 L240 185 L278 172 L295 163 L306 149 L307 134 L307 118 L306 105 L300 94 L295 85 L286 79 L271 77 L255 78 L238 92 L227 111 L218 136 L209 158 L203 171 L200 187 L200 202 L205 217 L207 230 L207 239 L207 241 L196 241 L164 237 L143 230 L135 223 L128 208 L124 189 L123 174 L123 162 L123 154 L125 147 L135 143 L151 143 L183 148 L212 158 L227 166 L233 173 L243 185 L247 197 L250 210 L251 221 L253 232 L257 239 L259 241 L267 240 L291 226 L308 215 L314 205 L315 194 L315 183 L312 174 L309 168 L304 163 L297 158 L290 156 L284 156 L273 167 L261 187 L251 204 L243 215 L240 223 L235 234 L232 246 L228 254 L221 261 L205 268 L197 269 L192 269 L188 264 L185 257 L184 248 L184 245 L184 243 " fill="none" stroke="black" /></svg>