<?xml version="1.0" encoding="utf-8" ?>
<svg baseProfile="tiny" height="138" version="1.2" viewBox="-3 -3 309 138" width="309" xmlns="http://www.w3.org/2000/svg" xmlns:ev="http://www.w3.org/2001/xml-events" xmlns:xlink="http://www.w3.org/1999/xlink"><defs /><path d="M0 67 L3 83 L3 96 L3 106 L3 111 L3 114 L3 116 L3 117 L3 118 L4 112 L10 94 L28 74 L40 63 L48 56 L51 50 L51 39 L44 29 L24 20 L5 16 L0 15 L1 15 L7 17 L15 23 L16 23 L14 23 L7 23 L2 28 L1 41 L13 65 L36 81 L51 89 L52 89 L55 87 L71 73 L92 51 L95 41 L80 25 L52 10 L28 5 L20 6 L17 29 L26 66 L39 103 L45 128 L45 137 L46 138 L50 132 L61 113 L78 91 L91 70 L92 58 L92 48 L92 39 L92 36 L95 39 L115 59 L138 91 L145 110 L145 113 L141 100 L134 66 L132 36 L132 23 L132 21 L132 20 L129 20 L124 20 L111 20 L102 19 L89 18 L57 18 L38 15 L35 15 L52 23 L112 39 L145 45 L150 45 L153 46 L160 51 L160 63 L137 95 L96 115 L77 123 L76 125 L76 128 L78 131 L96 121 L116 86 L145 50 L161 33 L167 26 L170 23 L171 22 L171 21 L172 22 L179 24 L184 27 L191 35 L203 57 L214 90 L220 108 L220 113 L215 113 L190 114 L164 118 L136 116 L125 102 L125 87 L130 81 L142 80 L162 77 L180 70 L190 70 L196 70 L197 70 L197 61 L196 39 L190 12 L188 0 L192 29 L200 101 L199 123 L195 118 L191 83 L191 50 L193 38 L202 43 L208 45 L218 39 L227 29 L232 27 L240 35 L257 71 L264 96 L264 100 L264 97 L262 91 L261 90 L260 90 L260 95 L260 100 L261 102 L264 103 L265 103 L268 95 L279 80 L297 71 L307 66 L309 62 L309 59 " fill="none" stroke="black" /></svg>