<?xml version="1.0" encoding="utf-8" ?>
<svg baseProfile="tiny" height="292" version="1.2" viewBox="-3 -3 602 292" width="602" xmlns="http://www.w3.org/2000/svg" xmlns:ev="http://www.w3.org/2001/xml-events" xmlns:xlink="http://www.w3.org/1999/xlink"><defs /><path d="M322 292 L367 264 L403 233 L435 199 L448 182 L455 170 L461 159 L463 153 L464 148 L464 144 L462 138 L457 130 L448 124 L437 120 L425 116 L407 116 L382 120 L352 125 L320 134 L293 145 L277 156 L260 172 L237 187 L214 202 L201 213 L191 224 L183 234 L166 247 L157 252 L153 254 L149 256 L142 256 L136 253 L125 239 L118 220 L114 202 L117 182 L125 161 L146 137 L202 106 L245 90 L270 84 L281 83 L286 81 L295 81 L311 85 L335 100 L365 120 L391 138 L405 141 L434 116 L466 78 L490 44 L498 20 L498 12 L497 9 L496 8 L496 5 L493 2 L479 0 L452 0 L433 5 L417 7 L404 7 L393 7 L383 7 L368 8 L346 13 L317 22 L301 30 L287 37 L272 48 L257 61 L238 81 L198 113 L171 135 L156 147 L139 156 L121 161 L87 163 L37 148 L15 136 L5 120 L0 103 L0 84 L1 63 L18 36 L38 22 L63 19 L93 19 L122 19 L148 19 L165 19 L188 19 L212 20 L234 27 L249 32 L266 40 L283 47 L292 51 L302 54 L310 56 L315 58 L324 62 L343 68 L353 73 L364 78 L383 90 L406 104 L434 119 L469 130 L487 130 L511 127 L552 119 L580 112 L592 108 L598 96 L602 77 L600 52 L589 28 L580 15 L573 10 L570 10 L569 12 L564 19 L556 27 L549 35 L539 50 L525 82 L508 116 L493 142 L484 157 L480 164 L477 166 L474 170 L472 177 L467 185 L463 196 L457 206 L449 212 L437 222 L416 236 L401 245 L396 248 L394 251 L391 253 L379 258 L373 259 L372 259 L370 259 " fill="none" stroke="black" /></svg>