<?xml version="1.0" encoding="utf-8" ?>
<svg baseProfile="tiny" height="313" version="1.2" viewBox="-3 -3 430 313" width="430" xmlns="http://www.w3.org/2000/svg" xmlns:ev="http://www.w3.org/2001/xml-events" xmlns:xlink="http://www.w3.org/1999/xlink"><defs /><path d="M195 61 L210 71 L225 79 L238 86 L252 90 L266 90 L286 82 L313 57 L335 37 L347 21 L353 10 L356 2 L356 0 L355 0 L333 10 L228 48 L134 86 L86 114 L57 147 L38 177 L20 198 L6 213 L0 217 L0 215 L1 211 L11 202 L46 181 L108 149 L166 127 L204 119 L220 120 L231 127 L250 137 L274 142 L297 142 L331 130 L366 113 L386 96 L390 86 L383 75 L372 70 L351 71 L316 83 L283 101 L266 117 L258 139 L250 161 L222 189 L162 221 L125 236 L90 245 L74 245 L64 240 L60 231 L58 219 L62 207 L74 200 L79 199 L82 199 L83 199 L84 199 L86 199 L87 200 L94 201 L129 189 L190 159 L210 137 L193 112 L175 94 L172 89 L172 97 L168 124 L164 157 L164 176 L165 181 L176 180 L200 173 L220 169 L233 169 L273 169 L312 169 L325 168 L328 165 L330 159 L331 154 L327 153 L323 153 L330 169 L354 188 L371 202 L382 206 L394 201 L410 182 L430 153 L426 149 L368 158 L299 185 L281 204 L274 225 L266 255 L241 285 L200 305 L176 313 L170 313 L170 310 L165 301 L161 294 L160 290 L166 286 L191 282 L229 281 L254 279 L290 272 L334 263 L371 256 L387 254 L398 253 L403 252 L404 251 L404 249 L404 247 L404 245 L404 239 L404 232 L407 224 L410 219 L411 219 L410 219 L384 219 L346 219 L330 219 L328 221 L324 230 L316 241 L314 248 L314 253 L314 257 L314 259 L314 260 L314 263 L310 269 L306 277 L301 284 L294 294 L287 303 L282 310 L282 312 L281 312 L278 312 L277 312 " fill="none" stroke="black" /></svg>