<?xml version="1.0" encoding="utf-8" ?>
<svg baseProfile="tiny" height="422" version="1.2" viewBox="-3 -3 622 422" width="622" xmlns="http://www.w3.org/2000/svg" xmlns:ev="http://www.w3.org/2001/xml-events" xmlns:xlink="http://www.w3.org/1999/xlink"><defs /><path d="M452 159 L455 181 L453 192 L440 194 L411 191 L376 184 L356 180 L352 177 L352 176 " fill="none" stroke="black" /><path d="M452 159 L455 181 L453 192 L440 194 L411 191 L376 184 L356 180 L352 177 L352 176 M332 0 L336 1 L352 13 L418 49 L495 86 L540 115 L555 132 L564 144 L581 159 L598 173 L606 190 L608 208 L600 224 L572 244 L525 261 L484 268 L448 276 L368 287 L326 289 L307 289 L304 291 L308 292 L329 293 L367 303 L399 312 L415 316 L430 313 L459 293 L495 271 L533 244 L543 224 L543 206 L540 186 L524 170 L493 154 L474 147 L473 147 L472 147 L470 147 L456 154 L424 168 L408 177 L401 182 L400 188 L400 199 L404 214 L405 224 L405 222 L393 208 " fill="none" stroke="black" /><path d="M452 159 L455 181 L453 192 L440 194 L411 191 L376 184 L356 180 L352 177 L352 176 M332 0 L336 1 L352 13 L418 49 L495 86 L540 115 L555 132 L564 144 L581 159 L598 173 L606 190 L608 208 L600 224 L572 244 L525 261 L484 268 L448 276 L368 287 L326 289 L307 289 L304 291 L308 292 L329 293 L367 303 L399 312 L415 316 L430 313 L459 293 L495 271 L533 244 L543 224 L543 206 L540 186 L524 170 L493 154 L474 147 L473 147 L472 147 L470 147 L456 154 L424 168 L408 177 L401 182 L400 188 L400 199 L404 214 L405 224 L405 222 L393 208 M390 106 L400 112 L408 120 L411 132 L392 150 L347 163 L323 171 L316 180 L311 201 L309 222 L320 245 L345 268 L387 280 L406 284 L385 273 L364 256 L350 243 L348 237 L360 248 L368 271 L308 300 L142 300 L54 275 L23 261 L1 255 L0 254 L2 252 L44 242 L204 209 L411 170 L542 142 L547 141 L529 147 L488 163 L439 177 L389 188 L359 200 L337 210 L315 222 L293 233 L268 251 L256 267 L249 297 L243 331 L242 354 L244 365 L245 379 L240 388 L197 413 L163 422 L173 415 L284 366 L484 293 L620 258 L622 257 L618 257 L616 257 L613 260 L606 272 L586 290 L536 300 L453 292 L381 285 L335 285 L317 285 L304 290 L251 303 L224 307 L223 308 L230 311 L282 320 L405 323 L548 308 L603 282 L611 260 L610 233 L603 212 L590 187 L560 158 L525 142 L490 138 L468 142 L444 157 L423 175 L422 183 L435 190 L446 198 L449 201 L449 203 L449 201 " fill="none" stroke="black" /><path d="M452 159 L455 181 L453 192 L440 194 L411 191 L376 184 L356 180 L352 177 L352 176 M332 0 L336 1 L352 13 L418 49 L495 86 L540 115 L555 132 L564 144 L581 159 L598 173 L606 190 L608 208 L600 224 L572 244 L525 261 L484 268 L448 276 L368 287 L326 289 L307 289 L304 291 L308 292 L329 293 L367 303 L399 312 L415 316 L430 313 L459 293 L495 271 L533 244 L543 224 L543 206 L540 186 L524 170 L493 154 L474 147 L473 147 L472 147 L470 147 L456 154 L424 168 L408 177 L401 182 L400 188 L400 199 L404 214 L405 224 L405 222 L393 208 M390 106 L400 112 L408 120 L411 132 L392 150 L347 163 L323 171 L316 180 L311 201 L309 222 L320 245 L345 268 L387 280 L406 284 L385 273 L364 256 L350 243 L348 237 L360 248 L368 271 L308 300 L142 300 L54 275 L23 261 L1 255 L0 254 L2 252 L44 242 L204 209 L411 170 L542 142 L547 141 L529 147 L488 163 L439 177 L389 188 L359 200 L337 210 L315 222 L293 233 L268 251 L256 267 L249 297 L243 331 L242 354 L244 365 L245 379 L240 388 L197 413 L163 422 L173 415 L284 366 L484 293 L620 258 L622 257 L618 257 L616 257 L613 260 L606 272 L586 290 L536 300 L453 292 L381 285 L335 285 L317 285 L304 290 L251 303 L224 307 L223 308 L230 311 L282 320 L405 323 L548 308 L603 282 L611 260 L610 233 L603 212 L590 187 L560 158 L525 142 L490 138 L468 142 L444 157 L423 175 L422 183 L435 190 L446 198 L449 201 L449 203 L449 201 M449 199 L449 196 " fill="none" stroke="black" /></svg>