<?xml version="1.0" encoding="utf-8" ?>
<svg baseProfile="tiny" height="281" version="1.2" viewBox="-3 -3 488 281" width="488" xmlns="http://www.w3.org/2000/svg" xmlns:ev="http://www.w3.org/2001/xml-events" xmlns:xlink="http://www.w3.org/1999/xlink"><defs /><path d="M231 61 L208 76 L188 86 L166 94 L142 104 L114 112 L88 119 L50 127 L20 138 L7 142 L4 145 L3 147 L0 153 L0 166 L3 181 L16 197 L36 208 L67 216 L96 221 L128 228 L157 234 L188 240 L223 244 L255 245 L280 246 L309 253 L321 259 L335 267 L363 277 L390 281 L409 281 L430 268 L450 248 L473 220 L485 198 L488 179 L488 160 L488 135 L477 108 L469 89 L460 68 L452 45 L442 25 L432 14 L415 6 L404 3 L397 0 L392 0 L384 0 L375 0 L360 6 L352 10 L345 16 L335 32 L316 54 L302 70 L288 86 L276 101 L263 116 L246 134 L228 154 L220 167 L216 175 L213 179 L212 182 L208 182 L188 178 L172 174 L166 168 L160 162 L156 157 L151 151 L149 147 L148 145 L145 142 L144 142 L141 142 L135 143 L125 150 L112 160 L96 172 L91 178 L90 182 L96 187 L116 197 L145 204 L176 208 L204 207 L241 198 L299 185 L337 176 L359 165 L377 149 L385 136 L386 123 L384 96 L376 78 L365 69 L340 67 L316 72 L309 77 L308 81 L308 89 L308 100 L307 112 L297 126 L268 147 L242 167 L240 174 L246 177 L276 179 L313 179 L330 179 L331 179 L333 179 L337 180 L348 180 L375 180 L392 180 L404 180 L408 180 L410 174 L412 158 L410 133 L401 110 L393 90 L388 78 L384 69 L381 63 L377 58 L374 55 L370 53 L368 51 L367 50 L364 50 L352 50 L334 50 L316 53 L308 55 L296 65 L269 86 L252 99 L229 109 L216 116 L208 118 L200 121 L189 125 L170 129 L163 132 L163 133 " fill="none" stroke="black" /></svg>