<?xml version="1.0" encoding="utf-8" ?>
<svg baseProfile="tiny" height="454" version="1.2" viewBox="-3 -3 398 454" width="398" xmlns="http://www.w3.org/2000/svg" xmlns:ev="http://www.w3.org/2001/xml-events" xmlns:xlink="http://www.w3.org/1999/xlink"><defs /><path d="M386 67 L386 68 L387 69 L388 70 L389 72 L391 76 L393 81 L397 89 L398 99 L398 108 L398 120 L393 140 L384 154 L377 160 L361 160 L323 160 L301 159 L290 154 L286 149 L283 148 L277 148 L251 159 L218 176 L200 191 L196 212 L192 231 L190 243 L188 252 L188 261 L189 271 L196 279 L204 288 L212 295 L219 300 L228 302 L245 305 L270 307 L293 309 L321 315 L345 320 L359 324 L362 329 L365 345 L365 360 L365 376 L361 388 L356 400 L345 412 L316 440 L299 452 L297 454 L296 454 L294 454 L293 453 L292 451 L290 444 L285 434 L277 420 L266 412 L243 407 L229 404 L218 404 L214 404 L213 404 L213 402 L213 400 L214 390 L214 377 L193 365 L161 348 L133 324 L121 304 L117 282 L114 257 L111 232 L105 211 L100 188 L99 176 L105 166 L120 153 L139 138 L157 122 L177 114 L190 115 L207 130 L221 152 L227 167 L228 170 " fill="none" stroke="black" /><path d="M386 67 L386 68 L387 69 L388 70 L389 72 L391 76 L393 81 L397 89 L398 99 L398 108 L398 120 L393 140 L384 154 L377 160 L361 160 L323 160 L301 159 L290 154 L286 149 L283 148 L277 148 L251 159 L218 176 L200 191 L196 212 L192 231 L190 243 L188 252 L188 261 L189 271 L196 279 L204 288 L212 295 L219 300 L228 302 L245 305 L270 307 L293 309 L321 315 L345 320 L359 324 L362 329 L365 345 L365 360 L365 376 L361 388 L356 400 L345 412 L316 440 L299 452 L297 454 L296 454 L294 454 L293 453 L292 451 L290 444 L285 434 L277 420 L266 412 L243 407 L229 404 L218 404 L214 404 L213 404 L213 402 L213 400 L214 390 L214 377 L193 365 L161 348 L133 324 L121 304 L117 282 L114 257 L111 232 L105 211 L100 188 L99 176 L105 166 L120 153 L139 138 L157 122 L177 114 L190 115 L207 130 L221 152 L227 167 L228 170 M223 88 L223 86 L226 76 L230 64 L239 52 L245 44 L250 39 L255 34 L261 30 L265 28 L267 27 L269 25 L273 24 L274 21 L275 15 L273 8 L269 3 L249 0 L220 0 L203 0 L196 4 L191 16 L182 32 L169 46 L155 57 L143 70 L138 79 L131 90 L127 97 L125 99 L122 99 L116 97 L106 91 L100 87 L99 87 L99 88 L104 105 L108 140 L106 158 L102 166 L100 168 L99 169 L97 173 L83 192 L59 207 L39 215 L21 222 L9 227 L5 230 L3 232 L2 236 L1 240 L0 246 L1 256 L6 268 L9 277 L13 280 L13 285 L15 287 L16 288 " fill="none" stroke="black" /></svg>