<?xml version="1.0" encoding="utf-8" ?>
<svg baseProfile="tiny" height="272" version="1.2" viewBox="-3 -3 308 272" width="308" xmlns="http://www.w3.org/2000/svg" xmlns:ev="http://www.w3.org/2001/xml-events" xmlns:xlink="http://www.w3.org/1999/xlink"><defs /><path d="M114 0 L104 4 L95 8 L82 16 L68 26 L54 41 L36 70 L16 98 L4 127 L0 154 L3 182 L18 213 L43 243 L67 259 L94 270 L126 272 L177 270 L228 256 L272 230 L296 206 L305 182 L308 156 L306 125 L301 98 L296 78 L293 63 L292 61 L289 61 L287 61 L283 62 L280 62 L280 63 L278 66 L274 73 L270 77 L269 80 L268 81 L268 83 L267 86 L266 89 L266 92 L265 94 L264 95 L264 98 L263 99 L261 103 L260 106 L259 110 L256 115 L253 120 L248 126 L236 138 L227 148 L216 153 L203 152 L184 137 L165 119 L153 106 L150 98 L150 96 L150 97 L160 107 L176 130 L184 146 L187 147 L187 134 L188 115 L187 106 L186 105 L189 118 L200 150 L204 176 L205 179 L200 168 L186 148 L164 134 L156 131 L155 131 L154 131 L154 133 L154 146 L155 160 L150 154 L125 112 L102 67 L98 56 L98 62 L116 108 L134 148 L148 174 L149 176 L149 171 L152 146 L155 135 L156 134 L156 143 L157 149 L155 143 L142 94 L135 62 L134 57 L132 70 L126 106 L125 138 L128 151 L136 150 L143 142 L143 138 L132 133 L120 130 L111 134 L106 145 L104 151 L100 147 L83 111 L66 66 L60 44 L61 52 L80 89 L103 130 L117 154 L122 158 L123 158 L124 157 L124 146 L116 121 L103 99 L99 96 L93 123 L84 162 L79 177 L69 170 L55 146 L47 122 L46 113 L46 114 L46 116 L48 118 L52 123 L65 145 L84 178 L88 183 L88 181 L88 170 L88 162 L88 159 L88 158 L96 154 L122 146 L133 145 " fill="none" stroke="black" /></svg>