<?xml version="1.0" encoding="utf-8" ?>
<svg baseProfile="tiny" height="306" version="1.2" viewBox="-3 -3 179 306" width="179" xmlns="http://www.w3.org/2000/svg" xmlns:ev="http://www.w3.org/2001/xml-events" xmlns:xlink="http://www.w3.org/1999/xlink"><defs /><path d="M37 81 L36 81 L35 81 L35 83 L35 84 L33 86 L33 87 L32 87 L32 88 L32 90 L31 91 L31 92 L31 94 L31 95 L31 96 L31 97 L31 99 L31 100 L31 101 L31 104 L31 105 L31 108 L31 109 L31 110 L31 112 L31 114 L31 116 L31 118 L31 120 L32 123 L33 125 L33 127 L33 129 L34 130 L34 132 L35 134 L35 136 L35 138 L35 140 L35 143 L35 144 L35 146 L35 148 L35 150 L35 152 L35 155 L35 156 L35 157 L35 158 L35 159 L35 160 L35 161 L35 164 L35 165 L35 168 L36 169 L36 170 L36 171 L36 172 L38 172 L44 168 L74 139 L124 85 L171 19 L179 3 L179 0 L179 1 L173 12 L153 33 L122 57 L78 88 L35 113 L13 127 L7 133 L5 137 L2 141 L0 143 L0 144 L0 147 L7 155 L18 162 L37 174 L62 186 L94 194 L130 195 L152 195 L156 195 L157 193 L154 179 L136 132 L112 66 L104 29 L100 16 L100 14 L99 14 L99 16 L98 18 L97 31 L95 67 L79 117 L53 151 L42 156 L38 156 L36 156 L41 156 L58 155 L80 157 L85 162 L79 171 L51 188 L30 204 L15 230 L17 275 L31 295 L45 304 L67 306 L89 306 L97 306 L103 304 L109 297 L123 279 L135 249 L135 214 L122 183 L97 149 L82 130 L73 124 L71 123 L62 134 L50 154 L35 177 L30 190 L28 204 L28 216 L33 228 L57 238 L103 248 L115 250 L122 250 L130 244 L138 237 L139 231 L127 216 L103 205 L84 200 L77 200 L72 200 L63 205 L55 209 L55 210 " fill="none" stroke="black" /></svg>