<?xml version="1.0" encoding="utf-8" ?>
<svg baseProfile="tiny" height="311" version="1.2" viewBox="-3 -3 275 311" width="275" xmlns="http://www.w3.org/2000/svg" xmlns:ev="http://www.w3.org/2001/xml-events" xmlns:xlink="http://www.w3.org/1999/xlink"><defs /><path d="M34 157 L16 203 L9 236 L4 253 L2 261 L0 267 L0 269 L0 268 L0 263 L7 239 L26 189 L35 144 L45 102 L55 73 L59 56 L60 47 L62 42 L63 41 L65 37 L73 35 L81 35 L87 35 L94 41 L102 50 L115 70 L133 102 L143 133 L138 163 L98 199 L70 215 L63 219 L63 214 L67 205 L81 185 L99 143 L108 101 L110 66 L107 48 L104 41 L104 40 L104 39 L104 38 L104 42 L107 46 L107 53 L107 68 L95 99 L70 136 L55 161 L51 170 L51 181 L55 204 L60 229 L64 255 L68 283 L75 303 L84 310 L91 311 L95 311 L99 309 L99 289 L100 249 L104 187 L117 112 L129 53 L133 20 L133 5 L133 2 L133 1 L133 0 L135 0 L139 6 L148 26 L159 54 L175 93 L189 134 L195 174 L188 203 L172 231 L155 250 L137 270 L124 279 L123 279 L123 277 L129 261 L148 235 L177 197 L192 151 L189 97 L178 70 L174 61 L173 57 L173 52 L173 48 L173 47 L173 49 L175 61 L178 85 L178 105 L178 130 L178 173 L172 204 L156 220 L139 223 L134 223 L132 224 L132 227 L141 240 L148 263 L149 280 L152 292 L161 301 L174 306 L183 306 L192 303 L206 279 L217 234 L219 180 L219 123 L211 83 L207 57 L202 42 L198 35 L197 33 L197 35 L197 41 L200 52 L207 76 L223 124 L239 164 L259 193 L272 213 L275 224 L275 235 L270 248 L264 258 L255 265 L245 272 L240 273 L236 271 L223 237 L220 194 L232 145 L243 107 L247 87 L249 81 L250 79 L251 77 L252 74 L253 72 " fill="none" stroke="black" /></svg>