<?xml version="1.0" encoding="utf-8" ?>
<svg baseProfile="tiny" height="133" version="1.2" viewBox="-3 -3 494 133" width="494" xmlns="http://www.w3.org/2000/svg" xmlns:ev="http://www.w3.org/2001/xml-events" xmlns:xlink="http://www.w3.org/1999/xlink"><defs /><path d="M110 6 L110 2 L108 0 L98 0 L75 8 L46 22 L26 34 L19 43 L15 54 L8 71 L2 87 L0 101 L0 109 L21 113 L46 113 L54 113 L62 112 L70 109 L82 102 L107 85 L127 65 L134 42 L135 24 L134 16 L134 13 L134 10 L131 7 L126 6 L118 6 L110 13 L100 31 L88 54 L82 67 L82 82 L98 98 L126 109 L156 112 L197 108 L222 94 L244 74 L258 46 L266 24 L267 13 L267 8 L263 8 L250 8 L227 8 L202 21 L188 40 L186 57 L186 70 L190 82 L198 93 L211 103 L234 113 L249 114 L271 104 L302 87 L322 72 L326 61 L326 42 L322 26 L319 20 L318 18 L314 17 L303 18 L285 23 L278 26 L275 28 L270 37 L262 52 L258 66 L264 86 L286 103 L314 114 L336 114 L342 114 L346 103 L358 80 L363 67 L365 58 L366 48 L364 40 L360 36 L352 29 L347 22 L341 19 L333 18 L320 19 L314 25 L307 46 L302 71 L294 91 L289 107 L291 115 L315 120 L378 111 L414 100 L422 90 L426 80 L430 70 L433 60 L434 48 L434 44 L433 40 L428 34 L419 31 L411 29 L405 27 L402 27 L392 36 L379 48 L371 65 L366 97 L367 117 L383 128 L412 129 L445 121 L466 111 L478 100 L481 95 L482 86 L480 73 L478 67 L476 63 L474 58 L472 51 L470 47 L470 46 L470 47 L468 50 L451 63 L435 70 L430 77 L427 88 L426 104 L426 118 L436 130 L446 133 L458 133 L470 131 L478 124 L484 110 L487 85 L488 74 L490 67 L493 64 L494 62 L494 58 L494 56 " fill="none" stroke="black" /></svg>