<?xml version="1.0" encoding="utf-8" ?>
<svg baseProfile="tiny" height="258" version="1.2" viewBox="-3 -3 303 258" width="303" xmlns="http://www.w3.org/2000/svg" xmlns:ev="http://www.w3.org/2001/xml-events" xmlns:xlink="http://www.w3.org/1999/xlink"><defs /><path d="M16 77 L36 99 L56 115 L78 128 L100 141 L123 155 L148 170 L180 184 L207 187 L243 184 L276 168 L295 148 L303 118 L303 106 L302 97 L299 92 L296 88 L281 84 L266 84 L248 84 L227 85 L211 85 L203 88 L199 88 L196 90 L188 93 L181 96 L175 102 L166 113 L155 135 L147 156 L142 171 L138 173 L123 173 L97 166 L74 156 L43 140 L29 128 L19 114 L5 100 L0 93 L0 92 L7 92 L49 99 L115 101 L175 105 L227 112 L267 112 L271 112 L265 100 L227 82 L186 67 L155 60 L141 57 L129 60 L123 72 L123 101 L123 140 L119 172 L115 180 L119 153 L152 73 L180 10 L183 0 L179 0 L141 16 L113 32 L84 44 L66 56 L59 65 L57 78 L57 89 L67 97 L88 104 L111 116 L115 126 L103 132 L84 132 L80 129 L79 119 L103 85 L139 45 L163 16 L171 7 L175 8 L188 20 L199 33 L198 45 L189 62 L198 78 L231 96 L266 114 L280 127 L282 135 L282 141 L277 152 L255 158 L208 158 L161 154 L124 146 L112 140 L91 128 L62 114 L34 89 L15 56 L4 31 L3 18 L16 17 L66 20 L117 25 L132 28 L133 32 L133 43 L133 58 L120 89 L103 113 L99 120 L98 122 L98 129 L95 140 L91 156 L90 168 L91 185 L98 194 L103 200 L109 204 L122 208 L150 208 L200 199 L218 194 L221 192 L222 192 L221 198 L215 210 L199 228 L183 238 L171 244 L160 249 L143 256 L133 258 L125 255 L113 239 L101 218 L90 189 L79 160 L76 155 L75 154 L76 155 L78 156 L79 159 " fill="none" stroke="black" /></svg>