<?xml version="1.0" encoding="utf-8" ?>
<svg baseProfile="tiny" height="160" version="1.2" viewBox="-3 -3 567 160" width="567" xmlns="http://www.w3.org/2000/svg" xmlns:ev="http://www.w3.org/2001/xml-events" xmlns:xlink="http://www.w3.org/1999/xlink"><defs /><path d="M0 160 L18 128 L37 79 L51 31 L54 4 L55 0 L56 2 L60 27 L67 67 L76 108 L81 139 L83 146 L84 143 L84 117 L89 80 L94 56 L96 54 L113 72 L139 106 L166 131 L170 136 L173 132 L173 96 L166 42 L162 18 L162 16 L166 40 L189 94 L205 136 L208 142 L210 132 L210 103 L210 77 L211 71 L216 72 L251 94 L282 109 L292 113 L293 108 L290 82 L286 62 L286 59 L289 80 L302 120 L313 141 L314 143 L314 128 L314 92 L314 73 L314 69 L318 71 L334 92 L353 112 L358 116 L358 103 L358 71 L359 54 L362 55 L381 91 L398 121 L399 125 L398 112 L390 76 L386 52 L385 48 L390 56 L405 76 L414 83 L414 82 L415 75 L416 68 L418 68 L422 76 L426 86 L426 88 L426 87 L425 87 L400 88 L344 88 L286 90 L240 99 L220 110 L216 119 L214 129 L214 135 L214 136 L214 135 L217 113 L229 88 L236 76 L239 72 L240 68 L242 68 L248 72 L276 87 L326 107 L367 126 L378 131 L378 121 L378 88 L385 49 L388 34 L389 33 L397 45 L415 76 L427 97 L430 100 L431 95 L432 79 L433 68 L434 68 L444 84 L456 103 L461 112 L461 103 L455 69 L454 52 L454 51 L460 63 L480 96 L497 124 L499 129 L499 120 L495 96 L494 81 L494 79 L494 80 L494 85 L494 87 " fill="none" stroke="black" /><path d="M0 160 L18 128 L37 79 L51 31 L54 4 L55 0 L56 2 L60 27 L67 67 L76 108 L81 139 L83 146 L84 143 L84 117 L89 80 L94 56 L96 54 L113 72 L139 106 L166 131 L170 136 L173 132 L173 96 L166 42 L162 18 L162 16 L166 40 L189 94 L205 136 L208 142 L210 132 L210 103 L210 77 L211 71 L216 72 L251 94 L282 109 L292 113 L293 108 L290 82 L286 62 L286 59 L289 80 L302 120 L313 141 L314 143 L314 128 L314 92 L314 73 L314 69 L318 71 L334 92 L353 112 L358 116 L358 103 L358 71 L359 54 L362 55 L381 91 L398 121 L399 125 L398 112 L390 76 L386 52 L385 48 L390 56 L405 76 L414 83 L414 82 L415 75 L416 68 L418 68 L422 76 L426 86 L426 88 L426 87 L425 87 L400 88 L344 88 L286 90 L240 99 L220 110 L216 119 L214 129 L214 135 L214 136 L214 135 L217 113 L229 88 L236 76 L239 72 L240 68 L242 68 L248 72 L276 87 L326 107 L367 126 L378 131 L378 121 L378 88 L385 49 L388 34 L389 33 L397 45 L415 76 L427 97 L430 100 L431 95 L432 79 L433 68 L434 68 L444 84 L456 103 L461 112 L461 103 L455 69 L454 52 L454 51 L460 63 L480 96 L497 124 L499 129 L499 120 L495 96 L494 81 L494 79 L494 80 L494 85 L494 87 M505 81 L507 81 L513 81 L527 80 L533 79 L535 79 L535 76 L537 75 L538 71 L539 67 L540 65 L546 76 L562 106 L567 122 L567 123 L567 121 L567 116 L566 115 L566 112 L566 111 L566 110 " fill="none" stroke="black" /></svg>