<?xml version="1.0" encoding="utf-8" ?>
<svg baseProfile="tiny" height="149" version="1.2" viewBox="-3 -3 323 149" width="323" xmlns="http://www.w3.org/2000/svg" xmlns:ev="http://www.w3.org/2001/xml-events" xmlns:xlink="http://www.w3.org/1999/xlink"><defs /><path d="M39 69 L79 80 L127 85 L175 85 L223 84 L259 78 L259 77 L246 72 L215 64 L179 59 L155 54 L136 47 L122 47 L107 59 L83 80 L58 100 L46 111 L39 121 L32 129 L24 136 L19 140 L18 140 L18 132 L24 105 L49 77 L71 62 L89 57 L106 57 L128 62 L147 71 L150 75 L147 80 L137 86 L127 95 L120 115 L119 130 L131 141 L146 147 L148 149 L143 145 L95 125 L70 112 L65 104 L77 97 L120 93 L151 92 L163 97 L166 98 L167 99 L169 100 L171 101 L172 105 L165 109 L130 110 L79 100 L31 88 L9 74 L2 67 L0 67 L1 66 L19 60 L80 40 L121 30 L128 27 L128 26 L129 27 L130 29 L131 32 L131 34 L134 42 L139 55 L149 72 L176 89 L209 103 L216 109 L206 117 L182 121 L158 126 L155 128 L155 129 L159 132 L160 123 L146 99 L105 63 L64 28 L39 4 L36 0 L43 1 L66 9 L95 18 L111 23 L111 24 L112 24 L156 24 L267 27 L319 34 L323 35 L318 33 L311 28 L299 23 L279 21 L247 20 L207 20 L169 21 L152 26 L147 36 L147 44 L155 54 L163 60 L167 61 L171 60 L175 57 L182 54 L203 53 L227 53 L231 53 L231 49 L231 41 L229 30 L223 22 L221 21 L216 23 L206 33 L187 49 L183 54 L183 57 L195 62 L217 73 L236 86 L248 99 L252 103 L253 103 L254 103 L253 103 " fill="none" stroke="black" /><path d="M39 69 L79 80 L127 85 L175 85 L223 84 L259 78 L259 77 L246 72 L215 64 L179 59 L155 54 L136 47 L122 47 L107 59 L83 80 L58 100 L46 111 L39 121 L32 129 L24 136 L19 140 L18 140 L18 132 L24 105 L49 77 L71 62 L89 57 L106 57 L128 62 L147 71 L150 75 L147 80 L137 86 L127 95 L120 115 L119 130 L131 141 L146 147 L148 149 L143 145 L95 125 L70 112 L65 104 L77 97 L120 93 L151 92 L163 97 L166 98 L167 99 L169 100 L171 101 L172 105 L165 109 L130 110 L79 100 L31 88 L9 74 L2 67 L0 67 L1 66 L19 60 L80 40 L121 30 L128 27 L128 26 L129 27 L130 29 L131 32 L131 34 L134 42 L139 55 L149 72 L176 89 L209 103 L216 109 L206 117 L182 121 L158 126 L155 128 L155 129 L159 132 L160 123 L146 99 L105 63 L64 28 L39 4 L36 0 L43 1 L66 9 L95 18 L111 23 L111 24 L112 24 L156 24 L267 27 L319 34 L323 35 L318 33 L311 28 L299 23 L279 21 L247 20 L207 20 L169 21 L152 26 L147 36 L147 44 L155 54 L163 60 L167 61 L171 60 L175 57 L182 54 L203 53 L227 53 L231 53 L231 49 L231 41 L229 30 L223 22 L221 21 L216 23 L206 33 L187 49 L183 54 L183 57 L195 62 L217 73 L236 86 L248 99 L252 103 L253 103 L254 103 L253 103 M265 53 L266 54 L270 61 L275 74 L279 86 L277 97 L261 103 L228 109 L210 113 L207 113 L206 114 L192 117 L175 123 L172 127 L174 132 L175 136 " fill="none" stroke="black" /></svg>