<?xml version="1.0" encoding="utf-8" ?>
<svg baseProfile="tiny" height="121" version="1.2" viewBox="-3 -3 304 121" width="304" xmlns="http://www.w3.org/2000/svg" xmlns:ev="http://www.w3.org/2001/xml-events" xmlns:xlink="http://www.w3.org/1999/xlink"><defs /><path d="M254 43 L259 44 L241 38 L182 21 L179 19 L182 19 L198 24 L226 32 L238 34 L237 25 L218 9 L201 1 L200 0 L222 4 L250 24 L270 55 L272 78 L248 93 L209 88 L193 75 L190 67 L213 56 L276 32 L304 17 L303 9 L273 3 L246 3 L245 5 L258 19 L272 36 L254 68 L90 121 L18 118 L33 100 L101 76 L201 57 L246 51 L254 48 L255 47 L239 44 L202 42 L193 42 L194 44 L198 44 L194 36 L157 26 L114 26 L110 28 L139 46 L194 76 L224 95 L227 100 L216 106 L151 112 L122 108 L116 106 L115 105 L118 105 L142 105 L146 104 L58 85 L3 61 L0 52 L15 48 L71 47 L126 56 L151 66 L167 77 L187 88 L210 98 L214 101 L206 91 L183 69 L158 56 L142 50 L142 49 L143 52 L166 64 L182 76 L172 88 L76 96 L36 94 L32 93 L35 93 L61 93 L111 84 L156 68 L182 54 L188 44 L189 32 L186 21 L178 15 L175 12 L171 12 L146 21 L132 24 L135 28 L158 36 L200 48 L233 54 L242 56 L240 55 L233 54 L229 54 L229 62 L234 72 L273 81 L298 84 L270 66 L204 36 L174 19 L165 13 L161 12 L152 22 L123 52 L102 75 L102 77 L102 75 L118 58 L154 45 L162 51 L122 77 L106 84 L105 84 L108 85 L140 85 L198 88 L227 96 L229 97 L226 96 L199 84 L166 71 L141 64 L137 64 L137 63 L147 60 L176 59 L193 59 L203 61 L208 64 L214 68 L220 73 L226 81 L238 89 L246 96 L250 100 L252 100 L253 100 L251 100 L246 100 " fill="none" stroke="black" /></svg>