<?xml version="1.0" encoding="utf-8" ?>
<svg baseProfile="tiny" height="450" version="1.2" viewBox="-3 -3 518 450" width="518" xmlns="http://www.w3.org/2000/svg" xmlns:ev="http://www.w3.org/2001/xml-events" xmlns:xlink="http://www.w3.org/1999/xlink"><defs /><path d="M304 109 L307 116 L314 122 L317 126 L317 132 L314 140 L304 151 L274 166 L173 178 L45 171 L3 157 L0 151 L5 144 L35 130 L82 118 L134 108 L159 106 L166 106 L175 103 L192 99 L200 98 L206 99 L208 103 L209 106 L210 108 L217 122 L236 155 L247 198 L226 229 L179 246 L146 258 L126 266 L121 268 L120 262 L120 224 L122 170 L124 130 L125 106 L126 104 L128 110 L138 131 L142 137 L142 138 L167 142 L229 154 L246 161 L248 162 L242 155 L226 139 L218 132 L216 131 L213 131 L204 131 L198 132 L198 133 " fill="none" stroke="black" /><path d="M304 109 L307 116 L314 122 L317 126 L317 132 L314 140 L304 151 L274 166 L173 178 L45 171 L3 157 L0 151 L5 144 L35 130 L82 118 L134 108 L159 106 L166 106 L175 103 L192 99 L200 98 L206 99 L208 103 L209 106 L210 108 L217 122 L236 155 L247 198 L226 229 L179 246 L146 258 L126 266 L121 268 L120 262 L120 224 L122 170 L124 130 L125 106 L126 104 L128 110 L138 131 L142 137 L142 138 L167 142 L229 154 L246 161 L248 162 L242 155 L226 139 L218 132 L216 131 L213 131 L204 131 L198 132 L198 133 M161 78 L170 90 L189 103 L200 115 L202 118 L202 117 L201 115 L201 114 L201 113 L201 112 L200 110 L200 106 L200 92 L202 67 L210 35 L226 9 L233 2 L241 0 L265 0 L309 0 L356 3 L407 14 L439 22 L470 27 L490 32 L499 36 L506 40 L513 49 L517 59 L518 72 L518 87 L514 105 L511 119 L506 138 L494 161 L471 187 L450 213 L434 234 L418 255 L386 290 L366 313 L346 335 L322 357 L290 378 L253 399 L205 426 L171 442 L142 450 L126 450 L112 449 L90 444 L67 437 L54 429 L48 418 L42 400 L38 376 L32 351 L23 311 L20 276 L20 245 L21 218 L23 203 L26 195 L29 189 L34 183 L48 174 L67 160 L86 147 L101 137 L105 134 L109 128 L112 124 L120 118 L131 114 L139 111 L146 111 L158 113 L168 118 L175 126 L180 134 L187 143 L196 152 L209 171 L223 197 L231 222 L237 252 L244 287 L245 299 L243 310 L235 323 L229 333 L221 345 L194 370 L184 378 L182 380 " fill="none" stroke="black" /></svg>