<?xml version="1.0" encoding="utf-8" ?>
<svg baseProfile="tiny" height="266" version="1.2" viewBox="-3 -3 432 266" width="432" xmlns="http://www.w3.org/2000/svg" xmlns:ev="http://www.w3.org/2001/xml-events" xmlns:xlink="http://www.w3.org/1999/xlink"><defs /><path d="M333 87 L334 88 L325 82 L310 69 L292 59 L290 56 L314 55 L364 55 L400 60 L410 64 L412 64 L384 72 L312 80 L280 61 L286 45 L307 36 L318 32 L321 24 L324 14 L326 10 L348 11 L381 23 L400 34 L402 36 L367 24 L331 4 L328 0 L338 9 L342 20 L332 28 L329 31 L348 37 L377 48 L391 55 L393 59 L384 67 L365 75 L361 80 L371 92 L388 108 L392 114 L384 114 L339 112 L292 114 L280 130 L278 143 L282 144 L307 129 L324 110 L320 87 L293 64 L268 45 L263 40 L282 38 L320 43 L338 67 L343 92 L343 101 L348 116 L366 140 L372 168 L350 196 L309 200 L286 192 L279 176 L289 155 L321 131 L356 112 L360 108 L360 101 L360 84 L356 68 L356 67 L380 82 L395 98 L396 104 L395 108 L376 122 L330 148 L306 178 L310 192 L320 199 L322 199 L320 192 L279 175 L208 163 L199 159 L252 158 L348 163 L420 175 L432 176 L432 174 L432 164 L412 147 L373 126 L331 112 L300 108 L297 108 L299 112 L340 128 L396 137 L381 136 L226 112 L123 90 L89 84 L85 84 L86 84 L92 91 L119 100 L139 101 L142 101 L150 97 L186 83 L235 72 L274 68 L285 68 L291 64 L291 56 L290 48 L290 47 L294 56 L311 95 L296 160 L154 244 L28 266 L0 255 L8 220 L49 184 L80 159 L96 152 L107 150 L132 150 L164 150 L171 149 L180 146 L196 144 L232 135 L276 125 L292 119 L288 116 L271 109 L254 103 L247 100 L246 100 L246 103 L246 119 L227 133 L208 136 L206 136 " fill="none" stroke="black" /></svg>