<?xml version="1.0" encoding="utf-8" ?>
<svg baseProfile="tiny" height="182" version="1.2" viewBox="-3 -3 290 182" width="290" xmlns="http://www.w3.org/2000/svg" xmlns:ev="http://www.w3.org/2001/xml-events" xmlns:xlink="http://www.w3.org/1999/xlink"><defs /><path d="M204 82 L212 94 L216 100 L217 103 L218 106 L218 110 L219 116 L220 118 L220 120 L220 121 L223 124 L230 129 L239 136 L246 142 L250 145 L253 147 L255 149 L256 149 L256 150 L257 150 L258 150 L259 150 L260 149 L265 140 L267 138 L268 136 L268 135 L270 132 L270 126 L270 113 L268 101 L264 90 L261 81 L260 74 L258 74 L252 79 L235 95 L224 114 L207 145 L197 161 L192 167 L181 168 L171 163 L162 142 L169 97 L187 63 L207 44 L225 41 L244 47 L257 64 L265 90 L262 114 L236 138 L217 147 L203 150 L187 147 L176 139 L174 135 L174 130 L174 116 L174 97 L174 83 L174 79 L184 85 L209 106 L234 131 L247 148 L249 154 L250 154 L252 154 L239 156 L188 168 L164 178 L161 182 L161 176 L162 148 L173 116 L176 98 L174 83 L156 71 L130 58 L116 53 L111 51 L110 51 L106 53 L106 59 L114 70 L136 90 L156 114 L175 142 L180 150 L180 152 L181 151 L183 147 L183 138 L183 122 L183 112 L180 103 L176 94 L177 82 L190 73 L197 72 L200 72 L201 72 L203 70 L212 69 L237 74 L276 97 L290 113 L288 129 L261 139 L235 141 L211 138 L184 138 L172 136 L167 136 L164 136 L161 134 L152 126 L124 102 L74 57 L20 11 L1 0 L0 1 L10 14 L36 36 L64 54 L95 66 L138 76 L172 83 L197 88 L210 90 L216 90 L220 90 L224 91 L226 95 L224 106 L210 128 L202 138 L194 145 L180 154 L164 158 L154 158 L138 150 L128 140 L127 135 L127 134 L127 133 L127 131 L128 130 " fill="none" stroke="black" /></svg>