<?xml version="1.0" encoding="utf-8" ?>
<svg baseProfile="tiny" height="335" version="1.2" viewBox="-3 -3 658 335" width="658" xmlns="http://www.w3.org/2000/svg" xmlns:ev="http://www.w3.org/2001/xml-events" xmlns:xlink="http://www.w3.org/1999/xlink"><defs /><path d="M53 64 L47 53 L41 46 L38 43 L22 39 L13 39 L8 39 L7 39 L5 39 L3 42 L2 45 L0 49 L0 54 L0 60 L0 62 L0 67 L2 73 L3 78 L7 83 L9 86 L14 92 L25 103 L40 109 L50 113 L68 113 L100 113 L132 111 L175 106 L219 92 L263 80 L300 72 L333 64 L374 56 L447 41 L482 34 L484 34 " fill="none" stroke="black" /><path d="M53 64 L47 53 L41 46 L38 43 L22 39 L13 39 L8 39 L7 39 L5 39 L3 42 L2 45 L0 49 L0 54 L0 60 L0 62 L0 67 L2 73 L3 78 L7 83 L9 86 L14 92 L25 103 L40 109 L50 113 L68 113 L100 113 L132 111 L175 106 L219 92 L263 80 L300 72 L333 64 L374 56 L447 41 L482 34 L484 34 M177 162 L171 160 L154 153 L137 146 L116 143 L79 143 L48 143 L41 145 L42 149 L45 154 L47 161 L52 167 L56 171 L65 178 L70 181 L71 183 L78 187 L84 192 L92 197 L103 203 L125 211 L134 215 L144 215 L174 219 L223 221 L261 221 L303 218 L343 206 L396 190 L465 163 L515 145 L530 139 " fill="none" stroke="black" /><path d="M53 64 L47 53 L41 46 L38 43 L22 39 L13 39 L8 39 L7 39 L5 39 L3 42 L2 45 L0 49 L0 54 L0 60 L0 62 L0 67 L2 73 L3 78 L7 83 L9 86 L14 92 L25 103 L40 109 L50 113 L68 113 L100 113 L132 111 L175 106 L219 92 L263 80 L300 72 L333 64 L374 56 L447 41 L482 34 L484 34 M177 162 L171 160 L154 153 L137 146 L116 143 L79 143 L48 143 L41 145 L42 149 L45 154 L47 161 L52 167 L56 171 L65 178 L70 181 L71 183 L78 187 L84 192 L92 197 L103 203 L125 211 L134 215 L144 215 L174 219 L223 221 L261 221 L303 218 L343 206 L396 190 L465 163 L515 145 L530 139 M233 297 L231 297 L215 288 L195 277 L179 270 L161 270 L155 270 L149 271 L149 273 L149 277 L149 280 L149 285 L152 292 L157 298 L165 307 L173 312 L183 315 L207 325 L230 332 L245 335 L277 335 L320 335 L394 322 L509 306 L625 291 L658 288 L658 282 " fill="none" stroke="black" /><path d="M53 64 L47 53 L41 46 L38 43 L22 39 L13 39 L8 39 L7 39 L5 39 L3 42 L2 45 L0 49 L0 54 L0 60 L0 62 L0 67 L2 73 L3 78 L7 83 L9 86 L14 92 L25 103 L40 109 L50 113 L68 113 L100 113 L132 111 L175 106 L219 92 L263 80 L300 72 L333 64 L374 56 L447 41 L482 34 L484 34 M177 162 L171 160 L154 153 L137 146 L116 143 L79 143 L48 143 L41 145 L42 149 L45 154 L47 161 L52 167 L56 171 L65 178 L70 181 L71 183 L78 187 L84 192 L92 197 L103 203 L125 211 L134 215 L144 215 L174 219 L223 221 L261 221 L303 218 L343 206 L396 190 L465 163 L515 145 L530 139 M233 297 L231 297 L215 288 L195 277 L179 270 L161 270 L155 270 L149 271 L149 273 L149 277 L149 280 L149 285 L152 292 L157 298 L165 307 L173 312 L183 315 L207 325 L230 332 L245 335 L277 335 L320 335 L394 322 L509 306 L625 291 L658 288 L658 282 M272 4 L270 1 L261 1 L249 1 L246 1 L242 1 L239 7 L239 12 L239 17 L242 32 L245 35 L249 41 L254 45 L260 46 L266 48 L291 48 L322 45 L357 35 L412 30 L495 14 L555 0 " fill="none" stroke="black" /><path d="M53 64 L47 53 L41 46 L38 43 L22 39 L13 39 L8 39 L7 39 L5 39 L3 42 L2 45 L0 49 L0 54 L0 60 L0 62 L0 67 L2 73 L3 78 L7 83 L9 86 L14 92 L25 103 L40 109 L50 113 L68 113 L100 113 L132 111 L175 106 L219 92 L263 80 L300 72 L333 64 L374 56 L447 41 L482 34 L484 34 M177 162 L171 160 L154 153 L137 146 L116 143 L79 143 L48 143 L41 145 L42 149 L45 154 L47 161 L52 167 L56 171 L65 178 L70 181 L71 183 L78 187 L84 192 L92 197 L103 203 L125 211 L134 215 L144 215 L174 219 L223 221 L261 221 L303 218 L343 206 L396 190 L465 163 L515 145 L530 139 M233 297 L231 297 L215 288 L195 277 L179 270 L161 270 L155 270 L149 271 L149 273 L149 277 L149 280 L149 285 L152 292 L157 298 L165 307 L173 312 L183 315 L207 325 L230 332 L245 335 L277 335 L320 335 L394 322 L509 306 L625 291 L658 288 L658 282 M272 4 L270 1 L261 1 L249 1 L246 1 L242 1 L239 7 L239 12 L239 17 L242 32 L245 35 L249 41 L254 45 L260 46 L266 48 L291 48 L322 45 L357 35 L412 30 L495 14 L555 0 M400 121 L394 120 L372 115 L349 113 L347 113 L345 114 L344 119 L344 122 L344 124 L345 131 L349 135 L354 139 L363 142 L367 143 L368 143 L390 144 L426 143 L457 137 L498 129 L545 121 L580 109 L580 108 " fill="none" stroke="black" /></svg>