<?xml version="1.0" encoding="utf-8" ?>
<svg baseProfile="tiny" height="664" version="1.2" viewBox="-3 -3 1068 664" width="1068" xmlns="http://www.w3.org/2000/svg" xmlns:ev="http://www.w3.org/2001/xml-events" xmlns:xlink="http://www.w3.org/1999/xlink"><defs /><path d="M0 140 L0 139 L5 132 L13 108 L29 73 L41 42 L47 22 L51 11 L55 1 L56 0 L56 3 L56 47 L56 105 L56 209 L59 332 L73 490 L97 625 L108 664 L108 662 L108 659 L111 659 L112 658 L118 658 L132 658 L148 657 L170 653 L195 652 L241 643 L276 639 L305 636 L329 632 L358 626 L384 624 L396 624 L410 624 L420 622 L428 622 L435 621 L444 619 L459 618 L475 616 L484 615 L504 611 L530 608 L551 608 L559 608 L582 608 L608 605 L620 605 L624 605 L635 605 L648 605 L659 604 L676 603 L698 600 L720 600 L739 599 L756 597 L762 595 L766 595 L779 595 L804 593 L834 591 L846 590 L851 589 L854 589 L870 587 L890 585 L903 585 L918 581 L950 577 L982 577 L987 577 L989 577 L992 577 L1006 575 L1023 575 L1038 575 L1044 574 L1047 574 L1050 574 L1057 574 L1059 574 L1060 574 L1067 576 L1068 576 " fill="none" stroke="black" /></svg>