<?xml version="1.0" encoding="utf-8" ?>
<svg baseProfile="tiny" height="113" version="1.2" viewBox="-3 -3 574 113" width="574" xmlns="http://www.w3.org/2000/svg" xmlns:ev="http://www.w3.org/2001/xml-events" xmlns:xlink="http://www.w3.org/1999/xlink"><defs /><path d="M0 108 L2 105 L3 98 L5 84 L10 62 L14 47 L20 28 L23 4 L23 0 L24 0 L25 0 L26 3 L28 9 L31 12 L31 14 L31 15 L34 21 L35 23 L37 25 L39 28 L40 30 L41 31 L44 34 L48 37 L49 38 L51 39 L52 40 L53 40 L55 41 L57 43 L59 43 L62 45 L64 47 L69 51 L75 53 L76 53 L78 54 L81 57 L83 58 L85 59 L87 59 L89 60 L90 62 L93 62 L97 62 L100 64 L103 65 L107 67 L113 70 L119 70 L122 72 L127 73 L133 75 L139 75 L141 76 L144 76 L146 76 L148 77 L150 77 L164 78 L166 80 L171 81 L176 82 L182 83 L188 85 L191 86 L196 87 L200 87 L201 87 L203 89 L204 90 L211 90 L220 91 L224 92 L225 92 L227 92 L229 94 L233 94 L237 96 L240 97 L242 97 L244 98 L247 99 L254 99 L262 101 L267 101 L268 101 L270 101 L275 103 L278 104 L283 105 L285 105 L291 106 L299 106 L308 108 L314 108 L317 109 L341 109 L358 111 L367 111 L370 111 L372 111 L374 111 L377 111 L383 111 L388 111 L395 111 L405 111 L412 112 L421 113 L429 113 L432 113 L443 113 L452 113 L464 113 L469 113 L475 113 L482 113 L486 113 L492 113 L497 113 L503 113 L513 113 L519 113 L529 113 L536 113 L543 113 L549 113 L553 113 L560 113 L567 113 L572 113 L574 113 L574 111 " fill="none" stroke="black" /></svg>