<?xml version="1.0" encoding="utf-8" ?>
<svg baseProfile="tiny" height="418" version="1.2" viewBox="-3 -3 1125 418" width="1125" xmlns="http://www.w3.org/2000/svg" xmlns:ev="http://www.w3.org/2001/xml-events" xmlns:xlink="http://www.w3.org/1999/xlink"><defs /><path d="M0 1 L0 0 " fill="none" stroke="black" /><path d="M0 1 L0 0 M0 256 L2 256 L19 256 L40 256 L53 256 L65 256 L72 256 L91 256 L116 254 L139 254 L166 252 L197 250 L209 249 L224 248 L238 245 L244 245 L247 245 L271 244 L295 241 L303 241 L317 239 L344 233 L369 229 L374 228 L380 226 L387 226 L395 226 L399 226 L410 226 L423 226 L438 226 L443 226 L454 226 L467 226 L483 226 L498 226 L507 226 L511 226 L520 226 L530 225 L548 223 L571 221 L589 221 L603 221 L622 221 L640 220 L646 220 L650 220 L659 220 L678 220 L704 220 L713 220 L724 220 L731 220 L743 220 L752 220 L758 220 L762 220 L765 220 L772 220 L779 220 L781 220 L786 221 L787 221 L788 221 L802 222 L808 223 L818 224 L825 225 L834 226 L841 228 L849 229 L858 229 L882 230 L902 233 L907 233 L909 235 L912 236 L916 237 L929 238 L938 238 L949 240 L963 240 L985 240 L1011 240 L1035 240 L1053 240 L1071 240 L1084 240 L1089 240 L1098 240 L1114 240 L1124 240 L1125 240 " fill="none" stroke="black" /><path d="M0 1 L0 0 M0 256 L2 256 L19 256 L40 256 L53 256 L65 256 L72 256 L91 256 L116 254 L139 254 L166 252 L197 250 L209 249 L224 248 L238 245 L244 245 L247 245 L271 244 L295 241 L303 241 L317 239 L344 233 L369 229 L374 228 L380 226 L387 226 L395 226 L399 226 L410 226 L423 226 L438 226 L443 226 L454 226 L467 226 L483 226 L498 226 L507 226 L511 226 L520 226 L530 225 L548 223 L571 221 L589 221 L603 221 L622 221 L640 220 L646 220 L650 220 L659 220 L678 220 L704 220 L713 220 L724 220 L731 220 L743 220 L752 220 L758 220 L762 220 L765 220 L772 220 L779 220 L781 220 L786 221 L787 221 L788 221 L802 222 L808 223 L818 224 L825 225 L834 226 L841 228 L849 229 L858 229 L882 230 L902 233 L907 233 L909 235 L912 236 L916 237 L929 238 L938 238 L949 240 L963 240 L985 240 L1011 240 L1035 240 L1053 240 L1071 240 L1084 240 L1089 240 L1098 240 L1114 240 L1124 240 L1125 240 M58 418 L67 418 L101 418 L143 417 L185 415 L245 415 L274 415 L305 415 L336 413 L349 411 L363 410 L393 409 L418 405 L452 400 L487 395 L512 392 L539 390 L582 388 L609 386 L642 385 L675 384 L702 379 L734 375 L777 371 L810 370 L846 370 L884 370 L906 370 L915 370 L921 373 L924 373 L929 373 L934 373 L946 374 L954 377 L955 378 L958 378 L978 379 L1013 379 L1025 379 L1029 379 L1039 379 " fill="none" stroke="black" /></svg>