<?xml version="1.0" encoding="utf-8" ?>
<svg baseProfile="tiny" height="505" version="1.2" viewBox="-3 -3 1224 505" width="1224" xmlns="http://www.w3.org/2000/svg" xmlns:ev="http://www.w3.org/2001/xml-events" xmlns:xlink="http://www.w3.org/1999/xlink"><defs /><path d="M0 2 L0 0 " fill="none" stroke="black" /><path d="M0 2 L0 0 M114 341 L118 343 L124 347 L131 351 L144 357 L151 359 L162 359 L180 358 L184 357 L220 339 L248 317 L258 308 L260 306 L272 302 L301 299 L319 299 L326 299 L339 301 L346 304 L351 307 L362 312 L371 317 L382 322 L399 326 L406 327 L418 329 L449 332 L481 332 L493 332 L497 332 L510 323 L529 312 L551 303 L573 292 L591 284 L596 281 L601 280 L615 279 L626 278 L636 278 L643 278 L653 278 L666 279 L680 283 L686 285 L693 290 L699 293 L700 295 L715 302 L719 304 L726 305 L734 307 L748 307 L775 307 L801 303 L810 296 L817 289 L826 281 L845 270 L858 264 L879 260 L907 256 L913 256 L919 256 L923 256 L938 256 L952 261 L961 266 L964 269 L970 272 L975 276 L980 280 L985 283 L1000 288 L1012 289 L1021 290 L1026 290 L1038 290 L1051 290 L1055 288 L1064 283 L1078 272 L1091 266 L1101 263 L1127 254 L1168 249 L1200 249 L1215 251 L1223 254 L1224 254 " fill="none" stroke="black" /><path d="M0 2 L0 0 M114 341 L118 343 L124 347 L131 351 L144 357 L151 359 L162 359 L180 358 L184 357 L220 339 L248 317 L258 308 L260 306 L272 302 L301 299 L319 299 L326 299 L339 301 L346 304 L351 307 L362 312 L371 317 L382 322 L399 326 L406 327 L418 329 L449 332 L481 332 L493 332 L497 332 L510 323 L529 312 L551 303 L573 292 L591 284 L596 281 L601 280 L615 279 L626 278 L636 278 L643 278 L653 278 L666 279 L680 283 L686 285 L693 290 L699 293 L700 295 L715 302 L719 304 L726 305 L734 307 L748 307 L775 307 L801 303 L810 296 L817 289 L826 281 L845 270 L858 264 L879 260 L907 256 L913 256 L919 256 L923 256 L938 256 L952 261 L961 266 L964 269 L970 272 L975 276 L980 280 L985 283 L1000 288 L1012 289 L1021 290 L1026 290 L1038 290 L1051 290 L1055 288 L1064 283 L1078 272 L1091 266 L1101 263 L1127 254 L1168 249 L1200 249 L1215 251 L1223 254 L1224 254 M107 455 L109 458 L121 469 L145 489 L169 500 L188 505 L211 505 L228 505 L242 502 L271 486 L313 461 L343 447 L353 445 L384 441 L404 441 L416 441 L423 442 L426 444 L434 448 L445 455 L460 463 L470 465 L481 467 L496 468 L527 474 L553 474 L565 474 L574 474 L593 467 L604 463 L612 459 L624 450 L634 443 L653 434 L684 423 L716 419 L728 417 L729 417 L732 417 L733 417 L737 417 L742 421 L761 428 L780 437 L798 446 L808 449 L811 450 L818 450 L835 450 L846 450 L853 450 L864 444 L872 439 L877 434 L883 429 L887 425 " fill="none" stroke="black" /></svg>