<?xml version="1.0" encoding="utf-8" ?>
<svg baseProfile="tiny" height="418" version="1.2" viewBox="-3 -3 537 418" width="537" xmlns="http://www.w3.org/2000/svg" xmlns:ev="http://www.w3.org/2001/xml-events" xmlns:xlink="http://www.w3.org/1999/xlink"><defs /><path d="M72 278 L87 298 L114 322 L142 345 L179 361 L217 371 L273 372 L315 372 L353 368 L390 351 L415 327 L433 300 L456 261 L473 230 L485 203 L493 185 L495 164 L495 143 L495 131 L495 117 L492 110 L482 97 L462 81 L444 69 L424 56 L403 46 L386 34 L379 31 L363 31 L326 31 L290 31 L259 42 L249 44 L236 50 L209 60 L181 70 L160 73 L153 73 L146 73 L141 76 L137 78 L132 86 L127 96 L126 103 L122 130 L122 160 L122 186 L124 212 L145 243 L157 255 L178 272 L210 286 L247 287 L290 279 L349 252 L353 248 L361 241 L384 223 L389 216 L389 196 L389 162 L389 124 L371 93 L331 72 L295 69 L247 70 L199 90 L167 113 L160 149 L167 187 L183 205 L206 219 L244 225 L302 219 L344 203 L344 191 L338 174 L321 147 L307 137 L297 137 L278 137 L253 143 L227 174 L223 210 L226 231 L252 236 L285 224 L296 187 L292 161 L285 150 L275 148 L257 162 L249 200 L250 225 L268 238 L305 226 L312 187 L308 149 L287 132 L267 131 L251 167 L250 207 L275 231 L317 228 L350 181 L346 124 L311 96 L246 118 L189 216 L206 284 L259 301 L299 275 L303 185 L206 80 L115 75 L55 153 L91 234 L190 292 L311 290 L360 188 L327 79 L236 25 L162 42 L113 156 L179 292 L301 349 L416 322 L478 201 L439 88 L335 39 L270 94 L231 245 L309 380 L445 418 L537 336 L528 178 L419 93 L164 60 L23 146 L0 274 L96 377 L341 377 L465 254 L439 118 L302 23 L189 0 L135 51 L135 147 " fill="none" stroke="black" /></svg>