<?xml version="1.0" encoding="utf-8" ?>
<svg baseProfile="tiny" height="473" version="1.2" viewBox="-3 -3 711 473" width="711" xmlns="http://www.w3.org/2000/svg" xmlns:ev="http://www.w3.org/2001/xml-events" xmlns:xlink="http://www.w3.org/1999/xlink"><defs /><path d="M0 378 L8 410 L10 417 L10 418 L10 389 L10 341 L10 275 L10 216 L10 194 L12 222 L13 269 L13 344 L15 387 L15 384 L15 333 L16 256 L26 209 L27 206 L27 215 L34 322 L38 367 L39 365 L39 285 L39 158 L39 116 L48 138 L66 249 L76 344 L79 347 L79 335 L79 200 L79 16 L79 0 L86 30 L126 189 L141 396 L141 415 L141 395 L141 248 L141 167 L141 175 L141 272 L145 415 L151 447 L156 407 L159 228 L159 123 L161 122 L163 170 L168 340 L168 376 L168 374 L168 255 L168 201 L168 216 L168 332 L171 399 L171 395 L173 289 L179 215 L179 239 L183 345 L189 379 L204 343 L207 209 L207 170 L208 181 L213 289 L219 334 L245 286 L261 186 L253 107 L198 125 L126 250 L149 369 L320 385 L403 267 L334 169 L216 187 L140 349 L187 457 L315 411 L353 271 L313 213 L256 286 L269 433 L371 473 L424 317 L330 212 L273 229 L291 366 L419 449 L488 392 L467 283 L385 250 L361 343 L435 419 L503 404 L513 337 L479 297 L475 342 L489 379 L515 347 L523 284 L524 276 L545 304 L578 324 L596 293 L602 241 L588 242 L585 304 L601 317 L603 304 L603 298 L623 326 L663 352 L710 355 L711 355 L706 355 L677 337 L555 308 L485 294 L491 275 L537 216 L539 215 L539 236 L555 369 L570 423 L572 420 L571 355 L547 246 L553 287 L576 368 L580 342 L580 222 L580 178 L590 192 L610 281 L621 309 L624 273 L624 222 L624 248 L630 274 L634 280 L637 279 L640 221 L640 208 L646 224 L676 317 L689 353 " fill="none" stroke="black" /></svg>