<?xml version="1.0" encoding="utf-8" ?>
<svg baseProfile="tiny" height="201" version="1.2" viewBox="-3 -3 589 201" width="589" xmlns="http://www.w3.org/2000/svg" xmlns:ev="http://www.w3.org/2001/xml-events" xmlns:xlink="http://www.w3.org/1999/xlink"><defs /><path d="M0 96 L0 83 L0 67 L0 60 L0 54 L2 46 L10 36 L24 26 L27 26 L29 26 L38 32 L42 34 L45 40 L47 45 L49 48 L53 57 L54 62 L57 67 L58 79 L60 87 L62 96 L64 103 L64 107 L65 112 L65 125 L65 133 L67 140 L67 149 L68 153 L69 157 L73 162 L74 165 L77 169 L77 172 L82 177 L87 182 L88 183 L94 189 L101 193 L111 198 L114 200 L123 201 L130 201 L135 201 L145 201 L151 199 L153 198 L161 189 L166 184 L173 175 L176 170 L181 162 L184 152 L185 148 L188 142 L188 137 L189 133 L190 128 L191 123 L191 116 L193 108 L194 99 L197 91 L200 78 L202 66 L202 59 L204 53 L206 48 L207 44 L210 41 L222 34 L229 30 L236 27 L239 27 L253 27 L261 25 L263 25 L274 25 L288 28 L293 34 L302 43 L314 56 L323 69 L326 74 L331 85 L336 90 L339 94 L343 95 L345 97 L352 104 L353 106 L357 109 L358 111 L360 113 L363 119 L366 127 L368 130 L372 137 L373 140 L376 142 L376 144 L377 147 L382 154 L386 159 L395 163 L401 167 L414 173 L425 180 L440 184 L444 186 L446 186 L449 186 L456 186 L463 186 L470 184 L481 178 L484 174 L488 168 L490 162 L492 156 L493 147 L493 134 L497 109 L498 95 L499 77 L501 61 L503 51 L503 41 L505 29 L507 18 L509 15 L509 13 L511 13 L519 3 L523 0 L525 0 L532 0 L541 0 L545 1 L547 1 L551 3 L556 4 L562 8 L568 12 L573 14 L577 16 L583 21 L586 24 L589 26 " fill="none" stroke="black" /></svg>