<?xml version="1.0" encoding="utf-8" ?>
<svg baseProfile="tiny" height="629" version="1.2" viewBox="-3 -3 1047 629" width="1047" xmlns="http://www.w3.org/2000/svg" xmlns:ev="http://www.w3.org/2001/xml-events" xmlns:xlink="http://www.w3.org/1999/xlink"><defs /><path d="M103 41 L102 41 L112 41 L249 19 L372 1 L383 0 L328 24 L117 125 L0 187 L12 192 L154 146 L352 68 L433 41 L405 45 L278 110 L146 182 L157 180 L326 112 L520 37 L509 40 L366 116 L127 233 L86 254 L173 223 L378 130 L410 118 L373 141 L222 226 L192 248 L285 203 L525 97 L593 70 L544 105 L256 260 L81 345 L106 335 L446 169 L736 54 L749 53 L484 200 L288 298 L271 310 L481 221 L764 95 L815 76 L732 125 L413 306 L278 387 L317 376 L558 261 L760 164 L738 168 L536 276 L308 390 L298 397 L510 299 L814 165 L789 173 L564 284 L260 443 L216 464 L388 396 L740 248 L835 212 L728 269 L459 409 L400 441 L486 404 L758 287 L850 258 L775 293 L408 481 L337 515 L378 513 L614 420 L714 385 L672 400 L463 503 L349 564 L390 559 L687 437 L900 353 L922 342 L792 411 L597 507 L613 508 L842 405 L1047 313 L1001 330 L646 506 L479 590 L501 587 L743 485 L907 418 L835 443 L619 548 L555 576 L703 537 L975 448 L974 449 L864 516 L765 576 L756 586 L858 551 L928 517 L903 521 L759 589 L696 620 L703 629 L882 586 L894 584 L883 590 L858 606 L866 610 L894 617 " fill="none" stroke="black" /></svg>