<?xml version="1.0" encoding="utf-8" ?>
<svg baseProfile="tiny" height="339" version="1.2" viewBox="-3 -3 605 339" width="605" xmlns="http://www.w3.org/2000/svg" xmlns:ev="http://www.w3.org/2001/xml-events" xmlns:xlink="http://www.w3.org/1999/xlink"><defs /><path d="M0 171 L4 162 L11 152 L29 132 L56 112 L99 84 L190 44 L303 8 L371 0 L441 0 L495 0 L537 7 L562 25 L581 45 L591 67 L599 99 L603 131 L605 164 L605 199 L605 226 L596 250 L561 286 L532 314 L509 334 L494 338 L471 339 L437 339 L385 339 L345 339 L313 333 L281 314 L252 290 L225 260 L205 222 L198 194 L198 169 L198 146 L207 124 L232 103 L270 86 L305 77 L347 63 L384 58 L399 58 L433 83 L483 124 L512 150 L527 163 L528 169 L528 174 L528 189 L504 212 L479 227 L468 234 L454 242 L441 245 L420 248 L396 248 L369 248 L344 240 L327 231 L315 220 L306 198 L301 181 L301 170 L301 150 L312 133 L331 120 L361 112 L379 110 L386 110 L395 116 L401 125 L405 130 L407 140 L407 147 L407 160 L407 167 L407 170 L406 172 L398 173 L392 173 L384 173 L375 171 L368 167 L363 165 L360 158 L359 149 L359 145 L359 142 L360 139 L366 137 L371 137 L373 137 L385 145 L387 147 L388 150 L389 154 L389 156 " fill="none" stroke="black" /></svg>