<?xml version="1.0" encoding="utf-8" ?>
<svg baseProfile="tiny" height="195" version="1.2" viewBox="-3 -3 623 195" width="623" xmlns="http://www.w3.org/2000/svg" xmlns:ev="http://www.w3.org/2001/xml-events" xmlns:xlink="http://www.w3.org/1999/xlink"><defs /><path d="M0 94 L2 94 L12 91 L14 91 L17 90 L24 90 L27 89 L28 89 L29 89 L32 89 L33 88 L39 88 L43 88 L47 88 L51 88 L52 88 L59 88 L66 87 L73 87 L83 87 L91 87 L113 86 L130 85 L144 83 L166 81 L183 78 L194 76 L201 76 L207 75 L212 74 L218 73 L221 73 L225 73 L229 73 L238 72 L244 71 L251 69 L260 68 L266 68 L272 67 L276 67 L281 67 L285 65 L288 65 L289 65 L290 65 L292 65 L294 64 L296 64 " fill="none" stroke="black" /><path d="M0 94 L2 94 L12 91 L14 91 L17 90 L24 90 L27 89 L28 89 L29 89 L32 89 L33 88 L39 88 L43 88 L47 88 L51 88 L52 88 L59 88 L66 87 L73 87 L83 87 L91 87 L113 86 L130 85 L144 83 L166 81 L183 78 L194 76 L201 76 L207 75 L212 74 L218 73 L221 73 L225 73 L229 73 L238 72 L244 71 L251 69 L260 68 L266 68 L272 67 L276 67 L281 67 L285 65 L288 65 L289 65 L290 65 L292 65 L294 64 L296 64 M78 130 L85 129 L95 128 L115 125 L134 117 L167 112 L180 110 L192 108 L200 107 L224 102 L262 94 L293 85 L311 82 L326 77 L337 73 L350 73 L364 70 L370 70 L379 69 L398 65 L406 63 L410 62 L413 61 L416 58 L418 56 " fill="none" stroke="black" /><path d="M0 94 L2 94 L12 91 L14 91 L17 90 L24 90 L27 89 L28 89 L29 89 L32 89 L33 88 L39 88 L43 88 L47 88 L51 88 L52 88 L59 88 L66 87 L73 87 L83 87 L91 87 L113 86 L130 85 L144 83 L166 81 L183 78 L194 76 L201 76 L207 75 L212 74 L218 73 L221 73 L225 73 L229 73 L238 72 L244 71 L251 69 L260 68 L266 68 L272 67 L276 67 L281 67 L285 65 L288 65 L289 65 L290 65 L292 65 L294 64 L296 64 M78 130 L85 129 L95 128 L115 125 L134 117 L167 112 L180 110 L192 108 L200 107 L224 102 L262 94 L293 85 L311 82 L326 77 L337 73 L350 73 L364 70 L370 70 L379 69 L398 65 L406 63 L410 62 L413 61 L416 58 L418 56 M155 157 L157 157 L175 157 L209 153 L248 142 L261 141 L266 141 L270 141 L300 138 L337 134 L378 132 L408 130 L427 130 L460 130 L479 129 L489 129 L502 127 L522 123 L531 121 " fill="none" stroke="black" /><path d="M0 94 L2 94 L12 91 L14 91 L17 90 L24 90 L27 89 L28 89 L29 89 L32 89 L33 88 L39 88 L43 88 L47 88 L51 88 L52 88 L59 88 L66 87 L73 87 L83 87 L91 87 L113 86 L130 85 L144 83 L166 81 L183 78 L194 76 L201 76 L207 75 L212 74 L218 73 L221 73 L225 73 L229 73 L238 72 L244 71 L251 69 L260 68 L266 68 L272 67 L276 67 L281 67 L285 65 L288 65 L289 65 L290 65 L292 65 L294 64 L296 64 M78 130 L85 129 L95 128 L115 125 L134 117 L167 112 L180 110 L192 108 L200 107 L224 102 L262 94 L293 85 L311 82 L326 77 L337 73 L350 73 L364 70 L370 70 L379 69 L398 65 L406 63 L410 62 L413 61 L416 58 L418 56 M155 157 L157 157 L175 157 L209 153 L248 142 L261 141 L266 141 L270 141 L300 138 L337 134 L378 132 L408 130 L427 130 L460 130 L479 129 L489 129 L502 127 L522 123 L531 121 M233 194 L233 195 L264 195 L293 195 L328 195 L339 195 L361 195 L398 195 L422 195 L448 195 L480 195 L508 195 L516 194 L520 194 L527 193 L547 185 L569 179 L589 176 L604 176 L616 176 L623 176 " fill="none" stroke="black" /><path d="M0 94 L2 94 L12 91 L14 91 L17 90 L24 90 L27 89 L28 89 L29 89 L32 89 L33 88 L39 88 L43 88 L47 88 L51 88 L52 88 L59 88 L66 87 L73 87 L83 87 L91 87 L113 86 L130 85 L144 83 L166 81 L183 78 L194 76 L201 76 L207 75 L212 74 L218 73 L221 73 L225 73 L229 73 L238 72 L244 71 L251 69 L260 68 L266 68 L272 67 L276 67 L281 67 L285 65 L288 65 L289 65 L290 65 L292 65 L294 64 L296 64 M78 130 L85 129 L95 128 L115 125 L134 117 L167 112 L180 110 L192 108 L200 107 L224 102 L262 94 L293 85 L311 82 L326 77 L337 73 L350 73 L364 70 L370 70 L379 69 L398 65 L406 63 L410 62 L413 61 L416 58 L418 56 M155 157 L157 157 L175 157 L209 153 L248 142 L261 141 L266 141 L270 141 L300 138 L337 134 L378 132 L408 130 L427 130 L460 130 L479 129 L489 129 L502 127 L522 123 L531 121 M233 194 L233 195 L264 195 L293 195 L328 195 L339 195 L361 195 L398 195 L422 195 L448 195 L480 195 L508 195 L516 194 L520 194 L527 193 L547 185 L569 179 L589 176 L604 176 L616 176 L623 176 M213 18 L232 18 L266 18 L305 18 L337 18 L363 17 L380 17 L406 17 L441 17 L475 14 L498 14 L517 14 L546 11 L561 6 L569 0 " fill="none" stroke="black" /></svg>