<?xml version="1.0" encoding="utf-8" ?>
<svg baseProfile="tiny" height="305" version="1.2" viewBox="-3 -3 590 305" width="590" xmlns="http://www.w3.org/2000/svg" xmlns:ev="http://www.w3.org/2001/xml-events" xmlns:xlink="http://www.w3.org/1999/xlink"><defs /><path d="M0 49 L12 40 L26 25 L34 16 L36 12 L39 7 L45 1 L50 0 L51 8 L53 18 L53 25 L53 33 L53 40 L53 49 L50 54 L48 61 L47 63 L46 70 L46 73 L46 79 L45 82 L45 85 L45 94 L45 100 L43 109 L41 115 L41 117 L41 120 L41 126 L41 138 L41 147 L41 155 L41 162 L41 167 L41 173 L41 175 L41 180 L41 186 L41 191 L41 198 L41 202 L41 208 L41 213 L43 215 L54 210 L62 181 L66 151 L70 123 L78 97 L83 87 L83 95 L83 135 L83 176 L83 219 L83 242 L89 262 L97 268 L120 272 L155 241 L188 202 L189 201 L191 199 L195 192 L200 182 L208 167 L213 152 L218 142 L222 134 L228 122 L238 110 L242 102 L249 90 L270 70 L273 67 L275 65 L288 64 L300 99 L301 127 L286 133 L244 137 L194 137 L165 137 L150 117 L160 71 L165 42 L157 41 L145 47 L139 80 L162 118 L256 186 L339 246 L363 280 L359 296 L349 300 L341 303 L333 305 L326 305 L317 305 L312 301 L302 292 L292 283 L283 273 L281 270 L280 266 L280 261 L280 259 L292 247 L308 241 L317 241 L331 241 L347 242 L358 244 L373 245 L385 245 L424 245 L461 242 L474 241 L479 241 L490 241 L514 241 L529 241 L531 241 L533 241 L536 241 L539 241 L548 241 L552 241 L566 241 L573 241 L582 241 L590 239 " fill="none" stroke="black" /></svg>