<?xml version="1.0" encoding="utf-8" ?>
<svg baseProfile="tiny" height="252" version="1.2" viewBox="-3 -3 573 252" width="573" xmlns="http://www.w3.org/2000/svg" xmlns:ev="http://www.w3.org/2001/xml-events" xmlns:xlink="http://www.w3.org/1999/xlink"><defs /><path d="M0 2 L3 2 L15 2 L39 2 L68 0 L68 7 L68 12 L69 18 L71 23 L73 30 L75 30 L83 33 L109 36 L150 40 L184 40 L198 40 L215 40 L239 41 L267 42 L296 44 L304 44 L319 44 L341 44 L355 44 L369 44 L385 44 L403 44 L413 44 L422 44 L430 44 L445 44 L448 44 " fill="none" stroke="black" /><path d="M0 2 L3 2 L15 2 L39 2 L68 0 L68 7 L68 12 L69 18 L71 23 L73 30 L75 30 L83 33 L109 36 L150 40 L184 40 L198 40 L215 40 L239 41 L267 42 L296 44 L304 44 L319 44 L341 44 L355 44 L369 44 L385 44 L403 44 L413 44 L422 44 L430 44 L445 44 L448 44 M24 109 L25 109 L38 109 L71 108 L101 103 L116 101 L118 101 L118 104 L114 113 L112 117 L112 120 L112 124 L112 125 L113 127 L113 129 L119 130 L141 130 L177 130 L228 130 L243 130 L247 130 L261 130 L282 130 L308 130 L343 131 L386 131 L430 131 L434 131 L444 131 L466 131 L487 131 L488 131 " fill="none" stroke="black" /><path d="M0 2 L3 2 L15 2 L39 2 L68 0 L68 7 L68 12 L69 18 L71 23 L73 30 L75 30 L83 33 L109 36 L150 40 L184 40 L198 40 L215 40 L239 41 L267 42 L296 44 L304 44 L319 44 L341 44 L355 44 L369 44 L385 44 L403 44 L413 44 L422 44 L430 44 L445 44 L448 44 M24 109 L25 109 L38 109 L71 108 L101 103 L116 101 L118 101 L118 104 L114 113 L112 117 L112 120 L112 124 L112 125 L113 127 L113 129 L119 130 L141 130 L177 130 L228 130 L243 130 L247 130 L261 130 L282 130 L308 130 L343 131 L386 131 L430 131 L434 131 L444 131 L466 131 L487 131 L488 131 M71 213 L72 213 L80 213 L105 213 L153 206 L156 205 L158 208 L158 218 L157 228 L155 235 L155 243 L155 247 L155 249 L162 249 L192 249 L266 249 L356 249 L413 249 L437 250 L449 251 L455 251 L462 251 L473 251 L487 251 L513 251 L526 251 L527 251 L533 251 L537 252 L542 252 L550 252 L565 252 L573 252 " fill="none" stroke="black" /></svg>