<?xml version="1.0" encoding="utf-8" ?>
<svg baseProfile="tiny" height="172" version="1.2" viewBox="-3 -3 551 172" width="551" xmlns="http://www.w3.org/2000/svg" xmlns:ev="http://www.w3.org/2001/xml-events" xmlns:xlink="http://www.w3.org/1999/xlink"><defs /><path d="M0 118 L0 115 L0 110 L0 101 L0 97 L2 94 L12 88 L18 88 L23 91 L27 102 L30 108 L32 115 L32 128 L33 142 L34 146 L35 149 L37 153 L41 155 L45 155 L46 155 L52 151 L55 143 L55 122 L55 99 L52 88 L49 78 L49 67 L49 60 L49 58 L57 58 L63 64 L67 73 L70 81 L73 87 L76 95 L82 107 L85 113 L88 123 L92 127 L93 131 L95 133 L98 135 L98 133 L98 125 L98 111 L92 90 L89 85 L89 79 L89 69 L90 66 L98 58 L128 44 L149 38 L160 38 L174 59 L181 76 L181 84 L182 98 L182 120 L182 130 L186 151 L188 157 L191 161 L198 166 L205 167 L210 167 L219 156 L224 140 L228 119 L228 97 L228 92 L227 74 L226 52 L226 42 L226 38 L226 37 L226 35 L226 37 L236 61 L244 72 L250 80 L256 90 L266 112 L271 123 L277 137 L280 148 L283 156 L287 165 L290 169 L291 172 L291 168 L294 157 L297 150 L301 134 L304 106 L304 86 L304 64 L304 45 L304 16 L304 3 L304 0 L310 0 L322 5 L330 12 L342 24 L363 42 L367 48 L370 54 L371 66 L377 78 L381 96 L383 107 L394 139 L401 160 L406 166 L407 167 L408 167 L412 167 L420 163 L424 157 L426 150 L426 127 L426 104 L426 89 L426 73 L424 56 L422 46 L422 20 L422 9 L428 3 L460 2 L496 15 L518 37 L531 73 L545 112 L548 120 L549 121 L550 122 L550 121 L551 124 " fill="none" stroke="black" /></svg>