<?xml version="1.0" encoding="utf-8" ?>
<svg baseProfile="tiny" height="477" version="1.2" viewBox="-3 -3 523 477" width="523" xmlns="http://www.w3.org/2000/svg" xmlns:ev="http://www.w3.org/2001/xml-events" xmlns:xlink="http://www.w3.org/1999/xlink"><defs /><path d="M112 195 L115 127 L115 121 L115 126 L131 180 L142 211 L148 206 L161 158 L191 71 L198 60 L212 65 L221 111 L224 123 L229 92 L236 53 L238 54 L244 84 L256 149 L263 163 L268 156 L277 114 L280 100 L280 101 L285 148 L292 198 L294 202 L295 182 L301 116 L302 90 L304 90 L317 143 L327 221 L332 245 L336 244 L354 180 L367 120 L371 153 L373 220 L375 222 L378 216 L395 149 L406 100 L406 130 L406 194 L406 208 L409 208 L420 142 L431 57 L431 56 L431 63 L431 117 L431 168 L432 169 L441 128 L446 23 L446 3 L446 0 L457 43 L466 110 L467 119 L468 119 L475 77 L478 30 L478 29 L479 38 L479 98 L480 179 L487 221 L492 227 L507 174 L512 141 L512 149 L512 198 L512 242 L514 212 L515 202 L519 224 L523 251 " fill="none" stroke="black" /><path d="M112 195 L115 127 L115 121 L115 126 L131 180 L142 211 L148 206 L161 158 L191 71 L198 60 L212 65 L221 111 L224 123 L229 92 L236 53 L238 54 L244 84 L256 149 L263 163 L268 156 L277 114 L280 100 L280 101 L285 148 L292 198 L294 202 L295 182 L301 116 L302 90 L304 90 L317 143 L327 221 L332 245 L336 244 L354 180 L367 120 L371 153 L373 220 L375 222 L378 216 L395 149 L406 100 L406 130 L406 194 L406 208 L409 208 L420 142 L431 57 L431 56 L431 63 L431 117 L431 168 L432 169 L441 128 L446 23 L446 3 L446 0 L457 43 L466 110 L467 119 L468 119 L475 77 L478 30 L478 29 L479 38 L479 98 L480 179 L487 221 L492 227 L507 174 L512 141 L512 149 L512 198 L512 242 L514 212 L515 202 L519 224 L523 251 M0 477 L8 477 L39 450 L87 378 L142 311 L153 315 L169 364 L185 396 L185 397 L185 396 L192 354 L195 328 L198 322 L204 357 L213 405 L214 412 L214 408 L226 304 L227 292 L227 299 L228 371 L232 430 L233 430 L240 421 L249 369 L253 331 L253 335 L254 375 L263 435 L266 436 L277 412 L302 340 L307 320 L309 328 L310 383 L310 392 L311 393 L314 367 L315 357 L317 358 L320 396 L324 407 L330 390 L334 307 L334 231 L334 223 L335 238 L336 314 L336 379 L337 392 L339 392 L349 354 L359 303 L361 324 L364 390 L366 416 L369 417 L375 397 L379 369 L381 367 L389 397 L393 418 L399 399 L401 369 L403 368 L405 390 L408 407 L425 386 L426 381 L428 380 L428 384 " fill="none" stroke="black" /></svg>