<?xml version="1.0" encoding="utf-8" ?>
<svg baseProfile="tiny" height="455" version="1.2" viewBox="-3 -3 1257 455" width="1257" xmlns="http://www.w3.org/2000/svg" xmlns:ev="http://www.w3.org/2001/xml-events" xmlns:xlink="http://www.w3.org/1999/xlink"><defs /><path d="M105 47 L112 47 L187 41 L324 26 L365 23 L362 23 L301 51 L124 122 L87 136 L89 136 L133 128 L227 104 L238 101 L229 99 L161 118 L43 167 L56 178 L260 132 L339 109 L333 108 L124 172 L0 219 L12 221 L115 207 L261 157 L261 156 L231 160 L148 191 L140 196 L183 196 L386 137 L472 116 L442 114 L291 170 L259 185 L254 208 L497 141 L538 128 L495 158 L449 184 L466 186 L636 120 L847 39 L890 26 L732 91 L397 222 L364 230 L609 119 L870 9 L866 0 L606 91 L417 166 L414 168 L530 112 L611 60 L604 32 L378 94 L222 153 L237 155 L367 114 L369 112 L354 112 L341 113 L343 113 L406 96 L530 50 L543 46 L492 68 L295 162 L297 162 L480 105 L741 12 L774 2 L738 27 L629 91 L635 93 L740 67 L791 54 L783 56 L669 125 L564 195 L554 206 L702 154 L854 102 L835 104 L644 187 L432 293 L426 303 L602 253 L725 203 L695 204 L463 305 L391 339 L462 333 L712 251 L863 212 L841 214 L591 318 L496 361 L594 347 L827 275 L845 267 L750 299 L638 345 L641 347 L763 318 L952 252 L941 251 L770 310 L623 375 L644 375 L898 300 L1097 244 L1071 246 L875 315 L789 350 L803 362 L969 326 L1021 310 L982 312 L764 402 L651 455 L705 450 L907 385 L987 361 L947 369 L815 426 L792 435 L895 421 L1067 375 L1067 373 L1023 379 L931 419 L930 421 L1031 410 L1147 379 L1159 374 L1132 378 L1069 409 L1079 410 L1221 399 L1256 393 L1257 392 L1257 393 L1257 401 " fill="none" stroke="black" /></svg>