<?xml version="1.0" encoding="utf-8" ?>
<svg baseProfile="tiny" height="515" version="1.2" viewBox="-3 -3 713 515" width="713" xmlns="http://www.w3.org/2000/svg" xmlns:ev="http://www.w3.org/2001/xml-events" xmlns:xlink="http://www.w3.org/1999/xlink"><defs /><path d="M72 213 L74 212 L76 201 L82 164 L91 118 L100 81 L111 46 L113 76 L113 207 L113 282 L113 284 L124 256 L153 122 L165 59 L149 115 L116 227 L120 229 L147 200 L194 50 L210 0 L204 7 L113 164 L42 338 L67 364 L162 314 L189 281 L152 274 L32 272 L0 269 L91 247 L416 204 L447 209 L314 267 L160 314 L171 300 L303 142 L363 21 L312 2 L232 101 L215 242 L236 346 L235 344 L190 248 L155 111 L152 70 L162 108 L279 284 L347 375 L354 388 L353 368 L281 236 L229 180 L236 146 L394 111 L524 148 L514 243 L492 265 L482 270 L411 211 L334 147 L319 121 L318 111 L283 119 L171 275 L142 434 L236 513 L335 515 L350 504 L284 468 L221 423 L202 296 L220 144 L225 119 L263 173 L389 287 L534 362 L533 364 L484 342 L312 266 L147 196 L138 186 L183 157 L383 105 L530 92 L533 96 L500 110 L378 137 L323 142 L326 142 L376 131 L421 145 L473 275 L493 418 L496 450 L488 413 L433 279 L372 146 L354 136 L354 159 L374 198 L591 277 L703 288 L713 288 L566 285 L363 272 L292 270 L295 242 L393 136 L424 105 L443 139 L468 274 L480 376 L480 365 " fill="none" stroke="black" /></svg>