<?xml version="1.0" encoding="utf-8" ?>
<svg baseProfile="tiny" height="323" version="1.2" viewBox="-3 -3 901 323" width="901" xmlns="http://www.w3.org/2000/svg" xmlns:ev="http://www.w3.org/2001/xml-events" xmlns:xlink="http://www.w3.org/1999/xlink"><defs /><path d="M0 1 L2 0 L5 4 L5 13 L6 19 L7 29 L8 43 L9 56 L9 61 L10 69 L11 76 L11 85 L12 90 L14 96 L16 104 L17 111 L20 121 L22 131 L24 136 L25 139 L29 145 L31 150 L35 160 L42 169 L48 182 L52 193 L55 201 L61 207 L62 212 L67 223 L70 226 L73 230 L82 247 L90 260 L94 264 L97 269 L104 276 L109 282 L115 289 L122 294 L130 299 L135 301 L137 302 L145 303 L154 305 L161 305 L168 306 L200 314 L232 321 L259 323 L273 323 L276 323 L285 323 L301 321 L314 315 L321 310 L331 303 L342 296 L351 288 L356 281 L371 258 L388 233 L397 212 L405 198 L409 189 L411 182 L417 169 L423 153 L428 141 L434 129 L437 119 L441 109 L446 97 L450 88 L453 80 L456 76 L458 72 L459 70 L464 66 L477 59 L483 57 L485 56 L488 55 L499 55 L512 55 L517 55 L524 55 L530 54 L534 53 L540 53 L547 50 L567 47 L580 44 L584 44 L589 44 L602 43 L606 43 L609 42 L621 42 L634 42 L639 42 L646 42 L650 42 L654 42 L659 42 L667 41 L681 41 L687 40 L701 39 L717 36 L740 34 L748 32 L753 32 L754 32 L758 32 L762 32 L773 32 L775 32 L776 32 L777 32 L780 32 L786 32 L790 32 L794 31 L816 26 L830 20 L832 20 L840 17 L842 17 L848 17 L853 17 L869 13 L880 12 L882 12 L886 10 L889 10 L889 9 L893 8 L897 8 L901 7 " fill="none" stroke="black" /></svg>