<?xml version="1.0" encoding="utf-8" ?>
<svg baseProfile="tiny" height="493" version="1.2" viewBox="-3 -3 578 493" width="578" xmlns="http://www.w3.org/2000/svg" xmlns:ev="http://www.w3.org/2001/xml-events" xmlns:xlink="http://www.w3.org/1999/xlink"><defs /><path d="M3 243 L3 208 L0 124 L0 114 L0 159 L7 291 L14 365 L13 327 L8 193 L8 169 L8 185 L8 285 L8 374 L8 376 L8 341 L8 162 L8 0 L12 14 L35 117 L44 258 L44 326 L44 327 L44 317 L44 245 L44 90 L44 78 L48 94 L48 232 L48 400 L48 483 L49 489 L59 456 L83 278 L87 152 L87 135 L91 175 L92 292 L92 428 L92 461 L94 458 L94 351 L94 180 L94 101 L94 117 L109 282 L111 381 L111 393 L114 383 L118 245 L118 122 L118 107 L123 128 L135 234 L137 371 L137 406 L138 406 L145 280 L150 132 L150 109 L151 113 L151 178 L151 327 L151 444 L151 427 L151 318 L156 195 L157 217 L169 314 L172 424 L172 449 L177 451 L179 345 L182 176 L182 153 L188 169 L202 302 L202 414 L202 444 L202 427 L202 306 L202 192 L202 190 L206 194 L216 251 L220 394 L220 491 L221 493 L222 459 L234 306 L236 191 L236 190 L237 199 L244 299 L251 440 L251 475 L252 474 L262 375 L267 200 L267 122 L269 122 L282 196 L294 335 L295 393 L295 390 L298 297 L301 204 L302 205 L309 276 L314 414 L314 487 L315 489 L315 448 L326 296 L328 176 L328 166 L335 184 L348 286 L353 356 L355 357 L355 309 L355 192 L355 142 L372 166 L402 307 L417 394 L425 371 L426 270 L426 156 L426 138 L427 138 L438 183 L459 324 L467 380 L478 344 L485 209 L485 94 L485 93 L487 97 L496 144 L515 240 L521 290 L522 282 L524 200 L525 111 L525 96 L535 116 L552 177 L568 272 L577 347 L578 349 " fill="none" stroke="black" /></svg>