<?xml version="1.0" encoding="utf-8" ?>
<svg baseProfile="tiny" height="391" version="1.2" viewBox="-3 -3 722 391" width="722" xmlns="http://www.w3.org/2000/svg" xmlns:ev="http://www.w3.org/2001/xml-events" xmlns:xlink="http://www.w3.org/1999/xlink"><defs /><path d="M47 74 L37 82 L34 88 L102 74 L220 14 L250 0 L251 0 L207 19 L176 37 L175 38 L202 25 L210 19 L181 36 L61 108 L0 148 L3 148 L46 140 L132 94 L145 90 L142 96 L45 155 L24 167 L16 177 L117 130 L226 57 L227 57 L206 60 L116 106 L77 131 L85 131 L194 87 L259 46 L259 44 L209 76 L72 178 L33 207 L49 205 L160 147 L216 111 L214 111 L154 131 L77 175 L76 176 L113 172 L232 109 L270 92 L235 123 L135 187 L135 189 L216 160 L287 124 L257 126 L152 175 L108 199 L137 194 L270 127 L297 113 L306 102 L234 130 L157 172 L150 179 L182 180 L266 137 L266 135 L249 143 L165 197 L163 199 L193 195 L371 96 L382 88 L367 83 L243 148 L114 226 L133 226 L290 156 L412 85 L319 115 L185 192 L143 225 L183 219 L344 133 L398 100 L401 91 L323 119 L216 178 L216 182 L314 154 L452 80 L428 83 L284 166 L230 195 L295 177 L480 85 L529 63 L498 73 L341 167 L236 230 L260 236 L404 168 L483 121 L460 122 L352 187 L226 275 L222 287 L360 232 L534 132 L568 116 L515 131 L354 215 L286 249 L313 245 L456 169 L562 112 L546 113 L393 192 L236 284 L244 295 L455 234 L590 172 L573 172 L502 195 L357 270 L334 281 L375 268 L558 169 L611 143 L568 159 L407 248 L359 272 L397 271 L562 191 L601 170 L592 174 L397 274 L323 322 L359 319 L577 221 L722 139 L708 141 L557 213 L421 291 L419 298 L603 235 L693 213 L658 221 L482 304 L308 391 L324 391 L549 320 L693 267 " fill="none" stroke="black" /></svg>