<?xml version="1.0" encoding="utf-8" ?>
<svg baseProfile="tiny" height="348" version="1.2" viewBox="-3 -3 616 348" width="616" xmlns="http://www.w3.org/2000/svg" xmlns:ev="http://www.w3.org/2001/xml-events" xmlns:xlink="http://www.w3.org/1999/xlink"><defs /><path d="M158 0 L163 11 L181 48 L207 88 L238 125 L281 166 L338 200 L405 230 L459 245 L511 247 L564 240 L615 224 " fill="none" stroke="black" /><path d="M158 0 L163 11 L181 48 L207 88 L238 125 L281 166 L338 200 L405 230 L459 245 L511 247 L564 240 L615 224 M115 17 L115 31 L118 55 L128 91 L150 141 L177 180 L202 204 L220 223 L242 246 L263 265 L282 278 L302 289 L327 298 L349 303 L368 305 L391 305 L418 304 L442 298 L472 287 L501 276 L524 268 L541 261 L557 252 L575 242 L591 232 L599 226 L604 222 L608 218 " fill="none" stroke="black" /><path d="M158 0 L163 11 L181 48 L207 88 L238 125 L281 166 L338 200 L405 230 L459 245 L511 247 L564 240 L615 224 M115 17 L115 31 L118 55 L128 91 L150 141 L177 180 L202 204 L220 223 L242 246 L263 265 L282 278 L302 289 L327 298 L349 303 L368 305 L391 305 L418 304 L442 298 L472 287 L501 276 L524 268 L541 261 L557 252 L575 242 L591 232 L599 226 L604 222 L608 218 M86 53 L85 91 L87 128 L101 182 L124 236 L150 273 L177 296 L212 313 L249 324 L283 332 L315 336 L339 340 L358 344 L379 347 L403 348 L428 348 L458 344 L493 333 L517 320 L540 308 L555 300 L565 292 L578 276 L595 250 L603 240 L607 232 L611 224 L613 222 " fill="none" stroke="black" /><path d="M158 0 L163 11 L181 48 L207 88 L238 125 L281 166 L338 200 L405 230 L459 245 L511 247 L564 240 L615 224 M115 17 L115 31 L118 55 L128 91 L150 141 L177 180 L202 204 L220 223 L242 246 L263 265 L282 278 L302 289 L327 298 L349 303 L368 305 L391 305 L418 304 L442 298 L472 287 L501 276 L524 268 L541 261 L557 252 L575 242 L591 232 L599 226 L604 222 L608 218 M86 53 L85 91 L87 128 L101 182 L124 236 L150 273 L177 296 L212 313 L249 324 L283 332 L315 336 L339 340 L358 344 L379 347 L403 348 L428 348 L458 344 L493 333 L517 320 L540 308 L555 300 L565 292 L578 276 L595 250 L603 240 L607 232 L611 224 L613 222 M0 66 L1 78 L11 129 L39 191 L62 224 L88 252 L110 271 L128 282 L147 291 L180 301 L210 306 L239 309 L264 312 L286 312 L305 313 L329 311 L352 308 L370 304 L376 303 L378 302 L380 302 L384 302 L391 300 L402 300 L412 300 L425 303 L439 304 L450 304 L463 300 L478 292 L496 283 L515 276 L532 269 L547 265 L556 262 L563 260 L570 258 L577 255 L589 249 L603 240 L612 234 L616 230 " fill="none" stroke="black" /></svg>