<?xml version="1.0" encoding="utf-8" ?>
<svg baseProfile="tiny" height="363" version="1.2" viewBox="-3 -3 599 363" width="599" xmlns="http://www.w3.org/2000/svg" xmlns:ev="http://www.w3.org/2001/xml-events" xmlns:xlink="http://www.w3.org/1999/xlink"><defs /><path d="M0 28 L5 43 L8 85 L5 157 L3 229 L21 275 L49 285 L84 285 L153 241 L257 93 " fill="none" stroke="black" /><path d="M0 28 L5 43 L8 85 L5 157 L3 229 L21 275 L49 285 L84 285 L153 241 L257 93 M125 0 L156 26 L174 80 L197 209 L237 331 L273 363 L321 361 " fill="none" stroke="black" /><path d="M0 28 L5 43 L8 85 L5 157 L3 229 L21 275 L49 285 L84 285 L153 241 L257 93 M125 0 L156 26 L174 80 L197 209 L237 331 L273 363 L321 361 M309 20 L305 34 L302 56 L299 85 L303 122 L321 172 L340 208 L358 233 L383 251 L402 259 L434 262 L498 221 L554 126 L573 64 " fill="none" stroke="black" /><path d="M0 28 L5 43 L8 85 L5 157 L3 229 L21 275 L49 285 L84 285 L153 241 L257 93 M125 0 L156 26 L174 80 L197 209 L237 331 L273 363 L321 361 M309 20 L305 34 L302 56 L299 85 L303 122 L321 172 L340 208 L358 233 L383 251 L402 259 L434 262 L498 221 L554 126 L573 64 M501 8 L501 21 L497 103 L496 193 L514 257 L543 297 L571 307 " fill="none" stroke="black" /><path d="M0 28 L5 43 L8 85 L5 157 L3 229 L21 275 L49 285 L84 285 L153 241 L257 93 M125 0 L156 26 L174 80 L197 209 L237 331 L273 363 L321 361 M309 20 L305 34 L302 56 L299 85 L303 122 L321 172 L340 208 L358 233 L383 251 L402 259 L434 262 L498 221 L554 126 L573 64 M501 8 L501 21 L497 103 L496 193 L514 257 L543 297 L571 307 M599 121 L581 138 L510 187 L344 236 L185 243 L92 232 L13 202 " fill="none" stroke="black" /><path d="M0 28 L5 43 L8 85 L5 157 L3 229 L21 275 L49 285 L84 285 L153 241 L257 93 M125 0 L156 26 L174 80 L197 209 L237 331 L273 363 L321 361 M309 20 L305 34 L302 56 L299 85 L303 122 L321 172 L340 208 L358 233 L383 251 L402 259 L434 262 L498 221 L554 126 L573 64 M501 8 L501 21 L497 103 L496 193 L514 257 L543 297 L571 307 M599 121 L581 138 L510 187 L344 236 L185 243 L92 232 L13 202 M44 97 L76 107 L169 136 L292 161 L459 167 " fill="none" stroke="black" /><path d="M0 28 L5 43 L8 85 L5 157 L3 229 L21 275 L49 285 L84 285 L153 241 L257 93 M125 0 L156 26 L174 80 L197 209 L237 331 L273 363 L321 361 M309 20 L305 34 L302 56 L299 85 L303 122 L321 172 L340 208 L358 233 L383 251 L402 259 L434 262 L498 221 L554 126 L573 64 M501 8 L501 21 L497 103 L496 193 L514 257 L543 297 L571 307 M599 121 L581 138 L510 187 L344 236 L185 243 L92 232 L13 202 M44 97 L76 107 L169 136 L292 161 L459 167 M394 23 L393 47 L373 123 L321 209 L262 261 L216 277 L186 281 " fill="none" stroke="black" /></svg>