<?xml version="1.0" encoding="utf-8" ?>
<svg baseProfile="tiny" height="283" version="1.2" viewBox="-3 -3 853 283" width="853" xmlns="http://www.w3.org/2000/svg" xmlns:ev="http://www.w3.org/2001/xml-events" xmlns:xlink="http://www.w3.org/1999/xlink"><defs /><path d="M271 0 L272 4 L279 24 L307 88 L327 156 L322 203 L294 236 L231 268 L165 283 L134 272 L119 237 L117 207 " fill="none" stroke="black" /><path d="M271 0 L272 4 L279 24 L307 88 L327 156 L322 203 L294 236 L231 268 L165 283 L134 272 L119 237 L117 207 M489 55 L488 57 L485 69 L479 97 L470 131 L453 172 L436 202 L411 226 L375 243 L328 251 L298 248 L273 228 L229 180 L194 146 " fill="none" stroke="black" /><path d="M271 0 L272 4 L279 24 L307 88 L327 156 L322 203 L294 236 L231 268 L165 283 L134 272 L119 237 L117 207 M489 55 L488 57 L485 69 L479 97 L470 131 L453 172 L436 202 L411 226 L375 243 L328 251 L298 248 L273 228 L229 180 L194 146 M597 21 L597 54 L597 123 L579 188 L558 221 L525 248 L473 264 L422 262 L385 232 L370 188 " fill="none" stroke="black" /><path d="M271 0 L272 4 L279 24 L307 88 L327 156 L322 203 L294 236 L231 268 L165 283 L134 272 L119 237 L117 207 M489 55 L488 57 L485 69 L479 97 L470 131 L453 172 L436 202 L411 226 L375 243 L328 251 L298 248 L273 228 L229 180 L194 146 M597 21 L597 54 L597 123 L579 188 L558 221 L525 248 L473 264 L422 262 L385 232 L370 188 M708 19 L708 21 L704 48 L686 118 L656 169 L624 194 L593 205 L562 206 L528 193 L515 172 " fill="none" stroke="black" /><path d="M271 0 L272 4 L279 24 L307 88 L327 156 L322 203 L294 236 L231 268 L165 283 L134 272 L119 237 L117 207 M489 55 L488 57 L485 69 L479 97 L470 131 L453 172 L436 202 L411 226 L375 243 L328 251 L298 248 L273 228 L229 180 L194 146 M597 21 L597 54 L597 123 L579 188 L558 221 L525 248 L473 264 L422 262 L385 232 L370 188 M708 19 L708 21 L704 48 L686 118 L656 169 L624 194 L593 205 L562 206 L528 193 L515 172 M112 64 L124 86 L130 125 L129 177 L118 231 L102 262 L87 272 L74 273 L49 252 L0 196 " fill="none" stroke="black" /><path d="M271 0 L272 4 L279 24 L307 88 L327 156 L322 203 L294 236 L231 268 L165 283 L134 272 L119 237 L117 207 M489 55 L488 57 L485 69 L479 97 L470 131 L453 172 L436 202 L411 226 L375 243 L328 251 L298 248 L273 228 L229 180 L194 146 M597 21 L597 54 L597 123 L579 188 L558 221 L525 248 L473 264 L422 262 L385 232 L370 188 M708 19 L708 21 L704 48 L686 118 L656 169 L624 194 L593 205 L562 206 L528 193 L515 172 M112 64 L124 86 L130 125 L129 177 L118 231 L102 262 L87 272 L74 273 L49 252 L0 196 M853 156 L849 186 L833 208 L793 228 L749 238 L718 232 L685 198 " fill="none" stroke="black" /></svg>