<?xml version="1.0" encoding="utf-8" ?>
<svg baseProfile="tiny" height="353" version="1.2" viewBox="-3 -3 674 353" width="674" xmlns="http://www.w3.org/2000/svg" xmlns:ev="http://www.w3.org/2001/xml-events" xmlns:xlink="http://www.w3.org/1999/xlink"><defs /><path d="M73 29 L128 30 L221 40 L277 54 L286 69 L283 109 L270 153 L267 194 L276 231 L317 271 L392 307 L471 321 L547 315 L613 290 L661 247 L674 209 L672 206 L647 205 L570 258 L475 330 L411 353 L416 332 L563 169 L663 96 L621 119 L263 253 L20 312 L51 280 L176 168 L215 131 L139 142 L0 129 L27 87 L197 14 L279 0 L259 60 L202 144 L211 144 L282 68 L315 21 L315 27 L291 136 L279 269 " fill="none" stroke="black" /><path d="M73 29 L128 30 L221 40 L277 54 L286 69 L283 109 L270 153 L267 194 L276 231 L317 271 L392 307 L471 321 L547 315 L613 290 L661 247 L674 209 L672 206 L647 205 L570 258 L475 330 L411 353 L416 332 L563 169 L663 96 L621 119 L263 253 L20 312 L51 280 L176 168 L215 131 L139 142 L0 129 L27 87 L197 14 L279 0 L259 60 L202 144 L211 144 L282 68 L315 21 L315 27 L291 136 L279 269 M352 182 L352 165 L352 147 L357 172 L355 264 L352 305 L371 264 L419 89 L439 31 L444 45 L429 119 L380 190 L359 217 L348 221 L336 211 L306 122 L281 47 L280 47 L286 79 L352 204 L411 243 L487 247 L529 215 L531 200 L458 170 L217 152 L73 173 L64 174 L158 173 L455 152 L510 150 L473 161 L283 224 L190 255 L216 224 L352 84 L389 46 L387 65 L359 201 L357 268 L420 229 L522 115 L527 101 L476 115 L359 241 L315 297 L322 284 L328 161 L275 62 L268 63 L265 121 L267 153 L267 148 L263 121 L261 120 L252 127 L234 156 L210 185 L199 189 " fill="none" stroke="black" /><path d="M73 29 L128 30 L221 40 L277 54 L286 69 L283 109 L270 153 L267 194 L276 231 L317 271 L392 307 L471 321 L547 315 L613 290 L661 247 L674 209 L672 206 L647 205 L570 258 L475 330 L411 353 L416 332 L563 169 L663 96 L621 119 L263 253 L20 312 L51 280 L176 168 L215 131 L139 142 L0 129 L27 87 L197 14 L279 0 L259 60 L202 144 L211 144 L282 68 L315 21 L315 27 L291 136 L279 269 M352 182 L352 165 L352 147 L357 172 L355 264 L352 305 L371 264 L419 89 L439 31 L444 45 L429 119 L380 190 L359 217 L348 221 L336 211 L306 122 L281 47 L280 47 L286 79 L352 204 L411 243 L487 247 L529 215 L531 200 L458 170 L217 152 L73 173 L64 174 L158 173 L455 152 L510 150 L473 161 L283 224 L190 255 L216 224 L352 84 L389 46 L387 65 L359 201 L357 268 L420 229 L522 115 L527 101 L476 115 L359 241 L315 297 L322 284 L328 161 L275 62 L268 63 L265 121 L267 153 L267 148 L263 121 L261 120 L252 127 L234 156 L210 185 L199 189 M211 49 L211 74 L197 141 L179 237 L187 297 L202 305 L255 242 L319 81 L343 29 L339 28 L327 69 L339 202 L411 217 L529 158 L569 117 L566 129 L514 229 L498 269 L499 185 L510 49 L518 33 L518 49 L472 131 L389 144 L343 121 L332 109 L329 81 L334 29 L335 16 L283 49 L183 149 L144 195 L144 196 " fill="none" stroke="black" /></svg>