<?xml version="1.0" encoding="utf-8" ?>
<svg baseProfile="tiny" height="332" version="1.2" viewBox="-3 -3 662 332" width="662" xmlns="http://www.w3.org/2000/svg" xmlns:ev="http://www.w3.org/2001/xml-events" xmlns:xlink="http://www.w3.org/1999/xlink"><defs /><circle cx="132" cy="49" fill="black" r="1" /><path d="M135 133 L139 140 L150 164 L166 196 " fill="none" stroke="black" /><path d="M135 133 L139 140 L150 164 L166 196 M240 215 L252 214 L270 207 " fill="none" stroke="black" /><path d="M135 133 L139 140 L150 164 L166 196 M240 215 L252 214 L270 207 M327 116 L328 116 L333 116 L351 116 " fill="none" stroke="black" /><path d="M135 133 L139 140 L150 164 L166 196 M240 215 L252 214 L270 207 M327 116 L328 116 L333 116 L351 116 M499 209 L505 221 L511 232 L523 247 " fill="none" stroke="black" /><path d="M135 133 L139 140 L150 164 L166 196 M240 215 L252 214 L270 207 M327 116 L328 116 L333 116 L351 116 M499 209 L505 221 L511 232 L523 247 M538 275 L541 285 L544 294 " fill="none" stroke="black" /><path d="M135 133 L139 140 L150 164 L166 196 M240 215 L252 214 L270 207 M327 116 L328 116 L333 116 L351 116 M499 209 L505 221 L511 232 L523 247 M538 275 L541 285 L544 294 M662 202 L662 201 L657 197 L645 173 " fill="none" stroke="black" /><path d="M135 133 L139 140 L150 164 L166 196 M240 215 L252 214 L270 207 M327 116 L328 116 L333 116 L351 116 M499 209 L505 221 L511 232 L523 247 M538 275 L541 285 L544 294 M662 202 L662 201 L657 197 L645 173 M593 88 L582 80 L562 72 " fill="none" stroke="black" /><path d="M135 133 L139 140 L150 164 L166 196 M240 215 L252 214 L270 207 M327 116 L328 116 L333 116 L351 116 M499 209 L505 221 L511 232 L523 247 M538 275 L541 285 L544 294 M662 202 L662 201 L657 197 L645 173 M593 88 L582 80 L562 72 M488 72 L471 82 L451 103 " fill="none" stroke="black" /><path d="M135 133 L139 140 L150 164 L166 196 M240 215 L252 214 L270 207 M327 116 L328 116 L333 116 L351 116 M499 209 L505 221 L511 232 L523 247 M538 275 L541 285 L544 294 M662 202 L662 201 L657 197 L645 173 M593 88 L582 80 L562 72 M488 72 L471 82 L451 103 M405 194 L399 205 L395 209 " fill="none" stroke="black" /><path d="M135 133 L139 140 L150 164 L166 196 M240 215 L252 214 L270 207 M327 116 L328 116 L333 116 L351 116 M499 209 L505 221 L511 232 L523 247 M538 275 L541 285 L544 294 M662 202 L662 201 L657 197 L645 173 M593 88 L582 80 L562 72 M488 72 L471 82 L451 103 M405 194 L399 205 L395 209 M375 227 L366 237 " fill="none" stroke="black" /><path d="M135 133 L139 140 L150 164 L166 196 M240 215 L252 214 L270 207 M327 116 L328 116 L333 116 L351 116 M499 209 L505 221 L511 232 L523 247 M538 275 L541 285 L544 294 M662 202 L662 201 L657 197 L645 173 M593 88 L582 80 L562 72 M488 72 L471 82 L451 103 M405 194 L399 205 L395 209 M375 227 L366 237 M136 298 L125 300 L112 300 L77 280 " fill="none" stroke="black" /><path d="M135 133 L139 140 L150 164 L166 196 M240 215 L252 214 L270 207 M327 116 L328 116 L333 116 L351 116 M499 209 L505 221 L511 232 L523 247 M538 275 L541 285 L544 294 M662 202 L662 201 L657 197 L645 173 M593 88 L582 80 L562 72 M488 72 L471 82 L451 103 M405 194 L399 205 L395 209 M375 227 L366 237 M136 298 L125 300 L112 300 L77 280 M0 135 L0 128 L1 117 " fill="none" stroke="black" /><path d="M135 133 L139 140 L150 164 L166 196 M240 215 L252 214 L270 207 M327 116 L328 116 L333 116 L351 116 M499 209 L505 221 L511 232 L523 247 M538 275 L541 285 L544 294 M662 202 L662 201 L657 197 L645 173 M593 88 L582 80 L562 72 M488 72 L471 82 L451 103 M405 194 L399 205 L395 209 M375 227 L366 237 M136 298 L125 300 L112 300 L77 280 M0 135 L0 128 L1 117 M28 41 L34 37 L44 28 " fill="none" stroke="black" /><path d="M135 133 L139 140 L150 164 L166 196 M240 215 L252 214 L270 207 M327 116 L328 116 L333 116 L351 116 M499 209 L505 221 L511 232 L523 247 M538 275 L541 285 L544 294 M662 202 L662 201 L657 197 L645 173 M593 88 L582 80 L562 72 M488 72 L471 82 L451 103 M405 194 L399 205 L395 209 M375 227 L366 237 M136 298 L125 300 L112 300 L77 280 M0 135 L0 128 L1 117 M28 41 L34 37 L44 28 M125 0 L142 2 L172 3 " fill="none" stroke="black" /><path d="M135 133 L139 140 L150 164 L166 196 M240 215 L252 214 L270 207 M327 116 L328 116 L333 116 L351 116 M499 209 L505 221 L511 232 L523 247 M538 275 L541 285 L544 294 M662 202 L662 201 L657 197 L645 173 M593 88 L582 80 L562 72 M488 72 L471 82 L451 103 M405 194 L399 205 L395 209 M375 227 L366 237 M136 298 L125 300 L112 300 L77 280 M0 135 L0 128 L1 117 M28 41 L34 37 L44 28 M125 0 L142 2 L172 3 M295 25 L295 28 " fill="none" stroke="black" /><path d="M135 133 L139 140 L150 164 L166 196 M240 215 L252 214 L270 207 M327 116 L328 116 L333 116 L351 116 M499 209 L505 221 L511 232 L523 247 M538 275 L541 285 L544 294 M662 202 L662 201 L657 197 L645 173 M593 88 L582 80 L562 72 M488 72 L471 82 L451 103 M405 194 L399 205 L395 209 M375 227 L366 237 M136 298 L125 300 L112 300 L77 280 M0 135 L0 128 L1 117 M28 41 L34 37 L44 28 M125 0 L142 2 L172 3 M295 25 L295 28 M278 77 L271 88 L270 95 " fill="none" stroke="black" /><path d="M135 133 L139 140 L150 164 L166 196 M240 215 L252 214 L270 207 M327 116 L328 116 L333 116 L351 116 M499 209 L505 221 L511 232 L523 247 M538 275 L541 285 L544 294 M662 202 L662 201 L657 197 L645 173 M593 88 L582 80 L562 72 M488 72 L471 82 L451 103 M405 194 L399 205 L395 209 M375 227 L366 237 M136 298 L125 300 L112 300 L77 280 M0 135 L0 128 L1 117 M28 41 L34 37 L44 28 M125 0 L142 2 L172 3 M295 25 L295 28 M278 77 L271 88 L270 95 M270 168 L279 195 L289 207 " fill="none" stroke="black" /><path d="M135 133 L139 140 L150 164 L166 196 M240 215 L252 214 L270 207 M327 116 L328 116 L333 116 L351 116 M499 209 L505 221 L511 232 L523 247 M538 275 L541 285 L544 294 M662 202 L662 201 L657 197 L645 173 M593 88 L582 80 L562 72 M488 72 L471 82 L451 103 M405 194 L399 205 L395 209 M375 227 L366 237 M136 298 L125 300 L112 300 L77 280 M0 135 L0 128 L1 117 M28 41 L34 37 L44 28 M125 0 L142 2 L172 3 M295 25 L295 28 M278 77 L271 88 L270 95 M270 168 L279 195 L289 207 M334 244 L340 252 " fill="none" stroke="black" /><path d="M135 133 L139 140 L150 164 L166 196 M240 215 L252 214 L270 207 M327 116 L328 116 L333 116 L351 116 M499 209 L505 221 L511 232 L523 247 M538 275 L541 285 L544 294 M662 202 L662 201 L657 197 L645 173 M593 88 L582 80 L562 72 M488 72 L471 82 L451 103 M405 194 L399 205 L395 209 M375 227 L366 237 M136 298 L125 300 L112 300 L77 280 M0 135 L0 128 L1 117 M28 41 L34 37 L44 28 M125 0 L142 2 L172 3 M295 25 L295 28 M278 77 L271 88 L270 95 M270 168 L279 195 L289 207 M334 244 L340 252 M356 330 L371 332 " fill="none" stroke="black" /></svg>