<?xml version="1.0" encoding="utf-8" ?>
<svg baseProfile="tiny" height="256" version="1.2" viewBox="-3 -3 685 256" width="685" xmlns="http://www.w3.org/2000/svg" xmlns:ev="http://www.w3.org/2001/xml-events" xmlns:xlink="http://www.w3.org/1999/xlink"><defs /><path d="M56 8 L57 8 L76 17 L150 54 L260 111 L375 166 L436 181 L471 168 L479 136 L471 117 L459 105 " fill="none" stroke="black" /><path d="M56 8 L57 8 L76 17 L150 54 L260 111 L375 166 L436 181 L471 168 L479 136 L471 117 L459 105 M344 90 L340 90 L324 102 L280 147 " fill="none" stroke="black" /><path d="M56 8 L57 8 L76 17 L150 54 L260 111 L375 166 L436 181 L471 168 L479 136 L471 117 L459 105 M344 90 L340 90 L324 102 L280 147 M222 213 L214 224 L200 236 " fill="none" stroke="black" /><path d="M56 8 L57 8 L76 17 L150 54 L260 111 L375 166 L436 181 L471 168 L479 136 L471 117 L459 105 M344 90 L340 90 L324 102 L280 147 M222 213 L214 224 L200 236 M0 53 L10 48 L40 40 " fill="none" stroke="black" /><path d="M56 8 L57 8 L76 17 L150 54 L260 111 L375 166 L436 181 L471 168 L479 136 L471 117 L459 105 M344 90 L340 90 L324 102 L280 147 M222 213 L214 224 L200 236 M0 53 L10 48 L40 40 M188 31 L191 33 L204 38 " fill="none" stroke="black" /><path d="M56 8 L57 8 L76 17 L150 54 L260 111 L375 166 L436 181 L471 168 L479 136 L471 117 L459 105 M344 90 L340 90 L324 102 L280 147 M222 213 L214 224 L200 236 M0 53 L10 48 L40 40 M188 31 L191 33 L204 38 M388 162 L410 191 L436 221 " fill="none" stroke="black" /><path d="M56 8 L57 8 L76 17 L150 54 L260 111 L375 166 L436 181 L471 168 L479 136 L471 117 L459 105 M344 90 L340 90 L324 102 L280 147 M222 213 L214 224 L200 236 M0 53 L10 48 L40 40 M188 31 L191 33 L204 38 M388 162 L410 191 L436 221 M500 249 L521 256 " fill="none" stroke="black" /><path d="M56 8 L57 8 L76 17 L150 54 L260 111 L375 166 L436 181 L471 168 L479 136 L471 117 L459 105 M344 90 L340 90 L324 102 L280 147 M222 213 L214 224 L200 236 M0 53 L10 48 L40 40 M188 31 L191 33 L204 38 M388 162 L410 191 L436 221 M500 249 L521 256 M685 162 L676 137 L657 111 L625 86 L566 55 " fill="none" stroke="black" /><path d="M56 8 L57 8 L76 17 L150 54 L260 111 L375 166 L436 181 L471 168 L479 136 L471 117 L459 105 M344 90 L340 90 L324 102 L280 147 M222 213 L214 224 L200 236 M0 53 L10 48 L40 40 M188 31 L191 33 L204 38 M388 162 L410 191 L436 221 M500 249 L521 256 M685 162 L676 137 L657 111 L625 86 L566 55 M303 97 L243 166 L200 200 L168 213 " fill="none" stroke="black" /><path d="M56 8 L57 8 L76 17 L150 54 L260 111 L375 166 L436 181 L471 168 L479 136 L471 117 L459 105 M344 90 L340 90 L324 102 L280 147 M222 213 L214 224 L200 236 M0 53 L10 48 L40 40 M188 31 L191 33 L204 38 M388 162 L410 191 L436 221 M500 249 L521 256 M685 162 L676 137 L657 111 L625 86 L566 55 M303 97 L243 166 L200 200 L168 213 M73 214 L45 187 " fill="none" stroke="black" /><path d="M56 8 L57 8 L76 17 L150 54 L260 111 L375 166 L436 181 L471 168 L479 136 L471 117 L459 105 M344 90 L340 90 L324 102 L280 147 M222 213 L214 224 L200 236 M0 53 L10 48 L40 40 M188 31 L191 33 L204 38 M388 162 L410 191 L436 221 M500 249 L521 256 M685 162 L676 137 L657 111 L625 86 L566 55 M303 97 L243 166 L200 200 L168 213 M73 214 L45 187 M37 14 L64 14 L137 16 " fill="none" stroke="black" /><path d="M56 8 L57 8 L76 17 L150 54 L260 111 L375 166 L436 181 L471 168 L479 136 L471 117 L459 105 M344 90 L340 90 L324 102 L280 147 M222 213 L214 224 L200 236 M0 53 L10 48 L40 40 M188 31 L191 33 L204 38 M388 162 L410 191 L436 221 M500 249 L521 256 M685 162 L676 137 L657 111 L625 86 L566 55 M303 97 L243 166 L200 200 L168 213 M73 214 L45 187 M37 14 L64 14 L137 16 M324 28 L328 38 L340 59 L384 113 " fill="none" stroke="black" /><path d="M56 8 L57 8 L76 17 L150 54 L260 111 L375 166 L436 181 L471 168 L479 136 L471 117 L459 105 M344 90 L340 90 L324 102 L280 147 M222 213 L214 224 L200 236 M0 53 L10 48 L40 40 M188 31 L191 33 L204 38 M388 162 L410 191 L436 221 M500 249 L521 256 M685 162 L676 137 L657 111 L625 86 L566 55 M303 97 L243 166 L200 200 L168 213 M73 214 L45 187 M37 14 L64 14 L137 16 M324 28 L328 38 L340 59 L384 113 M518 218 L528 225 L548 238 L591 246 " fill="none" stroke="black" /><path d="M56 8 L57 8 L76 17 L150 54 L260 111 L375 166 L436 181 L471 168 L479 136 L471 117 L459 105 M344 90 L340 90 L324 102 L280 147 M222 213 L214 224 L200 236 M0 53 L10 48 L40 40 M188 31 L191 33 L204 38 M388 162 L410 191 L436 221 M500 249 L521 256 M685 162 L676 137 L657 111 L625 86 L566 55 M303 97 L243 166 L200 200 L168 213 M73 214 L45 187 M37 14 L64 14 L137 16 M324 28 L328 38 L340 59 L384 113 M518 218 L528 225 L548 238 L591 246 M669 237 L677 227 " fill="none" stroke="black" /><path d="M56 8 L57 8 L76 17 L150 54 L260 111 L375 166 L436 181 L471 168 L479 136 L471 117 L459 105 M344 90 L340 90 L324 102 L280 147 M222 213 L214 224 L200 236 M0 53 L10 48 L40 40 M188 31 L191 33 L204 38 M388 162 L410 191 L436 221 M500 249 L521 256 M685 162 L676 137 L657 111 L625 86 L566 55 M303 97 L243 166 L200 200 L168 213 M73 214 L45 187 M37 14 L64 14 L137 16 M324 28 L328 38 L340 59 L384 113 M518 218 L528 225 L548 238 L591 246 M669 237 L677 227 M481 0 L478 1 " fill="none" stroke="black" /><path d="M56 8 L57 8 L76 17 L150 54 L260 111 L375 166 L436 181 L471 168 L479 136 L471 117 L459 105 M344 90 L340 90 L324 102 L280 147 M222 213 L214 224 L200 236 M0 53 L10 48 L40 40 M188 31 L191 33 L204 38 M388 162 L410 191 L436 221 M500 249 L521 256 M685 162 L676 137 L657 111 L625 86 L566 55 M303 97 L243 166 L200 200 L168 213 M73 214 L45 187 M37 14 L64 14 L137 16 M324 28 L328 38 L340 59 L384 113 M518 218 L528 225 L548 238 L591 246 M669 237 L677 227 M481 0 L478 1 M416 91 L394 134 L384 158 " fill="none" stroke="black" /><path d="M56 8 L57 8 L76 17 L150 54 L260 111 L375 166 L436 181 L471 168 L479 136 L471 117 L459 105 M344 90 L340 90 L324 102 L280 147 M222 213 L214 224 L200 236 M0 53 L10 48 L40 40 M188 31 L191 33 L204 38 M388 162 L410 191 L436 221 M500 249 L521 256 M685 162 L676 137 L657 111 L625 86 L566 55 M303 97 L243 166 L200 200 L168 213 M73 214 L45 187 M37 14 L64 14 L137 16 M324 28 L328 38 L340 59 L384 113 M518 218 L528 225 L548 238 L591 246 M669 237 L677 227 M481 0 L478 1 M416 91 L394 134 L384 158 M368 184 L356 198 L340 207 " fill="none" stroke="black" /></svg>