<?xml version="1.0" encoding="utf-8" ?>
<svg baseProfile="tiny" height="441" version="1.2" viewBox="-3 -3 666 441" width="666" xmlns="http://www.w3.org/2000/svg" xmlns:ev="http://www.w3.org/2001/xml-events" xmlns:xlink="http://www.w3.org/1999/xlink"><defs /><path d="M362 128 L428 157 L479 189 L515 211 L474 239 L211 293 L0 365 L41 350 L359 241 L631 218 L598 242 L394 289 L278 279 L285 265 L387 204 L453 177 L403 179 L153 175 L146 149 L312 34 L371 0 L344 97 L265 341 L280 336 L405 201 " fill="none" stroke="black" /><path d="M362 128 L428 157 L479 189 L515 211 L474 239 L211 293 L0 365 L41 350 L359 241 L631 218 L598 242 L394 289 L278 279 L285 265 L387 204 L453 177 L403 179 L153 175 L146 149 L312 34 L371 0 L344 97 L265 341 L280 336 L405 201 M526 186 L497 212 " fill="none" stroke="black" /><path d="M362 128 L428 157 L479 189 L515 211 L474 239 L211 293 L0 365 L41 350 L359 241 L631 218 L598 242 L394 289 L278 279 L285 265 L387 204 L453 177 L403 179 L153 175 L146 149 L312 34 L371 0 L344 97 L265 341 L280 336 L405 201 M526 186 L497 212 M493 236 L484 261 L478 273 L452 315 L435 328 L421 281 L341 89 L310 32 L346 88 L450 250 L476 293 L396 219 L275 149 L251 146 L250 149 L378 210 L640 322 " fill="none" stroke="black" /><path d="M362 128 L428 157 L479 189 L515 211 L474 239 L211 293 L0 365 L41 350 L359 241 L631 218 L598 242 L394 289 L278 279 L285 265 L387 204 L453 177 L403 179 L153 175 L146 149 L312 34 L371 0 L344 97 L265 341 L280 336 L405 201 M526 186 L497 212 M493 236 L484 261 L478 273 L452 315 L435 328 L421 281 L341 89 L310 32 L346 88 L450 250 L476 293 L396 219 L275 149 L251 146 L250 149 L378 210 L640 322 M224 337 L221 329 L197 249 " fill="none" stroke="black" /><path d="M362 128 L428 157 L479 189 L515 211 L474 239 L211 293 L0 365 L41 350 L359 241 L631 218 L598 242 L394 289 L278 279 L285 265 L387 204 L453 177 L403 179 L153 175 L146 149 L312 34 L371 0 L344 97 L265 341 L280 336 L405 201 M526 186 L497 212 M493 236 L484 261 L478 273 L452 315 L435 328 L421 281 L341 89 L310 32 L346 88 L450 250 L476 293 L396 219 L275 149 L251 146 L250 149 L378 210 L640 322 M224 337 L221 329 L197 249 M130 128 L154 276 L185 349 L220 390 L258 393 L318 319 " fill="none" stroke="black" /><path d="M362 128 L428 157 L479 189 L515 211 L474 239 L211 293 L0 365 L41 350 L359 241 L631 218 L598 242 L394 289 L278 279 L285 265 L387 204 L453 177 L403 179 L153 175 L146 149 L312 34 L371 0 L344 97 L265 341 L280 336 L405 201 M526 186 L497 212 M493 236 L484 261 L478 273 L452 315 L435 328 L421 281 L341 89 L310 32 L346 88 L450 250 L476 293 L396 219 L275 149 L251 146 L250 149 L378 210 L640 322 M224 337 L221 329 L197 249 M130 128 L154 276 L185 349 L220 390 L258 393 L318 319 M353 242 L375 382 L430 441 L530 409 L635 317 " fill="none" stroke="black" /><path d="M362 128 L428 157 L479 189 L515 211 L474 239 L211 293 L0 365 L41 350 L359 241 L631 218 L598 242 L394 289 L278 279 L285 265 L387 204 L453 177 L403 179 L153 175 L146 149 L312 34 L371 0 L344 97 L265 341 L280 336 L405 201 M526 186 L497 212 M493 236 L484 261 L478 273 L452 315 L435 328 L421 281 L341 89 L310 32 L346 88 L450 250 L476 293 L396 219 L275 149 L251 146 L250 149 L378 210 L640 322 M224 337 L221 329 L197 249 M130 128 L154 276 L185 349 L220 390 L258 393 L318 319 M353 242 L375 382 L430 441 L530 409 L635 317 M666 226 L657 234 L641 239 L599 240 " fill="none" stroke="black" /><path d="M362 128 L428 157 L479 189 L515 211 L474 239 L211 293 L0 365 L41 350 L359 241 L631 218 L598 242 L394 289 L278 279 L285 265 L387 204 L453 177 L403 179 L153 175 L146 149 L312 34 L371 0 L344 97 L265 341 L280 336 L405 201 M526 186 L497 212 M493 236 L484 261 L478 273 L452 315 L435 328 L421 281 L341 89 L310 32 L346 88 L450 250 L476 293 L396 219 L275 149 L251 146 L250 149 L378 210 L640 322 M224 337 L221 329 L197 249 M130 128 L154 276 L185 349 L220 390 L258 393 L318 319 M353 242 L375 382 L430 441 L530 409 L635 317 M666 226 L657 234 L641 239 L599 240 M380 149 L407 133 L490 94 L531 87 L551 159 L553 276 L546 296 L545 292 L523 166 L499 57 L498 47 L497 67 L477 216 L447 294 L427 299 L358 227 L275 141 L251 110 L251 81 L270 63 L276 124 L245 333 L235 370 L220 362 L170 297 L128 221 L122 191 L125 180 L161 181 L257 230 " fill="none" stroke="black" /></svg>