<?xml version="1.0" encoding="utf-8" ?>
<svg baseProfile="tiny" height="408" version="1.2" viewBox="-3 -3 713 408" width="713" xmlns="http://www.w3.org/2000/svg" xmlns:ev="http://www.w3.org/2001/xml-events" xmlns:xlink="http://www.w3.org/1999/xlink"><defs /><path d="M0 41 L5 55 L17 86 L37 135 L49 179 L56 214 L61 247 L65 274 L69 296 L79 321 L92 340 L106 356 L129 374 L152 388 L181 398 L218 405 L264 408 L314 399 L353 380 L413 328 L465 260 L506 192 L529 146 L549 101 L572 55 L595 20 L611 4 L621 1 L630 0 L641 3 L659 14 L675 31 L693 60 L704 100 L711 155 L713 222 L705 293 L673 344 L625 374 L562 388 L477 381 L377 295 L297 181 L256 116 L228 82 L217 77 " fill="none" stroke="black" /></svg>