<?xml version="1.0" encoding="utf-8" ?>
<svg baseProfile="tiny" height="431" version="1.2" viewBox="-3 -3 1129 431" width="1129" xmlns="http://www.w3.org/2000/svg" xmlns:ev="http://www.w3.org/2001/xml-events" xmlns:xlink="http://www.w3.org/1999/xlink"><defs /><path d="M164 110 L176 132 L218 189 L254 238 L274 268 L276 285 L245 306 L154 311 L60 295 L0 270 L0 256 L124 219 L480 200 L750 213 L824 213 L823 213 L811 213 " fill="none" stroke="black" /><path d="M164 110 L176 132 L218 189 L254 238 L274 268 L276 285 L245 306 L154 311 L60 295 L0 270 L0 256 L124 219 L480 200 L750 213 L824 213 L823 213 L811 213 M559 0 L559 8 L559 81 L544 211 L524 295 L515 320 L507 329 L496 335 L477 340 L460 344 L446 345 L433 345 L422 328 L397 247 L400 220 L411 216 L443 233 L543 297 L700 387 L854 429 L912 431 L916 428 " fill="none" stroke="black" /><path d="M164 110 L176 132 L218 189 L254 238 L274 268 L276 285 L245 306 L154 311 L60 295 L0 270 L0 256 L124 219 L480 200 L750 213 L824 213 L823 213 L811 213 M559 0 L559 8 L559 81 L544 211 L524 295 L515 320 L507 329 L496 335 L477 340 L460 344 L446 345 L433 345 L422 328 L397 247 L400 220 L411 216 L443 233 L543 297 L700 387 L854 429 L912 431 L916 428 M821 123 L816 142 L799 220 L784 281 L770 324 L741 370 L716 389 L700 391 L688 390 L679 356 L676 297 L696 270 L727 271 L848 342 L1015 411 L1105 423 L1129 415 " fill="none" stroke="black" /><path d="M164 110 L176 132 L218 189 L254 238 L274 268 L276 285 L245 306 L154 311 L60 295 L0 270 L0 256 L124 219 L480 200 L750 213 L824 213 L823 213 L811 213 M559 0 L559 8 L559 81 L544 211 L524 295 L515 320 L507 329 L496 335 L477 340 L460 344 L446 345 L433 345 L422 328 L397 247 L400 220 L411 216 L443 233 L543 297 L700 387 L854 429 L912 431 L916 428 M821 123 L816 142 L799 220 L784 281 L770 324 L741 370 L716 389 L700 391 L688 390 L679 356 L676 297 L696 270 L727 271 L848 342 L1015 411 L1105 423 L1129 415 M779 57 L761 79 L715 147 L620 237 L528 278 L455 292 L404 289 L356 261 " fill="none" stroke="black" /></svg>