<?xml version="1.0" encoding="utf-8" ?>
<svg baseProfile="tiny" height="395" version="1.2" viewBox="-3 -3 815 395" width="815" xmlns="http://www.w3.org/2000/svg" xmlns:ev="http://www.w3.org/2001/xml-events" xmlns:xlink="http://www.w3.org/1999/xlink"><defs /><path d="M135 26 L127 31 L86 49 L45 64 L15 73 L5 77 L3 79 L1 90 L0 108 L4 132 L18 151 L43 171 L80 187 L119 190 L161 181 L236 118 L317 36 L358 8 L385 1 L410 0 L434 11 L469 51 L503 133 L519 216 L524 295 L526 349 L527 375 L527 383 L531 391 L534 395 " fill="none" stroke="black" /><path d="M135 26 L127 31 L86 49 L45 64 L15 73 L5 77 L3 79 L1 90 L0 108 L4 132 L18 151 L43 171 L80 187 L119 190 L161 181 L236 118 L317 36 L358 8 L385 1 L410 0 L434 11 L469 51 L503 133 L519 216 L524 295 L526 349 L527 375 L527 383 L531 391 L534 395 M215 14 L240 87 L267 191 L285 286 L302 351 L320 379 L346 387 L393 374 L507 298 L616 179 L662 109 L672 88 L677 82 " fill="none" stroke="black" /><path d="M135 26 L127 31 L86 49 L45 64 L15 73 L5 77 L3 79 L1 90 L0 108 L4 132 L18 151 L43 171 L80 187 L119 190 L161 181 L236 118 L317 36 L358 8 L385 1 L410 0 L434 11 L469 51 L503 133 L519 216 L524 295 L526 349 L527 375 L527 383 L531 391 L534 395 M215 14 L240 87 L267 191 L285 286 L302 351 L320 379 L346 387 L393 374 L507 298 L616 179 L662 109 L672 88 L677 82 M639 81 L612 86 L581 98 L552 117 L517 147 L464 177 L409 194 L320 205 L231 209 L171 205 L133 190 L110 167 L99 149 L98 137 L102 124 L123 107 L166 82 L213 70 L247 81 L293 131 L347 203 L411 264 L469 296 L536 323 L611 335 L695 333 L772 314 L815 287 " fill="none" stroke="black" /></svg>