<?xml version="1.0" encoding="utf-8" ?>
<svg baseProfile="tiny" height="386" version="1.2" viewBox="-3 -3 787 386" width="787" xmlns="http://www.w3.org/2000/svg" xmlns:ev="http://www.w3.org/2001/xml-events" xmlns:xlink="http://www.w3.org/1999/xlink"><defs /><path d="M0 2 L4 0 L16 0 L28 0 L39 3 L48 11 L58 24 L62 40 L64 59 L64 82 L60 104 L58 122 L56 143 L54 162 L54 178 L57 200 L63 218 L68 232 L76 244 L88 256 L103 266 L118 275 L133 280 L147 285 L159 288 L168 289 L181 289 L200 289 L219 284 L230 276 L246 260 L267 226 L279 202 L288 175 L295 144 L299 127 L303 115 L308 103 L314 93 L320 87 L328 78 L343 65 L360 55 L373 50 L390 47 L402 45 L415 45 L428 45 L440 48 L453 54 L468 64 L489 76 L509 92 L524 108 L542 133 L553 148 L557 158 L558 168 L559 179 L559 188 L557 200 L553 216 L548 235 L544 252 L540 270 L538 290 L536 307 L536 324 L539 338 L544 352 L551 362 L557 370 L567 377 L580 382 L592 384 L602 386 L616 386 L639 383 L660 378 L679 372 L699 361 L727 339 L747 320 L764 298 L777 276 L783 256 L787 238 L787 220 L782 206 L774 189 L761 173 L752 163 L741 156 L722 144 L703 133 L683 127 L671 125 L663 125 L649 129 L632 140 L612 152 L596 164 L583 176 L569 190 L555 205 L542 218 L531 231 L516 244 L501 257 L484 270 L459 284 L430 296 L394 306 L353 311 L320 311 L285 302 L246 283 L216 256 L204 233 L199 202 L198 172 L198 148 L200 127 L200 113 L200 106 L200 100 L200 94 L201 87 L204 76 L208 67 L210 56 L212 48 L213 43 " fill="none" stroke="black" /></svg>