<?xml version="1.0" encoding="utf-8" ?>
<svg baseProfile="tiny" height="415" version="1.2" viewBox="-3 -3 853 415" width="853" xmlns="http://www.w3.org/2000/svg" xmlns:ev="http://www.w3.org/2001/xml-events" xmlns:xlink="http://www.w3.org/1999/xlink"><defs /><path d="M81 57 L89 60 L128 80 L169 110 L219 177 L263 259 L312 313 L369 332 L437 336 L510 316 L580 255 L613 179 L615 134 L601 110 L590 102 L565 102 L527 125 L469 168 L403 224 L335 283 L247 334 L174 359 L140 358 L115 343 L92 332 L85 326 " fill="none" stroke="black" /><path d="M81 57 L89 60 L128 80 L169 110 L219 177 L263 259 L312 313 L369 332 L437 336 L510 316 L580 255 L613 179 L615 134 L601 110 L590 102 L565 102 L527 125 L469 168 L403 224 L335 283 L247 334 L174 359 L140 358 L115 343 L92 332 L85 326 M104 200 L112 200 L153 200 L244 200 L372 198 L531 168 L629 140 " fill="none" stroke="black" /><path d="M81 57 L89 60 L128 80 L169 110 L219 177 L263 259 L312 313 L369 332 L437 336 L510 316 L580 255 L613 179 L615 134 L601 110 L590 102 L565 102 L527 125 L469 168 L403 224 L335 283 L247 334 L174 359 L140 358 L115 343 L92 332 L85 326 M104 200 L112 200 L153 200 L244 200 L372 198 L531 168 L629 140 M553 0 L553 18 L553 73 L560 179 L568 272 L572 320 L574 325 " fill="none" stroke="black" /><path d="M81 57 L89 60 L128 80 L169 110 L219 177 L263 259 L312 313 L369 332 L437 336 L510 316 L580 255 L613 179 L615 134 L601 110 L590 102 L565 102 L527 125 L469 168 L403 224 L335 283 L247 334 L174 359 L140 358 L115 343 L92 332 L85 326 M104 200 L112 200 L153 200 L244 200 L372 198 L531 168 L629 140 M553 0 L553 18 L553 73 L560 179 L568 272 L572 320 L574 325 M853 150 L852 150 L835 151 L736 180 L554 228 L379 255 L251 259 L204 247 L201 240 L200 231 " fill="none" stroke="black" /><path d="M81 57 L89 60 L128 80 L169 110 L219 177 L263 259 L312 313 L369 332 L437 336 L510 316 L580 255 L613 179 L615 134 L601 110 L590 102 L565 102 L527 125 L469 168 L403 224 L335 283 L247 334 L174 359 L140 358 L115 343 L92 332 L85 326 M104 200 L112 200 L153 200 L244 200 L372 198 L531 168 L629 140 M553 0 L553 18 L553 73 L560 179 L568 272 L572 320 L574 325 M853 150 L852 150 L835 151 L736 180 L554 228 L379 255 L251 259 L204 247 L201 240 L200 231 M209 124 L217 124 L237 125 L281 144 L324 188 L381 272 L452 343 L513 382 L557 404 L590 414 L612 415 " fill="none" stroke="black" /><path d="M81 57 L89 60 L128 80 L169 110 L219 177 L263 259 L312 313 L369 332 L437 336 L510 316 L580 255 L613 179 L615 134 L601 110 L590 102 L565 102 L527 125 L469 168 L403 224 L335 283 L247 334 L174 359 L140 358 L115 343 L92 332 L85 326 M104 200 L112 200 L153 200 L244 200 L372 198 L531 168 L629 140 M553 0 L553 18 L553 73 L560 179 L568 272 L572 320 L574 325 M853 150 L852 150 L835 151 L736 180 L554 228 L379 255 L251 259 L204 247 L201 240 L200 231 M209 124 L217 124 L237 125 L281 144 L324 188 L381 272 L452 343 L513 382 L557 404 L590 414 L612 415 M567 147 L564 147 L559 148 L538 157 L505 177 L466 200 L424 212 L397 222 L379 231 L370 235 L366 237 L360 241 " fill="none" stroke="black" /><path d="M81 57 L89 60 L128 80 L169 110 L219 177 L263 259 L312 313 L369 332 L437 336 L510 316 L580 255 L613 179 L615 134 L601 110 L590 102 L565 102 L527 125 L469 168 L403 224 L335 283 L247 334 L174 359 L140 358 L115 343 L92 332 L85 326 M104 200 L112 200 L153 200 L244 200 L372 198 L531 168 L629 140 M553 0 L553 18 L553 73 L560 179 L568 272 L572 320 L574 325 M853 150 L852 150 L835 151 L736 180 L554 228 L379 255 L251 259 L204 247 L201 240 L200 231 M209 124 L217 124 L237 125 L281 144 L324 188 L381 272 L452 343 L513 382 L557 404 L590 414 L612 415 M567 147 L564 147 L559 148 L538 157 L505 177 L466 200 L424 212 L397 222 L379 231 L370 235 L366 237 L360 241 M0 32 L103 84 L270 133 L412 149 L488 147 L514 143 " fill="none" stroke="black" /></svg>