<?xml version="1.0" encoding="utf-8" ?>
<svg baseProfile="tiny" height="433" version="1.2" viewBox="-3 -3 1011 433" width="1011" xmlns="http://www.w3.org/2000/svg" xmlns:ev="http://www.w3.org/2001/xml-events" xmlns:xlink="http://www.w3.org/1999/xlink"><defs /><path d="M276 34 L360 36 L407 42 L405 48 L328 112 L215 195 L200 205 L242 171 L428 43 L482 0 L459 20 L298 145 L105 234 L74 223 L102 129 L184 65 L210 55 L204 130 L190 187 L196 175 L230 86 L263 31 L274 52 L300 210 L322 268 L332 246 L364 128 L386 103 L400 160 L418 271 L435 303 L449 304 L498 283 L588 223 L615 209 L620 223 L630 254 L648 260 L695 243 L725 231 L735 256 L744 303 L747 305 L761 244 L780 172 L781 172 L782 217 L774 289 L784 343 L810 340 L901 232 L944 131 L945 110 L939 123 L884 226 L821 277 L817 270 L788 144 L777 94 L776 91 L779 128 L796 187 L802 188 L829 121 L845 55 L847 52 L857 103 L897 191 L916 207 L949 199 L984 214 L1008 327 L1007 392 L1010 389 L1011 390 L992 414 L955 433 L904 421 L773 323 L687 271 L680 271 L672 299 L618 366 L559 385 L480 328 L427 280 L411 271 L395 275 L380 292 L369 306 L344 311 L293 295 L250 287 L205 292 L152 301 L116 295 L96 283 L22 241 L11 236 L8 262 L0 291 L0 292 L4 222 L10 139 " fill="none" stroke="black" /></svg>