<?xml version="1.0" encoding="utf-8" ?>
<svg baseProfile="tiny" height="420" version="1.2" viewBox="-3 -3 847 420" width="847" xmlns="http://www.w3.org/2000/svg" xmlns:ev="http://www.w3.org/2001/xml-events" xmlns:xlink="http://www.w3.org/1999/xlink"><defs /><path d="M184 0 L187 4 L201 22 L229 52 L273 97 L328 150 L378 194 L413 220 L440 237 L452 244 L455 244 " fill="none" stroke="black" /><path d="M184 0 L187 4 L201 22 L229 52 L273 97 L328 150 L378 194 L413 220 L440 237 L452 244 L455 244 M430 26 L383 87 L340 133 L290 174 L241 209 L181 246 L131 274 L90 289 L70 293 L58 293 L49 292 " fill="none" stroke="black" /><path d="M184 0 L187 4 L201 22 L229 52 L273 97 L328 150 L378 194 L413 220 L440 237 L452 244 L455 244 M430 26 L383 87 L340 133 L290 174 L241 209 L181 246 L131 274 L90 289 L70 293 L58 293 L49 292 M0 99 L23 132 L61 180 L97 226 L152 280 L212 325 L269 354 L324 373 L379 386 L433 392 L491 395 L529 393 L569 376 L615 352 L644 328 " fill="none" stroke="black" /><path d="M184 0 L187 4 L201 22 L229 52 L273 97 L328 150 L378 194 L413 220 L440 237 L452 244 L455 244 M430 26 L383 87 L340 133 L290 174 L241 209 L181 246 L131 274 L90 289 L70 293 L58 293 L49 292 M0 99 L23 132 L61 180 L97 226 L152 280 L212 325 L269 354 L324 373 L379 386 L433 392 L491 395 L529 393 L569 376 L615 352 L644 328 M582 135 L569 196 L541 261 L505 300 L462 329 L385 356 L268 380 L163 392 L113 389 L85 376 L69 365 L63 363 " fill="none" stroke="black" /><path d="M184 0 L187 4 L201 22 L229 52 L273 97 L328 150 L378 194 L413 220 L440 237 L452 244 L455 244 M430 26 L383 87 L340 133 L290 174 L241 209 L181 246 L131 274 L90 289 L70 293 L58 293 L49 292 M0 99 L23 132 L61 180 L97 226 L152 280 L212 325 L269 354 L324 373 L379 386 L433 392 L491 395 L529 393 L569 376 L615 352 L644 328 M582 135 L569 196 L541 261 L505 300 L462 329 L385 356 L268 380 L163 392 L113 389 L85 376 L69 365 L63 363 M461 324 L500 340 L539 350 L591 360 L646 364 L711 363 L767 348 L809 326 L847 295 " fill="none" stroke="black" /><path d="M184 0 L187 4 L201 22 L229 52 L273 97 L328 150 L378 194 L413 220 L440 237 L452 244 L455 244 M430 26 L383 87 L340 133 L290 174 L241 209 L181 246 L131 274 L90 289 L70 293 L58 293 L49 292 M0 99 L23 132 L61 180 L97 226 L152 280 L212 325 L269 354 L324 373 L379 386 L433 392 L491 395 L529 393 L569 376 L615 352 L644 328 M582 135 L569 196 L541 261 L505 300 L462 329 L385 356 L268 380 L163 392 L113 389 L85 376 L69 365 L63 363 M461 324 L500 340 L539 350 L591 360 L646 364 L711 363 L767 348 L809 326 L847 295 M713 154 L722 228 L729 300 L729 344 L715 368 L687 387 L652 404 L626 415 L609 420 " fill="none" stroke="black" /></svg>