<?xml version="1.0" encoding="utf-8" ?>
<svg baseProfile="tiny" height="394" version="1.2" viewBox="-3 -3 950 394" width="950" xmlns="http://www.w3.org/2000/svg" xmlns:ev="http://www.w3.org/2001/xml-events" xmlns:xlink="http://www.w3.org/1999/xlink"><defs /><path d="M590 135 L603 172 L615 206 L640 262 L673 306 L698 325 L736 338 L784 342 L826 339 L874 310 L922 249 L950 192 " fill="none" stroke="black" /><path d="M590 135 L603 172 L615 206 L640 262 L673 306 L698 325 L736 338 L784 342 L826 339 L874 310 L922 249 L950 192 M822 189 L796 209 L736 254 L653 311 L541 336 L420 330 L350 312 " fill="none" stroke="black" /><path d="M590 135 L603 172 L615 206 L640 262 L673 306 L698 325 L736 338 L784 342 L826 339 L874 310 L922 249 L950 192 M822 189 L796 209 L736 254 L653 311 L541 336 L420 330 L350 312 M294 0 L367 133 L430 240 L468 302 L491 338 L508 355 L523 366 L546 376 L574 382 L599 382 " fill="none" stroke="black" /><path d="M590 135 L603 172 L615 206 L640 262 L673 306 L698 325 L736 338 L784 342 L826 339 L874 310 L922 249 L950 192 M822 189 L796 209 L736 254 L653 311 L541 336 L420 330 L350 312 M294 0 L367 133 L430 240 L468 302 L491 338 L508 355 L523 366 L546 376 L574 382 L599 382 M465 132 L464 132 L437 141 L337 175 L194 223 L76 258 L13 270 L0 271 " fill="none" stroke="black" /><path d="M590 135 L603 172 L615 206 L640 262 L673 306 L698 325 L736 338 L784 342 L826 339 L874 310 L922 249 L950 192 M822 189 L796 209 L736 254 L653 311 L541 336 L420 330 L350 312 M294 0 L367 133 L430 240 L468 302 L491 338 L508 355 L523 366 L546 376 L574 382 L599 382 M465 132 L464 132 L437 141 L337 175 L194 223 L76 258 L13 270 L0 271 M468 87 L445 102 L404 125 L352 162 L293 214 L255 250 L232 272 L228 278 " fill="none" stroke="black" /><path d="M590 135 L603 172 L615 206 L640 262 L673 306 L698 325 L736 338 L784 342 L826 339 L874 310 L922 249 L950 192 M822 189 L796 209 L736 254 L653 311 L541 336 L420 330 L350 312 M294 0 L367 133 L430 240 L468 302 L491 338 L508 355 L523 366 L546 376 L574 382 L599 382 M465 132 L464 132 L437 141 L337 175 L194 223 L76 258 L13 270 L0 271 M468 87 L445 102 L404 125 L352 162 L293 214 L255 250 L232 272 L228 278 M246 113 L246 114 L256 140 L275 214 L304 313 L325 370 L335 393 L336 394 " fill="none" stroke="black" /></svg>