<?xml version="1.0" encoding="utf-8" ?>
<svg baseProfile="tiny" height="382" version="1.2" viewBox="-3 -3 976 382" width="976" xmlns="http://www.w3.org/2000/svg" xmlns:ev="http://www.w3.org/2001/xml-events" xmlns:xlink="http://www.w3.org/1999/xlink"><defs /><path d="M122 68 L122 71 L108 113 L61 194 L19 234 L2 246 L0 248 L5 240 L67 192 L240 72 L372 5 L386 0 L386 1 L372 28 L316 136 L258 262 L246 336 L254 337 L298 286 L390 148 L494 55 L497 54 L495 84 L475 210 L468 280 L482 282 L538 216 L606 124 L658 85 L662 94 L664 168 L664 240 L669 248 L686 232 L722 197 L759 188 L775 194 L788 261 L804 332 L815 348 L830 343 L881 255 L914 199 L915 197 L916 259 L911 351 L912 376 L914 382 L916 375 L947 313 L967 288 L970 289 L976 312 L976 350 L975 359 L975 360 L970 353 " fill="none" stroke="black" /></svg>