<?xml version="1.0" encoding="utf-8" ?>
<svg baseProfile="tiny" height="444" version="1.2" viewBox="-3 -3 857 444" width="857" xmlns="http://www.w3.org/2000/svg" xmlns:ev="http://www.w3.org/2001/xml-events" xmlns:xlink="http://www.w3.org/1999/xlink"><defs /><path d="M92 50 L94 44 L114 34 L168 23 L262 31 L323 54 L333 86 L308 167 L213 271 L77 329 L10 319 L0 263 L22 157 L144 67 L315 44 L449 80 L529 134 L589 177 L612 186 L617 190 L594 154 L529 89 L488 66 L481 74 L466 157 L448 290 L454 390 L475 441 L478 444 L482 430 L513 305 L561 164 L619 87 L660 54 L662 54 L662 66 L682 159 L719 250 L734 282 L738 303 L740 305 L756 272 L794 179 L839 112 L857 82 L855 81 L760 80 L553 138 L313 244 L229 269 L226 268 L267 211 L383 113 L487 53 L496 48 L467 45 L314 56 L91 118 L23 168 L22 171 L33 178 L94 189 L223 171 L366 122 L430 97 L430 99 L366 162 L184 305 L30 397 L17 406 L30 396 L102 318 L213 190 L263 110 L266 95 L266 97 L250 193 L245 333 L275 377 L297 371 L330 295 L370 163 L386 84 L386 67 L386 97 L380 227 L379 271 L378 269 L312 161 L200 16 L182 0 L171 20 L146 134 L154 214 L173 202 L247 66 L268 14 L266 34 L243 166 L239 206 L247 187 L281 92 L285 81 L274 128 L266 167 L278 143 L289 89 L288 81 L270 109 L255 143 L255 140 L255 90 L255 56 L255 71 L255 138 L263 142 L294 93 L297 61 L292 88 L292 98 L292 97 L292 93 L250 163 L218 213 L278 117 L346 13 " fill="none" stroke="black" /></svg>