<?xml version="1.0" encoding="utf-8" ?>
<svg baseProfile="tiny" height="419" version="1.2" viewBox="-3 -3 744 419" width="744" xmlns="http://www.w3.org/2000/svg" xmlns:ev="http://www.w3.org/2001/xml-events" xmlns:xlink="http://www.w3.org/1999/xlink"><defs /><path d="M173 48 L186 54 L210 70 L246 92 L293 125 L338 156 L402 196 L464 221 L510 237 L571 250 " fill="none" stroke="black" /><path d="M173 48 L186 54 L210 70 L246 92 L293 125 L338 156 L402 196 L464 221 L510 237 L571 250 M493 155 L485 165 L474 176 L458 191 L433 210 L393 232 L348 256 L302 276 L251 289 L210 297 L185 300 L150 300 L108 297 L70 289 " fill="none" stroke="black" /><path d="M173 48 L186 54 L210 70 L246 92 L293 125 L338 156 L402 196 L464 221 L510 237 L571 250 M493 155 L485 165 L474 176 L458 191 L433 210 L393 232 L348 256 L302 276 L251 289 L210 297 L185 300 L150 300 L108 297 L70 289 M178 193 L195 209 L219 229 L246 246 L278 262 L317 279 L358 295 L407 314 L455 329 L512 341 L575 351 L646 353 L717 346 " fill="none" stroke="black" /><path d="M173 48 L186 54 L210 70 L246 92 L293 125 L338 156 L402 196 L464 221 L510 237 L571 250 M493 155 L485 165 L474 176 L458 191 L433 210 L393 232 L348 256 L302 276 L251 289 L210 297 L185 300 L150 300 L108 297 L70 289 M178 193 L195 209 L219 229 L246 246 L278 262 L317 279 L358 295 L407 314 L455 329 L512 341 L575 351 L646 353 L717 346 M433 86 L430 92 L429 98 L424 109 L418 122 L410 137 L405 151 L401 161 L396 171 L390 184 L385 195 L381 205 L375 217 L371 231 L364 249 L355 273 L346 296 L334 314 L322 333 L307 351 L286 366 L258 380 L234 387 L209 392 L178 395 L156 396 L138 396 L118 393 L96 389 L82 385 L74 382 L67 377 L58 370 L46 360 L33 344 L22 328 L16 317 L10 301 L5 281 L1 257 L0 245 L0 235 L2 223 L6 212 L11 205 L19 196 L28 187 L40 178 L52 170 L59 167 L66 165 L71 162 L76 161 L82 161 L93 158 L114 155 L141 151 L162 149 L178 146 L190 145 L206 141 L222 137 L238 134 L256 129 L269 125 L284 120 L302 112 L317 101 L337 87 " fill="none" stroke="black" /><path d="M173 48 L186 54 L210 70 L246 92 L293 125 L338 156 L402 196 L464 221 L510 237 L571 250 M493 155 L485 165 L474 176 L458 191 L433 210 L393 232 L348 256 L302 276 L251 289 L210 297 L185 300 L150 300 L108 297 L70 289 M178 193 L195 209 L219 229 L246 246 L278 262 L317 279 L358 295 L407 314 L455 329 L512 341 L575 351 L646 353 L717 346 M433 86 L430 92 L429 98 L424 109 L418 122 L410 137 L405 151 L401 161 L396 171 L390 184 L385 195 L381 205 L375 217 L371 231 L364 249 L355 273 L346 296 L334 314 L322 333 L307 351 L286 366 L258 380 L234 387 L209 392 L178 395 L156 396 L138 396 L118 393 L96 389 L82 385 L74 382 L67 377 L58 370 L46 360 L33 344 L22 328 L16 317 L10 301 L5 281 L1 257 L0 245 L0 235 L2 223 L6 212 L11 205 L19 196 L28 187 L40 178 L52 170 L59 167 L66 165 L71 162 L76 161 L82 161 L93 158 L114 155 L141 151 L162 149 L178 146 L190 145 L206 141 L222 137 L238 134 L256 129 L269 125 L284 120 L302 112 L317 101 L337 87 M409 0 L410 7 L420 29 L441 70 L466 120 L494 177 L514 226 L526 267 L550 313 L595 369 L649 401 L722 419 " fill="none" stroke="black" /><path d="M173 48 L186 54 L210 70 L246 92 L293 125 L338 156 L402 196 L464 221 L510 237 L571 250 M493 155 L485 165 L474 176 L458 191 L433 210 L393 232 L348 256 L302 276 L251 289 L210 297 L185 300 L150 300 L108 297 L70 289 M178 193 L195 209 L219 229 L246 246 L278 262 L317 279 L358 295 L407 314 L455 329 L512 341 L575 351 L646 353 L717 346 M433 86 L430 92 L429 98 L424 109 L418 122 L410 137 L405 151 L401 161 L396 171 L390 184 L385 195 L381 205 L375 217 L371 231 L364 249 L355 273 L346 296 L334 314 L322 333 L307 351 L286 366 L258 380 L234 387 L209 392 L178 395 L156 396 L138 396 L118 393 L96 389 L82 385 L74 382 L67 377 L58 370 L46 360 L33 344 L22 328 L16 317 L10 301 L5 281 L1 257 L0 245 L0 235 L2 223 L6 212 L11 205 L19 196 L28 187 L40 178 L52 170 L59 167 L66 165 L71 162 L76 161 L82 161 L93 158 L114 155 L141 151 L162 149 L178 146 L190 145 L206 141 L222 137 L238 134 L256 129 L269 125 L284 120 L302 112 L317 101 L337 87 M409 0 L410 7 L420 29 L441 70 L466 120 L494 177 L514 226 L526 267 L550 313 L595 369 L649 401 L722 419 M744 148 L723 189 L694 231 L660 267 L610 307 L545 345 L462 373 L347 385 L259 384 " fill="none" stroke="black" /><path d="M173 48 L186 54 L210 70 L246 92 L293 125 L338 156 L402 196 L464 221 L510 237 L571 250 M493 155 L485 165 L474 176 L458 191 L433 210 L393 232 L348 256 L302 276 L251 289 L210 297 L185 300 L150 300 L108 297 L70 289 M178 193 L195 209 L219 229 L246 246 L278 262 L317 279 L358 295 L407 314 L455 329 L512 341 L575 351 L646 353 L717 346 M433 86 L430 92 L429 98 L424 109 L418 122 L410 137 L405 151 L401 161 L396 171 L390 184 L385 195 L381 205 L375 217 L371 231 L364 249 L355 273 L346 296 L334 314 L322 333 L307 351 L286 366 L258 380 L234 387 L209 392 L178 395 L156 396 L138 396 L118 393 L96 389 L82 385 L74 382 L67 377 L58 370 L46 360 L33 344 L22 328 L16 317 L10 301 L5 281 L1 257 L0 245 L0 235 L2 223 L6 212 L11 205 L19 196 L28 187 L40 178 L52 170 L59 167 L66 165 L71 162 L76 161 L82 161 L93 158 L114 155 L141 151 L162 149 L178 146 L190 145 L206 141 L222 137 L238 134 L256 129 L269 125 L284 120 L302 112 L317 101 L337 87 M409 0 L410 7 L420 29 L441 70 L466 120 L494 177 L514 226 L526 267 L550 313 L595 369 L649 401 L722 419 M744 148 L723 189 L694 231 L660 267 L610 307 L545 345 L462 373 L347 385 L259 384 M166 42 L170 57 L175 77 L183 105 L190 136 L194 161 L195 184 L198 206 L202 237 L206 277 L211 311 L216 337 " fill="none" stroke="black" /></svg>