<?xml version="1.0" encoding="utf-8" ?>
<svg baseProfile="tiny" height="355" version="1.2" viewBox="-3 -3 396 355" width="396" xmlns="http://www.w3.org/2000/svg" xmlns:ev="http://www.w3.org/2001/xml-events" xmlns:xlink="http://www.w3.org/1999/xlink"><defs /><circle cx="0" cy="86" fill="black" r="1" /><circle cx="68" cy="103" fill="black" r="1" /><path d="M168 140 L173 148 L178 157 " fill="none" stroke="black" /><path d="M168 140 L173 148 L178 157 M205 267 L205 268 " fill="none" stroke="black" /><path d="M168 140 L173 148 L178 157 M205 267 L205 268 M325 246 L325 245 " fill="none" stroke="black" /><path d="M168 140 L173 148 L178 157 M205 267 L205 268 M325 246 L325 245 M260 0 L256 0 L244 7 " fill="none" stroke="black" /><path d="M168 140 L173 148 L178 157 M205 267 L205 268 M325 246 L325 245 M260 0 L256 0 L244 7 M26 144 L26 145 L28 153 L38 180 " fill="none" stroke="black" /><path d="M168 140 L173 148 L178 157 M205 267 L205 268 M325 246 L325 245 M260 0 L256 0 L244 7 M26 144 L26 145 L28 153 L38 180 M2 48 L14 56 " fill="none" stroke="black" /><path d="M168 140 L173 148 L178 157 M205 267 L205 268 M325 246 L325 245 M260 0 L256 0 L244 7 M26 144 L26 145 L28 153 L38 180 M2 48 L14 56 M164 164 L164 170 L160 201 " fill="none" stroke="black" /><path d="M168 140 L173 148 L178 157 M205 267 L205 268 M325 246 L325 245 M260 0 L256 0 L244 7 M26 144 L26 145 L28 153 L38 180 M2 48 L14 56 M164 164 L164 170 L160 201 M77 287 L77 291 " fill="none" stroke="black" /><circle cx="311" cy="107" fill="black" r="1" /><circle cx="256" cy="264" fill="black" r="1" /><path d="M168 140 L173 148 L178 157 M205 267 L205 268 M325 246 L325 245 M260 0 L256 0 L244 7 M26 144 L26 145 L28 153 L38 180 M2 48 L14 56 M164 164 L164 170 L160 201 M77 287 L77 291 M194 103 L194 102 " fill="none" stroke="black" /><path d="M168 140 L173 148 L178 157 M205 267 L205 268 M325 246 L325 245 M260 0 L256 0 L244 7 M26 144 L26 145 L28 153 L38 180 M2 48 L14 56 M164 164 L164 170 L160 201 M77 287 L77 291 M194 103 L194 102 M109 8 L109 9 " fill="none" stroke="black" /><path d="M168 140 L173 148 L178 157 M205 267 L205 268 M325 246 L325 245 M260 0 L256 0 L244 7 M26 144 L26 145 L28 153 L38 180 M2 48 L14 56 M164 164 L164 170 L160 201 M77 287 L77 291 M194 103 L194 102 M109 8 L109 9 M264 196 L265 196 " fill="none" stroke="black" /><path d="M168 140 L173 148 L178 157 M205 267 L205 268 M325 246 L325 245 M260 0 L256 0 L244 7 M26 144 L26 145 L28 153 L38 180 M2 48 L14 56 M164 164 L164 170 L160 201 M77 287 L77 291 M194 103 L194 102 M109 8 L109 9 M264 196 L265 196 M318 28 L316 50 L299 92 L248 146 L200 174 " fill="none" stroke="black" /><path d="M168 140 L173 148 L178 157 M205 267 L205 268 M325 246 L325 245 M260 0 L256 0 L244 7 M26 144 L26 145 L28 153 L38 180 M2 48 L14 56 M164 164 L164 170 L160 201 M77 287 L77 291 M194 103 L194 102 M109 8 L109 9 M264 196 L265 196 M318 28 L316 50 L299 92 L248 146 L200 174 M40 37 L68 94 L108 181 " fill="none" stroke="black" /><path d="M168 140 L173 148 L178 157 M205 267 L205 268 M325 246 L325 245 M260 0 L256 0 L244 7 M26 144 L26 145 L28 153 L38 180 M2 48 L14 56 M164 164 L164 170 L160 201 M77 287 L77 291 M194 103 L194 102 M109 8 L109 9 M264 196 L265 196 M318 28 L316 50 L299 92 L248 146 L200 174 M40 37 L68 94 L108 181 M396 203 L396 212 L396 255 " fill="none" stroke="black" /><path d="M168 140 L173 148 L178 157 M205 267 L205 268 M325 246 L325 245 M260 0 L256 0 L244 7 M26 144 L26 145 L28 153 L38 180 M2 48 L14 56 M164 164 L164 170 L160 201 M77 287 L77 291 M194 103 L194 102 M109 8 L109 9 M264 196 L265 196 M318 28 L316 50 L299 92 L248 146 L200 174 M40 37 L68 94 L108 181 M396 203 L396 212 L396 255 M226 296 L235 355 " fill="none" stroke="black" /><path d="M168 140 L173 148 L178 157 M205 267 L205 268 M325 246 L325 245 M260 0 L256 0 L244 7 M26 144 L26 145 L28 153 L38 180 M2 48 L14 56 M164 164 L164 170 L160 201 M77 287 L77 291 M194 103 L194 102 M109 8 L109 9 M264 196 L265 196 M318 28 L316 50 L299 92 L248 146 L200 174 M40 37 L68 94 L108 181 M396 203 L396 212 L396 255 M226 296 L235 355 M92 216 L123 311 " fill="none" stroke="black" /><path d="M168 140 L173 148 L178 157 M205 267 L205 268 M325 246 L325 245 M260 0 L256 0 L244 7 M26 144 L26 145 L28 153 L38 180 M2 48 L14 56 M164 164 L164 170 L160 201 M77 287 L77 291 M194 103 L194 102 M109 8 L109 9 M264 196 L265 196 M318 28 L316 50 L299 92 L248 146 L200 174 M40 37 L68 94 L108 181 M396 203 L396 212 L396 255 M226 296 L235 355 M92 216 L123 311 M373 135 L370 135 L329 139 " fill="none" stroke="black" /><path d="M168 140 L173 148 L178 157 M205 267 L205 268 M325 246 L325 245 M260 0 L256 0 L244 7 M26 144 L26 145 L28 153 L38 180 M2 48 L14 56 M164 164 L164 170 L160 201 M77 287 L77 291 M194 103 L194 102 M109 8 L109 9 M264 196 L265 196 M318 28 L316 50 L299 92 L248 146 L200 174 M40 37 L68 94 L108 181 M396 203 L396 212 L396 255 M226 296 L235 355 M92 216 L123 311 M373 135 L370 135 L329 139 M116 4 L120 11 L143 39 L197 97 " fill="none" stroke="black" /></svg>