<?xml version="1.0" encoding="utf-8" ?>
<svg baseProfile="tiny" height="395" version="1.2" viewBox="-3 -3 878 395" width="878" xmlns="http://www.w3.org/2000/svg" xmlns:ev="http://www.w3.org/2001/xml-events" xmlns:xlink="http://www.w3.org/1999/xlink"><defs /><path d="M154 123 L162 112 L215 90 L289 64 L303 63 L294 133 L269 251 L270 270 L303 239 L357 167 L408 127 L413 132 L425 204 L454 264 L523 244 L625 167 L644 157 L645 171 L647 242 L663 247 L709 195 L724 173 L717 212 L669 328 L668 297 L602 125 L454 0 L334 61 L262 121 L264 122 L294 83 L297 74 L240 123 L169 217 L181 219 L215 145 L217 122 L173 140 L144 175 L152 170 L154 104 L121 78 L19 113 L9 131 L60 106 L86 81 L80 84 L19 141 L0 215 L11 259 L17 267 L21 269 L41 277 L117 303 L129 306 L127 306 L101 324 L102 344 L205 340 L321 305 L325 303 L293 321 L280 362 L327 377 L412 333 L420 326 L397 348 L405 395 L632 339 L723 297 L699 305 L555 379 L539 395 L600 366 L645 331 L647 326 L671 311 L809 240 L821 231 L801 244 L789 280 L821 287 L843 280 L843 279 L826 296 L812 329 L853 314 L878 287 L876 285 L853 291 " fill="none" stroke="black" /></svg>