<?xml version="1.0" encoding="utf-8" ?>
<svg baseProfile="tiny" height="173" version="1.2" viewBox="-3 -3 163 173" width="163" xmlns="http://www.w3.org/2000/svg" xmlns:ev="http://www.w3.org/2001/xml-events" xmlns:xlink="http://www.w3.org/1999/xlink"><defs /><path d="M48 10 L43 11 L38 12 L34 14 L24 19 L19 21 L17 24 L13 27 L9 31 L5 38 L3 44 L2 48 L1 53 L0 57 L0 63 L0 66 L0 70 L0 75 L0 84 L2 92 L3 97 L5 103 L5 110 L7 116 L8 123 L9 127 L11 132 L13 136 L13 139 L16 142 L19 148 L23 154 L27 157 L32 161 L38 165 L41 166 L43 166 L49 168 L53 169 L60 171 L66 172 L74 173 L80 173 L90 173 L96 172 L103 171 L112 167 L124 161 L132 157 L138 153 L141 148 L147 135 L150 129 L150 125 L155 114 L158 106 L159 100 L161 93 L161 89 L162 82 L162 76 L163 69 L163 59 L163 51 L162 44 L158 35 L153 28 L149 20 L145 15 L141 12 L138 10 L134 9 L128 5 L124 4 L119 3 L112 0 L108 0 L103 0 L99 0 L95 0 L90 0 L86 0 L81 0 L77 0 L74 0 L71 0 L69 0 L64 0 L61 1 L60 2 L59 3 " fill="none" stroke="black" /><path d="M48 10 L43 11 L38 12 L34 14 L24 19 L19 21 L17 24 L13 27 L9 31 L5 38 L3 44 L2 48 L1 53 L0 57 L0 63 L0 66 L0 70 L0 75 L0 84 L2 92 L3 97 L5 103 L5 110 L7 116 L8 123 L9 127 L11 132 L13 136 L13 139 L16 142 L19 148 L23 154 L27 157 L32 161 L38 165 L41 166 L43 166 L49 168 L53 169 L60 171 L66 172 L74 173 L80 173 L90 173 L96 172 L103 171 L112 167 L124 161 L132 157 L138 153 L141 148 L147 135 L150 129 L150 125 L155 114 L158 106 L159 100 L161 93 L161 89 L162 82 L162 76 L163 69 L163 59 L163 51 L162 44 L158 35 L153 28 L149 20 L145 15 L141 12 L138 10 L134 9 L128 5 L124 4 L119 3 L112 0 L108 0 L103 0 L99 0 L95 0 L90 0 L86 0 L81 0 L77 0 L74 0 L71 0 L69 0 L64 0 L61 1 L60 2 L59 3 M65 132 L63 126 L62 117 L60 112 L60 104 L58 95 L57 88 L56 84 L54 81 L53 79 L49 74 L45 68 L44 67 L41 65 L37 64 L32 62 L30 61 L28 60 L28 59 L27 59 L25 58 L24 58 L24 57 L22 57 L20 55 L18 55 L18 54 L17 54 L16 54 L15 54 " fill="none" stroke="black" /><path d="M48 10 L43 11 L38 12 L34 14 L24 19 L19 21 L17 24 L13 27 L9 31 L5 38 L3 44 L2 48 L1 53 L0 57 L0 63 L0 66 L0 70 L0 75 L0 84 L2 92 L3 97 L5 103 L5 110 L7 116 L8 123 L9 127 L11 132 L13 136 L13 139 L16 142 L19 148 L23 154 L27 157 L32 161 L38 165 L41 166 L43 166 L49 168 L53 169 L60 171 L66 172 L74 173 L80 173 L90 173 L96 172 L103 171 L112 167 L124 161 L132 157 L138 153 L141 148 L147 135 L150 129 L150 125 L155 114 L158 106 L159 100 L161 93 L161 89 L162 82 L162 76 L163 69 L163 59 L163 51 L162 44 L158 35 L153 28 L149 20 L145 15 L141 12 L138 10 L134 9 L128 5 L124 4 L119 3 L112 0 L108 0 L103 0 L99 0 L95 0 L90 0 L86 0 L81 0 L77 0 L74 0 L71 0 L69 0 L64 0 L61 1 L60 2 L59 3 M65 132 L63 126 L62 117 L60 112 L60 104 L58 95 L57 88 L56 84 L54 81 L53 79 L49 74 L45 68 L44 67 L41 65 L37 64 L32 62 L30 61 L28 60 L28 59 L27 59 L25 58 L24 58 L24 57 L22 57 L20 55 L18 55 L18 54 L17 54 L16 54 L15 54 M92 130 L91 128 L90 124 L89 118 L89 110 L89 99 L89 91 L89 85 L89 82 L89 81 L89 79 L89 78 L90 75 L92 73 L94 71 L97 69 L101 68 L105 67 L109 66 L112 65 L114 65 L117 64 L120 64 L122 64 L124 64 L126 64 L127 64 " fill="none" stroke="black" /></svg>