<?xml version="1.0" encoding="utf-8" ?>
<svg baseProfile="tiny" height="197" version="1.2" viewBox="-3 -3 206 197" width="206" xmlns="http://www.w3.org/2000/svg" xmlns:ev="http://www.w3.org/2001/xml-events" xmlns:xlink="http://www.w3.org/1999/xlink"><defs /><path d="M206 0 L203 0 L195 1 L183 5 L175 11 L170 15 L164 19 L164 23 L163 27 L163 28 L163 30 L165 33 L168 34 L170 35 L175 35 L180 35 L188 34 L193 32 L197 30 L199 27 L201 23 L201 20 L201 18 L199 17 L197 16 L196 16 L195 15 L188 15 L180 15 L170 17 L166 18 L162 20 L154 23 L145 27 L140 34 L138 38 L137 44 L137 53 L137 59 L137 65 L139 69 L141 72 L147 75 L152 75 L158 75 L164 76 L171 75 L177 71 L179 67 L179 63 L179 59 L176 56 L172 54 L166 52 L159 52 L148 52 L138 54 L127 58 L118 61 L111 67 L107 76 L104 86 L102 93 L102 101 L102 106 L103 109 L105 111 L108 112 L111 113 L120 114 L126 114 L129 112 L132 109 L135 103 L135 100 L134 98 L130 96 L127 94 L120 93 L107 92 L98 92 L93 94 L86 98 L78 103 L72 113 L68 123 L66 132 L66 138 L66 143 L69 147 L75 156 L79 160 L81 162 L82 162 L85 161 L90 154 L93 146 L95 143 L95 139 L95 136 L93 135 L90 133 L84 132 L77 131 L71 131 L65 132 L59 134 L50 140 L42 147 L33 156 L26 165 L21 174 L20 180 L19 187 L19 192 L20 194 L21 195 L27 196 L35 197 L39 195 L44 193 L45 191 L46 186 L47 183 L47 180 L44 175 L42 171 L39 168 L37 167 L34 165 L28 164 L21 163 L15 163 L10 164 L8 164 L4 166 L3 167 L0 167 " fill="none" stroke="black" /></svg>