<?xml version="1.0" encoding="utf-8" ?>
<svg baseProfile="tiny" height="200" version="1.2" viewBox="-3 -3 968 200" width="968" xmlns="http://www.w3.org/2000/svg" xmlns:ev="http://www.w3.org/2001/xml-events" xmlns:xlink="http://www.w3.org/1999/xlink"><defs /><path d="M0 148 L4 145 L22 121 L42 88 L49 72 L58 58 L61 52 L62 51 L71 56 L135 104 L200 177 L217 200 L218 200 L223 184 L242 128 L270 50 L278 33 L280 29 L283 25 L291 23 L301 26 L319 39 L342 80 L361 116 L371 136 L376 144 L378 146 L379 147 L380 147 L388 140 L397 121 L413 67 L428 23 L440 1 L443 0 L447 1 L457 6 L471 14 L509 50 L541 99 L560 135 L574 170 L578 179 L579 180 L593 170 L629 118 L644 87 L657 54 L665 35 L667 31 L667 30 L668 30 L697 47 L744 90 L786 130 L811 148 L817 151 L818 152 L819 152 L821 151 L829 139 L841 93 L845 58 L847 39 L850 32 L851 31 L855 31 L887 52 L927 85 L954 111 L961 122 L965 125 L967 126 L968 126 " fill="none" stroke="black" /></svg>