<?xml version="1.0" encoding="utf-8" ?>
<svg baseProfile="tiny" height="208" version="1.2" viewBox="-3 -3 718 208" width="718" xmlns="http://www.w3.org/2000/svg" xmlns:ev="http://www.w3.org/2001/xml-events" xmlns:xlink="http://www.w3.org/1999/xlink"><defs /><path d="M0 179 L2 159 L17 109 L29 67 L31 47 L32 38 L32 33 L36 28 L42 23 L51 18 L83 19 L117 31 L133 38 L136 45 L136 69 L130 106 L123 129 L120 144 L118 156 L117 171 L118 182 L124 192 L136 201 L153 202 L173 196 L199 185 L218 170 L222 156 L224 131 L224 114 L225 101 L229 85 L236 63 L245 43 L254 34 L257 33 L267 35 L292 43 L306 48 L312 61 L316 82 L318 102 L319 117 L319 133 L317 150 L313 178 L312 196 L315 204 L318 206 L327 208 L347 208 L365 205 L388 194 L407 180 L419 161 L429 136 L432 120 L431 97 L420 68 L409 46 L407 32 L412 22 L424 12 L440 5 L457 0 L473 3 L502 15 L522 27 L530 38 L531 53 L532 67 L534 88 L533 101 L530 114 L525 135 L521 149 L520 163 L522 172 L525 175 L531 177 L547 178 L583 179 L598 175 L613 155 L617 146 L623 131 L623 121 L617 101 L611 81 L608 61 L608 46 L611 37 L622 24 L632 19 L638 17 L645 17 L658 23 L672 31 L680 37 L684 46 L686 54 L689 69 L690 92 L691 99 L691 109 L692 123 L695 137 L698 146 L702 150 L706 155 L718 163 " fill="none" stroke="black" /></svg>