<?xml version="1.0" encoding="utf-8" ?>
<svg baseProfile="tiny" height="468" version="1.2" viewBox="-3 -3 102 468" width="102" xmlns="http://www.w3.org/2000/svg" xmlns:ev="http://www.w3.org/2001/xml-events" xmlns:xlink="http://www.w3.org/1999/xlink"><defs /><path d="M57 0 L56 1 L54 2 L51 4 L47 9 L45 13 L44 16 L43 20 L42 24 L42 29 L42 34 L42 40 L43 46 L45 50 L46 53 L49 59 L52 64 L55 69 L59 73 L62 77 L65 82 L68 87 L71 90 L73 94 L75 98 L77 103 L77 105 L77 107 L77 110 L76 113 L74 116 L72 119 L70 122 L68 124 L67 125 L66 126 L64 128 L61 131 L57 133 L54 136 L51 138 L48 141 L45 142 L42 145 L40 148 L38 150 L37 153 L35 156 L34 159 L33 161 L31 163 L30 167 L29 171 L28 173 L28 175 L28 178 L28 180 L28 183 L28 186 L28 189 L28 193 L28 198 L30 202 L33 207 L33 208 L34 209 L37 211 L39 213 L41 215 L44 218 L47 220 L49 221 L51 224 L54 226 L55 227 L58 230 L59 232 L61 234 L62 237 L62 240 L62 245 L62 249 L61 254 L59 261 L57 267 L55 269 L53 272 L51 277 L48 280 L44 284 L39 289 L35 292 L32 294 L31 295 L29 296 L29 298 L26 301 L22 304 L20 308 L18 314 L15 320 L12 325 L10 330 L8 335 L5 342 L4 347 L3 351 L2 355 L1 359 L0 365 L0 371 L0 377 L0 383 L3 390 L5 394 L8 401 L11 405 L12 406 L13 409 L15 410 L16 412 L19 416 L22 418 L25 420 L29 422 L34 426 L37 427 L39 429 L41 430 L44 431 L47 433 L51 433 L55 435 L61 437 L68 440 L71 441 L75 443 L78 446 L83 448 L90 452 L93 454 L94 454 L95 455 L97 458 L100 462 L101 464 L102 465 L102 466 L102 468 " fill="none" stroke="black" /></svg>