<?xml version="1.0" encoding="utf-8" ?>
<svg baseProfile="tiny" height="266" version="1.2" viewBox="-3 -3 294 266" width="294" xmlns="http://www.w3.org/2000/svg" xmlns:ev="http://www.w3.org/2001/xml-events" xmlns:xlink="http://www.w3.org/1999/xlink"><defs /><path d="M73 42 L72 43 L70 50 L70 59 L72 60 L74 58 L79 51 L80 49 L81 43 L81 36 L80 36 L76 36 L74 36 L71 39 L69 45 " fill="none" stroke="black" /><path d="M73 42 L72 43 L70 50 L70 59 L72 60 L74 58 L79 51 L80 49 L81 43 L81 36 L80 36 L76 36 L74 36 L71 39 L69 45 M75 97 L74 99 L72 108 L73 121 L79 126 L82 127 L87 118 L89 104 L89 93 L88 91 L85 91 L80 91 L79 93 " fill="none" stroke="black" /><path d="M73 42 L72 43 L70 50 L70 59 L72 60 L74 58 L79 51 L80 49 L81 43 L81 36 L80 36 L76 36 L74 36 L71 39 L69 45 M75 97 L74 99 L72 108 L73 121 L79 126 L82 127 L87 118 L89 104 L89 93 L88 91 L85 91 L80 91 L79 93 M160 38 L160 59 L167 85 L174 93 L178 88 L186 61 L189 22 L187 8 L186 8 L181 14 L175 23 " fill="none" stroke="black" /><path d="M73 42 L72 43 L70 50 L70 59 L72 60 L74 58 L79 51 L80 49 L81 43 L81 36 L80 36 L76 36 L74 36 L71 39 L69 45 M75 97 L74 99 L72 108 L73 121 L79 126 L82 127 L87 118 L89 104 L89 93 L88 91 L85 91 L80 91 L79 93 M160 38 L160 59 L167 85 L174 93 L178 88 L186 61 L189 22 L187 8 L186 8 L181 14 L175 23 M151 108 L149 119 L147 134 L151 142 L155 142 L162 139 L171 132 L171 131 L171 130 L170 130 L165 130 L162 132 L161 133 " fill="none" stroke="black" /><path d="M73 42 L72 43 L70 50 L70 59 L72 60 L74 58 L79 51 L80 49 L81 43 L81 36 L80 36 L76 36 L74 36 L71 39 L69 45 M75 97 L74 99 L72 108 L73 121 L79 126 L82 127 L87 118 L89 104 L89 93 L88 91 L85 91 L80 91 L79 93 M160 38 L160 59 L167 85 L174 93 L178 88 L186 61 L189 22 L187 8 L186 8 L181 14 L175 23 M151 108 L149 119 L147 134 L151 142 L155 142 L162 139 L171 132 L171 131 L171 130 L170 130 L165 130 L162 132 L161 133 M213 105 L214 120 L221 129 L225 130 L230 125 L230 118 L223 98 L221 96 L218 96 L210 99 L209 100 " fill="none" stroke="black" /><path d="M73 42 L72 43 L70 50 L70 59 L72 60 L74 58 L79 51 L80 49 L81 43 L81 36 L80 36 L76 36 L74 36 L71 39 L69 45 M75 97 L74 99 L72 108 L73 121 L79 126 L82 127 L87 118 L89 104 L89 93 L88 91 L85 91 L80 91 L79 93 M160 38 L160 59 L167 85 L174 93 L178 88 L186 61 L189 22 L187 8 L186 8 L181 14 L175 23 M151 108 L149 119 L147 134 L151 142 L155 142 L162 139 L171 132 L171 131 L171 130 L170 130 L165 130 L162 132 L161 133 M213 105 L214 120 L221 129 L225 130 L230 125 L230 118 L223 98 L221 96 L218 96 L210 99 L209 100 M233 25 L234 30 L243 49 L254 62 L256 64 L257 56 L258 41 L250 21 L244 14 L243 17 L242 21 L242 22 " fill="none" stroke="black" /><path d="M73 42 L72 43 L70 50 L70 59 L72 60 L74 58 L79 51 L80 49 L81 43 L81 36 L80 36 L76 36 L74 36 L71 39 L69 45 M75 97 L74 99 L72 108 L73 121 L79 126 L82 127 L87 118 L89 104 L89 93 L88 91 L85 91 L80 91 L79 93 M160 38 L160 59 L167 85 L174 93 L178 88 L186 61 L189 22 L187 8 L186 8 L181 14 L175 23 M151 108 L149 119 L147 134 L151 142 L155 142 L162 139 L171 132 L171 131 L171 130 L170 130 L165 130 L162 132 L161 133 M213 105 L214 120 L221 129 L225 130 L230 125 L230 118 L223 98 L221 96 L218 96 L210 99 L209 100 M233 25 L234 30 L243 49 L254 62 L256 64 L257 56 L258 41 L250 21 L244 14 L243 17 L242 21 L242 22 M95 191 L83 207 L83 213 L86 215 L91 215 L105 205 L112 192 L112 182 L111 179 L105 177 L99 177 L94 177 L92 178 " fill="none" stroke="black" /><path d="M73 42 L72 43 L70 50 L70 59 L72 60 L74 58 L79 51 L80 49 L81 43 L81 36 L80 36 L76 36 L74 36 L71 39 L69 45 M75 97 L74 99 L72 108 L73 121 L79 126 L82 127 L87 118 L89 104 L89 93 L88 91 L85 91 L80 91 L79 93 M160 38 L160 59 L167 85 L174 93 L178 88 L186 61 L189 22 L187 8 L186 8 L181 14 L175 23 M151 108 L149 119 L147 134 L151 142 L155 142 L162 139 L171 132 L171 131 L171 130 L170 130 L165 130 L162 132 L161 133 M213 105 L214 120 L221 129 L225 130 L230 125 L230 118 L223 98 L221 96 L218 96 L210 99 L209 100 M233 25 L234 30 L243 49 L254 62 L256 64 L257 56 L258 41 L250 21 L244 14 L243 17 L242 21 L242 22 M95 191 L83 207 L83 213 L86 215 L91 215 L105 205 L112 192 L112 182 L111 179 L105 177 L99 177 L94 177 L92 178 M211 194 L209 202 L210 210 L215 212 L225 196 L225 183 L222 179 L207 178 L199 178 L196 179 L195 180 " fill="none" stroke="black" /><path d="M73 42 L72 43 L70 50 L70 59 L72 60 L74 58 L79 51 L80 49 L81 43 L81 36 L80 36 L76 36 L74 36 L71 39 L69 45 M75 97 L74 99 L72 108 L73 121 L79 126 L82 127 L87 118 L89 104 L89 93 L88 91 L85 91 L80 91 L79 93 M160 38 L160 59 L167 85 L174 93 L178 88 L186 61 L189 22 L187 8 L186 8 L181 14 L175 23 M151 108 L149 119 L147 134 L151 142 L155 142 L162 139 L171 132 L171 131 L171 130 L170 130 L165 130 L162 132 L161 133 M213 105 L214 120 L221 129 L225 130 L230 125 L230 118 L223 98 L221 96 L218 96 L210 99 L209 100 M233 25 L234 30 L243 49 L254 62 L256 64 L257 56 L258 41 L250 21 L244 14 L243 17 L242 21 L242 22 M95 191 L83 207 L83 213 L86 215 L91 215 L105 205 L112 192 L112 182 L111 179 L105 177 L99 177 L94 177 L92 178 M211 194 L209 202 L210 210 L215 212 L225 196 L225 183 L222 179 L207 178 L199 178 L196 179 L195 180 M128 228 L130 238 L143 257 L162 266 L166 264 L169 250 L170 227 L164 218 L155 215 L143 217 L138 218 L137 218 " fill="none" stroke="black" /><path d="M73 42 L72 43 L70 50 L70 59 L72 60 L74 58 L79 51 L80 49 L81 43 L81 36 L80 36 L76 36 L74 36 L71 39 L69 45 M75 97 L74 99 L72 108 L73 121 L79 126 L82 127 L87 118 L89 104 L89 93 L88 91 L85 91 L80 91 L79 93 M160 38 L160 59 L167 85 L174 93 L178 88 L186 61 L189 22 L187 8 L186 8 L181 14 L175 23 M151 108 L149 119 L147 134 L151 142 L155 142 L162 139 L171 132 L171 131 L171 130 L170 130 L165 130 L162 132 L161 133 M213 105 L214 120 L221 129 L225 130 L230 125 L230 118 L223 98 L221 96 L218 96 L210 99 L209 100 M233 25 L234 30 L243 49 L254 62 L256 64 L257 56 L258 41 L250 21 L244 14 L243 17 L242 21 L242 22 M95 191 L83 207 L83 213 L86 215 L91 215 L105 205 L112 192 L112 182 L111 179 L105 177 L99 177 L94 177 L92 178 M211 194 L209 202 L210 210 L215 212 L225 196 L225 183 L222 179 L207 178 L199 178 L196 179 L195 180 M128 228 L130 238 L143 257 L162 266 L166 264 L169 250 L170 227 L164 218 L155 215 L143 217 L138 218 L137 218 M105 15 L111 21 L118 26 L123 24 L126 12 L126 3 L123 0 L121 0 L119 0 L110 3 L104 6 L101 8 " fill="none" stroke="black" /><path d="M73 42 L72 43 L70 50 L70 59 L72 60 L74 58 L79 51 L80 49 L81 43 L81 36 L80 36 L76 36 L74 36 L71 39 L69 45 M75 97 L74 99 L72 108 L73 121 L79 126 L82 127 L87 118 L89 104 L89 93 L88 91 L85 91 L80 91 L79 93 M160 38 L160 59 L167 85 L174 93 L178 88 L186 61 L189 22 L187 8 L186 8 L181 14 L175 23 M151 108 L149 119 L147 134 L151 142 L155 142 L162 139 L171 132 L171 131 L171 130 L170 130 L165 130 L162 132 L161 133 M213 105 L214 120 L221 129 L225 130 L230 125 L230 118 L223 98 L221 96 L218 96 L210 99 L209 100 M233 25 L234 30 L243 49 L254 62 L256 64 L257 56 L258 41 L250 21 L244 14 L243 17 L242 21 L242 22 M95 191 L83 207 L83 213 L86 215 L91 215 L105 205 L112 192 L112 182 L111 179 L105 177 L99 177 L94 177 L92 178 M211 194 L209 202 L210 210 L215 212 L225 196 L225 183 L222 179 L207 178 L199 178 L196 179 L195 180 M128 228 L130 238 L143 257 L162 266 L166 264 L169 250 L170 227 L164 218 L155 215 L143 217 L138 218 L137 218 M105 15 L111 21 L118 26 L123 24 L126 12 L126 3 L123 0 L121 0 L119 0 L110 3 L104 6 L101 8 M1 175 L0 186 L2 192 L10 192 L27 188 L35 176 L36 162 L36 145 L32 138 L25 136 L18 136 L15 137 " fill="none" stroke="black" /><path d="M73 42 L72 43 L70 50 L70 59 L72 60 L74 58 L79 51 L80 49 L81 43 L81 36 L80 36 L76 36 L74 36 L71 39 L69 45 M75 97 L74 99 L72 108 L73 121 L79 126 L82 127 L87 118 L89 104 L89 93 L88 91 L85 91 L80 91 L79 93 M160 38 L160 59 L167 85 L174 93 L178 88 L186 61 L189 22 L187 8 L186 8 L181 14 L175 23 M151 108 L149 119 L147 134 L151 142 L155 142 L162 139 L171 132 L171 131 L171 130 L170 130 L165 130 L162 132 L161 133 M213 105 L214 120 L221 129 L225 130 L230 125 L230 118 L223 98 L221 96 L218 96 L210 99 L209 100 M233 25 L234 30 L243 49 L254 62 L256 64 L257 56 L258 41 L250 21 L244 14 L243 17 L242 21 L242 22 M95 191 L83 207 L83 213 L86 215 L91 215 L105 205 L112 192 L112 182 L111 179 L105 177 L99 177 L94 177 L92 178 M211 194 L209 202 L210 210 L215 212 L225 196 L225 183 L222 179 L207 178 L199 178 L196 179 L195 180 M128 228 L130 238 L143 257 L162 266 L166 264 L169 250 L170 227 L164 218 L155 215 L143 217 L138 218 L137 218 M105 15 L111 21 L118 26 L123 24 L126 12 L126 3 L123 0 L121 0 L119 0 L110 3 L104 6 L101 8 M1 175 L0 186 L2 192 L10 192 L27 188 L35 176 L36 162 L36 145 L32 138 L25 136 L18 136 L15 137 M293 132 L292 133 L281 141 L278 153 L278 154 L281 155 L289 149 L293 136 L294 123 L292 119 L287 116 L283 116 L280 116 L278 117 " fill="none" stroke="black" /></svg>