<?xml version="1.0" encoding="utf-8" ?>
<svg baseProfile="tiny" height="155" version="1.2" viewBox="-3 -3 522 155" width="522" xmlns="http://www.w3.org/2000/svg" xmlns:ev="http://www.w3.org/2001/xml-events" xmlns:xlink="http://www.w3.org/1999/xlink"><defs /><path d="M199 57 L198 58 L195 62 L192 71 L190 78 L190 85 L193 88 L200 91 L205 94 L209 94 L214 94 L217 93 L219 83 L219 78 L219 74 L214 68 L209 66 L206 65 L198 65 L195 65 L192 65 L189 65 " fill="none" stroke="black" /><path d="M199 57 L198 58 L195 62 L192 71 L190 78 L190 85 L193 88 L200 91 L205 94 L209 94 L214 94 L217 93 L219 83 L219 78 L219 74 L214 68 L209 66 L206 65 L198 65 L195 65 L192 65 L189 65 M162 41 L159 28 L154 16 L149 9 L147 8 " fill="none" stroke="black" /><path d="M199 57 L198 58 L195 62 L192 71 L190 78 L190 85 L193 88 L200 91 L205 94 L209 94 L214 94 L217 93 L219 83 L219 78 L219 74 L214 68 L209 66 L206 65 L198 65 L195 65 L192 65 L189 65 M162 41 L159 28 L154 16 L149 9 L147 8 M220 17 L225 11 L229 7 L231 5 L234 2 " fill="none" stroke="black" /><path d="M199 57 L198 58 L195 62 L192 71 L190 78 L190 85 L193 88 L200 91 L205 94 L209 94 L214 94 L217 93 L219 83 L219 78 L219 74 L214 68 L209 66 L206 65 L198 65 L195 65 L192 65 L189 65 M162 41 L159 28 L154 16 L149 9 L147 8 M220 17 L225 11 L229 7 L231 5 L234 2 M286 32 L301 31 L306 29 L308 28 L308 27 " fill="none" stroke="black" /><path d="M199 57 L198 58 L195 62 L192 71 L190 78 L190 85 L193 88 L200 91 L205 94 L209 94 L214 94 L217 93 L219 83 L219 78 L219 74 L214 68 L209 66 L206 65 L198 65 L195 65 L192 65 L189 65 M162 41 L159 28 L154 16 L149 9 L147 8 M220 17 L225 11 L229 7 L231 5 L234 2 M286 32 L301 31 L306 29 L308 28 L308 27 M55 75 L54 75 L55 78 L58 79 L60 80 L65 81 L69 80 L70 77 L72 71 L72 69 L72 65 L69 64 L68 62 L62 62 L60 62 L59 62 L57 62 L55 62 L54 62 L51 63 L50 64 " fill="none" stroke="black" /><path d="M199 57 L198 58 L195 62 L192 71 L190 78 L190 85 L193 88 L200 91 L205 94 L209 94 L214 94 L217 93 L219 83 L219 78 L219 74 L214 68 L209 66 L206 65 L198 65 L195 65 L192 65 L189 65 M162 41 L159 28 L154 16 L149 9 L147 8 M220 17 L225 11 L229 7 L231 5 L234 2 M286 32 L301 31 L306 29 L308 28 L308 27 M55 75 L54 75 L55 78 L58 79 L60 80 L65 81 L69 80 L70 77 L72 71 L72 69 L72 65 L69 64 L68 62 L62 62 L60 62 L59 62 L57 62 L55 62 L54 62 L51 63 L50 64 M29 56 L25 53 L22 51 L11 46 L3 41 L0 40 L1 39 " fill="none" stroke="black" /><path d="M199 57 L198 58 L195 62 L192 71 L190 78 L190 85 L193 88 L200 91 L205 94 L209 94 L214 94 L217 93 L219 83 L219 78 L219 74 L214 68 L209 66 L206 65 L198 65 L195 65 L192 65 L189 65 M162 41 L159 28 L154 16 L149 9 L147 8 M220 17 L225 11 L229 7 L231 5 L234 2 M286 32 L301 31 L306 29 L308 28 L308 27 M55 75 L54 75 L55 78 L58 79 L60 80 L65 81 L69 80 L70 77 L72 71 L72 69 L72 65 L69 64 L68 62 L62 62 L60 62 L59 62 L57 62 L55 62 L54 62 L51 63 L50 64 M29 56 L25 53 L22 51 L11 46 L3 41 L0 40 L1 39 M69 31 L69 21 L69 11 L68 3 L68 1 L68 0 " fill="none" stroke="black" /><path d="M199 57 L198 58 L195 62 L192 71 L190 78 L190 85 L193 88 L200 91 L205 94 L209 94 L214 94 L217 93 L219 83 L219 78 L219 74 L214 68 L209 66 L206 65 L198 65 L195 65 L192 65 L189 65 M162 41 L159 28 L154 16 L149 9 L147 8 M220 17 L225 11 L229 7 L231 5 L234 2 M286 32 L301 31 L306 29 L308 28 L308 27 M55 75 L54 75 L55 78 L58 79 L60 80 L65 81 L69 80 L70 77 L72 71 L72 69 L72 65 L69 64 L68 62 L62 62 L60 62 L59 62 L57 62 L55 62 L54 62 L51 63 L50 64 M29 56 L25 53 L22 51 L11 46 L3 41 L0 40 L1 39 M69 31 L69 21 L69 11 L68 3 L68 1 L68 0 M99 28 L99 29 L97 37 L94 43 L91 50 L91 51 " fill="none" stroke="black" /><path d="M199 57 L198 58 L195 62 L192 71 L190 78 L190 85 L193 88 L200 91 L205 94 L209 94 L214 94 L217 93 L219 83 L219 78 L219 74 L214 68 L209 66 L206 65 L198 65 L195 65 L192 65 L189 65 M162 41 L159 28 L154 16 L149 9 L147 8 M220 17 L225 11 L229 7 L231 5 L234 2 M286 32 L301 31 L306 29 L308 28 L308 27 M55 75 L54 75 L55 78 L58 79 L60 80 L65 81 L69 80 L70 77 L72 71 L72 69 L72 65 L69 64 L68 62 L62 62 L60 62 L59 62 L57 62 L55 62 L54 62 L51 63 L50 64 M29 56 L25 53 L22 51 L11 46 L3 41 L0 40 L1 39 M69 31 L69 21 L69 11 L68 3 L68 1 L68 0 M99 28 L99 29 L97 37 L94 43 L91 50 L91 51 M452 103 L446 106 L430 115 L423 126 L420 141 L424 150 L435 155 L442 155 L448 155 L455 149 L460 139 L460 123 L453 105 L448 99 L442 94 L435 94 L429 94 " fill="none" stroke="black" /><path d="M199 57 L198 58 L195 62 L192 71 L190 78 L190 85 L193 88 L200 91 L205 94 L209 94 L214 94 L217 93 L219 83 L219 78 L219 74 L214 68 L209 66 L206 65 L198 65 L195 65 L192 65 L189 65 M162 41 L159 28 L154 16 L149 9 L147 8 M220 17 L225 11 L229 7 L231 5 L234 2 M286 32 L301 31 L306 29 L308 28 L308 27 M55 75 L54 75 L55 78 L58 79 L60 80 L65 81 L69 80 L70 77 L72 71 L72 69 L72 65 L69 64 L68 62 L62 62 L60 62 L59 62 L57 62 L55 62 L54 62 L51 63 L50 64 M29 56 L25 53 L22 51 L11 46 L3 41 L0 40 L1 39 M69 31 L69 21 L69 11 L68 3 L68 1 L68 0 M99 28 L99 29 L97 37 L94 43 L91 50 L91 51 M452 103 L446 106 L430 115 L423 126 L420 141 L424 150 L435 155 L442 155 L448 155 L455 149 L460 139 L460 123 L453 105 L448 99 L442 94 L435 94 L429 94 M410 84 L394 59 L378 42 L373 37 L373 36 " fill="none" stroke="black" /><path d="M199 57 L198 58 L195 62 L192 71 L190 78 L190 85 L193 88 L200 91 L205 94 L209 94 L214 94 L217 93 L219 83 L219 78 L219 74 L214 68 L209 66 L206 65 L198 65 L195 65 L192 65 L189 65 M162 41 L159 28 L154 16 L149 9 L147 8 M220 17 L225 11 L229 7 L231 5 L234 2 M286 32 L301 31 L306 29 L308 28 L308 27 M55 75 L54 75 L55 78 L58 79 L60 80 L65 81 L69 80 L70 77 L72 71 L72 69 L72 65 L69 64 L68 62 L62 62 L60 62 L59 62 L57 62 L55 62 L54 62 L51 63 L50 64 M29 56 L25 53 L22 51 L11 46 L3 41 L0 40 L1 39 M69 31 L69 21 L69 11 L68 3 L68 1 L68 0 M99 28 L99 29 L97 37 L94 43 L91 50 L91 51 M452 103 L446 106 L430 115 L423 126 L420 141 L424 150 L435 155 L442 155 L448 155 L455 149 L460 139 L460 123 L453 105 L448 99 L442 94 L435 94 L429 94 M410 84 L394 59 L378 42 L373 37 L373 36 M452 53 L453 47 L457 36 L461 26 L462 24 " fill="none" stroke="black" /><path d="M199 57 L198 58 L195 62 L192 71 L190 78 L190 85 L193 88 L200 91 L205 94 L209 94 L214 94 L217 93 L219 83 L219 78 L219 74 L214 68 L209 66 L206 65 L198 65 L195 65 L192 65 L189 65 M162 41 L159 28 L154 16 L149 9 L147 8 M220 17 L225 11 L229 7 L231 5 L234 2 M286 32 L301 31 L306 29 L308 28 L308 27 M55 75 L54 75 L55 78 L58 79 L60 80 L65 81 L69 80 L70 77 L72 71 L72 69 L72 65 L69 64 L68 62 L62 62 L60 62 L59 62 L57 62 L55 62 L54 62 L51 63 L50 64 M29 56 L25 53 L22 51 L11 46 L3 41 L0 40 L1 39 M69 31 L69 21 L69 11 L68 3 L68 1 L68 0 M99 28 L99 29 L97 37 L94 43 L91 50 L91 51 M452 103 L446 106 L430 115 L423 126 L420 141 L424 150 L435 155 L442 155 L448 155 L455 149 L460 139 L460 123 L453 105 L448 99 L442 94 L435 94 L429 94 M410 84 L394 59 L378 42 L373 37 L373 36 M452 53 L453 47 L457 36 L461 26 L462 24 M486 80 L505 71 L519 58 L522 56 L522 53 " fill="none" stroke="black" /></svg>