<?xml version="1.0" encoding="utf-8" ?>
<svg baseProfile="tiny" height="537" version="1.2" viewBox="-3 -3 847 537" width="847" xmlns="http://www.w3.org/2000/svg" xmlns:ev="http://www.w3.org/2001/xml-events" xmlns:xlink="http://www.w3.org/1999/xlink"><defs /><path d="M820 200 L819 202 L815 207 L814 210 L814 211 " fill="none" stroke="black" /><path d="M820 200 L819 202 L815 207 L814 210 L814 211 M814 213 L813 217 L811 219 L809 222 L808 225 L807 228 L807 230 L805 234 L805 236 L805 237 " fill="none" stroke="black" /><path d="M820 200 L819 202 L815 207 L814 210 L814 211 M814 213 L813 217 L811 219 L809 222 L808 225 L807 228 L807 230 L805 234 L805 236 L805 237 M847 154 L838 159 L828 165 L817 175 L808 186 L799 194 L792 204 L786 213 L783 222 L781 226 L779 236 L778 237 L778 238 L778 241 L778 250 L778 255 L778 258 L778 260 L778 266 L778 268 L777 264 " fill="none" stroke="black" /><path d="M820 200 L819 202 L815 207 L814 210 L814 211 M814 213 L813 217 L811 219 L809 222 L808 225 L807 228 L807 230 L805 234 L805 236 L805 237 M847 154 L838 159 L828 165 L817 175 L808 186 L799 194 L792 204 L786 213 L783 222 L781 226 L779 236 L778 237 L778 238 L778 241 L778 250 L778 255 L778 258 L778 260 L778 266 L778 268 L777 264 M843 123 L839 123 L815 124 L791 130 L779 138 L753 164 L738 192 L733 218 L731 245 L731 275 L733 302 L733 329 L733 337 L735 331 " fill="none" stroke="black" /><path d="M820 200 L819 202 L815 207 L814 210 L814 211 M814 213 L813 217 L811 219 L809 222 L808 225 L807 228 L807 230 L805 234 L805 236 L805 237 M847 154 L838 159 L828 165 L817 175 L808 186 L799 194 L792 204 L786 213 L783 222 L781 226 L779 236 L778 237 L778 238 L778 241 L778 250 L778 255 L778 258 L778 260 L778 266 L778 268 L777 264 M843 123 L839 123 L815 124 L791 130 L779 138 L753 164 L738 192 L733 218 L731 245 L731 275 L733 302 L733 329 L733 337 L735 331 M757 98 L753 100 L733 121 L717 151 L701 186 L685 221 L675 257 L671 276 L669 281 L669 286 L668 289 L668 291 L668 292 " fill="none" stroke="black" /><path d="M820 200 L819 202 L815 207 L814 210 L814 211 M814 213 L813 217 L811 219 L809 222 L808 225 L807 228 L807 230 L805 234 L805 236 L805 237 M847 154 L838 159 L828 165 L817 175 L808 186 L799 194 L792 204 L786 213 L783 222 L781 226 L779 236 L778 237 L778 238 L778 241 L778 250 L778 255 L778 258 L778 260 L778 266 L778 268 L777 264 M843 123 L839 123 L815 124 L791 130 L779 138 L753 164 L738 192 L733 218 L731 245 L731 275 L733 302 L733 329 L733 337 L735 331 M757 98 L753 100 L733 121 L717 151 L701 186 L685 221 L675 257 L671 276 L669 281 L669 286 L668 289 L668 291 L668 292 M764 55 L742 56 L720 60 L677 77 L646 102 L623 129 L609 157 L598 180 L582 232 L577 272 L576 313 L575 350 L574 372 L573 378 L573 379 " fill="none" stroke="black" /><path d="M820 200 L819 202 L815 207 L814 210 L814 211 M814 213 L813 217 L811 219 L809 222 L808 225 L807 228 L807 230 L805 234 L805 236 L805 237 M847 154 L838 159 L828 165 L817 175 L808 186 L799 194 L792 204 L786 213 L783 222 L781 226 L779 236 L778 237 L778 238 L778 241 L778 250 L778 255 L778 258 L778 260 L778 266 L778 268 L777 264 M843 123 L839 123 L815 124 L791 130 L779 138 L753 164 L738 192 L733 218 L731 245 L731 275 L733 302 L733 329 L733 337 L735 331 M757 98 L753 100 L733 121 L717 151 L701 186 L685 221 L675 257 L671 276 L669 281 L669 286 L668 289 L668 291 L668 292 M764 55 L742 56 L720 60 L677 77 L646 102 L623 129 L609 157 L598 180 L582 232 L577 272 L576 313 L575 350 L574 372 L573 378 L573 379 M695 22 L691 22 L648 28 L588 44 L554 56 L504 94 L437 156 L405 204 L383 257 L363 307 L345 350 L330 404 L323 451 L323 476 " fill="none" stroke="black" /><path d="M820 200 L819 202 L815 207 L814 210 L814 211 M814 213 L813 217 L811 219 L809 222 L808 225 L807 228 L807 230 L805 234 L805 236 L805 237 M847 154 L838 159 L828 165 L817 175 L808 186 L799 194 L792 204 L786 213 L783 222 L781 226 L779 236 L778 237 L778 238 L778 241 L778 250 L778 255 L778 258 L778 260 L778 266 L778 268 L777 264 M843 123 L839 123 L815 124 L791 130 L779 138 L753 164 L738 192 L733 218 L731 245 L731 275 L733 302 L733 329 L733 337 L735 331 M757 98 L753 100 L733 121 L717 151 L701 186 L685 221 L675 257 L671 276 L669 281 L669 286 L668 289 L668 291 L668 292 M764 55 L742 56 L720 60 L677 77 L646 102 L623 129 L609 157 L598 180 L582 232 L577 272 L576 313 L575 350 L574 372 L573 378 L573 379 M695 22 L691 22 L648 28 L588 44 L554 56 L504 94 L437 156 L405 204 L383 257 L363 307 L345 350 L330 404 L323 451 L323 476 M526 40 L509 40 L449 40 L389 47 L349 69 L313 107 L264 171 L222 243 L181 319 L158 373 L144 419 L139 470 L137 519 L139 536 L139 537 L146 516 " fill="none" stroke="black" /><path d="M820 200 L819 202 L815 207 L814 210 L814 211 M814 213 L813 217 L811 219 L809 222 L808 225 L807 228 L807 230 L805 234 L805 236 L805 237 M847 154 L838 159 L828 165 L817 175 L808 186 L799 194 L792 204 L786 213 L783 222 L781 226 L779 236 L778 237 L778 238 L778 241 L778 250 L778 255 L778 258 L778 260 L778 266 L778 268 L777 264 M843 123 L839 123 L815 124 L791 130 L779 138 L753 164 L738 192 L733 218 L731 245 L731 275 L733 302 L733 329 L733 337 L735 331 M757 98 L753 100 L733 121 L717 151 L701 186 L685 221 L675 257 L671 276 L669 281 L669 286 L668 289 L668 291 L668 292 M764 55 L742 56 L720 60 L677 77 L646 102 L623 129 L609 157 L598 180 L582 232 L577 272 L576 313 L575 350 L574 372 L573 378 L573 379 M695 22 L691 22 L648 28 L588 44 L554 56 L504 94 L437 156 L405 204 L383 257 L363 307 L345 350 L330 404 L323 451 L323 476 M526 40 L509 40 L449 40 L389 47 L349 69 L313 107 L264 171 L222 243 L181 319 L158 373 L144 419 L139 470 L137 519 L139 536 L139 537 L146 516 M360 0 L352 4 L346 7 L343 9 L325 18 L304 27 L295 31 L289 36 L288 36 L281 40 L273 45 L262 53 L244 68 L223 89 L190 120 L160 154 L127 190 L108 209 L62 255 L8 317 L0 383 L0 424 L0 458 L0 477 L0 484 L2 493 L4 500 L6 505 L9 512 L11 522 L20 533 " fill="none" stroke="black" /></svg>