<?xml version="1.0" encoding="utf-8" ?>
<svg baseProfile="tiny" height="271" version="1.2" viewBox="-3 -3 347 271" width="347" xmlns="http://www.w3.org/2000/svg" xmlns:ev="http://www.w3.org/2001/xml-events" xmlns:xlink="http://www.w3.org/1999/xlink"><defs /><path d="M131 94 L125 104 L117 115 L110 122 L109 123 L109 124 L103 129 L94 134 L83 142 L71 149 L59 157 L49 165 L47 169 L45 173 L44 178 L42 183 L42 188 L45 195 L49 202 L54 209 L62 215 L73 222 L89 229 L102 235 L116 241 L127 243 L134 244 L147 246 L164 247 L183 247 L198 247 L207 247 L219 247 L240 245 L255 240 L267 236 L274 234 L283 231 L293 228 L305 222 L316 216 L324 211 L331 206 L339 199 L344 193 L347 187 L347 183 L347 176 L347 169 L344 164 L341 157 L333 147 L326 140 L319 134 L310 128 L304 126 L297 122 L289 118 L279 114 L271 112 L263 107 L256 100 L248 93 L240 82 L235 71 L231 63 L229 59 L227 56 L226 53 L224 48 L223 43 L222 38 L222 34 L222 30 L222 26 L222 21 L222 17 L223 14 L223 12 L223 11 L222 10 L219 8 L216 7 L212 5 L207 3 L201 2 L196 1 L191 1 L186 0 L180 0 L173 0 L166 0 L157 1 L153 3 L150 4 L149 5 L147 6 L146 7 L145 9 L144 13 L143 21 L143 29 L148 42 L152 47 " fill="none" stroke="black" /><path d="M131 94 L125 104 L117 115 L110 122 L109 123 L109 124 L103 129 L94 134 L83 142 L71 149 L59 157 L49 165 L47 169 L45 173 L44 178 L42 183 L42 188 L45 195 L49 202 L54 209 L62 215 L73 222 L89 229 L102 235 L116 241 L127 243 L134 244 L147 246 L164 247 L183 247 L198 247 L207 247 L219 247 L240 245 L255 240 L267 236 L274 234 L283 231 L293 228 L305 222 L316 216 L324 211 L331 206 L339 199 L344 193 L347 187 L347 183 L347 176 L347 169 L344 164 L341 157 L333 147 L326 140 L319 134 L310 128 L304 126 L297 122 L289 118 L279 114 L271 112 L263 107 L256 100 L248 93 L240 82 L235 71 L231 63 L229 59 L227 56 L226 53 L224 48 L223 43 L222 38 L222 34 L222 30 L222 26 L222 21 L222 17 L223 14 L223 12 L223 11 L222 10 L219 8 L216 7 L212 5 L207 3 L201 2 L196 1 L191 1 L186 0 L180 0 L173 0 L166 0 L157 1 L153 3 L150 4 L149 5 L147 6 L146 7 L145 9 L144 13 L143 21 L143 29 L148 42 L152 47 M159 245 L158 245 L157 246 L155 249 L154 252 L154 253 L154 255 L156 256 L157 257 L160 259 L163 261 L168 264 L171 266 L177 268 L185 270 L187 271 L192 271 L198 271 L206 271 L208 270 L210 269 L213 268 L216 265 L217 263 L219 261 L220 258 L222 256 L222 255 L223 254 L223 253 L224 252 L225 250 L226 248 " fill="none" stroke="black" /><path d="M131 94 L125 104 L117 115 L110 122 L109 123 L109 124 L103 129 L94 134 L83 142 L71 149 L59 157 L49 165 L47 169 L45 173 L44 178 L42 183 L42 188 L45 195 L49 202 L54 209 L62 215 L73 222 L89 229 L102 235 L116 241 L127 243 L134 244 L147 246 L164 247 L183 247 L198 247 L207 247 L219 247 L240 245 L255 240 L267 236 L274 234 L283 231 L293 228 L305 222 L316 216 L324 211 L331 206 L339 199 L344 193 L347 187 L347 183 L347 176 L347 169 L344 164 L341 157 L333 147 L326 140 L319 134 L310 128 L304 126 L297 122 L289 118 L279 114 L271 112 L263 107 L256 100 L248 93 L240 82 L235 71 L231 63 L229 59 L227 56 L226 53 L224 48 L223 43 L222 38 L222 34 L222 30 L222 26 L222 21 L222 17 L223 14 L223 12 L223 11 L222 10 L219 8 L216 7 L212 5 L207 3 L201 2 L196 1 L191 1 L186 0 L180 0 L173 0 L166 0 L157 1 L153 3 L150 4 L149 5 L147 6 L146 7 L145 9 L144 13 L143 21 L143 29 L148 42 L152 47 M159 245 L158 245 L157 246 L155 249 L154 252 L154 253 L154 255 L156 256 L157 257 L160 259 L163 261 L168 264 L171 266 L177 268 L185 270 L187 271 L192 271 L198 271 L206 271 L208 270 L210 269 L213 268 L216 265 L217 263 L219 261 L220 258 L222 256 L222 255 L223 254 L223 253 L224 252 L225 250 L226 248 M11 155 L10 159 L6 163 L3 167 L1 170 L0 173 L0 175 L1 179 L4 183 L5 185 L5 186 L6 186 " fill="none" stroke="black" /></svg>