<?xml version="1.0" encoding="utf-8" ?>
<svg baseProfile="tiny" height="356" version="1.2" viewBox="-3 -3 779 356" width="779" xmlns="http://www.w3.org/2000/svg" xmlns:ev="http://www.w3.org/2001/xml-events" xmlns:xlink="http://www.w3.org/1999/xlink"><defs /><path d="M289 75 L287 82 L276 95 L273 97 L264 104 L263 105 L270 105 L314 106 L343 114 L335 126 L293 154 L216 190 L149 209 L118 217 L115 218 L115 219 L154 224 L219 233 L249 240 L228 265 L202 285 L189 294 L187 296 L217 299 L271 307 L332 314 L351 319 L352 321 L354 322 L355 323 L356 323 " fill="none" stroke="black" /><path d="M289 75 L287 82 L276 95 L273 97 L264 104 L263 105 L270 105 L314 106 L343 114 L335 126 L293 154 L216 190 L149 209 L118 217 L115 218 L115 219 L154 224 L219 233 L249 240 L228 265 L202 285 L189 294 L187 296 L217 299 L271 307 L332 314 L351 319 L352 321 L354 322 L355 323 L356 323 M440 0 L442 2 L475 20 L512 48 L523 62 L509 78 L484 92 L467 100 L463 101 L463 102 L475 103 L512 110 L524 115 L523 120 L484 142 L407 165 L364 178 L364 179 L375 179 L413 189 L447 201 L450 204 L447 215 L434 230 L426 236 L437 238 L487 249 L501 257 L501 262 L485 273 L478 279 L484 280 L544 291 L569 299 L570 300 L554 312 L539 320 L538 320 L545 324 L624 350 L634 356 " fill="none" stroke="black" /><path d="M289 75 L287 82 L276 95 L273 97 L264 104 L263 105 L270 105 L314 106 L343 114 L335 126 L293 154 L216 190 L149 209 L118 217 L115 218 L115 219 L154 224 L219 233 L249 240 L228 265 L202 285 L189 294 L187 296 L217 299 L271 307 L332 314 L351 319 L352 321 L354 322 L355 323 L356 323 M440 0 L442 2 L475 20 L512 48 L523 62 L509 78 L484 92 L467 100 L463 101 L463 102 L475 103 L512 110 L524 115 L523 120 L484 142 L407 165 L364 178 L364 179 L375 179 L413 189 L447 201 L450 204 L447 215 L434 230 L426 236 L437 238 L487 249 L501 257 L501 262 L485 273 L478 279 L484 280 L544 291 L569 299 L570 300 L554 312 L539 320 L538 320 L545 324 L624 350 L634 356 M626 7 L643 10 L661 17 L674 29 L673 38 L647 78 L626 103 L621 113 L621 114 L630 117 L687 131 L707 140 L706 143 L680 160 L641 180 L616 193 L614 194 L616 194 L664 200 L707 215 L716 219 L716 221 L701 236 L691 248 L688 253 L705 261 L739 274 L757 283 L763 286 L764 289 L763 290 L752 300 L747 304 L747 305 L757 307 L775 309 L779 310 " fill="none" stroke="black" /><path d="M289 75 L287 82 L276 95 L273 97 L264 104 L263 105 L270 105 L314 106 L343 114 L335 126 L293 154 L216 190 L149 209 L118 217 L115 218 L115 219 L154 224 L219 233 L249 240 L228 265 L202 285 L189 294 L187 296 L217 299 L271 307 L332 314 L351 319 L352 321 L354 322 L355 323 L356 323 M440 0 L442 2 L475 20 L512 48 L523 62 L509 78 L484 92 L467 100 L463 101 L463 102 L475 103 L512 110 L524 115 L523 120 L484 142 L407 165 L364 178 L364 179 L375 179 L413 189 L447 201 L450 204 L447 215 L434 230 L426 236 L437 238 L487 249 L501 257 L501 262 L485 273 L478 279 L484 280 L544 291 L569 299 L570 300 L554 312 L539 320 L538 320 L545 324 L624 350 L634 356 M626 7 L643 10 L661 17 L674 29 L673 38 L647 78 L626 103 L621 113 L621 114 L630 117 L687 131 L707 140 L706 143 L680 160 L641 180 L616 193 L614 194 L616 194 L664 200 L707 215 L716 219 L716 221 L701 236 L691 248 L688 253 L705 261 L739 274 L757 283 L763 286 L764 289 L763 290 L752 300 L747 304 L747 305 L757 307 L775 309 L779 310 M9 39 L8 39 L18 39 L46 43 L61 54 L60 71 L36 93 L14 108 L0 118 L0 119 L1 120 L58 134 L105 150 L110 156 L108 161 L82 180 L49 199 L37 206 L32 209 L32 210 L71 218 L75 225 L62 237 L32 255 L20 262 L19 263 L19 265 L41 271 L70 281 L74 283 L72 286 L54 298 L35 311 L30 316 L32 316 L46 317 L60 319 L61 319 L63 319 " fill="none" stroke="black" /></svg>