<?xml version="1.0" encoding="utf-8" ?>
<svg baseProfile="tiny" height="46" version="1.2" viewBox="-3 -3 727 46" width="727" xmlns="http://www.w3.org/2000/svg" xmlns:ev="http://www.w3.org/2001/xml-events" xmlns:xlink="http://www.w3.org/1999/xlink"><defs /><path d="M0 9 L4 9 L9 9 L13 9 L16 9 L18 10 L22 11 L25 12 L29 13 L33 14 L35 15 L37 16 L39 16 L43 18 L48 19 L52 20 L56 21 L60 22 L62 23 L65 24 L68 25 L71 26 L74 27 L79 29 L85 31 L90 34 L95 35 L101 37 L108 39 L114 40 L119 41 L125 43 L131 44 L136 45 L144 46 L152 46 L163 46 L172 46 L183 46 L193 45 L201 44 L210 42 L218 40 L223 39 L226 38 L229 37 L235 35 L241 33 L245 32 L249 32 L252 30 L256 29 L259 28 L263 27 L266 25 L272 24 L277 22 L283 19 L288 17 L292 16 L294 14 L298 13 L301 12 L309 10 L316 8 L324 4 L328 3 L329 2 L332 2 L335 1 L337 0 L339 0 L340 0 L342 0 L344 0 L345 0 L346 0 L348 0 L349 0 L350 0 L351 0 L354 0 L357 0 L359 0 L362 0 L367 0 L372 0 L379 0 L382 0 L393 1 L402 2 L408 3 L411 3 L413 3 L421 4 L438 4 L440 4 L448 5 L458 7 L468 9 L472 10 L474 11 L477 12 L482 14 L487 15 L492 16 L496 18 L500 19 L505 21 L512 24 L527 28 L537 30 L542 32 L547 33 L551 34 L557 35 L567 37 L580 39 L588 40 L593 40 L599 40 L604 40 L608 40 L612 40 L618 39 L622 39 L626 38 L629 37 L633 37 L636 36 L639 36 L647 36 L652 36 L655 35 L658 34 L664 34 L673 33 L681 32 L685 31 L692 29 L700 27 L708 24 L714 22 L718 21 L721 21 L723 20 L725 19 L727 19 L727 18 " fill="none" stroke="black" /></svg>