<?xml version="1.0" encoding="utf-8" ?>
<svg baseProfile="tiny" height="127" version="1.2" viewBox="-3 -3 455 127" width="455" xmlns="http://www.w3.org/2000/svg" xmlns:ev="http://www.w3.org/2001/xml-events" xmlns:xlink="http://www.w3.org/1999/xlink"><defs /><path d="M168 28 L169 28 L180 32 L213 39 L245 41 L267 39 L289 33 L315 25 L342 19 L362 13 L391 7 L432 2 L450 0 L455 0 L452 14 L448 40 L446 55 L445 67 L445 73 L445 74 L415 75 L362 78 L329 79 L284 79 L254 79 L230 78 L217 76 L208 75 L182 72 L172 71 L169 70 L168 70 L167 64 L167 59 L167 53 L167 51 " fill="none" stroke="black" /><path d="M168 28 L169 28 L180 32 L213 39 L245 41 L267 39 L289 33 L315 25 L342 19 L362 13 L391 7 L432 2 L450 0 L455 0 L452 14 L448 40 L446 55 L445 67 L445 73 L445 74 L415 75 L362 78 L329 79 L284 79 L254 79 L230 78 L217 76 L208 75 L182 72 L172 71 L169 70 L168 70 L167 64 L167 59 L167 53 L167 51 M168 28 L167 30 L167 33 L165 41 L163 46 L162 48 L161 50 L160 53 L160 55 " fill="none" stroke="black" /><path d="M168 28 L169 28 L180 32 L213 39 L245 41 L267 39 L289 33 L315 25 L342 19 L362 13 L391 7 L432 2 L450 0 L455 0 L452 14 L448 40 L446 55 L445 67 L445 73 L445 74 L415 75 L362 78 L329 79 L284 79 L254 79 L230 78 L217 76 L208 75 L182 72 L172 71 L169 70 L168 70 L167 64 L167 59 L167 53 L167 51 M168 28 L167 30 L167 33 L165 41 L163 46 L162 48 L161 50 L160 53 L160 55 M193 35 L192 40 L189 57 L185 72 L184 79 L184 83 L184 84 L184 83 " fill="none" stroke="black" /><path d="M168 28 L169 28 L180 32 L213 39 L245 41 L267 39 L289 33 L315 25 L342 19 L362 13 L391 7 L432 2 L450 0 L455 0 L452 14 L448 40 L446 55 L445 67 L445 73 L445 74 L415 75 L362 78 L329 79 L284 79 L254 79 L230 78 L217 76 L208 75 L182 72 L172 71 L169 70 L168 70 L167 64 L167 59 L167 53 L167 51 M168 28 L167 30 L167 33 L165 41 L163 46 L162 48 L161 50 L160 53 L160 55 M193 35 L192 40 L189 57 L185 72 L184 79 L184 83 L184 84 L184 83 M233 59 L235 66 L236 70 L239 76 L239 79 L240 79 L244 72 " fill="none" stroke="black" /><path d="M168 28 L169 28 L180 32 L213 39 L245 41 L267 39 L289 33 L315 25 L342 19 L362 13 L391 7 L432 2 L450 0 L455 0 L452 14 L448 40 L446 55 L445 67 L445 73 L445 74 L415 75 L362 78 L329 79 L284 79 L254 79 L230 78 L217 76 L208 75 L182 72 L172 71 L169 70 L168 70 L167 64 L167 59 L167 53 L167 51 M168 28 L167 30 L167 33 L165 41 L163 46 L162 48 L161 50 L160 53 L160 55 M193 35 L192 40 L189 57 L185 72 L184 79 L184 83 L184 84 L184 83 M233 59 L235 66 L236 70 L239 76 L239 79 L240 79 L244 72 M297 23 L297 26 L299 36 L302 47 L305 63 L305 69 L306 71 L312 67 " fill="none" stroke="black" /><path d="M168 28 L169 28 L180 32 L213 39 L245 41 L267 39 L289 33 L315 25 L342 19 L362 13 L391 7 L432 2 L450 0 L455 0 L452 14 L448 40 L446 55 L445 67 L445 73 L445 74 L415 75 L362 78 L329 79 L284 79 L254 79 L230 78 L217 76 L208 75 L182 72 L172 71 L169 70 L168 70 L167 64 L167 59 L167 53 L167 51 M168 28 L167 30 L167 33 L165 41 L163 46 L162 48 L161 50 L160 53 L160 55 M193 35 L192 40 L189 57 L185 72 L184 79 L184 83 L184 84 L184 83 M233 59 L235 66 L236 70 L239 76 L239 79 L240 79 L244 72 M297 23 L297 26 L299 36 L302 47 L305 63 L305 69 L306 71 L312 67 M373 18 L374 20 L375 32 L375 57 L375 71 L375 74 " fill="none" stroke="black" /><path d="M168 28 L169 28 L180 32 L213 39 L245 41 L267 39 L289 33 L315 25 L342 19 L362 13 L391 7 L432 2 L450 0 L455 0 L452 14 L448 40 L446 55 L445 67 L445 73 L445 74 L415 75 L362 78 L329 79 L284 79 L254 79 L230 78 L217 76 L208 75 L182 72 L172 71 L169 70 L168 70 L167 64 L167 59 L167 53 L167 51 M168 28 L167 30 L167 33 L165 41 L163 46 L162 48 L161 50 L160 53 L160 55 M193 35 L192 40 L189 57 L185 72 L184 79 L184 83 L184 84 L184 83 M233 59 L235 66 L236 70 L239 76 L239 79 L240 79 L244 72 M297 23 L297 26 L299 36 L302 47 L305 63 L305 69 L306 71 L312 67 M373 18 L374 20 L375 32 L375 57 L375 71 L375 74 M432 2 L432 4 L432 17 L427 38 L425 44 L424 49 L424 50 L424 51 L424 53 L424 54 L424 57 L426 60 L426 63 L427 65 L427 67 L427 68 L428 68 L428 69 " fill="none" stroke="black" /><path d="M168 28 L169 28 L180 32 L213 39 L245 41 L267 39 L289 33 L315 25 L342 19 L362 13 L391 7 L432 2 L450 0 L455 0 L452 14 L448 40 L446 55 L445 67 L445 73 L445 74 L415 75 L362 78 L329 79 L284 79 L254 79 L230 78 L217 76 L208 75 L182 72 L172 71 L169 70 L168 70 L167 64 L167 59 L167 53 L167 51 M168 28 L167 30 L167 33 L165 41 L163 46 L162 48 L161 50 L160 53 L160 55 M193 35 L192 40 L189 57 L185 72 L184 79 L184 83 L184 84 L184 83 M233 59 L235 66 L236 70 L239 76 L239 79 L240 79 L244 72 M297 23 L297 26 L299 36 L302 47 L305 63 L305 69 L306 71 L312 67 M373 18 L374 20 L375 32 L375 57 L375 71 L375 74 M432 2 L432 4 L432 17 L427 38 L425 44 L424 49 L424 50 L424 51 L424 53 L424 54 L424 57 L426 60 L426 63 L427 65 L427 67 L427 68 L428 68 L428 69 M234 47 L234 48 L234 49 L234 50 L234 51 L234 52 L235 52 " fill="none" stroke="black" /><path d="M168 28 L169 28 L180 32 L213 39 L245 41 L267 39 L289 33 L315 25 L342 19 L362 13 L391 7 L432 2 L450 0 L455 0 L452 14 L448 40 L446 55 L445 67 L445 73 L445 74 L415 75 L362 78 L329 79 L284 79 L254 79 L230 78 L217 76 L208 75 L182 72 L172 71 L169 70 L168 70 L167 64 L167 59 L167 53 L167 51 M168 28 L167 30 L167 33 L165 41 L163 46 L162 48 L161 50 L160 53 L160 55 M193 35 L192 40 L189 57 L185 72 L184 79 L184 83 L184 84 L184 83 M233 59 L235 66 L236 70 L239 76 L239 79 L240 79 L244 72 M297 23 L297 26 L299 36 L302 47 L305 63 L305 69 L306 71 L312 67 M373 18 L374 20 L375 32 L375 57 L375 71 L375 74 M432 2 L432 4 L432 17 L427 38 L425 44 L424 49 L424 50 L424 51 L424 53 L424 54 L424 57 L426 60 L426 63 L427 65 L427 67 L427 68 L428 68 L428 69 M234 47 L234 48 L234 49 L234 50 L234 51 L234 52 L235 52 M235 82 L235 96 L235 97 " fill="none" stroke="black" /><path d="M168 28 L169 28 L180 32 L213 39 L245 41 L267 39 L289 33 L315 25 L342 19 L362 13 L391 7 L432 2 L450 0 L455 0 L452 14 L448 40 L446 55 L445 67 L445 73 L445 74 L415 75 L362 78 L329 79 L284 79 L254 79 L230 78 L217 76 L208 75 L182 72 L172 71 L169 70 L168 70 L167 64 L167 59 L167 53 L167 51 M168 28 L167 30 L167 33 L165 41 L163 46 L162 48 L161 50 L160 53 L160 55 M193 35 L192 40 L189 57 L185 72 L184 79 L184 83 L184 84 L184 83 M233 59 L235 66 L236 70 L239 76 L239 79 L240 79 L244 72 M297 23 L297 26 L299 36 L302 47 L305 63 L305 69 L306 71 L312 67 M373 18 L374 20 L375 32 L375 57 L375 71 L375 74 M432 2 L432 4 L432 17 L427 38 L425 44 L424 49 L424 50 L424 51 L424 53 L424 54 L424 57 L426 60 L426 63 L427 65 L427 67 L427 68 L428 68 L428 69 M234 47 L234 48 L234 49 L234 50 L234 51 L234 52 L235 52 M235 82 L235 96 L235 97 M61 66 L58 67 L53 74 L51 81 L51 86 L51 88 L52 88 L54 88 L58 87 L61 85 L64 80 L67 75 L67 72 L68 69 L68 66 L68 65 L66 64 L65 63 L64 63 L62 63 L60 63 L56 63 L54 64 " fill="none" stroke="black" /><path d="M168 28 L169 28 L180 32 L213 39 L245 41 L267 39 L289 33 L315 25 L342 19 L362 13 L391 7 L432 2 L450 0 L455 0 L452 14 L448 40 L446 55 L445 67 L445 73 L445 74 L415 75 L362 78 L329 79 L284 79 L254 79 L230 78 L217 76 L208 75 L182 72 L172 71 L169 70 L168 70 L167 64 L167 59 L167 53 L167 51 M168 28 L167 30 L167 33 L165 41 L163 46 L162 48 L161 50 L160 53 L160 55 M193 35 L192 40 L189 57 L185 72 L184 79 L184 83 L184 84 L184 83 M233 59 L235 66 L236 70 L239 76 L239 79 L240 79 L244 72 M297 23 L297 26 L299 36 L302 47 L305 63 L305 69 L306 71 L312 67 M373 18 L374 20 L375 32 L375 57 L375 71 L375 74 M432 2 L432 4 L432 17 L427 38 L425 44 L424 49 L424 50 L424 51 L424 53 L424 54 L424 57 L426 60 L426 63 L427 65 L427 67 L427 68 L428 68 L428 69 M234 47 L234 48 L234 49 L234 50 L234 51 L234 52 L235 52 M235 82 L235 96 L235 97 M61 66 L58 67 L53 74 L51 81 L51 86 L51 88 L52 88 L54 88 L58 87 L61 85 L64 80 L67 75 L67 72 L68 69 L68 66 L68 65 L66 64 L65 63 L64 63 L62 63 L60 63 L56 63 L54 64 M49 87 L47 89 L35 99 L14 113 L2 125 L0 127 " fill="none" stroke="black" /></svg>