<?xml version="1.0" encoding="utf-8" ?>
<svg baseProfile="tiny" height="87" version="1.2" viewBox="-3 -3 296 87" width="296" xmlns="http://www.w3.org/2000/svg" xmlns:ev="http://www.w3.org/2001/xml-events" xmlns:xlink="http://www.w3.org/1999/xlink"><defs /><path d="M159 3 L158 3 L149 5 L145 10 L143 17 L143 26 L147 28 L152 29 L155 26 L158 16 L158 6 L158 1 L157 0 L156 0 " fill="none" stroke="black" /><path d="M159 3 L158 3 L149 5 L145 10 L143 17 L143 26 L147 28 L152 29 L155 26 L158 16 L158 6 L158 1 L157 0 L156 0 M139 22 L116 33 L37 66 L3 84 L0 87 L2 87 " fill="none" stroke="black" /><path d="M159 3 L158 3 L149 5 L145 10 L143 17 L143 26 L147 28 L152 29 L155 26 L158 16 L158 6 L158 1 L157 0 L156 0 M139 22 L116 33 L37 66 L3 84 L0 87 L2 87 M202 35 L199 54 L199 64 L212 52 L221 38 L224 26 L224 22 L222 21 L221 19 L218 19 L216 19 L214 20 L213 21 L211 22 L210 24 L209 28 L206 33 L205 37 L204 39 L204 40 L204 41 " fill="none" stroke="black" /><path d="M159 3 L158 3 L149 5 L145 10 L143 17 L143 26 L147 28 L152 29 L155 26 L158 16 L158 6 L158 1 L157 0 L156 0 M139 22 L116 33 L37 66 L3 84 L0 87 L2 87 M202 35 L199 54 L199 64 L212 52 L221 38 L224 26 L224 22 L222 21 L221 19 L218 19 L216 19 L214 20 L213 21 L211 22 L210 24 L209 28 L206 33 L205 37 L204 39 L204 40 L204 41 M223 15 L228 16 L238 17 L255 22 L266 25 L271 27 L274 27 L276 28 L279 28 L285 29 L296 32 " fill="none" stroke="black" /><path d="M159 3 L158 3 L149 5 L145 10 L143 17 L143 26 L147 28 L152 29 L155 26 L158 16 L158 6 L158 1 L157 0 L156 0 M139 22 L116 33 L37 66 L3 84 L0 87 L2 87 M202 35 L199 54 L199 64 L212 52 L221 38 L224 26 L224 22 L222 21 L221 19 L218 19 L216 19 L214 20 L213 21 L211 22 L210 24 L209 28 L206 33 L205 37 L204 39 L204 40 L204 41 M223 15 L228 16 L238 17 L255 22 L266 25 L271 27 L274 27 L276 28 L279 28 L285 29 L296 32 M242 28 L241 28 L241 31 L239 36 L238 42 L235 49 L233 56 L231 62 L230 65 L230 67 L230 68 L230 70 L233 72 L234 73 L236 74 L238 74 L240 74 L243 72 L244 70 L246 66 L246 60 L248 55 L248 49 L249 45 L250 40 L250 36 L250 32 L251 26 L252 22 L253 19 L253 18 L253 17 L252 17 L250 17 L249 18 L248 19 L248 21 " fill="none" stroke="black" /><path d="M159 3 L158 3 L149 5 L145 10 L143 17 L143 26 L147 28 L152 29 L155 26 L158 16 L158 6 L158 1 L157 0 L156 0 M139 22 L116 33 L37 66 L3 84 L0 87 L2 87 M202 35 L199 54 L199 64 L212 52 L221 38 L224 26 L224 22 L222 21 L221 19 L218 19 L216 19 L214 20 L213 21 L211 22 L210 24 L209 28 L206 33 L205 37 L204 39 L204 40 L204 41 M223 15 L228 16 L238 17 L255 22 L266 25 L271 27 L274 27 L276 28 L279 28 L285 29 L296 32 M242 28 L241 28 L241 31 L239 36 L238 42 L235 49 L233 56 L231 62 L230 65 L230 67 L230 68 L230 70 L233 72 L234 73 L236 74 L238 74 L240 74 L243 72 L244 70 L246 66 L246 60 L248 55 L248 49 L249 45 L250 40 L250 36 L250 32 L251 26 L252 22 L253 19 L253 18 L253 17 L252 17 L250 17 L249 18 L248 19 L248 21 M268 29 L267 31 L266 37 L265 44 L264 50 L263 54 L262 58 L262 61 L262 65 L262 68 L262 71 L262 74 L263 75 L263 76 L266 76 L269 76 L271 76 L274 75 L277 72 L280 68 L281 65 L281 62 L281 61 L281 58 L281 53 L282 49 L282 46 L282 43 L281 38 L281 31 L280 29 L280 28 L280 27 L279 27 L277 26 L276 25 L275 23 L274 22 L273 22 " fill="none" stroke="black" /></svg>