<?xml version="1.0" encoding="utf-8" ?>
<svg baseProfile="tiny" height="521" version="1.2" viewBox="-3 -3 827 521" width="827" xmlns="http://www.w3.org/2000/svg" xmlns:ev="http://www.w3.org/2001/xml-events" xmlns:xlink="http://www.w3.org/1999/xlink"><defs /><path d="M267 494 L269 493 L271 492 L275 491 L276 490 L277 490 L279 490 L281 490 L282 491 L283 494 L286 497 L287 498 L288 500 L291 502 L291 504 L292 505 L293 506 " fill="none" stroke="black" /><path d="M267 494 L269 493 L271 492 L275 491 L276 490 L277 490 L279 490 L281 490 L282 491 L283 494 L286 497 L287 498 L288 500 L291 502 L291 504 L292 505 L293 506 M226 498 L226 495 L229 490 L237 484 L244 477 L253 472 L262 470 L268 469 L271 469 L277 469 L284 471 L289 472 L294 476 L303 482 L310 487 L315 492 L322 497 L323 498 L323 499 L326 500 L326 501 " fill="none" stroke="black" /><path d="M267 494 L269 493 L271 492 L275 491 L276 490 L277 490 L279 490 L281 490 L282 491 L283 494 L286 497 L287 498 L288 500 L291 502 L291 504 L292 505 L293 506 M226 498 L226 495 L229 490 L237 484 L244 477 L253 472 L262 470 L268 469 L271 469 L277 469 L284 471 L289 472 L294 476 L303 482 L310 487 L315 492 L322 497 L323 498 L323 499 L326 500 L326 501 M207 482 L207 480 L215 472 L228 465 L239 461 L253 456 L274 453 L286 452 L292 452 L300 455 L314 461 L327 468 L334 473 L343 479 L351 487 L356 494 L361 500 L363 505 L365 509 L366 511 L366 512 L365 512 " fill="none" stroke="black" /><path d="M267 494 L269 493 L271 492 L275 491 L276 490 L277 490 L279 490 L281 490 L282 491 L283 494 L286 497 L287 498 L288 500 L291 502 L291 504 L292 505 L293 506 M226 498 L226 495 L229 490 L237 484 L244 477 L253 472 L262 470 L268 469 L271 469 L277 469 L284 471 L289 472 L294 476 L303 482 L310 487 L315 492 L322 497 L323 498 L323 499 L326 500 L326 501 M207 482 L207 480 L215 472 L228 465 L239 461 L253 456 L274 453 L286 452 L292 452 L300 455 L314 461 L327 468 L334 473 L343 479 L351 487 L356 494 L361 500 L363 505 L365 509 L366 511 L366 512 L365 512 M133 470 L134 469 L138 460 L153 439 L174 420 L200 409 L235 404 L269 402 L294 403 L314 409 L339 420 L367 432 L383 443 L400 458 L413 470 L421 478 L423 480 L421 479 " fill="none" stroke="black" /><path d="M267 494 L269 493 L271 492 L275 491 L276 490 L277 490 L279 490 L281 490 L282 491 L283 494 L286 497 L287 498 L288 500 L291 502 L291 504 L292 505 L293 506 M226 498 L226 495 L229 490 L237 484 L244 477 L253 472 L262 470 L268 469 L271 469 L277 469 L284 471 L289 472 L294 476 L303 482 L310 487 L315 492 L322 497 L323 498 L323 499 L326 500 L326 501 M207 482 L207 480 L215 472 L228 465 L239 461 L253 456 L274 453 L286 452 L292 452 L300 455 L314 461 L327 468 L334 473 L343 479 L351 487 L356 494 L361 500 L363 505 L365 509 L366 511 L366 512 L365 512 M133 470 L134 469 L138 460 L153 439 L174 420 L200 409 L235 404 L269 402 L294 403 L314 409 L339 420 L367 432 L383 443 L400 458 L413 470 L421 478 L423 480 L421 479 M84 432 L85 430 L97 415 L118 398 L156 379 L202 372 L247 364 L299 358 L316 359 L341 371 L376 388 L406 416 L428 446 L448 478 L453 485 L458 496 L460 501 L456 494 " fill="none" stroke="black" /><path d="M267 494 L269 493 L271 492 L275 491 L276 490 L277 490 L279 490 L281 490 L282 491 L283 494 L286 497 L287 498 L288 500 L291 502 L291 504 L292 505 L293 506 M226 498 L226 495 L229 490 L237 484 L244 477 L253 472 L262 470 L268 469 L271 469 L277 469 L284 471 L289 472 L294 476 L303 482 L310 487 L315 492 L322 497 L323 498 L323 499 L326 500 L326 501 M207 482 L207 480 L215 472 L228 465 L239 461 L253 456 L274 453 L286 452 L292 452 L300 455 L314 461 L327 468 L334 473 L343 479 L351 487 L356 494 L361 500 L363 505 L365 509 L366 511 L366 512 L365 512 M133 470 L134 469 L138 460 L153 439 L174 420 L200 409 L235 404 L269 402 L294 403 L314 409 L339 420 L367 432 L383 443 L400 458 L413 470 L421 478 L423 480 L421 479 M84 432 L85 430 L97 415 L118 398 L156 379 L202 372 L247 364 L299 358 L316 359 L341 371 L376 388 L406 416 L428 446 L448 478 L453 485 L458 496 L460 501 L456 494 M12 371 L22 358 L50 336 L91 315 L137 298 L191 286 L226 281 L277 278 L332 277 L367 284 L386 296 L424 327 L454 356 L476 389 L487 414 L505 450 L535 495 L539 500 L540 500 L539 499 " fill="none" stroke="black" /><path d="M267 494 L269 493 L271 492 L275 491 L276 490 L277 490 L279 490 L281 490 L282 491 L283 494 L286 497 L287 498 L288 500 L291 502 L291 504 L292 505 L293 506 M226 498 L226 495 L229 490 L237 484 L244 477 L253 472 L262 470 L268 469 L271 469 L277 469 L284 471 L289 472 L294 476 L303 482 L310 487 L315 492 L322 497 L323 498 L323 499 L326 500 L326 501 M207 482 L207 480 L215 472 L228 465 L239 461 L253 456 L274 453 L286 452 L292 452 L300 455 L314 461 L327 468 L334 473 L343 479 L351 487 L356 494 L361 500 L363 505 L365 509 L366 511 L366 512 L365 512 M133 470 L134 469 L138 460 L153 439 L174 420 L200 409 L235 404 L269 402 L294 403 L314 409 L339 420 L367 432 L383 443 L400 458 L413 470 L421 478 L423 480 L421 479 M84 432 L85 430 L97 415 L118 398 L156 379 L202 372 L247 364 L299 358 L316 359 L341 371 L376 388 L406 416 L428 446 L448 478 L453 485 L458 496 L460 501 L456 494 M12 371 L22 358 L50 336 L91 315 L137 298 L191 286 L226 281 L277 278 L332 277 L367 284 L386 296 L424 327 L454 356 L476 389 L487 414 L505 450 L535 495 L539 500 L540 500 L539 499 M0 286 L35 248 L142 186 L240 156 L305 155 L353 169 L436 193 L498 224 L536 249 L598 315 L645 393 L669 452 L681 488 L690 510 L693 517 L693 518 L694 521 " fill="none" stroke="black" /><path d="M267 494 L269 493 L271 492 L275 491 L276 490 L277 490 L279 490 L281 490 L282 491 L283 494 L286 497 L287 498 L288 500 L291 502 L291 504 L292 505 L293 506 M226 498 L226 495 L229 490 L237 484 L244 477 L253 472 L262 470 L268 469 L271 469 L277 469 L284 471 L289 472 L294 476 L303 482 L310 487 L315 492 L322 497 L323 498 L323 499 L326 500 L326 501 M207 482 L207 480 L215 472 L228 465 L239 461 L253 456 L274 453 L286 452 L292 452 L300 455 L314 461 L327 468 L334 473 L343 479 L351 487 L356 494 L361 500 L363 505 L365 509 L366 511 L366 512 L365 512 M133 470 L134 469 L138 460 L153 439 L174 420 L200 409 L235 404 L269 402 L294 403 L314 409 L339 420 L367 432 L383 443 L400 458 L413 470 L421 478 L423 480 L421 479 M84 432 L85 430 L97 415 L118 398 L156 379 L202 372 L247 364 L299 358 L316 359 L341 371 L376 388 L406 416 L428 446 L448 478 L453 485 L458 496 L460 501 L456 494 M12 371 L22 358 L50 336 L91 315 L137 298 L191 286 L226 281 L277 278 L332 277 L367 284 L386 296 L424 327 L454 356 L476 389 L487 414 L505 450 L535 495 L539 500 L540 500 L539 499 M0 286 L35 248 L142 186 L240 156 L305 155 L353 169 L436 193 L498 224 L536 249 L598 315 L645 393 L669 452 L681 488 L690 510 L693 517 L693 518 L694 521 M8 190 L25 172 L75 142 L135 124 L271 115 L422 122 L493 141 L648 199 L722 249 L761 303 L797 358 L824 398 L826 402 L827 404 " fill="none" stroke="black" /><path d="M267 494 L269 493 L271 492 L275 491 L276 490 L277 490 L279 490 L281 490 L282 491 L283 494 L286 497 L287 498 L288 500 L291 502 L291 504 L292 505 L293 506 M226 498 L226 495 L229 490 L237 484 L244 477 L253 472 L262 470 L268 469 L271 469 L277 469 L284 471 L289 472 L294 476 L303 482 L310 487 L315 492 L322 497 L323 498 L323 499 L326 500 L326 501 M207 482 L207 480 L215 472 L228 465 L239 461 L253 456 L274 453 L286 452 L292 452 L300 455 L314 461 L327 468 L334 473 L343 479 L351 487 L356 494 L361 500 L363 505 L365 509 L366 511 L366 512 L365 512 M133 470 L134 469 L138 460 L153 439 L174 420 L200 409 L235 404 L269 402 L294 403 L314 409 L339 420 L367 432 L383 443 L400 458 L413 470 L421 478 L423 480 L421 479 M84 432 L85 430 L97 415 L118 398 L156 379 L202 372 L247 364 L299 358 L316 359 L341 371 L376 388 L406 416 L428 446 L448 478 L453 485 L458 496 L460 501 L456 494 M12 371 L22 358 L50 336 L91 315 L137 298 L191 286 L226 281 L277 278 L332 277 L367 284 L386 296 L424 327 L454 356 L476 389 L487 414 L505 450 L535 495 L539 500 L540 500 L539 499 M0 286 L35 248 L142 186 L240 156 L305 155 L353 169 L436 193 L498 224 L536 249 L598 315 L645 393 L669 452 L681 488 L690 510 L693 517 L693 518 L694 521 M8 190 L25 172 L75 142 L135 124 L271 115 L422 122 L493 141 L648 199 L722 249 L761 303 L797 358 L824 398 L826 402 L827 404 M138 0 L137 0 " fill="none" stroke="black" /></svg>