<?xml version="1.0" encoding="utf-8" ?>
<svg baseProfile="tiny" height="137" version="1.2" viewBox="-3 -3 180 137" width="180" xmlns="http://www.w3.org/2000/svg" xmlns:ev="http://www.w3.org/2001/xml-events" xmlns:xlink="http://www.w3.org/1999/xlink"><defs /><path d="M68 80 L70 80 L73 77 L75 74 L75 69 L75 64 L75 61 L75 60 L74 59 L73 58 L72 58 " fill="none" stroke="black" /><path d="M68 80 L70 80 L73 77 L75 74 L75 69 L75 64 L75 61 L75 60 L74 59 L73 58 L72 58 M46 44 L44 46 L44 51 L42 61 L42 69 L43 76 L45 79 L46 81 L47 84 L50 88 L53 92 L60 96 L67 100 L70 100 L76 100 L81 99 L84 97 L87 92 L91 84 L93 74 L94 67 L94 58 L94 49 L94 42 L93 38 L90 36 L86 34 L81 34 L72 34 L64 36 L58 39 L55 41 L53 42 L49 43 L44 44 L41 45 L41 46 " fill="none" stroke="black" /><path d="M68 80 L70 80 L73 77 L75 74 L75 69 L75 64 L75 61 L75 60 L74 59 L73 58 L72 58 M46 44 L44 46 L44 51 L42 61 L42 69 L43 76 L45 79 L46 81 L47 84 L50 88 L53 92 L60 96 L67 100 L70 100 L76 100 L81 99 L84 97 L87 92 L91 84 L93 74 L94 67 L94 58 L94 49 L94 42 L93 38 L90 36 L86 34 L81 34 L72 34 L64 36 L58 39 L55 41 L53 42 L49 43 L44 44 L41 45 L41 46 M46 25 L43 25 L32 29 L24 37 L20 46 L18 55 L17 62 L17 69 L19 76 L22 81 L25 90 L28 95 L31 99 L36 103 L39 106 L50 111 L58 115 L65 118 L73 119 L82 120 L91 120 L102 118 L113 111 L126 99 L129 93 L131 81 L132 73 L129 57 L126 48 L122 41 L118 34 L111 25 L107 20 L103 17 L101 15 L98 15 L92 14 L83 13 L72 13 L55 15 L51 17 L49 17 L45 17 L44 18 " fill="none" stroke="black" /><path d="M68 80 L70 80 L73 77 L75 74 L75 69 L75 64 L75 61 L75 60 L74 59 L73 58 L72 58 M46 44 L44 46 L44 51 L42 61 L42 69 L43 76 L45 79 L46 81 L47 84 L50 88 L53 92 L60 96 L67 100 L70 100 L76 100 L81 99 L84 97 L87 92 L91 84 L93 74 L94 67 L94 58 L94 49 L94 42 L93 38 L90 36 L86 34 L81 34 L72 34 L64 36 L58 39 L55 41 L53 42 L49 43 L44 44 L41 45 L41 46 M46 25 L43 25 L32 29 L24 37 L20 46 L18 55 L17 62 L17 69 L19 76 L22 81 L25 90 L28 95 L31 99 L36 103 L39 106 L50 111 L58 115 L65 118 L73 119 L82 120 L91 120 L102 118 L113 111 L126 99 L129 93 L131 81 L132 73 L129 57 L126 48 L122 41 L118 34 L111 25 L107 20 L103 17 L101 15 L98 15 L92 14 L83 13 L72 13 L55 15 L51 17 L49 17 L45 17 L44 18 M39 5 L36 7 L30 11 L24 14 L16 20 L11 27 L9 32 L7 38 L5 45 L2 53 L1 63 L0 71 L0 80 L3 88 L7 97 L12 108 L18 116 L22 123 L28 127 L28 129 L31 131 L39 131 L46 133 L60 134 L77 137 L93 137 L113 137 L132 135 L145 134 L150 132 L160 127 L170 119 L176 111 L179 99 L180 84 L180 73 L177 54 L169 34 L160 17 L150 8 L142 3 L137 1 L132 0 L115 0 L102 0 L90 1 L68 5 L53 11 L43 13 L41 14 L35 16 L32 16 L29 17 L27 17 L26 17 L27 18 " fill="none" stroke="black" /></svg>