<?xml version="1.0" encoding="utf-8" ?>
<svg baseProfile="tiny" height="74" version="1.2" viewBox="-3 -3 157 74" width="157" xmlns="http://www.w3.org/2000/svg" xmlns:ev="http://www.w3.org/2001/xml-events" xmlns:xlink="http://www.w3.org/1999/xlink"><defs /><path d="M16 16 L17 12 L18 8 L21 4 L23 2 L23 1 L24 1 L26 1 L28 1 L30 3 L32 8 L32 17 L32 27 L32 32 L32 34 L31 36 L29 42 L27 46 L25 51 L24 52 L24 54 L21 55 L18 57 L12 61 L8 62 L6 64 L4 64 L3 65 L2 65 L1 65 L0 65 L0 64 L0 62 L0 59 " fill="none" stroke="black" /><path d="M16 16 L17 12 L18 8 L21 4 L23 2 L23 1 L24 1 L26 1 L28 1 L30 3 L32 8 L32 17 L32 27 L32 32 L32 34 L31 36 L29 42 L27 46 L25 51 L24 52 L24 54 L21 55 L18 57 L12 61 L8 62 L6 64 L4 64 L3 65 L2 65 L1 65 L0 65 L0 64 L0 62 L0 59 M25 0 L27 0 L29 1 L31 1 L34 2 L42 4 L47 6 L57 8 L65 10 L72 11 L76 12 L83 13 L93 13 L96 14 L100 15 L102 15 L108 16 L117 17 L122 17 L127 17 L134 17 L140 17 L143 17 L147 18 L149 19 L151 19 L152 19 L154 20 L156 20 L157 20 " fill="none" stroke="black" /><path d="M16 16 L17 12 L18 8 L21 4 L23 2 L23 1 L24 1 L26 1 L28 1 L30 3 L32 8 L32 17 L32 27 L32 32 L32 34 L31 36 L29 42 L27 46 L25 51 L24 52 L24 54 L21 55 L18 57 L12 61 L8 62 L6 64 L4 64 L3 65 L2 65 L1 65 L0 65 L0 64 L0 62 L0 59 M25 0 L27 0 L29 1 L31 1 L34 2 L42 4 L47 6 L57 8 L65 10 L72 11 L76 12 L83 13 L93 13 L96 14 L100 15 L102 15 L108 16 L117 17 L122 17 L127 17 L134 17 L140 17 L143 17 L147 18 L149 19 L151 19 L152 19 L154 20 L156 20 L157 20 M63 10 L61 10 L57 17 L55 20 L54 23 L53 27 L51 32 L49 36 L48 40 L47 43 L46 47 L45 51 L45 54 L44 56 L44 59 L44 62 L44 64 L44 66 L44 67 L45 68 L46 70 L47 71 L49 73 L50 74 L52 74 L53 74 L56 73 L60 69 L63 65 L65 63 L65 60 L66 57 L68 54 L69 50 L71 47 L72 44 L72 42 L73 40 L73 38 L73 37 L73 34 L73 32 L73 30 L73 27 L73 24 L73 23 L73 20 L72 17 L72 16 L71 15 L70 15 L70 14 L69 13 L66 12 " fill="none" stroke="black" /><path d="M16 16 L17 12 L18 8 L21 4 L23 2 L23 1 L24 1 L26 1 L28 1 L30 3 L32 8 L32 17 L32 27 L32 32 L32 34 L31 36 L29 42 L27 46 L25 51 L24 52 L24 54 L21 55 L18 57 L12 61 L8 62 L6 64 L4 64 L3 65 L2 65 L1 65 L0 65 L0 64 L0 62 L0 59 M25 0 L27 0 L29 1 L31 1 L34 2 L42 4 L47 6 L57 8 L65 10 L72 11 L76 12 L83 13 L93 13 L96 14 L100 15 L102 15 L108 16 L117 17 L122 17 L127 17 L134 17 L140 17 L143 17 L147 18 L149 19 L151 19 L152 19 L154 20 L156 20 L157 20 M63 10 L61 10 L57 17 L55 20 L54 23 L53 27 L51 32 L49 36 L48 40 L47 43 L46 47 L45 51 L45 54 L44 56 L44 59 L44 62 L44 64 L44 66 L44 67 L45 68 L46 70 L47 71 L49 73 L50 74 L52 74 L53 74 L56 73 L60 69 L63 65 L65 63 L65 60 L66 57 L68 54 L69 50 L71 47 L72 44 L72 42 L73 40 L73 38 L73 37 L73 34 L73 32 L73 30 L73 27 L73 24 L73 23 L73 20 L72 17 L72 16 L71 15 L70 15 L70 14 L69 13 L66 12 M114 20 L114 22 L110 28 L105 40 L102 48 L99 57 L98 62 L98 64 L98 65 L98 66 L100 67 L101 67 L102 67 L106 68 L110 68 L114 67 L117 65 L119 64 L120 61 L122 58 L123 55 L123 50 L123 46 L123 41 L123 37 L122 30 L121 25 L121 24 L121 22 L121 21 L121 20 " fill="none" stroke="black" /></svg>