<?xml version="1.0" encoding="utf-8" ?>
<svg baseProfile="tiny" height="348" version="1.2" viewBox="-3 -3 1305 348" width="1305" xmlns="http://www.w3.org/2000/svg" xmlns:ev="http://www.w3.org/2001/xml-events" xmlns:xlink="http://www.w3.org/1999/xlink"><defs /><path d="M274 320 L274 318 L286 285 L319 195 L336 148 L337 147 L341 156 L367 245 L381 334 L381 348 L382 319 L408 175 L443 68 L456 44 L461 52 L473 127 L485 200 L493 218 L503 195 L536 119 L559 70 L562 84 L572 175 L577 224 L581 239 L588 214 L626 121 L668 14 L678 0 L693 28 L709 172 L716 235 L720 256 L728 233 L789 123 L824 72 L827 67 L836 85 L860 180 L875 236 L876 241 L877 240 L895 191 L934 101 L959 47 L965 43 L992 128 L1002 194 L1006 208 L1022 191 L1066 126 L1097 81 L1103 76 L1125 114 L1134 152 L1140 167 L1146 156 L1182 89 L1197 62 L1199 68 L1208 144 L1219 180 L1224 190 L1225 190 L1248 151 L1289 85 L1300 65 L1303 68 L1305 116 L1305 153 L1305 160 " fill="none" stroke="black" /><path d="M274 320 L274 318 L286 285 L319 195 L336 148 L337 147 L341 156 L367 245 L381 334 L381 348 L382 319 L408 175 L443 68 L456 44 L461 52 L473 127 L485 200 L493 218 L503 195 L536 119 L559 70 L562 84 L572 175 L577 224 L581 239 L588 214 L626 121 L668 14 L678 0 L693 28 L709 172 L716 235 L720 256 L728 233 L789 123 L824 72 L827 67 L836 85 L860 180 L875 236 L876 241 L877 240 L895 191 L934 101 L959 47 L965 43 L992 128 L1002 194 L1006 208 L1022 191 L1066 126 L1097 81 L1103 76 L1125 114 L1134 152 L1140 167 L1146 156 L1182 89 L1197 62 L1199 68 L1208 144 L1219 180 L1224 190 L1225 190 L1248 151 L1289 85 L1300 65 L1303 68 L1305 116 L1305 153 L1305 160 M270 318 L270 313 L269 293 L268 251 L262 198 L254 148 L250 126 L248 119 L248 122 L242 156 L219 225 L199 276 L195 285 L192 295 L189 301 L189 302 L189 297 L196 255 L200 189 L200 152 L200 134 L200 131 L200 132 L191 162 L181 204 L169 251 L161 284 L158 287 L157 287 L156 287 L155 265 L152 211 L151 176 L146 155 L145 150 L140 161 L132 193 L119 235 L110 263 L106 274 L105 276 L104 276 L103 276 L99 244 L98 205 L100 176 L101 162 L101 159 L101 162 L94 181 L85 208 L70 250 L67 260 L65 261 L64 260 L64 209 L63 159 L63 116 L62 73 L60 58 L59 63 L45 99 L23 159 L12 199 L9 220 L8 226 L8 232 L7 237 L6 240 L5 240 L5 221 L5 199 L5 197 L5 203 L0 234 L0 261 L0 282 L0 293 L0 291 " fill="none" stroke="black" /></svg>