<?xml version="1.0" encoding="utf-8" ?>
<svg baseProfile="tiny" height="332" version="1.2" viewBox="-3 -3 768 332" width="768" xmlns="http://www.w3.org/2000/svg" xmlns:ev="http://www.w3.org/2001/xml-events" xmlns:xlink="http://www.w3.org/1999/xlink"><defs /><path d="M261 96 L255 98 L251 100 L247 102 L237 108 L225 117 L214 127 L206 136 L197 148 L192 161 L188 175 L186 187 L186 196 L191 208 L202 223 L223 236 L243 248 L257 254 L279 261 L317 268 L350 271 L360 271 L388 269 L433 258 L468 243 L478 233 L488 214 L498 187 L501 160 L500 134 L493 108 L482 88 L468 71 L456 61 L446 56 L438 52 L428 49 L418 47 L406 47 L391 47 L373 51 L361 54 L354 57 L345 60 L331 66 L318 71 L307 76 L294 82 L282 90 L275 94 L271 96 L262 100 L256 104 L253 106 L250 109 L249 110 L248 111 L248 112 " fill="none" stroke="black" /><path d="M261 96 L255 98 L251 100 L247 102 L237 108 L225 117 L214 127 L206 136 L197 148 L192 161 L188 175 L186 187 L186 196 L191 208 L202 223 L223 236 L243 248 L257 254 L279 261 L317 268 L350 271 L360 271 L388 269 L433 258 L468 243 L478 233 L488 214 L498 187 L501 160 L500 134 L493 108 L482 88 L468 71 L456 61 L446 56 L438 52 L428 49 L418 47 L406 47 L391 47 L373 51 L361 54 L354 57 L345 60 L331 66 L318 71 L307 76 L294 82 L282 90 L275 94 L271 96 L262 100 L256 104 L253 106 L250 109 L249 110 L248 111 L248 112 M337 119 L318 125 L307 130 L296 135 L283 144 L273 154 L270 162 L270 168 L270 178 L272 187 L278 196 L284 204 L292 209 L301 211 L307 213 L319 216 L335 218 L349 219 L362 218 L395 206 L407 199 L418 187 L423 177 L426 172 L427 168 L427 164 L424 157 L418 148 L411 140 L405 133 L402 130 L398 129 L395 128 L391 127 L386 126 L382 126 L374 126 L366 126 L357 126 L349 127 L346 129 L343 130 L340 131 L338 132 L334 133 L331 134 L329 134 L328 134 L327 134 L325 134 " fill="none" stroke="black" /><path d="M261 96 L255 98 L251 100 L247 102 L237 108 L225 117 L214 127 L206 136 L197 148 L192 161 L188 175 L186 187 L186 196 L191 208 L202 223 L223 236 L243 248 L257 254 L279 261 L317 268 L350 271 L360 271 L388 269 L433 258 L468 243 L478 233 L488 214 L498 187 L501 160 L500 134 L493 108 L482 88 L468 71 L456 61 L446 56 L438 52 L428 49 L418 47 L406 47 L391 47 L373 51 L361 54 L354 57 L345 60 L331 66 L318 71 L307 76 L294 82 L282 90 L275 94 L271 96 L262 100 L256 104 L253 106 L250 109 L249 110 L248 111 L248 112 M337 119 L318 125 L307 130 L296 135 L283 144 L273 154 L270 162 L270 168 L270 178 L272 187 L278 196 L284 204 L292 209 L301 211 L307 213 L319 216 L335 218 L349 219 L362 218 L395 206 L407 199 L418 187 L423 177 L426 172 L427 168 L427 164 L424 157 L418 148 L411 140 L405 133 L402 130 L398 129 L395 128 L391 127 L386 126 L382 126 L374 126 L366 126 L357 126 L349 127 L346 129 L343 130 L340 131 L338 132 L334 133 L331 134 L329 134 L328 134 L327 134 L325 134 M183 66 L176 64 L165 62 L145 59 L113 54 L83 46 L77 43 L76 42 " fill="none" stroke="black" /><path d="M261 96 L255 98 L251 100 L247 102 L237 108 L225 117 L214 127 L206 136 L197 148 L192 161 L188 175 L186 187 L186 196 L191 208 L202 223 L223 236 L243 248 L257 254 L279 261 L317 268 L350 271 L360 271 L388 269 L433 258 L468 243 L478 233 L488 214 L498 187 L501 160 L500 134 L493 108 L482 88 L468 71 L456 61 L446 56 L438 52 L428 49 L418 47 L406 47 L391 47 L373 51 L361 54 L354 57 L345 60 L331 66 L318 71 L307 76 L294 82 L282 90 L275 94 L271 96 L262 100 L256 104 L253 106 L250 109 L249 110 L248 111 L248 112 M337 119 L318 125 L307 130 L296 135 L283 144 L273 154 L270 162 L270 168 L270 178 L272 187 L278 196 L284 204 L292 209 L301 211 L307 213 L319 216 L335 218 L349 219 L362 218 L395 206 L407 199 L418 187 L423 177 L426 172 L427 168 L427 164 L424 157 L418 148 L411 140 L405 133 L402 130 L398 129 L395 128 L391 127 L386 126 L382 126 L374 126 L366 126 L357 126 L349 127 L346 129 L343 130 L340 131 L338 132 L334 133 L331 134 L329 134 L328 134 L327 134 L325 134 M183 66 L176 64 L165 62 L145 59 L113 54 L83 46 L77 43 L76 42 M84 135 L82 136 L58 142 L20 144 L4 144 L1 144 L0 144 " fill="none" stroke="black" /><path d="M261 96 L255 98 L251 100 L247 102 L237 108 L225 117 L214 127 L206 136 L197 148 L192 161 L188 175 L186 187 L186 196 L191 208 L202 223 L223 236 L243 248 L257 254 L279 261 L317 268 L350 271 L360 271 L388 269 L433 258 L468 243 L478 233 L488 214 L498 187 L501 160 L500 134 L493 108 L482 88 L468 71 L456 61 L446 56 L438 52 L428 49 L418 47 L406 47 L391 47 L373 51 L361 54 L354 57 L345 60 L331 66 L318 71 L307 76 L294 82 L282 90 L275 94 L271 96 L262 100 L256 104 L253 106 L250 109 L249 110 L248 111 L248 112 M337 119 L318 125 L307 130 L296 135 L283 144 L273 154 L270 162 L270 168 L270 178 L272 187 L278 196 L284 204 L292 209 L301 211 L307 213 L319 216 L335 218 L349 219 L362 218 L395 206 L407 199 L418 187 L423 177 L426 172 L427 168 L427 164 L424 157 L418 148 L411 140 L405 133 L402 130 L398 129 L395 128 L391 127 L386 126 L382 126 L374 126 L366 126 L357 126 L349 127 L346 129 L343 130 L340 131 L338 132 L334 133 L331 134 L329 134 L328 134 L327 134 L325 134 M183 66 L176 64 L165 62 L145 59 L113 54 L83 46 L77 43 L76 42 M84 135 L82 136 L58 142 L20 144 L4 144 L1 144 L0 144 M142 283 L74 310 L35 327 L25 332 L24 332 " fill="none" stroke="black" /><path d="M261 96 L255 98 L251 100 L247 102 L237 108 L225 117 L214 127 L206 136 L197 148 L192 161 L188 175 L186 187 L186 196 L191 208 L202 223 L223 236 L243 248 L257 254 L279 261 L317 268 L350 271 L360 271 L388 269 L433 258 L468 243 L478 233 L488 214 L498 187 L501 160 L500 134 L493 108 L482 88 L468 71 L456 61 L446 56 L438 52 L428 49 L418 47 L406 47 L391 47 L373 51 L361 54 L354 57 L345 60 L331 66 L318 71 L307 76 L294 82 L282 90 L275 94 L271 96 L262 100 L256 104 L253 106 L250 109 L249 110 L248 111 L248 112 M337 119 L318 125 L307 130 L296 135 L283 144 L273 154 L270 162 L270 168 L270 178 L272 187 L278 196 L284 204 L292 209 L301 211 L307 213 L319 216 L335 218 L349 219 L362 218 L395 206 L407 199 L418 187 L423 177 L426 172 L427 168 L427 164 L424 157 L418 148 L411 140 L405 133 L402 130 L398 129 L395 128 L391 127 L386 126 L382 126 L374 126 L366 126 L357 126 L349 127 L346 129 L343 130 L340 131 L338 132 L334 133 L331 134 L329 134 L328 134 L327 134 L325 134 M183 66 L176 64 L165 62 L145 59 L113 54 L83 46 L77 43 L76 42 M84 135 L82 136 L58 142 L20 144 L4 144 L1 144 L0 144 M142 283 L74 310 L35 327 L25 332 L24 332 M563 68 L569 66 L576 63 L594 47 L616 20 L629 3 L630 0 " fill="none" stroke="black" /><path d="M261 96 L255 98 L251 100 L247 102 L237 108 L225 117 L214 127 L206 136 L197 148 L192 161 L188 175 L186 187 L186 196 L191 208 L202 223 L223 236 L243 248 L257 254 L279 261 L317 268 L350 271 L360 271 L388 269 L433 258 L468 243 L478 233 L488 214 L498 187 L501 160 L500 134 L493 108 L482 88 L468 71 L456 61 L446 56 L438 52 L428 49 L418 47 L406 47 L391 47 L373 51 L361 54 L354 57 L345 60 L331 66 L318 71 L307 76 L294 82 L282 90 L275 94 L271 96 L262 100 L256 104 L253 106 L250 109 L249 110 L248 111 L248 112 M337 119 L318 125 L307 130 L296 135 L283 144 L273 154 L270 162 L270 168 L270 178 L272 187 L278 196 L284 204 L292 209 L301 211 L307 213 L319 216 L335 218 L349 219 L362 218 L395 206 L407 199 L418 187 L423 177 L426 172 L427 168 L427 164 L424 157 L418 148 L411 140 L405 133 L402 130 L398 129 L395 128 L391 127 L386 126 L382 126 L374 126 L366 126 L357 126 L349 127 L346 129 L343 130 L340 131 L338 132 L334 133 L331 134 L329 134 L328 134 L327 134 L325 134 M183 66 L176 64 L165 62 L145 59 L113 54 L83 46 L77 43 L76 42 M84 135 L82 136 L58 142 L20 144 L4 144 L1 144 L0 144 M142 283 L74 310 L35 327 L25 332 L24 332 M563 68 L569 66 L576 63 L594 47 L616 20 L629 3 L630 0 M630 145 L646 147 L684 148 L719 148 L753 142 L766 138 L768 137 " fill="none" stroke="black" /><path d="M261 96 L255 98 L251 100 L247 102 L237 108 L225 117 L214 127 L206 136 L197 148 L192 161 L188 175 L186 187 L186 196 L191 208 L202 223 L223 236 L243 248 L257 254 L279 261 L317 268 L350 271 L360 271 L388 269 L433 258 L468 243 L478 233 L488 214 L498 187 L501 160 L500 134 L493 108 L482 88 L468 71 L456 61 L446 56 L438 52 L428 49 L418 47 L406 47 L391 47 L373 51 L361 54 L354 57 L345 60 L331 66 L318 71 L307 76 L294 82 L282 90 L275 94 L271 96 L262 100 L256 104 L253 106 L250 109 L249 110 L248 111 L248 112 M337 119 L318 125 L307 130 L296 135 L283 144 L273 154 L270 162 L270 168 L270 178 L272 187 L278 196 L284 204 L292 209 L301 211 L307 213 L319 216 L335 218 L349 219 L362 218 L395 206 L407 199 L418 187 L423 177 L426 172 L427 168 L427 164 L424 157 L418 148 L411 140 L405 133 L402 130 L398 129 L395 128 L391 127 L386 126 L382 126 L374 126 L366 126 L357 126 L349 127 L346 129 L343 130 L340 131 L338 132 L334 133 L331 134 L329 134 L328 134 L327 134 L325 134 M183 66 L176 64 L165 62 L145 59 L113 54 L83 46 L77 43 L76 42 M84 135 L82 136 L58 142 L20 144 L4 144 L1 144 L0 144 M142 283 L74 310 L35 327 L25 332 L24 332 M563 68 L569 66 L576 63 L594 47 L616 20 L629 3 L630 0 M630 145 L646 147 L684 148 L719 148 L753 142 L766 138 L768 137 M637 258 L650 268 L672 282 L695 296 L727 307 L741 309 L746 310 L749 310 " fill="none" stroke="black" /></svg>