<?xml version="1.0" encoding="utf-8" ?>
<svg baseProfile="tiny" height="316" version="1.2" viewBox="-3 -3 528 316" width="528" xmlns="http://www.w3.org/2000/svg" xmlns:ev="http://www.w3.org/2001/xml-events" xmlns:xlink="http://www.w3.org/1999/xlink"><defs /><path d="M0 295 L3 293 L6 296 L11 312 L12 316 L13 314 L20 297 L22 293 L22 292 L24 294 L28 299 L31 299 L51 282 L61 273 L62 273 L63 273 L65 275 L66 275 L68 272 L69 279 L70 282 L72 273 L72 280 L72 282 L72 281 L79 267 L86 292 L91 302 L94 300 L105 286 L109 281 L111 284 L115 294 L117 295 L128 285 L133 281 L135 286 L139 298 L140 298 L147 283 L150 278 L150 282 L152 291 L153 291 L165 273 L166 271 L171 288 L175 296 L181 287 L186 291 L191 292 L201 284 L205 279 L206 279 L207 279 L207 281 L211 293 L211 294 L214 289 L221 282 L224 283 L235 298 L236 301 L241 296 L250 289 L252 289 L260 301 L261 303 L265 298 L269 293 L272 300 L273 300 L284 291 L285 291 L289 297 L294 302 L297 302 L303 299 L305 300 L306 301 L311 296 L316 287 L318 289 L319 289 L322 286 L324 284 L325 284 L331 293 L334 293 L346 284 L358 273 L360 273 L371 300 L373 301 L375 298 L377 293 L378 293 L378 294 L383 289 L384 289 L386 297 L388 298 L395 291 L397 287 L397 286 L401 297 L402 298 L412 280 L412 279 L417 290 L420 294 L425 289 L429 283 L431 285 L440 289 L445 287 L447 284 L448 287 L448 291 L450 290 L451 287 L451 288 L452 292 L458 285 L460 281 L465 286 L466 287 L467 286 L474 295 L484 299 L490 295 L492 293 L494 291 L497 286 L499 290 L503 291 L507 284 L507 285 L508 285 L512 279 L513 279 L514 279 L516 281 L523 288 L526 282 L528 277 L528 279 " fill="none" stroke="black" /><path d="M0 295 L3 293 L6 296 L11 312 L12 316 L13 314 L20 297 L22 293 L22 292 L24 294 L28 299 L31 299 L51 282 L61 273 L62 273 L63 273 L65 275 L66 275 L68 272 L69 279 L70 282 L72 273 L72 280 L72 282 L72 281 L79 267 L86 292 L91 302 L94 300 L105 286 L109 281 L111 284 L115 294 L117 295 L128 285 L133 281 L135 286 L139 298 L140 298 L147 283 L150 278 L150 282 L152 291 L153 291 L165 273 L166 271 L171 288 L175 296 L181 287 L186 291 L191 292 L201 284 L205 279 L206 279 L207 279 L207 281 L211 293 L211 294 L214 289 L221 282 L224 283 L235 298 L236 301 L241 296 L250 289 L252 289 L260 301 L261 303 L265 298 L269 293 L272 300 L273 300 L284 291 L285 291 L289 297 L294 302 L297 302 L303 299 L305 300 L306 301 L311 296 L316 287 L318 289 L319 289 L322 286 L324 284 L325 284 L331 293 L334 293 L346 284 L358 273 L360 273 L371 300 L373 301 L375 298 L377 293 L378 293 L378 294 L383 289 L384 289 L386 297 L388 298 L395 291 L397 287 L397 286 L401 297 L402 298 L412 280 L412 279 L417 290 L420 294 L425 289 L429 283 L431 285 L440 289 L445 287 L447 284 L448 287 L448 291 L450 290 L451 287 L451 288 L452 292 L458 285 L460 281 L465 286 L466 287 L467 286 L474 295 L484 299 L490 295 L492 293 L494 291 L497 286 L499 290 L503 291 L507 284 L507 285 L508 285 L512 279 L513 279 L514 279 L516 281 L523 288 L526 282 L528 277 L528 279 M90 0 L90 1 " fill="none" stroke="black" /></svg>