<?xml version="1.0" encoding="utf-8" ?>
<svg baseProfile="tiny" height="139" version="1.2" viewBox="-3 -3 185 139" width="185" xmlns="http://www.w3.org/2000/svg" xmlns:ev="http://www.w3.org/2001/xml-events" xmlns:xlink="http://www.w3.org/1999/xlink"><defs /><path d="M105 2 L106 2 L109 4 L112 10 L116 16 L119 21 L122 29 L124 33 L126 36 L129 40 L132 45 L134 49 L137 51 L144 58 L148 62 L151 65 L153 67 L157 71 L160 73 L164 77 L168 81 L170 84 L172 86 L175 89 L177 90 L179 92 L181 94 L182 96 L184 98 L185 99 L183 102 L176 105 L172 107 L171 107 L170 108 L164 110 L157 113 L148 115 L141 118 L134 121 L127 123 L121 125 L116 126 L109 127 L107 128 L103 130 L97 132 L93 133 L89 135 L87 136 L84 137 L81 138 L80 139 L79 139 L77 137 L76 135 L74 132 L72 128 L71 124 L70 121 L69 116 L69 112 L69 103 L69 99 L69 94 L69 89 L70 83 L71 78 L72 73 L73 68 L74 65 L75 62 L76 56 L78 50 L81 41 L83 34 L84 29 L86 25 L88 21 L89 18 L90 14 L91 12 L91 10 L93 9 L95 7 L98 5 L100 3 L101 2 L103 1 L104 1 L105 1 L106 0 " fill="none" stroke="black" /><path d="M105 2 L106 2 L109 4 L112 10 L116 16 L119 21 L122 29 L124 33 L126 36 L129 40 L132 45 L134 49 L137 51 L144 58 L148 62 L151 65 L153 67 L157 71 L160 73 L164 77 L168 81 L170 84 L172 86 L175 89 L177 90 L179 92 L181 94 L182 96 L184 98 L185 99 L183 102 L176 105 L172 107 L171 107 L170 108 L164 110 L157 113 L148 115 L141 118 L134 121 L127 123 L121 125 L116 126 L109 127 L107 128 L103 130 L97 132 L93 133 L89 135 L87 136 L84 137 L81 138 L80 139 L79 139 L77 137 L76 135 L74 132 L72 128 L71 124 L70 121 L69 116 L69 112 L69 103 L69 99 L69 94 L69 89 L70 83 L71 78 L72 73 L73 68 L74 65 L75 62 L76 56 L78 50 L81 41 L83 34 L84 29 L86 25 L88 21 L89 18 L90 14 L91 12 L91 10 L93 9 L95 7 L98 5 L100 3 L101 2 L103 1 L104 1 L105 1 L106 0 M85 34 L84 34 L83 35 L82 36 L81 36 L79 37 L78 37 L75 40 L73 41 L71 43 L70 45 L69 45 L68 46 L67 48 L67 52 L66 54 L66 55 L66 57 L66 59 L66 61 L66 63 L66 64 L66 67 L67 68 L68 69 L69 69 L70 70 L71 71 L72 71 " fill="none" stroke="black" /><path d="M105 2 L106 2 L109 4 L112 10 L116 16 L119 21 L122 29 L124 33 L126 36 L129 40 L132 45 L134 49 L137 51 L144 58 L148 62 L151 65 L153 67 L157 71 L160 73 L164 77 L168 81 L170 84 L172 86 L175 89 L177 90 L179 92 L181 94 L182 96 L184 98 L185 99 L183 102 L176 105 L172 107 L171 107 L170 108 L164 110 L157 113 L148 115 L141 118 L134 121 L127 123 L121 125 L116 126 L109 127 L107 128 L103 130 L97 132 L93 133 L89 135 L87 136 L84 137 L81 138 L80 139 L79 139 L77 137 L76 135 L74 132 L72 128 L71 124 L70 121 L69 116 L69 112 L69 103 L69 99 L69 94 L69 89 L70 83 L71 78 L72 73 L73 68 L74 65 L75 62 L76 56 L78 50 L81 41 L83 34 L84 29 L86 25 L88 21 L89 18 L90 14 L91 12 L91 10 L93 9 L95 7 L98 5 L100 3 L101 2 L103 1 L104 1 L105 1 L106 0 M85 34 L84 34 L83 35 L82 36 L81 36 L79 37 L78 37 L75 40 L73 41 L71 43 L70 45 L69 45 L68 46 L67 48 L67 52 L66 54 L66 55 L66 57 L66 59 L66 61 L66 63 L66 64 L66 67 L67 68 L68 69 L69 69 L70 70 L71 71 L72 71 M39 25 L37 29 L34 35 L31 43 L30 48 L29 51 L29 54 L29 55 " fill="none" stroke="black" /><path d="M105 2 L106 2 L109 4 L112 10 L116 16 L119 21 L122 29 L124 33 L126 36 L129 40 L132 45 L134 49 L137 51 L144 58 L148 62 L151 65 L153 67 L157 71 L160 73 L164 77 L168 81 L170 84 L172 86 L175 89 L177 90 L179 92 L181 94 L182 96 L184 98 L185 99 L183 102 L176 105 L172 107 L171 107 L170 108 L164 110 L157 113 L148 115 L141 118 L134 121 L127 123 L121 125 L116 126 L109 127 L107 128 L103 130 L97 132 L93 133 L89 135 L87 136 L84 137 L81 138 L80 139 L79 139 L77 137 L76 135 L74 132 L72 128 L71 124 L70 121 L69 116 L69 112 L69 103 L69 99 L69 94 L69 89 L70 83 L71 78 L72 73 L73 68 L74 65 L75 62 L76 56 L78 50 L81 41 L83 34 L84 29 L86 25 L88 21 L89 18 L90 14 L91 12 L91 10 L93 9 L95 7 L98 5 L100 3 L101 2 L103 1 L104 1 L105 1 L106 0 M85 34 L84 34 L83 35 L82 36 L81 36 L79 37 L78 37 L75 40 L73 41 L71 43 L70 45 L69 45 L68 46 L67 48 L67 52 L66 54 L66 55 L66 57 L66 59 L66 61 L66 63 L66 64 L66 67 L67 68 L68 69 L69 69 L70 70 L71 71 L72 71 M39 25 L37 29 L34 35 L31 43 L30 48 L29 51 L29 54 L29 55 M32 7 L31 7 L23 13 L16 22 L7 33 L2 41 L0 48 L0 53 L0 54 L0 55 L1 55 " fill="none" stroke="black" /></svg>