<?xml version="1.0" encoding="utf-8" ?>
<svg baseProfile="tiny" height="174" version="1.2" viewBox="-3 -3 492 174" width="492" xmlns="http://www.w3.org/2000/svg" xmlns:ev="http://www.w3.org/2001/xml-events" xmlns:xlink="http://www.w3.org/1999/xlink"><defs /><path d="M492 135 L487 140 L483 142 L478 144 L472 147 L462 151 L456 155 L446 159 L433 163 L416 167 L399 169 L379 171 L366 173 L350 173 L325 174 L306 174 L291 174 L269 174 L252 174 L230 170 L203 163 L174 155 L141 146 L104 134 L72 122 L39 107 L21 99 L12 92 L6 82 L1 67 L0 51 L3 43 L19 40 L32 39 L54 39 L93 49 L139 63 L179 76 L207 84 L227 90 L257 97 L292 103 L321 107 L350 111 L377 114 L399 114 L418 114 L427 114 L437 112 L445 110 L450 106 L455 101 L461 97 L466 91 L470 86 L473 79 L474 73 L474 68 L474 64 L472 61 L469 60 L464 59 L459 59 L454 59 L446 62 L437 66 L429 70 L423 73 L413 78 L403 80 L394 82 L385 82 L373 83 L359 83 L344 83 L329 83 L311 83 L293 83 L277 82 L266 81 L252 79 L225 71 L211 65 L201 62 L196 58 L195 58 L193 54 L191 41 L191 32 L195 29 L200 25 L206 24 L213 24 L230 25 L243 29 L257 33 L272 38 L287 39 L300 39 L316 39 L330 39 L343 39 L358 39 L372 39 L382 39 L397 39 L408 39 L418 38 L424 36 L427 34 L428 29 L428 22 L427 16 L423 12 L420 11 L415 11 L411 11 L406 11 L403 12 L400 12 L395 13 L386 16 L373 17 L361 18 L358 19 L355 19 L353 19 L352 19 L351 19 L350 19 L347 19 L339 19 L327 19 L315 19 L306 19 L299 19 L295 19 L291 19 L285 17 L279 15 L276 13 L274 12 L273 12 L270 10 L265 8 L260 4 L256 2 L255 1 L254 1 L253 0 " fill="none" stroke="black" /></svg>