<?xml version="1.0" encoding="utf-8" ?>
<svg baseProfile="tiny" height="505" version="1.2" viewBox="-3 -3 278 505" width="278" xmlns="http://www.w3.org/2000/svg" xmlns:ev="http://www.w3.org/2001/xml-events" xmlns:xlink="http://www.w3.org/1999/xlink"><defs /><path d="M60 44 L64 44 L65 53 L68 66 L68 80 L68 107 L68 144 L73 205 L86 293 L97 368 L102 405 L102 425 L102 437 L102 441 L102 443 L102 444 L103 445 " fill="none" stroke="black" /><path d="M60 44 L64 44 L65 53 L68 66 L68 80 L68 107 L68 144 L73 205 L86 293 L97 368 L102 405 L102 425 L102 437 L102 441 L102 443 L102 444 L103 445 M118 445 L116 438 L116 404 L113 314 L113 191 L115 110 L121 58 L121 27 L122 24 L122 34 L122 70 L117 164 L117 346 L117 413 L117 432 L115 442 L114 451 L113 452 L113 453 " fill="none" stroke="black" /><path d="M60 44 L64 44 L65 53 L68 66 L68 80 L68 107 L68 144 L73 205 L86 293 L97 368 L102 405 L102 425 L102 437 L102 441 L102 443 L102 444 L103 445 M118 445 L116 438 L116 404 L113 314 L113 191 L115 110 L121 58 L121 27 L122 24 L122 34 L122 70 L117 164 L117 346 L117 413 L117 432 L115 442 L114 451 L113 452 L113 453 M108 463 L108 444 L111 379 L111 277 L111 226 L110 194 L110 167 L106 138 L105 134 L104 126 L96 105 L90 86 " fill="none" stroke="black" /><path d="M60 44 L64 44 L65 53 L68 66 L68 80 L68 107 L68 144 L73 205 L86 293 L97 368 L102 405 L102 425 L102 437 L102 441 L102 443 L102 444 L103 445 M118 445 L116 438 L116 404 L113 314 L113 191 L115 110 L121 58 L121 27 L122 24 L122 34 L122 70 L117 164 L117 346 L117 413 L117 432 L115 442 L114 451 L113 452 L113 453 M108 463 L108 444 L111 379 L111 277 L111 226 L110 194 L110 167 L106 138 L105 134 L104 126 L96 105 L90 86 M92 418 L94 404 L95 358 L95 280 L63 144 L35 75 L25 47 L24 43 L24 41 L23 39 " fill="none" stroke="black" /><path d="M60 44 L64 44 L65 53 L68 66 L68 80 L68 107 L68 144 L73 205 L86 293 L97 368 L102 405 L102 425 L102 437 L102 441 L102 443 L102 444 L103 445 M118 445 L116 438 L116 404 L113 314 L113 191 L115 110 L121 58 L121 27 L122 24 L122 34 L122 70 L117 164 L117 346 L117 413 L117 432 L115 442 L114 451 L113 452 L113 453 M108 463 L108 444 L111 379 L111 277 L111 226 L110 194 L110 167 L106 138 L105 134 L104 126 L96 105 L90 86 M92 418 L94 404 L95 358 L95 280 L63 144 L35 75 L25 47 L24 43 L24 41 L23 39 M128 357 L139 313 L154 237 L176 159 L191 95 L195 65 L196 58 " fill="none" stroke="black" /><path d="M60 44 L64 44 L65 53 L68 66 L68 80 L68 107 L68 144 L73 205 L86 293 L97 368 L102 405 L102 425 L102 437 L102 441 L102 443 L102 444 L103 445 M118 445 L116 438 L116 404 L113 314 L113 191 L115 110 L121 58 L121 27 L122 24 L122 34 L122 70 L117 164 L117 346 L117 413 L117 432 L115 442 L114 451 L113 452 L113 453 M108 463 L108 444 L111 379 L111 277 L111 226 L110 194 L110 167 L106 138 L105 134 L104 126 L96 105 L90 86 M92 418 L94 404 L95 358 L95 280 L63 144 L35 75 L25 47 L24 43 L24 41 L23 39 M128 357 L139 313 L154 237 L176 159 L191 95 L195 65 L196 58 M202 101 L203 118 L196 186 L188 280 L188 360 L188 375 L188 376 " fill="none" stroke="black" /><path d="M60 44 L64 44 L65 53 L68 66 L68 80 L68 107 L68 144 L73 205 L86 293 L97 368 L102 405 L102 425 L102 437 L102 441 L102 443 L102 444 L103 445 M118 445 L116 438 L116 404 L113 314 L113 191 L115 110 L121 58 L121 27 L122 24 L122 34 L122 70 L117 164 L117 346 L117 413 L117 432 L115 442 L114 451 L113 452 L113 453 M108 463 L108 444 L111 379 L111 277 L111 226 L110 194 L110 167 L106 138 L105 134 L104 126 L96 105 L90 86 M92 418 L94 404 L95 358 L95 280 L63 144 L35 75 L25 47 L24 43 L24 41 L23 39 M128 357 L139 313 L154 237 L176 159 L191 95 L195 65 L196 58 M202 101 L203 118 L196 186 L188 280 L188 360 L188 375 L188 376 M151 406 L156 354 L159 239 L159 89 L159 24 L159 1 L159 0 " fill="none" stroke="black" /><path d="M60 44 L64 44 L65 53 L68 66 L68 80 L68 107 L68 144 L73 205 L86 293 L97 368 L102 405 L102 425 L102 437 L102 441 L102 443 L102 444 L103 445 M118 445 L116 438 L116 404 L113 314 L113 191 L115 110 L121 58 L121 27 L122 24 L122 34 L122 70 L117 164 L117 346 L117 413 L117 432 L115 442 L114 451 L113 452 L113 453 M108 463 L108 444 L111 379 L111 277 L111 226 L110 194 L110 167 L106 138 L105 134 L104 126 L96 105 L90 86 M92 418 L94 404 L95 358 L95 280 L63 144 L35 75 L25 47 L24 43 L24 41 L23 39 M128 357 L139 313 L154 237 L176 159 L191 95 L195 65 L196 58 M202 101 L203 118 L196 186 L188 280 L188 360 L188 375 L188 376 M151 406 L156 354 L159 239 L159 89 L159 24 L159 1 L159 0 M260 261 L260 216 L260 132 L256 72 L252 36 L252 25 " fill="none" stroke="black" /><path d="M60 44 L64 44 L65 53 L68 66 L68 80 L68 107 L68 144 L73 205 L86 293 L97 368 L102 405 L102 425 L102 437 L102 441 L102 443 L102 444 L103 445 M118 445 L116 438 L116 404 L113 314 L113 191 L115 110 L121 58 L121 27 L122 24 L122 34 L122 70 L117 164 L117 346 L117 413 L117 432 L115 442 L114 451 L113 452 L113 453 M108 463 L108 444 L111 379 L111 277 L111 226 L110 194 L110 167 L106 138 L105 134 L104 126 L96 105 L90 86 M92 418 L94 404 L95 358 L95 280 L63 144 L35 75 L25 47 L24 43 L24 41 L23 39 M128 357 L139 313 L154 237 L176 159 L191 95 L195 65 L196 58 M202 101 L203 118 L196 186 L188 280 L188 360 L188 375 L188 376 M151 406 L156 354 L159 239 L159 89 L159 24 L159 1 L159 0 M260 261 L260 216 L260 132 L256 72 L252 36 L252 25 M227 89 L229 123 L219 227 L207 322 L199 386 L198 396 L198 400 " fill="none" stroke="black" /><path d="M60 44 L64 44 L65 53 L68 66 L68 80 L68 107 L68 144 L73 205 L86 293 L97 368 L102 405 L102 425 L102 437 L102 441 L102 443 L102 444 L103 445 M118 445 L116 438 L116 404 L113 314 L113 191 L115 110 L121 58 L121 27 L122 24 L122 34 L122 70 L117 164 L117 346 L117 413 L117 432 L115 442 L114 451 L113 452 L113 453 M108 463 L108 444 L111 379 L111 277 L111 226 L110 194 L110 167 L106 138 L105 134 L104 126 L96 105 L90 86 M92 418 L94 404 L95 358 L95 280 L63 144 L35 75 L25 47 L24 43 L24 41 L23 39 M128 357 L139 313 L154 237 L176 159 L191 95 L195 65 L196 58 M202 101 L203 118 L196 186 L188 280 L188 360 L188 375 L188 376 M151 406 L156 354 L159 239 L159 89 L159 24 L159 1 L159 0 M260 261 L260 216 L260 132 L256 72 L252 36 L252 25 M227 89 L229 123 L219 227 L207 322 L199 386 L198 396 L198 400 M135 416 L134 406 L143 351 L140 226 L135 179 " fill="none" stroke="black" /><path d="M60 44 L64 44 L65 53 L68 66 L68 80 L68 107 L68 144 L73 205 L86 293 L97 368 L102 405 L102 425 L102 437 L102 441 L102 443 L102 444 L103 445 M118 445 L116 438 L116 404 L113 314 L113 191 L115 110 L121 58 L121 27 L122 24 L122 34 L122 70 L117 164 L117 346 L117 413 L117 432 L115 442 L114 451 L113 452 L113 453 M108 463 L108 444 L111 379 L111 277 L111 226 L110 194 L110 167 L106 138 L105 134 L104 126 L96 105 L90 86 M92 418 L94 404 L95 358 L95 280 L63 144 L35 75 L25 47 L24 43 L24 41 L23 39 M128 357 L139 313 L154 237 L176 159 L191 95 L195 65 L196 58 M202 101 L203 118 L196 186 L188 280 L188 360 L188 375 L188 376 M151 406 L156 354 L159 239 L159 89 L159 24 L159 1 L159 0 M260 261 L260 216 L260 132 L256 72 L252 36 L252 25 M227 89 L229 123 L219 227 L207 322 L199 386 L198 396 L198 400 M135 416 L134 406 L143 351 L140 226 L135 179 M14 360 L14 329 L14 245 L10 77 L0 9 " fill="none" stroke="black" /><path d="M60 44 L64 44 L65 53 L68 66 L68 80 L68 107 L68 144 L73 205 L86 293 L97 368 L102 405 L102 425 L102 437 L102 441 L102 443 L102 444 L103 445 M118 445 L116 438 L116 404 L113 314 L113 191 L115 110 L121 58 L121 27 L122 24 L122 34 L122 70 L117 164 L117 346 L117 413 L117 432 L115 442 L114 451 L113 452 L113 453 M108 463 L108 444 L111 379 L111 277 L111 226 L110 194 L110 167 L106 138 L105 134 L104 126 L96 105 L90 86 M92 418 L94 404 L95 358 L95 280 L63 144 L35 75 L25 47 L24 43 L24 41 L23 39 M128 357 L139 313 L154 237 L176 159 L191 95 L195 65 L196 58 M202 101 L203 118 L196 186 L188 280 L188 360 L188 375 L188 376 M151 406 L156 354 L159 239 L159 89 L159 24 L159 1 L159 0 M260 261 L260 216 L260 132 L256 72 L252 36 L252 25 M227 89 L229 123 L219 227 L207 322 L199 386 L198 396 L198 400 M135 416 L134 406 L143 351 L140 226 L135 179 M14 360 L14 329 L14 245 L10 77 L0 9 M39 287 L48 241 L53 127 L38 18 " fill="none" stroke="black" /><path d="M60 44 L64 44 L65 53 L68 66 L68 80 L68 107 L68 144 L73 205 L86 293 L97 368 L102 405 L102 425 L102 437 L102 441 L102 443 L102 444 L103 445 M118 445 L116 438 L116 404 L113 314 L113 191 L115 110 L121 58 L121 27 L122 24 L122 34 L122 70 L117 164 L117 346 L117 413 L117 432 L115 442 L114 451 L113 452 L113 453 M108 463 L108 444 L111 379 L111 277 L111 226 L110 194 L110 167 L106 138 L105 134 L104 126 L96 105 L90 86 M92 418 L94 404 L95 358 L95 280 L63 144 L35 75 L25 47 L24 43 L24 41 L23 39 M128 357 L139 313 L154 237 L176 159 L191 95 L195 65 L196 58 M202 101 L203 118 L196 186 L188 280 L188 360 L188 375 L188 376 M151 406 L156 354 L159 239 L159 89 L159 24 L159 1 L159 0 M260 261 L260 216 L260 132 L256 72 L252 36 L252 25 M227 89 L229 123 L219 227 L207 322 L199 386 L198 396 L198 400 M135 416 L134 406 L143 351 L140 226 L135 179 M14 360 L14 329 L14 245 L10 77 L0 9 M39 287 L48 241 L53 127 L38 18 M251 238 L251 245 L251 286 L241 364 L227 425 L225 453 L225 460 " fill="none" stroke="black" /><path d="M60 44 L64 44 L65 53 L68 66 L68 80 L68 107 L68 144 L73 205 L86 293 L97 368 L102 405 L102 425 L102 437 L102 441 L102 443 L102 444 L103 445 M118 445 L116 438 L116 404 L113 314 L113 191 L115 110 L121 58 L121 27 L122 24 L122 34 L122 70 L117 164 L117 346 L117 413 L117 432 L115 442 L114 451 L113 452 L113 453 M108 463 L108 444 L111 379 L111 277 L111 226 L110 194 L110 167 L106 138 L105 134 L104 126 L96 105 L90 86 M92 418 L94 404 L95 358 L95 280 L63 144 L35 75 L25 47 L24 43 L24 41 L23 39 M128 357 L139 313 L154 237 L176 159 L191 95 L195 65 L196 58 M202 101 L203 118 L196 186 L188 280 L188 360 L188 375 L188 376 M151 406 L156 354 L159 239 L159 89 L159 24 L159 1 L159 0 M260 261 L260 216 L260 132 L256 72 L252 36 L252 25 M227 89 L229 123 L219 227 L207 322 L199 386 L198 396 L198 400 M135 416 L134 406 L143 351 L140 226 L135 179 M14 360 L14 329 L14 245 L10 77 L0 9 M39 287 L48 241 L53 127 L38 18 M251 238 L251 245 L251 286 L241 364 L227 425 L225 453 L225 460 M54 319 L58 370 L67 425 L78 458 L81 465 " fill="none" stroke="black" /><path d="M60 44 L64 44 L65 53 L68 66 L68 80 L68 107 L68 144 L73 205 L86 293 L97 368 L102 405 L102 425 L102 437 L102 441 L102 443 L102 444 L103 445 M118 445 L116 438 L116 404 L113 314 L113 191 L115 110 L121 58 L121 27 L122 24 L122 34 L122 70 L117 164 L117 346 L117 413 L117 432 L115 442 L114 451 L113 452 L113 453 M108 463 L108 444 L111 379 L111 277 L111 226 L110 194 L110 167 L106 138 L105 134 L104 126 L96 105 L90 86 M92 418 L94 404 L95 358 L95 280 L63 144 L35 75 L25 47 L24 43 L24 41 L23 39 M128 357 L139 313 L154 237 L176 159 L191 95 L195 65 L196 58 M202 101 L203 118 L196 186 L188 280 L188 360 L188 375 L188 376 M151 406 L156 354 L159 239 L159 89 L159 24 L159 1 L159 0 M260 261 L260 216 L260 132 L256 72 L252 36 L252 25 M227 89 L229 123 L219 227 L207 322 L199 386 L198 396 L198 400 M135 416 L134 406 L143 351 L140 226 L135 179 M14 360 L14 329 L14 245 L10 77 L0 9 M39 287 L48 241 L53 127 L38 18 M251 238 L251 245 L251 286 L241 364 L227 425 L225 453 L225 460 M54 319 L58 370 L67 425 L78 458 L81 465 M161 505 L161 468 L158 391 L153 335 " fill="none" stroke="black" /><path d="M60 44 L64 44 L65 53 L68 66 L68 80 L68 107 L68 144 L73 205 L86 293 L97 368 L102 405 L102 425 L102 437 L102 441 L102 443 L102 444 L103 445 M118 445 L116 438 L116 404 L113 314 L113 191 L115 110 L121 58 L121 27 L122 24 L122 34 L122 70 L117 164 L117 346 L117 413 L117 432 L115 442 L114 451 L113 452 L113 453 M108 463 L108 444 L111 379 L111 277 L111 226 L110 194 L110 167 L106 138 L105 134 L104 126 L96 105 L90 86 M92 418 L94 404 L95 358 L95 280 L63 144 L35 75 L25 47 L24 43 L24 41 L23 39 M128 357 L139 313 L154 237 L176 159 L191 95 L195 65 L196 58 M202 101 L203 118 L196 186 L188 280 L188 360 L188 375 L188 376 M151 406 L156 354 L159 239 L159 89 L159 24 L159 1 L159 0 M260 261 L260 216 L260 132 L256 72 L252 36 L252 25 M227 89 L229 123 L219 227 L207 322 L199 386 L198 396 L198 400 M135 416 L134 406 L143 351 L140 226 L135 179 M14 360 L14 329 L14 245 L10 77 L0 9 M39 287 L48 241 L53 127 L38 18 M251 238 L251 245 L251 286 L241 364 L227 425 L225 453 L225 460 M54 319 L58 370 L67 425 L78 458 L81 465 M161 505 L161 468 L158 391 L153 335 M182 454 L191 420 L208 351 " fill="none" stroke="black" /><path d="M60 44 L64 44 L65 53 L68 66 L68 80 L68 107 L68 144 L73 205 L86 293 L97 368 L102 405 L102 425 L102 437 L102 441 L102 443 L102 444 L103 445 M118 445 L116 438 L116 404 L113 314 L113 191 L115 110 L121 58 L121 27 L122 24 L122 34 L122 70 L117 164 L117 346 L117 413 L117 432 L115 442 L114 451 L113 452 L113 453 M108 463 L108 444 L111 379 L111 277 L111 226 L110 194 L110 167 L106 138 L105 134 L104 126 L96 105 L90 86 M92 418 L94 404 L95 358 L95 280 L63 144 L35 75 L25 47 L24 43 L24 41 L23 39 M128 357 L139 313 L154 237 L176 159 L191 95 L195 65 L196 58 M202 101 L203 118 L196 186 L188 280 L188 360 L188 375 L188 376 M151 406 L156 354 L159 239 L159 89 L159 24 L159 1 L159 0 M260 261 L260 216 L260 132 L256 72 L252 36 L252 25 M227 89 L229 123 L219 227 L207 322 L199 386 L198 396 L198 400 M135 416 L134 406 L143 351 L140 226 L135 179 M14 360 L14 329 L14 245 L10 77 L0 9 M39 287 L48 241 L53 127 L38 18 M251 238 L251 245 L251 286 L241 364 L227 425 L225 453 L225 460 M54 319 L58 370 L67 425 L78 458 L81 465 M161 505 L161 468 L158 391 L153 335 M182 454 L191 420 L208 351 M278 331 L270 235 " fill="none" stroke="black" /></svg>