<?xml version="1.0" encoding="utf-8" ?>
<svg baseProfile="tiny" height="571" version="1.2" viewBox="-3 -3 534 571" width="534" xmlns="http://www.w3.org/2000/svg" xmlns:ev="http://www.w3.org/2001/xml-events" xmlns:xlink="http://www.w3.org/1999/xlink"><defs /><path d="M73 395 L81 432 L91 430 L128 333 L157 76 L165 0 L166 18 L157 188 L139 397 L141 426 L167 376 L215 213 L240 109 L248 97 L244 176 L187 384 L173 509 L181 494 L239 331 L275 101 L277 67 L254 146 L150 425 L138 470 L168 420 L244 285 L275 211 L253 259 L95 521 L71 571 L103 541 L213 402 L253 338 L228 354 L135 413 L124 428 L203 413 L361 336 L415 289 L348 320 L146 431 L61 480 L75 481 L220 424 L392 355 L429 343 L339 392 L136 451 L88 468 L146 469 L327 462 L407 426 L360 419 L92 398 L0 395 L82 417 L347 457 L455 436 L318 396 L35 360 L9 372 L213 424 L450 449 L457 416 L255 378 L175 395 L264 411 L474 373 L527 286 L336 163 L96 180 L5 290 L137 442 L349 499 L467 445 L398 274 L200 197 L64 259 L105 392 L314 493 L475 459 L443 356 L247 276 L132 332 L219 446 L436 499 L534 413 L444 321 L299 314 L232 393 L341 482 L447 471 L424 354 L308 299 L237 328 L267 396 L336 429 L357 405 L275 303 L172 284 L154 360 L281 470 L438 487 L484 402 L322 231 L203 231 L174 328 L324 432 L453 420 L456 336 L265 230 L151 295 L198 435 L407 525 L527 467 L430 270 L169 159 L23 229 L92 361 L266 432 L368 395 L291 265 L184 246 L137 307 L303 410 L468 420 L513 362 L369 223 L134 180 L5 301 L105 463 L324 545 L460 501 L432 359 L304 284 L265 314 L293 368 L363 390 L382 375 L378 356 L372 355 L368 355 L366 355 L365 355 L364 355 L363 355 L347 364 L336 369 L336 370 " fill="none" stroke="black" /></svg>