<?xml version="1.0" encoding="utf-8" ?>
<svg baseProfile="tiny" height="606" version="1.2" viewBox="-3 -3 765 606" width="765" xmlns="http://www.w3.org/2000/svg" xmlns:ev="http://www.w3.org/2001/xml-events" xmlns:xlink="http://www.w3.org/1999/xlink"><defs /><path d="M252 274 L252 271 L260 250 L267 241 L278 238 L293 238 L307 238 L316 242 L327 252 L345 267 L362 274 L372 274 L388 263 L404 262 L422 262 L434 257 " fill="none" stroke="black" /><path d="M252 274 L252 271 L260 250 L267 241 L278 238 L293 238 L307 238 L316 242 L327 252 L345 267 L362 274 L372 274 L388 263 L404 262 L422 262 L434 257 M343 356 L352 343 L361 335 L369 331 L378 330 L396 337 L404 346 L408 354 L417 355 L442 353 L465 346 " fill="none" stroke="black" /><path d="M252 274 L252 271 L260 250 L267 241 L278 238 L293 238 L307 238 L316 242 L327 252 L345 267 L362 274 L372 274 L388 263 L404 262 L422 262 L434 257 M343 356 L352 343 L361 335 L369 331 L378 330 L396 337 L404 346 L408 354 L417 355 L442 353 L465 346 M406 423 L415 410 L425 398 L434 398 L447 402 L459 418 L478 430 L511 435 L542 432 L552 418 " fill="none" stroke="black" /><path d="M252 274 L252 271 L260 250 L267 241 L278 238 L293 238 L307 238 L316 242 L327 252 L345 267 L362 274 L372 274 L388 263 L404 262 L422 262 L434 257 M343 356 L352 343 L361 335 L369 331 L378 330 L396 337 L404 346 L408 354 L417 355 L442 353 L465 346 M406 423 L415 410 L425 398 L434 398 L447 402 L459 418 L478 430 L511 435 L542 432 L552 418 M489 504 L495 494 L507 480 L524 467 L536 467 L546 478 L569 499 L604 514 L627 516 L637 497 " fill="none" stroke="black" /><path d="M252 274 L252 271 L260 250 L267 241 L278 238 L293 238 L307 238 L316 242 L327 252 L345 267 L362 274 L372 274 L388 263 L404 262 L422 262 L434 257 M343 356 L352 343 L361 335 L369 331 L378 330 L396 337 L404 346 L408 354 L417 355 L442 353 L465 346 M406 423 L415 410 L425 398 L434 398 L447 402 L459 418 L478 430 L511 435 L542 432 L552 418 M489 504 L495 494 L507 480 L524 467 L536 467 L546 478 L569 499 L604 514 L627 516 L637 497 M615 591 L619 590 L635 580 L655 576 L673 576 L699 589 L711 599 L722 604 L743 606 L765 597 " fill="none" stroke="black" /><path d="M252 274 L252 271 L260 250 L267 241 L278 238 L293 238 L307 238 L316 242 L327 252 L345 267 L362 274 L372 274 L388 263 L404 262 L422 262 L434 257 M343 356 L352 343 L361 335 L369 331 L378 330 L396 337 L404 346 L408 354 L417 355 L442 353 L465 346 M406 423 L415 410 L425 398 L434 398 L447 402 L459 418 L478 430 L511 435 L542 432 L552 418 M489 504 L495 494 L507 480 L524 467 L536 467 L546 478 L569 499 L604 514 L627 516 L637 497 M615 591 L619 590 L635 580 L655 576 L673 576 L699 589 L711 599 L722 604 L743 606 L765 597 M160 192 L163 190 L177 180 L206 176 L235 174 L261 177 L275 185 L291 201 L314 211 L342 215 L357 211 L359 200 " fill="none" stroke="black" /><path d="M252 274 L252 271 L260 250 L267 241 L278 238 L293 238 L307 238 L316 242 L327 252 L345 267 L362 274 L372 274 L388 263 L404 262 L422 262 L434 257 M343 356 L352 343 L361 335 L369 331 L378 330 L396 337 L404 346 L408 354 L417 355 L442 353 L465 346 M406 423 L415 410 L425 398 L434 398 L447 402 L459 418 L478 430 L511 435 L542 432 L552 418 M489 504 L495 494 L507 480 L524 467 L536 467 L546 478 L569 499 L604 514 L627 516 L637 497 M615 591 L619 590 L635 580 L655 576 L673 576 L699 589 L711 599 L722 604 L743 606 L765 597 M160 192 L163 190 L177 180 L206 176 L235 174 L261 177 L275 185 L291 201 L314 211 L342 215 L357 211 L359 200 M95 125 L114 117 L131 108 L145 103 L154 102 L166 106 L199 116 L221 116 L235 108 L246 106 " fill="none" stroke="black" /><path d="M252 274 L252 271 L260 250 L267 241 L278 238 L293 238 L307 238 L316 242 L327 252 L345 267 L362 274 L372 274 L388 263 L404 262 L422 262 L434 257 M343 356 L352 343 L361 335 L369 331 L378 330 L396 337 L404 346 L408 354 L417 355 L442 353 L465 346 M406 423 L415 410 L425 398 L434 398 L447 402 L459 418 L478 430 L511 435 L542 432 L552 418 M489 504 L495 494 L507 480 L524 467 L536 467 L546 478 L569 499 L604 514 L627 516 L637 497 M615 591 L619 590 L635 580 L655 576 L673 576 L699 589 L711 599 L722 604 L743 606 L765 597 M160 192 L163 190 L177 180 L206 176 L235 174 L261 177 L275 185 L291 201 L314 211 L342 215 L357 211 L359 200 M95 125 L114 117 L131 108 L145 103 L154 102 L166 106 L199 116 L221 116 L235 108 L246 106 M35 58 L37 56 L43 52 L57 46 L78 37 L97 36 L111 38 L123 43 L146 50 L163 51 " fill="none" stroke="black" /><path d="M252 274 L252 271 L260 250 L267 241 L278 238 L293 238 L307 238 L316 242 L327 252 L345 267 L362 274 L372 274 L388 263 L404 262 L422 262 L434 257 M343 356 L352 343 L361 335 L369 331 L378 330 L396 337 L404 346 L408 354 L417 355 L442 353 L465 346 M406 423 L415 410 L425 398 L434 398 L447 402 L459 418 L478 430 L511 435 L542 432 L552 418 M489 504 L495 494 L507 480 L524 467 L536 467 L546 478 L569 499 L604 514 L627 516 L637 497 M615 591 L619 590 L635 580 L655 576 L673 576 L699 589 L711 599 L722 604 L743 606 L765 597 M160 192 L163 190 L177 180 L206 176 L235 174 L261 177 L275 185 L291 201 L314 211 L342 215 L357 211 L359 200 M95 125 L114 117 L131 108 L145 103 L154 102 L166 106 L199 116 L221 116 L235 108 L246 106 M35 58 L37 56 L43 52 L57 46 L78 37 L97 36 L111 38 L123 43 L146 50 L163 51 M0 15 L2 12 L19 2 L41 2 L48 1 L53 0 L76 0 L96 2 L101 2 " fill="none" stroke="black" /></svg>