<?xml version="1.0" encoding="utf-8" ?>
<svg baseProfile="tiny" height="308" version="1.2" viewBox="-3 -3 324 308" width="324" xmlns="http://www.w3.org/2000/svg" xmlns:ev="http://www.w3.org/2001/xml-events" xmlns:xlink="http://www.w3.org/1999/xlink"><defs /><path d="M0 97 L0 130 L6 159 L25 196 L53 235 L79 265 L118 295 L148 308 L182 308 L237 278 L286 242 L313 212 L324 155 L318 116 L306 88 L290 64 L231 34 L155 4 L131 0 L122 8 L112 27 L108 33 L106 40 L105 48 L104 58 L104 67 L108 75 L109 77 " fill="none" stroke="black" /><path d="M0 97 L0 130 L6 159 L25 196 L53 235 L79 265 L118 295 L148 308 L182 308 L237 278 L286 242 L313 212 L324 155 L318 116 L306 88 L290 64 L231 34 L155 4 L131 0 L122 8 L112 27 L108 33 L106 40 L105 48 L104 58 L104 67 L108 75 L109 77 M171 101 L178 92 L179 69 L177 49 L150 18 L120 9 L101 15 L83 33 L64 58 L50 85 L46 118 L56 164 L99 207 L150 225 L210 222 L257 196 L277 156 L273 115 L248 88 L210 72 L176 64 L153 70 L134 93 L123 141 L138 183 L178 212 L214 214 L247 185 L255 150 L236 113 L151 52 L81 31 L53 48 L46 77 L60 123 L113 176 L150 180 L170 165 L173 156 L174 150 L174 147 " fill="none" stroke="black" /><path d="M0 97 L0 130 L6 159 L25 196 L53 235 L79 265 L118 295 L148 308 L182 308 L237 278 L286 242 L313 212 L324 155 L318 116 L306 88 L290 64 L231 34 L155 4 L131 0 L122 8 L112 27 L108 33 L106 40 L105 48 L104 58 L104 67 L108 75 L109 77 M171 101 L178 92 L179 69 L177 49 L150 18 L120 9 L101 15 L83 33 L64 58 L50 85 L46 118 L56 164 L99 207 L150 225 L210 222 L257 196 L277 156 L273 115 L248 88 L210 72 L176 64 L153 70 L134 93 L123 141 L138 183 L178 212 L214 214 L247 185 L255 150 L236 113 L151 52 L81 31 L53 48 L46 77 L60 123 L113 176 L150 180 L170 165 L173 156 L174 150 L174 147 M165 163 L167 163 L179 163 L192 163 L206 150 L218 118 L222 109 L221 103 L195 92 L158 82 L140 82 L133 96 L131 111 L132 125 L146 139 L159 142 L165 135 L165 125 L165 121 L165 120 L164 118 L163 117 " fill="none" stroke="black" /><path d="M0 97 L0 130 L6 159 L25 196 L53 235 L79 265 L118 295 L148 308 L182 308 L237 278 L286 242 L313 212 L324 155 L318 116 L306 88 L290 64 L231 34 L155 4 L131 0 L122 8 L112 27 L108 33 L106 40 L105 48 L104 58 L104 67 L108 75 L109 77 M171 101 L178 92 L179 69 L177 49 L150 18 L120 9 L101 15 L83 33 L64 58 L50 85 L46 118 L56 164 L99 207 L150 225 L210 222 L257 196 L277 156 L273 115 L248 88 L210 72 L176 64 L153 70 L134 93 L123 141 L138 183 L178 212 L214 214 L247 185 L255 150 L236 113 L151 52 L81 31 L53 48 L46 77 L60 123 L113 176 L150 180 L170 165 L173 156 L174 150 L174 147 M165 163 L167 163 L179 163 L192 163 L206 150 L218 118 L222 109 L221 103 L195 92 L158 82 L140 82 L133 96 L131 111 L132 125 L146 139 L159 142 L165 135 L165 125 L165 121 L165 120 L164 118 L163 117 M174 148 L177 148 L185 146 L196 137 L210 126 L218 116 L218 104 L218 94 L218 90 L218 89 L218 87 L218 86 L212 79 L180 63 L144 54 L131 57 L117 73 L104 88 L96 96 L95 109 L107 132 L119 137 L134 138 L145 137 L155 133 L163 132 L167 125 L167 116 L166 114 " fill="none" stroke="black" /><path d="M0 97 L0 130 L6 159 L25 196 L53 235 L79 265 L118 295 L148 308 L182 308 L237 278 L286 242 L313 212 L324 155 L318 116 L306 88 L290 64 L231 34 L155 4 L131 0 L122 8 L112 27 L108 33 L106 40 L105 48 L104 58 L104 67 L108 75 L109 77 M171 101 L178 92 L179 69 L177 49 L150 18 L120 9 L101 15 L83 33 L64 58 L50 85 L46 118 L56 164 L99 207 L150 225 L210 222 L257 196 L277 156 L273 115 L248 88 L210 72 L176 64 L153 70 L134 93 L123 141 L138 183 L178 212 L214 214 L247 185 L255 150 L236 113 L151 52 L81 31 L53 48 L46 77 L60 123 L113 176 L150 180 L170 165 L173 156 L174 150 L174 147 M165 163 L167 163 L179 163 L192 163 L206 150 L218 118 L222 109 L221 103 L195 92 L158 82 L140 82 L133 96 L131 111 L132 125 L146 139 L159 142 L165 135 L165 125 L165 121 L165 120 L164 118 L163 117 M174 148 L177 148 L185 146 L196 137 L210 126 L218 116 L218 104 L218 94 L218 90 L218 89 L218 87 L218 86 L212 79 L180 63 L144 54 L131 57 L117 73 L104 88 L96 96 L95 109 L107 132 L119 137 L134 138 L145 137 L155 133 L163 132 L167 125 L167 116 L166 114 M187 136 L186 135 L186 131 L186 128 L185 128 L185 131 L187 136 L189 136 L190 133 L187 125 L183 121 L180 121 L178 126 L177 131 L179 133 L185 133 L188 129 L189 124 L183 120 L178 120 L173 124 L174 131 L178 133 L181 133 L183 124 L180 116 L179 115 L177 116 L177 119 " fill="none" stroke="black" /></svg>