<?xml version="1.0" encoding="utf-8" ?>
<svg baseProfile="tiny" height="527" version="1.2" viewBox="-3 -3 1379 527" width="1379" xmlns="http://www.w3.org/2000/svg" xmlns:ev="http://www.w3.org/2001/xml-events" xmlns:xlink="http://www.w3.org/1999/xlink"><defs /><path d="M879 376 L1007 176 L1078 17 L1087 0 L1070 28 L992 181 L929 376 L943 402 L1039 305 L1149 142 L1217 23 L1221 16 L1175 109 L1060 323 L1048 383 L1072 378 L1176 260 L1282 81 L1317 33 L1295 85 L1186 249 L1111 408 L1123 422 L1208 357 L1304 240 L1349 183 L1339 192 L1257 308 L1172 426 L1167 442 L1219 407 L1308 265 L1328 220 L1327 218 L1244 274 L1051 388 L835 436 L653 373 L631 367 L670 350 L825 285 L949 221 L1026 226 L1019 237 L924 275 L773 306 L669 307 L655 310 L848 355 L1115 371 L1195 383 L1167 389 L948 388 L637 345 L528 335 L572 349 L753 397 L900 438 L914 458 L833 471 L532 416 L339 337 L326 330 L448 363 L690 461 L820 516 L767 518 L520 458 L211 320 L118 293 L201 351 L428 471 L547 527 L485 496 L254 375 L118 320 L171 333 L479 428 L732 454 L729 425 L549 322 L362 251 L336 247 L490 333 L746 447 L812 467 L742 429 L465 288 L216 170 L214 177 L469 307 L685 400 L691 398 L439 262 L72 85 L0 64 L258 199 L637 363 L860 436 L845 422 L576 273 L274 147 L287 152 L586 258 L925 344 L1042 360 L982 329 L632 216 L485 195 L542 221 L858 335 L1111 403 L1142 401 L896 269 L702 196 L726 204 L962 295 L1208 372 L1265 386 L1169 343 L961 255 L896 224 L964 245 L1234 343 L1379 365 L1334 323 L1082 178 L967 126 L990 141 L1194 244 L1275 280 L1200 254 L983 162 L876 116 L882 115 L931 119 L947 121 L905 116 L759 88 L685 83 L687 83 L807 112 L952 145 L956 145 L952 145 L948 144 L947 144 L945 144 L944 144 L943 144 " fill="none" stroke="black" /></svg>