<?xml version="1.0" encoding="utf-8" ?>
<svg baseProfile="tiny" height="531" version="1.2" viewBox="-3 -3 719 531" width="719" xmlns="http://www.w3.org/2000/svg" xmlns:ev="http://www.w3.org/2001/xml-events" xmlns:xlink="http://www.w3.org/1999/xlink"><defs /><path d="M0 492 L21 487 L45 484 L58 484 L77 485 L115 496 L180 511 L292 526 L413 531 L543 531 L640 509 L685 486 L690 475 L691 474 L691 473 L691 472 L693 472 L694 472 L695 472 L696 472 L697 472 L698 472 L699 472 L701 471 L702 470 L704 468 L705 467 L706 466 L707 466 L708 465 L708 464 L710 463 L712 462 L713 461 L715 460 L716 459 L718 458 L719 457 L719 456 L719 454 L719 448 L719 445 L719 444 L719 443 L719 442 L718 440 L718 438 L717 438 L717 437 L704 437 L688 437 L676 432 L666 427 L644 417 L605 406 L579 395 L544 376 L466 343 L353 282 L254 215 L168 141 L148 115 L119 82 L105 64 L105 62 L105 61 L106 61 L107 61 L107 60 L107 61 L110 62 L111 64 L119 72 L148 114 L227 233 L297 358 L321 418 L330 449 L339 459 L335 457 L333 455 L330 453 L320 451 L318 451 L317 451 L317 452 L319 452 L320 452 L322 452 L323 452 L335 450 L351 440 L371 421 L403 388 L445 339 L494 301 L561 252 L607 207 L629 184 L646 168 L652 160 L655 157 L660 154 L663 152 L663 151 L666 149 L667 147 L667 146 L665 143 L659 136 L651 132 L640 123 L638 123 L633 136 L632 141 L634 144 L634 143 L634 142 L634 141 L626 137 L519 65 L450 15 L440 8 L439 8 L438 7 L440 7 L442 5 L443 4 L444 4 L445 3 L445 2 L445 1 L445 0 L444 0 L443 0 L444 0 L444 2 L443 2 L441 2 L432 2 L415 2 L381 2 L264 2 L228 2 L224 2 L229 6 L233 7 L234 7 L237 6 " fill="none" stroke="black" /></svg>