<?xml version="1.0" encoding="utf-8" ?>
<svg baseProfile="tiny" height="661" version="1.2" viewBox="-3 -3 1039 661" width="1039" xmlns="http://www.w3.org/2000/svg" xmlns:ev="http://www.w3.org/2001/xml-events" xmlns:xlink="http://www.w3.org/1999/xlink"><defs /><path d="M335 562 L318 566 L385 590 L540 625 L602 633 L622 632 L613 626 L506 600 L356 575 L340 575 L404 602 L591 654 L688 661 L702 650 L627 614 L393 538 L271 522 L261 526 L302 551 L474 595 L518 598 L522 592 L497 581 L345 554 L223 539 L216 539 L288 560 L446 601 L516 610 L524 610 L511 604 L461 594 L458 594 " fill="none" stroke="black" /><path d="M335 562 L318 566 L385 590 L540 625 L602 633 L622 632 L613 626 L506 600 L356 575 L340 575 L404 602 L591 654 L688 661 L702 650 L627 614 L393 538 L271 522 L261 526 L302 551 L474 595 L518 598 L522 592 L497 581 L345 554 L223 539 L216 539 L288 560 L446 601 L516 610 L524 610 L511 604 L461 594 L458 594 M828 306 L793 307 L690 307 L584 312 L570 319 L592 333 L714 351 L898 337 L957 324 L976 316 L968 316 L861 305 L684 280 L599 282 L612 298 L781 364 L930 399 L971 391 L967 380 L802 324 L712 312 L706 321 L777 350 L857 373 L879 374 L855 362 L719 322 L656 305 L669 310 L795 344 L851 353 L852 353 L851 353 " fill="none" stroke="black" /><path d="M335 562 L318 566 L385 590 L540 625 L602 633 L622 632 L613 626 L506 600 L356 575 L340 575 L404 602 L591 654 L688 661 L702 650 L627 614 L393 538 L271 522 L261 526 L302 551 L474 595 L518 598 L522 592 L497 581 L345 554 L223 539 L216 539 L288 560 L446 601 L516 610 L524 610 L511 604 L461 594 L458 594 M828 306 L793 307 L690 307 L584 312 L570 319 L592 333 L714 351 L898 337 L957 324 L976 316 L968 316 L861 305 L684 280 L599 282 L612 298 L781 364 L930 399 L971 391 L967 380 L802 324 L712 312 L706 321 L777 350 L857 373 L879 374 L855 362 L719 322 L656 305 L669 310 L795 344 L851 353 L852 353 L851 353 M101 261 L117 260 L122 259 L80 259 L42 265 L35 274 L75 299 L228 333 L367 297 L390 259 L385 248 L296 243 L122 253 L20 280 L0 289 L40 304 L192 325 L290 324 L309 319 L308 319 L181 302 L114 299 L116 299 L246 319 L371 324 L393 316 L381 309 L326 302 L316 300 " fill="none" stroke="black" /><path d="M335 562 L318 566 L385 590 L540 625 L602 633 L622 632 L613 626 L506 600 L356 575 L340 575 L404 602 L591 654 L688 661 L702 650 L627 614 L393 538 L271 522 L261 526 L302 551 L474 595 L518 598 L522 592 L497 581 L345 554 L223 539 L216 539 L288 560 L446 601 L516 610 L524 610 L511 604 L461 594 L458 594 M828 306 L793 307 L690 307 L584 312 L570 319 L592 333 L714 351 L898 337 L957 324 L976 316 L968 316 L861 305 L684 280 L599 282 L612 298 L781 364 L930 399 L971 391 L967 380 L802 324 L712 312 L706 321 L777 350 L857 373 L879 374 L855 362 L719 322 L656 305 L669 310 L795 344 L851 353 L852 353 L851 353 M101 261 L117 260 L122 259 L80 259 L42 265 L35 274 L75 299 L228 333 L367 297 L390 259 L385 248 L296 243 L122 253 L20 280 L0 289 L40 304 L192 325 L290 324 L309 319 L308 319 L181 302 L114 299 L116 299 L246 319 L371 324 L393 316 L381 309 L326 302 L316 300 M882 54 L878 54 L785 54 L709 74 L707 87 L770 115 L925 147 L1013 152 L1039 138 L1037 123 L901 74 L638 11 L545 0 L554 14 L690 75 L881 126 L916 129 L917 129 L897 126 L800 113 L767 110 L828 138 L990 173 L1038 173 L1038 165 L965 137 L892 124 L890 128 L917 137 L926 137 L927 134 L910 126 L903 125 " fill="none" stroke="black" /><path d="M335 562 L318 566 L385 590 L540 625 L602 633 L622 632 L613 626 L506 600 L356 575 L340 575 L404 602 L591 654 L688 661 L702 650 L627 614 L393 538 L271 522 L261 526 L302 551 L474 595 L518 598 L522 592 L497 581 L345 554 L223 539 L216 539 L288 560 L446 601 L516 610 L524 610 L511 604 L461 594 L458 594 M828 306 L793 307 L690 307 L584 312 L570 319 L592 333 L714 351 L898 337 L957 324 L976 316 L968 316 L861 305 L684 280 L599 282 L612 298 L781 364 L930 399 L971 391 L967 380 L802 324 L712 312 L706 321 L777 350 L857 373 L879 374 L855 362 L719 322 L656 305 L669 310 L795 344 L851 353 L852 353 L851 353 M101 261 L117 260 L122 259 L80 259 L42 265 L35 274 L75 299 L228 333 L367 297 L390 259 L385 248 L296 243 L122 253 L20 280 L0 289 L40 304 L192 325 L290 324 L309 319 L308 319 L181 302 L114 299 L116 299 L246 319 L371 324 L393 316 L381 309 L326 302 L316 300 M882 54 L878 54 L785 54 L709 74 L707 87 L770 115 L925 147 L1013 152 L1039 138 L1037 123 L901 74 L638 11 L545 0 L554 14 L690 75 L881 126 L916 129 L917 129 L897 126 L800 113 L767 110 L828 138 L990 173 L1038 173 L1038 165 L965 137 L892 124 L890 128 L917 137 L926 137 L927 134 L910 126 L903 125 M205 62 L200 62 L164 62 L111 63 L103 74 L170 100 L288 119 L344 110 L357 98 L323 85 L173 64 L39 50 L24 50 L102 79 L334 142 L498 165 L513 160 L494 152 L351 131 L285 123 L280 123 L281 123 " fill="none" stroke="black" /></svg>