<?xml version="1.0" encoding="utf-8" ?>
<svg baseProfile="tiny" height="810" version="1.2" viewBox="-3 -3 1535 810" width="1535" xmlns="http://www.w3.org/2000/svg" xmlns:ev="http://www.w3.org/2001/xml-events" xmlns:xlink="http://www.w3.org/1999/xlink"><defs /><path d="M756 579 L889 524 L991 446 L1085 367 L1160 306 L1185 275 L1189 258 " fill="none" stroke="black" /><path d="M756 579 L889 524 L991 446 L1085 367 L1160 306 L1185 275 L1189 258 M134 730 L146 736 L197 759 L268 779 L340 796 L404 802 L481 803 L582 803 L711 805 L839 787 L1009 710 L1229 572 L1408 451 L1503 377 L1535 262 " fill="none" stroke="black" /><path d="M756 579 L889 524 L991 446 L1085 367 L1160 306 L1185 275 L1189 258 M134 730 L146 736 L197 759 L268 779 L340 796 L404 802 L481 803 L582 803 L711 805 L839 787 L1009 710 L1229 572 L1408 451 L1503 377 L1535 262 M195 689 L211 699 L289 722 L391 748 L489 754 L630 725 L825 667 L1033 611 L1218 556 L1313 474 L1365 398 L1387 358 " fill="none" stroke="black" /><path d="M756 579 L889 524 L991 446 L1085 367 L1160 306 L1185 275 L1189 258 M134 730 L146 736 L197 759 L268 779 L340 796 L404 802 L481 803 L582 803 L711 805 L839 787 L1009 710 L1229 572 L1408 451 L1503 377 L1535 262 M195 689 L211 699 L289 722 L391 748 L489 754 L630 725 L825 667 L1033 611 L1218 556 L1313 474 L1365 398 L1387 358 M224 677 L292 682 L443 696 L651 695 L867 634 L1061 535 L1170 467 L1203 431 L1222 401 " fill="none" stroke="black" /><path d="M756 579 L889 524 L991 446 L1085 367 L1160 306 L1185 275 L1189 258 M134 730 L146 736 L197 759 L268 779 L340 796 L404 802 L481 803 L582 803 L711 805 L839 787 L1009 710 L1229 572 L1408 451 L1503 377 L1535 262 M195 689 L211 699 L289 722 L391 748 L489 754 L630 725 L825 667 L1033 611 L1218 556 L1313 474 L1365 398 L1387 358 M224 677 L292 682 L443 696 L651 695 L867 634 L1061 535 L1170 467 L1203 431 L1222 401 M212 669 L219 673 L249 684 L354 713 L502 727 L746 685 L919 602 L1079 515 L1159 454 " fill="none" stroke="black" /><path d="M756 579 L889 524 L991 446 L1085 367 L1160 306 L1185 275 L1189 258 M134 730 L146 736 L197 759 L268 779 L340 796 L404 802 L481 803 L582 803 L711 805 L839 787 L1009 710 L1229 572 L1408 451 L1503 377 L1535 262 M195 689 L211 699 L289 722 L391 748 L489 754 L630 725 L825 667 L1033 611 L1218 556 L1313 474 L1365 398 L1387 358 M224 677 L292 682 L443 696 L651 695 L867 634 L1061 535 L1170 467 L1203 431 L1222 401 M212 669 L219 673 L249 684 L354 713 L502 727 L746 685 L919 602 L1079 515 L1159 454 M108 653 L144 653 L222 655 L380 632 L659 549 L881 461 L1048 389 L1108 358 " fill="none" stroke="black" /><path d="M756 579 L889 524 L991 446 L1085 367 L1160 306 L1185 275 L1189 258 M134 730 L146 736 L197 759 L268 779 L340 796 L404 802 L481 803 L582 803 L711 805 L839 787 L1009 710 L1229 572 L1408 451 L1503 377 L1535 262 M195 689 L211 699 L289 722 L391 748 L489 754 L630 725 L825 667 L1033 611 L1218 556 L1313 474 L1365 398 L1387 358 M224 677 L292 682 L443 696 L651 695 L867 634 L1061 535 L1170 467 L1203 431 L1222 401 M212 669 L219 673 L249 684 L354 713 L502 727 L746 685 L919 602 L1079 515 L1159 454 M108 653 L144 653 L222 655 L380 632 L659 549 L881 461 L1048 389 L1108 358 M0 644 L50 661 L137 680 L263 690 L475 685 L665 645 L811 581 L953 496 L1000 456 L1009 433 " fill="none" stroke="black" /><path d="M756 579 L889 524 L991 446 L1085 367 L1160 306 L1185 275 L1189 258 M134 730 L146 736 L197 759 L268 779 L340 796 L404 802 L481 803 L582 803 L711 805 L839 787 L1009 710 L1229 572 L1408 451 L1503 377 L1535 262 M195 689 L211 699 L289 722 L391 748 L489 754 L630 725 L825 667 L1033 611 L1218 556 L1313 474 L1365 398 L1387 358 M224 677 L292 682 L443 696 L651 695 L867 634 L1061 535 L1170 467 L1203 431 L1222 401 M212 669 L219 673 L249 684 L354 713 L502 727 L746 685 L919 602 L1079 515 L1159 454 M108 653 L144 653 L222 655 L380 632 L659 549 L881 461 L1048 389 L1108 358 M0 644 L50 661 L137 680 L263 690 L475 685 L665 645 L811 581 L953 496 L1000 456 L1009 433 M299 751 L375 768 L583 776 L777 728 L985 627 L1219 500 L1295 455 " fill="none" stroke="black" /><path d="M756 579 L889 524 L991 446 L1085 367 L1160 306 L1185 275 L1189 258 M134 730 L146 736 L197 759 L268 779 L340 796 L404 802 L481 803 L582 803 L711 805 L839 787 L1009 710 L1229 572 L1408 451 L1503 377 L1535 262 M195 689 L211 699 L289 722 L391 748 L489 754 L630 725 L825 667 L1033 611 L1218 556 L1313 474 L1365 398 L1387 358 M224 677 L292 682 L443 696 L651 695 L867 634 L1061 535 L1170 467 L1203 431 L1222 401 M212 669 L219 673 L249 684 L354 713 L502 727 L746 685 L919 602 L1079 515 L1159 454 M108 653 L144 653 L222 655 L380 632 L659 549 L881 461 L1048 389 L1108 358 M0 644 L50 661 L137 680 L263 690 L475 685 L665 645 L811 581 L953 496 L1000 456 L1009 433 M299 751 L375 768 L583 776 L777 728 L985 627 L1219 500 L1295 455 M363 771 L396 780 L500 796 L643 810 L862 784 L1052 691 L1203 581 " fill="none" stroke="black" /><path d="M756 579 L889 524 L991 446 L1085 367 L1160 306 L1185 275 L1189 258 M134 730 L146 736 L197 759 L268 779 L340 796 L404 802 L481 803 L582 803 L711 805 L839 787 L1009 710 L1229 572 L1408 451 L1503 377 L1535 262 M195 689 L211 699 L289 722 L391 748 L489 754 L630 725 L825 667 L1033 611 L1218 556 L1313 474 L1365 398 L1387 358 M224 677 L292 682 L443 696 L651 695 L867 634 L1061 535 L1170 467 L1203 431 L1222 401 M212 669 L219 673 L249 684 L354 713 L502 727 L746 685 L919 602 L1079 515 L1159 454 M108 653 L144 653 L222 655 L380 632 L659 549 L881 461 L1048 389 L1108 358 M0 644 L50 661 L137 680 L263 690 L475 685 L665 645 L811 581 L953 496 L1000 456 L1009 433 M299 751 L375 768 L583 776 L777 728 L985 627 L1219 500 L1295 455 M363 771 L396 780 L500 796 L643 810 L862 784 L1052 691 L1203 581 M340 789 L402 789 L553 763 L741 697 L960 595 L1022 555 " fill="none" stroke="black" /><path d="M756 579 L889 524 L991 446 L1085 367 L1160 306 L1185 275 L1189 258 M134 730 L146 736 L197 759 L268 779 L340 796 L404 802 L481 803 L582 803 L711 805 L839 787 L1009 710 L1229 572 L1408 451 L1503 377 L1535 262 M195 689 L211 699 L289 722 L391 748 L489 754 L630 725 L825 667 L1033 611 L1218 556 L1313 474 L1365 398 L1387 358 M224 677 L292 682 L443 696 L651 695 L867 634 L1061 535 L1170 467 L1203 431 L1222 401 M212 669 L219 673 L249 684 L354 713 L502 727 L746 685 L919 602 L1079 515 L1159 454 M108 653 L144 653 L222 655 L380 632 L659 549 L881 461 L1048 389 L1108 358 M0 644 L50 661 L137 680 L263 690 L475 685 L665 645 L811 581 L953 496 L1000 456 L1009 433 M299 751 L375 768 L583 776 L777 728 L985 627 L1219 500 L1295 455 M363 771 L396 780 L500 796 L643 810 L862 784 L1052 691 L1203 581 M340 789 L402 789 L553 763 L741 697 L960 595 L1022 555 M19 580 L122 598 L345 599 L634 537 L928 449 L1169 379 " fill="none" stroke="black" /><path d="M756 579 L889 524 L991 446 L1085 367 L1160 306 L1185 275 L1189 258 M134 730 L146 736 L197 759 L268 779 L340 796 L404 802 L481 803 L582 803 L711 805 L839 787 L1009 710 L1229 572 L1408 451 L1503 377 L1535 262 M195 689 L211 699 L289 722 L391 748 L489 754 L630 725 L825 667 L1033 611 L1218 556 L1313 474 L1365 398 L1387 358 M224 677 L292 682 L443 696 L651 695 L867 634 L1061 535 L1170 467 L1203 431 L1222 401 M212 669 L219 673 L249 684 L354 713 L502 727 L746 685 L919 602 L1079 515 L1159 454 M108 653 L144 653 L222 655 L380 632 L659 549 L881 461 L1048 389 L1108 358 M0 644 L50 661 L137 680 L263 690 L475 685 L665 645 L811 581 L953 496 L1000 456 L1009 433 M299 751 L375 768 L583 776 L777 728 L985 627 L1219 500 L1295 455 M363 771 L396 780 L500 796 L643 810 L862 784 L1052 691 L1203 581 M340 789 L402 789 L553 763 L741 697 L960 595 L1022 555 M19 580 L122 598 L345 599 L634 537 L928 449 L1169 379 M346 626 L463 625 L717 568 L918 486 L1077 419 " fill="none" stroke="black" /><path d="M756 579 L889 524 L991 446 L1085 367 L1160 306 L1185 275 L1189 258 M134 730 L146 736 L197 759 L268 779 L340 796 L404 802 L481 803 L582 803 L711 805 L839 787 L1009 710 L1229 572 L1408 451 L1503 377 L1535 262 M195 689 L211 699 L289 722 L391 748 L489 754 L630 725 L825 667 L1033 611 L1218 556 L1313 474 L1365 398 L1387 358 M224 677 L292 682 L443 696 L651 695 L867 634 L1061 535 L1170 467 L1203 431 L1222 401 M212 669 L219 673 L249 684 L354 713 L502 727 L746 685 L919 602 L1079 515 L1159 454 M108 653 L144 653 L222 655 L380 632 L659 549 L881 461 L1048 389 L1108 358 M0 644 L50 661 L137 680 L263 690 L475 685 L665 645 L811 581 L953 496 L1000 456 L1009 433 M299 751 L375 768 L583 776 L777 728 L985 627 L1219 500 L1295 455 M363 771 L396 780 L500 796 L643 810 L862 784 L1052 691 L1203 581 M340 789 L402 789 L553 763 L741 697 L960 595 L1022 555 M19 580 L122 598 L345 599 L634 537 L928 449 L1169 379 M346 626 L463 625 L717 568 L918 486 L1077 419 M490 676 L598 648 L766 572 L953 479 L1138 398 " fill="none" stroke="black" /><path d="M756 579 L889 524 L991 446 L1085 367 L1160 306 L1185 275 L1189 258 M134 730 L146 736 L197 759 L268 779 L340 796 L404 802 L481 803 L582 803 L711 805 L839 787 L1009 710 L1229 572 L1408 451 L1503 377 L1535 262 M195 689 L211 699 L289 722 L391 748 L489 754 L630 725 L825 667 L1033 611 L1218 556 L1313 474 L1365 398 L1387 358 M224 677 L292 682 L443 696 L651 695 L867 634 L1061 535 L1170 467 L1203 431 L1222 401 M212 669 L219 673 L249 684 L354 713 L502 727 L746 685 L919 602 L1079 515 L1159 454 M108 653 L144 653 L222 655 L380 632 L659 549 L881 461 L1048 389 L1108 358 M0 644 L50 661 L137 680 L263 690 L475 685 L665 645 L811 581 L953 496 L1000 456 L1009 433 M299 751 L375 768 L583 776 L777 728 L985 627 L1219 500 L1295 455 M363 771 L396 780 L500 796 L643 810 L862 784 L1052 691 L1203 581 M340 789 L402 789 L553 763 L741 697 L960 595 L1022 555 M19 580 L122 598 L345 599 L634 537 L928 449 L1169 379 M346 626 L463 625 L717 568 L918 486 L1077 419 M490 676 L598 648 L766 572 L953 479 L1138 398 M722 606 L734 606 L787 612 L891 596 L1039 516 L1146 399 L1188 309 " fill="none" stroke="black" /><path d="M756 579 L889 524 L991 446 L1085 367 L1160 306 L1185 275 L1189 258 M134 730 L146 736 L197 759 L268 779 L340 796 L404 802 L481 803 L582 803 L711 805 L839 787 L1009 710 L1229 572 L1408 451 L1503 377 L1535 262 M195 689 L211 699 L289 722 L391 748 L489 754 L630 725 L825 667 L1033 611 L1218 556 L1313 474 L1365 398 L1387 358 M224 677 L292 682 L443 696 L651 695 L867 634 L1061 535 L1170 467 L1203 431 L1222 401 M212 669 L219 673 L249 684 L354 713 L502 727 L746 685 L919 602 L1079 515 L1159 454 M108 653 L144 653 L222 655 L380 632 L659 549 L881 461 L1048 389 L1108 358 M0 644 L50 661 L137 680 L263 690 L475 685 L665 645 L811 581 L953 496 L1000 456 L1009 433 M299 751 L375 768 L583 776 L777 728 L985 627 L1219 500 L1295 455 M363 771 L396 780 L500 796 L643 810 L862 784 L1052 691 L1203 581 M340 789 L402 789 L553 763 L741 697 L960 595 L1022 555 M19 580 L122 598 L345 599 L634 537 L928 449 L1169 379 M346 626 L463 625 L717 568 L918 486 L1077 419 M490 676 L598 648 L766 572 L953 479 L1138 398 M722 606 L734 606 L787 612 L891 596 L1039 516 L1146 399 L1188 309 M1129 484 L1140 477 L1173 436 L1225 256 L1213 70 L1212 0 " fill="none" stroke="black" /><path d="M756 579 L889 524 L991 446 L1085 367 L1160 306 L1185 275 L1189 258 M134 730 L146 736 L197 759 L268 779 L340 796 L404 802 L481 803 L582 803 L711 805 L839 787 L1009 710 L1229 572 L1408 451 L1503 377 L1535 262 M195 689 L211 699 L289 722 L391 748 L489 754 L630 725 L825 667 L1033 611 L1218 556 L1313 474 L1365 398 L1387 358 M224 677 L292 682 L443 696 L651 695 L867 634 L1061 535 L1170 467 L1203 431 L1222 401 M212 669 L219 673 L249 684 L354 713 L502 727 L746 685 L919 602 L1079 515 L1159 454 M108 653 L144 653 L222 655 L380 632 L659 549 L881 461 L1048 389 L1108 358 M0 644 L50 661 L137 680 L263 690 L475 685 L665 645 L811 581 L953 496 L1000 456 L1009 433 M299 751 L375 768 L583 776 L777 728 L985 627 L1219 500 L1295 455 M363 771 L396 780 L500 796 L643 810 L862 784 L1052 691 L1203 581 M340 789 L402 789 L553 763 L741 697 L960 595 L1022 555 M19 580 L122 598 L345 599 L634 537 L928 449 L1169 379 M346 626 L463 625 L717 568 L918 486 L1077 419 M490 676 L598 648 L766 572 L953 479 L1138 398 M722 606 L734 606 L787 612 L891 596 L1039 516 L1146 399 L1188 309 M1129 484 L1140 477 L1173 436 L1225 256 L1213 70 L1212 0 M865 582 L877 587 L1113 483 L1277 259 L1365 88 L1374 63 L521 103 L656 308 L752 420 L775 431 L782 431 L781 416 L774 404 L764 395 L756 394 L745 396 L729 408 L710 448 L700 502 L698 541 L702 577 L709 599 L709 596 L709 595 L709 594 L709 591 L709 589 L710 589 L711 589 " fill="none" stroke="black" /></svg>