<?xml version="1.0" encoding="utf-8" ?>
<svg baseProfile="tiny" height="127" version="1.2" viewBox="-3 -3 510 127" width="510" xmlns="http://www.w3.org/2000/svg" xmlns:ev="http://www.w3.org/2001/xml-events" xmlns:xlink="http://www.w3.org/1999/xlink"><defs /><path d="M78 6 L84 9 L93 13 L100 16 L111 18 L123 22 L131 24 L142 24 L154 25 L163 25 L176 20 L186 14 L194 10 L202 7 L211 3 L220 2 L231 1 L239 0 L248 0 L257 2 L265 4 L274 8 L287 14 L298 20 L309 23 L319 26 L329 29 L338 29 L349 29 L356 28 L365 23 L373 18 L380 16 L386 14 L393 13 L398 13 L402 13 L405 13 L407 12 " fill="none" stroke="black" /><path d="M78 6 L84 9 L93 13 L100 16 L111 18 L123 22 L131 24 L142 24 L154 25 L163 25 L176 20 L186 14 L194 10 L202 7 L211 3 L220 2 L231 1 L239 0 L248 0 L257 2 L265 4 L274 8 L287 14 L298 20 L309 23 L319 26 L329 29 L338 29 L349 29 L356 28 L365 23 L373 18 L380 16 L386 14 L393 13 L398 13 L402 13 L405 13 L407 12 M0 125 L1 125 L6 122 L11 118 L14 116 L17 112 L20 111 L21 111 L22 110 L25 108 L31 106 L35 104 L43 102 L55 99 L64 98 L68 98 L75 97 L81 97 L83 96 L84 96 L86 96 L88 98 L91 99 L94 99 L96 100 L97 100 L98 101 L99 101 L100 101 L101 101 L104 103 L105 103 L108 104 L112 105 L118 105 L130 106 L141 106 L148 106 L156 106 L163 104 L168 104 L174 104 L182 106 L188 108 L197 111 L210 115 L220 116 L230 116 L237 115 L245 113 L250 112 L254 112 L259 112 L268 112 L279 112 L292 115 L306 116 L322 120 L335 124 L348 125 L358 126 L365 126 L371 126 L376 127 L383 127 L389 127 L396 127 L406 127 L413 125 L418 124 L422 122 L426 120 L427 120 L429 118 L429 115 L431 111 L433 108 L436 107 L438 105 L440 104 L443 103 L446 102 L449 101 L452 100 L455 100 L456 100 L457 100 L458 100 L459 100 L461 100 L463 100 L465 100 L467 101 L469 102 L472 103 L473 104 L475 105 L478 105 L480 105 L482 106 L484 106 L487 106 L490 106 L493 106 L495 106 L497 106 L502 106 L506 106 L507 106 L509 106 L510 106 " fill="none" stroke="black" /></svg>