<?xml version="1.0" encoding="utf-8" ?>
<svg baseProfile="tiny" height="477" version="1.2" viewBox="-3 -3 944 477" width="944" xmlns="http://www.w3.org/2000/svg" xmlns:ev="http://www.w3.org/2001/xml-events" xmlns:xlink="http://www.w3.org/1999/xlink"><defs /><path d="M96 409 L334 468 L480 477 L605 432 L701 385 L776 353 L798 338 L804 330 L806 321 L812 300 L819 263 L820 228 L816 194 L814 179 L814 176 L814 170 L814 161 L814 144 L814 130 L814 121 L814 113 L814 112 L807 131 L784 190 L722 286 L680 339 L647 373 L603 402 L548 432 L502 444 L436 446 L353 446 L284 446 L239 446 L226 446 L235 450 L273 456 L421 455 L628 405 L828 271 L914 213 L941 177 L944 146 L944 135 L927 155 L819 248 L652 353 L485 400 L346 419 L229 436 L199 441 L198 441 L209 440 L239 437 L330 437 L496 397 L611 301 L697 188 L740 140 L754 121 L761 113 L764 108 L765 109 L732 152 L585 269 L410 365 L234 416 L45 445 L3 445 L0 445 L6 445 L24 445 L93 445 L243 425 L391 351 L495 266 L542 223 L556 206 L579 181 L596 168 L594 172 L538 231 L407 322 L265 388 L163 411 L104 426 L91 432 L95 432 L135 430 L261 403 L431 342 L574 281 L667 219 L698 173 L712 135 L719 118 L723 102 L725 86 L732 59 L745 32 L758 10 L762 2 L762 1 L762 0 L761 2 L758 23 L753 54 L734 105 L707 153 L697 165 L698 138 L705 104 L722 55 L732 26 L734 21 L715 52 L677 119 L644 197 L618 259 L607 285 L610 280 L641 219 L663 138 L693 79 L702 60 L702 58 L703 57 L705 56 L703 57 L698 58 L698 57 L700 56 L701 54 L703 53 L704 53 L703 53 L701 53 L700 50 L701 47 L711 49 L722 66 L734 103 L762 152 L778 183 L778 187 L774 192 L771 195 L768 195 L767 191 L767 190 L767 189 " fill="none" stroke="black" /></svg>