<?xml version="1.0" encoding="utf-8" ?>
<svg baseProfile="tiny" height="418" version="1.2" viewBox="-3 -3 608 418" width="608" xmlns="http://www.w3.org/2000/svg" xmlns:ev="http://www.w3.org/2001/xml-events" xmlns:xlink="http://www.w3.org/1999/xlink"><defs /><path d="M23 154 L24 154 L29 155 L37 158 L47 158 L58 158 L68 158 L73 158 L83 156 L99 156 L114 156 L121 156 L132 155 L145 155 L159 155 L174 153 L194 152 L212 152 L231 152 L247 150 L269 148 L301 148 L340 143 L374 126 L412 95 L440 73 L449 63 L451 60 " fill="none" stroke="black" /><path d="M23 154 L24 154 L29 155 L37 158 L47 158 L58 158 L68 158 L73 158 L83 156 L99 156 L114 156 L121 156 L132 155 L145 155 L159 155 L174 153 L194 152 L212 152 L231 152 L247 150 L269 148 L301 148 L340 143 L374 126 L412 95 L440 73 L449 63 L451 60 M0 237 L1 235 L7 230 L20 221 L40 213 L63 206 L86 200 L101 197 L114 196 L128 196 L147 196 L178 198 L225 210 L256 222 L289 240 L315 261 L334 281 L349 303 L370 345 L380 363 L383 367 L384 368 " fill="none" stroke="black" /><path d="M23 154 L24 154 L29 155 L37 158 L47 158 L58 158 L68 158 L73 158 L83 156 L99 156 L114 156 L121 156 L132 155 L145 155 L159 155 L174 153 L194 152 L212 152 L231 152 L247 150 L269 148 L301 148 L340 143 L374 126 L412 95 L440 73 L449 63 L451 60 M0 237 L1 235 L7 230 L20 221 L40 213 L63 206 L86 200 L101 197 L114 196 L128 196 L147 196 L178 198 L225 210 L256 222 L289 240 L315 261 L334 281 L349 303 L370 345 L380 363 L383 367 L384 368 M68 270 L97 261 L110 259 L124 260 L146 271 L174 291 L218 328 L249 355 L265 374 L276 394 L282 408 L286 417 L287 418 " fill="none" stroke="black" /><path d="M23 154 L24 154 L29 155 L37 158 L47 158 L58 158 L68 158 L73 158 L83 156 L99 156 L114 156 L121 156 L132 155 L145 155 L159 155 L174 153 L194 152 L212 152 L231 152 L247 150 L269 148 L301 148 L340 143 L374 126 L412 95 L440 73 L449 63 L451 60 M0 237 L1 235 L7 230 L20 221 L40 213 L63 206 L86 200 L101 197 L114 196 L128 196 L147 196 L178 198 L225 210 L256 222 L289 240 L315 261 L334 281 L349 303 L370 345 L380 363 L383 367 L384 368 M68 270 L97 261 L110 259 L124 260 L146 271 L174 291 L218 328 L249 355 L265 374 L276 394 L282 408 L286 417 L287 418 M45 77 L51 80 L91 84 L168 89 L219 76 L249 51 L270 33 L283 25 L286 17 L287 7 L287 2 L287 1 L287 0 " fill="none" stroke="black" /><path d="M23 154 L24 154 L29 155 L37 158 L47 158 L58 158 L68 158 L73 158 L83 156 L99 156 L114 156 L121 156 L132 155 L145 155 L159 155 L174 153 L194 152 L212 152 L231 152 L247 150 L269 148 L301 148 L340 143 L374 126 L412 95 L440 73 L449 63 L451 60 M0 237 L1 235 L7 230 L20 221 L40 213 L63 206 L86 200 L101 197 L114 196 L128 196 L147 196 L178 198 L225 210 L256 222 L289 240 L315 261 L334 281 L349 303 L370 345 L380 363 L383 367 L384 368 M68 270 L97 261 L110 259 L124 260 L146 271 L174 291 L218 328 L249 355 L265 374 L276 394 L282 408 L286 417 L287 418 M45 77 L51 80 L91 84 L168 89 L219 76 L249 51 L270 33 L283 25 L286 17 L287 7 L287 2 L287 1 L287 0 M235 179 L240 179 L267 179 L330 179 L399 178 L448 181 L464 184 " fill="none" stroke="black" /><path d="M23 154 L24 154 L29 155 L37 158 L47 158 L58 158 L68 158 L73 158 L83 156 L99 156 L114 156 L121 156 L132 155 L145 155 L159 155 L174 153 L194 152 L212 152 L231 152 L247 150 L269 148 L301 148 L340 143 L374 126 L412 95 L440 73 L449 63 L451 60 M0 237 L1 235 L7 230 L20 221 L40 213 L63 206 L86 200 L101 197 L114 196 L128 196 L147 196 L178 198 L225 210 L256 222 L289 240 L315 261 L334 281 L349 303 L370 345 L380 363 L383 367 L384 368 M68 270 L97 261 L110 259 L124 260 L146 271 L174 291 L218 328 L249 355 L265 374 L276 394 L282 408 L286 417 L287 418 M45 77 L51 80 L91 84 L168 89 L219 76 L249 51 L270 33 L283 25 L286 17 L287 7 L287 2 L287 1 L287 0 M235 179 L240 179 L267 179 L330 179 L399 178 L448 181 L464 184 M340 229 L375 243 L418 251 L461 266 L483 275 L487 277 " fill="none" stroke="black" /><path d="M23 154 L24 154 L29 155 L37 158 L47 158 L58 158 L68 158 L73 158 L83 156 L99 156 L114 156 L121 156 L132 155 L145 155 L159 155 L174 153 L194 152 L212 152 L231 152 L247 150 L269 148 L301 148 L340 143 L374 126 L412 95 L440 73 L449 63 L451 60 M0 237 L1 235 L7 230 L20 221 L40 213 L63 206 L86 200 L101 197 L114 196 L128 196 L147 196 L178 198 L225 210 L256 222 L289 240 L315 261 L334 281 L349 303 L370 345 L380 363 L383 367 L384 368 M68 270 L97 261 L110 259 L124 260 L146 271 L174 291 L218 328 L249 355 L265 374 L276 394 L282 408 L286 417 L287 418 M45 77 L51 80 L91 84 L168 89 L219 76 L249 51 L270 33 L283 25 L286 17 L287 7 L287 2 L287 1 L287 0 M235 179 L240 179 L267 179 L330 179 L399 178 L448 181 L464 184 M340 229 L375 243 L418 251 L461 266 L483 275 L487 277 M411 139 L430 139 L461 140 L505 138 L547 127 L559 120 L561 118 " fill="none" stroke="black" /><path d="M23 154 L24 154 L29 155 L37 158 L47 158 L58 158 L68 158 L73 158 L83 156 L99 156 L114 156 L121 156 L132 155 L145 155 L159 155 L174 153 L194 152 L212 152 L231 152 L247 150 L269 148 L301 148 L340 143 L374 126 L412 95 L440 73 L449 63 L451 60 M0 237 L1 235 L7 230 L20 221 L40 213 L63 206 L86 200 L101 197 L114 196 L128 196 L147 196 L178 198 L225 210 L256 222 L289 240 L315 261 L334 281 L349 303 L370 345 L380 363 L383 367 L384 368 M68 270 L97 261 L110 259 L124 260 L146 271 L174 291 L218 328 L249 355 L265 374 L276 394 L282 408 L286 417 L287 418 M45 77 L51 80 L91 84 L168 89 L219 76 L249 51 L270 33 L283 25 L286 17 L287 7 L287 2 L287 1 L287 0 M235 179 L240 179 L267 179 L330 179 L399 178 L448 181 L464 184 M340 229 L375 243 L418 251 L461 266 L483 275 L487 277 M411 139 L430 139 L461 140 L505 138 L547 127 L559 120 L561 118 M316 206 L317 204 L321 202 L330 197 L334 195 L342 194 L349 193 L356 193 L360 192 L364 192 L367 192 L370 195 L373 197 L376 199 L379 201 L380 202 L383 203 L385 204 L388 205 L390 205 L392 206 L396 208 L403 209 L411 210 L418 212 L428 215 L441 216 L449 216 L456 216 L462 212 L468 206 L473 202 L477 199 L483 197 L490 196 L502 196 L520 201 L535 207 L550 214 L558 215 L566 216 L575 216 L584 214 L602 211 L608 209 " fill="none" stroke="black" /></svg>