<?xml version="1.0" encoding="utf-8" ?>
<svg baseProfile="tiny" height="461" version="1.2" viewBox="-3 -3 1141 461" width="1141" xmlns="http://www.w3.org/2000/svg" xmlns:ev="http://www.w3.org/2001/xml-events" xmlns:xlink="http://www.w3.org/1999/xlink"><defs /><path d="M537 418 L646 434 L705 449 L741 454 L765 456 L766 456 L767 456 L765 456 L736 456 L539 425 L279 367 L139 329 L105 320 L103 319 L109 319 L140 321 L235 335 L338 349 L487 370 L574 383 L610 389 L633 392 L634 393 L638 393 L644 393 L654 393 L684 397 L729 408 L789 421 L897 436 L947 443 L982 448 L1009 452 L1030 453 L1066 453 L1127 450 L1140 446 L1141 442 L1131 442 L1064 453 L972 457 L898 457 L833 457 L696 432 L459 371 L225 322 L158 313 L149 312 L199 312 L348 332 L514 336 L680 336 L799 336 L860 336 L893 333 L895 333 L893 332 L858 332 L806 332 L718 332 L657 332 L524 313 L449 304 L398 300 L359 300 L336 300 L329 300 L334 298 L404 291 L538 277 L684 256 L807 238 L928 223 L986 220 L1015 215 L1021 212 L1023 211 L1025 211 L1026 210 L1026 209 L1020 209 L963 217 L844 225 L787 225 L750 225 L570 225 L429 224 L332 210 L267 205 L221 202 L213 202 L214 202 L220 202 L265 202 L338 202 L453 184 L569 172 L713 161 L813 150 L829 147 L841 141 L847 139 L841 139 L795 145 L736 157 L641 182 L519 218 L417 244 L346 256 L276 266 L205 276 L163 283 L140 286 L136 287 L138 287 L138 290 L140 293 L141 293 L142 293 L143 295 L144 320 L145 362 L141 405 L122 440 L101 460 L83 461 L48 419 L29 314 L9 206 L0 152 L15 115 L33 92 L38 87 L42 86 L51 82 L55 78 L62 65 L72 31 L73 4 L73 1 L72 0 L71 2 L71 13 L75 23 L86 36 L141 90 L231 188 L296 301 L300 317 L299 316 L299 315 " fill="none" stroke="black" /></svg>