<?xml version="1.0" encoding="utf-8" ?>
<svg baseProfile="tiny" height="294" version="1.2" viewBox="-3 -3 923 294" width="923" xmlns="http://www.w3.org/2000/svg" xmlns:ev="http://www.w3.org/2001/xml-events" xmlns:xlink="http://www.w3.org/1999/xlink"><defs /><path d="M37 0 L47 0 L52 0 L56 0 L60 1 L69 6 L82 18 L93 36 L99 65 L101 84 L101 98 L100 108 L97 117 L90 128 L80 132 L60 130 L29 113 L7 96 L1 80 L0 64 L22 43 L38 32 L47 28 L49 28 " fill="none" stroke="black" /><path d="M37 0 L47 0 L52 0 L56 0 L60 1 L69 6 L82 18 L93 36 L99 65 L101 84 L101 98 L100 108 L97 117 L90 128 L80 132 L60 130 L29 113 L7 96 L1 80 L0 64 L22 43 L38 32 L47 28 L49 28 M149 90 L148 67 L148 32 L158 13 L172 8 L192 7 L220 18 L246 46 L263 82 L264 127 L251 151 L236 154 L210 147 L192 132 L192 108 L200 97 L205 97 L206 97 " fill="none" stroke="black" /><path d="M37 0 L47 0 L52 0 L56 0 L60 1 L69 6 L82 18 L93 36 L99 65 L101 84 L101 98 L100 108 L97 117 L90 128 L80 132 L60 130 L29 113 L7 96 L1 80 L0 64 L22 43 L38 32 L47 28 L49 28 M149 90 L148 67 L148 32 L158 13 L172 8 L192 7 L220 18 L246 46 L263 82 L264 127 L251 151 L236 154 L210 147 L192 132 L192 108 L200 97 L205 97 L206 97 M338 55 L345 40 L371 23 L410 20 L446 40 L463 85 L459 147 L445 182 L428 190 L415 191 L392 177 L385 161 L384 130 L385 124 L386 122 L387 122 L389 122 " fill="none" stroke="black" /><path d="M37 0 L47 0 L52 0 L56 0 L60 1 L69 6 L82 18 L93 36 L99 65 L101 84 L101 98 L100 108 L97 117 L90 128 L80 132 L60 130 L29 113 L7 96 L1 80 L0 64 L22 43 L38 32 L47 28 L49 28 M149 90 L148 67 L148 32 L158 13 L172 8 L192 7 L220 18 L246 46 L263 82 L264 127 L251 151 L236 154 L210 147 L192 132 L192 108 L200 97 L205 97 L206 97 M338 55 L345 40 L371 23 L410 20 L446 40 L463 85 L459 147 L445 182 L428 190 L415 191 L392 177 L385 161 L384 130 L385 124 L386 122 L387 122 L389 122 M550 72 L593 77 L630 91 L654 108 L660 139 L653 183 L639 204 L614 207 L584 202 L566 195 L563 185 L567 158 L581 146 L593 147 L610 164 L613 167 L613 168 L612 168 " fill="none" stroke="black" /><path d="M37 0 L47 0 L52 0 L56 0 L60 1 L69 6 L82 18 L93 36 L99 65 L101 84 L101 98 L100 108 L97 117 L90 128 L80 132 L60 130 L29 113 L7 96 L1 80 L0 64 L22 43 L38 32 L47 28 L49 28 M149 90 L148 67 L148 32 L158 13 L172 8 L192 7 L220 18 L246 46 L263 82 L264 127 L251 151 L236 154 L210 147 L192 132 L192 108 L200 97 L205 97 L206 97 M338 55 L345 40 L371 23 L410 20 L446 40 L463 85 L459 147 L445 182 L428 190 L415 191 L392 177 L385 161 L384 130 L385 124 L386 122 L387 122 L389 122 M550 72 L593 77 L630 91 L654 108 L660 139 L653 183 L639 204 L614 207 L584 202 L566 195 L563 185 L567 158 L581 146 L593 147 L610 164 L613 167 L613 168 L612 168 M330 96 L348 108 L352 114 L350 124 L334 149 L324 154 L307 153 L296 145 L294 142 L294 137 L297 126 L302 122 L311 127 L321 136 L322 136 L324 137 L324 139 " fill="none" stroke="black" /><path d="M37 0 L47 0 L52 0 L56 0 L60 1 L69 6 L82 18 L93 36 L99 65 L101 84 L101 98 L100 108 L97 117 L90 128 L80 132 L60 130 L29 113 L7 96 L1 80 L0 64 L22 43 L38 32 L47 28 L49 28 M149 90 L148 67 L148 32 L158 13 L172 8 L192 7 L220 18 L246 46 L263 82 L264 127 L251 151 L236 154 L210 147 L192 132 L192 108 L200 97 L205 97 L206 97 M338 55 L345 40 L371 23 L410 20 L446 40 L463 85 L459 147 L445 182 L428 190 L415 191 L392 177 L385 161 L384 130 L385 124 L386 122 L387 122 L389 122 M550 72 L593 77 L630 91 L654 108 L660 139 L653 183 L639 204 L614 207 L584 202 L566 195 L563 185 L567 158 L581 146 L593 147 L610 164 L613 167 L613 168 L612 168 M330 96 L348 108 L352 114 L350 124 L334 149 L324 154 L307 153 L296 145 L294 142 L294 137 L297 126 L302 122 L311 127 L321 136 L322 136 L324 137 L324 139 M521 105 L535 114 L549 123 L555 128 L557 143 L557 158 L555 170 L541 181 L515 182 L483 174 L472 168 L472 159 L474 147 L483 143 L496 145 L515 157 L519 158 L519 159 " fill="none" stroke="black" /><path d="M37 0 L47 0 L52 0 L56 0 L60 1 L69 6 L82 18 L93 36 L99 65 L101 84 L101 98 L100 108 L97 117 L90 128 L80 132 L60 130 L29 113 L7 96 L1 80 L0 64 L22 43 L38 32 L47 28 L49 28 M149 90 L148 67 L148 32 L158 13 L172 8 L192 7 L220 18 L246 46 L263 82 L264 127 L251 151 L236 154 L210 147 L192 132 L192 108 L200 97 L205 97 L206 97 M338 55 L345 40 L371 23 L410 20 L446 40 L463 85 L459 147 L445 182 L428 190 L415 191 L392 177 L385 161 L384 130 L385 124 L386 122 L387 122 L389 122 M550 72 L593 77 L630 91 L654 108 L660 139 L653 183 L639 204 L614 207 L584 202 L566 195 L563 185 L567 158 L581 146 L593 147 L610 164 L613 167 L613 168 L612 168 M330 96 L348 108 L352 114 L350 124 L334 149 L324 154 L307 153 L296 145 L294 142 L294 137 L297 126 L302 122 L311 127 L321 136 L322 136 L324 137 L324 139 M521 105 L535 114 L549 123 L555 128 L557 143 L557 158 L555 170 L541 181 L515 182 L483 174 L472 168 L472 159 L474 147 L483 143 L496 145 L515 157 L519 158 L519 159 M748 143 L748 142 L768 147 L784 166 L790 190 L790 216 L780 240 L767 248 L732 243 L696 228 L689 223 L689 211 L693 195 L704 189 L727 212 L736 223 L736 221 L736 220 L735 220 " fill="none" stroke="black" /><path d="M37 0 L47 0 L52 0 L56 0 L60 1 L69 6 L82 18 L93 36 L99 65 L101 84 L101 98 L100 108 L97 117 L90 128 L80 132 L60 130 L29 113 L7 96 L1 80 L0 64 L22 43 L38 32 L47 28 L49 28 M149 90 L148 67 L148 32 L158 13 L172 8 L192 7 L220 18 L246 46 L263 82 L264 127 L251 151 L236 154 L210 147 L192 132 L192 108 L200 97 L205 97 L206 97 M338 55 L345 40 L371 23 L410 20 L446 40 L463 85 L459 147 L445 182 L428 190 L415 191 L392 177 L385 161 L384 130 L385 124 L386 122 L387 122 L389 122 M550 72 L593 77 L630 91 L654 108 L660 139 L653 183 L639 204 L614 207 L584 202 L566 195 L563 185 L567 158 L581 146 L593 147 L610 164 L613 167 L613 168 L612 168 M330 96 L348 108 L352 114 L350 124 L334 149 L324 154 L307 153 L296 145 L294 142 L294 137 L297 126 L302 122 L311 127 L321 136 L322 136 L324 137 L324 139 M521 105 L535 114 L549 123 L555 128 L557 143 L557 158 L555 170 L541 181 L515 182 L483 174 L472 168 L472 159 L474 147 L483 143 L496 145 L515 157 L519 158 L519 159 M748 143 L748 142 L768 147 L784 166 L790 190 L790 216 L780 240 L767 248 L732 243 L696 228 L689 223 L689 211 L693 195 L704 189 L727 212 L736 223 L736 221 L736 220 L735 220 M864 218 L873 218 L887 224 L907 240 L922 258 L923 270 L914 280 L898 290 L877 294 L841 294 L828 289 L827 283 L831 275 L838 271 L849 271 L860 279 L863 282 " fill="none" stroke="black" /></svg>