<?xml version="1.0" encoding="utf-8" ?>
<svg baseProfile="tiny" height="455" version="1.2" viewBox="-3 -3 1132 455" width="1132" xmlns="http://www.w3.org/2000/svg" xmlns:ev="http://www.w3.org/2001/xml-events" xmlns:xlink="http://www.w3.org/1999/xlink"><defs /><path d="M0 254 L20 285 L59 325 L153 399 L242 436 L327 436 L419 412 L471 396 L507 369 L529 327 L535 293 L529 259 L498 214 L464 176 L436 147 L412 121 L367 95 L350 92 L327 92 L311 91 L302 89 L295 89 L274 89 L238 89 L216 89 L212 89 L210 90 L203 90 L202 90 " fill="none" stroke="black" /><path d="M0 254 L20 285 L59 325 L153 399 L242 436 L327 436 L419 412 L471 396 L507 369 L529 327 L535 293 L529 259 L498 214 L464 176 L436 147 L412 121 L367 95 L350 92 L327 92 L311 91 L302 89 L295 89 L274 89 L238 89 L216 89 L212 89 L210 90 L203 90 L202 90 M240 222 L245 219 L255 211 L267 181 L278 160 L310 133 L352 108 L387 91 L425 74 L476 60 L549 39 L589 28 L610 21 L628 18 L650 17 L674 17 L705 17 L727 17 L743 17 L752 16 L754 16 " fill="none" stroke="black" /><path d="M0 254 L20 285 L59 325 L153 399 L242 436 L327 436 L419 412 L471 396 L507 369 L529 327 L535 293 L529 259 L498 214 L464 176 L436 147 L412 121 L367 95 L350 92 L327 92 L311 91 L302 89 L295 89 L274 89 L238 89 L216 89 L212 89 L210 90 L203 90 L202 90 M240 222 L245 219 L255 211 L267 181 L278 160 L310 133 L352 108 L387 91 L425 74 L476 60 L549 39 L589 28 L610 21 L628 18 L650 17 L674 17 L705 17 L727 17 L743 17 L752 16 L754 16 M237 221 L244 222 L273 230 L430 274 L613 354 L759 418 L910 448 L1051 455 L1088 455 L1106 445 L1116 432 L1124 414 L1130 386 L1132 351 L1127 330 L1120 322 L1114 322 L1109 326 " fill="none" stroke="black" /><path d="M0 254 L20 285 L59 325 L153 399 L242 436 L327 436 L419 412 L471 396 L507 369 L529 327 L535 293 L529 259 L498 214 L464 176 L436 147 L412 121 L367 95 L350 92 L327 92 L311 91 L302 89 L295 89 L274 89 L238 89 L216 89 L212 89 L210 90 L203 90 L202 90 M240 222 L245 219 L255 211 L267 181 L278 160 L310 133 L352 108 L387 91 L425 74 L476 60 L549 39 L589 28 L610 21 L628 18 L650 17 L674 17 L705 17 L727 17 L743 17 L752 16 L754 16 M237 221 L244 222 L273 230 L430 274 L613 354 L759 418 L910 448 L1051 455 L1088 455 L1106 445 L1116 432 L1124 414 L1130 386 L1132 351 L1127 330 L1120 322 L1114 322 L1109 326 M382 224 L410 224 L472 215 L527 188 L662 143 L740 138 L774 133 L775 133 L757 137 L625 157 L379 176 L167 182 L31 182 L1 182 L0 182 L4 182 L49 177 L209 140 L429 90 L651 39 L736 17 L763 9 L774 7 L775 7 L761 12 L641 39 L400 50 L240 50 L131 50 L114 51 L138 47 L272 21 L391 5 L550 0 L630 8 L638 10 L638 14 L627 28 L590 55 L529 90 L449 115 L382 124 L355 128 L346 130 L336 131 L327 133 L324 134 L324 135 L323 135 L319 136 L310 138 L304 139 L299 143 L292 156 L285 167 L283 172 L281 176 L279 179 L279 180 L278 181 L277 183 L276 185 L275 186 L274 189 L273 192 L273 195 L272 198 L271 200 L271 202 L270 203 L270 205 L270 206 L270 207 L269 207 L268 209 L268 210 L268 212 L267 213 L266 214 L266 215 L268 216 " fill="none" stroke="black" /></svg>