<?xml version="1.0" encoding="utf-8" ?>
<svg baseProfile="tiny" height="514" version="1.2" viewBox="-3 -3 673 514" width="673" xmlns="http://www.w3.org/2000/svg" xmlns:ev="http://www.w3.org/2001/xml-events" xmlns:xlink="http://www.w3.org/1999/xlink"><defs /><path d="M53 0 L72 15 L126 68 L300 192 L520 321 L655 393 L673 400 L673 401 " fill="none" stroke="black" /><path d="M53 0 L72 15 L126 68 L300 192 L520 321 L655 393 L673 400 L673 401 M0 126 L79 191 L286 320 L500 452 L615 512 L624 514 L624 510 L624 508 " fill="none" stroke="black" /><path d="M53 0 L72 15 L126 68 L300 192 L520 321 L655 393 L673 400 L673 401 M0 126 L79 191 L286 320 L500 452 L615 512 L624 514 L624 510 L624 508 M49 121 L81 151 L195 238 L414 362 L534 425 L555 430 L556 429 L556 427 " fill="none" stroke="black" /><path d="M53 0 L72 15 L126 68 L300 192 L520 321 L655 393 L673 400 L673 401 M0 126 L79 191 L286 320 L500 452 L615 512 L624 514 L624 510 L624 508 M49 121 L81 151 L195 238 L414 362 L534 425 L555 430 L556 429 L556 427 M93 129 L103 139 L138 171 L272 248 L457 351 L535 396 L550 404 " fill="none" stroke="black" /><path d="M53 0 L72 15 L126 68 L300 192 L520 321 L655 393 L673 400 L673 401 M0 126 L79 191 L286 320 L500 452 L615 512 L624 514 L624 510 L624 508 M49 121 L81 151 L195 238 L414 362 L534 425 L555 430 L556 429 L556 427 M93 129 L103 139 L138 171 L272 248 L457 351 L535 396 L550 404 M138 130 L152 138 L185 167 L287 230 L439 314 L529 359 L538 363 " fill="none" stroke="black" /><path d="M53 0 L72 15 L126 68 L300 192 L520 321 L655 393 L673 400 L673 401 M0 126 L79 191 L286 320 L500 452 L615 512 L624 514 L624 510 L624 508 M49 121 L81 151 L195 238 L414 362 L534 425 L555 430 L556 429 L556 427 M93 129 L103 139 L138 171 L272 248 L457 351 L535 396 L550 404 M138 130 L152 138 L185 167 L287 230 L439 314 L529 359 L538 363 M156 110 L192 145 L288 216 L408 299 L467 334 L480 339 " fill="none" stroke="black" /><path d="M53 0 L72 15 L126 68 L300 192 L520 321 L655 393 L673 400 L673 401 M0 126 L79 191 L286 320 L500 452 L615 512 L624 514 L624 510 L624 508 M49 121 L81 151 L195 238 L414 362 L534 425 L555 430 L556 429 L556 427 M93 129 L103 139 L138 171 L272 248 L457 351 L535 396 L550 404 M138 130 L152 138 L185 167 L287 230 L439 314 L529 359 L538 363 M156 110 L192 145 L288 216 L408 299 L467 334 L480 339 M246 184 L251 184 L273 197 L306 218 L393 255 L438 274 L462 282 L470 284 " fill="none" stroke="black" /></svg>