<?xml version="1.0" encoding="utf-8" ?>
<svg baseProfile="tiny" height="677" version="1.2" viewBox="-3 -3 445 677" width="445" xmlns="http://www.w3.org/2000/svg" xmlns:ev="http://www.w3.org/2001/xml-events" xmlns:xlink="http://www.w3.org/1999/xlink"><defs /><path d="M85 570 L82 572 L76 572 L73 569 L71 563 L71 550 L78 543 L90 540 L105 540 L115 544 L124 551 L132 569 L133 580 L133 590 L130 594 L127 595 L125 596 L123 596 L121 588 L122 579 L127 573 L135 573 L145 574 L159 584 L171 596 L179 610 L184 621 L186 629 L184 633 L182 634 L179 635 L176 635 L173 632 L172 626 L172 616 L176 612 L185 611 L194 611 L203 612 L208 614 L214 619 L217 627 L217 634 L215 643 L210 650 L208 653 L206 654 L205 654 L207 646 L215 633 L221 630 L229 630 L235 632 L243 639 L252 650 L256 661 L255 670 L251 675 L249 676 L246 676 L242 665 L242 645 L250 629 L268 625 L282 626 L293 632 L302 641 L306 651 L306 663 L301 673 L298 676 L297 677 L296 671 L301 652 L325 613 L349 598 L366 592 L374 592 L379 597 L383 609 L380 626 L370 637 L365 637 L362 636 L362 612 L377 578 L404 552 L420 545 L435 541 L441 541 L443 545 L444 547 L444 548 L443 548 L439 548 L438 548 L438 547 L438 546 L438 545 L438 544 L438 543 L438 542 L438 535 L438 519 L441 487 L445 475 L445 474 L444 466 L404 414 L297 296 L197 185 L156 122 L129 80 L71 32 L18 3 L4 0 L3 0 L2 0 L0 2 L0 6 L4 15 L12 20 L14 20 L20 24 L34 39 L71 91 L126 185 L148 215 L153 219 L192 271 L259 360 L329 475 L341 520 L341 528 L340 529 L340 534 L342 543 L358 565 L381 590 L390 595 L397 594 L399 590 L401 585 L401 580 L402 577 L403 576 L406 570 L407 567 L408 566 L409 566 " fill="none" stroke="black" /></svg>