<?xml version="1.0" encoding="utf-8" ?>
<svg baseProfile="tiny" height="271" version="1.2" viewBox="-3 -3 640 271" width="640" xmlns="http://www.w3.org/2000/svg" xmlns:ev="http://www.w3.org/2001/xml-events" xmlns:xlink="http://www.w3.org/1999/xlink"><defs /><path d="M551 165 L495 241 L489 263 L529 257 L606 214 L640 186 L607 205 L501 258 L476 271 L485 266 L555 212 L618 139 L610 138 L525 205 L483 241 L485 241 L541 200 L588 145 L579 148 L475 210 L426 237 L474 199 L526 132 L523 131 L437 182 L393 211 L395 212 L438 178 L471 129 L460 129 L395 174 L367 198 L367 199 L401 175 L444 126 L443 126 L374 177 L328 208 L327 209 L371 165 L409 103 L403 104 L355 143 L329 171 L333 172 L376 138 L419 65 L421 59 L358 114 L294 167 L289 171 L316 142 L341 94 L344 87 L316 111 L269 151 L261 159 L289 137 L314 92 L319 71 L293 87 L239 132 L224 145 L243 133 L270 85 L279 65 L266 76 L205 118 L182 131 L191 116 L211 66 L217 42 L209 48 L138 99 L97 122 L103 114 L128 61 L134 39 L132 40 L102 75 L78 100 L80 101 L99 61 L104 46 L94 53 L60 80 L39 95 L45 83 L61 20 L63 0 L52 6 L16 48 L0 69 L18 59 L46 21 L62 2 L55 34 L53 62 L74 57 L134 24 L160 12 L162 12 L147 49 L136 86 L146 89 L191 71 L222 52 L224 51 L217 58 L198 83 L197 85 L218 78 L237 62 L225 79 L217 92 L224 93 L247 73 L252 69 L248 76 L231 104 L224 119 L231 120 L256 101 L267 89 L267 88 L255 99 L233 129 L232 133 L256 133 L289 114 L297 111 L295 111 L287 120 L286 124 L287 126 L299 126 L309 120 L301 125 L297 129 L298 130 L318 120 L331 112 L332 112 L325 138 L321 155 L322 156 L330 155 L333 151 L334 150 L334 148 " fill="none" stroke="black" /></svg>