<?xml version="1.0" encoding="utf-8" ?>
<svg baseProfile="tiny" height="420" version="1.2" viewBox="-3 -3 576 420" width="576" xmlns="http://www.w3.org/2000/svg" xmlns:ev="http://www.w3.org/2001/xml-events" xmlns:xlink="http://www.w3.org/1999/xlink"><defs /><path d="M112 0 L85 10 L74 19 L59 43 L39 69 L23 95 L14 118 L5 145 L0 173 L2 206 L14 234 L34 263 L81 303 L123 334 L162 352 L221 364 L322 378 L444 378 L523 360 L552 327 L567 283 L576 242 L569 205 L535 166 L458 129 L393 103 L359 93 L295 83 L227 77 L205 76 L181 88 L148 111 L115 137 L84 170 L75 197 L69 238 L67 275 L77 300 L102 319 L150 338 L207 350 L254 350 L327 331 L407 306 L454 271 L473 212 L474 189 L460 165 L430 139 L380 118 L311 105 L239 106 L179 122 L140 151 L130 192 L128 238 L132 309 L175 387 L207 415 L235 420 L279 394 L334 351 L395 298 L394 224 L374 170 L334 138 L284 119 L238 116 L178 154 L133 206 L118 253 L125 294 L161 330 L230 359 L308 361 L363 331 L400 301 L402 256 L378 204 L299 167 L233 159 L202 187 L183 238 L183 287 L230 350 L303 387 L354 374 L409 306 L422 268 L395 227 L347 199 L237 203 L191 238 L185 287 L205 324 L246 341 L308 336 L378 299 L388 278 L374 243 L320 203 L276 199 L262 232 L283 292 L335 330 L373 331 L404 294 L404 260 L372 227 L296 198 L259 209 L244 249 L252 287 L288 312 L319 311 L350 274 L350 251 L329 235 L303 233 L271 254 L265 296 L285 317 L318 320 L345 296 L351 279 L344 262 L302 247 L280 249 L277 273 L293 304 L327 322 L352 320 L361 283 L359 269 L340 256 L315 254 L308 267 L309 289 L326 304 L337 304 L339 299 L340 297 L339 292 L338 290 L337 290 L335 287 L329 285 L327 285 L325 285 " fill="none" stroke="black" /></svg>