<?xml version="1.0" encoding="utf-8" ?>
<svg baseProfile="tiny" height="5" version="1.2" viewBox="-3 -3 229 5" width="229" xmlns="http://www.w3.org/2000/svg" xmlns:ev="http://www.w3.org/2001/xml-events" xmlns:xlink="http://www.w3.org/1999/xlink"><defs /><path d="M0 3 L3 2 L7 0 L8 0 L9 0 L10 0 L11 0 L12 0 L13 0 L14 0 L15 0 L16 0 L19 0 L21 0 L23 0 L24 0 L26 0 L27 0 L30 0 L31 0 L33 0 L35 0 L36 0 L37 0 L39 0 L41 0 L41 1 L45 2 L48 2 L49 2 L50 2 L51 2 L53 3 L55 3 L56 3 L59 3 L60 4 L61 4 L63 4 L66 4 L67 4 L71 4 L75 4 L79 4 L80 4 L82 4 L83 4 L84 4 L86 4 L90 4 L91 4 L95 4 L96 4 L97 4 L98 4 L99 4 L101 4 L102 4 L104 4 L107 4 L109 4 L111 4 L122 4 L127 4 L129 4 L130 4 L131 4 L135 4 L140 4 L143 4 L147 4 L149 4 L151 4 L153 4 L159 4 L161 4 L164 4 L167 4 L170 4 L172 4 L176 4 L179 4 L180 4 L181 4 L183 4 L187 4 L189 4 L195 4 L196 4 L198 4 L200 4 L201 4 L204 4 L206 4 L208 4 L211 4 L213 4 L218 4 L222 4 L223 4 L227 4 L229 5 " fill="none" stroke="black" /></svg>