<?xml version="1.0" encoding="utf-8" ?>
<svg baseProfile="tiny" height="32" version="1.2" viewBox="-3 -3 147 32" width="147" xmlns="http://www.w3.org/2000/svg" xmlns:ev="http://www.w3.org/2001/xml-events" xmlns:xlink="http://www.w3.org/1999/xlink"><defs /><path d="M0 32 L8 28 L13 27 L15 27 L16 27 L18 26 L20 26 L21 26 L22 26 L24 26 L28 25 L29 25 L33 24 L35 24 L36 24 L38 24 L40 24 L43 24 L44 24 L49 23 L52 23 L53 23 L55 23 L56 23 L58 23 L63 23 L68 23 L71 22 L75 21 L77 20 L79 20 L80 20 L82 19 L84 19 L85 19 L86 19 L88 19 L90 19 L92 18 L93 18 L94 17 L95 16 L98 16 L100 15 L102 15 L104 14 L106 14 L107 14 L111 12 L112 12 L114 12 L116 11 L119 10 L120 10 L121 9 L122 7 L123 7 L124 7 L126 6 L128 6 L129 6 L132 4 L133 3 L135 3 L138 2 L141 1 L144 1 L146 1 L147 0 " fill="none" stroke="black" /></svg>