<?xml version="1.0" encoding="utf-8" ?>
<svg baseProfile="tiny" height="24" version="1.2" viewBox="-3 -3 200 24" width="200" xmlns="http://www.w3.org/2000/svg" xmlns:ev="http://www.w3.org/2001/xml-events" xmlns:xlink="http://www.w3.org/1999/xlink"><defs /><path d="M0 0 L12 4 L18 8 L19 9 L26 14 L31 16 L33 16 L36 16 L50 12 L54 9 L59 7 L70 6 L74 6 L84 8 L97 11 L104 14 L110 14 L121 16 L128 18 L131 18 L135 21 L141 24 L143 24 L151 24 L163 21 L167 19 L171 17 L176 12 L182 9 L184 8 L191 5 L192 4 L195 4 L196 4 L199 4 L200 4 " fill="none" stroke="black" /></svg>