<?xml version="1.0" encoding="utf-8" ?>
<svg baseProfile="tiny" height="408" version="1.2" viewBox="-3 -3 152 408" width="152" xmlns="http://www.w3.org/2000/svg" xmlns:ev="http://www.w3.org/2001/xml-events" xmlns:xlink="http://www.w3.org/1999/xlink"><defs /><path d="M0 0 L0 8 L3 24 L4 37 L4 43 L5 54 L5 61 L5 68 L5 73 L10 87 L10 91 L16 96 L25 100 L68 112 L72 114 L83 122 L84 125 L86 125 L90 131 L91 134 L96 143 L102 159 L104 167 L106 179 L108 186 L110 190 L110 197 L110 200 L111 216 L109 230 L105 237 L103 240 L91 248 L75 254 L63 256 L52 258 L46 260 L42 260 L38 264 L35 271 L32 278 L32 292 L32 302 L32 306 L34 312 L35 317 L35 320 L37 326 L38 336 L38 340 L39 344 L42 353 L44 360 L44 362 L73 388 L107 407 L118 408 L120 408 L145 397 L150 396 L151 396 L151 395 L152 394 " fill="none" stroke="black" /></svg>