<?xml version="1.0" encoding="utf-8" ?>
<svg baseProfile="tiny" height="135" version="1.2" viewBox="-3 -3 482 135" width="482" xmlns="http://www.w3.org/2000/svg" xmlns:ev="http://www.w3.org/2001/xml-events" xmlns:xlink="http://www.w3.org/1999/xlink"><defs /><path d="M0 34 L1 34 L4 35 L7 35 L8 35 L13 32 L20 28 L22 27 L24 24 L31 19 L35 19 L40 18 L44 18 L52 19 L60 19 L64 19 L67 19 L72 16 L77 13 L81 11 L84 8 L89 7 L96 6 L101 6 L104 6 L112 9 L116 11 L117 11 L126 11 L128 11 L131 9 L133 8 L136 6 L140 2 L140 1 L142 1 L143 0 L147 0 L149 0 L156 4 L160 5 L164 6 L173 6 L175 6 L181 7 L192 12 L196 15 L202 25 L208 36 L208 44 L208 47 L212 49 L217 57 L220 63 L220 67 L220 68 L220 69 L221 69 L223 71 L228 81 L228 84 L230 85 L233 88 L235 90 L236 92 L240 101 L240 106 L240 107 L240 109 L241 111 L244 112 L247 115 L248 117 L252 127 L252 130 L252 131 L256 132 L260 132 L261 132 L264 134 L267 135 L276 133 L283 130 L284 128 L298 113 L298 112 L300 111 L308 103 L312 95 L324 44 L324 42 L325 42 L332 38 L341 33 L344 32 L346 31 L351 30 L356 29 L370 13 L372 9 L373 9 L375 8 L380 6 L382 5 L385 5 L386 5 L388 5 L391 5 L394 4 L400 2 L402 3 L404 7 L404 9 L407 9 L409 8 L412 4 L416 4 L419 7 L419 11 L419 12 L419 13 L416 35 L417 35 L416 39 L416 47 L415 53 L414 64 L413 66 L412 67 L412 68 L408 72 L408 80 L408 83 L410 84 L412 91 L412 99 L412 101 L412 103 L416 117 L417 126 L417 131 L417 134 L419 135 L427 130 L428 128 L430 128 L432 128 L449 127 L478 133 L482 133 " fill="none" stroke="black" /></svg>