<?xml version="1.0" encoding="utf-8" ?>
<svg baseProfile="tiny" height="190" version="1.2" viewBox="-3 -3 399 190" width="399" xmlns="http://www.w3.org/2000/svg" xmlns:ev="http://www.w3.org/2001/xml-events" xmlns:xlink="http://www.w3.org/1999/xlink"><defs /><path d="M0 144 L2 147 L5 152 L12 154 L23 148 L26 147 L27 146 L30 146 L36 147 L44 148 L47 148 L48 148 L59 151 L67 151 L73 148 L75 148 L90 155 L96 157 L103 152 L105 150 L118 158 L141 190 L147 190 L154 167 L155 164 L157 164 L159 164 L167 154 L170 140 L170 139 L172 140 L175 141 L190 129 L201 141 L205 148 L205 150 L207 139 L207 137 L209 142 L217 166 L219 172 L235 143 L236 132 L244 141 L253 156 L255 158 L285 79 L288 67 L289 73 L293 93 L293 96 L291 75 L290 71 L291 84 L296 103 L297 108 L313 92 L314 91 L315 95 L319 108 L319 110 L329 72 L330 62 L332 64 L334 68 L359 32 L362 16 L365 19 L375 38 L375 40 L382 14 L383 8 L383 12 L386 27 L395 11 L399 1 L399 0 " fill="none" stroke="black" /></svg>