<?xml version="1.0" encoding="utf-8" ?>
<svg baseProfile="tiny" height="127" version="1.2" viewBox="-3 -3 139 127" width="139" xmlns="http://www.w3.org/2000/svg" xmlns:ev="http://www.w3.org/2001/xml-events" xmlns:xlink="http://www.w3.org/1999/xlink"><defs /><path d="M29 15 L30 15 L31 17 L31 21 L31 22 L31 25 L31 28 L31 29 L31 30 L31 31 " fill="none" stroke="black" /><path d="M29 15 L30 15 L31 17 L31 21 L31 22 L31 25 L31 28 L31 29 L31 30 L31 31 M30 28 L27 29 L23 33 L19 36 L15 39 L9 43 L5 44 L1 45 L0 45 " fill="none" stroke="black" /><path d="M29 15 L30 15 L31 17 L31 21 L31 22 L31 25 L31 28 L31 29 L31 30 L31 31 M30 28 L27 29 L23 33 L19 36 L15 39 L9 43 L5 44 L1 45 L0 45 M27 0 L28 5 L35 18 L44 28 L47 32 L56 41 L60 47 L61 49 L61 52 L61 54 L59 57 L47 63 L35 69 L28 69 L20 69 L17 69 L15 69 " fill="none" stroke="black" /><path d="M29 15 L30 15 L31 17 L31 21 L31 22 L31 25 L31 28 L31 29 L31 30 L31 31 M30 28 L27 29 L23 33 L19 36 L15 39 L9 43 L5 44 L1 45 L0 45 M27 0 L28 5 L35 18 L44 28 L47 32 L56 41 L60 47 L61 49 L61 52 L61 54 L59 57 L47 63 L35 69 L28 69 L20 69 L17 69 L15 69 M78 22 L79 25 L83 30 L87 35 L95 45 L98 51 L100 57 L102 61 L102 63 L102 65 L102 66 L95 72 L78 81 L73 84 L63 90 L55 95 L51 96 " fill="none" stroke="black" /><path d="M29 15 L30 15 L31 17 L31 21 L31 22 L31 25 L31 28 L31 29 L31 30 L31 31 M30 28 L27 29 L23 33 L19 36 L15 39 L9 43 L5 44 L1 45 L0 45 M27 0 L28 5 L35 18 L44 28 L47 32 L56 41 L60 47 L61 49 L61 52 L61 54 L59 57 L47 63 L35 69 L28 69 L20 69 L17 69 L15 69 M78 22 L79 25 L83 30 L87 35 L95 45 L98 51 L100 57 L102 61 L102 63 L102 65 L102 66 L95 72 L78 81 L73 84 L63 90 L55 95 L51 96 M126 29 L122 42 L122 48 L123 57 L128 80 L135 96 L139 103 L139 105 L139 106 L139 108 L139 109 L135 116 L131 119 L124 124 L118 127 L116 127 L114 127 L111 127 L109 127 L105 127 L101 127 L91 127 L87 127 " fill="none" stroke="black" /></svg>