<?xml version="1.0" encoding="utf-8" ?>
<svg baseProfile="tiny" height="142" version="1.2" viewBox="-3 -3 268 142" width="268" xmlns="http://www.w3.org/2000/svg" xmlns:ev="http://www.w3.org/2001/xml-events" xmlns:xlink="http://www.w3.org/1999/xlink"><defs /><path d="M0 142 L3 141 L4 141 L5 141 L8 139 L13 135 L14 135 L24 124 L29 122 L30 122 L32 120 L33 120 L34 120 L36 118 L37 118 L38 118 L40 117 L42 116 L43 116 L47 113 L52 111 L54 110 L60 105 L61 105 L68 100 L74 96 L75 96 L76 95 L84 91 L92 88 L93 88 L95 88 L97 88 L101 85 L104 84 L112 81 L119 79 L124 78 L125 77 L127 77 L128 77 L130 76 L136 72 L137 72 L143 68 L147 65 L148 64 L150 63 L153 60 L160 55 L161 54 L167 52 L168 50 L171 48 L173 46 L175 45 L180 40 L184 37 L187 36 L195 32 L196 31 L203 27 L210 23 L211 23 L217 20 L222 19 L223 19 L234 14 L236 14 L238 13 L240 13 L241 13 L258 4 L268 0 " fill="none" stroke="black" /></svg>