<?xml version="1.0" encoding="utf-8" ?>
<svg baseProfile="tiny" height="6" version="1.2" viewBox="-3 -3 421 6" width="421" xmlns="http://www.w3.org/2000/svg" xmlns:ev="http://www.w3.org/2001/xml-events" xmlns:xlink="http://www.w3.org/1999/xlink"><defs /><path d="M0 5 L3 5 L6 5 L15 3 L20 3 L23 3 L30 3 L31 3 L33 3 L35 3 L36 3 L39 3 L41 3 L44 3 L47 3 L50 3 L83 0 L87 0 L88 0 L95 0 L98 0 L99 0 L101 1 L102 1 L104 1 L107 1 L110 1 L116 1 L130 2 L134 2 L135 2 L139 3 L151 5 L153 5 L154 5 L157 5 L160 5 L167 5 L180 5 L183 5 L186 5 L193 5 L198 5 L199 5 L204 5 L205 5 L207 5 L211 5 L213 5 L217 5 L220 5 L221 5 L227 5 L231 5 L236 5 L245 4 L247 4 L253 4 L256 4 L258 4 L261 4 L262 4 L273 1 L278 1 L279 1 L283 1 L286 1 L287 1 L294 2 L297 2 L298 3 L304 4 L307 4 L311 5 L314 5 L317 5 L319 5 L327 5 L330 5 L335 5 L339 5 L341 5 L343 5 L355 5 L357 5 L364 5 L368 5 L373 5 L375 5 L380 4 L385 4 L387 4 L388 4 L391 4 L398 5 L399 5 L402 5 L418 6 L421 6 " fill="none" stroke="black" /></svg>