<?xml version="1.0" encoding="utf-8" ?>
<svg baseProfile="tiny" height="320" version="1.2" viewBox="-3 -3 320 320" width="320" xmlns="http://www.w3.org/2000/svg" xmlns:ev="http://www.w3.org/2001/xml-events" xmlns:xlink="http://www.w3.org/1999/xlink"><defs /><path d="M139 161 L148 159 L150 159 L154 158 L160 158 L164 158 L167 159 L168 160 L171 163 L171 167 L171 169 L171 173 L171 178 L171 179 L170 183 L169 185 L168 186 L165 187 L163 189 L158 190 L153 190 L145 190 L140 190 L138 189 L136 188 L133 185 L133 182 L134 175 L134 172 L136 170 L136 168 " fill="none" stroke="black" /><path d="M139 161 L148 159 L150 159 L154 158 L160 158 L164 158 L167 159 L168 160 L171 163 L171 167 L171 169 L171 173 L171 178 L171 179 L170 183 L169 185 L168 186 L165 187 L163 189 L158 190 L153 190 L145 190 L140 190 L138 189 L136 188 L133 185 L133 182 L134 175 L134 172 L136 170 L136 168 M105 156 L108 152 L108 150 L109 148 L124 137 L137 130 L142 128 L145 127 L152 126 L160 125 L172 125 L194 128 L197 130 L200 131 L209 139 L215 146 L216 148 L220 157 L221 165 L223 171 L223 180 L223 196 L223 203 L222 206 L220 207 L216 213 L208 216 L196 223 L189 225 L178 231 L170 235 L159 239 L143 243 L140 243 L136 243 L133 242 L128 239 L122 231 L116 223 L114 218 L112 211 L110 203 L109 197 L109 191 L109 186 L109 183 L109 180 L109 179 " fill="none" stroke="black" /><path d="M139 161 L148 159 L150 159 L154 158 L160 158 L164 158 L167 159 L168 160 L171 163 L171 167 L171 169 L171 173 L171 178 L171 179 L170 183 L169 185 L168 186 L165 187 L163 189 L158 190 L153 190 L145 190 L140 190 L138 189 L136 188 L133 185 L133 182 L134 175 L134 172 L136 170 L136 168 M105 156 L108 152 L108 150 L109 148 L124 137 L137 130 L142 128 L145 127 L152 126 L160 125 L172 125 L194 128 L197 130 L200 131 L209 139 L215 146 L216 148 L220 157 L221 165 L223 171 L223 180 L223 196 L223 203 L222 206 L220 207 L216 213 L208 216 L196 223 L189 225 L178 231 L170 235 L159 239 L143 243 L140 243 L136 243 L133 242 L128 239 L122 231 L116 223 L114 218 L112 211 L110 203 L109 197 L109 191 L109 186 L109 183 L109 180 L109 179 M54 157 L62 148 L96 115 L116 96 L132 86 L171 67 L179 67 L182 67 L204 66 L240 71 L264 80 L281 94 L304 120 L312 138 L316 155 L320 189 L320 213 L314 227 L300 255 L283 272 L253 289 L220 307 L169 320 L134 319 L121 315 L110 310 L98 290 L78 253 L76 248 L75 245 L72 239 L68 231 L66 230 L64 226 L61 223 L55 210 L53 206 L52 197 L52 192 " fill="none" stroke="black" /><path d="M139 161 L148 159 L150 159 L154 158 L160 158 L164 158 L167 159 L168 160 L171 163 L171 167 L171 169 L171 173 L171 178 L171 179 L170 183 L169 185 L168 186 L165 187 L163 189 L158 190 L153 190 L145 190 L140 190 L138 189 L136 188 L133 185 L133 182 L134 175 L134 172 L136 170 L136 168 M105 156 L108 152 L108 150 L109 148 L124 137 L137 130 L142 128 L145 127 L152 126 L160 125 L172 125 L194 128 L197 130 L200 131 L209 139 L215 146 L216 148 L220 157 L221 165 L223 171 L223 180 L223 196 L223 203 L222 206 L220 207 L216 213 L208 216 L196 223 L189 225 L178 231 L170 235 L159 239 L143 243 L140 243 L136 243 L133 242 L128 239 L122 231 L116 223 L114 218 L112 211 L110 203 L109 197 L109 191 L109 186 L109 183 L109 180 L109 179 M54 157 L62 148 L96 115 L116 96 L132 86 L171 67 L179 67 L182 67 L204 66 L240 71 L264 80 L281 94 L304 120 L312 138 L316 155 L320 189 L320 213 L314 227 L300 255 L283 272 L253 289 L220 307 L169 320 L134 319 L121 315 L110 310 L98 290 L78 253 L76 248 L75 245 L72 239 L68 231 L66 230 L64 226 L61 223 L55 210 L53 206 L52 197 L52 192 M0 149 L9 146 L38 135 L167 80 L204 67 L216 60 L244 54 L246 51 L251 49 L267 33 L274 26 L289 10 L297 2 L297 0 L300 0 L304 3 L313 21 L316 31 L316 32 " fill="none" stroke="black" /></svg>