<?xml version="1.0" encoding="utf-8" ?>
<svg baseProfile="tiny" height="103" version="1.2" viewBox="-3 -3 296 103" width="296" xmlns="http://www.w3.org/2000/svg" xmlns:ev="http://www.w3.org/2001/xml-events" xmlns:xlink="http://www.w3.org/1999/xlink"><defs /><path d="M0 37 L1 36 L5 33 L6 33 L7 33 L8 32 L11 31 L13 30 L15 29 L17 27 L20 25 L22 25 L22 24 L24 23 L25 23 L30 19 L33 17 L36 15 L37 15 L38 14 L39 14 L40 13 L41 12 L42 12 L43 11 L44 10 L45 8 L48 7 L49 6 L52 5 L56 3 L57 3 L60 3 L63 2 L66 1 L68 1 L71 0 L75 0 L76 0 L80 0 L82 0 L83 0 L84 0 L88 0 L89 1 L90 1 L92 3 L95 3 L96 4 L101 7 L103 7 L107 10 L108 11 L110 11 L112 11 L112 12 L114 12 L114 13 L115 13 L116 13 L117 13 L118 13 L118 14 L120 15 L125 17 L127 18 L129 19 L130 19 L131 19 L132 21 L133 22 L135 23 L136 23 L137 24 L138 24 L141 27 L143 28 L143 29 L145 29 L147 30 L148 31 L149 31 L151 31 L154 31 L157 32 L160 34 L162 35 L164 37 L166 38 L168 40 L168 41 L170 41 L170 42 L171 42 L172 43 L173 46 L175 46 L176 47 L177 48 L179 49 L179 50 L180 50 L183 51 L185 52 L188 53 L189 54 L192 56 L193 57 L194 58 L196 59 L198 60 L200 62 L201 63 L202 63 L203 65 L205 66 L208 69 L208 70 L208 71 L209 71 L209 72 L210 74 L212 75 L215 76 L219 77 L220 79 L224 80 L228 82 L230 82 L231 83 L233 83 L234 83 L236 83 L237 85 L240 86 L242 87 L244 88 L246 88 L248 90 L249 91 L252 93 L253 93 L255 95 L257 95 L259 96 L261 98 L292 103 L293 103 L295 103 L296 103 " fill="none" stroke="black" /></svg>