<?xml version="1.0" encoding="utf-8" ?>
<svg baseProfile="tiny" height="102" version="1.2" viewBox="-3 -3 663 102" width="663" xmlns="http://www.w3.org/2000/svg" xmlns:ev="http://www.w3.org/2001/xml-events" xmlns:xlink="http://www.w3.org/1999/xlink"><defs /><path d="M0 10 L4 8 L15 6 L17 6 L20 5 L39 1 L44 0 L49 0 L55 0 L67 1 L73 3 L75 4 L83 7 L87 9 L90 10 L95 13 L107 23 L110 27 L111 29 L115 35 L118 38 L119 41 L121 43 L122 45 L126 47 L131 50 L134 52 L137 53 L148 63 L155 71 L159 76 L164 81 L169 86 L177 93 L183 96 L187 100 L192 101 L201 101 L205 100 L214 95 L222 90 L227 86 L233 82 L234 82 L239 76 L247 68 L251 61 L255 55 L259 51 L265 46 L271 42 L274 39 L277 37 L280 33 L286 31 L290 29 L293 28 L304 26 L311 26 L313 26 L315 26 L319 27 L322 28 L323 28 L326 30 L329 33 L332 37 L336 41 L339 43 L343 51 L346 53 L346 55 L348 57 L349 57 L352 61 L355 64 L355 67 L361 71 L367 76 L373 79 L378 81 L383 82 L388 84 L397 84 L401 82 L414 73 L417 71 L419 69 L423 65 L428 56 L431 49 L435 44 L438 37 L438 35 L440 33 L442 30 L443 29 L450 23 L454 21 L466 16 L470 16 L479 12 L483 12 L489 10 L491 10 L499 10 L501 11 L503 13 L505 14 L507 17 L510 25 L510 29 L513 38 L513 47 L514 53 L514 55 L515 57 L523 61 L527 67 L531 73 L537 82 L541 89 L544 94 L546 97 L548 99 L551 101 L555 102 L558 102 L568 101 L572 100 L575 99 L583 89 L590 80 L590 79 L592 73 L599 67 L603 62 L623 44 L627 39 L629 38 L635 34 L639 34 L643 33 L645 33 L650 34 L651 35 L661 40 L662 40 L663 42 L663 44 " fill="none" stroke="black" /></svg>