<?xml version="1.0" encoding="utf-8" ?>
<svg baseProfile="tiny" height="139" version="1.2" viewBox="-3 -3 386 139" width="386" xmlns="http://www.w3.org/2000/svg" xmlns:ev="http://www.w3.org/2001/xml-events" xmlns:xlink="http://www.w3.org/1999/xlink"><defs /><path d="M0 2 L9 0 L11 0 L17 1 L22 2 L24 3 L29 5 L38 8 L43 9 L45 9 L49 12 L57 16 L69 21 L71 21 L78 25 L98 33 L101 34 L104 35 L117 41 L119 45 L121 46 L133 53 L138 55 L141 57 L144 60 L151 65 L157 66 L161 67 L162 67 L181 70 L185 71 L186 71 L208 78 L216 83 L217 83 L220 85 L225 88 L236 94 L243 99 L248 101 L258 107 L262 110 L264 112 L268 114 L269 115 L271 117 L272 117 L274 119 L274 120 L277 123 L281 125 L285 128 L289 129 L291 131 L297 132 L301 133 L305 133 L311 133 L315 135 L319 135 L323 135 L327 135 L329 135 L332 135 L336 136 L337 136 L339 137 L341 137 L343 137 L345 138 L349 139 L350 139 L353 139 L374 130 L375 130 L376 130 L380 129 L381 129 L382 129 L383 129 L385 129 L385 130 L386 132 " fill="none" stroke="black" /></svg>