<?xml version="1.0" encoding="utf-8" ?>
<svg baseProfile="tiny" height="135" version="1.2" viewBox="-3 -3 229 135" width="229" xmlns="http://www.w3.org/2000/svg" xmlns:ev="http://www.w3.org/2001/xml-events" xmlns:xlink="http://www.w3.org/1999/xlink"><defs /><path d="M0 135 L1 135 L3 135 L5 134 L6 134 L7 134 L7 133 L7 132 L10 130 L11 128 L14 125 L31 111 L33 109 L34 107 L35 107 L37 105 L38 105 L38 104 L40 102 L45 99 L48 99 L50 99 L53 99 L55 99 L57 99 L58 99 L59 99 L61 99 L63 99 L67 99 L69 99 L73 99 L74 99 L78 99 L83 99 L85 99 L87 99 L90 99 L93 99 L96 99 L97 99 L107 98 L116 95 L119 94 L121 94 L122 94 L124 92 L125 92 L126 91 L128 90 L131 87 L139 81 L144 78 L146 77 L151 74 L152 73 L160 66 L167 62 L168 62 L171 59 L173 58 L174 58 L176 56 L177 54 L179 51 L180 50 L183 47 L185 46 L197 34 L204 27 L212 18 L218 12 L218 11 L219 11 L219 10 L227 3 L229 0 " fill="none" stroke="black" /></svg>