<?xml version="1.0" encoding="utf-8" ?>
<svg baseProfile="tiny" height="86" version="1.2" viewBox="-3 -3 97 86" width="97" xmlns="http://www.w3.org/2000/svg" xmlns:ev="http://www.w3.org/2001/xml-events" xmlns:xlink="http://www.w3.org/1999/xlink"><defs /><path d="M11 45 L14 45 L26 47 L29 48 L30 49 L30 52 L31 67 L30 70 L30 71 " fill="none" stroke="black" /><path d="M11 45 L14 45 L26 47 L29 48 L30 49 L30 52 L31 67 L30 70 L30 71 M24 30 L25 33 L26 37 L27 39 L33 43 L35 46 L40 48 L41 49 L43 49 L43 50 L43 51 L44 51 L45 52 L50 62 L50 66 L50 69 " fill="none" stroke="black" /><path d="M11 45 L14 45 L26 47 L29 48 L30 49 L30 52 L31 67 L30 70 L30 71 M24 30 L25 33 L26 37 L27 39 L33 43 L35 46 L40 48 L41 49 L43 49 L43 50 L43 51 L44 51 L45 52 L50 62 L50 66 L50 69 M48 21 L52 25 L58 35 L59 39 L63 46 L63 50 L66 52 L66 56 L66 57 L67 58 L72 63 L74 67 " fill="none" stroke="black" /><path d="M11 45 L14 45 L26 47 L29 48 L30 49 L30 52 L31 67 L30 70 L30 71 M24 30 L25 33 L26 37 L27 39 L33 43 L35 46 L40 48 L41 49 L43 49 L43 50 L43 51 L44 51 L45 52 L50 62 L50 66 L50 69 M48 21 L52 25 L58 35 L59 39 L63 46 L63 50 L66 52 L66 56 L66 57 L67 58 L72 63 L74 67 M0 58 L2 60 L4 61 L6 63 L8 64 L10 66 L13 68 L14 71 L14 72 L14 75 L14 79 L14 83 L14 86 " fill="none" stroke="black" /><path d="M11 45 L14 45 L26 47 L29 48 L30 49 L30 52 L31 67 L30 70 L30 71 M24 30 L25 33 L26 37 L27 39 L33 43 L35 46 L40 48 L41 49 L43 49 L43 50 L43 51 L44 51 L45 52 L50 62 L50 66 L50 69 M48 21 L52 25 L58 35 L59 39 L63 46 L63 50 L66 52 L66 56 L66 57 L67 58 L72 63 L74 67 M0 58 L2 60 L4 61 L6 63 L8 64 L10 66 L13 68 L14 71 L14 72 L14 75 L14 79 L14 83 L14 86 M46 0 L56 14 L58 19 L59 23 L63 27 L70 37 L79 50 L81 54 L81 55 L86 59 L89 59 L90 61 L92 61 L92 62 L93 62 L94 63 L97 63 " fill="none" stroke="black" /></svg>