<?xml version="1.0" encoding="utf-8" ?>
<svg baseProfile="tiny" height="81" version="1.2" viewBox="-3 -3 235 81" width="235" xmlns="http://www.w3.org/2000/svg" xmlns:ev="http://www.w3.org/2001/xml-events" xmlns:xlink="http://www.w3.org/1999/xlink"><defs /><path d="M0 8 L1 7 L1 6 L3 3 L5 2 L8 0 L11 0 L11 2 L13 3 L15 4 L17 5 L19 6 L20 6 L20 7 L23 7 L24 7 L28 8 L32 9 L33 10 L35 10 L36 10 L38 10 L40 10 L42 11 L43 12 L45 12 L47 13 L48 14 L50 15 L51 15 L52 15 L53 15 L53 16 L55 16 L58 18 L60 19 L64 20 L66 21 L67 21 L68 23 L70 23 L71 23 L72 24 L75 25 L77 25 L79 27 L81 27 L82 27 L83 28 L85 30 L87 30 L90 31 L95 35 L97 35 L98 35 L100 36 L101 37 L103 37 L103 38 L103 39 L106 39 L108 40 L112 41 L115 41 L119 42 L121 42 L123 42 L125 42 L132 43 L134 44 L135 44 L136 45 L137 47 L138 47 L139 48 L143 49 L148 51 L153 54 L155 54 L158 55 L161 56 L162 56 L163 56 L164 57 L167 58 L169 59 L172 61 L175 62 L175 63 L178 63 L180 66 L187 67 L191 69 L193 71 L195 71 L197 71 L204 73 L209 74 L210 74 L211 74 L214 75 L218 75 L221 76 L222 76 L223 76 L224 77 L225 78 L228 79 L230 79 L231 81 L235 81 " fill="none" stroke="black" /></svg>