<?xml version="1.0" encoding="utf-8" ?>
<svg baseProfile="tiny" height="181" version="1.2" viewBox="-3 -3 278 181" width="278" xmlns="http://www.w3.org/2000/svg" xmlns:ev="http://www.w3.org/2001/xml-events" xmlns:xlink="http://www.w3.org/1999/xlink"><defs /><path d="M77 45 L78 48 L78 49 L80 51 L83 54 L107 69 L121 74 L122 75 L123 75 L125 75 L130 75 L140 70 L158 65 L181 59 L190 56 L195 52 L212 46 L226 43 L243 47 L252 50 L255 52 L257 54 L262 64 L267 80 L268 91 L270 97 L274 107 L274 111 L275 115 L278 126 L278 130 L278 137 L275 146 L273 149 L251 163 L245 167 L238 172 L216 179 L207 179 L194 180 L170 181 L149 181 L125 181 L110 181 L99 181 L74 179 L65 179 L51 172 L46 169 L43 167 L27 153 L22 150 L20 148 L9 126 L7 118 L7 117 L4 103 L1 91 L1 87 L1 77 L0 67 L0 65 L13 70 L33 80 L54 92 L67 101 L79 114 L80 115 L82 119 L82 126 L88 133 L95 140 L104 147 L144 158 L164 162 L179 162 L197 159 L201 159 L203 157 L210 149 L211 142 L214 117 L214 108 L211 98 L207 88 L206 88 L204 85 L202 84 L199 84 L194 86 L189 88 L176 95 L162 103 L154 107 L144 113 L138 113 L134 113 L130 111 L122 105 L118 100 L116 95 L98 78 L90 73 L86 71 L79 68 L70 63 L66 61 L60 59 L50 54 L45 54 L42 54 L38 50 L32 41 L28 35 L26 30 L24 27 L21 22 L18 20 L16 19 L16 16 L16 14 L33 8 L35 8 L42 6 L66 0 L69 0 L70 0 L79 0 L86 1 L87 2 L102 9 L103 10 L104 11 L106 13 L107 14 L109 17 L125 27 L130 30 L132 31 L137 31 L139 31 L140 31 L141 31 L144 31 L151 31 L158 31 L161 31 L166 31 L167 31 L168 31 " fill="none" stroke="black" /></svg>