<?xml version="1.0" encoding="utf-8" ?>
<svg baseProfile="tiny" height="212" version="1.2" viewBox="-3 -3 285 212" width="285" xmlns="http://www.w3.org/2000/svg" xmlns:ev="http://www.w3.org/2001/xml-events" xmlns:xlink="http://www.w3.org/1999/xlink"><defs /><path d="M0 0 L1 0 L6 1 L11 2 L14 2 L17 3 L20 4 L22 4 L25 5 L28 7 L40 8 L46 10 L52 11 L57 14 L61 16 L68 21 L75 25 L81 29 L83 32 L86 34 L90 38 L98 42 L105 48 L115 52 L122 56 L131 60 L141 65 L150 72 L162 78 L169 84 L175 88 L178 91 L186 96 L191 100 L194 103 L197 106 L201 108 L208 112 L212 115 L217 121 L230 133 L234 137 L238 144 L248 154 L253 164 L255 168 L255 169 L258 172 L262 176 L263 178 L266 183 L274 194 L279 203 L279 206 L280 208 L283 211 L285 212 " fill="none" stroke="black" /></svg>