<?xml version="1.0" encoding="utf-8" ?>
<svg baseProfile="tiny" height="56" version="1.2" viewBox="-3 -3 101 56" width="101" xmlns="http://www.w3.org/2000/svg" xmlns:ev="http://www.w3.org/2001/xml-events" xmlns:xlink="http://www.w3.org/1999/xlink"><defs /><path d="M11 0 L10 2 L7 21 L7 33 L7 38 L6 41 L3 48 L2 51 L0 52 " fill="none" stroke="black" /><path d="M11 0 L10 2 L7 21 L7 33 L7 38 L6 41 L3 48 L2 51 L0 52 M42 7 L41 13 L38 21 L36 28 L34 32 L32 39 L31 42 L30 43 L30 44 " fill="none" stroke="black" /><path d="M11 0 L10 2 L7 21 L7 33 L7 38 L6 41 L3 48 L2 51 L0 52 M42 7 L41 13 L38 21 L36 28 L34 32 L32 39 L31 42 L30 43 L30 44 M79 23 L78 24 L72 28 L66 34 L62 37 L59 41 L56 42 L55 42 " fill="none" stroke="black" /><path d="M11 0 L10 2 L7 21 L7 33 L7 38 L6 41 L3 48 L2 51 L0 52 M42 7 L41 13 L38 21 L36 28 L34 32 L32 39 L31 42 L30 43 L30 44 M79 23 L78 24 L72 28 L66 34 L62 37 L59 41 L56 42 L55 42 M101 41 L100 45 L98 47 L94 50 L91 53 L89 53 L87 53 L85 55 L82 56 " fill="none" stroke="black" /></svg>