<?xml version="1.0" encoding="utf-8" ?>
<svg baseProfile="tiny" height="255" version="1.2" viewBox="-3 -3 240 255" width="240" xmlns="http://www.w3.org/2000/svg" xmlns:ev="http://www.w3.org/2001/xml-events" xmlns:xlink="http://www.w3.org/1999/xlink"><defs /><path d="M0 243 L5 243 L9 243 L13 243 L15 243 L16 243 L19 243 L20 243 L21 243 L23 243 L25 243 L28 244 L35 244 L39 244 L40 245 L41 245 L43 245 L45 245 L47 246 L49 246 L51 247 L52 247 L53 247 L56 248 L59 250 L64 251 L71 251 L76 251 L80 251 L83 252 L87 252 L88 252 L89 252 L92 252 L95 252 L97 252 L100 252 L102 253 L105 253 L112 253 L119 254 L120 254 L124 255 L125 255 L127 255 L130 255 L132 255 L135 255 L138 255 L144 255 L148 255 L149 255 L152 255 L156 255 L157 255 L159 255 L161 254 L162 254 L163 254 L164 254 L167 254 L168 254 L172 254 L176 254 L184 254 L199 251 L200 251 L201 251 L207 251 L209 251 L212 251 L213 251 L215 251 L216 251 L217 251 L221 251 L224 251 L232 251 L234 251 L236 251 L238 251 L239 251 L240 251 " fill="none" stroke="black" /><path d="M0 243 L5 243 L9 243 L13 243 L15 243 L16 243 L19 243 L20 243 L21 243 L23 243 L25 243 L28 244 L35 244 L39 244 L40 245 L41 245 L43 245 L45 245 L47 246 L49 246 L51 247 L52 247 L53 247 L56 248 L59 250 L64 251 L71 251 L76 251 L80 251 L83 252 L87 252 L88 252 L89 252 L92 252 L95 252 L97 252 L100 252 L102 253 L105 253 L112 253 L119 254 L120 254 L124 255 L125 255 L127 255 L130 255 L132 255 L135 255 L138 255 L144 255 L148 255 L149 255 L152 255 L156 255 L157 255 L159 255 L161 254 L162 254 L163 254 L164 254 L167 254 L168 254 L172 254 L176 254 L184 254 L199 251 L200 251 L201 251 L207 251 L209 251 L212 251 L213 251 L215 251 L216 251 L217 251 L221 251 L224 251 L232 251 L234 251 L236 251 L238 251 L239 251 L240 251 M124 11 L122 10 L112 3 L105 0 " fill="none" stroke="black" /></svg>