<?xml version="1.0" encoding="utf-8" ?>
<svg baseProfile="tiny" height="341" version="1.2" viewBox="-3 -3 351 341" width="351" xmlns="http://www.w3.org/2000/svg" xmlns:ev="http://www.w3.org/2001/xml-events" xmlns:xlink="http://www.w3.org/1999/xlink"><defs /><path d="M119 135 L120 132 L124 128 L126 128 L129 125 L133 124 L139 124 L147 124 L153 128 L158 130 L163 136 L169 144 L172 150 L172 155 L172 159 L169 164 L164 166 L160 166 L154 167 L146 167 L139 167 L134 166 L132 164 L129 161 L124 157 L122 151 L120 145 L120 143 L120 138 L120 134 L120 132 L122 131 L122 130 L123 130 " fill="none" stroke="black" /><path d="M119 135 L120 132 L124 128 L126 128 L129 125 L133 124 L139 124 L147 124 L153 128 L158 130 L163 136 L169 144 L172 150 L172 155 L172 159 L169 164 L164 166 L160 166 L154 167 L146 167 L139 167 L134 166 L132 164 L129 161 L124 157 L122 151 L120 145 L120 143 L120 138 L120 134 L120 132 L122 131 L122 130 L123 130 M89 100 L94 95 L106 87 L119 82 L132 77 L144 75 L159 74 L170 74 L187 80 L203 89 L219 103 L239 127 L247 143 L250 161 L250 175 L243 198 L232 215 L214 230 L198 239 L175 244 L155 244 L136 244 L119 239 L106 230 L89 219 L74 201 L70 190 L66 178 L66 167 L68 152 L70 142 L73 132 L78 124 L81 118 L88 109 L93 103 L95 98 L99 97 L105 93 L108 90 L109 89 " fill="none" stroke="black" /><path d="M119 135 L120 132 L124 128 L126 128 L129 125 L133 124 L139 124 L147 124 L153 128 L158 130 L163 136 L169 144 L172 150 L172 155 L172 159 L169 164 L164 166 L160 166 L154 167 L146 167 L139 167 L134 166 L132 164 L129 161 L124 157 L122 151 L120 145 L120 143 L120 138 L120 134 L120 132 L122 131 L122 130 L123 130 M89 100 L94 95 L106 87 L119 82 L132 77 L144 75 L159 74 L170 74 L187 80 L203 89 L219 103 L239 127 L247 143 L250 161 L250 175 L243 198 L232 215 L214 230 L198 239 L175 244 L155 244 L136 244 L119 239 L106 230 L89 219 L74 201 L70 190 L66 178 L66 167 L68 152 L70 142 L73 132 L78 124 L81 118 L88 109 L93 103 L95 98 L99 97 L105 93 L108 90 L109 89 M43 58 L47 51 L53 43 L69 32 L88 22 L107 13 L129 3 L147 0 L160 0 L169 0 L197 9 L229 25 L272 53 L302 76 L323 95 L336 114 L347 138 L350 155 L351 173 L350 197 L339 228 L322 258 L300 282 L273 306 L243 326 L216 334 L184 341 L153 341 L111 336 L66 323 L50 316 L34 304 L23 290 L13 264 L5 242 L3 223 L0 196 L0 178 L4 155 L11 130 L17 113 L24 99 L35 83 L46 73 L54 65 L63 58 L72 50 L79 44 L86 38 L88 37 L89 35 L89 34 " fill="none" stroke="black" /></svg>