<?xml version="1.0" encoding="utf-8" ?>
<svg baseProfile="tiny" height="507" version="1.2" viewBox="-3 -3 650 507" width="650" xmlns="http://www.w3.org/2000/svg" xmlns:ev="http://www.w3.org/2001/xml-events" xmlns:xlink="http://www.w3.org/1999/xlink"><defs /><path d="M157 291 L157 290 L157 288 L158 287 L158 285 L158 284 L159 284 L159 283 L160 282 L161 281 L162 281 L163 280 L164 279 L164 278 L165 278 L166 278 L167 277 L169 277 L172 277 L174 279 L174 280 L175 282 L178 283 L179 286 L180 288 L180 290 L180 292 L180 294 L180 297 L180 300 L179 302 L179 303 L177 304 L176 305 L174 306 L172 306 L169 306 L168 306 L168 305 L163 304 L161 303 L159 303 " fill="none" stroke="black" /><path d="M157 291 L157 290 L157 288 L158 287 L158 285 L158 284 L159 284 L159 283 L160 282 L161 281 L162 281 L163 280 L164 279 L164 278 L165 278 L166 278 L167 277 L169 277 L172 277 L174 279 L174 280 L175 282 L178 283 L179 286 L180 288 L180 290 L180 292 L180 294 L180 297 L180 300 L179 302 L179 303 L177 304 L176 305 L174 306 L172 306 L169 306 L168 306 L168 305 L163 304 L161 303 L159 303 M84 232 L94 212 L112 184 L123 170 L138 152 L154 136 L169 127 L182 124 L199 122 L214 122 L236 122 L255 124 L274 126 L289 127 L306 130 L323 133 L343 142 L362 153 L384 172 L400 184 L406 192 L413 202 L418 213 L424 224 L425 232 L426 240 L426 246 L426 250 L424 254 L419 258 L415 263 L410 267 L403 273 L396 281 L389 288 L384 295 L377 303 L367 312 L359 322 L349 332 L342 337 L336 343 L325 351 L316 357 L303 362 L290 369 L273 377 L258 384 L239 392 L217 399 L201 404 L185 405 L159 405 L139 403 L130 401 L124 398 L119 391 L109 377 L107 369 L107 368 L107 367 L108 366 " fill="none" stroke="black" /><path d="M157 291 L157 290 L157 288 L158 287 L158 285 L158 284 L159 284 L159 283 L160 282 L161 281 L162 281 L163 280 L164 279 L164 278 L165 278 L166 278 L167 277 L169 277 L172 277 L174 279 L174 280 L175 282 L178 283 L179 286 L180 288 L180 290 L180 292 L180 294 L180 297 L180 300 L179 302 L179 303 L177 304 L176 305 L174 306 L172 306 L169 306 L168 306 L168 305 L163 304 L161 303 L159 303 M84 232 L94 212 L112 184 L123 170 L138 152 L154 136 L169 127 L182 124 L199 122 L214 122 L236 122 L255 124 L274 126 L289 127 L306 130 L323 133 L343 142 L362 153 L384 172 L400 184 L406 192 L413 202 L418 213 L424 224 L425 232 L426 240 L426 246 L426 250 L424 254 L419 258 L415 263 L410 267 L403 273 L396 281 L389 288 L384 295 L377 303 L367 312 L359 322 L349 332 L342 337 L336 343 L325 351 L316 357 L303 362 L290 369 L273 377 L258 384 L239 392 L217 399 L201 404 L185 405 L159 405 L139 403 L130 401 L124 398 L119 391 L109 377 L107 369 L107 368 L107 367 L108 366 M0 122 L14 106 L28 95 L47 79 L75 65 L112 49 L145 37 L186 26 L228 17 L261 12 L307 3 L357 0 L393 0 L434 7 L474 17 L535 37 L569 54 L590 75 L623 118 L639 152 L645 177 L649 219 L650 257 L648 294 L639 338 L624 377 L609 407 L577 434 L523 471 L488 487 L455 493 L384 502 L349 504 L322 507 L294 507 L272 506 L257 505 L245 502 L232 496 L230 493 L228 487 " fill="none" stroke="black" /></svg>