<?xml version="1.0" encoding="utf-8" ?>
<svg baseProfile="tiny" height="646" version="1.2" viewBox="-3 -3 782 646" width="782" xmlns="http://www.w3.org/2000/svg" xmlns:ev="http://www.w3.org/2001/xml-events" xmlns:xlink="http://www.w3.org/1999/xlink"><defs /><path d="M276 282 L271 274 L271 273 L271 272 L270 264 L270 246 L273 236 L277 227 L281 216 L284 208 L288 203 L290 199 L292 196 L297 193 L303 191 L307 191 L311 190 L322 189 L326 189 L331 190 L337 194 L340 197 L342 200 L344 208 L346 216 L346 225 L346 230 L346 231 L346 232 " fill="none" stroke="black" /><path d="M276 282 L271 274 L271 273 L271 272 L270 264 L270 246 L273 236 L277 227 L281 216 L284 208 L288 203 L290 199 L292 196 L297 193 L303 191 L307 191 L311 190 L322 189 L326 189 L331 190 L337 194 L340 197 L342 200 L344 208 L346 216 L346 225 L346 230 L346 231 L346 232 M515 303 L513 303 L502 296 L487 282 L474 261 L473 251 L480 241 L491 231 L509 226 L522 226 L532 228 L536 233 L542 241 L543 246 L542 246 L540 246 L537 248 L536 251 " fill="none" stroke="black" /><path d="M276 282 L271 274 L271 273 L271 272 L270 264 L270 246 L273 236 L277 227 L281 216 L284 208 L288 203 L290 199 L292 196 L297 193 L303 191 L307 191 L311 190 L322 189 L326 189 L331 190 L337 194 L340 197 L342 200 L344 208 L346 216 L346 225 L346 230 L346 231 L346 232 M515 303 L513 303 L502 296 L487 282 L474 261 L473 251 L480 241 L491 231 L509 226 L522 226 L532 228 L536 233 L542 241 L543 246 L542 246 L540 246 L537 248 L536 251 M421 428 L403 422 L390 413 L384 405 L381 390 L381 376 L382 368 L385 364 L386 364 L387 362 L391 360 L397 359 L402 358 L414 358 L432 361 L443 364 L444 364 L445 366 L446 367 L447 368 " fill="none" stroke="black" /><path d="M276 282 L271 274 L271 273 L271 272 L270 264 L270 246 L273 236 L277 227 L281 216 L284 208 L288 203 L290 199 L292 196 L297 193 L303 191 L307 191 L311 190 L322 189 L326 189 L331 190 L337 194 L340 197 L342 200 L344 208 L346 216 L346 225 L346 230 L346 231 L346 232 M515 303 L513 303 L502 296 L487 282 L474 261 L473 251 L480 241 L491 231 L509 226 L522 226 L532 228 L536 233 L542 241 L543 246 L542 246 L540 246 L537 248 L536 251 M421 428 L403 422 L390 413 L384 405 L381 390 L381 376 L382 368 L385 364 L386 364 L387 362 L391 360 L397 359 L402 358 L414 358 L432 361 L443 364 L444 364 L445 366 L446 367 L447 368 M456 506 L440 511 L414 516 L362 532 L335 534 L303 530 L272 523 L238 507 L193 465 L163 425 L150 398 L138 361 L122 297 L118 249 L118 219 L123 195 L137 166 L152 144 L172 125 L207 97 L266 67 L317 51 L362 37 L417 28 L445 27 L466 32 L486 45 L502 64 L503 72 L503 84 L497 96 L495 98 " fill="none" stroke="black" /><path d="M276 282 L271 274 L271 273 L271 272 L270 264 L270 246 L273 236 L277 227 L281 216 L284 208 L288 203 L290 199 L292 196 L297 193 L303 191 L307 191 L311 190 L322 189 L326 189 L331 190 L337 194 L340 197 L342 200 L344 208 L346 216 L346 225 L346 230 L346 231 L346 232 M515 303 L513 303 L502 296 L487 282 L474 261 L473 251 L480 241 L491 231 L509 226 L522 226 L532 228 L536 233 L542 241 L543 246 L542 246 L540 246 L537 248 L536 251 M421 428 L403 422 L390 413 L384 405 L381 390 L381 376 L382 368 L385 364 L386 364 L387 362 L391 360 L397 359 L402 358 L414 358 L432 361 L443 364 L444 364 L445 366 L446 367 L447 368 M456 506 L440 511 L414 516 L362 532 L335 534 L303 530 L272 523 L238 507 L193 465 L163 425 L150 398 L138 361 L122 297 L118 249 L118 219 L123 195 L137 166 L152 144 L172 125 L207 97 L266 67 L317 51 L362 37 L417 28 L445 27 L466 32 L486 45 L502 64 L503 72 L503 84 L497 96 L495 98 M591 275 L602 263 L619 256 L624 256 L629 257 L638 269 L642 276 L642 286 L642 293 L637 300 L633 301 " fill="none" stroke="black" /><path d="M276 282 L271 274 L271 273 L271 272 L270 264 L270 246 L273 236 L277 227 L281 216 L284 208 L288 203 L290 199 L292 196 L297 193 L303 191 L307 191 L311 190 L322 189 L326 189 L331 190 L337 194 L340 197 L342 200 L344 208 L346 216 L346 225 L346 230 L346 231 L346 232 M515 303 L513 303 L502 296 L487 282 L474 261 L473 251 L480 241 L491 231 L509 226 L522 226 L532 228 L536 233 L542 241 L543 246 L542 246 L540 246 L537 248 L536 251 M421 428 L403 422 L390 413 L384 405 L381 390 L381 376 L382 368 L385 364 L386 364 L387 362 L391 360 L397 359 L402 358 L414 358 L432 361 L443 364 L444 364 L445 366 L446 367 L447 368 M456 506 L440 511 L414 516 L362 532 L335 534 L303 530 L272 523 L238 507 L193 465 L163 425 L150 398 L138 361 L122 297 L118 249 L118 219 L123 195 L137 166 L152 144 L172 125 L207 97 L266 67 L317 51 L362 37 L417 28 L445 27 L466 32 L486 45 L502 64 L503 72 L503 84 L497 96 L495 98 M591 275 L602 263 L619 256 L624 256 L629 257 L638 269 L642 276 L642 286 L642 293 L637 300 L633 301 M585 0 L624 10 L666 29 L695 56 L734 103 L767 173 L780 256 L782 352 L771 431 L752 506 L731 566 L717 591 L698 611 L672 627 L628 641 L587 644 L540 646 L467 646 L426 641 L382 627 L335 612 L317 606 L292 588 L246 551 L232 541 L225 536 L211 527 L189 517 L173 508 L147 492 L103 467 L68 444 L44 416 L21 380 L2 333 L0 291 L7 236 L28 186 L57 149 " fill="none" stroke="black" /></svg>