<?xml version="1.0" encoding="utf-8" ?>
<svg baseProfile="tiny" height="605" version="1.2" viewBox="-3 -3 653 605" width="653" xmlns="http://www.w3.org/2000/svg" xmlns:ev="http://www.w3.org/2001/xml-events" xmlns:xlink="http://www.w3.org/1999/xlink"><defs /><path d="M0 152 L2 146 L42 71 L71 20 L83 0 L93 21 L120 78 L141 111 " fill="none" stroke="black" /><path d="M0 152 L2 146 L42 71 L71 20 L83 0 L93 21 L120 78 L141 111 M265 125 L282 95 L317 55 L340 35 L342 34 L343 39 L359 80 L372 113 L390 141 " fill="none" stroke="black" /><path d="M0 152 L2 146 L42 71 L71 20 L83 0 L93 21 L120 78 L141 111 M265 125 L282 95 L317 55 L340 35 L342 34 L343 39 L359 80 L372 113 L390 141 M470 277 L497 254 L547 218 L622 179 L635 175 L636 178 L647 240 L650 298 L652 328 L653 332 " fill="none" stroke="black" /><path d="M0 152 L2 146 L42 71 L71 20 L83 0 L93 21 L120 78 L141 111 M265 125 L282 95 L317 55 L340 35 L342 34 L343 39 L359 80 L372 113 L390 141 M470 277 L497 254 L547 218 L622 179 L635 175 L636 178 L647 240 L650 298 L652 328 L653 332 M95 399 L110 344 L136 271 L149 247 L150 247 L151 250 L168 312 L191 395 L212 445 L216 450 " fill="none" stroke="black" /><path d="M0 152 L2 146 L42 71 L71 20 L83 0 L93 21 L120 78 L141 111 M265 125 L282 95 L317 55 L340 35 L342 34 L343 39 L359 80 L372 113 L390 141 M470 277 L497 254 L547 218 L622 179 L635 175 L636 178 L647 240 L650 298 L652 328 L653 332 M95 399 L110 344 L136 271 L149 247 L150 247 L151 250 L168 312 L191 395 L212 445 L216 450 M360 490 L362 539 L367 577 L377 603 L379 605 L391 593 L459 498 L492 455 " fill="none" stroke="black" /></svg>