<?xml version="1.0" encoding="utf-8" ?>
<svg baseProfile="tiny" height="661" version="1.2" viewBox="-3 -3 435 661" width="435" xmlns="http://www.w3.org/2000/svg" xmlns:ev="http://www.w3.org/2001/xml-events" xmlns:xlink="http://www.w3.org/1999/xlink"><defs /><circle cx="30" cy="661" fill="black" r="1" /><path d="M29 659 L28 659 L25 659 L22 660 L20 660 L19 660 L16 660 L12 658 L11 657 L10 656 L9 654 L8 652 L8 650 L8 647 L8 645 L10 644 L10 642 L11 641 L13 638 L15 637 L16 636 L19 635 L20 632 L21 632 L22 630 " fill="none" stroke="black" /><path d="M29 659 L28 659 L25 659 L22 660 L20 660 L19 660 L16 660 L12 658 L11 657 L10 656 L9 654 L8 652 L8 650 L8 647 L8 645 L10 644 L10 642 L11 641 L13 638 L15 637 L16 636 L19 635 L20 632 L21 632 L22 630 M26 604 L24 599 L17 595 L11 590 L10 587 L9 586 L6 583 L5 582 L4 578 L3 576 L1 572 L1 569 L0 565 L0 560 L0 557 L0 550 L0 542 L0 537 L1 529 L3 523 L4 519 L5 516 L9 511 L10 508 L13 506 L15 504 L22 502 L24 502 L25 502 L29 501 L30 501 " fill="none" stroke="black" /><path d="M29 659 L28 659 L25 659 L22 660 L20 660 L19 660 L16 660 L12 658 L11 657 L10 656 L9 654 L8 652 L8 650 L8 647 L8 645 L10 644 L10 642 L11 641 L13 638 L15 637 L16 636 L19 635 L20 632 L21 632 L22 630 M26 604 L24 599 L17 595 L11 590 L10 587 L9 586 L6 583 L5 582 L4 578 L3 576 L1 572 L1 569 L0 565 L0 560 L0 557 L0 550 L0 542 L0 537 L1 529 L3 523 L4 519 L5 516 L9 511 L10 508 L13 506 L15 504 L22 502 L24 502 L25 502 L29 501 L30 501 M42 453 L38 449 L35 445 L31 441 L26 436 L23 430 L18 424 L15 418 L11 411 L8 402 L4 392 L2 385 L1 378 L0 368 L0 358 L1 348 L3 340 L5 331 L7 323 L10 317 L14 310 L17 305 L24 301 L31 293 L41 286 L51 279 L55 277 L58 276 L59 276 L60 276 L61 278 L65 283 L65 284 " fill="none" stroke="black" /><path d="M29 659 L28 659 L25 659 L22 660 L20 660 L19 660 L16 660 L12 658 L11 657 L10 656 L9 654 L8 652 L8 650 L8 647 L8 645 L10 644 L10 642 L11 641 L13 638 L15 637 L16 636 L19 635 L20 632 L21 632 L22 630 M26 604 L24 599 L17 595 L11 590 L10 587 L9 586 L6 583 L5 582 L4 578 L3 576 L1 572 L1 569 L0 565 L0 560 L0 557 L0 550 L0 542 L0 537 L1 529 L3 523 L4 519 L5 516 L9 511 L10 508 L13 506 L15 504 L22 502 L24 502 L25 502 L29 501 L30 501 M42 453 L38 449 L35 445 L31 441 L26 436 L23 430 L18 424 L15 418 L11 411 L8 402 L4 392 L2 385 L1 378 L0 368 L0 358 L1 348 L3 340 L5 331 L7 323 L10 317 L14 310 L17 305 L24 301 L31 293 L41 286 L51 279 L55 277 L58 276 L59 276 L60 276 L61 278 L65 283 L65 284 M132 254 L122 240 L119 232 L118 222 L117 210 L117 193 L120 174 L124 157 L130 142 L135 127 L142 109 L155 78 L166 55 L175 40 L182 29 L195 17 L207 8 L215 3 L220 1 L223 0 L231 0 L257 0 L281 1 L307 1 L339 2 L366 6 L377 7 L386 12 L396 21 L412 37 L420 47 L430 62 L434 68 L435 76 L435 87 L430 99 L424 112 L413 127 L405 134 L403 137 L401 137 L400 137 " fill="none" stroke="black" /></svg>