<?xml version="1.0" encoding="utf-8" ?>
<svg baseProfile="tiny" height="370" version="1.2" viewBox="-3 -3 429 370" width="429" xmlns="http://www.w3.org/2000/svg" xmlns:ev="http://www.w3.org/2001/xml-events" xmlns:xlink="http://www.w3.org/1999/xlink"><defs /><path d="M0 17 L3 43 L8 93 L10 121 L11 127 " fill="none" stroke="black" /><path d="M0 17 L3 43 L8 93 L10 121 L11 127 M46 0 L55 26 L73 85 L92 165 L96 179 L97 180 " fill="none" stroke="black" /><path d="M0 17 L3 43 L8 93 L10 121 L11 127 M46 0 L55 26 L73 85 L92 165 L96 179 L97 180 M140 43 L150 88 L171 205 L182 270 L185 283 L185 284 " fill="none" stroke="black" /><path d="M0 17 L3 43 L8 93 L10 121 L11 127 M46 0 L55 26 L73 85 L92 165 L96 179 L97 180 M140 43 L150 88 L171 205 L182 270 L185 283 L185 284 M301 73 L306 111 L315 205 L318 328 L319 364 L319 367 " fill="none" stroke="black" /><path d="M0 17 L3 43 L8 93 L10 121 L11 127 M46 0 L55 26 L73 85 L92 165 L96 179 L97 180 M140 43 L150 88 L171 205 L182 270 L185 283 L185 284 M301 73 L306 111 L315 205 L318 328 L319 364 L319 367 M406 96 L409 116 L418 186 L429 321 L429 366 L429 370 " fill="none" stroke="black" /></svg>