<?xml version="1.0" encoding="utf-8" ?>
<svg baseProfile="tiny" height="449" version="1.2" viewBox="-3 -3 1104 449" width="1104" xmlns="http://www.w3.org/2000/svg" xmlns:ev="http://www.w3.org/2001/xml-events" xmlns:xlink="http://www.w3.org/1999/xlink"><defs /><path d="M0 72 L37 72 L200 73 L350 74 L454 76 L534 79 L603 84 L613 84 L556 61 L399 19 L268 0 L267 0 " fill="none" stroke="black" /><path d="M0 72 L37 72 L200 73 L350 74 L454 76 L534 79 L603 84 L613 84 L556 61 L399 19 L268 0 L267 0 M30 226 L125 229 L239 226 L383 220 L531 212 L589 209 L633 209 L663 209 L687 209 L688 209 L683 206 L632 173 L594 146 " fill="none" stroke="black" /><path d="M0 72 L37 72 L200 73 L350 74 L454 76 L534 79 L603 84 L613 84 L556 61 L399 19 L268 0 L267 0 M30 226 L125 229 L239 226 L383 220 L531 212 L589 209 L633 209 L663 209 L687 209 L688 209 L683 206 L632 173 L594 146 M197 341 L248 341 L499 336 L681 326 L758 316 L788 316 L803 318 L824 319 L834 319 L831 317 L765 289 L731 280 L728 279 " fill="none" stroke="black" /><path d="M0 72 L37 72 L200 73 L350 74 L454 76 L534 79 L603 84 L613 84 L556 61 L399 19 L268 0 L267 0 M30 226 L125 229 L239 226 L383 220 L531 212 L589 209 L633 209 L663 209 L687 209 L688 209 L683 206 L632 173 L594 146 M197 341 L248 341 L499 336 L681 326 L758 316 L788 316 L803 318 L824 319 L834 319 L831 317 L765 289 L731 280 L728 279 M269 449 L388 435 L664 429 L883 425 L1002 423 L1079 424 L1103 426 L1104 426 L1089 415 L974 349 L913 325 L908 324 " fill="none" stroke="black" /></svg>