<?xml version="1.0" encoding="utf-8" ?>
<svg baseProfile="tiny" height="525" version="1.2" viewBox="-3 -3 741 525" width="741" xmlns="http://www.w3.org/2000/svg" xmlns:ev="http://www.w3.org/2001/xml-events" xmlns:xlink="http://www.w3.org/1999/xlink"><defs /><path d="M232 518 L230 518 L225 518 L221 518 L216 517 L210 517 L205 517 L200 515 L193 514 L176 509 L156 503 L142 496 L129 488 L107 474 L90 459 L77 447 L65 434 L53 417 L43 400 L32 379 L25 360 L20 343 L14 325 L10 311 L7 297 L5 287 L4 276 L2 268 L1 259 L0 252 L0 243 L0 235 L2 223 L4 211 L6 199 L10 189 L14 175 L20 160 L23 149 L28 139 L35 123 L40 113 L48 100 L55 89 L62 80 L70 69 L76 61 L85 52 L90 44 L97 37 L105 31 L111 26 L122 20 L136 14 L150 9 L165 5 L186 0 L199 0 L209 0 L220 4 L232 10 L243 18 L247 23 L251 28 L255 35 L257 44 L257 52 L257 54 L257 57 L255 59 L252 64 L249 66 L247 69 " fill="none" stroke="black" /><path d="M232 518 L230 518 L225 518 L221 518 L216 517 L210 517 L205 517 L200 515 L193 514 L176 509 L156 503 L142 496 L129 488 L107 474 L90 459 L77 447 L65 434 L53 417 L43 400 L32 379 L25 360 L20 343 L14 325 L10 311 L7 297 L5 287 L4 276 L2 268 L1 259 L0 252 L0 243 L0 235 L2 223 L4 211 L6 199 L10 189 L14 175 L20 160 L23 149 L28 139 L35 123 L40 113 L48 100 L55 89 L62 80 L70 69 L76 61 L85 52 L90 44 L97 37 L105 31 L111 26 L122 20 L136 14 L150 9 L165 5 L186 0 L199 0 L209 0 L220 4 L232 10 L243 18 L247 23 L251 28 L255 35 L257 44 L257 52 L257 54 L257 57 L255 59 L252 64 L249 66 L247 69 M433 525 L432 525 L424 517 L415 509 L411 505 L406 502 L404 498 L402 497 L400 495 L400 494 L399 492 L396 489 L395 486 L395 483 L393 479 L393 476 L392 472 L391 468 L390 464 L389 454 L388 445 L386 437 L385 426 L385 416 L385 397 L385 379 L388 359 L390 345 L395 329 L404 302 L411 274 L419 249 L430 217 L437 193 L445 169 L456 139 L466 119 L477 99 L489 81 L505 65 L521 53 L536 44 L553 38 L585 30 L606 29 L629 29 L652 31 L680 46 L705 66 L721 87 L732 110 L739 138 L741 164 L739 181 L730 198 L715 214 L695 222 L676 225 L665 227 L661 227 L659 227 L656 226 L652 224 L651 223 " fill="none" stroke="black" /></svg>