<?xml version="1.0" encoding="utf-8" ?>
<svg baseProfile="tiny" height="635" version="1.2" viewBox="-3 -3 917 635" width="917" xmlns="http://www.w3.org/2000/svg" xmlns:ev="http://www.w3.org/2001/xml-events" xmlns:xlink="http://www.w3.org/1999/xlink"><defs /><path d="M415 329 L415 324 L422 310 L442 296 L475 288 L494 291 L512 311 L527 336 L517 346 L471 349 L449 349 " fill="none" stroke="black" /><path d="M415 329 L415 324 L422 310 L442 296 L475 288 L494 291 L512 311 L527 336 L517 346 L471 349 L449 349 M392 177 L444 167 L557 162 L622 191 L654 258 L667 361 L629 439 L466 500 L291 479 L188 420 " fill="none" stroke="black" /><path d="M415 329 L415 324 L422 310 L442 296 L475 288 L494 291 L512 311 L527 336 L517 346 L471 349 L449 349 M392 177 L444 167 L557 162 L622 191 L654 258 L667 361 L629 439 L466 500 L291 479 L188 420 M317 76 L374 54 L490 30 L652 0 L730 17 L794 63 L897 190 L917 317 L877 440 L733 540 L551 577 L358 626 L212 635 L96 542 L27 450 L0 375 " fill="none" stroke="black" /></svg>