<?xml version="1.0" encoding="utf-8" ?>
<svg baseProfile="tiny" height="527" version="1.2" viewBox="-3 -3 1050 527" width="1050" xmlns="http://www.w3.org/2000/svg" xmlns:ev="http://www.w3.org/2001/xml-events" xmlns:xlink="http://www.w3.org/1999/xlink"><defs /><path d="M2 392 L1 381 L0 369 L1 357 L2 347 L4 341 L5 336 L7 333 L10 329 L12 326 L17 324 L30 320 L40 319 L55 316 L75 315 L91 315 L104 315 L111 317 L117 320 L122 325 L129 338 L135 356 L137 373 L138 395 L139 421 L140 436 L142 449 L151 464 L185 488 L223 507 L260 518 L296 514 L321 492 L348 471 L395 451 L419 441 L450 430 L502 409 L528 384 L546 346 L525 234 L498 185 L498 184 L498 181 L500 154 L499 125 L491 99 L466 64 L451 43 L444 25 L439 8 L439 4 L449 1 L467 1 L497 1 L521 1 L529 0 L530 0 " fill="none" stroke="black" /><path d="M2 392 L1 381 L0 369 L1 357 L2 347 L4 341 L5 336 L7 333 L10 329 L12 326 L17 324 L30 320 L40 319 L55 316 L75 315 L91 315 L104 315 L111 317 L117 320 L122 325 L129 338 L135 356 L137 373 L138 395 L139 421 L140 436 L142 449 L151 464 L185 488 L223 507 L260 518 L296 514 L321 492 L348 471 L395 451 L419 441 L450 430 L502 409 L528 384 L546 346 L525 234 L498 185 L498 184 L498 181 L500 154 L499 125 L491 99 L466 64 L451 43 L444 25 L439 8 L439 4 L449 1 L467 1 L497 1 L521 1 L529 0 L530 0 M380 393 L383 386 L390 376 L393 373 L397 371 L404 368 L411 363 L420 361 L431 358 L444 356 L460 356 L471 356 L480 357 L493 361 L502 369 L510 376 L516 389 L520 406 L520 422 L520 437 L518 451 L518 466 L518 479 L522 490 L525 494 L535 499 L583 514 L635 517 L675 520 L750 527 L785 521 L803 508 L815 490 L832 459 L841 440 L849 418 L855 399 L855 383 L850 361 L841 328 L835 292 L836 261 L845 220 L849 187 L844 171 L835 155 L826 133 L820 116 L818 104 L818 97 L823 82 L828 68 L839 51 L848 36 L850 31 L851 30 " fill="none" stroke="black" /><path d="M2 392 L1 381 L0 369 L1 357 L2 347 L4 341 L5 336 L7 333 L10 329 L12 326 L17 324 L30 320 L40 319 L55 316 L75 315 L91 315 L104 315 L111 317 L117 320 L122 325 L129 338 L135 356 L137 373 L138 395 L139 421 L140 436 L142 449 L151 464 L185 488 L223 507 L260 518 L296 514 L321 492 L348 471 L395 451 L419 441 L450 430 L502 409 L528 384 L546 346 L525 234 L498 185 L498 184 L498 181 L500 154 L499 125 L491 99 L466 64 L451 43 L444 25 L439 8 L439 4 L449 1 L467 1 L497 1 L521 1 L529 0 L530 0 M380 393 L383 386 L390 376 L393 373 L397 371 L404 368 L411 363 L420 361 L431 358 L444 356 L460 356 L471 356 L480 357 L493 361 L502 369 L510 376 L516 389 L520 406 L520 422 L520 437 L518 451 L518 466 L518 479 L522 490 L525 494 L535 499 L583 514 L635 517 L675 520 L750 527 L785 521 L803 508 L815 490 L832 459 L841 440 L849 418 L855 399 L855 383 L850 361 L841 328 L835 292 L836 261 L845 220 L849 187 L844 171 L835 155 L826 133 L820 116 L818 104 L818 97 L823 82 L828 68 L839 51 L848 36 L850 31 L851 30 M770 409 L776 407 L789 407 L809 411 L823 413 L830 416 L834 421 L839 430 L848 448 L853 460 L859 471 L867 482 L875 492 L891 503 L925 517 L966 524 L995 516 L1013 498 L1030 449 L1041 411 L1045 386 L1024 343 L1006 316 L997 291 L986 249 L990 212 L1009 186 L1030 166 L1045 151 L1049 147 L1050 146 " fill="none" stroke="black" /></svg>