<?xml version="1.0" encoding="utf-8" ?>
<svg baseProfile="tiny" height="234" version="1.2" viewBox="-3 -3 1093 234" width="1093" xmlns="http://www.w3.org/2000/svg" xmlns:ev="http://www.w3.org/2001/xml-events" xmlns:xlink="http://www.w3.org/1999/xlink"><defs /><path d="M270 68 L271 73 L272 80 L274 85 L276 88 L277 92 L279 97 L284 102 L289 107 L297 112 L309 118 L319 123 L337 130 L353 136 L369 140 L386 143 L399 146 L417 148 L439 150 L461 152 L489 157 L505 157 L521 157 L534 157 L549 157 L565 157 L586 157 L604 157 L619 157 L634 156 L658 154 L685 148 L702 143 L719 137 L733 130 L744 126 L754 122 L762 119 L768 116 L777 108 L784 100 L789 92 L790 84 L791 77 L791 72 L790 68 L789 65 " fill="none" stroke="black" /><path d="M270 68 L271 73 L272 80 L274 85 L276 88 L277 92 L279 97 L284 102 L289 107 L297 112 L309 118 L319 123 L337 130 L353 136 L369 140 L386 143 L399 146 L417 148 L439 150 L461 152 L489 157 L505 157 L521 157 L534 157 L549 157 L565 157 L586 157 L604 157 L619 157 L634 156 L658 154 L685 148 L702 143 L719 137 L733 130 L744 126 L754 122 L762 119 L768 116 L777 108 L784 100 L789 92 L790 84 L791 77 L791 72 L790 68 L789 65 M202 21 L196 32 L189 42 L181 55 L177 63 L173 74 L171 82 L171 94 L172 101 L177 108 L187 117 L204 127 L219 136 L244 146 L267 154 L284 158 L301 163 L318 167 L338 172 L347 172 L365 176 L383 177 L404 178 L427 180 L458 182 L480 183 L509 183 L540 183 L565 183 L596 183 L629 183 L670 183 L696 183 L727 183 L751 183 L774 183 L805 183 L845 178 L867 175 L885 172 L918 161 L940 151 L957 140 L974 123 L983 106 L984 81 L984 60 L977 35 L969 18 L966 13 L965 12 " fill="none" stroke="black" /><path d="M270 68 L271 73 L272 80 L274 85 L276 88 L277 92 L279 97 L284 102 L289 107 L297 112 L309 118 L319 123 L337 130 L353 136 L369 140 L386 143 L399 146 L417 148 L439 150 L461 152 L489 157 L505 157 L521 157 L534 157 L549 157 L565 157 L586 157 L604 157 L619 157 L634 156 L658 154 L685 148 L702 143 L719 137 L733 130 L744 126 L754 122 L762 119 L768 116 L777 108 L784 100 L789 92 L790 84 L791 77 L791 72 L790 68 L789 65 M202 21 L196 32 L189 42 L181 55 L177 63 L173 74 L171 82 L171 94 L172 101 L177 108 L187 117 L204 127 L219 136 L244 146 L267 154 L284 158 L301 163 L318 167 L338 172 L347 172 L365 176 L383 177 L404 178 L427 180 L458 182 L480 183 L509 183 L540 183 L565 183 L596 183 L629 183 L670 183 L696 183 L727 183 L751 183 L774 183 L805 183 L845 178 L867 175 L885 172 L918 161 L940 151 L957 140 L974 123 L983 106 L984 81 L984 60 L977 35 L969 18 L966 13 L965 12 M134 4 L122 7 L98 22 L74 42 L39 78 L11 125 L3 149 L0 162 L4 177 L19 191 L49 204 L103 217 L178 226 L228 232 L277 233 L324 233 L363 234 L401 234 L443 233 L480 232 L511 231 L553 230 L585 230 L624 230 L656 230 L709 231 L754 231 L794 227 L839 218 L876 210 L909 205 L944 202 L984 202 L1020 201 L1045 200 L1053 197 L1068 191 L1081 185 L1092 173 L1093 157 L1087 134 L1064 93 L1038 52 L1023 27 L1018 16 L1014 7 L1013 2 L1012 0 " fill="none" stroke="black" /></svg>