<?xml version="1.0" encoding="utf-8" ?>
<svg baseProfile="tiny" height="445" version="1.2" viewBox="-3 -3 592 445" width="592" xmlns="http://www.w3.org/2000/svg" xmlns:ev="http://www.w3.org/2001/xml-events" xmlns:xlink="http://www.w3.org/1999/xlink"><defs /><path d="M182 381 L172 383 L143 380 L105 365 L93 355 L85 333 L86 328 L109 329 L123 331 " fill="none" stroke="black" /><path d="M182 381 L172 383 L143 380 L105 365 L93 355 L85 333 L86 328 L109 329 L123 331 M0 99 L30 102 L81 113 L126 135 L186 228 L213 296 L208 299 L160 261 L116 219 " fill="none" stroke="black" /><path d="M182 381 L172 383 L143 380 L105 365 L93 355 L85 333 L86 328 L109 329 L123 331 M0 99 L30 102 L81 113 L126 135 L186 228 L213 296 L208 299 L160 261 L116 219 M266 104 L273 111 L310 152 L346 195 L366 234 L363 236 L355 236 L341 231 " fill="none" stroke="black" /><path d="M182 381 L172 383 L143 380 L105 365 L93 355 L85 333 L86 328 L109 329 L123 331 M0 99 L30 102 L81 113 L126 135 L186 228 L213 296 L208 299 L160 261 L116 219 M266 104 L273 111 L310 152 L346 195 L366 234 L363 236 L355 236 L341 231 M257 10 L351 0 L452 1 L530 31 L575 94 L592 131 L591 136 L574 140 L548 140 L531 140 L529 140 " fill="none" stroke="black" /><path d="M182 381 L172 383 L143 380 L105 365 L93 355 L85 333 L86 328 L109 329 L123 331 M0 99 L30 102 L81 113 L126 135 L186 228 L213 296 L208 299 L160 261 L116 219 M266 104 L273 111 L310 152 L346 195 L366 234 L363 236 L355 236 L341 231 M257 10 L351 0 L452 1 L530 31 L575 94 L592 131 L591 136 L574 140 L548 140 L531 140 L529 140 M426 198 L460 213 L523 269 L537 311 L531 362 L499 413 L461 438 L443 445 " fill="none" stroke="black" /><path d="M182 381 L172 383 L143 380 L105 365 L93 355 L85 333 L86 328 L109 329 L123 331 M0 99 L30 102 L81 113 L126 135 L186 228 L213 296 L208 299 L160 261 L116 219 M266 104 L273 111 L310 152 L346 195 L366 234 L363 236 L355 236 L341 231 M257 10 L351 0 L452 1 L530 31 L575 94 L592 131 L591 136 L574 140 L548 140 L531 140 L529 140 M426 198 L460 213 L523 269 L537 311 L531 362 L499 413 L461 438 L443 445 M156 14 L170 16 L197 102 L203 220 L201 233 " fill="none" stroke="black" /></svg>