<?xml version="1.0" encoding="utf-8" ?>
<svg baseProfile="tiny" height="350" version="1.2" viewBox="-3 -3 665 350" width="665" xmlns="http://www.w3.org/2000/svg" xmlns:ev="http://www.w3.org/2001/xml-events" xmlns:xlink="http://www.w3.org/1999/xlink"><defs /><path d="M0 30 L1 26 L18 0 " fill="none" stroke="black" /><path d="M0 30 L1 26 L18 0 M124 50 L113 45 L106 43 L246 76 L320 92 L320 94 L314 95 L314 88 L316 87 L328 96 " fill="none" stroke="black" /><path d="M0 30 L1 26 L18 0 M124 50 L113 45 L106 43 L246 76 L320 92 L320 94 L314 95 L314 88 L316 87 L328 96 M456 28 L465 29 L532 40 L574 62 L578 78 L578 90 L578 93 " fill="none" stroke="black" /><path d="M0 30 L1 26 L18 0 M124 50 L113 45 L106 43 L246 76 L320 92 L320 94 L314 95 L314 88 L316 87 L328 96 M456 28 L465 29 L532 40 L574 62 L578 78 L578 90 L578 93 M620 208 L620 211 L646 236 L665 264 L661 271 L639 272 L634 272 " fill="none" stroke="black" /><path d="M0 30 L1 26 L18 0 M124 50 L113 45 L106 43 L246 76 L320 92 L320 94 L314 95 L314 88 L316 87 L328 96 M456 28 L465 29 L532 40 L574 62 L578 78 L578 90 L578 93 M620 208 L620 211 L646 236 L665 264 L661 271 L639 272 L634 272 M540 261 L520 301 L499 333 L480 348 L449 350 L434 346 " fill="none" stroke="black" /><path d="M0 30 L1 26 L18 0 M124 50 L113 45 L106 43 L246 76 L320 92 L320 94 L314 95 L314 88 L316 87 L328 96 M456 28 L465 29 L532 40 L574 62 L578 78 L578 90 L578 93 M620 208 L620 211 L646 236 L665 264 L661 271 L639 272 L634 272 M540 261 L520 301 L499 333 L480 348 L449 350 L434 346 M216 248 L210 248 L164 265 L145 288 L143 297 " fill="none" stroke="black" /><path d="M0 30 L1 26 L18 0 M124 50 L113 45 L106 43 L246 76 L320 92 L320 94 L314 95 L314 88 L316 87 L328 96 M456 28 L465 29 L532 40 L574 62 L578 78 L578 90 L578 93 M620 208 L620 211 L646 236 L665 264 L661 271 L639 272 L634 272 M540 261 L520 301 L499 333 L480 348 L449 350 L434 346 M216 248 L210 248 L164 265 L145 288 L143 297 M42 158 L39 181 L39 205 L40 213 L45 216 " fill="none" stroke="black" /><path d="M0 30 L1 26 L18 0 M124 50 L113 45 L106 43 L246 76 L320 92 L320 94 L314 95 L314 88 L316 87 L328 96 M456 28 L465 29 L532 40 L574 62 L578 78 L578 90 L578 93 M620 208 L620 211 L646 236 L665 264 L661 271 L639 272 L634 272 M540 261 L520 301 L499 333 L480 348 L449 350 L434 346 M216 248 L210 248 L164 265 L145 288 L143 297 M42 158 L39 181 L39 205 L40 213 L45 216 M306 170 L316 203 L327 236 L321 252 L302 255 " fill="none" stroke="black" /></svg>