<?xml version="1.0" encoding="utf-8" ?>
<svg baseProfile="tiny" height="624" version="1.2" viewBox="-3 -3 1018 624" width="1018" xmlns="http://www.w3.org/2000/svg" xmlns:ev="http://www.w3.org/2001/xml-events" xmlns:xlink="http://www.w3.org/1999/xlink"><defs /><path d="M127 621 L124 622 L121 623 L117 623 L113 624 L105 624 L102 624 L98 624 L96 624 L92 624 L87 622 L84 619 L78 617 L70 611 L62 605 L57 602 L54 599 L52 598 L52 596 L51 595 L50 595 L49 593 L47 590 L45 588 L42 582 L39 574 L37 566 L35 554 L31 539 L28 527 L24 513 L18 493 L14 480 L11 463 L4 430 L1 394 L0 364 L0 339 L3 309 L11 274 L20 244 L29 214 L45 169 L57 140 L74 106 L89 80 L106 59 L119 45 L145 33 L182 26 L222 23 L262 23 L319 24 L360 30 L396 39 L439 58 L474 86 L501 115 L512 137 L515 172 L511 207 L502 235 L493 250 L479 267 L463 282 L441 294 L421 299 L401 306 L380 308 L376 308 " fill="none" stroke="black" /><path d="M127 621 L124 622 L121 623 L117 623 L113 624 L105 624 L102 624 L98 624 L96 624 L92 624 L87 622 L84 619 L78 617 L70 611 L62 605 L57 602 L54 599 L52 598 L52 596 L51 595 L50 595 L49 593 L47 590 L45 588 L42 582 L39 574 L37 566 L35 554 L31 539 L28 527 L24 513 L18 493 L14 480 L11 463 L4 430 L1 394 L0 364 L0 339 L3 309 L11 274 L20 244 L29 214 L45 169 L57 140 L74 106 L89 80 L106 59 L119 45 L145 33 L182 26 L222 23 L262 23 L319 24 L360 30 L396 39 L439 58 L474 86 L501 115 L512 137 L515 172 L511 207 L502 235 L493 250 L479 267 L463 282 L441 294 L421 299 L401 306 L380 308 L376 308 M762 538 L759 538 L757 539 L752 539 L750 539 L747 539 L742 539 L737 539 L732 539 L729 539 L727 538 L723 537 L721 534 L719 534 L713 529 L706 521 L702 516 L697 509 L692 502 L687 496 L683 489 L679 482 L675 473 L669 462 L661 446 L655 434 L648 419 L637 400 L626 375 L618 354 L611 331 L606 300 L605 259 L605 221 L609 189 L621 154 L634 124 L647 99 L679 59 L703 36 L732 19 L764 9 L792 4 L825 0 L861 0 L902 5 L925 10 L950 20 L977 41 L1003 66 L1015 81 L1018 95 L1018 111 L1013 135 L991 169 L972 186 L955 200 L937 215 L931 220 " fill="none" stroke="black" /></svg>