<?xml version="1.0" encoding="utf-8" ?>
<svg baseProfile="tiny" height="118" version="1.2" viewBox="-3 -3 396 118" width="396" xmlns="http://www.w3.org/2000/svg" xmlns:ev="http://www.w3.org/2001/xml-events" xmlns:xlink="http://www.w3.org/1999/xlink"><defs /><path d="M28 109 L24 113 L17 118 L14 118 L9 115 L0 103 " fill="none" stroke="black" /><path d="M28 109 L24 113 L17 118 L14 118 L9 115 L0 103 M79 101 L78 103 L75 103 L70 103 L68 103 L66 98 " fill="none" stroke="black" /><path d="M28 109 L24 113 L17 118 L14 118 L9 115 L0 103 M79 101 L78 103 L75 103 L70 103 L68 103 L66 98 M170 95 L170 103 L165 106 L160 107 L157 107 L153 107 L151 107 " fill="none" stroke="black" /><path d="M28 109 L24 113 L17 118 L14 118 L9 115 L0 103 M79 101 L78 103 L75 103 L70 103 L68 103 L66 98 M170 95 L170 103 L165 106 L160 107 L157 107 L153 107 L151 107 M214 82 L209 98 L207 100 L206 100 L205 100 " fill="none" stroke="black" /><path d="M28 109 L24 113 L17 118 L14 118 L9 115 L0 103 M79 101 L78 103 L75 103 L70 103 L68 103 L66 98 M170 95 L170 103 L165 106 L160 107 L157 107 L153 107 L151 107 M214 82 L209 98 L207 100 L206 100 L205 100 M290 85 L288 94 L280 105 L270 109 L268 109 L267 109 L265 109 " fill="none" stroke="black" /><path d="M28 109 L24 113 L17 118 L14 118 L9 115 L0 103 M79 101 L78 103 L75 103 L70 103 L68 103 L66 98 M170 95 L170 103 L165 106 L160 107 L157 107 L153 107 L151 107 M214 82 L209 98 L207 100 L206 100 L205 100 M290 85 L288 94 L280 105 L270 109 L268 109 L267 109 L265 109 M354 83 L353 96 L346 105 L337 113 L335 113 L333 113 " fill="none" stroke="black" /><path d="M28 109 L24 113 L17 118 L14 118 L9 115 L0 103 M79 101 L78 103 L75 103 L70 103 L68 103 L66 98 M170 95 L170 103 L165 106 L160 107 L157 107 L153 107 L151 107 M214 82 L209 98 L207 100 L206 100 L205 100 M290 85 L288 94 L280 105 L270 109 L268 109 L267 109 L265 109 M354 83 L353 96 L346 105 L337 113 L335 113 L333 113 M396 93 L390 100 L384 103 L379 106 L373 107 L372 108 " fill="none" stroke="black" /><path d="M28 109 L24 113 L17 118 L14 118 L9 115 L0 103 M79 101 L78 103 L75 103 L70 103 L68 103 L66 98 M170 95 L170 103 L165 106 L160 107 L157 107 L153 107 L151 107 M214 82 L209 98 L207 100 L206 100 L205 100 M290 85 L288 94 L280 105 L270 109 L268 109 L267 109 L265 109 M354 83 L353 96 L346 105 L337 113 L335 113 L333 113 M396 93 L390 100 L384 103 L379 106 L373 107 L372 108 M353 16 L350 18 L331 30 L305 37 L275 37 L274 37 " fill="none" stroke="black" /><path d="M28 109 L24 113 L17 118 L14 118 L9 115 L0 103 M79 101 L78 103 L75 103 L70 103 L68 103 L66 98 M170 95 L170 103 L165 106 L160 107 L157 107 L153 107 L151 107 M214 82 L209 98 L207 100 L206 100 L205 100 M290 85 L288 94 L280 105 L270 109 L268 109 L267 109 L265 109 M354 83 L353 96 L346 105 L337 113 L335 113 L333 113 M396 93 L390 100 L384 103 L379 106 L373 107 L372 108 M353 16 L350 18 L331 30 L305 37 L275 37 L274 37 M200 8 L196 8 L189 13 L179 18 L161 18 L141 14 L140 13 L139 10 " fill="none" stroke="black" /><path d="M28 109 L24 113 L17 118 L14 118 L9 115 L0 103 M79 101 L78 103 L75 103 L70 103 L68 103 L66 98 M170 95 L170 103 L165 106 L160 107 L157 107 L153 107 L151 107 M214 82 L209 98 L207 100 L206 100 L205 100 M290 85 L288 94 L280 105 L270 109 L268 109 L267 109 L265 109 M354 83 L353 96 L346 105 L337 113 L335 113 L333 113 M396 93 L390 100 L384 103 L379 106 L373 107 L372 108 M353 16 L350 18 L331 30 L305 37 L275 37 L274 37 M200 8 L196 8 L189 13 L179 18 L161 18 L141 14 L140 13 L139 10 M85 0 L77 5 L57 9 L44 10 L37 8 " fill="none" stroke="black" /></svg>