<?xml version="1.0" encoding="utf-8" ?>
<svg baseProfile="tiny" height="538" version="1.2" viewBox="-3 -3 749 538" width="749" xmlns="http://www.w3.org/2000/svg" xmlns:ev="http://www.w3.org/2001/xml-events" xmlns:xlink="http://www.w3.org/1999/xlink"><defs /><path d="M40 82 L40 80 L40 76 L40 71 L44 62 L48 54 L53 46 L55 42 L65 34 L70 28 L79 23 L93 17 L102 13 L112 9 L127 7 L142 3 L160 1 L189 0 L220 0 L242 0 L263 3 L290 12 L307 22 L320 32 L332 49 L344 70 L346 86 L346 107 L337 128 L323 152 L308 172 L280 203 L264 217 L237 230 L203 240 L174 243 L149 241 L119 232 L99 220 L82 205 L71 188 L59 165 L56 161 " fill="none" stroke="black" /><path d="M40 82 L40 80 L40 76 L40 71 L44 62 L48 54 L53 46 L55 42 L65 34 L70 28 L79 23 L93 17 L102 13 L112 9 L127 7 L142 3 L160 1 L189 0 L220 0 L242 0 L263 3 L290 12 L307 22 L320 32 L332 49 L344 70 L346 86 L346 107 L337 128 L323 152 L308 172 L280 203 L264 217 L237 230 L203 240 L174 243 L149 241 L119 232 L99 220 L82 205 L71 188 L59 165 L56 161 M465 151 L471 137 L490 118 L515 101 L555 86 L600 79 L624 79 L650 85 L677 96 L709 126 L743 182 L749 220 L740 257 L713 284 L680 306 L630 333 L610 339 L602 339 L599 341 " fill="none" stroke="black" /><path d="M40 82 L40 80 L40 76 L40 71 L44 62 L48 54 L53 46 L55 42 L65 34 L70 28 L79 23 L93 17 L102 13 L112 9 L127 7 L142 3 L160 1 L189 0 L220 0 L242 0 L263 3 L290 12 L307 22 L320 32 L332 49 L344 70 L346 86 L346 107 L337 128 L323 152 L308 172 L280 203 L264 217 L237 230 L203 240 L174 243 L149 241 L119 232 L99 220 L82 205 L71 188 L59 165 L56 161 M465 151 L471 137 L490 118 L515 101 L555 86 L600 79 L624 79 L650 85 L677 96 L709 126 L743 182 L749 220 L740 257 L713 284 L680 306 L630 333 L610 339 L602 339 L599 341 M369 371 L368 390 L361 407 L343 431 L275 478 L201 518 L124 534 L59 538 L32 528 L13 501 L0 448 L1 370 L18 331 L29 321 L37 316 " fill="none" stroke="black" /></svg>