<?xml version="1.0" encoding="utf-8" ?>
<svg baseProfile="tiny" height="516" version="1.2" viewBox="-3 -3 993 516" width="993" xmlns="http://www.w3.org/2000/svg" xmlns:ev="http://www.w3.org/2001/xml-events" xmlns:xlink="http://www.w3.org/1999/xlink"><defs /><path d="M529 317 L525 317 L500 306 L481 288 L475 228 L484 213 " fill="none" stroke="black" /><path d="M529 317 L525 317 L500 306 L481 288 L475 228 L484 213 M677 134 L728 235 L733 258 L725 261 " fill="none" stroke="black" /><path d="M529 317 L525 317 L500 306 L481 288 L475 228 L484 213 M677 134 L728 235 L733 258 L725 261 M554 144 L553 146 L550 146 L500 84 " fill="none" stroke="black" /><path d="M529 317 L525 317 L500 306 L481 288 L475 228 L484 213 M677 134 L728 235 L733 258 L725 261 M554 144 L553 146 L550 146 L500 84 M470 103 L469 268 L469 353 L470 353 L523 358 L579 359 L642 339 " fill="none" stroke="black" /><path d="M529 317 L525 317 L500 306 L481 288 L475 228 L484 213 M677 134 L728 235 L733 258 L725 261 M554 144 L553 146 L550 146 L500 84 M470 103 L469 268 L469 353 L470 353 L523 358 L579 359 L642 339 M721 241 L695 283 L647 319 " fill="none" stroke="black" /><path d="M529 317 L525 317 L500 306 L481 288 L475 228 L484 213 M677 134 L728 235 L733 258 L725 261 M554 144 L553 146 L550 146 L500 84 M470 103 L469 268 L469 353 L470 353 L523 358 L579 359 L642 339 M721 241 L695 283 L647 319 M504 361 L502 363 L495 367 " fill="none" stroke="black" /><path d="M529 317 L525 317 L500 306 L481 288 L475 228 L484 213 M677 134 L728 235 L733 258 L725 261 M554 144 L553 146 L550 146 L500 84 M470 103 L469 268 L469 353 L470 353 L523 358 L579 359 L642 339 M721 241 L695 283 L647 319 M504 361 L502 363 L495 367 M102 501 L67 479 " fill="none" stroke="black" /><path d="M529 317 L525 317 L500 306 L481 288 L475 228 L484 213 M677 134 L728 235 L733 258 L725 261 M554 144 L553 146 L550 146 L500 84 M470 103 L469 268 L469 353 L470 353 L523 358 L579 359 L642 339 M721 241 L695 283 L647 319 M504 361 L502 363 L495 367 M102 501 L67 479 M0 413 L26 388 L282 266 L455 220 L492 224 L509 238 " fill="none" stroke="black" /><path d="M529 317 L525 317 L500 306 L481 288 L475 228 L484 213 M677 134 L728 235 L733 258 L725 261 M554 144 L553 146 L550 146 L500 84 M470 103 L469 268 L469 353 L470 353 L523 358 L579 359 L642 339 M721 241 L695 283 L647 319 M504 361 L502 363 L495 367 M102 501 L67 479 M0 413 L26 388 L282 266 L455 220 L492 224 L509 238 M652 279 L685 295 " fill="none" stroke="black" /><path d="M529 317 L525 317 L500 306 L481 288 L475 228 L484 213 M677 134 L728 235 L733 258 L725 261 M554 144 L553 146 L550 146 L500 84 M470 103 L469 268 L469 353 L470 353 L523 358 L579 359 L642 339 M721 241 L695 283 L647 319 M504 361 L502 363 L495 367 M102 501 L67 479 M0 413 L26 388 L282 266 L455 220 L492 224 L509 238 M652 279 L685 295 M573 156 L572 156 L566 163 L540 238 L528 360 " fill="none" stroke="black" /><path d="M529 317 L525 317 L500 306 L481 288 L475 228 L484 213 M677 134 L728 235 L733 258 L725 261 M554 144 L553 146 L550 146 L500 84 M470 103 L469 268 L469 353 L470 353 L523 358 L579 359 L642 339 M721 241 L695 283 L647 319 M504 361 L502 363 L495 367 M102 501 L67 479 M0 413 L26 388 L282 266 L455 220 L492 224 L509 238 M652 279 L685 295 M573 156 L572 156 L566 163 L540 238 L528 360 M609 460 L609 462 L602 463 L538 458 L445 443 " fill="none" stroke="black" /><path d="M529 317 L525 317 L500 306 L481 288 L475 228 L484 213 M677 134 L728 235 L733 258 L725 261 M554 144 L553 146 L550 146 L500 84 M470 103 L469 268 L469 353 L470 353 L523 358 L579 359 L642 339 M721 241 L695 283 L647 319 M504 361 L502 363 L495 367 M102 501 L67 479 M0 413 L26 388 L282 266 L455 220 L492 224 L509 238 M652 279 L685 295 M573 156 L572 156 L566 163 L540 238 L528 360 M609 460 L609 462 L602 463 L538 458 L445 443 M647 256 L658 254 L717 258 L909 251 L985 242 L993 238 " fill="none" stroke="black" /><path d="M529 317 L525 317 L500 306 L481 288 L475 228 L484 213 M677 134 L728 235 L733 258 L725 261 M554 144 L553 146 L550 146 L500 84 M470 103 L469 268 L469 353 L470 353 L523 358 L579 359 L642 339 M721 241 L695 283 L647 319 M504 361 L502 363 L495 367 M102 501 L67 479 M0 413 L26 388 L282 266 L455 220 L492 224 L509 238 M652 279 L685 295 M573 156 L572 156 L566 163 L540 238 L528 360 M609 460 L609 462 L602 463 L538 458 L445 443 M647 256 L658 254 L717 258 L909 251 L985 242 L993 238 M720 221 L643 268 L639 270 " fill="none" stroke="black" /><path d="M529 317 L525 317 L500 306 L481 288 L475 228 L484 213 M677 134 L728 235 L733 258 L725 261 M554 144 L553 146 L550 146 L500 84 M470 103 L469 268 L469 353 L470 353 L523 358 L579 359 L642 339 M721 241 L695 283 L647 319 M504 361 L502 363 L495 367 M102 501 L67 479 M0 413 L26 388 L282 266 L455 220 L492 224 L509 238 M652 279 L685 295 M573 156 L572 156 L566 163 L540 238 L528 360 M609 460 L609 462 L602 463 L538 458 L445 443 M647 256 L658 254 L717 258 L909 251 L985 242 L993 238 M720 221 L643 268 L639 270 M568 89 L600 63 L677 9 " fill="none" stroke="black" /><path d="M529 317 L525 317 L500 306 L481 288 L475 228 L484 213 M677 134 L728 235 L733 258 L725 261 M554 144 L553 146 L550 146 L500 84 M470 103 L469 268 L469 353 L470 353 L523 358 L579 359 L642 339 M721 241 L695 283 L647 319 M504 361 L502 363 L495 367 M102 501 L67 479 M0 413 L26 388 L282 266 L455 220 L492 224 L509 238 M652 279 L685 295 M573 156 L572 156 L566 163 L540 238 L528 360 M609 460 L609 462 L602 463 L538 458 L445 443 M647 256 L658 254 L717 258 L909 251 L985 242 L993 238 M720 221 L643 268 L639 270 M568 89 L600 63 L677 9 M722 0 L672 138 L585 309 L533 451 " fill="none" stroke="black" /><path d="M529 317 L525 317 L500 306 L481 288 L475 228 L484 213 M677 134 L728 235 L733 258 L725 261 M554 144 L553 146 L550 146 L500 84 M470 103 L469 268 L469 353 L470 353 L523 358 L579 359 L642 339 M721 241 L695 283 L647 319 M504 361 L502 363 L495 367 M102 501 L67 479 M0 413 L26 388 L282 266 L455 220 L492 224 L509 238 M652 279 L685 295 M573 156 L572 156 L566 163 L540 238 L528 360 M609 460 L609 462 L602 463 L538 458 L445 443 M647 256 L658 254 L717 258 L909 251 L985 242 L993 238 M720 221 L643 268 L639 270 M568 89 L600 63 L677 9 M722 0 L672 138 L585 309 L533 451 M658 516 L666 516 L759 513 L899 459 " fill="none" stroke="black" /><path d="M529 317 L525 317 L500 306 L481 288 L475 228 L484 213 M677 134 L728 235 L733 258 L725 261 M554 144 L553 146 L550 146 L500 84 M470 103 L469 268 L469 353 L470 353 L523 358 L579 359 L642 339 M721 241 L695 283 L647 319 M504 361 L502 363 L495 367 M102 501 L67 479 M0 413 L26 388 L282 266 L455 220 L492 224 L509 238 M652 279 L685 295 M573 156 L572 156 L566 163 L540 238 L528 360 M609 460 L609 462 L602 463 L538 458 L445 443 M647 256 L658 254 L717 258 L909 251 L985 242 L993 238 M720 221 L643 268 L639 270 M568 89 L600 63 L677 9 M722 0 L672 138 L585 309 L533 451 M658 516 L666 516 L759 513 L899 459 M969 388 L933 397 L804 423 L662 429 " fill="none" stroke="black" /><path d="M529 317 L525 317 L500 306 L481 288 L475 228 L484 213 M677 134 L728 235 L733 258 L725 261 M554 144 L553 146 L550 146 L500 84 M470 103 L469 268 L469 353 L470 353 L523 358 L579 359 L642 339 M721 241 L695 283 L647 319 M504 361 L502 363 L495 367 M102 501 L67 479 M0 413 L26 388 L282 266 L455 220 L492 224 L509 238 M652 279 L685 295 M573 156 L572 156 L566 163 L540 238 L528 360 M609 460 L609 462 L602 463 L538 458 L445 443 M647 256 L658 254 L717 258 L909 251 L985 242 L993 238 M720 221 L643 268 L639 270 M568 89 L600 63 L677 9 M722 0 L672 138 L585 309 L533 451 M658 516 L666 516 L759 513 L899 459 M969 388 L933 397 L804 423 L662 429 M712 295 L807 253 " fill="none" stroke="black" /></svg>