<?xml version="1.0" encoding="utf-8" ?>
<svg baseProfile="tiny" height="493" version="1.2" viewBox="-3 -3 961 493" width="961" xmlns="http://www.w3.org/2000/svg" xmlns:ev="http://www.w3.org/2001/xml-events" xmlns:xlink="http://www.w3.org/1999/xlink"><defs /><path d="M0 462 L4 457 L5 454 L6 453 L10 450 L12 448 L14 446 L16 443 L19 442 L21 441 L21 439 L24 437 L26 433 L31 429 L33 423 L37 417 L42 411 L44 407 L45 402 L46 401 L46 393 L46 383 L44 374 L41 361 L37 348 L35 338 L31 325 L28 311 L25 295 L25 273 L26 248 L33 212 L47 180 L75 135 L104 102 L146 67 L216 35 L258 19 L296 12 L355 4 L422 1 L462 3 L491 21 L526 61 L536 95 L531 124 L511 161 L500 174 L498 176 " fill="none" stroke="black" /><path d="M0 462 L4 457 L5 454 L6 453 L10 450 L12 448 L14 446 L16 443 L19 442 L21 441 L21 439 L24 437 L26 433 L31 429 L33 423 L37 417 L42 411 L44 407 L45 402 L46 401 L46 393 L46 383 L44 374 L41 361 L37 348 L35 338 L31 325 L28 311 L25 295 L25 273 L26 248 L33 212 L47 180 L75 135 L104 102 L146 67 L216 35 L258 19 L296 12 L355 4 L422 1 L462 3 L491 21 L526 61 L536 95 L531 124 L511 161 L500 174 L498 176 M323 493 L326 492 L335 487 L347 478 L361 470 L373 463 L385 455 L392 451 L398 447 L402 447 L407 443 L414 439 L420 434 L425 427 L427 421 L430 413 L430 406 L431 401 L431 393 L432 387 L432 382 L432 376 L432 367 L431 359 L430 352 L427 340 L426 326 L425 313 L425 300 L425 261 L427 228 L435 197 L451 148 L471 120 L509 86 L552 59 L623 27 L711 3 L779 0 L824 1 L856 15 L905 64 L955 146 L961 215 L950 283 L919 336 L887 368 L858 387 L841 390 L818 386 L816 386 " fill="none" stroke="black" /></svg>