<?xml version="1.0" encoding="utf-8" ?>
<svg baseProfile="tiny" height="241" version="1.2" viewBox="-3 -3 357 241" width="357" xmlns="http://www.w3.org/2000/svg" xmlns:ev="http://www.w3.org/2001/xml-events" xmlns:xlink="http://www.w3.org/1999/xlink"><defs /><circle cx="0" cy="16" fill="black" r="1" /><circle cx="73" cy="8" fill="black" r="1" /><circle cx="103" cy="3" fill="black" r="1" /><path d="M151 0 L168 2 " fill="none" stroke="black" /><circle cx="266" cy="6" fill="black" r="1" /><circle cx="293" cy="11" fill="black" r="1" /><circle cx="333" cy="30" fill="black" r="1" /><circle cx="353" cy="52" fill="black" r="1" /><path d="M151 0 L168 2 M350 75 L350 76 L348 81 " fill="none" stroke="black" /><path d="M151 0 L168 2 M350 75 L350 76 L348 81 M340 109 L338 118 " fill="none" stroke="black" /><path d="M151 0 L168 2 M350 75 L350 76 L348 81 M340 109 L338 118 M325 136 L322 141 " fill="none" stroke="black" /><path d="M151 0 L168 2 M350 75 L350 76 L348 81 M340 109 L338 118 M325 136 L322 141 M304 162 L300 166 " fill="none" stroke="black" /><circle cx="268" cy="189" fill="black" r="1" /><path d="M151 0 L168 2 M350 75 L350 76 L348 81 M340 109 L338 118 M325 136 L322 141 M304 162 L300 166 M234 199 L226 199 " fill="none" stroke="black" /><path d="M151 0 L168 2 M350 75 L350 76 L348 81 M340 109 L338 118 M325 136 L322 141 M304 162 L300 166 M234 199 L226 199 M195 199 L187 196 " fill="none" stroke="black" /><path d="M151 0 L168 2 M350 75 L350 76 L348 81 M340 109 L338 118 M325 136 L322 141 M304 162 L300 166 M234 199 L226 199 M195 199 L187 196 M138 182 L128 178 " fill="none" stroke="black" /><path d="M151 0 L168 2 M350 75 L350 76 L348 81 M340 109 L338 118 M325 136 L322 141 M304 162 L300 166 M234 199 L226 199 M195 199 L187 196 M138 182 L128 178 M98 158 L97 158 " fill="none" stroke="black" /><path d="M151 0 L168 2 M350 75 L350 76 L348 81 M340 109 L338 118 M325 136 L322 141 M304 162 L300 166 M234 199 L226 199 M195 199 L187 196 M138 182 L128 178 M98 158 L97 158 M94 117 L97 113 " fill="none" stroke="black" /><path d="M151 0 L168 2 M350 75 L350 76 L348 81 M340 109 L338 118 M325 136 L322 141 M304 162 L300 166 M234 199 L226 199 M195 199 L187 196 M138 182 L128 178 M98 158 L97 158 M94 117 L97 113 M128 86 L131 81 L138 78 " fill="none" stroke="black" /><path d="M151 0 L168 2 M350 75 L350 76 L348 81 M340 109 L338 118 M325 136 L322 141 M304 162 L300 166 M234 199 L226 199 M195 199 L187 196 M138 182 L128 178 M98 158 L97 158 M94 117 L97 113 M128 86 L131 81 L138 78 M179 55 L188 52 " fill="none" stroke="black" /><path d="M151 0 L168 2 M350 75 L350 76 L348 81 M340 109 L338 118 M325 136 L322 141 M304 162 L300 166 M234 199 L226 199 M195 199 L187 196 M138 182 L128 178 M98 158 L97 158 M94 117 L97 113 M128 86 L131 81 L138 78 M179 55 L188 52 M264 43 L277 48 " fill="none" stroke="black" /><path d="M151 0 L168 2 M350 75 L350 76 L348 81 M340 109 L338 118 M325 136 L322 141 M304 162 L300 166 M234 199 L226 199 M195 199 L187 196 M138 182 L128 178 M98 158 L97 158 M94 117 L97 113 M128 86 L131 81 L138 78 M179 55 L188 52 M264 43 L277 48 M327 66 L328 68 L331 79 " fill="none" stroke="black" /><path d="M151 0 L168 2 M350 75 L350 76 L348 81 M340 109 L338 118 M325 136 L322 141 M304 162 L300 166 M234 199 L226 199 M195 199 L187 196 M138 182 L128 178 M98 158 L97 158 M94 117 L97 113 M128 86 L131 81 L138 78 M179 55 L188 52 M264 43 L277 48 M327 66 L328 68 L331 79 M350 120 L353 131 L353 136 " fill="none" stroke="black" /><path d="M151 0 L168 2 M350 75 L350 76 L348 81 M340 109 L338 118 M325 136 L322 141 M304 162 L300 166 M234 199 L226 199 M195 199 L187 196 M138 182 L128 178 M98 158 L97 158 M94 117 L97 113 M128 86 L131 81 L138 78 M179 55 L188 52 M264 43 L277 48 M327 66 L328 68 L331 79 M350 120 L353 131 L353 136 M357 167 L355 173 L353 178 " fill="none" stroke="black" /><path d="M151 0 L168 2 M350 75 L350 76 L348 81 M340 109 L338 118 M325 136 L322 141 M304 162 L300 166 M234 199 L226 199 M195 199 L187 196 M138 182 L128 178 M98 158 L97 158 M94 117 L97 113 M128 86 L131 81 L138 78 M179 55 L188 52 M264 43 L277 48 M327 66 L328 68 L331 79 M350 120 L353 131 L353 136 M357 167 L355 173 L353 178 M318 223 L303 232 " fill="none" stroke="black" /><path d="M151 0 L168 2 M350 75 L350 76 L348 81 M340 109 L338 118 M325 136 L322 141 M304 162 L300 166 M234 199 L226 199 M195 199 L187 196 M138 182 L128 178 M98 158 L97 158 M94 117 L97 113 M128 86 L131 81 L138 78 M179 55 L188 52 M264 43 L277 48 M327 66 L328 68 L331 79 M350 120 L353 131 L353 136 M357 167 L355 173 L353 178 M318 223 L303 232 M227 240 L222 241 L215 241 " fill="none" stroke="black" /><path d="M151 0 L168 2 M350 75 L350 76 L348 81 M340 109 L338 118 M325 136 L322 141 M304 162 L300 166 M234 199 L226 199 M195 199 L187 196 M138 182 L128 178 M98 158 L97 158 M94 117 L97 113 M128 86 L131 81 L138 78 M179 55 L188 52 M264 43 L277 48 M327 66 L328 68 L331 79 M350 120 L353 131 L353 136 M357 167 L355 173 L353 178 M318 223 L303 232 M227 240 L222 241 L215 241 M183 236 L182 235 " fill="none" stroke="black" /><path d="M151 0 L168 2 M350 75 L350 76 L348 81 M340 109 L338 118 M325 136 L322 141 M304 162 L300 166 M234 199 L226 199 M195 199 L187 196 M138 182 L128 178 M98 158 L97 158 M94 117 L97 113 M128 86 L131 81 L138 78 M179 55 L188 52 M264 43 L277 48 M327 66 L328 68 L331 79 M350 120 L353 131 L353 136 M357 167 L355 173 L353 178 M318 223 L303 232 M227 240 L222 241 L215 241 M183 236 L182 235 M136 181 L136 176 L143 162 " fill="none" stroke="black" /><path d="M151 0 L168 2 M350 75 L350 76 L348 81 M340 109 L338 118 M325 136 L322 141 M304 162 L300 166 M234 199 L226 199 M195 199 L187 196 M138 182 L128 178 M98 158 L97 158 M94 117 L97 113 M128 86 L131 81 L138 78 M179 55 L188 52 M264 43 L277 48 M327 66 L328 68 L331 79 M350 120 L353 131 L353 136 M357 167 L355 173 L353 178 M318 223 L303 232 M227 240 L222 241 L215 241 M183 236 L182 235 M136 181 L136 176 L143 162 M168 135 L171 131 " fill="none" stroke="black" /><path d="M151 0 L168 2 M350 75 L350 76 L348 81 M340 109 L338 118 M325 136 L322 141 M304 162 L300 166 M234 199 L226 199 M195 199 L187 196 M138 182 L128 178 M98 158 L97 158 M94 117 L97 113 M128 86 L131 81 L138 78 M179 55 L188 52 M264 43 L277 48 M327 66 L328 68 L331 79 M350 120 L353 131 L353 136 M357 167 L355 173 L353 178 M318 223 L303 232 M227 240 L222 241 L215 241 M183 236 L182 235 M136 181 L136 176 L143 162 M168 135 L171 131 M226 108 L227 107 " fill="none" stroke="black" /></svg>