<?xml version="1.0" encoding="utf-8" ?>
<svg baseProfile="tiny" height="448" version="1.2" viewBox="-3 -3 584 448" width="584" xmlns="http://www.w3.org/2000/svg" xmlns:ev="http://www.w3.org/2001/xml-events" xmlns:xlink="http://www.w3.org/1999/xlink"><defs /><path d="M296 89 L300 80 L314 39 L327 0 " fill="none" stroke="black" /><path d="M296 89 L300 80 L314 39 L327 0 M350 84 L364 64 L405 21 " fill="none" stroke="black" /><path d="M296 89 L300 80 L314 39 L327 0 M350 84 L364 64 L405 21 M475 79 L517 40 " fill="none" stroke="black" /><path d="M296 89 L300 80 L314 39 L327 0 M350 84 L364 64 L405 21 M475 79 L517 40 M315 135 L234 121 L172 118 L163 118 " fill="none" stroke="black" /><path d="M296 89 L300 80 L314 39 L327 0 M350 84 L364 64 L405 21 M475 79 L517 40 M315 135 L234 121 L172 118 L163 118 M344 173 L364 152 L409 99 L424 78 " fill="none" stroke="black" /><path d="M296 89 L300 80 L314 39 L327 0 M350 84 L364 64 L405 21 M475 79 L517 40 M315 135 L234 121 L172 118 L163 118 M344 173 L364 152 L409 99 L424 78 M435 212 L499 253 L568 281 " fill="none" stroke="black" /><path d="M296 89 L300 80 L314 39 L327 0 M350 84 L364 64 L405 21 M475 79 L517 40 M315 135 L234 121 L172 118 L163 118 M344 173 L364 152 L409 99 L424 78 M435 212 L499 253 L568 281 M559 171 L563 167 L584 158 " fill="none" stroke="black" /><path d="M296 89 L300 80 L314 39 L327 0 M350 84 L364 64 L405 21 M475 79 L517 40 M315 135 L234 121 L172 118 L163 118 M344 173 L364 152 L409 99 L424 78 M435 212 L499 253 L568 281 M559 171 L563 167 L584 158 M553 108 L568 96 L570 93 " fill="none" stroke="black" /><path d="M296 89 L300 80 L314 39 L327 0 M350 84 L364 64 L405 21 M475 79 L517 40 M315 135 L234 121 L172 118 L163 118 M344 173 L364 152 L409 99 L424 78 M435 212 L499 253 L568 281 M559 171 L563 167 L584 158 M553 108 L568 96 L570 93 M487 132 L504 105 L540 64 " fill="none" stroke="black" /><circle cx="102" cy="55" fill="black" r="1" /><path d="M296 89 L300 80 L314 39 L327 0 M350 84 L364 64 L405 21 M475 79 L517 40 M315 135 L234 121 L172 118 L163 118 M344 173 L364 152 L409 99 L424 78 M435 212 L499 253 L568 281 M559 171 L563 167 L584 158 M553 108 L568 96 L570 93 M487 132 L504 105 L540 64 M264 223 L219 189 L44 84 " fill="none" stroke="black" /><path d="M296 89 L300 80 L314 39 L327 0 M350 84 L364 64 L405 21 M475 79 L517 40 M315 135 L234 121 L172 118 L163 118 M344 173 L364 152 L409 99 L424 78 M435 212 L499 253 L568 281 M559 171 L563 167 L584 158 M553 108 L568 96 L570 93 M487 132 L504 105 L540 64 M264 223 L219 189 L44 84 M40 244 L32 237 L0 207 " fill="none" stroke="black" /><path d="M296 89 L300 80 L314 39 L327 0 M350 84 L364 64 L405 21 M475 79 L517 40 M315 135 L234 121 L172 118 L163 118 M344 173 L364 152 L409 99 L424 78 M435 212 L499 253 L568 281 M559 171 L563 167 L584 158 M553 108 L568 96 L570 93 M487 132 L504 105 L540 64 M264 223 L219 189 L44 84 M40 244 L32 237 L0 207 M232 282 L212 313 L192 341 L186 357 " fill="none" stroke="black" /><path d="M296 89 L300 80 L314 39 L327 0 M350 84 L364 64 L405 21 M475 79 L517 40 M315 135 L234 121 L172 118 L163 118 M344 173 L364 152 L409 99 L424 78 M435 212 L499 253 L568 281 M559 171 L563 167 L584 158 M553 108 L568 96 L570 93 M487 132 L504 105 L540 64 M264 223 L219 189 L44 84 M40 244 L32 237 L0 207 M232 282 L212 313 L192 341 L186 357 M435 335 L435 339 L461 405 L494 448 " fill="none" stroke="black" /></svg>