<?xml version="1.0" encoding="utf-8" ?>
<svg baseProfile="tiny" height="53" version="1.2" viewBox="-3 -3 70 53" width="70" xmlns="http://www.w3.org/2000/svg" xmlns:ev="http://www.w3.org/2001/xml-events" xmlns:xlink="http://www.w3.org/1999/xlink"><defs /><path d="M41 31 L41 35 L41 39 L40 38 L34 33 L27 28 L23 26 L22 26 L22 29 L22 31 L21 31 L20 30 L18 29 L16 29 L15 30 L15 31 L14 27 L13 25 L12 24 L11 24 L10 26 L8 28 L4 29 L2 30 L0 30 L0 32 L1 36 L3 39 L8 41 L12 41 L16 42 L19 42 L23 41 L25 40 L26 38 L28 35 L31 31 L33 28 L34 24 L36 21 L36 18 L36 15 L36 12 L33 9 L30 6 L26 4 L22 4 L20 4 L18 6 L17 9 L17 14 L18 20 L22 26 L29 32 L38 37 L45 40 L51 40 L54 39 L56 37 L58 35 L60 31 L62 29 L62 26 L63 23 L63 21 L63 18 L63 15 L61 11 L58 8 L54 7 L50 7 L44 8 L39 9 L36 10 L34 10 L34 9 L34 7 L35 5 L37 3 L39 2 L41 1 L43 1 L45 0 L48 0 L51 0 L53 0 L55 0 L57 1 L58 3 L58 5 L58 8 L56 10 L54 12 L52 14 L50 16 L48 19 L47 21 L47 23 L47 24 L50 24 L54 24 L61 21 L66 18 L68 16 L69 15 L70 16 L70 19 L70 22 L69 26 L68 30 L67 34 L67 35 L68 36 L69 36 L69 38 L69 40 L67 42 L60 46 L54 50 L47 52 L43 53 L42 53 L41 53 L40 53 L38 50 L35 47 L34 45 L34 44 L34 43 L35 43 L37 42 L39 41 L40 40 L41 39 L41 38 L42 38 L42 37 L41 37 L38 37 L34 37 L31 38 L28 38 L26 39 L24 39 L24 38 L24 35 L25 33 L26 33 L27 33 " fill="none" stroke="black" /></svg>