<?xml version="1.0" encoding="utf-8" ?>
<svg baseProfile="tiny" height="120" version="1.2" viewBox="-3 -3 215 120" width="215" xmlns="http://www.w3.org/2000/svg" xmlns:ev="http://www.w3.org/2001/xml-events" xmlns:xlink="http://www.w3.org/1999/xlink"><defs /><path d="M62 49 L62 45 L62 42 L63 39 L65 35 L66 32 L69 29 L71 26 L72 24 L72 23 L68 25 L63 30 L57 36 L48 44 L43 53 L40 59 L39 63 L39 69 L43 83 L49 97 L53 105 L54 108 L54 107 L52 103 L49 98 L44 90 L34 78 L26 67 L24 63 L23 61 L23 59 L23 56 L23 53 L23 48 L23 45 L23 40 L23 35 L24 28 L25 23 L26 17 L27 13 L28 9 L30 5 L31 3 L31 2 L31 1 L31 0 L29 3 L26 8 L21 16 L15 22 L9 29 L6 34 L4 39 L2 45 L0 51 L0 58 L0 64 L0 70 L2 76 L6 85 L10 97 L15 107 L16 110 L18 111 L19 112 L20 113 L21 113 " fill="none" stroke="black" /><path d="M62 49 L62 45 L62 42 L63 39 L65 35 L66 32 L69 29 L71 26 L72 24 L72 23 L68 25 L63 30 L57 36 L48 44 L43 53 L40 59 L39 63 L39 69 L43 83 L49 97 L53 105 L54 108 L54 107 L52 103 L49 98 L44 90 L34 78 L26 67 L24 63 L23 61 L23 59 L23 56 L23 53 L23 48 L23 45 L23 40 L23 35 L24 28 L25 23 L26 17 L27 13 L28 9 L30 5 L31 3 L31 2 L31 1 L31 0 L29 3 L26 8 L21 16 L15 22 L9 29 L6 34 L4 39 L2 45 L0 51 L0 58 L0 64 L0 70 L2 76 L6 85 L10 97 L15 107 L16 110 L18 111 L19 112 L20 113 L21 113 M96 40 L96 47 L96 52 L96 56 L96 59 L96 62 L97 65 L98 67 L99 67 L99 64 L99 61 L99 57 L99 53 L99 49 L99 43 L99 40 L99 37 L99 34 L100 30 L101 27 L102 24 L104 22 L106 20 L108 19 L111 17 L112 17 L112 19 L110 25 L108 36 L107 64 L107 84 L116 107 L121 114 L124 118 L126 119 L126 115 L126 111 L125 107 L123 97 L121 78 L121 55 L121 39 L121 25 L122 11 L123 8 L124 7 L127 7 L130 9 L132 12 L138 23 L148 46 L155 61 L159 75 L161 89 L161 103 L161 113 L161 118 L160 120 L160 119 L160 116 L162 112 L164 108 L166 98 L175 55 L180 32 L182 21 L182 18 L181 12 L177 6 L173 3 L172 2 L170 2 L172 2 L176 6 L180 10 L190 25 L204 52 L212 70 L215 80 L215 85 L215 89 L215 91 " fill="none" stroke="black" /></svg>