<?xml version="1.0" encoding="utf-8" ?>
<svg baseProfile="tiny" height="199" version="1.2" viewBox="-3 -3 107 199" width="107" xmlns="http://www.w3.org/2000/svg" xmlns:ev="http://www.w3.org/2001/xml-events" xmlns:xlink="http://www.w3.org/1999/xlink"><defs /><path d="M0 146 L4 148 L6 148 L12 149 L16 149 L24 149 L29 150 L34 151 L38 154 L42 160 L46 167 L49 174 L49 180 L49 186 L48 189 L46 192 L42 194 L37 197 L33 198 L31 199 L29 199 L25 199 L21 199 L20 198 L20 196 L20 194 L21 192 L24 191 L27 191 L30 191 L32 191 L34 191 L36 191 L39 192 L45 193 L52 194 L60 194 L69 195 L79 195 L85 193 L89 191 L92 187 L93 179 L95 170 L95 161 L95 154 L94 146 L92 140 L88 135 L84 132 L80 131 L76 131 L72 132 L68 134 L66 136 L65 138 L64 140 L64 142 L68 144 L72 144 L77 144 L84 144 L92 144 L98 143 L102 139 L104 136 L104 134 L104 130 L102 123 L100 117 L96 112 L91 109 L85 105 L82 104 L72 102 L64 101 L56 101 L49 101 L44 101 L42 101 L40 99 L39 96 L39 93 L39 90 L39 88 L40 85 L41 82 L43 80 L45 77 L47 75 L49 74 L51 73 L53 73 L55 73 L58 73 L59 74 L61 76 L61 78 L61 81 L58 84 L56 85 L54 86 L52 86 L48 86 L43 86 L39 85 L35 82 L34 79 L33 75 L33 70 L33 65 L35 60 L40 47 L46 37 L52 32 L56 31 L62 31 L75 31 L89 32 L94 32 L105 31 L107 29 L107 25 L106 19 L101 14 L92 8 L82 4 L73 1 L63 0 L55 0 L51 1 L49 3 L49 5 L48 7 L48 11 L49 17 L51 22 L56 26 L63 30 L73 36 L84 44 L93 51 L98 57 L102 65 L104 78 L104 93 L103 107 L100 114 L99 115 L98 115 " fill="none" stroke="black" /></svg>