<?xml version="1.0" encoding="utf-8" ?>
<svg baseProfile="tiny" height="572" version="1.2" viewBox="-3 -3 303 572" width="303" xmlns="http://www.w3.org/2000/svg" xmlns:ev="http://www.w3.org/2001/xml-events" xmlns:xlink="http://www.w3.org/1999/xlink"><defs /><path d="M102 319 L102 320 L102 322 L102 204 L102 98 L102 84 L102 321 L102 368 L91 338 L85 293 L101 386 L134 546 L144 479 L130 340 L138 375 L158 525 L162 539 L139 351 L137 363 L144 453 L133 414 L111 256 L110 231 L119 288 L118 278 L108 228 L106 251 L112 338 L113 375 L108 349 L107 341 L112 392 L113 415 L82 327 L72 293 L68 363 L61 394 L36 351 L28 303 L34 340 L58 504 L64 524 L64 462 L74 210 L185 414 L225 502 L232 334 L219 66 L236 46 L277 178 L290 228 L283 143 L277 68 L281 51 L300 247 L298 300 L192 155 L116 27 L95 59 L133 302 L137 358 L106 286 L97 260 L139 404 L154 464 L139 401 L120 292 L157 363 L203 487 L214 502 L197 305 L195 220 L254 317 L283 371 L224 182 L175 53 L163 36 L212 257 L221 363 L135 198 L82 75 L85 107 L172 418 L185 488 L141 351 L126 286 L164 362 L213 494 L222 516 L116 114 L100 29 L242 355 L303 537 L296 518 L198 246 L175 168 L251 443 L259 502 L155 379 L61 201 L46 182 L109 458 L118 526 L27 300 L0 204 L80 339 L160 532 L145 495 L42 180 L26 96 L163 405 L209 539 L221 572 L173 332 L165 275 L232 411 L274 521 L271 486 L181 182 L164 112 L219 239 L229 276 L149 151 L65 26 L41 0 L60 138 L62 176 L39 159 L30 149 L77 282 L100 353 L105 368 L104 356 L111 368 L124 390 L132 403 L126 390 " fill="none" stroke="black" /></svg>