<?xml version="1.0" encoding="utf-8" ?>
<svg baseProfile="tiny" height="222" version="1.2" viewBox="-3 -3 303 222" width="303" xmlns="http://www.w3.org/2000/svg" xmlns:ev="http://www.w3.org/2001/xml-events" xmlns:xlink="http://www.w3.org/1999/xlink"><defs /><path d="M0 98 L1 96 L2 95 L3 93 L4 91 L4 90 L4 88 L4 87 L5 85 L5 82 L5 79 L5 75 L5 73 L5 69 L5 65 L5 63 L6 61 L6 60 L7 60 L8 60 L9 62 L11 65 L12 68 L12 72 L13 78 L14 83 L15 88 L15 92 L15 94 L16 97 L16 102 L18 110 L22 113 L25 113 L28 113 L30 109 L31 105 L33 101 L34 94 L34 86 L34 74 L34 65 L34 57 L34 53 L35 49 L36 44 L38 40 L40 37 L43 36 L46 36 L50 37 L52 41 L52 45 L52 52 L52 67 L52 90 L55 115 L57 129 L60 137 L64 140 L67 140 L71 138 L81 126 L87 107 L91 71 L91 42 L88 29 L87 23 L87 18 L87 10 L88 3 L89 0 L90 0 L93 0 L99 0 L107 6 L115 16 L119 25 L121 33 L121 41 L121 65 L119 99 L119 131 L119 150 L126 165 L133 173 L139 176 L143 172 L147 162 L152 146 L155 126 L159 98 L163 73 L166 55 L169 42 L172 34 L175 26 L179 21 L183 20 L188 20 L195 25 L205 38 L212 50 L216 62 L216 73 L216 91 L214 120 L213 142 L213 158 L216 174 L222 181 L226 183 L231 182 L238 174 L246 163 L256 144 L262 119 L264 94 L266 71 L270 49 L274 29 L278 16 L280 15 L281 15 L283 16 L286 17 L290 18 L291 19 L292 19 L293 21 L296 25 L301 35 L303 43 L303 53 L303 66 L303 83 L301 111 L298 140 L296 158 L294 187 L294 210 L297 219 L298 222 L300 222 L301 222 L301 221 L302 221 L302 220 " fill="none" stroke="black" /></svg>