<?xml version="1.0" encoding="utf-8" ?>
<svg baseProfile="tiny" height="158" version="1.2" viewBox="-3 -3 115 158" width="115" xmlns="http://www.w3.org/2000/svg" xmlns:ev="http://www.w3.org/2001/xml-events" xmlns:xlink="http://www.w3.org/1999/xlink"><defs /><path d="M55 76 L55 70 L55 77 L57 98 L58 109 L58 110 L59 101 L60 100 L62 105 L64 111 L65 112 L65 103 L67 92 L67 91 L68 91 L68 92 L68 82 L69 71 L70 66 L71 66 L71 67 L71 70 L72 71 L73 60 L75 43 L75 37 L76 42 L76 44 L78 41 L81 24 L82 19 L83 19 L84 25 L85 26 L86 21 L89 11 L90 9 L91 9 L92 12 L92 14 L94 10 L96 2 L97 0 L98 0 L98 20 L101 57 L103 71 L104 69 L106 63 L107 63 L108 68 L109 72 L109 73 L110 73 L112 96 L114 116 L115 125 L115 123 L114 123 L114 127 L112 128 L110 128 L107 126 L103 124 L102 124 L101 126 L99 127 L97 124 L96 122 L95 122 L93 134 L91 150 L89 157 L87 158 L86 156 L85 156 L84 157 L80 155 L75 150 L73 149 L72 152 L71 156 L66 151 L52 119 L45 104 L43 103 L42 121 L39 135 L38 137 L36 134 L33 131 L33 130 L31 138 L30 145 L29 145 L27 133 L25 123 L25 120 L25 117 L25 104 L25 98 L25 97 L23 94 L19 81 L17 71 L16 71 L15 73 L14 74 L11 75 L6 67 L2 54 L1 52 L1 53 L0 54 L1 47 L4 38 L6 37 L7 37 L8 38 L11 35 L18 31 L22 31 L24 33 L25 35 L28 35 L30 37 L31 38 L31 39 L32 39 L33 41 L33 60 L33 70 L33 72 L33 71 L35 70 L36 70 L37 72 L38 74 L39 74 L42 72 L43 67 L44 64 L44 63 L45 63 L47 64 L51 65 L55 66 L57 66 L61 66 L67 65 " fill="none" stroke="black" /></svg>