<?xml version="1.0" encoding="utf-8" ?>
<svg baseProfile="tiny" height="441" version="1.2" viewBox="-3 -3 724 441" width="724" xmlns="http://www.w3.org/2000/svg" xmlns:ev="http://www.w3.org/2001/xml-events" xmlns:xlink="http://www.w3.org/1999/xlink"><defs /><path d="M0 29 L0 37 L0 43 L0 31 L0 16 L29 102 L55 188 L50 152 L34 86 L29 63 L29 65 L25 54 L8 0 L42 55 L107 198 L123 230 L96 142 L87 102 L141 214 L156 246 L154 232 L150 215 L150 214 L126 143 L116 114 L115 113 L119 129 L113 127 L92 99 L84 87 L101 126 L109 145 L113 150 L113 130 L118 118 L164 156 L183 175 L186 159 L184 120 L184 102 L200 129 L207 142 L207 140 L212 147 L219 160 L220 165 L217 156 L215 149 L216 152 L220 162 L221 166 L219 164 L217 160 L218 163 L221 167 L221 168 L223 186 L225 201 L230 213 L231 216 L233 217 L238 221 L247 233 L252 245 L261 248 L269 240 L271 239 L267 257 L265 265 L285 231 L299 214 L294 233 L290 246 L324 216 L346 200 L358 198 L356 212 L378 201 L402 189 L416 188 L396 229 L399 229 L424 225 L444 221 L455 219 L451 225 L446 234 L456 227 L483 201 L497 192 L499 197 L508 203 L524 201 L531 207 L516 246 L508 265 L542 230 L580 205 L599 199 L609 206 L612 222 L607 233 L601 236 L615 234 L670 220 L687 216 L698 214 L697 230 L688 254 L683 266 L693 249 L717 220 L724 214 L667 282 L622 334 L592 364 L573 373 L543 382 L519 394 L509 399 L535 353 L544 331 L539 324 L525 333 L517 336 L516 336 L515 341 L505 356 L490 371 L457 398 L431 419 L418 431 L417 433 L419 430 L419 427 L417 426 L412 425 L399 424 L387 424 L380 425 L378 425 L378 413 L371 414 L337 427 L293 439 L276 441 L275 437 L285 429 L286 428 L286 429 " fill="none" stroke="black" /></svg>