<?xml version="1.0" encoding="utf-8" ?>
<svg baseProfile="tiny" height="357" version="1.2" viewBox="-3 -3 347 357" width="347" xmlns="http://www.w3.org/2000/svg" xmlns:ev="http://www.w3.org/2001/xml-events" xmlns:xlink="http://www.w3.org/1999/xlink"><defs /><path d="M164 205 L159 212 L156 218 L156 223 L156 227 L160 231 L167 238 L181 247 L189 251 L197 251 L205 250 L213 245 L220 237 L225 222 L227 205 L227 189 L223 175 L220 168 L208 152 L198 143 L184 135 L177 132 L170 132 L165 132 L159 136 L151 141 L144 146 L138 152 L134 158 L130 166 L127 173 L125 182 L123 194 L123 206 L123 215 L124 221 L126 226 L131 235 L138 241 L145 246 L153 250 L160 254 L169 256 L179 259 L186 259 L191 259 L197 259 L203 257 L210 255 L218 249 L223 243 L229 233 L234 224 L238 210 L240 192 L238 157 L231 130 L222 108 L213 93 L203 81 L193 73 L183 68 L174 67 L164 67 L152 67 L141 70 L130 74 L117 82 L108 89 L99 99 L91 110 L84 125 L78 147 L75 166 L74 187 L74 204 L78 219 L86 239 L103 267 L125 300 L141 316 L154 325 L168 330 L183 335 L200 336 L216 336 L230 330 L242 322 L253 312 L266 298 L280 277 L288 260 L297 239 L305 217 L309 194 L312 173 L313 149 L310 127 L298 104 L283 82 L257 54 L225 27 L193 10 L171 3 L160 1 L127 0 L105 1 L85 7 L65 19 L53 28 L43 38 L34 51 L23 67 L13 83 L6 104 L2 118 L0 131 L0 143 L0 159 L2 183 L16 213 L28 233 L38 248 L47 260 L61 276 L74 289 L93 305 L114 320 L135 335 L156 347 L172 352 L183 354 L193 355 L199 355 L206 356 L214 357 L226 357 L237 357 L256 356 L270 351 L282 343 L292 334 L301 325 L310 316 L321 304 L328 293 L336 281 L342 269 L345 257 L347 248 " fill="none" stroke="black" /></svg>