<?xml version="1.0" encoding="utf-8" ?>
<svg baseProfile="tiny" height="171" version="1.2" viewBox="-3 -3 222 171" width="222" xmlns="http://www.w3.org/2000/svg" xmlns:ev="http://www.w3.org/2001/xml-events" xmlns:xlink="http://www.w3.org/1999/xlink"><defs /><path d="M219 94 L222 92 L218 97 L206 109 L191 122 L178 133 L165 135 L160 130 L159 125 L162 116 L175 109 L190 107 L198 108 L199 110 L199 111 L200 109 L207 101 L213 84 L214 70 L205 57 L192 46 L180 43 L168 43 L151 65 L146 81 L146 91 L150 95 L162 94 L170 86 L173 75 L166 69 L151 68 L130 78 L112 98 L103 116 L100 124 L95 130 L83 141 L63 145 L47 126 L40 102 L46 70 L72 58 L104 57 L133 76 L143 92 L145 105 L134 125 L124 140 L117 148 L116 148 L124 154 L147 166 L163 170 L173 169 L179 143 L164 111 L144 99 L128 98 L114 128 L109 152 L107 163 L105 164 L95 164 L78 155 L72 136 L80 112 L109 98 L140 95 L164 105 L172 131 L170 146 L144 152 L106 150 L79 129 L69 106 L76 79 L108 65 L161 65 L192 83 L203 117 L185 153 L149 167 L93 171 L30 158 L6 122 L0 85 L30 60 L100 52 L145 62 L171 87 L182 122 L183 142 L171 150 L132 155 L96 151 L67 119 L58 80 L75 61 L113 51 L159 55 L190 91 L198 125 L196 149 L174 158 L131 162 L86 158 L67 134 L68 91 L95 61 L136 54 L175 76 L181 96 L165 117 L120 123 L77 107 L61 76 L76 36 L117 18 L158 23 L174 49 L169 82 L137 106 L92 106 L64 75 L60 39 L90 23 L137 30 L165 57 L173 85 L149 113 L104 121 L48 97 L27 52 L34 13 L92 0 L143 34 L174 98 L174 129 L148 143 L113 143 L93 119 L94 83 L119 70 L151 72 L161 81 L162 92 L141 104 L115 106 L101 97 " fill="none" stroke="black" /></svg>