<?xml version="1.0" encoding="utf-8" ?>
<svg baseProfile="tiny" height="373" version="1.2" viewBox="-3 -3 221 373" width="221" xmlns="http://www.w3.org/2000/svg" xmlns:ev="http://www.w3.org/2001/xml-events" xmlns:xlink="http://www.w3.org/1999/xlink"><defs /><path d="M174 129 L179 118 L187 111 L202 120 L218 142 L221 149 L221 147 L220 148 L220 162 L218 170 L215 176 L201 167 L195 159 L192 169 L192 173 L187 173 L182 167 L181 167 L181 179 L180 190 L169 176 L169 177 L163 176 L156 171 L153 169 L139 168 L114 143 L109 136 L107 132 L106 129 L84 50 L67 19 L61 9 L58 6 L57 17 L46 21 L39 18 L33 16 L31 16 L33 48 L33 61 L32 64 L30 65 L30 69 L30 76 L30 90 L31 94 L31 95 L31 96 L29 98 L26 99 L24 98 L23 98 L12 121 L11 123 L10 131 L8 141 L6 156 L4 171 L4 176 L2 176 L0 174 L0 176 L0 183 L5 199 L12 218 L15 228 L16 229 L19 230 L25 233 L33 240 L74 279 L121 326 L154 359 L157 362 L161 371 L165 373 L171 373 L174 372 L176 369 L178 353 L178 340 L178 335 L177 337 L177 351 L177 359 L177 352 L176 289 L175 255 L175 247 L175 246 L182 238 L187 232 L192 230 L195 233 L196 236 L196 234 L200 221 L203 214 L204 213 L200 222 L197 225 L196 208 L199 103 L211 33 L216 1 L216 0 L208 7 L196 14 L190 15 L184 16 L171 25 L164 32 L159 37 L150 39 L133 33 L120 23 L106 22 L91 34 L76 48 L71 54 L66 57 L61 59 L56 64 L51 72 L48 76 L47 76 L46 74 L46 79 L46 112 L45 153 L41 172 L41 174 L41 177 L53 221 L59 253 L62 270 L71 281 L80 297 L87 308 L92 310 L112 309 L121 310 L127 320 L129 334 L132 341 L136 345 L150 346 L153 346 L153 345 " fill="none" stroke="black" /></svg>