<?xml version="1.0" encoding="utf-8" ?>
<svg baseProfile="tiny" height="314" version="1.2" viewBox="-3 -3 398 314" width="398" xmlns="http://www.w3.org/2000/svg" xmlns:ev="http://www.w3.org/2001/xml-events" xmlns:xlink="http://www.w3.org/1999/xlink"><defs /><path d="M0 74 L3 67 L7 61 L9 56 L11 53 L14 51 L17 49 L21 49 L26 48 L29 48 L32 48 L33 49 L34 52 L34 57 L34 67 L34 81 L35 96 L37 104 L40 108 L43 109 L46 107 L50 100 L55 88 L62 62 L64 43 L65 28 L67 21 L68 15 L69 12 L75 5 L79 3 L84 1 L89 0 L93 0 L96 2 L100 12 L104 32 L106 63 L106 97 L106 126 L104 155 L103 172 L103 194 L110 221 L121 243 L134 256 L140 256 L147 252 L152 245 L156 232 L158 212 L158 198 L158 182 L158 169 L158 154 L158 138 L158 124 L158 112 L158 104 L158 99 L158 95 L158 90 L157 84 L157 78 L157 71 L157 67 L157 63 L157 60 L158 57 L160 54 L163 51 L166 49 L169 48 L173 48 L180 49 L186 56 L191 65 L193 74 L194 85 L194 97 L194 113 L193 144 L193 171 L193 189 L193 200 L194 207 L196 215 L201 226 L206 238 L208 242 L208 244 L208 245 L209 245 L210 244 L210 243 L210 242 L209 242 L209 240 L209 226 L210 211 L220 191 L234 167 L248 130 L255 95 L261 68 L273 52 L295 46 L311 53 L322 70 L327 104 L327 148 L323 190 L310 218 L299 222 L293 222 L291 221 L290 210 L290 167 L298 144 L307 128 L316 107 L322 86 L326 70 L330 59 L335 52 L343 44 L351 37 L362 33 L377 31 L388 31 L393 31 L395 34 L396 36 L398 52 L398 73 L398 104 L398 144 L395 181 L390 229 L385 261 L380 288 L376 306 L373 312 L372 314 L371 314 L376 306 L382 294 L386 286 L387 283 L388 282 " fill="none" stroke="black" /></svg>