<?xml version="1.0" encoding="utf-8" ?>
<svg baseProfile="tiny" height="422" version="1.2" viewBox="-3 -3 332 422" width="332" xmlns="http://www.w3.org/2000/svg" xmlns:ev="http://www.w3.org/2001/xml-events" xmlns:xlink="http://www.w3.org/1999/xlink"><defs /><path d="M203 333 L184 325 L173 320 L170 318 L171 317 L178 316 L201 310 L226 306 L249 304 L261 304 L264 303 L264 302 L259 298 L235 282 L198 258 L164 239 L155 234 L154 234 L158 233 L168 232 L202 232 L232 236 L254 240 L266 240 L268 240 L268 238 L266 237 L237 228 L203 215 L171 203 L145 192 L133 187 L129 184 L134 184 L145 183 L182 181 L233 181 L268 184 L308 186 L322 186 L326 184 L326 181 L317 179 L273 165 L214 143 L161 123 L125 112 L99 108 L78 107 L65 106 L63 105 L65 105 L76 105 L106 104 L151 102 L214 102 L261 104 L297 109 L321 112 L331 113 L332 113 L327 111 L310 106 L257 84 L190 52 L140 29 L86 14 L53 10 L24 7 L7 6 L0 6 L2 6 L40 6 L114 6 L184 15 L254 28 L297 36 L323 38 L327 38 L326 37 L322 36 L311 32 L276 19 L253 12 L212 2 L188 0 L173 0 L168 2 L167 4 L177 12 L207 36 L234 60 L249 76 L251 83 L249 85 L232 88 L195 94 L163 102 L152 108 L149 126 L161 166 L175 188 L179 193 L180 195 L181 197 L180 199 L174 199 L159 201 L150 205 L144 209 L143 213 L145 215 L174 224 L228 242 L270 259 L290 267 L293 269 L291 270 L275 274 L240 283 L197 292 L169 299 L162 303 L162 305 L167 307 L175 308 L187 313 L201 321 L209 327 L211 330 L212 331 L212 335 L212 348 L211 368 L209 383 L207 393 L206 401 L206 412 L210 420 L212 422 L213 422 L203 416 L194 410 L192 406 L191 399 L193 389 L196 378 L197 371 L198 369 L199 369 " fill="none" stroke="black" /></svg>