<?xml version="1.0" encoding="utf-8" ?>
<svg baseProfile="tiny" height="173" version="1.2" viewBox="-3 -3 129 173" width="129" xmlns="http://www.w3.org/2000/svg" xmlns:ev="http://www.w3.org/2001/xml-events" xmlns:xlink="http://www.w3.org/1999/xlink"><defs /><path d="M114 25 L109 17 L104 13 L99 11 L88 8 L80 8 L73 8 L68 9 L63 12 L60 19 L59 27 L59 39 L62 52 L66 58 L70 61 L75 63 L82 63 L89 61 L96 54 L98 43 L98 32 L90 18 L80 7 L73 2 L67 0 L62 0 L57 0 L51 3 L45 7 L39 12 L35 16 L32 21 L30 29 L30 42 L31 53 L39 64 L48 74 L57 78 L66 80 L70 80 L70 76 L70 70 L63 60 L52 48 L45 43 L37 42 L30 42 L23 45 L20 48 L11 56 L7 63 L6 71 L5 80 L7 85 L14 90 L26 94 L40 97 L47 97 L50 94 L51 88 L50 77 L43 65 L36 58 L31 57 L27 57 L22 58 L16 62 L11 67 L5 75 L1 87 L0 98 L1 107 L7 116 L19 129 L30 138 L43 143 L49 142 L54 136 L56 129 L57 117 L56 106 L51 95 L46 91 L42 91 L36 91 L29 93 L20 97 L10 104 L6 109 L4 114 L4 121 L9 134 L18 150 L30 162 L37 166 L43 168 L49 169 L55 169 L63 169 L71 168 L77 164 L80 155 L81 138 L79 129 L76 125 L69 121 L61 118 L53 116 L48 116 L42 119 L38 128 L36 149 L36 162 L41 168 L48 171 L56 172 L67 173 L82 173 L93 172 L105 168 L115 161 L123 149 L127 133 L129 113 L127 97 L118 82 L108 72 L101 69 L94 69 L85 70 L78 75 L73 80 L69 85 L69 89 L69 93 L76 97 L87 100 L97 102 L105 102 L110 100 L114 98 L116 94 L117 88 L117 78 L115 71 L113 66 L111 65 L107 65 L101 65 L95 65 " fill="none" stroke="black" /></svg>