<?xml version="1.0" encoding="utf-8" ?>
<svg baseProfile="tiny" height="81" version="1.2" viewBox="-3 -3 65 81" width="65" xmlns="http://www.w3.org/2000/svg" xmlns:ev="http://www.w3.org/2001/xml-events" xmlns:xlink="http://www.w3.org/1999/xlink"><defs /><path d="M41 38 L40 40 L39 42 L38 44 L38 45 L38 46 L39 47 L40 47 L41 48 L43 48 L44 48 L45 48 L46 48 L47 48 L48 48 L49 47 L50 46 L51 45 L52 43 L53 41 L54 39 L54 36 L54 33 L54 30 L54 27 L54 26 L54 24 L52 22 L50 22 L48 22 L46 22 L43 21 L40 21 L38 21 L35 21 L33 21 L31 21 L30 22 L27 24 L26 26 L24 27 L24 28 L23 31 L23 33 L23 36 L23 38 L23 39 L24 41 L24 42 L24 43 L25 45 L26 46 L26 47 L27 47 L28 48 L29 49 L30 50 L31 50 L33 52 L35 53 L37 55 L38 57 L40 58 L42 60 L43 61 L45 61 L46 61 L48 61 L50 61 L51 60 L52 59 L53 58 L54 56 L55 54 L57 53 L58 51 L59 50 L60 48 L61 47 L61 42 L62 40 L62 37 L62 34 L62 30 L62 27 L62 23 L62 20 L61 17 L61 15 L60 14 L60 13 L58 11 L56 10 L54 8 L52 7 L49 5 L46 2 L44 1 L42 0 L41 0 L39 0 L37 0 L35 0 L33 1 L31 2 L29 2 L28 3 L26 4 L24 4 L22 5 L20 6 L18 7 L16 8 L14 10 L10 12 L7 14 L5 15 L3 17 L2 18 L2 20 L1 23 L0 27 L0 31 L0 34 L0 38 L0 43 L0 49 L1 52 L2 55 L4 60 L7 65 L9 68 L13 71 L17 74 L21 77 L24 78 L28 80 L33 80 L36 81 L38 81 L42 81 L44 81 L46 81 L48 81 L51 81 L55 80 L60 77 L63 74 L65 74 " fill="none" stroke="black" /></svg>