<?xml version="1.0" encoding="utf-8" ?>
<svg baseProfile="tiny" height="268" version="1.2" viewBox="-3 -3 284 268" width="284" xmlns="http://www.w3.org/2000/svg" xmlns:ev="http://www.w3.org/2001/xml-events" xmlns:xlink="http://www.w3.org/1999/xlink"><defs /><path d="M35 194 L35 192 L35 190 L38 189 L49 195 L59 202 L63 204 L64 201 L56 186 L52 178 L59 186 L65 192 L67 193 L67 188 L65 181 L64 179 L67 180 L70 181 L69 173 L69 169 L70 168 L77 174 L82 178 L83 178 L82 165 " fill="none" stroke="black" /><circle cx="82" cy="158" fill="black" r="1" /><path d="M35 194 L35 192 L35 190 L38 189 L49 195 L59 202 L63 204 L64 201 L56 186 L52 178 L59 186 L65 192 L67 193 L67 188 L65 181 L64 179 L67 180 L70 181 L69 173 L69 169 L70 168 L77 174 L82 178 L83 178 L82 165 M65 125 L69 131 L78 146 L84 157 L86 162 L86 161 L70 128 L46 82 L37 66 L40 64 L71 96 L100 134 L115 151 L117 153 L115 145 L109 128 L108 124 L124 136 L139 151 L147 159 L145 149 L128 109 L123 95 L123 94 L127 97 L129 98 L127 89 L125 82 L126 81 " fill="none" stroke="black" /><path d="M35 194 L35 192 L35 190 L38 189 L49 195 L59 202 L63 204 L64 201 L56 186 L52 178 L59 186 L65 192 L67 193 L67 188 L65 181 L64 179 L67 180 L70 181 L69 173 L69 169 L70 168 L77 174 L82 178 L83 178 L82 165 M65 125 L69 131 L78 146 L84 157 L86 162 L86 161 L70 128 L46 82 L37 66 L40 64 L71 96 L100 134 L115 151 L117 153 L115 145 L109 128 L108 124 L124 136 L139 151 L147 159 L145 149 L128 109 L123 95 L123 94 L127 97 L129 98 L127 89 L125 82 L126 81 M101 208 L101 199 L101 188 L102 183 L121 193 L144 214 L151 219 L152 218 L152 213 L160 211 L172 214 L177 211 L175 179 L171 163 L171 158 L174 159 L176 161 L173 146 L169 127 L168 118 L174 119 L180 123 L181 121 L175 98 L173 87 L178 88 L191 100 L197 104 " fill="none" stroke="black" /><path d="M35 194 L35 192 L35 190 L38 189 L49 195 L59 202 L63 204 L64 201 L56 186 L52 178 L59 186 L65 192 L67 193 L67 188 L65 181 L64 179 L67 180 L70 181 L69 173 L69 169 L70 168 L77 174 L82 178 L83 178 L82 165 M65 125 L69 131 L78 146 L84 157 L86 162 L86 161 L70 128 L46 82 L37 66 L40 64 L71 96 L100 134 L115 151 L117 153 L115 145 L109 128 L108 124 L124 136 L139 151 L147 159 L145 149 L128 109 L123 95 L123 94 L127 97 L129 98 L127 89 L125 82 L126 81 M101 208 L101 199 L101 188 L102 183 L121 193 L144 214 L151 219 L152 218 L152 213 L160 211 L172 214 L177 211 L175 179 L171 163 L171 158 L174 159 L176 161 L173 146 L169 127 L168 118 L174 119 L180 123 L181 121 L175 98 L173 87 L178 88 L191 100 L197 104 M0 85 L0 84 L0 69 L0 42 L0 32 L1 30 L7 31 L15 36 L21 40 L22 40 L22 28 L22 15 L25 9 L53 22 L87 48 L99 56 L101 53 L95 34 L93 25 L93 24 L98 26 L101 28 L101 20 L98 7 L98 0 L105 1 L114 6 L116 7 L115 1 " fill="none" stroke="black" /><path d="M35 194 L35 192 L35 190 L38 189 L49 195 L59 202 L63 204 L64 201 L56 186 L52 178 L59 186 L65 192 L67 193 L67 188 L65 181 L64 179 L67 180 L70 181 L69 173 L69 169 L70 168 L77 174 L82 178 L83 178 L82 165 M65 125 L69 131 L78 146 L84 157 L86 162 L86 161 L70 128 L46 82 L37 66 L40 64 L71 96 L100 134 L115 151 L117 153 L115 145 L109 128 L108 124 L124 136 L139 151 L147 159 L145 149 L128 109 L123 95 L123 94 L127 97 L129 98 L127 89 L125 82 L126 81 M101 208 L101 199 L101 188 L102 183 L121 193 L144 214 L151 219 L152 218 L152 213 L160 211 L172 214 L177 211 L175 179 L171 163 L171 158 L174 159 L176 161 L173 146 L169 127 L168 118 L174 119 L180 123 L181 121 L175 98 L173 87 L178 88 L191 100 L197 104 M0 85 L0 84 L0 69 L0 42 L0 32 L1 30 L7 31 L15 36 L21 40 L22 40 L22 28 L22 15 L25 9 L53 22 L87 48 L99 56 L101 53 L95 34 L93 25 L93 24 L98 26 L101 28 L101 20 L98 7 L98 0 L105 1 L114 6 L116 7 L115 1 M132 261 L146 264 L157 268 L159 268 L159 256 L153 238 L150 227 L150 225 L161 229 L168 233 L171 233 L172 227 L178 221 L194 221 L205 224 L207 224 L207 211 L208 196 L215 190 L231 193 L240 196 L242 194 L244 186 L248 181 L261 182 L278 193 L282 195 L282 188 L282 180 L284 178 " fill="none" stroke="black" /></svg>