<?xml version="1.0" encoding="utf-8" ?>
<svg baseProfile="tiny" height="420" version="1.2" viewBox="-3 -3 326 420" width="326" xmlns="http://www.w3.org/2000/svg" xmlns:ev="http://www.w3.org/2001/xml-events" xmlns:xlink="http://www.w3.org/1999/xlink"><defs /><path d="M0 180 L0 178 L2 173 L3 162 L6 143 L12 126 L16 119 L18 118 L18 119 L18 124 L17 130 L17 139 L18 143 L19 143 L21 143 L22 142 L24 145 L26 148 L27 148 L27 146 L28 145 L31 146 L33 148 L34 147 L34 134 L36 126 L37 126 L38 127 L39 131 L40 134 L42 134 L45 127 L54 99 L67 48 L76 11 L79 0 L80 0 L80 5 L80 45 L82 150 L93 245 L99 292 L101 296 L104 275 L107 256 L109 247 L110 247 L110 253 L110 257 L110 256 L110 247 L111 240 L113 239 L114 240 L114 238 L115 235 L117 235 L120 239 L122 242 L123 243 L124 241 L125 240 L130 245 L132 250 L134 251 L136 249 L145 234 L158 201 L168 136 L171 79 L171 59 L171 60 L171 101 L170 193 L175 292 L179 324 L181 328 L183 315 L187 305 L193 306 L198 316 L200 320 L200 315 L200 309 L202 309 L203 309 L203 308 L204 294 L206 287 L207 286 L208 289 L209 291 L211 291 L216 291 L229 302 L233 305 L234 305 L237 301 L240 301 L242 301 L243 300 L252 274 L268 213 L274 180 L279 162 L280 161 L280 194 L281 328 L288 396 L292 420 L293 418 L294 416 L295 416 L295 414 L295 405 L295 390 L294 380 L294 368 L295 353 L298 348 L302 355 L305 366 L307 370 L308 365 L309 365 L310 370 L313 377 L315 380 L316 380 L319 380 L321 380 L324 382 L325 384 L326 385 " fill="none" stroke="black" /></svg>