<?xml version="1.0" encoding="utf-8" ?>
<svg baseProfile="tiny" height="551" version="1.2" viewBox="-3 -3 205 551" width="205" xmlns="http://www.w3.org/2000/svg" xmlns:ev="http://www.w3.org/2001/xml-events" xmlns:xlink="http://www.w3.org/1999/xlink"><defs /><path d="M112 430 L112 387 L112 347 L112 292 L116 216 L117 139 L117 63 L117 21 L117 2 L117 0 L117 1 L113 10 L108 45 L105 140 L106 220 L111 253 L113 263 L113 260 L114 249 L119 227 L126 198 L129 178 L129 173 L129 174 L126 179 L122 181 L119 181 L113 154 L112 117 L112 99 L112 97 L112 102 L120 144 L131 188 L138 205 L140 201 L144 167 L146 137 L148 65 L148 48 L150 65 L155 93 L158 104 L158 92 L157 78 L155 75 L150 86 L144 93 L135 88 L119 32 " fill="none" stroke="black" /><circle cx="112" cy="24" fill="black" r="1" /><circle cx="165" cy="396" fill="black" r="1" /><path d="M112 430 L112 387 L112 347 L112 292 L116 216 L117 139 L117 63 L117 21 L117 2 L117 0 L117 1 L113 10 L108 45 L105 140 L106 220 L111 253 L113 263 L113 260 L114 249 L119 227 L126 198 L129 178 L129 173 L129 174 L126 179 L122 181 L119 181 L113 154 L112 117 L112 99 L112 97 L112 102 L120 144 L131 188 L138 205 L140 201 L144 167 L146 137 L148 65 L148 48 L150 65 L155 93 L158 104 L158 92 L157 78 L155 75 L150 86 L144 93 L135 88 L119 32 M165 396 L165 397 L161 444 L155 469 L151 479 L150 479 L142 454 L140 445 L140 452 L139 454 L137 451 L137 444 L138 442 L139 442 L129 465 L117 498 L105 529 L99 537 L89 520 L81 503 L77 496 L74 502 L61 537 L56 551 L55 542 L55 509 L54 487 L52 481 L51 481 L47 477 L40 466 L35 460 L32 459 L32 467 L32 473 L33 469 L37 438 L37 419 L37 418 L44 440 L49 452 L52 436 L57 418 L64 412 L69 414 L72 416 L73 415 L75 414 L83 428 L89 442 L92 445 L93 445 L101 448 L107 456 L111 460 L112 459 L117 444 L121 430 L123 426 L126 429 L128 432 L133 431 L144 421 L163 419 L176 432 L180 436 L182 436 L187 435 L192 435 L194 435 L193 435 L191 436 " fill="none" stroke="black" /><path d="M112 430 L112 387 L112 347 L112 292 L116 216 L117 139 L117 63 L117 21 L117 2 L117 0 L117 1 L113 10 L108 45 L105 140 L106 220 L111 253 L113 263 L113 260 L114 249 L119 227 L126 198 L129 178 L129 173 L129 174 L126 179 L122 181 L119 181 L113 154 L112 117 L112 99 L112 97 L112 102 L120 144 L131 188 L138 205 L140 201 L144 167 L146 137 L148 65 L148 48 L150 65 L155 93 L158 104 L158 92 L157 78 L155 75 L150 86 L144 93 L135 88 L119 32 M165 396 L165 397 L161 444 L155 469 L151 479 L150 479 L142 454 L140 445 L140 452 L139 454 L137 451 L137 444 L138 442 L139 442 L129 465 L117 498 L105 529 L99 537 L89 520 L81 503 L77 496 L74 502 L61 537 L56 551 L55 542 L55 509 L54 487 L52 481 L51 481 L47 477 L40 466 L35 460 L32 459 L32 467 L32 473 L33 469 L37 438 L37 419 L37 418 L44 440 L49 452 L52 436 L57 418 L64 412 L69 414 L72 416 L73 415 L75 414 L83 428 L89 442 L92 445 L93 445 L101 448 L107 456 L111 460 L112 459 L117 444 L121 430 L123 426 L126 429 L128 432 L133 431 L144 421 L163 419 L176 432 L180 436 L182 436 L187 435 L192 435 L194 435 L193 435 L191 436 M0 280 L8 280 L15 280 L20 281 L26 290 L30 295 L32 295 L42 285 L57 281 L77 289 L97 303 L108 308 L113 308 L121 294 L130 287 L139 289 L144 292 L148 292 L155 285 L167 280 L187 282 L194 285 L196 284 L199 283 L203 283 L205 284 " fill="none" stroke="black" /></svg>