<?xml version="1.0" encoding="utf-8" ?>
<svg baseProfile="tiny" height="139" version="1.2" viewBox="-3 -3 172 139" width="172" xmlns="http://www.w3.org/2000/svg" xmlns:ev="http://www.w3.org/2001/xml-events" xmlns:xlink="http://www.w3.org/1999/xlink"><defs /><path d="M66 100 L62 101 L55 95 L41 79 L29 57 L25 47 L25 44 L28 44 L31 43 L35 43 L40 43 L51 42 L60 42 L69 42 L72 42 L73 42 L73 44 L73 45 L73 47 L74 49 L75 49 L77 49 L82 41 L88 31 L93 25 L96 22 L99 21 L101 21 L102 22 L104 25 L107 28 L110 33 L113 39 L114 42 L115 47 L116 51 L117 53 L118 53 L121 53 L132 54 L148 59 L159 62 L164 65 L165 66 L165 68 L165 72 L164 80 L162 83 L160 87 L157 88 L154 89 L148 89 L142 89 L138 88 L134 88 L132 90 L130 96 L127 107 L126 122 L124 132 L122 138 L121 139 L119 139 L109 134 L89 116 L76 103 L70 98 L68 97 L67 98 L65 100 L63 104 L60 110 L57 116 L52 122 L48 125 L42 125 L36 123 L29 113 L26 104 L26 98 L26 96 L27 95 L27 93 L27 90 L16 77 L7 68 L1 64 L0 63 L0 62 L0 61 L2 58 L8 52 L14 47 L20 43 L23 40 L24 36 L24 33 L24 29 L24 27 L24 25 L24 23 L25 21 L27 20 L30 20 L32 20 L34 21 L35 23 L36 24 L38 25 L42 26 L47 26 L55 23 L62 18 L68 12 L71 8 L73 5 L75 4 L77 4 L80 4 L83 4 L85 5 L86 7 L87 10 L88 11 L89 10 L95 7 L104 3 L110 1 L112 0 L113 0 L114 1 L115 4 L117 8 L121 16 L126 24 L129 28 L130 29 L132 31 L135 32 L143 35 L154 36 L163 37 L167 38 L169 38 L169 41 L169 44 L170 49 L171 52 L171 54 L172 55 " fill="none" stroke="black" /></svg>