<?xml version="1.0" encoding="utf-8" ?>
<svg baseProfile="tiny" height="109" version="1.2" viewBox="-3 -3 168 109" width="168" xmlns="http://www.w3.org/2000/svg" xmlns:ev="http://www.w3.org/2001/xml-events" xmlns:xlink="http://www.w3.org/1999/xlink"><defs /><path d="M122 8 L126 8 L144 7 L154 9 L157 17 L151 22 L147 24 L151 28 L157 43 L158 54 L158 57 L156 57 L155 57 L155 62 L161 81 L163 93 L163 95 L155 92 L152 90 L152 91 L152 96 L148 99 L140 93 L135 89 L133 93 L132 104 L129 109 L122 105 L116 93 L112 88 L109 91 L106 95 L104 97 L99 93 L95 89 L87 89 L80 92 L77 93 L77 94 L79 94 L85 94 L86 94 L76 94 L51 93 L36 89 L31 87 L35 86 L43 83 L47 79 L43 70 L19 51 L4 38 L0 33 L9 35 L15 37 L16 37 L16 34 L16 27 L20 22 L25 22 L29 26 L30 28 L31 26 L36 17 L43 12 L48 12 L50 13 L51 8 L54 2 L58 0 L60 2 L62 4 L65 4 L73 4 L82 5 L89 11 L90 13 L93 11 L99 7 L105 4 L111 3 L116 7 L117 9 L122 8 L131 6 L141 8 L147 13 L149 16 L150 16 L153 18 L161 28 L167 37 L168 45 L160 51 L154 55 L150 60 L150 67 L151 73 L152 74 L146 77 L140 82 L136 90 L132 95 L120 97 L107 95 L101 93 L101 94 L98 97 L90 100 L74 100 L60 96 L54 94 L52 94 L47 94 L37 84 L32 77 L32 74 L33 74 L34 74 L35 72 L35 67 L28 57 L20 51 L18 49 L19 45 L21 38 L24 34 L26 32 L27 30 L27 25 L30 18 L37 15 L46 14 L49 13 L50 12 L51 9 L56 8 L66 8 L75 11 L84 12 L89 6 L94 2 L99 2 L102 4 L106 4 L117 2 L133 2 L141 6 L143 7 L143 8 " fill="none" stroke="black" /></svg>