<?xml version="1.0" encoding="utf-8" ?>
<svg baseProfile="tiny" height="427" version="1.2" viewBox="-3 -3 323 427" width="323" xmlns="http://www.w3.org/2000/svg" xmlns:ev="http://www.w3.org/2001/xml-events" xmlns:xlink="http://www.w3.org/1999/xlink"><defs /><path d="M0 361 L4 300 L10 194 L13 106 L15 25 L16 3 L17 0 L21 76 L24 141 L29 196 L32 223 L35 229 L46 182 L52 148 L54 137 L55 144 L58 177 L60 199 L62 201 L63 176 L65 161 L71 163 L76 175 L79 179 L83 166 L87 159 L97 169 L103 178 L106 181 L108 171 L111 166 L119 173 L125 181 L126 182 L128 171 L130 163 L132 164 L133 169 L134 171 L134 167 L137 150 L140 141 L142 143 L145 155 L147 159 L152 145 L169 85 L180 42 L187 19 L189 17 L189 34 L183 107 L178 217 L177 364 L177 406 L178 425 L179 427 L183 393 L191 342 L197 319 L202 318 L204 332 L206 338 L208 321 L214 282 L219 261 L221 260 L223 265 L223 266 L225 257 L226 249 L229 253 L230 258 L231 269 L232 270 L233 269 L235 269 L239 283 L242 288 L246 287 L259 269 L278 223 L292 136 L300 45 L304 18 L306 14 L306 21 L295 82 L280 212 L273 318 L271 352 L271 354 L271 342 L274 336 L280 350 L289 397 L292 416 L292 380 L292 332 L292 309 L298 320 L303 329 L306 321 L311 310 L315 306 L319 311 L321 315 L322 316 L323 316 " fill="none" stroke="black" /></svg>