<?xml version="1.0" encoding="utf-8" ?>
<svg baseProfile="tiny" height="385" version="1.2" viewBox="-3 -3 1827 385" width="1827" xmlns="http://www.w3.org/2000/svg" xmlns:ev="http://www.w3.org/2001/xml-events" xmlns:xlink="http://www.w3.org/1999/xlink"><defs /><path d="M0 385 L33 369 L78 349 L128 334 L179 321 L219 310 L236 305 L243 303 L249 301 L253 299 L261 298 L276 292 L297 286 L313 282 L328 280 L343 279 L366 276 L386 273 L400 273 L413 272 L432 269 L445 268 L454 267 L462 267 L471 266 L477 265 L485 264 L493 261 L500 261 L508 260 L519 258 L525 258 L526 258 L530 258 L553 258 L681 268 L833 279 L947 276 L960 273 L959 273 L959 272 L959 271 L958 271 L957 268 L956 266 L945 259 L926 250 L948 250 L996 254 L1048 262 L1100 268 L1142 268 L1152 268 L1154 268 L1164 260 L1189 243 L1227 217 L1266 192 L1286 179 L1303 170 L1308 166 L1312 165 L1320 162 L1330 159 L1344 156 L1358 152 L1373 150 L1384 149 L1393 148 L1404 145 L1415 140 L1426 134 L1439 128 L1452 123 L1464 117 L1475 112 L1489 107 L1504 103 L1518 99 L1533 95 L1549 90 L1568 84 L1583 80 L1605 71 L1633 62 L1666 51 L1696 41 L1729 30 L1761 19 L1793 10 L1815 4 L1827 0 " fill="none" stroke="black" /></svg>