<?xml version="1.0" encoding="utf-8" ?>
<svg baseProfile="tiny" height="254" version="1.2" viewBox="-3 -3 1565 254" width="1565" xmlns="http://www.w3.org/2000/svg" xmlns:ev="http://www.w3.org/2001/xml-events" xmlns:xlink="http://www.w3.org/1999/xlink"><defs /><path d="M0 1 L4 1 L8 1 L12 1 L16 1 L20 0 L22 0 L23 0 L28 0 L32 0 L38 0 L48 0 L52 0 L55 1 L57 1 L58 3 L64 9 L77 13 L93 14 L102 14 L107 14 L111 14 L119 13 L130 13 L141 12 L147 12 L153 12 L160 12 L162 12 L165 13 L170 13 L174 13 L178 14 L184 15 L186 16 L191 18 L197 20 L201 22 L210 23 L223 18 L237 10 L243 8 L245 8 L247 8 L253 9 L262 12 L271 12 L280 13 L289 13 L297 14 L301 15 L306 16 L310 17 L314 19 L319 21 L327 24 L335 25 L346 26 L357 26 L365 27 L373 29 L383 29 L394 29 L402 29 L406 29 L410 29 L414 29 L417 29 L423 31 L431 33 L439 37 L449 43 L462 47 L472 47 L485 47 L501 47 L518 47 L532 47 L542 47 L552 48 L555 48 L561 49 L571 51 L580 52 L591 55 L607 59 L625 62 L639 64 L651 65 L660 65 L668 65 L674 65 L680 65 L686 65 L691 65 L699 66 L709 66 L715 66 L718 66 L724 66 L731 66 L737 67 L745 70 L758 74 L770 78 L778 83 L785 90 L795 98 L805 102 L813 103 L821 103 L830 102 L845 101 L859 101 L871 103 L880 105 L889 108 L897 110 L902 111 L909 112 L922 115 L937 119 L953 123 L970 125 L995 128 L1018 132 L1037 132 L1049 133 L1052 135 L1056 137 L1063 141 L1087 148 L1136 155 L1205 164 L1242 167 L1286 167 L1316 168 L1323 169 L1331 173 L1360 177 L1416 180 L1479 189 L1539 199 L1557 207 L1558 217 L1565 228 L1565 240 L1565 249 L1565 254 " fill="none" stroke="black" /></svg>