<?xml version="1.0" encoding="utf-8" ?>
<svg baseProfile="tiny" height="397" version="1.2" viewBox="-3 -3 1843 397" width="1843" xmlns="http://www.w3.org/2000/svg" xmlns:ev="http://www.w3.org/2001/xml-events" xmlns:xlink="http://www.w3.org/1999/xlink"><defs /><path d="M0 54 L2 49 L10 34 L30 11 L37 0 L39 0 L40 13 L40 38 L48 63 L63 65 L76 55 L80 45 L80 44 L80 57 L96 66 L119 61 L125 54 L125 58 L134 79 L170 102 L206 110 L214 110 L227 112 L244 113 L245 116 L243 131 L255 148 L287 155 L293 155 L292 156 L298 159 L319 164 L325 167 L327 175 L355 197 L420 228 L459 243 L484 253 L518 253 L546 245 L551 240 L562 236 L572 236 L576 244 L601 260 L663 278 L727 293 L752 297 L764 296 L779 291 L792 288 L803 275 L819 262 L823 254 L813 253 L817 271 L867 298 L929 304 L951 301 L953 294 L958 293 L969 293 L968 291 L968 290 L968 296 L973 307 L992 310 L1031 298 L1050 273 L1048 244 L1037 237 L1025 250 L1016 274 L1017 292 L1037 301 L1085 314 L1150 316 L1216 318 L1272 326 L1293 332 L1305 334 L1313 333 L1313 330 L1313 323 L1314 315 L1307 302 L1286 283 L1275 271 L1273 269 L1271 270 L1271 282 L1273 298 L1292 325 L1353 358 L1407 361 L1471 363 L1518 369 L1555 369 L1592 369 L1610 370 L1624 370 L1636 370 L1641 370 L1648 366 L1655 358 L1658 352 L1660 346 L1662 342 L1662 341 L1662 340 L1662 338 L1662 337 L1667 342 L1680 357 L1697 372 L1721 384 L1765 395 L1806 396 L1840 397 L1843 397 L1843 396 L1843 394 L1843 391 L1843 389 L1843 388 L1843 387 L1843 385 " fill="none" stroke="black" /></svg>