<?xml version="1.0" encoding="utf-8" ?>
<svg baseProfile="tiny" height="604" version="1.2" viewBox="-3 -3 1860 604" width="1860" xmlns="http://www.w3.org/2000/svg" xmlns:ev="http://www.w3.org/2001/xml-events" xmlns:xlink="http://www.w3.org/1999/xlink"><defs /><path d="M0 604 L8 596 L22 581 L43 547 L72 492 L112 411 L160 328 L206 265 L260 194 L300 136 L333 91 L353 68 L367 50 L379 37 L389 28 L397 23 L406 18 L418 13 L432 9 L453 5 L472 2 L496 2 L520 2 L539 2 L552 2 L564 2 L576 2 L585 0 L594 0 L599 0 L601 0 L603 1 L607 2 L613 2 L621 2 L630 2 L643 2 L653 2 L666 2 L677 2 L689 2 L700 2 L712 2 L725 2 L739 2 L751 2 L765 3 L781 3 L797 3 L814 3 L831 3 L849 3 L861 3 L874 3 L886 3 L904 3 L923 3 L938 3 L956 3 L975 3 L997 4 L1024 4 L1058 4 L1090 4 L1118 4 L1148 4 L1176 4 L1197 4 L1218 4 L1240 4 L1257 4 L1273 4 L1285 4 L1297 4 L1307 4 L1319 4 L1329 4 L1339 4 L1353 4 L1370 4 L1383 4 L1406 4 L1431 4 L1459 4 L1485 4 L1511 4 L1536 4 L1555 4 L1580 4 L1608 4 L1634 4 L1661 4 L1702 4 L1739 4 L1775 4 L1809 4 L1832 4 L1848 3 L1860 0 " fill="none" stroke="black" /></svg>