<?xml version="1.0" encoding="utf-8" ?>
<svg baseProfile="tiny" height="410" version="1.2" viewBox="-3 -3 1661 410" width="1661" xmlns="http://www.w3.org/2000/svg" xmlns:ev="http://www.w3.org/2001/xml-events" xmlns:xlink="http://www.w3.org/1999/xlink"><defs /><path d="M0 51 L3 65 L24 126 L61 187 L77 191 L81 153 L89 72 L92 10 L92 0 L87 55 L101 171 L136 239 L156 234 L167 170 L182 82 L182 55 L178 76 L177 169 L180 250 L184 259 L196 188 L222 69 L232 12 L232 14 L247 84 L301 221 L336 284 L353 282 L357 213 L357 162 L357 156 L355 190 L354 268 L355 285 L360 235 L363 143 L365 67 L365 61 L365 105 L379 200 L399 235 L423 205 L446 137 L452 106 L447 125 L444 216 L452 261 L463 240 L482 162 L498 96 L499 91 L498 151 L510 234 L526 233 L554 165 L569 122 L569 124 L568 177 L571 248 L579 264 L585 253 L609 193 L671 75 L719 21 L719 33 L703 130 L702 233 L729 270 L752 247 L799 151 L829 86 L833 78 L820 130 L804 229 L804 257 L816 228 L833 146 L834 100 L834 97 L834 148 L837 243 L855 286 L876 263 L907 177 L929 120 L929 126 L929 183 L940 253 L966 283 L996 202 L1036 109 L1057 68 L1056 82 L1054 185 L1079 269 L1103 278 L1117 225 L1132 143 L1136 98 L1136 94 L1136 146 L1153 210 L1165 221 L1182 175 L1209 101 L1218 73 L1218 77 L1218 135 L1223 225 L1234 243 L1247 208 L1261 146 L1274 93 L1274 91 L1266 135 L1268 210 L1278 228 L1290 188 L1308 129 L1313 115 L1319 149 L1358 223 L1390 236 L1422 192 L1432 114 L1433 88 L1433 107 L1442 192 L1478 285 L1496 302 L1511 253 L1533 167 L1551 113 L1551 115 L1560 189 L1588 241 L1620 247 L1648 217 L1661 207 L1661 229 L1661 269 L1661 304 L1661 320 L1661 338 L1661 353 L1661 372 L1661 392 L1661 408 L1661 410 " fill="none" stroke="black" /></svg>