<?xml version="1.0" encoding="utf-8" ?>
<svg baseProfile="tiny" height="710" version="1.2" viewBox="-3 -3 1777 710" width="1777" xmlns="http://www.w3.org/2000/svg" xmlns:ev="http://www.w3.org/2001/xml-events" xmlns:xlink="http://www.w3.org/1999/xlink"><defs /><path d="M1002 446 L1004 446 L1006 446 L1009 446 L1015 447 L1019 449 L1022 449 L1026 449 L1030 450 L1033 451 L1036 452 L1040 453 L1043 454 L1049 455 L1056 457 L1061 458 L1066 461 L1071 462 L1076 464 L1078 466 L1082 469 L1086 472 L1091 475 L1095 481 L1100 487 L1105 493 L1110 499 L1114 506 L1120 514 L1129 527 L1151 551 L1215 590 L1301 621 L1389 652 L1414 660 L1420 663 L1421 664 L1426 666 L1441 666 L1483 666 L1547 658 L1585 652 L1610 648 L1630 647 L1643 647 L1653 645 L1679 641 L1719 640 L1749 639 L1770 639 L1777 639 " fill="none" stroke="black" /><path d="M1002 446 L1004 446 L1006 446 L1009 446 L1015 447 L1019 449 L1022 449 L1026 449 L1030 450 L1033 451 L1036 452 L1040 453 L1043 454 L1049 455 L1056 457 L1061 458 L1066 461 L1071 462 L1076 464 L1078 466 L1082 469 L1086 472 L1091 475 L1095 481 L1100 487 L1105 493 L1110 499 L1114 506 L1120 514 L1129 527 L1151 551 L1215 590 L1301 621 L1389 652 L1414 660 L1420 663 L1421 664 L1426 666 L1441 666 L1483 666 L1547 658 L1585 652 L1610 648 L1630 647 L1643 647 L1653 645 L1679 641 L1719 640 L1749 639 L1770 639 L1777 639 M23 0 L23 5 L23 21 L23 44 L14 69 L9 87 L5 100 L2 112 L0 125 L0 136 L0 156 L0 176 L1 194 L6 217 L11 242 L18 267 L25 287 L33 312 L43 330 L52 348 L62 367 L76 389 L93 410 L110 431 L129 451 L143 466 L157 480 L167 487 L177 492 L190 500 L208 511 L228 524 L252 536 L271 545 L288 553 L305 561 L322 566 L342 573 L364 580 L385 585 L403 589 L424 594 L440 598 L455 600 L467 601 L477 601 L485 602 L493 603 L500 605 L510 606 L520 607 L527 608 L531 608 L536 609 L541 610 L545 610 L557 610 " fill="none" stroke="black" /><path d="M1002 446 L1004 446 L1006 446 L1009 446 L1015 447 L1019 449 L1022 449 L1026 449 L1030 450 L1033 451 L1036 452 L1040 453 L1043 454 L1049 455 L1056 457 L1061 458 L1066 461 L1071 462 L1076 464 L1078 466 L1082 469 L1086 472 L1091 475 L1095 481 L1100 487 L1105 493 L1110 499 L1114 506 L1120 514 L1129 527 L1151 551 L1215 590 L1301 621 L1389 652 L1414 660 L1420 663 L1421 664 L1426 666 L1441 666 L1483 666 L1547 658 L1585 652 L1610 648 L1630 647 L1643 647 L1653 645 L1679 641 L1719 640 L1749 639 L1770 639 L1777 639 M23 0 L23 5 L23 21 L23 44 L14 69 L9 87 L5 100 L2 112 L0 125 L0 136 L0 156 L0 176 L1 194 L6 217 L11 242 L18 267 L25 287 L33 312 L43 330 L52 348 L62 367 L76 389 L93 410 L110 431 L129 451 L143 466 L157 480 L167 487 L177 492 L190 500 L208 511 L228 524 L252 536 L271 545 L288 553 L305 561 L322 566 L342 573 L364 580 L385 585 L403 589 L424 594 L440 598 L455 600 L467 601 L477 601 L485 602 L493 603 L500 605 L510 606 L520 607 L527 608 L531 608 L536 609 L541 610 L545 610 L557 610 M556 609 L558 609 L574 609 L598 608 L619 604 L641 599 L662 592 L676 586 L690 576 L708 559 L725 540 L754 515 L782 497 L814 482 L843 476 L876 475 L911 474 L970 474 L1018 474 L1064 481 L1137 497 L1209 513 L1254 536 L1293 567 L1334 613 L1351 659 L1368 694 L1379 702 L1384 705 L1390 709 L1404 710 L1433 710 L1464 710 L1503 710 L1543 708 L1600 704 L1646 703 L1688 698 L1718 696 L1744 693 " fill="none" stroke="black" /></svg>