<?xml version="1.0" encoding="utf-8" ?>
<svg baseProfile="tiny" height="243" version="1.2" viewBox="-3 -3 1840 243" width="1840" xmlns="http://www.w3.org/2000/svg" xmlns:ev="http://www.w3.org/2001/xml-events" xmlns:xlink="http://www.w3.org/1999/xlink"><defs /><path d="M0 54 L21 39 L56 13 L76 0 L84 7 L94 38 L97 103 L96 143 L93 159 L97 155 L115 134 L142 116 L180 113 L226 112 L252 113 L266 120 L271 124 L272 124 L274 125 L278 125 L281 126 L286 128 L295 129 L303 129 L315 125 L333 125 L345 125 L358 129 L378 133 L403 138 L418 143 L425 145 L429 147 L432 149 L434 155 L436 165 L444 179 L461 190 L481 198 L503 203 L533 203 L562 203 L603 204 L648 204 L691 207 L725 212 L776 220 L811 224 L833 227 L857 228 L871 228 L849 222 L803 218 L779 222 L774 228 L801 231 L890 231 L1008 231 L1092 231 L1164 232 L1198 236 L1207 236 L1209 236 L1212 237 L1215 238 L1221 239 L1237 242 L1273 242 L1308 242 L1343 243 L1372 243 L1400 243 L1419 243 L1449 243 L1493 242 L1532 241 L1574 240 L1613 238 L1644 235 L1668 234 L1698 234 L1731 233 L1784 232 L1840 228 L1840 225 L1840 222 L1840 220 L1840 218 " fill="none" stroke="black" /></svg>