<?xml version="1.0" encoding="utf-8" ?>
<svg baseProfile="tiny" height="266" version="1.2" viewBox="-3 -3 1824 266" width="1824" xmlns="http://www.w3.org/2000/svg" xmlns:ev="http://www.w3.org/2001/xml-events" xmlns:xlink="http://www.w3.org/1999/xlink"><defs /><path d="M0 0 L1 0 L2 1 L6 10 L12 20 L18 28 L29 36 L41 41 L48 44 L51 46 L54 46 L58 46 L61 45 L63 45 L73 50 L97 58 L126 62 L130 63 L130 65 L133 67 L138 68 L141 72 L150 80 L173 88 L186 92 L193 97 L204 106 L211 110 L211 111 L209 118 L205 124 L203 128 L200 133 L199 138 L202 141 L211 142 L232 145 L245 151 L256 156 L262 161 L266 165 L271 170 L273 173 L277 177 L284 181 L292 182 L295 183 L300 187 L307 190 L314 194 L323 197 L334 199 L348 202 L361 204 L372 204 L383 205 L392 205 L399 207 L409 209 L417 211 L426 213 L436 215 L446 215 L454 217 L464 217 L472 217 L479 219 L488 221 L497 222 L506 224 L517 225 L530 225 L542 226 L553 228 L561 228 L564 228 L570 227 L597 220 L633 218 L658 218 L680 223 L713 229 L738 231 L757 232 L763 230 L763 226 L764 226 L790 226 L840 226 L872 229 L941 233 L987 234 L977 234 L964 236 L977 237 L1003 237 L1017 239 L1061 240 L1158 238 L1206 238 L1214 244 L1251 253 L1274 256 L1284 257 L1303 258 L1323 259 L1334 260 L1365 261 L1395 261 L1415 261 L1446 261 L1474 261 L1502 261 L1531 263 L1557 263 L1580 263 L1606 264 L1640 265 L1679 265 L1727 266 L1790 266 L1824 266 L1824 264 L1824 253 L1824 239 " fill="none" stroke="black" /></svg>