<?xml version="1.0" encoding="utf-8" ?>
<svg baseProfile="tiny" height="866" version="1.2" viewBox="-3 -3 849 866" width="849" xmlns="http://www.w3.org/2000/svg" xmlns:ev="http://www.w3.org/2001/xml-events" xmlns:xlink="http://www.w3.org/1999/xlink"><defs /><path d="M0 866 L1 864 L3 862 L5 858 L7 854 L9 849 L12 844 L13 841 L16 837 L19 834 L21 829 L25 825 L29 821 L32 817 L36 811 L40 806 L44 801 L47 796 L51 789 L56 782 L61 775 L65 769 L69 762 L74 754 L80 746 L87 736 L94 725 L104 711 L114 698 L124 684 L132 673 L139 664 L145 655 L151 648 L156 641 L162 633 L170 624 L177 616 L186 606 L194 597 L205 586 L213 578 L224 566 L233 558 L243 549 L253 539 L265 529 L277 517 L292 505 L306 492 L320 479 L336 465 L351 452 L368 435 L384 420 L404 401 L424 379 L443 360 L465 338 L484 319 L505 298 L523 282 L543 265 L564 248 L592 226 L620 202 L658 167 L692 137 L735 99 L769 69 L798 43 L826 20 L849 0 " fill="none" stroke="black" /></svg>