<?xml version="1.0" encoding="utf-8" ?>
<svg baseProfile="tiny" height="405" version="1.2" viewBox="-3 -3 1786 405" width="1786" xmlns="http://www.w3.org/2000/svg" xmlns:ev="http://www.w3.org/2001/xml-events" xmlns:xlink="http://www.w3.org/1999/xlink"><defs /><path d="M0 46 L2 48 L7 51 L18 53 L29 54 L44 54 L72 49 L106 39 L141 22 L157 12 L165 5 L171 1 L174 1 L175 0 L178 0 L180 0 L181 0 L184 1 L186 4 L189 8 L192 11 L196 16 L197 18 L199 21 L200 22 L203 23 L204 24 L206 25 L209 26 L214 27 L218 28 L223 30 L226 32 L229 34 L232 37 L236 41 L239 43 L241 45 L243 46 L245 46 L247 47 L251 49 L254 50 L258 53 L268 58 L282 64 L295 69 L308 74 L317 78 L322 79 L324 80 L327 81 L329 81 L332 82 L336 83 L339 85 L344 86 L351 88 L355 90 L360 92 L365 93 L369 95 L376 98 L384 101 L392 103 L403 106 L406 107 L407 108 L408 108 L412 110 L423 115 L432 118 L442 124 L448 127 L452 129 L455 132 L459 134 L468 138 L476 142 L476 143 L475 145 L475 148 L483 152 L502 162 L529 174 L561 184 L582 191 L589 196 L594 202 L606 212 L619 219 L621 221 L621 222 L622 223 L626 227 L648 238 L671 248 L698 259 L725 268 L733 271 L736 273 L743 278 L754 284 L763 289 L778 296 L794 304 L807 309 L816 313 L820 314 L824 314 L829 314 L837 315 L857 320 L886 327 L905 331 L921 334 L935 338 L951 343 L968 348 L989 355 L1014 362 L1043 371 L1067 378 L1105 386 L1150 393 L1188 398 L1250 400 L1326 401 L1432 404 L1513 405 L1604 403 L1674 402 L1743 402 L1786 401 " fill="none" stroke="black" /></svg>