<?xml version="1.0" encoding="utf-8" ?>
<svg baseProfile="tiny" height="206" version="1.2" viewBox="-3 -3 1728 206" width="1728" xmlns="http://www.w3.org/2000/svg" xmlns:ev="http://www.w3.org/2001/xml-events" xmlns:xlink="http://www.w3.org/1999/xlink"><defs /><path d="M24 167 L48 153 L78 121 L88 79 L75 41 L54 12 L26 0 L8 5 L0 23 L0 43 L4 64 L13 80 L23 100 L35 118 L54 135 L73 150 L101 164 L130 171 L158 177 L182 182 L212 188 L238 190 L257 192 L278 196 L300 196 L325 196 L350 196 L375 197 L395 198 L406 198 L421 200 L440 200 L450 200 L455 200 L467 200 L480 200 L491 200 L504 200 L520 200 L537 200 L557 200 L572 200 L592 200 L612 200 L634 200 L653 200 L679 200 L721 200 L765 200 L793 200 L817 200 L845 200 L865 200 L890 200 L915 200 L941 200 L965 200 L1001 200 L1042 201 L1083 201 L1127 201 L1172 201 L1224 201 L1266 201 L1322 200 L1385 200 L1466 200 L1530 201 L1635 201 L1728 205 L1728 206 " fill="none" stroke="black" /></svg>