<?xml version="1.0" encoding="utf-8" ?>
<svg baseProfile="tiny" height="20" version="1.2" viewBox="-3 -3 1879 20" width="1879" xmlns="http://www.w3.org/2000/svg" xmlns:ev="http://www.w3.org/2001/xml-events" xmlns:xlink="http://www.w3.org/1999/xlink"><defs /><path d="M0 7 L2 5 L11 4 L22 4 L34 4 L46 4 L61 4 L73 4 L91 4 L107 4 L119 4 L130 4 L142 4 L158 4 L172 4 L183 4 L196 4 L211 4 L222 4 L236 4 L250 4 L264 4 L281 4 L297 4 L314 4 L329 4 L346 4 L364 4 L382 4 L397 4 L416 4 L431 4 L447 5 L462 5 L477 5 L493 6 L505 6 L520 6 L537 6 L553 6 L568 6 L584 6 L598 6 L614 6 L624 6 L636 6 L646 6 L657 6 L666 7 L678 7 L692 7 L709 7 L728 7 L744 7 L760 7 L774 8 L786 8 L796 8 L809 9 L823 9 L836 9 L853 9 L869 9 L882 9 L894 9 L910 9 L922 9 L938 9 L955 9 L972 10 L993 10 L1010 10 L1028 10 L1047 10 L1067 12 L1092 13 L1124 13 L1153 13 L1186 13 L1219 13 L1248 13 L1277 13 L1300 13 L1325 13 L1349 12 L1381 12 L1410 11 L1441 11 L1466 10 L1498 10 L1523 10 L1544 10 L1570 14 L1591 16 L1627 17 L1681 19 L1751 20 L1816 20 L1879 20 L1879 15 L1879 9 L1879 4 L1879 0 " fill="none" stroke="black" /></svg>