<?xml version="1.0" encoding="utf-8" ?>
<svg baseProfile="tiny" height="192" version="1.2" viewBox="-3 -3 1783 192" width="1783" xmlns="http://www.w3.org/2000/svg" xmlns:ev="http://www.w3.org/2001/xml-events" xmlns:xlink="http://www.w3.org/1999/xlink"><defs /><path d="M0 0 L13 0 L30 0 L46 0 L50 0 L48 0 L45 1 L52 1 L55 1 L40 1 L45 3 L66 5 L64 5 L63 6 L84 7 L86 7 L77 7 L98 8 L119 7 L109 3 L113 3 L182 4 L190 3 L129 2 L142 12 L181 19 L162 19 L161 20 L215 20 L225 21 L193 22 L206 28 L231 31 L203 31 L182 36 L212 47 L219 49 L224 49 L263 49 L273 50 L257 60 L290 79 L333 88 L331 89 L351 90 L411 90 L409 90 L386 91 L400 92 L429 90 L419 89 L404 93 L467 100 L502 100 L496 103 L502 110 L573 112 L598 112 L567 114 L565 117 L613 117 L623 113 L662 113 L763 109 L795 103 L792 103 L792 104 L806 105 L809 105 L807 108 L835 113 L886 113 L892 113 L883 115 L910 116 L948 116 L946 118 L945 124 L991 126 L1025 129 L1025 137 L1045 147 L1116 150 L1168 151 L1184 158 L1251 164 L1345 166 L1403 166 L1414 166 L1432 166 L1452 166 L1460 166 L1461 166 L1464 166 L1476 170 L1516 178 L1566 186 L1596 189 L1640 190 L1685 190 L1715 190 L1731 190 L1742 191 L1743 192 L1728 186 L1711 179 L1747 179 L1783 178 L1783 177 " fill="none" stroke="black" /></svg>