<?xml version="1.0" encoding="utf-8" ?>
<svg baseProfile="tiny" height="453" version="1.2" viewBox="-3 -3 1552 453" width="1552" xmlns="http://www.w3.org/2000/svg" xmlns:ev="http://www.w3.org/2001/xml-events" xmlns:xlink="http://www.w3.org/1999/xlink"><defs /><path d="M0 0 L0 4 L0 9 L0 13 L0 16 L0 20 L0 23 L1 29 L2 33 L4 38 L7 45 L10 51 L14 58 L17 64 L20 70 L23 74 L24 77 L25 79 L25 83 L26 86 L27 92 L28 96 L29 102 L31 104 L32 107 L34 111 L37 116 L40 121 L43 127 L47 132 L51 136 L55 141 L59 145 L63 149 L67 153 L72 157 L77 161 L81 165 L86 169 L90 173 L93 176 L96 179 L100 182 L102 185 L105 187 L109 190 L114 194 L118 197 L123 200 L128 203 L132 205 L134 206 L138 207 L140 209 L143 210 L147 211 L151 214 L156 215 L162 218 L168 221 L175 224 L183 227 L191 230 L198 232 L203 234 L209 235 L215 236 L220 238 L228 240 L233 241 L238 242 L244 243 L248 244 L252 245 L258 246 L265 247 L270 248 L277 250 L284 251 L290 253 L297 254 L306 255 L313 256 L320 256 L329 257 L338 257 L346 257 L352 257 L360 257 L369 257 L380 257 L391 258 L406 259 L420 259 L439 264 L461 268 L485 274 L510 280 L537 287 L566 293 L591 298 L622 305 L656 311 L689 314 L717 318 L747 324 L769 329 L791 333 L807 335 L826 338 L842 340 L858 343 L876 347 L896 350 L920 354 L942 358 L964 362 L982 367 L1001 371 L1017 374 L1036 379 L1054 382 L1072 386 L1095 390 L1113 393 L1131 396 L1146 398 L1166 402 L1190 405 L1222 408 L1254 412 L1294 414 L1323 416 L1360 419 L1392 422 L1423 427 L1462 432 L1501 437 L1543 444 L1552 449 L1552 453 L1552 448 L1552 429 L1552 395 L1552 372 L1552 353 L1552 337 L1552 328 L1552 326 L1552 325 " fill="none" stroke="black" /></svg>