<?xml version="1.0" encoding="utf-8" ?>
<svg baseProfile="tiny" height="238" version="1.2" viewBox="-3 -3 1724 238" width="1724" xmlns="http://www.w3.org/2000/svg" xmlns:ev="http://www.w3.org/2001/xml-events" xmlns:xlink="http://www.w3.org/1999/xlink"><defs /><path d="M0 52 L47 72 L115 82 L181 100 L227 113 L253 122 L258 127 L262 128 L290 120 L313 114 L313 117 L322 123 L338 125 L341 126 L345 128 L349 130 L352 132 L362 134 L371 134 L376 134 L384 133 L387 132 L390 130 L397 126 L412 118 L436 101 L465 83 L483 77 L485 85 L499 130 L541 155 L624 149 L701 123 L741 98 L752 88 L753 88 L754 89 L758 91 L765 96 L773 102 L778 107 L782 111 L785 114 L789 116 L796 120 L812 122 L832 124 L857 124 L888 115 L939 93 L1014 53 L1062 16 L1081 1 L1082 0 L1082 1 L1083 7 L1088 18 L1098 32 L1113 47 L1127 57 L1143 62 L1169 63 L1202 60 L1240 48 L1271 36 L1294 24 L1306 19 L1307 18 L1310 19 L1317 23 L1330 30 L1345 36 L1367 50 L1390 70 L1411 94 L1431 110 L1445 113 L1465 106 L1492 85 L1522 59 L1537 51 L1542 51 L1544 51 L1547 53 L1548 54 L1548 57 L1551 73 L1560 93 L1568 99 L1578 89 L1594 61 L1608 46 L1609 51 L1617 82 L1628 108 L1637 120 L1638 121 L1641 121 L1650 121 L1666 122 L1680 125 L1683 127 L1685 129 L1686 133 L1689 139 L1695 147 L1701 153 L1705 156 L1709 158 L1714 161 L1722 165 L1724 168 L1724 171 L1724 173 " fill="none" stroke="black" /><path d="M0 52 L47 72 L115 82 L181 100 L227 113 L253 122 L258 127 L262 128 L290 120 L313 114 L313 117 L322 123 L338 125 L341 126 L345 128 L349 130 L352 132 L362 134 L371 134 L376 134 L384 133 L387 132 L390 130 L397 126 L412 118 L436 101 L465 83 L483 77 L485 85 L499 130 L541 155 L624 149 L701 123 L741 98 L752 88 L753 88 L754 89 L758 91 L765 96 L773 102 L778 107 L782 111 L785 114 L789 116 L796 120 L812 122 L832 124 L857 124 L888 115 L939 93 L1014 53 L1062 16 L1081 1 L1082 0 L1082 1 L1083 7 L1088 18 L1098 32 L1113 47 L1127 57 L1143 62 L1169 63 L1202 60 L1240 48 L1271 36 L1294 24 L1306 19 L1307 18 L1310 19 L1317 23 L1330 30 L1345 36 L1367 50 L1390 70 L1411 94 L1431 110 L1445 113 L1465 106 L1492 85 L1522 59 L1537 51 L1542 51 L1544 51 L1547 53 L1548 54 L1548 57 L1551 73 L1560 93 L1568 99 L1578 89 L1594 61 L1608 46 L1609 51 L1617 82 L1628 108 L1637 120 L1638 121 L1641 121 L1650 121 L1666 122 L1680 125 L1683 127 L1685 129 L1686 133 L1689 139 L1695 147 L1701 153 L1705 156 L1709 158 L1714 161 L1722 165 L1724 168 L1724 171 L1724 173 M1088 142 L1098 142 L1106 140 L1110 135 L1115 126 L1108 110 L1075 94 L1067 99 L1114 116 L1223 120 L1272 122 L1284 128 L1297 134 L1327 141 L1350 147 L1371 155 L1398 162 L1419 165 L1423 165 L1416 162 L1423 162 L1457 169 L1497 174 L1514 179 L1538 186 L1570 194 L1587 200 L1593 209 L1604 223 L1618 234 L1649 238 L1691 238 L1724 238 L1724 237 L1724 236 L1724 235 " fill="none" stroke="black" /></svg>