<?xml version="1.0" encoding="utf-8" ?>
<svg baseProfile="tiny" height="719" version="1.2" viewBox="-3 -3 1795 719" width="1795" xmlns="http://www.w3.org/2000/svg" xmlns:ev="http://www.w3.org/2001/xml-events" xmlns:xlink="http://www.w3.org/1999/xlink"><defs /><path d="M0 719 L6 717 L9 717 L14 716 L18 715 L23 715 L30 715 L36 713 L42 713 L48 713 L52 712 L57 712 L61 711 L65 709 L71 708 L79 707 L87 704 L95 703 L101 701 L106 701 L109 701 L113 701 L119 701 L126 701 L132 701 L141 701 L152 701 L161 701 L165 700 L169 700 L175 700 L181 700 L188 699 L196 699 L203 699 L209 699 L215 699 L223 699 L229 699 L232 699 L238 699 L245 699 L252 699 L259 699 L270 699 L282 697 L293 695 L303 695 L314 694 L323 694 L333 694 L344 693 L353 693 L361 693 L370 692 L381 691 L390 691 L403 690 L415 687 L424 685 L435 683 L448 680 L457 678 L466 677 L478 676 L488 676 L498 674 L510 672 L520 670 L531 669 L547 666 L561 663 L574 659 L586 658 L602 655 L619 651 L631 649 L642 649 L653 649 L660 648 L666 647 L677 647 L690 645 L702 645 L716 643 L731 640 L747 636 L766 633 L780 630 L798 626 L814 621 L828 618 L844 614 L860 609 L876 603 L891 598 L909 592 L923 588 L939 583 L952 580 L970 576 L986 573 L1004 570 L1027 566 L1048 563 L1069 557 L1090 551 L1119 540 L1148 528 L1186 512 L1220 501 L1252 491 L1278 484 L1297 479 L1319 471 L1336 462 L1354 451 L1373 438 L1395 422 L1415 405 L1437 387 L1455 373 L1471 360 L1479 354 L1488 346 L1501 335 L1516 322 L1530 309 L1541 300 L1555 287 L1566 277 L1575 267 L1585 256 L1595 246 L1603 237 L1613 227 L1623 217 L1634 208 L1645 199 L1658 188 L1674 173 L1690 159 L1711 137 L1733 115 L1757 89 L1780 63 L1795 42 L1793 21 L1793 5 L1792 0 " fill="none" stroke="black" /></svg>