<?xml version="1.0" encoding="utf-8" ?>
<svg baseProfile="tiny" height="66" version="1.2" viewBox="-3 -3 903 66" width="903" xmlns="http://www.w3.org/2000/svg" xmlns:ev="http://www.w3.org/2001/xml-events" xmlns:xlink="http://www.w3.org/1999/xlink"><defs /><path d="M0 27 L0 28 L2 35 L10 48 L16 54 L21 59 L24 60 L28 61 L34 61 L41 61 L47 61 L54 61 L60 61 L70 58 L76 57 L83 54 L89 50 L97 44 L105 40 L109 36 L120 29 L124 25 L131 22 L133 20 L139 18 L145 15 L155 13 L161 9 L167 7 L178 4 L183 2 L188 2 L192 0 L196 0 L202 0 L207 0 L210 0 L215 1 L222 2 L228 4 L234 7 L241 11 L245 14 L254 23 L261 29 L268 40 L273 44 L279 49 L282 50 L289 53 L298 56 L307 58 L313 60 L322 61 L332 65 L345 66 L356 66 L361 66 L366 66 L373 66 L381 63 L388 59 L394 56 L397 55 L403 52 L406 51 L410 49 L415 45 L420 41 L429 36 L433 33 L437 30 L442 27 L444 26 L448 23 L453 21 L456 19 L460 19 L463 17 L466 17 L468 16 L469 16 L471 16 L476 14 L480 13 L482 13 L485 13 L488 13 L489 13 L493 13 L499 13 L502 13 L507 13 L513 13 L521 13 L536 13 L545 16 L554 16 L559 16 L570 18 L575 21 L580 23 L585 26 L596 31 L604 33 L615 36 L625 39 L633 41 L639 42 L651 48 L660 50 L670 52 L677 55 L690 57 L704 60 L714 60 L720 60 L725 60 L731 57 L737 51 L746 46 L749 43 L755 40 L760 34 L766 27 L771 23 L779 14 L785 11 L789 9 L794 8 L796 8 L801 5 L807 5 L812 4 L815 4 L821 4 L828 4 L838 4 L847 4 L859 4 L873 9 L888 16 L897 20 L902 23 L903 24 " fill="none" stroke="black" /></svg>