<?xml version="1.0" encoding="utf-8" ?>
<svg baseProfile="tiny" height="249" version="1.2" viewBox="-3 -3 276 249" width="276" xmlns="http://www.w3.org/2000/svg" xmlns:ev="http://www.w3.org/2001/xml-events" xmlns:xlink="http://www.w3.org/1999/xlink"><defs /><path d="M152 133 L152 128 L144 120 L134 111 L126 103 L122 101 L118 100 L116 98 L113 97 L109 97 L106 97 L100 97 L93 97 L84 97 L75 98 L71 100 L65 103 L61 106 L53 115 L49 122 L45 133 L44 139 L44 147 L44 155 L44 166 L45 175 L46 187 L48 192 L50 194 L53 198 L59 202 L68 204 L77 210 L89 214 L100 218 L110 222 L118 222 L125 222 L132 222 L140 222 L148 222 L160 218 L167 215 L175 213 L184 208 L194 201 L202 192 L208 183 L214 164 L220 147 L225 126 L228 107 L229 97 L230 87 L230 75 L230 65 L230 58 L230 51 L230 46 L225 38 L218 29 L211 25 L200 17 L193 15 L187 10 L178 6 L169 2 L164 1 L161 1 L156 0 L150 0 L144 0 L141 0 L135 0 L128 0 L122 4 L118 6 L110 8 L101 13 L90 19 L83 24 L68 34 L58 40 L50 46 L38 57 L29 66 L21 77 L17 88 L9 102 L5 118 L1 129 L0 139 L0 149 L0 155 L0 161 L0 169 L0 176 L3 183 L6 193 L10 200 L15 205 L21 211 L33 217 L39 222 L47 226 L55 230 L66 236 L78 240 L90 245 L107 247 L119 249 L131 249 L144 249 L155 249 L166 249 L177 244 L188 237 L197 232 L205 225 L212 221 L218 215 L227 207 L234 200 L240 193 L248 181 L254 170 L256 163 L262 149 L266 138 L268 126 L268 116 L271 107 L272 98 L274 92 L275 86 L276 82 L276 77 L276 70 L276 67 L276 60 L276 56 L276 55 L276 50 L276 49 L276 48 " fill="none" stroke="black" /></svg>