<?xml version="1.0" encoding="utf-8" ?>
<svg baseProfile="tiny" height="338" version="1.2" viewBox="-3 -3 639 338" width="639" xmlns="http://www.w3.org/2000/svg" xmlns:ev="http://www.w3.org/2001/xml-events" xmlns:xlink="http://www.w3.org/1999/xlink"><defs /><path d="M308 7 L334 6 L375 6 L402 2 L413 1 L426 0 L459 0 L490 2 L518 4 L553 4 L556 4 L557 5 L551 14 L537 28 L519 36 L492 46 L469 49 L435 54 L390 59 L367 62 L333 68 L290 75 L258 80 L230 85 L197 87 L165 94 L137 98 L115 101 L88 108 L51 113 L12 122 L0 123 L4 124 L29 124 L58 124 L93 124 L140 124 L186 124 L211 126 L237 127 L261 127 L296 127 L332 127 L366 127 L407 127 L483 132 L553 138 L618 142 L619 142 L620 143 L578 153 L514 178 L455 194 L367 196 L313 196 L267 196 L241 201 L220 206 L199 210 L168 213 L129 213 L67 213 L26 213 L19 214 L24 214 L56 214 L91 214 L164 214 L215 214 L256 214 L296 214 L324 214 L352 214 L404 214 L437 214 L496 214 L566 214 L636 214 L638 214 L639 216 L626 223 L588 233 L537 239 L507 244 L486 248 L465 253 L436 261 L392 272 L356 273 L322 277 L311 278 L301 280 L294 282 L286 284 L275 289 L269 293 L266 293 L259 294 L255 295 L254 295 L258 294 L268 291 L285 290 L306 288 L313 287 L304 289 L269 295 L266 297 L286 297 L323 294 L332 293 L334 293 L333 294 L354 294 L371 294 L372 298 L339 323 L326 332 L341 327 L342 326 L339 327 L326 333 L351 324 L371 311 L349 324 L334 334 L356 329 L397 313 L384 326 L374 338 L382 334 L393 328 L392 328 L395 328 L424 314 L431 311 L430 314 L424 321 L434 312 L461 295 L467 292 L468 295 L465 306 L465 302 L469 292 L469 290 L469 293 L482 279 L504 255 L505 251 " fill="none" stroke="black" /></svg>