<?xml version="1.0" encoding="utf-8" ?>
<svg baseProfile="tiny" height="121" version="1.2" viewBox="-3 -3 407 121" width="407" xmlns="http://www.w3.org/2000/svg" xmlns:ev="http://www.w3.org/2001/xml-events" xmlns:xlink="http://www.w3.org/1999/xlink"><defs /><path d="M92 18 L85 15 L74 12 L59 11 L41 11 L26 20 L10 35 L4 47 L0 62 L0 69 L0 78 L1 89 L3 100 L7 107 L12 113 L18 118 L28 121 L45 121 L59 109 L68 100 L83 86 L96 76 L106 70 L117 64 L128 52 L137 41 L148 25 L162 7 L164 2 L168 0 L173 0 L177 0 L179 0 L184 1 L197 8 L207 16 L213 24 L215 28 L216 30 L211 28 L203 25 L196 21 L184 21 L172 21 L160 26 L152 40 L147 54 L146 63 L146 70 L146 74 L146 75 L146 76 L146 77 L153 82 L167 85 L175 85 L179 85 L187 81 L194 79 L199 75 L204 65 L210 58 L213 52 L218 42 L227 29 L236 21 L244 12 L249 8 L257 7 L268 4 L276 4 L283 4 L294 4 L305 9 L309 13 L312 17 L313 19 L313 20 L304 16 L288 9 L284 7 L282 7 L280 7 L277 7 L269 14 L263 27 L261 34 L259 42 L259 46 L259 48 L260 53 L263 59 L268 66 L275 77 L279 88 L282 93 L286 100 L288 102 L298 102 L303 102 L309 100 L316 92 L323 84 L328 77 L334 68 L340 58 L345 52 L349 45 L353 40 L356 36 L357 35 L359 35 L363 34 L369 33 L374 32 L382 31 L383 31 L387 31 L389 31 L391 33 L394 36 L394 37 L388 37 L379 37 L373 37 L368 37 L363 37 L361 37 L359 39 L357 40 L356 44 L352 53 L349 62 L348 69 L348 73 L348 81 L348 87 L348 91 L348 94 L348 101 L348 104 L351 106 L355 107 L372 107 L382 101 L386 98 L395 90 L403 84 L407 80 L407 79 " fill="none" stroke="black" /></svg>