<?xml version="1.0" encoding="utf-8" ?>
<svg baseProfile="tiny" height="308" version="1.2" viewBox="-3 -3 249 308" width="249" xmlns="http://www.w3.org/2000/svg" xmlns:ev="http://www.w3.org/2001/xml-events" xmlns:xlink="http://www.w3.org/1999/xlink"><defs /><path d="M91 65 L96 65 L101 65 L113 65 L133 65 L143 69 L146 72 L150 75 L153 81 L156 87 L157 95 L161 104 L161 114 L161 128 L156 142 L151 151 L147 160 L141 171 L134 179 L126 188 L120 193 L112 193 L99 191 L90 185 L81 177 L70 169 L62 158 L57 149 L51 136 L46 116 L44 103 L44 91 L44 77 L44 67 L44 57 L45 45 L49 36 L57 28 L69 24 L83 20 L93 20 L101 20 L108 20 L114 20 L120 22 L133 29 L138 30 L148 35 L158 42 L164 48 L170 55 L175 62 L178 69 L181 84 L183 96 L186 110 L188 122 L188 130 L188 135 L188 151 L186 161 L182 175 L177 186 L176 190 L172 196 L164 209 L153 218 L140 225 L127 233 L121 236 L113 237 L101 237 L88 237 L77 237 L59 234 L43 229 L34 225 L25 219 L19 213 L15 205 L10 195 L6 186 L3 176 L0 163 L0 151 L0 141 L0 127 L0 113 L0 100 L0 82 L0 67 L0 61 L3 56 L5 53 L9 48 L12 45 L20 38 L30 32 L49 23 L65 14 L78 9 L88 4 L96 2 L101 0 L108 0 L118 0 L131 2 L151 8 L163 15 L175 23 L190 33 L200 41 L210 49 L221 63 L230 81 L238 103 L244 126 L247 162 L249 193 L249 226 L249 238 L247 250 L244 260 L238 269 L234 276 L224 287 L215 292 L199 298 L182 302 L166 307 L151 308 L145 308 L131 308 L122 308 L116 307 L110 306 L101 303 L97 303 L89 299 L82 295 L71 289 L62 279 L51 271 L37 264 L29 261 L15 254 L11 252 L10 250 L9 250 " fill="none" stroke="black" /></svg>