<?xml version="1.0" encoding="utf-8" ?>
<svg baseProfile="tiny" height="429" version="1.2" viewBox="-3 -3 744 429" width="744" xmlns="http://www.w3.org/2000/svg" xmlns:ev="http://www.w3.org/2001/xml-events" xmlns:xlink="http://www.w3.org/1999/xlink"><defs /><path d="M0 207 L4 204 L11 182 L18 159 L28 125 L32 105 L33 101 L33 102 L33 136 L33 176 L33 203 L33 229 L33 246 L36 262 L38 270 L40 272 L42 272 L53 245 L66 195 L80 141 L87 101 L92 78 L98 60 L102 44 L108 28 L109 22 L109 55 L109 135 L109 222 L112 308 L117 357 L126 378 L128 384 L130 387 L132 387 L144 356 L158 280 L186 181 L201 115 L213 62 L220 25 L224 3 L224 0 L224 1 L224 19 L224 51 L224 115 L226 190 L228 273 L236 336 L243 378 L250 403 L254 423 L255 427 L255 428 L257 429 L262 408 L274 365 L290 288 L306 229 L320 178 L336 129 L348 94 L352 84 L353 83 L353 91 L357 126 L360 165 L360 204 L360 258 L360 286 L360 294 L360 297 L360 298 L360 299 L364 299 L376 271 L391 216 L415 146 L437 71 L444 48 L448 42 L448 41 L449 41 L453 56 L458 77 L465 118 L479 179 L493 227 L497 249 L501 255 L503 259 L503 260 L504 261 L513 248 L523 215 L537 167 L558 112 L562 96 L564 93 L567 105 L570 137 L574 180 L577 222 L579 251 L581 271 L585 288 L586 298 L589 302 L590 303 L592 303 L598 286 L610 243 L618 204 L623 166 L629 134 L635 112 L636 105 L638 101 L638 116 L640 155 L642 186 L649 221 L654 255 L657 270 L657 273 L658 274 L665 258 L670 231 L678 181 L685 139 L687 119 L689 112 L693 105 L693 103 L694 102 L699 121 L703 142 L710 166 L715 194 L723 221 L730 240 L739 266 L743 281 L744 283 " fill="none" stroke="black" /></svg>