<?xml version="1.0" encoding="utf-8" ?>
<svg baseProfile="tiny" height="196" version="1.2" viewBox="-3 -3 825 196" width="825" xmlns="http://www.w3.org/2000/svg" xmlns:ev="http://www.w3.org/2001/xml-events" xmlns:xlink="http://www.w3.org/1999/xlink"><defs /><path d="M1 101 L0 100 L23 76 L50 48 L60 37 " fill="none" stroke="black" /><path d="M1 101 L0 100 L23 76 L50 48 L60 37 M38 97 L73 56 L102 31 L122 15 L124 14 " fill="none" stroke="black" /><path d="M1 101 L0 100 L23 76 L50 48 L60 37 M38 97 L73 56 L102 31 L122 15 L124 14 M93 55 L147 20 L176 1 L178 0 " fill="none" stroke="black" /><path d="M1 101 L0 100 L23 76 L50 48 L60 37 M38 97 L73 56 L102 31 L122 15 L124 14 M93 55 L147 20 L176 1 L178 0 M153 90 L170 73 L191 57 L198 52 L200 51 " fill="none" stroke="black" /><path d="M1 101 L0 100 L23 76 L50 48 L60 37 M38 97 L73 56 L102 31 L122 15 L124 14 M93 55 L147 20 L176 1 L178 0 M153 90 L170 73 L191 57 L198 52 L200 51 M213 93 L243 76 L264 64 L265 64 L266 63 " fill="none" stroke="black" /><path d="M1 101 L0 100 L23 76 L50 48 L60 37 M38 97 L73 56 L102 31 L122 15 L124 14 M93 55 L147 20 L176 1 L178 0 M153 90 L170 73 L191 57 L198 52 L200 51 M213 93 L243 76 L264 64 L265 64 L266 63 M197 116 L232 95 L265 71 L269 66 L273 65 " fill="none" stroke="black" /><path d="M1 101 L0 100 L23 76 L50 48 L60 37 M38 97 L73 56 L102 31 L122 15 L124 14 M93 55 L147 20 L176 1 L178 0 M153 90 L170 73 L191 57 L198 52 L200 51 M213 93 L243 76 L264 64 L265 64 L266 63 M197 116 L232 95 L265 71 L269 66 L273 65 M232 118 L270 91 L315 64 L330 55 L331 53 " fill="none" stroke="black" /><path d="M1 101 L0 100 L23 76 L50 48 L60 37 M38 97 L73 56 L102 31 L122 15 L124 14 M93 55 L147 20 L176 1 L178 0 M153 90 L170 73 L191 57 L198 52 L200 51 M213 93 L243 76 L264 64 L265 64 L266 63 M197 116 L232 95 L265 71 L269 66 L273 65 M232 118 L270 91 L315 64 L330 55 L331 53 M277 131 L322 101 L343 87 L346 84 " fill="none" stroke="black" /><path d="M1 101 L0 100 L23 76 L50 48 L60 37 M38 97 L73 56 L102 31 L122 15 L124 14 M93 55 L147 20 L176 1 L178 0 M153 90 L170 73 L191 57 L198 52 L200 51 M213 93 L243 76 L264 64 L265 64 L266 63 M197 116 L232 95 L265 71 L269 66 L273 65 M232 118 L270 91 L315 64 L330 55 L331 53 M277 131 L322 101 L343 87 L346 84 M306 132 L338 103 L361 86 L373 78 L377 77 " fill="none" stroke="black" /><path d="M1 101 L0 100 L23 76 L50 48 L60 37 M38 97 L73 56 L102 31 L122 15 L124 14 M93 55 L147 20 L176 1 L178 0 M153 90 L170 73 L191 57 L198 52 L200 51 M213 93 L243 76 L264 64 L265 64 L266 63 M197 116 L232 95 L265 71 L269 66 L273 65 M232 118 L270 91 L315 64 L330 55 L331 53 M277 131 L322 101 L343 87 L346 84 M306 132 L338 103 L361 86 L373 78 L377 77 M379 90 L398 72 L410 61 L413 58 " fill="none" stroke="black" /><path d="M1 101 L0 100 L23 76 L50 48 L60 37 M38 97 L73 56 L102 31 L122 15 L124 14 M93 55 L147 20 L176 1 L178 0 M153 90 L170 73 L191 57 L198 52 L200 51 M213 93 L243 76 L264 64 L265 64 L266 63 M197 116 L232 95 L265 71 L269 66 L273 65 M232 118 L270 91 L315 64 L330 55 L331 53 M277 131 L322 101 L343 87 L346 84 M306 132 L338 103 L361 86 L373 78 L377 77 M379 90 L398 72 L410 61 L413 58 M407 95 L426 72 L459 29 L475 8 L477 6 " fill="none" stroke="black" /><path d="M1 101 L0 100 L23 76 L50 48 L60 37 M38 97 L73 56 L102 31 L122 15 L124 14 M93 55 L147 20 L176 1 L178 0 M153 90 L170 73 L191 57 L198 52 L200 51 M213 93 L243 76 L264 64 L265 64 L266 63 M197 116 L232 95 L265 71 L269 66 L273 65 M232 118 L270 91 L315 64 L330 55 L331 53 M277 131 L322 101 L343 87 L346 84 M306 132 L338 103 L361 86 L373 78 L377 77 M379 90 L398 72 L410 61 L413 58 M407 95 L426 72 L459 29 L475 8 L477 6 M413 131 L431 119 L463 85 L490 59 L502 51 " fill="none" stroke="black" /><path d="M1 101 L0 100 L23 76 L50 48 L60 37 M38 97 L73 56 L102 31 L122 15 L124 14 M93 55 L147 20 L176 1 L178 0 M153 90 L170 73 L191 57 L198 52 L200 51 M213 93 L243 76 L264 64 L265 64 L266 63 M197 116 L232 95 L265 71 L269 66 L273 65 M232 118 L270 91 L315 64 L330 55 L331 53 M277 131 L322 101 L343 87 L346 84 M306 132 L338 103 L361 86 L373 78 L377 77 M379 90 L398 72 L410 61 L413 58 M407 95 L426 72 L459 29 L475 8 L477 6 M413 131 L431 119 L463 85 L490 59 L502 51 M455 118 L472 104 L505 73 L519 60 L525 57 L533 54 " fill="none" stroke="black" /><path d="M1 101 L0 100 L23 76 L50 48 L60 37 M38 97 L73 56 L102 31 L122 15 L124 14 M93 55 L147 20 L176 1 L178 0 M153 90 L170 73 L191 57 L198 52 L200 51 M213 93 L243 76 L264 64 L265 64 L266 63 M197 116 L232 95 L265 71 L269 66 L273 65 M232 118 L270 91 L315 64 L330 55 L331 53 M277 131 L322 101 L343 87 L346 84 M306 132 L338 103 L361 86 L373 78 L377 77 M379 90 L398 72 L410 61 L413 58 M407 95 L426 72 L459 29 L475 8 L477 6 M413 131 L431 119 L463 85 L490 59 L502 51 M455 118 L472 104 L505 73 L519 60 L525 57 L533 54 M511 119 L542 92 L559 75 L568 66 L575 57 L577 51 " fill="none" stroke="black" /><path d="M1 101 L0 100 L23 76 L50 48 L60 37 M38 97 L73 56 L102 31 L122 15 L124 14 M93 55 L147 20 L176 1 L178 0 M153 90 L170 73 L191 57 L198 52 L200 51 M213 93 L243 76 L264 64 L265 64 L266 63 M197 116 L232 95 L265 71 L269 66 L273 65 M232 118 L270 91 L315 64 L330 55 L331 53 M277 131 L322 101 L343 87 L346 84 M306 132 L338 103 L361 86 L373 78 L377 77 M379 90 L398 72 L410 61 L413 58 M407 95 L426 72 L459 29 L475 8 L477 6 M413 131 L431 119 L463 85 L490 59 L502 51 M455 118 L472 104 L505 73 L519 60 L525 57 L533 54 M511 119 L542 92 L559 75 L568 66 L575 57 L577 51 M538 126 L554 113 L574 98 L590 84 L617 67 L639 56 " fill="none" stroke="black" /><path d="M1 101 L0 100 L23 76 L50 48 L60 37 M38 97 L73 56 L102 31 L122 15 L124 14 M93 55 L147 20 L176 1 L178 0 M153 90 L170 73 L191 57 L198 52 L200 51 M213 93 L243 76 L264 64 L265 64 L266 63 M197 116 L232 95 L265 71 L269 66 L273 65 M232 118 L270 91 L315 64 L330 55 L331 53 M277 131 L322 101 L343 87 L346 84 M306 132 L338 103 L361 86 L373 78 L377 77 M379 90 L398 72 L410 61 L413 58 M407 95 L426 72 L459 29 L475 8 L477 6 M413 131 L431 119 L463 85 L490 59 L502 51 M455 118 L472 104 L505 73 L519 60 L525 57 L533 54 M511 119 L542 92 L559 75 L568 66 L575 57 L577 51 M538 126 L554 113 L574 98 L590 84 L617 67 L639 56 M601 123 L643 85 L684 43 L696 30 L690 40 " fill="none" stroke="black" /><path d="M1 101 L0 100 L23 76 L50 48 L60 37 M38 97 L73 56 L102 31 L122 15 L124 14 M93 55 L147 20 L176 1 L178 0 M153 90 L170 73 L191 57 L198 52 L200 51 M213 93 L243 76 L264 64 L265 64 L266 63 M197 116 L232 95 L265 71 L269 66 L273 65 M232 118 L270 91 L315 64 L330 55 L331 53 M277 131 L322 101 L343 87 L346 84 M306 132 L338 103 L361 86 L373 78 L377 77 M379 90 L398 72 L410 61 L413 58 M407 95 L426 72 L459 29 L475 8 L477 6 M413 131 L431 119 L463 85 L490 59 L502 51 M455 118 L472 104 L505 73 L519 60 L525 57 L533 54 M511 119 L542 92 L559 75 L568 66 L575 57 L577 51 M538 126 L554 113 L574 98 L590 84 L617 67 L639 56 M601 123 L643 85 L684 43 L696 30 L690 40 M677 104 L705 68 L727 35 L731 30 " fill="none" stroke="black" /><path d="M1 101 L0 100 L23 76 L50 48 L60 37 M38 97 L73 56 L102 31 L122 15 L124 14 M93 55 L147 20 L176 1 L178 0 M153 90 L170 73 L191 57 L198 52 L200 51 M213 93 L243 76 L264 64 L265 64 L266 63 M197 116 L232 95 L265 71 L269 66 L273 65 M232 118 L270 91 L315 64 L330 55 L331 53 M277 131 L322 101 L343 87 L346 84 M306 132 L338 103 L361 86 L373 78 L377 77 M379 90 L398 72 L410 61 L413 58 M407 95 L426 72 L459 29 L475 8 L477 6 M413 131 L431 119 L463 85 L490 59 L502 51 M455 118 L472 104 L505 73 L519 60 L525 57 L533 54 M511 119 L542 92 L559 75 L568 66 L575 57 L577 51 M538 126 L554 113 L574 98 L590 84 L617 67 L639 56 M601 123 L643 85 L684 43 L696 30 L690 40 M677 104 L705 68 L727 35 L731 30 M680 120 L710 97 L727 84 L737 77 L743 73 L744 73 " fill="none" stroke="black" /><path d="M1 101 L0 100 L23 76 L50 48 L60 37 M38 97 L73 56 L102 31 L122 15 L124 14 M93 55 L147 20 L176 1 L178 0 M153 90 L170 73 L191 57 L198 52 L200 51 M213 93 L243 76 L264 64 L265 64 L266 63 M197 116 L232 95 L265 71 L269 66 L273 65 M232 118 L270 91 L315 64 L330 55 L331 53 M277 131 L322 101 L343 87 L346 84 M306 132 L338 103 L361 86 L373 78 L377 77 M379 90 L398 72 L410 61 L413 58 M407 95 L426 72 L459 29 L475 8 L477 6 M413 131 L431 119 L463 85 L490 59 L502 51 M455 118 L472 104 L505 73 L519 60 L525 57 L533 54 M511 119 L542 92 L559 75 L568 66 L575 57 L577 51 M538 126 L554 113 L574 98 L590 84 L617 67 L639 56 M601 123 L643 85 L684 43 L696 30 L690 40 M677 104 L705 68 L727 35 L731 30 M680 120 L710 97 L727 84 L737 77 L743 73 L744 73 M763 119 L779 106 L787 98 L792 86 L801 63 " fill="none" stroke="black" /><path d="M1 101 L0 100 L23 76 L50 48 L60 37 M38 97 L73 56 L102 31 L122 15 L124 14 M93 55 L147 20 L176 1 L178 0 M153 90 L170 73 L191 57 L198 52 L200 51 M213 93 L243 76 L264 64 L265 64 L266 63 M197 116 L232 95 L265 71 L269 66 L273 65 M232 118 L270 91 L315 64 L330 55 L331 53 M277 131 L322 101 L343 87 L346 84 M306 132 L338 103 L361 86 L373 78 L377 77 M379 90 L398 72 L410 61 L413 58 M407 95 L426 72 L459 29 L475 8 L477 6 M413 131 L431 119 L463 85 L490 59 L502 51 M455 118 L472 104 L505 73 L519 60 L525 57 L533 54 M511 119 L542 92 L559 75 L568 66 L575 57 L577 51 M538 126 L554 113 L574 98 L590 84 L617 67 L639 56 M601 123 L643 85 L684 43 L696 30 L690 40 M677 104 L705 68 L727 35 L731 30 M680 120 L710 97 L727 84 L737 77 L743 73 L744 73 M763 119 L779 106 L787 98 L792 86 L801 63 M782 154 L798 131 L809 113 L818 92 L824 79 L825 78 " fill="none" stroke="black" /><path d="M1 101 L0 100 L23 76 L50 48 L60 37 M38 97 L73 56 L102 31 L122 15 L124 14 M93 55 L147 20 L176 1 L178 0 M153 90 L170 73 L191 57 L198 52 L200 51 M213 93 L243 76 L264 64 L265 64 L266 63 M197 116 L232 95 L265 71 L269 66 L273 65 M232 118 L270 91 L315 64 L330 55 L331 53 M277 131 L322 101 L343 87 L346 84 M306 132 L338 103 L361 86 L373 78 L377 77 M379 90 L398 72 L410 61 L413 58 M407 95 L426 72 L459 29 L475 8 L477 6 M413 131 L431 119 L463 85 L490 59 L502 51 M455 118 L472 104 L505 73 L519 60 L525 57 L533 54 M511 119 L542 92 L559 75 L568 66 L575 57 L577 51 M538 126 L554 113 L574 98 L590 84 L617 67 L639 56 M601 123 L643 85 L684 43 L696 30 L690 40 M677 104 L705 68 L727 35 L731 30 M680 120 L710 97 L727 84 L737 77 L743 73 L744 73 M763 119 L779 106 L787 98 L792 86 L801 63 M782 154 L798 131 L809 113 L818 92 L824 79 L825 78 M797 140 L787 145 L754 159 L706 166 L568 175 L421 183 L288 190 L193 190 L128 194 L79 196 L70 196 L69 191 L69 184 L83 161 L122 144 L162 133 L232 131 L299 131 L362 140 L419 150 L490 161 L552 161 L581 160 L604 155 L617 154 L623 154 L626 154 " fill="none" stroke="black" /></svg>