<?xml version="1.0" encoding="utf-8" ?>
<svg baseProfile="tiny" height="93" version="1.2" viewBox="-3 -3 328 93" width="328" xmlns="http://www.w3.org/2000/svg" xmlns:ev="http://www.w3.org/2001/xml-events" xmlns:xlink="http://www.w3.org/1999/xlink"><defs /><path d="M0 38 L3 34 L10 25 L13 24 L14 24 L18 26 L20 37 L23 45 L23 53 L26 67 L26 76 L27 80 L27 81 L27 77 L27 69 L27 58 L30 49 L34 41 L39 33 L45 27 L47 26 L51 26 L52 26 L56 26 L61 28 L64 33 L70 43 L74 57 L75 64 L77 76 L78 82 L78 86 L78 81 L76 66 L75 49 L75 32 L77 16 L82 7 L87 1 L88 0 L89 0 L92 0 L97 1 L105 8 L111 13 L115 19 L118 24 L122 36 L122 46 L123 56 L123 67 L123 69 L123 68 L125 58 L129 49 L136 35 L140 29 L142 28 L146 27 L149 27 L154 27 L157 31 L163 39 L169 50 L176 62 L180 74 L181 82 L182 87 L182 92 L182 93 L176 79 L176 64 L176 52 L178 45 L181 40 L184 35 L185 34 L189 34 L195 34 L200 38 L204 44 L210 53 L212 60 L212 65 L212 70 L212 73 L212 76 L212 69 L212 57 L212 46 L213 42 L218 36 L222 31 L224 31 L226 31 L231 31 L234 33 L238 39 L243 48 L247 58 L248 66 L250 73 L250 79 L250 82 L249 86 L249 87 L247 88 L246 83 L246 67 L246 41 L249 25 L253 16 L254 14 L257 14 L265 14 L268 14 L274 16 L279 21 L283 30 L287 40 L289 49 L291 60 L291 65 L291 71 L291 76 L289 79 L288 79 L285 75 L281 62 L279 47 L279 33 L279 24 L279 17 L282 12 L284 10 L286 9 L291 9 L295 7 L296 7 L298 7 L303 8 L306 11 L311 17 L316 32 L322 46 L325 57 L327 63 L327 66 L328 68 L328 70 L325 72 " fill="none" stroke="black" /></svg>