<?xml version="1.0" encoding="utf-8" ?>
<svg baseProfile="tiny" height="670" version="1.2" viewBox="-3 -3 968 670" width="968" xmlns="http://www.w3.org/2000/svg" xmlns:ev="http://www.w3.org/2001/xml-events" xmlns:xlink="http://www.w3.org/1999/xlink"><defs /><path d="M260 368 L260 438 L260 441 L265 442 L302 398 L346 307 L357 267 L355 274 L321 385 L305 435 L308 416 L329 299 L341 233 L339 257 L312 368 L305 416 L325 349 L371 202 L363 209 L305 384 L302 409 L330 356 L437 62 L448 12 L405 90 L309 383 L339 387 L512 148 L561 28 L544 45 L409 295 L347 457 L380 437 L600 195 L658 97 L644 122 L436 515 L340 670 L477 507 L662 226 L716 91 L620 168 L302 451 L255 511 L484 348 L611 221 L538 213 L186 316 L111 368 L351 347 L541 295 L498 296 L178 385 L42 458 L125 458 L679 286 L711 231 L515 234 L246 332 L278 361 L757 190 L968 1 L870 0 L548 375 L428 670 L458 669 L545 561 L587 247 L532 108 L398 115 L254 301 L297 395 L628 425 L717 369 L648 324 L373 335 L239 436 L271 483 L519 434 L606 351 L515 327 L99 474 L112 524 L405 479 L533 371 L388 314 L55 356 L0 399 L89 392 L428 247 L513 158 L486 157 L423 318 L427 526 L475 559 L544 545 L592 476 L530 359 L320 273 L187 276 L179 333 L347 483 L581 541 L687 492 L698 439 L630 374 L328 300 L154 329 L162 374 L569 486 L782 504 L799 491 L823 460 L832 430 L837 399 L848 352 L874 272 L884 224 L884 220 L865 234 L779 352 L739 484 L753 487 L770 465 L770 440 L707 414 L327 357 L50 379 L52 409 L208 444 L442 439 L604 409 L651 396 L655 389 L655 384 L654 369 L654 315 L671 218 L703 153 L714 153 L719 165 L692 192 L516 231 L389 262 L380 265 L384 266 L415 268 L480 268 L489 268 L484 267 " fill="none" stroke="black" /></svg>