<?xml version="1.0" encoding="utf-8" ?>
<svg baseProfile="tiny" height="261" version="1.2" viewBox="-3 -3 438 261" width="438" xmlns="http://www.w3.org/2000/svg" xmlns:ev="http://www.w3.org/2001/xml-events" xmlns:xlink="http://www.w3.org/1999/xlink"><defs /><path d="M12 105 L10 126 L6 141 L1 158 L0 159 L3 157 L31 110 L72 32 L84 0 L81 2 L73 28 L60 62 L44 113 L35 151 L35 158 L38 152 L59 124 L77 90 L79 88 L79 89 L73 121 L48 202 L40 255 L39 260 L52 238 L67 197 L85 150 L85 147 L82 173 L77 204 L74 224 L93 187 L125 114 L130 93 L130 92 L127 117 L111 176 L102 220 L113 208 L145 140 L157 109 L152 144 L135 210 L128 242 L138 221 L172 137 L178 114 L178 117 L171 152 L166 176 L169 174 L193 134 L219 82 L223 72 L221 77 L214 112 L205 163 L205 167 L209 161 L230 119 L248 70 L248 66 L241 117 L224 186 L217 217 L225 190 L253 123 L260 98 L260 105 L249 156 L235 224 L231 245 L233 242 L259 182 L272 144 L272 156 L255 218 L241 261 L246 254 L268 197 L302 107 L309 77 L309 83 L292 142 L271 230 L271 231 L281 214 L308 143 L322 90 L322 93 L306 170 L296 230 L296 234 L316 190 L340 132 L352 91 L352 96 L337 147 L320 205 L319 215 L339 177 L363 123 L363 118 L353 135 L335 191 L328 216 L328 211 L348 154 L360 117 L355 141 L329 216 L321 248 L333 230 L363 157 L382 101 L383 107 L374 143 L344 223 L336 254 L344 234 L377 156 L388 120 L382 162 L363 219 L362 221 L383 187 L420 106 L428 77 L410 124 L382 191 L379 212 L396 173 L427 88 L438 36 L437 42 L417 96 L401 155 L401 158 " fill="none" stroke="black" /></svg>