<?xml version="1.0" encoding="utf-8" ?>
<svg baseProfile="tiny" height="106" version="1.2" viewBox="-3 -3 82 106" width="82" xmlns="http://www.w3.org/2000/svg" xmlns:ev="http://www.w3.org/2001/xml-events" xmlns:xlink="http://www.w3.org/1999/xlink"><defs /><path d="M56 43 L52 43 L50 43 L48 42 L46 41 L44 41 L41 41 L38 44 L32 49 L28 53 L24 59 L20 66 L18 72 L16 80 L16 87 L16 89 L16 91 L17 93 L19 94 L25 97 L31 100 L35 102 L38 103 L40 104 L44 105 L46 105 L49 105 L54 105 L57 106 L61 106 L64 106 L67 106 L69 105 L71 101 L74 96 L77 92 L78 89 L78 86 L78 82 L78 80 L78 75 L78 72 L78 67 L77 61 L75 52 L73 49 L72 45 L72 43 L72 41 L71 40 L70 39 L69 37 L68 37 L66 38 L63 38 L62 39 L61 40 L59 41 L56 42 L55 43 L53 43 L52 43 L48 43 L44 42 L41 41 L38 40 " fill="none" stroke="black" /><path d="M56 43 L52 43 L50 43 L48 42 L46 41 L44 41 L41 41 L38 44 L32 49 L28 53 L24 59 L20 66 L18 72 L16 80 L16 87 L16 89 L16 91 L17 93 L19 94 L25 97 L31 100 L35 102 L38 103 L40 104 L44 105 L46 105 L49 105 L54 105 L57 106 L61 106 L64 106 L67 106 L69 105 L71 101 L74 96 L77 92 L78 89 L78 86 L78 82 L78 80 L78 75 L78 72 L78 67 L77 61 L75 52 L73 49 L72 45 L72 43 L72 41 L71 40 L70 39 L69 37 L68 37 L66 38 L63 38 L62 39 L61 40 L59 41 L56 42 L55 43 L53 43 L52 43 L48 43 L44 42 L41 41 L38 40 M13 45 L12 45 L9 43 L7 35 L4 28 L3 26 L2 24 L1 22 L0 19 L0 16 L1 11 L4 9 L6 6 L8 4 L9 3 L10 2 L13 0 L15 0 L24 3 L28 6 L34 8 L38 11 L40 13 L41 14 L43 14 L45 16 L46 18 L48 22 L48 24 L48 28 L48 31 L47 35 L45 37 L43 38 L41 39 L39 40 L38 40 L37 40 L33 40 L32 41 L30 41 L29 41 L26 41 L23 41 L21 41 L16 41 L15 41 L13 41 L11 41 L10 41 L9 41 L7 41 " fill="none" stroke="black" /><path d="M56 43 L52 43 L50 43 L48 42 L46 41 L44 41 L41 41 L38 44 L32 49 L28 53 L24 59 L20 66 L18 72 L16 80 L16 87 L16 89 L16 91 L17 93 L19 94 L25 97 L31 100 L35 102 L38 103 L40 104 L44 105 L46 105 L49 105 L54 105 L57 106 L61 106 L64 106 L67 106 L69 105 L71 101 L74 96 L77 92 L78 89 L78 86 L78 82 L78 80 L78 75 L78 72 L78 67 L77 61 L75 52 L73 49 L72 45 L72 43 L72 41 L71 40 L70 39 L69 37 L68 37 L66 38 L63 38 L62 39 L61 40 L59 41 L56 42 L55 43 L53 43 L52 43 L48 43 L44 42 L41 41 L38 40 M13 45 L12 45 L9 43 L7 35 L4 28 L3 26 L2 24 L1 22 L0 19 L0 16 L1 11 L4 9 L6 6 L8 4 L9 3 L10 2 L13 0 L15 0 L24 3 L28 6 L34 8 L38 11 L40 13 L41 14 L43 14 L45 16 L46 18 L48 22 L48 24 L48 28 L48 31 L47 35 L45 37 L43 38 L41 39 L39 40 L38 40 L37 40 L33 40 L32 41 L30 41 L29 41 L26 41 L23 41 L21 41 L16 41 L15 41 L13 41 L11 41 L10 41 L9 41 L7 41 M43 20 L45 17 L45 16 L46 13 L49 9 L51 7 L53 5 L54 4 L57 2 L59 0 L61 0 L63 0 L67 2 L71 9 L74 14 L77 20 L78 21 L79 23 L82 27 L82 29 L82 31 L82 32 L82 34 L82 36 L82 39 L80 39 L79 40 L77 40 L76 40 L75 40 L72 40 L68 40 L64 40 " fill="none" stroke="black" /></svg>