<?xml version="1.0" encoding="utf-8" ?>
<svg baseProfile="tiny" height="281" version="1.2" viewBox="-3 -3 595 281" width="595" xmlns="http://www.w3.org/2000/svg" xmlns:ev="http://www.w3.org/2001/xml-events" xmlns:xlink="http://www.w3.org/1999/xlink"><defs /><path d="M447 160 L455 151 L457 149 L455 161 L440 197 L432 250 L432 260 L434 262 L441 267 L452 271 L459 274 L468 276 L482 281 L487 281 L494 279 L505 254 L505 207 L499 157 L484 136 L477 129 L475 128 L479 128 L508 133 L530 133 L544 133 L556 133 L575 133 L589 130 L594 126 L595 120 L593 103 L569 79 L544 63 L531 58 L521 58 L507 60 L487 67 L477 74 L474 77 L473 80 L473 85 L473 86 L466 78 L450 53 L431 32 L422 23 L420 21 L420 20 L419 19 L414 51 L406 103 L403 133 L402 134 L396 123 L386 101 L363 55 L351 27 L342 13 L341 12 L340 22 L340 54 L347 88 L350 108 L350 109 L349 107 L326 77 L305 47 L286 21 L273 11 L263 9 L248 9 L238 6 L236 6 L226 6 L222 6 L220 6 L219 7 L219 17 L220 29 L220 46 L205 75 L196 93 L193 98 L192 98 L183 98 L165 76 L149 43 L143 17 L138 4 L135 0 L126 0 L112 0 L90 0 L49 6 L21 18 L3 41 L0 56 L0 64 L0 66 L6 66 L27 66 L50 55 L87 43 L97 38 L103 38 L96 42 L80 64 L65 101 L58 140 L54 166 L51 183 L50 192 L67 178 L100 150 L119 135 L130 126 L135 124 L144 120 L158 116 L168 116 L181 119 L191 127 L200 140 L205 150 L209 159 L211 167 L214 170 L217 179 L221 192 L223 193 L224 193 L232 183 L242 169 L250 155 L255 146 L259 136 L261 132 L263 130 L267 133 L271 137 L276 140 L281 141 L286 141 L291 144 L294 148 L298 149 L299 149 L301 150 L305 152 L306 154 " fill="none" stroke="black" /></svg>