<?xml version="1.0" encoding="utf-8" ?>
<svg baseProfile="tiny" height="333" version="1.2" viewBox="-3 -3 418 333" width="418" xmlns="http://www.w3.org/2000/svg" xmlns:ev="http://www.w3.org/2001/xml-events" xmlns:xlink="http://www.w3.org/1999/xlink"><defs /><path d="M122 0 L139 0 L162 5 L176 10 L186 21 L196 36 L200 50 L201 73 L198 92 L192 100 L187 102 L180 102 L168 100 L161 95 L156 84 L156 74 L167 61 L191 49 L209 44 L217 44 L223 44 L235 58 L251 88 L264 123 L265 141 L265 150 L264 156 L258 158 L247 160 L232 160 L215 156 L194 142 L180 121 L180 108 L206 92 L231 87 L256 85 L275 85 L286 85 L293 86 L302 97 L304 108 L306 128 L306 149 L305 167 L302 175 L300 176 L298 176 L291 170 L282 155 L282 132 L282 115 L293 96 L309 76 L323 67 L331 67 L337 67 L342 67 L350 72 L355 80 L361 89 L366 100 L377 118 L384 132 L384 140 L384 145 L381 149 L367 150 L356 150 L350 150 L331 140 L322 124 L321 98 L335 80 L347 70 L365 67 L379 67 L389 67 L397 73 L403 80 L410 95 L415 117 L418 134 L418 153 L417 170 L403 189 L393 202 L378 212 L361 212 L339 212 L316 202 L306 181 L306 175 L306 174 L315 175 L320 187 L321 214 L310 238 L304 256 L300 261 L293 269 L277 276 L264 279 L233 279 L196 273 L162 255 L139 237 L130 223 L127 207 L130 199 L151 199 L184 218 L200 230 L209 244 L214 268 L214 291 L201 311 L173 330 L142 333 L117 327 L86 301 L58 277 L35 242 L29 201 L33 156 L45 140 L71 129 L93 129 L114 129 L141 135 L155 147 L166 173 L173 195 L173 203 L171 209 L156 209 L127 205 L69 180 L31 154 L15 125 L5 101 L0 82 L0 67 L14 56 L38 52 L61 50 L68 50 L71 50 " fill="none" stroke="black" /></svg>