<?xml version="1.0" encoding="utf-8" ?>
<svg baseProfile="tiny" height="298" version="1.2" viewBox="-3 -3 346 298" width="346" xmlns="http://www.w3.org/2000/svg" xmlns:ev="http://www.w3.org/2001/xml-events" xmlns:xlink="http://www.w3.org/1999/xlink"><defs /><path d="M286 186 L286 214 L274 237 L262 245 L249 245 L233 245 L219 238 L208 224 L201 203 L199 196 L204 182 L220 177 L227 176 L232 176 L240 180 L242 189 L244 204 L244 220 L242 230 L234 239 L226 242 L215 246 L199 248 L187 248 L173 248 L158 244 L149 237 L143 224 L140 204 L140 189 L150 182 L163 182 L169 183 L177 190 L182 199 L185 215 L186 224 L186 235 L182 241 L177 245 L170 248 L162 249 L152 250 L137 249 L124 244 L112 233 L103 212 L103 195 L103 186 L104 181 L110 181 L117 181 L125 185 L132 191 L138 206 L140 219 L140 233 L139 246 L131 254 L123 258 L113 258 L98 250 L82 228 L76 206 L71 175 L73 163 L80 154 L100 146 L118 141 L129 141 L144 145 L151 152 L158 164 L160 180 L163 189 L163 199 L159 214 L137 217 L116 217 L91 206 L78 189 L72 169 L72 151 L74 138 L88 118 L103 101 L123 85 L141 72 L156 63 L168 62 L182 62 L201 67 L221 80 L236 90 L248 109 L258 125 L261 146 L261 168 L261 189 L259 209 L243 239 L207 273 L184 279 L162 279 L141 279 L115 279 L84 271 L64 262 L46 250 L30 229 L14 191 L5 150 L2 126 L0 91 L7 71 L23 58 L60 38 L93 25 L154 4 L185 0 L206 0 L230 14 L257 31 L292 51 L308 63 L323 86 L334 108 L345 138 L346 161 L346 193 L346 209 L346 227 L346 236 L346 243 L340 254 L331 264 L320 269 L305 275 L291 278 L276 281 L262 282 L246 286 L226 291 L210 294 L201 295 L195 296 L189 296 L182 298 L175 298 L158 298 " fill="none" stroke="black" /></svg>