<?xml version="1.0" encoding="utf-8" ?>
<svg baseProfile="tiny" height="148" version="1.2" viewBox="-3 -3 534 148" width="534" xmlns="http://www.w3.org/2000/svg" xmlns:ev="http://www.w3.org/2001/xml-events" xmlns:xlink="http://www.w3.org/1999/xlink"><defs /><path d="M176 119 L175 125 L170 137 L165 141 L160 144 L154 147 L146 147 L138 148 L129 147 L118 136 L109 121 L104 108 L102 102 L101 96 L101 89 L101 76 L101 72 L104 76 L108 91 L109 105 L109 117 L109 122 L106 124 L100 124 L84 120 L66 111 L43 97 L27 85 L13 69 L7 61 L2 47 L0 36 L0 26 L1 17 L5 9 L11 6 L29 1 L48 0 L62 0 L69 0 L76 0 L87 9 L104 26 L110 46 L113 60 L114 66 L117 60 L122 50 L125 44 L135 34 L145 26 L154 21 L163 15 L173 10 L179 10 L186 10 L198 10 L209 20 L220 35 L228 49 L230 60 L232 67 L233 75 L233 77 L233 79 L233 68 L236 58 L237 52 L239 47 L243 41 L247 32 L259 22 L266 15 L268 14 L272 14 L274 14 L279 14 L289 17 L293 22 L299 28 L304 34 L305 38 L309 43 L312 49 L313 50 L314 51 L322 47 L330 39 L339 32 L350 25 L358 22 L361 21 L363 21 L368 21 L375 24 L381 33 L387 48 L391 68 L394 77 L394 79 L394 80 L395 81 L396 79 L403 62 L408 52 L415 42 L419 39 L420 38 L421 37 L425 43 L426 60 L429 73 L431 83 L431 96 L431 111 L431 126 L431 138 L431 144 L429 139 L429 123 L429 106 L431 91 L438 75 L444 64 L449 56 L454 50 L459 45 L464 43 L466 43 L472 43 L478 44 L483 48 L485 52 L489 61 L492 74 L494 78 L494 81 L495 82 L497 82 L503 79 L508 75 L517 67 L520 65 L525 61 L528 60 L530 59 L531 59 L532 59 L533 59 L534 61 " fill="none" stroke="black" /></svg>