<?xml version="1.0" encoding="utf-8" ?>
<svg baseProfile="tiny" height="340" version="1.2" viewBox="-3 -3 404 340" width="404" xmlns="http://www.w3.org/2000/svg" xmlns:ev="http://www.w3.org/2001/xml-events" xmlns:xlink="http://www.w3.org/1999/xlink"><defs /><path d="M160 246 L161 246 L217 243 L291 234 L287 234 L191 247 L4 278 L0 281 L25 271 L85 237 L87 221 L86 211 L63 206 L62 212 L65 241 L94 264 L126 272 L137 266 L140 232 L140 209 L140 207 L196 210 L306 209 L365 195 L328 225 L231 291 L141 318 L129 301 L125 255 L123 180 L141 133 L159 127 L183 114 L219 100 L278 83 L300 80 L302 83 L299 121 L215 188 L80 205 L12 199 L11 194 L18 191 L79 188 L214 161 L308 152 L323 166 L327 185 L317 211 L283 235 L251 240 L225 240 L220 239 L220 197 L260 121 L324 76 L344 72 L358 92 L350 114 L278 122 L119 122 L75 122 L95 120 L172 109 L263 117 L336 176 L349 224 L351 235 L334 240 L240 223 L94 195 L77 193 L76 192 L115 176 L208 142 L287 125 L303 140 L300 179 L281 190 L160 208 L127 212 L126 208 L126 177 L170 119 L197 54 L202 18 L202 4 L202 0 L185 13 L154 94 L124 246 L175 327 L261 340 L320 340 L323 340 L313 328 L283 301 L84 210 L9 181 L9 177 L34 171 L132 171 L232 171 L251 171 L252 166 L225 142 L175 111 L142 94 L142 91 L159 88 L257 128 L326 163 L337 179 L336 213 L290 256 L220 290 L155 316 L123 315 L87 268 L46 192 L42 170 L54 175 L155 205 L357 221 L403 216 L404 209 L403 205 L395 197 L350 162 L297 129 L224 97 L184 101 L163 140 L161 180 L178 226 L217 277 L255 301 L272 295 L272 262 L254 220 L166 166 L125 165 L108 181 L108 188 L130 204 L176 204 L224 204 L230 196 L230 188 " fill="none" stroke="black" /></svg>