<?xml version="1.0" encoding="utf-8" ?>
<svg baseProfile="tiny" height="354" version="1.2" viewBox="-3 -3 789 354" width="789" xmlns="http://www.w3.org/2000/svg" xmlns:ev="http://www.w3.org/2001/xml-events" xmlns:xlink="http://www.w3.org/1999/xlink"><defs /><path d="M245 153 L283 139 L130 172 L0 203 L18 203 L252 176 L395 143 L375 148 L162 204 L26 255 L55 254 L387 188 L497 144 L475 144 L345 199 L342 202 L393 184 L509 118 L513 111 L446 145 L303 274 L305 276 L417 209 L466 170 L465 169 L407 213 L307 318 L314 318 L385 253 L478 157 L496 142 L459 172 L249 323 L271 292 L378 182 L401 155 L369 185 L303 255 L309 256 L386 215 L495 139 L497 136 L416 179 L273 253 L285 236 L367 179 L530 90 L549 80 L544 101 L490 148 L382 185 L299 193 L290 179 L291 159 L338 138 L529 95 L626 101 L672 153 L678 226 L630 265 L377 216 L165 81 L129 12 L179 0 L282 38 L330 78 L317 103 L163 106 L63 103 L79 95 L529 92 L732 100 L723 125 L652 172 L525 208 L392 219 L372 208 L389 191 L458 179 L475 180 L449 199 L370 243 L363 264 L494 272 L738 241 L789 204 L753 167 L511 130 L359 155 L326 206 L405 261 L468 257 L474 233 L472 228 L450 235 L435 276 L436 303 L456 281 L465 169 L465 73 L463 70 L484 130 L567 252 L638 298 L663 298 L660 267 L618 228 L515 186 L482 180 L486 201 L509 230 L524 243 L525 243 L507 210 L470 147 L493 183 L638 303 L727 354 L726 347 L682 318 L374 238 L274 217 L265 207 L264 206 L268 201 L302 191 L374 168 L411 152 L420 146 L428 142 L445 134 L450 127 L450 119 L449 117 L437 117 L402 148 L371 203 L366 211 L366 204 L366 170 L368 133 L372 128 L385 129 L396 143 L384 150 L345 151 L329 151 L328 152 L328 148 L328 119 " fill="none" stroke="black" /></svg>