<?xml version="1.0" encoding="utf-8" ?>
<svg baseProfile="tiny" height="171" version="1.2" viewBox="-3 -3 553 171" width="553" xmlns="http://www.w3.org/2000/svg" xmlns:ev="http://www.w3.org/2001/xml-events" xmlns:xlink="http://www.w3.org/1999/xlink"><defs /><path d="M0 34 L18 25 L37 24 L58 27 L80 38 L96 52 L101 64 L104 78 L104 97 L96 122 L86 135 L81 140 L78 141 L65 136 L58 126 L53 108 L53 90 L71 74 L91 63 L101 62 L113 62 L131 74 L145 87 L154 102 L155 115 L155 142 L147 159 L131 169 L119 171 L107 170 L88 151 L82 113 L82 85 L91 57 L118 29 L141 9 L163 0 L180 0 L214 23 L234 41 L246 54 L254 68 L261 92 L266 125 L266 139 L261 146 L245 146 L231 144 L210 123 L196 86 L201 61 L214 48 L224 42 L249 38 L272 35 L281 35 L292 39 L299 59 L302 82 L302 107 L302 121 L297 143 L288 150 L281 152 L266 152 L252 149 L235 131 L224 114 L224 93 L224 74 L240 50 L258 37 L278 29 L303 26 L314 28 L323 34 L331 43 L340 59 L341 80 L341 116 L338 137 L332 146 L325 147 L318 147 L304 137 L296 116 L296 103 L300 90 L311 79 L323 67 L343 56 L355 53 L365 53 L378 60 L384 62 L391 71 L394 93 L396 128 L396 143 L393 152 L386 156 L378 156 L367 144 L357 118 L357 101 L359 86 L368 73 L382 66 L399 63 L411 63 L426 63 L440 66 L451 73 L456 81 L458 101 L463 130 L463 143 L463 145 L459 146 L446 132 L432 115 L425 84 L425 67 L431 51 L444 40 L460 35 L469 34 L492 40 L502 45 L509 50 L515 58 L521 74 L529 98 L534 119 L534 130 L534 133 L530 136 L509 129 L484 120 L479 109 L479 97 L488 81 L508 70 L520 67 L536 63 L543 61 L549 61 L551 61 L552 61 L553 62 " fill="none" stroke="black" /></svg>