<?xml version="1.0" encoding="utf-8" ?>
<svg baseProfile="tiny" height="245" version="1.2" viewBox="-3 -3 478 245" width="478" xmlns="http://www.w3.org/2000/svg" xmlns:ev="http://www.w3.org/2001/xml-events" xmlns:xlink="http://www.w3.org/1999/xlink"><defs /><path d="M41 82 L59 70 L80 37 L88 29 L90 29 L99 53 L110 89 L120 120 L125 126 L137 111 L152 72 L160 52 L161 50 L166 61 L169 90 L174 106 L188 79 L206 42 L210 34 L211 33 L214 63 L227 102 L230 107 L245 79 L256 47 L257 45 L262 52 L274 85 L289 111 L293 121 L297 93 L307 44 L310 40 L311 39 L322 62 L325 80 L325 82 L326 83 L336 54 L342 34 L342 33 L345 48 L352 92 L358 103 L359 104 L360 104 L376 66 L391 34 L392 44 L395 65 L398 76 L399 77 L412 43 L419 4 L419 0 L419 7 L422 33 L425 54 L428 59 L428 56 L438 23 L443 11 L444 10 L447 22 L461 60 L474 95 L478 103 L478 99 L478 71 L478 53 L478 56 L478 84 L478 135 L478 179 L478 182 L475 182 L453 170 L429 160 L421 160 L409 175 L397 206 L387 216 L382 216 L365 196 L352 117 L352 61 L352 68 L349 120 L342 163 L336 182 L330 194 L329 195 L314 182 L285 133 L284 128 L282 134 L271 179 L262 199 L261 202 L260 202 L250 200 L240 189 L240 194 L237 218 L233 237 L230 245 L225 245 L206 231 L192 202 L190 200 L189 204 L185 227 L180 237 L161 222 L133 187 L106 144 L105 140 L100 170 L92 195 L91 196 L68 168 L53 137 L49 135 L44 149 L40 178 L39 196 L37 199 L27 188 L11 154 L3 133 L8 150 L10 158 L10 148 L18 104 L27 78 L28 77 L31 108 L31 116 L31 120 L31 103 L25 64 L22 56 L21 55 L13 63 L4 81 L1 86 L1 85 L0 58 L0 25 L0 23 " fill="none" stroke="black" /></svg>