<?xml version="1.0" encoding="utf-8" ?>
<svg baseProfile="tiny" height="212" version="1.2" viewBox="-3 -3 562 212" width="562" xmlns="http://www.w3.org/2000/svg" xmlns:ev="http://www.w3.org/2001/xml-events" xmlns:xlink="http://www.w3.org/1999/xlink"><defs /><path d="M414 40 L419 52 L428 105 L436 138 L437 139 L437 136 L440 100 L442 76 L443 74 L447 79 L453 116 L458 150 L460 159 L460 139 L457 75 L453 27 L453 26 L453 47 L457 89 L471 126 L472 131 L472 122 L472 86 L476 26 L478 24 L483 44 L490 80 L496 127 L498 140 L498 115 L498 71 L498 41 L498 45 L472 64 L428 68 L372 70 L334 72 L327 72 L354 72 L466 72 L483 73 L484 74 L457 74 L284 52 L44 23 L40 19 L48 6 L131 0 L273 0 L372 1 L376 4 L345 5 L224 5 L171 12 L191 12 L284 12 L358 26 L414 57 L457 106 L481 156 L481 164 L441 165 L210 124 L18 70 L14 67 L45 67 L269 81 L364 98 L398 108 L389 108 L319 108 L244 108 L244 110 L265 118 L351 119 L360 123 L368 136 L381 154 L396 173 L423 197 L444 212 L421 185 L287 143 L121 128 L116 128 L139 129 L220 142 L273 151 L277 152 L267 154 L230 154 L214 154 L211 154 L226 153 L322 140 L409 122 L442 117 L423 111 L162 93 L0 94 L2 94 L60 94 L171 94 L221 100 L228 101 L165 90 L72 81 L198 66 L404 30 L464 14 L468 9 L457 6 L415 6 L365 17 L335 62 L329 138 L332 176 L336 171 L338 139 L331 84 L307 37 L271 10 L248 12 L249 34 L301 47 L430 69 L543 97 L562 106 L552 105 L360 47 L227 6 L220 0 L220 3 L226 33 L246 85 L260 124 L260 127 L242 122 L203 107 L183 90 L176 49 L207 22 L248 16 L300 38 L338 70 L343 86 L343 99 L339 103 L316 103 " fill="none" stroke="black" /></svg>