<?xml version="1.0" encoding="utf-8" ?>
<svg baseProfile="tiny" height="106.0" version="1.2" viewBox="-3 -3 399 106.0" width="399" xmlns="http://www.w3.org/2000/svg" xmlns:ev="http://www.w3.org/2001/xml-events" xmlns:xlink="http://www.w3.org/1999/xlink"><defs /><path d="M215 0.0 L221 1.0 L226 2.0 L231 3.0 L240 4.0 L246 4.0 L251 5.0 L257 5.0 L262 5.0 L269 6.0 L274 7.0 L278 7.0 L283 9.0 L290 11.0 L295 13.0 L302 16.0 L307 17.0 L313 19.0 L320 20.0 L324 21.0 L337 22.0 L343 22.0 L347 22.0 L351 22.0 L356 21.0 L361 20.0 L366 20.0 L371 20.0 L374 19.0 L379 19.0 L384 19.0 L389 18.0 L393 17.0 L397 16.0 L398 15.0 L399 15.0 " fill="none" stroke="black" /><path d="M215 0.0 L221 1.0 L226 2.0 L231 3.0 L240 4.0 L246 4.0 L251 5.0 L257 5.0 L262 5.0 L269 6.0 L274 7.0 L278 7.0 L283 9.0 L290 11.0 L295 13.0 L302 16.0 L307 17.0 L313 19.0 L320 20.0 L324 21.0 L337 22.0 L343 22.0 L347 22.0 L351 22.0 L356 21.0 L361 20.0 L366 20.0 L371 20.0 L374 19.0 L379 19.0 L384 19.0 L389 18.0 L393 17.0 L397 16.0 L398 15.0 L399 15.0 M4 43.0 L7 42.0 L21 40.0 L45 39.0 L54 38.0 L63 37.0 L80 35.0 L97 32.0 L107 30.0 L119 28.0 L131 26.0 L146 24.0 L159 21.0 L170 19.0 L180 17.0 L188 15.0 L197 12.0 L205 11.0 L213 9.0 L225 8.0 L234 8.0 L239 10.0 L244 13.0 L250 19.0 L256 24.0 L262 29.0 L267 33.0 L273 35.0 L277 38.0 L283 42.0 L290 46.0 L297 46.0 L305 50.0 L318 55.0 L338 56.0 L353 56.0 L360 56.0 L371 56.0 L386 54.0 L396 52.0 L398 50.0 " fill="none" stroke="black" /><path d="M215 0.0 L221 1.0 L226 2.0 L231 3.0 L240 4.0 L246 4.0 L251 5.0 L257 5.0 L262 5.0 L269 6.0 L274 7.0 L278 7.0 L283 9.0 L290 11.0 L295 13.0 L302 16.0 L307 17.0 L313 19.0 L320 20.0 L324 21.0 L337 22.0 L343 22.0 L347 22.0 L351 22.0 L356 21.0 L361 20.0 L366 20.0 L371 20.0 L374 19.0 L379 19.0 L384 19.0 L389 18.0 L393 17.0 L397 16.0 L398 15.0 L399 15.0 M4 43.0 L7 42.0 L21 40.0 L45 39.0 L54 38.0 L63 37.0 L80 35.0 L97 32.0 L107 30.0 L119 28.0 L131 26.0 L146 24.0 L159 21.0 L170 19.0 L180 17.0 L188 15.0 L197 12.0 L205 11.0 L213 9.0 L225 8.0 L234 8.0 L239 10.0 L244 13.0 L250 19.0 L256 24.0 L262 29.0 L267 33.0 L273 35.0 L277 38.0 L283 42.0 L290 46.0 L297 46.0 L305 50.0 L318 55.0 L338 56.0 L353 56.0 L360 56.0 L371 56.0 L386 54.0 L396 52.0 L398 50.0 M0 78.0 L3 78.0 L11 77.0 L27 74.0 L47 72.0 L67 68.0 L81 65.0 L99 61.0 L116 57.0 L135 52.0 L157 46.0 L162 45.0 L167 44.0 L174 42.0 L179 42.0 L185 42.0 L189 42.0 L193 42.0 L199 45.0 L206 49.0 L212 54.0 L217 57.0 L224 60.0 L230 62.0 L242 65.0 L257 67.0 L271 69.0 L278 72.0 L286 72.0 L292 72.0 L297 74.0 L302 76.0 L307 78.0 L317 80.0 L324 82.0 L338 82.0 L346 82.0 L351 82.0 L357 82.0 L364 82.0 L370 82.0 L374 82.0 L376 82.0 L368 80.0 " fill="none" stroke="black" /><path d="M215 0.0 L221 1.0 L226 2.0 L231 3.0 L240 4.0 L246 4.0 L251 5.0 L257 5.0 L262 5.0 L269 6.0 L274 7.0 L278 7.0 L283 9.0 L290 11.0 L295 13.0 L302 16.0 L307 17.0 L313 19.0 L320 20.0 L324 21.0 L337 22.0 L343 22.0 L347 22.0 L351 22.0 L356 21.0 L361 20.0 L366 20.0 L371 20.0 L374 19.0 L379 19.0 L384 19.0 L389 18.0 L393 17.0 L397 16.0 L398 15.0 L399 15.0 M4 43.0 L7 42.0 L21 40.0 L45 39.0 L54 38.0 L63 37.0 L80 35.0 L97 32.0 L107 30.0 L119 28.0 L131 26.0 L146 24.0 L159 21.0 L170 19.0 L180 17.0 L188 15.0 L197 12.0 L205 11.0 L213 9.0 L225 8.0 L234 8.0 L239 10.0 L244 13.0 L250 19.0 L256 24.0 L262 29.0 L267 33.0 L273 35.0 L277 38.0 L283 42.0 L290 46.0 L297 46.0 L305 50.0 L318 55.0 L338 56.0 L353 56.0 L360 56.0 L371 56.0 L386 54.0 L396 52.0 L398 50.0 M0 78.0 L3 78.0 L11 77.0 L27 74.0 L47 72.0 L67 68.0 L81 65.0 L99 61.0 L116 57.0 L135 52.0 L157 46.0 L162 45.0 L167 44.0 L174 42.0 L179 42.0 L185 42.0 L189 42.0 L193 42.0 L199 45.0 L206 49.0 L212 54.0 L217 57.0 L224 60.0 L230 62.0 L242 65.0 L257 67.0 L271 69.0 L278 72.0 L286 72.0 L292 72.0 L297 74.0 L302 76.0 L307 78.0 L317 80.0 L324 82.0 L338 82.0 L346 82.0 L351 82.0 L357 82.0 L364 82.0 L370 82.0 L374 82.0 L376 82.0 L368 80.0 M18 106.0 L24 105.0 L32 104.0 L50 100.0 L64 97.0 L89 92.0 L102 91.0 L116 91.0 L138 91.0 L162 89.0 L196 84.0 L214 84.0 L232 84.0 L244 85.0 L258 87.0 L277 88.0 L290 90.0 L301 94.0 L306 96.0 L310 99.0 L320 102.0 L331 102.0 L340 103.0 L344 104.0 L350 104.0 L356 105.0 L357 105.0 L358 104.0 L358 102.0 " fill="none" stroke="black" /></svg>