<?xml version="1.0" encoding="utf-8" ?>
<svg baseProfile="tiny" height="203.0" version="1.2" viewBox="-3 -3 166 203.0" width="166" xmlns="http://www.w3.org/2000/svg" xmlns:ev="http://www.w3.org/2001/xml-events" xmlns:xlink="http://www.w3.org/1999/xlink"><defs /><path d="M83 149.0 L77 153.0 L70 156.0 L65 157.0 L60 157.0 L55 156.0 L49 152.0 L44 146.0 L38 141.0 L34 136.0 L29 129.0 L25 124.0 L24 119.0 L24 113.0 L24 108.0 L24 102.0 L25 96.0 L28 89.0 L33 80.0 L35 74.0 L38 68.0 L41 62.0 L46 57.0 L51 52.0 L55 46.0 L61 41.0 L69 35.0 L76 31.0 L83 28.0 L88 27.0 L95 27.0 L103 27.0 L107 30.0 L115 37.0 L120 42.0 L125 47.0 L131 52.0 L138 58.0 L143 66.0 L147 71.0 L148 75.0 L149 81.0 L149 86.0 L148 91.0 L146 97.0 L144 104.0 L139 109.0 L135 115.0 L129 121.0 L122 127.0 L119 132.0 L114 138.0 L106 144.0 L103 150.0 L98 155.0 L93 160.0 L88 166.0 L81 173.0 L76 175.0 L73 177.0 L67 180.0 L62 181.0 L58 181.0 L54 180.0 L47 174.0 L40 169.0 L36 163.0 L30 157.0 L25 151.0 L21 144.0 L19 140.0 L15 129.0 L11 120.0 L10 115.0 L10 109.0 L9 105.0 L9 99.0 L9 91.0 L9 86.0 L11 81.0 L13 74.0 L17 68.0 L22 62.0 L27 57.0 L34 50.0 L38 45.0 L44 40.0 L49 34.0 L55 27.0 L61 22.0 L67 17.0 L77 10.0 L86 6.0 L93 2.0 L98 0.0 L103 0.0 L107 0.0 L111 4.0 L116 7.0 L123 15.0 L128 20.0 L133 25.0 L137 30.0 L140 36.0 L144 41.0 L147 46.0 L151 53.0 L154 57.0 L157 65.0 L160 70.0 L163 77.0 L166 85.0 L166 93.0 L166 100.0 L163 111.0 L160 124.0 L156 131.0 L154 138.0 L154 142.0 L146 149.0 L141 155.0 L138 159.0 L133 166.0 L127 171.0 L121 176.0 L117 180.0 L111 185.0 L104 191.0 L100 194.0 L94 197.0 L89 200.0 L83 202.0 L78 202.0 L73 203.0 L67 203.0 L62 203.0 L56 199.0 L49 193.0 L42 188.0 L36 182.0 L30 176.0 L25 172.0 L18 164.0 L13 158.0 L9 153.0 L5 148.0 L3 144.0 L3 143.0 L0 140.0 " fill="none" stroke="black" /></svg>