<?xml version="1.0" encoding="utf-8" ?>
<svg baseProfile="tiny" height="227.0" version="1.2" viewBox="-3 -3 296 227.0" width="296" xmlns="http://www.w3.org/2000/svg" xmlns:ev="http://www.w3.org/2001/xml-events" xmlns:xlink="http://www.w3.org/1999/xlink"><defs /><path d="M52 117.0 L52 144.0 L45 159.0 L39 161.0 L31 153.0 L27 142.0 L41 137.0 L69 144.0 L75 150.0 L74 156.0 L72 158.0 L70 158.0 L63 155.0 L58 148.0 L56 140.0 L57 130.0 L62 124.0 L66 125.0 L68 136.0 L61 145.0 L40 156.0 L15 156.0 L3 127.0 L3 108.0 L7 103.0 L18 105.0 L32 120.0 L36 142.0 L29 158.0 L15 163.0 L5 162.0 L0 155.0 L12 146.0 L40 141.0 L73 151.0 L87 175.0 L82 195.0 L75 195.0 L68 183.0 L70 175.0 L85 173.0 L113 179.0 L142 209.0 L139 225.0 L133 227.0 L128 201.0 L130 179.0 L146 171.0 L185 178.0 L209 205.0 L207 210.0 L200 210.0 L184 192.0 L185 170.0 L213 146.0 L244 143.0 L260 160.0 L258 182.0 L252 185.0 L238 173.0 L232 153.0 L250 125.0 L273 120.0 L293 125.0 L296 142.0 L289 150.0 L271 145.0 L248 123.0 L251 96.0 L268 86.0 L290 83.0 L296 100.0 L283 121.0 L257 126.0 L243 112.0 L243 91.0 L254 80.0 L262 83.0 L263 103.0 L244 126.0 L212 129.0 L195 109.0 L196 87.0 L205 78.0 L222 79.0 L238 92.0 L237 98.0 L229 102.0 L204 91.0 L191 68.0 L193 52.0 L210 47.0 L246 55.0 L261 76.0 L253 91.0 L239 92.0 L208 83.0 L192 69.0 L194 60.0 L210 58.0 L227 74.0 L237 97.0 L233 106.0 L218 108.0 L179 92.0 L158 75.0 L163 58.0 L199 39.0 L225 35.0 L236 53.0 L228 76.0 L215 80.0 L194 68.0 L165 42.0 L163 12.0 L182 3.0 L199 5.0 L208 24.0 L203 47.0 L198 49.0 L183 40.0 L158 25.0 L150 8.0 L172 0.0 L204 7.0 L216 28.0 L213 37.0 L198 40.0 L173 38.0 L153 29.0 L152 25.0 L160 28.0 L169 46.0 L171 54.0 L159 62.0 L130 64.0 L101 47.0 L99 41.0 L122 36.0 L148 39.0 L151 50.0 L141 69.0 L114 75.0 L93 68.0 L86 57.0 L97 53.0 L105 60.0 L106 62.0 " fill="none" stroke="black" /></svg>