<?xml version="1.0" encoding="utf-8" ?>
<svg baseProfile="tiny" height="360.0" version="1.2" viewBox="-3 -3 215 360.0" width="215" xmlns="http://www.w3.org/2000/svg" xmlns:ev="http://www.w3.org/2001/xml-events" xmlns:xlink="http://www.w3.org/1999/xlink"><defs /><path d="M30 131.0 L34 144.0 L37 178.0 L27 223.0 L21 249.0 L13 290.0 L4 327.0 L0 335.0 L0 333.0 L3 319.0 L17 258.0 L25 207.0 L33 165.0 L39 146.0 L43 132.0 L45 120.0 L46 112.0 L47 109.0 L48 107.0 L48 108.0 L52 132.0 L52 191.0 L46 234.0 L36 294.0 L28 324.0 L22 345.0 L19 352.0 L18 339.0 L27 280.0 L39 225.0 L50 191.0 L60 139.0 L68 105.0 L72 89.0 L75 76.0 L78 66.0 L79 58.0 L81 53.0 L81 51.0 L83 65.0 L84 107.0 L79 146.0 L75 178.0 L67 211.0 L60 251.0 L53 274.0 L52 275.0 L52 273.0 L61 235.0 L70 193.0 L79 147.0 L88 106.0 L96 72.0 L101 52.0 L103 49.0 L109 71.0 L117 108.0 L122 146.0 L119 188.0 L111 237.0 L104 270.0 L102 277.0 L100 282.0 L100 284.0 L100 283.0 L105 256.0 L115 208.0 L124 175.0 L131 143.0 L139 117.0 L145 94.0 L152 78.0 L153 76.0 L154 81.0 L157 102.0 L150 158.0 L141 209.0 L130 268.0 L124 305.0 L121 328.0 L116 344.0 L112 353.0 L111 359.0 L111 360.0 L108 354.0 L111 313.0 L127 248.0 L144 195.0 L153 144.0 L161 106.0 L171 67.0 L177 44.0 L180 25.0 L182 9.0 L183 1.0 L183 0.0 L185 30.0 L173 98.0 L161 181.0 L152 232.0 L145 275.0 L144 289.0 L144 269.0 L148 218.0 L162 165.0 L178 123.0 L186 95.0 L191 84.0 L189 111.0 L177 158.0 L169 203.0 L160 239.0 L158 252.0 L156 241.0 L161 212.0 L171 174.0 L181 140.0 L189 126.0 L192 141.0 L193 189.0 L189 239.0 L188 265.0 L182 294.0 L180 305.0 L181 272.0 L188 227.0 L199 176.0 L207 156.0 L211 145.0 L211 143.0 L212 143.0 L214 160.0 L208 212.0 L188 263.0 L180 279.0 L180 275.0 L186 251.0 L195 204.0 L200 174.0 L205 156.0 L210 147.0 L213 162.0 L215 191.0 L213 223.0 L204 263.0 L202 270.0 L202 268.0 L204 267.0 L204 266.0 L205 265.0 " fill="none" stroke="black" /></svg>