<?xml version="1.0" encoding="utf-8" ?>
<svg baseProfile="tiny" height="157.0" version="1.2" viewBox="-3 -3 439 157.0" width="439" xmlns="http://www.w3.org/2000/svg" xmlns:ev="http://www.w3.org/2001/xml-events" xmlns:xlink="http://www.w3.org/1999/xlink"><defs /><circle cx="439" cy="0.0" fill="black" r="1" /><path d="M0 33.0 L3 34.0 L15 39.0 L34 44.0 L59 46.0 L91 46.0 L112 45.0 L132 43.0 L153 41.0 L186 35.0 L208 32.0 L228 29.0 L240 26.0 L251 23.0 L265 21.0 L278 21.0 L293 21.0 L302 21.0 L308 21.0 L317 21.0 L328 23.0 L339 25.0 L345 25.0 L350 26.0 L361 27.0 L367 28.0 L376 28.0 L382 28.0 L386 28.0 L387 28.0 L388 28.0 L389 28.0 " fill="none" stroke="black" /><path d="M0 33.0 L3 34.0 L15 39.0 L34 44.0 L59 46.0 L91 46.0 L112 45.0 L132 43.0 L153 41.0 L186 35.0 L208 32.0 L228 29.0 L240 26.0 L251 23.0 L265 21.0 L278 21.0 L293 21.0 L302 21.0 L308 21.0 L317 21.0 L328 23.0 L339 25.0 L345 25.0 L350 26.0 L361 27.0 L367 28.0 L376 28.0 L382 28.0 L386 28.0 L387 28.0 L388 28.0 L389 28.0 M10 68.0 L11 68.0 L25 68.0 L50 66.0 L71 65.0 L94 63.0 L116 58.0 L138 57.0 L158 57.0 L170 57.0 L186 56.0 L213 52.0 L234 50.0 L255 49.0 L269 48.0 L282 47.0 L294 47.0 L306 47.0 L316 47.0 L330 47.0 L343 47.0 L349 47.0 L352 47.0 L360 47.0 L363 47.0 L365 48.0 L366 50.0 L366 51.0 L366 52.0 L367 53.0 L376 54.0 L378 54.0 " fill="none" stroke="black" /><path d="M0 33.0 L3 34.0 L15 39.0 L34 44.0 L59 46.0 L91 46.0 L112 45.0 L132 43.0 L153 41.0 L186 35.0 L208 32.0 L228 29.0 L240 26.0 L251 23.0 L265 21.0 L278 21.0 L293 21.0 L302 21.0 L308 21.0 L317 21.0 L328 23.0 L339 25.0 L345 25.0 L350 26.0 L361 27.0 L367 28.0 L376 28.0 L382 28.0 L386 28.0 L387 28.0 L388 28.0 L389 28.0 M10 68.0 L11 68.0 L25 68.0 L50 66.0 L71 65.0 L94 63.0 L116 58.0 L138 57.0 L158 57.0 L170 57.0 L186 56.0 L213 52.0 L234 50.0 L255 49.0 L269 48.0 L282 47.0 L294 47.0 L306 47.0 L316 47.0 L330 47.0 L343 47.0 L349 47.0 L352 47.0 L360 47.0 L363 47.0 L365 48.0 L366 50.0 L366 51.0 L366 52.0 L367 53.0 L376 54.0 L378 54.0 M30 87.0 L47 88.0 L72 89.0 L95 88.0 L115 86.0 L132 86.0 L152 87.0 L167 87.0 L187 87.0 L199 87.0 L215 87.0 L229 87.0 L247 87.0 L267 86.0 L282 83.0 L287 83.0 L298 84.0 L312 85.0 L324 85.0 L330 86.0 L349 89.0 L363 90.0 L375 92.0 L384 92.0 L390 92.0 L394 92.0 L398 92.0 L402 90.0 L403 90.0 " fill="none" stroke="black" /><path d="M0 33.0 L3 34.0 L15 39.0 L34 44.0 L59 46.0 L91 46.0 L112 45.0 L132 43.0 L153 41.0 L186 35.0 L208 32.0 L228 29.0 L240 26.0 L251 23.0 L265 21.0 L278 21.0 L293 21.0 L302 21.0 L308 21.0 L317 21.0 L328 23.0 L339 25.0 L345 25.0 L350 26.0 L361 27.0 L367 28.0 L376 28.0 L382 28.0 L386 28.0 L387 28.0 L388 28.0 L389 28.0 M10 68.0 L11 68.0 L25 68.0 L50 66.0 L71 65.0 L94 63.0 L116 58.0 L138 57.0 L158 57.0 L170 57.0 L186 56.0 L213 52.0 L234 50.0 L255 49.0 L269 48.0 L282 47.0 L294 47.0 L306 47.0 L316 47.0 L330 47.0 L343 47.0 L349 47.0 L352 47.0 L360 47.0 L363 47.0 L365 48.0 L366 50.0 L366 51.0 L366 52.0 L367 53.0 L376 54.0 L378 54.0 M30 87.0 L47 88.0 L72 89.0 L95 88.0 L115 86.0 L132 86.0 L152 87.0 L167 87.0 L187 87.0 L199 87.0 L215 87.0 L229 87.0 L247 87.0 L267 86.0 L282 83.0 L287 83.0 L298 84.0 L312 85.0 L324 85.0 L330 86.0 L349 89.0 L363 90.0 L375 92.0 L384 92.0 L390 92.0 L394 92.0 L398 92.0 L402 90.0 L403 90.0 M58 112.0 L64 112.0 L89 113.0 L113 116.0 L137 119.0 L162 121.0 L193 121.0 L215 120.0 L232 120.0 L247 121.0 L264 121.0 L283 121.0 L304 121.0 L319 121.0 L329 121.0 L340 123.0 L348 125.0 L357 127.0 L363 127.0 L372 127.0 L383 126.0 L391 125.0 L392 125.0 L393 125.0 L393 124.0 " fill="none" stroke="black" /><path d="M0 33.0 L3 34.0 L15 39.0 L34 44.0 L59 46.0 L91 46.0 L112 45.0 L132 43.0 L153 41.0 L186 35.0 L208 32.0 L228 29.0 L240 26.0 L251 23.0 L265 21.0 L278 21.0 L293 21.0 L302 21.0 L308 21.0 L317 21.0 L328 23.0 L339 25.0 L345 25.0 L350 26.0 L361 27.0 L367 28.0 L376 28.0 L382 28.0 L386 28.0 L387 28.0 L388 28.0 L389 28.0 M10 68.0 L11 68.0 L25 68.0 L50 66.0 L71 65.0 L94 63.0 L116 58.0 L138 57.0 L158 57.0 L170 57.0 L186 56.0 L213 52.0 L234 50.0 L255 49.0 L269 48.0 L282 47.0 L294 47.0 L306 47.0 L316 47.0 L330 47.0 L343 47.0 L349 47.0 L352 47.0 L360 47.0 L363 47.0 L365 48.0 L366 50.0 L366 51.0 L366 52.0 L367 53.0 L376 54.0 L378 54.0 M30 87.0 L47 88.0 L72 89.0 L95 88.0 L115 86.0 L132 86.0 L152 87.0 L167 87.0 L187 87.0 L199 87.0 L215 87.0 L229 87.0 L247 87.0 L267 86.0 L282 83.0 L287 83.0 L298 84.0 L312 85.0 L324 85.0 L330 86.0 L349 89.0 L363 90.0 L375 92.0 L384 92.0 L390 92.0 L394 92.0 L398 92.0 L402 90.0 L403 90.0 M58 112.0 L64 112.0 L89 113.0 L113 116.0 L137 119.0 L162 121.0 L193 121.0 L215 120.0 L232 120.0 L247 121.0 L264 121.0 L283 121.0 L304 121.0 L319 121.0 L329 121.0 L340 123.0 L348 125.0 L357 127.0 L363 127.0 L372 127.0 L383 126.0 L391 125.0 L392 125.0 L393 125.0 L393 124.0 M81 137.0 L83 138.0 L98 141.0 L114 141.0 L122 141.0 L135 141.0 L163 141.0 L176 140.0 L181 140.0 L188 141.0 L210 144.0 L231 143.0 L251 141.0 L266 140.0 L273 140.0 L281 142.0 L294 146.0 L311 150.0 L323 151.0 L329 153.0 L334 154.0 L339 154.0 L346 157.0 L354 157.0 L364 157.0 L371 157.0 L374 157.0 L377 157.0 L378 157.0 L382 157.0 L386 157.0 " fill="none" stroke="black" /></svg>