<?xml version="1.0" encoding="utf-8" ?>
<svg baseProfile="tiny" height="132.0" version="1.2" viewBox="-3 -3 446 132.0" width="446" xmlns="http://www.w3.org/2000/svg" xmlns:ev="http://www.w3.org/2001/xml-events" xmlns:xlink="http://www.w3.org/1999/xlink"><defs /><path d="M0 118.0 L2 119.0 L8 106.0 L13 98.0 L13 102.0 L15 116.0 L16 122.0 L18 121.0 L24 100.0 L28 89.0 L29 109.0 L30 121.0 L31 122.0 L35 109.0 L40 92.0 L41 91.0 L44 102.0 L45 107.0 L45 108.0 L47 105.0 L47 102.0 L48 102.0 L51 107.0 L53 116.0 L54 118.0 L61 100.0 L61 98.0 L63 101.0 L68 118.0 L72 123.0 L73 123.0 L77 107.0 L81 93.0 L82 94.0 L87 105.0 L88 112.0 L88 113.0 L91 105.0 L92 105.0 L97 119.0 L100 127.0 L100 130.0 L100 128.0 L106 112.0 L107 108.0 L108 112.0 L111 118.0 L113 123.0 L113 122.0 L117 103.0 L120 95.0 L121 95.0 L122 99.0 L128 108.0 L130 110.0 L133 105.0 L136 97.0 L137 95.0 L138 96.0 L144 107.0 L146 113.0 L146 108.0 L152 92.0 L153 92.0 L158 100.0 L165 120.0 L170 126.0 L172 126.0 L176 110.0 L180 99.0 L181 100.0 L189 116.0 L196 123.0 L198 123.0 L198 118.0 L198 116.0 L199 116.0 L205 122.0 L212 132.0 L213 132.0 L213 127.0 L217 116.0 L224 119.0 L230 125.0 L233 127.0 L233 118.0 L239 102.0 L245 103.0 L253 114.0 L260 119.0 L260 118.0 L259 117.0 L243 97.0 L260 88.0 L288 15.0 L43 0.0 L67 9.0 L148 21.0 L132 44.0 L127 99.0 L138 103.0 L152 95.0 L156 93.0 L157 92.0 L154 90.0 L154 89.0 L155 89.0 L155 88.0 L158 85.0 L162 84.0 L165 84.0 L170 76.0 L169 74.0 L178 83.0 L192 86.0 L198 70.0 L202 66.0 L213 83.0 L238 109.0 L247 111.0 L263 97.0 L284 80.0 L288 82.0 L296 102.0 L302 112.0 L310 116.0 L314 112.0 L318 93.0 L320 88.0 L326 95.0 L334 102.0 L337 103.0 L337 97.0 L342 80.0 L347 83.0 L358 102.0 L363 105.0 L365 105.0 L372 91.0 L375 85.0 L382 97.0 L393 114.0 L396 117.0 L397 117.0 L404 103.0 L414 94.0 L422 106.0 L430 120.0 L430 121.0 L433 119.0 L446 115.0 " fill="none" stroke="black" /></svg>