<?xml version="1.0" encoding="utf-8" ?>
<svg baseProfile="tiny" height="191.0" version="1.2" viewBox="-3 -3 201 191.0" width="201" xmlns="http://www.w3.org/2000/svg" xmlns:ev="http://www.w3.org/2001/xml-events" xmlns:xlink="http://www.w3.org/1999/xlink"><defs /><path d="M47 83.0 L94 68.0 L119 63.0 L100 76.0 L53 96.0 L22 106.0 L27 104.0 L81 82.0 L142 63.0 L156 62.0 L97 86.0 L25 115.0 L8 119.0 L25 113.0 L63 97.0 L86 90.0 L68 101.0 L52 110.0 L53 110.0 L76 102.0 L131 93.0 L148 91.0 L132 102.0 L68 122.0 L46 128.0 L47 128.0 L70 120.0 L118 108.0 L149 102.0 L143 106.0 L114 115.0 L88 121.0 L89 121.0 L110 116.0 L141 106.0 L177 99.0 L177 100.0 L147 110.0 L126 117.0 L125 117.0 L133 114.0 L148 112.0 L149 111.0 L151 102.0 L153 80.0 L150 53.0 L147 40.0 L147 45.0 L151 78.0 L153 114.0 L154 114.0 L150 97.0 L143 51.0 L139 21.0 L139 19.0 L142 43.0 L146 76.0 L144 92.0 L144 94.0 L138 72.0 L131 30.0 L123 1.0 L122 0.0 L116 38.0 L108 99.0 L101 126.0 L100 110.0 L97 75.0 L90 49.0 L88 47.0 L82 86.0 L75 114.0 L70 122.0 L67 119.0 L60 86.0 L47 16.0 L41 0.0 L40 5.0 L34 83.0 L26 119.0 L25 126.0 L25 124.0 L18 77.0 L13 48.0 L13 50.0 L12 89.0 L3 127.0 L3 128.0 L2 124.0 L8 78.0 L9 28.0 L4 12.0 L3 14.0 L0 47.0 L0 90.0 L9 115.0 L22 119.0 L67 100.0 L98 88.0 L98 84.0 L71 90.0 L72 95.0 L112 101.0 L192 93.0 L197 92.0 L131 104.0 L39 117.0 L25 120.0 L27 119.0 L56 112.0 L99 114.0 L147 124.0 L148 128.0 L123 135.0 L98 140.0 L139 137.0 L176 139.0 L199 137.0 L201 129.0 L193 130.0 L187 141.0 L177 173.0 L177 176.0 L176 176.0 L168 143.0 L157 96.0 L151 85.0 L149 116.0 L127 190.0 L126 191.0 L124 178.0 L110 144.0 L99 122.0 L99 135.0 L91 162.0 L87 168.0 L82 154.0 L68 114.0 L57 92.0 L55 99.0 L57 122.0 L57 124.0 L52 102.0 L44 81.0 L45 85.0 L49 93.0 L49 94.0 L51 93.0 L53 89.0 L48 88.0 " fill="none" stroke="black" /></svg>