<?xml version="1.0" encoding="utf-8" ?>
<svg baseProfile="tiny" height="210.0" version="1.2" viewBox="-3 -3 357 210.0" width="357" xmlns="http://www.w3.org/2000/svg" xmlns:ev="http://www.w3.org/2001/xml-events" xmlns:xlink="http://www.w3.org/1999/xlink"><defs /><path d="M355 22.0 L356 22.0 L357 22.0 L356 22.0 L356 23.0 L356 24.0 L356 25.0 L356 26.0 L356 27.0 L355 27.0 L349 31.0 " fill="none" stroke="black" /><path d="M355 22.0 L356 22.0 L357 22.0 L356 22.0 L356 23.0 L356 24.0 L356 25.0 L356 26.0 L356 27.0 L355 27.0 L349 31.0 M37 80.0 L40 78.0 L51 75.0 L70 74.0 L104 72.0 L126 70.0 L142 70.0 L164 67.0 L188 65.0 L206 65.0 L226 65.0 L248 66.0 L274 64.0 L290 63.0 L310 61.0 L331 56.0 L344 55.0 L343 55.0 L319 62.0 " fill="none" stroke="black" /><path d="M355 22.0 L356 22.0 L357 22.0 L356 22.0 L356 23.0 L356 24.0 L356 25.0 L356 26.0 L356 27.0 L355 27.0 L349 31.0 M37 80.0 L40 78.0 L51 75.0 L70 74.0 L104 72.0 L126 70.0 L142 70.0 L164 67.0 L188 65.0 L206 65.0 L226 65.0 L248 66.0 L274 64.0 L290 63.0 L310 61.0 L331 56.0 L344 55.0 L343 55.0 L319 62.0 M80 89.0 L80 88.0 L92 88.0 L130 87.0 L159 85.0 L189 81.0 L227 78.0 L255 80.0 L277 80.0 L305 80.0 L337 73.0 L348 71.0 L349 71.0 " fill="none" stroke="black" /><path d="M355 22.0 L356 22.0 L357 22.0 L356 22.0 L356 23.0 L356 24.0 L356 25.0 L356 26.0 L356 27.0 L355 27.0 L349 31.0 M37 80.0 L40 78.0 L51 75.0 L70 74.0 L104 72.0 L126 70.0 L142 70.0 L164 67.0 L188 65.0 L206 65.0 L226 65.0 L248 66.0 L274 64.0 L290 63.0 L310 61.0 L331 56.0 L344 55.0 L343 55.0 L319 62.0 M80 89.0 L80 88.0 L92 88.0 L130 87.0 L159 85.0 L189 81.0 L227 78.0 L255 80.0 L277 80.0 L305 80.0 L337 73.0 L348 71.0 L349 71.0 M131 111.0 L141 109.0 L163 106.0 L199 103.0 L227 101.0 L257 96.0 L277 96.0 L302 94.0 L323 90.0 L336 89.0 L342 88.0 L345 88.0 L348 87.0 " fill="none" stroke="black" /><path d="M355 22.0 L356 22.0 L357 22.0 L356 22.0 L356 23.0 L356 24.0 L356 25.0 L356 26.0 L356 27.0 L355 27.0 L349 31.0 M37 80.0 L40 78.0 L51 75.0 L70 74.0 L104 72.0 L126 70.0 L142 70.0 L164 67.0 L188 65.0 L206 65.0 L226 65.0 L248 66.0 L274 64.0 L290 63.0 L310 61.0 L331 56.0 L344 55.0 L343 55.0 L319 62.0 M80 89.0 L80 88.0 L92 88.0 L130 87.0 L159 85.0 L189 81.0 L227 78.0 L255 80.0 L277 80.0 L305 80.0 L337 73.0 L348 71.0 L349 71.0 M131 111.0 L141 109.0 L163 106.0 L199 103.0 L227 101.0 L257 96.0 L277 96.0 L302 94.0 L323 90.0 L336 89.0 L342 88.0 L345 88.0 L348 87.0 M101 128.0 L104 128.0 L120 128.0 L135 128.0 L151 128.0 L177 128.0 L202 127.0 L223 126.0 L252 126.0 L272 126.0 L281 126.0 L290 126.0 L305 126.0 L314 125.0 L316 125.0 " fill="none" stroke="black" /><path d="M355 22.0 L356 22.0 L357 22.0 L356 22.0 L356 23.0 L356 24.0 L356 25.0 L356 26.0 L356 27.0 L355 27.0 L349 31.0 M37 80.0 L40 78.0 L51 75.0 L70 74.0 L104 72.0 L126 70.0 L142 70.0 L164 67.0 L188 65.0 L206 65.0 L226 65.0 L248 66.0 L274 64.0 L290 63.0 L310 61.0 L331 56.0 L344 55.0 L343 55.0 L319 62.0 M80 89.0 L80 88.0 L92 88.0 L130 87.0 L159 85.0 L189 81.0 L227 78.0 L255 80.0 L277 80.0 L305 80.0 L337 73.0 L348 71.0 L349 71.0 M131 111.0 L141 109.0 L163 106.0 L199 103.0 L227 101.0 L257 96.0 L277 96.0 L302 94.0 L323 90.0 L336 89.0 L342 88.0 L345 88.0 L348 87.0 M101 128.0 L104 128.0 L120 128.0 L135 128.0 L151 128.0 L177 128.0 L202 127.0 L223 126.0 L252 126.0 L272 126.0 L281 126.0 L290 126.0 L305 126.0 L314 125.0 L316 125.0 M107 150.0 L109 150.0 L131 149.0 L157 149.0 L179 153.0 L201 155.0 L234 155.0 L256 155.0 L280 158.0 L302 159.0 L313 161.0 L315 161.0 " fill="none" stroke="black" /><path d="M355 22.0 L356 22.0 L357 22.0 L356 22.0 L356 23.0 L356 24.0 L356 25.0 L356 26.0 L356 27.0 L355 27.0 L349 31.0 M37 80.0 L40 78.0 L51 75.0 L70 74.0 L104 72.0 L126 70.0 L142 70.0 L164 67.0 L188 65.0 L206 65.0 L226 65.0 L248 66.0 L274 64.0 L290 63.0 L310 61.0 L331 56.0 L344 55.0 L343 55.0 L319 62.0 M80 89.0 L80 88.0 L92 88.0 L130 87.0 L159 85.0 L189 81.0 L227 78.0 L255 80.0 L277 80.0 L305 80.0 L337 73.0 L348 71.0 L349 71.0 M131 111.0 L141 109.0 L163 106.0 L199 103.0 L227 101.0 L257 96.0 L277 96.0 L302 94.0 L323 90.0 L336 89.0 L342 88.0 L345 88.0 L348 87.0 M101 128.0 L104 128.0 L120 128.0 L135 128.0 L151 128.0 L177 128.0 L202 127.0 L223 126.0 L252 126.0 L272 126.0 L281 126.0 L290 126.0 L305 126.0 L314 125.0 L316 125.0 M107 150.0 L109 150.0 L131 149.0 L157 149.0 L179 153.0 L201 155.0 L234 155.0 L256 155.0 L280 158.0 L302 159.0 L313 161.0 L315 161.0 M127 182.0 L131 180.0 L149 176.0 L171 173.0 L190 172.0 L210 172.0 L229 174.0 L247 175.0 L267 175.0 L288 176.0 L299 177.0 " fill="none" stroke="black" /><path d="M355 22.0 L356 22.0 L357 22.0 L356 22.0 L356 23.0 L356 24.0 L356 25.0 L356 26.0 L356 27.0 L355 27.0 L349 31.0 M37 80.0 L40 78.0 L51 75.0 L70 74.0 L104 72.0 L126 70.0 L142 70.0 L164 67.0 L188 65.0 L206 65.0 L226 65.0 L248 66.0 L274 64.0 L290 63.0 L310 61.0 L331 56.0 L344 55.0 L343 55.0 L319 62.0 M80 89.0 L80 88.0 L92 88.0 L130 87.0 L159 85.0 L189 81.0 L227 78.0 L255 80.0 L277 80.0 L305 80.0 L337 73.0 L348 71.0 L349 71.0 M131 111.0 L141 109.0 L163 106.0 L199 103.0 L227 101.0 L257 96.0 L277 96.0 L302 94.0 L323 90.0 L336 89.0 L342 88.0 L345 88.0 L348 87.0 M101 128.0 L104 128.0 L120 128.0 L135 128.0 L151 128.0 L177 128.0 L202 127.0 L223 126.0 L252 126.0 L272 126.0 L281 126.0 L290 126.0 L305 126.0 L314 125.0 L316 125.0 M107 150.0 L109 150.0 L131 149.0 L157 149.0 L179 153.0 L201 155.0 L234 155.0 L256 155.0 L280 158.0 L302 159.0 L313 161.0 L315 161.0 M127 182.0 L131 180.0 L149 176.0 L171 173.0 L190 172.0 L210 172.0 L229 174.0 L247 175.0 L267 175.0 L288 176.0 L299 177.0 M155 189.0 L171 188.0 L192 187.0 L214 188.0 L248 188.0 L277 185.0 L302 185.0 L308 185.0 " fill="none" stroke="black" /><path d="M355 22.0 L356 22.0 L357 22.0 L356 22.0 L356 23.0 L356 24.0 L356 25.0 L356 26.0 L356 27.0 L355 27.0 L349 31.0 M37 80.0 L40 78.0 L51 75.0 L70 74.0 L104 72.0 L126 70.0 L142 70.0 L164 67.0 L188 65.0 L206 65.0 L226 65.0 L248 66.0 L274 64.0 L290 63.0 L310 61.0 L331 56.0 L344 55.0 L343 55.0 L319 62.0 M80 89.0 L80 88.0 L92 88.0 L130 87.0 L159 85.0 L189 81.0 L227 78.0 L255 80.0 L277 80.0 L305 80.0 L337 73.0 L348 71.0 L349 71.0 M131 111.0 L141 109.0 L163 106.0 L199 103.0 L227 101.0 L257 96.0 L277 96.0 L302 94.0 L323 90.0 L336 89.0 L342 88.0 L345 88.0 L348 87.0 M101 128.0 L104 128.0 L120 128.0 L135 128.0 L151 128.0 L177 128.0 L202 127.0 L223 126.0 L252 126.0 L272 126.0 L281 126.0 L290 126.0 L305 126.0 L314 125.0 L316 125.0 M107 150.0 L109 150.0 L131 149.0 L157 149.0 L179 153.0 L201 155.0 L234 155.0 L256 155.0 L280 158.0 L302 159.0 L313 161.0 L315 161.0 M127 182.0 L131 180.0 L149 176.0 L171 173.0 L190 172.0 L210 172.0 L229 174.0 L247 175.0 L267 175.0 L288 176.0 L299 177.0 M155 189.0 L171 188.0 L192 187.0 L214 188.0 L248 188.0 L277 185.0 L302 185.0 L308 185.0 M203 205.0 L206 204.0 L221 203.0 L244 200.0 L278 199.0 L303 199.0 L308 199.0 L310 198.0 " fill="none" stroke="black" /><path d="M355 22.0 L356 22.0 L357 22.0 L356 22.0 L356 23.0 L356 24.0 L356 25.0 L356 26.0 L356 27.0 L355 27.0 L349 31.0 M37 80.0 L40 78.0 L51 75.0 L70 74.0 L104 72.0 L126 70.0 L142 70.0 L164 67.0 L188 65.0 L206 65.0 L226 65.0 L248 66.0 L274 64.0 L290 63.0 L310 61.0 L331 56.0 L344 55.0 L343 55.0 L319 62.0 M80 89.0 L80 88.0 L92 88.0 L130 87.0 L159 85.0 L189 81.0 L227 78.0 L255 80.0 L277 80.0 L305 80.0 L337 73.0 L348 71.0 L349 71.0 M131 111.0 L141 109.0 L163 106.0 L199 103.0 L227 101.0 L257 96.0 L277 96.0 L302 94.0 L323 90.0 L336 89.0 L342 88.0 L345 88.0 L348 87.0 M101 128.0 L104 128.0 L120 128.0 L135 128.0 L151 128.0 L177 128.0 L202 127.0 L223 126.0 L252 126.0 L272 126.0 L281 126.0 L290 126.0 L305 126.0 L314 125.0 L316 125.0 M107 150.0 L109 150.0 L131 149.0 L157 149.0 L179 153.0 L201 155.0 L234 155.0 L256 155.0 L280 158.0 L302 159.0 L313 161.0 L315 161.0 M127 182.0 L131 180.0 L149 176.0 L171 173.0 L190 172.0 L210 172.0 L229 174.0 L247 175.0 L267 175.0 L288 176.0 L299 177.0 M155 189.0 L171 188.0 L192 187.0 L214 188.0 L248 188.0 L277 185.0 L302 185.0 L308 185.0 M203 205.0 L206 204.0 L221 203.0 L244 200.0 L278 199.0 L303 199.0 L308 199.0 L310 198.0 M248 210.0 L251 210.0 L281 204.0 L305 202.0 L307 202.0 " fill="none" stroke="black" /><path d="M355 22.0 L356 22.0 L357 22.0 L356 22.0 L356 23.0 L356 24.0 L356 25.0 L356 26.0 L356 27.0 L355 27.0 L349 31.0 M37 80.0 L40 78.0 L51 75.0 L70 74.0 L104 72.0 L126 70.0 L142 70.0 L164 67.0 L188 65.0 L206 65.0 L226 65.0 L248 66.0 L274 64.0 L290 63.0 L310 61.0 L331 56.0 L344 55.0 L343 55.0 L319 62.0 M80 89.0 L80 88.0 L92 88.0 L130 87.0 L159 85.0 L189 81.0 L227 78.0 L255 80.0 L277 80.0 L305 80.0 L337 73.0 L348 71.0 L349 71.0 M131 111.0 L141 109.0 L163 106.0 L199 103.0 L227 101.0 L257 96.0 L277 96.0 L302 94.0 L323 90.0 L336 89.0 L342 88.0 L345 88.0 L348 87.0 M101 128.0 L104 128.0 L120 128.0 L135 128.0 L151 128.0 L177 128.0 L202 127.0 L223 126.0 L252 126.0 L272 126.0 L281 126.0 L290 126.0 L305 126.0 L314 125.0 L316 125.0 M107 150.0 L109 150.0 L131 149.0 L157 149.0 L179 153.0 L201 155.0 L234 155.0 L256 155.0 L280 158.0 L302 159.0 L313 161.0 L315 161.0 M127 182.0 L131 180.0 L149 176.0 L171 173.0 L190 172.0 L210 172.0 L229 174.0 L247 175.0 L267 175.0 L288 176.0 L299 177.0 M155 189.0 L171 188.0 L192 187.0 L214 188.0 L248 188.0 L277 185.0 L302 185.0 L308 185.0 M203 205.0 L206 204.0 L221 203.0 L244 200.0 L278 199.0 L303 199.0 L308 199.0 L310 198.0 M248 210.0 L251 210.0 L281 204.0 L305 202.0 L307 202.0 M0 29.0 L2 29.0 L21 31.0 L39 34.0 L51 37.0 L65 40.0 L81 42.0 L96 45.0 L113 46.0 L134 48.0 L154 47.0 L176 45.0 L189 45.0 L205 45.0 L224 43.0 L244 42.0 L255 41.0 L273 40.0 L293 38.0 L307 36.0 L314 36.0 L320 34.0 L326 33.0 L330 32.0 L334 31.0 L346 29.0 L350 29.0 " fill="none" stroke="black" /><path d="M355 22.0 L356 22.0 L357 22.0 L356 22.0 L356 23.0 L356 24.0 L356 25.0 L356 26.0 L356 27.0 L355 27.0 L349 31.0 M37 80.0 L40 78.0 L51 75.0 L70 74.0 L104 72.0 L126 70.0 L142 70.0 L164 67.0 L188 65.0 L206 65.0 L226 65.0 L248 66.0 L274 64.0 L290 63.0 L310 61.0 L331 56.0 L344 55.0 L343 55.0 L319 62.0 M80 89.0 L80 88.0 L92 88.0 L130 87.0 L159 85.0 L189 81.0 L227 78.0 L255 80.0 L277 80.0 L305 80.0 L337 73.0 L348 71.0 L349 71.0 M131 111.0 L141 109.0 L163 106.0 L199 103.0 L227 101.0 L257 96.0 L277 96.0 L302 94.0 L323 90.0 L336 89.0 L342 88.0 L345 88.0 L348 87.0 M101 128.0 L104 128.0 L120 128.0 L135 128.0 L151 128.0 L177 128.0 L202 127.0 L223 126.0 L252 126.0 L272 126.0 L281 126.0 L290 126.0 L305 126.0 L314 125.0 L316 125.0 M107 150.0 L109 150.0 L131 149.0 L157 149.0 L179 153.0 L201 155.0 L234 155.0 L256 155.0 L280 158.0 L302 159.0 L313 161.0 L315 161.0 M127 182.0 L131 180.0 L149 176.0 L171 173.0 L190 172.0 L210 172.0 L229 174.0 L247 175.0 L267 175.0 L288 176.0 L299 177.0 M155 189.0 L171 188.0 L192 187.0 L214 188.0 L248 188.0 L277 185.0 L302 185.0 L308 185.0 M203 205.0 L206 204.0 L221 203.0 L244 200.0 L278 199.0 L303 199.0 L308 199.0 L310 198.0 M248 210.0 L251 210.0 L281 204.0 L305 202.0 L307 202.0 M0 29.0 L2 29.0 L21 31.0 L39 34.0 L51 37.0 L65 40.0 L81 42.0 L96 45.0 L113 46.0 L134 48.0 L154 47.0 L176 45.0 L189 45.0 L205 45.0 L224 43.0 L244 42.0 L255 41.0 L273 40.0 L293 38.0 L307 36.0 L314 36.0 L320 34.0 L326 33.0 L330 32.0 L334 31.0 L346 29.0 L350 29.0 M99 16.0 L99 15.0 L120 15.0 L148 12.0 L180 9.0 L220 3.0 L249 0.0 L261 1.0 " fill="none" stroke="black" /></svg>