<?xml version="1.0" encoding="utf-8" ?>
<svg baseProfile="tiny" height="106.0" version="1.2" viewBox="-3 -3 390 106.0" width="390" xmlns="http://www.w3.org/2000/svg" xmlns:ev="http://www.w3.org/2001/xml-events" xmlns:xlink="http://www.w3.org/1999/xlink"><defs /><path d="M110 81.0 L115 85.0 L121 91.0 L128 93.0 L139 89.0 L150 83.0 L153 84.0 L158 89.0 L164 92.0 L176 87.0 L183 84.0 L188 89.0 L195 96.0 L202 95.0 L214 91.0 L232 90.0 L253 96.0 L269 105.0 L277 106.0 L288 100.0 L301 94.0 L309 87.0 L316 73.0 L319 72.0 L330 79.0 L346 87.0 L367 88.0 L386 81.0 L390 76.0 L390 70.0 L389 67.0 L380 49.0 L372 30.0 L366 23.0 L361 20.0 L354 27.0 L347 45.0 L346 54.0 L347 57.0 L350 55.0 L349 39.0 L344 25.0 L344 24.0 L343 27.0 L339 34.0 L338 34.0 L337 34.0 L336 31.0 L331 27.0 L321 35.0 L309 53.0 L307 57.0 L306 57.0 L305 49.0 L304 41.0 L306 41.0 L306 46.0 L302 52.0 L297 53.0 L294 50.0 L291 43.0 L289 42.0 L288 47.0 L285 51.0 L280 52.0 L276 48.0 L272 44.0 L268 48.0 L263 54.0 L258 55.0 L251 52.0 L242 41.0 L239 43.0 L234 58.0 L225 65.0 L217 66.0 L211 59.0 L206 53.0 L203 53.0 L198 57.0 L183 60.0 L175 57.0 L170 53.0 L166 51.0 L157 58.0 L137 68.0 L117 68.0 L105 62.0 L101 56.0 L96 54.0 L88 58.0 L82 61.0 L73 55.0 L67 50.0 L62 49.0 L55 57.0 L46 66.0 L34 70.0 L17 66.0 L3 56.0 L0 51.0 L1 52.0 L2 53.0 L2 44.0 L4 32.0 L7 30.0 L13 36.0 L18 37.0 L22 34.0 L35 20.0 L43 19.0 L52 27.0 L60 31.0 L65 29.0 L72 20.0 L83 16.0 L92 23.0 L102 41.0 L107 43.0 L111 39.0 L117 34.0 L129 30.0 L135 34.0 L139 34.0 L143 34.0 L149 27.0 L156 6.0 L162 0.0 L172 9.0 L178 16.0 L183 19.0 L188 22.0 L193 23.0 L201 6.0 L211 2.0 L217 7.0 L223 12.0 L229 14.0 L235 10.0 L239 6.0 L245 7.0 L251 12.0 L260 13.0 L271 8.0 L277 6.0 L279 8.0 L281 8.0 L286 8.0 L298 5.0 L303 4.0 " fill="none" stroke="black" /></svg>