<?xml version="1.0" encoding="utf-8" ?>
<svg baseProfile="tiny" height="164.0" version="1.2" viewBox="-3 -3 332 164.0" width="332" xmlns="http://www.w3.org/2000/svg" xmlns:ev="http://www.w3.org/2001/xml-events" xmlns:xlink="http://www.w3.org/1999/xlink"><defs /><path d="M23 0.0 L10 17.0 L4 27.0 L2 32.0 L2 34.0 L3 34.0 L13 29.0 L34 22.0 L40 19.0 L42 18.0 L39 23.0 L13 45.0 L1 58.0 L0 63.0 L1 68.0 L3 69.0 L7 69.0 L22 65.0 L40 59.0 L56 54.0 L64 50.0 L68 49.0 L68 48.0 L65 54.0 L57 67.0 L48 83.0 L46 89.0 L46 92.0 L46 93.0 L48 93.0 L53 90.0 L69 78.0 L92 68.0 L104 63.0 L108 62.0 L108 64.0 L108 70.0 L103 80.0 L97 93.0 L95 99.0 L95 102.0 L97 104.0 L103 101.0 L125 89.0 L135 83.0 L143 78.0 L143 83.0 L135 105.0 L128 124.0 L127 130.0 L127 131.0 L128 131.0 L133 131.0 L151 123.0 L172 112.0 L196 100.0 L211 93.0 L213 93.0 L213 96.0 L213 106.0 L211 117.0 L209 124.0 L209 129.0 L209 132.0 L214 128.0 L228 120.0 L241 112.0 L247 108.0 L248 108.0 L248 112.0 L248 119.0 L242 131.0 L237 142.0 L236 149.0 L236 151.0 L238 151.0 L249 148.0 L274 139.0 L281 137.0 L282 137.0 L283 140.0 L284 144.0 L285 153.0 L285 158.0 L285 161.0 L285 164.0 L288 161.0 L298 153.0 L313 141.0 L324 131.0 L325 131.0 L325 132.0 L319 138.0 L315 141.0 L315 127.0 L324 100.0 L330 87.0 L332 82.0 L332 81.0 L329 83.0 L324 89.0 L319 91.0 L318 91.0 L317 90.0 L317 85.0 L321 72.0 L325 68.0 L325 67.0 L320 70.0 L300 78.0 L294 82.0 L295 79.0 L304 70.0 L312 63.0 L313 62.0 L303 68.0 L298 71.0 L296 70.0 L294 64.0 L293 60.0 L294 56.0 L297 51.0 L299 47.0 L299 45.0 L298 45.0 L280 53.0 L265 59.0 L261 61.0 L261 60.0 L260 56.0 L266 50.0 L273 40.0 L279 32.0 L281 30.0 L281 29.0 L278 31.0 L264 39.0 L252 42.0 L244 44.0 L239 45.0 L237 45.0 L237 41.0 L242 32.0 L245 26.0 L240 26.0 L234 26.0 L233 26.0 L227 24.0 " fill="none" stroke="black" /></svg>