<?xml version="1.0" encoding="utf-8" ?>
<svg baseProfile="tiny" height="45.0" version="1.2" viewBox="-3 -3 306 45.0" width="306" xmlns="http://www.w3.org/2000/svg" xmlns:ev="http://www.w3.org/2001/xml-events" xmlns:xlink="http://www.w3.org/1999/xlink"><defs /><path d="M49 33.0 L46 33.0 L43 33.0 L40 33.0 L35 33.0 L31 33.0 L27 33.0 L23 33.0 L19 33.0 L16 33.0 L15 33.0 L12 33.0 L10 33.0 L9 33.0 L7 33.0 L6 33.0 L5 33.0 L4 33.0 L4 35.0 L3 36.0 L3 34.0 L2 33.0 L1 32.0 L1 31.0 L1 28.0 L0 26.0 L0 24.0 L0 22.0 L0 19.0 L0 17.0 L0 15.0 L2 13.0 L2 12.0 L3 12.0 L3 11.0 L5 9.0 L8 7.0 L13 6.0 L16 5.0 L19 4.0 L23 4.0 L27 4.0 L30 4.0 L35 4.0 L39 4.0 L44 3.0 L50 3.0 L54 2.0 L59 2.0 L65 2.0 L70 2.0 L75 4.0 L81 5.0 L87 6.0 L93 6.0 L100 6.0 L104 6.0 L107 6.0 L111 6.0 L116 6.0 L121 6.0 L126 6.0 L131 6.0 L137 6.0 L142 5.0 L149 5.0 L153 5.0 L158 5.0 L163 4.0 L168 4.0 L171 4.0 L178 4.0 L184 3.0 L190 2.0 L195 2.0 L201 1.0 L205 1.0 L209 1.0 L213 1.0 L218 1.0 L222 1.0 L228 0.0 L233 0.0 L237 0.0 L242 0.0 L248 0.0 L251 0.0 L255 0.0 L258 0.0 L263 1.0 L268 1.0 L272 1.0 L277 2.0 L282 3.0 L287 5.0 L291 5.0 L295 6.0 L298 8.0 L301 9.0 L303 13.0 L305 16.0 L305 18.0 L306 19.0 L306 22.0 L306 25.0 L306 26.0 L305 28.0 L302 31.0 L300 33.0 L296 36.0 L291 38.0 L286 41.0 L282 43.0 L277 44.0 L270 44.0 L266 45.0 L260 45.0 L255 45.0 L249 44.0 L244 44.0 L239 43.0 L233 43.0 L225 42.0 L220 42.0 L215 41.0 L207 40.0 L200 40.0 L195 40.0 L189 40.0 L184 40.0 L177 40.0 L171 40.0 L165 40.0 L157 40.0 L152 40.0 L147 40.0 L141 40.0 L136 40.0 L134 40.0 L128 41.0 L123 42.0 L118 42.0 L113 43.0 L107 44.0 L103 45.0 L99 45.0 L94 45.0 L89 45.0 L85 45.0 L79 45.0 " fill="none" stroke="black" /></svg>