<?xml version="1.0" encoding="utf-8" ?>
<svg baseProfile="tiny" height="457.0" version="1.2" viewBox="-3 -3 404 457.0" width="404" xmlns="http://www.w3.org/2000/svg" xmlns:ev="http://www.w3.org/2001/xml-events" xmlns:xlink="http://www.w3.org/1999/xlink"><defs /><path d="M207 399.0 L200 420.0 L196 433.0 L195 441.0 L197 447.0 L201 453.0 L208 457.0 L213 457.0 L219 448.0 L226 436.0 L232 417.0 L240 401.0 L244 392.0 L247 380.0 L252 371.0 L254 365.0 L257 359.0 L261 353.0 L263 351.0 L265 349.0 L268 346.0 L275 345.0 L278 348.0 L279 357.0 L280 367.0 L279 377.0 L277 383.0 L273 392.0 L267 408.0 L261 424.0 L261 437.0 L261 444.0 L261 449.0 L262 451.0 L265 453.0 L274 455.0 L284 449.0 L292 444.0 L300 426.0 L305 403.0 L307 394.0 L310 387.0 L314 376.0 L321 363.0 L323 359.0 L324 354.0 L326 347.0 L328 345.0 L329 343.0 L331 343.0 L335 345.0 L340 349.0 L344 356.0 L346 363.0 L348 369.0 L350 377.0 L350 386.0 L350 397.0 L347 411.0 L346 422.0 L346 431.0 L347 439.0 L353 441.0 L354 441.0 L358 441.0 L365 426.0 L373 410.0 L375 400.0 L377 385.0 L378 377.0 L378 369.0 L379 362.0 L379 351.0 L379 346.0 L379 343.0 L379 340.0 L378 339.0 L380 345.0 L382 350.0 L386 362.0 L393 375.0 L395 379.0 L398 393.0 L403 415.0 L404 434.0 L404 435.0 L404 434.0 L400 409.0 L394 382.0 L389 367.0 L385 356.0 L376 339.0 L372 332.0 L365 324.0 L364 318.0 L364 311.0 L364 305.0 L363 301.0 L361 295.0 L360 293.0 L357 282.0 L354 267.0 L353 260.0 L351 252.0 L350 248.0 L349 248.0 L349 255.0 L349 264.0 L350 272.0 L350 279.0 L347 284.0 L340 294.0 L333 301.0 L327 308.0 L324 310.0 L323 310.0 L320 306.0 L317 299.0 L316 291.0 L314 279.0 L311 269.0 L311 262.0 L310 254.0 L307 248.0 L304 245.0 L302 241.0 L296 239.0 L293 239.0 L289 245.0 L283 257.0 L280 263.0 L279 271.0 L277 278.0 L276 283.0 L271 295.0 L265 303.0 L261 307.0 L257 309.0 L252 310.0 L245 308.0 L243 301.0 L242 293.0 L240 279.0 L235 261.0 L233 247.0 L232 244.0 L232 243.0 " fill="none" stroke="black" /><path d="M207 399.0 L200 420.0 L196 433.0 L195 441.0 L197 447.0 L201 453.0 L208 457.0 L213 457.0 L219 448.0 L226 436.0 L232 417.0 L240 401.0 L244 392.0 L247 380.0 L252 371.0 L254 365.0 L257 359.0 L261 353.0 L263 351.0 L265 349.0 L268 346.0 L275 345.0 L278 348.0 L279 357.0 L280 367.0 L279 377.0 L277 383.0 L273 392.0 L267 408.0 L261 424.0 L261 437.0 L261 444.0 L261 449.0 L262 451.0 L265 453.0 L274 455.0 L284 449.0 L292 444.0 L300 426.0 L305 403.0 L307 394.0 L310 387.0 L314 376.0 L321 363.0 L323 359.0 L324 354.0 L326 347.0 L328 345.0 L329 343.0 L331 343.0 L335 345.0 L340 349.0 L344 356.0 L346 363.0 L348 369.0 L350 377.0 L350 386.0 L350 397.0 L347 411.0 L346 422.0 L346 431.0 L347 439.0 L353 441.0 L354 441.0 L358 441.0 L365 426.0 L373 410.0 L375 400.0 L377 385.0 L378 377.0 L378 369.0 L379 362.0 L379 351.0 L379 346.0 L379 343.0 L379 340.0 L378 339.0 L380 345.0 L382 350.0 L386 362.0 L393 375.0 L395 379.0 L398 393.0 L403 415.0 L404 434.0 L404 435.0 L404 434.0 L400 409.0 L394 382.0 L389 367.0 L385 356.0 L376 339.0 L372 332.0 L365 324.0 L364 318.0 L364 311.0 L364 305.0 L363 301.0 L361 295.0 L360 293.0 L357 282.0 L354 267.0 L353 260.0 L351 252.0 L350 248.0 L349 248.0 L349 255.0 L349 264.0 L350 272.0 L350 279.0 L347 284.0 L340 294.0 L333 301.0 L327 308.0 L324 310.0 L323 310.0 L320 306.0 L317 299.0 L316 291.0 L314 279.0 L311 269.0 L311 262.0 L310 254.0 L307 248.0 L304 245.0 L302 241.0 L296 239.0 L293 239.0 L289 245.0 L283 257.0 L280 263.0 L279 271.0 L277 278.0 L276 283.0 L271 295.0 L265 303.0 L261 307.0 L257 309.0 L252 310.0 L245 308.0 L243 301.0 L242 293.0 L240 279.0 L235 261.0 L233 247.0 L232 244.0 L232 243.0 M0 1.0 L0 0.0 " fill="none" stroke="black" /></svg>