<?xml version="1.0" encoding="utf-8" ?>
<svg baseProfile="tiny" height="101.0" version="1.2" viewBox="-3 -3 141 101.0" width="141" xmlns="http://www.w3.org/2000/svg" xmlns:ev="http://www.w3.org/2001/xml-events" xmlns:xlink="http://www.w3.org/1999/xlink"><defs /><path d="M54 16.0 L58 12.0 L63 6.0 L68 3.0 L73 3.0 L77 3.0 L81 4.0 L85 9.0 L89 15.0 L95 20.0 L99 27.0 L101 33.0 L101 38.0 L101 44.0 L98 51.0 L96 53.0 L94 56.0 L92 55.0 L91 48.0 L91 40.0 L95 28.0 L97 21.0 L104 15.0 L109 9.0 L115 3.0 L121 1.0 L125 0.0 L131 0.0 L134 1.0 L136 7.0 L138 12.0 L139 17.0 L139 23.0 L140 29.0 L140 32.0 L140 35.0 L140 39.0 L138 44.0 L133 50.0 L131 52.0 L130 52.0 L128 52.0 L127 52.0 L125 50.0 L124 45.0 L123 40.0 L123 37.0 L126 31.0 L127 29.0 L128 29.0 L131 32.0 L135 37.0 L138 45.0 L141 52.0 L141 56.0 L140 61.0 L137 67.0 L130 76.0 L124 83.0 L119 87.0 L114 90.0 L108 90.0 L104 88.0 L102 84.0 L102 78.0 L102 71.0 L101 64.0 L101 59.0 L102 56.0 L103 56.0 L104 56.0 L105 59.0 L106 64.0 L106 69.0 L105 74.0 L104 79.0 L98 84.0 L91 91.0 L85 95.0 L80 95.0 L77 95.0 L73 95.0 L68 89.0 L64 84.0 L63 79.0 L62 70.0 L62 66.0 L62 61.0 L64 59.0 L65 59.0 L68 60.0 L71 66.0 L73 69.0 L75 71.0 L75 76.0 L75 80.0 L75 83.0 L75 86.0 L71 90.0 L65 93.0 L58 94.0 L54 93.0 L49 89.0 L43 85.0 L39 81.0 L36 75.0 L34 70.0 L33 66.0 L33 62.0 L33 57.0 L35 55.0 L39 54.0 L41 57.0 L46 62.0 L48 66.0 L50 72.0 L50 77.0 L49 82.0 L44 87.0 L38 94.0 L33 98.0 L27 100.0 L22 101.0 L18 99.0 L12 96.0 L10 91.0 L8 86.0 L8 81.0 L8 75.0 L10 70.0 L13 67.0 L19 63.0 L23 60.0 L28 60.0 L31 63.0 L33 69.0 L34 73.0 L30 79.0 L24 83.0 L19 84.0 L13 82.0 L8 75.0 L2 64.0 L0 58.0 L1 52.0 L7 40.0 L18 28.0 L22 26.0 L23 26.0 L21 22.0 " fill="none" stroke="black" /></svg>