<?xml version="1.0" encoding="utf-8" ?>
<svg baseProfile="tiny" height="202.0" version="1.2" viewBox="-3 -3 290 202.0" width="290" xmlns="http://www.w3.org/2000/svg" xmlns:ev="http://www.w3.org/2001/xml-events" xmlns:xlink="http://www.w3.org/1999/xlink"><defs /><path d="M209 202.0 L219 196.0 L226 191.0 L232 186.0 L239 180.0 L244 174.0 L250 169.0 L255 164.0 L261 157.0 L267 151.0 L272 146.0 L276 140.0 L281 129.0 L282 124.0 L283 120.0 L285 116.0 L287 104.0 L288 98.0 L290 93.0 L290 87.0 L289 79.0 L287 74.0 L284 69.0 L280 63.0 L276 58.0 L272 52.0 L267 48.0 L262 42.0 L256 34.0 L250 29.0 L245 24.0 L240 19.0 L232 13.0 L226 10.0 L213 6.0 L192 2.0 L179 1.0 L169 0.0 L159 1.0 L152 2.0 L133 7.0 L115 11.0 L102 17.0 L94 20.0 L78 28.0 L62 34.0 L56 37.0 L52 42.0 L44 48.0 L32 53.0 L20 61.0 L15 66.0 L13 69.0 L9 76.0 L7 79.0 L4 85.0 L0 92.0 L0 99.0 L0 103.0 L0 108.0 L3 114.0 L7 119.0 L11 124.0 L16 130.0 L21 135.0 L26 139.0 L32 146.0 L38 152.0 L44 156.0 L49 160.0 L58 162.0 L65 163.0 L71 166.0 L77 168.0 L93 170.0 L109 171.0 L121 171.0 L132 171.0 L141 172.0 L145 172.0 L152 173.0 L160 173.0 L169 173.0 L175 173.0 L187 168.0 L193 167.0 L198 162.0 L205 156.0 L209 152.0 L214 149.0 L219 143.0 L224 138.0 L228 133.0 L233 127.0 L237 121.0 L239 117.0 L241 110.0 L243 105.0 L243 102.0 L243 97.0 L243 92.0 L242 85.0 L240 81.0 L238 74.0 L234 70.0 L230 65.0 L225 60.0 L219 53.0 L213 51.0 L209 47.0 L203 44.0 L192 41.0 L185 39.0 L178 39.0 L153 42.0 L132 48.0 L120 52.0 L105 59.0 L82 67.0 L64 75.0 L59 81.0 L54 86.0 L49 93.0 L49 101.0 L51 109.0 L58 117.0 L76 125.0 L98 129.0 L119 136.0 L131 139.0 L146 139.0 L166 138.0 L180 132.0 L185 128.0 L188 122.0 L193 117.0 L194 113.0 L194 107.0 L192 102.0 L188 96.0 L182 93.0 L176 91.0 L163 93.0 L138 99.0 L133 104.0 L132 108.0 L131 111.0 L131 114.0 L131 116.0 L133 114.0 " fill="none" stroke="black" /></svg>