<?xml version="1.0" encoding="utf-8" ?>
<svg baseProfile="tiny" height="262.0" version="1.2" viewBox="-3 -3 305 262.0" width="305" xmlns="http://www.w3.org/2000/svg" xmlns:ev="http://www.w3.org/2001/xml-events" xmlns:xlink="http://www.w3.org/1999/xlink"><defs /><path d="M0 158.0 L25 95.0 L40 68.0 L43 65.0 L43 94.0 L38 127.0 L31 157.0 L22 180.0 L18 188.0 L18 189.0 L20 169.0 L30 110.0 L41 57.0 L45 48.0 L41 82.0 L31 146.0 L20 189.0 L15 203.0 L15 205.0 L15 204.0 L22 164.0 L40 111.0 L53 71.0 L58 63.0 L58 62.0 L59 75.0 L50 162.0 L33 237.0 L28 254.0 L27 250.0 L33 201.0 L48 145.0 L62 94.0 L69 71.0 L72 61.0 L69 106.0 L53 170.0 L46 206.0 L42 216.0 L50 173.0 L73 107.0 L90 47.0 L98 20.0 L100 12.0 L117 81.0 L124 157.0 L114 204.0 L101 239.0 L101 241.0 L101 239.0 L116 168.0 L137 86.0 L148 22.0 L152 0.0 L150 43.0 L140 126.0 L125 193.0 L122 206.0 L122 207.0 L122 205.0 L129 168.0 L143 116.0 L154 64.0 L157 56.0 L161 83.0 L157 167.0 L145 220.0 L140 235.0 L140 237.0 L140 224.0 L149 174.0 L162 109.0 L167 86.0 L167 85.0 L169 99.0 L172 154.0 L161 209.0 L155 221.0 L153 226.0 L150 223.0 L150 186.0 L168 100.0 L175 71.0 L176 67.0 L181 83.0 L183 148.0 L168 229.0 L162 262.0 L169 210.0 L177 156.0 L181 113.0 L183 103.0 L192 157.0 L199 244.0 L199 252.0 L200 242.0 L215 128.0 L223 60.0 L225 42.0 L226 37.0 L227 43.0 L229 111.0 L217 199.0 L211 240.0 L207 257.0 L207 255.0 L209 218.0 L211 174.0 L221 104.0 L230 55.0 L232 49.0 L234 64.0 L245 144.0 L251 210.0 L251 233.0 L251 234.0 L250 225.0 L250 175.0 L250 123.0 L249 98.0 L249 96.0 L253 114.0 L259 176.0 L260 204.0 L261 208.0 L261 207.0 L262 182.0 L269 126.0 L274 66.0 L277 44.0 L278 43.0 L279 43.0 L285 84.0 L291 150.0 L292 198.0 L292 209.0 L292 210.0 L288 192.0 L292 144.0 L298 79.0 L299 48.0 L299 43.0 L300 44.0 L305 90.0 L304 150.0 L302 175.0 L302 186.0 L302 187.0 L300 184.0 " fill="none" stroke="black" /></svg>