<?xml version="1.0" encoding="utf-8" ?>
<svg baseProfile="tiny" height="107.0" version="1.2" viewBox="-3 -3 326 107.0" width="326" xmlns="http://www.w3.org/2000/svg" xmlns:ev="http://www.w3.org/2001/xml-events" xmlns:xlink="http://www.w3.org/1999/xlink"><defs /><path d="M122 0.0 L132 1.0 L140 2.0 L149 2.0 L159 2.0 L167 2.0 L173 2.0 L186 2.0 L198 1.0 L206 1.0 L212 1.0 L217 1.0 L222 1.0 L229 1.0 L238 2.0 L243 3.0 L248 3.0 L260 3.0 L272 3.0 L279 3.0 L286 3.0 L296 3.0 L304 3.0 L312 4.0 L317 5.0 L321 5.0 L322 6.0 L323 7.0 L325 10.0 L326 13.0 L326 16.0 L324 19.0 L316 23.0 L306 26.0 L296 26.0 L288 28.0 L281 29.0 L275 31.0 L270 31.0 L265 31.0 L258 32.0 L245 33.0 L238 33.0 L231 33.0 L222 32.0 L213 31.0 L208 30.0 L201 28.0 L197 27.0 L193 26.0 L188 24.0 L179 24.0 L175 24.0 L169 24.0 L163 25.0 L154 27.0 L149 28.0 L144 29.0 L139 29.0 L128 30.0 L120 30.0 L107 28.0 L97 27.0 L88 27.0 L77 27.0 L71 27.0 L62 26.0 L55 26.0 L51 26.0 L46 26.0 L42 27.0 L33 28.0 L26 29.0 L17 32.0 L9 34.0 L4 36.0 L2 38.0 L1 39.0 L0 43.0 L0 48.0 L3 52.0 L9 58.0 L22 60.0 L44 60.0 L65 59.0 L82 59.0 L99 59.0 L110 59.0 L124 57.0 L142 55.0 L156 55.0 L168 55.0 L180 54.0 L191 51.0 L197 50.0 L209 48.0 L219 47.0 L225 47.0 L235 46.0 L246 44.0 L257 42.0 L269 41.0 L278 40.0 L289 38.0 L298 37.0 L306 38.0 L309 40.0 L309 45.0 L309 50.0 L308 55.0 L303 61.0 L293 67.0 L283 71.0 L275 74.0 L261 76.0 L250 76.0 L242 76.0 L232 75.0 L225 73.0 L219 72.0 L210 69.0 L201 66.0 L192 65.0 L183 63.0 L171 59.0 L157 56.0 L138 56.0 L126 56.0 L122 56.0 L114 56.0 L102 57.0 L92 58.0 L79 58.0 L71 62.0 L64 66.0 L58 69.0 L57 72.0 L55 78.0 L57 85.0 L64 91.0 L74 95.0 L88 100.0 L105 104.0 L125 107.0 L163 107.0 L207 104.0 L235 104.0 L252 104.0 L257 104.0 L257 90.0 " fill="none" stroke="black" /></svg>