<?xml version="1.0" encoding="utf-8" ?>
<svg baseProfile="tiny" height="188.0" version="1.2" viewBox="-3 -3 227 188.0" width="227" xmlns="http://www.w3.org/2000/svg" xmlns:ev="http://www.w3.org/2001/xml-events" xmlns:xlink="http://www.w3.org/1999/xlink"><defs /><path d="M45 155.0 L7 128.0 L0 95.0 L36 79.0 L77 90.0 L90 128.0 L74 138.0 L44 120.0 L25 89.0 L44 68.0 L80 59.0 L107 84.0 L106 118.0 L94 122.0 L68 109.0 L52 86.0 L57 72.0 L96 79.0 L118 115.0 L106 145.0 L71 145.0 L36 113.0 L41 81.0 L101 54.0 L166 65.0 L174 102.0 L161 131.0 L150 128.0 L140 88.0 L141 58.0 L160 47.0 L188 68.0 L188 129.0 L166 157.0 L136 152.0 L118 120.0 L135 82.0 L173 77.0 L198 104.0 L197 143.0 L189 153.0 L176 141.0 L163 112.0 L171 102.0 L205 130.0 L204 170.0 L184 188.0 L146 170.0 L130 146.0 L159 119.0 L205 118.0 L205 153.0 L174 177.0 L141 178.0 L111 156.0 L108 136.0 L158 137.0 L186 152.0 L183 158.0 L133 163.0 L89 140.0 L81 122.0 L124 116.0 L144 142.0 L128 156.0 L102 152.0 L74 122.0 L77 104.0 L107 107.0 L126 137.0 L119 165.0 L101 165.0 L78 137.0 L65 109.0 L99 84.0 L145 90.0 L152 125.0 L129 159.0 L107 156.0 L79 119.0 L75 87.0 L115 63.0 L160 69.0 L174 118.0 L147 150.0 L116 144.0 L82 99.0 L79 67.0 L130 50.0 L207 60.0 L227 107.0 L202 135.0 L168 129.0 L116 100.0 L90 47.0 L120 8.0 L169 8.0 L190 47.0 L174 73.0 L146 80.0 L110 54.0 L95 21.0 L118 0.0 L148 15.0 L160 57.0 L144 97.0 L125 100.0 L98 76.0 L74 45.0 L80 27.0 L114 43.0 L121 75.0 L101 104.0 L65 115.0 L28 98.0 L6 72.0 L10 58.0 L59 81.0 L74 129.0 L64 156.0 L49 158.0 L31 122.0 L29 90.0 L36 78.0 L63 99.0 L73 141.0 L67 164.0 L57 165.0 L34 132.0 L21 92.0 L23 70.0 L61 69.0 L100 111.0 L99 136.0 L80 142.0 L56 128.0 L30 100.0 L30 79.0 L59 73.0 L95 99.0 L103 131.0 L78 167.0 L47 168.0 L20 135.0 L26 93.0 L62 74.0 L90 98.0 L93 115.0 L89 115.0 " fill="none" stroke="black" /></svg>