<?xml version="1.0" encoding="utf-8" ?>
<svg baseProfile="tiny" height="140.0" version="1.2" viewBox="-3 -3 222 140.0" width="222" xmlns="http://www.w3.org/2000/svg" xmlns:ev="http://www.w3.org/2001/xml-events" xmlns:xlink="http://www.w3.org/1999/xlink"><defs /><path d="M132 93.0 L139 86.0 L144 95.0 L149 101.0 L153 104.0 L153 105.0 L157 103.0 L163 90.0 L167 81.0 L169 82.0 L175 88.0 L179 92.0 L180 93.0 L184 89.0 L188 86.0 L190 86.0 L195 91.0 L199 95.0 L200 96.0 L203 90.0 L209 68.0 L209 66.0 L211 67.0 L212 69.0 L218 56.0 L218 36.0 L218 32.0 L220 33.0 L222 38.0 L222 43.0 L220 38.0 L216 32.0 L212 27.0 L210 31.0 L209 36.0 L208 36.0 L201 22.0 L197 13.0 L197 12.0 L197 14.0 L194 21.0 L193 24.0 L192 24.0 L192 23.0 L192 28.0 L191 32.0 L190 34.0 L187 30.0 L179 3.0 L178 0.0 L178 19.0 L178 39.0 L175 57.0 L174 60.0 L173 60.0 L171 53.0 L168 37.0 L168 36.0 L168 37.0 L168 52.0 L164 65.0 L161 71.0 L160 72.0 L159 70.0 L155 55.0 L151 42.0 L150 42.0 L150 56.0 L145 73.0 L145 74.0 L144 74.0 L138 56.0 L132 40.0 L132 38.0 L133 44.0 L130 59.0 L126 64.0 L119 51.0 L117 47.0 L118 58.0 L113 67.0 L111 69.0 L108 65.0 L102 59.0 L99 59.0 L96 63.0 L91 70.0 L86 75.0 L81 79.0 L80 79.0 L79 79.0 L74 67.0 L71 65.0 L71 66.0 L67 78.0 L63 82.0 L61 83.0 L58 82.0 L50 70.0 L45 61.0 L45 63.0 L42 70.0 L38 75.0 L37 75.0 L35 72.0 L32 64.0 L32 65.0 L30 72.0 L29 74.0 L28 74.0 L25 70.0 L24 69.0 L24 71.0 L17 95.0 L11 114.0 L4 135.0 L2 140.0 L0 139.0 L0 132.0 L13 118.0 L22 119.0 L27 127.0 L35 135.0 L39 136.0 L44 129.0 L57 109.0 L62 107.0 L67 113.0 L72 119.0 L74 121.0 L78 117.0 L83 116.0 L89 128.0 L91 132.0 L96 125.0 L102 124.0 L111 138.0 L114 139.0 L115 133.0 L121 128.0 L123 128.0 L125 128.0 L130 128.0 L135 124.0 L143 121.0 L150 123.0 L150 124.0 L153 120.0 L154 115.0 " fill="none" stroke="black" /></svg>