<?xml version="1.0" encoding="utf-8" ?>
<svg baseProfile="tiny" height="115.0" version="1.2" viewBox="-3 -3 312 115.0" width="312" xmlns="http://www.w3.org/2000/svg" xmlns:ev="http://www.w3.org/2001/xml-events" xmlns:xlink="http://www.w3.org/1999/xlink"><defs /><path d="M295 8.0 L312 7.0 L301 6.0 L267 5.0 L192 0.0 L123 9.0 L91 14.0 L68 15.0 L38 15.0 L39 15.0 L57 18.0 L107 21.0 L192 16.0 L255 12.0 L264 11.0 L245 11.0 L187 15.0 L88 28.0 L23 37.0 L9 39.0 L47 38.0 L122 35.0 L192 28.0 L232 29.0 L233 29.0 L232 29.0 L203 29.0 L160 33.0 L102 39.0 L83 43.0 L79 44.0 L75 46.0 L74 46.0 L75 48.0 L116 54.0 L172 54.0 L221 54.0 L238 54.0 L240 54.0 L239 54.0 L209 52.0 L121 56.0 L52 62.0 L35 65.0 L36 66.0 L68 70.0 L164 62.0 L226 61.0 L251 64.0 L256 65.0 L256 66.0 L242 65.0 L186 65.0 L146 70.0 L142 71.0 L138 71.0 L137 74.0 L137 76.0 L140 81.0 L152 88.0 L194 92.0 L226 95.0 L258 102.0 L276 109.0 L282 112.0 L271 106.0 L247 90.0 L209 78.0 L180 79.0 L146 85.0 L116 92.0 L99 100.0 L95 100.0 L92 99.0 L92 98.0 L92 99.0 L93 104.0 L107 105.0 L156 95.0 L205 86.0 L241 86.0 L255 91.0 L258 92.0 L259 91.0 L259 89.0 L259 87.0 L247 83.0 L179 71.0 L125 66.0 L92 64.0 L62 64.0 L40 65.0 L22 66.0 L4 69.0 L0 71.0 L9 76.0 L58 79.0 L156 67.0 L245 54.0 L282 53.0 L304 56.0 L306 56.0 L302 55.0 L278 50.0 L239 50.0 L159 62.0 L91 74.0 L69 79.0 L94 82.0 L161 81.0 L197 82.0 L210 86.0 L209 86.0 L209 85.0 L181 85.0 L115 93.0 L89 100.0 L96 102.0 L130 102.0 L184 98.0 L237 97.0 L242 97.0 L236 96.0 L180 97.0 L120 106.0 L98 111.0 L102 111.0 L142 111.0 L183 112.0 L201 115.0 L175 109.0 L125 106.0 L75 107.0 L66 107.0 L84 104.0 L142 94.0 L225 87.0 L257 86.0 L261 85.0 L261 83.0 L239 75.0 L207 68.0 L172 61.0 L167 60.0 L177 59.0 L209 54.0 L232 52.0 L230 50.0 L228 49.0 L225 48.0 " fill="none" stroke="black" /></svg>