<?xml version="1.0" encoding="utf-8" ?>
<svg baseProfile="tiny" height="227.0" version="1.2" viewBox="-3 -3 257 227.0" width="257" xmlns="http://www.w3.org/2000/svg" xmlns:ev="http://www.w3.org/2001/xml-events" xmlns:xlink="http://www.w3.org/1999/xlink"><defs /><path d="M0 157.0 L11 70.0 L23 1.0 L25 0.0 L27 28.0 L19 107.0 L14 209.0 L12 218.0 L15 205.0 L16 177.0 L23 132.0 L29 108.0 L30 109.0 L36 139.0 L40 177.0 L42 190.0 L46 155.0 L56 101.0 L56 94.0 L56 97.0 L50 137.0 L45 166.0 L41 172.0 L41 139.0 L49 61.0 L56 37.0 L49 83.0 L40 186.0 L39 197.0 L39 189.0 L41 160.0 L52 71.0 L57 38.0 L56 90.0 L56 144.0 L57 164.0 L57 163.0 L61 127.0 L69 64.0 L72 53.0 L73 69.0 L70 128.0 L59 203.0 L56 213.0 L66 156.0 L78 70.0 L87 33.0 L90 36.0 L90 71.0 L79 154.0 L73 204.0 L72 203.0 L75 167.0 L86 108.0 L97 72.0 L98 73.0 L99 129.0 L90 190.0 L87 201.0 L86 193.0 L94 135.0 L101 106.0 L103 106.0 L106 146.0 L92 215.0 L90 227.0 L90 212.0 L108 152.0 L117 124.0 L120 130.0 L121 160.0 L119 178.0 L117 177.0 L118 149.0 L122 105.0 L126 88.0 L131 107.0 L132 149.0 L130 180.0 L131 145.0 L138 103.0 L142 89.0 L146 98.0 L149 122.0 L149 135.0 L148 137.0 L147 125.0 L155 83.0 L160 47.0 L160 44.0 L160 59.0 L157 134.0 L151 208.0 L151 209.0 L149 193.0 L160 104.0 L167 51.0 L170 54.0 L177 110.0 L172 185.0 L170 197.0 L169 166.0 L179 79.0 L186 45.0 L187 44.0 L192 87.0 L187 143.0 L183 159.0 L180 153.0 L177 96.0 L175 56.0 L175 55.0 L184 108.0 L180 170.0 L177 203.0 L177 204.0 L179 161.0 L190 57.0 L198 8.0 L202 17.0 L215 102.0 L217 189.0 L217 191.0 L216 181.0 L219 100.0 L220 60.0 L223 67.0 L231 141.0 L223 203.0 L219 215.0 L217 204.0 L225 113.0 L229 63.0 L233 66.0 L239 127.0 L234 190.0 L233 197.0 L231 190.0 L235 130.0 L239 88.0 L241 90.0 L250 124.0 L250 188.0 L247 207.0 L246 206.0 L245 144.0 L250 112.0 L254 114.0 L257 119.0 " fill="none" stroke="black" /></svg>