<?xml version="1.0" encoding="utf-8" ?>
<svg baseProfile="tiny" height="286" version="1.2" viewBox="-3 -3 577 286" width="577" xmlns="http://www.w3.org/2000/svg" xmlns:ev="http://www.w3.org/2001/xml-events" xmlns:xlink="http://www.w3.org/1999/xlink"><defs /><path d="M0 286 L3 283 L56 238 L100 199 L103 196 L103 195 L104 195 L68 176 " fill="none" stroke="black" /><path d="M0 286 L3 283 L56 238 L100 199 L103 196 L103 195 L104 195 L68 176 M68 172 L69 169 L97 138 L134 107 L153 96 L164 95 L168 98 L176 122 L189 169 L194 196 L196 202 L196 201 L196 191 L214 145 L241 107 L254 96 L258 95 L260 95 L260 96 L280 87 L350 38 L401 7 L430 0 L436 6 L438 20 L438 31 L438 34 L437 35 L436 35 L436 36 L433 43 L430 57 L427 76 L425 85 L424 89 L424 90 L424 91 L425 91 L429 91 L436 91 L441 88 L452 85 L481 82 L520 81 L551 81 L571 83 L576 85 L577 85 " fill="none" stroke="black" /></svg>