<?xml version="1.0" encoding="utf-8" ?>
<svg baseProfile="tiny" height="270" version="1.2" viewBox="-3 -3 593 270" width="593" xmlns="http://www.w3.org/2000/svg" xmlns:ev="http://www.w3.org/2001/xml-events" xmlns:xlink="http://www.w3.org/1999/xlink"><defs /><path d="M0 270 L3 270 L26 266 L46 263 L71 262 L91 261 L110 260 L124 259 L150 256 L166 252 L179 250 L184 249 L189 248 L193 247 L202 245 L209 243 L214 241 L219 239 L225 237 L230 236 L237 234 L251 229 L262 224 L279 218 L296 210 L311 203 L323 198 L337 194 L341 192 L343 191 L344 191 L345 191 L347 190 L350 189 L354 188 L359 186 L366 184 L373 181 L378 179 L380 178 L381 178 L383 177 L386 175 L395 171 L402 168 L415 161 L429 153 L436 148 L441 146 L444 144 L449 142 L458 138 L474 129 L495 118 L514 107 L529 96 L539 89 L548 82 L556 77 L565 71 L571 67 L574 63 L577 58 L581 48 L584 37 L588 20 L590 11 L592 5 L593 2 L593 1 L593 0 " fill="none" stroke="black" /></svg>