<?xml version="1.0" encoding="utf-8" ?>
<svg baseProfile="tiny" height="398" version="1.2" viewBox="-3 -3 451 398" width="451" xmlns="http://www.w3.org/2000/svg" xmlns:ev="http://www.w3.org/2001/xml-events" xmlns:xlink="http://www.w3.org/1999/xlink"><defs /><path d="M173 184 L173 172 L173 153 L182 128 L203 114 L236 105 L288 98 L304 98 L307 98 L304 105 L266 135 L215 168 L176 191 L165 195 L165 194 L173 193 L210 188 L279 179 L380 167 L434 161 L449 161 L451 161 L443 162 L431 162 L397 162 L307 181 L282 189 L272 193 L272 194 L272 195 L278 197 L299 201 L339 213 L379 226 L405 237 L413 241 L414 243 L405 242 L393 235 L367 222 L311 200 L282 190 L269 186 L267 187 L272 202 L287 239 L299 291 L307 324 L311 337 L311 339 L307 338 L297 330 L279 316 L237 265 L213 237 L198 219 L195 216 L200 227 L204 242 L207 262 L202 286 L168 330 L106 390 L79 398 L71 395 L68 387 L68 381 L69 375 L75 364 L99 316 L167 185 L190 148 L198 136 L199 136 L197 142 L181 151 L158 157 L109 167 L57 171 L19 165 L3 151 L0 142 L0 140 L6 140 L33 142 L93 150 L156 155 L198 155 L206 153 L206 148 L205 142 L198 127 L191 72 L191 22 L191 0 L194 10 L200 23 L211 42 L226 69 L237 95 L242 106 L243 108 L244 108 L247 98 L269 67 L309 32 L326 24 L333 24 L335 24 L335 28 L333 36 L330 47 L326 53 L320 59 L311 71 L301 91 L296 106 L295 113 L295 115 L308 110 L346 109 L373 109 L384 111 " fill="none" stroke="black" /></svg>