<?xml version="1.0" encoding="utf-8" ?>
<svg baseProfile="tiny" height="496" version="1.2" viewBox="-3 -3 678 496" width="678" xmlns="http://www.w3.org/2000/svg" xmlns:ev="http://www.w3.org/2001/xml-events" xmlns:xlink="http://www.w3.org/1999/xlink"><defs /><path d="M0 229 L0 230 L8 245 L30 267 L41 274 L43 275 L41 275 " fill="none" stroke="black" /><circle cx="41" cy="275" fill="black" r="1" /><path d="M0 229 L0 230 L8 245 L30 267 L41 274 L43 275 L41 275 M67 208 L67 206 L72 205 L82 206 L114 246 L139 278 L151 290 L155 288 L163 265 L174 240 L178 231 L179 232 L180 236 L181 237 L183 232 L189 229 L195 229 L205 243 L209 250 L211 251 L213 243 L216 236 L218 236 L222 239 L237 239 L284 208 L334 174 L352 167 L357 169 L361 182 L362 185 L363 186 L363 184 L364 183 L364 185 L365 187 L365 184 L358 181 L277 180 L199 180 L160 173 L139 148 L128 127 L122 111 L122 106 L122 105 L125 112 L128 128 L130 138 L131 139 L146 107 L210 34 L250 0 L270 1 L273 52 L275 171 L276 260 L279 290 L281 299 L281 300 L285 294 L327 253 L398 209 L445 193 L466 193 L484 242 L510 425 L514 482 L516 496 L521 483 L568 409 L629 341 L667 304 L677 295 L678 295 L676 295 L664 295 L636 290 L578 274 L511 260 L432 258 L336 272 L219 306 L148 330 L120 339 L116 339 L112 323 L110 222 L110 90 L112 46 L116 35 L123 42 L152 88 L247 214 L383 372 L436 416 L462 431 L470 421 L512 346 L579 212 L638 82 L659 35 L665 25 L665 28 L662 54 L646 87 L624 110 L580 138 L520 160 L379 187 L304 189 L272 179 L260 159 L248 138 L243 128 " fill="none" stroke="black" /></svg>