<?xml version="1.0" encoding="utf-8" ?>
<svg baseProfile="tiny" height="520" version="1.2" viewBox="-3 -3 1016 520" width="1016" xmlns="http://www.w3.org/2000/svg" xmlns:ev="http://www.w3.org/2001/xml-events" xmlns:xlink="http://www.w3.org/1999/xlink"><defs /><path d="M0 422 L0 421 L0 379 L0 282 L0 226 L0 212 L0 211 L0 212 L6 224 L17 246 L40 292 L84 397 L116 488 L130 517 L132 520 L134 517 L134 503 L132 484 L132 444 L149 359 L191 208 L202 160 L205 143 L205 141 L205 140 L206 140 L210 146 L216 161 L231 202 L262 282 L293 377 L306 429 L311 452 L312 455 L312 457 L313 457 L313 448 L313 420 L315 363 L336 214 L360 86 L372 22 L378 1 L379 0 L380 7 L380 16 L389 52 L426 178 L457 295 L470 342 L473 357 L475 361 L476 364 L477 365 L477 366 L477 364 L479 352 L479 337 L488 306 L519 216 L553 127 L563 103 L565 101 L565 102 L565 112 L565 125 L568 207 L584 302 L594 358 L596 374 L596 375 L597 376 L598 374 L599 369 L605 351 L639 276 L703 160 L738 97 L770 43 L785 17 L791 7 L793 4 L794 4 L794 6 L794 12 L792 24 L792 75 L794 186 L805 320 L812 384 L814 397 L814 398 L815 398 L816 397 L819 388 L834 365 L899 265 L946 194 L973 156 L985 136 L991 126 L994 122 L995 121 L995 124 L995 130 L995 143 L995 189 L1007 243 L1014 262 L1016 268 " fill="none" stroke="black" /></svg>