<?xml version="1.0" encoding="utf-8" ?>
<svg baseProfile="tiny" height="243" version="1.2" viewBox="-3 -3 636 243" width="636" xmlns="http://www.w3.org/2000/svg" xmlns:ev="http://www.w3.org/2001/xml-events" xmlns:xlink="http://www.w3.org/1999/xlink"><defs /><path d="M0 242 L0 243 L3 240 L31 200 L61 163 L78 148 L81 148 L86 169 L91 191 L93 194 L94 189 L97 183 L99 182 L109 211 L114 225 L124 220 L159 156 L176 123 L179 120 L179 148 L179 157 L180 157 L182 154 L183 158 L183 178 L183 182 L219 126 L230 110 L233 116 L230 203 L229 229 L272 183 L314 132 L317 136 L312 182 L310 197 L344 142 L361 116 L366 133 L362 167 L361 178 L376 154 L385 140 L385 152 L385 178 L389 182 L437 119 L451 105 L452 143 L449 180 L448 191 L482 131 L495 112 L496 121 L496 137 L500 132 L581 23 L603 0 L603 23 L601 64 L602 79 L620 68 L632 64 L636 72 " fill="none" stroke="black" /></svg>