<?xml version="1.0" encoding="utf-8" ?>
<svg baseProfile="tiny" height="16" version="1.2" viewBox="-3 -3 726 16" width="726" xmlns="http://www.w3.org/2000/svg" xmlns:ev="http://www.w3.org/2001/xml-events" xmlns:xlink="http://www.w3.org/1999/xlink"><defs /><path d="M0 16 L9 16 L33 16 L72 16 L102 16 L126 16 L143 15 L159 15 L172 15 L182 14 L194 14 L203 14 L212 13 L222 13 L231 12 L238 12 L247 12 L257 11 L266 11 L275 11 L287 11 L299 11 L312 10 L318 10 L323 10 L328 10 L332 10 L337 10 L343 10 L353 10 L362 9 L371 8 L379 7 L384 6 L386 6 L389 6 L394 5 L399 4 L406 3 L413 2 L424 2 L434 2 L445 1 L454 1 L466 1 L483 0 L503 0 L522 0 L532 0 L550 0 L564 0 L589 0 L604 0 L625 1 L652 4 L695 7 L715 10 L721 12 L724 13 L725 13 L726 14 " fill="none" stroke="black" /></svg>