<?xml version="1.0" encoding="utf-8" ?>
<svg baseProfile="tiny" height="280" version="1.2" viewBox="-3 -3 718 280" width="718" xmlns="http://www.w3.org/2000/svg" xmlns:ev="http://www.w3.org/2001/xml-events" xmlns:xlink="http://www.w3.org/1999/xlink"><defs /><path d="M0 229 L0 222 L5 157 L34 63 L51 17 L60 1 L61 0 L63 10 L68 23 L97 90 L142 205 L162 260 L170 278 L172 280 L173 280 L174 277 L179 263 L202 226 L245 166 L300 88 L334 38 L347 22 L349 21 L350 21 L350 22 L351 23 L351 28 L353 41 L360 68 L371 104 L390 170 L402 210 L407 225 L413 239 L417 248 L419 252 L420 253 L421 253 L423 248 L425 237 L432 201 L457 139 L484 80 L491 61 L495 52 L496 51 L496 50 L497 49 L498 49 L499 49 L500 53 L510 67 L572 123 L634 183 L681 232 L707 256 L716 265 L718 266 " fill="none" stroke="black" /></svg>