<?xml version="1.0" encoding="utf-8" ?>
<svg baseProfile="tiny" height="361" version="1.2" viewBox="-3 -3 865 361" width="865" xmlns="http://www.w3.org/2000/svg" xmlns:ev="http://www.w3.org/2001/xml-events" xmlns:xlink="http://www.w3.org/1999/xlink"><defs /><path d="M0 303 L11 296 L65 266 L148 236 L220 218 L308 202 L407 192 L481 186 L549 178 L596 171 L617 167 L624 164 L628 161 L632 159 L636 155 L647 148 L660 138 L668 133 L672 128 L674 127 L673 127 L670 129 L666 131 L662 133 L654 135 L635 138 L610 141 L591 144 L558 149 L493 154 L392 159 L308 170 L265 177 L229 187 L195 199 L176 205 L157 209 L146 212 L137 214 L130 216 L116 219 L95 223 L76 228 L38 233 L20 235 L10 236 L5 236 L4 236 L4 235 L5 234 L10 233 L19 231 L30 227 L44 220 L78 199 L121 177 L170 155 L240 128 L337 92 L431 61 L536 29 L602 13 L656 5 L690 2 L725 0 L746 0 L756 0 L758 0 L756 0 L754 1 L753 2 L752 4 L749 7 L744 10 L722 21 L682 37 L640 49 L593 62 L566 68 L547 71 L538 73 L530 75 L517 78 L503 83 L492 89 L484 93 L477 97 L471 101 L469 104 L469 106 L473 108 L482 108 L489 104 L501 98 L534 93 L614 90 L711 89 L788 89 L846 89 L862 89 L864 90 L865 91 L865 93 L862 95 L853 99 L843 104 L802 133 L700 196 L532 269 L316 339 L254 357 L243 360 L242 361 " fill="none" stroke="black" /></svg>