<?xml version="1.0" encoding="utf-8" ?>
<svg baseProfile="tiny" height="334" version="1.2" viewBox="-3 -3 720 334" width="720" xmlns="http://www.w3.org/2000/svg" xmlns:ev="http://www.w3.org/2001/xml-events" xmlns:xlink="http://www.w3.org/1999/xlink"><defs /><path d="M0 297 L6 297 L19 297 L43 294 L69 281 L85 275 L92 275 L94 276 L96 278 L98 274 L113 258 L125 251 L131 250 L134 254 L138 255 L196 207 L218 185 L226 182 L226 186 L226 192 L226 193 L227 189 L229 184 L229 183 L229 190 L229 197 L229 198 L230 190 L240 176 L243 174 L243 179 L243 190 L243 194 L245 192 L291 127 L306 108 L310 106 L309 135 L307 179 L307 193 L309 191 L312 181 L312 180 L310 202 L310 250 L314 270 L336 251 L350 236 L360 227 L361 231 L361 239 L361 240 L368 233 L373 228 L373 236 L373 282 L375 302 L380 303 L391 292 L394 291 L394 296 L394 302 L395 302 L405 288 L413 278 L414 278 L414 285 L414 289 L426 271 L450 245 L460 238 L460 247 L460 264 L462 268 L472 252 L481 238 L483 237 L482 252 L482 255 L483 252 L488 241 L489 238 L489 275 L488 321 L488 334 L501 296 L517 267 L521 261 L521 266 L521 269 L534 236 L589 138 L615 97 L619 96 L609 159 L603 190 L602 194 L691 36 L717 0 L720 3 L716 52 L714 80 " fill="none" stroke="black" /></svg>