<?xml version="1.0" encoding="utf-8" ?>
<svg baseProfile="tiny" height="52" version="1.2" viewBox="-3 -3 602 52" width="602" xmlns="http://www.w3.org/2000/svg" xmlns:ev="http://www.w3.org/2001/xml-events" xmlns:xlink="http://www.w3.org/1999/xlink"><defs /><path d="M0 30 L1 30 L5 31 L12 34 L25 35 L49 20 L63 7 L71 1 L75 1 L81 12 L98 32 L113 45 L123 51 L131 52 L148 46 L171 35 L186 30 L190 30 L193 30 L203 26 L218 17 L229 14 L234 17 L235 20 L239 22 L252 22 L279 20 L318 12 L368 3 L395 0 L407 0 L413 0 L415 2 L415 3 L416 4 L430 7 L460 12 L495 16 L526 16 L544 15 L563 12 L584 11 L599 16 L602 18 L598 16 " fill="none" stroke="black" /></svg>