<?xml version="1.0" encoding="utf-8" ?>
<svg baseProfile="tiny" height="268" version="1.2" viewBox="-3 -3 898 268" width="898" xmlns="http://www.w3.org/2000/svg" xmlns:ev="http://www.w3.org/2001/xml-events" xmlns:xlink="http://www.w3.org/1999/xlink"><defs /><path d="M0 268 L1 268 L10 268 L31 268 L60 266 L85 261 L109 257 L128 253 L142 250 L159 245 L176 241 L188 238 L198 235 L209 231 L217 228 L224 226 L232 224 L242 221 L251 219 L259 216 L266 214 L278 212 L294 208 L317 202 L357 193 L393 183 L427 174 L444 170 L460 167 L474 165 L489 162 L516 155 L575 134 L632 112 L696 84 L786 45 L843 22 L898 0 " fill="none" stroke="black" /></svg>