<?xml version="1.0" encoding="utf-8" ?>
<svg baseProfile="tiny" height="447" version="1.2" viewBox="-3 -3 563 447" width="563" xmlns="http://www.w3.org/2000/svg" xmlns:ev="http://www.w3.org/2001/xml-events" xmlns:xlink="http://www.w3.org/1999/xlink"><defs /><path d="M0 307 L12 307 L68 296 L181 279 L291 266 L390 262 L461 265 L490 272 L505 277 L509 279 L511 280 L512 280 L513 280 L514 280 L515 280 L515 279 L515 278 L514 277 L513 276 L508 272 L505 268 L504 267 L503 266 L501 262 L491 234 L480 203 L473 181 L465 150 L453 74 L445 22 L439 2 L438 0 L437 0 L436 6 L434 15 L431 29 L419 73 L406 124 L398 153 L389 177 L365 231 L333 308 L319 340 L317 343 L316 344 L315 345 L314 345 L313 345 L311 339 L308 327 L304 313 L299 297 L286 251 L263 148 L250 80 L245 53 L243 50 L243 51 L243 56 L243 62 L243 70 L243 75 L243 80 L240 106 L227 185 L219 245 L214 270 L204 304 L183 378 L170 427 L165 445 L164 447 L163 447 L162 447 L161 444 L158 435 L154 417 L145 385 L127 318 L111 253 L100 201 L94 171 L89 146 L86 129 L83 120 L83 117 L82 115 L82 114 L83 114 L91 114 L136 114 L258 119 L367 140 L465 161 L505 172 L532 179 L541 182 L547 183 L554 184 L561 184 L563 184 " fill="none" stroke="black" /></svg>