<?xml version="1.0" encoding="utf-8" ?>
<svg baseProfile="tiny" height="521" version="1.2" viewBox="-3 -3 834 521" width="834" xmlns="http://www.w3.org/2000/svg" xmlns:ev="http://www.w3.org/2001/xml-events" xmlns:xlink="http://www.w3.org/1999/xlink"><defs /><path d="M0 238 L0 237 L22 222 L44 214 L60 214 L68 214 L74 214 L77 214 L79 216 L82 220 L110 246 L157 297 L173 314 L176 315 L195 306 L264 258 L341 204 L364 189 L371 187 L372 189 L372 197 L373 203 L375 204 L383 197 L410 170 L424 160 L429 160 L431 200 L438 235 L442 248 L449 233 L493 162 L512 137 L518 134 L518 141 L518 145 L579 49 L618 0 L624 2 L620 127 L620 167 L622 172 L627 159 L629 157 L627 237 L626 283 L626 299 L650 228 L675 183 L677 191 L668 258 L664 276 L664 252 L691 187 L700 176 L698 224 L696 240 L709 187 L751 110 L765 95 L748 249 L736 314 L734 310 L784 184 L800 163 L795 248 L781 329 L775 363 L807 257 L826 223 L833 215 L799 332 L786 359 L782 330 L822 158 L834 125 L777 256 L693 390 L673 408 L670 386 L670 365 L648 405 L560 499 L524 521 L511 491 L504 419 L499 391 L494 408 L491 430 L488 421 L485 336 L483 303 L479 293 L474 318 L472 322 " fill="none" stroke="black" /></svg>