<?xml version="1.0" encoding="utf-8" ?>
<svg baseProfile="tiny" height="442" version="1.2" viewBox="-3 -3 570 442" width="570" xmlns="http://www.w3.org/2000/svg" xmlns:ev="http://www.w3.org/2001/xml-events" xmlns:xlink="http://www.w3.org/1999/xlink"><defs /><path d="M0 223 L0 217 L2 191 L13 178 L21 176 L40 211 L83 358 L98 419 L105 442 L110 430 L149 331 L187 257 L203 240 L214 250 L233 294 L245 315 L249 319 L252 314 L252 291 L252 245 L253 210 L256 199 L258 198 L263 209 L270 236 L275 257 L278 264 L278 261 L278 193 L296 39 L305 2 L307 0 L309 14 L319 78 L333 191 L340 259 L344 284 L344 262 L357 178 L375 119 L385 97 L388 96 L392 114 L404 164 L413 196 L417 207 L417 208 L419 173 L442 88 L461 39 L472 23 L476 24 L482 50 L507 129 L546 234 L559 264 L562 269 L562 256 L562 234 L562 219 L563 218 L564 218 L570 227 " fill="none" stroke="black" /></svg>