<?xml version="1.0" encoding="utf-8" ?>
<svg baseProfile="tiny" height="53" version="1.2" viewBox="-3 -3 508 53" width="508" xmlns="http://www.w3.org/2000/svg" xmlns:ev="http://www.w3.org/2001/xml-events" xmlns:xlink="http://www.w3.org/1999/xlink"><defs /><path d="M0 53 L1 53 L7 53 L15 53 L32 49 L62 25 L71 16 L75 14 L76 14 L77 14 L82 14 L95 12 L109 10 L120 10 L131 11 L138 14 L143 15 L148 15 L154 14 L156 14 L162 21 L174 26 L197 19 L210 11 L214 9 L217 15 L228 18 L245 9 L256 3 L259 3 L267 8 L297 5 L309 0 L313 0 L318 12 L337 18 L362 12 L369 10 L372 14 L383 26 L411 31 L425 31 L431 31 L445 42 L475 47 L494 47 L508 46 " fill="none" stroke="black" /></svg>