<?xml version="1.0" encoding="utf-8" ?>
<svg baseProfile="tiny" height="158" version="1.2" viewBox="-3 -3 612 158" width="612" xmlns="http://www.w3.org/2000/svg" xmlns:ev="http://www.w3.org/2001/xml-events" xmlns:xlink="http://www.w3.org/1999/xlink"><defs /><path d="M0 147 L1 137 L10 127 L12 127 L12 128 L12 135 L16 136 L22 134 L31 128 L46 126 L55 133 L70 151 L78 158 L89 158 L109 143 L123 138 L126 141 L129 145 L143 145 L169 134 L186 132 L190 134 L192 135 L203 129 L228 112 L239 108 L241 109 L243 111 L280 94 L305 80 L314 79 L316 80 L319 81 L387 40 L424 20 L429 20 L430 25 L438 17 L443 14 L445 16 L445 20 L453 18 L467 19 L486 28 L572 28 L612 0 " fill="none" stroke="black" /></svg>