<?xml version="1.0" encoding="utf-8" ?>
<svg baseProfile="tiny" height="562" version="1.2" viewBox="-3 -3 419 562" width="419" xmlns="http://www.w3.org/2000/svg" xmlns:ev="http://www.w3.org/2001/xml-events" xmlns:xlink="http://www.w3.org/1999/xlink"><defs /><path d="M0 515 L0 469 L12 231 L35 108 L50 39 L56 11 L57 8 L57 9 L58 10 L59 17 L64 31 L81 71 L129 197 L158 298 L173 380 L179 442 L182 475 L183 494 L183 501 L184 503 L184 501 L186 490 L193 407 L226 237 L258 80 L274 18 L281 1 L282 0 L283 2 L283 6 L284 12 L287 31 L309 95 L350 230 L389 401 L408 499 L413 527 L415 538 L416 548 L417 556 L418 559 L418 561 L419 562 " fill="none" stroke="black" /></svg>