<?xml version="1.0" encoding="utf-8" ?>
<svg baseProfile="tiny" height="228" version="1.2" viewBox="-3 -3 887 228" width="887" xmlns="http://www.w3.org/2000/svg" xmlns:ev="http://www.w3.org/2001/xml-events" xmlns:xlink="http://www.w3.org/1999/xlink"><defs /><path d="M205 72 L200 70 L191 68 L185 67 L180 66 L179 66 L176 66 L168 70 L162 72 L160 74 L157 77 L155 80 L152 84 L151 86 L150 89 L149 92 L149 95 L149 102 L150 114 L153 122 L158 132 L166 143 L171 151 L181 159 L224 176 L262 184 L309 187 L361 188 L404 183 L427 172 L440 158 L443 149 L443 142 L443 135 L443 132 L441 128 L440 126 L437 121 L434 118 L430 114 L423 108 L413 103 L399 98 L386 96 L382 96 L379 96 L375 98 L368 102 L362 108 L361 112 L359 116 L358 124 L358 132 L359 140 L370 159 L389 179 L421 197 L467 212 L532 223 L598 224 L685 218 L743 200 L794 176 L829 152 L860 133 L877 123 L884 120 L885 119 L886 121 L887 128 L887 132 L887 137 L880 145 L872 154 L854 164 L815 175 L775 177 L727 178 L681 172 L656 160 L642 143 L631 119 L629 104 L629 91 L635 81 L648 73 L667 64 L703 61 L727 64 L746 73 L758 82 L763 91 L764 104 L763 128 L747 155 L726 177 L693 197 L653 215 L601 225 L554 228 L489 208 L435 187 L424 178 L420 163 L414 130 L406 103 L401 84 L401 76 L404 72 L411 67 L422 64 L427 64 L431 64 L443 64 L456 67 L470 75 L486 88 L494 104 L496 117 L488 135 L459 160 L415 184 L347 201 L269 201 L179 172 L138 142 L117 106 L108 73 L109 42 L118 20 L131 7 L145 1 L175 0 L201 1 L215 6 L225 12 L234 23 L245 39 L248 46 L249 53 L245 69 L228 92 L197 111 L168 129 L135 149 L97 165 L51 180 L18 190 L2 192 L0 192 " fill="none" stroke="black" /></svg>