<?xml version="1.0" encoding="utf-8" ?>
<svg baseProfile="tiny" height="232" version="1.2" viewBox="-3 -3 1097 232" width="1097" xmlns="http://www.w3.org/2000/svg" xmlns:ev="http://www.w3.org/2001/xml-events" xmlns:xlink="http://www.w3.org/1999/xlink"><defs /><path d="M149 123 L121 144 L101 158 L82 170 L66 182 L49 193 L40 200 L31 207 L23 212 L16 215 L10 220 L4 223 L0 225 L9 217 L42 199 L73 183 L111 170 L159 155 L187 148 L211 141 L236 134 L253 130 L277 123 L295 118 L315 112 L338 104 L359 98 L368 94 L375 93 L388 88 L400 84 L418 80 L437 73 L447 68 L459 62 L468 58 L475 54 L472 70 L453 103 L433 133 L407 166 L390 188 L378 203 L371 212 L365 221 L359 229 L358 232 L394 207 L436 183 L487 164 L540 145 L590 129 L627 117 L656 107 L674 98 L695 90 L718 82 L736 76 L751 70 L762 65 L779 58 L791 54 L800 51 L802 50 L803 50 L804 66 L805 81 L806 99 L806 118 L804 141 L801 161 L798 180 L796 196 L796 204 L794 214 L792 220 L792 222 L803 212 L824 196 L851 182 L869 170 L890 156 L904 148 L917 139 L930 131 L949 120 L970 107 L999 95 L1014 88 L1027 81 L1037 75 L1051 69 L1063 62 L1078 56 L1084 54 L1087 53 L1090 51 L1093 50 L1096 48 L1097 56 L1097 71 L1097 89 L1096 111 L1094 133 L1091 155 L1088 169 L1085 184 L1082 192 L1081 195 L1080 195 L1065 188 L1057 184 L1040 171 L1017 152 L981 125 L921 86 L868 61 L828 43 L804 33 L796 29 L793 28 L791 27 L790 27 L789 26 L787 32 L782 54 L766 89 L744 120 L717 154 L696 173 L674 191 L658 201 L649 204 L640 204 L621 196 L574 169 L494 120 L400 65 L301 24 L262 12 L234 5 L223 2 L215 0 L214 0 L211 7 L201 40 L169 84 L133 114 L112 129 L106 132 " fill="none" stroke="black" /></svg>