<?xml version="1.0" encoding="utf-8" ?>
<svg baseProfile="tiny" height="345" version="1.2" viewBox="-3 -3 631 345" width="631" xmlns="http://www.w3.org/2000/svg" xmlns:ev="http://www.w3.org/2001/xml-events" xmlns:xlink="http://www.w3.org/1999/xlink"><defs /><path d="M331 156 L323 148 L308 139 L276 124 L258 118 L250 116 L241 116 L232 118 L223 123 L211 131 L204 136 L199 146 L195 159 L195 171 L197 181 L206 197 L219 211 L238 224 L268 237 L306 253 L353 261 L382 261 L402 256 L424 242 L438 217 L444 195 L438 169 L421 144 L395 125 L374 112 L343 102 L305 94 L262 92 L240 95 L227 101 L212 109 L198 122 L185 138 L179 155 L179 171 L183 192 L190 210 L202 230 L229 254 L279 280 L328 297 L379 304 L434 304 L487 297 L521 275 L541 239 L543 207 L543 183 L538 165 L523 146 L501 125 L446 93 L394 66 L336 45 L262 29 L205 27 L163 31 L143 45 L133 65 L122 88 L116 114 L115 133 L123 165 L140 193 L168 224 L203 254 L244 282 L292 307 L336 324 L391 340 L433 345 L475 345 L517 336 L566 311 L614 271 L630 235 L631 192 L618 155 L593 120 L549 90 L423 45 L289 10 L195 1 L141 0 L88 7 L52 23 L23 51 L0 100 L0 145 L22 191 L54 234 L97 273 L139 299 L203 325 L255 334 L308 339 L363 341 L427 341 L495 328 L539 306 L571 279 L586 255 L590 230 L591 210 L587 178 L571 149 L537 115 L466 66 L382 31 L321 12 L257 7 L204 7 L159 13 L118 29 L83 51 L64 73 L54 106 L53 133 L67 167 L92 200 L128 226 L174 248 L245 263 L298 271 L341 274 L376 272 L406 258 L431 230 L447 193 L447 171 L443 155 L425 133 L394 113 L367 101 L333 92 L297 89 L267 88 L239 89 L212 98 L185 116 L173 132 L171 146 L172 156 L174 158 " fill="none" stroke="black" /></svg>