<?xml version="1.0" encoding="utf-8" ?>
<svg baseProfile="tiny" height="440" version="1.2" viewBox="-3 -3 656 440" width="656" xmlns="http://www.w3.org/2000/svg" xmlns:ev="http://www.w3.org/2001/xml-events" xmlns:xlink="http://www.w3.org/1999/xlink"><defs /><path d="M21 190 L0 248 L0 288 L26 334 L106 393 L215 427 L371 430 L500 411 L597 369 L651 296 L656 250 L640 198 L590 129 L517 72 L418 24 L325 1 L250 1 L198 16 L147 37 L115 57 L107 71 L105 78 L105 84 L105 92 L106 99 L107 100 L108 106 L116 123 L119 131 L120 133 " fill="none" stroke="black" /><path d="M21 190 L0 248 L0 288 L26 334 L106 393 L215 427 L371 430 L500 411 L597 369 L651 296 L656 250 L640 198 L590 129 L517 72 L418 24 L325 1 L250 1 L198 16 L147 37 L115 57 L107 71 L105 78 L105 84 L105 92 L106 99 L107 100 L108 106 L116 123 L119 131 L120 133 M93 134 L99 129 L126 107 L178 76 L186 73 L179 87 L147 124 L117 161 L99 187 L98 189 L100 187 L133 165 L157 151 L157 153 L122 205 L62 258 L47 276 L46 276 L80 236 L191 111 L259 13 L264 5 L257 28 L195 172 L160 258 L154 273 L154 272 L174 226 L226 112 L283 0 L285 3 L286 79 L281 227 L275 329 L275 345 L279 335 L308 260 L360 143 L396 83 L399 85 L417 176 L436 327 L441 358 L442 358 L450 322 L485 207 L515 121 L520 124 L552 259 L585 376 L595 396 L596 392 L608 302 L630 175 L636 147 L637 160 L641 281 L633 355 L623 371 L612 358 L576 277 L529 155 L516 132 L513 144 L499 258 L480 312 L475 320 L475 316 L473 270 L465 198 L453 164 L444 186 L405 314 L366 399 L355 412 L355 411 L349 361 L305 186 L271 103 L267 102 L236 216 L183 393 L162 440 L162 436 L157 368 L126 234 L104 177 L96 188 L54 327 L43 359 L42 359 L42 322 L41 191 L33 118 L32 135 L37 221 L43 270 L45 276 L56 263 L127 175 L248 66 L264 80 L276 169 L279 237 L281 253 L283 249 L328 150 L397 40 L412 36 L432 140 L443 238 L448 261 L454 250 L462 234 L463 234 L464 235 L465 238 L467 240 L481 233 " fill="none" stroke="black" /></svg>