<?xml version="1.0" encoding="utf-8" ?>
<svg baseProfile="tiny" height="60" version="1.2" viewBox="-3 -3 1084 60" width="1084" xmlns="http://www.w3.org/2000/svg" xmlns:ev="http://www.w3.org/2001/xml-events" xmlns:xlink="http://www.w3.org/1999/xlink"><defs /><path d="M0 32 L1 32 L33 35 L99 40 L137 40 L139 40 L145 40 L165 39 L188 39 L198 39 L204 39 L208 39 L216 39 L235 39 L264 39 L290 39 L303 39 L306 39 L308 39 L310 39 L314 39 L325 39 L341 39 L360 39 L382 39 L400 39 L405 39 L415 38 L447 37 L462 37 L452 36 L410 35 L336 32 L309 32 L315 31 L366 27 L440 24 L459 24 L452 24 L406 24 L303 19 L267 17 L281 15 L323 11 L392 9 L429 6 L415 6 L364 6 L315 6 L303 6 L323 9 L373 13 L418 20 L427 22 L427 25 L423 30 L418 33 L414 34 L414 35 L413 35 L415 35 L433 35 L465 35 L499 35 L526 35 L545 35 L555 35 L566 35 L587 35 L617 35 L631 35 L642 35 L654 35 L666 35 L677 35 L691 35 L705 35 L721 34 L742 34 L769 33 L792 33 L805 33 L799 32 L758 25 L711 23 L685 22 L688 21 L714 17 L764 15 L798 15 L776 15 L722 15 L691 15 L690 15 L706 15 L756 14 L774 14 L743 13 L644 5 L611 3 L615 3 L679 3 L769 3 L829 5 L832 5 L827 5 L756 2 L703 0 L696 0 L705 2 L777 14 L866 30 L887 38 L868 45 L833 55 L793 59 L775 60 L776 60 L799 60 L856 60 L931 60 L977 60 L992 60 L996 60 L1003 60 L1011 60 L1019 59 L1024 59 L1026 58 L1032 58 L1038 58 L1045 58 L1054 58 L1059 58 L1060 58 L1060 57 L1009 42 L936 37 L910 36 L944 36 L1015 33 L1072 24 L1076 23 L1072 22 L1009 20 L941 18 L923 19 L940 20 L1035 23 L1084 23 " fill="none" stroke="black" /></svg>