<?xml version="1.0" encoding="utf-8" ?>
<svg baseProfile="tiny" height="548" version="1.2" viewBox="-3 -3 1283 548" width="1283" xmlns="http://www.w3.org/2000/svg" xmlns:ev="http://www.w3.org/2001/xml-events" xmlns:xlink="http://www.w3.org/1999/xlink"><defs /><path d="M27 143 L14 291 L1 376 L0 377 L11 340 L50 217 L111 79 L170 0 L175 4 L183 149 L183 357 L183 434 L183 435 L191 388 L216 183 L238 67 L242 53 L243 95 L243 293 L241 421 L241 433 L251 396 L291 237 L334 73 L344 44 L346 149 L343 366 L340 463 L340 469 L344 422 L355 273 L375 93 L386 66 L391 106 L404 317 L419 494 L427 520 L440 479 L489 309 L562 129 L594 77 L601 158 L607 397 L608 546 L609 548 L617 464 L628 283 L643 135 L649 118 L669 282 L685 452 L697 490 L700 419 L711 278 L723 172 L729 286 L731 393 L733 418 L733 417 L745 326 L773 190 L799 121 L803 122 L814 243 L823 411 L827 468 L828 467 L834 399 L852 277 L874 213 L876 228 L887 342 L894 414 L895 417 L898 399 L906 331 L914 293 L915 298 L923 334 L928 349 L936 325 L942 315 L943 318 L946 332 L947 334 L953 321 L963 303 L964 302 L969 318 L972 324 L976 319 L988 292 L992 286 L994 296 L996 310 L997 314 L998 312 L1009 297 L1011 295 L1014 307 L1018 318 L1019 318 L1024 311 L1026 309 L1031 320 L1041 343 L1043 345 L1044 347 L1049 361 L1050 363 L1054 350 L1069 277 L1100 144 L1136 49 L1139 47 L1147 141 L1156 381 L1156 489 L1156 496 L1156 469 L1163 347 L1168 218 L1168 210 L1171 341 L1178 474 L1179 495 L1181 486 L1194 402 L1237 214 L1258 163 L1260 177 L1267 317 L1274 450 L1276 476 L1277 455 L1277 363 L1278 232 L1278 200 L1278 239 L1283 425 L1283 493 L1282 497 L1282 486 L1271 402 L1225 255 L1186 181 L1168 235 L1152 350 L1147 376 L1146 375 " fill="none" stroke="black" /></svg>