<?xml version="1.0" encoding="utf-8" ?>
<svg baseProfile="tiny" height="623" version="1.2" viewBox="-3 -3 1599 623" width="1599" xmlns="http://www.w3.org/2000/svg" xmlns:ev="http://www.w3.org/2001/xml-events" xmlns:xlink="http://www.w3.org/1999/xlink"><defs /><path d="M303 37 L142 35 L199 40 L569 67 L1035 89 L1274 111 L1228 115 L766 99 L268 72 L118 69 L189 79 L602 106 L1134 147 L1239 163 L1120 165 L579 135 L42 95 L0 87 L213 105 L784 133 L1352 173 L1599 200 L1577 204 L1234 200 L592 163 L429 161 L469 168 L841 190 L1266 210 L1391 225 L1167 217 L550 172 L101 146 L34 146 L146 161 L561 183 L1003 225 L1040 233 L806 226 L215 181 L0 160 L6 162 L454 191 L1049 224 L1497 263 L1599 278 L1445 280 L920 250 L263 192 L206 192 L383 212 L917 254 L1385 309 L1516 334 L1329 334 L792 289 L304 258 L213 265 L298 299 L704 369 L1229 417 L1368 432 L1330 430 L964 393 L472 337 L343 331 L484 338 L996 373 L1446 427 L1554 455 L1449 457 L988 417 L521 380 L501 384 L691 432 L1096 502 L1303 550 L1300 559 L1079 550 L688 501 L525 495 L521 495 L690 510 L1206 550 L1458 587 L1463 591 L1206 572 L673 504 L299 466 L268 466 L537 495 L1028 542 L1348 598 L1377 609 L1135 598 L474 505 L170 470 L166 471 L426 505 L894 560 L1159 614 L1139 623 L709 580 L109 497 L0 484 L44 483 L475 502 L1112 556 L1343 576 L1318 573 L939 515 L436 422 L303 402 L504 400 L1030 408 L1427 439 L1482 444 L1279 428 L708 357 L192 289 L187 289 L476 291 L993 319 L1305 348 L1309 352 L767 302 L92 228 L0 203 L32 204 L449 219 L1118 243 L1599 268 L1591 270 L1274 240 L720 174 L490 159 L493 158 L834 155 L1246 155 L1439 156 L1428 150 L1119 99 L694 29 L540 1 L637 0 L1016 8 L1347 27 L1408 31 L1344 21 L1187 3 " fill="none" stroke="black" /></svg>