<?xml version="1.0" encoding="utf-8" ?>
<svg baseProfile="tiny" height="263" version="1.2" viewBox="-3 -3 269 263" width="269" xmlns="http://www.w3.org/2000/svg" xmlns:ev="http://www.w3.org/2001/xml-events" xmlns:xlink="http://www.w3.org/1999/xlink"><defs /><path d="M163 0 L164 6 L166 14 L167 23 L168 33 L169 46 L169 58 L170 75 L171 85 L172 94 L172 101 L172 108 L171 112 L171 116 L170 120 L170 123 L168 126 L166 133 L164 140 L163 145 L162 149 L161 152 L161 155 L160 160 L160 169 L160 173 L160 178 L160 183 L160 189 L160 198 L160 202 L160 205 L160 208 L159 212 L159 215 L159 218 L158 220 L157 224 L157 231 L156 236 L156 239 L156 241 L156 244 L153 251 L151 260 L150 261 L146 261 L136 261 L121 262 L120 263 L119 255 L118 249 L118 242 L118 235 L118 227 L118 220 L118 211 L118 200 L119 195 L119 194 L121 189 L123 183 L124 176 L126 170 L127 165 L128 162 L128 159 L129 155 L129 153 L129 151 L129 149 L129 146 L130 141 L130 138 L130 136 L130 135 L130 134 L126 133 L115 131 L101 128 L88 128 L78 128 L75 128 L74 128 L73 128 L70 128 L69 137 L68 152 L68 162 L68 171 L68 176 L68 181 L68 185 L68 191 L68 195 L68 197 L69 198 L69 201 L69 204 L69 209 L69 217 L69 229 L68 236 L68 240 L68 243 L68 246 L68 248 L58 248 L49 246 L40 245 L35 243 L31 242 L28 241 L27 241 L27 239 L23 228 L20 210 L20 189 L18 163 L16 140 L9 116 L4 99 L1 91 L0 89 L0 88 L0 86 L10 86 L50 86 L89 86 L107 87 L122 88 L144 88 L189 88 L216 88 L230 88 L233 88 L237 88 L247 87 L259 86 L262 85 L263 84 L264 81 L266 73 L268 57 L269 41 L269 32 L269 21 L269 13 L269 9 L269 6 " fill="none" stroke="black" /></svg>