<?xml version="1.0" encoding="utf-8" ?>
<svg baseProfile="tiny" height="364" version="1.2" viewBox="-3 -3 521 364" width="521" xmlns="http://www.w3.org/2000/svg" xmlns:ev="http://www.w3.org/2001/xml-events" xmlns:xlink="http://www.w3.org/1999/xlink"><defs /><path d="M226 160 L240 156 L268 136 L276 131 L278 134 L283 144 L290 150 L296 149 L306 144 L307 144 L314 148 L330 153 L344 152 L347 150 L348 150 L357 150 L371 144 L381 139 L386 147 L395 158 L399 159 L412 155 L428 148 L429 148 L433 153 L445 166 L447 167 L451 165 L454 162 L457 163 L467 165 L470 164 L471 164 L488 155 L512 141 L516 138 L516 137 L518 134 L518 145 L518 152 L519 151 L521 149 L521 150 L518 147 L512 143 L505 143 L490 151 L483 155 L477 142 L468 130 L466 129 L459 131 L456 133 L450 117 L423 77 L380 47 L351 44 L333 50 L331 52 L318 39 L276 27 L226 27 L179 27 L162 17 L149 4 L142 0 L134 4 L125 14 L123 14 L123 13 L123 12 L99 42 L69 87 L63 96 L63 95 L53 73 L49 68 L28 94 L7 129 L2 143 L2 154 L0 188 L3 222 L12 230 L35 225 L44 223 L53 237 L74 261 L120 278 L169 277 L173 274 L173 275 L179 300 L193 317 L222 315 L248 302 L251 300 L255 320 L272 344 L308 344 L341 325 L349 317 L350 319 L362 345 L389 356 L419 338 L429 327 L430 329 L440 355 L461 364 L501 338 L514 312 L514 310 L515 310 L521 290 L521 256 L521 255 L521 258 L520 258 L499 273 L463 302 L434 320 L430 319 L423 282 L392 211 L343 175 L298 185 L265 205 L258 207 L258 200 L254 189 L249 189 L247 190 L246 190 L241 166 L230 133 L222 121 L199 132 L177 147 L177 148 L179 119 L178 98 L168 97 L129 113 L124 116 L131 113 L166 97 L209 88 L228 88 " fill="none" stroke="black" /></svg>