<?xml version="1.0" encoding="utf-8" ?>
<svg baseProfile="tiny" height="597" version="1.2" viewBox="-3 -3 951 597" width="951" xmlns="http://www.w3.org/2000/svg" xmlns:ev="http://www.w3.org/2001/xml-events" xmlns:xlink="http://www.w3.org/1999/xlink"><defs /><path d="M634 374 L692 368 L714 341 L706 304 L645 250 L571 226 L525 233 L489 269 L477 318 L493 355 L569 388 L645 392 L713 374 L743 335 L737 291 L651 219 L550 187 L453 190 L384 215 L346 255 L342 299 L399 361 L519 405 L628 411 L706 385 L735 341 L726 295 L660 238 L568 220 L498 234 L430 287 L406 354 L424 413 L522 490 L653 523 L758 517 L835 476 L866 408 L859 339 L787 252 L664 204 L515 203 L364 252 L281 314 L270 362 L318 429 L411 482 L554 517 L683 517 L782 477 L830 420 L832 342 L795 272 L748 231 L701 217 L631 217 L518 245 L421 307 L413 361 L447 429 L543 514 L710 569 L832 561 L926 485 L951 381 L920 247 L837 115 L720 23 L576 0 L467 45 L349 177 L340 261 L367 330 L425 395 L569 468 L659 474 L720 452 L741 387 L718 289 L627 187 L435 126 L248 136 L85 196 L0 284 L0 363 L63 453 L237 552 L437 591 L609 578 L703 510 L731 425 L705 325 L651 258 L593 249 L476 277 L342 357 L277 431 L278 483 L360 542 L499 562 L677 554 L796 493 L843 406 L831 309 L748 216 L637 159 L550 156 L452 200 L378 268 L340 359 L367 491 L453 568 L573 597 L676 569 L739 491 L749 367 L661 195 L556 108 L470 84 L374 107 L284 174 L224 264 L229 359 L293 443 L413 512 L565 541 L693 523 L768 459 L794 340 L773 249 L719 167 L622 110 L538 99 L407 108 L245 172 L163 248 L146 333 L174 426 L230 493 L396 566 L576 581 L726 548 L825 453 L846 334 L821 217 L741 122 L633 83 L574 85 L550 99 L546 110 " fill="none" stroke="black" /></svg>