<?xml version="1.0" encoding="utf-8" ?>
<svg baseProfile="tiny" height="16" version="1.2" viewBox="-3 -3 1108 16" width="1108" xmlns="http://www.w3.org/2000/svg" xmlns:ev="http://www.w3.org/2001/xml-events" xmlns:xlink="http://www.w3.org/1999/xlink"><defs /><path d="M0 8 L13 10 L29 12 L43 13 L52 14 L59 14 L67 14 L76 14 L86 15 L93 15 L96 15 L101 15 L110 16 L120 16 L129 16 L133 16 L134 16 L136 16 L150 16 L168 16 L178 16 L186 16 L197 16 L208 16 L226 16 L238 16 L256 16 L273 16 L290 16 L300 16 L305 16 L312 16 L319 16 L321 16 L322 16 L327 16 L339 16 L353 16 L370 16 L382 16 L392 15 L403 14 L413 13 L417 13 L421 13 L422 13 L424 13 L427 13 L433 13 L438 13 L440 13 L442 13 L443 13 L444 13 L448 13 L453 13 L458 13 L462 13 L463 13 L464 13 L475 13 L486 13 L494 13 L499 13 L504 13 L506 13 L509 13 L520 13 L527 13 L529 13 L531 13 L538 13 L545 12 L552 12 L557 12 L568 12 L574 12 L576 12 L579 12 L580 12 L581 11 L583 11 L584 11 L585 11 L587 10 L588 10 L589 10 L589 9 L590 9 L592 9 L593 9 L594 8 L596 8 L597 7 L599 7 L600 6 L602 6 L604 6 L608 4 L612 4 L615 3 L617 3 L618 3 L619 2 L627 1 L634 1 L640 1 L646 0 L668 1 L711 5 L762 9 L778 9 L783 9 L786 9 L793 9 L806 9 L837 9 L867 9 L894 9 L911 10 L916 10 L918 10 L922 10 L933 10 L952 10 L968 10 L975 10 L979 10 L985 10 L992 9 L1000 9 L1009 9 L1017 9 L1025 9 L1032 9 L1038 9 L1043 9 L1048 9 L1057 9 L1064 9 L1069 9 L1072 9 L1081 9 L1092 8 L1102 8 L1104 8 L1105 8 L1106 8 L1107 8 L1108 8 " fill="none" stroke="black" /></svg>