<?xml version="1.0" encoding="utf-8" ?>
<svg baseProfile="tiny" height="328" version="1.2" viewBox="-3 -3 1233 328" width="1233" xmlns="http://www.w3.org/2000/svg" xmlns:ev="http://www.w3.org/2001/xml-events" xmlns:xlink="http://www.w3.org/1999/xlink"><defs /><path d="M0 85 L1 85 L3 85 L6 85 L7 85 L9 85 L14 85 L16 85 L16 86 L17 86 L21 86 L26 86 L30 86 L32 86 L35 86 L38 86 L43 87 L48 87 L53 87 L58 88 L64 89 L66 89 L72 81 L81 66 L110 28 L143 7 L186 0 L222 6 L245 24 L272 78 L279 129 L275 173 L251 204 L225 218 L204 221 L190 213 L166 184 L148 154 L136 121 L131 97 L134 87 L147 71 L162 63 L164 62 L166 62 L184 67 L225 73 L253 75 L271 76 L282 78 L299 80 L331 86 L357 90 L382 92 L403 93 L421 94 L430 94 L438 94 L448 94 L456 94 L466 95 L473 95 L481 95 L486 96 L492 96 L497 97 L505 98 L515 99 L518 100 L519 100 L532 82 L560 51 L623 17 L665 14 L706 32 L745 63 L769 103 L773 146 L747 203 L687 249 L623 270 L581 268 L570 259 L566 234 L566 201 L569 179 L579 160 L591 146 L598 136 L600 130 L601 129 L605 127 L619 125 L646 123 L675 121 L710 118 L741 118 L767 120 L791 121 L820 122 L851 122 L874 122 L891 122 L913 122 L929 122 L942 122 L953 121 L963 121 L971 121 L972 121 L973 121 L979 116 L998 103 L1025 85 L1082 65 L1138 62 L1203 65 L1227 69 L1233 84 L1229 122 L1205 228 L1185 286 L1165 312 L1134 327 L1094 328 L1071 322 L1061 303 L1060 274 L1062 237 L1071 210 L1082 193 L1090 183 L1095 178 L1098 173 L1101 171 L1102 169 L1103 166 L1105 161 L1112 151 L1121 146 L1133 144 L1164 144 L1192 144 L1213 144 L1220 141 L1226 139 L1230 138 L1232 137 L1232 134 " fill="none" stroke="black" /></svg>