<?xml version="1.0" encoding="utf-8" ?>
<svg baseProfile="tiny" height="417" version="1.2" viewBox="-3 -3 1406 417" width="1406" xmlns="http://www.w3.org/2000/svg" xmlns:ev="http://www.w3.org/2001/xml-events" xmlns:xlink="http://www.w3.org/1999/xlink"><defs /><path d="M195 235 L205 235 L211 236 L215 236 L228 237 L240 238 L244 238 L245 238 L255 240 L268 242 L284 243 L295 245 L300 245 L305 246 L306 246 L311 247 L322 249 L339 252 L349 252 L360 253 L366 254 L372 254 L380 254 L397 256 L407 257 L415 258 L417 258 L424 258 L445 259 L487 261 L513 262 L526 262 L531 263 L537 263 L544 263 L557 264 L565 264 L580 264 L599 265 L625 265 L638 265 L659 265 L673 267 L692 268 L712 269 L722 270 L727 270 L733 270 L745 272 L764 274 L796 275 L817 276 L841 277 L874 279 L892 280 L911 280 L934 280 L971 283 L1028 286 L1146 289 L1284 296 L1389 300 L1406 300 L1406 299 L1405 298 L1296 290 L1026 275 L668 265 L571 259 L576 243 L608 212 L612 209 L559 239 L416 299 L290 283 L119 186 L38 129 L15 118 L4 135 L0 160 L0 161 L5 151 L14 133 L14 152 L14 245 L16 298 L18 300 L47 265 L134 191 L223 218 L295 319 L359 400 L421 411 L514 348 L573 291 L578 287 L589 316 L636 359 L726 333 L813 277 L825 274 L846 325 L906 408 L1023 417 L1137 328 L1174 299 L1186 321 L1217 380 L1278 399 L1371 323 L1392 289 L1393 289 L1384 288 " fill="none" stroke="black" /><path d="M195 235 L205 235 L211 236 L215 236 L228 237 L240 238 L244 238 L245 238 L255 240 L268 242 L284 243 L295 245 L300 245 L305 246 L306 246 L311 247 L322 249 L339 252 L349 252 L360 253 L366 254 L372 254 L380 254 L397 256 L407 257 L415 258 L417 258 L424 258 L445 259 L487 261 L513 262 L526 262 L531 263 L537 263 L544 263 L557 264 L565 264 L580 264 L599 265 L625 265 L638 265 L659 265 L673 267 L692 268 L712 269 L722 270 L727 270 L733 270 L745 272 L764 274 L796 275 L817 276 L841 277 L874 279 L892 280 L911 280 L934 280 L971 283 L1028 286 L1146 289 L1284 296 L1389 300 L1406 300 L1406 299 L1405 298 L1296 290 L1026 275 L668 265 L571 259 L576 243 L608 212 L612 209 L559 239 L416 299 L290 283 L119 186 L38 129 L15 118 L4 135 L0 160 L0 161 L5 151 L14 133 L14 152 L14 245 L16 298 L18 300 L47 265 L134 191 L223 218 L295 319 L359 400 L421 411 L514 348 L573 291 L578 287 L589 316 L636 359 L726 333 L813 277 L825 274 L846 325 L906 408 L1023 417 L1137 328 L1174 299 L1186 321 L1217 380 L1278 399 L1371 323 L1392 289 L1393 289 L1384 288 M80 222 L79 226 L80 230 L82 229 L147 112 L204 0 L217 9 L277 155 L348 285 L416 323 L521 289 L625 217 L639 219 L666 262 L699 295 L731 289 L764 248 L766 247 L781 293 L808 329 L852 315 L925 243 L957 222 L987 288 L1039 364 L1089 368 L1166 299 L1232 226 L1256 247 L1293 329 L1319 366 L1347 353 L1366 302 L1366 287 L1364 290 L1356 301 L1335 308 " fill="none" stroke="black" /></svg>