<?xml version="1.0" encoding="utf-8" ?>
<svg baseProfile="tiny" height="150" version="1.2" viewBox="-3 -3 776 150" width="776" xmlns="http://www.w3.org/2000/svg" xmlns:ev="http://www.w3.org/2001/xml-events" xmlns:xlink="http://www.w3.org/1999/xlink"><defs /><path d="M4 83 L0 94 L0 108 L2 119 L11 128 L37 137 L95 145 L148 149 L195 150 L232 149 L272 142 L312 127 L358 101 L377 85 L389 67 L392 56 L392 47 L389 36 L367 16 L343 5 L315 0 L282 0 L246 0 L222 2 L211 9 L210 16 L208 32 L208 52 L212 70 L222 88 L246 107 L280 118 L321 123 L368 121 L409 117 L439 114 L458 111 L473 106 L494 96 L514 84 L523 74 L528 67 L532 54 L532 44 L530 34 L528 30 L524 26 L518 24 L505 22 L495 22 L491 25 L487 32 L483 40 L481 49 L480 58 L480 66 L485 77 L491 84 L497 91 L505 94 L525 98 L556 102 L601 104 L641 105 L665 104 L679 98 L693 85 L701 74 L706 63 L707 53 L706 46 L699 37 L679 22 L672 18 L669 17 L667 17 L666 17 L661 17 L654 21 L646 25 L641 28 L638 31 L634 38 L632 49 L631 58 L632 68 L639 79 L650 87 L667 95 L697 105 L727 110 L748 112 L755 112 L759 112 L766 109 L772 104 L774 101 L776 99 L776 98 L773 98 L767 100 L760 103 L751 106 L729 107 L708 107 L688 103 L658 91 L612 73 L590 60 L581 49 L579 40 L578 31 L578 24 L578 21 L580 20 L583 20 L589 23 L595 29 L600 38 L603 45 L603 54 L599 69 L587 80 L569 91 L542 98 L514 102 L489 103 L462 99 L438 88 L406 71 L382 56 L376 50 L374 44 L373 32 L374 15 L378 8 L382 8 L394 9 L406 15 L415 23 L418 33 L417 51 L401 79 L366 106 L310 126 L257 133 L215 126 L164 108 L145 99 L144 97 " fill="none" stroke="black" /></svg>