<?xml version="1.0" encoding="utf-8" ?>
<svg baseProfile="tiny" height="49" version="1.2" viewBox="-3 -3 778 49" width="778" xmlns="http://www.w3.org/2000/svg" xmlns:ev="http://www.w3.org/2001/xml-events" xmlns:xlink="http://www.w3.org/1999/xlink"><defs /><path d="M0 21 L0 22 L9 17 L11 7 L9 7 L9 18 L28 34 L64 36 L83 26 L77 15 L70 16 L70 24 L87 32 L99 29 L102 20 L99 15 L98 20 L109 33 L133 39 L145 33 L139 20 L105 13 L92 24 L99 36 L128 43 L156 36 L161 25 L147 17 L141 22 L146 33 L167 36 L181 28 L178 22 L162 21 L160 27 L165 34 L180 30 L188 15 L181 5 L171 12 L169 27 L181 39 L209 38 L225 25 L216 16 L201 18 L200 26 L217 32 L235 26 L232 17 L203 13 L189 24 L197 31 L226 34 L253 24 L256 15 L241 13 L237 24 L248 33 L272 32 L281 22 L279 15 L267 15 L262 24 L266 32 L284 33 L299 23 L300 14 L294 12 L289 21 L293 30 L323 31 L354 22 L359 13 L329 0 L313 0 L312 7 L332 19 L367 22 L382 17 L366 6 L341 5 L335 14 L349 25 L384 28 L411 21 L403 12 L377 16 L371 27 L392 39 L424 39 L438 28 L432 18 L421 20 L415 30 L418 37 L439 35 L456 23 L452 15 L433 19 L429 32 L452 43 L495 43 L515 30 L502 21 L477 20 L470 30 L478 41 L513 44 L540 33 L535 25 L511 26 L504 37 L518 49 L548 46 L563 32 L557 25 L541 28 L535 40 L543 45 L574 40 L589 27 L589 22 L583 29 L588 39 L618 42 L648 31 L649 17 L635 21 L631 36 L642 44 L655 43 L658 33 L659 27 L666 36 L676 37 L677 33 L671 29 L667 32 L670 42 L694 47 L726 37 L735 28 L735 26 L736 30 L753 40 L771 37 L776 30 L776 28 L778 30 " fill="none" stroke="black" /></svg>