<?xml version="1.0" encoding="utf-8" ?>
<svg baseProfile="tiny" height="216" version="1.2" viewBox="-3 -3 1218 216" width="1218" xmlns="http://www.w3.org/2000/svg" xmlns:ev="http://www.w3.org/2001/xml-events" xmlns:xlink="http://www.w3.org/1999/xlink"><defs /><path d="M0 103 L6 103 L15 104 L22 105 L24 105 L28 105 L33 105 L45 105 L56 105 L63 105 L68 105 L73 105 L77 105 L87 106 L94 106 L100 106 L102 106 L104 106 L112 106 L120 107 L126 107 L129 107 L132 107 L139 107 L151 108 L158 108 L161 108 L162 108 L167 108 L175 108 L185 109 L189 109 L191 109 L196 110 L202 110 L208 110 L214 111 L219 111 L223 111 L227 111 L232 112 L234 112 L239 112 L250 112 L263 113 L270 114 L271 114 L274 114 L277 114 L279 114 L282 114 L288 115 L293 115 L297 116 L299 116 L300 116 L301 116 L306 116 L316 117 L324 118 L330 118 L334 118 L336 118 L339 118 L344 118 L348 119 L354 119 L361 119 L370 120 L375 121 L379 121 L386 121 L394 122 L400 122 L404 122 L408 122 L416 122 L421 122 L424 122 L425 122 L428 122 L437 122 L446 122 L449 122 L450 122 L451 122 L457 122 L465 122 L472 122 L476 121 L477 121 L481 118 L494 110 L512 96 L542 68 L572 37 L598 12 L608 1 L610 0 L614 6 L633 62 L664 135 L703 198 L720 216 L722 216 L745 202 L774 184 L803 166 L832 149 L859 132 L880 119 L888 115 L889 114 L894 110 L903 105 L907 103 L910 102 L918 102 L931 102 L951 102 L972 102 L997 103 L1031 103 L1074 103 L1114 103 L1150 103 L1169 103 L1181 103 L1196 103 L1209 103 L1217 103 L1218 102 " fill="none" stroke="black" /><path d="M0 103 L6 103 L15 104 L22 105 L24 105 L28 105 L33 105 L45 105 L56 105 L63 105 L68 105 L73 105 L77 105 L87 106 L94 106 L100 106 L102 106 L104 106 L112 106 L120 107 L126 107 L129 107 L132 107 L139 107 L151 108 L158 108 L161 108 L162 108 L167 108 L175 108 L185 109 L189 109 L191 109 L196 110 L202 110 L208 110 L214 111 L219 111 L223 111 L227 111 L232 112 L234 112 L239 112 L250 112 L263 113 L270 114 L271 114 L274 114 L277 114 L279 114 L282 114 L288 115 L293 115 L297 116 L299 116 L300 116 L301 116 L306 116 L316 117 L324 118 L330 118 L334 118 L336 118 L339 118 L344 118 L348 119 L354 119 L361 119 L370 120 L375 121 L379 121 L386 121 L394 122 L400 122 L404 122 L408 122 L416 122 L421 122 L424 122 L425 122 L428 122 L437 122 L446 122 L449 122 L450 122 L451 122 L457 122 L465 122 L472 122 L476 121 L477 121 L481 118 L494 110 L512 96 L542 68 L572 37 L598 12 L608 1 L610 0 L614 6 L633 62 L664 135 L703 198 L720 216 L722 216 L745 202 L774 184 L803 166 L832 149 L859 132 L880 119 L888 115 L889 114 L894 110 L903 105 L907 103 L910 102 L918 102 L931 102 L951 102 L972 102 L997 103 L1031 103 L1074 103 L1114 103 L1150 103 L1169 103 L1181 103 L1196 103 L1209 103 L1217 103 L1218 102 M1215 106 L1209 105 L1207 105 L1195 105 L1168 106 L1129 108 L1089 109 L1072 109 L1063 110 L1054 110 L1039 110 L1020 110 L996 110 L981 110 L963 110 L950 110 L945 110 L944 110 " fill="none" stroke="black" /></svg>