<?xml version="1.0" encoding="utf-8" ?>
<svg baseProfile="tiny" height="835" version="1.2" viewBox="-3 -3 1585 835" width="1585" xmlns="http://www.w3.org/2000/svg" xmlns:ev="http://www.w3.org/2001/xml-events" xmlns:xlink="http://www.w3.org/1999/xlink"><defs /><path d="M1326 623 L1083 630 L543 669 L405 727 L751 708 L1259 664 L1331 668 L1054 748 L734 785 L726 764 L864 597 L750 438 L83 200 L0 12 L17 0 L423 0 L1039 0 L1016 27 L686 219 L570 385 L801 507 L1459 529 L1585 508 L1301 493 L714 550 L573 673 L838 754 L1359 717 L1351 604 L828 317 L288 84 L289 37 L732 0 L1066 0 L939 0 L607 0 L597 0 L605 32 L451 158 L193 344 L276 477 L782 706 L1138 819 L1116 811 L697 711 L545 689 L754 691 L1120 711 L1180 698 L1005 565 L694 346 L671 266 L811 186 L804 185 L552 192 L455 211 L549 235 L858 289 L867 307 L589 359 L436 448 L482 522 L701 618 L717 641 L604 651 L587 655 L756 658 L1095 595 L1287 459 L1247 196 L1079 44 L930 110 L733 343 L661 480 L758 513 L891 510 L857 512 L680 541 L691 552 L946 558 L1124 530 L1105 536 L1048 586 L1082 616 L1232 596 L1305 490 L1134 308 L413 208 L17 317 L62 440 L546 515 L1157 479 L1401 367 L1183 315 L654 400 L480 566 L660 650 L984 691 L998 696 L582 676 L382 677 L384 679 L439 662 L416 575 L277 337 L213 59 L226 20 L203 64 L120 218 L167 383 L512 663 L581 756 L558 769 L556 770 L615 809 L658 835 L682 834 L737 735 L790 573 L848 406 L880 370 L883 378 L900 520 L921 713 L925 740 L926 731 L915 612 L901 474 L899 449 L903 524 L932 725 L956 800 L965 797 L986 714 L1004 557 L1016 506 L1018 563 L1031 664 L1035 679 L1040 665 L1055 546 L1063 452 L1063 465 L1063 552 L1071 587 L1076 578 L1087 517 L1087 534 L1087 549 " fill="none" stroke="black" /></svg>