<?xml version="1.0" encoding="utf-8" ?>
<svg baseProfile="tiny" height="231" version="1.2" viewBox="-3 -3 995 231" width="995" xmlns="http://www.w3.org/2000/svg" xmlns:ev="http://www.w3.org/2001/xml-events" xmlns:xlink="http://www.w3.org/1999/xlink"><defs /><path d="M310 0 L322 1 L339 1 L360 1 L377 1 L395 1 L409 1 L420 1 L427 1 L439 1 L464 1 L477 1 L489 1 L507 2 L527 3 L549 3 L567 3 L574 3 L579 3 L584 3 L595 3 L612 4 L636 6 L665 7 L687 9 L701 10 L712 10 L721 10 L731 10 L750 10 L768 10 L777 10 L788 10 L807 10 L839 11 L861 11 L880 12 L898 12 L909 12 L915 13 L926 13 L941 14 L965 16 L981 17 L990 17 L992 17 L994 17 L995 17 L995 18 L991 22 L985 25 L974 29 L959 35 L948 38 L938 41 L925 45 L906 51 L884 57 L852 62 L834 66 L818 68 L806 71 L794 72 L775 76 L762 80 L746 85 L728 89 L705 94 L681 100 L651 104 L623 109 L606 112 L592 116 L578 120 L559 123 L534 126 L494 129 L468 133 L442 136 L416 138 L383 141 L348 144 L327 147 L306 148 L276 149 L244 148 L206 146 L171 144 L151 143 L129 142 L104 142 L83 142 L60 142 L40 144 L34 145 L24 145 L14 145 L7 145 L3 144 L1 144 L0 144 L13 146 L54 156 L114 167 L179 178 L221 186 L259 191 L289 195 L317 198 L352 203 L383 206 L420 209 L447 211 L479 214 L521 218 L558 222 L600 224 L639 225 L669 226 L707 228 L736 228 L766 230 L790 230 L813 231 L835 231 L862 231 L878 231 L896 231 L920 231 L935 231 L945 231 L928 225 L887 216 L826 207 L732 197 L670 191 L622 187 L574 183 L462 164 L377 152 L307 138 L275 130 L263 125 L251 119 L211 102 L163 86 L139 79 L137 79 L131 71 " fill="none" stroke="black" /></svg>