<?xml version="1.0" encoding="utf-8" ?>
<svg baseProfile="tiny" height="580" version="1.2" viewBox="-3 -3 768 580" width="768" xmlns="http://www.w3.org/2000/svg" xmlns:ev="http://www.w3.org/2001/xml-events" xmlns:xlink="http://www.w3.org/1999/xlink"><defs /><path d="M33 163 L77 200 L86 223 L68 241 L29 253 L25 263 L66 291 L125 330 L135 345 L118 354 L87 368 L86 374 L114 399 L157 429 L163 444 L126 463 L83 481 L81 486 L107 502 L155 523 L175 533 L147 534 L145 534 L157 539 L227 557 L328 578 L342 580 L313 568 L218 528 L201 521 L220 513 L287 502 L337 493 L335 485 L262 452 L218 434 L217 432 L250 428 L261 426 L216 415 L152 400 L150 399 L183 395 L259 379 L291 368 L263 359 L117 329 L63 316 L65 313 L121 299 L142 292 L114 279 L12 244 L0 236 L62 221 L214 200 L283 189 L268 187 L127 170 L72 163 L80 162 L177 150 L330 124 L343 115 L319 104 L206 70 L181 62 L201 57 L346 41 L403 33 L398 29 L288 11 L183 0 L179 0 L294 5 L456 12 L489 14 L483 14 L375 7 L361 7 L407 11 L527 11 L579 16 L566 18 L400 21 L308 26 L320 33 L451 55 L567 73 L573 79 L488 98 L344 124 L325 152 L385 186 L472 223 L475 231 L404 246 L326 263 L326 276 L409 308 L487 338 L486 345 L415 359 L362 370 L397 391 L540 439 L576 462 L545 469 L473 473 L469 475 L539 488 L589 495 L531 487 L522 486 L560 479 L731 471 L765 466 L746 459 L666 443 L665 443 L726 430 L768 415 L728 398 L552 349 L511 334 L531 318 L637 281 L681 258 L616 228 L463 190 L442 184 L474 172 L591 147 L606 139 L586 130 L536 116 L533 115 L554 112 L641 105 L711 90 L712 88 L701 82 L701 81 L742 74 L764 67 L762 63 L737 47 L731 43 L729 43 L722 38 " fill="none" stroke="black" /></svg>