<?xml version="1.0" encoding="utf-8" ?>
<svg baseProfile="tiny" height="615" version="1.2" viewBox="-3 -3 1557 615" width="1557" xmlns="http://www.w3.org/2000/svg" xmlns:ev="http://www.w3.org/2001/xml-events" xmlns:xlink="http://www.w3.org/1999/xlink"><defs /><path d="M286 17 L304 6 L310 3 L319 1 L336 0 L346 0 L360 0 L375 1 L393 1 L410 3 L432 4 L452 5 L472 7 L497 11 L526 13 L547 16 L568 20 L594 25 L625 33 L652 44 L682 62 L710 83 L754 116 L796 142 L835 163 L874 182 L923 194 L971 200 L1019 200 L1063 184 L1103 161 L1150 138 L1194 113 L1235 93 L1256 87 L1277 80 L1304 74 L1355 71 L1401 73 L1444 83 L1474 97 L1498 113 L1519 134 L1537 161 L1550 184 L1556 208 L1557 232 L1557 259 L1549 279 L1530 297 L1508 309 L1483 313 L1435 313 L1395 313 L1357 312 L1290 288 L1250 262 L1209 231 L1145 182 L1037 122 L959 91 L903 78 L875 77 L843 78 L803 90 L764 110 L725 130 L686 153 L654 175 L617 195 L572 208 L511 211 L449 211 L386 205 L333 187 L257 137 L214 90 L204 60 L222 33 L255 28 L293 41 L350 81 L402 136 L445 192 L495 258 L562 315 L640 348 L762 356 L935 349 L1127 311 L1250 262 L1303 211 L1316 159 L1310 117 L1288 88 L1268 81 L1231 83 L1155 127 L1101 183 L1056 235 L1010 276 L947 318 L812 351 L662 352 L509 340 L409 330 L378 317 L376 301 L390 248 L413 218 L430 217 L468 233 L532 281 L617 339 L701 403 L778 458 L888 523 L1010 567 L1128 567 L1264 498 L1374 380 L1398 285 L1372 202 L1301 139 L1240 133 L1126 165 L935 272 L799 363 L683 427 L585 481 L472 519 L345 544 L231 562 L147 560 L54 521 L0 477 L0 439 L17 386 L68 338 L149 312 L236 309 L349 330 L466 374 L580 438 L705 519 L803 575 L936 611 L1088 615 L1181 606 L1202 590 " fill="none" stroke="black" /></svg>