<?xml version="1.0" encoding="utf-8" ?>
<svg baseProfile="tiny" height="160" version="1.2" viewBox="-3 -3 440 160" width="440" xmlns="http://www.w3.org/2000/svg" xmlns:ev="http://www.w3.org/2001/xml-events" xmlns:xlink="http://www.w3.org/1999/xlink"><defs /><path d="M0 146 L0 141 L1 135 L5 125 L11 114 L18 102 L26 91 L37 77 L48 64 L60 51 L73 38 L86 28 L100 19 L120 9 L137 3 L155 0 L170 0 L181 0 L190 5 L196 10 L201 17 L202 22 L203 27 L203 32 L203 38 L203 44 L203 49 L202 51 L202 53 L201 51 L199 48 L196 46 L193 45 L188 43 L178 43 L168 43 L159 45 L152 50 L146 57 L138 66 L132 76 L127 84 L124 93 L121 102 L121 107 L121 112 L121 115 L123 119 L124 122 L127 126 L131 131 L135 135 L139 138 L145 141 L151 143 L161 145 L169 145 L176 145 L182 143 L187 140 L191 137 L195 134 L200 128 L207 119 L214 110 L223 99 L234 86 L244 73 L258 55 L273 41 L289 29 L309 18 L327 10 L346 5 L356 5 L365 5 L371 7 L375 12 L377 16 L377 21 L378 29 L379 34 L379 37 L380 40 L380 41 L380 42 L379 42 L377 41 L374 40 L369 39 L364 38 L357 38 L348 38 L337 39 L329 44 L322 49 L316 55 L311 61 L307 67 L303 74 L298 82 L296 88 L294 95 L294 101 L294 107 L293 112 L293 118 L293 123 L294 128 L295 133 L296 137 L298 141 L299 144 L301 148 L303 150 L305 152 L307 154 L310 155 L313 157 L319 159 L324 160 L329 160 L334 160 L339 160 L344 158 L350 154 L353 151 L357 148 L362 143 L367 138 L373 133 L379 126 L384 121 L388 116 L394 110 L400 104 L407 97 L412 93 L416 89 L420 86 L424 83 L427 80 L430 78 L434 75 L436 74 L438 73 L439 72 L440 71 " fill="none" stroke="black" /></svg>