<?xml version="1.0" encoding="utf-8" ?>
<svg baseProfile="tiny" height="275" version="1.2" viewBox="-3 -3 916 275" width="916" xmlns="http://www.w3.org/2000/svg" xmlns:ev="http://www.w3.org/2001/xml-events" xmlns:xlink="http://www.w3.org/1999/xlink"><defs /><path d="M0 275 L5 275 L14 275 L30 275 L54 275 L74 275 L94 275 L112 272 L128 270 L140 269 L152 265 L160 261 L166 255 L173 247 L184 229 L198 197 L216 157 L236 107 L246 78 L256 52 L263 35 L266 25 L266 21 L265 20 L264 20 L264 23 L264 28 L264 40 L267 52 L275 67 L284 83 L293 101 L304 120 L315 143 L322 160 L328 177 L332 192 L336 206 L339 216 L343 226 L346 231 L349 236 L351 240 L353 241 L354 242 L355 242 L358 242 L364 241 L376 241 L391 239 L409 237 L433 233 L454 231 L473 229 L491 229 L507 229 L526 229 L537 229 L544 229 L549 229 L554 229 L558 229 L562 229 L570 229 L576 229 L579 227 L581 223 L583 214 L588 198 L597 161 L608 132 L618 108 L625 93 L630 82 L633 75 L637 68 L639 62 L641 57 L643 53 L645 49 L646 46 L648 42 L649 39 L651 35 L653 31 L654 27 L657 24 L660 17 L664 12 L666 9 L667 6 L669 4 L670 2 L671 0 L672 0 " fill="none" stroke="black" /><path d="M0 275 L5 275 L14 275 L30 275 L54 275 L74 275 L94 275 L112 272 L128 270 L140 269 L152 265 L160 261 L166 255 L173 247 L184 229 L198 197 L216 157 L236 107 L246 78 L256 52 L263 35 L266 25 L266 21 L265 20 L264 20 L264 23 L264 28 L264 40 L267 52 L275 67 L284 83 L293 101 L304 120 L315 143 L322 160 L328 177 L332 192 L336 206 L339 216 L343 226 L346 231 L349 236 L351 240 L353 241 L354 242 L355 242 L358 242 L364 241 L376 241 L391 239 L409 237 L433 233 L454 231 L473 229 L491 229 L507 229 L526 229 L537 229 L544 229 L549 229 L554 229 L558 229 L562 229 L570 229 L576 229 L579 227 L581 223 L583 214 L588 198 L597 161 L608 132 L618 108 L625 93 L630 82 L633 75 L637 68 L639 62 L641 57 L643 53 L645 49 L646 46 L648 42 L649 39 L651 35 L653 31 L654 27 L657 24 L660 17 L664 12 L666 9 L667 6 L669 4 L670 2 L671 0 L672 0 M672 0 L672 2 L673 10 L679 24 L687 37 L693 47 L699 56 L705 65 L710 73 L717 83 L725 96 L731 105 L739 117 L747 130 L756 144 L767 163 L776 178 L782 188 L788 196 L793 201 L799 205 L807 209 L816 214 L821 217 L825 219 L828 222 L831 224 L835 226 L838 227 L841 229 L844 229 L848 230 L854 231 L861 232 L869 233 L874 234 L877 234 L880 235 L884 236 L888 236 L892 237 L895 237 L899 238 L902 238 L904 239 L906 239 L908 239 L909 239 L911 239 L912 239 L913 239 L914 239 L915 239 L916 239 L916 238 " fill="none" stroke="black" /></svg>