<?xml version="1.0" encoding="utf-8" ?>
<svg baseProfile="tiny" height="457" version="1.2" viewBox="-3 -3 695 457" width="695" xmlns="http://www.w3.org/2000/svg" xmlns:ev="http://www.w3.org/2001/xml-events" xmlns:xlink="http://www.w3.org/1999/xlink"><defs /><path d="M0 62 L5 63 L15 68 L28 77 L43 88 L55 99 L70 115 L82 128 L94 144 L107 162 L120 181 L133 203 L149 236 L161 265 L171 292 L180 321 L188 349 L194 370 L199 387 L203 399 L205 405 L205 406 " fill="none" stroke="black" /><path d="M0 62 L5 63 L15 68 L28 77 L43 88 L55 99 L70 115 L82 128 L94 144 L107 162 L120 181 L133 203 L149 236 L161 265 L171 292 L180 321 L188 349 L194 370 L199 387 L203 399 L205 405 L205 406 M68 330 L71 330 L85 337 L110 350 L145 369 L175 389 L210 411 L232 426 L245 435 L253 441 L257 444 L259 445 L260 445 L260 442 L260 433 L260 407 L270 370 L289 316 L309 267 L324 243 L332 233 L335 231 L336 231 " fill="none" stroke="black" /><path d="M0 62 L5 63 L15 68 L28 77 L43 88 L55 99 L70 115 L82 128 L94 144 L107 162 L120 181 L133 203 L149 236 L161 265 L171 292 L180 321 L188 349 L194 370 L199 387 L203 399 L205 405 L205 406 M68 330 L71 330 L85 337 L110 350 L145 369 L175 389 L210 411 L232 426 L245 435 L253 441 L257 444 L259 445 L260 445 L260 442 L260 433 L260 407 L270 370 L289 316 L309 267 L324 243 L332 233 L335 231 L336 231 M695 72 L691 72 L661 72 L622 76 L586 89 L558 107 L533 130 L510 161 L484 209 L467 239 L452 273 L444 302 L434 336 L428 365 L425 381 L424 392 L424 398 L424 399 L424 400 " fill="none" stroke="black" /><path d="M0 62 L5 63 L15 68 L28 77 L43 88 L55 99 L70 115 L82 128 L94 144 L107 162 L120 181 L133 203 L149 236 L161 265 L171 292 L180 321 L188 349 L194 370 L199 387 L203 399 L205 405 L205 406 M68 330 L71 330 L85 337 L110 350 L145 369 L175 389 L210 411 L232 426 L245 435 L253 441 L257 444 L259 445 L260 445 L260 442 L260 433 L260 407 L270 370 L289 316 L309 267 L324 243 L332 233 L335 231 L336 231 M695 72 L691 72 L661 72 L622 76 L586 89 L558 107 L533 130 L510 161 L484 209 L467 239 L452 273 L444 302 L434 336 L428 365 L425 381 L424 392 L424 398 L424 399 L424 400 M365 253 L365 255 L365 271 L375 306 L383 342 L389 371 L398 401 L406 427 L411 441 L416 451 L418 455 L420 456 L421 457 L422 454 L429 436 L449 406 L482 377 L514 354 L536 343 L547 340 L550 340 L552 340 L553 339 " fill="none" stroke="black" /><path d="M0 62 L5 63 L15 68 L28 77 L43 88 L55 99 L70 115 L82 128 L94 144 L107 162 L120 181 L133 203 L149 236 L161 265 L171 292 L180 321 L188 349 L194 370 L199 387 L203 399 L205 405 L205 406 M68 330 L71 330 L85 337 L110 350 L145 369 L175 389 L210 411 L232 426 L245 435 L253 441 L257 444 L259 445 L260 445 L260 442 L260 433 L260 407 L270 370 L289 316 L309 267 L324 243 L332 233 L335 231 L336 231 M695 72 L691 72 L661 72 L622 76 L586 89 L558 107 L533 130 L510 161 L484 209 L467 239 L452 273 L444 302 L434 336 L428 365 L425 381 L424 392 L424 398 L424 399 L424 400 M365 253 L365 255 L365 271 L375 306 L383 342 L389 371 L398 401 L406 427 L411 441 L416 451 L418 455 L420 456 L421 457 L422 454 L429 436 L449 406 L482 377 L514 354 L536 343 L547 340 L550 340 L552 340 L553 339 M291 0 L291 2 L291 16 L291 48 L291 88 L291 135 L292 183 L297 228 L301 260 L306 286 L309 304 L312 318 L314 327 L316 336 L317 339 L318 340 " fill="none" stroke="black" /><path d="M0 62 L5 63 L15 68 L28 77 L43 88 L55 99 L70 115 L82 128 L94 144 L107 162 L120 181 L133 203 L149 236 L161 265 L171 292 L180 321 L188 349 L194 370 L199 387 L203 399 L205 405 L205 406 M68 330 L71 330 L85 337 L110 350 L145 369 L175 389 L210 411 L232 426 L245 435 L253 441 L257 444 L259 445 L260 445 L260 442 L260 433 L260 407 L270 370 L289 316 L309 267 L324 243 L332 233 L335 231 L336 231 M695 72 L691 72 L661 72 L622 76 L586 89 L558 107 L533 130 L510 161 L484 209 L467 239 L452 273 L444 302 L434 336 L428 365 L425 381 L424 392 L424 398 L424 399 L424 400 M365 253 L365 255 L365 271 L375 306 L383 342 L389 371 L398 401 L406 427 L411 441 L416 451 L418 455 L420 456 L421 457 L422 454 L429 436 L449 406 L482 377 L514 354 L536 343 L547 340 L550 340 L552 340 L553 339 M291 0 L291 2 L291 16 L291 48 L291 88 L291 135 L292 183 L297 228 L301 260 L306 286 L309 304 L312 318 L314 327 L316 336 L317 339 L318 340 M228 263 L229 265 L241 280 L255 299 L272 325 L286 348 L301 370 L312 385 L322 397 L328 403 L331 405 L332 405 L332 403 L332 400 L333 394 L337 381 L342 369 L348 355 L354 340 L360 329 L365 320 L368 315 L370 311 L372 308 L374 305 L376 300 L379 294 L383 288 L385 283 L388 279 L389 276 L391 273 L392 271 L393 269 L394 268 L395 267 L396 265 L397 264 L397 263 L398 261 L399 260 L399 259 L400 258 L400 257 L401 256 L401 255 L400 255 " fill="none" stroke="black" /></svg>