<?xml version="1.0" encoding="utf-8" ?>
<svg baseProfile="tiny" height="260" version="1.2" viewBox="-3 -3 66 260" width="66" xmlns="http://www.w3.org/2000/svg" xmlns:ev="http://www.w3.org/2001/xml-events" xmlns:xlink="http://www.w3.org/1999/xlink"><defs /><path d="M0 260 L2 257 L3 253 L6 246 L9 235 L11 226 L14 212 L15 197 L17 180 L19 169 L19 155 L19 145 L19 134 L19 124 L19 112 L19 104 L19 93 L19 86 L19 79 L19 72 L19 66 L19 62 L19 57 L19 53 L19 49 L19 46 L19 43 L20 41 L20 39 L20 36 L20 34 L20 31 L20 29 L20 27 L20 24 L20 22 L20 20 L20 19 L20 17 L20 15 L20 13 L20 11 L20 10 L21 8 L21 7 L21 6 L21 5 L22 3 L23 3 L23 2 L24 1 L25 1 L26 0 L27 0 L28 0 L29 0 L30 1 L31 2 L31 4 L31 6 L31 7 L32 9 L32 11 L32 12 L32 14 L32 16 L33 19 L34 21 L34 23 L35 26 L36 29 L37 33 L39 40 L40 45 L41 51 L42 58 L42 65 L43 73 L43 80 L43 86 L44 92 L44 98 L44 102 L44 107 L44 112 L44 117 L44 122 L44 126 L44 130 L44 136 L44 140 L44 144 L44 148 L44 153 L44 157 L44 161 L44 166 L44 169 L44 172 L44 175 L44 178 L44 183 L44 186 L44 189 L44 192 L44 194 L44 197 L44 200 L44 202 L44 205 L44 207 L44 210 L43 212 L43 214 L43 217 L43 219 L43 221 L43 223 L43 225 L43 227 L43 230 L44 231 L44 233 L44 235 L45 236 L46 237 L47 239 L48 241 L49 242 L50 244 L51 245 L53 245 L55 245 L58 245 L61 244 L62 243 L63 242 L64 242 L65 240 L65 239 L65 238 L66 236 L66 234 L66 232 L66 228 L66 226 L66 223 L66 222 L66 221 L66 220 " fill="none" stroke="black" /></svg>