<?xml version="1.0" encoding="utf-8" ?>
<svg baseProfile="tiny" height="347" version="1.2" viewBox="-3 -3 374 347" width="374" xmlns="http://www.w3.org/2000/svg" xmlns:ev="http://www.w3.org/2001/xml-events" xmlns:xlink="http://www.w3.org/1999/xlink"><defs /><path d="M234 132 L235 122 L235 114 L235 107 L233 102 L230 97 L227 94 L223 92 L221 90 L218 88 L214 85 L211 83 L208 82 L206 82 L204 82 L201 83 L199 83 L196 84 L192 84 L189 84 L187 85 L185 85 L184 85 L183 85 " fill="none" stroke="black" /><path d="M234 132 L235 122 L235 114 L235 107 L233 102 L230 97 L227 94 L223 92 L221 90 L218 88 L214 85 L211 83 L208 82 L206 82 L204 82 L201 83 L199 83 L196 84 L192 84 L189 84 L187 85 L185 85 L184 85 L183 85 M162 50 L159 50 L151 50 L136 54 L120 60 L105 68 L91 76 L82 86 L74 100 L67 114 L64 128 L61 147 L60 168 L60 183 L64 198 L70 212 L77 223 L87 232 L105 244 L122 250 L141 254 L160 256 L177 257 L195 257 L219 257 L237 252 L249 247 L260 238 L266 228 L271 215 L278 191 L286 157 L290 134 L292 117 L292 102 L292 91 L290 81 L283 74 L276 69 L268 64 L259 59 L248 54 L236 48 L221 43 L210 40 L198 39 L189 39 L182 39 L177 39 L172 41 L167 43 L163 45 L160 47 L156 49 L153 50 L150 50 L150 51 L150 52 " fill="none" stroke="black" /><path d="M234 132 L235 122 L235 114 L235 107 L233 102 L230 97 L227 94 L223 92 L221 90 L218 88 L214 85 L211 83 L208 82 L206 82 L204 82 L201 83 L199 83 L196 84 L192 84 L189 84 L187 85 L185 85 L184 85 L183 85 M162 50 L159 50 L151 50 L136 54 L120 60 L105 68 L91 76 L82 86 L74 100 L67 114 L64 128 L61 147 L60 168 L60 183 L64 198 L70 212 L77 223 L87 232 L105 244 L122 250 L141 254 L160 256 L177 257 L195 257 L219 257 L237 252 L249 247 L260 238 L266 228 L271 215 L278 191 L286 157 L290 134 L292 117 L292 102 L292 91 L290 81 L283 74 L276 69 L268 64 L259 59 L248 54 L236 48 L221 43 L210 40 L198 39 L189 39 L182 39 L177 39 L172 41 L167 43 L163 45 L160 47 L156 49 L153 50 L150 50 L150 51 L150 52 M137 17 L136 17 L132 17 L123 17 L106 22 L83 28 L56 37 L39 45 L29 51 L16 64 L9 76 L4 89 L2 109 L1 130 L0 157 L0 183 L0 207 L3 232 L14 261 L26 281 L42 299 L62 313 L88 325 L113 335 L142 342 L168 346 L194 347 L221 347 L250 342 L276 332 L299 316 L314 302 L330 281 L346 250 L362 211 L371 169 L374 141 L374 117 L372 95 L363 78 L352 64 L340 52 L324 41 L307 32 L290 24 L272 15 L256 8 L238 5 L218 3 L204 1 L194 0 L181 0 L169 0 L158 2 L146 4 L138 5 L134 6 L131 7 L130 8 L129 9 L128 11 L128 12 L128 13 L128 14 L127 15 L127 16 L126 16 L126 15 " fill="none" stroke="black" /></svg>