<?xml version="1.0" encoding="utf-8" ?>
<svg baseProfile="tiny" height="80" version="1.2" viewBox="-3 -3 71 80" width="71" xmlns="http://www.w3.org/2000/svg" xmlns:ev="http://www.w3.org/2001/xml-events" xmlns:xlink="http://www.w3.org/1999/xlink"><defs /><path d="M35 9 L35 8 L36 6 L37 4 L38 3 L39 1 L41 0 L43 0 L46 0 L48 1 L49 2 L51 3 L53 4 L54 4 L55 5 L56 5 L57 6 L58 6 L59 6 L61 7 L62 7 L63 7 L64 7 L64 6 L64 5 L64 4 L64 3 L64 2 L64 1 L64 0 L64 1 L64 2 L64 4 L64 6 L64 7 L64 8 L64 10 L64 11 L64 12 L64 13 L65 14 L67 17 L69 20 L70 23 L71 27 L71 31 L71 35 L71 37 L69 38 L67 39 L63 39 L62 39 L60 39 L59 39 L57 39 L56 39 L55 40 L55 41 L55 43 L55 45 L55 47 L55 49 L55 50 L55 51 L55 52 L55 53 L55 54 L55 55 L55 56 L55 57 L55 58 L54 58 L54 59 L54 60 L53 61 L52 62 L51 62 L49 62 L47 62 L45 61 L43 61 L41 61 L40 61 L38 61 L37 61 L33 62 L30 63 L28 64 L26 66 L24 67 L22 68 L20 70 L18 71 L16 72 L15 74 L14 75 L12 76 L11 77 L10 78 L8 79 L7 79 L6 79 L5 80 L4 80 L2 80 L1 80 L0 80 L0 77 L0 76 L1 75 L4 74 L7 74 L9 74 L11 73 L12 73 L13 72 L14 71 L16 70 L18 68 L21 64 L25 59 L30 54 L35 45 L39 39 L41 35 L42 33 L43 31 L43 29 L45 27 L46 27 L48 26 L48 25 L48 24 L48 23 L44 22 L40 22 L37 22 L35 22 L33 23 L32 24 L31 25 L30 25 L29 25 L29 24 L29 22 L30 19 L31 18 L31 17 L32 17 L31 17 " fill="none" stroke="black" /></svg>