<?xml version="1.0" encoding="utf-8" ?>
<svg baseProfile="tiny" height="154" version="1.2" viewBox="-3 -3 251 154" width="251" xmlns="http://www.w3.org/2000/svg" xmlns:ev="http://www.w3.org/2001/xml-events" xmlns:xlink="http://www.w3.org/1999/xlink"><defs /><path d="M0 149 L4 139 L10 124 L19 103 L32 76 L46 52 L60 36 L80 19 L94 9 L104 3 L112 0 L117 0 L119 1 L120 5 L120 9 L120 13 L118 17 L117 20 L115 24 L113 30 L111 36 L109 41 L106 48 L104 54 L101 61 L98 69 L96 75 L93 82 L91 89 L89 96 L87 103 L85 111 L83 118 L82 123 L81 128 L81 133 L81 137 L81 142 L81 146 L81 150 L81 152 L81 154 L82 154 L83 154 L85 153 L87 150 L89 147 L91 144 L93 141 L97 134 L104 126 L110 118 L117 108 L124 99 L133 89 L143 80 L150 75 L157 72 L161 71 L162 73 L163 77 L163 84 L162 87 L161 91 L160 94 L160 98 L159 102 L157 107 L155 112 L154 115 L152 119 L151 122 L149 125 L148 128 L147 130 L147 132 L146 134 L146 136 L146 137 L146 139 L147 141 L148 142 L149 144 L150 145 L152 146 L154 147 L156 148 L157 148 L158 148 L160 148 L161 146 L162 144 L164 141 L165 137 L168 132 L171 126 L175 120 L180 111 L184 104 L190 95 L198 84 L207 73 L218 60 L231 49 L241 43 L246 40 L249 39 L251 39 L251 41 L251 42 L251 43 L251 44 L251 46 L251 47 L251 48 L251 49 L251 51 L251 52 L251 54 L251 56 L251 58 L251 60 L251 62 L251 64 L251 66 L251 69 L250 71 L249 74 L248 78 L247 81 L246 85 L244 89 L243 93 L242 95 L241 98 L240 101 L240 105 L239 109 L238 113 L237 116 L237 118 L237 121 L236 124 L236 127 L236 130 L236 131 L236 132 L236 133 L236 134 L235 134 " fill="none" stroke="black" /></svg>