<?xml version="1.0" encoding="utf-8" ?>
<svg baseProfile="tiny" height="302" version="1.2" viewBox="-3 -3 547 302" width="547" xmlns="http://www.w3.org/2000/svg" xmlns:ev="http://www.w3.org/2001/xml-events" xmlns:xlink="http://www.w3.org/1999/xlink"><defs /><path d="M103 59 L117 52 L127 46 L135 40 L139 37 L142 34 L145 32 L149 29 L151 27 L153 27 L154 27 L155 29 L160 34 L183 49 L214 68 L248 89 L280 107 L313 125 L337 137 L348 144 L353 147 L353 148 L352 148 L347 149 L340 150 L325 162 L279 205 L228 246 L183 279 L161 293 L148 300 L142 302 L141 302 L140 300 L137 297 L130 291 L122 283 L98 263 L78 242 L58 223 L42 208 L31 196 L22 184 L14 172 L10 163 L9 157 L8 152 L7 149 L6 146 L4 144 L3 143 L2 140 L1 138 L1 136 L0 134 L0 133 L0 132 L0 131 L1 130 " fill="none" stroke="black" /><path d="M103 59 L117 52 L127 46 L135 40 L139 37 L142 34 L145 32 L149 29 L151 27 L153 27 L154 27 L155 29 L160 34 L183 49 L214 68 L248 89 L280 107 L313 125 L337 137 L348 144 L353 147 L353 148 L352 148 L347 149 L340 150 L325 162 L279 205 L228 246 L183 279 L161 293 L148 300 L142 302 L141 302 L140 300 L137 297 L130 291 L122 283 L98 263 L78 242 L58 223 L42 208 L31 196 L22 184 L14 172 L10 163 L9 157 L8 152 L7 149 L6 146 L4 144 L3 143 L2 140 L1 138 L1 136 L0 134 L0 133 L0 132 L0 131 L1 130 M153 145 L154 145 L174 133 L221 105 L280 70 L348 32 L378 16 L400 5 L410 1 L413 0 L414 0 L414 3 L414 5 L414 8 L414 11 L416 17 L433 34 L471 67 L501 95 L526 119 L537 129 L544 134 L546 137 L547 138 L546 140 L541 142 L532 148 L505 168 L470 195 L433 223 L396 254 L381 268 L374 275 L370 280 L367 283 L364 287 L361 290 L359 294 L357 296 L356 297 L355 297 L354 296 L351 292 L343 286 L328 275 L310 262 L292 250 L277 239 L262 228 L252 222 L245 216 L238 211 L229 205 L222 200 L213 192 L207 187 L200 182 L194 177 L189 173 L184 168 L179 164 L176 162 L173 160 L170 157 L166 153 L163 150 L160 148 L158 147 L156 145 L154 143 L152 142 L150 141 L148 140 L145 138 L144 136 L142 136 L142 135 L141 134 L140 133 L139 133 " fill="none" stroke="black" /><path d="M103 59 L117 52 L127 46 L135 40 L139 37 L142 34 L145 32 L149 29 L151 27 L153 27 L154 27 L155 29 L160 34 L183 49 L214 68 L248 89 L280 107 L313 125 L337 137 L348 144 L353 147 L353 148 L352 148 L347 149 L340 150 L325 162 L279 205 L228 246 L183 279 L161 293 L148 300 L142 302 L141 302 L140 300 L137 297 L130 291 L122 283 L98 263 L78 242 L58 223 L42 208 L31 196 L22 184 L14 172 L10 163 L9 157 L8 152 L7 149 L6 146 L4 144 L3 143 L2 140 L1 138 L1 136 L0 134 L0 133 L0 132 L0 131 L1 130 M153 145 L154 145 L174 133 L221 105 L280 70 L348 32 L378 16 L400 5 L410 1 L413 0 L414 0 L414 3 L414 5 L414 8 L414 11 L416 17 L433 34 L471 67 L501 95 L526 119 L537 129 L544 134 L546 137 L547 138 L546 140 L541 142 L532 148 L505 168 L470 195 L433 223 L396 254 L381 268 L374 275 L370 280 L367 283 L364 287 L361 290 L359 294 L357 296 L356 297 L355 297 L354 296 L351 292 L343 286 L328 275 L310 262 L292 250 L277 239 L262 228 L252 222 L245 216 L238 211 L229 205 L222 200 L213 192 L207 187 L200 182 L194 177 L189 173 L184 168 L179 164 L176 162 L173 160 L170 157 L166 153 L163 150 L160 148 L158 147 L156 145 L154 143 L152 142 L150 141 L148 140 L145 138 L144 136 L142 136 L142 135 L141 134 L140 133 L139 133 M138 133 L137 133 L135 132 L132 131 L130 129 L128 128 L126 126 L124 125 L124 124 L123 124 L123 123 " fill="none" stroke="black" /></svg>