<?xml version="1.0" encoding="utf-8" ?>
<svg baseProfile="tiny" height="579" version="1.2" viewBox="-3 -3 612 579" width="612" xmlns="http://www.w3.org/2000/svg" xmlns:ev="http://www.w3.org/2001/xml-events" xmlns:xlink="http://www.w3.org/1999/xlink"><defs /><path d="M56 368 L70 390 L76 408 L78 426 L78 439 L76 450 L73 456 L72 458 " fill="none" stroke="black" /><path d="M56 368 L70 390 L76 408 L78 426 L78 439 L76 450 L73 456 L72 458 M12 298 L17 298 L31 302 L54 313 L76 330 L102 360 L120 385 L131 409 L139 432 L144 458 L145 486 L145 513 L142 525 L141 531 L140 533 L139 533 " fill="none" stroke="black" /><path d="M56 368 L70 390 L76 408 L78 426 L78 439 L76 450 L73 456 L72 458 M12 298 L17 298 L31 302 L54 313 L76 330 L102 360 L120 385 L131 409 L139 432 L144 458 L145 486 L145 513 L142 525 L141 531 L140 533 L139 533 M18 246 L20 246 L29 246 L43 246 L62 248 L90 262 L121 286 L142 309 L162 332 L179 353 L200 381 L220 411 L239 447 L249 476 L253 499 L255 518 L255 539 L255 553 L252 567 L250 573 L248 577 L246 578 L244 577 " fill="none" stroke="black" /><path d="M56 368 L70 390 L76 408 L78 426 L78 439 L76 450 L73 456 L72 458 M12 298 L17 298 L31 302 L54 313 L76 330 L102 360 L120 385 L131 409 L139 432 L144 458 L145 486 L145 513 L142 525 L141 531 L140 533 L139 533 M18 246 L20 246 L29 246 L43 246 L62 248 L90 262 L121 286 L142 309 L162 332 L179 353 L200 381 L220 411 L239 447 L249 476 L253 499 L255 518 L255 539 L255 553 L252 567 L250 573 L248 577 L246 578 L244 577 M0 153 L9 153 L34 153 L74 154 L130 166 L174 184 L216 210 L252 236 L284 268 L309 307 L331 357 L344 401 L349 436 L352 472 L352 508 L350 537 L342 557 L335 566 L331 573 L329 577 L328 579 L327 579 " fill="none" stroke="black" /><path d="M56 368 L70 390 L76 408 L78 426 L78 439 L76 450 L73 456 L72 458 M12 298 L17 298 L31 302 L54 313 L76 330 L102 360 L120 385 L131 409 L139 432 L144 458 L145 486 L145 513 L142 525 L141 531 L140 533 L139 533 M18 246 L20 246 L29 246 L43 246 L62 248 L90 262 L121 286 L142 309 L162 332 L179 353 L200 381 L220 411 L239 447 L249 476 L253 499 L255 518 L255 539 L255 553 L252 567 L250 573 L248 577 L246 578 L244 577 M0 153 L9 153 L34 153 L74 154 L130 166 L174 184 L216 210 L252 236 L284 268 L309 307 L331 357 L344 401 L349 436 L352 472 L352 508 L350 537 L342 557 L335 566 L331 573 L329 577 L328 579 L327 579 M31 96 L33 96 L59 96 L102 96 L152 96 L195 106 L238 127 L292 159 L327 182 L361 211 L388 237 L411 273 L426 315 L436 359 L442 414 L446 451 L446 484 L444 510 L439 533 L435 549 L431 561 L429 567 L428 570 L427 570 " fill="none" stroke="black" /><path d="M56 368 L70 390 L76 408 L78 426 L78 439 L76 450 L73 456 L72 458 M12 298 L17 298 L31 302 L54 313 L76 330 L102 360 L120 385 L131 409 L139 432 L144 458 L145 486 L145 513 L142 525 L141 531 L140 533 L139 533 M18 246 L20 246 L29 246 L43 246 L62 248 L90 262 L121 286 L142 309 L162 332 L179 353 L200 381 L220 411 L239 447 L249 476 L253 499 L255 518 L255 539 L255 553 L252 567 L250 573 L248 577 L246 578 L244 577 M0 153 L9 153 L34 153 L74 154 L130 166 L174 184 L216 210 L252 236 L284 268 L309 307 L331 357 L344 401 L349 436 L352 472 L352 508 L350 537 L342 557 L335 566 L331 573 L329 577 L328 579 L327 579 M31 96 L33 96 L59 96 L102 96 L152 96 L195 106 L238 127 L292 159 L327 182 L361 211 L388 237 L411 273 L426 315 L436 359 L442 414 L446 451 L446 484 L444 510 L439 533 L435 549 L431 561 L429 567 L428 570 L427 570 M73 50 L74 50 L88 50 L119 50 L173 50 L220 53 L270 66 L316 80 L365 101 L396 118 L431 144 L457 177 L477 211 L494 250 L508 294 L516 330 L524 378 L525 412 L525 434 L525 459 L522 481 L519 500 L515 515 L513 519 L511 521 L509 523 L508 524 L507 524 " fill="none" stroke="black" /><path d="M56 368 L70 390 L76 408 L78 426 L78 439 L76 450 L73 456 L72 458 M12 298 L17 298 L31 302 L54 313 L76 330 L102 360 L120 385 L131 409 L139 432 L144 458 L145 486 L145 513 L142 525 L141 531 L140 533 L139 533 M18 246 L20 246 L29 246 L43 246 L62 248 L90 262 L121 286 L142 309 L162 332 L179 353 L200 381 L220 411 L239 447 L249 476 L253 499 L255 518 L255 539 L255 553 L252 567 L250 573 L248 577 L246 578 L244 577 M0 153 L9 153 L34 153 L74 154 L130 166 L174 184 L216 210 L252 236 L284 268 L309 307 L331 357 L344 401 L349 436 L352 472 L352 508 L350 537 L342 557 L335 566 L331 573 L329 577 L328 579 L327 579 M31 96 L33 96 L59 96 L102 96 L152 96 L195 106 L238 127 L292 159 L327 182 L361 211 L388 237 L411 273 L426 315 L436 359 L442 414 L446 451 L446 484 L444 510 L439 533 L435 549 L431 561 L429 567 L428 570 L427 570 M73 50 L74 50 L88 50 L119 50 L173 50 L220 53 L270 66 L316 80 L365 101 L396 118 L431 144 L457 177 L477 211 L494 250 L508 294 L516 330 L524 378 L525 412 L525 434 L525 459 L522 481 L519 500 L515 515 L513 519 L511 521 L509 523 L508 524 L507 524 M202 0 L224 0 L266 0 L321 0 L368 1 L403 10 L436 24 L461 37 L488 55 L504 69 L518 84 L531 101 L543 118 L557 145 L568 170 L578 197 L588 227 L597 258 L602 287 L609 321 L611 344 L612 363 L612 383 L612 404 L612 419 L611 427 L610 429 L610 430 L609 430 " fill="none" stroke="black" /></svg>