<?xml version="1.0" encoding="utf-8" ?>
<svg baseProfile="tiny" height="38" version="1.2" viewBox="-3 -3 321 38" width="321" xmlns="http://www.w3.org/2000/svg" xmlns:ev="http://www.w3.org/2001/xml-events" xmlns:xlink="http://www.w3.org/1999/xlink"><defs /><path d="M0 38 L2 35 L3 33 L5 30 L6 28 L7 27 L9 25 L11 23 L12 22 L13 21 L14 20 L15 19 L17 18 L18 17 L20 16 L22 14 L24 13 L26 13 L29 12 L33 12 L34 12 L36 12 L37 12 L38 12 L38 13 L39 13 L39 14 L38 15 L38 16 L38 17 L38 19 L38 21 L39 22 L40 24 L41 25 L42 26 L43 26 L44 27 L46 27 L48 27 L51 27 L53 27 L56 26 L58 26 L62 24 L64 24 L66 23 L69 22 L72 21 L76 20 L80 19 L84 18 L87 17 L90 17 L94 15 L97 14 L101 13 L106 12 L110 12 L112 12 L114 11 L115 11 L115 12 L115 15 L114 18 L112 20 L112 22 L111 24 L110 25 L110 26 L110 27 L111 27 L112 27 L114 28 L116 28 L118 29 L122 29 L125 30 L128 30 L130 30 L133 30 L135 29 L137 28 L139 26 L141 24 L144 22 L147 21 L150 20 L154 18 L159 16 L163 15 L167 14 L172 12 L177 11 L183 9 L190 8 L197 6 L204 6 L210 5 L215 4 L219 4 L221 4 L222 4 L221 7 L218 10 L216 13 L215 15 L214 16 L214 17 L214 18 L214 19 L215 20 L216 21 L217 21 L219 22 L221 23 L223 24 L225 26 L229 26 L231 27 L234 27 L237 27 L239 27 L242 26 L245 25 L249 23 L253 21 L257 19 L261 16 L265 14 L270 11 L275 9 L280 6 L285 4 L290 3 L295 1 L300 0 L305 0 L310 0 L314 0 L317 0 L319 0 L321 0 L321 1 L320 2 L319 3 L317 5 L316 6 L316 7 L315 8 " fill="none" stroke="black" /></svg>