<?xml version="1.0" encoding="utf-8" ?>
<svg baseProfile="tiny" height="218" version="1.2" viewBox="-3 -3 184 218" width="184" xmlns="http://www.w3.org/2000/svg" xmlns:ev="http://www.w3.org/2001/xml-events" xmlns:xlink="http://www.w3.org/1999/xlink"><defs /><path d="M95 116 L100 107 L102 101 L102 95 L100 89 L95 85 L85 81 L76 77 L65 75 L55 74 L43 73 L36 76 L32 79 L29 84 L27 92 L26 101 L25 109 L26 121 L27 129 L30 137 L32 145 L36 154 L39 159 L44 163 L49 165 L55 166 L62 166 L70 167 L78 167 L89 166 L97 164 L104 161 L110 156 L117 149 L124 140 L129 131 L133 123 L135 113 L136 102 L136 93 L132 82 L125 69 L117 58 L110 49 L99 42 L87 38 L74 34 L62 34 L52 34 L41 35 L34 39 L28 44 L25 50 L23 57 L21 63 L20 70 L18 81 L17 93 L16 105 L16 122 L16 132 L16 143 L17 153 L17 162 L18 168 L20 175 L23 180 L27 183 L32 186 L39 189 L50 191 L64 193 L76 195 L89 196 L104 196 L119 196 L131 193 L145 187 L152 182 L160 173 L166 161 L171 146 L177 122 L182 100 L184 81 L184 70 L183 58 L168 37 L158 30 L146 23 L131 15 L114 9 L99 4 L86 2 L74 0 L62 0 L49 1 L40 6 L33 11 L27 17 L21 23 L16 30 L12 37 L9 44 L8 53 L6 63 L5 74 L2 89 L2 99 L1 111 L1 121 L1 131 L0 140 L0 148 L0 157 L0 164 L0 171 L3 180 L6 190 L9 197 L12 206 L17 211 L21 213 L26 215 L32 216 L41 217 L49 217 L57 218 L66 218 L75 218 L85 218 L95 218 L103 218 L112 218 L120 218 L128 218 L135 218 L142 218 L146 218 L149 218 L153 218 L157 218 L161 217 L166 217 L170 217 L173 217 L175 216 L176 216 L177 216 L178 216 " fill="none" stroke="black" /></svg>