<?xml version="1.0" encoding="utf-8" ?>
<svg baseProfile="tiny" height="91" version="1.2" viewBox="-3 -3 432 91" width="432" xmlns="http://www.w3.org/2000/svg" xmlns:ev="http://www.w3.org/2001/xml-events" xmlns:xlink="http://www.w3.org/1999/xlink"><defs /><path d="M12 90 L19 89 L26 89 L32 89 L40 89 L45 89 L50 89 L55 89 L62 89 L69 89 L77 89 L82 90 L88 90 L94 90 L99 90 L103 90 L109 91 L115 91 L121 91 L127 91 L135 91 L146 91 L162 91 L175 91 L189 91 L201 90 L211 90 L221 90 L232 90 L244 90 L255 89 L264 89 L272 89 L279 88 L287 88 L297 88 L304 88 L311 88 L318 88 L325 88 L332 88 L341 88 L348 88 L355 88 L361 88 L367 88 L374 88 L381 88 L387 88 L393 88 L404 88 L413 88 L420 88 L426 87 L428 86 L430 86 L431 85 L432 85 " fill="none" stroke="black" /><path d="M12 90 L19 89 L26 89 L32 89 L40 89 L45 89 L50 89 L55 89 L62 89 L69 89 L77 89 L82 90 L88 90 L94 90 L99 90 L103 90 L109 91 L115 91 L121 91 L127 91 L135 91 L146 91 L162 91 L175 91 L189 91 L201 90 L211 90 L221 90 L232 90 L244 90 L255 89 L264 89 L272 89 L279 88 L287 88 L297 88 L304 88 L311 88 L318 88 L325 88 L332 88 L341 88 L348 88 L355 88 L361 88 L367 88 L374 88 L381 88 L387 88 L393 88 L404 88 L413 88 L420 88 L426 87 L428 86 L430 86 L431 85 L432 85 M0 64 L3 64 L12 64 L30 64 L51 64 L73 65 L94 67 L112 68 L133 70 L149 72 L166 72 L184 72 L202 73 L218 74 L237 74 L252 74 L264 74 L274 74 L284 73 L295 73 L308 72 L315 71 L323 71 L330 70 L337 69 L343 68 L351 68 L357 67 L365 66 L371 66 L377 65 L384 65 L387 65 L390 65 L391 65 L392 65 L392 64 " fill="none" stroke="black" /><path d="M12 90 L19 89 L26 89 L32 89 L40 89 L45 89 L50 89 L55 89 L62 89 L69 89 L77 89 L82 90 L88 90 L94 90 L99 90 L103 90 L109 91 L115 91 L121 91 L127 91 L135 91 L146 91 L162 91 L175 91 L189 91 L201 90 L211 90 L221 90 L232 90 L244 90 L255 89 L264 89 L272 89 L279 88 L287 88 L297 88 L304 88 L311 88 L318 88 L325 88 L332 88 L341 88 L348 88 L355 88 L361 88 L367 88 L374 88 L381 88 L387 88 L393 88 L404 88 L413 88 L420 88 L426 87 L428 86 L430 86 L431 85 L432 85 M0 64 L3 64 L12 64 L30 64 L51 64 L73 65 L94 67 L112 68 L133 70 L149 72 L166 72 L184 72 L202 73 L218 74 L237 74 L252 74 L264 74 L274 74 L284 73 L295 73 L308 72 L315 71 L323 71 L330 70 L337 69 L343 68 L351 68 L357 67 L365 66 L371 66 L377 65 L384 65 L387 65 L390 65 L391 65 L392 65 L392 64 M42 32 L44 32 L52 32 L67 32 L82 32 L96 33 L109 34 L123 36 L137 38 L156 40 L171 42 L187 43 L202 44 L216 46 L230 47 L240 47 L248 47 L256 47 L264 46 L270 45 L277 44 L283 43 L289 42 L294 41 L299 40 L303 39 L308 38 L313 38 L317 37 L320 37 L322 37 L324 37 L326 37 L329 37 L330 36 " fill="none" stroke="black" /><path d="M12 90 L19 89 L26 89 L32 89 L40 89 L45 89 L50 89 L55 89 L62 89 L69 89 L77 89 L82 90 L88 90 L94 90 L99 90 L103 90 L109 91 L115 91 L121 91 L127 91 L135 91 L146 91 L162 91 L175 91 L189 91 L201 90 L211 90 L221 90 L232 90 L244 90 L255 89 L264 89 L272 89 L279 88 L287 88 L297 88 L304 88 L311 88 L318 88 L325 88 L332 88 L341 88 L348 88 L355 88 L361 88 L367 88 L374 88 L381 88 L387 88 L393 88 L404 88 L413 88 L420 88 L426 87 L428 86 L430 86 L431 85 L432 85 M0 64 L3 64 L12 64 L30 64 L51 64 L73 65 L94 67 L112 68 L133 70 L149 72 L166 72 L184 72 L202 73 L218 74 L237 74 L252 74 L264 74 L274 74 L284 73 L295 73 L308 72 L315 71 L323 71 L330 70 L337 69 L343 68 L351 68 L357 67 L365 66 L371 66 L377 65 L384 65 L387 65 L390 65 L391 65 L392 65 L392 64 M42 32 L44 32 L52 32 L67 32 L82 32 L96 33 L109 34 L123 36 L137 38 L156 40 L171 42 L187 43 L202 44 L216 46 L230 47 L240 47 L248 47 L256 47 L264 46 L270 45 L277 44 L283 43 L289 42 L294 41 L299 40 L303 39 L308 38 L313 38 L317 37 L320 37 L322 37 L324 37 L326 37 L329 37 L330 36 M126 0 L129 0 L140 0 L159 0 L171 0 L186 1 L198 3 L210 4 L220 5 L231 5 L239 6 L247 7 L255 8 L263 8 L269 8 L274 8 L277 8 L280 8 L283 8 L284 8 " fill="none" stroke="black" /></svg>