<?xml version="1.0" encoding="utf-8" ?>
<svg baseProfile="tiny" height="329" version="1.2" viewBox="-3 -3 230 329" width="230" xmlns="http://www.w3.org/2000/svg" xmlns:ev="http://www.w3.org/2001/xml-events" xmlns:xlink="http://www.w3.org/1999/xlink"><defs /><path d="M0 318 L2 323 L3 326 L4 328 L5 329 L6 329 L7 329 L8 329 L8 328 L8 326 L8 321 L8 311 L8 300 L8 290 L8 281 L8 272 L8 261 L8 245 L8 229 L8 215 L9 198 L10 184 L11 170 L13 152 L15 141 L18 127 L19 115 L22 104 L24 90 L27 78 L29 69 L30 61 L32 53 L34 46 L35 40 L37 35 L39 31 L40 27 L41 23 L43 20 L44 17 L46 14 L48 11 L49 8 L52 5 L53 2 L54 1 L55 0 L54 3 L51 9 L50 14 L49 17 L49 20 L48 26 L48 32 L48 40 L48 49 L48 60 L48 71 L50 88 L51 101 L52 116 L53 134 L55 151 L58 164 L61 181 L62 190 L64 200 L66 208 L68 216 L70 221 L73 231 L76 240 L78 247 L80 254 L82 261 L84 267 L87 272 L90 279 L93 285 L95 293 L98 300 L100 305 L103 310 L104 313 L106 314 L107 315 L109 316 L110 316 L111 315 L111 313 L112 308 L113 297 L115 284 L117 268 L119 256 L121 244 L124 232 L127 221 L130 210 L133 200 L137 187 L141 176 L145 166 L148 156 L152 145 L157 134 L162 122 L167 112 L171 104 L176 97 L180 90 L184 83 L188 75 L191 70 L195 65 L198 60 L201 55 L204 51 L208 44 L211 41 L213 38 L216 34 L219 31 L221 28 L224 26 L225 24 L227 23 L228 22 L229 21 L230 21 L230 20 L230 21 L230 23 L228 25 L227 26 L225 27 L223 28 L222 29 L221 30 L220 30 L220 31 L219 31 L218 32 L217 33 L216 33 L216 34 L215 35 L215 34 " fill="none" stroke="black" /></svg>