<?xml version="1.0" encoding="utf-8" ?>
<svg baseProfile="tiny" height="208" version="1.2" viewBox="-3 -3 488 208" width="488" xmlns="http://www.w3.org/2000/svg" xmlns:ev="http://www.w3.org/2001/xml-events" xmlns:xlink="http://www.w3.org/1999/xlink"><defs /><path d="M0 4 L2 7 L4 5 L6 0 L9 2 L11 13 L14 23 L16 30 L17 31 L19 23 L25 20 L30 29 L36 40 L41 44 L44 44 L51 41 L58 42 L64 48 L65 49 L65 40 L66 23 L75 17 L78 24 L79 34 L82 43 L84 45 L87 43 L88 39 L91 39 L93 38 L98 36 L105 35 L111 38 L116 44 L119 45 L119 40 L121 34 L125 32 L129 36 L132 41 L137 44 L143 45 L147 43 L152 43 L159 43 L166 46 L174 49 L177 50 " fill="none" stroke="black" /><path d="M0 4 L2 7 L4 5 L6 0 L9 2 L11 13 L14 23 L16 30 L17 31 L19 23 L25 20 L30 29 L36 40 L41 44 L44 44 L51 41 L58 42 L64 48 L65 49 L65 40 L66 23 L75 17 L78 24 L79 34 L82 43 L84 45 L87 43 L88 39 L91 39 L93 38 L98 36 L105 35 L111 38 L116 44 L119 45 L119 40 L121 34 L125 32 L129 36 L132 41 L137 44 L143 45 L147 43 L152 43 L159 43 L166 46 L174 49 L177 50 M177 49 L176 49 " fill="none" stroke="black" /><path d="M0 4 L2 7 L4 5 L6 0 L9 2 L11 13 L14 23 L16 30 L17 31 L19 23 L25 20 L30 29 L36 40 L41 44 L44 44 L51 41 L58 42 L64 48 L65 49 L65 40 L66 23 L75 17 L78 24 L79 34 L82 43 L84 45 L87 43 L88 39 L91 39 L93 38 L98 36 L105 35 L111 38 L116 44 L119 45 L119 40 L121 34 L125 32 L129 36 L132 41 L137 44 L143 45 L147 43 L152 43 L159 43 L166 46 L174 49 L177 50 M177 49 L176 49 M245 28 L245 27 L245 23 L247 19 L252 16 L258 15 L263 14 L267 14 L268 25 L268 48 L269 78 L271 91 L274 90 L281 73 L293 63 L301 63 L306 71 L308 78 L312 75 L320 63 L327 63 L330 72 L333 80 L335 76 L340 60 L348 55 L355 61 L358 71 L360 73 L361 67 L368 61 L374 65 L380 74 L383 76 L385 68 L391 62 L398 62 L404 62 L410 61 L417 61 L423 65 L429 72 L433 76 L435 74 L435 67 L436 61 L439 55 L441 47 L445 40 L447 37 L451 37 L454 40 L461 47 L472 56 L480 63 L485 67 L488 68 " fill="none" stroke="black" /><path d="M0 4 L2 7 L4 5 L6 0 L9 2 L11 13 L14 23 L16 30 L17 31 L19 23 L25 20 L30 29 L36 40 L41 44 L44 44 L51 41 L58 42 L64 48 L65 49 L65 40 L66 23 L75 17 L78 24 L79 34 L82 43 L84 45 L87 43 L88 39 L91 39 L93 38 L98 36 L105 35 L111 38 L116 44 L119 45 L119 40 L121 34 L125 32 L129 36 L132 41 L137 44 L143 45 L147 43 L152 43 L159 43 L166 46 L174 49 L177 50 M177 49 L176 49 M245 28 L245 27 L245 23 L247 19 L252 16 L258 15 L263 14 L267 14 L268 25 L268 48 L269 78 L271 91 L274 90 L281 73 L293 63 L301 63 L306 71 L308 78 L312 75 L320 63 L327 63 L330 72 L333 80 L335 76 L340 60 L348 55 L355 61 L358 71 L360 73 L361 67 L368 61 L374 65 L380 74 L383 76 L385 68 L391 62 L398 62 L404 62 L410 61 L417 61 L423 65 L429 72 L433 76 L435 74 L435 67 L436 61 L439 55 L441 47 L445 40 L447 37 L451 37 L454 40 L461 47 L472 56 L480 63 L485 67 L488 68 M31 187 L31 186 L32 175 L40 167 L48 166 L53 169 L61 181 L71 198 L81 208 L86 207 L97 197 L108 194 L115 194 L121 194 L128 194 L135 196 L140 202 L144 203 L146 193 L156 174 L171 158 L187 150 L203 149 L209 156 L212 163 L214 168 L215 164 L217 147 L225 139 L229 143 L232 156 L233 167 L234 176 L236 178 L241 181 L248 184 L254 184 L262 177 L268 176 L274 178 L278 184 L280 187 L282 188 " fill="none" stroke="black" /></svg>