<?xml version="1.0" encoding="utf-8" ?>
<svg baseProfile="tiny" height="298" version="1.2" viewBox="-3 -3 759 298" width="759" xmlns="http://www.w3.org/2000/svg" xmlns:ev="http://www.w3.org/2001/xml-events" xmlns:xlink="http://www.w3.org/1999/xlink"><defs /><path d="M44 162 L58 162 L74 163 L92 163 L113 163 L136 164 L166 166 L191 167 L217 167 L241 168 L263 169 L283 169 L306 169 L327 169 L345 169 L363 169 L381 169 L397 169 L416 169 L430 169 L442 169 L457 169 L469 169 L480 168 L495 167 L508 165 L521 164 L536 163 L549 161 L566 161 L583 161 L597 160 L611 160 L624 160 L638 160 L652 160 L672 160 L690 160 L705 162 L717 164 L730 165 L741 167 L751 168 L755 169 L756 170 L758 170 L759 170 L759 168 " fill="none" stroke="black" /><path d="M44 162 L58 162 L74 163 L92 163 L113 163 L136 164 L166 166 L191 167 L217 167 L241 168 L263 169 L283 169 L306 169 L327 169 L345 169 L363 169 L381 169 L397 169 L416 169 L430 169 L442 169 L457 169 L469 169 L480 168 L495 167 L508 165 L521 164 L536 163 L549 161 L566 161 L583 161 L597 160 L611 160 L624 160 L638 160 L652 160 L672 160 L690 160 L705 162 L717 164 L730 165 L741 167 L751 168 L755 169 L756 170 L758 170 L759 170 L759 168 M0 185 L0 186 L4 191 L13 203 L34 223 L57 241 L82 255 L108 266 L136 277 L163 285 L191 290 L225 295 L253 297 L285 298 L324 298 L364 292 L406 282 L454 266 L492 249 L519 234 L537 223 L548 215 L557 209 L559 208 " fill="none" stroke="black" /><path d="M44 162 L58 162 L74 163 L92 163 L113 163 L136 164 L166 166 L191 167 L217 167 L241 168 L263 169 L283 169 L306 169 L327 169 L345 169 L363 169 L381 169 L397 169 L416 169 L430 169 L442 169 L457 169 L469 169 L480 168 L495 167 L508 165 L521 164 L536 163 L549 161 L566 161 L583 161 L597 160 L611 160 L624 160 L638 160 L652 160 L672 160 L690 160 L705 162 L717 164 L730 165 L741 167 L751 168 L755 169 L756 170 L758 170 L759 170 L759 168 M0 185 L0 186 L4 191 L13 203 L34 223 L57 241 L82 255 L108 266 L136 277 L163 285 L191 290 L225 295 L253 297 L285 298 L324 298 L364 292 L406 282 L454 266 L492 249 L519 234 L537 223 L548 215 L557 209 L559 208 M20 138 L20 136 L25 127 L43 104 L73 75 L114 44 L158 18 L189 6 L221 1 L266 0 L310 0 L362 4 L397 11 L430 20 L454 29 L477 41 L491 51 L504 62 L515 75 L521 85 L527 96 L532 104 L535 111 L539 118 L541 124 L543 132 L546 138 L546 140 " fill="none" stroke="black" /><path d="M44 162 L58 162 L74 163 L92 163 L113 163 L136 164 L166 166 L191 167 L217 167 L241 168 L263 169 L283 169 L306 169 L327 169 L345 169 L363 169 L381 169 L397 169 L416 169 L430 169 L442 169 L457 169 L469 169 L480 168 L495 167 L508 165 L521 164 L536 163 L549 161 L566 161 L583 161 L597 160 L611 160 L624 160 L638 160 L652 160 L672 160 L690 160 L705 162 L717 164 L730 165 L741 167 L751 168 L755 169 L756 170 L758 170 L759 170 L759 168 M0 185 L0 186 L4 191 L13 203 L34 223 L57 241 L82 255 L108 266 L136 277 L163 285 L191 290 L225 295 L253 297 L285 298 L324 298 L364 292 L406 282 L454 266 L492 249 L519 234 L537 223 L548 215 L557 209 L559 208 M20 138 L20 136 L25 127 L43 104 L73 75 L114 44 L158 18 L189 6 L221 1 L266 0 L310 0 L362 4 L397 11 L430 20 L454 29 L477 41 L491 51 L504 62 L515 75 L521 85 L527 96 L532 104 L535 111 L539 118 L541 124 L543 132 L546 138 L546 140 M91 198 L93 199 L102 206 L119 215 L135 222 L153 228 L174 234 L199 239 L220 242 L238 244 L254 244 L269 244 L286 243 L305 238 L314 236 L322 234 L328 232 L332 231 L334 230 L335 230 L337 229 L339 229 L343 227 L347 226 L352 224 L356 224 L358 223 L359 222 L360 222 L360 221 " fill="none" stroke="black" /><path d="M44 162 L58 162 L74 163 L92 163 L113 163 L136 164 L166 166 L191 167 L217 167 L241 168 L263 169 L283 169 L306 169 L327 169 L345 169 L363 169 L381 169 L397 169 L416 169 L430 169 L442 169 L457 169 L469 169 L480 168 L495 167 L508 165 L521 164 L536 163 L549 161 L566 161 L583 161 L597 160 L611 160 L624 160 L638 160 L652 160 L672 160 L690 160 L705 162 L717 164 L730 165 L741 167 L751 168 L755 169 L756 170 L758 170 L759 170 L759 168 M0 185 L0 186 L4 191 L13 203 L34 223 L57 241 L82 255 L108 266 L136 277 L163 285 L191 290 L225 295 L253 297 L285 298 L324 298 L364 292 L406 282 L454 266 L492 249 L519 234 L537 223 L548 215 L557 209 L559 208 M20 138 L20 136 L25 127 L43 104 L73 75 L114 44 L158 18 L189 6 L221 1 L266 0 L310 0 L362 4 L397 11 L430 20 L454 29 L477 41 L491 51 L504 62 L515 75 L521 85 L527 96 L532 104 L535 111 L539 118 L541 124 L543 132 L546 138 L546 140 M91 198 L93 199 L102 206 L119 215 L135 222 L153 228 L174 234 L199 239 L220 242 L238 244 L254 244 L269 244 L286 243 L305 238 L314 236 L322 234 L328 232 L332 231 L334 230 L335 230 L337 229 L339 229 L343 227 L347 226 L352 224 L356 224 L358 223 L359 222 L360 222 L360 221 M135 110 L138 109 L146 106 L158 101 L175 95 L194 90 L212 86 L241 81 L266 81 L292 82 L317 90 L338 100 L353 112 L359 118 L362 121 L363 123 L364 124 L365 126 L366 128 L367 129 " fill="none" stroke="black" /></svg>