<?xml version="1.0" encoding="utf-8" ?>
<svg baseProfile="tiny" height="415" version="1.2" viewBox="-3 -3 602 415" width="602" xmlns="http://www.w3.org/2000/svg" xmlns:ev="http://www.w3.org/2001/xml-events" xmlns:xlink="http://www.w3.org/1999/xlink"><defs /><path d="M0 346 L1 357 L1 358 L3 344 L9 315 L17 292 L19 290 L20 303 L24 327 L30 347 L33 357 L35 347 L42 299 L50 243 L55 217 L57 214 L57 236 L68 288 L85 341 L93 363 L98 370 L101 342 L107 218 L118 79 L125 35 L125 37 L125 80 L135 168 L147 269 L158 354 L161 376 L162 378 L164 353 L167 318 L169 308 L169 331 L169 362 L169 384 L169 390 L170 378 L177 341 L183 322 L185 321 L187 337 L195 359 L203 374 L209 379 L211 366 L214 353 L218 350 L220 360 L225 385 L231 407 L233 415 L233 405 L233 375 L238 364 L241 368 L244 383 L251 400 L256 405 L258 400 L258 352 L273 129 L288 53 L298 3 L299 0 L296 18 L298 73 L318 167 L343 279 L357 328 L363 348 L363 349 L358 331 L356 312 L356 307 L359 321 L362 354 L364 377 L364 387 L360 386 L358 358 L362 342 L368 345 L373 361 L377 378 L380 386 L381 385 L382 363 L390 358 L393 361 L395 369 L396 374 L398 376 " fill="none" stroke="black" /><path d="M0 346 L1 357 L1 358 L3 344 L9 315 L17 292 L19 290 L20 303 L24 327 L30 347 L33 357 L35 347 L42 299 L50 243 L55 217 L57 214 L57 236 L68 288 L85 341 L93 363 L98 370 L101 342 L107 218 L118 79 L125 35 L125 37 L125 80 L135 168 L147 269 L158 354 L161 376 L162 378 L164 353 L167 318 L169 308 L169 331 L169 362 L169 384 L169 390 L170 378 L177 341 L183 322 L185 321 L187 337 L195 359 L203 374 L209 379 L211 366 L214 353 L218 350 L220 360 L225 385 L231 407 L233 415 L233 405 L233 375 L238 364 L241 368 L244 383 L251 400 L256 405 L258 400 L258 352 L273 129 L288 53 L298 3 L299 0 L296 18 L298 73 L318 167 L343 279 L357 328 L363 348 L363 349 L358 331 L356 312 L356 307 L359 321 L362 354 L364 377 L364 387 L360 386 L358 358 L362 342 L368 345 L373 361 L377 378 L380 386 L381 385 L382 363 L390 358 L393 361 L395 369 L396 374 L398 376 M397 376 L398 376 L398 363 L398 297 L415 144 L424 81 L427 52 L426 63 L433 117 L460 226 L480 307 L491 338 L493 342 L485 281 L482 165 L489 129 L490 131 L490 182 L492 276 L494 332 L495 348 L495 347 L497 324 L501 319 L503 326 L510 350 L516 372 L518 379 L518 377 L522 362 L526 362 L531 373 L537 383 L542 390 L544 390 L545 377 L549 369 L556 371 L561 380 L565 387 L567 388 L567 382 L571 381 L576 387 L584 396 L591 402 L595 402 L597 397 L599 389 L599 386 L599 384 L600 384 L601 384 L602 384 L602 385 " fill="none" stroke="black" /></svg>