<?xml version="1.0" encoding="utf-8" ?>
<svg baseProfile="tiny" height="164" version="1.2" viewBox="-3 -3 201 164" width="201" xmlns="http://www.w3.org/2000/svg" xmlns:ev="http://www.w3.org/2001/xml-events" xmlns:xlink="http://www.w3.org/1999/xlink"><defs /><path d="M106 65 L110 67 L113 69 L116 73 L118 76 L121 80 L122 84 L123 87 L124 92 L124 96 L124 100 L123 105 L121 108 L120 111 L117 114 L115 117 L112 119 L107 122 L102 124 L96 125 L91 127 L86 128 L80 128 L73 128 L65 128 L58 128 L53 126 L48 123 L43 118 L39 111 L36 104 L34 99 L34 94 L33 89 L33 84 L33 80 L33 76 L33 72 L34 69 L35 65 L37 62 L39 58 L43 54 L47 51 L51 48 L57 44 L62 41 L68 39 L73 38 L78 38 L84 38 L90 38 L97 38 L103 38 L112 39 L118 40 L124 42 L129 44 L133 46 L137 48 L140 52 L143 54 L145 57 L147 61 L150 64 L152 68 L154 72 L156 77 L157 81 L158 85 L158 90 L158 95 L158 103 L157 109 L155 115 L152 121 L149 126 L146 132 L142 138 L139 142 L136 146 L133 148 L128 150 L124 152 L118 155 L113 157 L107 159 L99 161 L92 162 L86 163 L77 163 L69 163 L62 164 L55 164 L47 163 L40 160 L34 156 L27 149 L21 142 L16 135 L12 127 L8 118 L4 108 L2 100 L0 93 L0 86 L0 80 L1 74 L4 66 L11 53 L19 42 L29 31 L37 22 L46 15 L53 10 L61 6 L68 3 L76 1 L85 0 L96 0 L106 0 L115 1 L129 5 L140 9 L150 13 L160 19 L170 26 L179 33 L187 39 L192 45 L195 50 L198 56 L200 65 L201 73 L201 80 L201 89 L200 97 L197 104 L195 112 L192 119 L188 127 L185 133 L181 140 L176 146 L172 151 L168 155 L164 159 L162 161 L161 163 L160 163 " fill="none" stroke="black" /></svg>