<?xml version="1.0" encoding="utf-8" ?>
<svg baseProfile="tiny" height="318" version="1.2" viewBox="-3 -3 295 318" width="295" xmlns="http://www.w3.org/2000/svg" xmlns:ev="http://www.w3.org/2001/xml-events" xmlns:xlink="http://www.w3.org/1999/xlink"><defs /><path d="M0 128 L0 144 L0 159 L1 175 L2 190 L4 206 L7 220 L13 235 L18 245 L24 252 L30 256 L34 256 L37 256 L39 251 L39 247 L39 239 L39 227 L39 208 L39 179 L39 158 L39 139 L39 125 L39 110 L39 98 L39 86 L40 71 L43 59 L46 50 L50 42 L55 35 L60 31 L65 29 L68 28 L70 32 L71 43 L72 56 L72 72 L72 98 L72 121 L72 141 L72 159 L72 180 L72 202 L72 224 L72 238 L74 252 L78 262 L83 271 L88 277 L92 280 L95 280 L98 279 L100 276 L102 272 L103 267 L103 255 L103 239 L103 217 L103 196 L103 175 L103 156 L103 137 L103 123 L103 112 L103 97 L103 85 L103 70 L105 52 L109 38 L113 27 L117 17 L121 13 L124 10 L127 10 L130 10 L132 14 L135 21 L137 34 L140 52 L141 76 L141 108 L141 135 L141 166 L141 197 L140 227 L137 255 L134 287 L134 303 L134 313 L138 317 L143 318 L148 317 L156 310 L164 300 L170 287 L176 273 L179 257 L181 235 L184 208 L187 190 L188 172 L188 153 L188 131 L188 107 L189 76 L191 50 L193 30 L196 18 L199 8 L202 2 L206 0 L208 0 L212 2 L218 8 L226 19 L233 33 L237 48 L240 69 L240 83 L240 100 L239 120 L234 143 L228 171 L223 196 L220 221 L219 243 L219 263 L220 276 L225 284 L232 290 L239 292 L246 292 L255 289 L262 283 L268 275 L273 262 L277 251 L281 237 L282 222 L284 207 L284 189 L284 162 L284 141 L285 115 L285 90 L285 64 L287 44 L290 28 L293 17 L295 13 " fill="none" stroke="black" /></svg>