<?xml version="1.0" encoding="utf-8" ?>
<svg baseProfile="tiny" height="405" version="1.2" viewBox="-3 -3 621 405" width="621" xmlns="http://www.w3.org/2000/svg" xmlns:ev="http://www.w3.org/2001/xml-events" xmlns:xlink="http://www.w3.org/1999/xlink"><defs /><path d="M424 151 L447 164 L471 176 L497 188 L519 196 L542 200 L557 201 L569 201 L578 196 L587 187 L599 173 L609 162 L614 151 L618 141 L620 131 L620 120 L620 106 L618 92 L608 82 L594 67 L578 46 L567 33 L556 25 L538 14 L518 3 L499 0 L482 0 L462 0 L438 5 L415 12 L395 22 L383 28 L371 35 L359 44 L349 52 L336 64 L324 76 L312 90 L298 106 L283 125 L268 148 L261 162 L252 186 L246 208 L239 235 L231 260 L220 288 L204 324 L190 347 L175 366 L160 381 L147 390 L133 397 L114 402 L91 402 L68 391 L53 380 L43 368 L38 353 L35 334 L35 302 L35 280 L38 261 L50 237 L65 215 L90 187 L133 150 L168 127 L198 113 L228 104 L256 101 L283 100 L315 106 L341 119 L367 133 L399 150 L425 165 L453 180 L481 192 L500 194 L516 194 L533 191 L548 186 L565 175 L583 160 L594 148 L606 134 L614 122 L619 110 L620 99 L621 87 L617 75 L603 66 L583 53 L563 39 L544 27 L519 18 L490 11 L463 8 L432 5 L400 6 L369 14 L340 26 L312 44 L295 63 L280 85 L266 109 L257 132 L250 159 L242 195 L234 231 L223 267 L210 299 L196 326 L182 346 L163 363 L145 375 L128 385 L108 394 L83 403 L51 405 L31 402 L18 394 L7 385 L1 375 L0 361 L0 344 L9 321 L18 303 L53 249 L91 199 L125 162 L164 130 L194 114 L211 109 L225 108 L239 107 L251 108 L259 111 L271 114 L282 116 L294 117 L302 119 L310 120 L315 121 L318 121 L319 121 L320 121 L320 120 L320 119 " fill="none" stroke="black" /></svg>