<?xml version="1.0" encoding="utf-8" ?>
<svg baseProfile="tiny" height="287" version="1.2" viewBox="-3 -3 1348 287" width="1348" xmlns="http://www.w3.org/2000/svg" xmlns:ev="http://www.w3.org/2001/xml-events" xmlns:xlink="http://www.w3.org/1999/xlink"><defs /><path d="M0 287 L4 286 L16 284 L39 277 L81 262 L141 245 L191 224 L241 194 L305 152 L348 121 L373 98 L390 83 L403 73 L412 66 L418 63 L424 60 L434 55 L442 50 L453 46 L468 43 L479 41 L500 41 L530 40 L557 39 L589 35 L632 25 L675 16 L708 7 L735 3 L761 1 L788 1 L824 0 L883 3 L957 7 L1026 3 L1083 1 L1131 1 L1197 6 L1254 20 L1302 32 L1329 34 L1338 33 L1344 32 L1346 31 L1348 30 " fill="none" stroke="black" /></svg>