<?xml version="1.0" encoding="utf-8" ?>
<svg baseProfile="tiny" height="307" version="1.2" viewBox="-3 -3 402 307" width="402" xmlns="http://www.w3.org/2000/svg" xmlns:ev="http://www.w3.org/2001/xml-events" xmlns:xlink="http://www.w3.org/1999/xlink"><defs /><path d="M149 172 L149 173 L148 173 L148 175 L148 178 L147 182 L147 183 L147 184 L147 185 L147 186 L147 188 L147 190 L148 193 L148 195 L148 197 L149 198 L149 199 L149 200 L150 200 L150 201 L151 201 L151 202 L152 203 L153 203 L154 204 L156 205 L157 206 L158 206 L159 206 L161 207 L162 207 L163 207 L165 208 L166 208 L167 208 L169 209 L170 209 L172 210 L174 210 L178 211 L182 212 L185 212 L193 213 L199 213 L201 213 L204 212 L206 211 L211 207 L215 202 L221 192 L228 179 L234 164 L239 146 L240 131 L236 117 L229 106 L223 100 L218 96 L215 95 L211 94 L208 93 L202 93 L194 93 L189 94 L183 95 L177 96 L165 99 L149 102 L124 102 L80 102 L63 102 L58 103 L56 103 L54 103 L54 104 L53 106 L54 111 L55 116 L57 122 L58 128 L59 138 L59 150 L60 161 L60 173 L60 185 L59 198 L58 208 L53 221 L48 230 L39 238 L30 244 L22 247 L11 253 L4 257 L1 260 L0 262 L1 265 L7 270 L23 279 L41 286 L75 296 L110 303 L148 307 L189 307 L226 306 L283 293 L318 276 L349 257 L367 239 L383 212 L393 187 L400 166 L402 146 L401 126 L396 105 L386 82 L371 58 L344 30 L334 20 L329 11 L324 0 " fill="none" stroke="black" /></svg>