<?xml version="1.0" encoding="utf-8" ?>
<svg baseProfile="tiny" height="67" version="1.2" viewBox="-3 -3 1377 67" width="1377" xmlns="http://www.w3.org/2000/svg" xmlns:ev="http://www.w3.org/2001/xml-events" xmlns:xlink="http://www.w3.org/1999/xlink"><defs /><path d="M0 57 L12 49 L27 41 L49 31 L66 27 L84 27 L99 30 L116 37 L149 51 L184 56 L217 58 L258 59 L295 54 L345 41 L388 22 L420 9 L460 1 L486 0 L511 5 L533 13 L571 28 L606 40 L638 46 L675 51 L729 52 L761 49 L798 40 L837 27 L860 20 L888 16 L914 17 L949 31 L999 49 L1041 60 L1083 67 L1132 65 L1182 57 L1219 44 L1235 35 L1260 23 L1266 22 L1268 21 L1275 22 L1299 26 L1319 28 L1347 26 L1368 23 L1377 21 " fill="none" stroke="black" /></svg>