<?xml version="1.0" encoding="utf-8" ?>
<svg baseProfile="tiny" height="77" version="1.2" viewBox="-3 -3 480 77" width="480" xmlns="http://www.w3.org/2000/svg" xmlns:ev="http://www.w3.org/2001/xml-events" xmlns:xlink="http://www.w3.org/1999/xlink"><defs /><path d="M30 45 L28 51 L30 52 L52 47 L67 39 L44 33 L2 32 L0 35 L43 44 L131 51 L135 51 L87 50 L62 49 L75 52 L114 55 L109 53 L44 34 L21 29 L55 33 L137 40 L142 40 L80 27 L22 11 L39 6 L67 1 L87 0 L75 8 L30 23 L23 27 L109 48 L205 56 L203 56 L162 49 L163 50 L224 62 L276 72 L252 70 L209 66 L221 69 L308 77 L288 65 L216 36 L215 35 L225 32 L224 31 L206 26 L208 26 L285 34 L312 34 L311 32 L308 31 L336 30 L480 22 " fill="none" stroke="black" /></svg>