<?xml version="1.0" encoding="utf-8" ?>
<svg baseProfile="tiny" height="103" version="1.2" viewBox="-3 -3 1380 103" width="1380" xmlns="http://www.w3.org/2000/svg" xmlns:ev="http://www.w3.org/2001/xml-events" xmlns:xlink="http://www.w3.org/1999/xlink"><defs /><path d="M0 82 L2 83 L6 84 L11 84 L19 84 L27 79 L51 57 L80 35 L123 7 L144 0 L151 1 L161 7 L186 26 L227 51 L301 72 L378 85 L446 79 L517 61 L577 42 L613 33 L629 32 L645 38 L681 59 L739 86 L800 102 L861 103 L907 90 L950 79 L982 69 L1001 66 L1021 66 L1046 74 L1094 91 L1135 95 L1176 87 L1206 73 L1223 59 L1234 52 L1240 49 L1242 49 L1249 48 L1258 48 L1271 47 L1277 47 L1284 47 L1293 44 L1305 41 L1310 41 L1312 41 L1318 45 L1344 66 L1362 75 L1371 75 L1375 75 L1380 68 " fill="none" stroke="black" /></svg>