<?xml version="1.0" encoding="utf-8" ?>
<svg baseProfile="tiny" height="335" version="1.2" viewBox="-3 -3 1184 335" width="1184" xmlns="http://www.w3.org/2000/svg" xmlns:ev="http://www.w3.org/2001/xml-events" xmlns:xlink="http://www.w3.org/1999/xlink"><defs /><path d="M0 146 L1 146 L21 149 L51 153 L84 154 L118 155 L152 155 L173 150 L192 140 L205 128 L213 121 L213 122 L218 146 L227 178 L231 189 L234 184 L251 136 L268 58 L270 9 L271 0 L271 4 L275 89 L320 242 L369 327 L382 335 L401 316 L425 238 L442 146 L444 95 L444 85 L444 83 L441 109 L444 180 L447 193 L448 193 L457 180 L474 162 L480 160 L489 166 L521 180 L561 186 L591 191 L611 192 L648 190 L705 186 L811 182 L903 176 L1005 175 L1089 167 L1141 158 L1171 153 L1183 153 L1184 153 L1184 152 " fill="none" stroke="black" /></svg>