<?xml version="1.0" encoding="utf-8" ?>
<svg baseProfile="tiny" height="345" version="1.2" viewBox="-3 -3 1590 345" width="1590" xmlns="http://www.w3.org/2000/svg" xmlns:ev="http://www.w3.org/2001/xml-events" xmlns:xlink="http://www.w3.org/1999/xlink"><defs /><path d="M0 145 L6 128 L29 83 L68 16 L79 0 L84 15 L118 98 L176 192 L225 230 L281 223 L331 167 L352 103 L364 74 L367 74 L379 98 L444 201 L535 287 L626 302 L702 250 L748 154 L769 88 L777 76 L784 100 L815 190 L890 301 L950 324 L1008 297 L1052 243 L1079 205 L1094 197 L1117 220 L1224 293 L1372 345 L1496 330 L1561 296 L1578 259 L1579 251 L1579 252 L1580 255 L1581 256 L1590 253 " fill="none" stroke="black" /></svg>