<?xml version="1.0" encoding="utf-8" ?>
<svg baseProfile="tiny" height="128" version="1.2" viewBox="-3 -3 1427 128" width="1427" xmlns="http://www.w3.org/2000/svg" xmlns:ev="http://www.w3.org/2001/xml-events" xmlns:xlink="http://www.w3.org/1999/xlink"><defs /><path d="M0 95 L0 96 L1 97 L2 99 L5 102 L10 105 L19 108 L34 112 L66 115 L103 118 L135 118 L154 118 L175 111 L210 92 L246 65 L281 41 L321 22 L351 13 L378 9 L399 9 L428 16 L450 27 L467 38 L500 62 L522 77 L543 93 L570 107 L599 119 L631 126 L659 128 L679 127 L707 122 L745 105 L771 87 L807 64 L848 40 L885 17 L924 4 L960 0 L987 0 L1012 3 L1062 23 L1109 52 L1159 82 L1188 97 L1215 106 L1260 115 L1304 119 L1364 120 L1398 112 L1415 102 L1420 94 L1423 88 L1425 83 L1427 79 " fill="none" stroke="black" /></svg>