<?xml version="1.0" encoding="utf-8" ?>
<svg baseProfile="tiny" height="496" version="1.2" viewBox="-3 -3 764 496" width="764" xmlns="http://www.w3.org/2000/svg" xmlns:ev="http://www.w3.org/2001/xml-events" xmlns:xlink="http://www.w3.org/1999/xlink"><defs /><path d="M5 220 L2 230 L0 258 L1 282 L5 298 L7 300 L9 297 L35 270 L55 238 L79 194 L103 164 L116 148 L119 147 L120 152 L121 199 L119 276 L122 353 L129 388 L135 397 L146 399 L173 390 L204 363 L228 312 L236 217 L216 120 L211 94 L212 73 L214 64 L220 61 L227 63 L238 86 L256 159 L271 257 L280 345 L289 405 L296 427 L303 433 L321 434 L350 414 L381 353 L381 273 L346 171 L329 111 L329 90 L330 62 L333 54 L338 51 L343 54 L361 82 L377 142 L380 226 L381 320 L385 375 L397 396 L411 401 L436 398 L478 373 L497 347 L499 308 L481 243 L453 169 L437 119 L440 73 L451 29 L471 4 L497 0 L510 9 L527 71 L546 192 L559 285 L601 394 L647 456 L691 484 L736 496 L758 491 L764 478 L764 455 " fill="none" stroke="black" /></svg>