<?xml version="1.0" encoding="utf-8" ?>
<svg baseProfile="tiny" height="499" version="1.2" viewBox="-3 -3 590 499" width="590" xmlns="http://www.w3.org/2000/svg" xmlns:ev="http://www.w3.org/2001/xml-events" xmlns:xlink="http://www.w3.org/1999/xlink"><defs /><path d="M295 241 L294 244 L295 253 L299 262 L304 266 L326 273 L342 274 L357 269 L363 261 L365 244 L361 226 L352 209 L332 186 L309 173 L292 169 L280 169 L269 171 L240 186 L215 209 L197 235 L193 257 L196 283 L208 305 L235 324 L304 342 L376 343 L430 336 L466 313 L489 278 L488 236 L470 192 L421 134 L341 75 L291 55 L236 44 L184 41 L121 57 L76 87 L39 128 L13 194 L0 279 L3 339 L9 363 L29 404 L56 437 L99 470 L145 488 L214 494 L293 497 L377 499 L445 494 L512 473 L561 446 L580 422 L588 398 L590 370 L590 333 L587 300 L566 256 L517 197 L485 158 L473 137 L453 116 L412 77 L377 52 L350 35 L315 18 L285 7 L273 3 L271 2 L267 0 " fill="none" stroke="black" /></svg>