<?xml version="1.0" encoding="utf-8" ?>
<svg baseProfile="tiny" height="427" version="1.2" viewBox="-3 -3 420 427" width="420" xmlns="http://www.w3.org/2000/svg" xmlns:ev="http://www.w3.org/2001/xml-events" xmlns:xlink="http://www.w3.org/1999/xlink"><defs /><path d="M89 207 L89 208 L89 210 L90 213 L92 218 L93 225 L93 229 L91 234 L89 239 L87 246 L86 259 L86 268 L88 276 L92 282 L104 291 L119 297 L130 300 L134 303 L135 304 L138 309 L143 316 L156 329 L175 338 L198 344 L220 346 L231 344 L244 338 L251 330 L257 320 L261 309 L265 302 L273 298 L291 295 L310 297 L338 299 L357 298 L378 296 L401 289 L414 276 L420 258 L419 236 L402 209 L385 186 L372 169 L364 160 L350 141 L344 128 L343 119 L345 101 L352 75 L356 53 L356 37 L350 25 L332 11 L308 2 L282 0 L262 0 L244 5 L235 11 L228 23 L222 39 L218 60 L213 73 L205 84 L195 93 L185 97 L173 98 L165 98 L155 97 L145 95 L134 94 L123 94 L116 94 L110 95 L104 97 L99 101 L95 107 L93 112 L90 120 L87 129 L86 141 L86 149 L84 158 L82 163 L79 168 L74 172 L64 177 L52 180 L42 183 L35 186 L30 189 L22 193 L15 199 L8 205 L5 208 L2 214 L0 220 L0 227 L1 234 L3 241 L7 249 L12 257 L16 263 L19 268 L22 276 L23 280 L24 287 L24 295 L22 305 L20 313 L20 320 L21 332 L24 344 L34 360 L48 374 L69 387 L89 399 L106 409 L117 415 L131 420 L153 425 L176 427 L201 427 L234 426 L276 421 L300 417 L318 411 L334 405 L348 398 L362 394 L381 392 L397 391 L406 390 " fill="none" stroke="black" /></svg>