<?xml version="1.0" encoding="utf-8" ?>
<svg baseProfile="tiny" height="65" version="1.2" viewBox="-3 -3 1725 65" width="1725" xmlns="http://www.w3.org/2000/svg" xmlns:ev="http://www.w3.org/2001/xml-events" xmlns:xlink="http://www.w3.org/1999/xlink"><defs /><path d="M0 61 L1 61 L9 60 L30 61 L58 63 L99 65 L152 64 L203 65 L268 65 L346 64 L416 62 L488 60 L564 56 L670 50 L768 43 L913 37 L1045 24 L1116 15 L1190 10 L1252 4 L1313 0 L1373 1 L1433 0 L1498 0 L1558 1 L1605 1 L1662 2 L1698 2 L1708 2 L1711 2 L1714 1 L1718 1 L1723 2 L1725 2 " fill="none" stroke="black" /></svg>