<?xml version="1.0" encoding="utf-8" ?>
<svg baseProfile="tiny" height="130" version="1.2" viewBox="-3 -3 1471 130" width="1471" xmlns="http://www.w3.org/2000/svg" xmlns:ev="http://www.w3.org/2001/xml-events" xmlns:xlink="http://www.w3.org/1999/xlink"><defs /><path d="M1 107 L22 109 L57 112 L113 107 L178 88 L264 51 L336 20 L424 0 L487 3 L552 21 L641 54 L757 94 L887 121 L996 130 L1101 130 L1176 118 L1229 93 L1269 72 L1288 65 L1318 67 L1373 79 L1433 86 L1463 85 L1471 81 " fill="none" stroke="black" /><path d="M1 107 L22 109 L57 112 L113 107 L178 88 L264 51 L336 20 L424 0 L487 3 L552 21 L641 54 L757 94 L887 121 L996 130 L1101 130 L1176 118 L1229 93 L1269 72 L1288 65 L1318 67 L1373 79 L1433 86 L1463 85 L1471 81 M0 70 L4 71 L19 73 L52 66 L120 46 L173 33 L243 30 L257 35 L295 52 L370 64 L476 53 L588 36 L697 28 L783 28 L843 32 L900 36 L970 40 L1028 33 L1055 28 L1080 29 L1136 48 L1229 78 L1330 84 L1387 85 L1392 85 " fill="none" stroke="black" /></svg>