<?xml version="1.0" encoding="utf-8" ?>
<svg baseProfile="tiny" height="28" version="1.2" viewBox="-3 -3 1315 28" width="1315" xmlns="http://www.w3.org/2000/svg" xmlns:ev="http://www.w3.org/2001/xml-events" xmlns:xlink="http://www.w3.org/1999/xlink"><defs /><path d="M0 4 L0 5 L2 10 L8 17 L12 19 L14 18 L30 12 L52 1 L55 0 L56 1 L64 10 L80 23 L99 28 L118 25 L140 18 L154 12 L164 9 L170 9 L183 10 L209 12 L254 15 L295 11 L331 7 L358 5 L382 5 L414 7 L459 9 L509 12 L583 16 L669 16 L763 14 L888 18 L989 16 L1074 15 L1155 18 L1198 19 L1259 20 L1296 22 L1314 22 L1315 22 " fill="none" stroke="black" /></svg>