<?xml version="1.0" encoding="utf-8" ?>
<svg baseProfile="tiny" height="432" version="1.2" viewBox="-3 -3 1513 432" width="1513" xmlns="http://www.w3.org/2000/svg" xmlns:ev="http://www.w3.org/2001/xml-events" xmlns:xlink="http://www.w3.org/1999/xlink"><defs /><path d="M0 144 L0 145 L0 147 L0 153 L5 176 L17 202 L36 225 L69 241 L121 235 L167 202 L205 148 L244 96 L273 66 L285 57 L299 57 L316 70 L333 104 L359 176 L392 269 L437 359 L480 408 L529 421 L581 407 L626 375 L667 288 L663 207 L643 124 L636 75 L639 35 L645 16 L659 2 L674 0 L690 8 L719 46 L764 128 L789 195 L820 267 L863 350 L910 403 L962 417 L1013 416 L1041 399 L1052 363 L1042 304 L1026 242 L1013 170 L1015 100 L1028 50 L1048 26 L1084 19 L1116 29 L1143 69 L1187 147 L1222 215 L1263 293 L1311 371 L1353 409 L1374 421 L1392 431 L1423 432 L1463 422 L1498 399 L1513 368 L1510 323 L1508 283 L1505 243 L1494 187 L1489 139 L1490 104 L1490 75 L1491 54 L1494 43 L1497 37 " fill="none" stroke="black" /></svg>