<?xml version="1.0" encoding="utf-8" ?>
<svg baseProfile="tiny" height="192" version="1.2" viewBox="-3 -3 385 192" width="385" xmlns="http://www.w3.org/2000/svg" xmlns:ev="http://www.w3.org/2001/xml-events" xmlns:xlink="http://www.w3.org/1999/xlink"><defs /><path d="M168 136 L171 136 L173 136 L177 133 L181 128 L182 120 L177 107 L164 94 L152 91 L124 91 L105 98 L98 104 L94 118 L97 130 L114 145 L162 162 L218 161 L253 149 L266 115 L243 69 L167 15 L96 0 L48 10 L6 63 L0 133 L17 166 L93 192 L233 190 L385 166 " fill="none" stroke="black" /></svg>