<?xml version="1.0" encoding="utf-8" ?>
<svg baseProfile="tiny" height="100" version="1.2" viewBox="-3 -3 189 100" width="189" xmlns="http://www.w3.org/2000/svg" xmlns:ev="http://www.w3.org/2001/xml-events" xmlns:xlink="http://www.w3.org/1999/xlink"><defs /><path d="M71 65 L71 66 L80 66 L109 66 L127 63 L117 58 L92 61 L72 72 L87 82 L151 75 L166 61 L141 51 L130 54 L141 58 L159 56 L158 47 L142 45 L139 54 L166 68 L189 64 L174 49 L129 51 L129 62 L183 67 L189 58 L153 50 L137 58 L137 71 L156 72 L165 52 L145 27 L110 33 L114 65 L157 75 L168 62 L125 29 L84 28 L84 55 L124 74 L163 63 L158 40 L87 23 L56 51 L71 86 L147 90 L178 64 L131 17 L39 15 L18 64 L100 100 L162 82 L151 38 L114 18 L64 40 L78 65 L133 84 L164 70 L151 40 L93 15 L61 31 L68 56 L103 60 L113 38 L72 0 L6 1 L0 36 L51 61 L100 54 L95 37 L41 22 L17 37 L41 58 L92 60 L99 53 L86 41 L83 40 L84 25 " fill="none" stroke="black" /></svg>