<?xml version="1.0" encoding="utf-8" ?>
<svg baseProfile="tiny" height="386" version="1.2" viewBox="-3 -3 1274 386" width="1274" xmlns="http://www.w3.org/2000/svg" xmlns:ev="http://www.w3.org/2001/xml-events" xmlns:xlink="http://www.w3.org/1999/xlink"><defs /><path d="M139 188 L143 201 L151 214 L177 231 L224 247 L292 257 L330 254 L366 229 L387 193 L393 151 L386 114 L382 105 L313 25 L274 8 L242 1 L215 0 L181 2 L141 10 L95 28 L49 49 L22 70 L8 88 L2 100 L1 110 L0 122 L0 137 L0 151 L0 164 L0 173 L0 181 L0 196 L0 207 L0 214 L2 222 L5 232 L12 247 L20 262 L25 271 L34 285 L43 296 L53 308 L72 321 L89 331 L107 337 L129 343 L145 347 L164 353 L185 357 L206 362 L227 368 L251 372 L275 375 L305 379 L339 383 L362 385 L390 386 L419 384 L445 376 L475 362 L504 342 L522 325 L550 298 L594 253 L637 206 L678 167 L723 133 L746 117 L777 102 L814 94 L851 96 L904 105 L975 124 L1060 146 L1143 164 L1222 172 L1251 173 L1264 170 L1269 167 L1272 165 L1273 162 L1274 161 " fill="none" stroke="black" /></svg>