<?xml version="1.0" encoding="utf-8" ?>
<svg baseProfile="tiny" height="200" version="1.2" viewBox="-3 -3 1334 200" width="1334" xmlns="http://www.w3.org/2000/svg" xmlns:ev="http://www.w3.org/2001/xml-events" xmlns:xlink="http://www.w3.org/1999/xlink"><defs /><path d="M0 21 L1 18 L2 20 L9 40 L26 66 L58 98 L82 102 L120 68 L157 25 L185 0 L186 1 L192 23 L207 61 L235 77 L276 73 L312 48 L340 19 L349 19 L373 43 L419 85 L470 109 L509 104 L546 84 L571 68 L581 70 L608 100 L662 136 L734 145 L793 127 L836 105 L865 100 L895 112 L952 161 L1006 197 L1028 200 L1068 186 L1098 168 L1130 158 L1186 173 L1230 185 L1278 196 L1313 193 L1332 182 L1334 180 " fill="none" stroke="black" /></svg>