<?xml version="1.0" encoding="utf-8" ?>
<svg baseProfile="tiny" height="72" version="1.2" viewBox="-3 -3 110 72" width="110" xmlns="http://www.w3.org/2000/svg" xmlns:ev="http://www.w3.org/2001/xml-events" xmlns:xlink="http://www.w3.org/1999/xlink"><defs /><path d="M2 37 L2 36 L3 35 L5 33 L7 29 L8 27 L7 26 L4 28 L0 33 L1 35 L13 35 L28 34 L28 32 L22 32 L17 35 L17 36 L20 35 L26 29 L23 24 L10 24 L5 33 L9 35 L15 29 L14 12 L11 9 L12 24 L27 45 L34 45 L36 40 L28 29 L21 31 L20 40 L27 42 L34 36 L29 24 L9 17 L8 22 L29 34 L44 34 L43 28 L29 24 L26 32 L36 45 L59 50 L64 43 L42 32 L22 38 L24 48 L38 52 L51 43 L50 28 L41 23 L34 29 L40 53 L55 55 L60 46 L55 18 L33 2 L27 15 L36 37 L59 45 L71 33 L54 2 L40 0 L40 11 L61 25 L80 22 L79 10 L59 3 L55 13 L76 26 L94 27 L83 20 L49 22 L41 32 L47 35 L59 27 L58 9 L50 2 L38 18 L43 43 L71 51 L92 45 L89 31 L56 24 L17 42 L28 63 L78 64 L110 55 L103 53 L46 51 L29 61 L55 69 L100 64 L103 52 L71 36 L51 42 L65 65 L91 72 L94 66 " fill="none" stroke="black" /></svg>