<?xml version="1.0" encoding="utf-8" ?>
<svg baseProfile="tiny" height="154" version="1.2" viewBox="-3 -3 163 154" width="163" xmlns="http://www.w3.org/2000/svg" xmlns:ev="http://www.w3.org/2001/xml-events" xmlns:xlink="http://www.w3.org/1999/xlink"><defs /><path d="M14 107 L15 102 L17 97 L18 93 L18 88 L19 83 L19 77 L19 71 L20 66 L20 59 L21 52 L22 46 L23 40 L24 35 L25 31 L27 27 L30 23 L34 20 L38 18 L43 15 L47 14 L52 14 L57 14 L61 16 L65 19 L69 25 L73 31 L75 39 L77 45 L79 51 L79 58 L79 66 L78 75 L78 82 L78 90 L78 98 L79 106 L81 112 L82 117 L84 121 L87 123 L88 124 L91 125 L94 125 L98 125 L101 124 L105 121 L111 115 L113 111 L115 107 L118 101 L120 96 L122 92 L123 87 L126 82 L128 79 L131 75 L134 73 L136 71 L138 71 L143 71 L145 71 L146 71 L147 71 " fill="none" stroke="black" /><path d="M14 107 L15 102 L17 97 L18 93 L18 88 L19 83 L19 77 L19 71 L20 66 L20 59 L21 52 L22 46 L23 40 L24 35 L25 31 L27 27 L30 23 L34 20 L38 18 L43 15 L47 14 L52 14 L57 14 L61 16 L65 19 L69 25 L73 31 L75 39 L77 45 L79 51 L79 58 L79 66 L78 75 L78 82 L78 90 L78 98 L79 106 L81 112 L82 117 L84 121 L87 123 L88 124 L91 125 L94 125 L98 125 L101 124 L105 121 L111 115 L113 111 L115 107 L118 101 L120 96 L122 92 L123 87 L126 82 L128 79 L131 75 L134 73 L136 71 L138 71 L143 71 L145 71 L146 71 L147 71 M42 3 L40 3 L39 3 L36 5 L35 6 L32 7 L29 9 L27 11 L23 13 L19 17 L15 21 L13 24 L11 28 L9 32 L7 36 L7 39 L7 43 L5 48 L5 52 L4 56 L3 61 L3 67 L2 72 L1 77 L1 82 L0 87 L0 91 L0 97 L0 103 L3 110 L7 117 L14 123 L22 131 L31 137 L40 143 L51 147 L65 152 L78 154 L90 154 L102 154 L111 153 L121 150 L131 147 L136 143 L140 139 L144 135 L149 129 L155 122 L159 112 L162 107 L163 102 L163 98 L163 93 L163 88 L163 84 L161 80 L159 75 L157 68 L155 62 L152 56 L149 51 L145 45 L138 39 L129 31 L120 23 L113 19 L104 14 L98 11 L92 10 L87 9 L82 7 L75 6 L69 5 L64 4 L62 4 L59 3 L56 3 L52 3 L51 2 L47 2 L44 1 L43 1 L42 1 L41 0 L40 0 L39 0 " fill="none" stroke="black" /></svg>