<?xml version="1.0" encoding="utf-8" ?>
<svg baseProfile="tiny" height="50" version="1.2" viewBox="-3 -3 182 50" width="182" xmlns="http://www.w3.org/2000/svg" xmlns:ev="http://www.w3.org/2001/xml-events" xmlns:xlink="http://www.w3.org/1999/xlink"><defs /><path d="M4 42 L5 38 L5 34 L6 31 L6 26 L6 22 L7 18 L7 14 L8 8 L8 6 L8 4 L11 5 L15 9 L19 15 L22 19 L24 23 L27 26 L29 30 L32 34 L35 38 L38 42 L40 45 L41 46 L45 39 L48 34 L50 30 L52 26 L54 22 L56 18 L59 14 L60 9 L62 4 L64 1 L64 0 L65 0 L68 5 L74 11 L78 18 L82 25 L86 29 L88 33 L91 38 L93 42 L95 46 L96 49 L96 50 L97 50 L99 45 L101 37 L104 31 L105 26 L107 22 L108 18 L110 13 L112 8 L113 6 L113 5 L113 4 L114 5 L118 9 L123 15 L126 20 L129 22 L131 26 L133 30 L135 34 L136 37 L139 41 L140 45 L141 46 L141 47 " fill="none" stroke="black" /><path d="M4 42 L5 38 L5 34 L6 31 L6 26 L6 22 L7 18 L7 14 L8 8 L8 6 L8 4 L11 5 L15 9 L19 15 L22 19 L24 23 L27 26 L29 30 L32 34 L35 38 L38 42 L40 45 L41 46 L45 39 L48 34 L50 30 L52 26 L54 22 L56 18 L59 14 L60 9 L62 4 L64 1 L64 0 L65 0 L68 5 L74 11 L78 18 L82 25 L86 29 L88 33 L91 38 L93 42 L95 46 L96 49 L96 50 L97 50 L99 45 L101 37 L104 31 L105 26 L107 22 L108 18 L110 13 L112 8 L113 6 L113 5 L113 4 L114 5 L118 9 L123 15 L126 20 L129 22 L131 26 L133 30 L135 34 L136 37 L139 41 L140 45 L141 46 L141 47 M0 22 L3 22 L7 22 L14 22 L23 22 L30 23 L34 23 L38 23 L43 23 L48 23 L57 23 L66 23 L77 23 L94 23 L109 25 L113 25 L114 25 L115 25 L117 25 L119 25 L123 25 L126 25 L127 25 L128 25 L129 25 " fill="none" stroke="black" /><path d="M4 42 L5 38 L5 34 L6 31 L6 26 L6 22 L7 18 L7 14 L8 8 L8 6 L8 4 L11 5 L15 9 L19 15 L22 19 L24 23 L27 26 L29 30 L32 34 L35 38 L38 42 L40 45 L41 46 L45 39 L48 34 L50 30 L52 26 L54 22 L56 18 L59 14 L60 9 L62 4 L64 1 L64 0 L65 0 L68 5 L74 11 L78 18 L82 25 L86 29 L88 33 L91 38 L93 42 L95 46 L96 49 L96 50 L97 50 L99 45 L101 37 L104 31 L105 26 L107 22 L108 18 L110 13 L112 8 L113 6 L113 5 L113 4 L114 5 L118 9 L123 15 L126 20 L129 22 L131 26 L133 30 L135 34 L136 37 L139 41 L140 45 L141 46 L141 47 M0 22 L3 22 L7 22 L14 22 L23 22 L30 23 L34 23 L38 23 L43 23 L48 23 L57 23 L66 23 L77 23 L94 23 L109 25 L113 25 L114 25 L115 25 L117 25 L119 25 L123 25 L126 25 L127 25 L128 25 L129 25 M140 47 L141 41 L144 30 L146 22 L148 16 L149 11 L151 7 L152 5 L153 2 L154 1 L154 0 L156 1 L164 9 L169 18 L173 26 L176 31 L177 34 L180 38 L181 41 L182 42 L182 43 " fill="none" stroke="black" /><path d="M4 42 L5 38 L5 34 L6 31 L6 26 L6 22 L7 18 L7 14 L8 8 L8 6 L8 4 L11 5 L15 9 L19 15 L22 19 L24 23 L27 26 L29 30 L32 34 L35 38 L38 42 L40 45 L41 46 L45 39 L48 34 L50 30 L52 26 L54 22 L56 18 L59 14 L60 9 L62 4 L64 1 L64 0 L65 0 L68 5 L74 11 L78 18 L82 25 L86 29 L88 33 L91 38 L93 42 L95 46 L96 49 L96 50 L97 50 L99 45 L101 37 L104 31 L105 26 L107 22 L108 18 L110 13 L112 8 L113 6 L113 5 L113 4 L114 5 L118 9 L123 15 L126 20 L129 22 L131 26 L133 30 L135 34 L136 37 L139 41 L140 45 L141 46 L141 47 M0 22 L3 22 L7 22 L14 22 L23 22 L30 23 L34 23 L38 23 L43 23 L48 23 L57 23 L66 23 L77 23 L94 23 L109 25 L113 25 L114 25 L115 25 L117 25 L119 25 L123 25 L126 25 L127 25 L128 25 L129 25 M140 47 L141 41 L144 30 L146 22 L148 16 L149 11 L151 7 L152 5 L153 2 L154 1 L154 0 L156 1 L164 9 L169 18 L173 26 L176 31 L177 34 L180 38 L181 41 L182 42 L182 43 M128 26 L129 26 L136 26 L143 26 L147 26 L149 26 L153 26 L157 26 L160 26 L164 25 L167 25 L168 25 L170 25 L176 25 L181 26 " fill="none" stroke="black" /></svg>