<?xml version="1.0" encoding="utf-8" ?>
<svg baseProfile="tiny" height="49" version="1.2" viewBox="-3 -3 114 49" width="114" xmlns="http://www.w3.org/2000/svg" xmlns:ev="http://www.w3.org/2001/xml-events" xmlns:xlink="http://www.w3.org/1999/xlink"><defs /><path d="M0 30 L1 30 L2 28 L3 24 L4 18 L6 12 L7 9 L7 8 L8 12 L8 20 L8 29 L8 36 L8 39 L8 40 L9 43 L10 45 L10 48 L10 49 " fill="none" stroke="black" /><path d="M0 30 L1 30 L2 28 L3 24 L4 18 L6 12 L7 9 L7 8 L8 12 L8 20 L8 29 L8 36 L8 39 L8 40 L9 43 L10 45 L10 48 L10 49 M6 28 L8 28 L12 28 L14 28 L16 28 L16 27 L19 23 L20 19 L22 16 L24 12 L24 11 L25 11 L27 16 L28 24 L28 32 L29 36 L29 38 L29 39 L29 40 L29 41 " fill="none" stroke="black" /><path d="M0 30 L1 30 L2 28 L3 24 L4 18 L6 12 L7 9 L7 8 L8 12 L8 20 L8 29 L8 36 L8 39 L8 40 L9 43 L10 45 L10 48 L10 49 M6 28 L8 28 L12 28 L14 28 L16 28 L16 27 L19 23 L20 19 L22 16 L24 12 L24 11 L25 11 L27 16 L28 24 L28 32 L29 36 L29 38 L29 39 L29 40 L29 41 M28 22 L29 22 L32 23 L35 24 L36 24 L38 24 L41 20 L44 14 L45 8 L46 6 L46 10 L46 17 L46 25 L46 33 L46 37 L46 39 L46 40 L46 41 L46 43 L46 44 L47 44 " fill="none" stroke="black" /><path d="M0 30 L1 30 L2 28 L3 24 L4 18 L6 12 L7 9 L7 8 L8 12 L8 20 L8 29 L8 36 L8 39 L8 40 L9 43 L10 45 L10 48 L10 49 M6 28 L8 28 L12 28 L14 28 L16 28 L16 27 L19 23 L20 19 L22 16 L24 12 L24 11 L25 11 L27 16 L28 24 L28 32 L29 36 L29 38 L29 39 L29 40 L29 41 M28 22 L29 22 L32 23 L35 24 L36 24 L38 24 L41 20 L44 14 L45 8 L46 6 L46 10 L46 17 L46 25 L46 33 L46 37 L46 39 L46 40 L46 41 L46 43 L46 44 L47 44 M47 23 L48 23 L51 23 L53 23 L56 23 L58 24 L59 24 L60 23 L65 17 L69 10 L71 6 L71 4 L72 4 L72 6 L73 14 L74 24 L75 33 L75 39 L75 41 L75 43 L76 45 " fill="none" stroke="black" /><path d="M0 30 L1 30 L2 28 L3 24 L4 18 L6 12 L7 9 L7 8 L8 12 L8 20 L8 29 L8 36 L8 39 L8 40 L9 43 L10 45 L10 48 L10 49 M6 28 L8 28 L12 28 L14 28 L16 28 L16 27 L19 23 L20 19 L22 16 L24 12 L24 11 L25 11 L27 16 L28 24 L28 32 L29 36 L29 38 L29 39 L29 40 L29 41 M28 22 L29 22 L32 23 L35 24 L36 24 L38 24 L41 20 L44 14 L45 8 L46 6 L46 10 L46 17 L46 25 L46 33 L46 37 L46 39 L46 40 L46 41 L46 43 L46 44 L47 44 M47 23 L48 23 L51 23 L53 23 L56 23 L58 24 L59 24 L60 23 L65 17 L69 10 L71 6 L71 4 L72 4 L72 6 L73 14 L74 24 L75 33 L75 39 L75 41 L75 43 L76 45 M25 4 L26 10 L28 17 L28 21 L28 24 L28 27 L29 29 L29 32 L29 36 L29 37 L29 40 L29 43 L29 45 " fill="none" stroke="black" /><path d="M0 30 L1 30 L2 28 L3 24 L4 18 L6 12 L7 9 L7 8 L8 12 L8 20 L8 29 L8 36 L8 39 L8 40 L9 43 L10 45 L10 48 L10 49 M6 28 L8 28 L12 28 L14 28 L16 28 L16 27 L19 23 L20 19 L22 16 L24 12 L24 11 L25 11 L27 16 L28 24 L28 32 L29 36 L29 38 L29 39 L29 40 L29 41 M28 22 L29 22 L32 23 L35 24 L36 24 L38 24 L41 20 L44 14 L45 8 L46 6 L46 10 L46 17 L46 25 L46 33 L46 37 L46 39 L46 40 L46 41 L46 43 L46 44 L47 44 M47 23 L48 23 L51 23 L53 23 L56 23 L58 24 L59 24 L60 23 L65 17 L69 10 L71 6 L71 4 L72 4 L72 6 L73 14 L74 24 L75 33 L75 39 L75 41 L75 43 L76 45 M25 4 L26 10 L28 17 L28 21 L28 24 L28 27 L29 29 L29 32 L29 36 L29 37 L29 40 L29 43 L29 45 M73 19 L73 20 L75 20 L79 20 L81 19 L84 16 L84 15 L86 12 L87 9 L88 7 L88 4 L88 3 L89 1 L90 6 L92 13 L92 20 L94 28 L94 32 L95 35 L96 38 L96 40 L96 41 L96 43 L97 40 L98 36 L98 32 L98 30 L98 27 L99 24 L99 22 L100 19 L100 16 L101 14 L102 11 L102 8 L103 5 L103 4 L103 3 L104 1 L104 0 L104 1 L104 4 L104 6 L105 8 L105 12 L105 14 L106 17 L106 21 L107 24 L108 28 L108 31 L110 32 L111 35 L112 36 L112 38 L113 41 L114 43 " fill="none" stroke="black" /></svg>