<?xml version="1.0" encoding="utf-8" ?>
<svg baseProfile="tiny" height="270" version="1.2" viewBox="-3 -3 496 270" width="496" xmlns="http://www.w3.org/2000/svg" xmlns:ev="http://www.w3.org/2001/xml-events" xmlns:xlink="http://www.w3.org/1999/xlink"><defs /><path d="M338 240 L338 242 L333 262 L330 270 L330 263 L334 249 L335 245 L335 252 L333 269 L338 254 L341 246 L341 248 L341 259 L342 258 L346 244 L350 232 L350 231 L350 243 L350 248 L350 247 L354 240 L354 247 L354 250 L354 244 L355 239 L356 246 L358 243 L364 235 L369 230 L369 232 L369 246 L369 248 L370 248 L371 245 L372 245 L374 244 L374 247 L375 247 L378 244 L381 242 L382 240 L382 255 L378 270 L379 260 L382 250 L385 246 L385 249 L386 249 L390 240 L391 238 L391 244 L390 248 L390 245 L394 235 L396 234 L396 237 L396 238 L396 246 L396 247 L397 246 L398 245 L398 244 L403 238 L407 232 L407 234 L407 238 L407 239 L408 238 L410 233 L411 230 L411 234 L410 244 L410 253 L415 244 L420 234 L421 230 L422 233 L422 239 L422 241 L424 235 L426 226 L426 230 L426 234 L428 230 L428 232 L428 237 L428 238 L430 235 L432 230 L432 229 L432 234 L431 242 L431 244 L431 243 L434 237 L436 234 L437 234 L438 230 L438 233 L438 234 L440 232 L440 235 L440 237 L442 234 L443 231 L443 232 L443 235 L443 236 L445 234 L446 230 L446 236 L445 242 L451 238 L459 234 L462 232 L462 234 L462 238 L462 239 L463 238 L466 234 L467 230 L467 237 L467 238 L468 238 L471 232 L471 235 L473 240 L474 240 L478 236 L480 231 L481 231 L481 233 L481 237 L484 231 L486 229 L486 232 L486 238 L486 239 L487 239 L491 234 L491 233 L491 237 L491 240 L493 237 L495 231 L496 231 L496 232 " fill="none" stroke="black" /><path d="M338 240 L338 242 L333 262 L330 270 L330 263 L334 249 L335 245 L335 252 L333 269 L338 254 L341 246 L341 248 L341 259 L342 258 L346 244 L350 232 L350 231 L350 243 L350 248 L350 247 L354 240 L354 247 L354 250 L354 244 L355 239 L356 246 L358 243 L364 235 L369 230 L369 232 L369 246 L369 248 L370 248 L371 245 L372 245 L374 244 L374 247 L375 247 L378 244 L381 242 L382 240 L382 255 L378 270 L379 260 L382 250 L385 246 L385 249 L386 249 L390 240 L391 238 L391 244 L390 248 L390 245 L394 235 L396 234 L396 237 L396 238 L396 246 L396 247 L397 246 L398 245 L398 244 L403 238 L407 232 L407 234 L407 238 L407 239 L408 238 L410 233 L411 230 L411 234 L410 244 L410 253 L415 244 L420 234 L421 230 L422 233 L422 239 L422 241 L424 235 L426 226 L426 230 L426 234 L428 230 L428 232 L428 237 L428 238 L430 235 L432 230 L432 229 L432 234 L431 242 L431 244 L431 243 L434 237 L436 234 L437 234 L438 230 L438 233 L438 234 L440 232 L440 235 L440 237 L442 234 L443 231 L443 232 L443 235 L443 236 L445 234 L446 230 L446 236 L445 242 L451 238 L459 234 L462 232 L462 234 L462 238 L462 239 L463 238 L466 234 L467 230 L467 237 L467 238 L468 238 L471 232 L471 235 L473 240 L474 240 L478 236 L480 231 L481 231 L481 233 L481 237 L484 231 L486 229 L486 232 L486 238 L486 239 L487 239 L491 234 L491 233 L491 237 L491 240 L493 237 L495 231 L496 231 L496 232 M0 0 L1 0 " fill="none" stroke="black" /></svg>