<?xml version="1.0" encoding="utf-8" ?>
<svg baseProfile="tiny" height="141" version="1.2" viewBox="-3 -3 130 141" width="130" xmlns="http://www.w3.org/2000/svg" xmlns:ev="http://www.w3.org/2001/xml-events" xmlns:xlink="http://www.w3.org/1999/xlink"><defs /><path d="M6 41 L5 44 L4 45 L4 47 L4 49 L4 50 L5 50 L6 52 L6 53 L6 54 L6 56 L6 59 L6 61 L5 64 L3 67 L2 69 L1 72 L0 75 L0 77 L0 80 L2 81 L4 82 L6 83 L6 85 L7 87 L7 89 L7 93 L7 97 L6 101 L6 104 L6 107 L6 111 L6 113 L7 113 L8 113 L9 114 L10 114 L13 114 L16 115 L18 115 L19 116 L20 118 L21 122 L22 128 L23 133 L25 135 L27 137 L30 138 L34 141 L42 141 L49 141 L53 141 L55 141 L58 137 L61 133 L63 133 L66 132 L72 132 L77 133 L81 135 L85 137 L87 138 L91 138 L96 137 L98 135 L101 133 L102 129 L102 125 L102 121 L102 120 L105 117 L108 116 L112 116 L116 116 L120 116 L123 115 L126 113 L128 109 L130 102 L130 98 L129 93 L126 89 L122 84 L119 81 L119 78 L119 75 L120 72 L122 69 L126 66 L126 62 L126 59 L126 55 L122 51 L118 46 L114 43 L110 42 L107 41 L105 41 L102 39 L98 38 L95 37 L94 35 L93 33 L92 30 L92 27 L93 25 L94 22 L96 21 L97 19 L97 17 L95 16 L91 13 L85 12 L82 11 L78 11 L74 11 L73 11 L71 10 L68 9 L66 6 L64 5 L64 2 L63 1 L60 0 L56 0 L51 0 L45 0 L42 0 L38 0 L36 1 L35 2 L34 5 L32 6 L31 9 L30 9 L29 12 L28 13 L27 14 L26 15 L26 17 L24 17 " fill="none" stroke="black" /><path d="M6 41 L5 44 L4 45 L4 47 L4 49 L4 50 L5 50 L6 52 L6 53 L6 54 L6 56 L6 59 L6 61 L5 64 L3 67 L2 69 L1 72 L0 75 L0 77 L0 80 L2 81 L4 82 L6 83 L6 85 L7 87 L7 89 L7 93 L7 97 L6 101 L6 104 L6 107 L6 111 L6 113 L7 113 L8 113 L9 114 L10 114 L13 114 L16 115 L18 115 L19 116 L20 118 L21 122 L22 128 L23 133 L25 135 L27 137 L30 138 L34 141 L42 141 L49 141 L53 141 L55 141 L58 137 L61 133 L63 133 L66 132 L72 132 L77 133 L81 135 L85 137 L87 138 L91 138 L96 137 L98 135 L101 133 L102 129 L102 125 L102 121 L102 120 L105 117 L108 116 L112 116 L116 116 L120 116 L123 115 L126 113 L128 109 L130 102 L130 98 L129 93 L126 89 L122 84 L119 81 L119 78 L119 75 L120 72 L122 69 L126 66 L126 62 L126 59 L126 55 L122 51 L118 46 L114 43 L110 42 L107 41 L105 41 L102 39 L98 38 L95 37 L94 35 L93 33 L92 30 L92 27 L93 25 L94 22 L96 21 L97 19 L97 17 L95 16 L91 13 L85 12 L82 11 L78 11 L74 11 L73 11 L71 10 L68 9 L66 6 L64 5 L64 2 L63 1 L60 0 L56 0 L51 0 L45 0 L42 0 L38 0 L36 1 L35 2 L34 5 L32 6 L31 9 L30 9 L29 12 L28 13 L27 14 L26 15 L26 17 L24 17 M10 29 L10 27 L13 25 L16 23 L19 21 L20 20 L22 19 L22 18 " fill="none" stroke="black" /></svg>