<?xml version="1.0" encoding="utf-8" ?>
<svg baseProfile="tiny" height="59" version="1.2" viewBox="-3 -3 79 59" width="79" xmlns="http://www.w3.org/2000/svg" xmlns:ev="http://www.w3.org/2001/xml-events" xmlns:xlink="http://www.w3.org/1999/xlink"><defs /><path d="M76 8 L74 9 L74 10 L76 10 L79 10 L77 12 L75 14 L75 15 L76 15 L76 16 L76 18 L74 20 L76 20 L73 24 L72 27 L72 28 L73 28 L75 30 L75 31 L71 34 L70 35 L70 36 L71 36 L69 38 L68 40 L66 44 L62 46 L61 47 L63 48 L65 49 L64 50 L58 50 L54 51 L54 54 L57 57 L52 56 L50 56 L48 56 L44 56 L47 59 L46 59 L42 55 L36 51 L38 53 L40 54 L38 54 L36 51 L34 49 L34 50 L34 56 L30 55 L26 48 L24 48 L24 52 L24 53 L24 52 L25 47 L25 45 L25 46 L20 51 L17 53 L18 51 L19 50 L19 49 L15 50 L16 48 L18 46 L20 44 L15 45 L12 45 L19 43 L20 42 L19 42 L12 43 L4 43 L8 40 L10 39 L9 39 L7 39 L7 38 L8 36 L8 34 L5 33 L7 31 L8 30 L1 30 L0 30 L4 27 L8 25 L7 25 L3 25 L7 23 L11 21 L11 20 L14 18 L20 15 L22 13 L23 13 L23 12 L20 8 L20 7 L19 11 L19 12 L18 7 L16 3 L16 4 L16 7 L16 8 L15 8 L10 11 L8 16 L8 13 L11 11 L12 9 L15 11 L21 16 L24 17 L24 15 L24 10 L24 9 L24 11 L25 6 L25 1 L26 3 L28 8 L31 5 L32 3 L33 3 L34 4 L37 4 L40 1 L40 0 L41 2 L45 5 L47 5 L49 2 L50 2 L51 2 L52 3 L55 0 L56 0 L57 1 L60 2 L64 2 L64 1 L66 3 L69 4 L71 5 L72 5 L73 5 " fill="none" stroke="black" /></svg>