<?xml version="1.0" encoding="utf-8" ?>
<svg baseProfile="tiny" height="73" version="1.2" viewBox="-3 -3 182 73" width="182" xmlns="http://www.w3.org/2000/svg" xmlns:ev="http://www.w3.org/2001/xml-events" xmlns:xlink="http://www.w3.org/1999/xlink"><defs /><path d="M6 71 L3 64 L1 57 L0 53 L0 49 L0 45 L0 43 L0 41 L1 37 L3 33 L3 29 L5 27 L7 24 L7 22 L8 21 L9 21 L11 21 L15 25 L19 33 L22 44 L23 56 L27 66 L29 72 L30 63 L33 41 L35 24 L37 18 L37 29 L39 48 L42 63 L43 67 L45 53 L49 33 L51 17 L53 12 L54 11 L56 21 L59 41 L63 61 L65 72 L66 73 L67 69 L69 50 L74 29 L76 18 L77 14 L77 15 L79 29 L81 49 L84 63 L86 67 L87 57 L90 37 L93 20 L96 12 L98 17 L103 35 L107 50 L111 60 L112 61 L113 61 L115 47 L119 28 L121 11 L123 2 L125 9 L130 29 L135 49 L139 60 L140 60 L142 55 L145 37 L147 21 L150 4 L151 0 L151 1 L155 20 L158 45 L160 61 L160 63 L166 61 L168 61 L168 60 L171 59 L172 59 L173 59 L174 59 L175 59 L176 59 L179 59 L182 59 L182 57 L179 53 L175 47 L171 40 L167 34 L165 28 L164 21 L163 18 L163 15 L163 13 L163 12 L163 11 L163 10 L163 7 L163 6 L163 5 L163 4 " fill="none" stroke="black" /></svg>