<?xml version="1.0" encoding="utf-8" ?>
<svg baseProfile="tiny" height="153" version="1.2" viewBox="-3 -3 188 153" width="188" xmlns="http://www.w3.org/2000/svg" xmlns:ev="http://www.w3.org/2001/xml-events" xmlns:xlink="http://www.w3.org/1999/xlink"><defs /><path d="M0 63 L1 64 L3 65 L4 66 L5 68 L6 70 L7 72 L9 74 L9 76 L11 79 L11 82 L12 84 L13 87 L14 90 L15 91 L15 94 L17 98 L17 100 L19 103 L19 106 L19 108 L20 111 L21 113 L21 116 L21 120 L22 124 L23 126 L23 129 L25 131 L26 134 L27 136 L29 139 L30 142 L31 143 L33 145 L34 146 L36 147 L38 149 L39 149 L40 150 L41 150 L43 150 L43 151 L45 151 L49 152 L50 153 L52 153 L56 153 L59 153 L63 153 L64 153 L68 151 L71 150 L72 148 L76 146 L77 143 L79 141 L80 138 L80 136 L82 132 L83 130 L83 126 L84 123 L86 120 L86 116 L87 111 L88 106 L88 100 L89 95 L90 90 L90 86 L90 82 L91 78 L91 75 L91 72 L92 69 L92 66 L92 64 L93 61 L94 57 L95 54 L96 50 L96 47 L97 45 L98 42 L98 39 L99 37 L100 35 L100 34 L100 33 L100 31 L102 29 L102 27 L103 25 L103 23 L104 22 L105 19 L106 18 L107 15 L108 14 L109 13 L110 11 L111 10 L112 10 L114 8 L115 6 L116 6 L118 5 L119 4 L121 3 L123 2 L124 2 L126 1 L129 0 L131 0 L134 0 L137 0 L139 0 L141 0 L143 0 L145 1 L147 2 L151 4 L153 5 L155 6 L157 7 L159 10 L161 12 L163 14 L165 17 L167 20 L168 22 L169 25 L170 28 L171 33 L171 37 L173 43 L173 49 L173 55 L174 60 L175 66 L176 72 L177 75 L179 78 L181 79 L183 80 L184 80 L185 80 L187 80 L188 80 " fill="none" stroke="black" /></svg>