<?xml version="1.0" encoding="utf-8" ?>
<svg baseProfile="tiny" height="106" version="1.2" viewBox="-3 -3 117 106" width="117" xmlns="http://www.w3.org/2000/svg" xmlns:ev="http://www.w3.org/2001/xml-events" xmlns:xlink="http://www.w3.org/1999/xlink"><defs /><path d="M68 1 L65 0 L62 0 L59 0 L56 0 L53 0 L49 0 L44 2 L40 5 L37 7 L34 9 L31 11 L28 13 L25 16 L22 19 L19 22 L16 26 L14 29 L13 33 L11 35 L9 39 L8 43 L7 48 L6 52 L6 56 L6 60 L7 64 L9 69 L12 73 L14 77 L17 81 L21 85 L26 91 L32 96 L37 100 L45 104 L51 106 L57 106 L67 106 L75 106 L83 104 L90 101 L96 97 L101 90 L107 81 L110 75 L113 68 L114 59 L115 53 L115 45 L113 38 L109 31 L105 24 L100 19 L95 15 L90 11 L86 8 L84 5 L81 4 L78 2 L76 1 L72 1 L68 1 L64 1 L62 1 L60 1 L58 1 L57 1 L56 1 L53 2 L52 3 " fill="none" stroke="black" /><path d="M68 1 L65 0 L62 0 L59 0 L56 0 L53 0 L49 0 L44 2 L40 5 L37 7 L34 9 L31 11 L28 13 L25 16 L22 19 L19 22 L16 26 L14 29 L13 33 L11 35 L9 39 L8 43 L7 48 L6 52 L6 56 L6 60 L7 64 L9 69 L12 73 L14 77 L17 81 L21 85 L26 91 L32 96 L37 100 L45 104 L51 106 L57 106 L67 106 L75 106 L83 104 L90 101 L96 97 L101 90 L107 81 L110 75 L113 68 L114 59 L115 53 L115 45 L113 38 L109 31 L105 24 L100 19 L95 15 L90 11 L86 8 L84 5 L81 4 L78 2 L76 1 L72 1 L68 1 L64 1 L62 1 L60 1 L58 1 L57 1 L56 1 L53 2 L52 3 M34 16 L40 14 L55 12 L67 11 L69 11 L68 11 L56 14 L39 19 L29 22 L21 25 L29 24 L58 21 L88 21 L97 21 L94 21 L77 25 L44 30 L25 34 L15 37 L14 37 L26 37 L67 36 L109 36 L117 36 L116 36 L104 39 L77 43 L45 47 L23 51 L20 53 L21 53 L45 53 L81 53 L106 53 L113 53 L112 53 L97 54 L61 57 L20 58 L1 60 L0 60 L1 61 L20 62 L53 64 L81 66 L90 67 L81 70 L60 74 L41 77 L37 77 L49 78 L79 79 L99 80 L102 80 L88 82 L64 88 L46 91 L41 93 L53 93 L75 92 L93 92 L94 92 L93 93 L82 96 L66 97 L61 99 L59 100 L65 100 L81 97 L97 95 L100 95 " fill="none" stroke="black" /></svg>