<?xml version="1.0" encoding="utf-8" ?>
<svg baseProfile="tiny" height="64" version="1.2" viewBox="-3 -3 70 64" width="70" xmlns="http://www.w3.org/2000/svg" xmlns:ev="http://www.w3.org/2001/xml-events" xmlns:xlink="http://www.w3.org/1999/xlink"><defs /><path d="M24 17 L22 20 L22 21 L22 20 L23 19 L23 18 L24 17 L25 17 L25 19 L26 19 L27 17 L29 16 L30 16 L30 17 L29 18 L31 16 L32 15 L32 16 L29 21 L29 22 L31 19 L33 17 L33 19 L31 24 L33 23 L34 21 L35 21 L35 23 L35 24 L38 24 L42 20 L43 20 L39 24 L33 34 L32 35 L34 33 L36 30 L37 30 L37 32 L33 40 L31 44 L32 43 L35 40 L35 39 L35 42 L30 48 L28 50 L30 48 L34 43 L27 48 L19 54 L15 56 L18 51 L20 43 L15 44 L5 49 L5 48 L6 41 L7 37 L7 38 L10 31 L12 24 L7 32 L0 39 L2 33 L3 28 L3 27 L3 26 L4 22 L7 20 L5 20 L7 17 L10 15 L9 15 L1 17 L1 18 L2 16 L7 13 L10 9 L17 4 L11 6 L5 8 L12 5 L17 1 L19 0 L15 3 L15 4 L18 3 L24 2 L28 1 L27 1 L21 3 L19 3 L21 3 L31 2 L35 1 L31 3 L29 4 L33 4 L43 3 L46 3 L46 4 L50 4 L54 4 L52 5 L51 7 L51 8 L53 8 L51 12 L51 13 L55 13 L55 15 L55 18 L51 20 L45 22 L46 22 L48 23 L49 24 L50 27 L50 28 L58 27 L69 24 L70 24 L67 24 L58 30 L47 36 L46 37 L57 33 L63 31 L63 32 L55 40 L44 47 L43 48 L49 45 L53 43 L53 44 L48 49 L43 56 L42 56 L46 54 L52 51 L54 50 L52 52 L46 58 L37 64 L38 63 L38 64 L36 64 " fill="none" stroke="black" /></svg>