<?xml version="1.0" encoding="utf-8" ?>
<svg baseProfile="tiny" height="78" version="1.2" viewBox="-3 -3 62 78" width="62" xmlns="http://www.w3.org/2000/svg" xmlns:ev="http://www.w3.org/2001/xml-events" xmlns:xlink="http://www.w3.org/1999/xlink"><defs /><path d="M18 7 L14 7 L12 8 L10 11 L6 15 L4 20 L2 24 L2 29 L1 34 L1 38 L0 43 L0 48 L1 52 L2 57 L5 61 L8 65 L11 68 L14 70 L19 73 L26 76 L30 78 L34 78 L38 78 L43 76 L46 75 L49 73 L51 72 L54 69 L55 66 L57 64 L58 59 L61 55 L62 49 L62 45 L62 41 L62 37 L62 34 L61 31 L60 26 L59 23 L58 19 L57 16 L54 13 L52 9 L50 8 L46 4 L44 4 L42 2 L40 1 L38 1 L35 0 L33 0 L30 0 L28 0 L26 0 L24 0 L22 0 L19 0 L18 0 L16 2 L15 3 L14 4 L14 5 L13 7 L12 8 L11 10 L10 11 L10 12 " fill="none" stroke="black" /><path d="M18 7 L14 7 L12 8 L10 11 L6 15 L4 20 L2 24 L2 29 L1 34 L1 38 L0 43 L0 48 L1 52 L2 57 L5 61 L8 65 L11 68 L14 70 L19 73 L26 76 L30 78 L34 78 L38 78 L43 76 L46 75 L49 73 L51 72 L54 69 L55 66 L57 64 L58 59 L61 55 L62 49 L62 45 L62 41 L62 37 L62 34 L61 31 L60 26 L59 23 L58 19 L57 16 L54 13 L52 9 L50 8 L46 4 L44 4 L42 2 L40 1 L38 1 L35 0 L33 0 L30 0 L28 0 L26 0 L24 0 L22 0 L19 0 L18 0 L16 2 L15 3 L14 4 L14 5 L13 7 L12 8 L11 10 L10 11 L10 12 M26 19 L24 20 L22 22 L19 24 L18 26 L17 26 L16 28 L15 30 L14 32 L14 34 L14 36 L14 40 L14 42 L14 44 L14 46 L15 48 L16 49 L18 51 L19 52 L20 54 L22 55 L23 56 L26 56 L26 58 L28 58 L30 58 L33 58 L35 58 L38 58 L40 58 L43 57 L46 55 L49 52 L50 50 L50 48 L51 45 L51 43 L51 40 L51 38 L51 35 L50 32 L50 29 L50 27 L50 24 L49 23 L48 21 L48 20 L46 19 L44 18 L42 17 L41 17 L39 17 L38 17 L37 17 L36 17 L35 17 L34 17 L33 17 L32 18 L30 19 L30 20 L29 20 L28 21 L26 22 L26 23 L25 23 L24 23 L23 23 L22 23 L22 24 " fill="none" stroke="black" /></svg>