<?xml version="1.0" encoding="utf-8" ?>
<svg baseProfile="tiny" height="100" version="1.2" viewBox="-3 -3 259 100" width="259" xmlns="http://www.w3.org/2000/svg" xmlns:ev="http://www.w3.org/2001/xml-events" xmlns:xlink="http://www.w3.org/1999/xlink"><defs /><path d="M163 39 L163 40 L162 42 L161 44 L160 45 L160 47 L160 46 L159 40 L154 29 L149 20 L147 12 L146 8 L146 7 L150 14 L154 22 L157 29 L157 32 L159 35 L159 36 L160 36 L161 29 L164 24 L166 18 L167 14 L167 12 L167 17 L167 24 L165 35 L164 40 L164 37 L174 28 L192 18 L200 11 L201 10 L204 8 L204 9 L200 15 L188 24 L176 35 L164 43 L160 47 L173 44 L212 35 L252 29 L259 28 L258 28 L251 32 L230 37 L212 39 L158 42 L156 42 L172 50 L204 74 L227 93 L230 99 L230 100 L225 98 L209 85 L185 69 L168 57 L160 51 L158 48 L156 45 L155 44 L154 48 L148 61 L135 80 L124 92 L118 96 L116 97 L118 94 L125 81 L133 68 L144 56 L153 50 L156 48 L158 48 L159 47 L158 47 L135 48 L63 53 L8 55 L1 55 L9 55 L37 54 L84 49 L120 46 L137 44 L141 44 L142 44 L143 44 L145 44 L149 44 L151 43 L152 43 L149 40 L136 33 L122 25 L108 20 L106 20 L108 20 L120 24 L135 28 L143 32 L148 32 L148 33 L147 30 L142 25 L135 19 L128 12 L121 5 L116 2 L112 0 L116 5 L127 16 L140 26 L150 36 L157 43 L158 44 " fill="none" stroke="black" /><path d="M163 39 L163 40 L162 42 L161 44 L160 45 L160 47 L160 46 L159 40 L154 29 L149 20 L147 12 L146 8 L146 7 L150 14 L154 22 L157 29 L157 32 L159 35 L159 36 L160 36 L161 29 L164 24 L166 18 L167 14 L167 12 L167 17 L167 24 L165 35 L164 40 L164 37 L174 28 L192 18 L200 11 L201 10 L204 8 L204 9 L200 15 L188 24 L176 35 L164 43 L160 47 L173 44 L212 35 L252 29 L259 28 L258 28 L251 32 L230 37 L212 39 L158 42 L156 42 L172 50 L204 74 L227 93 L230 99 L230 100 L225 98 L209 85 L185 69 L168 57 L160 51 L158 48 L156 45 L155 44 L154 48 L148 61 L135 80 L124 92 L118 96 L116 97 L118 94 L125 81 L133 68 L144 56 L153 50 L156 48 L158 48 L159 47 L158 47 L135 48 L63 53 L8 55 L1 55 L9 55 L37 54 L84 49 L120 46 L137 44 L141 44 L142 44 L143 44 L145 44 L149 44 L151 43 L152 43 L149 40 L136 33 L122 25 L108 20 L106 20 L108 20 L120 24 L135 28 L143 32 L148 32 L148 33 L147 30 L142 25 L135 19 L128 12 L121 5 L116 2 L112 0 L116 5 L127 16 L140 26 L150 36 L157 43 L158 44 M0 53 L5 53 L15 52 L22 51 L23 51 L27 50 L42 49 L56 49 L59 49 L60 49 L73 48 L108 45 L137 43 L152 41 " fill="none" stroke="black" /><circle cx="154" cy="1" fill="black" r="1" /></svg>