<?xml version="1.0" encoding="utf-8" ?>
<svg baseProfile="tiny" height="73" version="1.2" viewBox="-3 -3 103 73" width="103" xmlns="http://www.w3.org/2000/svg" xmlns:ev="http://www.w3.org/2001/xml-events" xmlns:xlink="http://www.w3.org/1999/xlink"><defs /><path d="M15 61 L11 53 L9 42 L9 33 L9 25 L11 19 L14 17 L16 16 L24 18 L31 24 L35 30 L35 37 L37 45 L37 53 L36 61 L36 66 L37 68 L39 69 L42 67 L45 62 L47 53 L48 43 L49 35 L48 28 L47 22 L47 18 L48 15 L49 15 L51 15 L53 16 L55 21 L56 25 L57 33 L57 38 L57 43 L57 49 L58 56 L59 61 L60 65 L61 66 L63 66 L64 66 L68 62 L72 55 L74 46 L74 38 L74 33 L74 27 L74 22 L75 20 L78 17 L79 16 L80 16 L83 16 L84 17 L85 21 L87 26 L87 32 L87 37 L87 41 L87 45 L87 48 L87 52 L87 56 L88 58 L90 60 L92 61 L94 62 L97 62 L99 62 L101 61 L103 55 L103 51 L103 44 L102 37 L100 30 L98 23 L95 17 L92 12 L87 7 L83 3 L75 0 L64 0 L51 1 L36 5 L26 9 L17 13 L11 20 L4 27 L1 33 L0 40 L0 48 L3 54 L7 61 L15 66 L27 70 L41 72 L52 73 L61 73 L66 73 L70 73 L74 71 L78 68 L83 65 L87 63 L88 62 L88 61 L91 61 L92 61 " fill="none" stroke="black" /></svg>