<?xml version="1.0" encoding="utf-8" ?>
<svg baseProfile="tiny" height="70" version="1.2" viewBox="-3 -3 158 70" width="158" xmlns="http://www.w3.org/2000/svg" xmlns:ev="http://www.w3.org/2001/xml-events" xmlns:xlink="http://www.w3.org/1999/xlink"><defs /><path d="M29 17 L28 17 L23 17 L14 19 L13 19 L14 20 L14 21 L9 25 L4 29 L7 29 L7 30 L7 31 L11 30 L13 30 L10 31 L1 34 L0 35 L4 35 L10 37 L10 38 L4 43 L3 46 L7 48 L12 49 L13 49 L13 51 L13 53 L19 53 L37 53 L39 53 L35 53 L28 57 L27 58 L27 59 L33 60 L33 61 L26 65 L24 68 L27 69 L44 68 L51 68 L44 70 L43 70 L50 70 L71 69 L89 68 L85 69 L72 69 L71 65 L79 58 L86 52 L88 49 L91 47 L124 40 L155 33 L158 30 L150 27 L135 27 L122 31 L119 31 L121 28 L120 27 L109 26 L103 26 L105 25 L112 20 L111 17 L96 17 L87 17 L90 17 L99 14 L99 13 L96 13 L91 13 L90 13 L91 10 L91 8 L91 6 L81 6 L71 6 L77 2 L80 1 L79 1 L70 1 L59 1 L60 0 L57 0 L45 1 L37 1 L36 1 L37 1 L32 2 L19 6 L12 9 L16 9 L19 8 L12 12 L7 15 L7 16 L11 16 L14 16 L12 17 L10 19 " fill="none" stroke="black" /><path d="M29 17 L28 17 L23 17 L14 19 L13 19 L14 20 L14 21 L9 25 L4 29 L7 29 L7 30 L7 31 L11 30 L13 30 L10 31 L1 34 L0 35 L4 35 L10 37 L10 38 L4 43 L3 46 L7 48 L12 49 L13 49 L13 51 L13 53 L19 53 L37 53 L39 53 L35 53 L28 57 L27 58 L27 59 L33 60 L33 61 L26 65 L24 68 L27 69 L44 68 L51 68 L44 70 L43 70 L50 70 L71 69 L89 68 L85 69 L72 69 L71 65 L79 58 L86 52 L88 49 L91 47 L124 40 L155 33 L158 30 L150 27 L135 27 L122 31 L119 31 L121 28 L120 27 L109 26 L103 26 L105 25 L112 20 L111 17 L96 17 L87 17 L90 17 L99 14 L99 13 L96 13 L91 13 L90 13 L91 10 L91 8 L91 6 L81 6 L71 6 L77 2 L80 1 L79 1 L70 1 L59 1 L60 0 L57 0 L45 1 L37 1 L36 1 L37 1 L32 2 L19 6 L12 9 L16 9 L19 8 L12 12 L7 15 L7 16 L11 16 L14 16 L12 17 L10 19 M48 21 L44 25 L41 27 L41 28 L41 30 L39 32 L39 33 L43 33 L45 33 L45 34 L45 35 L45 36 L45 37 L47 37 L53 37 L55 37 L56 37 L60 34 L63 34 L63 33 L64 32 L70 30 L72 28 L69 27 L67 26 L67 25 L67 24 L67 23 L67 22 L64 22 L60 22 L55 22 L54 22 L53 22 " fill="none" stroke="black" /></svg>