<?xml version="1.0" encoding="utf-8" ?>
<svg baseProfile="tiny" height="73" version="1.2" viewBox="-3 -3 224 73" width="224" xmlns="http://www.w3.org/2000/svg" xmlns:ev="http://www.w3.org/2001/xml-events" xmlns:xlink="http://www.w3.org/1999/xlink"><defs /><path d="M5 42 L7 35 L8 28 L10 24 L12 22 L13 21 L15 21 L18 23 L20 27 L21 31 L22 35 L22 43 L22 49 L24 55 L26 61 L28 64 L30 64 L32 64 L37 58 L42 48 L44 39 L45 31 L47 23 L48 19 L49 17 L50 17 L55 19 L60 24 L67 34 L73 43 L77 53 L81 59 L84 62 L85 62 L86 60 L88 52 L91 43 L91 33 L91 25 L91 21 L91 19 L92 19 L100 19 L110 21 L116 26 L120 34 L123 42 L124 51 L124 60 L128 68 L130 71 L131 70 L132 58 L132 51 L134 41 L135 31 L136 27 L136 24 L138 26 L148 31 L153 39 L156 50 L160 61 L160 67 L162 71 L164 73 L164 71 L167 62 L168 49 L168 39 L168 32 L168 27 L166 23 L169 24 L181 31 L189 39 L191 45 L192 50 L193 55 L195 57 L196 58 L196 57 L197 48 L197 42 L197 37 L196 32 L193 28 L190 25 L189 23 L191 27 L196 33 L198 39 L198 45 L194 51 L181 55 L161 59 L141 61 L120 63 L95 63 L71 62 L52 61 L33 60 L17 59 L12 59 L22 61 L48 63 L82 65 L120 66 L144 67 L159 67 L167 67 L161 66 L134 66 L91 65 L42 64 L12 63 L5 63 L7 63 L36 63 L89 62 L137 62 L176 61 L204 61 L218 59 L222 59 L224 59 " fill="none" stroke="black" /><path d="M5 42 L7 35 L8 28 L10 24 L12 22 L13 21 L15 21 L18 23 L20 27 L21 31 L22 35 L22 43 L22 49 L24 55 L26 61 L28 64 L30 64 L32 64 L37 58 L42 48 L44 39 L45 31 L47 23 L48 19 L49 17 L50 17 L55 19 L60 24 L67 34 L73 43 L77 53 L81 59 L84 62 L85 62 L86 60 L88 52 L91 43 L91 33 L91 25 L91 21 L91 19 L92 19 L100 19 L110 21 L116 26 L120 34 L123 42 L124 51 L124 60 L128 68 L130 71 L131 70 L132 58 L132 51 L134 41 L135 31 L136 27 L136 24 L138 26 L148 31 L153 39 L156 50 L160 61 L160 67 L162 71 L164 73 L164 71 L167 62 L168 49 L168 39 L168 32 L168 27 L166 23 L169 24 L181 31 L189 39 L191 45 L192 50 L193 55 L195 57 L196 58 L196 57 L197 48 L197 42 L197 37 L196 32 L193 28 L190 25 L189 23 L191 27 L196 33 L198 39 L198 45 L194 51 L181 55 L161 59 L141 61 L120 63 L95 63 L71 62 L52 61 L33 60 L17 59 L12 59 L22 61 L48 63 L82 65 L120 66 L144 67 L159 67 L167 67 L161 66 L134 66 L91 65 L42 64 L12 63 L5 63 L7 63 L36 63 L89 62 L137 62 L176 61 L204 61 L218 59 L222 59 L224 59 M212 53 L209 46 L202 34 L192 23 L176 15 L157 9 L139 4 L120 3 L101 2 L81 0 L64 0 L51 0 L36 3 L21 4 L8 8 L3 11 L0 14 L0 20 L1 28 L2 34 L4 39 L6 44 L8 48 L10 51 " fill="none" stroke="black" /></svg>