<?xml version="1.0" encoding="utf-8" ?>
<svg baseProfile="tiny" height="249" version="1.2" viewBox="-3 -3 440 249" width="440" xmlns="http://www.w3.org/2000/svg" xmlns:ev="http://www.w3.org/2001/xml-events" xmlns:xlink="http://www.w3.org/1999/xlink"><defs /><path d="M195 122 L195 121 L189 107 L171 75 L152 50 L147 42 L148 46 L171 77 L197 111 L203 126 L201 126 L195 118 L193 112 L195 101 L219 73 L253 38 L259 26 L255 31 L220 67 L186 101 L181 109 L202 94 L230 64 L245 46 L241 50 L214 79 L194 102 L187 111 L194 110 L207 104 L207 103 L197 110 L191 116 L198 118 L300 107 L425 92 L440 90 L418 90 L334 98 L239 113 L219 119 L231 118 L276 108 L287 104 L261 103 L193 110 L159 117 L179 118 L212 114 L219 112 L209 112 L198 117 L198 119 L196 125 L163 145 L89 172 L42 182 L45 182 L75 170 L138 149 L151 146 L139 146 L79 158 L11 175 L0 180 L10 178 L47 166 L92 154 L141 140 L162 130 L175 122 L181 122 L187 122 L207 120 L218 120 L217 123 L219 134 L243 170 L291 216 L315 240 L315 243 L303 237 L266 202 L221 162 L208 148 L210 146 L219 151 L223 157 L223 156 L211 129 L201 112 L201 110 L205 118 L206 122 L203 145 L184 182 L170 201 L168 203 L168 204 L171 186 L180 158 L193 131 L197 124 L197 123 L193 146 L179 186 L153 228 L150 249 L150 247 L159 212 L179 165 L192 138 L195 130 L197 126 L199 121 L194 119 L144 98 L71 72 L46 63 L48 64 L79 80 L125 98 L142 103 L139 102 L115 92 L83 84 L80 83 L101 93 L157 110 L199 120 L207 122 L203 116 L199 83 L196 35 L197 4 L198 0 L199 17 L201 46 L201 82 L204 97 L204 90 L203 80 L203 72 L204 62 L208 43 L207 24 L207 22 L207 42 L207 82 L203 98 " fill="none" stroke="black" /></svg>