<?xml version="1.0" encoding="utf-8" ?>
<svg baseProfile="tiny" height="6" version="1.2" viewBox="-3 -3 264 6" width="264" xmlns="http://www.w3.org/2000/svg" xmlns:ev="http://www.w3.org/2001/xml-events" xmlns:xlink="http://www.w3.org/1999/xlink"><defs /><path d="M16 4 L20 4 L22 4 L23 4 L24 4 L25 4 L28 4 L29 4 L31 4 L32 5 L34 5 L37 5 L39 5 L41 5 L44 5 L46 5 L48 5 L51 5 L54 5 L57 5 L60 5 L64 5 L66 5 L68 5 L70 5 L72 5 L75 5 L78 5 L80 5 L84 4 L87 4 L88 4 L91 4 L92 4 L96 4 L98 3 L101 3 L104 3 L106 3 L109 3 L112 3 L116 3 L119 3 L122 3 L127 3 L130 3 L133 3 L136 3 L140 3 L142 3 L145 3 L148 3 L152 3 L157 3 L164 3 L168 3 L172 3 L177 3 L181 3 L188 3 L195 3 L199 3 L203 3 L206 3 L208 3 L211 2 L214 2 L216 2 L219 2 L221 2 L224 2 L228 1 L232 1 L236 1 L238 1 L240 1 L244 1 L246 1 L250 1 L251 1 L253 0 L255 0 L257 0 L259 0 L260 0 L262 0 L263 0 L264 0 L262 0 L257 0 L252 0 L249 0 L245 0 L243 0 L242 0 L239 0 L236 0 L233 0 L228 0 L222 0 L216 0 L211 0 L207 0 L204 1 L201 1 L199 1 L196 1 L193 2 L188 2 L183 3 L176 3 L172 4 L168 4 L162 4 L158 4 L152 5 L147 5 L142 6 L135 6 L125 6 L118 6 L112 6 L105 6 L100 6 L93 6 L86 6 L81 6 L74 6 L67 6 L61 6 L56 6 L53 6 L48 6 L44 6 L43 6 L40 6 L39 6 L35 6 L32 6 L30 6 L27 6 L24 6 L20 6 L16 6 L12 6 L8 6 L7 6 L2 6 L0 6 " fill="none" stroke="black" /></svg>