<?xml version="1.0" encoding="utf-8" ?>
<svg baseProfile="tiny" height="42" version="1.2" viewBox="-3 -3 40 42" width="40" xmlns="http://www.w3.org/2000/svg" xmlns:ev="http://www.w3.org/2001/xml-events" xmlns:xlink="http://www.w3.org/1999/xlink"><defs /><path d="M19 23 L18 23 L16 24 L15 25 L15 26 L15 28 L15 29 L16 30 L17 30 L18 30 L19 31 L20 31 L21 31 L24 29 L24 27 L24 26 L25 25 L24 24 L24 23 L23 23 L22 23 " fill="none" stroke="black" /><path d="M19 23 L18 23 L16 24 L15 25 L15 26 L15 28 L15 29 L16 30 L17 30 L18 30 L19 31 L20 31 L21 31 L24 29 L24 27 L24 26 L25 25 L24 24 L24 23 L23 23 L22 23 M20 16 L19 16 L18 16 L16 16 L15 17 L13 18 L12 20 L11 20 L11 22 L11 24 L11 26 L12 28 L12 29 L14 31 L16 32 L16 33 L17 34 L19 34 L20 35 L21 35 L23 35 L24 35 L27 32 L28 29 L28 26 L27 22 L26 20 L25 18 L23 17 L21 16 L19 15 L16 15 L8 15 L3 16 L3 19 L3 22 L5 24 L8 27 L12 28 L15 30 L17 30 L20 30 L24 27 L26 18 L26 11 L24 8 L22 7 L19 7 L12 8 L8 12 L7 18 L8 24 L14 31 L20 35 L24 36 L29 35 L36 29 L40 20 L40 12 L40 6 L38 3 L35 1 L28 0 L20 0 L12 4 L8 8 L5 13 L4 20 L5 29 L10 36 L16 38 L24 38 L30 37 L36 31 L39 23 L40 17 L40 10 L37 8 L34 5 L27 4 L18 3 L12 3 L11 7 L10 14 L11 21 L14 25 L17 27 L23 26 L28 19 L32 12 L32 9 L31 8 L28 7 L23 7 L15 8 L7 13 L0 22 L0 31 L1 36 L5 41 L11 42 L20 42 L28 39 L35 31 L37 23 L39 14 L39 9 L37 5 L32 1 L26 0 L18 1 L8 8 L3 16 L2 26 L6 33 L16 40 L24 40 L29 38 L36 28 L39 17 L39 12 L38 8 L36 6 L30 6 L24 6 L19 7 L13 12 L12 16 L11 18 " fill="none" stroke="black" /></svg>