<?xml version="1.0" encoding="utf-8" ?>
<svg baseProfile="tiny" height="209" version="1.2" viewBox="-3 -3 262 209" width="262" xmlns="http://www.w3.org/2000/svg" xmlns:ev="http://www.w3.org/2001/xml-events" xmlns:xlink="http://www.w3.org/1999/xlink"><defs /><path d="M76 151 L80 180 L81 188 L82 188 L82 184 L84 153 L86 109 L90 67 L94 38 L96 27 L97 23 L97 21 L97 22 L100 43 L107 89 L121 143 L131 189 L134 201 L137 185 L146 132 L151 77 L154 41 L157 23 L159 15 L159 17 L160 32 L164 65 L172 114 L182 163 L185 190 L186 197 L188 183 L193 131 L197 68 L201 25 L205 10 L205 8 L206 15 L213 43 L227 96 L245 158 L260 201 L262 209 L262 207 L262 177 L262 113 L258 49 L257 17 L257 5 L257 4 L255 4 L243 5 L234 6 L230 7 L227 7 L224 7 L219 7 L214 8 L210 8 L204 8 L196 8 L188 7 L179 7 L170 6 L162 6 L154 5 L144 5 L130 5 L119 4 L111 3 L104 3 L98 3 L91 3 L83 2 L76 1 L67 1 L58 0 L49 0 L42 0 L38 0 L34 0 L30 0 L28 0 L26 0 L23 0 L22 0 L21 0 L18 1 L17 1 L14 2 L13 2 " fill="none" stroke="black" /><path d="M76 151 L80 180 L81 188 L82 188 L82 184 L84 153 L86 109 L90 67 L94 38 L96 27 L97 23 L97 21 L97 22 L100 43 L107 89 L121 143 L131 189 L134 201 L137 185 L146 132 L151 77 L154 41 L157 23 L159 15 L159 17 L160 32 L164 65 L172 114 L182 163 L185 190 L186 197 L188 183 L193 131 L197 68 L201 25 L205 10 L205 8 L206 15 L213 43 L227 96 L245 158 L260 201 L262 209 L262 207 L262 177 L262 113 L258 49 L257 17 L257 5 L257 4 L255 4 L243 5 L234 6 L230 7 L227 7 L224 7 L219 7 L214 8 L210 8 L204 8 L196 8 L188 7 L179 7 L170 6 L162 6 L154 5 L144 5 L130 5 L119 4 L111 3 L104 3 L98 3 L91 3 L83 2 L76 1 L67 1 L58 0 L49 0 L42 0 L38 0 L34 0 L30 0 L28 0 L26 0 L23 0 L22 0 L21 0 L18 1 L17 1 L14 2 L13 2 M0 177 L3 177 L22 181 L51 185 L79 189 L100 190 L117 192 L134 192 L152 194 L170 195 L188 195 L203 196 L219 197 L231 198 L239 199 L246 201 L247 201 L248 201 L250 202 L253 203 L254 203 L258 204 L262 204 " fill="none" stroke="black" /><path d="M76 151 L80 180 L81 188 L82 188 L82 184 L84 153 L86 109 L90 67 L94 38 L96 27 L97 23 L97 21 L97 22 L100 43 L107 89 L121 143 L131 189 L134 201 L137 185 L146 132 L151 77 L154 41 L157 23 L159 15 L159 17 L160 32 L164 65 L172 114 L182 163 L185 190 L186 197 L188 183 L193 131 L197 68 L201 25 L205 10 L205 8 L206 15 L213 43 L227 96 L245 158 L260 201 L262 209 L262 207 L262 177 L262 113 L258 49 L257 17 L257 5 L257 4 L255 4 L243 5 L234 6 L230 7 L227 7 L224 7 L219 7 L214 8 L210 8 L204 8 L196 8 L188 7 L179 7 L170 6 L162 6 L154 5 L144 5 L130 5 L119 4 L111 3 L104 3 L98 3 L91 3 L83 2 L76 1 L67 1 L58 0 L49 0 L42 0 L38 0 L34 0 L30 0 L28 0 L26 0 L23 0 L22 0 L21 0 L18 1 L17 1 L14 2 L13 2 M0 177 L3 177 L22 181 L51 185 L79 189 L100 190 L117 192 L134 192 L152 194 L170 195 L188 195 L203 196 L219 197 L231 198 L239 199 L246 201 L247 201 L248 201 L250 202 L253 203 L254 203 L258 204 L262 204 M9 0 L9 3 L9 14 L10 29 L12 44 L12 58 L12 67 L14 78 L14 88 L14 97 L14 106 L15 115 L14 122 L13 131 L10 139 L8 149 L8 155 L8 162 L8 169 L8 177 L9 181 L10 185 L10 186 " fill="none" stroke="black" /><path d="M76 151 L80 180 L81 188 L82 188 L82 184 L84 153 L86 109 L90 67 L94 38 L96 27 L97 23 L97 21 L97 22 L100 43 L107 89 L121 143 L131 189 L134 201 L137 185 L146 132 L151 77 L154 41 L157 23 L159 15 L159 17 L160 32 L164 65 L172 114 L182 163 L185 190 L186 197 L188 183 L193 131 L197 68 L201 25 L205 10 L205 8 L206 15 L213 43 L227 96 L245 158 L260 201 L262 209 L262 207 L262 177 L262 113 L258 49 L257 17 L257 5 L257 4 L255 4 L243 5 L234 6 L230 7 L227 7 L224 7 L219 7 L214 8 L210 8 L204 8 L196 8 L188 7 L179 7 L170 6 L162 6 L154 5 L144 5 L130 5 L119 4 L111 3 L104 3 L98 3 L91 3 L83 2 L76 1 L67 1 L58 0 L49 0 L42 0 L38 0 L34 0 L30 0 L28 0 L26 0 L23 0 L22 0 L21 0 L18 1 L17 1 L14 2 L13 2 M0 177 L3 177 L22 181 L51 185 L79 189 L100 190 L117 192 L134 192 L152 194 L170 195 L188 195 L203 196 L219 197 L231 198 L239 199 L246 201 L247 201 L248 201 L250 202 L253 203 L254 203 L258 204 L262 204 M9 0 L9 3 L9 14 L10 29 L12 44 L12 58 L12 67 L14 78 L14 88 L14 97 L14 106 L15 115 L14 122 L13 131 L10 139 L8 149 L8 155 L8 162 L8 169 L8 177 L9 181 L10 185 L10 186 M30 128 L30 125 L30 124 L28 121 L27 117 L26 113 L25 109 L24 106 L23 104 L22 102 L22 101 L22 99 L21 99 " fill="none" stroke="black" /></svg>