<?xml version="1.0" encoding="utf-8" ?>
<svg baseProfile="tiny" height="108" version="1.2" viewBox="-3 -3 368 108" width="368" xmlns="http://www.w3.org/2000/svg" xmlns:ev="http://www.w3.org/2001/xml-events" xmlns:xlink="http://www.w3.org/1999/xlink"><defs /><path d="M0 66 L1 65 L1 64 L2 63 L2 62 L3 62 L4 60 L8 55 L11 50 L13 47 L15 46 L15 45 L16 44 L17 43 L19 41 L21 39 L22 38 L23 36 L24 35 L25 34 L27 32 L30 30 L32 28 L35 26 L38 24 L40 22 L42 21 L44 20 L45 19 L47 18 L49 17 L51 16 L53 14 L56 12 L59 11 L63 9 L67 7 L71 6 L74 5 L75 5 L77 4 L78 4 L81 3 L84 2 L88 1 L93 1 L97 1 L100 0 L104 0 L108 0 L113 0 L118 0 L123 1 L128 3 L134 4 L140 6 L144 7 L147 9 L149 9 L150 9 L152 10 L154 12 L157 13 L160 15 L163 18 L166 21 L169 25 L171 29 L173 33 L174 40 L175 49 L174 60 L173 62 L171 63 L168 63 L162 63 L155 63 L147 60 L139 57 L130 56 L124 56 L118 56 L109 58 L101 61 L93 66 L87 72 L83 77 L80 82 L79 84 L79 85 L81 86 L93 87 L107 88 L123 88 L141 86 L154 82 L169 80 L181 80 L194 81 L206 84 L218 88 L225 91 L234 96 L240 100 L243 105 L244 107 L244 108 L245 106 L247 101 L249 93 L253 80 L255 66 L257 52 L257 44 L257 38 L257 32 L257 27 L259 22 L267 18 L276 18 L286 20 L293 24 L298 30 L303 38 L304 46 L305 54 L305 66 L302 79 L298 88 L295 92 L295 94 L296 94 L303 95 L311 97 L320 98 L330 98 L342 98 L354 91 L362 84 L366 75 L367 70 L368 67 L368 66 L368 60 L368 48 L368 39 L368 36 L368 35 L368 34 " fill="none" stroke="black" /></svg>