<?xml version="1.0" encoding="utf-8" ?>
<svg baseProfile="tiny" height="395" version="1.2" viewBox="-3 -3 749 395" width="749" xmlns="http://www.w3.org/2000/svg" xmlns:ev="http://www.w3.org/2001/xml-events" xmlns:xlink="http://www.w3.org/1999/xlink"><defs /><path d="M0 353 L39 310 L204 158 L296 85 L330 51 L338 41 " fill="none" stroke="black" /><path d="M0 353 L39 310 L204 158 L296 85 L330 51 L338 41 M140 363 L148 346 L173 320 L204 295 L232 278 L253 265 L270 254 L290 245 L314 237 L331 230 L347 221 L360 212 L372 201 L383 188 L395 172 L406 157 L415 140 L421 126 L427 106 L433 86 L436 68 L432 50 L418 33 L399 16 L379 8 L366 7 L357 7 L351 7 L349 8 " fill="none" stroke="black" /><path d="M0 353 L39 310 L204 158 L296 85 L330 51 L338 41 M140 363 L148 346 L173 320 L204 295 L232 278 L253 265 L270 254 L290 245 L314 237 L331 230 L347 221 L360 212 L372 201 L383 188 L395 172 L406 157 L415 140 L421 126 L427 106 L433 86 L436 68 L432 50 L418 33 L399 16 L379 8 L366 7 L357 7 L351 7 L349 8 M349 170 L347 171 L342 175 L334 182 L317 193 L300 203 L290 206 L286 206 L286 198 L288 189 L291 183 L291 182 L291 181 L291 176 L293 166 L299 154 L311 141 " fill="none" stroke="black" /><path d="M0 353 L39 310 L204 158 L296 85 L330 51 L338 41 M140 363 L148 346 L173 320 L204 295 L232 278 L253 265 L270 254 L290 245 L314 237 L331 230 L347 221 L360 212 L372 201 L383 188 L395 172 L406 157 L415 140 L421 126 L427 106 L433 86 L436 68 L432 50 L418 33 L399 16 L379 8 L366 7 L357 7 L351 7 L349 8 M349 170 L347 171 L342 175 L334 182 L317 193 L300 203 L290 206 L286 206 L286 198 L288 189 L291 183 L291 182 L291 181 L291 176 L293 166 L299 154 L311 141 M340 331 L318 342 L298 350 L287 352 L281 353 L282 349 L311 320 L363 276 L428 220 L490 154 L528 102 L560 49 L576 19 L583 5 L586 0 " fill="none" stroke="black" /><path d="M0 353 L39 310 L204 158 L296 85 L330 51 L338 41 M140 363 L148 346 L173 320 L204 295 L232 278 L253 265 L270 254 L290 245 L314 237 L331 230 L347 221 L360 212 L372 201 L383 188 L395 172 L406 157 L415 140 L421 126 L427 106 L433 86 L436 68 L432 50 L418 33 L399 16 L379 8 L366 7 L357 7 L351 7 L349 8 M349 170 L347 171 L342 175 L334 182 L317 193 L300 203 L290 206 L286 206 L286 198 L288 189 L291 183 L291 182 L291 181 L291 176 L293 166 L299 154 L311 141 M340 331 L318 342 L298 350 L287 352 L281 353 L282 349 L311 320 L363 276 L428 220 L490 154 L528 102 L560 49 L576 19 L583 5 L586 0 M430 304 L432 304 L447 292 L478 261 L522 220 L575 163 L593 138 L610 111 L614 103 L614 102 L607 106 L593 119 L584 138 L577 175 L556 233 L541 265 " fill="none" stroke="black" /><path d="M0 353 L39 310 L204 158 L296 85 L330 51 L338 41 M140 363 L148 346 L173 320 L204 295 L232 278 L253 265 L270 254 L290 245 L314 237 L331 230 L347 221 L360 212 L372 201 L383 188 L395 172 L406 157 L415 140 L421 126 L427 106 L433 86 L436 68 L432 50 L418 33 L399 16 L379 8 L366 7 L357 7 L351 7 L349 8 M349 170 L347 171 L342 175 L334 182 L317 193 L300 203 L290 206 L286 206 L286 198 L288 189 L291 183 L291 182 L291 181 L291 176 L293 166 L299 154 L311 141 M340 331 L318 342 L298 350 L287 352 L281 353 L282 349 L311 320 L363 276 L428 220 L490 154 L528 102 L560 49 L576 19 L583 5 L586 0 M430 304 L432 304 L447 292 L478 261 L522 220 L575 163 L593 138 L610 111 L614 103 L614 102 L607 106 L593 119 L584 138 L577 175 L556 233 L541 265 M607 323 L611 321 L583 322 L514 331 L450 341 L399 353 L348 368 L291 379 L261 383 L242 385 L239 385 L242 383 L261 377 L329 373 L416 374 L503 379 L564 380 L589 382 L602 386 L610 390 L614 395 " fill="none" stroke="black" /><path d="M0 353 L39 310 L204 158 L296 85 L330 51 L338 41 M140 363 L148 346 L173 320 L204 295 L232 278 L253 265 L270 254 L290 245 L314 237 L331 230 L347 221 L360 212 L372 201 L383 188 L395 172 L406 157 L415 140 L421 126 L427 106 L433 86 L436 68 L432 50 L418 33 L399 16 L379 8 L366 7 L357 7 L351 7 L349 8 M349 170 L347 171 L342 175 L334 182 L317 193 L300 203 L290 206 L286 206 L286 198 L288 189 L291 183 L291 182 L291 181 L291 176 L293 166 L299 154 L311 141 M340 331 L318 342 L298 350 L287 352 L281 353 L282 349 L311 320 L363 276 L428 220 L490 154 L528 102 L560 49 L576 19 L583 5 L586 0 M430 304 L432 304 L447 292 L478 261 L522 220 L575 163 L593 138 L610 111 L614 103 L614 102 L607 106 L593 119 L584 138 L577 175 L556 233 L541 265 M607 323 L611 321 L583 322 L514 331 L450 341 L399 353 L348 368 L291 379 L261 383 L242 385 L239 385 L242 383 L261 377 L329 373 L416 374 L503 379 L564 380 L589 382 L602 386 L610 390 L614 395 M695 61 L695 64 L692 89 L690 114 L690 132 L690 145 L690 166 L688 203 L675 251 L654 312 L645 340 L641 353 L640 358 L639 360 L639 361 L639 355 L651 325 L665 302 L678 289 L686 283 " fill="none" stroke="black" /><path d="M0 353 L39 310 L204 158 L296 85 L330 51 L338 41 M140 363 L148 346 L173 320 L204 295 L232 278 L253 265 L270 254 L290 245 L314 237 L331 230 L347 221 L360 212 L372 201 L383 188 L395 172 L406 157 L415 140 L421 126 L427 106 L433 86 L436 68 L432 50 L418 33 L399 16 L379 8 L366 7 L357 7 L351 7 L349 8 M349 170 L347 171 L342 175 L334 182 L317 193 L300 203 L290 206 L286 206 L286 198 L288 189 L291 183 L291 182 L291 181 L291 176 L293 166 L299 154 L311 141 M340 331 L318 342 L298 350 L287 352 L281 353 L282 349 L311 320 L363 276 L428 220 L490 154 L528 102 L560 49 L576 19 L583 5 L586 0 M430 304 L432 304 L447 292 L478 261 L522 220 L575 163 L593 138 L610 111 L614 103 L614 102 L607 106 L593 119 L584 138 L577 175 L556 233 L541 265 M607 323 L611 321 L583 322 L514 331 L450 341 L399 353 L348 368 L291 379 L261 383 L242 385 L239 385 L242 383 L261 377 L329 373 L416 374 L503 379 L564 380 L589 382 L602 386 L610 390 L614 395 M695 61 L695 64 L692 89 L690 114 L690 132 L690 145 L690 166 L688 203 L675 251 L654 312 L645 340 L641 353 L640 358 L639 360 L639 361 L639 355 L651 325 L665 302 L678 289 L686 283 M749 122 L749 142 L749 166 L749 197 L740 245 L719 291 L702 322 L695 338 L695 350 L698 359 L702 363 L703 366 L705 367 L715 366 L731 352 " fill="none" stroke="black" /></svg>