<?xml version="1.0" encoding="utf-8" ?>
<svg baseProfile="tiny" height="362" version="1.2" viewBox="-3 -3 422 362" width="422" xmlns="http://www.w3.org/2000/svg" xmlns:ev="http://www.w3.org/2001/xml-events" xmlns:xlink="http://www.w3.org/1999/xlink"><defs /><path d="M262 93 L258 90 L254 88 L251 86 L248 84 L242 82 L235 81 L223 79 L215 79 L206 78 L199 78 L192 77 L185 77 L174 77 L162 77 L149 78 L139 81 L129 83 L120 86 L113 87 L108 88 L102 90 L99 91 L94 93 L90 95 L85 96 L81 98 L77 99 L74 101 L70 103 L64 106 L60 108 L55 112 L51 115 L47 118 L41 124 L36 129 L32 132 L28 136 L25 139 L23 141 L21 143 L20 145 L19 147 L17 151 L14 155 L10 163 L7 170 L5 176 L3 185 L2 194 L1 207 L0 218 L0 231 L0 242 L2 252 L6 265 L10 278 L17 293 L25 309 L36 328 L47 343 L56 352 L68 358 L83 361 L99 362 L117 362 L136 362 L164 362 L182 362 L203 362 L221 362 L240 362 L256 360 L273 357 L288 353 L309 342 L323 330 L336 321 L348 312 L358 306 L367 301 L377 294 L385 285 L392 272 L399 255 L404 243 L409 231 L412 223 L415 212 L418 203 L419 194 L421 186 L422 171 L421 155 L414 121 L406 88 L399 63 L391 49 L383 40 L375 34 L367 29 L361 27 L352 23 L343 20 L335 18 L324 15 L312 12 L301 9 L287 5 L277 3 L268 2 L257 1 L248 1 L238 0 L229 0 L220 0 L209 0 L201 0 L192 1 L183 4 L176 7 L166 13 L157 17 L149 21 L140 25 L132 28 L126 31 L120 33 L114 37 L109 40 L106 44 L101 49 L96 55 L94 58 L91 63 L87 67 L85 71 L82 76 L79 83 L72 96 L67 107 L64 114 L62 119 L61 124 L60 128 L59 133 L59 137 L59 139 L59 140 " fill="none" stroke="black" /></svg>