<?xml version="1.0" encoding="utf-8" ?>
<svg baseProfile="tiny" height="422" version="1.2" viewBox="-3 -3 332 422" width="332" xmlns="http://www.w3.org/2000/svg" xmlns:ev="http://www.w3.org/2001/xml-events" xmlns:xlink="http://www.w3.org/1999/xlink"><defs /><path d="M12 44 L12 47 L11 53 L7 60 L3 64 L1 66 L1 67 L2 72 L3 76 L3 78 L3 79 L1 81 L0 82 L0 84 L0 87 L0 92 L1 96 L2 99 L4 103 L5 108 L7 113 L7 117 L7 119 L7 120 L7 123 L7 127 L7 133 L6 141 L6 152 L5 161 L4 171 L2 179 L2 185 L2 189 L2 193 L2 198 L2 204 L2 214 L3 225 L4 238 L5 251 L7 261 L10 274 L13 288 L15 303 L15 321 L17 331 L19 336 L20 337 " fill="none" stroke="black" /><path d="M12 44 L12 47 L11 53 L7 60 L3 64 L1 66 L1 67 L2 72 L3 76 L3 78 L3 79 L1 81 L0 82 L0 84 L0 87 L0 92 L1 96 L2 99 L4 103 L5 108 L7 113 L7 117 L7 119 L7 120 L7 123 L7 127 L7 133 L6 141 L6 152 L5 161 L4 171 L2 179 L2 185 L2 189 L2 193 L2 198 L2 204 L2 214 L3 225 L4 238 L5 251 L7 261 L10 274 L13 288 L15 303 L15 321 L17 331 L19 336 L20 337 M83 68 L83 78 L83 132 L83 208 L83 268 L83 312 L83 344 L83 357 L83 361 L83 360 " fill="none" stroke="black" /><path d="M12 44 L12 47 L11 53 L7 60 L3 64 L1 66 L1 67 L2 72 L3 76 L3 78 L3 79 L1 81 L0 82 L0 84 L0 87 L0 92 L1 96 L2 99 L4 103 L5 108 L7 113 L7 117 L7 119 L7 120 L7 123 L7 127 L7 133 L6 141 L6 152 L5 161 L4 171 L2 179 L2 185 L2 189 L2 193 L2 198 L2 204 L2 214 L3 225 L4 238 L5 251 L7 261 L10 274 L13 288 L15 303 L15 321 L17 331 L19 336 L20 337 M83 68 L83 78 L83 132 L83 208 L83 268 L83 312 L83 344 L83 357 L83 361 L83 360 M181 152 L181 227 L181 308 L181 374 L181 396 L184 408 L186 417 L188 421 L189 422 " fill="none" stroke="black" /><path d="M12 44 L12 47 L11 53 L7 60 L3 64 L1 66 L1 67 L2 72 L3 76 L3 78 L3 79 L1 81 L0 82 L0 84 L0 87 L0 92 L1 96 L2 99 L4 103 L5 108 L7 113 L7 117 L7 119 L7 120 L7 123 L7 127 L7 133 L6 141 L6 152 L5 161 L4 171 L2 179 L2 185 L2 189 L2 193 L2 198 L2 204 L2 214 L3 225 L4 238 L5 251 L7 261 L10 274 L13 288 L15 303 L15 321 L17 331 L19 336 L20 337 M83 68 L83 78 L83 132 L83 208 L83 268 L83 312 L83 344 L83 357 L83 361 L83 360 M181 152 L181 227 L181 308 L181 374 L181 396 L184 408 L186 417 L188 421 L189 422 M243 65 L243 68 L243 87 L246 133 L251 199 L254 244 L255 281 L258 319 L260 337 L262 345 L262 346 " fill="none" stroke="black" /><path d="M12 44 L12 47 L11 53 L7 60 L3 64 L1 66 L1 67 L2 72 L3 76 L3 78 L3 79 L1 81 L0 82 L0 84 L0 87 L0 92 L1 96 L2 99 L4 103 L5 108 L7 113 L7 117 L7 119 L7 120 L7 123 L7 127 L7 133 L6 141 L6 152 L5 161 L4 171 L2 179 L2 185 L2 189 L2 193 L2 198 L2 204 L2 214 L3 225 L4 238 L5 251 L7 261 L10 274 L13 288 L15 303 L15 321 L17 331 L19 336 L20 337 M83 68 L83 78 L83 132 L83 208 L83 268 L83 312 L83 344 L83 357 L83 361 L83 360 M181 152 L181 227 L181 308 L181 374 L181 396 L184 408 L186 417 L188 421 L189 422 M243 65 L243 68 L243 87 L246 133 L251 199 L254 244 L255 281 L258 319 L260 337 L262 345 L262 346 M328 40 L328 56 L329 90 L331 133 L331 186 L331 241 L331 285 L331 317 L331 342 L332 355 L332 360 L332 361 " fill="none" stroke="black" /><path d="M12 44 L12 47 L11 53 L7 60 L3 64 L1 66 L1 67 L2 72 L3 76 L3 78 L3 79 L1 81 L0 82 L0 84 L0 87 L0 92 L1 96 L2 99 L4 103 L5 108 L7 113 L7 117 L7 119 L7 120 L7 123 L7 127 L7 133 L6 141 L6 152 L5 161 L4 171 L2 179 L2 185 L2 189 L2 193 L2 198 L2 204 L2 214 L3 225 L4 238 L5 251 L7 261 L10 274 L13 288 L15 303 L15 321 L17 331 L19 336 L20 337 M83 68 L83 78 L83 132 L83 208 L83 268 L83 312 L83 344 L83 357 L83 361 L83 360 M181 152 L181 227 L181 308 L181 374 L181 396 L184 408 L186 417 L188 421 L189 422 M243 65 L243 68 L243 87 L246 133 L251 199 L254 244 L255 281 L258 319 L260 337 L262 345 L262 346 M328 40 L328 56 L329 90 L331 133 L331 186 L331 241 L331 285 L331 317 L331 342 L332 355 L332 360 L332 361 M156 0 L156 11 L156 40 L156 96 L155 166 L154 216 L152 246 L150 259 L149 261 " fill="none" stroke="black" /><path d="M12 44 L12 47 L11 53 L7 60 L3 64 L1 66 L1 67 L2 72 L3 76 L3 78 L3 79 L1 81 L0 82 L0 84 L0 87 L0 92 L1 96 L2 99 L4 103 L5 108 L7 113 L7 117 L7 119 L7 120 L7 123 L7 127 L7 133 L6 141 L6 152 L5 161 L4 171 L2 179 L2 185 L2 189 L2 193 L2 198 L2 204 L2 214 L3 225 L4 238 L5 251 L7 261 L10 274 L13 288 L15 303 L15 321 L17 331 L19 336 L20 337 M83 68 L83 78 L83 132 L83 208 L83 268 L83 312 L83 344 L83 357 L83 361 L83 360 M181 152 L181 227 L181 308 L181 374 L181 396 L184 408 L186 417 L188 421 L189 422 M243 65 L243 68 L243 87 L246 133 L251 199 L254 244 L255 281 L258 319 L260 337 L262 345 L262 346 M328 40 L328 56 L329 90 L331 133 L331 186 L331 241 L331 285 L331 317 L331 342 L332 355 L332 360 L332 361 M156 0 L156 11 L156 40 L156 96 L155 166 L154 216 L152 246 L150 259 L149 261 M73 2 L73 4 L73 19 L73 55 L73 118 L73 165 L71 191 L70 201 L70 203 " fill="none" stroke="black" /></svg>