<?xml version="1.0" encoding="utf-8" ?>
<svg baseProfile="tiny" height="338" version="1.2" viewBox="-3 -3 644 338" width="644" xmlns="http://www.w3.org/2000/svg" xmlns:ev="http://www.w3.org/2001/xml-events" xmlns:xlink="http://www.w3.org/1999/xlink"><defs /><path d="M2 286 L2 283 L1 272 L0 244 L0 220 L1 199 L4 184 L9 170 L15 156 L22 144 L30 133 L43 120 L65 106 L86 97 L109 90 L123 89 L133 88 L138 88 L140 88 " fill="none" stroke="black" /><path d="M2 286 L2 283 L1 272 L0 244 L0 220 L1 199 L4 184 L9 170 L15 156 L22 144 L30 133 L43 120 L65 106 L86 97 L109 90 L123 89 L133 88 L138 88 L140 88 M115 271 L113 271 L109 264 L106 251 L105 232 L111 210 L121 193 L134 182 L145 177 L159 174 L173 171 L182 170 L185 170 " fill="none" stroke="black" /><path d="M2 286 L2 283 L1 272 L0 244 L0 220 L1 199 L4 184 L9 170 L15 156 L22 144 L30 133 L43 120 L65 106 L86 97 L109 90 L123 89 L133 88 L138 88 L140 88 M115 271 L113 271 L109 264 L106 251 L105 232 L111 210 L121 193 L134 182 L145 177 L159 174 L173 171 L182 170 L185 170 M193 291 L193 286 L193 281 L193 275 L194 266 L199 258 L210 249 L225 244 L244 243 L254 243 L258 243 " fill="none" stroke="black" /><path d="M2 286 L2 283 L1 272 L0 244 L0 220 L1 199 L4 184 L9 170 L15 156 L22 144 L30 133 L43 120 L65 106 L86 97 L109 90 L123 89 L133 88 L138 88 L140 88 M115 271 L113 271 L109 264 L106 251 L105 232 L111 210 L121 193 L134 182 L145 177 L159 174 L173 171 L182 170 L185 170 M193 291 L193 286 L193 281 L193 275 L194 266 L199 258 L210 249 L225 244 L244 243 L254 243 L258 243 M292 308 L292 305 L293 300 L300 295 L308 292 L314 290 L316 290 L317 290 L319 290 " fill="none" stroke="black" /><path d="M2 286 L2 283 L1 272 L0 244 L0 220 L1 199 L4 184 L9 170 L15 156 L22 144 L30 133 L43 120 L65 106 L86 97 L109 90 L123 89 L133 88 L138 88 L140 88 M115 271 L113 271 L109 264 L106 251 L105 232 L111 210 L121 193 L134 182 L145 177 L159 174 L173 171 L182 170 L185 170 M193 291 L193 286 L193 281 L193 275 L194 266 L199 258 L210 249 L225 244 L244 243 L254 243 L258 243 M292 308 L292 305 L293 300 L300 295 L308 292 L314 290 L316 290 L317 290 L319 290 M349 338 L354 336 L365 335 L378 335 L384 335 L387 337 L388 337 " fill="none" stroke="black" /><path d="M2 286 L2 283 L1 272 L0 244 L0 220 L1 199 L4 184 L9 170 L15 156 L22 144 L30 133 L43 120 L65 106 L86 97 L109 90 L123 89 L133 88 L138 88 L140 88 M115 271 L113 271 L109 264 L106 251 L105 232 L111 210 L121 193 L134 182 L145 177 L159 174 L173 171 L182 170 L185 170 M193 291 L193 286 L193 281 L193 275 L194 266 L199 258 L210 249 L225 244 L244 243 L254 243 L258 243 M292 308 L292 305 L293 300 L300 295 L308 292 L314 290 L316 290 L317 290 L319 290 M349 338 L354 336 L365 335 L378 335 L384 335 L387 337 L388 337 M363 291 L373 291 L387 291 L405 297 L418 305 L427 314 L431 321 L433 324 L433 325 L431 323 " fill="none" stroke="black" /><path d="M2 286 L2 283 L1 272 L0 244 L0 220 L1 199 L4 184 L9 170 L15 156 L22 144 L30 133 L43 120 L65 106 L86 97 L109 90 L123 89 L133 88 L138 88 L140 88 M115 271 L113 271 L109 264 L106 251 L105 232 L111 210 L121 193 L134 182 L145 177 L159 174 L173 171 L182 170 L185 170 M193 291 L193 286 L193 281 L193 275 L194 266 L199 258 L210 249 L225 244 L244 243 L254 243 L258 243 M292 308 L292 305 L293 300 L300 295 L308 292 L314 290 L316 290 L317 290 L319 290 M349 338 L354 336 L365 335 L378 335 L384 335 L387 337 L388 337 M363 291 L373 291 L387 291 L405 297 L418 305 L427 314 L431 321 L433 324 L433 325 L431 323 M345 207 L367 207 L391 212 L417 223 L438 235 L455 250 L464 263 L470 279 L472 293 L474 302 L474 303 " fill="none" stroke="black" /><path d="M2 286 L2 283 L1 272 L0 244 L0 220 L1 199 L4 184 L9 170 L15 156 L22 144 L30 133 L43 120 L65 106 L86 97 L109 90 L123 89 L133 88 L138 88 L140 88 M115 271 L113 271 L109 264 L106 251 L105 232 L111 210 L121 193 L134 182 L145 177 L159 174 L173 171 L182 170 L185 170 M193 291 L193 286 L193 281 L193 275 L194 266 L199 258 L210 249 L225 244 L244 243 L254 243 L258 243 M292 308 L292 305 L293 300 L300 295 L308 292 L314 290 L316 290 L317 290 L319 290 M349 338 L354 336 L365 335 L378 335 L384 335 L387 337 L388 337 M363 291 L373 291 L387 291 L405 297 L418 305 L427 314 L431 321 L433 324 L433 325 L431 323 M345 207 L367 207 L391 212 L417 223 L438 235 L455 250 L464 263 L470 279 L472 293 L474 302 L474 303 M369 153 L379 153 L403 153 L439 167 L474 189 L497 208 L517 224 L532 241 L539 258 L542 267 L543 269 " fill="none" stroke="black" /><path d="M2 286 L2 283 L1 272 L0 244 L0 220 L1 199 L4 184 L9 170 L15 156 L22 144 L30 133 L43 120 L65 106 L86 97 L109 90 L123 89 L133 88 L138 88 L140 88 M115 271 L113 271 L109 264 L106 251 L105 232 L111 210 L121 193 L134 182 L145 177 L159 174 L173 171 L182 170 L185 170 M193 291 L193 286 L193 281 L193 275 L194 266 L199 258 L210 249 L225 244 L244 243 L254 243 L258 243 M292 308 L292 305 L293 300 L300 295 L308 292 L314 290 L316 290 L317 290 L319 290 M349 338 L354 336 L365 335 L378 335 L384 335 L387 337 L388 337 M363 291 L373 291 L387 291 L405 297 L418 305 L427 314 L431 321 L433 324 L433 325 L431 323 M345 207 L367 207 L391 212 L417 223 L438 235 L455 250 L464 263 L470 279 L472 293 L474 302 L474 303 M369 153 L379 153 L403 153 L439 167 L474 189 L497 208 L517 224 L532 241 L539 258 L542 267 L543 269 M451 76 L506 86 L524 95 L530 102 L530 111 " fill="none" stroke="black" /><path d="M2 286 L2 283 L1 272 L0 244 L0 220 L1 199 L4 184 L9 170 L15 156 L22 144 L30 133 L43 120 L65 106 L86 97 L109 90 L123 89 L133 88 L138 88 L140 88 M115 271 L113 271 L109 264 L106 251 L105 232 L111 210 L121 193 L134 182 L145 177 L159 174 L173 171 L182 170 L185 170 M193 291 L193 286 L193 281 L193 275 L194 266 L199 258 L210 249 L225 244 L244 243 L254 243 L258 243 M292 308 L292 305 L293 300 L300 295 L308 292 L314 290 L316 290 L317 290 L319 290 M349 338 L354 336 L365 335 L378 335 L384 335 L387 337 L388 337 M363 291 L373 291 L387 291 L405 297 L418 305 L427 314 L431 321 L433 324 L433 325 L431 323 M345 207 L367 207 L391 212 L417 223 L438 235 L455 250 L464 263 L470 279 L472 293 L474 302 L474 303 M369 153 L379 153 L403 153 L439 167 L474 189 L497 208 L517 224 L532 241 L539 258 L542 267 L543 269 M451 76 L506 86 L524 95 L530 102 L530 111 M525 97 L526 97 L533 99 L550 111 L568 128 L587 151 L603 171 L615 192 L627 218 L637 238 L643 249 L644 250 " fill="none" stroke="black" /><path d="M2 286 L2 283 L1 272 L0 244 L0 220 L1 199 L4 184 L9 170 L15 156 L22 144 L30 133 L43 120 L65 106 L86 97 L109 90 L123 89 L133 88 L138 88 L140 88 M115 271 L113 271 L109 264 L106 251 L105 232 L111 210 L121 193 L134 182 L145 177 L159 174 L173 171 L182 170 L185 170 M193 291 L193 286 L193 281 L193 275 L194 266 L199 258 L210 249 L225 244 L244 243 L254 243 L258 243 M292 308 L292 305 L293 300 L300 295 L308 292 L314 290 L316 290 L317 290 L319 290 M349 338 L354 336 L365 335 L378 335 L384 335 L387 337 L388 337 M363 291 L373 291 L387 291 L405 297 L418 305 L427 314 L431 321 L433 324 L433 325 L431 323 M345 207 L367 207 L391 212 L417 223 L438 235 L455 250 L464 263 L470 279 L472 293 L474 302 L474 303 M369 153 L379 153 L403 153 L439 167 L474 189 L497 208 L517 224 L532 241 L539 258 L542 267 L543 269 M451 76 L506 86 L524 95 L530 102 L530 111 M525 97 L526 97 L533 99 L550 111 L568 128 L587 151 L603 171 L615 192 L627 218 L637 238 L643 249 L644 250 M273 196 L275 196 L288 195 L304 195 L314 195 L322 195 L326 195 L327 195 " fill="none" stroke="black" /><path d="M2 286 L2 283 L1 272 L0 244 L0 220 L1 199 L4 184 L9 170 L15 156 L22 144 L30 133 L43 120 L65 106 L86 97 L109 90 L123 89 L133 88 L138 88 L140 88 M115 271 L113 271 L109 264 L106 251 L105 232 L111 210 L121 193 L134 182 L145 177 L159 174 L173 171 L182 170 L185 170 M193 291 L193 286 L193 281 L193 275 L194 266 L199 258 L210 249 L225 244 L244 243 L254 243 L258 243 M292 308 L292 305 L293 300 L300 295 L308 292 L314 290 L316 290 L317 290 L319 290 M349 338 L354 336 L365 335 L378 335 L384 335 L387 337 L388 337 M363 291 L373 291 L387 291 L405 297 L418 305 L427 314 L431 321 L433 324 L433 325 L431 323 M345 207 L367 207 L391 212 L417 223 L438 235 L455 250 L464 263 L470 279 L472 293 L474 302 L474 303 M369 153 L379 153 L403 153 L439 167 L474 189 L497 208 L517 224 L532 241 L539 258 L542 267 L543 269 M451 76 L506 86 L524 95 L530 102 L530 111 M525 97 L526 97 L533 99 L550 111 L568 128 L587 151 L603 171 L615 192 L627 218 L637 238 L643 249 L644 250 M273 196 L275 196 L288 195 L304 195 L314 195 L322 195 L326 195 L327 195 M249 119 L259 115 L270 113 L284 111 L301 111 L314 111 L321 113 L326 117 L329 122 L330 123 " fill="none" stroke="black" /><path d="M2 286 L2 283 L1 272 L0 244 L0 220 L1 199 L4 184 L9 170 L15 156 L22 144 L30 133 L43 120 L65 106 L86 97 L109 90 L123 89 L133 88 L138 88 L140 88 M115 271 L113 271 L109 264 L106 251 L105 232 L111 210 L121 193 L134 182 L145 177 L159 174 L173 171 L182 170 L185 170 M193 291 L193 286 L193 281 L193 275 L194 266 L199 258 L210 249 L225 244 L244 243 L254 243 L258 243 M292 308 L292 305 L293 300 L300 295 L308 292 L314 290 L316 290 L317 290 L319 290 M349 338 L354 336 L365 335 L378 335 L384 335 L387 337 L388 337 M363 291 L373 291 L387 291 L405 297 L418 305 L427 314 L431 321 L433 324 L433 325 L431 323 M345 207 L367 207 L391 212 L417 223 L438 235 L455 250 L464 263 L470 279 L472 293 L474 302 L474 303 M369 153 L379 153 L403 153 L439 167 L474 189 L497 208 L517 224 L532 241 L539 258 L542 267 L543 269 M451 76 L506 86 L524 95 L530 102 L530 111 M525 97 L526 97 L533 99 L550 111 L568 128 L587 151 L603 171 L615 192 L627 218 L637 238 L643 249 L644 250 M273 196 L275 196 L288 195 L304 195 L314 195 L322 195 L326 195 L327 195 M249 119 L259 115 L270 113 L284 111 L301 111 L314 111 L321 113 L326 117 L329 122 L330 123 M215 36 L215 34 L217 29 L228 21 L253 8 L282 0 L314 0 L344 3 L368 12 L386 21 L398 29 " fill="none" stroke="black" /></svg>