<?xml version="1.0" encoding="utf-8" ?>
<svg baseProfile="tiny" height="245" version="1.2" viewBox="-3 -3 330 245" width="330" xmlns="http://www.w3.org/2000/svg" xmlns:ev="http://www.w3.org/2001/xml-events" xmlns:xlink="http://www.w3.org/1999/xlink"><defs /><path d="M0 103 L2 104 L6 104 L11 103 L14 102 L20 101 L27 98 L33 97 L37 97 L40 97 L44 101 L47 108 L48 116 L50 122 L50 123 L51 124 L54 125 L57 125 L62 123 L69 121 L72 121 L74 121 L75 122 L77 123 L88 125 L99 126 L103 126 L100 122 L96 114 L96 110 L103 107 L110 104 L112 97 L111 90 L107 80 L108 73 L115 70 L122 68 L123 65 L116 54 L111 45 L110 41 L112 40 L116 40 L118 40 L115 28 L113 14 L115 3 L125 0 L135 0 L139 0 L140 0 L142 0 L155 0 L170 13 L179 24 L180 30 L178 31 L178 34 L181 45 L187 62 L187 74 L181 78 L180 80 L180 82 L181 87 L182 94 L173 101 L163 106 L161 108 L161 113 L161 123 L157 134 L142 145 L133 149 L130 152 L132 159 L134 170 L128 184 L115 193 L109 199 L113 207 L125 214 L134 217 L136 217 L139 217 L148 215 L163 211 L177 204 L180 189 L178 180 L177 177 L178 174 L182 170 L183 166 L177 159 L172 150 L181 144 L201 142 L210 142 L208 138 L202 130 L200 120 L204 115 L212 112 L214 109 L214 100 L210 83 L210 73 L218 68 L224 64 L226 56 L226 40 L225 25 L226 14 L238 13 L248 19 L255 27 L258 31 L258 32 L258 34 L261 56 L285 95 L303 118 L304 123 L290 125 L278 128 L272 141 L278 161 L283 176 L277 187 L239 193 L223 197 L219 204 L219 217 L215 232 L209 240 L207 242 L210 243 L235 245 L250 245 L256 245 L257 242 L262 232 L288 226 L313 226 L328 229 L330 229 L330 227 L330 226 " fill="none" stroke="black" /></svg>