<?xml version="1.0" encoding="utf-8" ?>
<svg baseProfile="tiny" height="261" version="1.2" viewBox="-3 -3 739 261" width="739" xmlns="http://www.w3.org/2000/svg" xmlns:ev="http://www.w3.org/2001/xml-events" xmlns:xlink="http://www.w3.org/1999/xlink"><defs /><path d="M97 5 L99 8 L108 0 L61 58 L49 83 L75 55 L18 142 L22 161 L53 110 L16 160 L0 216 L58 139 L66 117 L57 146 L76 124 L72 130 L74 150 L88 136 L86 140 L93 141 L110 119 L115 116 L130 112 L145 92 L141 99 L142 107 L149 104 L143 124 L148 135 L159 124 L157 131 L171 128 L181 123 L154 173 L173 173 L200 142 L194 152 L200 164 L233 137 L218 163 L239 158 L274 116 L261 144 L248 187 L276 161 L288 153 L282 178 L292 165 L298 166 L290 192 L331 137 L358 98 L335 141 L326 165 L335 160 L344 155 L346 161 L345 168 L345 173 L339 189 L350 176 L359 166 L353 176 L373 152 L396 131 L397 141 L396 152 L400 165 L397 180 L399 182 L401 182 L399 190 L417 172 L426 163 L420 180 L432 179 L442 178 L422 214 L467 166 L502 126 L494 142 L476 173 L499 148 L509 138 L502 152 L508 148 L508 153 L498 174 L507 171 L516 168 L502 193 L509 203 L517 197 L517 201 L546 180 L565 162 L556 172 L556 177 L569 167 L562 181 L565 191 L579 177 L586 173 L587 180 L588 180 L588 189 L587 205 L587 191 L583 214 L583 211 L584 202 L564 238 L545 261 L543 219 L537 203 L538 192 L587 119 L615 97 L625 109 L619 142 L623 157 L646 143 L636 191 L624 229 L629 233 L636 231 L636 232 L639 233 L639 240 L631 255 L643 242 L659 225 L664 223 L673 223 L683 219 L687 217 L688 217 L691 216 L695 215 L695 214 L717 177 L729 164 L734 168 L736 182 L738 182 L739 186 L737 194 L731 207 L731 209 " fill="none" stroke="black" /></svg>