<?xml version="1.0" encoding="utf-8" ?>
<svg baseProfile="tiny" height="99" version="1.2" viewBox="-3 -3 831 99" width="831" xmlns="http://www.w3.org/2000/svg" xmlns:ev="http://www.w3.org/2001/xml-events" xmlns:xlink="http://www.w3.org/1999/xlink"><defs /><path d="M0 28 L3 28 L9 28 L18 28 L28 28 L38 28 L52 28 L62 28 L73 28 L85 28 L100 28 L115 28 L134 28 L155 28 L184 28 L207 28 L220 27 L221 27 L224 27 L229 27 L236 27 L248 27 L261 27 L277 27 L298 24 L322 22 L345 18 L373 16 L391 14 L409 13 L423 12 L438 11 L449 11 L460 11 L472 11 L486 12 L492 13 L494 13 L498 13 L507 11 L524 7 L542 4 L560 4 L569 4 L579 4 L588 4 L598 4 L607 4 L616 4 L628 4 L647 4 L659 3 L665 1 L665 0 L666 0 L670 0 L677 0 L688 0 L700 1 L712 1 L722 1 L734 1 L743 1 L752 1 L760 1 L769 2 L778 3 L787 4 L796 6 L804 8 L810 9 L815 11 L817 12 L819 13 L820 13 L822 13 L823 14 L825 15 L827 16 L828 16 L828 17 L829 17 L830 18 L831 18 " fill="none" stroke="black" /><path d="M0 28 L3 28 L9 28 L18 28 L28 28 L38 28 L52 28 L62 28 L73 28 L85 28 L100 28 L115 28 L134 28 L155 28 L184 28 L207 28 L220 27 L221 27 L224 27 L229 27 L236 27 L248 27 L261 27 L277 27 L298 24 L322 22 L345 18 L373 16 L391 14 L409 13 L423 12 L438 11 L449 11 L460 11 L472 11 L486 12 L492 13 L494 13 L498 13 L507 11 L524 7 L542 4 L560 4 L569 4 L579 4 L588 4 L598 4 L607 4 L616 4 L628 4 L647 4 L659 3 L665 1 L665 0 L666 0 L670 0 L677 0 L688 0 L700 1 L712 1 L722 1 L734 1 L743 1 L752 1 L760 1 L769 2 L778 3 L787 4 L796 6 L804 8 L810 9 L815 11 L817 12 L819 13 L820 13 L822 13 L823 14 L825 15 L827 16 L828 16 L828 17 L829 17 L830 18 L831 18 M15 99 L22 98 L31 97 L44 95 L56 95 L66 94 L78 92 L90 91 L102 89 L116 88 L130 86 L146 85 L169 81 L196 77 L228 71 L257 67 L286 64 L310 63 L329 63 L340 63 L343 62 L349 62 L361 60 L378 57 L398 54 L417 51 L444 49 L470 46 L494 45 L513 45 L530 45 L535 45 L538 45 L547 44 L565 41 L586 38 L609 35 L627 33 L646 33 L659 33 L672 33 L683 33 L692 34 L703 35 L713 37 L722 39 L734 41 L742 42 L751 43 L759 44 L768 44 L774 45 L778 45 L782 46 L785 47 L788 47 L791 47 L794 47 L796 47 L799 47 L802 47 L805 47 L807 47 L807 48 " fill="none" stroke="black" /></svg>