<?xml version="1.0" encoding="utf-8" ?>
<svg baseProfile="tiny" height="266" version="1.2" viewBox="-3 -3 623 266" width="623" xmlns="http://www.w3.org/2000/svg" xmlns:ev="http://www.w3.org/2001/xml-events" xmlns:xlink="http://www.w3.org/1999/xlink"><defs /><path d="M87 3 L84 2 L80 1 L76 0 L71 0 L68 0 L65 0 L61 0 L55 1 L49 4 L44 6 L40 8 L35 10 L30 12 L27 14 L24 15 L22 17 L20 18 L19 19 L18 21 L16 23 L14 26 L12 30 L10 32 L10 34 L8 38 L6 43 L4 47 L3 53 L2 58 L1 64 L0 70 L0 75 L0 81 L1 84 L8 85 L31 73 L43 68 L47 68 L47 77 L47 92 L47 111 L50 125 L66 136 L80 140 L94 143 L118 145 L152 150 L178 156 L190 165 L194 190 L207 209 L217 212 L231 213 L243 210 L252 205 L257 201 L260 190 L263 179 L273 163 L282 154 L291 147 L297 143 L297 141 L293 136 L288 131 L287 125 L294 117 L302 112 L309 108 L311 104 L311 100 L311 96 L310 91 L310 85 L311 77 L317 73 L320 72 L320 71 L312 67 L301 62 L294 59 L292 59 L291 59 L287 59 L274 59 L254 60 L233 64 L227 66 L227 67 L228 70 L226 76 L201 89 L173 97 L160 101 L157 106 L158 114 L162 123 L163 132 L145 140 L124 148 L117 155 L126 179 L152 228 L166 253 L172 264 L172 266 L164 266 L157 266 L155 266 L166 266 L206 266 L261 266 L323 257 L399 226 L442 204 L482 190 L508 184 L520 178 L528 170 L532 162 L534 154 L534 135 L519 110 L507 87 L504 73 L509 60 L524 55 L542 55 L558 69 L570 83 L575 90 L577 93 L580 103 L584 120 L586 142 L585 154 L577 165 L560 180 L555 195 L556 207 L567 212 L582 213 L596 211 L607 207 L616 199 L620 194 L621 192 L622 191 L623 191 " fill="none" stroke="black" /></svg>