<?xml version="1.0" encoding="utf-8" ?>
<svg baseProfile="tiny" height="257" version="1.2" viewBox="-3 -3 373 257" width="373" xmlns="http://www.w3.org/2000/svg" xmlns:ev="http://www.w3.org/2001/xml-events" xmlns:xlink="http://www.w3.org/1999/xlink"><defs /><path d="M0 120 L2 113 L4 108 L8 103 L15 98 L20 94 L24 92 L27 90 L33 86 L39 83 L43 81 L47 80 L50 79 L54 78 L59 76 L66 75 L74 74 L81 74 L90 74 L99 74 L111 74 L124 75 L134 77 L143 79 L155 83 L164 86 L171 90 L178 93 L185 97 L191 101 L198 105 L205 111 L215 120 L223 129 L229 140 L234 152 L238 163 L241 170 L243 176 L243 182 L243 192 L243 199 L243 205 L242 211 L241 215 L240 218 L239 220 L238 222 " fill="none" stroke="black" /><path d="M0 120 L2 113 L4 108 L8 103 L15 98 L20 94 L24 92 L27 90 L33 86 L39 83 L43 81 L47 80 L50 79 L54 78 L59 76 L66 75 L74 74 L81 74 L90 74 L99 74 L111 74 L124 75 L134 77 L143 79 L155 83 L164 86 L171 90 L178 93 L185 97 L191 101 L198 105 L205 111 L215 120 L223 129 L229 140 L234 152 L238 163 L241 170 L243 176 L243 182 L243 192 L243 199 L243 205 L242 211 L241 215 L240 218 L239 220 L238 222 M218 176 L212 171 L197 163 L174 149 L160 142 L143 137 L123 131 L106 127 L94 127 L85 127 L80 128 L77 130 L73 137 L71 145 L70 155 L69 167 L69 182 L70 195 L75 207 L82 219 L87 227 L94 234 L102 240 L113 245 L126 249 L140 252 L156 255 L175 257 L187 257 L199 255 L209 252 L216 249 L218 245 L220 241 L220 236 L220 230 L218 224 L216 220 L210 216 L199 209 L189 201 L176 192 L161 185 L145 179 L135 178 L128 178 L125 178 L123 178 L122 178 " fill="none" stroke="black" /><path d="M0 120 L2 113 L4 108 L8 103 L15 98 L20 94 L24 92 L27 90 L33 86 L39 83 L43 81 L47 80 L50 79 L54 78 L59 76 L66 75 L74 74 L81 74 L90 74 L99 74 L111 74 L124 75 L134 77 L143 79 L155 83 L164 86 L171 90 L178 93 L185 97 L191 101 L198 105 L205 111 L215 120 L223 129 L229 140 L234 152 L238 163 L241 170 L243 176 L243 182 L243 192 L243 199 L243 205 L242 211 L241 215 L240 218 L239 220 L238 222 M218 176 L212 171 L197 163 L174 149 L160 142 L143 137 L123 131 L106 127 L94 127 L85 127 L80 128 L77 130 L73 137 L71 145 L70 155 L69 167 L69 182 L70 195 L75 207 L82 219 L87 227 L94 234 L102 240 L113 245 L126 249 L140 252 L156 255 L175 257 L187 257 L199 255 L209 252 L216 249 L218 245 L220 241 L220 236 L220 230 L218 224 L216 220 L210 216 L199 209 L189 201 L176 192 L161 185 L145 179 L135 178 L128 178 L125 178 L123 178 L122 178 M114 38 L121 38 L131 38 L150 41 L168 50 L195 65 L225 87 L247 109 L264 133 L276 163 L285 201 L289 235 L290 249 L290 252 L290 253 L290 246 L290 226 L290 210 L290 196 L289 183 L286 167 L280 146 L269 117 L258 97 L244 83 L218 63 L186 41 L155 19 L138 6 L132 1 L131 0 L141 0 L186 0 L233 8 L274 25 L305 44 L329 66 L346 87 L359 111 L367 142 L368 157 L365 171 L361 187 L357 202 L354 215 L354 222 L354 225 L354 224 L360 215 L368 203 L372 195 L373 192 L373 191 " fill="none" stroke="black" /></svg>