<?xml version="1.0" encoding="utf-8" ?>
<svg baseProfile="tiny" height="60" version="1.2" viewBox="-3 -3 843 60" width="843" xmlns="http://www.w3.org/2000/svg" xmlns:ev="http://www.w3.org/2001/xml-events" xmlns:xlink="http://www.w3.org/1999/xlink"><defs /><path d="M0 40 L0 41 L0 42 L1 43 L2 44 L2 45 L3 46 L4 47 L6 48 L7 48 L8 49 L9 49 L11 50 L13 50 L15 51 L17 51 L19 52 L20 52 L22 52 L24 52 L25 52 L27 52 L29 52 L31 52 L35 52 L39 51 L42 50 L46 50 L49 49 L52 48 L57 46 L62 43 L69 39 L77 35 L84 31 L91 27 L98 24 L106 21 L113 17 L120 14 L130 12 L140 10 L149 8 L156 7 L161 7 L167 6 L173 4 L177 2 L184 1 L189 1 L195 1 L199 1 L204 0 L208 0 L214 0 L217 1 L224 2 L229 3 L233 4 L237 5 L241 6 L246 7 L251 9 L256 11 L264 14 L271 18 L278 21 L282 24 L287 28 L294 32 L298 33 L306 37 L311 39 L316 41 L322 43 L329 45 L336 48 L343 51 L350 53 L354 54 L359 54 L366 53 L375 51 L388 48 L403 44 L415 42 L428 39 L436 38 L443 38 L448 37 L453 37 L458 35 L464 33 L471 31 L482 30 L492 29 L501 27 L511 26 L521 25 L531 25 L544 25 L553 25 L564 26 L572 28 L580 32 L589 37 L597 42 L603 47 L608 51 L613 54 L618 57 L623 58 L632 60 L651 60 L665 60 L669 60 L678 58 L690 56 L698 54 L709 52 L719 51 L728 50 L741 50 L752 50 L760 51 L772 53 L780 54 L789 56 L795 58 L801 59 L807 59 L813 59 L821 59 L830 57 L836 55 L840 52 L843 50 L843 48 " fill="none" stroke="black" /></svg>