<?xml version="1.0" encoding="utf-8" ?>
<svg baseProfile="tiny" height="34" version="1.2" viewBox="-3 -3 669 34" width="669" xmlns="http://www.w3.org/2000/svg" xmlns:ev="http://www.w3.org/2001/xml-events" xmlns:xlink="http://www.w3.org/1999/xlink"><defs /><path d="M0 12 L0 13 L0 15 L1 16 L2 18 L3 19 L4 20 L5 21 L6 22 L6 23 L7 23 L8 23 L9 23 L10 23 L11 23 L12 23 L13 23 L14 23 L15 23 L17 22 L20 21 L22 20 L24 20 L26 19 L27 19 L30 19 L33 19 L35 19 L38 21 L42 22 L46 23 L51 23 L56 23 L60 21 L66 17 L71 14 L74 12 L77 12 L80 12 L84 14 L89 16 L95 17 L102 19 L109 20 L117 17 L125 10 L132 4 L137 0 L143 0 L150 0 L159 5 L165 9 L172 13 L179 16 L186 17 L193 17 L197 16 L200 16 L212 17 L223 20 L232 21 L239 22 L244 23 L250 24 L256 24 L265 23 L271 19 L276 18 L279 17 L283 18 L287 20 L293 21 L298 21 L303 22 L309 26 L316 32 L322 34 L328 34 L334 29 L342 28 L344 28 L345 29 L352 28 L366 24 L376 21 L381 21 L386 26 L390 29 L394 29 L397 29 L399 29 L402 31 L404 33 L407 33 L411 30 L414 29 L417 32 L420 34 L424 34 L428 30 L432 29 L437 29 L441 30 L446 31 L450 28 L454 28 L459 28 L464 31 L467 31 L474 29 L480 27 L486 27 L491 28 L499 28 L507 25 L515 23 L519 23 L523 26 L529 29 L532 31 L534 31 L534 32 L535 32 L536 32 L546 32 L560 30 L568 30 L571 30 L574 30 L575 29 L578 29 L587 27 L595 25 L599 24 L602 24 L609 25 L610 25 L613 28 L618 31 L623 32 L629 29 L633 27 L637 27 L640 28 L647 30 L657 26 L663 18 L665 16 L667 15 L669 17 " fill="none" stroke="black" /></svg>