<?xml version="1.0" encoding="utf-8" ?>
<svg baseProfile="tiny" height="239" version="1.2" viewBox="-3 -3 272 239" width="272" xmlns="http://www.w3.org/2000/svg" xmlns:ev="http://www.w3.org/2001/xml-events" xmlns:xlink="http://www.w3.org/1999/xlink"><defs /><path d="M2 0 L2 1 L2 2 L2 3 L2 4 L2 5 L2 7 L1 7 L1 8 L1 10 L1 11 L1 13 L1 14 L1 15 L0 16 L0 18 L0 20 L0 22 L0 25 L0 27 L0 29 L0 31 L0 34 L0 37 L0 39 L0 43 L0 46 L1 49 L1 52 L2 54 L3 58 L4 61 L5 64 L7 68 L11 71 L15 75 L18 78 L23 81 L28 83 L33 84 L37 85 L44 85 L49 85 L52 85 L55 84 L58 81 L60 79 L61 79 L62 78 L64 77 L65 77 L67 76 L70 76 L72 75 L74 74 L76 73 L77 72 L78 71 L80 70 L80 69 L82 67 L82 65 L82 63 L83 61 L84 58 L84 57 L84 56 L83 54 L81 52 L79 51 L76 51 L70 53 L64 57 L61 60 L59 64 L58 69 L57 80 L57 88 L66 92 L84 93 L103 86 L112 77 L106 62 L80 49 L59 46 L57 49 L68 61 L84 71 L97 72 L103 66 L99 56 L92 53 L89 62 L96 85 L115 106 L128 113 L134 113 L130 103 L123 95 L120 95 L121 105 L130 116 L141 119 L150 119 L153 112 L153 108 L150 108 L148 117 L153 131 L163 137 L167 138 L168 137 L163 134 L160 134 L160 140 L168 149 L183 152 L191 150 L193 145 L190 142 L185 143 L184 155 L185 165 L196 172 L212 172 L217 168 L215 164 L212 163 L211 164 L212 171 L220 181 L231 184 L237 181 L238 175 L235 171 L232 171 L231 175 L233 186 L247 198 L262 204 L265 204 L265 203 L260 201 L259 201 L259 212 L260 225 L264 236 L268 239 L271 236 L272 234 " fill="none" stroke="black" /></svg>