<?xml version="1.0" encoding="utf-8" ?>
<svg baseProfile="tiny" height="257" version="1.2" viewBox="-3 -3 231 257" width="231" xmlns="http://www.w3.org/2000/svg" xmlns:ev="http://www.w3.org/2001/xml-events" xmlns:xlink="http://www.w3.org/1999/xlink"><defs /><path d="M58 162 L60 164 L60 166 L59 166 L54 160 L54 135 L72 120 L100 122 L106 134 L104 142 L93 136 L91 108 L107 93 L131 113 L137 150 L126 172 L118 158 L128 122 L161 112 L184 141 L186 172 L172 187 L149 179 L142 162 L159 172 L168 209 L162 239 L139 245 L115 208 L111 185 L121 188 L125 214 L112 227 L85 220 L69 183 L72 164 L85 169 L87 194 L66 216 L31 208 L25 182 L31 175 L39 186 L34 207 L17 211 L0 175 L3 105 L32 88 L53 91 L57 100 L55 103 L44 68 L49 40 L78 34 L98 64 L101 99 L93 105 L88 91 L98 81 L116 86 L126 108 L126 120 L118 111 L116 82 L138 67 L156 81 L163 113 L160 127 L154 118 L155 96 L181 91 L203 120 L206 157 L187 175 L171 172 L177 163 L197 167 L211 193 L209 224 L179 239 L168 230 L166 222 L172 228 L172 245 L154 257 L118 242 L99 209 L95 187 L99 207 L84 234 L59 240 L42 222 L34 189 L37 173 L44 172 L42 185 L27 189 L5 162 L3 124 L22 109 L41 108 L46 119 L43 125 L35 114 L44 84 L70 79 L82 88 L83 97 L72 88 L70 38 L113 0 L158 7 L165 35 L166 50 L164 51 L169 48 L177 48 L180 59 L182 73 L183 80 L184 82 L187 87 L188 94 L174 99 L154 99 L148 92 L164 85 L212 107 L231 143 L230 169 L225 174 " fill="none" stroke="black" /></svg>