<?xml version="1.0" encoding="utf-8" ?>
<svg baseProfile="tiny" height="175" version="1.2" viewBox="-3 -3 547 175" width="547" xmlns="http://www.w3.org/2000/svg" xmlns:ev="http://www.w3.org/2001/xml-events" xmlns:xlink="http://www.w3.org/1999/xlink"><defs /><path d="M0 87 L0 86 L0 87 L0 86 L2 83 L3 83 L3 88 L3 89 L5 89 L5 93 L5 100 L7 101 L15 94 L18 92 L18 98 L20 99 L23 95 L24 95 L25 95 L29 95 L31 96 L31 98 L32 95 L32 101 L35 98 L40 90 L40 92 L41 91 L43 90 L42 95 L46 90 L46 94 L45 97 L47 95 L47 101 L52 97 L55 97 L48 119 L53 117 L56 116 L56 123 L60 117 L63 114 L64 114 L67 114 L69 116 L76 114 L80 109 L81 111 L82 112 L86 110 L87 116 L90 122 L95 119 L96 124 L103 124 L109 119 L108 122 L109 122 L113 119 L109 136 L112 137 L115 135 L115 139 L118 137 L121 135 L116 147 L120 144 L127 140 L127 146 " fill="none" stroke="black" /><path d="M0 87 L0 86 L0 87 L0 86 L2 83 L3 83 L3 88 L3 89 L5 89 L5 93 L5 100 L7 101 L15 94 L18 92 L18 98 L20 99 L23 95 L24 95 L25 95 L29 95 L31 96 L31 98 L32 95 L32 101 L35 98 L40 90 L40 92 L41 91 L43 90 L42 95 L46 90 L46 94 L45 97 L47 95 L47 101 L52 97 L55 97 L48 119 L53 117 L56 116 L56 123 L60 117 L63 114 L64 114 L67 114 L69 116 L76 114 L80 109 L81 111 L82 112 L86 110 L87 116 L90 122 L95 119 L96 124 L103 124 L109 119 L108 122 L109 122 L113 119 L109 136 L112 137 L115 135 L115 139 L118 137 L121 135 L116 147 L120 144 L127 140 L127 146 M190 98 L190 97 L190 105 L189 108 L191 111 L197 112 L212 94 L222 88 L222 95 L225 92 L229 102 L229 111 L231 109 L230 124 L225 138 L230 130 L234 138 L229 157 L241 141 L250 145 L245 169 L255 158 L266 154 L265 175 L274 174 L287 163 L289 169 " fill="none" stroke="black" /><path d="M0 87 L0 86 L0 87 L0 86 L2 83 L3 83 L3 88 L3 89 L5 89 L5 93 L5 100 L7 101 L15 94 L18 92 L18 98 L20 99 L23 95 L24 95 L25 95 L29 95 L31 96 L31 98 L32 95 L32 101 L35 98 L40 90 L40 92 L41 91 L43 90 L42 95 L46 90 L46 94 L45 97 L47 95 L47 101 L52 97 L55 97 L48 119 L53 117 L56 116 L56 123 L60 117 L63 114 L64 114 L67 114 L69 116 L76 114 L80 109 L81 111 L82 112 L86 110 L87 116 L90 122 L95 119 L96 124 L103 124 L109 119 L108 122 L109 122 L113 119 L109 136 L112 137 L115 135 L115 139 L118 137 L121 135 L116 147 L120 144 L127 140 L127 146 M190 98 L190 97 L190 105 L189 108 L191 111 L197 112 L212 94 L222 88 L222 95 L225 92 L229 102 L229 111 L231 109 L230 124 L225 138 L230 130 L234 138 L229 157 L241 141 L250 145 L245 169 L255 158 L266 154 L265 175 L274 174 L287 163 L289 169 M318 52 L318 53 L319 54 L325 62 L325 70 L332 71 L340 69 L344 70 L358 70 L362 79 L365 85 L371 84 L372 94 L375 100 L381 96 L382 100 L382 104 L382 108 L381 118 L381 120 L380 123 L383 120 L386 119 L391 124 L403 119 " fill="none" stroke="black" /><path d="M0 87 L0 86 L0 87 L0 86 L2 83 L3 83 L3 88 L3 89 L5 89 L5 93 L5 100 L7 101 L15 94 L18 92 L18 98 L20 99 L23 95 L24 95 L25 95 L29 95 L31 96 L31 98 L32 95 L32 101 L35 98 L40 90 L40 92 L41 91 L43 90 L42 95 L46 90 L46 94 L45 97 L47 95 L47 101 L52 97 L55 97 L48 119 L53 117 L56 116 L56 123 L60 117 L63 114 L64 114 L67 114 L69 116 L76 114 L80 109 L81 111 L82 112 L86 110 L87 116 L90 122 L95 119 L96 124 L103 124 L109 119 L108 122 L109 122 L113 119 L109 136 L112 137 L115 135 L115 139 L118 137 L121 135 L116 147 L120 144 L127 140 L127 146 M190 98 L190 97 L190 105 L189 108 L191 111 L197 112 L212 94 L222 88 L222 95 L225 92 L229 102 L229 111 L231 109 L230 124 L225 138 L230 130 L234 138 L229 157 L241 141 L250 145 L245 169 L255 158 L266 154 L265 175 L274 174 L287 163 L289 169 M318 52 L318 53 L319 54 L325 62 L325 70 L332 71 L340 69 L344 70 L358 70 L362 79 L365 85 L371 84 L372 94 L375 100 L381 96 L382 100 L382 104 L382 108 L381 118 L381 120 L380 123 L383 120 L386 119 L391 124 L403 119 M471 0 L471 1 L471 2 L471 10 L471 12 L475 13 L475 21 L475 24 L477 37 L477 57 L483 56 L491 51 L491 67 L496 71 L503 68 L503 85 L508 88 L518 78 L516 106 L511 132 L523 125 L532 124 L534 131 L538 132 L542 132 L544 134 L546 135 L547 135 " fill="none" stroke="black" /></svg>