<?xml version="1.0" encoding="utf-8" ?>
<svg baseProfile="tiny" height="469" version="1.2" viewBox="-3 -3 259 469" width="259" xmlns="http://www.w3.org/2000/svg" xmlns:ev="http://www.w3.org/2001/xml-events" xmlns:xlink="http://www.w3.org/1999/xlink"><defs /><path d="M86 0 L68 43 L22 145 L0 197 L3 222 L65 159 L88 137 L91 151 L67 209 L60 237 L88 213 L105 195 L101 213 L84 255 L78 283 L90 279 L100 274 L99 286 L94 307 L100 314 L114 304 L117 306 L105 341 L102 370 L110 376 L117 377 L116 391 L115 407 L116 411 L118 411 L120 411 L122 411 L128 411 " fill="none" stroke="black" /><path d="M86 0 L68 43 L22 145 L0 197 L3 222 L65 159 L88 137 L91 151 L67 209 L60 237 L88 213 L105 195 L101 213 L84 255 L78 283 L90 279 L100 274 L99 286 L94 307 L100 314 L114 304 L117 306 L105 341 L102 370 L110 376 L117 377 L116 391 L115 407 L116 411 L118 411 L120 411 L122 411 L128 411 M108 58 L107 67 L106 74 L114 63 L126 47 L129 43 L110 76 L67 144 L49 182 L69 174 L97 149 L106 153 L91 202 L86 228 L113 213 L133 192 L142 184 L131 218 L126 245 L139 246 L155 237 L161 235 L146 270 L138 295 L137 305 L143 306 L137 321 L114 360 L104 386 L110 388 L119 382 L121 382 L109 415 L107 437 L115 438 L123 428 " fill="none" stroke="black" /><path d="M86 0 L68 43 L22 145 L0 197 L3 222 L65 159 L88 137 L91 151 L67 209 L60 237 L88 213 L105 195 L101 213 L84 255 L78 283 L90 279 L100 274 L99 286 L94 307 L100 314 L114 304 L117 306 L105 341 L102 370 L110 376 L117 377 L116 391 L115 407 L116 411 L118 411 L120 411 L122 411 L128 411 M108 58 L107 67 L106 74 L114 63 L126 47 L129 43 L110 76 L67 144 L49 182 L69 174 L97 149 L106 153 L91 202 L86 228 L113 213 L133 192 L142 184 L131 218 L126 245 L139 246 L155 237 L161 235 L146 270 L138 295 L137 305 L143 306 L137 321 L114 360 L104 386 L110 388 L119 382 L121 382 L109 415 L107 437 L115 438 L123 428 M182 19 L176 33 L177 45 L184 61 L189 91 L188 124 L187 147 L193 156 L200 156 L195 180 L173 228 L169 248 L177 249 L186 247 L186 261 L177 289 L174 307 L182 308 L185 313 L159 355 L138 390 L136 398 L136 401 L123 420 L107 441 L99 451 L103 444 " fill="none" stroke="black" /><path d="M86 0 L68 43 L22 145 L0 197 L3 222 L65 159 L88 137 L91 151 L67 209 L60 237 L88 213 L105 195 L101 213 L84 255 L78 283 L90 279 L100 274 L99 286 L94 307 L100 314 L114 304 L117 306 L105 341 L102 370 L110 376 L117 377 L116 391 L115 407 L116 411 L118 411 L120 411 L122 411 L128 411 M108 58 L107 67 L106 74 L114 63 L126 47 L129 43 L110 76 L67 144 L49 182 L69 174 L97 149 L106 153 L91 202 L86 228 L113 213 L133 192 L142 184 L131 218 L126 245 L139 246 L155 237 L161 235 L146 270 L138 295 L137 305 L143 306 L137 321 L114 360 L104 386 L110 388 L119 382 L121 382 L109 415 L107 437 L115 438 L123 428 M182 19 L176 33 L177 45 L184 61 L189 91 L188 124 L187 147 L193 156 L200 156 L195 180 L173 228 L169 248 L177 249 L186 247 L186 261 L177 289 L174 307 L182 308 L185 313 L159 355 L138 390 L136 398 L136 401 L123 420 L107 441 L99 451 L103 444 M234 58 L234 57 L234 59 L226 95 L222 125 L233 133 L252 134 L259 149 L242 209 L235 242 L235 253 L235 255 L219 288 L194 333 L185 357 L188 364 L193 365 L175 387 L152 414 L142 425 L140 425 L139 424 L133 424 L126 426 " fill="none" stroke="black" /><path d="M86 0 L68 43 L22 145 L0 197 L3 222 L65 159 L88 137 L91 151 L67 209 L60 237 L88 213 L105 195 L101 213 L84 255 L78 283 L90 279 L100 274 L99 286 L94 307 L100 314 L114 304 L117 306 L105 341 L102 370 L110 376 L117 377 L116 391 L115 407 L116 411 L118 411 L120 411 L122 411 L128 411 M108 58 L107 67 L106 74 L114 63 L126 47 L129 43 L110 76 L67 144 L49 182 L69 174 L97 149 L106 153 L91 202 L86 228 L113 213 L133 192 L142 184 L131 218 L126 245 L139 246 L155 237 L161 235 L146 270 L138 295 L137 305 L143 306 L137 321 L114 360 L104 386 L110 388 L119 382 L121 382 L109 415 L107 437 L115 438 L123 428 M182 19 L176 33 L177 45 L184 61 L189 91 L188 124 L187 147 L193 156 L200 156 L195 180 L173 228 L169 248 L177 249 L186 247 L186 261 L177 289 L174 307 L182 308 L185 313 L159 355 L138 390 L136 398 L136 401 L123 420 L107 441 L99 451 L103 444 M234 58 L234 57 L234 59 L226 95 L222 125 L233 133 L252 134 L259 149 L242 209 L235 242 L235 253 L235 255 L219 288 L194 333 L185 357 L188 364 L193 365 L175 387 L152 414 L142 425 L140 425 L139 424 L133 424 L126 426 M130 54 L130 53 L130 73 L128 102 L129 118 L138 123 L146 131 L147 157 L146 187 L153 202 L163 209 L161 235 L149 274 L148 298 L152 307 L158 315 L157 344 L151 376 L150 388 L151 393 L152 426 L143 454 L135 469 " fill="none" stroke="black" /></svg>