<?xml version="1.0" encoding="utf-8" ?>
<svg baseProfile="tiny" height="371" version="1.2" viewBox="-3 -3 478 371" width="478" xmlns="http://www.w3.org/2000/svg" xmlns:ev="http://www.w3.org/2001/xml-events" xmlns:xlink="http://www.w3.org/1999/xlink"><defs /><path d="M253 0 L252 0 L245 0 L223 0 L191 3 L127 34 L66 84 L30 135 L12 189 L1 246 L0 286 L10 313 L29 332 L41 339 L47 342 L48 342 " fill="none" stroke="black" /><path d="M253 0 L252 0 L245 0 L223 0 L191 3 L127 34 L66 84 L30 135 L12 189 L1 246 L0 286 L10 313 L29 332 L41 339 L47 342 L48 342 M46 340 L46 336 L45 325 L44 294 L44 239 L60 177 L101 114 L166 72 L207 66 L245 66 L274 68 L292 72 L300 76 L302 77 L302 78 L295 78 L281 77 L264 77 L232 98 L193 146 L164 206 L147 268 L140 315 L139 352 L144 365 L148 370 L152 371 L159 361 L172 330 L189 287 L222 233 L247 211 L274 198 L295 196 L317 197 L341 207 L361 218 L373 227 L376 229 L377 229 L372 224 L355 214 L340 210 L321 213 L302 235 L284 265 L273 291 L269 322 L269 338 L270 344 L271 344 L279 336 L294 311 L317 279 L349 251 L372 244 L387 243 L397 251 L404 262 L409 271 L411 273 L407 272 L395 270 L389 270 L384 271 L377 282 L372 295 L370 309 L369 322 L370 333 L371 335 L375 335 L384 332 L396 324 L409 312 L420 302 L432 294 L447 293 L462 293 L472 299 L476 305 L478 309 L478 310 L464 314 L447 324 L438 334 L435 342 L434 348 L434 355 L434 358 L435 359 L438 357 L450 350 L461 341 L468 335 L471 334 L472 334 " fill="none" stroke="black" /></svg>