<?xml version="1.0" encoding="utf-8" ?>
<svg baseProfile="tiny" height="349" version="1.2" viewBox="-3 -3 588 349" width="588" xmlns="http://www.w3.org/2000/svg" xmlns:ev="http://www.w3.org/2001/xml-events" xmlns:xlink="http://www.w3.org/1999/xlink"><defs /><path d="M106 20 L90 35 L51 84 L14 135 L5 151 L45 104 L64 77 L29 122 L0 170 L1 190 L71 103 L102 64 L109 61 L77 130 L71 156 L171 68 L214 22 L237 0 L164 130 L114 227 L96 275 L140 226 L155 205 L148 221 L116 285 L106 320 L146 281 L167 251 L169 252 L141 307 L131 335 L188 258 L223 206 L245 178 L215 241 L196 283 L214 264 L238 231 L249 224 L213 290 L195 326 L225 275 L271 200 L290 172 L268 220 L254 252 L264 254 L311 187 L333 153 L321 181 L288 242 L278 265 L323 203 L363 146 L367 149 L331 217 L321 247 L347 225 L370 194 L380 182 L355 238 L345 269 L372 236 L399 197 L410 187 L382 255 L375 292 L403 277 L431 242 L438 242 L422 286 L416 310 L440 281 L458 255 L464 250 L428 324 L419 349 L460 294 L492 249 L504 233 L487 278 L480 304 L493 296 L510 272 L518 270 L501 312 L494 338 L500 336 L507 329 L509 329 " fill="none" stroke="black" /><path d="M106 20 L90 35 L51 84 L14 135 L5 151 L45 104 L64 77 L29 122 L0 170 L1 190 L71 103 L102 64 L109 61 L77 130 L71 156 L171 68 L214 22 L237 0 L164 130 L114 227 L96 275 L140 226 L155 205 L148 221 L116 285 L106 320 L146 281 L167 251 L169 252 L141 307 L131 335 L188 258 L223 206 L245 178 L215 241 L196 283 L214 264 L238 231 L249 224 L213 290 L195 326 L225 275 L271 200 L290 172 L268 220 L254 252 L264 254 L311 187 L333 153 L321 181 L288 242 L278 265 L323 203 L363 146 L367 149 L331 217 L321 247 L347 225 L370 194 L380 182 L355 238 L345 269 L372 236 L399 197 L410 187 L382 255 L375 292 L403 277 L431 242 L438 242 L422 286 L416 310 L440 281 L458 255 L464 250 L428 324 L419 349 L460 294 L492 249 L504 233 L487 278 L480 304 L493 296 L510 272 L518 270 L501 312 L494 338 L500 336 L507 329 L509 329 M298 52 L317 52 L399 56 L511 108 L558 161 L566 193 L567 210 L567 219 " fill="none" stroke="black" /><path d="M106 20 L90 35 L51 84 L14 135 L5 151 L45 104 L64 77 L29 122 L0 170 L1 190 L71 103 L102 64 L109 61 L77 130 L71 156 L171 68 L214 22 L237 0 L164 130 L114 227 L96 275 L140 226 L155 205 L148 221 L116 285 L106 320 L146 281 L167 251 L169 252 L141 307 L131 335 L188 258 L223 206 L245 178 L215 241 L196 283 L214 264 L238 231 L249 224 L213 290 L195 326 L225 275 L271 200 L290 172 L268 220 L254 252 L264 254 L311 187 L333 153 L321 181 L288 242 L278 265 L323 203 L363 146 L367 149 L331 217 L321 247 L347 225 L370 194 L380 182 L355 238 L345 269 L372 236 L399 197 L410 187 L382 255 L375 292 L403 277 L431 242 L438 242 L422 286 L416 310 L440 281 L458 255 L464 250 L428 324 L419 349 L460 294 L492 249 L504 233 L487 278 L480 304 L493 296 L510 272 L518 270 L501 312 L494 338 L500 336 L507 329 L509 329 M298 52 L317 52 L399 56 L511 108 L558 161 L566 193 L567 210 L567 219 M439 25 L438 25 L433 25 L428 25 L424 23 L423 20 L423 19 " fill="none" stroke="black" /><path d="M106 20 L90 35 L51 84 L14 135 L5 151 L45 104 L64 77 L29 122 L0 170 L1 190 L71 103 L102 64 L109 61 L77 130 L71 156 L171 68 L214 22 L237 0 L164 130 L114 227 L96 275 L140 226 L155 205 L148 221 L116 285 L106 320 L146 281 L167 251 L169 252 L141 307 L131 335 L188 258 L223 206 L245 178 L215 241 L196 283 L214 264 L238 231 L249 224 L213 290 L195 326 L225 275 L271 200 L290 172 L268 220 L254 252 L264 254 L311 187 L333 153 L321 181 L288 242 L278 265 L323 203 L363 146 L367 149 L331 217 L321 247 L347 225 L370 194 L380 182 L355 238 L345 269 L372 236 L399 197 L410 187 L382 255 L375 292 L403 277 L431 242 L438 242 L422 286 L416 310 L440 281 L458 255 L464 250 L428 324 L419 349 L460 294 L492 249 L504 233 L487 278 L480 304 L493 296 L510 272 L518 270 L501 312 L494 338 L500 336 L507 329 L509 329 M298 52 L317 52 L399 56 L511 108 L558 161 L566 193 L567 210 L567 219 M439 25 L438 25 L433 25 L428 25 L424 23 L423 20 L423 19 M417 19 L415 19 L412 19 L411 19 L409 19 L407 19 L403 19 L397 19 L390 19 L385 19 L382 19 L381 19 L380 19 L379 19 L377 19 L374 18 L371 18 L365 18 L356 19 L349 22 L342 24 L337 28 L335 29 L335 31 " fill="none" stroke="black" /><path d="M106 20 L90 35 L51 84 L14 135 L5 151 L45 104 L64 77 L29 122 L0 170 L1 190 L71 103 L102 64 L109 61 L77 130 L71 156 L171 68 L214 22 L237 0 L164 130 L114 227 L96 275 L140 226 L155 205 L148 221 L116 285 L106 320 L146 281 L167 251 L169 252 L141 307 L131 335 L188 258 L223 206 L245 178 L215 241 L196 283 L214 264 L238 231 L249 224 L213 290 L195 326 L225 275 L271 200 L290 172 L268 220 L254 252 L264 254 L311 187 L333 153 L321 181 L288 242 L278 265 L323 203 L363 146 L367 149 L331 217 L321 247 L347 225 L370 194 L380 182 L355 238 L345 269 L372 236 L399 197 L410 187 L382 255 L375 292 L403 277 L431 242 L438 242 L422 286 L416 310 L440 281 L458 255 L464 250 L428 324 L419 349 L460 294 L492 249 L504 233 L487 278 L480 304 L493 296 L510 272 L518 270 L501 312 L494 338 L500 336 L507 329 L509 329 M298 52 L317 52 L399 56 L511 108 L558 161 L566 193 L567 210 L567 219 M439 25 L438 25 L433 25 L428 25 L424 23 L423 20 L423 19 M417 19 L415 19 L412 19 L411 19 L409 19 L407 19 L403 19 L397 19 L390 19 L385 19 L382 19 L381 19 L380 19 L379 19 L377 19 L374 18 L371 18 L365 18 L356 19 L349 22 L342 24 L337 28 L335 29 L335 31 M501 64 L513 78 L526 91 L536 102 L547 114 L560 130 L570 143 L576 156 L581 166 L586 176 L587 181 L588 182 " fill="none" stroke="black" /></svg>