<?xml version="1.0" encoding="utf-8" ?>
<svg baseProfile="tiny" height="839" version="1.2" viewBox="-3 -3 1105 839" width="1105" xmlns="http://www.w3.org/2000/svg" xmlns:ev="http://www.w3.org/2001/xml-events" xmlns:xlink="http://www.w3.org/1999/xlink"><defs /><path d="M5 437 L4 437 L2 437 L1 437 L0 437 L1 436 L60 386 L350 170 L559 47 L621 13 L646 0 L648 0 L599 50 L519 133 L401 275 L320 392 L267 474 L245 509 L231 529 L222 542 L217 548 L217 549 " fill="none" stroke="black" /><path d="M5 437 L4 437 L2 437 L1 437 L0 437 L1 436 L60 386 L350 170 L559 47 L621 13 L646 0 L648 0 L599 50 L519 133 L401 275 L320 392 L267 474 L245 509 L231 529 L222 542 L217 548 L217 549 M230 534 L385 390 L745 141 L879 69 L930 43 L937 41 L907 74 L815 169 L665 342 L566 478 L527 539 L514 559 L507 564 L501 566 L494 567 L495 567 L518 548 L652 435 L890 269 L973 221 L1008 206 L1004 221 L936 304 L738 553 L603 757 L568 815 L554 838 L553 839 L553 838 L555 833 L557 829 L558 828 L559 827 L560 824 L563 821 L567 814 L584 795 L745 645 L938 478 L1047 389 L1089 360 L1103 351 L1105 351 L1104 355 L1094 372 L1048 446 L960 579 L893 676 L868 712 L858 727 L856 729 L856 730 L856 729 L855 729 L853 728 L731 690 L471 599 L252 516 L168 476 L132 446 L129 435 L157 425 L452 453 L679 563 L787 625 L824 644 L836 646 L841 646 L844 644 L846 644 L846 642 L802 600 L528 378 L360 287 L281 249 L267 228 L282 204 L321 191 L447 224 L640 370 L739 456 L772 484 L782 492 L785 492 L786 492 L787 492 L787 490 L730 421 L530 210 L439 115 L420 76 L501 44 L660 67 L785 182 L860 290 L902 350 L932 386 L947 405 L952 415 " fill="none" stroke="black" /></svg>