<?xml version="1.0" encoding="utf-8" ?>
<svg baseProfile="tiny" height="181" version="1.2" viewBox="-3 -3 127 181" width="127" xmlns="http://www.w3.org/2000/svg" xmlns:ev="http://www.w3.org/2001/xml-events" xmlns:xlink="http://www.w3.org/1999/xlink"><defs /><path d="M3 48 L3 52 L5 61 L6 68 L6 73 L6 78 L6 82 L6 87 L6 89 L7 92 L8 96 L9 102 L9 108 L9 115 L9 120 L9 123 L8 126 L7 130 L6 133 L6 135 L6 136 L5 136 L5 137 L9 137 L30 137 L54 137 L75 139 L87 141 L95 141 L106 141 L114 141 L119 141 L122 142 L123 142 L124 142 L124 140 L125 132 L126 117 L127 96 L127 75 L127 54 L125 42 L123 35 L122 32 L122 30 L122 29 L121 29 L116 29 L110 29 L103 30 L94 30 L84 30 L72 30 L65 30 L57 30 L48 30 L38 30 L31 30 L23 30 L17 30 L10 30 L5 31 L2 31 L0 31 L0 32 L0 35 L2 39 L4 43 L4 45 L5 48 L6 51 L6 52 " fill="none" stroke="black" /><path d="M3 48 L3 52 L5 61 L6 68 L6 73 L6 78 L6 82 L6 87 L6 89 L7 92 L8 96 L9 102 L9 108 L9 115 L9 120 L9 123 L8 126 L7 130 L6 133 L6 135 L6 136 L5 136 L5 137 L9 137 L30 137 L54 137 L75 139 L87 141 L95 141 L106 141 L114 141 L119 141 L122 142 L123 142 L124 142 L124 140 L125 132 L126 117 L127 96 L127 75 L127 54 L125 42 L123 35 L122 32 L122 30 L122 29 L121 29 L116 29 L110 29 L103 30 L94 30 L84 30 L72 30 L65 30 L57 30 L48 30 L38 30 L31 30 L23 30 L17 30 L10 30 L5 31 L2 31 L0 31 L0 32 L0 35 L2 39 L4 43 L4 45 L5 48 L6 51 L6 52 M96 66 L96 70 L96 77 L96 84 L96 91 L96 98 L96 102 L96 107 L95 109 L94 111 L93 112 L92 113 L89 114 L86 115 L82 115 L76 115 L70 115 L63 115 L59 115 L54 115 L49 115 L46 115 L44 114 L42 113 L40 112 L38 111 L37 110 L36 109 L35 103 L34 92 L33 81 L32 71 L30 63 L29 59 L28 56 L28 55 L31 55 L35 55 L40 56 L46 56 L51 56 L56 56 L60 56 L63 56 L68 56 L73 55 L76 55 L78 55 L79 55 L81 55 L82 55 L84 55 L85 55 L86 55 L87 55 L88 55 L90 55 L91 55 L91 56 L92 58 L93 61 L93 63 L93 65 L93 67 L94 68 L94 69 L94 70 " fill="none" stroke="black" /><circle cx="60" cy="79" fill="black" r="1" /><circle cx="21" cy="0" fill="black" r="1" /><circle cx="103" cy="0" fill="black" r="1" /><circle cx="82" cy="181" fill="black" r="1" /><circle cx="38" cy="176" fill="black" r="1" /></svg>