<?xml version="1.0" encoding="utf-8" ?>
<svg baseProfile="tiny" height="220" version="1.2" viewBox="-3 -3 93 220" width="93" xmlns="http://www.w3.org/2000/svg" xmlns:ev="http://www.w3.org/2001/xml-events" xmlns:xlink="http://www.w3.org/1999/xlink"><defs /><path d="M2 141 L1 140 L1 138 L0 136 L0 130 L0 121 L0 111 L2 101 L8 93 L13 90 L18 88 L24 88 L29 88 L35 90 L39 93 L43 97 L47 100 L51 105 L55 111 L59 118 L60 122 L61 126 L62 131 L63 137 L63 143 L63 149 L63 154 L63 159 L63 165 L63 169 L63 173 L62 177 L61 180 L60 184 L59 188 L57 192 L56 196 L54 201 L53 204 L51 207 L49 209 L47 210 L44 212 L42 213 L38 215 L33 217 L27 219 L23 220 L21 220 L20 220 L18 217 L16 214 L15 210 L15 208 L15 206 L15 205 L15 203 " fill="none" stroke="black" /><path d="M2 141 L1 140 L1 138 L0 136 L0 130 L0 121 L0 111 L2 101 L8 93 L13 90 L18 88 L24 88 L29 88 L35 90 L39 93 L43 97 L47 100 L51 105 L55 111 L59 118 L60 122 L61 126 L62 131 L63 137 L63 143 L63 149 L63 154 L63 159 L63 165 L63 169 L63 173 L62 177 L61 180 L60 184 L59 188 L57 192 L56 196 L54 201 L53 204 L51 207 L49 209 L47 210 L44 212 L42 213 L38 215 L33 217 L27 219 L23 220 L21 220 L20 220 L18 217 L16 214 L15 210 L15 208 L15 206 L15 205 L15 203 M25 149 L23 146 L22 144 L21 142 L21 140 L21 137 L21 135 L21 133 L21 132 L22 132 L23 131 L25 130 L27 129 L28 129 L30 129 L31 129 L33 130 L34 131 L35 133 L36 134 L37 136 L38 141 L38 144 L39 146 L39 149 L39 152 L38 155 L37 157 L36 160 L36 162 L35 165 L35 168 L35 171 L34 174 L33 177 L33 179 L32 180 " fill="none" stroke="black" /><path d="M2 141 L1 140 L1 138 L0 136 L0 130 L0 121 L0 111 L2 101 L8 93 L13 90 L18 88 L24 88 L29 88 L35 90 L39 93 L43 97 L47 100 L51 105 L55 111 L59 118 L60 122 L61 126 L62 131 L63 137 L63 143 L63 149 L63 154 L63 159 L63 165 L63 169 L63 173 L62 177 L61 180 L60 184 L59 188 L57 192 L56 196 L54 201 L53 204 L51 207 L49 209 L47 210 L44 212 L42 213 L38 215 L33 217 L27 219 L23 220 L21 220 L20 220 L18 217 L16 214 L15 210 L15 208 L15 206 L15 205 L15 203 M25 149 L23 146 L22 144 L21 142 L21 140 L21 137 L21 135 L21 133 L21 132 L22 132 L23 131 L25 130 L27 129 L28 129 L30 129 L31 129 L33 130 L34 131 L35 133 L36 134 L37 136 L38 141 L38 144 L39 146 L39 149 L39 152 L38 155 L37 157 L36 160 L36 162 L35 165 L35 168 L35 171 L34 174 L33 177 L33 179 L32 180 M76 121 L77 120 L78 118 L80 116 L81 114 L82 113 L83 113 L84 112 L85 111 L86 110 L87 109 L88 108 L88 107 L89 106 L90 105 L90 103 L91 102 L91 101 L92 100 L92 99 L92 98 L92 97 L92 95 L92 93 L92 88 L90 83 L89 80 L88 77 L87 74 L87 71 L86 68 L85 65 L84 63 L83 58 L83 55 L82 53 L82 50 L82 47 L82 43 L82 39 L82 35 L82 32 L82 30 L82 27 L82 26 L81 24 " fill="none" stroke="black" /><path d="M2 141 L1 140 L1 138 L0 136 L0 130 L0 121 L0 111 L2 101 L8 93 L13 90 L18 88 L24 88 L29 88 L35 90 L39 93 L43 97 L47 100 L51 105 L55 111 L59 118 L60 122 L61 126 L62 131 L63 137 L63 143 L63 149 L63 154 L63 159 L63 165 L63 169 L63 173 L62 177 L61 180 L60 184 L59 188 L57 192 L56 196 L54 201 L53 204 L51 207 L49 209 L47 210 L44 212 L42 213 L38 215 L33 217 L27 219 L23 220 L21 220 L20 220 L18 217 L16 214 L15 210 L15 208 L15 206 L15 205 L15 203 M25 149 L23 146 L22 144 L21 142 L21 140 L21 137 L21 135 L21 133 L21 132 L22 132 L23 131 L25 130 L27 129 L28 129 L30 129 L31 129 L33 130 L34 131 L35 133 L36 134 L37 136 L38 141 L38 144 L39 146 L39 149 L39 152 L38 155 L37 157 L36 160 L36 162 L35 165 L35 168 L35 171 L34 174 L33 177 L33 179 L32 180 M76 121 L77 120 L78 118 L80 116 L81 114 L82 113 L83 113 L84 112 L85 111 L86 110 L87 109 L88 108 L88 107 L89 106 L90 105 L90 103 L91 102 L91 101 L92 100 L92 99 L92 98 L92 97 L92 95 L92 93 L92 88 L90 83 L89 80 L88 77 L87 74 L87 71 L86 68 L85 65 L84 63 L83 58 L83 55 L82 53 L82 50 L82 47 L82 43 L82 39 L82 35 L82 32 L82 30 L82 27 L82 26 L81 24 M72 27 L72 23 L72 15 L75 4 L79 0 L82 0 L85 1 L88 6 L92 13 L93 18 " fill="none" stroke="black" /></svg>