<?xml version="1.0" encoding="utf-8" ?>
<svg baseProfile="tiny" height="123" version="1.2" viewBox="-3 -3 283 123" width="283" xmlns="http://www.w3.org/2000/svg" xmlns:ev="http://www.w3.org/2001/xml-events" xmlns:xlink="http://www.w3.org/1999/xlink"><defs /><path d="M111 25 L109 25 L106 22 L98 18 L85 12 L74 11 L65 10 L56 10 L48 11 L37 14 L30 17 L23 21 L17 27 L12 33 L7 40 L4 45 L1 50 L0 56 L0 65 L0 70 L0 75 L0 80 L2 85 L3 90 L6 96 L8 100 L10 103 L13 106 L16 109 L18 111 L21 112 L22 114 L24 115 L27 116 L31 119 L38 121 L46 123 L55 123 L63 123 L71 121 L81 117 L89 113 L94 109 L95 108 L96 106 L100 102 L103 98 L105 97 " fill="none" stroke="black" /><path d="M111 25 L109 25 L106 22 L98 18 L85 12 L74 11 L65 10 L56 10 L48 11 L37 14 L30 17 L23 21 L17 27 L12 33 L7 40 L4 45 L1 50 L0 56 L0 65 L0 70 L0 75 L0 80 L2 85 L3 90 L6 96 L8 100 L10 103 L13 106 L16 109 L18 111 L21 112 L22 114 L24 115 L27 116 L31 119 L38 121 L46 123 L55 123 L63 123 L71 121 L81 117 L89 113 L94 109 L95 108 L96 106 L100 102 L103 98 L105 97 M158 12 L158 11 L159 9 L163 7 L173 5 L188 1 L207 0 L227 0 L241 3 L252 7 L262 15 L270 26 L279 42 L282 53 L283 65 L281 74 L276 85 L268 95 L258 105 L248 109 L235 111 L220 112 L211 109 L203 106 L196 101 L190 96 L187 91 L186 88 L186 86 L186 85 " fill="none" stroke="black" /><path d="M111 25 L109 25 L106 22 L98 18 L85 12 L74 11 L65 10 L56 10 L48 11 L37 14 L30 17 L23 21 L17 27 L12 33 L7 40 L4 45 L1 50 L0 56 L0 65 L0 70 L0 75 L0 80 L2 85 L3 90 L6 96 L8 100 L10 103 L13 106 L16 109 L18 111 L21 112 L22 114 L24 115 L27 116 L31 119 L38 121 L46 123 L55 123 L63 123 L71 121 L81 117 L89 113 L94 109 L95 108 L96 106 L100 102 L103 98 L105 97 M158 12 L158 11 L159 9 L163 7 L173 5 L188 1 L207 0 L227 0 L241 3 L252 7 L262 15 L270 26 L279 42 L282 53 L283 65 L281 74 L276 85 L268 95 L258 105 L248 109 L235 111 L220 112 L211 109 L203 106 L196 101 L190 96 L187 91 L186 88 L186 86 L186 85 M119 43 L121 43 L123 43 L127 43 L130 43 " fill="none" stroke="black" /><path d="M111 25 L109 25 L106 22 L98 18 L85 12 L74 11 L65 10 L56 10 L48 11 L37 14 L30 17 L23 21 L17 27 L12 33 L7 40 L4 45 L1 50 L0 56 L0 65 L0 70 L0 75 L0 80 L2 85 L3 90 L6 96 L8 100 L10 103 L13 106 L16 109 L18 111 L21 112 L22 114 L24 115 L27 116 L31 119 L38 121 L46 123 L55 123 L63 123 L71 121 L81 117 L89 113 L94 109 L95 108 L96 106 L100 102 L103 98 L105 97 M158 12 L158 11 L159 9 L163 7 L173 5 L188 1 L207 0 L227 0 L241 3 L252 7 L262 15 L270 26 L279 42 L282 53 L283 65 L281 74 L276 85 L268 95 L258 105 L248 109 L235 111 L220 112 L211 109 L203 106 L196 101 L190 96 L187 91 L186 88 L186 86 L186 85 M119 43 L121 43 L123 43 L127 43 L130 43 M119 71 L121 71 L122 71 L123 71 L124 71 L126 71 L130 71 L132 71 " fill="none" stroke="black" /><path d="M111 25 L109 25 L106 22 L98 18 L85 12 L74 11 L65 10 L56 10 L48 11 L37 14 L30 17 L23 21 L17 27 L12 33 L7 40 L4 45 L1 50 L0 56 L0 65 L0 70 L0 75 L0 80 L2 85 L3 90 L6 96 L8 100 L10 103 L13 106 L16 109 L18 111 L21 112 L22 114 L24 115 L27 116 L31 119 L38 121 L46 123 L55 123 L63 123 L71 121 L81 117 L89 113 L94 109 L95 108 L96 106 L100 102 L103 98 L105 97 M158 12 L158 11 L159 9 L163 7 L173 5 L188 1 L207 0 L227 0 L241 3 L252 7 L262 15 L270 26 L279 42 L282 53 L283 65 L281 74 L276 85 L268 95 L258 105 L248 109 L235 111 L220 112 L211 109 L203 106 L196 101 L190 96 L187 91 L186 88 L186 86 L186 85 M119 43 L121 43 L123 43 L127 43 L130 43 M119 71 L121 71 L122 71 L123 71 L124 71 L126 71 L130 71 L132 71 M174 48 L170 48 L163 48 L158 48 L155 48 L154 48 " fill="none" stroke="black" /><path d="M111 25 L109 25 L106 22 L98 18 L85 12 L74 11 L65 10 L56 10 L48 11 L37 14 L30 17 L23 21 L17 27 L12 33 L7 40 L4 45 L1 50 L0 56 L0 65 L0 70 L0 75 L0 80 L2 85 L3 90 L6 96 L8 100 L10 103 L13 106 L16 109 L18 111 L21 112 L22 114 L24 115 L27 116 L31 119 L38 121 L46 123 L55 123 L63 123 L71 121 L81 117 L89 113 L94 109 L95 108 L96 106 L100 102 L103 98 L105 97 M158 12 L158 11 L159 9 L163 7 L173 5 L188 1 L207 0 L227 0 L241 3 L252 7 L262 15 L270 26 L279 42 L282 53 L283 65 L281 74 L276 85 L268 95 L258 105 L248 109 L235 111 L220 112 L211 109 L203 106 L196 101 L190 96 L187 91 L186 88 L186 86 L186 85 M119 43 L121 43 L123 43 L127 43 L130 43 M119 71 L121 71 L122 71 L123 71 L124 71 L126 71 L130 71 L132 71 M174 48 L170 48 L163 48 L158 48 L155 48 L154 48 M172 60 L170 60 L168 60 L167 60 L164 60 L161 60 L158 60 L156 60 " fill="none" stroke="black" /></svg>