<?xml version="1.0" encoding="utf-8" ?>
<svg baseProfile="tiny" height="279" version="1.2" viewBox="-3 -3 217 279" width="217" xmlns="http://www.w3.org/2000/svg" xmlns:ev="http://www.w3.org/2001/xml-events" xmlns:xlink="http://www.w3.org/1999/xlink"><defs /><path d="M0 232 L1 224 L9 201 L17 183 L28 176 L40 182 L54 200 L63 213 L68 218 L74 215 L82 203 L88 194 L91 192 L93 195 L97 206 L98 211 L100 211 L103 201 L108 186 L110 181 L111 181 L111 184 L111 186 L112 185 L116 166 L120 150 L121 145 L123 152 L129 185 L131 203 L132 207 L132 181 L132 117 L131 65 L131 49 L131 48 L131 50 L134 62 L143 79 L149 91 L157 105 L166 120 L172 132 L179 147 L184 157 L189 163 L191 166 L192 166 L192 167 L194 157 L200 119 L208 81 L214 63 L216 58 L217 62 L211 82 L197 114 L179 152 L162 187 L150 211 L147 216 L147 217 L147 216 L149 200 L154 139 L158 83 L161 50 L163 33 L164 26 L165 25 L165 26 L165 25 L165 20 L165 14 L165 4 L165 0 L165 20 L167 74 L181 145 L191 218 L193 257 L193 275 L193 279 L194 275 " fill="none" stroke="black" /></svg>