<?xml version="1.0" encoding="utf-8" ?>
<svg baseProfile="tiny" height="108" version="1.2" viewBox="-3 -3 451 108" width="451" xmlns="http://www.w3.org/2000/svg" xmlns:ev="http://www.w3.org/2001/xml-events" xmlns:xlink="http://www.w3.org/1999/xlink"><defs /><path d="M269 28 L276 28 L291 28 L311 28 L340 28 L370 33 L400 40 L418 47 L424 52 L419 59 L393 68 L354 76 L279 82 L188 82 L97 74 L51 69 L33 66 L28 64 L29 61 L49 51 L84 41 L130 34 L185 32 L234 31 L264 30 L285 29 L297 29 L299 29 " fill="none" stroke="black" /><path d="M269 28 L276 28 L291 28 L311 28 L340 28 L370 33 L400 40 L418 47 L424 52 L419 59 L393 68 L354 76 L279 82 L188 82 L97 74 L51 69 L33 66 L28 64 L29 61 L49 51 L84 41 L130 34 L185 32 L234 31 L264 30 L285 29 L297 29 L299 29 M235 40 L239 40 L248 40 L263 40 L277 41 L290 42 L300 43 L306 44 L308 45 L308 47 L308 50 L305 54 L300 58 L290 60 L276 60 L261 60 L248 60 L230 60 L216 61 L200 61 L184 62 L173 62 L164 62 L163 62 L162 62 L162 60 L165 57 L176 53 L188 52 L202 49 L216 47 L228 45 L240 45 L247 45 L249 45 L250 45 " fill="none" stroke="black" /><path d="M269 28 L276 28 L291 28 L311 28 L340 28 L370 33 L400 40 L418 47 L424 52 L419 59 L393 68 L354 76 L279 82 L188 82 L97 74 L51 69 L33 66 L28 64 L29 61 L49 51 L84 41 L130 34 L185 32 L234 31 L264 30 L285 29 L297 29 L299 29 M235 40 L239 40 L248 40 L263 40 L277 41 L290 42 L300 43 L306 44 L308 45 L308 47 L308 50 L305 54 L300 58 L290 60 L276 60 L261 60 L248 60 L230 60 L216 61 L200 61 L184 62 L173 62 L164 62 L163 62 L162 62 L162 60 L165 57 L176 53 L188 52 L202 49 L216 47 L228 45 L240 45 L247 45 L249 45 L250 45 M181 11 L182 11 L188 11 L199 11 L216 11 L241 11 L277 11 L310 11 L342 11 L372 12 L406 18 L424 23 L436 29 L444 33 L448 37 L450 42 L451 49 L451 59 L448 68 L441 75 L432 82 L416 89 L400 93 L381 95 L360 97 L330 100 L304 101 L278 101 L253 102 L221 102 L197 103 L177 104 L157 106 L141 107 L128 108 L110 108 L94 105 L79 101 L66 96 L46 90 L36 86 L26 83 L17 81 L11 80 L7 79 L4 76 L2 72 L0 69 L0 66 L2 61 L11 52 L22 46 L35 41 L52 35 L74 26 L94 20 L115 15 L141 11 L172 5 L199 2 L220 2 L232 2 L234 0 " fill="none" stroke="black" /></svg>