<?xml version="1.0" encoding="utf-8" ?>
<svg baseProfile="tiny" height="130" version="1.2" viewBox="-3 -3 202 130" width="202" xmlns="http://www.w3.org/2000/svg" xmlns:ev="http://www.w3.org/2001/xml-events" xmlns:xlink="http://www.w3.org/1999/xlink"><defs /><path d="M67 129 L67 128 L62 121 L53 103 L36 66 L22 39 L10 22 L5 16 L4 15 L4 14 L4 12 " fill="none" stroke="black" /><path d="M67 129 L67 128 L62 121 L53 103 L36 66 L22 39 L10 22 L5 16 L4 15 L4 14 L4 12 M79 104 L79 97 L79 85 L79 72 L79 62 L79 55 L79 53 L79 52 " fill="none" stroke="black" /><path d="M67 129 L67 128 L62 121 L53 103 L36 66 L22 39 L10 22 L5 16 L4 15 L4 14 L4 12 M79 104 L79 97 L79 85 L79 72 L79 62 L79 55 L79 53 L79 52 M103 103 L103 102 L103 99 L103 96 L103 94 L103 91 L103 86 L103 77 L103 72 L103 71 " fill="none" stroke="black" /><path d="M67 129 L67 128 L62 121 L53 103 L36 66 L22 39 L10 22 L5 16 L4 15 L4 14 L4 12 M79 104 L79 97 L79 85 L79 72 L79 62 L79 55 L79 53 L79 52 M103 103 L103 102 L103 99 L103 96 L103 94 L103 91 L103 86 L103 77 L103 72 L103 71 M126 99 L126 97 L126 90 L126 76 L126 68 L127 65 L127 64 L126 64 " fill="none" stroke="black" /><path d="M67 129 L67 128 L62 121 L53 103 L36 66 L22 39 L10 22 L5 16 L4 15 L4 14 L4 12 M79 104 L79 97 L79 85 L79 72 L79 62 L79 55 L79 53 L79 52 M103 103 L103 102 L103 99 L103 96 L103 94 L103 91 L103 86 L103 77 L103 72 L103 71 M126 99 L126 97 L126 90 L126 76 L126 68 L127 65 L127 64 L126 64 M147 117 L147 114 L149 108 L155 97 L169 70 L179 45 L191 21 L197 9 L200 3 L202 0 " fill="none" stroke="black" /><path d="M67 129 L67 128 L62 121 L53 103 L36 66 L22 39 L10 22 L5 16 L4 15 L4 14 L4 12 M79 104 L79 97 L79 85 L79 72 L79 62 L79 55 L79 53 L79 52 M103 103 L103 102 L103 99 L103 96 L103 94 L103 91 L103 86 L103 77 L103 72 L103 71 M126 99 L126 97 L126 90 L126 76 L126 68 L127 65 L127 64 L126 64 M147 117 L147 114 L149 108 L155 97 L169 70 L179 45 L191 21 L197 9 L200 3 L202 0 M163 118 L164 116 L167 114 L172 111 L177 108 L183 103 L185 101 L186 100 " fill="none" stroke="black" /><path d="M67 129 L67 128 L62 121 L53 103 L36 66 L22 39 L10 22 L5 16 L4 15 L4 14 L4 12 M79 104 L79 97 L79 85 L79 72 L79 62 L79 55 L79 53 L79 52 M103 103 L103 102 L103 99 L103 96 L103 94 L103 91 L103 86 L103 77 L103 72 L103 71 M126 99 L126 97 L126 90 L126 76 L126 68 L127 65 L127 64 L126 64 M147 117 L147 114 L149 108 L155 97 L169 70 L179 45 L191 21 L197 9 L200 3 L202 0 M163 118 L164 116 L167 114 L172 111 L177 108 L183 103 L185 101 L186 100 M43 130 L40 129 L37 128 L32 126 L25 122 L16 115 L9 111 L5 108 L3 106 L1 104 L0 104 " fill="none" stroke="black" /></svg>