<?xml version="1.0" encoding="utf-8" ?>
<svg baseProfile="tiny" height="178" version="1.2" viewBox="-3 -3 312 178" width="312" xmlns="http://www.w3.org/2000/svg" xmlns:ev="http://www.w3.org/2001/xml-events" xmlns:xlink="http://www.w3.org/1999/xlink"><defs /><path d="M40 162 L40 150 L40 110 L40 89 L42 84 L52 100 L70 142 L76 156 L80 158 L86 135 L89 113 L91 107 L92 121 L94 150 L96 164 L100 166 L116 133 L135 92 L143 82 L146 90 L147 118 L147 145 L148 150 L157 133 L173 101 L189 78 L203 72 L207 89 L208 120 L208 148 L207 160 L217 134 L231 101 L242 83 L251 79 L260 103 L265 136 L267 153 L269 157 L278 136 L292 87 L300 64 L304 57 L307 78 L308 115 L308 139 L308 142 L309 142 L310 147 L311 151 L312 155 " fill="none" stroke="black" /><path d="M40 162 L40 150 L40 110 L40 89 L42 84 L52 100 L70 142 L76 156 L80 158 L86 135 L89 113 L91 107 L92 121 L94 150 L96 164 L100 166 L116 133 L135 92 L143 82 L146 90 L147 118 L147 145 L148 150 L157 133 L173 101 L189 78 L203 72 L207 89 L208 120 L208 148 L207 160 L217 134 L231 101 L242 83 L251 79 L260 103 L265 136 L267 153 L269 157 L278 136 L292 87 L300 64 L304 57 L307 78 L308 115 L308 139 L308 142 L309 142 L310 147 L311 151 L312 155 M239 0 L239 17 L241 50 L241 83 L236 123 L230 132 L220 134 L199 109 L153 41 L132 12 L123 1 L125 10 L136 43 L148 80 L151 93 L152 95 L143 79 L125 56 L108 43 L100 53 L92 96 L83 140 L72 169 L66 178 L63 164 L56 114 L43 74 L36 60 L31 61 L26 94 L19 135 L9 166 L0 178 " fill="none" stroke="black" /></svg>