<?xml version="1.0" encoding="utf-8" ?>
<svg baseProfile="tiny" height="29" version="1.2" viewBox="-3 -3 284 29" width="284" xmlns="http://www.w3.org/2000/svg" xmlns:ev="http://www.w3.org/2001/xml-events" xmlns:xlink="http://www.w3.org/1999/xlink"><defs /><path d="M0 26 L1 24 L3 23 L5 21 L7 19 L8 17 L10 15 L12 14 L15 13 L17 12 L19 12 L21 12 L23 12 L25 12 L26 12 L29 12 L31 13 L33 14 L35 14 L37 16 L38 17 L40 18 L42 19 L45 21 L47 23 L49 24 L51 25 L54 26 L58 28 L61 29 L63 29 L66 29 L69 27 L72 25 L74 24 L75 23 L76 22 L77 21 L78 19 L79 18 L80 17 L81 15 L82 14 L84 13 L86 12 L88 12 L89 11 L91 11 L93 10 L96 9 L98 9 L100 9 L101 9 L104 9 L106 10 L107 11 L108 13 L109 14 L110 15 L112 18 L113 20 L115 22 L116 23 L119 24 L121 26 L124 27 L128 27 L133 27 L135 26 L136 25 L138 23 L139 22 L140 20 L141 18 L142 16 L144 14 L145 13 L147 12 L148 11 L150 10 L152 9 L154 9 L157 9 L160 9 L163 9 L167 9 L170 11 L173 12 L174 14 L175 16 L176 18 L177 20 L178 23 L179 24 L179 25 L180 26 L183 26 L185 27 L188 27 L190 27 L193 27 L195 26 L197 24 L199 23 L201 21 L203 18 L204 16 L205 14 L207 11 L208 9 L211 8 L213 7 L215 7 L218 7 L220 7 L223 9 L225 11 L226 12 L227 13 L228 15 L229 17 L231 21 L231 23 L232 24 L234 25 L238 26 L241 26 L244 26 L247 26 L249 25 L251 24 L253 22 L254 20 L255 17 L255 12 L256 8 L257 6 L258 3 L261 1 L265 1 L268 0 L271 3 L274 7 L277 11 L278 12 L278 13 L280 16 L282 20 L283 23 L284 24 " fill="none" stroke="black" /></svg>