<?xml version="1.0" encoding="utf-8" ?>
<svg baseProfile="tiny" height="150" version="1.2" viewBox="-3 -3 216 150" width="216" xmlns="http://www.w3.org/2000/svg" xmlns:ev="http://www.w3.org/2001/xml-events" xmlns:xlink="http://www.w3.org/1999/xlink"><defs /><path d="M104 109 L104 110 L104 117 L100 126 L90 135 L74 142 L52 146 L36 144 L26 137 L20 126 L17 100 L19 80 L25 72 L31 68 L37 68 L40 68 L39 71 L35 73 L31 76 L25 77 L18 76 L10 74 L4 71 L1 65 L0 49 L6 32 L15 19 L26 13 L42 12 L61 14 L69 17 L72 20 L72 24 L72 27 L72 29 L73 26 L76 19 L83 9 L93 4 L108 0 L123 0 L136 4 L145 14 L146 21 L143 27 L138 32 L134 37 L132 39 L134 36 L143 30 L157 27 L177 27 L190 32 L199 40 L205 49 L208 59 L208 70 L202 80 L195 86 L187 90 L182 91 L181 88 L184 86 L193 86 L204 90 L214 99 L216 107 L216 116 L213 127 L205 137 L189 146 L174 149 L163 150 L154 149 L151 148 L150 144 L151 140 L152 137 L153 137 L154 139 L149 144 L136 147 L120 149 L111 150 L106 150 L104 141 L102 132 L102 128 L102 126 L102 123 L101 121 L99 120 " fill="none" stroke="black" /></svg>