<?xml version="1.0" encoding="utf-8" ?>
<svg baseProfile="tiny" height="140" version="1.2" viewBox="-3 -3 129 140" width="129" xmlns="http://www.w3.org/2000/svg" xmlns:ev="http://www.w3.org/2001/xml-events" xmlns:xlink="http://www.w3.org/1999/xlink"><defs /><path d="M23 0 L22 2 L21 5 L18 9 L15 15 L12 22 L8 30 L5 37 L3 45 L2 53 L1 60 L0 68 L0 74 L0 81 L1 89 L3 95 L4 98 L5 101 L7 105 L8 107 L9 109 L10 112 L11 114 L12 116 L14 118 L16 120 L18 123 L21 126 L25 130 L29 132 L35 135 L39 137 L43 138 L47 139 L50 139 L55 140 L59 140 L64 140 L69 140 L76 140 L85 137 L92 135 L99 131 L107 124 L116 113 L122 102 L126 93 L128 88 L129 85 L129 83 L129 80 L129 78 L129 74 L129 71 L129 67 L128 63 L127 59 L127 56 L125 51 L121 43 L120 39 L118 35 L115 29 L113 25 L109 18 L107 14 L106 13 L105 11 L103 9 L103 8 L102 8 L101 8 L100 8 " fill="none" stroke="black" /><path d="M23 0 L22 2 L21 5 L18 9 L15 15 L12 22 L8 30 L5 37 L3 45 L2 53 L1 60 L0 68 L0 74 L0 81 L1 89 L3 95 L4 98 L5 101 L7 105 L8 107 L9 109 L10 112 L11 114 L12 116 L14 118 L16 120 L18 123 L21 126 L25 130 L29 132 L35 135 L39 137 L43 138 L47 139 L50 139 L55 140 L59 140 L64 140 L69 140 L76 140 L85 137 L92 135 L99 131 L107 124 L116 113 L122 102 L126 93 L128 88 L129 85 L129 83 L129 80 L129 78 L129 74 L129 71 L129 67 L128 63 L127 59 L127 56 L125 51 L121 43 L120 39 L118 35 L115 29 L113 25 L109 18 L107 14 L106 13 L105 11 L103 9 L103 8 L102 8 L101 8 L100 8 M71 25 L71 29 L72 35 L73 40 L74 44 L75 51 L76 56 L77 60 L78 64 L78 68 L78 72 L78 76 L78 78 L78 81 L76 84 L74 88 L72 91 L70 93 L68 96 L65 97 L62 99 L60 99 L57 99 L54 99 L51 99 L48 98 " fill="none" stroke="black" /><path d="M23 0 L22 2 L21 5 L18 9 L15 15 L12 22 L8 30 L5 37 L3 45 L2 53 L1 60 L0 68 L0 74 L0 81 L1 89 L3 95 L4 98 L5 101 L7 105 L8 107 L9 109 L10 112 L11 114 L12 116 L14 118 L16 120 L18 123 L21 126 L25 130 L29 132 L35 135 L39 137 L43 138 L47 139 L50 139 L55 140 L59 140 L64 140 L69 140 L76 140 L85 137 L92 135 L99 131 L107 124 L116 113 L122 102 L126 93 L128 88 L129 85 L129 83 L129 80 L129 78 L129 74 L129 71 L129 67 L128 63 L127 59 L127 56 L125 51 L121 43 L120 39 L118 35 L115 29 L113 25 L109 18 L107 14 L106 13 L105 11 L103 9 L103 8 L102 8 L101 8 L100 8 M71 25 L71 29 L72 35 L73 40 L74 44 L75 51 L76 56 L77 60 L78 64 L78 68 L78 72 L78 76 L78 78 L78 81 L76 84 L74 88 L72 91 L70 93 L68 96 L65 97 L62 99 L60 99 L57 99 L54 99 L51 99 L48 98 M42 75 L42 74 L42 73 L42 72 L42 71 " fill="none" stroke="black" /><path d="M23 0 L22 2 L21 5 L18 9 L15 15 L12 22 L8 30 L5 37 L3 45 L2 53 L1 60 L0 68 L0 74 L0 81 L1 89 L3 95 L4 98 L5 101 L7 105 L8 107 L9 109 L10 112 L11 114 L12 116 L14 118 L16 120 L18 123 L21 126 L25 130 L29 132 L35 135 L39 137 L43 138 L47 139 L50 139 L55 140 L59 140 L64 140 L69 140 L76 140 L85 137 L92 135 L99 131 L107 124 L116 113 L122 102 L126 93 L128 88 L129 85 L129 83 L129 80 L129 78 L129 74 L129 71 L129 67 L128 63 L127 59 L127 56 L125 51 L121 43 L120 39 L118 35 L115 29 L113 25 L109 18 L107 14 L106 13 L105 11 L103 9 L103 8 L102 8 L101 8 L100 8 M71 25 L71 29 L72 35 L73 40 L74 44 L75 51 L76 56 L77 60 L78 64 L78 68 L78 72 L78 76 L78 78 L78 81 L76 84 L74 88 L72 91 L70 93 L68 96 L65 97 L62 99 L60 99 L57 99 L54 99 L51 99 L48 98 M42 75 L42 74 L42 73 L42 72 L42 71 M65 23 L64 23 L62 25 L60 27 L56 30 L53 34 L48 40 L45 45 L44 48 L43 51 L43 54 L42 59 L42 63 L41 68 L41 72 L41 78 L41 81 L41 84 L41 86 L41 90 L41 94 L41 97 L42 98 L43 99 L44 101 L46 101 L49 101 L52 101 L54 99 L55 98 L56 95 " fill="none" stroke="black" /></svg>