<?xml version="1.0" encoding="utf-8" ?>
<svg baseProfile="tiny" height="97" version="1.2" viewBox="-3 -3 149 97" width="149" xmlns="http://www.w3.org/2000/svg" xmlns:ev="http://www.w3.org/2001/xml-events" xmlns:xlink="http://www.w3.org/1999/xlink"><defs /><path d="M82 97 L89 95 L96 93 L105 90 L111 87 L117 84 L123 80 L128 76 L134 70 L139 65 L142 60 L144 56 L146 52 L148 48 L148 45 L148 40 L149 36 L149 32 L149 28 L149 25 L149 22 L148 19 L148 17 L148 15 L148 14 L148 13 L148 12 L147 11 L147 10 L147 8 L147 7 L147 6 L147 4 L147 2 L147 1 L147 0 L146 0 " fill="none" stroke="black" /><path d="M82 97 L89 95 L96 93 L105 90 L111 87 L117 84 L123 80 L128 76 L134 70 L139 65 L142 60 L144 56 L146 52 L148 48 L148 45 L148 40 L149 36 L149 32 L149 28 L149 25 L149 22 L148 19 L148 17 L148 15 L148 14 L148 13 L148 12 L147 11 L147 10 L147 8 L147 7 L147 6 L147 4 L147 2 L147 1 L147 0 L146 0 M14 31 L18 31 L26 31 L35 31 L45 31 L56 30 L64 29 L71 28 L77 27 L86 25 L92 24 L98 22 L103 20 L105 18 L108 16 L109 15 L110 13 L110 11 L110 9 L108 6 L102 4 L96 3 L90 3 L86 3 L81 3 L78 3 L74 3 L69 3 L60 3 L53 3 L46 3 L40 3 L35 3 L29 3 L24 3 L19 4 L14 5 L11 6 L7 8 L4 9 L2 11 L1 12 L1 13 L0 14 L0 15 L1 17 L2 19 L3 22 L4 24 L6 26 L7 27 L8 27 L12 29 L14 30 L17 31 L19 31 " fill="none" stroke="black" /><path d="M82 97 L89 95 L96 93 L105 90 L111 87 L117 84 L123 80 L128 76 L134 70 L139 65 L142 60 L144 56 L146 52 L148 48 L148 45 L148 40 L149 36 L149 32 L149 28 L149 25 L149 22 L148 19 L148 17 L148 15 L148 14 L148 13 L148 12 L147 11 L147 10 L147 8 L147 7 L147 6 L147 4 L147 2 L147 1 L147 0 L146 0 M14 31 L18 31 L26 31 L35 31 L45 31 L56 30 L64 29 L71 28 L77 27 L86 25 L92 24 L98 22 L103 20 L105 18 L108 16 L109 15 L110 13 L110 11 L110 9 L108 6 L102 4 L96 3 L90 3 L86 3 L81 3 L78 3 L74 3 L69 3 L60 3 L53 3 L46 3 L40 3 L35 3 L29 3 L24 3 L19 4 L14 5 L11 6 L7 8 L4 9 L2 11 L1 12 L1 13 L0 14 L0 15 L1 17 L2 19 L3 22 L4 24 L6 26 L7 27 L8 27 L12 29 L14 30 L17 31 L19 31 M23 15 L24 15 L29 15 L35 15 L42 15 L47 15 L53 15 L60 14 L66 14 L70 14 L73 13 L75 13 L75 12 L74 12 L69 11 L64 10 L60 9 L57 9 L55 9 L53 9 L50 9 L47 9 L44 9 L42 9 L40 9 L38 9 L35 9 L33 9 L31 9 L29 10 L27 10 L26 11 L24 12 L23 13 L22 14 L21 15 L20 15 " fill="none" stroke="black" /><path d="M82 97 L89 95 L96 93 L105 90 L111 87 L117 84 L123 80 L128 76 L134 70 L139 65 L142 60 L144 56 L146 52 L148 48 L148 45 L148 40 L149 36 L149 32 L149 28 L149 25 L149 22 L148 19 L148 17 L148 15 L148 14 L148 13 L148 12 L147 11 L147 10 L147 8 L147 7 L147 6 L147 4 L147 2 L147 1 L147 0 L146 0 M14 31 L18 31 L26 31 L35 31 L45 31 L56 30 L64 29 L71 28 L77 27 L86 25 L92 24 L98 22 L103 20 L105 18 L108 16 L109 15 L110 13 L110 11 L110 9 L108 6 L102 4 L96 3 L90 3 L86 3 L81 3 L78 3 L74 3 L69 3 L60 3 L53 3 L46 3 L40 3 L35 3 L29 3 L24 3 L19 4 L14 5 L11 6 L7 8 L4 9 L2 11 L1 12 L1 13 L0 14 L0 15 L1 17 L2 19 L3 22 L4 24 L6 26 L7 27 L8 27 L12 29 L14 30 L17 31 L19 31 M23 15 L24 15 L29 15 L35 15 L42 15 L47 15 L53 15 L60 14 L66 14 L70 14 L73 13 L75 13 L75 12 L74 12 L69 11 L64 10 L60 9 L57 9 L55 9 L53 9 L50 9 L47 9 L44 9 L42 9 L40 9 L38 9 L35 9 L33 9 L31 9 L29 10 L27 10 L26 11 L24 12 L23 13 L22 14 L21 15 L20 15 M60 35 L60 36 L60 39 L60 43 L61 46 L62 49 L62 50 L63 52 L63 54 L63 55 L64 57 L64 60 L65 63 L65 65 L66 66 L67 67 L67 68 L68 69 L68 70 L69 70 " fill="none" stroke="black" /></svg>