<?xml version="1.0" encoding="utf-8" ?>
<svg baseProfile="tiny" height="103" version="1.2" viewBox="-3 -3 212 103" width="212" xmlns="http://www.w3.org/2000/svg" xmlns:ev="http://www.w3.org/2001/xml-events" xmlns:xlink="http://www.w3.org/1999/xlink"><defs /><path d="M124 84 L124 82 L125 81 L125 79 L125 77 L126 75 L126 72 L126 70 L126 68 L126 66 L126 64 L126 63 L126 62 L126 61 L126 60 L126 58 L126 57 L126 56 L126 55 L126 54 L127 53 L127 51 L128 50 L128 49 L128 48 L129 48 L129 47 L130 47 L131 46 L132 46 L133 45 L135 44 L137 44 L138 44 L140 44 L141 44 L143 44 L145 45 L146 46 L147 47 L149 47 L151 49 L152 50 L153 51 L155 52 L156 54 L157 55 L157 56 L158 58 L159 61 L160 64 L161 67 L161 69 L161 71 L161 73 L162 76 L163 79 L163 81 L163 82 L164 84 L165 86 L166 88 L167 90 L169 92 L171 95 L173 97 L177 99 L181 101 L186 102 L191 103 L195 103 L197 103 L200 102 L202 100 L205 96 L207 94 L208 91 L210 86 L211 81 L211 76 L211 71 L211 66 L211 62 L211 58 L211 55 L212 52 L212 51 L212 48 L212 44 L212 42 L212 40 L212 39 " fill="none" stroke="black" /><path d="M124 84 L124 82 L125 81 L125 79 L125 77 L126 75 L126 72 L126 70 L126 68 L126 66 L126 64 L126 63 L126 62 L126 61 L126 60 L126 58 L126 57 L126 56 L126 55 L126 54 L127 53 L127 51 L128 50 L128 49 L128 48 L129 48 L129 47 L130 47 L131 46 L132 46 L133 45 L135 44 L137 44 L138 44 L140 44 L141 44 L143 44 L145 45 L146 46 L147 47 L149 47 L151 49 L152 50 L153 51 L155 52 L156 54 L157 55 L157 56 L158 58 L159 61 L160 64 L161 67 L161 69 L161 71 L161 73 L162 76 L163 79 L163 81 L163 82 L164 84 L165 86 L166 88 L167 90 L169 92 L171 95 L173 97 L177 99 L181 101 L186 102 L191 103 L195 103 L197 103 L200 102 L202 100 L205 96 L207 94 L208 91 L210 86 L211 81 L211 76 L211 71 L211 66 L211 62 L211 58 L211 55 L212 52 L212 51 L212 48 L212 44 L212 42 L212 40 L212 39 M0 23 L0 22 L2 20 L4 17 L7 14 L10 11 L13 9 L15 7 L16 5 L20 4 L23 3 L26 1 L30 1 L34 0 L39 0 L41 0 L44 0 L47 0 L51 0 L55 1 L57 2 L58 3 L60 4 L62 6 L63 7 L63 10 L64 12 L65 15 L66 19 L68 22 L70 25 L73 28 L77 32 L80 33 L85 34 L89 34 L94 34 L98 31 L101 27 L104 23 L105 19 L108 15 L110 12 L113 9 L118 5 L122 3 L126 1 L132 0 L140 0 L147 0 L154 2 L159 5 L162 7 L163 9 L165 13 L168 19 L170 22 L171 23 " fill="none" stroke="black" /></svg>