<?xml version="1.0" encoding="utf-8" ?>
<svg baseProfile="tiny" height="209" version="1.2" viewBox="-3 -3 430 209" width="430" xmlns="http://www.w3.org/2000/svg" xmlns:ev="http://www.w3.org/2001/xml-events" xmlns:xlink="http://www.w3.org/1999/xlink"><defs /><path d="M227 128 L223 133 L215 144 L197 166 L179 185 L165 195 L157 201 L152 204 L151 205 L151 204 L148 195 L143 175 L137 147 L134 129 L133 124 L133 123 L132 123 L127 125 L113 128 L88 131 L51 131 L27 131 L10 131 L8 131 L7 128 L5 118 L1 96 L0 82 L0 73 L0 71 L8 71 L46 81 L72 87 L90 89 L95 89 L96 89 L96 87 L96 77 L90 54 L87 34 L86 19 L86 9 L86 7 L90 8 L106 19 L132 37 L156 51 L178 64 L188 70 L191 71 L192 71 L193 68 L198 61 L205 46 L209 31 L212 16 L212 6 L213 0 L214 0 L218 1 L227 7 L240 15 L284 36 L328 59 L351 72 L357 77 L358 79 L358 83 L354 87 L346 91 L339 93 L338 94 L339 94 L352 95 L379 105 L405 121 L422 134 L429 142 L430 147 L428 152 L422 158 L410 165 L385 174 L371 179 L364 186 L363 196 L363 205 L363 208 L363 209 L362 209 L359 203 L344 180 L323 157 L301 138 L292 133 L290 131 L289 138 L287 151 L285 166 L281 183 L274 196 L268 202 L265 204 L261 204 L255 200 L244 179 L235 164 L232 155 L229 143 L228 130 L227 125 L226 124 " fill="none" stroke="black" /></svg>