<?xml version="1.0" encoding="utf-8" ?>
<svg baseProfile="tiny" height="208" version="1.2" viewBox="-3 -3 74 208" width="74" xmlns="http://www.w3.org/2000/svg" xmlns:ev="http://www.w3.org/2001/xml-events" xmlns:xlink="http://www.w3.org/1999/xlink"><defs /><path d="M42 60 L42 63 L42 72 L42 83 L42 93 L42 97 L42 99 L41 103 L41 110 L40 121 L38 129 L37 135 L36 143 L36 152 L35 165 L35 176 L35 186 L35 194 L35 202 L35 207 L35 208 " fill="none" stroke="black" /><path d="M42 60 L42 63 L42 72 L42 83 L42 93 L42 97 L42 99 L41 103 L41 110 L40 121 L38 129 L37 135 L36 143 L36 152 L35 165 L35 176 L35 186 L35 194 L35 202 L35 207 L35 208 M53 98 L52 98 L46 98 L38 98 L30 98 L21 99 L17 100 L16 100 " fill="none" stroke="black" /><path d="M42 60 L42 63 L42 72 L42 83 L42 93 L42 97 L42 99 L41 103 L41 110 L40 121 L38 129 L37 135 L36 143 L36 152 L35 165 L35 176 L35 186 L35 194 L35 202 L35 207 L35 208 M53 98 L52 98 L46 98 L38 98 L30 98 L21 99 L17 100 L16 100 M14 100 L18 101 L24 104 L29 109 L34 117 L39 122 L43 126 L44 127 L44 128 L44 129 L41 130 L31 132 L20 133 L8 134 L5 135 L5 136 L7 138 L17 144 L24 148 L29 153 L31 155 L33 159 L34 164 L34 166 L34 168 L31 169 L27 170 L24 171 L23 172 L23 173 L30 174 L38 176 L43 178 L44 179 L44 180 L42 182 L37 185 L33 187 L31 188 L30 189 " fill="none" stroke="black" /><path d="M42 60 L42 63 L42 72 L42 83 L42 93 L42 97 L42 99 L41 103 L41 110 L40 121 L38 129 L37 135 L36 143 L36 152 L35 165 L35 176 L35 186 L35 194 L35 202 L35 207 L35 208 M53 98 L52 98 L46 98 L38 98 L30 98 L21 99 L17 100 L16 100 M14 100 L18 101 L24 104 L29 109 L34 117 L39 122 L43 126 L44 127 L44 128 L44 129 L41 130 L31 132 L20 133 L8 134 L5 135 L5 136 L7 138 L17 144 L24 148 L29 153 L31 155 L33 159 L34 164 L34 166 L34 168 L31 169 L27 170 L24 171 L23 172 L23 173 L30 174 L38 176 L43 178 L44 179 L44 180 L42 182 L37 185 L33 187 L31 188 L30 189 M60 40 L62 40 L64 39 L66 35 L71 28 L74 24 " fill="none" stroke="black" /><circle cx="65" cy="0" fill="black" r="1" /><path d="M42 60 L42 63 L42 72 L42 83 L42 93 L42 97 L42 99 L41 103 L41 110 L40 121 L38 129 L37 135 L36 143 L36 152 L35 165 L35 176 L35 186 L35 194 L35 202 L35 207 L35 208 M53 98 L52 98 L46 98 L38 98 L30 98 L21 99 L17 100 L16 100 M14 100 L18 101 L24 104 L29 109 L34 117 L39 122 L43 126 L44 127 L44 128 L44 129 L41 130 L31 132 L20 133 L8 134 L5 135 L5 136 L7 138 L17 144 L24 148 L29 153 L31 155 L33 159 L34 164 L34 166 L34 168 L31 169 L27 170 L24 171 L23 172 L23 173 L30 174 L38 176 L43 178 L44 179 L44 180 L42 182 L37 185 L33 187 L31 188 L30 189 M60 40 L62 40 L64 39 L66 35 L71 28 L74 24 M65 0 L65 1 L64 7 L61 13 L58 17 L57 20 L54 23 L53 25 " fill="none" stroke="black" /><path d="M42 60 L42 63 L42 72 L42 83 L42 93 L42 97 L42 99 L41 103 L41 110 L40 121 L38 129 L37 135 L36 143 L36 152 L35 165 L35 176 L35 186 L35 194 L35 202 L35 207 L35 208 M53 98 L52 98 L46 98 L38 98 L30 98 L21 99 L17 100 L16 100 M14 100 L18 101 L24 104 L29 109 L34 117 L39 122 L43 126 L44 127 L44 128 L44 129 L41 130 L31 132 L20 133 L8 134 L5 135 L5 136 L7 138 L17 144 L24 148 L29 153 L31 155 L33 159 L34 164 L34 166 L34 168 L31 169 L27 170 L24 171 L23 172 L23 173 L30 174 L38 176 L43 178 L44 179 L44 180 L42 182 L37 185 L33 187 L31 188 L30 189 M60 40 L62 40 L64 39 L66 35 L71 28 L74 24 M65 0 L65 1 L64 7 L61 13 L58 17 L57 20 L54 23 L53 25 M20 2 L21 3 L22 7 L25 14 L29 28 L31 35 " fill="none" stroke="black" /><circle cx="18" cy="57" fill="black" r="1" /><path d="M42 60 L42 63 L42 72 L42 83 L42 93 L42 97 L42 99 L41 103 L41 110 L40 121 L38 129 L37 135 L36 143 L36 152 L35 165 L35 176 L35 186 L35 194 L35 202 L35 207 L35 208 M53 98 L52 98 L46 98 L38 98 L30 98 L21 99 L17 100 L16 100 M14 100 L18 101 L24 104 L29 109 L34 117 L39 122 L43 126 L44 127 L44 128 L44 129 L41 130 L31 132 L20 133 L8 134 L5 135 L5 136 L7 138 L17 144 L24 148 L29 153 L31 155 L33 159 L34 164 L34 166 L34 168 L31 169 L27 170 L24 171 L23 172 L23 173 L30 174 L38 176 L43 178 L44 179 L44 180 L42 182 L37 185 L33 187 L31 188 L30 189 M60 40 L62 40 L64 39 L66 35 L71 28 L74 24 M65 0 L65 1 L64 7 L61 13 L58 17 L57 20 L54 23 L53 25 M20 2 L21 3 L22 7 L25 14 L29 28 L31 35 M18 56 L18 55 L17 53 L13 49 L9 43 L5 34 L2 29 L1 26 L0 26 " fill="none" stroke="black" /></svg>