<?xml version="1.0" encoding="utf-8" ?>
<svg baseProfile="tiny" height="182" version="1.2" viewBox="-3 -3 101 182" width="101" xmlns="http://www.w3.org/2000/svg" xmlns:ev="http://www.w3.org/2001/xml-events" xmlns:xlink="http://www.w3.org/1999/xlink"><defs /><path d="M0 18 L3 24 L8 39 L11 62 L13 79 L13 89 L13 90 L14 90 L15 91 L17 92 L17 94 L15 100 L11 117 L9 128 L8 135 L8 137 L9 138 L20 140 L28 142 L34 143 L36 144 L36 145 L35 147 L32 150 L30 153 L29 155 L29 157 L34 160 L40 162 L47 165 L51 168 L53 169 L53 172 L52 176 L50 180 L48 181 L48 182 " fill="none" stroke="black" /><path d="M0 18 L3 24 L8 39 L11 62 L13 79 L13 89 L13 90 L14 90 L15 91 L17 92 L17 94 L15 100 L11 117 L9 128 L8 135 L8 137 L9 138 L20 140 L28 142 L34 143 L36 144 L36 145 L35 147 L32 150 L30 153 L29 155 L29 157 L34 160 L40 162 L47 165 L51 168 L53 169 L53 172 L52 176 L50 180 L48 181 L48 182 M58 0 L63 3 L73 11 L84 22 L90 29 L91 32 L91 35 L90 38 L85 44 L79 50 L74 56 L72 58 L72 59 L71 61 L71 62 L70 63 L70 64 L74 67 L80 73 L84 81 L84 86 L80 91 L73 98 L69 103 L68 105 L69 106 L76 110 L86 113 L91 116 L91 117 L91 120 L89 127 L85 135 L83 140 L83 144 L83 147 L89 151 L95 155 L98 159 L100 162 L101 164 L101 165 " fill="none" stroke="black" /></svg>