<?xml version="1.0" encoding="utf-8" ?>
<svg baseProfile="tiny" height="107" version="1.2" viewBox="-3 -3 120 107" width="120" xmlns="http://www.w3.org/2000/svg" xmlns:ev="http://www.w3.org/2001/xml-events" xmlns:xlink="http://www.w3.org/1999/xlink"><defs /><path d="M49 47 L50 47 L53 47 L58 46 L61 46 L63 46 L64 47 L65 48 L66 49 L67 49 L67 50 L69 53 L69 55 L69 56 L69 57 L69 58 L69 61 L67 63 L66 65 L63 67 L60 68 L56 70 L53 71 L50 72 L47 72 L45 72 L42 72 L40 71 L38 70 L37 68 L35 66 L34 63 L33 60 L33 56 L33 54 L33 52 L34 48 L36 45 L38 43 L40 40 L42 38 L44 35 L46 34 L49 32 L51 32 L54 31 L57 30 L61 30 L66 30 L69 30 L74 30 L79 32 L84 34 L88 37 L92 41 L94 46 L96 50 L98 56 L99 62 L99 68 L99 73 L98 77 L96 82 L94 85 L90 89 L86 91 L83 93 L79 95 L76 97 L71 99 L67 101 L62 101 L57 102 L52 102 L46 101 L41 100 L34 97 L28 94 L20 89 L15 85 L10 80 L7 76 L4 72 L2 66 L1 62 L0 58 L0 53 L1 48 L2 42 L6 33 L10 27 L14 22 L18 18 L23 13 L30 8 L35 4 L40 2 L46 1 L52 1 L63 0 L71 0 L78 0 L84 1 L92 4 L96 6 L100 8 L103 11 L107 14 L111 18 L113 23 L115 28 L117 33 L118 38 L119 43 L120 47 L120 52 L120 58 L120 64 L119 70 L118 75 L116 80 L114 84 L111 89 L109 92 L107 95 L105 98 L103 100 L101 102 L98 104 L96 105 L95 106 L95 107 " fill="none" stroke="black" /></svg>