<?xml version="1.0" encoding="utf-8" ?>
<svg baseProfile="tiny" height="280" version="1.2" viewBox="-3 -3 150 280" width="150" xmlns="http://www.w3.org/2000/svg" xmlns:ev="http://www.w3.org/2001/xml-events" xmlns:xlink="http://www.w3.org/1999/xlink"><defs /><path d="M16 0 L16 2 L16 6 L16 10 L19 16 L21 27 L22 37 L25 48 L27 60 L28 72 L32 90 L35 102 L39 113 L44 125 L48 135 L51 145 L52 152 L54 159 L56 167 L58 175 L60 182 L61 188 L63 192 L64 196 L65 201 L66 206 L67 208 L67 209 L67 212 L68 213 L68 214 L68 215 L68 221 L69 228 L69 232 L69 233 L69 232 L69 230 L72 222 L72 220 " fill="none" stroke="black" /><path d="M16 0 L16 2 L16 6 L16 10 L19 16 L21 27 L22 37 L25 48 L27 60 L28 72 L32 90 L35 102 L39 113 L44 125 L48 135 L51 145 L52 152 L54 159 L56 167 L58 175 L60 182 L61 188 L63 192 L64 196 L65 201 L66 206 L67 208 L67 209 L67 212 L68 213 L68 214 L68 215 L68 221 L69 228 L69 232 L69 233 L69 232 L69 230 L72 222 L72 220 M0 76 L3 76 L12 76 L27 76 L37 76 L42 76 L44 76 L44 80 L42 91 L38 107 L34 116 L30 121 L28 124 L28 125 L29 125 L38 125 L47 125 L53 125 L55 127 L55 133 L52 141 L47 150 L43 158 L42 161 L43 164 L49 168 L58 170 L66 171 L68 171 L69 171 L69 173 L66 180 L60 191 L56 198 L54 200 L54 202 L55 202 L65 204 L77 205 L80 206 L81 207 L81 213 L79 222 L77 231 L76 237 L76 239 L81 241 L91 242 L99 243 L105 244 L107 246 L107 251 L107 257 L107 260 L107 262 L109 264 L117 266 L122 267 L123 267 " fill="none" stroke="black" /><path d="M16 0 L16 2 L16 6 L16 10 L19 16 L21 27 L22 37 L25 48 L27 60 L28 72 L32 90 L35 102 L39 113 L44 125 L48 135 L51 145 L52 152 L54 159 L56 167 L58 175 L60 182 L61 188 L63 192 L64 196 L65 201 L66 206 L67 208 L67 209 L67 212 L68 213 L68 214 L68 215 L68 221 L69 228 L69 232 L69 233 L69 232 L69 230 L72 222 L72 220 M0 76 L3 76 L12 76 L27 76 L37 76 L42 76 L44 76 L44 80 L42 91 L38 107 L34 116 L30 121 L28 124 L28 125 L29 125 L38 125 L47 125 L53 125 L55 127 L55 133 L52 141 L47 150 L43 158 L42 161 L43 164 L49 168 L58 170 L66 171 L68 171 L69 171 L69 173 L66 180 L60 191 L56 198 L54 200 L54 202 L55 202 L65 204 L77 205 L80 206 L81 207 L81 213 L79 222 L77 231 L76 237 L76 239 L81 241 L91 242 L99 243 L105 244 L107 246 L107 251 L107 257 L107 260 L107 262 L109 264 L117 266 L122 267 L123 267 M150 276 L150 275 L147 272 L145 269 L141 264 L138 260 L136 257 L135 256 L135 255 " fill="none" stroke="black" /><path d="M16 0 L16 2 L16 6 L16 10 L19 16 L21 27 L22 37 L25 48 L27 60 L28 72 L32 90 L35 102 L39 113 L44 125 L48 135 L51 145 L52 152 L54 159 L56 167 L58 175 L60 182 L61 188 L63 192 L64 196 L65 201 L66 206 L67 208 L67 209 L67 212 L68 213 L68 214 L68 215 L68 221 L69 228 L69 232 L69 233 L69 232 L69 230 L72 222 L72 220 M0 76 L3 76 L12 76 L27 76 L37 76 L42 76 L44 76 L44 80 L42 91 L38 107 L34 116 L30 121 L28 124 L28 125 L29 125 L38 125 L47 125 L53 125 L55 127 L55 133 L52 141 L47 150 L43 158 L42 161 L43 164 L49 168 L58 170 L66 171 L68 171 L69 171 L69 173 L66 180 L60 191 L56 198 L54 200 L54 202 L55 202 L65 204 L77 205 L80 206 L81 207 L81 213 L79 222 L77 231 L76 237 L76 239 L81 241 L91 242 L99 243 L105 244 L107 246 L107 251 L107 257 L107 260 L107 262 L109 264 L117 266 L122 267 L123 267 M150 276 L150 275 L147 272 L145 269 L141 264 L138 260 L136 257 L135 256 L135 255 M145 280 L142 280 L133 280 L116 277 L99 274 L86 272 L84 272 L84 271 " fill="none" stroke="black" /></svg>