<?xml version="1.0" encoding="utf-8" ?>
<svg baseProfile="tiny" height="261" version="1.2" viewBox="-3 -3 188 261" width="188" xmlns="http://www.w3.org/2000/svg" xmlns:ev="http://www.w3.org/2001/xml-events" xmlns:xlink="http://www.w3.org/1999/xlink"><defs /><path d="M65 99 L61 99 L49 99 L25 101 L13 105 L8 109 L6 110 L7 111 L18 113 L36 118 L47 121 L52 124 L54 125 L55 125 L52 126 L43 131 L26 141 L12 148 L2 152 L0 153 L0 154 L9 156 L23 158 L34 160 L42 162 L49 165 L51 166 L52 167 L49 170 L41 174 L33 180 L28 183 L26 186 L26 188 L26 191 L29 194 L41 200 L71 213 L87 218 L94 219 L95 220 " fill="none" stroke="black" /><path d="M65 99 L61 99 L49 99 L25 101 L13 105 L8 109 L6 110 L7 111 L18 113 L36 118 L47 121 L52 124 L54 125 L55 125 L52 126 L43 131 L26 141 L12 148 L2 152 L0 153 L0 154 L9 156 L23 158 L34 160 L42 162 L49 165 L51 166 L52 167 L49 170 L41 174 L33 180 L28 183 L26 186 L26 188 L26 191 L29 194 L41 200 L71 213 L87 218 L94 219 L95 220 M117 95 L118 95 L122 95 L138 96 L161 99 L177 101 L183 103 L182 105 L173 110 L164 116 L155 122 L145 130 L141 132 L140 133 L143 133 L157 133 L165 133 L168 135 L168 136 L159 140 L151 143 L145 148 L144 151 L146 156 L164 165 L178 171 L186 175 L188 176 L188 178 L188 182 L179 192 L163 204 L151 211 L147 213 " fill="none" stroke="black" /><path d="M65 99 L61 99 L49 99 L25 101 L13 105 L8 109 L6 110 L7 111 L18 113 L36 118 L47 121 L52 124 L54 125 L55 125 L52 126 L43 131 L26 141 L12 148 L2 152 L0 153 L0 154 L9 156 L23 158 L34 160 L42 162 L49 165 L51 166 L52 167 L49 170 L41 174 L33 180 L28 183 L26 186 L26 188 L26 191 L29 194 L41 200 L71 213 L87 218 L94 219 L95 220 M117 95 L118 95 L122 95 L138 96 L161 99 L177 101 L183 103 L182 105 L173 110 L164 116 L155 122 L145 130 L141 132 L140 133 L143 133 L157 133 L165 133 L168 135 L168 136 L159 140 L151 143 L145 148 L144 151 L146 156 L164 165 L178 171 L186 175 L188 176 L188 178 L188 182 L179 192 L163 204 L151 211 L147 213 M86 0 L86 1 L86 7 L86 21 L86 46 L89 70 L91 95 L94 116 L95 142 L96 163 L96 175 L97 188 L98 199 L99 209 L100 224 L101 234 L102 243 L103 251 L104 254 L104 256 L104 259 L104 261 L105 260 " fill="none" stroke="black" /></svg>