<?xml version="1.0" encoding="utf-8" ?>
<svg baseProfile="tiny" height="456" version="1.2" viewBox="-3 -3 639 456" width="639" xmlns="http://www.w3.org/2000/svg" xmlns:ev="http://www.w3.org/2001/xml-events" xmlns:xlink="http://www.w3.org/1999/xlink"><defs /><path d="M127 120 L136 117 L152 116 L171 118 L189 127 L203 136 L209 144 L210 154 L207 167 L193 174 L174 176 L151 177 L136 174 L124 162 L121 154 L122 145 L129 134 L136 128 L142 125 L148 121 L149 121 " fill="none" stroke="black" /><path d="M127 120 L136 117 L152 116 L171 118 L189 127 L203 136 L209 144 L210 154 L207 167 L193 174 L174 176 L151 177 L136 174 L124 162 L121 154 L122 145 L129 134 L136 128 L142 125 L148 121 L149 121 M415 143 L397 152 L386 166 L385 183 L399 198 L422 208 L447 208 L470 196 L486 183 L486 168 L465 147 L448 138 L429 133 L411 131 L402 131 " fill="none" stroke="black" /><path d="M127 120 L136 117 L152 116 L171 118 L189 127 L203 136 L209 144 L210 154 L207 167 L193 174 L174 176 L151 177 L136 174 L124 162 L121 154 L122 145 L129 134 L136 128 L142 125 L148 121 L149 121 M415 143 L397 152 L386 166 L385 183 L399 198 L422 208 L447 208 L470 196 L486 183 L486 168 L465 147 L448 138 L429 133 L411 131 L402 131 M256 217 L245 224 L227 240 L217 263 L220 281 L245 296 L274 299 L300 288 L309 266 L304 243 L289 223 L276 220 L264 220 L261 219 " fill="none" stroke="black" /><path d="M127 120 L136 117 L152 116 L171 118 L189 127 L203 136 L209 144 L210 154 L207 167 L193 174 L174 176 L151 177 L136 174 L124 162 L121 154 L122 145 L129 134 L136 128 L142 125 L148 121 L149 121 M415 143 L397 152 L386 166 L385 183 L399 198 L422 208 L447 208 L470 196 L486 183 L486 168 L465 147 L448 138 L429 133 L411 131 L402 131 M256 217 L245 224 L227 240 L217 263 L220 281 L245 296 L274 299 L300 288 L309 266 L304 243 L289 223 L276 220 L264 220 L261 219 M86 269 L74 285 L60 308 L58 333 L69 346 L88 350 L104 344 L120 320 L125 294 L125 278 L119 266 L99 255 L84 254 L81 254 " fill="none" stroke="black" /><path d="M127 120 L136 117 L152 116 L171 118 L189 127 L203 136 L209 144 L210 154 L207 167 L193 174 L174 176 L151 177 L136 174 L124 162 L121 154 L122 145 L129 134 L136 128 L142 125 L148 121 L149 121 M415 143 L397 152 L386 166 L385 183 L399 198 L422 208 L447 208 L470 196 L486 183 L486 168 L465 147 L448 138 L429 133 L411 131 L402 131 M256 217 L245 224 L227 240 L217 263 L220 281 L245 296 L274 299 L300 288 L309 266 L304 243 L289 223 L276 220 L264 220 L261 219 M86 269 L74 285 L60 308 L58 333 L69 346 L88 350 L104 344 L120 320 L125 294 L125 278 L119 266 L99 255 L84 254 L81 254 M447 278 L423 283 L399 297 L382 324 L384 347 L404 363 L437 372 L466 368 L475 346 L472 312 L460 297 L435 289 L413 287 L411 287 " fill="none" stroke="black" /><path d="M127 120 L136 117 L152 116 L171 118 L189 127 L203 136 L209 144 L210 154 L207 167 L193 174 L174 176 L151 177 L136 174 L124 162 L121 154 L122 145 L129 134 L136 128 L142 125 L148 121 L149 121 M415 143 L397 152 L386 166 L385 183 L399 198 L422 208 L447 208 L470 196 L486 183 L486 168 L465 147 L448 138 L429 133 L411 131 L402 131 M256 217 L245 224 L227 240 L217 263 L220 281 L245 296 L274 299 L300 288 L309 266 L304 243 L289 223 L276 220 L264 220 L261 219 M86 269 L74 285 L60 308 L58 333 L69 346 L88 350 L104 344 L120 320 L125 294 L125 278 L119 266 L99 255 L84 254 L81 254 M447 278 L423 283 L399 297 L382 324 L384 347 L404 363 L437 372 L466 368 L475 346 L472 312 L460 297 L435 289 L413 287 L411 287 M512 0 L499 6 L482 24 L476 54 L490 80 L517 93 L541 86 L546 59 L547 33 L538 15 L518 5 L505 4 L503 4 " fill="none" stroke="black" /><path d="M127 120 L136 117 L152 116 L171 118 L189 127 L203 136 L209 144 L210 154 L207 167 L193 174 L174 176 L151 177 L136 174 L124 162 L121 154 L122 145 L129 134 L136 128 L142 125 L148 121 L149 121 M415 143 L397 152 L386 166 L385 183 L399 198 L422 208 L447 208 L470 196 L486 183 L486 168 L465 147 L448 138 L429 133 L411 131 L402 131 M256 217 L245 224 L227 240 L217 263 L220 281 L245 296 L274 299 L300 288 L309 266 L304 243 L289 223 L276 220 L264 220 L261 219 M86 269 L74 285 L60 308 L58 333 L69 346 L88 350 L104 344 L120 320 L125 294 L125 278 L119 266 L99 255 L84 254 L81 254 M447 278 L423 283 L399 297 L382 324 L384 347 L404 363 L437 372 L466 368 L475 346 L472 312 L460 297 L435 289 L413 287 L411 287 M512 0 L499 6 L482 24 L476 54 L490 80 L517 93 L541 86 L546 59 L547 33 L538 15 L518 5 L505 4 L503 4 M293 56 L287 62 L279 76 L281 102 L297 121 L317 125 L331 121 L333 101 L334 73 L323 59 L302 48 L289 46 L283 46 L282 46 " fill="none" stroke="black" /><path d="M127 120 L136 117 L152 116 L171 118 L189 127 L203 136 L209 144 L210 154 L207 167 L193 174 L174 176 L151 177 L136 174 L124 162 L121 154 L122 145 L129 134 L136 128 L142 125 L148 121 L149 121 M415 143 L397 152 L386 166 L385 183 L399 198 L422 208 L447 208 L470 196 L486 183 L486 168 L465 147 L448 138 L429 133 L411 131 L402 131 M256 217 L245 224 L227 240 L217 263 L220 281 L245 296 L274 299 L300 288 L309 266 L304 243 L289 223 L276 220 L264 220 L261 219 M86 269 L74 285 L60 308 L58 333 L69 346 L88 350 L104 344 L120 320 L125 294 L125 278 L119 266 L99 255 L84 254 L81 254 M447 278 L423 283 L399 297 L382 324 L384 347 L404 363 L437 372 L466 368 L475 346 L472 312 L460 297 L435 289 L413 287 L411 287 M512 0 L499 6 L482 24 L476 54 L490 80 L517 93 L541 86 L546 59 L547 33 L538 15 L518 5 L505 4 L503 4 M293 56 L287 62 L279 76 L281 102 L297 121 L317 125 L331 121 L333 101 L334 73 L323 59 L302 48 L289 46 L283 46 L282 46 M22 118 L9 131 L0 151 L0 170 L19 184 L49 185 L70 174 L78 155 L67 130 L47 108 L34 104 L27 104 L27 106 " fill="none" stroke="black" /><path d="M127 120 L136 117 L152 116 L171 118 L189 127 L203 136 L209 144 L210 154 L207 167 L193 174 L174 176 L151 177 L136 174 L124 162 L121 154 L122 145 L129 134 L136 128 L142 125 L148 121 L149 121 M415 143 L397 152 L386 166 L385 183 L399 198 L422 208 L447 208 L470 196 L486 183 L486 168 L465 147 L448 138 L429 133 L411 131 L402 131 M256 217 L245 224 L227 240 L217 263 L220 281 L245 296 L274 299 L300 288 L309 266 L304 243 L289 223 L276 220 L264 220 L261 219 M86 269 L74 285 L60 308 L58 333 L69 346 L88 350 L104 344 L120 320 L125 294 L125 278 L119 266 L99 255 L84 254 L81 254 M447 278 L423 283 L399 297 L382 324 L384 347 L404 363 L437 372 L466 368 L475 346 L472 312 L460 297 L435 289 L413 287 L411 287 M512 0 L499 6 L482 24 L476 54 L490 80 L517 93 L541 86 L546 59 L547 33 L538 15 L518 5 L505 4 L503 4 M293 56 L287 62 L279 76 L281 102 L297 121 L317 125 L331 121 L333 101 L334 73 L323 59 L302 48 L289 46 L283 46 L282 46 M22 118 L9 131 L0 151 L0 170 L19 184 L49 185 L70 174 L78 155 L67 130 L47 108 L34 104 L27 104 L27 106 M264 372 L249 377 L229 390 L214 406 L221 429 L245 446 L280 456 L311 451 L322 428 L315 408 L300 396 L268 385 L254 384 L254 383 " fill="none" stroke="black" /><path d="M127 120 L136 117 L152 116 L171 118 L189 127 L203 136 L209 144 L210 154 L207 167 L193 174 L174 176 L151 177 L136 174 L124 162 L121 154 L122 145 L129 134 L136 128 L142 125 L148 121 L149 121 M415 143 L397 152 L386 166 L385 183 L399 198 L422 208 L447 208 L470 196 L486 183 L486 168 L465 147 L448 138 L429 133 L411 131 L402 131 M256 217 L245 224 L227 240 L217 263 L220 281 L245 296 L274 299 L300 288 L309 266 L304 243 L289 223 L276 220 L264 220 L261 219 M86 269 L74 285 L60 308 L58 333 L69 346 L88 350 L104 344 L120 320 L125 294 L125 278 L119 266 L99 255 L84 254 L81 254 M447 278 L423 283 L399 297 L382 324 L384 347 L404 363 L437 372 L466 368 L475 346 L472 312 L460 297 L435 289 L413 287 L411 287 M512 0 L499 6 L482 24 L476 54 L490 80 L517 93 L541 86 L546 59 L547 33 L538 15 L518 5 L505 4 L503 4 M293 56 L287 62 L279 76 L281 102 L297 121 L317 125 L331 121 L333 101 L334 73 L323 59 L302 48 L289 46 L283 46 L282 46 M22 118 L9 131 L0 151 L0 170 L19 184 L49 185 L70 174 L78 155 L67 130 L47 108 L34 104 L27 104 L27 106 M264 372 L249 377 L229 390 L214 406 L221 429 L245 446 L280 456 L311 451 L322 428 L315 408 L300 396 L268 385 L254 384 L254 383 M593 246 L581 244 L568 243 L552 257 L538 278 L535 304 L546 328 L575 342 L607 345 L623 330 L634 308 L639 287 L621 266 L592 258 L570 258 L557 258 L557 260 " fill="none" stroke="black" /></svg>