<?xml version="1.0" encoding="utf-8" ?>
<svg baseProfile="tiny" height="213" version="1.2" viewBox="-3 -3 281 213" width="281" xmlns="http://www.w3.org/2000/svg" xmlns:ev="http://www.w3.org/2001/xml-events" xmlns:xlink="http://www.w3.org/1999/xlink"><defs /><path d="M119 3 L91 9 L53 25 L23 52 L1 83 L0 129 L10 165 L30 186 L64 203 L114 213 L172 212 L224 197 L261 165 L277 121 L281 88 L254 50 L216 23 L183 13 L150 5 L115 0 L95 3 L92 3 " fill="none" stroke="black" /><path d="M119 3 L91 9 L53 25 L23 52 L1 83 L0 129 L10 165 L30 186 L64 203 L114 213 L172 212 L224 197 L261 165 L277 121 L281 88 L254 50 L216 23 L183 13 L150 5 L115 0 L95 3 L92 3 M133 101 L138 101 L142 101 L146 105 L146 111 L138 115 L130 115 L129 115 L128 115 L128 110 " fill="none" stroke="black" /><path d="M119 3 L91 9 L53 25 L23 52 L1 83 L0 129 L10 165 L30 186 L64 203 L114 213 L172 212 L224 197 L261 165 L277 121 L281 88 L254 50 L216 23 L183 13 L150 5 L115 0 L95 3 L92 3 M133 101 L138 101 L142 101 L146 105 L146 111 L138 115 L130 115 L129 115 L128 115 L128 110 M141 98 L145 89 L159 74 L176 58 L184 50 L184 49 L184 48 " fill="none" stroke="black" /><path d="M119 3 L91 9 L53 25 L23 52 L1 83 L0 129 L10 165 L30 186 L64 203 L114 213 L172 212 L224 197 L261 165 L277 121 L281 88 L254 50 L216 23 L183 13 L150 5 L115 0 L95 3 L92 3 M133 101 L138 101 L142 101 L146 105 L146 111 L138 115 L130 115 L129 115 L128 115 L128 110 M141 98 L145 89 L159 74 L176 58 L184 50 L184 49 L184 48 M157 39 L174 39 L196 38 L205 37 L205 38 L205 55 L205 71 L205 78 L206 78 L208 78 " fill="none" stroke="black" /><path d="M119 3 L91 9 L53 25 L23 52 L1 83 L0 129 L10 165 L30 186 L64 203 L114 213 L172 212 L224 197 L261 165 L277 121 L281 88 L254 50 L216 23 L183 13 L150 5 L115 0 L95 3 L92 3 M133 101 L138 101 L142 101 L146 105 L146 111 L138 115 L130 115 L129 115 L128 115 L128 110 M141 98 L145 89 L159 74 L176 58 L184 50 L184 49 L184 48 M157 39 L174 39 L196 38 L205 37 L205 38 L205 55 L205 71 L205 78 L206 78 L208 78 M114 115 L112 119 L103 130 L88 145 L76 156 L75 158 L74 156 " fill="none" stroke="black" /><path d="M119 3 L91 9 L53 25 L23 52 L1 83 L0 129 L10 165 L30 186 L64 203 L114 213 L172 212 L224 197 L261 165 L277 121 L281 88 L254 50 L216 23 L183 13 L150 5 L115 0 L95 3 L92 3 M133 101 L138 101 L142 101 L146 105 L146 111 L138 115 L130 115 L129 115 L128 115 L128 110 M141 98 L145 89 L159 74 L176 58 L184 50 L184 49 L184 48 M157 39 L174 39 L196 38 L205 37 L205 38 L205 55 L205 71 L205 78 L206 78 L208 78 M114 115 L112 119 L103 130 L88 145 L76 156 L75 158 L74 156 M63 134 L62 146 L61 158 L62 171 L69 179 L77 180 L89 176 L100 167 L107 162 L108 161 " fill="none" stroke="black" /><path d="M119 3 L91 9 L53 25 L23 52 L1 83 L0 129 L10 165 L30 186 L64 203 L114 213 L172 212 L224 197 L261 165 L277 121 L281 88 L254 50 L216 23 L183 13 L150 5 L115 0 L95 3 L92 3 M133 101 L138 101 L142 101 L146 105 L146 111 L138 115 L130 115 L129 115 L128 115 L128 110 M141 98 L145 89 L159 74 L176 58 L184 50 L184 49 L184 48 M157 39 L174 39 L196 38 L205 37 L205 38 L205 55 L205 71 L205 78 L206 78 L208 78 M114 115 L112 119 L103 130 L88 145 L76 156 L75 158 L74 156 M63 134 L62 146 L61 158 L62 171 L69 179 L77 180 L89 176 L100 167 L107 162 L108 161 M113 95 L108 92 L94 80 L80 66 L73 61 L71 61 " fill="none" stroke="black" /><path d="M119 3 L91 9 L53 25 L23 52 L1 83 L0 129 L10 165 L30 186 L64 203 L114 213 L172 212 L224 197 L261 165 L277 121 L281 88 L254 50 L216 23 L183 13 L150 5 L115 0 L95 3 L92 3 M133 101 L138 101 L142 101 L146 105 L146 111 L138 115 L130 115 L129 115 L128 115 L128 110 M141 98 L145 89 L159 74 L176 58 L184 50 L184 49 L184 48 M157 39 L174 39 L196 38 L205 37 L205 38 L205 55 L205 71 L205 78 L206 78 L208 78 M114 115 L112 119 L103 130 L88 145 L76 156 L75 158 L74 156 M63 134 L62 146 L61 158 L62 171 L69 179 L77 180 L89 176 L100 167 L107 162 L108 161 M113 95 L108 92 L94 80 L80 66 L73 61 L71 61 M60 47 L55 57 L50 71 L50 88 L55 93 L60 87 L63 67 L65 41 L67 29 L74 34 L88 46 L97 52 L100 53 " fill="none" stroke="black" /><path d="M119 3 L91 9 L53 25 L23 52 L1 83 L0 129 L10 165 L30 186 L64 203 L114 213 L172 212 L224 197 L261 165 L277 121 L281 88 L254 50 L216 23 L183 13 L150 5 L115 0 L95 3 L92 3 M133 101 L138 101 L142 101 L146 105 L146 111 L138 115 L130 115 L129 115 L128 115 L128 110 M141 98 L145 89 L159 74 L176 58 L184 50 L184 49 L184 48 M157 39 L174 39 L196 38 L205 37 L205 38 L205 55 L205 71 L205 78 L206 78 L208 78 M114 115 L112 119 L103 130 L88 145 L76 156 L75 158 L74 156 M63 134 L62 146 L61 158 L62 171 L69 179 L77 180 L89 176 L100 167 L107 162 L108 161 M113 95 L108 92 L94 80 L80 66 L73 61 L71 61 M60 47 L55 57 L50 71 L50 88 L55 93 L60 87 L63 67 L65 41 L67 29 L74 34 L88 46 L97 52 L100 53 M152 116 L164 124 L188 138 L211 149 L218 151 " fill="none" stroke="black" /><path d="M119 3 L91 9 L53 25 L23 52 L1 83 L0 129 L10 165 L30 186 L64 203 L114 213 L172 212 L224 197 L261 165 L277 121 L281 88 L254 50 L216 23 L183 13 L150 5 L115 0 L95 3 L92 3 M133 101 L138 101 L142 101 L146 105 L146 111 L138 115 L130 115 L129 115 L128 115 L128 110 M141 98 L145 89 L159 74 L176 58 L184 50 L184 49 L184 48 M157 39 L174 39 L196 38 L205 37 L205 38 L205 55 L205 71 L205 78 L206 78 L208 78 M114 115 L112 119 L103 130 L88 145 L76 156 L75 158 L74 156 M63 134 L62 146 L61 158 L62 171 L69 179 L77 180 L89 176 L100 167 L107 162 L108 161 M113 95 L108 92 L94 80 L80 66 L73 61 L71 61 M60 47 L55 57 L50 71 L50 88 L55 93 L60 87 L63 67 L65 41 L67 29 L74 34 L88 46 L97 52 L100 53 M152 116 L164 124 L188 138 L211 149 L218 151 M208 123 L222 137 L236 150 L240 157 L238 162 L217 167 L177 168 L155 168 " fill="none" stroke="black" /></svg>