<?xml version="1.0" encoding="utf-8" ?>
<svg baseProfile="tiny" height="360" version="1.2" viewBox="-3 -3 511 360" width="511" xmlns="http://www.w3.org/2000/svg" xmlns:ev="http://www.w3.org/2001/xml-events" xmlns:xlink="http://www.w3.org/1999/xlink"><defs /><path d="M13 0 L5 10 L2 20 L11 30 L35 36 L55 37 L66 37 L71 36 L71 35 L70 34 L66 33 L64 33 L56 34 L45 36 L40 38 L37 41 L29 51 L19 63 L13 77 L18 92 L31 99 L48 100 L62 97 L65 95 L62 94 L55 94 L47 94 L36 95 L26 98 L17 103 L9 110 L4 121 L0 135 L1 153 L12 167 L30 178 L51 185 L68 183 L73 178 L74 175 L73 174 L69 173 L66 173 L62 173 L57 174 L52 175 L47 178 L43 182 L37 187 L31 192 L27 200 L25 210 L26 220 L36 229 L54 236 L77 238 L88 238 " fill="none" stroke="black" /><path d="M13 0 L5 10 L2 20 L11 30 L35 36 L55 37 L66 37 L71 36 L71 35 L70 34 L66 33 L64 33 L56 34 L45 36 L40 38 L37 41 L29 51 L19 63 L13 77 L18 92 L31 99 L48 100 L62 97 L65 95 L62 94 L55 94 L47 94 L36 95 L26 98 L17 103 L9 110 L4 121 L0 135 L1 153 L12 167 L30 178 L51 185 L68 183 L73 178 L74 175 L73 174 L69 173 L66 173 L62 173 L57 174 L52 175 L47 178 L43 182 L37 187 L31 192 L27 200 L25 210 L26 220 L36 229 L54 236 L77 238 L88 238 M258 76 L242 78 L217 88 L199 102 L193 119 L212 132 L243 135 L261 128 L262 124 L258 122 L253 122 L247 123 L238 124 L229 128 L219 133 L209 139 L198 147 L188 161 L185 176 L199 196 L222 209 L245 212 L260 207 L262 199 L254 195 L246 193 L240 193 L233 193 L225 196 L217 200 L209 207 L199 216 L190 233 L182 252 L186 267 L204 278 L222 279 L236 275 L239 271 L236 266 L233 264 L232 264 L226 264 L216 266 L206 268 L196 273 L186 281 L179 296 L173 315 L176 338 L189 352 L204 359 L207 360 L215 358 " fill="none" stroke="black" /><path d="M13 0 L5 10 L2 20 L11 30 L35 36 L55 37 L66 37 L71 36 L71 35 L70 34 L66 33 L64 33 L56 34 L45 36 L40 38 L37 41 L29 51 L19 63 L13 77 L18 92 L31 99 L48 100 L62 97 L65 95 L62 94 L55 94 L47 94 L36 95 L26 98 L17 103 L9 110 L4 121 L0 135 L1 153 L12 167 L30 178 L51 185 L68 183 L73 178 L74 175 L73 174 L69 173 L66 173 L62 173 L57 174 L52 175 L47 178 L43 182 L37 187 L31 192 L27 200 L25 210 L26 220 L36 229 L54 236 L77 238 L88 238 M258 76 L242 78 L217 88 L199 102 L193 119 L212 132 L243 135 L261 128 L262 124 L258 122 L253 122 L247 123 L238 124 L229 128 L219 133 L209 139 L198 147 L188 161 L185 176 L199 196 L222 209 L245 212 L260 207 L262 199 L254 195 L246 193 L240 193 L233 193 L225 196 L217 200 L209 207 L199 216 L190 233 L182 252 L186 267 L204 278 L222 279 L236 275 L239 271 L236 266 L233 264 L232 264 L226 264 L216 266 L206 268 L196 273 L186 281 L179 296 L173 315 L176 338 L189 352 L204 359 L207 360 L215 358 M425 211 L428 217 L423 223 L409 226 L394 223 L383 211 L375 199 L374 190 L384 179 L398 174 L411 173 L426 180 L444 189 L458 199 L465 211 L468 223 L464 238 L452 255 L433 268 L403 276 L368 277 L348 272 L335 256 L328 234 L323 210 L326 180 L335 155 L346 141 L359 128 L373 120 L389 119 L411 120 L435 124 L462 134 L484 142 L497 151 L505 168 L511 186 L511 188 " fill="none" stroke="black" /></svg>