<?xml version="1.0" encoding="utf-8" ?>
<svg baseProfile="tiny" height="383" version="1.2" viewBox="-3 -3 673 383" width="673" xmlns="http://www.w3.org/2000/svg" xmlns:ev="http://www.w3.org/2001/xml-events" xmlns:xlink="http://www.w3.org/1999/xlink"><defs /><path d="M207 87 L221 88 L256 87 L283 83 L290 82 L288 84 L277 102 L261 134 L248 160 L246 170 L258 164 L305 142 L361 119 L387 111 L391 109 L391 121 L391 153 L404 208 L422 233 L431 240 L431 241 L431 242 L428 243 L421 244 L404 244 L372 245 L336 247 L321 247 L313 247 L307 247 L309 247 L329 241 L379 223 L438 201 L474 183 L492 172 L497 172 L496 172 L495 175 L495 194 L495 239 L493 281 L496 305 L500 320 L500 321 L495 323 L484 324 L441 324 L388 328 L353 332 L340 332 L339 332 L338 324 L332 299 L321 281 L309 274 L307 273 L302 292 L288 327 L265 361 L250 378 L247 382 L246 383 L245 383 L243 383 L235 374 L220 328 L204 255 L190 237 L183 232 L177 232 L160 244 L118 272 L62 289 L22 295 L3 295 L0 295 L0 291 L0 260 L1 198 L6 174 L6 171 L17 169 L52 167 L100 167 L130 168 L142 168 L135 152 L121 104 L118 70 L116 61 L114 59 L123 67 L142 93 L162 112 L170 117 L173 118 L175 107 L179 69 L196 31 L216 8 L222 0 L228 3 L263 30 L312 65 L341 79 L350 84 L357 88 L359 88 L364 75 L374 48 L389 22 L397 10 L398 9 L400 13 L413 40 L430 83 L443 105 L449 112 L451 112 L466 105 L506 79 L558 53 L578 51 L580 50 L579 55 L574 76 L562 108 L555 128 L553 135 L553 136 L553 137 L567 139 L613 141 L656 144 L673 145 L671 151 L662 169 L636 211 L613 251 L605 268 L602 272 " fill="none" stroke="black" /></svg>