<?xml version="1.0" encoding="utf-8" ?>
<svg baseProfile="tiny" height="288" version="1.2" viewBox="-3 -3 73 288" width="73" xmlns="http://www.w3.org/2000/svg" xmlns:ev="http://www.w3.org/2001/xml-events" xmlns:xlink="http://www.w3.org/1999/xlink"><defs /><path d="M25 0 L28 0 L37 0 L45 2 L52 7 L54 12 L54 18 L49 24 L37 26 L23 26 L13 27 L11 27 L12 25 L20 24 L32 23 L47 23 L57 26 L64 32 L65 34 L66 41 L59 48 L49 49 L36 49 L20 52 L5 53 L2 53 L6 51 L17 50 L30 49 L39 50 L44 55 L48 60 L49 66 L49 72 L48 77 L44 80 L36 84 L24 88 L9 88 L1 88 L0 88 L5 87 L18 84 L32 82 L43 82 L52 88 L56 90 L56 93 L55 100 L50 106 L41 110 L30 114 L19 116 L11 116 L8 116 L8 115 L14 112 L24 109 L39 108 L48 110 L52 112 L56 116 L56 120 L55 127 L51 134 L46 140 L34 144 L19 147 L7 149 L6 149 L8 148 L18 145 L32 142 L47 141 L55 144 L61 147 L64 152 L64 159 L62 165 L58 170 L51 174 L40 176 L27 178 L17 179 L15 179 L13 177 L15 174 L23 173 L37 173 L48 176 L56 181 L60 186 L60 191 L60 198 L56 205 L51 210 L44 212 L34 213 L28 214 L21 214 L19 213 L19 210 L27 208 L41 206 L56 206 L65 209 L69 214 L70 218 L69 222 L65 227 L59 231 L51 234 L43 237 L34 238 L27 238 L24 237 L23 237 L23 233 L29 231 L38 231 L49 232 L58 237 L65 242 L66 245 L65 249 L59 255 L53 259 L44 262 L31 263 L20 264 L17 264 L18 264 L25 261 L39 257 L54 257 L64 260 L69 264 L72 269 L73 273 L72 277 L66 283 L58 286 L51 288 L50 288 " fill="none" stroke="black" /></svg>