<?xml version="1.0" encoding="utf-8" ?>
<svg baseProfile="tiny" height="24" version="1.2" viewBox="-3 -3 611 24" width="611" xmlns="http://www.w3.org/2000/svg" xmlns:ev="http://www.w3.org/2001/xml-events" xmlns:xlink="http://www.w3.org/1999/xlink"><defs /><path d="M0 0 L1 0 L2 0 L3 0 L5 0 L6 0 L9 0 L13 1 L16 1 L18 1 L20 1 L22 1 L27 1 L32 1 L33 0 L35 2 L38 2 L39 1 L42 5 L47 6 L48 4 L48 2 L49 2 L52 5 L55 5 L56 1 L59 6 L65 8 L67 6 L67 4 L69 5 L76 9 L82 8 L83 5 L88 11 L92 11 L93 9 L96 11 L100 11 L101 8 L101 6 L103 8 L108 15 L111 15 L113 10 L113 9 L116 9 L124 11 L129 9 L130 9 L131 9 L138 11 L144 9 L145 9 L146 11 L152 15 L157 13 L158 9 L162 16 L167 17 L169 13 L170 12 L171 12 L177 13 L182 12 L183 8 L190 17 L196 19 L200 13 L203 8 L208 9 L217 12 L226 12 L231 7 L232 8 L238 15 L244 16 L245 14 L245 13 L247 14 L251 17 L254 17 L256 11 L260 13 L265 15 L272 10 L278 8 L282 11 L287 16 L293 16 L294 10 L295 10 L299 10 L303 10 L305 6 L308 8 L314 10 L321 9 L323 6 L325 6 L333 13 L343 16 L355 13 L364 8 L369 8 L374 14 L382 16 L386 16 L388 13 L394 21 L403 24 L413 18 L420 12 L425 12 L429 19 L434 21 L439 18 L446 12 L450 11 L454 13 L460 13 L465 10 L466 13 L472 17 L479 16 L482 13 L485 14 L489 15 L497 12 L505 8 L510 10 L517 17 L526 19 L533 13 L538 8 L539 9 L544 16 L551 16 L555 12 L557 11 L560 14 L567 20 L574 20 L579 15 L583 14 L590 15 L599 15 L607 15 L611 14 L611 13 " fill="none" stroke="black" /></svg>