<?xml version="1.0" encoding="utf-8" ?>
<svg baseProfile="tiny" height="599" version="1.2" viewBox="-3 -3 1001 599" width="1001" xmlns="http://www.w3.org/2000/svg" xmlns:ev="http://www.w3.org/2001/xml-events" xmlns:xlink="http://www.w3.org/1999/xlink"><defs /><path d="M333 24 L322 55 L302 93 L285 120 L286 141 L321 161 L386 171 L457 171 L491 169 L493 167 L479 157 " fill="none" stroke="black" /><path d="M333 24 L322 55 L302 93 L285 120 L286 141 L321 161 L386 171 L457 171 L491 169 L493 167 L479 157 M655 47 L634 113 L623 179 L666 212 L732 221 L776 199 L788 161 L791 145 " fill="none" stroke="black" /><path d="M333 24 L322 55 L302 93 L285 120 L286 141 L321 161 L386 171 L457 171 L491 169 L493 167 L479 157 M655 47 L634 113 L623 179 L666 212 L732 221 L776 199 L788 161 L791 145 M916 137 L901 210 L899 281 L948 327 L984 335 L982 325 " fill="none" stroke="black" /><path d="M333 24 L322 55 L302 93 L285 120 L286 141 L321 161 L386 171 L457 171 L491 169 L493 167 L479 157 M655 47 L634 113 L623 179 L666 212 L732 221 L776 199 L788 161 L791 145 M916 137 L901 210 L899 281 L948 327 L984 335 L982 325 M637 307 L629 336 L586 373 L491 407 L343 409 L258 399 L264 394 " fill="none" stroke="black" /><path d="M333 24 L322 55 L302 93 L285 120 L286 141 L321 161 L386 171 L457 171 L491 169 L493 167 L479 157 M655 47 L634 113 L623 179 L666 212 L732 221 L776 199 L788 161 L791 145 M916 137 L901 210 L899 281 L948 327 L984 335 L982 325 M637 307 L629 336 L586 373 L491 407 L343 409 L258 399 L264 394 M392 254 L343 275 L229 279 L67 234 L0 204 L1 193 " fill="none" stroke="black" /><path d="M333 24 L322 55 L302 93 L285 120 L286 141 L321 161 L386 171 L457 171 L491 169 L493 167 L479 157 M655 47 L634 113 L623 179 L666 212 L732 221 L776 199 L788 161 L791 145 M916 137 L901 210 L899 281 L948 327 L984 335 L982 325 M637 307 L629 336 L586 373 L491 407 L343 409 L258 399 L264 394 M392 254 L343 275 L229 279 L67 234 L0 204 L1 193 M755 352 L725 422 L702 484 L705 493 L728 474 L768 409 L817 363 L837 357 " fill="none" stroke="black" /><path d="M333 24 L322 55 L302 93 L285 120 L286 141 L321 161 L386 171 L457 171 L491 169 L493 167 L479 157 M655 47 L634 113 L623 179 L666 212 L732 221 L776 199 L788 161 L791 145 M916 137 L901 210 L899 281 L948 327 L984 335 L982 325 M637 307 L629 336 L586 373 L491 407 L343 409 L258 399 L264 394 M392 254 L343 275 L229 279 L67 234 L0 204 L1 193 M755 352 L725 422 L702 484 L705 493 L728 474 L768 409 L817 363 L837 357 M539 276 L519 307 L469 357 L424 371 L409 354 L423 310 L462 231 L478 213 L478 226 " fill="none" stroke="black" /><path d="M333 24 L322 55 L302 93 L285 120 L286 141 L321 161 L386 171 L457 171 L491 169 L493 167 L479 157 M655 47 L634 113 L623 179 L666 212 L732 221 L776 199 L788 161 L791 145 M916 137 L901 210 L899 281 L948 327 L984 335 L982 325 M637 307 L629 336 L586 373 L491 407 L343 409 L258 399 L264 394 M392 254 L343 275 L229 279 L67 234 L0 204 L1 193 M755 352 L725 422 L702 484 L705 493 L728 474 L768 409 L817 363 L837 357 M539 276 L519 307 L469 357 L424 371 L409 354 L423 310 L462 231 L478 213 L478 226 M483 14 L485 56 L508 99 L533 102 L555 82 L565 41 L563 37 L549 70 L543 88 " fill="none" stroke="black" /><path d="M333 24 L322 55 L302 93 L285 120 L286 141 L321 161 L386 171 L457 171 L491 169 L493 167 L479 157 M655 47 L634 113 L623 179 L666 212 L732 221 L776 199 L788 161 L791 145 M916 137 L901 210 L899 281 L948 327 L984 335 L982 325 M637 307 L629 336 L586 373 L491 407 L343 409 L258 399 L264 394 M392 254 L343 275 L229 279 L67 234 L0 204 L1 193 M755 352 L725 422 L702 484 L705 493 L728 474 L768 409 L817 363 L837 357 M539 276 L519 307 L469 357 L424 371 L409 354 L423 310 L462 231 L478 213 L478 226 M483 14 L485 56 L508 99 L533 102 L555 82 L565 41 L563 37 L549 70 L543 88 M808 0 L808 55 L800 116 L805 145 L833 142 L883 89 L917 28 L924 16 L918 23 " fill="none" stroke="black" /><path d="M333 24 L322 55 L302 93 L285 120 L286 141 L321 161 L386 171 L457 171 L491 169 L493 167 L479 157 M655 47 L634 113 L623 179 L666 212 L732 221 L776 199 L788 161 L791 145 M916 137 L901 210 L899 281 L948 327 L984 335 L982 325 M637 307 L629 336 L586 373 L491 407 L343 409 L258 399 L264 394 M392 254 L343 275 L229 279 L67 234 L0 204 L1 193 M755 352 L725 422 L702 484 L705 493 L728 474 L768 409 L817 363 L837 357 M539 276 L519 307 L469 357 L424 371 L409 354 L423 310 L462 231 L478 213 L478 226 M483 14 L485 56 L508 99 L533 102 L555 82 L565 41 L563 37 L549 70 L543 88 M808 0 L808 55 L800 116 L805 145 L833 142 L883 89 L917 28 L924 16 L918 23 M401 35 L402 63 L395 101 L395 107 L398 88 L393 22 L391 0 L385 14 L379 37 L376 39 " fill="none" stroke="black" /><path d="M333 24 L322 55 L302 93 L285 120 L286 141 L321 161 L386 171 L457 171 L491 169 L493 167 L479 157 M655 47 L634 113 L623 179 L666 212 L732 221 L776 199 L788 161 L791 145 M916 137 L901 210 L899 281 L948 327 L984 335 L982 325 M637 307 L629 336 L586 373 L491 407 L343 409 L258 399 L264 394 M392 254 L343 275 L229 279 L67 234 L0 204 L1 193 M755 352 L725 422 L702 484 L705 493 L728 474 L768 409 L817 363 L837 357 M539 276 L519 307 L469 357 L424 371 L409 354 L423 310 L462 231 L478 213 L478 226 M483 14 L485 56 L508 99 L533 102 L555 82 L565 41 L563 37 L549 70 L543 88 M808 0 L808 55 L800 116 L805 145 L833 142 L883 89 L917 28 L924 16 L918 23 M401 35 L402 63 L395 101 L395 107 L398 88 L393 22 L391 0 L385 14 L379 37 L376 39 M166 59 L116 124 L94 139 L107 125 L145 58 L163 4 L157 9 L119 62 L105 74 L116 65 " fill="none" stroke="black" /><path d="M333 24 L322 55 L302 93 L285 120 L286 141 L321 161 L386 171 L457 171 L491 169 L493 167 L479 157 M655 47 L634 113 L623 179 L666 212 L732 221 L776 199 L788 161 L791 145 M916 137 L901 210 L899 281 L948 327 L984 335 L982 325 M637 307 L629 336 L586 373 L491 407 L343 409 L258 399 L264 394 M392 254 L343 275 L229 279 L67 234 L0 204 L1 193 M755 352 L725 422 L702 484 L705 493 L728 474 L768 409 L817 363 L837 357 M539 276 L519 307 L469 357 L424 371 L409 354 L423 310 L462 231 L478 213 L478 226 M483 14 L485 56 L508 99 L533 102 L555 82 L565 41 L563 37 L549 70 L543 88 M808 0 L808 55 L800 116 L805 145 L833 142 L883 89 L917 28 L924 16 L918 23 M401 35 L402 63 L395 101 L395 107 L398 88 L393 22 L391 0 L385 14 L379 37 L376 39 M166 59 L116 124 L94 139 L107 125 L145 58 L163 4 L157 9 L119 62 L105 74 L116 65 M129 375 L60 421 L12 449 L20 401 L45 324 L65 273 L65 307 L56 400 L68 450 L84 451 " fill="none" stroke="black" /><path d="M333 24 L322 55 L302 93 L285 120 L286 141 L321 161 L386 171 L457 171 L491 169 L493 167 L479 157 M655 47 L634 113 L623 179 L666 212 L732 221 L776 199 L788 161 L791 145 M916 137 L901 210 L899 281 L948 327 L984 335 L982 325 M637 307 L629 336 L586 373 L491 407 L343 409 L258 399 L264 394 M392 254 L343 275 L229 279 L67 234 L0 204 L1 193 M755 352 L725 422 L702 484 L705 493 L728 474 L768 409 L817 363 L837 357 M539 276 L519 307 L469 357 L424 371 L409 354 L423 310 L462 231 L478 213 L478 226 M483 14 L485 56 L508 99 L533 102 L555 82 L565 41 L563 37 L549 70 L543 88 M808 0 L808 55 L800 116 L805 145 L833 142 L883 89 L917 28 L924 16 L918 23 M401 35 L402 63 L395 101 L395 107 L398 88 L393 22 L391 0 L385 14 L379 37 L376 39 M166 59 L116 124 L94 139 L107 125 L145 58 L163 4 L157 9 L119 62 L105 74 L116 65 M129 375 L60 421 L12 449 L20 401 L45 324 L65 273 L65 307 L56 400 L68 450 L84 451 M345 452 L337 478 L302 528 L289 549 L325 545 L396 498 L448 455 L449 457 L414 529 L404 561 L425 561 " fill="none" stroke="black" /><path d="M333 24 L322 55 L302 93 L285 120 L286 141 L321 161 L386 171 L457 171 L491 169 L493 167 L479 157 M655 47 L634 113 L623 179 L666 212 L732 221 L776 199 L788 161 L791 145 M916 137 L901 210 L899 281 L948 327 L984 335 L982 325 M637 307 L629 336 L586 373 L491 407 L343 409 L258 399 L264 394 M392 254 L343 275 L229 279 L67 234 L0 204 L1 193 M755 352 L725 422 L702 484 L705 493 L728 474 L768 409 L817 363 L837 357 M539 276 L519 307 L469 357 L424 371 L409 354 L423 310 L462 231 L478 213 L478 226 M483 14 L485 56 L508 99 L533 102 L555 82 L565 41 L563 37 L549 70 L543 88 M808 0 L808 55 L800 116 L805 145 L833 142 L883 89 L917 28 L924 16 L918 23 M401 35 L402 63 L395 101 L395 107 L398 88 L393 22 L391 0 L385 14 L379 37 L376 39 M166 59 L116 124 L94 139 L107 125 L145 58 L163 4 L157 9 L119 62 L105 74 L116 65 M129 375 L60 421 L12 449 L20 401 L45 324 L65 273 L65 307 L56 400 L68 450 L84 451 M345 452 L337 478 L302 528 L289 549 L325 545 L396 498 L448 455 L449 457 L414 529 L404 561 L425 561 M599 454 L593 518 L612 569 L641 589 L640 588 L579 545 L520 516 L526 515 L589 516 " fill="none" stroke="black" /><path d="M333 24 L322 55 L302 93 L285 120 L286 141 L321 161 L386 171 L457 171 L491 169 L493 167 L479 157 M655 47 L634 113 L623 179 L666 212 L732 221 L776 199 L788 161 L791 145 M916 137 L901 210 L899 281 L948 327 L984 335 L982 325 M637 307 L629 336 L586 373 L491 407 L343 409 L258 399 L264 394 M392 254 L343 275 L229 279 L67 234 L0 204 L1 193 M755 352 L725 422 L702 484 L705 493 L728 474 L768 409 L817 363 L837 357 M539 276 L519 307 L469 357 L424 371 L409 354 L423 310 L462 231 L478 213 L478 226 M483 14 L485 56 L508 99 L533 102 L555 82 L565 41 L563 37 L549 70 L543 88 M808 0 L808 55 L800 116 L805 145 L833 142 L883 89 L917 28 L924 16 L918 23 M401 35 L402 63 L395 101 L395 107 L398 88 L393 22 L391 0 L385 14 L379 37 L376 39 M166 59 L116 124 L94 139 L107 125 L145 58 L163 4 L157 9 L119 62 L105 74 L116 65 M129 375 L60 421 L12 449 L20 401 L45 324 L65 273 L65 307 L56 400 L68 450 L84 451 M345 452 L337 478 L302 528 L289 549 L325 545 L396 498 L448 455 L449 457 L414 529 L404 561 L425 561 M599 454 L593 518 L612 569 L641 589 L640 588 L579 545 L520 516 L526 515 L589 516 M725 301 L694 302 L703 292 L758 267 L782 260 L766 277 L730 305 L723 310 " fill="none" stroke="black" /><path d="M333 24 L322 55 L302 93 L285 120 L286 141 L321 161 L386 171 L457 171 L491 169 L493 167 L479 157 M655 47 L634 113 L623 179 L666 212 L732 221 L776 199 L788 161 L791 145 M916 137 L901 210 L899 281 L948 327 L984 335 L982 325 M637 307 L629 336 L586 373 L491 407 L343 409 L258 399 L264 394 M392 254 L343 275 L229 279 L67 234 L0 204 L1 193 M755 352 L725 422 L702 484 L705 493 L728 474 L768 409 L817 363 L837 357 M539 276 L519 307 L469 357 L424 371 L409 354 L423 310 L462 231 L478 213 L478 226 M483 14 L485 56 L508 99 L533 102 L555 82 L565 41 L563 37 L549 70 L543 88 M808 0 L808 55 L800 116 L805 145 L833 142 L883 89 L917 28 L924 16 L918 23 M401 35 L402 63 L395 101 L395 107 L398 88 L393 22 L391 0 L385 14 L379 37 L376 39 M166 59 L116 124 L94 139 L107 125 L145 58 L163 4 L157 9 L119 62 L105 74 L116 65 M129 375 L60 421 L12 449 L20 401 L45 324 L65 273 L65 307 L56 400 L68 450 L84 451 M345 452 L337 478 L302 528 L289 549 L325 545 L396 498 L448 455 L449 457 L414 529 L404 561 L425 561 M599 454 L593 518 L612 569 L641 589 L640 588 L579 545 L520 516 L526 515 L589 516 M725 301 L694 302 L703 292 L758 267 L782 260 L766 277 L730 305 L723 310 M1001 507 L981 533 L917 581 L878 599 L882 587 L925 530 L974 468 L968 466 L916 489 L858 521 L848 523 " fill="none" stroke="black" /></svg>