<?xml version="1.0" encoding="utf-8" ?>
<svg baseProfile="tiny" height="232" version="1.2" viewBox="-3 -3 285 232" width="285" xmlns="http://www.w3.org/2000/svg" xmlns:ev="http://www.w3.org/2001/xml-events" xmlns:xlink="http://www.w3.org/1999/xlink"><defs /><path d="M139 1 L132 0 L121 0 L109 0 L93 3 L73 9 L57 16 L42 26 L26 42 L12 58 L6 72 L1 86 L0 100 L1 115 L5 129 L8 143 L16 157 L25 169 L36 183 L51 197 L71 211 L92 220 L114 226 L138 231 L159 232 L178 232 L196 230 L210 224 L223 218 L239 208 L248 196 L256 182 L266 166 L274 152 L279 136 L283 121 L284 104 L285 87 L278 72 L266 55 L259 43 L245 29 L228 19 L215 12 L203 9 L191 6 L181 2 L175 2 L164 3 L158 3 L151 3 L142 5 L133 6 L126 6 L125 6 " fill="none" stroke="black" /></svg>