<?xml version="1.0" encoding="utf-8" ?>
<svg baseProfile="tiny" height="348" version="1.2" viewBox="-3 -3 454 348" width="454" xmlns="http://www.w3.org/2000/svg" xmlns:ev="http://www.w3.org/2001/xml-events" xmlns:xlink="http://www.w3.org/1999/xlink"><defs /><path d="M217 199 L218 203 L224 208 L231 209 L236 204 L241 193 L244 181 L242 172 L234 165 L221 158 L207 155 L197 155 L186 155 L179 157 L175 162 L171 170 L164 178 L162 186 L162 195 L162 203 L162 210 L168 218 L174 226 L180 232 L191 241 L207 248 L226 253 L247 256 L269 257 L286 253 L296 243 L305 228 L312 208 L315 179 L315 158 L307 142 L293 125 L278 113 L260 108 L244 105 L233 105 L228 105 L226 105 L226 106 L225 107 L224 108 L221 109 L218 110 L216 111 L215 112 L214 112 L213 112 L213 113 L211 111 L210 106 L209 99 L208 92 L210 85 L215 80 L224 74 L239 68 L260 66 L279 66 L297 69 L315 77 L329 85 L345 100 L360 118 L370 135 L379 156 L380 181 L380 202 L377 222 L369 242 L359 257 L349 268 L333 277 L307 286 L283 294 L260 295 L236 295 L210 293 L190 288 L174 277 L155 260 L135 238 L118 210 L99 175 L82 145 L79 121 L84 100 L92 78 L106 57 L124 41 L143 31 L165 23 L198 16 L240 13 L274 12 L309 13 L343 22 L368 31 L395 49 L421 78 L439 104 L450 128 L454 160 L454 191 L452 219 L447 243 L436 262 L427 279 L415 294 L395 307 L371 321 L347 331 L318 339 L287 346 L258 348 L226 348 L199 344 L172 336 L137 319 L109 302 L83 284 L59 267 L35 243 L23 223 L15 196 L6 168 L1 148 L0 133 L0 115 L2 97 L6 84 L12 71 L19 59 L29 49 L42 39 L55 31 L70 24 L88 16 L107 10 L135 7 L167 3 L197 0 L211 0 L221 0 L224 0 " fill="none" stroke="black" /></svg>