<?xml version="1.0" encoding="utf-8" ?>
<svg baseProfile="tiny" height="443" version="1.2" viewBox="-3 -3 585 443" width="585" xmlns="http://www.w3.org/2000/svg" xmlns:ev="http://www.w3.org/2001/xml-events" xmlns:xlink="http://www.w3.org/1999/xlink"><defs /><path d="M244 215 L248 194 L243 188 L239 187 L237 191 L236 203 L239 214 L248 225 L261 232 L276 233 L288 224 L299 207 L308 189 L311 171 L305 160 L301 160 L299 172 L299 186 L311 202 L330 215 L346 216 L360 199 L367 174 L367 158 L364 154 L361 154 L362 163 L364 180 L372 193 L388 205 L410 208 L429 197 L441 175 L444 158 L444 153 L444 152 " fill="none" stroke="black" /><path d="M244 215 L248 194 L243 188 L239 187 L237 191 L236 203 L239 214 L248 225 L261 232 L276 233 L288 224 L299 207 L308 189 L311 171 L305 160 L301 160 L299 172 L299 186 L311 202 L330 215 L346 216 L360 199 L367 174 L367 158 L364 154 L361 154 L362 163 L364 180 L372 193 L388 205 L410 208 L429 197 L441 175 L444 158 L444 153 L444 152 M292 295 L292 305 L301 321 L316 331 L335 338 L354 338 L368 325 L372 314 L363 304 L356 302 L353 303 L356 315 L365 329 L379 336 L402 338 L420 327 L439 303 L450 280 L450 279 L450 281 L454 293 L463 307 L471 314 L479 314 L486 306 L492 296 L493 293 " fill="none" stroke="black" /><path d="M244 215 L248 194 L243 188 L239 187 L237 191 L236 203 L239 214 L248 225 L261 232 L276 233 L288 224 L299 207 L308 189 L311 171 L305 160 L301 160 L299 172 L299 186 L311 202 L330 215 L346 216 L360 199 L367 174 L367 158 L364 154 L361 154 L362 163 L364 180 L372 193 L388 205 L410 208 L429 197 L441 175 L444 158 L444 153 L444 152 M292 295 L292 305 L301 321 L316 331 L335 338 L354 338 L368 325 L372 314 L363 304 L356 302 L353 303 L356 315 L365 329 L379 336 L402 338 L420 327 L439 303 L450 280 L450 279 L450 281 L454 293 L463 307 L471 314 L479 314 L486 306 L492 296 L493 293 M278 5 L277 5 L272 5 L259 4 L239 1 L217 0 L199 0 L186 0 L174 3 L165 4 L155 8 L145 11 L135 14 L122 19 L108 24 L98 27 L90 32 L79 41 L68 50 L58 60 L50 73 L39 89 L28 103 L19 119 L10 134 L3 146 L0 156 L0 170 L1 184 L3 196 L8 210 L15 228 L23 246 L30 264 L40 283 L51 305 L59 323 L71 339 L87 356 L101 370 L116 381 L136 395 L154 404 L175 410 L199 420 L220 427 L242 431 L270 437 L294 440 L326 440 L364 442 L391 443 L419 443 L444 441 L464 439 L478 432 L496 424 L514 416 L528 403 L543 388 L564 374 L577 358 L580 335 L582 316 L585 288 L583 251 L576 219 L569 196 L550 163 L528 137 L510 122 L484 99 L454 78 L434 70 L413 57 L390 43 L370 35 L355 28 L337 19 L321 14 L309 12 L298 10 L286 8 L275 7 L269 7 L261 7 L257 6 " fill="none" stroke="black" /></svg>