<?xml version="1.0" encoding="utf-8" ?>
<svg baseProfile="tiny" height="100" version="1.2" viewBox="-3 -3 1417 100" width="1417" xmlns="http://www.w3.org/2000/svg" xmlns:ev="http://www.w3.org/2001/xml-events" xmlns:xlink="http://www.w3.org/1999/xlink"><defs /><path d="M0 68 L2 63 L5 57 L9 53 L13 47 L17 41 L24 39 L28 38 L34 37 L43 36 L52 36 L60 36 L67 37 L76 39 L84 42 L91 44 L98 46 L105 49 L112 52 L119 56 L125 59 L132 63 L138 67 L146 71 L154 76 L161 81 L167 84 L174 87 L182 90 L191 92 L202 95 L210 96 L218 98 L225 99 L232 100 L239 100 L247 99 L257 97 L267 95 L277 91 L287 86 L296 83 L303 79 L310 75 L316 70 L324 66 L331 59 L339 55 L348 50 L356 43 L365 38 L373 35 L384 32 L393 30 L404 28 L415 27 L425 26 L437 26 L446 26 L455 26 L464 28 L476 32 L485 37 L496 42 L507 48 L516 54 L526 60 L537 66 L547 71 L557 76 L565 80 L574 83 L583 86 L592 88 L600 90 L610 92 L620 93 L631 94 L645 94 L660 92 L675 89 L692 86 L708 83 L722 76 L732 70 L742 65 L752 58 L761 50 L769 42 L779 35 L788 29 L797 24 L806 20 L813 19 L819 18 L826 18 L834 18 L842 18 L852 18 L864 18 L879 19 L890 21 L899 23 L908 25 L919 29 L931 34 L942 38 L956 44 L972 51 L988 57 L1003 63 L1017 69 L1030 73 L1041 77 L1053 80 L1066 81 L1079 81 L1093 80 L1108 76 L1124 71 L1137 64 L1150 59 L1161 53 L1171 42 L1182 34 L1194 29 L1206 22 L1216 17 L1228 13 L1239 9 L1252 5 L1266 3 L1277 1 L1285 0 L1293 0 L1305 0 L1316 0 L1326 1 L1334 3 L1343 6 L1352 9 L1359 12 L1367 16 L1376 22 L1383 26 L1391 30 L1398 33 L1405 34 L1413 36 L1417 36 " fill="none" stroke="black" /></svg>