<?xml version="1.0" encoding="utf-8" ?>
<svg baseProfile="tiny" height="318" version="1.2" viewBox="-3 -3 477 318" width="477" xmlns="http://www.w3.org/2000/svg" xmlns:ev="http://www.w3.org/2001/xml-events" xmlns:xlink="http://www.w3.org/1999/xlink"><defs /><path d="M132 178 L132 166 L133 154 L139 144 L146 137 L155 131 L165 128 L178 126 L193 125 L208 126 L221 128 L235 133 L245 138 L257 147 L266 157 L272 167 L279 180 L283 191 L284 201 L283 212 L281 221 L276 231 L266 241 L254 249 L244 254 L229 257 L214 259 L199 259 L180 255 L156 247 L140 241 L129 234 L118 221 L106 202 L100 187 L98 166 L97 144 L97 125 L105 110 L116 92 L128 85 L145 80 L166 76 L189 75 L210 77 L234 86 L262 100 L285 112 L302 126 L323 144 L339 161 L349 174 L352 191 L352 209 L349 225 L337 240 L324 252 L315 261 L302 271 L283 279 L268 283 L253 285 L231 285 L209 282 L187 279 L163 271 L140 259 L123 247 L106 230 L92 211 L81 195 L71 173 L63 149 L62 130 L64 108 L73 85 L85 70 L98 54 L116 39 L135 34 L161 33 L191 33 L224 40 L262 49 L300 63 L327 76 L355 93 L382 118 L396 135 L405 156 L411 181 L411 203 L406 226 L396 246 L383 263 L364 281 L339 295 L319 302 L298 309 L271 314 L243 315 L210 312 L182 307 L152 298 L120 284 L87 264 L60 248 L34 230 L16 208 L6 189 L1 165 L0 127 L13 97 L27 69 L43 38 L59 22 L75 11 L96 2 L120 0 L152 0 L187 0 L224 3 L264 8 L301 16 L338 29 L377 45 L406 62 L429 80 L450 103 L467 128 L474 150 L477 176 L477 200 L474 221 L463 242 L452 261 L437 277 L422 289 L403 299 L380 305 L348 310 L318 314 L295 318 L272 317 L253 315 L238 315 L229 314 L221 314 L220 314 L219 313 " fill="none" stroke="black" /></svg>