<?xml version="1.0" encoding="utf-8" ?>
<svg baseProfile="tiny" height="220" version="1.2" viewBox="-3 -3 829 220" width="829" xmlns="http://www.w3.org/2000/svg" xmlns:ev="http://www.w3.org/2001/xml-events" xmlns:xlink="http://www.w3.org/1999/xlink"><defs /><path d="M0 129 L6 131 L12 133 L19 135 L26 137 L37 137 L50 132 L65 126 L78 122 L90 120 L100 120 L108 120 L117 121 L125 123 L131 125 L139 128 L144 131 L148 133 L150 134 L152 136 L154 137 L155 138 L156 139 L159 142 L162 144 L164 146 L167 148 L171 150 L175 154 L180 158 L188 162 L196 166 L202 167 L209 167 L215 162 L218 155 L224 150 L230 146 L237 141 L242 136 L247 134 L252 130 L255 126 L258 123 L262 118 L268 113 L273 110 L276 108 L279 105 L284 105 L288 105 L291 104 L296 104 L301 104 L304 105 L307 105 L311 108 L313 109 L317 111 L319 113 L323 115 L326 117 L329 119 L330 120 L333 124 L336 127 L338 129 L341 132 L345 136 L346 137 L350 140 L355 145 L357 148 L360 152 L364 157 L367 161 L371 165 L377 171 L383 178 L391 186 L404 199 L416 210 L429 218 L450 220 L474 210 L498 180 L523 145 L546 110 L560 75 L575 56 L583 43 L587 29 L590 18 L594 10 L596 5 L597 2 L597 0 L599 0 L604 0 L608 0 L612 0 L617 1 L620 3 L624 5 L627 10 L630 16 L633 22 L636 28 L639 33 L641 38 L642 44 L644 52 L645 62 L647 69 L650 79 L654 89 L657 98 L663 106 L672 115 L677 119 L681 119 L684 118 L691 114 L696 108 L702 103 L707 101 L712 101 L716 101 L721 104 L728 110 L735 117 L741 123 L747 125 L749 125 L753 123 L756 118 L762 115 L768 113 L773 113 L781 114 L788 115 L793 116 L799 118 L805 120 L811 123 L817 125 L822 126 L826 127 L828 127 L829 127 " fill="none" stroke="black" /></svg>