<?xml version="1.0" encoding="utf-8" ?>
<svg baseProfile="tiny" height="271" version="1.2" viewBox="-3 -3 336 271" width="336" xmlns="http://www.w3.org/2000/svg" xmlns:ev="http://www.w3.org/2001/xml-events" xmlns:xlink="http://www.w3.org/1999/xlink"><defs /><path d="M191 2 L175 0 L153 3 L126 10 L100 17 L74 30 L50 49 L31 67 L15 85 L6 105 L0 127 L2 152 L12 177 L30 199 L54 221 L88 239 L132 254 L178 267 L224 271 L268 263 L300 250 L318 233 L329 205 L336 184 L335 156 L325 124 L318 105 L301 79 L286 58 L277 48 L261 36 L243 27 L232 24 L219 19 L200 13 L189 12 L180 12 L173 12 L172 12 " fill="none" stroke="black" /></svg>