<?xml version="1.0" encoding="utf-8" ?>
<svg baseProfile="tiny" height="57" version="1.2" viewBox="-3 -3 658 57" width="658" xmlns="http://www.w3.org/2000/svg" xmlns:ev="http://www.w3.org/2001/xml-events" xmlns:xlink="http://www.w3.org/1999/xlink"><defs /><path d="M2 46 L0 46 L0 40 L1 28 L9 16 L23 5 L34 0 L39 1 L43 10 L48 26 L49 39 L44 48 L42 48 L41 42 L45 26 L52 12 L65 5 L82 6 L94 13 L102 24 L104 37 L101 45 L97 46 L95 42 L94 26 L104 13 L120 5 L138 3 L151 6 L160 16 L162 29 L156 43 L149 49 L147 49 L146 43 L149 27 L159 15 L170 6 L180 3 L188 6 L194 13 L199 27 L200 42 L200 52 L199 53 L195 50 L192 36 L196 25 L202 15 L218 11 L236 11 L245 16 L248 28 L249 43 L246 52 L242 54 L241 54 L240 40 L244 26 L253 15 L265 8 L275 7 L283 9 L289 18 L291 30 L291 43 L290 53 L288 55 L287 54 L286 40 L289 25 L299 11 L314 5 L329 5 L340 13 L347 22 L348 31 L345 44 L340 51 L337 51 L336 45 L335 27 L342 14 L355 5 L369 4 L380 9 L388 17 L393 29 L393 40 L390 48 L390 49 L390 47 L394 36 L401 24 L412 15 L427 11 L446 11 L457 19 L462 31 L463 41 L460 50 L451 56 L442 55 L440 47 L445 37 L455 28 L471 22 L487 20 L499 24 L506 30 L510 36 L511 44 L509 51 L508 54 L508 53 L511 43 L517 30 L527 19 L542 15 L555 17 L563 25 L567 35 L569 44 L566 51 L558 55 L553 55 L550 48 L550 41 L559 34 L574 26 L591 22 L603 22 L610 26 L615 31 L618 39 L619 48 L619 55 L619 56 L617 57 L612 51 L612 46 L613 39 L622 27 L631 23 L640 23 L650 23 L656 24 L657 24 L657 25 L658 25 " fill="none" stroke="black" /></svg>