<?xml version="1.0" encoding="utf-8" ?>
<svg baseProfile="tiny" height="203" version="1.2" viewBox="-3 -3 1193 203" width="1193" xmlns="http://www.w3.org/2000/svg" xmlns:ev="http://www.w3.org/2001/xml-events" xmlns:xlink="http://www.w3.org/1999/xlink"><defs /><path d="M0 124 L6 122 L52 105 L146 63 L238 12 L273 0 L274 0 L275 3 L275 5 L279 27 L293 105 L313 173 L325 197 L328 202 L328 203 L323 202 L305 184 L250 134 L186 80 L141 48 L122 40 L115 37 L115 36 L116 36 L146 41 L235 67 L327 92 L397 100 L425 100 L426 101 L426 103 L429 107 L440 129 L454 139 L473 134 L504 100 L538 53 L570 32 L582 34 L598 72 L628 124 L655 148 L679 156 L695 142 L710 86 L734 53 L749 49 L764 82 L783 121 L800 144 L805 147 L804 147 L801 148 L784 152 L723 168 L650 189 L605 198 L583 202 L582 203 L590 200 L625 181 L734 113 L848 49 L903 24 L914 21 L918 38 L933 106 L956 168 L974 191 L983 195 L993 192 L1016 159 L1054 112 L1089 89 L1107 87 L1121 112 L1141 148 L1160 161 L1174 161 L1185 148 L1192 143 L1193 141 " fill="none" stroke="black" /></svg>