<?xml version="1.0" encoding="utf-8" ?>
<svg baseProfile="tiny" height="326" version="1.2" viewBox="-3 -3 1562 326" width="1562" xmlns="http://www.w3.org/2000/svg" xmlns:ev="http://www.w3.org/2001/xml-events" xmlns:xlink="http://www.w3.org/1999/xlink"><defs /><path d="M0 185 L10 181 L40 170 L86 146 L124 122 L140 113 L142 111 L141 112 L141 117 L144 127 L148 136 L156 149 L171 176 L189 207 L211 232 L228 247 L233 250 L233 242 L238 225 L246 195 L261 130 L282 71 L299 47 L304 42 L304 45 L304 49 L307 58 L315 80 L334 129 L361 187 L395 258 L415 309 L427 325 L428 325 L426 326 L424 326 L424 324 L424 322 L424 320 L425 311 L430 285 L436 234 L451 173 L486 86 L516 46 L522 39 L523 43 L527 55 L532 71 L539 89 L554 121 L571 168 L595 224 L613 261 L621 272 L622 272 L622 274 L623 264 L631 232 L656 162 L686 80 L715 28 L736 3 L739 0 L740 6 L744 18 L755 42 L780 83 L814 132 L847 182 L881 232 L903 260 L915 273 L915 274 L915 275 L915 276 L915 271 L917 263 L926 232 L947 165 L985 100 L1008 53 L1020 37 L1021 35 L1021 39 L1023 50 L1031 72 L1041 100 L1053 127 L1067 156 L1083 189 L1095 223 L1106 255 L1114 265 L1115 266 L1115 268 L1115 269 L1115 267 L1116 261 L1122 248 L1131 219 L1147 178 L1167 132 L1191 78 L1217 42 L1227 29 L1228 27 L1228 29 L1237 50 L1258 91 L1287 137 L1313 181 L1333 221 L1349 248 L1360 264 L1368 272 L1370 274 L1370 275 L1373 272 L1380 256 L1396 200 L1433 129 L1462 89 L1476 68 L1481 62 L1482 62 L1486 73 L1490 88 L1499 111 L1514 144 L1530 175 L1543 205 L1553 229 L1559 238 L1560 239 L1562 243 L1562 244 " fill="none" stroke="black" /></svg>