<?xml version="1.0" encoding="utf-8" ?>
<svg baseProfile="tiny" height="485" version="1.2" viewBox="-3 -3 1247 485" width="1247" xmlns="http://www.w3.org/2000/svg" xmlns:ev="http://www.w3.org/2001/xml-events" xmlns:xlink="http://www.w3.org/1999/xlink"><defs /><path d="M0 179 L2 187 L7 195 L13 204 L25 215 L35 223 L48 230 L62 236 L78 240 L90 241 L102 241 L116 241 L129 239 L144 236 L158 231 L173 220 L187 206 L199 193 L213 176 L228 149 L238 133 L248 113 L257 86 L262 69 L262 50 L257 30 L248 17 L237 8 L225 1 L220 0 L217 0 L209 3 L199 13 L188 24 L180 33 L173 44 L167 56 L163 65 L162 77 L161 91 L160 104 L160 117 L161 130 L163 146 L166 165 L170 184 L174 203 L179 222 L186 241 L195 260 L208 278 L223 295 L241 310 L263 323 L288 335 L316 346 L350 355 L381 362 L418 366 L458 366 L497 363 L532 352 L567 330 L605 298 L636 260 L651 211 L667 164 L682 118 L683 81 L674 53 L666 38 L653 28 L626 15 L607 9 L594 9 L580 9 L569 11 L562 16 L558 19 L554 25 L551 32 L547 40 L543 49 L537 58 L532 69 L525 81 L518 94 L512 107 L508 123 L506 142 L503 162 L502 187 L502 215 L502 245 L511 273 L528 300 L551 331 L579 362 L625 395 L676 422 L732 435 L791 437 L851 427 L897 383 L938 313 L978 254 L1000 169 L1005 124 L1001 101 L986 76 L978 64 L971 58 L963 53 L957 51 L951 51 L942 51 L934 55 L927 60 L921 65 L917 72 L914 81 L909 93 L902 104 L898 116 L897 128 L895 139 L892 154 L890 171 L889 186 L889 203 L890 226 L892 248 L895 273 L901 299 L910 326 L924 354 L946 383 L979 416 L1016 448 L1066 478 L1119 485 L1160 472 L1194 445 L1222 410 L1238 350 L1244 303 L1247 273 L1239 249 L1237 245 L1236 243 " fill="none" stroke="black" /></svg>