<?xml version="1.0" encoding="utf-8" ?>
<svg baseProfile="tiny" height="177" version="1.2" viewBox="-3 -3 552 177" width="552" xmlns="http://www.w3.org/2000/svg" xmlns:ev="http://www.w3.org/2001/xml-events" xmlns:xlink="http://www.w3.org/1999/xlink"><defs /><path d="M0 94 L6 94 L21 84 L28 62 L17 36 L8 31 L3 31 L1 40 L1 61 L13 87 L34 105 L52 107 L63 91 L72 65 L74 35 L69 11 L63 5 L57 6 L53 19 L50 42 L48 70 L64 94 L90 108 L115 111 L126 93 L132 55 L139 26 L136 6 L126 1 L122 2 L113 17 L102 43 L98 65 L114 92 L135 109 L156 114 L170 103 L181 71 L181 30 L178 6 L172 1 L164 0 L159 7 L152 32 L143 59 L150 92 L167 116 L185 124 L198 116 L214 88 L229 61 L227 26 L218 17 L207 15 L197 21 L188 39 L187 66 L198 100 L216 125 L230 137 L245 135 L256 113 L260 65 L258 28 L253 13 L251 12 L248 22 L243 49 L240 77 L250 102 L269 120 L289 129 L306 124 L320 99 L334 77 L339 46 L335 21 L326 19 L312 22 L301 35 L291 61 L288 97 L301 124 L313 136 L327 140 L343 134 L355 103 L360 56 L360 18 L356 4 L350 4 L343 12 L337 47 L329 91 L340 122 L361 141 L381 148 L398 140 L413 114 L421 70 L420 45 L408 36 L394 35 L387 42 L383 67 L386 101 L402 130 L421 145 L436 148 L447 130 L457 88 L468 57 L466 29 L460 24 L451 28 L443 53 L430 85 L431 120 L444 146 L463 157 L479 157 L498 136 L515 105 L517 65 L506 42 L497 42 L492 47 L489 71 L483 99 L481 124 L489 146 L500 155 L510 156 L525 155 L542 149 L552 124 L551 89 L548 74 L539 61 L528 59 L521 65 L515 93 L508 126 L507 149 L521 168 L535 177 L542 177 L545 172 L547 170 " fill="none" stroke="black" /></svg>