<?xml version="1.0" encoding="utf-8" ?>
<svg baseProfile="tiny" height="480" version="1.2" viewBox="-3 -3 1033 480" width="1033" xmlns="http://www.w3.org/2000/svg" xmlns:ev="http://www.w3.org/2001/xml-events" xmlns:xlink="http://www.w3.org/1999/xlink"><defs /><path d="M0 240 L25 216 L101 150 L194 83 L239 65 L245 64 L254 71 L300 141 L381 243 L470 329 L528 381 L582 402 L692 382 L832 280 L954 187 L1024 140 L1033 134 L1011 148 L952 204 L880 266 L789 351 L673 426 L605 462 L549 474 L495 480 L419 479 L331 468 L276 463 L255 454 L259 403 L333 249 L477 99 L586 23 L618 2 L619 0 L602 12 L565 46 L464 136 L289 260 L129 364 L65 394 L60 394 L82 390 L161 383 L361 352 L616 259 L788 187 L834 172 L838 173 L838 175 L836 176 L815 178 L712 160 L525 115 L381 75 L311 51 L293 46 L292 45 L316 61 L430 157 L599 293 L782 399 L918 458 L966 471 L967 471 L967 472 L956 472 L887 461 L685 426 L430 383 L202 325 L91 299 L43 290 L29 289 " fill="none" stroke="black" /></svg>