<?xml version="1.0" encoding="utf-8" ?>
<svg baseProfile="tiny" height="19" version="1.2" viewBox="-3 -3 243 19" width="243" xmlns="http://www.w3.org/2000/svg" xmlns:ev="http://www.w3.org/2001/xml-events" xmlns:xlink="http://www.w3.org/1999/xlink"><defs /><path d="M0 19 L1 19 L2 19 L2 18 L4 18 L5 17 L7 16 L9 15 L11 14 L13 14 L13 13 L14 12 L15 12 L17 11 L18 11 L18 10 L19 10 L21 10 L22 9 L24 9 L26 8 L33 8 L39 8 L43 8 L48 8 L52 8 " fill="none" stroke="black" /><path d="M0 19 L1 19 L2 19 L2 18 L4 18 L5 17 L7 16 L9 15 L11 14 L13 14 L13 13 L14 12 L15 12 L17 11 L18 11 L18 10 L19 10 L21 10 L22 9 L24 9 L26 8 L33 8 L39 8 L43 8 L48 8 L52 8 M57 8 L59 7 L60 7 L62 7 L69 6 L74 6 L78 5 L82 5 L84 5 L85 5 L88 4 L89 4 L91 4 L99 4 L103 4 L106 4 L108 4 L109 4 L110 4 L111 4 L113 4 L115 4 L118 4 L126 6 L130 6 L133 6 L134 6 L136 6 L138 6 L140 7 L142 7 L144 7 L145 7 L148 7 L150 7 L152 7 L153 7 L156 7 L157 7 L159 7 L161 7 L163 7 L165 6 L171 5 L177 5 L180 5 L182 5 L184 4 L185 4 L187 4 L189 4 L191 4 L193 4 L195 4 L197 4 L199 4 L201 3 L202 3 L205 3 L207 2 " fill="none" stroke="black" /><path d="M0 19 L1 19 L2 19 L2 18 L4 18 L5 17 L7 16 L9 15 L11 14 L13 14 L13 13 L14 12 L15 12 L17 11 L18 11 L18 10 L19 10 L21 10 L22 9 L24 9 L26 8 L33 8 L39 8 L43 8 L48 8 L52 8 M57 8 L59 7 L60 7 L62 7 L69 6 L74 6 L78 5 L82 5 L84 5 L85 5 L88 4 L89 4 L91 4 L99 4 L103 4 L106 4 L108 4 L109 4 L110 4 L111 4 L113 4 L115 4 L118 4 L126 6 L130 6 L133 6 L134 6 L136 6 L138 6 L140 7 L142 7 L144 7 L145 7 L148 7 L150 7 L152 7 L153 7 L156 7 L157 7 L159 7 L161 7 L163 7 L165 6 L171 5 L177 5 L180 5 L182 5 L184 4 L185 4 L187 4 L189 4 L191 4 L193 4 L195 4 L197 4 L199 4 L201 3 L202 3 L205 3 L207 2 M207 2 L209 2 L210 2 L212 2 L214 2 L215 2 L217 3 L219 3 L221 3 L222 3 L223 3 L224 3 L225 3 L226 3 L227 3 L229 3 L231 1 L236 1 L238 1 L238 0 L239 0 L240 0 L242 0 L243 0 " fill="none" stroke="black" /><circle cx="243" cy="0" fill="black" r="1" /></svg>