<?xml version="1.0" encoding="utf-8" ?>
<svg baseProfile="tiny" height="60" version="1.2" viewBox="-3 -3 270 60" width="270" xmlns="http://www.w3.org/2000/svg" xmlns:ev="http://www.w3.org/2001/xml-events" xmlns:xlink="http://www.w3.org/1999/xlink"><defs /><path d="M0 60 L1 59 L1 58 L2 57 L3 56 L5 55 L5 54 L8 51 L10 48 L11 47 L13 45 L18 42 L25 39 " fill="none" stroke="black" /><path d="M0 60 L1 59 L1 58 L2 57 L3 56 L5 55 L5 54 L8 51 L10 48 L11 47 L13 45 L18 42 L25 39 M25 39 L25 38 L26 38 L26 37 L27 37 L27 36 L28 36 L27 36 L26 36 L27 36 L29 34 L30 33 L33 31 L34 31 L34 30 L36 30 L37 30 L38 30 L40 30 L41 29 L42 29 L45 29 L46 28 L49 28 L50 27 L52 26 L53 26 L55 25 L57 24 L59 23 L61 23 L63 22 L64 21 L74 20 L78 19 L81 19 L85 19 L87 19 L88 19 L89 19 L91 19 L92 19 L94 19 L95 18 L97 18 L99 18 L102 17 L114 15 L117 14 L121 14 L125 13 L127 13 L129 13 L130 13 L131 13 L133 13 L132 13 L133 13 L133 14 L136 16 L140 18 L144 19 L146 19 L147 20 L148 20 L149 20 L150 20 L151 20 L152 19 L153 19 L154 19 L155 18 L156 18 L159 17 L160 15 L161 14 L164 13 L166 11 L168 11 L169 10 L172 10 L173 10 L176 10 L186 8 L191 8 L194 7 L195 7 L196 7 L199 7 L202 8 L206 9 L210 9 L212 9 L213 9 L214 9 L215 9 L216 9 L217 9 L218 9 L220 9 L221 8 L224 7 L225 7 L227 6 L229 5 L230 4 L232 3 L233 3 L234 2 L235 2 L236 2 L237 1 L238 1 L240 1 L241 1 L242 1 L242 0 L243 0 L245 0 L246 0 L249 0 L250 0 L252 0 L254 0 L256 0 L258 0 L260 0 L262 0 L263 0 L264 0 L265 0 L266 0 L267 0 L268 0 L269 0 L270 0 " fill="none" stroke="black" /></svg>