<?xml version="1.0" encoding="utf-8" ?>
<svg baseProfile="tiny" height="163" version="1.2" viewBox="-3 -3 185 163" width="185" xmlns="http://www.w3.org/2000/svg" xmlns:ev="http://www.w3.org/2001/xml-events" xmlns:xlink="http://www.w3.org/1999/xlink"><defs /><path d="M84 116 L84 109 L84 86 L85 66 L92 46 L95 40 L99 38 L103 38 L114 38 L124 38 L131 38 L139 38 L145 40 L148 43 L151 51 L152 57 L152 61 L152 66 L151 73 L148 82 L143 88 L137 101 L132 108 L126 115 L112 125 L102 131 L87 140 L75 147 L66 151 L56 152 L46 151 L32 137 L25 124 L21 102 L21 90 L23 74 L26 61 L30 54 L38 44 L43 39 L47 35 L55 30 L63 28 L76 25 L85 22 L100 20 L116 18 L126 16 L143 15 L152 15 L158 16 L162 19 L167 25 L171 34 L172 43 L172 51 L172 60 L172 72 L170 75 L168 80 L163 90 L160 98 L156 105 L149 113 L140 123 L133 132 L126 138 L115 141 L104 144 L92 147 L83 148 L71 150 L63 150 L56 150 L46 148 L37 146 L27 140 L19 130 L12 120 L5 107 L1 96 L0 83 L0 75 L0 68 L4 53 L7 44 L13 31 L17 21 L21 16 L28 11 L34 8 L43 6 L50 3 L59 3 L72 1 L81 0 L93 0 L104 0 L113 1 L125 2 L136 2 L148 2 L157 4 L166 5 L174 7 L180 11 L182 15 L183 22 L185 30 L185 36 L185 39 L184 50 L183 58 L181 64 L178 72 L174 81 L168 93 L166 101 L164 108 L161 120 L158 127 L156 131 L154 133 L149 138 L145 142 L141 147 L135 154 L129 158 L116 162 L107 163 L95 163 L74 163 L66 160 L60 158 L58 156 L57 155 L54 152 L51 151 L45 145 L40 139 L36 132 " fill="none" stroke="black" /></svg>