<?xml version="1.0" encoding="utf-8" ?>
<svg baseProfile="tiny" height="198" version="1.2" viewBox="-3 -3 245 198" width="245" xmlns="http://www.w3.org/2000/svg" xmlns:ev="http://www.w3.org/2001/xml-events" xmlns:xlink="http://www.w3.org/1999/xlink"><defs /><path d="M0 198 L1 198 L5 192 L18 163 L19 161 L22 161 L26 165 L30 168 L33 169 L36 166 L38 165 L40 165 L42 165 L44 165 L50 162 L71 148 L72 148 L73 148 L74 148 L75 148 L76 146 L77 145 L78 145 L79 146 L80 146 L84 144 L92 136 L94 135 L98 135 L100 135 L102 134 L104 131 L105 131 L107 132 L109 134 L113 135 L114 135 L121 119 L123 115 L123 114 L124 115 L125 115 " fill="none" stroke="black" /><path d="M0 198 L1 198 L5 192 L18 163 L19 161 L22 161 L26 165 L30 168 L33 169 L36 166 L38 165 L40 165 L42 165 L44 165 L50 162 L71 148 L72 148 L73 148 L74 148 L75 148 L76 146 L77 145 L78 145 L79 146 L80 146 L84 144 L92 136 L94 135 L98 135 L100 135 L102 134 L104 131 L105 131 L107 132 L109 134 L113 135 L114 135 L121 119 L123 115 L123 114 L124 115 L125 115 M126 115 L127 111 L128 109 " fill="none" stroke="black" /><path d="M0 198 L1 198 L5 192 L18 163 L19 161 L22 161 L26 165 L30 168 L33 169 L36 166 L38 165 L40 165 L42 165 L44 165 L50 162 L71 148 L72 148 L73 148 L74 148 L75 148 L76 146 L77 145 L78 145 L79 146 L80 146 L84 144 L92 136 L94 135 L98 135 L100 135 L102 134 L104 131 L105 131 L107 132 L109 134 L113 135 L114 135 L121 119 L123 115 L123 114 L124 115 L125 115 M126 115 L127 111 L128 109 M128 109 L130 106 L135 98 L136 97 L138 97 L140 99 L141 100 L144 100 L147 98 L150 98 L156 100 L160 102 L162 102 L167 93 L174 83 L174 82 L174 81 L176 77 L180 70 L181 68 L183 69 L184 70 L187 72 L188 72 L194 58 L196 56 L197 56 L198 57 L199 57 L201 57 L205 50 L206 49 L207 49 L208 50 L209 50 L210 50 L212 48 L213 47 L214 47 L215 46 L215 44 L217 40 L231 16 L233 14 L234 14 L235 16 L236 18 L237 18 L238 16 L240 15 L241 14 L242 14 L242 11 L242 10 L243 8 L244 5 L245 0 " fill="none" stroke="black" /></svg>