<?xml version="1.0" encoding="utf-8" ?>
<svg baseProfile="tiny" height="69" version="1.2" viewBox="-3 -3 288 69" width="288" xmlns="http://www.w3.org/2000/svg" xmlns:ev="http://www.w3.org/2001/xml-events" xmlns:xlink="http://www.w3.org/1999/xlink"><defs /><path d="M0 68 L1 68 L4 69 L6 69 L8 68 L11 66 L15 63 L17 62 L19 59 L21 56 L25 52 L27 47 L29 43 L32 38 L36 34 L42 30 L50 24 L57 20 L64 15 L70 12 L74 10 L79 8 L84 5 L88 3 L92 1 L97 0 L98 0 L99 0 L100 0 L102 3 L104 6 L106 10 L109 12 L110 13 L110 15 L110 16 L110 17 L110 18 L110 19 L110 20 L111 21 L111 23 L115 30 L115 32 L116 33 L117 35 L117 36 L118 37 L118 38 L119 39 L119 40 L119 41 L120 41 L120 42 L121 42 L121 44 L121 45 L121 46 L121 47 L121 48 L122 49 L122 50 L127 52 L132 52 L139 52 L143 51 L147 51 L154 50 L157 49 L159 47 L162 46 L164 44 L165 43 L166 42 L168 40 L169 39 L171 38 L173 35 L175 34 L177 33 L179 32 L183 31 L191 31 L193 31 L196 31 L197 31 L199 32 L201 34 L203 36 L208 41 L211 45 L212 47 L213 48 L214 50 L215 50 L215 52 L216 52 L216 53 L216 54 L217 54 L217 55 L218 56 L220 57 L222 58 L225 60 L226 61 L227 61 L228 61 L229 61 L230 61 L231 61 L231 59 L232 58 L233 56 L234 54 L235 52 L236 50 L237 49 L239 47 L240 46 L242 45 L244 44 L246 42 L248 42 L249 41 L254 39 L257 39 L259 38 L260 37 L261 37 L264 37 L266 36 L274 36 L279 36 L281 35 L282 35 L283 36 L283 37 L283 39 L284 40 L285 41 L286 42 L286 43 L286 44 L287 46 L287 48 L288 48 L288 51 L288 52 " fill="none" stroke="black" /></svg>