<?xml version="1.0" encoding="utf-8" ?>
<svg baseProfile="tiny" height="42" version="1.2" viewBox="-3 -3 90 42" width="90" xmlns="http://www.w3.org/2000/svg" xmlns:ev="http://www.w3.org/2001/xml-events" xmlns:xlink="http://www.w3.org/1999/xlink"><defs /><path d="M0 40 L0 42 L2 42 L2 40 L3 37 L3 30 L3 29 L3 30 L4 32 L6 34 L6 35 L7 35 L7 34 L7 33 L7 34 L7 37 L8 38 L8 40 L9 41 L10 41 L10 38 L10 30 L10 25 L10 24 L10 25 L10 26 L12 32 L14 36 L14 38 L15 38 L15 37 L15 36 L15 35 L15 33 L15 32 L15 31 L15 33 L15 35 L16 37 L17 38 L18 39 L18 38 L18 32 L18 23 L18 20 L18 22 L20 27 L22 35 L22 36 L23 37 L23 34 L23 26 L22 19 L22 18 L22 21 L23 23 L24 25 L25 25 L25 24 " fill="none" stroke="black" /><path d="M0 40 L0 42 L2 42 L2 40 L3 37 L3 30 L3 29 L3 30 L4 32 L6 34 L6 35 L7 35 L7 34 L7 33 L7 34 L7 37 L8 38 L8 40 L9 41 L10 41 L10 38 L10 30 L10 25 L10 24 L10 25 L10 26 L12 32 L14 36 L14 38 L15 38 L15 37 L15 36 L15 35 L15 33 L15 32 L15 31 L15 33 L15 35 L16 37 L17 38 L18 39 L18 38 L18 32 L18 23 L18 20 L18 22 L20 27 L22 35 L22 36 L23 37 L23 34 L23 26 L22 19 L22 18 L22 21 L23 23 L24 25 L25 25 L25 24 M26 23 L27 26 L27 27 L28 27 L28 24 L28 16 L28 12 L29 14 L31 16 L37 26 L40 30 L40 31 L41 31 L41 29 L42 20 L42 10 L42 7 L42 8 L43 10 L44 12 L45 14 L46 14 L46 11 L46 2 L46 0 L47 2 L53 16 L55 21 L55 23 L56 23 L56 22 L56 20 L56 16 L56 13 L56 12 L56 13 L57 15 L58 16 L59 17 L60 17 L60 15 L60 12 L60 9 L60 11 L64 21 L65 23 L66 24 L67 24 L67 22 L67 17 L67 10 L67 7 L67 6 L67 8 L68 10 L68 11 L69 12 L69 11 L69 10 L69 8 L69 7 L69 6 L70 6 L70 7 L71 8 L73 10 L73 12 L74 13 L75 13 L75 11 L76 10 L76 8 L77 6 L78 6 L80 7 L81 9 L82 10 L83 10 L84 7 L84 5 L84 3 L84 2 L85 3 L86 5 L88 7 L89 9 L90 9 L90 8 L90 6 L90 3 " fill="none" stroke="black" /></svg>