<?xml version="1.0" encoding="utf-8" ?>
<svg baseProfile="tiny" height="282" version="1.2" viewBox="-3 -3 160 282" width="160" xmlns="http://www.w3.org/2000/svg" xmlns:ev="http://www.w3.org/2001/xml-events" xmlns:xlink="http://www.w3.org/1999/xlink"><defs /><path d="M42 274 L43 274 L44 274 L45 275 L47 275 L48 276 L50 276 L52 276 L54 277 L56 277 L58 278 L60 278 L62 279 L64 279 L65 279 L67 280 L69 280 L71 280 L75 280 L82 282 L84 282 L85 282 L87 282 L89 282 L90 282 L91 282 L92 282 L93 282 L95 282 L96 282 L97 282 L98 282 L99 282 L100 282 L100 280 L104 266 L115 221 L121 191 L129 165 L137 129 L143 106 L149 83 L153 62 L155 53 L155 49 L155 48 L156 48 L156 49 L156 50 L156 49 L156 48 L156 47 L156 46 L156 45 L156 44 L156 43 L156 42 L156 41 L156 40 L156 39 L156 37 L156 36 L156 35 L156 34 L156 33 L156 32 L156 31 L156 30 L156 29 L156 28 L156 27 L156 26 L156 25 L157 24 L158 23 L158 21 L158 20 L158 19 L159 17 L159 15 L159 14 L159 12 L159 11 L159 10 L159 9 L159 8 L160 8 L160 7 L160 6 L160 5 L160 4 L160 3 L160 2 L160 1 L160 0 " fill="none" stroke="black" /><path d="M42 274 L43 274 L44 274 L45 275 L47 275 L48 276 L50 276 L52 276 L54 277 L56 277 L58 278 L60 278 L62 279 L64 279 L65 279 L67 280 L69 280 L71 280 L75 280 L82 282 L84 282 L85 282 L87 282 L89 282 L90 282 L91 282 L92 282 L93 282 L95 282 L96 282 L97 282 L98 282 L99 282 L100 282 L100 280 L104 266 L115 221 L121 191 L129 165 L137 129 L143 106 L149 83 L153 62 L155 53 L155 49 L155 48 L156 48 L156 49 L156 50 L156 49 L156 48 L156 47 L156 46 L156 45 L156 44 L156 43 L156 42 L156 41 L156 40 L156 39 L156 37 L156 36 L156 35 L156 34 L156 33 L156 32 L156 31 L156 30 L156 29 L156 28 L156 27 L156 26 L156 25 L157 24 L158 23 L158 21 L158 20 L158 19 L159 17 L159 15 L159 14 L159 12 L159 11 L159 10 L159 9 L159 8 L160 8 L160 7 L160 6 L160 5 L160 4 L160 3 L160 2 L160 1 L160 0 M43 274 L42 273 L40 273 L38 272 L37 272 L35 272 L33 271 L31 271 L30 271 L29 271 L28 270 L27 270 L26 270 L25 270 L23 270 L22 270 L21 270 L18 270 L17 270 L16 270 L14 269 L13 269 L12 269 L11 268 L10 268 L9 268 L8 268 L7 268 L6 267 L5 267 L4 267 L3 267 L2 267 L1 267 L0 267 " fill="none" stroke="black" /></svg>