<?xml version="1.0" encoding="utf-8" ?>
<svg baseProfile="tiny" height="58" version="1.2" viewBox="-3 -3 118 58" width="118" xmlns="http://www.w3.org/2000/svg" xmlns:ev="http://www.w3.org/2001/xml-events" xmlns:xlink="http://www.w3.org/1999/xlink"><defs /><path d="M0 23 L6 24 L11 26 L17 31 L19 34 L21 40 L23 45 L23 48 L23 52 L23 56 L23 58 L22 58 L21 58 L20 56 L18 51 L15 42 L14 38 L13 36 L13 32 L13 29 L13 27 " fill="none" stroke="black" /><path d="M0 23 L6 24 L11 26 L17 31 L19 34 L21 40 L23 45 L23 48 L23 52 L23 56 L23 58 L22 58 L21 58 L20 56 L18 51 L15 42 L14 38 L13 36 L13 32 L13 29 L13 27 M10 32 L10 31 L10 30 L11 28 L13 27 L19 19 L21 18 L22 17 L24 16 L28 15 L31 14 L34 14 L38 14 L43 14 L47 14 L51 17 L53 19 L55 20 L57 24 L59 26 L61 28 L62 30 L63 31 L63 33 L63 35 L63 37 L63 39 L63 40 L62 41 L62 42 L61 42 L60 43 L59 43 L58 43 L57 42 L56 40 L55 38 L55 37 L55 34 L55 32 L56 30 L57 22 L58 19 L60 15 L61 11 L62 10 L62 9 L62 8 L63 8 L64 8 L65 7 L66 7 L68 7 L70 8 L72 9 L77 13 L80 16 L82 18 L83 19 L83 20 L84 23 L85 24 L86 27 L86 28 L86 31 L87 32 L87 33 L87 35 L87 36 L87 37 L86 37 L85 38 L84 38 L83 37 L81 34 L80 33 L80 31 L80 29 L80 27 L80 25 L82 23 L82 21 L83 20 L84 18 L89 12 L92 7 L96 5 L99 2 L100 0 L101 0 L102 0 L103 0 L104 0 L106 1 L111 5 L114 9 L116 12 L117 14 L117 20 L118 21 L118 23 L118 25 L118 27 L117 27 L117 28 L116 28 L115 29 L114 29 L113 29 L112 29 L111 29 L110 29 L110 28 L110 26 L110 25 L110 24 L110 23 L110 22 L110 21 L110 20 L110 18 L111 17 L112 15 L113 14 L115 12 L115 11 L116 10 " fill="none" stroke="black" /></svg>