<?xml version="1.0" encoding="utf-8" ?>
<svg baseProfile="tiny" height="95" version="1.2" viewBox="-3 -3 134 95" width="134" xmlns="http://www.w3.org/2000/svg" xmlns:ev="http://www.w3.org/2001/xml-events" xmlns:xlink="http://www.w3.org/1999/xlink"><defs /><path d="M0 92 L2 92 L16 92 L24 92 L28 92 L33 92 L35 91 L40 91 L41 91 L42 91 L43 91 L43 90 L44 87 L45 72 L45 58 L45 49 L44 41 L44 36 L44 28 L43 23 L43 19 L42 12 L41 7 L40 4 L40 2 L40 1 L39 0 " fill="none" stroke="black" /><path d="M0 92 L2 92 L16 92 L24 92 L28 92 L33 92 L35 91 L40 91 L41 91 L42 91 L43 91 L43 90 L44 87 L45 72 L45 58 L45 49 L44 41 L44 36 L44 28 L43 23 L43 19 L42 12 L41 7 L40 4 L40 2 L40 1 L39 0 M52 91 L53 91 L54 91 L56 92 L58 92 L64 93 L65 93 L67 93 L68 93 L69 93 L70 94 L71 94 L72 94 L77 95 L83 95 L84 95 L85 95 L86 95 L87 95 L88 95 L91 95 L93 94 L94 94 L94 93 L94 91 L94 90 L94 82 L94 68 L94 61 L94 56 L94 55 L94 53 L94 51 L94 50 L94 47 L94 45 L94 41 L94 38 L94 36 L93 34 L93 33 L92 32 L92 31 L91 29 L90 27 L90 24 L90 16 L90 11 L89 5 L89 3 L89 1 L89 0 " fill="none" stroke="black" /><path d="M0 92 L2 92 L16 92 L24 92 L28 92 L33 92 L35 91 L40 91 L41 91 L42 91 L43 91 L43 90 L44 87 L45 72 L45 58 L45 49 L44 41 L44 36 L44 28 L43 23 L43 19 L42 12 L41 7 L40 4 L40 2 L40 1 L39 0 M52 91 L53 91 L54 91 L56 92 L58 92 L64 93 L65 93 L67 93 L68 93 L69 93 L70 94 L71 94 L72 94 L77 95 L83 95 L84 95 L85 95 L86 95 L87 95 L88 95 L91 95 L93 94 L94 94 L94 93 L94 91 L94 90 L94 82 L94 68 L94 61 L94 56 L94 55 L94 53 L94 51 L94 50 L94 47 L94 45 L94 41 L94 38 L94 36 L93 34 L93 33 L92 32 L92 31 L91 29 L90 27 L90 24 L90 16 L90 11 L89 5 L89 3 L89 1 L89 0 M99 92 L101 91 L103 91 L104 91 L106 91 L108 91 L110 91 L111 91 L113 91 L115 91 L116 91 L119 91 L120 91 L122 91 L124 91 L126 92 L127 92 L128 92 L129 92 L130 92 L131 92 L132 91 L132 87 L133 82 L133 74 L134 67 L134 64 L134 58 L134 54 L134 48 L133 43 " fill="none" stroke="black" /><path d="M0 92 L2 92 L16 92 L24 92 L28 92 L33 92 L35 91 L40 91 L41 91 L42 91 L43 91 L43 90 L44 87 L45 72 L45 58 L45 49 L44 41 L44 36 L44 28 L43 23 L43 19 L42 12 L41 7 L40 4 L40 2 L40 1 L39 0 M52 91 L53 91 L54 91 L56 92 L58 92 L64 93 L65 93 L67 93 L68 93 L69 93 L70 94 L71 94 L72 94 L77 95 L83 95 L84 95 L85 95 L86 95 L87 95 L88 95 L91 95 L93 94 L94 94 L94 93 L94 91 L94 90 L94 82 L94 68 L94 61 L94 56 L94 55 L94 53 L94 51 L94 50 L94 47 L94 45 L94 41 L94 38 L94 36 L93 34 L93 33 L92 32 L92 31 L91 29 L90 27 L90 24 L90 16 L90 11 L89 5 L89 3 L89 1 L89 0 M99 92 L101 91 L103 91 L104 91 L106 91 L108 91 L110 91 L111 91 L113 91 L115 91 L116 91 L119 91 L120 91 L122 91 L124 91 L126 92 L127 92 L128 92 L129 92 L130 92 L131 92 L132 91 L132 87 L133 82 L133 74 L134 67 L134 64 L134 58 L134 54 L134 48 L133 43 M133 43 L133 41 L133 39 L132 35 L132 30 L131 28 L130 26 L130 24 L130 22 L130 20 L129 18 L129 16 L128 15 L128 13 L128 12 L128 11 " fill="none" stroke="black" /></svg>