<?xml version="1.0" encoding="utf-8" ?>
<svg baseProfile="tiny" height="254" version="1.2" viewBox="-3 -3 294 254" width="294" xmlns="http://www.w3.org/2000/svg" xmlns:ev="http://www.w3.org/2001/xml-events" xmlns:xlink="http://www.w3.org/1999/xlink"><defs /><path d="M0 254 L0 242 L1 233 L3 223 L4 211 L5 202 L8 195 L10 191 L13 187 L21 181 L28 178 L36 175 L38 174 L49 171 L53 171 L64 169 L68 168 L86 166 L91 166 L94 166 L97 166 L98 166 L99 166 L101 166 L103 167 L105 168 L107 169 L109 170 L110 171 L110 172 L111 173 L112 175 L113 176 L113 177 L113 179 L113 181 L113 182 L113 185 L113 186 L113 187 L113 189 " fill="none" stroke="black" /><path d="M0 254 L0 242 L1 233 L3 223 L4 211 L5 202 L8 195 L10 191 L13 187 L21 181 L28 178 L36 175 L38 174 L49 171 L53 171 L64 169 L68 168 L86 166 L91 166 L94 166 L97 166 L98 166 L99 166 L101 166 L103 167 L105 168 L107 169 L109 170 L110 171 L110 172 L111 173 L112 175 L113 176 L113 177 L113 179 L113 181 L113 182 L113 185 L113 186 L113 187 L113 189 M116 173 L115 173 L114 171 L112 161 L111 153 L111 147 L111 138 L111 132 L112 130 L114 127 L115 126 L116 125 L118 124 L121 122 L125 120 L127 119 L129 118 L132 117 L136 115 L146 113 L154 112 L159 111 L164 111 L167 111 L168 111 L168 112 L169 112 L169 113 L169 114 L170 115 L170 116 L171 118 L171 119 " fill="none" stroke="black" /><path d="M0 254 L0 242 L1 233 L3 223 L4 211 L5 202 L8 195 L10 191 L13 187 L21 181 L28 178 L36 175 L38 174 L49 171 L53 171 L64 169 L68 168 L86 166 L91 166 L94 166 L97 166 L98 166 L99 166 L101 166 L103 167 L105 168 L107 169 L109 170 L110 171 L110 172 L111 173 L112 175 L113 176 L113 177 L113 179 L113 181 L113 182 L113 185 L113 186 L113 187 L113 189 M116 173 L115 173 L114 171 L112 161 L111 153 L111 147 L111 138 L111 132 L112 130 L114 127 L115 126 L116 125 L118 124 L121 122 L125 120 L127 119 L129 118 L132 117 L136 115 L146 113 L154 112 L159 111 L164 111 L167 111 L168 111 L168 112 L169 112 L169 113 L169 114 L170 115 L170 116 L171 118 L171 119 M171 113 L171 111 L171 109 L171 99 L171 96 L174 86 L177 79 L178 77 L179 75 L181 71 L182 68 L183 67 L183 66 L184 66 L185 65 L186 65 L187 64 L188 64 L189 64 L190 64 L192 64 L194 65 L197 67 L200 69 L201 69 L201 70 L202 70 L203 71 L203 72 " fill="none" stroke="black" /><path d="M0 254 L0 242 L1 233 L3 223 L4 211 L5 202 L8 195 L10 191 L13 187 L21 181 L28 178 L36 175 L38 174 L49 171 L53 171 L64 169 L68 168 L86 166 L91 166 L94 166 L97 166 L98 166 L99 166 L101 166 L103 167 L105 168 L107 169 L109 170 L110 171 L110 172 L111 173 L112 175 L113 176 L113 177 L113 179 L113 181 L113 182 L113 185 L113 186 L113 187 L113 189 M116 173 L115 173 L114 171 L112 161 L111 153 L111 147 L111 138 L111 132 L112 130 L114 127 L115 126 L116 125 L118 124 L121 122 L125 120 L127 119 L129 118 L132 117 L136 115 L146 113 L154 112 L159 111 L164 111 L167 111 L168 111 L168 112 L169 112 L169 113 L169 114 L170 115 L170 116 L171 118 L171 119 M171 113 L171 111 L171 109 L171 99 L171 96 L174 86 L177 79 L178 77 L179 75 L181 71 L182 68 L183 67 L183 66 L184 66 L185 65 L186 65 L187 64 L188 64 L189 64 L190 64 L192 64 L194 65 L197 67 L200 69 L201 69 L201 70 L202 70 L203 71 L203 72 M206 72 L206 71 L206 70 L206 68 L206 66 L206 64 L206 62 L207 60 L208 59 L209 58 L209 57 L210 56 L211 55 L212 52 L215 49 L216 47 L216 46 L217 46 L218 45 L221 44 L227 41 L230 41 L235 40 L238 39 L239 39 L241 39 L242 39 L243 39 " fill="none" stroke="black" /><path d="M0 254 L0 242 L1 233 L3 223 L4 211 L5 202 L8 195 L10 191 L13 187 L21 181 L28 178 L36 175 L38 174 L49 171 L53 171 L64 169 L68 168 L86 166 L91 166 L94 166 L97 166 L98 166 L99 166 L101 166 L103 167 L105 168 L107 169 L109 170 L110 171 L110 172 L111 173 L112 175 L113 176 L113 177 L113 179 L113 181 L113 182 L113 185 L113 186 L113 187 L113 189 M116 173 L115 173 L114 171 L112 161 L111 153 L111 147 L111 138 L111 132 L112 130 L114 127 L115 126 L116 125 L118 124 L121 122 L125 120 L127 119 L129 118 L132 117 L136 115 L146 113 L154 112 L159 111 L164 111 L167 111 L168 111 L168 112 L169 112 L169 113 L169 114 L170 115 L170 116 L171 118 L171 119 M171 113 L171 111 L171 109 L171 99 L171 96 L174 86 L177 79 L178 77 L179 75 L181 71 L182 68 L183 67 L183 66 L184 66 L185 65 L186 65 L187 64 L188 64 L189 64 L190 64 L192 64 L194 65 L197 67 L200 69 L201 69 L201 70 L202 70 L203 71 L203 72 M206 72 L206 71 L206 70 L206 68 L206 66 L206 64 L206 62 L207 60 L208 59 L209 58 L209 57 L210 56 L211 55 L212 52 L215 49 L216 47 L216 46 L217 46 L218 45 L221 44 L227 41 L230 41 L235 40 L238 39 L239 39 L241 39 L242 39 L243 39 M245 39 L245 38 L245 36 L244 34 L244 32 L244 31 L244 30 L245 29 L246 27 L247 25 L251 21 L269 8 L278 5 L286 2 L292 1 L293 0 L294 0 " fill="none" stroke="black" /></svg>