<?xml version="1.0" encoding="utf-8" ?>
<svg baseProfile="tiny" height="42" version="1.2" viewBox="-3 -3 189 42" width="189" xmlns="http://www.w3.org/2000/svg" xmlns:ev="http://www.w3.org/2001/xml-events" xmlns:xlink="http://www.w3.org/1999/xlink"><defs /><path d="M0 40 L2 41 L4 41 L6 42 L8 42 L9 42 L12 42 L13 42 L15 42 L17 42 L19 42 L21 42 L23 41 L25 39 L27 38 L29 38 L30 37 L32 35 L33 35 L34 33 L35 32 L35 31 L37 30 " fill="none" stroke="black" /><path d="M0 40 L2 41 L4 41 L6 42 L8 42 L9 42 L12 42 L13 42 L15 42 L17 42 L19 42 L21 42 L23 41 L25 39 L27 38 L29 38 L30 37 L32 35 L33 35 L34 33 L35 32 L35 31 L37 30 M35 31 L36 31 L37 30 L38 29 L39 28 L40 27 L41 26 L42 25 L42 24 L43 23 L44 22 L46 21 L53 19 L57 17 L61 16 L64 16 L65 16 L66 16 L67 17 L68 18 L69 18 L70 19 L72 21 L73 22 L75 23 L77 25 L78 26 L78 27 L80 27 L81 28 L81 30 L83 31 L84 33 L85 34 L86 34 L87 34 L88 34 L89 34 L91 34 L93 34 L94 34 L97 34 L99 34 L100 34 L102 33 L104 32 L105 32 L108 31 L111 29 L114 27 L116 26 L117 25 L118 23 L119 22 L120 21 L121 19 L121 17 L122 15 L124 14 L126 12 L127 11 L129 10 L131 9 L132 8 L134 7 L136 7 L137 7 L138 7 L140 7 L141 7 L142 7 L143 8 L144 9 L145 9 L147 10 L149 12 L150 13 L152 14 L152 15 L153 16 L154 17 L155 18 L156 19 L156 20 L157 20 L158 21 L158 22 L158 23 L158 24 L159 24 L159 25 L160 25 L161 25 L163 25 L164 25 L165 25 L166 25 L167 25 L169 24 L170 23 L172 22 L174 21 L175 19 L177 17 L178 14 L179 14 L179 13 L179 12 L179 11 L180 11 L180 10 L181 9 L181 8 L181 7 L182 6 L182 5 L183 4 L183 3 L185 2 L186 2 L186 1 L187 1 L188 1 L189 1 " fill="none" stroke="black" /><circle cx="189" cy="0" fill="black" r="1" /></svg>