<?xml version="1.0" encoding="utf-8" ?>
<svg baseProfile="tiny" height="186" version="1.2" viewBox="-3 -3 173 186" width="173" xmlns="http://www.w3.org/2000/svg" xmlns:ev="http://www.w3.org/2001/xml-events" xmlns:xlink="http://www.w3.org/1999/xlink"><defs /><path d="M2 186 L2 184 L2 181 L2 176 L1 160 L1 154 L0 146 L0 142 L0 132 L2 123 L3 119 L10 110 L11 108 L20 94 L43 76 L58 63 L70 54 L86 46 L102 39 L107 37 L124 31 L128 29 L135 25 L140 23 L148 17 L153 11 L154 9 L156 8 L157 7 L158 6 L159 6 L161 4 L162 4 L173 0 " fill="none" stroke="black" /></svg>