<?xml version="1.0" encoding="utf-8" ?>
<svg baseProfile="tiny" height="85" version="1.2" viewBox="-3 -3 115 85" width="115" xmlns="http://www.w3.org/2000/svg" xmlns:ev="http://www.w3.org/2001/xml-events" xmlns:xlink="http://www.w3.org/1999/xlink"><defs /><circle cx="6" cy="85" fill="black" r="1" /><path d="M5 73 L5 72 L4 70 L3 61 L2 52 L1 44 L0 35 L0 29 L0 21 L0 16 L0 13 L0 9 L0 8 L0 7 L2 6 L10 5 L27 3 L40 1 L48 1 L53 0 L58 0 L65 0 L69 0 L72 0 " fill="none" stroke="black" /><circle cx="49" cy="75" fill="black" r="1" /><path d="M5 73 L5 72 L4 70 L3 61 L2 52 L1 44 L0 35 L0 29 L0 21 L0 16 L0 13 L0 9 L0 8 L0 7 L2 6 L10 5 L27 3 L40 1 L48 1 L53 0 L58 0 L65 0 L69 0 L72 0 M51 64 L51 63 L50 58 L49 48 L48 41 L48 38 L48 36 L48 34 L47 32 L47 31 L47 30 L47 29 L47 28 L47 27 L48 26 L49 26 L52 25 L67 23 L79 21 L88 21 L89 21 L90 21 L91 20 " fill="none" stroke="black" /><circle cx="84" cy="67" fill="black" r="1" /><path d="M5 73 L5 72 L4 70 L3 61 L2 52 L1 44 L0 35 L0 29 L0 21 L0 16 L0 13 L0 9 L0 8 L0 7 L2 6 L10 5 L27 3 L40 1 L48 1 L53 0 L58 0 L65 0 L69 0 L72 0 M51 64 L51 63 L50 58 L49 48 L48 41 L48 38 L48 36 L48 34 L47 32 L47 31 L47 30 L47 29 L47 28 L47 27 L48 26 L49 26 L52 25 L67 23 L79 21 L88 21 L89 21 L90 21 L91 20 M84 57 L84 56 L84 54 L84 51 L84 47 L84 45 L84 41 L84 39 L84 38 L85 38 L87 38 L92 35 L105 32 L109 31 L114 30 L115 30 " fill="none" stroke="black" /></svg>