<?xml version="1.0" encoding="utf-8" ?>
<svg baseProfile="tiny" height="54" version="1.2" viewBox="-3 -3 322 54" width="322" xmlns="http://www.w3.org/2000/svg" xmlns:ev="http://www.w3.org/2001/xml-events" xmlns:xlink="http://www.w3.org/1999/xlink"><defs /><path d="M0 31 L0 32 L0 33 L1 33 L2 34 L3 36 L5 38 L7 40 L10 42 L13 44 L15 47 L16 47 L18 49 L20 50 L22 51 L31 52 L36 54 L40 54 L46 54 L51 54 L53 54 L55 54 L56 53 L58 52 L60 51 L61 50 L63 49 L67 45 L77 38 L81 35 L84 33 L86 31 L87 30 L88 28 L89 27 L92 24 L103 18 L112 15 L120 14 L128 14 L133 14 L137 15 L141 18 L142 19 L144 21 L145 23 L146 25 L146 26 L147 28 L148 29 L149 32 L150 33 L152 35 L154 37 L159 38 L166 41 L168 42 L169 42 L171 43 L173 43 L178 45 L184 45 L186 45 L187 45 L188 45 L189 45 L191 43 L196 30 L201 17 L203 10 L205 5 L206 2 L207 1 L208 1 L210 0 L211 0 L212 1 L213 2 L214 3 L214 4 L215 4 L215 5 " fill="none" stroke="black" /><path d="M0 31 L0 32 L0 33 L1 33 L2 34 L3 36 L5 38 L7 40 L10 42 L13 44 L15 47 L16 47 L18 49 L20 50 L22 51 L31 52 L36 54 L40 54 L46 54 L51 54 L53 54 L55 54 L56 53 L58 52 L60 51 L61 50 L63 49 L67 45 L77 38 L81 35 L84 33 L86 31 L87 30 L88 28 L89 27 L92 24 L103 18 L112 15 L120 14 L128 14 L133 14 L137 15 L141 18 L142 19 L144 21 L145 23 L146 25 L146 26 L147 28 L148 29 L149 32 L150 33 L152 35 L154 37 L159 38 L166 41 L168 42 L169 42 L171 43 L173 43 L178 45 L184 45 L186 45 L187 45 L188 45 L189 45 L191 43 L196 30 L201 17 L203 10 L205 5 L206 2 L207 1 L208 1 L210 0 L211 0 L212 1 L213 2 L214 3 L214 4 L215 4 L215 5 M208 1 L209 1 L210 1 L211 1 L212 2 L214 2 L215 2 L217 2 L219 2 L220 2 L222 2 L223 2 L225 3 L226 3 L228 4 L230 6 L231 8 L232 9 L238 12 L240 14 L241 15 L242 16 L243 17 L245 19 L246 21 L249 22 L251 24 L261 25 L266 26 L268 27 L273 27 L275 27 L278 27 L279 27 L281 27 L287 26 L294 24 L295 23 L297 22 L298 21 L298 19 L299 18 L301 17 L303 16 L304 16 L306 15 L308 14 L309 14 L311 14 L313 14 L314 14 L315 14 L315 15 L317 15 L318 16 L318 17 L319 18 L320 20 L321 22 L321 24 L321 25 L321 27 L321 28 L322 29 L322 30 L322 31 L322 32 " fill="none" stroke="black" /></svg>