<?xml version="1.0" encoding="utf-8" ?>
<svg baseProfile="tiny" height="101" version="1.2" viewBox="-3 -3 235 101" width="235" xmlns="http://www.w3.org/2000/svg" xmlns:ev="http://www.w3.org/2001/xml-events" xmlns:xlink="http://www.w3.org/1999/xlink"><defs /><path d="M0 99 L1 98 L1 97 L2 97 L2 95 L3 95 L5 92 L14 85 L31 71 L39 64 L45 59 L58 52 L71 41 L99 22 L108 17 L109 15 L110 15 L110 14 L111 14 L111 13 L113 12 L122 5 L126 2 L127 1 L127 0 " fill="none" stroke="black" /><path d="M0 99 L1 98 L1 97 L2 97 L2 95 L3 95 L5 92 L14 85 L31 71 L39 64 L45 59 L58 52 L71 41 L99 22 L108 17 L109 15 L110 15 L110 14 L111 14 L111 13 L113 12 L122 5 L126 2 L127 1 L127 0 M65 83 L78 75 L87 71 L97 68 L105 66 L113 63 L117 61 L119 59 L120 59 L120 58 L123 56 L124 54 L126 53 L128 51 L133 47 L137 43 L139 41 L142 36 L147 27 L148 26 L148 25 L149 24 L151 24 L152 23 L154 22 L155 22 L156 21 " fill="none" stroke="black" /><path d="M0 99 L1 98 L1 97 L2 97 L2 95 L3 95 L5 92 L14 85 L31 71 L39 64 L45 59 L58 52 L71 41 L99 22 L108 17 L109 15 L110 15 L110 14 L111 14 L111 13 L113 12 L122 5 L126 2 L127 1 L127 0 M65 83 L78 75 L87 71 L97 68 L105 66 L113 63 L117 61 L119 59 L120 59 L120 58 L123 56 L124 54 L126 53 L128 51 L133 47 L137 43 L139 41 L142 36 L147 27 L148 26 L148 25 L149 24 L151 24 L152 23 L154 22 L155 22 L156 21 M125 88 L125 87 L127 86 L130 82 L140 71 L152 58 L157 54 L163 49 L165 49 L175 42 L177 41 L180 38 L181 38 L182 37 L183 37 " fill="none" stroke="black" /><path d="M0 99 L1 98 L1 97 L2 97 L2 95 L3 95 L5 92 L14 85 L31 71 L39 64 L45 59 L58 52 L71 41 L99 22 L108 17 L109 15 L110 15 L110 14 L111 14 L111 13 L113 12 L122 5 L126 2 L127 1 L127 0 M65 83 L78 75 L87 71 L97 68 L105 66 L113 63 L117 61 L119 59 L120 59 L120 58 L123 56 L124 54 L126 53 L128 51 L133 47 L137 43 L139 41 L142 36 L147 27 L148 26 L148 25 L149 24 L151 24 L152 23 L154 22 L155 22 L156 21 M125 88 L125 87 L127 86 L130 82 L140 71 L152 58 L157 54 L163 49 L165 49 L175 42 L177 41 L180 38 L181 38 L182 37 L183 37 M164 101 L167 98 L171 90 L176 83 L177 82 L182 76 L191 64 L194 60 L195 58 L196 58 L198 56 L213 46 L213 45 L215 44 " fill="none" stroke="black" /><path d="M0 99 L1 98 L1 97 L2 97 L2 95 L3 95 L5 92 L14 85 L31 71 L39 64 L45 59 L58 52 L71 41 L99 22 L108 17 L109 15 L110 15 L110 14 L111 14 L111 13 L113 12 L122 5 L126 2 L127 1 L127 0 M65 83 L78 75 L87 71 L97 68 L105 66 L113 63 L117 61 L119 59 L120 59 L120 58 L123 56 L124 54 L126 53 L128 51 L133 47 L137 43 L139 41 L142 36 L147 27 L148 26 L148 25 L149 24 L151 24 L152 23 L154 22 L155 22 L156 21 M125 88 L125 87 L127 86 L130 82 L140 71 L152 58 L157 54 L163 49 L165 49 L175 42 L177 41 L180 38 L181 38 L182 37 L183 37 M164 101 L167 98 L171 90 L176 83 L177 82 L182 76 L191 64 L194 60 L195 58 L196 58 L198 56 L213 46 L213 45 L215 44 M197 91 L199 89 L208 77 L212 72 L214 69 L221 61 L222 60 L223 60 L223 59 L224 58 L231 49 L234 45 L234 44 L235 44 " fill="none" stroke="black" /></svg>