<?xml version="1.0" encoding="utf-8" ?>
<svg baseProfile="tiny" height="115" version="1.2" viewBox="-3 -3 142 115" width="142" xmlns="http://www.w3.org/2000/svg" xmlns:ev="http://www.w3.org/2001/xml-events" xmlns:xlink="http://www.w3.org/1999/xlink"><defs /><path d="M1 67 L1 68 L1 67 L2 66 L2 65 L3 64 L3 63 L5 61 L6 59 L7 57 L9 53 L10 47 L12 43 L15 38 L17 36 L18 35 L19 33 L20 33 L22 31 L24 29 L26 27 L31 24 L35 22 L37 21 L41 20 L43 19 L46 18 L48 17 L50 17 L52 16 L53 15 L56 14 L63 12 L72 11 L76 10 L80 9 L86 8 L92 7 L101 5 L105 4 L109 2 L114 1 L118 0 L121 0 L122 0 L123 0 L124 0 L126 0 L127 0 L128 0 L130 0 L131 0 L133 0 L134 0 L135 0 L136 0 L138 0 L139 0 L140 0 L141 0 L142 0 " fill="none" stroke="black" /><path d="M1 67 L1 68 L1 67 L2 66 L2 65 L3 64 L3 63 L5 61 L6 59 L7 57 L9 53 L10 47 L12 43 L15 38 L17 36 L18 35 L19 33 L20 33 L22 31 L24 29 L26 27 L31 24 L35 22 L37 21 L41 20 L43 19 L46 18 L48 17 L50 17 L52 16 L53 15 L56 14 L63 12 L72 11 L76 10 L80 9 L86 8 L92 7 L101 5 L105 4 L109 2 L114 1 L118 0 L121 0 L122 0 L123 0 L124 0 L126 0 L127 0 L128 0 L130 0 L131 0 L133 0 L134 0 L135 0 L136 0 L138 0 L139 0 L140 0 L141 0 L142 0 M3 67 L1 71 L1 73 L1 75 L1 77 L0 78 L0 79 L0 80 L0 81 L0 82 L0 83 L0 84 L0 85 L0 87 L0 88 L0 90 L0 92 L1 94 L2 95 L2 98 L3 99 L3 100 L4 102 L4 103 L5 104 L6 106 L6 107 L6 108 L7 109 L7 110 L7 111 L7 112 L7 113 L7 115 " fill="none" stroke="black" /></svg>