<?xml version="1.0" encoding="utf-8" ?>
<svg baseProfile="tiny" height="143" version="1.2" viewBox="-3 -3 314 143" width="314" xmlns="http://www.w3.org/2000/svg" xmlns:ev="http://www.w3.org/2001/xml-events" xmlns:xlink="http://www.w3.org/1999/xlink"><defs /><path d="M0 90 L4 97 L13 116 L28 135 L34 141 L36 142 L37 142 L37 143 L38 143 L39 142 L41 137 L46 111 L50 86 L54 67 L57 52 L57 51 L58 51 L63 60 L82 92 L94 110 L102 129 L104 133 L106 136 L107 138 L108 138 L109 138 L109 137 L109 127 L114 90 L116 69 L117 55 L118 50 L118 48 L126 63 L143 93 L148 104 L150 108 L151 109 L152 109 L153 109 L153 105 L156 87 L159 69 L161 59 L163 53 L164 51 L168 48 L174 47 L182 51 L194 59 L205 74 L217 96 L220 104 L221 105 L222 105 L222 99 L224 59 L225 38 L227 28 L228 23 L229 23 L234 28 L249 47 L255 56 L259 61 L260 62 L261 63 L262 63 L263 63 L264 63 L264 61 L266 59 L268 53 L270 44 L270 42 L271 40 L271 39 L272 38 L272 39 L273 41 L277 50 L282 60 L284 64 L285 66 L286 66 L286 65 L286 58 L288 39 L289 29 L292 17 L294 11 L295 10 L297 16 L303 31 L305 37 L306 40 L307 40 L307 38 L307 35 L310 16 L311 7 L314 0 " fill="none" stroke="black" /></svg>