<?xml version="1.0" encoding="utf-8" ?>
<svg baseProfile="tiny" height="63" version="1.2" viewBox="-3 -3 186 63" width="186" xmlns="http://www.w3.org/2000/svg" xmlns:ev="http://www.w3.org/2001/xml-events" xmlns:xlink="http://www.w3.org/1999/xlink"><defs /><path d="M186 0 L185 0 L184 0 L183 0 L182 0 L181 1 L177 1 L166 2 L162 2 L155 3 L147 4 L139 5 L129 6 L125 7 L121 8 L113 9 L107 10 L100 11 L96 12 L92 12 L87 12 L83 12 L81 13 L80 13 L79 13 L78 13 L80 13 L84 13 L116 13 L135 13 L146 13 L150 13 L154 13 L160 13 L165 13 L168 13 L169 13 L169 14 L166 14 L158 14 L150 14 L141 14 L134 15 L125 16 L118 17 L114 19 L106 19 L99 20 L93 20 L83 21 L77 21 L75 21 L76 21 L79 21 L106 20 L134 19 L156 19 L160 19 L162 19 L163 19 L164 19 L164 20 L166 21 L166 22 L165 22 L163 23 L157 23 L140 24 L128 25 L115 27 L107 29 L99 31 L92 34 L89 34 L89 35 L88 35 " fill="none" stroke="black" /><circle cx="88" cy="35" fill="black" r="1" /><circle cx="88" cy="35" fill="black" r="1" /><path d="M186 0 L185 0 L184 0 L183 0 L182 0 L181 1 L177 1 L166 2 L162 2 L155 3 L147 4 L139 5 L129 6 L125 7 L121 8 L113 9 L107 10 L100 11 L96 12 L92 12 L87 12 L83 12 L81 13 L80 13 L79 13 L78 13 L80 13 L84 13 L116 13 L135 13 L146 13 L150 13 L154 13 L160 13 L165 13 L168 13 L169 13 L169 14 L166 14 L158 14 L150 14 L141 14 L134 15 L125 16 L118 17 L114 19 L106 19 L99 20 L93 20 L83 21 L77 21 L75 21 L76 21 L79 21 L106 20 L134 19 L156 19 L160 19 L162 19 L163 19 L164 19 L164 20 L166 21 L166 22 L165 22 L163 23 L157 23 L140 24 L128 25 L115 27 L107 29 L99 31 L92 34 L89 34 L89 35 L88 35 M88 35 L89 35 L91 35 L92 35 L93 35 L95 35 L97 35 L99 35 L108 34 L115 34 L116 34 L115 34 L117 34 L119 34 L121 34 L132 34 L136 33 L137 33 L139 33 L140 33 L141 33 L142 33 L144 33 L146 32 L147 32 L148 31 L149 31 L150 31 L149 31 L146 31 L124 31 L101 31 L74 31 L58 33 L46 34 L38 36 L35 38 L33 38 L33 39 L34 39 L55 39 L87 39 L115 40 L134 40 L147 41 L153 42 L156 43 L157 43 L158 43 L158 44 L155 44 L147 44 L112 46 L94 48 L70 54 L51 56 L37 58 L16 58 L3 59 L1 59 L0 59 " fill="none" stroke="black" /><path d="M186 0 L185 0 L184 0 L183 0 L182 0 L181 1 L177 1 L166 2 L162 2 L155 3 L147 4 L139 5 L129 6 L125 7 L121 8 L113 9 L107 10 L100 11 L96 12 L92 12 L87 12 L83 12 L81 13 L80 13 L79 13 L78 13 L80 13 L84 13 L116 13 L135 13 L146 13 L150 13 L154 13 L160 13 L165 13 L168 13 L169 13 L169 14 L166 14 L158 14 L150 14 L141 14 L134 15 L125 16 L118 17 L114 19 L106 19 L99 20 L93 20 L83 21 L77 21 L75 21 L76 21 L79 21 L106 20 L134 19 L156 19 L160 19 L162 19 L163 19 L164 19 L164 20 L166 21 L166 22 L165 22 L163 23 L157 23 L140 24 L128 25 L115 27 L107 29 L99 31 L92 34 L89 34 L89 35 L88 35 M88 35 L89 35 L91 35 L92 35 L93 35 L95 35 L97 35 L99 35 L108 34 L115 34 L116 34 L115 34 L117 34 L119 34 L121 34 L132 34 L136 33 L137 33 L139 33 L140 33 L141 33 L142 33 L144 33 L146 32 L147 32 L148 31 L149 31 L150 31 L149 31 L146 31 L124 31 L101 31 L74 31 L58 33 L46 34 L38 36 L35 38 L33 38 L33 39 L34 39 L55 39 L87 39 L115 40 L134 40 L147 41 L153 42 L156 43 L157 43 L158 43 L158 44 L155 44 L147 44 L112 46 L94 48 L70 54 L51 56 L37 58 L16 58 L3 59 L1 59 L0 59 M0 59 L5 59 L9 59 L10 59 L11 60 L12 61 L14 62 L15 63 L16 63 L17 63 " fill="none" stroke="black" /></svg>