<?xml version="1.0" encoding="utf-8" ?>
<svg baseProfile="tiny" height="75" version="1.2" viewBox="-3 -3 211 75" width="211" xmlns="http://www.w3.org/2000/svg" xmlns:ev="http://www.w3.org/2001/xml-events" xmlns:xlink="http://www.w3.org/1999/xlink"><defs /><path d="M0 75 L5 65 L6 64 L8 65 L17 72 L21 74 L25 74 L27 67 L30 60 L32 56 L33 56 L35 56 L36 56 L37 56 L45 49 L49 46 L53 47 L56 49 L57 50 L58 50 L59 47 L60 45 L61 45 L63 45 L68 41 L89 29 L93 28 L95 28 L97 31 L99 32 L100 32 L101 32 L103 33 L116 40 L121 41 L123 41 L124 40 L125 40 L127 40 L129 41 L131 41 L134 37 L138 31 L139 30 L140 30 L141 30 L142 32 L143 33 L143 34 L144 34 L145 33 L146 32 L147 32 L147 33 L149 36 L150 36 L151 36 L154 31 L158 27 L160 27 L161 28 L162 28 L163 28 L164 28 L166 28 L167 28 L169 30 L170 30 L174 25 L192 2 L195 0 L196 1 L197 2 L197 3 L198 3 L199 3 L199 5 L200 8 L201 11 L201 14 L202 15 L203 17 L203 18 L203 17 L203 15 L204 14 L205 12 L205 11 L206 10 L206 11 L206 12 L206 13 L207 13 L207 12 L208 10 L209 9 L210 9 L211 9 " fill="none" stroke="black" /></svg>