<?xml version="1.0" encoding="utf-8" ?>
<svg baseProfile="tiny" height="87" version="1.2" viewBox="-3 -3 217 87" width="217" xmlns="http://www.w3.org/2000/svg" xmlns:ev="http://www.w3.org/2001/xml-events" xmlns:xlink="http://www.w3.org/1999/xlink"><defs /><path d="M0 87 L1 63 L4 42 L5 40 L12 46 L20 50 L22 51 L27 40 L28 38 L30 38 L32 40 L34 41 L35 41 L35 40 L37 40 L38 40 L39 40 L47 26 L53 15 L56 15 L60 15 L63 15 L64 15 L65 15 L67 15 L86 31 L108 49 L111 50 L112 47 L115 40 L115 39 L116 39 L117 39 L117 34 L113 10 L112 4 L114 6 L115 7 L116 7 L117 8 L135 28 L144 37 L146 37 L148 29 L150 24 L151 24 L153 24 L154 24 L155 22 L158 6 L159 2 L161 4 L165 11 L166 13 L167 13 L168 12 L169 7 L175 12 L185 22 L188 24 L190 19 L192 12 L193 12 L194 12 L197 15 L200 18 L201 18 L203 10 L204 6 L205 6 L207 6 L208 7 L209 7 L209 5 L209 4 L210 4 L211 4 L212 5 L213 5 L214 4 L215 2 L215 0 L216 0 L217 0 " fill="none" stroke="black" /></svg>