<?xml version="1.0" encoding="utf-8" ?>
<svg baseProfile="tiny" height="199" version="1.2" viewBox="-3 -3 517 199" width="517" xmlns="http://www.w3.org/2000/svg" xmlns:ev="http://www.w3.org/2001/xml-events" xmlns:xlink="http://www.w3.org/1999/xlink"><defs /><path d="M281 199 L259 199 L241 199 L223 198 L207 197 L186 195 L171 194 L155 191 L139 188 L124 184 L113 181 L105 178 L100 177 L95 175 L92 174 L88 172 L83 169 L74 166 L65 163 L57 160 L51 155 L44 151 L37 147 L31 144 L26 140 L22 137 L20 134 L17 131 L13 128 L11 125 L9 122 L7 119 L6 116 L4 114 L3 112 L2 109 L1 105 L0 101 L0 97 L0 95 L0 94 L0 91 L0 89 L1 86 L2 82 L5 77 L7 72 L9 68 L10 66 L12 65 L13 63 L16 61 L23 57 L34 49 L46 41 L59 31 L68 25 L75 21 L83 18 L90 16 L97 15 L104 13 L112 11 L124 10 L141 7 L162 6 L182 3 L202 2 L219 1 L234 0 L247 0 L257 0 L265 0 L272 1 L281 3 L293 5 L309 5 L317 6 L325 7 L335 8 L347 9 L359 11 L372 13 L384 14 L400 17 L414 18 L426 20 L436 22 L444 23 L451 25 L457 26 L463 28 L471 30 L480 32 L488 34 L494 36 L497 38 L500 39 L503 41 L506 44 L511 47 L514 50 L516 53 L517 56 L517 60 L517 64 L517 71 L517 81 L517 90 L514 98 L511 105 L509 110 L506 113 L503 116 L499 119 L492 123 L485 126 L476 130 L469 133 L462 136 L450 139 L435 143 L419 147 L407 149 L395 152 L385 152 L376 152 L369 153 L361 153 L349 153 L337 153 L327 153 L320 152 L314 152 L307 151 L295 150 L282 149 L271 147 L260 145 L251 144 L238 142 L221 139 L207 135 L190 131 L177 127 L162 122 L152 116 L144 111 L139 108 L133 105 " fill="none" stroke="black" /></svg>