<?xml version="1.0" encoding="utf-8" ?>
<svg baseProfile="tiny" height="562" version="1.2" viewBox="-3 -3 871 562" width="871" xmlns="http://www.w3.org/2000/svg" xmlns:ev="http://www.w3.org/2001/xml-events" xmlns:xlink="http://www.w3.org/1999/xlink"><defs /><path d="M0 562 L0 561 L0 559 L0 555 L15 519 L61 434 L144 319 L234 242 L281 229 L313 229 L336 240 L358 254 L377 271 L391 289 L400 311 L405 332 L405 348 L405 359 L403 364 L401 370 L398 375 L390 384 L371 397 L354 410 L338 421 L326 429 L315 437 L309 440 L306 442 L304 444 L302 444 L301 444 L300 444 L298 444 L293 444 L285 444 L273 444 L259 444 L245 443 L233 438 L218 428 L189 381 L161 208 L161 85 L168 37 L171 32 L172 33 L172 34 L173 35 L175 36 L178 36 L182 36 L184 36 L185 36 L186 36 L187 36 L188 36 L192 36 L196 35 L200 34 L205 33 L211 31 L219 30 L227 28 L238 26 L271 18 L347 7 L481 0 L605 0 L676 7 L701 11 L705 12 L705 13 L705 21 L705 52 L693 130 L680 194 L670 237 L665 258 L663 264 L662 266 L661 267 L660 267 L659 267 L659 268 L658 268 L660 269 L681 279 L756 312 L822 337 L859 350 L870 354 L871 355 L871 356 " fill="none" stroke="black" /></svg>