<?xml version="1.0" encoding="utf-8" ?>
<svg baseProfile="tiny" height="548" version="1.2" viewBox="-3 -3 612 548" width="612" xmlns="http://www.w3.org/2000/svg" xmlns:ev="http://www.w3.org/2001/xml-events" xmlns:xlink="http://www.w3.org/1999/xlink"><defs /><path d="M399 17 L391 10 L386 5 L385 4 L385 5 L385 8 L386 12 L388 17 L390 22 L395 30 L401 43 L410 64 L419 84 L428 106 L439 129 L452 155 L465 182 L479 214 L489 239 L500 264 L511 288 L522 310 L533 331 L541 352 L549 370 L556 391 L563 408 L573 429 L579 442 L585 455 L589 467 L594 479 L597 489 L600 500 L603 512 L606 523 L609 533 L611 542 L612 547 L612 548 L610 543 L606 536 L597 520 L578 494 L551 454 L523 412 L493 371 L467 335 L443 301 L419 266 L397 234 L376 204 L357 174 L338 148 L315 118 L295 91 L282 70 L266 50 L250 31 L236 16 L227 7 L222 1 L221 0 L221 3 L222 6 L224 10 L226 14 L230 23 L237 33 L245 44 L254 56 L261 68 L269 87 L278 107 L287 127 L298 149 L310 173 L323 199 L335 228 L348 256 L360 285 L373 313 L387 340 L399 362 L411 386 L419 403 L425 415 L431 426 L438 435 L443 443 L447 452 L450 459 L452 464 L454 468 L454 470 L454 471 L454 470 L451 466 L444 457 L432 444 L415 425 L392 400 L364 374 L340 354 L318 335 L291 310 L258 279 L220 243 L171 197 L141 170 L112 147 L86 125 L62 104 L36 81 L14 61 L3 51 L0 49 L0 50 L2 53 L4 56 L8 61 L19 74 L34 89 L51 112 L72 138 L96 165 L118 191 L141 219 L166 244 L190 269 L215 299 L235 321 L256 345 L276 368 L292 387 L309 405 L323 420 L336 434 L346 445 L357 460 L370 477 L384 494 L400 511 L411 520 L420 524 L428 527 L435 529 L440 529 L442 529 " fill="none" stroke="black" /></svg>