<?xml version="1.0" encoding="utf-8" ?>
<svg baseProfile="tiny" height="109" version="1.2" viewBox="-3 -3 1195 109" width="1195" xmlns="http://www.w3.org/2000/svg" xmlns:ev="http://www.w3.org/2001/xml-events" xmlns:xlink="http://www.w3.org/1999/xlink"><defs /><path d="M1195 109 L1194 109 L1191 109 L1183 109 L1173 108 L1162 106 L1154 105 L1143 103 L1131 101 L1120 100 L1107 98 L1079 93 L1055 89 L1038 86 L1020 85 L1004 83 L989 82 L977 81 L965 79 L951 75 L935 70 L917 64 L899 57 L881 51 L875 50 L875 52 L875 58 L875 64 L875 67 L874 67 L864 67 L849 63 L838 61 L837 61 L837 66 L837 68 L832 68 L825 67 L825 70 L826 78 L828 80 L819 74 L782 58 L759 54 L757 58 L758 67 L758 68 L750 67 L734 61 L730 61 L732 72 L738 83 L740 87 L732 86 L708 77 L697 76 L696 81 L701 92 L675 77 L651 68 L648 68 L650 80 L657 90 L658 92 L622 77 L557 49 L524 39 L522 44 L530 59 L533 66 L530 66 L489 49 L469 42 L466 43 L480 65 L495 86 L498 91 L478 82 L411 46 L370 29 L367 29 L375 40 L378 45 L376 45 L348 30 L336 26 L336 32 L349 50 L358 62 L358 64 L339 58 L305 43 L292 40 L291 44 L299 53 L302 56 L302 57 L294 53 L287 50 L293 62 L312 88 L320 104 L319 106 L242 71 L212 53 L204 51 L210 60 L220 72 L222 76 L213 71 L182 54 L166 47 L165 47 L175 60 L188 73 L192 77 L190 77 L144 49 L92 15 L71 3 L70 4 L89 22 L100 33 L101 34 L91 29 L79 20 L76 19 L86 28 L106 46 L115 55 L114 56 L38 20 L0 0 " fill="none" stroke="black" /></svg>