<?xml version="1.0" encoding="utf-8" ?>
<svg baseProfile="tiny" height="660" version="1.2" viewBox="-3 -3 479 660" width="479" xmlns="http://www.w3.org/2000/svg" xmlns:ev="http://www.w3.org/2001/xml-events" xmlns:xlink="http://www.w3.org/1999/xlink"><defs /><path d="M261 264 L323 292 L353 317 L372 351 L387 407 L395 467 L398 518 L398 556 L398 585 L393 605 L387 616 L380 623 L360 633 L320 645 L267 656 L219 660 L165 660 L112 650 L70 627 L40 596 L19 558 L4 506 L0 447 L0 398 L1 366 L22 323 L54 275 L85 241 L111 218 L139 202 L173 188 L203 178 L237 172 L271 172 L301 178 L332 198 L357 227 L380 264 L400 303 L414 340 L423 373 L428 401 L432 432 L434 462 L434 484 L433 500 L429 506 L425 508 L409 509 L379 511 L328 511 L276 505 L232 484 L201 456 L181 425 L166 392 L155 356 L148 317 L147 279 L147 240 L157 213 L172 191 L188 178 L209 169 L232 162 L260 158 L289 157 L314 157 L339 166 L356 175 L372 190 L388 214 L405 248 L415 285 L420 325 L421 361 L421 378 L418 385 L414 387 L410 387 L401 387 L381 381 L354 372 L328 360 L296 338 L268 311 L251 285 L242 256 L235 220 L232 188 L232 161 L238 134 L248 115 L260 99 L270 93 L280 91 L300 91 L324 95 L354 102 L384 110 L406 121 L421 132 L435 150 L443 176 L449 213 L451 246 L451 273 L448 291 L441 303 L427 310 L411 313 L388 312 L365 301 L332 278 L299 249 L266 209 L243 173 L232 144 L227 114 L227 90 L232 65 L244 49 L270 27 L298 11 L322 2 L346 0 L369 4 L391 18 L410 36 L428 56 L444 80 L461 111 L474 146 L479 172 L479 196 L479 205 L477 208 L470 208 L450 208 L408 208 L372 201 L347 186 L323 161 L304 137 L283 109 L269 87 L258 58 L248 30 L239 10 L234 2 " fill="none" stroke="black" /></svg>