<?xml version="1.0" encoding="utf-8" ?>
<svg baseProfile="tiny" height="331" version="1.2" viewBox="-3 -3 959 331" width="959" xmlns="http://www.w3.org/2000/svg" xmlns:ev="http://www.w3.org/2001/xml-events" xmlns:xlink="http://www.w3.org/1999/xlink"><defs /><path d="M959 213 L942 206 L893 178 L819 136 L767 105 L739 92 L737 92 L745 98 L765 110 L787 126 L823 154 L855 183 L874 206 L883 220 L884 223 L882 223 L851 210 L784 182 L708 154 L640 130 L612 124 L606 124 L606 130 L640 155 L723 215 L805 276 L860 314 L883 329 L886 331 L885 331 L860 320 L732 256 L504 138 L309 39 L234 6 L211 0 L210 3 L233 24 L309 84 L417 166 L514 239 L562 278 L576 294 L578 299 L574 299 L537 293 L425 256 L231 172 L99 112 L60 98 L55 98 L62 104 L108 137 L171 181 L226 218 L242 231 L246 236 L232 235 L172 217 L99 191 L62 176 L55 174 L56 174 L89 195 L124 221 L141 234 L143 236 L134 235 L103 224 L72 212 L61 208 L66 213 L79 225 L85 233 L86 235 L81 234 L56 221 L40 215 L37 214 L40 218 L56 232 L65 245 L67 248 L38 236 L13 223 L6 220 L7 222 L28 239 L42 252 L44 255 L42 256 L0 229 " fill="none" stroke="black" /></svg>