<?xml version="1.0" encoding="utf-8" ?>
<svg baseProfile="tiny" height="907" version="1.2" viewBox="-3 -3 1655 907" width="1655" xmlns="http://www.w3.org/2000/svg" xmlns:ev="http://www.w3.org/2001/xml-events" xmlns:xlink="http://www.w3.org/1999/xlink"><defs /><path d="M867 401 L888 438 L896 468 L896 496 L895 523 L884 553 L864 584 L837 616 L806 644 L765 662 L692 672 L632 668 L552 631 L494 580 L456 524 L450 493 L458 468 L548 444 L691 443 L842 458 L975 497 L1096 552 L1171 600 L1213 638 L1225 663 L1225 682 L1215 703 L1194 733 L1147 785 L1094 829 L1006 880 L916 903 L806 907 L653 864 L477 762 L314 625 L201 497 L171 432 L178 393 L247 366 L395 351 L496 351 L639 376 L711 409 L760 449 L786 486 L796 518 L798 546 L792 568 L779 596 L756 634 L724 675 L690 708 L647 732 L579 745 L498 742 L394 695 L275 602 L185 485 L163 409 L167 356 L229 312 L350 299 L520 312 L702 378 L777 423 L820 464 L836 494 L840 521 L836 545 L817 577 L781 626 L724 692 L672 741 L599 774 L503 781 L401 733 L239 584 L98 386 L18 205 L0 57 L95 0 L310 0 L551 47 L748 123 L909 217 L986 285 L1007 326 L1010 355 L1007 383 L989 421 L947 480 L889 557 L833 600 L748 625 L649 631 L534 628 L341 520 L166 309 L86 143 L71 6 L123 0 L286 0 L518 0 L780 44 L981 123 L1154 219 L1222 279 L1254 329 L1257 362 L1247 395 L1221 438 L1178 495 L1127 528 L1063 543 L992 548 L920 548 L796 485 L648 280 L528 39 L507 0 L541 0 L719 0 L1011 48 L1299 152 L1490 244 L1603 310 L1652 346 L1655 365 L1655 374 L1653 383 L1643 393 L1622 414 L1578 465 L1525 505 L1435 529 L1328 532 L1200 497 L1092 386 L1025 255 L1008 148 L1025 80 L1099 22 L1222 6 L1383 17 L1546 74 L1655 139 L1655 187 L1655 215 L1655 226 " fill="none" stroke="black" /></svg>