<?xml version="1.0" encoding="utf-8" ?>
<svg baseProfile="tiny" height="310" version="1.2" viewBox="-3 -3 704 310" width="704" xmlns="http://www.w3.org/2000/svg" xmlns:ev="http://www.w3.org/2001/xml-events" xmlns:xlink="http://www.w3.org/1999/xlink"><defs /><path d="M18 175 L12 180 L7 185 L4 189 L2 193 L1 198 L1 203 L1 207 L0 213 L0 219 L0 226 L1 233 L4 240 L9 245 L15 250 L23 255 L32 260 L43 263 L56 267 L67 271 L81 272 L95 274 L108 274 L122 274 L135 272 L146 269 L156 266 L170 260 L195 248 L223 233 L250 217 L272 204 L292 191 L301 182 L310 171 L318 161 L327 150 L336 139 L345 129 L353 119 L361 111 L367 104 L373 100 L380 94 L385 88 L393 81 L400 75 L409 66 L427 52 L447 38 L468 24 L481 18 L496 12 L508 8 L517 5 L525 3 L536 2 L547 0 L557 0 L565 0 L571 1 L575 3 L578 5 L582 8 L588 12 L594 16 L601 21 L608 28 L616 34 L624 42 L633 51 L641 60 L648 70 L656 80 L661 87 L667 96 L674 104 L682 114 L689 124 L694 134 L698 142 L701 152 L704 163 L704 176 L704 189 L703 201 L697 221 L689 236 L685 244 L680 253 L668 269 L658 281 L648 291 L639 297 L631 302 L623 305 L618 307 L614 308 L611 308 L608 308 L603 309 L597 309 L588 310 L579 310 L570 310 L562 310 L554 310 L545 309 L537 307 L530 304 L524 301 L514 297 L507 295 L497 291 L489 286 L484 282 L480 278 L478 275 L476 272 L474 269 L472 265 L470 260 L467 255 L464 249 L460 244 L456 238 L453 233 L450 228 L448 225 L446 222 L443 219 L440 216 L436 213 L433 210 L430 208 L426 206 L424 205 L420 204 L418 204 L416 204 L414 204 L413 205 L411 205 L408 207 L401 209 L393 212 L384 214 L377 216 L371 217 " fill="none" stroke="black" /></svg>