<?xml version="1.0" encoding="utf-8" ?>
<svg baseProfile="tiny" height="521" version="1.2" viewBox="-3 -3 815 521" width="815" xmlns="http://www.w3.org/2000/svg" xmlns:ev="http://www.w3.org/2001/xml-events" xmlns:xlink="http://www.w3.org/1999/xlink"><defs /><path d="M43 293 L46 324 L46 358 L46 378 L46 382 L48 383 L53 381 L62 376 L72 375 L83 379 L93 400 L99 418 L102 435 L102 446 L102 460 L102 474 L102 493 L102 506 L102 514 L103 517 L113 521 L138 521 L163 521 L181 521 L186 521 L187 518 L186 515 L180 508 L164 495 L143 480 L127 469 L118 460 L112 451 L108 434 L108 413 L129 378 L159 341 L176 325 L179 323 L177 321 L169 315 L147 303 L97 283 L58 266 L16 249 L3 239 L0 227 L0 205 L25 150 L58 106 L83 79 L107 66 L136 60 L169 59 L196 67 L211 85 L215 102 L215 110 L215 112 L217 116 L232 132 L253 159 L266 188 L269 222 L262 248 L239 299 L225 328 L219 343 L217 348 L217 349 L222 346 L249 343 L293 350 L322 377 L330 397 L332 416 L334 432 L348 446 L376 459 L413 462 L438 460 L447 453 L449 441 L449 408 L446 372 L440 341 L429 319 L407 304 L392 298 L379 292 L369 285 L355 267 L344 239 L334 209 L325 184 L313 157 L304 140 L301 129 L301 126 L304 125 L328 121 L380 117 L431 114 L455 111 L464 109 L465 108 L464 114 L464 129 L470 164 L476 199 L478 227 L478 237 L478 239 L481 237 L497 237 L526 254 L539 270 L548 288 L551 306 L555 323 L562 334 L583 341 L645 350 L699 350 L724 344 L730 342 L731 341 L731 340 L733 332 L754 305 L791 249 L809 212 L815 176 L807 134 L796 106 L778 79 L767 74 L743 72 L721 72 L699 71 L681 69 L670 65 L653 58 L637 54 L618 53 L588 54 L551 56 L504 55 L432 34 L362 0 " fill="none" stroke="black" /></svg>