<?xml version="1.0" encoding="utf-8" ?>
<svg baseProfile="tiny" height="398" version="1.2" viewBox="-3 -3 650 398" width="650" xmlns="http://www.w3.org/2000/svg" xmlns:ev="http://www.w3.org/2001/xml-events" xmlns:xlink="http://www.w3.org/1999/xlink"><defs /><path d="M401 398 L428 364 L444 340 L456 303 L458 276 L454 252 L442 237 L426 225 L410 217 L390 210 L372 202 L352 193 L334 184 L313 171 L294 156 L280 141 L271 127 L269 118 L269 113 L273 111 L289 109 L314 106 L356 105 L386 105 L432 109 L493 123 L536 135 L562 139 L576 140 L581 139 L582 135 L582 130 L582 126 L578 120 L569 111 L552 98 L530 86 L507 74 L480 67 L458 63 L432 61 L411 61 L399 66 L391 75 L385 84 L378 94 L368 104 L357 113 L344 119 L328 124 L316 125 L303 125 L292 121 L282 113 L269 101 L253 86 L234 70 L216 57 L201 50 L193 50 L189 51 L184 57 L180 66 L176 78 L172 91 L168 109 L163 130 L158 147 L152 160 L145 169 L139 173 L134 175 L130 175 L124 172 L118 164 L109 150 L94 128 L78 101 L65 85 L54 75 L47 72 L44 72 L42 73 L40 78 L38 85 L35 94 L34 108 L33 122 L33 134 L33 148 L33 162 L32 173 L30 182 L27 189 L23 196 L21 198 L17 199 L13 199 L8 193 L3 181 L0 157 L0 126 L10 92 L31 57 L62 28 L97 9 L138 0 L182 0 L230 5 L281 23 L329 49 L366 75 L403 105 L445 139 L475 165 L505 187 L532 203 L558 214 L577 218 L601 218 L622 211 L631 206 L644 194 L649 182 L650 165 L650 149 L639 133 L628 122 L613 114 L598 109 L585 109 L576 109 L568 112 L562 116 L555 123 L548 132 L539 145 L527 167 L517 186 L506 209 L493 230 L477 249 L463 263 L438 281 L410 292 L380 298 L328 302 L252 295 L217 280 L199 266 " fill="none" stroke="black" /></svg>