<?xml version="1.0" encoding="utf-8" ?>
<svg baseProfile="tiny" height="556" version="1.2" viewBox="-3 -3 565 556" width="565" xmlns="http://www.w3.org/2000/svg" xmlns:ev="http://www.w3.org/2001/xml-events" xmlns:xlink="http://www.w3.org/1999/xlink"><defs /><path d="M267 556 L255 553 L243 550 L228 547 L217 545 L209 542 L202 540 L194 537 L187 535 L179 532 L169 530 L159 527 L143 522 L127 516 L112 509 L99 500 L88 493 L77 484 L67 476 L59 467 L52 458 L46 447 L38 435 L29 423 L20 411 L15 400 L11 390 L9 381 L7 373 L5 363 L3 352 L2 343 L1 334 L0 324 L0 314 L0 302 L0 292 L0 282 L0 273 L2 266 L4 260 L6 253 L8 246 L10 238 L13 231 L17 224 L23 215 L28 206 L33 198 L38 191 L42 185 L45 181 L48 176 L52 170 L57 162 L63 155 L67 150 L73 144 L78 138 L86 129 L94 120 L105 110 L117 101 L129 91 L138 83 L147 76 L154 69 L164 63 L173 57 L183 52 L194 45 L208 37 L220 29 L232 22 L242 17 L252 13 L264 10 L276 6 L288 3 L302 1 L318 0 L330 0 L343 0 L355 0 L365 1 L374 3 L382 5 L390 6 L401 8 L414 11 L429 14 L445 17 L463 22 L481 28 L496 35 L503 39 L510 46 L515 52 L522 60 L529 69 L536 76 L541 83 L543 86 L544 87 L546 89 L547 92 L549 97 L551 103 L553 111 L554 120 L557 127 L559 135 L561 143 L562 153 L565 165 L565 181 L565 201 L565 223 L563 249 L559 262 L555 272 L551 282 L547 291 L543 303 L536 317 L530 329 L524 340 L518 349 L512 358 L505 367 L498 375 L494 381 L491 385 L487 390 L478 397 L468 406 L454 421 L443 433 L435 443 L428 451 L422 457 L413 467 L408 474 L405 477 L402 480 L400 483 L397 487 L395 489 L394 490 " fill="none" stroke="black" /></svg>