<?xml version="1.0" encoding="utf-8" ?>
<svg baseProfile="tiny" height="317" version="1.2" viewBox="-3 -3 1536 317" width="1536" xmlns="http://www.w3.org/2000/svg" xmlns:ev="http://www.w3.org/2001/xml-events" xmlns:xlink="http://www.w3.org/1999/xlink"><defs /><path d="M0 240 L1 240 L23 240 L48 240 L81 240 L131 240 L151 240 L179 240 L205 239 L242 236 L284 231 L334 227 L375 224 L413 221 L457 216 L506 211 L548 204 L596 192 L637 179 L675 163 L715 143 L754 123 L792 101 L834 78 L864 60 L880 49 L882 47 L881 44 L844 29 L799 12 L767 3 L744 1 L711 0 L669 1 L620 5 L561 10 L486 16 L382 30 L303 52 L237 79 L208 94 L198 97 L199 96 L207 93 L243 86 L332 71 L435 56 L540 48 L655 45 L777 42 L853 42 L902 42 L977 42 L1048 46 L1126 52 L1210 58 L1330 70 L1435 79 L1496 84 L1517 86 L1523 88 L1524 88 L1524 89 L1522 89 L1513 86 L1479 75 L1396 57 L1282 42 L1131 32 L973 32 L815 34 L664 61 L542 87 L402 115 L317 128 L254 134 L215 134 L192 134 L186 133 L186 132 L197 130 L264 128 L396 119 L505 111 L597 108 L659 104 L738 101 L818 98 L924 97 L1019 97 L1117 97 L1220 97 L1307 95 L1373 95 L1408 97 L1425 100 L1428 100 L1427 100 L1409 100 L1331 90 L1124 70 L875 62 L711 64 L562 98 L448 127 L338 145 L233 151 L170 151 L131 151 L108 151 L101 151 L100 151 L101 151 L114 152 L169 164 L271 181 L404 192 L545 192 L774 189 L1060 181 L1221 181 L1413 187 L1483 199 L1519 206 L1534 208 L1536 209 L1534 209 L1528 209 L1504 209 L1374 207 L1182 196 L956 196 L755 221 L593 262 L471 298 L401 313 L330 317 L270 304 L223 282 L205 273 " fill="none" stroke="black" /></svg>