<?xml version="1.0" encoding="utf-8" ?>
<svg baseProfile="tiny" height="329" version="1.2" viewBox="-3 -3 493 329" width="493" xmlns="http://www.w3.org/2000/svg" xmlns:ev="http://www.w3.org/2001/xml-events" xmlns:xlink="http://www.w3.org/1999/xlink"><defs /><path d="M65 202 L59 202 L52 201 L42 198 L33 194 L24 189 L17 186 L12 182 L9 179 L6 174 L3 168 L1 161 L0 151 L0 142 L0 132 L4 122 L10 113 L17 103 L26 93 L35 83 L43 76 L52 70 L62 65 L73 60 L85 56 L95 52 L104 48 L116 45 L128 42 L139 40 L151 39 L169 38 L184 38 L201 38 L216 38 L230 41 L242 45 L252 49 L263 53 L275 60 L290 68 L307 80 L320 90 L331 99 L337 106 L342 112 L344 118 L347 124 L349 131 L351 141 L354 151 L355 161 L357 174 L359 189 L359 204 L361 219 L361 234 L363 249 L365 261 L369 272 L375 283 L382 294 L392 305 L401 313 L410 320 L418 324 L428 328 L435 329 L440 329 L445 328 L451 325 L459 322 L467 318 L474 312 L480 307 L485 301 L488 296 L490 290 L492 285 L493 280 L493 275 L493 269 L493 264 L493 259 L493 254 L492 249 L490 243 L486 234 L483 227 L477 216 L471 208 L465 200 L460 191 L454 180 L447 169 L441 158 L435 149 L428 139 L423 131 L419 124 L416 118 L413 114 L410 109 L407 104 L405 99 L402 93 L397 86 L392 81 L387 77 L384 75 L382 74 L378 73 L375 73 L371 72 L368 71 L363 70 L359 68 L355 65 L350 61 L345 56 L340 52 L336 49 L331 45 L327 41 L323 39 L319 36 L313 33 L307 29 L301 26 L295 24 L290 24 L286 24 L282 24 L279 24 L274 24 L269 23 L266 22 L262 20 L259 18 L254 14 L249 11 L243 7 L236 3 L229 0 L225 0 L221 0 L217 0 L212 0 L203 3 L188 7 " fill="none" stroke="black" /></svg>