<?xml version="1.0" encoding="utf-8" ?>
<svg baseProfile="tiny" height="293" version="1.2" viewBox="-3 -3 564 293" width="564" xmlns="http://www.w3.org/2000/svg" xmlns:ev="http://www.w3.org/2001/xml-events" xmlns:xlink="http://www.w3.org/1999/xlink"><defs /><path d="M564 96 L564 92 L563 88 L563 85 L563 81 L562 76 L561 70 L560 65 L554 55 L547 47 L534 40 L519 34 L501 29 L489 25 L482 24 L479 23 L476 22 L472 22 L466 21 L459 20 L450 19 L444 18 L439 17 L433 17 L427 16 L417 16 L407 15 L396 14 L388 13 L382 13 L374 13 L364 13 L357 13 L350 13 L345 13 L338 13 L331 13 L323 13 L315 12 L309 11 L304 11 L299 10 L294 9 L287 9 L282 7 L276 6 L269 5 L262 4 L254 3 L243 3 L232 2 L224 1 L217 1 L208 1 L200 1 L194 0 L189 0 L184 0 L180 0 L177 0 L173 0 L168 1 L162 2 L156 3 L149 5 L143 7 L136 10 L130 12 L124 15 L117 19 L112 23 L106 28 L101 33 L95 40 L87 47 L82 51 L76 55 L72 58 L68 61 L64 64 L59 68 L53 72 L47 76 L42 79 L37 84 L33 89 L28 95 L23 102 L17 113 L11 122 L8 129 L5 134 L3 139 L2 143 L1 147 L0 151 L0 155 L0 161 L0 167 L0 174 L1 183 L4 192 L10 203 L15 211 L22 219 L26 223 L32 228 L39 232 L47 236 L54 239 L60 242 L65 245 L72 248 L84 251 L97 253 L108 255 L116 256 L123 258 L129 259 L136 260 L142 261 L147 262 L152 263 L160 264 L168 264 L180 264 L188 264 L194 264 L200 264 L206 264 L214 263 L222 262 L232 261 L241 260 L250 259 L260 259 L269 259 L274 259 L279 260 L283 260 L289 261 L301 262 L314 264 L324 266 L332 269 L342 272 L359 279 L373 285 L385 290 L393 293 " fill="none" stroke="black" /></svg>