<?xml version="1.0" encoding="utf-8" ?>
<svg baseProfile="tiny" height="119" version="1.2" viewBox="-3 -3 1410 119" width="1410" xmlns="http://www.w3.org/2000/svg" xmlns:ev="http://www.w3.org/2001/xml-events" xmlns:xlink="http://www.w3.org/1999/xlink"><defs /><path d="M0 37 L2 46 L4 54 L6 59 L8 65 L11 71 L14 73 L15 73 L16 69 L16 58 L15 48 L15 45 L15 46 L24 59 L42 75 L59 87 L66 89 L67 88 L67 81 L66 67 L62 53 L60 45 L60 46 L64 51 L94 70 L114 80 L122 83 L123 82 L122 74 L115 47 L112 31 L111 29 L111 30 L114 37 L137 55 L155 65 L161 67 L162 66 L158 59 L152 44 L148 32 L147 30 L151 36 L172 53 L212 81 L233 89 L239 90 L239 87 L231 73 L220 47 L214 34 L214 33 L214 35 L222 43 L260 74 L305 105 L332 118 L335 119 L334 116 L323 97 L316 80 L313 70 L316 79 L332 95 L349 110 L359 116 L362 117 L362 112 L362 95 L362 66 L363 44 L366 37 L368 36 L369 40 L376 52 L394 69 L409 80 L414 82 L415 81 L416 73 L416 48 L416 18 L418 1 L419 0 L425 5 L438 16 L457 32 L469 43 L474 46 L476 47 L476 37 L473 13 L472 1 L472 0 L480 6 L500 16 L528 30 L548 37 L559 40 L562 40 L563 39 L563 36 L562 25 L561 15 L561 13 L564 13 L577 22 L601 36 L619 45 L628 47 L629 47 L629 46 L626 38 L624 31 L624 30 L627 30 L650 34 L693 42 L739 50 L768 54 L795 55 L822 56 L846 57 L873 57 L895 57 L925 57 L969 57 L1043 54 L1096 51 L1120 51 L1134 51 L1142 52 L1148 54 L1155 55 L1160 55 L1167 56 L1180 57 L1197 57 L1215 58 L1232 61 L1246 63 L1258 64 L1267 64 L1278 65 L1298 67 L1345 72 L1384 74 L1403 75 L1408 75 L1410 75 " fill="none" stroke="black" /></svg>