<?xml version="1.0" encoding="utf-8" ?>
<svg baseProfile="tiny" height="592" version="1.2" viewBox="-3 -3 931 592" width="931" xmlns="http://www.w3.org/2000/svg" xmlns:ev="http://www.w3.org/2001/xml-events" xmlns:xlink="http://www.w3.org/1999/xlink"><defs /><path d="M923 51 L927 43 L930 35 L931 31 L931 28 L931 25 L930 21 L928 17 L923 13 L917 9 L909 4 L902 2 L895 0 L889 0 L881 0 L869 2 L857 9 L837 22 L823 32 L806 44 L793 54 L778 65 L762 79 L749 91 L733 106 L712 124 L680 150 L654 177 L626 205 L601 232 L581 261 L565 288 L547 315 L529 338 L519 349 L513 354 L507 360 L497 369 L481 381 L459 395 L430 412 L403 422 L377 428 L350 431 L320 431 L290 431 L251 426 L220 421 L191 416 L168 411 L144 403 L120 397 L94 391 L71 387 L54 384 L36 380 L20 374 L7 367 L1 363 L0 362 L2 362 L5 362 L9 361 L18 358 L36 351 L53 346 L67 340 L82 334 L96 328 L108 323 L117 318 L127 312 L136 307 L146 303 L153 299 L162 293 L173 286 L188 277 L202 267 L215 257 L231 245 L250 230 L276 211 L298 192 L319 174 L342 158 L358 146 L371 139 L389 131 L405 125 L421 121 L443 118 L464 118 L492 118 L517 118 L537 121 L558 128 L580 139 L610 158 L636 178 L663 202 L687 224 L707 246 L726 263 L748 279 L771 295 L796 310 L822 324 L849 340 L872 356 L892 371 L908 386 L917 398 L921 404 L921 406 L921 407 L918 410 L890 418 L833 427 L767 435 L706 444 L649 455 L603 467 L566 480 L537 490 L517 498 L499 504 L485 510 L470 516 L452 524 L434 532 L412 544 L394 552 L374 560 L367 562 L360 565 L355 567 L348 570 L340 573 L330 575 L319 578 L304 581 L287 584 L272 585 L258 587 L244 588 L229 589 L213 591 L192 592 L175 592 " fill="none" stroke="black" /></svg>