<?xml version="1.0" encoding="utf-8" ?>
<svg baseProfile="tiny" height="1026" version="1.2" viewBox="-3 -3 514 1026" width="514" xmlns="http://www.w3.org/2000/svg" xmlns:ev="http://www.w3.org/2001/xml-events" xmlns:xlink="http://www.w3.org/1999/xlink"><defs /><path d="M0 646 L0 644 L22 581 L81 441 L102 395 L108 386 L108 410 L100 454 L90 535 L81 632 L78 697 L78 702 L106 580 L225 230 L381 0 L403 0 L404 9 L361 137 L258 510 L176 898 L156 990 L150 1019 L149 973 L250 458 L386 0 L430 0 L431 0 L347 185 L226 594 L189 831 L186 890 L187 893 L334 447 L446 61 L464 0 L457 3 L353 224 L216 692 L158 967 L147 1026 L146 1015 L264 612 L399 196 L425 92 L406 118 L245 469 L136 830 L112 933 L108 948 L173 671 L270 274 L301 109 L305 71 L266 234 L149 850 L134 949 L130 977 L130 927 L184 627 L202 504 L208 449 L206 464 L180 623 L163 786 L161 858 L161 865 L215 649 L326 293 L371 147 L380 118 L370 168 L345 344 L338 521 L338 593 L342 605 L352 583 L396 419 L413 314 L414 284 L386 348 L344 500 L303 736 L298 794 L297 803 L309 659 L447 83 L481 0 L495 0 L493 8 L440 215 L378 585 L343 791 L335 844 L334 836 L400 477 L461 234 L475 158 L475 160 L436 366 L399 656 L393 745 L393 768 L393 754 L418 561 L499 80 L507 6 L501 55 L413 426 L334 854 L315 930 L308 955 L315 866 L393 524 L463 257 L477 193 L478 188 L463 302 L434 468 L422 546 L420 556 L457 348 L505 92 L514 0 L510 6 L440 215 L325 728 L278 949 L264 999 " fill="none" stroke="black" /></svg>