<?xml version="1.0" encoding="utf-8" ?>
<svg baseProfile="tiny" height="861" version="1.2" viewBox="-3 -3 1396 861" width="1396" xmlns="http://www.w3.org/2000/svg" xmlns:ev="http://www.w3.org/2001/xml-events" xmlns:xlink="http://www.w3.org/1999/xlink"><defs /><path d="M35 308 L84 250 L149 187 L222 128 L286 86 L365 44 L447 16 L553 0 L679 0 L809 0 L922 0 L1026 4 L1098 14 L1167 26 L1219 42 L1268 65 L1318 100 L1343 123 L1372 157 L1383 180 L1390 209 L1394 241 L1396 277 L1396 320 L1396 368 L1393 410 L1386 445 L1381 474 L1374 500 L1365 528 L1356 550 L1347 569 L1339 584 L1334 591 L1328 599 L1319 608 L1311 617 L1301 627 L1289 640 L1273 656 L1260 667 L1239 683 L1227 693 L1210 704 L1186 715 L1162 728 L1134 741 L1089 755 L1026 769 L969 780 L914 792 L844 803 L761 812 L651 820 L567 826 L509 827 L474 826 L439 815 L411 804 L385 789 L364 771 L345 746 L331 707 L322 663 L321 606 L325 562 L334 523 L342 495 L355 465 L377 430 L411 381 L445 336 L482 292 L520 252 L571 204 L620 163 L675 123 L733 85 L784 59 L814 50 L839 48 L861 49 L888 58 L917 69 L948 83 L979 99 L1011 118 L1051 145 L1078 167 L1101 190 L1114 212 L1123 239 L1130 272 L1135 317 L1137 355 L1137 387 L1135 418 L1128 452 L1115 489 L1094 526 L1062 574 L1013 637 L960 690 L880 743 L781 789 L669 819 L546 842 L413 857 L318 861 L209 859 L146 838 L94 806 L43 755 L18 708 L3 642 L0 538 L9 455 L31 393 L64 341 L111 285 L186 217 L248 173 L309 139 L355 126 L416 121 L502 117 L571 117 L627 139 L665 172 L683 215 L693 272 L696 314 L696 346 L690 376 L664 425 L608 492 L537 548 L462 580 L379 590 L278 581 L203 521 L156 399 L149 276 L175 194 L212 143 L246 133 L301 146 L352 189 L381 232 L395 256 " fill="none" stroke="black" /></svg>