<?xml version="1.0" encoding="utf-8" ?>
<svg baseProfile="tiny" height="157" version="1.2" viewBox="-3 -3 403 157" width="403" xmlns="http://www.w3.org/2000/svg" xmlns:ev="http://www.w3.org/2001/xml-events" xmlns:xlink="http://www.w3.org/1999/xlink"><defs /><path d="M0 157 L7 149 L36 119 L78 73 L110 40 L119 30 L120 29 L120 28 L119 35 L117 49 L114 62 L110 70 L109 73 L109 68 L109 53 L115 36 L121 24 L123 20 L124 19 L124 22 L124 36 L124 54 L125 60 L125 62 L127 62 L128 61 L130 53 L131 44 L131 36 L131 34 L132 40 L141 48 L150 54 L154 55 L155 55 L154 51 L148 39 L146 32 L146 31 L146 32 L148 38 L158 53 L162 58 L164 59 L164 56 L158 44 L155 35 L154 33 L156 38 L172 51 L188 58 L197 60 L199 60 L199 56 L191 48 L183 40 L177 36 L175 36 L178 41 L201 53 L229 62 L236 63 L230 55 L218 29 L207 8 L201 1 L199 0 L199 1 L199 8 L215 26 L239 52 L254 62 L258 64 L259 63 L252 53 L243 34 L239 23 L242 28 L268 49 L293 66 L304 69 L304 66 L296 52 L272 22 L261 10 L255 5 L259 13 L287 36 L312 51 L323 55 L323 54 L318 43 L309 28 L308 23 L309 23 L331 23 L372 27 L403 35 " fill="none" stroke="black" /></svg>