<?xml version="1.0" encoding="utf-8" ?>
<svg baseProfile="tiny" height="516" version="1.2" viewBox="-3 -3 1105 516" width="1105" xmlns="http://www.w3.org/2000/svg" xmlns:ev="http://www.w3.org/2001/xml-events" xmlns:xlink="http://www.w3.org/1999/xlink"><defs /><path d="M370 275 L378 270 L386 265 L395 259 L400 255 L406 251 L412 247 L422 241 L434 234 L444 228 L457 222 L469 216 L481 212 L489 208 L497 205 L505 201 L513 197 L522 194 L530 190 L537 188 L546 184 L558 180 L573 176 L583 173 L593 170 L602 166 L611 164 L621 161 L633 156 L643 152 L661 144 L676 138 L689 131 L700 127 L707 123 L715 121 L722 118 L724 117 L730 114 L735 111 L741 106 L746 103 L750 100 L753 97 L756 95 L758 93 L759 91 L761 89 L761 88 L759 88 L754 87 L748 85 L742 85 L735 85 L729 85 L722 85 L714 85 L706 85 L697 85 L690 87 L683 88 L676 90 L666 93 L654 95 L647 98 L637 101 L623 105 L605 111 L590 117 L575 123 L561 128 L548 133 L536 138 L525 142 L515 146 L502 149 L491 154 L480 159 L469 164 L456 169 L445 175 L435 179 L425 184 L409 189 L389 196 L358 209 L330 218 L307 226 L288 233 L267 241 L252 247 L237 255 L222 262 L202 272 L189 279 L170 292 L151 303 L133 313 L119 320 L109 325 L100 330 L89 336 L77 342 L66 350 L54 357 L42 365 L33 373 L24 388 L14 412 L6 442 L1 468 L0 491 L0 502 L1 507 L4 510 L10 513 L20 515 L38 516 L60 516 L95 515 L134 508 L176 499 L219 488 L268 470 L321 447 L377 426 L427 405 L475 384 L523 359 L584 324 L663 279 L744 233 L823 187 L898 135 L975 81 L1014 54 L1041 38 L1061 27 L1073 19 L1083 12 L1090 8 L1095 5 L1100 3 L1103 1 L1104 0 L1105 0 L1103 0 L1101 2 L1100 3 L1099 4 " fill="none" stroke="black" /></svg>