<?xml version="1.0" encoding="utf-8" ?>
<svg baseProfile="tiny" height="30" version="1.2" viewBox="-3 -3 289 30" width="289" xmlns="http://www.w3.org/2000/svg" xmlns:ev="http://www.w3.org/2001/xml-events" xmlns:xlink="http://www.w3.org/1999/xlink"><defs /><path d="M0 3 L3 4 L8 4 L14 6 L21 8 L30 10 L37 12 L44 14 L49 15 L52 16 L55 17 L58 18 L60 18 L62 18 L65 19 L66 19 L69 20 L71 21 L74 21 L77 21 L82 21 L85 21 L87 21 L90 21 L92 21 L94 21 L96 21 L99 21 L102 21 L104 21 L111 22 L116 23 L121 23 L127 25 L130 25 L134 25 L141 25 L144 25 L146 25 L149 23 L151 20 L152 17 L152 13 L152 11 L152 9 L151 7 L150 6 L148 4 L143 2 L139 1 L136 0 L133 0 L132 0 L131 0 L130 0 L129 2 L128 2 L128 3 L128 4 L128 5 L128 6 L128 7 L129 8 L130 9 L131 10 L132 11 L134 13 L135 15 L137 17 L140 19 L144 21 L148 23 L151 24 L154 25 L157 26 L166 26 L174 26 L185 26 L195 23 L202 21 L205 20 L208 19 L211 19 L214 18 L216 18 L218 17 L219 16 L220 16 L220 15 L221 14 L222 14 L222 13 L222 12 L221 11 L218 8 L214 6 L211 5 L208 3 L206 3 L204 2 L202 2 L200 2 L199 2 L197 2 L196 3 L196 4 L195 5 L195 6 L195 7 L195 8 L195 9 L195 10 L195 12 L195 13 L195 14 L196 16 L198 18 L202 21 L210 25 L216 28 L229 30 L249 30 L261 28 L269 25 L275 24 L278 23 L281 23 L283 23 L286 22 L288 22 L289 22 " fill="none" stroke="black" /></svg>