<?xml version="1.0" encoding="utf-8" ?>
<svg baseProfile="tiny" height="81" version="1.2" viewBox="-3 -3 223 81" width="223" xmlns="http://www.w3.org/2000/svg" xmlns:ev="http://www.w3.org/2001/xml-events" xmlns:xlink="http://www.w3.org/1999/xlink"><defs /><path d="M0 81 L1 81 L2 80 L2 79 L3 78 L4 76 L4 75 L4 74 L5 74 L5 72 L6 71 L8 68 L11 61 L15 54 L19 48 L22 42 L30 32 L35 26 L37 23 L40 20 L41 19 L42 16 L44 14 L46 12 L47 11 L48 9 L49 8 L49 7 L50 7 L52 7 L53 7 L54 7 L56 7 L57 6 L58 6 L60 6 L61 6 L63 5 L65 4 L66 4 L69 4 L72 4 L75 4 L78 4 L81 4 L84 4 L87 4 L88 4 L91 4 L92 4 L93 4 L95 4 L97 4 L98 4 L101 4 L102 4 L104 4 L105 4 L107 4 L108 4 L110 4 L111 4 L112 4 L114 4 L115 4 L116 4 L117 4 L118 4 L119 4 L120 4 L121 4 L122 4 L122 5 L122 6 L122 8 L121 10 L118 16 L117 19 L116 21 L116 22 L120 20 L126 14 L130 11 L131 11 L132 11 L133 11 L133 12 L134 13 L135 13 L147 9 L152 6 L154 5 L155 5 L156 6 L156 8 L156 11 L156 13 L156 15 L156 14 L157 12 L158 12 L159 15 L160 17 L161 18 L162 18 L163 17 L164 16 L165 15 L166 15 L166 16 L166 21 L165 24 L165 27 L164 28 L173 16 L187 2 L189 1 L190 0 L191 0 L191 1 L192 6 L192 10 L192 12 L192 14 L192 15 L195 15 L198 11 L200 11 L201 11 L202 13 L202 16 L203 17 L205 17 L210 16 L215 13 L218 12 L221 11 L222 11 L223 11 " fill="none" stroke="black" /></svg>