<?xml version="1.0" encoding="utf-8" ?>
<svg baseProfile="tiny" height="102" version="1.2" viewBox="-3 -3 853 102" width="853" xmlns="http://www.w3.org/2000/svg" xmlns:ev="http://www.w3.org/2001/xml-events" xmlns:xlink="http://www.w3.org/1999/xlink"><defs /><path d="M0 66 L2 66 L3 66 L5 66 L11 66 L28 68 L107 77 L250 71 L449 63 L601 64 L734 66 L831 71 L850 73 L853 74 " fill="none" stroke="black" /><path d="M0 66 L2 66 L3 66 L5 66 L11 66 L28 68 L107 77 L250 71 L449 63 L601 64 L734 66 L831 71 L850 73 L853 74 M122 24 L122 28 L122 34 L121 39 L121 45 L120 49 L119 55 L119 63 L118 70 L117 76 L117 82 L117 85 L117 88 L117 91 " fill="none" stroke="black" /><path d="M0 66 L2 66 L3 66 L5 66 L11 66 L28 68 L107 77 L250 71 L449 63 L601 64 L734 66 L831 71 L850 73 L853 74 M122 24 L122 28 L122 34 L121 39 L121 45 L120 49 L119 55 L119 63 L118 70 L117 76 L117 82 L117 85 L117 88 L117 91 M187 32 L188 32 L188 35 L188 53 L188 73 L188 83 L188 90 L187 95 L187 98 L187 100 L187 102 " fill="none" stroke="black" /><path d="M0 66 L2 66 L3 66 L5 66 L11 66 L28 68 L107 77 L250 71 L449 63 L601 64 L734 66 L831 71 L850 73 L853 74 M122 24 L122 28 L122 34 L121 39 L121 45 L120 49 L119 55 L119 63 L118 70 L117 76 L117 82 L117 85 L117 88 L117 91 M187 32 L188 32 L188 35 L188 53 L188 73 L188 83 L188 90 L187 95 L187 98 L187 100 L187 102 M310 24 L309 24 L307 29 L304 48 L301 74 L300 83 L300 86 L300 88 L300 89 " fill="none" stroke="black" /><path d="M0 66 L2 66 L3 66 L5 66 L11 66 L28 68 L107 77 L250 71 L449 63 L601 64 L734 66 L831 71 L850 73 L853 74 M122 24 L122 28 L122 34 L121 39 L121 45 L120 49 L119 55 L119 63 L118 70 L117 76 L117 82 L117 85 L117 88 L117 91 M187 32 L188 32 L188 35 L188 53 L188 73 L188 83 L188 90 L187 95 L187 98 L187 100 L187 102 M310 24 L309 24 L307 29 L304 48 L301 74 L300 83 L300 86 L300 88 L300 89 M409 34 L411 38 L416 56 L422 72 L423 79 L424 80 " fill="none" stroke="black" /><path d="M0 66 L2 66 L3 66 L5 66 L11 66 L28 68 L107 77 L250 71 L449 63 L601 64 L734 66 L831 71 L850 73 L853 74 M122 24 L122 28 L122 34 L121 39 L121 45 L120 49 L119 55 L119 63 L118 70 L117 76 L117 82 L117 85 L117 88 L117 91 M187 32 L188 32 L188 35 L188 53 L188 73 L188 83 L188 90 L187 95 L187 98 L187 100 L187 102 M310 24 L309 24 L307 29 L304 48 L301 74 L300 83 L300 86 L300 88 L300 89 M409 34 L411 38 L416 56 L422 72 L423 79 L424 80 M491 38 L492 38 L494 41 L497 47 L503 60 L507 68 L510 75 L511 80 L512 85 L513 88 " fill="none" stroke="black" /><path d="M0 66 L2 66 L3 66 L5 66 L11 66 L28 68 L107 77 L250 71 L449 63 L601 64 L734 66 L831 71 L850 73 L853 74 M122 24 L122 28 L122 34 L121 39 L121 45 L120 49 L119 55 L119 63 L118 70 L117 76 L117 82 L117 85 L117 88 L117 91 M187 32 L188 32 L188 35 L188 53 L188 73 L188 83 L188 90 L187 95 L187 98 L187 100 L187 102 M310 24 L309 24 L307 29 L304 48 L301 74 L300 83 L300 86 L300 88 L300 89 M409 34 L411 38 L416 56 L422 72 L423 79 L424 80 M491 38 L492 38 L494 41 L497 47 L503 60 L507 68 L510 75 L511 80 L512 85 L513 88 M674 0 L674 1 L670 10 L659 37 L651 52 L648 62 L644 75 L642 82 L642 85 L640 88 L639 91 " fill="none" stroke="black" /></svg>