<?xml version="1.0" encoding="utf-8" ?>
<svg baseProfile="tiny" height="235" version="1.2" viewBox="-3 -3 202 235" width="202" xmlns="http://www.w3.org/2000/svg" xmlns:ev="http://www.w3.org/2001/xml-events" xmlns:xlink="http://www.w3.org/1999/xlink"><defs /><path d="M1 0 L0 0 " fill="none" stroke="black" /><path d="M1 0 L0 0 M8 154 L8 157 L13 184 L17 212 L20 226 L20 228 L21 229 L26 225 L46 195 L62 170 L69 159 L70 158 L71 158 L74 166 L77 203 L78 222 L78 227 L78 228 L80 225 L90 189 L94 178 L95 186 L102 204 L107 211 L111 212 L117 205 L120 197 L122 194 L124 195 L128 202 L130 206 L131 207 L136 203 L144 178 L145 172 L145 171 L148 182 L152 200 L153 208 L153 209 L153 207 L154 168 L153 161 L152 165 L160 191 L169 205 L171 209 L172 210 L175 203 L188 156 L189 151 L194 165 L201 188 L202 194 L202 195 L202 194 L190 172 L173 156 L159 154 L144 160 L135 185 L134 193 L134 194 L134 195 L131 185 L126 168 L124 166 L123 167 L124 186 L125 206 L125 211 L116 197 L94 161 L90 158 L89 158 L89 167 L89 189 L87 202 L86 206 L85 208 L82 207 L55 145 L51 136 L50 136 L50 145 L53 155 L54 161 L54 164 L52 164 L45 155 L38 148 L36 149 L36 166 L36 180 L37 188 L37 189 L37 190 L40 151 L42 125 L44 122 L59 135 L103 171 L126 183 L133 185 L134 182 L133 174 L129 167 L128 165 L126 168 L144 223 L153 234 L155 235 L178 177 L198 99 L199 92 L198 92 L191 115 L179 154 L175 164 L173 166 L159 169 L63 165 L48 161 L45 159 L48 145 L58 125 L63 120 L66 122 L72 142 L76 175 L79 197 L79 198 L68 186 L44 164 L36 160 L30 160 L28 160 L26 160 L24 161 L23 161 " fill="none" stroke="black" /></svg>