<?xml version="1.0" encoding="utf-8" ?>
<svg baseProfile="tiny" height="138" version="1.2" viewBox="-3 -3 91 138" width="91" xmlns="http://www.w3.org/2000/svg" xmlns:ev="http://www.w3.org/2001/xml-events" xmlns:xlink="http://www.w3.org/1999/xlink"><defs /><path d="M50 138 L49 138 L48 138 L47 138 L44 138 L40 138 L34 138 L31 138 L29 138 L27 138 L25 138 L22 136 L16 131 L12 126 L11 123 L10 120 L10 118 L10 114 L14 104 L17 99 L20 95 L23 92 L28 89 L35 86 L45 85 L52 84 L55 84 L58 84 L59 87 L60 90 L60 95 L58 102 L54 108 L48 113 L38 119 L30 122 L25 123 L17 123 L11 119 L6 115 L2 107 L0 101 L0 94 L2 86 L6 80 L10 74 L17 69 L22 65 L30 62 L40 59 L45 58 L49 57 L52 57 L55 57 L56 57 L57 58 L58 63 L56 67 L51 71 L43 75 L39 77 L36 77 L29 76 L25 72 L20 68 L16 61 L14 55 L13 51 L13 44 L16 39 L19 35 L23 32 L29 30 L40 27 L58 21 L66 20 L72 20 L77 20 L78 21 L79 22 L80 24 L78 30 L73 36 L65 38 L54 39 L47 36 L41 33 L34 27 L30 20 L29 15 L29 10 L29 8 L31 5 L38 0 L46 0 L57 0 L74 0 L81 0 L85 0 L88 0 L90 0 L91 0 " fill="none" stroke="black" /></svg>