<?xml version="1.0" encoding="utf-8" ?>
<svg baseProfile="tiny" height="148" version="1.2" viewBox="-3 -3 267 148" width="267" xmlns="http://www.w3.org/2000/svg" xmlns:ev="http://www.w3.org/2001/xml-events" xmlns:xlink="http://www.w3.org/1999/xlink"><defs /><circle cx="75" cy="106" fill="black" r="1" /><path d="M75 106 L75 107 L76 110 L77 111 L77 112 " fill="none" stroke="black" /><path d="M75 106 L75 107 L76 110 L77 111 L77 112 M98 112 L99 112 L100 112 L103 112 L109 114 L112 115 " fill="none" stroke="black" /><path d="M75 106 L75 107 L76 110 L77 111 L77 112 M98 112 L99 112 L100 112 L103 112 L109 114 L112 115 M104 79 L103 78 L105 79 " fill="none" stroke="black" /><path d="M75 106 L75 107 L76 110 L77 111 L77 112 M98 112 L99 112 L100 112 L103 112 L109 114 L112 115 M104 79 L103 78 L105 79 M62 74 L64 75 " fill="none" stroke="black" /><path d="M75 106 L75 107 L76 110 L77 111 L77 112 M98 112 L99 112 L100 112 L103 112 L109 114 L112 115 M104 79 L103 78 L105 79 M62 74 L64 75 M108 93 L110 93 L111 94 L112 94 L113 94 L116 95 " fill="none" stroke="black" /><path d="M75 106 L75 107 L76 110 L77 111 L77 112 M98 112 L99 112 L100 112 L103 112 L109 114 L112 115 M104 79 L103 78 L105 79 M62 74 L64 75 M108 93 L110 93 L111 94 L112 94 L113 94 L116 95 M118 32 L117 32 L116 32 L114 33 L113 35 " fill="none" stroke="black" /><path d="M75 106 L75 107 L76 110 L77 111 L77 112 M98 112 L99 112 L100 112 L103 112 L109 114 L112 115 M104 79 L103 78 L105 79 M62 74 L64 75 M108 93 L110 93 L111 94 L112 94 L113 94 L116 95 M118 32 L117 32 L116 32 L114 33 L113 35 M79 60 L78 61 L77 62 L77 66 " fill="none" stroke="black" /><path d="M75 106 L75 107 L76 110 L77 111 L77 112 M98 112 L99 112 L100 112 L103 112 L109 114 L112 115 M104 79 L103 78 L105 79 M62 74 L64 75 M108 93 L110 93 L111 94 L112 94 L113 94 L116 95 M118 32 L117 32 L116 32 L114 33 L113 35 M79 60 L78 61 L77 62 L77 66 M135 31 L134 30 L133 30 L129 28 L97 11 L60 0 L46 3 L38 14 L16 54 L5 77 L0 93 L0 98 L7 108 L80 144 L140 148 L211 130 L241 116 L260 100 L265 96 L266 93 L267 89 L247 68 L170 36 L106 29 L81 30 L72 30 L66 30 L62 29 L61 28 " fill="none" stroke="black" /></svg>