<?xml version="1.0" encoding="utf-8" ?>
<svg baseProfile="tiny" height="316" version="1.2" viewBox="-3 -3 699 316" width="699" xmlns="http://www.w3.org/2000/svg" xmlns:ev="http://www.w3.org/2001/xml-events" xmlns:xlink="http://www.w3.org/1999/xlink"><defs /><path d="M244 153 L244 135 L243 118 L243 117 L264 143 L322 210 L331 215 L333 215 L282 141 L250 111 L244 116 L245 151 L267 178 L356 183 L417 148 L339 143 L101 197 L0 230 L16 225 L179 174 L414 138 L426 137 L418 138 L407 142 L410 143 L613 128 L699 132 L689 135 L537 182 L354 249 L292 263 L289 257 L330 202 L444 83 L454 77 L454 80 L429 120 L423 171 L451 196 L466 202 L442 189 L216 133 L97 120 L93 123 L106 129 L347 167 L519 189 L543 190 L545 186 L516 169 L413 141 L365 134 L364 134 L367 137 L373 145 L373 176 L359 214 L353 222 L331 219 L223 211 L195 211 L195 212 L313 180 L542 122 L687 103 L692 102 L690 102 L602 121 L462 158 L390 175 L346 191 L335 195 L334 195 L334 190 L339 118 L323 97 L243 72 L228 79 L219 126 L223 209 L268 284 L337 316 L425 302 L517 181 L525 99 L510 71 L406 74 L252 119 L174 156 L146 186 L142 194 L142 196 L149 198 L345 159 L588 35 L645 1 L647 0 L646 0 L601 14 L485 72 L448 96 L401 130 L385 142 L383 145 L383 146 L384 146 " fill="none" stroke="black" /></svg>