<?xml version="1.0" encoding="utf-8" ?>
<svg baseProfile="tiny" height="83" version="1.2" viewBox="-3 -3 174 83" width="174" xmlns="http://www.w3.org/2000/svg" xmlns:ev="http://www.w3.org/2001/xml-events" xmlns:xlink="http://www.w3.org/1999/xlink"><defs /><path d="M0 7 L1 7 L2 7 L5 6 L8 6 L11 6 L14 7 L19 10 L24 14 L29 17 L31 21 L33 27 L35 34 L35 48 L33 61 L32 65 L30 69 L29 72 L27 73 L25 75 L21 76 L19 77 L18 77 L17 77 L16 78 L18 78 L19 78 L23 78 L27 77 L32 75 L41 71 L47 67 L52 63 L56 57 L59 53 L61 49 L61 44 L61 36 L60 29 L54 20 L41 9 L34 5 L32 3 L29 3 L29 2 L28 1 L32 0 L41 0 L53 0 L64 3 L69 5 L73 8 L75 12 L79 18 L80 27 L82 41 L82 53 L82 61 L81 65 L78 71 L76 74 L74 78 L71 80 L69 81 L68 82 L67 83 L66 83 L65 83 L66 83 L68 81 L72 80 L77 76 L85 70 L91 66 L95 60 L99 53 L100 48 L100 42 L100 34 L99 27 L97 20 L93 12 L91 10 L90 8 L88 6 L86 5 L86 4 L85 4 L87 4 L96 7 L102 10 L108 12 L114 16 L118 19 L122 23 L128 33 L132 43 L134 48 L134 55 L134 61 L133 67 L131 74 L130 77 L129 78 L128 79 L126 81 L125 82 L124 83 L123 83 L124 83 L129 79 L138 71 L152 58 L159 47 L162 40 L162 34 L162 29 L159 24 L149 13 L140 5 L136 2 L133 1 L133 0 L133 1 L137 4 L143 10 L153 18 L164 33 L170 43 L173 51 L173 56 L174 59 L174 63 L174 65 L174 67 " fill="none" stroke="black" /></svg>