<?xml version="1.0" encoding="utf-8" ?>
<svg baseProfile="tiny" height="141" version="1.2" viewBox="-3 -3 146 141" width="146" xmlns="http://www.w3.org/2000/svg" xmlns:ev="http://www.w3.org/2001/xml-events" xmlns:xlink="http://www.w3.org/1999/xlink"><defs /><path d="M32 0 L31 1 L39 2 L77 7 L112 10 L135 11 L143 11 L144 11 L145 11 L146 12 L146 14 L144 24 L139 63 L139 98 L139 109 L139 114 L138 117 L137 117 L137 118 L133 118 L100 123 L40 134 L9 138 L5 138 L4 138 L2 138 L1 138 L0 136 L0 131 L0 123 L5 104 L9 88 L15 72 L21 58 L22 53 L22 51 L22 49 L22 47 L22 44 L22 41 L22 28 L23 22 L24 20 L25 18 L27 17 " fill="none" stroke="black" /><path d="M32 0 L31 1 L39 2 L77 7 L112 10 L135 11 L143 11 L144 11 L145 11 L146 12 L146 14 L144 24 L139 63 L139 98 L139 109 L139 114 L138 117 L137 117 L137 118 L133 118 L100 123 L40 134 L9 138 L5 138 L4 138 L2 138 L1 138 L0 136 L0 131 L0 123 L5 104 L9 88 L15 72 L21 58 L22 53 L22 51 L22 49 L22 47 L22 44 L22 41 L22 28 L23 22 L24 20 L25 18 L27 17 M33 105 L32 105 L32 109 L33 120 L37 134 L39 140 L41 141 L44 140 L66 96 L78 69 L81 62 L81 63 L80 74 L80 82 L80 85 L80 87 L77 86 L70 79 L64 76 L61 76 L61 77 L61 82 L62 89 L62 90 L47 40 L44 28 L44 27 L44 28 L50 35 L73 55 L107 66 L112 67 L115 67 L118 63 L119 59 L119 53 L118 48 L118 47 L117 47 L118 48 L122 51 L127 52 L129 52 L128 34 L122 13 L121 10 L120 10 L120 12 L120 18 L123 31 L125 38 L126 43 L126 45 L126 46 L119 34 L106 14 L104 14 L103 15 L95 52 L89 78 L87 83 L83 82 L56 49 L42 33 L41 32 L41 36 L45 50 L54 74 L59 88 L68 96 L77 100 L86 101 L94 101 L97 101 L100 101 L102 100 L105 99 L108 98 L110 98 L111 98 " fill="none" stroke="black" /></svg>