<?xml version="1.0" encoding="utf-8" ?>
<svg baseProfile="tiny" height="133" version="1.2" viewBox="-3 -3 424 133" width="424" xmlns="http://www.w3.org/2000/svg" xmlns:ev="http://www.w3.org/2001/xml-events" xmlns:xlink="http://www.w3.org/1999/xlink"><defs /><path d="M0 133 L1 133 L2 132 L3 126 L8 117 L13 107 L17 101 L19 100 L21 100 L25 102 L34 111 L47 123 L58 131 L61 131 L66 131 L92 106 L105 89 L109 84 L112 82 L115 82 L119 84 L132 94 L147 109 L153 115 L157 117 L158 118 L168 113 L200 66 L209 53 L211 49 L212 49 L213 49 L216 53 L225 64 L233 73 L238 77 L246 80 L259 76 L282 54 L297 38 L299 34 L300 32 L303 30 L304 29 L305 27 L307 26 L308 26 L312 33 L317 45 L320 53 L322 57 L323 60 L328 62 L381 46 L404 27 L409 21 L413 17 L416 10 L419 6 L421 3 L422 1 L423 1 L423 0 L424 0 " fill="none" stroke="black" /></svg>