<?xml version="1.0" encoding="utf-8" ?>
<svg baseProfile="tiny" height="37" version="1.2" viewBox="-3 -3 385 37" width="385" xmlns="http://www.w3.org/2000/svg" xmlns:ev="http://www.w3.org/2001/xml-events" xmlns:xlink="http://www.w3.org/1999/xlink"><defs /><path d="M0 28 L0 27 L1 26 L2 24 L3 22 L6 21 L8 18 L10 17 L11 15 L12 14 L14 14 L16 13 L18 13 L21 13 L24 14 L29 15 L35 19 L40 21 L44 23 L47 24 L50 25 L56 26 L63 26 L68 26 L72 27 L79 27 L86 27 L92 26 L105 19 L112 15 L115 12 L119 10 L125 7 L128 7 L131 6 L135 6 L138 6 L141 6 L146 6 L149 7 L154 8 L164 11 L172 13 L177 14 L186 17 L192 18 L197 19 L202 21 L207 24 L214 26 L222 31 L228 34 L235 36 L241 37 L246 37 L250 36 L254 34 L260 29 L265 24 L269 20 L275 14 L281 10 L286 7 L293 3 L298 1 L302 1 L306 0 L311 0 L315 0 L321 0 L325 1 L329 3 L336 6 L341 9 L346 10 L354 13 L360 13 L365 13 L373 13 L378 13 L380 13 L383 13 L384 13 L385 13 " fill="none" stroke="black" /></svg>