<?xml version="1.0" encoding="utf-8" ?>
<svg baseProfile="tiny" height="196" version="1.2" viewBox="-3 -3 443 196" width="443" xmlns="http://www.w3.org/2000/svg" xmlns:ev="http://www.w3.org/2001/xml-events" xmlns:xlink="http://www.w3.org/1999/xlink"><defs /><path d="M0 159 L5 159 L78 162 L145 176 L218 191 L286 195 L338 195 L394 196 L436 195 L442 194 L443 194 " fill="none" stroke="black" /><path d="M0 159 L5 159 L78 162 L145 176 L218 191 L286 195 L338 195 L394 196 L436 195 L442 194 L443 194 M30 139 L32 138 L35 134 L47 122 L67 103 L71 99 L73 98 L74 98 L76 98 L79 100 L83 105 L88 110 L94 116 L100 121 L103 125 L108 132 L111 139 L114 145 L115 149 L117 152 L117 154 L118 156 L121 157 L135 143 L157 119 L166 110 L170 106 L174 101 L186 86 L192 77 L197 70 L202 64 L205 60 L209 55 L214 51 L217 46 L219 45 L221 42 L222 41 L223 40 L224 38 L226 37 L226 36 L227 36 L228 36 L228 38 L227 49 L223 82 L220 96 L219 104 L216 120 L213 136 L212 143 L211 149 L209 155 L209 158 L209 160 L208 162 L208 163 L216 157 L221 155 L222 153 L224 152 L225 152 L226 151 L227 150 L228 150 L229 153 L231 156 L232 163 L235 172 L236 176 L237 178 L238 180 L239 180 L240 181 L246 180 L253 175 L260 169 L266 163 L271 160 L275 157 L277 156 L278 156 L279 157 L281 159 L283 164 L284 167 L285 168 L287 169 L296 145 L317 65 L329 23 L333 9 L336 2 L337 0 L338 0 L339 1 L339 2 L343 9 L348 19 L357 38 L371 83 L376 109 L378 121 L380 158 L382 177 L382 180 L382 181 L382 182 L382 183 L382 181 L382 165 " fill="none" stroke="black" /></svg>