<?xml version="1.0" encoding="utf-8" ?>
<svg baseProfile="tiny" height="201" version="1.2" viewBox="-3 -3 225 201" width="225" xmlns="http://www.w3.org/2000/svg" xmlns:ev="http://www.w3.org/2001/xml-events" xmlns:xlink="http://www.w3.org/1999/xlink"><defs /><path d="M0 164 L1 164 L12 164 L56 167 L118 173 L142 175 L158 178 L172 179 L178 180 L185 181 L194 182 L201 183 L207 183 L214 183 L215 183 L217 183 " fill="none" stroke="black" /><path d="M0 164 L1 164 L12 164 L56 167 L118 173 L142 175 L158 178 L172 179 L178 180 L185 181 L194 182 L201 183 L207 183 L214 183 L215 183 L217 183 M6 164 L7 164 L8 159 L18 144 L43 109 L49 102 L50 102 L50 108 L40 139 L22 186 L18 197 L18 198 L32 158 L61 95 L63 89 L64 89 L64 91 L64 95 L65 130 L66 150 L66 156 L66 157 L66 158 L69 143 L83 76 L84 65 L83 74 L74 153 L74 174 L74 178 L81 156 L118 39 L120 28 L119 32 L110 120 L110 145 L111 150 L112 152 L113 151 L136 76 L138 57 L138 60 L135 114 L133 195 L134 200 L135 201 L159 120 L174 52 L174 50 L174 52 L174 127 L174 165 L174 172 L175 172 L202 109 L221 49 L222 48 L222 54 L220 104 L220 142 L220 145 L225 88 L224 2 L222 0 L217 31 L216 86 L216 104 L216 106 " fill="none" stroke="black" /></svg>