<?xml version="1.0" encoding="utf-8" ?>
<svg baseProfile="tiny" height="136" version="1.2" viewBox="-3 -3 425 136" width="425" xmlns="http://www.w3.org/2000/svg" xmlns:ev="http://www.w3.org/2001/xml-events" xmlns:xlink="http://www.w3.org/1999/xlink"><defs /><path d="M0 100 L3 100 L8 100 L14 100 L19 101 L22 101 L25 101 L28 101 L31 101 L36 102 L45 102 L53 103 L67 103 L101 102 L116 100 L126 99 L187 105 L254 113 L295 118 L370 131 L392 135 L395 136 L396 136 " fill="none" stroke="black" /><path d="M0 100 L3 100 L8 100 L14 100 L19 101 L22 101 L25 101 L28 101 L31 101 L36 102 L45 102 L53 103 L67 103 L101 102 L116 100 L126 99 L187 105 L254 113 L295 118 L370 131 L392 135 L395 136 L396 136 M20 92 L20 90 L26 79 L36 66 L40 62 L42 59 L43 59 L45 59 L49 61 L56 67 L74 81 L116 95 L146 96 L162 95 L169 93 L171 92 L173 91 L180 88 L186 85 L194 82 L212 79 L218 78 L223 77 L228 76 L232 76 L235 76 L239 78 L245 80 L250 81 L256 82 L264 83 L268 83 L271 84 L275 86 L280 89 L285 91 L290 94 L293 95 L303 94 L318 94 L327 93 L334 92 L339 90 L342 89 L345 87 L349 85 L354 82 L357 80 L361 77 L367 73 L394 43 L419 9 L424 2 L425 0 " fill="none" stroke="black" /></svg>