<?xml version="1.0" encoding="utf-8" ?>
<svg baseProfile="tiny" height="68" version="1.2" viewBox="-3 -3 187 68" width="187" xmlns="http://www.w3.org/2000/svg" xmlns:ev="http://www.w3.org/2001/xml-events" xmlns:xlink="http://www.w3.org/1999/xlink"><defs /><path d="M0 21 L0 19 L5 14 L7 12 L8 11 L8 10 L9 10 L11 11 L14 13 L18 18 L21 23 L22 24 L23 25 L24 26 L25 26 L26 25 L26 24 L27 23 L27 22 L29 22 L31 23 L32 24 L34 25 L35 25 L38 24 L40 21 L42 19 L44 19 L44 18 L45 18 L50 18 L56 21 L61 23 L64 24 L66 24 L70 18 L74 9 L75 7 L76 6 L78 6 L80 8 L83 11 L86 12 L87 12 L90 11 L93 3 L95 1 L97 1 L101 6 L106 12 L109 16 L110 17 L110 9 L108 1 L107 0 L108 0 L111 5 L120 15 L123 18 L124 20 L125 19 L125 16 L125 17 L124 24 L123 28 L123 30 L123 32 L121 32 L118 31 L113 27 L109 24 L108 24 L108 27 L111 32 L113 36 L113 38 L113 39 L107 33 L102 31 L99 31 L98 31 L98 36 L98 41 L98 44 L97 46 L96 46 L91 44 L87 42 L86 41 L85 41 L85 43 L86 47 L88 50 L90 52 L91 52 L92 51 L95 44 L95 43 L97 43 L108 49 L120 58 L127 64 L131 67 L132 68 L134 65 L139 43 L139 38 L139 37 L142 37 L149 45 L156 51 L160 55 L161 55 L163 55 L171 32 L173 28 L174 29 L180 33 L183 37 L184 38 L185 39 L185 40 L186 40 L187 40 " fill="none" stroke="black" /></svg>