<?xml version="1.0" encoding="utf-8" ?>
<svg baseProfile="tiny" height="74" version="1.2" viewBox="-3 -3 363 74" width="363" xmlns="http://www.w3.org/2000/svg" xmlns:ev="http://www.w3.org/2001/xml-events" xmlns:xlink="http://www.w3.org/1999/xlink"><defs /><path d="M0 70 L0 69 L1 68 L9 68 L30 70 L66 72 L101 74 L141 74 L252 71 L301 63 L332 57 L353 57 L360 58 L362 59 L363 59 " fill="none" stroke="black" /><path d="M0 70 L0 69 L1 68 L9 68 L30 70 L66 72 L101 74 L141 74 L252 71 L301 63 L332 57 L353 57 L360 58 L362 59 L363 59 M27 63 L28 62 L30 56 L35 46 L45 32 L49 26 L53 23 L56 20 L57 19 L59 17 L61 16 L64 15 L66 15 L68 14 L69 14 L71 14 L72 14 L73 14 L74 16 L75 20 L80 35 L83 46 L84 51 L86 55 L88 57 L92 59 L121 60 L137 57 L149 49 L164 30 L170 18 L173 12 L176 6 L177 4 L178 3 L181 0 L184 0 L187 0 L203 6 L219 19 L230 28 L236 35 L240 41 L242 42 L243 45 L245 48 L246 52 L247 55 L248 57 L249 59 L250 62 L255 66 L270 69 L286 66 L295 60 L299 53 L301 48 L303 42 L306 38 L308 34 L311 29 L313 26 L315 23 L317 20 L318 19 L320 18 L324 17 L328 17 L331 19 L334 20 L336 21 L337 21 L337 22 " fill="none" stroke="black" /><path d="M0 70 L0 69 L1 68 L9 68 L30 70 L66 72 L101 74 L141 74 L252 71 L301 63 L332 57 L353 57 L360 58 L362 59 L363 59 M27 63 L28 62 L30 56 L35 46 L45 32 L49 26 L53 23 L56 20 L57 19 L59 17 L61 16 L64 15 L66 15 L68 14 L69 14 L71 14 L72 14 L73 14 L74 16 L75 20 L80 35 L83 46 L84 51 L86 55 L88 57 L92 59 L121 60 L137 57 L149 49 L164 30 L170 18 L173 12 L176 6 L177 4 L178 3 L181 0 L184 0 L187 0 L203 6 L219 19 L230 28 L236 35 L240 41 L242 42 L243 45 L245 48 L246 52 L247 55 L248 57 L249 59 L250 62 L255 66 L270 69 L286 66 L295 60 L299 53 L301 48 L303 42 L306 38 L308 34 L311 29 L313 26 L315 23 L317 20 L318 19 L320 18 L324 17 L328 17 L331 19 L334 20 L336 21 L337 21 L337 22 M18 18 L51 16 L90 14 L158 7 L227 4 L278 4 L304 2 L315 0 L316 0 " fill="none" stroke="black" /></svg>