<?xml version="1.0" encoding="utf-8" ?>
<svg baseProfile="tiny" height="232" version="1.2" viewBox="-3 -3 511 232" width="511" xmlns="http://www.w3.org/2000/svg" xmlns:ev="http://www.w3.org/2001/xml-events" xmlns:xlink="http://www.w3.org/1999/xlink"><defs /><path d="M158 137 L174 126 L400 41 L503 30 L508 30 L504 34 L348 107 L276 142 L262 146 L261 146 L267 137 L395 37 L420 24 L295 36 L114 67 L97 68 L109 68 L213 74 L337 96 L491 135 L511 139 L500 141 L221 165 L58 169 L4 174 L0 175 L43 162 L208 90 L257 69 L259 67 L264 66 L322 74 L329 77 L326 80 L176 143 L132 165 L126 168 L129 164 L215 81 L308 6 L328 1 L336 4 L347 21 L366 48 L375 56 L378 58 L301 33 L131 4 L60 0 L49 4 L52 12 L77 34 L181 88 L253 94 L309 75 L337 52 L341 42 L339 39 L270 80 L187 176 L165 219 L165 230 L166 231 L167 232 L168 232 L169 232 L171 232 L171 231 " fill="none" stroke="black" /></svg>