<?xml version="1.0" encoding="utf-8" ?>
<svg baseProfile="tiny" height="148" version="1.2" viewBox="-3 -3 289 148" width="289" xmlns="http://www.w3.org/2000/svg" xmlns:ev="http://www.w3.org/2001/xml-events" xmlns:xlink="http://www.w3.org/1999/xlink"><defs /><path d="M0 114 L1 114 L1 113 L3 110 L6 102 L12 92 L16 86 L21 80 L24 76 L28 72 L35 67 L41 63 L46 59 L54 55 L61 51 L68 47 L79 42 L90 37 L101 33 L108 30 L116 27 L120 26 L121 25 " fill="none" stroke="black" /><path d="M0 114 L1 114 L1 113 L3 110 L6 102 L12 92 L16 86 L21 80 L24 76 L28 72 L35 67 L41 63 L46 59 L54 55 L61 51 L68 47 L79 42 L90 37 L101 33 L108 30 L116 27 L120 26 L121 25 M0 118 L1 118 L4 119 L31 126 L61 134 L78 138 L89 142 L96 142 L102 142 L115 144 L132 146 L140 147 L147 148 L153 148 L155 148 L156 148 L157 148 " fill="none" stroke="black" /><path d="M0 114 L1 114 L1 113 L3 110 L6 102 L12 92 L16 86 L21 80 L24 76 L28 72 L35 67 L41 63 L46 59 L54 55 L61 51 L68 47 L79 42 L90 37 L101 33 L108 30 L116 27 L120 26 L121 25 M0 118 L1 118 L4 119 L31 126 L61 134 L78 138 L89 142 L96 142 L102 142 L115 144 L132 146 L140 147 L147 148 L153 148 L155 148 L156 148 L157 148 M148 37 L148 36 L149 37 L151 40 L154 46 L158 56 L164 70 L170 87 L174 99 L176 108 L177 115 L177 119 L177 121 L178 122 L180 121 L183 91 L186 52 L186 39 L186 36 L186 35 L186 33 L187 35 L194 47 L205 67 L212 80 L215 87 L217 91 L217 93 L218 95 L218 96 L221 74 L226 19 L227 8 L227 4 L228 1 L228 0 L229 0 L231 3 L254 33 L281 76 L288 87 L289 89 L289 90 " fill="none" stroke="black" /></svg>