<?xml version="1.0" encoding="utf-8" ?>
<svg baseProfile="tiny" height="151" version="1.2" viewBox="-3 -3 182 151" width="182" xmlns="http://www.w3.org/2000/svg" xmlns:ev="http://www.w3.org/2001/xml-events" xmlns:xlink="http://www.w3.org/1999/xlink"><defs /><path d="M65 55 L65 56 L63 57 L61 60 L59 62 L57 65 L55 67 L52 70 L47 73 L45 75 L44 76 L43 79 L43 83 L43 87 L48 94 L52 96 L54 98 L59 98 L72 97 L88 93 L96 88 L99 86 L101 84 L103 76 L103 70 L102 62 L93 49 L83 40 L74 34 L65 31 L59 28 L51 28 L46 28 L41 28 L39 30 L36 35 L30 48 L27 62 L25 73 L24 82 L24 86 L25 93 L30 101 L34 108 L40 114 L55 122 L81 129 L112 134 L141 134 L147 134 L155 132 L166 125 L172 119 L177 112 L182 97 L182 88 L177 75 L162 57 L131 35 L110 23 L90 15 L64 7 L46 3 L33 1 L27 0 L24 0 L21 1 L17 5 L10 19 L4 40 L0 66 L0 76 L0 83 L2 97 L4 105 L7 111 L19 123 L42 136 L72 143 L106 148 L115 151 L119 151 L121 151 " fill="none" stroke="black" /></svg>