<?xml version="1.0" encoding="utf-8" ?>
<svg baseProfile="tiny" height="131" version="1.2" viewBox="-3 -3 784 131" width="784" xmlns="http://www.w3.org/2000/svg" xmlns:ev="http://www.w3.org/2001/xml-events" xmlns:xlink="http://www.w3.org/1999/xlink"><defs /><path d="M0 71 L75 80 L308 84 L488 77 L637 63 L746 49 L775 46 L783 45 L784 45 " fill="none" stroke="black" /><path d="M0 71 L75 80 L308 84 L488 77 L637 63 L746 49 L775 46 L783 45 L784 45 M50 98 L55 50 L58 22 L59 19 L67 33 L86 70 L97 87 L112 100 L167 104 L245 65 L283 36 L285 34 L286 51 L293 102 L294 110 L295 110 L297 89 L292 54 L284 51 L281 72 L291 101 L304 111 L319 97 L325 67 L324 58 L328 56 L354 61 L368 72 L370 75 L370 76 L368 76 L370 63 L372 59 L348 60 L237 114 L231 121 L246 119 L422 41 L444 23 L445 16 L443 12 L439 12 L436 12 L435 14 L436 20 L442 37 L443 48 L444 51 L459 68 L498 89 L501 90 L521 93 L540 95 L544 93 L545 82 L545 72 L545 70 L548 71 L561 79 L569 82 L605 39 L623 3 L624 0 L627 2 L633 15 L644 27 L651 31 L656 31 L661 28 L667 24 L671 23 L688 32 L705 48 L709 52 L714 55 L724 54 L737 39 L739 35 L739 34 L739 37 L739 47 L739 58 L739 61 L743 43 L742 13 L694 28 L613 69 L543 98 L536 100 L535 100 L489 110 L380 131 L344 129 L331 121 L330 120 L328 120 L322 118 L315 117 L311 116 L307 108 L302 61 L300 51 L298 50 L297 50 L295 55 L293 63 L292 68 L291 68 L289 58 L281 21 L280 19 L279 19 L273 30 L262 52 L256 60 L240 64 L212 64 L187 63 L178 64 L175 64 L174 64 L173 64 L171 64 L169 60 L167 58 L166 57 L165 57 L164 61 L164 73 L164 77 L164 78 " fill="none" stroke="black" /></svg>