<?xml version="1.0" encoding="utf-8" ?>
<svg baseProfile="tiny" height="227" version="1.2" viewBox="-3 -3 170 227" width="170" xmlns="http://www.w3.org/2000/svg" xmlns:ev="http://www.w3.org/2001/xml-events" xmlns:xlink="http://www.w3.org/1999/xlink"><defs /><path d="M99 160 L98 165 L96 170 L93 174 L89 181 L86 186 L84 188 L81 191 L78 193 L76 195 L73 198 L71 199 L68 199 L65 199 L62 199 L60 199 L58 196 L54 193 L52 191 L49 187 L48 184 L46 181 L45 177 L43 173 L41 167 L41 162 L40 158 L40 152 L39 147 L39 144 L39 140 L39 133 L39 128 L39 124 L39 119 L39 114 L39 109 L41 104 L43 97 L46 86 L48 79 L49 76 L51 72 L53 70 L56 66 L60 62 L67 58 L72 56 L77 54 L86 51 L90 51 L95 51 L100 51 L102 51 L108 54 L110 55 L115 59 L119 62 L123 68 L128 73 L131 81 L133 87 L135 93 L137 101 L138 107 L139 115 L139 123 L139 130 L139 135 L139 141 L139 148 L139 154 L137 161 L135 166 L132 171 L129 176 L127 181 L124 187 L123 191 L122 193 L120 196 L117 201 L116 204 L113 207 L112 209 L107 213 L104 215 L99 218 L91 222 L89 223 L86 224 L80 225 L77 226 L71 227 L65 227 L60 227 L57 227 L55 227 L52 227 L49 227 L46 227 L43 227 L39 227 L36 226 L31 223 L28 222 L25 220 L22 219 L19 216 L16 214 L13 211 L11 208 L10 205 L7 201 L6 199 L6 196 L5 193 L4 191 L4 188 L2 184 L2 181 L0 173 L0 166 L0 158 L0 148 L0 140 L0 133 L1 119 L2 111 L3 106 L6 94 L8 85 L11 75 L13 66 L17 58 L22 48 L30 36 L38 27 L45 20 L56 13 L75 5 L89 3 L101 0 L116 0 L133 0 L143 2 L155 6 L163 11 L168 15 L170 15 " fill="none" stroke="black" /></svg>