<?xml version="1.0" encoding="utf-8" ?>
<svg baseProfile="tiny" height="215" version="1.2" viewBox="-3 -3 131 215" width="131" xmlns="http://www.w3.org/2000/svg" xmlns:ev="http://www.w3.org/2001/xml-events" xmlns:xlink="http://www.w3.org/1999/xlink"><defs /><path d="M0 108 L0 109 L0 121 L0 132 L0 156 L0 175 L0 184 L0 190 L0 192 L10 157 L46 33 L52 3 L52 0 L53 9 L57 55 L62 106 L63 151 L65 175 L65 185 L65 191 L65 194 L65 195 L65 198 L66 200 L69 207 L70 213 L70 215 L110 91 L128 29 L131 10 L131 6 L131 5 L131 4 " fill="none" stroke="black" /></svg>