<?xml version="1.0" encoding="utf-8" ?>
<svg baseProfile="tiny" height="208" version="1.2" viewBox="-3 -3 205 208" width="205" xmlns="http://www.w3.org/2000/svg" xmlns:ev="http://www.w3.org/2001/xml-events" xmlns:xlink="http://www.w3.org/1999/xlink"><defs /><path d="M3 163 L3 155 L3 141 L1 128 L0 121 L0 116 L0 109 L0 101 L0 92 L4 81 L6 76 L7 73 L11 70 L13 69 L16 69 L17 69 L18 69 L20 69 L22 69 L24 70 L27 76 L29 83 L30 89 L30 96 L30 102 L30 108 L30 116 L30 122 L30 128 L30 134 L30 139 L30 145 L30 151 L30 155 L30 158 L31 160 L34 164 L40 167 L46 167 L54 167 L63 163 L68 159 L75 152 L78 146 L81 140 L82 135 L83 129 L83 123 L83 118 L83 114 L83 108 L82 97 L79 88 L77 81 L76 74 L75 68 L72 61 L71 51 L71 39 L71 31 L71 25 L76 16 L81 11 L84 7 L90 4 L95 4 L100 6 L105 9 L113 17 L120 30 L124 47 L129 64 L129 83 L129 98 L129 108 L129 119 L129 133 L129 142 L129 148 L130 155 L132 161 L136 168 L139 174 L144 183 L148 189 L154 195 L161 200 L165 204 L170 207 L175 208 L181 207 L188 200 L200 177 L204 160 L205 143 L203 123 L201 110 L195 87 L191 73 L188 62 L184 45 L183 30 L182 17 L181 4 L181 0 " fill="none" stroke="black" /></svg>