<?xml version="1.0" encoding="utf-8" ?>
<svg baseProfile="tiny" height="190" version="1.2" viewBox="-3 -3 243 190" width="243" xmlns="http://www.w3.org/2000/svg" xmlns:ev="http://www.w3.org/2001/xml-events" xmlns:xlink="http://www.w3.org/1999/xlink"><defs /><path d="M0 73 L6 82 L10 90 L14 96 L17 102 L23 108 L30 115 L33 122 L38 128 L41 135 L47 144 L52 153 L55 162 L60 172 L62 178 L64 183 L66 185 L67 188 L67 190 L68 190 L71 188 L74 182 L76 172 L78 163 L78 154 L79 146 L79 137 L79 128 L79 119 L77 112 L75 105 L72 95 L69 87 L66 81 L62 73 L59 68 L57 63 L54 58 L50 51 L47 48 L47 45 L47 44 L52 49 L58 52 L65 57 L70 63 L79 75 L86 85 L92 93 L99 102 L105 112 L109 121 L112 129 L115 137 L117 143 L119 149 L121 157 L122 163 L122 167 L123 170 L123 174 L123 177 L124 178 L124 180 L124 181 L125 182 L125 184 L125 186 L126 186 L126 187 L126 189 L129 187 L131 184 L136 175 L140 163 L141 157 L143 149 L144 139 L145 126 L144 114 L142 105 L137 92 L131 78 L125 69 L121 60 L116 53 L112 45 L107 37 L103 32 L101 28 L100 27 L114 39 L126 49 L135 58 L140 65 L147 76 L153 85 L159 95 L167 112 L171 121 L175 131 L178 140 L182 150 L183 156 L185 162 L185 165 L185 170 L185 172 L185 175 L186 178 L186 181 L186 183 L187 186 L187 188 L193 172 L196 153 L197 142 L197 129 L196 111 L193 99 L189 86 L186 73 L184 55 L180 44 L171 25 L158 4 L156 1 L156 0 L157 1 L165 10 L176 21 L189 37 L198 50 L205 61 L214 72 L219 85 L223 97 L226 105 L230 116 L235 127 L238 137 L239 144 L242 156 L242 164 L242 169 L242 173 L242 176 L242 178 L243 180 L243 182 " fill="none" stroke="black" /></svg>