<?xml version="1.0" encoding="utf-8" ?>
<svg baseProfile="tiny" height="535" version="1.2" viewBox="-3 -3 532 535" width="532" xmlns="http://www.w3.org/2000/svg" xmlns:ev="http://www.w3.org/2001/xml-events" xmlns:xlink="http://www.w3.org/1999/xlink"><defs /><path d="M232 201 L216 207 L204 215 L195 234 L194 252 L205 269 L224 282 L244 287 L280 273 L310 234 L320 216 L321 202 L316 186 L301 170 L277 158 L251 155 L224 157 L206 164 L186 179 L168 198 L153 234 L148 266 L148 310 L154 332 L165 355 L183 375 L208 388 L239 392 L284 384 L328 361 L359 334 L389 296 L403 262 L404 230 L400 201 L384 169 L363 146 L340 127 L317 107 L283 90 L254 82 L233 78 L218 78 L185 86 L163 105 L133 140 L106 181 L80 234 L62 283 L53 326 L54 385 L67 420 L82 448 L131 479 L183 494 L247 503 L322 495 L389 478 L433 456 L485 410 L524 355 L532 327 L532 291 L525 252 L508 211 L492 180 L473 152 L447 126 L414 92 L387 68 L359 42 L324 23 L288 10 L268 6 L234 0 L192 1 L168 7 L160 11 " fill="none" stroke="black" /><path d="M232 201 L216 207 L204 215 L195 234 L194 252 L205 269 L224 282 L244 287 L280 273 L310 234 L320 216 L321 202 L316 186 L301 170 L277 158 L251 155 L224 157 L206 164 L186 179 L168 198 L153 234 L148 266 L148 310 L154 332 L165 355 L183 375 L208 388 L239 392 L284 384 L328 361 L359 334 L389 296 L403 262 L404 230 L400 201 L384 169 L363 146 L340 127 L317 107 L283 90 L254 82 L233 78 L218 78 L185 86 L163 105 L133 140 L106 181 L80 234 L62 283 L53 326 L54 385 L67 420 L82 448 L131 479 L183 494 L247 503 L322 495 L389 478 L433 456 L485 410 L524 355 L532 327 L532 291 L525 252 L508 211 L492 180 L473 152 L447 126 L414 92 L387 68 L359 42 L324 23 L288 10 L268 6 L234 0 L192 1 L168 7 L160 11 M156 12 L139 17 L127 23 L113 34 L101 44 L85 63 L63 93 L49 117 L33 152 L14 201 L6 237 L1 279 L0 311 L0 359 L0 390 L3 414 L6 435 L11 458 L19 482 L29 508 L42 524 L47 530 L48 535 " fill="none" stroke="black" /></svg>