<?xml version="1.0" encoding="utf-8" ?>
<svg baseProfile="tiny" height="170" version="1.2" viewBox="-3 -3 227 170" width="227" xmlns="http://www.w3.org/2000/svg" xmlns:ev="http://www.w3.org/2001/xml-events" xmlns:xlink="http://www.w3.org/1999/xlink"><defs /><path d="M4 93 L4 90 L2 77 L1 66 L1 59 L0 54 L0 48 L0 43 L0 37 L3 32 L5 29 L9 27 L14 27 L20 27 L23 29 L28 36 L31 42 L33 49 L33 57 L33 65 L33 70 L33 75 L33 81 L34 84 L35 86 L36 89 L40 92 L43 93 L46 93 L49 93 L52 92 L56 89 L59 85 L61 79 L61 76 L61 73 L61 69 L61 68 L61 66 L61 63 L61 59 L61 53 L60 47 L60 41 L59 36 L59 34 L59 31 L59 26 L59 23 L59 20 L59 17 L60 16 L61 15 L63 12 L67 10 L69 10 L72 10 L73 10 L74 11 L76 12 L79 16 L80 18 L81 21 L81 25 L82 31 L82 36 L82 41 L83 46 L83 51 L83 56 L83 60 L83 66 L83 69 L83 74 L83 80 L83 84 L83 87 L83 89 L83 92 L83 94 L83 98 L83 104 L84 109 L85 115 L86 122 L86 130 L88 136 L90 144 L94 153 L97 159 L104 165 L110 169 L117 170 L120 170 L129 161 L136 147 L139 143 L139 136 L139 128 L140 116 L140 107 L140 100 L140 96 L138 85 L137 71 L136 61 L136 48 L136 35 L140 17 L143 7 L147 2 L150 0 L151 0 L154 0 L158 7 L165 28 L168 50 L168 68 L168 83 L166 94 L163 107 L163 119 L163 129 L163 135 L165 144 L167 151 L178 161 L191 164 L200 164 L207 158 L221 127 L227 97 L227 69 L224 44 L221 16 L220 3 L220 0 " fill="none" stroke="black" /></svg>