<?xml version="1.0" encoding="utf-8" ?>
<svg baseProfile="tiny" height="588" version="1.2" viewBox="-3 -3 311 588" width="311" xmlns="http://www.w3.org/2000/svg" xmlns:ev="http://www.w3.org/2001/xml-events" xmlns:xlink="http://www.w3.org/1999/xlink"><defs /><path d="M0 173 L1 146 L7 101 L8 86 L15 103 L39 231 L43 368 L45 403 L46 413 L46 416 L51 354 L71 202 L94 55 L97 39 L101 49 L129 220 L129 321 L125 378 L125 400 L125 403 L125 404 L127 386 L137 300 L153 193 L160 125 L161 106 L161 102 L178 238 L182 359 L185 454 L186 502 L186 519 L186 522 L197 459 L222 259 L232 120 L237 41 L239 15 L239 13 L239 18 L251 151 L253 325 L253 450 L251 539 L246 574 L244 585 L244 588 L262 473 L284 307 L307 94 L311 30 L311 16 L311 3 L311 0 " fill="none" stroke="black" /></svg>