<?xml version="1.0" encoding="utf-8" ?>
<svg baseProfile="tiny" height="422" version="1.2" viewBox="-3 -3 242 422" width="242" xmlns="http://www.w3.org/2000/svg" xmlns:ev="http://www.w3.org/2001/xml-events" xmlns:xlink="http://www.w3.org/1999/xlink"><defs /><path d="M7 245 L5 236 L2 223 L0 202 L0 187 L2 160 L6 142 L9 134 L12 131 L14 130 L16 130 L25 147 L27 189 L23 224 L17 260 L14 282 L12 315 L14 333 L20 343 L32 354 L41 355 L61 344 L79 311 L84 269 L81 240 L75 211 L70 184 L68 171 L66 155 L66 135 L70 104 L77 81 L84 65 L88 61 L90 58 L94 56 L97 56 L108 74 L116 116 L117 160 L113 196 L108 227 L106 249 L105 288 L105 314 L112 340 L117 353 L128 368 L135 373 L139 375 L152 367 L171 326 L175 294 L173 259 L165 214 L161 182 L155 140 L155 105 L162 53 L173 16 L179 4 L182 0 L185 1 L202 33 L224 90 L239 152 L242 195 L242 240 L239 290 L235 347 L233 382 L233 422 " fill="none" stroke="black" /></svg>