<?xml version="1.0" encoding="utf-8" ?>
<svg baseProfile="tiny" height="314" version="1.2" viewBox="-3 -3 464 314" width="464" xmlns="http://www.w3.org/2000/svg" xmlns:ev="http://www.w3.org/2001/xml-events" xmlns:xlink="http://www.w3.org/1999/xlink"><defs /><path d="M56 126 L47 127 L21 134 L11 142 L1 163 L0 183 L11 212 L32 237 L62 253 L93 255 L127 242 L164 202 L184 154 L187 128 L183 106 L170 86 L150 74 L133 69 L123 68 L117 68 L109 77 L103 114 L110 157 L118 187 L129 225 L133 256 L141 280 L149 293 L170 311 L186 314 L212 304 L239 268 L263 209 L272 170 L275 133 L275 100 L271 74 L263 55 L259 49 L255 45 L250 44 L244 44 L225 72 L221 103 L221 137 L225 167 L237 205 L244 223 L252 240 L262 260 L273 273 L289 284 L302 288 L325 285 L352 259 L368 232 L377 182 L379 130 L379 94 L378 60 L371 29 L363 12 L357 4 L349 0 L343 0 L333 16 L328 50 L328 95 L328 134 L328 161 L334 200 L340 218 L352 243 L365 265 L372 277 L384 287 L402 291 L420 288 L446 244 L455 209 L461 173 L464 129 L462 103 L453 68 L449 57 L449 55 " fill="none" stroke="black" /></svg>