<?xml version="1.0" encoding="utf-8" ?>
<svg baseProfile="tiny" height="355" version="1.2" viewBox="-3 -3 377 355" width="377" xmlns="http://www.w3.org/2000/svg" xmlns:ev="http://www.w3.org/2001/xml-events" xmlns:xlink="http://www.w3.org/1999/xlink"><defs /><path d="M0 321 L3 294 L5 277 L7 256 L10 241 L10 229 L13 216 L15 201 L19 186 L22 172 L25 153 L29 140 L33 127 L38 113 L41 103 L46 94 L53 88 L68 77 L84 70 L95 65 L114 64 L125 65 L130 69 L138 78 L145 90 L152 108 L155 128 L155 150 L155 168 L153 187 L151 213 L150 227 L148 242 L148 263 L148 273 L148 285 L151 301 L156 312 L163 321 L172 328 L180 334 L191 339 L202 339 L212 337 L230 315 L239 291 L241 281 L243 268 L243 250 L243 243 L243 233 L241 216 L239 204 L237 196 L233 182 L229 169 L222 154 L218 145 L209 130 L202 111 L197 100 L191 89 L188 82 L182 70 L178 59 L176 50 L174 39 L175 26 L178 15 L186 6 L197 1 L209 0 L220 4 L229 14 L236 23 L245 34 L256 45 L267 62 L274 77 L277 87 L284 107 L288 123 L290 137 L291 153 L292 166 L292 177 L292 191 L292 207 L289 221 L286 235 L283 248 L276 267 L274 275 L267 292 L260 313 L260 319 L260 328 L262 338 L264 344 L272 350 L281 355 L297 355 L309 348 L318 340 L334 315 L341 296 L344 276 L344 251 L344 227 L344 195 L341 177 L334 146 L332 131 L332 125 L331 117 L331 98 L331 85 L331 78 L332 69 L332 67 L333 65 L335 65 L338 66 L343 71 L351 83 L361 100 L369 121 L374 141 L376 165 L377 194 L377 230 L377 269 L377 282 L377 312 L377 331 L377 350 " fill="none" stroke="black" /></svg>