<?xml version="1.0" encoding="utf-8" ?>
<svg baseProfile="tiny" height="227" version="1.2" viewBox="-3 -3 223 227" width="223" xmlns="http://www.w3.org/2000/svg" xmlns:ev="http://www.w3.org/2001/xml-events" xmlns:xlink="http://www.w3.org/1999/xlink"><defs /><path d="M0 144 L1 131 L2 118 L7 105 L9 101 L12 98 L15 96 L16 96 L18 96 L21 102 L24 124 L24 135 L23 142 L22 149 L21 152 L21 154 L21 156 L21 159 L21 160 L22 162 L26 163 L30 163 L32 163 L39 156 L43 148 L46 138 L46 132 L46 128 L46 123 L46 119 L46 117 L46 112 L46 109 L46 103 L46 95 L46 87 L46 81 L46 79 L46 77 L46 74 L46 72 L48 70 L53 66 L56 64 L57 63 L58 63 L60 63 L63 67 L67 82 L68 99 L68 109 L66 120 L64 134 L64 142 L64 148 L64 152 L64 157 L64 163 L65 170 L72 177 L76 180 L79 180 L81 180 L86 178 L92 168 L95 159 L96 143 L96 130 L96 121 L95 110 L93 93 L93 81 L93 72 L93 56 L96 41 L99 29 L102 20 L104 17 L108 15 L112 15 L118 17 L126 28 L134 47 L137 67 L137 91 L137 109 L135 123 L132 140 L129 152 L129 161 L129 169 L129 180 L129 190 L132 195 L134 200 L136 203 L141 206 L147 206 L155 200 L165 184 L171 166 L174 132 L174 116 L174 90 L174 71 L173 54 L170 39 L170 31 L170 24 L173 14 L179 6 L186 1 L190 0 L193 1 L199 7 L218 51 L222 78 L223 101 L223 121 L223 147 L223 165 L223 184 L223 199 L223 211 L223 218 L222 227 " fill="none" stroke="black" /></svg>