<?xml version="1.0" encoding="utf-8" ?>
<svg baseProfile="tiny" height="151" version="1.2" viewBox="-3 -3 264 151" width="264" xmlns="http://www.w3.org/2000/svg" xmlns:ev="http://www.w3.org/2001/xml-events" xmlns:xlink="http://www.w3.org/1999/xlink"><defs /><path d="M0 138 L8 133 L17 124 L24 115 L28 105 L31 95 L31 91 L31 88 L31 85 L29 81 L26 77 L24 72 L19 66 L16 62 L14 56 L10 50 L9 46 L8 41 L8 38 L8 33 L10 27 L15 19 L31 7 L40 4 L48 3 L55 3 L61 5 L64 7 L66 11 L70 15 L72 21 L74 26 L75 32 L77 39 L77 47 L77 53 L77 58 L77 65 L76 69 L75 74 L73 80 L73 84 L72 87 L71 89 L71 92 L71 95 L71 97 L71 100 L71 103 L71 106 L71 108 L74 113 L77 118 L79 122 L83 126 L88 128 L93 130 L99 130 L104 128 L110 124 L113 119 L117 112 L120 107 L121 101 L122 96 L122 87 L122 81 L122 73 L122 68 L122 63 L121 58 L120 52 L119 43 L119 37 L119 31 L119 24 L119 18 L120 14 L121 10 L122 7 L126 4 L133 1 L139 0 L148 0 L154 0 L158 4 L164 8 L169 15 L172 19 L174 26 L177 33 L177 42 L177 49 L175 57 L173 62 L171 67 L168 72 L166 78 L164 81 L162 85 L160 89 L159 91 L158 93 L158 96 L157 99 L157 102 L157 104 L157 107 L157 110 L157 113 L159 117 L166 124 L173 127 L181 128 L188 128 L193 126 L198 121 L205 110 L210 98 L213 86 L215 68 L216 55 L218 44 L219 36 L220 28 L220 24 L222 22 L228 19 L234 18 L238 19 L243 23 L248 29 L251 37 L255 43 L258 52 L264 75 L262 94 L255 112 L249 126 L242 137 L236 145 L231 151 " fill="none" stroke="black" /></svg>