<?xml version="1.0" encoding="utf-8" ?>
<svg baseProfile="tiny" height="155" version="1.2" viewBox="-3 -3 163 155" width="163" xmlns="http://www.w3.org/2000/svg" xmlns:ev="http://www.w3.org/2001/xml-events" xmlns:xlink="http://www.w3.org/1999/xlink"><defs /><path d="M25 85 L31 89 L55 96 L66 97 L69 97 L71 97 L73 94 L74 89 L74 83 L72 78 L66 72 L59 67 L56 63 L53 61 L50 58 L47 56 L45 55 L42 55 L39 55 L35 55 L33 55 L30 56 L28 60 L27 62 L27 64 L27 70 L27 78 L29 84 L32 89 L37 97 L39 101 L41 104 L44 106 L47 107 L53 107 L58 107 L67 104 L78 99 L85 96 L89 94 L94 90 L100 82 L105 68 L105 56 L104 46 L101 39 L99 34 L90 24 L81 17 L73 12 L66 8 L57 5 L48 2 L39 2 L33 2 L21 5 L8 9 L4 12 L0 14 L0 18 L0 28 L0 41 L3 56 L6 70 L9 80 L13 93 L17 107 L22 119 L27 130 L33 138 L40 144 L51 151 L69 154 L84 155 L102 155 L128 155 L138 155 L147 152 L151 151 L156 140 L160 120 L163 91 L163 67 L163 51 L163 39 L163 23 L162 12 L162 4 L162 1 L162 0 " fill="none" stroke="black" /></svg>