<?xml version="1.0" encoding="utf-8" ?>
<svg baseProfile="tiny" height="658" version="1.2" viewBox="-3 -3 583 658" width="583" xmlns="http://www.w3.org/2000/svg" xmlns:ev="http://www.w3.org/2001/xml-events" xmlns:xlink="http://www.w3.org/1999/xlink"><defs /><path d="M248 314 L247 314 L222 309 L200 322 L189 353 L201 381 L230 401 L263 402 L291 371 L299 329 L292 308 L240 289 L187 301 L149 336 L112 405 L113 452 L131 493 L189 542 L277 549 L352 503 L427 410 L467 307 L461 258 L425 201 L298 136 L226 135 L166 153 L102 212 L58 316 L55 408 L72 502 L127 579 L218 623 L291 627 L369 608 L466 539 L509 478 L543 395 L546 258 L531 166 L508 118 L465 71 L394 19 L332 0 L279 9 L226 34 L157 74 L95 127 L47 200 L22 274 L6 362 L0 428 L3 492 L22 534 L46 572 L100 612 L159 642 L206 654 L257 658 L332 652 L411 632 L458 610 L488 595 L540 532 L558 507 L568 487 L579 449 L583 421 L583 394 L574 366 L553 329 L536 303 L521 288 L502 273 L475 255 L436 241 L407 235 L369 233 L333 235 L312 243 L270 269 L231 315 L215 349 L201 393 L194 441 L198 472 L216 504 L257 536 L294 543 L340 537 L378 507 L413 469 L428 431 L436 385 L434 344 L422 314 L396 293 L361 276 L323 273 L284 286 L253 315 L222 375 L213 415 L214 462 L228 496 L256 527 L293 547 L330 546 L369 520 L435 457 L464 419 L479 388 L478 362 L464 331 L446 311 L409 293 L366 292 L342 299 L321 317 L297 354 L285 386 L283 406 L288 432 L307 457 L331 472 L359 476 L391 467 L407 455 L415 437 L418 417 L410 397 L400 387 L389 384 L366 383 L355 386 L348 394 L340 400 L332 410 " fill="none" stroke="black" /></svg>