<?xml version="1.0" encoding="utf-8" ?>
<svg baseProfile="tiny" height="424" version="1.2" viewBox="-3 -3 393 424" width="393" xmlns="http://www.w3.org/2000/svg" xmlns:ev="http://www.w3.org/2001/xml-events" xmlns:xlink="http://www.w3.org/1999/xlink"><defs /><path d="M0 293 L3 276 L10 248 L16 209 L28 171 L33 152 L34 148 L34 147 L39 162 L47 210 L54 252 L58 287 L65 332 L69 366 L74 386 L77 401 L82 416 L83 422 L83 424 L86 422 L102 387 L111 335 L115 282 L116 255 L118 218 L126 175 L131 134 L136 96 L140 70 L141 64 L141 65 L142 75 L150 112 L160 151 L169 208 L176 255 L185 303 L192 342 L201 376 L207 392 L211 405 L212 409 L212 410 L214 410 L231 380 L247 298 L260 225 L272 170 L289 115 L303 63 L307 37 L308 32 L308 30 L307 33 L306 84 L310 145 L314 199 L317 247 L322 310 L324 345 L329 375 L333 402 L333 408 L333 410 L339 408 L364 330 L371 254 L377 161 L387 50 L391 11 L393 1 L393 0 " fill="none" stroke="black" /></svg>