<?xml version="1.0" encoding="utf-8" ?>
<svg baseProfile="tiny" height="305" version="1.2" viewBox="-3 -3 148 305" width="148" xmlns="http://www.w3.org/2000/svg" xmlns:ev="http://www.w3.org/2001/xml-events" xmlns:xlink="http://www.w3.org/1999/xlink"><defs /><path d="M92 161 L92 156 L92 148 L90 144 L88 141 L85 138 L78 135 L69 135 L62 135 L59 137 L55 140 L51 144 L47 155 L45 162 L45 168 L45 176 L47 184 L50 192 L54 199 L64 208 L77 213 L90 214 L112 207 L126 195 L140 174 L147 150 L148 136 L147 125 L140 110 L120 90 L108 81 L91 71 L70 66 L58 65 L47 65 L36 65 L26 67 L20 72 L13 83 L7 94 L1 113 L0 129 L0 138 L0 148 L0 157 L0 167 L2 173 L4 181 L7 187 L9 192 L12 198 L17 204 L22 210 L27 215 L32 220 L37 223 L40 225 L46 229 L52 232 L59 235 L66 238 L72 239 L77 240 L81 240 L83 240 L84 240 L85 240 L86 239 L89 232 L89 225 L89 218 L89 209 L89 205 L89 202 L87 197 L86 188 L85 181 L85 174 L83 169 L83 162 L81 156 L81 149 L81 136 L81 127 L81 119 L80 112 L80 101 L80 92 L80 84 L80 77 L78 71 L78 62 L78 54 L78 46 L78 39 L78 33 L79 25 L81 19 L82 15 L82 12 L82 9 L82 8 L83 6 L83 4 L86 2 L90 0 L93 0 L96 0 L99 1 L102 5 L108 13 L110 21 L115 35 L117 50 L117 60 L117 73 L117 85 L117 97 L117 109 L117 121 L117 130 L119 145 L120 159 L122 172 L123 188 L124 201 L126 216 L128 232 L130 248 L132 262 L135 282 L136 293 L137 300 L137 303 L137 305 " fill="none" stroke="black" /></svg>