<?xml version="1.0" encoding="utf-8" ?>
<svg baseProfile="tiny" height="127" version="1.2" viewBox="-3 -3 253 127" width="253" xmlns="http://www.w3.org/2000/svg" xmlns:ev="http://www.w3.org/2001/xml-events" xmlns:xlink="http://www.w3.org/1999/xlink"><defs /><path d="M31 8 L24 8 L17 9 L6 19 L1 32 L0 44 L3 56 L6 63 L13 70 L22 72 L34 68 L39 64 L47 51 L53 33 L55 23 L55 16 L55 10 L55 7 L53 4 L52 1 L52 0 L51 0 L39 11 L33 29 L30 44 L30 64 L30 78 L30 88 L32 94 L38 102 L45 106 L54 106 L64 100 L78 82 L84 62 L86 51 L86 43 L85 37 L79 29 L73 24 L68 23 L64 23 L59 23 L51 29 L45 40 L44 50 L45 61 L52 74 L63 84 L80 92 L96 96 L107 96 L118 96 L128 94 L135 88 L142 75 L145 63 L145 55 L145 51 L144 48 L143 45 L136 40 L130 40 L125 40 L118 40 L111 44 L105 48 L96 60 L92 75 L92 81 L92 87 L99 97 L108 106 L123 114 L139 118 L157 116 L172 109 L183 101 L199 83 L206 68 L207 60 L207 55 L207 49 L206 47 L199 44 L189 40 L182 40 L175 42 L172 44 L166 54 L164 67 L164 79 L167 91 L173 102 L184 115 L200 125 L218 127 L234 119 L243 114 L248 108 L251 102 L253 90 L253 79 L253 74 L252 69 " fill="none" stroke="black" /></svg>