<?xml version="1.0" encoding="utf-8" ?>
<svg baseProfile="tiny" height="260" version="1.2" viewBox="-3 -3 441 260" width="441" xmlns="http://www.w3.org/2000/svg" xmlns:ev="http://www.w3.org/2001/xml-events" xmlns:xlink="http://www.w3.org/1999/xlink"><defs /><path d="M0 2 L2 3 L7 6 L12 11 L19 16 L23 20 L26 23 L29 26 L32 29 L35 32 L38 34 L41 38 L43 41 L46 44 L50 48 L53 52 L56 54 L59 57 L65 62 L69 66 L72 69 L75 71 L78 74 L80 77 L84 80 L89 83 L92 88 L97 91 L103 98 L107 104 L111 107 L113 111 L115 113 L119 118 L122 122 L126 127 L129 132 L134 137 L136 140 L140 143 L142 146 L145 149 L148 152 L152 156 L155 160 L157 163 L159 169 L161 175 L164 179 L167 185 L169 191 L172 195 L175 202 L179 209 L182 214 L184 218 L188 223 L190 229 L194 234 L197 239 L202 246 L206 250 L209 254 L210 256 L211 256 L212 256 L216 255 L223 242 L226 232 L227 223 L231 211 L233 202 L236 193 L239 187 L242 178 L245 170 L248 162 L252 155 L255 148 L262 142 L267 135 L274 122 L277 114 L280 108 L285 99 L290 92 L295 81 L298 74 L304 65 L307 59 L312 50 L316 40 L319 34 L322 25 L327 13 L330 4 L331 0 L333 1 L337 16 L340 38 L342 47 L345 56 L349 69 L356 83 L361 96 L365 106 L373 123 L380 138 L383 146 L388 153 L394 167 L398 176 L401 183 L405 192 L408 198 L411 202 L413 208 L415 214 L418 221 L419 224 L419 227 L421 229 L421 230 L423 233 L423 235 L426 237 L428 240 L432 245 L434 248 L436 250 L437 253 L437 254 L438 256 L440 258 L440 259 L441 260 " fill="none" stroke="black" /></svg>