<?xml version="1.0" encoding="utf-8" ?>
<svg baseProfile="tiny" height="90" version="1.2" viewBox="-3 -3 1329 90" width="1329" xmlns="http://www.w3.org/2000/svg" xmlns:ev="http://www.w3.org/2001/xml-events" xmlns:xlink="http://www.w3.org/1999/xlink"><defs /><path d="M0 47 L29 43 L79 37 L114 35 L135 33 L149 33 L171 32 L194 31 L217 29 L241 28 L265 28 L297 27 L323 25 L353 23 L383 21 L413 19 L444 16 L476 15 L516 13 L562 12 L600 11 L648 9 L694 6 L739 5 L789 4 L848 3 L889 3 L925 2 L960 1 L994 0 L1028 0 L1063 0 L1091 0 L1111 0 L1132 0 L1152 1 L1173 3 L1191 3 L1210 3 L1231 4 L1253 6 L1267 6 L1281 7 L1296 8 L1305 8 L1317 9 L1324 9 L1327 9 L1328 9 L1329 9 " fill="none" stroke="black" /><path d="M0 47 L29 43 L79 37 L114 35 L135 33 L149 33 L171 32 L194 31 L217 29 L241 28 L265 28 L297 27 L323 25 L353 23 L383 21 L413 19 L444 16 L476 15 L516 13 L562 12 L600 11 L648 9 L694 6 L739 5 L789 4 L848 3 L889 3 L925 2 L960 1 L994 0 L1028 0 L1063 0 L1091 0 L1111 0 L1132 0 L1152 1 L1173 3 L1191 3 L1210 3 L1231 4 L1253 6 L1267 6 L1281 7 L1296 8 L1305 8 L1317 9 L1324 9 L1327 9 L1328 9 L1329 9 M70 78 L73 78 L76 78 L82 78 L95 78 L128 78 L157 78 L187 78 L221 78 L266 78 L313 78 L379 78 L440 83 L501 86 L562 88 L617 88 L676 88 L751 90 L807 90 L861 90 L900 85 L933 79 L966 73 L1002 68 L1029 64 L1054 61 L1077 58 L1092 57 L1106 57 L1117 57 L1135 57 L1155 57 L1171 57 L1187 57 L1206 57 L1207 57 " fill="none" stroke="black" /></svg>