<?xml version="1.0" encoding="utf-8" ?>
<svg baseProfile="tiny" height="328" version="1.2" viewBox="-3 -3 1108 328" width="1108" xmlns="http://www.w3.org/2000/svg" xmlns:ev="http://www.w3.org/2001/xml-events" xmlns:xlink="http://www.w3.org/1999/xlink"><defs /><path d="M0 149 L3 137 L6 128 L10 118 L21 97 L41 66 L62 41 L94 16 L123 3 L145 0 L163 0 L178 6 L198 24 L227 59 L248 80 L262 98 L276 116 L293 137 L305 149 L315 156 L326 162 L335 165 L347 168 L362 169 L379 166 L405 148 L433 125 L457 104 L477 84 L496 67 L514 48 L547 26 L572 11 L598 6 L631 6 L668 17 L697 31 L735 63 L766 98 L787 125 L807 149 L827 167 L852 179 L883 186 L919 188 L949 186 L975 178 L999 170 L1035 155 L1056 144 L1075 131 L1090 118 L1098 108 L1102 97 L1103 77 L1099 59 L1095 47 L1086 34 L1083 31 L1081 30 L1080 28 L1078 26 L1077 26 " fill="none" stroke="black" /><path d="M0 149 L3 137 L6 128 L10 118 L21 97 L41 66 L62 41 L94 16 L123 3 L145 0 L163 0 L178 6 L198 24 L227 59 L248 80 L262 98 L276 116 L293 137 L305 149 L315 156 L326 162 L335 165 L347 168 L362 169 L379 166 L405 148 L433 125 L457 104 L477 84 L496 67 L514 48 L547 26 L572 11 L598 6 L631 6 L668 17 L697 31 L735 63 L766 98 L787 125 L807 149 L827 167 L852 179 L883 186 L919 188 L949 186 L975 178 L999 170 L1035 155 L1056 144 L1075 131 L1090 118 L1098 108 L1102 97 L1103 77 L1099 59 L1095 47 L1086 34 L1083 31 L1081 30 L1080 28 L1078 26 L1077 26 M89 217 L97 187 L112 161 L131 136 L153 121 L167 117 L178 117 L199 124 L234 147 L263 168 L278 185 L298 213 L318 238 L335 252 L371 268 L413 278 L457 279 L492 270 L516 243 L530 219 L544 197 L558 179 L579 159 L597 146 L614 142 L632 146 L673 172 L713 195 L757 226 L802 258 L835 280 L868 298 L904 309 L951 322 L1012 328 L1046 327 L1068 316 L1082 299 L1093 278 L1102 247 L1105 222 L1106 209 L1107 200 L1107 190 L1108 183 L1108 180 " fill="none" stroke="black" /></svg>