<?xml version="1.0" encoding="utf-8" ?>
<svg baseProfile="tiny" height="159" version="1.2" viewBox="-3 -3 1119 159" width="1119" xmlns="http://www.w3.org/2000/svg" xmlns:ev="http://www.w3.org/2001/xml-events" xmlns:xlink="http://www.w3.org/1999/xlink"><defs /><path d="M11 148 L28 149 L56 151 L90 153 L114 154 L138 157 L160 157 L193 158 L225 158 L251 158 L281 159 L324 159 L351 157 L382 156 L413 155 L441 153 L471 153 L523 151 L557 151 L589 151 L621 151 L652 150 L683 149 L718 149 L750 148 L789 147 L821 146 L855 146 L888 146 L923 144 L948 143 L979 142 L1006 142 L1025 142 L1039 142 L1061 142 L1074 142 L1087 142 L1094 142 L1098 142 " fill="none" stroke="black" /><path d="M11 148 L28 149 L56 151 L90 153 L114 154 L138 157 L160 157 L193 158 L225 158 L251 158 L281 159 L324 159 L351 157 L382 156 L413 155 L441 153 L471 153 L523 151 L557 151 L589 151 L621 151 L652 150 L683 149 L718 149 L750 148 L789 147 L821 146 L855 146 L888 146 L923 144 L948 143 L979 142 L1006 142 L1025 142 L1039 142 L1061 142 L1074 142 L1087 142 L1094 142 L1098 142 M0 130 L1 129 L6 124 L19 112 L38 101 L62 91 L72 90 L82 97 L99 118 L119 132 L141 135 L159 123 L180 108 L200 98 L214 95 L230 104 L267 130 L293 140 L310 136 L328 121 L347 101 L364 90 L378 90 L398 111 L419 127 L433 131 L449 126 L467 110 L502 88 L523 79 L534 81 L546 94 L554 103 L570 103 L599 83 L620 73 L626 70 L635 81 L647 97 L662 104 L687 95 L712 77 L733 63 L745 60 L755 72 L773 89 L797 96 L817 88 L836 78 L843 75 L848 78 L862 89 L875 93 L891 89 L910 77 L925 68 L929 67 L944 83 L965 100 L990 105 L1014 98 L1038 83 L1051 74 L1060 73 L1079 83 L1093 91 L1102 93 L1108 93 L1109 93 " fill="none" stroke="black" /><path d="M11 148 L28 149 L56 151 L90 153 L114 154 L138 157 L160 157 L193 158 L225 158 L251 158 L281 159 L324 159 L351 157 L382 156 L413 155 L441 153 L471 153 L523 151 L557 151 L589 151 L621 151 L652 150 L683 149 L718 149 L750 148 L789 147 L821 146 L855 146 L888 146 L923 144 L948 143 L979 142 L1006 142 L1025 142 L1039 142 L1061 142 L1074 142 L1087 142 L1094 142 L1098 142 M0 130 L1 129 L6 124 L19 112 L38 101 L62 91 L72 90 L82 97 L99 118 L119 132 L141 135 L159 123 L180 108 L200 98 L214 95 L230 104 L267 130 L293 140 L310 136 L328 121 L347 101 L364 90 L378 90 L398 111 L419 127 L433 131 L449 126 L467 110 L502 88 L523 79 L534 81 L546 94 L554 103 L570 103 L599 83 L620 73 L626 70 L635 81 L647 97 L662 104 L687 95 L712 77 L733 63 L745 60 L755 72 L773 89 L797 96 L817 88 L836 78 L843 75 L848 78 L862 89 L875 93 L891 89 L910 77 L925 68 L929 67 L944 83 L965 100 L990 105 L1014 98 L1038 83 L1051 74 L1060 73 L1079 83 L1093 91 L1102 93 L1108 93 L1109 93 M47 40 L124 35 L217 35 L284 35 L337 35 L379 35 L422 35 L488 34 L536 29 L585 23 L635 18 L679 16 L721 14 L760 10 L791 6 L818 5 L851 5 L884 6 L927 5 L963 1 L984 0 L1005 0 L1028 2 L1048 6 L1064 8 L1088 13 L1103 16 L1111 18 L1114 20 L1119 21 L1118 23 " fill="none" stroke="black" /></svg>