<?xml version="1.0" encoding="utf-8" ?>
<svg baseProfile="tiny" height="418" version="1.2" viewBox="-3 -3 1442 418" width="1442" xmlns="http://www.w3.org/2000/svg" xmlns:ev="http://www.w3.org/2001/xml-events" xmlns:xlink="http://www.w3.org/1999/xlink"><defs /><path d="M0 362 L6 356 L12 337 L17 326 L18 325 L23 331 L30 340 L32 343 L33 343 L36 339 L41 337 L44 337 L52 346 L59 352 L66 351 L82 339 L90 339 L98 347 L105 357 L109 360 L120 352 L137 344 L145 343 L152 352 L161 364 L171 368 L186 356 L201 341 L207 340 L216 357 L233 378 L244 381 L263 363 L280 352 L287 351 L293 361 L303 376 L313 376 L332 360 L345 352 L348 352 L358 370 L369 382 L381 377 L404 358 L424 347 L433 346 L438 354 L448 366 L455 367 L469 356 L486 345 L494 343 L500 356 L517 381 L532 384 L553 373 L570 364 L576 363 L583 374 L602 384 L621 381 L639 371 L649 366 L651 366 L663 381 L674 388 L691 384 L713 367 L732 359 L740 358 L765 381 L805 393 L842 390 L871 379 L881 375 L891 378 L918 390 L943 393 L959 390 L971 387 L973 386 L976 389 L982 393 L984 393 L985 393 L991 392 L1001 377 L1011 336 L1064 157 L1096 45 L1112 2 L1115 0 L1136 50 L1209 189 L1296 348 L1323 402 L1329 412 L1329 414 L1329 417 L1330 418 L1330 416 L1332 407 L1334 401 L1335 401 L1336 404 L1344 409 L1353 409 L1370 394 L1388 372 L1391 368 L1398 376 L1409 395 L1412 398 L1413 398 L1414 397 L1417 398 L1425 403 L1431 405 L1437 405 L1438 405 L1441 405 L1442 405 " fill="none" stroke="black" /><path d="M0 362 L6 356 L12 337 L17 326 L18 325 L23 331 L30 340 L32 343 L33 343 L36 339 L41 337 L44 337 L52 346 L59 352 L66 351 L82 339 L90 339 L98 347 L105 357 L109 360 L120 352 L137 344 L145 343 L152 352 L161 364 L171 368 L186 356 L201 341 L207 340 L216 357 L233 378 L244 381 L263 363 L280 352 L287 351 L293 361 L303 376 L313 376 L332 360 L345 352 L348 352 L358 370 L369 382 L381 377 L404 358 L424 347 L433 346 L438 354 L448 366 L455 367 L469 356 L486 345 L494 343 L500 356 L517 381 L532 384 L553 373 L570 364 L576 363 L583 374 L602 384 L621 381 L639 371 L649 366 L651 366 L663 381 L674 388 L691 384 L713 367 L732 359 L740 358 L765 381 L805 393 L842 390 L871 379 L881 375 L891 378 L918 390 L943 393 L959 390 L971 387 L973 386 L976 389 L982 393 L984 393 L985 393 L991 392 L1001 377 L1011 336 L1064 157 L1096 45 L1112 2 L1115 0 L1136 50 L1209 189 L1296 348 L1323 402 L1329 412 L1329 414 L1329 417 L1330 418 L1330 416 L1332 407 L1334 401 L1335 401 L1336 404 L1344 409 L1353 409 L1370 394 L1388 372 L1391 368 L1398 376 L1409 395 L1412 398 L1413 398 L1414 397 L1417 398 L1425 403 L1431 405 L1437 405 L1438 405 L1441 405 L1442 405 M91 105 L98 105 L134 106 L243 115 L416 126 L662 134 L817 135 L950 135 L1057 137 L1150 142 L1216 144 L1295 151 L1333 154 L1368 157 L1400 162 L1404 162 " fill="none" stroke="black" /></svg>