<?xml version="1.0" encoding="utf-8" ?>
<svg baseProfile="tiny" height="144" version="1.2" viewBox="-3 -3 991 144" width="991" xmlns="http://www.w3.org/2000/svg" xmlns:ev="http://www.w3.org/2001/xml-events" xmlns:xlink="http://www.w3.org/1999/xlink"><defs /><path d="M0 93 L4 112 L28 131 L72 131 L87 115 L87 105 L84 104 L82 119 L101 139 L161 144 L221 121 L237 102 L235 96 L231 99 L234 117 L262 136 L293 132 L332 110 L347 92 L347 89 L344 95 L351 122 L368 132 L397 128 L424 108 L430 93 L429 91 L423 104 L434 128 L461 139 L501 130 L527 107 L530 92 L517 90 L513 104 L526 126 L556 137 L588 126 L602 103 L602 99 L602 108 L616 124 L644 130 L693 106 L719 82 L721 76 L723 90 L740 106 L773 104 L796 87 L801 80 L801 79 L803 84 L821 99 L849 104 L874 92 L880 81 L880 80 L879 84 L883 100 L901 108 L927 102 L946 85 L957 66 L959 58 L955 59 L943 86 L954 100 L972 101 L988 83 L991 52 L966 23 L911 13 L876 31 L872 57 L886 70 L894 68 L895 50 L876 33 L847 28 L827 43 L823 61 L824 66 L827 59 L818 41 L785 20 L754 25 L741 51 L742 67 L750 64 L754 50 L745 38 L724 36 L704 49 L702 60 L705 61 L705 54 L679 45 L638 47 L623 66 L623 73 L634 65 L642 42 L631 23 L609 20 L582 42 L575 63 L579 65 L585 55 L576 39 L547 32 L514 46 L502 70 L505 74 L514 66 L510 54 L479 45 L436 49 L405 68 L404 70 L406 67 L406 58 L391 49 L363 50 L350 63 L350 66 L355 65 L359 53 L343 38 L303 24 L271 30 L268 35 L271 40 L279 39 L283 28 L266 16 L262 12 L264 15 L267 15 L271 0 L243 18 L239 28 L240 30 L246 30 L249 21 L245 13 L243 12 L239 14 L234 21 L229 25 " fill="none" stroke="black" /></svg>