<?xml version="1.0" encoding="utf-8" ?>
<svg baseProfile="tiny" height="530" version="1.2" viewBox="-3 -3 1220 530" width="1220" xmlns="http://www.w3.org/2000/svg" xmlns:ev="http://www.w3.org/2001/xml-events" xmlns:xlink="http://www.w3.org/1999/xlink"><defs /><path d="M221 293 L272 300 L326 298 L370 295 L398 297 L415 308 L433 332 L453 364 L455 380 L446 405 L434 427 L420 441 L405 450 L394 456 L388 458 L386 459 L386 464 L392 469 L415 480 L484 505 L547 520 L588 528 L628 524 L662 492 L673 460 L672 412 L651 342 L638 312 L636 302 L636 295 L637 290 L652 289 L703 293 L759 310 L802 329 L847 355 L899 386 L947 413 L989 430 L1023 443 L1055 454 L1092 462 L1134 463 L1175 446 L1206 422 L1217 402 L1220 367 L1217 328 L1201 291 L1180 260 L1158 231 L1130 205 L1120 197 L1112 194 L1096 195 L1075 207 L1059 220 L1049 223 L1039 221 L1008 198 L943 161 L915 141 L901 125 L900 117 L909 108 L944 93 L996 78 L1042 65 L1080 55 L1108 45 L1128 35 L1132 33 L1130 42 L1126 75 L1124 93 L1124 97 L1117 112 L1086 151 L1022 210 L979 280 L934 362 L908 416 L891 459 L874 487 L872 493 L872 487 L867 463 L840 364 L786 245 L749 158 L725 116 L702 90 L689 78 L685 76 L665 93 L648 137 L644 187 L649 240 L660 294 L666 351 L655 396 L650 404 L643 405 L612 402 L564 391 L511 372 L470 351 L455 344 L445 342 L431 348 L415 359 L399 369 L386 373 L372 372 L342 354 L278 301 L228 255 L210 218 L209 174 L241 152 L340 136 L416 110 L440 87 L433 49 L397 17 L353 3 L273 0 L169 8 L68 21 L18 49 L0 79 L6 125 L35 164 L96 223 L228 290 L397 343 L460 364 L499 384 L549 416 L572 433 L575 444 L565 469 L540 498 L517 518 L483 526 L434 529 L390 529 L377 530 L376 530 L375 530 " fill="none" stroke="black" /></svg>