<?xml version="1.0" encoding="utf-8" ?>
<svg baseProfile="tiny" height="225" version="1.2" viewBox="-3 -3 1376 225" width="1376" xmlns="http://www.w3.org/2000/svg" xmlns:ev="http://www.w3.org/2001/xml-events" xmlns:xlink="http://www.w3.org/1999/xlink"><defs /><circle cx="697" cy="93" fill="black" r="1" /><path d="M156 161 L157 161 L170 161 L229 164 L284 167 L331 167 L368 167 L409 167 L452 168 L487 169 L533 169 L593 169 L643 169 L686 169 L736 169 L788 169 L846 169 L902 169 L959 167 L1012 164 L1072 159 L1126 153 L1175 149 L1220 145 L1272 144 L1310 143 L1342 142 L1361 142 L1374 143 L1376 143 " fill="none" stroke="black" /><path d="M156 161 L157 161 L170 161 L229 164 L284 167 L331 167 L368 167 L409 167 L452 168 L487 169 L533 169 L593 169 L643 169 L686 169 L736 169 L788 169 L846 169 L902 169 L959 167 L1012 164 L1072 159 L1126 153 L1175 149 L1220 145 L1272 144 L1310 143 L1342 142 L1361 142 L1374 143 L1376 143 M189 150 L317 150 L526 148 L713 161 L892 174 L1018 177 L1110 175 L1134 170 " fill="none" stroke="black" /><path d="M156 161 L157 161 L170 161 L229 164 L284 167 L331 167 L368 167 L409 167 L452 168 L487 169 L533 169 L593 169 L643 169 L686 169 L736 169 L788 169 L846 169 L902 169 L959 167 L1012 164 L1072 159 L1126 153 L1175 149 L1220 145 L1272 144 L1310 143 L1342 142 L1361 142 L1374 143 L1376 143 M189 150 L317 150 L526 148 L713 161 L892 174 L1018 177 L1110 175 L1134 170 M0 159 L231 160 L474 160 L737 162 L951 145 L1091 123 L1161 110 L1171 108 " fill="none" stroke="black" /><path d="M156 161 L157 161 L170 161 L229 164 L284 167 L331 167 L368 167 L409 167 L452 168 L487 169 L533 169 L593 169 L643 169 L686 169 L736 169 L788 169 L846 169 L902 169 L959 167 L1012 164 L1072 159 L1126 153 L1175 149 L1220 145 L1272 144 L1310 143 L1342 142 L1361 142 L1374 143 L1376 143 M189 150 L317 150 L526 148 L713 161 L892 174 L1018 177 L1110 175 L1134 170 M0 159 L231 160 L474 160 L737 162 L951 145 L1091 123 L1161 110 L1171 108 M421 129 L721 127 L986 128 L1135 127 L1172 126 " fill="none" stroke="black" /><path d="M156 161 L157 161 L170 161 L229 164 L284 167 L331 167 L368 167 L409 167 L452 168 L487 169 L533 169 L593 169 L643 169 L686 169 L736 169 L788 169 L846 169 L902 169 L959 167 L1012 164 L1072 159 L1126 153 L1175 149 L1220 145 L1272 144 L1310 143 L1342 142 L1361 142 L1374 143 L1376 143 M189 150 L317 150 L526 148 L713 161 L892 174 L1018 177 L1110 175 L1134 170 M0 159 L231 160 L474 160 L737 162 L951 145 L1091 123 L1161 110 L1171 108 M421 129 L721 127 L986 128 L1135 127 L1172 126 M198 80 L215 79 L360 67 L633 63 L1091 79 L1298 87 " fill="none" stroke="black" /><path d="M156 161 L157 161 L170 161 L229 164 L284 167 L331 167 L368 167 L409 167 L452 168 L487 169 L533 169 L593 169 L643 169 L686 169 L736 169 L788 169 L846 169 L902 169 L959 167 L1012 164 L1072 159 L1126 153 L1175 149 L1220 145 L1272 144 L1310 143 L1342 142 L1361 142 L1374 143 L1376 143 M189 150 L317 150 L526 148 L713 161 L892 174 L1018 177 L1110 175 L1134 170 M0 159 L231 160 L474 160 L737 162 L951 145 L1091 123 L1161 110 L1171 108 M421 129 L721 127 L986 128 L1135 127 L1172 126 M198 80 L215 79 L360 67 L633 63 L1091 79 L1298 87 M422 58 L428 121 L464 194 L487 218 " fill="none" stroke="black" /><path d="M156 161 L157 161 L170 161 L229 164 L284 167 L331 167 L368 167 L409 167 L452 168 L487 169 L533 169 L593 169 L643 169 L686 169 L736 169 L788 169 L846 169 L902 169 L959 167 L1012 164 L1072 159 L1126 153 L1175 149 L1220 145 L1272 144 L1310 143 L1342 142 L1361 142 L1374 143 L1376 143 M189 150 L317 150 L526 148 L713 161 L892 174 L1018 177 L1110 175 L1134 170 M0 159 L231 160 L474 160 L737 162 L951 145 L1091 123 L1161 110 L1171 108 M421 129 L721 127 L986 128 L1135 127 L1172 126 M198 80 L215 79 L360 67 L633 63 L1091 79 L1298 87 M422 58 L428 121 L464 194 L487 218 M533 126 L561 182 L579 204 L581 204 " fill="none" stroke="black" /><path d="M156 161 L157 161 L170 161 L229 164 L284 167 L331 167 L368 167 L409 167 L452 168 L487 169 L533 169 L593 169 L643 169 L686 169 L736 169 L788 169 L846 169 L902 169 L959 167 L1012 164 L1072 159 L1126 153 L1175 149 L1220 145 L1272 144 L1310 143 L1342 142 L1361 142 L1374 143 L1376 143 M189 150 L317 150 L526 148 L713 161 L892 174 L1018 177 L1110 175 L1134 170 M0 159 L231 160 L474 160 L737 162 L951 145 L1091 123 L1161 110 L1171 108 M421 129 L721 127 L986 128 L1135 127 L1172 126 M198 80 L215 79 L360 67 L633 63 L1091 79 L1298 87 M422 58 L428 121 L464 194 L487 218 M533 126 L561 182 L579 204 L581 204 M680 27 L688 100 L707 149 L717 168 L718 169 " fill="none" stroke="black" /><path d="M156 161 L157 161 L170 161 L229 164 L284 167 L331 167 L368 167 L409 167 L452 168 L487 169 L533 169 L593 169 L643 169 L686 169 L736 169 L788 169 L846 169 L902 169 L959 167 L1012 164 L1072 159 L1126 153 L1175 149 L1220 145 L1272 144 L1310 143 L1342 142 L1361 142 L1374 143 L1376 143 M189 150 L317 150 L526 148 L713 161 L892 174 L1018 177 L1110 175 L1134 170 M0 159 L231 160 L474 160 L737 162 L951 145 L1091 123 L1161 110 L1171 108 M421 129 L721 127 L986 128 L1135 127 L1172 126 M198 80 L215 79 L360 67 L633 63 L1091 79 L1298 87 M422 58 L428 121 L464 194 L487 218 M533 126 L561 182 L579 204 L581 204 M680 27 L688 100 L707 149 L717 168 L718 169 M850 61 L874 127 L900 178 L916 203 " fill="none" stroke="black" /><path d="M156 161 L157 161 L170 161 L229 164 L284 167 L331 167 L368 167 L409 167 L452 168 L487 169 L533 169 L593 169 L643 169 L686 169 L736 169 L788 169 L846 169 L902 169 L959 167 L1012 164 L1072 159 L1126 153 L1175 149 L1220 145 L1272 144 L1310 143 L1342 142 L1361 142 L1374 143 L1376 143 M189 150 L317 150 L526 148 L713 161 L892 174 L1018 177 L1110 175 L1134 170 M0 159 L231 160 L474 160 L737 162 L951 145 L1091 123 L1161 110 L1171 108 M421 129 L721 127 L986 128 L1135 127 L1172 126 M198 80 L215 79 L360 67 L633 63 L1091 79 L1298 87 M422 58 L428 121 L464 194 L487 218 M533 126 L561 182 L579 204 L581 204 M680 27 L688 100 L707 149 L717 168 L718 169 M850 61 L874 127 L900 178 L916 203 M1034 0 L1037 83 L1055 137 L1067 162 L1069 163 " fill="none" stroke="black" /><path d="M156 161 L157 161 L170 161 L229 164 L284 167 L331 167 L368 167 L409 167 L452 168 L487 169 L533 169 L593 169 L643 169 L686 169 L736 169 L788 169 L846 169 L902 169 L959 167 L1012 164 L1072 159 L1126 153 L1175 149 L1220 145 L1272 144 L1310 143 L1342 142 L1361 142 L1374 143 L1376 143 M189 150 L317 150 L526 148 L713 161 L892 174 L1018 177 L1110 175 L1134 170 M0 159 L231 160 L474 160 L737 162 L951 145 L1091 123 L1161 110 L1171 108 M421 129 L721 127 L986 128 L1135 127 L1172 126 M198 80 L215 79 L360 67 L633 63 L1091 79 L1298 87 M422 58 L428 121 L464 194 L487 218 M533 126 L561 182 L579 204 L581 204 M680 27 L688 100 L707 149 L717 168 L718 169 M850 61 L874 127 L900 178 L916 203 M1034 0 L1037 83 L1055 137 L1067 162 L1069 163 M1164 32 L1200 118 L1241 179 L1276 221 L1278 225 " fill="none" stroke="black" /></svg>