<?xml version="1.0" encoding="utf-8" ?>
<svg baseProfile="tiny" height="154" version="1.2" viewBox="-3 -3 1341 154" width="1341" xmlns="http://www.w3.org/2000/svg" xmlns:ev="http://www.w3.org/2001/xml-events" xmlns:xlink="http://www.w3.org/1999/xlink"><defs /><path d="M0 12 L10 22 L22 38 L40 56 L63 76 L82 91 L102 106 L118 118 L125 123 L132 128 L144 136 L156 140 L166 144 L176 147 L188 149 L208 152 L235 153 L254 151 L268 145 L280 137 L297 124 L323 105 L349 86 L366 74 L378 66 L391 57 L401 51 L416 42 L433 36 L446 31 L455 29 L467 26 L478 24 L485 22 L490 22 L496 22 L504 24 L516 28 L529 33 L542 37 L547 41 L551 45 L561 52 L571 58 L578 63 L593 70 L602 75 L609 79 L618 85 L629 90 L637 97 L647 102 L660 110 L683 121 L714 131 L743 139 L784 151 L812 154 L834 154 L853 153 L872 145 L894 128 L916 103 L933 83 L950 61 L967 39 L982 24 L997 15 L1016 9 L1037 4 L1061 1 L1087 0 L1107 0 L1126 0 L1152 6 L1166 12 L1186 21 L1205 31 L1214 37 L1226 45 L1238 55 L1248 62 L1253 67 L1261 73 L1270 81 L1277 85 L1287 90 L1291 92 L1296 93 L1305 95 L1309 95 L1312 96 L1318 96 L1321 96 L1323 96 L1324 96 L1325 96 L1326 96 L1327 95 L1328 93 L1330 93 L1330 92 L1331 91 L1332 89 L1335 83 L1338 77 L1340 69 L1341 63 L1341 61 L1341 58 L1341 56 L1341 54 " fill="none" stroke="black" /></svg>