<?xml version="1.0" encoding="utf-8" ?>
<svg baseProfile="tiny" height="161" version="1.2" viewBox="-3 -3 1187 161" width="1187" xmlns="http://www.w3.org/2000/svg" xmlns:ev="http://www.w3.org/2001/xml-events" xmlns:xlink="http://www.w3.org/1999/xlink"><defs /><path d="M312 109 L339 95 L365 66 L384 49 L389 45 L397 54 L430 90 L455 106 L477 107 L503 90 L528 58 L548 38 L557 34 L573 54 L608 90 L642 110 L664 113 L694 92 L728 52 L744 39 L747 40 L775 67 L813 92 L847 98 L907 78 L954 48 L987 28 L996 24 L1010 44 L1038 75 L1056 85 L1084 84 L1112 73 L1141 59 L1170 48 L1187 47 " fill="none" stroke="black" /><path d="M312 109 L339 95 L365 66 L384 49 L389 45 L397 54 L430 90 L455 106 L477 107 L503 90 L528 58 L548 38 L557 34 L573 54 L608 90 L642 110 L664 113 L694 92 L728 52 L744 39 L747 40 L775 67 L813 92 L847 98 L907 78 L954 48 L987 28 L996 24 L1010 44 L1038 75 L1056 85 L1084 84 L1112 73 L1141 59 L1170 48 L1187 47 M0 124 L23 94 L44 69 L54 60 L62 52 L68 51 L84 58 L134 88 L160 104 L182 121 L201 132 L203 132 L204 132 L211 128 L220 109 L236 84 L247 69 L252 65 L256 65 L282 80 L305 93 L322 98 L330 99 L335 99 L343 99 L357 97 L375 90 L397 74 L412 65 L421 61 L429 60 L451 64 L467 74 L495 100 L517 124 L523 129 L526 128 L548 100 L580 61 L604 37 L619 26 L622 27 L628 37 L646 59 L661 71 L671 75 L679 76 L710 76 L761 76 L794 68 L806 59 L812 51 L817 46 L823 42 L829 41 L840 48 L860 70 L886 92 L906 101 L916 100 L938 77 L968 49 L1007 21 L1045 5 L1071 0 L1082 0 L1086 0 L1093 6 L1113 23 L1139 42 L1170 57 L1181 63 L1183 64 " fill="none" stroke="black" /><path d="M312 109 L339 95 L365 66 L384 49 L389 45 L397 54 L430 90 L455 106 L477 107 L503 90 L528 58 L548 38 L557 34 L573 54 L608 90 L642 110 L664 113 L694 92 L728 52 L744 39 L747 40 L775 67 L813 92 L847 98 L907 78 L954 48 L987 28 L996 24 L1010 44 L1038 75 L1056 85 L1084 84 L1112 73 L1141 59 L1170 48 L1187 47 M0 124 L23 94 L44 69 L54 60 L62 52 L68 51 L84 58 L134 88 L160 104 L182 121 L201 132 L203 132 L204 132 L211 128 L220 109 L236 84 L247 69 L252 65 L256 65 L282 80 L305 93 L322 98 L330 99 L335 99 L343 99 L357 97 L375 90 L397 74 L412 65 L421 61 L429 60 L451 64 L467 74 L495 100 L517 124 L523 129 L526 128 L548 100 L580 61 L604 37 L619 26 L622 27 L628 37 L646 59 L661 71 L671 75 L679 76 L710 76 L761 76 L794 68 L806 59 L812 51 L817 46 L823 42 L829 41 L840 48 L860 70 L886 92 L906 101 L916 100 L938 77 L968 49 L1007 21 L1045 5 L1071 0 L1082 0 L1086 0 L1093 6 L1113 23 L1139 42 L1170 57 L1181 63 L1183 64 M62 128 L72 115 L93 93 L117 70 L134 58 L136 57 L144 62 L182 105 L233 147 L254 161 L258 161 L271 135 L286 86 L294 71 L299 67 L312 71 L343 90 L378 106 L412 104 L433 87 L463 61 L488 47 L506 51 L561 89 L607 112 L649 114 L682 94 L721 59 L752 45 L766 50 L796 86 L823 106 L851 107 L898 77 L947 38 L976 32 L1008 55 L1051 81 L1103 91 L1140 82 L1149 72 " fill="none" stroke="black" /></svg>