<?xml version="1.0" encoding="utf-8" ?>
<svg baseProfile="tiny" height="513" version="1.2" viewBox="-3 -3 1198 513" width="1198" xmlns="http://www.w3.org/2000/svg" xmlns:ev="http://www.w3.org/2001/xml-events" xmlns:xlink="http://www.w3.org/1999/xlink"><defs /><path d="M125 222 L106 220 L71 226 L26 252 L3 282 L0 326 L59 415 L156 479 L271 513 L403 503 L484 461 L543 392 L572 325 L581 265 L575 208 L562 175 L551 158 L540 149 L525 143 L508 142 L483 145 L460 164 L441 192 L433 232 L446 296 L478 366 L535 435 L630 488 L706 500 L765 493 L859 433 L955 315 L1014 162 L1015 83 L998 38 L975 14 L958 3 L939 0 L906 6 L871 26 L842 49 L820 78 L810 114 L809 138 L820 178 L835 218 L854 247 L872 275 L898 305 L924 334 L946 351 L980 365 L1020 381 L1059 391 L1105 396 L1146 385 L1187 339 L1198 287 L1186 240 L1156 197 L1104 159 L1009 114 L933 93 L862 81 L796 80 L744 87 L700 114 L663 176 L649 221 L647 255 L661 299 L677 338 L687 359 L708 406 L740 446 L767 470 L788 481 L829 494 L887 500 L935 487 L953 435 L931 348 L851 243 L756 165 L665 118 L551 87 L475 90 L400 120 L345 165 L307 228 L291 304 L306 349 L345 377 L377 397 L414 410 L461 418 L521 421 L567 409 L607 384 L634 338 L640 295 L624 224 L554 124 L511 87 L454 51 L389 28 L324 14 L243 7 L143 7 L86 28 L38 87 L17 132 L20 175 L54 212 L98 247 L126 268 L161 291 L194 312 L214 323 L237 335 L261 344 L270 348 L273 349 L274 350 L279 352 L282 354 L284 358 L285 362 L286 368 L286 373 L286 376 L286 377 " fill="none" stroke="black" /></svg>