<?xml version="1.0" encoding="utf-8" ?>
<svg baseProfile="tiny" height="111" version="1.2" viewBox="-3 -3 1266 111" width="1266" xmlns="http://www.w3.org/2000/svg" xmlns:ev="http://www.w3.org/2001/xml-events" xmlns:xlink="http://www.w3.org/1999/xlink"><defs /><path d="M149 19 L157 19 L164 19 L172 21 L181 22 L189 24 L201 26 L218 29 L230 30 L237 32 L244 34 L258 36 L274 39 L288 40 L314 40 L334 40 L347 39 L359 36 L370 33 L378 30 L389 27 L401 24 L415 20 L426 17 L438 14 L456 11 L468 8 L472 6 L479 4 L491 4 L499 4 L505 4 L513 5 L520 7 L527 8 L534 11 L541 14 L546 16 L552 18 L556 19 L561 21 L566 23 L576 26 L592 31 L612 36 L623 38 L638 41 L651 43 L675 46 L694 47 L714 48 L737 48 L765 48 L792 48 L813 44 L824 39 L836 36 L850 31 L863 26 L876 19 L895 12 L904 9 L910 7 L922 5 L934 2 L945 0 L960 0 L972 0 L987 1 L1010 5 L1030 7 L1048 14 L1073 21 L1090 25 L1101 29 L1115 33 L1130 37 L1141 39 L1157 42 L1170 43 L1185 43 L1195 43 L1211 41 L1222 38 L1231 36 L1245 30 L1252 27 L1259 23 L1264 19 L1266 17 L1252 6 " fill="none" stroke="black" /><path d="M149 19 L157 19 L164 19 L172 21 L181 22 L189 24 L201 26 L218 29 L230 30 L237 32 L244 34 L258 36 L274 39 L288 40 L314 40 L334 40 L347 39 L359 36 L370 33 L378 30 L389 27 L401 24 L415 20 L426 17 L438 14 L456 11 L468 8 L472 6 L479 4 L491 4 L499 4 L505 4 L513 5 L520 7 L527 8 L534 11 L541 14 L546 16 L552 18 L556 19 L561 21 L566 23 L576 26 L592 31 L612 36 L623 38 L638 41 L651 43 L675 46 L694 47 L714 48 L737 48 L765 48 L792 48 L813 44 L824 39 L836 36 L850 31 L863 26 L876 19 L895 12 L904 9 L910 7 L922 5 L934 2 L945 0 L960 0 L972 0 L987 1 L1010 5 L1030 7 L1048 14 L1073 21 L1090 25 L1101 29 L1115 33 L1130 37 L1141 39 L1157 42 L1170 43 L1185 43 L1195 43 L1211 41 L1222 38 L1231 36 L1245 30 L1252 27 L1259 23 L1264 19 L1266 17 L1252 6 M0 79 L15 79 L42 79 L88 75 L122 73 L151 73 L175 73 L196 74 L217 75 L238 77 L254 80 L268 84 L287 87 L299 88 L309 88 L322 90 L342 90 L357 85 L371 81 L382 77 L398 73 L416 70 L431 65 L445 62 L460 59 L476 59 L499 59 L513 59 L531 62 L555 69 L578 75 L599 79 L623 86 L650 94 L688 104 L721 110 L744 111 L760 111 L792 107 L813 104 L836 98 L852 92 L862 87 L875 84 L891 81 L908 78 L936 74 L969 74 L990 74 L1006 76 L1034 84 L1056 88 L1067 91 L1083 96 L1106 100 L1121 100 L1127 100 L1147 99 L1156 97 " fill="none" stroke="black" /></svg>