<?xml version="1.0" encoding="utf-8" ?>
<svg baseProfile="tiny" height="572" version="1.2" viewBox="-3 -3 1239 572" width="1239" xmlns="http://www.w3.org/2000/svg" xmlns:ev="http://www.w3.org/2001/xml-events" xmlns:xlink="http://www.w3.org/1999/xlink"><defs /><path d="M204 312 L206 342 L220 370 L241 395 L267 418 L305 434 L338 445 L371 449 L403 449 L431 448 L458 438 L484 418 L494 400 L500 376 L501 350 L501 327 L493 310 L480 290 L463 275 L439 261 L405 251 L385 248 L366 250 L351 264 L346 286 L345 311 L352 341 L380 382 L421 431 L480 467 L544 483 L600 483 L642 475 L686 457 L752 382 L781 308 L786 249 L781 202 L763 164 L747 149 L736 148 L707 155 L677 173 L654 196 L636 227 L632 258 L640 294 L657 323 L680 354 L713 394 L739 422 L763 439 L794 449 L828 441 L873 405 L936 344 L966 292 L972 252 L958 202 L942 177 L920 161 L906 155 L878 156 L850 176 L822 219 L816 264 L824 295 L850 328 L880 363 L911 392 L952 416 L989 423 L1034 419 L1091 385 L1136 325 L1150 232 L1136 189 L1108 154 L1075 132 L1042 126 L1010 136 L953 191 L919 261 L914 312 L918 351 L956 408 L986 436 L1040 461 L1087 468 L1132 455 L1182 422 L1221 384 L1239 332 L1225 268 L1145 186 L1020 114 L834 36 L686 9 L589 0 L509 12 L446 63 L394 142 L365 215 L358 268 L373 322 L415 380 L457 417 L498 442 L542 460 L592 468 L655 466 L755 414 L807 348 L815 287 L793 234 L738 182 L620 138 L516 130 L426 150 L331 192 L241 252 L182 324 L164 387 L163 439 L185 480 L215 495 L263 500 L325 502 L379 485 L410 455 L419 420 L418 390 L385 336 L329 280 L265 229 L218 201 L170 188 L121 188 L80 213 L29 278 L0 353 L9 426 L64 483 L117 505 L172 526 L255 560 L337 572 L395 561 L425 539 L436 520 " fill="none" stroke="black" /></svg>