<?xml version="1.0" encoding="utf-8" ?>
<svg baseProfile="tiny" height="114" version="1.2" viewBox="-3 -3 1447 114" width="1447" xmlns="http://www.w3.org/2000/svg" xmlns:ev="http://www.w3.org/2001/xml-events" xmlns:xlink="http://www.w3.org/1999/xlink"><defs /><path d="M0 0 L1 1 L16 4 L69 10 L130 17 L179 21 L215 24 L240 24 L268 24 L303 24 L334 20 L371 18 L416 15 L457 15 L496 14 L543 14 L579 14 L615 14 L652 14 L688 16 L726 18 L775 18 L810 18 L847 18 L883 18 L914 18 L964 18 L995 18 L1020 18 L1044 18 L1071 20 L1096 22 L1132 22 L1161 23 L1187 23 L1214 23 L1237 23 L1259 23 L1283 23 L1300 23 L1314 23 L1330 23 L1345 23 L1358 23 L1372 24 L1386 26 L1398 27 L1410 27 L1419 28 L1427 29 L1436 29 L1444 29 L1447 30 " fill="none" stroke="black" /><path d="M0 0 L1 1 L16 4 L69 10 L130 17 L179 21 L215 24 L240 24 L268 24 L303 24 L334 20 L371 18 L416 15 L457 15 L496 14 L543 14 L579 14 L615 14 L652 14 L688 16 L726 18 L775 18 L810 18 L847 18 L883 18 L914 18 L964 18 L995 18 L1020 18 L1044 18 L1071 20 L1096 22 L1132 22 L1161 23 L1187 23 L1214 23 L1237 23 L1259 23 L1283 23 L1300 23 L1314 23 L1330 23 L1345 23 L1358 23 L1372 24 L1386 26 L1398 27 L1410 27 L1419 28 L1427 29 L1436 29 L1444 29 L1447 30 M15 68 L20 64 L32 59 L49 54 L59 53 L66 53 L76 60 L90 68 L97 71 L108 71 L126 70 L144 66 L161 63 L169 63 L177 64 L187 68 L206 70 L224 70 L250 64 L273 58 L290 56 L296 56 L304 62 L325 72 L361 76 L387 72 L405 68 L422 66 L432 66 L440 71 L470 84 L502 89 L536 88 L564 81 L580 76 L590 75 L604 86 L626 93 L649 94 L673 89 L691 81 L708 74 L719 77 L738 89 L766 99 L799 101 L822 99 L846 94 L875 93 L891 96 L913 104 L942 112 L968 114 L987 113 L1010 113 L1027 113 L1039 113 L1048 113 L1058 113 L1080 113 L1101 113 L1120 114 L1136 113 L1159 113 L1183 113 L1208 110 L1222 106 L1229 104 " fill="none" stroke="black" /></svg>