<?xml version="1.0" encoding="utf-8" ?>
<svg baseProfile="tiny" height="52" version="1.2" viewBox="-3 -3 1125 52" width="1125" xmlns="http://www.w3.org/2000/svg" xmlns:ev="http://www.w3.org/2001/xml-events" xmlns:xlink="http://www.w3.org/1999/xlink"><defs /><path d="M0 27 L2 26 L10 19 L14 19 L19 21 L29 28 L38 33 L49 33 L66 24 L78 21 L93 24 L114 33 L129 34 L137 34 L143 31 L150 31 L158 35 L165 40 L175 41 L192 34 L200 29 L202 29 L207 32 L214 36 L221 36 L231 34 L242 33 L252 36 L260 38 L274 39 L306 36 L337 33 L350 37 L367 43 L390 44 L417 40 L434 34 L447 34 L457 39 L473 42 L493 42 L519 35 L540 33 L554 37 L572 44 L590 45 L606 41 L616 38 L630 39 L635 40 L647 41 L672 38 L690 36 L698 36 L714 43 L729 46 L748 45 L765 40 L783 37 L795 36 L808 38 L819 44 L828 47 L843 48 L867 45 L888 41 L899 41 L916 47 L930 52 L944 52 L966 52 L982 48 L999 46 L1007 45 L1015 45 L1023 47 L1031 48 L1044 48 L1065 44 L1073 44 L1080 45 L1089 48 L1098 49 L1107 49 L1116 49 L1120 49 L1125 49 " fill="none" stroke="black" /><path d="M0 27 L2 26 L10 19 L14 19 L19 21 L29 28 L38 33 L49 33 L66 24 L78 21 L93 24 L114 33 L129 34 L137 34 L143 31 L150 31 L158 35 L165 40 L175 41 L192 34 L200 29 L202 29 L207 32 L214 36 L221 36 L231 34 L242 33 L252 36 L260 38 L274 39 L306 36 L337 33 L350 37 L367 43 L390 44 L417 40 L434 34 L447 34 L457 39 L473 42 L493 42 L519 35 L540 33 L554 37 L572 44 L590 45 L606 41 L616 38 L630 39 L635 40 L647 41 L672 38 L690 36 L698 36 L714 43 L729 46 L748 45 L765 40 L783 37 L795 36 L808 38 L819 44 L828 47 L843 48 L867 45 L888 41 L899 41 L916 47 L930 52 L944 52 L966 52 L982 48 L999 46 L1007 45 L1015 45 L1023 47 L1031 48 L1044 48 L1065 44 L1073 44 L1080 45 L1089 48 L1098 49 L1107 49 L1116 49 L1120 49 L1125 49 M4 0 L19 0 L49 0 L73 0 L98 1 L124 1 L143 1 L165 1 L181 1 L200 2 L214 2 L231 2 L246 2 L262 2 L279 2 L303 2 L329 2 L373 2 L410 3 L443 4 L470 5 L502 6 L537 7 L572 8 L596 8 L618 8 L642 9 L669 9 L695 9 L725 9 L749 8 L775 6 L796 3 L809 2 L825 1 L854 1 L887 1 L919 1 L937 1 L952 1 L978 4 L998 6 L1023 7 L1044 8 L1057 9 L1070 11 L1094 14 L1108 15 L1117 16 L1122 17 L1123 17 " fill="none" stroke="black" /></svg>