<?xml version="1.0" encoding="utf-8" ?>
<svg baseProfile="tiny" height="74" version="1.2" viewBox="-3 -3 1231 74" width="1231" xmlns="http://www.w3.org/2000/svg" xmlns:ev="http://www.w3.org/2001/xml-events" xmlns:xlink="http://www.w3.org/1999/xlink"><defs /><path d="M0 65 L0 66 L0 67 L1 69 L3 70 L6 70 L15 66 L20 62 L20 60 L19 65 L23 72 L40 74 L63 60 L67 33 L60 28 L54 43 L59 63 L81 70 L114 63 L128 47 L127 46 L124 53 L138 63 L170 63 L192 52 L192 49 L187 55 L200 64 L224 62 L229 58 L227 59 L225 64 L227 65 L229 65 L240 51 L255 33 L257 30 L262 43 L276 58 L296 58 L316 40 L319 35 L319 37 L323 49 L330 52 L347 35 L353 28 L353 30 L358 45 L372 51 L389 41 L400 27 L401 27 L410 42 L422 49 L439 44 L452 31 L453 31 L461 47 L480 56 L499 49 L512 38 L514 38 L523 47 L543 50 L559 44 L566 38 L567 39 L585 49 L617 40 L649 14 L660 0 L661 5 L669 30 L693 38 L719 20 L736 5 L740 6 L757 24 L784 33 L812 30 L822 27 L827 27 L840 35 L862 40 L874 40 L878 42 L881 48 L886 51 L888 53 L889 53 L891 50 L893 47 L897 46 L910 45 L919 44 L923 44 L931 43 L937 42 L938 42 L944 48 L957 46 L969 38 L974 36 L986 38 L1009 43 L1047 48 L1075 50 L1095 50 L1103 50 L1111 50 L1118 49 L1127 49 L1137 49 L1152 47 L1171 45 L1179 44 L1185 43 L1190 43 L1193 42 L1195 41 L1199 38 L1202 38 L1204 38 L1211 37 L1220 33 L1225 31 L1229 30 L1230 30 L1231 30 " fill="none" stroke="black" /></svg>