<?xml version="1.0" encoding="utf-8" ?>
<svg baseProfile="tiny" height="101" version="1.2" viewBox="-3 -3 1143 101" width="1143" xmlns="http://www.w3.org/2000/svg" xmlns:ev="http://www.w3.org/2001/xml-events" xmlns:xlink="http://www.w3.org/1999/xlink"><defs /><path d="M0 92 L7 85 L28 72 L49 66 L62 63 L76 61 L98 58 L120 57 L142 57 L161 58 L171 60 L182 62 L196 64 L216 68 L233 72 L252 76 L273 80 L293 83 L318 85 L354 86 L381 86 L406 84 L436 81 L471 75 L509 67 L547 55 L576 49 L603 44 L628 39 L651 36 L675 36 L704 36 L726 44 L746 51 L768 59 L789 66 L810 76 L839 88 L859 92 L876 97 L901 100 L927 101 L949 101 L983 101 L1012 99 L1041 95 L1063 88 L1082 80 L1106 69 L1121 64 L1131 59 L1138 55 L1142 51 L1143 45 L1143 37 L1143 36 L1140 35 L1124 31 L1106 29 L1092 29 L1079 31 L1065 34 L1052 37 L1033 44 L1009 53 L985 64 L964 70 L940 71 L918 69 L903 66 L886 59 L863 47 L837 37 L807 28 L750 15 L713 7 L685 5 L657 1 L619 0 L587 1 L546 9 L514 18 L485 26 L459 30 L439 31 L410 31 L333 20 L279 15 L235 14 L197 11 L170 9 L149 8 L118 11 L93 19 L69 29 L53 37 L41 44 L32 51 L20 59 L17 63 L16 66 L14 68 L13 70 L12 72 L10 77 L10 79 L9 80 L8 81 L7 83 L6 84 L5 85 L3 86 " fill="none" stroke="black" /></svg>