<?xml version="1.0" encoding="utf-8" ?>
<svg baseProfile="tiny" height="430" version="1.2" viewBox="-3 -3 1235 430" width="1235" xmlns="http://www.w3.org/2000/svg" xmlns:ev="http://www.w3.org/2001/xml-events" xmlns:xlink="http://www.w3.org/1999/xlink"><defs /><path d="M0 347 L3 346 L35 314 L72 258 L91 231 L95 227 L98 235 L119 277 L146 303 L166 302 L185 269 L199 234 L210 219 L217 223 L262 299 L322 368 L351 370 L388 319 L425 260 L444 243 L458 272 L511 347 L542 361 L574 337 L605 286 L624 259 L629 266 L650 307 L674 321 L707 294 L744 243 L759 224 L767 250 L784 277 L806 270 L853 216 L888 181 L898 199 L934 303 L973 324 L1013 291 L1057 234 L1076 208 L1077 213 L1091 263 L1108 278 L1119 268 L1134 240 L1145 226 L1146 226 L1147 232 " fill="none" stroke="black" /><path d="M0 347 L3 346 L35 314 L72 258 L91 231 L95 227 L98 235 L119 277 L146 303 L166 302 L185 269 L199 234 L210 219 L217 223 L262 299 L322 368 L351 370 L388 319 L425 260 L444 243 L458 272 L511 347 L542 361 L574 337 L605 286 L624 259 L629 266 L650 307 L674 321 L707 294 L744 243 L759 224 L767 250 L784 277 L806 270 L853 216 L888 181 L898 199 L934 303 L973 324 L1013 291 L1057 234 L1076 208 L1077 213 L1091 263 L1108 278 L1119 268 L1134 240 L1145 226 L1146 226 L1147 232 M44 198 L57 160 L75 116 L87 92 L89 90 L94 107 L126 143 L174 165 L210 148 L257 111 L281 89 L285 87 L305 141 L332 179 L364 179 L403 134 L434 86 L447 73 L452 86 L474 129 L502 155 L523 155 L554 124 L590 89 L611 74 L629 101 L654 137 L674 147 L698 134 L728 105 L761 87 L778 97 L806 129 L835 149 L861 144 L886 123 L917 105 L925 106 L934 122 L949 139 L959 146 L969 135 L1016 66 L1045 36 L1053 49 L1070 108 L1086 136 L1117 133 L1158 93 L1166 80 L1166 85 " fill="none" stroke="black" /><path d="M0 347 L3 346 L35 314 L72 258 L91 231 L95 227 L98 235 L119 277 L146 303 L166 302 L185 269 L199 234 L210 219 L217 223 L262 299 L322 368 L351 370 L388 319 L425 260 L444 243 L458 272 L511 347 L542 361 L574 337 L605 286 L624 259 L629 266 L650 307 L674 321 L707 294 L744 243 L759 224 L767 250 L784 277 L806 270 L853 216 L888 181 L898 199 L934 303 L973 324 L1013 291 L1057 234 L1076 208 L1077 213 L1091 263 L1108 278 L1119 268 L1134 240 L1145 226 L1146 226 L1147 232 M44 198 L57 160 L75 116 L87 92 L89 90 L94 107 L126 143 L174 165 L210 148 L257 111 L281 89 L285 87 L305 141 L332 179 L364 179 L403 134 L434 86 L447 73 L452 86 L474 129 L502 155 L523 155 L554 124 L590 89 L611 74 L629 101 L654 137 L674 147 L698 134 L728 105 L761 87 L778 97 L806 129 L835 149 L861 144 L886 123 L917 105 L925 106 L934 122 L949 139 L959 146 L969 135 L1016 66 L1045 36 L1053 49 L1070 108 L1086 136 L1117 133 L1158 93 L1166 80 L1166 85 M161 0 L245 97 L375 230 L517 380 L558 425 L562 430 L563 422 " fill="none" stroke="black" /><path d="M0 347 L3 346 L35 314 L72 258 L91 231 L95 227 L98 235 L119 277 L146 303 L166 302 L185 269 L199 234 L210 219 L217 223 L262 299 L322 368 L351 370 L388 319 L425 260 L444 243 L458 272 L511 347 L542 361 L574 337 L605 286 L624 259 L629 266 L650 307 L674 321 L707 294 L744 243 L759 224 L767 250 L784 277 L806 270 L853 216 L888 181 L898 199 L934 303 L973 324 L1013 291 L1057 234 L1076 208 L1077 213 L1091 263 L1108 278 L1119 268 L1134 240 L1145 226 L1146 226 L1147 232 M44 198 L57 160 L75 116 L87 92 L89 90 L94 107 L126 143 L174 165 L210 148 L257 111 L281 89 L285 87 L305 141 L332 179 L364 179 L403 134 L434 86 L447 73 L452 86 L474 129 L502 155 L523 155 L554 124 L590 89 L611 74 L629 101 L654 137 L674 147 L698 134 L728 105 L761 87 L778 97 L806 129 L835 149 L861 144 L886 123 L917 105 L925 106 L934 122 L949 139 L959 146 L969 135 L1016 66 L1045 36 L1053 49 L1070 108 L1086 136 L1117 133 L1158 93 L1166 80 L1166 85 M161 0 L245 97 L375 230 L517 380 L558 425 L562 430 L563 422 M503 124 L494 114 L477 91 L467 72 L466 71 L464 81 L440 136 L399 195 L364 244 L338 297 L323 316 L318 322 L316 323 L314 327 L308 337 L304 344 L301 347 L299 351 L296 354 " fill="none" stroke="black" /><path d="M0 347 L3 346 L35 314 L72 258 L91 231 L95 227 L98 235 L119 277 L146 303 L166 302 L185 269 L199 234 L210 219 L217 223 L262 299 L322 368 L351 370 L388 319 L425 260 L444 243 L458 272 L511 347 L542 361 L574 337 L605 286 L624 259 L629 266 L650 307 L674 321 L707 294 L744 243 L759 224 L767 250 L784 277 L806 270 L853 216 L888 181 L898 199 L934 303 L973 324 L1013 291 L1057 234 L1076 208 L1077 213 L1091 263 L1108 278 L1119 268 L1134 240 L1145 226 L1146 226 L1147 232 M44 198 L57 160 L75 116 L87 92 L89 90 L94 107 L126 143 L174 165 L210 148 L257 111 L281 89 L285 87 L305 141 L332 179 L364 179 L403 134 L434 86 L447 73 L452 86 L474 129 L502 155 L523 155 L554 124 L590 89 L611 74 L629 101 L654 137 L674 147 L698 134 L728 105 L761 87 L778 97 L806 129 L835 149 L861 144 L886 123 L917 105 L925 106 L934 122 L949 139 L959 146 L969 135 L1016 66 L1045 36 L1053 49 L1070 108 L1086 136 L1117 133 L1158 93 L1166 80 L1166 85 M161 0 L245 97 L375 230 L517 380 L558 425 L562 430 L563 422 M503 124 L494 114 L477 91 L467 72 L466 71 L464 81 L440 136 L399 195 L364 244 L338 297 L323 316 L318 322 L316 323 L314 327 L308 337 L304 344 L301 347 L299 351 L296 354 M835 27 L916 111 L1077 266 L1225 373 L1235 375 " fill="none" stroke="black" /><path d="M0 347 L3 346 L35 314 L72 258 L91 231 L95 227 L98 235 L119 277 L146 303 L166 302 L185 269 L199 234 L210 219 L217 223 L262 299 L322 368 L351 370 L388 319 L425 260 L444 243 L458 272 L511 347 L542 361 L574 337 L605 286 L624 259 L629 266 L650 307 L674 321 L707 294 L744 243 L759 224 L767 250 L784 277 L806 270 L853 216 L888 181 L898 199 L934 303 L973 324 L1013 291 L1057 234 L1076 208 L1077 213 L1091 263 L1108 278 L1119 268 L1134 240 L1145 226 L1146 226 L1147 232 M44 198 L57 160 L75 116 L87 92 L89 90 L94 107 L126 143 L174 165 L210 148 L257 111 L281 89 L285 87 L305 141 L332 179 L364 179 L403 134 L434 86 L447 73 L452 86 L474 129 L502 155 L523 155 L554 124 L590 89 L611 74 L629 101 L654 137 L674 147 L698 134 L728 105 L761 87 L778 97 L806 129 L835 149 L861 144 L886 123 L917 105 L925 106 L934 122 L949 139 L959 146 L969 135 L1016 66 L1045 36 L1053 49 L1070 108 L1086 136 L1117 133 L1158 93 L1166 80 L1166 85 M161 0 L245 97 L375 230 L517 380 L558 425 L562 430 L563 422 M503 124 L494 114 L477 91 L467 72 L466 71 L464 81 L440 136 L399 195 L364 244 L338 297 L323 316 L318 322 L316 323 L314 327 L308 337 L304 344 L301 347 L299 351 L296 354 M835 27 L916 111 L1077 266 L1225 373 L1235 375 M1104 96 L1041 156 L832 263 L701 344 L661 377 L659 379 " fill="none" stroke="black" /></svg>