<?xml version="1.0" encoding="utf-8" ?>
<svg baseProfile="tiny" height="600" version="1.2" viewBox="-3 -3 1064 600" width="1064" xmlns="http://www.w3.org/2000/svg" xmlns:ev="http://www.w3.org/2001/xml-events" xmlns:xlink="http://www.w3.org/1999/xlink"><defs /><path d="M242 541 L272 523 L297 501 L311 480 L323 444 L330 420 L333 400 L334 374 L330 348 L323 327 L307 301 L293 282 L284 268 L276 256 L265 242 L251 228 L242 220 L234 214 L225 209 L216 204 L204 201 L180 195 L159 190 L128 189 L104 189 L88 189 L75 191 L63 196 L51 202 L41 209 L32 217 L22 229 L10 243 L2 267 L0 288 L5 315 L16 337 L30 358 L46 384 L76 416 L108 444 L142 472 L179 500 L224 532 L286 565 L363 585 L456 598 L547 600 L631 592 L705 552 L781 492 L828 430 L869 349 L891 298 L903 250 L904 206 L890 160 L877 136 L866 122 L848 108 L826 90 L807 76 L787 66 L765 57 L740 52 L724 50 L712 47 L692 47 L665 48 L646 49 L622 51 L598 56 L572 63 L548 74 L528 86 L518 97 L507 108 L497 122 L489 136 L484 149 L481 177 L479 202 L479 229 L485 258 L498 292 L515 323 L547 363 L582 398 L615 428 L656 456 L698 479 L756 511 L815 538 L864 550 L907 553 L950 551 L992 533 L1036 479 L1057 440 L1064 390 L1061 334 L1051 291 L1034 250 L1007 201 L977 166 L942 131 L894 96 L855 74 L792 45 L704 13 L670 6 L641 2 L608 0 L560 0 L516 3 L465 8 L414 14 L370 20 L334 26 L304 33 L278 41 L249 53 L226 66 L203 83 L184 98 L169 113 L156 131 L144 159 L139 182 L141 210 L150 236 L162 258 L181 291 L212 326 L242 351 L274 368 L316 380 L355 382 L402 379 L431 365 L455 349 L474 332 L490 313 L496 298 L500 279 L502 263 L502 254 L502 245 L502 242 " fill="none" stroke="black" /></svg>