<?xml version="1.0" encoding="utf-8" ?>
<svg baseProfile="tiny" height="562" version="1.2" viewBox="-3 -3 1212 562" width="1212" xmlns="http://www.w3.org/2000/svg" xmlns:ev="http://www.w3.org/2001/xml-events" xmlns:xlink="http://www.w3.org/1999/xlink"><defs /><path d="M187 4 L183 6 L182 6 L179 8 L173 13 L165 23 L152 43 L145 56 L143 70 L143 78 L144 84 L146 89 L149 91 L149 92 L151 93 L154 97 L157 100 L159 102 L163 106 L170 111 L180 118 L187 125 L196 135 L201 145 L203 156 L203 171 L198 190 L191 198 L182 205 L175 209 L164 215 L156 224 L147 237 L145 252 L145 266 L148 280 L157 294 L165 305 L177 319 L187 332 L196 346 L201 359 L202 377 L200 393 L192 416 L185 430 L177 441 L170 452 L164 462 L161 474 L161 484 L165 494 L172 502 L182 513 L193 525 L202 531 L205 533 L209 538 " fill="none" stroke="black" /><path d="M187 4 L183 6 L182 6 L179 8 L173 13 L165 23 L152 43 L145 56 L143 70 L143 78 L144 84 L146 89 L149 91 L149 92 L151 93 L154 97 L157 100 L159 102 L163 106 L170 111 L180 118 L187 125 L196 135 L201 145 L203 156 L203 171 L198 190 L191 198 L182 205 L175 209 L164 215 L156 224 L147 237 L145 252 L145 266 L148 280 L157 294 L165 305 L177 319 L187 332 L196 346 L201 359 L202 377 L200 393 L192 416 L185 430 L177 441 L170 452 L164 462 L161 474 L161 484 L165 494 L172 502 L182 513 L193 525 L202 531 L205 533 L209 538 M355 0 L318 27 L281 76 L272 113 L284 156 L341 218 L413 276 L444 315 L456 352 L456 378 L438 410 L427 431 L422 444 L419 459 L419 480 L439 514 L472 545 L507 562 L526 558 " fill="none" stroke="black" /><path d="M187 4 L183 6 L182 6 L179 8 L173 13 L165 23 L152 43 L145 56 L143 70 L143 78 L144 84 L146 89 L149 91 L149 92 L151 93 L154 97 L157 100 L159 102 L163 106 L170 111 L180 118 L187 125 L196 135 L201 145 L203 156 L203 171 L198 190 L191 198 L182 205 L175 209 L164 215 L156 224 L147 237 L145 252 L145 266 L148 280 L157 294 L165 305 L177 319 L187 332 L196 346 L201 359 L202 377 L200 393 L192 416 L185 430 L177 441 L170 452 L164 462 L161 474 L161 484 L165 494 L172 502 L182 513 L193 525 L202 531 L205 533 L209 538 M355 0 L318 27 L281 76 L272 113 L284 156 L341 218 L413 276 L444 315 L456 352 L456 378 L438 410 L427 431 L422 444 L419 459 L419 480 L439 514 L472 545 L507 562 L526 558 M667 31 L579 86 L537 136 L533 176 L604 255 L706 326 L746 361 L746 383 L727 413 L714 455 L708 494 L705 513 L698 522 L686 530 " fill="none" stroke="black" /><path d="M187 4 L183 6 L182 6 L179 8 L173 13 L165 23 L152 43 L145 56 L143 70 L143 78 L144 84 L146 89 L149 91 L149 92 L151 93 L154 97 L157 100 L159 102 L163 106 L170 111 L180 118 L187 125 L196 135 L201 145 L203 156 L203 171 L198 190 L191 198 L182 205 L175 209 L164 215 L156 224 L147 237 L145 252 L145 266 L148 280 L157 294 L165 305 L177 319 L187 332 L196 346 L201 359 L202 377 L200 393 L192 416 L185 430 L177 441 L170 452 L164 462 L161 474 L161 484 L165 494 L172 502 L182 513 L193 525 L202 531 L205 533 L209 538 M355 0 L318 27 L281 76 L272 113 L284 156 L341 218 L413 276 L444 315 L456 352 L456 378 L438 410 L427 431 L422 444 L419 459 L419 480 L439 514 L472 545 L507 562 L526 558 M667 31 L579 86 L537 136 L533 176 L604 255 L706 326 L746 361 L746 383 L727 413 L714 455 L708 494 L705 513 L698 522 L686 530 M962 12 L914 55 L898 80 L903 118 L946 172 L984 213 L999 241 L983 282 L965 309 L960 338 L985 379 L1019 422 L1051 468 L1062 492 L1064 508 L1059 517 L1050 521 L1018 517 " fill="none" stroke="black" /><path d="M187 4 L183 6 L182 6 L179 8 L173 13 L165 23 L152 43 L145 56 L143 70 L143 78 L144 84 L146 89 L149 91 L149 92 L151 93 L154 97 L157 100 L159 102 L163 106 L170 111 L180 118 L187 125 L196 135 L201 145 L203 156 L203 171 L198 190 L191 198 L182 205 L175 209 L164 215 L156 224 L147 237 L145 252 L145 266 L148 280 L157 294 L165 305 L177 319 L187 332 L196 346 L201 359 L202 377 L200 393 L192 416 L185 430 L177 441 L170 452 L164 462 L161 474 L161 484 L165 494 L172 502 L182 513 L193 525 L202 531 L205 533 L209 538 M355 0 L318 27 L281 76 L272 113 L284 156 L341 218 L413 276 L444 315 L456 352 L456 378 L438 410 L427 431 L422 444 L419 459 L419 480 L439 514 L472 545 L507 562 L526 558 M667 31 L579 86 L537 136 L533 176 L604 255 L706 326 L746 361 L746 383 L727 413 L714 455 L708 494 L705 513 L698 522 L686 530 M962 12 L914 55 L898 80 L903 118 L946 172 L984 213 L999 241 L983 282 L965 309 L960 338 L985 379 L1019 422 L1051 468 L1062 492 L1064 508 L1059 517 L1050 521 L1018 517 M0 274 L71 241 L211 182 L311 159 L363 162 L392 178 L437 221 L509 266 L632 283 L746 283 L821 271 L894 233 L949 225 L966 234 L998 267 L1041 292 L1091 300 L1145 293 L1187 282 L1206 276 L1212 268 " fill="none" stroke="black" /></svg>