<?xml version="1.0" encoding="utf-8" ?>
<svg baseProfile="tiny" height="65" version="1.2" viewBox="-3 -3 1094 65" width="1094" xmlns="http://www.w3.org/2000/svg" xmlns:ev="http://www.w3.org/2001/xml-events" xmlns:xlink="http://www.w3.org/1999/xlink"><defs /><path d="M282 64 L295 57 L303 53 L308 56 L319 65 L341 65 L360 52 L372 44 L378 45 L390 51 L414 53 L429 49 L437 47 L448 52 L462 57 L476 57 L489 49 L497 47 L509 50 L519 51 L529 50 L541 46 L546 46 L556 55 L568 58 L581 49 L592 39 L598 39 L616 50 L629 52 L641 47 L645 46 L652 48 L663 53 L680 51 L693 45 L700 44 L706 48 L720 53 L743 54 L773 43 L789 38 L794 38 L805 45 L817 48 L837 41 L852 36 L865 36 L881 44 L899 47 L914 46 L926 39 L940 34 L951 34 L962 40 L975 45 L990 45 L1011 41 L1022 41 L1041 46 L1064 52 L1072 54 L1079 55 L1089 55 L1094 54 " fill="none" stroke="black" /><path d="M282 64 L295 57 L303 53 L308 56 L319 65 L341 65 L360 52 L372 44 L378 45 L390 51 L414 53 L429 49 L437 47 L448 52 L462 57 L476 57 L489 49 L497 47 L509 50 L519 51 L529 50 L541 46 L546 46 L556 55 L568 58 L581 49 L592 39 L598 39 L616 50 L629 52 L641 47 L645 46 L652 48 L663 53 L680 51 L693 45 L700 44 L706 48 L720 53 L743 54 L773 43 L789 38 L794 38 L805 45 L817 48 L837 41 L852 36 L865 36 L881 44 L899 47 L914 46 L926 39 L940 34 L951 34 L962 40 L975 45 L990 45 L1011 41 L1022 41 L1041 46 L1064 52 L1072 54 L1079 55 L1089 55 L1094 54 M0 35 L17 26 L36 16 L46 16 L50 19 L55 20 L58 19 L59 17 L68 26 L78 29 L91 26 L97 19 L97 18 L100 22 L109 26 L123 23 L135 16 L137 15 L144 23 L159 29 L173 26 L180 22 L187 23 L207 29 L220 30 L237 27 L258 25 L271 26 L284 28 L297 22 L310 14 L312 13 L317 21 L326 25 L338 19 L345 9 L350 5 L355 10 L367 16 L379 15 L394 5 L407 0 L412 2 L437 20 L458 23 L474 15 L483 8 L489 6 L499 12 L515 20 L525 20 L542 11 L557 5 L570 10 L588 23 L605 25 L621 22 L635 17 L646 17 L668 28 L692 33 L714 26 L726 19 L736 18 L750 22 L763 28 L778 29 L800 19 L818 13 L828 12 L846 16 L868 17 L880 13 L891 7 L895 8 L904 16 L921 23 L944 24 L972 18 L993 17 L1011 17 L1035 17 L1059 15 L1067 11 L1068 11 " fill="none" stroke="black" /></svg>