<?xml version="1.0" encoding="utf-8" ?>
<svg baseProfile="tiny" height="197" version="1.2" viewBox="-3 -3 319 197" width="319" xmlns="http://www.w3.org/2000/svg" xmlns:ev="http://www.w3.org/2001/xml-events" xmlns:xlink="http://www.w3.org/1999/xlink"><defs /><path d="M160 90 L168 78 L169 77 L169 78 L167 89 L166 95 L175 89 L192 67 L202 51 L188 72 L178 92 L179 94 L194 78 L210 56 L212 53 L199 69 L193 82 L197 84 L213 73 L220 65 L216 69 L197 95 L194 104 L205 100 L229 77 L237 69 L224 79 L190 112 L170 129 L168 131 L171 128 L175 120 L173 121 L155 130 L147 133 L149 127 L158 112 L159 108 L124 122 L108 132 L109 131 L138 111 L161 89 L155 86 L76 119 L63 128 L78 123 L116 99 L127 87 L106 87 L56 99 L54 98 L74 82 L100 57 L109 37 L115 24 L117 21 L116 25 L108 36 L106 39 L111 32 L118 25 L118 26 L119 27 L127 21 L154 3 L159 0 L154 8 L137 32 L132 42 L135 44 L165 21 L181 10 L170 20 L161 32 L167 31 L190 16 L203 8 L202 11 L185 34 L182 42 L187 39 L221 17 L223 16 L223 19 L219 31 L220 34 L243 26 L257 18 L254 24 L236 46 L234 53 L253 48 L298 23 L319 12 L294 37 L214 107 L192 132 L196 134 L226 125 L236 120 L225 133 L203 156 L201 160 L211 154 L219 150 L216 154 L184 175 L167 186 L165 186 L167 184 L162 182 L111 192 L83 197 L82 196 L111 182 L134 172 L130 173 L88 187 L54 194 L51 193 L68 176 L84 158 L85 156 L36 171 L0 186 L2 184 L51 158 L86 140 L87 139 L70 141 L68 141 L74 128 L82 116 L83 112 L79 111 L64 113 L54 115 L58 109 L81 91 L87 82 L71 83 L40 92 L34 94 L51 80 L88 49 L106 27 L104 24 L96 24 L97 20 " fill="none" stroke="black" /></svg>