<?xml version="1.0" encoding="utf-8" ?>
<svg baseProfile="tiny" height="202" version="1.2" viewBox="-3 -3 871 202" width="871" xmlns="http://www.w3.org/2000/svg" xmlns:ev="http://www.w3.org/2001/xml-events" xmlns:xlink="http://www.w3.org/1999/xlink"><defs /><path d="M0 67 L8 83 L18 91 L33 96 L43 96 L57 95 L80 85 L104 69 L122 50 L134 24 L137 13 L138 8 L138 2 " fill="none" stroke="black" /><path d="M0 67 L8 83 L18 91 L33 96 L43 96 L57 95 L80 85 L104 69 L122 50 L134 24 L137 13 L138 8 L138 2 M138 0 L137 4 L137 9 L136 18 L135 30 L135 45 L136 59 L141 74 L147 86 L150 90 L157 93 L174 91 L187 86 L199 82 L205 77 L213 71 L225 62 L244 47 L253 36 L259 24 L262 17 L263 13 L263 12 L264 9 L264 8 L262 10 L261 11 L260 13 L258 15 L257 18 L255 23 L251 30 L248 41 L244 57 L242 70 L243 85 L246 93 L249 98 L252 101 L256 101 L267 103 L283 102 L303 99 L321 92 L339 84 L358 68 L372 51 L382 35 L390 23 L393 15 L393 18 L391 31 L387 50 L384 65 L380 84 L380 98 L379 110 L382 120 L387 128 L394 131 L410 132 L432 128 L456 123 L487 110 L508 95 L521 78 L531 60 L535 51 L537 43 L538 37 L540 34 L540 30 L540 29 L540 30 L539 37 L538 43 L537 50 L533 63 L530 81 L526 99 L525 112 L526 124 L531 131 L536 135 L541 139 L551 143 L565 147 L586 145 L603 134 L622 112 L640 85 L652 62 L657 50 L658 44 L658 43 L658 42 L659 42 L659 43 L659 52 L657 63 L654 78 L653 90 L651 101 L649 116 L647 128 L646 144 L648 156 L653 168 L660 178 L671 189 L684 194 L703 194 L722 189 L741 177 L765 161 L784 137 L791 118 L794 99 L796 84 L796 80 L795 87 L791 101 L787 123 L782 143 L780 155 L780 163 L782 173 L789 181 L803 190 L824 199 L842 202 L855 198 L863 188 L867 171 L870 155 L870 138 L871 125 " fill="none" stroke="black" /></svg>