<?xml version="1.0" encoding="utf-8" ?>
<svg baseProfile="tiny" height="114" version="1.2" viewBox="-3 -3 652 114" width="652" xmlns="http://www.w3.org/2000/svg" xmlns:ev="http://www.w3.org/2001/xml-events" xmlns:xlink="http://www.w3.org/1999/xlink"><defs /><path d="M36 42 L32 47 L27 52 L22 61 L16 72 L8 88 L3 97 L0 105 L3 101 L16 82 L39 52 L67 25 L85 11 L96 2 L101 0 L105 0 L108 0 L110 4 L110 15 L107 32 L97 52 L83 72 L79 79 L78 81 L78 83 L82 84 L98 83 L135 71 L179 53 L224 31 L235 23 L236 21 L236 20 L235 19 L232 19 L222 22 L202 33 L172 51 L155 62 L147 68 L147 73 L147 78 L147 84 L147 91 L147 95 L150 97 L160 97 L180 94 L219 85 L258 76 L287 70 L304 70 L310 70 L302 70 L274 76 L234 85 L189 91 L156 94 L139 96 L120 99 L111 99 L117 99 L136 100 L156 100 L172 100 L201 102 L234 104 L265 104 L289 104 L310 102 L334 97 L355 94 L367 90 L373 89 L374 89 L372 92 L370 97 L370 99 L370 100 L370 102 L372 104 L375 104 L380 105 L390 104 L411 101 L441 93 L463 85 L474 79 L482 74 L490 71 L495 68 L496 68 L497 68 L497 71 L495 81 L485 101 L482 110 L482 112 L482 113 L482 114 L483 114 L492 113 L513 105 L540 92 L563 84 L578 77 L586 73 L591 71 L593 69 L594 69 L595 74 L595 82 L595 90 L595 94 L595 95 L596 96 L598 98 L603 98 L612 98 L624 95 L636 89 L647 81 L651 75 L652 73 " fill="none" stroke="black" /></svg>