<?xml version="1.0" encoding="utf-8" ?>
<svg baseProfile="tiny" height="112" version="1.2" viewBox="-3 -3 381 112" width="381" xmlns="http://www.w3.org/2000/svg" xmlns:ev="http://www.w3.org/2001/xml-events" xmlns:xlink="http://www.w3.org/1999/xlink"><defs /><path d="M1 80 L0 82 L0 86 L0 91 L5 101 L13 107 L23 111 L33 112 L40 112 L45 108 L54 98 L62 86 L68 77 L72 64 L74 48 L74 29 L74 16 L74 6 L74 4 L73 4 L67 18 L57 41 L47 72 L44 97 L45 106 L46 107 L50 101 L65 67 L79 34 L91 8 L94 2 L87 26 L74 61 L66 86 L65 89 L70 81 L87 47 L108 11 L116 0 L116 8 L97 50 L86 80 L85 86 L101 67 L124 34 L137 15 L139 14 L119 45 L100 84 L97 92 L109 78 L127 41 L140 15 L142 13 L134 28 L112 73 L109 83 L114 78 L137 46 L155 15 L157 13 L141 39 L124 71 L123 77 L127 71 L145 45 L160 22 L162 21 L141 53 L118 93 L116 98 L126 89 L150 55 L167 30 L166 31 L144 63 L133 84 L133 86 L148 67 L168 39 L170 36 L165 48 L153 70 L152 77 L156 72 L182 35 L196 17 L196 18 L177 48 L166 71 L166 74 L179 55 L198 29 L202 24 L201 27 L187 48 L177 67 L176 69 L188 54 L214 24 L231 12 L230 17 L206 48 L187 75 L187 76 L210 56 L237 28 L249 13 L247 16 L212 55 L197 77 L200 76 L231 53 L258 30 L265 24 L257 34 L239 54 L236 58 L241 57 L258 44 L270 34 L267 41 L247 63 L239 75 L241 75 L262 59 L276 48 L272 56 L252 79 L250 86 L272 72 L316 39 L330 29 L300 56 L270 83 L269 84 L292 66 L314 48 L315 47 L270 87 L257 100 L260 100 L293 77 L320 58 L323 57 L305 82 L295 97 L308 96 L348 71 L381 38 " fill="none" stroke="black" /></svg>