<?xml version="1.0" encoding="utf-8" ?>
<svg baseProfile="tiny" height="185" version="1.2" viewBox="-3 -3 940 185" width="940" xmlns="http://www.w3.org/2000/svg" xmlns:ev="http://www.w3.org/2001/xml-events" xmlns:xlink="http://www.w3.org/1999/xlink"><defs /><path d="M15 83 L6 100 L0 116 L10 130 L35 131 L67 120 L91 91 L106 55 L110 24 L107 12 L99 17 L81 41 L56 81 L48 121 L73 152 L106 160 L152 151 L181 130 L195 97 L196 63 L183 28 L170 21 L158 30 L143 57 L127 108 L132 136 L174 155 L219 148 L260 125 L293 92 L303 52 L301 19 L287 5 L258 7 L233 28 L215 59 L214 87 L234 109 L270 120 L304 119 L315 111 L326 90 L333 57 L333 28 L328 20 L311 27 L291 53 L272 88 L267 128 L288 156 L338 160 L381 144 L411 118 L431 85 L439 54 L436 33 L428 25 L406 31 L386 55 L369 89 L367 117 L383 135 L412 144 L450 137 L483 115 L511 83 L526 47 L525 19 L512 10 L485 15 L461 38 L456 56 L464 86 L492 105 L532 111 L580 109 L618 95 L651 70 L669 38 L669 10 L652 0 L621 16 L586 58 L569 118 L585 155 L619 165 L654 164 L687 142 L713 108 L732 68 L736 31 L728 16 L706 18 L675 46 L664 76 L671 108 L703 132 L748 140 L791 134 L821 116 L838 87 L841 56 L833 39 L823 37 L790 59 L763 102 L755 144 L780 174 L825 185 L860 178 L881 162 L890 132 L888 102 L882 74 L865 56 L846 55 L827 71 L814 105 L819 128 L840 138 L875 142 L909 136 L931 115 L935 97 L933 73 L928 59 L922 51 L912 54 L902 73 L903 92 L909 97 L921 98 L930 91 L936 73 L940 55 L938 42 " fill="none" stroke="black" /></svg>