<?xml version="1.0" encoding="utf-8" ?>
<svg baseProfile="tiny" height="129" version="1.2" viewBox="-3 -3 201 129" width="201" xmlns="http://www.w3.org/2000/svg" xmlns:ev="http://www.w3.org/2001/xml-events" xmlns:xlink="http://www.w3.org/1999/xlink"><defs /><path d="M0 129 L8 101 L15 80 L23 61 L28 51 L30 46 L30 52 L26 75 L19 104 L17 111 L17 112 L20 102 L30 65 L40 32 L48 14 L50 11 L51 11 L51 24 L51 49 L51 78 L49 96 L49 99 L49 97 L54 80 L65 38 L73 14 L75 7 L76 8 L75 20 L71 47 L64 92 L63 107 L64 103 L71 75 L78 52 L87 28 L89 23 L89 26 L91 43 L91 72 L91 81 L91 82 L93 75 L96 59 L103 28 L103 20 L103 21 L105 31 L105 45 L105 59 L105 64 L107 57 L111 38 L114 26 L117 19 L119 23 L122 36 L122 43 L123 55 L124 57 L126 53 L130 38 L134 21 L137 13 L139 21 L141 34 L141 48 L142 49 L145 39 L147 32 L148 27 L149 26 L149 28 L150 31 L151 37 L152 43 L152 44 L154 40 L156 31 L160 19 L162 16 L163 24 L165 41 L166 54 L166 55 L168 50 L172 35 L176 18 L177 13 L178 13 L179 17 L180 24 L182 31 L182 29 L184 21 L186 11 L187 3 L187 2 L189 8 L192 17 L194 22 L196 20 L199 11 L201 1 L201 0 L201 2 L201 7 " fill="none" stroke="black" /></svg>