<?xml version="1.0" encoding="utf-8" ?>
<svg baseProfile="tiny" height="203" version="1.2" viewBox="-3 -3 657 203" width="657" xmlns="http://www.w3.org/2000/svg" xmlns:ev="http://www.w3.org/2001/xml-events" xmlns:xlink="http://www.w3.org/1999/xlink"><defs /><path d="M128 72 L143 67 L235 40 L343 13 L386 2 L398 0 L373 5 L237 35 L155 71 L156 83 L270 80 L466 43 L583 18 L575 18 L393 54 L159 120 L150 134 L293 121 L544 67 L648 38 L561 50 L286 99 L135 146 L153 153 L376 118 L573 78 L604 67 L410 101 L197 156 L172 172 L279 161 L526 108 L591 88 L464 98 L217 137 L143 150 L153 150 L336 111 L492 67 L478 64 L274 88 L100 127 L85 137 L205 125 L424 79 L461 69 L350 82 L94 127 L0 159 L31 164 L281 128 L417 99 L413 98 L260 126 L105 171 L98 181 L310 155 L566 103 L657 86 L593 99 L331 151 L162 200 L216 203 L439 163 L606 120 L614 115 L422 133 L176 180 L136 192 L297 164 L495 115 L532 107 L419 121 L205 167 L116 187 L120 184 " fill="none" stroke="black" /></svg>