<?xml version="1.0" encoding="utf-8" ?>
<svg baseProfile="tiny" height="69" version="1.2" viewBox="-3 -3 612 69" width="612" xmlns="http://www.w3.org/2000/svg" xmlns:ev="http://www.w3.org/2001/xml-events" xmlns:xlink="http://www.w3.org/1999/xlink"><defs /><path d="M0 69 L4 68 L32 38 L57 9 L63 1 L57 7 L44 23 L45 27 L65 18 L76 9 L77 8 L64 24 L59 33 L84 28 L106 14 L108 13 L95 20 L94 21 L106 20 L111 18 L106 21 L96 29 L96 30 L124 20 L136 16 L134 18 L127 25 L132 26 L157 19 L158 18 L148 24 L142 27 L154 26 L161 24 L158 26 L145 36 L146 36 L178 26 L181 24 L175 28 L169 35 L184 33 L213 22 L192 36 L191 39 L210 32 L217 28 L213 29 L203 35 L210 32 L234 20 L235 18 L228 22 L226 26 L254 20 L259 18 L244 27 L226 43 L227 45 L256 33 L269 25 L254 32 L242 39 L247 39 L258 36 L259 36 L251 41 L256 41 L269 35 L274 31 L267 34 L261 38 L266 38 L284 32 L289 29 L277 38 L265 49 L279 45 L317 23 L320 19 L311 24 L309 26 L324 22 L332 18 L329 21 L310 43 L308 47 L329 37 L345 26 L343 25 L321 42 L322 44 L354 31 L376 16 L350 39 L346 45 L371 37 L394 19 L395 17 L388 23 L388 26 L405 18 L410 15 L409 16 L390 34 L388 39 L392 40 L406 30 L403 36 L402 41 L419 38 L453 20 L468 10 L457 22 L444 39 L444 42 L459 38 L472 28 L472 27 L466 34 L466 40 L482 34 L515 6 L520 0 L502 14 L496 23 L505 23 L524 14 L526 12 L509 24 L502 32 L521 24 L554 6 L558 3 L546 16 L534 30 L541 31 L569 15 L583 6 L582 7 L562 30 L557 41 L579 31 L607 6 L612 1 L609 4 L598 20 L599 24 L605 22 L608 17 " fill="none" stroke="black" /></svg>