<?xml version="1.0" encoding="utf-8" ?>
<svg baseProfile="tiny" height="338" version="1.2" viewBox="-3 -3 917 338" width="917" xmlns="http://www.w3.org/2000/svg" xmlns:ev="http://www.w3.org/2001/xml-events" xmlns:xlink="http://www.w3.org/1999/xlink"><defs /><path d="M267 172 L288 145 L303 134 L304 133 L302 136 L274 165 L186 233 L179 239 L194 229 L326 146 L475 62 L520 36 L513 42 L403 122 L301 191 L281 208 L330 183 L496 88 L592 32 L583 36 L372 140 L307 178 L405 150 L676 44 L770 0 L730 19 L513 133 L497 147 L622 117 L703 86 L695 84 L506 153 L472 171 L536 156 L611 137 L598 140 L505 168 L480 181 L550 165 L577 157 L559 161 L523 171 L539 170 L603 152 L611 150 L574 160 L562 168 L605 160 L660 146 L660 144 L624 154 L617 159 L662 150 L717 131 L717 128 L643 159 L626 173 L692 157 L810 112 L824 105 L777 131 L733 168 L758 166 L868 139 L905 128 L876 144 L801 182 L776 201 L824 184 L884 154 L886 152 L792 199 L742 237 L769 236 L881 195 L917 177 L885 193 L765 267 L729 297 L780 290 L847 262 L855 258 L794 277 L661 324 L618 338 L625 332 L651 311 L646 300 L591 302 L494 319 L479 320 L557 289 L590 270 L517 281 L416 304 L411 305 L491 272 L581 229 L550 229 L419 264 L338 288 L354 285 L411 266 L400 264 L294 291 L227 312 L236 311 L305 282 L334 258 L292 261 L206 290 L193 295 L227 289 L278 266 L277 260 L173 279 L116 295 L124 292 L184 265 L202 250 L164 246 L53 266 L66 260 L105 232 L106 223 L46 226 L0 233 L23 216 L90 172 L111 155 L113 151 L115 149 L114 147 L90 149 L75 153 L76 150 L112 126 L155 100 L157 97 L155 97 " fill="none" stroke="black" /></svg>