<?xml version="1.0" encoding="utf-8" ?>
<svg baseProfile="tiny" height="150" version="1.2" viewBox="-3 -3 480 150" width="480" xmlns="http://www.w3.org/2000/svg" xmlns:ev="http://www.w3.org/2001/xml-events" xmlns:xlink="http://www.w3.org/1999/xlink"><defs /><path d="M0 150 L2 150 L7 150 L17 150 L35 146 L52 142 L65 140 L73 138 L79 136 L88 133 L95 129 L109 122 L121 116 L124 114 L125 113 L125 111 L128 106 L130 101 L131 97 L131 94 L131 90 L131 82 L130 74 L130 70 L130 67 L129 63 L129 60 L128 56 L126 54 L126 51 L124 49 L122 48 L120 47 L118 47 L117 47 L115 47 L113 48 L111 49 L109 52 L104 59 L101 65 L96 73 L93 80 L93 86 L93 91 L93 97 L93 105 L95 111 L97 116 L100 124 L104 132 L107 139 L111 143 L118 146 L124 148 L134 148 L143 147 L153 145 L165 141 L183 133 L198 123 L220 110 L237 100 L251 90 L260 81 L263 75 L264 68 L264 60 L262 51 L260 45 L257 41 L252 37 L250 36 L249 36 L246 35 L243 35 L240 35 L237 35 L235 35 L233 35 L232 35 L231 36 L227 38 L225 41 L222 42 L222 44 L221 45 L220 46 L219 48 L218 49 L217 53 L215 56 L214 59 L213 65 L211 72 L210 78 L209 82 L209 87 L209 92 L209 96 L210 100 L211 105 L215 112 L219 116 L224 120 L225 121 L234 124 L247 127 L258 127 L273 127 L295 123 L324 116 L347 108 L361 99 L375 78 L386 49 L393 25 L393 17 L393 13 L389 7 L379 3 L371 1 L364 0 L357 0 L350 1 L344 4 L336 10 L328 16 L322 23 L317 33 L310 48 L303 63 L298 83 L297 98 L297 108 L297 112 L298 115 L301 119 L307 126 L313 132 L323 138 L337 142 L360 143 L397 143 L433 138 L467 129 L480 124 " fill="none" stroke="black" /></svg>