<?xml version="1.0" encoding="utf-8" ?>
<svg baseProfile="tiny" height="104" version="1.2" viewBox="-3 -3 409 104" width="409" xmlns="http://www.w3.org/2000/svg" xmlns:ev="http://www.w3.org/2001/xml-events" xmlns:xlink="http://www.w3.org/1999/xlink"><defs /><path d="M0 69 L0 70 L5 70 L10 68 L11 67 L9 67 L7 69 L11 70 L21 67 L18 67 L14 70 L17 71 L24 70 L22 70 L26 70 L28 70 L27 72 L28 72 L34 70 L37 70 L36 71 L33 73 L36 74 L47 73 L49 72 L47 73 L31 81 L31 82 L58 75 L81 64 L87 62 L72 69 L39 88 L39 92 L81 82 L111 67 L114 64 L98 70 L78 83 L78 85 L105 81 L131 69 L134 67 L116 72 L91 85 L90 85 L109 81 L117 77 L113 80 L109 84 L112 86 L123 83 L126 81 L120 82 L114 85 L118 85 L121 84 L127 82 L139 74 L159 61 L180 48 L184 46 L178 52 L151 72 L145 77 L147 77 L161 66 L164 63 L155 77 L144 97 L142 103 L156 98 L169 89 L177 82 L178 81 L175 84 L175 85 L180 79 L183 76 L183 75 L177 80 L177 81 L180 80 L186 74 L187 74 L186 75 L184 79 L189 79 L201 73 L203 72 L202 73 L198 81 L197 83 L203 82 L207 81 L208 81 L205 85 L205 88 L214 85 L238 65 L262 43 L272 35 L270 39 L250 66 L228 96 L225 104 L240 98 L256 80 L272 61 L279 54 L280 54 L269 75 L266 85 L266 87 L275 81 L281 73 L282 71 L282 72 L283 72 L283 73 L284 75 L288 75 L294 73 L296 73 L297 74 L289 90 L286 96 L289 97 L301 87 L308 75 L311 72 L313 72 L313 75 L315 76 L321 74 L326 69 L327 69 L323 79 L319 87 L319 88 L333 78 L358 49 L401 8 L409 0 L406 7 L383 41 L360 76 L357 88 L363 85 L369 70 " fill="none" stroke="black" /></svg>