<?xml version="1.0" encoding="utf-8" ?>
<svg baseProfile="tiny" height="220" version="1.2" viewBox="-3 -3 528 220" width="528" xmlns="http://www.w3.org/2000/svg" xmlns:ev="http://www.w3.org/2001/xml-events" xmlns:xlink="http://www.w3.org/1999/xlink"><defs /><path d="M0 220 L1 220 L11 212 L30 196 L51 177 L63 161 L81 134 L92 118 L109 89 L120 64 L127 49 L129 44 L131 42 L131 41 L131 40 " fill="none" stroke="black" /><path d="M0 220 L1 220 L11 212 L30 196 L51 177 L63 161 L81 134 L92 118 L109 89 L120 64 L127 49 L129 44 L131 42 L131 41 L131 40 M131 40 L131 43 L130 47 L127 57 L124 66 L122 75 L119 86 L112 106 L105 125 L101 139 L99 154 L101 163 L103 170 L106 175 L108 176 L115 176 L140 160 L163 145 L179 127 L190 108 L195 93 L195 86 L199 72 L201 63 L201 58 L201 55 L202 54 L202 55 L202 57 L202 60 L202 61 L202 62 L201 65 L200 67 L200 69 L200 70 L200 72 L200 74 L199 77 L199 78 L198 81 L198 82 L196 88 L187 111 L180 129 L176 144 L174 148 L174 149 L186 141 L217 118 L263 80 L301 50 L320 34 L324 28 L324 27 L319 32 L309 41 L293 57 L273 81 L265 96 L258 108 L252 120 L245 131 L236 146 L223 167 L219 175 L218 177 L225 174 L235 169 L257 155 L281 137 L306 112 L350 58 L378 27 L391 11 L397 3 L399 1 L399 0 L396 7 L387 22 L378 39 L366 65 L351 97 L333 126 L325 138 L320 151 L317 163 L308 176 L302 188 L298 195 L297 197 L297 198 L299 195 L319 167 L343 136 L374 98 L399 66 L414 46 L421 35 L423 32 L422 37 L414 55 L404 76 L391 104 L377 130 L365 153 L357 169 L354 176 L352 181 L350 188 L349 193 L349 195 L349 196 L350 197 L354 196 L370 186 L391 172 L420 147 L456 107 L499 56 L513 36 L525 19 L528 13 L528 12 L528 11 " fill="none" stroke="black" /></svg>