<?xml version="1.0" encoding="utf-8" ?>
<svg baseProfile="tiny" height="117" version="1.2" viewBox="-3 -3 563 117" width="563" xmlns="http://www.w3.org/2000/svg" xmlns:ev="http://www.w3.org/2001/xml-events" xmlns:xlink="http://www.w3.org/1999/xlink"><defs /><path d="M4 8 L4 9 L4 11 L4 13 L3 18 L0 28 L0 35 L0 40 L0 48 L2 56 L6 60 L12 65 L23 68 L33 68 L44 66 L55 58 L65 42 L67 23 L68 10 L64 5 L58 2 L51 2 L42 3 L32 10 L26 19 L23 33 L22 49 L25 63 L32 68 L44 69 L64 64 L82 54 L94 42 L98 28 L98 12 L96 7 L89 5 L79 9 L66 21 L57 35 L54 52 L56 64 L66 71 L76 73 L87 73 L96 72 L106 67 L116 58 L124 43 L124 37 L124 30 L122 27 L118 27 L110 32 L99 45 L95 55 L95 68 L100 79 L108 86 L116 89 L132 89 L149 84 L168 73 L182 49 L186 18 L186 3 L183 0 L171 5 L152 24 L136 49 L131 68 L141 86 L151 92 L170 93 L194 91 L211 83 L229 72 L243 51 L247 42 L248 31 L244 26 L236 26 L227 34 L219 49 L216 70 L223 85 L232 91 L244 92 L256 91 L267 88 L279 79 L287 66 L289 52 L289 42 L286 39 L279 42 L266 61 L257 78 L254 94 L257 102 L266 106 L281 110 L299 110 L313 107 L325 101 L335 89 L341 71 L343 54 L342 55 L332 73 L326 94 L325 109 L330 116 L344 117 L358 117 L382 113 L408 102 L429 88 L441 74 L443 66 L443 67 L446 82 L449 107 L454 114 L469 117 L487 115 L508 101 L520 82 L527 66 L531 50 L531 44 L531 43 L530 51 L524 67 L516 90 L509 108 L509 110 L509 111 L513 109 L527 97 L552 79 L563 72 " fill="none" stroke="black" /></svg>