<?xml version="1.0" encoding="utf-8" ?>
<svg baseProfile="tiny" height="150" version="1.2" viewBox="-3 -3 502 150" width="502" xmlns="http://www.w3.org/2000/svg" xmlns:ev="http://www.w3.org/2001/xml-events" xmlns:xlink="http://www.w3.org/1999/xlink"><defs /><path d="M3 127 L3 131 L1 137 L0 141 L0 143 L0 145 L0 147 L0 149 L2 150 L4 150 L8 150 L15 149 L24 146 L31 142 L36 139 L39 136 L42 132 L46 126 L52 118 L58 111 L62 102 L67 93 L72 80 L76 72 L79 63 L82 55 L83 50 L83 48 L84 46 L84 45 L84 42 L86 39 L86 36 L87 34 L88 32 L90 29 L91 26 L92 24 L95 19 L98 15 L101 10 L103 7 L105 5 L108 3 L109 2 L111 2 L115 1 L118 1 L124 0 L132 0 L139 0 L141 0 L144 1 L145 2 L147 3 L148 5 L151 8 L154 12 L156 14 L158 17 L160 20 L162 23 L165 28 L167 32 L170 38 L172 45 L175 51 L176 55 L178 59 L179 62 L180 66 L181 70 L183 75 L185 81 L186 84 L189 88 L192 93 L194 95 L197 97 L198 100 L203 103 L206 105 L209 106 L210 108 L212 108 L214 108 L216 109 L222 109 L233 107 L242 102 L251 95 L254 89 L256 80 L258 71 L261 59 L264 50 L267 41 L270 35 L274 29 L276 25 L279 22 L281 21 L286 18 L290 15 L294 13 L296 12 L300 11 L303 10 L305 10 L309 10 L315 11 L323 13 L334 20 L339 24 L341 25 L342 27 L345 30 L346 33 L350 39 L354 44 L359 53 L362 59 L367 66 L370 72 L375 79 L380 85 L386 91 L392 97 L395 102 L398 105 L403 109 L408 114 L413 118 L419 122 L425 124 L431 125 L436 126 L441 126 L445 126 L450 126 L456 126 L464 126 L478 124 L489 123 L496 121 L498 120 L500 120 L501 120 L502 119 " fill="none" stroke="black" /></svg>