<?xml version="1.0" encoding="utf-8" ?>
<svg baseProfile="tiny" height="52" version="1.2" viewBox="-3 -3 356 52" width="356" xmlns="http://www.w3.org/2000/svg" xmlns:ev="http://www.w3.org/2001/xml-events" xmlns:xlink="http://www.w3.org/1999/xlink"><defs /><path d="M0 46 L20 23 L32 11 L33 10 L27 22 L19 35 L20 37 L34 31 L43 24 L42 24 L33 31 L36 32 L57 27 L81 12 L88 7 L84 9 L59 30 L42 45 L43 47 L60 38 L80 19 L83 14 L80 15 L61 29 L58 33 L71 31 L94 19 L99 16 L96 18 L78 36 L77 41 L97 35 L110 25 L111 24 L112 24 L113 24 L112 25 L104 38 L107 40 L124 33 L135 20 L137 17 L133 19 L121 29 L118 33 L131 21 L144 6 L148 2 L145 8 L140 19 L140 23 L149 22 L157 16 L158 15 L152 19 L149 23 L150 24 L159 18 L167 12 L169 11 L158 23 L141 46 L139 52 L153 47 L175 29 L184 15 L185 12 L180 19 L168 34 L166 39 L173 36 L189 20 L202 2 L203 2 L193 13 L183 29 L183 32 L196 25 L208 11 L209 9 L207 12 L203 17 L204 17 L212 10 L214 7 L209 16 L208 17 L212 18 L223 8 L224 7 L224 8 L218 22 L218 26 L231 26 L240 21 L241 21 L240 25 L243 26 L254 22 L260 16 L261 15 L261 16 L260 17 L261 18 L268 15 L278 7 L275 12 L271 21 L270 23 L273 22 L280 15 L280 13 L276 16 L266 27 L265 29 L274 27 L288 13 L298 0 L279 23 L264 42 L264 44 L285 35 L307 13 L310 9 L309 9 L302 20 L299 28 L303 30 L318 19 L327 9 L328 8 L318 18 L315 25 L318 26 L337 14 L340 11 L339 10 L329 23 L329 26 L342 21 L356 11 L356 10 L352 12 L346 17 L346 19 L347 20 L352 15 " fill="none" stroke="black" /></svg>