<?xml version="1.0" encoding="utf-8" ?>
<svg baseProfile="tiny" height="168" version="1.2" viewBox="-3 -3 514 168" width="514" xmlns="http://www.w3.org/2000/svg" xmlns:ev="http://www.w3.org/2001/xml-events" xmlns:xlink="http://www.w3.org/1999/xlink"><defs /><path d="M6 76 L2 81 L1 86 L0 93 L2 105 L7 111 L19 113 L46 105 L56 97 L59 85 L59 75 L57 73 L51 75 L43 95 L42 116 L51 128 L65 129 L83 124 L97 109 L106 85 L106 69 L105 62 L102 63 L92 79 L82 117 L82 134 L90 136 L109 116 L128 87 L149 55 L157 41 L158 40 L152 56 L140 89 L136 117 L136 125 L145 123 L163 108 L182 91 L197 74 L202 60 L203 47 L199 39 L188 39 L177 48 L162 70 L153 95 L152 112 L157 120 L165 121 L181 117 L198 108 L220 92 L239 67 L245 39 L244 28 L239 25 L227 30 L216 43 L203 69 L197 95 L196 120 L203 129 L213 130 L225 127 L244 116 L269 98 L298 66 L309 40 L310 26 L307 24 L295 26 L282 35 L265 54 L260 66 L258 80 L258 91 L259 99 L263 104 L273 109 L285 110 L302 109 L330 95 L344 72 L354 40 L356 8 L347 0 L331 4 L305 24 L285 49 L276 84 L280 103 L288 114 L298 122 L309 124 L322 124 L351 116 L377 103 L401 78 L416 50 L422 20 L422 9 L410 13 L389 33 L360 65 L346 86 L342 101 L342 105 L347 110 L351 114 L362 118 L380 121 L404 120 L434 109 L469 85 L485 63 L495 35 L495 21 L487 19 L461 30 L414 61 L385 94 L372 123 L378 144 L406 160 L438 166 L473 168 L493 165 L506 157 L514 137 " fill="none" stroke="black" /></svg>