<?xml version="1.0" encoding="utf-8" ?>
<svg baseProfile="tiny" height="210" version="1.2" viewBox="-3 -3 527 210" width="527" xmlns="http://www.w3.org/2000/svg" xmlns:ev="http://www.w3.org/2001/xml-events" xmlns:xlink="http://www.w3.org/1999/xlink"><defs /><path d="M0 210 L2 210 L32 177 L115 84 L148 49 L152 46 L141 64 L96 124 L59 177 L45 199 L52 195 L89 149 L145 73 L166 44 L167 41 L138 81 L97 140 L63 188 L56 202 L60 200 L85 167 L150 84 L216 22 L234 9 L233 20 L207 61 L160 127 L128 175 L125 179 L134 167 L164 125 L218 53 L251 9 L253 8 L231 40 L182 107 L143 162 L129 185 L129 186 L152 153 L184 102 L231 35 L252 10 L254 8 L244 31 L203 102 L161 163 L145 186 L144 188 L165 163 L207 107 L263 28 L272 15 L270 22 L247 68 L220 124 L203 161 L202 165 L214 149 L241 111 L276 63 L296 35 L298 33 L281 71 L248 128 L226 165 L224 173 L233 164 L266 119 L323 39 L347 3 L348 2 L332 34 L305 87 L282 131 L276 147 L279 144 L292 120 L321 76 L356 25 L361 17 L348 40 L323 85 L304 120 L300 133 L303 130 L325 102 L349 63 L359 49 L357 53 L335 92 L328 109 L329 114 L354 98 L382 59 L395 39 L395 37 L368 68 L339 106 L336 115 L342 111 L368 73 L396 28 L406 13 L403 21 L371 68 L344 107 L339 118 L343 115 L369 79 L406 26 L419 9 L416 16 L389 58 L376 91 L378 97 L402 79 L437 38 L461 6 L459 8 L429 48 L396 92 L388 108 L394 104 L420 69 L448 26 L451 22 L452 22 L437 49 L425 79 L425 80 L430 74 L449 44 L463 25 L468 22 L466 37 L462 56 L463 68 L475 66 L498 42 L522 9 L527 0 L525 5 L509 36 L500 58 L505 51 L516 26 L519 17 L520 16 L516 25 " fill="none" stroke="black" /></svg>