<?xml version="1.0" encoding="utf-8" ?>
<svg baseProfile="tiny" height="88" version="1.2" viewBox="-3 -3 656 88" width="656" xmlns="http://www.w3.org/2000/svg" xmlns:ev="http://www.w3.org/2001/xml-events" xmlns:xlink="http://www.w3.org/1999/xlink"><defs /><path d="M2 72 L0 75 L4 75 L22 58 L45 30 L47 28 L30 55 L22 78 L36 80 L113 39 L159 4 L164 0 L147 12 L107 43 L96 59 L124 55 L193 24 L205 15 L194 22 L135 59 L109 78 L136 74 L194 53 L204 46 L194 52 L160 72 L157 77 L187 70 L207 60 L207 59 L188 68 L184 73 L200 69 L233 54 L233 52 L215 59 L202 67 L214 66 L239 55 L238 55 L224 62 L223 63 L249 53 L263 47 L262 48 L223 75 L220 78 L239 72 L267 58 L274 54 L270 57 L253 70 L257 70 L289 54 L308 38 L311 36 L276 56 L230 86 L237 88 L299 59 L339 36 L347 30 L339 37 L285 80 L281 87 L307 81 L346 58 L362 46 L361 45 L314 75 L306 81 L331 74 L374 51 L391 39 L389 40 L351 71 L348 75 L370 71 L396 54 L400 52 L399 51 L391 58 L397 59 L422 47 L437 33 L438 31 L424 41 L418 49 L423 50 L453 44 L476 31 L478 30 L463 39 L450 49 L453 50 L482 41 L497 32 L498 31 L472 55 L466 62 L474 63 L492 59 L499 55 L499 54 L491 65 L490 70 L513 67 L539 53 L543 50 L535 56 L521 67 L522 68 L547 58 L557 50 L558 49 L550 55 L567 51 L576 45 L562 55 L559 61 L564 61 L577 52 L579 50 L569 59 L566 60 L573 61 L607 50 L616 45 L609 50 L589 63 L594 64 L634 53 L656 45 L656 44 " fill="none" stroke="black" /></svg>