<?xml version="1.0" encoding="utf-8" ?>
<svg baseProfile="tiny" height="180" version="1.2" viewBox="-3 -3 396 180" width="396" xmlns="http://www.w3.org/2000/svg" xmlns:ev="http://www.w3.org/2001/xml-events" xmlns:xlink="http://www.w3.org/1999/xlink"><defs /><path d="M111 73 L153 54 L156 53 L124 75 L115 83 L136 79 L174 65 L182 60 L148 83 L138 92 L161 86 L210 64 L222 56 L199 69 L146 106 L150 106 L204 88 L233 70 L231 70 L202 87 L197 94 L209 92 L232 80 L233 78 L209 93 L205 97 L220 91 L243 75 L245 73 L213 86 L203 94 L208 92 L262 61 L286 46 L285 46 L251 74 L236 89 L242 89 L280 67 L301 55 L301 54 L266 70 L246 83 L249 82 L324 31 L362 2 L365 0 L328 25 L303 50 L301 55 L311 53 L317 48 L316 49 L293 68 L281 80 L285 81 L313 65 L320 60 L315 63 L288 84 L279 95 L292 94 L326 78 L332 74 L330 77 L317 93 L316 97 L337 92 L364 79 L370 75 L356 85 L345 97 L350 99 L378 89 L396 78 L390 82 L354 110 L341 122 L352 120 L382 106 L388 101 L371 108 L297 146 L225 178 L219 180 L248 157 L255 150 L239 153 L192 169 L175 175 L175 173 L187 163 L188 161 L175 162 L171 164 L171 163 L171 161 L164 160 L138 163 L136 163 L143 156 L146 152 L141 151 L121 158 L118 160 L123 153 L125 151 L115 151 L112 151 L111 151 L104 151 L79 154 L67 155 L71 146 L77 137 L68 137 L47 145 L45 147 L62 140 L86 127 L84 126 L38 147 L21 154 L32 148 L61 130 L69 120 L50 118 L16 124 L15 125 L22 122 L25 120 L25 119 L7 120 L0 121 L7 115 L24 104 L26 102 L24 103 L16 108 L15 109 L33 98 L66 77 L109 59 L120 57 L98 70 L68 87 L66 90 L81 84 L99 73 " fill="none" stroke="black" /></svg>