<?xml version="1.0" encoding="utf-8" ?>
<svg baseProfile="tiny" height="279" version="1.2" viewBox="-3 -3 421 279" width="421" xmlns="http://www.w3.org/2000/svg" xmlns:ev="http://www.w3.org/2001/xml-events" xmlns:xlink="http://www.w3.org/1999/xlink"><defs /><path d="M94 161 L92 163 L112 151 L178 107 L229 78 L242 73 L241 76 L190 104 L162 122 L169 121 L218 95 L283 60 L336 37 L347 32 L348 32 L347 42 L333 63 L305 86 L299 91 L312 85 L353 58 L388 37 L399 32 L381 44 L327 75 L291 101 L295 102 L363 68 L397 47 L384 54 L309 97 L282 120 L277 127 L342 108 L398 85 L421 77 L417 83 L371 116 L328 151 L322 157 L354 149 L392 133 L398 130 L376 138 L295 172 L204 220 L193 228 L193 229 L190 229 L164 229 L119 235 L107 235 L110 221 L121 196 L121 179 L98 174 L62 176 L61 174 L90 134 L123 86 L133 69 L128 70 L103 87 L97 94 L116 89 L151 71 L173 58 L174 58 L149 81 L141 92 L162 93 L223 70 L250 56 L248 57 L212 85 L179 122 L179 133 L211 129 L259 109 L260 109 L224 133 L178 175 L185 182 L230 176 L259 172 L262 183 L257 203 L246 224 L233 256 L230 264 L230 265 L244 249 L266 226 L269 225 L267 229 L235 249 L192 274 L180 279 L180 261 L179 244 L126 224 L85 231 L86 232 L139 215 L167 199 L169 193 L115 204 L20 239 L0 248 L39 232 L95 197 L118 174 L118 165 L92 168 L69 174 L67 174 L104 149 L151 111 L182 84 L190 78 L190 82 L189 98 L189 99 L200 88 L211 73 L220 60 L221 59 L217 66 L215 82 L215 85 L225 79 L236 59 L243 34 L243 19 L238 14 L221 25 L202 50 L208 50 L244 24 L251 12 L252 8 L247 7 L230 13 L225 18 L221 25 L235 23 L262 7 L271 0 " fill="none" stroke="black" /></svg>