<?xml version="1.0" encoding="utf-8" ?>
<svg baseProfile="tiny" height="122" version="1.2" viewBox="-3 -3 376 122" width="376" xmlns="http://www.w3.org/2000/svg" xmlns:ev="http://www.w3.org/2001/xml-events" xmlns:xlink="http://www.w3.org/1999/xlink"><defs /><path d="M45 53 L52 51 L66 46 L87 38 L106 29 L135 23 L169 30 L205 55 L242 82 L259 99 L260 103 L261 105 L261 108 L258 112 L250 115 L240 118 L231 121 L225 122 L220 122 L217 122 L210 122 L204 122 L195 122 L187 120 L178 116 L172 113 L166 108 L162 102 L156 94 L150 85 L144 75 L140 69 L139 66 L139 65 L139 64 L137 61 L135 60 L134 59 L132 58 L127 58 L112 58 L103 60 L97 62 L93 68 L88 80 L82 94 L75 107 L69 114 L66 116 L64 116 L60 116 L49 116 L30 106 L12 88 L8 72 L3 55 L0 37 L0 24 L0 14 L2 12 L18 10 L39 7 L66 3 L106 1 L149 0 L199 2 L239 8 L257 8 L261 8 L263 8 L267 9 L271 9 L280 9 L290 9 L301 9 L326 11 L355 16 L373 17 L376 18 " fill="none" stroke="black" /></svg>