<?xml version="1.0" encoding="utf-8" ?>
<svg baseProfile="tiny" height="90" version="1.2" viewBox="-3 -3 433 90" width="433" xmlns="http://www.w3.org/2000/svg" xmlns:ev="http://www.w3.org/2001/xml-events" xmlns:xlink="http://www.w3.org/1999/xlink"><defs /><path d="M0 53 L12 53 L29 53 L46 51 L66 45 L82 36 L95 27 L100 26 L104 28 L119 50 L141 73 L161 87 L184 90 L206 82 L221 71 L223 71 L224 71 L228 71 L235 77 L251 83 L296 84 L351 77 L383 65 L387 63 L388 63 L389 63 L395 61 L404 51 L418 32 L431 6 L433 0 " fill="none" stroke="black" /></svg>