<?xml version="1.0" encoding="utf-8" ?>
<svg baseProfile="tiny" height="53" version="1.2" viewBox="-3 -3 391 53" width="391" xmlns="http://www.w3.org/2000/svg" xmlns:ev="http://www.w3.org/2001/xml-events" xmlns:xlink="http://www.w3.org/1999/xlink"><defs /><path d="M0 49 L2 49 L10 49 L18 52 L23 53 L26 53 L32 53 L55 36 L92 14 L118 2 L125 0 L139 14 L155 38 L162 50 L164 52 L166 52 L180 49 L207 38 L217 36 L221 36 L231 36 L246 41 L259 44 L285 45 L355 45 L369 43 L371 41 L374 39 L381 27 L384 19 L385 18 L386 16 L389 11 L390 8 L391 5 L391 3 L391 0 " fill="none" stroke="black" /></svg>