<?xml version="1.0" encoding="utf-8" ?>
<svg baseProfile="tiny" height="114" version="1.2" viewBox="-3 -3 320 114" width="320" xmlns="http://www.w3.org/2000/svg" xmlns:ev="http://www.w3.org/2001/xml-events" xmlns:xlink="http://www.w3.org/1999/xlink"><defs /><path d="M0 96 L9 96 L28 98 L58 100 L138 100 L199 107 L230 114 L233 114 L234 114 L235 114 " fill="none" stroke="black" /><path d="M0 96 L9 96 L28 98 L58 100 L138 100 L199 107 L230 114 L233 114 L234 114 L235 114 M56 47 L57 47 L70 52 L88 61 L116 69 L166 83 L223 90 L253 94 L259 94 L265 90 L279 81 L296 65 L312 43 L318 28 L320 24 L320 21 L320 18 L320 16 L320 15 " fill="none" stroke="black" /><path d="M0 96 L9 96 L28 98 L58 100 L138 100 L199 107 L230 114 L233 114 L234 114 L235 114 M56 47 L57 47 L70 52 L88 61 L116 69 L166 83 L223 90 L253 94 L259 94 L265 90 L279 81 L296 65 L312 43 L318 28 L320 24 L320 21 L320 18 L320 16 L320 15 M127 7 L127 5 L134 3 L163 1 L198 1 L225 1 L233 1 L239 1 L247 0 L248 0 L249 0 L250 0 " fill="none" stroke="black" /></svg>