<?xml version="1.0" encoding="utf-8" ?>
<svg baseProfile="tiny" height="185" version="1.2" viewBox="-3 -3 379 185" width="379" xmlns="http://www.w3.org/2000/svg" xmlns:ev="http://www.w3.org/2001/xml-events" xmlns:xlink="http://www.w3.org/1999/xlink"><defs /><path d="M25 125 L26 125 L32 125 L41 127 L56 131 L70 131 L91 125 L110 111 L131 93 L155 72 L191 63 L214 62 L226 63 L239 74 L258 97 L275 121 L282 133 L286 139 L288 141 L289 141 L292 143 L299 143 L312 142 L334 130 L358 111 L370 99 L376 88 L379 78 L379 66 L379 59 L379 49 L379 41 L379 38 L378 36 L370 28 L354 19 L330 10 L307 4 L276 0 L225 4 L173 24 L142 53 L133 74 L128 92 L127 112 L125 145 L125 165 L122 176 L118 182 L112 185 L95 185 L76 182 L65 178 L44 161 L24 134 L10 109 L3 91 L0 78 L0 73 L3 68 L14 68 L28 71 L54 85 L83 96 L108 107 L124 118 L134 126 L142 131 L146 132 L154 133 L165 134 L181 136 L198 136 L209 136 L215 136 L216 135 L217 129 " fill="none" stroke="black" /></svg>