<?xml version="1.0" encoding="utf-8" ?>
<svg baseProfile="tiny" height="159" version="1.2" viewBox="-3 -3 406 159" width="406" xmlns="http://www.w3.org/2000/svg" xmlns:ev="http://www.w3.org/2001/xml-events" xmlns:xlink="http://www.w3.org/1999/xlink"><defs /><path d="M181 75 L182 71 L188 59 L205 45 L240 26 L274 15 L282 14 L286 14 L290 14 L293 14 L296 14 L300 15 L303 18 L311 25 L319 37 L326 51 L335 63 L341 74 L349 86 L355 94 L361 102 L367 109 L370 120 L370 136 L365 148 L361 153 L358 157 L351 158 L335 158 L298 157 L276 151 L257 143 L228 131 L199 123 L169 118 L122 116 L86 116 L54 123 L31 130 L17 137 L13 141 L8 146 L6 150 L1 157 L0 159 " fill="none" stroke="black" /><path d="M181 75 L182 71 L188 59 L205 45 L240 26 L274 15 L282 14 L286 14 L290 14 L293 14 L296 14 L300 15 L303 18 L311 25 L319 37 L326 51 L335 63 L341 74 L349 86 L355 94 L361 102 L367 109 L370 120 L370 136 L365 148 L361 153 L358 157 L351 158 L335 158 L298 157 L276 151 L257 143 L228 131 L199 123 L169 118 L122 116 L86 116 L54 123 L31 130 L17 137 L13 141 L8 146 L6 150 L1 157 L0 159 M64 72 L65 71 L71 65 L89 54 L110 41 L133 25 L167 13 L199 6 L233 0 L265 0 L293 0 L316 0 L360 18 L391 29 L401 35 L403 37 L406 40 " fill="none" stroke="black" /></svg>