<?xml version="1.0" encoding="utf-8" ?>
<svg baseProfile="tiny" height="76" version="1.2" viewBox="-3 -3 462 76" width="462" xmlns="http://www.w3.org/2000/svg" xmlns:ev="http://www.w3.org/2001/xml-events" xmlns:xlink="http://www.w3.org/1999/xlink"><defs /><path d="M0 76 L2 75 L4 73 L7 69 L8 64 L10 60 L13 53 L15 50 L16 45 L18 42 L19 39 L21 35 L22 34 L23 32 L24 31 L25 31 L29 31 L38 31 L48 31 L61 31 L81 31 L95 31 L99 31 L100 31 L102 30 L103 29 L106 25 L111 17 L120 7 L125 1 L126 0 L127 0 L144 11 L159 23 L164 25 L165 26 L167 27 L168 28 L169 28 L171 29 L173 29 L176 29 L184 27 L191 25 L198 22 L201 21 L203 21 L204 21 L206 21 L207 21 L209 20 L219 31 L234 54 L241 66 L242 68 L242 70 L244 70 L247 70 L257 70 L273 70 L291 70 L300 71 L302 71 L303 71 L307 59 L314 41 L318 24 L318 19 L318 18 L319 17 L328 17 L335 17 L340 15 L347 15 L358 15 L362 15 L365 19 L367 36 L370 54 L371 59 L371 64 L372 68 L372 70 L373 71 L374 71 L376 72 L378 72 L381 72 L392 75 L394 75 L395 75 L397 75 L398 75 L401 75 L403 75 L408 75 L414 75 L417 75 L420 75 L422 75 L424 75 L433 75 L447 75 L455 75 L461 74 L462 74 " fill="none" stroke="black" /></svg>