<?xml version="1.0" encoding="utf-8" ?>
<svg baseProfile="tiny" height="230" version="1.2" viewBox="-3 -3 208 230" width="208" xmlns="http://www.w3.org/2000/svg" xmlns:ev="http://www.w3.org/2001/xml-events" xmlns:xlink="http://www.w3.org/1999/xlink"><defs /><path d="M178 1 L178 0 " fill="none" stroke="black" /><path d="M178 1 L178 0 M150 87 L166 98 L176 113 L189 134 L199 143 L206 148 L208 152 L208 166 L197 189 L164 210 L131 226 L120 229 L118 230 L88 230 L35 230 L2 230 L0 230 L0 210 L0 178 L1 154 L4 146 L7 141 L13 138 L26 131 L31 129 L34 128 L38 128 L42 128 L52 131 L87 144 L133 151 L166 151 L173 151 L173 155 L170 169 L160 181 L149 185 L143 185 L135 185 L121 180 L94 170 L76 166 L75 166 " fill="none" stroke="black" /></svg>