<?xml version="1.0" encoding="utf-8" ?>
<svg baseProfile="tiny" height="120" version="1.2" viewBox="-3 -3 225 120" width="225" xmlns="http://www.w3.org/2000/svg" xmlns:ev="http://www.w3.org/2001/xml-events" xmlns:xlink="http://www.w3.org/1999/xlink"><defs /><path d="M0 37 L3 35 L20 24 L35 15 L61 3 L75 0 L86 0 L109 1 L146 8 L176 24 L197 44 L206 59 L214 75 L219 88 L221 96 L223 108 L223 116 L225 118 L225 120 " fill="none" stroke="black" /><path d="M0 37 L3 35 L20 24 L35 15 L61 3 L75 0 L86 0 L109 1 L146 8 L176 24 L197 44 L206 59 L214 75 L219 88 L221 96 L223 108 L223 116 L225 118 L225 120 M38 78 L41 65 L60 41 L80 26 L86 24 L89 24 L93 27 L110 36 L137 46 L152 55 L155 59 L160 64 L164 70 L168 73 L170 75 L172 80 L173 84 L175 91 L176 93 L176 94 " fill="none" stroke="black" /><path d="M0 37 L3 35 L20 24 L35 15 L61 3 L75 0 L86 0 L109 1 L146 8 L176 24 L197 44 L206 59 L214 75 L219 88 L221 96 L223 108 L223 116 L225 118 L225 120 M38 78 L41 65 L60 41 L80 26 L86 24 L89 24 L93 27 L110 36 L137 46 L152 55 L155 59 L160 64 L164 70 L168 73 L170 75 L172 80 L173 84 L175 91 L176 93 L176 94 M75 69 L75 68 L85 61 L99 58 L115 58 L127 58 L136 58 L141 58 L145 63 L148 68 L150 73 L151 76 L151 79 L152 80 " fill="none" stroke="black" /></svg>