<?xml version="1.0" encoding="utf-8" ?>
<svg baseProfile="tiny" height="149" version="1.2" viewBox="-3 -3 249 149" width="249" xmlns="http://www.w3.org/2000/svg" xmlns:ev="http://www.w3.org/2001/xml-events" xmlns:xlink="http://www.w3.org/1999/xlink"><defs /><path d="M102 69 L102 70 L104 73 L119 77 L130 77 L136 75 L146 67 L159 54 L173 48 L182 47 L192 52 L213 73 L228 85 L232 86 L236 88 L244 88 L249 89 L242 105 L209 136 L176 149 L156 148 L150 145 L133 139 L85 114 L40 90 L20 74 L14 61 L7 36 L3 16 L0 8 L0 6 L17 1 L49 0 L93 5 L114 11 L116 13 L124 14 L132 16 L144 17 L184 18 L223 18 L239 18 " fill="none" stroke="black" /></svg>