<?xml version="1.0" encoding="utf-8" ?>
<svg baseProfile="tiny" height="82" version="1.2" viewBox="-3 -3 513 82" width="513" xmlns="http://www.w3.org/2000/svg" xmlns:ev="http://www.w3.org/2001/xml-events" xmlns:xlink="http://www.w3.org/1999/xlink"><defs /><path d="M0 54 L0 55 L1 56 L4 56 L7 56 L13 52 L26 32 L40 11 L48 3 L53 2 L74 28 L85 41 L91 47 L93 50 L95 51 L104 48 L127 27 L151 15 L153 14 L156 14 L172 29 L185 43 L191 47 L193 47 L196 47 L222 22 L254 2 L257 1 L264 6 L275 19 L288 39 L297 51 L298 54 L301 54 L310 42 L323 20 L332 11 L334 11 L343 29 L348 41 L353 49 L356 53 L357 53 L359 53 L365 50 L368 42 L370 41 L372 43 L381 63 L392 74 L406 81 L422 82 L435 74 L452 46 L456 37 L459 36 L467 41 L472 42 L474 42 L475 40 L475 35 L475 33 L476 35 L478 48 L478 68 L479 73 L482 66 L492 34 L504 5 L508 0 L513 13 L513 22 L513 25 " fill="none" stroke="black" /></svg>