<?xml version="1.0" encoding="utf-8" ?>
<svg baseProfile="tiny" height="159" version="1.2" viewBox="-3 -3 257 159" width="257" xmlns="http://www.w3.org/2000/svg" xmlns:ev="http://www.w3.org/2001/xml-events" xmlns:xlink="http://www.w3.org/1999/xlink"><defs /><path d="M31 106 L32 105 L32 93 L35 64 L41 45 L53 25 L65 11 L82 2 L105 0 L169 33 L235 84 L252 110 L257 131 L257 143 L252 153 L245 158 L240 159 L231 159 L214 152 L194 137 L180 124 L166 100 L156 78 L147 56 L142 46 L140 46 L136 48 L107 72 L83 95 L68 109 L65 113 L65 115 L63 115 L48 114 L23 111 L16 110 L13 108 L8 104 L3 93 L0 88 " fill="none" stroke="black" /></svg>