<?xml version="1.0" encoding="utf-8" ?>
<svg baseProfile="tiny" height="112" version="1.2" viewBox="-3 -3 388 112" width="388" xmlns="http://www.w3.org/2000/svg" xmlns:ev="http://www.w3.org/2001/xml-events" xmlns:xlink="http://www.w3.org/1999/xlink"><defs /><path d="M0 59 L4 62 L20 66 L32 68 L43 70 L59 72 L78 76 L96 76 L110 76 L117 76 L122 76 L145 74 L189 64 L234 53 L246 51 L247 51 L256 59 L265 74 L268 83 L272 88 L275 93 L277 94 L280 94 L283 94 L290 94 L302 94 L312 87 L328 75 L347 56 L356 38 L358 20 L354 15 L346 8 L336 1 L332 0 L324 0 L303 3 L284 11 L270 34 L267 52 L267 58 L270 65 L276 74 L281 78 L284 80 L288 81 L291 81 L295 81 L300 81 L306 81 L328 77 L342 69 L354 60 L357 59 L359 59 L364 59 L372 66 L379 76 L379 77 L381 79 L382 88 L385 99 L388 109 L388 111 L388 112 L381 112 L360 109 L344 104 L342 103 L339 101 L338 99 L337 96 L339 89 L347 79 L359 70 L371 60 L379 52 L382 46 L383 46 L384 46 " fill="none" stroke="black" /></svg>