<?xml version="1.0" encoding="utf-8" ?>
<svg baseProfile="tiny" height="206" version="1.2" viewBox="-3 -3 353 206" width="353" xmlns="http://www.w3.org/2000/svg" xmlns:ev="http://www.w3.org/2001/xml-events" xmlns:xlink="http://www.w3.org/1999/xlink"><defs /><path d="M0 105 L0 106 L3 106 L9 87 L26 52 L35 33 L36 32 L47 59 L60 88 L68 100 L77 100 L96 85 L137 50 L148 44 L149 44 L157 54 L172 92 L178 109 " fill="none" stroke="black" /><path d="M0 105 L0 106 L3 106 L9 87 L26 52 L35 33 L36 32 L47 59 L60 88 L68 100 L77 100 L96 85 L137 50 L148 44 L149 44 L157 54 L172 92 L178 109 M183 50 L183 55 " fill="none" stroke="black" /><path d="M0 105 L0 106 L3 106 L9 87 L26 52 L35 33 L36 32 L47 59 L60 88 L68 100 L77 100 L96 85 L137 50 L148 44 L149 44 L157 54 L172 92 L178 109 M183 50 L183 55 M126 11 L127 8 L133 5 L146 0 L165 0 L184 0 L214 1 L254 6 L280 6 L287 7 L293 12 L302 28 L320 63 L337 117 L352 168 L353 184 L350 192 L337 197 L311 205 L273 206 L248 206 L230 200 L196 195 L143 187 L94 178 L78 172 L76 170 L74 169 L74 160 " fill="none" stroke="black" /></svg>