<?xml version="1.0" encoding="utf-8" ?>
<svg baseProfile="tiny" height="209" version="1.2" viewBox="-3 -3 322 209" width="322" xmlns="http://www.w3.org/2000/svg" xmlns:ev="http://www.w3.org/2001/xml-events" xmlns:xlink="http://www.w3.org/1999/xlink"><defs /><path d="M0 152 L1 151 L2 151 L5 151 L8 152 L15 155 L22 158 L29 160 L45 164 L62 166 L76 166 L88 166 L99 165 L112 159 L127 148 L137 139 L158 123 L172 112 L181 104 L185 100 L189 94 L196 85 L201 76 L204 72 L206 67 L208 63 L209 60 L211 57 L213 54 L219 45 L222 41 L225 38 L226 35 L229 32 L231 29 L232 26 L233 24 L236 19 L238 16 L239 12 L240 11 L241 8 L241 7 L242 5 L243 4 L244 2 L245 1 L246 0 L255 19 L267 60 L283 117 L298 167 L312 197 L315 201 L319 205 L320 207 L322 209 " fill="none" stroke="black" /></svg>