<?xml version="1.0" encoding="utf-8" ?>
<svg baseProfile="tiny" height="108" version="1.2" viewBox="-3 -3 575 108" width="575" xmlns="http://www.w3.org/2000/svg" xmlns:ev="http://www.w3.org/2001/xml-events" xmlns:xlink="http://www.w3.org/1999/xlink"><defs /><path d="M0 82 L1 84 L9 88 L13 89 L16 90 L21 92 L30 94 L46 96 L62 99 L77 102 L91 104 L112 107 L130 108 L147 108 L161 105 L175 97 L191 86 L204 75 L216 65 L228 56 L238 48 L244 40 L253 29 L262 23 L268 17 L272 14 L274 12 L275 11 L276 11 L277 11 L280 9 L289 5 L295 3 L300 1 L302 0 L304 0 L306 0 L311 0 L318 0 L325 0 L336 0 L342 0 L349 0 L352 0 L354 1 L357 3 L359 4 L363 6 L365 8 L367 10 L369 13 L371 16 L373 19 L376 23 L376 25 L377 28 L379 32 L379 34 L381 39 L384 45 L386 49 L387 52 L389 55 L391 58 L393 60 L395 63 L398 66 L400 69 L402 71 L406 75 L411 79 L417 83 L419 84 L420 86 L423 87 L427 88 L428 88 L432 89 L434 89 L438 89 L441 89 L445 88 L449 87 L451 85 L453 84 L455 82 L458 79 L458 77 L460 74 L461 70 L463 66 L464 62 L467 59 L469 57 L470 56 L473 53 L477 51 L480 49 L483 47 L485 47 L486 47 L488 48 L493 51 L495 53 L497 54 L499 56 L501 59 L503 60 L507 63 L509 65 L513 67 L515 69 L519 72 L525 75 L529 75 L532 76 L535 76 L539 76 L547 75 L553 73 L566 71 L571 70 L572 70 L574 70 L575 69 " fill="none" stroke="black" /></svg>