<?xml version="1.0" encoding="utf-8" ?>
<svg baseProfile="tiny" height="139" version="1.2" viewBox="-3 -3 241 139" width="241" xmlns="http://www.w3.org/2000/svg" xmlns:ev="http://www.w3.org/2001/xml-events" xmlns:xlink="http://www.w3.org/1999/xlink"><defs /><path d="M189 70 L190 68 L190 59 L190 47 L189 38 L185 31 L180 27 L177 26 L169 25 L155 23 L133 23 L110 23 L89 37 L80 48 L74 63 L72 74 L72 90 L74 100 L80 105 L87 111 L97 116 L112 124 L134 136 L143 138 L151 139 L160 134 L170 123 L181 105 L194 86 L194 80 L194 78 L189 73 L185 68 L181 62 " fill="none" stroke="black" /><path d="M189 70 L190 68 L190 59 L190 47 L189 38 L185 31 L180 27 L177 26 L169 25 L155 23 L133 23 L110 23 L89 37 L80 48 L74 63 L72 74 L72 90 L74 100 L80 105 L87 111 L97 116 L112 124 L134 136 L143 138 L151 139 L160 134 L170 123 L181 105 L194 86 L194 80 L194 78 L189 73 L185 68 L181 62 M0 109 L0 101 L1 91 L6 74 L18 53 L35 31 L53 21 L69 14 L91 8 L126 2 L173 0 L193 0 L198 4 L204 11 L211 23 L217 33 L220 39 L226 49 L235 61 L239 67 L240 71 L241 74 L241 80 L241 85 L241 86 " fill="none" stroke="black" /></svg>