<?xml version="1.0" encoding="utf-8" ?>
<svg baseProfile="tiny" height="148" version="1.2" viewBox="-3 -3 339 148" width="339" xmlns="http://www.w3.org/2000/svg" xmlns:ev="http://www.w3.org/2001/xml-events" xmlns:xlink="http://www.w3.org/1999/xlink"><defs /><path d="M0 148 L1 146 L5 129 L11 113 L29 88 L43 69 L49 64 L50 64 L68 73 L96 86 L133 100 L159 104 L190 104 L230 102 L252 87 L259 68 L267 34 L275 11 L276 3 L276 0 L287 10 L294 32 L308 56 L316 68 L323 81 L331 98 L336 109 L338 113 L339 114 " fill="none" stroke="black" /><path d="M0 148 L1 146 L5 129 L11 113 L29 88 L43 69 L49 64 L50 64 L68 73 L96 86 L133 100 L159 104 L190 104 L230 102 L252 87 L259 68 L267 34 L275 11 L276 3 L276 0 L287 10 L294 32 L308 56 L316 68 L323 81 L331 98 L336 109 L338 113 L339 114 M32 28 L36 28 L62 28 L115 29 L176 29 L198 29 L205 29 L211 29 L213 29 " fill="none" stroke="black" /></svg>