<?xml version="1.0" encoding="utf-8" ?>
<svg baseProfile="tiny" height="170" version="1.2" viewBox="-3 -3 540 170" width="540" xmlns="http://www.w3.org/2000/svg" xmlns:ev="http://www.w3.org/2001/xml-events" xmlns:xlink="http://www.w3.org/1999/xlink"><defs /><path d="M0 70 L0 71 L0 72 L0 73 L3 67 L9 59 L20 52 L25 48 L43 42 L46 41 L54 41 L57 46 L64 53 L71 61 L77 68 L82 72 L87 74 L94 76 L102 76 L109 73 L114 70 L122 64 L127 60 L133 55 L140 47 L146 41 L151 35 L156 32 L163 31 L168 31 L177 33 L186 38 L196 44 L205 53 L215 62 L225 68 L236 73 L250 76 L275 78 L292 78 " fill="none" stroke="black" /><path d="M0 70 L0 71 L0 72 L0 73 L3 67 L9 59 L20 52 L25 48 L43 42 L46 41 L54 41 L57 46 L64 53 L71 61 L77 68 L82 72 L87 74 L94 76 L102 76 L109 73 L114 70 L122 64 L127 60 L133 55 L140 47 L146 41 L151 35 L156 32 L163 31 L168 31 L177 33 L186 38 L196 44 L205 53 L215 62 L225 68 L236 73 L250 76 L275 78 L292 78 M142 170 L147 166 L152 161 L157 154 L163 148 L181 142 L197 142 L214 142 L226 149 L235 157 L243 163 L250 167 L257 168 L265 168 L280 162 L298 157 L320 156 L343 156 L371 157 " fill="none" stroke="black" /><path d="M0 70 L0 71 L0 72 L0 73 L3 67 L9 59 L20 52 L25 48 L43 42 L46 41 L54 41 L57 46 L64 53 L71 61 L77 68 L82 72 L87 74 L94 76 L102 76 L109 73 L114 70 L122 64 L127 60 L133 55 L140 47 L146 41 L151 35 L156 32 L163 31 L168 31 L177 33 L186 38 L196 44 L205 53 L215 62 L225 68 L236 73 L250 76 L275 78 L292 78 M142 170 L147 166 L152 161 L157 154 L163 148 L181 142 L197 142 L214 142 L226 149 L235 157 L243 163 L250 167 L257 168 L265 168 L280 162 L298 157 L320 156 L343 156 L371 157 M229 9 L230 9 L232 9 L242 8 L263 1 L277 0 L284 0 L293 10 L304 24 L315 37 L324 41 L334 42 L348 33 L365 26 L386 22 L406 22 L424 23 L437 24 " fill="none" stroke="black" /><path d="M0 70 L0 71 L0 72 L0 73 L3 67 L9 59 L20 52 L25 48 L43 42 L46 41 L54 41 L57 46 L64 53 L71 61 L77 68 L82 72 L87 74 L94 76 L102 76 L109 73 L114 70 L122 64 L127 60 L133 55 L140 47 L146 41 L151 35 L156 32 L163 31 L168 31 L177 33 L186 38 L196 44 L205 53 L215 62 L225 68 L236 73 L250 76 L275 78 L292 78 M142 170 L147 166 L152 161 L157 154 L163 148 L181 142 L197 142 L214 142 L226 149 L235 157 L243 163 L250 167 L257 168 L265 168 L280 162 L298 157 L320 156 L343 156 L371 157 M229 9 L230 9 L232 9 L242 8 L263 1 L277 0 L284 0 L293 10 L304 24 L315 37 L324 41 L334 42 L348 33 L365 26 L386 22 L406 22 L424 23 L437 24 M38 128 L43 127 L54 123 L70 118 L81 117 L87 117 L93 121 L98 126 L104 130 L112 133 L123 133 L136 129 L148 121 L161 115 L174 110 L185 109 L202 109 L220 109 L236 112 L250 116 L271 121 L288 123 L307 124 L336 124 " fill="none" stroke="black" /><path d="M0 70 L0 71 L0 72 L0 73 L3 67 L9 59 L20 52 L25 48 L43 42 L46 41 L54 41 L57 46 L64 53 L71 61 L77 68 L82 72 L87 74 L94 76 L102 76 L109 73 L114 70 L122 64 L127 60 L133 55 L140 47 L146 41 L151 35 L156 32 L163 31 L168 31 L177 33 L186 38 L196 44 L205 53 L215 62 L225 68 L236 73 L250 76 L275 78 L292 78 M142 170 L147 166 L152 161 L157 154 L163 148 L181 142 L197 142 L214 142 L226 149 L235 157 L243 163 L250 167 L257 168 L265 168 L280 162 L298 157 L320 156 L343 156 L371 157 M229 9 L230 9 L232 9 L242 8 L263 1 L277 0 L284 0 L293 10 L304 24 L315 37 L324 41 L334 42 L348 33 L365 26 L386 22 L406 22 L424 23 L437 24 M38 128 L43 127 L54 123 L70 118 L81 117 L87 117 L93 121 L98 126 L104 130 L112 133 L123 133 L136 129 L148 121 L161 115 L174 110 L185 109 L202 109 L220 109 L236 112 L250 116 L271 121 L288 123 L307 124 L336 124 M377 100 L377 99 L377 96 L377 92 L382 87 L386 84 L398 78 L408 75 L415 75 L418 78 L420 85 L422 91 L423 96 L426 98 L429 100 L432 101 L435 101 L437 99 L439 95 L442 90 L447 83 L452 74 L458 67 L461 64 L464 63 L468 63 L471 65 L476 69 L484 79 L493 89 L501 98 L513 106 L520 111 L526 113 L530 115 L535 115 L538 114 L540 112 " fill="none" stroke="black" /></svg>