<?xml version="1.0" encoding="utf-8" ?>
<svg baseProfile="tiny" height="183" version="1.2" viewBox="-3 -3 347 183" width="347" xmlns="http://www.w3.org/2000/svg" xmlns:ev="http://www.w3.org/2001/xml-events" xmlns:xlink="http://www.w3.org/1999/xlink"><defs /><path d="M0 45 L4 43 L6 43 L9 48 L12 64 L18 77 L29 91 L37 97 L43 98 L47 98 L55 94 L65 86 L72 76 L76 67 L82 49 L86 39 L89 34 L90 34 L92 36 L96 43 L111 55 L130 66 L136 70 L140 72 L141 75 L142 80 L143 87 L143 95 L144 101 L147 103 L150 103 L156 102 L160 96 L163 84 L169 63 L177 49 L182 46 L186 46 L196 55 L207 67 L216 80 L219 88 L221 92 L223 96 L225 100 L226 103 L227 104 L228 105 L231 105 L235 97 L236 81 L238 54 L241 39 L243 33 L245 33 L249 36 L253 40 L263 48 L271 57 L279 67 L284 83 L288 96 L290 105 L292 108 L293 109 L294 109 L296 107 L300 103 L302 98 L303 91 L306 75 L309 67 L311 64 L313 64 L326 71 L336 79 L342 84 L344 85 L345 87 L346 91 L346 98 L347 107 L347 116 L347 119 L342 119 " fill="none" stroke="black" /><path d="M0 45 L4 43 L6 43 L9 48 L12 64 L18 77 L29 91 L37 97 L43 98 L47 98 L55 94 L65 86 L72 76 L76 67 L82 49 L86 39 L89 34 L90 34 L92 36 L96 43 L111 55 L130 66 L136 70 L140 72 L141 75 L142 80 L143 87 L143 95 L144 101 L147 103 L150 103 L156 102 L160 96 L163 84 L169 63 L177 49 L182 46 L186 46 L196 55 L207 67 L216 80 L219 88 L221 92 L223 96 L225 100 L226 103 L227 104 L228 105 L231 105 L235 97 L236 81 L238 54 L241 39 L243 33 L245 33 L249 36 L253 40 L263 48 L271 57 L279 67 L284 83 L288 96 L290 105 L292 108 L293 109 L294 109 L296 107 L300 103 L302 98 L303 91 L306 75 L309 67 L311 64 L313 64 L326 71 L336 79 L342 84 L344 85 L345 87 L346 91 L346 98 L347 107 L347 116 L347 119 L342 119 M342 119 L342 121 L342 123 L341 125 L338 127 L331 129 L314 131 L287 131 L268 127 L259 125 L259 129 L263 139 L265 159 L264 174 L258 182 L253 183 L241 181 L222 167 L203 151 L191 143 L185 138 L184 137 L188 141 L192 146 L194 150 L194 155 L193 157 L180 157 L156 152 L124 145 L103 138 L99 136 L99 135 L100 135 L103 138 L108 140 L112 142 L114 143 L113 143 L112 142 " fill="none" stroke="black" /><path d="M0 45 L4 43 L6 43 L9 48 L12 64 L18 77 L29 91 L37 97 L43 98 L47 98 L55 94 L65 86 L72 76 L76 67 L82 49 L86 39 L89 34 L90 34 L92 36 L96 43 L111 55 L130 66 L136 70 L140 72 L141 75 L142 80 L143 87 L143 95 L144 101 L147 103 L150 103 L156 102 L160 96 L163 84 L169 63 L177 49 L182 46 L186 46 L196 55 L207 67 L216 80 L219 88 L221 92 L223 96 L225 100 L226 103 L227 104 L228 105 L231 105 L235 97 L236 81 L238 54 L241 39 L243 33 L245 33 L249 36 L253 40 L263 48 L271 57 L279 67 L284 83 L288 96 L290 105 L292 108 L293 109 L294 109 L296 107 L300 103 L302 98 L303 91 L306 75 L309 67 L311 64 L313 64 L326 71 L336 79 L342 84 L344 85 L345 87 L346 91 L346 98 L347 107 L347 116 L347 119 L342 119 M342 119 L342 121 L342 123 L341 125 L338 127 L331 129 L314 131 L287 131 L268 127 L259 125 L259 129 L263 139 L265 159 L264 174 L258 182 L253 183 L241 181 L222 167 L203 151 L191 143 L185 138 L184 137 L188 141 L192 146 L194 150 L194 155 L193 157 L180 157 L156 152 L124 145 L103 138 L99 136 L99 135 L100 135 L103 138 L108 140 L112 142 L114 143 L113 143 L112 142 M73 25 L78 22 L87 21 L96 21 L101 29 L106 39 L110 46 L113 48 L117 46 L121 39 L128 30 L136 23 L140 20 L143 19 L145 19 L147 25 L150 34 L153 40 L157 42 L164 36 L174 26 L191 11 L203 3 L207 0 " fill="none" stroke="black" /></svg>