<?xml version="1.0" encoding="utf-8" ?>
<svg baseProfile="tiny" height="95" version="1.2" viewBox="-3 -3 320 95" width="320" xmlns="http://www.w3.org/2000/svg" xmlns:ev="http://www.w3.org/2001/xml-events" xmlns:xlink="http://www.w3.org/1999/xlink"><defs /><path d="M0 67 L8 83 L9 85 L9 71 L11 61 L18 76 L22 89 L23 90 L21 70 L20 57 L20 58 L27 77 L32 89 L32 85 L30 65 L28 49 L37 48 L45 61 L49 75 L48 77 L42 62 L42 49 L44 49 L45 52 L45 47 L42 27 L49 21 L75 32 L89 49 L90 57 L69 57 L40 46 L30 35 L31 29 L70 28 L99 28 L107 28 L64 29 L41 31 L39 31 L78 31 L109 32 L115 36 L103 43 L100 46 L118 37 L168 26 L194 24 L183 24 L153 44 L137 66 L135 73 L135 69 L138 45 L138 35 L132 38 L130 47 L130 48 L132 47 L133 47 L134 52 L134 55 L124 38 L117 16 L119 9 L154 33 L187 65 L202 88 L199 92 L180 71 L175 50 L188 49 L201 53 L204 57 L184 50 L179 43 L181 41 L199 41 L214 45 L218 46 L217 46 L209 49 L206 56 L206 57 L211 47 L215 40 L216 40 L211 49 L209 57 L214 59 L241 60 L264 54 L271 50 L261 52 L255 55 L254 56 L254 54 L256 45 L248 45 L225 46 L222 48 L223 46 L230 43 L232 43 L234 43 L244 52 L258 70 L265 77 L266 71 L266 55 L277 37 L289 29 L292 31 L287 48 L279 58 L270 58 L264 37 L264 28 L268 28 L269 33 L265 42 L251 44 L237 35 L233 25 L251 22 L305 37 L320 56 L316 66 L305 71 L303 72 L308 75 L316 77 L318 77 L299 53 L270 9 L267 0 L282 17 L292 33 L295 37 L294 37 L288 40 L286 44 L286 59 L275 88 L265 95 L243 77 L220 56 L212 49 L213 49 " fill="none" stroke="black" /></svg>