<?xml version="1.0" encoding="utf-8" ?>
<svg baseProfile="tiny" height="491" version="1.2" viewBox="-3 -3 610 491" width="610" xmlns="http://www.w3.org/2000/svg" xmlns:ev="http://www.w3.org/2001/xml-events" xmlns:xlink="http://www.w3.org/1999/xlink"><defs /><path d="M186 270 L185 270 L185 268 L185 226 L185 157 L185 119 L185 120 L225 229 L257 321 L269 354 L266 349 L245 274 L241 234 L241 225 L248 242 L253 262 L253 265 L232 196 L236 134 L266 109 L306 138 L328 219 L319 297 L293 312 L274 275 L271 229 L272 225 L276 284 L277 347 L268 373 L246 300 L245 187 L245 157 L249 180 L264 271 L265 319 L252 299 L237 213 L237 173 L242 165 L262 214 L275 261 L276 282 L218 208 L183 144 L177 119 L204 123 L274 156 L311 194 L295 230 L231 252 L188 253 L186 238 L307 200 L408 182 L441 181 L251 289 L133 357 L80 385 L80 374 L172 297 L216 273 L214 287 L158 339 L128 362 L121 362 L292 175 L448 47 L505 0 L495 7 L401 133 L354 202 L326 236 L320 231 L320 212 L327 206 L332 212 L333 251 L317 325 L279 347 L190 336 L97 285 L63 246 L76 236 L187 234 L280 257 L301 269 " fill="none" stroke="black" /><path d="M186 270 L185 270 L185 268 L185 226 L185 157 L185 119 L185 120 L225 229 L257 321 L269 354 L266 349 L245 274 L241 234 L241 225 L248 242 L253 262 L253 265 L232 196 L236 134 L266 109 L306 138 L328 219 L319 297 L293 312 L274 275 L271 229 L272 225 L276 284 L277 347 L268 373 L246 300 L245 187 L245 157 L249 180 L264 271 L265 319 L252 299 L237 213 L237 173 L242 165 L262 214 L275 261 L276 282 L218 208 L183 144 L177 119 L204 123 L274 156 L311 194 L295 230 L231 252 L188 253 L186 238 L307 200 L408 182 L441 181 L251 289 L133 357 L80 385 L80 374 L172 297 L216 273 L214 287 L158 339 L128 362 L121 362 L292 175 L448 47 L505 0 L495 7 L401 133 L354 202 L326 236 L320 231 L320 212 L327 206 L332 212 L333 251 L317 325 L279 347 L190 336 L97 285 L63 246 L76 236 L187 234 L280 257 L301 269 M296 56 L296 64 L296 81 L296 91 " fill="none" stroke="black" /><circle cx="108" cy="74" fill="black" r="1" /><circle cx="104" cy="190" fill="black" r="1" /><circle cx="85" cy="477" fill="black" r="1" /><path d="M186 270 L185 270 L185 268 L185 226 L185 157 L185 119 L185 120 L225 229 L257 321 L269 354 L266 349 L245 274 L241 234 L241 225 L248 242 L253 262 L253 265 L232 196 L236 134 L266 109 L306 138 L328 219 L319 297 L293 312 L274 275 L271 229 L272 225 L276 284 L277 347 L268 373 L246 300 L245 187 L245 157 L249 180 L264 271 L265 319 L252 299 L237 213 L237 173 L242 165 L262 214 L275 261 L276 282 L218 208 L183 144 L177 119 L204 123 L274 156 L311 194 L295 230 L231 252 L188 253 L186 238 L307 200 L408 182 L441 181 L251 289 L133 357 L80 385 L80 374 L172 297 L216 273 L214 287 L158 339 L128 362 L121 362 L292 175 L448 47 L505 0 L495 7 L401 133 L354 202 L326 236 L320 231 L320 212 L327 206 L332 212 L333 251 L317 325 L279 347 L190 336 L97 285 L63 246 L76 236 L187 234 L280 257 L301 269 M296 56 L296 64 L296 81 L296 91 M268 416 L332 332 " fill="none" stroke="black" /><path d="M186 270 L185 270 L185 268 L185 226 L185 157 L185 119 L185 120 L225 229 L257 321 L269 354 L266 349 L245 274 L241 234 L241 225 L248 242 L253 262 L253 265 L232 196 L236 134 L266 109 L306 138 L328 219 L319 297 L293 312 L274 275 L271 229 L272 225 L276 284 L277 347 L268 373 L246 300 L245 187 L245 157 L249 180 L264 271 L265 319 L252 299 L237 213 L237 173 L242 165 L262 214 L275 261 L276 282 L218 208 L183 144 L177 119 L204 123 L274 156 L311 194 L295 230 L231 252 L188 253 L186 238 L307 200 L408 182 L441 181 L251 289 L133 357 L80 385 L80 374 L172 297 L216 273 L214 287 L158 339 L128 362 L121 362 L292 175 L448 47 L505 0 L495 7 L401 133 L354 202 L326 236 L320 231 L320 212 L327 206 L332 212 L333 251 L317 325 L279 347 L190 336 L97 285 L63 246 L76 236 L187 234 L280 257 L301 269 M296 56 L296 64 L296 81 L296 91 M268 416 L332 332 M410 237 L411 237 L412 237 " fill="none" stroke="black" /><circle cx="424" cy="321" fill="black" r="1" /><path d="M186 270 L185 270 L185 268 L185 226 L185 157 L185 119 L185 120 L225 229 L257 321 L269 354 L266 349 L245 274 L241 234 L241 225 L248 242 L253 262 L253 265 L232 196 L236 134 L266 109 L306 138 L328 219 L319 297 L293 312 L274 275 L271 229 L272 225 L276 284 L277 347 L268 373 L246 300 L245 187 L245 157 L249 180 L264 271 L265 319 L252 299 L237 213 L237 173 L242 165 L262 214 L275 261 L276 282 L218 208 L183 144 L177 119 L204 123 L274 156 L311 194 L295 230 L231 252 L188 253 L186 238 L307 200 L408 182 L441 181 L251 289 L133 357 L80 385 L80 374 L172 297 L216 273 L214 287 L158 339 L128 362 L121 362 L292 175 L448 47 L505 0 L495 7 L401 133 L354 202 L326 236 L320 231 L320 212 L327 206 L332 212 L333 251 L317 325 L279 347 L190 336 L97 285 L63 246 L76 236 L187 234 L280 257 L301 269 M296 56 L296 64 L296 81 L296 91 M268 416 L332 332 M410 237 L411 237 L412 237 M465 174 L465 164 " fill="none" stroke="black" /><path d="M186 270 L185 270 L185 268 L185 226 L185 157 L185 119 L185 120 L225 229 L257 321 L269 354 L266 349 L245 274 L241 234 L241 225 L248 242 L253 262 L253 265 L232 196 L236 134 L266 109 L306 138 L328 219 L319 297 L293 312 L274 275 L271 229 L272 225 L276 284 L277 347 L268 373 L246 300 L245 187 L245 157 L249 180 L264 271 L265 319 L252 299 L237 213 L237 173 L242 165 L262 214 L275 261 L276 282 L218 208 L183 144 L177 119 L204 123 L274 156 L311 194 L295 230 L231 252 L188 253 L186 238 L307 200 L408 182 L441 181 L251 289 L133 357 L80 385 L80 374 L172 297 L216 273 L214 287 L158 339 L128 362 L121 362 L292 175 L448 47 L505 0 L495 7 L401 133 L354 202 L326 236 L320 231 L320 212 L327 206 L332 212 L333 251 L317 325 L279 347 L190 336 L97 285 L63 246 L76 236 L187 234 L280 257 L301 269 M296 56 L296 64 L296 81 L296 91 M268 416 L332 332 M410 237 L411 237 L412 237 M465 174 L465 164 M462 126 L461 126 L458 126 L346 145 " fill="none" stroke="black" /><circle cx="0" cy="237" fill="black" r="1" /><circle cx="211" cy="91" fill="black" r="1" /><path d="M186 270 L185 270 L185 268 L185 226 L185 157 L185 119 L185 120 L225 229 L257 321 L269 354 L266 349 L245 274 L241 234 L241 225 L248 242 L253 262 L253 265 L232 196 L236 134 L266 109 L306 138 L328 219 L319 297 L293 312 L274 275 L271 229 L272 225 L276 284 L277 347 L268 373 L246 300 L245 187 L245 157 L249 180 L264 271 L265 319 L252 299 L237 213 L237 173 L242 165 L262 214 L275 261 L276 282 L218 208 L183 144 L177 119 L204 123 L274 156 L311 194 L295 230 L231 252 L188 253 L186 238 L307 200 L408 182 L441 181 L251 289 L133 357 L80 385 L80 374 L172 297 L216 273 L214 287 L158 339 L128 362 L121 362 L292 175 L448 47 L505 0 L495 7 L401 133 L354 202 L326 236 L320 231 L320 212 L327 206 L332 212 L333 251 L317 325 L279 347 L190 336 L97 285 L63 246 L76 236 L187 234 L280 257 L301 269 M296 56 L296 64 L296 81 L296 91 M268 416 L332 332 M410 237 L411 237 L412 237 M465 174 L465 164 M462 126 L461 126 L458 126 L346 145 M26 350 L14 365 " fill="none" stroke="black" /><path d="M186 270 L185 270 L185 268 L185 226 L185 157 L185 119 L185 120 L225 229 L257 321 L269 354 L266 349 L245 274 L241 234 L241 225 L248 242 L253 262 L253 265 L232 196 L236 134 L266 109 L306 138 L328 219 L319 297 L293 312 L274 275 L271 229 L272 225 L276 284 L277 347 L268 373 L246 300 L245 187 L245 157 L249 180 L264 271 L265 319 L252 299 L237 213 L237 173 L242 165 L262 214 L275 261 L276 282 L218 208 L183 144 L177 119 L204 123 L274 156 L311 194 L295 230 L231 252 L188 253 L186 238 L307 200 L408 182 L441 181 L251 289 L133 357 L80 385 L80 374 L172 297 L216 273 L214 287 L158 339 L128 362 L121 362 L292 175 L448 47 L505 0 L495 7 L401 133 L354 202 L326 236 L320 231 L320 212 L327 206 L332 212 L333 251 L317 325 L279 347 L190 336 L97 285 L63 246 L76 236 L187 234 L280 257 L301 269 M296 56 L296 64 L296 81 L296 91 M268 416 L332 332 M410 237 L411 237 L412 237 M465 174 L465 164 M462 126 L461 126 L458 126 L346 145 M26 350 L14 365 M3 397 L41 397 L93 386 " fill="none" stroke="black" /><path d="M186 270 L185 270 L185 268 L185 226 L185 157 L185 119 L185 120 L225 229 L257 321 L269 354 L266 349 L245 274 L241 234 L241 225 L248 242 L253 262 L253 265 L232 196 L236 134 L266 109 L306 138 L328 219 L319 297 L293 312 L274 275 L271 229 L272 225 L276 284 L277 347 L268 373 L246 300 L245 187 L245 157 L249 180 L264 271 L265 319 L252 299 L237 213 L237 173 L242 165 L262 214 L275 261 L276 282 L218 208 L183 144 L177 119 L204 123 L274 156 L311 194 L295 230 L231 252 L188 253 L186 238 L307 200 L408 182 L441 181 L251 289 L133 357 L80 385 L80 374 L172 297 L216 273 L214 287 L158 339 L128 362 L121 362 L292 175 L448 47 L505 0 L495 7 L401 133 L354 202 L326 236 L320 231 L320 212 L327 206 L332 212 L333 251 L317 325 L279 347 L190 336 L97 285 L63 246 L76 236 L187 234 L280 257 L301 269 M296 56 L296 64 L296 81 L296 91 M268 416 L332 332 M410 237 L411 237 L412 237 M465 174 L465 164 M462 126 L461 126 L458 126 L346 145 M26 350 L14 365 M3 397 L41 397 L93 386 M86 147 L78 132 L74 120 L74 113 " fill="none" stroke="black" /><path d="M186 270 L185 270 L185 268 L185 226 L185 157 L185 119 L185 120 L225 229 L257 321 L269 354 L266 349 L245 274 L241 234 L241 225 L248 242 L253 262 L253 265 L232 196 L236 134 L266 109 L306 138 L328 219 L319 297 L293 312 L274 275 L271 229 L272 225 L276 284 L277 347 L268 373 L246 300 L245 187 L245 157 L249 180 L264 271 L265 319 L252 299 L237 213 L237 173 L242 165 L262 214 L275 261 L276 282 L218 208 L183 144 L177 119 L204 123 L274 156 L311 194 L295 230 L231 252 L188 253 L186 238 L307 200 L408 182 L441 181 L251 289 L133 357 L80 385 L80 374 L172 297 L216 273 L214 287 L158 339 L128 362 L121 362 L292 175 L448 47 L505 0 L495 7 L401 133 L354 202 L326 236 L320 231 L320 212 L327 206 L332 212 L333 251 L317 325 L279 347 L190 336 L97 285 L63 246 L76 236 L187 234 L280 257 L301 269 M296 56 L296 64 L296 81 L296 91 M268 416 L332 332 M410 237 L411 237 L412 237 M465 174 L465 164 M462 126 L461 126 L458 126 L346 145 M26 350 L14 365 M3 397 L41 397 L93 386 M86 147 L78 132 L74 120 L74 113 M610 288 L605 296 L574 330 L543 364 " fill="none" stroke="black" /><path d="M186 270 L185 270 L185 268 L185 226 L185 157 L185 119 L185 120 L225 229 L257 321 L269 354 L266 349 L245 274 L241 234 L241 225 L248 242 L253 262 L253 265 L232 196 L236 134 L266 109 L306 138 L328 219 L319 297 L293 312 L274 275 L271 229 L272 225 L276 284 L277 347 L268 373 L246 300 L245 187 L245 157 L249 180 L264 271 L265 319 L252 299 L237 213 L237 173 L242 165 L262 214 L275 261 L276 282 L218 208 L183 144 L177 119 L204 123 L274 156 L311 194 L295 230 L231 252 L188 253 L186 238 L307 200 L408 182 L441 181 L251 289 L133 357 L80 385 L80 374 L172 297 L216 273 L214 287 L158 339 L128 362 L121 362 L292 175 L448 47 L505 0 L495 7 L401 133 L354 202 L326 236 L320 231 L320 212 L327 206 L332 212 L333 251 L317 325 L279 347 L190 336 L97 285 L63 246 L76 236 L187 234 L280 257 L301 269 M296 56 L296 64 L296 81 L296 91 M268 416 L332 332 M410 237 L411 237 L412 237 M465 174 L465 164 M462 126 L461 126 L458 126 L346 145 M26 350 L14 365 M3 397 L41 397 L93 386 M86 147 L78 132 L74 120 L74 113 M610 288 L605 296 L574 330 L543 364 M267 410 L264 410 L259 410 L254 410 L250 408 L249 406 " fill="none" stroke="black" /><path d="M186 270 L185 270 L185 268 L185 226 L185 157 L185 119 L185 120 L225 229 L257 321 L269 354 L266 349 L245 274 L241 234 L241 225 L248 242 L253 262 L253 265 L232 196 L236 134 L266 109 L306 138 L328 219 L319 297 L293 312 L274 275 L271 229 L272 225 L276 284 L277 347 L268 373 L246 300 L245 187 L245 157 L249 180 L264 271 L265 319 L252 299 L237 213 L237 173 L242 165 L262 214 L275 261 L276 282 L218 208 L183 144 L177 119 L204 123 L274 156 L311 194 L295 230 L231 252 L188 253 L186 238 L307 200 L408 182 L441 181 L251 289 L133 357 L80 385 L80 374 L172 297 L216 273 L214 287 L158 339 L128 362 L121 362 L292 175 L448 47 L505 0 L495 7 L401 133 L354 202 L326 236 L320 231 L320 212 L327 206 L332 212 L333 251 L317 325 L279 347 L190 336 L97 285 L63 246 L76 236 L187 234 L280 257 L301 269 M296 56 L296 64 L296 81 L296 91 M268 416 L332 332 M410 237 L411 237 L412 237 M465 174 L465 164 M462 126 L461 126 L458 126 L346 145 M26 350 L14 365 M3 397 L41 397 L93 386 M86 147 L78 132 L74 120 L74 113 M610 288 L605 296 L574 330 L543 364 M267 410 L264 410 L259 410 L254 410 L250 408 L249 406 M414 308 L428 284 L435 265 L442 244 L449 226 L453 215 L455 210 L457 207 " fill="none" stroke="black" /><path d="M186 270 L185 270 L185 268 L185 226 L185 157 L185 119 L185 120 L225 229 L257 321 L269 354 L266 349 L245 274 L241 234 L241 225 L248 242 L253 262 L253 265 L232 196 L236 134 L266 109 L306 138 L328 219 L319 297 L293 312 L274 275 L271 229 L272 225 L276 284 L277 347 L268 373 L246 300 L245 187 L245 157 L249 180 L264 271 L265 319 L252 299 L237 213 L237 173 L242 165 L262 214 L275 261 L276 282 L218 208 L183 144 L177 119 L204 123 L274 156 L311 194 L295 230 L231 252 L188 253 L186 238 L307 200 L408 182 L441 181 L251 289 L133 357 L80 385 L80 374 L172 297 L216 273 L214 287 L158 339 L128 362 L121 362 L292 175 L448 47 L505 0 L495 7 L401 133 L354 202 L326 236 L320 231 L320 212 L327 206 L332 212 L333 251 L317 325 L279 347 L190 336 L97 285 L63 246 L76 236 L187 234 L280 257 L301 269 M296 56 L296 64 L296 81 L296 91 M268 416 L332 332 M410 237 L411 237 L412 237 M465 174 L465 164 M462 126 L461 126 L458 126 L346 145 M26 350 L14 365 M3 397 L41 397 L93 386 M86 147 L78 132 L74 120 L74 113 M610 288 L605 296 L574 330 L543 364 M267 410 L264 410 L259 410 L254 410 L250 408 L249 406 M414 308 L428 284 L435 265 L442 244 L449 226 L453 215 L455 210 L457 207 M499 120 L504 120 " fill="none" stroke="black" /><path d="M186 270 L185 270 L185 268 L185 226 L185 157 L185 119 L185 120 L225 229 L257 321 L269 354 L266 349 L245 274 L241 234 L241 225 L248 242 L253 262 L253 265 L232 196 L236 134 L266 109 L306 138 L328 219 L319 297 L293 312 L274 275 L271 229 L272 225 L276 284 L277 347 L268 373 L246 300 L245 187 L245 157 L249 180 L264 271 L265 319 L252 299 L237 213 L237 173 L242 165 L262 214 L275 261 L276 282 L218 208 L183 144 L177 119 L204 123 L274 156 L311 194 L295 230 L231 252 L188 253 L186 238 L307 200 L408 182 L441 181 L251 289 L133 357 L80 385 L80 374 L172 297 L216 273 L214 287 L158 339 L128 362 L121 362 L292 175 L448 47 L505 0 L495 7 L401 133 L354 202 L326 236 L320 231 L320 212 L327 206 L332 212 L333 251 L317 325 L279 347 L190 336 L97 285 L63 246 L76 236 L187 234 L280 257 L301 269 M296 56 L296 64 L296 81 L296 91 M268 416 L332 332 M410 237 L411 237 L412 237 M465 174 L465 164 M462 126 L461 126 L458 126 L346 145 M26 350 L14 365 M3 397 L41 397 L93 386 M86 147 L78 132 L74 120 L74 113 M610 288 L605 296 L574 330 L543 364 M267 410 L264 410 L259 410 L254 410 L250 408 L249 406 M414 308 L428 284 L435 265 L442 244 L449 226 L453 215 L455 210 L457 207 M499 120 L504 120 M476 35 L445 9 L419 6 " fill="none" stroke="black" /><path d="M186 270 L185 270 L185 268 L185 226 L185 157 L185 119 L185 120 L225 229 L257 321 L269 354 L266 349 L245 274 L241 234 L241 225 L248 242 L253 262 L253 265 L232 196 L236 134 L266 109 L306 138 L328 219 L319 297 L293 312 L274 275 L271 229 L272 225 L276 284 L277 347 L268 373 L246 300 L245 187 L245 157 L249 180 L264 271 L265 319 L252 299 L237 213 L237 173 L242 165 L262 214 L275 261 L276 282 L218 208 L183 144 L177 119 L204 123 L274 156 L311 194 L295 230 L231 252 L188 253 L186 238 L307 200 L408 182 L441 181 L251 289 L133 357 L80 385 L80 374 L172 297 L216 273 L214 287 L158 339 L128 362 L121 362 L292 175 L448 47 L505 0 L495 7 L401 133 L354 202 L326 236 L320 231 L320 212 L327 206 L332 212 L333 251 L317 325 L279 347 L190 336 L97 285 L63 246 L76 236 L187 234 L280 257 L301 269 M296 56 L296 64 L296 81 L296 91 M268 416 L332 332 M410 237 L411 237 L412 237 M465 174 L465 164 M462 126 L461 126 L458 126 L346 145 M26 350 L14 365 M3 397 L41 397 L93 386 M86 147 L78 132 L74 120 L74 113 M610 288 L605 296 L574 330 L543 364 M267 410 L264 410 L259 410 L254 410 L250 408 L249 406 M414 308 L428 284 L435 265 L442 244 L449 226 L453 215 L455 210 L457 207 M499 120 L504 120 M476 35 L445 9 L419 6 M329 28 L315 33 L290 46 L262 62 " fill="none" stroke="black" /><path d="M186 270 L185 270 L185 268 L185 226 L185 157 L185 119 L185 120 L225 229 L257 321 L269 354 L266 349 L245 274 L241 234 L241 225 L248 242 L253 262 L253 265 L232 196 L236 134 L266 109 L306 138 L328 219 L319 297 L293 312 L274 275 L271 229 L272 225 L276 284 L277 347 L268 373 L246 300 L245 187 L245 157 L249 180 L264 271 L265 319 L252 299 L237 213 L237 173 L242 165 L262 214 L275 261 L276 282 L218 208 L183 144 L177 119 L204 123 L274 156 L311 194 L295 230 L231 252 L188 253 L186 238 L307 200 L408 182 L441 181 L251 289 L133 357 L80 385 L80 374 L172 297 L216 273 L214 287 L158 339 L128 362 L121 362 L292 175 L448 47 L505 0 L495 7 L401 133 L354 202 L326 236 L320 231 L320 212 L327 206 L332 212 L333 251 L317 325 L279 347 L190 336 L97 285 L63 246 L76 236 L187 234 L280 257 L301 269 M296 56 L296 64 L296 81 L296 91 M268 416 L332 332 M410 237 L411 237 L412 237 M465 174 L465 164 M462 126 L461 126 L458 126 L346 145 M26 350 L14 365 M3 397 L41 397 L93 386 M86 147 L78 132 L74 120 L74 113 M610 288 L605 296 L574 330 L543 364 M267 410 L264 410 L259 410 L254 410 L250 408 L249 406 M414 308 L428 284 L435 265 L442 244 L449 226 L453 215 L455 210 L457 207 M499 120 L504 120 M476 35 L445 9 L419 6 M329 28 L315 33 L290 46 L262 62 M138 491 L138 483 L138 468 " fill="none" stroke="black" /></svg>