<?xml version="1.0" encoding="utf-8" ?>
<svg baseProfile="tiny" height="413" version="1.2" viewBox="-3 -3 553 413" width="553" xmlns="http://www.w3.org/2000/svg" xmlns:ev="http://www.w3.org/2001/xml-events" xmlns:xlink="http://www.w3.org/1999/xlink"><defs /><path d="M0 228 L0 230 L0 235 L3 243 L6 255 L9 265 L14 274 L22 286 L31 295 L41 302 L51 306 L61 308 L70 308 L76 306 L82 300 L87 289 L89 276 L92 254 L96 227 L102 193 L109 156 L119 115 L127 79 L136 57 L145 49 L154 48 L163 56 L172 70 L183 90 L190 111 L195 128 L197 149 L199 168 L201 192 L202 237 L202 286 L202 333 L202 364 L206 381 L212 388 L222 390 L233 390 L242 388 L252 379 L256 371 L260 355 L262 336 L265 312 L271 272 L276 223 L280 159 L288 66 L291 33 L296 18 L308 5 L322 0 L332 1 L339 14 L347 44 L361 105 L373 174 L378 262 L378 326 L377 369 L376 393 L376 407 L379 412 L383 413 L386 412 L390 401 L393 387 L399 363 L406 331 L414 301 L420 262 L424 211 L424 163 L422 111 L420 78 L420 65 L423 55 L429 52 L434 51 L440 56 L448 64 L458 76 L470 94 L478 113 L482 135 L485 161 L486 194 L486 235 L486 274 L487 309 L491 339 L498 360 L508 376 L515 380 L521 381 L525 377 L527 366 L530 353 L532 329 L537 281 L546 209 L552 114 L553 62 L553 45 " fill="none" stroke="black" /><path d="M0 228 L0 230 L0 235 L3 243 L6 255 L9 265 L14 274 L22 286 L31 295 L41 302 L51 306 L61 308 L70 308 L76 306 L82 300 L87 289 L89 276 L92 254 L96 227 L102 193 L109 156 L119 115 L127 79 L136 57 L145 49 L154 48 L163 56 L172 70 L183 90 L190 111 L195 128 L197 149 L199 168 L201 192 L202 237 L202 286 L202 333 L202 364 L206 381 L212 388 L222 390 L233 390 L242 388 L252 379 L256 371 L260 355 L262 336 L265 312 L271 272 L276 223 L280 159 L288 66 L291 33 L296 18 L308 5 L322 0 L332 1 L339 14 L347 44 L361 105 L373 174 L378 262 L378 326 L377 369 L376 393 L376 407 L379 412 L383 413 L386 412 L390 401 L393 387 L399 363 L406 331 L414 301 L420 262 L424 211 L424 163 L422 111 L420 78 L420 65 L423 55 L429 52 L434 51 L440 56 L448 64 L458 76 L470 94 L478 113 L482 135 L485 161 L486 194 L486 235 L486 274 L487 309 L491 339 L498 360 L508 376 L515 380 L521 381 L525 377 L527 366 L530 353 L532 329 L537 281 L546 209 L552 114 L553 62 L553 45 M12 108 L25 108 L76 108 L156 108 L243 108 L335 109 L435 118 L476 124 L487 124 " fill="none" stroke="black" /><path d="M0 228 L0 230 L0 235 L3 243 L6 255 L9 265 L14 274 L22 286 L31 295 L41 302 L51 306 L61 308 L70 308 L76 306 L82 300 L87 289 L89 276 L92 254 L96 227 L102 193 L109 156 L119 115 L127 79 L136 57 L145 49 L154 48 L163 56 L172 70 L183 90 L190 111 L195 128 L197 149 L199 168 L201 192 L202 237 L202 286 L202 333 L202 364 L206 381 L212 388 L222 390 L233 390 L242 388 L252 379 L256 371 L260 355 L262 336 L265 312 L271 272 L276 223 L280 159 L288 66 L291 33 L296 18 L308 5 L322 0 L332 1 L339 14 L347 44 L361 105 L373 174 L378 262 L378 326 L377 369 L376 393 L376 407 L379 412 L383 413 L386 412 L390 401 L393 387 L399 363 L406 331 L414 301 L420 262 L424 211 L424 163 L422 111 L420 78 L420 65 L423 55 L429 52 L434 51 L440 56 L448 64 L458 76 L470 94 L478 113 L482 135 L485 161 L486 194 L486 235 L486 274 L487 309 L491 339 L498 360 L508 376 L515 380 L521 381 L525 377 L527 366 L530 353 L532 329 L537 281 L546 209 L552 114 L553 62 L553 45 M12 108 L25 108 L76 108 L156 108 L243 108 L335 109 L435 118 L476 124 L487 124 M5 179 L8 179 L31 179 L100 187 L154 193 L282 206 L411 220 L501 227 " fill="none" stroke="black" /><path d="M0 228 L0 230 L0 235 L3 243 L6 255 L9 265 L14 274 L22 286 L31 295 L41 302 L51 306 L61 308 L70 308 L76 306 L82 300 L87 289 L89 276 L92 254 L96 227 L102 193 L109 156 L119 115 L127 79 L136 57 L145 49 L154 48 L163 56 L172 70 L183 90 L190 111 L195 128 L197 149 L199 168 L201 192 L202 237 L202 286 L202 333 L202 364 L206 381 L212 388 L222 390 L233 390 L242 388 L252 379 L256 371 L260 355 L262 336 L265 312 L271 272 L276 223 L280 159 L288 66 L291 33 L296 18 L308 5 L322 0 L332 1 L339 14 L347 44 L361 105 L373 174 L378 262 L378 326 L377 369 L376 393 L376 407 L379 412 L383 413 L386 412 L390 401 L393 387 L399 363 L406 331 L414 301 L420 262 L424 211 L424 163 L422 111 L420 78 L420 65 L423 55 L429 52 L434 51 L440 56 L448 64 L458 76 L470 94 L478 113 L482 135 L485 161 L486 194 L486 235 L486 274 L487 309 L491 339 L498 360 L508 376 L515 380 L521 381 L525 377 L527 366 L530 353 L532 329 L537 281 L546 209 L552 114 L553 62 L553 45 M12 108 L25 108 L76 108 L156 108 L243 108 L335 109 L435 118 L476 124 L487 124 M5 179 L8 179 L31 179 L100 187 L154 193 L282 206 L411 220 L501 227 M20 300 L31 300 L87 300 L192 305 L325 316 L467 334 L553 354 " fill="none" stroke="black" /></svg>