<?xml version="1.0" encoding="utf-8" ?>
<svg baseProfile="tiny" height="459" version="1.2" viewBox="-3 -3 591 459" width="591" xmlns="http://www.w3.org/2000/svg" xmlns:ev="http://www.w3.org/2001/xml-events" xmlns:xlink="http://www.w3.org/1999/xlink"><defs /><path d="M106 296 L106 292 L106 279 L106 197 L106 127 L106 95 L115 133 L135 219 L149 295 L153 323 L154 325 L149 261 L149 185 L153 142 L154 148 L159 228 L162 305 L163 342 L162 326 L161 231 L168 184 L170 174 L172 201 L179 297 L183 342 L184 353 L184 335 L194 232 L201 203 L204 200 L205 252 L205 333 L205 367 L204 368 L205 275 L233 160 L244 113 L246 115 L246 205 L244 327 L241 378 L239 384 L244 245 L266 151 L277 97 L278 107 L282 203 L284 294 L286 332 L286 328 L289 224 L307 118 L313 90 L314 119 L321 248 L322 338 L322 370 L321 361 L336 215 L349 169 L354 154 L356 165 L358 251 L358 333 L358 350 L358 343 L365 216 L415 56 L435 0 L436 5 L433 109 L406 226 L386 304 L383 316 L382 316 " fill="none" stroke="black" /><path d="M106 296 L106 292 L106 279 L106 197 L106 127 L106 95 L115 133 L135 219 L149 295 L153 323 L154 325 L149 261 L149 185 L153 142 L154 148 L159 228 L162 305 L163 342 L162 326 L161 231 L168 184 L170 174 L172 201 L179 297 L183 342 L184 353 L184 335 L194 232 L201 203 L204 200 L205 252 L205 333 L205 367 L204 368 L205 275 L233 160 L244 113 L246 115 L246 205 L244 327 L241 378 L239 384 L244 245 L266 151 L277 97 L278 107 L282 203 L284 294 L286 332 L286 328 L289 224 L307 118 L313 90 L314 119 L321 248 L322 338 L322 370 L321 361 L336 215 L349 169 L354 154 L356 165 L358 251 L358 333 L358 350 L358 343 L365 216 L415 56 L435 0 L436 5 L433 109 L406 226 L386 304 L383 316 L382 316 M76 142 L79 142 L158 157 L356 181 L467 199 L499 211 L502 217 L493 222 L402 239 L209 268 L57 280 L12 279 L9 275 L107 275 L280 293 L377 309 L408 316 L371 315 L181 307 L45 307 L0 307 L10 312 L133 335 L283 357 L343 367 L360 373 L337 381 L221 397 L151 404 L134 405 L214 404 L463 442 L553 457 L591 459 L578 456 L551 447 " fill="none" stroke="black" /></svg>