<?xml version="1.0" encoding="utf-8" ?>
<svg baseProfile="tiny" height="299" version="1.2" viewBox="-3 -3 716 299" width="716" xmlns="http://www.w3.org/2000/svg" xmlns:ev="http://www.w3.org/2001/xml-events" xmlns:xlink="http://www.w3.org/1999/xlink"><defs /><path d="M212 94 L213 95 L213 98 L214 103 L214 107 L210 108 L182 77 L150 28 L146 7 L196 39 L267 127 L295 178 L300 201 L273 180 L222 101 L224 28 L325 20 L410 75 L429 100 L376 103 L233 92 L159 73 L145 69 L214 53 L329 40 L319 83 L90 251 L23 291 L0 299 L198 174 L500 35 L585 3 L518 13 L297 99 L240 126 L234 126 L313 73 L358 51 L350 58 L284 105 L238 128 L231 120 L241 64 L289 44 L324 88 L337 132 L323 147 L210 131 L67 57 L30 28 L47 22 L165 59 L236 91 L224 103 L111 71 L62 49 L66 46 L209 68 L358 111 L417 126 L379 100 L330 56 L314 36 L319 47 L350 144 L362 200 L364 216 L356 110 L357 37 L362 0 L381 70 L397 136 L405 173 L406 167 L404 81 L416 26 L424 14 L426 24 L426 38 L422 16 L421 3 L421 4 L421 53 L414 150 " fill="none" stroke="black" /><path d="M212 94 L213 95 L213 98 L214 103 L214 107 L210 108 L182 77 L150 28 L146 7 L196 39 L267 127 L295 178 L300 201 L273 180 L222 101 L224 28 L325 20 L410 75 L429 100 L376 103 L233 92 L159 73 L145 69 L214 53 L329 40 L319 83 L90 251 L23 291 L0 299 L198 174 L500 35 L585 3 L518 13 L297 99 L240 126 L234 126 L313 73 L358 51 L350 58 L284 105 L238 128 L231 120 L241 64 L289 44 L324 88 L337 132 L323 147 L210 131 L67 57 L30 28 L47 22 L165 59 L236 91 L224 103 L111 71 L62 49 L66 46 L209 68 L358 111 L417 126 L379 100 L330 56 L314 36 L319 47 L350 144 L362 200 L364 216 L356 110 L357 37 L362 0 L381 70 L397 136 L405 173 L406 167 L404 81 L416 26 L424 14 L426 24 L426 38 L422 16 L421 3 L421 4 L421 53 L414 150 M464 112 L464 111 L489 93 L571 57 L591 51 L592 51 L566 60 L538 67 L532 68 L551 55 L620 33 L658 24 L663 32 L659 46 L664 55 L696 77 L716 125 L698 184 L678 211 L671 213 L668 201 " fill="none" stroke="black" /><path d="M212 94 L213 95 L213 98 L214 103 L214 107 L210 108 L182 77 L150 28 L146 7 L196 39 L267 127 L295 178 L300 201 L273 180 L222 101 L224 28 L325 20 L410 75 L429 100 L376 103 L233 92 L159 73 L145 69 L214 53 L329 40 L319 83 L90 251 L23 291 L0 299 L198 174 L500 35 L585 3 L518 13 L297 99 L240 126 L234 126 L313 73 L358 51 L350 58 L284 105 L238 128 L231 120 L241 64 L289 44 L324 88 L337 132 L323 147 L210 131 L67 57 L30 28 L47 22 L165 59 L236 91 L224 103 L111 71 L62 49 L66 46 L209 68 L358 111 L417 126 L379 100 L330 56 L314 36 L319 47 L350 144 L362 200 L364 216 L356 110 L357 37 L362 0 L381 70 L397 136 L405 173 L406 167 L404 81 L416 26 L424 14 L426 24 L426 38 L422 16 L421 3 L421 4 L421 53 L414 150 M464 112 L464 111 L489 93 L571 57 L591 51 L592 51 L566 60 L538 67 L532 68 L551 55 L620 33 L658 24 L663 32 L659 46 L664 55 L696 77 L716 125 L698 184 L678 211 L671 213 L668 201 M295 229 L296 229 L344 229 L435 229 L481 229 L502 229 L503 231 L503 233 L505 236 L513 239 " fill="none" stroke="black" /></svg>