<?xml version="1.0" encoding="utf-8" ?>
<svg baseProfile="tiny" height="274" version="1.2" viewBox="-3 -3 561 274" width="561" xmlns="http://www.w3.org/2000/svg" xmlns:ev="http://www.w3.org/2001/xml-events" xmlns:xlink="http://www.w3.org/1999/xlink"><defs /><path d="M175 97 L200 93 L230 91 L260 90 L293 90 L313 91 L337 94 L355 98 L374 105 L393 111 L412 119 L434 127 L457 135 L493 150 L525 159 L561 163 " fill="none" stroke="black" /><path d="M175 97 L200 93 L230 91 L260 90 L293 90 L313 91 L337 94 L355 98 L374 105 L393 111 L412 119 L434 127 L457 135 L493 150 L525 159 L561 163 M174 166 L176 166 L190 163 L213 159 L231 158 L248 158 L267 160 L287 168 L315 177 L339 181 L370 182 " fill="none" stroke="black" /><path d="M175 97 L200 93 L230 91 L260 90 L293 90 L313 91 L337 94 L355 98 L374 105 L393 111 L412 119 L434 127 L457 135 L493 150 L525 159 L561 163 M174 166 L176 166 L190 163 L213 159 L231 158 L248 158 L267 160 L287 168 L315 177 L339 181 L370 182 M248 120 L253 117 L291 95 L331 70 L376 45 L414 21 L436 5 L444 0 L447 0 L448 4 L449 13 L454 29 L460 50 L464 64 L466 77 L466 93 L466 104 L462 112 L458 118 L449 121 L439 121 L423 121 L400 116 L373 107 L348 98 L334 92 L326 87 L323 85 L322 84 L321 83 " fill="none" stroke="black" /><path d="M175 97 L200 93 L230 91 L260 90 L293 90 L313 91 L337 94 L355 98 L374 105 L393 111 L412 119 L434 127 L457 135 L493 150 L525 159 L561 163 M174 166 L176 166 L190 163 L213 159 L231 158 L248 158 L267 160 L287 168 L315 177 L339 181 L370 182 M248 120 L253 117 L291 95 L331 70 L376 45 L414 21 L436 5 L444 0 L447 0 L448 4 L449 13 L454 29 L460 50 L464 64 L466 77 L466 93 L466 104 L462 112 L458 118 L449 121 L439 121 L423 121 L400 116 L373 107 L348 98 L334 92 L326 87 L323 85 L322 84 L321 83 M325 84 L323 84 L317 81 L306 72 L288 65 L267 59 L246 55 L234 52 L224 52 L218 52 L212 56 L207 60 L202 64 L197 68 L191 75 L180 83 L168 89 L154 95 L139 101 L126 108 L115 114 L107 119 L96 125 L85 132 L67 140 L55 144 L44 146 L34 148 L23 149 L14 149 L6 140 L0 128 L0 111 L4 100 L9 92 L19 86 L28 83 L42 79 L55 79 L68 80 L88 92 L105 106 L128 123 L145 138 L159 150 L174 162 L189 172 L200 180 L212 189 L233 199 L249 206 L269 209 L290 210 L319 207 L351 196 L385 175 L413 154 L430 139 L447 127 L459 123 L472 123 L485 123 L502 130 L516 137 L530 147 L537 157 L542 173 L543 190 L542 208 L538 224 L532 237 L526 245 L520 251 L513 256 L505 261 L495 265 L475 269 L434 273 L399 274 L373 274 L360 274 L347 274 L333 274 L319 271 L302 263 L273 250 L241 240 L214 233 L191 228 L170 223 L155 220 L141 218 L131 215 " fill="none" stroke="black" /></svg>