<?xml version="1.0" encoding="utf-8" ?>
<svg baseProfile="tiny" height="133" version="1.2" viewBox="-3 -3 325 133" width="325" xmlns="http://www.w3.org/2000/svg" xmlns:ev="http://www.w3.org/2001/xml-events" xmlns:xlink="http://www.w3.org/1999/xlink"><defs /><path d="M2 74 L2 73 L1 72 L1 69 L0 62 L0 51 L0 45 L0 44 L0 42 L0 33 L2 20 L4 14 L7 14 L20 14 L44 12 L64 12 L77 12 L81 13 L83 15 L83 21 L83 39 L83 57 L83 75 L86 88 L88 95 L88 96 L89 95 L94 89 L108 84 L116 80 L120 76 L120 72 L120 70 L120 68 L120 65 L120 52 L120 23 L120 4 L120 1 L121 0 L123 0 L128 2 L150 2 L174 2 L192 4 L199 5 L201 7 L201 13 L201 28 L201 45 L201 58 L201 65 L201 67 L201 68 L202 68 L202 69 L203 71 L205 73 L207 77 L208 79 L209 80 L210 78 L212 75 L226 69 L244 62 L253 55 L256 51 L255 43 L250 29 L250 18 L250 16 L253 15 L262 14 L278 13 L290 14 L302 19 L311 25 L319 30 L321 33 L323 38 L323 45 L323 52 L323 60 L323 67 L323 74 L323 79 L323 81 L323 79 L323 82 L325 88 L325 93 L325 98 L323 101 L321 104 L317 106 L312 107 L305 107 L296 105 L287 102 L283 101 L282 101 L282 106 L284 112 L284 115 L283 116 L277 114 L265 107 L245 101 L234 100 L232 101 L232 106 L231 111 L230 116 L227 119 L223 120 L215 117 L205 111 L195 106 L188 105 L187 106 L187 110 L187 116 L187 120 L185 122 L182 123 L173 123 L152 117 L137 113 L125 110 L120 110 L120 111 L120 117 L121 123 L121 127 L117 130 L112 131 L106 131 L98 130 L88 128 L79 125 L74 124 L72 124 L74 127 L76 132 L76 133 L71 133 L62 131 L58 130 L56 130 L56 129 " fill="none" stroke="black" /></svg>