<?xml version="1.0" encoding="utf-8" ?>
<svg baseProfile="tiny" height="279" version="1.2" viewBox="-3 -3 408 279" width="408" xmlns="http://www.w3.org/2000/svg" xmlns:ev="http://www.w3.org/2001/xml-events" xmlns:xlink="http://www.w3.org/1999/xlink"><defs /><path d="M19 50 L28 2 L29 0 L40 67 L44 160 L44 208 L44 214 L47 137 L61 62 L66 46 L68 59 L68 124 L68 157 L68 161 L84 97 L103 64 L111 57 L113 99 L112 150 L109 179 L120 129 L129 110 L131 111 L131 158 L128 208 L126 217 L126 204 L132 186 L137 181 L139 183 L139 190 L139 191 L140 185 L145 178 L149 182 L151 192 L153 199 L154 200 L156 191 L161 180 L168 177 L173 182 L177 200 L179 208 L180 207 L183 192 L189 185 L194 187 L195 203 L195 218 L195 222 L195 208 L196 190 L201 184 L205 188 L205 217 L205 234 L205 237 L208 212 L225 178 L233 178 L235 188 L235 202 L235 205 L235 193 L245 170 L254 167 L258 176 L258 190 L258 194 L261 187 L267 179 L271 178 L271 187 L271 193 L271 194 L276 187 L288 177 L302 179 L303 191 L303 198 L320 190 L334 188 L336 190 L337 195 L341 197 L347 198 L352 199 L358 200 L367 200 L370 200 " fill="none" stroke="black" /><path d="M19 50 L28 2 L29 0 L40 67 L44 160 L44 208 L44 214 L47 137 L61 62 L66 46 L68 59 L68 124 L68 157 L68 161 L84 97 L103 64 L111 57 L113 99 L112 150 L109 179 L120 129 L129 110 L131 111 L131 158 L128 208 L126 217 L126 204 L132 186 L137 181 L139 183 L139 190 L139 191 L140 185 L145 178 L149 182 L151 192 L153 199 L154 200 L156 191 L161 180 L168 177 L173 182 L177 200 L179 208 L180 207 L183 192 L189 185 L194 187 L195 203 L195 218 L195 222 L195 208 L196 190 L201 184 L205 188 L205 217 L205 234 L205 237 L208 212 L225 178 L233 178 L235 188 L235 202 L235 205 L235 193 L245 170 L254 167 L258 176 L258 190 L258 194 L261 187 L267 179 L271 178 L271 187 L271 193 L271 194 L276 187 L288 177 L302 179 L303 191 L303 198 L320 190 L334 188 L336 190 L337 195 L341 197 L347 198 L352 199 L358 200 L367 200 L370 200 M0 239 L1 239 L24 239 L73 239 L123 241 L164 260 L187 272 L217 278 L246 279 L259 279 L263 273 L263 269 " fill="none" stroke="black" /><path d="M19 50 L28 2 L29 0 L40 67 L44 160 L44 208 L44 214 L47 137 L61 62 L66 46 L68 59 L68 124 L68 157 L68 161 L84 97 L103 64 L111 57 L113 99 L112 150 L109 179 L120 129 L129 110 L131 111 L131 158 L128 208 L126 217 L126 204 L132 186 L137 181 L139 183 L139 190 L139 191 L140 185 L145 178 L149 182 L151 192 L153 199 L154 200 L156 191 L161 180 L168 177 L173 182 L177 200 L179 208 L180 207 L183 192 L189 185 L194 187 L195 203 L195 218 L195 222 L195 208 L196 190 L201 184 L205 188 L205 217 L205 234 L205 237 L208 212 L225 178 L233 178 L235 188 L235 202 L235 205 L235 193 L245 170 L254 167 L258 176 L258 190 L258 194 L261 187 L267 179 L271 178 L271 187 L271 193 L271 194 L276 187 L288 177 L302 179 L303 191 L303 198 L320 190 L334 188 L336 190 L337 195 L341 197 L347 198 L352 199 L358 200 L367 200 L370 200 M0 239 L1 239 L24 239 L73 239 L123 241 L164 260 L187 272 L217 278 L246 279 L259 279 L263 273 L263 269 M208 93 L221 93 L258 93 L287 101 L303 111 L323 121 L348 128 L372 131 L384 131 L388 127 L393 124 " fill="none" stroke="black" /><path d="M19 50 L28 2 L29 0 L40 67 L44 160 L44 208 L44 214 L47 137 L61 62 L66 46 L68 59 L68 124 L68 157 L68 161 L84 97 L103 64 L111 57 L113 99 L112 150 L109 179 L120 129 L129 110 L131 111 L131 158 L128 208 L126 217 L126 204 L132 186 L137 181 L139 183 L139 190 L139 191 L140 185 L145 178 L149 182 L151 192 L153 199 L154 200 L156 191 L161 180 L168 177 L173 182 L177 200 L179 208 L180 207 L183 192 L189 185 L194 187 L195 203 L195 218 L195 222 L195 208 L196 190 L201 184 L205 188 L205 217 L205 234 L205 237 L208 212 L225 178 L233 178 L235 188 L235 202 L235 205 L235 193 L245 170 L254 167 L258 176 L258 190 L258 194 L261 187 L267 179 L271 178 L271 187 L271 193 L271 194 L276 187 L288 177 L302 179 L303 191 L303 198 L320 190 L334 188 L336 190 L337 195 L341 197 L347 198 L352 199 L358 200 L367 200 L370 200 M0 239 L1 239 L24 239 L73 239 L123 241 L164 260 L187 272 L217 278 L246 279 L259 279 L263 273 L263 269 M208 93 L221 93 L258 93 L287 101 L303 111 L323 121 L348 128 L372 131 L384 131 L388 127 L393 124 M262 272 L267 272 L281 272 L296 272 L309 272 L324 265 L341 255 L361 240 L379 228 L393 217 L398 209 L404 191 L406 177 L408 171 L408 167 L406 164 L401 161 L397 159 L394 158 L393 157 L392 157 L391 155 L388 152 L384 147 L379 141 L376 138 L373 136 L369 135 L366 134 L364 133 L362 132 L361 131 L360 130 L358 129 L356 128 L353 127 " fill="none" stroke="black" /></svg>