<?xml version="1.0" encoding="utf-8" ?>
<svg baseProfile="tiny" height="235" version="1.2" viewBox="-3 -3 435 235" width="435" xmlns="http://www.w3.org/2000/svg" xmlns:ev="http://www.w3.org/2001/xml-events" xmlns:xlink="http://www.w3.org/1999/xlink"><defs /><path d="M0 124 L0 123 L0 122 L0 120 L0 115 L3 104 L9 93 L15 84 L26 72 L35 65 L44 62 L52 62 L63 62 L70 64 L76 68 L85 77 L98 91 L111 106 L121 119 L129 130 L135 138 L140 143 L147 148 L153 150 L159 151 L166 148 L171 143 L175 139 L177 134 L179 129 L180 124 L183 119 L189 112 L200 99 L209 88 L218 73 L224 64 L230 60 L236 59 L243 59 L252 61 L264 70 L278 83 L293 99 L301 112 L307 122 L313 132 L318 140 L322 145 L326 147 L331 149 L340 151 L348 151 L353 149 L355 141 L357 134 L357 129 L359 119 L363 109 L368 100 L373 95 L376 93 L382 91 L389 89 L397 87 L404 85 L411 83 L415 82 L416 81 L416 82 L426 96 L431 105 L434 112 L435 118 L435 123 L435 127 L435 132 L434 137 L432 143 L431 147 L430 152 L428 158 L426 164 L424 169 L422 172 L419 176 L416 180 L413 183 L410 185 L406 187 L402 189 L397 191 L391 193 L383 195 L375 197 L367 199 L360 200 L355 201 L351 201 L347 201 L344 201 L341 201 L339 200 L338 200 L337 200 L336 200 L335 200 " fill="none" stroke="black" /><path d="M0 124 L0 123 L0 122 L0 120 L0 115 L3 104 L9 93 L15 84 L26 72 L35 65 L44 62 L52 62 L63 62 L70 64 L76 68 L85 77 L98 91 L111 106 L121 119 L129 130 L135 138 L140 143 L147 148 L153 150 L159 151 L166 148 L171 143 L175 139 L177 134 L179 129 L180 124 L183 119 L189 112 L200 99 L209 88 L218 73 L224 64 L230 60 L236 59 L243 59 L252 61 L264 70 L278 83 L293 99 L301 112 L307 122 L313 132 L318 140 L322 145 L326 147 L331 149 L340 151 L348 151 L353 149 L355 141 L357 134 L357 129 L359 119 L363 109 L368 100 L373 95 L376 93 L382 91 L389 89 L397 87 L404 85 L411 83 L415 82 L416 81 L416 82 L426 96 L431 105 L434 112 L435 118 L435 123 L435 127 L435 132 L434 137 L432 143 L431 147 L430 152 L428 158 L426 164 L424 169 L422 172 L419 176 L416 180 L413 183 L410 185 L406 187 L402 189 L397 191 L391 193 L383 195 L375 197 L367 199 L360 200 L355 201 L351 201 L347 201 L344 201 L341 201 L339 200 L338 200 L337 200 L336 200 L335 200 M108 32 L108 31 L109 29 L111 26 L116 19 L124 10 L133 3 L141 0 L148 0 L151 2 L156 6 L166 10 L178 15 L189 18 L197 19 L209 19 L219 18 L231 17 L245 12 L259 7 " fill="none" stroke="black" /><path d="M0 124 L0 123 L0 122 L0 120 L0 115 L3 104 L9 93 L15 84 L26 72 L35 65 L44 62 L52 62 L63 62 L70 64 L76 68 L85 77 L98 91 L111 106 L121 119 L129 130 L135 138 L140 143 L147 148 L153 150 L159 151 L166 148 L171 143 L175 139 L177 134 L179 129 L180 124 L183 119 L189 112 L200 99 L209 88 L218 73 L224 64 L230 60 L236 59 L243 59 L252 61 L264 70 L278 83 L293 99 L301 112 L307 122 L313 132 L318 140 L322 145 L326 147 L331 149 L340 151 L348 151 L353 149 L355 141 L357 134 L357 129 L359 119 L363 109 L368 100 L373 95 L376 93 L382 91 L389 89 L397 87 L404 85 L411 83 L415 82 L416 81 L416 82 L426 96 L431 105 L434 112 L435 118 L435 123 L435 127 L435 132 L434 137 L432 143 L431 147 L430 152 L428 158 L426 164 L424 169 L422 172 L419 176 L416 180 L413 183 L410 185 L406 187 L402 189 L397 191 L391 193 L383 195 L375 197 L367 199 L360 200 L355 201 L351 201 L347 201 L344 201 L341 201 L339 200 L338 200 L337 200 L336 200 L335 200 M108 32 L108 31 L109 29 L111 26 L116 19 L124 10 L133 3 L141 0 L148 0 L151 2 L156 6 L166 10 L178 15 L189 18 L197 19 L209 19 L219 18 L231 17 L245 12 L259 7 M25 216 L26 215 L27 213 L29 210 L36 203 L48 197 L65 192 L74 192 L81 194 L89 203 L101 213 L112 222 L122 228 L130 232 L143 234 L157 235 L173 235 L184 232 L195 229 L201 227 L204 223 L210 220 " fill="none" stroke="black" /></svg>