<?xml version="1.0" encoding="utf-8" ?>
<svg baseProfile="tiny" height="150" version="1.2" viewBox="-3 -3 421 150" width="421" xmlns="http://www.w3.org/2000/svg" xmlns:ev="http://www.w3.org/2001/xml-events" xmlns:xlink="http://www.w3.org/1999/xlink"><defs /><path d="M2 76 L1 75 L0 74 L22 96 L47 116 L61 127 L62 127 L61 108 L47 81 L39 67 L39 64 L48 74 L64 93 L77 105 L79 104 L73 84 L63 63 L60 54 L64 54 L78 64 L88 73 L92 74 L89 63 L74 38 L70 18 L73 17 L86 28 L96 40 L101 45 L101 43 L97 22 L95 12 L98 10 L108 26 L117 51 L122 64 L123 65 L124 55 L130 37 L138 30 L139 38 L139 62 L139 75 L139 78 L140 74 L151 65 L163 61 L168 64 L169 87 L165 100 L164 101 L165 95 L173 90 L177 90 L178 109 L174 125 L172 132 L172 131 L182 118 L192 115 L196 116 L196 136 L192 148 L192 150 L194 147 L208 129 L217 123 L220 124 L218 132 L214 137 L221 95 L245 60 L257 46 L260 50 L258 72 L255 82 L252 83 L244 61 L244 45 L259 40 L292 46 L307 52 L311 52 L305 35 L300 24 L300 23 L305 27 L307 31 L308 31 L305 23 L304 20 L304 24 L307 29 L308 30 L305 22 L303 13 L304 11 L314 20 L325 36 L330 42 L330 35 L326 10 L325 0 L329 6 L361 43 L381 65 L388 70 L388 65 L388 62 L388 68 L389 77 L389 80 L388 80 L387 81 L385 83 L382 88 L381 90 " fill="none" stroke="black" /><path d="M2 76 L1 75 L0 74 L22 96 L47 116 L61 127 L62 127 L61 108 L47 81 L39 67 L39 64 L48 74 L64 93 L77 105 L79 104 L73 84 L63 63 L60 54 L64 54 L78 64 L88 73 L92 74 L89 63 L74 38 L70 18 L73 17 L86 28 L96 40 L101 45 L101 43 L97 22 L95 12 L98 10 L108 26 L117 51 L122 64 L123 65 L124 55 L130 37 L138 30 L139 38 L139 62 L139 75 L139 78 L140 74 L151 65 L163 61 L168 64 L169 87 L165 100 L164 101 L165 95 L173 90 L177 90 L178 109 L174 125 L172 132 L172 131 L182 118 L192 115 L196 116 L196 136 L192 148 L192 150 L194 147 L208 129 L217 123 L220 124 L218 132 L214 137 L221 95 L245 60 L257 46 L260 50 L258 72 L255 82 L252 83 L244 61 L244 45 L259 40 L292 46 L307 52 L311 52 L305 35 L300 24 L300 23 L305 27 L307 31 L308 31 L305 23 L304 20 L304 24 L307 29 L308 30 L305 22 L303 13 L304 11 L314 20 L325 36 L330 42 L330 35 L326 10 L325 0 L329 6 L361 43 L381 65 L388 70 L388 65 L388 62 L388 68 L389 77 L389 80 L388 80 L387 81 L385 83 L382 88 L381 90 M379 56 L379 57 L379 70 L379 81 L379 84 L383 73 L390 65 L392 64 L392 75 L386 94 L383 103 L392 88 L400 82 L401 83 L401 97 L397 114 L395 125 L395 126 L400 117 L407 111 L411 110 L411 124 L411 138 L411 143 L411 142 L416 128 L420 121 L421 121 L420 131 L418 137 L417 138 " fill="none" stroke="black" /></svg>