<?xml version="1.0" encoding="utf-8" ?>
<svg baseProfile="tiny" height="719" version="1.2" viewBox="-3 -3 810 719" width="810" xmlns="http://www.w3.org/2000/svg" xmlns:ev="http://www.w3.org/2001/xml-events" xmlns:xlink="http://www.w3.org/1999/xlink"><defs /><path d="M219 285 L219 269 L216 223 L214 198 L214 204 L233 263 L249 306 L254 319 L253 302 L246 231 L246 210 L248 224 L250 252 L250 261 L229 223 L218 177 L217 162 L228 195 L253 277 L258 299 L247 265 L234 150 L234 121 L255 256 L274 427 L275 507 L263 476 L261 254 L274 151 L275 148 L288 221 L296 274 L297 287 L269 195 L261 112 L258 82 L258 398 L244 635 L231 719 L218 603 L252 308 L266 242 L269 255 L266 406 L252 514 L245 494 L254 207 L264 104 L265 69 L265 140 L263 248 L258 295 L255 273 L265 104 L269 63 L269 148 L251 350 L247 412 L242 413 L268 166 L297 71 L308 35 L300 209 L291 313 L290 353 L300 206 L331 80 L344 20 L344 66 L316 292 L305 360 L296 370 L332 181 L357 100 L364 79 L364 210 L357 341 L350 384 L350 296 L410 105 L426 59 L426 79 L409 199 L394 266 L388 277 L415 125 L446 41 L456 12 L449 82 L400 255 L381 302 L379 280 L410 141 L424 101 L424 108 L412 220 L392 290 L379 318 L385 228 L406 160 L414 139 L414 181 L412 234 L407 249 L406 249 L406 248 " fill="none" stroke="black" /><path d="M219 285 L219 269 L216 223 L214 198 L214 204 L233 263 L249 306 L254 319 L253 302 L246 231 L246 210 L248 224 L250 252 L250 261 L229 223 L218 177 L217 162 L228 195 L253 277 L258 299 L247 265 L234 150 L234 121 L255 256 L274 427 L275 507 L263 476 L261 254 L274 151 L275 148 L288 221 L296 274 L297 287 L269 195 L261 112 L258 82 L258 398 L244 635 L231 719 L218 603 L252 308 L266 242 L269 255 L266 406 L252 514 L245 494 L254 207 L264 104 L265 69 L265 140 L263 248 L258 295 L255 273 L265 104 L269 63 L269 148 L251 350 L247 412 L242 413 L268 166 L297 71 L308 35 L300 209 L291 313 L290 353 L300 206 L331 80 L344 20 L344 66 L316 292 L305 360 L296 370 L332 181 L357 100 L364 79 L364 210 L357 341 L350 384 L350 296 L410 105 L426 59 L426 79 L409 199 L394 266 L388 277 L415 125 L446 41 L456 12 L449 82 L400 255 L381 302 L379 280 L410 141 L424 101 L424 108 L412 220 L392 290 L379 318 L385 228 L406 160 L414 139 L414 181 L412 234 L407 249 L406 249 L406 248 M171 280 L191 280 L317 260 L490 227 L559 213 L573 209 L431 205 L188 205 L112 202 L79 196 L90 187 L225 156 L304 143 L339 139 L212 139 L52 145 L0 145 L37 140 L385 124 L711 122 L810 122 L688 117 L408 117 L223 122 " fill="none" stroke="black" /><circle cx="97" cy="291" fill="black" r="1" /><circle cx="256" cy="385" fill="black" r="1" /><circle cx="536" cy="352" fill="black" r="1" /><path d="M219 285 L219 269 L216 223 L214 198 L214 204 L233 263 L249 306 L254 319 L253 302 L246 231 L246 210 L248 224 L250 252 L250 261 L229 223 L218 177 L217 162 L228 195 L253 277 L258 299 L247 265 L234 150 L234 121 L255 256 L274 427 L275 507 L263 476 L261 254 L274 151 L275 148 L288 221 L296 274 L297 287 L269 195 L261 112 L258 82 L258 398 L244 635 L231 719 L218 603 L252 308 L266 242 L269 255 L266 406 L252 514 L245 494 L254 207 L264 104 L265 69 L265 140 L263 248 L258 295 L255 273 L265 104 L269 63 L269 148 L251 350 L247 412 L242 413 L268 166 L297 71 L308 35 L300 209 L291 313 L290 353 L300 206 L331 80 L344 20 L344 66 L316 292 L305 360 L296 370 L332 181 L357 100 L364 79 L364 210 L357 341 L350 384 L350 296 L410 105 L426 59 L426 79 L409 199 L394 266 L388 277 L415 125 L446 41 L456 12 L449 82 L400 255 L381 302 L379 280 L410 141 L424 101 L424 108 L412 220 L392 290 L379 318 L385 228 L406 160 L414 139 L414 181 L412 234 L407 249 L406 249 L406 248 M171 280 L191 280 L317 260 L490 227 L559 213 L573 209 L431 205 L188 205 L112 202 L79 196 L90 187 L225 156 L304 143 L339 139 L212 139 L52 145 L0 145 L37 140 L385 124 L711 122 L810 122 L688 117 L408 117 L223 122 M536 323 L536 308 L536 290 " fill="none" stroke="black" /><circle cx="538" cy="243" fill="black" r="1" /><circle cx="544" cy="129" fill="black" r="1" /><circle cx="541" cy="0" fill="black" r="1" /></svg>