<?xml version="1.0" encoding="utf-8" ?>
<svg baseProfile="tiny" height="172" version="1.2" viewBox="-3 -3 564 172" width="564" xmlns="http://www.w3.org/2000/svg" xmlns:ev="http://www.w3.org/2001/xml-events" xmlns:xlink="http://www.w3.org/1999/xlink"><defs /><path d="M46 117 L46 114 L46 94 L57 60 L63 50 L68 50 L78 68 L96 106 L109 134 L113 144 L114 145 L116 128 L119 84 L120 42 L121 22 L123 18 L127 19 L137 31 L160 54 L190 91 L211 121 L219 132 L220 133 L222 130 L226 127 L229 121 L234 108 L245 78 L257 48 L262 39 L267 34 L274 30 L281 30 L292 35 L306 48 L323 69 L335 87 L341 99 L344 105 L347 110 L351 114 L355 116 L358 115 L359 108 L361 102 L367 93 L375 71 L378 52 L381 38 L383 32 L386 31 L395 31 L414 33 L435 45 L455 67 L471 94 L484 118 L494 134 L503 146 L508 151 L509 151 L509 147 " fill="none" stroke="black" /><path d="M46 117 L46 114 L46 94 L57 60 L63 50 L68 50 L78 68 L96 106 L109 134 L113 144 L114 145 L116 128 L119 84 L120 42 L121 22 L123 18 L127 19 L137 31 L160 54 L190 91 L211 121 L219 132 L220 133 L222 130 L226 127 L229 121 L234 108 L245 78 L257 48 L262 39 L267 34 L274 30 L281 30 L292 35 L306 48 L323 69 L335 87 L341 99 L344 105 L347 110 L351 114 L355 116 L358 115 L359 108 L361 102 L367 93 L375 71 L378 52 L381 38 L383 32 L386 31 L395 31 L414 33 L435 45 L455 67 L471 94 L484 118 L494 134 L503 146 L508 151 L509 151 L509 147 M277 158 L279 155 L294 150 L333 145 L355 145 L373 147 L397 155 L423 166 L448 171 L469 172 L485 168 L497 160 " fill="none" stroke="black" /><path d="M46 117 L46 114 L46 94 L57 60 L63 50 L68 50 L78 68 L96 106 L109 134 L113 144 L114 145 L116 128 L119 84 L120 42 L121 22 L123 18 L127 19 L137 31 L160 54 L190 91 L211 121 L219 132 L220 133 L222 130 L226 127 L229 121 L234 108 L245 78 L257 48 L262 39 L267 34 L274 30 L281 30 L292 35 L306 48 L323 69 L335 87 L341 99 L344 105 L347 110 L351 114 L355 116 L358 115 L359 108 L361 102 L367 93 L375 71 L378 52 L381 38 L383 32 L386 31 L395 31 L414 33 L435 45 L455 67 L471 94 L484 118 L494 134 L503 146 L508 151 L509 151 L509 147 M277 158 L279 155 L294 150 L333 145 L355 145 L373 147 L397 155 L423 166 L448 171 L469 172 L485 168 L497 160 M173 16 L183 15 L210 11 L241 5 L274 0 L300 0 L319 3 L342 12 L362 16 L394 9 L404 3 " fill="none" stroke="black" /><path d="M46 117 L46 114 L46 94 L57 60 L63 50 L68 50 L78 68 L96 106 L109 134 L113 144 L114 145 L116 128 L119 84 L120 42 L121 22 L123 18 L127 19 L137 31 L160 54 L190 91 L211 121 L219 132 L220 133 L222 130 L226 127 L229 121 L234 108 L245 78 L257 48 L262 39 L267 34 L274 30 L281 30 L292 35 L306 48 L323 69 L335 87 L341 99 L344 105 L347 110 L351 114 L355 116 L358 115 L359 108 L361 102 L367 93 L375 71 L378 52 L381 38 L383 32 L386 31 L395 31 L414 33 L435 45 L455 67 L471 94 L484 118 L494 134 L503 146 L508 151 L509 151 L509 147 M277 158 L279 155 L294 150 L333 145 L355 145 L373 147 L397 155 L423 166 L448 171 L469 172 L485 168 L497 160 M173 16 L183 15 L210 11 L241 5 L274 0 L300 0 L319 3 L342 12 L362 16 L394 9 L404 3 M80 164 L81 163 L84 159 L97 149 L119 141 L147 137 L170 137 L197 138 L217 142 L232 145 L243 145 " fill="none" stroke="black" /><path d="M46 117 L46 114 L46 94 L57 60 L63 50 L68 50 L78 68 L96 106 L109 134 L113 144 L114 145 L116 128 L119 84 L120 42 L121 22 L123 18 L127 19 L137 31 L160 54 L190 91 L211 121 L219 132 L220 133 L222 130 L226 127 L229 121 L234 108 L245 78 L257 48 L262 39 L267 34 L274 30 L281 30 L292 35 L306 48 L323 69 L335 87 L341 99 L344 105 L347 110 L351 114 L355 116 L358 115 L359 108 L361 102 L367 93 L375 71 L378 52 L381 38 L383 32 L386 31 L395 31 L414 33 L435 45 L455 67 L471 94 L484 118 L494 134 L503 146 L508 151 L509 151 L509 147 M277 158 L279 155 L294 150 L333 145 L355 145 L373 147 L397 155 L423 166 L448 171 L469 172 L485 168 L497 160 M173 16 L183 15 L210 11 L241 5 L274 0 L300 0 L319 3 L342 12 L362 16 L394 9 L404 3 M80 164 L81 163 L84 159 L97 149 L119 141 L147 137 L170 137 L197 138 L217 142 L232 145 L243 145 M0 40 L6 39 L24 36 L53 36 L92 37 L150 51 L189 60 L225 69 L261 77 L297 84 L339 88 L383 90 L421 89 L458 80 L476 72 L489 68 L502 62 L517 56 L539 51 L564 48 " fill="none" stroke="black" /></svg>