<?xml version="1.0" encoding="utf-8" ?>
<svg baseProfile="tiny" height="291" version="1.2" viewBox="-3 -3 519 291" width="519" xmlns="http://www.w3.org/2000/svg" xmlns:ev="http://www.w3.org/2001/xml-events" xmlns:xlink="http://www.w3.org/1999/xlink"><defs /><path d="M0 154 L1 157 L9 178 L24 227 L35 274 L39 291 L40 291 L41 263 L68 164 L79 135 L85 134 L96 166 L111 197 L117 206 L118 205 L117 184 L117 153 L124 134 L147 134 L183 156 L194 164 L195 161 L182 120 L172 68 L168 47 L168 46 L175 71 L197 110 L208 131 L207 130 L182 94 L160 58 L154 43 L159 44 L212 69 L284 102 L332 135 L337 142 L329 135 L290 99 L264 71 L255 61 L257 65 L292 105 L315 132 L325 143 L327 139 L324 84 L325 29 L332 0 L337 0 L353 36 L370 85 L384 129 L393 147 L395 148 L395 129 L393 81 L399 70 L402 77 L404 99 L405 117 L406 127 L406 100 L406 75 L409 70 L411 81 L411 100 L411 111 L412 113 L415 115 L417 117 L417 118 L417 117 L417 116 L417 115 L417 114 L417 115 L417 116 L417 117 L416 114 L416 90 L419 80 L427 79 L435 101 L445 149 L452 186 L454 197 L452 186 L452 78 L491 13 L508 2 L513 18 L513 45 L513 59 L511 63 L509 59 L509 48 L513 49 L519 100 L516 141 L511 153 L510 153 L507 141 L504 129 " fill="none" stroke="black" /><path d="M0 154 L1 157 L9 178 L24 227 L35 274 L39 291 L40 291 L41 263 L68 164 L79 135 L85 134 L96 166 L111 197 L117 206 L118 205 L117 184 L117 153 L124 134 L147 134 L183 156 L194 164 L195 161 L182 120 L172 68 L168 47 L168 46 L175 71 L197 110 L208 131 L207 130 L182 94 L160 58 L154 43 L159 44 L212 69 L284 102 L332 135 L337 142 L329 135 L290 99 L264 71 L255 61 L257 65 L292 105 L315 132 L325 143 L327 139 L324 84 L325 29 L332 0 L337 0 L353 36 L370 85 L384 129 L393 147 L395 148 L395 129 L393 81 L399 70 L402 77 L404 99 L405 117 L406 127 L406 100 L406 75 L409 70 L411 81 L411 100 L411 111 L412 113 L415 115 L417 117 L417 118 L417 117 L417 116 L417 115 L417 114 L417 115 L417 116 L417 117 L416 114 L416 90 L419 80 L427 79 L435 101 L445 149 L452 186 L454 197 L452 186 L452 78 L491 13 L508 2 L513 18 L513 45 L513 59 L511 63 L509 59 L509 48 L513 49 L519 100 L516 141 L511 153 L510 153 L507 141 L504 129 M186 191 L187 190 L187 189 L188 185 L188 180 L188 177 L189 170 L190 162 L191 160 L193 160 L197 161 L206 164 L228 165 L256 166 L266 168 L269 172 L271 180 L275 191 L281 196 L287 198 L293 195 L305 181 L327 150 L340 125 L345 116 L346 116 L348 119 L355 126 L364 132 L377 135 L386 137 L391 139 L394 142 L399 146 L408 154 L420 166 L433 178 L444 186 L461 201 L475 209 L478 208 L478 198 " fill="none" stroke="black" /></svg>