<?xml version="1.0" encoding="utf-8" ?>
<svg baseProfile="tiny" height="76" version="1.2" viewBox="-3 -3 210 76" width="210" xmlns="http://www.w3.org/2000/svg" xmlns:ev="http://www.w3.org/2001/xml-events" xmlns:xlink="http://www.w3.org/1999/xlink"><defs /><path d="M0 29 L3 27 L29 10 L44 1 L47 0 L48 3 L48 9 L49 14 L52 11 L59 3 L65 0 L66 2 L66 13 L66 21 L67 23 L69 20 L82 5 L91 0 L93 1 L93 10 L93 17 L93 18 L94 15 L102 8 L113 4 L114 5 L114 15 L113 20 L112 21 L113 16 L120 9 L124 6 L125 6 L125 17 L124 21 L124 22 L128 15 L138 9 L144 7 L145 10 L145 20 L145 25 L146 17 L153 10 L156 8 L156 10 L156 17 L156 20 L156 19 L166 13 L181 9 L184 9 L185 18 L185 25 L185 27 L186 24 L193 17 L198 14 L199 14 L199 22 L199 24 L203 22 L205 22 L206 26 L207 30 L207 32 L207 33 L207 34 L209 38 L210 47 L210 54 L210 57 L207 57 L203 54 L202 52 L203 59 L203 70 L203 76 L199 76 L192 72 L188 67 L188 66 L189 68 L190 71 L188 71 L180 68 L174 65 L173 65 L175 68 L176 69 L170 65 L162 56 L157 53 L157 54 L160 58 L164 62 L165 64 L152 59 L138 53 L135 53 L135 56 L140 60 L141 62 L136 63 L125 57 L120 55 L119 56 L123 59 L125 61 L125 62 L117 57 L110 52 L109 52 L110 53 L119 61 L121 66 L116 66 L96 55 L86 51 L84 51 L84 52 L91 55 L94 58 L90 59 L67 50 L59 47 L58 47 L63 52 L72 60 L74 63 L65 58 L47 47 L41 44 L41 45 L45 47 L47 50 L40 50 L19 40 L9 36 L8 36 L13 37 L18 40 L20 42 L13 38 L10 36 L9 36 L8 35 L6 34 " fill="none" stroke="black" /></svg>