<?xml version="1.0" encoding="utf-8" ?>
<svg baseProfile="tiny" height="307" version="1.2" viewBox="-3 -3 349 307" width="349" xmlns="http://www.w3.org/2000/svg" xmlns:ev="http://www.w3.org/2001/xml-events" xmlns:xlink="http://www.w3.org/1999/xlink"><defs /><path d="M0 232 L0 200 L4 116 L12 57 L12 53 L17 79 L30 158 L39 216 L42 231 L42 222 L51 170 L59 151 L62 152 L63 175 L63 183 L64 178 L105 68 L129 16 L139 0 L139 41 L130 117 L118 172 L116 175 L116 124 L124 106 L126 107 L124 161 L114 211 L109 229 L108 213 L109 165 L111 155 L111 170 L111 197 L110 206 L110 193 L144 115 L169 81 L171 87 L171 130 L163 169 L160 173 L164 134 L184 94 L193 83 L193 114 L180 181 L169 213 L166 212 L180 158 L196 126 L199 125 L192 179 L179 225 L173 239 L178 194 L217 102 L227 84 L228 98 L207 173 L194 203 L191 208 L227 106 L272 38 L292 16 L292 44 L282 87 L274 110 L270 113 L270 92 L274 75 L275 75 L259 160 L233 249 L224 273 L224 260 L233 230 L244 215 L247 216 L246 240 L242 257 L241 258 L251 221 L266 198 L268 197 L268 221 L264 247 L261 255 L261 239 L301 163 L323 135 L330 133 L305 204 L285 242 L276 255 L277 218 L316 149 L335 126 L338 128 L337 147 L336 150 L336 147 L342 135 L347 132 L347 143 L347 162 L347 174 L347 178 L347 179 L348 183 L349 187 L349 190 L349 195 L348 197 " fill="none" stroke="black" /><path d="M0 232 L0 200 L4 116 L12 57 L12 53 L17 79 L30 158 L39 216 L42 231 L42 222 L51 170 L59 151 L62 152 L63 175 L63 183 L64 178 L105 68 L129 16 L139 0 L139 41 L130 117 L118 172 L116 175 L116 124 L124 106 L126 107 L124 161 L114 211 L109 229 L108 213 L109 165 L111 155 L111 170 L111 197 L110 206 L110 193 L144 115 L169 81 L171 87 L171 130 L163 169 L160 173 L164 134 L184 94 L193 83 L193 114 L180 181 L169 213 L166 212 L180 158 L196 126 L199 125 L192 179 L179 225 L173 239 L178 194 L217 102 L227 84 L228 98 L207 173 L194 203 L191 208 L227 106 L272 38 L292 16 L292 44 L282 87 L274 110 L270 113 L270 92 L274 75 L275 75 L259 160 L233 249 L224 273 L224 260 L233 230 L244 215 L247 216 L246 240 L242 257 L241 258 L251 221 L266 198 L268 197 L268 221 L264 247 L261 255 L261 239 L301 163 L323 135 L330 133 L305 204 L285 242 L276 255 L277 218 L316 149 L335 126 L338 128 L337 147 L336 150 L336 147 L342 135 L347 132 L347 143 L347 162 L347 174 L347 178 L347 179 L348 183 L349 187 L349 190 L349 195 L348 197 M61 264 L61 259 L65 249 L66 240 L70 223 " fill="none" stroke="black" /><path d="M0 232 L0 200 L4 116 L12 57 L12 53 L17 79 L30 158 L39 216 L42 231 L42 222 L51 170 L59 151 L62 152 L63 175 L63 183 L64 178 L105 68 L129 16 L139 0 L139 41 L130 117 L118 172 L116 175 L116 124 L124 106 L126 107 L124 161 L114 211 L109 229 L108 213 L109 165 L111 155 L111 170 L111 197 L110 206 L110 193 L144 115 L169 81 L171 87 L171 130 L163 169 L160 173 L164 134 L184 94 L193 83 L193 114 L180 181 L169 213 L166 212 L180 158 L196 126 L199 125 L192 179 L179 225 L173 239 L178 194 L217 102 L227 84 L228 98 L207 173 L194 203 L191 208 L227 106 L272 38 L292 16 L292 44 L282 87 L274 110 L270 113 L270 92 L274 75 L275 75 L259 160 L233 249 L224 273 L224 260 L233 230 L244 215 L247 216 L246 240 L242 257 L241 258 L251 221 L266 198 L268 197 L268 221 L264 247 L261 255 L261 239 L301 163 L323 135 L330 133 L305 204 L285 242 L276 255 L277 218 L316 149 L335 126 L338 128 L337 147 L336 150 L336 147 L342 135 L347 132 L347 143 L347 162 L347 174 L347 178 L347 179 L348 183 L349 187 L349 190 L349 195 L348 197 M61 264 L61 259 L65 249 L66 240 L70 223 M171 307 L171 305 L174 295 L188 270 " fill="none" stroke="black" /><circle cx="349" cy="84" fill="black" r="1" /><circle cx="49" cy="24" fill="black" r="1" /></svg>