<?xml version="1.0" encoding="utf-8" ?>
<svg baseProfile="tiny" height="275" version="1.2" viewBox="-3 -3 642 275" width="642" xmlns="http://www.w3.org/2000/svg" xmlns:ev="http://www.w3.org/2001/xml-events" xmlns:xlink="http://www.w3.org/1999/xlink"><defs /><path d="M76 143 L76 145 L76 150 L78 154 L80 158 L83 163 L85 170 L87 180 L91 191 L97 203 L102 210 L109 217 L117 222 L126 225 L131 225 L135 225 L140 221 L145 216 L153 206 L158 198 L163 191 L169 179 L175 162 L181 142 L184 120 L187 104 L191 82 L197 64 L204 51 L218 29 L229 17 L243 9 L263 3 L286 0 L309 0 L336 0 L359 4 L376 12 L390 22 L405 37 L412 48 L421 63 L428 78 L434 95 L440 116 L447 146 L451 162 L454 172 L454 176 L454 178 L454 180 L455 181 L456 182 L458 184 L458 185 L458 186 L458 187 L459 189 L461 191 L464 195 L469 200 L476 207 L488 215 L504 226 L518 233 L531 237 L540 237 L546 233 L549 226 L551 217 L552 208 L555 182 L561 165 L565 153 L573 133 L584 103 L593 80 L601 69 L613 65 L630 65 L639 65 L642 65 L642 66 " fill="none" stroke="black" /><path d="M76 143 L76 145 L76 150 L78 154 L80 158 L83 163 L85 170 L87 180 L91 191 L97 203 L102 210 L109 217 L117 222 L126 225 L131 225 L135 225 L140 221 L145 216 L153 206 L158 198 L163 191 L169 179 L175 162 L181 142 L184 120 L187 104 L191 82 L197 64 L204 51 L218 29 L229 17 L243 9 L263 3 L286 0 L309 0 L336 0 L359 4 L376 12 L390 22 L405 37 L412 48 L421 63 L428 78 L434 95 L440 116 L447 146 L451 162 L454 172 L454 176 L454 178 L454 180 L455 181 L456 182 L458 184 L458 185 L458 186 L458 187 L459 189 L461 191 L464 195 L469 200 L476 207 L488 215 L504 226 L518 233 L531 237 L540 237 L546 233 L549 226 L551 217 L552 208 L555 182 L561 165 L565 153 L573 133 L584 103 L593 80 L601 69 L613 65 L630 65 L639 65 L642 65 L642 66 M82 72 L85 72 L98 69 L119 66 L143 66 L165 67 L187 78 L208 93 L231 112 L248 123 L261 128 L272 129 L283 128 L299 122 L316 115 L343 102 L365 90 L386 81 L405 73 L431 69 L462 67 L506 67 L564 73 L623 84 " fill="none" stroke="black" /><path d="M76 143 L76 145 L76 150 L78 154 L80 158 L83 163 L85 170 L87 180 L91 191 L97 203 L102 210 L109 217 L117 222 L126 225 L131 225 L135 225 L140 221 L145 216 L153 206 L158 198 L163 191 L169 179 L175 162 L181 142 L184 120 L187 104 L191 82 L197 64 L204 51 L218 29 L229 17 L243 9 L263 3 L286 0 L309 0 L336 0 L359 4 L376 12 L390 22 L405 37 L412 48 L421 63 L428 78 L434 95 L440 116 L447 146 L451 162 L454 172 L454 176 L454 178 L454 180 L455 181 L456 182 L458 184 L458 185 L458 186 L458 187 L459 189 L461 191 L464 195 L469 200 L476 207 L488 215 L504 226 L518 233 L531 237 L540 237 L546 233 L549 226 L551 217 L552 208 L555 182 L561 165 L565 153 L573 133 L584 103 L593 80 L601 69 L613 65 L630 65 L639 65 L642 65 L642 66 M82 72 L85 72 L98 69 L119 66 L143 66 L165 67 L187 78 L208 93 L231 112 L248 123 L261 128 L272 129 L283 128 L299 122 L316 115 L343 102 L365 90 L386 81 L405 73 L431 69 L462 67 L506 67 L564 73 L623 84 M217 179 L225 179 L262 179 L313 181 L361 191 L413 212 L457 237 L491 249 L509 250 L524 247 L550 236 L589 220 L612 194 L619 169 L619 168 " fill="none" stroke="black" /><path d="M76 143 L76 145 L76 150 L78 154 L80 158 L83 163 L85 170 L87 180 L91 191 L97 203 L102 210 L109 217 L117 222 L126 225 L131 225 L135 225 L140 221 L145 216 L153 206 L158 198 L163 191 L169 179 L175 162 L181 142 L184 120 L187 104 L191 82 L197 64 L204 51 L218 29 L229 17 L243 9 L263 3 L286 0 L309 0 L336 0 L359 4 L376 12 L390 22 L405 37 L412 48 L421 63 L428 78 L434 95 L440 116 L447 146 L451 162 L454 172 L454 176 L454 178 L454 180 L455 181 L456 182 L458 184 L458 185 L458 186 L458 187 L459 189 L461 191 L464 195 L469 200 L476 207 L488 215 L504 226 L518 233 L531 237 L540 237 L546 233 L549 226 L551 217 L552 208 L555 182 L561 165 L565 153 L573 133 L584 103 L593 80 L601 69 L613 65 L630 65 L639 65 L642 65 L642 66 M82 72 L85 72 L98 69 L119 66 L143 66 L165 67 L187 78 L208 93 L231 112 L248 123 L261 128 L272 129 L283 128 L299 122 L316 115 L343 102 L365 90 L386 81 L405 73 L431 69 L462 67 L506 67 L564 73 L623 84 M217 179 L225 179 L262 179 L313 181 L361 191 L413 212 L457 237 L491 249 L509 250 L524 247 L550 236 L589 220 L612 194 L619 169 L619 168 M0 204 L0 203 L7 198 L19 193 L33 191 L57 191 L73 195 L91 205 L115 222 L142 242 L170 259 L200 271 L227 275 L259 272 " fill="none" stroke="black" /></svg>