<?xml version="1.0" encoding="utf-8" ?>
<svg baseProfile="tiny" height="230" version="1.2" viewBox="-3 -3 489 230" width="489" xmlns="http://www.w3.org/2000/svg" xmlns:ev="http://www.w3.org/2001/xml-events" xmlns:xlink="http://www.w3.org/1999/xlink"><defs /><path d="M7 160 L7 150 L0 126 L0 114 L2 114 L24 138 L42 158 L47 163 L40 152 L21 106 L19 90 L28 107 L36 130 L38 137 L33 123 L30 95 L32 88 L48 118 L58 157 L60 175 L54 154 L60 102 L89 89 L102 99 L103 126 L96 139 L87 130 L82 99 L85 86 L89 101 L89 118 L86 124 L79 108 L78 88 L79 85 L86 118 L94 167 L94 183 L95 151 L109 106 L121 94 L127 128 L130 168 L130 185 L125 174 L122 130 L130 107 L134 120 L135 151 L130 167 L120 156 L118 88 L185 17 L237 0 L247 16 L244 36 L233 46 L227 42 L226 34 L233 46 L236 121 L221 169 L209 179 L191 149 L191 125 L199 124 L204 138 L201 155 L176 156 L152 122 L148 95 L171 91 L193 118 L197 148 L184 152 L174 139 L178 122 L206 118 L227 127 L237 142 L237 149 L223 146 L221 132 L230 130 L235 139 L235 151 L235 155 L235 149 L241 128 L248 123 L248 150 L247 160 L247 156 L263 117 L277 106 L279 112 L279 124 L279 126 L299 110 L352 91 L359 100 L350 134 L341 150 L337 150 L341 122 L356 101 L361 102 L352 146 L342 171 L340 171 L344 146 L351 134 L351 150 L345 178 L336 189 L324 176 L318 136 L344 114 L381 121 L393 155 L393 179 L391 184 L391 172 L402 145 L409 138 L411 138 L412 139 L414 142 L415 145 L425 158 L455 195 L481 223 L489 230 " fill="none" stroke="black" /><circle cx="480" cy="215" fill="black" r="1" /></svg>