<?xml version="1.0" encoding="utf-8" ?>
<svg baseProfile="tiny" height="173" version="1.2" viewBox="-3 -3 387 173" width="387" xmlns="http://www.w3.org/2000/svg" xmlns:ev="http://www.w3.org/2001/xml-events" xmlns:xlink="http://www.w3.org/1999/xlink"><defs /><path d="M20 100 L39 80 L75 39 L94 18 L98 14 L99 17 L99 33 L99 54 L98 69 L94 77 L93 77 L93 67 L110 28 L128 5 L138 0 L140 10 L140 38 L143 68 L145 82 L147 82 L149 67 L153 57 L155 56 L156 62 L156 79 L155 92 L156 94 L178 76 L216 45 L227 39 L228 44 L225 62 L220 75 L218 77 L219 65 L239 36 L254 22 L254 26 L249 52 L243 70 L242 75 L242 70 L265 36 L283 20 L289 24 L283 53 L276 77 L275 84 L280 80 L305 56 L321 43 L325 42 L323 59 L315 80 L313 83 L315 76 L336 44 L352 28 L357 27 L355 43 L345 65 L340 76 L344 70 L367 47 L384 35 L387 35 L380 57 L367 83 L355 103 L343 119 L336 129 L329 131 L318 123 L294 108 L281 100 L280 98 L283 109 L286 139 L286 157 L280 163 L271 154 L265 139 L264 133 L264 134 L262 151 L254 168 L244 173 L235 166 L231 151 L229 145 L229 150 L229 155 L223 156 L208 142 L191 118 L187 108 L188 109 L191 120 L192 131 L189 135 L177 124 L165 108 L163 105 L164 108 L177 123 L181 131 L178 129 L149 102 L130 88 L139 100 L153 120 L156 131 L144 127 L128 113 L121 109 L121 110 L130 119 L134 125 L128 126 L100 114 L81 107 L80 107 L87 110 L96 118 L98 123 L92 124 L65 111 L40 98 L33 96 L38 101 L46 108 L49 114 L40 113 L18 99 L4 91 L0 90 L1 90 " fill="none" stroke="black" /></svg>