<?xml version="1.0" encoding="utf-8" ?>
<svg baseProfile="tiny" height="320" version="1.2" viewBox="-3 -3 283 320" width="283" xmlns="http://www.w3.org/2000/svg" xmlns:ev="http://www.w3.org/2001/xml-events" xmlns:xlink="http://www.w3.org/1999/xlink"><defs /><path d="M77 320 L77 318 L78 312 L78 307 L78 302 L79 297 L77 296 L71 290 L64 284 L58 280 L53 275 L47 269 L41 259 L35 249 L24 227 L20 219 L9 191 L2 165 L0 145 L0 131 L0 118 L2 110 L3 106 L5 103 L5 102 L6 101 L7 100 L7 98 L7 95 L7 87 L10 75 L14 63 L19 54 L25 45 L32 39 L41 31 L53 23 L67 16 L89 8 L116 2 L142 0 L161 0 L179 0 L193 3 L203 8 L215 16 L228 28 L246 49 L259 65 L269 78 L276 90 L281 102 L282 113 L283 125 L283 143 L283 158 L283 173 L280 188 L277 201 L273 209 L266 220 L257 231 L247 241 L238 249 L231 254 L222 259 L205 265 L192 269 L182 271 L175 272 L172 273 L169 273 L167 273 L162 273 L158 273 L155 273 L152 273 L148 272 L142 268 L136 263 L129 257 L122 250 L115 241 L107 230 L102 221 L97 211 L94 201 L90 190 L89 181 L88 170 L88 150 L90 136 L95 122 L104 102 L113 91 L122 83 L137 76 L153 71 L166 70 L181 70 L198 75 L207 82 L220 98 L232 118 L241 140 L246 158 L247 167 L247 177 L241 187 L234 201 L227 208 L216 214 L205 215 L196 215 L184 215 L176 211 L170 208 L162 202 L158 198 L155 194 L152 188 L151 179 L150 172 L150 165 L150 160 L152 157 L156 154 L161 152 L165 152 L167 152 L170 152 L172 152 L175 152 L177 153 L178 154 L179 155 L181 157 L182 159 L182 161 L183 164 L183 166 L183 167 L183 170 L183 171 L183 173 L183 174 L183 175 L183 176 L183 177 L182 177 " fill="none" stroke="black" /></svg>