<?xml version="1.0" encoding="utf-8" ?>
<svg baseProfile="tiny" height="566" version="1.2" viewBox="-3 -3 376 566" width="376" xmlns="http://www.w3.org/2000/svg" xmlns:ev="http://www.w3.org/2001/xml-events" xmlns:xlink="http://www.w3.org/1999/xlink"><defs /><path d="M0 338 L0 335 L0 289 L14 124 L24 35 L28 6 L29 0 L29 1 L30 3 L31 6 L32 9 L33 12 L34 18 L36 24 L37 29 L39 36 L40 44 L43 54 L45 62 L49 75 L53 86 L66 115 L77 141 L83 157 L86 164 L87 166 L87 168 L89 174 L92 181 L95 187 L98 193 L98 197 L99 199 L100 200 L101 202 L102 204 L102 206 L103 209 L104 211 L105 214 L106 217 L106 219 L107 221 L108 224 L109 226 L110 228 L111 232 L113 237 L117 243 L121 251 L123 256 L126 259 L128 262 L131 269 L135 275 L137 279 L140 284 L142 289 L144 295 L148 302 L152 310 L159 320 L167 330 L175 339 L176 340 L176 341 L177 342 L178 345 L180 348 L182 351 L184 353 L185 355 L186 357 L186 359 L187 361 L187 362 L189 364 L190 366 L190 368 L191 369 L192 372 L194 374 L195 377 L197 378 L201 384 L210 395 L216 402 L216 403 L217 403 L219 405 L220 407 L222 409 L224 412 L227 414 L230 419 L233 422 L236 425 L238 429 L241 433 L243 436 L246 439 L251 445 L253 447 L254 449 L256 452 L258 453 L259 456 L261 459 L263 461 L265 464 L267 467 L270 471 L272 474 L273 475 L276 477 L281 480 L283 483 L286 485 L289 488 L292 491 L296 494 L299 496 L302 498 L304 500 L307 503 L312 507 L313 508 L315 509 L318 511 L322 514 L328 517 L332 521 L337 525 L341 528 L344 529 L346 531 L348 532 L349 533 L350 533 L352 533 L355 535 L358 537 L363 540 L367 543 L370 544 L373 549 L375 557 L375 566 L376 566 " fill="none" stroke="black" /></svg>