<?xml version="1.0" encoding="utf-8" ?>
<svg baseProfile="tiny" height="46" version="1.2" viewBox="-3 -3 224 46" width="224" xmlns="http://www.w3.org/2000/svg" xmlns:ev="http://www.w3.org/2001/xml-events" xmlns:xlink="http://www.w3.org/1999/xlink"><defs /><path d="M0 0 L1 0 L2 0 L5 0 L8 1 L12 1 L15 1 L16 1 L18 1 L19 1 L22 1 L24 2 L25 3 L26 3 L27 4 L29 5 L30 6 L32 6 L33 6 L34 6 L36 6 L38 5 L38 4 L40 4 L41 4 L42 4 L44 4 L45 4 L47 4 L48 4 L50 4 L52 4 L53 4 L54 4 L55 4 L57 4 L58 5 L59 5 L61 7 L62 7 L63 8 L64 8 L65 8 L66 9 L68 9 L70 9 L71 9 L73 9 L74 9 L76 9 L78 10 L79 11 L80 11 L81 11 L82 11 L82 12 L85 16 L89 20 L90 22 L91 23 L92 23 L93 23 L94 23 L95 23 L98 23 L101 23 L104 23 L106 23 L110 23 L117 23 L123 23 L125 23 L126 23 L127 23 L128 23 L129 23 L129 24 L130 25 L132 26 L133 27 L136 28 L137 28 L138 28 L139 28 L140 28 L140 29 L140 30 L141 30 L142 32 L144 33 L145 33 L146 33 L147 33 L148 33 L148 34 L149 34 L152 34 L153 34 L154 34 L155 34 L155 35 L156 35 L157 36 L159 36 L160 36 L161 36 L162 37 L163 37 L164 38 L166 38 L167 38 L168 38 L169 39 L170 41 L171 41 L171 42 L173 42 L173 43 L174 43 L175 45 L176 45 L177 45 L181 45 L184 45 L188 45 L190 45 L192 45 L193 45 L194 45 L196 45 L199 45 L203 45 L204 45 L205 45 L206 45 L207 45 L208 45 L210 45 L212 45 L213 46 L215 46 L216 46 L217 46 L218 46 L219 46 L220 46 L221 46 L222 46 L223 46 L224 46 " fill="none" stroke="black" /></svg>