<?xml version="1.0" encoding="utf-8" ?>
<svg baseProfile="tiny" height="485" version="1.2" viewBox="-3 -3 634 485" width="634" xmlns="http://www.w3.org/2000/svg" xmlns:ev="http://www.w3.org/2001/xml-events" xmlns:xlink="http://www.w3.org/1999/xlink"><defs /><path d="M108 159 L106 124 L115 66 L129 39 L144 27 L168 27 L197 41 L228 68 L262 95 L277 99 L289 97 L298 86 L307 75 L317 60 L336 40 L355 29 L373 25 L410 51 L445 98 L464 139 L468 160 L469 163 L471 164 L495 163 L527 159 L545 159 L555 173 L557 204 L554 246 L530 293 L488 326 L424 352 L362 364 L341 366 L337 366 L336 366 L336 368 L347 390 L356 425 L352 450 L324 469 L277 483 L225 485 L195 479 L165 466 L134 440 L119 415 L113 381 L112 347 L114 330 L123 315 L139 289 L150 270 L150 259 L141 250 L106 242 L65 235 L32 227 L22 217 L11 187 L10 156 L10 152 L20 142 L74 104 L128 87 L172 81 L207 79 L222 79 L229 79 L235 78 L239 73 L244 59 L250 27 L253 10 L256 2 L265 0 L282 1 L315 23 L375 96 L402 137 L414 157 L419 163 L431 164 L456 164 L478 162 L481 162 L494 161 L540 152 L585 145 L608 145 L617 146 L628 153 L634 166 L634 191 L623 220 L596 254 L557 282 L526 300 L503 313 L492 322 L484 331 L478 336 L463 337 L436 334 L396 310 L375 292 L363 279 L350 270 L343 266 L339 266 L339 277 L347 333 L357 383 L361 406 L361 414 L351 424 L319 434 L275 436 L245 433 L221 428 L200 423 L176 414 L166 405 L164 402 L163 400 L148 398 L99 395 L43 394 L22 390 L12 385 L4 378 L0 367 L0 354 L5 333 L18 315 L50 289 L72 271 L88 250 L103 227 L111 205 L113 191 L111 183 L99 175 L85 167 L71 160 L64 156 L63 153 L63 150 L63 149 " fill="none" stroke="black" /></svg>