<?xml version="1.0" encoding="utf-8" ?>
<svg baseProfile="tiny" height="458" version="1.2" viewBox="-3 -3 537 458" width="537" xmlns="http://www.w3.org/2000/svg" xmlns:ev="http://www.w3.org/2001/xml-events" xmlns:xlink="http://www.w3.org/1999/xlink"><defs /><path d="M121 312 L126 287 L131 272 L132 269 L122 269 L91 273 L58 274 L37 273 L25 268 L17 262 L12 254 L7 244 L2 231 L0 212 L0 198 L0 184 L5 168 L11 162 L19 156 L30 152 L39 151 L52 150 L71 149 L90 149 L105 147 L117 144 L124 138 L131 128 L136 111 L139 98 L139 90 L139 85 L139 62 L142 20 L144 9 L147 5 L157 1 L169 0 L184 0 L202 8 L210 14 L217 25 L230 53 L240 77 L249 89 L257 94 L264 94 L271 90 L280 81 L287 72 L296 58 L307 40 L314 30 L321 21 L343 10 L362 8 L379 12 L396 29 L402 47 L402 64 L399 83 L394 105 L393 115 L396 121 L408 125 L423 125 L444 128 L457 131 L466 136 L468 136 L468 137 L469 138 L478 141 L496 149 L523 162 L532 169 L537 175 L537 185 L537 197 L531 211 L518 226 L501 236 L476 240 L451 241 L443 243 L440 245 L440 261 L450 287 L468 312 L486 335 L489 339 L491 342 L500 358 L511 380 L514 397 L514 409 L508 420 L492 436 L476 448 L463 454 L438 458 L413 458 L400 457 L387 451 L381 446 L374 438 L369 428 L366 417 L364 407 L363 398 L360 385 L358 378 L355 368 L351 362 L348 357 L341 353 L335 352 L331 352 L325 354 L319 358 L311 365 L300 374 L292 380 L284 385 L274 390 L265 393 L258 395 L247 398 L238 399 L232 399 L225 399 L223 399 L220 396 L218 389 L216 382 L216 377 L216 371 L216 367 L216 361 L217 354 L217 350 L218 345 L218 342 L218 341 L218 340 L218 338 L218 337 L218 336 L218 334 L217 334 " fill="none" stroke="black" /></svg>