<?xml version="1.0" encoding="utf-8" ?>
<svg baseProfile="tiny" height="138" version="1.2" viewBox="-3 -3 320 138" width="320" xmlns="http://www.w3.org/2000/svg" xmlns:ev="http://www.w3.org/2001/xml-events" xmlns:xlink="http://www.w3.org/1999/xlink"><defs /><path d="M0 138 L0 133 L1 130 L2 130 L4 130 L4 131 L5 131 L6 129 L9 127 L10 127 L11 127 L12 127 L13 126 L13 125 L14 124 L16 124 L23 127 L30 132 L33 132 L34 131 L34 122 L34 116 L41 116 L53 118 L58 118 L61 118 L62 111 L62 104 L62 102 L65 99 L68 96 L72 92 L77 89 L80 84 L82 77 L83 68 L83 63 L79 59 L70 54 L62 54 L55 54 L52 54 L51 56 L49 63 L48 76 L50 85 L56 92 L70 99 L90 101 L100 101 L109 101 L116 96 L121 91 L122 90 L126 89 L129 89 L130 89 L131 89 L131 88 L132 88 L135 88 L136 88 L136 87 L137 87 L139 87 L140 87 L141 87 L141 84 L141 81 L149 81 L158 82 L162 82 L163 79 L164 66 L164 59 L164 58 L166 59 L170 63 L171 65 L172 65 L176 66 L177 67 L180 67 L182 66 L184 63 L187 58 L190 53 L192 46 L192 38 L190 30 L186 27 L184 26 L182 26 L182 30 L186 41 L191 46 L199 48 L205 48 L210 46 L211 45 L214 41 L216 37 L218 35 L223 35 L226 37 L229 39 L229 38 L229 35 L230 33 L234 33 L238 34 L241 35 L242 35 L243 35 L244 33 L244 32 L245 32 L248 32 L251 32 L253 32 L255 28 L256 19 L255 8 L250 3 L244 0 L240 0 L239 0 L239 5 L246 23 L258 35 L270 38 L279 34 L284 28 L286 25 L289 22 L292 20 L295 20 L299 20 L301 20 L302 20 L303 20 L305 19 L306 15 L307 13 L309 13 L312 13 L317 17 L319 18 L320 18 " fill="none" stroke="black" /></svg>