<?xml version="1.0" encoding="utf-8" ?>
<svg baseProfile="tiny" height="281" version="1.2" viewBox="-3 -3 301 281" width="301" xmlns="http://www.w3.org/2000/svg" xmlns:ev="http://www.w3.org/2001/xml-events" xmlns:xlink="http://www.w3.org/1999/xlink"><defs /><path d="M84 202 L87 195 L91 190 L103 187 L114 187 L128 190 L135 193 L142 193 L148 191 L155 183 L163 174 L175 170 L185 171 L189 174 L192 177 L192 186 L185 223 L170 269 L167 278 L167 281 L171 281 L185 277 L199 272 L213 267 L225 264 L231 262 L260 245 L284 223 L299 201 L301 184 L294 176 L282 169 L271 164 L265 161 L265 156 L273 145 L281 138 L289 130 L295 122 L296 117 L291 112 L272 104 L261 100 L257 97 L256 87 L255 74 L250 66 L221 60 L190 59 L187 59 L169 59 L127 61 L96 65 L90 66 L89 66 L82 66 L65 70 L35 84 L8 103 L1 114 L0 120 L1 124 L7 127 L11 131 L17 140 L26 156 L37 168 L62 172 L89 163 L113 154 L134 148 L151 139 L169 125 L190 97 L197 79 L198 70 L198 66 L181 60 L162 58 L153 58 L146 59 L139 60 L131 60 L120 42 L111 16 L103 4 L91 0 L75 5 L54 28 L36 66 L29 94 L29 105 L36 110 L50 114 L88 116 L138 114 L170 110 L189 104 L203 95 L208 86 L209 79 L209 76 L209 73 L206 65 L197 54 L171 41 L142 29 L134 23 L131 17 L129 12 L123 11 L114 16 L107 27 L92 59 L83 89 L80 109 L80 117 L80 122 L76 153 L71 195 L69 218 L69 224 L72 226 L82 226 L100 220 L125 212 L140 210 L150 206 L163 191 L174 170 L179 159 L182 155 L191 153 L205 150 L213 148 L216 145 L218 141 L223 137 L228 135 L232 135 L234 133 L234 129 L234 117 L232 101 L232 93 L233 90 L236 87 L239 86 L241 85 L242 85 " fill="none" stroke="black" /></svg>