<?xml version="1.0" encoding="utf-8" ?>
<svg baseProfile="tiny" height="269" version="1.2" viewBox="-3 -3 393 269" width="393" xmlns="http://www.w3.org/2000/svg" xmlns:ev="http://www.w3.org/2001/xml-events" xmlns:xlink="http://www.w3.org/1999/xlink"><defs /><path d="M0 269 L3 269 L4 269 L7 269 L10 268 L13 267 L15 266 L18 266 L21 265 L23 265 L26 264 L27 263 L30 262 L32 262 L35 261 L37 261 L39 259 L41 259 L43 258 L45 257 L47 256 L49 255 L50 254 L52 252 L53 251 L56 249 L58 247 L60 246 L62 244 L64 242 L65 242 L66 242 L67 241 L68 239 L69 237 L72 235 L73 233 L74 231 L77 229 L78 227 L80 224 L83 220 L85 216 L89 211 L93 206 L95 203 L97 201 L100 198 L101 198 L102 196 L104 194 L106 190 L111 184 L114 180 L119 175 L123 171 L126 168 L129 165 L134 161 L137 158 L140 157 L143 155 L147 154 L150 152 L155 150 L161 148 L164 147 L168 146 L169 146 L170 146 L173 145 L176 144 L178 143 L182 142 L185 141 L188 140 L192 139 L194 137 L197 136 L202 134 L206 133 L210 131 L213 130 L216 128 L218 126 L221 124 L223 122 L225 120 L228 118 L229 118 L232 116 L235 115 L238 112 L239 110 L241 108 L243 104 L245 100 L248 95 L252 88 L255 83 L258 79 L262 74 L265 70 L269 66 L273 62 L276 59 L279 56 L282 52 L285 50 L287 47 L291 45 L293 44 L296 43 L300 41 L303 40 L306 40 L311 39 L314 39 L317 39 L320 39 L321 39 L322 39 L323 39 L324 39 L326 39 L330 38 L333 37 L337 36 L340 35 L343 35 L345 34 L350 33 L354 32 L356 31 L360 30 L362 29 L365 27 L368 26 L370 24 L373 22 L374 19 L376 17 L377 15 L379 13 L381 11 L382 10 L385 7 L387 5 L391 2 L393 0 " fill="none" stroke="black" /></svg>