<?xml version="1.0" encoding="utf-8" ?>
<svg baseProfile="tiny" height="433" version="1.2" viewBox="-3 -3 672 433" width="672" xmlns="http://www.w3.org/2000/svg" xmlns:ev="http://www.w3.org/2001/xml-events" xmlns:xlink="http://www.w3.org/1999/xlink"><defs /><path d="M671 433 L672 424 L671 412 L658 390 L643 372 L626 359 L599 343 L580 336 L559 331 L537 329 L518 331 L501 337 L484 346 L470 353 L459 361 L449 372 L442 382 L437 391 L434 397 L434 399 L434 400 L437 401 L442 403 L448 405 L461 405 L466 403 L468 400 L472 391 L473 378 L468 360 L448 341 L417 325 L374 319 L341 320 L298 332 L273 342 L255 353 L247 359 L235 380 L234 387 L234 390 L234 393 L241 399 L249 402 L257 402 L263 402 L267 395 L272 375 L274 358 L272 348 L261 337 L244 325 L230 316 L210 303 L187 288 L173 278 L164 271 L155 265 L146 260 L140 256 L136 253 L133 249 L131 247 L130 245 L128 245 L119 240 L107 231 L88 217 L66 202 L52 195 L39 187 L28 179 L16 171 L11 168 L6 164 L4 163 L3 161 L2 161 L1 160 L0 159 L0 158 L0 157 L2 157 L4 156 L8 154 L19 149 L39 139 L69 126 L117 105 L160 81 L201 54 L234 30 L256 16 L273 4 L280 0 L280 4 L282 13 L284 23 L292 36 L306 52 L336 74 L385 91 L423 94 L435 94 L440 93 L443 92 L444 92 " fill="none" stroke="black" /><path d="M671 433 L672 424 L671 412 L658 390 L643 372 L626 359 L599 343 L580 336 L559 331 L537 329 L518 331 L501 337 L484 346 L470 353 L459 361 L449 372 L442 382 L437 391 L434 397 L434 399 L434 400 L437 401 L442 403 L448 405 L461 405 L466 403 L468 400 L472 391 L473 378 L468 360 L448 341 L417 325 L374 319 L341 320 L298 332 L273 342 L255 353 L247 359 L235 380 L234 387 L234 390 L234 393 L241 399 L249 402 L257 402 L263 402 L267 395 L272 375 L274 358 L272 348 L261 337 L244 325 L230 316 L210 303 L187 288 L173 278 L164 271 L155 265 L146 260 L140 256 L136 253 L133 249 L131 247 L130 245 L128 245 L119 240 L107 231 L88 217 L66 202 L52 195 L39 187 L28 179 L16 171 L11 168 L6 164 L4 163 L3 161 L2 161 L1 160 L0 159 L0 158 L0 157 L2 157 L4 156 L8 154 L19 149 L39 139 L69 126 L117 105 L160 81 L201 54 L234 30 L256 16 L273 4 L280 0 L280 4 L282 13 L284 23 L292 36 L306 52 L336 74 L385 91 L423 94 L435 94 L440 93 L443 92 L444 92 M448 211 L449 211 L450 211 L454 212 L462 213 L481 213 L511 213 L537 213 L557 212 L575 208 L587 204 L596 198 L605 190 L612 181 L618 170 L623 156 L624 146 L624 134 L623 115 L617 100 L611 92 L603 88 L593 87 L583 87 L568 92 L556 99 L549 103 L546 110 L543 119 L542 132 L542 145 L543 157 L548 171 L555 184 L562 194 L568 204 L580 214 L593 224 L609 235 L623 242 L630 245 L633 245 L634 245 " fill="none" stroke="black" /></svg>