<?xml version="1.0" encoding="utf-8" ?>
<svg baseProfile="tiny" height="412" version="1.2" viewBox="-3 -3 386 412" width="386" xmlns="http://www.w3.org/2000/svg" xmlns:ev="http://www.w3.org/2001/xml-events" xmlns:xlink="http://www.w3.org/1999/xlink"><defs /><path d="M261 265 L262 225 L261 198 L261 195 L263 188 L273 156 L277 134 L277 126 L277 120 L277 119 L277 117 L280 117 L285 120 L294 126 L303 135 L316 151 L326 166 L330 189 L326 212 L303 241 L242 278 L188 287 L145 283 L107 265 L89 246 L80 223 L78 176 L90 133 L116 93 L152 71 L195 68 L221 81 L240 111 L245 156 L236 211 L219 240 L187 264 L151 276 L109 273 L83 251 L61 206 L43 155 L33 128 L26 110 L18 94 L12 84 L7 74 L4 67 L1 63 L0 61 L0 60 L1 60 L2 62 L5 64 L9 67 L19 74 L36 84 L59 96 L84 107 L123 115 L155 115 L187 105 L200 96 L205 87 L205 78 L197 69 L185 59 L169 52 L158 52 L150 53 L144 62 L140 72 L139 84 L144 104 L159 123 L187 141 L238 160 L274 163 L307 151 L334 120 L359 69 L373 24 L378 5 L378 2 L378 1 L378 0 L376 2 L370 5 L350 16 L321 34 L286 54 L245 77 L197 108 L170 130 L144 164 L130 193 L122 217 L119 236 L119 247 L123 257 L144 273 L167 280 L173 280 L174 280 L178 283 L196 295 L231 311 L264 319 L288 320 L301 310 L307 292 L308 269 L299 257 L276 252 L246 255 L231 266 L220 279 L204 308 L191 334 L180 362 L172 391 L172 403 L172 409 L172 411 L172 412 " fill="none" stroke="black" /><path d="M261 265 L262 225 L261 198 L261 195 L263 188 L273 156 L277 134 L277 126 L277 120 L277 119 L277 117 L280 117 L285 120 L294 126 L303 135 L316 151 L326 166 L330 189 L326 212 L303 241 L242 278 L188 287 L145 283 L107 265 L89 246 L80 223 L78 176 L90 133 L116 93 L152 71 L195 68 L221 81 L240 111 L245 156 L236 211 L219 240 L187 264 L151 276 L109 273 L83 251 L61 206 L43 155 L33 128 L26 110 L18 94 L12 84 L7 74 L4 67 L1 63 L0 61 L0 60 L1 60 L2 62 L5 64 L9 67 L19 74 L36 84 L59 96 L84 107 L123 115 L155 115 L187 105 L200 96 L205 87 L205 78 L197 69 L185 59 L169 52 L158 52 L150 53 L144 62 L140 72 L139 84 L144 104 L159 123 L187 141 L238 160 L274 163 L307 151 L334 120 L359 69 L373 24 L378 5 L378 2 L378 1 L378 0 L376 2 L370 5 L350 16 L321 34 L286 54 L245 77 L197 108 L170 130 L144 164 L130 193 L122 217 L119 236 L119 247 L123 257 L144 273 L167 280 L173 280 L174 280 L178 283 L196 295 L231 311 L264 319 L288 320 L301 310 L307 292 L308 269 L299 257 L276 252 L246 255 L231 266 L220 279 L204 308 L191 334 L180 362 L172 391 L172 403 L172 409 L172 411 L172 412 M121 329 L119 329 L114 331 L107 333 L96 336 L80 339 L73 340 L71 340 L70 340 " fill="none" stroke="black" /><path d="M261 265 L262 225 L261 198 L261 195 L263 188 L273 156 L277 134 L277 126 L277 120 L277 119 L277 117 L280 117 L285 120 L294 126 L303 135 L316 151 L326 166 L330 189 L326 212 L303 241 L242 278 L188 287 L145 283 L107 265 L89 246 L80 223 L78 176 L90 133 L116 93 L152 71 L195 68 L221 81 L240 111 L245 156 L236 211 L219 240 L187 264 L151 276 L109 273 L83 251 L61 206 L43 155 L33 128 L26 110 L18 94 L12 84 L7 74 L4 67 L1 63 L0 61 L0 60 L1 60 L2 62 L5 64 L9 67 L19 74 L36 84 L59 96 L84 107 L123 115 L155 115 L187 105 L200 96 L205 87 L205 78 L197 69 L185 59 L169 52 L158 52 L150 53 L144 62 L140 72 L139 84 L144 104 L159 123 L187 141 L238 160 L274 163 L307 151 L334 120 L359 69 L373 24 L378 5 L378 2 L378 1 L378 0 L376 2 L370 5 L350 16 L321 34 L286 54 L245 77 L197 108 L170 130 L144 164 L130 193 L122 217 L119 236 L119 247 L123 257 L144 273 L167 280 L173 280 L174 280 L178 283 L196 295 L231 311 L264 319 L288 320 L301 310 L307 292 L308 269 L299 257 L276 252 L246 255 L231 266 L220 279 L204 308 L191 334 L180 362 L172 391 L172 403 L172 409 L172 411 L172 412 M121 329 L119 329 L114 331 L107 333 L96 336 L80 339 L73 340 L71 340 L70 340 M190 218 L190 216 L190 210 L190 197 L189 183 L188 176 L187 172 " fill="none" stroke="black" /><path d="M261 265 L262 225 L261 198 L261 195 L263 188 L273 156 L277 134 L277 126 L277 120 L277 119 L277 117 L280 117 L285 120 L294 126 L303 135 L316 151 L326 166 L330 189 L326 212 L303 241 L242 278 L188 287 L145 283 L107 265 L89 246 L80 223 L78 176 L90 133 L116 93 L152 71 L195 68 L221 81 L240 111 L245 156 L236 211 L219 240 L187 264 L151 276 L109 273 L83 251 L61 206 L43 155 L33 128 L26 110 L18 94 L12 84 L7 74 L4 67 L1 63 L0 61 L0 60 L1 60 L2 62 L5 64 L9 67 L19 74 L36 84 L59 96 L84 107 L123 115 L155 115 L187 105 L200 96 L205 87 L205 78 L197 69 L185 59 L169 52 L158 52 L150 53 L144 62 L140 72 L139 84 L144 104 L159 123 L187 141 L238 160 L274 163 L307 151 L334 120 L359 69 L373 24 L378 5 L378 2 L378 1 L378 0 L376 2 L370 5 L350 16 L321 34 L286 54 L245 77 L197 108 L170 130 L144 164 L130 193 L122 217 L119 236 L119 247 L123 257 L144 273 L167 280 L173 280 L174 280 L178 283 L196 295 L231 311 L264 319 L288 320 L301 310 L307 292 L308 269 L299 257 L276 252 L246 255 L231 266 L220 279 L204 308 L191 334 L180 362 L172 391 L172 403 L172 409 L172 411 L172 412 M121 329 L119 329 L114 331 L107 333 L96 336 L80 339 L73 340 L71 340 L70 340 M190 218 L190 216 L190 210 L190 197 L189 183 L188 176 L187 172 M356 194 L357 194 L359 194 L368 194 L376 194 L382 194 L384 194 L386 194 " fill="none" stroke="black" /></svg>