<?xml version="1.0" encoding="utf-8" ?>
<svg baseProfile="tiny" height="195" version="1.2" viewBox="-3 -3 400 195" width="400" xmlns="http://www.w3.org/2000/svg" xmlns:ev="http://www.w3.org/2001/xml-events" xmlns:xlink="http://www.w3.org/1999/xlink"><defs /><path d="M279 195 L276 163 L275 145 L275 131 L275 124 L275 120 L275 115 L275 111 L275 110 L275 108 L279 108 L288 108 L313 110 L340 112 L363 112 L379 112 L391 112 L397 112 L398 112 L399 112 L400 112 " fill="none" stroke="black" /><path d="M279 195 L276 163 L275 145 L275 131 L275 124 L275 120 L275 115 L275 111 L275 110 L275 108 L279 108 L288 108 L313 110 L340 112 L363 112 L379 112 L391 112 L397 112 L398 112 L399 112 L400 112 M0 2 L0 3 L0 7 L1 22 L2 42 L3 69 L3 87 L3 106 L3 122 L3 137 L3 148 L3 157 L3 165 L3 167 L4 167 L7 168 L14 169 L32 172 L53 176 L76 177 L100 178 L116 178 L133 178 L159 178 L180 180 L202 181 L215 182 L225 182 L234 182 L242 182 L243 182 L245 182 L251 182 L259 181 L270 181 L284 180 L294 179 L305 178 L317 177 L326 175 L335 175 L342 174 L345 174 L347 174 L347 173 L348 173 L348 172 L348 170 L348 168 L347 163 L345 155 L344 144 L342 132 L342 125 L342 119 L342 113 L342 110 L342 109 L342 103 L342 79 L343 59 L345 47 L346 42 L346 36 L346 32 L346 27 L346 21 L346 16 L346 11 L346 8 L346 7 L346 5 L346 4 L346 3 L339 2 L314 2 L282 2 L243 2 L214 2 L189 2 L165 4 L140 5 L126 5 L116 6 L112 6 L111 6 L110 6 L104 6 L96 6 L87 6 L82 6 L79 6 L76 5 L75 5 L74 5 L72 5 L71 5 L70 5 L67 5 L66 5 L64 4 L62 4 L60 4 L58 4 L55 4 L53 4 L51 3 L49 3 L46 2 L45 2 L43 2 L42 2 L38 2 L34 2 L30 2 L25 2 L22 2 L19 2 L15 2 L13 2 L11 2 L9 1 L7 1 L6 1 L5 1 L4 0 L2 0 L1 0 L0 0 " fill="none" stroke="black" /></svg>