<?xml version="1.0" encoding="utf-8" ?>
<svg baseProfile="tiny" height="185" version="1.2" viewBox="-3 -3 496 185" width="496" xmlns="http://www.w3.org/2000/svg" xmlns:ev="http://www.w3.org/2001/xml-events" xmlns:xlink="http://www.w3.org/1999/xlink"><defs /><path d="M0 108 L11 108 L49 98 L55 95 L66 89 L72 83 L81 74 L90 60 L95 48 L99 35 L99 25 L99 16 L95 8 L92 3 L86 0 L81 0 L77 0 L74 0 L72 3 L70 5 L68 9 L67 13 L66 18 L65 21 L65 27 L65 31 L65 36 L65 41 L66 47 L70 51 L76 58 L80 64 L85 68 L93 73 L102 78 L112 82 L125 86 L135 87 L146 87 L152 87 L160 83 L166 79 L172 73 L177 62 L179 53 L179 45 L172 35 L162 28 L154 25 L148 24 L144 24 L141 28 L139 32 L136 38 L133 49 L132 56 L132 64 L133 71 L138 82 L146 92 L163 109 L201 135 L228 150 L231 150 L233 150 L237 150 L250 149 L262 144 L271 138 L278 131 L280 126 L281 120 L280 116 L278 115 L271 114 L261 114 L255 116 L251 119 L245 129 L243 135 L242 143 L242 154 L243 160 L246 165 L255 172 L264 177 L277 182 L287 184 L300 185 L318 185 L330 184 L341 181 L353 175 L365 168 L373 162 L379 154 L385 144 L385 136 L385 129 L378 121 L370 117 L361 114 L352 114 L347 114 L344 117 L342 121 L340 126 L340 132 L340 139 L342 147 L345 155 L352 162 L359 167 L366 172 L378 178 L389 181 L404 183 L418 183 L427 183 L431 183 L436 180 L441 175 L447 168 L453 159 L456 151 L459 140 L459 130 L455 117 L447 105 L439 98 L435 96 L433 96 L432 96 L431 98 L431 103 L431 107 L434 111 L445 120 L458 128 L463 129 L468 129 L475 128 L481 122 L487 116 L492 107 L495 102 L496 99 L496 97 L496 96 L496 95 " fill="none" stroke="black" /></svg>