<?xml version="1.0" encoding="utf-8" ?>
<svg baseProfile="tiny" height="569" version="1.2" viewBox="-3 -3 1246 569" width="1246" xmlns="http://www.w3.org/2000/svg" xmlns:ev="http://www.w3.org/2001/xml-events" xmlns:xlink="http://www.w3.org/1999/xlink"><defs /><path d="M737 304 L730 300 L727 298 L726 298 " fill="none" stroke="black" /><path d="M737 304 L730 300 L727 298 L726 298 M0 254 L0 253 L0 252 L2 252 L35 251 L157 251 L363 249 L700 239 L941 235 L1120 233 L1182 233 L1186 233 " fill="none" stroke="black" /><path d="M737 304 L730 300 L727 298 L726 298 M0 254 L0 253 L0 252 L2 252 L35 251 L157 251 L363 249 L700 239 L941 235 L1120 233 L1182 233 L1186 233 M17 314 L31 312 L134 307 L369 307 L758 311 L1021 315 L1187 315 L1246 315 " fill="none" stroke="black" /><path d="M737 304 L730 300 L727 298 L726 298 M0 254 L0 253 L0 252 L2 252 L35 251 L157 251 L363 249 L700 239 L941 235 L1120 233 L1182 233 L1186 233 M17 314 L31 312 L134 307 L369 307 L758 311 L1021 315 L1187 315 L1246 315 M45 153 L48 152 L58 151 L85 151 L166 152 L282 156 L461 165 L766 165 L1015 165 L1182 172 L1246 178 L1246 181 " fill="none" stroke="black" /><path d="M737 304 L730 300 L727 298 L726 298 M0 254 L0 253 L0 252 L2 252 L35 251 L157 251 L363 249 L700 239 L941 235 L1120 233 L1182 233 L1186 233 M17 314 L31 312 L134 307 L369 307 L758 311 L1021 315 L1187 315 L1246 315 M45 153 L48 152 L58 151 L85 151 L166 152 L282 156 L461 165 L766 165 L1015 165 L1182 172 L1246 178 L1246 181 M36 357 L36 358 L37 358 L43 358 L110 360 L268 365 L519 375 L813 377 L1101 379 L1186 381 L1207 383 L1210 384 " fill="none" stroke="black" /><path d="M737 304 L730 300 L727 298 L726 298 M0 254 L0 253 L0 252 L2 252 L35 251 L157 251 L363 249 L700 239 L941 235 L1120 233 L1182 233 L1186 233 M17 314 L31 312 L134 307 L369 307 L758 311 L1021 315 L1187 315 L1246 315 M45 153 L48 152 L58 151 L85 151 L166 152 L282 156 L461 165 L766 165 L1015 165 L1182 172 L1246 178 L1246 181 M36 357 L36 358 L37 358 L43 358 L110 360 L268 365 L519 375 L813 377 L1101 379 L1186 381 L1207 383 L1210 384 M39 428 L39 427 L45 427 L100 427 L217 434 L441 455 L668 466 L863 470 L1001 473 L1038 475 L1049 478 L1052 478 " fill="none" stroke="black" /><path d="M737 304 L730 300 L727 298 L726 298 M0 254 L0 253 L0 252 L2 252 L35 251 L157 251 L363 249 L700 239 L941 235 L1120 233 L1182 233 L1186 233 M17 314 L31 312 L134 307 L369 307 L758 311 L1021 315 L1187 315 L1246 315 M45 153 L48 152 L58 151 L85 151 L166 152 L282 156 L461 165 L766 165 L1015 165 L1182 172 L1246 178 L1246 181 M36 357 L36 358 L37 358 L43 358 L110 360 L268 365 L519 375 L813 377 L1101 379 L1186 381 L1207 383 L1210 384 M39 428 L39 427 L45 427 L100 427 L217 434 L441 455 L668 466 L863 470 L1001 473 L1038 475 L1049 478 L1052 478 M635 83 L525 201 L329 412 L223 511 L184 544 L169 557 L164 562 L159 567 L157 568 L157 569 " fill="none" stroke="black" /><path d="M737 304 L730 300 L727 298 L726 298 M0 254 L0 253 L0 252 L2 252 L35 251 L157 251 L363 249 L700 239 L941 235 L1120 233 L1182 233 L1186 233 M17 314 L31 312 L134 307 L369 307 L758 311 L1021 315 L1187 315 L1246 315 M45 153 L48 152 L58 151 L85 151 L166 152 L282 156 L461 165 L766 165 L1015 165 L1182 172 L1246 178 L1246 181 M36 357 L36 358 L37 358 L43 358 L110 360 L268 365 L519 375 L813 377 L1101 379 L1186 381 L1207 383 L1210 384 M39 428 L39 427 L45 427 L100 427 L217 434 L441 455 L668 466 L863 470 L1001 473 L1038 475 L1049 478 L1052 478 M635 83 L525 201 L329 412 L223 511 L184 544 L169 557 L164 562 L159 567 L157 568 L157 569 M838 116 L836 119 L829 127 L807 154 L750 220 L674 309 L598 402 L529 478 L493 514 L473 531 L463 541 L459 545 L457 548 L456 549 " fill="none" stroke="black" /><circle cx="577" cy="281" fill="black" r="1" /><circle cx="622" cy="184" fill="black" r="1" /><circle cx="497" cy="181" fill="black" r="1" /><circle cx="655" cy="233" fill="black" r="1" /><circle cx="642" cy="297" fill="black" r="1" /><circle cx="526" cy="335" fill="black" r="1" /><circle cx="515" cy="281" fill="black" r="1" /><circle cx="403" cy="273" fill="black" r="1" /><circle cx="391" cy="200" fill="black" r="1" /><circle cx="728" cy="179" fill="black" r="1" /><circle cx="756" cy="357" fill="black" r="1" /><circle cx="751" cy="406" fill="black" r="1" /><path d="M737 304 L730 300 L727 298 L726 298 M0 254 L0 253 L0 252 L2 252 L35 251 L157 251 L363 249 L700 239 L941 235 L1120 233 L1182 233 L1186 233 M17 314 L31 312 L134 307 L369 307 L758 311 L1021 315 L1187 315 L1246 315 M45 153 L48 152 L58 151 L85 151 L166 152 L282 156 L461 165 L766 165 L1015 165 L1182 172 L1246 178 L1246 181 M36 357 L36 358 L37 358 L43 358 L110 360 L268 365 L519 375 L813 377 L1101 379 L1186 381 L1207 383 L1210 384 M39 428 L39 427 L45 427 L100 427 L217 434 L441 455 L668 466 L863 470 L1001 473 L1038 475 L1049 478 L1052 478 M635 83 L525 201 L329 412 L223 511 L184 544 L169 557 L164 562 L159 567 L157 568 L157 569 M838 116 L836 119 L829 127 L807 154 L750 220 L674 309 L598 402 L529 478 L493 514 L473 531 L463 541 L459 545 L457 548 L456 549 M505 397 L504 397 " fill="none" stroke="black" /><path d="M737 304 L730 300 L727 298 L726 298 M0 254 L0 253 L0 252 L2 252 L35 251 L157 251 L363 249 L700 239 L941 235 L1120 233 L1182 233 L1186 233 M17 314 L31 312 L134 307 L369 307 L758 311 L1021 315 L1187 315 L1246 315 M45 153 L48 152 L58 151 L85 151 L166 152 L282 156 L461 165 L766 165 L1015 165 L1182 172 L1246 178 L1246 181 M36 357 L36 358 L37 358 L43 358 L110 360 L268 365 L519 375 L813 377 L1101 379 L1186 381 L1207 383 L1210 384 M39 428 L39 427 L45 427 L100 427 L217 434 L441 455 L668 466 L863 470 L1001 473 L1038 475 L1049 478 L1052 478 M635 83 L525 201 L329 412 L223 511 L184 544 L169 557 L164 562 L159 567 L157 568 L157 569 M838 116 L836 119 L829 127 L807 154 L750 220 L674 309 L598 402 L529 478 L493 514 L473 531 L463 541 L459 545 L457 548 L456 549 M505 397 L504 397 M247 392 L246 393 " fill="none" stroke="black" /><path d="M737 304 L730 300 L727 298 L726 298 M0 254 L0 253 L0 252 L2 252 L35 251 L157 251 L363 249 L700 239 L941 235 L1120 233 L1182 233 L1186 233 M17 314 L31 312 L134 307 L369 307 L758 311 L1021 315 L1187 315 L1246 315 M45 153 L48 152 L58 151 L85 151 L166 152 L282 156 L461 165 L766 165 L1015 165 L1182 172 L1246 178 L1246 181 M36 357 L36 358 L37 358 L43 358 L110 360 L268 365 L519 375 L813 377 L1101 379 L1186 381 L1207 383 L1210 384 M39 428 L39 427 L45 427 L100 427 L217 434 L441 455 L668 466 L863 470 L1001 473 L1038 475 L1049 478 L1052 478 M635 83 L525 201 L329 412 L223 511 L184 544 L169 557 L164 562 L159 567 L157 568 L157 569 M838 116 L836 119 L829 127 L807 154 L750 220 L674 309 L598 402 L529 478 L493 514 L473 531 L463 541 L459 545 L457 548 L456 549 M505 397 L504 397 M247 392 L246 393 M142 81 L147 81 L174 85 L238 90 L383 90 L523 86 L635 84 L694 82 L706 82 L715 80 L747 74 L811 69 L875 66 L967 65 L1043 64 L1076 63 L1098 62 L1105 62 L1108 62 L1111 62 L1126 62 L1159 62 L1208 62 L1246 62 L1246 61 L1246 59 L1246 58 " fill="none" stroke="black" /><circle cx="307" cy="195" fill="black" r="1" /><path d="M737 304 L730 300 L727 298 L726 298 M0 254 L0 253 L0 252 L2 252 L35 251 L157 251 L363 249 L700 239 L941 235 L1120 233 L1182 233 L1186 233 M17 314 L31 312 L134 307 L369 307 L758 311 L1021 315 L1187 315 L1246 315 M45 153 L48 152 L58 151 L85 151 L166 152 L282 156 L461 165 L766 165 L1015 165 L1182 172 L1246 178 L1246 181 M36 357 L36 358 L37 358 L43 358 L110 360 L268 365 L519 375 L813 377 L1101 379 L1186 381 L1207 383 L1210 384 M39 428 L39 427 L45 427 L100 427 L217 434 L441 455 L668 466 L863 470 L1001 473 L1038 475 L1049 478 L1052 478 M635 83 L525 201 L329 412 L223 511 L184 544 L169 557 L164 562 L159 567 L157 568 L157 569 M838 116 L836 119 L829 127 L807 154 L750 220 L674 309 L598 402 L529 478 L493 514 L473 531 L463 541 L459 545 L457 548 L456 549 M505 397 L504 397 M247 392 L246 393 M142 81 L147 81 L174 85 L238 90 L383 90 L523 86 L635 84 L694 82 L706 82 L715 80 L747 74 L811 69 L875 66 L967 65 L1043 64 L1076 63 L1098 62 L1105 62 L1108 62 L1111 62 L1126 62 L1159 62 L1208 62 L1246 62 L1246 61 L1246 59 L1246 58 M307 195 L307 193 L308 188 L313 174 L321 154 L325 143 L327 137 L330 132 L334 128 L337 125 L341 123 L345 122 L351 121 L358 121 L362 121 L365 120 L366 120 L367 119 " fill="none" stroke="black" /><circle cx="367" cy="119" fill="black" r="1" /><path d="M737 304 L730 300 L727 298 L726 298 M0 254 L0 253 L0 252 L2 252 L35 251 L157 251 L363 249 L700 239 L941 235 L1120 233 L1182 233 L1186 233 M17 314 L31 312 L134 307 L369 307 L758 311 L1021 315 L1187 315 L1246 315 M45 153 L48 152 L58 151 L85 151 L166 152 L282 156 L461 165 L766 165 L1015 165 L1182 172 L1246 178 L1246 181 M36 357 L36 358 L37 358 L43 358 L110 360 L268 365 L519 375 L813 377 L1101 379 L1186 381 L1207 383 L1210 384 M39 428 L39 427 L45 427 L100 427 L217 434 L441 455 L668 466 L863 470 L1001 473 L1038 475 L1049 478 L1052 478 M635 83 L525 201 L329 412 L223 511 L184 544 L169 557 L164 562 L159 567 L157 568 L157 569 M838 116 L836 119 L829 127 L807 154 L750 220 L674 309 L598 402 L529 478 L493 514 L473 531 L463 541 L459 545 L457 548 L456 549 M505 397 L504 397 M247 392 L246 393 M142 81 L147 81 L174 85 L238 90 L383 90 L523 86 L635 84 L694 82 L706 82 L715 80 L747 74 L811 69 L875 66 L967 65 L1043 64 L1076 63 L1098 62 L1105 62 L1108 62 L1111 62 L1126 62 L1159 62 L1208 62 L1246 62 L1246 61 L1246 59 L1246 58 M307 195 L307 193 L308 188 L313 174 L321 154 L325 143 L327 137 L330 132 L334 128 L337 125 L341 123 L345 122 L351 121 L358 121 L362 121 L365 120 L366 120 L367 119 M297 1 L297 0 " fill="none" stroke="black" /></svg>