<?xml version="1.0" encoding="utf-8" ?>
<svg baseProfile="tiny" height="244" version="1.2" viewBox="-3 -3 266 244" width="266" xmlns="http://www.w3.org/2000/svg" xmlns:ev="http://www.w3.org/2001/xml-events" xmlns:xlink="http://www.w3.org/1999/xlink"><defs /><path d="M0 57 L4 56 L8 56 L12 55 L15 55 L19 55 L22 55 L25 55 L29 54 L34 53 L38 51 L42 49 L43 47 L44 43 L47 36 L50 31 L53 25 L56 20 L61 14 L64 10 L67 7 L74 4 L80 2 L86 0 L89 0 L93 0 L97 0 L101 0 L104 0 L109 1 L112 3 L114 5 L116 6 L117 8 L119 9 L120 12 L120 14 L121 17 L123 22 L124 24 L124 28 L125 30 L125 33 L125 36 L125 40 L126 42 L127 45 L130 47 L131 48 L132 49 L135 49 L140 49 L146 50 L156 51 L163 51 L168 51 L174 51 L178 51 L181 50 L184 50 L189 50 L193 50 L199 50 L203 50 L204 51 L207 53 L208 55 L208 57 L210 60 L210 64 L211 67 L211 72 L211 77 L211 81 L211 84 L212 87 L213 91 L214 91 L217 92 L225 95 L231 97 L238 99 L245 101 L249 102 L253 103 L255 105 L258 107 L260 109 L262 111 L264 113 L265 116 L265 120 L266 123 L266 126 L265 131 L264 135 L261 138 L258 143 L255 147 L251 150 L246 152 L243 154 L240 156 L237 159 L235 161 L232 164 L229 170 L226 176 L224 182 L224 184 L221 186 L218 189 L216 191 L215 192 L215 193 L215 195 L215 196 L215 198 L215 201 L216 204 L218 206 L218 207 L219 208 L220 209 L222 209 L222 211 L224 212 L226 213 L227 214 L229 216 L230 218 L233 220 L234 222 L235 224 L237 226 L237 228 L238 229 L238 231 L239 232 L239 233 L239 234 L239 235 L240 235 L241 236 L242 238 L242 240 L242 241 L242 242 L242 243 L242 244 " fill="none" stroke="black" /></svg>