<?xml version="1.0" encoding="utf-8" ?>
<svg baseProfile="tiny" height="126" version="1.2" viewBox="-3 -3 381 126" width="381" xmlns="http://www.w3.org/2000/svg" xmlns:ev="http://www.w3.org/2001/xml-events" xmlns:xlink="http://www.w3.org/1999/xlink"><defs /><path d="M11 7 L7 5 L4 6 L1 10 L0 17 L0 27 L0 41 L6 67 L16 85 L33 103 L58 120 L78 126 L98 125 L106 118 L114 106 L120 88 L122 76 L122 74 L123 74 L124 74 L127 77 L129 79 L131 80 L134 74 L136 71 L137 71 L140 71 L147 71 L151 72 L155 69 L157 66 L159 66 L163 66 L166 66 L168 66 L171 64 L173 62 L176 62 L180 62 L183 62 L189 62 L197 58 L203 55 L206 52 L209 49 L209 48 L214 50 L216 51 L217 51 L218 51 L219 51 L219 50 L224 48 L227 48 L230 47 L232 46 L233 45 L234 44 L236 43 L238 43 L241 43 L244 43 L245 43 L247 43 L248 41 L250 40 L252 40 L255 40 L258 40 L261 39 L264 36 L266 33 L267 32 L268 32 L280 32 L300 34 L310 34 L314 34 L316 31 L321 23 L323 16 L325 12 L326 12 L327 12 L329 12 L330 12 L331 12 L332 12 L334 10 L337 9 L342 9 L347 10 L348 10 L349 10 L352 6 L353 2 L356 2 L359 2 L362 2 L363 2 L364 2 L366 2 L367 1 L368 0 L371 0 L373 1 L374 1 L375 1 L376 1 L377 2 L380 6 L380 7 L381 9 L381 10 L381 12 L380 16 L376 23 L371 28 L369 30 L361 31 L350 31 L347 31 L346 31 L345 32 L343 32 L342 33 L341 35 L340 35 L336 36 L332 37 L329 38 L326 41 L319 51 L315 58 L314 61 L313 62 L311 62 L304 62 L297 62 L292 62 L291 63 L290 64 L287 65 L284 66 L282 66 L278 66 L274 66 L272 66 L271 66 " fill="none" stroke="black" /></svg>