<?xml version="1.0" encoding="utf-8" ?>
<svg baseProfile="tiny" height="338" version="1.2" viewBox="-3 -3 606 338" width="606" xmlns="http://www.w3.org/2000/svg" xmlns:ev="http://www.w3.org/2001/xml-events" xmlns:xlink="http://www.w3.org/1999/xlink"><defs /><path d="M305 0 L302 6 L300 13 L300 17 L300 20 L300 24 L302 29 L304 35 L307 40 L310 44 L316 49 L324 57 L332 62 L341 67 L349 71 L355 73 L356 73 L357 74 L359 76 L367 81 L381 87 L401 99 L437 115 L476 131 L520 147 L570 164 L593 173 L602 175 L604 176 L605 176 L606 176 L606 177 L606 178 L604 178 L602 178 L599 178 L593 179 L583 180 L567 182 L551 185 L527 188 L509 190 L488 193 L452 198 L417 204 L367 213 L278 236 L166 268 L106 288 L58 306 L36 319 L25 327 L19 331 L17 333 L17 334 L17 335 L17 336 L19 337 L21 338 L23 338 L25 338 L31 338 L39 338 L46 338 L55 336 L60 333 L63 331 L68 323 L72 318 L73 314 L75 310 L75 306 L75 303 L74 298 L72 293 L69 289 L64 284 L60 281 L52 277 L39 272 L29 269 L19 267 L9 264 L4 263 L1 263 L0 263 L1 263 L3 263 L7 263 L17 260 L36 254 L79 241 L131 222 L190 198 L235 179 L267 165 L285 158 L289 157 L291 156 L292 156 L293 155 L294 154 L295 153 L297 152 L298 150 L300 147 L303 143 L307 140 L313 135 L321 132 L327 128 L334 125 L344 119 L351 116 L355 113 L358 110 L359 108 L352 108 L339 108 L313 110 L274 116 L241 123 L215 127 L188 131 L171 136 L159 139 L147 143 L137 147 L130 152 L125 157 L124 163 L124 176 L124 202 L130 217 L142 227 L151 229 L160 227 L171 214 L182 193 L185 180 L185 166 L179 150 L171 132 L162 111 L151 92 L145 83 L142 77 L140 74 " fill="none" stroke="black" /></svg>