<?xml version="1.0" encoding="utf-8" ?>
<svg baseProfile="tiny" height="188" version="1.2" viewBox="-3 -3 299 188" width="299" xmlns="http://www.w3.org/2000/svg" xmlns:ev="http://www.w3.org/2001/xml-events" xmlns:xlink="http://www.w3.org/1999/xlink"><defs /><path d="M0 97 L7 106 L11 136 L13 157 L13 160 L17 151 L21 143 L22 141 L24 142 L26 148 L27 150 L29 150 L34 142 L39 137 L43 137 L53 156 L57 170 L58 173 L60 171 L61 159 L62 156 L65 156 L68 161 L70 163 L71 163 L81 154 L89 145 L92 143 L93 143 L94 143 L95 148 L95 151 L95 152 L97 152 L98 151 L100 148 L101 147 L102 152 L103 164 L103 168 L103 169 L105 168 L108 160 L109 159 L110 159 L111 159 L112 161 L113 162 L115 161 L117 155 L119 153 L120 153 L120 156 L122 158 L123 154 L125 150 L126 150 L129 158 L130 162 L131 156 L133 151 L134 150 L135 150 L137 151 L140 148 L147 115 L150 103 L151 102 L157 110 L166 138 L177 172 L187 188 L192 179 L193 140 L193 118 L193 116 L193 118 L199 137 L201 145 L202 146 L202 140 L203 129 L203 128 L204 128 L207 137 L208 139 L208 133 L209 131 L211 133 L220 152 L227 163 L229 162 L229 127 L229 116 L231 119 L244 141 L253 141 L269 141 L274 139 L274 128 L273 107 L272 104 L276 108 L279 111 L281 111 L283 108 L283 102 L284 99 L288 100 L294 106 L298 107 L299 107 L299 90 L291 44 L290 35 L292 35 L293 35 L295 35 L286 26 L262 7 L242 0 L237 0 L238 2 L244 7 L249 10 L250 10 L221 8 L196 5 L189 5 L188 5 L191 5 L194 6 L194 10 L181 18 L155 27 L143 31 L141 31 L143 31 L152 31 L157 31 L158 31 L154 35 L145 43 L141 51 L139 58 L145 65 L150 69 L153 70 " fill="none" stroke="black" /></svg>