<?xml version="1.0" encoding="utf-8" ?>
<svg baseProfile="tiny" height="285" version="1.2" viewBox="-3 -3 347 285" width="347" xmlns="http://www.w3.org/2000/svg" xmlns:ev="http://www.w3.org/2001/xml-events" xmlns:xlink="http://www.w3.org/1999/xlink"><defs /><path d="M0 262 L5 262 L8 262 L14 256 L18 250 L23 238 L28 211 L31 195 L32 180 L32 166 L32 145 L33 123 L34 100 L36 75 L41 54 L48 40 L53 30 L57 27 L60 25 L62 25 L63 25 L65 25 L66 25 L67 27 L70 32 L72 38 L74 49 L77 63 L77 70 L78 79 L78 91 L78 102 L78 114 L78 127 L78 138 L78 151 L78 168 L78 181 L78 194 L82 211 L87 225 L92 235 L97 241 L100 242 L103 242 L105 242 L106 242 L107 241 L110 240 L112 238 L114 234 L119 227 L121 222 L123 216 L126 206 L127 196 L127 188 L127 176 L127 164 L127 149 L128 134 L133 113 L138 99 L143 89 L144 85 L146 83 L148 82 L151 80 L154 79 L157 79 L160 79 L164 81 L167 86 L172 95 L176 106 L179 116 L181 130 L181 140 L182 148 L182 159 L182 170 L182 185 L181 199 L181 215 L182 236 L188 255 L193 268 L198 275 L204 280 L211 283 L218 285 L223 285 L228 284 L235 279 L244 267 L249 257 L253 247 L256 233 L255 219 L251 204 L245 180 L239 160 L236 141 L234 120 L233 100 L233 80 L234 51 L238 27 L244 11 L247 2 L249 0 L251 0 L253 0 L256 2 L258 5 L260 9 L263 18 L266 27 L268 40 L269 52 L269 63 L269 72 L269 83 L269 93 L268 102 L267 115 L266 127 L266 142 L266 164 L269 180 L276 195 L284 209 L289 215 L293 216 L297 217 L302 216 L308 212 L315 199 L320 184 L320 167 L321 147 L321 135 L321 124 L325 106 L329 88 L332 80 L338 73 L342 71 L346 70 L347 70 " fill="none" stroke="black" /></svg>