<?xml version="1.0" encoding="utf-8" ?>
<svg baseProfile="tiny" height="411" version="1.2" viewBox="-3 -3 446 411" width="446" xmlns="http://www.w3.org/2000/svg" xmlns:ev="http://www.w3.org/2001/xml-events" xmlns:xlink="http://www.w3.org/1999/xlink"><defs /><path d="M14 411 L5 398 L0 380 L5 346 L55 253 L120 153 L140 121 L148 106 L153 94 L153 93 L154 90 L156 81 L157 66 L157 51 L157 37 L157 30 L157 25 L155 19 L153 15 L150 11 L145 5 L141 1 L138 0 L135 0 L134 0 L133 0 L132 0 L132 1 L132 4 L131 10 L131 17 L131 30 L140 69 L153 112 L171 165 L192 214 L199 228 L200 229 L203 233 L210 247 L216 265 L218 281 L219 292 L219 306 L219 323 L216 345 L213 357 L209 367 L205 375 L202 377 L199 379 L193 380 L188 382 L183 382 L179 381 L177 378 L174 369 L176 325 L188 274 L200 240 L220 205 L239 176 L254 152 L267 126 L272 110 L274 94 L273 69 L270 56 L268 49 L265 43 L263 39 L261 36 L258 35 L256 35 L255 35 L253 36 L252 40 L251 48 L251 63 L253 77 L263 100 L274 124 L286 144 L303 168 L317 183 L334 204 L358 235 L371 257 L381 276 L387 298 L388 311 L388 318 L388 321 L387 323 L383 323 L377 320 L371 311 L366 297 L362 280 L361 262 L361 250 L365 237 L374 220 L385 199 L396 179 L400 172 L403 166 L404 161 L405 154 L405 148 L404 140 L402 135 L398 131 L392 127 L388 126 L386 125 L385 125 L385 129 L385 133 L385 139 L386 152 L390 161 L393 168 L398 177 L402 183 L405 188 L411 195 L414 201 L418 208 L421 215 L423 221 L423 227 L424 234 L424 239 L424 242 L424 244 L424 245 L423 245 L422 245 L421 245 L421 241 L421 237 L421 229 L425 218 L429 211 L435 202 L442 193 L445 188 L446 188 " fill="none" stroke="black" /></svg>