<?xml version="1.0" encoding="utf-8" ?>
<svg baseProfile="tiny" height="418" version="1.2" viewBox="-3 -3 659 418" width="659" xmlns="http://www.w3.org/2000/svg" xmlns:ev="http://www.w3.org/2001/xml-events" xmlns:xlink="http://www.w3.org/1999/xlink"><defs /><path d="M239 133 L134 130 L61 124 L23 118 L9 116 L1 114 L0 114 L2 114 L9 119 L31 130 L83 152 L159 174 L286 204 L389 226 L503 249 L613 271 L645 279 L654 281 L657 281 L658 281 L659 281 L652 265 L635 212 L619 161 L609 138 L607 135 L606 134 L605 134 L604 134 L603 136 L591 160 L564 209 L527 272 L497 323 L472 365 L458 387 L452 395 L448 396 L444 394 L434 382 L406 351 L364 308 L302 254 L224 205 L178 180 L155 165 L146 158 L144 156 L144 155 L162 151 L308 108 L472 54 L593 16 L634 2 L640 0 L641 0 L637 5 L599 63 L526 172 L467 251 L444 277 L433 284 L416 288 L386 290 L361 288 L337 272 L311 234 L298 196 L296 156 L302 120 L310 101 L316 95 L320 95 L328 99 L350 113 L396 143 L444 170 L473 188 L482 193 L483 195 L478 197 L401 211 L265 242 L179 270 L134 288 L124 291 L122 291 L121 291 L121 289 L120 280 L118 267 L115 238 L114 193 L114 175 L114 170 L114 169 L117 174 L132 192 L160 227 L203 278 L235 315 L261 350 L285 382 L292 392 L294 395 " fill="none" stroke="black" /><path d="M239 133 L134 130 L61 124 L23 118 L9 116 L1 114 L0 114 L2 114 L9 119 L31 130 L83 152 L159 174 L286 204 L389 226 L503 249 L613 271 L645 279 L654 281 L657 281 L658 281 L659 281 L652 265 L635 212 L619 161 L609 138 L607 135 L606 134 L605 134 L604 134 L603 136 L591 160 L564 209 L527 272 L497 323 L472 365 L458 387 L452 395 L448 396 L444 394 L434 382 L406 351 L364 308 L302 254 L224 205 L178 180 L155 165 L146 158 L144 156 L144 155 L162 151 L308 108 L472 54 L593 16 L634 2 L640 0 L641 0 L637 5 L599 63 L526 172 L467 251 L444 277 L433 284 L416 288 L386 290 L361 288 L337 272 L311 234 L298 196 L296 156 L302 120 L310 101 L316 95 L320 95 L328 99 L350 113 L396 143 L444 170 L473 188 L482 193 L483 195 L478 197 L401 211 L265 242 L179 270 L134 288 L124 291 L122 291 L121 291 L121 289 L120 280 L118 267 L115 238 L114 193 L114 175 L114 170 L114 169 L117 174 L132 192 L160 227 L203 278 L235 315 L261 350 L285 382 L292 392 L294 395 M323 354 L324 357 L325 362 L328 373 L333 385 L338 403 L343 415 L345 418 " fill="none" stroke="black" /><path d="M239 133 L134 130 L61 124 L23 118 L9 116 L1 114 L0 114 L2 114 L9 119 L31 130 L83 152 L159 174 L286 204 L389 226 L503 249 L613 271 L645 279 L654 281 L657 281 L658 281 L659 281 L652 265 L635 212 L619 161 L609 138 L607 135 L606 134 L605 134 L604 134 L603 136 L591 160 L564 209 L527 272 L497 323 L472 365 L458 387 L452 395 L448 396 L444 394 L434 382 L406 351 L364 308 L302 254 L224 205 L178 180 L155 165 L146 158 L144 156 L144 155 L162 151 L308 108 L472 54 L593 16 L634 2 L640 0 L641 0 L637 5 L599 63 L526 172 L467 251 L444 277 L433 284 L416 288 L386 290 L361 288 L337 272 L311 234 L298 196 L296 156 L302 120 L310 101 L316 95 L320 95 L328 99 L350 113 L396 143 L444 170 L473 188 L482 193 L483 195 L478 197 L401 211 L265 242 L179 270 L134 288 L124 291 L122 291 L121 291 L121 289 L120 280 L118 267 L115 238 L114 193 L114 175 L114 170 L114 169 L117 174 L132 192 L160 227 L203 278 L235 315 L261 350 L285 382 L292 392 L294 395 M323 354 L324 357 L325 362 L328 373 L333 385 L338 403 L343 415 L345 418 M472 333 L476 334 L490 343 L531 361 L551 368 L555 368 L556 368 " fill="none" stroke="black" /><path d="M239 133 L134 130 L61 124 L23 118 L9 116 L1 114 L0 114 L2 114 L9 119 L31 130 L83 152 L159 174 L286 204 L389 226 L503 249 L613 271 L645 279 L654 281 L657 281 L658 281 L659 281 L652 265 L635 212 L619 161 L609 138 L607 135 L606 134 L605 134 L604 134 L603 136 L591 160 L564 209 L527 272 L497 323 L472 365 L458 387 L452 395 L448 396 L444 394 L434 382 L406 351 L364 308 L302 254 L224 205 L178 180 L155 165 L146 158 L144 156 L144 155 L162 151 L308 108 L472 54 L593 16 L634 2 L640 0 L641 0 L637 5 L599 63 L526 172 L467 251 L444 277 L433 284 L416 288 L386 290 L361 288 L337 272 L311 234 L298 196 L296 156 L302 120 L310 101 L316 95 L320 95 L328 99 L350 113 L396 143 L444 170 L473 188 L482 193 L483 195 L478 197 L401 211 L265 242 L179 270 L134 288 L124 291 L122 291 L121 291 L121 289 L120 280 L118 267 L115 238 L114 193 L114 175 L114 170 L114 169 L117 174 L132 192 L160 227 L203 278 L235 315 L261 350 L285 382 L292 392 L294 395 M323 354 L324 357 L325 362 L328 373 L333 385 L338 403 L343 415 L345 418 M472 333 L476 334 L490 343 L531 361 L551 368 L555 368 L556 368 M532 126 L531 125 L531 120 L545 97 L582 50 L613 16 L618 9 L619 7 " fill="none" stroke="black" /><path d="M239 133 L134 130 L61 124 L23 118 L9 116 L1 114 L0 114 L2 114 L9 119 L31 130 L83 152 L159 174 L286 204 L389 226 L503 249 L613 271 L645 279 L654 281 L657 281 L658 281 L659 281 L652 265 L635 212 L619 161 L609 138 L607 135 L606 134 L605 134 L604 134 L603 136 L591 160 L564 209 L527 272 L497 323 L472 365 L458 387 L452 395 L448 396 L444 394 L434 382 L406 351 L364 308 L302 254 L224 205 L178 180 L155 165 L146 158 L144 156 L144 155 L162 151 L308 108 L472 54 L593 16 L634 2 L640 0 L641 0 L637 5 L599 63 L526 172 L467 251 L444 277 L433 284 L416 288 L386 290 L361 288 L337 272 L311 234 L298 196 L296 156 L302 120 L310 101 L316 95 L320 95 L328 99 L350 113 L396 143 L444 170 L473 188 L482 193 L483 195 L478 197 L401 211 L265 242 L179 270 L134 288 L124 291 L122 291 L121 291 L121 289 L120 280 L118 267 L115 238 L114 193 L114 175 L114 170 L114 169 L117 174 L132 192 L160 227 L203 278 L235 315 L261 350 L285 382 L292 392 L294 395 M323 354 L324 357 L325 362 L328 373 L333 385 L338 403 L343 415 L345 418 M472 333 L476 334 L490 343 L531 361 L551 368 L555 368 L556 368 M532 126 L531 125 L531 120 L545 97 L582 50 L613 16 L618 9 L619 7 M407 98 L405 94 L402 87 L400 85 L388 67 L367 33 L362 24 L360 19 L359 18 L357 23 L346 42 L336 60 L329 70 L322 80 L319 84 L318 85 L316 87 L314 91 L314 107 L357 219 L415 311 L427 323 " fill="none" stroke="black" /></svg>