<?xml version="1.0" encoding="utf-8" ?>
<svg baseProfile="tiny" height="5" version="1.2" viewBox="-3 -3 146 5" width="146" xmlns="http://www.w3.org/2000/svg" xmlns:ev="http://www.w3.org/2001/xml-events" xmlns:xlink="http://www.w3.org/1999/xlink"><defs /><path d="M0 5 L1 4 L3 4 L5 4 L6 4 L8 4 L11 4 L13 4 L15 4 L17 4 L18 4 L20 4 L21 4 L23 4 L24 4 L25 4 L27 4 L29 4 L31 4 L33 4 L35 4 L38 4 L41 4 L43 4 L45 4 L46 4 L48 4 L49 4 L52 4 L54 4 L56 4 L60 4 L63 4 L65 4 L70 4 L75 3 L77 2 L80 2 L81 2 L83 2 L84 1 L86 1 L87 1 L88 1 L91 1 L93 1 L94 1 L95 1 L97 1 L99 1 L102 0 L104 0 L105 0 L106 0 L107 0 L108 0 L109 0 L111 0 L114 0 L116 0 L119 0 L122 0 L124 1 L126 1 L128 1 L130 1 L131 1 L132 2 L133 2 L134 2 L136 2 L138 2 L140 2 L142 2 L143 2 L144 2 L146 2 " fill="none" stroke="black" /></svg>