<?xml version="1.0" encoding="utf-8" ?>
<svg baseProfile="tiny" height="10" version="1.2" viewBox="-3 -3 146 10" width="146" xmlns="http://www.w3.org/2000/svg" xmlns:ev="http://www.w3.org/2001/xml-events" xmlns:xlink="http://www.w3.org/1999/xlink"><defs /><path d="M0 0 L1 1 L4 2 L8 2 L12 3 L13 4 L14 4 L16 4 L16 5 L17 5 L18 5 L20 6 L21 6 L22 6 L24 7 L25 7 L26 8 L28 8 L29 8 L32 8 L34 8 L37 8 L39 8 L41 8 L43 8 L44 8 L47 8 L49 8 L51 8 L52 8 L54 9 L55 9 L57 9 L59 10 L61 10 L64 10 L67 10 L70 10 L73 10 L76 10 L80 10 L83 10 L85 10 L86 10 L88 10 L91 10 L94 10 L96 10 L99 9 L102 9 L105 9 L106 9 L108 9 L111 9 L115 9 L119 9 L123 9 L128 9 L130 9 L133 9 L135 9 L137 9 L138 9 L139 9 L140 9 L142 9 L143 9 L144 9 L145 9 L146 9 " fill="none" stroke="black" /></svg>