<?xml version="1.0" encoding="utf-8" ?>
<svg baseProfile="tiny" height="15" version="1.2" viewBox="-3 -3 141 15" width="141" xmlns="http://www.w3.org/2000/svg" xmlns:ev="http://www.w3.org/2001/xml-events" xmlns:xlink="http://www.w3.org/1999/xlink"><defs /><path d="M0 0 L1 0 L4 0 L6 1 L8 1 L10 3 L12 3 L15 3 L16 4 L18 5 L19 7 L20 10 L21 11 L22 11 L23 11 L24 11 L25 11 L27 11 L28 11 L29 11 L30 11 L31 11 L32 11 L34 11 L35 12 L36 13 L37 13 L38 13 L39 14 L40 14 L41 14 L41 15 L43 15 L46 15 L47 15 L48 15 L49 14 L50 14 L51 13 L52 13 L53 13 L54 13 L55 13 L56 13 L58 13 L60 13 L61 13 L62 13 L64 13 L66 13 L68 13 L70 13 L71 13 L72 13 L74 13 L75 13 L78 13 L80 13 L82 13 L83 13 L84 13 L85 13 L86 13 L87 13 L88 13 L90 13 L91 13 L92 13 L93 13 L94 13 L95 13 L96 13 L97 13 L98 13 L99 13 L100 12 L101 12 L103 12 L104 12 L106 12 L107 12 L108 12 L110 12 L112 12 L114 12 L115 12 L117 12 L118 12 L120 12 L122 12 L123 12 L125 12 L126 12 L127 12 L128 12 L129 12 L130 12 L131 12 L132 12 L133 12 L134 12 L135 12 L137 12 L138 12 L139 12 L140 12 L141 12 " fill="none" stroke="black" /></svg>