<?xml version="1.0" encoding="utf-8" ?>
<svg baseProfile="tiny" height="10" version="1.2" viewBox="-3 -3 141 10" width="141" xmlns="http://www.w3.org/2000/svg" xmlns:ev="http://www.w3.org/2001/xml-events" xmlns:xlink="http://www.w3.org/1999/xlink"><defs /><path d="M0 8 L4 7 L6 6 L7 5 L9 5 L12 4 L13 3 L14 3 L16 4 L18 7 L18 9 L19 10 L20 10 L21 8 L23 4 L25 2 L25 0 L26 0 L27 0 L28 1 L30 5 L31 6 L31 7 L32 7 L32 8 L33 8 L35 8 L36 8 L38 8 L39 8 L40 8 L41 8 L43 8 L45 8 L47 8 L48 8 L49 8 L50 8 L52 8 L53 8 L54 8 L55 8 L56 8 L58 8 L59 8 L60 8 L62 8 L63 8 L64 8 L66 8 L67 8 L69 8 L70 8 L71 8 L73 8 L74 8 L76 8 L78 8 L79 8 L81 8 L82 8 L83 8 L84 8 L86 8 L87 8 L88 8 L89 8 L91 8 L92 8 L93 8 L94 8 L95 8 L96 7 L97 7 L98 7 L99 7 L100 7 L101 7 L102 7 L104 7 L105 7 L106 7 L107 7 L108 7 L109 7 L110 7 L111 7 L112 7 L113 7 L114 7 L115 7 L116 7 L117 7 L118 7 L119 7 L120 7 L121 7 L122 7 L123 8 L124 8 L125 8 L126 8 L127 8 L128 8 L129 8 L130 8 L131 8 L132 7 L133 7 L134 7 L136 7 L136 6 L137 6 L138 6 L139 6 L140 6 L141 5 " fill="none" stroke="black" /></svg>