<?xml version="1.0" encoding="utf-8" ?>
<svg baseProfile="tiny" height="8" version="1.2" viewBox="-3 -3 141 8" width="141" xmlns="http://www.w3.org/2000/svg" xmlns:ev="http://www.w3.org/2001/xml-events" xmlns:xlink="http://www.w3.org/1999/xlink"><defs /><path d="M0 3 L2 3 L3 3 L4 3 L5 3 L7 3 L8 3 L9 3 L11 3 L12 3 L13 4 L14 5 L15 5 L16 4 L17 4 L18 4 L19 4 L20 4 L21 4 L23 4 L24 4 L28 4 L32 1 L34 1 L35 0 L36 0 L37 1 L38 2 L39 2 L40 2 L41 4 L42 4 L43 4 L44 4 L45 4 L46 4 L47 4 L48 4 L49 5 L51 5 L52 5 L53 5 L54 5 L55 5 L57 5 L58 5 L59 5 L60 5 L62 5 L63 5 L64 5 L65 5 L66 5 L67 5 L69 5 L70 3 L71 3 L72 3 L73 3 L75 3 L76 3 L77 3 L78 3 L79 3 L81 3 L82 3 L84 3 L84 4 L85 5 L86 5 L87 6 L88 6 L89 6 L91 6 L94 3 L96 3 L96 4 L97 6 L98 7 L99 8 L100 8 L102 8 L103 8 L104 7 L105 7 L106 7 L109 6 L111 5 L112 4 L113 4 L115 4 L116 4 L117 4 L118 4 L119 5 L120 5 L121 6 L122 6 L124 6 L125 6 L126 6 L129 5 L133 2 L134 0 L135 0 L135 1 L136 1 L137 2 L138 3 L139 5 L140 6 L141 6 " fill="none" stroke="black" /></svg>