<?xml version="1.0" encoding="utf-8" ?>
<svg baseProfile="tiny" height="13" version="1.2" viewBox="-3 -3 142 13" width="142" xmlns="http://www.w3.org/2000/svg" xmlns:ev="http://www.w3.org/2001/xml-events" xmlns:xlink="http://www.w3.org/1999/xlink"><defs /><path d="M0 3 L1 3 L5 2 L7 1 L8 1 L9 2 L9 3 L10 4 L11 4 L12 5 L13 5 L14 6 L16 6 L19 6 L21 5 L23 5 L23 6 L25 6 L27 6 L29 5 L32 4 L33 4 L35 4 L35 3 L36 3 L37 3 L38 6 L39 11 L40 12 L41 13 L43 13 L46 13 L49 11 L49 10 L50 9 L50 8 L51 7 L52 6 L52 5 L53 5 L53 6 L54 7 L56 8 L58 8 L61 7 L64 5 L67 3 L68 2 L69 1 L70 1 L71 1 L72 3 L73 4 L74 4 L75 5 L76 5 L77 5 L79 5 L80 5 L81 5 L83 5 L84 5 L85 5 L87 5 L88 4 L90 4 L90 3 L91 3 L91 4 L91 5 L91 7 L92 9 L92 10 L93 10 L94 10 L96 8 L97 6 L98 5 L99 4 L99 3 L99 2 L100 2 L101 2 L102 2 L102 3 L103 3 L104 4 L105 4 L106 4 L107 4 L108 4 L110 4 L112 2 L114 1 L115 1 L115 0 L116 0 L117 1 L118 2 L119 2 L119 4 L120 6 L121 7 L122 7 L123 7 L124 7 L125 6 L126 6 L127 5 L128 5 L130 5 L131 5 L132 5 L133 5 L133 6 L134 7 L135 7 L136 7 L137 7 L138 7 L139 7 L140 7 L141 7 L142 7 " fill="none" stroke="black" /></svg>