<?xml version="1.0" encoding="utf-8" ?>
<svg baseProfile="tiny" height="5" version="1.2" viewBox="-3 -3 143 5" width="143" xmlns="http://www.w3.org/2000/svg" xmlns:ev="http://www.w3.org/2001/xml-events" xmlns:xlink="http://www.w3.org/1999/xlink"><defs /><path d="M0 0 L1 0 L2 0 L3 1 L5 1 L6 1 L7 1 L8 1 L9 1 L10 1 L12 1 L12 2 L13 2 L13 3 L14 3 L15 3 L15 4 L16 4 L17 4 L18 4 L19 4 L21 4 L22 4 L23 4 L24 4 L25 4 L26 4 L27 4 L28 4 L29 4 L30 4 L32 4 L33 4 L34 4 L35 5 L36 5 L37 5 L38 5 L39 5 L40 5 L41 5 L42 5 L44 5 L45 5 L46 5 L47 5 L48 5 L49 5 L50 5 L51 4 L52 4 L53 3 L54 3 L55 3 L56 3 L57 3 L58 2 L59 2 L60 2 L61 2 L62 2 L63 2 L64 2 L65 2 L67 2 L68 2 L69 2 L70 2 L71 2 L72 2 L73 2 L74 2 L76 2 L78 2 L79 2 L80 2 L81 2 L82 2 L83 2 L84 2 L85 2 L86 2 L87 3 L88 3 L89 4 L90 4 L91 4 L92 4 L93 4 L94 4 L95 4 L96 4 L97 4 L98 4 L99 4 L100 4 L101 4 L102 4 L103 4 L104 4 L105 4 L106 4 L107 4 L108 4 L109 4 L110 4 L111 4 L112 4 L113 4 L114 4 L115 4 L116 4 L117 4 L118 4 L119 4 L120 4 L121 4 L122 4 L123 4 L124 4 L125 4 L126 4 L127 4 L128 4 L129 4 L131 4 L132 4 L133 4 L135 4 L136 4 L137 4 L138 4 L139 4 L139 3 L140 3 L141 3 L141 2 L142 2 L143 2 " fill="none" stroke="black" /></svg>