<?xml version="1.0" encoding="utf-8" ?>
<svg baseProfile="tiny" height="10" version="1.2" viewBox="-3 -3 144 10" width="144" xmlns="http://www.w3.org/2000/svg" xmlns:ev="http://www.w3.org/2001/xml-events" xmlns:xlink="http://www.w3.org/1999/xlink"><defs /><path d="M0 4 L3 4 L6 4 L9 4 L12 4 L15 4 L20 2 L28 0 L31 0 L32 0 L33 0 L34 0 L36 0 L37 2 L38 4 L39 6 L39 7 L40 9 L42 9 L44 10 L46 10 L47 10 L49 10 L50 10 L51 10 L52 10 L53 10 L54 10 L55 10 L56 10 L57 10 L60 10 L63 10 L65 10 L67 9 L68 9 L69 9 L71 9 L72 9 L73 9 L74 9 L75 9 L77 9 L78 9 L79 9 L82 8 L83 8 L85 7 L86 7 L87 7 L88 7 L89 7 L90 7 L91 7 L93 7 L95 7 L96 7 L97 7 L98 7 L100 7 L102 7 L105 7 L107 7 L110 8 L111 9 L113 9 L114 9 L115 10 L118 10 L119 10 L120 10 L122 10 L124 10 L125 9 L126 9 L128 8 L129 8 L130 8 L132 8 L133 7 L134 7 L135 7 L136 7 L138 7 L139 7 L140 7 L141 7 L142 7 L143 7 L144 7 " fill="none" stroke="black" /></svg>