<?xml version="1.0" encoding="utf-8" ?>
<svg baseProfile="tiny" height="13" version="1.2" viewBox="-3 -3 145 13" width="145" xmlns="http://www.w3.org/2000/svg" xmlns:ev="http://www.w3.org/2001/xml-events" xmlns:xlink="http://www.w3.org/1999/xlink"><defs /><path d="M0 0 L1 0 L1 1 L2 1 L3 2 L4 2 L5 2 L6 2 L7 2 L7 3 L8 3 L9 3 L9 4 L11 5 L12 5 L13 5 L14 6 L15 6 L16 6 L17 6 L18 6 L19 6 L20 6 L21 6 L23 6 L24 6 L25 6 L26 6 L27 6 L29 6 L30 6 L31 6 L33 6 L34 6 L35 6 L36 6 L37 6 L38 6 L39 6 L40 7 L41 7 L42 7 L43 7 L44 7 L46 8 L47 8 L48 8 L50 8 L51 8 L51 9 L52 9 L53 9 L54 9 L55 9 L56 9 L57 9 L58 9 L59 9 L59 10 L60 10 L61 11 L62 11 L63 11 L64 11 L66 11 L68 11 L69 11 L70 11 L71 11 L72 11 L73 11 L74 11 L75 11 L76 11 L77 11 L78 11 L79 11 L80 11 L81 11 L82 11 L83 10 L84 10 L85 10 L86 10 L87 9 L89 9 L91 8 L94 8 L95 8 L97 8 L98 8 L99 8 L101 8 L103 9 L105 9 L105 10 L106 11 L107 11 L108 12 L109 12 L110 12 L111 12 L112 12 L113 13 L114 13 L115 13 L116 13 L117 13 L118 13 L119 13 L120 13 L121 13 L122 13 L123 13 L126 13 L127 13 L128 12 L129 12 L130 12 L131 12 L132 11 L133 11 L134 10 L136 10 L137 10 L138 10 L139 10 L140 10 L141 10 L142 10 L143 10 L143 9 L144 9 L145 9 " fill="none" stroke="black" /></svg>