<?xml version="1.0" encoding="utf-8" ?>
<svg baseProfile="tiny" height="4" version="1.2" viewBox="-3 -3 147 4" width="147" xmlns="http://www.w3.org/2000/svg" xmlns:ev="http://www.w3.org/2001/xml-events" xmlns:xlink="http://www.w3.org/1999/xlink"><defs /><path d="M0 0 L3 0 L4 0 L5 0 L6 0 L7 0 L8 0 L9 0 L10 0 L11 0 L12 0 L13 0 L14 0 L15 1 L16 1 L17 1 L18 1 L19 1 L20 2 L21 2 L23 2 L24 2 L26 3 L27 3 L28 3 L29 3 L30 3 L31 3 L32 3 L33 3 L35 3 L36 3 L37 3 L39 3 L41 3 L42 3 L43 3 L44 3 L45 3 L46 3 L47 3 L48 3 L49 3 L51 3 L52 3 L53 3 L55 3 L56 3 L59 3 L61 3 L63 3 L66 3 L68 3 L71 3 L72 3 L74 3 L75 3 L76 3 L77 3 L78 3 L79 3 L81 3 L82 3 L84 3 L85 3 L86 3 L87 3 L88 3 L89 3 L91 3 L93 3 L95 4 L98 4 L101 4 L104 4 L106 4 L107 4 L110 4 L111 4 L113 4 L115 4 L116 4 L117 4 L118 4 L120 4 L121 4 L122 4 L123 4 L126 4 L127 4 L128 4 L129 4 L130 4 L132 4 L133 4 L134 4 L136 4 L137 4 L138 4 L140 4 L141 4 L142 3 L144 3 L145 3 L146 3 L146 2 L147 2 " fill="none" stroke="black" /></svg>