<?xml version="1.0" encoding="utf-8" ?>
<svg baseProfile="tiny" height="12" version="1.2" viewBox="-3 -3 145 12" width="145" xmlns="http://www.w3.org/2000/svg" xmlns:ev="http://www.w3.org/2001/xml-events" xmlns:xlink="http://www.w3.org/1999/xlink"><defs /><path d="M0 0 L1 0 L2 1 L3 1 L3 2 L4 2 L5 2 L6 2 L7 2 L8 2 L9 2 L11 2 L12 2 L14 2 L15 2 L16 3 L18 3 L19 3 L20 4 L20 5 L23 5 L24 6 L25 7 L26 7 L27 7 L28 7 L29 8 L30 8 L31 9 L32 9 L34 10 L35 10 L36 11 L37 12 L38 12 L39 12 L40 12 L41 12 L42 12 L43 12 L45 12 L46 12 L48 12 L49 12 L50 12 L51 11 L53 11 L54 10 L55 10 L57 10 L58 10 L60 10 L61 10 L62 10 L63 10 L64 10 L65 10 L66 10 L68 11 L69 11 L69 12 L70 12 L71 12 L72 12 L73 12 L74 12 L75 12 L76 12 L77 12 L78 12 L80 12 L81 12 L83 12 L84 12 L84 11 L85 11 L86 11 L87 11 L88 11 L89 11 L89 10 L90 10 L91 10 L92 10 L93 10 L94 10 L95 10 L96 10 L97 10 L98 10 L99 10 L100 10 L101 10 L103 10 L104 10 L105 10 L106 10 L107 10 L108 10 L109 11 L110 11 L111 12 L112 12 L113 12 L114 12 L115 12 L116 12 L117 12 L119 12 L120 12 L121 12 L122 12 L123 12 L125 12 L126 12 L128 11 L131 10 L132 10 L134 10 L135 10 L136 10 L137 10 L138 10 L139 10 L140 10 L141 10 L142 10 L143 10 L144 10 L145 10 " fill="none" stroke="black" /></svg>