<?xml version="1.0" encoding="utf-8" ?>
<svg baseProfile="tiny" height="4" version="1.2" viewBox="-3 -3 147 4" width="147" xmlns="http://www.w3.org/2000/svg" xmlns:ev="http://www.w3.org/2001/xml-events" xmlns:xlink="http://www.w3.org/1999/xlink"><defs /><path d="M0 3 L1 3 L2 3 L4 2 L5 2 L7 2 L8 2 L10 1 L11 1 L13 1 L15 1 L16 0 L17 0 L18 0 L19 0 L20 0 L22 0 L23 0 L24 0 L25 1 L26 1 L27 1 L27 2 L28 2 L29 3 L30 3 L31 3 L33 3 L35 3 L36 3 L37 3 L38 3 L40 3 L41 2 L42 2 L43 2 L44 2 L45 2 L46 2 L47 2 L47 1 L48 1 L49 1 L50 1 L51 1 L52 1 L53 1 L55 1 L56 0 L58 0 L59 0 L60 0 L61 0 L63 0 L64 0 L65 0 L67 0 L68 0 L69 0 L70 0 L71 0 L72 0 L73 0 L74 0 L75 0 L76 0 L79 0 L80 0 L83 0 L84 0 L85 0 L86 0 L87 1 L88 1 L89 1 L91 2 L92 2 L93 3 L94 3 L95 4 L96 4 L97 4 L98 4 L101 4 L102 4 L103 4 L104 4 L105 4 L106 4 L107 4 L108 4 L109 4 L110 4 L111 4 L112 4 L114 3 L115 3 L115 2 L116 2 L117 2 L118 2 L119 2 L120 2 L122 2 L124 1 L126 1 L127 1 L128 1 L129 1 L130 1 L132 1 L134 1 L137 1 L138 1 L139 1 L140 1 L141 1 L142 1 L143 1 L144 1 L145 1 L147 1 " fill="none" stroke="black" /></svg>