<?xml version="1.0" encoding="utf-8" ?>
<svg baseProfile="tiny" height="3" version="1.2" viewBox="-3 -3 146 3" width="146" xmlns="http://www.w3.org/2000/svg" xmlns:ev="http://www.w3.org/2001/xml-events" xmlns:xlink="http://www.w3.org/1999/xlink"><defs /><path d="M0 0 L1 0 L3 0 L5 1 L6 1 L8 1 L10 1 L12 1 L13 1 L15 1 L16 1 L17 1 L18 1 L19 2 L20 2 L21 2 L22 3 L23 3 L24 3 L25 3 L26 3 L27 3 L29 3 L30 3 L31 3 L34 3 L35 3 L36 2 L37 2 L38 2 L39 2 L40 2 L41 2 L42 2 L43 2 L44 2 L45 1 L46 1 L47 1 L48 1 L49 0 L50 0 L52 0 L53 0 L54 0 L56 0 L58 0 L59 0 L60 0 L61 0 L62 0 L64 0 L65 0 L66 0 L68 0 L69 0 L70 0 L71 0 L72 0 L73 0 L74 0 L75 0 L75 1 L76 1 L77 1 L78 1 L79 1 L81 1 L82 1 L83 1 L84 1 L85 1 L86 1 L87 1 L88 1 L90 1 L92 1 L94 1 L96 1 L97 1 L98 1 L99 1 L100 1 L101 1 L103 1 L105 1 L106 1 L107 1 L108 1 L109 1 L110 1 L112 1 L113 1 L115 1 L116 1 L117 1 L118 1 L119 1 L120 1 L121 1 L122 1 L125 1 L127 1 L128 1 L129 1 L131 1 L132 1 L133 1 L134 1 L135 1 L136 1 L137 1 L138 1 L139 1 L140 1 L141 1 L142 1 L143 1 L144 1 L145 1 L146 1 " fill="none" stroke="black" /></svg>