<?xml version="1.0" encoding="utf-8" ?>
<svg baseProfile="tiny" height="12" version="1.2" viewBox="-3 -3 137 12" width="137" xmlns="http://www.w3.org/2000/svg" xmlns:ev="http://www.w3.org/2001/xml-events" xmlns:xlink="http://www.w3.org/1999/xlink"><defs /><path d="M0 0 L1 2 L3 4 L4 4 L5 4 L6 4 L7 4 L8 4 L10 4 L11 5 L12 6 L13 6 L13 7 L14 7 L15 7 L17 7 L18 7 L19 7 L20 7 L21 7 L22 7 L23 7 L24 7 L25 7 L26 7 L27 7 L29 5 L30 3 L31 3 L33 4 L33 9 L34 10 L34 11 L34 12 L36 11 L38 10 L40 8 L41 7 L41 6 L42 6 L43 6 L45 6 L46 6 L47 7 L48 7 L49 8 L50 9 L51 9 L52 9 L53 9 L53 8 L54 8 L56 8 L57 8 L58 8 L59 8 L60 9 L61 9 L61 10 L61 11 L61 12 L62 12 L65 11 L70 7 L72 5 L72 4 L73 4 L74 3 L75 3 L76 3 L78 3 L80 5 L82 6 L83 8 L84 10 L84 11 L85 11 L86 11 L88 8 L90 6 L91 4 L92 4 L93 4 L94 4 L95 4 L96 4 L96 7 L97 7 L98 8 L98 10 L99 10 L99 11 L100 11 L101 11 L103 8 L104 8 L105 8 L106 8 L107 8 L108 10 L109 10 L110 10 L111 10 L111 9 L113 9 L114 8 L115 8 L116 7 L116 6 L117 6 L118 6 L119 6 L120 7 L121 7 L121 8 L122 8 L124 8 L126 7 L126 6 L128 5 L129 5 L129 4 L130 4 L131 4 L132 4 L133 5 L134 6 L136 8 L137 10 " fill="none" stroke="black" /></svg>