<?xml version="1.0" encoding="utf-8" ?>
<svg baseProfile="tiny" height="5" version="1.2" viewBox="-3 -3 141 5" width="141" xmlns="http://www.w3.org/2000/svg" xmlns:ev="http://www.w3.org/2001/xml-events" xmlns:xlink="http://www.w3.org/1999/xlink"><defs /><path d="M0 1 L1 1 L3 1 L4 0 L7 0 L9 0 L11 0 L12 0 L13 0 L14 0 L15 0 L16 0 L17 0 L18 0 L19 0 L20 0 L22 0 L23 0 L24 0 L25 0 L27 0 L29 0 L31 0 L32 0 L34 0 L35 0 L36 0 L37 0 L38 0 L39 0 L40 0 L41 0 L43 0 L44 0 L46 0 L48 0 L49 0 L51 0 L52 0 L54 0 L57 0 L59 0 L61 0 L62 0 L64 0 L65 0 L66 0 L68 0 L69 0 L70 0 L71 0 L72 0 L73 0 L74 1 L75 1 L76 2 L77 2 L78 2 L80 3 L82 3 L84 3 L86 3 L88 3 L90 3 L92 3 L93 3 L94 3 L95 3 L96 3 L97 3 L98 3 L100 3 L103 3 L104 3 L105 2 L106 1 L107 1 L108 1 L109 1 L110 1 L111 1 L113 1 L114 1 L115 1 L116 1 L117 1 L119 1 L120 1 L121 2 L123 2 L125 3 L127 3 L128 3 L129 4 L130 4 L131 4 L132 4 L133 4 L134 4 L135 4 L136 5 L137 5 L138 5 L139 5 L140 5 L141 5 L141 4 " fill="none" stroke="black" /></svg>