<?xml version="1.0" encoding="utf-8" ?>
<svg baseProfile="tiny" height="12" version="1.2" viewBox="-3 -3 145 12" width="145" xmlns="http://www.w3.org/2000/svg" xmlns:ev="http://www.w3.org/2001/xml-events" xmlns:xlink="http://www.w3.org/1999/xlink"><defs /><path d="M15 7 L14 7 L10 6 L0 4 " fill="none" stroke="black" /><path d="M15 7 L14 7 L10 6 L0 4 M0 4 L4 4 L9 5 L10 6 L12 6 L14 6 L16 6 L18 6 L20 6 L21 6 L22 6 L25 6 L30 3 L32 1 L34 1 L34 0 L35 0 L35 1 L35 3 L35 4 L35 5 L36 5 L37 5 L38 5 L39 6 L40 7 L41 7 L42 7 L42 8 L43 9 L44 9 L45 9 L46 9 L47 9 L48 9 L49 9 L50 9 L51 8 L52 7 L53 7 L55 7 L57 7 L59 7 L60 7 L62 7 L63 7 L63 8 L64 8 L66 9 L67 10 L68 10 L69 11 L71 11 L72 11 L72 12 L74 12 L75 12 L76 12 L77 12 L78 12 L79 12 L82 11 L83 11 L84 11 L85 11 L87 9 L92 6 L93 5 L94 5 L95 5 L96 6 L97 6 L98 8 L100 10 L102 11 L103 11 L104 11 L105 11 L107 11 L108 11 L109 11 L110 11 L112 11 L115 11 L116 11 L117 11 L118 11 L119 11 L122 9 L124 9 L125 9 L126 9 L127 9 L128 8 L129 8 L130 8 L131 8 L132 8 L133 8 L134 8 L135 9 L137 9 L138 9 L140 9 L141 9 L142 9 L143 9 L144 9 L145 9 " fill="none" stroke="black" /></svg>