<?xml version="1.0" encoding="utf-8" ?>
<svg baseProfile="tiny" height="14" version="1.2" viewBox="-3 -3 144 14" width="144" xmlns="http://www.w3.org/2000/svg" xmlns:ev="http://www.w3.org/2001/xml-events" xmlns:xlink="http://www.w3.org/1999/xlink"><defs /><path d="M0 14 L4 11 L6 10 L7 10 L8 9 L9 9 L11 9 L12 9 L13 9 L15 8 L17 7 L19 7 L23 6 L23 5 L24 5 L25 5 L26 4 L27 4 L28 4 L29 4 L30 3 L31 3 L34 3 L35 3 L36 3 L38 3 L39 3 L40 3 L41 3 L42 3 L43 3 L44 3 L45 3 L46 3 L47 3 L48 3 L49 3 L50 3 L51 3 L52 3 L53 3 L54 3 L55 3 L57 3 L59 3 L60 3 L61 3 L62 3 L63 3 L64 3 L65 3 L66 3 L67 2 L69 2 L70 2 L71 2 L72 2 L73 2 L74 2 L75 2 L76 2 L77 2 L78 2 L79 2 L81 2 L83 2 L85 2 L87 2 L89 2 L90 2 L92 2 L93 2 L94 2 L95 2 L96 2 L97 1 L98 1 L99 1 L100 1 L101 1 L103 1 L104 1 L105 1 L106 1 L108 1 L109 1 L110 1 L111 1 L113 1 L114 1 L115 1 L116 1 L117 1 L118 1 L119 1 L121 1 L122 1 L123 1 L125 1 L126 1 L127 1 L128 1 L129 1 L130 1 L132 1 L133 1 L134 1 L135 1 L137 1 L138 1 L139 1 L140 1 L140 0 L141 0 L142 0 L143 0 L144 0 " fill="none" stroke="black" /></svg>