<?xml version="1.0" encoding="utf-8" ?>
<svg baseProfile="tiny" height="16" version="1.2" viewBox="-3 -3 139 16" width="139" xmlns="http://www.w3.org/2000/svg" xmlns:ev="http://www.w3.org/2001/xml-events" xmlns:xlink="http://www.w3.org/1999/xlink"><defs /><path d="M0 3 L2 3 L6 3 L7 3 L8 3 L9 3 L10 4 L10 5 L11 5 L13 6 L15 5 L16 5 L17 5 L18 5 L19 5 L21 5 L25 3 L26 2 L27 2 L28 2 L29 2 L29 3 L29 4 L30 4 L30 5 L30 7 L30 8 L32 8 L33 8 L35 7 L37 6 L38 6 L38 7 L38 8 L40 8 L42 8 L44 8 L45 8 L46 8 L47 9 L48 10 L52 10 L55 9 L57 9 L57 11 L58 14 L58 15 L59 16 L61 16 L63 15 L64 14 L65 13 L66 13 L67 12 L72 8 L78 4 L79 3 L79 4 L79 7 L79 9 L79 10 L80 10 L81 11 L82 11 L87 8 L91 4 L93 3 L96 3 L98 3 L100 3 L101 3 L101 6 L101 9 L101 10 L102 11 L103 11 L104 9 L105 8 L106 7 L107 7 L108 7 L113 6 L120 2 L123 0 L124 0 L122 4 L121 5 L120 6 L120 7 L121 7 L125 6 L126 6 L125 7 L125 8 L127 8 L128 8 L130 8 L131 8 L132 8 L133 8 L135 7 L137 7 L138 6 L139 6 " fill="none" stroke="black" /></svg>