<?xml version="1.0" encoding="utf-8" ?>
<svg baseProfile="tiny" height="10" version="1.2" viewBox="-3 -3 137 10" width="137" xmlns="http://www.w3.org/2000/svg" xmlns:ev="http://www.w3.org/2001/xml-events" xmlns:xlink="http://www.w3.org/1999/xlink"><defs /><path d="M0 5 L1 4 L2 4 L2 3 L3 3 L5 3 L7 2 L10 1 L12 0 L13 0 L13 1 L14 1 L14 2 L15 2 L15 3 L16 3 L16 4 L17 4 L18 5 L20 5 L21 5 L22 5 L23 5 L24 5 L25 5 L27 5 L28 5 L29 5 L30 5 L31 5 L32 5 L33 5 L34 5 L35 5 L36 5 L37 5 L39 5 L40 5 L43 5 L44 5 L45 4 L46 4 L47 3 L48 3 L50 3 L51 2 L52 2 L53 2 L54 2 L55 2 L56 2 L57 2 L58 2 L59 2 L60 2 L61 2 L62 3 L63 4 L64 4 L66 5 L67 6 L68 6 L69 6 L70 7 L71 7 L72 7 L73 8 L74 8 L75 8 L77 8 L78 8 L79 8 L79 9 L80 9 L81 9 L82 9 L83 9 L84 10 L85 10 L86 10 L87 10 L89 10 L90 10 L91 9 L93 8 L94 8 L94 7 L95 7 L96 6 L98 6 L99 6 L100 6 L101 5 L102 5 L103 5 L104 5 L105 5 L106 5 L107 5 L108 5 L109 5 L110 5 L112 5 L113 5 L114 5 L115 5 L116 5 L117 6 L119 6 L120 6 L121 6 L123 7 L124 8 L125 8 L126 8 L127 8 L128 8 L129 8 L130 8 L131 8 L132 8 L133 8 L134 8 L135 8 L136 8 L137 8 " fill="none" stroke="black" /></svg>