<?xml version="1.0" encoding="utf-8" ?>
<svg baseProfile="tiny" height="96" version="1.2" viewBox="-3 -3 1076 96" width="1076" xmlns="http://www.w3.org/2000/svg" xmlns:ev="http://www.w3.org/2001/xml-events" xmlns:xlink="http://www.w3.org/1999/xlink"><defs /><path d="M324 79 L338 77 L342 77 L346 76 L356 76 L366 75 L380 74 L394 73 L416 72 L431 71 L448 70 L466 70 L484 70 L496 69 L499 68 L502 68 L520 64 L543 62 L570 60 L603 58 L629 54 L654 51 L669 50 L692 49 L710 49 L720 48 L721 48 L725 46 L748 41 L794 36 L848 34 L903 30 L933 27 L949 26 L955 26 L956 26 L962 24 L975 21 L986 20 L1008 17 L1034 12 L1053 7 L1065 4 L1071 2 L1076 0 " fill="none" stroke="black" /><path d="M324 79 L338 77 L342 77 L346 76 L356 76 L366 75 L380 74 L394 73 L416 72 L431 71 L448 70 L466 70 L484 70 L496 69 L499 68 L502 68 L520 64 L543 62 L570 60 L603 58 L629 54 L654 51 L669 50 L692 49 L710 49 L720 48 L721 48 L725 46 L748 41 L794 36 L848 34 L903 30 L933 27 L949 26 L955 26 L956 26 L962 24 L975 21 L986 20 L1008 17 L1034 12 L1053 7 L1065 4 L1071 2 L1076 0 M85 85 L84 85 L74 86 L65 86 L56 86 L50 86 L40 86 L34 87 L30 88 L26 88 L21 90 L16 92 L12 93 L8 94 L4 95 L2 96 L0 96 L2 96 L14 92 L28 89 L42 86 L50 86 L59 85 L68 84 L77 84 L86 84 L93 84 L100 84 L107 83 L116 83 L124 83 L130 83 L136 83 L141 83 L145 83 L148 82 L152 82 L154 82 L157 82 L160 80 L170 78 L178 76 L188 76 L198 74 L206 74 L211 74 L220 74 L226 74 L232 74 L239 74 L243 74 L251 74 L258 74 L267 74 L276 74 L284 74 L286 74 L290 74 L302 72 L310 72 L320 72 L328 72 L338 72 L345 72 L354 71 L361 71 L371 70 L382 70 L390 70 L396 70 L398 70 L402 70 L412 69 L432 68 L444 68 L456 68 L468 68 L476 66 L484 65 L492 65 L497 64 L502 64 L507 64 L510 65 L514 65 L524 65 L537 64 L550 62 L557 62 L570 60 L578 59 L583 58 L589 58 L595 57 L601 56 L602 56 L604 56 L619 56 L644 53 L688 48 L721 42 L738 41 L756 40 L765 40 L768 40 " fill="none" stroke="black" /></svg>