<?xml version="1.0" encoding="utf-8" ?>
<svg baseProfile="tiny" height="457" version="1.2" viewBox="-3 -3 884 457" width="884" xmlns="http://www.w3.org/2000/svg" xmlns:ev="http://www.w3.org/2001/xml-events" xmlns:xlink="http://www.w3.org/1999/xlink"><defs /><path d="M0 434 L0 435 L0 433 L60 260 L180 9 L184 0 L117 141 L68 257 L67 265 L67 266 L67 267 L66 267 L64 269 L63 269 L62 271 L60 277 L59 281 L58 288 L57 294 L57 298 L57 303 L57 310 L57 315 L58 323 L59 331 L60 335 L60 337 L58 353 L54 381 L52 407 L50 423 L50 431 L50 432 L50 433 L49 435 L46 445 L42 451 L40 455 L40 457 L48 453 L67 448 L79 447 L84 447 L88 447 L96 445 L104 445 L105 445 L109 443 L120 442 L131 441 L144 441 L145 441 L156 438 L169 437 L183 437 L190 437 L201 435 L219 433 L233 431 L236 431 L245 430 L257 429 L260 428 L262 428 L276 425 L300 417 L330 413 L338 413 L340 413 L352 413 L380 408 L410 407 L429 407 L431 407 L432 407 L454 403 L492 399 L512 400 L513 400 L530 398 L570 392 L592 392 L599 392 L606 392 L634 385 L674 375 L687 374 L688 374 L701 371 L734 363 L754 362 L759 362 L761 362 L780 357 L821 350 L846 348 L852 348 L853 348 L860 347 L877 344 L884 344 L879 344 L839 345 L778 349 L721 353 L708 354 L706 354 L704 355 L688 362 L674 367 L660 370 L657 371 L644 373 L598 373 L562 377 L546 381 L542 381 L541 381 L536 382 L514 385 L480 387 L447 389 L438 389 L436 389 L429 393 L408 401 L387 403 L366 405 L360 405 L359 405 L356 405 L352 406 L344 407 L339 407 L335 407 L330 407 L328 407 L326 407 L324 407 L322 408 L318 408 L312 409 L309 409 L307 409 L306 409 L305 409 L304 409 " fill="none" stroke="black" /></svg>