<?xml version="1.0" encoding="utf-8" ?>
<svg baseProfile="tiny" height="32" version="1.2" viewBox="-3 -3 173 32" width="173" xmlns="http://www.w3.org/2000/svg" xmlns:ev="http://www.w3.org/2001/xml-events" xmlns:xlink="http://www.w3.org/1999/xlink"><defs /><path d="M0 10 L0 9 L0 8 L2 6 L6 5 L9 4 L12 4 L16 4 L19 4 L20 4 L22 6 L24 11 L24 13 L24 15 L24 16 L24 18 L25 20 L25 22 L25 23 L26 23 L28 23 L30 22 L32 20 L34 18 L34 16 L35 16 L36 14 L36 13 L37 12 L38 12 L40 11 L41 10 L42 10 L44 10 L45 10 L46 10 L48 10 L50 11 L50 13 L51 14 L51 16 L52 16 L52 18 L52 19 L53 21 L54 22 L55 23 L56 24 L57 24 L58 24 L59 25 L60 26 L61 26 L62 26 L65 23 L68 20 L70 17 L72 13 L72 11 L74 9 L76 8 L77 6 L78 5 L81 4 L84 2 L86 2 L89 2 L93 2 L96 4 L98 5 L100 6 L102 8 L106 17 L107 18 L109 20 L110 22 L112 24 L114 26 L116 28 L118 29 L118 30 L119 31 L120 32 L122 32 L123 32 L124 30 L125 28 L125 25 L126 20 L128 15 L130 12 L132 12 L132 10 L136 8 L140 7 L144 7 L147 7 L148 7 L151 9 L156 12 L160 18 L163 22 L164 24 L164 25 L165 27 L167 30 L168 31 L172 23 L172 15 L173 9 L173 2 L173 0 " fill="none" stroke="black" /></svg>