<?xml version="1.0" encoding="utf-8" ?>
<svg baseProfile="tiny" height="144" version="1.2" viewBox="-3 -3 406 144" width="406" xmlns="http://www.w3.org/2000/svg" xmlns:ev="http://www.w3.org/2001/xml-events" xmlns:xlink="http://www.w3.org/1999/xlink"><defs /><path d="M10 97 L4 108 L0 114 L1 110 L6 100 L10 94 L10 93 L8 102 L8 107 L8 108 L12 104 L27 82 L30 78 L30 81 L14 110 L3 132 L2 133 L10 119 L20 100 L21 98 L12 114 L4 130 L4 132 L20 108 L37 77 L22 103 L20 112 L24 108 L50 79 L54 76 L43 93 L38 106 L55 90 L61 82 L54 92 L30 135 L27 144 L34 139 L82 79 L86 73 L81 82 L68 106 L67 108 L76 100 L109 66 L112 64 L100 97 L87 136 L87 140 L125 104 L141 88 L138 94 L119 122 L118 124 L124 118 L143 95 L145 94 L131 114 L121 132 L122 130 L155 95 L163 90 L160 95 L149 109 L148 110 L176 88 L269 2 L272 0 L238 50 L220 76 L223 76 L286 32 L314 16 L310 23 L277 72 L267 88 L273 86 L350 32 L366 19 L361 25 L322 70 L320 74 L337 61 L384 25 L388 22 L377 36 L360 54 L360 55 L392 32 L406 22 L400 31 L334 109 L331 112 L353 98 L384 75 L388 73 L386 78 L384 80 " fill="none" stroke="black" /></svg>