<?xml version="1.0" encoding="utf-8" ?>
<svg baseProfile="tiny" height="132" version="1.2" viewBox="-3 -3 239 132" width="239" xmlns="http://www.w3.org/2000/svg" xmlns:ev="http://www.w3.org/2001/xml-events" xmlns:xlink="http://www.w3.org/1999/xlink"><defs /><path d="M0 0 L4 0 L8 1 L12 5 L14 8 L17 12 L20 18 L22 21 L24 26 L26 31 L27 37 L29 43 L31 47 L32 51 L34 57 L37 65 L39 71 L40 75 " fill="none" stroke="black" /><path d="M0 0 L4 0 L8 1 L12 5 L14 8 L17 12 L20 18 L22 21 L24 26 L26 31 L27 37 L29 43 L31 47 L32 51 L34 57 L37 65 L39 71 L40 75 M41 76 L41 77 L42 79 L43 81 L44 82 L46 82 L49 79 L52 73 L52 71 L54 68 L54 67 L56 65 L58 64 L61 61 L64 59 L66 57 L69 57 L71 57 L72 57 L74 57 L74 58 L76 59 L78 61 L80 66 L80 71 L81 75 L81 77 L82 81 L82 84 L83 87 L83 88 L84 89 L85 89 L88 89 L91 89 L93 89 L95 87 L97 85 L100 83 L102 82 L104 81 L106 79 L108 79 L110 79 L111 79 L114 79 L116 79 L117 79 L118 81 L119 83 L120 86 L121 88 L121 90 L122 94 L122 97 L123 100 L124 102 L124 103 L124 104 L125 104 L127 104 L129 104 L133 101 L135 98 L138 95 L139 94 L140 94 L143 93 L146 92 L148 91 L151 91 L152 91 L153 91 L154 93 L156 98 L157 101 L158 102 L158 103 L158 105 L159 107 " fill="none" stroke="black" /><path d="M0 0 L4 0 L8 1 L12 5 L14 8 L17 12 L20 18 L22 21 L24 26 L26 31 L27 37 L29 43 L31 47 L32 51 L34 57 L37 65 L39 71 L40 75 M41 76 L41 77 L42 79 L43 81 L44 82 L46 82 L49 79 L52 73 L52 71 L54 68 L54 67 L56 65 L58 64 L61 61 L64 59 L66 57 L69 57 L71 57 L72 57 L74 57 L74 58 L76 59 L78 61 L80 66 L80 71 L81 75 L81 77 L82 81 L82 84 L83 87 L83 88 L84 89 L85 89 L88 89 L91 89 L93 89 L95 87 L97 85 L100 83 L102 82 L104 81 L106 79 L108 79 L110 79 L111 79 L114 79 L116 79 L117 79 L118 81 L119 83 L120 86 L121 88 L121 90 L122 94 L122 97 L123 100 L124 102 L124 103 L124 104 L125 104 L127 104 L129 104 L133 101 L135 98 L138 95 L139 94 L140 94 L143 93 L146 92 L148 91 L151 91 L152 91 L153 91 L154 93 L156 98 L157 101 L158 102 L158 103 L158 105 L159 107 M159 107 L159 109 L160 111 L162 113 L163 113 L164 113 L165 113 L167 113 L169 112 L171 111 L172 109 L174 108 L175 108 L177 107 L179 107 L181 107 L183 107 L186 107 L188 107 L189 107 L191 110 L192 113 L192 117 L193 122 L195 125 L196 129 L196 130 L197 130 L199 130 L201 129 L204 127 L208 125 L210 123 L214 120 L216 118 L217 117 L218 117 L220 117 L222 117 L224 121 L225 123 L227 127 L228 131 L228 132 L230 132 L231 131 L233 125 L234 123 L236 119 L236 117 L237 117 L239 117 " fill="none" stroke="black" /></svg>