<?xml version="1.0" encoding="utf-8" ?>
<svg baseProfile="tiny" height="25" version="1.2" viewBox="-3 -3 141 25" width="141" xmlns="http://www.w3.org/2000/svg" xmlns:ev="http://www.w3.org/2001/xml-events" xmlns:xlink="http://www.w3.org/1999/xlink"><defs /><path d="M0 16 L0 14 L1 12 L1 10 L1 9 L1 8 L3 8 L5 10 L6 12 L7 14 L8 16 L9 18 L10 20 L10 19 L11 16 L12 14 L13 12 L14 11 L15 10 L15 9 L16 9 L17 12 L18 15 L19 17 L19 18 L20 20 L21 18 L23 14 L24 10 L25 8 L26 6 L27 6 L28 6 L30 6 L31 9 L32 11 L33 13 L33 16 L35 19 L35 21 L35 22 L37 18 L39 13 L41 7 L41 6 L42 4 L43 2 L43 1 L43 0 L44 0 L45 0 L48 5 L50 11 L51 15 L52 17 L52 18 L53 17 L55 12 L57 7 L57 5 L58 4 L59 4 L60 3 L61 2 L62 2 L63 2 L65 6 L67 12 L67 13 L69 15 L69 16 L69 18 L71 20 L73 17 L75 15 L75 14 L77 12 L77 11 L78 11 L78 10 L79 10 L81 10 L83 17 L85 22 L87 24 L87 25 L89 25 L91 20 L93 16 L95 12 L95 9 L96 8 L97 8 L99 9 L101 12 L103 14 L105 18 L105 20 L106 21 L107 21 L108 19 L110 14 L111 11 L113 10 L115 10 L117 10 L119 16 L121 20 L122 23 L123 24 L124 24 L125 24 L127 22 L130 18 L131 16 L132 16 L133 16 L136 20 L137 22 L138 22 L139 15 L141 6 L141 8 " fill="none" stroke="black" /></svg>