<?xml version="1.0" encoding="utf-8" ?>
<svg baseProfile="tiny" height="329" version="1.2" viewBox="-3 -3 773 329" width="773" xmlns="http://www.w3.org/2000/svg" xmlns:ev="http://www.w3.org/2001/xml-events" xmlns:xlink="http://www.w3.org/1999/xlink"><defs /><path d="M38 114 L31 135 L29 157 L30 165 L32 166 L43 159 L115 104 L192 81 L301 94 L353 124 L374 157 L368 222 L331 268 L225 302 L138 271 L72 202 L55 108 L83 24 L106 4 L168 0 L245 34 L316 80 L337 101 L339 108 L321 114 L180 119 L29 156 L2 170 L0 176 L97 201 L288 224 L490 252 L562 240 L589 107 L559 56 L419 28 L330 44 L308 55 L297 79 L293 122 L290 137 L287 139 L278 92 L305 34 L389 11 L458 37 L519 152 L524 234 L529 261 L541 266 L588 247 L623 189 L610 135 L491 72 L383 73 L331 114 L318 176 L330 242 L333 285 L323 308 L283 316 L187 216 L183 136 L248 68 L395 68 L527 146 L588 205 L615 242 L649 264 L685 248 L709 133 L699 84 L681 59 L647 31 L583 20 L525 80 L508 172 L503 240 L489 279 L441 308 L357 310 L276 260 L262 180 L329 70 L405 38 L461 62 L520 166 L543 229 L573 264 L639 267 L721 163 L734 86 L721 60 L609 48 L522 79 L456 178 L438 228 L425 254 L381 256 L315 206 L301 136 L361 80 L462 70 L553 124 L615 260 L647 321 L681 329 L734 260 L754 175 L751 155 L705 141 L634 158 L555 215 L518 265 L498 284 L452 298 L377 262 L314 150 L324 102 L345 91 L373 109 L441 187 L583 251 L721 252 L773 198 L765 153 L706 130 L600 144 L492 203 L447 248 L418 293 L407 308 L368 312 L271 193 L261 74 L285 42 L320 46 L384 125 L441 194 L572 253 L649 240 L680 152 L659 126 L488 137 " fill="none" stroke="black" /></svg>