<?xml version="1.0" encoding="utf-8" ?>
<svg baseProfile="tiny" height="149" version="1.2" viewBox="-3 -3 647 149" width="647" xmlns="http://www.w3.org/2000/svg" xmlns:ev="http://www.w3.org/2001/xml-events" xmlns:xlink="http://www.w3.org/1999/xlink"><defs /><path d="M0 82 L3 86 L8 89 L14 95 L26 102 L40 108 L49 110 L62 110 L72 110 L84 110 L91 109 L104 102 L113 94 L134 74 L148 61 L156 50 L164 40 L166 36 L169 27 L170 22 L171 19 L171 15 L171 10 L170 9 L166 6 L162 5 L158 4 L154 4 L151 4 L146 4 L142 4 L138 6 L137 6 L134 8 L131 10 L127 13 L123 16 L120 18 L117 24 L114 28 L111 31 L107 36 L105 40 L104 42 L102 46 L102 50 L102 54 L102 58 L102 62 L106 69 L109 73 L111 76 L112 76 L112 78 L113 80 L115 82 L119 87 L122 92 L126 97 L130 99 L136 104 L142 108 L152 113 L158 116 L166 118 L176 121 L186 124 L200 126 L225 126 L246 126 L270 124 L288 120 L304 117 L332 108 L350 96 L366 85 L381 72 L390 64 L397 52 L400 38 L402 24 L399 13 L396 7 L394 4 L388 2 L381 0 L372 0 L364 2 L358 5 L352 10 L348 14 L340 24 L338 30 L334 39 L334 49 L334 68 L337 80 L344 97 L353 108 L360 117 L368 125 L378 131 L408 141 L438 143 L472 142 L480 140 L481 140 L482 139 L490 134 L499 129 L510 123 L520 116 L531 110 L544 99 L558 84 L564 76 L566 70 L568 66 L568 60 L568 51 L567 46 L565 44 L562 41 L556 40 L551 40 L543 40 L536 42 L530 44 L524 50 L520 56 L517 66 L516 74 L514 87 L513 94 L513 104 L513 110 L516 120 L521 128 L526 133 L538 142 L548 146 L558 148 L567 149 L580 149 L588 149 L600 146 L614 140 L637 130 L646 122 L647 121 " fill="none" stroke="black" /></svg>