<?xml version="1.0" encoding="utf-8" ?>
<svg baseProfile="tiny" height="57" version="1.2" viewBox="-3 -3 378 57" width="378" xmlns="http://www.w3.org/2000/svg" xmlns:ev="http://www.w3.org/2001/xml-events" xmlns:xlink="http://www.w3.org/1999/xlink"><defs /><path d="M4 40 L3 42 L1 46 L0 46 L3 46 L4 46 L5 46 L6 46 L8 46 L9 46 L6 52 L2 56 L2 57 L5 54 L6 53 L7 53 L37 28 L44 22 L42 28 L42 30 L43 29 L40 36 L38 39 L37 39 L42 34 L43 32 L43 34 L39 40 L44 34 L48 30 L48 32 L41 45 L40 47 L42 46 L46 41 L47 41 L42 51 L40 52 L46 46 L58 32 L59 32 L57 36 L54 43 L54 44 L68 35 L71 33 L72 37 L68 52 L68 54 L70 54 L74 51 L74 50 L74 52 L84 45 L90 41 L90 40 L90 46 L94 46 L98 44 L100 44 L100 50 L100 52 L104 51 L116 46 L118 45 L118 46 L118 49 L129 44 L132 42 L133 42 L135 40 L136 38 L136 37 L136 40 L134 42 L135 42 L141 34 L142 34 L152 32 L154 31 L154 34 L150 44 L150 46 L160 40 L162 38 L162 41 L176 34 L180 32 L180 31 L178 35 L178 37 L181 37 L196 29 L199 28 L196 34 L188 46 L188 47 L196 42 L206 35 L208 34 L204 40 L201 44 L205 44 L230 29 L241 24 L241 25 L236 32 L254 24 L265 18 L266 18 L260 29 L258 31 L263 31 L265 31 L266 31 L267 31 L268 31 L278 22 L292 12 L295 11 L294 15 L289 23 L289 24 L290 24 L287 33 L286 34 L304 25 L336 2 L341 0 L337 6 L331 16 L330 16 L342 12 L347 10 L348 10 L347 15 L347 16 L350 16 L359 13 L361 12 L361 14 L364 14 L365 14 L366 14 L371 12 L374 12 L375 12 L376 12 L378 12 " fill="none" stroke="black" /></svg>