<?xml version="1.0" encoding="utf-8" ?>
<svg baseProfile="tiny" height="142" version="1.2" viewBox="-3 -3 147 142" width="147" xmlns="http://www.w3.org/2000/svg" xmlns:ev="http://www.w3.org/2001/xml-events" xmlns:xlink="http://www.w3.org/1999/xlink"><defs /><path d="M57 48 L59 47 L62 47 L65 47 L67 47 L70 47 L73 52 L74 56 L74 58 L74 62 L74 64 L74 67 L74 70 L73 71 L71 72 L69 74 L67 75 L63 75 L57 76 L53 76 L50 76 L47 76 L45 76 L42 74 L39 70 L37 68 L35 66 L34 63 L33 60 L33 56 L33 53 L33 51 L33 47 L33 43 L35 39 L36 37 L38 35 L40 31 L43 28 L46 26 L51 24 L56 24 L59 23 L65 23 L71 23 L76 23 L81 24 L87 25 L91 26 L95 30 L97 32 L99 33 L102 36 L105 43 L106 46 L107 50 L108 56 L109 60 L109 63 L109 67 L109 72 L109 76 L105 83 L99 90 L96 94 L91 100 L88 103 L83 106 L80 108 L73 110 L65 110 L56 111 L46 111 L37 111 L30 110 L24 106 L19 102 L15 100 L10 96 L6 90 L3 86 L3 80 L2 74 L2 70 L2 66 L2 61 L2 59 L3 56 L5 50 L7 45 L10 42 L15 34 L18 30 L22 27 L26 24 L33 18 L40 14 L47 11 L52 9 L60 6 L69 3 L77 1 L85 0 L95 0 L106 0 L111 2 L118 5 L124 9 L127 13 L131 19 L135 26 L141 35 L143 42 L145 52 L145 57 L146 63 L146 69 L147 76 L147 85 L147 92 L145 99 L142 104 L139 107 L135 110 L125 116 L115 124 L109 128 L103 130 L97 133 L93 135 L88 137 L81 139 L76 140 L70 141 L64 142 L56 142 L48 142 L38 142 L29 142 L15 141 L5 138 L0 135 " fill="none" stroke="black" /></svg>