<?xml version="1.0" encoding="utf-8" ?>
<svg baseProfile="tiny" height="232" version="1.2" viewBox="-3 -3 698 232" width="698" xmlns="http://www.w3.org/2000/svg" xmlns:ev="http://www.w3.org/2001/xml-events" xmlns:xlink="http://www.w3.org/1999/xlink"><defs /><path d="M0 0 L0 4 L1 8 L2 9 L2 13 L3 17 L4 20 L5 23 L6 23 L6 25 L7 27 L8 29 L9 31 L10 35 L11 36 L13 39 L14 41 L15 43 L16 47 L16 48 L17 50 L18 51 L20 53 L21 55 L22 59 L24 61 L26 64 L26 67 L29 71 L31 75 L32 78 L36 81 L37 84 L39 89 L40 91 L42 94 L44 96 L46 101 L49 104 L50 107 L53 109 L55 111 L60 115 L63 119 L67 121 L69 123 L72 125 L75 128 L78 131 L82 134 L86 136 L92 140 L94 142 L98 145 L102 148 L107 150 L110 152 L113 153 L118 155 L122 157 L126 159 L129 161 L133 163 L135 163 L138 164 L140 165 L145 167 L151 169 L156 172 L164 175 L169 177 L171 178 L176 179 L178 180 L182 181 L186 183 L191 184 L198 186 L203 187 L208 189 L214 191 L219 193 L226 195 L232 196 L240 197 L251 199 L265 207 L274 211 L281 211 L289 211 L300 211 L304 212 L310 213 L316 215 L322 217 L331 217 L338 218 L348 220 L354 221 L360 221 L364 222 L371 222 L377 223 L388 223 L396 224 L404 225 L409 225 L417 226 L427 227 L432 228 L433 228 L435 228 L442 228 L453 228 L464 228 L474 228 L484 228 L494 228 L502 229 L507 230 L511 231 L516 231 L522 232 L526 232 L536 232 L543 232 L551 232 L558 231 L566 231 L571 231 L576 231 L580 231 L582 231 L584 231 L593 231 L604 230 L609 229 L616 229 L621 229 L628 229 L635 229 L645 229 L654 229 L662 229 L668 229 L672 229 L680 228 L690 227 L696 227 L698 227 " fill="none" stroke="black" /></svg>