<?xml version="1.0" encoding="utf-8" ?>
<svg baseProfile="tiny" height="92" version="1.2" viewBox="-3 -3 251 92" width="251" xmlns="http://www.w3.org/2000/svg" xmlns:ev="http://www.w3.org/2001/xml-events" xmlns:xlink="http://www.w3.org/1999/xlink"><defs /><path d="M0 78 L3 78 L6 78 L11 78 L17 78 L27 76 L33 74 L41 71 L47 68 L52 66 L57 64 L63 60 L67 58 L69 56 L71 54 L73 52 L75 49 L75 46 L76 40 L76 34 L75 29 L75 28 L75 26 L73 25 L71 25 L71 24 L69 24 L67 24 L65 24 L63 24 L61 24 L59 25 L57 26 L55 27 L54 28 L51 30 L51 32 L49 34 L48 35 L47 36 L46 36 L45 38 L44 40 L43 40 L43 43 L41 44 L41 47 L41 48 L41 51 L41 52 L41 56 L41 58 L41 60 L42 61 L43 62 L43 64 L44 66 L46 68 L47 70 L49 72 L51 74 L52 75 L54 78 L57 80 L62 84 L64 86 L66 88 L67 88 L70 90 L73 90 L76 91 L79 91 L82 92 L83 92 L85 92 L87 92 L89 92 L91 92 L93 92 L94 92 L97 90 L98 90 L99 90 L100 90 L105 88 L109 86 L114 83 L119 80 L123 76 L127 74 L130 72 L134 67 L138 62 L143 57 L147 50 L150 44 L153 41 L156 34 L157 30 L157 28 L157 26 L157 22 L157 20 L157 17 L157 16 L157 14 L156 12 L155 10 L151 8 L147 8 L144 8 L143 8 L141 10 L139 14 L135 18 L134 21 L134 25 L133 27 L133 29 L133 32 L134 37 L136 41 L138 44 L141 48 L145 53 L153 58 L157 60 L164 63 L168 65 L174 66 L180 67 L187 67 L193 67 L203 63 L210 59 L218 52 L225 46 L233 41 L239 34 L242 32 L247 26 L249 22 L251 17 L251 14 L251 8 L251 6 L251 4 L249 2 L248 0 L247 0 " fill="none" stroke="black" /></svg>