<?xml version="1.0" encoding="utf-8" ?>
<svg baseProfile="tiny" height="440" version="1.2" viewBox="-3 -3 965 440" width="965" xmlns="http://www.w3.org/2000/svg" xmlns:ev="http://www.w3.org/2001/xml-events" xmlns:xlink="http://www.w3.org/1999/xlink"><defs /><path d="M0 440 L1 436 L41 358 L235 61 L279 0 L277 20 L229 176 L216 225 L213 256 L213 272 L213 276 L213 277 L213 278 L213 280 L213 282 L213 283 L211 286 L211 291 L210 295 L210 298 L210 300 L210 302 L210 303 L210 305 L210 306 L210 307 L210 308 L211 310 L211 311 L211 312 L211 313 L214 316 L217 320 L219 322 L221 323 L223 324 L225 326 L230 328 L235 330 L238 330 L241 330 L244 330 L248 330 L253 330 L257 332 L261 332 L267 332 L271 332 L275 332 L279 332 L282 332 L286 332 L289 332 L293 332 L298 332 L303 332 L306 332 L310 332 L315 331 L321 330 L325 328 L333 328 L338 327 L342 326 L347 326 L351 326 L355 325 L359 324 L361 324 L370 324 L381 324 L395 324 L405 324 L418 324 L429 323 L443 323 L452 323 L463 323 L473 324 L486 324 L497 324 L509 324 L524 324 L535 324 L547 324 L555 324 L565 324 L572 322 L577 320 L581 320 " fill="none" stroke="black" /><path d="M0 440 L1 436 L41 358 L235 61 L279 0 L277 20 L229 176 L216 225 L213 256 L213 272 L213 276 L213 277 L213 278 L213 280 L213 282 L213 283 L211 286 L211 291 L210 295 L210 298 L210 300 L210 302 L210 303 L210 305 L210 306 L210 307 L210 308 L211 310 L211 311 L211 312 L211 313 L214 316 L217 320 L219 322 L221 323 L223 324 L225 326 L230 328 L235 330 L238 330 L241 330 L244 330 L248 330 L253 330 L257 332 L261 332 L267 332 L271 332 L275 332 L279 332 L282 332 L286 332 L289 332 L293 332 L298 332 L303 332 L306 332 L310 332 L315 331 L321 330 L325 328 L333 328 L338 327 L342 326 L347 326 L351 326 L355 325 L359 324 L361 324 L370 324 L381 324 L395 324 L405 324 L418 324 L429 323 L443 323 L452 323 L463 323 L473 324 L486 324 L497 324 L509 324 L524 324 L535 324 L547 324 L555 324 L565 324 L572 322 L577 320 L581 320 M582 324 L605 322 L671 320 L793 320 L871 320 L926 320 L953 318 L965 316 " fill="none" stroke="black" /></svg>