<?xml version="1.0" encoding="utf-8" ?>
<svg baseProfile="tiny" height="473" version="1.2" viewBox="-3 -3 988 473" width="988" xmlns="http://www.w3.org/2000/svg" xmlns:ev="http://www.w3.org/2001/xml-events" xmlns:xlink="http://www.w3.org/1999/xlink"><defs /><path d="M0 346 L2 344 L102 217 L280 36 L329 0 L338 50 L238 298 L208 398 L206 420 L206 422 L208 422 L217 418 L230 414 L240 410 L248 405 L254 400 L261 394 L269 384 L276 380 L283 372 L286 367 L290 362 L292 355 L294 347 L294 343 L294 338 L292 336 L291 334 L286 333 L282 332 L276 332 L271 335 L264 342 L260 351 L258 362 L261 380 L272 398 L294 418 L315 426 L358 433 L418 432 L504 417 L552 395 L594 368 L621 342 L629 328 L630 318 L630 306 L629 302 L620 298 L608 296 L599 296 L589 299 L584 304 L580 313 L581 332 L585 344 L592 360 L605 372 L622 384 L630 388 L640 392 L648 392 L658 392 L664 392 L676 388 L708 382 L752 368 L828 341 L886 308 L925 274 L942 257 L950 247 L952 230 L944 221 L902 216 L863 232 L826 279 L817 333 L827 400 L848 443 L883 466 L940 473 L983 464 L988 462 " fill="none" stroke="black" /></svg>