<?xml version="1.0" encoding="utf-8" ?>
<svg baseProfile="tiny" height="449" version="1.2" viewBox="-3 -3 180 449" width="180" xmlns="http://www.w3.org/2000/svg" xmlns:ev="http://www.w3.org/2001/xml-events" xmlns:xlink="http://www.w3.org/1999/xlink"><defs /><path d="M0 356 L2 340 L74 94 L106 14 L116 1 L116 0 L113 14 L105 81 L105 128 L105 164 L105 185 L105 194 L105 197 L105 200 L105 208 L105 224 L104 247 L102 266 L100 281 L100 292 L100 305 L100 308 L99 308 L98 308 L98 310 L97 313 L96 320 L96 322 L96 324 L95 325 L94 327 L94 330 L93 333 L92 337 L91 340 L90 342 L90 346 L90 349 L90 350 L90 352 L90 354 L90 357 L90 359 L90 361 L90 362 L90 363 L90 364 L90 365 L90 366 L90 367 L90 368 L90 369 L90 371 L90 373 L90 374 L90 376 L90 377 L90 378 L90 380 L90 384 L90 385 L90 386 L90 387 L90 388 L90 390 L90 392 L90 398 L90 400 L90 403 L90 404 L90 405 L90 407 L90 412 L90 413 L90 415 L90 416 L90 417 L90 418 L90 420 L91 420 L91 422 L91 424 L92 424 L92 426 L92 427 L92 428 L93 428 L94 429 L94 430 L96 432 L97 434 L98 436 L100 437 L101 438 L102 439 L102 440 L103 440 L104 442 L105 442 L106 443 L108 444 L109 444 L110 445 L112 446 L114 447 L116 447 L118 448 L120 448 L122 448 L124 449 L125 449 L126 449 L128 449 L130 449 L131 449 L133 449 L134 449 L136 449 L139 449 L141 449 L144 448 L147 446 L149 444 L151 444 L154 442 L158 441 L161 440 L164 438 L167 436 L170 434 L173 433 L176 431 L177 430 L179 428 L180 424 " fill="none" stroke="black" /></svg>