<?xml version="1.0" encoding="utf-8" ?>
<svg baseProfile="tiny" height="78" version="1.2" viewBox="-3 -3 290 78" width="290" xmlns="http://www.w3.org/2000/svg" xmlns:ev="http://www.w3.org/2001/xml-events" xmlns:xlink="http://www.w3.org/1999/xlink"><defs /><path d="M0 39 L0 38 L1 38 L3 38 L4 38 L5 38 L6 38 L8 38 L12 42 L13 43 L14 45 L18 45 L19 45 L20 45 L21 45 L22 45 L23 43 L24 43 L26 42 L28 40 L30 40 L31 39 L32 37 L34 34 L36 32 L36 31 L37 31 L38 31 L39 31 L40 31 L40 32 L40 38 L40 40 L40 41 L41 41 L42 41 L42 43 L44 43 L46 47 L47 49 L49 53 L50 57 L51 61 L52 61 L52 62 L52 63 L53 63 L55 61 L56 61 L66 50 L70 46 L72 45 L74 43 L75 41 L76 39 L76 38 L82 29 L88 21 L90 21 L90 20 L93 17 L98 15 L100 12 L101 12 L102 12 L104 12 L110 11 L116 9 L128 3 L136 0 L138 0 L139 0 L140 0 L138 2 L137 3 L136 4 L135 15 L135 21 L135 23 L135 24 L138 29 L140 37 L143 44 L144 48 L145 49 L147 51 L148 53 L149 62 L150 65 L151 65 L152 66 L152 67 L152 68 L153 70 L153 71 L155 71 L157 71 L158 71 L159 71 L164 69 L174 59 L176 57 L177 55 L184 47 L191 41 L194 39 L196 37 L197 36 L201 34 L205 32 L206 31 L207 31 L210 29 L220 21 L222 19 L223 19 L224 19 L226 16 L231 12 L232 11 L233 11 L235 11 L238 12 L238 20 L238 33 L240 36 L245 38 L250 40 L252 43 L253 45 L254 48 L256 49 L260 53 L265 64 L268 73 L270 78 L271 78 L272 78 L273 78 L274 78 L277 73 L279 60 L279 53 L279 48 L281 46 L285 41 L287 40 L288 38 L289 37 L290 37 " fill="none" stroke="black" /></svg>