<?xml version="1.0" encoding="utf-8" ?>
<svg baseProfile="tiny" height="196" version="1.2" viewBox="-3 -3 445 196" width="445" xmlns="http://www.w3.org/2000/svg" xmlns:ev="http://www.w3.org/2001/xml-events" xmlns:xlink="http://www.w3.org/1999/xlink"><defs /><path d="M0 169 L4 169 L7 169 L9 167 L13 164 L15 159 L17 151 L17 146 L17 142 L18 137 L19 133 L19 129 L19 123 L19 117 L19 109 L19 105 L19 99 L20 94 L21 89 L21 85 L23 77 L23 73 L24 65 L26 57 L31 48 L36 41 L39 37 L39 35 L43 33 L47 29 L49 29 " fill="none" stroke="black" /><path d="M0 169 L4 169 L7 169 L9 167 L13 164 L15 159 L17 151 L17 146 L17 142 L18 137 L19 133 L19 129 L19 123 L19 117 L19 109 L19 105 L19 99 L20 94 L21 89 L21 85 L23 77 L23 73 L24 65 L26 57 L31 48 L36 41 L39 37 L39 35 L43 33 L47 29 L49 29 M49 29 L53 25 L62 20 L77 15 L88 13 L94 12 L99 12 L103 12 L108 13 L113 16 L117 23 L120 27 L121 35 L123 43 L125 50 L125 56 L126 59 L128 68 L131 75 L135 88 L138 100 L143 114 L149 125 L155 136 L156 138 " fill="none" stroke="black" /><path d="M0 169 L4 169 L7 169 L9 167 L13 164 L15 159 L17 151 L17 146 L17 142 L18 137 L19 133 L19 129 L19 123 L19 117 L19 109 L19 105 L19 99 L20 94 L21 89 L21 85 L23 77 L23 73 L24 65 L26 57 L31 48 L36 41 L39 37 L39 35 L43 33 L47 29 L49 29 M49 29 L53 25 L62 20 L77 15 L88 13 L94 12 L99 12 L103 12 L108 13 L113 16 L117 23 L120 27 L121 35 L123 43 L125 50 L125 56 L126 59 L128 68 L131 75 L135 88 L138 100 L143 114 L149 125 L155 136 L156 138 M156 138 L156 139 L162 147 L167 155 L171 160 L177 168 L183 173 L193 180 L199 183 L201 183 L203 183 L207 183 L212 177 L219 168 L223 159 L227 151 L230 141 L232 131 L233 118 L237 101 L244 76 L251 61 L258 47 L267 33 L277 16 L284 6 L289 3 L294 0 L301 0 L309 0 L317 2 L321 5 L325 13 L327 20 L329 33 L331 49 L331 59 L333 75 L333 85 L333 91 L333 97 L335 105 L337 113 L338 119 L339 127 L339 132 L340 133 " fill="none" stroke="black" /><path d="M0 169 L4 169 L7 169 L9 167 L13 164 L15 159 L17 151 L17 146 L17 142 L18 137 L19 133 L19 129 L19 123 L19 117 L19 109 L19 105 L19 99 L20 94 L21 89 L21 85 L23 77 L23 73 L24 65 L26 57 L31 48 L36 41 L39 37 L39 35 L43 33 L47 29 L49 29 M49 29 L53 25 L62 20 L77 15 L88 13 L94 12 L99 12 L103 12 L108 13 L113 16 L117 23 L120 27 L121 35 L123 43 L125 50 L125 56 L126 59 L128 68 L131 75 L135 88 L138 100 L143 114 L149 125 L155 136 L156 138 M156 138 L156 139 L162 147 L167 155 L171 160 L177 168 L183 173 L193 180 L199 183 L201 183 L203 183 L207 183 L212 177 L219 168 L223 159 L227 151 L230 141 L232 131 L233 118 L237 101 L244 76 L251 61 L258 47 L267 33 L277 16 L284 6 L289 3 L294 0 L301 0 L309 0 L317 2 L321 5 L325 13 L327 20 L329 33 L331 49 L331 59 L333 75 L333 85 L333 91 L333 97 L335 105 L337 113 L338 119 L339 127 L339 132 L340 133 M340 133 L340 135 L341 143 L343 152 L345 159 L347 166 L351 174 L354 179 L357 184 L361 189 L363 192 L363 193 L367 195 L371 196 L373 196 L376 196 L378 195 L382 190 L387 179 L391 166 L393 147 L395 134 L396 122 L397 105 L399 92 L400 80 L401 68 L404 55 L406 39 L410 29 L415 20 L419 15 L423 13 L426 11 L431 10 L434 9 L435 9 L437 9 L438 9 L442 15 L444 23 L445 34 L445 37 L445 45 L445 53 L445 69 L445 79 " fill="none" stroke="black" /></svg>