<?xml version="1.0" encoding="utf-8" ?>
<svg baseProfile="tiny" height="378" version="1.2" viewBox="-3 -3 653 378" width="653" xmlns="http://www.w3.org/2000/svg" xmlns:ev="http://www.w3.org/2001/xml-events" xmlns:xlink="http://www.w3.org/1999/xlink"><defs /><path d="M0 304 L14 269 L76 117 L102 38 L103 35 L103 36 L98 105 L96 261 L100 291 L100 255 L116 132 L123 97 L123 94 L123 96 L118 171 L116 259 L116 286 L116 288 L120 253 L138 65 L148 4 L148 0 L148 4 L144 123 L140 250 L140 269 L140 271 L155 191 L187 81 L196 65 L190 109 L167 259 L159 318 L156 337 L156 339 L179 254 L228 50 L232 30 L232 29 L226 62 L217 225 L217 276 L217 285 L217 286 L230 190 L273 50 L289 20 L291 18 L291 24 L304 135 L309 197 L309 212 L309 213 L311 195 L328 76 L332 45 L332 43 L330 53 L312 195 L312 248 L308 279 L307 282 L303 255 L329 129 L357 70 L366 61 L368 60 L368 158 L370 244 L372 273 L374 277 L384 240 L404 104 L418 51 L422 43 L422 44 L420 136 L412 206 L408 247 L408 260 L416 170 L427 37 L434 3 L436 1 L436 9 L440 125 L440 173 L438 182 L438 183 L444 148 L457 79 L460 67 L461 66 L465 142 L464 210 L462 248 L462 253 L463 249 L471 171 L481 127 L486 116 L486 115 L492 187 L492 323 L488 371 L487 378 L481 349 L492 198 L516 139 L528 119 L529 119 L532 207 L525 271 L520 293 L519 291 L506 153 L526 24 L534 9 L537 7 L554 79 L565 244 L559 271 L557 269 L548 197 L560 137 L570 111 L572 109 L576 130 L584 245 L580 278 L578 281 L569 255 L570 167 L584 133 L592 127 L608 139 L646 255 L645 274 L645 275 L642 265 L640 221 L640 173 L641 166 L642 165 L644 167 L653 210 L653 217 " fill="none" stroke="black" /></svg>