<?xml version="1.0" encoding="utf-8" ?>
<svg baseProfile="tiny" height="358" version="1.2" viewBox="-3 -3 442 358" width="442" xmlns="http://www.w3.org/2000/svg" xmlns:ev="http://www.w3.org/2001/xml-events" xmlns:xlink="http://www.w3.org/1999/xlink"><defs /><path d="M0 358 L6 348 L146 144 L247 24 L280 0 L284 0 L273 39 L232 128 L208 190 L204 214 L204 218 L204 219 L204 220 L203 222 L202 224 L202 227 L200 231 L199 236 L198 241 L197 246 L196 250 L196 256 L196 259 L196 260 L195 263 L192 272 L192 274 L192 278 L191 283 L190 288 L190 292 L190 294 L190 298 L189 301 L188 304 L188 305 L188 304 L190 299 L190 298 L191 298 L192 300 L195 300 L196 300 L197 300 L198 300 L199 300 L200 301 L207 300 L212 297 L213 297 L215 298 L216 300 L217 300 L220 300 L221 300 L222 301 L222 304 L222 306 L225 306 L226 304 L227 304 L227 307 L227 308 L232 302 L239 293 L240 291 L240 294 L240 301 L240 303 L244 303 L250 302 L253 300 L254 300 L254 303 L254 304 L258 303 L269 294 L272 292 L272 295 L272 300 L279 298 L283 296 L284 296 L284 306 L284 308 L286 308 L287 307 L288 307 L288 308 L292 306 L304 298 L306 298 L306 300 L306 301 L312 301 L315 300 L316 300 L317 301 L327 299 L333 297 L334 301 L334 302 L332 310 L339 304 L354 288 L356 286 L357 287 L362 288 L366 289 L366 290 L366 296 L366 298 L369 298 L380 290 L382 290 L380 295 L388 293 L392 291 L392 292 L389 301 L389 302 L406 297 L415 292 L416 291 L416 296 L416 297 L432 298 L442 296 " fill="none" stroke="black" /></svg>