<?xml version="1.0" encoding="utf-8" ?>
<svg baseProfile="tiny" height="297" version="1.2" viewBox="-3 -3 1256 297" width="1256" xmlns="http://www.w3.org/2000/svg" xmlns:ev="http://www.w3.org/2001/xml-events" xmlns:xlink="http://www.w3.org/1999/xlink"><defs /><path d="M0 8 L18 8 L48 8 L95 8 L132 8 L165 8 L193 9 L219 12 L241 14 L262 15 L280 17 L289 17 L295 17 L297 17 L301 17 L317 17 L342 16 L368 15 L396 15 L417 15 L442 16 L467 18 L488 20 L509 21 L524 22 L535 22 L542 22 L547 22 L548 22 L554 22 L566 22 L603 22 L659 22 L697 24 L727 26 L751 26 L771 26 L785 26 L793 24 L803 24 L819 21 L852 17 L901 10 L938 6 L966 3 L987 1 L1006 1 L1026 1 L1044 1 L1056 1 L1065 1 L1076 1 L1085 1 L1093 1 L1101 1 L1107 0 L1110 0 L1112 0 L1114 0 L1126 1 L1140 2 L1156 3 L1172 5 L1185 6 L1197 7 L1207 8 L1211 8 L1217 9 L1222 9 L1226 9 L1230 9 L1233 9 L1235 9 L1237 9 L1239 9 L1242 9 L1244 9 L1247 9 L1249 9 L1251 9 L1253 9 L1254 9 L1255 9 L1254 10 L1248 15 L1235 24 L1216 36 L1193 50 L1176 60 L1147 71 L1105 85 L1051 103 L995 123 L955 135 L901 149 L859 159 L820 168 L789 178 L765 186 L752 190 L744 190 L720 197 L668 214 L624 226 L588 233 L558 239 L535 244 L511 249 L489 254 L471 259 L460 262 L450 266 L435 272 L426 277 L417 281 L410 285 L404 288 L401 290 L397 292 L394 294 L393 295 L398 296 L426 297 L492 297 L551 296 L607 294 L665 289 L727 284 L783 278 L831 272 L866 268 L890 265 L908 262 L920 260 L925 259 L930 259 L943 260 L985 263 L1043 264 L1095 263 L1122 260 L1145 259 L1169 259 L1194 257 L1213 255 L1230 253 L1241 252 L1248 251 L1252 249 L1256 249 " fill="none" stroke="black" /></svg>