<?xml version="1.0" encoding="utf-8" ?>
<svg baseProfile="tiny" height="896" version="1.2" viewBox="-3 -3 436 896" width="436" xmlns="http://www.w3.org/2000/svg" xmlns:ev="http://www.w3.org/2001/xml-events" xmlns:xlink="http://www.w3.org/1999/xlink"><defs /><path d="M0 317 L3 303 L5 295 L7 288 L8 283 L8 280 L8 278 L8 277 L9 278 L10 287 L11 308 L12 336 L12 380 L15 418 L23 459 L31 494 L38 525 L45 552 L52 580 L60 607 L66 623 L72 638 L77 654 L81 668 L84 678 L87 689 L90 698 L93 705 L95 712 L97 715 L98 719 L101 733 L104 748 L106 759 L108 763 L109 768 L109 773 L110 778 L109 772 L103 735 L93 631 L86 485 L86 324 L99 195 L114 126 L123 82 L128 51 L132 36 L133 34 L134 34 L135 34 L136 36 L137 54 L137 103 L137 147 L137 196 L139 240 L141 296 L144 339 L150 392 L154 424 L159 447 L161 468 L164 487 L166 506 L170 527 L172 553 L175 576 L177 596 L180 613 L186 632 L189 650 L191 682 L191 685 L191 688 L192 698 L196 716 L202 746 L208 773 L213 793 L216 804 L218 809 L220 816 L224 824 L226 829 L226 828 L224 798 L214 697 L208 598 L207 458 L214 356 L226 265 L240 187 L250 134 L258 83 L263 58 L264 53 L264 52 L264 51 L264 84 L264 148 L263 210 L261 283 L261 336 L261 394 L263 456 L268 509 L276 556 L282 588 L285 611 L287 634 L288 662 L290 684 L294 706 L299 724 L305 739 L311 756 L318 775 L321 785 L322 791 L323 796 L323 797 L322 784 L319 737 L318 646 L323 526 L341 375 L353 250 L376 80 L401 0 L424 0 L432 0 L435 0 L433 32 L418 115 L403 230 L398 346 L395 468 L394 583 L395 656 L403 720 L408 764 L415 802 L423 835 L430 864 L434 880 L435 889 L436 894 L436 895 L436 896 " fill="none" stroke="black" /></svg>