<?xml version="1.0" encoding="utf-8" ?>
<svg baseProfile="tiny" height="160" version="1.2" viewBox="-3 -3 491 160" width="491" xmlns="http://www.w3.org/2000/svg" xmlns:ev="http://www.w3.org/2001/xml-events" xmlns:xlink="http://www.w3.org/1999/xlink"><defs /><path d="M0 56 L2 71 L3 73 L12 62 L26 53 L32 58 L35 68 L37 69 L43 62 L47 60 L50 73 L50 80 L55 74 L62 68 L67 75 L72 84 L81 71 L86 57 L90 53 L90 62 L91 65 L91 63 L92 62 L94 61 L99 61 L108 63 L123 66 L134 66 L153 66 L204 64 L247 63 L273 62 L282 62 L282 58 L282 40 L284 33 L286 73 L291 102 L293 108 L296 86 L298 66 L301 65 L304 75 L307 78 L316 51 L322 35 L325 33 L328 45 L332 49 L338 37 L342 30 L345 43 L347 56 L349 58 L353 49 L355 46 L356 45 L357 45 L360 46 L367 52 L374 63 L377 70 L379 73 L379 74 L380 75 L382 75 L390 75 L403 73 L417 69 L439 66 L464 63 L479 62 L482 61 L483 61 L483 71 L484 98 L485 110 L486 113 L487 106 L489 90 L491 86 L491 95 L490 103 L490 105 L488 105 L479 106 L444 111 L396 122 L356 128 L315 129 L264 124 L229 129 L206 138 L194 142 L190 143 L192 143 L193 143 L193 144 L188 146 L181 135 L176 114 L175 109 L175 124 L175 133 L175 134 L173 126 L170 123 L168 136 L166 144 L165 144 L161 134 L155 127 L150 129 L146 135 L143 137 L143 127 L143 124 L141 138 L139 148 L135 150 L129 136 L126 130 L125 142 L125 156 L125 160 L123 151 L117 131 L115 128 L113 132 L112 134 L111 121 L111 61 L116 20 L123 3 L132 0 L145 28 L155 51 L159 61 L159 62 L159 63 L160 68 L160 80 L161 93 L161 94 L163 85 L167 67 L170 61 L173 67 L176 76 L177 78 " fill="none" stroke="black" /></svg>