<?xml version="1.0" encoding="utf-8" ?>
<svg baseProfile="tiny" height="269" version="1.2" viewBox="-3 -3 915 269" width="915" xmlns="http://www.w3.org/2000/svg" xmlns:ev="http://www.w3.org/2001/xml-events" xmlns:xlink="http://www.w3.org/1999/xlink"><defs /><path d="M0 20 L0 14 L0 3 L0 0 L3 8 L9 32 L12 46 L14 49 L15 42 L22 32 L43 49 L59 86 L66 104 L67 107 L67 53 L73 32 L102 64 L130 118 L143 144 L146 138 L150 67 L173 37 L208 79 L230 123 L237 140 L237 106 L235 66 L236 62 L244 84 L248 95 L250 94 L253 79 L260 72 L273 91 L281 109 L283 114 L285 111 L288 98 L295 93 L314 110 L328 128 L335 133 L337 134 L364 145 L387 154 L398 158 L400 159 L395 145 L394 131 L394 128 L404 138 L416 159 L421 170 L425 167 L431 150 L441 141 L453 146 L463 161 L466 164 L476 136 L488 109 L502 100 L522 161 L533 243 L535 269 L548 173 L560 62 L570 19 L576 71 L576 152 L572 178 L572 149 L578 69 L585 49 L586 140 L578 196 L574 219 L583 151 L596 107 L600 103 L597 135 L594 147 L608 123 L643 66 L666 46 L663 84 L654 107 L651 112 L683 66 L704 44 L716 37 L716 43 L714 45 L714 28 L721 15 L727 44 L721 121 L711 156 L719 90 L741 41 L766 39 L772 147 L766 189 L763 205 L799 153 L825 122 L835 115 L816 147 L805 163 L818 143 L855 99 L876 85 L869 113 L857 132 L861 123 L899 74 L915 60 L904 74 " fill="none" stroke="black" /></svg>