<?xml version="1.0" encoding="utf-8" ?>
<svg baseProfile="tiny" height="115" version="1.2" viewBox="-3 -3 360 115" width="360" xmlns="http://www.w3.org/2000/svg" xmlns:ev="http://www.w3.org/2001/xml-events" xmlns:xlink="http://www.w3.org/1999/xlink"><defs /><path d="M0 46 L0 45 L0 39 L1 36 L5 36 L10 43 L16 49 L21 50 L24 46 L27 42 L30 42 L35 48 L38 51 L40 52 L44 45 L47 40 L52 40 L58 45 L61 48 L64 49 L67 42 L70 41 L74 43 L82 48 L88 46 L93 39 L96 36 L100 36 L104 39 L107 40 L109 35 L111 33 L114 36 L118 44 L122 47 L125 45 L127 40 L129 39 L131 45 L135 52 L138 54 L141 50 L144 48 L148 49 L154 54 L162 55 L170 48 L174 43 L177 44 L178 48 L180 50 L181 48 L182 46 L183 46 L185 48 L188 54 L189 56 L193 54 L197 45 L200 41 L203 44 L206 49 L210 50 L217 37 L221 27 L223 24 L224 25 L228 31 L231 33 L236 27 L239 21 L241 20 L243 30 L247 45 L251 50 L255 49 L258 44 L259 43 L261 46 L262 50 L263 51 L265 51 L267 50 L270 50 L272 51 L273 51 " fill="none" stroke="black" /><path d="M0 46 L0 45 L0 39 L1 36 L5 36 L10 43 L16 49 L21 50 L24 46 L27 42 L30 42 L35 48 L38 51 L40 52 L44 45 L47 40 L52 40 L58 45 L61 48 L64 49 L67 42 L70 41 L74 43 L82 48 L88 46 L93 39 L96 36 L100 36 L104 39 L107 40 L109 35 L111 33 L114 36 L118 44 L122 47 L125 45 L127 40 L129 39 L131 45 L135 52 L138 54 L141 50 L144 48 L148 49 L154 54 L162 55 L170 48 L174 43 L177 44 L178 48 L180 50 L181 48 L182 46 L183 46 L185 48 L188 54 L189 56 L193 54 L197 45 L200 41 L203 44 L206 49 L210 50 L217 37 L221 27 L223 24 L224 25 L228 31 L231 33 L236 27 L239 21 L241 20 L243 30 L247 45 L251 50 L255 49 L258 44 L259 43 L261 46 L262 50 L263 51 L265 51 L267 50 L270 50 L272 51 L273 51 M233 78 L233 76 L237 76 L241 86 L245 96 L248 99 L254 92 L263 77 L268 72 L273 72 L275 73 L276 74 L280 70 L284 69 L289 72 L293 78 L295 79 L300 77 L309 67 L315 65 L319 73 L321 79 L322 80 L323 79 L324 78 L326 83 L328 87 L331 88 L333 84 L334 82 " fill="none" stroke="black" /><circle cx="210" cy="79" fill="black" r="1" /><circle cx="188" cy="20" fill="black" r="1" /><circle cx="315" cy="35" fill="black" r="1" /><path d="M0 46 L0 45 L0 39 L1 36 L5 36 L10 43 L16 49 L21 50 L24 46 L27 42 L30 42 L35 48 L38 51 L40 52 L44 45 L47 40 L52 40 L58 45 L61 48 L64 49 L67 42 L70 41 L74 43 L82 48 L88 46 L93 39 L96 36 L100 36 L104 39 L107 40 L109 35 L111 33 L114 36 L118 44 L122 47 L125 45 L127 40 L129 39 L131 45 L135 52 L138 54 L141 50 L144 48 L148 49 L154 54 L162 55 L170 48 L174 43 L177 44 L178 48 L180 50 L181 48 L182 46 L183 46 L185 48 L188 54 L189 56 L193 54 L197 45 L200 41 L203 44 L206 49 L210 50 L217 37 L221 27 L223 24 L224 25 L228 31 L231 33 L236 27 L239 21 L241 20 L243 30 L247 45 L251 50 L255 49 L258 44 L259 43 L261 46 L262 50 L263 51 L265 51 L267 50 L270 50 L272 51 L273 51 M233 78 L233 76 L237 76 L241 86 L245 96 L248 99 L254 92 L263 77 L268 72 L273 72 L275 73 L276 74 L280 70 L284 69 L289 72 L293 78 L295 79 L300 77 L309 67 L315 65 L319 73 L321 79 L322 80 L323 79 L324 78 L326 83 L328 87 L331 88 L333 84 L334 82 M360 80 L360 81 " fill="none" stroke="black" /><path d="M0 46 L0 45 L0 39 L1 36 L5 36 L10 43 L16 49 L21 50 L24 46 L27 42 L30 42 L35 48 L38 51 L40 52 L44 45 L47 40 L52 40 L58 45 L61 48 L64 49 L67 42 L70 41 L74 43 L82 48 L88 46 L93 39 L96 36 L100 36 L104 39 L107 40 L109 35 L111 33 L114 36 L118 44 L122 47 L125 45 L127 40 L129 39 L131 45 L135 52 L138 54 L141 50 L144 48 L148 49 L154 54 L162 55 L170 48 L174 43 L177 44 L178 48 L180 50 L181 48 L182 46 L183 46 L185 48 L188 54 L189 56 L193 54 L197 45 L200 41 L203 44 L206 49 L210 50 L217 37 L221 27 L223 24 L224 25 L228 31 L231 33 L236 27 L239 21 L241 20 L243 30 L247 45 L251 50 L255 49 L258 44 L259 43 L261 46 L262 50 L263 51 L265 51 L267 50 L270 50 L272 51 L273 51 M233 78 L233 76 L237 76 L241 86 L245 96 L248 99 L254 92 L263 77 L268 72 L273 72 L275 73 L276 74 L280 70 L284 69 L289 72 L293 78 L295 79 L300 77 L309 67 L315 65 L319 73 L321 79 L322 80 L323 79 L324 78 L326 83 L328 87 L331 88 L333 84 L334 82 M360 80 L360 81 M328 109 L327 109 " fill="none" stroke="black" /><circle cx="267" cy="96" fill="black" r="1" /><path d="M0 46 L0 45 L0 39 L1 36 L5 36 L10 43 L16 49 L21 50 L24 46 L27 42 L30 42 L35 48 L38 51 L40 52 L44 45 L47 40 L52 40 L58 45 L61 48 L64 49 L67 42 L70 41 L74 43 L82 48 L88 46 L93 39 L96 36 L100 36 L104 39 L107 40 L109 35 L111 33 L114 36 L118 44 L122 47 L125 45 L127 40 L129 39 L131 45 L135 52 L138 54 L141 50 L144 48 L148 49 L154 54 L162 55 L170 48 L174 43 L177 44 L178 48 L180 50 L181 48 L182 46 L183 46 L185 48 L188 54 L189 56 L193 54 L197 45 L200 41 L203 44 L206 49 L210 50 L217 37 L221 27 L223 24 L224 25 L228 31 L231 33 L236 27 L239 21 L241 20 L243 30 L247 45 L251 50 L255 49 L258 44 L259 43 L261 46 L262 50 L263 51 L265 51 L267 50 L270 50 L272 51 L273 51 M233 78 L233 76 L237 76 L241 86 L245 96 L248 99 L254 92 L263 77 L268 72 L273 72 L275 73 L276 74 L280 70 L284 69 L289 72 L293 78 L295 79 L300 77 L309 67 L315 65 L319 73 L321 79 L322 80 L323 79 L324 78 L326 83 L328 87 L331 88 L333 84 L334 82 M360 80 L360 81 M328 109 L327 109 M185 115 L184 115 L181 115 L179 114 L174 107 " fill="none" stroke="black" /><circle cx="160" cy="81" fill="black" r="1" /><circle cx="123" cy="81" fill="black" r="1" /><circle cx="119" cy="30" fill="black" r="1" /><circle cx="81" cy="18" fill="black" r="1" /><circle cx="81" cy="54" fill="black" r="1" /><circle cx="81" cy="76" fill="black" r="1" /><circle cx="32" cy="69" fill="black" r="1" /><path d="M0 46 L0 45 L0 39 L1 36 L5 36 L10 43 L16 49 L21 50 L24 46 L27 42 L30 42 L35 48 L38 51 L40 52 L44 45 L47 40 L52 40 L58 45 L61 48 L64 49 L67 42 L70 41 L74 43 L82 48 L88 46 L93 39 L96 36 L100 36 L104 39 L107 40 L109 35 L111 33 L114 36 L118 44 L122 47 L125 45 L127 40 L129 39 L131 45 L135 52 L138 54 L141 50 L144 48 L148 49 L154 54 L162 55 L170 48 L174 43 L177 44 L178 48 L180 50 L181 48 L182 46 L183 46 L185 48 L188 54 L189 56 L193 54 L197 45 L200 41 L203 44 L206 49 L210 50 L217 37 L221 27 L223 24 L224 25 L228 31 L231 33 L236 27 L239 21 L241 20 L243 30 L247 45 L251 50 L255 49 L258 44 L259 43 L261 46 L262 50 L263 51 L265 51 L267 50 L270 50 L272 51 L273 51 M233 78 L233 76 L237 76 L241 86 L245 96 L248 99 L254 92 L263 77 L268 72 L273 72 L275 73 L276 74 L280 70 L284 69 L289 72 L293 78 L295 79 L300 77 L309 67 L315 65 L319 73 L321 79 L322 80 L323 79 L324 78 L326 83 L328 87 L331 88 L333 84 L334 82 M360 80 L360 81 M328 109 L327 109 M185 115 L184 115 L181 115 L179 114 L174 107 M81 0 L77 1 " fill="none" stroke="black" /><circle cx="43" cy="14" fill="black" r="1" /><path d="M0 46 L0 45 L0 39 L1 36 L5 36 L10 43 L16 49 L21 50 L24 46 L27 42 L30 42 L35 48 L38 51 L40 52 L44 45 L47 40 L52 40 L58 45 L61 48 L64 49 L67 42 L70 41 L74 43 L82 48 L88 46 L93 39 L96 36 L100 36 L104 39 L107 40 L109 35 L111 33 L114 36 L118 44 L122 47 L125 45 L127 40 L129 39 L131 45 L135 52 L138 54 L141 50 L144 48 L148 49 L154 54 L162 55 L170 48 L174 43 L177 44 L178 48 L180 50 L181 48 L182 46 L183 46 L185 48 L188 54 L189 56 L193 54 L197 45 L200 41 L203 44 L206 49 L210 50 L217 37 L221 27 L223 24 L224 25 L228 31 L231 33 L236 27 L239 21 L241 20 L243 30 L247 45 L251 50 L255 49 L258 44 L259 43 L261 46 L262 50 L263 51 L265 51 L267 50 L270 50 L272 51 L273 51 M233 78 L233 76 L237 76 L241 86 L245 96 L248 99 L254 92 L263 77 L268 72 L273 72 L275 73 L276 74 L280 70 L284 69 L289 72 L293 78 L295 79 L300 77 L309 67 L315 65 L319 73 L321 79 L322 80 L323 79 L324 78 L326 83 L328 87 L331 88 L333 84 L334 82 M360 80 L360 81 M328 109 L327 109 M185 115 L184 115 L181 115 L179 114 L174 107 M81 0 L77 1 M65 37 L65 38 " fill="none" stroke="black" /><circle cx="66" cy="69" fill="black" r="1" /><circle cx="77" cy="87" fill="black" r="1" /><circle cx="115" cy="68" fill="black" r="1" /><circle cx="142" cy="11" fill="black" r="1" /><circle cx="161" cy="43" fill="black" r="1" /><circle cx="162" cy="71" fill="black" r="1" /><circle cx="184" cy="73" fill="black" r="1" /><circle cx="231" cy="52" fill="black" r="1" /></svg>