<?xml version="1.0" encoding="utf-8" ?>
<svg baseProfile="tiny" height="567" version="1.2" viewBox="-3 -3 857 567" width="857" xmlns="http://www.w3.org/2000/svg" xmlns:ev="http://www.w3.org/2001/xml-events" xmlns:xlink="http://www.w3.org/1999/xlink"><defs /><path d="M0 263 L3 264 L6 266 L12 268 L16 270 L21 271 L29 268 L46 243 L60 222 L69 215 L72 224 L74 255 L75 266 L76 267 L89 240 L103 223 L118 229 L135 279 L139 293 L140 294 L141 279 L144 253 L146 243 L147 243 L152 257 L167 299 L186 358 L196 394 L199 411 L201 417 L204 422 L207 424 L211 424 L215 416 L225 384 L241 308 L249 255 L255 211 L263 160 L272 112 L278 78 L280 65 L281 65 L284 98 L287 187 L291 286 L297 338 L302 356 L312 369 L326 392 L336 416 L340 427 L341 430 L341 426 L344 390 L346 369 L347 363 L349 369 L350 373 L350 374 L351 373 L354 365 L356 361 L361 364 L371 381 L377 393 L381 398 L384 397 L389 385 L396 354 L401 331 L405 322 L408 321 L410 322 L412 311 L424 243 L429 165 L435 104 L440 78 L445 68 L456 76 L482 148 L511 292 L528 415 L533 473 L539 524 L545 551 L549 565 L550 567 L550 562 L550 498 L550 389 L551 300 L560 267 L567 263 L574 284 L579 319 L581 340 L581 347 L581 348 L581 333 L581 295 L589 277 L608 279 L628 298 L639 312 L640 314 L655 316 L668 320 L683 321 L690 314 L700 274 L708 236 L709 228 L709 249 L709 301 L711 331 L711 339 L711 336 L711 295 L711 226 L712 196 L720 195 L743 272 L757 371 L760 402 L761 409 L761 383 L758 277 L758 209 L762 179 L771 185 L786 264 L795 375 L804 454 L809 477 L810 457 L810 332 L802 130 L802 28 L805 0 L811 5 L823 78 L837 260 L845 349 L850 393 L852 404 L854 407 L856 409 L857 410 " fill="none" stroke="black" /></svg>