<?xml version="1.0" encoding="utf-8" ?>
<svg baseProfile="tiny" height="357" version="1.2" viewBox="-3 -3 454 357" width="454" xmlns="http://www.w3.org/2000/svg" xmlns:ev="http://www.w3.org/2001/xml-events" xmlns:xlink="http://www.w3.org/1999/xlink"><defs /><path d="M342 144 L294 207 L257 239 L238 252 L286 212 L346 174 L384 167 L341 225 L302 257 L283 272 L304 264 L349 244 L379 240 L363 272 L341 294 L334 299 L355 278 L384 260 L398 256 L395 260 L389 266 L388 269 L394 276 L399 290 L399 299 L398 301 " fill="none" stroke="black" /><path d="M342 144 L294 207 L257 239 L238 252 L286 212 L346 174 L384 167 L341 225 L302 257 L283 272 L304 264 L349 244 L379 240 L363 272 L341 294 L334 299 L355 278 L384 260 L398 256 L395 260 L389 266 L388 269 L394 276 L399 290 L399 299 L398 301 M53 194 L60 172 L114 77 L135 48 L144 38 L139 54 L106 122 L73 201 L56 253 L52 269 L52 272 L56 259 L78 210 L119 146 L146 125 L157 122 L158 140 L126 207 L99 275 L86 317 L83 330 L83 331 L91 305 L153 160 L205 62 L230 29 L240 22 L230 59 L187 166 L159 264 L145 331 L142 353 L142 357 L159 299 L228 113 L269 25 L284 0 L288 1 L278 93 L266 185 L256 254 L251 289 L250 297 L249 294 L280 187 L303 128 L316 106 L320 104 L320 135 L305 213 L290 288 L284 315 L282 323 L290 282 L310 221 L326 185 L332 179 L334 191 L334 224 L327 261 L325 278 L324 284 L336 253 L362 196 L379 175 L390 169 L390 214 L375 263 L366 288 L363 298 L363 300 L363 297 L381 245 L399 208 L414 195 L420 197 L421 221 L416 247 L410 265 L406 278 L405 288 " fill="none" stroke="black" /><path d="M342 144 L294 207 L257 239 L238 252 L286 212 L346 174 L384 167 L341 225 L302 257 L283 272 L304 264 L349 244 L379 240 L363 272 L341 294 L334 299 L355 278 L384 260 L398 256 L395 260 L389 266 L388 269 L394 276 L399 290 L399 299 L398 301 M53 194 L60 172 L114 77 L135 48 L144 38 L139 54 L106 122 L73 201 L56 253 L52 269 L52 272 L56 259 L78 210 L119 146 L146 125 L157 122 L158 140 L126 207 L99 275 L86 317 L83 330 L83 331 L91 305 L153 160 L205 62 L230 29 L240 22 L230 59 L187 166 L159 264 L145 331 L142 353 L142 357 L159 299 L228 113 L269 25 L284 0 L288 1 L278 93 L266 185 L256 254 L251 289 L250 297 L249 294 L280 187 L303 128 L316 106 L320 104 L320 135 L305 213 L290 288 L284 315 L282 323 L290 282 L310 221 L326 185 L332 179 L334 191 L334 224 L327 261 L325 278 L324 284 L336 253 L362 196 L379 175 L390 169 L390 214 L375 263 L366 288 L363 298 L363 300 L363 297 L381 245 L399 208 L414 195 L420 197 L421 221 L416 247 L410 265 L406 278 L405 288 M0 256 L18 250 L29 250 L32 250 L29 253 L18 265 L14 273 L26 279 L74 287 L110 294 L127 301 L116 307 L98 309 L92 309 L119 306 L188 300 L219 298 L229 297 L210 297 L194 300 L192 301 L259 278 L331 251 L354 243 L324 250 L279 263 L257 267 L282 254 L378 210 L401 202 L394 201 L342 217 L321 222 L323 223 L378 203 L425 189 L434 187 L433 187 L430 187 L433 187 L447 184 L454 182 L452 182 " fill="none" stroke="black" /></svg>