<?xml version="1.0" encoding="utf-8" ?>
<svg baseProfile="tiny" height="163" version="1.2" viewBox="-3 -3 221 163" width="221" xmlns="http://www.w3.org/2000/svg" xmlns:ev="http://www.w3.org/2001/xml-events" xmlns:xlink="http://www.w3.org/1999/xlink"><defs /><path d="M0 42 L3 35 L5 31 L9 28 L13 25 L18 22 L22 22 L26 22 L31 28 L33 37 L34 52 L34 69 L30 86 L27 104 L24 115 L22 125 L21 133 L20 140 L20 145 L21 150 L26 154 L30 155 L38 155 L45 153 L53 147 L59 138 L64 123 L66 108 L68 90 L68 75 L68 62 L68 54 L69 41 L69 30 L70 20 L70 15 L71 11 L73 9 L76 5 L80 3 L86 1 L91 0 L96 0 L98 0 L101 7 L101 26 L98 45 L93 64 L88 85 L84 98 L82 108 L80 119 L80 128 L80 137 L80 144 L80 151 L81 155 L82 158 L84 160 L87 161 L91 163 L95 163 L99 163 L106 161 L111 157 L115 150 L118 140 L120 131 L120 120 L120 108 L118 94 L116 84 L116 77 L116 70 L116 60 L116 52 L119 43 L121 38 L125 31 L129 24 L135 19 L142 15 L148 12 L152 12 L157 13 L163 17 L166 26 L167 40 L167 55 L160 69 L152 81 L146 89 L141 95 L139 101 L138 110 L138 126 L138 136 L138 144 L140 151 L142 157 L145 160 L148 162 L151 162 L155 162 L160 159 L164 152 L168 145 L170 138 L170 133 L170 128 L170 123 L168 117 L167 112 L166 107 L166 103 L166 97 L166 91 L168 85 L171 78 L174 74 L177 71 L179 67 L182 63 L186 59 L190 55 L195 53 L202 53 L206 54 L208 64 L208 81 L202 100 L198 113 L193 129 L190 137 L190 140 L190 142 L190 143 L193 145 L196 146 L199 145 L205 139 L211 131 L215 125 L216 120 L217 114 L217 109 L218 106 L218 104 L219 102 L221 102 " fill="none" stroke="black" /></svg>