<?xml version="1.0" encoding="utf-8" ?>
<svg baseProfile="tiny" height="449" version="1.2" viewBox="-3 -3 666 449" width="666" xmlns="http://www.w3.org/2000/svg" xmlns:ev="http://www.w3.org/2001/xml-events" xmlns:xlink="http://www.w3.org/1999/xlink"><defs /><path d="M0 382 L6 357 L17 333 L28 325 L38 352 L49 402 L55 431 L58 439 L58 434 L61 400 L66 380 L73 378 L79 407 L84 441 L85 449 L85 447 L85 404 L89 336 L97 306 L107 320 L117 389 L123 432 L125 448 L126 441 L128 380 L134 338 L140 325 L144 354 L147 384 L148 396 L148 397 L148 359 L150 336 L152 331 L155 358 L155 387 L155 404 L156 406 L161 361 L167 326 L169 316 L171 325 L174 351 L175 362 L176 363 L182 329 L194 279 L202 264 L210 277 L219 314 L227 342 L229 345 L237 299 L247 230 L251 207 L254 206 L258 228 L260 243 L262 244 L270 213 L278 183 L282 171 L285 176 L292 202 L296 213 L297 215 L302 197 L307 180 L311 175 L317 187 L325 210 L329 216 L333 206 L340 180 L345 168 L349 166 L361 182 L368 193 L372 196 L377 185 L383 163 L386 150 L388 150 L393 160 L396 167 L398 170 L399 165 L405 128 L409 98 L412 94 L417 104 L421 114 L422 117 L423 117 L425 102 L429 81 L431 79 L434 92 L437 107 L438 112 L441 109 L453 86 L460 72 L465 69 L471 72 L476 77 L479 79 L480 79 L481 77 L483 73 L484 70 L485 69 L486 68 L488 68 L490 68 L490 49 L493 17 L496 0 L504 5 L521 30 L531 44 L535 49 L536 49 L542 36 L549 30 L560 36 L572 53 L577 60 L579 62 L581 56 L589 30 L594 15 L599 11 L607 20 L613 34 L617 45 L619 47 L624 35 L630 20 L636 15 L643 24 L650 37 L652 39 L653 39 L658 24 L661 10 L662 5 L664 5 L666 6 L665 6 " fill="none" stroke="black" /></svg>