<?xml version="1.0" encoding="utf-8" ?>
<svg baseProfile="tiny" height="728" version="1.2" viewBox="-3 -3 509 728" width="509" xmlns="http://www.w3.org/2000/svg" xmlns:ev="http://www.w3.org/2001/xml-events" xmlns:xlink="http://www.w3.org/1999/xlink"><defs /><path d="M308 301 L240 269 L203 267 L192 286 L217 332 L285 392 L365 483 L381 561 L364 643 L308 702 L242 728 L167 699 L139 593 L157 486 L211 425 L272 400 L315 409 L339 440 L365 480 L388 501 L417 516 L454 521 L479 515 L501 491 L509 414 L505 279 L482 99 L437 22 L310 0 L213 50 L159 129 L166 219 L230 302 L296 372 L338 429 L368 501 L381 559 L381 589 L367 614 L339 641 L310 662 L292 670 L271 671 L224 639 L167 602 L118 562 L91 518 L89 476 L103 454 L152 445 L189 471 L213 507 L230 534 L245 548 L261 553 L275 540 L277 477 L255 373 L219 292 L189 262 L147 254 L98 264 L47 301 L31 348 L43 415 L96 481 L179 542 L257 588 L308 622 L320 632 L321 636 L299 645 L235 655 L122 653 L44 628 L22 617 L17 613 L15 611 L11 608 L5 598 L0 573 L10 536 L50 505 L133 497 L193 513 L233 526 L263 530 L290 525 L302 510 L306 488 L300 447 L278 409 L250 390 L205 383 L167 386 L148 402 L141 422 L151 449 L193 496 L238 551 L250 579 L255 605 L243 630 L217 664 L187 697 L156 715 L110 723 L79 711 L55 685 L43 640 L45 579 L68 540 L122 527 L180 534 L225 550 L261 561 L287 562 L308 558 L331 547 L348 535 L359 524 L370 495 L378 465 L393 446 L426 441 L453 450 L465 465 L468 498 L451 540 L425 581 L393 619 L362 648 L318 677 L280 694 L250 699 L218 683 L185 620 L175 508 L215 442 L280 401 L360 380 L403 373 L426 365 L436 349 L438 324 L436 299 L431 291 L427 288 L424 286 L400 282 " fill="none" stroke="black" /></svg>