<?xml version="1.0" encoding="utf-8" ?>
<svg baseProfile="tiny" height="275" version="1.2" viewBox="-3 -3 275 275" width="275" xmlns="http://www.w3.org/2000/svg" xmlns:ev="http://www.w3.org/2001/xml-events" xmlns:xlink="http://www.w3.org/1999/xlink"><defs /><path d="M234 102 L231 96 L225 87 L221 82 L215 76 L210 69 L205 63 L200 57 L193 50 L186 46 L180 42 L173 39 L166 37 L156 35 L147 33 L136 32 L127 31 L119 31 L112 31 L106 31 L100 31 L93 32 L87 34 L82 37 L76 41 L72 45 L67 49 L61 55 L55 64 L50 71 L45 78 L41 85 L39 91 L38 101 L38 114 L38 127 L38 139 L40 150 L42 160 L45 172 L47 180 L50 186 L52 191 L56 198 L59 204 L68 214 L73 220 L80 227 L86 232 L91 237 L96 242 L102 247 L109 251 L116 255 L123 259 L134 263 L142 266 L153 269 L164 272 L174 274 L183 275 L189 275 L197 275 L205 275 L216 273 L223 270 L230 266 L236 262 L244 256 L251 249 L259 239 L262 233 L264 227 L267 219 L270 208 L271 198 L273 190 L274 177 L275 168 L275 159 L275 149 L275 140 L273 133 L269 122 L264 110 L258 98 L251 88 L245 78 L234 66 L224 55 L215 45 L209 38 L200 30 L190 24 L179 18 L171 14 L162 11 L154 8 L147 5 L142 4 L140 3 L131 3 L121 2 L114 1 L105 0 L98 0 L90 0 L83 0 L77 0 L74 0 L70 1 L65 2 L59 3 L53 4 L47 6 L40 9 L34 13 L28 17 L23 23 L19 28 L15 34 L10 43 L7 51 L4 62 L3 71 L1 79 L1 85 L0 90 L0 96 L0 102 L0 108 L0 113 L0 117 L0 121 L0 126 L2 132 L3 139 L4 144 L5 148 L7 153 L8 159 L10 165 L11 172 L13 180 L16 187 L19 193 L22 199 L24 203 L27 207 L28 209 " fill="none" stroke="black" /></svg>