<?xml version="1.0" encoding="utf-8" ?>
<svg baseProfile="tiny" height="500" version="1.2" viewBox="-3 -3 463 500" width="463" xmlns="http://www.w3.org/2000/svg" xmlns:ev="http://www.w3.org/2001/xml-events" xmlns:xlink="http://www.w3.org/1999/xlink"><defs /><path d="M0 237 L9 233 L16 229 L24 223 L26 220 L28 218 L29 213 L32 207 L35 201 L38 195 L40 191 L41 189 L43 186 L45 183 L47 180 L50 177 L53 172 L58 166 L63 161 L70 156 L76 152 L80 151 L88 149 L97 146 L106 143 L113 139 L118 135 L121 131 L124 127 L126 123 L128 120 L130 119 L130 118 L130 114 L130 98 L130 86 L132 77 L133 73 L135 70 L137 67 L144 60 L150 55 L158 50 L167 45 L177 42 L187 40 L201 38 L212 36 L222 32 L229 27 L235 21 L239 16 L245 7 L251 3 L257 1 L262 0 L266 0 L270 5 L274 18 L277 29 L278 41 L278 49 L278 55 L276 61 L274 67 L271 76 L270 84 L270 94 L270 105 L272 120 L276 137 L280 159 L284 179 L288 197 L291 212 L295 228 L298 238 L302 248 L305 253 L309 260 L312 266 L317 277 L321 287 L325 298 L327 307 L330 318 L334 328 L336 339 L337 349 L337 363 L337 374 L339 387 L343 405 L351 430 L358 452 L363 466 L368 476 L374 483 L384 492 L392 497 L402 500 L410 499 L417 493 L423 483 L425 464 L423 446 L414 431 L406 419 L399 406 L394 389 L390 376 L389 358 L392 344 L401 330 L410 318 L424 308 L434 300 L442 290 L445 281 L446 270 L446 255 L446 227 L446 203 L446 186 L447 179 L447 178 L445 165 L441 152 L437 139 L434 132 L433 127 L433 121 L433 109 L435 99 L438 90 L442 82 L445 78 L449 74 L450 70 L452 63 L452 54 L452 45 L453 41 L453 40 L454 39 L455 37 L458 36 L461 35 L462 35 L463 35 " fill="none" stroke="black" /></svg>