<?xml version="1.0" encoding="utf-8" ?>
<svg baseProfile="tiny" height="441" version="1.2" viewBox="-3 -3 515 441" width="515" xmlns="http://www.w3.org/2000/svg" xmlns:ev="http://www.w3.org/2001/xml-events" xmlns:xlink="http://www.w3.org/1999/xlink"><defs /><path d="M97 81 L106 80 L117 73 L128 62 L140 52 L149 47 L158 47 L162 50 L164 64 L164 72 L164 79 L166 84 L172 88 L183 91 L198 92 L207 87 L216 77 L228 65 L238 59 L248 57 L255 58 L261 67 L265 77 L267 86 L268 99 L268 113 L269 127 L271 135 L274 138 L282 141 L294 143 L308 142 L315 135 L325 120 L337 101 L347 87 L356 78 L368 73 L379 73 L387 81 L392 98 L393 127 L393 152 L395 168 L398 178 L404 185 L412 191 L421 195 L433 196 L444 193 L457 183 L467 165 L476 148 L481 137 L486 130 L490 125 L494 123 L499 123 L508 131 L513 151 L515 174 L515 199 L512 228 L502 263 L485 302 L473 327 L460 341 L442 349 L421 353 L394 354 L371 353 L352 350 L343 348 L337 345 L332 342 L330 340 L329 338 L327 335 L325 330 L323 322 L321 313 L320 301 L319 294 L318 290 L317 287 L316 281 L313 270 L305 257 L292 240 L272 224 L250 214 L223 208 L188 208 L162 222 L140 249 L131 277 L126 304 L125 328 L125 345 L126 364 L131 380 L134 391 L137 401 L140 410 L142 417 L144 426 L144 431 L138 435 L130 438 L121 440 L116 441 L113 441 L110 440 " fill="none" stroke="black" /><path d="M97 81 L106 80 L117 73 L128 62 L140 52 L149 47 L158 47 L162 50 L164 64 L164 72 L164 79 L166 84 L172 88 L183 91 L198 92 L207 87 L216 77 L228 65 L238 59 L248 57 L255 58 L261 67 L265 77 L267 86 L268 99 L268 113 L269 127 L271 135 L274 138 L282 141 L294 143 L308 142 L315 135 L325 120 L337 101 L347 87 L356 78 L368 73 L379 73 L387 81 L392 98 L393 127 L393 152 L395 168 L398 178 L404 185 L412 191 L421 195 L433 196 L444 193 L457 183 L467 165 L476 148 L481 137 L486 130 L490 125 L494 123 L499 123 L508 131 L513 151 L515 174 L515 199 L512 228 L502 263 L485 302 L473 327 L460 341 L442 349 L421 353 L394 354 L371 353 L352 350 L343 348 L337 345 L332 342 L330 340 L329 338 L327 335 L325 330 L323 322 L321 313 L320 301 L319 294 L318 290 L317 287 L316 281 L313 270 L305 257 L292 240 L272 224 L250 214 L223 208 L188 208 L162 222 L140 249 L131 277 L126 304 L125 328 L125 345 L126 364 L131 380 L134 391 L137 401 L140 410 L142 417 L144 426 L144 431 L138 435 L130 438 L121 440 L116 441 L113 441 L110 440 M16 272 L10 270 L3 262 L0 249 L2 223 L14 208 L28 201 L43 200 L56 200 L72 202 L85 203 L100 196 L111 184 L120 165 L125 144 L127 129 L133 117 L150 102 L170 100 L191 106 L206 117 L217 124 L228 126 L242 126 L266 109 L282 90 L294 66 L301 40 L306 19 L311 10 L320 2 L328 0 L340 0 L349 0 L356 2 L360 4 L362 6 " fill="none" stroke="black" /></svg>