<?xml version="1.0" encoding="utf-8" ?>
<svg baseProfile="tiny" height="120" version="1.2" viewBox="-3 -3 645 120" width="645" xmlns="http://www.w3.org/2000/svg" xmlns:ev="http://www.w3.org/2001/xml-events" xmlns:xlink="http://www.w3.org/1999/xlink"><defs /><path d="M255 73 L258 71 L260 76 L263 87 L265 92 L266 90 L267 84 L268 81 " fill="none" stroke="black" /><path d="M255 73 L258 71 L260 76 L263 87 L265 92 L266 90 L267 84 L268 81 M0 67 L7 67 L16 67 L25 67 L37 69 L43 69 L47 70 L54 72 L61 74 L68 75 L75 77 L79 77 L83 77 L86 77 L93 77 L100 77 L108 77 L115 77 L120 77 L124 77 L128 77 L131 77 L138 78 L147 80 L161 83 L174 85 L184 85 L194 84 L206 73 L212 65 L215 64 L217 66 L220 72 L226 74 L235 63 L244 56 L251 77 L258 93 L265 95 L271 83 L276 77 L282 79 L288 80 L293 79 L298 76 L304 80 L311 87 L319 90 L324 83 L327 79 L329 79 L331 80 L336 81 L345 81 L355 83 L366 85 L378 87 L385 87 L389 87 L393 87 L398 87 L403 87 L409 87 L413 87 L419 87 L423 87 L425 87 L431 87 L439 87 L445 87 L452 87 L458 87 L463 87 L469 87 L473 87 L478 87 L484 86 L491 86 L498 86 L508 86 L515 86 L521 86 L527 86 L530 86 L532 86 L533 86 L534 86 L536 86 L539 86 L541 86 L544 86 L547 86 L548 86 L549 85 L550 85 L551 85 L552 84 L553 84 L553 82 L555 72 L557 62 L558 60 L559 60 L561 64 L564 68 L565 69 L566 69 L567 68 L569 67 L574 72 L581 81 L588 84 L595 73 L603 56 L609 54 L618 74 L622 86 L624 89 L626 89 L629 86 L633 81 L637 76 L638 74 L640 74 L645 73 " fill="none" stroke="black" /><circle cx="194" cy="112" fill="black" r="1" /><circle cx="286" cy="56" fill="black" r="1" /><path d="M255 73 L258 71 L260 76 L263 87 L265 92 L266 90 L267 84 L268 81 M0 67 L7 67 L16 67 L25 67 L37 69 L43 69 L47 70 L54 72 L61 74 L68 75 L75 77 L79 77 L83 77 L86 77 L93 77 L100 77 L108 77 L115 77 L120 77 L124 77 L128 77 L131 77 L138 78 L147 80 L161 83 L174 85 L184 85 L194 84 L206 73 L212 65 L215 64 L217 66 L220 72 L226 74 L235 63 L244 56 L251 77 L258 93 L265 95 L271 83 L276 77 L282 79 L288 80 L293 79 L298 76 L304 80 L311 87 L319 90 L324 83 L327 79 L329 79 L331 80 L336 81 L345 81 L355 83 L366 85 L378 87 L385 87 L389 87 L393 87 L398 87 L403 87 L409 87 L413 87 L419 87 L423 87 L425 87 L431 87 L439 87 L445 87 L452 87 L458 87 L463 87 L469 87 L473 87 L478 87 L484 86 L491 86 L498 86 L508 86 L515 86 L521 86 L527 86 L530 86 L532 86 L533 86 L534 86 L536 86 L539 86 L541 86 L544 86 L547 86 L548 86 L549 85 L550 85 L551 85 L552 84 L553 84 L553 82 L555 72 L557 62 L558 60 L559 60 L561 64 L564 68 L565 69 L566 69 L567 68 L569 67 L574 72 L581 81 L588 84 L595 73 L603 56 L609 54 L618 74 L622 86 L624 89 L626 89 L629 86 L633 81 L637 76 L638 74 L640 74 L645 73 M286 110 L288 110 " fill="none" stroke="black" /><path d="M255 73 L258 71 L260 76 L263 87 L265 92 L266 90 L267 84 L268 81 M0 67 L7 67 L16 67 L25 67 L37 69 L43 69 L47 70 L54 72 L61 74 L68 75 L75 77 L79 77 L83 77 L86 77 L93 77 L100 77 L108 77 L115 77 L120 77 L124 77 L128 77 L131 77 L138 78 L147 80 L161 83 L174 85 L184 85 L194 84 L206 73 L212 65 L215 64 L217 66 L220 72 L226 74 L235 63 L244 56 L251 77 L258 93 L265 95 L271 83 L276 77 L282 79 L288 80 L293 79 L298 76 L304 80 L311 87 L319 90 L324 83 L327 79 L329 79 L331 80 L336 81 L345 81 L355 83 L366 85 L378 87 L385 87 L389 87 L393 87 L398 87 L403 87 L409 87 L413 87 L419 87 L423 87 L425 87 L431 87 L439 87 L445 87 L452 87 L458 87 L463 87 L469 87 L473 87 L478 87 L484 86 L491 86 L498 86 L508 86 L515 86 L521 86 L527 86 L530 86 L532 86 L533 86 L534 86 L536 86 L539 86 L541 86 L544 86 L547 86 L548 86 L549 85 L550 85 L551 85 L552 84 L553 84 L553 82 L555 72 L557 62 L558 60 L559 60 L561 64 L564 68 L565 69 L566 69 L567 68 L569 67 L574 72 L581 81 L588 84 L595 73 L603 56 L609 54 L618 74 L622 86 L624 89 L626 89 L629 86 L633 81 L637 76 L638 74 L640 74 L645 73 M286 110 L288 110 M378 113 L378 110 " fill="none" stroke="black" /><path d="M255 73 L258 71 L260 76 L263 87 L265 92 L266 90 L267 84 L268 81 M0 67 L7 67 L16 67 L25 67 L37 69 L43 69 L47 70 L54 72 L61 74 L68 75 L75 77 L79 77 L83 77 L86 77 L93 77 L100 77 L108 77 L115 77 L120 77 L124 77 L128 77 L131 77 L138 78 L147 80 L161 83 L174 85 L184 85 L194 84 L206 73 L212 65 L215 64 L217 66 L220 72 L226 74 L235 63 L244 56 L251 77 L258 93 L265 95 L271 83 L276 77 L282 79 L288 80 L293 79 L298 76 L304 80 L311 87 L319 90 L324 83 L327 79 L329 79 L331 80 L336 81 L345 81 L355 83 L366 85 L378 87 L385 87 L389 87 L393 87 L398 87 L403 87 L409 87 L413 87 L419 87 L423 87 L425 87 L431 87 L439 87 L445 87 L452 87 L458 87 L463 87 L469 87 L473 87 L478 87 L484 86 L491 86 L498 86 L508 86 L515 86 L521 86 L527 86 L530 86 L532 86 L533 86 L534 86 L536 86 L539 86 L541 86 L544 86 L547 86 L548 86 L549 85 L550 85 L551 85 L552 84 L553 84 L553 82 L555 72 L557 62 L558 60 L559 60 L561 64 L564 68 L565 69 L566 69 L567 68 L569 67 L574 72 L581 81 L588 84 L595 73 L603 56 L609 54 L618 74 L622 86 L624 89 L626 89 L629 86 L633 81 L637 76 L638 74 L640 74 L645 73 M286 110 L288 110 M378 113 L378 110 M377 0 L377 4 " fill="none" stroke="black" /><path d="M255 73 L258 71 L260 76 L263 87 L265 92 L266 90 L267 84 L268 81 M0 67 L7 67 L16 67 L25 67 L37 69 L43 69 L47 70 L54 72 L61 74 L68 75 L75 77 L79 77 L83 77 L86 77 L93 77 L100 77 L108 77 L115 77 L120 77 L124 77 L128 77 L131 77 L138 78 L147 80 L161 83 L174 85 L184 85 L194 84 L206 73 L212 65 L215 64 L217 66 L220 72 L226 74 L235 63 L244 56 L251 77 L258 93 L265 95 L271 83 L276 77 L282 79 L288 80 L293 79 L298 76 L304 80 L311 87 L319 90 L324 83 L327 79 L329 79 L331 80 L336 81 L345 81 L355 83 L366 85 L378 87 L385 87 L389 87 L393 87 L398 87 L403 87 L409 87 L413 87 L419 87 L423 87 L425 87 L431 87 L439 87 L445 87 L452 87 L458 87 L463 87 L469 87 L473 87 L478 87 L484 86 L491 86 L498 86 L508 86 L515 86 L521 86 L527 86 L530 86 L532 86 L533 86 L534 86 L536 86 L539 86 L541 86 L544 86 L547 86 L548 86 L549 85 L550 85 L551 85 L552 84 L553 84 L553 82 L555 72 L557 62 L558 60 L559 60 L561 64 L564 68 L565 69 L566 69 L567 68 L569 67 L574 72 L581 81 L588 84 L595 73 L603 56 L609 54 L618 74 L622 86 L624 89 L626 89 L629 86 L633 81 L637 76 L638 74 L640 74 L645 73 M286 110 L288 110 M378 113 L378 110 M377 0 L377 4 M424 98 L425 98 L424 98 " fill="none" stroke="black" /><path d="M255 73 L258 71 L260 76 L263 87 L265 92 L266 90 L267 84 L268 81 M0 67 L7 67 L16 67 L25 67 L37 69 L43 69 L47 70 L54 72 L61 74 L68 75 L75 77 L79 77 L83 77 L86 77 L93 77 L100 77 L108 77 L115 77 L120 77 L124 77 L128 77 L131 77 L138 78 L147 80 L161 83 L174 85 L184 85 L194 84 L206 73 L212 65 L215 64 L217 66 L220 72 L226 74 L235 63 L244 56 L251 77 L258 93 L265 95 L271 83 L276 77 L282 79 L288 80 L293 79 L298 76 L304 80 L311 87 L319 90 L324 83 L327 79 L329 79 L331 80 L336 81 L345 81 L355 83 L366 85 L378 87 L385 87 L389 87 L393 87 L398 87 L403 87 L409 87 L413 87 L419 87 L423 87 L425 87 L431 87 L439 87 L445 87 L452 87 L458 87 L463 87 L469 87 L473 87 L478 87 L484 86 L491 86 L498 86 L508 86 L515 86 L521 86 L527 86 L530 86 L532 86 L533 86 L534 86 L536 86 L539 86 L541 86 L544 86 L547 86 L548 86 L549 85 L550 85 L551 85 L552 84 L553 84 L553 82 L555 72 L557 62 L558 60 L559 60 L561 64 L564 68 L565 69 L566 69 L567 68 L569 67 L574 72 L581 81 L588 84 L595 73 L603 56 L609 54 L618 74 L622 86 L624 89 L626 89 L629 86 L633 81 L637 76 L638 74 L640 74 L645 73 M286 110 L288 110 M378 113 L378 110 M377 0 L377 4 M424 98 L425 98 L424 98 M408 120 L407 120 L406 120 L400 120 " fill="none" stroke="black" /><circle cx="340" cy="119" fill="black" r="1" /><circle cx="363" cy="41" fill="black" r="1" /></svg>