<?xml version="1.0" encoding="utf-8" ?>
<svg baseProfile="tiny" height="424" version="1.2" viewBox="-3 -3 564 424" width="564" xmlns="http://www.w3.org/2000/svg" xmlns:ev="http://www.w3.org/2001/xml-events" xmlns:xlink="http://www.w3.org/1999/xlink"><defs /><path d="M55 352 L41 342 L26 323 L17 307 L12 293 L4 264 L1 248 L0 234 L0 214 L2 195 L8 180 L20 159 L34 135 L47 120 L64 109 L85 101 L106 95 L120 93 L139 92 L155 93 L171 100 L188 111 L214 132 L223 143 L233 159 L238 175 L242 200 L244 220 L245 237 L245 254 L242 267 L234 276 L219 284 L204 288 L186 290 L166 290 L146 289 L123 280 L109 265 L96 242 L90 222 L86 197 L86 168 L91 142 L100 125 L119 103 L140 84 L162 71 L184 64 L206 65 L225 77 L242 95 L257 117 L267 143 L274 167 L277 190 L278 205 L273 216 L261 225 L245 232 L221 234 L189 226 L168 205 L157 177 L155 133 L167 97 L185 73 L216 50 L266 37 L299 37 L320 52 L331 79 L334 116 L337 157 L337 197 L330 216 L318 227 L299 230 L276 230 L249 219 L229 196 L218 144 L224 89 L261 36 L310 4 L360 0 L397 19 L427 66 L436 102 L435 132 L425 154 L407 171 L383 182 L345 186 L320 175 L306 157 L300 134 L305 104 L332 67 L385 38 L429 41 L465 71 L489 109 L501 154 L504 200 L499 243 L482 268 L455 282 L422 292 L388 296 L360 279 L351 230 L355 197 L377 177 L423 168 L488 178 L531 212 L547 245 L554 302 L555 362 L546 384 L528 395 L498 397 L470 393 L434 372 L413 350 L405 319 L414 288 L445 267 L495 262 L531 269 L554 289 L561 312 L564 346 L564 379 L556 401 L543 413 L515 423 L475 424 L436 413 L412 400 L396 385 L389 362 L388 328 L397 306 L408 298 L419 298 L427 300 L431 303 L431 304 " fill="none" stroke="black" /></svg>