<?xml version="1.0" encoding="utf-8" ?>
<svg baseProfile="tiny" height="165" version="1.2" viewBox="-3 -3 451 165" width="451" xmlns="http://www.w3.org/2000/svg" xmlns:ev="http://www.w3.org/2001/xml-events" xmlns:xlink="http://www.w3.org/1999/xlink"><defs /><path d="M65 42 L64 42 L77 33 L88 27 L89 29 L79 38 L76 41 L99 33 L126 28 L97 85 L27 148 L0 165 L75 116 L134 98 L148 110 L103 144 L79 154 L180 68 L223 44 L245 36 L144 90 L114 101 L171 56 L260 12 L308 0 L226 57 L181 77 L164 82 L275 22 L317 6 L259 45 L180 89 L144 108 L191 93 L260 69 L286 69 L222 113 L186 132 L184 137 L237 116 L258 110 L245 119 L226 128 L227 130 L288 101 L316 91 L319 93 L290 107 L282 111 L342 82 L378 66 L393 61 L336 95 L306 109 L324 98 L385 68 L411 58 L372 83 L324 110 L299 123 L366 98 L401 85 L416 82 L363 115 L342 127 L352 126 L400 110 L415 108 L363 139 L340 151 L351 149 L410 126 L441 118 L410 136 L386 147 L387 149 L429 133 L450 127 L434 135 L416 142 L413 143 L436 138 L451 137 " fill="none" stroke="black" /></svg>