<?xml version="1.0" encoding="utf-8" ?>
<svg baseProfile="tiny" height="381" version="1.2" viewBox="-3 -3 766 381" width="766" xmlns="http://www.w3.org/2000/svg" xmlns:ev="http://www.w3.org/2001/xml-events" xmlns:xlink="http://www.w3.org/1999/xlink"><defs /><path d="M766 77 L739 28 L719 9 L698 3 L675 0 L649 0 L634 0 L612 5 L592 15 L563 35 L541 57 L521 74 L509 83 L505 87 L502 90 L498 96 L493 101 L484 109 L464 123 L453 127 L445 129 L444 129 L443 129 L429 123 L400 112 L368 98 L333 78 L308 60 L290 46 L279 38 L267 29 L248 18 L231 12 L212 10 L196 10 L173 15 L154 27 L143 37 L137 36 L126 31 L103 27 L66 26 L40 26 L25 32 L18 45 L10 62 L5 77 L1 93 L0 113 L0 141 L1 165 L4 191 L6 212 L7 234 L7 259 L8 295 L11 331 L15 357 L18 372 L23 378 L47 381 L96 372 L134 348 L153 330 L164 315 L170 303 L174 290 L178 262 L178 240 L178 223 L179 212 L189 199 L204 185 L215 179 L222 178 L225 187 L225 214 L221 245 L215 264 L213 284 L216 301 L227 314 L241 324 L252 329 L262 332 L274 332 L284 328 L290 315 L292 283 L291 239 L290 210 L292 184 L300 169 L315 157 L329 153 L339 153 L346 158 L348 168 L348 181 L348 205 L348 236 L345 270 L341 287 L339 305 L339 324 L339 336 L340 348 L343 353 L350 357 L360 359 L370 358 L378 351 L384 342 L388 330 L391 306 L393 275 L393 249 L393 220 L407 192 L427 173 L450 163 L471 165 L488 185 L496 223 L492 278 L484 307 L478 333 L477 351 L480 361 L490 367 L511 373 L524 376 L533 376 L538 374 L541 365 L545 346 L545 323 L546 306 L550 285 L554 271 L558 262 L564 257 L572 252 L577 251 L581 251 L584 251 L586 253 L587 254 L588 254 L588 255 " fill="none" stroke="black" /></svg>