<?xml version="1.0" encoding="utf-8" ?>
<svg baseProfile="tiny" height="404" version="1.2" viewBox="-3 -3 856 404" width="856" xmlns="http://www.w3.org/2000/svg" xmlns:ev="http://www.w3.org/2001/xml-events" xmlns:xlink="http://www.w3.org/1999/xlink"><defs /><path d="M0 218 L4 246 L4 282 L4 309 L5 334 L9 353 L17 367 L28 379 L34 383 L37 383 L38 383 L39 382 L41 380 L43 379 L44 378 L45 377 L45 374 L43 354 L35 306 L28 234 L26 165 L26 103 L30 50 L38 11 L41 2 L42 1 L42 0 L45 6 L54 52 L60 119 L63 177 L65 234 L68 269 L71 289 L73 300 L73 302 L73 303 L74 304 L74 305 L74 303 L75 285 L89 170 L100 102 L112 49 L119 42 L127 64 L132 124 L133 173 L133 195 L133 203 L133 204 L133 205 L133 207 L134 197 L153 128 L180 71 L195 52 L200 50 L206 86 L221 203 L233 267 L238 286 L239 288 L240 282 L253 179 L273 66 L281 31 L284 29 L290 74 L300 198 L309 288 L314 328 L316 335 L316 289 L321 223 L329 185 L337 176 L358 181 L377 236 L394 310 L402 346 L407 361 L409 361 L417 300 L432 197 L440 140 L444 116 L447 117 L455 149 L460 246 L463 305 L466 346 L468 360 L470 364 L470 366 L470 367 L470 362 L470 280 L470 202 L473 166 L476 157 L479 156 L480 156 L482 165 L488 219 L494 264 L497 288 L500 303 L500 311 L500 314 L508 280 L527 203 L543 137 L549 121 L551 120 L560 142 L581 218 L599 302 L605 341 L607 352 L607 353 L607 351 L606 284 L603 159 L601 58 L601 33 L604 28 L605 30 L614 81 L630 201 L647 324 L653 358 L657 375 L660 383 L663 388 L665 391 L667 392 L691 395 L734 400 L774 404 L808 404 L825 403 L834 399 L840 397 L843 396 L846 393 L848 390 L852 385 L855 379 L856 378 " fill="none" stroke="black" /></svg>