<?xml version="1.0" encoding="utf-8" ?>
<svg baseProfile="tiny" height="154" version="1.2" viewBox="-3 -3 923 154" width="923" xmlns="http://www.w3.org/2000/svg" xmlns:ev="http://www.w3.org/2001/xml-events" xmlns:xlink="http://www.w3.org/1999/xlink"><defs /><path d="M0 93 L7 89 L17 85 L26 84 L36 84 L39 84 L41 87 L45 94 L49 105 L53 116 L55 122 L56 123 L57 123 L57 121 L58 115 L64 101 L72 90 L81 82 L87 78 L95 78 L103 79 L112 88 L117 96 L122 107 L125 115 L126 121 L128 124 L128 126 L128 121 L128 103 L129 86 L133 76 L138 69 L146 64 L154 60 L163 58 L168 58 L174 63 L181 69 L189 80 L195 94 L198 99 L199 91 L204 81 L212 67 L222 57 L231 51 L238 48 L246 48 L251 57 L259 75 L264 90 L267 98 L268 100 L268 101 L268 102 L269 103 L269 104 L269 103 L269 97 L269 86 L274 66 L284 46 L296 34 L307 33 L318 41 L330 60 L340 82 L344 94 L346 99 L346 100 L346 101 L346 98 L351 89 L365 70 L379 53 L390 42 L397 39 L405 41 L415 57 L432 89 L453 124 L465 144 L469 154 L469 151 L474 125 L483 89 L493 61 L506 37 L517 24 L528 17 L540 19 L557 37 L568 62 L575 83 L579 93 L580 96 L580 94 L580 91 L580 83 L582 69 L592 48 L606 28 L617 17 L622 16 L633 29 L646 48 L654 69 L659 85 L661 91 L661 95 L661 92 L667 83 L679 65 L696 38 L712 22 L721 19 L728 22 L740 41 L754 64 L764 79 L766 83 L767 84 L767 82 L767 75 L767 60 L772 32 L784 13 L797 3 L807 0 L818 2 L827 13 L836 36 L842 52 L844 61 L845 64 L845 65 L845 63 L845 56 L845 42 L852 21 L858 8 L862 4 L866 4 L875 16 L893 39 L908 60 L918 85 L922 103 L923 110 " fill="none" stroke="black" /></svg>