<?xml version="1.0" encoding="utf-8" ?>
<svg baseProfile="tiny" height="180" version="1.2" viewBox="-3 -3 670 180" width="670" xmlns="http://www.w3.org/2000/svg" xmlns:ev="http://www.w3.org/2001/xml-events" xmlns:xlink="http://www.w3.org/1999/xlink"><defs /><path d="M1 0 L2 1 L3 1 L3 2 L4 2 L4 3 L4 4 L4 5 L4 6 L4 7 L4 8 L4 9 L4 11 L4 12 L3 14 L1 15 L0 16 L0 18 L0 19 L1 20 L3 22 L5 23 L9 23 L14 23 L22 23 L32 23 L44 23 L56 23 L66 23 L70 23 L71 24 L71 25 L71 27 L69 31 L64 35 L58 41 L54 45 L52 48 L51 50 L51 51 L52 52 L57 52 L66 53 L79 53 L96 53 L112 52 L128 52 L145 51 L159 52 L167 54 L170 55 L170 57 L170 58 L166 61 L159 66 L151 72 L145 76 L142 78 L141 79 L141 80 L151 80 L169 79 L194 77 L217 76 L240 75 L259 74 L267 74 L272 74 L277 73 L273 75 L268 80 L260 86 L256 90 L253 92 L253 93 L252 94 L256 94 L267 94 L284 94 L308 94 L335 92 L367 91 L390 90 L403 90 L409 90 L411 90 L410 92 L397 99 L379 109 L363 118 L349 127 L341 132 L336 134 L335 135 L341 135 L359 132 L401 124 L442 115 L485 106 L507 102 L522 100 L526 99 L527 99 L519 102 L504 108 L488 114 L474 120 L461 126 L454 130 L447 135 L439 140 L432 145 L429 147 L428 148 L435 148 L461 143 L503 138 L541 133 L591 125 L621 119 L639 114 L653 111 L661 109 L664 109 L651 113 L622 123 L586 138 L549 154 L516 168 L501 174 L491 178 L488 180 L487 180 L497 179 L520 175 L548 170 L588 163 L616 158 L646 154 L660 152 L667 151 L670 151 L666 151 L654 154 L640 158 L628 162 L617 165 L613 167 L611 168 L612 168 " fill="none" stroke="black" /></svg>