<?xml version="1.0" encoding="utf-8" ?>
<svg baseProfile="tiny" height="28" version="1.2" viewBox="-3 -3 770 28" width="770" xmlns="http://www.w3.org/2000/svg" xmlns:ev="http://www.w3.org/2001/xml-events" xmlns:xlink="http://www.w3.org/1999/xlink"><defs /><path d="M0 17 L1 16 L6 14 L14 14 L25 19 L34 24 L41 27 L46 28 L50 28 L54 25 L61 20 L67 15 L73 12 L77 12 L81 12 L90 17 L98 22 L105 24 L112 25 L121 25 L137 22 L140 21 L145 21 L155 16 L171 9 L185 3 L198 3 L212 9 L226 17 L241 21 L263 21 L279 17 L295 9 L308 6 L325 8 L339 14 L340 14 L340 13 L345 14 L355 16 L372 19 L386 22 L396 22 L400 22 L402 20 L408 14 L417 9 L433 9 L449 11 L471 16 L489 16 L502 10 L509 3 L513 1 L519 1 L528 5 L543 11 L562 13 L581 13 L585 13 L587 13 L588 13 L591 12 L596 8 L604 3 L610 0 L617 0 L627 3 L638 6 L651 6 L665 6 L673 4 L679 4 L686 4 L696 3 L712 1 L726 1 L741 1 L755 2 L770 2 " fill="none" stroke="black" /></svg>