<?xml version="1.0" encoding="utf-8" ?>
<svg baseProfile="tiny" height="114" version="1.2" viewBox="-3 -3 739 114" width="739" xmlns="http://www.w3.org/2000/svg" xmlns:ev="http://www.w3.org/2001/xml-events" xmlns:xlink="http://www.w3.org/1999/xlink"><defs /><path d="M0 84 L0 83 L1 78 L5 72 L9 64 L12 57 L15 51 L17 47 L18 47 L18 48 L20 57 L25 76 L29 88 L31 98 L33 102 L35 104 L35 105 L35 106 L36 106 L37 106 L38 101 L43 91 L57 73 L79 42 L92 19 L100 6 L104 0 L105 0 L105 1 L105 3 L105 5 L105 9 L109 21 L114 37 L121 57 L127 72 L131 80 L132 81 L134 79 L134 70 L134 53 L135 37 L136 29 L137 29 L138 34 L144 47 L160 76 L174 99 L185 111 L191 114 L193 114 L194 108 L197 99 L203 83 L213 62 L226 36 L233 22 L237 14 L240 9 L241 6 L243 3 L244 2 L244 4 L244 11 L246 21 L252 37 L259 55 L264 66 L269 75 L272 80 L273 82 L275 83 L276 83 L277 80 L280 73 L292 55 L313 26 L327 9 L331 3 L333 2 L333 7 L333 20 L334 34 L336 52 L339 69 L341 79 L342 82 L342 83 L343 83 L346 81 L358 72 L374 60 L382 54 L388 52 L389 52 L390 53 L394 62 L404 75 L415 85 L425 91 L436 92 L446 92 L460 82 L478 67 L494 52 L501 45 L504 43 L506 45 L513 62 L523 83 L536 101 L545 107 L550 108 L553 108 L554 104 L557 98 L560 90 L564 79 L567 69 L569 61 L570 57 L570 54 L570 52 L571 51 L571 52 L586 62 L602 74 L611 81 L617 85 L620 86 L624 85 L632 78 L645 63 L659 47 L669 35 L673 29 L675 28 L675 30 L675 37 L677 49 L683 63 L691 80 L696 87 L698 90 L699 90 L701 86 L706 77 L719 56 L730 39 L737 30 L739 28 " fill="none" stroke="black" /></svg>