<?xml version="1.0" encoding="utf-8" ?>
<svg baseProfile="tiny" height="314" version="1.2" viewBox="-3 -3 609 314" width="609" xmlns="http://www.w3.org/2000/svg" xmlns:ev="http://www.w3.org/2001/xml-events" xmlns:xlink="http://www.w3.org/1999/xlink"><defs /><path d="M263 128 L263 133 L263 136 L265 140 L269 144 L273 147 L277 148 L282 150 L288 151 L292 151 L295 148 L297 143 L297 137 L295 126 L291 117 L287 111 L283 108 L280 105 L275 103 L267 103 L260 104 L255 107 L250 111 L247 117 L244 121 L243 125 L243 130 L243 136 L243 144 L248 151 L255 154 L265 158 L276 161 L289 164 L305 164 L315 163 L324 159 L334 149 L342 135 L346 119 L346 107 L339 98 L323 87 L303 81 L275 80 L253 83 L233 89 L217 95 L207 100 L198 107 L189 118 L186 133 L186 152 L188 171 L198 192 L213 205 L240 218 L275 224 L319 226 L362 226 L420 219 L449 206 L467 188 L477 165 L478 136 L468 110 L434 77 L386 58 L325 50 L267 50 L211 64 L176 78 L149 93 L129 110 L115 130 L107 145 L104 164 L108 179 L125 199 L145 214 L178 225 L229 233 L290 241 L336 247 L387 249 L442 249 L495 244 L555 232 L584 210 L602 166 L608 126 L609 98 L605 75 L565 46 L489 18 L396 1 L291 0 L173 16 L112 32 L68 45 L33 59 L16 70 L6 94 L0 121 L0 156 L7 190 L26 220 L66 259 L131 291 L185 307 L239 314 L300 314 L369 308 L446 296 L509 273 L548 242 L566 215 L570 201 " fill="none" stroke="black" /></svg>