<?xml version="1.0" encoding="utf-8" ?>
<svg baseProfile="tiny" height="76" version="1.2" viewBox="-3 -3 881 76" width="881" xmlns="http://www.w3.org/2000/svg" xmlns:ev="http://www.w3.org/2001/xml-events" xmlns:xlink="http://www.w3.org/1999/xlink"><defs /><path d="M0 76 L0 75 L1 74 L4 71 L12 62 L26 47 L38 33 L45 28 L51 29 L62 40 L79 52 L91 60 L100 63 L109 61 L116 52 L124 37 L132 25 L139 20 L151 19 L160 22 L170 38 L181 54 L194 55 L216 56 L240 49 L253 38 L261 31 L264 29 L270 31 L280 45 L298 62 L312 64 L324 54 L336 31 L341 20 L351 21 L369 40 L391 51 L402 52 L404 52 L411 48 L423 37 L442 17 L452 9 L461 8 L472 28 L486 52 L499 62 L507 59 L517 41 L527 22 L537 12 L547 16 L576 52 L595 69 L608 71 L618 43 L625 14 L636 0 L656 14 L673 52 L676 52 L695 59 L721 70 L735 70 L746 54 L752 38 L757 31 L766 33 L789 55 L808 65 L824 65 L844 38 L852 14 L855 3 L861 19 L871 53 L878 68 L881 71 " fill="none" stroke="black" /></svg>