<?xml version="1.0" encoding="utf-8" ?>
<svg baseProfile="tiny" height="83" version="1.2" viewBox="-3 -3 914 83" width="914" xmlns="http://www.w3.org/2000/svg" xmlns:ev="http://www.w3.org/2001/xml-events" xmlns:xlink="http://www.w3.org/1999/xlink"><defs /><path d="M0 83 L2 80 L8 73 L16 61 L23 46 L27 36 L29 30 L29 29 L29 28 L29 29 L30 34 L33 43 L38 55 L41 62 L43 67 L45 70 L46 71 L46 72 L47 72 L47 73 L48 73 L49 73 L49 72 L50 71 L51 69 L57 64 L64 57 L72 50 L84 42 L93 36 L100 33 L105 32 L109 32 L114 35 L119 41 L126 49 L130 56 L133 62 L134 65 L135 65 L135 66 L136 66 L136 67 L137 67 L137 68 L141 65 L147 59 L153 52 L159 45 L163 40 L165 36 L167 34 L168 33 L169 33 L170 34 L172 37 L178 43 L187 50 L197 57 L204 63 L209 67 L213 70 L215 71 L217 72 L217 73 L217 74 L219 74 L229 67 L236 60 L243 54 L250 49 L256 45 L265 41 L273 40 L281 40 L289 42 L297 48 L304 54 L311 61 L314 64 L316 66 L317 66 L317 67 L318 67 L319 67 L320 67 L330 59 L347 41 L364 21 L371 16 L373 16 L376 17 L390 31 L406 45 L424 60 L431 65 L434 66 L435 63 L440 50 L451 31 L462 21 L472 19 L489 27 L511 50 L523 62 L532 68 L535 66 L552 50 L571 31 L586 16 L595 9 L603 8 L613 18 L634 36 L651 44 L670 45 L674 44 L686 35 L703 19 L711 14 L716 13 L721 16 L737 33 L753 51 L774 60 L783 58 L789 46 L794 29 L799 20 L802 18 L808 19 L815 25 L821 32 L826 36 L830 37 L832 37 L834 37 L847 25 L865 10 L878 2 L887 0 L894 3 L908 15 L914 21 " fill="none" stroke="black" /></svg>