<?xml version="1.0" encoding="utf-8" ?>
<svg baseProfile="tiny" height="114" version="1.2" viewBox="-3 -3 618 114" width="618" xmlns="http://www.w3.org/2000/svg" xmlns:ev="http://www.w3.org/2001/xml-events" xmlns:xlink="http://www.w3.org/1999/xlink"><defs /><path d="M78 24 L82 24 L86 24 L89 24 L93 23 L95 23 L98 23 L102 22 L106 22 L110 21 L114 21 L119 21 L124 20 L130 20 L142 19 L161 15 L172 14 L174 14 L184 11 L200 8 L226 5 L246 4 L266 3 L288 3 L309 3 L329 3 L353 3 L369 2 L382 1 L395 1 L405 1 L414 1 L427 1 L437 1 L447 1 L458 2 L468 3 L478 3 L490 4 L500 5 L508 5 L517 5 L527 5 L537 5 L547 5 L558 5 L565 5 L571 3 L575 2 L577 2 L579 1 L580 1 L580 0 L577 0 L566 3 L549 5 L531 7 L517 9 L496 12 L478 15 L456 20 L433 24 L408 29 L384 32 L351 37 L331 40 L314 42 L299 44 L284 46 L268 47 L244 48 L226 50 L206 52 L189 54 L172 55 L155 56 L134 57 L119 58 L109 59 L98 59 L89 60 L81 61 L72 62 L62 64 L53 66 L42 68 L31 70 L22 73 L14 75 L8 77 L3 78 L1 79 L0 79 L1 79 L5 79 L13 80 L22 81 L30 84 L37 86 L45 89 L52 91 L60 92 L68 93 L80 93 L95 93 L111 92 L131 90 L149 88 L169 85 L192 83 L217 81 L241 81 L274 82 L301 84 L328 86 L356 87 L383 89 L415 89 L439 89 L463 89 L483 89 L503 87 L523 84 L544 81 L579 76 L605 71 L617 66 L618 64 L616 66 L612 68 L609 71 L606 74 L602 77 L600 80 L596 82 L593 85 L588 87 L582 90 L576 92 L570 95 L561 98 L552 101 L540 104 L521 108 L506 110 L493 112 L483 113 L476 114 L472 114 " fill="none" stroke="black" /></svg>