<?xml version="1.0" encoding="utf-8" ?>
<svg baseProfile="tiny" height="306" version="1.2" viewBox="-3 -3 688 306" width="688" xmlns="http://www.w3.org/2000/svg" xmlns:ev="http://www.w3.org/2001/xml-events" xmlns:xlink="http://www.w3.org/1999/xlink"><defs /><path d="M36 74 L14 89 L2 102 L0 107 L5 111 L38 114 L116 118 L183 118 L224 118 L254 112 L267 110 L271 109 L272 109 L246 109 L195 113 L140 118 L107 126 L84 135 L77 140 L76 142 L81 143 L109 148 L158 151 L231 155 L286 154 L332 140 L365 117 L386 99 L399 90 L403 86 L385 81 L340 77 L276 88 L216 126 L172 160 L151 183 L147 192 L148 198 L178 204 L242 207 L349 189 L418 156 L454 130 L464 119 L466 114 L465 113 L437 117 L386 134 L322 165 L272 196 L240 218 L225 234 L221 242 L220 245 L235 250 L281 259 L339 261 L416 237 L456 208 L469 182 L474 165 L475 160 L475 159 L468 161 L438 179 L382 220 L341 257 L319 282 L308 299 L309 302 L341 305 L401 305 L447 287 L472 244 L477 215 L471 215 L464 215 L459 216 L453 222 L449 229 L445 239 L445 245 L446 251 L461 260 L479 270 L496 276 L520 278 L546 266 L575 236 L597 205 L607 187 L609 179 L606 173 L594 170 L582 170 L560 185 L543 215 L533 244 L528 265 L526 282 L527 291 L533 299 L548 305 L568 306 L595 289 L631 246 L664 190 L679 160 L687 142 L688 136 L688 134 L684 133 L673 137 L644 165 L621 195 L607 224 L601 246 L599 263 L600 274 L609 281 L623 283 L641 277 L666 239 L682 193 L686 157 L682 138 L666 117 L651 101 L635 87 L617 83 L605 85 L592 96 L583 108 L576 120 L575 130 L579 139 L590 142 L604 143 L625 135 L643 119 L657 92 L660 73 L658 53 L650 33 L637 14 L623 3 L612 0 L603 0 L592 2 L591 3 " fill="none" stroke="black" /></svg>