<?xml version="1.0" encoding="utf-8" ?>
<svg baseProfile="tiny" height="369" version="1.2" viewBox="-3 -3 669 369" width="669" xmlns="http://www.w3.org/2000/svg" xmlns:ev="http://www.w3.org/2001/xml-events" xmlns:xlink="http://www.w3.org/1999/xlink"><defs /><path d="M618 175 L606 175 L568 167 L517 158 L425 149 L312 149 L249 163 L202 179 L178 192 L172 207 L174 235 L198 265 L257 301 L316 311 L364 312 L392 312 L407 312 L413 312 L414 312 " fill="none" stroke="black" /><path d="M618 175 L606 175 L568 167 L517 158 L425 149 L312 149 L249 163 L202 179 L178 192 L172 207 L174 235 L198 265 L257 301 L316 311 L364 312 L392 312 L407 312 L413 312 L414 312 M635 214 L625 210 L584 192 L501 169 L428 161 L363 161 L327 169 L318 175 L316 183 L316 197 L328 217 L354 239 L419 263 L483 269 L535 270 L572 271 L588 274 L591 274 L592 275 " fill="none" stroke="black" /><path d="M618 175 L606 175 L568 167 L517 158 L425 149 L312 149 L249 163 L202 179 L178 192 L172 207 L174 235 L198 265 L257 301 L316 311 L364 312 L392 312 L407 312 L413 312 L414 312 M635 214 L625 210 L584 192 L501 169 L428 161 L363 161 L327 169 L318 175 L316 183 L316 197 L328 217 L354 239 L419 263 L483 269 L535 270 L572 271 L588 274 L591 274 L592 275 M669 262 L657 255 L625 240 L575 223 L510 209 L473 205 L455 204 L448 205 L448 209 L450 215 L467 226 L496 239 L530 251 L558 260 L582 269 L598 273 L610 277 " fill="none" stroke="black" /><path d="M618 175 L606 175 L568 167 L517 158 L425 149 L312 149 L249 163 L202 179 L178 192 L172 207 L174 235 L198 265 L257 301 L316 311 L364 312 L392 312 L407 312 L413 312 L414 312 M635 214 L625 210 L584 192 L501 169 L428 161 L363 161 L327 169 L318 175 L316 183 L316 197 L328 217 L354 239 L419 263 L483 269 L535 270 L572 271 L588 274 L591 274 L592 275 M669 262 L657 255 L625 240 L575 223 L510 209 L473 205 L455 204 L448 205 L448 209 L450 215 L467 226 L496 239 L530 251 L558 260 L582 269 L598 273 L610 277 M620 139 L603 137 L513 117 L393 93 L258 74 L199 74 L165 77 L141 93 L122 111 L102 135 L97 156 L97 184 L107 213 L122 240 L143 259 L181 270 L213 275 L248 282 L282 293 L310 303 L334 311 L361 316 L379 319 L399 322 L416 329 L431 334 " fill="none" stroke="black" /><path d="M618 175 L606 175 L568 167 L517 158 L425 149 L312 149 L249 163 L202 179 L178 192 L172 207 L174 235 L198 265 L257 301 L316 311 L364 312 L392 312 L407 312 L413 312 L414 312 M635 214 L625 210 L584 192 L501 169 L428 161 L363 161 L327 169 L318 175 L316 183 L316 197 L328 217 L354 239 L419 263 L483 269 L535 270 L572 271 L588 274 L591 274 L592 275 M669 262 L657 255 L625 240 L575 223 L510 209 L473 205 L455 204 L448 205 L448 209 L450 215 L467 226 L496 239 L530 251 L558 260 L582 269 L598 273 L610 277 M620 139 L603 137 L513 117 L393 93 L258 74 L199 74 L165 77 L141 93 L122 111 L102 135 L97 156 L97 184 L107 213 L122 240 L143 259 L181 270 L213 275 L248 282 L282 293 L310 303 L334 311 L361 316 L379 319 L399 322 L416 329 L431 334 M623 106 L616 105 L558 86 L448 58 L302 31 L175 24 L121 24 L95 26 L84 36 L72 58 L62 85 L55 117 L55 139 L59 164 L75 196 L93 229 L109 255 L135 290 L161 312 L193 331 L229 345 L271 354 L303 358 L330 362 L357 364 L383 367 L406 369 L421 369 " fill="none" stroke="black" /><path d="M618 175 L606 175 L568 167 L517 158 L425 149 L312 149 L249 163 L202 179 L178 192 L172 207 L174 235 L198 265 L257 301 L316 311 L364 312 L392 312 L407 312 L413 312 L414 312 M635 214 L625 210 L584 192 L501 169 L428 161 L363 161 L327 169 L318 175 L316 183 L316 197 L328 217 L354 239 L419 263 L483 269 L535 270 L572 271 L588 274 L591 274 L592 275 M669 262 L657 255 L625 240 L575 223 L510 209 L473 205 L455 204 L448 205 L448 209 L450 215 L467 226 L496 239 L530 251 L558 260 L582 269 L598 273 L610 277 M620 139 L603 137 L513 117 L393 93 L258 74 L199 74 L165 77 L141 93 L122 111 L102 135 L97 156 L97 184 L107 213 L122 240 L143 259 L181 270 L213 275 L248 282 L282 293 L310 303 L334 311 L361 316 L379 319 L399 322 L416 329 L431 334 M623 106 L616 105 L558 86 L448 58 L302 31 L175 24 L121 24 L95 26 L84 36 L72 58 L62 85 L55 117 L55 139 L59 164 L75 196 L93 229 L109 255 L135 290 L161 312 L193 331 L229 345 L271 354 L303 358 L330 362 L357 364 L383 367 L406 369 L421 369 M647 57 L646 57 L639 55 L604 47 L494 22 L365 3 L226 0 L148 4 L104 11 L84 17 L58 30 L36 46 L20 68 L8 105 L0 158 L0 203 L21 238 L52 267 L118 303 L171 326 L228 343 L276 348 L330 350 L386 351 L425 353 L457 360 " fill="none" stroke="black" /></svg>