<?xml version="1.0" encoding="utf-8" ?>
<svg baseProfile="tiny" height="30" version="1.2" viewBox="-3 -3 536 30" width="536" xmlns="http://www.w3.org/2000/svg" xmlns:ev="http://www.w3.org/2001/xml-events" xmlns:xlink="http://www.w3.org/1999/xlink"><defs /><path d="M0 30 L6 29 L10 28 L13 28 L16 27 L18 27 L20 27 L24 27 L26 27 L29 27 L32 27 L35 27 L38 27 L41 27 L43 27 L46 27 L48 27 L50 27 L51 26 L53 26 L54 26 L57 26 L60 25 L63 25 L66 25 L67 25 L69 25 L71 25 L72 25 L74 25 L75 25 L77 25 L78 25 L80 24 L82 24 L83 24 L84 24 L85 24 L88 24 L91 24 L93 24 L96 24 L99 24 L102 24 L105 24 L106 24 L107 24 L109 24 L110 24 L113 24 L117 24 L121 24 L125 24 L130 24 L135 24 L139 23 L144 22 L152 22 L164 21 L177 21 L196 21 L210 21 L222 21 L239 21 L241 21 L246 21 L250 21 L253 21 L255 21 L257 21 L260 21 L262 21 L265 21 L267 20 L271 20 L273 20 L277 20 L281 20 L285 20 L292 20 L297 19 L302 19 L307 19 L312 18 L317 18 L322 18 L325 18 L327 18 L330 17 L333 17 L339 17 L343 17 L347 17 L352 17 L357 17 L361 17 L363 17 L364 17 L365 17 L366 17 L368 17 L370 16 L373 16 L376 16 L378 16 L382 16 L384 16 L388 15 L392 15 L396 15 L400 15 L403 15 L405 15 L407 15 L408 15 L409 15 L411 15 L417 14 L422 14 L427 13 L430 13 L432 13 L434 13 L437 13 L440 13 L446 13 L453 13 L458 12 L465 11 L472 10 L478 8 L484 7 L490 6 L493 6 L498 5 L502 5 L505 4 L507 4 L511 3 L515 3 L518 2 L520 2 L523 2 L526 1 L529 1 L531 1 L532 1 L534 0 L535 0 L536 0 " fill="none" stroke="black" /></svg>