<?xml version="1.0" encoding="utf-8" ?>
<svg baseProfile="tiny" height="155" version="1.2" viewBox="-3 -3 717 155" width="717" xmlns="http://www.w3.org/2000/svg" xmlns:ev="http://www.w3.org/2001/xml-events" xmlns:xlink="http://www.w3.org/1999/xlink"><defs /><path d="M0 64 L1 63 L2 62 L3 61 L4 60 L7 59 L12 55 L17 52 L22 49 L25 48 L27 46 L29 44 L31 42 L32 41 L33 40 L34 39 L35 39 L35 38 L36 38 L38 39 L41 40 L48 42 L57 44 L68 44 L80 46 L92 48 L103 50 L119 52 L131 53 L142 54 L150 54 L157 50 L168 40 L179 33 L188 25 L198 20 L207 18 L216 18 L224 18 L229 18 L238 21 L254 29 L271 38 L285 45 L298 52 L307 58 L314 61 L317 62 L318 63 L319 63 L323 62 L332 56 L346 48 L360 40 L371 33 L384 23 L394 18 L401 16 L406 16 L412 16 L420 19 L427 24 L434 29 L441 37 L448 48 L453 55 L457 59 L458 60 L458 61 L462 59 L467 55 L473 51 L478 49 L483 46 L485 43 L489 37 L495 29 L503 20 L511 12 L519 6 L527 2 L529 0 L530 0 L532 0 L533 0 L539 5 L547 14 L557 23 L566 32 L573 38 L581 45 L587 49 L593 53 L600 58 L608 63 L618 69 L631 74 L632 72 L642 63 L652 53 L664 40 L676 25 L684 16 L691 15 L700 21 L708 38 L714 61 L717 79 L717 88 L715 91 L688 91 L629 91 L545 88 L483 88 L455 88 L448 88 L447 88 L447 95 L445 107 L440 130 L436 144 L432 152 L430 154 L429 155 L428 155 L419 151 L398 136 L375 117 L353 99 L345 93 L342 92 L342 93 L341 97 L338 105 L332 115 L325 121 L310 124 L288 124 L262 118 L245 112 L234 110 L224 110 L213 110 L203 115 L193 121 L183 127 L181 122 " fill="none" stroke="black" /></svg>