<?xml version="1.0" encoding="utf-8" ?>
<svg baseProfile="tiny" height="158" version="1.2" viewBox="-3 -3 496 158" width="496" xmlns="http://www.w3.org/2000/svg" xmlns:ev="http://www.w3.org/2001/xml-events" xmlns:xlink="http://www.w3.org/1999/xlink"><defs /><path d="M3 96 L2 95 L0 93 L0 92 L0 88 L2 83 L8 75 L16 65 L28 55 L41 46 L59 37 L75 32 L87 32 L98 33 L106 45 L109 56 L112 68 L114 79 L114 90 L114 98 L111 105 L108 109 L103 114 L98 117 L92 118 L87 119 L83 119 L80 117 L79 113 L78 108 L78 97 L84 80 L97 56 L107 39 L121 25 L134 17 L148 14 L160 15 L172 27 L184 49 L190 67 L192 77 L192 84 L188 99 L181 112 L173 121 L167 128 L162 132 L160 133 L158 133 L157 131 L155 126 L155 115 L156 91 L161 68 L173 46 L189 27 L205 14 L230 2 L248 0 L262 3 L270 12 L274 23 L276 38 L277 69 L275 95 L271 112 L267 120 L263 125 L257 131 L248 136 L242 138 L238 138 L236 138 L235 135 L234 130 L233 122 L233 113 L236 102 L243 89 L254 73 L266 60 L282 46 L305 36 L319 32 L327 32 L330 36 L333 45 L336 58 L336 74 L336 92 L336 109 L332 128 L327 145 L321 157 L317 158 L312 158 L306 154 L300 147 L297 133 L297 119 L305 106 L319 89 L334 68 L342 53 L346 41 L346 39 L355 39 L367 39 L379 36 L388 36 L394 36 L399 38 L402 41 L405 48 L408 60 L410 74 L412 88 L413 108 L413 122 L411 132 L410 135 L408 137 L404 138 L400 137 L395 131 L391 118 L390 107 L390 92 L399 68 L412 44 L432 21 L444 16 L454 15 L464 15 L473 17 L482 22 L487 27 L490 33 L492 43 L494 52 L496 63 L496 75 L496 84 L496 92 L494 98 L493 102 L491 104 L491 105 L490 105 " fill="none" stroke="black" /></svg>