<?xml version="1.0" encoding="utf-8" ?>
<svg baseProfile="tiny" height="134" version="1.2" viewBox="-3 -3 672 134" width="672" xmlns="http://www.w3.org/2000/svg" xmlns:ev="http://www.w3.org/2001/xml-events" xmlns:xlink="http://www.w3.org/1999/xlink"><defs /><path d="M0 73 L11 66 L22 56 L32 48 L40 43 L49 38 L55 35 L58 34 L63 34 L70 35 L83 43 L96 51 L112 59 L133 65 L158 70 L187 73 L215 74 L222 70 L234 57 L247 42 L257 27 L265 18 L271 14 L278 14 L285 20 L295 29 L307 39 L319 46 L331 53 L344 57 L353 59 L360 60 L364 60 L365 60 L366 60 L367 60 L376 57 L395 46 L416 30 L427 21 L434 15 L442 14 L450 14 L459 18 L476 31 L492 43 L507 53 L517 58 L527 61 L536 61 L540 61 L546 57 L560 42 L573 29 L585 18 L594 9 L601 2 L607 0 L616 2 L626 10 L641 22 L656 33 L665 38 L671 40 L672 40 L672 41 L672 42 L672 43 L671 43 L671 44 L670 45 L669 48 L667 55 L666 61 L666 66 L666 68 L666 70 L665 71 L664 71 L657 71 L630 63 L604 50 L586 41 L575 35 L573 33 L572 33 L572 36 L572 44 L570 60 L569 78 L566 96 L563 103 L563 106 L562 107 L559 108 L555 110 L547 111 L534 111 L518 107 L493 92 L465 74 L443 62 L423 55 L416 55 L415 55 L413 59 L407 70 L398 89 L391 99 L385 106 L379 112 L374 115 L370 116 L365 118 L361 120 L356 121 L353 121 L352 122 L351 122 L350 122 L348 121 L342 115 L332 107 L315 92 L304 83 L297 79 L291 79 L285 79 L276 82 L257 96 L234 113 L214 129 L206 133 L203 134 L191 129 L169 112 L149 97 L131 82 L119 71 L110 64 L104 62 L97 62 L88 65 L75 72 L58 83 L43 91 L29 101 L18 108 L11 113 L8 114 " fill="none" stroke="black" /></svg>