<?xml version="1.0" encoding="utf-8" ?>
<svg baseProfile="tiny" height="69" version="1.2" viewBox="-3 -3 908 69" width="908" xmlns="http://www.w3.org/2000/svg" xmlns:ev="http://www.w3.org/2001/xml-events" xmlns:xlink="http://www.w3.org/1999/xlink"><defs /><path d="M0 40 L7 33 L19 23 L30 14 L40 13 L46 25 L57 44 L74 59 L86 61 L94 54 L100 43 L110 34 L131 27 L154 21 L168 18 L183 18 L198 24 L214 34 L219 36 L219 33 L220 26 L223 17 L228 15 L237 26 L251 44 L261 49 L269 36 L271 25 L271 22 L277 21 L289 19 L300 14 L307 10 L310 10 L317 21 L326 29 L330 25 L333 13 L334 10 L339 10 L353 12 L370 13 L382 9 L395 6 L403 14 L415 24 L430 32 L435 19 L438 4 L439 0 L443 3 L453 13 L463 18 L467 16 L469 13 L472 14 L481 24 L492 28 L501 18 L504 13 L507 13 L513 23 L522 25 L539 8 L551 1 L553 1 L554 1 L570 15 L586 30 L607 35 L613 15 L616 1 L617 0 L621 10 L632 21 L641 16 L645 9 L647 7 L656 21 L667 32 L680 30 L685 21 L688 19 L691 22 L691 23 L700 36 L724 59 L739 64 L746 47 L748 34 L748 32 L749 34 L754 41 L761 38 L767 23 L769 14 L772 16 L779 29 L788 36 L791 32 L793 30 L798 39 L810 55 L820 62 L823 54 L825 47 L826 46 L830 60 L834 69 L837 61 L837 40 L837 28 L837 27 L837 33 L837 61 L847 62 L864 65 L884 55 L890 35 L893 23 L893 24 L896 54 L899 66 L901 65 L903 57 L904 53 L908 53 " fill="none" stroke="black" /></svg>