<?xml version="1.0" encoding="utf-8" ?>
<svg baseProfile="tiny" height="215" version="1.2" viewBox="-3 -3 918 215" width="918" xmlns="http://www.w3.org/2000/svg" xmlns:ev="http://www.w3.org/2001/xml-events" xmlns:xlink="http://www.w3.org/1999/xlink"><defs /><path d="M0 69 L1 69 L6 70 L12 75 L18 81 L26 89 L32 95 L40 99 L49 101 L62 97 L86 79 L102 67 L112 60 L114 58 L114 64 L119 82 L129 100 L147 112 L167 116 L184 113 L193 104 L199 84 L200 67 L199 58 L197 56 L197 59 L209 80 L231 103 L250 113 L266 115 L277 112 L290 100 L297 91 L302 81 L307 71 L311 70 L321 68 L330 63 L336 59 L339 55 L340 51 L342 49 L342 48 L344 53 L356 69 L370 88 L391 111 L406 119 L419 120 L427 112 L440 84 L447 63 L451 45 L453 34 L454 25 L454 21 L454 20 L454 23 L457 44 L471 95 L483 124 L493 135 L501 136 L509 134 L518 127 L531 118 L534 114 L540 111 L567 90 L590 62 L596 50 L599 46 L599 45 L599 48 L604 66 L620 97 L633 115 L643 121 L649 116 L652 99 L652 79 L652 62 L650 51 L649 47 L649 50 L660 72 L675 93 L687 105 L698 106 L705 99 L716 85 L724 66 L727 47 L725 41 L723 36 L722 33 L721 32 L721 47 L736 85 L752 109 L771 119 L786 119 L805 97 L822 53 L828 16 L828 2 L828 0 L827 2 L826 23 L826 57 L826 94 L828 104 L833 106 L837 105 L844 93 L855 52 L860 24 L860 14 L860 13 L860 37 L861 98 L880 178 L896 203 L909 213 L915 213 L918 211 L917 213 L917 215 L917 214 " fill="none" stroke="black" /></svg>