<?xml version="1.0" encoding="utf-8" ?>
<svg baseProfile="tiny" height="102" version="1.2" viewBox="-3 -3 957 102" width="957" xmlns="http://www.w3.org/2000/svg" xmlns:ev="http://www.w3.org/2001/xml-events" xmlns:xlink="http://www.w3.org/1999/xlink"><defs /><path d="M0 67 L1 60 L6 42 L13 15 L16 3 L18 0 L22 5 L37 25 L55 45 L69 55 L75 57 L77 58 L78 58 L79 58 L81 56 L92 44 L105 25 L113 12 L118 7 L119 7 L127 27 L134 46 L140 55 L142 56 L143 50 L145 36 L145 33 L148 36 L154 43 L159 45 L163 42 L167 26 L169 21 L175 24 L185 35 L199 39 L205 34 L208 26 L210 28 L218 37 L222 41 L224 41 L225 40 L228 40 L232 38 L238 34 L243 26 L248 17 L251 14 L255 16 L261 25 L264 29 L266 29 L269 23 L271 19 L274 19 L284 31 L292 36 L298 33 L302 26 L306 24 L321 34 L335 42 L346 39 L351 32 L353 29 L364 38 L380 48 L384 38 L394 16 L401 6 L408 13 L420 36 L427 50 L430 54 L432 47 L434 38 L437 35 L443 37 L454 45 L465 46 L473 29 L476 22 L481 25 L492 41 L502 48 L512 41 L522 27 L535 19 L553 16 L564 16 L571 33 L589 75 L603 97 L615 102 L622 52 L624 30 L626 26 L637 43 L651 58 L662 63 L669 35 L671 19 L677 30 L694 65 L706 79 L711 65 L712 43 L713 39 L720 42 L730 47 L742 47 L756 47 L758 47 L762 54 L767 61 L770 63 L775 56 L779 40 L781 34 L785 35 L797 48 L810 57 L816 53 L819 35 L820 26 L829 48 L842 84 L854 97 L856 65 L856 47 L856 46 L864 74 L873 89 L877 61 L877 35 L879 28 L895 60 L912 75 L923 76 L923 77 L929 85 L936 90 L943 81 L949 51 L953 32 L956 29 L957 29 L948 28 " fill="none" stroke="black" /></svg>