<?xml version="1.0" encoding="utf-8" ?>
<svg baseProfile="tiny" height="132" version="1.2" viewBox="-3 -3 625 132" width="625" xmlns="http://www.w3.org/2000/svg" xmlns:ev="http://www.w3.org/2001/xml-events" xmlns:xlink="http://www.w3.org/1999/xlink"><defs /><path d="M0 112 L0 113 L0 114 L0 115 L1 117 L2 118 L4 121 L5 123 L8 126 L10 127 L12 129 L14 130 L18 131 L22 132 L29 132 L34 132 L39 132 L44 132 L49 130 L58 129 L63 127 L69 126 L74 124 L78 122 L83 121 L88 119 L93 118 L97 117 L101 116 L103 115 L106 115 L112 113 L117 112 L123 111 L128 110 L132 108 L136 106 L138 104 L141 102 L145 100 L150 99 L154 99 L158 99 L162 99 L164 99 L165 99 L166 99 L169 101 L173 105 L174 107 L175 107 L177 99 L180 88 L183 79 L185 77 L186 77 L187 77 L191 81 L194 91 L194 95 L195 94 L198 91 L202 89 L207 88 L212 89 L220 95 L228 98 L235 99 L240 99 L247 93 L254 80 L262 71 L267 66 L271 65 L278 70 L290 83 L298 88 L304 89 L308 89 L315 80 L320 72 L330 70 L344 77 L363 86 L378 88 L383 83 L386 74 L394 69 L406 60 L417 49 L424 44 L429 42 L436 45 L446 54 L454 58 L463 58 L468 56 L474 50 L484 42 L491 37 L497 36 L503 38 L510 43 L519 46 L531 47 L538 41 L542 33 L548 36 L565 45 L581 47 L592 39 L605 23 L622 2 L625 0 " fill="none" stroke="black" /></svg>