<?xml version="1.0" encoding="utf-8" ?>
<svg baseProfile="tiny" height="193" version="1.2" viewBox="-3 -3 714 193" width="714" xmlns="http://www.w3.org/2000/svg" xmlns:ev="http://www.w3.org/2001/xml-events" xmlns:xlink="http://www.w3.org/1999/xlink"><defs /><path d="M0 7 L1 7 L11 3 L21 0 L28 0 L32 6 L36 17 L39 28 L42 35 L43 36 L45 36 L49 34 L57 26 L67 19 L73 18 L76 20 L78 26 L81 32 L86 38 L97 42 L116 42 L140 42 L152 42 L154 42 L161 40 L168 40 L174 48 L176 60 L179 70 L183 76 L193 78 L205 75 L213 69 L217 66 L219 66 L224 66 L244 68 L276 70 L300 76 L308 81 L309 86 L321 106 L334 125 L345 132 L353 133 L361 124 L370 113 L380 111 L399 128 L415 144 L430 151 L443 151 L459 143 L462 141 L463 141 L464 143 L466 145 L470 147 L474 150 L478 152 L484 156 L489 159 L492 160 L496 160 L500 159 L504 156 L510 147 L514 145 L519 145 L528 153 L536 159 L545 160 L557 151 L563 145 L570 143 L581 144 L603 148 L621 148 L627 161 L643 181 L661 193 L669 190 L675 180 L678 174 L683 174 L696 179 L714 182 " fill="none" stroke="black" /></svg>