<?xml version="1.0" encoding="utf-8" ?>
<svg baseProfile="tiny" height="227" version="1.2" viewBox="-3 -3 852 227" width="852" xmlns="http://www.w3.org/2000/svg" xmlns:ev="http://www.w3.org/2001/xml-events" xmlns:xlink="http://www.w3.org/1999/xlink"><defs /><path d="M0 146 L0 143 L3 130 L9 118 L16 110 L25 108 L38 112 L54 121 L62 125 L67 128 L72 130 L75 130 L77 128 L84 118 L104 86 L121 62 L132 51 L143 48 L157 57 L176 80 L189 98 L197 108 L203 112 L205 113 L207 112 L228 76 L247 43 L263 22 L272 15 L280 17 L285 21 L288 28 L302 50 L316 70 L333 94 L350 117 L358 130 L364 136 L366 136 L374 127 L396 99 L432 57 L461 28 L481 15 L488 15 L496 30 L506 53 L515 81 L522 100 L527 112 L528 114 L537 102 L554 76 L573 47 L587 29 L596 20 L597 20 L599 24 L605 38 L615 62 L629 93 L633 104 L635 106 L636 107 L637 107 L639 100 L653 69 L674 29 L688 9 L695 1 L697 0 L703 11 L716 41 L733 86 L745 112 L752 124 L753 126 L755 121 L764 104 L780 78 L800 44 L808 32 L812 27 L813 26 L813 25 L813 33 L822 57 L835 91 L845 117 L850 131 L852 136 L852 138 L852 139 L852 140 L850 140 L849 140 L847 140 L844 141 L835 141 L811 141 L773 138 L734 125 L719 120 L714 119 L714 120 L711 137 L702 171 L693 204 L686 222 L682 227 L678 227 L670 222 L648 207 L622 184 L600 162 L583 148 L575 143 L572 143 L571 147 L567 167 L561 199 L558 217 L554 223 L551 224 L541 223 L515 213 L469 182 L427 143 L398 118 L389 112 L386 112 L383 116 L374 137 L364 167 L350 201 L343 214 L339 218 L337 219 L331 219 L316 213 L284 193 L254 167 L230 146 L208 135 L195 134 L186 136 L173 161 L160 184 L152 195 L150 198 " fill="none" stroke="black" /></svg>