<?xml version="1.0" encoding="utf-8" ?>
<svg baseProfile="tiny" height="530" version="1.2" viewBox="-3 -3 345 530" width="345" xmlns="http://www.w3.org/2000/svg" xmlns:ev="http://www.w3.org/2001/xml-events" xmlns:xlink="http://www.w3.org/1999/xlink"><defs /><path d="M108 447 L108 446 L108 376 L127 182 L157 41 L176 5 L183 0 L184 18 L166 123 L141 267 L124 380 L117 415 L115 430 L115 432 L114 433 L114 434 L114 435 L113 434 L112 431 L112 420 L112 383 L121 292 L176 199 L237 169 L284 175 L301 204 L296 241 L248 303 L190 352 L139 383 L116 396 L108 400 L107 402 L107 403 L116 397 L146 375 L208 346 L288 328 L334 327 L345 333 L336 342 L301 360 L247 375 L204 379 L179 379 L169 375 L168 375 L177 380 L189 395 L200 426 L208 475 L210 512 L205 527 L187 530 L137 495 L110 459 L103 438 L114 422 L127 405 L135 397 L137 396 L137 402 L133 419 L125 443 L113 462 L96 467 L72 458 L56 443 L50 425 L60 399 L84 391 L94 390 L96 390 L94 391 L87 391 L70 388 L37 366 L9 336 L0 317 L9 310 L36 309 L59 317 L67 328 L67 333 L63 334 L44 311 L23 277 L19 254 L37 248 L61 253 L80 280 L89 312 L96 337 L97 344 " fill="none" stroke="black" /></svg>