<?xml version="1.0" encoding="utf-8" ?>
<svg baseProfile="tiny" height="634" version="1.2" viewBox="-3 -3 566 634" width="566" xmlns="http://www.w3.org/2000/svg" xmlns:ev="http://www.w3.org/2001/xml-events" xmlns:xlink="http://www.w3.org/1999/xlink"><defs /><path d="M0 542 L0 514 L0 352 L7 192 L28 137 L36 130 L35 162 L28 293 L15 437 L9 511 L8 537 L8 541 L8 542 L9 542 L10 542 L11 540 L22 524 L35 511 L43 508 L45 525 L45 549 L44 563 L49 548 L63 512 L74 498 L76 506 L73 532 L72 552 L74 557 L86 541 L99 526 L108 524 L110 531 L110 538 L110 541 L118 523 L128 508 L134 506 L134 518 L131 534 L130 542 L136 528 L152 510 L164 506 L167 519 L167 542 L164 559 L164 562 L171 546 L206 420 L243 155 L273 43 L298 0 L301 8 L284 97 L252 320 L216 537 L204 586 L199 605 L205 590 L221 558 L231 546 L232 550 L230 561 L227 565 L229 526 L243 487 L252 482 L254 516 L244 559 L239 576 L240 573 L258 546 L274 533 L280 534 L280 556 L275 572 L274 577 L280 553 L296 522 L303 518 L304 542 L297 587 L291 612 L290 613 L350 515 L464 285 L522 175 L550 144 L547 191 L503 359 L454 529 L439 575 L434 593 L452 569 L477 550 L486 553 L484 582 L467 616 L455 634 L453 634 L478 599 L498 586 L504 588 L503 601 L498 613 L497 616 L516 602 L545 591 L560 591 L566 591 " fill="none" stroke="black" /></svg>