<?xml version="1.0" encoding="utf-8" ?>
<svg baseProfile="tiny" height="655" version="1.2" viewBox="-3 -3 1066 655" width="1066" xmlns="http://www.w3.org/2000/svg" xmlns:ev="http://www.w3.org/2001/xml-events" xmlns:xlink="http://www.w3.org/1999/xlink"><defs /><path d="M472 584 L455 565 L343 459 L249 380 L210 347 L201 342 L248 381 L338 492 L366 538 L380 557 L385 543 L396 445 L407 362 L416 336 L417 336 L394 389 L356 487 L338 532 L327 554 L331 542 L379 455 L441 379 L454 374 " fill="none" stroke="black" /><path d="M472 584 L455 565 L343 459 L249 380 L210 347 L201 342 L248 381 L338 492 L366 538 L380 557 L385 543 L396 445 L407 362 L416 336 L417 336 L394 389 L356 487 L338 532 L327 554 L331 542 L379 455 L441 379 L454 374 M637 511 L637 430 L637 250 L637 153 L641 128 L642 133 L635 176 L592 252 L528 292 L487 305 L469 311 L492 315 L573 322 L663 341 L687 353 L691 356 L660 356 L603 340 L582 333 L573 335 L573 360 L570 397 L564 416 L558 425 L556 423 L576 358 L620 263 L651 224 L662 216 " fill="none" stroke="black" /><path d="M472 584 L455 565 L343 459 L249 380 L210 347 L201 342 L248 381 L338 492 L366 538 L380 557 L385 543 L396 445 L407 362 L416 336 L417 336 L394 389 L356 487 L338 532 L327 554 L331 542 L379 455 L441 379 L454 374 M637 511 L637 430 L637 250 L637 153 L641 128 L642 133 L635 176 L592 252 L528 292 L487 305 L469 311 L492 315 L573 322 L663 341 L687 353 L691 356 L660 356 L603 340 L582 333 L573 335 L573 360 L570 397 L564 416 L558 425 L556 423 L576 358 L620 263 L651 224 L662 216 M83 443 L83 441 L68 395 L28 339 L8 317 L0 315 L0 323 L41 358 L116 396 L205 416 L241 407 L238 405 L189 424 L129 469 L99 497 L88 507 L89 464 L109 318 L120 263 L125 242 L118 282 L106 354 L96 432 L94 457 L94 460 L98 441 L104 423 " fill="none" stroke="black" /><path d="M472 584 L455 565 L343 459 L249 380 L210 347 L201 342 L248 381 L338 492 L366 538 L380 557 L385 543 L396 445 L407 362 L416 336 L417 336 L394 389 L356 487 L338 532 L327 554 L331 542 L379 455 L441 379 L454 374 M637 511 L637 430 L637 250 L637 153 L641 128 L642 133 L635 176 L592 252 L528 292 L487 305 L469 311 L492 315 L573 322 L663 341 L687 353 L691 356 L660 356 L603 340 L582 333 L573 335 L573 360 L570 397 L564 416 L558 425 L556 423 L576 358 L620 263 L651 224 L662 216 M83 443 L83 441 L68 395 L28 339 L8 317 L0 315 L0 323 L41 358 L116 396 L205 416 L241 407 L238 405 L189 424 L129 469 L99 497 L88 507 L89 464 L109 318 L120 263 L125 242 L118 282 L106 354 L96 432 L94 457 L94 460 L98 441 L104 423 M909 522 L909 521 L909 446 L909 347 L909 316 L911 318 L941 381 L986 483 L1003 537 L1005 559 L953 560 L814 535 L777 528 L764 522 L819 501 L974 423 L1040 377 L1066 359 L1053 373 L974 481 L894 597 L869 635 L855 655 L863 633 L915 488 L952 389 " fill="none" stroke="black" /><path d="M472 584 L455 565 L343 459 L249 380 L210 347 L201 342 L248 381 L338 492 L366 538 L380 557 L385 543 L396 445 L407 362 L416 336 L417 336 L394 389 L356 487 L338 532 L327 554 L331 542 L379 455 L441 379 L454 374 M637 511 L637 430 L637 250 L637 153 L641 128 L642 133 L635 176 L592 252 L528 292 L487 305 L469 311 L492 315 L573 322 L663 341 L687 353 L691 356 L660 356 L603 340 L582 333 L573 335 L573 360 L570 397 L564 416 L558 425 L556 423 L576 358 L620 263 L651 224 L662 216 M83 443 L83 441 L68 395 L28 339 L8 317 L0 315 L0 323 L41 358 L116 396 L205 416 L241 407 L238 405 L189 424 L129 469 L99 497 L88 507 L89 464 L109 318 L120 263 L125 242 L118 282 L106 354 L96 432 L94 457 L94 460 L98 441 L104 423 M909 522 L909 521 L909 446 L909 347 L909 316 L911 318 L941 381 L986 483 L1003 537 L1005 559 L953 560 L814 535 L777 528 L764 522 L819 501 L974 423 L1040 377 L1066 359 L1053 373 L974 481 L894 597 L869 635 L855 655 L863 633 L915 488 L952 389 M318 208 L318 199 L286 133 L265 100 L258 93 L257 93 L288 93 L373 93 L439 99 L467 109 L460 117 L389 158 L298 222 L256 257 L241 269 L251 244 L320 101 L360 27 L374 0 L368 11 L342 50 L319 101 L312 133 " fill="none" stroke="black" /></svg>