<?xml version="1.0" encoding="utf-8" ?>
<svg baseProfile="tiny" height="575" version="1.2" viewBox="-3 -3 874 575" width="874" xmlns="http://www.w3.org/2000/svg" xmlns:ev="http://www.w3.org/2001/xml-events" xmlns:xlink="http://www.w3.org/1999/xlink"><defs /><path d="M70 501 L47 455 L27 418 L14 403 L10 437 L9 485 L12 509 L52 509 L108 487 L132 474 L109 471 L45 478 L10 484 L0 485 L53 457 L85 442 " fill="none" stroke="black" /><path d="M70 501 L47 455 L27 418 L14 403 L10 437 L9 485 L12 509 L52 509 L108 487 L132 474 L109 471 L45 478 L10 484 L0 485 L53 457 L85 442 M336 75 L336 65 L336 62 L336 69 L324 113 L285 163 L200 179 L146 178 L115 176 L184 176 L412 191 L586 195 L625 189 L615 187 L467 203 L346 232 L302 246 L287 250 L350 157 L426 40 L454 0 L453 4 L403 84 L338 193 L309 234 L303 238 L327 172 L352 114 L367 93 " fill="none" stroke="black" /><path d="M70 501 L47 455 L27 418 L14 403 L10 437 L9 485 L12 509 L52 509 L108 487 L132 474 L109 471 L45 478 L10 484 L0 485 L53 457 L85 442 M336 75 L336 65 L336 62 L336 69 L324 113 L285 163 L200 179 L146 178 L115 176 L184 176 L412 191 L586 195 L625 189 L615 187 L467 203 L346 232 L302 246 L287 250 L350 157 L426 40 L454 0 L453 4 L403 84 L338 193 L309 234 L303 238 L327 172 L352 114 L367 93 M370 503 L370 495 L356 435 L339 408 L330 397 L331 397 L374 397 L452 397 L483 395 L494 394 L449 427 L365 507 L318 559 L300 575 L315 538 L410 379 L501 270 L533 254 L535 266 L499 326 L437 406 L396 438 L379 448 L380 449 L426 435 L454 425 L460 422 L433 448 L375 496 L339 501 L325 474 L348 448 L406 439 L433 439 L438 439 L314 372 L98 273 L46 255 L23 251 L136 312 L278 382 L325 409 L335 415 L330 412 L323 392 L339 339 L377 285 L392 265 L382 280 L331 355 L291 414 L275 438 L288 426 L360 358 L404 321 " fill="none" stroke="black" /><path d="M70 501 L47 455 L27 418 L14 403 L10 437 L9 485 L12 509 L52 509 L108 487 L132 474 L109 471 L45 478 L10 484 L0 485 L53 457 L85 442 M336 75 L336 65 L336 62 L336 69 L324 113 L285 163 L200 179 L146 178 L115 176 L184 176 L412 191 L586 195 L625 189 L615 187 L467 203 L346 232 L302 246 L287 250 L350 157 L426 40 L454 0 L453 4 L403 84 L338 193 L309 234 L303 238 L327 172 L352 114 L367 93 M370 503 L370 495 L356 435 L339 408 L330 397 L331 397 L374 397 L452 397 L483 395 L494 394 L449 427 L365 507 L318 559 L300 575 L315 538 L410 379 L501 270 L533 254 L535 266 L499 326 L437 406 L396 438 L379 448 L380 449 L426 435 L454 425 L460 422 L433 448 L375 496 L339 501 L325 474 L348 448 L406 439 L433 439 L438 439 L314 372 L98 273 L46 255 L23 251 L136 312 L278 382 L325 409 L335 415 L330 412 L323 392 L339 339 L377 285 L392 265 L382 280 L331 355 L291 414 L275 438 L288 426 L360 358 L404 321 M765 436 L765 435 L758 401 L740 355 L713 329 L688 326 L666 344 L665 364 L687 377 L766 377 L843 356 L874 345 L866 351 L796 411 L665 509 L605 539 L577 537 L609 442 L709 332 L815 266 L845 256 L839 256 L774 282 L707 319 L680 346 L684 359 L737 362 L776 365 L787 373 L741 394 L654 421 L580 429 L542 424 L553 373 L633 337 L696 334 L760 374 L791 432 L801 470 L799 484 L780 467 L734 407 L718 387 L714 385 L754 416 L777 434 L786 441 L750 384 L688 294 " fill="none" stroke="black" /></svg>