<?xml version="1.0" encoding="utf-8" ?>
<svg baseProfile="tiny" height="590" version="1.2" viewBox="-3 -3 695 590" width="695" xmlns="http://www.w3.org/2000/svg" xmlns:ev="http://www.w3.org/2001/xml-events" xmlns:xlink="http://www.w3.org/1999/xlink"><defs /><path d="M336 0 L337 0 L363 0 L442 1 L541 33 L636 128 L689 277 L695 414 L673 527 L604 587 L431 590 L184 439 L31 256 L0 167 L44 124 L214 85 L343 40 L402 13 L424 4 " fill="none" stroke="black" /><path d="M336 0 L337 0 L363 0 L442 1 L541 33 L636 128 L689 277 L695 414 L673 527 L604 587 L431 590 L184 439 L31 256 L0 167 L44 124 L214 85 L343 40 L402 13 L424 4 M402 136 L412 136 L433 137 L469 155 L501 187 L524 235 L535 315 L534 396 L514 459 L475 493 L402 475 L294 378 L231 272 L216 208 L242 160 L327 120 L421 90 L453 87 " fill="none" stroke="black" /><path d="M336 0 L337 0 L363 0 L442 1 L541 33 L636 128 L689 277 L695 414 L673 527 L604 587 L431 590 L184 439 L31 256 L0 167 L44 124 L214 85 L343 40 L402 13 L424 4 M402 136 L412 136 L433 137 L469 155 L501 187 L524 235 L535 315 L534 396 L514 459 L475 493 L402 475 L294 378 L231 272 L216 208 L242 160 L327 120 L421 90 L453 87 M386 201 L394 201 L419 210 L454 238 L474 271 L476 317 L470 376 L445 408 L401 412 L339 360 L305 291 L297 222 L320 172 L372 141 " fill="none" stroke="black" /><path d="M336 0 L337 0 L363 0 L442 1 L541 33 L636 128 L689 277 L695 414 L673 527 L604 587 L431 590 L184 439 L31 256 L0 167 L44 124 L214 85 L343 40 L402 13 L424 4 M402 136 L412 136 L433 137 L469 155 L501 187 L524 235 L535 315 L534 396 L514 459 L475 493 L402 475 L294 378 L231 272 L216 208 L242 160 L327 120 L421 90 L453 87 M386 201 L394 201 L419 210 L454 238 L474 271 L476 317 L470 376 L445 408 L401 412 L339 360 L305 291 L297 222 L320 172 L372 141 M374 251 L386 251 L399 256 L412 272 L413 289 L413 308 L405 319 L370 323 L328 291 L312 260 L315 227 L342 206 " fill="none" stroke="black" /><path d="M336 0 L337 0 L363 0 L442 1 L541 33 L636 128 L689 277 L695 414 L673 527 L604 587 L431 590 L184 439 L31 256 L0 167 L44 124 L214 85 L343 40 L402 13 L424 4 M402 136 L412 136 L433 137 L469 155 L501 187 L524 235 L535 315 L534 396 L514 459 L475 493 L402 475 L294 378 L231 272 L216 208 L242 160 L327 120 L421 90 L453 87 M386 201 L394 201 L419 210 L454 238 L474 271 L476 317 L470 376 L445 408 L401 412 L339 360 L305 291 L297 222 L320 172 L372 141 M374 251 L386 251 L399 256 L412 272 L413 289 L413 308 L405 319 L370 323 L328 291 L312 260 L315 227 L342 206 M363 267 L364 267 L368 267 L372 268 L372 271 L372 273 L371 274 L364 274 L352 267 L347 257 L347 248 " fill="none" stroke="black" /></svg>