<?xml version="1.0" encoding="utf-8" ?>
<svg baseProfile="tiny" height="350" version="1.2" viewBox="-3 -3 544 350" width="544" xmlns="http://www.w3.org/2000/svg" xmlns:ev="http://www.w3.org/2001/xml-events" xmlns:xlink="http://www.w3.org/1999/xlink"><defs /><path d="M307 305 L328 299 L323 299 L276 308 L225 331 L206 345 L200 350 L240 325 L278 300 L296 292 L280 309 L249 340 L238 348 " fill="none" stroke="black" /><path d="M307 305 L328 299 L323 299 L276 308 L225 331 L206 345 L200 350 L240 325 L278 300 L296 292 L280 309 L249 340 L238 348 M487 310 L487 296 L487 249 L487 221 L487 214 L486 238 L486 285 L480 328 L474 343 L470 334 L466 307 L472 289 L485 284 L489 284 L484 284 L460 288 L449 293 L455 295 L503 290 L531 280 L539 277 L539 276 " fill="none" stroke="black" /><path d="M307 305 L328 299 L323 299 L276 308 L225 331 L206 345 L200 350 L240 325 L278 300 L296 292 L280 309 L249 340 L238 348 M487 310 L487 296 L487 249 L487 221 L487 214 L486 238 L486 285 L480 328 L474 343 L470 334 L466 307 L472 289 L485 284 L489 284 L484 284 L460 288 L449 293 L455 295 L503 290 L531 280 L539 277 L539 276 M162 195 L155 186 L126 154 L116 146 L115 145 L158 153 L188 162 L204 173 L202 180 L177 192 L150 199 L133 202 L142 191 L190 143 L217 117 L223 112 L210 123 L190 144 L174 167 " fill="none" stroke="black" /><path d="M307 305 L328 299 L323 299 L276 308 L225 331 L206 345 L200 350 L240 325 L278 300 L296 292 L280 309 L249 340 L238 348 M487 310 L487 296 L487 249 L487 221 L487 214 L486 238 L486 285 L480 328 L474 343 L470 334 L466 307 L472 289 L485 284 L489 284 L484 284 L460 288 L449 293 L455 295 L503 290 L531 280 L539 277 L539 276 M162 195 L155 186 L126 154 L116 146 L115 145 L158 153 L188 162 L204 173 L202 180 L177 192 L150 199 L133 202 L142 191 L190 143 L217 117 L223 112 L210 123 L190 144 L174 167 M450 229 L446 227 L427 215 L394 194 L372 182 L364 180 L373 180 L450 181 L487 182 L498 185 L486 199 L466 224 L454 241 L450 246 L456 224 L474 171 L482 151 L479 153 L454 179 L428 206 L420 221 L420 224 L430 212 L438 201 " fill="none" stroke="black" /><path d="M307 305 L328 299 L323 299 L276 308 L225 331 L206 345 L200 350 L240 325 L278 300 L296 292 L280 309 L249 340 L238 348 M487 310 L487 296 L487 249 L487 221 L487 214 L486 238 L486 285 L480 328 L474 343 L470 334 L466 307 L472 289 L485 284 L489 284 L484 284 L460 288 L449 293 L455 295 L503 290 L531 280 L539 277 L539 276 M162 195 L155 186 L126 154 L116 146 L115 145 L158 153 L188 162 L204 173 L202 180 L177 192 L150 199 L133 202 L142 191 L190 143 L217 117 L223 112 L210 123 L190 144 L174 167 M450 229 L446 227 L427 215 L394 194 L372 182 L364 180 L373 180 L450 181 L487 182 L498 185 L486 199 L466 224 L454 241 L450 246 L456 224 L474 171 L482 151 L479 153 L454 179 L428 206 L420 221 L420 224 L430 212 L438 201 M63 254 L58 247 L24 210 L5 193 L0 189 L11 189 L52 189 L65 190 L65 196 L52 211 L38 226 L31 232 L28 233 L38 195 L49 161 L52 147 L51 151 L39 178 L33 204 L32 215 L32 217 " fill="none" stroke="black" /><path d="M307 305 L328 299 L323 299 L276 308 L225 331 L206 345 L200 350 L240 325 L278 300 L296 292 L280 309 L249 340 L238 348 M487 310 L487 296 L487 249 L487 221 L487 214 L486 238 L486 285 L480 328 L474 343 L470 334 L466 307 L472 289 L485 284 L489 284 L484 284 L460 288 L449 293 L455 295 L503 290 L531 280 L539 277 L539 276 M162 195 L155 186 L126 154 L116 146 L115 145 L158 153 L188 162 L204 173 L202 180 L177 192 L150 199 L133 202 L142 191 L190 143 L217 117 L223 112 L210 123 L190 144 L174 167 M450 229 L446 227 L427 215 L394 194 L372 182 L364 180 L373 180 L450 181 L487 182 L498 185 L486 199 L466 224 L454 241 L450 246 L456 224 L474 171 L482 151 L479 153 L454 179 L428 206 L420 221 L420 224 L430 212 L438 201 M63 254 L58 247 L24 210 L5 193 L0 189 L11 189 L52 189 L65 190 L65 196 L52 211 L38 226 L31 232 L28 233 L38 195 L49 161 L52 147 L51 151 L39 178 L33 204 L32 215 L32 217 M280 180 L280 173 L274 155 L267 146 L265 145 L270 145 L294 145 L320 145 L330 146 L324 150 L277 187 L252 213 L241 226 L244 220 L281 150 L288 124 L289 116 L286 128 L279 161 L275 190 L275 205 L285 194 L315 128 L330 94 L338 81 " fill="none" stroke="black" /><path d="M307 305 L328 299 L323 299 L276 308 L225 331 L206 345 L200 350 L240 325 L278 300 L296 292 L280 309 L249 340 L238 348 M487 310 L487 296 L487 249 L487 221 L487 214 L486 238 L486 285 L480 328 L474 343 L470 334 L466 307 L472 289 L485 284 L489 284 L484 284 L460 288 L449 293 L455 295 L503 290 L531 280 L539 277 L539 276 M162 195 L155 186 L126 154 L116 146 L115 145 L158 153 L188 162 L204 173 L202 180 L177 192 L150 199 L133 202 L142 191 L190 143 L217 117 L223 112 L210 123 L190 144 L174 167 M450 229 L446 227 L427 215 L394 194 L372 182 L364 180 L373 180 L450 181 L487 182 L498 185 L486 199 L466 224 L454 241 L450 246 L456 224 L474 171 L482 151 L479 153 L454 179 L428 206 L420 221 L420 224 L430 212 L438 201 M63 254 L58 247 L24 210 L5 193 L0 189 L11 189 L52 189 L65 190 L65 196 L52 211 L38 226 L31 232 L28 233 L38 195 L49 161 L52 147 L51 151 L39 178 L33 204 L32 215 L32 217 M280 180 L280 173 L274 155 L267 146 L265 145 L270 145 L294 145 L320 145 L330 146 L324 150 L277 187 L252 213 L241 226 L244 220 L281 150 L288 124 L289 116 L286 128 L279 161 L275 190 L275 205 L285 194 L315 128 L330 94 L338 81 M485 105 L485 104 L484 79 L472 28 L465 6 L462 0 L459 21 L450 60 L446 95 L451 112 L484 108 L528 91 L544 84 L542 84 L519 90 L485 106 L457 121 L444 128 L440 129 L455 114 L486 85 L496 76 L495 77 L476 96 L460 110 L456 112 " fill="none" stroke="black" /></svg>