<?xml version="1.0" encoding="utf-8" ?>
<svg baseProfile="tiny" height="644" version="1.2" viewBox="-3 -3 553 644" width="553" xmlns="http://www.w3.org/2000/svg" xmlns:ev="http://www.w3.org/2001/xml-events" xmlns:xlink="http://www.w3.org/1999/xlink"><defs /><path d="M32 422 L32 390 L32 164 L32 94 L36 62 L36 76 L22 157 L4 264 L0 296 L12 258 L53 125 L74 82 L83 68 L69 114 L28 252 L14 314 L13 338 L50 260 L76 221 L92 208 L93 284 L86 373 L79 408 L85 336 L132 112 L153 56 L170 23 L170 88 L154 304 L140 404 L131 440 L140 350 L184 126 L205 65 L220 33 L213 115 L181 381 L167 461 L160 491 L193 361 L217 270 L232 240 L233 281 L219 402 L206 452 L197 468 L214 408 L236 371 L250 359 L251 392 L240 437 L229 459 L237 409 L282 282 L319 225 L342 196 L348 152 L340 94 L337 68 L337 94 L337 297 L314 542 L295 603 L281 624 L304 497 L356 369 L386 332 L399 338 L395 446 L375 529 L362 555 L367 528 L393 469 L417 436 L421 437 L418 490 L410 521 L402 536 L418 464 L472 244 L518 59 L547 0 L553 13 L519 278 L473 546 L446 644 L435 644 L456 588 L488 518 L511 500 L517 519 L509 569 L494 595 L489 590 L520 535 L551 506 " fill="none" stroke="black" /></svg>