<?xml version="1.0" encoding="utf-8" ?>
<svg baseProfile="tiny" height="387" version="1.2" viewBox="-3 -3 397 387" width="397" xmlns="http://www.w3.org/2000/svg" xmlns:ev="http://www.w3.org/2001/xml-events" xmlns:xlink="http://www.w3.org/1999/xlink"><defs /><path d="M234 322 L232 322 L226 316 L202 294 L145 243 L80 190 L24 129 L7 83 L13 63 L40 68 L94 125 L157 224 L191 301 L205 336 L206 342 L199 328 L176 259 L156 178 L145 59 L160 7 L191 0 L221 26 L230 58 L230 132 L216 216 L202 254 L192 269 L186 271 L183 269 L186 245 L217 156 L266 70 L314 37 L355 42 L390 81 L397 118 L382 152 L335 191 L279 222 L236 235 L212 239 L202 240 L201 240 L205 240 L229 242 L287 256 L347 285 L369 306 L371 320 L362 325 L331 325 L273 299 L203 257 L175 236 L167 227 L167 226 L172 226 L176 228 L179 241 L181 272 L173 314 L155 353 L131 380 L107 387 L100 386 L105 374 L139 338 L178 293 L206 262 L220 250 L224 248 L222 249 L203 268 L166 299 L116 326 L57 333 L14 319 L1 309 L0 301 L15 285 L52 269 L90 264 L119 264 L136 264 L140 264 L141 264 L142 264 L143 264 L152 264 L163 260 " fill="none" stroke="black" /></svg>