<?xml version="1.0" encoding="utf-8" ?>
<svg baseProfile="tiny" height="613" version="1.2" viewBox="-3 -3 729 613" width="729" xmlns="http://www.w3.org/2000/svg" xmlns:ev="http://www.w3.org/2001/xml-events" xmlns:xlink="http://www.w3.org/1999/xlink"><defs /><path d="M353 613 L322 556 L275 441 L267 340 L312 265 L428 246 L536 287 L592 373 L587 465 L494 570 L279 579 L73 410 L0 296 L30 230 L434 282 L573 328 L648 380 L653 422 L617 459 L545 458 L435 321 L429 189 L590 178 L699 246 L729 327 L665 427 L487 494 L298 464 L236 392 L312 307 L467 333 L604 438 L605 507 L536 555 L413 509 L338 356 L388 267 L474 270 L510 303 L497 360 L430 412 L260 372 L186 257 L288 150 L420 186 L505 255 L508 333 L441 395 L281 350 L241 271 L312 214 L411 252 L437 323 L405 396 L295 428 L119 308 L58 173 L177 92 L310 135 L365 212 L347 304 L266 340 L113 273 L58 163 L220 126 L354 189 L420 264 L424 326 L381 359 L256 302 L166 127 L200 21 L297 0 L343 11 L345 29 L319 52 " fill="none" stroke="black" /></svg>