<?xml version="1.0" encoding="utf-8" ?>
<svg baseProfile="tiny" height="421" version="1.2" viewBox="-3 -3 622 421" width="622" xmlns="http://www.w3.org/2000/svg" xmlns:ev="http://www.w3.org/2001/xml-events" xmlns:xlink="http://www.w3.org/1999/xlink"><defs /><path d="M353 106 L381 102 L404 106 L414 114 L418 120 L420 125 L420 130 L413 132 L398 132 L380 131 L366 131 L351 122 L332 101 L317 70 L314 41 L330 20 L370 19 L422 39 L459 67 L477 97 L480 117 L472 122 L456 116 L447 95 L449 74 L475 54 L536 45 L587 55 L611 79 L622 123 L611 167 L576 177 L533 163 L511 137 L515 127 L544 133 L587 173 L603 213 L604 244 L589 264 L565 271 L547 265 L540 256 L540 253 L551 271 L563 312 L556 352 L521 377 L453 383 L400 348 L380 315 L388 307 L408 318 L419 344 L419 372 L394 400 L345 419 L255 421 L186 386 L153 349 L151 335 L168 334 L175 341 L173 344 L151 345 L100 322 L67 293 L60 271 L79 263 L99 268 L108 278 L103 282 L72 282 L36 251 L0 180 L5 127 L49 117 L81 130 L87 142 L77 152 L53 156 L25 137 L9 94 L24 61 L66 55 L95 69 L109 91 L104 108 L80 115 L47 91 L40 45 L72 6 L128 0 L173 24 L196 70 L195 94 L180 99 L165 82 L162 47 L210 30 L303 48 L348 75 L362 93 L354 104 L332 109 L320 106 L322 94 L355 91 L404 103 L448 143 L459 173 L451 199 L412 218 L338 203 L292 146 L288 118 L332 121 L392 152 L416 188 L419 212 L418 218 L415 217 L429 212 L452 214 L466 222 L471 240 L468 267 L453 287 L401 273 L374 242 L361 229 L360 238 L352 255 L329 267 L218 222 L161 165 L149 141 L162 134 L178 146 L184 161 L181 172 L165 171 L127 112 L115 42 L133 27 L164 43 L181 71 L183 90 L182 98 L181 100 " fill="none" stroke="black" /></svg>