<?xml version="1.0" encoding="utf-8" ?>
<svg baseProfile="tiny" height="466" version="1.2" viewBox="-3 -3 545 466" width="545" xmlns="http://www.w3.org/2000/svg" xmlns:ev="http://www.w3.org/2001/xml-events" xmlns:xlink="http://www.w3.org/1999/xlink"><defs /><path d="M199 352 L199 331 L194 282 L194 222 L200 145 L235 80 L300 22 L383 0 L442 27 L500 95 L534 176 L544 243 L545 311 L521 370 L465 431 L389 466 L289 466 L140 374 L33 234 L0 162 L17 133 L125 122 L225 125 L302 149 L365 192 L400 239 L410 273 L406 309 L383 329 L339 335 L305 321 L276 287 L268 245 L281 211 L310 205 L334 216 L344 245 L340 282 L320 306 L279 313 L221 252 L205 208 L218 185 L253 183 L277 190 L285 197 L286 207 L285 213 L285 214 L289 214 L295 215 L298 218 L298 223 L293 227 L288 228 L287 227 L290 227 L297 229 L299 234 L300 241 L298 244 L296 244 L296 243 L300 243 L304 245 L305 253 L303 261 L299 263 L293 259 L291 256 L292 256 L299 257 L302 258 " fill="none" stroke="black" /></svg>