<?xml version="1.0" encoding="utf-8" ?>
<svg baseProfile="tiny" height="614" version="1.2" viewBox="-3 -3 991 614" width="991" xmlns="http://www.w3.org/2000/svg" xmlns:ev="http://www.w3.org/2001/xml-events" xmlns:xlink="http://www.w3.org/1999/xlink"><defs /><path d="M341 398 L339 396 L314 369 L230 265 L159 131 L143 42 L164 1 L213 0 L286 62 L340 182 L350 288 L338 355 L327 386 L323 395 L322 397 L322 394 L338 375 L397 327 L433 307 L450 300 L421 345 L398 378 L384 400 L431 356 L498 291 L530 271 L528 291 L496 350 L478 375 L473 384 L509 374 L554 371 L581 399 L583 442 L572 468 L568 474 L602 459 L693 424 L726 414 L739 412 L728 414 L707 416 L698 342 L716 229 L799 114 L877 108 L963 226 L991 358 L953 472 L870 529 L788 553 L742 555 L725 552 L725 550 L726 547 L720 537 L680 513 L650 497 L636 492 L635 492 L636 493 L616 466 L596 454 L596 470 L612 513 L615 543 L605 546 L580 526 L564 518 L563 522 L571 546 L575 564 L569 563 L545 548 L531 544 L532 554 L546 578 L551 588 L551 590 L548 587 L547 587 L547 589 L547 590 L545 587 L544 587 L544 588 L545 588 L542 589 L462 614 L325 561 L233 478 L206 446 L205 425 L221 416 L234 412 L244 411 L248 411 L251 412 L252 412 L249 412 L236 407 L186 380 L78 292 L11 207 L0 161 L25 151 L84 167 L122 204 L134 226 L135 232 L139 235 L209 290 L259 339 L280 362 L283 364 L281 353 L281 351 L300 370 L313 382 L319 385 L317 362 L317 342 L324 340 L331 342 L337 343 " fill="none" stroke="black" /></svg>