<?xml version="1.0" encoding="utf-8" ?>
<svg baseProfile="tiny" height="565" version="1.2" viewBox="-3 -3 983 565" width="983" xmlns="http://www.w3.org/2000/svg" xmlns:ev="http://www.w3.org/2001/xml-events" xmlns:xlink="http://www.w3.org/1999/xlink"><defs /><circle cx="335" cy="480" fill="black" r="1" /><circle cx="264" cy="411" fill="black" r="1" /><circle cx="481" cy="467" fill="black" r="1" /><circle cx="392" cy="198" fill="black" r="1" /><circle cx="0" cy="335" fill="black" r="1" /><circle cx="389" cy="362" fill="black" r="1" /><circle cx="693" cy="374" fill="black" r="1" /><circle cx="142" cy="82" fill="black" r="1" /><circle cx="627" cy="165" fill="black" r="1" /><circle cx="201" cy="259" fill="black" r="1" /><circle cx="567" cy="340" fill="black" r="1" /><circle cx="505" cy="130" fill="black" r="1" /><circle cx="983" cy="254" fill="black" r="1" /><circle cx="667" cy="267" fill="black" r="1" /><circle cx="867" cy="465" fill="black" r="1" /><circle cx="840" cy="220" fill="black" r="1" /><circle cx="640" cy="0" fill="black" r="1" /><circle cx="424" cy="70" fill="black" r="1" /><circle cx="535" cy="183" fill="black" r="1" /><circle cx="750" cy="226" fill="black" r="1" /><circle cx="256" cy="113" fill="black" r="1" /><circle cx="577" cy="76" fill="black" r="1" /><circle cx="209" cy="182" fill="black" r="1" /><circle cx="406" cy="286" fill="black" r="1" /><circle cx="533" cy="357" fill="black" r="1" /><circle cx="663" cy="512" fill="black" r="1" /><circle cx="446" cy="220" fill="black" r="1" /><circle cx="852" cy="339" fill="black" r="1" /><circle cx="834" cy="21" fill="black" r="1" /><circle cx="309" cy="10" fill="black" r="1" /><circle cx="284" cy="193" fill="black" r="1" /><circle cx="39" cy="175" fill="black" r="1" /><circle cx="108" cy="455" fill="black" r="1" /><circle cx="331" cy="333" fill="black" r="1" /><circle cx="635" cy="244" fill="black" r="1" /><circle cx="278" cy="77" fill="black" r="1" /><circle cx="761" cy="129" fill="black" r="1" /><circle cx="502" cy="49" fill="black" r="1" /><circle cx="385" cy="113" fill="black" r="1" /><circle cx="525" cy="565" fill="black" r="1" /><circle cx="562" cy="437" fill="black" r="1" /><circle cx="460" cy="388" fill="black" r="1" /><circle cx="544" cy="269" fill="black" r="1" /><circle cx="312" cy="274" fill="black" r="1" /><circle cx="446" cy="122" fill="black" r="1" /></svg>