<?xml version="1.0" encoding="utf-8" ?>
<svg baseProfile="tiny" height="629" version="1.2" viewBox="-3 -3 569 629" width="569" xmlns="http://www.w3.org/2000/svg" xmlns:ev="http://www.w3.org/2001/xml-events" xmlns:xlink="http://www.w3.org/1999/xlink"><defs /><path d="M368 416 L365 404 L303 312 L163 168 L71 99 L22 78 L3 76 L11 95 L99 176 L216 290 L328 405 L384 454 L410 478 L416 484 L413 481 L384 432 L313 323 L247 215 L224 133 L244 99 L272 94 L309 109 L338 152 L349 216 L339 316 L322 395 L313 430 L309 443 L306 444 L299 420 L276 299 L264 144 L292 41 L342 0 L384 11 L419 66 L430 169 L399 276 L362 359 L335 406 L325 419 L321 421 L321 420 L323 414 L348 378 L396 322 L453 278 L488 266 L514 272 L545 310 L568 359 L569 394 L544 412 L497 418 L427 415 L352 391 L325 372 L313 363 L312 362 L323 366 L371 389 L450 452 L508 529 L530 589 L531 619 L522 629 L504 626 L460 589 L366 468 L320 384 L302 334 L305 317 L313 317 L317 319 L318 337 L318 414 L304 525 L287 562 L270 571 L242 555 L225 537 L218 526 L220 518 L250 487 L300 437 L338 409 L356 398 L357 398 L349 403 L327 417 L288 428 L206 421 L102 365 L35 314 L7 283 L0 259 L16 244 L156 276 L264 341 L363 407 L389 420 " fill="none" stroke="black" /></svg>