<?xml version="1.0" encoding="utf-8" ?>
<svg baseProfile="tiny" height="411" version="1.2" viewBox="-3 -3 996 411" width="996" xmlns="http://www.w3.org/2000/svg" xmlns:ev="http://www.w3.org/2001/xml-events" xmlns:xlink="http://www.w3.org/1999/xlink"><defs /><path d="M0 179 L0 169 L0 149 L9 132 L34 117 L56 116 L69 121 L77 147 L86 186 L95 218 L107 235 L119 238 L127 233 L135 212 L143 188 L155 164 L174 151 L192 149 L207 160 L221 195 L233 250 L237 294 L243 320 L247 323 L259 318 L274 300 L294 268 L311 228 L325 203 L339 190 L356 189 L380 207 L402 255 L412 318 L414 351 L415 364 L417 364 L421 354 L425 336 L428 303 L427 246 L419 183 L419 126 L427 46 L433 10 L438 0 L445 15 L465 82 L483 212 L484 293 L484 356 L484 389 L484 400 L487 403 L490 403 L495 395 L501 380 L506 350 L509 300 L514 270 L523 258 L538 258 L555 267 L577 307 L587 369 L590 400 L592 411 L594 410 L597 401 L600 383 L601 359 L602 329 L602 303 L602 290 L602 289 L608 293 L613 300 L615 305 L616 310 " fill="none" stroke="black" /><path d="M0 179 L0 169 L0 149 L9 132 L34 117 L56 116 L69 121 L77 147 L86 186 L95 218 L107 235 L119 238 L127 233 L135 212 L143 188 L155 164 L174 151 L192 149 L207 160 L221 195 L233 250 L237 294 L243 320 L247 323 L259 318 L274 300 L294 268 L311 228 L325 203 L339 190 L356 189 L380 207 L402 255 L412 318 L414 351 L415 364 L417 364 L421 354 L425 336 L428 303 L427 246 L419 183 L419 126 L427 46 L433 10 L438 0 L445 15 L465 82 L483 212 L484 293 L484 356 L484 389 L484 400 L487 403 L490 403 L495 395 L501 380 L506 350 L509 300 L514 270 L523 258 L538 258 L555 267 L577 307 L587 369 L590 400 L592 411 L594 410 L597 401 L600 383 L601 359 L602 329 L602 303 L602 290 L602 289 L608 293 L613 300 L615 305 L616 310 M616 310 L616 308 L624 305 L642 305 L660 309 L675 333 L694 375 L709 398 L722 409 L731 406 L743 389 L752 360 L754 307 L744 243 L742 208 L752 198 L770 197 L800 216 L832 267 L856 312 L869 333 L880 341 L887 342 L891 339 L893 327 L896 305 L901 278 L908 252 L924 230 L945 221 L964 225 L985 257 L994 284 L996 295 " fill="none" stroke="black" /></svg>