<?xml version="1.0" encoding="utf-8" ?>
<svg baseProfile="tiny" height="549" version="1.2" viewBox="-3 -3 947 549" width="947" xmlns="http://www.w3.org/2000/svg" xmlns:ev="http://www.w3.org/2001/xml-events" xmlns:xlink="http://www.w3.org/1999/xlink"><defs /><path d="M14 433 L14 399 L1 107 L0 53 L0 35 L0 60 L0 159 L0 241 L4 269 L15 249 L23 227 L28 231 L30 252 L29 271 L26 261 L23 212 L26 203 L30 244 L31 281 L30 293 L31 212 L45 176 L53 182 L53 239 L48 287 L47 308 L51 302 L62 292 L68 295 L70 307 L71 313 " fill="none" stroke="black" /><path d="M14 433 L14 399 L1 107 L0 53 L0 35 L0 60 L0 159 L0 241 L4 269 L15 249 L23 227 L28 231 L30 252 L29 271 L26 261 L23 212 L26 203 L30 244 L31 281 L30 293 L31 212 L45 176 L53 182 L53 239 L48 287 L47 308 L51 302 L62 292 L68 295 L70 307 L71 313 M538 440 L538 421 L524 286 L510 162 L510 129 L510 152 L519 318 L519 389 L523 421 L526 386 L529 372 L538 396 L545 428 L547 442 L548 433 L554 426 L567 438 L573 455 L575 459 L580 430 L592 400 L603 398 L622 436 L625 458 L626 461 L629 441 L636 432 L644 444 L648 453 " fill="none" stroke="black" /><path d="M14 433 L14 399 L1 107 L0 53 L0 35 L0 60 L0 159 L0 241 L4 269 L15 249 L23 227 L28 231 L30 252 L29 271 L26 261 L23 212 L26 203 L30 244 L31 281 L30 293 L31 212 L45 176 L53 182 L53 239 L48 287 L47 308 L51 302 L62 292 L68 295 L70 307 L71 313 M538 440 L538 421 L524 286 L510 162 L510 129 L510 152 L519 318 L519 389 L523 421 L526 386 L529 372 L538 396 L545 428 L547 442 L548 433 L554 426 L567 438 L573 455 L575 459 L580 430 L592 400 L603 398 L622 436 L625 458 L626 461 L629 441 L636 432 L644 444 L648 453 M293 539 L293 538 L293 455 L293 241 L293 166 L293 145 L293 201 L293 373 L293 455 L294 491 L297 482 L301 467 L305 479 L313 525 L315 545 L317 549 L323 529 L333 522 L342 523 L346 526 L351 511 L359 495 L364 497 L371 526 L374 537 L378 539 L387 519 L396 510 L400 510 " fill="none" stroke="black" /><path d="M14 433 L14 399 L1 107 L0 53 L0 35 L0 60 L0 159 L0 241 L4 269 L15 249 L23 227 L28 231 L30 252 L29 271 L26 261 L23 212 L26 203 L30 244 L31 281 L30 293 L31 212 L45 176 L53 182 L53 239 L48 287 L47 308 L51 302 L62 292 L68 295 L70 307 L71 313 M538 440 L538 421 L524 286 L510 162 L510 129 L510 152 L519 318 L519 389 L523 421 L526 386 L529 372 L538 396 L545 428 L547 442 L548 433 L554 426 L567 438 L573 455 L575 459 L580 430 L592 400 L603 398 L622 436 L625 458 L626 461 L629 441 L636 432 L644 444 L648 453 M293 539 L293 538 L293 455 L293 241 L293 166 L293 145 L293 201 L293 373 L293 455 L294 491 L297 482 L301 467 L305 479 L313 525 L315 545 L317 549 L323 529 L333 522 L342 523 L346 526 L351 511 L359 495 L364 497 L371 526 L374 537 L378 539 L387 519 L396 510 L400 510 M871 453 L871 444 L871 326 L871 237 L871 191 L871 185 L871 217 L873 323 L874 390 L877 423 L883 404 L887 378 L890 371 L892 405 L892 439 L892 452 L894 445 L901 438 L908 449 L911 458 L913 454 L920 421 L929 404 L933 406 L934 422 L934 436 L934 441 L937 434 L944 429 L947 432 " fill="none" stroke="black" /><path d="M14 433 L14 399 L1 107 L0 53 L0 35 L0 60 L0 159 L0 241 L4 269 L15 249 L23 227 L28 231 L30 252 L29 271 L26 261 L23 212 L26 203 L30 244 L31 281 L30 293 L31 212 L45 176 L53 182 L53 239 L48 287 L47 308 L51 302 L62 292 L68 295 L70 307 L71 313 M538 440 L538 421 L524 286 L510 162 L510 129 L510 152 L519 318 L519 389 L523 421 L526 386 L529 372 L538 396 L545 428 L547 442 L548 433 L554 426 L567 438 L573 455 L575 459 L580 430 L592 400 L603 398 L622 436 L625 458 L626 461 L629 441 L636 432 L644 444 L648 453 M293 539 L293 538 L293 455 L293 241 L293 166 L293 145 L293 201 L293 373 L293 455 L294 491 L297 482 L301 467 L305 479 L313 525 L315 545 L317 549 L323 529 L333 522 L342 523 L346 526 L351 511 L359 495 L364 497 L371 526 L374 537 L378 539 L387 519 L396 510 L400 510 M871 453 L871 444 L871 326 L871 237 L871 191 L871 185 L871 217 L873 323 L874 390 L877 423 L883 404 L887 378 L890 371 L892 405 L892 439 L892 452 L894 445 L901 438 L908 449 L911 458 L913 454 L920 421 L929 404 L933 406 L934 422 L934 436 L934 441 L937 434 L944 429 L947 432 M649 310 L649 264 L649 79 L649 28 L649 0 L649 7 L649 74 L671 202 L680 245 L688 260 L691 244 L695 233 L697 241 L698 282 L698 298 L698 299 L705 285 L712 278 L714 278 L714 285 L716 286 L719 285 L725 282 L735 282 " fill="none" stroke="black" /></svg>