<?xml version="1.0" encoding="utf-8" ?>
<svg baseProfile="tiny" height="690" version="1.2" viewBox="-3 -3 1134 690" width="1134" xmlns="http://www.w3.org/2000/svg" xmlns:ev="http://www.w3.org/2001/xml-events" xmlns:xlink="http://www.w3.org/1999/xlink"><defs /><path d="M519 377 L516 373 L452 318 L408 297 L387 290 L439 290 L554 290 L605 295 L600 311 L531 370 L469 413 L444 423 L471 389 L599 243 L646 205 L662 222 L642 409 L616 521 L607 571 L683 521 L927 405 L1041 378 L1079 363 L790 314 L398 261 L315 256 L256 256 L437 256 L753 249 L827 250 L826 262 L528 305 L342 309 L272 298 L352 256 L565 151 L672 131 L707 235 L654 422 L483 530 L94 396 L0 291 L53 239 L502 329 L864 578 L939 690 L933 690 L712 646 L394 407 L347 339 L440 322 L730 446 L796 482 L841 498 L589 241 L351 43 L301 0 L456 98 L763 322 L846 401 L848 417 L656 294 L605 257 L676 274 L1009 428 L1095 475 L1134 492 L995 369 L750 193 L672 154 L648 150 " fill="none" stroke="black" /></svg>