<?xml version="1.0" encoding="utf-8" ?>
<svg baseProfile="tiny" height="190" version="1.2" viewBox="-3 -3 628 190" width="628" xmlns="http://www.w3.org/2000/svg" xmlns:ev="http://www.w3.org/2001/xml-events" xmlns:xlink="http://www.w3.org/1999/xlink"><defs /><path d="M0 113 L1 112 L17 95 L70 61 L132 36 L164 33 L174 34 L168 41 L144 65 L117 89 L92 109 L76 122 L67 129 L60 135 L57 139 L57 140 L70 133 L107 106 L166 60 L230 21 L281 2 L300 0 L304 0 L296 9 L271 35 L231 78 L186 111 L158 126 L141 135 L131 142 L129 144 L130 145 L153 133 L197 100 L248 60 L313 16 L346 3 L364 1 L367 2 L364 5 L338 25 L285 66 L227 105 L194 124 L177 136 L171 142 L170 143 L175 142 L199 129 L245 107 L296 83 L333 68 L356 66 L363 70 L362 77 L344 93 L305 120 L269 143 L241 159 L227 166 L223 169 L223 170 L242 164 L281 146 L353 110 L397 87 L422 78 L423 79 L415 87 L394 110 L361 143 L334 166 L318 177 L312 181 L312 182 L316 182 L339 169 L379 145 L427 122 L451 117 L462 117 L463 122 L449 133 L425 152 L403 169 L393 177 L392 178 L411 174 L448 159 L496 142 L518 138 L522 138 L512 145 L492 160 L478 173 L471 179 L472 180 L486 178 L510 170 L535 159 L549 157 L549 161 L544 171 L535 180 L528 188 L528 190 L548 183 L584 174 L613 173 L626 173 L628 175 " fill="none" stroke="black" /></svg>