<?xml version="1.0" encoding="utf-8" ?>
<svg baseProfile="tiny" height="572" version="1.2" viewBox="-3 -3 530 572" width="530" xmlns="http://www.w3.org/2000/svg" xmlns:ev="http://www.w3.org/2001/xml-events" xmlns:xlink="http://www.w3.org/1999/xlink"><defs /><path d="M13 545 L13 544 L13 479 L14 365 L19 334 L19 329 L11 357 L2 418 L0 472 L0 491 L1 494 L1 493 L9 466 L48 364 L90 281 L111 253 L113 256 L103 295 L94 401 L94 517 L95 560 L98 572 L99 572 L102 558 L115 481 L136 341 L157 263 L168 230 L169 225 L168 225 L168 229 L168 237 L168 279 L168 377 L168 466 L166 524 L165 543 L165 545 L167 436 L167 206 L190 83 L213 19 L222 0 L222 19 L218 110 L216 252 L215 397 L215 462 L216 490 L216 498 L216 499 L216 500 L216 498 L217 489 L221 441 L222 269 L218 119 L225 63 L230 52 L231 81 L223 174 L210 321 L207 423 L210 452 L217 456 L226 433 L247 373 L284 284 L294 261 L295 263 L289 300 L278 387 L275 461 L274 499 L274 510 L281 492 L302 407 L314 346 L321 325 L323 327 L325 372 L325 440 L325 479 L327 490 L341 453 L366 370 L382 345 L395 345 L404 393 L407 485 L416 539 L425 556 L427 554 L433 524 L449 490 L462 475 L468 473 L469 495 L469 517 L471 527 L475 528 L480 527 L486 526 L506 516 L523 511 L529 510 L530 513 " fill="none" stroke="black" /></svg>