<?xml version="1.0" encoding="utf-8" ?>
<svg baseProfile="tiny" height="713" version="1.2" viewBox="-3 -3 639 713" width="639" xmlns="http://www.w3.org/2000/svg" xmlns:ev="http://www.w3.org/2001/xml-events" xmlns:xlink="http://www.w3.org/1999/xlink"><defs /><path d="M102 605 L102 604 L82 544 L16 333 L0 255 L0 226 L4 256 L4 409 L15 537 L24 579 L33 526 L27 284 L24 160 L38 121 L48 177 L50 328 L46 406 L39 442 L45 323 L57 221 L69 190 L78 300 L81 474 L80 520 L78 513 L85 316 L99 248 L112 230 L127 319 L132 440 L127 483 L122 483 L130 435 L145 407 L151 413 L151 489 L143 560 L136 586 L143 545 L183 448 L217 412 L235 436 L242 546 L242 585 L242 601 L253 557 L272 530 L283 524 L285 556 L283 578 L280 581 L285 532 L303 507 L315 508 L322 540 L322 558 L336 451 L367 107 L398 14 L422 0 L443 149 L432 414 L388 666 L381 713 L405 670 L470 515 L501 450 L516 434 L501 579 L484 666 L469 710 L475 671 L515 560 L548 514 L560 518 L561 598 L556 643 L554 651 L563 617 L599 575 L624 568 L639 571 " fill="none" stroke="black" /></svg>