<?xml version="1.0" encoding="utf-8" ?>
<svg baseProfile="tiny" height="46" version="1.2" viewBox="-3 -3 475 46" width="475" xmlns="http://www.w3.org/2000/svg" xmlns:ev="http://www.w3.org/2001/xml-events" xmlns:xlink="http://www.w3.org/1999/xlink"><defs /><path d="M0 11 L4 11 L127 18 L129 18 L140 18 L146 18 L151 18 L154 18 L163 18 L170 19 L176 20 L184 20 L187 20 L196 20 L210 20 L226 19 L240 18 L241 18 L246 18 L250 18 L252 18 L253 18 L254 18 L256 23 L257 24 L258 24 L259 19 L259 17 L260 17 L264 19 L266 23 L267 23 L267 19 L268 17 L268 16 L269 16 L274 25 L275 28 L277 28 L281 23 L281 21 L282 21 L284 21 L288 21 L288 22 L289 22 L291 17 L291 16 L295 20 L297 25 L297 23 L297 22 L298 22 L305 27 L311 39 L313 34 L317 17 L318 17 L319 17 L321 18 L321 19 L322 19 L323 19 L332 41 L334 46 L335 39 L335 29 L335 28 L344 39 L349 46 L349 43 L350 0 L351 0 L357 18 L358 27 L358 24 L361 32 L361 33 L361 21 L361 20 L364 24 L366 28 L366 22 L366 21 L372 25 L372 27 L373 23 L374 16 L378 16 L387 28 L389 32 L389 30 L389 28 L391 28 L393 32 L393 31 L393 30 L395 30 L396 30 L396 22 L398 22 L405 40 L409 34 L413 30 L414 30 L419 32 L420 33 L421 33 L422 31 L424 31 L427 31 L428 31 L432 33 L434 36 L435 36 L436 34 L437 33 L441 36 L443 37 L444 31 L446 31 L449 34 L450 34 L453 32 L459 32 L460 32 L461 32 L464 32 L470 33 L471 34 L471 33 L473 33 L475 33 " fill="none" stroke="black" /></svg>