<?xml version="1.0" encoding="utf-8" ?>
<svg baseProfile="tiny" height="111" version="1.2" viewBox="-3 -3 483 111" width="483" xmlns="http://www.w3.org/2000/svg" xmlns:ev="http://www.w3.org/2001/xml-events" xmlns:xlink="http://www.w3.org/1999/xlink"><defs /><path d="M0 99 L127 86 L113 24 L158 110 L140 111 L118 96 L183 0 L215 42 L182 100 L158 69 L158 60 L187 44 L195 60 L190 98 L169 105 L159 57 L183 33 L212 48 L217 76 L213 97 L206 98 L208 28 L240 42 L244 87 L232 89 L217 59 L220 37 L243 36 L251 66 L238 96 L235 97 L231 84 L235 36 L258 39 L270 58 L260 73 L256 69 L265 33 L279 30 L281 73 L271 79 L267 61 L269 33 L281 35 L285 70 L276 71 L276 44 L286 40 L296 46 L298 57 L286 71 L281 58 L290 26 L317 32 L320 53 L317 66 L311 66 L308 42 L315 34 L330 37 L331 70 L315 77 L313 53 L327 48 L337 55 L337 61 L324 65 L322 47 L328 36 L342 39 L344 48 L338 55 L334 54 L341 32 L353 32 L356 54 L348 57 L345 53 L354 30 L366 29 L371 45 L371 44 L387 38 L389 49 L389 54 L389 49 L393 42 L405 53 L405 57 L400 59 L398 36 L409 29 L417 45 L412 65 L406 66 L408 50 L427 41 L432 54 L428 62 L428 59 L440 47 L452 51 L449 63 L435 68 L439 45 L451 48 L453 62 L451 64 L456 46 L470 40 L478 48 L464 59 L470 48 L479 47 L483 47 L481 52 L471 57 L470 55 L480 49 L483 49 L483 52 " fill="none" stroke="black" /></svg>