<?xml version="1.0" encoding="utf-8" ?>
<svg baseProfile="tiny" height="180" version="1.2" viewBox="-3 -3 907 180" width="907" xmlns="http://www.w3.org/2000/svg" xmlns:ev="http://www.w3.org/2001/xml-events" xmlns:xlink="http://www.w3.org/1999/xlink"><defs /><path d="M0 52 L48 35 L56 31 L70 40 L81 70 L87 83 L87 58 L90 18 L96 9 L115 6 L133 30 L145 63 L151 86 L149 52 L151 24 L164 20 L191 28 L207 61 L208 85 L205 86 L192 70 L217 10 L246 22 L260 45 L260 63 L258 65 L259 65 L281 63 L335 60 L367 61 L404 67 L435 76 L452 81 L457 83 L459 83 L459 84 L463 83 L488 66 L498 63 L511 51 L514 45 L514 31 L514 17 L509 8 L499 3 L490 1 L475 1 L452 24 L431 58 L409 81 L396 104 L390 111 L380 117 L351 131 L328 140 L291 149 L252 166 L228 174 L209 176 L201 171 L198 165 L198 155 L202 147 L223 138 L274 137 L307 149 L345 161 L381 172 L415 180 L438 180 L481 177 L557 167 L557 166 L579 157 L607 145 L634 134 L640 133 L651 127 L660 117 L663 106 L666 84 L667 67 L669 43 L672 31 L685 28 L705 79 L710 101 L718 111 L723 112 L725 112 L725 109 L728 88 L758 56 L763 53 L778 52 L791 52 L805 61 L821 82 L829 90 L836 90 L857 74 L876 11 L878 0 L884 0 L899 26 L903 38 L904 42 L907 47 " fill="none" stroke="black" /></svg>