<?xml version="1.0" encoding="utf-8" ?>
<svg baseProfile="tiny" height="292" version="1.2" viewBox="-3 -3 696 292" width="696" xmlns="http://www.w3.org/2000/svg" xmlns:ev="http://www.w3.org/2001/xml-events" xmlns:xlink="http://www.w3.org/1999/xlink"><defs /><path d="M0 205 L42 279 L48 292 L244 162 L198 33 L313 250 L224 30 L231 3 L313 91 L332 112 L296 24 L292 17 L364 111 L387 135 L389 135 L322 5 L319 2 L367 65 L373 70 L322 1 L321 0 L372 35 L441 83 L418 58 L422 61 L509 163 L516 170 L514 163 L501 129 L502 128 L538 153 L541 155 L524 132 L519 127 L532 135 L571 167 L574 169 L553 152 L553 151 L582 167 L592 173 L590 168 L580 151 L607 164 L630 178 L605 159 L601 154 L630 165 L648 171 L627 157 L618 148 L625 148 L660 154 L658 150 L640 139 L666 139 L674 139 L663 132 L662 132 L696 136 L692 134 L676 118 " fill="none" stroke="black" /></svg>