<?xml version="1.0" encoding="utf-8" ?>
<svg baseProfile="tiny" height="470" version="1.2" viewBox="-3 -3 866 470" width="866" xmlns="http://www.w3.org/2000/svg" xmlns:ev="http://www.w3.org/2001/xml-events" xmlns:xlink="http://www.w3.org/1999/xlink"><defs /><path d="M26 382 L325 405 L242 470 L51 452 L17 419 L3 401 L0 382 L19 330 L109 240 L187 213 L265 229 L247 429 L127 404 L79 327 L239 193 L327 182 L375 209 L399 249 L409 264 L415 281 L417 304 L410 336 L325 395 L270 396 L223 368 L201 327 L189 274 L191 262 L306 169 L370 159 L437 196 L487 247 L501 271 L501 294 L493 317 L457 349 L396 369 L343 357 L300 299 L286 246 L364 141 L526 45 L610 97 L655 174 L656 228 L637 268 L591 303 L528 310 L440 270 L416 227 L411 196 L532 100 L646 66 L719 100 L751 143 L758 177 L716 235 L654 235 L592 159 L621 85 L821 0 L865 46 L866 53 " fill="none" stroke="black" /></svg>