<?xml version="1.0" encoding="utf-8" ?>
<svg baseProfile="tiny" height="338" version="1.2" viewBox="-3 -3 684 338" width="684" xmlns="http://www.w3.org/2000/svg" xmlns:ev="http://www.w3.org/2001/xml-events" xmlns:xlink="http://www.w3.org/1999/xlink"><defs /><path d="M63 269 L63 58 L165 81 L136 0 L329 240 L358 271 L296 191 L216 86 L402 235 L492 318 L366 177 L274 42 L501 187 L684 320 L502 161 L408 65 L406 62 L543 205 L644 278 L638 272 L403 100 L460 121 L609 180 L398 180 L61 226 L0 239 L316 170 L526 146 L302 232 L11 335 L1 338 L432 212 L672 200 L672 202 L202 310 L182 313 L187 312 L460 260 L596 249 L603 249 L504 274 L502 275 L644 247 L661 243 " fill="none" stroke="black" /></svg>