<?xml version="1.0" encoding="utf-8" ?>
<svg baseProfile="tiny" height="247" version="1.2" viewBox="-3 -3 849 247" width="849" xmlns="http://www.w3.org/2000/svg" xmlns:ev="http://www.w3.org/2001/xml-events" xmlns:xlink="http://www.w3.org/1999/xlink"><defs /><path d="M0 130 L140 115 L164 129 L178 142 L180 147 L180 154 L172 178 L148 200 L125 202 L71 203 L55 202 L48 194 L44 188 L43 182 L43 173 L52 160 L79 149 L110 147 L138 147 L166 154 L190 164 L221 169 L236 170 L247 170 L249 169 L260 167 L307 161 L342 154 L367 145 L379 132 L385 126 L385 107 L375 93 L358 80 L326 74 L311 74 L305 79 L298 111 L296 138 L280 208 L266 225 L255 231 L242 234 L229 234 L196 220 L182 200 L173 174 L167 153 L167 148 L167 140 L175 129 L184 118 L207 106 L254 96 L288 98 L374 151 L432 170 L473 171 L493 168 L500 161 L509 135 L516 72 L513 34 L501 15 L422 1 L399 0 L372 4 L343 56 L343 90 L345 141 L347 160 L348 175 L348 201 L339 217 L311 232 L292 232 L268 222 L258 206 L254 194 L253 184 L253 180 L253 177 L254 172 L275 156 L304 141 L326 136 L360 136 L398 146 L443 156 L511 171 L538 172 L545 172 L578 167 L619 159 L640 148 L660 130 L667 109 L667 91 L663 63 L645 57 L605 60 L591 70 L570 116 L563 153 L555 186 L549 205 L541 223 L531 240 L521 246 L511 247 L500 247 L491 233 L489 209 L496 188 L537 162 L608 158 L674 170 L785 188 L823 189 L844 173 L849 158 " fill="none" stroke="black" /></svg>