<?xml version="1.0" encoding="utf-8" ?>
<svg baseProfile="tiny" height="308" version="1.2" viewBox="-3 -3 706 308" width="706" xmlns="http://www.w3.org/2000/svg" xmlns:ev="http://www.w3.org/2001/xml-events" xmlns:xlink="http://www.w3.org/1999/xlink"><defs /><path d="M0 165 L286 0 L351 90 L354 102 L334 40 L348 47 L408 138 L412 146 L569 94 L572 108 L548 95 L436 41 L432 40 L437 44 L617 126 L436 87 L135 50 L121 71 L148 110 L71 56 L23 8 L82 4 L399 44 L427 85 L335 199 L283 269 L251 296 L146 308 L161 299 L656 235 L706 244 L658 242 L446 213 L359 175 L358 172 L367 172 L621 185 " fill="none" stroke="black" /></svg>