<?xml version="1.0" encoding="utf-8" ?>
<svg baseProfile="tiny" height="441" version="1.2" viewBox="-3 -3 720 441" width="720" xmlns="http://www.w3.org/2000/svg" xmlns:ev="http://www.w3.org/2001/xml-events" xmlns:xlink="http://www.w3.org/1999/xlink"><defs /><path d="M84 342 L118 309 L158 300 L216 314 L227 328 L232 333 L236 340 L238 347 L240 361 L240 373 L235 391 L190 430 L141 441 L79 433 L39 418 L18 400 L3 371 L1 361 L0 341 L0 325 L0 306 L23 275 L55 245 L102 219 L142 214 L169 214 L204 220 L221 224 L252 244 L264 249 L294 258 L320 279 L333 295 L348 327 L349 342 L349 353 L331 378 L312 393 L259 398 L207 381 L176 368 L164 359 L150 338 L142 314 L139 252 L200 160 L237 151 L278 150 L304 152 L328 172 L349 201 L358 218 L369 242 L373 254 L375 280 L370 308 L352 327 L330 351 L301 357 L264 329 L251 305 L244 265 L244 213 L270 164 L332 133 L382 141 L402 154 L427 188 L430 196 L431 196 L446 215 L454 269 L445 280 L433 286 L410 283 L380 266 L357 250 L351 228 L351 213 L367 173 L395 141 L431 113 L474 92 L519 92 L556 112 L582 154 L589 195 L588 216 L579 235 L538 262 L499 241 L447 127 L454 106 L486 77 L543 59 L595 59 L639 88 L656 112 L664 129 L672 162 L669 186 L656 206 L648 211 L614 210 L585 176 L558 131 L553 90 L614 19 L682 0 L715 5 L720 10 " fill="none" stroke="black" /></svg>