<?xml version="1.0" encoding="utf-8" ?>
<svg baseProfile="tiny" height="196" version="1.2" viewBox="-3 -3 741 196" width="741" xmlns="http://www.w3.org/2000/svg" xmlns:ev="http://www.w3.org/2001/xml-events" xmlns:xlink="http://www.w3.org/1999/xlink"><defs /><path d="M0 96 L1 96 L79 101 L96 102 L125 103 L143 103 L176 103 L212 103 L230 104 L242 104 L260 105 L281 105 L313 105 L351 105 L378 105 L395 109 L428 116 L443 118 L463 118 L482 118 L505 118 L553 116 L579 116 L601 116 L608 114 L619 108 L625 98 L634 75 L637 50 L638 33 L633 22 L621 10 L601 3 L575 0 L558 0 L538 18 L521 39 L505 68 L500 75 L492 84 L486 93 L482 101 L478 107 L471 117 L463 131 L456 140 L444 153 L435 161 L422 165 L406 174 L383 177 L352 179 L289 191 L265 195 L239 196 L217 196 L204 191 L168 157 L158 142 L151 122 L148 102 L148 93 L149 85 L155 80 L165 73 L178 67 L203 54 L225 47 L232 47 L263 47 L294 49 L327 56 L352 62 L374 67 L403 76 L415 81 L444 91 L463 99 L486 108 L515 119 L595 147 L669 148 L700 140 L741 118 " fill="none" stroke="black" /></svg>