<?xml version="1.0" encoding="utf-8" ?>
<svg baseProfile="tiny" height="279" version="1.2" viewBox="-3 -3 436 279" width="436" xmlns="http://www.w3.org/2000/svg" xmlns:ev="http://www.w3.org/2001/xml-events" xmlns:xlink="http://www.w3.org/1999/xlink"><defs /><path d="M0 143 L35 141 L36 141 L39 141 L47 142 L56 143 L58 144 L61 136 L67 131 L82 130 L91 142 L92 147 L92 148 L94 142 L111 134 L124 134 L133 149 L131 157 L128 157 L127 132 L147 128 L160 131 L168 142 L168 149 L167 145 L181 135 L232 136 L249 151 L252 162 L205 87 L205 73 L210 73 L211 73 L197 69 L158 57 L96 109 L100 141 L100 156 L38 148 L35 143 L105 188 L133 275 L133 279 L118 279 L115 276 L121 272 L155 261 L180 262 L181 263 L203 249 L219 245 L220 244 L218 234 L231 232 L234 234 L234 231 L236 201 L241 200 L243 199 L247 168 L247 166 L252 166 L258 170 L262 161 L271 147 L279 143 L282 112 L283 100 L291 100 L293 99 L293 96 L304 29 L305 2 L319 0 L344 74 L344 77 L346 78 L371 123 L378 145 L378 136 L379 135 L398 150 L403 170 L408 176 L427 177 L436 176 " fill="none" stroke="black" /></svg>