<?xml version="1.0" encoding="utf-8" ?>
<svg baseProfile="tiny" height="92" version="1.2" viewBox="-3 -3 811 92" width="811" xmlns="http://www.w3.org/2000/svg" xmlns:ev="http://www.w3.org/2001/xml-events" xmlns:xlink="http://www.w3.org/1999/xlink"><defs /><path d="M0 35 L30 35 L60 39 L66 40 L72 41 L76 41 L76 42 L76 32 L79 9 L100 0 L133 22 L137 37 L137 43 L133 46 L122 46 L110 35 L109 22 L138 2 L149 2 L173 20 L189 75 L189 79 L170 80 L161 73 L159 41 L166 21 L193 17 L223 46 L226 57 L224 62 L220 63 L219 63 L223 63 L238 63 L284 74 L291 76 L294 76 L304 76 L325 76 L329 76 L330 77 L333 78 L334 79 L335 79 L339 74 L376 41 L406 43 L417 64 L417 79 L392 92 L377 89 L373 50 L391 29 L427 28 L449 77 L449 89 L444 91 L431 88 L423 55 L444 15 L472 23 L483 58 L483 69 L481 69 L471 66 L466 20 L480 9 L519 35 L520 50 L520 63 L520 64 L521 64 L528 64 L561 63 L584 64 L604 67 L616 69 L624 71 L628 71 L632 72 L635 72 L642 72 L648 72 L655 72 L656 72 L669 71 L693 65 L715 59 L724 57 L737 57 L747 57 L759 55 L771 52 L778 51 L785 50 L797 46 L805 46 L811 45 " fill="none" stroke="black" /></svg>