<?xml version="1.0" encoding="utf-8" ?>
<svg baseProfile="tiny" height="261" version="1.2" viewBox="-3 -3 653 261" width="653" xmlns="http://www.w3.org/2000/svg" xmlns:ev="http://www.w3.org/2001/xml-events" xmlns:xlink="http://www.w3.org/1999/xlink"><defs /><path d="M0 153 L188 138 L187 140 L168 139 L165 97 L176 68 L225 55 L260 55 L284 62 L315 86 L322 99 L323 115 L321 119 L301 125 L246 124 L232 111 L241 58 L289 40 L326 40 L370 53 L384 58 L395 60 L400 59 L405 72 L419 119 L430 142 L435 174 L435 192 L429 204 L418 213 L372 226 L347 226 L269 202 L252 195 L242 186 L242 179 L261 152 L305 136 L356 126 L398 116 L435 99 L455 84 L474 58 L485 33 L490 23 L491 16 L491 10 L487 4 L464 0 L463 0 L461 0 L461 61 L465 94 L494 142 L517 172 L525 198 L525 215 L512 241 L493 261 L491 261 L501 240 L538 210 L578 195 L603 191 L621 186 L653 164 " fill="none" stroke="black" /></svg>