<?xml version="1.0" encoding="utf-8" ?>
<svg baseProfile="tiny" height="173" version="1.2" viewBox="-3 -3 508 173" width="508" xmlns="http://www.w3.org/2000/svg" xmlns:ev="http://www.w3.org/2001/xml-events" xmlns:xlink="http://www.w3.org/1999/xlink"><defs /><path d="M0 118 L152 94 L159 71 L247 171 L241 173 L181 92 L258 116 L284 148 L281 160 L275 94 L327 112 L342 139 L334 110 L330 51 L350 51 L375 88 L370 97 L354 74 L362 48 L401 55 L401 71 L380 76 L405 33 L450 26 L452 95 L432 86 L500 7 L504 28 L488 47 L499 14 L508 51 L385 96 L337 94 L299 29 L308 0 L346 0 L364 29 L354 51 L259 51 L233 23 L226 5 L231 4 L246 15 L241 20 L193 22 L184 7 L218 14 L221 38 L75 92 L33 59 L30 42 L39 41 L53 50 L53 51 L25 52 L21 43 " fill="none" stroke="black" /></svg>