<?xml version="1.0" encoding="utf-8" ?>
<svg baseProfile="tiny" height="78" version="1.2" viewBox="-3 -3 455 78" width="455" xmlns="http://www.w3.org/2000/svg" xmlns:ev="http://www.w3.org/2001/xml-events" xmlns:xlink="http://www.w3.org/1999/xlink"><defs /><path d="M1 15 L0 15 L15 30 L133 60 L133 14 L146 13 L179 42 L175 26 L172 11 L217 31 L233 49 L239 49 L254 28 L258 3 L263 0 L280 7 L283 12 L283 13 L299 43 L316 76 L318 78 L325 12 L325 9 L338 15 L355 39 L360 47 L361 47 L370 18 L372 12 L390 38 L395 50 L395 47 L397 6 L402 3 L422 15 L432 28 L432 17 L451 13 L455 18 L455 17 " fill="none" stroke="black" /></svg>