<?xml version="1.0" encoding="utf-8" ?>
<svg baseProfile="tiny" height="350" version="1.2" viewBox="-3 -3 718 350" width="718" xmlns="http://www.w3.org/2000/svg" xmlns:ev="http://www.w3.org/2001/xml-events" xmlns:xlink="http://www.w3.org/1999/xlink"><defs /><path d="M0 286 L0 269 L27 0 L281 288 L260 224 L247 122 L302 276 L310 350 L284 122 L324 221 L340 295 L338 287 L301 122 L301 117 L421 319 L392 250 L364 96 L476 272 L481 287 L425 147 L423 130 L522 270 L537 324 L447 100 L446 87 L559 216 L610 294 L540 78 L528 45 L642 111 L718 207 L572 14 L586 26 L696 136 L702 141 L656 97 L649 88 L703 132 " fill="none" stroke="black" /></svg>