<?xml version="1.0" encoding="utf-8" ?>
<svg baseProfile="tiny" height="225" version="1.2" viewBox="-3 -3 886 225" width="886" xmlns="http://www.w3.org/2000/svg" xmlns:ev="http://www.w3.org/2001/xml-events" xmlns:xlink="http://www.w3.org/1999/xlink"><defs /><path d="M0 109 L44 101 L66 77 L99 73 L114 118 L114 123 L103 76 L103 54 L122 62 L141 114 L148 136 L148 137 L148 109 L152 26 L159 14 L177 31 L193 66 L204 101 L204 76 L204 1 L205 0 L227 36 L247 112 L249 120 L249 121 L249 117 L249 116 L251 97 L257 71 L261 71 L301 134 L313 166 L315 170 L316 71 L323 68 L349 101 L369 157 L372 161 L372 160 L372 105 L374 77 L377 75 L397 110 L410 154 L410 132 L411 113 L430 124 L433 131 L438 130 L509 201 L518 225 L518 178 L518 97 L524 95 L562 182 L564 189 L564 112 L567 95 L596 142 L597 145 L597 142 L597 93 L603 89 L616 106 L623 138 L623 90 L634 100 L638 109 L639 111 L639 109 L641 77 L648 76 L651 80 L651 82 L659 82 L702 104 L708 112 L708 109 L712 93 L744 108 L762 144 L764 116 L773 89 L798 110 L806 129 L810 112 L820 78 L832 95 L838 123 L838 124 L862 35 L886 56 " fill="none" stroke="black" /></svg>