<?xml version="1.0" encoding="utf-8" ?>
<svg baseProfile="tiny" height="242" version="1.2" viewBox="-3 -3 644 242" width="644" xmlns="http://www.w3.org/2000/svg" xmlns:ev="http://www.w3.org/2001/xml-events" xmlns:xlink="http://www.w3.org/1999/xlink"><defs /><path d="M0 123 L157 136 L137 5 L221 115 L155 170 L160 1 L266 198 L187 103 L235 24 L305 138 L311 216 L294 86 L338 79 L363 206 L299 219 L341 54 L348 242 L338 52 L448 137 L264 122 L164 106 L280 78 L322 93 L324 110 L194 123 L98 115 L172 94 L491 82 L539 82 L408 64 L372 37 L361 7 L359 0 L383 37 L426 189 L405 197 L440 115 L511 191 L517 201 L528 186 L587 139 L618 150 L618 151 L618 143 L632 62 L644 77 L644 104 L642 103 " fill="none" stroke="black" /></svg>