<?xml version="1.0" encoding="utf-8" ?>
<svg baseProfile="tiny" height="67" version="1.2" viewBox="-3 -3 826 67" width="826" xmlns="http://www.w3.org/2000/svg" xmlns:ev="http://www.w3.org/2001/xml-events" xmlns:xlink="http://www.w3.org/1999/xlink"><defs /><path d="M1 67 L0 67 L1 63 L4 59 L5 56 L9 51 L12 48 L16 44 L19 40 L25 36 L30 33 L33 31 L36 30 L41 29 L46 28 L52 27 L60 27 L71 27 L77 29 L81 29 L86 31 L92 33 L98 35 L106 39 L120 44 L128 47 L133 50 L146 55 L169 59 L191 61 L198 61 L200 63 L208 63 L221 61 L237 57 L255 51 L267 46 L275 41 L285 34 L303 23 L315 20 L322 18 L327 17 L336 15 L340 15 L344 15 L355 15 L370 15 L375 15 L383 15 L397 17 L406 19 L410 20 L417 24 L426 30 L431 34 L439 40 L460 46 L481 50 L487 52 L497 55 L508 56 L515 58 L523 61 L532 63 L540 65 L550 65 L563 61 L580 52 L597 43 L612 31 L622 26 L628 21 L635 14 L644 9 L652 4 L657 2 L663 2 L676 0 L686 0 L695 0 L704 2 L717 5 L726 8 L732 12 L740 16 L753 24 L768 31 L790 38 L797 40 L799 40 L810 47 L820 50 L826 51 " fill="none" stroke="black" /></svg>