<?xml version="1.0" encoding="utf-8" ?>
<svg baseProfile="tiny" height="172" version="1.2" viewBox="-3 -3 716 172" width="716" xmlns="http://www.w3.org/2000/svg" xmlns:ev="http://www.w3.org/2001/xml-events" xmlns:xlink="http://www.w3.org/1999/xlink"><defs /><path d="M21 145 L18 138 L12 123 L4 98 L0 70 L0 44 L13 21 L26 9 L50 2 L89 0 L112 6 L123 18 L130 34 L135 51 L139 65 L143 76 L147 85 L152 95 L159 107 L163 114 L169 123 L174 132 L180 140 L183 143 L195 151 L206 157 L218 161 L235 166 L253 169 L264 172 L272 172 L288 172 L301 172 L314 171 L325 168 L329 167 L334 165 L345 162 L353 158 L359 156 L369 151 L386 144 L393 141 L401 140 L410 138 L417 136 L423 135 L430 133 L439 133 L447 131 L454 131 L463 131 L472 130 L482 130 L493 130 L500 130 L510 130 L517 132 L527 133 L540 134 L552 135 L560 135 L573 136 L583 136 L584 136 L585 136 L590 136 L595 137 L604 139 L632 144 L650 146 L671 147 L679 147 L687 147 L702 148 L716 148 " fill="none" stroke="black" /></svg>