<?xml version="1.0" encoding="utf-8" ?>
<svg baseProfile="tiny" height="88" version="1.2" viewBox="-3 -3 422 88" width="422" xmlns="http://www.w3.org/2000/svg" xmlns:ev="http://www.w3.org/2001/xml-events" xmlns:xlink="http://www.w3.org/1999/xlink"><defs /><path d="M0 42 L2 42 L11 43 L21 43 L28 43 L33 43 L39 41 L44 39 L46 36 L50 32 L53 26 L55 21 L55 15 L52 7 L48 3 L45 1 L43 0 L41 0 L38 0 L35 1 L32 5 L31 8 L31 10 L31 14 L34 19 L35 23 L38 26 L41 30 L44 32 L46 33 L50 34 L53 35 L58 35 L64 36 L70 36 L75 36 L88 36 L96 37 L102 38 L107 38 L111 37 L113 36 L115 33 L116 28 L116 21 L116 17 L116 12 L114 7 L113 4 L110 1 L107 0 L104 0 L100 3 L97 7 L94 14 L92 19 L89 26 L88 33 L89 34 L91 37 L97 45 L102 50 L114 55 L132 56 L145 54 L153 54 L169 53 L183 51 L195 47 L205 43 L210 38 L213 30 L213 24 L210 18 L203 12 L196 9 L193 7 L192 7 L187 9 L179 18 L175 24 L175 28 L177 36 L179 44 L186 51 L199 60 L211 67 L220 68 L223 68 L225 68 L233 66 L249 65 L266 61 L281 55 L288 51 L296 45 L300 40 L301 35 L297 24 L288 14 L283 13 L278 13 L273 15 L271 16 L269 18 L268 25 L268 34 L275 48 L288 63 L298 71 L308 75 L324 82 L347 88 L374 85 L388 75 L397 67 L405 57 L415 48 L422 38 L422 32 L422 31 " fill="none" stroke="black" /></svg>