<?xml version="1.0" encoding="utf-8" ?>
<svg baseProfile="tiny" height="134" version="1.2" viewBox="-3 -3 698 134" width="698" xmlns="http://www.w3.org/2000/svg" xmlns:ev="http://www.w3.org/2001/xml-events" xmlns:xlink="http://www.w3.org/1999/xlink"><defs /><path d="M445 72 L492 85 L448 69 L310 66 L250 93 L260 95 L318 96 L396 94 L415 94 L389 84 L353 57 L346 37 L363 18 L400 19 L450 62 L481 105 L479 112 L401 111 L276 84 L204 43 L225 31 L364 40 L531 69 L546 72 L454 68 L344 59 L324 56 L396 36 L632 0 L698 11 L504 83 L375 132 L455 134 L521 130 L454 128 L166 103 L0 67 L47 36 L266 10 L395 29 L394 62 L395 91 L403 87 L390 45 L374 22 L378 51 L418 114 L448 119 L449 103 " fill="none" stroke="black" /></svg>