<?xml version="1.0" encoding="utf-8" ?>
<svg baseProfile="tiny" height="130" version="1.2" viewBox="-3 -3 131 130" width="131" xmlns="http://www.w3.org/2000/svg" xmlns:ev="http://www.w3.org/2001/xml-events" xmlns:xlink="http://www.w3.org/1999/xlink"><defs /><path d="M71 76 L70 75 L68 73 L65 72 L63 71 " fill="none" stroke="black" /><path d="M71 76 L70 75 L68 73 L65 72 L63 71 M86 59 L85 59 L81 58 L75 53 L67 48 L59 45 L53 45 L51 47 L48 49 L45 53 L43 56 L42 60 L42 67 L42 73 L45 78 L48 86 L49 89 L50 91 L56 96 L73 104 L81 106 L85 106 L91 102 L92 99 L92 98 L93 98 L95 96 L105 92 L109 88 L112 84 L114 81 L114 76 L114 68 L114 60 L112 53 L109 49 L105 43 L99 36 L92 30 L84 25 L72 21 L64 15 L59 13 L53 13 L43 13 L32 15 L22 19 L14 24 L8 31 L4 41 L3 51 L2 56 L0 59 L0 63 L0 69 L1 75 L4 80 L6 87 L8 94 L13 101 L19 108 L24 112 L30 116 L39 119 L45 121 L47 122 L56 125 L67 125 L75 126 L80 127 L88 128 L92 129 L97 129 L101 129 L105 130 L109 130 L113 129 L116 127 L120 125 L122 121 L124 118 L125 116 L126 113 L129 110 L129 106 L130 103 L131 99 L131 96 L131 93 L131 89 L131 86 L131 80 L131 74 L131 70 L130 66 L128 62 L128 59 L128 58 L128 55 L128 52 L127 49 L126 44 L125 39 L123 36 L123 32 L121 27 L118 23 L115 18 L112 14 L109 12 L108 10 L105 9 L102 8 L100 6 L95 5 L93 3 L90 2 L88 1 L87 0 " fill="none" stroke="black" /></svg>