<?xml version="1.0" encoding="utf-8" ?>
<svg baseProfile="tiny" height="160" version="1.2" viewBox="-3 -3 185 160" width="185" xmlns="http://www.w3.org/2000/svg" xmlns:ev="http://www.w3.org/2001/xml-events" xmlns:xlink="http://www.w3.org/1999/xlink"><defs /><path d="M76 60 L75 63 L75 65 L75 67 L74 70 L74 76 L77 85 L81 89 L85 92 L86 92 L91 92 L97 92 L100 91 L100 84 L102 80 L102 78 L102 77 L102 75 L103 73 L103 71 L103 69 L101 66 L100 65 L99 62 L97 61 L96 61 L95 60 L92 60 L90 60 L89 60 L86 60 L85 60 L84 60 L82 59 L81 59 L81 60 " fill="none" stroke="black" /><path d="M76 60 L75 63 L75 65 L75 67 L74 70 L74 76 L77 85 L81 89 L85 92 L86 92 L91 92 L97 92 L100 91 L100 84 L102 80 L102 78 L102 77 L102 75 L103 73 L103 71 L103 69 L101 66 L100 65 L99 62 L97 61 L96 61 L95 60 L92 60 L90 60 L89 60 L86 60 L85 60 L84 60 L82 59 L81 59 L81 60 M93 36 L87 37 L69 35 L56 34 L52 34 L50 34 L48 37 L45 43 L43 50 L43 65 L44 74 L46 85 L50 93 L53 98 L60 103 L74 110 L87 116 L102 122 L111 122 L132 115 L147 108 L154 102 L156 97 L158 93 L159 84 L158 69 L150 58 L140 49 L130 42 L124 39 L120 37 L118 37 L115 37 L111 37 L106 37 L100 37 L94 37 L89 36 L87 36 L86 36 " fill="none" stroke="black" /><path d="M76 60 L75 63 L75 65 L75 67 L74 70 L74 76 L77 85 L81 89 L85 92 L86 92 L91 92 L97 92 L100 91 L100 84 L102 80 L102 78 L102 77 L102 75 L103 73 L103 71 L103 69 L101 66 L100 65 L99 62 L97 61 L96 61 L95 60 L92 60 L90 60 L89 60 L86 60 L85 60 L84 60 L82 59 L81 59 L81 60 M93 36 L87 37 L69 35 L56 34 L52 34 L50 34 L48 37 L45 43 L43 50 L43 65 L44 74 L46 85 L50 93 L53 98 L60 103 L74 110 L87 116 L102 122 L111 122 L132 115 L147 108 L154 102 L156 97 L158 93 L159 84 L158 69 L150 58 L140 49 L130 42 L124 39 L120 37 L118 37 L115 37 L111 37 L106 37 L100 37 L94 37 L89 36 L87 36 L86 36 M120 3 L109 3 L80 0 L45 0 L35 0 L27 4 L20 12 L12 19 L6 28 L2 37 L0 50 L1 78 L8 98 L11 110 L14 118 L23 124 L36 130 L50 135 L65 143 L91 151 L121 157 L133 159 L136 160 L142 160 L150 160 L155 160 L161 158 L168 155 L171 151 L174 147 L175 143 L178 137 L180 131 L181 125 L184 118 L185 115 L185 109 L181 98 L179 92 L179 87 L180 81 L179 72 L177 65 L172 59 L168 55 L166 52 L162 49 L158 46 L152 41 L148 33 L145 27 L141 22 L138 19 L134 16 L130 13 L128 11 L124 9 L120 7 L119 5 L117 4 L116 3 " fill="none" stroke="black" /></svg>