<?xml version="1.0" encoding="utf-8" ?>
<svg baseProfile="tiny" height="164" version="1.2" viewBox="-3 -3 834 164" width="834" xmlns="http://www.w3.org/2000/svg" xmlns:ev="http://www.w3.org/2001/xml-events" xmlns:xlink="http://www.w3.org/1999/xlink"><defs /><path d="M0 164 L5 134 L17 86 L27 64 L29 69 L36 108 L41 115 L57 60 L61 47 L63 48 L82 59 L113 53 L142 35 L158 30 L163 45 L180 86 L201 79 L234 27 L239 15 L245 36 L269 70 L294 67 L323 24 L323 20 L326 31 L337 52 L360 57 L387 23 L389 0 L390 1 L425 54 L472 86 L502 69 L507 30 L501 17 L505 24 L534 46 L577 56 L595 42 L593 24 L591 22 L602 38 L640 66 L694 62 L711 35 L710 23 L713 31 L735 49 L764 54 L783 29 L784 16 L790 20 L812 34 L834 41 " fill="none" stroke="black" /></svg>