<?xml version="1.0" encoding="utf-8" ?>
<svg baseProfile="tiny" height="36" version="1.2" viewBox="-3 -3 887 36" width="887" xmlns="http://www.w3.org/2000/svg" xmlns:ev="http://www.w3.org/2001/xml-events" xmlns:xlink="http://www.w3.org/1999/xlink"><defs /><path d="M0 27 L1 27 L6 28 L15 28 L21 28 L28 28 L39 31 L53 32 L62 32 L66 32 L70 32 L78 33 L88 34 L101 34 L111 35 L120 35 L130 35 L146 36 L158 36 L169 36 L187 36 L217 36 L233 36 L242 35 L255 35 L270 34 L286 34 L298 34 L314 33 L326 33 L341 34 L361 34 L379 34 L393 34 L409 33 L425 33 L446 33 L462 33 L482 31 L508 29 L531 29 L542 29 L552 29 L568 28 L579 28 L590 28 L609 27 L630 26 L647 24 L661 23 L673 21 L693 18 L716 15 L728 14 L738 14 L749 14 L754 13 L757 12 L766 11 L775 9 L781 8 L791 8 L800 8 L807 8 L821 7 L833 6 L844 5 L854 3 L861 1 L865 0 L872 0 L884 0 L887 0 " fill="none" stroke="black" /></svg>