<?xml version="1.0" encoding="utf-8" ?>
<svg baseProfile="tiny" height="276" version="1.2" viewBox="-3 -3 377 276" width="377" xmlns="http://www.w3.org/2000/svg" xmlns:ev="http://www.w3.org/2001/xml-events" xmlns:xlink="http://www.w3.org/1999/xlink"><defs /><path d="M188 76 L155 58 L125 69 L126 81 L236 80 L309 76 L267 99 L166 139 L147 145 L174 150 L291 176 L341 181 L229 147 L81 98 L69 92 L113 103 L184 128 L237 136 L254 123 L239 85 L222 60 L217 55 L221 58 L237 91 L243 224 L235 242 L227 222 L172 146 L66 42 L0 1 L0 0 L144 37 L334 75 L373 83 L323 84 L172 102 L106 130 L118 151 L152 168 L193 193 L204 207 L200 227 L186 262 L188 276 L238 250 L348 173 L377 119 L257 42 L132 25 L99 24 L98 24 L98 22 L99 17 L137 28 L302 108 L346 153 L320 179 L199 218 L71 266 L46 273 L46 260 L46 218 L45 162 L79 91 L123 46 L155 58 L189 106 L217 159 L244 202 L269 221 L290 213 " fill="none" stroke="black" /></svg>