<?xml version="1.0" encoding="utf-8" ?>
<svg baseProfile="tiny" height="157" version="1.2" viewBox="-3 -3 225 157" width="225" xmlns="http://www.w3.org/2000/svg" xmlns:ev="http://www.w3.org/2001/xml-events" xmlns:xlink="http://www.w3.org/1999/xlink"><defs /><path d="M221 38 L223 49 L223 62 L223 71 L225 81 L225 90 L225 99 L224 110 L213 133 L193 147 L186 149 L184 150 L174 153 L150 156 L132 157 L121 157 L110 157 L98 157 L89 157 L82 157 L78 156 L72 154 L66 150 L60 147 L55 142 L47 135 L45 134 L42 132 L39 130 L30 127 L20 125 L18 125 L14 121 L12 119 L10 113 L7 106 L7 104 L7 103 L7 99 L7 95 L4 88 L3 82 L2 76 L1 70 L1 65 L0 61 L0 53 L0 49 L2 44 L6 35 L10 28 L15 22 L20 17 L24 13 L30 10 L37 8 L45 8 L53 7 L60 6 L65 5 L70 5 L78 3 L83 1 L88 0 L93 0 L99 0 L107 1 L114 3 L122 7 L128 9 L134 11 L141 15 L147 18 L149 19 L152 22 L158 28 L163 34 L168 40 L173 46 L178 52 L181 57 L182 61 L184 66 L185 74 L185 82 L181 87 L175 95 L169 98 L164 100 L159 101 L151 103 L144 104 L141 106 L137 106 L132 106 L125 106 L119 106 L114 106 L105 106 L97 105 L90 103 L85 103 L80 102 L76 101 L70 99 L66 97 L62 92 L58 85 L56 81 L54 73 L51 63 L49 56 L48 46 L48 37 L50 30 L57 27 L66 27 L75 27 L79 25 L82 25 L89 25 L92 25 L94 24 L99 24 L103 24 L106 24 L108 24 L113 26 L116 28 L117 30 L119 31 L120 33 L121 35 L121 37 L122 40 L123 44 L123 47 L123 49 L124 50 L124 52 L124 53 L124 54 L122 56 L120 57 L119 58 L118 59 L118 60 L117 60 L115 61 " fill="none" stroke="black" /></svg>