<?xml version="1.0" encoding="utf-8" ?>
<svg baseProfile="tiny" height="65" version="1.2" viewBox="-3 -3 822 65" width="822" xmlns="http://www.w3.org/2000/svg" xmlns:ev="http://www.w3.org/2001/xml-events" xmlns:xlink="http://www.w3.org/1999/xlink"><defs /><path d="M0 65 L1 65 L4 61 L8 58 L12 53 L16 48 L21 45 L27 41 L32 38 L35 35 L39 32 L42 31 L45 31 L55 31 L63 33 L70 35 L78 38 L85 40 L95 45 L108 50 L119 54 L124 55 L128 57 L131 57 L142 59 L158 63 L165 63 L175 62 L190 59 L199 54 L208 50 L216 44 L223 39 L230 33 L237 30 L244 28 L250 27 L253 26 L259 26 L266 25 L269 25 L271 25 L274 25 L280 26 L285 29 L291 33 L301 36 L303 36 L304 36 L310 39 L317 42 L322 44 L329 46 L339 47 L349 49 L355 50 L361 51 L367 52 L373 52 L381 54 L391 54 L397 54 L405 50 L412 45 L421 40 L426 35 L431 30 L437 27 L442 25 L447 23 L453 22 L459 21 L466 19 L470 18 L473 18 L478 18 L483 18 L490 18 L495 18 L498 18 L501 20 L504 21 L510 23 L513 25 L515 25 L519 28 L522 29 L530 31 L533 33 L539 35 L552 38 L560 39 L568 40 L576 41 L586 41 L595 40 L603 39 L611 39 L624 34 L635 27 L644 18 L658 9 L670 4 L679 1 L688 1 L707 0 L732 2 L753 5 L757 6 L765 9 L772 9 L777 12 L786 16 L796 23 L803 33 L810 49 L814 53 L817 54 L822 54 " fill="none" stroke="black" /></svg>