<?xml version="1.0" encoding="utf-8" ?>
<svg baseProfile="tiny" height="211" version="1.2" viewBox="-3 -3 548 211" width="548" xmlns="http://www.w3.org/2000/svg" xmlns:ev="http://www.w3.org/2001/xml-events" xmlns:xlink="http://www.w3.org/1999/xlink"><defs /><path d="M0 131 L1 132 L2 132 L2 122 L2 95 L2 77 L7 69 L18 64 L24 66 L35 81 L41 90 L49 97 L69 100 L89 92 L99 90 L104 89 L109 89 L125 91 L140 83 L140 73 L141 66 L154 51 L175 32 L181 7 L177 0 L182 12 L206 32 L232 39 L242 43 L246 43 L247 46 L253 56 L273 80 L285 99 L286 102 L287 109 L289 122 L289 127 L298 139 L308 149 L307 151 L301 164 L305 176 L307 181 L307 191 L295 199 L285 206 L287 209 L304 211 L353 207 L361 204 L352 201 L361 171 L376 144 L379 134 L378 129 L376 127 L376 126 L384 116 L387 102 L378 90 L368 82 L367 70 L370 65 L393 57 L407 54 L407 53 L409 49 L419 41 L426 41 L444 50 L450 53 L452 56 L459 65 L463 69 L467 77 L475 87 L479 89 L485 91 L497 95 L511 97 L525 98 L536 101 L543 103 L548 106 " fill="none" stroke="black" /></svg>