<?xml version="1.0" encoding="utf-8" ?>
<svg baseProfile="tiny" height="218" version="1.2" viewBox="-3 -3 269 218" width="269" xmlns="http://www.w3.org/2000/svg" xmlns:ev="http://www.w3.org/2001/xml-events" xmlns:xlink="http://www.w3.org/1999/xlink"><defs /><path d="M0 127 L53 144 L113 141 L156 120 L169 96 L138 94 L36 133 L6 146 L95 115 L269 74 L240 86 L148 119 L159 124 L240 124 L269 120 L129 95 L30 78 L24 76 L45 89 L98 143 L137 177 L133 173 L120 103 L114 27 L119 36 L161 125 L209 209 L234 218 L232 189 L210 144 L159 127 L105 139 L39 161 L27 165 L36 158 L116 84 L210 4 L215 0 L195 36 L171 83 L181 118 L209 124 L221 101 L177 72 L74 89 L93 135 L179 154 L185 153 L184 153 " fill="none" stroke="black" /></svg>