<?xml version="1.0" encoding="utf-8" ?>
<svg baseProfile="tiny" height="33" version="1.2" viewBox="-3 -3 897 33" width="897" xmlns="http://www.w3.org/2000/svg" xmlns:ev="http://www.w3.org/2001/xml-events" xmlns:xlink="http://www.w3.org/1999/xlink"><defs /><path d="M0 22 L2 21 L5 19 L8 17 L9 17 L11 16 L13 15 L15 13 L19 12 L22 9 L25 7 L27 6 L31 5 L34 4 L38 3 L42 2 L49 1 L56 1 L64 1 L71 1 L78 1 L88 1 L99 1 L105 1 L112 1 L124 3 L140 4 L149 4 L159 6 L178 8 L189 11 L195 14 L197 15 L209 19 L240 25 L267 26 L287 29 L300 29 L307 29 L315 29 L330 30 L347 31 L369 31 L392 32 L422 33 L441 33 L456 33 L469 30 L487 26 L509 22 L533 18 L553 16 L564 13 L575 12 L593 9 L609 8 L620 7 L630 6 L648 5 L675 4 L689 3 L701 2 L715 0 L728 0 L742 0 L757 0 L768 0 L783 0 L798 1 L819 3 L845 5 L855 5 L859 5 L873 5 L881 5 L887 5 L892 4 L894 4 L897 4 " fill="none" stroke="black" /></svg>