<?xml version="1.0" encoding="utf-8" ?>
<svg baseProfile="tiny" height="27" version="1.2" viewBox="-3 -3 565 27" width="565" xmlns="http://www.w3.org/2000/svg" xmlns:ev="http://www.w3.org/2001/xml-events" xmlns:xlink="http://www.w3.org/1999/xlink"><defs /><path d="M0 12 L2 10 L2 6 L0 6 L0 11 L17 22 L52 27 L67 24 L66 15 L64 10 L66 9 L73 12 L85 17 L122 22 L145 20 L149 17 L149 15 L160 18 L201 18 L210 11 L199 2 L182 0 L183 2 L199 10 L208 11 L219 11 L226 7 L228 5 L229 5 L234 6 L262 12 L358 19 L400 19 L397 17 L385 15 L384 15 L385 15 L397 16 L410 19 L413 18 L406 11 L392 7 L389 7 L396 13 L422 18 L452 19 L479 16 L483 13 L483 10 L486 9 L491 9 L527 11 L559 13 L565 13 " fill="none" stroke="black" /></svg>