<?xml version="1.0" encoding="utf-8" ?>
<svg baseProfile="tiny" height="186" version="1.2" viewBox="-3 -3 704 186" width="704" xmlns="http://www.w3.org/2000/svg" xmlns:ev="http://www.w3.org/2001/xml-events" xmlns:xlink="http://www.w3.org/1999/xlink"><defs /><path d="M10 153 L11 153 L23 144 L58 111 L74 59 L45 17 L12 0 L0 20 L13 45 L63 64 L147 87 L156 99 L149 124 L141 146 L141 152 L134 157 L123 163 L119 166 L119 167 L140 155 L184 144 L219 145 L236 145 L247 128 L259 116 L269 109 L281 93 L281 83 L282 82 L292 79 L323 84 L331 85 L339 86 L354 88 L371 89 L391 90 L413 92 L426 93 L444 95 L465 99 L475 100 L478 100 L484 103 L493 112 L496 126 L496 140 L496 142 L496 146 L496 154 L498 159 L506 163 L522 173 L554 182 L597 185 L607 186 L612 185 L624 184 L641 183 L658 181 L670 180 L682 179 L692 177 L698 175 L702 175 L704 175 " fill="none" stroke="black" /></svg>