<?xml version="1.0" encoding="utf-8" ?>
<svg baseProfile="tiny" height="386" version="1.2" viewBox="-3 -3 760 386" width="760" xmlns="http://www.w3.org/2000/svg" xmlns:ev="http://www.w3.org/2001/xml-events" xmlns:xlink="http://www.w3.org/1999/xlink"><defs /><path d="M398 225 L420 205 L317 161 L187 131 L173 137 L205 155 L285 163 L378 150 L368 141 L280 148 L189 199 L212 214 L417 209 L560 206 L416 221 L0 209 L73 173 L427 147 L572 160 L455 190 L195 201 L179 165 L500 20 L611 47 L324 224 L76 336 L400 190 L760 56 L667 113 L117 343 L28 386 L327 192 L484 37 L367 124 L154 295 L156 312 L335 188 L385 0 L214 90 L131 193 L280 200 L399 142 L384 124 L250 158 L230 236 L423 240 L639 212 L636 211 L458 251 " fill="none" stroke="black" /></svg>