<?xml version="1.0" encoding="utf-8" ?>
<svg baseProfile="tiny" height="39" version="1.2" viewBox="-3 -3 881 39" width="881" xmlns="http://www.w3.org/2000/svg" xmlns:ev="http://www.w3.org/2001/xml-events" xmlns:xlink="http://www.w3.org/1999/xlink"><defs /><path d="M0 28 L5 28 L14 28 L24 28 L32 28 L43 29 L52 30 L59 31 L70 31 L86 32 L102 34 L113 35 L125 34 L136 34 L151 35 L165 35 L183 36 L200 36 L218 37 L232 37 L244 37 L261 38 L282 38 L299 38 L315 38 L330 39 L342 39 L358 39 L379 39 L399 39 L412 38 L433 36 L448 35 L460 34 L476 32 L499 29 L524 25 L544 23 L567 20 L589 16 L608 13 L623 10 L640 9 L657 6 L676 3 L690 1 L714 0 L734 0 L755 0 L778 1 L813 2 L847 3 L871 3 L875 3 L881 3 " fill="none" stroke="black" /></svg>