<?xml version="1.0" encoding="utf-8" ?>
<svg baseProfile="tiny" height="52" version="1.2" viewBox="-3 -3 652 52" width="652" xmlns="http://www.w3.org/2000/svg" xmlns:ev="http://www.w3.org/2001/xml-events" xmlns:xlink="http://www.w3.org/1999/xlink"><defs /><path d="M0 52 L1 49 L9 38 L22 28 L29 22 L31 20 L33 17 L36 17 L41 21 L55 29 L69 36 L80 37 L95 37 L124 28 L138 18 L142 14 L145 13 L146 12 L147 12 L155 17 L164 21 L174 24 L181 23 L191 18 L200 15 L204 14 L209 14 L215 15 L230 17 L239 14 L241 8 L243 6 L256 9 L269 10 L278 10 L285 9 L292 5 L295 2 L298 1 L304 1 L313 3 L322 8 L338 10 L346 10 L357 8 L364 3 L369 0 L377 1 L391 10 L403 15 L410 16 L422 16 L433 10 L439 7 L442 7 L454 9 L470 17 L485 20 L493 22 L496 22 L503 17 L513 15 L521 16 L533 22 L551 23 L567 17 L579 8 L589 5 L600 5 L621 6 L641 7 L652 4 " fill="none" stroke="black" /></svg>