<?xml version="1.0" encoding="utf-8" ?>
<svg baseProfile="tiny" height="218" version="1.2" viewBox="-3 -3 342 218" width="342" xmlns="http://www.w3.org/2000/svg" xmlns:ev="http://www.w3.org/2001/xml-events" xmlns:xlink="http://www.w3.org/1999/xlink"><defs /><path d="M96 122 L131 126 L165 110 L172 83 L160 77 L145 89 L137 104 L143 108 L199 106 L236 98 L231 87 L201 78 L180 87 L190 114 L268 155 L342 181 L318 183 L190 177 L128 167 L138 146 L198 100 L240 72 L240 70 L239 57 L244 43 L246 34 L215 23 L83 31 L2 51 L0 61 L87 132 L201 186 L249 194 L229 197 L134 206 L103 217 L129 218 L177 215 L205 205 L200 189 L182 167 L177 136 L203 100 L246 79 L266 72 L268 67 L261 48 L231 20 L176 0 L72 16 L38 69 L110 142 L196 141 L217 130 L215 127 L207 121 L203 116 L192 115 L161 123 L151 147 L183 174 L222 191 L240 197 " fill="none" stroke="black" /></svg>