<?xml version="1.0" encoding="utf-8" ?>
<svg baseProfile="tiny" height="9" version="1.2" viewBox="-3 -3 722 9" width="722" xmlns="http://www.w3.org/2000/svg" xmlns:ev="http://www.w3.org/2001/xml-events" xmlns:xlink="http://www.w3.org/1999/xlink"><defs /><circle cx="0" cy="3" fill="black" r="1" /><circle cx="8" cy="3" fill="black" r="1" /><circle cx="18" cy="4" fill="black" r="1" /><circle cx="31" cy="4" fill="black" r="1" /><circle cx="39" cy="4" fill="black" r="1" /><circle cx="46" cy="4" fill="black" r="1" /><circle cx="52" cy="4" fill="black" r="1" /><circle cx="56" cy="4" fill="black" r="1" /><circle cx="61" cy="4" fill="black" r="1" /><circle cx="67" cy="4" fill="black" r="1" /><circle cx="70" cy="4" fill="black" r="1" /><circle cx="78" cy="4" fill="black" r="1" /><circle cx="87" cy="4" fill="black" r="1" /><circle cx="95" cy="4" fill="black" r="1" /><circle cx="95" cy="4" fill="black" r="1" /><circle cx="103" cy="4" fill="black" r="1" /><circle cx="120" cy="4" fill="black" r="1" /><path d="M127 4 L130 4 L138 4 L148 4 L151 4 L152 4 L153 4 L154 3 L156 3 L158 3 L161 3 L163 3 L165 3 L168 2 L171 2 L175 2 L177 2 L180 2 L182 2 L186 1 L190 1 L194 0 L198 0 L201 0 L204 0 L207 0 L210 0 L213 0 L216 0 L219 0 L224 0 L229 1 L235 1 L240 2 L242 2 L244 3 L247 3 L248 3 L251 3 L253 3 L254 3 L255 2 " fill="none" stroke="black" /><circle cx="266" cy="3" fill="black" r="1" /><circle cx="279" cy="3" fill="black" r="1" /><circle cx="284" cy="3" fill="black" r="1" /><path d="M127 4 L130 4 L138 4 L148 4 L151 4 L152 4 L153 4 L154 3 L156 3 L158 3 L161 3 L163 3 L165 3 L168 2 L171 2 L175 2 L177 2 L180 2 L182 2 L186 1 L190 1 L194 0 L198 0 L201 0 L204 0 L207 0 L210 0 L213 0 L216 0 L219 0 L224 0 L229 1 L235 1 L240 2 L242 2 L244 3 L247 3 L248 3 L251 3 L253 3 L254 3 L255 2 M288 3 L290 3 L295 3 L300 3 L302 3 L303 3 " fill="none" stroke="black" /><circle cx="326" cy="5" fill="black" r="1" /><circle cx="333" cy="5" fill="black" r="1" /><circle cx="338" cy="5" fill="black" r="1" /><circle cx="347" cy="5" fill="black" r="1" /><circle cx="347" cy="5" fill="black" r="1" /><path d="M127 4 L130 4 L138 4 L148 4 L151 4 L152 4 L153 4 L154 3 L156 3 L158 3 L161 3 L163 3 L165 3 L168 2 L171 2 L175 2 L177 2 L180 2 L182 2 L186 1 L190 1 L194 0 L198 0 L201 0 L204 0 L207 0 L210 0 L213 0 L216 0 L219 0 L224 0 L229 1 L235 1 L240 2 L242 2 L244 3 L247 3 L248 3 L251 3 L253 3 L254 3 L255 2 M288 3 L290 3 L295 3 L300 3 L302 3 L303 3 M370 5 L373 5 L376 5 L378 5 L379 5 L380 5 L381 5 L383 5 L386 5 L388 6 L390 6 L393 6 L395 6 L397 6 L401 6 L405 6 L409 6 L413 6 L417 6 L420 6 L422 6 L423 6 L424 6 L425 6 L427 6 L429 6 L436 6 L443 6 L448 6 " fill="none" stroke="black" /><circle cx="463" cy="7" fill="black" r="1" /><circle cx="485" cy="8" fill="black" r="1" /><circle cx="499" cy="8" fill="black" r="1" /><circle cx="514" cy="8" fill="black" r="1" /><path d="M127 4 L130 4 L138 4 L148 4 L151 4 L152 4 L153 4 L154 3 L156 3 L158 3 L161 3 L163 3 L165 3 L168 2 L171 2 L175 2 L177 2 L180 2 L182 2 L186 1 L190 1 L194 0 L198 0 L201 0 L204 0 L207 0 L210 0 L213 0 L216 0 L219 0 L224 0 L229 1 L235 1 L240 2 L242 2 L244 3 L247 3 L248 3 L251 3 L253 3 L254 3 L255 2 M288 3 L290 3 L295 3 L300 3 L302 3 L303 3 M370 5 L373 5 L376 5 L378 5 L379 5 L380 5 L381 5 L383 5 L386 5 L388 6 L390 6 L393 6 L395 6 L397 6 L401 6 L405 6 L409 6 L413 6 L417 6 L420 6 L422 6 L423 6 L424 6 L425 6 L427 6 L429 6 L436 6 L443 6 L448 6 M526 8 L532 8 L542 8 L557 8 L575 8 L585 8 L591 9 L593 9 L594 9 " fill="none" stroke="black" /><circle cx="609" cy="9" fill="black" r="1" /><circle cx="621" cy="9" fill="black" r="1" /><circle cx="624" cy="9" fill="black" r="1" /><circle cx="632" cy="9" fill="black" r="1" /><circle cx="645" cy="9" fill="black" r="1" /><path d="M127 4 L130 4 L138 4 L148 4 L151 4 L152 4 L153 4 L154 3 L156 3 L158 3 L161 3 L163 3 L165 3 L168 2 L171 2 L175 2 L177 2 L180 2 L182 2 L186 1 L190 1 L194 0 L198 0 L201 0 L204 0 L207 0 L210 0 L213 0 L216 0 L219 0 L224 0 L229 1 L235 1 L240 2 L242 2 L244 3 L247 3 L248 3 L251 3 L253 3 L254 3 L255 2 M288 3 L290 3 L295 3 L300 3 L302 3 L303 3 M370 5 L373 5 L376 5 L378 5 L379 5 L380 5 L381 5 L383 5 L386 5 L388 6 L390 6 L393 6 L395 6 L397 6 L401 6 L405 6 L409 6 L413 6 L417 6 L420 6 L422 6 L423 6 L424 6 L425 6 L427 6 L429 6 L436 6 L443 6 L448 6 M526 8 L532 8 L542 8 L557 8 L575 8 L585 8 L591 9 L593 9 L594 9 M665 9 L667 9 L676 9 L695 9 L709 9 L719 9 L721 9 L722 9 " fill="none" stroke="black" /></svg>