<?xml version="1.0" encoding="utf-8" ?>
<svg baseProfile="tiny" height="157" version="1.2" viewBox="-3 -3 183 157" width="183" xmlns="http://www.w3.org/2000/svg" xmlns:ev="http://www.w3.org/2001/xml-events" xmlns:xlink="http://www.w3.org/1999/xlink"><defs /><path d="M58 56 L56 56 L53 55 L49 51 L46 47 L46 42 L47 37 L52 30 L56 22 L59 14 L59 9 L59 5 L56 1 L55 0 L54 0 L58 3 L75 22 L85 35 L90 43 L93 47 L94 50 L94 51 L94 52 L93 52 L93 48 L94 43 L100 35 L109 29 L119 24 L128 21 L134 19 L139 15 L142 12 L144 8 L145 5 L146 5 L146 8 L144 14 L143 22 L144 34 L145 41 L145 48 L140 54 L134 58 L131 60 L130 60 L131 61 L136 65 L142 74 L149 86 L157 99 L162 104 L167 109 L172 113 L176 118 L181 126 L183 130 L183 131 L182 130 L177 127 L173 124 L166 120 L155 108 L144 93 L137 86 L132 84 L130 84 L129 85 L129 90 L128 98 L127 105 L126 110 L125 114 L125 123 L125 131 L125 137 L123 141 L122 145 L118 150 L115 153 L113 155 L111 157 L110 157 L111 154 L113 145 L115 134 L115 121 L111 115 L108 112 L106 111 L105 112 L102 118 L93 131 L85 141 L76 147 L65 150 L54 151 L44 151 L38 151 L36 151 L36 150 L36 149 L37 145 L43 138 L52 126 L55 120 L56 116 L56 113 L56 112 L54 111 L49 110 L41 108 L28 105 L17 99 L10 93 L4 86 L1 78 L0 72 L0 65 L4 58 L8 53 L12 49 L14 47 L14 46 L14 47 L17 55 L25 64 L32 70 L39 73 L45 74 L50 74 L54 74 L56 73 L58 70 L60 67 L61 65 L62 64 L62 62 L59 60 L57 58 L55 57 L55 56 L54 55 L53 55 L52 54 L52 53 L52 52 L52 51 L52 50 L52 49 " fill="none" stroke="black" /></svg>