<?xml version="1.0" encoding="utf-8" ?>
<svg baseProfile="tiny" height="219" version="1.2" viewBox="-3 -3 398 219" width="398" xmlns="http://www.w3.org/2000/svg" xmlns:ev="http://www.w3.org/2001/xml-events" xmlns:xlink="http://www.w3.org/1999/xlink"><defs /><path d="M55 218 L38 212 L21 202 L10 190 L2 176 L0 158 L0 140 L5 123 L14 106 L20 94 L28 83 L35 74 L43 66 L55 55 L66 48 L80 41 L102 32 L127 21 L153 11 L187 3 L226 1 L253 0 L277 0 L301 1 L322 6 L347 16 L364 25 L376 33 L385 41 L390 48 L391 55 L393 63 L394 69 L394 74 L395 81 L397 90 L398 98 L398 105 L398 115 L398 130 L395 145 L391 155 L387 163 L384 171 L382 176 L378 182 L372 187 L367 191 L364 193 L362 195 L361 196 L359 198 L358 199 L354 201 L347 204 L332 209 L323 211 L312 213 L300 213 L281 213 L263 213 L248 213 L234 215 L223 216 L208 218 L191 219 L170 219 L144 219 L128 219 L116 218 L103 217 L92 216 L79 213 L69 210 L59 204 L50 199 L41 190 L33 181 L26 170 L19 156 L16 147 L15 135 L15 123 L15 111 L19 102 L30 86 L41 70 L54 60 L76 50 L110 42 L144 33 L170 27 L196 22 L216 20 L236 20 L261 22 L287 28 L315 37 L340 48 L358 59 L370 70 L376 75 L382 81 L387 88 L388 90 L389 91 " fill="none" stroke="black" /><circle cx="58" cy="127" fill="black" r="1" /><circle cx="131" cy="91" fill="black" r="1" /><path d="M55 218 L38 212 L21 202 L10 190 L2 176 L0 158 L0 140 L5 123 L14 106 L20 94 L28 83 L35 74 L43 66 L55 55 L66 48 L80 41 L102 32 L127 21 L153 11 L187 3 L226 1 L253 0 L277 0 L301 1 L322 6 L347 16 L364 25 L376 33 L385 41 L390 48 L391 55 L393 63 L394 69 L394 74 L395 81 L397 90 L398 98 L398 105 L398 115 L398 130 L395 145 L391 155 L387 163 L384 171 L382 176 L378 182 L372 187 L367 191 L364 193 L362 195 L361 196 L359 198 L358 199 L354 201 L347 204 L332 209 L323 211 L312 213 L300 213 L281 213 L263 213 L248 213 L234 215 L223 216 L208 218 L191 219 L170 219 L144 219 L128 219 L116 218 L103 217 L92 216 L79 213 L69 210 L59 204 L50 199 L41 190 L33 181 L26 170 L19 156 L16 147 L15 135 L15 123 L15 111 L19 102 L30 86 L41 70 L54 60 L76 50 L110 42 L144 33 L170 27 L196 22 L216 20 L236 20 L261 22 L287 28 L315 37 L340 48 L358 59 L370 70 L376 75 L382 81 L387 88 L388 90 L389 91 M233 83 L234 83 " fill="none" stroke="black" /><circle cx="339" cy="87" fill="black" r="1" /><path d="M55 218 L38 212 L21 202 L10 190 L2 176 L0 158 L0 140 L5 123 L14 106 L20 94 L28 83 L35 74 L43 66 L55 55 L66 48 L80 41 L102 32 L127 21 L153 11 L187 3 L226 1 L253 0 L277 0 L301 1 L322 6 L347 16 L364 25 L376 33 L385 41 L390 48 L391 55 L393 63 L394 69 L394 74 L395 81 L397 90 L398 98 L398 105 L398 115 L398 130 L395 145 L391 155 L387 163 L384 171 L382 176 L378 182 L372 187 L367 191 L364 193 L362 195 L361 196 L359 198 L358 199 L354 201 L347 204 L332 209 L323 211 L312 213 L300 213 L281 213 L263 213 L248 213 L234 215 L223 216 L208 218 L191 219 L170 219 L144 219 L128 219 L116 218 L103 217 L92 216 L79 213 L69 210 L59 204 L50 199 L41 190 L33 181 L26 170 L19 156 L16 147 L15 135 L15 123 L15 111 L19 102 L30 86 L41 70 L54 60 L76 50 L110 42 L144 33 L170 27 L196 22 L216 20 L236 20 L261 22 L287 28 L315 37 L340 48 L358 59 L370 70 L376 75 L382 81 L387 88 L388 90 L389 91 M233 83 L234 83 M195 175 L193 175 L184 178 L163 181 L129 181 L104 179 L90 174 L84 170 L82 167 L82 163 L96 152 L118 140 L140 131 L158 127 L176 125 L194 125 L216 125 L233 127 L246 129 L257 132 L268 135 L279 140 L287 145 L291 147 L293 149 L294 150 L295 151 L295 153 L290 156 L284 159 L277 162 L272 164 L267 166 L259 167 L248 169 L231 170 L212 172 L199 173 L191 173 " fill="none" stroke="black" /></svg>