<?xml version="1.0" encoding="utf-8" ?>
<svg baseProfile="tiny" height="110" version="1.2" viewBox="-3 -3 138 110" width="138" xmlns="http://www.w3.org/2000/svg" xmlns:ev="http://www.w3.org/2001/xml-events" xmlns:xlink="http://www.w3.org/1999/xlink"><defs /><path d="M12 65 L15 65 L17 65 L19 65 L21 64 L24 63 L26 61 L27 60 L28 59 L29 58 L30 56 L31 54 L31 52 L31 51 L31 49 L30 48 L29 47 L27 46 L26 46 L24 46 L22 46 L20 46 L19 47 L17 48 L16 50 L14 53 L13 56 L13 58 L13 61 L13 63 L15 66 L18 69 L20 72 L22 75 L23 80 L23 83 L19 87 L14 89 L8 90 L4 90 L1 88 L0 84 L0 81 L0 79 L2 77 L6 77 L11 77 L16 77 L18 79 L21 83 L23 86 L27 89 L38 91 L46 91 L52 90 L55 88 L56 85 L57 81 L57 76 L53 71 L48 69 L45 69 L43 69 L42 69 L41 74 L41 78 L42 82 L46 85 L51 88 L58 90 L62 94 L64 97 L65 101 L65 105 L65 108 L63 110 L60 110 L58 108 L57 102 L57 96 L61 91 L68 88 L77 87 L85 85 L92 83 L96 80 L97 78 L98 74 L97 69 L93 66 L90 65 L87 65 L88 70 L98 79 L107 88 L112 94 L113 96 L113 98 L113 101 L107 103 L102 103 L100 98 L100 89 L101 82 L107 75 L113 72 L119 69 L123 66 L125 61 L125 56 L122 53 L116 52 L112 52 L110 52 L110 54 L110 57 L120 62 L129 66 L135 70 L138 72 L138 75 L136 79 L129 81 L121 77 L117 66 L117 51 L117 37 L122 28 L127 23 L129 21 L130 20 L127 18 L117 17 L108 17 L104 18 L103 19 L103 23 L108 29 L116 37 L120 42 L121 43 L115 44 L106 44 L98 37 L91 26 L87 16 L85 6 L85 2 L85 1 L85 0 " fill="none" stroke="black" /></svg>