<?xml version="1.0" encoding="utf-8" ?>
<svg baseProfile="tiny" height="174" version="1.2" viewBox="-3 -3 187 174" width="187" xmlns="http://www.w3.org/2000/svg" xmlns:ev="http://www.w3.org/2001/xml-events" xmlns:xlink="http://www.w3.org/1999/xlink"><defs /><path d="M151 113 L152 102 L150 86 L143 73 L135 61 L128 52 L120 45 L112 40 L103 38 L92 38 L78 44 L67 50 L59 56 L54 60 L49 65 L44 71 L42 74 L40 78 L40 84 L40 94 L51 116 L66 131 L84 142 L105 148 L127 149 L145 146 L155 141 L160 136 L162 127 L162 113 L162 101 L162 88 L157 69 L152 54 L147 46 L139 40 L126 36 L110 34 L93 34 L80 34 L67 35 L55 38 L43 42 L34 45 L27 49 L23 52 L21 59 L18 70 L18 82 L18 99 L22 120 L29 133 L41 142 L63 152 L79 160 L92 167 L110 169 L127 161 L142 149 L154 139 L162 128 L169 115 L175 102 L177 90 L177 77 L172 60 L163 42 L151 27 L137 12 L130 5 L120 1 L106 0 L89 1 L71 6 L52 14 L38 21 L27 28 L19 31 L12 37 L6 43 L2 56 L0 74 L0 91 L7 113 L22 134 L42 155 L65 171 L90 174 L117 168 L142 154 L159 142 L173 129 L180 119 L183 106 L186 91 L187 76 L179 59 L163 38 L143 20 L124 12 L112 8 L104 6 L95 6 L82 8 L71 17 L62 28 L57 35 L54 40 L51 44 L48 49 L45 54 L43 59 L42 66 L42 76 L46 90 L58 109 L66 118 L74 125 L80 131 L87 136 L97 141 L109 143 L117 143 L122 141 L127 134 L131 127 L133 123 L134 120 L134 119 L134 116 L133 110 L130 101 L128 97 L125 95 L122 92 L118 88 L115 86 L112 85 L110 85 L106 85 L102 86 L100 88 L98 89 L96 90 L96 92 L96 94 L96 97 L96 100 L96 101 L97 102 " fill="none" stroke="black" /></svg>