<?xml version="1.0" encoding="utf-8" ?>
<svg baseProfile="tiny" height="160" version="1.2" viewBox="-3 -3 416 160" width="416" xmlns="http://www.w3.org/2000/svg" xmlns:ev="http://www.w3.org/2001/xml-events" xmlns:xlink="http://www.w3.org/1999/xlink"><defs /><path d="M0 87 L3 83 L5 75 L9 68 L10 65 L12 65 L14 67 L16 73 L17 76 L18 77 L19 76 L19 73 L21 71 L26 70 L31 71 L34 74 L35 81 L34 89 L32 101 L35 110 L46 120 L57 130 L63 136 L65 139 L66 147 L67 155 L67 160 L67 157 L64 143 L63 111 L65 71 L67 45 L68 21 L68 7 L68 2 L69 1 L70 3 L71 12 L74 31 L78 60 L81 77 L83 83 L83 84 L84 81 L87 79 L90 77 L92 77 L93 77 L95 80 L99 88 L104 93 L110 95 L118 88 L123 84 L126 84 L128 85 L130 86 L137 87 L147 87 L150 88 L151 90 L152 91 L152 88 L156 73 L162 52 L165 36 L167 19 L168 6 L169 0 L170 0 L171 14 L173 48 L176 82 L177 100 L179 107 L180 107 L182 107 L183 107 L184 104 L189 90 L194 82 L198 79 L199 79 L199 82 L200 87 L202 91 L205 92 L211 88 L220 78 L226 73 L230 71 L233 72 L234 76 L236 78 L238 79 L244 79 L253 82 L259 87 L259 88 L264 84 L278 74 L290 65 L297 59 L298 56 L298 54 L298 53 L298 52 L299 54 L304 72 L305 93 L305 102 L305 103 L307 100 L308 100 L309 101 L310 103 L311 104 L315 99 L323 88 L325 86 L326 86 L327 86 L333 86 L344 87 L358 91 L364 94 L365 95 L366 93 L371 81 L376 74 L378 73 L379 73 L379 74 L379 75 L381 78 L384 81 L385 83 L386 84 L387 84 L388 83 L393 79 L398 74 L403 73 L407 74 L410 79 L413 83 L414 84 L415 84 L416 81 L416 80 " fill="none" stroke="black" /></svg>