<?xml version="1.0" encoding="utf-8" ?>
<svg baseProfile="tiny" height="557" version="1.2" viewBox="-3 -3 461 557" width="461" xmlns="http://www.w3.org/2000/svg" xmlns:ev="http://www.w3.org/2001/xml-events" xmlns:xlink="http://www.w3.org/1999/xlink"><defs /><path d="M96 232 L95 232 L101 236 L129 260 L158 283 L169 290 L159 268 L132 219 L104 175 L94 159 L94 155 L132 182 L173 233 L185 251 L188 253 L180 202 L176 157 L175 135 L183 161 L197 217 L203 259 L206 277 L215 259 L250 178 L270 129 L279 113 L282 120 L274 170 L246 254 L237 305 L235 319 L239 314 L262 280 L289 250 L308 239 L322 238 L325 238 L305 251 L260 274 L241 289 L234 312 L254 328 L282 348 L299 362 L306 372 L308 386 L297 404 L268 408 L234 401 L218 393 L215 391 L231 429 L247 475 L258 510 L262 525 L263 529 L246 491 L211 417 L183 371 L171 356 L167 354 L155 370 L131 410 L112 444 L103 458 L101 462 L100 462 L103 433 L116 363 L118 334 L115 323 L99 320 L67 320 L28 322 L4 318 L0 315 L8 313 L65 311 L155 315 L187 324 L202 330 L203 331 L202 330 " fill="none" stroke="black" /><path d="M96 232 L95 232 L101 236 L129 260 L158 283 L169 290 L159 268 L132 219 L104 175 L94 159 L94 155 L132 182 L173 233 L185 251 L188 253 L180 202 L176 157 L175 135 L183 161 L197 217 L203 259 L206 277 L215 259 L250 178 L270 129 L279 113 L282 120 L274 170 L246 254 L237 305 L235 319 L239 314 L262 280 L289 250 L308 239 L322 238 L325 238 L305 251 L260 274 L241 289 L234 312 L254 328 L282 348 L299 362 L306 372 L308 386 L297 404 L268 408 L234 401 L218 393 L215 391 L231 429 L247 475 L258 510 L262 525 L263 529 L246 491 L211 417 L183 371 L171 356 L167 354 L155 370 L131 410 L112 444 L103 458 L101 462 L100 462 L103 433 L116 363 L118 334 L115 323 L99 320 L67 320 L28 322 L4 318 L0 315 L8 313 L65 311 L155 315 L187 324 L202 330 L203 331 L202 330 M94 204 L91 193 L77 146 L61 84 L48 35 L41 9 L39 1 L38 0 L41 2 L50 12 L77 45 L128 103 L153 132 L160 140 L160 141 " fill="none" stroke="black" /><path d="M96 232 L95 232 L101 236 L129 260 L158 283 L169 290 L159 268 L132 219 L104 175 L94 159 L94 155 L132 182 L173 233 L185 251 L188 253 L180 202 L176 157 L175 135 L183 161 L197 217 L203 259 L206 277 L215 259 L250 178 L270 129 L279 113 L282 120 L274 170 L246 254 L237 305 L235 319 L239 314 L262 280 L289 250 L308 239 L322 238 L325 238 L305 251 L260 274 L241 289 L234 312 L254 328 L282 348 L299 362 L306 372 L308 386 L297 404 L268 408 L234 401 L218 393 L215 391 L231 429 L247 475 L258 510 L262 525 L263 529 L246 491 L211 417 L183 371 L171 356 L167 354 L155 370 L131 410 L112 444 L103 458 L101 462 L100 462 L103 433 L116 363 L118 334 L115 323 L99 320 L67 320 L28 322 L4 318 L0 315 L8 313 L65 311 L155 315 L187 324 L202 330 L203 331 L202 330 M94 204 L91 193 L77 146 L61 84 L48 35 L41 9 L39 1 L38 0 L41 2 L50 12 L77 45 L128 103 L153 132 L160 140 L160 141 M281 427 L283 427 L309 447 L363 492 L407 534 L423 551 L428 556 L429 557 L429 556 L425 547 L405 499 L378 430 L362 395 L349 373 L338 352 L334 343 L332 339 L332 338 " fill="none" stroke="black" /><path d="M96 232 L95 232 L101 236 L129 260 L158 283 L169 290 L159 268 L132 219 L104 175 L94 159 L94 155 L132 182 L173 233 L185 251 L188 253 L180 202 L176 157 L175 135 L183 161 L197 217 L203 259 L206 277 L215 259 L250 178 L270 129 L279 113 L282 120 L274 170 L246 254 L237 305 L235 319 L239 314 L262 280 L289 250 L308 239 L322 238 L325 238 L305 251 L260 274 L241 289 L234 312 L254 328 L282 348 L299 362 L306 372 L308 386 L297 404 L268 408 L234 401 L218 393 L215 391 L231 429 L247 475 L258 510 L262 525 L263 529 L246 491 L211 417 L183 371 L171 356 L167 354 L155 370 L131 410 L112 444 L103 458 L101 462 L100 462 L103 433 L116 363 L118 334 L115 323 L99 320 L67 320 L28 322 L4 318 L0 315 L8 313 L65 311 L155 315 L187 324 L202 330 L203 331 L202 330 M94 204 L91 193 L77 146 L61 84 L48 35 L41 9 L39 1 L38 0 L41 2 L50 12 L77 45 L128 103 L153 132 L160 140 L160 141 M281 427 L283 427 L309 447 L363 492 L407 534 L423 551 L428 556 L429 557 L429 556 L425 547 L405 499 L378 430 L362 395 L349 373 L338 352 L334 343 L332 339 L332 338 M323 166 L325 166 L350 156 L402 139 L436 131 L454 128 L460 128 L461 127 L453 134 L398 173 L318 237 L278 267 L258 280 L256 280 " fill="none" stroke="black" /><path d="M96 232 L95 232 L101 236 L129 260 L158 283 L169 290 L159 268 L132 219 L104 175 L94 159 L94 155 L132 182 L173 233 L185 251 L188 253 L180 202 L176 157 L175 135 L183 161 L197 217 L203 259 L206 277 L215 259 L250 178 L270 129 L279 113 L282 120 L274 170 L246 254 L237 305 L235 319 L239 314 L262 280 L289 250 L308 239 L322 238 L325 238 L305 251 L260 274 L241 289 L234 312 L254 328 L282 348 L299 362 L306 372 L308 386 L297 404 L268 408 L234 401 L218 393 L215 391 L231 429 L247 475 L258 510 L262 525 L263 529 L246 491 L211 417 L183 371 L171 356 L167 354 L155 370 L131 410 L112 444 L103 458 L101 462 L100 462 L103 433 L116 363 L118 334 L115 323 L99 320 L67 320 L28 322 L4 318 L0 315 L8 313 L65 311 L155 315 L187 324 L202 330 L203 331 L202 330 M94 204 L91 193 L77 146 L61 84 L48 35 L41 9 L39 1 L38 0 L41 2 L50 12 L77 45 L128 103 L153 132 L160 140 L160 141 M281 427 L283 427 L309 447 L363 492 L407 534 L423 551 L428 556 L429 557 L429 556 L425 547 L405 499 L378 430 L362 395 L349 373 L338 352 L334 343 L332 339 L332 338 M323 166 L325 166 L350 156 L402 139 L436 131 L454 128 L460 128 L461 127 L453 134 L398 173 L318 237 L278 267 L258 280 L256 280 M78 350 L75 353 L70 359 L69 361 L73 361 L85 358 L91 357 L92 357 L89 364 L85 377 L84 382 L84 384 L84 383 L88 380 L93 377 L95 376 L96 376 " fill="none" stroke="black" /></svg>