<?xml version="1.0" encoding="utf-8" ?>
<svg baseProfile="tiny" height="123" version="1.2" viewBox="-3 -3 137 123" width="137" xmlns="http://www.w3.org/2000/svg" xmlns:ev="http://www.w3.org/2001/xml-events" xmlns:xlink="http://www.w3.org/1999/xlink"><defs /><path d="M110 123 L118 114 L123 107 L127 101 L131 95 L133 90 L135 85 L137 79 L137 73 L137 66 L137 62 L135 58 L133 52 L132 48 L130 45 L127 41 L124 38 L121 34 L118 31 L113 27 L109 24 L106 21 L103 18 L100 16 L96 13 L93 11 L90 9 L85 7 L80 5 L75 3 L70 2 L66 1 L63 1 L61 0 L58 0 L57 0 L55 0 L53 0 L52 0 L51 0 L50 0 L47 0 L46 1 L43 2 L40 3 L37 4 L33 6 L29 9 L26 12 L22 16 L18 20 L14 23 L12 27 L8 31 L6 34 L4 37 L3 39 L1 43 L0 49 L0 56 L0 61 L0 65 L0 69 L1 75 L3 80 L6 85 L9 91 L13 96 L17 99 L21 103 L26 106 L32 108 L36 110 L40 110 L45 111 L51 112 L56 112 L62 112 L67 110 L71 108 L74 106 L77 105 L80 103 L83 100 L86 97 L89 94 L91 91 L92 87 L93 82 L93 77 L93 73 L93 69 L93 65 L92 61 L90 56 L88 52 L84 48 L80 44 L75 40 L70 37 L66 35 L63 33 L59 32 L55 31 L52 30 L48 30 L42 30 L37 33 L32 36 L28 39 L26 41 L24 43 L24 46 L23 48 L23 52 L23 55 L23 58 L23 61 L23 64 L24 66 L25 68 L26 70 L28 73 L30 75 L33 77 L35 78 L36 79 L37 79 L38 79 L39 79 L40 79 L42 79 L45 79 L48 79 L50 79 L51 79 L52 79 L53 79 L54 79 L55 78 L56 77 L57 75 L57 74 L58 73 L59 71 L60 69 L60 67 L60 66 L60 65 L60 64 " fill="none" stroke="black" /></svg>