<?xml version="1.0" encoding="utf-8" ?>
<svg baseProfile="tiny" height="340" version="1.2" viewBox="-3 -3 483 340" width="483" xmlns="http://www.w3.org/2000/svg" xmlns:ev="http://www.w3.org/2001/xml-events" xmlns:xlink="http://www.w3.org/1999/xlink"><defs /><path d="M10 41 L8 60 L4 102 L1 149 L0 189 L2 227 L9 246 L17 259 L27 264 L43 265 L60 248 L76 204 L80 148 L83 88 L83 41 L82 15 L78 5 L70 0 L57 1 L42 10 L32 18 L29 23 L28 24 L33 19 " fill="none" stroke="black" /><path d="M10 41 L8 60 L4 102 L1 149 L0 189 L2 227 L9 246 L17 259 L27 264 L43 265 L60 248 L76 204 L80 148 L83 88 L83 41 L82 15 L78 5 L70 0 L57 1 L42 10 L32 18 L29 23 L28 24 L33 19 M99 22 L100 24 L102 33 L106 53 L111 87 L112 112 L112 129 L104 139 L98 142 L96 143 " fill="none" stroke="black" /><path d="M10 41 L8 60 L4 102 L1 149 L0 189 L2 227 L9 246 L17 259 L27 264 L43 265 L60 248 L76 204 L80 148 L83 88 L83 41 L82 15 L78 5 L70 0 L57 1 L42 10 L32 18 L29 23 L28 24 L33 19 M99 22 L100 24 L102 33 L106 53 L111 87 L112 112 L112 129 L104 139 L98 142 L96 143 M118 23 L118 24 L121 31 L131 47 L142 71 L146 89 L147 111 L144 135 L135 146 L130 152 L127 155 L126 156 " fill="none" stroke="black" /><path d="M10 41 L8 60 L4 102 L1 149 L0 189 L2 227 L9 246 L17 259 L27 264 L43 265 L60 248 L76 204 L80 148 L83 88 L83 41 L82 15 L78 5 L70 0 L57 1 L42 10 L32 18 L29 23 L28 24 L33 19 M99 22 L100 24 L102 33 L106 53 L111 87 L112 112 L112 129 L104 139 L98 142 L96 143 M118 23 L118 24 L121 31 L131 47 L142 71 L146 89 L147 111 L144 135 L135 146 L130 152 L127 155 L126 156 M156 33 L157 34 L168 43 L177 59 L184 79 L188 106 L182 137 L173 152 L164 163 L157 168 L154 170 " fill="none" stroke="black" /><path d="M10 41 L8 60 L4 102 L1 149 L0 189 L2 227 L9 246 L17 259 L27 264 L43 265 L60 248 L76 204 L80 148 L83 88 L83 41 L82 15 L78 5 L70 0 L57 1 L42 10 L32 18 L29 23 L28 24 L33 19 M99 22 L100 24 L102 33 L106 53 L111 87 L112 112 L112 129 L104 139 L98 142 L96 143 M118 23 L118 24 L121 31 L131 47 L142 71 L146 89 L147 111 L144 135 L135 146 L130 152 L127 155 L126 156 M156 33 L157 34 L168 43 L177 59 L184 79 L188 106 L182 137 L173 152 L164 163 L157 168 L154 170 M197 40 L203 41 L218 53 L226 66 L230 76 L231 89 L226 103 L219 116 L213 124 L210 127 L206 129 L204 131 L202 133 L200 136 L199 136 " fill="none" stroke="black" /><path d="M10 41 L8 60 L4 102 L1 149 L0 189 L2 227 L9 246 L17 259 L27 264 L43 265 L60 248 L76 204 L80 148 L83 88 L83 41 L82 15 L78 5 L70 0 L57 1 L42 10 L32 18 L29 23 L28 24 L33 19 M99 22 L100 24 L102 33 L106 53 L111 87 L112 112 L112 129 L104 139 L98 142 L96 143 M118 23 L118 24 L121 31 L131 47 L142 71 L146 89 L147 111 L144 135 L135 146 L130 152 L127 155 L126 156 M156 33 L157 34 L168 43 L177 59 L184 79 L188 106 L182 137 L173 152 L164 163 L157 168 L154 170 M197 40 L203 41 L218 53 L226 66 L230 76 L231 89 L226 103 L219 116 L213 124 L210 127 L206 129 L204 131 L202 133 L200 136 L199 136 M243 42 L244 42 L253 50 L260 58 L264 70 L264 91 L256 129 L243 152 L227 165 L212 171 L204 173 L202 174 L201 174 L202 173 " fill="none" stroke="black" /><path d="M10 41 L8 60 L4 102 L1 149 L0 189 L2 227 L9 246 L17 259 L27 264 L43 265 L60 248 L76 204 L80 148 L83 88 L83 41 L82 15 L78 5 L70 0 L57 1 L42 10 L32 18 L29 23 L28 24 L33 19 M99 22 L100 24 L102 33 L106 53 L111 87 L112 112 L112 129 L104 139 L98 142 L96 143 M118 23 L118 24 L121 31 L131 47 L142 71 L146 89 L147 111 L144 135 L135 146 L130 152 L127 155 L126 156 M156 33 L157 34 L168 43 L177 59 L184 79 L188 106 L182 137 L173 152 L164 163 L157 168 L154 170 M197 40 L203 41 L218 53 L226 66 L230 76 L231 89 L226 103 L219 116 L213 124 L210 127 L206 129 L204 131 L202 133 L200 136 L199 136 M243 42 L244 42 L253 50 L260 58 L264 70 L264 91 L256 129 L243 152 L227 165 L212 171 L204 173 L202 174 L201 174 L202 173 M289 31 L289 33 L296 47 L303 74 L304 110 L299 139 L281 164 L257 186 L244 194 L237 198 L236 198 L236 197 " fill="none" stroke="black" /><path d="M10 41 L8 60 L4 102 L1 149 L0 189 L2 227 L9 246 L17 259 L27 264 L43 265 L60 248 L76 204 L80 148 L83 88 L83 41 L82 15 L78 5 L70 0 L57 1 L42 10 L32 18 L29 23 L28 24 L33 19 M99 22 L100 24 L102 33 L106 53 L111 87 L112 112 L112 129 L104 139 L98 142 L96 143 M118 23 L118 24 L121 31 L131 47 L142 71 L146 89 L147 111 L144 135 L135 146 L130 152 L127 155 L126 156 M156 33 L157 34 L168 43 L177 59 L184 79 L188 106 L182 137 L173 152 L164 163 L157 168 L154 170 M197 40 L203 41 L218 53 L226 66 L230 76 L231 89 L226 103 L219 116 L213 124 L210 127 L206 129 L204 131 L202 133 L200 136 L199 136 M243 42 L244 42 L253 50 L260 58 L264 70 L264 91 L256 129 L243 152 L227 165 L212 171 L204 173 L202 174 L201 174 L202 173 M289 31 L289 33 L296 47 L303 74 L304 110 L299 139 L281 164 L257 186 L244 194 L237 198 L236 198 L236 197 M318 58 L318 60 L324 72 L325 93 L326 129 L319 163 L311 179 L304 188 L303 189 L305 188 " fill="none" stroke="black" /><path d="M10 41 L8 60 L4 102 L1 149 L0 189 L2 227 L9 246 L17 259 L27 264 L43 265 L60 248 L76 204 L80 148 L83 88 L83 41 L82 15 L78 5 L70 0 L57 1 L42 10 L32 18 L29 23 L28 24 L33 19 M99 22 L100 24 L102 33 L106 53 L111 87 L112 112 L112 129 L104 139 L98 142 L96 143 M118 23 L118 24 L121 31 L131 47 L142 71 L146 89 L147 111 L144 135 L135 146 L130 152 L127 155 L126 156 M156 33 L157 34 L168 43 L177 59 L184 79 L188 106 L182 137 L173 152 L164 163 L157 168 L154 170 M197 40 L203 41 L218 53 L226 66 L230 76 L231 89 L226 103 L219 116 L213 124 L210 127 L206 129 L204 131 L202 133 L200 136 L199 136 M243 42 L244 42 L253 50 L260 58 L264 70 L264 91 L256 129 L243 152 L227 165 L212 171 L204 173 L202 174 L201 174 L202 173 M289 31 L289 33 L296 47 L303 74 L304 110 L299 139 L281 164 L257 186 L244 194 L237 198 L236 198 L236 197 M318 58 L318 60 L324 72 L325 93 L326 129 L319 163 L311 179 L304 188 L303 189 L305 188 M344 115 L344 117 L344 125 L345 139 L344 156 L333 178 L321 196 L316 203 L315 205 L314 205 " fill="none" stroke="black" /><path d="M10 41 L8 60 L4 102 L1 149 L0 189 L2 227 L9 246 L17 259 L27 264 L43 265 L60 248 L76 204 L80 148 L83 88 L83 41 L82 15 L78 5 L70 0 L57 1 L42 10 L32 18 L29 23 L28 24 L33 19 M99 22 L100 24 L102 33 L106 53 L111 87 L112 112 L112 129 L104 139 L98 142 L96 143 M118 23 L118 24 L121 31 L131 47 L142 71 L146 89 L147 111 L144 135 L135 146 L130 152 L127 155 L126 156 M156 33 L157 34 L168 43 L177 59 L184 79 L188 106 L182 137 L173 152 L164 163 L157 168 L154 170 M197 40 L203 41 L218 53 L226 66 L230 76 L231 89 L226 103 L219 116 L213 124 L210 127 L206 129 L204 131 L202 133 L200 136 L199 136 M243 42 L244 42 L253 50 L260 58 L264 70 L264 91 L256 129 L243 152 L227 165 L212 171 L204 173 L202 174 L201 174 L202 173 M289 31 L289 33 L296 47 L303 74 L304 110 L299 139 L281 164 L257 186 L244 194 L237 198 L236 198 L236 197 M318 58 L318 60 L324 72 L325 93 L326 129 L319 163 L311 179 L304 188 L303 189 L305 188 M344 115 L344 117 L344 125 L345 139 L344 156 L333 178 L321 196 L316 203 L315 205 L314 205 M375 81 L379 90 L395 125 L409 189 L412 275 L384 326 L365 337 L356 340 L354 340 L355 340 L356 340 L356 339 " fill="none" stroke="black" /><path d="M10 41 L8 60 L4 102 L1 149 L0 189 L2 227 L9 246 L17 259 L27 264 L43 265 L60 248 L76 204 L80 148 L83 88 L83 41 L82 15 L78 5 L70 0 L57 1 L42 10 L32 18 L29 23 L28 24 L33 19 M99 22 L100 24 L102 33 L106 53 L111 87 L112 112 L112 129 L104 139 L98 142 L96 143 M118 23 L118 24 L121 31 L131 47 L142 71 L146 89 L147 111 L144 135 L135 146 L130 152 L127 155 L126 156 M156 33 L157 34 L168 43 L177 59 L184 79 L188 106 L182 137 L173 152 L164 163 L157 168 L154 170 M197 40 L203 41 L218 53 L226 66 L230 76 L231 89 L226 103 L219 116 L213 124 L210 127 L206 129 L204 131 L202 133 L200 136 L199 136 M243 42 L244 42 L253 50 L260 58 L264 70 L264 91 L256 129 L243 152 L227 165 L212 171 L204 173 L202 174 L201 174 L202 173 M289 31 L289 33 L296 47 L303 74 L304 110 L299 139 L281 164 L257 186 L244 194 L237 198 L236 198 L236 197 M318 58 L318 60 L324 72 L325 93 L326 129 L319 163 L311 179 L304 188 L303 189 L305 188 M344 115 L344 117 L344 125 L345 139 L344 156 L333 178 L321 196 L316 203 L315 205 L314 205 M375 81 L379 90 L395 125 L409 189 L412 275 L384 326 L365 337 L356 340 L354 340 L355 340 L356 340 L356 339 M423 108 L424 108 L428 111 L435 130 L438 154 L438 177 L437 187 L433 191 L431 191 L431 190 " fill="none" stroke="black" /><path d="M10 41 L8 60 L4 102 L1 149 L0 189 L2 227 L9 246 L17 259 L27 264 L43 265 L60 248 L76 204 L80 148 L83 88 L83 41 L82 15 L78 5 L70 0 L57 1 L42 10 L32 18 L29 23 L28 24 L33 19 M99 22 L100 24 L102 33 L106 53 L111 87 L112 112 L112 129 L104 139 L98 142 L96 143 M118 23 L118 24 L121 31 L131 47 L142 71 L146 89 L147 111 L144 135 L135 146 L130 152 L127 155 L126 156 M156 33 L157 34 L168 43 L177 59 L184 79 L188 106 L182 137 L173 152 L164 163 L157 168 L154 170 M197 40 L203 41 L218 53 L226 66 L230 76 L231 89 L226 103 L219 116 L213 124 L210 127 L206 129 L204 131 L202 133 L200 136 L199 136 M243 42 L244 42 L253 50 L260 58 L264 70 L264 91 L256 129 L243 152 L227 165 L212 171 L204 173 L202 174 L201 174 L202 173 M289 31 L289 33 L296 47 L303 74 L304 110 L299 139 L281 164 L257 186 L244 194 L237 198 L236 198 L236 197 M318 58 L318 60 L324 72 L325 93 L326 129 L319 163 L311 179 L304 188 L303 189 L305 188 M344 115 L344 117 L344 125 L345 139 L344 156 L333 178 L321 196 L316 203 L315 205 L314 205 M375 81 L379 90 L395 125 L409 189 L412 275 L384 326 L365 337 L356 340 L354 340 L355 340 L356 340 L356 339 M423 108 L424 108 L428 111 L435 130 L438 154 L438 177 L437 187 L433 191 L431 191 L431 190 M466 84 L471 90 L479 108 L483 141 L483 194 L478 237 L471 261 L469 265 L468 265 L467 265 " fill="none" stroke="black" /></svg>