<?xml version="1.0" encoding="utf-8" ?>
<svg baseProfile="tiny" height="96" version="1.2" viewBox="-3 -3 178 96" width="178" xmlns="http://www.w3.org/2000/svg" xmlns:ev="http://www.w3.org/2001/xml-events" xmlns:xlink="http://www.w3.org/1999/xlink"><defs /><path d="M92 43 L91 43 L91 44 L91 45 L91 46 L91 47 L91 49 L91 50 L91 51 L91 52 L91 53 L91 54 L92 55 L92 56 L93 56 L94 57 L95 58 L96 58 L97 58 L98 58 L99 58 L100 58 L101 58 L102 58 L103 58 L104 57 L105 57 L106 55 L107 55 L107 53 L108 52 L108 50 L108 49 L108 48 L108 47 L108 46 L108 44 L108 43 L107 42 L107 41 L106 41 L105 40 L104 40 L102 40 L101 40 L100 40 L99 40 L98 40 L97 40 L97 41 " fill="none" stroke="black" /><circle cx="76" cy="41" fill="black" r="1" /><circle cx="79" cy="64" fill="black" r="1" /><circle cx="95" cy="67" fill="black" r="1" /><circle cx="117" cy="55" fill="black" r="1" /><circle cx="115" cy="35" fill="black" r="1" /><circle cx="95" cy="31" fill="black" r="1" /><path d="M92 43 L91 43 L91 44 L91 45 L91 46 L91 47 L91 49 L91 50 L91 51 L91 52 L91 53 L91 54 L92 55 L92 56 L93 56 L94 57 L95 58 L96 58 L97 58 L98 58 L99 58 L100 58 L101 58 L102 58 L103 58 L104 57 L105 57 L106 55 L107 55 L107 53 L108 52 L108 50 L108 49 L108 48 L108 47 L108 46 L108 44 L108 43 L107 42 L107 41 L106 41 L105 40 L104 40 L102 40 L101 40 L100 40 L99 40 L98 40 L97 40 L97 41 M66 25 L65 25 L64 27 L64 28 L63 30 L63 32 L62 33 L61 35 L61 36 L60 38 L60 39 L60 40 L59 42 L58 44 L58 46 L58 48 L58 50 L57 52 L57 54 L57 56 L57 58 L58 59 L58 60 L59 61 " fill="none" stroke="black" /><path d="M92 43 L91 43 L91 44 L91 45 L91 46 L91 47 L91 49 L91 50 L91 51 L91 52 L91 53 L91 54 L92 55 L92 56 L93 56 L94 57 L95 58 L96 58 L97 58 L98 58 L99 58 L100 58 L101 58 L102 58 L103 58 L104 57 L105 57 L106 55 L107 55 L107 53 L108 52 L108 50 L108 49 L108 48 L108 47 L108 46 L108 44 L108 43 L107 42 L107 41 L106 41 L105 40 L104 40 L102 40 L101 40 L100 40 L99 40 L98 40 L97 40 L97 41 M66 25 L65 25 L64 27 L64 28 L63 30 L63 32 L62 33 L61 35 L61 36 L60 38 L60 39 L60 40 L59 42 L58 44 L58 46 L58 48 L58 50 L57 52 L57 54 L57 56 L57 58 L58 59 L58 60 L59 61 M75 77 L77 78 L80 79 L84 79 L89 80 L93 80 L96 80 L99 80 L102 80 L104 80 L105 80 L106 80 " fill="none" stroke="black" /><path d="M92 43 L91 43 L91 44 L91 45 L91 46 L91 47 L91 49 L91 50 L91 51 L91 52 L91 53 L91 54 L92 55 L92 56 L93 56 L94 57 L95 58 L96 58 L97 58 L98 58 L99 58 L100 58 L101 58 L102 58 L103 58 L104 57 L105 57 L106 55 L107 55 L107 53 L108 52 L108 50 L108 49 L108 48 L108 47 L108 46 L108 44 L108 43 L107 42 L107 41 L106 41 L105 40 L104 40 L102 40 L101 40 L100 40 L99 40 L98 40 L97 40 L97 41 M66 25 L65 25 L64 27 L64 28 L63 30 L63 32 L62 33 L61 35 L61 36 L60 38 L60 39 L60 40 L59 42 L58 44 L58 46 L58 48 L58 50 L57 52 L57 54 L57 56 L57 58 L58 59 L58 60 L59 61 M75 77 L77 78 L80 79 L84 79 L89 80 L93 80 L96 80 L99 80 L102 80 L104 80 L105 80 L106 80 M129 69 L129 68 L130 66 L130 64 L130 61 L130 57 L130 52 L129 47 L128 43 L128 40 L126 35 L125 32 L124 30 L123 29 L122 28 L121 27 L120 26 L120 25 " fill="none" stroke="black" /><path d="M92 43 L91 43 L91 44 L91 45 L91 46 L91 47 L91 49 L91 50 L91 51 L91 52 L91 53 L91 54 L92 55 L92 56 L93 56 L94 57 L95 58 L96 58 L97 58 L98 58 L99 58 L100 58 L101 58 L102 58 L103 58 L104 57 L105 57 L106 55 L107 55 L107 53 L108 52 L108 50 L108 49 L108 48 L108 47 L108 46 L108 44 L108 43 L107 42 L107 41 L106 41 L105 40 L104 40 L102 40 L101 40 L100 40 L99 40 L98 40 L97 40 L97 41 M66 25 L65 25 L64 27 L64 28 L63 30 L63 32 L62 33 L61 35 L61 36 L60 38 L60 39 L60 40 L59 42 L58 44 L58 46 L58 48 L58 50 L57 52 L57 54 L57 56 L57 58 L58 59 L58 60 L59 61 M75 77 L77 78 L80 79 L84 79 L89 80 L93 80 L96 80 L99 80 L102 80 L104 80 L105 80 L106 80 M129 69 L129 68 L130 66 L130 64 L130 61 L130 57 L130 52 L129 47 L128 43 L128 40 L126 35 L125 32 L124 30 L123 29 L122 28 L121 27 L120 26 L120 25 M86 15 L87 15 L91 15 L93 15 L96 15 L98 15 L99 15 L99 14 L97 13 " fill="none" stroke="black" /><circle cx="44" cy="22" fill="black" r="1" /><circle cx="35" cy="49" fill="black" r="1" /><circle cx="41" cy="74" fill="black" r="1" /><circle cx="62" cy="89" fill="black" r="1" /><circle cx="111" cy="96" fill="black" r="1" /><circle cx="149" cy="76" fill="black" r="1" /><circle cx="152" cy="43" fill="black" r="1" /><circle cx="145" cy="12" fill="black" r="1" /><circle cx="105" cy="0" fill="black" r="1" /><circle cx="66" cy="0" fill="black" r="1" /><path d="M92 43 L91 43 L91 44 L91 45 L91 46 L91 47 L91 49 L91 50 L91 51 L91 52 L91 53 L91 54 L92 55 L92 56 L93 56 L94 57 L95 58 L96 58 L97 58 L98 58 L99 58 L100 58 L101 58 L102 58 L103 58 L104 57 L105 57 L106 55 L107 55 L107 53 L108 52 L108 50 L108 49 L108 48 L108 47 L108 46 L108 44 L108 43 L107 42 L107 41 L106 41 L105 40 L104 40 L102 40 L101 40 L100 40 L99 40 L98 40 L97 40 L97 41 M66 25 L65 25 L64 27 L64 28 L63 30 L63 32 L62 33 L61 35 L61 36 L60 38 L60 39 L60 40 L59 42 L58 44 L58 46 L58 48 L58 50 L57 52 L57 54 L57 56 L57 58 L58 59 L58 60 L59 61 M75 77 L77 78 L80 79 L84 79 L89 80 L93 80 L96 80 L99 80 L102 80 L104 80 L105 80 L106 80 M129 69 L129 68 L130 66 L130 64 L130 61 L130 57 L130 52 L129 47 L128 43 L128 40 L126 35 L125 32 L124 30 L123 29 L122 28 L121 27 L120 26 L120 25 M86 15 L87 15 L91 15 L93 15 L96 15 L98 15 L99 15 L99 14 L97 13 M9 8 L9 9 L7 12 L4 18 L2 22 L1 26 L0 30 L0 33 L0 35 L0 36 L0 37 " fill="none" stroke="black" /><path d="M92 43 L91 43 L91 44 L91 45 L91 46 L91 47 L91 49 L91 50 L91 51 L91 52 L91 53 L91 54 L92 55 L92 56 L93 56 L94 57 L95 58 L96 58 L97 58 L98 58 L99 58 L100 58 L101 58 L102 58 L103 58 L104 57 L105 57 L106 55 L107 55 L107 53 L108 52 L108 50 L108 49 L108 48 L108 47 L108 46 L108 44 L108 43 L107 42 L107 41 L106 41 L105 40 L104 40 L102 40 L101 40 L100 40 L99 40 L98 40 L97 40 L97 41 M66 25 L65 25 L64 27 L64 28 L63 30 L63 32 L62 33 L61 35 L61 36 L60 38 L60 39 L60 40 L59 42 L58 44 L58 46 L58 48 L58 50 L57 52 L57 54 L57 56 L57 58 L58 59 L58 60 L59 61 M75 77 L77 78 L80 79 L84 79 L89 80 L93 80 L96 80 L99 80 L102 80 L104 80 L105 80 L106 80 M129 69 L129 68 L130 66 L130 64 L130 61 L130 57 L130 52 L129 47 L128 43 L128 40 L126 35 L125 32 L124 30 L123 29 L122 28 L121 27 L120 26 L120 25 M86 15 L87 15 L91 15 L93 15 L96 15 L98 15 L99 15 L99 14 L97 13 M9 8 L9 9 L7 12 L4 18 L2 22 L1 26 L0 30 L0 33 L0 35 L0 36 L0 37 M178 35 L178 39 L178 44 L178 49 L178 56 L175 61 L173 66 L171 68 L171 70 L170 70 " fill="none" stroke="black" /></svg>