<?xml version="1.0" encoding="utf-8" ?>
<svg baseProfile="tiny" height="212" version="1.2" viewBox="-3 -3 209 212" width="209" xmlns="http://www.w3.org/2000/svg" xmlns:ev="http://www.w3.org/2001/xml-events" xmlns:xlink="http://www.w3.org/1999/xlink"><defs /><path d="M151 85 L151 80 L151 77 L150 73 L147 69 L144 64 L142 57 L141 50 L141 44 L144 40 L151 36 L161 36 L174 36 L183 39 L191 47 L197 57 L202 70 L205 81 L208 95 L209 101 L209 106 L209 110 L206 117 L199 127 L193 137 L190 142 L187 145 L185 147 L181 149 L172 153 L165 155 L159 157 L150 160 L143 163 L135 166 L125 170 L115 175 L107 180 L101 184 L98 186 L98 189 L97 191 L97 195 L97 198 L100 203 L108 208 L116 211 L126 212 L132 211 L137 208 L141 204 L144 199 L147 194 L149 188 L149 184 L149 179 L144 174 L138 170 L131 169 L121 169 L113 173 L104 180 L98 186 L92 191 L88 194 L81 199 L73 201 L64 202 L51 202 L40 202 L33 200 L24 196 L19 192 L14 188 L9 182 L5 176 L2 169 L0 163 L0 160 L2 154 L9 149 L22 147 L35 147 L45 152 L48 158 L50 166 L49 171 L44 174 L34 175 L26 169 L22 156 L22 134 L32 112 L47 96 L61 79 L71 63 L77 51 L80 36 L81 22 L79 12 L74 5 L66 1 L59 0 L52 0 L49 0 L47 1 L44 4 L40 14 L36 23 L34 29 L34 34 L34 39 L36 48 L41 55 L44 61 L48 64 L51 67 L53 69 L54 70 L55 70 L55 71 L56 71 L58 71 L61 70 L64 70 L66 69 L67 69 L68 68 L69 65 L71 63 L72 60 L73 59 L74 58 L74 57 L75 56 L77 56 L79 55 L80 54 L81 54 L82 53 L83 52 L84 52 L84 51 L86 51 L87 51 L88 51 L89 51 L90 52 L90 53 L90 54 " fill="none" stroke="black" /></svg>