<?xml version="1.0" encoding="utf-8" ?>
<svg baseProfile="tiny" height="369" version="1.2" viewBox="-3 -3 447 369" width="447" xmlns="http://www.w3.org/2000/svg" xmlns:ev="http://www.w3.org/2001/xml-events" xmlns:xlink="http://www.w3.org/1999/xlink"><defs /><path d="M185 156 L183 156 L180 156 L177 156 L175 157 L173 161 L172 167 L171 176 L171 182 L178 187 L186 188 L196 188 L203 186 L208 179 L209 167 L208 160 L204 156 L196 154 L186 153 L178 153 L174 153 L173 152 " fill="none" stroke="black" /><path d="M185 156 L183 156 L180 156 L177 156 L175 157 L173 161 L172 167 L171 176 L171 182 L178 187 L186 188 L196 188 L203 186 L208 179 L209 167 L208 160 L204 156 L196 154 L186 153 L178 153 L174 153 L173 152 M155 124 L153 124 L150 124 L146 127 L141 136 L135 149 L128 166 L124 179 L121 188 L121 195 L122 206 L128 219 L137 228 L149 235 L165 238 L189 240 L208 240 L225 238 L237 232 L246 224 L253 214 L257 201 L257 186 L254 165 L246 148 L235 136 L222 124 L208 112 L198 106 L190 103 L178 102 L168 103 L160 106 L155 110 L153 112 L152 113 L150 114 L148 116 " fill="none" stroke="black" /><path d="M185 156 L183 156 L180 156 L177 156 L175 157 L173 161 L172 167 L171 176 L171 182 L178 187 L186 188 L196 188 L203 186 L208 179 L209 167 L208 160 L204 156 L196 154 L186 153 L178 153 L174 153 L173 152 M155 124 L153 124 L150 124 L146 127 L141 136 L135 149 L128 166 L124 179 L121 188 L121 195 L122 206 L128 219 L137 228 L149 235 L165 238 L189 240 L208 240 L225 238 L237 232 L246 224 L253 214 L257 201 L257 186 L254 165 L246 148 L235 136 L222 124 L208 112 L198 106 L190 103 L178 102 L168 103 L160 106 L155 110 L153 112 L152 113 L150 114 L148 116 M129 43 L119 46 L110 51 L100 58 L93 66 L86 79 L81 95 L75 120 L70 141 L66 164 L64 187 L66 213 L92 252 L133 282 L178 300 L224 303 L272 298 L312 285 L327 274 L332 257 L333 229 L329 198 L321 171 L311 147 L294 117 L281 100 L269 86 L254 73 L236 62 L213 55 L197 49 L183 45 L165 44 L147 45 L130 49 L116 54 L109 57 L106 60 L105 62 " fill="none" stroke="black" /><path d="M185 156 L183 156 L180 156 L177 156 L175 157 L173 161 L172 167 L171 176 L171 182 L178 187 L186 188 L196 188 L203 186 L208 179 L209 167 L208 160 L204 156 L196 154 L186 153 L178 153 L174 153 L173 152 M155 124 L153 124 L150 124 L146 127 L141 136 L135 149 L128 166 L124 179 L121 188 L121 195 L122 206 L128 219 L137 228 L149 235 L165 238 L189 240 L208 240 L225 238 L237 232 L246 224 L253 214 L257 201 L257 186 L254 165 L246 148 L235 136 L222 124 L208 112 L198 106 L190 103 L178 102 L168 103 L160 106 L155 110 L153 112 L152 113 L150 114 L148 116 M129 43 L119 46 L110 51 L100 58 L93 66 L86 79 L81 95 L75 120 L70 141 L66 164 L64 187 L66 213 L92 252 L133 282 L178 300 L224 303 L272 298 L312 285 L327 274 L332 257 L333 229 L329 198 L321 171 L311 147 L294 117 L281 100 L269 86 L254 73 L236 62 L213 55 L197 49 L183 45 L165 44 L147 45 L130 49 L116 54 L109 57 L106 60 L105 62 M59 17 L47 24 L33 35 L19 50 L11 67 L2 99 L0 136 L8 195 L23 240 L41 279 L70 316 L119 352 L173 366 L277 369 L350 351 L403 323 L433 296 L447 257 L439 193 L424 147 L407 111 L385 85 L354 65 L316 51 L256 39 L211 29 L172 22 L144 19 L126 17 L114 16 L102 13 L94 7 L86 2 L79 0 L72 0 L64 4 L56 10 L52 13 L49 15 L48 16 L46 18 L45 20 L45 21 " fill="none" stroke="black" /></svg>