<?xml version="1.0" encoding="utf-8" ?>
<svg baseProfile="tiny" height="360" version="1.2" viewBox="-3 -3 318 360" width="318" xmlns="http://www.w3.org/2000/svg" xmlns:ev="http://www.w3.org/2001/xml-events" xmlns:xlink="http://www.w3.org/1999/xlink"><defs /><path d="M94 278 L94 277 L95 273 L99 261 L102 254 L107 243 L111 233 L115 222 L120 210 L128 194 L133 181 L138 169 L142 158 L145 149 L148 141 L152 131 L155 121 L158 113 L160 108 L162 104 L164 100 L167 94 L168 91 L169 90 L170 89 L171 90 L172 93 L173 96 L175 99 L176 103 L178 108 L181 116 L184 125 L187 134 L188 141 L190 147 L192 152 L194 159 L195 165 L197 174 L200 183 L204 194 L208 206 L213 220 L217 230 L220 240 L223 249 L225 255 L227 258 L227 259 L227 260 L228 262 L229 265 L231 269 L233 272 L234 274 L235 275 L235 276 L232 276 L227 273 L220 272 L214 270 L207 268 L203 268 L197 266 L193 266 L188 265 L183 265 L179 264 L176 264 L172 263 L167 263 L163 263 L157 263 L152 262 L147 262 L141 262 L135 262 L129 262 L124 262 L117 262 L112 262 L108 262 L104 263 L101 263 L97 264 L96 264 L95 264 L94 264 L93 264 L92 264 " fill="none" stroke="black" /><path d="M94 278 L94 277 L95 273 L99 261 L102 254 L107 243 L111 233 L115 222 L120 210 L128 194 L133 181 L138 169 L142 158 L145 149 L148 141 L152 131 L155 121 L158 113 L160 108 L162 104 L164 100 L167 94 L168 91 L169 90 L170 89 L171 90 L172 93 L173 96 L175 99 L176 103 L178 108 L181 116 L184 125 L187 134 L188 141 L190 147 L192 152 L194 159 L195 165 L197 174 L200 183 L204 194 L208 206 L213 220 L217 230 L220 240 L223 249 L225 255 L227 258 L227 259 L227 260 L228 262 L229 265 L231 269 L233 272 L234 274 L235 275 L235 276 L232 276 L227 273 L220 272 L214 270 L207 268 L203 268 L197 266 L193 266 L188 265 L183 265 L179 264 L176 264 L172 263 L167 263 L163 263 L157 263 L152 262 L147 262 L141 262 L135 262 L129 262 L124 262 L117 262 L112 262 L108 262 L104 263 L101 263 L97 264 L96 264 L95 264 L94 264 L93 264 L92 264 M158 55 L158 50 L158 44 L158 35 L158 27 L158 21 L158 17 L158 13 L158 10 L158 5 L158 1 L158 0 " fill="none" stroke="black" /><path d="M94 278 L94 277 L95 273 L99 261 L102 254 L107 243 L111 233 L115 222 L120 210 L128 194 L133 181 L138 169 L142 158 L145 149 L148 141 L152 131 L155 121 L158 113 L160 108 L162 104 L164 100 L167 94 L168 91 L169 90 L170 89 L171 90 L172 93 L173 96 L175 99 L176 103 L178 108 L181 116 L184 125 L187 134 L188 141 L190 147 L192 152 L194 159 L195 165 L197 174 L200 183 L204 194 L208 206 L213 220 L217 230 L220 240 L223 249 L225 255 L227 258 L227 259 L227 260 L228 262 L229 265 L231 269 L233 272 L234 274 L235 275 L235 276 L232 276 L227 273 L220 272 L214 270 L207 268 L203 268 L197 266 L193 266 L188 265 L183 265 L179 264 L176 264 L172 263 L167 263 L163 263 L157 263 L152 262 L147 262 L141 262 L135 262 L129 262 L124 262 L117 262 L112 262 L108 262 L104 263 L101 263 L97 264 L96 264 L95 264 L94 264 L93 264 L92 264 M158 55 L158 50 L158 44 L158 35 L158 27 L158 21 L158 17 L158 13 L158 10 L158 5 L158 1 L158 0 M80 286 L76 286 L69 286 L58 291 L48 295 L37 300 L30 303 L28 304 L27 304 L28 304 " fill="none" stroke="black" /><path d="M94 278 L94 277 L95 273 L99 261 L102 254 L107 243 L111 233 L115 222 L120 210 L128 194 L133 181 L138 169 L142 158 L145 149 L148 141 L152 131 L155 121 L158 113 L160 108 L162 104 L164 100 L167 94 L168 91 L169 90 L170 89 L171 90 L172 93 L173 96 L175 99 L176 103 L178 108 L181 116 L184 125 L187 134 L188 141 L190 147 L192 152 L194 159 L195 165 L197 174 L200 183 L204 194 L208 206 L213 220 L217 230 L220 240 L223 249 L225 255 L227 258 L227 259 L227 260 L228 262 L229 265 L231 269 L233 272 L234 274 L235 275 L235 276 L232 276 L227 273 L220 272 L214 270 L207 268 L203 268 L197 266 L193 266 L188 265 L183 265 L179 264 L176 264 L172 263 L167 263 L163 263 L157 263 L152 262 L147 262 L141 262 L135 262 L129 262 L124 262 L117 262 L112 262 L108 262 L104 263 L101 263 L97 264 L96 264 L95 264 L94 264 L93 264 L92 264 M158 55 L158 50 L158 44 L158 35 L158 27 L158 21 L158 17 L158 13 L158 10 L158 5 L158 1 L158 0 M80 286 L76 286 L69 286 L58 291 L48 295 L37 300 L30 303 L28 304 L27 304 L28 304 M251 286 L256 288 L273 299 L286 309 L296 317 L302 323 L310 332 L315 339 L318 342 " fill="none" stroke="black" /><path d="M94 278 L94 277 L95 273 L99 261 L102 254 L107 243 L111 233 L115 222 L120 210 L128 194 L133 181 L138 169 L142 158 L145 149 L148 141 L152 131 L155 121 L158 113 L160 108 L162 104 L164 100 L167 94 L168 91 L169 90 L170 89 L171 90 L172 93 L173 96 L175 99 L176 103 L178 108 L181 116 L184 125 L187 134 L188 141 L190 147 L192 152 L194 159 L195 165 L197 174 L200 183 L204 194 L208 206 L213 220 L217 230 L220 240 L223 249 L225 255 L227 258 L227 259 L227 260 L228 262 L229 265 L231 269 L233 272 L234 274 L235 275 L235 276 L232 276 L227 273 L220 272 L214 270 L207 268 L203 268 L197 266 L193 266 L188 265 L183 265 L179 264 L176 264 L172 263 L167 263 L163 263 L157 263 L152 262 L147 262 L141 262 L135 262 L129 262 L124 262 L117 262 L112 262 L108 262 L104 263 L101 263 L97 264 L96 264 L95 264 L94 264 L93 264 L92 264 M158 55 L158 50 L158 44 L158 35 L158 27 L158 21 L158 17 L158 13 L158 10 L158 5 L158 1 L158 0 M80 286 L76 286 L69 286 L58 291 L48 295 L37 300 L30 303 L28 304 L27 304 L28 304 M251 286 L256 288 L273 299 L286 309 L296 317 L302 323 L310 332 L315 339 L318 342 M163 287 L163 289 L163 296 L163 313 L163 326 L163 337 L163 345 L163 352 L163 357 L163 360 L165 354 " fill="none" stroke="black" /><path d="M94 278 L94 277 L95 273 L99 261 L102 254 L107 243 L111 233 L115 222 L120 210 L128 194 L133 181 L138 169 L142 158 L145 149 L148 141 L152 131 L155 121 L158 113 L160 108 L162 104 L164 100 L167 94 L168 91 L169 90 L170 89 L171 90 L172 93 L173 96 L175 99 L176 103 L178 108 L181 116 L184 125 L187 134 L188 141 L190 147 L192 152 L194 159 L195 165 L197 174 L200 183 L204 194 L208 206 L213 220 L217 230 L220 240 L223 249 L225 255 L227 258 L227 259 L227 260 L228 262 L229 265 L231 269 L233 272 L234 274 L235 275 L235 276 L232 276 L227 273 L220 272 L214 270 L207 268 L203 268 L197 266 L193 266 L188 265 L183 265 L179 264 L176 264 L172 263 L167 263 L163 263 L157 263 L152 262 L147 262 L141 262 L135 262 L129 262 L124 262 L117 262 L112 262 L108 262 L104 263 L101 263 L97 264 L96 264 L95 264 L94 264 L93 264 L92 264 M158 55 L158 50 L158 44 L158 35 L158 27 L158 21 L158 17 L158 13 L158 10 L158 5 L158 1 L158 0 M80 286 L76 286 L69 286 L58 291 L48 295 L37 300 L30 303 L28 304 L27 304 L28 304 M251 286 L256 288 L273 299 L286 309 L296 317 L302 323 L310 332 L315 339 L318 342 M163 287 L163 289 L163 296 L163 313 L163 326 L163 337 L163 345 L163 352 L163 357 L163 360 L165 354 M233 176 L233 172 L241 162 L254 150 L263 143 L269 140 L272 137 L274 137 " fill="none" stroke="black" /><path d="M94 278 L94 277 L95 273 L99 261 L102 254 L107 243 L111 233 L115 222 L120 210 L128 194 L133 181 L138 169 L142 158 L145 149 L148 141 L152 131 L155 121 L158 113 L160 108 L162 104 L164 100 L167 94 L168 91 L169 90 L170 89 L171 90 L172 93 L173 96 L175 99 L176 103 L178 108 L181 116 L184 125 L187 134 L188 141 L190 147 L192 152 L194 159 L195 165 L197 174 L200 183 L204 194 L208 206 L213 220 L217 230 L220 240 L223 249 L225 255 L227 258 L227 259 L227 260 L228 262 L229 265 L231 269 L233 272 L234 274 L235 275 L235 276 L232 276 L227 273 L220 272 L214 270 L207 268 L203 268 L197 266 L193 266 L188 265 L183 265 L179 264 L176 264 L172 263 L167 263 L163 263 L157 263 L152 262 L147 262 L141 262 L135 262 L129 262 L124 262 L117 262 L112 262 L108 262 L104 263 L101 263 L97 264 L96 264 L95 264 L94 264 L93 264 L92 264 M158 55 L158 50 L158 44 L158 35 L158 27 L158 21 L158 17 L158 13 L158 10 L158 5 L158 1 L158 0 M80 286 L76 286 L69 286 L58 291 L48 295 L37 300 L30 303 L28 304 L27 304 L28 304 M251 286 L256 288 L273 299 L286 309 L296 317 L302 323 L310 332 L315 339 L318 342 M163 287 L163 289 L163 296 L163 313 L163 326 L163 337 L163 345 L163 352 L163 357 L163 360 L165 354 M233 176 L233 172 L241 162 L254 150 L263 143 L269 140 L272 137 L274 137 M105 153 L100 151 L78 138 L32 116 L10 109 L2 107 L0 107 " fill="none" stroke="black" /></svg>