<?xml version="1.0" encoding="utf-8" ?>
<svg baseProfile="tiny" height="469" version="1.2" viewBox="-3 -3 517 469" width="517" xmlns="http://www.w3.org/2000/svg" xmlns:ev="http://www.w3.org/2001/xml-events" xmlns:xlink="http://www.w3.org/1999/xlink"><defs /><path d="M0 457 L10 454 L28 453 L40 455 L45 463 L43 469 L35 469 L26 461 L22 447 L23 433 L37 422 L51 420 L64 421 L72 428 L75 437 L74 442 L63 444 L56 438 L53 422 L54 402 L64 387 L79 380 L100 380 L109 386 L112 394 L113 400 L106 403 L96 402 L87 382 L88 356 L100 334 L115 320 L130 317 L143 320 L154 330 L156 336 L156 341 L150 345 L140 346 L134 340 L135 304 L153 272 L171 252 L185 245 L195 246 L205 257 L211 274 L212 282 L209 286 L196 286 L185 277 L180 260 L192 219 L206 205 L222 200 L232 203 L242 222 L249 239 L252 248 L251 252 L241 254 L231 255 L225 242 L236 194 L255 176 L271 168 L283 167 L295 167 L310 167 L316 169 L315 174 L313 180 L310 184 L306 188 L298 190 L290 187 L285 175 L286 147 L296 130 L309 118 L325 110 L341 106 L351 106 L359 114 L361 122 L363 133 L363 140 L357 143 L346 141 L335 124 L334 97 L340 78 L352 66 L366 60 L381 59 L395 59 L403 65 L407 72 L408 80 L408 87 L404 91 L398 93 L392 90 L389 75 L390 52 L398 37 L408 30 L424 28 L441 32 L459 42 L468 51 L472 56 L473 65 L468 74 L461 78 L455 75 L450 58 L450 36 L461 18 L473 9 L489 4 L504 3 L514 2 L517 0 " fill="none" stroke="black" /></svg>