<?xml version="1.0" encoding="utf-8" ?>
<svg baseProfile="tiny" height="269" version="1.2" viewBox="-3 -3 231 269" width="231" xmlns="http://www.w3.org/2000/svg" xmlns:ev="http://www.w3.org/2001/xml-events" xmlns:xlink="http://www.w3.org/1999/xlink"><defs /><path d="M109 161 L112 152 L120 146 L133 144 L145 157 L147 189 L136 217 L118 234 L108 242 L104 248 L106 258 L118 266 L134 269 L147 267 L153 254 L151 217 L139 193 L126 172 L121 156 L121 145 L130 142 L146 143 L168 171 L173 197 L169 219 L156 232 L149 239 L147 250 L153 258 L166 262 L180 261 L192 250 L200 240 L203 235 L204 232 L204 228 L204 214 L204 193 L204 177 L204 163 L204 155 L204 148 L203 143 L200 136 L195 128 L191 117 L191 100 L198 86 L208 76 L221 67 L227 61 L230 56 L231 46 L229 37 L222 32 L208 30 L200 30 L195 31 L192 41 L191 53 L191 65 L189 74 L182 85 L174 95 L166 100 L163 100 L161 93 L161 76 L165 58 L173 37 L178 24 L181 13 L182 5 L179 2 L172 0 L165 0 L158 6 L151 17 L146 29 L145 43 L146 58 L149 69 L149 76 L148 82 L138 88 L130 90 L125 89 L122 80 L122 60 L122 38 L125 21 L125 12 L123 7 L117 5 L107 5 L96 9 L90 16 L89 28 L92 47 L98 63 L102 72 L102 80 L99 88 L92 92 L81 94 L73 87 L69 73 L68 55 L68 38 L68 26 L68 16 L66 9 L63 5 L55 4 L47 9 L38 20 L33 30 L32 42 L34 51 L42 62 L54 79 L59 87 L59 92 L56 95 L46 97 L33 95 L27 88 L22 80 L18 76 L15 74 L12 74 L8 76 L3 88 L0 100 L0 115 L2 125 L7 133 L20 143 L30 147 L37 148 L41 150 L47 152 L52 155 L56 160 L59 164 L62 172 L68 181 L73 188 L75 190 " fill="none" stroke="black" /></svg>