<?xml version="1.0" encoding="utf-8" ?>
<svg baseProfile="tiny" height="88" version="1.2" viewBox="-3 -3 94 88" width="94" xmlns="http://www.w3.org/2000/svg" xmlns:ev="http://www.w3.org/2001/xml-events" xmlns:xlink="http://www.w3.org/1999/xlink"><defs /><path d="M44 47 L50 47 L52 46 L53 44 L55 42 L56 40 L56 38 L56 36 L56 34 L55 33 L53 31 L51 30 L50 30 L50 29 " fill="none" stroke="black" /><path d="M44 47 L50 47 L52 46 L53 44 L55 42 L56 40 L56 38 L56 36 L56 34 L55 33 L53 31 L51 30 L50 30 L50 29 M42 15 L41 15 L39 15 L36 17 L34 18 L33 20 L30 22 L28 24 L26 25 L25 26 L24 28 L23 29 L22 33 L21 36 L20 39 L20 42 L20 46 L20 51 L22 54 L26 58 L29 60 L33 62 L37 63 L41 64 L47 64 L52 64 L58 64 L63 64 L66 63 L68 60 L71 55 L73 50 L74 46 L74 42 L74 38 L74 35 L73 33 L72 31 L70 28 L68 26 L67 25 L66 24 L64 23 L62 22 L60 21 L58 20 L56 19 L54 18 L50 17 L47 17 L46 17 " fill="none" stroke="black" /><path d="M44 47 L50 47 L52 46 L53 44 L55 42 L56 40 L56 38 L56 36 L56 34 L55 33 L53 31 L51 30 L50 30 L50 29 M42 15 L41 15 L39 15 L36 17 L34 18 L33 20 L30 22 L28 24 L26 25 L25 26 L24 28 L23 29 L22 33 L21 36 L20 39 L20 42 L20 46 L20 51 L22 54 L26 58 L29 60 L33 62 L37 63 L41 64 L47 64 L52 64 L58 64 L63 64 L66 63 L68 60 L71 55 L73 50 L74 46 L74 42 L74 38 L74 35 L73 33 L72 31 L70 28 L68 26 L67 25 L66 24 L64 23 L62 22 L60 21 L58 20 L56 19 L54 18 L50 17 L47 17 L46 17 M19 6 L19 7 L17 9 L15 14 L14 17 L11 20 L9 24 L7 27 L5 31 L3 35 L2 37 L1 40 L0 44 L0 50 L2 56 L5 61 L8 65 L12 70 L16 74 L21 77 L26 80 L31 83 L36 85 L40 87 L47 88 L53 88 L59 88 L64 88 L68 88 L73 87 L77 85 L81 81 L86 76 L89 71 L91 66 L92 63 L93 60 L93 56 L94 53 L94 49 L94 45 L94 42 L92 36 L90 33 L87 28 L84 24 L81 20 L79 17 L76 14 L74 12 L72 10 L70 9 L68 7 L66 6 L64 4 L62 3 L59 2 L57 2 L54 1 L52 1 L49 0 L46 0 L44 0 L41 0 L39 0 L37 0 L35 0 L33 0 L32 0 L31 0 L30 0 L28 0 L26 1 L25 1 L24 2 L23 2 L22 3 L21 3 L20 3 L19 3 L17 5 L14 7 L11 10 L10 11 L10 12 " fill="none" stroke="black" /></svg>