<?xml version="1.0" encoding="utf-8" ?>
<svg baseProfile="tiny" height="306" version="1.2" viewBox="-3 -3 604 306" width="604" xmlns="http://www.w3.org/2000/svg" xmlns:ev="http://www.w3.org/2001/xml-events" xmlns:xlink="http://www.w3.org/1999/xlink"><defs /><path d="M0 278 L47 196 L89 78 L102 36 L110 18 L119 14 L133 27 L139 78 L112 166 L72 217 L43 250 L33 274 L38 291 L57 302 L99 306 L128 285 L140 231 L127 163 L107 114 L99 87 L106 65 L134 57 L164 63 L188 89 L199 127 L181 170 L154 199 L136 219 L130 240 L135 258 L154 269 L184 272 L206 271 L218 264 L222 244 L205 188 L186 138 L181 94 L196 80 L218 72 L237 71 L251 86 L252 111 L241 137 L228 154 L215 167 L208 177 L207 187 L208 196 L219 206 L231 209 L256 208 L271 195 L277 158 L257 109 L239 70 L235 55 L250 47 L268 43 L276 45 L280 60 L281 101 L270 128 L254 144 L245 152 L243 156 L243 160 L241 175 L240 190 L240 209 L244 227 L251 240 L275 248 L309 245 L332 234 L342 214 L327 178 L279 134 L262 114 L260 90 L287 64 L329 55 L361 66 L378 109 L372 152 L353 190 L338 209 L331 218 L329 227 L333 243 L347 251 L377 251 L409 230 L429 200 L428 157 L393 108 L378 79 L377 62 L396 53 L425 57 L454 94 L461 153 L441 197 L421 219 L407 238 L404 259 L408 275 L433 283 L467 272 L490 250 L499 214 L485 150 L470 110 L463 79 L472 73 L497 70 L525 85 L543 122 L547 173 L533 208 L515 238 L507 255 L505 266 L516 274 L552 278 L588 266 L604 231 L583 149 L525 73 L504 41 L495 14 L517 3 L546 0 L563 6 L570 30 L572 76 L571 118 L549 168 L516 196 L496 215 L488 232 L487 251 L521 268 L552 267 L571 253 L577 231 L578 182 L570 123 L563 97 L561 91 " fill="none" stroke="black" /></svg>