<?xml version="1.0" encoding="utf-8" ?>
<svg baseProfile="tiny" height="59" version="1.2" viewBox="-3 -3 75 59" width="75" xmlns="http://www.w3.org/2000/svg" xmlns:ev="http://www.w3.org/2001/xml-events" xmlns:xlink="http://www.w3.org/1999/xlink"><defs /><path d="M75 14 L75 16 L75 18 L74 20 L73 21 L73 23 L72 24 L71 24 L70 25 L68 25 L66 25 L64 25 L63 25 L61 25 L60 25 L59 25 L58 25 L57 28 L56 31 L55 33 L55 35 L55 37 L55 38 L55 40 L56 43 L56 45 L56 48 L56 50 L56 51 L55 52 L54 53 L52 54 L50 54 L48 54 L46 54 L45 53 L45 51 L44 50 L44 49 L44 48 L44 46 L44 45 L44 44 L44 43 L42 42 L41 41 L39 41 L37 41 L35 41 L34 42 L33 44 L32 47 L31 50 L30 53 L29 54 L28 56 L26 57 L24 58 L22 59 L19 59 L18 59 L17 57 L16 55 L16 53 L16 52 L16 50 L16 49 L17 47 L19 46 L20 44 L21 44 L21 43 L21 42 L21 40 L21 38 L21 37 L21 36 L20 35 L18 35 L15 34 L13 33 L11 33 L9 33 L7 32 L6 32 L4 31 L2 30 L0 29 L0 28 L0 27 L0 26 L0 24 L0 23 L0 22 L0 21 L1 21 L2 20 L4 20 L5 20 L7 20 L8 20 L9 20 L11 21 L13 22 L14 22 L16 22 L17 22 L18 22 L18 21 L18 19 L18 17 L18 16 L18 14 L18 12 L17 11 L17 9 L17 8 L17 6 L17 5 L18 4 L20 4 L22 3 L23 3 L25 3 L26 3 L26 4 L27 5 L27 6 L28 7 L28 8 L28 9 L28 10 L29 10 L30 12 L31 12 L32 12 L33 12 L34 12 L35 12 L36 11 L37 10 L38 9 L38 7 L39 6 L40 5 L40 3 L41 3 L41 2 L42 1 L42 0 " fill="none" stroke="black" /></svg>