<?xml version="1.0" encoding="utf-8" ?>
<svg baseProfile="tiny" height="17" version="1.2" viewBox="-3 -3 383 17" width="383" xmlns="http://www.w3.org/2000/svg" xmlns:ev="http://www.w3.org/2001/xml-events" xmlns:xlink="http://www.w3.org/1999/xlink"><defs /><path d="M0 2 L3 0 L4 0 L4 4 L4 9 L4 10 L5 10 L8 8 L11 6 L13 6 L14 6 L17 6 L20 5 L22 5 L22 7 L19 11 L18 12 L18 10 L22 8 L24 7 L25 7 L26 9 L27 11 L32 12 L46 12 L56 12 L58 14 L59 13 L61 13 L63 12 L65 12 L71 12 L76 10 L77 10 L78 10 L83 9 L87 8 L89 8 L89 9 L89 10 L91 10 L92 10 L99 9 L104 9 L105 9 L106 9 L106 11 L107 13 L108 14 L110 14 L115 12 L118 10 L119 10 L120 10 L122 10 L126 10 L129 10 L130 12 L131 15 L132 16 L136 16 L140 15 L141 15 L142 15 L144 13 L149 9 L152 8 L154 10 L157 12 L161 13 L167 13 L175 11 L178 10 L179 10 L179 12 L179 15 L180 16 L183 16 L184 16 L188 13 L194 8 L198 5 L200 5 L202 5 L204 5 L205 6 L207 7 L213 7 L217 7 L219 7 L220 7 L221 9 L226 10 L234 6 L238 3 L239 2 L240 4 L241 8 L243 11 L246 13 L250 14 L253 14 L254 14 L255 14 L261 11 L266 9 L268 9 L269 9 L269 10 L269 11 L271 14 L274 16 L279 17 L284 17 L287 17 L288 17 L290 14 L295 10 L299 9 L301 9 L301 10 L300 11 L300 12 L305 11 L309 9 L310 9 L314 9 L318 9 L325 11 L334 15 L335 16 L336 14 L344 9 L349 7 L351 7 L351 9 L351 10 L354 10 L361 10 L368 9 L371 9 L371 10 L372 10 L373 10 L375 10 L376 11 L377 11 L379 11 L381 11 L383 11 " fill="none" stroke="black" /></svg>