<?xml version="1.0" encoding="utf-8" ?>
<svg baseProfile="tiny" height="214" version="1.2" viewBox="-3 -3 591 214" width="591" xmlns="http://www.w3.org/2000/svg" xmlns:ev="http://www.w3.org/2001/xml-events" xmlns:xlink="http://www.w3.org/1999/xlink"><defs /><path d="M21 71 L87 71 L577 81 " fill="none" stroke="black" /><path d="M21 71 L87 71 L577 81 M0 130 L84 147 L126 147 L322 154 L378 154 L553 158 " fill="none" stroke="black" /><path d="M21 71 L87 71 L577 81 M0 130 L84 147 L126 147 L322 154 L378 154 L553 158 M56 0 L290 35 L378 35 L416 32 L434 32 L469 39 L591 56 " fill="none" stroke="black" /><path d="M21 71 L87 71 L577 81 M0 130 L84 147 L126 147 L322 154 L378 154 L553 158 M56 0 L290 35 L378 35 L416 32 L434 32 L469 39 L591 56 M14 207 L38 207 L112 210 L199 214 L245 207 L367 207 L451 204 L465 204 L500 204 L521 204 " fill="none" stroke="black" /></svg>