<?xml version="1.0" encoding="utf-8" ?>
<svg baseProfile="tiny" height="192" version="1.2" viewBox="-3 -3 756 192" width="756" xmlns="http://www.w3.org/2000/svg" xmlns:ev="http://www.w3.org/2001/xml-events" xmlns:xlink="http://www.w3.org/1999/xlink"><defs /><path d="M0 98 L3 95 L7 95 L28 70 L45 56 L59 42 L63 39 L77 28 L84 25 L94 18 L108 11 L112 7 L119 4 L119 0 L119 3 L126 7 L147 14 L150 17 L168 28 L178 38 L185 45 L196 52 L224 84 L234 91 L255 108 L294 140 L297 143 L325 157 L357 171 L360 175 L413 185 L444 189 L465 189 L476 192 L483 192 L486 192 L504 192 L553 189 L556 189 L574 189 L605 189 L616 189 L630 189 L668 189 L679 189 L703 189 L738 186 L742 186 L752 186 L756 186 " fill="none" stroke="black" /></svg>