<?xml version="1.0" encoding="utf-8" ?>
<svg baseProfile="tiny" height="150" version="1.2" viewBox="-3 -3 532 150" width="532" xmlns="http://www.w3.org/2000/svg" xmlns:ev="http://www.w3.org/2001/xml-events" xmlns:xlink="http://www.w3.org/1999/xlink"><defs /><path d="M0 150 L0 147 L14 119 L21 108 L31 84 L42 70 L49 59 L59 42 L66 31 L77 21 L80 21 L94 10 L98 10 L105 7 L119 3 L122 3 L136 0 L150 0 L157 0 L171 0 L203 0 L224 0 L231 0 L276 3 L290 6 L301 6 L350 10 L392 10 L406 13 L430 13 L437 13 L462 13 L479 13 L514 17 L532 17 " fill="none" stroke="black" /></svg>