<?xml version="1.0" encoding="utf-8" ?>
<svg baseProfile="tiny" height="122" version="1.2" viewBox="-3 -3 847 122" width="847" xmlns="http://www.w3.org/2000/svg" xmlns:ev="http://www.w3.org/2001/xml-events" xmlns:xlink="http://www.w3.org/1999/xlink"><defs /><path d="M0 0 L38 3 L70 3 L119 10 L143 14 L178 17 L217 21 L252 24 L301 31 L332 38 L413 49 L493 56 L549 63 L591 66 L605 70 L693 73 L696 73 L714 77 " fill="none" stroke="black" /><path d="M0 0 L38 3 L70 3 L119 10 L143 14 L178 17 L217 21 L252 24 L301 31 L332 38 L413 49 L493 56 L549 63 L591 66 L605 70 L693 73 L696 73 L714 77 M714 77 L756 87 L777 94 L805 108 L840 119 L843 119 L847 122 " fill="none" stroke="black" /></svg>