<?xml version="1.0" encoding="utf-8" ?>
<svg baseProfile="tiny" height="133" version="1.2" viewBox="-3 -3 1004 133" width="1004" xmlns="http://www.w3.org/2000/svg" xmlns:ev="http://www.w3.org/2001/xml-events" xmlns:xlink="http://www.w3.org/1999/xlink"><defs /><path d="M0 80 L62 28 L122 98 L136 119 L150 126 L167 126 L171 126 L202 95 L213 74 L216 63 L227 35 L237 21 L255 4 L318 0 L332 10 L342 28 L356 59 L363 70 L381 101 L398 115 L412 122 L423 122 L433 116 L437 116 L549 32 L563 25 L612 7 L615 7 L661 38 L664 45 L672 59 L685 84 L689 91 L727 122 L738 133 L752 130 L769 130 L769 126 L783 112 L801 84 L811 74 L906 32 L913 28 L927 25 L944 25 L951 28 L976 52 L993 77 L997 91 L1000 94 L1004 98 " fill="none" stroke="black" /></svg>