<?xml version="1.0" encoding="utf-8" ?>
<svg baseProfile="tiny" height="133" version="1.2" viewBox="-3 -3 518 133" width="518" xmlns="http://www.w3.org/2000/svg" xmlns:ev="http://www.w3.org/2001/xml-events" xmlns:xlink="http://www.w3.org/1999/xlink"><defs /><path d="M0 0 L11 94 L32 84 L70 31 L112 63 L112 115 L133 101 L136 112 L227 80 L392 102 L354 98 L343 108 L399 59 L259 73 L291 73 L224 73 L381 84 L399 101 L518 77 L371 88 L472 91 L238 67 L427 56 L308 80 L315 81 L392 133 L437 74 L455 94 L388 81 " fill="none" stroke="black" /></svg>