<?xml version="1.0" encoding="utf-8" ?>
<svg baseProfile="tiny" height="248" version="1.2" viewBox="-3 -3 563 248" width="563" xmlns="http://www.w3.org/2000/svg" xmlns:ev="http://www.w3.org/2001/xml-events" xmlns:xlink="http://www.w3.org/1999/xlink"><defs /><circle cx="108" cy="69" fill="black" r="1" /><path d="M21 76 L66 80 L0 73 " fill="none" stroke="black" /><path d="M21 76 L66 80 L0 73 M283 101 L297 94 L300 56 L266 66 " fill="none" stroke="black" /><path d="M21 76 L66 80 L0 73 M283 101 L297 94 L300 56 L266 66 M444 115 L451 112 L448 118 L430 112 L465 91 " fill="none" stroke="black" /><path d="M21 76 L66 80 L0 73 M283 101 L297 94 L300 56 L266 66 M444 115 L451 112 L448 118 L430 112 L465 91 M395 199 L412 199 L381 213 L377 192 L374 206 " fill="none" stroke="black" /><path d="M21 76 L66 80 L0 73 M283 101 L297 94 L300 56 L266 66 M444 115 L451 112 L448 118 L430 112 L465 91 M395 199 L412 199 L381 213 L377 192 L374 206 M73 199 L136 188 L80 199 L84 171 " fill="none" stroke="black" /><path d="M21 76 L66 80 L0 73 M283 101 L297 94 L300 56 L266 66 M444 115 L451 112 L448 118 L430 112 L465 91 M395 199 L412 199 L381 213 L377 192 L374 206 M73 199 L136 188 L80 199 L84 171 M279 216 L269 248 L262 241 L279 231 L241 248 " fill="none" stroke="black" /><path d="M21 76 L66 80 L0 73 M283 101 L297 94 L300 56 L266 66 M444 115 L451 112 L448 118 L430 112 L465 91 M395 199 L412 199 L381 213 L377 192 L374 206 M73 199 L136 188 L80 199 L84 171 M279 216 L269 248 L262 241 L279 231 L241 248 M168 38 L164 35 L150 34 L171 0 L171 3 " fill="none" stroke="black" /><path d="M21 76 L66 80 L0 73 M283 101 L297 94 L300 56 L266 66 M444 115 L451 112 L448 118 L430 112 L465 91 M395 199 L412 199 L381 213 L377 192 L374 206 M73 199 L136 188 L80 199 L84 171 M279 216 L269 248 L262 241 L279 231 L241 248 M168 38 L164 35 L150 34 L171 0 L171 3 M332 10 L325 24 L374 31 L350 48 L391 21 " fill="none" stroke="black" /><path d="M21 76 L66 80 L0 73 M283 101 L297 94 L300 56 L266 66 M444 115 L451 112 L448 118 L430 112 L465 91 M395 199 L412 199 L381 213 L377 192 L374 206 M73 199 L136 188 L80 199 L84 171 M279 216 L269 248 L262 241 L279 231 L241 248 M168 38 L164 35 L150 34 L171 0 L171 3 M332 10 L325 24 L374 31 L350 48 L391 21 M525 238 L563 220 L553 237 " fill="none" stroke="black" /><path d="M21 76 L66 80 L0 73 M283 101 L297 94 L300 56 L266 66 M444 115 L451 112 L448 118 L430 112 L465 91 M395 199 L412 199 L381 213 L377 192 L374 206 M73 199 L136 188 L80 199 L84 171 M279 216 L269 248 L262 241 L279 231 L241 248 M168 38 L164 35 L150 34 L171 0 L171 3 M332 10 L325 24 L374 31 L350 48 L391 21 M525 238 L563 220 L553 237 M213 153 L174 129 L227 125 L209 147 " fill="none" stroke="black" /></svg>