<?xml version="1.0" encoding="utf-8" ?>
<svg baseProfile="tiny" height="171" version="1.2" viewBox="-3 -3 794 171" width="794" xmlns="http://www.w3.org/2000/svg" xmlns:ev="http://www.w3.org/2001/xml-events" xmlns:xlink="http://www.w3.org/1999/xlink"><defs /><path d="M0 171 L7 171 L10 168 L45 140 L52 133 L59 126 L70 122 L91 105 L136 77 L150 70 L178 49 L196 42 L199 38 L231 24 L234 24 L262 17 L332 7 L336 3 L367 0 L388 3 L406 3 L423 3 L455 3 L479 3 L493 6 L514 10 L525 10 L539 17 L553 20 L581 31 L584 31 L595 34 L602 38 L602 41 L619 48 L623 48 L633 55 L640 62 L658 76 L679 90 L703 101 L707 101 L721 108 L721 115 L724 115 L728 118 L731 122 L745 136 L749 139 L756 150 L766 157 L773 160 L777 160 L777 164 L787 167 L791 167 L794 171 " fill="none" stroke="black" /></svg>