<?xml version="1.0" encoding="utf-8" ?>
<svg baseProfile="tiny" height="272" version="1.2" viewBox="-3 -3 972 272" width="972" xmlns="http://www.w3.org/2000/svg" xmlns:ev="http://www.w3.org/2001/xml-events" xmlns:xlink="http://www.w3.org/1999/xlink"><defs /><path d="M0 255 L6 248 L27 234 L45 203 L52 196 L97 140 L129 105 L146 84 L188 42 L276 3 L311 0 L328 3 L353 20 L391 59 L398 69 L412 80 L524 185 L556 209 L633 241 L713 269 L720 272 L748 272 L755 269 L787 248 L804 227 L850 199 L850 196 L895 161 L944 115 L962 98 L972 87 L972 84 " fill="none" stroke="black" /></svg>