<?xml version="1.0" encoding="utf-8" ?>
<svg baseProfile="tiny" height="34" version="1.2" viewBox="-3 -3 472 34" width="472" xmlns="http://www.w3.org/2000/svg" xmlns:ev="http://www.w3.org/2001/xml-events" xmlns:xlink="http://www.w3.org/1999/xlink"><defs /><path d="M0 24 L10 24 L17 24 L24 17 L27 17 L48 10 L52 7 L55 7 L52 13 L62 20 L66 31 L80 28 L80 31 L94 24 L94 27 L115 10 L115 20 L132 24 L139 17 L146 14 L157 0 L160 13 L164 13 L174 13 L188 13 L199 21 L202 17 L206 17 L230 3 L234 6 L244 10 L293 20 L311 24 L318 24 L328 27 L349 27 L363 27 L384 27 L391 27 L402 31 L405 31 L416 31 L423 31 L437 31 L444 31 L454 31 L472 31 L472 34 " fill="none" stroke="black" /></svg>