<?xml version="1.0" encoding="utf-8" ?>
<svg baseProfile="tiny" height="115" version="1.2" viewBox="-3 -3 1134 115" width="1134" xmlns="http://www.w3.org/2000/svg" xmlns:ev="http://www.w3.org/2001/xml-events" xmlns:xlink="http://www.w3.org/1999/xlink"><defs /><path d="M0 42 L11 39 L21 35 L39 32 L49 28 L63 25 L81 25 L102 21 L123 18 L133 18 L151 14 L154 14 L175 11 L189 7 L200 4 L214 4 L238 0 L245 0 L263 0 L277 0 L291 0 L301 0 L315 0 L326 0 L336 3 L350 3 L378 10 L385 10 L399 14 L410 14 L417 14 L431 21 L438 21 L448 24 L462 28 L487 35 L490 38 L501 42 L511 45 L522 49 L553 63 L560 66 L592 77 L595 80 L606 80 L616 87 L630 91 L641 91 L683 101 L732 112 L777 112 L795 115 L812 115 L816 115 L861 112 L903 112 L907 112 L949 102 L987 88 L998 84 L1022 81 L1068 56 L1078 53 L1099 49 L1106 46 L1110 46 L1113 39 L1134 28 " fill="none" stroke="black" /></svg>