<?xml version="1.0" encoding="utf-8" ?>
<svg baseProfile="tiny" height="38" version="1.2" viewBox="-3 -3 657 38" width="657" xmlns="http://www.w3.org/2000/svg" xmlns:ev="http://www.w3.org/2001/xml-events" xmlns:xlink="http://www.w3.org/1999/xlink"><defs /><circle cx="28" cy="17" fill="black" r="1" /><path d="M17 3 L24 24 L21 31 L31 28 L21 21 L21 14 L31 14 L24 14 L41 10 " fill="none" stroke="black" /><path d="M17 3 L24 24 L21 31 L31 28 L21 21 L21 14 L31 14 L24 14 L41 10 M24 13 L31 24 L3 10 L10 0 L48 3 L21 38 L21 35 L34 3 L0 10 L6 10 L31 13 L24 17 L59 17 L87 24 L136 27 L146 27 L157 27 L206 27 L220 27 L230 24 L290 27 L314 34 L346 34 L384 38 L423 38 L454 35 L489 35 L507 35 L528 35 L570 38 L580 38 L657 31 " fill="none" stroke="black" /></svg>