<?xml version="1.0" encoding="utf-8" ?>
<svg baseProfile="tiny" height="63" version="1.2" viewBox="-3 -3 206 63" width="206" xmlns="http://www.w3.org/2000/svg" xmlns:ev="http://www.w3.org/2001/xml-events" xmlns:xlink="http://www.w3.org/1999/xlink"><defs /><path d="M52 63 L45 63 L0 39 L24 18 L48 14 L59 35 L56 42 L14 42 L3 32 L6 11 L17 0 L27 3 L45 14 L48 17 L42 31 L38 35 L38 42 L28 45 L34 45 L45 42 L55 42 L62 42 L66 42 L83 42 L90 42 L97 42 L108 35 L115 32 L122 28 L136 25 L139 21 L150 21 L164 18 L167 18 L174 18 L178 18 L185 21 L206 31 " fill="none" stroke="black" /></svg>