<?xml version="1.0" encoding="utf-8" ?>
<svg baseProfile="tiny" height="45" version="1.2" viewBox="-3 -3 479 45" width="479" xmlns="http://www.w3.org/2000/svg" xmlns:ev="http://www.w3.org/2001/xml-events" xmlns:xlink="http://www.w3.org/1999/xlink"><defs /><path d="M0 32 L7 7 L14 14 L52 42 L63 25 L84 18 L91 42 L94 42 L105 28 L108 25 L119 21 L126 18 L154 38 L161 28 L175 21 L192 7 L189 31 L203 25 L213 35 L227 14 L238 11 L241 21 L252 18 L255 45 L276 24 L283 24 L301 38 L315 25 L315 28 L322 14 L325 38 L336 32 L336 31 L339 28 L357 11 L364 31 L367 28 L374 21 L374 28 L381 18 L388 31 L420 0 L427 17 L441 11 L444 28 L458 25 L465 35 L465 32 L479 11 " fill="none" stroke="black" /></svg>