<?xml version="1.0" encoding="utf-8" ?>
<svg baseProfile="tiny" height="146" version="1.2" viewBox="-3 -3 689 146" width="689" xmlns="http://www.w3.org/2000/svg" xmlns:ev="http://www.w3.org/2001/xml-events" xmlns:xlink="http://www.w3.org/1999/xlink"><defs /><path d="M0 94 L3 94 L10 91 L14 87 L31 70 L77 31 L77 34 L98 83 L108 111 L213 0 L213 3 L220 94 L224 101 L266 56 L311 24 L318 52 L350 122 L367 108 L388 80 L395 66 L402 90 L413 115 L434 129 L469 87 L472 97 L483 125 L532 84 L567 73 L588 111 L591 129 L602 115 L616 87 L616 94 L619 104 L644 94 L679 146 L689 133 " fill="none" stroke="black" /></svg>