<?xml version="1.0" encoding="utf-8" ?>
<svg baseProfile="tiny" height="248" version="1.2" viewBox="-3 -3 1099 248" width="1099" xmlns="http://www.w3.org/2000/svg" xmlns:ev="http://www.w3.org/2001/xml-events" xmlns:xlink="http://www.w3.org/1999/xlink"><defs /><path d="M0 119 L0 122 L14 119 L21 115 L63 74 L87 74 L122 59 L122 84 L157 56 L164 109 L185 101 L189 101 L199 116 L206 105 L210 105 L238 77 L238 147 L311 52 L318 101 L350 67 L347 108 L371 81 L388 154 L402 119 L402 122 L413 109 L430 102 L444 123 L455 171 L465 189 L493 168 L535 130 L528 175 L546 137 L539 150 L532 192 L560 172 L577 158 L609 126 L700 39 L728 21 L759 7 L808 0 L819 21 L843 66 L861 101 L868 122 L931 213 L959 248 L983 242 L983 238 L997 196 L1011 172 L1018 151 L1039 109 L1050 81 L1050 84 L1071 129 L1095 192 L1095 199 L1099 206 " fill="none" stroke="black" /></svg>