<?xml version="1.0" encoding="utf-8" ?>
<svg baseProfile="tiny" height="255" version="1.2" viewBox="-3 -3 532 255" width="532" xmlns="http://www.w3.org/2000/svg" xmlns:ev="http://www.w3.org/2001/xml-events" xmlns:xlink="http://www.w3.org/1999/xlink"><defs /><path d="M0 255 L18 241 L35 231 L45 224 L56 217 L66 210 L73 206 L87 196 L105 185 L108 185 L122 175 L126 175 L140 168 L157 157 L164 154 L196 136 L210 129 L217 126 L224 122 L241 119 L245 115 L262 112 L287 108 L304 98 L311 94 L318 91 L325 87 L329 84 L343 80 L360 77 L364 73 L374 73 L378 70 L388 63 L395 59 L406 56 L416 45 L420 45 L430 42 L434 38 L437 38 L444 31 L455 28 L462 28 L472 24 L479 21 L483 21 L490 17 L507 7 L521 3 L532 0 " fill="none" stroke="black" /></svg>