<?xml version="1.0" encoding="utf-8" ?>
<svg baseProfile="tiny" height="63" version="1.2" viewBox="-3 -3 525 63" width="525" xmlns="http://www.w3.org/2000/svg" xmlns:ev="http://www.w3.org/2001/xml-events" xmlns:xlink="http://www.w3.org/1999/xlink"><defs /><path d="M63 42 L42 0 L18 7 L42 10 L29 14 L56 17 L29 21 L70 21 L11 35 L0 11 L36 10 L29 21 L32 21 L39 21 L36 21 L77 24 L25 14 " fill="none" stroke="black" /><path d="M63 42 L42 0 L18 7 L42 10 L29 14 L56 17 L29 21 L70 21 L11 35 L0 11 L36 10 L29 21 L32 21 L39 21 L36 21 L77 24 L25 14 M515 21 L442 28 L477 59 L511 56 L525 42 L515 42 L504 18 L511 18 L473 14 L501 21 L466 35 L487 21 L504 21 L477 52 L473 52 L504 32 L505 63 L473 35 L518 18 L515 31 L504 35 L470 49 " fill="none" stroke="black" /></svg>