<?xml version="1.0" encoding="utf-8" ?>
<svg baseProfile="tiny" height="147" version="1.2" viewBox="-3 -3 180 147" width="180" xmlns="http://www.w3.org/2000/svg" xmlns:ev="http://www.w3.org/2001/xml-events" xmlns:xlink="http://www.w3.org/1999/xlink"><defs /><path d="M10 130 L9 130 L6 130 L4 130 L2 131 L0 132 L0 134 L0 137 L5 143 L11 146 L15 147 L17 147 L17 145 L17 138 L14 134 L13 131 L12 128 L11 127 L10 126 L10 125 L9 125 L8 125 L8 124 L8 123 L8 122 L8 121 L9 119 L11 116 L13 114 L17 108 L20 104 L22 102 L24 100 L25 100 L27 99 L28 99 L29 99 L31 98 L32 98 L33 98 L34 98 L35 98 L36 98 L37 98 L38 98 L39 98 L40 98 L41 98 L42 98 L43 98 L44 98 L46 98 L47 98 L49 97 L51 97 L53 97 L56 97 L57 97 L59 97 L60 96 L61 95 L63 94 L63 92 L64 91 L65 90 L66 89 L67 88 L67 87 L68 86 L68 85 L69 84 L69 83 L69 82 L70 81 L71 81 L71 80 L72 79 L73 78 L74 78 L75 77 L76 77 L77 76 L78 75 L79 75 L80 75 L81 75 L82 75 L83 74 L84 74 L85 74 L85 73 L86 73 L87 73 L88 73 L90 72 L93 69 L94 67 L95 66 L96 65 L98 63 L99 62 L100 61 L101 60 L102 60 L102 59 L113 51 L117 47 L120 45 L121 44 L133 33 L140 28 L142 27 L143 26 L148 22 L151 20 L152 19 L153 19 L158 16 L162 12 L163 12 L175 3 L180 0 " fill="none" stroke="black" /></svg>