<?xml version="1.0" encoding="utf-8" ?>
<svg baseProfile="tiny" height="40" version="1.2" viewBox="-3 -3 152 40" width="152" xmlns="http://www.w3.org/2000/svg" xmlns:ev="http://www.w3.org/2001/xml-events" xmlns:xlink="http://www.w3.org/1999/xlink"><defs /><path d="M2 17 L2 18 L0 25 L2 35 L7 39 L10 40 L13 38 L19 24 L19 18 L19 15 L18 12 L16 10 L13 10 L11 10 L8 10 L7 11 L6 13 L5 13 L5 14 L4 14 L4 15 L3 15 L3 16 L3 17 L3 18 L3 19 L4 19 L6 20 L8 20 L9 20 L11 20 L13 20 L15 20 L17 20 L18 20 L19 20 L20 20 L21 20 L23 20 L24 20 L25 19 L26 19 L27 19 L29 19 L30 19 L31 19 L32 19 L33 19 L34 19 L35 19 L36 19 L36 18 L37 18 L38 18 L39 18 L40 17 L41 17 L42 16 L43 16 L44 16 L46 16 L47 15 L48 15 L49 15 L50 15 L51 14 L52 14 L53 14 L54 14 L55 14 L56 14 L58 13 L59 12 L60 12 L61 12 L62 12 L63 12 L64 12 L65 11 L66 11 L67 11 L68 11 L69 11 L70 11 L71 11 L71 10 L72 10 L74 10 L75 10 L76 10 L77 10 L79 10 L80 10 L81 9 L83 9 L84 9 L85 9 L86 8 L87 8 L88 8 L89 8 L90 8 L91 8 L93 8 L95 8 L97 8 L98 8 L99 8 L100 8 L101 8 L102 8 L103 8 L107 7 L109 7 L111 6 L114 5 L116 5 L118 4 L121 4 L122 3 L124 3 L126 3 L128 3 L129 2 L130 2 L131 1 L133 1 L134 1 L135 1 L136 1 L137 1 L138 1 L139 1 L140 1 L141 1 L142 1 L143 1 L145 1 L146 0 L147 0 L149 0 L150 0 L151 0 L152 0 " fill="none" stroke="black" /></svg>