<?xml version="1.0" encoding="utf-8" ?>
<svg baseProfile="tiny" height="40" version="1.2" viewBox="-3 -3 151 40" width="151" xmlns="http://www.w3.org/2000/svg" xmlns:ev="http://www.w3.org/2001/xml-events" xmlns:xlink="http://www.w3.org/1999/xlink"><defs /><path d="M0 25 L0 24 L1 24 L2 24 L4 24 L7 24 L9 26 L10 28 L10 29 L11 29 L13 31 L15 33 L16 35 L16 38 L16 39 L15 40 L12 40 L9 39 L7 37 L7 35 L8 33 L9 32 L12 31 L16 30 L20 29 L23 28 L25 27 L27 26 L28 25 L29 24 L30 24 L30 23 L30 21 L29 20 L25 19 L19 18 L15 18 L13 18 L13 20 L14 23 L16 24 L18 26 L20 29 L22 30 L24 31 L26 33 L33 33 L36 32 L38 31 L41 30 L43 29 L44 29 L44 28 L46 26 L47 25 L46 25 L46 24 L46 22 L46 21 L45 20 L45 19 L45 17 L45 16 L45 15 L46 14 L47 14 L48 14 L49 14 L50 14 L52 14 L54 14 L56 14 L58 14 L60 14 L62 14 L64 14 L66 14 L67 13 L68 13 L69 13 L70 13 L71 12 L72 12 L73 12 L75 11 L77 11 L79 10 L82 9 L85 9 L86 9 L87 9 L88 9 L89 9 L91 9 L93 9 L94 9 L96 9 L97 9 L99 9 L101 9 L104 9 L107 8 L111 7 L113 7 L115 6 L116 6 L118 6 L120 6 L123 5 L124 5 L126 5 L128 5 L129 4 L131 4 L132 3 L135 3 L136 3 L138 3 L139 3 L140 2 L142 2 L143 2 L144 1 L145 1 L147 1 L148 1 L149 1 L150 0 L151 0 " fill="none" stroke="black" /></svg>