<?xml version="1.0" encoding="utf-8" ?>
<svg baseProfile="tiny" height="120" version="1.2" viewBox="-3 -3 278 120" width="278" xmlns="http://www.w3.org/2000/svg" xmlns:ev="http://www.w3.org/2001/xml-events" xmlns:xlink="http://www.w3.org/1999/xlink"><defs /><path d="M71 21 L55 36 L29 75 L15 99 L3 115 L0 119 L0 120 L8 118 L55 101 L79 91 L81 91 L82 91 L83 91 L102 91 L137 91 L146 89 L155 87 L173 78 L187 72 L198 66 L211 58 L219 55 L224 52 L231 48 L235 45 L238 42 L241 38 L242 37 L243 36 L245 33 L248 29 L252 24 L257 20 L259 18 L260 18 L260 17 L261 17 L263 16 L265 15 L266 14 L267 13 L269 12 L274 6 L277 1 L278 0 " fill="none" stroke="black" /></svg>