<?xml version="1.0" encoding="utf-8" ?>
<svg baseProfile="tiny" height="82" version="1.2" viewBox="-3 -3 142 82" width="142" xmlns="http://www.w3.org/2000/svg" xmlns:ev="http://www.w3.org/2001/xml-events" xmlns:xlink="http://www.w3.org/1999/xlink"><defs /><path d="M3 67 L0 61 L0 59 L0 58 L2 60 L9 67 L15 75 L19 80 L20 80 L21 80 L21 81 L21 82 L22 81 L22 74 L22 63 L21 58 L20 56 L20 55 L19 54 L19 53 L20 54 L25 61 L31 72 L32 74 L33 74 L33 75 L34 71 L35 52 L34 38 L33 35 L33 33 L33 31 L33 30 L33 29 L33 28 L34 29 L37 32 L40 38 L44 45 L45 50 L46 53 L47 55 L47 56 L47 57 L47 58 L48 58 L49 57 L50 42 L51 32 L51 27 L51 26 L51 25 L51 24 L55 28 L61 38 L63 40 L64 42 L64 43 L65 43 L66 44 L67 44 L68 45 L69 45 L70 44 L72 37 L72 34 L72 33 L72 32 L72 31 L72 30 L73 30 L78 35 L82 38 L84 39 L84 40 L84 41 L85 41 L85 38 L85 32 L85 30 L85 29 L85 28 L89 32 L90 34 L91 35 L93 36 L93 33 L93 28 L93 25 L93 24 L93 23 L93 22 L94 22 L95 24 L97 26 L98 27 L99 27 L99 25 L99 22 L99 21 L99 20 L101 20 L103 22 L104 24 L105 24 L106 25 L107 24 L107 21 L107 20 L107 18 L107 17 L108 17 L109 17 L113 21 L115 23 L116 23 L116 24 L117 24 L117 23 L118 19 L118 18 L118 16 L118 15 L119 15 L123 18 L124 20 L125 21 L125 22 L127 21 L127 8 L127 5 L127 4 L129 6 L132 10 L133 11 L134 12 L134 13 L135 13 L135 11 L136 7 L136 2 L136 1 L136 0 L137 1 L139 2 L140 4 L141 4 L141 5 L142 5 L142 4 " fill="none" stroke="black" /></svg>