<?xml version="1.0" encoding="utf-8" ?>
<svg baseProfile="tiny" height="76" version="1.2" viewBox="-3 -3 240 76" width="240" xmlns="http://www.w3.org/2000/svg" xmlns:ev="http://www.w3.org/2001/xml-events" xmlns:xlink="http://www.w3.org/1999/xlink"><defs /><path d="M2 76 L0 68 L0 57 L3 52 L6 51 L8 51 L9 51 L12 51 L15 54 L19 57 L23 58 L28 56 L33 51 L36 39 L38 31 L39 27 L44 13 L48 5 L50 2 L52 0 L53 0 L54 0 L58 5 L59 13 L59 20 L59 33 L58 45 L56 49 L56 53 L56 56 L57 59 L58 60 L59 62 L61 63 L63 64 L64 64 L66 64 L69 61 L72 54 L72 46 L72 39 L72 37 L73 36 L75 34 L77 34 L79 34 L83 34 L87 34 L90 34 L93 34 L94 34 L96 34 L99 34 L101 34 L104 34 L107 33 L111 31 L114 30 L119 27 L123 24 L128 22 L130 21 L132 21 L134 21 L136 21 L137 21 L138 21 L140 21 L141 21 L143 21 L145 21 L146 21 L147 21 L149 21 L150 20 L152 20 L153 20 L156 20 L160 20 L161 20 L163 20 L165 20 L167 19 L168 19 L169 19 L171 19 L172 19 L174 19 L175 19 L176 19 L178 20 L179 21 L179 22 L180 22 L181 22 L182 22 L183 22 L185 22 L186 22 L186 21 L187 20 L189 19 L190 19 L191 18 L191 17 L193 17 L195 16 L196 16 L199 16 L200 16 L201 15 L202 15 L203 15 L204 14 L205 14 L207 14 L208 14 L209 15 L211 15 L219 14 L221 13 L222 13 L223 13 L225 13 L226 13 L227 13 L229 12 L230 12 L231 12 L232 12 L235 11 L240 10 " fill="none" stroke="black" /></svg>