<?xml version="1.0" encoding="utf-8" ?>
<svg baseProfile="tiny" height="92" version="1.2" viewBox="-3 -3 130 92" width="130" xmlns="http://www.w3.org/2000/svg" xmlns:ev="http://www.w3.org/2001/xml-events" xmlns:xlink="http://www.w3.org/1999/xlink"><defs /><path d="M44 65 L43 60 L27 58 L25 58 L25 57 L38 44 L45 37 L49 39 L63 43 L68 45 L70 46 L74 46 L78 48 L80 49 L81 51 L81 52 L82 54 L84 55 L85 56 L87 59 L90 61 L91 61 L73 79 L62 86 L72 70 L76 66 L70 72 L69 73 L68 74 L66 74 L60 72 L57 59 L58 49 L51 47 L24 57 L18 59 L18 57 L18 56 L15 56 L14 58 L14 59 L19 60 L22 60 L23 61 L41 65 L71 65 L77 66 L77 69 L77 72 L78 74 L86 76 L90 76 L92 76 L97 70 L106 50 L107 44 L107 43 L106 43 L106 41 L106 37 L106 35 L106 34 L102 34 L102 32 L102 33 L109 38 L126 40 L130 41 L129 51 L127 54 L127 55 L128 55 L119 66 L94 83 L82 77 L72 48 L63 24 L52 20 L42 20 L40 21 L40 19 L40 18 L36 22 L26 37 L25 39 L26 39 L32 37 L33 37 L34 38 L34 42 L34 44 L36 45 L42 47 L46 48 L51 51 L60 54 L73 53 L77 52 L78 52 L81 45 L86 31 L85 28 L75 28 L69 28 L68 27 L75 6 L77 1 L78 0 L79 0 L80 1 L88 5 L91 6 L94 19 L92 35 L93 36 L98 36 L99 37 L99 45 L99 49 L99 50 L101 50 L102 51 L101 58 L95 66 L91 70 L90 70 L89 72 L74 80 L57 90 L55 92 L54 90 L54 86 L52 84 L42 84 L36 86 L35 86 L33 84 L28 79 L18 75 L11 74 L8 73 L6 70 L4 66 L3 63 L2 62 L1 60 L0 56 L0 55 L0 54 " fill="none" stroke="black" /></svg>