<?xml version="1.0" encoding="utf-8" ?>
<svg baseProfile="tiny" height="94" version="1.2" viewBox="-3 -3 114 94" width="114" xmlns="http://www.w3.org/2000/svg" xmlns:ev="http://www.w3.org/2001/xml-events" xmlns:xlink="http://www.w3.org/1999/xlink"><defs /><circle cx="71" cy="59" fill="black" r="1" /><circle cx="71" cy="59" fill="black" r="1" /><path d="M70 56 L70 49 " fill="none" stroke="black" /><path d="M70 56 L70 49 M90 51 L89 51 L86 51 L85 51 L94 43 L106 40 L111 40 L114 58 L106 82 L87 92 L61 94 L49 90 L44 86 L43 83 L51 68 L64 56 L70 53 L71 53 L74 53 L76 56 L77 58 L77 59 L77 62 L73 63 L69 57 L72 32 L81 23 L88 18 L93 17 L96 17 L101 28 " fill="none" stroke="black" /><path d="M70 56 L70 49 M90 51 L89 51 L86 51 L85 51 L94 43 L106 40 L111 40 L114 58 L106 82 L87 92 L61 94 L49 90 L44 86 L43 83 L51 68 L64 56 L70 53 L71 53 L74 53 L76 56 L77 58 L77 59 L77 62 L73 63 L69 57 L72 32 L81 23 L88 18 L93 17 L96 17 L101 28 M92 58 L89 59 L83 57 L75 38 L74 28 L84 19 L90 17 L92 17 L92 20 L83 38 L60 54 L41 60 L24 59 L12 50 L5 42 L3 40 L3 38 L10 31 L20 27 L23 28 L23 40 L19 52 L11 60 L5 62 L2 62 L0 50 L12 26 L32 13 L42 12 L51 12 L57 16 L59 22 L59 25 L59 27 L58 29 L56 29 L53 27 L53 18 L58 7 L60 5 L63 3 L66 2 L67 1 L68 0 " fill="none" stroke="black" /></svg>