<?xml version="1.0" encoding="utf-8" ?>
<svg baseProfile="tiny" height="130" version="1.2" viewBox="-3 -3 228 130" width="228" xmlns="http://www.w3.org/2000/svg" xmlns:ev="http://www.w3.org/2001/xml-events" xmlns:xlink="http://www.w3.org/1999/xlink"><defs /><path d="M53 101 L58 108 L61 111 L63 112 L65 112 L68 109 L69 103 L69 100 L69 98 L68 97 L66 96 L62 95 L61 95 L63 84 L66 70 L68 63 L69 61 L70 57 L70 56 L70 59 L68 60 L67 64 L66 69 L66 73 L66 77 L66 80 L67 83 L67 84 L68 87 L71 89 L74 91 L78 94 L82 96 L86 96 L92 95 L95 92 L99 88 L103 75 L105 58 L105 50 L102 40 L100 36 L98 34 L97 33 L96 32 L95 32 L94 32 L93 32 L93 31 L92 31 L90 31 L89 31 L88 31 L87 32 L85 33 L84 34 L84 35 L83 36 L82 37 L81 37 L81 38 L81 39 L82 41 L86 45 L90 50 L97 58 L103 68 L105 71 L108 75 L113 80 L120 84 L135 85 L153 73 L160 64 L163 55 L163 46 L163 42 L158 30 L152 18 L151 16 L148 14 L146 13 L145 13 L144 13 L142 12 L141 12 L140 12 L139 12 L138 12 L137 12 L136 12 L135 12 L134 12 L133 12 L132 12 L131 17 L132 25 L134 31 L143 40 L155 51 L169 61 L185 70 L198 73 L210 73 L222 62 L226 51 L228 37 L228 11 L228 8 L226 6 L223 5 L218 4 L204 3 L195 2 L191 2 L188 2 L183 2 L182 2 L181 3 L180 3 L179 3 L178 4 L176 5 L175 6 L174 8 L173 8 L173 9 L172 9 L172 10 L172 11 L169 11 L151 5 L122 4 L78 21 L43 38 L17 55 L3 75 L0 83 L3 97 L23 119 L50 130 L77 129 L135 97 L168 75 L187 60 L197 45 L200 28 L197 3 L195 0 " fill="none" stroke="black" /></svg>