<?xml version="1.0" encoding="utf-8" ?>
<svg baseProfile="tiny" height="88" version="1.2" viewBox="-3 -3 147 88" width="147" xmlns="http://www.w3.org/2000/svg" xmlns:ev="http://www.w3.org/2001/xml-events" xmlns:xlink="http://www.w3.org/1999/xlink"><defs /><path d="M31 43 L29 43 L15 48 L3 61 L0 68 L0 71 L6 75 L29 76 L52 60 L56 51 L57 48 L54 46 L49 48 L45 55 L50 67 L74 80 L97 82 L114 76 L119 70 L120 66 L119 62 L113 61 L106 61 L103 67 L109 78 L122 87 L135 88 L143 84 L146 81 L147 61 L140 37 L133 27 L129 23 L122 21 L110 18 L91 13 L85 12 L81 10 L70 7 L58 4 L44 0 L22 2 L6 12 L0 46 " fill="none" stroke="black" /></svg>