<?xml version="1.0" encoding="utf-8" ?>
<svg baseProfile="tiny" height="9" version="1.2" viewBox="-3 -3 129 9" width="129" xmlns="http://www.w3.org/2000/svg" xmlns:ev="http://www.w3.org/2001/xml-events" xmlns:xlink="http://www.w3.org/1999/xlink"><defs /><path d="M0 8 L0 9 L1 9 L2 9 L3 9 L4 9 L5 9 L6 9 L7 8 L8 8 L9 8 L10 8 L11 8 L12 8 L13 8 L14 8 L15 8 L15 9 L16 9 L17 9 L18 9 L19 9 L20 9 L21 9 L22 9 L23 9 L24 9 L25 9 L26 9 L27 9 L28 9 L29 9 L30 9 L30 8 L31 8 L32 8 L33 8 L34 8 L35 8 L36 8 L37 8 L38 8 L39 8 L40 8 L41 8 L42 8 L43 8 L43 7 L44 7 L45 7 L46 7 L47 7 L48 7 L49 6 L50 6 L51 6 L52 6 L54 6 L55 6 L56 6 L57 6 L58 6 L59 6 L60 6 L61 6 L62 6 L63 6 L64 6 L65 6 L66 6 L67 6 L68 6 L69 6 L70 6 L71 6 L72 6 L73 6 L74 6 L75 6 L76 6 L77 6 L78 6 L79 6 L80 6 L81 6 L82 6 L83 6 L84 6 L85 5 L86 5 L87 5 L88 5 L88 4 L89 4 L90 4 L91 4 L92 4 L93 4 L94 4 L95 4 L96 4 L97 4 L98 4 L99 4 L100 4 L101 4 L101 3 L102 3 L103 3 L104 3 L105 3 L106 3 L107 3 L108 3 L109 3 L110 3 L111 3 L112 3 L113 2 L114 2 L115 2 L116 2 L117 2 L118 2 L120 1 L121 1 L122 1 L123 1 L124 1 L125 1 L126 1 L127 1 L128 0 L129 0 " fill="none" stroke="black" /></svg>