<?xml version="1.0" encoding="utf-8" ?>
<svg baseProfile="tiny" height="65" version="1.2" viewBox="-3 -3 103 65" width="103" xmlns="http://www.w3.org/2000/svg" xmlns:ev="http://www.w3.org/2001/xml-events" xmlns:xlink="http://www.w3.org/1999/xlink"><defs /><path d="M8 35 L7 35 L7 34 L6 34 L5 34 L4 33 L3 33 L2 33 L1 34 L0 38 L0 39 L1 39 L2 39 L4 39 L5 39 L6 39 L8 38 L11 36 L14 35 L16 34 L17 33 L18 33 L18 34 L18 35 L17 38 L17 45 L18 54 L22 60 L25 64 L27 65 L30 65 L35 62 L42 53 L43 45 L43 36 L42 33 L39 30 L35 29 L32 28 L29 27 L26 27 L25 27 L24 28 L22 28 L22 29 L24 32 L29 39 L31 43 L35 47 L41 53 L45 55 L48 56 L53 55 L57 51 L59 46 L59 40 L59 37 L56 34 L50 31 L46 31 L45 31 L44 32 L43 34 L44 37 L47 40 L50 40 L54 40 L58 39 L60 38 L61 36 L62 33 L62 31 L62 29 L62 27 L62 25 L62 23 L61 22 L61 21 L60 21 L59 21 L58 21 L57 22 L57 23 L57 25 L58 28 L62 33 L65 35 L68 36 L70 36 L72 36 L73 36 L74 34 L76 31 L77 24 L77 17 L77 15 L76 14 L74 12 L73 11 L71 11 L69 11 L67 11 L66 11 L64 11 L63 12 L62 14 L62 16 L62 17 L62 18 L62 19 " fill="none" stroke="black" /><path d="M8 35 L7 35 L7 34 L6 34 L5 34 L4 33 L3 33 L2 33 L1 34 L0 38 L0 39 L1 39 L2 39 L4 39 L5 39 L6 39 L8 38 L11 36 L14 35 L16 34 L17 33 L18 33 L18 34 L18 35 L17 38 L17 45 L18 54 L22 60 L25 64 L27 65 L30 65 L35 62 L42 53 L43 45 L43 36 L42 33 L39 30 L35 29 L32 28 L29 27 L26 27 L25 27 L24 28 L22 28 L22 29 L24 32 L29 39 L31 43 L35 47 L41 53 L45 55 L48 56 L53 55 L57 51 L59 46 L59 40 L59 37 L56 34 L50 31 L46 31 L45 31 L44 32 L43 34 L44 37 L47 40 L50 40 L54 40 L58 39 L60 38 L61 36 L62 33 L62 31 L62 29 L62 27 L62 25 L62 23 L61 22 L61 21 L60 21 L59 21 L58 21 L57 22 L57 23 L57 25 L58 28 L62 33 L65 35 L68 36 L70 36 L72 36 L73 36 L74 34 L76 31 L77 24 L77 17 L77 15 L76 14 L74 12 L73 11 L71 11 L69 11 L67 11 L66 11 L64 11 L63 12 L62 14 L62 16 L62 17 L62 18 L62 19 M85 6 L84 6 L83 6 L82 6 L81 6 L79 7 L79 9 L79 10 L79 11 L79 12 L80 13 L82 15 L83 16 L85 16 L87 16 L89 16 L90 14 L91 12 L91 10 L91 9 " fill="none" stroke="black" /><path d="M8 35 L7 35 L7 34 L6 34 L5 34 L4 33 L3 33 L2 33 L1 34 L0 38 L0 39 L1 39 L2 39 L4 39 L5 39 L6 39 L8 38 L11 36 L14 35 L16 34 L17 33 L18 33 L18 34 L18 35 L17 38 L17 45 L18 54 L22 60 L25 64 L27 65 L30 65 L35 62 L42 53 L43 45 L43 36 L42 33 L39 30 L35 29 L32 28 L29 27 L26 27 L25 27 L24 28 L22 28 L22 29 L24 32 L29 39 L31 43 L35 47 L41 53 L45 55 L48 56 L53 55 L57 51 L59 46 L59 40 L59 37 L56 34 L50 31 L46 31 L45 31 L44 32 L43 34 L44 37 L47 40 L50 40 L54 40 L58 39 L60 38 L61 36 L62 33 L62 31 L62 29 L62 27 L62 25 L62 23 L61 22 L61 21 L60 21 L59 21 L58 21 L57 22 L57 23 L57 25 L58 28 L62 33 L65 35 L68 36 L70 36 L72 36 L73 36 L74 34 L76 31 L77 24 L77 17 L77 15 L76 14 L74 12 L73 11 L71 11 L69 11 L67 11 L66 11 L64 11 L63 12 L62 14 L62 16 L62 17 L62 18 L62 19 M85 6 L84 6 L83 6 L82 6 L81 6 L79 7 L79 9 L79 10 L79 11 L79 12 L80 13 L82 15 L83 16 L85 16 L87 16 L89 16 L90 14 L91 12 L91 10 L91 9 M94 0 L92 1 L90 3 L88 6 L87 8 L87 9 L86 10 L86 12 L86 14 L88 15 L93 15 L99 14 L100 13 L101 12 L101 11 L103 10 L103 8 L103 7 L103 6 L103 5 " fill="none" stroke="black" /></svg>