<?xml version="1.0" encoding="utf-8" ?>
<svg baseProfile="tiny" height="209" version="1.2" viewBox="-3 -3 392 209" width="392" xmlns="http://www.w3.org/2000/svg" xmlns:ev="http://www.w3.org/2001/xml-events" xmlns:xlink="http://www.w3.org/1999/xlink"><defs /><path d="M21 118 L16 129 L5 176 L3 195 L2 200 L1 203 L1 206 L0 208 L0 209 L2 206 L12 197 L19 191 L24 187 L31 182 L35 179 L43 172 L60 156 L79 141 L92 132 L103 125 L109 122 L118 116 L123 112 L128 109 L133 106 L140 103 L144 101 L148 100 L151 100 L153 100 L155 99 L156 99 L158 98 L159 98 L160 98 L162 97 L164 96 L166 95 L167 94 L168 94 L169 93 L170 93 L171 92 L172 92 L174 90 L176 89 L177 89 L179 88 L181 86 L183 85 L185 84 L187 82 L191 81 L193 80 L194 79 L195 79 L196 78 L198 78 L200 77 L201 75 L202 75 L203 74 L205 74 L208 73 L212 71 L216 69 L220 67 L223 66 L224 66 L225 65 L227 65 L232 64 L239 62 L243 60 L245 60 L248 59 L251 58 L253 57 L255 57 L262 55 L266 53 L269 52 L271 51 L273 50 L276 50 L279 48 L285 47 L288 46 L291 46 L293 45 L295 44 L296 44 L298 43 L299 42 L300 42 L302 41 L303 41 L304 40 L305 40 L306 40 L307 39 L308 38 L310 37 L312 37 L315 35 L318 34 L320 33 L323 31 L327 29 L331 28 L339 24 L346 22 L349 22 L351 21 L351 20 L352 20 L359 17 L363 14 L366 13 L368 11 L372 10 L377 8 L382 6 L384 4 L385 4 L387 3 L388 3 L389 2 L391 2 L392 1 L392 0 " fill="none" stroke="black" /></svg>