<?xml version="1.0" encoding="utf-8" ?>
<svg baseProfile="tiny" height="71" version="1.2" viewBox="-3 -3 54 71" width="54" xmlns="http://www.w3.org/2000/svg" xmlns:ev="http://www.w3.org/2001/xml-events" xmlns:xlink="http://www.w3.org/1999/xlink"><defs /><path d="M22 39 L26 41 L29 46 L32 57 L31 68 L29 71 L27 71 L21 71 L8 53 L3 38 L3 34 L12 33 L25 33 L27 34 L28 35 " fill="none" stroke="black" /><path d="M22 39 L26 41 L29 46 L32 57 L31 68 L29 71 L27 71 L21 71 L8 53 L3 38 L3 34 L12 33 L25 33 L27 34 L28 35 M0 0 L0 1 L1 5 " fill="none" stroke="black" /><path d="M22 39 L26 41 L29 46 L32 57 L31 68 L29 71 L27 71 L21 71 L8 53 L3 38 L3 34 L12 33 L25 33 L27 34 L28 35 M0 0 L0 1 L1 5 M13 0 L14 0 L14 2 " fill="none" stroke="black" /><path d="M22 39 L26 41 L29 46 L32 57 L31 68 L29 71 L27 71 L21 71 L8 53 L3 38 L3 34 L12 33 L25 33 L27 34 L28 35 M0 0 L0 1 L1 5 M13 0 L14 0 L14 2 M35 11 L35 12 L35 13 " fill="none" stroke="black" /><path d="M22 39 L26 41 L29 46 L32 57 L31 68 L29 71 L27 71 L21 71 L8 53 L3 38 L3 34 L12 33 L25 33 L27 34 L28 35 M0 0 L0 1 L1 5 M13 0 L14 0 L14 2 M35 11 L35 12 L35 13 M46 23 L46 24 L46 25 " fill="none" stroke="black" /><path d="M22 39 L26 41 L29 46 L32 57 L31 68 L29 71 L27 71 L21 71 L8 53 L3 38 L3 34 L12 33 L25 33 L27 34 L28 35 M0 0 L0 1 L1 5 M13 0 L14 0 L14 2 M35 11 L35 12 L35 13 M46 23 L46 24 L46 25 M54 40 L53 41 " fill="none" stroke="black" /><path d="M22 39 L26 41 L29 46 L32 57 L31 68 L29 71 L27 71 L21 71 L8 53 L3 38 L3 34 L12 33 L25 33 L27 34 L28 35 M0 0 L0 1 L1 5 M13 0 L14 0 L14 2 M35 11 L35 12 L35 13 M46 23 L46 24 L46 25 M54 40 L53 41 M48 53 L48 54 " fill="none" stroke="black" /><path d="M22 39 L26 41 L29 46 L32 57 L31 68 L29 71 L27 71 L21 71 L8 53 L3 38 L3 34 L12 33 L25 33 L27 34 L28 35 M0 0 L0 1 L1 5 M13 0 L14 0 L14 2 M35 11 L35 12 L35 13 M46 23 L46 24 L46 25 M54 40 L53 41 M48 53 L48 54 M48 54 L48 57 L48 60 L47 61 L47 63 " fill="none" stroke="black" /></svg>