<?xml version="1.0" encoding="utf-8" ?>
<svg baseProfile="tiny" height="46" version="1.2" viewBox="-3 -3 159 46" width="159" xmlns="http://www.w3.org/2000/svg" xmlns:ev="http://www.w3.org/2001/xml-events" xmlns:xlink="http://www.w3.org/1999/xlink"><defs /><path d="M0 0 L2 6 L3 10 L4 11 L6 12 L10 11 L14 9 L15 8 L16 7 L16 9 L15 12 L15 13 L15 14 L19 13 L25 11 L27 10 L28 11 L28 13 L28 14 L29 14 L32 14 L35 14 L36 14 L36 17 L36 20 L37 21 L43 21 L55 20 L60 18 L61 18 L60 21 L59 23 L60 24 L62 24 L64 23 L64 24 L66 24 L69 24 L70 24 L71 27 L71 31 L70 34 L70 35 L76 32 L80 29 L81 28 L81 29 L81 31 L81 32 L81 33 L82 33 L83 33 L83 34 L83 35 L85 36 L92 35 L95 34 L96 34 L94 38 L93 41 L92 41 L101 35 L104 33 L105 32 L104 37 L101 39 L100 40 L100 41 L106 41 L112 38 L112 41 L110 44 L110 45 L117 43 L129 38 L131 37 L132 37 L131 39 L131 40 L132 41 L140 39 L142 38 L143 38 L141 42 L140 42 L140 43 L139 43 L140 42 L141 42 L140 44 L140 45 L139 46 L141 46 L148 45 L150 44 L151 44 L152 44 L153 44 L156 44 L158 42 L159 42 " fill="none" stroke="black" /></svg>