<?xml version="1.0" encoding="utf-8" ?>
<svg baseProfile="tiny" height="83" version="1.2" viewBox="-3 -3 174 83" width="174" xmlns="http://www.w3.org/2000/svg" xmlns:ev="http://www.w3.org/2001/xml-events" xmlns:xlink="http://www.w3.org/1999/xlink"><defs /><path d="M37 29 L35 31 L35 32 L34 34 L34 35 L37 39 L39 40 L39 42 L40 42 L41 45 L41 48 L44 52 L47 55 L48 56 L48 57 L50 58 L52 58 L55 60 L58 60 L60 60 L61 59 L62 58 L62 56 L62 50 L48 32 L31 24 L19 23 L8 29 L2 38 L0 48 L2 56 L12 62 L35 63 L70 44 L83 24 L84 10 L76 0 L63 0 L50 9 L45 15 L44 22 L52 35 L72 51 L83 56 L91 60 L97 61 L98 62 L99 63 L100 69 L101 76 L102 78 L104 79 L109 79 L117 76 L120 73 L121 70 L120 66 L116 63 L113 63 L111 63 L109 64 L109 66 L109 71 L113 76 L117 79 L127 82 L136 82 L139 82 L144 82 L147 82 L151 82 L165 82 L171 82 L174 83 " fill="none" stroke="black" /></svg>