<?xml version="1.0" encoding="utf-8" ?>
<svg baseProfile="tiny" height="66" version="1.2" viewBox="-3 -3 125 66" width="125" xmlns="http://www.w3.org/2000/svg" xmlns:ev="http://www.w3.org/2001/xml-events" xmlns:xlink="http://www.w3.org/1999/xlink"><defs /><path d="M0 66 L2 47 L4 30 L4 19 L4 15 L4 14 L4 13 L4 12 L4 11 L4 10 L4 9 L4 7 L3 6 L3 5 L3 4 L3 3 L3 1 L3 0 L3 1 L4 3 L5 5 L5 6 L5 8 L6 10 L6 12 L6 14 L6 15 L6 19 L6 21 L6 22 L7 25 L8 27 L9 28 L10 29 L12 29 L13 29 L14 29 L15 29 L16 28 L17 27 L18 27 L20 27 L21 27 L22 27 L23 27 L24 27 L25 27 L26 27 L27 27 L28 26 L30 26 L31 26 L32 26 L33 26 L33 25 L34 25 L36 24 L37 23 L38 23 L38 22 L40 21 L41 21 L42 20 L42 19 L43 19 L44 19 L45 19 L46 19 L47 19 L48 19 L49 19 L50 19 L51 19 L53 19 L54 19 L55 19 L56 19 L57 19 L58 19 L59 19 L60 19 L61 19 L61 20 L62 20 L63 20 L64 20 L65 20 L66 20 L67 20 L68 20 L69 19 L70 18 L70 17 L73 15 L86 7 L90 5 L91 5 L88 6 L87 6 L87 7 L85 9 L85 10 L85 11 L86 11 L87 12 L87 13 L88 13 L89 13 L90 13 L90 12 L91 12 L92 11 L93 10 L94 9 L94 8 L95 8 L96 8 L97 8 L98 8 L98 9 L99 9 L99 10 L100 10 L101 10 L102 10 L103 10 L104 10 L106 10 L106 9 L107 9 L108 9 L109 9 L110 9 L111 9 L112 9 L113 9 L114 9 L115 8 L116 8 L118 7 L119 7 L120 7 L121 7 L122 7 L123 7 L124 7 L125 7 L124 7 L123 7 L122 7 " fill="none" stroke="black" /></svg>