<?xml version="1.0" encoding="utf-8" ?>
<svg baseProfile="tiny" height="67" version="1.2" viewBox="-3 -3 156 67" width="156" xmlns="http://www.w3.org/2000/svg" xmlns:ev="http://www.w3.org/2001/xml-events" xmlns:xlink="http://www.w3.org/1999/xlink"><defs /><path d="M9 41 L1 53 L0 60 L0 64 L0 66 L3 67 L18 64 L31 58 L32 58 L32 57 L33 57 L34 55 L36 51 L38 45 L38 43 L39 38 L43 30 L48 23 L52 18 L56 14 L58 13 L59 13 L59 12 L61 12 L64 13 L66 18 L69 25 L69 26 L70 27 L71 29 L74 30 L75 31 L77 31 L79 33 L81 34 L83 35 L85 37 L88 38 L92 40 L95 41 L96 41 L99 41 L100 41 L101 41 L102 40 L102 39 L102 38 L103 36 L103 33 L106 30 L107 28 L109 27 L111 26 L113 25 L116 24 L120 22 L128 19 L133 18 L136 16 L140 15 L142 13 L144 11 L146 10 L148 9 L148 8 L150 7 L151 5 L151 4 L152 4 L152 3 L153 2 L154 1 L155 0 L156 0 " fill="none" stroke="black" /></svg>