<?xml version="1.0" encoding="utf-8" ?>
<svg baseProfile="tiny" height="62" version="1.2" viewBox="-3 -3 244 62" width="244" xmlns="http://www.w3.org/2000/svg" xmlns:ev="http://www.w3.org/2001/xml-events" xmlns:xlink="http://www.w3.org/1999/xlink"><defs /><path d="M1 24 L0 24 L0 25 L1 26 L8 24 L14 16 L14 13 L14 12 L12 12 L9 12 L9 16 L19 23 L23 23 L26 23 L28 19 L28 16 L28 14 L28 13 L26 13 L23 16 L22 27 L28 36 L40 42 L51 40 L58 29 L59 23 L58 18 L55 17 L52 18 L51 31 L68 49 L76 51 L83 49 L85 44 L85 37 L79 33 L75 33 L72 40 L72 51 L80 61 L86 62 L96 60 L101 47 L102 30 L98 23 L97 22 L96 22 L95 23 L94 28 L103 45 L116 52 L129 52 L145 37 L150 21 L150 16 L150 13 L143 13 L137 18 L133 24 L133 31 L135 35 L146 40 L163 40 L173 34 L177 26 L175 12 L169 7 L160 6 L153 7 L150 11 L150 16 L160 26 L181 31 L195 25 L205 10 L206 4 L206 1 L200 0 L193 4 L189 14 L191 21 L199 26 L209 27 L218 25 L222 23 L223 20 L222 15 L218 12 L216 12 L211 29 L213 42 L219 47 L224 47 L237 39 L241 31 L241 26 L238 23 L233 22 L230 22 L228 29 L230 39 L239 44 L244 44 " fill="none" stroke="black" /></svg>