<?xml version="1.0" encoding="utf-8" ?>
<svg baseProfile="tiny" height="109" version="1.2" viewBox="-3 -3 251 109" width="251" xmlns="http://www.w3.org/2000/svg" xmlns:ev="http://www.w3.org/2001/xml-events" xmlns:xlink="http://www.w3.org/1999/xlink"><defs /><path d="M152 46 L153 46 L154 45 L155 44 L156 44 L157 42 L159 42 L160 42 L161 41 L164 40 L166 40 L168 40 L169 40 L170 38 L171 37 L171 36 L172 36 L173 34 L175 33 L176 32 L178 32 L179 31 L180 30 L181 30 L182 29 L183 28 L184 28 L185 28 L186 26 L188 25 L190 24 L192 23 L192 22 L193 21 L195 21 L196 20 L197 20 L198 19 L200 18 L201 17 L203 16 L204 16 L205 15 L207 14 L208 14 L210 13 L211 13 L212 12 L216 10 L217 9 L220 8 L223 6 L227 5 L229 4 L231 3 L234 2 L235 2 L237 1 L238 1 L239 1 L237 0 L138 5 L34 35 L7 49 L0 61 L11 77 L37 81 L65 66 L89 39 L85 26 L59 22 L14 44 L5 54 L15 63 L69 66 L187 28 L215 6 L202 2 L130 24 L88 47 L82 62 L124 67 L200 46 L229 28 L219 23 L163 21 L119 32 L117 34 L144 37 L234 23 L251 12 L244 7 L157 28 L112 51 L107 61 L147 67 L202 44 L218 30 L209 24 L128 37 L98 53 L95 60 L141 63 L197 44 L210 33 L185 29 L121 38 L93 50 L99 53 L166 49 L226 26 L227 20 L171 20 L81 49 L66 62 L76 72 L149 66 L193 48 L197 40 L158 35 L48 61 L15 88 L18 104 L96 109 L169 73 L182 52 L152 49 L94 68 L68 91 L74 98 L115 98 L178 74 L186 66 L173 64 L126 75 L119 80 L127 85 L178 78 L191 71 L186 69 L119 83 L100 97 L99 99 L137 97 L166 85 L169 83 L165 83 L141 94 L140 95 L140 96 " fill="none" stroke="black" /></svg>