<?xml version="1.0" encoding="utf-8" ?>
<svg baseProfile="tiny" height="32" version="1.2" viewBox="-3 -3 263 32" width="263" xmlns="http://www.w3.org/2000/svg" xmlns:ev="http://www.w3.org/2001/xml-events" xmlns:xlink="http://www.w3.org/1999/xlink"><defs /><path d="M0 27 L0 28 L1 28 L1 27 L1 26 L1 23 L2 18 L2 14 L2 10 L2 8 L2 6 L3 6 L5 9 L12 20 L14 24 L15 26 L16 26 L18 27 L20 21 L20 17 L20 14 L20 11 L21 11 L23 12 L25 14 L27 14 L28 14 L29 14 L32 9 L33 8 L34 6 L37 7 L41 10 L45 12 L48 13 L52 9 L53 5 L54 1 L54 0 L55 0 L61 6 L65 15 L68 19 L70 20 L71 20 L71 19 L72 18 L72 17 L74 17 L76 23 L78 26 L78 27 L80 28 L80 26 L81 24 L82 22 L84 23 L88 28 L90 31 L91 32 L92 32 L94 28 L95 25 L95 24 L97 22 L98 22 L99 22 L101 22 L103 23 L106 23 L109 19 L110 17 L112 16 L118 16 L123 18 L127 20 L130 21 L131 21 L132 21 L134 20 L135 19 L137 19 L140 21 L142 23 L144 24 L145 25 L147 24 L148 23 L150 23 L154 24 L158 27 L159 29 L161 29 L163 28 L164 27 L166 25 L169 25 L171 25 L173 26 L175 26 L185 17 L190 10 L192 7 L193 6 L195 6 L196 7 L197 8 L197 9 L198 9 L199 9 L200 10 L202 14 L206 24 L207 28 L208 29 L209 31 L210 31 L210 26 L211 25 L213 25 L214 27 L216 27 L219 27 L223 24 L225 21 L228 20 L232 20 L236 21 L239 22 L240 23 L241 23 L243 23 L244 23 L245 22 L250 22 L252 24 L253 25 L254 25 L256 25 L258 25 L259 25 L261 26 L262 26 L263 26 " fill="none" stroke="black" /></svg>