<?xml version="1.0" encoding="utf-8" ?>
<svg baseProfile="tiny" height="344" version="1.2" viewBox="-3 -3 949 344" width="949" xmlns="http://www.w3.org/2000/svg" xmlns:ev="http://www.w3.org/2001/xml-events" xmlns:xlink="http://www.w3.org/1999/xlink"><defs /><path d="M0 344 L1 344 L3 341 L21 316 L41 280 L62 239 L74 207 L84 181 L87 168 L90 158 L91 153 L91 150 L91 148 L91 147 L92 147 L93 147 L95 148 L104 150 L115 152 L131 154 L148 157 L160 158 L171 158 L182 158 L188 158 L192 158 L198 158 L203 158 L207 158 L212 158 L215 158 L219 158 L223 158 L225 158 L228 158 L231 158 L234 158 L238 158 L243 158 L248 156 L253 156 L258 156 L260 156 L261 156 L263 156 L274 157 L285 158 L293 158 L301 158 L308 158 L313 158 L321 158 L328 157 L333 156 L342 156 L350 155 L361 154 L378 152 L388 152 L398 151 L411 149 L418 149 L424 148 L429 148 L431 147 L435 147 L440 146 L446 146 L451 146 L457 145 L461 145 L465 144 L468 144 L474 143 L477 143 L481 142 L486 142 L488 141 L491 141 L495 139 L500 137 L503 134 L506 132 L513 121 L521 99 L529 77 L534 55 L535 48 L535 44 L535 39 L535 34 L535 31 L534 28 L534 26 L533 25 L533 24 L542 25 L569 30 L614 39 L646 43 L673 43 L693 43 L704 43 L717 43 L729 42 L734 42 L748 42 L766 39 L782 36 L796 34 L810 30 L816 29 L821 27 L828 25 L832 23 L836 22 L841 20 L846 19 L850 17 L853 16 L862 15 L876 14 L891 12 L913 8 L924 7 L930 5 L937 3 L941 3 L945 1 L948 1 L949 0 " fill="none" stroke="black" /></svg>