<?xml version="1.0" encoding="utf-8" ?>
<svg baseProfile="tiny" height="261" version="1.2" viewBox="-3 -3 327 261" width="327" xmlns="http://www.w3.org/2000/svg" xmlns:ev="http://www.w3.org/2001/xml-events" xmlns:xlink="http://www.w3.org/1999/xlink"><defs /><path d="M62 4 L57 10 L46 25 L28 52 L13 80 L8 92 L3 109 L1 124 L0 149 L0 172 L4 194 L9 206 L12 213 L18 222 L23 226 L27 230 L46 240 L69 248 L93 253 L113 258 L128 260 L135 260 L147 261 L157 261 L166 261 L176 259 L192 255 L203 253 L213 249 L224 247 L233 243 L245 236 L252 231 L259 226 L271 217 L279 210 L285 205 L291 199 L295 196 L301 191 L308 183 L316 169 L320 158 L324 146 L326 127 L327 114 L327 105 L327 93 L327 86 L327 77 L327 65 L325 60 L324 55 L320 48 L315 42 L311 37 L305 31 L299 26 L294 22 L287 18 L279 13 L269 10 L251 5 L232 3 L210 0 L180 0 L170 0 L165 1 L158 3 L151 6 L142 10 L133 15 L123 22 L116 27 L108 33 L98 44 L93 50 L87 58 L83 65 L81 70 L80 77 L80 86 L80 93 L80 99 L80 109 L81 115 L81 121 L83 129 L85 136 L89 145 L95 157 L99 164 L104 171 L113 180 L119 185 L127 189 L144 195 L159 196 L175 194 L187 190 L200 184 L211 180 L221 174 L228 170 L234 165 L238 159 L243 149 L244 144 L246 139 L246 131 L245 124 L243 118 L238 108 L233 101 L227 94 L216 85 L204 79 L192 74 L178 69 L168 67 L161 67 L156 67 L152 67 L147 69 L144 71 L141 73 L139 77 L136 84 L134 89 L133 93 L133 97 L133 104 L133 108 L133 113 L135 119 L136 124 L138 130 L139 132 L141 134 L144 137 L147 138 L151 138 L152 138 L155 138 L157 136 L159 133 L162 128 " fill="none" stroke="black" /></svg>