<?xml version="1.0" encoding="utf-8" ?>
<svg baseProfile="tiny" height="461" version="1.2" viewBox="-3 -3 373 461" width="373" xmlns="http://www.w3.org/2000/svg" xmlns:ev="http://www.w3.org/2001/xml-events" xmlns:xlink="http://www.w3.org/1999/xlink"><defs /><path d="M0 72 L0 69 " fill="none" stroke="black" /><path d="M0 72 L0 69 M12 80 L13 83 L20 219 L28 377 L28 422 L27 433 L27 435 " fill="none" stroke="black" /><path d="M0 72 L0 69 M12 80 L13 83 L20 219 L28 377 L28 422 L27 433 L27 435 M49 69 L50 78 L52 219 L44 317 L44 374 L44 407 L44 409 L44 410 " fill="none" stroke="black" /><path d="M0 72 L0 69 M12 80 L13 83 L20 219 L28 377 L28 422 L27 433 L27 435 M49 69 L50 78 L52 219 L44 317 L44 374 L44 407 L44 409 L44 410 M72 128 L96 214 L112 316 L113 365 L113 371 L113 372 " fill="none" stroke="black" /><path d="M0 72 L0 69 M12 80 L13 83 L20 219 L28 377 L28 422 L27 433 L27 435 M49 69 L50 78 L52 219 L44 317 L44 374 L44 407 L44 409 L44 410 M72 128 L96 214 L112 316 L113 365 L113 371 L113 372 M124 150 L124 154 L137 216 L150 333 L155 387 L157 407 L157 410 L157 411 " fill="none" stroke="black" /><path d="M0 72 L0 69 M12 80 L13 83 L20 219 L28 377 L28 422 L27 433 L27 435 M49 69 L50 78 L52 219 L44 317 L44 374 L44 407 L44 409 L44 410 M72 128 L96 214 L112 316 L113 365 L113 371 L113 372 M124 150 L124 154 L137 216 L150 333 L155 387 L157 407 L157 410 L157 411 M179 77 L177 95 L177 97 L177 98 L177 99 L176 101 L176 127 L177 255 L177 312 L177 331 L177 335 L177 337 L177 338 " fill="none" stroke="black" /><path d="M0 72 L0 69 M12 80 L13 83 L20 219 L28 377 L28 422 L27 433 L27 435 M49 69 L50 78 L52 219 L44 317 L44 374 L44 407 L44 409 L44 410 M72 128 L96 214 L112 316 L113 365 L113 371 L113 372 M124 150 L124 154 L137 216 L150 333 L155 387 L157 407 L157 410 L157 411 M179 77 L177 95 L177 97 L177 98 L177 99 L176 101 L176 127 L177 255 L177 312 L177 331 L177 335 L177 337 L177 338 M201 11 L203 18 L206 34 L208 109 L204 175 L203 206 L203 221 L203 228 L203 230 L203 231 " fill="none" stroke="black" /><path d="M0 72 L0 69 M12 80 L13 83 L20 219 L28 377 L28 422 L27 433 L27 435 M49 69 L50 78 L52 219 L44 317 L44 374 L44 407 L44 409 L44 410 M72 128 L96 214 L112 316 L113 365 L113 371 L113 372 M124 150 L124 154 L137 216 L150 333 L155 387 L157 407 L157 410 L157 411 M179 77 L177 95 L177 97 L177 98 L177 99 L176 101 L176 127 L177 255 L177 312 L177 331 L177 335 L177 337 L177 338 M201 11 L203 18 L206 34 L208 109 L204 175 L203 206 L203 221 L203 228 L203 230 L203 231 M242 113 L241 113 L237 123 L232 258 L237 339 L240 375 L241 389 L242 392 L242 393 " fill="none" stroke="black" /><path d="M0 72 L0 69 M12 80 L13 83 L20 219 L28 377 L28 422 L27 433 L27 435 M49 69 L50 78 L52 219 L44 317 L44 374 L44 407 L44 409 L44 410 M72 128 L96 214 L112 316 L113 365 L113 371 L113 372 M124 150 L124 154 L137 216 L150 333 L155 387 L157 407 L157 410 L157 411 M179 77 L177 95 L177 97 L177 98 L177 99 L176 101 L176 127 L177 255 L177 312 L177 331 L177 335 L177 337 L177 338 M201 11 L203 18 L206 34 L208 109 L204 175 L203 206 L203 221 L203 228 L203 230 L203 231 M242 113 L241 113 L237 123 L232 258 L237 339 L240 375 L241 389 L242 392 L242 393 M281 78 L279 96 L274 227 L278 348 L285 400 L286 405 L286 407 L286 408 L284 407 " fill="none" stroke="black" /><path d="M0 72 L0 69 M12 80 L13 83 L20 219 L28 377 L28 422 L27 433 L27 435 M49 69 L50 78 L52 219 L44 317 L44 374 L44 407 L44 409 L44 410 M72 128 L96 214 L112 316 L113 365 L113 371 L113 372 M124 150 L124 154 L137 216 L150 333 L155 387 L157 407 L157 410 L157 411 M179 77 L177 95 L177 97 L177 98 L177 99 L176 101 L176 127 L177 255 L177 312 L177 331 L177 335 L177 337 L177 338 M201 11 L203 18 L206 34 L208 109 L204 175 L203 206 L203 221 L203 228 L203 230 L203 231 M242 113 L241 113 L237 123 L232 258 L237 339 L240 375 L241 389 L242 392 L242 393 M281 78 L279 96 L274 227 L278 348 L285 400 L286 405 L286 407 L286 408 L284 407 M171 145 L170 157 L171 318 L175 411 L176 448 L177 458 L177 460 L177 461 " fill="none" stroke="black" /><path d="M0 72 L0 69 M12 80 L13 83 L20 219 L28 377 L28 422 L27 433 L27 435 M49 69 L50 78 L52 219 L44 317 L44 374 L44 407 L44 409 L44 410 M72 128 L96 214 L112 316 L113 365 L113 371 L113 372 M124 150 L124 154 L137 216 L150 333 L155 387 L157 407 L157 410 L157 411 M179 77 L177 95 L177 97 L177 98 L177 99 L176 101 L176 127 L177 255 L177 312 L177 331 L177 335 L177 337 L177 338 M201 11 L203 18 L206 34 L208 109 L204 175 L203 206 L203 221 L203 228 L203 230 L203 231 M242 113 L241 113 L237 123 L232 258 L237 339 L240 375 L241 389 L242 392 L242 393 M281 78 L279 96 L274 227 L278 348 L285 400 L286 405 L286 407 L286 408 L284 407 M171 145 L170 157 L171 318 L175 411 L176 448 L177 458 L177 460 L177 461 M292 229 L300 259 L305 281 L306 289 L307 291 L307 293 L308 296 L308 297 L310 296 " fill="none" stroke="black" /><path d="M0 72 L0 69 M12 80 L13 83 L20 219 L28 377 L28 422 L27 433 L27 435 M49 69 L50 78 L52 219 L44 317 L44 374 L44 407 L44 409 L44 410 M72 128 L96 214 L112 316 L113 365 L113 371 L113 372 M124 150 L124 154 L137 216 L150 333 L155 387 L157 407 L157 410 L157 411 M179 77 L177 95 L177 97 L177 98 L177 99 L176 101 L176 127 L177 255 L177 312 L177 331 L177 335 L177 337 L177 338 M201 11 L203 18 L206 34 L208 109 L204 175 L203 206 L203 221 L203 228 L203 230 L203 231 M242 113 L241 113 L237 123 L232 258 L237 339 L240 375 L241 389 L242 392 L242 393 M281 78 L279 96 L274 227 L278 348 L285 400 L286 405 L286 407 L286 408 L284 407 M171 145 L170 157 L171 318 L175 411 L176 448 L177 458 L177 460 L177 461 M292 229 L300 259 L305 281 L306 289 L307 291 L307 293 L308 296 L308 297 L310 296 M342 62 L342 83 L339 179 L341 271 L344 300 L344 309 L347 315 L347 318 L347 319 " fill="none" stroke="black" /><path d="M0 72 L0 69 M12 80 L13 83 L20 219 L28 377 L28 422 L27 433 L27 435 M49 69 L50 78 L52 219 L44 317 L44 374 L44 407 L44 409 L44 410 M72 128 L96 214 L112 316 L113 365 L113 371 L113 372 M124 150 L124 154 L137 216 L150 333 L155 387 L157 407 L157 410 L157 411 M179 77 L177 95 L177 97 L177 98 L177 99 L176 101 L176 127 L177 255 L177 312 L177 331 L177 335 L177 337 L177 338 M201 11 L203 18 L206 34 L208 109 L204 175 L203 206 L203 221 L203 228 L203 230 L203 231 M242 113 L241 113 L237 123 L232 258 L237 339 L240 375 L241 389 L242 392 L242 393 M281 78 L279 96 L274 227 L278 348 L285 400 L286 405 L286 407 L286 408 L284 407 M171 145 L170 157 L171 318 L175 411 L176 448 L177 458 L177 460 L177 461 M292 229 L300 259 L305 281 L306 289 L307 291 L307 293 L308 296 L308 297 L310 296 M342 62 L342 83 L339 179 L341 271 L344 300 L344 309 L347 315 L347 318 L347 319 M371 12 L371 40 L371 216 L371 323 L373 356 L373 365 L373 367 L373 368 " fill="none" stroke="black" /><path d="M0 72 L0 69 M12 80 L13 83 L20 219 L28 377 L28 422 L27 433 L27 435 M49 69 L50 78 L52 219 L44 317 L44 374 L44 407 L44 409 L44 410 M72 128 L96 214 L112 316 L113 365 L113 371 L113 372 M124 150 L124 154 L137 216 L150 333 L155 387 L157 407 L157 410 L157 411 M179 77 L177 95 L177 97 L177 98 L177 99 L176 101 L176 127 L177 255 L177 312 L177 331 L177 335 L177 337 L177 338 M201 11 L203 18 L206 34 L208 109 L204 175 L203 206 L203 221 L203 228 L203 230 L203 231 M242 113 L241 113 L237 123 L232 258 L237 339 L240 375 L241 389 L242 392 L242 393 M281 78 L279 96 L274 227 L278 348 L285 400 L286 405 L286 407 L286 408 L284 407 M171 145 L170 157 L171 318 L175 411 L176 448 L177 458 L177 460 L177 461 M292 229 L300 259 L305 281 L306 289 L307 291 L307 293 L308 296 L308 297 L310 296 M342 62 L342 83 L339 179 L341 271 L344 300 L344 309 L347 315 L347 318 L347 319 M371 12 L371 40 L371 216 L371 323 L373 356 L373 365 L373 367 L373 368 M339 181 L319 317 L318 353 L318 364 L318 367 L318 368 L317 368 L315 363 " fill="none" stroke="black" /><path d="M0 72 L0 69 M12 80 L13 83 L20 219 L28 377 L28 422 L27 433 L27 435 M49 69 L50 78 L52 219 L44 317 L44 374 L44 407 L44 409 L44 410 M72 128 L96 214 L112 316 L113 365 L113 371 L113 372 M124 150 L124 154 L137 216 L150 333 L155 387 L157 407 L157 410 L157 411 M179 77 L177 95 L177 97 L177 98 L177 99 L176 101 L176 127 L177 255 L177 312 L177 331 L177 335 L177 337 L177 338 M201 11 L203 18 L206 34 L208 109 L204 175 L203 206 L203 221 L203 228 L203 230 L203 231 M242 113 L241 113 L237 123 L232 258 L237 339 L240 375 L241 389 L242 392 L242 393 M281 78 L279 96 L274 227 L278 348 L285 400 L286 405 L286 407 L286 408 L284 407 M171 145 L170 157 L171 318 L175 411 L176 448 L177 458 L177 460 L177 461 M292 229 L300 259 L305 281 L306 289 L307 291 L307 293 L308 296 L308 297 L310 296 M342 62 L342 83 L339 179 L341 271 L344 300 L344 309 L347 315 L347 318 L347 319 M371 12 L371 40 L371 216 L371 323 L373 356 L373 365 L373 367 L373 368 M339 181 L319 317 L318 353 L318 364 L318 367 L318 368 L317 368 L315 363 M292 31 L292 32 L292 64 L297 200 L299 249 L300 294 L301 310 L301 314 L301 315 " fill="none" stroke="black" /><path d="M0 72 L0 69 M12 80 L13 83 L20 219 L28 377 L28 422 L27 433 L27 435 M49 69 L50 78 L52 219 L44 317 L44 374 L44 407 L44 409 L44 410 M72 128 L96 214 L112 316 L113 365 L113 371 L113 372 M124 150 L124 154 L137 216 L150 333 L155 387 L157 407 L157 410 L157 411 M179 77 L177 95 L177 97 L177 98 L177 99 L176 101 L176 127 L177 255 L177 312 L177 331 L177 335 L177 337 L177 338 M201 11 L203 18 L206 34 L208 109 L204 175 L203 206 L203 221 L203 228 L203 230 L203 231 M242 113 L241 113 L237 123 L232 258 L237 339 L240 375 L241 389 L242 392 L242 393 M281 78 L279 96 L274 227 L278 348 L285 400 L286 405 L286 407 L286 408 L284 407 M171 145 L170 157 L171 318 L175 411 L176 448 L177 458 L177 460 L177 461 M292 229 L300 259 L305 281 L306 289 L307 291 L307 293 L308 296 L308 297 L310 296 M342 62 L342 83 L339 179 L341 271 L344 300 L344 309 L347 315 L347 318 L347 319 M371 12 L371 40 L371 216 L371 323 L373 356 L373 365 L373 367 L373 368 M339 181 L319 317 L318 353 L318 364 L318 367 L318 368 L317 368 L315 363 M292 31 L292 32 L292 64 L297 200 L299 249 L300 294 L301 310 L301 314 L301 315 M242 95 L244 158 L241 283 L241 363 L244 423 L244 435 L244 436 L244 437 " fill="none" stroke="black" /><path d="M0 72 L0 69 M12 80 L13 83 L20 219 L28 377 L28 422 L27 433 L27 435 M49 69 L50 78 L52 219 L44 317 L44 374 L44 407 L44 409 L44 410 M72 128 L96 214 L112 316 L113 365 L113 371 L113 372 M124 150 L124 154 L137 216 L150 333 L155 387 L157 407 L157 410 L157 411 M179 77 L177 95 L177 97 L177 98 L177 99 L176 101 L176 127 L177 255 L177 312 L177 331 L177 335 L177 337 L177 338 M201 11 L203 18 L206 34 L208 109 L204 175 L203 206 L203 221 L203 228 L203 230 L203 231 M242 113 L241 113 L237 123 L232 258 L237 339 L240 375 L241 389 L242 392 L242 393 M281 78 L279 96 L274 227 L278 348 L285 400 L286 405 L286 407 L286 408 L284 407 M171 145 L170 157 L171 318 L175 411 L176 448 L177 458 L177 460 L177 461 M292 229 L300 259 L305 281 L306 289 L307 291 L307 293 L308 296 L308 297 L310 296 M342 62 L342 83 L339 179 L341 271 L344 300 L344 309 L347 315 L347 318 L347 319 M371 12 L371 40 L371 216 L371 323 L373 356 L373 365 L373 367 L373 368 M339 181 L319 317 L318 353 L318 364 L318 367 L318 368 L317 368 L315 363 M292 31 L292 32 L292 64 L297 200 L299 249 L300 294 L301 310 L301 314 L301 315 M242 95 L244 158 L241 283 L241 363 L244 423 L244 435 L244 436 L244 437 M193 89 L190 146 L190 233 L192 276 L192 301 L192 311 L192 313 L192 314 L190 307 " fill="none" stroke="black" /><path d="M0 72 L0 69 M12 80 L13 83 L20 219 L28 377 L28 422 L27 433 L27 435 M49 69 L50 78 L52 219 L44 317 L44 374 L44 407 L44 409 L44 410 M72 128 L96 214 L112 316 L113 365 L113 371 L113 372 M124 150 L124 154 L137 216 L150 333 L155 387 L157 407 L157 410 L157 411 M179 77 L177 95 L177 97 L177 98 L177 99 L176 101 L176 127 L177 255 L177 312 L177 331 L177 335 L177 337 L177 338 M201 11 L203 18 L206 34 L208 109 L204 175 L203 206 L203 221 L203 228 L203 230 L203 231 M242 113 L241 113 L237 123 L232 258 L237 339 L240 375 L241 389 L242 392 L242 393 M281 78 L279 96 L274 227 L278 348 L285 400 L286 405 L286 407 L286 408 L284 407 M171 145 L170 157 L171 318 L175 411 L176 448 L177 458 L177 460 L177 461 M292 229 L300 259 L305 281 L306 289 L307 291 L307 293 L308 296 L308 297 L310 296 M342 62 L342 83 L339 179 L341 271 L344 300 L344 309 L347 315 L347 318 L347 319 M371 12 L371 40 L371 216 L371 323 L373 356 L373 365 L373 367 L373 368 M339 181 L319 317 L318 353 L318 364 L318 367 L318 368 L317 368 L315 363 M292 31 L292 32 L292 64 L297 200 L299 249 L300 294 L301 310 L301 314 L301 315 M242 95 L244 158 L241 283 L241 363 L244 423 L244 435 L244 436 L244 437 M193 89 L190 146 L190 233 L192 276 L192 301 L192 311 L192 313 L192 314 L190 307 M111 0 L114 39 L117 165 L114 228 L111 274 L111 288 L110 292 L110 294 L109 295 " fill="none" stroke="black" /></svg>