<?xml version="1.0" encoding="utf-8" ?>
<svg baseProfile="tiny" height="103" version="1.2" viewBox="-3 -3 745 103" width="745" xmlns="http://www.w3.org/2000/svg" xmlns:ev="http://www.w3.org/2001/xml-events" xmlns:xlink="http://www.w3.org/1999/xlink"><defs /><path d="M9 69 L13 65 L16 61 L17 56 L17 49 L16 45 L14 41 L10 39 L6 39 L3 39 L2 41 L0 46 L0 53 L3 64 L12 74 L35 83 L90 79 L154 57 L181 47 L189 41 L190 40 L190 39 L180 33 L144 25 L100 25 L70 34 L65 38 L62 40 L60 42 L60 44 L61 48 L96 70 L148 89 L175 93 L213 91 L233 88 L244 85 L253 81 L259 77 L263 74 L265 72 L266 68 L266 58 L266 45 L263 31 L261 28 L260 26 L258 24 L256 24 L252 23 L243 26 L237 29 L234 33 L232 37 L232 42 L235 52 L261 75 L288 89 L306 94 L323 94 L329 94 L336 92 L342 88 L346 85 L349 79 L350 69 L348 52 L345 43 L340 37 L334 32 L332 31 L329 30 L326 30 L324 31 L323 33 L322 37 L322 40 L323 44 L327 51 L331 55 L335 59 L344 64 L355 66 L369 67 L387 66 L400 62 L407 59 L413 55 L416 51 L420 43 L421 31 L421 25 L420 21 L418 18 L412 16 L409 15 L407 15 L407 16 L408 20 L429 42 L464 66 L492 80 L506 84 L514 84 L524 84 L537 82 L548 79 L553 77 L553 76 L551 70 L546 63 L539 57 L531 51 L527 50 L524 49 L523 49 L521 50 L521 51 L522 60 L528 71 L540 82 L573 98 L596 103 L618 103 L653 99 L674 91 L688 83 L699 75 L712 57 L716 44 L717 33 L715 20 L711 10 L708 4 L704 2 L697 0 L689 2 L681 5 L675 10 L671 17 L670 25 L670 30 L672 37 L679 45 L687 52 L704 58 L727 64 L738 64 L745 64 " fill="none" stroke="black" /></svg>