<?xml version="1.0" encoding="utf-8" ?>
<svg baseProfile="tiny" height="139" version="1.2" viewBox="-3 -3 843 139" width="843" xmlns="http://www.w3.org/2000/svg" xmlns:ev="http://www.w3.org/2001/xml-events" xmlns:xlink="http://www.w3.org/1999/xlink"><defs /><path d="M16 104 L10 110 L6 116 L3 119 L1 122 L0 123 L0 124 L12 118 L47 103 L71 94 L84 89 L103 81 L122 75 L134 71 L139 69 L141 68 L142 68 L140 71 L130 81 L122 90 L115 98 L106 108 L102 112 L101 115 L100 116 L99 117 L100 117 L134 107 L244 78 L270 73 L279 71 L283 71 L284 71 L282 73 L274 80 L266 86 L257 93 L244 102 L238 108 L233 112 L229 115 L228 116 L226 117 L232 114 L250 106 L281 95 L306 88 L323 84 L334 80 L339 79 L344 77 L348 76 L350 75 L352 75 L353 74 L349 78 L345 83 L342 87 L340 90 L338 93 L338 95 L338 97 L338 100 L338 101 L349 99 L378 87 L406 76 L431 66 L446 61 L453 58 L461 56 L467 54 L470 53 L472 53 L468 62 L464 71 L461 77 L457 85 L456 87 L455 89 L455 90 L456 90 L484 78 L575 33 L623 10 L639 2 L644 1 L647 0 L650 0 L651 0 L652 0 L652 1 L652 8 L648 18 L643 34 L637 49 L631 63 L625 76 L622 82 L621 86 L619 89 L619 90 L619 91 L619 92 L626 91 L642 81 L681 66 L700 60 L710 57 L718 55 L722 53 L725 53 L729 53 L731 53 L732 53 L733 56 L733 69 L728 82 L724 94 L719 108 L717 114 L715 116 L715 119 L714 120 L719 117 L736 108 L765 93 L777 89 L783 87 L785 86 L787 86 L788 86 L789 86 L789 89 L782 100 L775 110 L767 122 L761 131 L759 135 L758 136 L758 138 L758 139 L767 134 L795 111 L817 93 L832 81 L837 78 L840 76 L842 76 L843 75 " fill="none" stroke="black" /></svg>