<?xml version="1.0" encoding="utf-8" ?>
<svg baseProfile="tiny" height="420" version="1.2" viewBox="-3 -3 842 420" width="842" xmlns="http://www.w3.org/2000/svg" xmlns:ev="http://www.w3.org/2001/xml-events" xmlns:xlink="http://www.w3.org/1999/xlink"><defs /><path d="M155 246 L162 191 L196 76 L209 42 L209 41 L210 41 L192 187 L168 346 L166 372 L166 374 L166 370 L197 193 L245 14 L247 7 L249 18 L258 106 L273 161 L279 176 L282 180 L142 124 L19 110 L16 110 L51 115 L333 189 L415 214 L424 215 L383 212 L157 175 L21 132 L0 113 L54 113 L213 153 L369 208 L410 218 L415 219 L408 202 L362 135 L342 105 L345 119 L378 250 L396 325 L397 331 L398 328 L385 125 L365 55 L364 56 L361 159 L339 354 L342 415 L345 419 L390 288 L414 225 L418 219 L422 221 L451 335 L455 406 L461 390 L496 195 L500 101 L499 98 L489 110 L439 158 L350 228 L337 236 L335 236 L334 236 L454 218 L659 202 L694 196 L693 196 L597 195 L364 210 L298 205 L288 198 L305 185 L435 170 L558 185 L627 213 L636 216 L608 199 L486 75 L478 51 L479 50 L519 101 L660 264 L712 308 L718 310 L719 306 L720 280 L702 219 L694 206 L693 204 L708 262 L741 333 L760 342 L842 190 L829 127 L809 119 L761 131 L713 172 L682 228 L673 266 L670 289 L668 299 L666 296 L657 116 L657 18 L656 0 L655 0 L647 7 L601 67 L557 209 L582 286 L617 284 L656 240 L668 226 L669 226 L661 251 L638 286 L613 298 L579 287 L480 207 L394 127 L373 112 L372 112 L381 116 L648 182 L736 202 L750 203 L653 175 L354 110 L280 95 L261 92 L262 97 L299 117 L540 225 L609 251 L610 251 L596 254 L392 365 L300 410 L275 420 L271 420 " fill="none" stroke="black" /></svg>