<?xml version="1.0" encoding="utf-8" ?>
<svg baseProfile="tiny" height="461" version="1.2" viewBox="-3 -3 821 461" width="821" xmlns="http://www.w3.org/2000/svg" xmlns:ev="http://www.w3.org/2001/xml-events" xmlns:xlink="http://www.w3.org/1999/xlink"><defs /><path d="M1 442 L0 458 L0 460 L0 461 L10 443 L59 360 L76 328 L87 306 L94 292 L98 282 L101 273 L103 264 L103 262 L103 260 L103 259 L103 260 L98 315 L91 367 L88 380 L87 383 L87 384 L98 364 L149 257 L172 203 L181 182 L182 179 L182 177 L182 176 L181 177 L181 188 L188 267 L182 384 L179 403 L178 407 L177 408 L177 410 L178 408 L190 388 L234 308 L249 275 L257 255 L262 240 L265 231 L265 228 L265 226 L265 235 L265 335 L267 368 L267 374 L267 375 L268 373 L317 262 L358 176 L369 140 L376 115 L378 106 L378 102 L378 100 L378 99 L378 108 L384 188 L389 234 L391 254 L392 264 L393 268 L393 271 L405 238 L464 80 L480 29 L485 12 L485 10 L485 9 L485 12 L485 18 L487 39 L492 86 L495 134 L497 160 L499 172 L502 181 L502 184 L503 186 L503 188 L504 189 L504 190 L506 190 L508 189 L518 166 L539 103 L543 89 L544 85 L545 82 L545 81 L546 79 L546 78 L549 95 L557 138 L568 187 L571 200 L571 204 L572 207 L572 208 L572 209 L576 205 L602 137 L636 46 L650 9 L653 2 L653 1 L653 0 L654 9 L665 69 L676 149 L683 191 L687 209 L687 212 L687 213 L688 214 L689 214 L690 210 L692 196 L701 159 L706 140 L708 132 L708 129 L708 128 L708 127 L708 126 L710 130 L720 157 L735 184 L743 193 L746 194 L751 191 L765 170 L773 154 L779 141 L782 131 L783 125 L785 121 L785 119 L786 118 L803 159 L816 191 L819 199 L820 202 L820 203 L821 204 " fill="none" stroke="black" /></svg>