<?xml version="1.0" encoding="utf-8" ?>
<svg baseProfile="tiny" height="225" version="1.2" viewBox="-3 -3 271 225" width="271" xmlns="http://www.w3.org/2000/svg" xmlns:ev="http://www.w3.org/2001/xml-events" xmlns:xlink="http://www.w3.org/1999/xlink"><defs /><path d="M55 98 L72 120 L90 132 L95 133 L101 123 L103 97 L96 80 L84 75 L61 81 L49 96 L48 107 L56 123 L70 129 L86 127 L104 106 L108 81 L100 71 L74 68 L15 126 L0 172 L2 197 L45 211 L164 166 L211 117 L214 77 L196 58 L160 52 L72 85 L38 112 L26 133 L26 150 L35 163 L54 176 L82 176 L125 131 L131 92 L117 70 L80 63 L63 71 L56 82 L54 97 L58 116 L81 135 L104 138 L135 117 L155 83 L149 48 L128 35 L101 40 L65 79 L59 110 L66 138 L102 166 L115 169 L128 161 L147 114 L133 80 L88 62 L38 75 L23 91 L20 110 L36 147 L101 182 L139 187 L168 168 L193 130 L197 95 L176 64 L132 58 L83 72 L65 85 L63 91 L66 106 L110 171 L152 189 L193 169 L219 132 L211 113 L151 91 L102 94 L79 106 L73 112 L71 122 L71 129 L103 158 L127 165 L144 157 L159 121 L159 85 L141 62 L119 62 L95 77 L83 97 L82 111 L85 127 L99 135 L107 135 L121 120 L124 66 L105 41 L86 35 L60 56 L46 94 L44 138 L76 185 L111 191 L134 180 L154 150 L158 119 L143 90 L100 74 L63 81 L34 106 L21 146 L25 177 L51 203 L94 207 L178 135 L199 92 L196 62 L170 38 L131 33 L91 49 L69 75 L66 98 L82 152 L145 222 L161 225 L170 207 L190 87 L171 21 L146 0 L117 3 L99 20 L87 47 L83 87 L96 121 L197 153 L257 120 L271 89 L255 68 L172 54 L116 67 L95 89 L86 120 L87 145 L95 162 L112 170 L119 164 L120 156 " fill="none" stroke="black" /></svg>