<?xml version="1.0" encoding="utf-8" ?>
<svg baseProfile="tiny" height="311" version="1.2" viewBox="-3 -3 425 311" width="425" xmlns="http://www.w3.org/2000/svg" xmlns:ev="http://www.w3.org/2001/xml-events" xmlns:xlink="http://www.w3.org/1999/xlink"><defs /><path d="M0 135 L4 128 L6 125 L7 123 L8 121 L10 120 L12 119 L13 119 L14 119 L16 119 L20 124 L23 131 L26 138 L28 149 L29 156 L32 167 L33 181 L34 192 L36 205 L38 219 L43 237 L45 246 L48 253 L51 256 L54 257 L56 257 L60 255 L63 250 L69 238 L87 188 L97 153 L101 135 L105 122 L108 114 L110 109 L111 105 L112 104 L113 103 L114 102 L115 102 L116 102 L117 102 L118 102 L119 101 L122 101 L125 105 L132 115 L137 128 L138 131 L139 135 L140 139 L141 141 L142 142 L144 144 L146 144 L150 144 L156 140 L162 130 L169 109 L176 84 L180 70 L185 54 L189 42 L194 28 L197 22 L200 15 L204 9 L207 4 L211 1 L213 0 L218 0 L229 3 L239 12 L248 25 L260 50 L265 70 L269 80 L270 88 L273 97 L275 102 L276 105 L277 107 L279 109 L279 110 L280 112 L281 112 L281 113 L282 113 L283 113 L284 113 L286 113 L287 112 L290 111 L292 110 L294 109 L296 106 L297 104 L298 104 L299 103 L299 102 L300 101 L301 100 L303 98 L307 96 L311 93 L313 92 L316 91 L318 91 L319 92 L320 94 L321 97 L321 100 L321 107 L321 113 L321 121 L320 134 L320 146 L320 160 L320 175 L320 185 L320 191 L321 196 L322 199 L324 203 L326 207 L327 211 L329 212 L329 213 L337 204 L341 198 L345 192 L348 183 L351 176 L353 171 L357 165 L359 163 L363 161 L371 162 L379 168 L393 183 L410 209 L422 244 L424 267 L425 284 L425 299 L425 304 L425 307 L425 309 L425 310 L425 311 " fill="none" stroke="black" /></svg>