<?xml version="1.0" encoding="utf-8" ?>
<svg baseProfile="tiny" height="239" version="1.2" viewBox="-3 -3 770 239" width="770" xmlns="http://www.w3.org/2000/svg" xmlns:ev="http://www.w3.org/2001/xml-events" xmlns:xlink="http://www.w3.org/1999/xlink"><defs /><path d="M0 127 L9 124 L14 123 L19 122 L27 122 L32 122 L37 122 L43 124 L49 127 L54 130 L59 135 L63 139 L66 144 L70 151 L72 155 L75 159 L78 163 L83 167 L90 172 L102 178 L108 181 L115 183 L131 183 L142 183 L152 181 L168 177 L181 173 L190 169 L201 165 L214 159 L224 154 L232 150 L234 149 L241 146 L247 143 L255 141 L260 139 L266 138 L276 138 L283 138 L290 138 L300 139 L308 140 L314 142 L324 146 L331 149 L337 151 L345 154 L357 159 L372 162 L384 165 L398 167 L407 168 L417 168 L428 168 L433 168 L436 167 L438 167 " fill="none" stroke="black" /><path d="M0 127 L9 124 L14 123 L19 122 L27 122 L32 122 L37 122 L43 124 L49 127 L54 130 L59 135 L63 139 L66 144 L70 151 L72 155 L75 159 L78 163 L83 167 L90 172 L102 178 L108 181 L115 183 L131 183 L142 183 L152 181 L168 177 L181 173 L190 169 L201 165 L214 159 L224 154 L232 150 L234 149 L241 146 L247 143 L255 141 L260 139 L266 138 L276 138 L283 138 L290 138 L300 139 L308 140 L314 142 L324 146 L331 149 L337 151 L345 154 L357 159 L372 162 L384 165 L398 167 L407 168 L417 168 L428 168 L433 168 L436 167 L438 167 M228 59 L227 59 L238 49 L270 28 L293 15 L300 12 L317 10 L337 9 L353 9 L367 12 L386 17 L400 22 L408 27 L420 34 L428 42 L434 47 L444 55 L452 60 L459 64 L468 68 L479 71 L488 71 L499 71 L506 69 L517 64 L531 55 L540 48 L546 42 L559 31 L572 22 L582 15 L594 8 L601 5 L608 2 L614 1 L621 0 L627 0 L633 0 L644 2 L654 4 L664 7 L673 10 L680 12 L689 16 L698 20 L704 24 L708 27 L713 29 L715 31 L717 31 " fill="none" stroke="black" /><path d="M0 127 L9 124 L14 123 L19 122 L27 122 L32 122 L37 122 L43 124 L49 127 L54 130 L59 135 L63 139 L66 144 L70 151 L72 155 L75 159 L78 163 L83 167 L90 172 L102 178 L108 181 L115 183 L131 183 L142 183 L152 181 L168 177 L181 173 L190 169 L201 165 L214 159 L224 154 L232 150 L234 149 L241 146 L247 143 L255 141 L260 139 L266 138 L276 138 L283 138 L290 138 L300 139 L308 140 L314 142 L324 146 L331 149 L337 151 L345 154 L357 159 L372 162 L384 165 L398 167 L407 168 L417 168 L428 168 L433 168 L436 167 L438 167 M228 59 L227 59 L238 49 L270 28 L293 15 L300 12 L317 10 L337 9 L353 9 L367 12 L386 17 L400 22 L408 27 L420 34 L428 42 L434 47 L444 55 L452 60 L459 64 L468 68 L479 71 L488 71 L499 71 L506 69 L517 64 L531 55 L540 48 L546 42 L559 31 L572 22 L582 15 L594 8 L601 5 L608 2 L614 1 L621 0 L627 0 L633 0 L644 2 L654 4 L664 7 L673 10 L680 12 L689 16 L698 20 L704 24 L708 27 L713 29 L715 31 L717 31 M358 239 L358 238 L358 237 L364 233 L375 226 L395 217 L435 203 L456 199 L471 197 L493 197 L507 198 L518 200 L527 203 L533 206 L539 210 L546 215 L551 219 L560 224 L577 230 L586 234 L591 236 L600 237 L608 238 L615 238 L628 238 L640 236 L654 233 L664 231 L677 225 L687 219 L696 213 L706 206 L715 200 L723 195 L742 186 L749 183 L754 183 L762 181 L768 181 L770 181 " fill="none" stroke="black" /></svg>