<?xml version="1.0" encoding="utf-8" ?>
<svg baseProfile="tiny" height="340" version="1.2" viewBox="-3 -3 929 340" width="929" xmlns="http://www.w3.org/2000/svg" xmlns:ev="http://www.w3.org/2001/xml-events" xmlns:xlink="http://www.w3.org/1999/xlink"><defs /><path d="M0 269 L8 270 L22 271 L41 271 L52 271 L62 271 L79 271 L91 271 L106 271 L123 269 L141 268 L152 267 L168 265 L185 262 L195 261 L206 259 L223 256 L236 254 L244 254 " fill="none" stroke="black" /><path d="M0 269 L8 270 L22 271 L41 271 L52 271 L62 271 L79 271 L91 271 L106 271 L123 269 L141 268 L152 267 L168 265 L185 262 L195 261 L206 259 L223 256 L236 254 L244 254 M113 190 L123 190 L194 185 L311 184 L371 180 L403 174 L437 170 L464 168 L479 167 L492 166 L500 166 L504 166 L507 166 " fill="none" stroke="black" /><path d="M0 269 L8 270 L22 271 L41 271 L52 271 L62 271 L79 271 L91 271 L106 271 L123 269 L141 268 L152 267 L168 265 L185 262 L195 261 L206 259 L223 256 L236 254 L244 254 M113 190 L123 190 L194 185 L311 184 L371 180 L403 174 L437 170 L464 168 L479 167 L492 166 L500 166 L504 166 L507 166 M631 106 L654 104 L665 103 L670 103 L672 103 L673 103 L674 103 L675 103 L676 103 " fill="none" stroke="black" /><path d="M0 269 L8 270 L22 271 L41 271 L52 271 L62 271 L79 271 L91 271 L106 271 L123 269 L141 268 L152 267 L168 265 L185 262 L195 261 L206 259 L223 256 L236 254 L244 254 M113 190 L123 190 L194 185 L311 184 L371 180 L403 174 L437 170 L464 168 L479 167 L492 166 L500 166 L504 166 L507 166 M631 106 L654 104 L665 103 L670 103 L672 103 L673 103 L674 103 L675 103 L676 103 M211 109 L212 109 L217 109 L294 109 L418 109 L481 109 L524 107 L537 106 L545 106 L554 105 L560 105 L564 105 L565 105 " fill="none" stroke="black" /><path d="M0 269 L8 270 L22 271 L41 271 L52 271 L62 271 L79 271 L91 271 L106 271 L123 269 L141 268 L152 267 L168 265 L185 262 L195 261 L206 259 L223 256 L236 254 L244 254 M113 190 L123 190 L194 185 L311 184 L371 180 L403 174 L437 170 L464 168 L479 167 L492 166 L500 166 L504 166 L507 166 M631 106 L654 104 L665 103 L670 103 L672 103 L673 103 L674 103 L675 103 L676 103 M211 109 L212 109 L217 109 L294 109 L418 109 L481 109 L524 107 L537 106 L545 106 L554 105 L560 105 L564 105 L565 105 M408 268 L407 268 L409 268 L514 254 L681 249 L759 244 L823 236 L866 231 L870 231 L871 231 " fill="none" stroke="black" /><path d="M0 269 L8 270 L22 271 L41 271 L52 271 L62 271 L79 271 L91 271 L106 271 L123 269 L141 268 L152 267 L168 265 L185 262 L195 261 L206 259 L223 256 L236 254 L244 254 M113 190 L123 190 L194 185 L311 184 L371 180 L403 174 L437 170 L464 168 L479 167 L492 166 L500 166 L504 166 L507 166 M631 106 L654 104 L665 103 L670 103 L672 103 L673 103 L674 103 L675 103 L676 103 M211 109 L212 109 L217 109 L294 109 L418 109 L481 109 L524 107 L537 106 L545 106 L554 105 L560 105 L564 105 L565 105 M408 268 L407 268 L409 268 L514 254 L681 249 L759 244 L823 236 L866 231 L870 231 L871 231 M635 144 L640 144 L715 135 L841 132 L888 130 L906 127 L918 126 L924 124 L927 124 L928 124 L929 123 " fill="none" stroke="black" /><path d="M0 269 L8 270 L22 271 L41 271 L52 271 L62 271 L79 271 L91 271 L106 271 L123 269 L141 268 L152 267 L168 265 L185 262 L195 261 L206 259 L223 256 L236 254 L244 254 M113 190 L123 190 L194 185 L311 184 L371 180 L403 174 L437 170 L464 168 L479 167 L492 166 L500 166 L504 166 L507 166 M631 106 L654 104 L665 103 L670 103 L672 103 L673 103 L674 103 L675 103 L676 103 M211 109 L212 109 L217 109 L294 109 L418 109 L481 109 L524 107 L537 106 L545 106 L554 105 L560 105 L564 105 L565 105 M408 268 L407 268 L409 268 L514 254 L681 249 L759 244 L823 236 L866 231 L870 231 L871 231 M635 144 L640 144 L715 135 L841 132 L888 130 L906 127 L918 126 L924 124 L927 124 L928 124 L929 123 M439 26 L451 24 L556 6 L644 2 L693 2 L725 1 L733 0 L735 0 L736 0 " fill="none" stroke="black" /><path d="M0 269 L8 270 L22 271 L41 271 L52 271 L62 271 L79 271 L91 271 L106 271 L123 269 L141 268 L152 267 L168 265 L185 262 L195 261 L206 259 L223 256 L236 254 L244 254 M113 190 L123 190 L194 185 L311 184 L371 180 L403 174 L437 170 L464 168 L479 167 L492 166 L500 166 L504 166 L507 166 M631 106 L654 104 L665 103 L670 103 L672 103 L673 103 L674 103 L675 103 L676 103 M211 109 L212 109 L217 109 L294 109 L418 109 L481 109 L524 107 L537 106 L545 106 L554 105 L560 105 L564 105 L565 105 M408 268 L407 268 L409 268 L514 254 L681 249 L759 244 L823 236 L866 231 L870 231 L871 231 M635 144 L640 144 L715 135 L841 132 L888 130 L906 127 L918 126 L924 124 L927 124 L928 124 L929 123 M439 26 L451 24 L556 6 L644 2 L693 2 L725 1 L733 0 L735 0 L736 0 M228 339 L228 340 L227 340 L328 329 L539 323 L616 323 L674 320 L737 313 L767 312 L772 311 " fill="none" stroke="black" /><path d="M0 269 L8 270 L22 271 L41 271 L52 271 L62 271 L79 271 L91 271 L106 271 L123 269 L141 268 L152 267 L168 265 L185 262 L195 261 L206 259 L223 256 L236 254 L244 254 M113 190 L123 190 L194 185 L311 184 L371 180 L403 174 L437 170 L464 168 L479 167 L492 166 L500 166 L504 166 L507 166 M631 106 L654 104 L665 103 L670 103 L672 103 L673 103 L674 103 L675 103 L676 103 M211 109 L212 109 L217 109 L294 109 L418 109 L481 109 L524 107 L537 106 L545 106 L554 105 L560 105 L564 105 L565 105 M408 268 L407 268 L409 268 L514 254 L681 249 L759 244 L823 236 L866 231 L870 231 L871 231 M635 144 L640 144 L715 135 L841 132 L888 130 L906 127 L918 126 L924 124 L927 124 L928 124 L929 123 M439 26 L451 24 L556 6 L644 2 L693 2 L725 1 L733 0 L735 0 L736 0 M228 339 L228 340 L227 340 L328 329 L539 323 L616 323 L674 320 L737 313 L767 312 L772 311 M106 135 L142 130 L312 114 L462 108 L583 111 L609 111 L613 111 " fill="none" stroke="black" /><path d="M0 269 L8 270 L22 271 L41 271 L52 271 L62 271 L79 271 L91 271 L106 271 L123 269 L141 268 L152 267 L168 265 L185 262 L195 261 L206 259 L223 256 L236 254 L244 254 M113 190 L123 190 L194 185 L311 184 L371 180 L403 174 L437 170 L464 168 L479 167 L492 166 L500 166 L504 166 L507 166 M631 106 L654 104 L665 103 L670 103 L672 103 L673 103 L674 103 L675 103 L676 103 M211 109 L212 109 L217 109 L294 109 L418 109 L481 109 L524 107 L537 106 L545 106 L554 105 L560 105 L564 105 L565 105 M408 268 L407 268 L409 268 L514 254 L681 249 L759 244 L823 236 L866 231 L870 231 L871 231 M635 144 L640 144 L715 135 L841 132 L888 130 L906 127 L918 126 L924 124 L927 124 L928 124 L929 123 M439 26 L451 24 L556 6 L644 2 L693 2 L725 1 L733 0 L735 0 L736 0 M228 339 L228 340 L227 340 L328 329 L539 323 L616 323 L674 320 L737 313 L767 312 L772 311 M106 135 L142 130 L312 114 L462 108 L583 111 L609 111 L613 111 M199 230 L286 230 L468 223 L611 219 L666 214 L686 210 L693 208 L694 208 " fill="none" stroke="black" /><path d="M0 269 L8 270 L22 271 L41 271 L52 271 L62 271 L79 271 L91 271 L106 271 L123 269 L141 268 L152 267 L168 265 L185 262 L195 261 L206 259 L223 256 L236 254 L244 254 M113 190 L123 190 L194 185 L311 184 L371 180 L403 174 L437 170 L464 168 L479 167 L492 166 L500 166 L504 166 L507 166 M631 106 L654 104 L665 103 L670 103 L672 103 L673 103 L674 103 L675 103 L676 103 M211 109 L212 109 L217 109 L294 109 L418 109 L481 109 L524 107 L537 106 L545 106 L554 105 L560 105 L564 105 L565 105 M408 268 L407 268 L409 268 L514 254 L681 249 L759 244 L823 236 L866 231 L870 231 L871 231 M635 144 L640 144 L715 135 L841 132 L888 130 L906 127 L918 126 L924 124 L927 124 L928 124 L929 123 M439 26 L451 24 L556 6 L644 2 L693 2 L725 1 L733 0 L735 0 L736 0 M228 339 L228 340 L227 340 L328 329 L539 323 L616 323 L674 320 L737 313 L767 312 L772 311 M106 135 L142 130 L312 114 L462 108 L583 111 L609 111 L613 111 M199 230 L286 230 L468 223 L611 219 L666 214 L686 210 L693 208 L694 208 M223 168 L363 149 L485 141 L544 138 L601 132 L622 130 L634 129 L635 129 " fill="none" stroke="black" /><path d="M0 269 L8 270 L22 271 L41 271 L52 271 L62 271 L79 271 L91 271 L106 271 L123 269 L141 268 L152 267 L168 265 L185 262 L195 261 L206 259 L223 256 L236 254 L244 254 M113 190 L123 190 L194 185 L311 184 L371 180 L403 174 L437 170 L464 168 L479 167 L492 166 L500 166 L504 166 L507 166 M631 106 L654 104 L665 103 L670 103 L672 103 L673 103 L674 103 L675 103 L676 103 M211 109 L212 109 L217 109 L294 109 L418 109 L481 109 L524 107 L537 106 L545 106 L554 105 L560 105 L564 105 L565 105 M408 268 L407 268 L409 268 L514 254 L681 249 L759 244 L823 236 L866 231 L870 231 L871 231 M635 144 L640 144 L715 135 L841 132 L888 130 L906 127 L918 126 L924 124 L927 124 L928 124 L929 123 M439 26 L451 24 L556 6 L644 2 L693 2 L725 1 L733 0 L735 0 L736 0 M228 339 L228 340 L227 340 L328 329 L539 323 L616 323 L674 320 L737 313 L767 312 L772 311 M106 135 L142 130 L312 114 L462 108 L583 111 L609 111 L613 111 M199 230 L286 230 L468 223 L611 219 L666 214 L686 210 L693 208 L694 208 M223 168 L363 149 L485 141 L544 138 L601 132 L622 130 L634 129 L635 129 M372 15 L384 18 L405 20 L533 27 L675 36 L705 38 L718 38 L727 39 " fill="none" stroke="black" /><path d="M0 269 L8 270 L22 271 L41 271 L52 271 L62 271 L79 271 L91 271 L106 271 L123 269 L141 268 L152 267 L168 265 L185 262 L195 261 L206 259 L223 256 L236 254 L244 254 M113 190 L123 190 L194 185 L311 184 L371 180 L403 174 L437 170 L464 168 L479 167 L492 166 L500 166 L504 166 L507 166 M631 106 L654 104 L665 103 L670 103 L672 103 L673 103 L674 103 L675 103 L676 103 M211 109 L212 109 L217 109 L294 109 L418 109 L481 109 L524 107 L537 106 L545 106 L554 105 L560 105 L564 105 L565 105 M408 268 L407 268 L409 268 L514 254 L681 249 L759 244 L823 236 L866 231 L870 231 L871 231 M635 144 L640 144 L715 135 L841 132 L888 130 L906 127 L918 126 L924 124 L927 124 L928 124 L929 123 M439 26 L451 24 L556 6 L644 2 L693 2 L725 1 L733 0 L735 0 L736 0 M228 339 L228 340 L227 340 L328 329 L539 323 L616 323 L674 320 L737 313 L767 312 L772 311 M106 135 L142 130 L312 114 L462 108 L583 111 L609 111 L613 111 M199 230 L286 230 L468 223 L611 219 L666 214 L686 210 L693 208 L694 208 M223 168 L363 149 L485 141 L544 138 L601 132 L622 130 L634 129 L635 129 M372 15 L384 18 L405 20 L533 27 L675 36 L705 38 L718 38 L727 39 M379 167 L478 164 L563 163 L590 163 L599 163 L603 164 L604 165 " fill="none" stroke="black" /><path d="M0 269 L8 270 L22 271 L41 271 L52 271 L62 271 L79 271 L91 271 L106 271 L123 269 L141 268 L152 267 L168 265 L185 262 L195 261 L206 259 L223 256 L236 254 L244 254 M113 190 L123 190 L194 185 L311 184 L371 180 L403 174 L437 170 L464 168 L479 167 L492 166 L500 166 L504 166 L507 166 M631 106 L654 104 L665 103 L670 103 L672 103 L673 103 L674 103 L675 103 L676 103 M211 109 L212 109 L217 109 L294 109 L418 109 L481 109 L524 107 L537 106 L545 106 L554 105 L560 105 L564 105 L565 105 M408 268 L407 268 L409 268 L514 254 L681 249 L759 244 L823 236 L866 231 L870 231 L871 231 M635 144 L640 144 L715 135 L841 132 L888 130 L906 127 L918 126 L924 124 L927 124 L928 124 L929 123 M439 26 L451 24 L556 6 L644 2 L693 2 L725 1 L733 0 L735 0 L736 0 M228 339 L228 340 L227 340 L328 329 L539 323 L616 323 L674 320 L737 313 L767 312 L772 311 M106 135 L142 130 L312 114 L462 108 L583 111 L609 111 L613 111 M199 230 L286 230 L468 223 L611 219 L666 214 L686 210 L693 208 L694 208 M223 168 L363 149 L485 141 L544 138 L601 132 L622 130 L634 129 L635 129 M372 15 L384 18 L405 20 L533 27 L675 36 L705 38 L718 38 L727 39 M379 167 L478 164 L563 163 L590 163 L599 163 L603 164 L604 165 M122 322 L124 322 L168 320 L362 306 L480 300 L544 299 L587 299 L594 299 L597 299 L598 300 " fill="none" stroke="black" /><path d="M0 269 L8 270 L22 271 L41 271 L52 271 L62 271 L79 271 L91 271 L106 271 L123 269 L141 268 L152 267 L168 265 L185 262 L195 261 L206 259 L223 256 L236 254 L244 254 M113 190 L123 190 L194 185 L311 184 L371 180 L403 174 L437 170 L464 168 L479 167 L492 166 L500 166 L504 166 L507 166 M631 106 L654 104 L665 103 L670 103 L672 103 L673 103 L674 103 L675 103 L676 103 M211 109 L212 109 L217 109 L294 109 L418 109 L481 109 L524 107 L537 106 L545 106 L554 105 L560 105 L564 105 L565 105 M408 268 L407 268 L409 268 L514 254 L681 249 L759 244 L823 236 L866 231 L870 231 L871 231 M635 144 L640 144 L715 135 L841 132 L888 130 L906 127 L918 126 L924 124 L927 124 L928 124 L929 123 M439 26 L451 24 L556 6 L644 2 L693 2 L725 1 L733 0 L735 0 L736 0 M228 339 L228 340 L227 340 L328 329 L539 323 L616 323 L674 320 L737 313 L767 312 L772 311 M106 135 L142 130 L312 114 L462 108 L583 111 L609 111 L613 111 M199 230 L286 230 L468 223 L611 219 L666 214 L686 210 L693 208 L694 208 M223 168 L363 149 L485 141 L544 138 L601 132 L622 130 L634 129 L635 129 M372 15 L384 18 L405 20 L533 27 L675 36 L705 38 L718 38 L727 39 M379 167 L478 164 L563 163 L590 163 L599 163 L603 164 L604 165 M122 322 L124 322 L168 320 L362 306 L480 300 L544 299 L587 299 L594 299 L597 299 L598 300 M135 262 L137 262 L173 258 L392 244 L445 240 L500 235 L515 234 L517 234 " fill="none" stroke="black" /></svg>