<?xml version="1.0" encoding="utf-8" ?>
<svg baseProfile="tiny" height="55" version="1.2" viewBox="-3 -3 783 55" width="783" xmlns="http://www.w3.org/2000/svg" xmlns:ev="http://www.w3.org/2001/xml-events" xmlns:xlink="http://www.w3.org/1999/xlink"><defs /><path d="M0 21 L3 18 L10 13 L17 10 L25 7 L31 6 L36 5 L41 4 L47 4 L52 5 L57 7 L64 12 L68 15 L71 19 L74 23 L76 27 L77 30 L79 33 L82 38 L84 41 L86 43 L89 46 L91 48 L94 49 L97 50 L101 51 L105 52 L112 52 L120 52 L128 51 L135 50 L140 48 L147 46 L153 43 L158 41 L161 39 L165 35 L168 32 L170 30 L175 24 L179 20 L182 16 L188 12 L192 10 L195 9 L200 8 L206 8 L212 8 L218 10 L223 12 L227 14 L230 16 L235 19 L237 21 L240 23 L245 26 L249 28 L253 30 L258 32 L262 34 L265 35 L271 35 L274 36 L278 36 L283 36 L285 36 L288 35 L291 33 L294 30 L297 26 L301 20 L304 16 L305 14 L309 10 L311 8 L315 6 L321 4 L333 7 L343 12 L352 16 L359 20 L363 24 L365 26 L369 30 L373 32 L375 34 L379 37 L383 39 L388 41 L397 43 L407 44 L414 44 L421 44 L430 41 L441 35 L451 30 L457 26 L464 20 L470 17 L475 13 L480 12 L486 11 L490 11 L496 11 L509 17 L519 21 L528 28 L541 38 L550 44 L556 48 L562 52 L567 55 L570 55 L587 55 L602 53 L614 50 L624 47 L650 33 L668 22 L675 17 L679 15 L683 12 L690 8 L694 6 L699 3 L705 2 L708 1 L712 0 L715 0 L720 0 L724 1 L731 3 L739 8 L744 11 L749 14 L757 19 L762 22 L765 24 L770 26 L771 27 L773 29 L775 30 L778 31 L779 31 L781 32 L782 33 L783 33 " fill="none" stroke="black" /></svg>