<?xml version="1.0" encoding="utf-8" ?>
<svg baseProfile="tiny" height="487" version="1.2" viewBox="-3 -3 781 487" width="781" xmlns="http://www.w3.org/2000/svg" xmlns:ev="http://www.w3.org/2001/xml-events" xmlns:xlink="http://www.w3.org/1999/xlink"><defs /><path d="M23 0 L21 19 L11 80 L3 173 L0 195 L0 200 L0 201 L11 166 L66 37 L72 26 L72 25 L72 24 L73 25 L80 87 L81 135 L82 151 L82 154 L82 155 L82 157 L82 158 L83 150 L99 56 L103 36 L103 33 L103 32 L104 32 L105 38 L117 135 L126 217 L134 266 L138 287 L138 290 L139 293 L139 294 L139 295 L139 296 L155 213 L181 114 L184 96 L185 95 L186 103 L200 160 L224 269 L228 290 L229 294 L229 296 L230 297 L230 298 L245 271 L251 256 L252 249 L252 244 L252 243 L252 241 L252 240 L251 276 L273 398 L296 449 L301 456 L301 457 L302 458 L305 451 L347 317 L400 181 L415 148 L418 140 L418 139 L418 147 L418 229 L427 312 L436 348 L439 358 L442 365 L443 370 L445 375 L446 381 L449 389 L450 395 L450 398 L451 399 L451 400 L452 400 L453 399 L457 375 L462 347 L464 335 L464 330 L464 329 L465 329 L478 353 L507 410 L524 443 L530 455 L532 457 L534 458 L535 459 L536 459 L541 445 L559 318 L564 281 L565 271 L565 269 L565 268 L579 298 L629 388 L659 434 L670 449 L679 460 L690 476 L694 483 L695 485 L695 487 L696 487 L696 486 L694 401 L694 347 L694 338 L694 337 L694 336 L715 367 L739 404 L749 421 L753 427 L756 431 L759 435 L768 443 L772 447 L774 448 L777 450 L778 451 L779 451 L780 451 L781 451 L781 450 " fill="none" stroke="black" /></svg>