<?xml version="1.0" encoding="utf-8" ?>
<svg baseProfile="tiny" height="419" version="1.2" viewBox="-3 -3 1053 419" width="1053" xmlns="http://www.w3.org/2000/svg" xmlns:ev="http://www.w3.org/2001/xml-events" xmlns:xlink="http://www.w3.org/1999/xlink"><defs /><path d="M0 419 L51 325 L175 98 L221 23 L232 3 L233 0 L233 2 L227 15 L201 74 L160 195 L149 247 L144 265 L142 269 L142 270 L141 271 L141 272 L141 271 L141 270 L141 268 L142 266 L142 265 L143 264 L143 263 L143 262 L143 261 L144 261 L144 260 L145 260 L148 258 L155 253 L162 248 L169 244 L177 240 L182 238 L187 235 L194 233 L203 230 L209 229 L215 228 L223 228 L228 228 L233 228 L237 228 L241 229 L244 230 L250 231 L257 231 L263 231 L272 233 L278 234 L282 234 L283 234 L285 235 L289 235 L293 235 L295 236 L298 237 L303 237 L310 237 L315 237 L318 237 L324 237 L330 237 L336 237 L346 235 L353 234 L357 233 L362 232 L365 231 L366 231 L369 231 L380 231 L393 231 L408 230 L423 229 L443 229 L455 228 L466 228 L475 228 L481 228 L485 228 L488 228 L493 228 L514 225 L533 223 L556 219 L564 219 L568 218 L573 217 L578 216 L594 215 L612 214 L630 212 L645 212 L663 210 L680 210 L685 210 L689 210 L704 203 L735 188 L758 170 L784 147 L813 107 L830 76 L838 56 L840 50 L840 48 L840 53 L820 167 L796 303 L789 345 L788 352 L788 354 L788 356 L788 357 L788 358 L793 354 L805 345 L818 335 L836 321 L847 314 L856 309 L869 303 L879 299 L890 296 L905 293 L921 291 L932 290 L937 289 L939 289 L944 288 L956 287 L967 285 L986 283 L1017 281 L1033 280 L1043 279 L1049 278 L1052 278 L1053 278 " fill="none" stroke="black" /></svg>