<?xml version="1.0" encoding="utf-8" ?>
<svg baseProfile="tiny" height="168" version="1.2" viewBox="-3 -3 629 168" width="629" xmlns="http://www.w3.org/2000/svg" xmlns:ev="http://www.w3.org/2001/xml-events" xmlns:xlink="http://www.w3.org/1999/xlink"><defs /><path d="M0 129 L0 132 L2 135 L4 137 L17 139 L120 139 L172 134 L189 131 L194 130 L195 130 L193 122 L183 96 L170 57 L167 47 L164 42 L162 37 L159 31 L158 29 L157 26 L154 24 L151 23 L129 24 L98 28 L89 29 L87 30 L84 31 L83 32 L83 34 L89 46 L116 113 L122 150 L122 155 L122 157 L123 160 L123 161 L124 163 L125 164 L130 165 L196 161 L313 151 L334 150 L339 149 L342 149 L343 149 L343 148 L343 145 L333 124 L302 66 L292 45 L289 38 L287 35 L286 32 L284 30 L283 29 L282 29 L280 29 L277 31 L262 39 L233 52 L228 53 L226 54 L226 55 L225 56 L228 62 L243 96 L256 132 L262 148 L265 154 L269 161 L271 165 L274 167 L285 168 L373 159 L400 157 L406 155 L410 155 L413 155 L414 154 L415 154 L415 152 L413 138 L391 47 L384 21 L381 15 L379 13 L378 12 L377 12 L376 12 L374 13 L367 16 L361 19 L357 21 L353 22 L351 23 L350 25 L349 27 L348 30 L347 37 L348 52 L351 62 L354 73 L358 82 L359 84 L360 86 L362 87 L382 87 L464 86 L518 91 L531 92 L538 92 L542 92 L543 92 L544 92 L545 92 L545 90 L542 74 L534 32 L529 8 L527 3 L525 1 L524 1 L520 0 L515 0 L504 3 L492 6 L482 9 L476 11 L475 11 L474 13 L472 21 L471 45 L471 83 L481 128 L487 144 L489 150 L490 152 L491 152 L495 152 L525 150 L567 149 L598 148 L615 148 L620 147 L623 147 L626 147 L627 147 L628 147 L629 145 L628 122 L613 57 " fill="none" stroke="black" /></svg>