<?xml version="1.0" encoding="utf-8" ?>
<svg baseProfile="tiny" height="338" version="1.2" viewBox="-3 -3 589 338" width="589" xmlns="http://www.w3.org/2000/svg" xmlns:ev="http://www.w3.org/2001/xml-events" xmlns:xlink="http://www.w3.org/1999/xlink"><defs /><path d="M0 258 L9 255 L76 251 L121 243 L131 236 L130 230 L111 219 L51 206 L42 206 L37 229 L18 324 L17 332 L16 333 L16 321 L48 148 L57 98 L57 95 L59 99 L79 152 L106 224 L111 229 L112 230 L110 193 L74 111 L51 96 L42 95 L39 101 L46 118 L242 215 L301 224 L309 224 L310 223 L309 218 L256 196 L115 182 L92 182 L91 182 L210 191 L461 235 L499 249 L502 250 L494 250 L337 261 L220 292 L193 314 L190 321 L190 323 L205 322 L396 251 L449 224 L458 215 L458 214 L419 233 L248 325 L229 336 L227 338 L255 320 L406 190 L434 145 L442 125 L441 123 L402 146 L269 240 L243 263 L241 264 L273 248 L473 145 L520 117 L528 109 L520 107 L339 170 L211 239 L183 254 L271 199 L479 82 L496 72 L497 71 L493 71 L382 97 L227 144 L164 177 L157 182 L156 183 L270 112 L439 18 L450 13 L430 21 L316 69 L194 143 L170 164 L166 169 L176 165 L365 93 L434 74 L446 73 L447 75 L427 102 L317 200 L249 267 L240 278 L240 279 L421 165 L475 136 L481 134 L480 137 L439 163 L289 256 L225 293 L221 297 L221 298 L437 179 L548 133 L558 131 L559 131 L529 157 L362 261 L302 300 L290 310 L290 311 L400 257 L570 169 L588 157 L589 156 L579 163 L438 237 L346 282 L331 288 L429 179 L511 93 L519 82 L498 84 L347 144 L231 214 L213 228 L210 230 L251 189 L414 39 L440 10 L438 8 L388 28 L299 83 L253 120 L248 123 L304 84 L429 4 L435 0 L433 5 L397 32 L366 54 L363 56 " fill="none" stroke="black" /></svg>