<?xml version="1.0" encoding="utf-8" ?>
<svg baseProfile="tiny" height="210" version="1.2" viewBox="-3 -3 500 210" width="500" xmlns="http://www.w3.org/2000/svg" xmlns:ev="http://www.w3.org/2001/xml-events" xmlns:xlink="http://www.w3.org/1999/xlink"><defs /><path d="M26 41 L15 63 L4 102 L0 136 L1 150 L12 170 L26 186 L51 197 L89 208 L115 210 L131 210 L142 210 L157 206 L162 203 L172 196 L181 187 L189 176 L200 157 L210 133 L214 122 L216 112 L217 100 L217 90 L214 74 L210 55 L206 42 L200 28 L187 14 L176 7 L164 3 L139 0 L119 0 L109 0 L105 0 L101 2 L96 5 L91 9 L87 14 L83 24 L81 55 L92 110 L100 135 L105 147 L111 156 L117 164 L126 171 L146 181 L166 189 L187 194 L203 197 L218 197 L228 197 L242 196 L249 195 L254 193 L262 191 L268 188 L277 183 L283 179 L289 175 L297 167 L308 158 L314 151 L318 142 L321 126 L323 108 L323 85 L321 63 L319 50 L315 39 L305 23 L290 10 L280 5 L271 3 L265 3 L260 4 L250 7 L245 9 L243 12 L238 17 L231 32 L225 57 L221 75 L221 82 L221 90 L221 101 L225 112 L230 122 L234 132 L244 146 L254 158 L263 168 L278 178 L293 183 L311 187 L338 189 L357 189 L372 188 L387 186 L397 183 L409 180 L439 166 L468 149 L483 137 L492 126 L497 117 L500 105 L500 91 L500 81 L496 70 L483 51 L468 38 L443 23 L406 13 L396 12 L390 12 L382 13 L377 15 L371 17 L363 22 L357 26 L351 33 L341 42 L337 48 L333 52 L331 56 L329 61 L327 65 L327 69 L327 77 L327 84 L330 93 L336 105 L342 112 L350 120 L364 130 L375 136 L389 143 L395 145 L402 148 L407 150 L414 153 L421 155 L423 155 L426 157 L428 158 L429 158 L430 159 L430 160 L431 160 " fill="none" stroke="black" /></svg>