<?xml version="1.0" encoding="utf-8" ?>
<svg baseProfile="tiny" height="555" version="1.2" viewBox="-3 -3 512 555" width="512" xmlns="http://www.w3.org/2000/svg" xmlns:ev="http://www.w3.org/2001/xml-events" xmlns:xlink="http://www.w3.org/1999/xlink"><defs /><path d="M294 106 L294 103 L305 139 L338 210 L377 248 L439 281 L448 285 L449 285 L372 272 L187 269 L22 269 L0 269 L20 278 L140 308 L416 331 L492 322 L496 316 L494 312 L468 304 L311 193 L292 154 L293 153 L297 160 L310 272 L304 382 L298 422 L298 424 L300 405 L331 227 L335 152 L334 146 L332 150 L396 284 L453 356 L465 363 L467 363 L467 359 L461 353 L435 339 L427 342 L460 498 L482 555 L482 553 L376 420 L234 287 L126 229 L121 225 L131 227 L298 335 L420 405 L460 414 L465 412 L465 406 L445 376 L331 284 L301 274 L294 274 L296 279 L369 318 L432 329 L450 301 L449 282 L431 276 L397 282 L360 312 L336 347 L330 360 L329 361 L376 264 L462 109 L465 101 L463 100 L435 122 L210 332 L99 467 L83 490 L81 475 L98 375 L142 239 L155 204 L156 203 L158 205 L242 349 L298 407 L311 410 L314 404 L304 369 L261 285 L243 259 L242 259 L244 260 L368 336 L505 398 L512 399 L512 391 L414 282 L288 187 L269 174 L269 175 L273 183 L384 357 L489 460 L502 466 L501 461 L424 405 L198 320 L87 299 L85 299 L89 299 L254 291 L448 273 L462 267 L462 264 L422 261 L214 281 L144 294 L132 293 L132 287 L160 262 L259 161 L263 149 L262 148 L250 153 L189 207 L155 239 L155 240 L211 212 L334 151 L372 135 L379 135 L393 158 L405 294 L366 427 L344 506 L337 537 L336 540 L333 482 L334 75 L319 4 L313 0 L308 23 L291 155 L275 273 L275 315 L275 320 L275 321 L274 321 L261 315 L239 302 L232 298 " fill="none" stroke="black" /></svg>