<?xml version="1.0" encoding="utf-8" ?>
<svg baseProfile="tiny" height="308" version="1.2" viewBox="-3 -3 392 308" width="392" xmlns="http://www.w3.org/2000/svg" xmlns:ev="http://www.w3.org/2001/xml-events" xmlns:xlink="http://www.w3.org/1999/xlink"><defs /><path d="M65 180 L127 168 L171 83 L173 45 L162 35 L125 42 L34 150 L0 261 L18 303 L46 308 L141 257 L280 123 L296 70 L275 52 L193 54 L104 88 L64 114 L59 123 L59 126 L65 129 L81 130 L104 119 L109 99 L103 80 L91 77 L74 93 L54 201 L80 237 L100 242 L129 221 L191 116 L187 86 L164 72 L90 92 L64 120 L59 133 L76 151 L153 174 L198 161 L233 104 L224 78 L185 61 L73 86 L42 115 L34 150 L64 217 L125 242 L266 177 L324 93 L307 20 L248 0 L148 33 L108 69 L92 92 L90 109 L105 132 L144 154 L185 151 L208 114 L207 76 L150 48 L81 64 L53 91 L43 127 L56 193 L98 226 L139 223 L205 147 L226 81 L209 37 L117 29 L58 62 L37 93 L33 121 L61 150 L207 177 L323 128 L347 96 L345 68 L283 43 L210 56 L171 79 L150 121 L148 149 L170 183 L229 203 L264 170 L289 108 L277 65 L229 51 L142 67 L94 101 L89 110 L91 116 L175 140 L219 137 L236 116 L243 77 L226 33 L199 24 L169 32 L140 81 L131 179 L151 253 L265 270 L371 176 L392 81 L343 23 L269 23 L197 47 L166 69 L159 80 L156 95 L160 128 L179 148 L208 152 L244 109 L253 70 L241 45 L173 32 L127 53 L111 75 L108 101 L118 123 L162 146 L223 130 L257 76 L260 41 L224 13 L190 16 L164 39 L141 92 L139 165 L166 193 L257 174 L346 76 L344 44 L314 31 L204 44 L168 70 L146 106 L139 137 L150 159 L241 176 L309 156 L326 135 L330 111 L318 79 L277 51 L250 57 " fill="none" stroke="black" /></svg>