<?xml version="1.0" encoding="utf-8" ?>
<svg baseProfile="tiny" height="233" version="1.2" viewBox="-3 -3 459 233" width="459" xmlns="http://www.w3.org/2000/svg" xmlns:ev="http://www.w3.org/2001/xml-events" xmlns:xlink="http://www.w3.org/1999/xlink"><defs /><path d="M0 37 L0 44 L0 61 L0 76 L1 67 L5 20 L5 0 L5 4 L12 58 L14 76 L14 69 L14 52 L13 88 L13 96 L10 86 L8 67 L8 66 L15 80 L25 103 L27 108 L31 86 L33 38 L33 42 L39 96 L53 124 L58 121 L60 78 L54 67 L57 74 L71 85 L107 91 L113 78 L77 51 L64 56 L79 70 L95 72 L94 65 L91 68 L91 91 L115 102 L127 95 L125 77 L125 83 L137 123 L150 138 L153 120 L143 92 L134 94 L135 106 L141 107 L145 89 L145 82 L144 92 L157 110 L169 110 L177 84 L177 83 L176 112 L177 122 L178 113 L178 97 L178 96 L182 109 L208 114 L232 112 L225 108 L219 126 L235 148 L242 140 L243 125 L247 138 L257 141 L272 122 L273 106 L272 106 L267 144 L276 159 L295 148 L300 120 L299 122 L299 138 L310 148 L318 144 L319 137 L319 144 L330 192 L343 198 L349 178 L349 155 L350 168 L361 183 L381 190 L391 163 L387 151 L387 171 L398 214 L413 222 L425 214 L427 202 L429 214 L448 233 L458 233 L459 230 " fill="none" stroke="black" /></svg>