<?xml version="1.0" encoding="utf-8" ?>
<svg baseProfile="tiny" height="275" version="1.2" viewBox="-3 -3 248 275" width="248" xmlns="http://www.w3.org/2000/svg" xmlns:ev="http://www.w3.org/2001/xml-events" xmlns:xlink="http://www.w3.org/1999/xlink"><defs /><path d="M4 275 L31 257 L248 149 " fill="none" stroke="black" /><path d="M4 275 L31 257 L248 149 M76 209 L73 209 L58 199 L38 184 L24 166 L18 151 L10 125 L4 109 L0 91 L0 77 L0 65 L3 53 L11 42 L25 35 L50 28 L68 25 L81 29 L102 37 L122 47 L130 55 L146 79 L155 94 L161 112 L164 125 L166 136 L169 143 L171 151 L172 159 L174 161 " fill="none" stroke="black" /><path d="M4 275 L31 257 L248 149 M76 209 L73 209 L58 199 L38 184 L24 166 L18 151 L10 125 L4 109 L0 91 L0 77 L0 65 L3 53 L11 42 L25 35 L50 28 L68 25 L81 29 L102 37 L122 47 L130 55 L146 79 L155 94 L161 112 L164 125 L166 136 L169 143 L171 151 L172 159 L174 161 M107 151 L108 157 L121 165 L154 167 L170 167 L170 159 L166 147 L158 131 L145 123 L134 123 L121 131 L110 139 L105 146 L105 153 L111 167 L126 172 L152 169 L173 156 L175 143 L173 137 L170 131 L164 129 L157 129 L143 133 L135 135 L134 135 L132 142 L132 153 L133 158 L142 169 L156 172 L178 172 L186 171 L186 158 L186 147 L180 133 L172 127 L150 121 L130 119 L113 118 L106 118 L103 124 L102 131 L106 148 L112 156 L119 158 L134 158 L151 158 L152 158 " fill="none" stroke="black" /><path d="M4 275 L31 257 L248 149 M76 209 L73 209 L58 199 L38 184 L24 166 L18 151 L10 125 L4 109 L0 91 L0 77 L0 65 L3 53 L11 42 L25 35 L50 28 L68 25 L81 29 L102 37 L122 47 L130 55 L146 79 L155 94 L161 112 L164 125 L166 136 L169 143 L171 151 L172 159 L174 161 M107 151 L108 157 L121 165 L154 167 L170 167 L170 159 L166 147 L158 131 L145 123 L134 123 L121 131 L110 139 L105 146 L105 153 L111 167 L126 172 L152 169 L173 156 L175 143 L173 137 L170 131 L164 129 L157 129 L143 133 L135 135 L134 135 L132 142 L132 153 L133 158 L142 169 L156 172 L178 172 L186 171 L186 158 L186 147 L180 133 L172 127 L150 121 L130 119 L113 118 L106 118 L103 124 L102 131 L106 148 L112 156 L119 158 L134 158 L151 158 L152 158 M45 30 L41 29 L33 26 L28 23 L26 19 L24 13 L24 8 L24 1 L24 0 L28 0 L34 4 L38 6 L43 10 L48 15 L49 18 L49 21 L49 22 " fill="none" stroke="black" /></svg>