<?xml version="1.0" encoding="utf-8" ?>
<svg baseProfile="tiny" height="120" version="1.2" viewBox="-3 -3 584 120" width="584" xmlns="http://www.w3.org/2000/svg" xmlns:ev="http://www.w3.org/2001/xml-events" xmlns:xlink="http://www.w3.org/1999/xlink"><defs /><path d="M0 18 L31 18 L32 18 L8 29 L4 32 L5 32 L14 43 L32 46 L60 42 L65 41 L44 40 L40 43 L45 58 L53 70 L86 87 L119 86 L139 68 L140 56 L135 56 L129 68 L128 104 L132 117 L142 108 L151 91 L154 76 L154 74 L154 82 L156 99 L169 117 L186 120 L202 104 L202 85 L196 78 L196 84 L196 95 L206 108 L219 108 L226 102 L232 92 L247 74 L253 67 L253 70 L253 96 L256 106 L256 105 L256 90 L258 64 L260 63 L272 80 L276 86 L276 83 L276 64 L276 52 L276 51 L280 64 L280 54 L281 36 L282 35 L288 43 L289 46 L290 35 L290 23 L290 19 L294 22 L304 37 L306 38 L306 36 L306 23 L308 22 L318 35 L327 46 L328 46 L330 44 L334 31 L341 20 L350 25 L364 58 L368 68 L369 70 L374 58 L393 40 L393 39 L395 48 L401 55 L407 56 L413 44 L413 28 L413 18 L412 18 L411 44 L411 57 L415 59 L430 49 L446 26 L450 9 L448 8 L443 26 L438 42 L438 43 L442 35 L444 16 L445 8 L444 12 L434 48 L433 53 L448 42 L484 19 L490 7 L484 6 L474 34 L464 66 L478 46 L493 24 L497 10 L494 16 L482 42 L482 44 L484 34 L489 16 L489 14 L480 25 L474 44 L474 47 L486 44 L507 25 L513 15 L513 18 L509 38 L508 40 L516 30 L534 8 L534 23 L532 36 L532 31 L542 14 L551 11 L556 21 L556 25 L556 14 L560 2 L560 0 L559 5 L553 30 L556 30 L578 9 L584 0 L584 2 L584 24 L584 25 L584 24 " fill="none" stroke="black" /></svg>