<?xml version="1.0" encoding="utf-8" ?>
<svg baseProfile="tiny" height="183" version="1.2" viewBox="-3 -3 833 183" width="833" xmlns="http://www.w3.org/2000/svg" xmlns:ev="http://www.w3.org/2001/xml-events" xmlns:xlink="http://www.w3.org/1999/xlink"><defs /><path d="M205 29 L200 32 L197 33 L206 33 L235 29 L253 27 L254 27 L252 38 L240 51 L226 59 L226 61 L231 56 L253 49 L288 44 L292 43 L293 46 L284 59 L270 69 L267 70 L282 67 L316 57 L356 54 L358 54 L353 63 L343 66 L332 69 L331 69 L332 68 L350 59 L386 49 L426 44 L428 45 L426 56 L411 69 L393 79 L392 79 L404 77 L447 73 L461 73 L462 73 L457 82 L444 90 L444 89 L458 80 L514 71 L531 71 L527 71 L496 81 L472 85 L488 83 L548 77 L565 77 L566 81 L565 97 L549 109 L539 113 L543 103 L552 97 L593 93 L604 93 L604 97 L604 105 L579 113 L571 113 L570 113 L621 105 L663 103 L667 103 L651 109 L632 113 L624 116 L634 113 L670 103 L690 101 L695 103 L695 120 L674 137 L662 143 L661 141 L676 132 L726 127 L760 127 L760 131 L751 140 L714 147 L655 151 L663 150 L700 150 L776 150 L786 150 L786 151 L761 162 L722 171 L717 171 L718 171 L742 171 L796 171 L832 171 L833 173 L811 180 L788 183 L787 183 L787 174 L796 159 L796 151 L776 131 L723 117 L619 112 L574 113 L559 119 L575 119 L624 119 L644 114 L604 104 L386 100 L216 100 L214 100 L222 103 L276 103 L370 91 L380 88 L372 77 L332 69 L266 67 L214 78 L203 98 L209 101 L280 80 L339 47 L349 25 L292 19 L218 27 L184 48 L182 58 L200 63 L260 53 L298 26 L290 11 L196 5 L40 29 L0 55 L14 60 L88 46 L158 11 L170 2 L156 0 L95 10 L52 30 L38 41 " fill="none" stroke="black" /></svg>