<?xml version="1.0" encoding="utf-8" ?>
<svg baseProfile="tiny" height="274" version="1.2" viewBox="-3 -3 328 274" width="328" xmlns="http://www.w3.org/2000/svg" xmlns:ev="http://www.w3.org/2001/xml-events" xmlns:xlink="http://www.w3.org/1999/xlink"><defs /><path d="M195 274 L188 270 L172 264 L94 227 L41 193 L12 157 L3 120 L0 89 L10 58 L27 40 L49 39 L70 58 L114 131 L127 204 L127 244 L130 260 L131 261 L133 254 L142 242 L144 241 L144 235 L142 223 L139 216 L138 200 L138 196 L141 207 L143 216 L144 216 L147 212 L152 204 L153 206 L156 218 L158 210 L160 202 L161 201 L163 200 L166 190 L168 188 L173 193 L174 195 L174 196 L178 191 L182 189 L183 189 L186 194 L187 196 L188 196 L184 188 L170 166 L159 149 L153 117 L155 91 L168 50 L176 46 L194 58 L210 78 L220 128 L220 178 L220 202 L222 205 L226 208 L232 208 L233 208 L233 206 L233 199 L232 178 L231 168 L232 170 L234 176 L234 178 L242 171 L244 170 L247 175 L248 178 L248 174 L248 162 L249 162 L255 174 L256 174 L258 169 L260 162 L264 168 L268 181 L269 180 L270 170 L273 168 L274 168 L278 172 L281 174 L285 175 L292 177 L292 175 L288 157 L268 120 L244 66 L236 23 L237 3 L255 0 L274 3 L301 44 L312 84 L318 183 L316 226 L314 233 L318 236 L326 238 L328 239 " fill="none" stroke="black" /></svg>