<?xml version="1.0" encoding="utf-8" ?>
<svg baseProfile="tiny" height="207" version="1.2" viewBox="-3 -3 424 207" width="424" xmlns="http://www.w3.org/2000/svg" xmlns:ev="http://www.w3.org/2001/xml-events" xmlns:xlink="http://www.w3.org/1999/xlink"><defs /><path d="M335 196 L305 197 L271 191 L235 180 L212 169 L202 163 L180 150 L158 141 L122 129 L101 128 L76 128 L42 128 L20 135 L8 143 L1 156 L0 178 L13 196 L31 203 L72 207 L123 207 L160 203 L189 180 L204 163 L241 140 L272 131 L336 129 L394 129 L420 137 L424 149 L422 167 L403 185 L368 195 L323 194 L276 179 L232 156 L180 137 L142 128 L110 124 L77 124 L51 135 L42 153 L41 169 L50 181 L74 183 L147 143 L216 90 L321 18 L337 11 L339 13 L339 15 L326 16 L243 11 L182 3 L160 0 L152 0 L135 1 L123 5 L109 14 L98 26 L86 41 L78 50 L76 52 L76 55 L82 67 L104 73 L148 82 L209 82 L257 65 L311 49 L349 45 L372 51 L383 65 L386 79 L384 89 L364 95 L338 97 L258 97 L200 91 L168 78 L142 66 L94 61 L56 61 L46 61 L40 75 L39 93 L46 111 L67 125 L126 134 L210 135 L276 135 L310 135 L358 131 L393 134 L410 142 L417 150 L417 156 L412 167 L381 177 L355 179 L315 179 L290 175 L254 157 L216 147 L194 136 L156 127 L135 119 L132 116 L120 102 L108 82 L100 74 L98 73 L78 84 L65 99 L60 119 L69 133 L120 142 L177 138 L212 117 L225 95 L266 73 L300 70 L345 71 L369 82 L373 88 L373 94 L358 97 L306 97 L174 60 L112 31 L94 23 L80 15 L64 13 L49 13 L30 26 L10 49 L6 69 L16 89 L51 101 L118 100 L177 78 L214 54 L248 43 L296 41 L326 43 L376 65 L387 85 L388 95 L378 99 L359 101 L339 101 " fill="none" stroke="black" /></svg>