<?xml version="1.0" encoding="utf-8" ?>
<svg baseProfile="tiny" height="434" version="1.2" viewBox="-3 -3 643 434" width="643" xmlns="http://www.w3.org/2000/svg" xmlns:ev="http://www.w3.org/2001/xml-events" xmlns:xlink="http://www.w3.org/1999/xlink"><defs /><path d="M0 204 L0 194 L0 168 L0 154 L0 152 L6 157 L19 188 L32 222 L33 203 L32 151 L32 142 L37 158 L66 278 L91 392 L87 354 L73 163 L72 80 L72 94 L101 300 L125 434 L126 434 L124 391 L103 193 L102 158 L102 159 L126 246 L154 372 L154 374 L131 250 L108 92 L100 34 L101 38 L139 258 L163 390 L163 382 L135 184 L105 1 L136 163 L166 340 L168 352 L149 213 L121 9 L121 14 L155 198 L188 329 L190 320 L183 171 L174 57 L174 68 L206 182 L225 247 L225 229 L198 56 L194 25 L210 148 L238 308 L238 304 L221 222 L200 88 L200 86 L246 281 L286 390 L290 386 L274 272 L252 123 L300 271 L340 372 L340 354 L315 195 L305 104 L310 137 L356 317 L381 382 L374 342 L326 164 L324 150 L356 258 L405 394 L409 400 L360 249 L302 54 L296 31 L329 153 L399 353 L395 326 L350 148 L328 56 L365 194 L428 384 L446 428 L407 296 L362 124 L359 115 L390 216 L425 315 L424 305 L380 115 L355 0 L371 73 L420 241 L427 258 L397 176 L372 39 L371 30 L409 166 L428 212 L424 170 L400 48 L401 39 L434 119 L475 220 L475 219 L446 95 L441 60 L461 113 L518 308 L530 362 L510 300 L476 160 L476 158 L535 326 L567 407 L563 373 L532 242 L526 192 L536 212 L570 309 L574 304 L552 206 L538 139 L545 162 L597 290 L609 320 L603 312 L570 228 L567 210 L592 257 L642 353 L643 352 L612 263 L588 149 L594 159 L627 238 L639 268 L639 266 L635 230 L635 224 " fill="none" stroke="black" /></svg>