<?xml version="1.0" encoding="utf-8" ?>
<svg baseProfile="tiny" height="277" version="1.2" viewBox="-3 -3 430 277" width="430" xmlns="http://www.w3.org/2000/svg" xmlns:ev="http://www.w3.org/2001/xml-events" xmlns:xlink="http://www.w3.org/1999/xlink"><defs /><path d="M0 80 L1 86 L6 100 L17 132 L36 171 L57 212 L85 250 L105 267 L126 277 L137 277 L163 276 L209 268 L281 248 L323 238 L377 229 L409 222 L425 214 L429 205 L430 189 L430 158 L429 116 L416 70 L411 42 L403 8 L399 1 L397 0 L377 5 L293 24 L248 38 L186 50 L132 62 L93 71 L72 76 L59 78 L51 79 L29 86 L29 100 L29 114 L37 126 L50 131 L74 134 L103 134 L107 134 L106 124 L103 116 L103 114 L101 118 L98 134 L112 150 L132 153 L164 144 L170 127 L144 109 L124 108 L111 119 L118 138 L135 149 L177 149 L216 134 L222 123 L202 113 L186 117 L179 152 L187 173 L216 176 L243 160 " fill="none" stroke="black" /><path d="M0 80 L1 86 L6 100 L17 132 L36 171 L57 212 L85 250 L105 267 L126 277 L137 277 L163 276 L209 268 L281 248 L323 238 L377 229 L409 222 L425 214 L429 205 L430 189 L430 158 L429 116 L416 70 L411 42 L403 8 L399 1 L397 0 L377 5 L293 24 L248 38 L186 50 L132 62 L93 71 L72 76 L59 78 L51 79 L29 86 L29 100 L29 114 L37 126 L50 131 L74 134 L103 134 L107 134 L106 124 L103 116 L103 114 L101 118 L98 134 L112 150 L132 153 L164 144 L170 127 L144 109 L124 108 L111 119 L118 138 L135 149 L177 149 L216 134 L222 123 L202 113 L186 117 L179 152 L187 173 L216 176 L243 160 M217 150 L223 169 L243 184 L253 184 L269 183 L275 180 " fill="none" stroke="black" /><path d="M0 80 L1 86 L6 100 L17 132 L36 171 L57 212 L85 250 L105 267 L126 277 L137 277 L163 276 L209 268 L281 248 L323 238 L377 229 L409 222 L425 214 L429 205 L430 189 L430 158 L429 116 L416 70 L411 42 L403 8 L399 1 L397 0 L377 5 L293 24 L248 38 L186 50 L132 62 L93 71 L72 76 L59 78 L51 79 L29 86 L29 100 L29 114 L37 126 L50 131 L74 134 L103 134 L107 134 L106 124 L103 116 L103 114 L101 118 L98 134 L112 150 L132 153 L164 144 L170 127 L144 109 L124 108 L111 119 L118 138 L135 149 L177 149 L216 134 L222 123 L202 113 L186 117 L179 152 L187 173 L216 176 L243 160 M217 150 L223 169 L243 184 L253 184 L269 183 L275 180 M239 157 L237 170 L252 179 L287 180 L316 178 L315 170 L296 159 L276 154 L269 158 L260 176 L263 190 L284 200 L311 200 L333 183 L336 174 L332 170 L325 170 L317 190 L317 196 L328 198 L347 198 L373 183 L383 166 L383 162 L375 165 L361 182 L357 196 L361 207 L394 214 L413 212 L411 203 L409 200 L407 200 L391 210 L389 220 L390 224 L397 225 L415 224 L417 222 " fill="none" stroke="black" /></svg>