<?xml version="1.0" encoding="utf-8" ?>
<svg baseProfile="tiny" height="205" version="1.2" viewBox="-3 -3 919 205" width="919" xmlns="http://www.w3.org/2000/svg" xmlns:ev="http://www.w3.org/2001/xml-events" xmlns:xlink="http://www.w3.org/1999/xlink"><defs /><path d="M263 201 L263 152 L265 145 L272 164 L277 177 L294 173 L338 167 L354 167 L362 167 L386 169 L416 169 L429 171 L432 171 L447 173 L466 173 L487 173 L490 173 L498 173 L514 173 L531 173 L535 173 L538 170 L541 152 L542 142 L545 145 L564 184 L572 199 L572 195 L572 169 L572 155 L578 165 L586 183 L588 171 L590 157 L595 166 L609 201 L611 205 L616 198 L620 187 L631 193 L642 203 L646 201 L664 185 L665 182 L676 183 L700 185 L704 185 L706 185 L720 185 L740 185 L747 185 L772 185 L778 185 L779 185 L781 185 L789 186 " fill="none" stroke="black" /><path d="M263 201 L263 152 L265 145 L272 164 L277 177 L294 173 L338 167 L354 167 L362 167 L386 169 L416 169 L429 171 L432 171 L447 173 L466 173 L487 173 L490 173 L498 173 L514 173 L531 173 L535 173 L538 170 L541 152 L542 142 L545 145 L564 184 L572 199 L572 195 L572 169 L572 155 L578 165 L586 183 L588 171 L590 157 L595 166 L609 201 L611 205 L616 198 L620 187 L631 193 L642 203 L646 201 L664 185 L665 182 L676 183 L700 185 L704 185 L706 185 L720 185 L740 185 L747 185 L772 185 L778 185 L779 185 L781 185 L789 186 M0 16 L5 14 L32 7 L41 5 L43 5 L47 5 L53 5 L58 5 L64 5 L72 5 L74 5 L85 3 L103 0 L104 0 L112 19 L115 26 L120 21 L127 9 L129 8 L145 35 L156 49 L158 47 L161 27 L163 22 L163 21 L168 29 L171 26 L176 25 L190 29 L202 29 L212 23 L213 23 L228 21 L232 21 L234 21 L239 21 L248 21 L257 21 L271 21 L304 21 L305 21 L308 22 L314 29 L316 31 L321 31 L330 21 L331 21 L334 20 L337 23 L347 18 L357 11 L361 14 L374 32 L375 33 L381 27 L385 21 L392 31 L402 44 L404 45 L410 43 L410 42 L415 41 L422 41 L448 37 L481 26 L483 32 L483 33 L498 30 L549 23 L577 23 L578 23 L596 23 L626 21 L645 21 L717 21 L726 21 L730 24 L734 29 L734 30 L734 31 L752 17 L768 15 L780 17 L782 20 L798 20 L826 36 L830 40 L842 31 L862 28 L870 28 L888 33 L892 34 L900 34 L919 34 " fill="none" stroke="black" /></svg>