<?xml version="1.0" encoding="utf-8" ?>
<svg baseProfile="tiny" height="202" version="1.2" viewBox="-3 -3 306 202" width="306" xmlns="http://www.w3.org/2000/svg" xmlns:ev="http://www.w3.org/2001/xml-events" xmlns:xlink="http://www.w3.org/1999/xlink"><defs /><path d="M81 87 L79 82 L69 67 L57 57 L44 48 L33 44 L21 43 L7 43 L1 48 L0 49 L0 59 L10 73 L29 84 L55 86 L86 86 L109 86 L111 86 L112 85 L112 80 L111 68 L111 50 L111 36 L119 18 L145 3 L165 0 L197 7 L208 17 L217 41 L213 72 L185 105 L159 117 L135 117 L133 117 L129 116 L127 112 L125 108 L121 96 L117 80 L116 70 L109 38 L95 14 L83 2 L82 2 L75 4 L71 11 L68 28 L69 50 L79 92 L97 132 L115 164 L127 179 L137 190 L143 198 L147 202 L148 202 L149 184 L149 166 L140 151 L133 136 L119 113 L107 96 L99 85 L87 80 L81 80 L68 88 L45 114 L25 133 L14 144 L14 149 L14 162 L15 178 L20 185 L29 185 L48 174 L70 156 L75 136 L75 124 L75 113 L75 108 L89 116 L143 140 L233 166 L274 171 L289 171 L296 166 L306 149 L306 138 L285 123 L243 114 L195 114 L159 114 L127 118 L103 122 L91 125 " fill="none" stroke="black" /></svg>