<?xml version="1.0" encoding="utf-8" ?>
<svg baseProfile="tiny" height="356" version="1.2" viewBox="-3 -3 640 356" width="640" xmlns="http://www.w3.org/2000/svg" xmlns:ev="http://www.w3.org/2001/xml-events" xmlns:xlink="http://www.w3.org/1999/xlink"><defs /><path d="M20 138 L43 122 L54 108 L56 90 L56 72 L56 52 L56 34 L54 24 L51 20 L45 20 L41 20 L36 20 L33 21 L28 26 L22 33 L19 38 L17 45 L15 48 L10 58 L7 64 L6 69 L4 73 L3 79 L3 84 L1 88 L0 94 L0 99 L0 108 L0 119 L1 129 L3 137 L5 143 L22 154 L41 160 L59 160 L89 160 L134 157 L181 146 L221 124 L227 110 L229 85 L228 63 L223 50 L214 34 L205 23 L201 14 L190 9 L177 4 L165 0 L157 0 L151 0 L139 3 L123 12 L114 18 L111 22 L109 26 L105 31 L101 36 L99 41 L96 46 L94 52 L92 58 L89 67 L87 82 L85 94 L85 104 L85 120 L85 138 L85 153 L87 168 L96 182 L111 199 L129 212 L145 220 L181 229 L235 232 L312 229 L369 208 L463 157 L498 126 L523 82 L525 50 L525 34 L519 30 L501 22 L489 18 L453 10 L427 8 L401 8 L376 8 L353 10 L325 14 L303 23 L283 38 L273 52 L262 71 L255 95 L251 120 L251 147 L251 174 L252 195 L257 213 L263 225 L269 235 L280 245 L292 254 L304 260 L324 273 L335 275 L359 281 L386 282 L429 282 L481 279 L537 265 L574 249 L600 226 L627 186 L635 164 L640 137 L640 123 L640 109 L635 92 L627 77 L618 68 L605 60 L587 56 L571 56 L555 56 L545 56 L535 57 L513 75 L484 108 L459 150 L447 182 L438 216 L433 245 L430 274 L430 298 L431 313 L439 326 L448 334 L459 342 L479 351 L503 355 L521 356 L557 353 L576 348 L589 340 L593 338 L594 336 " fill="none" stroke="black" /></svg>