<?xml version="1.0" encoding="utf-8" ?>
<svg baseProfile="tiny" height="25" version="1.2" viewBox="-3 -3 1037 25" width="1037" xmlns="http://www.w3.org/2000/svg" xmlns:ev="http://www.w3.org/2001/xml-events" xmlns:xlink="http://www.w3.org/1999/xlink"><defs /><path d="M0 25 L15 25 L34 25 L49 25 L63 25 L98 25 L142 25 L183 25 L220 25 L257 25 L284 25 L309 25 L331 25 L364 25 L387 25 L429 24 L455 24 L482 24 L511 24 L539 24 L565 24 L606 22 L643 21 L685 18 L728 11 L771 7 L808 6 L837 6 L869 6 L891 5 L936 0 L959 0 L1000 0 L1027 0 L1037 0 " fill="none" stroke="black" /></svg>