<?xml version="1.0" encoding="utf-8" ?>
<svg baseProfile="tiny" height="210" version="1.2" viewBox="-3 -3 349 210" width="349" xmlns="http://www.w3.org/2000/svg" xmlns:ev="http://www.w3.org/2001/xml-events" xmlns:xlink="http://www.w3.org/1999/xlink"><defs /><path d="M97 36 L99 36 L103 41 L105 47 L105 56 L99 64 L91 74 L81 82 L70 90 L55 101 L40 113 L33 120 L26 126 L19 132 L14 135 L10 140 L6 146 L3 152 L0 159 L0 162 L0 166 L0 168 L1 168 L2 168 L3 168 L17 167 L39 157 L56 144 L62 132 L73 114 L89 96 L101 82 L117 62 L143 34 L161 18 L178 7 L193 1 L197 0 L201 6 L199 28 L188 46 L168 70 L150 86 L137 98 L126 113 L118 124 L109 134 L102 145 L94 157 L88 164 L84 169 L84 173 L84 176 L86 177 L94 177 L99 177 L120 156 L133 142 L141 124 L150 115 L161 106 L171 92 L188 74 L200 62 L210 53 L222 44 L234 36 L244 31 L251 27 L254 34 L254 50 L245 73 L231 93 L213 110 L197 126 L184 136 L167 156 L159 166 L155 172 L150 180 L147 185 L144 191 L144 194 L145 194 L147 194 L153 194 L167 192 L177 181 L188 166 L196 158 L206 145 L212 138 L224 123 L236 110 L244 102 L255 92 L271 80 L287 70 L293 66 L301 64 L305 64 L307 64 L310 66 L311 77 L291 98 L273 113 L243 137 L233 147 L223 162 L217 174 L214 182 L213 188 L211 192 L211 198 L209 202 L209 206 L211 206 L213 206 L224 206 L243 199 L259 183 L267 170 L279 152 L289 138 L299 128 L311 114 L323 100 L333 92 L341 88 L345 87 L347 87 L349 87 L349 98 L343 114 L329 128 L308 144 L296 155 L282 168 L278 174 L277 181 L277 182 L277 185 L277 186 L277 190 L277 192 L277 196 L279 204 L279 208 L279 209 L279 210 L280 210 " fill="none" stroke="black" /></svg>