<?xml version="1.0" encoding="utf-8" ?>
<svg baseProfile="tiny" height="248" version="1.2" viewBox="-3 -3 503 248" width="503" xmlns="http://www.w3.org/2000/svg" xmlns:ev="http://www.w3.org/2001/xml-events" xmlns:xlink="http://www.w3.org/1999/xlink"><defs /><path d="M0 248 L0 237 L6 196 L31 124 L60 49 L73 8 L75 2 L84 11 L91 42 L94 62 L94 63 L103 50 L105 47 L109 53 L114 63 L115 64 L118 59 L124 47 L133 35 L134 35 L137 49 L138 58 L145 51 L156 41 L158 41 L159 43 L167 30 L169 27 L172 29 L174 37 L176 42 L178 39 L190 29 L198 28 L200 36 L202 50 L202 40 L204 24 L205 23 L206 23 L210 38 L212 47 L220 41 L234 32 L236 31 L238 35 L243 51 L248 45 L255 40 L260 38 L262 38 L265 49 L266 54 L268 53 L272 45 L286 29 L290 29 L293 39 L296 45 L297 46 L302 41 L309 35 L314 35 L318 39 L321 39 L326 35 L326 32 L326 31 L331 44 L335 39 L345 27 L351 21 L354 23 L358 38 L368 31 L378 21 L394 8 L395 11 L396 41 L397 47 L401 42 L413 19 L420 7 L428 7 L430 9 L431 19 L432 21 L450 10 L478 0 L480 5 L481 14 L482 23 L485 27 L495 27 L503 27 " fill="none" stroke="black" /></svg>