<?xml version="1.0" encoding="utf-8" ?>
<svg baseProfile="tiny" height="326" version="1.2" viewBox="-3 -3 922 326" width="922" xmlns="http://www.w3.org/2000/svg" xmlns:ev="http://www.w3.org/2001/xml-events" xmlns:xlink="http://www.w3.org/1999/xlink"><defs /><path d="M922 0 L771 20 L566 51 L392 86 L393 86 L400 86 L434 84 L479 75 L458 77 L366 101 L358 103 L364 104 L411 102 L446 98 L443 103 L421 116 L420 116 L425 118 L442 118 L493 118 L497 118 L494 120 L452 132 L446 134 L460 134 L464 134 L446 138 L434 142 L444 142 L476 142 L489 142 L488 142 L456 146 L452 146 L464 146 L468 146 L462 147 L445 151 L444 151 L447 151 L478 151 L484 152 L470 159 L453 166 L449 168 L471 166 L476 166 L464 169 L458 171 L460 171 L471 169 L472 170 L481 170 L486 170 L479 174 L450 179 L440 181 L447 181 L464 181 L475 181 L472 184 L460 186 L474 186 L480 186 L476 188 L471 190 L472 190 L488 192 L490 193 L489 197 L486 198 L488 198 L492 200 L492 203 L486 208 L494 212 L495 213 L494 213 L493 213 L496 213 L499 213 L498 213 L503 213 L504 213 L498 213 L493 213 L494 213 L499 215 L499 216 L499 215 L500 215 L500 217 L499 218 L500 218 L512 218 L513 218 L501 222 L499 222 L498 222 L496 222 L510 219 L679 178 L840 142 L858 138 L771 164 L486 232 L40 316 L0 326 L82 313 L254 283 L389 268 L458 260 L458 261 L453 264 L430 272 L428 272 L452 272 L558 254 L606 247 L574 253 L523 265 L522 266 L541 264 L544 263 L539 264 L525 268 L524 268 L523 268 L524 270 L524 271 L530 274 L532 274 L534 276 L533 280 L520 286 L519 286 L524 286 L526 286 L526 287 L524 290 L525 292 L526 292 L529 294 L532 295 L532 296 L532 298 L532 299 L542 302 L545 303 L545 304 " fill="none" stroke="black" /></svg>