<?xml version="1.0" encoding="utf-8" ?>
<svg baseProfile="tiny" height="556" version="1.2" viewBox="-3 -3 577 556" width="577" xmlns="http://www.w3.org/2000/svg" xmlns:ev="http://www.w3.org/2001/xml-events" xmlns:xlink="http://www.w3.org/1999/xlink"><defs /><path d="M0 0 L7 27 L16 111 L50 301 L74 475 L83 556 L86 556 " fill="none" stroke="black" /><path d="M0 0 L7 27 L16 111 L50 301 L74 475 L83 556 L86 556 M76 99 L94 145 L127 293 L141 527 L150 556 L154 556 " fill="none" stroke="black" /><path d="M0 0 L7 27 L16 111 L50 301 L74 475 L83 556 L86 556 M76 99 L94 145 L127 293 L141 527 L150 556 L154 556 M155 25 L180 178 L195 445 L199 556 " fill="none" stroke="black" /><path d="M0 0 L7 27 L16 111 L50 301 L74 475 L83 556 L86 556 M76 99 L94 145 L127 293 L141 527 L150 556 L154 556 M155 25 L180 178 L195 445 L199 556 M223 69 L250 207 L276 463 L280 556 " fill="none" stroke="black" /><path d="M0 0 L7 27 L16 111 L50 301 L74 475 L83 556 L86 556 M76 99 L94 145 L127 293 L141 527 L150 556 L154 556 M155 25 L180 178 L195 445 L199 556 M223 69 L250 207 L276 463 L280 556 M276 36 L304 142 L332 351 L346 556 " fill="none" stroke="black" /><path d="M0 0 L7 27 L16 111 L50 301 L74 475 L83 556 L86 556 M76 99 L94 145 L127 293 L141 527 L150 556 L154 556 M155 25 L180 178 L195 445 L199 556 M223 69 L250 207 L276 463 L280 556 M276 36 L304 142 L332 351 L346 556 M391 109 L404 161 L444 365 L462 556 " fill="none" stroke="black" /><path d="M0 0 L7 27 L16 111 L50 301 L74 475 L83 556 L86 556 M76 99 L94 145 L127 293 L141 527 L150 556 L154 556 M155 25 L180 178 L195 445 L199 556 M223 69 L250 207 L276 463 L280 556 M276 36 L304 142 L332 351 L346 556 M391 109 L404 161 L444 365 L462 556 M489 57 L522 167 L560 359 L577 556 " fill="none" stroke="black" /></svg>