<?xml version="1.0" encoding="utf-8" ?>
<svg baseProfile="tiny" height="380" version="1.2" viewBox="-3 -3 607 380" width="607" xmlns="http://www.w3.org/2000/svg" xmlns:ev="http://www.w3.org/2001/xml-events" xmlns:xlink="http://www.w3.org/1999/xlink"><defs /><path d="M0 0 L2 2 L31 42 L96 108 L147 172 L176 216 L196 250 L207 266 L212 271 L214 275 L214 276 L216 278 L217 280 L218 282 L219 282 L220 282 L224 284 L231 295 L234 297 L235 297 L246 281 L252 277 L256 282 L260 296 L262 298 L264 295 L271 280 L271 281 L271 302 L275 312 L281 312 L286 302 L299 322 L311 333 L334 325 L340 308 L334 310 L325 346 L328 350 L342 334 L348 323 L348 328 L356 353 L366 360 L367 361 L384 368 L466 370 L489 370 L483 372 L482 378 L499 379 L536 378 L553 374 L554 376 L553 380 L560 378 L577 368 L607 354 " fill="none" stroke="black" /></svg>