<?xml version="1.0" encoding="utf-8" ?>
<svg baseProfile="tiny" height="394" version="1.2" viewBox="-3 -3 658 394" width="658" xmlns="http://www.w3.org/2000/svg" xmlns:ev="http://www.w3.org/2001/xml-events" xmlns:xlink="http://www.w3.org/1999/xlink"><defs /><path d="M488 18 L478 14 L470 12 L460 10 L453 8 L442 6 L423 6 L408 5 L397 4 L384 2 L370 0 L344 0 L322 0 L304 0 L270 0 L252 0 L220 6 L198 10 L174 16 L160 19 L146 22 L108 36 L70 48 L50 56 L33 64 L18 76 L6 90 L0 104 L0 118 L2 135 L15 159 L45 188 L82 212 L119 233 L151 244 L189 251 L238 256 L306 256 L344 256 L421 253 L466 242 L500 228 L532 211 L573 185 L584 170 L594 151 L596 141 L596 125 L590 115 L576 104 L562 98 L538 88 L510 82 L481 78 L436 76 L402 76 L376 76 L346 76 L314 76 L284 76 L241 79 L211 84 L150 96 L111 105 L85 112 L73 118 L56 129 L43 143 L31 159 L24 178 L13 224 L8 256 L8 285 L20 311 L34 325 L44 326 L68 328 L123 332 L201 335 L278 335 L328 333 L369 330 L406 325 L464 308 L499 294 L538 272 L559 255 L587 230 L592 217 L595 200 L595 186 L590 172 L589 172 L581 172 L572 170 L556 168 L533 168 L511 168 L483 168 L454 168 L426 168 L400 168 L382 168 L356 168 L326 168 L290 168 L244 168 L217 168 L178 168 L151 171 L131 176 L112 188 L72 218 L54 240 L47 286 L47 318 L74 374 L98 385 L161 392 L300 394 L409 394 L481 394 L544 380 L614 349 L641 316 L650 274 L658 230 L658 184 L650 153 L644 150 L634 148 L616 144 L573 137 L500 128 L428 122 L375 119 L327 119 L278 119 L226 119 L172 120 L138 128 L118 135 L103 146 L86 159 L66 174 L52 188 L47 200 L46 208 L46 216 L46 224 " fill="none" stroke="black" /></svg>