<?xml version="1.0" encoding="utf-8" ?>
<svg baseProfile="tiny" height="402" version="1.2" viewBox="-3 -3 445 402" width="445" xmlns="http://www.w3.org/2000/svg" xmlns:ev="http://www.w3.org/2001/xml-events" xmlns:xlink="http://www.w3.org/1999/xlink"><defs /><path d="M101 77 L102 125 L102 130 L105 110 L114 55 L114 57 L112 169 L102 222 L101 205 L101 50 L101 0 L84 28 L64 193 L110 219 L142 145 L144 84 L103 232 L69 361 L75 357 L80 158 L76 97 L72 173 L94 321 L114 325 L124 167 L117 48 L112 143 L122 372 L156 353 L196 92 L177 19 L166 148 L198 340 L234 332 L246 161 L231 109 L224 310 L240 378 L243 311 L229 178 L224 184 L234 362 L268 402 L285 284 L264 96 L260 120 L280 361 L322 386 L354 250 L344 160 L330 201 L340 323 L366 296 L372 156 L372 154 L377 288 L401 348 L402 288 L384 172 L382 200 L391 300 L395 293 L395 210 L382 154 L382 197 L418 286 L422 281 L416 218 L411 193 L411 215 L412 234 L413 224 L413 187 L417 195 L430 230 L445 253 L432 219 L386 155 L364 160 L368 213 L373 222 L366 183 L319 97 L308 102 L300 186 L315 269 L318 262 L302 148 L292 137 L294 224 L316 329 L315 308 L289 189 L274 172 L274 255 L274 308 L268 272 L238 166 L216 133 L224 247 L248 328 L246 306 L182 176 L136 155 L127 228 L146 306 L146 287 L101 184 L60 150 L44 219 L70 276 L74 252 L54 124 L34 101 L34 188 L55 250 L56 223 L42 80 L33 59 L19 139 L23 230 L26 228 L26 173 L16 142 L3 180 L0 242 L9 247 L9 225 L8 164 " fill="none" stroke="black" /></svg>