<?xml version="1.0" encoding="utf-8" ?>
<svg baseProfile="tiny" height="374" version="1.2" viewBox="-3 -3 722 374" width="722" xmlns="http://www.w3.org/2000/svg" xmlns:ev="http://www.w3.org/2001/xml-events" xmlns:xlink="http://www.w3.org/1999/xlink"><defs /><path d="M0 0 L4 10 L16 39 L80 164 L137 263 L166 306 L167 306 L170 306 L180 306 L190 298 L190 297 L191 297 L192 297 L193 297 L196 297 L198 298 L207 290 L219 281 L220 280 L222 280 L224 282 L227 287 L230 284 L231 284 L232 285 L239 295 L242 304 L242 297 L244 289 L246 290 L248 294 L254 291 L260 292 L262 294 L264 298 L265 299 L270 294 L271 294 L271 297 L283 294 L284 294 L286 304 L288 303 L296 289 L298 288 L301 296 L302 302 L310 302 L312 302 L312 300 L314 297 L317 297 L320 296 L326 308 L327 310 L328 310 L330 299 L330 298 L334 303 L334 305 L336 306 L336 308 L346 308 L355 308 L356 308 L358 310 L360 312 L360 313 L362 315 L373 315 L379 315 L382 320 L382 321 L399 316 L403 313 L410 313 L410 314 L411 314 L414 314 L428 314 L431 314 L433 318 L434 319 L448 319 L479 323 L479 324 L486 325 L499 327 L503 332 L505 332 L511 332 L526 332 L538 332 L538 333 L540 338 L546 339 L563 338 L588 337 L612 337 L633 344 L648 360 L655 361 L672 361 L684 361 L696 360 L698 358 L702 370 L704 374 L712 372 L721 372 L722 370 " fill="none" stroke="black" /></svg>