<?xml version="1.0" encoding="utf-8" ?>
<svg baseProfile="tiny" height="111" version="1.2" viewBox="-3 -3 414 111" width="414" xmlns="http://www.w3.org/2000/svg" xmlns:ev="http://www.w3.org/2001/xml-events" xmlns:xlink="http://www.w3.org/1999/xlink"><defs /><path d="M0 13 L3 12 L14 10 L26 8 L36 7 L46 5 L54 3 L61 2 L74 0 L79 0 L88 0 L105 0 L114 0 L127 0 L134 0 L146 0 L154 0 L164 0 L181 0 L195 0 L204 0 L213 0 L225 0 L239 0 L254 0 L261 0 L270 0 L277 0 L283 0 L294 0 L307 0 L315 0 L322 0 L328 0 L333 0 L340 0 L349 0 L350 0 L354 0 L358 0 L361 0 L370 1 L382 3 L391 6 L397 9 L408 17 L413 23 L414 28 L414 31 L414 34 L409 38 L393 43 L383 46 L369 47 L358 50 L345 52 L331 56 L314 60 L300 60 L282 60 L254 60 L232 60 L223 60 L212 60 L204 60 L195 60 L185 60 L174 60 L156 60 L140 60 L129 60 L111 60 L83 60 L70 60 L69 60 L68 60 L64 60 L56 64 L54 65 L52 67 L50 70 L48 76 L47 83 L47 86 L47 88 L48 93 L52 100 L66 107 L76 109 L88 111 L99 111 L105 111 L112 111 L117 110 L130 109 L141 109 L150 107 L165 105 L186 104 L196 103 L206 102 L217 101 L229 99 L239 98 L251 98 L259 98 L271 97 L277 97 L290 97 L297 97 L303 97 L309 96 L316 96 L325 96 L329 96 L334 96 L345 96 L354 96 L365 96 L373 96 L383 96 L388 96 L395 96 L403 96 " fill="none" stroke="black" /></svg>