<?xml version="1.0" encoding="utf-8" ?>
<svg baseProfile="tiny" height="222" version="1.2" viewBox="-3 -3 406 222" width="406" xmlns="http://www.w3.org/2000/svg" xmlns:ev="http://www.w3.org/2001/xml-events" xmlns:xlink="http://www.w3.org/1999/xlink"><defs /><path d="M0 0 L2 9 L15 75 L32 147 L45 190 L53 214 L59 222 L61 222 L70 195 L78 143 L87 94 L98 58 L102 50 L104 53 L121 115 L133 183 L144 214 L148 221 L158 212 L171 186 L186 151 L193 128 L197 111 L199 104 L203 105 L218 133 L240 172 L252 195 L255 201 L257 202 L265 195 L271 179 L278 155 L280 149 L280 148 L281 147 L295 159 L320 181 L334 193 L339 185 L341 171 L348 150 L351 144 L351 143 L353 142 L375 151 L389 158 L396 161 L400 161 L402 162 L405 162 L406 161 L406 149 L406 132 L406 119 " fill="none" stroke="black" /></svg>