<?xml version="1.0" encoding="utf-8" ?>
<svg baseProfile="tiny" height="260" version="1.2" viewBox="-3 -3 718 260" width="718" xmlns="http://www.w3.org/2000/svg" xmlns:ev="http://www.w3.org/2001/xml-events" xmlns:xlink="http://www.w3.org/1999/xlink"><defs /><path d="M0 87 L8 87 L11 87 L13 87 L15 87 L22 87 L31 87 L35 87 L42 87 L51 87 L64 86 L72 84 L76 81 L86 74 L96 66 L102 61 L108 54 L114 47 L118 43 L123 37 L125 35 L129 32 L134 29 L143 26 L150 24 L157 22 L165 20 L172 20 L187 20 L197 20 L212 28 L220 35 L232 45 L245 56 L257 63 L269 66 L281 68 L296 70 L316 71 L331 71 L348 71 L355 71 L364 69 L380 63 L387 58 L391 52 L396 44 L398 37 L402 30 L409 24 L416 17 L429 8 L438 3 L440 1 L445 0 L453 0 L462 0 L471 2 L487 9 L497 16 L503 18 L505 18 L506 18 L510 21 L517 26 L529 33 L539 37 L551 39 L561 41 L574 42 L581 42 L590 42 L594 42 L598 42 L604 35 L610 31 L615 26 L616 25 L618 23 L623 22 L625 20 L629 17 L634 17 L646 16 L657 16 L662 16 L668 16 L679 21 L688 28 L703 44 L712 54 L717 79 L718 95 L718 109 L715 113 L706 123 L701 128 L685 139 L671 144 L656 150 L646 154 L635 157 L622 159 L610 159 L597 159 L571 159 L545 159 L520 159 L504 159 L493 159 L475 159 L461 160 L445 161 L426 166 L412 173 L399 180 L398 181 L394 184 L386 189 L374 194 L365 197 L359 199 L352 200 L339 201 L331 201 L319 200 L303 194 L283 189 L259 185 L250 184 L232 183 L214 183 L199 183 L190 184 L183 187 L174 193 L164 201 L156 208 L148 215 L144 220 L140 224 L139 227 L135 233 L133 238 L132 242 L126 249 L123 253 L117 258 L115 260 " fill="none" stroke="black" /></svg>