<?xml version="1.0" encoding="utf-8" ?>
<svg baseProfile="tiny" height="159" version="1.2" viewBox="-3 -3 968 159" width="968" xmlns="http://www.w3.org/2000/svg" xmlns:ev="http://www.w3.org/2001/xml-events" xmlns:xlink="http://www.w3.org/1999/xlink"><defs /><path d="M0 0 L0 8 L1 26 L4 41 L8 63 L13 77 L23 87 L41 92 L78 101 L105 107 L107 109 L112 106 L116 99 L132 83 L139 81 L153 79 L162 79 L170 82 L178 89 L180 92 L182 100 L187 108 L192 115 L203 125 L212 133 L223 138 L232 140 L236 140 L254 126 L263 118 L281 104 L287 101 L296 100 L310 100 L321 108 L329 115 L335 122 L341 127 L352 136 L360 140 L373 145 L385 146 L398 147 L408 146 L418 141 L436 130 L453 127 L461 125 L475 125 L492 128 L496 132 L500 135 L509 141 L521 147 L539 152 L556 155 L566 155 L579 155 L586 155 L596 151 L613 149 L629 149 L657 149 L668 153 L674 155 L678 157 L684 158 L702 158 L719 158 L735 158 L748 158 L763 157 L775 153 L788 149 L795 148 L814 148 L828 150 L833 152 L848 157 L862 159 L870 159 L873 159 L876 159 L884 159 L892 159 L897 159 L908 159 L923 159 L930 159 L932 159 L934 159 L944 159 L952 159 L955 159 L962 159 L967 159 L968 159 " fill="none" stroke="black" /></svg>