<?xml version="1.0" encoding="utf-8" ?>
<svg baseProfile="tiny" height="271" version="1.2" viewBox="-3 -3 305 271" width="305" xmlns="http://www.w3.org/2000/svg" xmlns:ev="http://www.w3.org/2001/xml-events" xmlns:xlink="http://www.w3.org/1999/xlink"><defs /><path d="M34 135 L33 134 L33 132 L33 123 L36 109 L40 94 L43 89 L53 75 L64 66 L84 57 L99 51 L123 44 L143 41 L173 38 L203 39 L233 48 L263 66 L284 92 L295 117 L300 134 L303 152 L305 176 L304 195 L290 220 L266 245 L234 263 L211 270 L192 271 L137 271 L95 269 L80 258 L71 246 L58 222 L52 196 L51 181 L55 164 L71 134 L80 118 L86 107 L95 96 L104 93 L114 93 L134 93 L152 94 L170 105 L183 114 L195 127 L202 140 L209 181 L205 219 L180 240 L116 242 L18 210 L0 190 L6 128 L41 45 L79 7 L116 0 L151 19 L184 62 L206 116 L210 167 L205 186 L181 208 L165 214 L115 205 L54 162 L27 116 L36 80 L74 50 L104 48 L155 67 L185 113 L199 175 L201 224 L196 253 L188 257 L163 258 L126 257 L99 232 L92 183 L110 137 L131 116 L148 113 L182 146 L196 173 L198 193 L195 198 L183 198 L158 193 " fill="none" stroke="black" /></svg>