<?xml version="1.0" encoding="utf-8" ?>
<svg baseProfile="tiny" height="179" version="1.2" viewBox="-3 -3 240 179" width="240" xmlns="http://www.w3.org/2000/svg" xmlns:ev="http://www.w3.org/2001/xml-events" xmlns:xlink="http://www.w3.org/1999/xlink"><defs /><path d="M25 55 L25 58 L21 84 L2 146 L0 156 L7 127 L23 63 L33 31 L35 29 L43 62 L47 111 L47 123 L48 123 L53 95 L76 38 L101 4 L102 20 L88 104 L82 125 L83 121 L91 73 L102 29 L97 72 L83 111 L83 92 L82 44 L80 44 L65 72 L37 133 L37 134 L36 124 L38 78 L32 98 L16 162 L13 177 L20 172 L53 126 L62 118 L64 125 L68 175 L68 179 L70 173 L80 121 L88 71 L89 69 L89 102 L89 160 L89 161 L92 143 L103 83 L119 41 L121 44 L122 92 L122 140 L122 146 L120 141 L104 101 L101 81 L106 94 L126 157 L130 170 L130 163 L130 132 L138 95 L144 98 L148 127 L153 171 L153 173 L152 158 L143 110 L141 36 L151 40 L174 95 L188 143 L189 147 L189 144 L189 115 L189 97 L193 98 L214 146 L216 151 L214 140 L167 67 L126 0 L133 10 L155 48 L193 101 L198 106 L199 106 L205 87 L212 75 L219 79 L230 106 L240 134 L209 95 L178 41 L185 67 L202 132 L204 149 L204 144 L183 82 L172 24 L177 24 L185 27 L199 40 L204 43 L205 40 L202 12 L199 0 " fill="none" stroke="black" /></svg>