<?xml version="1.0" encoding="utf-8" ?>
<svg baseProfile="tiny" height="351" version="1.2" viewBox="-3 -3 728 351" width="728" xmlns="http://www.w3.org/2000/svg" xmlns:ev="http://www.w3.org/2001/xml-events" xmlns:xlink="http://www.w3.org/1999/xlink"><defs /><path d="M0 343 L5 344 L12 345 L20 347 L36 349 L43 351 L50 351 L62 351 L70 351 L79 351 L87 351 L95 351 L109 350 L120 349 L129 347 L140 343 L154 339 L165 335 L176 329 L182 325 L190 321 L198 315 L205 310 L215 305 L222 301 L232 293 L239 287 L251 273 L255 269 L263 260 L268 253 L271 245 L275 239 L278 234 L280 229 L284 222 L288 218 L293 212 L295 210 L302 201 L311 189 L315 185 L318 181 L323 175 L327 169 L333 162 L340 152 L344 147 L350 141 L352 137 L356 133 L361 127 L369 117 L373 113 L376 109 L382 104 L388 99 L391 95 L397 89 L399 87 L404 83 L408 80 L411 78 L418 74 L427 66 L432 62 L434 62 L438 60 L444 57 L451 55 L456 52 L459 51 L462 50 L479 47 L495 45 L498 44 L504 43 L514 42 L521 40 L532 38 L540 37 L547 35 L553 33 L560 33 L575 31 L585 31 L599 29 L613 27 L629 24 L641 23 L654 19 L662 18 L671 14 L682 12 L694 9 L708 4 L714 2 L715 2 L717 2 L728 0 " fill="none" stroke="black" /></svg>