<?xml version="1.0" encoding="utf-8" ?>
<svg baseProfile="tiny" height="280" version="1.2" viewBox="-3 -3 285 280" width="285" xmlns="http://www.w3.org/2000/svg" xmlns:ev="http://www.w3.org/2001/xml-events" xmlns:xlink="http://www.w3.org/1999/xlink"><defs /><path d="M57 102 L21 150 L15 157 L19 143 L65 64 L119 3 L123 0 L124 43 L124 117 L123 149 L126 128 L142 81 L154 62 L155 68 L141 141 L134 174 L159 144 L197 92 L246 55 L253 75 L256 133 L256 150 L252 137 L247 72 L247 65 L250 87 L247 162 L235 202 L240 197 L256 189 L263 196 L271 239 L262 266 L241 272 L224 264 L205 221 L204 203 L198 211 L172 243 L133 278 L133 280 L127 273 L105 220 L102 210 L100 211 L95 241 L91 211 L86 199 L75 201 L56 210 L39 213 L38 205 L38 173 L38 172 L33 182 L5 226 L0 234 L3 230 L34 188 L73 158 L92 148 L93 167 L93 190 L97 190 L97 163 L96 118 L94 111 L91 124 L85 170 L86 196 L98 197 L122 193 L150 187 L152 194 L152 212 L152 216 L159 192 L176 153 L182 147 L192 160 L206 183 L211 190 L216 181 L222 149 L225 148 L241 174 L284 232 L285 233 L285 234 L277 235 " fill="none" stroke="black" /></svg>