<?xml version="1.0" encoding="utf-8" ?>
<svg baseProfile="tiny" height="229" version="1.2" viewBox="-3 -3 844 229" width="844" xmlns="http://www.w3.org/2000/svg" xmlns:ev="http://www.w3.org/2001/xml-events" xmlns:xlink="http://www.w3.org/1999/xlink"><defs /><path d="M0 220 L5 225 L19 229 L46 229 L82 214 L88 206 L96 175 L97 140 L99 105 L107 79 L127 45 L149 22 L182 1 L192 0 L200 12 L206 37 L215 75 L215 96 L215 118 L215 131 L216 140 L222 162 L235 183 L246 196 L271 207 L287 211 L305 211 L320 205 L336 195 L351 184 L357 175 L358 168 L364 158 L369 144 L373 134 L381 124 L393 108 L400 100 L407 98 L413 98 L425 107 L436 123 L442 133 L450 147 L457 157 L460 162 L465 168 L475 172 L480 173 L486 173 L498 167 L510 156 L517 148 L521 138 L526 124 L533 114 L540 109 L545 109 L558 109 L569 115 L576 118 L587 125 L595 129 L609 132 L624 134 L633 136 L634 136 L639 133 L644 124 L647 118 L651 112 L657 105 L663 104 L672 104 L677 104 L683 105 L696 117 L710 126 L717 132 L724 133 L732 133 L737 133 L744 128 L749 122 L753 116 L756 114 L757 112 L763 111 L773 111 L781 111 L787 111 L806 123 L818 128 L825 128 L834 128 L844 128 " fill="none" stroke="black" /></svg>