<?xml version="1.0" encoding="utf-8" ?>
<svg baseProfile="tiny" height="208" version="1.2" viewBox="-3 -3 1008 208" width="1008" xmlns="http://www.w3.org/2000/svg" xmlns:ev="http://www.w3.org/2001/xml-events" xmlns:xlink="http://www.w3.org/1999/xlink"><defs /><path d="M0 0 L2 0 L15 2 L24 6 L37 11 L51 17 L59 21 L76 29 L90 37 L100 40 L111 46 L125 50 L136 54 L148 59 L156 62 L171 65 L186 69 L194 69 L214 72 L230 75 L248 77 L262 79 L281 80 L290 81 L310 82 L325 84 L336 84 L349 86 L364 88 L381 92 L395 95 L410 100 L427 107 L447 112 L467 118 L485 122 L504 128 L523 132 L550 139 L565 141 L585 145 L604 147 L625 148 L648 151 L673 155 L696 157 L720 159 L735 162 L762 164 L775 166 L785 168 L807 173 L832 176 L852 179 L871 184 L880 185 L895 189 L907 191 L926 193 L946 197 L962 200 L971 202 L973 202 L976 204 L982 205 L988 206 L1001 208 L1008 208 " fill="none" stroke="black" /></svg>