<?xml version="1.0" encoding="utf-8" ?>
<svg baseProfile="tiny" height="260" version="1.2" viewBox="-3 -3 527 260" width="527" xmlns="http://www.w3.org/2000/svg" xmlns:ev="http://www.w3.org/2001/xml-events" xmlns:xlink="http://www.w3.org/1999/xlink"><defs /><path d="M2 231 L1 231 L0 233 L4 241 L8 247 L14 252 L28 256 L41 259 L47 260 L48 260 L53 257 L66 246 L74 236 L77 230 L78 223 L78 217 L80 210 L82 201 L86 188 L90 176 L92 166 L98 153 L106 134 L117 118 L124 108 L131 102 L134 102 L142 102 L146 102 L151 107 L154 112 L157 118 L158 122 L159 124 L161 129 L163 132 L166 137 L168 140 L171 143 L175 146 L182 150 L190 154 L198 154 L215 155 L221 155 L224 155 L227 155 L233 152 L235 148 L237 140 L240 131 L242 122 L244 114 L249 105 L254 100 L256 97 L258 96 L259 96 L263 96 L269 96 L276 98 L283 100 L291 105 L299 107 L307 108 L319 109 L329 109 L339 109 L344 108 L349 105 L357 98 L366 90 L368 84 L373 77 L376 72 L380 65 L385 60 L388 56 L391 54 L394 53 L395 53 L399 53 L408 53 L419 53 L423 53 L432 52 L435 51 L437 49 L443 45 L450 38 L454 33 L455 28 L457 23 L459 19 L462 16 L468 14 L476 10 L489 8 L493 7 L500 3 L506 3 L517 1 L527 0 " fill="none" stroke="black" /></svg>