<?xml version="1.0" encoding="utf-8" ?>
<svg baseProfile="tiny" height="101" version="1.2" viewBox="-3 -3 1104 101" width="1104" xmlns="http://www.w3.org/2000/svg" xmlns:ev="http://www.w3.org/2001/xml-events" xmlns:xlink="http://www.w3.org/1999/xlink"><defs /><path d="M0 101 L7 101 L21 101 L50 97 L71 92 L88 87 L104 81 L125 74 L145 69 L176 61 L192 58 L202 56 L221 54 L238 51 L250 50 L265 49 L278 48 L290 48 L301 48 L311 47 L324 46 L341 44 L352 43 L362 42 L371 42 L382 42 L389 42 L399 42 L408 42 L422 42 L438 42 L452 42 L461 40 L473 39 L480 38 L490 36 L500 33 L510 32 L530 29 L546 28 L573 25 L598 22 L619 21 L635 21 L655 21 L674 21 L691 21 L703 21 L726 21 L742 21 L756 21 L765 21 L782 21 L797 21 L808 21 L827 21 L843 21 L859 21 L877 21 L895 21 L905 21 L918 21 L937 19 L944 18 L950 17 L956 14 L965 11 L976 9 L985 8 L993 8 L1002 8 L1011 8 L1018 6 L1024 5 L1032 4 L1036 3 L1045 2 L1064 1 L1069 0 L1073 0 L1074 0 L1075 0 L1079 0 L1085 0 L1086 0 L1091 0 L1104 0 " fill="none" stroke="black" /></svg>