<?xml version="1.0" encoding="utf-8" ?>
<svg baseProfile="tiny" height="5" version="1.2" viewBox="-3 -3 859 5" width="859" xmlns="http://www.w3.org/2000/svg" xmlns:ev="http://www.w3.org/2001/xml-events" xmlns:xlink="http://www.w3.org/1999/xlink"><defs /><path d="M0 5 L2 5 L19 5 L47 5 L90 5 L119 5 L154 4 L167 3 L174 2 L195 2 L224 2 L254 2 L284 1 L302 0 L313 0 L324 0 L339 0 L356 0 L366 0 L380 0 L398 0 L416 0 L430 0 L447 0 L466 0 L479 0 L492 0 L506 0 L520 0 L537 0 L546 0 L554 0 L567 0 L587 0 L599 0 L610 0 L618 0 L630 0 L637 0 L643 0 L647 0 L658 0 L668 0 L681 0 L688 0 L691 0 L694 0 L700 0 L702 0 L705 0 L714 0 L719 0 L722 0 L725 0 L731 0 L740 0 L744 0 L751 0 L763 0 L768 0 L773 0 L774 0 L776 0 L780 0 L782 1 L784 1 L790 3 L805 4 L813 5 L818 5 L825 5 L827 5 L828 5 L829 5 L830 5 L834 5 L839 5 L846 5 L850 5 L851 5 L852 5 L859 5 " fill="none" stroke="black" /></svg>