<?xml version="1.0" encoding="utf-8" ?>
<svg baseProfile="tiny" height="260" version="1.2" viewBox="-3 -3 596 260" width="596" xmlns="http://www.w3.org/2000/svg" xmlns:ev="http://www.w3.org/2001/xml-events" xmlns:xlink="http://www.w3.org/1999/xlink"><defs /><path d="M61 18 L61 19 L24 65 L0 109 L12 144 L39 145 L80 117 L148 55 L204 8 L217 0 L210 15 L169 101 L113 184 L102 196 L108 183 L148 137 L197 99 L226 86 L223 120 L181 213 L156 260 L166 246 L212 182 L251 116 L251 115 L248 127 L237 177 L230 215 L236 213 L275 169 L344 104 L365 94 L363 109 L337 183 L321 221 L330 195 L354 134 L366 109 L368 108 L368 192 L368 229 L368 230 L386 205 L457 124 L510 93 L514 94 L518 142 L516 163 L516 134 L516 77 L516 64 L516 89 L520 167 L523 194 L525 193 L532 158 L558 115 L568 107 L580 124 L593 168 L595 176 L596 171 L585 91 L574 29 L573 29 L542 93 L482 192 L467 216 L465 215 L458 195 L445 156 L452 182 L456 204 L457 205 L457 177 L446 99 L443 88 L439 93 L422 148 L400 188 L394 186 L375 134 L328 27 L317 11 L299 31 L262 110 L257 126 L257 125 L257 106 L261 86 L261 88 L258 129 L252 144 L251 145 " fill="none" stroke="black" /></svg>