<?xml version="1.0" encoding="utf-8" ?>
<svg baseProfile="tiny" height="135" version="1.2" viewBox="-3 -3 575 135" width="575" xmlns="http://www.w3.org/2000/svg" xmlns:ev="http://www.w3.org/2001/xml-events" xmlns:xlink="http://www.w3.org/1999/xlink"><defs /><path d="M0 111 L1 108 L6 91 L10 70 L20 25 L30 4 L33 0 L37 3 L42 17 L51 68 L59 98 L75 130 L86 135 L90 135 L97 121 L106 95 L114 67 L123 40 L135 22 L142 21 L145 25 L157 57 L168 87 L179 112 L188 126 L195 117 L204 102 L215 71 L226 50 L227 49 L228 49 L230 50 L243 73 L253 93 L265 107 L271 111 L273 111 L279 106 L284 95 L294 63 L301 35 L305 25 L307 23 L313 29 L330 46 L356 72 L378 87 L379 89 L380 89 L381 83 L385 45 L390 23 L392 17 L396 19 L413 33 L452 60 L464 67 L468 62 L474 41 L480 25 L483 20 L490 25 L522 51 L549 64 L552 66 L556 63 L567 48 L575 36 " fill="none" stroke="black" /></svg>