<?xml version="1.0" encoding="utf-8" ?>
<svg baseProfile="tiny" height="69" version="1.2" viewBox="-3 -3 952 69" width="952" xmlns="http://www.w3.org/2000/svg" xmlns:ev="http://www.w3.org/2001/xml-events" xmlns:xlink="http://www.w3.org/1999/xlink"><defs /><path d="M0 69 L10 69 L50 69 L89 69 L126 69 L160 68 L194 65 L215 65 L223 65 L244 63 L256 63 L284 61 L306 59 L327 56 L345 54 L362 54 L374 54 L411 53 L440 51 L466 49 L480 48 L491 48 L513 48 L539 46 L558 46 L564 46 L576 45 L587 44 L603 43 L615 41 L625 41 L635 41 L651 40 L661 39 L673 38 L686 35 L702 33 L717 30 L732 28 L746 27 L763 22 L770 21 L785 19 L806 17 L834 13 L850 11 L862 10 L870 10 L879 7 L890 6 L894 5 L910 4 L930 2 L950 1 L952 0 " fill="none" stroke="black" /></svg>