<?xml version="1.0" encoding="utf-8" ?>
<svg baseProfile="tiny" height="241" version="1.2" viewBox="-3 -3 561 241" width="561" xmlns="http://www.w3.org/2000/svg" xmlns:ev="http://www.w3.org/2001/xml-events" xmlns:xlink="http://www.w3.org/1999/xlink"><defs /><path d="M12 229 L13 226 L13 221 L11 202 L2 149 L1 116 L0 81 L0 64 L9 54 L18 53 L30 55 L40 76 L47 117 L49 181 L57 206 L78 226 L100 239 L107 241 L110 241 L113 229 L113 209 L111 172 L105 133 L101 105 L101 61 L105 30 L117 15 L128 12 L136 16 L142 41 L152 79 L161 114 L167 152 L174 179 L187 200 L197 215 L214 231 L226 237 L227 237 L230 232 L234 211 L236 183 L236 145 L233 123 L233 107 L233 95 L236 84 L239 79 L240 78 L242 81 L249 93 L266 135 L271 155 L279 175 L289 189 L298 195 L299 196 L301 193 L303 183 L304 153 L304 128 L303 81 L298 42 L296 11 L300 2 L301 0 L305 0 L311 1 L324 24 L343 76 L364 131 L388 174 L414 203 L434 224 L437 225 L440 220 L440 199 L439 167 L428 127 L412 82 L407 54 L407 46 L413 37 L418 30 L422 29 L425 30 L442 47 L465 76 L488 105 L508 121 L511 122 L516 122 L523 114 L529 100 L529 92 L527 79 L524 67 L524 62 L525 60 L537 59 L545 59 L550 57 L561 49 " fill="none" stroke="black" /></svg>