<?xml version="1.0" encoding="utf-8" ?>
<svg baseProfile="tiny" height="362" version="1.2" viewBox="-3 -3 487 362" width="487" xmlns="http://www.w3.org/2000/svg" xmlns:ev="http://www.w3.org/2001/xml-events" xmlns:xlink="http://www.w3.org/1999/xlink"><defs /><path d="M319 72 L311 77 L170 125 L0 145 L7 125 L65 92 L140 78 L188 103 L201 175 L196 203 L157 212 L123 187 L111 111 L164 57 L235 62 L279 139 L272 212 L188 244 L75 199 L42 140 L97 86 L206 66 L292 97 L321 175 L310 205 L291 215 L268 170 L277 66 L326 25 L368 38 L398 150 L373 231 L277 240 L196 204 L158 132 L192 78 L281 70 L392 147 L448 240 L449 283 L399 283 L282 218 L245 132 L281 87 L338 81 L383 130 L397 216 L382 252 L337 250 L290 201 L259 73 L289 21 L364 8 L423 59 L444 134 L437 146 L410 145 L364 108 L341 58 L365 29 L410 24 L444 52 L465 128 L439 159 L392 161 L344 117 L322 32 L351 0 L399 1 L476 131 L487 237 L424 337 L378 360 L325 362 L302 347 L300 337 L302 347 L296 348 L262 324 L237 279 L228 208 L253 181 L283 183 L290 234 L267 284 L219 300 L131 269 L107 239 L116 214 L150 210 L177 237 L175 301 L139 349 L129 342 L108 301 L100 271 " fill="none" stroke="black" /></svg>