<?xml version="1.0" encoding="utf-8" ?>
<svg baseProfile="tiny" height="121" version="1.2" viewBox="-3 -3 410 121" width="410" xmlns="http://www.w3.org/2000/svg" xmlns:ev="http://www.w3.org/2001/xml-events" xmlns:xlink="http://www.w3.org/1999/xlink"><defs /><path d="M0 0 L0 14 L0 51 L5 98 L11 114 L14 114 L19 114 L32 103 L59 62 L69 27 L70 10 L70 7 L72 26 L76 56 L92 102 L101 117 L106 121 L110 109 L120 84 L124 57 L131 16 L133 6 L138 18 L146 43 L166 84 L180 103 L185 106 L192 91 L198 67 L200 33 L203 22 L204 18 L205 22 L211 37 L235 84 L248 105 L250 107 L251 101 L253 75 L261 45 L267 29 L271 23 L278 36 L296 65 L321 94 L326 99 L334 89 L341 69 L350 46 L354 35 L355 34 L358 39 L371 62 L390 87 L398 90 L401 90 L407 73 L410 67 " fill="none" stroke="black" /></svg>