<?xml version="1.0" encoding="utf-8" ?>
<svg baseProfile="tiny" height="143.2052" version="1.2" viewBox="-3 -3 366 143.20516499282638" width="366" xmlns="http://www.w3.org/2000/svg" xmlns:ev="http://www.w3.org/2001/xml-events" xmlns:xlink="http://www.w3.org/1999/xlink"><defs /><path d="M366 0.0 L365 2.002869440459108 L366 13.018651362984215 " fill="none" stroke="black" /><path d="M366 0.0 L365 2.002869440459108 L366 13.018651362984215 M0 122.17503586800574 L2 125.17934002869441 L3 125.17934002869441 L5 127.18220946915352 L6 128.18364418938307 L11 128.18364418938307 L28 138.1979913916786 L31 138.1979913916786 L38 138.1979913916786 L48 138.1979913916786 L50 137.19655667144906 L51 135.19368723098995 L55 134.1922525107604 L57 132.1893830703013 L58 135.19368723098995 L60 137.19655667144906 L61 138.1979913916786 L62 139.19942611190817 L63 140.20086083213772 L66 140.20086083213772 L67 139.19942611190817 L67 137.19655667144906 L70 134.1922525107604 L70 132.1893830703013 L72 129.18507890961263 L72 127.18220946915352 L72 124.17790530846484 L73 123.17647058823529 L75 124.17790530846484 L76 125.17934002869441 L77 127.18220946915352 L83 133.19081779053084 L86 135.19368723098995 L91 135.19368723098995 L95 132.1893830703013 L96 130.18651362984218 L97 129.18507890961263 L98 125.17934002869441 L100 127.18220946915352 L100 129.18507890961263 L100 134.1922525107604 L102 137.19655667144906 L103 135.19368723098995 L105 134.1922525107604 L103 133.19081779053084 L101 133.19081779053084 L98 133.19081779053084 L91 133.19081779053084 L87 133.19081779053084 L78 135.19368723098995 L77 132.1893830703013 L77 129.18507890961263 L76 128.18364418938307 L75 127.18220946915352 L75 124.17790530846484 L77 122.17503586800574 L77 119.17073170731707 L78 118.1692969870875 L81 118.1692969870875 L86 118.1692969870875 L93 115.16499282639884 L96 115.16499282639884 L101 115.16499282639884 L103 115.16499282639884 L105 122.17503586800574 L105 124.17790530846484 L105 129.18507890961263 L105 132.1893830703013 L105 134.1922525107604 L103 135.19368723098995 L102 137.19655667144906 L102 139.19942611190817 L102 142.20373027259683 L102 139.19942611190817 L102 137.19655667144906 L102 134.1922525107604 L103 133.19081779053084 L108 128.18364418938307 L115 124.17790530846484 L116 123.17647058823529 L121 123.17647058823529 L125 122.17503586800574 L123 120.17216642754663 L118 120.17216642754663 L113 125.17934002869441 L111 128.18364418938307 L106 133.19081779053084 L101 138.1979913916786 L100 139.19942611190817 L98 140.20086083213772 L101 140.20086083213772 L103 140.20086083213772 L107 139.19942611190817 L111 135.19368723098995 L116 133.19081779053084 L120 129.18507890961263 L123 128.18364418938307 L126 125.17934002869441 L128 123.17647058823529 L130 122.17503586800574 L130 127.18220946915352 L128 130.18651362984218 L125 137.19655667144906 L122 139.19942611190817 L120 143.20516499282638 " fill="none" stroke="black" /></svg>