<?xml version="1.0" encoding="utf-8" ?>
<svg baseProfile="tiny" height="14.0201" version="1.2" viewBox="-3 -3 154 14.020086083213783" width="154" xmlns="http://www.w3.org/2000/svg" xmlns:ev="http://www.w3.org/2001/xml-events" xmlns:xlink="http://www.w3.org/1999/xlink"><defs /><path d="M0 0.0 L4 1.001434720229561 L9 1.001434720229561 " fill="none" stroke="black" /><path d="M0 0.0 L4 1.001434720229561 L9 1.001434720229561 M6 6.008608321377338 L11 6.008608321377338 L19 4.005738880918223 L21 4.005738880918223 L26 4.005738880918223 L34 4.005738880918223 L35 3.004304160688669 L35 5.007173601147777 L35 10.014347202295554 L35 13.018651362984215 L39 14.020086083213783 L41 14.020086083213783 L49 11.015781922525107 L51 9.012912482066 L54 9.012912482066 L56 6.008608321377338 L59 6.008608321377338 L63 5.007173601147777 L64 4.005738880918223 L66 4.005738880918223 L69 6.008608321377338 L70 8.011477761836446 L70 10.014347202295554 L74 11.015781922525107 L76 11.015781922525107 L79 11.015781922525107 L80 10.014347202295554 L81 6.008608321377338 L84 6.008608321377338 L89 6.008608321377338 L91 6.008608321377338 L94 6.008608321377338 L96 6.008608321377338 L104 6.008608321377338 L106 6.008608321377338 L109 6.008608321377338 L111 6.008608321377338 L114 6.008608321377338 L119 4.005738880918223 L121 4.005738880918223 L124 4.005738880918223 L126 4.005738880918223 L129 4.005738880918223 L130 3.004304160688669 L131 1.001434720229561 L134 4.005738880918223 L136 4.005738880918223 L140 5.007173601147777 L144 6.008608321377338 L141 6.008608321377338 L139 6.008608321377338 L136 6.008608321377338 L134 6.008608321377338 L131 6.008608321377338 L129 4.005738880918223 L131 4.005738880918223 L134 4.005738880918223 L131 4.005738880918223 L126 4.005738880918223 L124 4.005738880918223 L121 4.005738880918223 L124 4.005738880918223 L126 4.005738880918223 L131 1.001434720229561 L129 1.001434720229561 L126 1.001434720229561 L124 1.001434720229561 L121 1.001434720229561 L119 1.001434720229561 L116 1.001434720229561 L114 1.001434720229561 L109 1.001434720229561 L108 3.004304160688669 L108 8.011477761836446 L108 10.014347202295554 L108 13.018651362984215 L109 14.020086083213783 L113 13.018651362984215 L114 11.015781922525107 L118 10.014347202295554 L119 9.012912482066 L121 6.008608321377338 L124 6.008608321377338 L126 6.008608321377338 L131 6.008608321377338 L136 6.008608321377338 L139 6.008608321377338 L141 6.008608321377338 L150 9.012912482066 L154 9.012912482066 " fill="none" stroke="black" /></svg>