<?xml version="1.0" encoding="utf-8" ?>
<svg baseProfile="tiny" height="30.043" version="1.2" viewBox="-3 -3 156 30.043041606886653" width="156" xmlns="http://www.w3.org/2000/svg" xmlns:ev="http://www.w3.org/2001/xml-events" xmlns:xlink="http://www.w3.org/1999/xlink"><defs /><path d="M2 19.027259684361546 L6 10.014347202295546 L9 8.011477761836439 L10 6.008608321377331 L4 5.007173601147777 L0 9.012912482065992 L0 11.015781922525107 L1 13.018651362984215 L6 13.018651362984215 L10 11.015781922525107 L11 15.021520803443323 L12 16.022955523672884 L17 16.022955523672884 L22 11.015781922525107 L21 10.014347202295546 L15 11.015781922525107 L15 14.02008608321377 L31 10.014347202295546 L37 1.001434720229554 L39 0.0 L36 0.0 L30 6.008608321377331 L27 14.02008608321377 L29 18.025824964131992 L44 18.025824964131992 L66 15.021520803443323 L72 11.015781922525107 L56 10.014347202295546 L51 15.021520803443323 L46 20.0286944045911 L45 21.030129124820654 L51 23.03299856527976 L60 19.027259684361546 L56 18.025824964131992 L52 19.027259684361546 L67 19.027259684361546 L70 14.02008608321377 L61 13.018651362984215 L46 13.018651362984215 L44 13.018651362984215 L46 13.018651362984215 L64 8.011477761836439 L67 6.008608321377331 L69 5.007173601147777 L76 5.007173601147777 L77 9.012912482065992 L77 11.015781922525107 L81 13.018651362984215 L86 10.014347202295546 L76 10.014347202295546 L66 15.021520803443323 L62 19.027259684361546 L79 23.03299856527976 L81 23.03299856527976 L84 23.03299856527976 L89 23.03299856527976 L92 20.0286944045911 L95 16.022955523672884 L95 14.02008608321377 L96 10.014347202295546 L97 6.008608321377331 L97 4.005738880918216 L97 1.001434720229554 L94 0.0 L89 0.0 L82 4.005738880918216 L80 18.025824964131992 L80 29.0416068866571 L89 30.043041606886653 L104 28.040172166427546 L111 25.035868005738884 L112 24.03443328550933 L112 16.022955523672884 L110 9.012912482065992 L110 6.008608321377331 L107 4.005738880918216 L101 3.004304160688662 L92 4.005738880918216 L90 9.012912482065992 L87 16.022955523672884 L89 18.025824964131992 L96 20.0286944045911 L106 20.0286944045911 L110 19.027259684361546 L111 15.021520803443323 L115 14.02008608321377 L117 11.015781922525107 L117 9.012912482065992 L117 6.008608321377331 L114 5.007173601147777 L111 5.007173601147777 L110 14.02008608321377 L110 19.027259684361546 L114 20.0286944045911 L131 20.0286944045911 L136 20.0286944045911 L139 20.0286944045911 L140 16.022955523672884 L136 13.018651362984215 L134 10.014347202295546 L129 13.018651362984215 L127 14.02008608321377 L131 20.0286944045911 L151 20.0286944045911 L156 23.03299856527976 " fill="none" stroke="black" /></svg>