<?xml version="1.0" encoding="utf-8" ?>
<svg baseProfile="tiny" height="34.0488" version="1.2" viewBox="-3 -3 172 34.048780487804876" width="172" xmlns="http://www.w3.org/2000/svg" xmlns:ev="http://www.w3.org/2001/xml-events" xmlns:xlink="http://www.w3.org/1999/xlink"><defs /><path d="M0 15.02152080344333 L1 14.020086083213776 L6 14.020086083213776 L11 11.015781922525107 L14 11.015781922525107 L15 12.017216642754668 L15 15.02152080344333 L15 20.028694404591107 L15 22.031563845050215 L21 24.034433285509323 L25 22.031563845050215 L26 19.027259684361553 L27 17.024390243902445 L27 15.02152080344333 L29 14.020086083213776 L34 14.020086083213776 L37 16.022955523672884 L37 17.024390243902445 L40 20.028694404591107 L41 24.034433285509323 L44 24.034433285509323 L49 21.03012912482066 L55 19.027259684361553 L55 17.024390243902445 L59 16.022955523672884 L65 15.02152080344333 L66 14.020086083213776 L69 14.020086083213776 L70 20.028694404591107 L70 22.031563845050215 L79 24.034433285509323 L87 20.028694404591107 L89 19.027259684361553 L90 17.024390243902445 L90 15.02152080344333 L91 14.020086083213776 L94 14.020086083213776 L95 12.017216642754668 L95 17.024390243902445 L95 20.028694404591107 L95 22.031563845050215 L99 26.037302725968445 L107 32.04591104734577 L111 34.048780487804876 L114 34.048780487804876 L121 34.048780487804876 L122 32.04591104734577 L122 29.041606886657107 L122 25.03586800573889 L122 22.031563845050215 L120 17.024390243902445 L120 15.02152080344333 L120 12.017216642754668 L120 15.02152080344333 L122 17.024390243902445 L129 24.034433285509323 L131 26.037302725968445 L134 26.037302725968445 L137 20.028694404591107 L139 16.022955523672884 L140 12.017216642754668 L142 7.010043041606892 L145 5.007173601147777 L146 1.001434720229561 L147 0.0 L147 5.007173601147777 L150 10.014347202295554 L150 17.024390243902445 L152 25.03586800573889 L154 26.037302725968445 L161 26.037302725968445 L164 26.037302725968445 L171 26.037302725968445 L172 25.03586800573889 " fill="none" stroke="black" /></svg>