<?xml version="1.0" encoding="utf-8" ?>
<svg baseProfile="tiny" height="55.0789" version="1.2" viewBox="-3 -3 138 55.078909612625544" width="138" xmlns="http://www.w3.org/2000/svg" xmlns:ev="http://www.w3.org/2001/xml-events" xmlns:xlink="http://www.w3.org/1999/xlink"><defs /><path d="M0 20.028694404591107 L2 17.024390243902438 L9 17.024390243902438 L12 17.024390243902438 L14 17.024390243902438 L15 18.025824964131992 L15 25.035868005738884 L15 30.043041606886653 L17 32.04591104734576 L23 28.040172166427546 L23 25.035868005738884 L23 23.03299856527977 L23 28.040172166427546 L24 19.027259684361546 L25 18.025824964131992 L25 20.028694404591107 L27 19.027259684361546 L35 13.018651362984215 L37 9.012912482066 L38 20.028694404591107 L38 28.040172166427546 L39 32.04591104734576 L40 28.040172166427546 L40 20.028694404591107 L42 14.020086083213776 L43 25.035868005738884 L44 39.05595408895265 L45 45.06456241032999 L48 40.05738880918221 L50 35.05021520803444 L53 33.04734576757533 L53 30.043041606886653 L53 28.040172166427546 L53 25.035868005738884 L53 28.040172166427546 L55 18.025824964131992 L59 7.010043041606885 L62 2.002869440459108 L63 0.0 L63 14.020086083213776 L63 25.035868005738884 L63 28.040172166427546 L63 30.043041606886653 L63 25.035868005738884 L63 23.03299856527977 L64 32.04591104734576 L65 35.05021520803444 L70 30.043041606886653 L73 23.03299856527977 L77 14.020086083213776 L77 19.027259684361546 L75 28.040172166427546 L75 38.0545193687231 L75 40.05738880918221 L78 30.043041606886653 L80 25.035868005738884 L80 23.03299856527977 L80 25.035868005738884 L80 38.0545193687231 L80 45.06456241032999 L80 48.06886657101865 L88 38.0545193687231 L93 25.035868005738884 L93 20.028694404591107 L93 18.025824964131992 L93 15.02152080344333 L93 13.018651362984215 L93 25.035868005738884 L93 35.05021520803444 L93 40.05738880918221 L93 43.06169296987087 L95 30.043041606886653 L98 18.025824964131992 L98 5.007173601147777 L98 3.004304160688669 L100 19.027259684361546 L103 30.043041606886653 L104 39.05595408895265 L105 43.06169296987087 L107 44.06312769010044 L114 42.060258249641315 L122 32.04591104734576 L124 24.034433285509323 L125 20.028694404591107 L125 25.035868005738884 L124 42.060258249641315 L123 48.06886657101865 L123 40.05738880918221 L123 35.05021520803444 L124 27.03873744619799 L125 15.02152080344333 L128 8.011477761836439 L128 3.004304160688669 L128 15.02152080344333 L128 30.043041606886653 L128 43.06169296987087 L128 45.06456241032999 L128 48.06886657101865 L129 44.06312769010044 L132 39.05595408895265 L133 38.0545193687231 L135 30.043041606886653 L135 20.028694404591107 L138 13.018651362984215 L134 12.017216642754661 L125 23.03299856527977 L118 40.05738880918221 L115 53.07604017216642 L115 55.078909612625544 L115 42.060258249641315 L115 30.043041606886653 L118 18.025824964131992 L118 5.007173601147777 L118 3.004304160688669 L115 13.018651362984215 L113 18.025824964131992 L113 23.03299856527977 L113 25.035868005738884 L112 27.03873744619799 " fill="none" stroke="black" /></svg>