<?xml version="1.0" encoding="utf-8" ?>
<svg baseProfile="tiny" height="100.1435" version="1.2" viewBox="-3 -3 363 100.14347202295552" width="363" xmlns="http://www.w3.org/2000/svg" xmlns:ev="http://www.w3.org/2001/xml-events" xmlns:xlink="http://www.w3.org/1999/xlink"><defs /><path d="M360 0.0 L363 0.0 " fill="none" stroke="black" /><path d="M360 0.0 L363 0.0 M0 92.13199426111908 L3 90.12912482065997 L8 87.1248206599713 L10 87.1248206599713 L18 87.1248206599713 L20 87.1248206599713 L25 87.1248206599713 L28 87.1248206599713 L35 87.1248206599713 L40 87.1248206599713 L43 90.12912482065997 L45 90.12912482065997 L48 90.12912482065997 L50 90.12912482065997 L53 90.12912482065997 L58 90.12912482065997 L60 92.13199426111908 L68 92.13199426111908 L72 94.13486370157818 L73 95.13629842180774 L78 95.13629842180774 L80 95.13629842180774 L83 95.13629842180774 L88 95.13629842180774 L90 92.13199426111908 L93 92.13199426111908 L95 92.13199426111908 L97 91.13055954088952 L98 90.12912482065997 L100 90.12912482065997 L103 90.12912482065997 L108 92.13199426111908 L110 92.13199426111908 L108 92.13199426111908 L110 92.13199426111908 L115 92.13199426111908 L118 92.13199426111908 L120 92.13199426111908 L123 92.13199426111908 L123 95.13629842180774 L120 97.13916786226686 L123 97.13916786226686 L125 97.13916786226686 L128 97.13916786226686 L123 97.13916786226686 L120 97.13916786226686 L117 99.14203730272597 L120 100.14347202295552 L125 100.14347202295552 L128 100.14347202295552 L130 100.14347202295552 L135 97.13916786226686 L133 97.13916786226686 L128 97.13916786226686 L125 97.13916786226686 L120 97.13916786226686 L118 97.13916786226686 L115 97.13916786226686 L113 97.13916786226686 L109 99.14203730272597 L110 100.14347202295552 L113 100.14347202295552 L115 97.13916786226686 L118 97.13916786226686 L122 96.13773314203729 L123 95.13629842180774 L124 94.13486370157818 L125 92.13199426111908 L127 91.13055954088952 L128 90.12912482065997 L130 87.1248206599713 L127 89.12769010043041 L127 91.13055954088952 L127 94.13486370157818 L127 96.13773314203729 L128 97.13916786226686 L130 97.13916786226686 L133 97.13916786226686 L135 97.13916786226686 L138 97.13916786226686 L140 97.13916786226686 L134 97.13916786226686 L133 97.13916786226686 L130 100.14347202295552 L128 100.14347202295552 L134 96.13773314203729 L137 94.13486370157818 L143 92.13199426111908 L145 90.12912482065997 L153 90.12912482065997 L158 90.12912482065997 L159 91.13055954088952 L159 94.13486370157818 L159 96.13773314203729 L163 97.13916786226686 " fill="none" stroke="black" /></svg>