<?xml version="1.0" encoding="utf-8" ?>
<svg baseProfile="tiny" height="56.0803" version="1.2" viewBox="-3 -3 145 56.08034433285509" width="145" xmlns="http://www.w3.org/2000/svg" xmlns:ev="http://www.w3.org/2001/xml-events" xmlns:xlink="http://www.w3.org/1999/xlink"><defs /><path d="M0 21.03012912482066 L0 23.032998565279776 L0 26.037302725968438 L5 26.037302725968438 L17 17.024390243902445 L19 15.02152080344333 L18 18.025824964132 L15 26.037302725968438 L20 16.022955523672884 L20 13.018651362984222 L27 15.02152080344333 L29 15.02152080344333 L25 16.022955523672884 L20 41.05882352941177 L20 43.061692969870876 L24 45.064562410329984 L35 31.044476327116215 L35 26.037302725968438 L35 28.040172166427553 L33 36.051649928264 L37 17.024390243902445 L38 3.004304160688669 L29 2.002869440459115 L14 10.014347202295554 L13 18.025824964132 L13 23.032998565279776 L24 25.035868005738884 L38 18.025824964132 L33 18.025824964132 L25 23.032998565279776 L27 27.03873744619799 L34 30.04304160688666 L55 23.032998565279776 L60 3.004304160688669 L50 0.0 L33 18.025824964132 L28 33.04734576757532 L28 38.054519368723106 L42 40.057388809182214 L70 33.04734576757532 L70 26.037302725968438 L50 28.040172166427553 L35 36.051649928264 L35 33.04734576757532 L35 31.044476327116215 L37 45.064562410329984 L54 50.07173601147777 L68 36.051649928264 L68 23.032998565279776 L44 30.04304160688666 L40 36.051649928264 L73 37.05308464849355 L110 21.03012912482066 L110 11.015781922525107 L64 15.02152080344333 L48 28.040172166427553 L77 25.035868005738884 L97 20.028694404591107 L94 15.02152080344333 L59 20.028694404591107 L54 27.03873744619799 L53 28.040172166427553 L69 30.04304160688666 L83 21.03012912482066 L83 18.025824964132 L79 17.024390243902445 L57 30.04304160688666 L55 36.051649928264 L79 32.04591104734577 L99 22.031563845050215 L77 30.04304160688666 L65 36.051649928264 L68 37.05308464849355 L90 18.025824964132 L93 8.011477761836446 L79 22.031563845050215 L75 38.054519368723106 L75 43.061692969870876 L89 45.064562410329984 L118 27.03873744619799 L123 13.018651362984222 L119 12.017216642754668 L87 20.028694404591107 L68 31.044476327116215 L68 33.04734576757532 L68 36.051649928264 L114 30.04304160688666 L138 13.018651362984222 L140 6.008608321377338 L139 5.007173601147777 L102 17.024390243902445 L85 31.044476327116215 L85 36.051649928264 L107 32.04591104734577 L120 18.025824964132 L120 11.015781922525107 L114 10.014347202295554 L85 28.040172166427553 L83 41.05882352941177 L87 42.06025824964132 L118 33.04734576757532 L125 21.03012912482066 L110 31.044476327116215 L100 51.07317073170732 L115 41.05882352941177 L128 21.03012912482066 L130 18.025824964132 L117 22.031563845050215 L98 51.07317073170732 L98 53.07604017216643 L109 50.07173601147777 L128 31.044476327116215 L128 23.032998565279776 L112 22.031563845050215 L94 32.04591104734577 L93 38.054519368723106 L97 40.057388809182214 L118 31.044476327116215 L125 18.025824964132 L122 15.02152080344333 L87 17.024390243902445 L65 38.054519368723106 L65 41.05882352941177 L97 42.06025824964132 L130 26.037302725968438 L133 11.015781922525107 L109 10.014347202295554 L54 30.04304160688666 L45 38.054519368723106 L67 42.06025824964132 L123 40.057388809182214 L145 28.040172166427553 L145 23.032998565279776 L124 32.04591104734577 L110 53.07604017216643 L108 56.08034433285509 L114 32.04591104734577 L118 26.037302725968438 L114 25.035868005738884 L117 30.04304160688666 " fill="none" stroke="black" /></svg>