<?xml version="1.0" encoding="utf-8" ?>
<svg baseProfile="tiny" height="5.0072" version="1.2" viewBox="-3 -3 190 5.007173601147777" width="190" xmlns="http://www.w3.org/2000/svg" xmlns:ev="http://www.w3.org/2001/xml-events" xmlns:xlink="http://www.w3.org/1999/xlink"><defs /><path d="M0 0.0 L3 0.0 L5 0.0 L8 0.0 L15 0.0 L18 0.0 L24 1.001434720229554 L28 2.002869440459115 L30 2.002869440459115 L33 2.002869440459115 L35 2.002869440459115 L38 2.002869440459115 L40 5.007173601147777 L43 5.007173601147777 L45 5.007173601147777 L48 5.007173601147777 L50 5.007173601147777 L54 4.005738880918223 L55 2.002869440459115 L58 2.002869440459115 L63 2.002869440459115 L73 2.002869440459115 L80 2.002869440459115 L83 2.002869440459115 L85 2.002869440459115 L88 2.002869440459115 L90 2.002869440459115 L93 2.002869440459115 L95 2.002869440459115 L100 2.002869440459115 L103 2.002869440459115 L105 2.002869440459115 L108 2.002869440459115 L110 2.002869440459115 L112 1.001434720229554 L113 0.0 L115 0.0 L118 0.0 L120 0.0 L123 0.0 L125 0.0 L128 0.0 L130 0.0 L134 1.001434720229554 L135 2.002869440459115 L138 2.002869440459115 L140 2.002869440459115 L145 5.007173601147777 L148 5.007173601147777 L150 5.007173601147777 L153 5.007173601147777 L155 5.007173601147777 L158 5.007173601147777 L160 5.007173601147777 L165 5.007173601147777 L163 5.007173601147777 L165 5.007173601147777 L169 4.005738880918223 L170 2.002869440459115 L180 5.007173601147777 L183 5.007173601147777 L185 5.007173601147777 L188 5.007173601147777 L190 5.007173601147777 " fill="none" stroke="black" /></svg>