<?xml version="1.0" encoding="utf-8" ?>
<svg baseProfile="tiny" height="36.0516" version="1.2" viewBox="-3 -3 158 36.05164992826399" width="158" xmlns="http://www.w3.org/2000/svg" xmlns:ev="http://www.w3.org/2001/xml-events" xmlns:xlink="http://www.w3.org/1999/xlink"><defs /><path d="M0 7.010043041606892 L4 9.012912482066 L9 6.008608321377331 L12 4.005738880918223 L18 0.0 L18 7.010043041606892 L18 10.014347202295554 L19 6.008608321377331 L20 10.014347202295554 L20 12.017216642754668 L22 14.020086083213776 L29 14.020086083213776 L30 12.017216642754668 L38 10.014347202295554 L43 2.002869440459115 L43 7.010043041606892 L38 27.03873744619799 L35 32.045911047345776 L35 27.03873744619799 L40 12.017216642754668 L40 5.007173601147777 L43 0.0 L43 2.002869440459115 L43 12.017216642754668 L43 15.02152080344333 L49 14.020086083213776 L55 2.002869440459115 L55 0.0 L55 20.028694404591114 L55 35.05021520803444 L59 36.05164992826399 L68 25.035868005738884 L72 14.020086083213776 L75 7.010043041606892 L75 5.007173601147777 L75 7.010043041606892 L75 15.02152080344333 L78 9.012912482066 L80 5.007173601147777 L80 10.014347202295554 L80 12.017216642754668 L88 7.010043041606892 L88 5.007173601147777 L88 15.02152080344333 L88 20.028694404591114 L92 21.030129124820668 L98 15.02152080344333 L98 12.017216642754668 L98 15.02152080344333 L98 7.010043041606892 L99 4.005738880918223 L100 12.017216642754668 L99 24.03443328550933 L98 25.035868005738884 L98 15.02152080344333 L103 7.010043041606892 L103 5.007173601147777 L104 4.005738880918223 L105 5.007173601147777 L105 7.010043041606892 L105 10.014347202295554 L105 15.02152080344333 L105 17.024390243902438 L107 19.027259684361546 L113 17.024390243902438 L113 15.02152080344333 L113 12.017216642754668 L114 11.015781922525107 L112 11.015781922525107 L110 20.028694404591114 L110 17.024390243902438 L110 15.02152080344333 L110 12.017216642754668 L113 10.014347202295554 L117 6.008608321377331 L119 4.005738880918223 L120 7.010043041606892 L120 10.014347202295554 L120 12.017216642754668 L122 14.020086083213776 L129 14.020086083213776 L132 14.020086083213776 L135 12.017216642754668 L137 11.015781922525107 L138 10.014347202295554 L142 9.012912482066 L144 9.012912482066 L148 7.010043041606892 L154 1.001434720229561 L155 1.001434720229561 L157 1.001434720229561 L158 5.007173601147777 L158 10.014347202295554 L157 11.015781922525107 L152 11.015781922525107 L150 12.017216642754668 L149 14.020086083213776 " fill="none" stroke="black" /></svg>