<?xml version="1.0" encoding="utf-8" ?>
<svg baseProfile="tiny" height="20.0287" version="1.2" viewBox="-3 -3 137 20.028694404591107" width="137" xmlns="http://www.w3.org/2000/svg" xmlns:ev="http://www.w3.org/2001/xml-events" xmlns:xlink="http://www.w3.org/1999/xlink"><defs /><path d="M0 3.004304160688662 L1 4.005738880918216 L2 5.007173601147777 L4 14.02008608321377 L5 15.021520803443323 L11 14.02008608321377 L11 9.012912482065992 L14 7.010043041606885 L16 2.002869440459108 L16 4.005738880918216 L16 14.02008608321377 L17 18.025824964132 L19 19.027259684361553 L22 20.028694404591107 L25 20.028694404591107 L29 18.025824964132 L31 15.021520803443323 L31 14.02008608321377 L32 13.018651362984215 L34 12.017216642754661 L35 10.014347202295554 L37 10.014347202295554 L40 10.014347202295554 L42 10.014347202295554 L45 10.014347202295554 L55 10.014347202295554 L57 13.018651362984215 L60 13.018651362984215 L62 13.018651362984215 L67 8.011477761836439 L70 8.011477761836439 L74 12.017216642754661 L74 14.02008608321377 L75 15.021520803443323 L80 13.018651362984215 L81 12.017216642754661 L82 10.014347202295554 L87 10.014347202295554 L91 9.012912482065992 L92 8.011477761836439 L97 8.011477761836439 L100 8.011477761836439 L101 9.012912482065992 L101 12.017216642754661 L104 9.012912482065992 L105 8.011477761836439 L107 5.007173601147777 L109 9.012912482065992 L107 13.018651362984215 L106 14.02008608321377 L111 12.017216642754661 L119 9.012912482065992 L117 8.011477761836439 L112 10.014347202295554 L111 12.017216642754661 L109 14.02008608321377 L107 15.021520803443323 L106 14.02008608321377 L106 12.017216642754661 L106 9.012912482065992 L106 7.010043041606885 L102 5.007173601147777 L96 9.012912482065992 L91 14.02008608321377 L89 17.02439024390243 L87 18.025824964132 L86 17.02439024390243 L82 10.014347202295554 L81 9.012912482065992 L80 8.011477761836439 L85 8.011477761836439 L87 8.011477761836439 L91 7.010043041606885 L95 3.004304160688662 L97 0.0 L100 0.0 L101 4.005738880918216 L101 7.010043041606885 L101 9.012912482065992 L102 10.014347202295554 L107 10.014347202295554 L109 9.012912482065992 L112 5.007173601147777 L116 4.005738880918216 L116 9.012912482065992 L116 12.017216642754661 L116 14.02008608321377 L116 12.017216642754661 L119 9.012912482065992 L124 7.010043041606885 L127 3.004304160688662 L129 2.002869440459108 L129 7.010043041606885 L126 9.012912482065992 L124 12.017216642754661 L121 14.02008608321377 L121 17.02439024390243 L120 18.025824964132 L115 18.025824964132 L105 18.025824964132 L97 18.025824964132 L96 17.02439024390243 L97 15.021520803443323 L102 13.018651362984215 L110 10.014347202295554 L112 10.014347202295554 L115 10.014347202295554 L117 8.011477761836439 L120 8.011477761836439 L121 9.012912482065992 L121 12.017216642754661 L122 13.018651362984215 L127 8.011477761836439 L130 5.007173601147777 L137 5.007173601147777 " fill="none" stroke="black" /></svg>