<?xml version="1.0" encoding="utf-8" ?>
<svg baseProfile="tiny" height="7.01" version="1.2" viewBox="-3 -3 184 7.010043041606885" width="184" xmlns="http://www.w3.org/2000/svg" xmlns:ev="http://www.w3.org/2001/xml-events" xmlns:xlink="http://www.w3.org/1999/xlink"><defs /><path d="M0 6.008608321377331 L6 7.010043041606885 L9 7.010043041606885 L11 7.010043041606885 L14 7.010043041606885 L16 7.010043041606885 L19 7.010043041606885 L21 7.010043041606885 L24 7.010043041606885 L26 7.010043041606885 L31 7.010043041606885 L34 7.010043041606885 L36 7.010043041606885 L41 7.010043041606885 L44 7.010043041606885 L49 7.010043041606885 L51 7.010043041606885 L54 7.010043041606885 L59 7.010043041606885 L61 7.010043041606885 L64 7.010043041606885 L69 7.010043041606885 L71 7.010043041606885 L74 7.010043041606885 L75 6.008608321377331 L76 5.007173601147777 L77 3.004304160688669 L79 2.002869440459108 L81 2.002869440459108 L84 2.002869440459108 L86 2.002869440459108 L89 2.002869440459108 L91 2.002869440459108 L96 2.002869440459108 L99 2.002869440459108 L101 2.002869440459108 L102 3.004304160688669 L104 5.007173601147777 L106 5.007173601147777 L109 5.007173601147777 L111 5.007173601147777 L114 5.007173601147777 L116 5.007173601147777 L119 5.007173601147777 L124 5.007173601147777 L126 5.007173601147777 L129 5.007173601147777 L131 5.007173601147777 L134 5.007173601147777 L136 5.007173601147777 L137 3.004304160688669 L139 2.002869440459108 L141 2.002869440459108 L142 1.001434720229554 L144 0.0 L146 0.0 L151 0.0 L154 0.0 L156 0.0 L159 0.0 L161 0.0 L164 0.0 L171 2.002869440459108 L176 5.007173601147777 L180 6.008608321377331 L181 7.010043041606885 L184 7.010043041606885 " fill="none" stroke="black" /></svg>