<?xml version="1.0" encoding="utf-8" ?>
<svg baseProfile="tiny" height="10.0143" version="1.2" viewBox="-3 -3 188 10.014347202295554" width="188" xmlns="http://www.w3.org/2000/svg" xmlns:ev="http://www.w3.org/2001/xml-events" xmlns:xlink="http://www.w3.org/1999/xlink"><defs /><path d="M0 5.007173601147777 L15 5.007173601147777 L45 10.014347202295554 L40 10.014347202295554 L38 10.014347202295554 L35 10.014347202295554 L33 10.014347202295554 L30 10.014347202295554 L25 10.014347202295554 L23 10.014347202295554 L20 10.014347202295554 L45 10.014347202295554 L48 10.014347202295554 L50 10.014347202295554 L58 10.014347202295554 L60 10.014347202295554 L63 10.014347202295554 L65 10.014347202295554 L60 10.014347202295554 L55 10.014347202295554 L50 10.014347202295554 L40 10.014347202295554 L38 10.014347202295554 L35 10.014347202295554 L43 10.014347202295554 L55 10.014347202295554 L68 8.011477761836439 L73 8.011477761836439 L83 8.011477761836439 L85 8.011477761836439 L88 8.011477761836439 L98 8.011477761836439 L105 8.011477761836439 L110 8.011477761836439 L113 8.011477761836439 L115 8.011477761836439 L120 8.011477761836439 L125 8.011477761836439 L128 8.011477761836439 L130 8.011477761836439 L133 8.011477761836439 L138 8.011477761836439 L140 8.011477761836439 L148 8.011477761836439 L150 8.011477761836439 L155 8.011477761836439 L165 8.011477761836439 L168 8.011477761836439 L173 8.011477761836439 L175 8.011477761836439 L180 8.011477761836439 L188 8.011477761836439 " fill="none" stroke="black" /><path d="M0 5.007173601147777 L15 5.007173601147777 L45 10.014347202295554 L40 10.014347202295554 L38 10.014347202295554 L35 10.014347202295554 L33 10.014347202295554 L30 10.014347202295554 L25 10.014347202295554 L23 10.014347202295554 L20 10.014347202295554 L45 10.014347202295554 L48 10.014347202295554 L50 10.014347202295554 L58 10.014347202295554 L60 10.014347202295554 L63 10.014347202295554 L65 10.014347202295554 L60 10.014347202295554 L55 10.014347202295554 L50 10.014347202295554 L40 10.014347202295554 L38 10.014347202295554 L35 10.014347202295554 L43 10.014347202295554 L55 10.014347202295554 L68 8.011477761836439 L73 8.011477761836439 L83 8.011477761836439 L85 8.011477761836439 L88 8.011477761836439 L98 8.011477761836439 L105 8.011477761836439 L110 8.011477761836439 L113 8.011477761836439 L115 8.011477761836439 L120 8.011477761836439 L125 8.011477761836439 L128 8.011477761836439 L130 8.011477761836439 L133 8.011477761836439 L138 8.011477761836439 L140 8.011477761836439 L148 8.011477761836439 L150 8.011477761836439 L155 8.011477761836439 L165 8.011477761836439 L168 8.011477761836439 L173 8.011477761836439 L175 8.011477761836439 L180 8.011477761836439 L188 8.011477761836439 M50 5.007173601147777 L53 5.007173601147777 L55 5.007173601147777 L63 5.007173601147777 L68 5.007173601147777 L70 5.007173601147777 L73 5.007173601147777 L75 5.007173601147777 L80 5.007173601147777 L83 5.007173601147777 L88 5.007173601147777 L100 5.007173601147777 L105 5.007173601147777 L103 5.007173601147777 L98 5.007173601147777 L95 5.007173601147777 L93 5.007173601147777 L98 5.007173601147777 L100 5.007173601147777 L103 8.011477761836439 L105 8.011477761836439 L108 8.011477761836439 L113 8.011477761836439 L115 8.011477761836439 L120 8.011477761836439 L123 8.011477761836439 L130 8.011477761836439 L133 8.011477761836439 L130 8.011477761836439 L128 8.011477761836439 L123 8.011477761836439 L118 8.011477761836439 L113 8.011477761836439 L115 8.011477761836439 L118 8.011477761836439 L120 8.011477761836439 L123 8.011477761836439 L125 8.011477761836439 L128 8.011477761836439 L133 8.011477761836439 L135 8.011477761836439 L140 8.011477761836439 L138 8.011477761836439 L133 8.011477761836439 L130 8.011477761836439 L125 8.011477761836439 L120 8.011477761836439 L115 8.011477761836439 L108 8.011477761836439 L105 8.011477761836439 L100 8.011477761836439 L98 8.011477761836439 L97 7.010043041606885 L98 5.007173601147777 L108 5.007173601147777 L110 5.007173601147777 L113 5.007173601147777 L118 5.007173601147777 L120 5.007173601147777 L110 5.007173601147777 L123 5.007173601147777 L133 5.007173601147777 L135 5.007173601147777 L138 5.007173601147777 L140 5.007173601147777 L148 5.007173601147777 L153 3.004304160688662 L150 3.004304160688662 L133 3.004304160688662 L115 0.0 L113 0.0 L105 0.0 L95 0.0 L88 0.0 L90 0.0 L109 0.0 L110 0.0 L115 0.0 L125 0.0 L130 0.0 L133 0.0 L138 0.0 L140 0.0 L143 0.0 " fill="none" stroke="black" /></svg>