<?xml version="1.0" encoding="utf-8" ?>
<svg baseProfile="tiny" height="27.0387" version="1.2" viewBox="-3 -3 162 27.03873744619799" width="162" xmlns="http://www.w3.org/2000/svg" xmlns:ev="http://www.w3.org/2001/xml-events" xmlns:xlink="http://www.w3.org/1999/xlink"><defs /><path d="M0 5.007173601147777 L4 4.005738880918223 L6 6.008608321377331 L10 15.02152080344333 L14 19.027259684361546 L15 15.02152080344333 L15 12.017216642754668 L16 19.027259684361546 L29 21.030129124820668 L34 21.030129124820668 L40 20.028694404591114 L40 15.02152080344333 L40 7.010043041606892 L40 12.017216642754668 L46 11.015781922525107 L49 9.012912482066 L52 5.007173601147777 L52 2.002869440459115 L52 5.007173601147777 L52 10.014347202295554 L52 7.010043041606892 L56 16.022955523672884 L59 19.027259684361546 L66 19.027259684361546 L71 19.027259684361546 L75 17.024390243902438 L76 14.020086083213776 L77 12.017216642754668 L77 5.007173601147777 L77 0.0 L77 2.002869440459115 L80 10.014347202295554 L80 20.028694404591114 L81 26.037302725968438 L82 27.03873744619799 L84 24.03443328550933 L86 19.027259684361546 L90 12.017216642754668 L90 10.014347202295554 L91 6.008608321377331 L92 2.002869440459115 L95 15.02152080344333 L97 17.024390243902438 L99 19.027259684361546 L104 19.027259684361546 L105 17.024390243902438 L105 15.02152080344333 L107 10.014347202295554 L107 7.010043041606892 L109 6.008608321377331 L110 7.010043041606892 L115 17.024390243902438 L116 21.030129124820668 L120 20.028694404591114 L125 14.020086083213776 L126 11.015781922525107 L130 7.010043041606892 L131 6.008608321377331 L132 7.010043041606892 L134 16.022955523672884 L135 17.024390243902438 L135 22.031563845050222 L135 25.035868005738884 L142 25.035868005738884 L151 19.027259684361546 L157 7.010043041606892 L160 2.002869440459115 L162 0.0 " fill="none" stroke="black" /></svg>