<?xml version="1.0" encoding="utf-8" ?>
<svg baseProfile="tiny" height="8.0115" version="1.2" viewBox="-3 -3 153 8.011477761836439" width="153" xmlns="http://www.w3.org/2000/svg" xmlns:ev="http://www.w3.org/2001/xml-events" xmlns:xlink="http://www.w3.org/1999/xlink"><defs /><path d="M0 8.011477761836439 L3 8.011477761836439 L10 5.007173601147777 L25 5.007173601147777 L29 4.005738880918216 L33 3.004304160688662 L38 3.004304160688662 L45 5.007173601147777 L50 5.007173601147777 L58 5.007173601147777 L68 5.007173601147777 L73 5.007173601147777 L75 5.007173601147777 L78 5.007173601147777 L85 5.007173601147777 L88 5.007173601147777 L90 5.007173601147777 L93 5.007173601147777 L95 5.007173601147777 L98 5.007173601147777 L100 5.007173601147777 L105 3.004304160688662 L108 3.004304160688662 L110 3.004304160688662 L113 3.004304160688662 L118 3.004304160688662 L120 3.004304160688662 L123 3.004304160688662 L125 3.004304160688662 L128 3.004304160688662 L130 0.0 L139 2.002869440459108 L140 3.004304160688662 L138 3.004304160688662 L140 3.004304160688662 L144 4.005738880918216 L150 5.007173601147777 L151 7.010043041606885 L153 8.011477761836439 " fill="none" stroke="black" /></svg>