<?xml version="1.0" encoding="utf-8" ?>
<svg baseProfile="tiny" height="38.0545" version="1.2" viewBox="-3 -3 122 38.0545193687231" width="122" xmlns="http://www.w3.org/2000/svg" xmlns:ev="http://www.w3.org/2001/xml-events" xmlns:xlink="http://www.w3.org/1999/xlink"><defs /><path d="M0 11.015781922525107 L2 10.014347202295554 L4 7.010043041606885 L12 5.007173601147777 L17 0.0 L18 1.001434720229554 L18 3.004304160688669 L18 16.022955523672884 L18 23.032998565279776 L19 15.02152080344333 L28 6.008608321377331 L25 6.008608321377331 L25 8.011477761836446 L25 7.010043041606885 L25 6.008608321377331 L25 11.015781922525107 L25 13.018651362984222 L30 8.011477761836446 L32 7.010043041606885 L33 13.018651362984222 L35 22.031563845050222 L42 10.014347202295554 L47 2.002869440459115 L48 8.011477761836446 L48 11.015781922525107 L48 18.025824964131992 L48 13.018651362984222 L50 6.008608321377331 L50 11.015781922525107 L53 8.011477761836446 L53 21.030129124820668 L53 23.032998565279776 L53 16.022955523672884 L53 8.011477761836446 L53 18.025824964131992 L53 21.030129124820668 L58 11.015781922525107 L55 18.025824964131992 L55 23.032998565279776 L55 16.022955523672884 L55 13.018651362984222 L60 11.015781922525107 L63 3.004304160688669 L63 13.018651362984222 L63 26.037302725968438 L63 28.040172166427546 L65 21.030129124820668 L68 18.025824964131992 L68 23.032998565279776 L65 28.040172166427546 L68 21.030129124820668 L73 11.015781922525107 L74 10.014347202295554 L74 25.035868005738884 L73 28.040172166427546 L80 11.015781922525107 L80 6.008608321377331 L80 8.011477761836446 L80 21.030129124820668 L78 26.037302725968438 L78 28.040172166427546 L78 26.037302725968438 L78 18.025824964131992 L83 8.011477761836446 L85 3.004304160688669 L85 11.015781922525107 L83 23.032998565279776 L83 18.025824964131992 L90 6.008608321377331 L92 5.007173601147777 L93 13.018651362984222 L93 16.022955523672884 L93 21.030129124820668 L100 18.025824964131992 L103 16.022955523672884 L104 15.02152080344333 L105 21.030129124820668 L105 36.05164992826399 L105 38.0545193687231 L108 31.044476327116207 L118 13.018651362984222 L120 6.008608321377331 L120 13.018651362984222 L120 18.025824964131992 L122 17.024390243902438 " fill="none" stroke="black" /></svg>