<?xml version="1.0" encoding="utf-8" ?>
<svg baseProfile="tiny" height="5.0072" version="1.2" viewBox="-3 -3 142 5.007173601147777" width="142" xmlns="http://www.w3.org/2000/svg" xmlns:ev="http://www.w3.org/2001/xml-events" xmlns:xlink="http://www.w3.org/1999/xlink"><defs /><path d="M0 3.004304160688669 L2 2.002869440459108 L4 2.002869440459108 L7 2.002869440459108 L9 2.002869440459108 L12 2.002869440459108 L14 2.002869440459108 L17 2.002869440459108 L19 2.002869440459108 L22 2.002869440459108 L24 2.002869440459108 L29 0.0 L32 0.0 L34 0.0 L37 0.0 L42 0.0 L44 0.0 L47 0.0 L49 0.0 L52 0.0 L54 0.0 L57 0.0 L59 0.0 L62 0.0 L64 0.0 L67 0.0 L74 0.0 L77 0.0 L79 0.0 L84 0.0 L89 0.0 L92 0.0 L94 0.0 L97 0.0 L99 0.0 L102 0.0 L104 0.0 L107 0.0 L109 0.0 L112 0.0 L114 0.0 L119 0.0 L122 0.0 L124 0.0 L127 0.0 L129 0.0 L132 0.0 L134 0.0 L137 0.0 L139 0.0 L142 0.0 L139 0.0 L134 0.0 L132 0.0 L128 0.0 L117 0.0 L112 0.0 L107 0.0 L98 2.002869440459108 L97 2.002869440459108 L90 2.002869440459108 L84 5.007173601147777 L79 5.007173601147777 L74 5.007173601147777 L62 5.007173601147777 L57 5.007173601147777 L67 5.007173601147777 L77 2.002869440459108 L84 2.002869440459108 L92 2.002869440459108 L102 2.002869440459108 L107 2.002869440459108 L109 2.002869440459108 L112 2.002869440459108 L114 2.002869440459108 L117 2.002869440459108 L122 2.002869440459108 L129 2.002869440459108 L132 2.002869440459108 L134 2.002869440459108 L137 2.002869440459108 L139 2.002869440459108 " fill="none" stroke="black" /></svg>