<?xml version="1.0" encoding="utf-8" ?>
<svg baseProfile="tiny" height="19.0273" version="1.2" viewBox="-3 -3 164 19.027259684361553" width="164" xmlns="http://www.w3.org/2000/svg" xmlns:ev="http://www.w3.org/2001/xml-events" xmlns:xlink="http://www.w3.org/1999/xlink"><defs /><path d="M0 13.018651362984215 L3 13.018651362984215 L25 13.018651362984215 L43 13.018651362984215 L51 14.02008608321377 L53 15.021520803443323 L55 15.021520803443323 L60 15.021520803443323 L68 15.021520803443323 L75 15.021520803443323 L84 15.021520803443323 L93 15.021520803443323 L103 15.021520803443323 L105 15.021520803443323 L118 15.021520803443323 L125 13.018651362984215 L135 13.018651362984215 L148 13.018651362984215 " fill="none" stroke="black" /><path d="M0 13.018651362984215 L3 13.018651362984215 L25 13.018651362984215 L43 13.018651362984215 L51 14.02008608321377 L53 15.021520803443323 L55 15.021520803443323 L60 15.021520803443323 L68 15.021520803443323 L75 15.021520803443323 L84 15.021520803443323 L93 15.021520803443323 L103 15.021520803443323 L105 15.021520803443323 L118 15.021520803443323 L125 13.018651362984215 L135 13.018651362984215 L148 13.018651362984215 M21 8.011477761836439 L23 7.010043041606885 L26 5.007173601147777 L6 8.011477761836439 L1 8.011477761836439 L6 8.011477761836439 L14 8.011477761836439 L6 8.011477761836439 L9 8.011477761836439 L24 8.011477761836439 L39 8.011477761836439 L24 8.011477761836439 L19 8.011477761836439 L24 8.011477761836439 L49 3.004304160688662 L59 3.004304160688662 L56 3.004304160688662 L31 3.004304160688662 L29 3.004304160688662 L39 3.004304160688662 L41 3.004304160688662 L21 3.004304160688662 L14 3.004304160688662 L24 3.004304160688662 L84 3.004304160688662 L104 3.004304160688662 L74 3.004304160688662 L69 5.007173601147777 L76 5.007173601147777 L91 5.007173601147777 L93 7.010043041606885 L74 8.011477761836439 L54 10.014347202295554 L59 10.014347202295554 L91 10.014347202295554 L94 10.014347202295554 L76 10.014347202295554 L44 10.014347202295554 L41 10.014347202295554 L69 5.007173601147777 L81 5.007173601147777 L56 5.007173601147777 L54 5.007173601147777 L58 5.007173601147777 L86 5.007173601147777 L81 5.007173601147777 L74 5.007173601147777 L101 5.007173601147777 L121 5.007173601147777 L111 5.007173601147777 L99 5.007173601147777 L123 5.007173601147777 L136 5.007173601147777 L126 5.007173601147777 L94 10.014347202295554 L84 10.014347202295554 L101 10.014347202295554 L116 8.011477761836439 L81 8.011477761836439 L44 8.011477761836439 L51 8.011477761836439 L86 5.007173601147777 L91 5.007173601147777 L74 5.007173601147777 L49 5.007173601147777 L46 5.007173601147777 L66 5.007173601147777 L86 5.007173601147777 L64 5.007173601147777 L54 5.007173601147777 L84 5.007173601147777 L106 5.007173601147777 L108 7.010043041606885 L99 10.014347202295554 L94 10.014347202295554 L114 10.014347202295554 L164 15.021520803443323 L129 15.021520803443323 L110 19.027259684361553 L139 18.025824964132 L154 18.025824964132 L150 18.025824964132 L109 18.025824964132 L101 18.025824964132 L100 17.02439024390243 L123 9.012912482065992 L136 8.011477761836439 L134 8.011477761836439 L119 8.011477761836439 L116 8.011477761836439 L121 5.007173601147777 L139 3.004304160688662 L124 5.007173601147777 L106 8.011477761836439 L119 8.011477761836439 L109 8.011477761836439 L121 8.011477761836439 L149 8.011477761836439 L151 8.011477761836439 L134 8.011477761836439 L114 10.014347202295554 L111 10.014347202295554 L136 10.014347202295554 L154 10.014347202295554 L136 10.014347202295554 L126 13.018651362984215 L146 13.018651362984215 L153 12.017216642754661 L149 10.014347202295554 L109 10.014347202295554 L106 10.014347202295554 L121 10.014347202295554 L144 8.011477761836439 L121 8.011477761836439 L121 0.0 L129 0.0 L141 0.0 " fill="none" stroke="black" /></svg>