<?xml version="1.0" encoding="utf-8" ?>
<svg baseProfile="tiny" height="10.0143" version="1.2" viewBox="-3 -3 159 10.014347202295546" width="159" xmlns="http://www.w3.org/2000/svg" xmlns:ev="http://www.w3.org/2001/xml-events" xmlns:xlink="http://www.w3.org/1999/xlink"><defs /><path d="M0 5.007173601147777 L3 5.007173601147777 L7 3.004304160688662 L13 3.004304160688662 L15 3.004304160688662 L18 3.004304160688662 L23 3.004304160688662 L38 3.004304160688662 L40 3.004304160688662 L53 3.004304160688662 L60 5.007173601147777 L63 8.011477761836439 L64 8.011477761836439 L73 10.014347202295546 L78 10.014347202295546 L80 10.014347202295546 L84 9.012912482065992 L87 7.010043041606885 L90 5.007173601147777 L93 3.004304160688662 L95 3.004304160688662 L105 3.004304160688662 L125 5.007173601147777 L139 9.012912482065992 L143 8.011477761836439 L144 7.010043041606885 L147 4.005738880918216 L148 3.004304160688662 L150 3.004304160688662 L158 3.004304160688662 L153 3.004304160688662 L150 3.004304160688662 L148 3.004304160688662 L138 3.004304160688662 L135 3.004304160688662 L133 3.004304160688662 L130 3.004304160688662 L128 3.004304160688662 L125 3.004304160688662 L120 3.004304160688662 L118 3.004304160688662 L113 3.004304160688662 L105 3.004304160688662 L98 3.004304160688662 L95 3.004304160688662 L92 3.004304160688662 L88 3.004304160688662 L90 3.004304160688662 L85 3.004304160688662 L79 3.004304160688662 L75 3.004304160688662 L73 3.004304160688662 L72 7.010043041606885 L72 9.012912482065992 L73 10.014347202295546 L75 10.014347202295546 L78 10.014347202295546 L80 10.014347202295546 L83 10.014347202295546 L88 10.014347202295546 L90 10.014347202295546 L98 10.014347202295546 L100 10.014347202295546 L103 10.014347202295546 L108 8.011477761836439 L110 8.011477761836439 L115 8.011477761836439 L122 5.007173601147777 L123 5.007173601147777 L125 5.007173601147777 L130 5.007173601147777 L133 5.007173601147777 " fill="none" stroke="black" /><path d="M0 5.007173601147777 L3 5.007173601147777 L7 3.004304160688662 L13 3.004304160688662 L15 3.004304160688662 L18 3.004304160688662 L23 3.004304160688662 L38 3.004304160688662 L40 3.004304160688662 L53 3.004304160688662 L60 5.007173601147777 L63 8.011477761836439 L64 8.011477761836439 L73 10.014347202295546 L78 10.014347202295546 L80 10.014347202295546 L84 9.012912482065992 L87 7.010043041606885 L90 5.007173601147777 L93 3.004304160688662 L95 3.004304160688662 L105 3.004304160688662 L125 5.007173601147777 L139 9.012912482065992 L143 8.011477761836439 L144 7.010043041606885 L147 4.005738880918216 L148 3.004304160688662 L150 3.004304160688662 L158 3.004304160688662 L153 3.004304160688662 L150 3.004304160688662 L148 3.004304160688662 L138 3.004304160688662 L135 3.004304160688662 L133 3.004304160688662 L130 3.004304160688662 L128 3.004304160688662 L125 3.004304160688662 L120 3.004304160688662 L118 3.004304160688662 L113 3.004304160688662 L105 3.004304160688662 L98 3.004304160688662 L95 3.004304160688662 L92 3.004304160688662 L88 3.004304160688662 L90 3.004304160688662 L85 3.004304160688662 L79 3.004304160688662 L75 3.004304160688662 L73 3.004304160688662 L72 7.010043041606885 L72 9.012912482065992 L73 10.014347202295546 L75 10.014347202295546 L78 10.014347202295546 L80 10.014347202295546 L83 10.014347202295546 L88 10.014347202295546 L90 10.014347202295546 L98 10.014347202295546 L100 10.014347202295546 L103 10.014347202295546 L108 8.011477761836439 L110 8.011477761836439 L115 8.011477761836439 L122 5.007173601147777 L123 5.007173601147777 L125 5.007173601147777 L130 5.007173601147777 L133 5.007173601147777 M80 0.0 L93 0.0 L113 3.004304160688662 L118 5.007173601147777 L138 5.007173601147777 L150 5.007173601147777 L153 5.007173601147777 L155 5.007173601147777 L158 5.007173601147777 L159 4.005738880918216 L155 3.004304160688662 L150 3.004304160688662 L143 3.004304160688662 L128 3.004304160688662 L110 3.004304160688662 L100 3.004304160688662 L85 5.007173601147777 L83 8.011477761836439 L88 8.011477761836439 L100 8.011477761836439 L105 8.011477761836439 L108 8.011477761836439 L113 8.011477761836439 L115 8.011477761836439 L120 8.011477761836439 L123 8.011477761836439 L127 8.011477761836439 L133 8.011477761836439 L135 8.011477761836439 L143 8.011477761836439 L145 8.011477761836439 " fill="none" stroke="black" /></svg>