<?xml version="1.0" encoding="utf-8" ?>
<svg baseProfile="tiny" height="35.0502" version="1.2" viewBox="-3 -3 104 35.05021520803444" width="104" xmlns="http://www.w3.org/2000/svg" xmlns:ev="http://www.w3.org/2001/xml-events" xmlns:xlink="http://www.w3.org/1999/xlink"><defs /><path d="M0 2.002869440459115 L1 4.005738880918223 L1 9.012912482066 L1 11.015781922525107 L1 14.020086083213776 L2 15.02152080344333 L5 15.02152080344333 L9 14.020086083213776 L12 10.014347202295554 L14 9.012912482066 L14 11.015781922525107 L14 14.020086083213776 L16 7.010043041606892 L20 5.007173601147777 L22 2.002869440459115 L24 1.001434720229561 L25 0.0 L26 6.008608321377331 L26 11.015781922525107 L26 14.020086083213776 L26 16.022955523672884 L27 17.024390243902438 L42 17.024390243902438 L49 16.022955523672884 L47 20.028694404591114 L45 20.028694404591114 L44 16.022955523672884 L44 14.020086083213776 L44 9.012912482066 L44 6.008608321377331 L44 4.005738880918223 L44 9.012912482066 L44 14.020086083213776 L44 16.022955523672884 L44 19.027259684361546 L45 20.028694404591114 L49 19.027259684361546 L50 15.02152080344333 L54 14.020086083213776 L55 10.014347202295554 L56 9.012912482066 L59 6.008608321377331 L59 4.005738880918223 L59 11.015781922525107 L59 16.022955523672884 L61 16.022955523672884 L62 15.02152080344333 L64 14.020086083213776 L66 11.015781922525107 L67 7.010043041606892 L69 9.012912482066 L69 14.020086083213776 L69 21.030129124820668 L69 26.037302725968438 L69 31.04447632711622 L70 35.05021520803444 L71 34.04878048780488 L74 26.037302725968438 L76 24.03443328550933 L76 21.030129124820668 L77 17.024390243902438 L80 12.017216642754668 L81 11.015781922525107 L82 10.014347202295554 L84 9.012912482066 L84 11.015781922525107 L84 14.020086083213776 L84 16.022955523672884 L85 17.024390243902438 L91 14.020086083213776 L95 10.014347202295554 L97 7.010043041606892 L99 14.020086083213776 L99 21.030129124820668 L100 17.024390243902438 L101 16.022955523672884 L101 14.020086083213776 L101 11.015781922525107 L101 9.012912482066 L101 6.008608321377331 L104 4.005738880918223 L100 2.002869440459115 L96 4.005738880918223 L95 5.007173601147777 L91 6.008608321377331 L90 7.010043041606892 L86 9.012912482066 L87 10.014347202295554 L92 10.014347202295554 L96 9.012912482066 L97 5.007173601147777 L99 4.005738880918223 " fill="none" stroke="black" /></svg>