<?xml version="1.0" encoding="utf-8" ?>
<svg baseProfile="tiny" height="5.0072" version="1.2" viewBox="-3 -3 240 5.00717360114777" width="240" xmlns="http://www.w3.org/2000/svg" xmlns:ev="http://www.w3.org/2001/xml-events" xmlns:xlink="http://www.w3.org/1999/xlink"><defs /><path d="M0 5.00717360114777 L5 5.00717360114777 L10 5.00717360114777 L12 5.00717360114777 L15 5.00717360114777 L17 5.00717360114777 L20 5.00717360114777 L25 5.00717360114777 L27 5.00717360114777 L30 5.00717360114777 L32 5.00717360114777 L35 5.00717360114777 L40 5.00717360114777 L42 5.00717360114777 L47 5.00717360114777 L52 5.00717360114777 L60 5.00717360114777 L65 5.00717360114777 L70 3.004304160688662 L72 3.004304160688662 L75 3.004304160688662 L77 3.004304160688662 L80 3.004304160688662 L83 1.001434720229554 L85 0.0 L87 0.0 L92 0.0 L95 0.0 L97 0.0 L100 0.0 L102 0.0 L105 0.0 L107 0.0 L110 0.0 L120 3.004304160688662 L125 3.004304160688662 L127 3.004304160688662 L132 3.004304160688662 L135 3.004304160688662 L142 3.004304160688662 L152 3.004304160688662 L157 3.004304160688662 L165 3.004304160688662 L167 3.004304160688662 L170 3.004304160688662 L172 3.004304160688662 L177 3.004304160688662 L180 3.004304160688662 L185 3.004304160688662 L187 3.004304160688662 L190 3.004304160688662 L195 3.004304160688662 L200 3.004304160688662 L202 0.0 L210 0.0 L232 0.0 L240 0.0 " fill="none" stroke="black" /></svg>