<?xml version="1.0" encoding="utf-8" ?>
<svg baseProfile="tiny" height="325" version="1.2" viewBox="-3 -3 346 325" width="346" xmlns="http://www.w3.org/2000/svg" xmlns:ev="http://www.w3.org/2001/xml-events" xmlns:xlink="http://www.w3.org/1999/xlink"><defs /><path d="M127 162 L127 167 L127 173 L127 176 L128 180 L130 182 L131 185 L133 188 L135 190 L137 192 L139 194 L141 196 L145 198 L148 199 L152 200 L156 201 L160 201 L167 201 L171 201 L174 201 L179 201 L182 200 L186 199 L190 198 L195 195 L197 194 L200 192 L204 187 L206 184 L209 178 L212 169 L214 164 L215 157 L215 153 L216 147 L216 142 L216 137 L216 128 L214 120 L212 114 L209 106 L206 101 L201 95 L197 90 L191 86 L183 81 L176 78 L167 75 L160 73 L153 72 L143 72 L135 73 L127 75 L122 76 L117 79 L108 84 L103 87 L98 92 L93 97 L89 102 L85 108 L82 116 L78 125 L75 138 L74 147 L74 161 L76 171 L78 179 L82 189 L85 194 L90 201 L93 206 L96 210 L100 213 L103 217 L110 222 L114 225 L121 230 L132 234 L141 238 L161 243 L172 245 L185 245 L211 245 L225 244 L232 242 L239 237 L253 228 L263 221 L274 211 L287 193 L295 170 L300 138 L304 99 L305 71 L301 47 L295 38 L290 31 L277 19 L261 9 L239 3 L218 1 L198 0 L158 1 L134 5 L109 8 L97 10 L80 13 L60 22 L53 25 L48 30 L38 37 L31 47 L21 62 L13 78 L4 110 L0 143 L0 156 L3 175 L5 183 L8 194 L10 203 L14 212 L23 228 L30 240 L36 249 L40 254 L42 257 L44 261 L47 263 L61 273 L78 285 L94 295 L104 300 L124 308 L138 312 L153 317 L184 322 L206 324 L238 325 L261 325 L278 323 L299 317 L311 312 L320 308 L326 303 L336 294 L344 282 L345 280 L346 279 " fill="none" stroke="black" /></svg>