<?xml version="1.0" encoding="utf-8" ?>
<svg baseProfile="tiny" height="25" version="1.2" viewBox="-3 -3 529 25" width="529" xmlns="http://www.w3.org/2000/svg" xmlns:ev="http://www.w3.org/2001/xml-events" xmlns:xlink="http://www.w3.org/1999/xlink"><defs /><path d="M0 6 L2 6 L4 6 L6 6 L7 6 L8 6 L10 6 L11 6 L12 6 L13 6 L14 6 L16 6 L17 6 L18 6 L20 6 L21 7 L24 7 L25 8 L27 8 L28 9 L30 9 L32 10 L34 10 L36 10 L38 11 L40 12 L42 12 L44 13 L45 13 L48 13 L49 13 L51 13 L53 13 L54 13 L56 13 L57 13 L60 12 L61 11 L62 11 L65 10 L66 10 L68 9 L70 9 L72 9 L74 8 L75 7 L78 7 L79 7 L81 6 L83 6 L85 6 L88 6 L90 6 L92 6 L94 6 L97 6 L100 6 L103 6 L106 6 L109 6 L112 6 L117 6 L120 6 L127 8 L133 9 L139 11 L144 13 L148 14 L152 15 L154 16 L156 17 L160 18 L162 18 L165 19 L168 19 L170 19 L174 19 L180 19 L187 18 L191 18 L198 16 L210 15 L218 14 L225 13 L228 13 L231 12 L234 11 L237 11 L240 10 L242 10 L245 10 L250 8 L254 8 L259 7 L262 7 L264 7 L266 7 L267 7 L272 7 L288 9 L301 11 L308 12 L313 14 L320 16 L325 18 L331 20 L335 22 L338 22 L342 23 L345 24 L348 25 L351 25 L354 25 L357 24 L361 21 L367 18 L371 15 L375 13 L381 11 L383 9 L389 7 L394 5 L400 4 L408 2 L414 0 L421 0 L423 0 L426 0 L431 0 L435 1 L438 3 L442 3 L450 5 L457 6 L464 8 L469 9 L475 10 L483 12 L488 13 L493 14 L496 15 L500 15 L505 16 L509 17 L513 17 L516 17 L519 17 L523 17 L526 17 L529 17 " fill="none" stroke="black" /></svg>