<?xml version="1.0" encoding="utf-8" ?>
<svg baseProfile="tiny" height="268" version="1.2" viewBox="-3 -3 1171 268" width="1171" xmlns="http://www.w3.org/2000/svg" xmlns:ev="http://www.w3.org/2001/xml-events" xmlns:xlink="http://www.w3.org/1999/xlink"><defs /><path d="M0 148 L17 152 L46 159 L55 160 L62 162 L71 164 L78 166 L83 166 L84 166 L101 140 L117 104 L123 87 L126 82 L127 80 L128 80 L128 79 L129 79 L150 108 L166 130 L173 139 L183 152 L187 158 L191 162 L192 164 L193 165 L195 166 L195 167 L211 144 L226 117 L233 101 L246 62 L247 49 L247 45 L247 44 L250 45 L282 73 L308 113 L321 141 L324 149 L325 152 L326 156 L327 157 L381 225 L396 241 L412 251 L417 253 L419 254 L421 252 L446 166 L469 75 L469 47 L467 31 L467 23 L466 20 L466 14 L466 10 L466 9 L468 9 L507 56 L561 122 L576 150 L580 162 L582 167 L582 169 L583 174 L584 178 L584 179 L605 160 L663 100 L667 95 L668 94 L670 93 L674 92 L688 100 L714 125 L720 132 L727 143 L734 157 L734 160 L735 161 L738 167 L761 199 L772 211 L776 214 L780 215 L784 215 L789 213 L812 136 L818 69 L820 37 L822 15 L822 11 L822 10 L855 15 L907 44 L927 74 L932 83 L933 84 L933 86 L934 87 L935 88 L936 90 L938 90 L944 90 L961 81 L984 60 L993 47 L996 43 L997 59 L1000 123 L1000 133 L1000 136 L1001 155 L1001 167 L1001 170 L1027 209 L1064 254 L1074 265 L1075 268 L1076 268 L1077 268 L1112 178 L1145 64 L1150 32 L1151 21 L1151 17 L1152 5 L1152 1 L1152 0 L1159 19 L1169 49 L1171 55 " fill="none" stroke="black" /></svg>