<?xml version="1.0" encoding="utf-8" ?>
<svg baseProfile="tiny" height="104" version="1.2" viewBox="-3 -3 662 104" width="662" xmlns="http://www.w3.org/2000/svg" xmlns:ev="http://www.w3.org/2001/xml-events" xmlns:xlink="http://www.w3.org/1999/xlink"><defs /><path d="M0 64 L12 64 L33 65 L51 68 L55 69 L58 71 L61 73 L63 75 L65 77 L66 80 L67 82 L67 84 L68 86 L68 89 L68 92 L68 96 L67 99 L66 100 L64 102 L61 103 L58 104 L54 104 L50 103 L45 101 L43 100 L41 97 L39 95 L39 94 L38 88 L42 81 L56 68 L70 61 L84 55 L100 52 L110 50 L116 50 L119 50 L120 50 L131 50 L151 52 L179 56 L186 58 L192 60 L203 63 L211 66 L219 69 L223 71 L226 73 L230 76 L232 78 L235 82 L236 85 L237 86 L237 88 L237 89 L237 91 L236 91 L235 93 L233 93 L232 93 L229 93 L227 93 L223 92 L219 89 L217 88 L216 86 L215 83 L215 80 L216 73 L219 68 L232 55 L249 43 L261 38 L286 33 L301 32 L311 32 L316 32 L319 32 L320 32 L330 32 L354 33 L368 35 L384 37 L403 41 L418 45 L428 49 L433 51 L437 54 L439 56 L441 58 L442 61 L442 63 L442 68 L441 72 L440 74 L436 77 L434 78 L432 80 L430 80 L429 80 L427 80 L425 79 L421 76 L419 72 L419 67 L422 54 L433 40 L447 30 L463 23 L480 19 L501 18 L511 18 L516 18 L537 20 L554 21 L571 22 L585 26 L594 30 L603 34 L609 38 L613 40 L616 44 L618 47 L620 52 L620 56 L621 59 L621 62 L621 64 L620 66 L618 68 L617 68 L614 68 L612 69 L610 69 L606 69 L603 69 L601 68 L599 67 L597 65 L596 61 L596 53 L598 42 L609 30 L624 17 L644 6 L654 1 L659 0 L660 0 L661 0 L662 0 " fill="none" stroke="black" /></svg>