<?xml version="1.0" encoding="utf-8" ?>
<svg baseProfile="tiny" height="384" version="1.2" viewBox="-3 -3 659 384" width="659" xmlns="http://www.w3.org/2000/svg" xmlns:ev="http://www.w3.org/2001/xml-events" xmlns:xlink="http://www.w3.org/1999/xlink"><defs /><path d="M242 366 L242 363 L239 358 L233 328 L231 317 L229 314 L229 313 L230 313 L254 326 L270 333 L280 332 L297 318 L304 305 L310 297 L311 295 L313 293 L314 293 L320 294 L382 268 L402 252 L404 250 L404 251 L402 286 L397 315 L397 319 L397 322 L397 326 L397 327 " fill="none" stroke="black" /><path d="M242 366 L242 363 L239 358 L233 328 L231 317 L229 314 L229 313 L230 313 L254 326 L270 333 L280 332 L297 318 L304 305 L310 297 L311 295 L313 293 L314 293 L320 294 L382 268 L402 252 L404 250 L404 251 L402 286 L397 315 L397 319 L397 322 L397 326 L397 327 M200 362 L200 361 L179 315 L156 255 L145 217 L144 210 L144 209 L163 215 L192 222 L208 217 L281 135 L298 109 L301 104 L308 102 L318 103 L325 107 L335 114 L349 119 L362 119 L374 116 L381 114 L386 112 L390 111 L458 151 L468 154 L473 155 L482 153 L484 153 L486 170 L464 267 L458 291 L458 296 L458 297 L466 297 L473 297 L476 301 L478 364 L478 378 L478 379 L478 380 " fill="none" stroke="black" /><path d="M242 366 L242 363 L239 358 L233 328 L231 317 L229 314 L229 313 L230 313 L254 326 L270 333 L280 332 L297 318 L304 305 L310 297 L311 295 L313 293 L314 293 L320 294 L382 268 L402 252 L404 250 L404 251 L402 286 L397 315 L397 319 L397 322 L397 326 L397 327 M200 362 L200 361 L179 315 L156 255 L145 217 L144 210 L144 209 L163 215 L192 222 L208 217 L281 135 L298 109 L301 104 L308 102 L318 103 L325 107 L335 114 L349 119 L362 119 L374 116 L381 114 L386 112 L390 111 L458 151 L468 154 L473 155 L482 153 L484 153 L486 170 L464 267 L458 291 L458 296 L458 297 L466 297 L473 297 L476 301 L478 364 L478 378 L478 379 L478 380 M141 384 L136 377 L100 325 L56 240 L17 164 L3 135 L0 125 L0 124 L3 125 L45 145 L60 147 L70 145 L94 96 L116 20 L119 7 L120 8 L157 54 L180 78 L200 91 L205 91 L208 91 L329 18 L359 1 L366 0 L377 0 L388 8 L395 26 L400 53 L402 58 L404 60 L444 46 L462 34 L478 24 L492 17 L495 17 L506 26 L517 45 L520 50 L584 60 L608 60 L616 60 L620 63 L624 72 L609 176 L593 231 L582 263 L581 273 L633 227 L657 206 L659 206 L635 272 L617 352 L614 369 L614 372 " fill="none" stroke="black" /></svg>