<?xml version="1.0" encoding="utf-8" ?>
<svg baseProfile="tiny" height="104" version="1.2" viewBox="-3 -3 298 104" width="298" xmlns="http://www.w3.org/2000/svg" xmlns:ev="http://www.w3.org/2001/xml-events" xmlns:xlink="http://www.w3.org/1999/xlink"><defs /><path d="M24 70 L29 71 L37 72 L42 72 L46 70 L49 67 L51 64 L53 56 L54 51 L54 47 L54 43 L53 40 L50 37 L48 35 L44 32 L37 30 L34 29 L28 29 L24 30 L21 31 L17 32 L15 34 L12 35 L10 38 L8 39 L6 42 L4 44 L2 48 L2 50 L1 55 L0 63 L0 69 L1 75 L4 79 L5 82 L10 87 L13 90 L17 93 L22 96 L27 98 L33 100 L38 102 L45 103 L54 104 L60 104 L70 104 L81 104 L90 104 L99 102 L105 100 L110 98 L114 95 L119 92 L125 86 L129 80 L134 72 L135 65 L137 58 L137 48 L137 43 L135 36 L133 31 L129 26 L126 22 L123 19 L119 16 L117 15 L114 15 L110 14 L108 14 L106 15 L105 16 L105 17 L104 19 L104 20 L104 23 L104 26 L106 30 L108 37 L109 40 L111 43 L114 47 L122 51 L151 62 L163 66 L182 69 L193 70 L200 70 L206 70 L210 69 L216 67 L224 57 L234 35 L236 24 L236 18 L233 12 L232 10 L229 7 L225 4 L224 3 L222 3 L221 3 L220 4 L219 6 L219 10 L219 16 L219 19 L221 20 L222 24 L224 27 L227 30 L229 33 L233 36 L240 41 L245 44 L250 46 L252 48 L255 49 L265 49 L276 48 L289 39 L296 28 L298 19 L298 11 L298 8 L297 6 L295 4 L293 2 L290 1 L287 0 L285 0 L282 0 L281 1 L279 4 L277 6 L277 8 L277 14 L278 20 L280 25 L283 28 L286 32 L288 34 L289 36 L291 38 L292 40 L293 41 L295 43 L297 44 L297 45 L297 46 " fill="none" stroke="black" /></svg>