<?xml version="1.0" encoding="utf-8" ?>
<svg baseProfile="tiny" height="81" version="1.2" viewBox="-3 -3 941 81" width="941" xmlns="http://www.w3.org/2000/svg" xmlns:ev="http://www.w3.org/2001/xml-events" xmlns:xlink="http://www.w3.org/1999/xlink"><defs /><path d="M0 70 L4 72 L14 74 L20 74 L26 74 L31 74 L34 74 L37 74 L41 72 L45 72 L49 70 L51 69 L54 68 L57 67 L58 67 L60 67 L61 68 L62 69 L75 70 L110 54 L121 48 L122 48 L123 49 L124 52 L124 57 L125 60 L132 62 L140 62 L142 62 L143 62 L144 63 L145 65 L146 67 L156 68 L168 65 L170 64 L171 64 L172 64 L175 64 L189 66 L199 68 L208 69 L216 70 L221 70 L227 70 L230 70 L233 70 L237 70 L240 70 L244 70 L246 70 L250 69 L295 23 L317 2 L320 0 L322 0 L322 7 L323 14 L324 27 L325 33 L326 37 L334 39 L350 39 L356 38 L358 38 L361 53 L362 58 L363 61 L369 64 L372 65 L373 65 L379 65 L381 65 L401 68 L413 70 L422 72 L435 73 L452 73 L481 72 L502 71 L513 71 L515 71 L516 71 L518 71 L526 67 L535 62 L538 60 L541 59 L544 61 L544 65 L545 67 L545 70 L549 74 L568 73 L584 70 L586 69 L587 69 L589 69 L592 70 L601 73 L607 75 L609 77 L613 77 L636 75 L643 74 L647 74 L650 73 L652 72 L655 72 L658 71 L662 69 L669 65 L674 61 L679 57 L681 56 L682 55 L684 56 L686 61 L691 72 L700 77 L759 51 L782 36 L783 35 L784 35 L785 39 L788 45 L792 54 L796 60 L808 68 L816 71 L824 74 L834 81 L839 81 L849 81 L859 79 L868 78 L878 75 L884 74 L891 72 L893 71 L896 71 L900 71 L902 71 L906 71 L909 71 L914 71 L927 70 L934 68 L938 68 L941 68 " fill="none" stroke="black" /></svg>