<?xml version="1.0" encoding="utf-8" ?>
<svg baseProfile="tiny" height="122" version="1.2" viewBox="-3 -3 891 122" width="891" xmlns="http://www.w3.org/2000/svg" xmlns:ev="http://www.w3.org/2001/xml-events" xmlns:xlink="http://www.w3.org/1999/xlink"><defs /><path d="M0 22 L0 24 L0 25 L5 36 L30 90 L38 106 L42 115 L45 119 L47 121 L49 122 L51 121 L61 91 L75 41 L81 22 L84 13 L84 11 L85 10 L89 11 L110 27 L150 64 L168 79 L180 86 L183 87 L184 87 L186 85 L190 66 L192 52 L192 48 L192 44 L192 42 L193 42 L203 50 L226 73 L243 88 L258 97 L262 99 L266 98 L283 75 L294 49 L298 35 L299 32 L299 31 L301 31 L310 38 L325 53 L337 66 L338 68 L339 69 L341 70 L341 71 L342 71 L343 71 L346 71 L364 73 L372 73 L377 71 L390 51 L402 21 L405 14 L408 13 L424 28 L441 46 L455 61 L466 70 L469 72 L478 69 L503 34 L522 5 L524 0 L526 2 L535 21 L549 51 L556 66 L557 69 L558 70 L559 71 L562 68 L579 36 L585 24 L587 21 L589 21 L604 33 L617 48 L619 50 L621 53 L622 54 L622 55 L628 57 L662 63 L672 63 L689 55 L711 35 L714 31 L715 29 L716 29 L721 31 L738 41 L755 52 L759 53 L762 53 L762 47 L762 42 L762 40 L767 41 L806 68 L824 81 L830 85 L834 85 L850 76 L859 69 L860 67 L862 67 L869 69 L875 74 L878 77 L881 79 L886 81 L890 83 L891 83 " fill="none" stroke="black" /></svg>