<?xml version="1.0" encoding="utf-8" ?>
<svg baseProfile="tiny" height="17" version="1.2" viewBox="-3 -3 466 17" width="466" xmlns="http://www.w3.org/2000/svg" xmlns:ev="http://www.w3.org/2001/xml-events" xmlns:xlink="http://www.w3.org/1999/xlink"><defs /><path d="M0 0 L6 0 L14 0 L26 0 L32 0 L38 1 L48 1 L54 1 L62 1 L70 2 L77 2 L88 3 L97 3 L107 3 L113 3 L118 4 L125 4 L130 4 L134 5 L142 5 L149 5 L156 6 L163 6 L169 6 L177 6 L182 6 L188 6 L195 6 L212 6 L232 6 L240 6 L243 6 L268 8 L284 8 L292 8 L298 8 L303 8 L312 8 L321 8 L331 9 L339 9 L347 9 L365 11 L378 11 L389 12 L396 12 L404 13 L418 13 L429 14 L439 14 L445 15 L451 15 L457 15 L459 16 L462 17 L463 17 L464 17 L465 17 L466 17 " fill="none" stroke="black" /></svg>