<?xml version="1.0" encoding="utf-8" ?>
<svg baseProfile="tiny" height="62" version="1.2" viewBox="-3 -3 562 62" width="562" xmlns="http://www.w3.org/2000/svg" xmlns:ev="http://www.w3.org/2001/xml-events" xmlns:xlink="http://www.w3.org/1999/xlink"><defs /><path d="M0 52 L2 52 L4 52 L8 52 L11 52 L14 53 L19 53 L23 54 L27 54 L29 54 L32 55 L35 56 L36 56 L39 56 L41 56 L43 57 L49 58 L53 58 L58 59 L61 59 L64 59 L68 60 L70 61 L72 61 L74 61 L75 61 L77 61 L78 61 L80 62 L81 62 L82 62 L83 62 L85 62 L86 62 L87 62 L88 62 L89 62 L90 62 L92 62 L93 62 L95 62 L97 62 L100 60 L101 59 L103 57 L105 56 L107 54 L109 51 L111 49 L113 46 L116 39 L119 34 L122 30 L125 26 L129 21 L135 17 L140 14 L144 13 L147 12 L151 12 L157 13 L162 15 L166 18 L171 21 L174 23 L178 25 L181 27 L183 28 L184 29 L185 29 L187 31 L191 34 L195 36 L200 38 L203 40 L206 41 L210 43 L213 45 L218 47 L222 48 L225 48 L229 50 L231 51 L234 51 L237 52 L240 52 L244 53 L248 53 L256 53 L263 53 L271 53 L282 54 L290 54 L297 55 L302 56 L306 57 L308 57 L309 57 L314 58 L320 58 L324 59 L327 59 L331 59 L335 59 L340 60 L344 60 L349 60 L354 60 L358 60 L362 60 L364 60 L368 60 L372 60 L376 60 L382 59 L385 59 L387 57 L392 54 L395 49 L402 39 L407 33 L411 27 L424 13 L433 6 L449 1 L466 0 L474 1 L483 6 L492 12 L503 20 L509 24 L514 28 L520 33 L526 37 L532 41 L535 44 L537 46 L541 49 L546 52 L551 53 L554 54 L556 55 L558 55 L561 55 L562 56 " fill="none" stroke="black" /></svg>