<?xml version="1.0" encoding="utf-8" ?>
<svg baseProfile="tiny" height="64" version="1.2" viewBox="-3 -3 1051 64" width="1051" xmlns="http://www.w3.org/2000/svg" xmlns:ev="http://www.w3.org/2001/xml-events" xmlns:xlink="http://www.w3.org/1999/xlink"><defs /><path d="M0 61 L0 59 L0 55 L1 50 L2 46 L4 42 L9 39 L21 32 L42 28 L58 28 L70 28 L78 29 L88 32 L94 34 L101 37 L111 42 L122 47 L135 54 L142 57 L147 59 L153 62 L157 63 L159 64 L164 64 L170 64 L179 64 L184 63 L191 59 L196 56 L202 50 L209 41 L213 38 L217 33 L222 29 L227 25 L234 22 L240 19 L247 19 L255 18 L257 18 L280 18 L304 19 L318 21 L330 25 L343 28 L358 33 L365 35 L373 38 L378 41 L384 43 L391 46 L398 48 L406 50 L411 50 L417 50 L425 49 L428 47 L433 44 L439 41 L442 39 L445 36 L449 33 L451 31 L457 25 L465 17 L477 8 L485 3 L493 1 L497 0 L500 0 L502 0 L529 3 L553 8 L563 12 L573 17 L594 28 L601 32 L607 36 L620 42 L625 46 L634 49 L647 53 L658 56 L670 56 L680 56 L689 55 L696 52 L703 48 L712 42 L718 37 L724 32 L727 31 L727 30 L741 21 L752 17 L766 11 L774 9 L781 8 L798 7 L821 8 L835 12 L847 17 L865 25 L878 32 L883 35 L888 36 L889 37 L899 40 L914 44 L923 46 L941 47 L952 47 L970 42 L989 35 L1000 30 L1013 25 L1029 17 L1045 12 L1049 12 L1050 12 L1051 12 " fill="none" stroke="black" /></svg>