<?xml version="1.0" encoding="utf-8" ?>
<svg baseProfile="tiny" height="257" version="1.2" viewBox="-3 -3 790 257" width="790" xmlns="http://www.w3.org/2000/svg" xmlns:ev="http://www.w3.org/2001/xml-events" xmlns:xlink="http://www.w3.org/1999/xlink"><defs /><path d="M0 257 L2 249 L5 243 L14 231 L26 221 L38 212 L66 194 L78 189 L93 185 L101 184 L113 184 L131 185 L148 188 L159 193 L169 199 L186 210 L210 224 L227 234 L242 243 L248 246 L259 248 L282 248 L300 247 L323 237 L325 235 L333 233 L363 222 L384 213 L391 209 L409 193 L420 183 L425 176 L435 157 L439 144 L442 124 L442 111 L442 106 L440 103 L436 99 L432 95 L423 88 L416 84 L404 77 L393 73 L381 70 L373 68 L371 68 L370 68 L366 75 L361 84 L357 92 L353 98 L349 104 L343 112 L338 116 L330 123 L324 127 L314 132 L300 137 L290 140 L275 141 L264 141 L256 141 L248 139 L243 136 L237 131 L229 124 L226 117 L220 102 L217 90 L217 79 L218 66 L220 58 L224 49 L231 40 L235 34 L246 26 L255 20 L274 12 L308 3 L329 1 L348 0 L368 0 L387 4 L404 9 L422 16 L436 21 L443 25 L459 36 L471 44 L481 53 L492 65 L497 75 L502 89 L509 103 L513 116 L516 124 L523 134 L550 161 L566 177 L568 181 L590 187 L615 195 L637 199 L672 202 L683 203 L704 203 L723 203 L733 202 L752 195 L759 192 L766 187 L784 164 L790 143 L788 119 L783 103 L777 93 L771 84 L760 71 L748 60 L735 49 L719 44 L712 43 L700 43 L690 45 L682 52 L671 67 L660 95 L656 114 L656 127 L656 131 L657 137 L659 141 L661 145 L668 152 L674 155 L683 159 L692 161 L699 162 L706 162 L709 162 L712 162 L715 162 L717 162 L720 162 L722 162 L724 162 L727 162 L728 161 L730 161 " fill="none" stroke="black" /></svg>