<?xml version="1.0" encoding="utf-8" ?>
<svg baseProfile="tiny" height="167" version="1.2" viewBox="-3 -3 844 167" width="844" xmlns="http://www.w3.org/2000/svg" xmlns:ev="http://www.w3.org/2001/xml-events" xmlns:xlink="http://www.w3.org/1999/xlink"><defs /><path d="M5 34 L11 31 L52 12 L75 1 L78 0 L79 0 L79 3 L79 24 L79 43 L79 48 L94 35 L121 13 L125 12 L126 12 L126 14 L125 43 L125 62 L126 65 L176 38 L199 20 L202 19 L203 19 L204 23 L213 29 L269 21 L293 14 L294 14 L295 14 L292 22 L285 35 L284 38 L284 39 L317 41 L372 43 L394 43 L402 43 L405 43 L406 44 L408 48 L412 51 L415 56 L435 66 L473 74 L491 76 L494 76 L496 76 L499 76 L500 76 L529 63 L571 40 L584 32 L586 32 L587 32 L589 36 L664 44 L742 29 L760 20 L761 20 L760 37 L758 59 L760 66 L791 73 L816 75 L821 75 L822 75 L824 76 L825 76 L827 78 L832 81 L838 84 L844 87 " fill="none" stroke="black" /><path d="M5 34 L11 31 L52 12 L75 1 L78 0 L79 0 L79 3 L79 24 L79 43 L79 48 L94 35 L121 13 L125 12 L126 12 L126 14 L125 43 L125 62 L126 65 L176 38 L199 20 L202 19 L203 19 L204 23 L213 29 L269 21 L293 14 L294 14 L295 14 L292 22 L285 35 L284 38 L284 39 L317 41 L372 43 L394 43 L402 43 L405 43 L406 44 L408 48 L412 51 L415 56 L435 66 L473 74 L491 76 L494 76 L496 76 L499 76 L500 76 L529 63 L571 40 L584 32 L586 32 L587 32 L589 36 L664 44 L742 29 L760 20 L761 20 L760 37 L758 59 L760 66 L791 73 L816 75 L821 75 L822 75 L824 76 L825 76 L827 78 L832 81 L838 84 L844 87 M0 84 L1 86 L7 101 L20 122 L22 126 L25 127 L27 127 L42 108 L63 83 L67 80 L70 80 L76 84 L93 99 L112 115 L120 120 L126 121 L136 119 L144 114 L146 112 L147 112 L148 112 L154 113 L167 116 L182 120 L189 120 L193 119 L196 118 L197 117 L202 117 L208 120 L217 125 L221 127 L223 127 L252 107 L289 86 L295 83 L298 83 L306 83 L319 87 L329 101 L339 129 L342 142 L343 147 L348 148 L388 125 L402 116 L404 116 L408 119 L424 147 L428 153 L444 161 L457 166 L463 167 L467 167 " fill="none" stroke="black" /></svg>