<?xml version="1.0" encoding="utf-8" ?>
<svg baseProfile="tiny" height="159" version="1.2" viewBox="-3 -3 165 159" width="165" xmlns="http://www.w3.org/2000/svg" xmlns:ev="http://www.w3.org/2001/xml-events" xmlns:xlink="http://www.w3.org/1999/xlink"><defs /><path d="M64 0 L59 7 L51 22 L40 44 L29 63 L24 75 L20 82 L13 96 L8 111 L3 121 L2 126 L1 128 L0 129 L0 130 L1 131 L20 134 L48 134 L76 129 L98 125 L118 122 L125 122 L133 120 L147 119 L155 119 L159 119 L161 119 L162 119 L163 119 L162 113 L147 92 L127 69 L113 54 L101 45 L96 41 L92 38 L84 31 L78 26 L72 21 L70 18 L68 16 L67 11 L66 7 L65 5 L65 4 L63 3 L63 2 L62 2 " fill="none" stroke="black" /><path d="M64 0 L59 7 L51 22 L40 44 L29 63 L24 75 L20 82 L13 96 L8 111 L3 121 L2 126 L1 128 L0 129 L0 130 L1 131 L20 134 L48 134 L76 129 L98 125 L118 122 L125 122 L133 120 L147 119 L155 119 L159 119 L161 119 L162 119 L163 119 L162 113 L147 92 L127 69 L113 54 L101 45 L96 41 L92 38 L84 31 L78 26 L72 21 L70 18 L68 16 L67 11 L66 7 L65 5 L65 4 L63 3 L63 2 L62 2 M114 108 L113 108 L112 108 L112 110 L111 111 L111 112 L111 113 L112 113 L113 113 L114 113 L115 113 L116 112 L117 111 L117 110 L117 109 L117 108 L117 106 L116 106 L114 106 L113 106 L112 107 L112 108 L111 108 L111 109 L110 109 " fill="none" stroke="black" /><path d="M64 0 L59 7 L51 22 L40 44 L29 63 L24 75 L20 82 L13 96 L8 111 L3 121 L2 126 L1 128 L0 129 L0 130 L1 131 L20 134 L48 134 L76 129 L98 125 L118 122 L125 122 L133 120 L147 119 L155 119 L159 119 L161 119 L162 119 L163 119 L162 113 L147 92 L127 69 L113 54 L101 45 L96 41 L92 38 L84 31 L78 26 L72 21 L70 18 L68 16 L67 11 L66 7 L65 5 L65 4 L63 3 L63 2 L62 2 M114 108 L113 108 L112 108 L112 110 L111 111 L111 112 L111 113 L112 113 L113 113 L114 113 L115 113 L116 112 L117 111 L117 110 L117 109 L117 108 L117 106 L116 106 L114 106 L113 106 L112 107 L112 108 L111 108 L111 109 L110 109 M110 109 L115 114 L124 123 L136 133 L145 141 L150 146 L154 149 L159 154 L161 156 L163 158 L164 158 L165 159 " fill="none" stroke="black" /></svg>