<?xml version="1.0" encoding="utf-8" ?>
<svg baseProfile="tiny" height="88" version="1.2" viewBox="-3 -3 820 88" width="820" xmlns="http://www.w3.org/2000/svg" xmlns:ev="http://www.w3.org/2001/xml-events" xmlns:xlink="http://www.w3.org/1999/xlink"><defs /><path d="M0 81 L1 81 L2 81 L3 81 L5 80 L8 80 L16 79 L22 78 L28 78 L36 78 L42 78 L51 79 L58 80 L67 80 L71 80 L74 80 L76 81 L77 81 L82 81 L85 80 L92 77 L98 73 L106 67 L114 62 L125 53 L132 47 L137 44 L147 36 L152 31 L158 25 L166 19 L177 12 L192 5 L198 2 L204 1 L211 0 L215 0 L220 0 L222 1 L223 1 L225 3 L233 7 L244 14 L251 17 L256 19 L263 23 L268 27 L278 34 L285 39 L293 45 L301 52 L306 57 L310 61 L316 63 L322 66 L332 69 L337 71 L344 73 L349 74 L355 74 L362 75 L370 76 L393 76 L406 76 L411 76 L412 76 L426 77 L435 78 L442 78 L454 80 L461 80 L469 80 L475 81 L480 81 L487 82 L491 82 L495 82 L499 82 L507 82 L513 82 L519 82 L524 82 L528 81 L535 79 L539 77 L544 76 L553 71 L561 67 L572 63 L581 60 L589 57 L598 54 L602 53 L603 53 L628 52 L636 53 L641 53 L650 56 L657 57 L665 59 L673 61 L679 64 L686 66 L692 70 L700 74 L702 76 L727 77 L749 77 L765 77 L783 79 L790 80 L795 81 L800 81 L805 83 L811 85 L816 87 L819 88 L820 88 " fill="none" stroke="black" /></svg>