<?xml version="1.0" encoding="utf-8" ?>
<svg baseProfile="tiny" height="219" version="1.2" viewBox="-3 -3 317 219" width="317" xmlns="http://www.w3.org/2000/svg" xmlns:ev="http://www.w3.org/2001/xml-events" xmlns:xlink="http://www.w3.org/1999/xlink"><defs /><path d="M48 89 L48 87 L48 84 L47 70 L55 7 L55 1 L55 0 L55 1 L59 7 L77 25 L103 45 L117 55 L121 57 L122 59 L123 60 L131 55 L143 45 L147 41 L150 39 L153 37 L156 34 L159 32 L162 31 L165 29 L166 29 L168 28 L169 28 L169 29 L169 33 L171 43 L174 58 L176 65 L177 69 L177 71 L178 72 L178 74 L184 74 L209 68 L224 65 L231 64 L237 63 L244 61 L247 60 L250 59 L251 59 L252 59 L252 60 L252 65 L251 71 L247 83 L246 88 L245 92 L243 95 L242 98 L242 99 L241 100 L254 105 L281 113 L301 121 L312 125 L315 126 L316 127 L317 127 L317 128 L317 129 L315 131 L292 143 L280 149 L275 151 L269 152 L267 152 L265 153 L262 153 L261 153 L260 153 L259 153 L260 171 L263 198 L265 204 L266 206 L266 208 L266 209 L266 210 L259 207 L229 188 L220 184 L215 181 L210 178 L208 177 L206 176 L205 175 L200 185 L194 203 L191 211 L190 216 L189 217 L188 218 L188 219 L186 219 L183 212 L177 192 L173 180 L170 171 L166 166 L164 163 L163 163 L162 163 L161 163 L158 163 L145 170 L121 180 L103 184 L97 186 L95 186 L94 186 L93 186 L93 185 L93 178 L93 158 L93 144 L93 139 L93 136 L92 135 L92 134 L46 123 L23 121 L11 121 L3 121 L1 121 L0 120 L0 119 L7 110 L30 87 L49 74 L52 73 L54 73 L55 72 L56 72 " fill="none" stroke="black" /></svg>