<?xml version="1.0" encoding="utf-8" ?>
<svg baseProfile="tiny" height="260" version="1.2" viewBox="-3 -3 108 260" width="108" xmlns="http://www.w3.org/2000/svg" xmlns:ev="http://www.w3.org/2001/xml-events" xmlns:xlink="http://www.w3.org/1999/xlink"><defs /><path d="M39 190 L38 181 L24 109 L19 76 L13 52 L7 36 L5 28 L3 21 L1 18 L0 17 L0 15 L0 14 L0 12 L2 12 L16 12 L50 7 L69 3 L80 2 L88 1 L95 0 L99 0 L102 0 L104 0 L106 0 L107 0 L108 2 L108 7 L98 43 L89 68 L86 79 L84 107 L83 122 L83 130 L79 148 L78 156 L76 159 L71 172 L67 184 L65 189 L64 190 L60 194 L57 196 L56 197 L55 197 L54 197 L48 197 L46 196 L43 194 L42 194 " fill="none" stroke="black" /><path d="M39 190 L38 181 L24 109 L19 76 L13 52 L7 36 L5 28 L3 21 L1 18 L0 17 L0 15 L0 14 L0 12 L2 12 L16 12 L50 7 L69 3 L80 2 L88 1 L95 0 L99 0 L102 0 L104 0 L106 0 L107 0 L108 2 L108 7 L98 43 L89 68 L86 79 L84 107 L83 122 L83 130 L79 148 L78 156 L76 159 L71 172 L67 184 L65 189 L64 190 L60 194 L57 196 L56 197 L55 197 L54 197 L48 197 L46 196 L43 194 L42 194 M34 209 L34 210 L33 212 L30 216 L29 220 L28 225 L28 236 L31 244 L38 252 L49 258 L61 260 L79 258 L85 255 L88 253 L89 248 L89 242 L87 234 L83 228 L76 223 L69 221 L60 220 L51 219 L46 218 L42 218 L35 218 L31 218 L28 218 L26 218 L25 218 " fill="none" stroke="black" /></svg>