<?xml version="1.0" encoding="utf-8" ?>
<svg baseProfile="tiny" height="209" version="1.2" viewBox="-3 -3 328 209" width="328" xmlns="http://www.w3.org/2000/svg" xmlns:ev="http://www.w3.org/2001/xml-events" xmlns:xlink="http://www.w3.org/1999/xlink"><defs /><path d="M57 136 L47 149 L39 177 L40 198 L51 209 L66 205 L90 190 L126 167 L150 139 L157 127 L159 122 L160 120 L161 120 L162 120 L162 122 L162 124 L162 125 L163 124 L164 121 L165 118 L167 110 L170 94 L174 71 L182 42 L185 37 L183 54 L181 85 L179 120 L178 134 L176 138 L176 139 L175 138 L173 133 L168 127 L162 119 L160 114 L160 111 L168 107 L185 102 L193 100 L193 102 L192 115 L190 121 L192 120 L200 108 L205 97 L207 94 L204 110 L198 127 L195 136 L195 137 L197 130 L204 116 L210 105 L212 108 L215 120 L217 126 L221 123 L228 113 L230 103 L232 97 L237 82 L248 48 L254 24 L254 23 L246 50 L240 91 L237 124 L237 131 L237 124 L232 113 L226 105 L223 98 L226 98 L236 98 L255 98 L266 95 L267 95 L267 96 L263 116 L256 134 L253 139 L257 130 L262 116 L267 99 L267 103 L262 123 L262 127 L264 127 L269 122 L275 114 L288 90 L297 56 L302 9 L300 0 L286 15 L272 58 L267 123 L271 148 L273 153 L276 148 L279 141 L282 135 L283 127 L284 109 L277 97 L268 97 L265 102 L273 109 L287 113 L295 112 L289 109 L274 106 L266 106 L268 107 L283 108 L298 105 L312 99 L316 95 L318 93 L316 98 L302 126 L300 137 L300 138 L306 131 L311 126 L313 127 L315 129 L319 130 L325 128 L328 127 " fill="none" stroke="black" /><path d="M57 136 L47 149 L39 177 L40 198 L51 209 L66 205 L90 190 L126 167 L150 139 L157 127 L159 122 L160 120 L161 120 L162 120 L162 122 L162 124 L162 125 L163 124 L164 121 L165 118 L167 110 L170 94 L174 71 L182 42 L185 37 L183 54 L181 85 L179 120 L178 134 L176 138 L176 139 L175 138 L173 133 L168 127 L162 119 L160 114 L160 111 L168 107 L185 102 L193 100 L193 102 L192 115 L190 121 L192 120 L200 108 L205 97 L207 94 L204 110 L198 127 L195 136 L195 137 L197 130 L204 116 L210 105 L212 108 L215 120 L217 126 L221 123 L228 113 L230 103 L232 97 L237 82 L248 48 L254 24 L254 23 L246 50 L240 91 L237 124 L237 131 L237 124 L232 113 L226 105 L223 98 L226 98 L236 98 L255 98 L266 95 L267 95 L267 96 L263 116 L256 134 L253 139 L257 130 L262 116 L267 99 L267 103 L262 123 L262 127 L264 127 L269 122 L275 114 L288 90 L297 56 L302 9 L300 0 L286 15 L272 58 L267 123 L271 148 L273 153 L276 148 L279 141 L282 135 L283 127 L284 109 L277 97 L268 97 L265 102 L273 109 L287 113 L295 112 L289 109 L274 106 L266 106 L268 107 L283 108 L298 105 L312 99 L316 95 L318 93 L316 98 L302 126 L300 137 L300 138 L306 131 L311 126 L313 127 L315 129 L319 130 L325 128 L328 127 M61 124 L63 124 L63 123 L63 121 L57 119 L43 123 L35 128 L33 131 L33 128 L33 118 L33 107 L30 96 L30 95 L25 95 L15 96 L7 96 L2 96 L0 96 " fill="none" stroke="black" /></svg>