<?xml version="1.0" encoding="utf-8" ?>
<svg baseProfile="tiny" height="62" version="1.2" viewBox="-3 -3 115 62" width="115" xmlns="http://www.w3.org/2000/svg" xmlns:ev="http://www.w3.org/2001/xml-events" xmlns:xlink="http://www.w3.org/1999/xlink"><defs /><path d="M3 28 L4 33 L5 43 L5 49 L5 54 L5 59 L4 62 L3 62 L2 60 L1 56 L0 47 L0 37 L0 28 L2 19 L4 12 L6 9 L9 6 L11 4 L13 3 L14 3 L16 4 L18 7 L20 9 L21 13 L23 17 L23 23 L24 32 L24 42 L24 51 L23 56 L22 60 L21 60 L20 60 L19 60 L18 55 L17 46 L17 36 L19 26 L21 19 L24 13 L26 11 L29 9 L30 9 L32 9 L34 9 L36 9 L38 11 L40 16 L41 20 L42 25 L44 34 L45 41 L45 49 L45 53 L44 56 L43 60 L42 60 L41 59 L39 56 L37 51 L37 45 L37 33 L38 26 L40 15 L44 8 L46 6 L49 5 L51 4 L53 5 L55 7 L57 12 L58 17 L60 23 L61 34 L62 45 L62 54 L61 62 L60 62 L59 59 L58 53 L58 41 L58 32 L58 24 L60 15 L63 8 L65 5 L68 3 L71 0 L72 0 L74 0 L75 1 L76 3 L77 8 L78 17 L78 24 L78 32 L78 41 L78 47 L76 51 L75 53 L73 53 L71 53 L71 52 L71 47 L72 39 L73 27 L74 21 L76 14 L78 11 L80 8 L82 7 L83 6 L85 6 L86 6 L89 10 L90 15 L91 25 L94 34 L95 44 L95 50 L93 57 L92 59 L91 57 L90 52 L90 44 L90 36 L93 27 L95 21 L99 13 L102 7 L105 5 L106 3 L108 3 L110 3 L112 6 L114 12 L115 17 L115 25 L115 30 L114 37 L113 42 L112 46 L111 47 L111 48 L109 48 L108 46 L108 37 L108 28 L111 13 L114 4 " fill="none" stroke="black" /></svg>