<?xml version="1.0" encoding="utf-8" ?>
<svg baseProfile="tiny" height="107" version="1.2" viewBox="-3 -3 387 107" width="387" xmlns="http://www.w3.org/2000/svg" xmlns:ev="http://www.w3.org/2001/xml-events" xmlns:xlink="http://www.w3.org/1999/xlink"><defs /><path d="M1 65 L0 65 L0 64 L1 69 L6 76 L12 69 L17 60 L19 60 L22 75 L24 78 L28 67 L32 60 L37 76 L39 84 L46 65 L48 44 L48 52 L50 86 L53 92 L55 74 L56 41 L56 43 L64 89 L68 99 L71 88 L74 51 L74 42 L84 90 L87 107 L90 93 L90 61 L92 56 L98 82 L100 88 L104 71 L106 44 L109 57 L113 78 L116 73 L117 55 L117 34 L117 50 L119 68 L120 64 L123 43 L124 36 L127 60 L129 78 L133 67 L138 41 L139 41 L139 55 L139 54 L139 36 L139 18 L139 33 L140 65 L140 68 L142 53 L146 26 L152 46 L154 80 L155 83 L159 62 L166 19 L175 2 L178 50 L175 102 L173 107 L179 65 L183 5 L190 14 L194 68 L190 99 L192 83 L201 33 L206 8 L210 44 L208 83 L208 79 L219 22 L226 0 L230 43 L228 68 L226 70 L229 39 L230 30 L232 66 L233 75 L237 61 L241 46 L242 44 L243 45 L244 46 L246 47 L249 46 L253 50 L254 54 L255 53 L256 51 L256 54 L257 60 L262 56 L267 46 L271 45 L274 77 L280 80 L287 65 L296 48 L303 58 L306 82 L309 89 L313 78 L318 61 L324 43 L324 74 L325 107 L329 98 L336 63 L341 46 L345 74 L346 97 L350 91 L356 79 L370 71 L376 71 L384 72 L387 72 " fill="none" stroke="black" /></svg>