<?xml version="1.0" encoding="utf-8" ?>
<svg baseProfile="tiny" height="102" version="1.2" viewBox="-3 -3 318 102" width="318" xmlns="http://www.w3.org/2000/svg" xmlns:ev="http://www.w3.org/2001/xml-events" xmlns:xlink="http://www.w3.org/1999/xlink"><defs /><path d="M0 99 L11 94 L23 86 L32 78 L41 68 L47 55 L49 45 L49 33 L49 26 L46 19 L42 15 L37 13 L33 13 L27 13 L26 13 L10 26 L5 34 L2 43 L0 53 L0 65 L1 73 L5 82 L13 90 L18 95 L26 97 L31 99 L38 101 L45 102 L55 102 L67 99 L78 93 L87 87 L95 81 L105 73 L115 63 L121 53 L122 41 L123 30 L122 22 L120 14 L117 11 L113 8 L108 7 L102 8 L95 11 L89 16 L80 24 L74 31 L69 40 L66 47 L63 54 L62 62 L62 69 L65 76 L68 81 L72 87 L77 90 L84 95 L91 98 L97 99 L105 100 L114 100 L128 94 L138 89 L154 80 L163 73 L172 63 L179 52 L183 42 L185 29 L185 20 L183 14 L180 11 L174 9 L169 9 L162 12 L156 16 L148 23 L142 30 L136 39 L133 47 L131 55 L131 64 L131 71 L132 79 L134 85 L139 91 L144 95 L150 98 L156 99 L157 99 L172 99 L181 98 L189 95 L197 91 L206 85 L215 78 L225 66 L230 55 L237 44 L240 36 L241 26 L241 19 L239 14 L235 11 L231 10 L226 10 L219 14 L211 20 L204 27 L198 35 L194 43 L190 51 L188 61 L188 69 L188 78 L192 85 L196 90 L202 93 L210 96 L217 98 L224 99 L257 93 L268 89 L282 81 L291 72 L297 62 L304 49 L307 40 L309 25 L309 17 L305 9 L301 3 L295 0 L289 0 L280 3 L272 10 L265 21 L258 35 L254 47 L252 62 L252 73 L256 85 L262 91 L273 96 L287 99 L301 102 L309 102 L318 97 " fill="none" stroke="black" /></svg>