<?xml version="1.0" encoding="utf-8" ?>
<svg baseProfile="tiny" height="130" version="1.2" viewBox="-3 -3 251 130" width="251" xmlns="http://www.w3.org/2000/svg" xmlns:ev="http://www.w3.org/2001/xml-events" xmlns:xlink="http://www.w3.org/1999/xlink"><defs /><path d="M0 70 L6 72 L13 73 L25 74 L46 75 L88 75 L124 77 L171 80 L204 82 L227 83 L246 83 L250 83 L251 83 L249 83 " fill="none" stroke="black" /><path d="M0 70 L6 72 L13 73 L25 74 L46 75 L88 75 L124 77 L171 80 L204 82 L227 83 L246 83 L250 83 L251 83 L249 83 M76 73 L80 72 L85 72 L108 73 L149 73 L191 73 L221 70 " fill="none" stroke="black" /><path d="M0 70 L6 72 L13 73 L25 74 L46 75 L88 75 L124 77 L171 80 L204 82 L227 83 L246 83 L250 83 L251 83 L249 83 M76 73 L80 72 L85 72 L108 73 L149 73 L191 73 L221 70 M74 69 L78 69 L96 69 L116 74 L148 84 L176 92 L197 100 L203 102 " fill="none" stroke="black" /><path d="M0 70 L6 72 L13 73 L25 74 L46 75 L88 75 L124 77 L171 80 L204 82 L227 83 L246 83 L250 83 L251 83 L249 83 M76 73 L80 72 L85 72 L108 73 L149 73 L191 73 L221 70 M74 69 L78 69 L96 69 L116 74 L148 84 L176 92 L197 100 L203 102 M64 69 L81 67 L111 63 L155 57 L186 49 L210 41 L217 38 " fill="none" stroke="black" /><path d="M0 70 L6 72 L13 73 L25 74 L46 75 L88 75 L124 77 L171 80 L204 82 L227 83 L246 83 L250 83 L251 83 L249 83 M76 73 L80 72 L85 72 L108 73 L149 73 L191 73 L221 70 M74 69 L78 69 L96 69 L116 74 L148 84 L176 92 L197 100 L203 102 M64 69 L81 67 L111 63 L155 57 L186 49 L210 41 L217 38 M66 69 L70 68 L76 68 L90 71 L106 78 L126 91 L153 105 L166 111 L174 115 " fill="none" stroke="black" /><path d="M0 70 L6 72 L13 73 L25 74 L46 75 L88 75 L124 77 L171 80 L204 82 L227 83 L246 83 L250 83 L251 83 L249 83 M76 73 L80 72 L85 72 L108 73 L149 73 L191 73 L221 70 M74 69 L78 69 L96 69 L116 74 L148 84 L176 92 L197 100 L203 102 M64 69 L81 67 L111 63 L155 57 L186 49 L210 41 L217 38 M66 69 L70 68 L76 68 L90 71 L106 78 L126 91 L153 105 L166 111 L174 115 M66 69 L65 69 L70 67 L92 58 L121 43 L173 16 L204 0 " fill="none" stroke="black" /><path d="M0 70 L6 72 L13 73 L25 74 L46 75 L88 75 L124 77 L171 80 L204 82 L227 83 L246 83 L250 83 L251 83 L249 83 M76 73 L80 72 L85 72 L108 73 L149 73 L191 73 L221 70 M74 69 L78 69 L96 69 L116 74 L148 84 L176 92 L197 100 L203 102 M64 69 L81 67 L111 63 L155 57 L186 49 L210 41 L217 38 M66 69 L70 68 L76 68 L90 71 L106 78 L126 91 L153 105 L166 111 L174 115 M66 69 L65 69 L70 67 L92 58 L121 43 L173 16 L204 0 M58 66 L60 65 L72 69 L95 82 L129 104 L155 120 L173 130 " fill="none" stroke="black" /></svg>