<?xml version="1.0" encoding="utf-8" ?>
<svg baseProfile="tiny" height="246" version="1.2" viewBox="-3 -3 299 246" width="299" xmlns="http://www.w3.org/2000/svg" xmlns:ev="http://www.w3.org/2001/xml-events" xmlns:xlink="http://www.w3.org/1999/xlink"><defs /><path d="M0 239 L1 243 L3 244 L6 244 L9 240 L12 237 L13 237 L14 237 L15 241 L16 242 L19 241 L22 239 L24 238 L27 241 L33 244 L40 246 L48 246 L63 242 L75 237 L94 228 L111 218 L134 205 L153 190 L173 170 L184 152 L192 132 L197 110 L199 93 L198 77 L194 64 L188 48 L182 36 L175 23 L168 15 L160 9 L152 4 L144 0 L137 0 L128 0 L116 1 L109 6 L100 14 L93 22 L86 32 L80 45 L76 58 L72 76 L70 96 L69 114 L70 129 L72 144 L74 156 L77 165 L81 176 L85 183 L88 193 L91 200 L94 206 L96 211 L101 216 L104 219 L109 224 L114 226 L118 229 L121 231 L124 233 L128 235 L131 236 L135 237 L138 239 L143 241 L146 241 L152 241 L155 241 L159 240 L162 239 L165 237 L170 235 L174 231 L180 224 L183 220 L186 217 L186 216 L186 219 L186 225 L186 230 L187 231 L188 231 L193 226 L196 223 L197 229 L198 235 L199 235 L200 234 L203 227 L206 219 L211 217 L213 219 L214 227 L216 231 L220 230 L226 227 L232 225 L237 225 L241 227 L248 231 L254 231 L262 230 L266 229 L272 229 L279 229 L286 230 L288 231 L290 232 L299 231 " fill="none" stroke="black" /></svg>