<?xml version="1.0" encoding="utf-8" ?>
<svg baseProfile="tiny" height="94" version="1.2" viewBox="-3 -3 386 94" width="386" xmlns="http://www.w3.org/2000/svg" xmlns:ev="http://www.w3.org/2001/xml-events" xmlns:xlink="http://www.w3.org/1999/xlink"><defs /><path d="M1 8 L0 9 L4 14 L9 17 L18 17 L28 15 L43 9 L55 5 L64 2 L72 0 L76 0 L79 4 L82 10 L85 16 L89 17 L103 17 L111 15 L116 12 L122 9 L126 8 L127 8 L128 10 L128 14 L128 17 L128 18 L129 18 L133 17 L135 16 L141 14 L151 12 L161 10 L174 8 L181 7 L189 7 L198 8 L202 13 L204 20 L207 29 L207 41 L201 53 L189 69 L177 81 L158 92 L146 94 L138 85 L137 73 L144 56 L159 39 L177 25 L198 14 L214 8 L231 5 L247 5 L264 6 L274 10 L281 17 L283 30 L284 36 L289 37 L300 35 L317 31 L330 29 L342 29 L348 29 L354 31 L360 35 L369 35 L379 32 L386 30 " fill="none" stroke="black" /></svg>