<?xml version="1.0" encoding="utf-8" ?>
<svg baseProfile="tiny" height="142" version="1.2" viewBox="-3 -3 134 142" width="134" xmlns="http://www.w3.org/2000/svg" xmlns:ev="http://www.w3.org/2001/xml-events" xmlns:xlink="http://www.w3.org/1999/xlink"><defs /><path d="M25 121 L24 121 L23 121 L20 121 L16 122 L12 125 L9 127 L5 129 L2 133 L0 135 L0 136 L0 137 L0 138 L4 139 L11 140 L18 140 L24 141 L34 142 L45 142 L54 141 L64 140 L78 139 L90 137 L103 134 L112 132 L120 129 L127 124 L130 120 L131 116 L130 113 L126 108 L120 104 L111 100 L103 96 L92 94 L81 92 L68 92 L58 93 L43 96 L33 99 L26 102 L20 105 L16 108 L16 109 L15 111 L15 112 L17 114 L23 115 L31 115 L40 115 L48 114 L54 114 L65 112 L76 109 L89 106 L96 103 L106 98 L114 95 L119 92 L125 86 L128 82 L130 78 L131 73 L129 69 L123 65 L111 59 L100 56 L89 55 L75 55 L64 55 L47 58 L35 61 L21 67 L13 71 L6 77 L4 80 L4 84 L7 87 L11 89 L22 89 L33 88 L50 83 L66 79 L89 73 L106 68 L119 61 L124 56 L124 50 L124 43 L118 38 " fill="none" stroke="black" /><path d="M25 121 L24 121 L23 121 L20 121 L16 122 L12 125 L9 127 L5 129 L2 133 L0 135 L0 136 L0 137 L0 138 L4 139 L11 140 L18 140 L24 141 L34 142 L45 142 L54 141 L64 140 L78 139 L90 137 L103 134 L112 132 L120 129 L127 124 L130 120 L131 116 L130 113 L126 108 L120 104 L111 100 L103 96 L92 94 L81 92 L68 92 L58 93 L43 96 L33 99 L26 102 L20 105 L16 108 L16 109 L15 111 L15 112 L17 114 L23 115 L31 115 L40 115 L48 114 L54 114 L65 112 L76 109 L89 106 L96 103 L106 98 L114 95 L119 92 L125 86 L128 82 L130 78 L131 73 L129 69 L123 65 L111 59 L100 56 L89 55 L75 55 L64 55 L47 58 L35 61 L21 67 L13 71 L6 77 L4 80 L4 84 L7 87 L11 89 L22 89 L33 88 L50 83 L66 79 L89 73 L106 68 L119 61 L124 56 L124 50 L124 43 L118 38 M119 37 L117 36 L116 36 L113 34 L107 33 L99 31 L90 29 L76 27 L64 27 L51 27 L35 28 L25 31 L13 35 L7 37 L4 41 L3 43 L3 44 L3 47 L6 49 L11 50 L17 51 L27 52 L37 52 L53 50 L66 46 L83 42 L95 38 L104 34 L115 31 L121 29 L125 27 L128 25 L130 23 L133 20 L134 17 L134 14 L134 11 L129 8 L122 5 L114 3 L103 2 L82 0 L73 0 L64 0 L54 2 L41 6 L34 8 L28 12 L24 14 L24 17 L27 18 L33 20 L38 22 L49 22 L64 19 L79 16 " fill="none" stroke="black" /></svg>