<?xml version="1.0" encoding="utf-8" ?>
<svg baseProfile="tiny" height="3" version="1.2" viewBox="-3 -3 661 3" width="661" xmlns="http://www.w3.org/2000/svg" xmlns:ev="http://www.w3.org/2001/xml-events" xmlns:xlink="http://www.w3.org/1999/xlink"><defs /><path d="M0 3 L2 3 L6 2 L10 2 L18 2 L36 2 L62 2 L113 2 L173 1 L265 1 L351 1 L464 2 L548 2 L611 2 L651 2 L656 2 L656 1 " fill="none" stroke="black" /><path d="M0 3 L2 3 L6 2 L10 2 L18 2 L36 2 L62 2 L113 2 L173 1 L265 1 L351 1 L464 2 L548 2 L611 2 L651 2 L656 2 L656 1 M655 0 L657 0 L658 0 L659 0 L660 0 L661 0 " fill="none" stroke="black" /></svg>