<?xml version="1.0" encoding="utf-8" ?>
<svg baseProfile="tiny" height="182" version="1.2" viewBox="-3 -3 477 182" width="477" xmlns="http://www.w3.org/2000/svg" xmlns:ev="http://www.w3.org/2001/xml-events" xmlns:xlink="http://www.w3.org/1999/xlink"><defs /><path d="M0 182 L6 180 L20 180 L52 178 L94 176 L160 172 L222 167 L285 163 L358 157 L409 152 L451 146 L471 142 L477 139 L476 136 L465 133 L448 130 L426 127 L385 124 L343 121 L283 118 L230 118 L163 120 L113 124 L60 131 L31 136 L14 140 L8 142 L8 144 L8 146 L10 147 L18 147 L33 147 L52 145 L78 143 L120 140 L163 136 L215 131 L289 123 L353 114 L389 108 L406 103 L408 102 L408 100 L406 98 L403 96 L395 93 L372 89 L330 85 L283 82 L225 81 L144 82 L84 84 L29 85 L6 85 L0 85 L2 87 L6 88 L11 89 L22 91 L35 94 L60 98 L89 99 L125 99 L178 95 L233 88 L275 80 L311 73 L341 64 L357 58 L365 53 L365 49 L362 44 L353 40 L334 36 L309 32 L275 30 L219 30 L165 32 L103 36 L67 39 L53 42 L53 44 L57 48 L64 52 L73 56 L93 59 L116 59 L154 57 L190 53 L235 48 L269 44 L296 40 L318 35 L329 32 L333 29 L335 27 L335 22 L332 17 L312 10 L281 4 L221 0 L156 1 L80 6 " fill="none" stroke="black" /></svg>