<?xml version="1.0" encoding="utf-8" ?>
<svg baseProfile="tiny" height="537" version="1.2" viewBox="-3 -3 386 537" width="386" xmlns="http://www.w3.org/2000/svg" xmlns:ev="http://www.w3.org/2001/xml-events" xmlns:xlink="http://www.w3.org/1999/xlink"><defs /><path d="M0 415 L9 418 L13 420 L15 420 L16 421 L17 421 L19 421 L21 421 L22 421 L26 421 L29 421 L31 421 L35 421 L37 420 L38 420 L43 409 L49 383 L61 299 L67 218 L71 149 L72 129 L73 125 L73 139 L69 262 L79 407 L90 491 L90 518 L90 522 L91 515 L95 496 L100 409 L100 290 L109 171 L114 118 L115 102 L113 105 L99 170 L94 331 L118 474 L119 510 L120 515 L125 501 L132 453 L134 352 L134 228 L130 137 L128 125 L116 203 L112 338 L123 417 L127 412 L135 383 L135 394 L135 409 L138 405 L142 394 L142 392 L143 389 L145 416 L150 427 L160 413 L167 399 L169 405 L169 414 L170 414 L173 408 L177 403 L180 401 L179 416 L179 427 L185 419 L191 414 L195 412 L199 403 L209 363 L218 275 L222 109 L228 12 L224 0 L217 17 L199 116 L190 292 L207 425 L221 481 L231 500 L239 487 L245 440 L248 328 L251 272 L250 287 L244 393 L247 459 L263 443 L281 399 L289 394 L282 427 L277 442 L283 431 L297 402 L301 399 L295 433 L297 446 L305 432 L312 413 L314 411 L314 428 L313 433 L316 433 L321 430 L330 402 L333 329 L331 192 L336 54 L338 31 L327 69 L303 211 L306 437 L332 516 L357 537 L366 534 L364 528 L362 518 L364 495 L369 444 L375 384 L378 384 L380 420 L380 441 L383 438 L385 434 L385 429 L386 427 L384 430 " fill="none" stroke="black" /></svg>