<?xml version="1.0" encoding="utf-8" ?>
<svg baseProfile="tiny" height="27" version="1.2" viewBox="-3 -3 423 27" width="423" xmlns="http://www.w3.org/2000/svg" xmlns:ev="http://www.w3.org/2001/xml-events" xmlns:xlink="http://www.w3.org/1999/xlink"><defs /><path d="M0 25 L3 25 L6 26 L8 26 L10 26 L12 26 L16 26 L20 26 L22 26 L25 26 L27 26 L30 26 L33 26 L37 26 L41 26 L45 26 L50 25 L52 25 L54 25 L57 25 L60 25 L62 25 L64 25 L66 25 L67 25 L68 25 L69 25 L69 24 L71 23 L74 19 L77 15 L78 12 L80 10 L82 18 L84 24 L85 27 L86 27 L87 27 L89 27 L90 27 L93 27 L95 26 L96 26 L98 26 L100 26 L102 26 L105 26 L108 26 L111 25 L113 25 L115 25 L117 24 L120 24 L123 23 L126 21 L129 18 L133 15 L135 12 L137 10 L140 14 L143 20 L146 23 L149 22 L155 18 L158 17 L159 17 L161 19 L163 21 L165 22 L170 19 L172 18 L173 19 L175 21 L176 22 L177 22 L180 22 L182 22 L184 22 L185 22 L186 22 L188 22 L189 22 L190 22 L192 23 L193 23 L194 23 L196 23 L198 23 L201 23 L203 23 L205 23 L208 23 L209 23 L211 23 L215 22 L218 21 L220 20 L222 16 L226 10 L230 4 L232 0 L233 0 L234 6 L236 14 L239 16 L246 16 L254 15 L259 14 L261 15 L265 17 L268 19 L271 19 L275 19 L280 18 L283 17 L287 16 L290 16 L297 16 L302 16 L306 17 L310 18 L313 18 L316 18 L317 18 L318 18 L320 18 L323 17 L326 17 L336 16 L344 16 L354 15 L359 15 L364 14 L369 13 L373 12 L374 12 L375 12 L379 12 L383 12 L385 12 L388 12 L393 12 L397 12 L403 12 L409 12 L417 12 L421 13 L422 13 L423 13 L420 11 " fill="none" stroke="black" /></svg>