<?xml version="1.0" encoding="utf-8" ?>
<svg baseProfile="tiny" height="577" version="1.2" viewBox="-3 -3 702 577" width="702" xmlns="http://www.w3.org/2000/svg" xmlns:ev="http://www.w3.org/2001/xml-events" xmlns:xlink="http://www.w3.org/1999/xlink"><defs /><path d="M0 0 L0 2 " fill="none" stroke="black" /><path d="M0 0 L0 2 M324 562 L324 563 " fill="none" stroke="black" /><path d="M0 0 L0 2 M324 562 L324 563 M308 576 L311 575 L318 570 L322 566 L325 562 L327 561 L327 560 L329 560 L330 560 L331 559 L333 562 L335 565 L336 567 L341 572 L344 574 L346 576 L348 577 L349 577 L353 575 L356 571 L359 566 L362 562 L364 560 L368 558 L369 557 L370 557 L372 563 L374 568 L375 572 L377 575 L378 576 L381 574 L387 569 L392 562 L398 557 L401 557 L403 561 L404 573 L406 576 L409 574 L413 568 L419 557 L422 554 L423 559 L424 567 L426 572 L427 573 L431 569 L435 561 L440 552 L440 553 L441 565 L442 573 L446 568 L452 558 L454 554 L455 564 L455 575 L455 577 L458 572 L461 563 L463 559 L464 566 L465 570 L465 571 L470 566 L476 560 L476 567 L478 569 L479 569 L483 564 L488 560 L489 561 L489 565 L491 565 L493 563 L494 561 L494 563 L496 564 L500 566 L507 565 L513 560 L516 558 L516 557 L517 557 L517 560 L517 561 L518 561 L519 561 L519 560 " fill="none" stroke="black" /><path d="M0 0 L0 2 M324 562 L324 563 M308 576 L311 575 L318 570 L322 566 L325 562 L327 561 L327 560 L329 560 L330 560 L331 559 L333 562 L335 565 L336 567 L341 572 L344 574 L346 576 L348 577 L349 577 L353 575 L356 571 L359 566 L362 562 L364 560 L368 558 L369 557 L370 557 L372 563 L374 568 L375 572 L377 575 L378 576 L381 574 L387 569 L392 562 L398 557 L401 557 L403 561 L404 573 L406 576 L409 574 L413 568 L419 557 L422 554 L423 559 L424 567 L426 572 L427 573 L431 569 L435 561 L440 552 L440 553 L441 565 L442 573 L446 568 L452 558 L454 554 L455 564 L455 575 L455 577 L458 572 L461 563 L463 559 L464 566 L465 570 L465 571 L470 566 L476 560 L476 567 L478 569 L479 569 L483 564 L488 560 L489 561 L489 565 L491 565 L493 563 L494 561 L494 563 L496 564 L500 566 L507 565 L513 560 L516 558 L516 557 L517 557 L517 560 L517 561 L518 561 L519 561 L519 560 M541 562 L542 561 L548 557 L555 551 L559 548 L560 550 L559 567 L559 574 L565 572 L573 564 L583 555 L587 553 L587 560 L588 566 L590 567 L596 563 L605 557 L613 555 L613 562 L613 567 L617 562 L623 556 L624 555 L624 560 L625 565 L626 565 L634 562 L644 558 L650 556 L650 560 L650 563 L653 562 L660 556 L665 554 L665 558 L666 564 L668 565 L680 565 L691 562 L700 560 L701 560 L702 561 " fill="none" stroke="black" /></svg>