<?xml version="1.0" encoding="utf-8" ?>
<svg baseProfile="tiny" height="94" version="1.2" viewBox="-3 -3 350 94" width="350" xmlns="http://www.w3.org/2000/svg" xmlns:ev="http://www.w3.org/2001/xml-events" xmlns:xlink="http://www.w3.org/1999/xlink"><defs /><path d="M0 89 L1 87 L4 84 L9 82 L13 79 L16 78 L19 77 L21 77 L24 76 L26 75 L27 75 L30 76 L31 78 L33 83 L35 86 L36 88 L38 90 L40 92 L44 92 L48 93 L54 93 L62 90 L71 85 L79 80 L86 77 L89 77 L91 77 L95 77 L99 80 L101 83 L104 87 L110 89 L115 89 L123 89 L133 86 L145 81 L163 71 L178 60 L198 41 L206 26 L210 8 L205 2 L193 0 L182 2 L173 9 L161 22 L153 36 L146 52 L145 62 L146 71 L150 77 L157 86 L165 90 L171 91 L179 91 L190 89 L201 87 L208 84 L217 79 L224 75 L231 72 L236 71 L239 71 L241 71 L244 77 L245 84 L246 89 L248 92 L249 93 L265 94 L279 94 L289 91 L299 87 L309 84 L315 83 L323 86 L327 90 L329 92 L334 93 L341 93 L350 92 " fill="none" stroke="black" /></svg>