<?xml version="1.0" encoding="utf-8" ?>
<svg baseProfile="tiny" height="388" version="1.2" viewBox="-3 -3 507 388" width="507" xmlns="http://www.w3.org/2000/svg" xmlns:ev="http://www.w3.org/2001/xml-events" xmlns:xlink="http://www.w3.org/1999/xlink"><defs /><path d="M84 283 L80 291 L98 289 L128 280 L134 279 L111 295 L94 311 L91 322 L108 325 L130 327 L121 346 L113 355 L131 356 L148 349 " fill="none" stroke="black" /><path d="M84 283 L80 291 L98 289 L128 280 L134 279 L111 295 L94 311 L91 322 L108 325 L130 327 L121 346 L113 355 L131 356 L148 349 M106 103 L121 102 L190 89 L283 74 L402 58 L460 50 L475 47 L470 48 L423 63 L296 116 L182 173 L113 213 L134 211 L227 179 L282 163 L286 162 L243 179 L233 191 L267 191 L279 192 L249 205 L246 209 L285 212 L286 220 L259 236 L265 246 L281 257 L270 273 L249 286 L258 297 L274 300 L264 313 L258 327 L282 352 L307 359 " fill="none" stroke="black" /><path d="M84 283 L80 291 L98 289 L128 280 L134 279 L111 295 L94 311 L91 322 L108 325 L130 327 L121 346 L113 355 L131 356 L148 349 M106 103 L121 102 L190 89 L283 74 L402 58 L460 50 L475 47 L470 48 L423 63 L296 116 L182 173 L113 213 L134 211 L227 179 L282 163 L286 162 L243 179 L233 191 L267 191 L279 192 L249 205 L246 209 L285 212 L286 220 L259 236 L265 246 L281 257 L270 273 L249 286 L258 297 L274 300 L264 313 L258 327 L282 352 L307 359 M311 134 L309 135 L313 136 L337 132 L405 120 L468 112 L505 105 L507 104 L495 109 L447 144 L366 214 L325 259 L353 261 L437 240 L466 234 L450 240 L402 361 L401 362 L406 362 L405 362 L398 361 L403 359 L415 355 L411 357 L401 361 L403 367 L417 371 L430 377 L423 383 L409 388 L416 388 L438 388 L439 388 L438 386 " fill="none" stroke="black" /><path d="M84 283 L80 291 L98 289 L128 280 L134 279 L111 295 L94 311 L91 322 L108 325 L130 327 L121 346 L113 355 L131 356 L148 349 M106 103 L121 102 L190 89 L283 74 L402 58 L460 50 L475 47 L470 48 L423 63 L296 116 L182 173 L113 213 L134 211 L227 179 L282 163 L286 162 L243 179 L233 191 L267 191 L279 192 L249 205 L246 209 L285 212 L286 220 L259 236 L265 246 L281 257 L270 273 L249 286 L258 297 L274 300 L264 313 L258 327 L282 352 L307 359 M311 134 L309 135 L313 136 L337 132 L405 120 L468 112 L505 105 L507 104 L495 109 L447 144 L366 214 L325 259 L353 261 L437 240 L466 234 L450 240 L402 361 L401 362 L406 362 L405 362 L398 361 L403 359 L415 355 L411 357 L401 361 L403 367 L417 371 L430 377 L423 383 L409 388 L416 388 L438 388 L439 388 L438 386 M0 348 L0 349 L0 350 L1 350 L4 346 L12 335 L40 287 L75 211 L115 105 L144 44 L159 18 L163 15 L163 41 L157 136 L156 235 L158 298 L160 317 L161 325 L162 325 L168 314 L177 285 L198 216 L213 191 L213 227 L204 271 L203 274 L214 251 L236 204 L249 202 L250 244 L247 270 L248 265 L261 234 L268 221 L268 245 L267 267 L276 247 L282 236 L275 277 L272 315 L273 341 L277 337 L289 300 L316 205 L341 106 L365 13 L370 0 L371 3 L360 63 L351 193 L366 307 L385 357 L393 363 L394 362 L395 360 L398 349 L408 314 L426 267 L435 249 L435 257 L433 266 L435 263 L447 249 L448 250 L449 260 L454 260 " fill="none" stroke="black" /></svg>