<?xml version="1.0" encoding="utf-8" ?>
<svg baseProfile="tiny" height="206" version="1.2" viewBox="-3 -3 343 206" width="343" xmlns="http://www.w3.org/2000/svg" xmlns:ev="http://www.w3.org/2001/xml-events" xmlns:xlink="http://www.w3.org/1999/xlink"><defs /><path d="M35 206 L34 205 L33 203 L31 200 L30 198 L31 196 L34 194 L39 191 L43 189 L47 187 L48 186 L50 185 L50 184 L49 182 L46 178 L44 175 L43 171 L44 169 L50 165 L56 162 L63 159 L69 157 L75 156 L77 155 L82 153 " fill="none" stroke="black" /><path d="M35 206 L34 205 L33 203 L31 200 L30 198 L31 196 L34 194 L39 191 L43 189 L47 187 L48 186 L50 185 L50 184 L49 182 L46 178 L44 175 L43 171 L44 169 L50 165 L56 162 L63 159 L69 157 L75 156 L77 155 L82 153 M199 147 L203 146 L214 145 L231 145 L239 146 L244 149 L246 151 L245 155 L239 160 L235 165 L235 167 L235 168 L243 170 L249 171 L256 173 L256 175 L253 179 L251 184 L250 190 L254 195 L260 198 " fill="none" stroke="black" /><path d="M35 206 L34 205 L33 203 L31 200 L30 198 L31 196 L34 194 L39 191 L43 189 L47 187 L48 186 L50 185 L50 184 L49 182 L46 178 L44 175 L43 171 L44 169 L50 165 L56 162 L63 159 L69 157 L75 156 L77 155 L82 153 M199 147 L203 146 L214 145 L231 145 L239 146 L244 149 L246 151 L245 155 L239 160 L235 165 L235 167 L235 168 L243 170 L249 171 L256 173 L256 175 L253 179 L251 184 L250 190 L254 195 L260 198 M19 162 L17 161 L12 158 L10 154 L10 149 L17 142 L26 137 L38 131 L50 127 L57 125 L62 124 L63 123 L61 120 L60 116 L63 112 L73 108 L88 106 L108 104 L124 104 L127 104 L125 107 L119 112 L116 115 " fill="none" stroke="black" /><path d="M35 206 L34 205 L33 203 L31 200 L30 198 L31 196 L34 194 L39 191 L43 189 L47 187 L48 186 L50 185 L50 184 L49 182 L46 178 L44 175 L43 171 L44 169 L50 165 L56 162 L63 159 L69 157 L75 156 L77 155 L82 153 M199 147 L203 146 L214 145 L231 145 L239 146 L244 149 L246 151 L245 155 L239 160 L235 165 L235 167 L235 168 L243 170 L249 171 L256 173 L256 175 L253 179 L251 184 L250 190 L254 195 L260 198 M19 162 L17 161 L12 158 L10 154 L10 149 L17 142 L26 137 L38 131 L50 127 L57 125 L62 124 L63 123 L61 120 L60 116 L63 112 L73 108 L88 106 L108 104 L124 104 L127 104 L125 107 L119 112 L116 115 M194 106 L201 105 L219 103 L243 102 L251 104 L248 109 L244 114 L244 118 L253 119 L263 122 L268 125 L271 127 L274 132 L283 135 L295 144 L299 152 " fill="none" stroke="black" /><path d="M35 206 L34 205 L33 203 L31 200 L30 198 L31 196 L34 194 L39 191 L43 189 L47 187 L48 186 L50 185 L50 184 L49 182 L46 178 L44 175 L43 171 L44 169 L50 165 L56 162 L63 159 L69 157 L75 156 L77 155 L82 153 M199 147 L203 146 L214 145 L231 145 L239 146 L244 149 L246 151 L245 155 L239 160 L235 165 L235 167 L235 168 L243 170 L249 171 L256 173 L256 175 L253 179 L251 184 L250 190 L254 195 L260 198 M19 162 L17 161 L12 158 L10 154 L10 149 L17 142 L26 137 L38 131 L50 127 L57 125 L62 124 L63 123 L61 120 L60 116 L63 112 L73 108 L88 106 L108 104 L124 104 L127 104 L125 107 L119 112 L116 115 M194 106 L201 105 L219 103 L243 102 L251 104 L248 109 L244 114 L244 118 L253 119 L263 122 L268 125 L271 127 L274 132 L283 135 L295 144 L299 152 M0 93 L2 87 L9 80 L27 67 L45 58 L71 52 L92 51 L99 52 L96 56 L85 60 L84 61 L87 60 L98 57 L112 55 L127 61 L132 68 L132 74 L136 76 L146 77 L154 77 " fill="none" stroke="black" /><path d="M35 206 L34 205 L33 203 L31 200 L30 198 L31 196 L34 194 L39 191 L43 189 L47 187 L48 186 L50 185 L50 184 L49 182 L46 178 L44 175 L43 171 L44 169 L50 165 L56 162 L63 159 L69 157 L75 156 L77 155 L82 153 M199 147 L203 146 L214 145 L231 145 L239 146 L244 149 L246 151 L245 155 L239 160 L235 165 L235 167 L235 168 L243 170 L249 171 L256 173 L256 175 L253 179 L251 184 L250 190 L254 195 L260 198 M19 162 L17 161 L12 158 L10 154 L10 149 L17 142 L26 137 L38 131 L50 127 L57 125 L62 124 L63 123 L61 120 L60 116 L63 112 L73 108 L88 106 L108 104 L124 104 L127 104 L125 107 L119 112 L116 115 M194 106 L201 105 L219 103 L243 102 L251 104 L248 109 L244 114 L244 118 L253 119 L263 122 L268 125 L271 127 L274 132 L283 135 L295 144 L299 152 M0 93 L2 87 L9 80 L27 67 L45 58 L71 52 L92 51 L99 52 L96 56 L85 60 L84 61 L87 60 L98 57 L112 55 L127 61 L132 68 L132 74 L136 76 L146 77 L154 77 M202 61 L208 59 L221 55 L236 54 L261 54 L283 58 L296 63 L295 68 L284 75 L278 78 L277 80 L283 83 L299 86 L313 91 L322 96 L323 102 L320 107 L321 110 L330 113 L338 118 L339 123 L338 127 L339 130 L343 136 " fill="none" stroke="black" /><path d="M35 206 L34 205 L33 203 L31 200 L30 198 L31 196 L34 194 L39 191 L43 189 L47 187 L48 186 L50 185 L50 184 L49 182 L46 178 L44 175 L43 171 L44 169 L50 165 L56 162 L63 159 L69 157 L75 156 L77 155 L82 153 M199 147 L203 146 L214 145 L231 145 L239 146 L244 149 L246 151 L245 155 L239 160 L235 165 L235 167 L235 168 L243 170 L249 171 L256 173 L256 175 L253 179 L251 184 L250 190 L254 195 L260 198 M19 162 L17 161 L12 158 L10 154 L10 149 L17 142 L26 137 L38 131 L50 127 L57 125 L62 124 L63 123 L61 120 L60 116 L63 112 L73 108 L88 106 L108 104 L124 104 L127 104 L125 107 L119 112 L116 115 M194 106 L201 105 L219 103 L243 102 L251 104 L248 109 L244 114 L244 118 L253 119 L263 122 L268 125 L271 127 L274 132 L283 135 L295 144 L299 152 M0 93 L2 87 L9 80 L27 67 L45 58 L71 52 L92 51 L99 52 L96 56 L85 60 L84 61 L87 60 L98 57 L112 55 L127 61 L132 68 L132 74 L136 76 L146 77 L154 77 M202 61 L208 59 L221 55 L236 54 L261 54 L283 58 L296 63 L295 68 L284 75 L278 78 L277 80 L283 83 L299 86 L313 91 L322 96 L323 102 L320 107 L321 110 L330 113 L338 118 L339 123 L338 127 L339 130 L343 136 M32 21 L47 15 L65 8 L92 2 L120 0 L126 3 L123 9 L123 10 L130 10 L152 10 L172 10 L176 13 L177 15 L189 15 L210 15 L242 17 L253 20 L259 22 L269 25 L281 29 L278 33 L264 39 " fill="none" stroke="black" /></svg>