<?xml version="1.0" encoding="utf-8" ?>
<svg baseProfile="tiny" height="113" version="1.2" viewBox="-3 -3 260 113" width="260" xmlns="http://www.w3.org/2000/svg" xmlns:ev="http://www.w3.org/2001/xml-events" xmlns:xlink="http://www.w3.org/1999/xlink"><defs /><path d="M0 48 L12 50 L31 52 L37 53 L34 54 L23 60 L16 65 L20 66 L31 66 L35 67 L29 72 L27 76 L36 76 L43 76 L42 78 L35 83 L33 88 L35 90 L38 93 L33 98 L21 108 L16 113 L22 113 " fill="none" stroke="black" /><path d="M0 48 L12 50 L31 52 L37 53 L34 54 L23 60 L16 65 L20 66 L31 66 L35 67 L29 72 L27 76 L36 76 L43 76 L42 78 L35 83 L33 88 L35 90 L38 93 L33 98 L21 108 L16 113 L22 113 M234 33 L224 36 L221 40 L227 42 L239 44 L243 46 L238 50 L231 56 L230 61 L239 63 L243 63 L241 66 L236 69 L238 73 L249 75 L253 77 L245 81 L234 87 L233 93 L239 97 L255 99 L260 101 " fill="none" stroke="black" /><path d="M0 48 L12 50 L31 52 L37 53 L34 54 L23 60 L16 65 L20 66 L31 66 L35 67 L29 72 L27 76 L36 76 L43 76 L42 78 L35 83 L33 88 L35 90 L38 93 L33 98 L21 108 L16 113 L22 113 M234 33 L224 36 L221 40 L227 42 L239 44 L243 46 L238 50 L231 56 L230 61 L239 63 L243 63 L241 66 L236 69 L238 73 L249 75 L253 77 L245 81 L234 87 L233 93 L239 97 L255 99 L260 101 M29 32 L28 33 L29 33 L41 35 L64 37 L70 37 L78 46 L62 54 L53 61 L62 63 L79 63 L82 66 L73 72 L71 75 L81 78 L88 81 L81 88 L65 99 L55 107 L55 110 " fill="none" stroke="black" /><path d="M0 48 L12 50 L31 52 L37 53 L34 54 L23 60 L16 65 L20 66 L31 66 L35 67 L29 72 L27 76 L36 76 L43 76 L42 78 L35 83 L33 88 L35 90 L38 93 L33 98 L21 108 L16 113 L22 113 M234 33 L224 36 L221 40 L227 42 L239 44 L243 46 L238 50 L231 56 L230 61 L239 63 L243 63 L241 66 L236 69 L238 73 L249 75 L253 77 L245 81 L234 87 L233 93 L239 97 L255 99 L260 101 M29 32 L28 33 L29 33 L41 35 L64 37 L70 37 L78 46 L62 54 L53 61 L62 63 L79 63 L82 66 L73 72 L71 75 L81 78 L88 81 L81 88 L65 99 L55 107 L55 110 M213 10 L198 17 L176 30 L167 38 L168 47 L181 51 L191 56 L190 62 L183 70 L184 75 L192 79 L195 83 L187 89 L184 94 L199 94 L212 94 " fill="none" stroke="black" /><path d="M0 48 L12 50 L31 52 L37 53 L34 54 L23 60 L16 65 L20 66 L31 66 L35 67 L29 72 L27 76 L36 76 L43 76 L42 78 L35 83 L33 88 L35 90 L38 93 L33 98 L21 108 L16 113 L22 113 M234 33 L224 36 L221 40 L227 42 L239 44 L243 46 L238 50 L231 56 L230 61 L239 63 L243 63 L241 66 L236 69 L238 73 L249 75 L253 77 L245 81 L234 87 L233 93 L239 97 L255 99 L260 101 M29 32 L28 33 L29 33 L41 35 L64 37 L70 37 L78 46 L62 54 L53 61 L62 63 L79 63 L82 66 L73 72 L71 75 L81 78 L88 81 L81 88 L65 99 L55 107 L55 110 M213 10 L198 17 L176 30 L167 38 L168 47 L181 51 L191 56 L190 62 L183 70 L184 75 L192 79 L195 83 L187 89 L184 94 L199 94 L212 94 M64 16 L71 15 L95 13 L116 14 L121 22 L106 34 L96 48 L105 54 L118 56 L117 61 L111 67 L113 72 L125 79 L132 88 L132 94 " fill="none" stroke="black" /><path d="M0 48 L12 50 L31 52 L37 53 L34 54 L23 60 L16 65 L20 66 L31 66 L35 67 L29 72 L27 76 L36 76 L43 76 L42 78 L35 83 L33 88 L35 90 L38 93 L33 98 L21 108 L16 113 L22 113 M234 33 L224 36 L221 40 L227 42 L239 44 L243 46 L238 50 L231 56 L230 61 L239 63 L243 63 L241 66 L236 69 L238 73 L249 75 L253 77 L245 81 L234 87 L233 93 L239 97 L255 99 L260 101 M29 32 L28 33 L29 33 L41 35 L64 37 L70 37 L78 46 L62 54 L53 61 L62 63 L79 63 L82 66 L73 72 L71 75 L81 78 L88 81 L81 88 L65 99 L55 107 L55 110 M213 10 L198 17 L176 30 L167 38 L168 47 L181 51 L191 56 L190 62 L183 70 L184 75 L192 79 L195 83 L187 89 L184 94 L199 94 L212 94 M64 16 L71 15 L95 13 L116 14 L121 22 L106 34 L96 48 L105 54 L118 56 L117 61 L111 67 L113 72 L125 79 L132 88 L132 94 M166 0 L152 8 L135 20 L133 28 L142 36 L151 42 L150 51 L139 64 L139 69 L153 70 L156 74 L154 81 L154 86 L158 90 " fill="none" stroke="black" /></svg>