<?xml version="1.0" encoding="utf-8" ?>
<svg baseProfile="tiny" height="50" version="1.2" viewBox="-3 -3 390 50" width="390" xmlns="http://www.w3.org/2000/svg" xmlns:ev="http://www.w3.org/2001/xml-events" xmlns:xlink="http://www.w3.org/1999/xlink"><defs /><path d="M1 12 L0 12 L1 12 L14 12 L35 12 L89 15 L168 20 L290 23 L364 23 L389 23 L390 23 L388 23 " fill="none" stroke="black" /><path d="M1 12 L0 12 L1 12 L14 12 L35 12 L89 15 L168 20 L290 23 L364 23 L389 23 L390 23 L388 23 M184 9 L188 6 L195 2 L199 0 L200 0 L201 1 L201 6 L204 9 L208 9 L215 7 L221 7 L224 7 L226 9 L229 10 L234 11 L242 8 L246 6 L246 7 L247 9 L249 9 L260 7 L269 5 L270 5 L271 5 L272 7 L275 9 L279 9 L284 8 L287 8 L289 9 L291 12 L295 12 " fill="none" stroke="black" /><path d="M1 12 L0 12 L1 12 L14 12 L35 12 L89 15 L168 20 L290 23 L364 23 L389 23 L390 23 L388 23 M184 9 L188 6 L195 2 L199 0 L200 0 L201 1 L201 6 L204 9 L208 9 L215 7 L221 7 L224 7 L226 9 L229 10 L234 11 L242 8 L246 6 L246 7 L247 9 L249 9 L260 7 L269 5 L270 5 L271 5 L272 7 L275 9 L279 9 L284 8 L287 8 L289 9 L291 12 L295 12 M261 37 L261 35 L262 35 L264 34 L268 34 L268 38 L268 41 L270 41 L282 39 L289 37 L290 37 L291 39 L291 42 L292 44 L298 44 L306 41 L307 41 L307 43 L307 47 L307 50 L314 50 L323 47 L330 45 L331 45 L331 47 L331 48 L335 48 L340 45 L345 43 L346 43 L350 43 L357 40 L362 39 L365 38 " fill="none" stroke="black" /></svg>