<?xml version="1.0" encoding="utf-8" ?>
<svg baseProfile="tiny" height="159" version="1.2" viewBox="-3 -3 494 159" width="494" xmlns="http://www.w3.org/2000/svg" xmlns:ev="http://www.w3.org/2001/xml-events" xmlns:xlink="http://www.w3.org/1999/xlink"><defs /><path d="M0 126 L8 125 L38 119 L51 118 L58 118 L64 120 L76 122 L87 124 L93 125 L107 126 L138 130 L150 133 L177 127 L203 122 L235 122 L259 122 L278 124 L299 126 L303 126 L322 124 L352 120 L370 120 L386 120 L409 119 L418 118 L434 117 L448 116 L459 116 L474 116 L479 116 L482 116 L485 116 L487 116 L488 116 L489 116 L490 116 L490 115 L491 113 L494 101 L494 82 L493 75 L491 70 L490 67 L489 64 L487 61 L482 53 L478 47 L471 39 L457 28 L440 22 L409 16 L398 14 L373 10 L343 4 L321 0 L304 0 L280 2 L268 6 L261 8 L258 9 L225 9 L186 9 L137 9 L113 15 L99 23 L91 27 L90 28 L85 30 L64 35 L46 39 L32 43 L25 45 L22 47 L16 53 L6 71 L2 90 L1 98 L0 103 L0 105 L0 110 L0 116 L0 118 L1 119 L1 120 L2 122 L2 123 L3 124 L12 128 L76 142 L135 143 L139 146 L162 154 L206 158 L233 159 L263 158 L319 148 L364 142 L394 139 L421 138 " fill="none" stroke="black" /></svg>