<?xml version="1.0" encoding="utf-8" ?>
<svg baseProfile="tiny" height="242" version="1.2" viewBox="-3 -3 526 242" width="526" xmlns="http://www.w3.org/2000/svg" xmlns:ev="http://www.w3.org/2001/xml-events" xmlns:xlink="http://www.w3.org/1999/xlink"><defs /><path d="M60 105 L62 102 L111 47 L142 12 L153 0 L153 2 L153 42 L150 63 L150 65 L153 63 L184 37 L199 25 L201 24 L202 26 L189 90 L177 120 L173 128 L173 129 L173 130 L180 123 L259 43 L283 20 L294 12 L295 12 L295 18 L265 90 L239 148 L226 177 L223 187 L223 189 L222 189 L213 197 L142 233 L95 242 L60 238 L31 222 L2 165 L0 137 L7 123 L21 112 L53 99 L76 95 L84 95 " fill="none" stroke="black" /><path d="M60 105 L62 102 L111 47 L142 12 L153 0 L153 2 L153 42 L150 63 L150 65 L153 63 L184 37 L199 25 L201 24 L202 26 L189 90 L177 120 L173 128 L173 129 L173 130 L180 123 L259 43 L283 20 L294 12 L295 12 L295 18 L265 90 L239 148 L226 177 L223 187 L223 189 L222 189 L213 197 L142 233 L95 242 L60 238 L31 222 L2 165 L0 137 L7 123 L21 112 L53 99 L76 95 L84 95 M364 167 L361 159 L361 97 L365 66 L367 56 L367 55 L369 56 L380 88 L385 108 L385 109 L386 110 L408 76 L445 18 L453 5 L455 3 L460 7 L470 45 L471 80 L471 90 L471 91 L472 88 L500 39 L512 21 L518 13 L518 11 L519 11 L520 13 L526 46 L526 54 L525 64 L523 75 L523 77 L523 78 L521 83 L506 141 L481 204 L461 233 L450 239 L435 240 L401 237 L370 231 L345 218 L340 198 L342 177 L344 170 " fill="none" stroke="black" /></svg>