<?xml version="1.0" encoding="utf-8" ?>
<svg baseProfile="tiny" height="332" version="1.2" viewBox="-3 -3 506 332" width="506" xmlns="http://www.w3.org/2000/svg" xmlns:ev="http://www.w3.org/2001/xml-events" xmlns:xlink="http://www.w3.org/1999/xlink"><defs /><path d="M24 233 L21 229 L6 205 L1 180 L0 159 L2 139 L11 116 L18 106 L29 96 L43 85 L52 79 L59 76 L69 76 L79 76 L86 78 L95 81 L103 86 L113 91 L117 94 L122 98 L131 103 L140 111 L146 115 L150 120 L158 129 L164 135 L169 141 L177 153 L184 162 L192 167 L197 170 L203 170 L221 169 L233 168 L250 163 L264 158 L278 148 L292 134 L303 117 L308 96 L309 69 L300 46 L285 28 L263 12 L246 4 L230 0 L198 2 L173 9 L154 19 L133 41 L121 67 L115 97 L112 136 L115 175 L125 207 L142 231 L159 242 L185 250 L219 252 L234 252 L258 244 L284 237 L308 227 L328 219 L347 212 L352 208 L356 203 L359 199 L361 196 L362 194 L364 189 L366 182 L367 178 L367 175 L367 171 L365 167 L363 161 L363 158 L362 156 L360 152 L359 150 L358 147 L356 144 L355 143 L353 140 L347 134 L340 127 L332 122 L326 118 L324 117 L320 115 L312 112 L303 110 L289 107 L276 105 L266 104 L245 105 L214 115 L196 128 L181 150 L165 196 L163 232 L180 269 L240 312 L313 324 L369 318 L421 301 L446 283 L463 258 L471 230 L473 221 L473 217 L472 180 L462 156 L460 151 L458 149 L448 138 L436 123 L423 112 L413 107 L404 104 L396 102 L382 101 L367 103 L361 105 L354 106 L338 112 L321 119 L310 125 L296 131 L280 142 L273 149 L263 162 L251 182 L248 195 L247 217 L251 252 L262 279 L279 306 L319 330 L360 332 L419 322 L485 292 L501 268 L506 232 L501 149 " fill="none" stroke="black" /></svg>