<?xml version="1.0" encoding="utf-8" ?>
<svg baseProfile="tiny" height="47" version="1.2" viewBox="-3 -3 314 47" width="314" xmlns="http://www.w3.org/2000/svg" xmlns:ev="http://www.w3.org/2001/xml-events" xmlns:xlink="http://www.w3.org/1999/xlink"><defs /><path d="M0 10 L3 10 L8 10 L11 10 L13 10 L15 10 L17 10 L20 10 L22 10 L25 10 L27 10 L29 10 L31 10 L32 10 L33 10 L35 10 L37 10 L39 10 L41 10 L44 10 L46 10 L47 11 L49 11 L51 11 L52 11 L54 11 L55 11 L56 11 L57 11 L58 11 L59 11 L61 11 L63 12 L65 12 L67 12 L69 12 L73 12 L78 13 L82 14 L84 14 L90 14 L94 15 L96 15 L99 16 L105 17 L110 17 L113 18 L114 18 L119 20 L123 22 L126 23 L127 24 L128 24 L131 25 L134 25 L135 25 L136 25 L137 25 L138 26 L142 29 L145 37 L147 41 L148 42 L150 42 L158 38 L162 34 L165 31 L166 31 L166 30 L167 30 L169 31 L170 33 L170 36 L171 37 L171 39 L173 41 L173 42 L175 42 L180 41 L187 34 L191 30 L191 29 L192 29 L194 29 L195 29 L197 32 L198 34 L199 35 L199 36 L200 36 L201 37 L202 37 L205 37 L207 36 L212 30 L214 28 L215 26 L215 25 L216 24 L217 23 L218 23 L219 23 L220 24 L222 27 L226 35 L229 42 L231 45 L232 46 L232 47 L233 47 L235 47 L236 45 L243 35 L247 29 L249 25 L250 23 L251 22 L252 21 L253 21 L254 21 L256 22 L259 29 L260 32 L261 34 L262 37 L262 38 L263 39 L264 40 L266 40 L272 33 L280 22 L285 13 L289 7 L290 5 L291 5 L292 6 L293 14 L293 24 L293 29 L294 34 L294 38 L294 39 L295 39 L297 39 L302 31 L308 19 L312 7 L313 3 L314 2 L314 0 " fill="none" stroke="black" /></svg>