<?xml version="1.0" encoding="utf-8" ?>
<svg baseProfile="tiny" height="442" version="1.2" viewBox="-3 -3 741 442" width="741" xmlns="http://www.w3.org/2000/svg" xmlns:ev="http://www.w3.org/2001/xml-events" xmlns:xlink="http://www.w3.org/1999/xlink"><defs /><path d="M140 200 L168 217 L185 240 L200 284 L192 327 L171 355 L134 374 L93 379 L29 357 L5 338 L0 312 L36 233 L78 191 L139 165 L202 159 L257 169 L287 183 L306 202 L317 240 L313 272 L276 324 L239 349 L186 360 L125 355 L78 331 L54 284 L58 215 L114 103 L161 62 L213 57 L247 75 L275 100 L292 146 L293 184 L275 241 L240 289 L198 309 L152 311 L84 280 L62 255 L58 224 L106 151 L184 105 L240 98 L309 127 L340 161 L358 203 L362 240 L351 275 L347 279 L315 314 L269 353 L238 367 L214 362 L195 290 L213 192 L258 132 L323 115 L373 131 L432 184 L486 261 L496 297 L492 330 L458 382 L416 411 L354 420 L277 406 L247 386 L238 361 L257 309 L349 221 L406 204 L471 214 L504 235 L524 270 L533 314 L532 346 L513 371 L430 396 L350 398 L276 377 L233 335 L233 282 L288 183 L376 118 L439 119 L510 146 L582 201 L607 243 L619 288 L613 328 L583 350 L524 361 L402 349 L337 322 L315 292 L354 198 L445 119 L518 82 L581 83 L629 109 L662 150 L679 192 L680 217 L665 247 L615 293 L564 310 L476 299 L403 250 L362 154 L391 76 L448 18 L491 0 L526 1 L574 32 L605 90 L616 148 L606 177 L582 214 L560 225 L538 225 L597 227 L670 268 L702 308 L712 339 L701 385 L665 423 L618 442 L542 439 L478 409 L450 384 L452 322 L499 230 L552 173 L642 155 L695 176 L721 203 L740 249 L741 285 L727 321 L686 356 L627 368 L564 362 L502 326 L486 299 L493 257 L558 166 L589 143 L609 140 " fill="none" stroke="black" /></svg>