<?xml version="1.0" encoding="utf-8" ?>
<svg baseProfile="tiny" height="334" version="1.2" viewBox="-3 -3 429 334" width="429" xmlns="http://www.w3.org/2000/svg" xmlns:ev="http://www.w3.org/2001/xml-events" xmlns:xlink="http://www.w3.org/1999/xlink"><defs /><path d="M0 318 L6 306 L10 298 L13 294 L18 290 L22 290 L26 289 L32 293 L35 296 L37 300 L40 306 L42 313 L44 318 L47 324 L51 329 L53 331 L55 333 L57 334 L60 334 L66 332 L69 329 L72 326 L76 319 L81 306 L83 301 L85 294 L85 288 L85 284 L87 277 L87 270 L87 267 L88 265 L89 261 L91 258 L93 256 L95 254 L96 253 L97 252 L98 252 L100 252 L101 252 L102 252 L104 253 L104 255 L105 258 L107 261 L108 267 L110 275 L110 278 L112 282 L113 289 L114 295 L116 301 L117 309 L117 316 L118 320 L119 326 L121 330 L121 331 L124 331 L140 317 L150 283 L147 236 L140 206 L138 192 L138 185 L140 183 L142 182 L152 183 L160 188 L165 195 L170 207 L171 214 L172 220 L172 226 L172 233 L172 237 L172 242 L172 245 L172 249 L173 256 L173 259 L174 261 L174 265 L174 268 L174 269 L175 280 L176 288 L177 294 L184 320 L189 332 L189 333 L194 325 L211 282 L217 245 L216 220 L215 187 L219 173 L223 166 L226 166 L242 173 L267 198 L281 223 L285 235 L287 247 L289 259 L289 265 L289 273 L289 282 L290 290 L290 298 L290 301 L291 304 L292 307 L292 310 L293 312 L293 313 L296 310 L306 222 L307 131 L312 97 L313 92 L318 92 L334 103 L349 127 L359 162 L361 187 L357 215 L354 233 L352 245 L351 253 L351 257 L350 263 L349 270 L349 273 L349 275 L349 277 L349 278 L352 270 L376 186 L399 69 L412 3 L412 0 L413 0 L423 35 L429 95 L425 132 L410 179 L403 195 L402 196 " fill="none" stroke="black" /></svg>