<?xml version="1.0" encoding="utf-8" ?>
<svg baseProfile="tiny" height="287" version="1.2" viewBox="-3 -3 633 287" width="633" xmlns="http://www.w3.org/2000/svg" xmlns:ev="http://www.w3.org/2001/xml-events" xmlns:xlink="http://www.w3.org/1999/xlink"><defs /><path d="M0 119 L6 102 L36 40 L49 16 L55 19 L66 61 L67 87 L92 60 L119 32 L124 30 L126 56 L126 59 L132 54 L159 28 L162 26 L168 62 L168 76 L168 74 L183 68 L230 47 L235 48 L235 57 L234 67 L234 68 L280 45 L292 39 L286 54 L280 66 L280 67 L321 32 L330 25 L331 36 L326 61 L326 62 L344 50 L389 23 L389 36 L375 71 L373 80 L385 67 L416 35 L418 48 L408 76 L406 80 L440 53 L460 40 L462 49 L450 81 L449 82 L518 18 L537 8 L532 23 L507 51 L499 58 L511 46 L522 37 L511 58 L497 75 L527 46 L582 0 L588 13 L573 55 L569 69 L592 51 L630 20 L633 21 L608 57 L604 61 L606 57 L612 47 L610 52 L593 71 L591 74 L596 68 L600 63 L564 94 L536 121 L534 124 L538 104 L539 102 L505 127 L496 133 L495 129 L493 116 L434 139 L410 151 L407 152 L402 152 L342 208 L277 287 L269 280 L253 222 L243 211 L218 224 L206 229 L200 200 L199 178 L191 182 L169 202 L168 203 L164 185 L148 168 L122 192 L116 197 L124 153 L129 132 L124 136 L105 157 L100 159 L97 135 L93 128 L88 128 L82 127 L78 124 L76 122 L75 122 L74 122 " fill="none" stroke="black" /></svg>