<?xml version="1.0" encoding="utf-8" ?>
<svg baseProfile="tiny" height="381" version="1.2" viewBox="-3 -3 659 381" width="659" xmlns="http://www.w3.org/2000/svg" xmlns:ev="http://www.w3.org/2001/xml-events" xmlns:xlink="http://www.w3.org/1999/xlink"><defs /><path d="M24 195 L23 194 L11 168 L6 154 L4 146 L1 125 L0 112 L0 104 L3 94 L4 90 L5 88 L8 85 L20 77 L39 62 L59 53 L78 49 L101 46 L118 42 L122 41 L163 19 L200 11 L218 8 L252 6 L285 6 L326 8 L369 13 L388 15 L441 2 L473 0 L508 0 L552 6 L585 15 L619 31 L642 52 L651 70 L659 97 L657 143 L639 171 L609 197 L569 211 L562 211 L568 230 L574 260 L573 291 L562 327 L546 350 L524 367 L468 381 L386 373 L311 353 L247 334 L225 326 L217 319 L196 330 L169 344 L133 355 L101 357 L67 356 L37 355 L25 352 L17 347 L8 316 L8 279 L11 259 L19 246 L38 227 L46 220 L50 216 L55 215 L58 214 L60 214 L64 214 L90 213 L120 221 L148 223 L178 218 L202 207 L214 191 L217 169 L213 157 L209 155 L198 154 L171 158 L153 164 L136 173 L128 181 L125 190 L124 203 L133 212 L161 216 L189 217 L224 214 L247 214 L271 214 L306 214 L324 212 L338 207 L358 196 L369 184 L378 170 L384 161 L391 147 L397 137 L402 134 L404 134 L407 134 L431 184 L441 213 L449 232 L450 260 L450 284 L450 306 L449 323 L437 337 L419 348 L396 357 L381 358 L370 355 L363 337 L365 319 L380 297 L407 270 L427 261 L445 255 L462 247 L474 241 L483 235 L496 223 L501 214 L502 209 L496 196 L469 160 L465 155 " fill="none" stroke="black" /></svg>