<?xml version="1.0" encoding="utf-8" ?>
<svg baseProfile="tiny" height="179" version="1.2" viewBox="-3 -3 409 179" width="409" xmlns="http://www.w3.org/2000/svg" xmlns:ev="http://www.w3.org/2001/xml-events" xmlns:xlink="http://www.w3.org/1999/xlink"><defs /><path d="M0 60 L2 60 L3 60 L5 61 L6 63 L7 64 L8 67 L9 70 L9 72 L9 75 L10 77 L10 79 L10 80 L11 82 L12 83 L15 84 L19 84 L23 84 L26 84 L27 82 L29 81 L30 80 L30 79 L31 76 L32 75 L32 74 " fill="none" stroke="black" /><path d="M0 60 L2 60 L3 60 L5 61 L6 63 L7 64 L8 67 L9 70 L9 72 L9 75 L10 77 L10 79 L10 80 L11 82 L12 83 L15 84 L19 84 L23 84 L26 84 L27 82 L29 81 L30 80 L30 79 L31 76 L32 75 L32 74 M60 80 L62 80 L94 83 L121 84 L123 84 L124 84 " fill="none" stroke="black" /><path d="M0 60 L2 60 L3 60 L5 61 L6 63 L7 64 L8 67 L9 70 L9 72 L9 75 L10 77 L10 79 L10 80 L11 82 L12 83 L15 84 L19 84 L23 84 L26 84 L27 82 L29 81 L30 80 L30 79 L31 76 L32 75 L32 74 M60 80 L62 80 L94 83 L121 84 L123 84 L124 84 M172 84 L173 84 L176 84 L182 84 L187 84 L190 84 " fill="none" stroke="black" /><path d="M0 60 L2 60 L3 60 L5 61 L6 63 L7 64 L8 67 L9 70 L9 72 L9 75 L10 77 L10 79 L10 80 L11 82 L12 83 L15 84 L19 84 L23 84 L26 84 L27 82 L29 81 L30 80 L30 79 L31 76 L32 75 L32 74 M60 80 L62 80 L94 83 L121 84 L123 84 L124 84 M172 84 L173 84 L176 84 L182 84 L187 84 L190 84 M262 75 L265 75 L280 72 L297 70 L315 69 L319 69 L320 69 " fill="none" stroke="black" /><path d="M0 60 L2 60 L3 60 L5 61 L6 63 L7 64 L8 67 L9 70 L9 72 L9 75 L10 77 L10 79 L10 80 L11 82 L12 83 L15 84 L19 84 L23 84 L26 84 L27 82 L29 81 L30 80 L30 79 L31 76 L32 75 L32 74 M60 80 L62 80 L94 83 L121 84 L123 84 L124 84 M172 84 L173 84 L176 84 L182 84 L187 84 L190 84 M262 75 L265 75 L280 72 L297 70 L315 69 L319 69 L320 69 M254 0 L250 0 L205 2 L191 4 L189 4 L188 4 " fill="none" stroke="black" /><path d="M0 60 L2 60 L3 60 L5 61 L6 63 L7 64 L8 67 L9 70 L9 72 L9 75 L10 77 L10 79 L10 80 L11 82 L12 83 L15 84 L19 84 L23 84 L26 84 L27 82 L29 81 L30 80 L30 79 L31 76 L32 75 L32 74 M60 80 L62 80 L94 83 L121 84 L123 84 L124 84 M172 84 L173 84 L176 84 L182 84 L187 84 L190 84 M262 75 L265 75 L280 72 L297 70 L315 69 L319 69 L320 69 M254 0 L250 0 L205 2 L191 4 L189 4 L188 4 M222 104 L223 107 L226 123 L227 137 L228 146 L228 148 L232 147 L276 119 L290 112 L291 112 L291 113 L291 120 L288 128 L288 129 L287 129 L295 118 L304 106 L306 105 L310 115 L311 129 L311 131 L312 131 L324 122 L328 118 L329 118 L331 118 L332 120 L332 121 L334 121 L347 112 L349 110 L351 110 L352 112 L353 113 L353 114 L361 109 L372 98 L374 96 L375 96 L376 97 L376 105 L376 106 L377 106 L389 98 L395 95 L398 97 L399 101 L399 104 L400 105 L405 103 L408 102 L409 102 L409 107 L406 117 L406 118 L403 124 L391 144 L385 150 L384 150 L383 148 L383 146 L382 145 L372 151 L357 161 L354 162 L352 162 L351 160 L349 159 L339 167 L331 173 L328 174 L326 172 L325 169 L322 169 L317 171 L314 172 L312 172 L310 170 L309 169 L305 170 L298 176 L297 176 L294 177 L292 177 L290 176 L279 176 L264 179 L261 179 L254 176 L251 172 L250 172 L247 172 L238 176 L235 177 L231 177 L227 176 L226 176 L225 176 L224 176 " fill="none" stroke="black" /></svg>