<?xml version="1.0" encoding="utf-8" ?>
<svg baseProfile="tiny" height="191" version="1.2" viewBox="-3 -3 248 191" width="248" xmlns="http://www.w3.org/2000/svg" xmlns:ev="http://www.w3.org/2001/xml-events" xmlns:xlink="http://www.w3.org/1999/xlink"><defs /><path d="M12 85 L13 85 L15 90 L16 106 L16 116 L16 125 L12 141 L12 145 L12 147 L10 154 L9 160 L8 164 L6 169 L5 173 L4 176 L3 178 L3 182 L2 184 L2 186 L1 189 L1 190 L0 191 L4 191 L18 183 L31 174 L36 170 L43 161 L61 134 L66 121 L69 108 L71 94 L74 76 L77 61 L79 51 L80 48 L80 45 L82 38 L84 26 L84 23 L84 21 L85 18 L85 16 L86 13 L86 11 L88 9 L89 8 L90 7 L92 5 L93 5 L95 4 L97 3 L99 3 L101 3 L102 3 L103 3 L104 3 L106 3 L107 3 L109 4 L111 5 L113 7 L114 10 L116 11 L117 13 L117 14 L118 16 L118 18 L120 21 L120 22 L120 23 L121 26 L122 27 L123 30 L124 32 L125 35 L126 38 L127 42 L127 43 L128 43 L130 45 L131 47 L133 48 L135 50 L136 51 L137 52 L139 53 L141 55 L144 57 L148 57 L154 56 L161 55 L165 52 L168 51 L169 49 L172 47 L175 43 L176 41 L178 37 L179 33 L181 30 L182 26 L183 23 L185 20 L188 15 L191 10 L193 6 L196 3 L201 0 L212 0 L221 6 L223 10 L225 14 L226 21 L226 30 L226 38 L226 46 L225 50 L223 54 L223 60 L223 67 L223 72 L223 78 L223 82 L223 86 L224 92 L224 95 L224 98 L226 101 L226 104 L227 106 L228 109 L229 111 L230 113 L231 115 L233 117 L234 119 L235 122 L237 123 L237 125 L238 126 L239 126 L239 127 L240 127 L241 128 L242 129 L243 129 L244 129 L246 130 L247 130 L248 130 " fill="none" stroke="black" /></svg>