<?xml version="1.0" encoding="utf-8" ?>
<svg baseProfile="tiny" height="26" version="1.2" viewBox="-3 -3 198 26" width="198" xmlns="http://www.w3.org/2000/svg" xmlns:ev="http://www.w3.org/2001/xml-events" xmlns:xlink="http://www.w3.org/1999/xlink"><defs /><path d="M0 26 L5 25 L6 23 L8 22 L10 20 L11 19 L12 18 L14 15 L14 13 L16 10 L17 7 L18 6 L20 3 L21 2 L25 0 L28 0 L31 0 L34 1 L35 2 L37 4 L38 6 L39 8 L40 10 L41 11 L41 14 L41 15 L42 17 L42 18 L43 18 L44 18 L45 18 L47 18 L49 18 L50 17 L52 16 L54 14 L55 13 L56 11 L58 10 L59 8 L60 7 L62 6 L63 5 L64 5 L66 5 L68 5 L70 5 L71 7 L72 8 L73 10 L74 11 L74 13 L74 14 L75 15 L75 17 L75 18 L75 19 L76 19 L77 19 L78 19 L80 19 L81 19 L82 19 L83 18 L85 17 L86 16 L87 15 L90 14 L91 12 L94 11 L96 10 L97 10 L98 9 L99 9 L100 9 L101 9 L103 10 L104 11 L104 14 L105 15 L105 16 L105 17 L105 18 L105 19 L105 20 L110 23 L114 23 L117 23 L119 23 L122 23 L124 21 L126 20 L128 18 L132 16 L133 14 L135 14 L138 13 L140 13 L141 13 L144 13 L145 13 L146 13 L147 14 L148 15 L149 16 L149 17 L150 18 L150 19 L152 20 L153 20 L154 21 L156 21 L158 21 L160 21 L162 21 L164 21 L165 20 L166 20 L167 18 L169 17 L171 15 L172 13 L173 12 L174 11 L175 9 L177 9 L178 8 L179 6 L182 6 L183 6 L185 6 L186 7 L187 8 L187 9 L188 10 L189 11 L189 12 L189 13 L190 15 L190 16 L191 16 L192 16 L193 16 L194 16 L195 15 L196 13 L197 12 L197 11 L198 10 L198 9 " fill="none" stroke="black" /></svg>