<?xml version="1.0" encoding="utf-8" ?>
<svg baseProfile="tiny" height="53" version="1.2" viewBox="-3 -3 129 53" width="129" xmlns="http://www.w3.org/2000/svg" xmlns:ev="http://www.w3.org/2001/xml-events" xmlns:xlink="http://www.w3.org/1999/xlink"><defs /><path d="M0 35 L1 35 L2 35 L2 36 L3 36 L4 37 L4 38 L5 38 L5 39 L6 39 L7 40 L8 41 L8 42 L9 42 L9 43 L10 43 L11 43 L11 44 L12 44 L12 45 L13 45 L13 46 L14 46 L15 46 L16 46 L17 47 L18 47 L19 47 L19 48 L20 48 L21 49 L22 50 L23 50 L24 50 L25 50 L26 51 L27 51 L28 51 L29 51 L29 52 L30 52 L31 52 L32 52 L33 52 L35 52 L36 53 L37 53 L39 53 L40 53 L42 53 L44 53 L45 53 L46 53 L48 53 L50 53 L51 53 L52 53 L53 53 L55 53 L56 53 L57 53 L59 53 L60 53 L61 52 L63 52 L64 52 L65 51 L66 51 L68 51 L69 49 L70 49 L71 48 L73 47 L74 46 L75 45 L76 45 L77 44 L78 44 L79 43 L79 42 L80 41 L81 40 L82 39 L82 38 L83 37 L83 36 L85 35 L85 34 L85 33 L86 33 L86 32 L86 31 L87 30 L87 29 L87 28 L87 27 L88 26 L88 25 L88 24 L88 23 L88 22 L88 21 L88 20 L89 19 L89 18 L89 17 L90 16 L90 15 L91 14 L92 12 L93 12 L93 11 L94 10 L95 8 L96 8 L97 7 L98 6 L100 4 L102 2 L105 2 L107 1 L109 0 L111 0 L112 0 L113 0 L114 0 L115 1 L116 1 L117 2 L118 3 L120 6 L121 7 L121 9 L122 10 L122 12 L122 13 L122 15 L123 16 L124 18 L124 20 L125 22 L125 23 L126 24 L126 26 L127 27 L127 28 L128 29 L129 31 L129 32 " fill="none" stroke="black" /></svg>