<?xml version="1.0" encoding="utf-8" ?>
<svg baseProfile="tiny" height="276" version="1.2" viewBox="-3 -3 585 276" width="585" xmlns="http://www.w3.org/2000/svg" xmlns:ev="http://www.w3.org/2001/xml-events" xmlns:xlink="http://www.w3.org/1999/xlink"><defs /><path d="M0 104 L13 104 L44 105 L80 109 L111 111 L135 114 L137 115 L145 115 L156 117 L158 117 L159 117 L160 117 " fill="none" stroke="black" /><path d="M0 104 L13 104 L44 105 L80 109 L111 111 L135 114 L137 115 L145 115 L156 117 L158 117 L159 117 L160 117 M106 174 L176 178 L219 180 L254 185 L257 185 " fill="none" stroke="black" /><path d="M0 104 L13 104 L44 105 L80 109 L111 111 L135 114 L137 115 L145 115 L156 117 L158 117 L159 117 L160 117 M106 174 L176 178 L219 180 L254 185 L257 185 M272 276 L299 272 L367 267 L399 268 L411 269 L411 270 " fill="none" stroke="black" /><path d="M0 104 L13 104 L44 105 L80 109 L111 111 L135 114 L137 115 L145 115 L156 117 L158 117 L159 117 L160 117 M106 174 L176 178 L219 180 L254 185 L257 185 M272 276 L299 272 L367 267 L399 268 L411 269 L411 270 M404 213 L417 211 L457 209 L477 209 L489 209 L495 210 " fill="none" stroke="black" /><path d="M0 104 L13 104 L44 105 L80 109 L111 111 L135 114 L137 115 L145 115 L156 117 L158 117 L159 117 L160 117 M106 174 L176 178 L219 180 L254 185 L257 185 M272 276 L299 272 L367 267 L399 268 L411 269 L411 270 M404 213 L417 211 L457 209 L477 209 L489 209 L495 210 M461 108 L490 107 L554 100 L580 95 L585 94 " fill="none" stroke="black" /><path d="M0 104 L13 104 L44 105 L80 109 L111 111 L135 114 L137 115 L145 115 L156 117 L158 117 L159 117 L160 117 M106 174 L176 178 L219 180 L254 185 L257 185 M272 276 L299 272 L367 267 L399 268 L411 269 L411 270 M404 213 L417 211 L457 209 L477 209 L489 209 L495 210 M461 108 L490 107 L554 100 L580 95 L585 94 M468 39 L502 31 L546 26 L580 26 L582 26 " fill="none" stroke="black" /><path d="M0 104 L13 104 L44 105 L80 109 L111 111 L135 114 L137 115 L145 115 L156 117 L158 117 L159 117 L160 117 M106 174 L176 178 L219 180 L254 185 L257 185 M272 276 L299 272 L367 267 L399 268 L411 269 L411 270 M404 213 L417 211 L457 209 L477 209 L489 209 L495 210 M461 108 L490 107 L554 100 L580 95 L585 94 M468 39 L502 31 L546 26 L580 26 L582 26 M361 1 L365 1 L417 0 L425 0 L426 0 " fill="none" stroke="black" /><path d="M0 104 L13 104 L44 105 L80 109 L111 111 L135 114 L137 115 L145 115 L156 117 L158 117 L159 117 L160 117 M106 174 L176 178 L219 180 L254 185 L257 185 M272 276 L299 272 L367 267 L399 268 L411 269 L411 270 M404 213 L417 211 L457 209 L477 209 L489 209 L495 210 M461 108 L490 107 L554 100 L580 95 L585 94 M468 39 L502 31 L546 26 L580 26 L582 26 M361 1 L365 1 L417 0 L425 0 L426 0 M172 12 L172 11 L208 10 L241 12 L255 15 " fill="none" stroke="black" /><path d="M0 104 L13 104 L44 105 L80 109 L111 111 L135 114 L137 115 L145 115 L156 117 L158 117 L159 117 L160 117 M106 174 L176 178 L219 180 L254 185 L257 185 M272 276 L299 272 L367 267 L399 268 L411 269 L411 270 M404 213 L417 211 L457 209 L477 209 L489 209 L495 210 M461 108 L490 107 L554 100 L580 95 L585 94 M468 39 L502 31 L546 26 L580 26 L582 26 M361 1 L365 1 L417 0 L425 0 L426 0 M172 12 L172 11 L208 10 L241 12 L255 15 M267 132 L285 131 L332 128 L349 128 L351 128 " fill="none" stroke="black" /><path d="M0 104 L13 104 L44 105 L80 109 L111 111 L135 114 L137 115 L145 115 L156 117 L158 117 L159 117 L160 117 M106 174 L176 178 L219 180 L254 185 L257 185 M272 276 L299 272 L367 267 L399 268 L411 269 L411 270 M404 213 L417 211 L457 209 L477 209 L489 209 L495 210 M461 108 L490 107 L554 100 L580 95 L585 94 M468 39 L502 31 L546 26 L580 26 L582 26 M361 1 L365 1 L417 0 L425 0 L426 0 M172 12 L172 11 L208 10 L241 12 L255 15 M267 132 L285 131 L332 128 L349 128 L351 128 M219 83 L238 83 L299 82 L333 82 L344 82 L345 82 " fill="none" stroke="black" /><path d="M0 104 L13 104 L44 105 L80 109 L111 111 L135 114 L137 115 L145 115 L156 117 L158 117 L159 117 L160 117 M106 174 L176 178 L219 180 L254 185 L257 185 M272 276 L299 272 L367 267 L399 268 L411 269 L411 270 M404 213 L417 211 L457 209 L477 209 L489 209 L495 210 M461 108 L490 107 L554 100 L580 95 L585 94 M468 39 L502 31 L546 26 L580 26 L582 26 M361 1 L365 1 L417 0 L425 0 L426 0 M172 12 L172 11 L208 10 L241 12 L255 15 M267 132 L285 131 L332 128 L349 128 L351 128 M219 83 L238 83 L299 82 L333 82 L344 82 L345 82 M98 49 L112 48 L159 47 L181 50 L182 51 " fill="none" stroke="black" /></svg>