<?xml version="1.0" encoding="utf-8" ?>
<svg baseProfile="tiny" height="176" version="1.2" viewBox="-3 -3 436 176" width="436" xmlns="http://www.w3.org/2000/svg" xmlns:ev="http://www.w3.org/2001/xml-events" xmlns:xlink="http://www.w3.org/1999/xlink"><defs /><path d="M31 137 L23 119 L3 41 L0 2 L0 0 L22 14 L60 66 L65 72 L69 54 L74 38 L76 37 L83 46 L91 71 L91 72 L104 63 L117 58 L128 68 L133 80 L134 81 L153 65 L173 51 L175 51 L179 54 L181 57 L189 57 L209 49 L213 48 L215 49 L216 51 L220 51 L233 44 L240 42 L243 42 L244 45 L245 46 L249 44 L251 43 L254 43 L254 47 L255 81 L260 111 L260 119 L256 130 L226 145 L207 136 L200 128 L197 128 L194 128 L191 127 L184 126 L150 139 L146 141 L145 141 L144 141 L143 141 L142 141 L135 139 L108 117 L103 104 L78 117 L33 138 L17 140 L13 139 L10 132 L10 131 L9 130 L8 130 L29 114 L128 109 L204 147 L267 176 L368 175 L414 160 L430 153 L433 152 L433 154 L432 153 L436 134 L436 131 L376 124 L278 131 L183 138 L127 142 L123 142 " fill="none" stroke="black" /></svg>