<?xml version="1.0" encoding="utf-8" ?>
<svg baseProfile="tiny" height="68" version="1.2" viewBox="-3 -3 531 68" width="531" xmlns="http://www.w3.org/2000/svg" xmlns:ev="http://www.w3.org/2001/xml-events" xmlns:xlink="http://www.w3.org/1999/xlink"><defs /><path d="M0 22 L2 22 L25 22 L47 23 L72 26 L85 27 L89 28 L92 28 L94 28 L95 28 L96 28 L97 28 L98 27 L98 26 L99 26 L99 25 L100 25 L106 24 L112 23 L117 23 L126 22 L136 22 L140 23 L144 23 L151 23 L162 23 L169 23 L170 23 L176 33 L188 49 L193 53 L196 56 L204 60 L217 65 L227 67 L232 68 L238 68 L244 67 L254 65 L262 63 L268 62 L273 60 L277 58 L281 57 L286 56 L290 54 L292 54 L295 53 L297 51 L298 51 L300 50 L301 49 L302 48 L304 47 L305 46 L307 45 L310 43 L312 42 L316 41 L320 39 L322 38 L325 37 L329 36 L331 35 L332 35 L334 34 L335 32 L337 32 L338 31 L339 31 L341 30 L344 29 L346 29 L348 28 L351 27 L353 26 L354 26 L357 25 L360 25 L361 25 L366 25 L378 25 L381 25 L383 25 L384 25 L387 25 L390 26 L400 27 L403 27 L405 27 L409 27 L414 27 L420 27 L425 27 L431 26 L434 25 L440 25 L444 25 L447 25 L455 25 L461 25 L466 25 L473 24 L477 23 L480 23 L483 22 L490 21 L495 19 L501 16 L507 13 L511 11 L516 8 L521 5 L524 3 L526 2 L528 1 L530 1 L531 0 " fill="none" stroke="black" /></svg>