<?xml version="1.0" encoding="utf-8" ?>
<svg baseProfile="tiny" height="93" version="1.2" viewBox="-3 -3 179 93" width="179" xmlns="http://www.w3.org/2000/svg" xmlns:ev="http://www.w3.org/2001/xml-events" xmlns:xlink="http://www.w3.org/1999/xlink"><defs /><path d="M0 0 L0 3 L2 4 L11 2 L15 1 L18 1 L20 1 L21 8 L22 10 L34 5 L36 5 L34 17 L41 12 L47 8 L47 10 L49 9 L50 9 L51 11 L51 16 L50 19 L51 19 L52 20 L53 20 L67 9 L70 7 L58 26 L57 28 L56 30 L54 32 L59 22 L64 15 L57 29 L51 37 L57 29 L69 15 L68 19 L52 49 L62 39 L67 33 L67 35 L70 33 L72 32 L71 37 L71 38 L73 38 L73 43 L73 44 L82 37 L82 41 L76 54 L76 56 L76 55 L77 54 L83 46 L85 43 L80 50 L77 55 L82 47 L88 40 L87 46 L82 59 L83 56 L83 55 L81 58 L80 60 L80 59 L81 58 L82 61 L82 62 L96 44 L98 41 L94 57 L93 58 L110 25 L112 23 L104 48 L98 58 L99 56 L102 52 L103 52 L103 55 L104 55 L105 54 L113 47 L121 40 L121 61 L119 65 L128 51 L137 41 L134 52 L127 66 L127 67 L131 60 L132 59 L132 61 L133 58 L134 57 L129 63 L127 65 L132 57 L135 54 L130 64 L128 67 L140 50 L155 34 L152 44 L144 57 L144 59 L147 56 L148 56 L149 63 L149 64 L164 55 L166 54 L160 72 L159 74 L167 59 L168 58 L158 70 L155 73 L178 37 L179 40 L158 68 L153 73 L156 64 L157 62 L157 63 L157 64 L140 88 L136 90 L134 78 L127 76 L103 90 L95 93 L93 93 L93 62 L94 56 L91 60 L64 89 L63 89 L63 85 L63 84 L63 82 L62 82 L61 81 L60 81 L58 81 L57 81 L57 82 " fill="none" stroke="black" /></svg>