<?xml version="1.0" encoding="utf-8" ?>
<svg baseProfile="tiny" height="215" version="1.2" viewBox="-3 -3 469 215" width="469" xmlns="http://www.w3.org/2000/svg" xmlns:ev="http://www.w3.org/2001/xml-events" xmlns:xlink="http://www.w3.org/1999/xlink"><defs /><path d="M1 183 L0 183 L13 182 L41 181 L67 183 L87 186 L96 187 L110 188 L136 189 L155 189 L175 189 L208 194 L222 197 L228 198 L247 201 L266 205 L278 207 L286 207 L291 207 L302 206 L328 203 L347 203 L360 203 L374 200 L385 198 L394 193 L399 183 L402 149 L390 106 L379 83 L366 62 L358 48 L353 40 L351 37 L328 22 L314 16 L302 11 L296 9 L286 7 L272 5 L260 3 L247 1 L243 0 L242 0 L241 0 L239 0 L237 0 L235 0 L233 1 L231 1 L230 2 L227 3 L224 4 L221 4 L218 5 L216 6 L213 6 L209 7 L205 8 L202 9 L199 11 L197 12 L194 13 L191 15 L186 18 L179 23 L171 26 L167 28 L163 30 L162 31 L159 33 L155 35 L151 37 L147 40 L142 44 L136 47 L132 50 L128 53 L123 55 L121 56 L118 58 L114 61 L112 62 L111 62 L108 65 L107 66 L104 68 L101 71 L99 72 L98 73 L95 75 L94 76 L92 76 L90 79 L85 83 L80 87 L76 92 L70 100 L64 110 L61 117 L60 125 L60 136 L61 149 L66 154 L102 165 L131 170 L150 173 L176 195 L213 199 L276 200 L335 209 L363 213 L401 215 L431 209 L458 184 L466 163 L469 137 " fill="none" stroke="black" /></svg>