<?xml version="1.0" encoding="utf-8" ?>
<svg baseProfile="tiny" height="280" version="1.2" viewBox="-3 -3 550 280" width="550" xmlns="http://www.w3.org/2000/svg" xmlns:ev="http://www.w3.org/2001/xml-events" xmlns:xlink="http://www.w3.org/1999/xlink"><defs /><path d="M190 63 L195 58 L193 64 L187 77 L201 62 L204 59 L199 88 L198 92 L219 71 L228 61 L228 64 L227 64 L252 42 L258 41 L245 61 L243 64 L275 45 L281 42 L267 58 L257 69 L260 67 L252 78 L243 91 L259 81 L323 23 L328 32 L312 72 L309 80 L347 54 L366 37 L367 37 L362 50 L371 56 L430 24 L430 29 L386 113 L366 157 L368 155 L372 147 L293 200 L189 272 L171 279 L177 228 L178 217 L122 253 L73 280 L71 268 L71 248 L65 246 L30 262 L28 261 L29 251 L22 253 L0 274 L0 275 L46 221 L52 216 L53 216 L70 216 L106 221 L116 225 L129 226 L153 226 L169 234 L199 229 L242 198 L248 195 L248 204 L248 206 L298 162 L301 159 L294 170 L288 178 L312 158 L325 148 L316 168 L305 184 L308 182 L325 171 L315 210 L304 234 L346 185 L348 183 L347 183 L383 161 L389 157 L364 194 L361 200 L363 200 L363 201 L395 185 L409 177 L410 177 L479 134 L482 136 L462 153 L475 147 L492 141 L468 161 L463 164 L503 111 L550 62 L534 77 L507 99 L514 87 L542 42 L536 35 L497 46 L488 49 L494 19 L495 8 L480 16 L455 41 L456 37 L461 24 L430 53 L355 115 L349 112 L347 102 L315 120 L271 143 L254 135 L249 127 L232 126 L211 128 L210 111 L210 90 L175 98 L160 105 L159 105 L159 94 L141 96 L126 101 L125 101 L126 75 L125 71 L122 71 L121 70 L121 67 L122 65 L123 65 L137 57 L177 39 L187 46 L188 50 L246 13 L265 0 L266 3 L253 25 " fill="none" stroke="black" /></svg>