<?xml version="1.0" encoding="utf-8" ?>
<svg baseProfile="tiny" height="70" version="1.2" viewBox="-3 -3 537 70" width="537" xmlns="http://www.w3.org/2000/svg" xmlns:ev="http://www.w3.org/2001/xml-events" xmlns:xlink="http://www.w3.org/1999/xlink"><defs /><path d="M0 6 L3 3 L5 1 L8 0 L9 0 L12 0 L15 1 L20 6 L29 15 L39 29 L46 38 L52 47 L60 54 L72 60 L87 63 L103 66 L112 67 L126 69 L142 70 L150 70 L156 70 L160 70 L166 70 L171 70 L175 70 L179 70 L181 69 L184 68 L187 67 L192 67 L196 66 L200 65 L205 64 L209 63 L211 63 L212 63 L213 63 L216 62 L221 61 L226 61 L227 61 L228 61 L252 61 L269 61 L274 61 L281 61 L286 61 L294 61 L303 61 L312 61 L316 61 L320 61 L332 61 L336 61 L341 61 L350 61 L353 62 L357 63 L360 63 L364 63 L366 63 L370 64 L378 65 L380 65 L382 65 L387 65 L389 65 L391 65 L393 64 L395 63 L396 63 L399 63 L401 62 L402 62 L403 62 L404 61 L405 61 L406 60 L407 59 L408 58 L410 59 L410 61 L410 62 L410 63 L411 63 L413 63 L415 63 L415 62 L416 62 L417 62 L420 66 L421 67 L434 51 L439 47 L440 47 L443 48 L444 48 L444 49 L446 49 L447 51 L451 54 L453 55 L453 56 L458 56 L464 53 L465 53 L466 53 L467 53 L469 53 L473 52 L476 51 L477 51 L479 51 L480 51 L483 51 L486 51 L487 51 L488 51 L490 51 L492 51 L494 51 L495 51 L496 51 L498 51 L499 51 L500 51 L501 51 L502 52 L503 52 L504 52 L505 52 L506 52 L506 53 L508 53 L510 53 L511 53 L514 53 L516 55 L518 57 L519 58 L522 58 L527 55 L531 53 L533 54 L533 55 L534 55 L535 55 L536 55 L537 54 " fill="none" stroke="black" /></svg>