<?xml version="1.0" encoding="utf-8" ?>
<svg baseProfile="tiny" height="18" version="1.2" viewBox="-3 -3 441 18" width="441" xmlns="http://www.w3.org/2000/svg" xmlns:ev="http://www.w3.org/2001/xml-events" xmlns:xlink="http://www.w3.org/1999/xlink"><defs /><path d="M0 16 L2 17 L4 17 L6 17 L10 17 L14 17 L18 17 L24 17 L30 16 L33 15 L36 15 L40 14 L43 13 L48 13 L52 13 L54 13 L58 12 L62 12 L67 12 L73 12 L78 13 L83 13 L85 13 L89 13 L93 13 L96 13 L102 14 L108 14 L115 16 L123 16 L127 16 L130 16 L134 16 L142 17 L146 18 L149 18 L151 18 L154 18 L157 18 L160 18 L162 18 L168 17 L173 16 L174 16 L175 16 L179 16 L186 15 L188 14 L190 14 L193 13 L197 12 L201 12 L203 11 L206 11 L209 10 L212 9 L216 8 L219 8 L221 7 L223 6 L225 6 L228 6 L231 6 L233 6 L236 5 L241 5 L245 5 L249 5 L251 5 L254 5 L257 5 L261 5 L263 5 L267 5 L269 5 L273 5 L276 6 L279 6 L282 6 L285 6 L287 6 L288 6 L290 6 L291 6 L293 6 L296 6 L300 5 L303 3 L305 3 L308 2 L311 2 L312 1 L316 1 L318 0 L321 0 L324 0 L327 0 L330 0 L333 0 L334 0 L337 0 L340 0 L343 0 L346 0 L350 0 L352 0 L355 0 L357 0 L359 0 L361 0 L364 0 L365 0 L367 0 L370 0 L371 0 L374 0 L377 1 L380 1 L381 1 L384 1 L386 2 L388 2 L390 2 L393 3 L396 3 L398 4 L401 4 L403 4 L405 4 L406 4 L407 4 L409 4 L411 5 L414 5 L416 5 L418 6 L419 6 L422 6 L425 7 L428 8 L430 9 L431 9 L432 9 L433 9 L434 10 L437 10 L438 11 L440 11 L441 11 " fill="none" stroke="black" /></svg>