<?xml version="1.0" encoding="utf-8" ?>
<svg baseProfile="tiny" height="296" version="1.2" viewBox="-3 -3 400 296" width="400" xmlns="http://www.w3.org/2000/svg" xmlns:ev="http://www.w3.org/2001/xml-events" xmlns:xlink="http://www.w3.org/1999/xlink"><defs /><path d="M369 193 L371 193 L373 193 L374 193 L376 193 L377 193 L378 193 L380 193 L383 193 " fill="none" stroke="black" /><path d="M369 193 L371 193 L373 193 L374 193 L376 193 L377 193 L378 193 L380 193 L383 193 M0 296 L4 261 L20 206 L29 176 L30 165 L30 162 L33 146 L78 45 L103 2 L104 0 L103 0 L102 7 L100 48 L100 78 L101 91 L103 108 L103 123 L103 136 L104 159 L107 188 L108 198 L108 203 L108 208 L108 210 L108 211 L107 211 L106 211 L106 208 L105 206 L105 205 L106 202 L106 200 L107 199 L108 198 L108 197 L110 200 L113 203 L121 204 L131 199 L134 198 L136 198 L137 198 L139 199 L142 201 L146 202 L149 202 L152 203 L154 203 L159 204 L168 202 L175 200 L177 199 L178 199 L179 199 L181 199 L184 199 L188 199 L190 199 L192 199 L194 199 L199 199 L209 198 L213 197 L214 197 L216 197 L220 198 L224 198 L226 198 L229 198 L231 199 L234 200 L241 200 L249 200 L251 200 L252 200 L254 200 L255 200 L259 200 L264 199 L266 198 L268 198 L270 198 L272 197 L276 196 L278 196 L279 195 L280 195 L282 195 L285 195 L287 195 L289 195 L291 195 L292 195 L298 195 L305 195 L310 195 L313 195 L316 195 L318 195 L320 195 L323 195 L327 194 L328 193 L331 192 L332 192 L333 192 L336 192 L340 193 L342 193 L344 194 L345 195 L347 195 L349 195 L353 195 L355 195 L356 195 L357 195 L360 195 L363 195 L364 195 L366 195 L367 195 L372 194 L375 193 L378 193 L379 193 L381 193 L382 193 L384 192 L386 192 L387 192 L388 192 L389 192 L391 192 L392 192 L393 192 L394 192 L395 192 L397 192 L398 192 L399 192 L400 192 " fill="none" stroke="black" /></svg>