<?xml version="1.0" encoding="utf-8" ?>
<svg baseProfile="tiny" height="15" version="1.2" viewBox="-3 -3 336 15" width="336" xmlns="http://www.w3.org/2000/svg" xmlns:ev="http://www.w3.org/2001/xml-events" xmlns:xlink="http://www.w3.org/1999/xlink"><defs /><path d="M0 5 L3 8 L6 8 L11 8 L13 7 L14 7 L16 8 L17 9 L19 9 L21 7 L22 6 L23 6 L25 7 L27 8 L33 6 L39 2 L42 2 L45 2 L48 7 L50 10 L55 10 L58 10 L61 10 L63 11 L64 12 L70 12 L76 10 L79 9 L80 9 L82 9 L83 9 L90 4 L94 1 L96 0 L97 0 L98 1 L98 2 L100 3 L102 3 L103 3 L105 9 L107 13 L111 14 L114 14 L116 14 L117 15 L118 15 L119 15 L125 12 L127 11 L128 10 L129 10 L130 10 L130 9 L132 8 L133 7 L134 7 L134 8 L137 8 L140 8 L142 8 L144 9 L145 9 L147 10 L152 9 L155 8 L157 7 L158 7 L160 7 L162 7 L165 7 L167 7 L168 7 L169 7 L170 8 L171 8 L173 8 L175 8 L176 8 L177 8 L178 9 L180 10 L181 11 L182 11 L183 11 L184 12 L187 13 L193 13 L199 12 L201 11 L203 9 L204 9 L205 9 L206 8 L208 7 L208 6 L209 6 L218 6 L223 8 L225 8 L227 8 L228 8 L228 9 L229 9 L230 10 L231 10 L232 10 L234 10 L236 9 L237 8 L238 8 L239 8 L244 6 L250 5 L252 4 L253 4 L255 4 L256 4 L258 5 L260 6 L261 6 L263 7 L264 8 L267 8 L272 8 L274 9 L275 10 L276 10 L278 10 L286 10 L289 10 L290 10 L292 10 L295 10 L302 8 L305 7 L307 7 L308 7 L310 8 L311 8 L312 8 L315 7 L317 7 L318 7 L319 7 L322 7 L330 5 L333 5 L335 5 L336 4 " fill="none" stroke="black" /></svg>