<?xml version="1.0" encoding="utf-8" ?>
<svg baseProfile="tiny" height="53" version="1.2" viewBox="-3 -3 580 53" width="580" xmlns="http://www.w3.org/2000/svg" xmlns:ev="http://www.w3.org/2001/xml-events" xmlns:xlink="http://www.w3.org/1999/xlink"><defs /><path d="M0 17 L6 6 L8 1 L12 0 L15 0 L19 3 L25 11 L37 33 L42 41 L48 44 L52 45 L59 43 L71 30 L77 21 L80 15 L85 8 L88 3 L90 1 L93 0 L97 0 L102 4 L108 11 L114 24 L117 33 L118 38 L120 40 L121 42 L123 44 L129 44 L145 36 L155 25 L160 19 L163 16 L166 14 L174 12 L181 12 L186 12 L192 16 L195 22 L199 32 L201 37 L203 42 L204 44 L208 47 L213 48 L218 48 L225 48 L230 48 L233 48 L236 48 L242 43 L244 40 L245 38 L247 36 L247 35 L249 34 L250 33 L252 31 L255 30 L256 28 L257 28 L259 28 L263 28 L268 30 L273 34 L277 39 L281 44 L284 47 L286 50 L288 51 L289 52 L293 53 L297 52 L301 51 L304 49 L306 47 L312 41 L319 33 L325 26 L331 23 L335 21 L339 20 L343 20 L348 22 L354 26 L358 31 L363 36 L368 41 L371 45 L373 49 L374 50 L377 52 L381 53 L385 52 L390 51 L394 49 L398 46 L401 44 L404 42 L405 41 L409 40 L413 40 L417 40 L421 40 L425 40 L427 41 L430 43 L434 45 L436 47 L438 48 L439 48 L440 49 L445 49 L452 48 L457 47 L461 45 L464 43 L467 40 L469 39 L470 37 L472 36 L475 35 L478 33 L481 32 L485 31 L488 31 L493 32 L498 35 L503 37 L506 39 L510 42 L514 43 L517 45 L519 45 L521 45 L524 45 L527 44 L531 41 L536 37 L539 32 L543 29 L545 27 L548 25 L552 23 L559 23 L567 26 L575 31 L578 32 L580 34 " fill="none" stroke="black" /></svg>