<?xml version="1.0" encoding="utf-8" ?>
<svg baseProfile="tiny" height="62" version="1.2" viewBox="-3 -3 286 62" width="286" xmlns="http://www.w3.org/2000/svg" xmlns:ev="http://www.w3.org/2001/xml-events" xmlns:xlink="http://www.w3.org/1999/xlink"><defs /><path d="M0 11 L1 17 L2 18 L15 6 L20 0 L21 1 L21 16 L21 19 L22 19 L24 19 L26 17 L27 17 L33 13 L35 10 L37 10 L37 11 L36 14 L37 14 L38 15 L39 16 L39 18 L40 18 L49 15 L52 14 L54 14 L54 22 L55 25 L56 25 L60 22 L61 22 L62 23 L62 26 L74 18 L76 16 L77 16 L77 17 L77 18 L78 17 L81 14 L82 13 L83 13 L84 13 L85 12 L87 12 L88 12 L90 11 L98 7 L104 4 L105 5 L105 6 L107 6 L109 7 L111 16 L111 24 L111 26 L111 27 L112 27 L112 28 L112 30 L112 31 L114 31 L115 31 L117 31 L122 29 L123 29 L124 29 L127 29 L132 28 L133 27 L133 35 L133 46 L133 57 L133 60 L134 62 L138 61 L145 55 L148 52 L150 51 L151 49 L154 43 L158 35 L159 33 L159 32 L159 33 L159 34 L160 34 L163 33 L164 34 L165 39 L165 41 L172 33 L178 27 L179 27 L177 46 L175 54 L174 55 L217 8 L222 2 L219 11 L212 23 L209 26 L209 25 L217 17 L220 15 L220 16 L220 20 L219 21 L219 22 L220 23 L220 25 L220 28 L221 29 L224 29 L226 29 L228 29 L229 34 L229 35 L234 36 L238 34 L240 34 L241 35 L241 38 L242 39 L245 39 L247 39 L248 40 L248 41 L250 42 L254 42 L255 42 L256 42 L257 42 L260 41 L264 39 L266 39 L267 39 L268 39 L269 39 L271 38 L273 37 L274 37 L276 37 L279 37 L280 37 L281 38 L282 39 L283 39 L284 39 L285 39 L286 39 " fill="none" stroke="black" /></svg>