<?xml version="1.0" encoding="utf-8" ?>
<svg baseProfile="tiny" height="261" version="1.2" viewBox="-3 -3 568 261" width="568" xmlns="http://www.w3.org/2000/svg" xmlns:ev="http://www.w3.org/2001/xml-events" xmlns:xlink="http://www.w3.org/1999/xlink"><defs /><path d="M0 245 L88 143 L102 135 L105 141 L105 153 L98 176 L95 180 L96 176 L153 12 L158 0 L157 3 L134 42 L118 129 L129 138 L176 119 L225 68 L231 43 L230 46 L182 119 L163 161 L164 173 L171 175 L176 172 L179 171 L180 171 L180 194 L180 201 L203 156 L216 109 L228 108 L245 118 L247 128 L247 132 L254 130 L259 127 L262 127 L261 153 L259 169 L287 131 L322 87 L327 87 L321 111 L305 147 L344 33 L350 1 L351 13 L349 61 L331 147 L327 166 L327 168 L342 166 L415 81 L418 100 L410 168 L396 236 L393 250 L401 235 L450 152 L501 72 L501 83 L489 122 L478 150 L475 159 L475 161 L475 162 L476 166 L476 174 L476 179 L476 181 L476 182 L479 183 L483 186 L485 187 L487 188 L532 141 L543 129 L544 128 L546 147 L530 215 L527 226 L545 200 L549 190 L549 191 L543 198 L541 201 L542 202 L565 190 L568 188 L565 193 L531 208 L486 212 L460 197 L454 189 L453 188 L452 188 L453 190 L520 210 L557 214 L560 215 L555 215 L427 219 L263 252 L186 261 L153 229 L146 204 L153 192 L199 153 L233 127 L239 128 L237 132 L210 161 L175 171 L149 166 " fill="none" stroke="black" /></svg>