<?xml version="1.0" encoding="utf-8" ?>
<svg baseProfile="tiny" height="18" version="1.2" viewBox="-3 -3 354 18" width="354" xmlns="http://www.w3.org/2000/svg" xmlns:ev="http://www.w3.org/2001/xml-events" xmlns:xlink="http://www.w3.org/1999/xlink"><defs /><path d="M0 5 L1 5 L2 6 L4 6 L5 7 L6 8 L8 9 L9 9 L10 10 L11 11 L13 11 L14 11 L15 11 L16 12 L18 13 L20 13 L22 14 L25 15 L27 16 L30 16 L33 17 L37 18 L39 18 L42 18 L45 18 L48 18 L51 18 L53 17 L56 16 L59 15 L62 15 L64 14 L66 13 L68 13 L70 12 L72 11 L75 10 L76 8 L78 7 L80 6 L82 5 L84 5 L86 4 L88 3 L90 2 L92 2 L93 1 L94 1 L96 1 L99 1 L100 1 L103 1 L104 1 L107 1 L110 1 L113 2 L115 3 L118 4 L121 4 L123 5 L125 5 L127 6 L129 7 L131 9 L134 10 L137 11 L141 12 L143 13 L145 14 L147 15 L149 15 L151 16 L154 16 L156 16 L160 17 L165 17 L168 17 L172 17 L176 17 L180 17 L182 17 L185 16 L187 15 L189 15 L192 14 L194 13 L195 12 L198 11 L208 6 L217 2 L220 0 L221 0 L224 0 L226 0 L229 0 L233 0 L234 0 L236 0 L238 0 L239 0 L241 0 L243 0 L244 0 L246 0 L248 0 L250 0 L252 0 L254 0 L256 0 L257 0 L260 0 L263 0 L265 0 L268 1 L270 2 L274 2 L276 2 L280 3 L283 4 L287 4 L292 5 L296 5 L298 6 L302 7 L304 7 L307 8 L310 8 L312 8 L315 8 L318 8 L319 8 L321 8 L323 8 L324 8 L325 8 L327 8 L329 7 L330 7 L331 7 L332 6 L336 5 L341 3 L343 3 L345 2 L346 2 L347 2 L349 1 L352 1 L353 1 L354 0 " fill="none" stroke="black" /></svg>