<?xml version="1.0" encoding="utf-8" ?>
<svg baseProfile="tiny" height="84" version="1.2" viewBox="-3 -3 329 84" width="329" xmlns="http://www.w3.org/2000/svg" xmlns:ev="http://www.w3.org/2001/xml-events" xmlns:xlink="http://www.w3.org/1999/xlink"><defs /><path d="M0 19 L2 18 L8 37 L10 49 L11 49 L30 15 L32 9 L32 8 L32 13 L24 39 L23 43 L23 44 L24 43 L26 42 L28 42 L30 45 L31 48 L32 48 L35 46 L38 45 L41 45 L44 46 L45 48 L47 49 L54 46 L58 42 L60 42 L62 42 L64 46 L66 47 L69 47 L70 47 L73 51 L76 52 L86 47 L102 19 L106 9 L106 7 L106 20 L108 58 L111 70 L111 71 L112 67 L122 24 L125 10 L125 11 L126 25 L132 54 L134 59 L135 59 L142 41 L155 2 L156 0 L160 11 L162 39 L162 52 L162 54 L163 53 L163 51 L164 55 L165 63 L166 65 L167 65 L168 65 L170 64 L171 64 L173 65 L175 67 L176 67 L177 68 L178 69 L179 70 L179 74 L180 76 L183 77 L185 76 L186 75 L187 75 L187 77 L188 78 L189 78 L191 78 L192 78 L193 78 L194 78 L198 78 L200 79 L202 81 L204 82 L205 83 L206 84 L208 84 L210 83 L211 82 L213 82 L215 82 L217 82 L220 82 L221 82 L222 83 L223 83 L223 82 L224 78 L225 76 L226 75 L226 74 L226 77 L226 79 L226 80 L228 80 L230 78 L231 78 L233 78 L235 78 L236 79 L241 77 L244 75 L246 74 L249 74 L254 75 L256 77 L258 77 L261 76 L264 71 L266 69 L267 68 L268 68 L270 68 L271 68 L277 61 L281 53 L282 51 L286 51 L291 54 L293 55 L299 45 L303 24 L304 23 L305 23 L308 26 L310 31 L312 31 L314 21 L314 10 L314 8 L318 11 L325 22 L328 28 L329 31 L329 33 " fill="none" stroke="black" /></svg>