<?xml version="1.0" encoding="utf-8" ?>
<svg baseProfile="tiny" height="98" version="1.2" viewBox="-3 -3 381 98" width="381" xmlns="http://www.w3.org/2000/svg" xmlns:ev="http://www.w3.org/2001/xml-events" xmlns:xlink="http://www.w3.org/1999/xlink"><defs /><path d="M11 25 L1 48 L0 50 L3 47 L7 42 L9 42 L14 68 L23 97 L31 98 L50 80 L59 66 L58 71 L54 75 L72 16 L77 0 L73 5 L33 44 L26 52 L29 47 L32 42 L32 41 L26 46 L21 51 L29 46 L45 42 L50 53 L50 64 L50 66 L52 66 L63 61 L67 59 L69 59 L69 62 L69 63 L75 62 L83 57 L86 57 L86 60 L86 63 L86 64 L93 64 L96 64 L97 65 L97 68 L97 70 L101 69 L104 67 L105 67 L106 67 L107 67 L110 67 L112 66 L113 66 L113 69 L114 70 L119 69 L124 68 L126 68 L127 68 L132 67 L147 60 L151 59 L152 59 L154 59 L156 58 L156 60 L155 62 L155 63 L155 64 L156 64 L156 65 L156 71 L156 75 L158 76 L171 69 L174 66 L174 67 L175 67 L178 67 L179 66 L179 69 L179 70 L180 70 L181 70 L182 70 L182 74 L182 77 L187 75 L189 73 L190 73 L192 71 L193 70 L193 71 L196 71 L248 60 L254 58 L253 59 L253 60 L253 61 L253 62 L253 64 L253 65 L254 67 L256 67 L257 67 L259 69 L260 72 L260 73 L263 74 L268 74 L269 74 L270 74 L270 76 L272 76 L274 75 L276 74 L277 74 L278 75 L278 76 L280 76 L283 76 L284 76 L284 78 L284 79 L287 80 L294 79 L297 78 L298 78 L299 79 L300 80 L304 81 L305 81 L306 82 L307 82 L308 82 L313 82 L315 82 L316 82 L316 84 L319 86 L322 87 L324 88 L324 92 L324 96 L330 90 L380 4 L381 3 L380 4 L379 5 L379 6 " fill="none" stroke="black" /></svg>