<?xml version="1.0" encoding="utf-8" ?>
<svg baseProfile="tiny" height="105" version="1.2" viewBox="-3 -3 92 105" width="92" xmlns="http://www.w3.org/2000/svg" xmlns:ev="http://www.w3.org/2001/xml-events" xmlns:xlink="http://www.w3.org/1999/xlink"><defs /><path d="M58 57 L60 57 L62 57 L63 57 L64 56 L65 54 L65 53 L66 49 L66 46 L66 44 L66 41 L66 38 L66 35 L64 33 L63 30 L63 28 L61 27 L60 25 L59 24 L57 24 L55 23 L53 23 L52 23 L50 23 L48 23 L45 25 L42 26 L41 27 L37 29 L35 30 L32 33 L31 35 L29 38 L28 44 L27 48 L27 50 L27 52 L27 55 L27 57 L27 60 L28 64 L29 68 L31 72 L33 75 L34 78 L36 81 L41 85 L46 87 L49 88 L52 89 L54 89 L59 89 L65 89 L68 88 L72 87 L77 84 L80 81 L84 77 L87 72 L89 69 L90 66 L91 62 L92 55 L92 48 L92 38 L92 34 L92 29 L90 20 L89 15 L88 12 L86 9 L83 6 L81 5 L78 4 L76 3 L73 2 L70 1 L68 1 L64 1 L60 0 L57 0 L53 0 L50 0 L47 0 L44 0 L41 2 L38 3 L35 4 L32 5 L29 7 L26 8 L24 10 L21 12 L19 14 L17 16 L16 18 L15 20 L13 22 L11 25 L9 30 L8 33 L6 37 L5 40 L4 43 L2 47 L1 51 L0 53 L0 58 L0 62 L0 66 L0 70 L1 73 L1 75 L2 77 L2 79 L3 81 L4 83 L5 86 L6 87 L7 89 L8 91 L10 93 L11 94 L13 95 L15 97 L16 98 L19 99 L20 99 L23 101 L26 102 L29 104 L31 104 L33 105 L34 105 L36 105 L37 105 L38 105 L41 105 L43 105 L45 105 L47 105 L50 105 L54 105 L56 105 L58 104 L60 103 L61 103 L62 102 L64 102 L65 101 " fill="none" stroke="black" /></svg>