<?xml version="1.0" encoding="utf-8" ?>
<svg baseProfile="tiny" height="152" version="1.2" viewBox="-3 -3 512 152" width="512" xmlns="http://www.w3.org/2000/svg" xmlns:ev="http://www.w3.org/2001/xml-events" xmlns:xlink="http://www.w3.org/1999/xlink"><defs /><path d="M0 84 L1 84 L1 85 L2 85 L3 85 L4 85 L10 77 L31 40 L42 21 L47 13 L48 11 L49 9 L50 8 L50 6 L50 5 L50 3 L50 2 L50 0 L50 1 L50 2 L50 4 L50 8 L50 14 L49 23 L48 34 L47 42 L46 53 L46 63 L46 72 L46 80 L47 90 L49 100 L51 107 L53 115 L56 120 L58 124 L62 128 L64 131 L69 134 L75 137 L78 138 L83 139 L93 140 L113 140 L126 140 L136 140 L144 139 L150 139 L154 138 L159 137 L164 136 L169 135 L172 134 L174 133 L176 132 L179 131 L182 130 L185 129 L187 127 L192 125 L199 123 L204 121 L209 120 L213 120 L217 119 L223 118 L230 118 L236 117 L243 116 L247 115 L252 116 L258 117 L265 120 L269 122 L274 125 L278 128 L282 132 L284 135 L285 136 L288 137 L294 141 L304 145 L312 147 L316 148 L319 149 L320 150 L322 150 L326 151 L333 152 L339 152 L346 152 L354 151 L374 148 L384 147 L392 145 L395 145 L398 144 L399 143 L404 141 L409 138 L414 135 L419 133 L421 131 L423 130 L425 129 L432 125 L443 119 L453 115 L460 112 L463 111 L465 110 L467 110 L471 110 L476 110 L478 110 L481 110 L484 110 L489 110 L493 111 L496 112 L498 113 L499 113 L501 115 L502 116 L504 117 L505 118 L506 120 L507 122 L508 124 L508 126 L509 128 L510 130 L510 133 L511 134 L511 135 L512 136 " fill="none" stroke="black" /></svg>