<?xml version="1.0" encoding="utf-8" ?>
<svg baseProfile="tiny" height="33" version="1.2" viewBox="-3 -3 375 33" width="375" xmlns="http://www.w3.org/2000/svg" xmlns:ev="http://www.w3.org/2001/xml-events" xmlns:xlink="http://www.w3.org/1999/xlink"><defs /><path d="M0 19 L3 20 L6 20 L9 20 L13 21 L17 22 L20 22 L24 23 L28 23 L31 23 L34 23 L37 23 L39 23 L42 23 L45 23 L48 23 L50 23 L52 23 L54 24 L56 24 L58 24 L61 24 L63 24 L66 24 L68 24 L70 24 L72 24 L74 24 L76 24 L78 24 L80 24 L82 23 L84 22 L86 21 L88 21 L90 20 L92 19 L94 18 L96 17 L99 16 L102 15 L104 14 L106 13 L108 12 L111 11 L112 10 L114 9 L117 9 L120 8 L123 7 L127 6 L130 6 L134 5 L138 4 L142 4 L145 3 L148 2 L152 1 L157 0 L165 0 L168 0 L171 0 L174 0 L176 0 L179 0 L182 1 L186 2 L190 3 L192 4 L193 4 L196 7 L197 8 L198 9 L199 9 L201 10 L203 11 L206 12 L207 13 L209 13 L211 14 L212 15 L214 16 L215 16 L216 16 L217 16 L218 16 L219 16 L220 17 L221 17 L222 18 L224 18 L225 19 L228 20 L230 21 L232 22 L235 22 L238 23 L241 24 L243 25 L246 27 L249 27 L252 28 L254 29 L256 29 L258 30 L261 30 L264 30 L266 31 L269 31 L272 32 L275 32 L277 32 L279 33 L283 33 L285 33 L288 33 L291 33 L293 33 L296 33 L299 33 L303 33 L307 33 L311 33 L314 33 L316 32 L318 32 L322 31 L325 31 L328 31 L331 30 L334 29 L337 29 L340 27 L344 26 L348 23 L351 21 L353 20 L354 19 L357 16 L361 15 L363 13 L366 12 L368 10 L370 10 L371 9 L372 9 L373 8 L374 8 L374 7 L375 7 " fill="none" stroke="black" /></svg>