<?xml version="1.0" encoding="utf-8" ?>
<svg baseProfile="tiny" height="85" version="1.2" viewBox="-3 -3 354 85" width="354" xmlns="http://www.w3.org/2000/svg" xmlns:ev="http://www.w3.org/2001/xml-events" xmlns:xlink="http://www.w3.org/1999/xlink"><defs /><path d="M0 35 L0 33 L0 30 L0 24 L0 17 L0 9 L0 5 L0 2 L0 0 L1 0 L10 27 L24 73 L28 83 L29 84 L29 85 L30 85 L31 85 L32 84 L34 81 L36 77 L39 71 L41 67 L42 66 L44 64 L44 63 L44 64 L45 64 L47 64 L50 65 L56 69 L59 71 L62 74 L71 74 L88 67 L91 66 L93 65 L93 66 L95 67 L99 68 L104 70 L112 70 L119 71 L127 71 L133 72 L137 72 L140 72 L144 72 L148 72 L152 71 L156 71 L160 70 L167 69 L174 68 L182 68 L186 67 L188 67 L194 67 L198 67 L202 67 L205 67 L208 67 L213 67 L216 67 L219 67 L224 67 L229 66 L231 65 L234 65 L237 65 L243 65 L247 65 L250 65 L252 65 L253 65 L255 65 L258 65 L261 65 L264 65 L266 65 L267 65 L269 65 L270 65 L277 63 L280 62 L284 60 L291 57 L298 53 L304 50 L307 49 L308 49 L314 48 L320 48 L323 48 L326 48 L328 48 L330 48 L333 48 L336 48 L339 48 L342 48 L344 48 L346 49 L349 49 L352 49 L354 50 " fill="none" stroke="black" /></svg>