<?xml version="1.0" encoding="utf-8" ?>
<svg baseProfile="tiny" height="55" version="1.2" viewBox="-3 -3 335 55" width="335" xmlns="http://www.w3.org/2000/svg" xmlns:ev="http://www.w3.org/2001/xml-events" xmlns:xlink="http://www.w3.org/1999/xlink"><defs /><path d="M0 3 L4 15 L11 32 L13 37 L14 37 L15 37 L18 10 L18 1 L18 0 L18 3 L24 17 L27 23 L28 25 L30 25 L31 22 L32 20 L33 18 L36 19 L51 42 L59 52 L60 54 L61 52 L62 44 L63 36 L63 28 L64 26 L64 25 L65 26 L69 36 L72 41 L72 43 L74 43 L85 17 L88 9 L89 8 L89 11 L94 20 L98 28 L99 30 L100 31 L101 31 L104 26 L107 19 L108 17 L110 19 L113 31 L116 39 L117 41 L117 42 L119 42 L119 39 L120 37 L121 35 L121 34 L122 34 L125 41 L127 46 L129 47 L131 46 L134 40 L137 34 L139 31 L139 30 L141 31 L143 35 L145 38 L145 41 L146 41 L149 41 L157 30 L160 25 L161 24 L162 24 L165 32 L169 44 L171 48 L171 49 L172 49 L173 47 L174 45 L174 44 L175 42 L175 41 L175 40 L179 38 L185 32 L189 28 L191 26 L192 25 L193 24 L196 25 L202 33 L208 44 L209 48 L210 49 L212 46 L224 27 L227 20 L228 20 L230 24 L231 31 L232 34 L233 35 L235 35 L236 35 L237 36 L242 43 L246 51 L248 54 L250 55 L256 47 L260 35 L261 33 L261 32 L261 31 L262 31 L265 35 L267 39 L268 41 L269 41 L270 41 L272 38 L273 36 L275 36 L277 38 L280 44 L283 46 L284 48 L286 48 L288 46 L291 42 L292 41 L294 40 L296 40 L302 45 L307 51 L309 53 L311 54 L313 54 L315 50 L317 47 L318 46 L319 45 L321 45 L325 49 L326 51 L328 53 L329 53 L331 53 L335 52 " fill="none" stroke="black" /></svg>