<?xml version="1.0" encoding="utf-8" ?>
<svg baseProfile="tiny" height="102" version="1.2" viewBox="-3 -3 245 102" width="245" xmlns="http://www.w3.org/2000/svg" xmlns:ev="http://www.w3.org/2001/xml-events" xmlns:xlink="http://www.w3.org/1999/xlink"><defs /><path d="M0 102 L1 101 L2 101 L4 101 L4 100 L6 99 L7 99 L8 98 L9 97 L11 97 L12 96 L12 95 L13 94 L14 94 L15 93 L16 93 L18 91 L20 90 L21 89 L22 87 L24 87 L25 86 L26 85 L27 84 L28 83 L30 83 L34 83 L40 83 L42 82 L45 82 L47 81 L49 81 L51 80 L53 79 L55 79 L57 78 L61 76 L63 75 L65 73 L67 72 L69 70 L69 69 L70 68 L71 66 L72 65 L73 63 L74 61 L75 59 L77 57 L77 56 L78 54 L79 53 L80 52 L82 51 L84 50 L86 49 L88 47 L90 46 L92 46 L95 45 L96 45 L98 45 L99 45 L100 45 L101 45 L103 45 L105 44 L106 43 L107 43 L109 43 L110 43 L112 42 L114 42 L116 41 L117 41 L118 40 L119 40 L121 39 L123 39 L125 38 L127 37 L128 37 L130 36 L130 35 L132 35 L133 34 L134 33 L136 32 L137 31 L139 30 L141 27 L144 26 L145 24 L147 23 L149 21 L150 20 L151 19 L152 18 L154 17 L155 17 L156 16 L157 16 L159 15 L162 13 L163 12 L167 11 L170 9 L173 7 L176 6 L179 4 L182 3 L184 2 L187 2 L189 1 L191 0 L193 0 L196 0 L198 0 L199 0 L201 0 L202 1 L203 1 L205 2 L206 3 L207 4 L207 5 L208 6 L209 7 L210 7 L210 8 L212 8 L213 9 L214 9 L217 9 L218 9 L220 9 L222 9 L224 9 L227 9 L230 9 L232 9 L234 9 L236 8 L239 7 L240 7 L242 7 L243 7 L244 7 L245 7 L245 6 " fill="none" stroke="black" /></svg>