<?xml version="1.0" encoding="utf-8" ?>
<svg baseProfile="tiny" height="199" version="1.2" viewBox="-3 -3 514 199" width="514" xmlns="http://www.w3.org/2000/svg" xmlns:ev="http://www.w3.org/2001/xml-events" xmlns:xlink="http://www.w3.org/1999/xlink"><defs /><path d="M34 104 L41 93 L99 29 L111 13 L114 12 L113 16 L38 119 L3 193 L0 199 L8 181 L100 87 L169 20 L171 20 L168 33 L119 113 L94 155 L92 165 L98 162 L162 103 L181 83 L182 82 L182 83 L180 90 L179 93 L179 94 L197 83 L209 72 L211 72 L212 77 L202 117 L200 125 L200 126 L208 113 L238 70 L242 67 L242 68 L212 133 L201 161 L201 159 L235 106 L251 91 L253 91 L245 111 L242 119 L256 94 L274 63 L274 62 L274 65 L268 78 L266 85 L266 86 L271 82 L289 64 L291 63 L279 96 L270 143 L273 147 L284 140 L332 74 L340 65 L341 65 L329 91 L324 104 L324 106 L326 103 L396 6 L401 0 L401 1 L385 40 L362 86 L356 103 L356 105 L357 106 L363 99 L366 96 L367 95 L367 97 L347 138 L344 142 L350 139 L361 130 L364 129 L364 130 L355 151 L351 158 L351 159 L371 138 L391 125 L397 124 L397 125 L397 131 L393 142 L391 144 L391 145 L390 147 L366 156 L345 162 L342 162 L343 161 L419 104 L440 89 L441 89 L439 94 L391 141 L383 151 L383 152 L390 150 L447 121 L450 119 L451 119 L451 120 L450 123 L450 124 L462 118 L473 112 L475 112 L473 115 L464 132 L462 137 L475 131 L511 110 L514 109 L509 113 L507 115 L506 115 L510 113 L513 111 L514 111 L512 112 " fill="none" stroke="black" /></svg>