<?xml version="1.0" encoding="utf-8" ?>
<svg baseProfile="tiny" height="179" version="1.2" viewBox="-3 -3 103 179" width="103" xmlns="http://www.w3.org/2000/svg" xmlns:ev="http://www.w3.org/2001/xml-events" xmlns:xlink="http://www.w3.org/1999/xlink"><defs /><path d="M24 0 L25 1 L26 5 L27 9 L28 15 L28 23 L28 32 L28 40 L26 45 L24 52 L22 57 L21 62 L20 66 L19 68 L18 71 L17 74 L17 76 L17 79 L17 81 L16 83 L15 86 L12 87 L10 88 L7 90 L5 91 L3 93 L1 94 L0 96 L0 98 L0 100 L0 102 L1 104 L5 106 L10 109 L14 113 L18 119 L20 125 L20 128 L21 132 L22 136 L23 142 L23 147 L23 150 L23 152 L23 155 L24 157 L24 160 L25 163 L26 165 L26 167 L27 169 L28 169 L29 169 L30 169 L32 169 L34 170 L34 171 L34 174 L34 176 L35 177 L35 178 L36 179 L37 179 L38 178 L38 177 L39 175 L40 173 L41 171 L43 168 L44 164 L46 159 L47 152 L47 148 L48 143 L48 139 L49 134 L50 131 L50 129 L51 127 L51 126 L51 124 L52 123 L52 121 L53 120 L54 119 L55 119 L55 118 L56 117 L58 115 L60 112 L62 110 L63 107 L63 106 L63 103 L63 99 L63 94 L63 90 L63 87 L63 85 L63 83 L63 81 L63 78 L64 76 L65 73 L65 70 L66 68 L67 67 L67 66 L69 65 L70 63 L71 62 L72 61 L73 61 L73 60 L74 60 L75 60 L76 60 L77 60 L78 60 L79 60 L82 60 L83 60 L86 59 L87 59 L89 59 L92 58 L94 57 L96 55 L96 54 L97 52 L98 51 L99 48 L101 47 L102 45 L102 42 L103 41 L103 39 L103 37 L103 36 L103 35 L103 32 L103 30 L103 29 L103 27 L103 26 L103 25 L103 24 L103 23 L103 22 L103 21 " fill="none" stroke="black" /></svg>