<?xml version="1.0" encoding="utf-8" ?>
<svg baseProfile="tiny" height="117" version="1.2" viewBox="-3 -3 319 117" width="319" xmlns="http://www.w3.org/2000/svg" xmlns:ev="http://www.w3.org/2001/xml-events" xmlns:xlink="http://www.w3.org/1999/xlink"><defs /><path d="M20 5 L24 0 L17 44 L1 80 L0 82 L2 77 L18 55 L21 53 L22 59 L21 74 L21 76 L25 72 L31 69 L33 69 L34 80 L34 87 L41 88 L50 84 L53 84 L54 84 L55 84 L56 84 L63 80 L67 78 L68 78 L69 78 L70 79 L71 80 L74 79 L75 78 L76 79 L77 82 L91 46 L96 32 L95 33 L91 62 L91 77 L91 78 L92 74 L101 49 L102 46 L103 46 L104 54 L105 64 L106 66 L116 55 L125 34 L125 33 L125 34 L124 52 L125 67 L126 70 L127 70 L128 68 L129 67 L131 68 L132 72 L133 75 L134 76 L137 76 L140 77 L142 80 L143 82 L146 83 L152 81 L153 80 L156 79 L157 81 L157 83 L160 80 L174 39 L171 50 L158 111 L158 117 L161 108 L182 42 L186 23 L186 26 L186 33 L187 41 L188 43 L190 43 L192 39 L193 38 L194 38 L195 52 L196 57 L197 58 L205 38 L207 28 L208 28 L208 34 L209 49 L209 52 L210 52 L211 51 L212 49 L213 49 L215 53 L218 56 L219 58 L221 58 L223 58 L225 58 L228 59 L231 66 L234 66 L241 50 L242 48 L242 47 L244 51 L248 57 L250 60 L251 60 L251 66 L251 88 L252 93 L252 95 L253 95 L256 87 L262 76 L262 75 L263 78 L265 91 L266 94 L267 95 L268 95 L269 94 L269 93 L270 94 L273 100 L276 104 L278 105 L280 105 L282 105 L287 105 L290 108 L293 109 L294 109 L297 109 L301 108 L303 108 L306 108 L308 108 L310 108 L312 108 L315 107 L316 106 L318 105 L319 104 " fill="none" stroke="black" /></svg>