<?xml version="1.0" encoding="utf-8" ?>
<svg baseProfile="tiny" height="197" version="1.2" viewBox="-3 -3 149 197" width="149" xmlns="http://www.w3.org/2000/svg" xmlns:ev="http://www.w3.org/2001/xml-events" xmlns:xlink="http://www.w3.org/1999/xlink"><defs /><path d="M84 137 L84 138 L84 139 L85 141 L85 146 L86 148 L87 149 L88 149 L91 148 L94 143 L98 139 L100 135 L100 133 L101 131 L101 126 L101 121 L100 113 L100 106 L100 99 L100 97 L100 94 L100 92 L100 89 L100 73 L102 63 L103 61 L102 60 L102 59 L101 59 L101 58 L101 56 L101 55 L102 53 L104 46 L106 43 L106 42 L107 41 L108 39 L110 33 L110 30 L110 29 L108 29 L107 27 L106 25 L106 24 L106 23 L126 4 L131 0 L133 0 L133 2 L133 5 L134 6 L135 9 L135 10 L135 13 L136 20 L136 28 L136 31 L136 33 L137 35 L137 37 L137 41 L137 44 L137 46 L137 48 L137 49 L138 49 L139 49 L140 49 L142 57 L143 97 L142 105 L142 107 L142 108 L142 109 L142 111 L142 114 L142 115 L143 115 L145 116 L146 118 L146 123 L146 128 L146 131 L148 135 L148 138 L149 143 L149 145 L149 148 L149 149 L149 150 L149 152 L149 156 L149 158 L149 160 L149 161 L149 162 L148 162 L148 163 L148 164 L147 164 L146 164 L145 164 L140 169 L138 171 L136 173 L135 174 L134 174 L134 175 L133 176 L132 176 L131 176 L130 177 L126 181 L123 182 L121 182 L117 178 L112 172 L110 171 L108 171 L105 171 L102 172 L98 174 L76 189 L66 197 L64 197 L63 195 L63 191 L63 190 L62 190 L60 190 L59 190 L57 190 L52 190 L43 185 L38 181 L36 180 L34 178 L28 178 L23 176 L21 172 L18 167 L15 165 L11 163 L8 163 L6 155 L6 150 L4 148 L1 147 L0 146 " fill="none" stroke="black" /></svg>