<?xml version="1.0" encoding="utf-8" ?>
<svg baseProfile="tiny" height="309" version="1.2" viewBox="-3 -3 623 309" width="623" xmlns="http://www.w3.org/2000/svg" xmlns:ev="http://www.w3.org/2001/xml-events" xmlns:xlink="http://www.w3.org/1999/xlink"><defs /><path d="M176 96 L184 98 L194 101 L207 105 L221 110 L227 114 L229 118 L229 126 L227 135 L226 150 L229 169 L235 176 L249 182 L261 185 L276 188 L295 192 L309 194 L313 195 L315 191 L321 186 L322 183 L326 177 L327 166 L327 159 L325 155 L323 152 L322 149 L317 142 L314 137 L313 134 L309 129 L306 126 L303 122 L287 114 L278 108 L271 105 L264 102 L244 83 L237 76 L232 72 L220 67 L197 61 L169 58 L151 59 L142 64 L132 68 L117 74 L102 79 L90 83 L71 91 L55 99 L43 107 L26 122 L8 138 L2 149 L0 158 L0 166 L1 174 L11 192 L26 209 L49 225 L81 240 L124 253 L207 262 L233 263 L263 263 L282 264 L301 265 L332 256 L343 242 L352 220 L365 212 L393 209 L425 201 L428 194 L429 185 L442 183 L462 183 L485 191 L510 204 L519 213 L520 221 L519 233 L515 245 L509 254 L498 260 L475 264 L463 269 L461 275 L461 284 L461 293 L462 295 L474 300 L494 307 L503 309 L508 309 L528 300 L552 295 L567 292 L588 274 L612 252 L623 234 L622 216 L621 207 L612 188 L589 163 L576 154 L553 150 L521 143 L495 136 L460 128 L451 126 L444 126 L430 135 L424 141 L423 149 L417 157 L405 164 L402 166 L389 166 L370 159 L354 152 L351 149 L342 136 L335 125 L334 119 L330 107 L328 101 L325 94 L321 87 L314 79 L304 70 L286 57 L281 51 L274 43 L270 37 L264 30 L255 24 L240 17 L227 13 L217 10 L189 6 L146 3 L122 1 L107 0 L96 0 L75 2 L70 3 L67 8 L64 11 " fill="none" stroke="black" /></svg>