<?xml version="1.0" encoding="utf-8" ?>
<svg baseProfile="tiny" height="230" version="1.2" viewBox="-3 -3 498 230" width="498" xmlns="http://www.w3.org/2000/svg" xmlns:ev="http://www.w3.org/2001/xml-events" xmlns:xlink="http://www.w3.org/1999/xlink"><defs /><path d="M0 230 L14 223 L34 211 L55 198 L100 170 L159 131 L219 101 L231 96 L220 108 L218 115 L220 115 L221 115 L221 117 L221 120 L228 122 L237 121 L238 121 L230 121 L235 118 L264 104 L298 90 L311 84 L313 84 L322 85 L319 88 L291 100 L254 119 L242 133 L254 138 L258 139 L227 156 L157 177 L129 181 L120 174 L120 175 L129 182 L131 182 L73 170 L78 169 L210 179 L300 180 L284 169 L198 150 L166 151 L174 157 L174 160 L186 168 L189 170 L196 171 L225 174 L243 174 L246 175 L248 177 L275 183 L326 185 L346 174 L337 167 L329 169 L329 179 L367 189 L400 183 L407 178 L399 176 L376 180 L379 182 L404 168 L409 157 L400 154 L388 161 L388 168 L398 167 L394 154 L365 142 L334 142 L331 146 L345 150 L371 143 L375 127 L372 120 L360 117 L365 110 L370 96 L370 73 L366 40 L366 25 L366 12 L370 4 L390 0 L423 10 L463 29 L485 46 L498 67 L486 82 L464 102 L446 117 L416 129 L360 131 L299 131 L269 131 L255 134 L259 134 L264 119 L256 87 L235 62 L213 52 L211 59 L213 68 L244 89 L294 108 L330 111 L341 109 L307 73 L204 23 L155 18 L139 32 L143 58 L168 84 L229 96 L280 86 L316 80 L362 70 L385 69 L396 90 L410 118 L414 138 L414 143 " fill="none" stroke="black" /></svg>