<?xml version="1.0" encoding="utf-8" ?>
<svg baseProfile="tiny" height="157" version="1.2" viewBox="-3 -3 143 157" width="143" xmlns="http://www.w3.org/2000/svg" xmlns:ev="http://www.w3.org/2001/xml-events" xmlns:xlink="http://www.w3.org/1999/xlink"><defs /><path d="M22 155 L48 157 L41 144 L16 141 L19 147 L47 156 L52 153 L23 142 L7 141 L31 150 L49 151 L45 143 L10 134 L18 145 L36 153 L32 143 L10 132 L7 137 L32 148 L50 143 L31 131 L18 128 L26 145 L38 152 L38 141 L25 124 L9 120 L30 132 L56 136 L58 131 L47 121 L35 124 L34 131 L43 131 L47 124 L43 117 L29 118 L47 128 L63 128 L64 120 L45 114 L35 118 L63 129 L69 125 L52 117 L23 112 L19 114 L45 122 L46 117 L20 106 L9 104 L27 111 L43 109 L42 98 L35 90 L34 94 L34 106 L37 109 L50 92 L42 81 L27 76 L33 84 L43 86 L39 74 L27 71 L21 75 L35 81 L54 75 L46 67 L35 65 L34 71 L45 75 L50 75 L39 70 L37 72 L56 73 L72 64 L72 57 L61 61 L54 77 L57 85 L63 83 L64 72 L51 60 L15 70 L24 83 L50 85 L57 76 L45 63 L26 57 L37 63 L56 63 L58 54 L44 43 L41 48 L50 61 L54 61 L49 51 L21 39 L1 39 L0 45 L18 47 L22 39 L20 33 L8 32 L5 41 L30 47 L37 41 L38 32 L31 30 L27 44 L42 54 L50 49 L40 32 L22 22 L20 26 L32 38 L38 38 L39 30 L34 23 L29 23 L35 28 L51 28 L61 21 L61 13 L52 9 L54 17 L72 24 L73 21 L51 9 L15 5 L29 19 L63 28 L72 26 L61 16 L54 16 L74 29 L143 47 L135 37 L103 23 L93 24 L103 41 L118 45 L104 22 L77 2 L74 0 L88 4 L95 7 L92 3 L90 3 " fill="none" stroke="black" /></svg>