<?xml version="1.0" encoding="utf-8" ?>
<svg baseProfile="tiny" height="173" version="1.2" viewBox="-3 -3 720 173" width="720" xmlns="http://www.w3.org/2000/svg" xmlns:ev="http://www.w3.org/2001/xml-events" xmlns:xlink="http://www.w3.org/1999/xlink"><defs /><path d="M338 135 L328 118 L322 109 L319 108 L310 107 L296 107 L278 108 L267 113 L255 119 L241 125 L232 127 L222 131 L216 137 L210 141 L199 142 L190 142 L176 142 L154 137 L146 132 L142 125 L142 117 L144 108 L152 91 L164 81 L192 80 L226 84 L250 92 L273 104 L291 115 L310 125 L341 132 L370 140 L398 148 L431 151 L455 154 L479 156 L507 159 L527 159 L527 160 L529 160 L531 160 L538 159 L545 159 L546 159 L567 158 L593 159 L612 159 L630 154 L652 147 L664 143 L668 141 L675 139 L688 139 L704 139 L707 137 L716 131 L719 124 L719 118 L720 109 L720 105 L703 98 L694 94 L677 90 L642 82 L607 77 L594 76 L570 84 L555 91 L548 100 L532 116 L489 126 L424 123 L396 115 L367 104 L341 92 L320 73 L284 49 L272 38 L261 28 L244 17 L225 9 L217 4 L216 4 L206 4 L198 4 L191 0 L186 0 L183 0 L173 3 L146 15 L112 36 L98 56 L89 71 L81 89 L78 107 L85 132 L90 147 L94 159 L93 166 L88 171 L75 173 L62 173 L42 159 L27 149 L19 144 L11 136 L1 116 L0 107 L1 92 L2 81 L8 75 L27 70 L49 70 L68 71 L75 73 L83 77 L105 88 L118 99 L129 107 L143 117 L169 132 L200 141 L219 140 L239 136 L260 129 L270 121 L285 103 L296 90 L302 80 L311 63 L324 55 L337 48 L370 43 L391 42 L399 42 L406 44 L427 57 L453 68 L473 81 L485 92 L496 102 L517 114 L554 120 L594 123 L615 123 L634 123 L652 123 L675 119 L706 108 L719 104 " fill="none" stroke="black" /></svg>