<?xml version="1.0" encoding="utf-8" ?>
<svg baseProfile="tiny" height="345" version="1.2" viewBox="-3 -3 261 345" width="261" xmlns="http://www.w3.org/2000/svg" xmlns:ev="http://www.w3.org/2001/xml-events" xmlns:xlink="http://www.w3.org/1999/xlink"><defs /><path d="M175 191 L199 192 L210 184 L239 164 L256 150 L261 135 L261 116 L257 96 L244 69 L229 46 L211 29 L187 15 L164 9 L124 1 L108 0 L95 8 L80 16 L69 25 L53 41 L46 55 L40 74 L35 91 L32 107 L31 125 L33 137 L39 157 L45 163 L51 169 L77 185 L100 192 L109 192 L129 196 L159 197 L182 190 L194 182 L215 167 L226 155 L230 143 L232 128 L235 119 L235 102 L232 81 L222 58 L208 39 L181 21 L162 11 L149 7 L121 4 L106 4 L78 8 L66 16 L55 30 L39 50 L35 64 L33 81 L33 104 L34 130 L38 155 L50 203 L65 228 L77 236 L99 245 L143 258 L190 259 L200 249 L206 241 L213 224 L219 181 L221 162 L221 141 L221 129 L221 120 L221 107 L221 99 L218 86 L209 74 L197 62 L176 47 L160 41 L139 34 L117 30 L99 30 L83 35 L72 44 L58 60 L35 90 L29 125 L27 153 L27 180 L30 223 L38 255 L48 274 L59 289 L74 301 L84 302 L105 302 L127 299 L143 291 L160 279 L185 266 L195 251 L201 205 L210 167 L214 153 L218 134 L219 120 L219 109 L218 103 L211 98 L186 86 L159 74 L132 64 L92 56 L68 55 L54 57 L40 64 L22 81 L14 95 L8 121 L3 151 L0 190 L2 227 L11 259 L42 316 L63 340 L71 344 L79 345 L116 338 L157 303 L185 283 L204 261 L216 230 L233 195 L239 178 L241 156 L240 133 L238 127 L226 116 L211 105 L179 83 L158 69 L144 65 L126 63 L110 62 L94 62 L77 62 L65 62 L60 64 L50 66 " fill="none" stroke="black" /></svg>