<?xml version="1.0" encoding="utf-8" ?>
<svg baseProfile="tiny" height="248" version="1.2" viewBox="-3 -3 835 248" width="835" xmlns="http://www.w3.org/2000/svg" xmlns:ev="http://www.w3.org/2001/xml-events" xmlns:xlink="http://www.w3.org/1999/xlink"><defs /><path d="M17 155 L17 152 L17 147 L17 144 L16 139 L15 135 L15 130 L15 117 L14 113 L14 112 L8 112 L1 115 L0 126 L3 138 L7 145 L14 154 L23 163 L30 163 L44 163 L53 155 L63 137 L65 127 L65 116 L64 111 L63 108 L63 107 L62 107 L62 121 L68 135 L79 143 L89 143 L103 139 L119 129 L146 105 L157 87 L157 81 L156 75 L152 65 L150 59 L150 60 L146 82 L152 96 L163 114 L188 140 L224 151 L242 149 L254 141 L264 133 L279 114 L290 95 L292 90 L292 83 L286 68 L279 52 L278 48 L277 49 L277 61 L278 74 L283 96 L297 139 L312 162 L327 171 L334 169 L343 154 L367 120 L384 96 L389 84 L389 80 L388 74 L384 66 L382 61 L382 60 L382 55 L382 52 L382 51 L382 37 L382 32 L382 24 L381 24 L381 27 L382 43 L390 73 L404 109 L409 123 L417 137 L431 141 L447 126 L461 104 L472 88 L481 71 L484 55 L484 47 L483 43 L478 35 L475 31 L474 40 L473 53 L473 66 L477 81 L484 89 L494 92 L514 92 L549 83 L563 69 L576 38 L580 17 L581 6 L581 2 L581 0 L579 8 L571 38 L569 78 L572 134 L583 171 L605 212 L618 221 L634 213 L657 165 L673 120 L683 72 L683 49 L683 41 L681 34 L675 25 L674 21 L674 28 L674 43 L673 76 L681 140 L702 182 L709 191 L724 192 L755 182 L783 163 L814 113 L827 69 L834 30 L835 19 L814 29 L787 58 L778 99 L782 141 L793 179 L804 214 L822 243 L827 247 L830 248 L831 248 L833 248 " fill="none" stroke="black" /></svg>