<?xml version="1.0" encoding="utf-8" ?>
<svg baseProfile="tiny" height="305" version="1.2" viewBox="-3 -3 1198 305" width="1198" xmlns="http://www.w3.org/2000/svg" xmlns:ev="http://www.w3.org/2001/xml-events" xmlns:xlink="http://www.w3.org/1999/xlink"><defs /><path d="M654 166 L752 189 L641 158 L532 130 L657 151 L808 179 L716 161 L640 147 L682 152 L817 169 L744 128 L653 72 L693 43 L810 33 L821 44 L735 75 L734 92 L752 100 L675 85 L538 52 L507 47 L617 53 L637 45 L560 29 L564 37 L735 93 L819 115 L710 81 L658 46 L802 39 L874 43 L819 49 L735 55 L781 58 L882 67 L834 45 L723 24 L719 27 L758 36 L751 37 L737 36 L817 51 L904 68 L645 35 L397 4 L353 0 L475 26 L651 58 L651 59 L649 59 L651 61 L625 57 L512 40 L457 35 L565 55 L611 66 L584 72 L460 68 L341 59 L336 57 L308 48 L426 89 L908 231 L1198 305 L1098 263 L651 144 L423 95 L452 107 L606 138 L634 129 L618 117 L541 99 L214 56 L0 28 L255 44 L568 65 L660 70 L587 65 L409 61 L528 99 L632 117 L633 109 L596 97 L668 102 L685 99 L425 57 L318 42 L439 74 L660 130 L716 145 L707 146 L745 155 L821 168 L829 163 L764 149 L736 143 L753 137 L673 125 L615 116 L641 121 L758 132 L779 139 L723 139 L682 139 L691 139 L699 139 L653 129 L542 105 L541 94 L658 90 L756 93 L720 97 L572 85 L516 81 L631 89 L735 95 L724 98 L608 109 L560 123 L564 131 L568 135 L564 138 L573 148 L633 139 L697 86 L703 33 L672 43 L622 126 L581 214 L581 210 L573 168 L534 91 L454 99 L337 202 L341 252 L410 244 L504 159 L548 59 L537 71 L523 110 L518 143 L543 151 L619 99 L618 65 L508 44 L485 60 L519 79 L564 82 L578 77 " fill="none" stroke="black" /></svg>