<?xml version="1.0" encoding="utf-8" ?>
<svg baseProfile="tiny" height="256" version="1.2" viewBox="-3 -3 1085 256" width="1085" xmlns="http://www.w3.org/2000/svg" xmlns:ev="http://www.w3.org/2001/xml-events" xmlns:xlink="http://www.w3.org/1999/xlink"><defs /><path d="M0 121 L10 122 L37 122 L73 120 L100 113 L116 103 L141 85 L158 72 L166 58 L167 41 L167 26 L167 17 L167 9 L167 1 L166 0 L164 6 L164 12 L164 21 L164 31 L162 49 L162 59 L162 64 L162 69 L162 78 L162 90 L164 96 L166 101 L167 103 L173 105 L197 110 L212 112 L215 112 L227 113 L239 114 L241 115 L266 121 L297 128 L312 132 L328 136 L348 139 L358 139 L367 140 L382 142 L387 142 L392 140 L405 135 L418 126 L422 116 L426 105 L428 97 L430 87 L430 58 L430 49 L430 45 L430 38 L430 31 L429 30 L429 33 L429 37 L427 46 L426 55 L424 65 L422 72 L421 77 L419 88 L418 100 L418 104 L420 111 L424 119 L429 129 L433 132 L440 134 L450 137 L467 141 L482 143 L512 147 L527 149 L542 148 L548 146 L560 144 L578 138 L587 131 L591 125 L597 118 L605 113 L611 106 L616 95 L618 85 L620 78 L622 71 L623 63 L624 57 L624 53 L624 49 L624 46 L624 47 L623 55 L621 71 L619 86 L617 105 L616 116 L616 119 L616 130 L619 137 L621 141 L623 143 L634 149 L646 153 L661 156 L670 158 L674 159 L695 162 L711 165 L727 167 L740 168 L746 169 L756 169 L779 169 L828 170 L840 170 L852 166 L865 159 L877 150 L880 143 L881 134 L881 120 L881 106 L882 88 L883 76 L883 75 L883 85 L882 99 L880 121 L879 135 L877 147 L877 159 L878 164 L880 172 L884 182 L888 190 L892 197 L897 202 L906 208 L921 212 L945 221 L972 230 L1033 246 L1075 254 L1085 256 " fill="none" stroke="black" /></svg>