<?xml version="1.0" encoding="utf-8" ?>
<svg baseProfile="tiny" height="196" version="1.2" viewBox="-3 -3 223 196" width="223" xmlns="http://www.w3.org/2000/svg" xmlns:ev="http://www.w3.org/2001/xml-events" xmlns:xlink="http://www.w3.org/1999/xlink"><defs /><path d="M51 120 L76 76 L79 67 L77 74 L65 104 L60 114 L61 107 L63 76 L48 46 L32 46 L20 75 L26 136 L40 156 L48 153 L45 123 L42 120 L27 133 L6 164 L5 166 L4 151 L0 136 L0 135 L2 143 L31 162 L44 161 L50 139 L50 129 L50 137 L67 179 L86 196 L122 183 L129 154 L129 137 L129 139 L134 150 L189 152 L211 136 L210 119 L185 114 L152 135 L160 178 L185 184 L199 164 L198 140 L186 131 L161 165 L172 191 L199 193 L210 175 L207 161 L183 157 L154 162 L161 163 L170 159 L169 154 L143 148 L109 160 L121 172 L163 173 L183 156 L180 143 L153 137 L130 150 L152 155 L179 150 L184 140 L171 128 L107 125 L103 134 L145 139 L169 138 L171 131 L138 129 L120 142 L153 159 L209 162 L223 143 L180 121 L148 123 L149 137 L176 142 L188 135 L167 111 L92 101 L67 117 L120 145 L188 145 L197 116 L150 90 L123 92 L136 108 L186 117 L208 107 L191 92 L149 89 L148 96 L179 101 L191 93 L175 83 L126 83 L115 99 L155 115 L198 109 L186 86 L133 68 L93 72 L123 94 L160 100 L128 82 L91 75 L122 80 L193 87 L213 81 L190 66 L138 65 L129 74 L162 79 L197 65 L183 44 L131 34 L108 44 L150 56 L174 55 L167 47 L138 41 L152 41 L166 40 L162 32 L134 26 L117 31 L140 44 L161 44 L150 33 L113 23 L97 20 L144 20 L170 6 L151 0 L133 2 L146 21 L178 38 L177 34 L162 23 L151 18 L141 19 L140 25 L140 26 L127 35 L119 41 " fill="none" stroke="black" /></svg>