<?xml version="1.0" encoding="utf-8" ?>
<svg baseProfile="tiny" height="300" version="1.2" viewBox="-3 -3 458 300" width="458" xmlns="http://www.w3.org/2000/svg" xmlns:ev="http://www.w3.org/2001/xml-events" xmlns:xlink="http://www.w3.org/1999/xlink"><defs /><path d="M126 231 L133 224 L135 209 L136 203 L137 206 L141 221 L142 222 L147 205 L150 184 L150 182 L154 199 L160 218 L163 226 L167 231 L170 226 L170 222 L170 231 L172 232 L173 227 L173 218 L173 216 L178 227 L188 241 L192 244 L195 232 L215 199 L237 149 L254 72 L262 18 L265 0 L269 4 L278 31 L291 81 L300 144 L303 186 L304 186 L305 177 L308 187 L313 199 L313 197 L315 205 L323 230 L326 238 L325 224 L318 200 L317 197 L319 214 L319 229 L315 219 L307 207 L295 204 L284 221 L279 233 L277 223 L274 216 L266 218 L242 230 L233 238 L231 238 L209 209 L184 195 L174 195 L171 204 L171 205 L170 202 L165 200 L145 206 L140 209 L137 203 L115 190 L93 193 L76 204 L73 207 L68 204 L49 190 L28 182 L6 193 L0 242 L5 263 L8 260 L10 253 L13 262 L26 273 L43 278 L53 248 L57 233 L59 237 L76 253 L105 265 L116 263 L128 246 L128 255 L131 275 L137 283 L139 268 L139 263 L140 263 L149 273 L171 281 L192 275 L197 266 L203 273 L222 285 L241 287 L253 280 L254 277 L261 277 L271 273 L277 269 L279 279 L289 287 L304 279 L308 270 L309 271 L315 281 L341 270 L358 247 L362 238 L369 235 L397 220 L428 197 L440 188 L442 196 L447 201 L450 203 L450 208 L454 219 L457 225 L458 226 L458 235 L456 243 L448 246 L422 219 L414 202 L409 183 L393 151 L381 142 L367 142 L328 156 L290 190 L266 246 L276 277 L313 296 L346 300 L373 299 L384 298 L390 297 L402 296 L424 296 L434 297 " fill="none" stroke="black" /></svg>