<?xml version="1.0" encoding="utf-8" ?>
<svg baseProfile="tiny" height="49" version="1.2" viewBox="-3 -3 660 49" width="660" xmlns="http://www.w3.org/2000/svg" xmlns:ev="http://www.w3.org/2001/xml-events" xmlns:xlink="http://www.w3.org/1999/xlink"><defs /><path d="M508 29 L531 30 L539 30 " fill="none" stroke="black" /><path d="M508 29 L531 30 L539 30 M22 29 L36 29 L79 29 L130 28 L298 20 L398 16 L453 11 L500 9 L554 9 L599 10 L622 13 L649 17 L660 17 L660 19 L653 20 L649 23 L640 24 L578 22 L534 19 L512 19 L505 19 L481 23 L469 27 L433 33 L386 34 L337 37 L308 41 L285 46 L250 49 L219 47 L198 44 L187 44 L159 44 L136 42 L91 37 L72 35 L68 35 L59 33 L30 31 L9 29 L0 28 L23 28 L59 24 L116 21 L203 16 L242 11 L273 6 L314 3 L365 3 L405 3 L435 2 L455 1 L488 0 L506 0 L519 0 L543 1 L560 4 L563 4 L577 4 L614 7 L637 8 L632 8 L616 11 L583 16 L540 18 L495 19 L478 22 L426 29 L357 28 L313 26 L292 26 L271 29 L248 34 L236 37 L226 38 L209 38 L187 34 L175 33 L145 34 L118 32 L116 32 L105 29 L104 29 L99 29 L85 25 L81 24 L93 24 L126 24 L183 25 L206 25 L230 25 L269 25 L306 25 L360 23 L406 22 L445 22 L465 22 L479 22 L516 22 L534 22 L537 21 L552 21 L569 21 L571 21 L572 21 L563 21 L552 21 L532 21 L505 21 L480 23 L437 25 L401 26 L374 29 L330 33 L303 35 L289 36 L272 37 L249 37 L222 37 L202 38 L189 38 L178 39 L172 39 L162 37 L152 36 L146 35 L141 35 L136 35 L133 35 L144 35 L159 35 L194 35 L234 35 L261 33 L303 31 L342 30 L380 30 L419 30 L454 32 L486 29 L508 26 L530 26 L532 26 L537 26 L551 26 L559 26 " fill="none" stroke="black" /></svg>