<?xml version="1.0" encoding="utf-8" ?>
<svg baseProfile="tiny" height="223" version="1.2" viewBox="-3 -3 618 223" width="618" xmlns="http://www.w3.org/2000/svg" xmlns:ev="http://www.w3.org/2001/xml-events" xmlns:xlink="http://www.w3.org/1999/xlink"><defs /><path d="M261 181 L296 175 L316 163 L324 147 L303 132 L259 129 L241 139 L257 149 L294 148 L309 138 L309 128 L298 127 L290 140 L292 162 L316 180 L354 181 L399 169 L433 159 L434 156 L424 157 L418 174 L427 183 L444 185 L461 171 L464 164 L464 156 L443 153 L426 161 L436 177 L472 182 L497 176 L541 165 L579 158 L571 159 L561 167 L574 171 L595 160 L612 137 L618 122 L592 117 L560 126 L557 134 L562 136 L562 134 L514 124 L459 130 L441 155 L461 164 L470 163 L468 146 L451 129 L410 127 L387 140 L383 146 L394 139 L392 125 L373 111 L326 113 L315 122 L331 128 L352 123 L348 114 L297 107 L270 116 L279 128 L308 130 L312 122 L299 108 L257 105 L218 115 L209 122 L210 120 L200 104 L160 95 L110 98 L98 106 L121 115 L120 115 L92 117 L76 126 L93 139 L119 144 L115 141 L39 133 L0 145 L4 175 L42 204 L46 209 L41 209 L62 209 L105 210 L113 209 L98 200 L93 202 L138 217 L231 223 L244 211 L244 201 L245 201 L275 194 L288 180 L262 158 L242 150 L248 150 L263 148 L245 138 L229 134 L240 137 L291 137 L308 114 L319 76 L320 70 L322 70 L335 70 L339 69 L320 61 L294 55 L305 55 L339 49 L361 41 L337 29 L313 28 L318 32 L339 40 L339 43 L311 46 L304 46 L314 44 L318 43 L310 44 L304 49 L328 61 L350 66 L348 60 L345 54 L335 62 L332 78 L335 81 L338 67 L339 31 L339 21 L337 20 L326 23 L328 23 L344 12 L346 4 L345 0 L345 1 L336 7 " fill="none" stroke="black" /></svg>