<?xml version="1.0" encoding="utf-8" ?>
<svg baseProfile="tiny" height="333" version="1.2" viewBox="-3 -3 324 333" width="324" xmlns="http://www.w3.org/2000/svg" xmlns:ev="http://www.w3.org/2001/xml-events" xmlns:xlink="http://www.w3.org/1999/xlink"><defs /><path d="M235 125 L231 125 L241 122 L260 118 L248 116 L173 107 L159 106 L169 103 L171 103 L172 102 L171 101 L146 99 L130 98 L135 97 L157 96 L154 95 L130 94 L147 95 L139 95 L134 95 L156 95 L170 95 L160 101 L156 103 L168 107 L156 108 L150 112 L133 109 L128 108 L170 105 L182 101 L163 96 L156 97 L178 109 L169 112 L152 116 L149 136 L144 148 L113 147 L92 149 L109 158 L114 161 L109 161 L142 161 L178 158 L156 153 L134 151 L160 154 L186 158 L188 158 L177 158 L189 156 L213 132 L228 108 L222 117 L174 181 L136 184 L111 60 L95 0 L53 17 L33 99 L126 133 L143 123 L105 106 L104 104 L219 108 L244 108 L180 105 L133 109 L263 128 L316 130 L234 116 L186 114 L253 147 L289 162 L287 170 L267 171 L292 168 L314 149 L309 103 L270 91 L182 124 L126 169 L139 171 L171 143 L151 115 L115 112 L129 131 L182 139 L175 105 L103 74 L82 72 L113 78 L131 78 L108 78 L74 94 L109 114 L151 107 L142 83 L71 81 L62 102 L133 126 L163 120 L91 97 L0 105 L21 157 L103 180 L130 163 L134 146 L95 170 L16 288 L42 333 L82 299 L104 177 L106 84 L109 88 L191 147 L324 209 L324 217 L183 191 L161 180 L207 155 L253 141 L242 142 L217 149 L219 149 L215 146 L166 134 L137 131 L148 131 L167 131 L152 131 L122 125 " fill="none" stroke="black" /></svg>