<?xml version="1.0" encoding="utf-8" ?>
<svg baseProfile="tiny" height="307" version="1.2" viewBox="-3 -3 503 307" width="503" xmlns="http://www.w3.org/2000/svg" xmlns:ev="http://www.w3.org/2001/xml-events" xmlns:xlink="http://www.w3.org/1999/xlink"><defs /><path d="M28 226 L48 225 L97 207 L110 179 L111 151 L111 148 L106 150 L81 165 L75 171 L75 177 L84 188 L117 209 L151 217 L183 213 L201 205 L221 198 L237 190 L238 183 L235 178 L229 168 L217 148 L213 144 L204 145 L184 166 L168 206 L168 236 L178 249 L197 254 L227 255 L265 245 L282 220 L283 208 L283 202 L282 197 L280 196 L277 196 L272 200 L266 210 L259 224 L258 252 L282 275 L306 281 L327 282 L355 272 L396 246 L409 234 L411 223 L410 222 L406 221 L389 221 L373 237 L371 257 L372 272 L379 286 L398 300 L425 307 L458 296 L473 280 L479 267 L483 256 L483 245 L475 235 L462 233 L453 244 L452 252 L455 254 L469 254 L489 254 L491 250 L496 227 L503 195 L499 159 L492 129 L479 99 L463 84 L453 84 L442 88 L433 100 L427 119 L424 132 L425 132 L431 131 L433 119 L418 90 L373 52 L350 41 L346 39 L334 38 L306 41 L294 54 L294 64 L295 77 L298 82 L303 83 L318 72 L320 63 L321 55 L294 22 L265 1 L256 0 L236 8 L211 19 L198 38 L194 55 L194 71 L196 75 L197 75 L206 75 L221 70 L224 67 L220 53 L200 21 L192 13 L183 15 L160 24 L111 42 L89 57 L87 71 L87 80 L92 88 L105 92 L112 91 L115 82 L106 58 L79 35 L32 21 L11 21 L3 29 L0 42 L1 58 L19 101 L27 116 L32 132 L34 142 L43 150 L52 151 L57 149 L57 148 " fill="none" stroke="black" /></svg>