<?xml version="1.0" encoding="utf-8" ?>
<svg baseProfile="tiny" height="117" version="1.2" viewBox="-3 -3 677 117" width="677" xmlns="http://www.w3.org/2000/svg" xmlns:ev="http://www.w3.org/2001/xml-events" xmlns:xlink="http://www.w3.org/1999/xlink"><defs /><path d="M114 46 L87 56 L65 75 L56 83 L66 77 L117 65 L142 65 L140 73 L128 84 L128 86 L148 80 L169 70 L161 77 L146 91 L143 95 L167 90 L193 80 L196 79 L191 86 L184 97 L196 93 L223 75 L253 55 L258 52 L256 55 L247 66 L246 67 L262 62 L270 58 L255 73 L247 80 L261 74 L286 60 L307 51 L312 51 L304 63 L304 67 L321 65 L335 53 L347 40 L347 48 L347 57 L372 53 L400 39 L402 37 L389 45 L371 58 L383 59 L438 38 L452 30 L449 32 L436 43 L436 49 L477 49 L544 34 L548 33 L521 42 L502 53 L514 54 L565 33 L577 23 L571 24 L562 36 L562 40 L576 36 L589 26 L589 25 L584 36 L586 39 L602 34 L633 19 L639 17 L635 20 L604 41 L597 45 L612 37 L628 20 L631 17 L637 16 L668 3 L677 0 L666 9 L631 40 L608 66 L631 57 L658 36 L646 37 L592 56 L525 81 L517 83 L533 74 L535 70 L498 81 L459 95 L459 97 L471 94 L467 93 L446 95 L433 96 L442 91 L452 85 L434 89 L380 103 L336 115 L333 116 L341 108 L341 103 L302 100 L286 100 L302 93 L333 81 L340 78 L312 86 L295 97 L295 105 L289 108 L255 115 L249 117 L248 117 L238 116 L213 111 L219 103 L220 93 L188 76 L172 70 L173 70 L146 78 L136 85 L135 91 L130 94 L121 95 L120 95 L138 79 L138 78 L117 78 L99 81 L98 82 L95 84 L81 89 L56 97 L53 99 L49 94 L27 83 L22 81 L25 83 L33 84 L20 91 L5 95 L1 96 L0 96 " fill="none" stroke="black" /></svg>