<?xml version="1.0" encoding="utf-8" ?>
<svg baseProfile="tiny" height="154" version="1.2" viewBox="-3 -3 899 154" width="899" xmlns="http://www.w3.org/2000/svg" xmlns:ev="http://www.w3.org/2001/xml-events" xmlns:xlink="http://www.w3.org/1999/xlink"><defs /><path d="M681 150 L627 123 L581 110 L542 107 L506 107 L454 107 L412 107 L382 112 L355 119 L325 121 L267 115 L234 113 L212 117 L176 125 L148 130 L112 128 L54 108 L22 93 L1 81 L0 65 L1 58 L6 55 L36 55 L87 66 L157 87 L198 99 L238 112 L256 118 L274 121 L292 121 L313 120 L343 112 L377 102 L422 98 L464 97 L503 97 L537 96 L587 86 L629 82 L680 79 L716 78 L744 78 L764 82 L769 89 L770 102 L767 117 L763 120 L759 120 L739 117 L697 108 L637 98 L595 95 L540 95 L480 95 L438 95 L383 95 L339 92 L279 90 L242 90 L217 92 L190 96 L135 91 L63 75 L56 75 L43 81 L22 88 L11 93 L18 103 L36 110 L76 121 L116 128 L162 127 L182 116 L200 102 L240 89 L265 83 L293 74 L340 66 L383 65 L454 55 L508 54 L559 57 L621 74 L665 88 L715 104 L747 107 L771 107 L789 104 L818 103 L881 117 L899 125 L880 137 L858 148 L820 154 L746 145 L640 124 L542 106 L459 93 L379 73 L318 55 L222 35 L194 31 L178 31 L142 34 L120 37 L100 48 L83 55 L68 58 L49 59 L31 64 L21 74 L18 78 L11 79 L11 81 L17 94 L39 106 L103 108 L149 104 L192 99 L217 89 L248 75 L290 57 L313 46 L343 39 L376 31 L415 19 L426 12 L448 1 L482 0 L521 6 L559 19 L585 31 L624 52 L631 56 L631 58 L628 64 L625 70 L623 76 L623 82 L623 83 L634 85 L685 85 L732 87 L793 91 L815 92 L816 92 L816 86 L816 85 L816 84 " fill="none" stroke="black" /></svg>