<?xml version="1.0" encoding="utf-8" ?>
<svg baseProfile="tiny" height="224" version="1.2" viewBox="-3 -3 330 224" width="330" xmlns="http://www.w3.org/2000/svg" xmlns:ev="http://www.w3.org/2001/xml-events" xmlns:xlink="http://www.w3.org/1999/xlink"><defs /><path d="M91 177 L80 174 L63 163 L57 154 L54 145 L52 131 L52 122 L52 113 L53 105 L56 100 L58 94 L59 89 L59 86 L59 79 L52 72 L47 69 L36 66 L9 65 L2 65 L1 65 L0 68 L0 72 L5 79 L9 80 L27 84 L45 88 L51 91 L63 91 L71 88 L78 86 L86 81 L89 72 L89 64 L90 55 L90 49 L90 38 L91 32 L91 30 L95 24 L109 21 L121 20 L124 20 L129 20 L136 24 L139 26 L142 29 L144 33 L146 40 L146 45 L144 48 L137 52 L133 55 L122 47 L117 41 L116 36 L116 27 L118 20 L121 14 L133 3 L144 1 L146 0 L149 1 L164 5 L170 10 L175 14 L184 23 L201 35 L209 42 L215 44 L228 46 L235 46 L239 45 L239 38 L235 25 L223 19 L200 19 L188 20 L182 28 L179 41 L179 48 L179 53 L179 55 L180 56 L191 58 L251 78 L282 86 L284 86 L287 87 L294 89 L295 90 L295 95 L295 101 L290 111 L281 123 L277 129 L268 136 L257 137 L248 132 L240 122 L237 112 L236 98 L238 91 L245 86 L253 82 L258 80 L265 78 L283 79 L287 80 L289 81 L302 86 L316 91 L317 93 L319 96 L326 101 L328 104 L330 110 L330 116 L330 120 L330 125 L327 130 L323 137 L319 144 L311 156 L305 171 L293 177 L271 184 L249 193 L240 197 L239 200 L239 207 L241 217 L245 223 L246 224 L247 224 L256 221 L258 217 L258 213 L258 204 L258 198 L255 194 L248 189 L239 183 L226 180 L216 179 L214 179 L213 181 L209 183 L205 188 L203 191 " fill="none" stroke="black" /></svg>