<?xml version="1.0" encoding="utf-8" ?>
<svg baseProfile="tiny" height="312" version="1.2" viewBox="-3 -3 282 312" width="282" xmlns="http://www.w3.org/2000/svg" xmlns:ev="http://www.w3.org/2001/xml-events" xmlns:xlink="http://www.w3.org/1999/xlink"><defs /><path d="M72 105 L72 99 L74 104 L75 105 L78 94 L81 73 L83 62 L84 64 L88 80 L89 80 L91 70 L92 56 L93 33 L95 8 L95 0 L101 15 L123 71 L140 126 L153 166 L153 157 L153 145 L153 132 L153 123 L153 114 L153 113 L153 142 L151 173 L150 176 L146 145 L138 114 L138 116 L138 117 L138 114 L139 105 L141 98 L141 97 L144 87 L147 71 L147 67 L148 81 L149 94 L149 96 L151 90 L152 72 L152 61 L152 62 L155 75 L156 77 L159 70 L161 61 L161 60 L161 77 L163 115 L164 122 L165 118 L167 104 L167 98 L170 109 L173 121 L172 118 L169 117 L160 122 L151 128 L134 113 L118 88 L110 77 L108 78 L102 89 L98 95 L97 93 L96 91 L94 92 L84 104 L78 113 L77 108 L71 114 L59 139 L51 160 L49 167 L42 158 L32 142 L24 130 L23 119 L22 111 L19 118 L9 150 L1 200 L0 210 L2 206 L17 192 L28 187 L37 202 L47 217 L50 218 L57 203 L65 185 L66 183 L71 202 L79 206 L87 193 L94 169 L94 163 L97 169 L111 189 L130 191 L143 172 L145 156 L145 163 L149 190 L163 209 L174 203 L182 179 L183 167 L184 173 L192 194 L194 200 L196 193 L196 181 L196 179 L196 194 L196 205 L198 190 L198 143 L199 84 L207 37 L207 31 L208 36 L211 99 L211 219 L212 293 L213 312 L215 312 L218 307 L225 301 L237 282 L251 235 L253 203 L254 183 L259 190 L264 211 L264 216 L264 213 L270 213 L272 205 L273 193 L273 189 L274 194 L279 196 L282 186 L282 177 " fill="none" stroke="black" /></svg>