<?xml version="1.0" encoding="utf-8" ?>
<svg baseProfile="tiny" height="330" version="1.2" viewBox="-3 -3 762 330" width="762" xmlns="http://www.w3.org/2000/svg" xmlns:ev="http://www.w3.org/2001/xml-events" xmlns:xlink="http://www.w3.org/1999/xlink"><defs /><path d="M54 0 L57 41 L65 91 L72 120 L90 111 L157 60 L243 6 L250 9 L222 69 L212 123 L221 113 L244 51 L247 39 L247 42 L261 118 L270 157 L280 135 L286 98 L286 89 L284 126 L283 223 L296 264 L323 217 L327 178 L324 177 L315 210 L314 249 L314 242 L312 181 L292 115 L281 118 L270 162 L267 170 L262 117 L235 31 L219 23 L204 72 L202 122 L202 117 L197 71 L197 67 L190 87 L185 117 L185 119 L182 93 L176 71 L146 89 L100 172 L95 186 L95 170 L84 137 L72 126 L56 144 L45 184 L43 168 L35 110 L22 60 L19 55 L17 83 L20 136 L25 138 L30 75 L23 42 L6 51 L0 146 L35 201 L55 177 L61 139 L62 131 L60 153 L73 203 L104 194 L108 160 L108 151 L108 161 L123 196 L146 191 L163 155 L164 153 L158 200 L170 245 L197 233 L201 180 L201 154 L199 198 L213 249 L247 240 L257 194 L257 182 L262 211 L288 231 L309 205 L309 180 L308 187 L306 230 L321 244 L362 184 L372 149 L372 174 L375 236 L384 255 L403 219 L407 199 L407 215 L414 226 L428 209 L431 187 L428 184 L440 236 L458 250 L470 208 L469 166 L468 168 L482 213 L520 226 L524 209 L517 203 L513 209 L531 222 L548 201 L548 190 L549 189 L567 214 L590 224 L591 149 L567 85 L565 91 L582 170 L635 273 L647 262 L626 177 L613 157 L610 203 L665 304 L705 330 L701 302 L696 289 L699 288 L700 288 L701 287 L712 278 L720 268 L720 267 L724 269 L732 272 L748 251 L761 216 L762 213 L760 219 L759 227 " fill="none" stroke="black" /></svg>