<?xml version="1.0" encoding="utf-8" ?>
<svg baseProfile="tiny" height="293" version="1.2" viewBox="-3 -3 749 293" width="749" xmlns="http://www.w3.org/2000/svg" xmlns:ev="http://www.w3.org/2001/xml-events" xmlns:xlink="http://www.w3.org/1999/xlink"><defs /><path d="M0 232 L0 233 L1 233 L3 233 L4 233 L5 233 L10 229 L28 217 L53 189 L79 140 L109 81 L140 29 L153 5 L155 1 L156 0 L156 6 L157 11 L158 14 L161 20 L163 25 L164 29 L168 36 L170 41 L171 46 L174 52 L176 58 L179 62 L181 68 L184 73 L185 78 L188 82 L191 89 L194 94 L196 99 L198 105 L200 109 L202 115 L203 120 L206 126 L210 130 L213 135 L215 139 L218 145 L222 149 L224 154 L228 157 L234 163 L238 168 L242 173 L248 180 L253 185 L257 189 L263 194 L265 197 L268 201 L271 204 L277 209 L282 214 L293 220 L298 223 L302 227 L308 232 L318 237 L323 239 L327 241 L343 245 L366 251 L384 257 L395 261 L400 261 L413 261 L435 262 L453 268 L471 274 L486 280 L507 286 L524 289 L537 292 L543 293 L548 293 L552 293 L564 293 L574 293 L593 293 L609 293 L618 293 L621 293 L622 293 L628 291 L634 290 L639 290 L643 290 L646 290 L648 289 L653 287 L657 284 L662 282 L667 279 L671 274 L679 268 L685 262 L694 255 L701 249 L706 245 L712 237 L717 231 L721 227 L726 222 L730 215 L733 204 L735 199 L737 194 L742 187 L746 181 L747 176 L748 171 L748 166 L749 160 L749 156 L749 152 L749 151 L749 150 L748 145 L747 141 L747 139 " fill="none" stroke="black" /></svg>