<?xml version="1.0" encoding="utf-8" ?>
<svg baseProfile="tiny" height="77" version="1.2" viewBox="-3 -3 49 77" width="49" xmlns="http://www.w3.org/2000/svg" xmlns:ev="http://www.w3.org/2001/xml-events" xmlns:xlink="http://www.w3.org/1999/xlink"><defs /><path d="M12 15 L16 15 L18 13 L19 13 L21 13 L24 15 L24 18 L24 24 L22 28 L20 31 L15 36 L14 36 L13 36 L10 36 L8 33 L8 27 L8 23 L8 20 L10 18 L12 13 L13 11 L14 11 L16 11 L17 15 L17 20 L15 25 L13 27 L12 27 L8 26 L7 15 L8 9 L11 6 L12 6 L13 6 L19 10 L23 16 L23 20 L20 26 L19 28 L15 24 L11 19 L11 13 L13 8 L17 7 L22 7 L26 12 L26 19 L23 24 L17 29 L16 29 L13 29 L10 26 L10 22 L14 18 L16 18 L19 21 L22 24 L23 29 L22 31 L18 33 L16 33 L16 30 L16 26 L17 20 L20 20 L24 28 L28 52 L24 61 L19 62 L11 58 L1 39 L0 31 L5 27 L15 22 L17 22 L17 36 L11 44 L7 45 L7 36 L14 14 L27 2 L34 0 L39 7 L42 27 L33 43 L22 45 L16 42 L13 37 L16 27 L22 21 L31 17 L35 23 L34 46 L23 71 L6 77 L4 73 L4 52 L13 32 L21 28 L27 26 L31 31 L31 37 L28 50 L23 56 L22 46 L25 25 L30 18 L36 34 L32 51 L23 60 L13 60 L11 44 L17 26 L31 14 L48 8 L49 7 L49 16 L33 51 L15 66 L10 63 L9 52 L15 34 L27 24 L32 22 L35 24 L37 32 L37 52 L32 61 L23 64 L15 52 L12 29 L17 11 L21 7 L24 8 L29 21 L27 41 L24 46 L23 46 L20 43 L19 37 L23 30 L24 27 L24 28 L24 32 L22 40 L20 43 L18 45 L17 45 L15 44 L13 43 " fill="none" stroke="black" /></svg>