<?xml version="1.0" encoding="utf-8" ?>
<svg baseProfile="tiny" height="309" version="1.2" viewBox="-3 -3 478 309" width="478" xmlns="http://www.w3.org/2000/svg" xmlns:ev="http://www.w3.org/2001/xml-events" xmlns:xlink="http://www.w3.org/1999/xlink"><defs /><path d="M0 10 L5 5 L11 2 L19 0 L32 0 L39 1 L41 1 L42 1 L48 6 L54 11 L56 12 L60 17 L65 22 L69 27 L73 30 L77 35 L80 37 L82 40 L84 45 L88 51 L94 57 L97 58 L100 61 L102 62 L111 65 L122 69 L125 71 L126 71 L129 73 L131 79 L131 85 L131 88 L131 89 L131 91 L131 94 L132 100 L135 105 L138 111 L142 114 L149 120 L154 125 L158 127 L162 128 L170 127 L186 122 L193 120 L196 120 L202 116 L209 113 L210 113 L212 114 L217 119 L219 123 L220 127 L223 129 L225 134 L226 138 L227 141 L227 144 L227 148 L229 155 L230 160 L231 163 L236 168 L238 171 L243 176 L246 179 L247 181 L248 181 L251 181 L252 181 L266 179 L284 174 L291 171 L294 169 L296 169 L299 169 L304 169 L306 169 L306 170 L310 180 L311 185 L311 188 L311 193 L310 195 L306 201 L305 207 L304 212 L303 218 L303 223 L303 228 L306 233 L310 239 L312 241 L316 241 L320 241 L326 241 L333 241 L338 240 L343 237 L345 237 L348 234 L354 230 L359 225 L365 222 L367 220 L370 220 L371 220 L372 220 L374 220 L378 220 L381 221 L382 222 L384 224 L384 230 L383 234 L383 238 L383 244 L383 249 L382 252 L382 257 L382 264 L384 269 L388 274 L392 278 L395 281 L399 284 L405 289 L407 290 L417 288 L424 283 L427 280 L432 275 L439 270 L442 268 L444 268 L448 268 L456 268 L459 268 L464 272 L466 275 L470 279 L474 285 L477 289 L478 293 L478 296 L478 300 L478 303 L475 308 L475 309 " fill="none" stroke="black" /></svg>