<?xml version="1.0" encoding="utf-8" ?>
<svg baseProfile="tiny" height="123" version="1.2" viewBox="-3 -3 481 123" width="481" xmlns="http://www.w3.org/2000/svg" xmlns:ev="http://www.w3.org/2001/xml-events" xmlns:xlink="http://www.w3.org/1999/xlink"><defs /><path d="M0 123 L4 119 L6 116 L6 115 L7 114 L11 109 L16 104 L22 97 L26 91 L32 78 L36 71 L37 68 L38 64 L42 58 L44 52 L46 48 L50 44 L54 38 L58 32 L63 27 L68 18 L73 12 L76 7 L80 3 L83 2 L84 0 L88 0 L92 3 L96 5 L98 8 L103 11 L108 16 L109 17 L111 19 L113 24 L117 29 L121 34 L124 39 L125 41 L126 41 L126 43 L128 46 L130 48 L131 50 L132 51 L133 54 L134 57 L135 57 L137 58 L138 61 L139 62 L140 62 L141 62 L144 65 L146 66 L148 66 L149 66 L152 66 L154 66 L155 66 L160 62 L162 59 L163 59 L165 59 L166 59 L169 56 L174 54 L176 54 L176 53 L177 53 L179 53 L180 53 L182 53 L183 53 L184 53 L186 53 L188 53 L195 54 L202 57 L203 57 L204 57 L205 57 L206 57 L212 58 L218 59 L224 62 L229 63 L236 65 L241 66 L245 66 L250 67 L253 69 L256 69 L264 69 L280 67 L293 65 L301 62 L313 56 L317 51 L323 45 L328 41 L332 36 L336 33 L338 30 L342 28 L346 27 L348 27 L360 30 L376 36 L380 38 L385 41 L388 42 L390 42 L393 44 L398 46 L400 49 L403 50 L405 52 L406 53 L408 57 L411 62 L414 66 L417 71 L418 74 L419 79 L419 84 L420 88 L421 90 L439 97 L453 101 L458 103 L460 105 L461 105 L464 105 L475 100 L481 97 " fill="none" stroke="black" /></svg>