<?xml version="1.0" encoding="utf-8" ?>
<svg baseProfile="tiny" height="165" version="1.2" viewBox="-3 -3 373 165" width="373" xmlns="http://www.w3.org/2000/svg" xmlns:ev="http://www.w3.org/2001/xml-events" xmlns:xlink="http://www.w3.org/1999/xlink"><defs /><path d="M5 38 L7 38 L11 38 L15 38 L18 38 L23 38 L28 38 L30 38 L31 38 L25 41 L20 46 L15 50 L14 51 L16 51 L17 51 L24 54 L40 58 L56 63 L73 67 L75 67 L74 67 L69 68 L64 69 L58 73 L52 76 L51 79 L50 81 L50 82 L50 84 L53 87 L59 89 L65 90 L73 92 L88 95 L89 95 L86 96 L81 97 L76 98 L71 103 L67 106 L67 107 L71 107 L75 107 L84 111 L90 114 L94 114 L100 116 L104 119 L104 121 L104 125 L101 131 L96 136 L95 137 L96 137 L101 137 L112 138 L139 143 L152 143 L146 143 L140 149 L135 153 L130 158 L128 162 L132 162 L136 162 L150 160 L168 154 L177 149 L181 140 L176 140 L174 142 L173 142 L175 142 L194 132 L207 117 L208 115 L211 126 L212 129 L213 129 L215 129 L219 125 L225 111 L231 90 L232 88 L233 89 L237 95 L240 97 L242 97 L253 76 L257 65 L257 62 L257 65 L260 73 L261 76 L262 76 L270 67 L280 47 L283 42 L284 42 L291 61 L294 65 L295 65 L305 42 L313 21 L314 18 L315 18 L321 32 L326 43 L333 37 L345 15 L352 3 L353 0 L355 0 L359 6 L366 14 L368 11 L373 5 L373 4 " fill="none" stroke="black" /><path d="M5 38 L7 38 L11 38 L15 38 L18 38 L23 38 L28 38 L30 38 L31 38 L25 41 L20 46 L15 50 L14 51 L16 51 L17 51 L24 54 L40 58 L56 63 L73 67 L75 67 L74 67 L69 68 L64 69 L58 73 L52 76 L51 79 L50 81 L50 82 L50 84 L53 87 L59 89 L65 90 L73 92 L88 95 L89 95 L86 96 L81 97 L76 98 L71 103 L67 106 L67 107 L71 107 L75 107 L84 111 L90 114 L94 114 L100 116 L104 119 L104 121 L104 125 L101 131 L96 136 L95 137 L96 137 L101 137 L112 138 L139 143 L152 143 L146 143 L140 149 L135 153 L130 158 L128 162 L132 162 L136 162 L150 160 L168 154 L177 149 L181 140 L176 140 L174 142 L173 142 L175 142 L194 132 L207 117 L208 115 L211 126 L212 129 L213 129 L215 129 L219 125 L225 111 L231 90 L232 88 L233 89 L237 95 L240 97 L242 97 L253 76 L257 65 L257 62 L257 65 L260 73 L261 76 L262 76 L270 67 L280 47 L283 42 L284 42 L291 61 L294 65 L295 65 L305 42 L313 21 L314 18 L315 18 L321 32 L326 43 L333 37 L345 15 L352 3 L353 0 L355 0 L359 6 L366 14 L368 11 L373 5 L373 4 M24 94 L43 74 L63 52 L82 35 L93 28 L104 28 L122 31 L159 46 L205 72 L227 91 L232 101 L235 109 L238 115 L239 117 L239 119 " fill="none" stroke="black" /><path d="M5 38 L7 38 L11 38 L15 38 L18 38 L23 38 L28 38 L30 38 L31 38 L25 41 L20 46 L15 50 L14 51 L16 51 L17 51 L24 54 L40 58 L56 63 L73 67 L75 67 L74 67 L69 68 L64 69 L58 73 L52 76 L51 79 L50 81 L50 82 L50 84 L53 87 L59 89 L65 90 L73 92 L88 95 L89 95 L86 96 L81 97 L76 98 L71 103 L67 106 L67 107 L71 107 L75 107 L84 111 L90 114 L94 114 L100 116 L104 119 L104 121 L104 125 L101 131 L96 136 L95 137 L96 137 L101 137 L112 138 L139 143 L152 143 L146 143 L140 149 L135 153 L130 158 L128 162 L132 162 L136 162 L150 160 L168 154 L177 149 L181 140 L176 140 L174 142 L173 142 L175 142 L194 132 L207 117 L208 115 L211 126 L212 129 L213 129 L215 129 L219 125 L225 111 L231 90 L232 88 L233 89 L237 95 L240 97 L242 97 L253 76 L257 65 L257 62 L257 65 L260 73 L261 76 L262 76 L270 67 L280 47 L283 42 L284 42 L291 61 L294 65 L295 65 L305 42 L313 21 L314 18 L315 18 L321 32 L326 43 L333 37 L345 15 L352 3 L353 0 L355 0 L359 6 L366 14 L368 11 L373 5 L373 4 M24 94 L43 74 L63 52 L82 35 L93 28 L104 28 L122 31 L159 46 L205 72 L227 91 L232 101 L235 109 L238 115 L239 117 L239 119 M0 141 L5 134 L20 118 L40 112 L72 111 L98 114 L119 117 L133 122 L147 128 L160 134 L166 140 L170 146 L173 151 L176 156 L176 161 L176 163 L176 165 " fill="none" stroke="black" /></svg>