<?xml version="1.0" encoding="utf-8" ?>
<svg baseProfile="tiny" height="364" version="1.2" viewBox="-3 -3 497 364" width="497" xmlns="http://www.w3.org/2000/svg" xmlns:ev="http://www.w3.org/2001/xml-events" xmlns:xlink="http://www.w3.org/1999/xlink"><defs /><path d="M0 364 L3 363 L4 363 L5 362 L9 359 L14 357 L19 353 L24 350 L29 346 L32 344 L35 343 L38 339 L44 337 L48 335 L52 332 L55 330 L60 327 L62 324 L66 322 L67 321 L69 320 L73 316 L75 315 L80 312 L84 310 L84 309 L84 308 L87 303 L88 302 L90 301 L92 297 L94 295 L95 294 L98 290 L100 288 L101 287 L102 286 L106 282 L107 281 L109 278 L114 274 L119 269 L123 266 L125 266 L127 263 L130 261 L132 260 L133 259 L135 254 L139 252 L142 248 L146 247 L147 245 L150 241 L154 240 L156 237 L160 233 L162 232 L164 230 L168 227 L171 225 L176 221 L179 220 L182 218 L185 217 L188 215 L191 213 L195 212 L198 211 L202 210 L203 208 L205 207 L208 206 L211 206 L212 205 L216 204 L218 201 L222 199 L225 198 L227 198 L229 197 L230 194 L233 191 L238 189 L241 187 L245 186 L248 183 L256 178 L260 175 L269 168 L275 164 L280 160 L286 155 L296 150 L304 145 L311 140 L316 137 L319 135 L321 135 L321 133 L321 132 L323 129 L328 125 L332 121 L336 117 L338 115 L339 114 L340 114 L343 111 L345 109 L349 105 L350 104 L352 102 L356 98 L358 95 L360 93 L363 89 L365 86 L371 82 L374 77 L382 72 L394 67 L396 66 L398 64 L402 60 L402 59 L406 55 L412 51 L414 48 L416 45 L419 41 L421 40 L423 37 L428 32 L434 27 L435 26 L438 24 L440 23 L449 20 L461 15 L464 14 L469 10 L473 8 L478 7 L483 5 L485 3 L486 2 L492 1 L495 0 L497 0 " fill="none" stroke="black" /></svg>