<?xml version="1.0" encoding="utf-8" ?>
<svg baseProfile="tiny" height="352" version="1.2" viewBox="-3 -3 366 352" width="366" xmlns="http://www.w3.org/2000/svg" xmlns:ev="http://www.w3.org/2001/xml-events" xmlns:xlink="http://www.w3.org/1999/xlink"><defs /><path d="M221 215 L230 204 L249 185 L261 164 L266 142 L260 118 L253 103 L234 85 L211 66 L169 44 L141 38 L131 35 L130 35 L124 35 L100 40 L94 45 L89 50 L77 56 L69 61 L64 67 L58 82 L55 97 L53 109 L58 133 L63 151 L69 171 L75 191 L80 202 L92 219 L104 234 L124 249 L148 260 L187 283 L234 296 L244 296 L246 296 L252 286 L271 267 L279 256 L286 237 L294 220 L298 213 L301 204 L307 183 L309 169 L308 161 L304 144 L300 131 L295 125 L282 107 L270 96 L253 79 L230 62 L207 49 L193 42 L186 39 L184 39 L178 39 L157 35 L133 32 L125 32 L124 31 L108 34 L85 40 L65 46 L49 52 L40 60 L35 66 L30 78 L27 96 L25 115 L30 133 L38 155 L49 178 L62 203 L75 233 L85 254 L100 273 L122 293 L143 311 L164 325 L191 336 L214 342 L235 345 L263 342 L279 333 L296 317 L323 279 L338 255 L350 232 L358 204 L364 176 L366 149 L361 126 L346 105 L327 84 L308 67 L289 56 L284 52 L271 47 L253 38 L238 33 L227 27 L206 20 L187 15 L169 11 L146 5 L129 2 L116 0 L105 0 L100 1 L82 6 L56 13 L51 17 L48 21 L32 32 L14 42 L7 49 L4 60 L0 79 L0 96 L3 114 L5 129 L9 140 L13 154 L19 167 L24 184 L29 198 L36 219 L39 235 L45 251 L49 263 L55 274 L59 280 L63 286 L68 292 L73 300 L80 306 L95 316 L110 327 L114 331 L120 337 L126 344 L130 347 L133 351 L133 352 " fill="none" stroke="black" /></svg>