<?xml version="1.0" encoding="utf-8" ?>
<svg baseProfile="tiny" height="206" version="1.2" viewBox="-3 -3 251 206" width="251" xmlns="http://www.w3.org/2000/svg" xmlns:ev="http://www.w3.org/2001/xml-events" xmlns:xlink="http://www.w3.org/1999/xlink"><defs /><path d="M0 20 L2 20 L19 26 L27 30 L38 40 L57 57 L79 79 L86 89 L88 94 L88 99 L88 104 L88 107 " fill="none" stroke="black" /><path d="M0 20 L2 20 L19 26 L27 30 L38 40 L57 57 L79 79 L86 89 L88 94 L88 99 L88 104 L88 107 M56 12 L72 21 L83 28 L87 32 L92 42 L101 60 L106 68 L110 72 L111 78 L114 91 L114 92 " fill="none" stroke="black" /><path d="M0 20 L2 20 L19 26 L27 30 L38 40 L57 57 L79 79 L86 89 L88 94 L88 99 L88 104 L88 107 M56 12 L72 21 L83 28 L87 32 L92 42 L101 60 L106 68 L110 72 L111 78 L114 91 L114 92 M100 0 L101 0 L114 3 L123 8 L128 14 L134 20 L139 28 L145 42 L149 53 L151 60 L151 64 " fill="none" stroke="black" /><path d="M0 20 L2 20 L19 26 L27 30 L38 40 L57 57 L79 79 L86 89 L88 94 L88 99 L88 104 L88 107 M56 12 L72 21 L83 28 L87 32 L92 42 L101 60 L106 68 L110 72 L111 78 L114 91 L114 92 M100 0 L101 0 L114 3 L123 8 L128 14 L134 20 L139 28 L145 42 L149 53 L151 60 L151 64 M120 161 L121 161 L135 163 L155 169 L170 180 L174 186 L174 196 L174 202 L171 206 L169 206 " fill="none" stroke="black" /><path d="M0 20 L2 20 L19 26 L27 30 L38 40 L57 57 L79 79 L86 89 L88 94 L88 99 L88 104 L88 107 M56 12 L72 21 L83 28 L87 32 L92 42 L101 60 L106 68 L110 72 L111 78 L114 91 L114 92 M100 0 L101 0 L114 3 L123 8 L128 14 L134 20 L139 28 L145 42 L149 53 L151 60 L151 64 M120 161 L121 161 L135 163 L155 169 L170 180 L174 186 L174 196 L174 202 L171 206 L169 206 M155 138 L164 144 L182 155 L192 163 L196 169 L198 175 L198 181 L198 184 " fill="none" stroke="black" /><path d="M0 20 L2 20 L19 26 L27 30 L38 40 L57 57 L79 79 L86 89 L88 94 L88 99 L88 104 L88 107 M56 12 L72 21 L83 28 L87 32 L92 42 L101 60 L106 68 L110 72 L111 78 L114 91 L114 92 M100 0 L101 0 L114 3 L123 8 L128 14 L134 20 L139 28 L145 42 L149 53 L151 60 L151 64 M120 161 L121 161 L135 163 L155 169 L170 180 L174 186 L174 196 L174 202 L171 206 L169 206 M155 138 L164 144 L182 155 L192 163 L196 169 L198 175 L198 181 L198 184 M187 115 L209 121 L222 127 L226 133 L228 143 L229 148 L229 152 L229 158 L227 163 " fill="none" stroke="black" /><path d="M0 20 L2 20 L19 26 L27 30 L38 40 L57 57 L79 79 L86 89 L88 94 L88 99 L88 104 L88 107 M56 12 L72 21 L83 28 L87 32 L92 42 L101 60 L106 68 L110 72 L111 78 L114 91 L114 92 M100 0 L101 0 L114 3 L123 8 L128 14 L134 20 L139 28 L145 42 L149 53 L151 60 L151 64 M120 161 L121 161 L135 163 L155 169 L170 180 L174 186 L174 196 L174 202 L171 206 L169 206 M155 138 L164 144 L182 155 L192 163 L196 169 L198 175 L198 181 L198 184 M187 115 L209 121 L222 127 L226 133 L228 143 L229 148 L229 152 L229 158 L227 163 M52 179 L61 170 L80 158 L106 149 L113 149 L115 149 L122 146 L131 141 L144 123 L150 106 L151 102 L151 101 L153 101 L154 101 L165 87 L172 82 L174 82 L178 85 L184 85 L199 81 L210 76 L215 74 L218 74 L225 70 L242 58 L248 53 L251 51 L251 49 " fill="none" stroke="black" /></svg>