<?xml version="1.0" encoding="utf-8" ?>
<svg baseProfile="tiny" height="291" version="1.2" viewBox="-3 -3 370 291" width="370" xmlns="http://www.w3.org/2000/svg" xmlns:ev="http://www.w3.org/2001/xml-events" xmlns:xlink="http://www.w3.org/1999/xlink"><defs /><path d="M0 291 L1 290 L5 288 L8 285 L14 282 L18 281 L21 278 L25 276 L26 276 L27 276 L30 272 L35 270 L37 268 L39 268 L40 268 L43 265 L46 265 L48 264 L49 263 L55 257 L57 256 L58 256 L63 253 L67 249 L69 248 L71 246 L72 243 L75 243 L78 241 L81 240 L82 237 L84 237 L85 237 L86 235 L89 234 L91 233 L93 232 L94 228 L96 228 L96 227 L97 227 L100 225 L103 222 L106 219 L108 216 L112 213 L114 211 L117 208 L117 207 L118 206 L120 204 L121 200 L122 199 L124 199 L127 194 L131 191 L132 188 L134 187 L136 186 L137 184 L139 182 L140 182 L140 181 L141 179 L145 175 L147 172 L148 170 L151 167 L152 167 L153 165 L154 165 L154 164 L157 164 L160 161 L161 161 L165 157 L171 152 L175 150 L179 149 L181 147 L187 145 L190 143 L191 142 L195 139 L196 139 L197 137 L198 135 L200 133 L201 132 L201 131 L202 130 L204 126 L205 125 L210 121 L214 118 L217 115 L219 113 L223 110 L225 108 L230 104 L233 102 L233 101 L235 99 L236 97 L237 96 L239 94 L242 90 L243 90 L245 88 L249 85 L250 83 L250 82 L251 81 L252 79 L253 79 L254 78 L260 73 L263 71 L266 68 L269 67 L272 65 L274 63 L274 62 L277 61 L283 58 L287 53 L291 49 L296 46 L299 44 L300 44 L303 42 L304 41 L306 40 L310 35 L313 32 L316 29 L317 29 L318 27 L321 23 L325 21 L328 20 L332 19 L337 18 L341 14 L350 10 L358 7 L361 6 L364 3 L366 2 L370 0 " fill="none" stroke="black" /></svg>