<?xml version="1.0" encoding="utf-8" ?>
<svg baseProfile="tiny" height="68" version="1.2" viewBox="-3 -3 481 68" width="481" xmlns="http://www.w3.org/2000/svg" xmlns:ev="http://www.w3.org/2001/xml-events" xmlns:xlink="http://www.w3.org/1999/xlink"><defs /><path d="M0 68 L6 67 L9 64 L13 61 L17 56 L21 53 L24 49 L29 43 L34 39 L40 33 L42 29 L43 28 L45 26 L50 20 L55 17 L55 15 L58 13 L59 12 L62 10 L64 10 L66 7 L71 7 L76 6 L77 6 L80 7 L83 9 L85 11 L87 12 L91 16 L93 18 L95 21 L101 27 L106 32 L109 38 L112 39 L116 44 L120 47 L125 51 L127 52 L128 53 L133 55 L137 58 L140 58 L141 58 L142 58 L144 58 L150 58 L155 58 L162 57 L175 55 L178 53 L182 49 L186 45 L192 41 L197 36 L200 31 L206 25 L210 22 L216 18 L220 14 L225 10 L227 9 L232 7 L236 4 L240 3 L242 2 L246 0 L248 0 L250 0 L251 0 L254 5 L257 8 L258 11 L259 13 L261 16 L262 21 L264 22 L265 25 L266 26 L268 29 L269 32 L272 34 L273 36 L276 38 L280 42 L285 45 L289 48 L293 50 L299 54 L305 56 L306 56 L307 56 L310 56 L311 56 L313 56 L318 56 L324 56 L328 56 L331 56 L335 56 L340 55 L345 55 L350 53 L355 50 L358 50 L361 49 L363 47 L365 46 L367 44 L371 41 L375 37 L379 33 L384 29 L390 23 L393 22 L395 22 L396 22 L397 22 L399 21 L400 21 L402 21 L404 21 L404 20 L410 24 L413 27 L415 28 L418 33 L419 33 L420 35 L430 42 L437 47 L441 49 L442 49 L443 49 L448 51 L449 51 L450 51 L452 51 L455 51 L456 51 L457 51 L459 51 L463 51 L467 51 L470 51 L473 53 L478 53 L479 53 L480 53 L481 53 " fill="none" stroke="black" /></svg>