<?xml version="1.0" encoding="utf-8" ?>
<svg baseProfile="tiny" height="251" version="1.2" viewBox="-3 -3 478 251" width="478" xmlns="http://www.w3.org/2000/svg" xmlns:ev="http://www.w3.org/2001/xml-events" xmlns:xlink="http://www.w3.org/1999/xlink"><defs /><path d="M0 244 L3 245 L11 249 L15 250 L20 250 L24 251 L30 251 L33 251 L34 251 L35 251 L38 251 L41 251 L44 251 L47 251 L51 249 L55 243 L63 235 L73 227 L76 224 L76 226 L76 229 L76 231 L76 235 L79 229 L85 211 L88 206 L89 203 L89 202 L90 206 L91 210 L91 214 L91 216 L92 216 L95 212 L99 194 L103 182 L104 180 L104 181 L104 186 L104 189 L106 193 L106 194 L106 195 L107 195 L108 195 L110 194 L117 184 L124 164 L128 154 L129 153 L129 151 L131 150 L131 157 L130 165 L130 172 L131 176 L131 177 L139 168 L145 160 L149 154 L154 148 L157 144 L160 141 L159 141 L158 145 L156 147 L155 153 L155 154 L156 151 L158 146 L161 140 L162 140 L163 140 L169 139 L175 139 L181 139 L182 139 L185 139 L191 137 L192 137 L194 135 L199 130 L204 124 L206 118 L210 115 L212 111 L217 107 L219 102 L219 107 L219 110 L219 113 L221 113 L226 113 L231 111 L235 111 L239 110 L245 109 L248 109 L249 109 L251 109 L252 109 L255 109 L256 109 L262 104 L266 96 L269 90 L273 84 L274 81 L274 79 L277 74 L280 71 L282 69 L287 69 L307 64 L313 63 L314 63 L315 63 L316 61 L321 55 L326 48 L329 44 L333 41 L333 44 L335 49 L339 53 L340 53 L341 53 L343 53 L351 49 L357 46 L363 43 L366 42 L371 37 L377 30 L385 19 L390 13 L393 8 L396 5 L397 5 L402 7 L408 15 L411 18 L412 19 L420 18 L451 11 L469 6 L473 2 L478 0 " fill="none" stroke="black" /></svg>