<?xml version="1.0" encoding="utf-8" ?>
<svg baseProfile="tiny" height="336" version="1.2" viewBox="-3 -3 580 336" width="580" xmlns="http://www.w3.org/2000/svg" xmlns:ev="http://www.w3.org/2001/xml-events" xmlns:xlink="http://www.w3.org/1999/xlink"><defs /><path d="M0 6 L3 2 L9 0 L15 0 L19 0 L24 1 L25 2 L30 7 L34 10 L40 16 L45 21 L50 26 L54 29 L54 30 L57 33 L61 37 L66 42 L71 47 L73 50 L76 55 L81 61 L84 64 L88 68 L91 72 L96 77 L100 82 L102 86 L105 91 L108 94 L109 98 L110 99 L113 103 L117 107 L123 113 L128 118 L130 119 L130 120 L131 120 L135 124 L139 126 L141 127 L146 131 L150 136 L154 139 L156 143 L159 145 L160 146 L163 150 L168 154 L173 159 L177 164 L182 168 L187 173 L191 178 L194 181 L196 181 L196 182 L197 182 L200 186 L205 189 L210 193 L214 196 L220 201 L226 206 L231 209 L237 213 L240 214 L244 215 L250 217 L259 221 L265 226 L273 232 L278 234 L283 237 L286 238 L300 242 L305 244 L309 246 L315 247 L319 249 L323 253 L329 256 L331 258 L332 260 L334 260 L335 261 L342 266 L348 270 L353 274 L356 275 L356 276 L357 276 L359 276 L360 276 L367 280 L373 283 L381 287 L388 288 L392 289 L394 289 L402 292 L407 293 L409 294 L412 294 L414 295 L419 298 L426 300 L430 303 L435 305 L441 307 L446 307 L450 307 L456 308 L457 308 L458 308 L460 308 L465 308 L477 312 L484 315 L490 317 L491 317 L492 317 L499 321 L510 325 L512 326 L513 326 L515 326 L518 326 L527 328 L533 330 L537 330 L543 330 L551 331 L553 331 L555 331 L556 331 L557 331 L566 332 L575 335 L579 336 L580 336 " fill="none" stroke="black" /></svg>