<?xml version="1.0" encoding="utf-8" ?>
<svg baseProfile="tiny" height="134" version="1.2" viewBox="-3 -3 470 134" width="470" xmlns="http://www.w3.org/2000/svg" xmlns:ev="http://www.w3.org/2001/xml-events" xmlns:xlink="http://www.w3.org/1999/xlink"><defs /><path d="M16 5 L24 2 L29 1 L34 0 L37 1 L49 6 L57 8 L62 8 L69 6 L72 6 L75 6 L83 10 L91 11 L107 9 L124 3 L127 3 L128 3 L129 3 L142 4 L154 12 L169 24 L178 28 L184 27 L203 20 L223 14 L233 11 L248 11 L266 15 L273 19 L278 22 L282 25 L296 26 L323 24 L344 22 L349 22 L353 24 L365 24 L421 13 L464 9 L467 11 L468 12 L470 12 " fill="none" stroke="black" /><path d="M16 5 L24 2 L29 1 L34 0 L37 1 L49 6 L57 8 L62 8 L69 6 L72 6 L75 6 L83 10 L91 11 L107 9 L124 3 L127 3 L128 3 L129 3 L142 4 L154 12 L169 24 L178 28 L184 27 L203 20 L223 14 L233 11 L248 11 L266 15 L273 19 L278 22 L282 25 L296 26 L323 24 L344 22 L349 22 L353 24 L365 24 L421 13 L464 9 L467 11 L468 12 L470 12 M11 66 L14 65 L25 54 L34 49 L63 60 L87 80 L92 84 L93 84 L105 74 L118 67 L121 67 L123 68 L136 74 L146 74 L172 71 L183 71 L184 71 L185 71 L194 70 L215 66 L222 66 L231 72 L238 75 L241 75 L256 63 L280 60 L281 60 L282 60 L287 60 L296 58 L302 55 L304 55 L308 57 L312 61 L314 61 L315 61 L322 67 L335 75 L336 75 L347 74 L360 71 L363 71 L365 71 L369 71 L391 67 L412 60 L413 60 L410 58 " fill="none" stroke="black" /><path d="M16 5 L24 2 L29 1 L34 0 L37 1 L49 6 L57 8 L62 8 L69 6 L72 6 L75 6 L83 10 L91 11 L107 9 L124 3 L127 3 L128 3 L129 3 L142 4 L154 12 L169 24 L178 28 L184 27 L203 20 L223 14 L233 11 L248 11 L266 15 L273 19 L278 22 L282 25 L296 26 L323 24 L344 22 L349 22 L353 24 L365 24 L421 13 L464 9 L467 11 L468 12 L470 12 M11 66 L14 65 L25 54 L34 49 L63 60 L87 80 L92 84 L93 84 L105 74 L118 67 L121 67 L123 68 L136 74 L146 74 L172 71 L183 71 L184 71 L185 71 L194 70 L215 66 L222 66 L231 72 L238 75 L241 75 L256 63 L280 60 L281 60 L282 60 L287 60 L296 58 L302 55 L304 55 L308 57 L312 61 L314 61 L315 61 L322 67 L335 75 L336 75 L347 74 L360 71 L363 71 L365 71 L369 71 L391 67 L412 60 L413 60 L410 58 M0 118 L4 109 L13 95 L15 92 L21 94 L38 106 L46 111 L52 112 L58 108 L64 104 L70 105 L96 124 L116 132 L130 132 L156 114 L169 106 L170 106 L172 106 L176 106 L197 103 L210 108 L220 124 L221 125 L231 120 L274 100 L295 98 L300 106 L306 113 L307 116 L309 117 L314 122 L317 123 L320 123 L330 126 L336 129 L342 131 L356 131 L371 127 L375 124 L377 120 L378 120 L379 120 L385 126 L388 127 L389 127 L390 128 L395 132 L401 134 L402 134 L413 129 L429 119 L436 114 L437 113 " fill="none" stroke="black" /></svg>