<?xml version="1.0" encoding="utf-8" ?>
<svg baseProfile="tiny" height="193" version="1.2" viewBox="-3 -3 275 193" width="275" xmlns="http://www.w3.org/2000/svg" xmlns:ev="http://www.w3.org/2001/xml-events" xmlns:xlink="http://www.w3.org/1999/xlink"><defs /><path d="M0 49 L4 43 L9 37 L12 32 L18 26 L25 17 L29 12 L34 6 L39 2 L43 0 L48 0 L52 1 L54 4 L59 12 L66 26 L74 42 L80 57 L87 71 L89 77 L89 84 L87 90 L84 95 L80 97 L77 97 L75 97 L72 97 L72 93 L74 86 L76 80 L78 73 L81 68 L83 61 L86 57 L87 55 L89 51 L91 49 L93 45 L96 44 L96 43 L97 43 L98 43 L100 43 L103 43 L107 43 L111 43 L116 43 L123 47 L129 52 L137 57 L144 63 L148 67 L152 75 L155 83 L155 88 L153 89 L151 89 L150 89 L148 89 L146 89 L145 89 L144 80 L144 74 L146 68 L151 63 L152 60 L155 59 L156 59 L157 59 L159 59 L160 59 L162 59 L163 59 L164 59 L165 59 L167 59 L171 59 L176 61 L179 64 L181 65 L184 67 L187 71 L193 76 L199 89 L201 95 L202 102 L202 107 L199 112 L195 116 L194 118 L193 117 L193 104 L199 93 L203 82 L206 76 L209 76 L212 76 L213 76 L213 77 L217 82 L220 87 L223 90 L225 96 L226 100 L227 102 L228 107 L228 115 L230 123 L230 131 L230 136 L230 140 L225 145 L221 150 L220 150 L219 150 L216 150 L212 142 L212 137 L214 130 L217 127 L218 125 L218 124 L219 124 L221 124 L225 124 L226 124 L229 127 L233 130 L239 135 L243 138 L249 144 L253 148 L255 152 L257 156 L260 159 L262 164 L266 169 L268 175 L269 177 L270 177 L271 179 L272 183 L274 185 L275 186 L275 189 L275 190 L275 191 L275 192 L275 193 " fill="none" stroke="black" /></svg>