<?xml version="1.0" encoding="utf-8" ?>
<svg baseProfile="tiny" height="119" version="1.2" viewBox="-3 -3 533 119" width="533" xmlns="http://www.w3.org/2000/svg" xmlns:ev="http://www.w3.org/2001/xml-events" xmlns:xlink="http://www.w3.org/1999/xlink"><defs /><path d="M1 101 L6 93 L23 80 L26 76 L31 96 L34 105 L35 105 L62 72 L79 49 L79 48 L84 63 L88 71 L89 71 L95 56 L97 54 L123 107 L126 108 L131 92 L139 58 L140 56 L145 74 L145 87 L145 81 L152 48 L156 62 L162 108 L160 117 L162 105 L173 86 L174 86 L176 89 L183 97 L184 98 L191 87 L211 62 L216 56 L217 59 L222 86 L225 89 L231 81 L262 32 L278 20 L280 38 L278 62 L278 64 L282 41 L285 37 L298 70 L299 71 L301 64 L313 21 L316 18 L317 19 L323 39 L329 25 L334 22 L335 26 L350 59 L355 61 L358 48 L364 20 L366 18 L369 26 L373 34 L374 34 L376 34 L381 26 L381 42 L381 46 L382 46 L385 39 L389 35 L390 35 L394 51 L394 53 L396 53 L403 12 L407 0 L409 14 L417 62 L420 66 L421 66 L426 61 L427 61 L428 62 L431 67 L432 67 L444 64 L448 69 L455 81 L459 84 L460 84 L483 55 L492 49 L492 67 L495 83 L495 84 L499 79 L503 73 L503 74 L516 63 L517 62 L518 70 L524 83 L525 84 L526 84 L533 77 " fill="none" stroke="black" /><path d="M1 101 L6 93 L23 80 L26 76 L31 96 L34 105 L35 105 L62 72 L79 49 L79 48 L84 63 L88 71 L89 71 L95 56 L97 54 L123 107 L126 108 L131 92 L139 58 L140 56 L145 74 L145 87 L145 81 L152 48 L156 62 L162 108 L160 117 L162 105 L173 86 L174 86 L176 89 L183 97 L184 98 L191 87 L211 62 L216 56 L217 59 L222 86 L225 89 L231 81 L262 32 L278 20 L280 38 L278 62 L278 64 L282 41 L285 37 L298 70 L299 71 L301 64 L313 21 L316 18 L317 19 L323 39 L329 25 L334 22 L335 26 L350 59 L355 61 L358 48 L364 20 L366 18 L369 26 L373 34 L374 34 L376 34 L381 26 L381 42 L381 46 L382 46 L385 39 L389 35 L390 35 L394 51 L394 53 L396 53 L403 12 L407 0 L409 14 L417 62 L420 66 L421 66 L426 61 L427 61 L428 62 L431 67 L432 67 L444 64 L448 69 L455 81 L459 84 L460 84 L483 55 L492 49 L492 67 L495 83 L495 84 L499 79 L503 73 L503 74 L516 63 L517 62 L518 70 L524 83 L525 84 L526 84 L533 77 M0 119 L3 119 L10 113 L43 91 L79 76 L80 77 L86 88 L88 90 L90 90 L123 72 L168 55 L172 68 L178 92 L183 94 L184 94 L210 72 L221 69 L223 71 L224 75 L228 75 L246 60 L264 51 L266 51 L276 61 L290 75 L291 75 L310 57 L326 48 L329 52 L332 52 " fill="none" stroke="black" /></svg>