<?xml version="1.0" encoding="utf-8" ?>
<svg baseProfile="tiny" height="307" version="1.2" viewBox="-3 -3 373 307" width="373" xmlns="http://www.w3.org/2000/svg" xmlns:ev="http://www.w3.org/2001/xml-events" xmlns:xlink="http://www.w3.org/1999/xlink"><defs /><path d="M0 307 L5 303 L9 300 L22 294 L26 290 L29 287 L30 285 L33 283 L36 279 L38 274 L44 267 L49 256 L54 248 L58 242 L60 236 L64 230 L66 226 L66 223 L67 220 L68 215 L71 210 L72 207 L74 201 L74 199 L75 195 L75 193 L75 198 L77 211 L77 215 L79 221 L80 225 L81 226 L84 228 L86 231 L87 234 L92 237 L95 237 L99 239 L100 239 L101 239 L105 239 L108 239 L113 238 L118 234 L123 229 L126 226 L128 225 L132 222 L136 217 L140 212 L144 207 L150 201 L151 200 L152 200 L152 199 L155 195 L158 192 L162 187 L167 184 L171 179 L174 176 L176 174 L177 172 L178 172 L181 170 L184 165 L188 162 L189 159 L190 159 L193 156 L197 152 L198 150 L202 146 L204 143 L205 142 L206 141 L212 136 L217 132 L219 131 L221 128 L223 125 L224 125 L226 125 L227 123 L230 119 L232 116 L233 114 L234 111 L238 108 L239 107 L242 104 L244 102 L247 100 L251 96 L253 94 L256 91 L256 90 L258 89 L261 87 L262 87 L262 86 L266 81 L269 75 L273 70 L274 68 L275 66 L278 64 L282 60 L286 55 L289 50 L290 47 L291 45 L293 43 L294 41 L300 35 L301 34 L303 34 L304 34 L305 34 L310 28 L312 26 L315 22 L318 19 L322 19 L325 19 L326 19 L328 19 L329 19 L330 19 L331 19 L332 19 L333 19 L335 19 L337 19 L344 19 L345 17 L348 15 L349 15 L352 12 L353 12 L355 11 L356 11 L357 11 L358 11 L359 10 L364 6 L369 4 L371 3 L373 1 L373 0 " fill="none" stroke="black" /></svg>