<?xml version="1.0" encoding="utf-8" ?>
<svg baseProfile="tiny" height="342" version="1.2" viewBox="-3 -3 298 342" width="298" xmlns="http://www.w3.org/2000/svg" xmlns:ev="http://www.w3.org/2001/xml-events" xmlns:xlink="http://www.w3.org/1999/xlink"><defs /><path d="M60 93 L69 80 L74 72 L83 64 L89 57 L93 52 L95 48 " fill="none" stroke="black" /><path d="M60 93 L69 80 L74 72 L83 64 L89 57 L93 52 L95 48 M46 136 L46 137 L54 137 L61 136 L84 130 L103 124 L118 118 L124 111 L130 92 L134 72 L136 52 L136 40 L136 34 L135 31 " fill="none" stroke="black" /><path d="M60 93 L69 80 L74 72 L83 64 L89 57 L93 52 L95 48 M46 136 L46 137 L54 137 L61 136 L84 130 L103 124 L118 118 L124 111 L130 92 L134 72 L136 52 L136 40 L136 34 L135 31 M44 188 L46 188 L60 188 L97 186 L137 179 L145 177 L157 173 L174 162 L185 109 L187 54 L183 26 L182 10 L182 1 L182 0 " fill="none" stroke="black" /><path d="M60 93 L69 80 L74 72 L83 64 L89 57 L93 52 L95 48 M46 136 L46 137 L54 137 L61 136 L84 130 L103 124 L118 118 L124 111 L130 92 L134 72 L136 52 L136 40 L136 34 L135 31 M44 188 L46 188 L60 188 L97 186 L137 179 L145 177 L157 173 L174 162 L185 109 L187 54 L183 26 L182 10 L182 1 L182 0 M53 254 L55 254 L77 257 L109 259 L145 259 L161 259 L167 251 L174 225 L186 184 L198 167 L203 157 L205 152 L209 145 L213 130 L219 116 L223 109 L223 106 " fill="none" stroke="black" /><path d="M60 93 L69 80 L74 72 L83 64 L89 57 L93 52 L95 48 M46 136 L46 137 L54 137 L61 136 L84 130 L103 124 L118 118 L124 111 L130 92 L134 72 L136 52 L136 40 L136 34 L135 31 M44 188 L46 188 L60 188 L97 186 L137 179 L145 177 L157 173 L174 162 L185 109 L187 54 L183 26 L182 10 L182 1 L182 0 M53 254 L55 254 L77 257 L109 259 L145 259 L161 259 L167 251 L174 225 L186 184 L198 167 L203 157 L205 152 L209 145 L213 130 L219 116 L223 109 L223 106 M79 331 L87 331 L110 334 L138 340 L159 342 L194 336 L231 327 L255 319 L279 299 L294 272 L298 242 L293 202 L287 176 L281 158 L275 145 L273 134 L268 120 L267 115 " fill="none" stroke="black" /><path d="M60 93 L69 80 L74 72 L83 64 L89 57 L93 52 L95 48 M46 136 L46 137 L54 137 L61 136 L84 130 L103 124 L118 118 L124 111 L130 92 L134 72 L136 52 L136 40 L136 34 L135 31 M44 188 L46 188 L60 188 L97 186 L137 179 L145 177 L157 173 L174 162 L185 109 L187 54 L183 26 L182 10 L182 1 L182 0 M53 254 L55 254 L77 257 L109 259 L145 259 L161 259 L167 251 L174 225 L186 184 L198 167 L203 157 L205 152 L209 145 L213 130 L219 116 L223 109 L223 106 M79 331 L87 331 L110 334 L138 340 L159 342 L194 336 L231 327 L255 319 L279 299 L294 272 L298 242 L293 202 L287 176 L281 158 L275 145 L273 134 L268 120 L267 115 M0 25 L1 25 L3 25 L4 25 L6 25 L7 25 L9 25 L11 25 L11 26 L14 29 L18 33 L21 39 L21 44 L21 49 L21 50 L21 51 L23 54 L32 54 L39 54 L45 54 L51 54 L54 54 L54 59 L56 65 L54 70 L51 76 L44 84 L41 88 L40 89 L36 94 L34 99 L34 105 L34 108 L36 109 L44 113 L48 117 L52 117 L58 117 L62 117 L63 117 L69 117 L76 115 L80 115 L81 115 L83 118 L88 122 L91 125 L94 128 L96 134 L96 139 L92 143 L86 149 L79 155 L73 161 L73 162 L73 163 L73 167 L73 168 L77 170 L81 175 L86 180 L97 186 L101 190 L108 193 L121 195 L139 198 L151 200 L153 200 L154 200 L155 202 L167 206 L172 210 L173 211 L175 219 L176 223 L176 228 L175 234 L173 235 L173 236 L172 236 " fill="none" stroke="black" /></svg>