<?xml version="1.0" encoding="utf-8" ?>
<svg baseProfile="tiny" height="96" version="1.2" viewBox="-3 -3 282 96" width="282" xmlns="http://www.w3.org/2000/svg" xmlns:ev="http://www.w3.org/2001/xml-events" xmlns:xlink="http://www.w3.org/1999/xlink"><defs /><path d="M0 17 L3 28 L7 35 L12 46 L17 53 L25 63 L39 75 L45 80 L51 81 L55 82 L66 77 L87 68 L92 64 L94 56 L97 33 L98 11 L97 6 L93 3 L89 2 L88 0 L86 0 L85 4 L82 18 L81 44 L81 61 L81 79 L81 91 L84 94 L85 96 L86 96 L87 96 L89 96 L93 96 L99 94 L106 89 L111 85 L125 76 L135 69 L139 65 L146 51 L152 35 L156 27 L156 21 L156 16 L156 15 L155 15 L153 11 L152 9 L150 9 L147 10 L144 13 L140 19 L139 24 L137 28 L136 38 L136 46 L134 50 L134 59 L135 63 L137 68 L140 68 L143 68 L145 68 L147 68 L151 68 L157 68 L160 67 L166 63 L171 60 L177 54 L181 49 L185 45 L191 36 L192 31 L192 27 L192 19 L192 15 L192 12 L191 12 L188 12 L186 12 L185 12 L181 12 L181 13 L180 18 L177 30 L173 46 L172 55 L172 59 L172 60 L176 62 L180 64 L184 64 L195 67 L204 70 L208 72 L214 72 L219 74 L224 73 L231 70 L236 64 L241 56 L245 49 L245 47 L245 40 L247 33 L247 28 L247 24 L246 20 L246 19 L245 19 L244 19 L243 19 L242 19 L241 19 L239 19 L237 22 L235 25 L230 35 L224 51 L221 62 L221 67 L221 69 L222 69 L224 69 L225 69 L227 71 L231 72 L231 73 L233 73 L234 73 L236 73 L239 73 L241 73 L243 73 L247 75 L248 75 L249 75 L253 75 L256 75 L261 75 L265 73 L268 72 L272 67 L275 63 L276 62 L278 56 L281 53 L282 52 L282 51 " fill="none" stroke="black" /></svg>