<?xml version="1.0" encoding="utf-8" ?>
<svg baseProfile="tiny" height="118" version="1.2" viewBox="-3 -3 119 118" width="119" xmlns="http://www.w3.org/2000/svg" xmlns:ev="http://www.w3.org/2001/xml-events" xmlns:xlink="http://www.w3.org/1999/xlink"><defs /><path d="M32 11 L30 11 L26 11 L22 11 L19 13 L16 15 L13 19 L10 21 L7 25 L5 28 L4 34 L3 40 L2 43 L1 43 L1 45 L1 50 L0 59 L0 71 L0 78 L0 83 L1 84 L2 86 L6 88 L9 92 L14 97 L18 101 L28 106 L37 112 L43 115 L51 116 L58 116 L68 116 L74 117 L80 118 L90 115 L94 113 L99 110 L105 104 L110 99 L113 92 L115 88 L117 86 L118 85 L119 83 L119 80 L119 72 L119 65 L119 61 L118 59 L115 51 L109 39 L105 34 L101 29 L99 22 L96 14 L92 8 L88 5 L85 4 L81 2 L78 0 L74 0 L70 0 L67 0 L63 0 L59 0 L55 0 L52 0 L50 0 L48 1 L46 1 L45 2 L41 6 L38 8 L36 9 L35 9 L34 11 L32 11 L32 12 L32 9 " fill="none" stroke="black" /></svg>