<?xml version="1.0" encoding="utf-8" ?>
<svg baseProfile="tiny" height="111" version="1.2" viewBox="-3 -3 113 111" width="113" xmlns="http://www.w3.org/2000/svg" xmlns:ev="http://www.w3.org/2001/xml-events" xmlns:xlink="http://www.w3.org/1999/xlink"><defs /><path d="M0 57 L0 58 L3 58 L4 59 L8 61 L11 63 L14 65 L16 66 L17 68 L18 73 L18 78 L18 83 L18 84 " fill="none" stroke="black" /><path d="M0 57 L0 58 L3 58 L4 59 L8 61 L11 63 L14 65 L16 66 L17 68 L18 73 L18 78 L18 83 L18 84 M4 42 L5 42 L12 45 L21 48 L27 50 L31 52 L32 56 L32 59 L32 62 L32 65 L32 68 L32 70 L32 71 L32 72 L32 74 L32 75 L32 76 L32 77 L31 79 " fill="none" stroke="black" /><path d="M0 57 L0 58 L3 58 L4 59 L8 61 L11 63 L14 65 L16 66 L17 68 L18 73 L18 78 L18 83 L18 84 M4 42 L5 42 L12 45 L21 48 L27 50 L31 52 L32 56 L32 59 L32 62 L32 65 L32 68 L32 70 L32 71 L32 72 L32 74 L32 75 L32 76 L32 77 L31 79 M10 14 L13 14 L22 16 L30 18 L35 22 L40 24 L41 26 L45 31 L47 37 L50 41 L51 45 L52 48 L53 53 L53 59 L53 66 L53 72 L52 78 L51 86 L50 88 " fill="none" stroke="black" /><path d="M0 57 L0 58 L3 58 L4 59 L8 61 L11 63 L14 65 L16 66 L17 68 L18 73 L18 78 L18 83 L18 84 M4 42 L5 42 L12 45 L21 48 L27 50 L31 52 L32 56 L32 59 L32 62 L32 65 L32 68 L32 70 L32 71 L32 72 L32 74 L32 75 L32 76 L32 77 L31 79 M10 14 L13 14 L22 16 L30 18 L35 22 L40 24 L41 26 L45 31 L47 37 L50 41 L51 45 L52 48 L53 53 L53 59 L53 66 L53 72 L52 78 L51 86 L50 88 M23 0 L24 0 L32 0 L39 0 L48 3 L56 11 L60 18 L65 29 L66 34 L68 40 L68 45 L68 50 L67 58 L66 62 L65 64 L65 65 " fill="none" stroke="black" /><path d="M0 57 L0 58 L3 58 L4 59 L8 61 L11 63 L14 65 L16 66 L17 68 L18 73 L18 78 L18 83 L18 84 M4 42 L5 42 L12 45 L21 48 L27 50 L31 52 L32 56 L32 59 L32 62 L32 65 L32 68 L32 70 L32 71 L32 72 L32 74 L32 75 L32 76 L32 77 L31 79 M10 14 L13 14 L22 16 L30 18 L35 22 L40 24 L41 26 L45 31 L47 37 L50 41 L51 45 L52 48 L53 53 L53 59 L53 66 L53 72 L52 78 L51 86 L50 88 M23 0 L24 0 L32 0 L39 0 L48 3 L56 11 L60 18 L65 29 L66 34 L68 40 L68 45 L68 50 L67 58 L66 62 L65 64 L65 65 M24 97 L25 97 L28 97 L30 97 L32 95 L39 90 L46 85 L58 80 L67 78 L77 78 L82 75 L84 74 " fill="none" stroke="black" /><path d="M0 57 L0 58 L3 58 L4 59 L8 61 L11 63 L14 65 L16 66 L17 68 L18 73 L18 78 L18 83 L18 84 M4 42 L5 42 L12 45 L21 48 L27 50 L31 52 L32 56 L32 59 L32 62 L32 65 L32 68 L32 70 L32 71 L32 72 L32 74 L32 75 L32 76 L32 77 L31 79 M10 14 L13 14 L22 16 L30 18 L35 22 L40 24 L41 26 L45 31 L47 37 L50 41 L51 45 L52 48 L53 53 L53 59 L53 66 L53 72 L52 78 L51 86 L50 88 M23 0 L24 0 L32 0 L39 0 L48 3 L56 11 L60 18 L65 29 L66 34 L68 40 L68 45 L68 50 L67 58 L66 62 L65 64 L65 65 M24 97 L25 97 L28 97 L30 97 L32 95 L39 90 L46 85 L58 80 L67 78 L77 78 L82 75 L84 74 M28 111 L32 108 L42 103 L53 101 L60 101 L72 99 L94 97 L113 96 " fill="none" stroke="black" /></svg>