<?xml version="1.0" encoding="utf-8" ?>
<svg baseProfile="tiny" height="149" version="1.2" viewBox="-3 -3 98 149" width="98" xmlns="http://www.w3.org/2000/svg" xmlns:ev="http://www.w3.org/2001/xml-events" xmlns:xlink="http://www.w3.org/1999/xlink"><defs /><circle cx="13" cy="86" fill="black" r="1" /><circle cx="41" cy="72" fill="black" r="1" /><circle cx="41" cy="92" fill="black" r="1" /><circle cx="22" cy="69" fill="black" r="1" /><circle cx="50" cy="0" fill="black" r="1" /><circle cx="98" cy="66" fill="black" r="1" /><circle cx="69" cy="80" fill="black" r="1" /><circle cx="65" cy="51" fill="black" r="1" /><circle cx="19" cy="43" fill="black" r="1" /><path d="M0 128 L2 125 L8 122 L8 127 L8 143 L8 149 L13 142 L19 134 L20 133 L21 133 L25 127 L27 125 L27 128 L27 135 L30 128 L31 126 L31 128 L32 130 L36 126 L40 121 L41 122 L43 135 L45 136 L52 125 L54 122 L56 125 L58 129 L64 124 L68 119 L70 119 L73 122 L80 121 L88 117 L89 117 " fill="none" stroke="black" /></svg>