<?xml version="1.0" encoding="utf-8" ?>
<svg baseProfile="tiny" height="114" version="1.2" viewBox="-3 -3 111 114" width="111" xmlns="http://www.w3.org/2000/svg" xmlns:ev="http://www.w3.org/2001/xml-events" xmlns:xlink="http://www.w3.org/1999/xlink"><defs /><path d="M0 92 L10 81 L22 74 L23 85 L23 104 L23 114 L23 112 L24 111 L24 110 L27 102 L28 101 L28 106 L30 106 L33 101 L33 102 L33 105 L34 104 L36 99 L37 99 L37 102 L37 105 L39 103 L42 101 L43 102 L43 104 L45 105 L49 100 L50 100 L51 100 L51 102 L52 102 L54 102 L55 102 L56 102 L57 102 L57 103 L57 107 L57 106 L58 106 L61 104 L64 102 L65 102 L66 102 L67 102 L68 102 L68 103 L68 107 L70 107 L71 107 L73 107 L74 106 L75 106 L76 106 L77 106 L78 105 L79 104 L80 103 " fill="none" stroke="black" /><path d="M0 92 L10 81 L22 74 L23 85 L23 104 L23 114 L23 112 L24 111 L24 110 L27 102 L28 101 L28 106 L30 106 L33 101 L33 102 L33 105 L34 104 L36 99 L37 99 L37 102 L37 105 L39 103 L42 101 L43 102 L43 104 L45 105 L49 100 L50 100 L51 100 L51 102 L52 102 L54 102 L55 102 L56 102 L57 102 L57 103 L57 107 L57 106 L58 106 L61 104 L64 102 L65 102 L66 102 L67 102 L68 102 L68 103 L68 107 L70 107 L71 107 L73 107 L74 106 L75 106 L76 106 L77 106 L78 105 L79 104 L80 103 M92 59 L93 55 L96 47 L97 39 L97 20 L96 8 L96 3 " fill="none" stroke="black" /><path d="M0 92 L10 81 L22 74 L23 85 L23 104 L23 114 L23 112 L24 111 L24 110 L27 102 L28 101 L28 106 L30 106 L33 101 L33 102 L33 105 L34 104 L36 99 L37 99 L37 102 L37 105 L39 103 L42 101 L43 102 L43 104 L45 105 L49 100 L50 100 L51 100 L51 102 L52 102 L54 102 L55 102 L56 102 L57 102 L57 103 L57 107 L57 106 L58 106 L61 104 L64 102 L65 102 L66 102 L67 102 L68 102 L68 103 L68 107 L70 107 L71 107 L73 107 L74 106 L75 106 L76 106 L77 106 L78 105 L79 104 L80 103 M92 59 L93 55 L96 47 L97 39 L97 20 L96 8 L96 3 M82 16 L83 14 L87 8 L89 4 L92 1 L94 0 L96 0 L101 0 L105 0 L107 1 L109 4 L111 4 " fill="none" stroke="black" /></svg>