<?xml version="1.0" encoding="utf-8" ?>
<svg baseProfile="tiny" height="156" version="1.2" viewBox="-3 -3 348 156" width="348" xmlns="http://www.w3.org/2000/svg" xmlns:ev="http://www.w3.org/2001/xml-events" xmlns:xlink="http://www.w3.org/1999/xlink"><defs /><path d="M120 54 L123 55 L128 58 L133 61 L141 70 L151 94 L157 122 " fill="none" stroke="black" /><path d="M120 54 L123 55 L128 58 L133 61 L141 70 L151 94 L157 122 M155 68 L155 67 L155 62 L157 54 L159 49 L164 44 L175 49 L183 57 L190 62 L191 62 L192 55 L196 48 L199 45 L203 43 L207 47 L216 53 L234 63 L240 66 L240 58 L225 26 L222 17 L224 18 L230 24 L236 27 L240 27 L242 27 L243 27 L247 21 L252 17 L259 15 L265 18 L268 23 L269 24 L270 24 L275 19 L280 11 L281 9 L285 10 L289 14 L294 20 L295 20 L298 16 L301 7 L309 5 L321 5 L327 14 L330 14 L334 11 L339 2 L343 0 L347 7 L348 7 " fill="none" stroke="black" /><path d="M120 54 L123 55 L128 58 L133 61 L141 70 L151 94 L157 122 M155 68 L155 67 L155 62 L157 54 L159 49 L164 44 L175 49 L183 57 L190 62 L191 62 L192 55 L196 48 L199 45 L203 43 L207 47 L216 53 L234 63 L240 66 L240 58 L225 26 L222 17 L224 18 L230 24 L236 27 L240 27 L242 27 L243 27 L247 21 L252 17 L259 15 L265 18 L268 23 L269 24 L270 24 L275 19 L280 11 L281 9 L285 10 L289 14 L294 20 L295 20 L298 16 L301 7 L309 5 L321 5 L327 14 L330 14 L334 11 L339 2 L343 0 L347 7 L348 7 M183 97 L187 89 L197 81 L204 81 L217 87 L227 93 L230 95 L231 94 L233 91 L237 86 L244 81 L252 80 L261 86 L266 89 L270 89 L272 86 L273 79 L278 74 L282 73 L287 73 L293 75 L297 77 L299 77 L299 76 L300 76 L306 78 L311 79 L313 77 L314 73 L314 72 L315 71 " fill="none" stroke="black" /><path d="M120 54 L123 55 L128 58 L133 61 L141 70 L151 94 L157 122 M155 68 L155 67 L155 62 L157 54 L159 49 L164 44 L175 49 L183 57 L190 62 L191 62 L192 55 L196 48 L199 45 L203 43 L207 47 L216 53 L234 63 L240 66 L240 58 L225 26 L222 17 L224 18 L230 24 L236 27 L240 27 L242 27 L243 27 L247 21 L252 17 L259 15 L265 18 L268 23 L269 24 L270 24 L275 19 L280 11 L281 9 L285 10 L289 14 L294 20 L295 20 L298 16 L301 7 L309 5 L321 5 L327 14 L330 14 L334 11 L339 2 L343 0 L347 7 L348 7 M183 97 L187 89 L197 81 L204 81 L217 87 L227 93 L230 95 L231 94 L233 91 L237 86 L244 81 L252 80 L261 86 L266 89 L270 89 L272 86 L273 79 L278 74 L282 73 L287 73 L293 75 L297 77 L299 77 L299 76 L300 76 L306 78 L311 79 L313 77 L314 73 L314 72 L315 71 M83 39 L80 39 L68 39 L55 39 L39 36 L31 36 L23 37 L17 45 L11 60 L4 85 L1 102 L0 114 L1 124 L7 136 L13 145 L16 149 L24 154 L32 156 L43 155 L60 147 L71 145 L83 145 L94 144 L103 139 L109 134 L112 128 L115 119 L116 114 L118 107 L119 98 L119 89 L119 82 L119 79 L116 74 L112 69 L109 64 L106 58 L101 53 L99 51 L95 48 L93 45 L90 44 L88 44 L86 42 L84 41 L82 37 " fill="none" stroke="black" /></svg>