<?xml version="1.0" encoding="utf-8" ?>
<svg baseProfile="tiny" height="91" version="1.2" viewBox="-3 -3 122 91" width="122" xmlns="http://www.w3.org/2000/svg" xmlns:ev="http://www.w3.org/2001/xml-events" xmlns:xlink="http://www.w3.org/1999/xlink"><defs /><path d="M41 88 L44 85 L46 84 L47 84 L47 90 L47 91 L48 88 L50 85 L52 84 L53 83 L53 86 L54 86 L55 86 L56 86 L57 86 L58 86 L61 86 L64 86 L65 87 L67 88 L68 88 L68 89 L68 91 L69 91 L70 91 L71 91 L72 91 L75 90 L76 90 L77 90 L78 90 L81 90 L86 90 L91 90 " fill="none" stroke="black" /><circle cx="0" cy="46" fill="black" r="1" /><path d="M41 88 L44 85 L46 84 L47 84 L47 90 L47 91 L48 88 L50 85 L52 84 L53 83 L53 86 L54 86 L55 86 L56 86 L57 86 L58 86 L61 86 L64 86 L65 87 L67 88 L68 88 L68 89 L68 91 L69 91 L70 91 L71 91 L72 91 L75 90 L76 90 L77 90 L78 90 L81 90 L86 90 L91 90 M14 10 L14 12 L16 13 " fill="none" stroke="black" /><path d="M41 88 L44 85 L46 84 L47 84 L47 90 L47 91 L48 88 L50 85 L52 84 L53 83 L53 86 L54 86 L55 86 L56 86 L57 86 L58 86 L61 86 L64 86 L65 87 L67 88 L68 88 L68 89 L68 91 L69 91 L70 91 L71 91 L72 91 L75 90 L76 90 L77 90 L78 90 L81 90 L86 90 L91 90 M14 10 L14 12 L16 13 M36 40 L36 41 L31 43 L27 45 " fill="none" stroke="black" /><circle cx="41" cy="0" fill="black" r="1" /><circle cx="67" cy="33" fill="black" r="1" /><circle cx="81" cy="58" fill="black" r="1" /><circle cx="122" cy="27" fill="black" r="1" /></svg>