<?xml version="1.0" encoding="utf-8" ?>
<svg baseProfile="tiny" height="63" version="1.2" viewBox="-3 -3 104 63" width="104" xmlns="http://www.w3.org/2000/svg" xmlns:ev="http://www.w3.org/2001/xml-events" xmlns:xlink="http://www.w3.org/1999/xlink"><defs /><path d="M0 40 L2 33 L9 12 L11 9 L10 20 L4 41 L2 47 L2 46 L6 35 L9 29 L10 29 L10 35 L10 36 L13 26 L15 21 L16 21 L16 37 L15 48 L20 34 L27 18 L29 18 L29 35 L31 33 L40 6 L45 0 L45 14 L45 44 L45 50 L49 34 L51 30 L51 47 L48 63 L52 52 L59 28 L60 29 L58 39 L56 43 L64 23 L68 16 L67 28 L64 39 L64 41 L71 25 L74 21 L74 33 L73 41 L83 28 L86 24 L86 39 L86 44 L86 42 L91 33 L92 33 L90 43 L89 47 L89 43 L95 34 L97 34 L99 38 L102 38 L104 36 " fill="none" stroke="black" /></svg>