<?xml version="1.0" encoding="utf-8" ?>
<svg baseProfile="tiny" height="137" version="1.2" viewBox="-3 -3 257 137" width="257" xmlns="http://www.w3.org/2000/svg" xmlns:ev="http://www.w3.org/2001/xml-events" xmlns:xlink="http://www.w3.org/1999/xlink"><defs /><path d="M0 137 L1 137 L5 135 L9 134 L13 134 L14 134 L17 134 L20 134 L23 134 L26 134 L27 134 L30 134 L36 133 L45 132 L48 132 L53 132 L57 132 L61 131 L64 130 L68 129 L70 128 L74 127 L77 127 L81 126 L85 124 L91 123 L99 121 L102 121 L105 121 L107 120 L111 118 L117 118 L121 117 L124 114 L129 111 L136 108 L139 108 L141 106 L145 104 L151 103 L156 102 L163 101 L165 99 L169 96 L177 93 L181 92 L185 91 L198 84 L200 83 L205 80 L210 78 L216 74 L220 69 L223 63 L228 54 L234 44 L238 36 L245 24 L247 17 L250 13 L253 7 L255 4 L257 0 " fill="none" stroke="black" /></svg>