<?xml version="1.0" encoding="utf-8" ?>
<svg baseProfile="tiny" height="24" version="1.2" viewBox="-3 -3 495 24" width="495" xmlns="http://www.w3.org/2000/svg" xmlns:ev="http://www.w3.org/2001/xml-events" xmlns:xlink="http://www.w3.org/1999/xlink"><defs /><path d="M0 18 L3 19 L23 20 " fill="none" stroke="black" /><path d="M0 18 L3 19 L23 20 M57 17 L58 17 L65 17 L89 17 L99 16 " fill="none" stroke="black" /><path d="M0 18 L3 19 L23 20 M57 17 L58 17 L65 17 L89 17 L99 16 M122 16 L123 17 L138 23 L162 23 L172 24 " fill="none" stroke="black" /><path d="M0 18 L3 19 L23 20 M57 17 L58 17 L65 17 L89 17 L99 16 M122 16 L123 17 L138 23 L162 23 L172 24 M193 17 L195 17 L209 17 L237 17 L240 17 " fill="none" stroke="black" /><path d="M0 18 L3 19 L23 20 M57 17 L58 17 L65 17 L89 17 L99 16 M122 16 L123 17 L138 23 L162 23 L172 24 M193 17 L195 17 L209 17 L237 17 L240 17 M274 18 L280 19 L314 19 L324 18 " fill="none" stroke="black" /><path d="M0 18 L3 19 L23 20 M57 17 L58 17 L65 17 L89 17 L99 16 M122 16 L123 17 L138 23 L162 23 L172 24 M193 17 L195 17 L209 17 L237 17 L240 17 M274 18 L280 19 L314 19 L324 18 M358 18 L366 18 L366 19 L369 19 L373 19 L380 19 L383 18 " fill="none" stroke="black" /><path d="M0 18 L3 19 L23 20 M57 17 L58 17 L65 17 L89 17 L99 16 M122 16 L123 17 L138 23 L162 23 L172 24 M193 17 L195 17 L209 17 L237 17 L240 17 M274 18 L280 19 L314 19 L324 18 M358 18 L366 18 L366 19 L369 19 L373 19 L380 19 L383 18 M409 18 L411 17 L430 11 L461 5 L495 0 " fill="none" stroke="black" /></svg>