<?xml version="1.0" encoding="utf-8" ?>
<svg baseProfile="tiny" height="108" version="1.2" viewBox="-3 -3 179 108" width="179" xmlns="http://www.w3.org/2000/svg" xmlns:ev="http://www.w3.org/2001/xml-events" xmlns:xlink="http://www.w3.org/1999/xlink"><defs /><path d="M27 44 L28 44 L28 45 L27 45 L23 44 L17 44 L14 44 L9 46 L3 54 L0 63 L0 67 L0 75 L6 88 L10 102 L14 108 L16 108 L23 108 L33 104 L38 100 L40 98 L45 90 L50 80 L52 75 L53 72 L53 68 L50 61 L46 55 L39 45 " fill="none" stroke="black" /><path d="M27 44 L28 44 L28 45 L27 45 L23 44 L17 44 L14 44 L9 46 L3 54 L0 63 L0 67 L0 75 L6 88 L10 102 L14 108 L16 108 L23 108 L33 104 L38 100 L40 98 L45 90 L50 80 L52 75 L53 72 L53 68 L50 61 L46 55 L39 45 M62 39 L63 39 L69 39 L76 46 L81 61 L83 70 L83 72 " fill="none" stroke="black" /><path d="M27 44 L28 44 L28 45 L27 45 L23 44 L17 44 L14 44 L9 46 L3 54 L0 63 L0 67 L0 75 L6 88 L10 102 L14 108 L16 108 L23 108 L33 104 L38 100 L40 98 L45 90 L50 80 L52 75 L53 72 L53 68 L50 61 L46 55 L39 45 M62 39 L63 39 L69 39 L76 46 L81 61 L83 70 L83 72 M81 33 L86 38 L98 52 L106 62 " fill="none" stroke="black" /><path d="M27 44 L28 44 L28 45 L27 45 L23 44 L17 44 L14 44 L9 46 L3 54 L0 63 L0 67 L0 75 L6 88 L10 102 L14 108 L16 108 L23 108 L33 104 L38 100 L40 98 L45 90 L50 80 L52 75 L53 72 L53 68 L50 61 L46 55 L39 45 M62 39 L63 39 L69 39 L76 46 L81 61 L83 70 L83 72 M81 33 L86 38 L98 52 L106 62 M127 51 L127 53 L128 51 L130 47 L135 45 L140 50 L145 58 L147 58 L149 56 L150 55 L150 54 L154 52 L158 49 L160 47 L163 47 L166 47 L173 47 L179 43 " fill="none" stroke="black" /><circle cx="132" cy="11" fill="black" r="1" /><circle cx="147" cy="0" fill="black" r="1" /></svg>