<?xml version="1.0" encoding="utf-8" ?>
<svg baseProfile="tiny" height="31" version="1.2" viewBox="-3 -3 119 31" width="119" xmlns="http://www.w3.org/2000/svg" xmlns:ev="http://www.w3.org/2001/xml-events" xmlns:xlink="http://www.w3.org/1999/xlink"><defs /><path d="M16 1 L17 1 L19 2 L20 3 L22 4 L23 6 L25 9 L26 10 L27 11 L27 13 L27 14 L28 14 L28 15 L29 16 L29 18 L29 19 L29 22 L29 23 L29 25 L29 26 L29 27 L29 28 L29 29 L29 30 L29 31 L28 31 " fill="none" stroke="black" /><path d="M16 1 L17 1 L19 2 L20 3 L22 4 L23 6 L25 9 L26 10 L27 11 L27 13 L27 14 L28 14 L28 15 L29 16 L29 18 L29 19 L29 22 L29 23 L29 25 L29 26 L29 27 L29 28 L29 29 L29 30 L29 31 L28 31 M10 16 L9 16 L7 15 L6 15 L5 15 L3 15 L2 15 L1 17 L1 18 L1 19 L1 20 L1 21 L0 23 L0 25 L0 26 L0 27 L2 27 L4 27 L5 27 L7 27 L8 28 L9 28 L10 28 L11 28 L11 26 " fill="none" stroke="black" /><path d="M16 1 L17 1 L19 2 L20 3 L22 4 L23 6 L25 9 L26 10 L27 11 L27 13 L27 14 L28 14 L28 15 L29 16 L29 18 L29 19 L29 22 L29 23 L29 25 L29 26 L29 27 L29 28 L29 29 L29 30 L29 31 L28 31 M10 16 L9 16 L7 15 L6 15 L5 15 L3 15 L2 15 L1 17 L1 18 L1 19 L1 20 L1 21 L0 23 L0 25 L0 26 L0 27 L2 27 L4 27 L5 27 L7 27 L8 28 L9 28 L10 28 L11 28 L11 26 M36 19 L36 17 L40 12 L42 8 L45 7 L47 7 L53 7 L57 10 L60 12 L61 12 L63 12 L64 11 L67 11 L71 11 L73 11 L74 11 L75 10 L77 9 L79 9 L82 9 L82 8 L84 7 L88 5 L91 1 L92 0 L93 0 L96 1 L100 2 L102 2 L103 3 L104 4 L105 4 L106 3 L107 1 L109 1 L110 2 L111 2 L112 2 L113 2 L115 1 L118 1 L119 1 " fill="none" stroke="black" /></svg>