<?xml version="1.0" encoding="utf-8" ?>
<svg baseProfile="tiny" height="192" version="1.2" viewBox="-3 -3 282 192" width="282" xmlns="http://www.w3.org/2000/svg" xmlns:ev="http://www.w3.org/2001/xml-events" xmlns:xlink="http://www.w3.org/1999/xlink"><defs /><path d="M0 192 L1 191 L3 190 L4 190 L5 190 L7 187 L9 187 L13 185 L15 184 L16 182 L16 178 L16 172 L16 169 L16 164 L16 159 L17 155 L18 152 L19 150 L20 147 L21 145 L22 144 L24 143 L26 143 L28 143 L30 144 L32 146 L35 150 L36 152 L38 154 L40 156 L42 158 L42 160 L43 161 L46 161 L49 162 L52 162 L54 162 L54 163 L55 163 L57 163 L59 162 L64 161 L69 160 L71 158 L72 158 L73 157 L76 155 L79 154 L80 152 L81 150 L81 146 L81 140 L79 134 L75 126 L71 117 L68 112 L67 105 L66 99 L64 92 L64 86 L63 70 L63 59 L63 55 L65 55 L68 55 L73 58 L79 66 L86 79 L94 93 L97 98 L105 109 L120 132 L126 138 L128 138 L134 136 L136 135 L137 131 L138 127 L139 123 L139 120 L139 118 L139 114 L139 111 L139 107 L139 103 L139 97 L139 89 L137 82 L136 76 L135 72 L135 69 L135 65 L135 60 L135 52 L136 47 L137 41 L141 36 L144 32 L146 31 L148 31 L151 31 L153 33 L157 38 L162 45 L168 55 L177 72 L183 82 L187 86 L191 92 L196 94 L199 95 L202 95 L205 95 L213 95 L220 95 L223 95 L224 94 L224 91 L225 82 L225 74 L225 67 L225 58 L224 50 L220 38 L219 32 L219 24 L219 15 L219 9 L219 2 L219 0 L226 0 L231 0 L233 0 L235 2 L242 13 L246 19 L247 20 L251 23 L256 26 L258 29 L259 31 L261 34 L264 39 L268 43 L270 45 L272 45 L274 47 L278 51 L280 54 L282 54 " fill="none" stroke="black" /></svg>