<?xml version="1.0" encoding="utf-8" ?>
<svg baseProfile="tiny" height="106" version="1.2" viewBox="-3 -3 136 106" width="136" xmlns="http://www.w3.org/2000/svg" xmlns:ev="http://www.w3.org/2001/xml-events" xmlns:xlink="http://www.w3.org/1999/xlink"><defs /><path d="M38 106 L40 103 L45 97 L48 95 L49 97 L50 103 L51 106 L52 106 L55 104 L58 102 L59 101 L61 100 L65 99 L69 97 L71 96 L72 96 L74 96 L77 96 L80 97 L84 98 L86 99 L88 99 L91 99 L94 99 L97 99 L101 100 L104 101 L107 101 L110 101 L113 101 " fill="none" stroke="black" /><circle cx="0" cy="49" fill="black" r="1" /><circle cx="22" cy="0" fill="black" r="1" /><circle cx="72" cy="56" fill="black" r="1" /><circle cx="27" cy="39" fill="black" r="1" /><circle cx="62" cy="10" fill="black" r="1" /><circle cx="92" cy="32" fill="black" r="1" /><circle cx="119" cy="27" fill="black" r="1" /><circle cx="136" cy="60" fill="black" r="1" /></svg>