<?xml version="1.0" encoding="utf-8" ?>
<svg baseProfile="tiny" height="92" version="1.2" viewBox="-3 -3 139 92" width="139" xmlns="http://www.w3.org/2000/svg" xmlns:ev="http://www.w3.org/2001/xml-events" xmlns:xlink="http://www.w3.org/1999/xlink"><defs /><path d="M0 92 L1 90 L4 85 L5 84 L6 88 L6 92 L7 92 L8 90 L10 86 L11 85 L12 85 L13 85 L15 83 L16 83 L18 86 L19 87 L20 87 L22 86 L22 84 L24 84 L25 84 L27 84 L30 82 L31 82 L33 83 L34 83 L35 83 L37 83 L39 83 L41 83 L42 82 L43 82 L44 82 L47 82 L48 82 L50 77 L54 75 L56 75 L57 77 L59 77 L61 76 L64 71 L65 71 L66 71 L67 71 L69 69 L69 68 L70 68 L71 68 L73 68 L74 65 L75 65 L76 64 L77 64 L78 64 L78 63 L78 62 L81 61 L84 57 L86 54 L86 53 L87 52 L89 51 L90 47 L91 45 L92 44 L93 41 L94 41 L96 41 L101 41 L109 38 L109 34 L109 33 L109 32 L110 30 L112 29 L113 29 L119 20 L123 11 L124 11 L127 9 L129 7 L130 7 L131 7 L133 7 L134 6 L134 4 L136 4 L137 4 L137 3 L138 2 L139 0 " fill="none" stroke="black" /></svg>