<?xml version="1.0" encoding="utf-8" ?>
<svg baseProfile="tiny" height="42" version="1.2" viewBox="-3 -3 141 42" width="141" xmlns="http://www.w3.org/2000/svg" xmlns:ev="http://www.w3.org/2001/xml-events" xmlns:xlink="http://www.w3.org/1999/xlink"><defs /><path d="M0 42 L0 40 L1 32 L5 24 L7 19 L10 12 L12 6 L16 2 L20 0 L23 0 L27 1 L32 9 L35 19 L36 26 L39 33 L43 37 L46 39 L50 39 L56 39 L61 39 L62 39 L64 39 L69 35 L70 30 L72 26 L73 22 L76 19 L80 16 L82 15 L83 15 L84 17 L87 23 L89 24 L91 25 L92 25 L93 23 L96 22 L99 23 L101 28 L101 29 L102 29 L103 26 L105 26 L108 30 L109 30 L111 30 L114 26 L115 26 L117 27 L120 28 L121 28 L122 28 L123 28 L125 28 L128 27 L130 27 L130 28 L132 29 L133 29 L136 29 L140 29 L141 29 L140 29 " fill="none" stroke="black" /></svg>