<?xml version="1.0" encoding="utf-8" ?>
<svg baseProfile="tiny" height="51" version="1.2" viewBox="-3 -3 58 51" width="58" xmlns="http://www.w3.org/2000/svg" xmlns:ev="http://www.w3.org/2001/xml-events" xmlns:xlink="http://www.w3.org/1999/xlink"><defs /><path d="M0 37 L0 36 L0 30 L0 23 L1 22 L2 25 L4 33 L5 35 L6 32 L6 31 L7 31 L7 30 L8 26 L8 25 L9 25 L11 29 L11 31 L12 31 L12 25 L12 20 L12 19 L14 20 L17 23 L18 23 L18 21 L18 19 L19 22 L21 25 L22 25 L23 23 L24 19 L25 20 L25 21 L25 19 L25 18 L25 19 L26 19 L27 17 L28 15 L30 18 L31 22 L32 22 L32 21 L32 13 L33 19 L34 20 L37 20 L38 19 L39 19 L40 19 L41 19 L41 15 L42 16 L42 17 L43 16 L45 11 L45 12 L45 8 L45 10 L46 11 L47 11 L47 9 L48 9 L49 9 L50 8 L51 6 L52 5 L53 5 L53 6 L54 11 L56 12 L58 7 L58 1 L58 0 " fill="none" stroke="black" /><path d="M0 37 L0 36 L0 30 L0 23 L1 22 L2 25 L4 33 L5 35 L6 32 L6 31 L7 31 L7 30 L8 26 L8 25 L9 25 L11 29 L11 31 L12 31 L12 25 L12 20 L12 19 L14 20 L17 23 L18 23 L18 21 L18 19 L19 22 L21 25 L22 25 L23 23 L24 19 L25 20 L25 21 L25 19 L25 18 L25 19 L26 19 L27 17 L28 15 L30 18 L31 22 L32 22 L32 21 L32 13 L33 19 L34 20 L37 20 L38 19 L39 19 L40 19 L41 19 L41 15 L42 16 L42 17 L43 16 L45 11 L45 12 L45 8 L45 10 L46 11 L47 11 L47 9 L48 9 L49 9 L50 8 L51 6 L52 5 L53 5 L53 6 L54 11 L56 12 L58 7 L58 1 L58 0 M7 50 L8 49 L11 45 L14 45 L16 49 L17 51 L18 49 L18 46 L19 46 L20 46 L21 46 L22 45 L22 43 L23 43 L24 43 L25 42 L26 39 L27 38 L29 40 L30 40 L31 40 L33 40 L34 40 L36 40 L38 38 L40 36 L41 36 L42 37 L44 37 L45 36 L47 35 " fill="none" stroke="black" /></svg>