<?xml version="1.0" encoding="utf-8" ?>
<svg baseProfile="tiny" height="57" version="1.2" viewBox="-3 -3 79 57" width="79" xmlns="http://www.w3.org/2000/svg" xmlns:ev="http://www.w3.org/2001/xml-events" xmlns:xlink="http://www.w3.org/1999/xlink"><defs /><path d="M0 11 L0 9 L2 5 L3 2 L5 2 L5 10 L5 13 L5 14 L8 11 L13 1 L14 0 L15 3 L16 9 L17 11 L19 10 L22 8 L24 12 L24 19 L25 20 L29 13 L31 10 L31 16 L33 18 L38 8 L41 5 L41 7 L41 17 L41 20 L44 14 L49 8 L50 8 L50 18 L49 27 L50 23 L54 18 L55 17 L55 24 L57 25 L62 18 L63 18 L63 19 L63 22 L64 19 L67 16 L68 16 L68 26 L68 34 L70 30 L73 27 L73 26 L73 25 L76 23 L79 23 " fill="none" stroke="black" /><path d="M0 11 L0 9 L2 5 L3 2 L5 2 L5 10 L5 13 L5 14 L8 11 L13 1 L14 0 L15 3 L16 9 L17 11 L19 10 L22 8 L24 12 L24 19 L25 20 L29 13 L31 10 L31 16 L33 18 L38 8 L41 5 L41 7 L41 17 L41 20 L44 14 L49 8 L50 8 L50 18 L49 27 L50 23 L54 18 L55 17 L55 24 L57 25 L62 18 L63 18 L63 19 L63 22 L64 19 L67 16 L68 16 L68 26 L68 34 L70 30 L73 27 L73 26 L73 25 L76 23 L79 23 M1 38 L1 37 L5 28 L9 25 L11 26 L11 40 L11 51 L11 50 L19 37 L22 34 L23 35 L23 43 L23 45 L26 42 L29 39 L31 39 L32 44 L32 50 L36 49 L38 46 L40 46 L40 48 L41 52 L43 52 L45 51 L48 51 L49 52 L50 53 L53 52 L57 50 L60 50 L61 50 L62 49 L66 48 L71 48 L73 54 L73 57 " fill="none" stroke="black" /></svg>