<?xml version="1.0" encoding="utf-8" ?>
<svg baseProfile="tiny" height="191" version="1.2" viewBox="-3 -3 191 191" width="191" xmlns="http://www.w3.org/2000/svg" xmlns:ev="http://www.w3.org/2001/xml-events" xmlns:xlink="http://www.w3.org/1999/xlink"><defs /><path d="M173 3 L171 2 L168 1 L164 1 L160 1 L156 1 L153 4 L151 9 L151 14 L151 25 L151 42 L152 59 L156 73 L157 83 L160 93 L163 98 L168 101 L172 102 L175 103 L178 103 L182 100 L185 95 L189 90 L189 87 L191 76 L191 65 L191 57 L191 49 L191 45 L190 38 L187 31 L184 28 L181 24 L179 22 L177 18 L176 12 L175 7 L174 5 " fill="none" stroke="black" /><path d="M173 3 L171 2 L168 1 L164 1 L160 1 L156 1 L153 4 L151 9 L151 14 L151 25 L151 42 L152 59 L156 73 L157 83 L160 93 L163 98 L168 101 L172 102 L175 103 L178 103 L182 100 L185 95 L189 90 L189 87 L191 76 L191 65 L191 57 L191 49 L191 45 L190 38 L187 31 L184 28 L181 24 L179 22 L177 18 L176 12 L175 7 L174 5 M152 0 L150 0 L145 0 L141 0 L137 1 L135 2 L131 3 L130 3 L127 4 L126 6 L124 8 L121 12 L118 15 L114 19 L111 23 L107 27 L103 29 L98 34 L90 43 L85 51 L83 56 L81 64 L77 68 L71 73 L66 78 L63 81 L59 83 L56 86 L53 88 L50 90 L48 90 L44 91 L39 92 L32 92 L26 92 L19 94 L13 100 L6 112 L2 121 L1 121 L1 123 L0 128 L0 139 L0 153 L2 161 L3 164 L6 168 L8 172 L13 176 L19 181 L22 183 L30 186 L36 188 L44 190 L51 191 L55 191 L60 191 L64 189 L67 183 L69 177 L70 171 L73 163 L73 159 L73 153 L68 143 L64 137 L59 133 L54 130 L50 129 L47 128 L45 128 L41 128 L36 129 L32 130 L30 130 L31 130 L35 128 L39 126 L41 126 L43 125 L47 123 L57 118 L67 117 L74 117 L75 115 L77 110 L82 101 L90 92 L98 86 L104 84 L109 84 L122 94 L135 97 L140 99 L141 99 L142 100 L145 101 L147 102 L149 102 L151 102 L154 102 L159 102 L164 101 L166 101 " fill="none" stroke="black" /></svg>