<?xml version="1.0" encoding="utf-8" ?>
<svg baseProfile="tiny" height="161" version="1.2" viewBox="-3 -3 225 161" width="225" xmlns="http://www.w3.org/2000/svg" xmlns:ev="http://www.w3.org/2001/xml-events" xmlns:xlink="http://www.w3.org/1999/xlink"><defs /><path d="M0 91 L3 98 L10 111 L13 120 L20 132 L26 142 L34 155 L37 160 L38 161 L39 161 L44 161 L63 159 L113 152 L141 147 L148 132 L152 129 L165 122 L196 113 L206 112 L211 108 L214 105 L217 102 L224 98 L225 96 L225 90 L220 75 L212 61 L198 37 L189 20 L185 14 L180 9 L176 5 L172 1 L170 0 L165 1 L157 8 L151 13 L134 24 L115 34 L93 53 L79 73 L76 74 L69 77 L63 78 L55 80 L49 81 L46 82 L43 83 L40 83 L36 85 L32 87 L27 87 L24 88 L19 89 L15 92 L9 93 L6 93 L2 93 L1 92 " fill="none" stroke="black" /><path d="M0 91 L3 98 L10 111 L13 120 L20 132 L26 142 L34 155 L37 160 L38 161 L39 161 L44 161 L63 159 L113 152 L141 147 L148 132 L152 129 L165 122 L196 113 L206 112 L211 108 L214 105 L217 102 L224 98 L225 96 L225 90 L220 75 L212 61 L198 37 L189 20 L185 14 L180 9 L176 5 L172 1 L170 0 L165 1 L157 8 L151 13 L134 24 L115 34 L93 53 L79 73 L76 74 L69 77 L63 78 L55 80 L49 81 L46 82 L43 83 L40 83 L36 85 L32 87 L27 87 L24 88 L19 89 L15 92 L9 93 L6 93 L2 93 L1 92 M25 91 L28 96 L31 103 L34 110 L36 114 L39 120 L41 126 L42 131 L42 135 L42 138 L42 143 L42 146 L42 148 L42 149 " fill="none" stroke="black" /><path d="M0 91 L3 98 L10 111 L13 120 L20 132 L26 142 L34 155 L37 160 L38 161 L39 161 L44 161 L63 159 L113 152 L141 147 L148 132 L152 129 L165 122 L196 113 L206 112 L211 108 L214 105 L217 102 L224 98 L225 96 L225 90 L220 75 L212 61 L198 37 L189 20 L185 14 L180 9 L176 5 L172 1 L170 0 L165 1 L157 8 L151 13 L134 24 L115 34 L93 53 L79 73 L76 74 L69 77 L63 78 L55 80 L49 81 L46 82 L43 83 L40 83 L36 85 L32 87 L27 87 L24 88 L19 89 L15 92 L9 93 L6 93 L2 93 L1 92 M25 91 L28 96 L31 103 L34 110 L36 114 L39 120 L41 126 L42 131 L42 135 L42 138 L42 143 L42 146 L42 148 L42 149 M50 90 L50 95 L53 101 L56 106 L57 107 L59 112 L62 121 L63 129 L67 136 L71 145 L73 150 L73 154 L73 155 " fill="none" stroke="black" /><path d="M0 91 L3 98 L10 111 L13 120 L20 132 L26 142 L34 155 L37 160 L38 161 L39 161 L44 161 L63 159 L113 152 L141 147 L148 132 L152 129 L165 122 L196 113 L206 112 L211 108 L214 105 L217 102 L224 98 L225 96 L225 90 L220 75 L212 61 L198 37 L189 20 L185 14 L180 9 L176 5 L172 1 L170 0 L165 1 L157 8 L151 13 L134 24 L115 34 L93 53 L79 73 L76 74 L69 77 L63 78 L55 80 L49 81 L46 82 L43 83 L40 83 L36 85 L32 87 L27 87 L24 88 L19 89 L15 92 L9 93 L6 93 L2 93 L1 92 M25 91 L28 96 L31 103 L34 110 L36 114 L39 120 L41 126 L42 131 L42 135 L42 138 L42 143 L42 146 L42 148 L42 149 M50 90 L50 95 L53 101 L56 106 L57 107 L59 112 L62 121 L63 129 L67 136 L71 145 L73 150 L73 154 L73 155 M63 77 L69 84 L88 109 L108 137 L113 149 L113 155 L112 157 L111 157 " fill="none" stroke="black" /><path d="M0 91 L3 98 L10 111 L13 120 L20 132 L26 142 L34 155 L37 160 L38 161 L39 161 L44 161 L63 159 L113 152 L141 147 L148 132 L152 129 L165 122 L196 113 L206 112 L211 108 L214 105 L217 102 L224 98 L225 96 L225 90 L220 75 L212 61 L198 37 L189 20 L185 14 L180 9 L176 5 L172 1 L170 0 L165 1 L157 8 L151 13 L134 24 L115 34 L93 53 L79 73 L76 74 L69 77 L63 78 L55 80 L49 81 L46 82 L43 83 L40 83 L36 85 L32 87 L27 87 L24 88 L19 89 L15 92 L9 93 L6 93 L2 93 L1 92 M25 91 L28 96 L31 103 L34 110 L36 114 L39 120 L41 126 L42 131 L42 135 L42 138 L42 143 L42 146 L42 148 L42 149 M50 90 L50 95 L53 101 L56 106 L57 107 L59 112 L62 121 L63 129 L67 136 L71 145 L73 150 L73 154 L73 155 M63 77 L69 84 L88 109 L108 137 L113 149 L113 155 L112 157 L111 157 M97 47 L97 50 L104 61 L120 82 L130 97 L130 100 L130 102 L130 107 L132 113 L135 122 L139 129 L140 131 " fill="none" stroke="black" /><path d="M0 91 L3 98 L10 111 L13 120 L20 132 L26 142 L34 155 L37 160 L38 161 L39 161 L44 161 L63 159 L113 152 L141 147 L148 132 L152 129 L165 122 L196 113 L206 112 L211 108 L214 105 L217 102 L224 98 L225 96 L225 90 L220 75 L212 61 L198 37 L189 20 L185 14 L180 9 L176 5 L172 1 L170 0 L165 1 L157 8 L151 13 L134 24 L115 34 L93 53 L79 73 L76 74 L69 77 L63 78 L55 80 L49 81 L46 82 L43 83 L40 83 L36 85 L32 87 L27 87 L24 88 L19 89 L15 92 L9 93 L6 93 L2 93 L1 92 M25 91 L28 96 L31 103 L34 110 L36 114 L39 120 L41 126 L42 131 L42 135 L42 138 L42 143 L42 146 L42 148 L42 149 M50 90 L50 95 L53 101 L56 106 L57 107 L59 112 L62 121 L63 129 L67 136 L71 145 L73 150 L73 154 L73 155 M63 77 L69 84 L88 109 L108 137 L113 149 L113 155 L112 157 L111 157 M97 47 L97 50 L104 61 L120 82 L130 97 L130 100 L130 102 L130 107 L132 113 L135 122 L139 129 L140 131 M131 25 L131 26 L136 35 L149 55 L159 78 L162 87 L163 88 L164 89 L166 95 L168 100 L169 105 L170 108 L172 111 L173 111 " fill="none" stroke="black" /><path d="M0 91 L3 98 L10 111 L13 120 L20 132 L26 142 L34 155 L37 160 L38 161 L39 161 L44 161 L63 159 L113 152 L141 147 L148 132 L152 129 L165 122 L196 113 L206 112 L211 108 L214 105 L217 102 L224 98 L225 96 L225 90 L220 75 L212 61 L198 37 L189 20 L185 14 L180 9 L176 5 L172 1 L170 0 L165 1 L157 8 L151 13 L134 24 L115 34 L93 53 L79 73 L76 74 L69 77 L63 78 L55 80 L49 81 L46 82 L43 83 L40 83 L36 85 L32 87 L27 87 L24 88 L19 89 L15 92 L9 93 L6 93 L2 93 L1 92 M25 91 L28 96 L31 103 L34 110 L36 114 L39 120 L41 126 L42 131 L42 135 L42 138 L42 143 L42 146 L42 148 L42 149 M50 90 L50 95 L53 101 L56 106 L57 107 L59 112 L62 121 L63 129 L67 136 L71 145 L73 150 L73 154 L73 155 M63 77 L69 84 L88 109 L108 137 L113 149 L113 155 L112 157 L111 157 M97 47 L97 50 L104 61 L120 82 L130 97 L130 100 L130 102 L130 107 L132 113 L135 122 L139 129 L140 131 M131 25 L131 26 L136 35 L149 55 L159 78 L162 87 L163 88 L164 89 L166 95 L168 100 L169 105 L170 108 L172 111 L173 111 M160 7 L160 14 L169 44 L174 62 L179 72 L181 77 L184 82 L190 93 L193 97 L194 101 L195 103 " fill="none" stroke="black" /></svg>