<?xml version="1.0" encoding="utf-8" ?>
<svg baseProfile="tiny" height="126" version="1.2" viewBox="-3 -3 119 126" width="119" xmlns="http://www.w3.org/2000/svg" xmlns:ev="http://www.w3.org/2001/xml-events" xmlns:xlink="http://www.w3.org/1999/xlink"><defs /><path d="M0 36 L4 34 L8 32 L13 32 L17 32 L21 32 L24 33 L28 35 L32 38 L38 45 L41 51 L42 52 " fill="none" stroke="black" /><path d="M0 36 L4 34 L8 32 L13 32 L17 32 L21 32 L24 33 L28 35 L32 38 L38 45 L41 51 L42 52 M55 0 L55 2 L55 5 L55 11 L55 13 L55 14 L55 16 L55 17 L55 19 L55 21 L55 23 L55 26 L55 28 L55 30 L56 31 L59 34 L62 39 " fill="none" stroke="black" /><path d="M0 36 L4 34 L8 32 L13 32 L17 32 L21 32 L24 33 L28 35 L32 38 L38 45 L41 51 L42 52 M55 0 L55 2 L55 5 L55 11 L55 13 L55 14 L55 16 L55 17 L55 19 L55 21 L55 23 L55 26 L55 28 L55 30 L56 31 L59 34 L62 39 M89 50 L88 50 L87 49 L85 48 L84 47 L81 47 L78 47 L77 46 L74 45 L72 45 L70 45 L68 45 L67 45 L66 45 L64 45 L62 45 L59 45 L58 45 L56 46 L54 46 L52 47 L51 48 L49 50 L48 52 L46 56 L44 60 L43 62 L41 69 L41 74 L41 77 L41 79 L41 83 L41 90 L41 97 L42 101 L44 105 L47 108 L50 110 L53 113 L55 115 L58 117 L61 119 L64 121 L70 122 L78 124 L86 126 L89 126 L93 126 L99 124 L102 121 L106 117 L108 115 L110 109 L113 103 L115 99 L118 93 L119 88 L119 80 L116 74 L114 72 L111 67 L109 64 L106 62 L104 60 L101 59 L97 56 L91 53 L86 51 " fill="none" stroke="black" /><path d="M0 36 L4 34 L8 32 L13 32 L17 32 L21 32 L24 33 L28 35 L32 38 L38 45 L41 51 L42 52 M55 0 L55 2 L55 5 L55 11 L55 13 L55 14 L55 16 L55 17 L55 19 L55 21 L55 23 L55 26 L55 28 L55 30 L56 31 L59 34 L62 39 M89 50 L88 50 L87 49 L85 48 L84 47 L81 47 L78 47 L77 46 L74 45 L72 45 L70 45 L68 45 L67 45 L66 45 L64 45 L62 45 L59 45 L58 45 L56 46 L54 46 L52 47 L51 48 L49 50 L48 52 L46 56 L44 60 L43 62 L41 69 L41 74 L41 77 L41 79 L41 83 L41 90 L41 97 L42 101 L44 105 L47 108 L50 110 L53 113 L55 115 L58 117 L61 119 L64 121 L70 122 L78 124 L86 126 L89 126 L93 126 L99 124 L102 121 L106 117 L108 115 L110 109 L113 103 L115 99 L118 93 L119 88 L119 80 L116 74 L114 72 L111 67 L109 64 L106 62 L104 60 L101 59 L97 56 L91 53 L86 51 M46 99 L51 97 L56 94 L60 92 L65 89 L70 87 L76 85 L81 84 L86 83 L91 80 L93 78 L98 74 L102 72 L105 71 L107 70 L108 67 " fill="none" stroke="black" /><path d="M0 36 L4 34 L8 32 L13 32 L17 32 L21 32 L24 33 L28 35 L32 38 L38 45 L41 51 L42 52 M55 0 L55 2 L55 5 L55 11 L55 13 L55 14 L55 16 L55 17 L55 19 L55 21 L55 23 L55 26 L55 28 L55 30 L56 31 L59 34 L62 39 M89 50 L88 50 L87 49 L85 48 L84 47 L81 47 L78 47 L77 46 L74 45 L72 45 L70 45 L68 45 L67 45 L66 45 L64 45 L62 45 L59 45 L58 45 L56 46 L54 46 L52 47 L51 48 L49 50 L48 52 L46 56 L44 60 L43 62 L41 69 L41 74 L41 77 L41 79 L41 83 L41 90 L41 97 L42 101 L44 105 L47 108 L50 110 L53 113 L55 115 L58 117 L61 119 L64 121 L70 122 L78 124 L86 126 L89 126 L93 126 L99 124 L102 121 L106 117 L108 115 L110 109 L113 103 L115 99 L118 93 L119 88 L119 80 L116 74 L114 72 L111 67 L109 64 L106 62 L104 60 L101 59 L97 56 L91 53 L86 51 M46 99 L51 97 L56 94 L60 92 L65 89 L70 87 L76 85 L81 84 L86 83 L91 80 L93 78 L98 74 L102 72 L105 71 L107 70 L108 67 M81 86 L81 87 L86 96 L89 102 L91 106 L92 109 L92 113 L92 116 L92 118 L92 119 L92 120 L92 121 " fill="none" stroke="black" /><circle cx="55" cy="63" fill="black" r="1" /><circle cx="64" cy="56" fill="black" r="1" /></svg>