<?xml version="1.0" encoding="utf-8" ?>
<svg baseProfile="tiny" height="362" version="1.2" viewBox="-3 -3 498 362" width="498" xmlns="http://www.w3.org/2000/svg" xmlns:ev="http://www.w3.org/2001/xml-events" xmlns:xlink="http://www.w3.org/1999/xlink"><defs /><path d="M324 46 L313 42 L251 22 L191 9 L141 0 L117 0 L96 7 L76 21 L55 47 L34 79 L13 118 L3 149 L0 210 L6 232 L31 273 L100 328 L191 362 L346 362 L456 323 L491 267 L498 197 L460 157 L397 109 L319 65 L225 40 L148 52 L98 115 L97 162 L126 217 L174 272 L268 304 L399 302 L433 273 L419 212 L344 136 L221 111 L145 113 L121 125 L106 184 L117 247 L175 277 L254 262 L316 224 L332 195 L295 175 L229 172 L200 180 L196 183 L196 185 L225 212 L306 219 L331 206 L329 202 L278 192 L242 195 L239 197 L240 200 L259 205 " fill="none" stroke="black" /><path d="M324 46 L313 42 L251 22 L191 9 L141 0 L117 0 L96 7 L76 21 L55 47 L34 79 L13 118 L3 149 L0 210 L6 232 L31 273 L100 328 L191 362 L346 362 L456 323 L491 267 L498 197 L460 157 L397 109 L319 65 L225 40 L148 52 L98 115 L97 162 L126 217 L174 272 L268 304 L399 302 L433 273 L419 212 L344 136 L221 111 L145 113 L121 125 L106 184 L117 247 L175 277 L254 262 L316 224 L332 195 L295 175 L229 172 L200 180 L196 183 L196 185 L225 212 L306 219 L331 206 L329 202 L278 192 L242 195 L239 197 L240 200 L259 205 M77 70 L75 72 L69 76 L62 81 L57 86 L53 92 L48 99 L46 105 L46 109 L46 116 L52 123 L60 132 L61 138 L63 143 L62 153 L55 164 L50 171 L48 174 L46 177 L45 181 L46 187 L51 193 L58 197 L61 200 L63 203 L64 203 " fill="none" stroke="black" /><path d="M324 46 L313 42 L251 22 L191 9 L141 0 L117 0 L96 7 L76 21 L55 47 L34 79 L13 118 L3 149 L0 210 L6 232 L31 273 L100 328 L191 362 L346 362 L456 323 L491 267 L498 197 L460 157 L397 109 L319 65 L225 40 L148 52 L98 115 L97 162 L126 217 L174 272 L268 304 L399 302 L433 273 L419 212 L344 136 L221 111 L145 113 L121 125 L106 184 L117 247 L175 277 L254 262 L316 224 L332 195 L295 175 L229 172 L200 180 L196 183 L196 185 L225 212 L306 219 L331 206 L329 202 L278 192 L242 195 L239 197 L240 200 L259 205 M77 70 L75 72 L69 76 L62 81 L57 86 L53 92 L48 99 L46 105 L46 109 L46 116 L52 123 L60 132 L61 138 L63 143 L62 153 L55 164 L50 171 L48 174 L46 177 L45 181 L46 187 L51 193 L58 197 L61 200 L63 203 L64 203 M181 322 L186 327 L195 334 L203 341 L209 345 L213 347 L221 349 L223 349 L226 349 L232 347 L241 342 L246 340 L251 338 L256 337 L262 337 L271 337 L282 342 L291 344 L301 347 L308 350 L315 351 L321 352 L326 352 L335 348 L346 343 L348 340 L351 337 L352 334 L354 331 " fill="none" stroke="black" /><path d="M324 46 L313 42 L251 22 L191 9 L141 0 L117 0 L96 7 L76 21 L55 47 L34 79 L13 118 L3 149 L0 210 L6 232 L31 273 L100 328 L191 362 L346 362 L456 323 L491 267 L498 197 L460 157 L397 109 L319 65 L225 40 L148 52 L98 115 L97 162 L126 217 L174 272 L268 304 L399 302 L433 273 L419 212 L344 136 L221 111 L145 113 L121 125 L106 184 L117 247 L175 277 L254 262 L316 224 L332 195 L295 175 L229 172 L200 180 L196 183 L196 185 L225 212 L306 219 L331 206 L329 202 L278 192 L242 195 L239 197 L240 200 L259 205 M77 70 L75 72 L69 76 L62 81 L57 86 L53 92 L48 99 L46 105 L46 109 L46 116 L52 123 L60 132 L61 138 L63 143 L62 153 L55 164 L50 171 L48 174 L46 177 L45 181 L46 187 L51 193 L58 197 L61 200 L63 203 L64 203 M181 322 L186 327 L195 334 L203 341 L209 345 L213 347 L221 349 L223 349 L226 349 L232 347 L241 342 L246 340 L251 338 L256 337 L262 337 L271 337 L282 342 L291 344 L301 347 L308 350 L315 351 L321 352 L326 352 L335 348 L346 343 L348 340 L351 337 L352 334 L354 331 M231 85 L234 84 L237 84 L242 84 L246 84 L253 84 L263 88 L275 96 L282 102 L286 105 L290 107 L296 109 L307 110 L317 110 L326 110 L336 112 L349 117 L361 124 L367 129 L373 133 L376 137 L377 137 " fill="none" stroke="black" /></svg>