<?xml version="1.0" encoding="utf-8" ?>
<svg baseProfile="tiny" height="385" version="1.2" viewBox="-3 -3 504 385" width="504" xmlns="http://www.w3.org/2000/svg" xmlns:ev="http://www.w3.org/2001/xml-events" xmlns:xlink="http://www.w3.org/1999/xlink"><defs /><path d="M247 12 L243 12 L230 12 L223 12 L210 15 L201 19 L190 25 L181 36 L164 72 L158 91 L156 96 L156 100 L157 109 L163 126 L168 147 L174 173 L174 190 L174 197 L173 200 L172 203 L167 208 L157 215 L146 220 L132 230 L123 238 L118 243 L114 246 L112 251 L112 256 L114 263 L126 270 L143 275 L158 276 L177 278 L202 281 L223 285 L267 283 L287 280 L306 278 L326 276 L339 276 L347 276 L361 273 L373 269 L388 260 L403 249 L411 232 L412 217 L409 207 L406 203 L403 200 L397 195 L388 193 L375 190 L355 185 L342 182 L335 179 L329 175 L326 170 L323 164 L323 157 L324 150 L326 144 L333 116 L337 51 L333 35 L333 32 L331 30 L330 29 L328 25 L321 20 L314 15 L305 12 L294 7 L283 4 L273 2 L264 0 L258 0 L253 0 L248 0 L245 0 L240 2 L235 5 L233 6 " fill="none" stroke="black" /><path d="M247 12 L243 12 L230 12 L223 12 L210 15 L201 19 L190 25 L181 36 L164 72 L158 91 L156 96 L156 100 L157 109 L163 126 L168 147 L174 173 L174 190 L174 197 L173 200 L172 203 L167 208 L157 215 L146 220 L132 230 L123 238 L118 243 L114 246 L112 251 L112 256 L114 263 L126 270 L143 275 L158 276 L177 278 L202 281 L223 285 L267 283 L287 280 L306 278 L326 276 L339 276 L347 276 L361 273 L373 269 L388 260 L403 249 L411 232 L412 217 L409 207 L406 203 L403 200 L397 195 L388 193 L375 190 L355 185 L342 182 L335 179 L329 175 L326 170 L323 164 L323 157 L324 150 L326 144 L333 116 L337 51 L333 35 L333 32 L331 30 L330 29 L328 25 L321 20 L314 15 L305 12 L294 7 L283 4 L273 2 L264 0 L258 0 L253 0 L248 0 L245 0 L240 2 L235 5 L233 6 M113 160 L108 159 L100 155 L92 150 L81 145 L73 145 L65 145 L58 145 L51 145 L48 147 L43 150 L37 158 L31 169 L28 176 L25 180 L20 185 L13 190 L7 191 L3 191 L0 191 " fill="none" stroke="black" /><path d="M247 12 L243 12 L230 12 L223 12 L210 15 L201 19 L190 25 L181 36 L164 72 L158 91 L156 96 L156 100 L157 109 L163 126 L168 147 L174 173 L174 190 L174 197 L173 200 L172 203 L167 208 L157 215 L146 220 L132 230 L123 238 L118 243 L114 246 L112 251 L112 256 L114 263 L126 270 L143 275 L158 276 L177 278 L202 281 L223 285 L267 283 L287 280 L306 278 L326 276 L339 276 L347 276 L361 273 L373 269 L388 260 L403 249 L411 232 L412 217 L409 207 L406 203 L403 200 L397 195 L388 193 L375 190 L355 185 L342 182 L335 179 L329 175 L326 170 L323 164 L323 157 L324 150 L326 144 L333 116 L337 51 L333 35 L333 32 L331 30 L330 29 L328 25 L321 20 L314 15 L305 12 L294 7 L283 4 L273 2 L264 0 L258 0 L253 0 L248 0 L245 0 L240 2 L235 5 L233 6 M113 160 L108 159 L100 155 L92 150 L81 145 L73 145 L65 145 L58 145 L51 145 L48 147 L43 150 L37 158 L31 169 L28 176 L25 180 L20 185 L13 190 L7 191 L3 191 L0 191 M194 319 L193 319 L190 320 L187 322 L183 323 L183 325 L180 329 L180 335 L180 340 L181 348 L183 354 L185 359 L188 363 L188 367 L189 370 L189 375 L188 379 L186 381 L184 383 L198 385 " fill="none" stroke="black" /><path d="M247 12 L243 12 L230 12 L223 12 L210 15 L201 19 L190 25 L181 36 L164 72 L158 91 L156 96 L156 100 L157 109 L163 126 L168 147 L174 173 L174 190 L174 197 L173 200 L172 203 L167 208 L157 215 L146 220 L132 230 L123 238 L118 243 L114 246 L112 251 L112 256 L114 263 L126 270 L143 275 L158 276 L177 278 L202 281 L223 285 L267 283 L287 280 L306 278 L326 276 L339 276 L347 276 L361 273 L373 269 L388 260 L403 249 L411 232 L412 217 L409 207 L406 203 L403 200 L397 195 L388 193 L375 190 L355 185 L342 182 L335 179 L329 175 L326 170 L323 164 L323 157 L324 150 L326 144 L333 116 L337 51 L333 35 L333 32 L331 30 L330 29 L328 25 L321 20 L314 15 L305 12 L294 7 L283 4 L273 2 L264 0 L258 0 L253 0 L248 0 L245 0 L240 2 L235 5 L233 6 M113 160 L108 159 L100 155 L92 150 L81 145 L73 145 L65 145 L58 145 L51 145 L48 147 L43 150 L37 158 L31 169 L28 176 L25 180 L20 185 L13 190 L7 191 L3 191 L0 191 M194 319 L193 319 L190 320 L187 322 L183 323 L183 325 L180 329 L180 335 L180 340 L181 348 L183 354 L185 359 L188 363 L188 367 L189 370 L189 375 L188 379 L186 381 L184 383 L198 385 M356 309 L367 312 L379 315 L384 320 L386 321 L387 324 L388 327 L388 333 L388 340 L388 347 L390 353 L391 355 " fill="none" stroke="black" /><path d="M247 12 L243 12 L230 12 L223 12 L210 15 L201 19 L190 25 L181 36 L164 72 L158 91 L156 96 L156 100 L157 109 L163 126 L168 147 L174 173 L174 190 L174 197 L173 200 L172 203 L167 208 L157 215 L146 220 L132 230 L123 238 L118 243 L114 246 L112 251 L112 256 L114 263 L126 270 L143 275 L158 276 L177 278 L202 281 L223 285 L267 283 L287 280 L306 278 L326 276 L339 276 L347 276 L361 273 L373 269 L388 260 L403 249 L411 232 L412 217 L409 207 L406 203 L403 200 L397 195 L388 193 L375 190 L355 185 L342 182 L335 179 L329 175 L326 170 L323 164 L323 157 L324 150 L326 144 L333 116 L337 51 L333 35 L333 32 L331 30 L330 29 L328 25 L321 20 L314 15 L305 12 L294 7 L283 4 L273 2 L264 0 L258 0 L253 0 L248 0 L245 0 L240 2 L235 5 L233 6 M113 160 L108 159 L100 155 L92 150 L81 145 L73 145 L65 145 L58 145 L51 145 L48 147 L43 150 L37 158 L31 169 L28 176 L25 180 L20 185 L13 190 L7 191 L3 191 L0 191 M194 319 L193 319 L190 320 L187 322 L183 323 L183 325 L180 329 L180 335 L180 340 L181 348 L183 354 L185 359 L188 363 L188 367 L189 370 L189 375 L188 379 L186 381 L184 383 L198 385 M356 309 L367 312 L379 315 L384 320 L386 321 L387 324 L388 327 L388 333 L388 340 L388 347 L390 353 L391 355 M447 168 L455 162 L462 160 L467 158 L471 158 L474 158 L478 160 L483 160 L492 161 L498 162 L504 162 " fill="none" stroke="black" /></svg>