<?xml version="1.0" encoding="utf-8" ?>
<svg baseProfile="tiny" height="90" version="1.2" viewBox="-3 -3 448 90" width="448" xmlns="http://www.w3.org/2000/svg" xmlns:ev="http://www.w3.org/2001/xml-events" xmlns:xlink="http://www.w3.org/1999/xlink"><defs /><path d="M0 87 L3 85 L13 72 L26 48 L29 40 L29 36 L29 34 L32 33 L34 33 L37 34 L41 37 L48 42 L54 45 L60 46 L64 47 L67 47 L70 47 L73 47 L77 48 L94 52 L114 58 L129 59 L137 56 L139 54 L141 52 L145 50 L154 50 L164 51 L170 51 L174 50 L178 50 L188 51 L229 55 L253 55 L258 55 L262 57 L269 57 L274 57 L277 58 L284 60 L294 60 L302 60 L310 60 L319 60 L336 60 L354 59 L365 59 L368 59 L372 59 L384 59 L392 59 L404 59 L409 59 L414 59 L419 59 L422 59 L424 59 L428 56 L430 54 L433 52 L435 52 L439 50 L442 49 L444 48 L447 46 L448 46 " fill="none" stroke="black" /><path d="M0 87 L3 85 L13 72 L26 48 L29 40 L29 36 L29 34 L32 33 L34 33 L37 34 L41 37 L48 42 L54 45 L60 46 L64 47 L67 47 L70 47 L73 47 L77 48 L94 52 L114 58 L129 59 L137 56 L139 54 L141 52 L145 50 L154 50 L164 51 L170 51 L174 50 L178 50 L188 51 L229 55 L253 55 L258 55 L262 57 L269 57 L274 57 L277 58 L284 60 L294 60 L302 60 L310 60 L319 60 L336 60 L354 59 L365 59 L368 59 L372 59 L384 59 L392 59 L404 59 L409 59 L414 59 L419 59 L422 59 L424 59 L428 56 L430 54 L433 52 L435 52 L439 50 L442 49 L444 48 L447 46 L448 46 M12 44 L14 46 L20 52 L22 53 L27 53 L48 26 L64 5 L66 0 L68 0 L69 0 L74 9 L84 40 L90 57 L93 62 L94 64 L97 64 L110 32 L115 17 L115 15 L117 15 L128 37 L134 75 L135 88 L135 90 L137 90 L138 79 L134 61 L130 57 L127 56 L124 65 L124 77 L124 81 L119 81 L62 60 L38 54 L37 54 L36 54 L36 55 L44 60 L48 62 L49 63 L49 60 L39 50 L36 46 L47 40 L114 56 L134 60 L137 60 L135 57 L128 51 L125 49 L124 48 L124 50 L127 53 L128 54 " fill="none" stroke="black" /><path d="M0 87 L3 85 L13 72 L26 48 L29 40 L29 36 L29 34 L32 33 L34 33 L37 34 L41 37 L48 42 L54 45 L60 46 L64 47 L67 47 L70 47 L73 47 L77 48 L94 52 L114 58 L129 59 L137 56 L139 54 L141 52 L145 50 L154 50 L164 51 L170 51 L174 50 L178 50 L188 51 L229 55 L253 55 L258 55 L262 57 L269 57 L274 57 L277 58 L284 60 L294 60 L302 60 L310 60 L319 60 L336 60 L354 59 L365 59 L368 59 L372 59 L384 59 L392 59 L404 59 L409 59 L414 59 L419 59 L422 59 L424 59 L428 56 L430 54 L433 52 L435 52 L439 50 L442 49 L444 48 L447 46 L448 46 M12 44 L14 46 L20 52 L22 53 L27 53 L48 26 L64 5 L66 0 L68 0 L69 0 L74 9 L84 40 L90 57 L93 62 L94 64 L97 64 L110 32 L115 17 L115 15 L117 15 L128 37 L134 75 L135 88 L135 90 L137 90 L138 79 L134 61 L130 57 L127 56 L124 65 L124 77 L124 81 L119 81 L62 60 L38 54 L37 54 L36 54 L36 55 L44 60 L48 62 L49 63 L49 60 L39 50 L36 46 L47 40 L114 56 L134 60 L137 60 L135 57 L128 51 L125 49 L124 48 L124 50 L127 53 L128 54 M189 61 L200 64 L243 67 L274 68 L296 70 L309 70 L321 68 L343 65 L369 65 L382 65 L392 65 L400 65 L409 65 L417 65 L422 65 L426 65 " fill="none" stroke="black" /></svg>