<?xml version="1.0" encoding="utf-8" ?>
<svg baseProfile="tiny" height="386" version="1.2" viewBox="-3 -3 247 386" width="247" xmlns="http://www.w3.org/2000/svg" xmlns:ev="http://www.w3.org/2001/xml-events" xmlns:xlink="http://www.w3.org/1999/xlink"><defs /><path d="M0 0 L17 36 L123 226 L190 318 L219 351 L220 353 L219 353 L218 353 L217 353 L216 353 L216 352 L215 352 L217 350 L221 349 L213 358 L207 363 L213 361 L218 358 L220 357 L216 358 L214 360 L218 359 L220 356 L199 354 L187 353 L185 353 L189 353 L210 358 L217 363 L213 361 L201 353 L199 351 L210 350 L227 353 L229 354 L217 349 L210 345 L210 341 L223 336 L227 335 L205 350 L184 356 L190 349 L237 338 L247 338 L239 345 L227 351 L221 359 L220 365 L230 371 L237 372 L238 373 L224 373 L213 368 L211 363 L215 359 L217 359 L216 359 L207 343 L208 335 L212 333 L213 345 L195 373 L189 380 L188 380 L197 369 L205 359 L205 355 L176 361 L160 373 L159 377 L161 378 L195 374 L227 381 L234 384 L235 386 L230 380 L230 378 " fill="none" stroke="black" /></svg>