<?xml version="1.0" encoding="utf-8" ?>
<svg baseProfile="tiny" height="426" version="1.2" viewBox="-3 -3 974 426" width="974" xmlns="http://www.w3.org/2000/svg" xmlns:ev="http://www.w3.org/2001/xml-events" xmlns:xlink="http://www.w3.org/1999/xlink"><defs /><path d="M413 85 L405 84 L376 80 L325 70 L311 70 L308 70 L312 110 L355 230 L354 259 L321 258 L215 236 L148 225 L137 223 L142 228 L157 248 L160 269 L114 278 L84 268 L75 266 L73 266 L83 286 L94 317 L94 324 L66 335 L23 337 L11 337 L7 338 L7 340 L14 344 L20 345 L22 346 L19 346 L0 344 " fill="none" stroke="black" /><path d="M413 85 L405 84 L376 80 L325 70 L311 70 L308 70 L312 110 L355 230 L354 259 L321 258 L215 236 L148 225 L137 223 L142 228 L157 248 L160 269 L114 278 L84 268 L75 266 L73 266 L83 286 L94 317 L94 324 L66 335 L23 337 L11 337 L7 338 L7 340 L14 344 L20 345 L22 346 L19 346 L0 344 M443 301 L451 300 L462 306 L488 334 L527 369 L555 377 L582 348 L602 309 L607 295 L607 292 L615 290 L633 300 L680 325 L686 326 L707 299 L721 264 L727 251 L734 245 L757 244 L800 259 L809 265 L812 267 L817 259 L831 242 L864 219 L897 213 L949 193 L971 164 L974 139 L974 133 " fill="none" stroke="black" /><path d="M413 85 L405 84 L376 80 L325 70 L311 70 L308 70 L312 110 L355 230 L354 259 L321 258 L215 236 L148 225 L137 223 L142 228 L157 248 L160 269 L114 278 L84 268 L75 266 L73 266 L83 286 L94 317 L94 324 L66 335 L23 337 L11 337 L7 338 L7 340 L14 344 L20 345 L22 346 L19 346 L0 344 M443 301 L451 300 L462 306 L488 334 L527 369 L555 377 L582 348 L602 309 L607 295 L607 292 L615 290 L633 300 L680 325 L686 326 L707 299 L721 264 L727 251 L734 245 L757 244 L800 259 L809 265 L812 267 L817 259 L831 242 L864 219 L897 213 L949 193 L971 164 L974 139 L974 133 M682 97 L617 52 L493 9 L410 0 L334 5 L279 37 L241 80 L224 147 L242 244 L314 357 L439 426 L546 410 L586 364 L600 281 L592 218 L548 183 L434 180 L369 190 L334 234 L333 286 L393 335 L501 359 L572 330 L590 263 L537 226 L447 218 L397 224 L394 235 L423 290 L475 323 L511 322 L513 314 L496 298 L467 292 L466 292 " fill="none" stroke="black" /></svg>