<?xml version="1.0" encoding="utf-8" ?>
<svg baseProfile="tiny" height="481" version="1.2" viewBox="-3 -3 524 481" width="524" xmlns="http://www.w3.org/2000/svg" xmlns:ev="http://www.w3.org/2001/xml-events" xmlns:xlink="http://www.w3.org/1999/xlink"><defs /><path d="M0 129 L49 249 L77 331 L90 372 L93 381 L93 383 L93 382 L138 308 L265 101 L291 46 L292 46 L290 46 L290 47 L291 51 L332 196 L381 341 L434 431 L464 476 L467 480 L467 481 L467 478 L467 476 " fill="none" stroke="black" /><path d="M0 129 L49 249 L77 331 L90 372 L93 381 L93 383 L93 382 L138 308 L265 101 L291 46 L292 46 L290 46 L290 47 L291 51 L332 196 L381 341 L434 431 L464 476 L467 480 L467 481 L467 478 L467 476 M92 130 L104 149 L131 213 L154 285 L182 363 L200 409 L208 422 L209 423 L209 424 L214 421 L241 397 L336 281 L442 111 L514 10 L523 0 L524 0 " fill="none" stroke="black" /></svg>