<?xml version="1.0" encoding="utf-8" ?>
<svg baseProfile="tiny" height="379" version="1.2" viewBox="-3 -3 529 379" width="529" xmlns="http://www.w3.org/2000/svg" xmlns:ev="http://www.w3.org/2001/xml-events" xmlns:xlink="http://www.w3.org/1999/xlink"><defs /><path d="M242 107 L223 116 L48 195 L0 225 L1 225 L122 218 L238 211 L248 212 L233 221 L148 278 L138 295 L141 298 L148 294 L191 224 L205 211 L213 221 L253 313 L293 379 L290 350 L249 241 L213 205 L210 203 L323 201 L490 201 L529 199 L493 180 L408 190 L372 206 L382 206 L498 182 L528 171 L482 153 L378 155 L295 166 L288 163 L351 123 L418 98 L418 96 L338 102 L270 113 L265 115 L368 59 L385 35 L378 26 L343 24 L294 65 L283 100 L283 108 L283 92 L253 15 L235 0 L233 1 L254 106 L264 161 L265 167 L247 150 L158 78 L136 63 L135 63 L163 125 L211 215 L228 233 L228 230 L168 181 L105 145 L100 141 L119 145 L273 194 L358 221 L383 223 L320 214 L215 202 L193 198 L201 195 L315 166 L347 173 L347 175 L209 206 L160 219 L184 205 L316 135 L333 129 L235 150 L145 164 L138 166 L138 165 L138 164 L138 160 L136 156 L118 150 L109 150 L108 151 L208 186 L247 203 L248 203 L242 201 L223 195 L221 194 L220 194 " fill="none" stroke="black" /></svg>