<?xml version="1.0" encoding="utf-8" ?>
<svg baseProfile="tiny" height="63" version="1.2" viewBox="-3 -3 236 63" width="236" xmlns="http://www.w3.org/2000/svg" xmlns:ev="http://www.w3.org/2001/xml-events" xmlns:xlink="http://www.w3.org/1999/xlink"><defs /><path d="M3 7 L6 8 L7 9 L10 10 L13 10 L16 11 L19 12 L22 12 L25 12 L27 12 L31 12 L34 12 L37 12 L40 12 L44 11 L46 10 L50 9 L54 8 L56 8 L61 7 L64 5 L67 4 L71 4 L76 3 L80 1 L82 0 L86 0 L90 0 L93 0 L96 1 L99 1 L103 1 L106 2 L109 4 L112 4 L115 5 L119 6 L121 7 L125 8 L128 9 L131 10 L134 10 L138 10 L142 10 L146 10 L149 10 L153 9 L156 9 L159 8 L162 8 L166 7 L170 6 L172 5 L176 4 L179 4 L181 3 L183 2 L186 1 L190 1 L193 1 L196 1 L200 1 L204 2 L207 4 L211 4 L213 5 L216 6 L218 7 L221 8 L223 9 L225 9 L227 10 L229 12 L231 13 L233 14 L236 14 " fill="none" stroke="black" /><path d="M3 7 L6 8 L7 9 L10 10 L13 10 L16 11 L19 12 L22 12 L25 12 L27 12 L31 12 L34 12 L37 12 L40 12 L44 11 L46 10 L50 9 L54 8 L56 8 L61 7 L64 5 L67 4 L71 4 L76 3 L80 1 L82 0 L86 0 L90 0 L93 0 L96 1 L99 1 L103 1 L106 2 L109 4 L112 4 L115 5 L119 6 L121 7 L125 8 L128 9 L131 10 L134 10 L138 10 L142 10 L146 10 L149 10 L153 9 L156 9 L159 8 L162 8 L166 7 L170 6 L172 5 L176 4 L179 4 L181 3 L183 2 L186 1 L190 1 L193 1 L196 1 L200 1 L204 2 L207 4 L211 4 L213 5 L216 6 L218 7 L221 8 L223 9 L225 9 L227 10 L229 12 L231 13 L233 14 L236 14 M0 56 L1 56 L3 59 L6 59 L8 61 L11 62 L15 63 L17 63 L21 63 L24 63 L27 62 L31 61 L34 60 L37 58 L41 56 L43 55 L47 54 L51 53 L56 52 L60 51 L66 51 L71 51 L76 51 L81 51 L85 52 L87 54 L91 54 L93 54 L97 57 L101 58 L104 59 L107 59 L109 59 L113 59 L117 58 L121 56 L125 54 L130 54 L133 53 L138 51 L142 51 L146 49 L150 48 L152 48 L156 48 L159 48 L161 48 L165 49 L167 49 L171 50 L174 50 L176 51 L179 52 L182 54 L186 54 L189 56 L191 57 L193 58 L195 59 L196 60 L198 60 L201 60 L204 60 L206 60 L207 60 L210 60 L211 60 L213 59 L215 59 L217 58 L220 58 " fill="none" stroke="black" /></svg>