<?xml version="1.0" encoding="utf-8" ?>
<svg baseProfile="tiny" height="322" version="1.2" viewBox="-3 -3 368 322" width="368" xmlns="http://www.w3.org/2000/svg" xmlns:ev="http://www.w3.org/2001/xml-events" xmlns:xlink="http://www.w3.org/1999/xlink"><defs /><path d="M175 5 L175 0 L177 8 L180 70 L182 155 L181 273 L185 314 L189 322 L190 322 " fill="none" stroke="black" /><path d="M175 5 L175 0 L177 8 L180 70 L182 155 L181 273 L185 314 L189 322 L190 322 M0 172 L96 162 L202 139 L246 131 L249 131 L239 132 L95 152 L43 160 L111 159 L199 155 L209 155 L129 168 L42 194 L39 195 L205 140 L288 108 L251 128 L176 160 L186 154 L338 65 L368 55 L279 109 L204 147 L227 141 L308 109 L315 114 L238 157 L203 177 L231 160 L262 140 L243 148 L163 185 L158 186 L227 155 L237 145 L151 149 L90 162 L93 161 L209 143 L234 143 L234 145 L196 163 L179 172 L192 178 L211 178 L148 149 L58 130 L40 127 L52 130 L58 135 " fill="none" stroke="black" /></svg>