<?xml version="1.0" encoding="utf-8" ?>
<svg baseProfile="tiny" height="260" version="1.2" viewBox="-3 -3 762 260" width="762" xmlns="http://www.w3.org/2000/svg" xmlns:ev="http://www.w3.org/2001/xml-events" xmlns:xlink="http://www.w3.org/1999/xlink"><defs /><path d="M0 154 L20 156 L41 158 L68 159 L81 160 L86 160 L88 160 L89 160 L133 31 L141 1 L140 0 L140 1 L157 121 L169 237 L187 260 L235 142 L239 68 L231 38 L230 35 L231 46 L237 133 L240 180 L246 183 L277 110 L280 77 L276 74 L273 78 L280 123 L287 154 L290 160 L295 158 L296 154 L297 153 L297 150 L298 148 L301 147 L304 145 L313 143 L361 135 L425 138 L496 135 L514 136 L515 138 " fill="none" stroke="black" /><path d="M0 154 L20 156 L41 158 L68 159 L81 160 L86 160 L88 160 L89 160 L133 31 L141 1 L140 0 L140 1 L157 121 L169 237 L187 260 L235 142 L239 68 L231 38 L230 35 L231 46 L237 133 L240 180 L246 183 L277 110 L280 77 L276 74 L273 78 L280 123 L287 154 L290 160 L295 158 L296 154 L297 153 L297 150 L298 148 L301 147 L304 145 L313 143 L361 135 L425 138 L496 135 L514 136 L515 138 M140 198 L144 202 L164 208 L210 213 L247 213 L293 215 L312 218 L315 220 L316 221 L317 219 L325 198 L334 178 L337 171 L338 169 L341 170 L355 193 L365 210 L370 215 L371 218 L372 218 L374 212 L378 189 L378 183 L378 182 L383 184 L400 208 L407 219 L409 222 L414 221 L420 206 L423 188 L425 177 L425 174 L425 172 L425 171 L427 175 L429 182 L430 189 L431 192 L432 195 L433 196 L435 198 L437 198 L451 200 L515 202 L582 208 L603 210 L605 211 L605 212 " fill="none" stroke="black" /><path d="M0 154 L20 156 L41 158 L68 159 L81 160 L86 160 L88 160 L89 160 L133 31 L141 1 L140 0 L140 1 L157 121 L169 237 L187 260 L235 142 L239 68 L231 38 L230 35 L231 46 L237 133 L240 180 L246 183 L277 110 L280 77 L276 74 L273 78 L280 123 L287 154 L290 160 L295 158 L296 154 L297 153 L297 150 L298 148 L301 147 L304 145 L313 143 L361 135 L425 138 L496 135 L514 136 L515 138 M140 198 L144 202 L164 208 L210 213 L247 213 L293 215 L312 218 L315 220 L316 221 L317 219 L325 198 L334 178 L337 171 L338 169 L341 170 L355 193 L365 210 L370 215 L371 218 L372 218 L374 212 L378 189 L378 183 L378 182 L383 184 L400 208 L407 219 L409 222 L414 221 L420 206 L423 188 L425 177 L425 174 L425 172 L425 171 L427 175 L429 182 L430 189 L431 192 L432 195 L433 196 L435 198 L437 198 L451 200 L515 202 L582 208 L603 210 L605 211 L605 212 M191 93 L194 93 L231 105 L270 110 L287 110 L306 110 L336 111 L347 112 L353 113 L353 114 L354 113 L356 106 L360 90 L363 82 L363 79 L365 78 L369 83 L375 96 L379 102 L380 104 L383 102 L402 67 L409 55 L410 53 L411 53 L415 62 L420 80 L423 87 L425 88 L426 90 L437 84 L453 64 L455 61 L456 60 L461 61 L468 67 L480 82 L485 85 L491 87 L506 65 L517 38 L517 36 L517 35 L519 35 L570 50 L726 58 L760 59 L762 61 L760 63 L759 63 " fill="none" stroke="black" /></svg>