<?xml version="1.0" encoding="utf-8" ?>
<svg baseProfile="tiny" height="406" version="1.2" viewBox="-3 -3 487 406" width="487" xmlns="http://www.w3.org/2000/svg" xmlns:ev="http://www.w3.org/2001/xml-events" xmlns:xlink="http://www.w3.org/1999/xlink"><defs /><path d="M243 82 L236 83 L227 88 L223 91 L218 98 L214 105 L213 108 L213 112 L213 114 L217 117 L221 118 L231 119 L237 119 L240 119 L242 118 L243 118 L246 116 L248 114 L249 112 L250 110 L252 108 L252 104 L253 100 L253 98 L253 95 L253 93 L253 92 L253 88 L251 88 L250 88 L248 86 " fill="none" stroke="black" /><path d="M243 82 L236 83 L227 88 L223 91 L218 98 L214 105 L213 108 L213 112 L213 114 L217 117 L221 118 L231 119 L237 119 L240 119 L242 118 L243 118 L246 116 L248 114 L249 112 L250 110 L252 108 L252 104 L253 100 L253 98 L253 95 L253 93 L253 92 L253 88 L251 88 L250 88 L248 86 M250 46 L214 47 L181 57 L164 65 L157 71 L146 83 L136 98 L133 109 L132 138 L181 199 L235 226 L296 223 L334 198 L347 178 L351 151 L347 131 L332 106 L310 79 L280 60 L243 44 L217 34 L210 33 " fill="none" stroke="black" /><path d="M243 82 L236 83 L227 88 L223 91 L218 98 L214 105 L213 108 L213 112 L213 114 L217 117 L221 118 L231 119 L237 119 L240 119 L242 118 L243 118 L246 116 L248 114 L249 112 L250 110 L252 108 L252 104 L253 100 L253 98 L253 95 L253 93 L253 92 L253 88 L251 88 L250 88 L248 86 M250 46 L214 47 L181 57 L164 65 L157 71 L146 83 L136 98 L133 109 L132 138 L181 199 L235 226 L296 223 L334 198 L347 178 L351 151 L347 131 L332 106 L310 79 L280 60 L243 44 L217 34 L210 33 M263 1 L208 0 L153 6 L83 20 L54 30 L30 56 L15 87 L0 170 L27 262 L114 363 L221 406 L311 365 L400 300 L450 236 L487 162 L473 119 L415 77 L337 27 L278 12 L250 6 L243 5 " fill="none" stroke="black" /><path d="M243 82 L236 83 L227 88 L223 91 L218 98 L214 105 L213 108 L213 112 L213 114 L217 117 L221 118 L231 119 L237 119 L240 119 L242 118 L243 118 L246 116 L248 114 L249 112 L250 110 L252 108 L252 104 L253 100 L253 98 L253 95 L253 93 L253 92 L253 88 L251 88 L250 88 L248 86 M250 46 L214 47 L181 57 L164 65 L157 71 L146 83 L136 98 L133 109 L132 138 L181 199 L235 226 L296 223 L334 198 L347 178 L351 151 L347 131 L332 106 L310 79 L280 60 L243 44 L217 34 L210 33 M263 1 L208 0 L153 6 L83 20 L54 30 L30 56 L15 87 L0 170 L27 262 L114 363 L221 406 L311 365 L400 300 L450 236 L487 162 L473 119 L415 77 L337 27 L278 12 L250 6 L243 5 M153 21 L138 26 L119 32 L105 38 L99 41 L94 45 L91 48 L87 53 L82 59 L75 68 L70 80 L66 89 L65 98 L65 108 L65 118 L67 131 L73 153 L78 167 L83 178 L93 191 L107 213 L114 222 L121 231 L129 240 L136 248 L142 253 L159 266 L198 287 L219 298 L228 302 L237 304 L248 308 L259 310 L267 310 L276 310 L285 309 L303 302 L318 291 L333 283 L343 273 L348 268 L353 262 L361 253 L371 238 L378 228 L386 215 L395 198 L406 178 L411 156 L417 89 L413 76 L406 72 L403 71 L400 70 L389 68 L372 63 L361 58 L353 56 L343 53 L334 49 L327 48 L320 47 L315 47 L310 47 L304 46 L298 44 L289 43 L278 39 L270 36 L265 35 L260 33 L256 32 L253 32 L251 32 L249 31 " fill="none" stroke="black" /></svg>