<?xml version="1.0" encoding="utf-8" ?>
<svg baseProfile="tiny" height="176" version="1.2" viewBox="-3 -3 257 176" width="257" xmlns="http://www.w3.org/2000/svg" xmlns:ev="http://www.w3.org/2001/xml-events" xmlns:xlink="http://www.w3.org/1999/xlink"><defs /><path d="M101 36 L92 75 L79 120 L74 146 L69 161 L65 170 L65 175 L64 175 L64 176 L73 173 L129 150 L189 135 L229 122 L247 118 L252 117 L254 117 L255 117 L256 117 L256 116 L249 109 L213 84 L174 68 L160 62 L154 60 L149 57 L141 51 L135 46 L129 41 L128 39 L124 38 L122 36 L121 35 L120 35 L119 35 " fill="none" stroke="black" /><path d="M101 36 L92 75 L79 120 L74 146 L69 161 L65 170 L65 175 L64 175 L64 176 L73 173 L129 150 L189 135 L229 122 L247 118 L252 117 L254 117 L255 117 L256 117 L256 116 L249 109 L213 84 L174 68 L160 62 L154 60 L149 57 L141 51 L135 46 L129 41 L128 39 L124 38 L122 36 L121 35 L120 35 L119 35 M59 50 L55 50 L47 49 L42 49 " fill="none" stroke="black" /><path d="M101 36 L92 75 L79 120 L74 146 L69 161 L65 170 L65 175 L64 175 L64 176 L73 173 L129 150 L189 135 L229 122 L247 118 L252 117 L254 117 L255 117 L256 117 L256 116 L249 109 L213 84 L174 68 L160 62 L154 60 L149 57 L141 51 L135 46 L129 41 L128 39 L124 38 L122 36 L121 35 L120 35 L119 35 M59 50 L55 50 L47 49 L42 49 M40 90 L37 90 L33 90 L30 90 L27 90 L25 90 L23 90 L21 90 L20 90 L19 91 " fill="none" stroke="black" /><path d="M101 36 L92 75 L79 120 L74 146 L69 161 L65 170 L65 175 L64 175 L64 176 L73 173 L129 150 L189 135 L229 122 L247 118 L252 117 L254 117 L255 117 L256 117 L256 116 L249 109 L213 84 L174 68 L160 62 L154 60 L149 57 L141 51 L135 46 L129 41 L128 39 L124 38 L122 36 L121 35 L120 35 L119 35 M59 50 L55 50 L47 49 L42 49 M40 90 L37 90 L33 90 L30 90 L27 90 L25 90 L23 90 L21 90 L20 90 L19 91 M27 130 L23 132 L18 133 L12 135 L8 135 L5 135 L3 135 L2 135 L0 135 " fill="none" stroke="black" /><path d="M101 36 L92 75 L79 120 L74 146 L69 161 L65 170 L65 175 L64 175 L64 176 L73 173 L129 150 L189 135 L229 122 L247 118 L252 117 L254 117 L255 117 L256 117 L256 116 L249 109 L213 84 L174 68 L160 62 L154 60 L149 57 L141 51 L135 46 L129 41 L128 39 L124 38 L122 36 L121 35 L120 35 L119 35 M59 50 L55 50 L47 49 L42 49 M40 90 L37 90 L33 90 L30 90 L27 90 L25 90 L23 90 L21 90 L20 90 L19 91 M27 130 L23 132 L18 133 L12 135 L8 135 L5 135 L3 135 L2 135 L0 135 M179 25 L197 15 L213 4 L218 2 L219 1 L221 0 L222 0 " fill="none" stroke="black" /><path d="M101 36 L92 75 L79 120 L74 146 L69 161 L65 170 L65 175 L64 175 L64 176 L73 173 L129 150 L189 135 L229 122 L247 118 L252 117 L254 117 L255 117 L256 117 L256 116 L249 109 L213 84 L174 68 L160 62 L154 60 L149 57 L141 51 L135 46 L129 41 L128 39 L124 38 L122 36 L121 35 L120 35 L119 35 M59 50 L55 50 L47 49 L42 49 M40 90 L37 90 L33 90 L30 90 L27 90 L25 90 L23 90 L21 90 L20 90 L19 91 M27 130 L23 132 L18 133 L12 135 L8 135 L5 135 L3 135 L2 135 L0 135 M179 25 L197 15 L213 4 L218 2 L219 1 L221 0 L222 0 M218 38 L220 38 L223 37 L227 36 " fill="none" stroke="black" /><path d="M101 36 L92 75 L79 120 L74 146 L69 161 L65 170 L65 175 L64 175 L64 176 L73 173 L129 150 L189 135 L229 122 L247 118 L252 117 L254 117 L255 117 L256 117 L256 116 L249 109 L213 84 L174 68 L160 62 L154 60 L149 57 L141 51 L135 46 L129 41 L128 39 L124 38 L122 36 L121 35 L120 35 L119 35 M59 50 L55 50 L47 49 L42 49 M40 90 L37 90 L33 90 L30 90 L27 90 L25 90 L23 90 L21 90 L20 90 L19 91 M27 130 L23 132 L18 133 L12 135 L8 135 L5 135 L3 135 L2 135 L0 135 M179 25 L197 15 L213 4 L218 2 L219 1 L221 0 L222 0 M218 38 L220 38 L223 37 L227 36 M229 74 L249 73 L254 73 L257 73 " fill="none" stroke="black" /></svg>