<?xml version="1.0" encoding="utf-8" ?>
<svg baseProfile="tiny" height="185" version="1.2" viewBox="-3 -3 282 185" width="282" xmlns="http://www.w3.org/2000/svg" xmlns:ev="http://www.w3.org/2001/xml-events" xmlns:xlink="http://www.w3.org/1999/xlink"><defs /><path d="M0 0 L39 17 L84 55 L113 92 L129 116 L132 124 " fill="none" stroke="black" /><path d="M0 0 L39 17 L84 55 L113 92 L129 116 L132 124 M106 114 L113 111 L119 111 L118 112 L79 141 L64 152 L66 153 L101 137 L124 131 L124 132 L115 137 L114 140 L132 145 L161 147 L164 148 L157 148 L132 139 L129 135 " fill="none" stroke="black" /><path d="M0 0 L39 17 L84 55 L113 92 L129 116 L132 124 M106 114 L113 111 L119 111 L118 112 L79 141 L64 152 L66 153 L101 137 L124 131 L124 132 L115 137 L114 140 L132 145 L161 147 L164 148 L157 148 L132 139 L129 135 M184 40 L192 48 L215 81 L224 98 L228 109 L230 117 L236 137 L240 155 L242 165 " fill="none" stroke="black" /><path d="M0 0 L39 17 L84 55 L113 92 L129 116 L132 124 M106 114 L113 111 L119 111 L118 112 L79 141 L64 152 L66 153 L101 137 L124 131 L124 132 L115 137 L114 140 L132 145 L161 147 L164 148 L157 148 L132 139 L129 135 M184 40 L192 48 L215 81 L224 98 L228 109 L230 117 L236 137 L240 155 L242 165 M241 173 L246 174 L267 164 L272 159 L272 152 L256 146 L244 147 L243 149 L248 148 L251 147 L252 147 L239 150 L224 155 L222 159 L228 161 L247 164 L249 169 L228 177 L216 177 L217 177 L247 173 L254 175 L251 175 L215 165 L207 163 L255 153 L282 160 L281 165 L263 162 L234 142 L228 139 L227 139 L241 154 L250 171 L249 175 L243 166 L240 160 L241 160 L245 174 L247 184 L251 185 L259 165 L260 164 " fill="none" stroke="black" /><path d="M0 0 L39 17 L84 55 L113 92 L129 116 L132 124 M106 114 L113 111 L119 111 L118 112 L79 141 L64 152 L66 153 L101 137 L124 131 L124 132 L115 137 L114 140 L132 145 L161 147 L164 148 L157 148 L132 139 L129 135 M184 40 L192 48 L215 81 L224 98 L228 109 L230 117 L236 137 L240 155 L242 165 M241 173 L246 174 L267 164 L272 159 L272 152 L256 146 L244 147 L243 149 L248 148 L251 147 L252 147 L239 150 L224 155 L222 159 L228 161 L247 164 L249 169 L228 177 L216 177 L217 177 L247 173 L254 175 L251 175 L215 165 L207 163 L255 153 L282 160 L281 165 L263 162 L234 142 L228 139 L227 139 L241 154 L250 171 L249 175 L243 166 L240 160 L241 160 L245 174 L247 184 L251 185 L259 165 L260 164 M99 122 L123 111 L149 96 L153 94 L144 98 L114 115 L96 128 L92 132 L92 133 L97 123 L100 100 L97 94 L97 93 L111 106 L140 137 L150 150 L152 152 L148 151 L134 132 L130 126 L129 125 L128 125 L120 138 L111 157 L110 160 L110 161 L119 153 " fill="none" stroke="black" /></svg>