<?xml version="1.0" encoding="utf-8" ?>
<svg baseProfile="tiny" height="139" version="1.2" viewBox="-3 -3 230 139" width="230" xmlns="http://www.w3.org/2000/svg" xmlns:ev="http://www.w3.org/2001/xml-events" xmlns:xlink="http://www.w3.org/1999/xlink"><defs /><path d="M0 33 L0 32 L2 29 L5 24 L7 19 L10 16 L11 14 L15 11 L16 9 L18 8 L20 8 L23 9 L30 12 L36 15 L40 19 L42 21 L45 23 L47 25 L48 26 L50 29 L52 31 L55 32 L57 33 L58 33 L60 33 L61 32 L64 29 L71 21 L80 12 L85 9 L87 5 L90 4 L90 2 L93 1 L95 0 L100 1 L106 4 L116 10 L130 20 L142 29 L151 33 L154 36 L156 37 L159 39 L161 39 L164 39 L168 36 L180 25 L184 24 L186 20 L188 19 L190 16 L192 14 L193 14 L194 14 L196 14 L203 18 L216 29 L225 38 L230 39 " fill="none" stroke="black" /><path d="M0 33 L0 32 L2 29 L5 24 L7 19 L10 16 L11 14 L15 11 L16 9 L18 8 L20 8 L23 9 L30 12 L36 15 L40 19 L42 21 L45 23 L47 25 L48 26 L50 29 L52 31 L55 32 L57 33 L58 33 L60 33 L61 32 L64 29 L71 21 L80 12 L85 9 L87 5 L90 4 L90 2 L93 1 L95 0 L100 1 L106 4 L116 10 L130 20 L142 29 L151 33 L154 36 L156 37 L159 39 L161 39 L164 39 L168 36 L180 25 L184 24 L186 20 L188 19 L190 16 L192 14 L193 14 L194 14 L196 14 L203 18 L216 29 L225 38 L230 39 M15 124 L16 123 L24 118 L27 117 L30 115 L34 114 L43 116 L56 124 L66 131 L70 134 L73 137 L75 138 L76 139 L78 139 L80 138 L85 134 L94 124 L99 118 L101 115 L105 114 L107 110 L110 110 L114 109 L115 109 L121 111 L126 115 L135 121 L140 125 L144 128 L146 129 L150 129 L158 120 L165 114 L171 109 L179 106 L184 104 L187 104 L195 105 L204 109 L212 113 L216 117 L217 118 " fill="none" stroke="black" /></svg>