<?xml version="1.0" encoding="utf-8" ?>
<svg baseProfile="tiny" height="262" version="1.2" viewBox="-3 -3 405 262" width="405" xmlns="http://www.w3.org/2000/svg" xmlns:ev="http://www.w3.org/2001/xml-events" xmlns:xlink="http://www.w3.org/1999/xlink"><defs /><path d="M197 117 L195 117 L189 120 L185 126 L185 133 L212 148 L235 147 L240 143 L231 134 L199 122 L186 122 L183 122 L184 129 L206 142 L225 139 L222 132 L169 122 L149 126 L147 131 L164 151 L203 152 L216 125 L189 100 L135 102 L130 116 L145 149 L188 169 L199 157 L187 106 L125 105 L96 136 L123 175 L178 185 L204 152 L190 100 L129 99 L114 117 L135 134 L225 127 L246 115 L184 97 L78 120 L60 153 L98 193 L165 201 L233 126 L226 52 L113 36 L25 59 L25 83 L62 150 L153 170 L284 91 L323 37 L269 0 L107 2 L55 46 L35 142 L53 235 L113 262 L286 182 L405 74 L370 27 L239 14 L74 65 L37 107 L54 163 L110 219 L215 209 L318 105 L305 35 L187 1 L63 42 L47 87 L87 158 L168 206 L271 171 L314 92 L257 46 L101 61 L1 127 L0 182 L30 237 L122 251 L211 177 L201 132 L105 93 L76 98 L80 108 L114 137 L133 144 L135 145 " fill="none" stroke="black" /></svg>