<?xml version="1.0" encoding="utf-8" ?>
<svg baseProfile="tiny" height="243" version="1.2" viewBox="-3 -3 340 243" width="340" xmlns="http://www.w3.org/2000/svg" xmlns:ev="http://www.w3.org/2001/xml-events" xmlns:xlink="http://www.w3.org/1999/xlink"><defs /><path d="M0 0 L1 4 L14 31 L41 78 L59 106 L61 111 L64 114 L67 118 L69 119 L71 121 L72 122 L78 118 L100 75 L108 48 L109 45 L110 42 L110 41 L110 38 L110 37 L110 36 L114 40 L126 52 L135 65 L142 77 L151 97 L158 108 L160 111 L160 113 L161 116 L162 116 L162 109 L162 93 L162 79 L162 71 L162 68 L162 64 L162 61 L163 54 L165 49 L168 44 L175 38 L182 33 L190 28 L200 24 L208 22 L220 18 L236 16 L255 16 L269 18 L275 19 L278 21 L283 22 L289 25 L296 29 L306 38 L317 48 L326 58 L334 70 L338 78 L340 92 L340 112 L329 136 L306 176 L290 198 L280 208 L260 223 L250 227 L205 241 L166 243 L156 240 L146 228 L130 200 L125 188 L124 176 L125 160 L131 148 L153 118 L180 88 L193 79 L212 67 L239 55 L251 55 L263 59 L270 63 L272 67 L275 72 L277 81 L277 93 L275 108 L273 116 L267 125 L258 134 L246 143 L233 152 L224 156 L215 158 L201 159 L188 158 L180 153 L178 152 L176 148 L177 142 L183 131 L198 120 L210 117 L219 117 L223 118 L225 119 L226 122 L227 124 L227 127 L226 129 L220 129 L215 129 L212 128 L210 125 L211 122 L217 119 L221 119 L223 120 L225 121 " fill="none" stroke="black" /></svg>