<?xml version="1.0" encoding="utf-8" ?>
<svg baseProfile="tiny" height="358" version="1.2" viewBox="-3 -3 269 358" width="269" xmlns="http://www.w3.org/2000/svg" xmlns:ev="http://www.w3.org/2001/xml-events" xmlns:xlink="http://www.w3.org/1999/xlink"><defs /><path d="M8 0 L7 0 L5 0 L0 4 L0 84 L14 137 L30 163 L61 198 L95 234 L125 272 L150 281 L160 276 L168 247 L164 161 L142 118 L108 58 L87 32 L60 11 L47 5 L38 2 L35 2 L33 2 " fill="none" stroke="black" /><path d="M8 0 L7 0 L5 0 L0 4 L0 84 L14 137 L30 163 L61 198 L95 234 L125 272 L150 281 L160 276 L168 247 L164 161 L142 118 L108 58 L87 32 L60 11 L47 5 L38 2 L35 2 L33 2 M132 275 L170 305 L216 347 L229 356 L232 358 L233 358 L228 350 L205 320 L197 312 L195 310 L195 309 L197 309 L210 316 L219 322 L222 323 L210 306 L179 274 L175 270 L175 269 L176 270 L209 291 L244 310 L251 312 L252 313 L215 280 L174 240 L170 236 L205 253 L258 290 L268 295 L269 293 L255 280 L215 260 L205 255 L204 255 L205 255 L233 269 L246 275 L250 276 L220 250 L138 200 L133 196 L133 195 L155 198 L183 211 L192 220 L194 224 L195 225 L194 222 L188 214 L186 208 L194 205 L234 218 L250 225 L252 227 L250 225 L193 188 L170 175 L168 175 L170 177 L230 234 L255 257 L256 258 L255 255 L235 234 " fill="none" stroke="black" /></svg>