<?xml version="1.0" encoding="utf-8" ?>
<svg baseProfile="tiny" height="186" version="1.2" viewBox="-3 -3 574 186" width="574" xmlns="http://www.w3.org/2000/svg" xmlns:ev="http://www.w3.org/2001/xml-events" xmlns:xlink="http://www.w3.org/1999/xlink"><defs /><path d="M574 94 L572 100 L571 104 L569 109 L568 113 L567 117 L567 119 L567 122 L569 124 L570 126 L571 129 L571 132 L571 136 L570 140 L570 143 L570 147 L570 149 L570 152 L570 153 L570 154 L570 153 L570 152 " fill="none" stroke="black" /><path d="M574 94 L572 100 L571 104 L569 109 L568 113 L567 117 L567 119 L567 122 L569 124 L570 126 L571 129 L571 132 L571 136 L570 140 L570 143 L570 147 L570 149 L570 152 L570 153 L570 154 L570 153 L570 152 M162 48 L171 53 L179 62 L186 71 L191 83 L195 96 L194 108 L191 123 L186 136 L181 147 L176 156 L169 166 L161 174 L144 182 L115 186 L92 186 L67 181 L35 165 L23 159 L15 151 L6 137 L1 127 L0 121 L1 115 L5 105 L21 84 L45 61 L58 50 L66 45 L72 42 L86 39 L96 38 L103 38 L107 39 L111 41 L115 42 L123 43 L130 45 L136 48 L141 50 L144 51 L147 53 L151 54 L158 58 L160 58 L163 58 " fill="none" stroke="black" /><path d="M574 94 L572 100 L571 104 L569 109 L568 113 L567 117 L567 119 L567 122 L569 124 L570 126 L571 129 L571 132 L571 136 L570 140 L570 143 L570 147 L570 149 L570 152 L570 153 L570 154 L570 153 L570 152 M162 48 L171 53 L179 62 L186 71 L191 83 L195 96 L194 108 L191 123 L186 136 L181 147 L176 156 L169 166 L161 174 L144 182 L115 186 L92 186 L67 181 L35 165 L23 159 L15 151 L6 137 L1 127 L0 121 L1 115 L5 105 L21 84 L45 61 L58 50 L66 45 L72 42 L86 39 L96 38 L103 38 L107 39 L111 41 L115 42 L123 43 L130 45 L136 48 L141 50 L144 51 L147 53 L151 54 L158 58 L160 58 L163 58 M383 68 L372 68 L331 72 L324 76 L321 79 L316 88 L311 98 L308 114 L307 123 L309 138 L313 151 L320 163 L326 168 L335 175 L347 179 L359 183 L372 183 L389 178 L400 175 L411 168 L418 161 L422 156 L426 145 L427 133 L427 119 L425 105 L421 96 L418 90 L414 85 L413 83 L409 79 L405 76 L399 73 L393 68 L386 67 L382 66 L380 64 " fill="none" stroke="black" /><path d="M574 94 L572 100 L571 104 L569 109 L568 113 L567 117 L567 119 L567 122 L569 124 L570 126 L571 129 L571 132 L571 136 L570 140 L570 143 L570 147 L570 149 L570 152 L570 153 L570 154 L570 153 L570 152 M162 48 L171 53 L179 62 L186 71 L191 83 L195 96 L194 108 L191 123 L186 136 L181 147 L176 156 L169 166 L161 174 L144 182 L115 186 L92 186 L67 181 L35 165 L23 159 L15 151 L6 137 L1 127 L0 121 L1 115 L5 105 L21 84 L45 61 L58 50 L66 45 L72 42 L86 39 L96 38 L103 38 L107 39 L111 41 L115 42 L123 43 L130 45 L136 48 L141 50 L144 51 L147 53 L151 54 L158 58 L160 58 L163 58 M383 68 L372 68 L331 72 L324 76 L321 79 L316 88 L311 98 L308 114 L307 123 L309 138 L313 151 L320 163 L326 168 L335 175 L347 179 L359 183 L372 183 L389 178 L400 175 L411 168 L418 161 L422 156 L426 145 L427 133 L427 119 L425 105 L421 96 L418 90 L414 85 L413 83 L409 79 L405 76 L399 73 L393 68 L386 67 L382 66 L380 64 M309 143 L294 140 L254 133 L236 131 L225 131 L216 129 L209 129 L203 129 L196 128 L191 128 L186 128 L181 127 L176 127 L170 127 L165 127 L160 127 L154 127 L148 127 L145 127 L142 127 L140 127 L139 127 " fill="none" stroke="black" /><path d="M574 94 L572 100 L571 104 L569 109 L568 113 L567 117 L567 119 L567 122 L569 124 L570 126 L571 129 L571 132 L571 136 L570 140 L570 143 L570 147 L570 149 L570 152 L570 153 L570 154 L570 153 L570 152 M162 48 L171 53 L179 62 L186 71 L191 83 L195 96 L194 108 L191 123 L186 136 L181 147 L176 156 L169 166 L161 174 L144 182 L115 186 L92 186 L67 181 L35 165 L23 159 L15 151 L6 137 L1 127 L0 121 L1 115 L5 105 L21 84 L45 61 L58 50 L66 45 L72 42 L86 39 L96 38 L103 38 L107 39 L111 41 L115 42 L123 43 L130 45 L136 48 L141 50 L144 51 L147 53 L151 54 L158 58 L160 58 L163 58 M383 68 L372 68 L331 72 L324 76 L321 79 L316 88 L311 98 L308 114 L307 123 L309 138 L313 151 L320 163 L326 168 L335 175 L347 179 L359 183 L372 183 L389 178 L400 175 L411 168 L418 161 L422 156 L426 145 L427 133 L427 119 L425 105 L421 96 L418 90 L414 85 L413 83 L409 79 L405 76 L399 73 L393 68 L386 67 L382 66 L380 64 M309 143 L294 140 L254 133 L236 131 L225 131 L216 129 L209 129 L203 129 L196 128 L191 128 L186 128 L181 127 L176 127 L170 127 L165 127 L160 127 L154 127 L148 127 L145 127 L142 127 L140 127 L139 127 M139 7 L132 7 L119 8 L111 10 L105 11 L96 10 L88 7 L81 3 L80 1 L76 0 L73 0 L70 2 L66 6 L63 9 L61 11 L59 13 L57 15 L55 15 L52 15 L49 15 L47 15 L46 15 L45 15 " fill="none" stroke="black" /></svg>