<?xml version="1.0" encoding="utf-8" ?>
<svg baseProfile="tiny" height="310" version="1.2" viewBox="-3 -3 390 310" width="390" xmlns="http://www.w3.org/2000/svg" xmlns:ev="http://www.w3.org/2001/xml-events" xmlns:xlink="http://www.w3.org/1999/xlink"><defs /><path d="M48 55 L48 57 L50 63 L55 72 L63 94 L72 170 L75 232 L76 263 L76 269 L76 270 L76 271 L78 271 L125 264 L245 268 L305 262 L331 254 L335 254 L333 238 L326 203 L324 190 L324 157 L325 136 L325 132 L324 123 L321 89 L320 83 L320 82 L319 80 L319 79 L317 81 L315 82 L310 83 L291 83 L220 83 L167 80 L138 78 L126 77 L114 77 L97 77 L86 77 L80 77 L77 77 L75 77 L73 78 L70 78 L68 79 L64 80 L61 82 L60 82 " fill="none" stroke="black" /><path d="M48 55 L48 57 L50 63 L55 72 L63 94 L72 170 L75 232 L76 263 L76 269 L76 270 L76 271 L78 271 L125 264 L245 268 L305 262 L331 254 L335 254 L333 238 L326 203 L324 190 L324 157 L325 136 L325 132 L324 123 L321 89 L320 83 L320 82 L319 80 L319 79 L317 81 L315 82 L310 83 L291 83 L220 83 L167 80 L138 78 L126 77 L114 77 L97 77 L86 77 L80 77 L77 77 L75 77 L73 78 L70 78 L68 79 L64 80 L61 82 L60 82 M109 61 L118 45 L120 40 L121 38 L125 38 L141 53 L153 63 L159 68 L160 70 L161 71 L163 71 " fill="none" stroke="black" /><path d="M48 55 L48 57 L50 63 L55 72 L63 94 L72 170 L75 232 L76 263 L76 269 L76 270 L76 271 L78 271 L125 264 L245 268 L305 262 L331 254 L335 254 L333 238 L326 203 L324 190 L324 157 L325 136 L325 132 L324 123 L321 89 L320 83 L320 82 L319 80 L319 79 L317 81 L315 82 L310 83 L291 83 L220 83 L167 80 L138 78 L126 77 L114 77 L97 77 L86 77 L80 77 L77 77 L75 77 L73 78 L70 78 L68 79 L64 80 L61 82 L60 82 M109 61 L118 45 L120 40 L121 38 L125 38 L141 53 L153 63 L159 68 L160 70 L161 71 L163 71 M239 49 L240 47 L261 19 L270 9 L273 5 L274 3 L277 0 L278 0 L280 0 L290 6 L298 13 L304 19 L307 22 L309 25 L310 27 " fill="none" stroke="black" /><path d="M48 55 L48 57 L50 63 L55 72 L63 94 L72 170 L75 232 L76 263 L76 269 L76 270 L76 271 L78 271 L125 264 L245 268 L305 262 L331 254 L335 254 L333 238 L326 203 L324 190 L324 157 L325 136 L325 132 L324 123 L321 89 L320 83 L320 82 L319 80 L319 79 L317 81 L315 82 L310 83 L291 83 L220 83 L167 80 L138 78 L126 77 L114 77 L97 77 L86 77 L80 77 L77 77 L75 77 L73 78 L70 78 L68 79 L64 80 L61 82 L60 82 M109 61 L118 45 L120 40 L121 38 L125 38 L141 53 L153 63 L159 68 L160 70 L161 71 L163 71 M239 49 L240 47 L261 19 L270 9 L273 5 L274 3 L277 0 L278 0 L280 0 L290 6 L298 13 L304 19 L307 22 L309 25 L310 27 M105 286 L105 288 L107 292 L109 294 L111 297 L114 299 L115 301 L120 303 L122 306 L125 308 L129 310 L135 310 L150 298 L159 284 L161 280 L162 278 " fill="none" stroke="black" /><path d="M48 55 L48 57 L50 63 L55 72 L63 94 L72 170 L75 232 L76 263 L76 269 L76 270 L76 271 L78 271 L125 264 L245 268 L305 262 L331 254 L335 254 L333 238 L326 203 L324 190 L324 157 L325 136 L325 132 L324 123 L321 89 L320 83 L320 82 L319 80 L319 79 L317 81 L315 82 L310 83 L291 83 L220 83 L167 80 L138 78 L126 77 L114 77 L97 77 L86 77 L80 77 L77 77 L75 77 L73 78 L70 78 L68 79 L64 80 L61 82 L60 82 M109 61 L118 45 L120 40 L121 38 L125 38 L141 53 L153 63 L159 68 L160 70 L161 71 L163 71 M239 49 L240 47 L261 19 L270 9 L273 5 L274 3 L277 0 L278 0 L280 0 L290 6 L298 13 L304 19 L307 22 L309 25 L310 27 M105 286 L105 288 L107 292 L109 294 L111 297 L114 299 L115 301 L120 303 L122 306 L125 308 L129 310 L135 310 L150 298 L159 284 L161 280 L162 278 M202 284 L205 284 L211 287 L217 289 L225 289 L231 288 L239 283 L245 277 L248 274 L250 270 L252 268 L255 266 L257 265 " fill="none" stroke="black" /><path d="M48 55 L48 57 L50 63 L55 72 L63 94 L72 170 L75 232 L76 263 L76 269 L76 270 L76 271 L78 271 L125 264 L245 268 L305 262 L331 254 L335 254 L333 238 L326 203 L324 190 L324 157 L325 136 L325 132 L324 123 L321 89 L320 83 L320 82 L319 80 L319 79 L317 81 L315 82 L310 83 L291 83 L220 83 L167 80 L138 78 L126 77 L114 77 L97 77 L86 77 L80 77 L77 77 L75 77 L73 78 L70 78 L68 79 L64 80 L61 82 L60 82 M109 61 L118 45 L120 40 L121 38 L125 38 L141 53 L153 63 L159 68 L160 70 L161 71 L163 71 M239 49 L240 47 L261 19 L270 9 L273 5 L274 3 L277 0 L278 0 L280 0 L290 6 L298 13 L304 19 L307 22 L309 25 L310 27 M105 286 L105 288 L107 292 L109 294 L111 297 L114 299 L115 301 L120 303 L122 306 L125 308 L129 310 L135 310 L150 298 L159 284 L161 280 L162 278 M202 284 L205 284 L211 287 L217 289 L225 289 L231 288 L239 283 L245 277 L248 274 L250 270 L252 268 L255 266 L257 265 M40 134 L29 151 L13 174 L5 183 L2 187 L0 188 L0 189 L1 193 L10 200 L26 208 L30 212 L33 212 " fill="none" stroke="black" /><path d="M48 55 L48 57 L50 63 L55 72 L63 94 L72 170 L75 232 L76 263 L76 269 L76 270 L76 271 L78 271 L125 264 L245 268 L305 262 L331 254 L335 254 L333 238 L326 203 L324 190 L324 157 L325 136 L325 132 L324 123 L321 89 L320 83 L320 82 L319 80 L319 79 L317 81 L315 82 L310 83 L291 83 L220 83 L167 80 L138 78 L126 77 L114 77 L97 77 L86 77 L80 77 L77 77 L75 77 L73 78 L70 78 L68 79 L64 80 L61 82 L60 82 M109 61 L118 45 L120 40 L121 38 L125 38 L141 53 L153 63 L159 68 L160 70 L161 71 L163 71 M239 49 L240 47 L261 19 L270 9 L273 5 L274 3 L277 0 L278 0 L280 0 L290 6 L298 13 L304 19 L307 22 L309 25 L310 27 M105 286 L105 288 L107 292 L109 294 L111 297 L114 299 L115 301 L120 303 L122 306 L125 308 L129 310 L135 310 L150 298 L159 284 L161 280 L162 278 M202 284 L205 284 L211 287 L217 289 L225 289 L231 288 L239 283 L245 277 L248 274 L250 270 L252 268 L255 266 L257 265 M40 134 L29 151 L13 174 L5 183 L2 187 L0 188 L0 189 L1 193 L10 200 L26 208 L30 212 L33 212 M350 119 L357 124 L375 136 L384 143 L388 146 L390 148 L390 151 L390 153 L380 162 L363 178 L352 186 L345 190 L344 192 L341 193 " fill="none" stroke="black" /></svg>