<?xml version="1.0" encoding="utf-8" ?>
<svg baseProfile="tiny" height="495" version="1.2" viewBox="-3 -3 390 495" width="390" xmlns="http://www.w3.org/2000/svg" xmlns:ev="http://www.w3.org/2001/xml-events" xmlns:xlink="http://www.w3.org/1999/xlink"><defs /><path d="M0 180 L3 193 L5 199 L7 203 L7 205 L9 207 L10 208 L10 209 L10 216 L6 316 L17 337 L20 340 L20 341 L40 219 L68 55 L68 30 L66 23 L66 20 L67 22 L99 176 L126 314 L159 463 L170 490 L175 495 L176 490 L168 415 L167 246 L185 65 L195 4 L197 0 L197 1 L197 2 L200 10 L225 114 L256 251 L297 398 L311 429 L311 430 L305 405 L310 281 L322 226 L325 199 L328 186 L330 180 L333 175 L335 171 L335 170 L346 182 L381 248 L389 277 L390 280 L390 281 " fill="none" stroke="black" /></svg>