<?xml version="1.0" encoding="utf-8" ?>
<svg baseProfile="tiny" height="437" version="1.2" viewBox="-3 -3 1110.800000011921 437" width="1110.8" xmlns="http://www.w3.org/2000/svg" xmlns:ev="http://www.w3.org/2001/xml-events" xmlns:xlink="http://www.w3.org/1999/xlink"><defs /><path d="M0 431 L23 431 L74 433 L112 437 L114 437 L115 414 L126 323 L149 132 L142 16 L142 2 L144 0 L172 0 L287 12 L448 26 L556 35 L583 40 L576 39 L554 38 L523 40 L494 52 L480 77 L484 97 L499 99 L516 78 L520 50 L513 40 L500 44 L492 67 L500 92 L526 102 L556 102 L569 92 L568 82 L561 76 L556 80 L556 96 L570 108 L596 110 L616 100 L619 85 L617 74 L616 74 L610 80 L610 92 L625 96 L648 94 L672 88 L688 86 L691 86 L691 92 L694 106 L712 117 L741 119 L757 111 L766 103 L776 100 L788 100 L806 112 L829 123 L850 124 L864 119 L884 108 L905 100 L927 101 L943 110 L958 118 L980 123 L1008 123 L1040 123 L1064 124 L1086 128 L1110.800000011921 136 " fill="none" stroke="black" /></svg>