<?xml version="1.0" encoding="utf-8" ?>
<svg baseProfile="tiny" height="377" version="1.2" viewBox="-3 -3 569 377" width="569" xmlns="http://www.w3.org/2000/svg" xmlns:ev="http://www.w3.org/2001/xml-events" xmlns:xlink="http://www.w3.org/1999/xlink"><defs /><path d="M0 5 L34 6 L107 5 L136 0 L128 31 L108 138 L93 285 L93 362 L94 377 L95 377 L112 345 L149 281 L156 259 L145 257 L130 276 L132 305 L151 316 L165 313 L169 297 L159 277 L140 271 L134 283 L142 302 L165 310 L193 311 L201 304 L201 302 L201 303 L203 318 L216 330 L240 330 L257 315 L261 297 L260 293 L256 299 L256 313 L267 322 L286 320 L295 310 L295 299 L293 298 L293 301 L300 306 L319 310 L334 306 L336 303 L337 312 L341 318 L345 316 L350 306 L353 300 L354 299 L359 306 L363 318 L367 322 L369 318 L374 306 L380 298 L382 306 L387 317 L392 321 L396 317 L404 306 L409 302 L409 308 L409 322 L412 330 L416 326 L422 314 L428 304 L428 303 L428 306 L430 319 L433 325 L438 324 L445 314 L449 310 L451 310 L452 313 L452 318 L452 322 L453 322 L472 322 L493 318 L512 318 L520 318 L528 317 L538 317 L549 317 L560 317 L568 316 L569 316 L569 314 " fill="none" stroke="black" /></svg>