<?xml version="1.0" encoding="utf-8" ?>
<svg baseProfile="tiny" height="436" version="1.2" viewBox="-3 -3 505 436" width="505" xmlns="http://www.w3.org/2000/svg" xmlns:ev="http://www.w3.org/2001/xml-events" xmlns:xlink="http://www.w3.org/1999/xlink"><defs /><path d="M0 381 L19 355 L65 268 L115 164 L131 120 L134 72 L117 30 L96 3 L91 0 L96 8 L116 29 L139 56 L148 90 L149 135 L144 180 L139 224 L134 267 L129 308 L128 342 L128 370 L133 388 L140 396 L153 387 L179 340 L193 274 L176 193 L153 144 L151 137 L158 140 L183 167 L210 213 L224 271 L220 311 L204 352 L202 390 L209 410 L224 412 L244 385 L259 317 L253 244 L234 180 L238 162 L272 176 L312 211 L328 253 L312 295 L288 336 L273 383 L277 422 L292 436 L312 425 L335 376 L361 295 L356 217 L344 187 L344 184 L370 194 L406 230 L413 270 L393 314 L369 363 L367 404 L380 424 L403 421 L434 372 L452 287 L439 221 L418 178 L416 168 L445 177 L492 211 L505 258 L494 300 L486 337 L493 377 L505 392 " fill="none" stroke="black" /></svg>