<?xml version="1.0" encoding="utf-8" ?>
<svg baseProfile="tiny" height="512" version="1.2" viewBox="-3 -3 536 512" width="536" xmlns="http://www.w3.org/2000/svg" xmlns:ev="http://www.w3.org/2001/xml-events" xmlns:xlink="http://www.w3.org/1999/xlink"><defs /><path d="M0 0 L1 0 " fill="none" stroke="black" /><path d="M0 0 L1 0 M371 240 L469 240 L428 238 L296 235 L260 245 L340 264 L416 272 L384 273 L266 271 L242 279 L325 293 L424 306 L408 307 L282 302 L205 303 L273 321 L438 335 L505 342 L436 342 L294 337 L269 344 L376 363 L498 379 L493 384 L382 385 L269 389 L292 409 L437 435 L535 450 L501 452 L364 451 L268 454 L323 469 L475 478 L536 479 L484 467 L356 436 L320 412 L394 377 L487 339 L461 313 L312 269 L208 235 L236 218 L357 189 L430 169 L394 163 L281 161 L245 177 L298 221 L408 277 L456 319 L396 353 L281 387 L259 411 L340 437 L452 459 L452 473 L354 484 L264 496 L294 507 L406 512 L477 505 L444 467 L313 393 L217 327 L228 273 L348 216 L473 190 L455 178 L324 161 L245 161 L270 179 L372 224 L460 284 L453 323 L365 363 L290 395 L314 428 L440 461 L488 474 L439 474 L352 473 L349 481 L429 495 L497 506 L472 500 L391 483 " fill="none" stroke="black" /></svg>