<?xml version="1.0" encoding="utf-8" ?>
<svg baseProfile="tiny" height="328" version="1.2" viewBox="-3 -3 382 328" width="382" xmlns="http://www.w3.org/2000/svg" xmlns:ev="http://www.w3.org/2001/xml-events" xmlns:xlink="http://www.w3.org/1999/xlink"><defs /><path d="M0 306 L6 291 L29 218 L43 112 L31 32 L18 0 L18 17 L18 104 L17 231 L23 311 L28 328 L38 308 L66 210 L74 131 L73 120 L73 150 L71 243 L71 310 L72 319 L90 273 L107 183 L109 141 L107 143 L107 200 L106 271 L108 292 L116 274 L127 207 L123 138 L119 123 L116 164 L115 245 L114 304 L115 312 L123 281 L137 213 L144 157 L144 152 L144 191 L144 269 L147 308 L154 302 L170 248 L181 176 L181 151 L179 159 L171 231 L167 299 L167 316 L176 299 L191 232 L194 170 L189 155 L187 177 L184 244 L185 293 L191 295 L206 259 L222 202 L230 171 L229 173 L222 216 L219 273 L223 295 L231 289 L244 255 L255 221 L255 213 L253 227 L247 267 L248 303 L256 306 L275 279 L291 239 L291 220 L290 221 L280 251 L278 286 L282 298 L291 286 L303 253 L307 232 L299 257 L296 285 L299 291 L315 276 L327 255 L328 251 L323 263 L321 282 L334 287 L362 274 L382 254 " fill="none" stroke="black" /></svg>