<?xml version="1.0" encoding="utf-8" ?>
<svg baseProfile="tiny" height="81" version="1.2" viewBox="-3 -3 539 81" width="539" xmlns="http://www.w3.org/2000/svg" xmlns:ev="http://www.w3.org/2001/xml-events" xmlns:xlink="http://www.w3.org/1999/xlink"><defs /><path d="M0 79 L1 68 L2 56 L3 47 L4 40 L8 35 L13 31 L16 31 L28 32 L38 37 L41 42 L43 49 L44 55 L45 59 L45 65 L45 70 L46 76 L47 79 L48 81 L51 81 L52 79 L53 78 L53 76 L53 75 L53 74 L54 71 L55 69 L55 66 L56 64 L57 62 L58 59 L58 55 L59 52 L59 51 L60 48 L60 45 L60 43 L60 39 L60 34 L60 29 L60 22 L60 15 L60 11 L60 7 L59 5 L59 3 L59 1 L59 0 L60 0 L66 5 L72 11 L75 18 L78 25 L80 35 L84 42 L85 48 L88 56 L92 63 L95 68 L98 70 L101 70 L106 65 L112 57 L114 46 L115 35 L116 26 L118 23 L122 22 L132 23 L143 26 L152 30 L157 33 L160 39 L164 45 L171 51 L180 55 L193 56 L207 56 L220 56 L231 56 L240 55 L250 55 L262 55 L274 55 L286 55 L298 55 L311 55 L322 55 L330 55 L337 54 L342 52 L344 49 L346 43 L348 34 L348 27 L349 24 L352 22 L362 19 L374 16 L384 15 L397 15 L404 19 L408 25 L410 37 L413 49 L417 55 L421 56 L428 54 L442 46 L460 39 L477 35 L494 34 L513 34 L528 35 L534 36 L539 36 " fill="none" stroke="black" /></svg>