<?xml version="1.0" encoding="utf-8" ?>
<svg baseProfile="tiny" height="386" version="1.2" viewBox="-3 -3 527 386" width="527" xmlns="http://www.w3.org/2000/svg" xmlns:ev="http://www.w3.org/2001/xml-events" xmlns:xlink="http://www.w3.org/1999/xlink"><defs /><path d="M157 87 L129 83 L152 83 L200 87 L180 88 L118 88 L132 99 L241 129 L276 140 L207 143 L123 164 L168 232 L300 297 L371 319 L379 306 L379 243 L308 151 L207 93 L113 78 L88 123 L136 206 L248 263 L340 258 L364 245 L338 227 L224 207 L140 219 L167 273 L339 343 L500 364 L527 355 L443 279 L260 135 L139 39 L133 15 L214 0 L347 10 L388 39 L332 70 L146 113 L0 175 L28 259 L196 324 L332 355 L356 371 L302 386 L202 384 L186 371 L263 297 L392 164 L379 102 L181 47 L24 33 L40 49 L200 78 L358 99 L361 115 L272 163 L234 214 L332 261 L432 295 L392 303 L340 308 L366 312 L454 315 L430 315 L323 299 L307 286 L332 258 " fill="none" stroke="black" /></svg>