<?xml version="1.0" encoding="utf-8" ?>
<svg baseProfile="tiny" height="48" version="1.2" viewBox="-3 -3 1073 48" width="1073" xmlns="http://www.w3.org/2000/svg" xmlns:ev="http://www.w3.org/2001/xml-events" xmlns:xlink="http://www.w3.org/1999/xlink"><defs /><path d="M0 21 L3 18 L7 14 L11 12 L17 12 L23 12 L29 12 L36 14 L46 17 L55 20 L67 24 L77 26 L87 27 L96 29 L105 31 L112 33 L122 35 L131 37 L139 38 L147 39 L156 39 L167 41 L175 42 L185 43 L193 44 L201 44 L211 44 L219 44 L228 44 L236 44 L247 44 L257 41 L266 39 L271 35 L277 31 L284 27 L291 23 L300 18 L311 14 L320 11 L331 7 L339 6 L347 5 L355 5 L363 5 L368 6 L374 7 L380 11 L388 15 L399 20 L410 27 L418 31 L427 35 L434 38 L440 39 L447 41 L457 43 L467 44 L476 44 L485 44 L496 43 L507 40 L520 35 L535 28 L545 21 L553 15 L566 8 L581 3 L595 1 L609 0 L622 0 L634 2 L651 6 L671 11 L690 14 L709 19 L725 25 L740 31 L755 35 L773 39 L788 39 L800 39 L809 39 L819 35 L832 30 L847 26 L863 22 L879 19 L896 18 L912 16 L922 17 L927 19 L932 21 L939 27 L951 34 L962 40 L971 44 L980 46 L993 47 L1007 48 L1019 48 L1029 48 L1039 47 L1047 45 L1059 42 L1073 40 " fill="none" stroke="black" /></svg>