<?xml version="1.0" encoding="utf-8" ?>
<svg baseProfile="tiny" height="212" version="1.2" viewBox="-3 -3 624 212" width="624" xmlns="http://www.w3.org/2000/svg" xmlns:ev="http://www.w3.org/2001/xml-events" xmlns:xlink="http://www.w3.org/1999/xlink"><defs /><path d="M0 0 L24 6 L64 12 L96 19 L100 21 L87 39 L40 89 L15 126 L68 145 L180 153 L148 154 L41 138 L76 147 L207 173 L197 169 L131 158 L160 162 L261 167 L243 159 L156 147 L181 156 L308 175 L315 179 L204 163 L178 159 L297 159 L357 152 L288 136 L168 130 L182 143 L317 146 L368 139 L316 128 L193 119 L200 121 L387 139 L507 139 L469 143 L380 143 L346 154 L496 179 L593 181 L553 182 L418 182 L411 191 L544 208 L601 211 L496 207 L348 199 L374 206 L515 212 L565 207 L484 188 L408 175 L446 172 L564 163 L582 151 L483 125 L415 112 L470 112 L607 119 L624 119 L566 116 L517 115 " fill="none" stroke="black" /></svg>