<?xml version="1.0" encoding="utf-8" ?>
<svg baseProfile="tiny" height="444" version="1.2" viewBox="-3 -3 681 444" width="681" xmlns="http://www.w3.org/2000/svg" xmlns:ev="http://www.w3.org/2001/xml-events" xmlns:xlink="http://www.w3.org/1999/xlink"><defs /><path d="M0 326 L1 317 L7 284 L17 230 L32 153 L47 89 L65 42 L88 13 L104 2 L115 0 L129 15 L138 45 L141 87 L140 124 L133 163 L125 203 L121 232 L118 258 L116 282 L114 302 L113 317 L113 333 L113 347 L113 357 L115 365 L121 373 L130 378 L145 379 L158 372 L171 359 L181 339 L185 318 L185 305 L179 298 L170 298 L161 305 L154 317 L152 330 L155 340 L167 348 L185 352 L204 355 L225 360 L245 365 L264 372 L282 377 L299 374 L303 360 L301 342 L291 329 L277 326 L266 327 L257 338 L253 350 L254 361 L266 371 L288 377 L309 378 L321 381 L329 388 L341 394 L361 397 L381 391 L394 377 L399 362 L396 346 L384 336 L370 335 L362 345 L359 359 L365 374 L380 385 L395 394 L411 404 L429 411 L445 417 L466 422 L494 425 L522 424 L541 408 L544 390 L538 373 L518 361 L505 363 L501 374 L508 390 L529 401 L553 412 L576 419 L593 425 L617 433 L645 441 L674 444 L681 440 " fill="none" stroke="black" /></svg>