<?xml version="1.0" encoding="utf-8" ?>
<svg baseProfile="tiny" height="426" version="1.2" viewBox="-3 -3 623 426" width="623" xmlns="http://www.w3.org/2000/svg" xmlns:ev="http://www.w3.org/2001/xml-events" xmlns:xlink="http://www.w3.org/1999/xlink"><defs /><path d="M0 422 L8 421 L19 421 L32 424 L40 425 L48 426 L55 426 L60 425 L65 417 L68 405 L70 390 L72 379 L70 364 L66 347 L65 330 L64 309 L64 284 L64 257 L63 230 L59 205 L54 181 L48 153 L44 131 L43 107 L41 88 L41 74 L41 61 L44 49 L48 41 L52 35 L58 29 L64 22 L72 17 L79 13 L87 9 L95 7 L103 6 L111 6 L119 6 L127 7 L133 9 L140 13 L145 18 L151 25 L156 29 L160 34 L166 40 L172 47 L179 52 L184 55 L190 58 L194 60 L200 61 L206 61 L212 61 L216 61 L222 58 L230 53 L238 48 L246 41 L252 35 L257 29 L261 23 L264 19 L267 15 L271 10 L273 7 L277 5 L283 2 L287 1 L292 1 L298 0 L301 0 L305 2 L312 8 L317 13 L322 18 L326 22 L330 26 L334 29 L340 34 L344 38 L348 41 L352 45 L356 47 L360 49 L364 49 L369 52 L376 53 L382 53 L388 53 L396 53 L399 53 L404 50 L410 49 L416 47 L421 45 L426 42 L432 41 L439 38 L444 37 L448 36 L451 35 L452 35 L455 35 L461 35 L468 35 L474 37 L477 39 L480 40 L482 41 L486 45 L490 46 L496 48 L502 49 L505 52 L509 52 L511 52 L512 52 L515 52 L518 52 L522 52 L524 52 L527 52 L529 49 L532 49 L536 46 L540 45 L544 43 L549 42 L555 42 L560 42 L568 42 L575 42 L577 42 L581 45 L585 46 L591 47 L596 48 L601 49 L607 49 L610 49 L614 49 L620 51 L623 51 " fill="none" stroke="black" /></svg>