<?xml version="1.0" encoding="utf-8" ?>
<svg baseProfile="tiny" height="368" version="1.2" viewBox="-3 -3 913 368" width="913" xmlns="http://www.w3.org/2000/svg" xmlns:ev="http://www.w3.org/2001/xml-events" xmlns:xlink="http://www.w3.org/1999/xlink"><defs /><path d="M25 306 L27 272 L27 206 L24 107 L4 59 L0 52 L0 51 L13 48 L51 44 L100 43 L156 40 L219 40 L281 40 L332 40 L372 40 L408 40 L441 40 L468 40 L492 40 L516 41 L540 44 L560 45 L581 46 L609 47 L635 47 L659 47 L682 47 L706 47 L729 47 L754 47 L778 44 L801 40 L821 34 L836 25 L843 15 L844 7 L840 1 L828 0 L805 18 L793 43 L803 64 L825 77 L847 81 L851 81 L849 81 L835 81 L828 87 L840 95 L876 98 L901 96 L899 95 L874 95 L860 100 L866 113 L896 128 L909 136 L889 145 L828 154 L780 170 L804 197 L886 233 L904 248 L848 260 L742 268 L718 284 L776 296 L818 303 L789 304 L700 304 L680 308 L757 323 L839 335 L819 340 L734 348 L706 355 L776 362 L842 368 L813 368 L717 364 L673 356 L711 342 L824 320 L854 306 L790 295 L711 272 L729 250 L876 213 L913 202 L779 201 L560 195 L575 200 L744 201 L799 201 L681 202 L531 202 L595 203 L844 184 L845 180 L624 168 L453 149 " fill="none" stroke="black" /></svg>