<?xml version="1.0" encoding="utf-8" ?>
<svg baseProfile="tiny" height="357" version="1.2" viewBox="-3 -3 781 357" width="781" xmlns="http://www.w3.org/2000/svg" xmlns:ev="http://www.w3.org/2001/xml-events" xmlns:xlink="http://www.w3.org/1999/xlink"><defs /><path d="M0 144 L8 144 L26 145 L46 146 L69 148 L90 149 L111 150 L132 152 L154 155 L181 156 L211 159 L245 162 L283 164 L320 167 L350 168 L381 170 L413 170 L443 170 L466 170 L493 170 L522 169 L547 168 L566 167 L583 164 L596 159 L605 154 L612 144 L613 131 L601 112 L582 96 L553 85 L518 82 L487 88 L469 105 L465 124 L465 147 L465 164 L462 176 L461 184 L461 188 L465 191 L475 196 L493 203 L520 209 L552 214 L586 214 L613 206 L625 192 L625 184 L609 176 L575 174 L539 186 L517 200 L513 206 L513 208 L513 216 L517 225 L520 233 L525 241 L532 249 L540 257 L549 261 L559 264 L571 265 L585 265 L601 259 L610 248 L610 238 L593 232 L566 234 L544 248 L538 268 L541 280 L548 288 L553 291 L556 291 L557 291 L559 292 L564 292 L569 293 L577 296 L585 298 L593 300 L598 300 L603 300 L608 300 L614 298 L621 296 L625 292 L629 286 L631 280 L631 275 L629 268 L610 265 L585 269 L565 288 L557 309 L557 327 L565 340 L572 347 L579 351 L588 353 L599 356 L611 357 L624 357 L639 355 L653 346 L665 332 L673 318 L684 299 L691 274 L695 250 L697 221 L697 190 L691 155 L681 122 L677 92 L674 66 L674 45 L677 27 L686 13 L701 3 L719 0 L742 4 L760 16 L773 33 L781 59 L780 84 L776 111 L771 142 L767 176 L765 210 L763 238 L762 260 L760 275 L756 281 " fill="none" stroke="black" /></svg>