<?xml version="1.0" encoding="utf-8" ?>
<svg baseProfile="tiny" height="270" version="1.2" viewBox="-3 -3 747 270" width="747" xmlns="http://www.w3.org/2000/svg" xmlns:ev="http://www.w3.org/2001/xml-events" xmlns:xlink="http://www.w3.org/1999/xlink"><defs /><path d="M0 65 L0 56 L4 42 L7 34 L9 27 L14 21 L19 15 L23 10 L29 5 L34 1 L39 0 L45 0 L50 0 L56 2 L65 8 L74 15 L82 24 L89 33 L95 45 L101 55 L106 66 L110 78 L115 92 L119 105 L123 117 L128 129 L132 141 L136 152 L139 161 L143 173 L148 182 L152 192 L155 199 L160 205 L166 213 L172 220 L179 226 L187 233 L194 238 L203 244 L212 248 L221 251 L228 251 L235 251 L243 248 L248 246 L255 245 L265 245 L275 245 L285 245 L294 248 L300 251 L305 254 L311 258 L321 261 L331 263 L343 263 L356 261 L369 259 L378 258 L387 257 L399 257 L412 257 L423 258 L431 260 L436 261 L443 265 L455 268 L470 269 L484 270 L499 268 L516 264 L531 258 L549 253 L568 253 L584 253 L599 255 L611 259 L623 263 L637 265 L650 267 L663 267 L676 265 L694 261 L713 258 L733 255 L747 253 " fill="none" stroke="black" /></svg>