<?xml version="1.0" encoding="utf-8" ?>
<svg baseProfile="tiny" height="302" version="1.2" viewBox="-3 -3 367 302" width="367" xmlns="http://www.w3.org/2000/svg" xmlns:ev="http://www.w3.org/2001/xml-events" xmlns:xlink="http://www.w3.org/1999/xlink"><defs /><path d="M0 255 L0 245 L2 200 L1 113 L1 39 L30 0 L76 1 L91 32 L64 98 L12 191 L3 248 L37 285 L93 302 L126 302 L127 302 L127 300 L123 298 L122 300 L135 288 L147 256 L131 233 L97 231 L87 246 L103 262 L133 269 L148 266 L147 260 L133 258 L127 268 L141 280 L173 282 L189 271 L189 262 L178 260 L174 268 L183 278 L209 282 L222 277 L218 272 L202 271 L198 277 L209 284 L231 284 L240 276 L231 272 L221 272 L223 275 L243 276 L260 273 L261 269 L245 268 L241 270 L250 276 L268 278 L276 274 L274 272 L264 272 L266 277 L284 281 L301 278 L303 269 L289 264 L284 264 L294 271 L318 274 L333 271 L334 268 L330 268 L331 269 L349 273 L366 270 L367 263 " fill="none" stroke="black" /></svg>