<?xml version="1.0" encoding="utf-8" ?>
<svg baseProfile="tiny" height="81" version="1.2" viewBox="-3 -3 613 81" width="613" xmlns="http://www.w3.org/2000/svg" xmlns:ev="http://www.w3.org/2001/xml-events" xmlns:xlink="http://www.w3.org/1999/xlink"><defs /><path d="M0 43 L29 68 L70 73 L114 56 L128 34 L118 21 L102 22 L98 44 L116 72 L159 81 L203 61 L211 36 L187 16 L149 10 L141 30 L166 56 L205 57 L229 38 L213 16 L163 0 L125 8 L135 37 L169 50 L199 44 L197 27 L173 8 L163 9 L180 31 L223 53 L257 54 L264 34 L233 12 L176 1 L160 15 L195 48 L273 63 L332 52 L337 34 L305 20 L268 18 L258 44 L280 73 L314 79 L344 58 " fill="none" stroke="black" /><path d="M0 43 L29 68 L70 73 L114 56 L128 34 L118 21 L102 22 L98 44 L116 72 L159 81 L203 61 L211 36 L187 16 L149 10 L141 30 L166 56 L205 57 L229 38 L213 16 L163 0 L125 8 L135 37 L169 50 L199 44 L197 27 L173 8 L163 9 L180 31 L223 53 L257 54 L264 34 L233 12 L176 1 L160 15 L195 48 L273 63 L332 52 L337 34 L305 20 L268 18 L258 44 L280 73 L314 79 L344 58 M261 27 L261 51 L285 66 L312 68 L326 60 L325 49 L311 37 L293 34 L287 41 L298 52 L325 56 L349 50 L346 38 L326 33 L317 40 L332 56 L374 64 L415 59 L416 44 L387 37 L368 41 L381 53 " fill="none" stroke="black" /><path d="M0 43 L29 68 L70 73 L114 56 L128 34 L118 21 L102 22 L98 44 L116 72 L159 81 L203 61 L211 36 L187 16 L149 10 L141 30 L166 56 L205 57 L229 38 L213 16 L163 0 L125 8 L135 37 L169 50 L199 44 L197 27 L173 8 L163 9 L180 31 L223 53 L257 54 L264 34 L233 12 L176 1 L160 15 L195 48 L273 63 L332 52 L337 34 L305 20 L268 18 L258 44 L280 73 L314 79 L344 58 M261 27 L261 51 L285 66 L312 68 L326 60 L325 49 L311 37 L293 34 L287 41 L298 52 L325 56 L349 50 L346 38 L326 33 L317 40 L332 56 L374 64 L415 59 L416 44 L387 37 L368 41 L381 53 M465 36 L441 38 L438 40 L460 52 " fill="none" stroke="black" /><path d="M0 43 L29 68 L70 73 L114 56 L128 34 L118 21 L102 22 L98 44 L116 72 L159 81 L203 61 L211 36 L187 16 L149 10 L141 30 L166 56 L205 57 L229 38 L213 16 L163 0 L125 8 L135 37 L169 50 L199 44 L197 27 L173 8 L163 9 L180 31 L223 53 L257 54 L264 34 L233 12 L176 1 L160 15 L195 48 L273 63 L332 52 L337 34 L305 20 L268 18 L258 44 L280 73 L314 79 L344 58 M261 27 L261 51 L285 66 L312 68 L326 60 L325 49 L311 37 L293 34 L287 41 L298 52 L325 56 L349 50 L346 38 L326 33 L317 40 L332 56 L374 64 L415 59 L416 44 L387 37 L368 41 L381 53 M465 36 L441 38 L438 40 L460 52 M499 48 L485 52 L484 61 L509 67 " fill="none" stroke="black" /><path d="M0 43 L29 68 L70 73 L114 56 L128 34 L118 21 L102 22 L98 44 L116 72 L159 81 L203 61 L211 36 L187 16 L149 10 L141 30 L166 56 L205 57 L229 38 L213 16 L163 0 L125 8 L135 37 L169 50 L199 44 L197 27 L173 8 L163 9 L180 31 L223 53 L257 54 L264 34 L233 12 L176 1 L160 15 L195 48 L273 63 L332 52 L337 34 L305 20 L268 18 L258 44 L280 73 L314 79 L344 58 M261 27 L261 51 L285 66 L312 68 L326 60 L325 49 L311 37 L293 34 L287 41 L298 52 L325 56 L349 50 L346 38 L326 33 L317 40 L332 56 L374 64 L415 59 L416 44 L387 37 L368 41 L381 53 M465 36 L441 38 L438 40 L460 52 M499 48 L485 52 L484 61 L509 67 M529 44 L508 50 L511 59 L545 66 " fill="none" stroke="black" /><path d="M0 43 L29 68 L70 73 L114 56 L128 34 L118 21 L102 22 L98 44 L116 72 L159 81 L203 61 L211 36 L187 16 L149 10 L141 30 L166 56 L205 57 L229 38 L213 16 L163 0 L125 8 L135 37 L169 50 L199 44 L197 27 L173 8 L163 9 L180 31 L223 53 L257 54 L264 34 L233 12 L176 1 L160 15 L195 48 L273 63 L332 52 L337 34 L305 20 L268 18 L258 44 L280 73 L314 79 L344 58 M261 27 L261 51 L285 66 L312 68 L326 60 L325 49 L311 37 L293 34 L287 41 L298 52 L325 56 L349 50 L346 38 L326 33 L317 40 L332 56 L374 64 L415 59 L416 44 L387 37 L368 41 L381 53 M465 36 L441 38 L438 40 L460 52 M499 48 L485 52 L484 61 L509 67 M529 44 L508 50 L511 59 L545 66 M581 53 L560 54 L557 57 L595 72 " fill="none" stroke="black" /><path d="M0 43 L29 68 L70 73 L114 56 L128 34 L118 21 L102 22 L98 44 L116 72 L159 81 L203 61 L211 36 L187 16 L149 10 L141 30 L166 56 L205 57 L229 38 L213 16 L163 0 L125 8 L135 37 L169 50 L199 44 L197 27 L173 8 L163 9 L180 31 L223 53 L257 54 L264 34 L233 12 L176 1 L160 15 L195 48 L273 63 L332 52 L337 34 L305 20 L268 18 L258 44 L280 73 L314 79 L344 58 M261 27 L261 51 L285 66 L312 68 L326 60 L325 49 L311 37 L293 34 L287 41 L298 52 L325 56 L349 50 L346 38 L326 33 L317 40 L332 56 L374 64 L415 59 L416 44 L387 37 L368 41 L381 53 M465 36 L441 38 L438 40 L460 52 M499 48 L485 52 L484 61 L509 67 M529 44 L508 50 L511 59 L545 66 M581 53 L560 54 L557 57 L595 72 M461 40 L442 44 L445 52 L494 62 L556 62 L568 58 L545 49 L485 36 L433 36 L453 54 L548 72 L613 73 L612 67 L545 49 " fill="none" stroke="black" /></svg>