<?xml version="1.0" encoding="utf-8" ?>
<svg baseProfile="tiny" height="370" version="1.2" viewBox="-3 -3 678 370" width="678" xmlns="http://www.w3.org/2000/svg" xmlns:ev="http://www.w3.org/2001/xml-events" xmlns:xlink="http://www.w3.org/1999/xlink"><defs /><path d="M0 370 L21 334 L54 255 L68 162 L68 71 L72 15 L92 0 L121 1 L142 22 L134 45 L88 57 L51 63 L53 67 L90 72 L112 71 L106 66 L81 59 L132 63 L179 66 L174 66 L130 59 L122 58 L165 63 L209 67 L194 64 L142 51 L142 50 L212 60 L262 66 L244 60 L208 51 L226 51 L308 55 L328 55 L268 44 L218 38 L257 44 L334 58 L326 55 L273 44 L273 43 L345 51 L375 54 L343 47 L332 43 L395 48 L462 52 L459 47 L435 44 L445 45 L510 54 L548 55 L530 55 L488 50 L503 51 L597 60 L647 60 L644 56 L634 52 L640 52 L645 52 L662 47 L678 43 L673 41 L658 39 L630 39 " fill="none" stroke="black" /></svg>