<?xml version="1.0" encoding="utf-8" ?>
<svg baseProfile="tiny" height="253" version="1.2" viewBox="-3 -3 885 253" width="885" xmlns="http://www.w3.org/2000/svg" xmlns:ev="http://www.w3.org/2001/xml-events" xmlns:xlink="http://www.w3.org/1999/xlink"><defs /><path d="M0 36 L0 31 L3 23 L5 16 L8 9 L12 4 L14 2 L18 0 L22 0 L26 0 L28 1 L33 4 L39 10 L42 15 L44 18 L47 24 L48 28 L52 32 L52 36 L53 37 L54 41 L56 45 L58 50 L60 55 L62 59 L66 65 L69 71 L75 77 L81 85 L87 92 L92 98 L97 104 L102 111 L110 120 L116 127 L121 133 L126 140 L132 148 L137 155 L142 161 L148 168 L155 175 L161 181 L168 188 L175 194 L180 197 L185 200 L192 202 L200 207 L212 211 L224 215 L233 217 L242 220 L252 222 L264 224 L276 226 L287 228 L299 228 L309 229 L322 229 L339 229 L362 231 L385 234 L406 236 L424 239 L438 240 L452 243 L464 245 L476 246 L488 246 L501 248 L517 249 L534 252 L553 252 L573 252 L592 252 L612 252 L630 253 L646 253 L660 253 L673 251 L685 247 L704 241 L725 235 L744 227 L762 216 L784 208 L802 202 L818 198 L835 194 L856 187 L872 180 L880 171 L880 165 L880 161 L876 161 L873 161 L872 167 L872 176 L877 182 L880 184 L883 187 L885 188 " fill="none" stroke="black" /></svg>