<?xml version="1.0" encoding="utf-8" ?>
<svg baseProfile="tiny" height="110" version="1.2" viewBox="-3 -3 484 110" width="484" xmlns="http://www.w3.org/2000/svg" xmlns:ev="http://www.w3.org/2001/xml-events" xmlns:xlink="http://www.w3.org/1999/xlink"><defs /><path d="M76 11 L26 11 L0 19 L18 26 L58 35 L59 37 L26 40 L6 43 L22 52 L60 59 L67 59 L43 59 L30 59 L50 66 L98 74 L115 75 L100 75 L86 75 L100 76 L150 76 L174 72 L152 63 L110 54 L108 53 L150 50 L195 40 L185 27 L140 13 L118 10 L142 13 L191 18 L204 18 L177 20 L142 29 L142 43 L190 61 L240 67 L232 67 L185 64 L159 67 L178 75 L238 79 L286 73 L289 61 L254 43 L225 27 L230 23 L278 21 L327 17 L325 15 L281 15 L253 27 L267 50 L326 69 L352 74 L321 75 L271 78 L268 87 L313 99 L361 101 L370 83 L352 58 L345 32 L386 12 L430 4 L423 1 L381 0 L358 13 L372 34 L410 54 L422 63 L398 75 L362 91 L361 99 L394 103 L422 91 L431 64 L416 35 L408 21 L425 12 L461 9 L475 8 L459 12 L410 23 L398 42 L437 67 L484 81 L481 86 L452 92 L445 101 L463 107 L471 110 L463 106 " fill="none" stroke="black" /></svg>