<?xml version="1.0" encoding="utf-8" ?>
<svg baseProfile="tiny" height="186" version="1.2" viewBox="-3 -3 1091 186" width="1091" xmlns="http://www.w3.org/2000/svg" xmlns:ev="http://www.w3.org/2001/xml-events" xmlns:xlink="http://www.w3.org/1999/xlink"><defs /><path d="M141 35 L142 35 L143 34 L143 33 L152 30 L177 22 L227 10 L297 1 L400 0 L511 16 L604 41 L623 73 L569 118 L399 151 L161 129 L7 73 L0 54 L111 25 L315 14 L450 23 L475 42 L435 68 L314 94 L241 118 L246 120 L318 110 L428 103 L493 101 L498 101 L486 97 L483 96 L519 90 L628 68 L749 49 L792 42 L779 40 L699 28 L670 28 L715 28 L851 24 L945 16 L946 15 L896 13 L796 39 L740 78 L751 103 L814 127 L865 139 L869 141 L830 141 L766 151 L771 164 L872 181 L1007 186 L1087 168 L1091 152 L1062 132 " fill="none" stroke="black" /></svg>