<?xml version="1.0" encoding="utf-8" ?>
<svg baseProfile="tiny" height="155" version="1.2" viewBox="-3 -3 127 155" width="127" xmlns="http://www.w3.org/2000/svg" xmlns:ev="http://www.w3.org/2001/xml-events" xmlns:xlink="http://www.w3.org/1999/xlink"><defs /><path d="M9 138 L6 139 L3 140 L3 141 L2 142 L1 144 L0 146 L0 148 L0 149 L0 150 L2 152 L6 155 L9 155 L14 155 L17 155 L18 155 L20 154 L20 153 L20 152 L20 150 L20 148 L20 147 L20 146 L20 145 L20 143 L18 141 L17 140 L16 140 L8 137 L7 137 L6 137 L5 138 L5 139 L5 141 L5 143 L7 143 L9 143 L12 143 L13 143 L13 142 L13 141 L13 140 L13 141 L13 142 L12 144 L12 146 L11 147 L9 147 L8 147 L7 149 L9 149 L13 149 L15 149 L15 148 L16 146 L16 144 L16 143 L14 143 L12 143 L10 144 L10 145 L8 146 L8 147 L7 147 L5 147 L4 147 L3 147 L4 147 L5 147 L9 148 L10 148 L11 149 L13 149 " fill="none" stroke="black" /><path d="M9 138 L6 139 L3 140 L3 141 L2 142 L1 144 L0 146 L0 148 L0 149 L0 150 L2 152 L6 155 L9 155 L14 155 L17 155 L18 155 L20 154 L20 153 L20 152 L20 150 L20 148 L20 147 L20 146 L20 145 L20 143 L18 141 L17 140 L16 140 L8 137 L7 137 L6 137 L5 138 L5 139 L5 141 L5 143 L7 143 L9 143 L12 143 L13 143 L13 142 L13 141 L13 140 L13 141 L13 142 L12 144 L12 146 L11 147 L9 147 L8 147 L7 149 L9 149 L13 149 L15 149 L15 148 L16 146 L16 144 L16 143 L14 143 L12 143 L10 144 L10 145 L8 146 L8 147 L7 147 L5 147 L4 147 L3 147 L4 147 L5 147 L9 148 L10 148 L11 149 L13 149 M6 106 L9 110 L12 114 L15 119 L20 126 L24 133 L27 140 L28 146 L29 150 L29 153 " fill="none" stroke="black" /><path d="M9 138 L6 139 L3 140 L3 141 L2 142 L1 144 L0 146 L0 148 L0 149 L0 150 L2 152 L6 155 L9 155 L14 155 L17 155 L18 155 L20 154 L20 153 L20 152 L20 150 L20 148 L20 147 L20 146 L20 145 L20 143 L18 141 L17 140 L16 140 L8 137 L7 137 L6 137 L5 138 L5 139 L5 141 L5 143 L7 143 L9 143 L12 143 L13 143 L13 142 L13 141 L13 140 L13 141 L13 142 L12 144 L12 146 L11 147 L9 147 L8 147 L7 149 L9 149 L13 149 L15 149 L15 148 L16 146 L16 144 L16 143 L14 143 L12 143 L10 144 L10 145 L8 146 L8 147 L7 147 L5 147 L4 147 L3 147 L4 147 L5 147 L9 148 L10 148 L11 149 L13 149 M6 106 L9 110 L12 114 L15 119 L20 126 L24 133 L27 140 L28 146 L29 150 L29 153 M16 92 L21 100 L27 110 L32 121 L38 131 L40 139 L40 140 L40 141 L40 142 " fill="none" stroke="black" /><path d="M9 138 L6 139 L3 140 L3 141 L2 142 L1 144 L0 146 L0 148 L0 149 L0 150 L2 152 L6 155 L9 155 L14 155 L17 155 L18 155 L20 154 L20 153 L20 152 L20 150 L20 148 L20 147 L20 146 L20 145 L20 143 L18 141 L17 140 L16 140 L8 137 L7 137 L6 137 L5 138 L5 139 L5 141 L5 143 L7 143 L9 143 L12 143 L13 143 L13 142 L13 141 L13 140 L13 141 L13 142 L12 144 L12 146 L11 147 L9 147 L8 147 L7 149 L9 149 L13 149 L15 149 L15 148 L16 146 L16 144 L16 143 L14 143 L12 143 L10 144 L10 145 L8 146 L8 147 L7 147 L5 147 L4 147 L3 147 L4 147 L5 147 L9 148 L10 148 L11 149 L13 149 M6 106 L9 110 L12 114 L15 119 L20 126 L24 133 L27 140 L28 146 L29 150 L29 153 M16 92 L21 100 L27 110 L32 121 L38 131 L40 139 L40 140 L40 141 L40 142 M29 76 L30 76 L30 78 L31 84 L34 90 L38 97 L41 109 L43 113 L43 114 " fill="none" stroke="black" /><path d="M9 138 L6 139 L3 140 L3 141 L2 142 L1 144 L0 146 L0 148 L0 149 L0 150 L2 152 L6 155 L9 155 L14 155 L17 155 L18 155 L20 154 L20 153 L20 152 L20 150 L20 148 L20 147 L20 146 L20 145 L20 143 L18 141 L17 140 L16 140 L8 137 L7 137 L6 137 L5 138 L5 139 L5 141 L5 143 L7 143 L9 143 L12 143 L13 143 L13 142 L13 141 L13 140 L13 141 L13 142 L12 144 L12 146 L11 147 L9 147 L8 147 L7 149 L9 149 L13 149 L15 149 L15 148 L16 146 L16 144 L16 143 L14 143 L12 143 L10 144 L10 145 L8 146 L8 147 L7 147 L5 147 L4 147 L3 147 L4 147 L5 147 L9 148 L10 148 L11 149 L13 149 M6 106 L9 110 L12 114 L15 119 L20 126 L24 133 L27 140 L28 146 L29 150 L29 153 M16 92 L21 100 L27 110 L32 121 L38 131 L40 139 L40 140 L40 141 L40 142 M29 76 L30 76 L30 78 L31 84 L34 90 L38 97 L41 109 L43 113 L43 114 M39 59 L43 66 L51 83 L59 99 L62 105 L62 109 " fill="none" stroke="black" /><path d="M9 138 L6 139 L3 140 L3 141 L2 142 L1 144 L0 146 L0 148 L0 149 L0 150 L2 152 L6 155 L9 155 L14 155 L17 155 L18 155 L20 154 L20 153 L20 152 L20 150 L20 148 L20 147 L20 146 L20 145 L20 143 L18 141 L17 140 L16 140 L8 137 L7 137 L6 137 L5 138 L5 139 L5 141 L5 143 L7 143 L9 143 L12 143 L13 143 L13 142 L13 141 L13 140 L13 141 L13 142 L12 144 L12 146 L11 147 L9 147 L8 147 L7 149 L9 149 L13 149 L15 149 L15 148 L16 146 L16 144 L16 143 L14 143 L12 143 L10 144 L10 145 L8 146 L8 147 L7 147 L5 147 L4 147 L3 147 L4 147 L5 147 L9 148 L10 148 L11 149 L13 149 M6 106 L9 110 L12 114 L15 119 L20 126 L24 133 L27 140 L28 146 L29 150 L29 153 M16 92 L21 100 L27 110 L32 121 L38 131 L40 139 L40 140 L40 141 L40 142 M29 76 L30 76 L30 78 L31 84 L34 90 L38 97 L41 109 L43 113 L43 114 M39 59 L43 66 L51 83 L59 99 L62 105 L62 109 M49 49 L50 49 L53 53 L64 68 L70 79 L73 84 L76 90 L76 92 L76 93 L76 94 " fill="none" stroke="black" /><path d="M9 138 L6 139 L3 140 L3 141 L2 142 L1 144 L0 146 L0 148 L0 149 L0 150 L2 152 L6 155 L9 155 L14 155 L17 155 L18 155 L20 154 L20 153 L20 152 L20 150 L20 148 L20 147 L20 146 L20 145 L20 143 L18 141 L17 140 L16 140 L8 137 L7 137 L6 137 L5 138 L5 139 L5 141 L5 143 L7 143 L9 143 L12 143 L13 143 L13 142 L13 141 L13 140 L13 141 L13 142 L12 144 L12 146 L11 147 L9 147 L8 147 L7 149 L9 149 L13 149 L15 149 L15 148 L16 146 L16 144 L16 143 L14 143 L12 143 L10 144 L10 145 L8 146 L8 147 L7 147 L5 147 L4 147 L3 147 L4 147 L5 147 L9 148 L10 148 L11 149 L13 149 M6 106 L9 110 L12 114 L15 119 L20 126 L24 133 L27 140 L28 146 L29 150 L29 153 M16 92 L21 100 L27 110 L32 121 L38 131 L40 139 L40 140 L40 141 L40 142 M29 76 L30 76 L30 78 L31 84 L34 90 L38 97 L41 109 L43 113 L43 114 M39 59 L43 66 L51 83 L59 99 L62 105 L62 109 M49 49 L50 49 L53 53 L64 68 L70 79 L73 84 L76 90 L76 92 L76 93 L76 94 M59 26 L61 34 L73 49 L80 62 L83 67 L84 69 " fill="none" stroke="black" /><path d="M9 138 L6 139 L3 140 L3 141 L2 142 L1 144 L0 146 L0 148 L0 149 L0 150 L2 152 L6 155 L9 155 L14 155 L17 155 L18 155 L20 154 L20 153 L20 152 L20 150 L20 148 L20 147 L20 146 L20 145 L20 143 L18 141 L17 140 L16 140 L8 137 L7 137 L6 137 L5 138 L5 139 L5 141 L5 143 L7 143 L9 143 L12 143 L13 143 L13 142 L13 141 L13 140 L13 141 L13 142 L12 144 L12 146 L11 147 L9 147 L8 147 L7 149 L9 149 L13 149 L15 149 L15 148 L16 146 L16 144 L16 143 L14 143 L12 143 L10 144 L10 145 L8 146 L8 147 L7 147 L5 147 L4 147 L3 147 L4 147 L5 147 L9 148 L10 148 L11 149 L13 149 M6 106 L9 110 L12 114 L15 119 L20 126 L24 133 L27 140 L28 146 L29 150 L29 153 M16 92 L21 100 L27 110 L32 121 L38 131 L40 139 L40 140 L40 141 L40 142 M29 76 L30 76 L30 78 L31 84 L34 90 L38 97 L41 109 L43 113 L43 114 M39 59 L43 66 L51 83 L59 99 L62 105 L62 109 M49 49 L50 49 L53 53 L64 68 L70 79 L73 84 L76 90 L76 92 L76 93 L76 94 M59 26 L61 34 L73 49 L80 62 L83 67 L84 69 M73 22 L73 24 L74 30 L77 38 L81 49 L83 54 L85 58 L86 63 L86 64 L87 67 " fill="none" stroke="black" /><path d="M9 138 L6 139 L3 140 L3 141 L2 142 L1 144 L0 146 L0 148 L0 149 L0 150 L2 152 L6 155 L9 155 L14 155 L17 155 L18 155 L20 154 L20 153 L20 152 L20 150 L20 148 L20 147 L20 146 L20 145 L20 143 L18 141 L17 140 L16 140 L8 137 L7 137 L6 137 L5 138 L5 139 L5 141 L5 143 L7 143 L9 143 L12 143 L13 143 L13 142 L13 141 L13 140 L13 141 L13 142 L12 144 L12 146 L11 147 L9 147 L8 147 L7 149 L9 149 L13 149 L15 149 L15 148 L16 146 L16 144 L16 143 L14 143 L12 143 L10 144 L10 145 L8 146 L8 147 L7 147 L5 147 L4 147 L3 147 L4 147 L5 147 L9 148 L10 148 L11 149 L13 149 M6 106 L9 110 L12 114 L15 119 L20 126 L24 133 L27 140 L28 146 L29 150 L29 153 M16 92 L21 100 L27 110 L32 121 L38 131 L40 139 L40 140 L40 141 L40 142 M29 76 L30 76 L30 78 L31 84 L34 90 L38 97 L41 109 L43 113 L43 114 M39 59 L43 66 L51 83 L59 99 L62 105 L62 109 M49 49 L50 49 L53 53 L64 68 L70 79 L73 84 L76 90 L76 92 L76 93 L76 94 M59 26 L61 34 L73 49 L80 62 L83 67 L84 69 M73 22 L73 24 L74 30 L77 38 L81 49 L83 54 L85 58 L86 63 L86 64 L87 67 M89 10 L89 11 L91 19 L97 36 L101 46 L103 51 L105 55 L106 59 L106 61 " fill="none" stroke="black" /><path d="M9 138 L6 139 L3 140 L3 141 L2 142 L1 144 L0 146 L0 148 L0 149 L0 150 L2 152 L6 155 L9 155 L14 155 L17 155 L18 155 L20 154 L20 153 L20 152 L20 150 L20 148 L20 147 L20 146 L20 145 L20 143 L18 141 L17 140 L16 140 L8 137 L7 137 L6 137 L5 138 L5 139 L5 141 L5 143 L7 143 L9 143 L12 143 L13 143 L13 142 L13 141 L13 140 L13 141 L13 142 L12 144 L12 146 L11 147 L9 147 L8 147 L7 149 L9 149 L13 149 L15 149 L15 148 L16 146 L16 144 L16 143 L14 143 L12 143 L10 144 L10 145 L8 146 L8 147 L7 147 L5 147 L4 147 L3 147 L4 147 L5 147 L9 148 L10 148 L11 149 L13 149 M6 106 L9 110 L12 114 L15 119 L20 126 L24 133 L27 140 L28 146 L29 150 L29 153 M16 92 L21 100 L27 110 L32 121 L38 131 L40 139 L40 140 L40 141 L40 142 M29 76 L30 76 L30 78 L31 84 L34 90 L38 97 L41 109 L43 113 L43 114 M39 59 L43 66 L51 83 L59 99 L62 105 L62 109 M49 49 L50 49 L53 53 L64 68 L70 79 L73 84 L76 90 L76 92 L76 93 L76 94 M59 26 L61 34 L73 49 L80 62 L83 67 L84 69 M73 22 L73 24 L74 30 L77 38 L81 49 L83 54 L85 58 L86 63 L86 64 L87 67 M89 10 L89 11 L91 19 L97 36 L101 46 L103 51 L105 55 L106 59 L106 61 M103 0 L103 2 L105 9 L112 25 L120 42 L126 53 L127 55 " fill="none" stroke="black" /></svg>