<?xml version="1.0" encoding="utf-8" ?>
<svg baseProfile="tiny" height="231" version="1.2" viewBox="-3 -3 289 231" width="289" xmlns="http://www.w3.org/2000/svg" xmlns:ev="http://www.w3.org/2001/xml-events" xmlns:xlink="http://www.w3.org/1999/xlink"><defs /><path d="M46 79 L49 76 L49 73 L50 72 " fill="none" stroke="black" /><path d="M46 79 L49 76 L49 73 L50 72 M0 231 L9 230 L26 227 L40 223 L52 220 L61 215 L68 212 L74 210 L82 208 L91 205 L96 203 L100 202 L105 200 L112 198 L122 196 L125 195 L127 195 L129 195 L134 195 L137 195 L138 195 L144 194 L151 194 L155 194 L164 193 L165 193 L171 193 L173 193 L174 192 L175 191 L176 191 L176 189 L176 186 L176 178 L175 169 L173 160 L172 155 L171 152 L170 148 L169 143 L168 139 L167 133 L165 125 L165 123 L165 120 L165 118 L165 117 L165 116 L165 114 L165 113 L165 112 L164 109 L164 108 L163 105 L162 103 L162 102 L162 100 L162 98 L163 96 L164 95 L168 93 L179 93 L179 92 L185 90 L185 89 L186 89 L197 89 L202 89 L205 89 L210 89 L212 89 L217 88 L224 86 L232 85 L235 84 L237 83 L240 82 L240 81 L242 81 L243 80 " fill="none" stroke="black" /><path d="M46 79 L49 76 L49 73 L50 72 M0 231 L9 230 L26 227 L40 223 L52 220 L61 215 L68 212 L74 210 L82 208 L91 205 L96 203 L100 202 L105 200 L112 198 L122 196 L125 195 L127 195 L129 195 L134 195 L137 195 L138 195 L144 194 L151 194 L155 194 L164 193 L165 193 L171 193 L173 193 L174 192 L175 191 L176 191 L176 189 L176 186 L176 178 L175 169 L173 160 L172 155 L171 152 L170 148 L169 143 L168 139 L167 133 L165 125 L165 123 L165 120 L165 118 L165 117 L165 116 L165 114 L165 113 L165 112 L164 109 L164 108 L163 105 L162 103 L162 102 L162 100 L162 98 L163 96 L164 95 L168 93 L179 93 L179 92 L185 90 L185 89 L186 89 L197 89 L202 89 L205 89 L210 89 L212 89 L217 88 L224 86 L232 85 L235 84 L237 83 L240 82 L240 81 L242 81 L243 80 M41 66 L51 64 L67 62 L82 60 L97 57 L109 56 L119 55 L133 55 L145 54 L150 54 L154 53 L163 52 L168 52 L172 51 L179 49 L182 48 L186 46 L195 41 L199 39 L209 34 L211 32 L212 32 L214 29 L215 29 L223 20 L250 5 L256 0 L259 5 L263 12 L266 20 L268 24 L270 30 L273 35 L275 40 L277 46 L281 53 L284 58 L285 61 L287 64 L288 69 L289 75 L289 80 L287 86 L286 89 L285 90 L280 94 L278 95 L277 96 L269 96 L267 97 L262 98 L257 96 L256 96 L254 96 L249 92 L247 91 L246 91 L246 90 L244 89 L243 88 L243 87 L241 84 L241 83 L241 82 L241 81 L241 80 " fill="none" stroke="black" /></svg>