<?xml version="1.0" encoding="utf-8" ?>
<svg baseProfile="tiny" height="181" version="1.2" viewBox="-3 -3 201 181" width="201" xmlns="http://www.w3.org/2000/svg" xmlns:ev="http://www.w3.org/2001/xml-events" xmlns:xlink="http://www.w3.org/1999/xlink"><defs /><path d="M44 98 L48 91 L48 85 L42 73 L31 63 L23 60 L20 59 L16 61 L12 66 L11 79 L17 97 L27 112 L31 120 L31 130 L28 140 L24 145 L18 149 L17 150 L7 143 L0 129 L0 118 L6 111 L12 110 L20 113 L33 125 L45 139 L52 144 L53 146 L59 146 L64 148 L67 148 L73 142 L79 131 L80 121 L78 112 L77 109 L74 106 L70 105 L69 105 L64 113 L63 124 L65 135 L70 144 L76 151 L80 158 L82 162 L82 166 L79 172 L74 178 L71 179 L67 180 L61 181 L60 177 L60 172 L60 170 L67 166 L82 163 L91 159 L93 157 L99 153 L103 149 L106 142 L111 121 L112 115 L112 105 L108 91 L101 79 L88 63 L83 70 L81 83 L82 99 L88 108 L94 110 L98 111 L108 110 L112 106 L116 100 L118 93 L121 82 L124 78 L132 75 L134 75 L140 83 L153 102 L161 121 L161 129 L161 136 L154 144 L151 146 L141 139 L137 128 L137 117 L145 110 L153 106 L160 103 L164 102 L171 98 L179 90 L179 86 L179 79 L173 69 L164 60 L162 59 L155 58 L153 60 L151 67 L152 74 L160 80 L168 84 L174 87 L181 90 L184 93 L193 104 L197 115 L198 128 L198 136 L196 143 L195 148 L193 152 L188 158 L182 163 L181 163 L177 157 L176 149 L176 141 L179 137 L182 131 L185 128 L191 122 L196 115 L200 109 L201 101 L201 94 L201 84 L200 78 L196 65 L192 50 L185 33 L181 26 L175 20 L168 15 L154 6 L152 5 L144 1 L126 0 L116 0 L112 0 L110 3 L107 9 L107 11 " fill="none" stroke="black" /></svg>