<?xml version="1.0" encoding="utf-8" ?>
<svg baseProfile="tiny" height="116" version="1.2" viewBox="-3 -3 158 116" width="158" xmlns="http://www.w3.org/2000/svg" xmlns:ev="http://www.w3.org/2001/xml-events" xmlns:xlink="http://www.w3.org/1999/xlink"><defs /><path d="M72 47 L68 49 L66 51 L62 57 L58 63 L57 67 L54 75 L52 81 L51 88 L51 93 L51 96 L51 101 L51 102 " fill="none" stroke="black" /><path d="M72 47 L68 49 L66 51 L62 57 L58 63 L57 67 L54 75 L52 81 L51 88 L51 93 L51 96 L51 101 L51 102 M85 33 L85 32 L79 32 L72 32 L68 33 L62 35 L56 37 L52 39 L48 42 L45 46 L42 49 L40 53 L38 57 L33 68 L31 74 L31 77 L31 80 L30 87 L30 93 L30 97 L30 99 L30 100 " fill="none" stroke="black" /><path d="M72 47 L68 49 L66 51 L62 57 L58 63 L57 67 L54 75 L52 81 L51 88 L51 93 L51 96 L51 101 L51 102 M85 33 L85 32 L79 32 L72 32 L68 33 L62 35 L56 37 L52 39 L48 42 L45 46 L42 49 L40 53 L38 57 L33 68 L31 74 L31 77 L31 80 L30 87 L30 93 L30 97 L30 99 L30 100 M74 17 L71 17 L60 17 L56 17 L52 18 L47 21 L43 23 L37 28 L32 34 L29 38 L25 44 L21 51 L18 56 L16 63 L15 70 L14 73 L13 78 L13 84 L13 90 L13 96 L14 101 L14 103 L17 107 L19 116 " fill="none" stroke="black" /><path d="M72 47 L68 49 L66 51 L62 57 L58 63 L57 67 L54 75 L52 81 L51 88 L51 93 L51 96 L51 101 L51 102 M85 33 L85 32 L79 32 L72 32 L68 33 L62 35 L56 37 L52 39 L48 42 L45 46 L42 49 L40 53 L38 57 L33 68 L31 74 L31 77 L31 80 L30 87 L30 93 L30 97 L30 99 L30 100 M74 17 L71 17 L60 17 L56 17 L52 18 L47 21 L43 23 L37 28 L32 34 L29 38 L25 44 L21 51 L18 56 L16 63 L15 70 L14 73 L13 78 L13 84 L13 90 L13 96 L14 101 L14 103 L17 107 L19 116 M68 2 L68 0 L65 0 L61 0 L59 0 L56 0 L53 1 L49 3 L44 5 L39 7 L33 10 L29 12 L24 16 L20 18 L17 21 L15 24 L12 28 L9 32 L6 37 L3 42 L1 46 L1 50 L0 55 L0 57 L0 62 L0 67 L0 71 L0 74 L0 80 L1 81 L1 84 L2 86 L3 91 L3 93 " fill="none" stroke="black" /><path d="M72 47 L68 49 L66 51 L62 57 L58 63 L57 67 L54 75 L52 81 L51 88 L51 93 L51 96 L51 101 L51 102 M85 33 L85 32 L79 32 L72 32 L68 33 L62 35 L56 37 L52 39 L48 42 L45 46 L42 49 L40 53 L38 57 L33 68 L31 74 L31 77 L31 80 L30 87 L30 93 L30 97 L30 99 L30 100 M74 17 L71 17 L60 17 L56 17 L52 18 L47 21 L43 23 L37 28 L32 34 L29 38 L25 44 L21 51 L18 56 L16 63 L15 70 L14 73 L13 78 L13 84 L13 90 L13 96 L14 101 L14 103 L17 107 L19 116 M68 2 L68 0 L65 0 L61 0 L59 0 L56 0 L53 1 L49 3 L44 5 L39 7 L33 10 L29 12 L24 16 L20 18 L17 21 L15 24 L12 28 L9 32 L6 37 L3 42 L1 46 L1 50 L0 55 L0 57 L0 62 L0 67 L0 71 L0 74 L0 80 L1 81 L1 84 L2 86 L3 91 L3 93 M88 76 L89 76 L90 75 L91 74 L92 73 L93 73 L94 73 L96 75 L97 78 L98 78 L99 78 L102 76 L104 76 L106 78 L107 78 L109 77 L111 78 L113 80 L114 80 L114 79 L116 76 L119 71 L120 67 L121 64 L123 63 L124 63 L126 68 L127 74 L128 75 L128 76 L128 78 L129 77 L129 76 L129 75 L130 73 L131 73 L133 75 L135 77 L136 77 L137 75 L137 74 L138 73 L139 70 L141 62 L147 49 L150 45 L150 44 L152 50 L154 57 L155 63 L155 66 L155 69 L156 74 L156 75 L156 72 L157 72 L158 73 " fill="none" stroke="black" /></svg>