<?xml version="1.0" encoding="utf-8" ?>
<svg baseProfile="tiny" height="121" version="1.2" viewBox="-3 -3 191 121" width="191" xmlns="http://www.w3.org/2000/svg" xmlns:ev="http://www.w3.org/2001/xml-events" xmlns:xlink="http://www.w3.org/1999/xlink"><defs /><path d="M0 87 L0 88 L0 90 L1 95 L4 94 L7 87 L7 72 L7 67 L7 66 L8 73 L15 87 L16 90 L17 90 L21 84 L22 83 L23 81 L26 79 L31 64 L32 37 L39 12 L45 3 L46 0 L52 9 L70 43 L85 69 L102 91 L105 95 L98 102 L87 107 L82 105 L51 88 L47 87 L59 88 L71 88 L66 90 L63 91 L65 89 L65 73 L64 73 L64 76 L65 76 L67 79 L68 79 L72 79 L77 79 L78 76 L78 73 L79 75 L80 76 L82 77 L87 78 L96 76 L103 73 L104 73 L104 72 L104 69 L106 76 L108 78 L108 76 L110 66 L110 64 L115 71 L117 75 L117 72 L120 72 L122 72 L123 72 L127 81 L129 86 L131 82 L131 78 L132 74 L133 61 L137 31 L140 9 L141 7 L141 8 L145 36 L148 70 L150 78 L148 76 L139 69 L137 67 L144 67 L148 67 L150 68 L151 70 L154 68 L155 66 L161 69 L163 72 L164 72 L164 61 L163 59 L164 65 L167 72 L170 70 L171 64 L174 61 L175 63 L179 68 L180 64 L180 63 L179 65 " fill="none" stroke="black" /><path d="M0 87 L0 88 L0 90 L1 95 L4 94 L7 87 L7 72 L7 67 L7 66 L8 73 L15 87 L16 90 L17 90 L21 84 L22 83 L23 81 L26 79 L31 64 L32 37 L39 12 L45 3 L46 0 L52 9 L70 43 L85 69 L102 91 L105 95 L98 102 L87 107 L82 105 L51 88 L47 87 L59 88 L71 88 L66 90 L63 91 L65 89 L65 73 L64 73 L64 76 L65 76 L67 79 L68 79 L72 79 L77 79 L78 76 L78 73 L79 75 L80 76 L82 77 L87 78 L96 76 L103 73 L104 73 L104 72 L104 69 L106 76 L108 78 L108 76 L110 66 L110 64 L115 71 L117 75 L117 72 L120 72 L122 72 L123 72 L127 81 L129 86 L131 82 L131 78 L132 74 L133 61 L137 31 L140 9 L141 7 L141 8 L145 36 L148 70 L150 78 L148 76 L139 69 L137 67 L144 67 L148 67 L150 68 L151 70 L154 68 L155 66 L161 69 L163 72 L164 72 L164 61 L163 59 L164 65 L167 72 L170 70 L171 64 L174 61 L175 63 L179 68 L180 64 L180 63 L179 65 M150 97 L156 99 L165 100 L174 101 L179 96 L182 92 L183 91 L187 90 L187 88 L189 85 L191 78 L187 65 L187 68 L189 74 " fill="none" stroke="black" /><path d="M0 87 L0 88 L0 90 L1 95 L4 94 L7 87 L7 72 L7 67 L7 66 L8 73 L15 87 L16 90 L17 90 L21 84 L22 83 L23 81 L26 79 L31 64 L32 37 L39 12 L45 3 L46 0 L52 9 L70 43 L85 69 L102 91 L105 95 L98 102 L87 107 L82 105 L51 88 L47 87 L59 88 L71 88 L66 90 L63 91 L65 89 L65 73 L64 73 L64 76 L65 76 L67 79 L68 79 L72 79 L77 79 L78 76 L78 73 L79 75 L80 76 L82 77 L87 78 L96 76 L103 73 L104 73 L104 72 L104 69 L106 76 L108 78 L108 76 L110 66 L110 64 L115 71 L117 75 L117 72 L120 72 L122 72 L123 72 L127 81 L129 86 L131 82 L131 78 L132 74 L133 61 L137 31 L140 9 L141 7 L141 8 L145 36 L148 70 L150 78 L148 76 L139 69 L137 67 L144 67 L148 67 L150 68 L151 70 L154 68 L155 66 L161 69 L163 72 L164 72 L164 61 L163 59 L164 65 L167 72 L170 70 L171 64 L174 61 L175 63 L179 68 L180 64 L180 63 L179 65 M150 97 L156 99 L165 100 L174 101 L179 96 L182 92 L183 91 L187 90 L187 88 L189 85 L191 78 L187 65 L187 68 L189 74 M163 25 L166 25 L170 25 L170 24 " fill="none" stroke="black" /><path d="M0 87 L0 88 L0 90 L1 95 L4 94 L7 87 L7 72 L7 67 L7 66 L8 73 L15 87 L16 90 L17 90 L21 84 L22 83 L23 81 L26 79 L31 64 L32 37 L39 12 L45 3 L46 0 L52 9 L70 43 L85 69 L102 91 L105 95 L98 102 L87 107 L82 105 L51 88 L47 87 L59 88 L71 88 L66 90 L63 91 L65 89 L65 73 L64 73 L64 76 L65 76 L67 79 L68 79 L72 79 L77 79 L78 76 L78 73 L79 75 L80 76 L82 77 L87 78 L96 76 L103 73 L104 73 L104 72 L104 69 L106 76 L108 78 L108 76 L110 66 L110 64 L115 71 L117 75 L117 72 L120 72 L122 72 L123 72 L127 81 L129 86 L131 82 L131 78 L132 74 L133 61 L137 31 L140 9 L141 7 L141 8 L145 36 L148 70 L150 78 L148 76 L139 69 L137 67 L144 67 L148 67 L150 68 L151 70 L154 68 L155 66 L161 69 L163 72 L164 72 L164 61 L163 59 L164 65 L167 72 L170 70 L171 64 L174 61 L175 63 L179 68 L180 64 L180 63 L179 65 M150 97 L156 99 L165 100 L174 101 L179 96 L182 92 L183 91 L187 90 L187 88 L189 85 L191 78 L187 65 L187 68 L189 74 M163 25 L166 25 L170 25 L170 24 M165 42 L166 42 " fill="none" stroke="black" /><path d="M0 87 L0 88 L0 90 L1 95 L4 94 L7 87 L7 72 L7 67 L7 66 L8 73 L15 87 L16 90 L17 90 L21 84 L22 83 L23 81 L26 79 L31 64 L32 37 L39 12 L45 3 L46 0 L52 9 L70 43 L85 69 L102 91 L105 95 L98 102 L87 107 L82 105 L51 88 L47 87 L59 88 L71 88 L66 90 L63 91 L65 89 L65 73 L64 73 L64 76 L65 76 L67 79 L68 79 L72 79 L77 79 L78 76 L78 73 L79 75 L80 76 L82 77 L87 78 L96 76 L103 73 L104 73 L104 72 L104 69 L106 76 L108 78 L108 76 L110 66 L110 64 L115 71 L117 75 L117 72 L120 72 L122 72 L123 72 L127 81 L129 86 L131 82 L131 78 L132 74 L133 61 L137 31 L140 9 L141 7 L141 8 L145 36 L148 70 L150 78 L148 76 L139 69 L137 67 L144 67 L148 67 L150 68 L151 70 L154 68 L155 66 L161 69 L163 72 L164 72 L164 61 L163 59 L164 65 L167 72 L170 70 L171 64 L174 61 L175 63 L179 68 L180 64 L180 63 L179 65 M150 97 L156 99 L165 100 L174 101 L179 96 L182 92 L183 91 L187 90 L187 88 L189 85 L191 78 L187 65 L187 68 L189 74 M163 25 L166 25 L170 25 L170 24 M165 42 L166 42 M103 40 L104 40 " fill="none" stroke="black" /><circle cx="104" cy="12" fill="black" r="1" /><path d="M0 87 L0 88 L0 90 L1 95 L4 94 L7 87 L7 72 L7 67 L7 66 L8 73 L15 87 L16 90 L17 90 L21 84 L22 83 L23 81 L26 79 L31 64 L32 37 L39 12 L45 3 L46 0 L52 9 L70 43 L85 69 L102 91 L105 95 L98 102 L87 107 L82 105 L51 88 L47 87 L59 88 L71 88 L66 90 L63 91 L65 89 L65 73 L64 73 L64 76 L65 76 L67 79 L68 79 L72 79 L77 79 L78 76 L78 73 L79 75 L80 76 L82 77 L87 78 L96 76 L103 73 L104 73 L104 72 L104 69 L106 76 L108 78 L108 76 L110 66 L110 64 L115 71 L117 75 L117 72 L120 72 L122 72 L123 72 L127 81 L129 86 L131 82 L131 78 L132 74 L133 61 L137 31 L140 9 L141 7 L141 8 L145 36 L148 70 L150 78 L148 76 L139 69 L137 67 L144 67 L148 67 L150 68 L151 70 L154 68 L155 66 L161 69 L163 72 L164 72 L164 61 L163 59 L164 65 L167 72 L170 70 L171 64 L174 61 L175 63 L179 68 L180 64 L180 63 L179 65 M150 97 L156 99 L165 100 L174 101 L179 96 L182 92 L183 91 L187 90 L187 88 L189 85 L191 78 L187 65 L187 68 L189 74 M163 25 L166 25 L170 25 L170 24 M165 42 L166 42 M103 40 L104 40 M85 26 L85 22 " fill="none" stroke="black" /><path d="M0 87 L0 88 L0 90 L1 95 L4 94 L7 87 L7 72 L7 67 L7 66 L8 73 L15 87 L16 90 L17 90 L21 84 L22 83 L23 81 L26 79 L31 64 L32 37 L39 12 L45 3 L46 0 L52 9 L70 43 L85 69 L102 91 L105 95 L98 102 L87 107 L82 105 L51 88 L47 87 L59 88 L71 88 L66 90 L63 91 L65 89 L65 73 L64 73 L64 76 L65 76 L67 79 L68 79 L72 79 L77 79 L78 76 L78 73 L79 75 L80 76 L82 77 L87 78 L96 76 L103 73 L104 73 L104 72 L104 69 L106 76 L108 78 L108 76 L110 66 L110 64 L115 71 L117 75 L117 72 L120 72 L122 72 L123 72 L127 81 L129 86 L131 82 L131 78 L132 74 L133 61 L137 31 L140 9 L141 7 L141 8 L145 36 L148 70 L150 78 L148 76 L139 69 L137 67 L144 67 L148 67 L150 68 L151 70 L154 68 L155 66 L161 69 L163 72 L164 72 L164 61 L163 59 L164 65 L167 72 L170 70 L171 64 L174 61 L175 63 L179 68 L180 64 L180 63 L179 65 M150 97 L156 99 L165 100 L174 101 L179 96 L182 92 L183 91 L187 90 L187 88 L189 85 L191 78 L187 65 L187 68 L189 74 M163 25 L166 25 L170 25 L170 24 M165 42 L166 42 M103 40 L104 40 M85 26 L85 22 M66 51 L63 51 L49 51 " fill="none" stroke="black" /><path d="M0 87 L0 88 L0 90 L1 95 L4 94 L7 87 L7 72 L7 67 L7 66 L8 73 L15 87 L16 90 L17 90 L21 84 L22 83 L23 81 L26 79 L31 64 L32 37 L39 12 L45 3 L46 0 L52 9 L70 43 L85 69 L102 91 L105 95 L98 102 L87 107 L82 105 L51 88 L47 87 L59 88 L71 88 L66 90 L63 91 L65 89 L65 73 L64 73 L64 76 L65 76 L67 79 L68 79 L72 79 L77 79 L78 76 L78 73 L79 75 L80 76 L82 77 L87 78 L96 76 L103 73 L104 73 L104 72 L104 69 L106 76 L108 78 L108 76 L110 66 L110 64 L115 71 L117 75 L117 72 L120 72 L122 72 L123 72 L127 81 L129 86 L131 82 L131 78 L132 74 L133 61 L137 31 L140 9 L141 7 L141 8 L145 36 L148 70 L150 78 L148 76 L139 69 L137 67 L144 67 L148 67 L150 68 L151 70 L154 68 L155 66 L161 69 L163 72 L164 72 L164 61 L163 59 L164 65 L167 72 L170 70 L171 64 L174 61 L175 63 L179 68 L180 64 L180 63 L179 65 M150 97 L156 99 L165 100 L174 101 L179 96 L182 92 L183 91 L187 90 L187 88 L189 85 L191 78 L187 65 L187 68 L189 74 M163 25 L166 25 L170 25 L170 24 M165 42 L166 42 M103 40 L104 40 M85 26 L85 22 M66 51 L63 51 L49 51 M38 90 L40 96 L40 101 L40 104 " fill="none" stroke="black" /><path d="M0 87 L0 88 L0 90 L1 95 L4 94 L7 87 L7 72 L7 67 L7 66 L8 73 L15 87 L16 90 L17 90 L21 84 L22 83 L23 81 L26 79 L31 64 L32 37 L39 12 L45 3 L46 0 L52 9 L70 43 L85 69 L102 91 L105 95 L98 102 L87 107 L82 105 L51 88 L47 87 L59 88 L71 88 L66 90 L63 91 L65 89 L65 73 L64 73 L64 76 L65 76 L67 79 L68 79 L72 79 L77 79 L78 76 L78 73 L79 75 L80 76 L82 77 L87 78 L96 76 L103 73 L104 73 L104 72 L104 69 L106 76 L108 78 L108 76 L110 66 L110 64 L115 71 L117 75 L117 72 L120 72 L122 72 L123 72 L127 81 L129 86 L131 82 L131 78 L132 74 L133 61 L137 31 L140 9 L141 7 L141 8 L145 36 L148 70 L150 78 L148 76 L139 69 L137 67 L144 67 L148 67 L150 68 L151 70 L154 68 L155 66 L161 69 L163 72 L164 72 L164 61 L163 59 L164 65 L167 72 L170 70 L171 64 L174 61 L175 63 L179 68 L180 64 L180 63 L179 65 M150 97 L156 99 L165 100 L174 101 L179 96 L182 92 L183 91 L187 90 L187 88 L189 85 L191 78 L187 65 L187 68 L189 74 M163 25 L166 25 L170 25 L170 24 M165 42 L166 42 M103 40 L104 40 M85 26 L85 22 M66 51 L63 51 L49 51 M38 90 L40 96 L40 101 L40 104 M65 112 L69 114 L73 115 " fill="none" stroke="black" /><path d="M0 87 L0 88 L0 90 L1 95 L4 94 L7 87 L7 72 L7 67 L7 66 L8 73 L15 87 L16 90 L17 90 L21 84 L22 83 L23 81 L26 79 L31 64 L32 37 L39 12 L45 3 L46 0 L52 9 L70 43 L85 69 L102 91 L105 95 L98 102 L87 107 L82 105 L51 88 L47 87 L59 88 L71 88 L66 90 L63 91 L65 89 L65 73 L64 73 L64 76 L65 76 L67 79 L68 79 L72 79 L77 79 L78 76 L78 73 L79 75 L80 76 L82 77 L87 78 L96 76 L103 73 L104 73 L104 72 L104 69 L106 76 L108 78 L108 76 L110 66 L110 64 L115 71 L117 75 L117 72 L120 72 L122 72 L123 72 L127 81 L129 86 L131 82 L131 78 L132 74 L133 61 L137 31 L140 9 L141 7 L141 8 L145 36 L148 70 L150 78 L148 76 L139 69 L137 67 L144 67 L148 67 L150 68 L151 70 L154 68 L155 66 L161 69 L163 72 L164 72 L164 61 L163 59 L164 65 L167 72 L170 70 L171 64 L174 61 L175 63 L179 68 L180 64 L180 63 L179 65 M150 97 L156 99 L165 100 L174 101 L179 96 L182 92 L183 91 L187 90 L187 88 L189 85 L191 78 L187 65 L187 68 L189 74 M163 25 L166 25 L170 25 L170 24 M165 42 L166 42 M103 40 L104 40 M85 26 L85 22 M66 51 L63 51 L49 51 M38 90 L40 96 L40 101 L40 104 M65 112 L69 114 L73 115 M111 109 L119 104 L125 100 " fill="none" stroke="black" /><path d="M0 87 L0 88 L0 90 L1 95 L4 94 L7 87 L7 72 L7 67 L7 66 L8 73 L15 87 L16 90 L17 90 L21 84 L22 83 L23 81 L26 79 L31 64 L32 37 L39 12 L45 3 L46 0 L52 9 L70 43 L85 69 L102 91 L105 95 L98 102 L87 107 L82 105 L51 88 L47 87 L59 88 L71 88 L66 90 L63 91 L65 89 L65 73 L64 73 L64 76 L65 76 L67 79 L68 79 L72 79 L77 79 L78 76 L78 73 L79 75 L80 76 L82 77 L87 78 L96 76 L103 73 L104 73 L104 72 L104 69 L106 76 L108 78 L108 76 L110 66 L110 64 L115 71 L117 75 L117 72 L120 72 L122 72 L123 72 L127 81 L129 86 L131 82 L131 78 L132 74 L133 61 L137 31 L140 9 L141 7 L141 8 L145 36 L148 70 L150 78 L148 76 L139 69 L137 67 L144 67 L148 67 L150 68 L151 70 L154 68 L155 66 L161 69 L163 72 L164 72 L164 61 L163 59 L164 65 L167 72 L170 70 L171 64 L174 61 L175 63 L179 68 L180 64 L180 63 L179 65 M150 97 L156 99 L165 100 L174 101 L179 96 L182 92 L183 91 L187 90 L187 88 L189 85 L191 78 L187 65 L187 68 L189 74 M163 25 L166 25 L170 25 L170 24 M165 42 L166 42 M103 40 L104 40 M85 26 L85 22 M66 51 L63 51 L49 51 M38 90 L40 96 L40 101 L40 104 M65 112 L69 114 L73 115 M111 109 L119 104 L125 100 M146 120 L146 121 " fill="none" stroke="black" /></svg>