<?xml version="1.0" encoding="utf-8" ?>
<svg baseProfile="tiny" height="272" version="1.2" viewBox="-3 -3 377 272" width="377" xmlns="http://www.w3.org/2000/svg" xmlns:ev="http://www.w3.org/2001/xml-events" xmlns:xlink="http://www.w3.org/1999/xlink"><defs /><path d="M0 222 L7 214 L12 204 L14 200 L15 197 L21 204 L35 219 L38 223 L39 223 L43 212 L44 201 L44 191 L44 188 L44 194 L48 201 L48 203 L54 197 L62 183 L63 181 L68 187 L77 200 L80 204 L81 190 L81 184 L84 190 L84 192 L87 188 L89 184 L90 184 L92 187 L95 189 L97 187 L100 177 L101 178 " fill="none" stroke="black" /><path d="M0 222 L7 214 L12 204 L14 200 L15 197 L21 204 L35 219 L38 223 L39 223 L43 212 L44 201 L44 191 L44 188 L44 194 L48 201 L48 203 L54 197 L62 183 L63 181 L68 187 L77 200 L80 204 L81 190 L81 184 L84 190 L84 192 L87 188 L89 184 L90 184 L92 187 L95 189 L97 187 L100 177 L101 178 M52 250 L59 248 L68 236 L69 233 L70 235 L78 245 L82 249 L87 244 L102 222 L111 210 L114 210 L124 210 L139 202 L147 186 L148 184 L151 180 L152 179 " fill="none" stroke="black" /><path d="M0 222 L7 214 L12 204 L14 200 L15 197 L21 204 L35 219 L38 223 L39 223 L43 212 L44 201 L44 191 L44 188 L44 194 L48 201 L48 203 L54 197 L62 183 L63 181 L68 187 L77 200 L80 204 L81 190 L81 184 L84 190 L84 192 L87 188 L89 184 L90 184 L92 187 L95 189 L97 187 L100 177 L101 178 M52 250 L59 248 L68 236 L69 233 L70 235 L78 245 L82 249 L87 244 L102 222 L111 210 L114 210 L124 210 L139 202 L147 186 L148 184 L151 180 L152 179 M143 149 L144 148 L162 136 L185 124 L191 134 L195 137 L197 134 L207 111 L210 75 L210 74 L211 74 L216 72 " fill="none" stroke="black" /><path d="M0 222 L7 214 L12 204 L14 200 L15 197 L21 204 L35 219 L38 223 L39 223 L43 212 L44 201 L44 191 L44 188 L44 194 L48 201 L48 203 L54 197 L62 183 L63 181 L68 187 L77 200 L80 204 L81 190 L81 184 L84 190 L84 192 L87 188 L89 184 L90 184 L92 187 L95 189 L97 187 L100 177 L101 178 M52 250 L59 248 L68 236 L69 233 L70 235 L78 245 L82 249 L87 244 L102 222 L111 210 L114 210 L124 210 L139 202 L147 186 L148 184 L151 180 L152 179 M143 149 L144 148 L162 136 L185 124 L191 134 L195 137 L197 134 L207 111 L210 75 L210 74 L211 74 L216 72 M200 182 L200 183 L202 182 L216 173 L231 154 L234 150 L236 154 L238 156 L239 156 L251 140 L263 123 L264 122 L269 118 L276 111 " fill="none" stroke="black" /><path d="M0 222 L7 214 L12 204 L14 200 L15 197 L21 204 L35 219 L38 223 L39 223 L43 212 L44 201 L44 191 L44 188 L44 194 L48 201 L48 203 L54 197 L62 183 L63 181 L68 187 L77 200 L80 204 L81 190 L81 184 L84 190 L84 192 L87 188 L89 184 L90 184 L92 187 L95 189 L97 187 L100 177 L101 178 M52 250 L59 248 L68 236 L69 233 L70 235 L78 245 L82 249 L87 244 L102 222 L111 210 L114 210 L124 210 L139 202 L147 186 L148 184 L151 180 L152 179 M143 149 L144 148 L162 136 L185 124 L191 134 L195 137 L197 134 L207 111 L210 75 L210 74 L211 74 L216 72 M200 182 L200 183 L202 182 L216 173 L231 154 L234 150 L236 154 L238 156 L239 156 L251 140 L263 123 L264 122 L269 118 L276 111 M248 53 L252 76 L255 85 L261 78 L274 52 " fill="none" stroke="black" /><path d="M0 222 L7 214 L12 204 L14 200 L15 197 L21 204 L35 219 L38 223 L39 223 L43 212 L44 201 L44 191 L44 188 L44 194 L48 201 L48 203 L54 197 L62 183 L63 181 L68 187 L77 200 L80 204 L81 190 L81 184 L84 190 L84 192 L87 188 L89 184 L90 184 L92 187 L95 189 L97 187 L100 177 L101 178 M52 250 L59 248 L68 236 L69 233 L70 235 L78 245 L82 249 L87 244 L102 222 L111 210 L114 210 L124 210 L139 202 L147 186 L148 184 L151 180 L152 179 M143 149 L144 148 L162 136 L185 124 L191 134 L195 137 L197 134 L207 111 L210 75 L210 74 L211 74 L216 72 M200 182 L200 183 L202 182 L216 173 L231 154 L234 150 L236 154 L238 156 L239 156 L251 140 L263 123 L264 122 L269 118 L276 111 M248 53 L252 76 L255 85 L261 78 L274 52 M296 43 L299 43 L304 40 L310 33 " fill="none" stroke="black" /><path d="M0 222 L7 214 L12 204 L14 200 L15 197 L21 204 L35 219 L38 223 L39 223 L43 212 L44 201 L44 191 L44 188 L44 194 L48 201 L48 203 L54 197 L62 183 L63 181 L68 187 L77 200 L80 204 L81 190 L81 184 L84 190 L84 192 L87 188 L89 184 L90 184 L92 187 L95 189 L97 187 L100 177 L101 178 M52 250 L59 248 L68 236 L69 233 L70 235 L78 245 L82 249 L87 244 L102 222 L111 210 L114 210 L124 210 L139 202 L147 186 L148 184 L151 180 L152 179 M143 149 L144 148 L162 136 L185 124 L191 134 L195 137 L197 134 L207 111 L210 75 L210 74 L211 74 L216 72 M200 182 L200 183 L202 182 L216 173 L231 154 L234 150 L236 154 L238 156 L239 156 L251 140 L263 123 L264 122 L269 118 L276 111 M248 53 L252 76 L255 85 L261 78 L274 52 M296 43 L299 43 L304 40 L310 33 M313 163 L314 163 L323 148 L329 117 L329 83 L328 77 L330 84 L334 89 L334 90 L356 76 L376 57 L377 57 " fill="none" stroke="black" /><path d="M0 222 L7 214 L12 204 L14 200 L15 197 L21 204 L35 219 L38 223 L39 223 L43 212 L44 201 L44 191 L44 188 L44 194 L48 201 L48 203 L54 197 L62 183 L63 181 L68 187 L77 200 L80 204 L81 190 L81 184 L84 190 L84 192 L87 188 L89 184 L90 184 L92 187 L95 189 L97 187 L100 177 L101 178 M52 250 L59 248 L68 236 L69 233 L70 235 L78 245 L82 249 L87 244 L102 222 L111 210 L114 210 L124 210 L139 202 L147 186 L148 184 L151 180 L152 179 M143 149 L144 148 L162 136 L185 124 L191 134 L195 137 L197 134 L207 111 L210 75 L210 74 L211 74 L216 72 M200 182 L200 183 L202 182 L216 173 L231 154 L234 150 L236 154 L238 156 L239 156 L251 140 L263 123 L264 122 L269 118 L276 111 M248 53 L252 76 L255 85 L261 78 L274 52 M296 43 L299 43 L304 40 L310 33 M313 163 L314 163 L323 148 L329 117 L329 83 L328 77 L330 84 L334 89 L334 90 L356 76 L376 57 L377 57 M282 77 L288 75 L310 64 L328 51 L334 43 L335 44 L337 46 L344 47 L362 40 L370 31 " fill="none" stroke="black" /><path d="M0 222 L7 214 L12 204 L14 200 L15 197 L21 204 L35 219 L38 223 L39 223 L43 212 L44 201 L44 191 L44 188 L44 194 L48 201 L48 203 L54 197 L62 183 L63 181 L68 187 L77 200 L80 204 L81 190 L81 184 L84 190 L84 192 L87 188 L89 184 L90 184 L92 187 L95 189 L97 187 L100 177 L101 178 M52 250 L59 248 L68 236 L69 233 L70 235 L78 245 L82 249 L87 244 L102 222 L111 210 L114 210 L124 210 L139 202 L147 186 L148 184 L151 180 L152 179 M143 149 L144 148 L162 136 L185 124 L191 134 L195 137 L197 134 L207 111 L210 75 L210 74 L211 74 L216 72 M200 182 L200 183 L202 182 L216 173 L231 154 L234 150 L236 154 L238 156 L239 156 L251 140 L263 123 L264 122 L269 118 L276 111 M248 53 L252 76 L255 85 L261 78 L274 52 M296 43 L299 43 L304 40 L310 33 M313 163 L314 163 L323 148 L329 117 L329 83 L328 77 L330 84 L334 89 L334 90 L356 76 L376 57 L377 57 M282 77 L288 75 L310 64 L328 51 L334 43 L335 44 L337 46 L344 47 L362 40 L370 31 M199 272 L206 258 L228 224 L247 203 L258 196 L260 197 L267 207 L271 210 L273 210 L287 192 L307 155 L308 156 L310 160 " fill="none" stroke="black" /><path d="M0 222 L7 214 L12 204 L14 200 L15 197 L21 204 L35 219 L38 223 L39 223 L43 212 L44 201 L44 191 L44 188 L44 194 L48 201 L48 203 L54 197 L62 183 L63 181 L68 187 L77 200 L80 204 L81 190 L81 184 L84 190 L84 192 L87 188 L89 184 L90 184 L92 187 L95 189 L97 187 L100 177 L101 178 M52 250 L59 248 L68 236 L69 233 L70 235 L78 245 L82 249 L87 244 L102 222 L111 210 L114 210 L124 210 L139 202 L147 186 L148 184 L151 180 L152 179 M143 149 L144 148 L162 136 L185 124 L191 134 L195 137 L197 134 L207 111 L210 75 L210 74 L211 74 L216 72 M200 182 L200 183 L202 182 L216 173 L231 154 L234 150 L236 154 L238 156 L239 156 L251 140 L263 123 L264 122 L269 118 L276 111 M248 53 L252 76 L255 85 L261 78 L274 52 M296 43 L299 43 L304 40 L310 33 M313 163 L314 163 L323 148 L329 117 L329 83 L328 77 L330 84 L334 89 L334 90 L356 76 L376 57 L377 57 M282 77 L288 75 L310 64 L328 51 L334 43 L335 44 L337 46 L344 47 L362 40 L370 31 M199 272 L206 258 L228 224 L247 203 L258 196 L260 197 L267 207 L271 210 L273 210 L287 192 L307 155 L308 156 L310 160 M50 96 L55 90 L73 59 L86 30 L89 40 L109 74 L117 76 L129 65 L149 40 L173 18 L177 13 L178 13 L194 18 L205 21 L217 22 L221 22 L232 16 L248 0 " fill="none" stroke="black" /><path d="M0 222 L7 214 L12 204 L14 200 L15 197 L21 204 L35 219 L38 223 L39 223 L43 212 L44 201 L44 191 L44 188 L44 194 L48 201 L48 203 L54 197 L62 183 L63 181 L68 187 L77 200 L80 204 L81 190 L81 184 L84 190 L84 192 L87 188 L89 184 L90 184 L92 187 L95 189 L97 187 L100 177 L101 178 M52 250 L59 248 L68 236 L69 233 L70 235 L78 245 L82 249 L87 244 L102 222 L111 210 L114 210 L124 210 L139 202 L147 186 L148 184 L151 180 L152 179 M143 149 L144 148 L162 136 L185 124 L191 134 L195 137 L197 134 L207 111 L210 75 L210 74 L211 74 L216 72 M200 182 L200 183 L202 182 L216 173 L231 154 L234 150 L236 154 L238 156 L239 156 L251 140 L263 123 L264 122 L269 118 L276 111 M248 53 L252 76 L255 85 L261 78 L274 52 M296 43 L299 43 L304 40 L310 33 M313 163 L314 163 L323 148 L329 117 L329 83 L328 77 L330 84 L334 89 L334 90 L356 76 L376 57 L377 57 M282 77 L288 75 L310 64 L328 51 L334 43 L335 44 L337 46 L344 47 L362 40 L370 31 M199 272 L206 258 L228 224 L247 203 L258 196 L260 197 L267 207 L271 210 L273 210 L287 192 L307 155 L308 156 L310 160 M50 96 L55 90 L73 59 L86 30 L89 40 L109 74 L117 76 L129 65 L149 40 L173 18 L177 13 L178 13 L194 18 L205 21 L217 22 L221 22 L232 16 L248 0 M310 246 L311 246 L313 246 L324 242 L349 219 L360 191 L360 185 L363 192 L366 199 L369 190 L373 175 L373 173 " fill="none" stroke="black" /></svg>