<?xml version="1.0" encoding="utf-8" ?>
<svg baseProfile="tiny" height="45" version="1.2" viewBox="-3 -3 190 45" width="190" xmlns="http://www.w3.org/2000/svg" xmlns:ev="http://www.w3.org/2001/xml-events" xmlns:xlink="http://www.w3.org/1999/xlink"><defs /><path d="M0 36 L1 35 L5 34 L8 32 L10 31 L13 29 L16 25 L19 22 L21 19 L22 16 L22 13 L23 10 L23 9 L23 6 L23 5 L21 4 L15 1 L14 0 L8 0 L7 0 L7 1 L5 3 L5 5 L3 8 L3 10 L3 11 L3 12 L3 14 L3 16 L3 19 L3 21 L4 23 L5 26 L8 30 L12 33 L15 36 L21 39 L26 41 L29 41 L30 41 L33 41 L37 41 L41 41 L42 41 L44 38 L49 34 L54 29 L55 28 L56 27 L60 24 L62 23 L64 23 L64 22 L65 22 L66 24 L66 28 L66 33 L66 38 L66 42 L66 44 L67 45 L68 45 L69 45 L70 45 L73 43 L75 41 L76 39 L78 34 L79 30 L79 27 L80 25 L81 24 L82 24 L83 25 L87 28 L89 30 L92 34 L94 35 L96 38 L97 40 L98 42 L100 44 L101 44 L104 44 L106 44 L107 43 L110 41 L111 38 L114 36 L115 34 L115 31 L116 28 L118 24 L118 22 L118 19 L118 17 L118 12 L118 11 L118 10 L118 7 L118 2 L117 2 L115 1 L113 1 L112 1 L111 3 L110 7 L109 8 L109 10 L109 11 L109 13 L109 14 L110 16 L112 20 L114 23 L116 24 L117 26 L120 29 L123 32 L124 32 L129 32 L131 32 L132 32 L135 29 L137 27 L140 21 L145 16 L146 15 L147 15 L149 22 L153 30 L154 33 L154 34 L155 34 L159 34 L162 32 L164 28 L164 25 L166 20 L169 14 L171 16 L173 22 L176 27 L178 29 L180 32 L182 34 L186 35 L187 36 L188 36 L190 34 " fill="none" stroke="black" /></svg>