<?xml version="1.0" encoding="utf-8" ?>
<svg baseProfile="tiny" height="267" version="1.2" viewBox="-3 -3 346 267" width="346" xmlns="http://www.w3.org/2000/svg" xmlns:ev="http://www.w3.org/2001/xml-events" xmlns:xlink="http://www.w3.org/1999/xlink"><defs /><path d="M175 36 L183 29 L192 23 L197 21 L206 29 L212 38 L222 53 L235 69 L244 87 L251 101 L261 118 L268 129 L275 143 L278 154 L282 167 L284 184 L284 204 L284 214 L284 224 L283 238 L280 244 L276 252 L273 255 L271 257 L266 260 L257 266 L252 267 L247 267 L235 262 L222 253 L217 250 L215 246 L204 237 L199 232 L197 230 L191 227 L183 224 L169 220 L152 215 L150 215 L145 215 L134 216 L132 217 L114 217 L105 217 L104 217 L96 217 L78 218 L77 218 L69 218 L65 218 L58 217 L45 216 L43 216 " fill="none" stroke="black" /><path d="M175 36 L183 29 L192 23 L197 21 L206 29 L212 38 L222 53 L235 69 L244 87 L251 101 L261 118 L268 129 L275 143 L278 154 L282 167 L284 184 L284 204 L284 214 L284 224 L283 238 L280 244 L276 252 L273 255 L271 257 L266 260 L257 266 L252 267 L247 267 L235 262 L222 253 L217 250 L215 246 L204 237 L199 232 L197 230 L191 227 L183 224 L169 220 L152 215 L150 215 L145 215 L134 216 L132 217 L114 217 L105 217 L104 217 L96 217 L78 218 L77 218 L69 218 L65 218 L58 217 L45 216 L43 216 M0 208 L3 208 L5 208 L16 208 L25 208 L30 207 L31 206 L35 205 L37 205 L39 204 L43 199 L48 196 L49 195 L53 191 L55 189 L55 188 L61 188 L63 190 L65 192 L70 195 L71 195 L72 193 L74 191 L75 187 L76 185 L77 185 L83 186 L85 186 L90 183 L92 180 L93 178 L99 178 L100 178 L101 178 L105 178 L112 173 L114 169 L118 169 L121 170 L126 171 L128 171 L136 167 L148 158 L150 156 L154 156 L158 157 L159 157 L167 156 L173 154 L174 152 L176 151 L182 149 L184 147 L192 144 L197 143 L202 140 L205 137 L208 135 L210 134 L211 133 L213 132 " fill="none" stroke="black" /><path d="M175 36 L183 29 L192 23 L197 21 L206 29 L212 38 L222 53 L235 69 L244 87 L251 101 L261 118 L268 129 L275 143 L278 154 L282 167 L284 184 L284 204 L284 214 L284 224 L283 238 L280 244 L276 252 L273 255 L271 257 L266 260 L257 266 L252 267 L247 267 L235 262 L222 253 L217 250 L215 246 L204 237 L199 232 L197 230 L191 227 L183 224 L169 220 L152 215 L150 215 L145 215 L134 216 L132 217 L114 217 L105 217 L104 217 L96 217 L78 218 L77 218 L69 218 L65 218 L58 217 L45 216 L43 216 M0 208 L3 208 L5 208 L16 208 L25 208 L30 207 L31 206 L35 205 L37 205 L39 204 L43 199 L48 196 L49 195 L53 191 L55 189 L55 188 L61 188 L63 190 L65 192 L70 195 L71 195 L72 193 L74 191 L75 187 L76 185 L77 185 L83 186 L85 186 L90 183 L92 180 L93 178 L99 178 L100 178 L101 178 L105 178 L112 173 L114 169 L118 169 L121 170 L126 171 L128 171 L136 167 L148 158 L150 156 L154 156 L158 157 L159 157 L167 156 L173 154 L174 152 L176 151 L182 149 L184 147 L192 144 L197 143 L202 140 L205 137 L208 135 L210 134 L211 133 L213 132 M223 52 L224 51 L227 49 L230 45 L234 38 L239 30 L240 28 L240 26 L244 25 L250 22 L258 17 L295 5 L307 0 " fill="none" stroke="black" /><path d="M175 36 L183 29 L192 23 L197 21 L206 29 L212 38 L222 53 L235 69 L244 87 L251 101 L261 118 L268 129 L275 143 L278 154 L282 167 L284 184 L284 204 L284 214 L284 224 L283 238 L280 244 L276 252 L273 255 L271 257 L266 260 L257 266 L252 267 L247 267 L235 262 L222 253 L217 250 L215 246 L204 237 L199 232 L197 230 L191 227 L183 224 L169 220 L152 215 L150 215 L145 215 L134 216 L132 217 L114 217 L105 217 L104 217 L96 217 L78 218 L77 218 L69 218 L65 218 L58 217 L45 216 L43 216 M0 208 L3 208 L5 208 L16 208 L25 208 L30 207 L31 206 L35 205 L37 205 L39 204 L43 199 L48 196 L49 195 L53 191 L55 189 L55 188 L61 188 L63 190 L65 192 L70 195 L71 195 L72 193 L74 191 L75 187 L76 185 L77 185 L83 186 L85 186 L90 183 L92 180 L93 178 L99 178 L100 178 L101 178 L105 178 L112 173 L114 169 L118 169 L121 170 L126 171 L128 171 L136 167 L148 158 L150 156 L154 156 L158 157 L159 157 L167 156 L173 154 L174 152 L176 151 L182 149 L184 147 L192 144 L197 143 L202 140 L205 137 L208 135 L210 134 L211 133 L213 132 M223 52 L224 51 L227 49 L230 45 L234 38 L239 30 L240 28 L240 26 L244 25 L250 22 L258 17 L295 5 L307 0 M270 150 L274 145 L290 134 L302 128 L306 128 L315 131 L321 132 L326 132 L331 130 L338 127 L345 123 " fill="none" stroke="black" /><path d="M175 36 L183 29 L192 23 L197 21 L206 29 L212 38 L222 53 L235 69 L244 87 L251 101 L261 118 L268 129 L275 143 L278 154 L282 167 L284 184 L284 204 L284 214 L284 224 L283 238 L280 244 L276 252 L273 255 L271 257 L266 260 L257 266 L252 267 L247 267 L235 262 L222 253 L217 250 L215 246 L204 237 L199 232 L197 230 L191 227 L183 224 L169 220 L152 215 L150 215 L145 215 L134 216 L132 217 L114 217 L105 217 L104 217 L96 217 L78 218 L77 218 L69 218 L65 218 L58 217 L45 216 L43 216 M0 208 L3 208 L5 208 L16 208 L25 208 L30 207 L31 206 L35 205 L37 205 L39 204 L43 199 L48 196 L49 195 L53 191 L55 189 L55 188 L61 188 L63 190 L65 192 L70 195 L71 195 L72 193 L74 191 L75 187 L76 185 L77 185 L83 186 L85 186 L90 183 L92 180 L93 178 L99 178 L100 178 L101 178 L105 178 L112 173 L114 169 L118 169 L121 170 L126 171 L128 171 L136 167 L148 158 L150 156 L154 156 L158 157 L159 157 L167 156 L173 154 L174 152 L176 151 L182 149 L184 147 L192 144 L197 143 L202 140 L205 137 L208 135 L210 134 L211 133 L213 132 M223 52 L224 51 L227 49 L230 45 L234 38 L239 30 L240 28 L240 26 L244 25 L250 22 L258 17 L295 5 L307 0 M270 150 L274 145 L290 134 L302 128 L306 128 L315 131 L321 132 L326 132 L331 130 L338 127 L345 123 M287 212 L290 210 L301 208 L309 208 L313 209 L319 213 L331 220 L339 221 L342 218 L345 213 L346 212 " fill="none" stroke="black" /></svg>