<?xml version="1.0" encoding="utf-8" ?>
<svg baseProfile="tiny" height="117" version="1.2" viewBox="-3 -3 316 117" width="316" xmlns="http://www.w3.org/2000/svg" xmlns:ev="http://www.w3.org/2001/xml-events" xmlns:xlink="http://www.w3.org/1999/xlink"><defs /><path d="M123 112 L123 116 L123 117 L123 111 L124 109 L125 108 L127 108 L128 108 L130 107 L130 101 L130 95 L131 94 L134 100 L136 101 L140 99 L142 98 L144 98 L145 98 L148 98 L149 98 L155 100 L156 101 L159 101 L160 101 L163 101 L171 103 L172 103 L174 103 L176 103 L177 103 L181 103 L196 106 L198 106 L199 104 L199 92 L198 82 L198 59 L199 55 L201 60 L203 70 L203 74 L209 59 L216 38 L217 36 L214 55 L214 68 L214 69 L214 73 L214 74 L214 79 L214 80 L214 84 L214 87 L216 85 L221 80 L221 83 L222 84 L226 82 L227 75 L227 73 L227 74 L228 84 L229 88 L230 88 L233 87 L234 87 L235 87 L246 87 L252 85 L253 81 L253 82 L260 83 L261 83 L262 84 L264 87 L266 87 L272 87 L274 87 L282 89 L292 93 L293 94 L295 94 L300 87 L308 80 L316 72 L316 65 L313 54 L289 31 L256 10 L252 8 L243 10 L227 19 L224 26 L224 28 L224 35 L221 43 L202 53 L176 58 L175 58 L175 57 L172 48 L140 11 L127 0 L127 3 L134 21 L136 22 L136 23 L141 32 L145 46 L146 46 L147 47 L152 50 L158 53 L147 53 L141 55 L140 55 L136 54 L101 44 L92 41 L82 40 L69 38 L61 35 L58 34 L44 33 L38 33 L35 33 L22 32 L13 31 L9 34 L7 37 L6 38 L0 45 L0 46 L1 50 L5 54 L32 64 L45 65 L44 65 L49 58 L50 56 L49 64 L49 71 L55 69 L60 61 L61 58 L61 68 L61 71 L64 70 L67 65 L66 67 " fill="none" stroke="black" /></svg>