<?xml version="1.0" encoding="utf-8" ?>
<svg baseProfile="tiny" height="13" version="1.2" viewBox="-3 -3 268 13" width="268" xmlns="http://www.w3.org/2000/svg" xmlns:ev="http://www.w3.org/2001/xml-events" xmlns:xlink="http://www.w3.org/1999/xlink"><defs /><path d="M0 11 L6 11 L8 12 L11 12 L12 12 L17 12 L19 13 L21 13 L24 13 L26 13 L27 13 L29 13 L31 13 L33 13 L35 13 L38 13 L40 13 L43 13 L46 13 L50 12 L52 11 L53 10 L55 9 L59 9 L61 9 L64 9 L65 10 L66 10 L69 10 L71 10 L72 10 L77 11 L80 12 L83 13 L88 13 L91 13 L92 13 L93 13 L96 13 L97 13 L100 13 L103 13 L106 13 L109 13 L109 12 L111 12 L114 11 L114 9 L116 8 L117 7 L118 6 L118 5 L119 5 L121 7 L125 10 L128 11 L129 12 L130 12 L131 12 L133 12 L135 12 L136 12 L141 12 L142 12 L144 12 L146 12 L147 12 L149 11 L150 11 L151 11 L152 10 L154 10 L157 9 L158 9 L159 9 L160 9 L164 9 L166 9 L168 9 L169 9 L171 9 L172 9 L173 9 L174 9 L175 10 L177 11 L178 11 L180 11 L181 11 L182 11 L183 11 L184 11 L184 10 L185 10 L186 9 L187 7 L189 4 L189 2 L189 1 L190 1 L191 2 L192 2 L193 3 L193 4 L195 5 L197 6 L201 8 L201 9 L202 9 L204 9 L205 9 L207 9 L207 8 L208 7 L210 6 L211 6 L213 6 L214 6 L219 7 L221 8 L222 8 L225 8 L226 8 L227 8 L228 8 L230 8 L231 8 L233 7 L234 7 L236 7 L238 7 L239 7 L240 7 L243 7 L246 7 L247 7 L249 7 L250 7 L251 7 L252 6 L253 5 L253 4 L254 4 L254 2 L255 1 L256 1 L256 0 L263 3 L268 6 " fill="none" stroke="black" /></svg>