<?xml version="1.0" encoding="utf-8" ?>
<svg baseProfile="tiny" height="165" version="1.2" viewBox="-3 -3 122 165" width="122" xmlns="http://www.w3.org/2000/svg" xmlns:ev="http://www.w3.org/2001/xml-events" xmlns:xlink="http://www.w3.org/1999/xlink"><defs /><path d="M0 100 L8 106 L19 115 L27 123 L30 126 L33 133 L34 140 L35 149 L35 153 L34 159 L32 162 L28 164 L23 165 L13 164 L9 159 L5 152 L4 145 L4 141 L5 136 L8 130 L11 125 L14 123 L21 116 L27 112 L31 108 L36 105 L39 102 L43 98 L47 90 L52 84 L54 78 L55 72 L55 63 L55 52 L53 41 L53 35 L51 28 L47 20 L43 13 L41 9 L39 8 L37 6 L30 3 L25 0 L18 0 L10 3 L9 3 L8 6 L5 11 L4 17 L3 19 L3 24 L3 25 L3 30 L3 35 L4 39 L4 40 L6 43 L8 45 L12 48 L22 55 L25 56 L34 59 L39 60 L43 60 L48 59 L51 57 L52 56 L53 54 L55 52 L56 50 L56 49 L57 47 L58 45 L61 40 L62 35 L64 30 L65 26 L67 23 L68 22 L72 22 L74 22 L76 22 L79 24 L83 28 L87 33 L88 35 L88 36 L89 37 L92 44 L95 46 L95 47 L95 48 L98 53 L99 56 L99 57 L101 61 L103 65 L106 68 L109 71 L112 73 L114 74 L118 75 L120 75 L121 75 L122 72 L122 69 L122 66 L122 63 L122 61 L122 57 L122 54 L121 52 L119 47 L118 44 L116 40 L114 40 L109 39 L108 39 L105 42 L104 45 L102 48 L101 49 L101 51 L100 53 L99 56 L99 58 L98 59 L98 63 L98 65 L98 66 L96 69 L96 70 L95 72 L94 73 L94 75 L94 76 L94 78 L94 79 L94 80 L94 81 L94 83 L94 85 L93 86 L92 87 L91 87 L91 88 L90 88 L87 88 L83 88 " fill="none" stroke="black" /></svg>