<?xml version="1.0" encoding="utf-8" ?>
<svg baseProfile="tiny" height="304" version="1.2" viewBox="-3 -3 415 304" width="415" xmlns="http://www.w3.org/2000/svg" xmlns:ev="http://www.w3.org/2001/xml-events" xmlns:xlink="http://www.w3.org/1999/xlink"><defs /><circle cx="24" cy="226" fill="black" r="1" /><path d="M19 200 L22 202 L25 205 L36 218 L48 235 L48 236 " fill="none" stroke="black" /><path d="M19 200 L22 202 L25 205 L36 218 L48 235 L48 236 M24 179 L29 185 L45 208 L61 232 L66 238 " fill="none" stroke="black" /><path d="M19 200 L22 202 L25 205 L36 218 L48 235 L48 236 M24 179 L29 185 L45 208 L61 232 L66 238 M56 196 L57 196 " fill="none" stroke="black" /><path d="M19 200 L22 202 L25 205 L36 218 L48 235 L48 236 M24 179 L29 185 L45 208 L61 232 L66 238 M56 196 L57 196 M44 162 L47 164 L73 194 L104 230 L116 244 " fill="none" stroke="black" /><circle cx="86" cy="187" fill="black" r="1" /><path d="M19 200 L22 202 L25 205 L36 218 L48 235 L48 236 M24 179 L29 185 L45 208 L61 232 L66 238 M56 196 L57 196 M44 162 L47 164 L73 194 L104 230 L116 244 M69 128 L71 133 L96 159 L134 198 L155 226 L159 234 " fill="none" stroke="black" /><circle cx="122" cy="154" fill="black" r="1" /><path d="M19 200 L22 202 L25 205 L36 218 L48 235 L48 236 M24 179 L29 185 L45 208 L61 232 L66 238 M56 196 L57 196 M44 162 L47 164 L73 194 L104 230 L116 244 M69 128 L71 133 L96 159 L134 198 L155 226 L159 234 M123 107 L162 141 L191 176 L201 195 L219 224 L229 241 " fill="none" stroke="black" /><circle cx="181" cy="132" fill="black" r="1" /><path d="M19 200 L22 202 L25 205 L36 218 L48 235 L48 236 M24 179 L29 185 L45 208 L61 232 L66 238 M56 196 L57 196 M44 162 L47 164 L73 194 L104 230 L116 244 M69 128 L71 133 L96 159 L134 198 L155 226 L159 234 M123 107 L162 141 L191 176 L201 195 L219 224 L229 241 M169 75 L192 91 L220 125 L266 193 L284 225 " fill="none" stroke="black" /><circle cx="243" cy="133" fill="black" r="1" /><path d="M19 200 L22 202 L25 205 L36 218 L48 235 L48 236 M24 179 L29 185 L45 208 L61 232 L66 238 M56 196 L57 196 M44 162 L47 164 L73 194 L104 230 L116 244 M69 128 L71 133 L96 159 L134 198 L155 226 L159 234 M123 107 L162 141 L191 176 L201 195 L219 224 L229 241 M169 75 L192 91 L220 125 L266 193 L284 225 M232 75 L264 113 L293 151 L302 174 L310 190 L314 193 " fill="none" stroke="black" /><circle cx="285" cy="131" fill="black" r="1" /><path d="M19 200 L22 202 L25 205 L36 218 L48 235 L48 236 M24 179 L29 185 L45 208 L61 232 L66 238 M56 196 L57 196 M44 162 L47 164 L73 194 L104 230 L116 244 M69 128 L71 133 L96 159 L134 198 L155 226 L159 234 M123 107 L162 141 L191 176 L201 195 L219 224 L229 241 M169 75 L192 91 L220 125 L266 193 L284 225 M232 75 L264 113 L293 151 L302 174 L310 190 L314 193 M261 62 L264 71 L283 103 L315 148 L333 177 L335 181 " fill="none" stroke="black" /><circle cx="309" cy="106" fill="black" r="1" /><path d="M19 200 L22 202 L25 205 L36 218 L48 235 L48 236 M24 179 L29 185 L45 208 L61 232 L66 238 M56 196 L57 196 M44 162 L47 164 L73 194 L104 230 L116 244 M69 128 L71 133 L96 159 L134 198 L155 226 L159 234 M123 107 L162 141 L191 176 L201 195 L219 224 L229 241 M169 75 L192 91 L220 125 L266 193 L284 225 M232 75 L264 113 L293 151 L302 174 L310 190 L314 193 M261 62 L264 71 L283 103 L315 148 L333 177 L335 181 M312 78 L312 81 L314 87 L319 96 L326 105 L330 110 L333 114 L335 117 " fill="none" stroke="black" /><circle cx="336" cy="84" fill="black" r="1" /><path d="M19 200 L22 202 L25 205 L36 218 L48 235 L48 236 M24 179 L29 185 L45 208 L61 232 L66 238 M56 196 L57 196 M44 162 L47 164 L73 194 L104 230 L116 244 M69 128 L71 133 L96 159 L134 198 L155 226 L159 234 M123 107 L162 141 L191 176 L201 195 L219 224 L229 241 M169 75 L192 91 L220 125 L266 193 L284 225 M232 75 L264 113 L293 151 L302 174 L310 190 L314 193 M261 62 L264 71 L283 103 L315 148 L333 177 L335 181 M312 78 L312 81 L314 87 L319 96 L326 105 L330 110 L333 114 L335 117 M305 21 L307 21 L317 31 L330 48 L350 75 L361 89 L368 97 " fill="none" stroke="black" /><circle cx="352" cy="48" fill="black" r="1" /><path d="M19 200 L22 202 L25 205 L36 218 L48 235 L48 236 M24 179 L29 185 L45 208 L61 232 L66 238 M56 196 L57 196 M44 162 L47 164 L73 194 L104 230 L116 244 M69 128 L71 133 L96 159 L134 198 L155 226 L159 234 M123 107 L162 141 L191 176 L201 195 L219 224 L229 241 M169 75 L192 91 L220 125 L266 193 L284 225 M232 75 L264 113 L293 151 L302 174 L310 190 L314 193 M261 62 L264 71 L283 103 L315 148 L333 177 L335 181 M312 78 L312 81 L314 87 L319 96 L326 105 L330 110 L333 114 L335 117 M305 21 L307 21 L317 31 L330 48 L350 75 L361 89 L368 97 M333 10 L338 15 L349 28 L369 50 L377 60 L380 64 L382 66 L383 67 L389 72 " fill="none" stroke="black" /><circle cx="376" cy="27" fill="black" r="1" /><path d="M19 200 L22 202 L25 205 L36 218 L48 235 L48 236 M24 179 L29 185 L45 208 L61 232 L66 238 M56 196 L57 196 M44 162 L47 164 L73 194 L104 230 L116 244 M69 128 L71 133 L96 159 L134 198 L155 226 L159 234 M123 107 L162 141 L191 176 L201 195 L219 224 L229 241 M169 75 L192 91 L220 125 L266 193 L284 225 M232 75 L264 113 L293 151 L302 174 L310 190 L314 193 M261 62 L264 71 L283 103 L315 148 L333 177 L335 181 M312 78 L312 81 L314 87 L319 96 L326 105 L330 110 L333 114 L335 117 M305 21 L307 21 L317 31 L330 48 L350 75 L361 89 L368 97 M333 10 L338 15 L349 28 L369 50 L377 60 L380 64 L382 66 L383 67 L389 72 M415 102 L412 111 L407 118 L402 126 L394 137 L387 146 L378 157 L364 175 L342 196 L331 209 L315 221 L297 237 L283 251 L261 264 L241 281 L230 288 L226 292 L218 296 L214 299 L208 300 L182 304 L179 304 " fill="none" stroke="black" /><path d="M19 200 L22 202 L25 205 L36 218 L48 235 L48 236 M24 179 L29 185 L45 208 L61 232 L66 238 M56 196 L57 196 M44 162 L47 164 L73 194 L104 230 L116 244 M69 128 L71 133 L96 159 L134 198 L155 226 L159 234 M123 107 L162 141 L191 176 L201 195 L219 224 L229 241 M169 75 L192 91 L220 125 L266 193 L284 225 M232 75 L264 113 L293 151 L302 174 L310 190 L314 193 M261 62 L264 71 L283 103 L315 148 L333 177 L335 181 M312 78 L312 81 L314 87 L319 96 L326 105 L330 110 L333 114 L335 117 M305 21 L307 21 L317 31 L330 48 L350 75 L361 89 L368 97 M333 10 L338 15 L349 28 L369 50 L377 60 L380 64 L382 66 L383 67 L389 72 M415 102 L412 111 L407 118 L402 126 L394 137 L387 146 L378 157 L364 175 L342 196 L331 209 L315 221 L297 237 L283 251 L261 264 L241 281 L230 288 L226 292 L218 296 L214 299 L208 300 L182 304 L179 304 M294 0 L288 5 L280 9 L262 15 L245 26 L240 30 L230 34 L219 40 L205 47 L185 56 L164 61 L133 66 L119 73 L107 79 L87 90 L71 101 L65 106 L58 112 L49 117 L44 121 L43 121 L42 121 L35 124 L31 126 L29 127 L25 130 L21 133 L19 133 L13 139 L10 142 L7 145 L5 146 L1 149 L0 150 " fill="none" stroke="black" /></svg>