<?xml version="1.0" encoding="utf-8" ?>
<svg baseProfile="tiny" height="91" version="1.2" viewBox="-3 -3 280 91" width="280" xmlns="http://www.w3.org/2000/svg" xmlns:ev="http://www.w3.org/2001/xml-events" xmlns:xlink="http://www.w3.org/1999/xlink"><defs /><path d="M0 91 L1 91 L2 90 L4 90 L6 89 L7 88 L8 87 L9 85 L9 84 L9 81 L10 77 L10 75 L10 74 L10 71 L10 70 L12 66 L12 67 L13 69 L15 71 L16 72 L18 75 L20 76 L25 76 L26 76 L27 76 L28 77 L31 79 L33 79 L34 79 L36 80 L39 80 L42 80 L43 80 L45 80 L47 80 L51 80 L64 77 L81 77 L83 77 L83 76 L84 75 L84 74 L84 69 L84 65 L83 60 L76 54 L68 48 L62 47 L57 46 L53 45 L48 45 L47 45 L45 45 L43 45 L40 45 L35 45 L34 45 L33 45 L30 45 L28 45 L25 45 L22 45 L19 45 L18 45 L15 45 L14 46 L14 47 L18 48 L20 48 L26 50 L28 50 L33 52 L34 52 L35 52 L36 52 L38 52 L39 52 L40 52 L43 52 L44 52 L46 52 L49 52 L53 52 L55 51 L57 51 L60 50 L62 50 L65 48 L72 48 L72 47 L76 46 L77 46 L79 45 L88 44 L113 40 L136 32 L138 32 L139 31 L140 30 L140 28 L140 27 L138 29 L138 32 L138 35 L139 38 L140 43 L141 45 L143 50 L143 53 L144 54 L147 56 L149 56 L149 57 L150 61 L150 62 L153 62 L154 60 L156 57 L157 56 L159 54 L161 51 L162 48 L164 46 L174 40 L175 37 L177 37 L178 37 L193 46 L202 50 L205 49 L222 44 L230 41 L231 39 L233 36 L233 34 L233 33 L237 30 L242 28 L243 27 L245 27 L249 27 L252 27 L253 27 L255 25 L257 23 L263 18 L272 9 L280 4 L277 0 " fill="none" stroke="black" /></svg>