<?xml version="1.0" encoding="utf-8" ?>
<svg baseProfile="tiny" height="152" version="1.2" viewBox="-3 -3 172 152" width="172" xmlns="http://www.w3.org/2000/svg" xmlns:ev="http://www.w3.org/2001/xml-events" xmlns:xlink="http://www.w3.org/1999/xlink"><defs /><path d="M92 24 L92 26 L92 31 L94 34 L95 36 L99 41 L100 45 L100 47 L100 48 L100 50 L99 51 " fill="none" stroke="black" /><path d="M92 24 L92 26 L92 31 L94 34 L95 36 L99 41 L100 45 L100 47 L100 48 L100 50 L99 51 M36 146 L36 145 L34 144 L33 142 L31 136 L30 134 L28 139 L22 149 L21 151 L19 147 L18 144 L17 137 L17 145 L18 151 L18 152 L17 146 L16 140 L15 140 L14 138 L11 133 L8 135 L8 136 L7 133 L2 123 L1 123 L0 129 " fill="none" stroke="black" /><path d="M92 24 L92 26 L92 31 L94 34 L95 36 L99 41 L100 45 L100 47 L100 48 L100 50 L99 51 M36 146 L36 145 L34 144 L33 142 L31 136 L30 134 L28 139 L22 149 L21 151 L19 147 L18 144 L17 137 L17 145 L18 151 L18 152 L17 146 L16 140 L15 140 L14 138 L11 133 L8 135 L8 136 L7 133 L2 123 L1 123 L0 129 M39 141 L41 141 L49 146 L50 147 L52 147 L54 142 L54 141 L57 134 L59 123 L59 122 L60 122 L61 122 L64 113 L66 107 L69 113 L73 117 L75 123 L76 127 L77 133 L77 134 L78 135 L79 137 L81 132 L81 124 L80 126 L80 137 L81 139 L85 133 L84 114 L84 113 L83 119 L83 126 L83 127 L85 125 L87 121 L89 121 L92 122 L98 128 L103 132 L106 128 L106 126 L107 123 L111 103 L110 74 L110 72 L112 86 L115 98 L116 106 L128 74 L135 35 L135 28 L133 52 L133 68 L132 95 L132 94 L133 76 L134 52 L134 47 L133 54 L130 85 L130 107 L130 108 L132 106 L133 106 L135 109 L141 121 L145 125 L146 123 L149 114 L150 104 L154 110 L158 121 L158 123 L158 108 L157 104 L159 114 L161 117 L168 105 L169 100 L170 100 L171 102 L172 100 L172 89 L169 77 L167 56 L166 46 L150 24 L127 10 L105 0 L98 16 L94 46 L97 54 L97 57 L94 67 L91 77 L99 85 L146 101 L152 103 L144 105 L105 108 L85 108 L86 109 L107 110 L111 113 L110 121 L109 125 L109 128 L111 132 L119 134 L114 139 L110 144 L112 150 " fill="none" stroke="black" /></svg>