<?xml version="1.0" encoding="utf-8" ?>
<svg baseProfile="tiny" height="61" version="1.2" viewBox="-3 -3 265 61" width="265" xmlns="http://www.w3.org/2000/svg" xmlns:ev="http://www.w3.org/2001/xml-events" xmlns:xlink="http://www.w3.org/1999/xlink"><defs /><path d="M1 61 L1 59 L0 59 L0 57 L0 56 " fill="none" stroke="black" /><path d="M1 61 L1 59 L0 59 L0 57 L0 56 M2 58 L3 58 L4 58 L8 59 L9 59 L13 59 L14 59 L16 59 L17 59 L18 59 L20 59 L22 59 L23 59 L26 59 L31 59 L33 58 L35 58 L36 58 L37 55 L39 50 L39 48 L40 45 L42 39 L42 35 L43 34 L44 33 L45 34 L45 37 L46 41 L47 45 L48 46 L48 48 L50 51 L50 53 L51 54 L55 58 L56 58 L58 55 L58 54 L60 54 L60 55 L66 52 L67 53 L68 54 L69 54 L70 54 L73 54 L75 54 L76 54 L77 55 L80 55 L82 55 L83 55 L84 55 L85 55 L88 55 L89 55 L91 55 L93 55 L94 55 L94 54 L95 53 L96 52 L97 52 L97 51 L98 51 L99 51 L101 53 L104 53 L106 53 L108 53 L110 53 L112 53 L114 53 L120 51 L121 48 L122 49 L123 52 L126 56 L128 55 L129 53 L131 53 L132 51 L133 48 L135 48 L140 49 L141 49 L143 48 L146 47 L146 48 L149 50 L150 50 L150 49 L151 46 L151 34 L151 12 L152 2 L153 0 L154 3 L159 13 L169 33 L175 47 L176 49 L178 50 L181 50 L181 47 L182 46 L188 46 L189 46 L192 46 L193 46 L198 44 L200 44 L202 45 L205 46 L206 46 L207 46 L209 48 L210 48 L211 48 L214 48 L215 48 L216 48 L217 48 L218 48 L219 48 L221 48 L224 48 L231 48 L233 46 L234 46 L236 44 L237 43 L237 40 L239 43 L243 46 L244 48 L245 48 L246 48 L249 47 L254 45 L255 44 L259 45 L263 48 L265 49 " fill="none" stroke="black" /></svg>