<?xml version="1.0" encoding="utf-8" ?>
<svg baseProfile="tiny" height="176" version="1.2" viewBox="-3 -3 300 176" width="300" xmlns="http://www.w3.org/2000/svg" xmlns:ev="http://www.w3.org/2001/xml-events" xmlns:xlink="http://www.w3.org/1999/xlink"><defs /><path d="M62 0 L57 11 L49 32 L45 52 L45 67 L53 90 L60 97 L77 105 L96 112 L105 113 L110 111 L117 105 L123 96 L125 86 L127 75 L127 62 L114 43 L80 17 L63 11 L62 12 L59 33 L57 58 L62 71 L74 76 L91 77 L95 76 L95 70 L92 63 L85 58 L76 54 L71 61 L69 78 L69 80 L75 79 L82 74 L85 68 L87 65 L84 74 L84 80 L87 82 L91 77 L92 70 L92 68 L89 72 L88 72 " fill="none" stroke="black" /><path d="M62 0 L57 11 L49 32 L45 52 L45 67 L53 90 L60 97 L77 105 L96 112 L105 113 L110 111 L117 105 L123 96 L125 86 L127 75 L127 62 L114 43 L80 17 L63 11 L62 12 L59 33 L57 58 L62 71 L74 76 L91 77 L95 76 L95 70 L92 63 L85 58 L76 54 L71 61 L69 78 L69 80 L75 79 L82 74 L85 68 L87 65 L84 74 L84 80 L87 82 L91 77 L92 70 L92 68 L89 72 L88 72 M218 45 L197 45 L189 52 L165 78 L153 111 L153 122 L156 134 L173 147 L197 151 L202 149 L203 138 L202 119 L187 98 L174 88 L171 88 L165 95 L163 107 L163 114 L167 116 L173 117 L177 112 L177 106 L177 105 L177 107 L175 114 L175 117 L177 116 L179 112 " fill="none" stroke="black" /><path d="M62 0 L57 11 L49 32 L45 52 L45 67 L53 90 L60 97 L77 105 L96 112 L105 113 L110 111 L117 105 L123 96 L125 86 L127 75 L127 62 L114 43 L80 17 L63 11 L62 12 L59 33 L57 58 L62 71 L74 76 L91 77 L95 76 L95 70 L92 63 L85 58 L76 54 L71 61 L69 78 L69 80 L75 79 L82 74 L85 68 L87 65 L84 74 L84 80 L87 82 L91 77 L92 70 L92 68 L89 72 L88 72 M218 45 L197 45 L189 52 L165 78 L153 111 L153 122 L156 134 L173 147 L197 151 L202 149 L203 138 L202 119 L187 98 L174 88 L171 88 L165 95 L163 107 L163 114 L167 116 L173 117 L177 112 L177 106 L177 105 L177 107 L175 114 L175 117 L177 116 L179 112 M61 163 L66 159 L78 147 L86 138 L87 137 L97 144 L115 164 L127 169 L133 161 L134 150 L134 148 L137 153 L146 169 L152 176 L157 169 L163 157 L163 156 L167 160 L171 164 L172 163 L173 163 L176 164 L183 165 L191 162 L193 159 " fill="none" stroke="black" /><path d="M62 0 L57 11 L49 32 L45 52 L45 67 L53 90 L60 97 L77 105 L96 112 L105 113 L110 111 L117 105 L123 96 L125 86 L127 75 L127 62 L114 43 L80 17 L63 11 L62 12 L59 33 L57 58 L62 71 L74 76 L91 77 L95 76 L95 70 L92 63 L85 58 L76 54 L71 61 L69 78 L69 80 L75 79 L82 74 L85 68 L87 65 L84 74 L84 80 L87 82 L91 77 L92 70 L92 68 L89 72 L88 72 M218 45 L197 45 L189 52 L165 78 L153 111 L153 122 L156 134 L173 147 L197 151 L202 149 L203 138 L202 119 L187 98 L174 88 L171 88 L165 95 L163 107 L163 114 L167 116 L173 117 L177 112 L177 106 L177 105 L177 107 L175 114 L175 117 L177 116 L179 112 M61 163 L66 159 L78 147 L86 138 L87 137 L97 144 L115 164 L127 169 L133 161 L134 150 L134 148 L137 153 L146 169 L152 176 L157 169 L163 157 L163 156 L167 160 L171 164 L172 163 L173 163 L176 164 L183 165 L191 162 L193 159 M219 85 L221 84 L225 77 L234 66 L241 56 L241 76 L242 97 L243 97 L244 97 L252 93 L258 89 L260 90 L267 97 L267 98 L267 111 L268 119 L269 119 L270 117 L272 121 L277 133 L279 135 L281 134 L285 130 L286 126 L286 129 L285 140 L285 142 L285 143 L287 143 L289 143 L289 144 L289 154 L289 157 L289 158 L289 164 L289 166 L289 167 L289 168 L293 172 L300 174 L300 175 " fill="none" stroke="black" /><path d="M62 0 L57 11 L49 32 L45 52 L45 67 L53 90 L60 97 L77 105 L96 112 L105 113 L110 111 L117 105 L123 96 L125 86 L127 75 L127 62 L114 43 L80 17 L63 11 L62 12 L59 33 L57 58 L62 71 L74 76 L91 77 L95 76 L95 70 L92 63 L85 58 L76 54 L71 61 L69 78 L69 80 L75 79 L82 74 L85 68 L87 65 L84 74 L84 80 L87 82 L91 77 L92 70 L92 68 L89 72 L88 72 M218 45 L197 45 L189 52 L165 78 L153 111 L153 122 L156 134 L173 147 L197 151 L202 149 L203 138 L202 119 L187 98 L174 88 L171 88 L165 95 L163 107 L163 114 L167 116 L173 117 L177 112 L177 106 L177 105 L177 107 L175 114 L175 117 L177 116 L179 112 M61 163 L66 159 L78 147 L86 138 L87 137 L97 144 L115 164 L127 169 L133 161 L134 150 L134 148 L137 153 L146 169 L152 176 L157 169 L163 157 L163 156 L167 160 L171 164 L172 163 L173 163 L176 164 L183 165 L191 162 L193 159 M219 85 L221 84 L225 77 L234 66 L241 56 L241 76 L242 97 L243 97 L244 97 L252 93 L258 89 L260 90 L267 97 L267 98 L267 111 L268 119 L269 119 L270 117 L272 121 L277 133 L279 135 L281 134 L285 130 L286 126 L286 129 L285 140 L285 142 L285 143 L287 143 L289 143 L289 144 L289 154 L289 157 L289 158 L289 164 L289 166 L289 167 L289 168 L293 172 L300 174 L300 175 M41 116 L37 122 L31 134 L31 141 L30 144 L30 146 L20 145 L9 139 L5 138 L4 136 L2 131 L1 134 L0 135 " fill="none" stroke="black" /></svg>