<?xml version="1.0" encoding="utf-8" ?>
<svg baseProfile="tiny" height="249" version="1.2" viewBox="-3 -3 250 249" width="250" xmlns="http://www.w3.org/2000/svg" xmlns:ev="http://www.w3.org/2001/xml-events" xmlns:xlink="http://www.w3.org/1999/xlink"><defs /><path d="M23 60 L13 72 L7 91 L1 126 L0 150 L3 175 L10 196 L24 205 L45 219 L68 233 L96 243 L115 247 L140 249 L168 248 L190 233 L212 221 L232 206 L240 190 L245 173 L249 158 L250 139 L250 119 L246 105 L242 90 L232 69 L216 45 L205 31 L184 12 L176 7 L164 4 L154 1 L140 0 L124 4 L111 11 L99 17 L85 27 L75 37 L68 45 L62 52 L54 67 L52 82 L48 106 L46 128 L49 140 L59 160 L74 184 L84 201 L91 206 L111 209 L151 217 L165 219 L181 212 L202 195 L213 174 L216 146 L218 129 L218 115 L212 98 L203 83 L192 69 L184 63 L176 58 L167 55 L157 52 L154 51 L145 52 L116 60 L108 63 L103 65 L95 72 L89 79 L85 87 L82 96 L79 107 L79 118 L81 137 L86 152 L94 164 L106 177 L126 187 L147 192 L169 194 L174 191 L183 183 L191 170 L194 152 L195 142 L194 133 L191 124 L186 118 L178 110 L167 100 L159 94 L153 91 L138 85 L128 82 L126 82 L118 86 L101 98 L92 107 L88 114 L86 121 L84 128 L84 133 L84 139 L88 142 L92 147 L102 154 L108 157 L115 159 L123 161 L129 161 L133 161 L148 157 L149 156 L152 152 L155 147 L157 139 L157 134 L157 130 L157 126 L157 123 L153 116 L148 111 L146 109 L140 105 L134 102 L129 99 L120 103 L112 108 L108 113 L107 116 L105 119 L104 123 L103 127 L103 130 L104 133 L106 137 L111 141 L112 141 L117 143 L121 143 L123 143 L125 143 L127 138 L128 135 L128 131 L128 130 L128 128 L128 127 " fill="none" stroke="black" /></svg>