<?xml version="1.0" encoding="utf-8" ?>
<svg baseProfile="tiny" height="280" version="1.2" viewBox="-3 -3 293 280" width="293" xmlns="http://www.w3.org/2000/svg" xmlns:ev="http://www.w3.org/2001/xml-events" xmlns:xlink="http://www.w3.org/1999/xlink"><defs /><path d="M55 91 L53 106 L52 117 L54 124 L62 130 " fill="none" stroke="black" /><path d="M55 91 L53 106 L52 117 L54 124 L62 130 M85 126 L77 141 L70 155 " fill="none" stroke="black" /><path d="M55 91 L53 106 L52 117 L54 124 L62 130 M85 126 L77 141 L70 155 M42 184 L42 190 L42 202 L46 213 L64 215 L72 205 L72 201 L70 204 L72 205 L120 192 L138 172 L136 173 L123 195 L121 212 L120 220 " fill="none" stroke="black" /><path d="M55 91 L53 106 L52 117 L54 124 L62 130 M85 126 L77 141 L70 155 M42 184 L42 190 L42 202 L46 213 L64 215 L72 205 L72 201 L70 204 L72 205 L120 192 L138 172 L136 173 L123 195 L121 212 L120 220 M160 93 L159 103 L153 116 L152 126 L153 128 L174 124 L177 121 L176 122 L170 131 L167 139 L167 140 L172 140 L172 141 L172 143 L178 150 L184 154 " fill="none" stroke="black" /><path d="M55 91 L53 106 L52 117 L54 124 L62 130 M85 126 L77 141 L70 155 M42 184 L42 190 L42 202 L46 213 L64 215 L72 205 L72 201 L70 204 L72 205 L120 192 L138 172 L136 173 L123 195 L121 212 L120 220 M160 93 L159 103 L153 116 L152 126 L153 128 L174 124 L177 121 L176 122 L170 131 L167 139 L167 140 L172 140 L172 141 L172 143 L178 150 L184 154 M185 182 L187 182 L191 182 L191 188 L188 208 L178 227 L178 228 L179 228 L189 228 L192 228 L193 230 L197 239 L198 240 " fill="none" stroke="black" /><path d="M55 91 L53 106 L52 117 L54 124 L62 130 M85 126 L77 141 L70 155 M42 184 L42 190 L42 202 L46 213 L64 215 L72 205 L72 201 L70 204 L72 205 L120 192 L138 172 L136 173 L123 195 L121 212 L120 220 M160 93 L159 103 L153 116 L152 126 L153 128 L174 124 L177 121 L176 122 L170 131 L167 139 L167 140 L172 140 L172 141 L172 143 L178 150 L184 154 M185 182 L187 182 L191 182 L191 188 L188 208 L178 227 L178 228 L179 228 L189 228 L192 228 L193 230 L197 239 L198 240 M283 99 L271 115 L262 126 L258 135 L257 140 L278 144 L285 144 L285 145 L282 155 L279 162 L278 164 " fill="none" stroke="black" /><path d="M55 91 L53 106 L52 117 L54 124 L62 130 M85 126 L77 141 L70 155 M42 184 L42 190 L42 202 L46 213 L64 215 L72 205 L72 201 L70 204 L72 205 L120 192 L138 172 L136 173 L123 195 L121 212 L120 220 M160 93 L159 103 L153 116 L152 126 L153 128 L174 124 L177 121 L176 122 L170 131 L167 139 L167 140 L172 140 L172 141 L172 143 L178 150 L184 154 M185 182 L187 182 L191 182 L191 188 L188 208 L178 227 L178 228 L179 228 L189 228 L192 228 L193 230 L197 239 L198 240 M283 99 L271 115 L262 126 L258 135 L257 140 L278 144 L285 144 L285 145 L282 155 L279 162 L278 164 M257 194 L257 199 L254 212 L253 216 L255 219 L282 221 L293 221 L285 231 L284 235 " fill="none" stroke="black" /><path d="M55 91 L53 106 L52 117 L54 124 L62 130 M85 126 L77 141 L70 155 M42 184 L42 190 L42 202 L46 213 L64 215 L72 205 L72 201 L70 204 L72 205 L120 192 L138 172 L136 173 L123 195 L121 212 L120 220 M160 93 L159 103 L153 116 L152 126 L153 128 L174 124 L177 121 L176 122 L170 131 L167 139 L167 140 L172 140 L172 141 L172 143 L178 150 L184 154 M185 182 L187 182 L191 182 L191 188 L188 208 L178 227 L178 228 L179 228 L189 228 L192 228 L193 230 L197 239 L198 240 M283 99 L271 115 L262 126 L258 135 L257 140 L278 144 L285 144 L285 145 L282 155 L279 162 L278 164 M257 194 L257 199 L254 212 L253 216 L255 219 L282 221 L293 221 L285 231 L284 235 M186 51 L189 54 L195 63 L197 72 L197 80 L203 87 L213 94 L214 99 L214 100 L215 110 L224 117 L225 118 " fill="none" stroke="black" /><path d="M55 91 L53 106 L52 117 L54 124 L62 130 M85 126 L77 141 L70 155 M42 184 L42 190 L42 202 L46 213 L64 215 L72 205 L72 201 L70 204 L72 205 L120 192 L138 172 L136 173 L123 195 L121 212 L120 220 M160 93 L159 103 L153 116 L152 126 L153 128 L174 124 L177 121 L176 122 L170 131 L167 139 L167 140 L172 140 L172 141 L172 143 L178 150 L184 154 M185 182 L187 182 L191 182 L191 188 L188 208 L178 227 L178 228 L179 228 L189 228 L192 228 L193 230 L197 239 L198 240 M283 99 L271 115 L262 126 L258 135 L257 140 L278 144 L285 144 L285 145 L282 155 L279 162 L278 164 M257 194 L257 199 L254 212 L253 216 L255 219 L282 221 L293 221 L285 231 L284 235 M186 51 L189 54 L195 63 L197 72 L197 80 L203 87 L213 94 L214 99 L214 100 L215 110 L224 117 L225 118 M121 57 L117 61 L110 77 L108 82 L109 87 L113 87 L115 87 L118 92 L122 97 L124 100 L126 102 " fill="none" stroke="black" /><path d="M55 91 L53 106 L52 117 L54 124 L62 130 M85 126 L77 141 L70 155 M42 184 L42 190 L42 202 L46 213 L64 215 L72 205 L72 201 L70 204 L72 205 L120 192 L138 172 L136 173 L123 195 L121 212 L120 220 M160 93 L159 103 L153 116 L152 126 L153 128 L174 124 L177 121 L176 122 L170 131 L167 139 L167 140 L172 140 L172 141 L172 143 L178 150 L184 154 M185 182 L187 182 L191 182 L191 188 L188 208 L178 227 L178 228 L179 228 L189 228 L192 228 L193 230 L197 239 L198 240 M283 99 L271 115 L262 126 L258 135 L257 140 L278 144 L285 144 L285 145 L282 155 L279 162 L278 164 M257 194 L257 199 L254 212 L253 216 L255 219 L282 221 L293 221 L285 231 L284 235 M186 51 L189 54 L195 63 L197 72 L197 80 L203 87 L213 94 L214 99 L214 100 L215 110 L224 117 L225 118 M121 57 L117 61 L110 77 L108 82 L109 87 L113 87 L115 87 L118 92 L122 97 L124 100 L126 102 M61 242 L63 242 L66 251 L69 260 L80 264 L92 254 L94 250 L97 249 L101 255 L105 264 L107 266 L108 263 " fill="none" stroke="black" /><path d="M55 91 L53 106 L52 117 L54 124 L62 130 M85 126 L77 141 L70 155 M42 184 L42 190 L42 202 L46 213 L64 215 L72 205 L72 201 L70 204 L72 205 L120 192 L138 172 L136 173 L123 195 L121 212 L120 220 M160 93 L159 103 L153 116 L152 126 L153 128 L174 124 L177 121 L176 122 L170 131 L167 139 L167 140 L172 140 L172 141 L172 143 L178 150 L184 154 M185 182 L187 182 L191 182 L191 188 L188 208 L178 227 L178 228 L179 228 L189 228 L192 228 L193 230 L197 239 L198 240 M283 99 L271 115 L262 126 L258 135 L257 140 L278 144 L285 144 L285 145 L282 155 L279 162 L278 164 M257 194 L257 199 L254 212 L253 216 L255 219 L282 221 L293 221 L285 231 L284 235 M186 51 L189 54 L195 63 L197 72 L197 80 L203 87 L213 94 L214 99 L214 100 L215 110 L224 117 L225 118 M121 57 L117 61 L110 77 L108 82 L109 87 L113 87 L115 87 L118 92 L122 97 L124 100 L126 102 M61 242 L63 242 L66 251 L69 260 L80 264 L92 254 L94 250 L97 249 L101 255 L105 264 L107 266 L108 263 M155 255 L165 273 L170 280 L174 270 L176 260 L179 264 " fill="none" stroke="black" /><path d="M55 91 L53 106 L52 117 L54 124 L62 130 M85 126 L77 141 L70 155 M42 184 L42 190 L42 202 L46 213 L64 215 L72 205 L72 201 L70 204 L72 205 L120 192 L138 172 L136 173 L123 195 L121 212 L120 220 M160 93 L159 103 L153 116 L152 126 L153 128 L174 124 L177 121 L176 122 L170 131 L167 139 L167 140 L172 140 L172 141 L172 143 L178 150 L184 154 M185 182 L187 182 L191 182 L191 188 L188 208 L178 227 L178 228 L179 228 L189 228 L192 228 L193 230 L197 239 L198 240 M283 99 L271 115 L262 126 L258 135 L257 140 L278 144 L285 144 L285 145 L282 155 L279 162 L278 164 M257 194 L257 199 L254 212 L253 216 L255 219 L282 221 L293 221 L285 231 L284 235 M186 51 L189 54 L195 63 L197 72 L197 80 L203 87 L213 94 L214 99 L214 100 L215 110 L224 117 L225 118 M121 57 L117 61 L110 77 L108 82 L109 87 L113 87 L115 87 L118 92 L122 97 L124 100 L126 102 M61 242 L63 242 L66 251 L69 260 L80 264 L92 254 L94 250 L97 249 L101 255 L105 264 L107 266 L108 263 M155 255 L165 273 L170 280 L174 270 L176 260 L179 264 M0 195 L1 211 L3 216 L8 216 L18 207 L19 203 L20 205 L28 217 L29 219 " fill="none" stroke="black" /><path d="M55 91 L53 106 L52 117 L54 124 L62 130 M85 126 L77 141 L70 155 M42 184 L42 190 L42 202 L46 213 L64 215 L72 205 L72 201 L70 204 L72 205 L120 192 L138 172 L136 173 L123 195 L121 212 L120 220 M160 93 L159 103 L153 116 L152 126 L153 128 L174 124 L177 121 L176 122 L170 131 L167 139 L167 140 L172 140 L172 141 L172 143 L178 150 L184 154 M185 182 L187 182 L191 182 L191 188 L188 208 L178 227 L178 228 L179 228 L189 228 L192 228 L193 230 L197 239 L198 240 M283 99 L271 115 L262 126 L258 135 L257 140 L278 144 L285 144 L285 145 L282 155 L279 162 L278 164 M257 194 L257 199 L254 212 L253 216 L255 219 L282 221 L293 221 L285 231 L284 235 M186 51 L189 54 L195 63 L197 72 L197 80 L203 87 L213 94 L214 99 L214 100 L215 110 L224 117 L225 118 M121 57 L117 61 L110 77 L108 82 L109 87 L113 87 L115 87 L118 92 L122 97 L124 100 L126 102 M61 242 L63 242 L66 251 L69 260 L80 264 L92 254 L94 250 L97 249 L101 255 L105 264 L107 266 L108 263 M155 255 L165 273 L170 280 L174 270 L176 260 L179 264 M0 195 L1 211 L3 216 L8 216 L18 207 L19 203 L20 205 L28 217 L29 219 M13 68 L9 81 L9 92 L9 94 L11 95 " fill="none" stroke="black" /><path d="M55 91 L53 106 L52 117 L54 124 L62 130 M85 126 L77 141 L70 155 M42 184 L42 190 L42 202 L46 213 L64 215 L72 205 L72 201 L70 204 L72 205 L120 192 L138 172 L136 173 L123 195 L121 212 L120 220 M160 93 L159 103 L153 116 L152 126 L153 128 L174 124 L177 121 L176 122 L170 131 L167 139 L167 140 L172 140 L172 141 L172 143 L178 150 L184 154 M185 182 L187 182 L191 182 L191 188 L188 208 L178 227 L178 228 L179 228 L189 228 L192 228 L193 230 L197 239 L198 240 M283 99 L271 115 L262 126 L258 135 L257 140 L278 144 L285 144 L285 145 L282 155 L279 162 L278 164 M257 194 L257 199 L254 212 L253 216 L255 219 L282 221 L293 221 L285 231 L284 235 M186 51 L189 54 L195 63 L197 72 L197 80 L203 87 L213 94 L214 99 L214 100 L215 110 L224 117 L225 118 M121 57 L117 61 L110 77 L108 82 L109 87 L113 87 L115 87 L118 92 L122 97 L124 100 L126 102 M61 242 L63 242 L66 251 L69 260 L80 264 L92 254 L94 250 L97 249 L101 255 L105 264 L107 266 L108 263 M155 255 L165 273 L170 280 L174 270 L176 260 L179 264 M0 195 L1 211 L3 216 L8 216 L18 207 L19 203 L20 205 L28 217 L29 219 M13 68 L9 81 L9 92 L9 94 L11 95 M203 0 L198 9 L197 17 L214 25 L216 25 L217 34 L222 43 L236 48 L237 49 L237 50 L235 54 L235 56 L235 57 " fill="none" stroke="black" /><path d="M55 91 L53 106 L52 117 L54 124 L62 130 M85 126 L77 141 L70 155 M42 184 L42 190 L42 202 L46 213 L64 215 L72 205 L72 201 L70 204 L72 205 L120 192 L138 172 L136 173 L123 195 L121 212 L120 220 M160 93 L159 103 L153 116 L152 126 L153 128 L174 124 L177 121 L176 122 L170 131 L167 139 L167 140 L172 140 L172 141 L172 143 L178 150 L184 154 M185 182 L187 182 L191 182 L191 188 L188 208 L178 227 L178 228 L179 228 L189 228 L192 228 L193 230 L197 239 L198 240 M283 99 L271 115 L262 126 L258 135 L257 140 L278 144 L285 144 L285 145 L282 155 L279 162 L278 164 M257 194 L257 199 L254 212 L253 216 L255 219 L282 221 L293 221 L285 231 L284 235 M186 51 L189 54 L195 63 L197 72 L197 80 L203 87 L213 94 L214 99 L214 100 L215 110 L224 117 L225 118 M121 57 L117 61 L110 77 L108 82 L109 87 L113 87 L115 87 L118 92 L122 97 L124 100 L126 102 M61 242 L63 242 L66 251 L69 260 L80 264 L92 254 L94 250 L97 249 L101 255 L105 264 L107 266 L108 263 M155 255 L165 273 L170 280 L174 270 L176 260 L179 264 M0 195 L1 211 L3 216 L8 216 L18 207 L19 203 L20 205 L28 217 L29 219 M13 68 L9 81 L9 92 L9 94 L11 95 M203 0 L198 9 L197 17 L214 25 L216 25 L217 34 L222 43 L236 48 L237 49 L237 50 L235 54 L235 56 L235 57 M149 18 L148 20 L146 25 L143 31 L143 33 L147 35 L148 37 L148 39 L149 48 L150 49 " fill="none" stroke="black" /></svg>