<?xml version="1.0" encoding="utf-8" ?>
<svg baseProfile="tiny" height="93" version="1.2" viewBox="-3 -3 238 93" width="238" xmlns="http://www.w3.org/2000/svg" xmlns:ev="http://www.w3.org/2001/xml-events" xmlns:xlink="http://www.w3.org/1999/xlink"><defs /><circle cx="47" cy="90" fill="black" r="1" /><circle cx="41" cy="88" fill="black" r="1" /><path d="M52 90 L54 90 " fill="none" stroke="black" /><circle cx="61" cy="90" fill="black" r="1" /><circle cx="65" cy="88" fill="black" r="1" /><path d="M52 90 L54 90 M70 89 L70 90 " fill="none" stroke="black" /><circle cx="79" cy="90" fill="black" r="1" /><circle cx="85" cy="90" fill="black" r="1" /><circle cx="92" cy="89" fill="black" r="1" /><circle cx="103" cy="90" fill="black" r="1" /><path d="M52 90 L54 90 M70 89 L70 90 M108 91 L108 92 " fill="none" stroke="black" /><circle cx="114" cy="90" fill="black" r="1" /><circle cx="119" cy="90" fill="black" r="1" /><path d="M52 90 L54 90 M70 89 L70 90 M108 91 L108 92 M125 89 L128 89 " fill="none" stroke="black" /><path d="M52 90 L54 90 M70 89 L70 90 M108 91 L108 92 M125 89 L128 89 M129 89 L130 89 " fill="none" stroke="black" /><path d="M52 90 L54 90 M70 89 L70 90 M108 91 L108 92 M125 89 L128 89 M129 89 L130 89 M144 88 L144 89 " fill="none" stroke="black" /><circle cx="138" cy="90" fill="black" r="1" /><path d="M52 90 L54 90 M70 89 L70 90 M108 91 L108 92 M125 89 L128 89 M129 89 L130 89 M144 88 L144 89 M150 87 L151 87 " fill="none" stroke="black" /><path d="M52 90 L54 90 M70 89 L70 90 M108 91 L108 92 M125 89 L128 89 M129 89 L130 89 M144 88 L144 89 M150 87 L151 87 M159 88 L163 88 " fill="none" stroke="black" /><path d="M52 90 L54 90 M70 89 L70 90 M108 91 L108 92 M125 89 L128 89 M129 89 L130 89 M144 88 L144 89 M150 87 L151 87 M159 88 L163 88 M165 88 L166 88 " fill="none" stroke="black" /><circle cx="173" cy="88" fill="black" r="1" /><circle cx="177" cy="87" fill="black" r="1" /><circle cx="183" cy="84" fill="black" r="1" /><path d="M52 90 L54 90 M70 89 L70 90 M108 91 L108 92 M125 89 L128 89 M129 89 L130 89 M144 88 L144 89 M150 87 L151 87 M159 88 L163 88 M165 88 L166 88 M190 86 L190 88 " fill="none" stroke="black" /><path d="M52 90 L54 90 M70 89 L70 90 M108 91 L108 92 M125 89 L128 89 M129 89 L130 89 M144 88 L144 89 M150 87 L151 87 M159 88 L163 88 M165 88 L166 88 M190 86 L190 88 M193 88 L197 90 " fill="none" stroke="black" /><circle cx="201" cy="90" fill="black" r="1" /><path d="M52 90 L54 90 M70 89 L70 90 M108 91 L108 92 M125 89 L128 89 M129 89 L130 89 M144 88 L144 89 M150 87 L151 87 M159 88 L163 88 M165 88 L166 88 M190 86 L190 88 M193 88 L197 90 M211 92 L213 93 " fill="none" stroke="black" /><circle cx="218" cy="91" fill="black" r="1" /><path d="M52 90 L54 90 M70 89 L70 90 M108 91 L108 92 M125 89 L128 89 M129 89 L130 89 M144 88 L144 89 M150 87 L151 87 M159 88 L163 88 M165 88 L166 88 M190 86 L190 88 M193 88 L197 90 M211 92 L213 93 M229 89 L230 89 " fill="none" stroke="black" /><circle cx="238" cy="90" fill="black" r="1" /><circle cx="235" cy="80" fill="black" r="1" /><circle cx="230" cy="74" fill="black" r="1" /><circle cx="224" cy="62" fill="black" r="1" /><path d="M52 90 L54 90 M70 89 L70 90 M108 91 L108 92 M125 89 L128 89 M129 89 L130 89 M144 88 L144 89 M150 87 L151 87 M159 88 L163 88 M165 88 L166 88 M190 86 L190 88 M193 88 L197 90 M211 92 L213 93 M229 89 L230 89 M225 64 L225 65 " fill="none" stroke="black" /><circle cx="216" cy="57" fill="black" r="1" /><path d="M52 90 L54 90 M70 89 L70 90 M108 91 L108 92 M125 89 L128 89 M129 89 L130 89 M144 88 L144 89 M150 87 L151 87 M159 88 L163 88 M165 88 L166 88 M190 86 L190 88 M193 88 L197 90 M211 92 L213 93 M229 89 L230 89 M225 64 L225 65 M214 53 L212 51 " fill="none" stroke="black" /><circle cx="202" cy="40" fill="black" r="1" /><circle cx="200" cy="38" fill="black" r="1" /><circle cx="188" cy="24" fill="black" r="1" /><circle cx="186" cy="19" fill="black" r="1" /><circle cx="196" cy="30" fill="black" r="1" /><circle cx="192" cy="30" fill="black" r="1" /><circle cx="176" cy="12" fill="black" r="1" /><circle cx="180" cy="9" fill="black" r="1" /><circle cx="184" cy="15" fill="black" r="1" /><circle cx="177" cy="6" fill="black" r="1" /><circle cx="171" cy="3" fill="black" r="1" /><path d="M52 90 L54 90 M70 89 L70 90 M108 91 L108 92 M125 89 L128 89 M129 89 L130 89 M144 88 L144 89 M150 87 L151 87 M159 88 L163 88 M165 88 L166 88 M190 86 L190 88 M193 88 L197 90 M211 92 L213 93 M229 89 L230 89 M225 64 L225 65 M214 53 L212 51 M164 6 L164 7 " fill="none" stroke="black" /><circle cx="163" cy="14" fill="black" r="1" /><path d="M52 90 L54 90 M70 89 L70 90 M108 91 L108 92 M125 89 L128 89 M129 89 L130 89 M144 88 L144 89 M150 87 L151 87 M159 88 L163 88 M165 88 L166 88 M190 86 L190 88 M193 88 L197 90 M211 92 L213 93 M229 89 L230 89 M225 64 L225 65 M214 53 L212 51 M164 6 L164 7 M163 20 L163 24 " fill="none" stroke="black" /><circle cx="164" cy="37" fill="black" r="1" /><circle cx="164" cy="40" fill="black" r="1" /><circle cx="164" cy="46" fill="black" r="1" /><circle cx="165" cy="49" fill="black" r="1" /><circle cx="164" cy="54" fill="black" r="1" /><circle cx="150" cy="52" fill="black" r="1" /><circle cx="145" cy="53" fill="black" r="1" /><circle cx="137" cy="54" fill="black" r="1" /><circle cx="133" cy="52" fill="black" r="1" /><path d="M52 90 L54 90 M70 89 L70 90 M108 91 L108 92 M125 89 L128 89 M129 89 L130 89 M144 88 L144 89 M150 87 L151 87 M159 88 L163 88 M165 88 L166 88 M190 86 L190 88 M193 88 L197 90 M211 92 L213 93 M229 89 L230 89 M225 64 L225 65 M214 53 L212 51 M164 6 L164 7 M163 20 L163 24 M124 50 L123 50 " fill="none" stroke="black" /><circle cx="122" cy="50" fill="black" r="1" /><path d="M52 90 L54 90 M70 89 L70 90 M108 91 L108 92 M125 89 L128 89 M129 89 L130 89 M144 88 L144 89 M150 87 L151 87 M159 88 L163 88 M165 88 L166 88 M190 86 L190 88 M193 88 L197 90 M211 92 L213 93 M229 89 L230 89 M225 64 L225 65 M214 53 L212 51 M164 6 L164 7 M163 20 L163 24 M124 50 L123 50 M120 47 L120 45 " fill="none" stroke="black" /><circle cx="119" cy="36" fill="black" r="1" /><path d="M52 90 L54 90 M70 89 L70 90 M108 91 L108 92 M125 89 L128 89 M129 89 L130 89 M144 88 L144 89 M150 87 L151 87 M159 88 L163 88 M165 88 L166 88 M190 86 L190 88 M193 88 L197 90 M211 92 L213 93 M229 89 L230 89 M225 64 L225 65 M214 53 L212 51 M164 6 L164 7 M163 20 L163 24 M124 50 L123 50 M120 47 L120 45 M119 31 L117 27 " fill="none" stroke="black" /><path d="M52 90 L54 90 M70 89 L70 90 M108 91 L108 92 M125 89 L128 89 M129 89 L130 89 M144 88 L144 89 M150 87 L151 87 M159 88 L163 88 M165 88 L166 88 M190 86 L190 88 M193 88 L197 90 M211 92 L213 93 M229 89 L230 89 M225 64 L225 65 M214 53 L212 51 M164 6 L164 7 M163 20 L163 24 M124 50 L123 50 M120 47 L120 45 M119 31 L117 27 M114 24 L114 23 " fill="none" stroke="black" /><circle cx="111" cy="14" fill="black" r="1" /><circle cx="111" cy="14" fill="black" r="1" /><circle cx="104" cy="2" fill="black" r="1" /><circle cx="110" cy="9" fill="black" r="1" /><circle cx="101" cy="0" fill="black" r="1" /><circle cx="91" cy="0" fill="black" r="1" /><path d="M52 90 L54 90 M70 89 L70 90 M108 91 L108 92 M125 89 L128 89 M129 89 L130 89 M144 88 L144 89 M150 87 L151 87 M159 88 L163 88 M165 88 L166 88 M190 86 L190 88 M193 88 L197 90 M211 92 L213 93 M229 89 L230 89 M225 64 L225 65 M214 53 L212 51 M164 6 L164 7 M163 20 L163 24 M124 50 L123 50 M120 47 L120 45 M119 31 L117 27 M114 24 L114 23 M89 6 L89 8 " fill="none" stroke="black" /><circle cx="91" cy="15" fill="black" r="1" /><path d="M52 90 L54 90 M70 89 L70 90 M108 91 L108 92 M125 89 L128 89 M129 89 L130 89 M144 88 L144 89 M150 87 L151 87 M159 88 L163 88 M165 88 L166 88 M190 86 L190 88 M193 88 L197 90 M211 92 L213 93 M229 89 L230 89 M225 64 L225 65 M214 53 L212 51 M164 6 L164 7 M163 20 L163 24 M124 50 L123 50 M120 47 L120 45 M119 31 L117 27 M114 24 L114 23 M89 6 L89 8 M91 16 L91 17 " fill="none" stroke="black" /><path d="M52 90 L54 90 M70 89 L70 90 M108 91 L108 92 M125 89 L128 89 M129 89 L130 89 M144 88 L144 89 M150 87 L151 87 M159 88 L163 88 M165 88 L166 88 M190 86 L190 88 M193 88 L197 90 M211 92 L213 93 M229 89 L230 89 M225 64 L225 65 M214 53 L212 51 M164 6 L164 7 M163 20 L163 24 M124 50 L123 50 M120 47 L120 45 M119 31 L117 27 M114 24 L114 23 M89 6 L89 8 M91 16 L91 17 M91 20 L91 21 L91 22 " fill="none" stroke="black" /><path d="M52 90 L54 90 M70 89 L70 90 M108 91 L108 92 M125 89 L128 89 M129 89 L130 89 M144 88 L144 89 M150 87 L151 87 M159 88 L163 88 M165 88 L166 88 M190 86 L190 88 M193 88 L197 90 M211 92 L213 93 M229 89 L230 89 M225 64 L225 65 M214 53 L212 51 M164 6 L164 7 M163 20 L163 24 M124 50 L123 50 M120 47 L120 45 M119 31 L117 27 M114 24 L114 23 M89 6 L89 8 M91 16 L91 17 M91 20 L91 21 L91 22 M91 26 L91 28 " fill="none" stroke="black" /><path d="M52 90 L54 90 M70 89 L70 90 M108 91 L108 92 M125 89 L128 89 M129 89 L130 89 M144 88 L144 89 M150 87 L151 87 M159 88 L163 88 M165 88 L166 88 M190 86 L190 88 M193 88 L197 90 M211 92 L213 93 M229 89 L230 89 M225 64 L225 65 M214 53 L212 51 M164 6 L164 7 M163 20 L163 24 M124 50 L123 50 M120 47 L120 45 M119 31 L117 27 M114 24 L114 23 M89 6 L89 8 M91 16 L91 17 M91 20 L91 21 L91 22 M91 26 L91 28 M91 31 L91 32 " fill="none" stroke="black" /><path d="M52 90 L54 90 M70 89 L70 90 M108 91 L108 92 M125 89 L128 89 M129 89 L130 89 M144 88 L144 89 M150 87 L151 87 M159 88 L163 88 M165 88 L166 88 M190 86 L190 88 M193 88 L197 90 M211 92 L213 93 M229 89 L230 89 M225 64 L225 65 M214 53 L212 51 M164 6 L164 7 M163 20 L163 24 M124 50 L123 50 M120 47 L120 45 M119 31 L117 27 M114 24 L114 23 M89 6 L89 8 M91 16 L91 17 M91 20 L91 21 L91 22 M91 26 L91 28 M91 31 L91 32 M91 33 L91 34 " fill="none" stroke="black" /><path d="M52 90 L54 90 M70 89 L70 90 M108 91 L108 92 M125 89 L128 89 M129 89 L130 89 M144 88 L144 89 M150 87 L151 87 M159 88 L163 88 M165 88 L166 88 M190 86 L190 88 M193 88 L197 90 M211 92 L213 93 M229 89 L230 89 M225 64 L225 65 M214 53 L212 51 M164 6 L164 7 M163 20 L163 24 M124 50 L123 50 M120 47 L120 45 M119 31 L117 27 M114 24 L114 23 M89 6 L89 8 M91 16 L91 17 M91 20 L91 21 L91 22 M91 26 L91 28 M91 31 L91 32 M91 33 L91 34 M81 39 L81 41 " fill="none" stroke="black" /><circle cx="87" cy="42" fill="black" r="1" /><circle cx="91" cy="41" fill="black" r="1" /><circle cx="72" cy="44" fill="black" r="1" /><circle cx="72" cy="42" fill="black" r="1" /><circle cx="68" cy="41" fill="black" r="1" /><circle cx="65" cy="36" fill="black" r="1" /><circle cx="58" cy="30" fill="black" r="1" /><circle cx="57" cy="29" fill="black" r="1" /><circle cx="49" cy="25" fill="black" r="1" /><circle cx="48" cy="24" fill="black" r="1" /><path d="M52 90 L54 90 M70 89 L70 90 M108 91 L108 92 M125 89 L128 89 M129 89 L130 89 M144 88 L144 89 M150 87 L151 87 M159 88 L163 88 M165 88 L166 88 M190 86 L190 88 M193 88 L197 90 M211 92 L213 93 M229 89 L230 89 M225 64 L225 65 M214 53 L212 51 M164 6 L164 7 M163 20 L163 24 M124 50 L123 50 M120 47 L120 45 M119 31 L117 27 M114 24 L114 23 M89 6 L89 8 M91 16 L91 17 M91 20 L91 21 L91 22 M91 26 L91 28 M91 31 L91 32 M91 33 L91 34 M81 39 L81 41 M48 24 L48 25 " fill="none" stroke="black" /><circle cx="46" cy="34" fill="black" r="1" /><circle cx="46" cy="34" fill="black" r="1" /><path d="M52 90 L54 90 M70 89 L70 90 M108 91 L108 92 M125 89 L128 89 M129 89 L130 89 M144 88 L144 89 M150 87 L151 87 M159 88 L163 88 M165 88 L166 88 M190 86 L190 88 M193 88 L197 90 M211 92 L213 93 M229 89 L230 89 M225 64 L225 65 M214 53 L212 51 M164 6 L164 7 M163 20 L163 24 M124 50 L123 50 M120 47 L120 45 M119 31 L117 27 M114 24 L114 23 M89 6 L89 8 M91 16 L91 17 M91 20 L91 21 L91 22 M91 26 L91 28 M91 31 L91 32 M91 33 L91 34 M81 39 L81 41 M48 24 L48 25 M47 36 L49 38 " fill="none" stroke="black" /><circle cx="50" cy="40" fill="black" r="1" /><path d="M52 90 L54 90 M70 89 L70 90 M108 91 L108 92 M125 89 L128 89 M129 89 L130 89 M144 88 L144 89 M150 87 L151 87 M159 88 L163 88 M165 88 L166 88 M190 86 L190 88 M193 88 L197 90 M211 92 L213 93 M229 89 L230 89 M225 64 L225 65 M214 53 L212 51 M164 6 L164 7 M163 20 L163 24 M124 50 L123 50 M120 47 L120 45 M119 31 L117 27 M114 24 L114 23 M89 6 L89 8 M91 16 L91 17 M91 20 L91 21 L91 22 M91 26 L91 28 M91 31 L91 32 M91 33 L91 34 M81 39 L81 41 M48 24 L48 25 M47 36 L49 38 M51 42 L51 43 L51 44 L51 45 L51 46 " fill="none" stroke="black" /><path d="M52 90 L54 90 M70 89 L70 90 M108 91 L108 92 M125 89 L128 89 M129 89 L130 89 M144 88 L144 89 M150 87 L151 87 M159 88 L163 88 M165 88 L166 88 M190 86 L190 88 M193 88 L197 90 M211 92 L213 93 M229 89 L230 89 M225 64 L225 65 M214 53 L212 51 M164 6 L164 7 M163 20 L163 24 M124 50 L123 50 M120 47 L120 45 M119 31 L117 27 M114 24 L114 23 M89 6 L89 8 M91 16 L91 17 M91 20 L91 21 L91 22 M91 26 L91 28 M91 31 L91 32 M91 33 L91 34 M81 39 L81 41 M48 24 L48 25 M47 36 L49 38 M51 42 L51 43 L51 44 L51 45 L51 46 M52 48 L53 48 L53 51 " fill="none" stroke="black" /><path d="M52 90 L54 90 M70 89 L70 90 M108 91 L108 92 M125 89 L128 89 M129 89 L130 89 M144 88 L144 89 M150 87 L151 87 M159 88 L163 88 M165 88 L166 88 M190 86 L190 88 M193 88 L197 90 M211 92 L213 93 M229 89 L230 89 M225 64 L225 65 M214 53 L212 51 M164 6 L164 7 M163 20 L163 24 M124 50 L123 50 M120 47 L120 45 M119 31 L117 27 M114 24 L114 23 M89 6 L89 8 M91 16 L91 17 M91 20 L91 21 L91 22 M91 26 L91 28 M91 31 L91 32 M91 33 L91 34 M81 39 L81 41 M48 24 L48 25 M47 36 L49 38 M51 42 L51 43 L51 44 L51 45 L51 46 M52 48 L53 48 L53 51 M53 51 L54 52 " fill="none" stroke="black" /><path d="M52 90 L54 90 M70 89 L70 90 M108 91 L108 92 M125 89 L128 89 M129 89 L130 89 M144 88 L144 89 M150 87 L151 87 M159 88 L163 88 M165 88 L166 88 M190 86 L190 88 M193 88 L197 90 M211 92 L213 93 M229 89 L230 89 M225 64 L225 65 M214 53 L212 51 M164 6 L164 7 M163 20 L163 24 M124 50 L123 50 M120 47 L120 45 M119 31 L117 27 M114 24 L114 23 M89 6 L89 8 M91 16 L91 17 M91 20 L91 21 L91 22 M91 26 L91 28 M91 31 L91 32 M91 33 L91 34 M81 39 L81 41 M48 24 L48 25 M47 36 L49 38 M51 42 L51 43 L51 44 L51 45 L51 46 M52 48 L53 48 L53 51 M53 51 L54 52 M43 57 L43 58 " fill="none" stroke="black" /><circle cx="42" cy="58" fill="black" r="1" /><circle cx="28" cy="58" fill="black" r="1" /><circle cx="35" cy="56" fill="black" r="1" /><circle cx="18" cy="58" fill="black" r="1" /><circle cx="5" cy="62" fill="black" r="1" /><circle cx="0" cy="67" fill="black" r="1" /><circle cx="5" cy="78" fill="black" r="1" /><path d="M52 90 L54 90 M70 89 L70 90 M108 91 L108 92 M125 89 L128 89 M129 89 L130 89 M144 88 L144 89 M150 87 L151 87 M159 88 L163 88 M165 88 L166 88 M190 86 L190 88 M193 88 L197 90 M211 92 L213 93 M229 89 L230 89 M225 64 L225 65 M214 53 L212 51 M164 6 L164 7 M163 20 L163 24 M124 50 L123 50 M120 47 L120 45 M119 31 L117 27 M114 24 L114 23 M89 6 L89 8 M91 16 L91 17 M91 20 L91 21 L91 22 M91 26 L91 28 M91 31 L91 32 M91 33 L91 34 M81 39 L81 41 M48 24 L48 25 M47 36 L49 38 M51 42 L51 43 L51 44 L51 45 L51 46 M52 48 L53 48 L53 51 M53 51 L54 52 M43 57 L43 58 M2 82 L2 84 " fill="none" stroke="black" /><path d="M52 90 L54 90 M70 89 L70 90 M108 91 L108 92 M125 89 L128 89 M129 89 L130 89 M144 88 L144 89 M150 87 L151 87 M159 88 L163 88 M165 88 L166 88 M190 86 L190 88 M193 88 L197 90 M211 92 L213 93 M229 89 L230 89 M225 64 L225 65 M214 53 L212 51 M164 6 L164 7 M163 20 L163 24 M124 50 L123 50 M120 47 L120 45 M119 31 L117 27 M114 24 L114 23 M89 6 L89 8 M91 16 L91 17 M91 20 L91 21 L91 22 M91 26 L91 28 M91 31 L91 32 M91 33 L91 34 M81 39 L81 41 M48 24 L48 25 M47 36 L49 38 M51 42 L51 43 L51 44 L51 45 L51 46 M52 48 L53 48 L53 51 M53 51 L54 52 M43 57 L43 58 M2 82 L2 84 M5 88 L7 88 " fill="none" stroke="black" /><circle cx="14" cy="92" fill="black" r="1" /><circle cx="26" cy="92" fill="black" r="1" /></svg>