<?xml version="1.0" encoding="utf-8" ?>
<svg baseProfile="tiny" height="218" version="1.2" viewBox="-3 -3 183 218" width="183" xmlns="http://www.w3.org/2000/svg" xmlns:ev="http://www.w3.org/2001/xml-events" xmlns:xlink="http://www.w3.org/1999/xlink"><defs /><path d="M72 179 L72 175 L70 171 L69 168 L68 167 L67 166 L65 164 L64 163 L61 160 L60 159 L57 159 L56 157 L53 155 L49 155 L47 154 L43 152 L40 152 L38 152 L35 152 L32 152 L29 152 L27 152 L25 153 L23 153 L22 153 L20 154 L18 155 L16 156 L13 158 L11 159 L9 161 L7 163 L5 166 L4 169 L3 171 L1 174 L1 177 L0 180 L0 184 L0 189 L0 194 L2 197 L4 202 L7 206 L8 208 L12 210 L15 211 L19 214 L24 215 L31 217 L37 218 L42 218 L45 218 L48 218 L55 216 L60 212 L64 211 L66 209 L68 207 L71 205 L73 203 L75 200 L76 199 L77 196 L78 195 L78 194 L78 192 L78 191 " fill="none" stroke="black" /><path d="M72 179 L72 175 L70 171 L69 168 L68 167 L67 166 L65 164 L64 163 L61 160 L60 159 L57 159 L56 157 L53 155 L49 155 L47 154 L43 152 L40 152 L38 152 L35 152 L32 152 L29 152 L27 152 L25 153 L23 153 L22 153 L20 154 L18 155 L16 156 L13 158 L11 159 L9 161 L7 163 L5 166 L4 169 L3 171 L1 174 L1 177 L0 180 L0 184 L0 189 L0 194 L2 197 L4 202 L7 206 L8 208 L12 210 L15 211 L19 214 L24 215 L31 217 L37 218 L42 218 L45 218 L48 218 L55 216 L60 212 L64 211 L66 209 L68 207 L71 205 L73 203 L75 200 L76 199 L77 196 L78 195 L78 194 L78 192 L78 191 M76 127 L79 117 L87 99 L90 95 L92 92 L95 90 L103 88 L108 88 L110 88 L113 90 L117 97 L121 107 L121 112 L121 115 L121 118 L121 119 L121 120 " fill="none" stroke="black" /><circle cx="146" cy="180" fill="black" r="1" /><path d="M72 179 L72 175 L70 171 L69 168 L68 167 L67 166 L65 164 L64 163 L61 160 L60 159 L57 159 L56 157 L53 155 L49 155 L47 154 L43 152 L40 152 L38 152 L35 152 L32 152 L29 152 L27 152 L25 153 L23 153 L22 153 L20 154 L18 155 L16 156 L13 158 L11 159 L9 161 L7 163 L5 166 L4 169 L3 171 L1 174 L1 177 L0 180 L0 184 L0 189 L0 194 L2 197 L4 202 L7 206 L8 208 L12 210 L15 211 L19 214 L24 215 L31 217 L37 218 L42 218 L45 218 L48 218 L55 216 L60 212 L64 211 L66 209 L68 207 L71 205 L73 203 L75 200 L76 199 L77 196 L78 195 L78 194 L78 192 L78 191 M76 127 L79 117 L87 99 L90 95 L92 92 L95 90 L103 88 L108 88 L110 88 L113 90 L117 97 L121 107 L121 112 L121 115 L121 118 L121 119 L121 120 M141 47 L141 45 L140 43 L140 39 L140 37 L140 33 L140 30 L140 27 L140 23 L141 20 L142 18 L144 15 L144 14 L145 12 L147 11 L148 10 L149 8 L152 7 L153 6 L156 4 L156 3 L157 2 L160 1 L161 0 L164 0 L168 0 L170 0 L174 0 L175 0 L176 0 L178 2 L180 3 L181 5 L182 9 L183 13 L183 15 L183 19 L183 23 L183 26 L183 28 L183 31 L183 33 L183 34 L182 35 L181 36 L181 38 L181 39 L180 39 L180 40 L180 42 L179 43 L179 44 L178 44 L178 45 L177 45 L177 46 L176 47 L175 47 L175 48 L174 48 L173 49 L172 50 L172 51 L171 51 " fill="none" stroke="black" /></svg>