<?xml version="1.0" encoding="utf-8" ?>
<svg baseProfile="tiny" height="210" version="1.2" viewBox="-3 -3 289 210" width="289" xmlns="http://www.w3.org/2000/svg" xmlns:ev="http://www.w3.org/2001/xml-events" xmlns:xlink="http://www.w3.org/1999/xlink"><defs /><circle cx="226" cy="145" fill="black" r="1" /><path d="M102 153 L98 143 L92 125 L90 117 L89 113 L89 111 L89 109 L89 105 L89 101 L89 99 L89 97 L90 95 L90 91 L92 88 L93 85 L94 81 L96 78 L98 76 L98 74 L100 72 L102 70 L102 69 L103 67 L105 65 L106 64 L107 64 L108 62 L109 61 L110 60 " fill="none" stroke="black" /><path d="M102 153 L98 143 L92 125 L90 117 L89 113 L89 111 L89 109 L89 105 L89 101 L89 99 L89 97 L90 95 L90 91 L92 88 L93 85 L94 81 L96 78 L98 76 L98 74 L100 72 L102 70 L102 69 L103 67 L105 65 L106 64 L107 64 L108 62 L109 61 L110 60 M278 24 L282 31 L284 37 L285 41 L286 44 L286 46 L286 48 L287 51 L287 53 L288 57 L288 61 L289 64 L289 67 L289 70 L289 73 L289 77 L289 83 L289 86 L289 89 L289 93 L289 97 L289 100 L289 103 L289 109 L289 113 L289 118 L288 121 L287 125 L286 129 L285 133 L284 137 L283 141 L282 144 L282 146 L282 148 L281 150 L280 153 L280 155 L278 157 L278 158 L277 161 L275 163 L274 166 L274 168 L272 170 L271 173 L270 175 L269 177 L267 180 L266 182 L266 184 L264 186 L262 188 L262 189 L262 190 L262 191 L262 192 " fill="none" stroke="black" /><path d="M102 153 L98 143 L92 125 L90 117 L89 113 L89 111 L89 109 L89 105 L89 101 L89 99 L89 97 L90 95 L90 91 L92 88 L93 85 L94 81 L96 78 L98 76 L98 74 L100 72 L102 70 L102 69 L103 67 L105 65 L106 64 L107 64 L108 62 L109 61 L110 60 M278 24 L282 31 L284 37 L285 41 L286 44 L286 46 L286 48 L287 51 L287 53 L288 57 L288 61 L289 64 L289 67 L289 70 L289 73 L289 77 L289 83 L289 86 L289 89 L289 93 L289 97 L289 100 L289 103 L289 109 L289 113 L289 118 L288 121 L287 125 L286 129 L285 133 L284 137 L283 141 L282 144 L282 146 L282 148 L281 150 L280 153 L280 155 L278 157 L278 158 L277 161 L275 163 L274 166 L274 168 L272 170 L271 173 L270 175 L269 177 L267 180 L266 182 L266 184 L264 186 L262 188 L262 189 L262 190 L262 191 L262 192 M45 202 L43 200 L41 198 L39 197 L37 194 L34 192 L32 189 L30 188 L27 185 L26 184 L23 181 L21 178 L18 174 L16 171 L13 165 L10 159 L6 152 L4 146 L2 141 L2 133 L1 124 L0 116 L0 113 L0 105 L0 99 L0 93 L1 86 L2 81 L4 75 L6 69 L9 64 L11 57 L14 49 L18 43 L21 36 L25 30 L27 26 L30 21 L34 17 L37 13 L39 10 L41 8 L43 5 L46 3 L47 2 L48 1 L49 0 " fill="none" stroke="black" /><path d="M102 153 L98 143 L92 125 L90 117 L89 113 L89 111 L89 109 L89 105 L89 101 L89 99 L89 97 L90 95 L90 91 L92 88 L93 85 L94 81 L96 78 L98 76 L98 74 L100 72 L102 70 L102 69 L103 67 L105 65 L106 64 L107 64 L108 62 L109 61 L110 60 M278 24 L282 31 L284 37 L285 41 L286 44 L286 46 L286 48 L287 51 L287 53 L288 57 L288 61 L289 64 L289 67 L289 70 L289 73 L289 77 L289 83 L289 86 L289 89 L289 93 L289 97 L289 100 L289 103 L289 109 L289 113 L289 118 L288 121 L287 125 L286 129 L285 133 L284 137 L283 141 L282 144 L282 146 L282 148 L281 150 L280 153 L280 155 L278 157 L278 158 L277 161 L275 163 L274 166 L274 168 L272 170 L271 173 L270 175 L269 177 L267 180 L266 182 L266 184 L264 186 L262 188 L262 189 L262 190 L262 191 L262 192 M45 202 L43 200 L41 198 L39 197 L37 194 L34 192 L32 189 L30 188 L27 185 L26 184 L23 181 L21 178 L18 174 L16 171 L13 165 L10 159 L6 152 L4 146 L2 141 L2 133 L1 124 L0 116 L0 113 L0 105 L0 99 L0 93 L1 86 L2 81 L4 75 L6 69 L9 64 L11 57 L14 49 L18 43 L21 36 L25 30 L27 26 L30 21 L34 17 L37 13 L39 10 L41 8 L43 5 L46 3 L47 2 L48 1 L49 0 M37 193 L38 193 L40 197 L42 200 L44 201 L46 204 L47 205 L48 206 L49 207 L50 208 L52 209 L53 209 L54 209 L54 210 L55 210 L56 210 " fill="none" stroke="black" /></svg>