<?xml version="1.0" encoding="utf-8" ?>
<svg baseProfile="tiny" height="109" version="1.2" viewBox="-3 -3 136 109" width="136" xmlns="http://www.w3.org/2000/svg" xmlns:ev="http://www.w3.org/2001/xml-events" xmlns:xlink="http://www.w3.org/1999/xlink"><defs /><path d="M20 45 L21 44 L22 42 " fill="none" stroke="black" /><path d="M20 45 L21 44 L22 42 M35 28 L35 27 L42 22 L48 19 L52 17 L57 17 L59 17 L63 17 L65 17 L68 18 L72 21 L75 23 L76 25 L79 26 L81 29 L82 31 L84 34 L84 37 L84 40 L84 44 L84 46 L84 49 L84 51 L83 53 L83 55 L83 56 " fill="none" stroke="black" /><path d="M20 45 L21 44 L22 42 M35 28 L35 27 L42 22 L48 19 L52 17 L57 17 L59 17 L63 17 L65 17 L68 18 L72 21 L75 23 L76 25 L79 26 L81 29 L82 31 L84 34 L84 37 L84 40 L84 44 L84 46 L84 49 L84 51 L83 53 L83 55 L83 56 M76 65 L75 68 L75 71 L74 74 L73 77 L73 80 L73 82 L73 83 L74 85 L75 88 L77 90 L80 93 L82 94 L84 97 L86 97 L88 99 L92 100 L96 101 L100 101 L102 101 L104 101 L106 101 L108 98 L112 96 L116 93 L120 89 L124 85 L127 83 L128 80 L131 74 L133 69 L134 65 L136 63 L136 59 L136 55 L136 50 L136 47 L136 42 L136 38 L136 35 L136 31 L136 29 L136 27 L134 24 L133 21 L132 18 L131 15 L128 13 L127 10 L124 9 L122 6 L120 5 L117 3 L115 1 L111 1 L109 0 L107 0 L104 0 L100 0 L98 0 L96 0 L94 0 L92 0 L91 0 L90 1 L89 1 L88 1 L88 2 L88 3 L87 3 L87 4 L86 4 L86 5 L85 5 " fill="none" stroke="black" /><path d="M20 45 L21 44 L22 42 M35 28 L35 27 L42 22 L48 19 L52 17 L57 17 L59 17 L63 17 L65 17 L68 18 L72 21 L75 23 L76 25 L79 26 L81 29 L82 31 L84 34 L84 37 L84 40 L84 44 L84 46 L84 49 L84 51 L83 53 L83 55 L83 56 M76 65 L75 68 L75 71 L74 74 L73 77 L73 80 L73 82 L73 83 L74 85 L75 88 L77 90 L80 93 L82 94 L84 97 L86 97 L88 99 L92 100 L96 101 L100 101 L102 101 L104 101 L106 101 L108 98 L112 96 L116 93 L120 89 L124 85 L127 83 L128 80 L131 74 L133 69 L134 65 L136 63 L136 59 L136 55 L136 50 L136 47 L136 42 L136 38 L136 35 L136 31 L136 29 L136 27 L134 24 L133 21 L132 18 L131 15 L128 13 L127 10 L124 9 L122 6 L120 5 L117 3 L115 1 L111 1 L109 0 L107 0 L104 0 L100 0 L98 0 L96 0 L94 0 L92 0 L91 0 L90 1 L89 1 L88 1 L88 2 L88 3 L87 3 L87 4 L86 4 L86 5 L85 5 M52 37 L49 40 L44 48 L37 54 L33 59 L31 61 L28 63 L27 65 L24 67 L22 69 L19 72 L16 75 L14 77 L12 80 L8 84 L8 85 L6 88 L4 90 L4 93 L2 95 L1 97 L0 99 L0 101 L0 103 L0 105 L3 107 L5 108 L9 109 L12 109 L15 109 L19 109 L22 108 L25 106 L28 104 L31 102 L33 100 L38 95 L41 92 L44 89 L48 85 L52 81 L52 77 L55 74 L56 72 L57 70 L58 69 L57 69 " fill="none" stroke="black" /></svg>