<?xml version="1.0" encoding="utf-8" ?>
<svg baseProfile="tiny" height="440" version="1.2" viewBox="-3 -3 716 440" width="716" xmlns="http://www.w3.org/2000/svg" xmlns:ev="http://www.w3.org/2001/xml-events" xmlns:xlink="http://www.w3.org/1999/xlink"><defs /><path d="M5 345 L2 349 L0 350 L89 257 L342 64 L448 0 L442 13 L304 116 L220 173 L216 176 L233 168 L394 136 L412 153 L352 231 L295 283 L294 283 L405 232 L552 200 L576 221 L548 268 L506 300 L504 300 L551 283 L691 252 L716 257 L693 285 L622 331 L614 335 L616 333 L620 332 L622 332 L623 333 L624 333 L624 334 L624 335 L622 337 L620 340 L619 341 L617 342 L616 344 L614 344 L612 345 L610 348 L599 352 L589 352 L587 351 L586 351 L584 357 L581 364 L577 368 L574 368 L572 368 L571 368 L570 369 L568 372 L565 373 L559 373 L556 373 L555 373 L553 375 L549 375 L546 374 L545 374 L544 374 L544 376 L543 376 L541 376 L540 376 L538 376 L537 377 L537 381 L539 389 L539 391 L538 393 L537 394 L536 395 L512 404 L398 436 L344 440 L336 436 L341 432 L370 424 L379 425 L365 432 L307 440 L279 439 L279 430 L297 411 L316 402 L316 403 L300 412 L278 417 L276 417 L279 410 L284 403 L285 401 L276 406 L254 412 L250 412 L255 399 L269 379 L272 376 L270 379 L255 387 L252 388 L252 384 L260 371 L263 368 L257 373 L241 384 L238 385 L238 381 L244 369 L244 367 L241 369 L230 376 L227 377 L227 371 L232 357 L232 355 L223 357 L202 362 L195 363 L196 356 L202 343 L202 340 L199 343 L191 349 L188 352 L188 348 L187 348 L184 348 L179 351 L174 352 L171 352 L172 347 L172 344 L173 343 L173 342 L172 341 L172 340 L171 339 L171 338 L171 337 L170 336 L169 335 L168 332 L148 315 L96 264 L73 244 " fill="none" stroke="black" /></svg>