<?xml version="1.0" encoding="utf-8" ?>
<svg baseProfile="tiny" height="158" version="1.2" viewBox="-3 -3 209 158" width="209" xmlns="http://www.w3.org/2000/svg" xmlns:ev="http://www.w3.org/2001/xml-events" xmlns:xlink="http://www.w3.org/1999/xlink"><defs /><path d="M46 0 L33 3 L28 5 L25 7 L22 9 L21 11 L19 15 L18 17 L18 21 L18 23 L21 26 L25 28 L28 31 L33 34 L39 35 L53 39 L73 41 L93 41 L104 41 L117 41 L129 41 L138 40 L141 39 L144 38 L145 37 L147 36 L148 35 L149 34 L150 33 L150 31 L150 29 L150 27 L150 26 L150 25 " fill="none" stroke="black" /><path d="M46 0 L33 3 L28 5 L25 7 L22 9 L21 11 L19 15 L18 17 L18 21 L18 23 L21 26 L25 28 L28 31 L33 34 L39 35 L53 39 L73 41 L93 41 L104 41 L117 41 L129 41 L138 40 L141 39 L144 38 L145 37 L147 36 L148 35 L149 34 L150 33 L150 31 L150 29 L150 27 L150 26 L150 25 M208 91 L203 90 L190 84 L174 79 L163 75 L153 73 L147 72 L144 72 L137 72 L134 72 L127 74 L121 76 L115 78 L111 79 L109 81 L106 83 L105 85 L104 87 L104 88 L105 90 L115 98 L123 105 L125 107 L127 109 L129 111 L133 112 L139 113 L143 114 L156 117 L163 118 L169 118 L175 118 L181 118 L188 118 L191 117 L193 115 L196 115 L197 114 L198 112 L201 112 L203 111 L205 110 L206 108 L207 107 L209 107 L209 105 L209 101 L209 98 L209 96 L209 94 L209 92 L209 91 L209 90 " fill="none" stroke="black" /><path d="M46 0 L33 3 L28 5 L25 7 L22 9 L21 11 L19 15 L18 17 L18 21 L18 23 L21 26 L25 28 L28 31 L33 34 L39 35 L53 39 L73 41 L93 41 L104 41 L117 41 L129 41 L138 40 L141 39 L144 38 L145 37 L147 36 L148 35 L149 34 L150 33 L150 31 L150 29 L150 27 L150 26 L150 25 M208 91 L203 90 L190 84 L174 79 L163 75 L153 73 L147 72 L144 72 L137 72 L134 72 L127 74 L121 76 L115 78 L111 79 L109 81 L106 83 L105 85 L104 87 L104 88 L105 90 L115 98 L123 105 L125 107 L127 109 L129 111 L133 112 L139 113 L143 114 L156 117 L163 118 L169 118 L175 118 L181 118 L188 118 L191 117 L193 115 L196 115 L197 114 L198 112 L201 112 L203 111 L205 110 L206 108 L207 107 L209 107 L209 105 L209 101 L209 98 L209 96 L209 94 L209 92 L209 91 L209 90 M34 74 L24 74 L13 75 L8 76 L5 77 L2 79 L1 79 L1 80 L0 83 L0 85 L1 90 L5 97 L12 102 L17 106 L22 107 L31 108 L39 107 L46 106 L52 104 L54 103 L56 100 L58 99 L60 95 L61 93 L61 89 L61 86 L59 82 L57 79 L54 77 L51 75 L47 73 L44 72 L41 72 L37 72 L33 72 L30 72 L28 72 L27 73 L25 73 " fill="none" stroke="black" /><path d="M46 0 L33 3 L28 5 L25 7 L22 9 L21 11 L19 15 L18 17 L18 21 L18 23 L21 26 L25 28 L28 31 L33 34 L39 35 L53 39 L73 41 L93 41 L104 41 L117 41 L129 41 L138 40 L141 39 L144 38 L145 37 L147 36 L148 35 L149 34 L150 33 L150 31 L150 29 L150 27 L150 26 L150 25 M208 91 L203 90 L190 84 L174 79 L163 75 L153 73 L147 72 L144 72 L137 72 L134 72 L127 74 L121 76 L115 78 L111 79 L109 81 L106 83 L105 85 L104 87 L104 88 L105 90 L115 98 L123 105 L125 107 L127 109 L129 111 L133 112 L139 113 L143 114 L156 117 L163 118 L169 118 L175 118 L181 118 L188 118 L191 117 L193 115 L196 115 L197 114 L198 112 L201 112 L203 111 L205 110 L206 108 L207 107 L209 107 L209 105 L209 101 L209 98 L209 96 L209 94 L209 92 L209 91 L209 90 M34 74 L24 74 L13 75 L8 76 L5 77 L2 79 L1 79 L1 80 L0 83 L0 85 L1 90 L5 97 L12 102 L17 106 L22 107 L31 108 L39 107 L46 106 L52 104 L54 103 L56 100 L58 99 L60 95 L61 93 L61 89 L61 86 L59 82 L57 79 L54 77 L51 75 L47 73 L44 72 L41 72 L37 72 L33 72 L30 72 L28 72 L27 73 L25 73 M36 107 L34 119 L29 144 L26 154 L25 157 L25 158 " fill="none" stroke="black" /><path d="M46 0 L33 3 L28 5 L25 7 L22 9 L21 11 L19 15 L18 17 L18 21 L18 23 L21 26 L25 28 L28 31 L33 34 L39 35 L53 39 L73 41 L93 41 L104 41 L117 41 L129 41 L138 40 L141 39 L144 38 L145 37 L147 36 L148 35 L149 34 L150 33 L150 31 L150 29 L150 27 L150 26 L150 25 M208 91 L203 90 L190 84 L174 79 L163 75 L153 73 L147 72 L144 72 L137 72 L134 72 L127 74 L121 76 L115 78 L111 79 L109 81 L106 83 L105 85 L104 87 L104 88 L105 90 L115 98 L123 105 L125 107 L127 109 L129 111 L133 112 L139 113 L143 114 L156 117 L163 118 L169 118 L175 118 L181 118 L188 118 L191 117 L193 115 L196 115 L197 114 L198 112 L201 112 L203 111 L205 110 L206 108 L207 107 L209 107 L209 105 L209 101 L209 98 L209 96 L209 94 L209 92 L209 91 L209 90 M34 74 L24 74 L13 75 L8 76 L5 77 L2 79 L1 79 L1 80 L0 83 L0 85 L1 90 L5 97 L12 102 L17 106 L22 107 L31 108 L39 107 L46 106 L52 104 L54 103 L56 100 L58 99 L60 95 L61 93 L61 89 L61 86 L59 82 L57 79 L54 77 L51 75 L47 73 L44 72 L41 72 L37 72 L33 72 L30 72 L28 72 L27 73 L25 73 M36 107 L34 119 L29 144 L26 154 L25 157 L25 158 M41 71 L41 70 L41 66 L41 63 L41 59 L42 55 L43 53 L43 51 L44 48 L44 47 L45 46 L45 44 L46 43 L47 41 L48 40 L49 39 L49 38 L49 36 " fill="none" stroke="black" /></svg>