<?xml version="1.0" encoding="utf-8" ?>
<svg baseProfile="tiny" height="300" version="1.2" viewBox="-3 -3 394 300" width="394" xmlns="http://www.w3.org/2000/svg" xmlns:ev="http://www.w3.org/2001/xml-events" xmlns:xlink="http://www.w3.org/1999/xlink"><defs /><path d="M0 259 L10 280 L18 291 L25 297 L33 299 L42 300 L50 296 L63 282 L74 263 L81 247 L83 243 L84 237 L85 223 L82 201 L80 188 L78 175 L78 165 L78 155 L79 145 L82 140 L85 134 L89 127 L93 124 L99 120 L106 116 L115 113 L125 109 L133 107 L137 107 L140 106 L143 106 L146 106 L150 107 L152 108 L155 109 L158 111 L160 114 L162 116 L165 118 L169 122 L171 126 L174 131 L177 135 L181 139 L182 143 L184 147 L186 151 L190 159 L202 171 L214 181 L226 191 L242 199 L269 206 L290 207 L313 203 L332 193 L370 156 L388 133 L394 115 L394 101 L391 87 L387 71 L379 53 L375 47 L370 41 L365 36 L359 31 L354 25 L346 22 L340 18 L330 14 L320 11 L307 7 L299 4 L294 3 L286 2 L278 2 L272 1 L265 0 L260 0 L254 0 L247 0 L241 0 L234 1 L222 3 L209 4 L200 6 L194 7 L187 8 L179 11 L172 13 L167 14 L161 17 L155 18 L149 20 L141 23 L132 27 L124 30 L118 32 L113 34 L110 36 L106 38 L102 40 L98 42 L95 44 L92 47 L89 48 L87 50 L84 52 L81 55 L79 59 L76 63 L74 65 L71 70 L69 73 L66 79 L64 86 L62 92 L59 99 L58 105 L57 107 L54 115 L53 123 L50 131 L47 143 L45 151 L42 159 L41 167 L38 178 L37 187 L35 194 L34 199 L32 202 L32 204 L32 207 L32 209 L32 211 L32 212 L31 214 L31 215 L31 216 L31 218 L31 219 L31 222 L31 223 L31 224 L31 225 L31 226 L31 227 L31 228 " fill="none" stroke="black" /></svg>