<?xml version="1.0" encoding="utf-8" ?>
<svg baseProfile="tiny" height="180" version="1.2" viewBox="-3 -3 285 180" width="285" xmlns="http://www.w3.org/2000/svg" xmlns:ev="http://www.w3.org/2001/xml-events" xmlns:xlink="http://www.w3.org/1999/xlink"><defs /><path d="M94 102 L99 92 L105 86 L114 80 L125 80 L139 82 L154 90 L167 99 L175 107 L181 114 L183 118 L185 120 L188 121 L192 122 L194 122 L197 120 L201 119 L204 116 L207 113 L211 111 L216 108 L224 104 L229 100 L231 100 L233 99 L237 97 L242 97 L246 97 L252 97 L257 97 L260 98 L263 99 L265 100 L268 101 L270 103 L272 104 L275 105 L277 107 L279 108 L281 109 L283 111 L285 111 L285 112 L285 113 L285 115 L285 116 L285 117 " fill="none" stroke="black" /><path d="M94 102 L99 92 L105 86 L114 80 L125 80 L139 82 L154 90 L167 99 L175 107 L181 114 L183 118 L185 120 L188 121 L192 122 L194 122 L197 120 L201 119 L204 116 L207 113 L211 111 L216 108 L224 104 L229 100 L231 100 L233 99 L237 97 L242 97 L246 97 L252 97 L257 97 L260 98 L263 99 L265 100 L268 101 L270 103 L272 104 L275 105 L277 107 L279 108 L281 109 L283 111 L285 111 L285 112 L285 113 L285 115 L285 116 L285 117 M176 156 L163 164 L149 164 L134 160 L127 156 L125 153 L125 152 L125 155 L124 159 L120 167 L113 173 L104 174 L92 169 L85 165 L83 164 L82 164 L81 166 L78 172 L72 177 L64 180 L43 180 L26 175 L18 171 L9 164 L5 158 L4 156 " fill="none" stroke="black" /><path d="M94 102 L99 92 L105 86 L114 80 L125 80 L139 82 L154 90 L167 99 L175 107 L181 114 L183 118 L185 120 L188 121 L192 122 L194 122 L197 120 L201 119 L204 116 L207 113 L211 111 L216 108 L224 104 L229 100 L231 100 L233 99 L237 97 L242 97 L246 97 L252 97 L257 97 L260 98 L263 99 L265 100 L268 101 L270 103 L272 104 L275 105 L277 107 L279 108 L281 109 L283 111 L285 111 L285 112 L285 113 L285 115 L285 116 L285 117 M176 156 L163 164 L149 164 L134 160 L127 156 L125 153 L125 152 L125 155 L124 159 L120 167 L113 173 L104 174 L92 169 L85 165 L83 164 L82 164 L81 166 L78 172 L72 177 L64 180 L43 180 L26 175 L18 171 L9 164 L5 158 L4 156 M64 88 L33 76 L14 64 L7 55 L2 48 L1 40 L0 33 L0 30 L1 26 L6 20 L15 16 L24 16 L34 19 L41 20 L48 24 L51 26 L53 27 L55 29 L56 30 L55 30 L55 26 L55 16 L56 7 L58 3 L60 1 L71 0 L93 5 L112 13 L117 19 L118 21 L118 24 L118 25 L120 25 L121 24 L122 22 L129 17 L139 13 L154 14 L177 22 L181 26 L181 27 L181 28 L181 31 L180 33 L177 36 L176 39 L173 40 L172 43 L170 45 L169 47 L168 48 L167 48 L165 50 L165 51 L164 52 L162 53 L161 55 L160 56 L159 56 L157 58 L157 59 L156 60 L155 60 L154 60 L153 62 L152 63 L152 64 " fill="none" stroke="black" /></svg>