<?xml version="1.0" encoding="utf-8" ?>
<svg baseProfile="tiny" height="196" version="1.2" viewBox="-3 -3 527 196" width="527" xmlns="http://www.w3.org/2000/svg" xmlns:ev="http://www.w3.org/2001/xml-events" xmlns:xlink="http://www.w3.org/1999/xlink"><defs /><circle cx="0" cy="0" fill="black" r="1" /><path d="M139 26 L287 17 L389 23 L438 39 L407 49 L238 88 L202 99 L204 99 L229 94 L309 80 L309 81 L224 118 L161 139 L223 131 L323 130 L334 137 L325 145 L281 167 L277 170 L302 168 L318 169 L320 172 L292 193 L288 196 L291 195 L345 190 L367 191 " fill="none" stroke="black" /><path d="M139 26 L287 17 L389 23 L438 39 L407 49 L238 88 L202 99 L204 99 L229 94 L309 80 L309 81 L224 118 L161 139 L223 131 L323 130 L334 137 L325 145 L281 167 L277 170 L302 168 L318 169 L320 172 L292 193 L288 196 L291 195 L345 190 L367 191 M467 138 L458 130 L443 122 L437 120 L432 120 L425 121 L418 124 L412 129 L407 132 L405 135 L402 138 L400 142 L399 147 L399 149 L399 153 L400 157 L409 165 L417 170 L426 173 L433 174 L439 174 L445 174 L449 174 L451 174 L453 174 L456 172 L459 171 L461 170 L463 169 L464 167 L465 165 L466 162 L467 160 L468 157 L468 154 L468 152 L469 150 L469 148 L469 146 L469 144 L469 142 L468 140 L466 138 L465 135 L464 134 L464 132 L462 130 L461 130 L461 128 L461 127 " fill="none" stroke="black" /><path d="M139 26 L287 17 L389 23 L438 39 L407 49 L238 88 L202 99 L204 99 L229 94 L309 80 L309 81 L224 118 L161 139 L223 131 L323 130 L334 137 L325 145 L281 167 L277 170 L302 168 L318 169 L320 172 L292 193 L288 196 L291 195 L345 190 L367 191 M467 138 L458 130 L443 122 L437 120 L432 120 L425 121 L418 124 L412 129 L407 132 L405 135 L402 138 L400 142 L399 147 L399 149 L399 153 L400 157 L409 165 L417 170 L426 173 L433 174 L439 174 L445 174 L449 174 L451 174 L453 174 L456 172 L459 171 L461 170 L463 169 L464 167 L465 165 L466 162 L467 160 L468 157 L468 154 L468 152 L469 150 L469 148 L469 146 L469 144 L469 142 L468 140 L466 138 L465 135 L464 134 L464 132 L462 130 L461 130 L461 128 L461 127 M527 100 L526 100 L523 98 L517 94 L513 91 L509 90 L506 90 L505 90 L502 90 L501 91 L499 92 L498 94 L496 95 L493 98 L491 101 L489 105 L489 106 L489 108 L488 110 L488 112 L488 113 L488 114 L489 116 L492 118 L494 120 L497 122 L501 124 L503 125 L507 126 L509 126 L511 126 L513 126 L516 126 L517 126 L521 125 L522 124 L524 123 L525 122 L525 121 L527 120 L527 119 L527 118 L527 117 L527 115 L527 114 L527 111 L527 110 L527 108 L527 107 L527 106 L527 104 L526 102 L526 101 L525 100 L525 99 L525 98 " fill="none" stroke="black" /></svg>