<?xml version="1.0" encoding="utf-8" ?>
<svg baseProfile="tiny" height="218" version="1.2" viewBox="-3 -3 228 218" width="228" xmlns="http://www.w3.org/2000/svg" xmlns:ev="http://www.w3.org/2001/xml-events" xmlns:xlink="http://www.w3.org/1999/xlink"><defs /><path d="M185 218 L186 218 L187 218 L188 218 L188 216 L187 214 L187 213 L187 207 L186 185 L183 159 L182 146 L182 140 L182 138 L182 136 L182 135 L187 135 L196 134 L211 134 L219 134 L224 134 L227 134 L228 134 L228 131 L227 130 L226 123 L220 93 L213 57 L207 28 L205 18 L204 13 L203 6 L203 4 L203 2 L203 0 L203 2 L201 2 L196 4 L187 6 L174 8 L163 9 L153 10 L150 11 L147 11 L144 11 L143 11 L140 11 L142 11 L143 11 L144 13 L147 20 L153 38 L157 56 L157 66 L159 73 L159 78 L159 80 L159 82 L159 83 L159 85 L159 84 L159 82 L159 80 L159 77 L158 73 L158 71 L158 69 L158 67 L158 66 L157 65 L157 64 L157 63 L157 62 L157 61 L155 59 L155 58 L155 57 L154 56 L153 56 L151 56 L151 58 L148 58 L144 60 L139 61 L134 62 L129 63 L119 66 L113 67 L110 68 L107 68 L103 69 L99 70 L97 70 L95 70 L93 70 L92 70 L91 72 L89 72 L87 72 L86 72 L85 72 L85 74 L85 76 L85 78 L85 81 L85 82 L85 85 L85 86 L85 89 L86 91 L86 93 L86 94 L87 95 L87 97 L87 98 L87 101 L88 102 L88 104 L88 106 L89 106 L89 107 L89 109 L89 110 L89 111 " fill="none" stroke="black" /><path d="M185 218 L186 218 L187 218 L188 218 L188 216 L187 214 L187 213 L187 207 L186 185 L183 159 L182 146 L182 140 L182 138 L182 136 L182 135 L187 135 L196 134 L211 134 L219 134 L224 134 L227 134 L228 134 L228 131 L227 130 L226 123 L220 93 L213 57 L207 28 L205 18 L204 13 L203 6 L203 4 L203 2 L203 0 L203 2 L201 2 L196 4 L187 6 L174 8 L163 9 L153 10 L150 11 L147 11 L144 11 L143 11 L140 11 L142 11 L143 11 L144 13 L147 20 L153 38 L157 56 L157 66 L159 73 L159 78 L159 80 L159 82 L159 83 L159 85 L159 84 L159 82 L159 80 L159 77 L158 73 L158 71 L158 69 L158 67 L158 66 L157 65 L157 64 L157 63 L157 62 L157 61 L155 59 L155 58 L155 57 L154 56 L153 56 L151 56 L151 58 L148 58 L144 60 L139 61 L134 62 L129 63 L119 66 L113 67 L110 68 L107 68 L103 69 L99 70 L97 70 L95 70 L93 70 L92 70 L91 72 L89 72 L87 72 L86 72 L85 72 L85 74 L85 76 L85 78 L85 81 L85 82 L85 85 L85 86 L85 89 L86 91 L86 93 L86 94 L87 95 L87 97 L87 98 L87 101 L88 102 L88 104 L88 106 L89 106 L89 107 L89 109 L89 110 L89 111 M87 131 L83 132 L50 132 L17 132 L7 132 L4 132 L4 131 " fill="none" stroke="black" /><circle cx="0" cy="134" fill="black" r="1" /><path d="M185 218 L186 218 L187 218 L188 218 L188 216 L187 214 L187 213 L187 207 L186 185 L183 159 L182 146 L182 140 L182 138 L182 136 L182 135 L187 135 L196 134 L211 134 L219 134 L224 134 L227 134 L228 134 L228 131 L227 130 L226 123 L220 93 L213 57 L207 28 L205 18 L204 13 L203 6 L203 4 L203 2 L203 0 L203 2 L201 2 L196 4 L187 6 L174 8 L163 9 L153 10 L150 11 L147 11 L144 11 L143 11 L140 11 L142 11 L143 11 L144 13 L147 20 L153 38 L157 56 L157 66 L159 73 L159 78 L159 80 L159 82 L159 83 L159 85 L159 84 L159 82 L159 80 L159 77 L158 73 L158 71 L158 69 L158 67 L158 66 L157 65 L157 64 L157 63 L157 62 L157 61 L155 59 L155 58 L155 57 L154 56 L153 56 L151 56 L151 58 L148 58 L144 60 L139 61 L134 62 L129 63 L119 66 L113 67 L110 68 L107 68 L103 69 L99 70 L97 70 L95 70 L93 70 L92 70 L91 72 L89 72 L87 72 L86 72 L85 72 L85 74 L85 76 L85 78 L85 81 L85 82 L85 85 L85 86 L85 89 L86 91 L86 93 L86 94 L87 95 L87 97 L87 98 L87 101 L88 102 L88 104 L88 106 L89 106 L89 107 L89 109 L89 110 L89 111 M87 131 L83 132 L50 132 L17 132 L7 132 L4 132 L4 131 M1 131 L1 132 L1 134 L1 136 L1 138 L1 140 L1 142 L1 144 L1 146 " fill="none" stroke="black" /><path d="M185 218 L186 218 L187 218 L188 218 L188 216 L187 214 L187 213 L187 207 L186 185 L183 159 L182 146 L182 140 L182 138 L182 136 L182 135 L187 135 L196 134 L211 134 L219 134 L224 134 L227 134 L228 134 L228 131 L227 130 L226 123 L220 93 L213 57 L207 28 L205 18 L204 13 L203 6 L203 4 L203 2 L203 0 L203 2 L201 2 L196 4 L187 6 L174 8 L163 9 L153 10 L150 11 L147 11 L144 11 L143 11 L140 11 L142 11 L143 11 L144 13 L147 20 L153 38 L157 56 L157 66 L159 73 L159 78 L159 80 L159 82 L159 83 L159 85 L159 84 L159 82 L159 80 L159 77 L158 73 L158 71 L158 69 L158 67 L158 66 L157 65 L157 64 L157 63 L157 62 L157 61 L155 59 L155 58 L155 57 L154 56 L153 56 L151 56 L151 58 L148 58 L144 60 L139 61 L134 62 L129 63 L119 66 L113 67 L110 68 L107 68 L103 69 L99 70 L97 70 L95 70 L93 70 L92 70 L91 72 L89 72 L87 72 L86 72 L85 72 L85 74 L85 76 L85 78 L85 81 L85 82 L85 85 L85 86 L85 89 L86 91 L86 93 L86 94 L87 95 L87 97 L87 98 L87 101 L88 102 L88 104 L88 106 L89 106 L89 107 L89 109 L89 110 L89 111 M87 131 L83 132 L50 132 L17 132 L7 132 L4 132 L4 131 M1 131 L1 132 L1 134 L1 136 L1 138 L1 140 L1 142 L1 144 L1 146 M1 146 L1 148 L1 150 L1 152 L1 154 L1 155 L1 156 " fill="none" stroke="black" /><path d="M185 218 L186 218 L187 218 L188 218 L188 216 L187 214 L187 213 L187 207 L186 185 L183 159 L182 146 L182 140 L182 138 L182 136 L182 135 L187 135 L196 134 L211 134 L219 134 L224 134 L227 134 L228 134 L228 131 L227 130 L226 123 L220 93 L213 57 L207 28 L205 18 L204 13 L203 6 L203 4 L203 2 L203 0 L203 2 L201 2 L196 4 L187 6 L174 8 L163 9 L153 10 L150 11 L147 11 L144 11 L143 11 L140 11 L142 11 L143 11 L144 13 L147 20 L153 38 L157 56 L157 66 L159 73 L159 78 L159 80 L159 82 L159 83 L159 85 L159 84 L159 82 L159 80 L159 77 L158 73 L158 71 L158 69 L158 67 L158 66 L157 65 L157 64 L157 63 L157 62 L157 61 L155 59 L155 58 L155 57 L154 56 L153 56 L151 56 L151 58 L148 58 L144 60 L139 61 L134 62 L129 63 L119 66 L113 67 L110 68 L107 68 L103 69 L99 70 L97 70 L95 70 L93 70 L92 70 L91 72 L89 72 L87 72 L86 72 L85 72 L85 74 L85 76 L85 78 L85 81 L85 82 L85 85 L85 86 L85 89 L86 91 L86 93 L86 94 L87 95 L87 97 L87 98 L87 101 L88 102 L88 104 L88 106 L89 106 L89 107 L89 109 L89 110 L89 111 M87 131 L83 132 L50 132 L17 132 L7 132 L4 132 L4 131 M1 131 L1 132 L1 134 L1 136 L1 138 L1 140 L1 142 L1 144 L1 146 M1 146 L1 148 L1 150 L1 152 L1 154 L1 155 L1 156 M1 156 L1 157 L1 158 " fill="none" stroke="black" /></svg>