<?xml version="1.0" encoding="utf-8" ?>
<svg baseProfile="tiny" height="193" version="1.2" viewBox="-3 -3 297 193" width="297" xmlns="http://www.w3.org/2000/svg" xmlns:ev="http://www.w3.org/2001/xml-events" xmlns:xlink="http://www.w3.org/1999/xlink"><defs /><circle cx="113" cy="33" fill="black" r="1" /><path d="M81 1 L124 0 L165 6 L197 15 L213 20 L216 21 L217 21 " fill="none" stroke="black" /><path d="M81 1 L124 0 L165 6 L197 15 L213 20 L216 21 L217 21 M188 49 L185 48 L182 45 L178 43 L175 42 L173 41 L170 41 L167 41 L165 41 L162 41 L161 41 L161 42 L159 43 L158 44 L157 45 L156 46 L155 48 L155 49 L155 51 L155 53 L155 56 L155 58 L155 59 L155 60 L156 61 L157 63 L157 64 L160 65 L162 66 L164 68 L168 68 L170 69 L173 71 L176 71 L178 71 L181 71 L182 71 L185 70 L185 69 L187 68 L187 67 L188 66 L189 65 L189 64 L189 63 L189 62 L190 61 L191 59 L191 57 L191 55 L191 54 L191 53 L191 52 L190 51 L190 50 L189 50 L188 49 L188 47 L185 45 L184 42 L184 41 " fill="none" stroke="black" /><path d="M81 1 L124 0 L165 6 L197 15 L213 20 L216 21 L217 21 M188 49 L185 48 L182 45 L178 43 L175 42 L173 41 L170 41 L167 41 L165 41 L162 41 L161 41 L161 42 L159 43 L158 44 L157 45 L156 46 L155 48 L155 49 L155 51 L155 53 L155 56 L155 58 L155 59 L155 60 L156 61 L157 63 L157 64 L160 65 L162 66 L164 68 L168 68 L170 69 L173 71 L176 71 L178 71 L181 71 L182 71 L185 70 L185 69 L187 68 L187 67 L188 66 L189 65 L189 64 L189 63 L189 62 L190 61 L191 59 L191 57 L191 55 L191 54 L191 53 L191 52 L190 51 L190 50 L189 50 L188 49 L188 47 L185 45 L184 42 L184 41 M92 141 L121 141 L153 148 L168 151 L174 153 L177 153 L178 153 L179 153 " fill="none" stroke="black" /><path d="M81 1 L124 0 L165 6 L197 15 L213 20 L216 21 L217 21 M188 49 L185 48 L182 45 L178 43 L175 42 L173 41 L170 41 L167 41 L165 41 L162 41 L161 41 L161 42 L159 43 L158 44 L157 45 L156 46 L155 48 L155 49 L155 51 L155 53 L155 56 L155 58 L155 59 L155 60 L156 61 L157 63 L157 64 L160 65 L162 66 L164 68 L168 68 L170 69 L173 71 L176 71 L178 71 L181 71 L182 71 L185 70 L185 69 L187 68 L187 67 L188 66 L189 65 L189 64 L189 63 L189 62 L190 61 L191 59 L191 57 L191 55 L191 54 L191 53 L191 52 L190 51 L190 50 L189 50 L188 49 L188 47 L185 45 L184 42 L184 41 M92 141 L121 141 L153 148 L168 151 L174 153 L177 153 L178 153 L179 153 M114 123 L113 123 L74 117 L20 106 L2 101 L0 101 L1 101 L2 100 L4 100 L5 99 L9 97 L29 95 L61 91 L76 89 L77 89 " fill="none" stroke="black" /><path d="M81 1 L124 0 L165 6 L197 15 L213 20 L216 21 L217 21 M188 49 L185 48 L182 45 L178 43 L175 42 L173 41 L170 41 L167 41 L165 41 L162 41 L161 41 L161 42 L159 43 L158 44 L157 45 L156 46 L155 48 L155 49 L155 51 L155 53 L155 56 L155 58 L155 59 L155 60 L156 61 L157 63 L157 64 L160 65 L162 66 L164 68 L168 68 L170 69 L173 71 L176 71 L178 71 L181 71 L182 71 L185 70 L185 69 L187 68 L187 67 L188 66 L189 65 L189 64 L189 63 L189 62 L190 61 L191 59 L191 57 L191 55 L191 54 L191 53 L191 52 L190 51 L190 50 L189 50 L188 49 L188 47 L185 45 L184 42 L184 41 M92 141 L121 141 L153 148 L168 151 L174 153 L177 153 L178 153 L179 153 M114 123 L113 123 L74 117 L20 106 L2 101 L0 101 L1 101 L2 100 L4 100 L5 99 L9 97 L29 95 L61 91 L76 89 L77 89 M141 99 L150 99 L177 102 L201 106 L217 108 L221 108 L222 108 L223 108 " fill="none" stroke="black" /><path d="M81 1 L124 0 L165 6 L197 15 L213 20 L216 21 L217 21 M188 49 L185 48 L182 45 L178 43 L175 42 L173 41 L170 41 L167 41 L165 41 L162 41 L161 41 L161 42 L159 43 L158 44 L157 45 L156 46 L155 48 L155 49 L155 51 L155 53 L155 56 L155 58 L155 59 L155 60 L156 61 L157 63 L157 64 L160 65 L162 66 L164 68 L168 68 L170 69 L173 71 L176 71 L178 71 L181 71 L182 71 L185 70 L185 69 L187 68 L187 67 L188 66 L189 65 L189 64 L189 63 L189 62 L190 61 L191 59 L191 57 L191 55 L191 54 L191 53 L191 52 L190 51 L190 50 L189 50 L188 49 L188 47 L185 45 L184 42 L184 41 M92 141 L121 141 L153 148 L168 151 L174 153 L177 153 L178 153 L179 153 M114 123 L113 123 L74 117 L20 106 L2 101 L0 101 L1 101 L2 100 L4 100 L5 99 L9 97 L29 95 L61 91 L76 89 L77 89 M141 99 L150 99 L177 102 L201 106 L217 108 L221 108 L222 108 L223 108 M234 74 L256 74 L274 75 L286 78 L293 79 L295 79 " fill="none" stroke="black" /><path d="M81 1 L124 0 L165 6 L197 15 L213 20 L216 21 L217 21 M188 49 L185 48 L182 45 L178 43 L175 42 L173 41 L170 41 L167 41 L165 41 L162 41 L161 41 L161 42 L159 43 L158 44 L157 45 L156 46 L155 48 L155 49 L155 51 L155 53 L155 56 L155 58 L155 59 L155 60 L156 61 L157 63 L157 64 L160 65 L162 66 L164 68 L168 68 L170 69 L173 71 L176 71 L178 71 L181 71 L182 71 L185 70 L185 69 L187 68 L187 67 L188 66 L189 65 L189 64 L189 63 L189 62 L190 61 L191 59 L191 57 L191 55 L191 54 L191 53 L191 52 L190 51 L190 50 L189 50 L188 49 L188 47 L185 45 L184 42 L184 41 M92 141 L121 141 L153 148 L168 151 L174 153 L177 153 L178 153 L179 153 M114 123 L113 123 L74 117 L20 106 L2 101 L0 101 L1 101 L2 100 L4 100 L5 99 L9 97 L29 95 L61 91 L76 89 L77 89 M141 99 L150 99 L177 102 L201 106 L217 108 L221 108 L222 108 L223 108 M234 74 L256 74 L274 75 L286 78 L293 79 L295 79 M269 140 L266 138 L263 137 L260 136 L257 136 L256 136 L253 136 L251 137 L249 138 L246 139 L244 140 L242 141 L241 142 L241 144 L240 145 L240 146 L240 147 L240 148 L241 149 L242 152 L245 154 L249 156 L251 157 L254 158 L257 159 L259 159 L261 159 L263 159 L265 157 L266 157 L267 156 L269 154 L269 153 L269 152 L269 150 L269 149 L269 148 L269 146 L268 145 L268 144 " fill="none" stroke="black" /><path d="M81 1 L124 0 L165 6 L197 15 L213 20 L216 21 L217 21 M188 49 L185 48 L182 45 L178 43 L175 42 L173 41 L170 41 L167 41 L165 41 L162 41 L161 41 L161 42 L159 43 L158 44 L157 45 L156 46 L155 48 L155 49 L155 51 L155 53 L155 56 L155 58 L155 59 L155 60 L156 61 L157 63 L157 64 L160 65 L162 66 L164 68 L168 68 L170 69 L173 71 L176 71 L178 71 L181 71 L182 71 L185 70 L185 69 L187 68 L187 67 L188 66 L189 65 L189 64 L189 63 L189 62 L190 61 L191 59 L191 57 L191 55 L191 54 L191 53 L191 52 L190 51 L190 50 L189 50 L188 49 L188 47 L185 45 L184 42 L184 41 M92 141 L121 141 L153 148 L168 151 L174 153 L177 153 L178 153 L179 153 M114 123 L113 123 L74 117 L20 106 L2 101 L0 101 L1 101 L2 100 L4 100 L5 99 L9 97 L29 95 L61 91 L76 89 L77 89 M141 99 L150 99 L177 102 L201 106 L217 108 L221 108 L222 108 L223 108 M234 74 L256 74 L274 75 L286 78 L293 79 L295 79 M269 140 L266 138 L263 137 L260 136 L257 136 L256 136 L253 136 L251 137 L249 138 L246 139 L244 140 L242 141 L241 142 L241 144 L240 145 L240 146 L240 147 L240 148 L241 149 L242 152 L245 154 L249 156 L251 157 L254 158 L257 159 L259 159 L261 159 L263 159 L265 157 L266 157 L267 156 L269 154 L269 153 L269 152 L269 150 L269 149 L269 148 L269 146 L268 145 L268 144 M232 181 L266 189 L291 193 L297 193 " fill="none" stroke="black" /></svg>