<?xml version="1.0" encoding="utf-8" ?>
<svg baseProfile="tiny" height="255" version="1.2" viewBox="-3 -3 432 255" width="432" xmlns="http://www.w3.org/2000/svg" xmlns:ev="http://www.w3.org/2001/xml-events" xmlns:xlink="http://www.w3.org/1999/xlink"><defs /><path d="M1 120 L1 127 L1 140 L1 152 L0 160 L0 168 L0 170 L0 172 L1 174 L4 176 L6 178 L13 180 L21 183 L29 184 L36 185 L42 185 L45 185 L47 185 L49 184 L56 176 L63 165 L68 152 L72 141 L72 136 L72 133 L72 131 L72 129 " fill="none" stroke="black" /><path d="M1 120 L1 127 L1 140 L1 152 L0 160 L0 168 L0 170 L0 172 L1 174 L4 176 L6 178 L13 180 L21 183 L29 184 L36 185 L42 185 L45 185 L47 185 L49 184 L56 176 L63 165 L68 152 L72 141 L72 136 L72 133 L72 131 L72 129 M47 117 L47 112 L48 104 L53 94 L64 83 L90 70 L114 65 L127 67 L136 71 L145 81 L150 99 L151 113 L150 117 " fill="none" stroke="black" /><path d="M1 120 L1 127 L1 140 L1 152 L0 160 L0 168 L0 170 L0 172 L1 174 L4 176 L6 178 L13 180 L21 183 L29 184 L36 185 L42 185 L45 185 L47 185 L49 184 L56 176 L63 165 L68 152 L72 141 L72 136 L72 133 L72 131 L72 129 M47 117 L47 112 L48 104 L53 94 L64 83 L90 70 L114 65 L127 67 L136 71 L145 81 L150 99 L151 113 L150 117 M169 109 L172 96 L188 72 L196 64 L207 62 L219 62 L232 64 L236 65 L238 72 L238 88 L233 119 L230 131 L230 133 L230 135 " fill="none" stroke="black" /><path d="M1 120 L1 127 L1 140 L1 152 L0 160 L0 168 L0 170 L0 172 L1 174 L4 176 L6 178 L13 180 L21 183 L29 184 L36 185 L42 185 L45 185 L47 185 L49 184 L56 176 L63 165 L68 152 L72 141 L72 136 L72 133 L72 131 L72 129 M47 117 L47 112 L48 104 L53 94 L64 83 L90 70 L114 65 L127 67 L136 71 L145 81 L150 99 L151 113 L150 117 M169 109 L172 96 L188 72 L196 64 L207 62 L219 62 L232 64 L236 65 L238 72 L238 88 L233 119 L230 131 L230 133 L230 135 M272 145 L273 130 L278 114 L282 108 L288 104 L296 100 L304 97 L324 98 L340 101 L346 104 L348 105 L352 112 L356 127 L364 143 L370 148 L372 149 L372 151 " fill="none" stroke="black" /><path d="M1 120 L1 127 L1 140 L1 152 L0 160 L0 168 L0 170 L0 172 L1 174 L4 176 L6 178 L13 180 L21 183 L29 184 L36 185 L42 185 L45 185 L47 185 L49 184 L56 176 L63 165 L68 152 L72 141 L72 136 L72 133 L72 131 L72 129 M47 117 L47 112 L48 104 L53 94 L64 83 L90 70 L114 65 L127 67 L136 71 L145 81 L150 99 L151 113 L150 117 M169 109 L172 96 L188 72 L196 64 L207 62 L219 62 L232 64 L236 65 L238 72 L238 88 L233 119 L230 131 L230 133 L230 135 M272 145 L273 130 L278 114 L282 108 L288 104 L296 100 L304 97 L324 98 L340 101 L346 104 L348 105 L352 112 L356 127 L364 143 L370 148 L372 149 L372 151 M251 12 L257 9 L269 3 L281 0 L291 0 L303 6 L314 13 L320 22 L324 28 L324 37 L322 48 L318 58 L316 64 L315 67 L314 68 L314 70 " fill="none" stroke="black" /><path d="M1 120 L1 127 L1 140 L1 152 L0 160 L0 168 L0 170 L0 172 L1 174 L4 176 L6 178 L13 180 L21 183 L29 184 L36 185 L42 185 L45 185 L47 185 L49 184 L56 176 L63 165 L68 152 L72 141 L72 136 L72 133 L72 131 L72 129 M47 117 L47 112 L48 104 L53 94 L64 83 L90 70 L114 65 L127 67 L136 71 L145 81 L150 99 L151 113 L150 117 M169 109 L172 96 L188 72 L196 64 L207 62 L219 62 L232 64 L236 65 L238 72 L238 88 L233 119 L230 131 L230 133 L230 135 M272 145 L273 130 L278 114 L282 108 L288 104 L296 100 L304 97 L324 98 L340 101 L346 104 L348 105 L352 112 L356 127 L364 143 L370 148 L372 149 L372 151 M251 12 L257 9 L269 3 L281 0 L291 0 L303 6 L314 13 L320 22 L324 28 L324 37 L322 48 L318 58 L316 64 L315 67 L314 68 L314 70 M178 198 L203 196 L347 210 L412 223 L431 225 L432 225 L432 226 L427 228 L340 232 L228 239 L158 244 L134 244 L132 244 L133 242 L135 240 L139 237 L168 232 L261 239 L297 248 L312 253 L320 255 L323 255 L324 255 " fill="none" stroke="black" /></svg>