<?xml version="1.0" encoding="utf-8" ?>
<svg baseProfile="tiny" height="164" version="1.2" viewBox="-3 -3 180 164" width="180" xmlns="http://www.w3.org/2000/svg" xmlns:ev="http://www.w3.org/2001/xml-events" xmlns:xlink="http://www.w3.org/1999/xlink"><defs /><path d="M102 45 L96 46 L92 48 L88 50 L83 54 L79 57 L77 59 L75 61 L73 64 L71 65 L71 69 L67 78 L66 89 L64 97 L63 104 L63 108 L64 112 L65 117 L67 121 L69 124 L71 126 L75 129 L79 131 L83 133 L87 133 L92 134 L98 134 L105 134 L113 134 L120 134 L127 133 L132 131 L137 130 L141 129 L143 128 L146 127 L147 125 L147 123 L148 121 L150 118 L150 116 L151 113 L151 110 L151 108 L151 105 L151 101 L151 99 L151 97 L151 96 L151 94 " fill="none" stroke="black" /><path d="M102 45 L96 46 L92 48 L88 50 L83 54 L79 57 L77 59 L75 61 L73 64 L71 65 L71 69 L67 78 L66 89 L64 97 L63 104 L63 108 L64 112 L65 117 L67 121 L69 124 L71 126 L75 129 L79 131 L83 133 L87 133 L92 134 L98 134 L105 134 L113 134 L120 134 L127 133 L132 131 L137 130 L141 129 L143 128 L146 127 L147 125 L147 123 L148 121 L150 118 L150 116 L151 113 L151 110 L151 108 L151 105 L151 101 L151 99 L151 97 L151 96 L151 94 M180 87 L180 85 L178 74 L174 65 L171 57 L166 48 L163 41 L160 36 L155 29 L151 23 L145 17 L139 12 L132 7 L125 5 L115 2 L105 0 L97 0 L87 0 L76 0 L64 1 L55 4 L44 8 L39 10 L34 13 L28 17 L24 22 L19 29 L15 36 L8 50 L3 61 L2 69 L0 78 L0 82 L0 88 L2 96 L7 105 L10 113 L18 126 L23 134 L28 141 L35 146 L42 153 L48 156 L55 160 L63 162 L71 164 L83 164 L92 164 L99 164 L103 164 L111 163 L118 162 L122 161 L125 161 L128 160 L131 158 L133 157 L135 157 L138 156 L140 155 L143 153 L145 153 L147 152 L150 151 L152 149 L154 149 L155 148 L155 146 L157 145 L158 142 L159 141 L161 139 L163 136 L163 133 L166 132 L168 129 L169 127 L170 125 L171 123 L172 121 L173 118 L174 115 L175 112 L176 109 L177 105 L179 101 L179 100 L180 97 L180 95 L180 93 L180 92 L180 90 L180 89 L180 88 L180 87 L180 86 L180 85 L180 84 L180 83 L180 82 " fill="none" stroke="black" /></svg>