<?xml version="1.0" encoding="utf-8" ?>
<svg baseProfile="tiny" height="204" version="1.2" viewBox="-3 -3 165 204" width="165" xmlns="http://www.w3.org/2000/svg" xmlns:ev="http://www.w3.org/2001/xml-events" xmlns:xlink="http://www.w3.org/1999/xlink"><defs /><path d="M113 15 L119 6 L121 4 L123 2 L124 1 L125 0 L128 0 L132 0 L136 0 L141 0 L146 1 L152 2 L157 4 L160 7 L161 8 L163 10 L164 12 L164 14 L165 16 L165 21 L165 26 L165 36 L163 42 L161 48 L158 54 L155 62 L150 71 L144 78 L137 87 L131 95 L121 106 L116 115 L111 120 L104 128 L97 136 L92 142 L85 151 L82 153 L81 154 L78 157 L76 159 L74 161 L71 166 L69 168 L65 172 L62 176 L61 180 L58 182 L56 184 L54 186 L52 188 L49 190 L47 192 L45 193 L44 194 L42 196 L41 196 L40 198 L38 198 L36 200 L34 200 L33 202 L30 202 L29 204 L27 204 L25 204 L23 204 L21 204 L19 204 L17 202 L14 201 L11 198 L9 196 L6 194 L4 192 L2 189 L1 188 L0 185 L0 184 L0 181 L0 180 L0 177 L0 176 L1 175 L1 173 L2 173 L3 172 L4 171 L5 169 L8 167 L10 165 L13 164 L15 163 L17 163 L19 163 L20 163 L21 163 L23 163 L24 163 L25 163 L28 163 L29 164 L31 165 L33 166 L34 168 L35 171 L37 173 L37 175 L38 176 L38 178 L38 179 L38 180 L38 182 L37 183 L37 184 L36 186 L35 187 L34 188 L33 188 L32 188 L29 189 L28 189 L25 189 L24 189 L20 189 L17 188 L15 188 L13 186 L12 185 L11 183 L10 182 L10 180 L10 179 L10 177 L11 176 L12 175 L13 174 L14 174 L15 174 L16 173 L17 173 L18 173 L19 173 L20 173 L21 173 L21 174 L22 174 L22 175 L22 176 L23 176 " fill="none" stroke="black" /></svg>