<?xml version="1.0" encoding="utf-8" ?>
<svg baseProfile="tiny" height="280" version="1.2" viewBox="-3 -3 240 280" width="240" xmlns="http://www.w3.org/2000/svg" xmlns:ev="http://www.w3.org/2001/xml-events" xmlns:xlink="http://www.w3.org/1999/xlink"><defs /><path d="M93 42 L93 53 L89 92 L87 125 L82 174 L81 201 L81 205 L80 205 L80 206 L89 206 L147 210 L167 213 L173 213 L174 213 L176 213 L176 212 L176 209 L174 184 L169 117 L165 83 L164 68 L164 54 L164 48 L164 44 L164 41 L164 40 L164 38 L163 37 L162 37 L161 37 L160 38 L157 38 L151 41 L137 42 L123 44 L115 45 L111 45 L106 45 L102 45 L99 45 L97 45 L94 45 L93 45 L92 45 " fill="none" stroke="black" /><path d="M93 42 L93 53 L89 92 L87 125 L82 174 L81 201 L81 205 L80 205 L80 206 L89 206 L147 210 L167 213 L173 213 L174 213 L176 213 L176 212 L176 209 L174 184 L169 117 L165 83 L164 68 L164 54 L164 48 L164 44 L164 41 L164 40 L164 38 L163 37 L162 37 L161 37 L160 38 L157 38 L151 41 L137 42 L123 44 L115 45 L111 45 L106 45 L102 45 L99 45 L97 45 L94 45 L93 45 L92 45 M193 89 L207 89 L218 91 L221 92 L221 93 L201 106 L190 112 L189 112 L189 111 L209 109 L237 110 L240 112 L240 113 L236 116 L233 117 L231 118 L230 118 L235 118 L240 119 L240 123 L229 128 L221 130 L222 129 " fill="none" stroke="black" /><path d="M93 42 L93 53 L89 92 L87 125 L82 174 L81 201 L81 205 L80 205 L80 206 L89 206 L147 210 L167 213 L173 213 L174 213 L176 213 L176 212 L176 209 L174 184 L169 117 L165 83 L164 68 L164 54 L164 48 L164 44 L164 41 L164 40 L164 38 L163 37 L162 37 L161 37 L160 38 L157 38 L151 41 L137 42 L123 44 L115 45 L111 45 L106 45 L102 45 L99 45 L97 45 L94 45 L93 45 L92 45 M193 89 L207 89 L218 91 L221 92 L221 93 L201 106 L190 112 L189 112 L189 111 L209 109 L237 110 L240 112 L240 113 L236 116 L233 117 L231 118 L230 118 L235 118 L240 119 L240 123 L229 128 L221 130 L222 129 M166 254 L165 272 L163 278 L161 280 L157 278 L146 261 L140 246 L139 244 L139 246 L139 255 L138 260 L137 262 L136 263 L133 263 L127 259 L124 257 L122 256 L121 257 L120 264 L117 273 L117 276 L116 277 L114 278 L107 270 L103 263 L101 261 L101 260 L100 261 L98 264 L98 266 L98 268 L98 269 " fill="none" stroke="black" /><path d="M93 42 L93 53 L89 92 L87 125 L82 174 L81 201 L81 205 L80 205 L80 206 L89 206 L147 210 L167 213 L173 213 L174 213 L176 213 L176 212 L176 209 L174 184 L169 117 L165 83 L164 68 L164 54 L164 48 L164 44 L164 41 L164 40 L164 38 L163 37 L162 37 L161 37 L160 38 L157 38 L151 41 L137 42 L123 44 L115 45 L111 45 L106 45 L102 45 L99 45 L97 45 L94 45 L93 45 L92 45 M193 89 L207 89 L218 91 L221 92 L221 93 L201 106 L190 112 L189 112 L189 111 L209 109 L237 110 L240 112 L240 113 L236 116 L233 117 L231 118 L230 118 L235 118 L240 119 L240 123 L229 128 L221 130 L222 129 M166 254 L165 272 L163 278 L161 280 L157 278 L146 261 L140 246 L139 244 L139 246 L139 255 L138 260 L137 262 L136 263 L133 263 L127 259 L124 257 L122 256 L121 257 L120 264 L117 273 L117 276 L116 277 L114 278 L107 270 L103 263 L101 261 L101 260 L100 261 L98 264 L98 266 L98 268 L98 269 M57 167 L44 167 L9 161 L1 160 L0 158 L4 155 L28 153 L35 153 L37 153 L35 153 L30 153 L29 153 L34 147 L58 137 L64 136 L56 137 L35 134 L19 125 L15 121 L14 119 L14 117 L21 112 L25 110 L24 110 L18 110 L15 108 L14 105 L18 99 L37 93 L39 93 L38 93 L29 94 L24 93 L22 91 " fill="none" stroke="black" /><path d="M93 42 L93 53 L89 92 L87 125 L82 174 L81 201 L81 205 L80 205 L80 206 L89 206 L147 210 L167 213 L173 213 L174 213 L176 213 L176 212 L176 209 L174 184 L169 117 L165 83 L164 68 L164 54 L164 48 L164 44 L164 41 L164 40 L164 38 L163 37 L162 37 L161 37 L160 38 L157 38 L151 41 L137 42 L123 44 L115 45 L111 45 L106 45 L102 45 L99 45 L97 45 L94 45 L93 45 L92 45 M193 89 L207 89 L218 91 L221 92 L221 93 L201 106 L190 112 L189 112 L189 111 L209 109 L237 110 L240 112 L240 113 L236 116 L233 117 L231 118 L230 118 L235 118 L240 119 L240 123 L229 128 L221 130 L222 129 M166 254 L165 272 L163 278 L161 280 L157 278 L146 261 L140 246 L139 244 L139 246 L139 255 L138 260 L137 262 L136 263 L133 263 L127 259 L124 257 L122 256 L121 257 L120 264 L117 273 L117 276 L116 277 L114 278 L107 270 L103 263 L101 261 L101 260 L100 261 L98 264 L98 266 L98 268 L98 269 M57 167 L44 167 L9 161 L1 160 L0 158 L4 155 L28 153 L35 153 L37 153 L35 153 L30 153 L29 153 L34 147 L58 137 L64 136 L56 137 L35 134 L19 125 L15 121 L14 119 L14 117 L21 112 L25 110 L24 110 L18 110 L15 108 L14 105 L18 99 L37 93 L39 93 L38 93 L29 94 L24 93 L22 91 M109 19 L109 10 L109 5 L109 3 L109 2 L117 11 L123 19 L123 20 L125 21 L126 21 L130 16 L139 5 L141 1 L141 0 " fill="none" stroke="black" /></svg>