<?xml version="1.0" encoding="utf-8" ?>
<svg baseProfile="tiny" height="139" version="1.2" viewBox="-3 -3 76 139" width="76" xmlns="http://www.w3.org/2000/svg" xmlns:ev="http://www.w3.org/2001/xml-events" xmlns:xlink="http://www.w3.org/1999/xlink"><defs /><path d="M46 40 L45 61 L42 77 L41 95 L38 108 L36 113 L34 119 L34 124 L34 128 L34 133 L34 135 L33 137 L33 139 " fill="none" stroke="black" /><path d="M46 40 L45 61 L42 77 L41 95 L38 108 L36 113 L34 119 L34 124 L34 128 L34 133 L34 135 L33 137 L33 139 M75 100 L74 100 L72 100 L70 99 L69 97 L66 97 L64 96 L62 96 L61 96 L60 96 L58 96 L57 99 L56 100 L54 100 L52 102 L52 104 L52 106 L52 107 L52 108 L52 110 L52 112 L53 114 L54 115 L55 116 L56 117 L57 118 L58 118 L60 118 L61 118 L63 118 L65 118 L66 118 L67 118 L69 118 L70 117 L71 117 L72 116 L73 115 L74 113 L74 111 L75 110 L75 109 L75 108 L75 107 L75 105 L75 104 L75 103 L75 102 L75 101 L75 100 " fill="none" stroke="black" /><path d="M46 40 L45 61 L42 77 L41 95 L38 108 L36 113 L34 119 L34 124 L34 128 L34 133 L34 135 L33 137 L33 139 M75 100 L74 100 L72 100 L70 99 L69 97 L66 97 L64 96 L62 96 L61 96 L60 96 L58 96 L57 99 L56 100 L54 100 L52 102 L52 104 L52 106 L52 107 L52 108 L52 110 L52 112 L53 114 L54 115 L55 116 L56 117 L57 118 L58 118 L60 118 L61 118 L63 118 L65 118 L66 118 L67 118 L69 118 L70 117 L71 117 L72 116 L73 115 L74 113 L74 111 L75 110 L75 109 L75 108 L75 107 L75 105 L75 104 L75 103 L75 102 L75 101 L75 100 M23 64 L20 64 L16 63 L13 62 L10 61 L7 61 L5 61 L3 61 L2 62 L0 63 L0 64 L0 66 L0 68 L0 70 L0 72 L1 73 L2 74 L2 76 L4 76 L6 76 L7 77 L10 78 L12 78 L14 78 L15 78 L16 78 L18 78 L20 78 L21 78 L22 76 L22 75 L22 73 L22 72 L22 71 L22 70 L22 68 L22 67 L22 65 L22 64 " fill="none" stroke="black" /><path d="M46 40 L45 61 L42 77 L41 95 L38 108 L36 113 L34 119 L34 124 L34 128 L34 133 L34 135 L33 137 L33 139 M75 100 L74 100 L72 100 L70 99 L69 97 L66 97 L64 96 L62 96 L61 96 L60 96 L58 96 L57 99 L56 100 L54 100 L52 102 L52 104 L52 106 L52 107 L52 108 L52 110 L52 112 L53 114 L54 115 L55 116 L56 117 L57 118 L58 118 L60 118 L61 118 L63 118 L65 118 L66 118 L67 118 L69 118 L70 117 L71 117 L72 116 L73 115 L74 113 L74 111 L75 110 L75 109 L75 108 L75 107 L75 105 L75 104 L75 103 L75 102 L75 101 L75 100 M23 64 L20 64 L16 63 L13 62 L10 61 L7 61 L5 61 L3 61 L2 62 L0 63 L0 64 L0 66 L0 68 L0 70 L0 72 L1 73 L2 74 L2 76 L4 76 L6 76 L7 77 L10 78 L12 78 L14 78 L15 78 L16 78 L18 78 L20 78 L21 78 L22 76 L22 75 L22 73 L22 72 L22 71 L22 70 L22 68 L22 67 L22 65 L22 64 M76 0 L76 3 L76 8 L76 11 L76 14 L76 17 L76 20 L76 24 L76 26 L76 28 L76 31 L76 33 L76 34 L76 36 L76 38 L76 40 L76 41 L76 43 L76 44 L76 45 L76 46 L76 48 L76 49 L76 51 L76 52 L76 53 L76 54 L76 55 L76 56 L76 57 L76 58 L76 59 L76 60 L76 61 L76 63 L76 64 L76 65 L76 66 L76 67 L76 68 L76 69 L76 70 L76 71 L76 72 L76 73 L76 74 L76 75 L76 76 " fill="none" stroke="black" /></svg>