<?xml version="1.0" encoding="utf-8" ?>
<svg baseProfile="tiny" height="368" version="1.2" viewBox="-3 -3 460 368" width="460" xmlns="http://www.w3.org/2000/svg" xmlns:ev="http://www.w3.org/2001/xml-events" xmlns:xlink="http://www.w3.org/1999/xlink"><defs /><path d="M52 0 L59 0 L169 19 L236 38 L248 44 L248 45 L131 77 L34 101 L31 102 L35 101 L109 96 L139 98 L140 100 L107 123 L3 171 L0 172 L6 172 L125 160 L170 161 L173 163 L171 164 L139 172 L123 175 L124 175 " fill="none" stroke="black" /><path d="M52 0 L59 0 L169 19 L236 38 L248 44 L248 45 L131 77 L34 101 L31 102 L35 101 L109 96 L139 98 L140 100 L107 123 L3 171 L0 172 L6 172 L125 160 L170 161 L173 163 L171 164 L139 172 L123 175 L124 175 M288 22 L292 64 L296 141 L297 201 L298 232 L299 237 L299 224 L308 102 L320 51 L323 33 L323 32 L331 44 L373 160 L387 222 L391 243 L391 244 L388 233 L387 166 L387 133 L390 120 L391 114 L391 112 L392 112 L395 116 L431 192 L451 248 L460 271 L460 272 L456 232 L445 157 L439 111 L435 87 L435 80 L435 77 L435 76 " fill="none" stroke="black" /><path d="M52 0 L59 0 L169 19 L236 38 L248 44 L248 45 L131 77 L34 101 L31 102 L35 101 L109 96 L139 98 L140 100 L107 123 L3 171 L0 172 L6 172 L125 160 L170 161 L173 163 L171 164 L139 172 L123 175 L124 175 M288 22 L292 64 L296 141 L297 201 L298 232 L299 237 L299 224 L308 102 L320 51 L323 33 L323 32 L331 44 L373 160 L387 222 L391 243 L391 244 L388 233 L387 166 L387 133 L390 120 L391 114 L391 112 L392 112 L395 116 L431 192 L451 248 L460 271 L460 272 L456 232 L445 157 L439 111 L435 87 L435 80 L435 77 L435 76 M78 236 L78 239 L84 278 L92 332 L93 340 L93 339 L93 326 L104 286 L116 256 L119 253 L123 254 L155 281 L199 342 L212 361 L212 362 L212 360 L211 341 L213 299 L218 272 L218 268 L219 268 L231 281 L247 304 L253 316 L254 318 L255 318 L255 317 L256 309 L258 260 L258 248 L258 247 " fill="none" stroke="black" /><path d="M52 0 L59 0 L169 19 L236 38 L248 44 L248 45 L131 77 L34 101 L31 102 L35 101 L109 96 L139 98 L140 100 L107 123 L3 171 L0 172 L6 172 L125 160 L170 161 L173 163 L171 164 L139 172 L123 175 L124 175 M288 22 L292 64 L296 141 L297 201 L298 232 L299 237 L299 224 L308 102 L320 51 L323 33 L323 32 L331 44 L373 160 L387 222 L391 243 L391 244 L388 233 L387 166 L387 133 L390 120 L391 114 L391 112 L392 112 L395 116 L431 192 L451 248 L460 271 L460 272 L456 232 L445 157 L439 111 L435 87 L435 80 L435 77 L435 76 M78 236 L78 239 L84 278 L92 332 L93 340 L93 339 L93 326 L104 286 L116 256 L119 253 L123 254 L155 281 L199 342 L212 361 L212 362 L212 360 L211 341 L213 299 L218 272 L218 268 L219 268 L231 281 L247 304 L253 316 L254 318 L255 318 L255 317 L256 309 L258 260 L258 248 L258 247 M319 269 L378 277 L405 285 L414 288 L415 289 L415 291 L402 298 L380 304 L370 306 L353 309 L345 310 L343 310 L347 308 L377 304 L417 304 L430 306 L433 307 L421 314 L347 334 L323 338 L320 339 L319 339 L319 338 L340 338 L394 346 L432 355 L435 356 L436 356 L433 358 L399 366 L377 368 L373 368 L372 368 L373 367 L376 367 L380 367 L384 367 L388 367 L391 367 L397 367 L401 367 L403 367 L405 367 L406 367 L407 366 L409 364 L412 364 L414 364 L415 364 L416 364 " fill="none" stroke="black" /></svg>