<?xml version="1.0" encoding="utf-8" ?>
<svg baseProfile="tiny" height="244" version="1.2" viewBox="-3 -3 416 244" width="416" xmlns="http://www.w3.org/2000/svg" xmlns:ev="http://www.w3.org/2001/xml-events" xmlns:xlink="http://www.w3.org/1999/xlink"><defs /><path d="M47 233 L53 218 L68 197 L81 186 L92 178 L107 170 L125 162 L138 157 L151 153 L163 152 L174 148 L194 146 L206 144 L213 144 L221 144 L230 144 L237 144 L246 145 L254 148 L262 151 L272 154 L279 159 L287 164 L295 168 L302 172 L308 176 L314 180 L319 187 L328 200 L338 219 L342 228 L344 237 L346 241 L346 244 " fill="none" stroke="black" /><path d="M47 233 L53 218 L68 197 L81 186 L92 178 L107 170 L125 162 L138 157 L151 153 L163 152 L174 148 L194 146 L206 144 L213 144 L221 144 L230 144 L237 144 L246 145 L254 148 L262 151 L272 154 L279 159 L287 164 L295 168 L302 172 L308 176 L314 180 L319 187 L328 200 L338 219 L342 228 L344 237 L346 241 L346 244 M325 167 L325 165 L342 140 L379 95 L403 73 L414 65 L416 64 L415 64 L404 65 L351 73 L312 87 L299 92 L292 96 L290 96 L288 98 L286 98 L285 98 L284 94 L272 59 L260 20 L254 5 L253 1 L251 0 L250 0 L249 0 L248 0 L248 1 L247 2 L244 9 L230 34 L223 54 L218 64 L216 68 L215 70 L214 71 L213 72 L212 74 L211 75 L210 75 L198 68 L157 32 L142 19 L134 12 L130 9 L127 8 L127 7 L126 5 L126 15 L130 58 L132 80 L133 87 L133 88 L133 89 L133 91 L132 91 L122 87 L99 76 L82 72 L78 72 L75 72 L75 70 L75 68 L78 75 L87 102 L91 121 L93 127 L93 128 L93 129 L93 130 L93 132 L92 132 L89 132 L79 131 L50 124 L28 122 L16 122 L7 122 L3 122 L2 122 L0 120 L1 120 L3 120 L6 121 L14 128 L22 136 L27 142 L32 146 L34 148 L36 149 L38 151 L39 152 L40 152 L42 153 L42 154 L42 155 L43 155 L44 156 L46 156 L46 157 L46 158 L47 158 " fill="none" stroke="black" /></svg>