<?xml version="1.0" encoding="utf-8" ?>
<svg baseProfile="tiny" height="367" version="1.2" viewBox="-3 -3 370 367" width="370" xmlns="http://www.w3.org/2000/svg" xmlns:ev="http://www.w3.org/2001/xml-events" xmlns:xlink="http://www.w3.org/1999/xlink"><defs /><path d="M95 230 L96 225 L97 221 L99 217 L100 212 L100 208 L101 203 L103 198 L104 194 L106 192 L107 189 L108 186 L109 184 L110 182 L111 180 L112 178 L112 177 L113 179 L120 201 L140 294 L151 353 L154 366 L154 367 " fill="none" stroke="black" /><path d="M95 230 L96 225 L97 221 L99 217 L100 212 L100 208 L101 203 L103 198 L104 194 L106 192 L107 189 L108 186 L109 184 L110 182 L111 180 L112 178 L112 177 L113 179 L120 201 L140 294 L151 353 L154 366 L154 367 M110 156 L160 116 L300 29 L355 4 L368 0 L370 0 L369 1 " fill="none" stroke="black" /><path d="M95 230 L96 225 L97 221 L99 217 L100 212 L100 208 L101 203 L103 198 L104 194 L106 192 L107 189 L108 186 L109 184 L110 182 L111 180 L112 178 L112 177 L113 179 L120 201 L140 294 L151 353 L154 366 L154 367 M110 156 L160 116 L300 29 L355 4 L368 0 L370 0 L369 1 M120 153 L143 154 L213 174 L236 185 L239 186 " fill="none" stroke="black" /><path d="M95 230 L96 225 L97 221 L99 217 L100 212 L100 208 L101 203 L103 198 L104 194 L106 192 L107 189 L108 186 L109 184 L110 182 L111 180 L112 178 L112 177 L113 179 L120 201 L140 294 L151 353 L154 366 L154 367 M110 156 L160 116 L300 29 L355 4 L368 0 L370 0 L369 1 M120 153 L143 154 L213 174 L236 185 L239 186 M106 130 L83 109 L40 76 L18 63 L2 57 L0 57 " fill="none" stroke="black" /><path d="M95 230 L96 225 L97 221 L99 217 L100 212 L100 208 L101 203 L103 198 L104 194 L106 192 L107 189 L108 186 L109 184 L110 182 L111 180 L112 178 L112 177 L113 179 L120 201 L140 294 L151 353 L154 366 L154 367 M110 156 L160 116 L300 29 L355 4 L368 0 L370 0 L369 1 M120 153 L143 154 L213 174 L236 185 L239 186 M106 130 L83 109 L40 76 L18 63 L2 57 L0 57 M107 143 L102 145 L63 158 L42 165 L38 166 L36 166 " fill="none" stroke="black" /><path d="M95 230 L96 225 L97 221 L99 217 L100 212 L100 208 L101 203 L103 198 L104 194 L106 192 L107 189 L108 186 L109 184 L110 182 L111 180 L112 178 L112 177 L113 179 L120 201 L140 294 L151 353 L154 366 L154 367 M110 156 L160 116 L300 29 L355 4 L368 0 L370 0 L369 1 M120 153 L143 154 L213 174 L236 185 L239 186 M106 130 L83 109 L40 76 L18 63 L2 57 L0 57 M107 143 L102 145 L63 158 L42 165 L38 166 L36 166 M75 226 L71 225 L68 224 L76 213 L93 194 L94 191 L77 192 L56 193 L53 193 L54 191 L62 183 L66 180 L56 181 L52 181 L52 180 L52 176 L52 174 L52 172 L52 169 L56 159 L59 155 L59 153 L48 149 L36 144 L32 139 L36 130 L58 116 L62 113 L61 113 L53 113 L50 111 L50 108 L53 103 L55 100 L56 99 L55 97 L53 93 L54 87 L57 83 L63 80 L68 80 L71 80 L72 79 L73 77 L76 69 L77 65 L90 64 L97 64 L100 64 L103 60 L109 45 L114 41 L121 41 L132 49 L137 57 L137 59 L137 61 L139 61 L157 63 L187 85 L202 117 L202 123 L199 125 L198 126 L197 126 L198 126 L201 129 L202 135 L198 145 L196 147 L195 149 L197 150 L206 158 L208 168 L200 181 L196 185 L195 185 L194 186 L193 187 L190 189 L176 197 L167 201 L164 201 L163 201 L162 201 L161 201 L160 201 L158 201 L152 201 L147 198 L145 197 L144 197 L143 202 L140 209 L128 211 L106 201 L97 195 L96 194 L92 197 L84 201 L78 201 L77 201 " fill="none" stroke="black" /></svg>