<?xml version="1.0" encoding="utf-8" ?>
<svg baseProfile="tiny" height="351" version="1.2" viewBox="-3 -3 455 351" width="455" xmlns="http://www.w3.org/2000/svg" xmlns:ev="http://www.w3.org/2001/xml-events" xmlns:xlink="http://www.w3.org/1999/xlink"><defs /><path d="M0 247 L0 255 L9 268 L59 289 L95 302 L114 296 L128 289 L148 259 L161 226 L169 210 L174 202 L182 194 L193 188 L205 185 L215 184 L225 187 L234 197 L241 209 L245 234 L245 258 L245 270 L245 274 L245 278 L247 286 L253 306 L261 324 L269 338 L282 348 L296 351 L317 337 L324 336 L330 331 L336 323 L339 315 L342 306 L344 297 L345 286 L343 271 L338 251 L336 237 L332 223 L328 214 L321 202 L313 189 L301 174 L289 160 L281 153 L274 147 L265 141 L258 136 L250 132 L244 127 L240 125 L237 123 L233 120 L229 117 L227 112 L226 110 L226 106 L226 103 L229 98 L234 90 L241 84 L248 78 L257 74 L266 70 L274 70 L281 70 L286 70 L290 71 L293 72 L297 74 L300 76 L303 81 L306 86 L313 96 L316 104 L319 112 L320 118 L320 122 L321 123 L323 127 L324 130 L325 133 L328 137 L329 138 L332 140 L337 142 L343 144 L351 146 L355 147 L361 147 L365 146 L369 145 L374 144 L378 142 L383 139 L388 136 L395 130 L398 124 L402 119 L405 114 L407 109 L408 102 L409 95 L409 89 L409 81 L408 73 L405 62 L403 50 L400 40 L397 32 L394 25 L393 22 L392 19 L392 18 L392 16 L391 15 L391 14 L391 13 L391 11 L392 10 L393 10 L394 9 L395 8 L397 6 L399 6 L401 4 L404 3 L405 2 L409 1 L412 0 L413 0 L416 0 L417 0 L420 0 L422 0 L426 0 L429 1 L433 2 L437 4 L440 6 L443 7 L445 10 L447 12 L449 15 L451 18 L453 21 L453 22 L455 23 " fill="none" stroke="black" /></svg>