<?xml version="1.0" encoding="utf-8" ?>
<svg baseProfile="tiny" height="34" version="1.2" viewBox="-3 -3 134 34" width="134" xmlns="http://www.w3.org/2000/svg" xmlns:ev="http://www.w3.org/2001/xml-events" xmlns:xlink="http://www.w3.org/1999/xlink"><defs /><path d="M0 7 L0 8 L0 9 L0 10 L3 11 L5 12 L6 12 L8 12 L12 10 L17 5 L19 2 L20 1 L19 0 L15 0 L13 0 L12 0 L12 2 L12 7 L12 13 L13 16 L14 19 L17 20 L19 20 L21 20 L22 19 L22 16 L22 13 L21 12 L19 12 L18 12 L17 12 L17 13 L17 18 L17 21 L18 23 L20 25 L24 25 L26 25 L28 25 L29 23 L30 21 L30 19 L30 18 L29 18 L29 20 L29 22 L31 25 L39 27 L46 28 L53 28 L59 28 L62 26 L64 24 L65 23 L65 22 L64 22 L63 23 L62 24 L61 25 L61 27 L61 29 L62 31 L66 32 L72 33 L77 32 L80 30 L82 28 L83 25 L83 24 L83 23 L83 24 L84 26 L87 30 L89 32 L91 33 L95 34 L99 34 L104 31 L110 27 L113 24 L114 23 L115 22 L115 21 L115 23 L115 25 L115 26 L118 29 L123 32 L127 34 L130 34 L132 33 L133 32 L134 30 L134 29 L134 28 " fill="none" stroke="black" /></svg>