<?xml version="1.0" encoding="utf-8" ?>
<svg baseProfile="tiny" height="366" version="1.2" viewBox="-3 -3 64 366" width="64" xmlns="http://www.w3.org/2000/svg" xmlns:ev="http://www.w3.org/2001/xml-events" xmlns:xlink="http://www.w3.org/1999/xlink"><defs /><path d="M24 9 L24 6 L24 2 L24 0 L25 0 L29 0 L32 0 L33 4 L32 8 L26 11 L24 11 L22 11 L22 8 L22 6 L27 5 L32 6 L34 14 L34 21 L32 24 L31 24 L32 23 L35 25 L36 35 L31 45 L24 49 L20 50 L20 49 L23 46 L29 45 L34 47 L37 55 L36 64 L33 67 L32 68 L31 67 L33 63 L38 59 L42 59 L45 75 L45 89 L41 97 L38 99 L36 99 L36 96 L40 92 L44 92 L47 109 L47 124 L42 135 L37 139 L34 140 L33 135 L38 130 L41 129 L43 133 L43 145 L33 154 L20 158 L17 158 L18 149 L35 137 L53 135 L64 144 L64 164 L51 179 L41 185 L33 187 L31 186 L31 180 L36 172 L44 170 L50 175 L53 190 L49 211 L35 228 L25 234 L19 234 L16 232 L16 225 L19 219 L27 216 L36 221 L38 238 L35 257 L26 268 L16 274 L7 274 L1 267 L0 259 L11 250 L24 245 L36 244 L46 260 L52 285 L54 312 L52 326 L47 330 L41 331 L38 330 L36 325 L35 319 L37 314 L44 311 L52 311 L58 320 L60 331 L60 353 L53 363 L46 366 " fill="none" stroke="black" /></svg>