<?xml version="1.0" encoding="utf-8" ?>
<svg baseProfile="tiny" height="369" version="1.2" viewBox="-3 -3 512 369" width="512" xmlns="http://www.w3.org/2000/svg" xmlns:ev="http://www.w3.org/2001/xml-events" xmlns:xlink="http://www.w3.org/1999/xlink"><defs /><path d="M9 186 L12 186 L22 186 L30 195 L33 210 L33 228 L30 241 L27 251 L19 266 L12 277 L10 282 L17 280 L22 279 L23 279 L24 282 L22 288 L14 298 L5 305 L1 308 L0 315 L0 322 L7 326 L15 328 L25 330 L39 335 L50 341 L53 345 L55 347 L55 349 " fill="none" stroke="black" /><path d="M9 186 L12 186 L22 186 L30 195 L33 210 L33 228 L30 241 L27 251 L19 266 L12 277 L10 282 L17 280 L22 279 L23 279 L24 282 L22 288 L14 298 L5 305 L1 308 L0 315 L0 322 L7 326 L15 328 L25 330 L39 335 L50 341 L53 345 L55 347 L55 349 M75 44 L76 36 L81 32 L90 30 L98 48 L99 67 L87 74 L69 74 L59 64 L58 55 L65 52 L95 59 L120 79 L134 97 L138 106 L138 109 L136 106 L135 99 L136 91 L147 89 L171 103 L185 132 L188 156 L181 161 L155 160 L127 147 L114 131 L112 119 L121 109 L150 107 L177 121 L186 141 L187 152 L178 155 L147 144 L133 129 L130 119 L131 113 L150 113 L175 130 L196 158 L199 169 L199 171 L199 170 L202 170 L204 181 L200 195 L190 209 L183 222 L178 235 L178 244 L188 248 L205 248 L214 248 L221 255 L223 273 L223 298 L221 322 L219 345 L219 355 L221 361 L226 366 L232 366 L236 365 L239 363 L240 363 " fill="none" stroke="black" /><path d="M9 186 L12 186 L22 186 L30 195 L33 210 L33 228 L30 241 L27 251 L19 266 L12 277 L10 282 L17 280 L22 279 L23 279 L24 282 L22 288 L14 298 L5 305 L1 308 L0 315 L0 322 L7 326 L15 328 L25 330 L39 335 L50 341 L53 345 L55 347 L55 349 M75 44 L76 36 L81 32 L90 30 L98 48 L99 67 L87 74 L69 74 L59 64 L58 55 L65 52 L95 59 L120 79 L134 97 L138 106 L138 109 L136 106 L135 99 L136 91 L147 89 L171 103 L185 132 L188 156 L181 161 L155 160 L127 147 L114 131 L112 119 L121 109 L150 107 L177 121 L186 141 L187 152 L178 155 L147 144 L133 129 L130 119 L131 113 L150 113 L175 130 L196 158 L199 169 L199 171 L199 170 L202 170 L204 181 L200 195 L190 209 L183 222 L178 235 L178 244 L188 248 L205 248 L214 248 L221 255 L223 273 L223 298 L221 322 L219 345 L219 355 L221 361 L226 366 L232 366 L236 365 L239 363 L240 363 M300 35 L300 31 L301 19 L306 5 L322 0 L352 17 L377 73 L374 104 L353 111 L330 110 L310 100 L299 84 L298 69 L302 59 L331 59 L375 83 L404 115 L409 134 L406 143 L390 144 L366 131 L358 113 L358 100 L364 91 L382 88 L408 107 L413 134 L409 151 L398 155 L385 145 L379 134 L379 128 L397 127 L430 147 L452 177 L460 199 L461 211 L460 217 L452 226 L446 230 L445 231 L447 228 L456 229 L467 258 L469 283 L469 305 L469 312 L470 315 L480 319 L495 321 L507 326 L511 334 L512 348 L510 361 L510 369 " fill="none" stroke="black" /></svg>