<?xml version="1.0" encoding="utf-8" ?>
<svg baseProfile="tiny" height="124" version="1.2" viewBox="-3 -3 617 124" width="617" xmlns="http://www.w3.org/2000/svg" xmlns:ev="http://www.w3.org/2001/xml-events" xmlns:xlink="http://www.w3.org/1999/xlink"><defs /><path d="M0 0 L13 0 L44 0 L85 0 L128 0 L184 10 L224 21 L258 27 L278 28 L281 25 L292 25 L347 19 L417 13 L491 13 L538 19 L550 24 L557 26 L558 26 " fill="none" stroke="black" /><path d="M0 0 L13 0 L44 0 L85 0 L128 0 L184 10 L224 21 L258 27 L278 28 L281 25 L292 25 L347 19 L417 13 L491 13 L538 19 L550 24 L557 26 L558 26 M42 94 L44 94 L56 94 L135 94 L240 94 L332 94 L383 103 L428 113 L451 119 L454 120 L461 120 L499 120 L555 120 L602 121 L617 124 " fill="none" stroke="black" /></svg>