<?xml version="1.0" encoding="utf-8" ?>
<svg baseProfile="tiny" height="227" version="1.2" viewBox="-3 -3 207 227" width="207" xmlns="http://www.w3.org/2000/svg" xmlns:ev="http://www.w3.org/2001/xml-events" xmlns:xlink="http://www.w3.org/1999/xlink"><defs /><path d="M1 11 L1 16 L1 22 L0 24 L1 24 L4 22 L9 20 L13 20 L15 22 L16 27 L16 32 L16 34 L16 35 L22 37 L25 40 L26 44 L26 47 L27 49 L28 50 L33 51 L39 52 L41 52 L42 59 L42 73 L42 83 L42 88 L44 92 L46 96 " fill="none" stroke="black" /><path d="M1 11 L1 16 L1 22 L0 24 L1 24 L4 22 L9 20 L13 20 L15 22 L16 27 L16 32 L16 34 L16 35 L22 37 L25 40 L26 44 L26 47 L27 49 L28 50 L33 51 L39 52 L41 52 L42 59 L42 73 L42 83 L42 88 L44 92 L46 96 M56 0 L57 2 L63 9 L69 13 L74 13 L75 14 L75 24 L75 35 L75 42 L83 45 L106 47 L115 56 L121 78 L126 97 L130 108 L132 111 " fill="none" stroke="black" /><path d="M1 11 L1 16 L1 22 L0 24 L1 24 L4 22 L9 20 L13 20 L15 22 L16 27 L16 32 L16 34 L16 35 L22 37 L25 40 L26 44 L26 47 L27 49 L28 50 L33 51 L39 52 L41 52 L42 59 L42 73 L42 83 L42 88 L44 92 L46 96 M56 0 L57 2 L63 9 L69 13 L74 13 L75 14 L75 24 L75 35 L75 42 L83 45 L106 47 L115 56 L121 78 L126 97 L130 108 L132 111 M133 114 L133 120 L133 134 L133 140 L133 141 L134 141 L136 140 L139 140 L144 148 L146 162 L146 173 L147 176 L154 177 L162 178 L167 188 L168 200 L169 212 L171 216 L178 217 L193 217 L207 227 " fill="none" stroke="black" /></svg>