<?xml version="1.0" encoding="utf-8" ?>
<svg baseProfile="tiny" height="52" version="1.2" viewBox="-3 -3 194 52" width="194" xmlns="http://www.w3.org/2000/svg" xmlns:ev="http://www.w3.org/2001/xml-events" xmlns:xlink="http://www.w3.org/1999/xlink"><defs /><path d="M6 6 L9 4 L14 2 L18 1 L20 1 L21 4 L22 8 L22 9 L24 9 L31 5 L40 0 L46 0 L48 0 L49 4 L49 6 L49 7 L51 7 L54 7 L56 7 L58 7 L59 7 L60 9 L63 9 L68 9 L75 4 L78 2 L79 3 L81 7 L81 8 L82 9 L83 9 L86 8 L89 8 L91 8 L92 10 L93 11 L95 12 L100 11 L103 9 L105 9 L106 12 L108 15 L109 16 L111 16 L114 16 L116 16 L117 19 L119 21 L120 21 L123 18 L126 16 L127 16 L127 17 L128 17 L129 17 L131 17 L134 16 L135 17 L135 19 L136 20 L137 21 L139 21 L141 20 L142 19 L143 19 L144 19 L146 19 L148 19 L151 18 L160 14 L169 12 L173 12 L174 12 L175 13 L177 13 L179 13 L184 13 L189 13 L192 13 L194 12 " fill="none" stroke="black" /><path d="M6 6 L9 4 L14 2 L18 1 L20 1 L21 4 L22 8 L22 9 L24 9 L31 5 L40 0 L46 0 L48 0 L49 4 L49 6 L49 7 L51 7 L54 7 L56 7 L58 7 L59 7 L60 9 L63 9 L68 9 L75 4 L78 2 L79 3 L81 7 L81 8 L82 9 L83 9 L86 8 L89 8 L91 8 L92 10 L93 11 L95 12 L100 11 L103 9 L105 9 L106 12 L108 15 L109 16 L111 16 L114 16 L116 16 L117 19 L119 21 L120 21 L123 18 L126 16 L127 16 L127 17 L128 17 L129 17 L131 17 L134 16 L135 17 L135 19 L136 20 L137 21 L139 21 L141 20 L142 19 L143 19 L144 19 L146 19 L148 19 L151 18 L160 14 L169 12 L173 12 L174 12 L175 13 L177 13 L179 13 L184 13 L189 13 L192 13 L194 12 M0 27 L4 27 L10 27 L14 27 L15 27 L15 28 L15 29 L16 31 L17 31 L19 30 L20 30 L21 33 L22 35 L23 35 L28 34 L29 33 L31 33 L32 36 L33 38 L33 39 L37 37 L38 37 L39 37 L41 40 L43 44 L44 45 L51 45 L56 43 L59 43 L60 44 L62 48 L64 49 L68 49 L72 49 L73 49 L74 49 L76 50 L79 51 L85 52 L91 50 L95 48 L96 47 L98 47 L99 48 L101 48 L107 48 L116 41 L123 37 L127 37 L132 42 L136 48 L142 50 L148 47 L155 42 L160 40 L166 39 L172 39 L179 38 L182 38 L184 38 L185 38 L186 36 " fill="none" stroke="black" /></svg>