<?xml version="1.0" encoding="utf-8" ?>
<svg baseProfile="tiny" height="380" version="1.2" viewBox="-3 -3 435 380" width="435" xmlns="http://www.w3.org/2000/svg" xmlns:ev="http://www.w3.org/2001/xml-events" xmlns:xlink="http://www.w3.org/1999/xlink"><defs /><path d="M50 176 L51 176 L52 175 L53 175 L54 174 L55 173 L56 172 L58 172 L61 171 L66 165 L74 152 L82 128 L86 109 L87 99 L88 98 L112 95 L143 86 L156 78 L159 72 L159 67 L160 65 L161 65 " fill="none" stroke="black" /><circle cx="174" cy="131" fill="black" r="1" /><path d="M50 176 L51 176 L52 175 L53 175 L54 174 L55 173 L56 172 L58 172 L61 171 L66 165 L74 152 L82 128 L86 109 L87 99 L88 98 L112 95 L143 86 L156 78 L159 72 L159 67 L160 65 L161 65 M137 185 L137 184 L137 176 L139 158 L142 112 L150 75 L156 63 L168 61 L191 60 L215 59 L231 54 L245 43 L254 29 L257 22 L259 20 L263 19 L275 16 L292 11 L304 6 L306 2 L307 0 " fill="none" stroke="black" /><path d="M50 176 L51 176 L52 175 L53 175 L54 174 L55 173 L56 172 L58 172 L61 171 L66 165 L74 152 L82 128 L86 109 L87 99 L88 98 L112 95 L143 86 L156 78 L159 72 L159 67 L160 65 L161 65 M137 185 L137 184 L137 176 L139 158 L142 112 L150 75 L156 63 L168 61 L191 60 L215 59 L231 54 L245 43 L254 29 L257 22 L259 20 L263 19 L275 16 L292 11 L304 6 L306 2 L307 0 M200 220 L200 219 L207 213 L223 205 L247 187 L264 166 L269 146 L269 133 L269 126 L272 122 L284 114 L297 105 L305 95 L311 82 L314 75 L320 73 L329 73 L342 71 L354 60 L361 43 L362 35 " fill="none" stroke="black" /><path d="M50 176 L51 176 L52 175 L53 175 L54 174 L55 173 L56 172 L58 172 L61 171 L66 165 L74 152 L82 128 L86 109 L87 99 L88 98 L112 95 L143 86 L156 78 L159 72 L159 67 L160 65 L161 65 M137 185 L137 184 L137 176 L139 158 L142 112 L150 75 L156 63 L168 61 L191 60 L215 59 L231 54 L245 43 L254 29 L257 22 L259 20 L263 19 L275 16 L292 11 L304 6 L306 2 L307 0 M200 220 L200 219 L207 213 L223 205 L247 187 L264 166 L269 146 L269 133 L269 126 L272 122 L284 114 L297 105 L305 95 L311 82 L314 75 L320 73 L329 73 L342 71 L354 60 L361 43 L362 35 M277 248 L277 246 L279 242 L287 228 L306 201 L313 187 L318 175 L320 168 L327 162 L343 155 L356 150 L363 144 L367 135 L369 126 L369 124 L375 124 L398 121 L419 116 L431 110 L435 96 L435 81 L432 78 " fill="none" stroke="black" /><path d="M50 176 L51 176 L52 175 L53 175 L54 174 L55 173 L56 172 L58 172 L61 171 L66 165 L74 152 L82 128 L86 109 L87 99 L88 98 L112 95 L143 86 L156 78 L159 72 L159 67 L160 65 L161 65 M137 185 L137 184 L137 176 L139 158 L142 112 L150 75 L156 63 L168 61 L191 60 L215 59 L231 54 L245 43 L254 29 L257 22 L259 20 L263 19 L275 16 L292 11 L304 6 L306 2 L307 0 M200 220 L200 219 L207 213 L223 205 L247 187 L264 166 L269 146 L269 133 L269 126 L272 122 L284 114 L297 105 L305 95 L311 82 L314 75 L320 73 L329 73 L342 71 L354 60 L361 43 L362 35 M277 248 L277 246 L279 242 L287 228 L306 201 L313 187 L318 175 L320 168 L327 162 L343 155 L356 150 L363 144 L367 135 L369 126 L369 124 L375 124 L398 121 L419 116 L431 110 L435 96 L435 81 L432 78 M72 268 L71 268 L61 268 L52 270 L44 271 L39 272 L33 274 L27 280 L20 291 L14 304 L6 315 L2 326 L0 340 L1 353 L16 368 L35 376 L63 380 L88 380 L109 374 L130 363 L155 346 L173 330 L183 319 L186 312 L186 301 L176 287 L159 271 L143 263 L130 257 L120 253 L115 252 L111 252 L107 252 L103 253 " fill="none" stroke="black" /><path d="M50 176 L51 176 L52 175 L53 175 L54 174 L55 173 L56 172 L58 172 L61 171 L66 165 L74 152 L82 128 L86 109 L87 99 L88 98 L112 95 L143 86 L156 78 L159 72 L159 67 L160 65 L161 65 M137 185 L137 184 L137 176 L139 158 L142 112 L150 75 L156 63 L168 61 L191 60 L215 59 L231 54 L245 43 L254 29 L257 22 L259 20 L263 19 L275 16 L292 11 L304 6 L306 2 L307 0 M200 220 L200 219 L207 213 L223 205 L247 187 L264 166 L269 146 L269 133 L269 126 L272 122 L284 114 L297 105 L305 95 L311 82 L314 75 L320 73 L329 73 L342 71 L354 60 L361 43 L362 35 M277 248 L277 246 L279 242 L287 228 L306 201 L313 187 L318 175 L320 168 L327 162 L343 155 L356 150 L363 144 L367 135 L369 126 L369 124 L375 124 L398 121 L419 116 L431 110 L435 96 L435 81 L432 78 M72 268 L71 268 L61 268 L52 270 L44 271 L39 272 L33 274 L27 280 L20 291 L14 304 L6 315 L2 326 L0 340 L1 353 L16 368 L35 376 L63 380 L88 380 L109 374 L130 363 L155 346 L173 330 L183 319 L186 312 L186 301 L176 287 L159 271 L143 263 L130 257 L120 253 L115 252 L111 252 L107 252 L103 253 M76 256 L77 252 L83 243 L91 230 L97 215 L103 206 L107 203 L116 202 L136 197 L145 192 L154 181 L161 167 L166 157 L168 155 " fill="none" stroke="black" /><path d="M50 176 L51 176 L52 175 L53 175 L54 174 L55 173 L56 172 L58 172 L61 171 L66 165 L74 152 L82 128 L86 109 L87 99 L88 98 L112 95 L143 86 L156 78 L159 72 L159 67 L160 65 L161 65 M137 185 L137 184 L137 176 L139 158 L142 112 L150 75 L156 63 L168 61 L191 60 L215 59 L231 54 L245 43 L254 29 L257 22 L259 20 L263 19 L275 16 L292 11 L304 6 L306 2 L307 0 M200 220 L200 219 L207 213 L223 205 L247 187 L264 166 L269 146 L269 133 L269 126 L272 122 L284 114 L297 105 L305 95 L311 82 L314 75 L320 73 L329 73 L342 71 L354 60 L361 43 L362 35 M277 248 L277 246 L279 242 L287 228 L306 201 L313 187 L318 175 L320 168 L327 162 L343 155 L356 150 L363 144 L367 135 L369 126 L369 124 L375 124 L398 121 L419 116 L431 110 L435 96 L435 81 L432 78 M72 268 L71 268 L61 268 L52 270 L44 271 L39 272 L33 274 L27 280 L20 291 L14 304 L6 315 L2 326 L0 340 L1 353 L16 368 L35 376 L63 380 L88 380 L109 374 L130 363 L155 346 L173 330 L183 319 L186 312 L186 301 L176 287 L159 271 L143 263 L130 257 L120 253 L115 252 L111 252 L107 252 L103 253 M76 256 L77 252 L83 243 L91 230 L97 215 L103 206 L107 203 L116 202 L136 197 L145 192 L154 181 L161 167 L166 157 L168 155 M161 300 L164 298 L172 294 L183 293 L197 293 L209 293 L220 295 L229 297 L234 298 L240 293 L246 286 L250 281 L252 279 L253 278 " fill="none" stroke="black" /></svg>