<?xml version="1.0" encoding="utf-8" ?>
<svg baseProfile="tiny" height="131" version="1.2" viewBox="-3 -3 414 131" width="414" xmlns="http://www.w3.org/2000/svg" xmlns:ev="http://www.w3.org/2001/xml-events" xmlns:xlink="http://www.w3.org/1999/xlink"><defs /><path d="M0 112 L0 111 L0 106 L2 100 L5 94 L6 89 L7 85 L8 81 L9 77 L11 74 L12 70 L14 67 L16 65 L18 63 L19 61 L20 59 L21 58 L23 56 L24 55 L26 53 L27 52 L29 50 L31 49 L32 48 L33 48 L34 47 L35 47 L37 46 L38 45 L41 44 L43 44 L47 44 L50 44 L52 44 L54 45 L56 46 L57 47 L59 49 L61 52 L64 56 L66 59 L68 62 L70 66 L72 69 L73 71 L75 75 L77 78 L77 80 L79 83 L79 85 L80 87 L81 89 L81 90 L81 91 L83 93 L84 95 L84 97 L85 99 L86 101 L87 102 L88 103 L93 103 L100 105 L103 107 L105 108 L107 110 L109 112 L112 115 L115 117 L119 119 L127 122 L137 124 L147 126 L156 128 L165 130 L169 131 L173 131 L174 131 L187 125 L200 118 L210 114 L215 111 L219 107 L221 103 L223 97 L225 91 L228 84 L230 76 L233 71 L234 67 L238 61 L241 56 L244 53 L246 51 L249 49 L267 38 L288 26 L300 18 L305 15 L308 14 L309 13 L311 11 L313 9 L318 6 L322 3 L325 2 L327 1 L331 0 L335 0 L341 0 L344 1 L348 4 L352 7 L355 11 L359 15 L363 21 L365 24 L366 27 L368 29 L369 31 L370 34 L372 37 L373 40 L374 44 L376 48 L377 51 L378 54 L380 58 L381 62 L383 65 L385 68 L386 70 L387 71 L388 72 L391 74 L394 76 L398 78 L403 80 L410 81 L414 81 " fill="none" stroke="black" /></svg>