<?xml version="1.0" encoding="utf-8" ?>
<svg baseProfile="tiny" height="178" version="1.2" viewBox="-3 -3 68 178" width="68" xmlns="http://www.w3.org/2000/svg" xmlns:ev="http://www.w3.org/2001/xml-events" xmlns:xlink="http://www.w3.org/1999/xlink"><defs /><path d="M0 18 L0 21 L2 29 L4 36 L5 41 L6 45 L8 50 L10 56 L11 60 L12 61 L13 63 L13 65 L14 66 L14 67 L15 68 L15 70 L15 72 L17 76 L17 79 L18 82 L19 85 L20 88 L21 91 L22 96 L23 101 L25 107 L27 114 L29 121 L32 129 L35 137 L36 141 L38 147 L40 155 L40 164 L42 172 L43 178 " fill="none" stroke="black" /><path d="M0 18 L0 21 L2 29 L4 36 L5 41 L6 45 L8 50 L10 56 L11 60 L12 61 L13 63 L13 65 L14 66 L14 67 L15 68 L15 70 L15 72 L17 76 L17 79 L18 82 L19 85 L20 88 L21 91 L22 96 L23 101 L25 107 L27 114 L29 121 L32 129 L35 137 L36 141 L38 147 L40 155 L40 164 L42 172 L43 178 M48 0 L48 4 L48 12 L48 21 L48 32 L47 45 L45 60 L43 70 L42 79 L41 87 L38 95 L36 100 L35 107 L35 113 L34 119 L34 122 L34 123 L33 125 L33 126 L34 127 L34 128 L35 132 L37 140 L38 147 L38 151 L39 156 L39 160 L39 161 L40 162 L40 163 " fill="none" stroke="black" /><path d="M0 18 L0 21 L2 29 L4 36 L5 41 L6 45 L8 50 L10 56 L11 60 L12 61 L13 63 L13 65 L14 66 L14 67 L15 68 L15 70 L15 72 L17 76 L17 79 L18 82 L19 85 L20 88 L21 91 L22 96 L23 101 L25 107 L27 114 L29 121 L32 129 L35 137 L36 141 L38 147 L40 155 L40 164 L42 172 L43 178 M48 0 L48 4 L48 12 L48 21 L48 32 L47 45 L45 60 L43 70 L42 79 L41 87 L38 95 L36 100 L35 107 L35 113 L34 119 L34 122 L34 123 L33 125 L33 126 L34 127 L34 128 L35 132 L37 140 L38 147 L38 151 L39 156 L39 160 L39 161 L40 162 L40 163 M11 36 L15 34 L26 29 L41 24 L58 18 L65 16 L67 16 L68 16 " fill="none" stroke="black" /><path d="M0 18 L0 21 L2 29 L4 36 L5 41 L6 45 L8 50 L10 56 L11 60 L12 61 L13 63 L13 65 L14 66 L14 67 L15 68 L15 70 L15 72 L17 76 L17 79 L18 82 L19 85 L20 88 L21 91 L22 96 L23 101 L25 107 L27 114 L29 121 L32 129 L35 137 L36 141 L38 147 L40 155 L40 164 L42 172 L43 178 M48 0 L48 4 L48 12 L48 21 L48 32 L47 45 L45 60 L43 70 L42 79 L41 87 L38 95 L36 100 L35 107 L35 113 L34 119 L34 122 L34 123 L33 125 L33 126 L34 127 L34 128 L35 132 L37 140 L38 147 L38 151 L39 156 L39 160 L39 161 L40 162 L40 163 M11 36 L15 34 L26 29 L41 24 L58 18 L65 16 L67 16 L68 16 M27 37 L24 40 L23 40 L29 36 L41 27 L44 26 L43 29 L35 38 L29 44 L27 45 L28 45 L30 45 L31 46 L31 51 L30 57 L29 59 L30 59 L36 57 L38 56 L37 63 L34 71 L32 75 L32 76 L33 80 L33 91 L31 97 L31 98 " fill="none" stroke="black" /></svg>