<?xml version="1.0" encoding="utf-8" ?>
<svg baseProfile="tiny" height="199" version="1.2" viewBox="-3 -3 225 199" width="225" xmlns="http://www.w3.org/2000/svg" xmlns:ev="http://www.w3.org/2001/xml-events" xmlns:xlink="http://www.w3.org/1999/xlink"><defs /><path d="M1 51 L1 49 L1 44 L2 40 L4 34 L6 25 L11 16 L17 7 L26 2 L34 1 L44 1 L53 3 L59 7 L61 10 L63 14 L66 19 L68 23 L70 27 L72 31 L77 35 L84 38 L98 40 L108 39 L117 31 L122 22 L124 15 L124 9 L124 4 L124 2 L125 0 L126 0 L130 0 L138 5 L149 15 L157 24 L164 32 L171 40 L176 45 L181 51 L186 56 L191 60 L199 63 L206 65 L216 65 L223 61 " fill="none" stroke="black" /><path d="M1 51 L1 49 L1 44 L2 40 L4 34 L6 25 L11 16 L17 7 L26 2 L34 1 L44 1 L53 3 L59 7 L61 10 L63 14 L66 19 L68 23 L70 27 L72 31 L77 35 L84 38 L98 40 L108 39 L117 31 L122 22 L124 15 L124 9 L124 4 L124 2 L125 0 L126 0 L130 0 L138 5 L149 15 L157 24 L164 32 L171 40 L176 45 L181 51 L186 56 L191 60 L199 63 L206 65 L216 65 L223 61 M0 118 L2 112 L8 102 L20 88 L32 76 L45 66 L53 61 L60 61 L70 65 L78 73 L88 82 L100 90 L117 100 L127 109 L136 115 L141 116 L149 115 L157 109 L167 99 L171 94 L173 91 L175 89 L178 89 L180 89 L185 93 L193 103 L201 115 L209 126 L213 133 L214 135 L216 135 L217 135 " fill="none" stroke="black" /><path d="M1 51 L1 49 L1 44 L2 40 L4 34 L6 25 L11 16 L17 7 L26 2 L34 1 L44 1 L53 3 L59 7 L61 10 L63 14 L66 19 L68 23 L70 27 L72 31 L77 35 L84 38 L98 40 L108 39 L117 31 L122 22 L124 15 L124 9 L124 4 L124 2 L125 0 L126 0 L130 0 L138 5 L149 15 L157 24 L164 32 L171 40 L176 45 L181 51 L186 56 L191 60 L199 63 L206 65 L216 65 L223 61 M0 118 L2 112 L8 102 L20 88 L32 76 L45 66 L53 61 L60 61 L70 65 L78 73 L88 82 L100 90 L117 100 L127 109 L136 115 L141 116 L149 115 L157 109 L167 99 L171 94 L173 91 L175 89 L178 89 L180 89 L185 93 L193 103 L201 115 L209 126 L213 133 L214 135 L216 135 L217 135 M13 186 L13 185 L13 177 L16 161 L21 151 L31 142 L42 136 L53 134 L68 134 L77 138 L87 149 L95 169 L100 182 L106 192 L111 197 L118 199 L127 198 L137 186 L143 176 L145 168 L146 162 L148 158 L151 157 L158 157 L171 157 L187 163 L201 168 L210 174 L214 178 L218 181 L225 178 " fill="none" stroke="black" /></svg>