<?xml version="1.0" encoding="utf-8" ?>
<svg baseProfile="tiny" height="121" version="1.2" viewBox="-3 -3 624 121" width="624" xmlns="http://www.w3.org/2000/svg" xmlns:ev="http://www.w3.org/2001/xml-events" xmlns:xlink="http://www.w3.org/1999/xlink"><defs /><path d="M0 9 L4 6 L8 6 L11 7 L13 9 L14 10 L15 11 L17 11 L18 9 L19 9 L21 9 L22 9 L23 9 L24 9 L28 9 L32 11 L37 12 L39 12 L41 12 L43 10 L44 10 L46 10 L51 10 L56 11 L61 13 L68 15 L76 17 L84 20 L91 23 L97 25 L102 25 L107 24 L114 19 L121 17 L126 14 L133 11 L139 9 L144 7 L151 7 L158 7 L166 9 L178 11 L195 14 L213 21 L227 26 L238 30 L244 31 L250 31 L259 28 L268 22 L275 19 L281 16 L287 14 L303 14 L336 14 L368 21 L387 29 L399 34 L408 36 L418 39 L426 39 L435 40 L443 40 L450 39 L452 37 L476 29 L527 16 L577 7 L608 3 L619 0 L621 0 " fill="none" stroke="black" /><path d="M0 9 L4 6 L8 6 L11 7 L13 9 L14 10 L15 11 L17 11 L18 9 L19 9 L21 9 L22 9 L23 9 L24 9 L28 9 L32 11 L37 12 L39 12 L41 12 L43 10 L44 10 L46 10 L51 10 L56 11 L61 13 L68 15 L76 17 L84 20 L91 23 L97 25 L102 25 L107 24 L114 19 L121 17 L126 14 L133 11 L139 9 L144 7 L151 7 L158 7 L166 9 L178 11 L195 14 L213 21 L227 26 L238 30 L244 31 L250 31 L259 28 L268 22 L275 19 L281 16 L287 14 L303 14 L336 14 L368 21 L387 29 L399 34 L408 36 L418 39 L426 39 L435 40 L443 40 L450 39 L452 37 L476 29 L527 16 L577 7 L608 3 L619 0 L621 0 M30 103 L30 101 L30 94 L30 84 L35 79 L46 77 L66 77 L84 80 L103 84 L124 87 L143 92 L159 96 L171 100 L180 103 L189 105 L201 103 L219 90 L232 79 L241 73 L245 71 L247 71 L249 72 L258 81 L270 93 L284 103 L300 110 L321 115 L338 119 L349 121 L350 121 L351 121 L379 121 L439 119 L484 119 L523 119 L538 120 L553 121 L563 121 L571 118 L581 112 L591 106 L595 105 L598 105 L604 101 L609 98 L614 95 L618 94 L622 92 L624 92 L624 93 " fill="none" stroke="black" /></svg>