<?xml version="1.0" encoding="utf-8" ?>
<svg baseProfile="tiny" height="52" version="1.2" viewBox="-3 -3 755 52" width="755" xmlns="http://www.w3.org/2000/svg" xmlns:ev="http://www.w3.org/2001/xml-events" xmlns:xlink="http://www.w3.org/1999/xlink"><defs /><path d="M29 14 L25 14 L14 17 L6 21 L2 24 L2 27 L2 31 L10 34 L24 30 L35 20 L40 12 L40 5 L38 2 L34 0 L30 0 L25 6 L19 15 L17 22 L15 26 L15 28 L16 28 L19 23 L19 18 L17 14 L10 12 L4 12 L1 16 L0 20 L2 23 L9 24 L14 24 L16 22 L17 20 L17 19 L18 19 L19 19 L22 20 L27 21 L34 22 L41 23 L52 23 L66 24 L78 26 L89 27 L101 27 L108 27 L114 27 L120 27 L125 26 L136 26 L154 26 L167 26 L180 26 L192 29 L202 31 L212 32 L218 32 L222 32 L234 30 L268 25 L306 22 L323 22 L330 23 L334 26 L338 30 L342 33 L351 37 L358 39 L364 39 L371 39 L378 37 L384 34 L389 30 L390 30 L414 30 L451 30 L481 33 L500 38 L505 39 L509 39 L524 39 L562 40 L597 46 L620 52 L631 52 L633 52 L647 51 L691 43 L721 35 L734 31 L737 29 L739 29 L741 29 L744 29 L748 33 L751 36 L754 38 L755 38 " fill="none" stroke="black" /></svg>