<?xml version="1.0" encoding="utf-8" ?>
<svg baseProfile="tiny" height="167" version="1.2" viewBox="-3 -3 834 167" width="834" xmlns="http://www.w3.org/2000/svg" xmlns:ev="http://www.w3.org/2001/xml-events" xmlns:xlink="http://www.w3.org/1999/xlink"><defs /><path d="M0 28 L5 27 L24 20 L46 12 L58 8 L65 3 L67 0 L68 0 L69 0 L70 2 L73 7 L81 10 L91 10 L99 10 L105 9 L111 8 L116 7 L120 8 L122 9 L124 9 L126 9 L127 9 L129 9 L146 8 L205 5 L256 5 L292 10 L317 17 L338 23 L364 27 L386 28 L403 28 L413 25 L465 12 L556 7 L629 9 L686 17 L728 22 L755 23 L767 23 L771 23 " fill="none" stroke="black" /><path d="M0 28 L5 27 L24 20 L46 12 L58 8 L65 3 L67 0 L68 0 L69 0 L70 2 L73 7 L81 10 L91 10 L99 10 L105 9 L111 8 L116 7 L120 8 L122 9 L124 9 L126 9 L127 9 L129 9 L146 8 L205 5 L256 5 L292 10 L317 17 L338 23 L364 27 L386 28 L403 28 L413 25 L465 12 L556 7 L629 9 L686 17 L728 22 L755 23 L767 23 L771 23 M31 158 L37 156 L45 153 L51 151 L54 150 L56 150 L59 149 L63 149 L73 148 L90 146 L106 144 L127 144 L138 144 L148 144 L163 142 L177 138 L179 137 L190 137 L249 137 L309 137 L385 137 L438 149 L493 164 L533 167 L557 167 L570 165 L620 152 L712 137 L777 128 L813 125 L830 125 L833 125 L834 126 " fill="none" stroke="black" /></svg>