<?xml version="1.0" encoding="utf-8" ?>
<svg baseProfile="tiny" height="320" version="1.2" viewBox="-3 -3 192 320" width="192" xmlns="http://www.w3.org/2000/svg" xmlns:ev="http://www.w3.org/2001/xml-events" xmlns:xlink="http://www.w3.org/1999/xlink"><defs /><path d="M3 0 L3 8 L0 18 L0 25 L3 27 L15 27 L29 27 L32 30 L34 43 L35 53 L36 58 L40 61 L45 66 L50 80 L53 90 L57 97 L61 101 L66 103 L73 103 L80 104 L83 109 L86 118 L88 129 L89 134 L90 135 L96 135 L102 135 L107 135 L112 142 L115 154 L115 166 L115 172 L117 174 L123 175 L130 184 L135 195 L136 198 L137 206 L147 242 L152 259 L156 265 L159 266 L162 267 L166 270 L173 282 L176 289 L177 291 L181 291 L186 293 L190 298 L192 312 L187 320 " fill="none" stroke="black" /></svg>