<?xml version="1.0" encoding="utf-8" ?>
<svg baseProfile="tiny" height="53" version="1.2" viewBox="-3 -3 239 53" width="239" xmlns="http://www.w3.org/2000/svg" xmlns:ev="http://www.w3.org/2001/xml-events" xmlns:xlink="http://www.w3.org/1999/xlink"><defs /><path d="M6 7 L7 7 L19 7 L31 7 L36 7 L38 4 L40 1 L41 0 L43 0 L47 1 L52 5 L59 7 L68 8 L75 8 L81 8 L88 8 L95 8 L102 9 L107 10 L111 11 L115 13 L118 13 L122 13 L124 11 L126 10 L128 11 L132 13 L136 14 L139 14 L141 13 L142 13 L143 13 L144 14 L146 14 L147 14 L150 14 L153 11 L156 8 L157 7 L159 7 L162 9 L165 12 L170 12 L175 12 L177 10 L178 9 L178 8 L179 8 L181 8 L184 9 L187 9 L192 7 L196 3 L198 3 L199 3 L202 5 L204 7 L206 8 L210 9 L214 9 L219 9 L224 9 L228 9 L234 9 L238 8 L239 7 " fill="none" stroke="black" /><path d="M6 7 L7 7 L19 7 L31 7 L36 7 L38 4 L40 1 L41 0 L43 0 L47 1 L52 5 L59 7 L68 8 L75 8 L81 8 L88 8 L95 8 L102 9 L107 10 L111 11 L115 13 L118 13 L122 13 L124 11 L126 10 L128 11 L132 13 L136 14 L139 14 L141 13 L142 13 L143 13 L144 14 L146 14 L147 14 L150 14 L153 11 L156 8 L157 7 L159 7 L162 9 L165 12 L170 12 L175 12 L177 10 L178 9 L178 8 L179 8 L181 8 L184 9 L187 9 L192 7 L196 3 L198 3 L199 3 L202 5 L204 7 L206 8 L210 9 L214 9 L219 9 L224 9 L228 9 L234 9 L238 8 L239 7 M0 45 L5 44 L27 38 L41 35 L50 34 L54 33 L59 35 L63 42 L67 46 L69 47 L73 47 L79 42 L85 38 L89 38 L92 38 L95 42 L97 43 L100 44 L106 43 L111 42 L117 42 L125 46 L129 48 L131 48 L134 46 L137 45 L139 45 L144 48 L148 51 L151 53 L157 53 L167 52 L174 52 L180 52 L184 53 L186 53 " fill="none" stroke="black" /></svg>