<?xml version="1.0" encoding="utf-8" ?>
<svg baseProfile="tiny" height="260" version="1.2" viewBox="-3 -3 520 260" width="520" xmlns="http://www.w3.org/2000/svg" xmlns:ev="http://www.w3.org/2001/xml-events" xmlns:xlink="http://www.w3.org/1999/xlink"><defs /><path d="M0 124 L0 123 L4 114 L16 95 L27 82 L38 70 L48 58 L55 50 L60 45 L62 44 L63 43 L64 45 L67 60 L72 90 L79 126 L83 139 L87 145 L91 150 L94 153 L97 155 L98 155 L99 155 L101 154 L102 153 L104 151 L107 147 L114 138 L130 117 L147 100 L171 73 L189 53 L198 42 L201 38 L202 37 L202 38 L202 39 L202 40 L209 50 L221 65 L237 86 L244 95 L250 100 L254 103 L260 105 L267 108 L271 110 L275 113 L277 115 L279 117 L281 119 L283 120 L284 121 L286 113 L317 65 L353 24 L374 5 L381 0 L383 0 L384 0 L384 2 L384 4 L384 5 L384 9 L384 15 L384 30 L385 52 L388 79 L392 108 L396 130 L403 154 L406 163 L408 167 L408 168 L408 167 L408 164 L410 157 L418 144 L427 130 L445 103 L461 74 L473 49 L480 38 L483 34 L484 33 L484 34 L484 39 L484 46 L487 58 L492 75 L501 99 L510 120 L517 134 L520 137 L520 138 " fill="none" stroke="black" /><path d="M0 124 L0 123 L4 114 L16 95 L27 82 L38 70 L48 58 L55 50 L60 45 L62 44 L63 43 L64 45 L67 60 L72 90 L79 126 L83 139 L87 145 L91 150 L94 153 L97 155 L98 155 L99 155 L101 154 L102 153 L104 151 L107 147 L114 138 L130 117 L147 100 L171 73 L189 53 L198 42 L201 38 L202 37 L202 38 L202 39 L202 40 L209 50 L221 65 L237 86 L244 95 L250 100 L254 103 L260 105 L267 108 L271 110 L275 113 L277 115 L279 117 L281 119 L283 120 L284 121 L286 113 L317 65 L353 24 L374 5 L381 0 L383 0 L384 0 L384 2 L384 4 L384 5 L384 9 L384 15 L384 30 L385 52 L388 79 L392 108 L396 130 L403 154 L406 163 L408 167 L408 168 L408 167 L408 164 L410 157 L418 144 L427 130 L445 103 L461 74 L473 49 L480 38 L483 34 L484 33 L484 34 L484 39 L484 46 L487 58 L492 75 L501 99 L510 120 L517 134 L520 137 L520 138 M4 254 L4 251 L7 245 L14 233 L21 221 L26 211 L29 205 L30 203 L31 203 L32 202 L34 202 L42 202 L47 202 L52 203 L57 208 L62 213 L69 218 L84 227 L102 239 L121 251 L129 258 L132 259 L133 260 L133 255 L149 229 L167 205 L184 188 L194 180 L200 176 L205 173 L207 172 L209 171 L208 172 L207 172 L207 174 L208 178 L213 183 L221 192 L228 203 L237 219 L252 239 L266 250 L277 256 L287 258 L289 258 L290 255 L302 239 L317 221 L330 198 L335 189 L337 186 L338 186 " fill="none" stroke="black" /></svg>