<?xml version="1.0" encoding="utf-8" ?>
<svg baseProfile="tiny" height="123" version="1.2" viewBox="-3 -3 255 123" width="255" xmlns="http://www.w3.org/2000/svg" xmlns:ev="http://www.w3.org/2001/xml-events" xmlns:xlink="http://www.w3.org/1999/xlink"><defs /><path d="M0 0 L0 4 L0 8 L0 12 L0 14 L0 15 L0 16 L1 17 L1 18 L2 19 L2 22 L3 25 L4 27 L5 29 L8 32 L11 35 L15 38 L21 42 L28 46 L36 51 L43 59 L50 69 L55 77 L59 82 L62 84 L70 84 L87 84 L103 89 L113 94 L121 100 L127 104 L132 107 L136 110 L141 113 L145 116 L148 119 L150 120 L151 121 L152 121 L153 122 L154 122 L159 123 L177 123 L207 121 L233 117 L250 115 L254 115 L255 116 L255 117 L255 118 " fill="none" stroke="black" /></svg>