<?xml version="1.0" encoding="utf-8" ?>
<svg baseProfile="tiny" height="106" version="1.2" viewBox="-3 -3 649 106" width="649" xmlns="http://www.w3.org/2000/svg" xmlns:ev="http://www.w3.org/2001/xml-events" xmlns:xlink="http://www.w3.org/1999/xlink"><defs /><path d="M53 28 L41 28 L13 28 L5 31 L0 45 L2 58 L15 68 L36 71 L57 68 L64 52 L64 26 L57 10 L48 2 L40 0 L35 0 " fill="none" stroke="black" /><path d="M53 28 L41 28 L13 28 L5 31 L0 45 L2 58 L15 68 L36 71 L57 68 L64 52 L64 26 L57 10 L48 2 L40 0 L35 0 M31 17 L29 13 L29 7 L30 4 L39 4 L42 8 L42 15 L31 19 L25 19 L24 11 L30 4 L41 1 L51 2 L56 12 L57 20 L57 21 L59 16 L65 12 L68 12 L71 19 L71 23 L71 25 L77 19 L94 11 L124 8 L138 9 L150 18 L155 24 L158 27 L162 30 L172 35 L178 36 L182 36 L186 33 L189 31 L191 30 L194 30 L208 28 L227 23 L249 18 L272 15 L294 15 L307 18 L316 22 L322 23 L331 23 L332 23 L331 24 L330 24 L329 24 L332 24 L393 28 L468 42 L528 56 L569 70 L585 75 L593 77 L594 78 L595 78 " fill="none" stroke="black" /><path d="M53 28 L41 28 L13 28 L5 31 L0 45 L2 58 L15 68 L36 71 L57 68 L64 52 L64 26 L57 10 L48 2 L40 0 L35 0 M31 17 L29 13 L29 7 L30 4 L39 4 L42 8 L42 15 L31 19 L25 19 L24 11 L30 4 L41 1 L51 2 L56 12 L57 20 L57 21 L59 16 L65 12 L68 12 L71 19 L71 23 L71 25 L77 19 L94 11 L124 8 L138 9 L150 18 L155 24 L158 27 L162 30 L172 35 L178 36 L182 36 L186 33 L189 31 L191 30 L194 30 L208 28 L227 23 L249 18 L272 15 L294 15 L307 18 L316 22 L322 23 L331 23 L332 23 L331 24 L330 24 L329 24 L332 24 L393 28 L468 42 L528 56 L569 70 L585 75 L593 77 L594 78 L595 78 M71 52 L72 52 L73 52 L75 52 L77 52 L81 52 L89 52 L98 52 L110 53 L128 56 L150 59 L176 62 L199 63 L223 65 L257 67 L282 68 L308 73 L334 78 L360 81 L384 84 L413 90 L432 97 L445 101 L455 103 L464 106 L476 106 L494 105 L517 101 L551 96 L582 94 L603 94 L615 97 L636 99 L649 99 " fill="none" stroke="black" /></svg>