<?xml version="1.0" encoding="utf-8" ?>
<svg baseProfile="tiny" height="97" version="1.2" viewBox="-3 -3 482 97" width="482" xmlns="http://www.w3.org/2000/svg" xmlns:ev="http://www.w3.org/2001/xml-events" xmlns:xlink="http://www.w3.org/1999/xlink"><defs /><path d="M1 0 L2 0 L11 0 L44 0 L110 0 L167 1 L216 6 L248 10 L271 8 L277 6 L285 5 L347 3 L406 6 L443 15 L457 19 L466 20 L473 20 L479 18 L481 17 L482 17 " fill="none" stroke="black" /><path d="M1 0 L2 0 L11 0 L44 0 L110 0 L167 1 L216 6 L248 10 L271 8 L277 6 L285 5 L347 3 L406 6 L443 15 L457 19 L466 20 L473 20 L479 18 L481 17 L482 17 M0 97 L5 97 L25 97 L51 97 L92 96 L133 95 L170 88 L200 84 L218 84 L242 83 L260 81 L275 81 L286 81 L290 81 L308 78 L361 72 L419 72 L451 79 L465 84 L475 86 L480 86 L481 86 " fill="none" stroke="black" /></svg>