<?xml version="1.0" encoding="utf-8" ?>
<svg baseProfile="tiny" height="41" version="1.2" viewBox="-3 -3 277 41" width="277" xmlns="http://www.w3.org/2000/svg" xmlns:ev="http://www.w3.org/2001/xml-events" xmlns:xlink="http://www.w3.org/1999/xlink"><defs /><path d="M0 22 L1 23 L2 24 L2 25 L4 26 L5 26 L7 26 L10 26 L13 26 L16 26 L18 25 L22 24 L26 22 L29 18 L33 14 L35 12 L37 8 L40 6 L41 4 L43 3 L45 1 L46 0 L50 0 L56 1 L61 4 L65 5 L67 7 L69 9 L72 12 L74 18 L77 26 L79 31 L81 35 L82 37 L83 39 L85 41 L87 41 L89 41 L94 40 L99 37 L105 31 L107 27 L110 23 L111 20 L112 18 L112 15 L113 12 L113 11 L113 10 L114 8 L114 6 L114 5 L116 4 L116 3 L118 2 L119 1 L124 0 L126 0 L129 0 L130 0 L130 1 L132 1 L134 2 L137 4 L140 5 L141 6 L143 8 L145 10 L146 11 L147 13 L148 14 L148 16 L149 17 L149 18 L149 20 L150 21 L150 22 L151 23 L151 25 L151 26 L152 27 L153 29 L153 30 L154 31 L155 31 L157 32 L159 33 L163 33 L167 33 L170 33 L172 33 L173 33 L176 33 L179 33 L184 33 L187 33 L191 33 L194 33 L196 33 L197 33 L198 33 L199 33 L202 33 L204 33 L206 33 L208 33 L209 32 L211 31 L212 31 L214 30 L215 29 L217 29 L219 28 L221 28 L223 28 L223 27 L224 27 L225 26 L226 25 L229 23 L230 21 L232 20 L235 18 L237 17 L238 15 L240 14 L243 13 L246 12 L249 12 L254 12 L257 13 L260 15 L263 16 L265 17 L268 19 L270 22 L272 23 L273 25 L273 27 L274 28 L275 30 L276 31 L276 33 L276 35 L277 36 L277 37 L277 38 L277 39 L277 40 " fill="none" stroke="black" /></svg>