<?xml version="1.0" encoding="utf-8" ?>
<svg baseProfile="tiny" height="138" version="1.2" viewBox="-3 -3 355 138" width="355" xmlns="http://www.w3.org/2000/svg" xmlns:ev="http://www.w3.org/2001/xml-events" xmlns:xlink="http://www.w3.org/1999/xlink"><defs /><path d="M0 67 L0 65 L0 62 L1 58 L3 43 L3 35 L3 29 L3 26 L3 24 L3 23 L3 25 L5 40 L16 78 L21 118 L22 129 L22 132 L22 134 L22 135 L22 136 L22 137 L22 138 " fill="none" stroke="black" /><path d="M0 67 L0 65 L0 62 L1 58 L3 43 L3 35 L3 29 L3 26 L3 24 L3 23 L3 25 L5 40 L16 78 L21 118 L22 129 L22 132 L22 134 L22 135 L22 136 L22 137 L22 138 M78 0 L78 2 L78 8 L80 22 L82 40 L85 56 L86 65 L89 76 L89 82 L89 84 L89 85 L89 86 L89 87 L89 88 L89 89 L89 91 L89 92 L91 97 L91 105 L93 111 L93 113 L95 117 L97 120 L98 123 L99 126 L101 129 L103 131 L104 132 L105 134 L105 135 " fill="none" stroke="black" /><path d="M0 67 L0 65 L0 62 L1 58 L3 43 L3 35 L3 29 L3 26 L3 24 L3 23 L3 25 L5 40 L16 78 L21 118 L22 129 L22 132 L22 134 L22 135 L22 136 L22 137 L22 138 M78 0 L78 2 L78 8 L80 22 L82 40 L85 56 L86 65 L89 76 L89 82 L89 84 L89 85 L89 86 L89 87 L89 88 L89 89 L89 91 L89 92 L91 97 L91 105 L93 111 L93 113 L95 117 L97 120 L98 123 L99 126 L101 129 L103 131 L104 132 L105 134 L105 135 M146 6 L146 7 L148 18 L150 22 L151 27 L151 30 L153 43 L157 60 L159 71 L161 82 L163 89 L164 96 L167 102 L169 107 L170 110 L171 111 " fill="none" stroke="black" /><path d="M0 67 L0 65 L0 62 L1 58 L3 43 L3 35 L3 29 L3 26 L3 24 L3 23 L3 25 L5 40 L16 78 L21 118 L22 129 L22 132 L22 134 L22 135 L22 136 L22 137 L22 138 M78 0 L78 2 L78 8 L80 22 L82 40 L85 56 L86 65 L89 76 L89 82 L89 84 L89 85 L89 86 L89 87 L89 88 L89 89 L89 91 L89 92 L91 97 L91 105 L93 111 L93 113 L95 117 L97 120 L98 123 L99 126 L101 129 L103 131 L104 132 L105 134 L105 135 M146 6 L146 7 L148 18 L150 22 L151 27 L151 30 L153 43 L157 60 L159 71 L161 82 L163 89 L164 96 L167 102 L169 107 L170 110 L171 111 M225 19 L226 19 L228 19 L230 23 L235 46 L237 56 L239 72 L240 80 L243 93 L245 99 L247 105 L249 111 L250 115 L252 119 L254 124 L254 126 L254 127 " fill="none" stroke="black" /><path d="M0 67 L0 65 L0 62 L1 58 L3 43 L3 35 L3 29 L3 26 L3 24 L3 23 L3 25 L5 40 L16 78 L21 118 L22 129 L22 132 L22 134 L22 135 L22 136 L22 137 L22 138 M78 0 L78 2 L78 8 L80 22 L82 40 L85 56 L86 65 L89 76 L89 82 L89 84 L89 85 L89 86 L89 87 L89 88 L89 89 L89 91 L89 92 L91 97 L91 105 L93 111 L93 113 L95 117 L97 120 L98 123 L99 126 L101 129 L103 131 L104 132 L105 134 L105 135 M146 6 L146 7 L148 18 L150 22 L151 27 L151 30 L153 43 L157 60 L159 71 L161 82 L163 89 L164 96 L167 102 L169 107 L170 110 L171 111 M225 19 L226 19 L228 19 L230 23 L235 46 L237 56 L239 72 L240 80 L243 93 L245 99 L247 105 L249 111 L250 115 L252 119 L254 124 L254 126 L254 127 M330 19 L331 21 L332 30 L339 55 L346 92 L349 103 L350 113 L352 117 L353 124 L354 127 L355 129 " fill="none" stroke="black" /></svg>