<?xml version="1.0" encoding="utf-8" ?>
<svg baseProfile="tiny" height="31" version="1.2" viewBox="-3 -3 208 31" width="208" xmlns="http://www.w3.org/2000/svg" xmlns:ev="http://www.w3.org/2001/xml-events" xmlns:xlink="http://www.w3.org/1999/xlink"><defs /><path d="M0 26 L0 25 L1 22 L1 20 L1 18 L2 17 L2 16 L2 15 L3 15 L4 17 L5 20 L8 23 L9 25 L11 26 L11 27 L12 27 L13 28 L15 28 L16 27 L18 24 L22 20 L25 16 L27 12 L28 10 L29 10 L30 10 L31 13 L36 18 L39 22 L41 26 L42 27 L43 28 L44 29 L45 29 L46 29 L49 25 L58 11 L62 5 L62 3 L63 2 L64 1 L64 0 L67 0 L72 4 L79 13 L85 23 L88 27 L89 30 L89 31 L91 29 L92 26 L94 21 L96 18 L96 17 L97 15 L98 14 L99 13 L101 11 L102 10 L104 9 L105 7 L106 7 L107 7 L109 8 L112 10 L118 15 L121 19 L124 22 L126 24 L128 26 L129 27 L131 28 L134 27 L137 25 L137 24 L138 23 L139 22 L139 20 L140 19 L141 17 L141 15 L142 13 L143 10 L144 8 L146 6 L147 7 L148 8 L149 9 L152 12 L154 13 L155 16 L158 18 L160 21 L162 23 L164 25 L165 27 L166 28 L167 28 L168 28 L169 28 L170 26 L174 22 L176 17 L178 15 L179 12 L180 10 L181 8 L182 6 L182 5 L183 4 L185 4 L191 8 L202 17 L206 21 L207 24 L208 25 " fill="none" stroke="black" /></svg>