<?xml version="1.0" encoding="utf-8" ?>
<svg baseProfile="tiny" height="32" version="1.2" viewBox="-3 -3 259 32" width="259" xmlns="http://www.w3.org/2000/svg" xmlns:ev="http://www.w3.org/2001/xml-events" xmlns:xlink="http://www.w3.org/1999/xlink"><defs /><path d="M0 18 L1 18 L3 18 L5 18 L7 17 L8 15 L10 14 L12 13 L16 13 L20 13 L24 14 L25 15 L26 16 L27 16 L28 15 L29 14 L30 13 L34 13 L42 16 L44 17 L46 18 L49 17 L50 14 L52 11 L53 10 L54 10 L57 11 L58 12 L61 14 L62 15 L63 15 L64 15 L65 15 L67 16 L71 17 L74 18 L75 19 L78 19 L82 13 L85 9 L86 7 L86 6 L90 7 L98 13 L101 16 L102 18 L103 18 L104 17 L104 14 L104 13 L104 12 L105 12 L106 12 L108 12 L112 12 L114 13 L116 14 L120 16 L124 18 L125 19 L126 19 L128 19 L129 18 L130 17 L132 16 L135 16 L138 16 L142 16 L144 18 L147 18 L148 18 L149 18 L150 18 L151 16 L153 14 L154 12 L155 11 L158 10 L162 11 L166 13 L168 14 L170 14 L171 14 L174 11 L176 8 L177 7 L178 6 L179 6 L180 6 L183 9 L186 12 L188 14 L188 15 L189 16 L191 10 L191 7 L202 23 L206 30 L206 32 L206 31 L208 27 L210 22 L211 18 L213 15 L215 9 L216 4 L217 1 L217 0 L218 0 L225 5 L232 11 L236 16 L238 17 L239 17 L240 17 L240 16 L241 13 L243 8 L245 4 L246 3 L249 3 L253 6 L256 7 L258 8 L259 9 " fill="none" stroke="black" /></svg>