<?xml version="1.0" encoding="utf-8" ?>
<svg baseProfile="tiny" height="85" version="1.2" viewBox="-3 -3 222 85" width="222" xmlns="http://www.w3.org/2000/svg" xmlns:ev="http://www.w3.org/2001/xml-events" xmlns:xlink="http://www.w3.org/1999/xlink"><defs /><path d="M0 29 L0 32 L1 38 L1 44 L2 50 L2 54 L3 57 L4 58 L4 59 L5 60 L6 62 L8 62 L27 39 L39 17 L41 11 L41 8 L41 5 L42 3 L43 2 L43 1 L43 0 L44 0 L49 6 L53 13 L55 17 L56 24 L57 30 L57 35 L57 39 L57 44 L58 51 L58 56 L59 62 L60 66 L61 69 L63 73 L66 76 L69 79 L70 79 L72 79 L76 74 L78 70 L80 63 L82 56 L83 50 L83 45 L86 36 L88 29 L92 24 L96 19 L103 14 L109 13 L113 12 L116 14 L119 16 L120 23 L120 27 L120 30 L120 31 L118 35 L116 41 L115 44 L115 45 L115 46 L116 46 L117 49 L118 52 L119 54 L122 57 L123 58 L125 60 L126 61 L127 61 L129 61 L131 61 L133 59 L134 57 L135 55 L135 54 L136 51 L137 46 L139 40 L141 36 L142 34 L143 31 L144 30 L145 28 L146 27 L147 27 L148 26 L149 26 L150 26 L152 27 L153 29 L155 32 L156 33 L157 35 L157 37 L158 39 L158 42 L158 46 L158 50 L158 53 L158 56 L158 59 L158 63 L158 68 L159 74 L159 78 L160 80 L161 82 L162 83 L163 84 L164 85 L166 85 L170 80 L172 76 L173 72 L175 66 L176 63 L176 60 L176 57 L178 53 L179 52 L179 50 L180 49 L181 47 L182 46 L184 44 L187 42 L189 40 L193 39 L198 39 L203 41 L207 44 L208 46 L209 48 L210 51 L210 53 L210 56 L211 59 L211 63 L212 66 L214 70 L215 71 L216 74 L218 76 L220 78 L222 78 L222 79 " fill="none" stroke="black" /></svg>