<?xml version="1.0" encoding="utf-8" ?>
<svg baseProfile="tiny" height="51" version="1.2" viewBox="-3 -3 208 51" width="208" xmlns="http://www.w3.org/2000/svg" xmlns:ev="http://www.w3.org/2001/xml-events" xmlns:xlink="http://www.w3.org/1999/xlink"><defs /><path d="M0 20 L0 18 L0 16 L0 14 L1 13 L2 12 L2 11 L4 11 L10 13 L15 16 L19 18 L22 20 L23 20 L23 21 L24 21 L24 19 L24 15 L24 11 L24 9 L24 8 L27 10 L32 14 L36 17 L38 19 L39 20 L40 20 L40 11 L40 3 L40 0 L43 1 L50 8 L53 12 L55 14 L56 15 L56 12 L56 7 L56 6 L61 10 L63 14 L64 15 L65 12 L66 8 L66 7 L66 6 L68 8 L71 13 L74 19 L75 20 L76 21 L77 19 L78 12 L78 11 L81 11 L103 42 L106 48 L106 50 L106 48 L106 46 L106 44 L107 44 L109 44 L109 40 L109 35 L109 33 L109 32 L109 31 L110 32 L110 33 L110 30 L111 27 L112 27 L113 27 L114 27 L114 28 L114 27 L115 26 L116 23 L116 21 L116 20 L117 19 L118 19 L120 19 L123 20 L125 20 L127 21 L128 21 L129 21 L131 19 L132 17 L132 15 L133 14 L136 14 L139 14 L142 16 L143 17 L144 17 L146 17 L147 16 L147 15 L148 15 L151 15 L154 16 L157 18 L158 18 L159 18 L160 18 L161 17 L162 14 L162 13 L163 12 L164 12 L167 14 L170 17 L171 18 L172 19 L172 14 L173 13 L183 31 L188 49 L188 51 L188 49 L188 43 L188 39 L188 36 L188 35 L188 34 L190 36 L194 43 L195 46 L196 37 L196 32 L196 30 L196 29 L196 30 L201 41 L202 44 L202 42 L202 36 L202 32 L202 31 L204 32 L208 40 L208 41 " fill="none" stroke="black" /></svg>