<?xml version="1.0" encoding="utf-8" ?>
<svg baseProfile="tiny" height="93" version="1.2" viewBox="-3 -3 369 93" width="369" xmlns="http://www.w3.org/2000/svg" xmlns:ev="http://www.w3.org/2001/xml-events" xmlns:xlink="http://www.w3.org/1999/xlink"><defs /><circle cx="0" cy="93" fill="black" r="1" /><path d="M56 34 L57 34 L110 30 L148 26 L154 26 L157 26 L159 26 L161 26 L162 26 L163 26 L164 26 L166 26 L264 52 L316 64 L318 64 L321 64 L326 64 L339 60 L350 57 L360 53 L367 50 L368 50 L369 50 L366 50 L307 48 L206 46 L175 46 L164 46 L158 46 L152 46 L148 46 L147 46 L145 46 L144 46 L134 46 L99 46 L65 46 L57 46 L53 46 L51 46 L50 46 L48 46 L47 46 L47 47 " fill="none" stroke="black" /><path d="M56 34 L57 34 L110 30 L148 26 L154 26 L157 26 L159 26 L161 26 L162 26 L163 26 L164 26 L166 26 L264 52 L316 64 L318 64 L321 64 L326 64 L339 60 L350 57 L360 53 L367 50 L368 50 L369 50 L366 50 L307 48 L206 46 L175 46 L164 46 L158 46 L152 46 L148 46 L147 46 L145 46 L144 46 L134 46 L99 46 L65 46 L57 46 L53 46 L51 46 L50 46 L48 46 L47 46 L47 47 M48 71 L65 67 L187 54 L235 55 L248 59 L268 61 L269 61 L277 61 L290 60 L297 60 L304 60 L313 60 L317 61 L320 61 L321 62 L324 62 L325 62 L326 62 L328 62 L329 63 L330 63 L332 63 L333 63 L336 64 L339 64 L340 64 L342 64 L344 64 L345 64 " fill="none" stroke="black" /><path d="M56 34 L57 34 L110 30 L148 26 L154 26 L157 26 L159 26 L161 26 L162 26 L163 26 L164 26 L166 26 L264 52 L316 64 L318 64 L321 64 L326 64 L339 60 L350 57 L360 53 L367 50 L368 50 L369 50 L366 50 L307 48 L206 46 L175 46 L164 46 L158 46 L152 46 L148 46 L147 46 L145 46 L144 46 L134 46 L99 46 L65 46 L57 46 L53 46 L51 46 L50 46 L48 46 L47 46 L47 47 M48 71 L65 67 L187 54 L235 55 L248 59 L268 61 L269 61 L277 61 L290 60 L297 60 L304 60 L313 60 L317 61 L320 61 L321 62 L324 62 L325 62 L326 62 L328 62 L329 63 L330 63 L332 63 L333 63 L336 64 L339 64 L340 64 L342 64 L344 64 L345 64 M69 11 L72 11 L127 5 L188 0 L203 0 L215 2 L221 3 L241 6 L271 9 L281 9 L291 9 L294 9 L297 9 L309 9 L316 9 L320 10 L323 10 L324 10 L326 10 L327 10 L329 10 L331 10 L333 10 L336 10 L341 10 L348 10 L352 10 L355 10 L358 10 L359 10 L361 10 L362 10 L364 10 " fill="none" stroke="black" /></svg>