<?xml version="1.0" encoding="utf-8" ?>
<svg baseProfile="tiny" height="85" version="1.2" viewBox="-3 -3 421 85" width="421" xmlns="http://www.w3.org/2000/svg" xmlns:ev="http://www.w3.org/2001/xml-events" xmlns:xlink="http://www.w3.org/1999/xlink"><defs /><path d="M0 51 L1 49 L1 46 L2 42 L4 39 L6 35 L7 32 L9 31 L10 30 L11 30 L14 31 L17 36 L28 52 L33 63 L37 72 L39 80 L41 83 L41 84 L42 85 L44 85 L66 39 L79 11 L81 6 L82 4 L84 1 L85 0 L86 0 L89 0 L91 3 L96 11 L100 21 L103 28 L105 36 L106 41 L108 46 L109 50 L111 52 L112 54 L114 56 L118 58 L121 58 L126 55 L127 52 L129 49 L130 46 L131 42 L132 38 L133 34 L133 31 L134 26 L136 22 L135 22 L136 22 L139 22 L143 21 L149 21 L155 21 L158 23 L163 28 L168 37 L170 43 L173 52 L174 56 L175 58 L177 63 L179 64 L181 65 L182 65 L184 65 L196 50 L209 29 L210 26 L211 23 L212 20 L216 15 L218 12 L221 9 L224 8 L226 8 L229 11 L234 17 L239 26 L241 33 L243 38 L244 42 L245 46 L247 51 L248 55 L252 62 L256 65 L258 66 L260 67 L262 67 L267 64 L270 59 L272 55 L273 53 L274 51 L276 48 L277 45 L279 42 L284 36 L289 33 L294 30 L300 29 L304 29 L309 33 L322 51 L328 63 L330 67 L331 67 L334 66 L337 62 L340 60 L343 55 L347 48 L350 44 L351 42 L353 38 L353 36 L355 33 L356 31 L357 29 L358 28 L360 26 L362 24 L365 23 L369 22 L378 22 L383 22 L388 25 L393 29 L395 31 L397 33 L399 36 L400 39 L402 44 L406 50 L411 59 L415 70 L418 76 L420 81 L421 82 " fill="none" stroke="black" /></svg>