<?xml version="1.0" encoding="utf-8" ?>
<svg baseProfile="tiny" height="164" version="1.2" viewBox="-3 -3 70 164" width="70" xmlns="http://www.w3.org/2000/svg" xmlns:ev="http://www.w3.org/2001/xml-events" xmlns:xlink="http://www.w3.org/1999/xlink"><defs /><path d="M2 57 L2 62 L1 67 L0 74 L0 80 L0 87 L0 97 L1 101 L1 105 L1 107 L2 108 L2 110 L3 111 L4 114 L6 115 L8 118 L9 118 L6 118 L5 118 L4 118 L4 119 L4 121 L4 127 L4 131 L4 140 L4 145 L4 152 L4 157 L4 160 L4 162 L4 163 L4 164 L5 164 L5 163 L5 162 L5 161 L5 159 L5 157 L6 155 L7 148 L8 142 L9 139 L9 137 L9 135 L9 133 L9 132 L9 131 L9 128 L9 127 L9 124 L9 122 L9 120 L9 117 L10 114 L10 112 L11 110 L11 107 L11 104 L11 101 L12 98 L12 93 L13 90 L13 86 L14 80 L15 76 L16 72 L16 68 L17 62 L17 59 L18 52 L20 41 L22 33 L23 26 L24 23 L24 20 L24 18 L24 13 L24 9 L24 7 L24 6 L22 12 L20 33 L18 78 L18 86 L18 93 L18 101 L18 109 L18 113 L19 117 L19 118 L20 123 L21 128 L22 134 L24 139 L25 141 L25 143 L26 145 L27 147 L27 149 L28 149 L28 150 L28 151 L29 151 L30 148 L36 107 L39 81 L40 73 L41 65 L42 58 L42 52 L43 46 L44 42 L44 36 L45 30 L45 24 L46 20 L46 18 L46 15 L46 13 L46 9 L46 6 L47 4 L47 3 L47 1 L47 0 L47 2 L47 5 L47 11 L47 15 L48 21 L49 27 L50 33 L51 38 L52 45 L54 53 L56 62 L58 73 L61 84 L62 89 L63 93 L64 97 L64 99 L65 102 L66 106 L67 111 L68 115 L69 118 L70 121 L70 122 L70 124 " fill="none" stroke="black" /></svg>