<?xml version="1.0" encoding="utf-8" ?>
<svg baseProfile="tiny" height="9" version="1.2" viewBox="-3 -3 193 9" width="193" xmlns="http://www.w3.org/2000/svg" xmlns:ev="http://www.w3.org/2001/xml-events" xmlns:xlink="http://www.w3.org/1999/xlink"><defs /><path d="M0 7 L2 7 L3 7 L4 7 L5 8 L6 8 L7 8 L8 8 L9 8 L10 8 L12 8 L13 8 L14 8 L16 8 L17 8 L18 8 L19 8 L20 7 L21 7 L22 6 L24 5 L25 4 L26 4 L28 4 L29 3 L30 3 L31 3 L33 3 L35 3 L36 3 L37 3 L38 3 L40 3 L41 3 L42 4 L45 4 L46 4 L48 5 L49 6 L50 6 L51 6 L53 7 L54 7 L55 7 L57 7 L58 7 L59 7 L60 7 L61 7 L62 6 L63 5 L64 4 L65 4 L66 3 L67 2 L68 1 L69 1 L70 1 L72 1 L73 1 L74 1 L75 1 L76 1 L77 1 L78 1 L80 1 L81 1 L82 1 L83 2 L84 2 L86 3 L87 3 L88 4 L89 4 L91 6 L93 7 L94 8 L95 8 L97 9 L99 9 L101 9 L103 8 L104 8 L106 7 L107 6 L108 5 L109 5 L110 4 L111 3 L112 3 L113 3 L115 2 L115 1 L116 1 L117 1 L119 1 L120 1 L121 1 L123 1 L124 1 L125 1 L126 2 L128 2 L129 3 L131 3 L131 4 L132 4 L133 5 L134 6 L135 6 L136 6 L137 7 L139 7 L140 7 L143 7 L144 7 L145 7 L146 7 L148 7 L149 7 L150 6 L151 5 L152 4 L153 3 L156 2 L157 1 L158 1 L159 0 L160 0 L161 0 L164 0 L165 0 L168 0 L170 0 L173 0 L175 2 L177 2 L178 3 L180 4 L182 4 L184 6 L185 7 L187 7 L188 8 L189 8 L190 8 L191 8 L192 8 L193 8 " fill="none" stroke="black" /></svg>