<?xml version="1.0" encoding="utf-8" ?>
<svg baseProfile="tiny" height="49" version="1.2" viewBox="-3 -3 374 49" width="374" xmlns="http://www.w3.org/2000/svg" xmlns:ev="http://www.w3.org/2001/xml-events" xmlns:xlink="http://www.w3.org/1999/xlink"><defs /><path d="M0 38 L2 39 L3 40 L6 40 L7 41 L8 42 L10 42 L12 43 L14 44 L15 44 L16 44 L18 44 L20 44 L23 43 L24 43 L26 41 L28 39 L30 37 L32 35 L34 33 L36 32 L38 31 L41 29 L43 29 L46 29 L49 29 L51 29 L53 29 L55 29 L56 30 L57 31 L59 32 L61 34 L62 36 L64 37 L65 39 L67 40 L69 42 L71 46 L72 47 L73 47 L75 47 L77 45 L79 44 L80 42 L83 40 L86 38 L88 37 L90 35 L91 33 L93 32 L95 30 L98 29 L101 28 L103 28 L105 28 L107 28 L108 28 L111 30 L113 31 L115 32 L121 38 L125 42 L128 45 L129 47 L130 48 L132 49 L134 49 L154 40 L221 5 L225 2 L226 1 L227 1 L228 0 L229 0 L230 0 L233 2 L235 4 L239 7 L241 11 L244 14 L247 18 L248 21 L249 24 L250 27 L251 30 L254 35 L256 40 L258 41 L260 44 L262 45 L264 45 L268 45 L269 45 L271 45 L273 44 L274 42 L276 40 L278 37 L279 35 L281 34 L282 32 L283 30 L285 27 L287 26 L288 24 L290 22 L294 20 L301 19 L307 19 L310 19 L313 21 L315 23 L316 24 L316 26 L317 27 L319 29 L320 31 L322 35 L324 38 L325 39 L326 40 L327 42 L328 42 L329 42 L330 42 L331 41 L332 40 L333 39 L333 37 L334 36 L336 35 L337 33 L338 32 L340 32 L341 31 L342 31 L345 30 L347 30 L352 30 L355 30 L357 31 L360 34 L363 36 L366 39 L368 41 L370 43 L371 44 L372 45 L374 45 " fill="none" stroke="black" /></svg>