<?xml version="1.0" encoding="utf-8" ?>
<svg baseProfile="tiny" height="33" version="1.2" viewBox="-3 -3 266 33" width="266" xmlns="http://www.w3.org/2000/svg" xmlns:ev="http://www.w3.org/2001/xml-events" xmlns:xlink="http://www.w3.org/1999/xlink"><defs /><path d="M80 16 L82 17 L84 18 L87 19 L89 20 L91 21 L95 23 L98 23 L101 23 L106 23 L112 23 L118 23 L122 22 L126 22 L130 21 L134 21 L138 20 L143 20 L160 19 L192 19 L201 20 L209 20 L210 20 L216 20 L221 20 L229 20 L235 21 L238 21 L240 21 L243 21 L245 22 L248 22 L251 22 L253 22 L255 22 L258 23 L261 23 L262 23 L263 23 L264 23 L265 23 L266 23 " fill="none" stroke="black" /><path d="M80 16 L82 17 L84 18 L87 19 L89 20 L91 21 L95 23 L98 23 L101 23 L106 23 L112 23 L118 23 L122 22 L126 22 L130 21 L134 21 L138 20 L143 20 L160 19 L192 19 L201 20 L209 20 L210 20 L216 20 L221 20 L229 20 L235 21 L238 21 L240 21 L243 21 L245 22 L248 22 L251 22 L253 22 L255 22 L258 23 L261 23 L262 23 L263 23 L264 23 L265 23 L266 23 M0 13 L1 14 L4 16 L6 18 L7 20 L8 22 L9 23 L10 25 L10 26 L11 26 L11 27 L12 27 L13 25 L15 21 L16 18 L18 14 L20 11 L21 9 L21 7 L22 6 L23 6 L24 6 L25 7 L26 9 L29 14 L31 16 L32 18 L33 20 L34 22 L36 24 L36 25 L37 25 L39 25 L40 25 L41 25 L44 21 L47 15 L51 8 L51 7 L53 4 L54 3 L55 1 L56 0 L57 0 L59 2 L60 5 L61 7 L61 9 L62 12 L62 14 L62 16 L62 17 L63 19 L63 20 L64 21 L64 22 L64 23 L65 23 L66 23 L67 23 L68 23 L71 20 L76 15 L79 11 L80 9 L81 8 L82 7 L84 9 L86 11 L89 17 L91 19 L95 25 L96 28 L98 29 L99 31 L100 32 L102 32 L103 33 L104 33 L107 27 L111 19 L113 15 L114 13 L115 10 L117 9 L117 8 L118 6 L119 5 L121 5 L124 9 L126 12 L128 15 L129 18 L130 20 L131 22 L132 25 L133 26 L134 28 L134 29 L134 30 L134 31 L134 32 L135 31 L137 26 L138 22 L140 19 L140 18 L141 18 " fill="none" stroke="black" /></svg>