<?xml version="1.0" encoding="utf-8" ?>
<svg baseProfile="tiny" height="171" version="1.2" viewBox="-3 -3 248 171" width="248" xmlns="http://www.w3.org/2000/svg" xmlns:ev="http://www.w3.org/2001/xml-events" xmlns:xlink="http://www.w3.org/1999/xlink"><defs /><path d="M0 72 L0 70 L1 67 L1 64 L1 62 L1 61 L2 61 L4 69 L6 77 L6 79 L7 81 L10 77 L12 69 L12 65 L13 65 L14 64 L16 66 L23 80 L26 86 L27 90 L27 91 L39 41 L46 3 L46 0 L47 14 L54 82 L56 97 L56 103 L56 104 L56 105 L55 102 L45 44 L45 38 L45 36 L45 33 L46 31 L46 30 L47 30 L66 70 L75 95 L76 99 L76 100 L76 101 L76 98 L78 28 L78 22 L79 19 L80 16 L80 15 L80 14 L83 18 L87 29 L88 34 L89 40 L89 42 L89 46 L89 52 L90 56 L90 60 L90 63 L90 68 L90 70 L90 71 L90 72 L91 67 L92 58 L93 55 L93 50 L94 45 L94 42 L94 40 L95 40 L95 39 L96 40 L111 156 L111 167 L112 169 L112 170 L112 171 L113 170 L113 163 L113 151 L113 138 L113 129 L114 115 L114 107 L115 106 L116 106 L117 106 L117 105 L119 102 L120 97 L120 92 L120 87 L120 81 L120 80 L125 84 L130 89 L134 93 L139 99 L142 104 L144 108 L145 110 L145 111 L147 110 L160 61 L161 52 L161 47 L162 43 L163 40 L164 35 L165 33 L170 45 L185 92 L188 107 L190 115 L191 119 L192 121 L192 122 L203 57 L205 33 L206 27 L206 21 L206 19 L206 18 L208 19 L234 64 L238 72 L240 76 L243 84 L245 90 L246 91 L246 92 L246 88 L239 59 L239 50 L238 45 L238 42 L238 41 L238 40 L238 39 L238 41 L241 48 L243 54 L244 58 L245 62 L247 64 L247 65 L247 66 L248 68 " fill="none" stroke="black" /></svg>