<?xml version="1.0" encoding="utf-8" ?>
<svg baseProfile="tiny" height="18" version="1.2" viewBox="-3 -3 224 18" width="224" xmlns="http://www.w3.org/2000/svg" xmlns:ev="http://www.w3.org/2001/xml-events" xmlns:xlink="http://www.w3.org/1999/xlink"><defs /><path d="M0 18 L2 18 L4 17 L6 17 L7 17 L8 17 L9 16 L11 13 L12 12 L13 11 L14 9 L15 9 L15 11 L16 12 L16 13 L18 16 L19 18 L20 18 L21 18 L22 18 L23 17 L24 16 L25 15 L26 14 L28 11 L30 9 L32 8 L33 7 L34 7 L35 7 L36 7 L37 8 L38 9 L40 11 L41 13 L42 14 L44 15 L45 15 L47 15 L49 15 L51 13 L53 10 L56 7 L56 5 L57 5 L58 4 L60 4 L64 4 L67 4 L69 5 L72 7 L75 10 L78 14 L78 15 L79 16 L79 17 L80 17 L81 17 L82 17 L83 14 L84 14 L84 13 L85 12 L86 10 L87 9 L88 8 L90 7 L92 6 L93 6 L95 6 L96 6 L98 6 L100 6 L102 7 L105 9 L107 11 L109 12 L113 13 L116 15 L119 16 L120 16 L123 16 L124 16 L125 15 L126 15 L127 13 L128 13 L129 12 L131 11 L131 10 L132 8 L134 6 L135 5 L136 4 L137 3 L139 2 L140 1 L143 1 L148 2 L152 4 L155 6 L157 7 L160 10 L161 10 L164 12 L166 13 L169 14 L174 16 L180 17 L182 17 L185 13 L188 8 L191 4 L192 3 L193 2 L194 0 L195 0 L198 0 L202 0 L205 2 L212 6 L216 8 L219 11 L220 12 L221 13 L222 14 L224 14 " fill="none" stroke="black" /></svg>