<?xml version="1.0" encoding="utf-8" ?>
<svg baseProfile="tiny" height="429" version="1.2" viewBox="-3 -3 312 429" width="312" xmlns="http://www.w3.org/2000/svg" xmlns:ev="http://www.w3.org/2001/xml-events" xmlns:xlink="http://www.w3.org/1999/xlink"><defs /><path d="M0 189 L0 188 L2 179 L18 132 L33 85 L35 77 L36 74 L36 73 L52 132 L72 193 L89 253 L95 287 L96 294 L96 297 L96 299 L97 299 L121 173 L141 80 L148 49 L152 38 L153 33 L153 37 L163 128 L176 252 L180 322 L184 353 L185 359 L185 361 L185 362 L185 360 L178 243 L179 126 L183 63 L185 42 L186 34 L186 32 L188 51 L222 227 L230 284 L243 354 L246 367 L247 372 L247 373 L222 273 L201 201 L175 152 L161 128 L154 120 L151 117 L148 114 L147 112 L145 112 L145 113 L151 256 L154 342 L157 388 L157 396 L157 397 L157 398 L138 327 L110 231 L103 213 L96 180 L92 164 L88 155 L82 131 L80 125 L80 123 L79 123 L78 125 L74 189 L74 298 L74 399 L74 422 L74 427 L74 429 L74 415 L81 210 L87 107 L88 84 L90 71 L91 65 L91 64 L91 63 L90 65 L89 82 L103 179 L119 268 L124 302 L125 312 L125 316 L125 317 L125 318 L125 319 L125 318 L136 171 L155 73 L167 24 L172 6 L174 1 L174 0 L217 80 L271 190 L297 256 L310 293 L312 299 L312 301 L312 303 L303 275 L273 147 L266 83 L266 62 L266 58 L266 57 L266 56 L266 55 L265 55 " fill="none" stroke="black" /></svg>