<?xml version="1.0" encoding="utf-8" ?>
<svg baseProfile="tiny" height="63" version="1.2" viewBox="-3 -3 422 63" width="422" xmlns="http://www.w3.org/2000/svg" xmlns:ev="http://www.w3.org/2001/xml-events" xmlns:xlink="http://www.w3.org/1999/xlink"><defs /><path d="M0 23 L0 22 L1 21 L2 20 L3 18 L4 17 L6 16 L7 14 L8 14 L9 13 L11 12 L12 12 L14 12 L16 12 L17 12 L19 12 L20 12 L22 12 L24 12 L25 12 L28 13 L36 18 L40 21 L43 24 L45 26 L47 28 L48 30 L50 33 L52 35 L54 39 L55 42 L56 43 L59 46 L60 48 L62 50 L63 53 L65 55 L66 56 L67 57 L68 59 L69 61 L71 63 L73 63 L79 60 L82 57 L85 56 L86 54 L89 50 L90 48 L93 43 L95 41 L98 37 L99 33 L100 30 L104 21 L108 13 L109 9 L110 8 L110 7 L111 7 L111 6 L112 6 L116 6 L123 6 L130 7 L135 10 L139 14 L142 17 L144 20 L146 21 L148 23 L153 27 L157 31 L162 34 L167 38 L171 40 L174 44 L178 47 L188 51 L193 52 L196 52 L198 52 L200 51 L201 49 L206 44 L211 36 L213 33 L215 29 L216 26 L217 24 L217 22 L218 19 L219 16 L220 14 L221 11 L223 9 L224 7 L225 7 L226 7 L228 6 L235 5 L239 4 L242 3 L245 3 L248 3 L251 4 L256 8 L259 11 L267 21 L270 26 L272 30 L274 33 L275 36 L276 39 L277 41 L278 42 L279 44 L280 45 L283 46 L285 47 L290 47 L300 46 L305 44 L311 39 L316 35 L318 32 L319 31 L319 30 L319 29 L319 28 L320 28 L320 27 L321 27 L321 26 L324 20 L328 14 L332 10 L338 5 L341 3 L343 1 L346 0 L349 0 L376 4 L398 13 L404 18 L408 21 L412 25 L416 30 L419 33 L422 37 " fill="none" stroke="black" /></svg>