<?xml version="1.0" encoding="utf-8" ?>
<svg baseProfile="tiny" height="48" version="1.2" viewBox="-3 -3 306 48" width="306" xmlns="http://www.w3.org/2000/svg" xmlns:ev="http://www.w3.org/2001/xml-events" xmlns:xlink="http://www.w3.org/1999/xlink"><defs /><path d="M0 30 L1 27 L1 26 L2 25 L3 24 L3 23 L3 22 L4 22 L4 24 L6 28 L10 34 L13 38 L14 41 L16 44 L17 45 L18 45 L19 45 L20 45 L22 42 L23 40 L24 38 L25 36 L26 34 L28 31 L29 29 L31 26 L32 24 L33 22 L34 21 L35 20 L36 20 L37 20 L39 20 L41 20 L43 22 L44 24 L45 25 L47 28 L50 32 L52 33 L54 35 L55 36 L57 37 L58 37 L59 37 L60 37 L61 37 L64 32 L68 23 L70 19 L71 14 L72 13 L75 13 L77 13 L81 13 L84 13 L87 13 L92 18 L96 23 L99 28 L103 35 L108 42 L110 45 L111 47 L113 48 L114 48 L116 48 L117 46 L128 24 L132 16 L133 12 L135 9 L136 7 L138 5 L141 2 L145 1 L155 0 L161 1 L163 4 L165 6 L166 8 L166 9 L166 10 L166 12 L166 14 L166 16 L166 20 L166 28 L166 34 L166 40 L166 41 L167 42 L170 42 L173 42 L177 43 L179 43 L181 43 L184 42 L185 40 L188 36 L190 34 L192 31 L194 27 L196 24 L196 21 L197 20 L198 18 L199 16 L200 15 L201 15 L202 13 L204 13 L209 14 L212 16 L215 19 L218 22 L222 25 L225 29 L228 32 L230 35 L231 36 L233 38 L234 39 L235 40 L237 41 L241 42 L242 42 L243 40 L245 38 L248 33 L249 30 L252 27 L254 24 L255 21 L256 19 L258 16 L259 15 L261 13 L263 11 L265 11 L269 10 L275 10 L282 11 L287 13 L291 16 L296 20 L300 24 L303 28 L306 32 " fill="none" stroke="black" /></svg>