<?xml version="1.0" encoding="utf-8" ?>
<svg baseProfile="tiny" height="130" version="1.2" viewBox="-3 -3 387 130" width="387" xmlns="http://www.w3.org/2000/svg" xmlns:ev="http://www.w3.org/2001/xml-events" xmlns:xlink="http://www.w3.org/1999/xlink"><defs /><path d="M27 55 L30 55 L32 55 L34 55 L36 54 L37 54 L39 54 L41 53 L43 53 L47 53 L53 52 L65 51 L76 51 L109 50 L168 54 L220 59 L256 60 L261 60 L265 60 L293 62 L367 65 L374 65 L377 66 L379 66 L380 66 L382 66 L383 66 L384 66 L385 66 L386 66 L387 66 L387 67 L386 67 L385 67 L384 67 L383 67 L381 67 L377 67 L350 67 L337 67 L322 67 L313 68 L296 70 L247 75 L215 79 L208 81 L206 82 L205 82 L202 82 L149 83 L97 83 L57 83 L20 83 L10 84 L4 85 L2 85 L1 85 L0 85 L1 86 L14 87 L149 92 L223 101 L299 113 L336 118 L342 118 L344 118 L345 118 L346 118 L347 118 L350 119 L352 119 L353 119 L335 109 L230 80 L136 75 L85 76 L41 80 L29 80 L26 81 L25 81 L24 81 L24 80 L24 72 L28 53 L31 44 L34 37 L37 32 L38 30 L39 30 L42 35 L64 70 L76 89 L81 98 L84 104 L86 105 L87 107 L88 107 L92 103 L130 25 L136 5 L138 1 L138 0 L156 32 L178 72 L194 104 L197 112 L199 119 L202 125 L202 127 L203 128 L203 129 L203 130 L205 127 L214 88 L220 51 L220 44 L221 41 L221 40 L221 39 L221 38 " fill="none" stroke="black" /></svg>