<?xml version="1.0" encoding="utf-8" ?>
<svg baseProfile="tiny" height="52" version="1.2" viewBox="-3 -3 402 52" width="402" xmlns="http://www.w3.org/2000/svg" xmlns:ev="http://www.w3.org/2001/xml-events" xmlns:xlink="http://www.w3.org/1999/xlink"><defs /><path d="M116 31 L119 32 L123 32 L127 33 L134 33 L140 34 L147 34 L151 33 L158 34 L163 34 L170 34 L176 34 L185 33 L191 32 L196 32 L202 31 L210 31 L215 31 L220 29 L225 29 L230 29 L232 29 L236 29 L241 28 L245 27 L247 27 L254 25 L260 24 L264 23 L269 21 L273 19 L275 18 L279 17 L281 16 L281 15 L285 14 L287 13 L288 12 L290 12 L294 11 L296 10 L297 10 L301 9 L305 8 L311 6 L320 6 L337 4 L345 3 L354 2 L361 2 L372 1 L384 0 L390 0 L397 0 L402 0 " fill="none" stroke="black" /><path d="M116 31 L119 32 L123 32 L127 33 L134 33 L140 34 L147 34 L151 33 L158 34 L163 34 L170 34 L176 34 L185 33 L191 32 L196 32 L202 31 L210 31 L215 31 L220 29 L225 29 L230 29 L232 29 L236 29 L241 28 L245 27 L247 27 L254 25 L260 24 L264 23 L269 21 L273 19 L275 18 L279 17 L281 16 L281 15 L285 14 L287 13 L288 12 L290 12 L294 11 L296 10 L297 10 L301 9 L305 8 L311 6 L320 6 L337 4 L345 3 L354 2 L361 2 L372 1 L384 0 L390 0 L397 0 L402 0 M0 32 L20 32 L33 34 L43 37 L49 42 L56 44 L62 45 L69 46 L76 46 L82 46 L88 47 L96 47 L102 47 L110 44 L117 43 L121 42 L126 42 L133 42 L139 42 L144 42 L148 42 L151 42 L154 43 L158 43 L161 43 L164 43 L167 44 L169 44 L172 44 L175 44 L179 44 L182 44 L185 44 L188 44 L191 44 L194 44 L199 44 L201 44 L206 44 L208 44 L209 44 L210 44 L211 44 L214 44 L218 44 L223 45 L226 45 L229 45 L230 45 L232 45 L235 47 L236 48 L240 48 L246 50 L250 50 L256 51 L262 52 L268 52 L273 52 L275 51 L276 51 L278 50 L283 50 L286 50 L289 49 L291 48 L295 47 L298 46 L299 46 L300 46 L301 45 L302 45 L304 44 L306 43 L307 42 L308 42 L309 41 L312 41 L315 40 L317 39 L319 39 L320 39 L322 39 L325 39 L327 39 L328 39 L330 39 L334 38 L337 38 L339 38 L344 38 L347 38 L351 38 L354 38 L356 38 " fill="none" stroke="black" /></svg>