<?xml version="1.0" encoding="utf-8" ?>
<svg baseProfile="tiny" height="63" version="1.2" viewBox="-3 -3 98 63" width="98" xmlns="http://www.w3.org/2000/svg" xmlns:ev="http://www.w3.org/2001/xml-events" xmlns:xlink="http://www.w3.org/1999/xlink"><defs /><path d="M70 0 L75 3 L80 5 L84 9 L88 13 L90 16 L93 20 L96 25 L97 27 L97 29 L98 33 L98 35 L98 37 L97 39 L95 40 L95 41 L92 44 L90 46 L89 47 L87 49 L86 52 L85 52 L82 54 L80 54 L77 54 L74 55 L72 56 L68 57 L64 60 L59 61 L56 63 L53 63 L48 62 L45 62 L41 62 L37 62 L34 62 L31 60 L27 58 L22 56 L16 52 L10 49 L7 46 L5 44 L3 42 L1 38 L0 35 L0 31 L0 27 L3 24 L6 20 L10 16 L10 15 L13 13 L14 11 L17 10 L18 10 L19 9 L21 9 L23 8 L26 7 L28 7 L30 7 L31 7 L33 7 L34 7 L36 7 L38 6 L39 6 L41 5 L42 5 L44 5 L45 5 L48 5 L51 6 L53 6 L55 7 L57 7 L59 8 L60 8 L61 9 L62 10 L64 11 L64 12 L64 13 L65 14 L65 16 L65 17 L66 18 L66 20 L66 21 L66 23 L66 24 L66 25 L66 27 L66 30 L65 32 L64 34 L64 35 L63 36 L62 36 L61 38 L60 39 L58 39 L56 39 L54 39 L53 39 L52 39 L51 39 L50 38 L49 37 L48 37 L47 37 L46 37 L45 37 L44 37 L43 36 L41 35 L40 34 L39 33 L38 32 L37 31 L37 30 L37 29 L36 27 L35 26 L35 23 L35 22 L36 21 L36 20 L37 19 L38 18 L38 17 L40 17 L41 17 L42 17 L44 17 L45 16 L46 16 L47 16 L48 16 L49 17 L49 18 L50 19 L50 20 L50 21 L50 22 L50 23 L50 24 L49 24 " fill="none" stroke="black" /></svg>