<?xml version="1.0" encoding="utf-8" ?>
<svg baseProfile="tiny" height="72" version="1.2" viewBox="-3 -3 126 72" width="126" xmlns="http://www.w3.org/2000/svg" xmlns:ev="http://www.w3.org/2001/xml-events" xmlns:xlink="http://www.w3.org/1999/xlink"><defs /><path d="M29 13 L29 14 L29 16 L29 17 L28 17 L28 18 L28 19 L28 20 L27 21 L26 22 L26 24 L26 25 L25 25 L25 27 L23 29 L23 30 L21 32 L20 34 L19 36 L18 38 L16 40 L15 41 L15 43 L14 44 L14 45 L13 46 L13 48 L12 49 L11 50 L11 51 L10 52 L10 54 L9 54 L9 55 L8 55 L7 57 L6 59 L5 61 L5 63 L4 63 L4 64 L3 64 L3 65 L3 66 L2 66 L2 67 L1 68 L0 69 L0 70 L0 71 L0 72 " fill="none" stroke="black" /><path d="M29 13 L29 14 L29 16 L29 17 L28 17 L28 18 L28 19 L28 20 L27 21 L26 22 L26 24 L26 25 L25 25 L25 27 L23 29 L23 30 L21 32 L20 34 L19 36 L18 38 L16 40 L15 41 L15 43 L14 44 L14 45 L13 46 L13 48 L12 49 L11 50 L11 51 L10 52 L10 54 L9 54 L9 55 L8 55 L7 57 L6 59 L5 61 L5 63 L4 63 L4 64 L3 64 L3 65 L3 66 L2 66 L2 67 L1 68 L0 69 L0 70 L0 71 L0 72 M32 4 L32 3 L33 2 L34 2 L36 1 L37 0 L38 0 L40 0 L41 0 L42 0 L44 0 L45 0 L47 0 L48 0 L49 1 L49 2 L51 3 L52 7 L54 11 L54 14 L54 16 L54 19 L54 20 L54 22 L54 23 L56 24 L59 26 L63 28 L66 29 L68 30 L70 30 L72 30 L74 30 L75 30 L78 30 L79 30 L81 30 L83 30 L86 30 L87 30 L88 30 L89 30 L89 29 L90 29 L91 30 L92 31 L93 32 L93 33 L94 35 L94 36 L94 38 L94 39 L95 40 L95 41 L95 42 L95 43 L95 44 L95 45 L96 46 L97 46 L98 47 L99 47 L100 47 L101 48 L102 49 L103 49 L105 49 L107 49 L110 48 L112 48 L113 48 L115 48 L115 47 L116 47 L117 46 L118 46 L119 46 L120 46 L121 47 L122 48 L123 49 L124 50 L124 51 L125 51 L125 52 L125 53 L125 54 L125 55 L125 56 L125 57 L125 58 L125 59 L125 60 L125 61 L125 62 L125 63 L125 64 L125 65 L126 66 " fill="none" stroke="black" /></svg>