<?xml version="1.0" encoding="utf-8" ?>
<svg baseProfile="tiny" height="247" version="1.2" viewBox="-3 -3 629 247" width="629" xmlns="http://www.w3.org/2000/svg" xmlns:ev="http://www.w3.org/2001/xml-events" xmlns:xlink="http://www.w3.org/1999/xlink"><defs /><path d="M468 155 L474 157 L479 159 L487 161 L493 162 L499 163 L506 161 L511 154 L517 141 L527 129 L536 123 L545 116 L553 112 L558 109 L566 104 L573 100 L579 98 L585 98 L591 98 L596 98 L603 96 L609 96 L616 94 L623 90 L629 88 " fill="none" stroke="black" /><path d="M468 155 L474 157 L479 159 L487 161 L493 162 L499 163 L506 161 L511 154 L517 141 L527 129 L536 123 L545 116 L553 112 L558 109 L566 104 L573 100 L579 98 L585 98 L591 98 L596 98 L603 96 L609 96 L616 94 L623 90 L629 88 M5 247 L10 243 L38 227 L68 209 L90 194 L122 170 L157 148 L189 129 L231 103 L267 83 L291 69 L312 56 L330 44 L345 34 L353 29 L357 25 " fill="none" stroke="black" /><path d="M468 155 L474 157 L479 159 L487 161 L493 162 L499 163 L506 161 L511 154 L517 141 L527 129 L536 123 L545 116 L553 112 L558 109 L566 104 L573 100 L579 98 L585 98 L591 98 L596 98 L603 96 L609 96 L616 94 L623 90 L629 88 M5 247 L10 243 L38 227 L68 209 L90 194 L122 170 L157 148 L189 129 L231 103 L267 83 L291 69 L312 56 L330 44 L345 34 L353 29 L357 25 M331 11 L351 8 L376 4 L399 2 L414 0 L420 0 L423 0 L424 0 L424 2 L423 5 L397 34 L374 58 L364 68 L362 72 " fill="none" stroke="black" /><path d="M468 155 L474 157 L479 159 L487 161 L493 162 L499 163 L506 161 L511 154 L517 141 L527 129 L536 123 L545 116 L553 112 L558 109 L566 104 L573 100 L579 98 L585 98 L591 98 L596 98 L603 96 L609 96 L616 94 L623 90 L629 88 M5 247 L10 243 L38 227 L68 209 L90 194 L122 170 L157 148 L189 129 L231 103 L267 83 L291 69 L312 56 L330 44 L345 34 L353 29 L357 25 M331 11 L351 8 L376 4 L399 2 L414 0 L420 0 L423 0 L424 0 L424 2 L423 5 L397 34 L374 58 L364 68 L362 72 M0 241 L0 236 L0 224 L1 212 L1 208 L3 208 L9 212 L30 218 L44 223 L49 224 L60 218 L80 193 L95 168 L98 163 L100 162 L109 166 L124 169 L132 171 L134 172 L135 171 L136 169 L139 168 L145 167 L155 167 L164 167 L167 166 L169 163 L174 151 L180 137 L183 133 L184 134 L186 136 L190 136 L193 136 L193 134 L193 132 L193 130 L195 129 L196 131 L204 131 L210 129 L211 128 L211 127 L211 125 L211 123 L212 116 L214 106 L215 102 L215 101 L216 101 L226 103 L238 107 L243 109 L244 109 L245 108 L245 104 L247 87 L251 71 L252 68 L255 68 L262 72 L267 74 L269 74 L270 72 L271 71 L273 71 L279 69 L290 66 L294 66 L295 65 L295 63 L296 58 L299 47 L303 41 L304 41 L312 42 L322 47 L330 52 L331 53 L332 53 L332 51 L335 45 L338 40 L345 38 L355 36 L364 35 L365 35 L365 36 L364 30 L364 23 L364 21 L365 22 L374 25 L380 27 L381 28 " fill="none" stroke="black" /></svg>