<?xml version="1.0" encoding="utf-8" ?>
<svg baseProfile="tiny" height="49" version="1.2" viewBox="-3 -3 292 49" width="292" xmlns="http://www.w3.org/2000/svg" xmlns:ev="http://www.w3.org/2001/xml-events" xmlns:xlink="http://www.w3.org/1999/xlink"><defs /><path d="M0 25 L2 26 L3 27 L4 27 " fill="none" stroke="black" /><path d="M0 25 L2 26 L3 27 L4 27 M29 29 L29 30 L30 31 L31 32 L32 34 L33 35 L33 36 L34 37 L35 38 L36 39 L37 41 L37 42 L38 43 L39 44 L40 45 L40 46 L41 46 L41 47 L41 48 L42 48 L43 48 " fill="none" stroke="black" /><path d="M0 25 L2 26 L3 27 L4 27 M29 29 L29 30 L30 31 L31 32 L32 34 L33 35 L33 36 L34 37 L35 38 L36 39 L37 41 L37 42 L38 43 L39 44 L40 45 L40 46 L41 46 L41 47 L41 48 L42 48 L43 48 M63 34 L64 30 L64 22 L66 16 L67 13 L68 11 L69 10 L70 8 L70 6 L70 5 L70 4 L70 3 L70 2 L70 1 L70 0 " fill="none" stroke="black" /><path d="M0 25 L2 26 L3 27 L4 27 M29 29 L29 30 L30 31 L31 32 L32 34 L33 35 L33 36 L34 37 L35 38 L36 39 L37 41 L37 42 L38 43 L39 44 L40 45 L40 46 L41 46 L41 47 L41 48 L42 48 L43 48 M63 34 L64 30 L64 22 L66 16 L67 13 L68 11 L69 10 L70 8 L70 6 L70 5 L70 4 L70 3 L70 2 L70 1 L70 0 M85 24 L87 25 L91 29 L94 31 L95 34 L96 35 L97 36 L97 38 L99 40 L99 43 L100 44 L100 45 L100 46 L101 47 L101 48 L102 49 " fill="none" stroke="black" /><path d="M0 25 L2 26 L3 27 L4 27 M29 29 L29 30 L30 31 L31 32 L32 34 L33 35 L33 36 L34 37 L35 38 L36 39 L37 41 L37 42 L38 43 L39 44 L40 45 L40 46 L41 46 L41 47 L41 48 L42 48 L43 48 M63 34 L64 30 L64 22 L66 16 L67 13 L68 11 L69 10 L70 8 L70 6 L70 5 L70 4 L70 3 L70 2 L70 1 L70 0 M85 24 L87 25 L91 29 L94 31 L95 34 L96 35 L97 36 L97 38 L99 40 L99 43 L100 44 L100 45 L100 46 L101 47 L101 48 L102 49 M116 26 L116 25 L119 23 L121 21 L122 20 L124 19 L125 17 L127 15 L128 13 L129 12 L130 12 L131 11 L132 11 L133 10 L134 8 L134 7 L135 7 L135 6 L135 5 L136 5 L136 4 L138 3 L139 3 L140 1 L142 1 L143 1 " fill="none" stroke="black" /><path d="M0 25 L2 26 L3 27 L4 27 M29 29 L29 30 L30 31 L31 32 L32 34 L33 35 L33 36 L34 37 L35 38 L36 39 L37 41 L37 42 L38 43 L39 44 L40 45 L40 46 L41 46 L41 47 L41 48 L42 48 L43 48 M63 34 L64 30 L64 22 L66 16 L67 13 L68 11 L69 10 L70 8 L70 6 L70 5 L70 4 L70 3 L70 2 L70 1 L70 0 M85 24 L87 25 L91 29 L94 31 L95 34 L96 35 L97 36 L97 38 L99 40 L99 43 L100 44 L100 45 L100 46 L101 47 L101 48 L102 49 M116 26 L116 25 L119 23 L121 21 L122 20 L124 19 L125 17 L127 15 L128 13 L129 12 L130 12 L131 11 L132 11 L133 10 L134 8 L134 7 L135 7 L135 6 L135 5 L136 5 L136 4 L138 3 L139 3 L140 1 L142 1 L143 1 M159 25 L163 27 L167 30 L173 33 L176 35 L178 36 L179 37 L181 37 L182 37 L184 37 L185 38 L186 38 L187 38 L189 39 L191 40 L193 40 L194 41 L195 41 L196 41 L198 41 L199 41 L200 41 L201 41 " fill="none" stroke="black" /><path d="M0 25 L2 26 L3 27 L4 27 M29 29 L29 30 L30 31 L31 32 L32 34 L33 35 L33 36 L34 37 L35 38 L36 39 L37 41 L37 42 L38 43 L39 44 L40 45 L40 46 L41 46 L41 47 L41 48 L42 48 L43 48 M63 34 L64 30 L64 22 L66 16 L67 13 L68 11 L69 10 L70 8 L70 6 L70 5 L70 4 L70 3 L70 2 L70 1 L70 0 M85 24 L87 25 L91 29 L94 31 L95 34 L96 35 L97 36 L97 38 L99 40 L99 43 L100 44 L100 45 L100 46 L101 47 L101 48 L102 49 M116 26 L116 25 L119 23 L121 21 L122 20 L124 19 L125 17 L127 15 L128 13 L129 12 L130 12 L131 11 L132 11 L133 10 L134 8 L134 7 L135 7 L135 6 L135 5 L136 5 L136 4 L138 3 L139 3 L140 1 L142 1 L143 1 M159 25 L163 27 L167 30 L173 33 L176 35 L178 36 L179 37 L181 37 L182 37 L184 37 L185 38 L186 38 L187 38 L189 39 L191 40 L193 40 L194 41 L195 41 L196 41 L198 41 L199 41 L200 41 L201 41 M218 33 L223 28 L228 24 L229 24 L230 23 L232 21 L237 16 L241 14 L241 13 L242 12 L242 11 L243 10 L246 8 L249 6 L250 5 L251 5 L252 4 L255 3 L257 3 L258 2 L259 2 L260 1 L261 1 L263 1 L264 1 " fill="none" stroke="black" /><path d="M0 25 L2 26 L3 27 L4 27 M29 29 L29 30 L30 31 L31 32 L32 34 L33 35 L33 36 L34 37 L35 38 L36 39 L37 41 L37 42 L38 43 L39 44 L40 45 L40 46 L41 46 L41 47 L41 48 L42 48 L43 48 M63 34 L64 30 L64 22 L66 16 L67 13 L68 11 L69 10 L70 8 L70 6 L70 5 L70 4 L70 3 L70 2 L70 1 L70 0 M85 24 L87 25 L91 29 L94 31 L95 34 L96 35 L97 36 L97 38 L99 40 L99 43 L100 44 L100 45 L100 46 L101 47 L101 48 L102 49 M116 26 L116 25 L119 23 L121 21 L122 20 L124 19 L125 17 L127 15 L128 13 L129 12 L130 12 L131 11 L132 11 L133 10 L134 8 L134 7 L135 7 L135 6 L135 5 L136 5 L136 4 L138 3 L139 3 L140 1 L142 1 L143 1 M159 25 L163 27 L167 30 L173 33 L176 35 L178 36 L179 37 L181 37 L182 37 L184 37 L185 38 L186 38 L187 38 L189 39 L191 40 L193 40 L194 41 L195 41 L196 41 L198 41 L199 41 L200 41 L201 41 M218 33 L223 28 L228 24 L229 24 L230 23 L232 21 L237 16 L241 14 L241 13 L242 12 L242 11 L243 10 L246 8 L249 6 L250 5 L251 5 L252 4 L255 3 L257 3 L258 2 L259 2 L260 1 L261 1 L263 1 L264 1 M267 30 L269 32 L273 35 L274 37 L275 37 L278 38 L280 40 L281 41 L282 41 L283 42 L284 43 L285 43 L286 44 L287 44 L288 44 L288 45 L289 45 L290 45 L291 45 L292 45 " fill="none" stroke="black" /></svg>