<?xml version="1.0" encoding="utf-8" ?>
<svg baseProfile="tiny" height="54" version="1.2" viewBox="-3 -3 236 54" width="236" xmlns="http://www.w3.org/2000/svg" xmlns:ev="http://www.w3.org/2001/xml-events" xmlns:xlink="http://www.w3.org/1999/xlink"><defs /><path d="M0 26 L3 25 L6 23 L7 22 L11 20 L14 18 L15 18 L17 17 L20 15 L22 14 L24 14 L24 13 L25 13 L27 13 L30 12 L32 12 L33 11 L35 11 L37 10 L39 9 L43 8 L46 7 L47 7 L48 7 L50 6 L54 4 L57 3 L60 1 L62 0 L63 0 L64 0 L65 0 L66 0 L68 0 L70 0 L72 0 L75 0 L77 0 L79 0 L81 0 L84 0 L87 0 L88 1 L90 2 L92 2 L94 3 L95 4 L98 5 L100 6 L103 9 L105 10 L108 11 L110 13 L112 15 L115 16 L119 19 L120 20 L122 21 L125 22 L128 23 L130 24 L133 25 L135 26 L137 27 L139 29 L143 30 L144 30 L147 32 L148 32 L149 32 L152 34 L154 35 L155 35 L156 36 L158 37 L160 37 L161 39 L164 39 L166 40 L168 42 L170 43 L172 43 L174 44 L176 45 L178 46 L180 47 L181 48 L182 48 " fill="none" stroke="black" /><circle cx="192" cy="49" fill="black" r="1" /><path d="M0 26 L3 25 L6 23 L7 22 L11 20 L14 18 L15 18 L17 17 L20 15 L22 14 L24 14 L24 13 L25 13 L27 13 L30 12 L32 12 L33 11 L35 11 L37 10 L39 9 L43 8 L46 7 L47 7 L48 7 L50 6 L54 4 L57 3 L60 1 L62 0 L63 0 L64 0 L65 0 L66 0 L68 0 L70 0 L72 0 L75 0 L77 0 L79 0 L81 0 L84 0 L87 0 L88 1 L90 2 L92 2 L94 3 L95 4 L98 5 L100 6 L103 9 L105 10 L108 11 L110 13 L112 15 L115 16 L119 19 L120 20 L122 21 L125 22 L128 23 L130 24 L133 25 L135 26 L137 27 L139 29 L143 30 L144 30 L147 32 L148 32 L149 32 L152 34 L154 35 L155 35 L156 36 L158 37 L160 37 L161 39 L164 39 L166 40 L168 42 L170 43 L172 43 L174 44 L176 45 L178 46 L180 47 L181 48 L182 48 M192 49 L195 48 L196 48 L199 48 L201 48 L204 48 L207 48 L210 46 L211 46 L215 46 L218 45 L221 45 L222 45 L223 44 L225 43 L228 41 L232 39 L233 38 L234 37 L234 36 L235 35 L236 35 L236 34 L236 33 L235 31 L234 31 L232 31 L231 31 L230 31 L229 31 L228 31 L225 33 L224 34 L222 36 L221 36 L220 38 L218 40 L216 41 L215 43 L214 44 L213 45 L211 46 L210 48 L208 49 L206 50 L204 50 L203 51 L202 52 L200 52 L199 53 L198 53 L197 54 L195 54 L195 53 L194 53 L194 52 L193 50 L192 50 L192 49 L192 48 L192 47 " fill="none" stroke="black" /></svg>