<?xml version="1.0" encoding="utf-8" ?>
<svg baseProfile="tiny" height="292" version="1.2" viewBox="-3 -3 425 292" width="425" xmlns="http://www.w3.org/2000/svg" xmlns:ev="http://www.w3.org/2001/xml-events" xmlns:xlink="http://www.w3.org/1999/xlink"><defs /><path d="M30 115 L52 88 L76 65 L85 59 L85 61 L74 87 L43 159 L33 186 L31 193 L35 191 L63 166 L107 119 L142 84 L153 73 L155 73 L147 90 L122 135 L104 167 L102 173 L103 172 L137 146 L170 116 L187 104 L197 97 L200 96 L197 109 L183 141 L178 157 L178 161 L181 161 L201 150 L217 138 L229 130 L234 128 L236 129 L235 137 L219 164 L216 173 L216 174 L229 167 L273 140 L297 122 L306 116 L308 116 L307 120 L294 143 " fill="none" stroke="black" /><path d="M30 115 L52 88 L76 65 L85 59 L85 61 L74 87 L43 159 L33 186 L31 193 L35 191 L63 166 L107 119 L142 84 L153 73 L155 73 L147 90 L122 135 L104 167 L102 173 L103 172 L137 146 L170 116 L187 104 L197 97 L200 96 L197 109 L183 141 L178 157 L178 161 L181 161 L201 150 L217 138 L229 130 L234 128 L236 129 L235 137 L219 164 L216 173 L216 174 L229 167 L273 140 L297 122 L306 116 L308 116 L307 120 L294 143 M292 138 L292 141 L290 160 L288 175 L288 179 L292 178 L305 174 L330 161 L339 155 L342 155 L342 156 L340 171 L334 191 L332 199 L332 200 L336 199 L353 192 L376 181 L382 179 L384 179 L382 190 L376 212 L376 220 L379 221 L393 219 L404 215 L417 212 L422 211 L425 215 L425 216 " fill="none" stroke="black" /><path d="M30 115 L52 88 L76 65 L85 59 L85 61 L74 87 L43 159 L33 186 L31 193 L35 191 L63 166 L107 119 L142 84 L153 73 L155 73 L147 90 L122 135 L104 167 L102 173 L103 172 L137 146 L170 116 L187 104 L197 97 L200 96 L197 109 L183 141 L178 157 L178 161 L181 161 L201 150 L217 138 L229 130 L234 128 L236 129 L235 137 L219 164 L216 173 L216 174 L229 167 L273 140 L297 122 L306 116 L308 116 L307 120 L294 143 M292 138 L292 141 L290 160 L288 175 L288 179 L292 178 L305 174 L330 161 L339 155 L342 155 L342 156 L340 171 L334 191 L332 199 L332 200 L336 199 L353 192 L376 181 L382 179 L384 179 L382 190 L376 212 L376 220 L379 221 L393 219 L404 215 L417 212 L422 211 L425 215 L425 216 M121 0 L120 5 L117 40 L116 54 L115 64 " fill="none" stroke="black" /><path d="M30 115 L52 88 L76 65 L85 59 L85 61 L74 87 L43 159 L33 186 L31 193 L35 191 L63 166 L107 119 L142 84 L153 73 L155 73 L147 90 L122 135 L104 167 L102 173 L103 172 L137 146 L170 116 L187 104 L197 97 L200 96 L197 109 L183 141 L178 157 L178 161 L181 161 L201 150 L217 138 L229 130 L234 128 L236 129 L235 137 L219 164 L216 173 L216 174 L229 167 L273 140 L297 122 L306 116 L308 116 L307 120 L294 143 M292 138 L292 141 L290 160 L288 175 L288 179 L292 178 L305 174 L330 161 L339 155 L342 155 L342 156 L340 171 L334 191 L332 199 L332 200 L336 199 L353 192 L376 181 L382 179 L384 179 L382 190 L376 212 L376 220 L379 221 L393 219 L404 215 L417 212 L422 211 L425 215 L425 216 M121 0 L120 5 L117 40 L116 54 L115 64 M218 18 L219 21 L227 48 L232 61 L234 68 L237 76 L238 78 L239 79 L240 79 " fill="none" stroke="black" /><path d="M30 115 L52 88 L76 65 L85 59 L85 61 L74 87 L43 159 L33 186 L31 193 L35 191 L63 166 L107 119 L142 84 L153 73 L155 73 L147 90 L122 135 L104 167 L102 173 L103 172 L137 146 L170 116 L187 104 L197 97 L200 96 L197 109 L183 141 L178 157 L178 161 L181 161 L201 150 L217 138 L229 130 L234 128 L236 129 L235 137 L219 164 L216 173 L216 174 L229 167 L273 140 L297 122 L306 116 L308 116 L307 120 L294 143 M292 138 L292 141 L290 160 L288 175 L288 179 L292 178 L305 174 L330 161 L339 155 L342 155 L342 156 L340 171 L334 191 L332 199 L332 200 L336 199 L353 192 L376 181 L382 179 L384 179 L382 190 L376 212 L376 220 L379 221 L393 219 L404 215 L417 212 L422 211 L425 215 L425 216 M121 0 L120 5 L117 40 L116 54 L115 64 M218 18 L219 21 L227 48 L232 61 L234 68 L237 76 L238 78 L239 79 L240 79 M352 75 L345 101 L336 130 L332 147 L332 148 " fill="none" stroke="black" /><path d="M30 115 L52 88 L76 65 L85 59 L85 61 L74 87 L43 159 L33 186 L31 193 L35 191 L63 166 L107 119 L142 84 L153 73 L155 73 L147 90 L122 135 L104 167 L102 173 L103 172 L137 146 L170 116 L187 104 L197 97 L200 96 L197 109 L183 141 L178 157 L178 161 L181 161 L201 150 L217 138 L229 130 L234 128 L236 129 L235 137 L219 164 L216 173 L216 174 L229 167 L273 140 L297 122 L306 116 L308 116 L307 120 L294 143 M292 138 L292 141 L290 160 L288 175 L288 179 L292 178 L305 174 L330 161 L339 155 L342 155 L342 156 L340 171 L334 191 L332 199 L332 200 L336 199 L353 192 L376 181 L382 179 L384 179 L382 190 L376 212 L376 220 L379 221 L393 219 L404 215 L417 212 L422 211 L425 215 L425 216 M121 0 L120 5 L117 40 L116 54 L115 64 M218 18 L219 21 L227 48 L232 61 L234 68 L237 76 L238 78 L239 79 L240 79 M352 75 L345 101 L336 130 L332 147 L332 148 M399 118 L405 137 L410 151 L414 165 L416 173 " fill="none" stroke="black" /><path d="M30 115 L52 88 L76 65 L85 59 L85 61 L74 87 L43 159 L33 186 L31 193 L35 191 L63 166 L107 119 L142 84 L153 73 L155 73 L147 90 L122 135 L104 167 L102 173 L103 172 L137 146 L170 116 L187 104 L197 97 L200 96 L197 109 L183 141 L178 157 L178 161 L181 161 L201 150 L217 138 L229 130 L234 128 L236 129 L235 137 L219 164 L216 173 L216 174 L229 167 L273 140 L297 122 L306 116 L308 116 L307 120 L294 143 M292 138 L292 141 L290 160 L288 175 L288 179 L292 178 L305 174 L330 161 L339 155 L342 155 L342 156 L340 171 L334 191 L332 199 L332 200 L336 199 L353 192 L376 181 L382 179 L384 179 L382 190 L376 212 L376 220 L379 221 L393 219 L404 215 L417 212 L422 211 L425 215 L425 216 M121 0 L120 5 L117 40 L116 54 L115 64 M218 18 L219 21 L227 48 L232 61 L234 68 L237 76 L238 78 L239 79 L240 79 M352 75 L345 101 L336 130 L332 147 L332 148 M399 118 L405 137 L410 151 L414 165 L416 173 M138 169 L87 179 L31 198 L4 208 L0 209 L0 208 " fill="none" stroke="black" /><path d="M30 115 L52 88 L76 65 L85 59 L85 61 L74 87 L43 159 L33 186 L31 193 L35 191 L63 166 L107 119 L142 84 L153 73 L155 73 L147 90 L122 135 L104 167 L102 173 L103 172 L137 146 L170 116 L187 104 L197 97 L200 96 L197 109 L183 141 L178 157 L178 161 L181 161 L201 150 L217 138 L229 130 L234 128 L236 129 L235 137 L219 164 L216 173 L216 174 L229 167 L273 140 L297 122 L306 116 L308 116 L307 120 L294 143 M292 138 L292 141 L290 160 L288 175 L288 179 L292 178 L305 174 L330 161 L339 155 L342 155 L342 156 L340 171 L334 191 L332 199 L332 200 L336 199 L353 192 L376 181 L382 179 L384 179 L382 190 L376 212 L376 220 L379 221 L393 219 L404 215 L417 212 L422 211 L425 215 L425 216 M121 0 L120 5 L117 40 L116 54 L115 64 M218 18 L219 21 L227 48 L232 61 L234 68 L237 76 L238 78 L239 79 L240 79 M352 75 L345 101 L336 130 L332 147 L332 148 M399 118 L405 137 L410 151 L414 165 L416 173 M138 169 L87 179 L31 198 L4 208 L0 209 L0 208 M172 194 L191 221 L204 241 L208 245 " fill="none" stroke="black" /><path d="M30 115 L52 88 L76 65 L85 59 L85 61 L74 87 L43 159 L33 186 L31 193 L35 191 L63 166 L107 119 L142 84 L153 73 L155 73 L147 90 L122 135 L104 167 L102 173 L103 172 L137 146 L170 116 L187 104 L197 97 L200 96 L197 109 L183 141 L178 157 L178 161 L181 161 L201 150 L217 138 L229 130 L234 128 L236 129 L235 137 L219 164 L216 173 L216 174 L229 167 L273 140 L297 122 L306 116 L308 116 L307 120 L294 143 M292 138 L292 141 L290 160 L288 175 L288 179 L292 178 L305 174 L330 161 L339 155 L342 155 L342 156 L340 171 L334 191 L332 199 L332 200 L336 199 L353 192 L376 181 L382 179 L384 179 L382 190 L376 212 L376 220 L379 221 L393 219 L404 215 L417 212 L422 211 L425 215 L425 216 M121 0 L120 5 L117 40 L116 54 L115 64 M218 18 L219 21 L227 48 L232 61 L234 68 L237 76 L238 78 L239 79 L240 79 M352 75 L345 101 L336 130 L332 147 L332 148 M399 118 L405 137 L410 151 L414 165 L416 173 M138 169 L87 179 L31 198 L4 208 L0 209 L0 208 M172 194 L191 221 L204 241 L208 245 M256 220 L259 222 L283 240 L297 253 L303 257 " fill="none" stroke="black" /><path d="M30 115 L52 88 L76 65 L85 59 L85 61 L74 87 L43 159 L33 186 L31 193 L35 191 L63 166 L107 119 L142 84 L153 73 L155 73 L147 90 L122 135 L104 167 L102 173 L103 172 L137 146 L170 116 L187 104 L197 97 L200 96 L197 109 L183 141 L178 157 L178 161 L181 161 L201 150 L217 138 L229 130 L234 128 L236 129 L235 137 L219 164 L216 173 L216 174 L229 167 L273 140 L297 122 L306 116 L308 116 L307 120 L294 143 M292 138 L292 141 L290 160 L288 175 L288 179 L292 178 L305 174 L330 161 L339 155 L342 155 L342 156 L340 171 L334 191 L332 199 L332 200 L336 199 L353 192 L376 181 L382 179 L384 179 L382 190 L376 212 L376 220 L379 221 L393 219 L404 215 L417 212 L422 211 L425 215 L425 216 M121 0 L120 5 L117 40 L116 54 L115 64 M218 18 L219 21 L227 48 L232 61 L234 68 L237 76 L238 78 L239 79 L240 79 M352 75 L345 101 L336 130 L332 147 L332 148 M399 118 L405 137 L410 151 L414 165 L416 173 M138 169 L87 179 L31 198 L4 208 L0 209 L0 208 M172 194 L191 221 L204 241 L208 245 M256 220 L259 222 L283 240 L297 253 L303 257 M343 231 L346 235 L367 261 L385 283 L390 289 L394 292 " fill="none" stroke="black" /></svg>