<?xml version="1.0" encoding="utf-8" ?>
<svg baseProfile="tiny" height="256" version="1.2" viewBox="-3 -3 212 256" width="212" xmlns="http://www.w3.org/2000/svg" xmlns:ev="http://www.w3.org/2001/xml-events" xmlns:xlink="http://www.w3.org/1999/xlink"><defs /><path d="M2 14 L2 13 L2 12 L2 11 L2 10 L2 6 L1 2 L1 0 L0 0 " fill="none" stroke="black" /><path d="M2 14 L2 13 L2 12 L2 11 L2 10 L2 6 L1 2 L1 0 L0 0 M108 160 L108 162 L108 166 L108 171 L108 175 L108 178 L109 182 L110 185 L111 189 L112 192 L113 194 L114 196 L115 199 L116 203 L118 206 L120 211 L121 215 L123 218 L125 222 L128 225 L130 229 L134 233 L138 237 L142 241 L145 244 L150 248 L154 251 L158 253 L162 254 L166 255 L170 256 L174 256 L177 256 L179 256 L182 255 L183 253 L185 251 L186 249 L187 248 L190 247 L197 244 L203 242 L206 240 L207 239 L208 237 L209 236 L210 233 L210 232 L212 231 L212 229 L212 228 L212 226 L212 223 L212 218 L211 216 L210 215 L209 211 L208 211 L207 210 L206 209 L204 207 L202 204 L200 201 L198 198 L196 196 L195 194 L193 192 L189 189 L187 188 L184 187 L182 187 L179 186 L177 185 L174 185 L170 185 L169 185 L167 186 L164 187 L162 187 L160 188 L158 189 L157 191 L157 192 L155 193 L154 194 L154 195 L153 197 L153 198 L152 199 L152 200 L152 202 L152 203 L152 205 L152 206 L152 207 L152 208 L152 210 L152 211 L152 213 L153 214 L153 215 L155 216 L155 218 L156 219 L158 220 L159 221 L160 221 L162 221 L163 219 L165 218 L166 217 L167 217 L168 217 L169 216 L170 216 L171 216 L172 216 L173 216 L173 215 L174 215 L175 215 L175 214 L176 213 L176 212 L177 211 L177 209 L177 208 L177 206 L176 205 L176 204 L174 203 L174 202 L173 202 L172 201 L171 201 L172 201 L172 200 L173 200 L174 200 L175 200 L175 201 " fill="none" stroke="black" /></svg>