<?xml version="1.0" encoding="utf-8" ?>
<svg baseProfile="tiny" height="122" version="1.2" viewBox="-3 -3 270 122" width="270" xmlns="http://www.w3.org/2000/svg" xmlns:ev="http://www.w3.org/2001/xml-events" xmlns:xlink="http://www.w3.org/1999/xlink"><defs /><path d="M0 0 L2 22 L5 37 L7 47 L10 59 L11 62 L12 69 L15 76 L16 81 L17 83 L19 88 L20 94 L22 96 L24 100 L25 102 L26 103 L26 104 L27 104 L28 104 L29 103 L30 102 L32 101 L34 98 L36 96 L39 95 L39 94 L40 93 L41 96 L43 99 L45 105 L48 110 L49 110 L50 108 L53 104 L57 103 L60 101 L64 100 L68 99 L75 98 L81 98 L85 98 L88 99 L91 101 L95 104 L98 106 L99 108 L103 110 L105 111 L107 111 L109 111 L112 112 L115 113 L117 113 L120 113 L122 112 L124 111 L125 108 L125 107 L126 106 L127 105 L128 104 L129 104 L129 103 L130 101 L131 101 L132 100 L133 100 L134 102 L136 105 L138 107 L140 109 L142 111 L143 112 L144 114 L145 115 L146 115 L149 115 L152 115 L155 113 L157 112 L159 112 L160 111 L162 110 L164 109 L166 108 L167 108 L167 107 L168 107 L169 106 L171 105 L173 104 L176 104 L178 104 L179 104 L182 104 L184 104 L186 106 L188 107 L190 110 L192 111 L194 112 L195 113 L196 114 L199 115 L201 117 L202 117 L203 117 L204 117 L205 117 L206 116 L208 115 L209 115 L210 113 L211 112 L211 111 L212 111 L214 110 L214 108 L215 108 L216 107 L217 106 L219 105 L221 104 L222 104 L223 103 L224 103 L225 103 L228 103 L231 104 L233 106 L235 107 L236 108 L238 110 L238 111 L240 112 L242 114 L245 117 L248 119 L248 120 L250 120 L252 121 L255 122 L259 122 L263 122 L265 122 L266 122 L267 121 L269 121 L270 120 L268 118 " fill="none" stroke="black" /></svg>