<?xml version="1.0" encoding="utf-8" ?>
<svg baseProfile="tiny" height="205" version="1.2" viewBox="-3 -3 370 205" width="370" xmlns="http://www.w3.org/2000/svg" xmlns:ev="http://www.w3.org/2001/xml-events" xmlns:xlink="http://www.w3.org/1999/xlink"><defs /><path d="M0 111 L1 109 L17 85 L36 64 L53 48 L74 28 L91 9 L100 1 L101 0 L101 1 L100 4 L97 11 L86 29 L71 50 L56 74 L49 89 L47 92 L47 95 L47 96 L49 97 L52 92 L71 74 L95 56 L109 46 L117 41 L119 41 L117 46 L113 57 L102 79 L91 106 L88 117 L88 120 L89 121 L93 117 L115 99 L140 82 L154 73 L162 67 L170 64 L170 63 L170 64 L163 74 L146 100 L140 114 L134 126 L134 131 L134 132 L134 131 L140 124 L163 109 L202 87 L230 68 L247 58 L249 55 L248 57 L243 63 L218 94 L194 126 L183 142 L182 145 L183 145 L190 137 L215 124 L258 98 L289 84 L302 78 L305 76 L306 77 L307 79 L306 85 L287 112 L265 147 L262 160 L262 165 L264 171 L273 173 L291 170 L308 163 L326 158 L349 156 L360 156 L363 156 L368 158 L370 158 L370 162 L365 179 L361 193 L360 200 L359 205 L359 202 " fill="none" stroke="black" /></svg>