<?xml version="1.0" encoding="utf-8" ?>
<svg baseProfile="tiny" height="47" version="1.2" viewBox="-3 -3 182 47" width="182" xmlns="http://www.w3.org/2000/svg" xmlns:ev="http://www.w3.org/2001/xml-events" xmlns:xlink="http://www.w3.org/1999/xlink"><defs /><path d="M0 12 L1 12 L2 12 L2 11 L3 11 L5 10 L5 9 L6 9 L7 8 L8 8 L10 7 L12 7 L14 5 L17 5 L19 4 L20 4 L22 4 L24 3 L25 3 L27 3 L28 3 L29 3 L31 2 L34 1 L35 1 L37 0 L38 0 L39 0 L41 0 L44 0 L46 2 L49 3 L50 4 L53 6 L55 7 L56 8 L57 9 L58 10 L59 11 L61 12 L63 14 L64 14 L66 16 L69 18 L72 19 L74 20 L75 20 L76 21 L79 22 L82 22 L86 23 L91 23 L94 24 L99 25 L102 25 L104 25 L105 24 L107 24 L109 24 L110 24 L112 23 L113 23 L114 22 L115 21 L116 21 L118 21 L120 20 L122 19 L124 18 L126 17 L129 17 L135 15 L136 14 " fill="none" stroke="black" /><path d="M0 12 L1 12 L2 12 L2 11 L3 11 L5 10 L5 9 L6 9 L7 8 L8 8 L10 7 L12 7 L14 5 L17 5 L19 4 L20 4 L22 4 L24 3 L25 3 L27 3 L28 3 L29 3 L31 2 L34 1 L35 1 L37 0 L38 0 L39 0 L41 0 L44 0 L46 2 L49 3 L50 4 L53 6 L55 7 L56 8 L57 9 L58 10 L59 11 L61 12 L63 14 L64 14 L66 16 L69 18 L72 19 L74 20 L75 20 L76 21 L79 22 L82 22 L86 23 L91 23 L94 24 L99 25 L102 25 L104 25 L105 24 L107 24 L109 24 L110 24 L112 23 L113 23 L114 22 L115 21 L116 21 L118 21 L120 20 L122 19 L124 18 L126 17 L129 17 L135 15 L136 14 M30 41 L39 37 L47 32 L52 31 L53 31 L54 31 L55 31 L58 32 L62 33 L65 36 L67 37 L70 38 L73 40 L75 41 L77 43 L79 43 L82 44 L86 46 L89 46 L92 47 L95 47 L97 47 L100 47 L102 47 L104 47 L106 47 L107 47 L109 47 L112 47 L115 47 L116 46 L117 46 L119 45 L120 45 L122 45 L123 45 L125 44 L127 43 L128 43 L129 43 L131 43 L133 42 L134 41 L136 41 L137 41 L137 40 L138 40 L139 39 L140 39 L141 39 L141 38 L142 38 L142 37 L144 37 L145 37 L146 37 L148 37 L150 37 L152 37 L154 36 L155 36 L157 36 L160 36 L163 37 L166 38 L167 38 L169 38 L170 38 L171 38 L172 38 L174 39 L175 40 L176 41 L178 43 L180 45 L181 46 L182 47 " fill="none" stroke="black" /></svg>