<?xml version="1.0" encoding="utf-8" ?>
<svg baseProfile="tiny" height="265" version="1.2" viewBox="-3 -3 321 265" width="321" xmlns="http://www.w3.org/2000/svg" xmlns:ev="http://www.w3.org/2001/xml-events" xmlns:xlink="http://www.w3.org/1999/xlink"><defs /><circle cx="35" cy="260" fill="black" r="1" /><path d="M35 265 L45 258 L63 243 L73 236 L74 236 " fill="none" stroke="black" /><path d="M35 265 L45 258 L63 243 L73 236 L74 236 M66 224 L76 221 L98 218 L109 216 " fill="none" stroke="black" /><path d="M35 265 L45 258 L63 243 L73 236 L74 236 M66 224 L76 221 L98 218 L109 216 M114 224 L122 228 L147 244 L159 252 L157 248 " fill="none" stroke="black" /><path d="M35 265 L45 258 L63 243 L73 236 L74 236 M66 224 L76 221 L98 218 L109 216 M114 224 L122 228 L147 244 L159 252 L157 248 M156 214 L166 203 L187 181 L192 177 " fill="none" stroke="black" /><path d="M35 265 L45 258 L63 243 L73 236 L74 236 M66 224 L76 221 L98 218 L109 216 M114 224 L122 228 L147 244 L159 252 L157 248 M156 214 L166 203 L187 181 L192 177 M193 195 L210 155 L216 128 L219 118 L219 117 " fill="none" stroke="black" /><path d="M35 265 L45 258 L63 243 L73 236 L74 236 M66 224 L76 221 L98 218 L109 216 M114 224 L122 228 L147 244 L159 252 L157 248 M156 214 L166 203 L187 181 L192 177 M193 195 L210 155 L216 128 L219 118 L219 117 M223 135 L241 96 L247 73 L247 70 " fill="none" stroke="black" /><path d="M35 265 L45 258 L63 243 L73 236 L74 236 M66 224 L76 221 L98 218 L109 216 M114 224 L122 228 L147 244 L159 252 L157 248 M156 214 L166 203 L187 181 L192 177 M193 195 L210 155 L216 128 L219 118 L219 117 M223 135 L241 96 L247 73 L247 70 M260 83 L266 65 L272 44 L273 33 L273 29 L273 28 " fill="none" stroke="black" /><path d="M35 265 L45 258 L63 243 L73 236 L74 236 M66 224 L76 221 L98 218 L109 216 M114 224 L122 228 L147 244 L159 252 L157 248 M156 214 L166 203 L187 181 L192 177 M193 195 L210 155 L216 128 L219 118 L219 117 M223 135 L241 96 L247 73 L247 70 M260 83 L266 65 L272 44 L273 33 L273 29 L273 28 M289 73 L300 51 L307 26 L310 12 L310 9 L311 9 " fill="none" stroke="black" /><path d="M35 265 L45 258 L63 243 L73 236 L74 236 M66 224 L76 221 L98 218 L109 216 M114 224 L122 228 L147 244 L159 252 L157 248 M156 214 L166 203 L187 181 L192 177 M193 195 L210 155 L216 128 L219 118 L219 117 M223 135 L241 96 L247 73 L247 70 M260 83 L266 65 L272 44 L273 33 L273 29 L273 28 M289 73 L300 51 L307 26 L310 12 L310 9 L311 9 M0 259 L0 258 L0 250 L1 231 L5 217 L7 215 L7 216 L7 219 L11 231 L17 245 L21 251 L21 252 L22 253 L23 254 L24 255 L25 256 L25 258 L26 258 L26 259 " fill="none" stroke="black" /><path d="M35 265 L45 258 L63 243 L73 236 L74 236 M66 224 L76 221 L98 218 L109 216 M114 224 L122 228 L147 244 L159 252 L157 248 M156 214 L166 203 L187 181 L192 177 M193 195 L210 155 L216 128 L219 118 L219 117 M223 135 L241 96 L247 73 L247 70 M260 83 L266 65 L272 44 L273 33 L273 29 L273 28 M289 73 L300 51 L307 26 L310 12 L310 9 L311 9 M0 259 L0 258 L0 250 L1 231 L5 217 L7 215 L7 216 L7 219 L11 231 L17 245 L21 251 L21 252 L22 253 L23 254 L24 255 L25 256 L25 258 L26 258 L26 259 M41 252 L41 244 L40 235 L40 230 L39 226 L39 222 L39 218 L39 214 L38 213 L40 219 L44 226 L51 235 L61 244 L65 249 L66 250 L67 250 L67 249 " fill="none" stroke="black" /><path d="M35 265 L45 258 L63 243 L73 236 L74 236 M66 224 L76 221 L98 218 L109 216 M114 224 L122 228 L147 244 L159 252 L157 248 M156 214 L166 203 L187 181 L192 177 M193 195 L210 155 L216 128 L219 118 L219 117 M223 135 L241 96 L247 73 L247 70 M260 83 L266 65 L272 44 L273 33 L273 29 L273 28 M289 73 L300 51 L307 26 L310 12 L310 9 L311 9 M0 259 L0 258 L0 250 L1 231 L5 217 L7 215 L7 216 L7 219 L11 231 L17 245 L21 251 L21 252 L22 253 L23 254 L24 255 L25 256 L25 258 L26 258 L26 259 M41 252 L41 244 L40 235 L40 230 L39 226 L39 222 L39 218 L39 214 L38 213 L40 219 L44 226 L51 235 L61 244 L65 249 L66 250 L67 250 L67 249 M75 219 L75 217 L79 197 L81 189 L81 187 L82 187 L84 189 L86 194 L90 201 L94 207 L97 211 L99 214 L102 218 L103 218 " fill="none" stroke="black" /><path d="M35 265 L45 258 L63 243 L73 236 L74 236 M66 224 L76 221 L98 218 L109 216 M114 224 L122 228 L147 244 L159 252 L157 248 M156 214 L166 203 L187 181 L192 177 M193 195 L210 155 L216 128 L219 118 L219 117 M223 135 L241 96 L247 73 L247 70 M260 83 L266 65 L272 44 L273 33 L273 29 L273 28 M289 73 L300 51 L307 26 L310 12 L310 9 L311 9 M0 259 L0 258 L0 250 L1 231 L5 217 L7 215 L7 216 L7 219 L11 231 L17 245 L21 251 L21 252 L22 253 L23 254 L24 255 L25 256 L25 258 L26 258 L26 259 M41 252 L41 244 L40 235 L40 230 L39 226 L39 222 L39 218 L39 214 L38 213 L40 219 L44 226 L51 235 L61 244 L65 249 L66 250 L67 250 L67 249 M75 219 L75 217 L79 197 L81 189 L81 187 L82 187 L84 189 L86 194 L90 201 L94 207 L97 211 L99 214 L102 218 L103 218 M169 204 L168 187 L165 176 L163 168 L163 166 L163 167 L165 169 L167 174 L173 180 L186 191 L193 196 L194 196 " fill="none" stroke="black" /><path d="M35 265 L45 258 L63 243 L73 236 L74 236 M66 224 L76 221 L98 218 L109 216 M114 224 L122 228 L147 244 L159 252 L157 248 M156 214 L166 203 L187 181 L192 177 M193 195 L210 155 L216 128 L219 118 L219 117 M223 135 L241 96 L247 73 L247 70 M260 83 L266 65 L272 44 L273 33 L273 29 L273 28 M289 73 L300 51 L307 26 L310 12 L310 9 L311 9 M0 259 L0 258 L0 250 L1 231 L5 217 L7 215 L7 216 L7 219 L11 231 L17 245 L21 251 L21 252 L22 253 L23 254 L24 255 L25 256 L25 258 L26 258 L26 259 M41 252 L41 244 L40 235 L40 230 L39 226 L39 222 L39 218 L39 214 L38 213 L40 219 L44 226 L51 235 L61 244 L65 249 L66 250 L67 250 L67 249 M75 219 L75 217 L79 197 L81 189 L81 187 L82 187 L84 189 L86 194 L90 201 L94 207 L97 211 L99 214 L102 218 L103 218 M169 204 L168 187 L165 176 L163 168 L163 166 L163 167 L165 169 L167 174 L173 180 L186 191 L193 196 L194 196 M207 155 L200 142 L195 134 L191 125 L190 123 L190 122 L191 122 L194 124 L196 125 L199 127 L203 128 L212 131 L216 132 L217 132 L217 133 " fill="none" stroke="black" /><path d="M35 265 L45 258 L63 243 L73 236 L74 236 M66 224 L76 221 L98 218 L109 216 M114 224 L122 228 L147 244 L159 252 L157 248 M156 214 L166 203 L187 181 L192 177 M193 195 L210 155 L216 128 L219 118 L219 117 M223 135 L241 96 L247 73 L247 70 M260 83 L266 65 L272 44 L273 33 L273 29 L273 28 M289 73 L300 51 L307 26 L310 12 L310 9 L311 9 M0 259 L0 258 L0 250 L1 231 L5 217 L7 215 L7 216 L7 219 L11 231 L17 245 L21 251 L21 252 L22 253 L23 254 L24 255 L25 256 L25 258 L26 258 L26 259 M41 252 L41 244 L40 235 L40 230 L39 226 L39 222 L39 218 L39 214 L38 213 L40 219 L44 226 L51 235 L61 244 L65 249 L66 250 L67 250 L67 249 M75 219 L75 217 L79 197 L81 189 L81 187 L82 187 L84 189 L86 194 L90 201 L94 207 L97 211 L99 214 L102 218 L103 218 M169 204 L168 187 L165 176 L163 168 L163 166 L163 167 L165 169 L167 174 L173 180 L186 191 L193 196 L194 196 M207 155 L200 142 L195 134 L191 125 L190 123 L190 122 L191 122 L194 124 L196 125 L199 127 L203 128 L212 131 L216 132 L217 132 L217 133 M235 107 L235 88 L235 76 L235 68 L235 67 L235 69 L236 74 L239 80 L246 88 L253 93 L259 98 L260 100 " fill="none" stroke="black" /><path d="M35 265 L45 258 L63 243 L73 236 L74 236 M66 224 L76 221 L98 218 L109 216 M114 224 L122 228 L147 244 L159 252 L157 248 M156 214 L166 203 L187 181 L192 177 M193 195 L210 155 L216 128 L219 118 L219 117 M223 135 L241 96 L247 73 L247 70 M260 83 L266 65 L272 44 L273 33 L273 29 L273 28 M289 73 L300 51 L307 26 L310 12 L310 9 L311 9 M0 259 L0 258 L0 250 L1 231 L5 217 L7 215 L7 216 L7 219 L11 231 L17 245 L21 251 L21 252 L22 253 L23 254 L24 255 L25 256 L25 258 L26 258 L26 259 M41 252 L41 244 L40 235 L40 230 L39 226 L39 222 L39 218 L39 214 L38 213 L40 219 L44 226 L51 235 L61 244 L65 249 L66 250 L67 250 L67 249 M75 219 L75 217 L79 197 L81 189 L81 187 L82 187 L84 189 L86 194 L90 201 L94 207 L97 211 L99 214 L102 218 L103 218 M169 204 L168 187 L165 176 L163 168 L163 166 L163 167 L165 169 L167 174 L173 180 L186 191 L193 196 L194 196 M207 155 L200 142 L195 134 L191 125 L190 123 L190 122 L191 122 L194 124 L196 125 L199 127 L203 128 L212 131 L216 132 L217 132 L217 133 M235 107 L235 88 L235 76 L235 68 L235 67 L235 69 L236 74 L239 80 L246 88 L253 93 L259 98 L260 100 M271 38 L271 37 L271 26 L272 20 L272 18 L273 14 L274 12 L275 10 L278 4 L279 2 L280 1 L280 0 L281 0 L281 1 L282 3 L285 6 L296 9 L306 11 L316 14 L320 17 L321 18 " fill="none" stroke="black" /></svg>