<?xml version="1.0" encoding="utf-8" ?>
<svg baseProfile="tiny" height="93" version="1.2" viewBox="-3 -3 370 93" width="370" xmlns="http://www.w3.org/2000/svg" xmlns:ev="http://www.w3.org/2001/xml-events" xmlns:xlink="http://www.w3.org/1999/xlink"><defs /><path d="M0 81 L11 81 L25 83 L34 85 L41 86 L51 86 L57 86 L67 86 L77 86 L86 86 L94 86 L105 87 L117 88 L129 89 L143 89 L155 90 L169 90 L180 90 L191 90 L204 89 L216 89 L225 89 L240 89 L246 89 L257 89 L267 90 L281 90 L290 89 L300 89 L313 88 L325 87 L335 85 L343 82 L348 82 L352 81 L354 81 L358 81 L362 81 L363 81 L364 81 L370 81 " fill="none" stroke="black" /><path d="M0 81 L11 81 L25 83 L34 85 L41 86 L51 86 L57 86 L67 86 L77 86 L86 86 L94 86 L105 87 L117 88 L129 89 L143 89 L155 90 L169 90 L180 90 L191 90 L204 89 L216 89 L225 89 L240 89 L246 89 L257 89 L267 90 L281 90 L290 89 L300 89 L313 88 L325 87 L335 85 L343 82 L348 82 L352 81 L354 81 L358 81 L362 81 L363 81 L364 81 L370 81 M41 85 L46 76 L57 61 L61 55 L65 48 L67 42 L70 37 L72 32 L73 27 L73 24 L73 23 L73 26 L73 32 L74 40 L75 47 L75 51 L76 60 L77 66 L77 70 L78 73 L78 76 L79 79 L79 81 L80 83 L80 84 L80 85 " fill="none" stroke="black" /><path d="M0 81 L11 81 L25 83 L34 85 L41 86 L51 86 L57 86 L67 86 L77 86 L86 86 L94 86 L105 87 L117 88 L129 89 L143 89 L155 90 L169 90 L180 90 L191 90 L204 89 L216 89 L225 89 L240 89 L246 89 L257 89 L267 90 L281 90 L290 89 L300 89 L313 88 L325 87 L335 85 L343 82 L348 82 L352 81 L354 81 L358 81 L362 81 L363 81 L364 81 L370 81 M41 85 L46 76 L57 61 L61 55 L65 48 L67 42 L70 37 L72 32 L73 27 L73 24 L73 23 L73 26 L73 32 L74 40 L75 47 L75 51 L76 60 L77 66 L77 70 L78 73 L78 76 L79 79 L79 81 L80 83 L80 84 L80 85 M166 89 L169 85 L184 59 L191 42 L195 32 L197 27 L201 15 L204 10 L206 2 L207 0 L207 4 L207 12 L207 25 L208 39 L210 49 L212 56 L213 60 L215 63 L217 70 L218 75 L219 78 L219 82 L221 85 L221 90 L222 93 L223 93 L223 92 " fill="none" stroke="black" /><path d="M0 81 L11 81 L25 83 L34 85 L41 86 L51 86 L57 86 L67 86 L77 86 L86 86 L94 86 L105 87 L117 88 L129 89 L143 89 L155 90 L169 90 L180 90 L191 90 L204 89 L216 89 L225 89 L240 89 L246 89 L257 89 L267 90 L281 90 L290 89 L300 89 L313 88 L325 87 L335 85 L343 82 L348 82 L352 81 L354 81 L358 81 L362 81 L363 81 L364 81 L370 81 M41 85 L46 76 L57 61 L61 55 L65 48 L67 42 L70 37 L72 32 L73 27 L73 24 L73 23 L73 26 L73 32 L74 40 L75 47 L75 51 L76 60 L77 66 L77 70 L78 73 L78 76 L79 79 L79 81 L80 83 L80 84 L80 85 M166 89 L169 85 L184 59 L191 42 L195 32 L197 27 L201 15 L204 10 L206 2 L207 0 L207 4 L207 12 L207 25 L208 39 L210 49 L212 56 L213 60 L215 63 L217 70 L218 75 L219 78 L219 82 L221 85 L221 90 L222 93 L223 93 L223 92 M283 90 L285 86 L298 70 L309 57 L316 49 L320 39 L324 30 L332 17 L336 9 L336 6 L337 6 L338 11 L340 15 L344 24 L348 37 L352 43 L356 53 L360 60 L361 63 L363 66 L364 70 L365 73 L366 73 L367 74 L368 75 L369 77 L370 77 " fill="none" stroke="black" /></svg>