<?xml version="1.0" encoding="utf-8" ?>
<svg baseProfile="tiny" height="167" version="1.2" viewBox="-3 -3 228 167" width="228" xmlns="http://www.w3.org/2000/svg" xmlns:ev="http://www.w3.org/2001/xml-events" xmlns:xlink="http://www.w3.org/1999/xlink"><defs /><path d="M0 167 L4 148 L12 122 L17 102 L23 84 L23 74 L25 61 L25 50 L25 36 L26 22 L26 17 L26 14 L26 12 L26 10 L26 8 L25 6 L25 4 L24 3 L24 1 L24 0 L24 1 L24 3 L24 8 L26 17 L30 35 L33 44 L36 55 L38 65 L40 75 L40 85 L42 93 L42 95 L42 97 L43 99 L44 105 L45 110 L45 112 L46 116 L47 119 L48 120 L49 125 L50 129 L50 131 L51 135 L52 136 L53 139 L53 140 L53 141 L54 141 L54 142 L55 143 " fill="none" stroke="black" /><circle cx="74" cy="143" fill="black" r="1" /><circle cx="92" cy="143" fill="black" r="1" /><circle cx="111" cy="143" fill="black" r="1" /><circle cx="128" cy="142" fill="black" r="1" /><circle cx="142" cy="146" fill="black" r="1" /><circle cx="162" cy="146" fill="black" r="1" /><circle cx="180" cy="146" fill="black" r="1" /><circle cx="201" cy="144" fill="black" r="1" /><circle cx="216" cy="144" fill="black" r="1" /><circle cx="228" cy="144" fill="black" r="1" /></svg>