<?xml version="1.0" encoding="utf-8" ?>
<svg baseProfile="tiny" height="29" version="1.2" viewBox="-3 -3 120 29" width="120" xmlns="http://www.w3.org/2000/svg" xmlns:ev="http://www.w3.org/2001/xml-events" xmlns:xlink="http://www.w3.org/1999/xlink"><defs /><path d="M0 29 L1 27 L1 22 L1 18 L1 15 L1 13 L1 12 L1 10 L1 9 L1 10 L1 12 L2 17 L3 20 L5 22 L7 24 L7 25 L9 25 L10 25 L11 25 L12 25 L14 21 L14 18 L14 15 L13 12 L13 9 L13 8 L13 7 L13 5 L13 4 L14 4 L15 6 L15 10 L17 13 L19 16 L20 18 L23 21 L24 22 L26 22 L28 23 L29 23 L31 21 L32 16 L32 12 L32 9 L32 8 L32 7 L32 6 L32 5 L32 6 L33 9 L35 12 L38 15 L40 16 L41 17 L43 17 L44 15 L44 13 L44 10 L45 6 L45 4 L45 2 L46 1 L46 0 L47 1 L47 4 L48 7 L49 10 L50 12 L51 13 L52 14 L53 15 L53 16 L54 16 L55 16 L58 11 L59 7 L61 6 L64 5 L66 4 L66 3 L66 2 L65 2 L65 3 L64 5 L64 8 L64 9 L66 10 L66 11 L67 12 L68 14 L70 15 L71 16 L72 17 L75 17 L77 13 L78 10 L79 10 L79 9 L78 11 L80 13 L82 16 L82 17 L84 18 L85 18 L87 18 L89 16 L90 10 L90 6 L90 4 L91 3 L92 1 L92 0 L93 0 L93 1 L93 3 L93 6 L94 8 L95 10 L97 12 L98 14 L98 15 L99 15 L100 15 L101 13 L102 12 L104 9 L105 7 L105 5 L106 5 L106 4 L106 5 L106 7 L106 10 L108 13 L109 13 L110 14 L111 14 L112 14 L113 14 L114 14 L116 12 L117 11 L118 10 L118 9 L118 8 L119 8 L120 7 L120 6 L119 6 L119 5 " fill="none" stroke="black" /></svg>