<?xml version="1.0" encoding="utf-8" ?>
<svg baseProfile="tiny" height="425" version="1.2" viewBox="-3 -3 638 425" width="638" xmlns="http://www.w3.org/2000/svg" xmlns:ev="http://www.w3.org/2001/xml-events" xmlns:xlink="http://www.w3.org/1999/xlink"><defs /><path d="M0 226 L10 225 L37 220 L67 208 L112 179 L143 148 L174 102 L196 55 L202 30 L203 20 L202 14 L198 7 L194 1 L191 0 L189 0 L188 1 L188 3 L188 5 L188 7 L190 9 L192 11 L194 13 L196 17 L198 22 L200 27 L201 31 L203 35 L203 41 L205 46 L207 51 L209 61 L213 74 L219 85 L224 95 L230 109 L238 127 L246 142 L254 153 L262 168 L267 177 L272 186 L278 194 L285 202 L290 207 L294 211 L300 216 L303 219 L308 224 L314 229 L321 236 L323 238 L331 243 L338 247 L342 250 L347 254 L351 257 L355 260 L361 265 L367 268 L373 272 L381 276 L387 278 L392 280 L396 281 L398 281 L403 283 L410 285 L412 287 L416 288 L419 289 L420 289 L420 290 L429 294 L433 297 L438 304 L444 313 L452 322 L463 335 L470 345 L474 353 L479 358 L487 366 L497 374 L505 380 L517 388 L528 395 L536 400 L545 406 L554 413 L564 418 L575 423 L585 425 L598 425 L610 423 L620 413 L629 399 L635 390 L638 360 " fill="none" stroke="black" /></svg>