<?xml version="1.0" encoding="utf-8" ?>
<svg baseProfile="tiny" height="530" version="1.2" viewBox="-3 -3 491 530" width="491" xmlns="http://www.w3.org/2000/svg" xmlns:ev="http://www.w3.org/2001/xml-events" xmlns:xlink="http://www.w3.org/1999/xlink"><defs /><path d="M27 287 L29 290 L35 302 L53 337 L70 368 L75 375 L76 375 L82 359 L112 297 L123 259 L125 251 L127 254 L135 278 L144 314 L151 357 L153 367 L153 365 L160 334 L186 224 L193 181 L194 180 L198 208 L192 310 L191 355 L191 361 L206 334 L245 255 L261 210 L263 211 L255 270 L228 403 L220 440 L232 423 L293 301 L326 217 L329 200 L277 255 L203 327 L185 335 L180 301 L187 227 L190 215 L175 244 L144 284 L140 283 L162 220 L177 166 L159 189 L82 299 L68 314 L80 260 L118 141 L126 148 L76 279 L37 358 L35 358 L93 256 L129 216 L118 306 L75 439 L68 459 L113 376 L186 264 L204 255 L175 350 L139 433 L137 436 L203 315 L280 176 L283 174 L210 303 L162 385 L159 389 L212 300 L287 196 L290 235 L209 425 L171 511 L181 498 L290 332 L367 214 L359 242 L296 375 L281 407 L313 370 L435 226 L466 207 L411 319 L317 432 L300 448 L306 395 L320 278 L302 274 L226 358 L186 399 L185 381 L249 199 L272 122 L237 187 L138 363 L116 392 L133 302 L199 62 L220 0 L201 39 L103 215 L46 333 L42 332 L92 222 L106 193 L70 291 L13 418 L0 442 L22 367 L94 223 L126 207 L114 294 L78 432 L79 443 L164 326 L234 243 L234 274 L157 478 L138 530 L171 472 L276 286 L301 250 L286 344 L242 482 L239 498 L300 375 L440 139 L491 74 L474 119 L365 275 L278 364 L261 364 L247 335 L245 331 L216 377 L186 415 L176 414 L182 351 L235 251 L291 219 L307 262 L302 304 L299 310 L296 300 L289 280 " fill="none" stroke="black" /></svg>