<?xml version="1.0" encoding="utf-8" ?>
<svg baseProfile="tiny" height="48" version="1.2" viewBox="-3 -3 190 48" width="190" xmlns="http://www.w3.org/2000/svg" xmlns:ev="http://www.w3.org/2001/xml-events" xmlns:xlink="http://www.w3.org/1999/xlink"><defs /><path d="M0 48 L4 48 L7 48 L10 48 L13 48 L16 48 L18 48 L21 48 L26 48 L29 47 L31 47 L35 46 L37 45 L39 45 L41 44 L43 44 L44 43 L45 43 L47 42 L50 40 L53 38 L54 36 L57 35 L60 32 L62 29 L63 28 L64 28 L65 27 L65 26 L66 25 L66 24 L67 24 L68 23 L68 22 L68 21 L69 21 L69 19 L70 18 L70 17 L72 16 L72 14 L74 12 L75 10 L77 9 L77 8 L78 8 L78 7 L78 6 L78 5 L79 5 L79 4 L80 3 L81 3 L82 2 L82 1 L83 1 L83 0 L85 0 L86 0 L87 0 L88 0 L89 0 L90 2 L92 3 L93 6 L93 7 L94 7 L94 8 L95 8 L96 9 L96 10 L97 10 L98 11 L99 12 L100 14 L101 15 L102 16 L104 17 L105 17 L106 18 L107 19 L109 21 L109 22 L110 23 L112 23 L113 24 L114 26 L116 27 L117 27 L118 28 L119 29 L120 30 L122 32 L124 32 L126 33 L126 34 L128 34 L129 34 L130 35 L133 35 L135 36 L137 36 L139 36 L140 37 L141 38 L143 38 L144 38 L145 38 L147 38 L148 39 L149 39 L150 39 L151 39 L152 39 L153 39 L154 39 L155 39 L156 39 L157 39 L158 39 L159 39 L160 39 L161 39 L162 39 L164 39 L165 39 L167 39 L169 39 L171 39 L173 39 L175 39 L177 39 L180 39 L181 39 L183 40 L184 40 L185 40 L186 40 L187 41 L188 42 L189 42 L190 42 L190 43 " fill="none" stroke="black" /></svg>