<?xml version="1.0" encoding="utf-8" ?>
<svg baseProfile="tiny" height="27" version="1.2" viewBox="-3 -3 128 27" width="128" xmlns="http://www.w3.org/2000/svg" xmlns:ev="http://www.w3.org/2001/xml-events" xmlns:xlink="http://www.w3.org/1999/xlink"><defs /><path d="M0 0 L0 5 L0 8 L0 10 L0 11 L0 13 L0 14 L0 15 " fill="none" stroke="black" /><path d="M0 0 L0 5 L0 8 L0 10 L0 11 L0 13 L0 14 L0 15 M11 6 L11 12 L11 16 L11 17 L11 18 L12 18 " fill="none" stroke="black" /><path d="M0 0 L0 5 L0 8 L0 10 L0 11 L0 13 L0 14 L0 15 M11 6 L11 12 L11 16 L11 17 L11 18 L12 18 M29 1 L29 2 L28 6 L28 10 L28 14 L28 16 L28 17 L30 19 " fill="none" stroke="black" /><path d="M0 0 L0 5 L0 8 L0 10 L0 11 L0 13 L0 14 L0 15 M11 6 L11 12 L11 16 L11 17 L11 18 L12 18 M29 1 L29 2 L28 6 L28 10 L28 14 L28 16 L28 17 L30 19 M43 4 L43 8 L43 15 L44 18 L44 21 L45 22 L45 24 L45 25 " fill="none" stroke="black" /><path d="M0 0 L0 5 L0 8 L0 10 L0 11 L0 13 L0 14 L0 15 M11 6 L11 12 L11 16 L11 17 L11 18 L12 18 M29 1 L29 2 L28 6 L28 10 L28 14 L28 16 L28 17 L30 19 M43 4 L43 8 L43 15 L44 18 L44 21 L45 22 L45 24 L45 25 M69 4 L70 7 L71 12 L72 13 L72 15 L72 17 L72 18 L72 19 " fill="none" stroke="black" /><path d="M0 0 L0 5 L0 8 L0 10 L0 11 L0 13 L0 14 L0 15 M11 6 L11 12 L11 16 L11 17 L11 18 L12 18 M29 1 L29 2 L28 6 L28 10 L28 14 L28 16 L28 17 L30 19 M43 4 L43 8 L43 15 L44 18 L44 21 L45 22 L45 24 L45 25 M69 4 L70 7 L71 12 L72 13 L72 15 L72 17 L72 18 L72 19 M86 6 L86 11 L86 17 L86 21 L86 24 L86 26 L86 27 " fill="none" stroke="black" /><path d="M0 0 L0 5 L0 8 L0 10 L0 11 L0 13 L0 14 L0 15 M11 6 L11 12 L11 16 L11 17 L11 18 L12 18 M29 1 L29 2 L28 6 L28 10 L28 14 L28 16 L28 17 L30 19 M43 4 L43 8 L43 15 L44 18 L44 21 L45 22 L45 24 L45 25 M69 4 L70 7 L71 12 L72 13 L72 15 L72 17 L72 18 L72 19 M86 6 L86 11 L86 17 L86 21 L86 24 L86 26 L86 27 M105 6 L105 14 L105 20 L106 22 L106 25 L106 26 L106 27 " fill="none" stroke="black" /><path d="M0 0 L0 5 L0 8 L0 10 L0 11 L0 13 L0 14 L0 15 M11 6 L11 12 L11 16 L11 17 L11 18 L12 18 M29 1 L29 2 L28 6 L28 10 L28 14 L28 16 L28 17 L30 19 M43 4 L43 8 L43 15 L44 18 L44 21 L45 22 L45 24 L45 25 M69 4 L70 7 L71 12 L72 13 L72 15 L72 17 L72 18 L72 19 M86 6 L86 11 L86 17 L86 21 L86 24 L86 26 L86 27 M105 6 L105 14 L105 20 L106 22 L106 25 L106 26 L106 27 M126 5 L126 10 L126 14 L126 15 L126 17 L127 20 L127 21 L127 22 L128 23 " fill="none" stroke="black" /></svg>