<?xml version="1.0" encoding="utf-8" ?>
<svg baseProfile="tiny" height="12" version="1.2" viewBox="-3 -3 556 12" width="556" xmlns="http://www.w3.org/2000/svg" xmlns:ev="http://www.w3.org/2001/xml-events" xmlns:xlink="http://www.w3.org/1999/xlink"><defs /><path d="M0 8 L1 8 L15 8 L26 8 L32 8 L38 7 L45 7 L51 6 L59 6 L64 6 L71 5 L77 5 L82 5 L89 4 L95 3 L104 1 L109 0 L117 0 L126 0 L136 0 L144 0 L151 1 L157 1 L166 1 L175 2 L185 2 L194 2 L199 4 L205 4 L213 4 L218 4 L226 4 L231 4 L237 5 L241 5 L247 5 L253 5 L258 4 L264 4 L270 4 L276 4 L283 4 L286 4 L292 5 L301 5 L307 5 L313 5 L318 5 L321 5 L325 6 L333 6 L339 7 L346 8 L355 8 L357 9 L359 9 L363 10 L367 10 L372 10 L374 10 L386 12 L390 12 L391 12 L402 12 L406 12 L406 11 L407 11 L417 10 L419 10 L420 10 L432 9 L438 9 L439 9 L442 9 L454 9 L463 10 L470 10 L485 11 L498 11 L512 10 L526 10 L536 10 L545 10 L550 10 L556 10 " fill="none" stroke="black" /></svg>