<?xml version="1.0" encoding="utf-8" ?>
<svg baseProfile="tiny" height="480" version="1.2" viewBox="-3 -3 766 480" width="766" xmlns="http://www.w3.org/2000/svg" xmlns:ev="http://www.w3.org/2001/xml-events" xmlns:xlink="http://www.w3.org/1999/xlink"><defs /><circle cx="179" cy="247" fill="black" r="1" /><path d="M190 237 L228 198 L261 164 L284 144 L286 142 L270 166 L178 282 L123 359 L109 392 L108 399 L114 397 L193 318 L290 214 L353 151 L389 118 L388 119 L317 201 L230 295 L163 377 L149 403 L216 329 L305 230 L397 137 L435 107 L437 111 L387 179 L287 304 L219 403 L205 427 L205 428 L225 408 L338 281 L406 203 L434 168 L434 167 L391 218 L300 317 L241 397 L228 415 L228 416 L283 349 L385 226 L458 152 L473 142 L470 149 L374 255 L278 360 L245 400 L236 414 L240 408 L343 299 L431 205 L511 131 L522 123 L498 150 L393 266 L309 373 L264 434 L254 449 L256 444 L337 355 L466 215 L536 140 L573 111 L565 132 L496 211 L393 332 L353 386 L348 391 L364 376 L468 270 L584 152 L626 113 L625 115 L564 169 L390 327 L273 449 L260 462 L266 453 L370 350 L526 184 L607 92 L614 87 L565 131 L390 290 L258 442 L234 480 L235 478 L349 359 L516 178 L678 37 L733 0 L728 7 L612 128 L452 302 L386 393 L379 414 L405 405 L537 320 L677 223 L704 203 L704 204 L616 270 L503 356 L447 397 L503 342 L665 182 L752 98 L766 81 L763 86 L655 186 L524 312 L452 387 L428 416 L432 413 L560 317 L695 223 L744 188 L753 180 L740 189 L609 293 L504 380 L448 432 L442 438 L501 378 L639 236 L715 147 L747 101 L748 98 L671 151 L525 253 L371 370 L301 422 L289 427 L304 391 L356 294 L368 234 L343 209 L266 203 L132 227 L27 284 L2 299 L0 299 L0 296 L72 199 L101 164 L105 160 " fill="none" stroke="black" /></svg>