<?xml version="1.0" encoding="utf-8" ?>
<svg baseProfile="tiny" height="584" version="1.2" viewBox="-3 -3 622 584" width="622" xmlns="http://www.w3.org/2000/svg" xmlns:ev="http://www.w3.org/2001/xml-events" xmlns:xlink="http://www.w3.org/1999/xlink"><defs /><path d="M84 164 L65 198 L58 217 L57 225 L61 227 L127 180 L265 64 L318 10 L326 0 L284 32 L165 156 L91 301 L80 376 L94 396 L167 356 L286 263 L374 164 L379 131 L333 160 L219 296 L169 385 L174 396 L242 350 L338 244 L354 198 L317 206 L204 305 L124 436 L134 486 L181 478 L308 364 L395 219 L378 133 L326 117 L188 235 L100 417 L105 463 L203 409 L281 302 L281 189 L199 187 L60 298 L12 388 L29 406 L120 363 L247 247 L270 155 L232 130 L79 229 L0 364 L16 395 L142 343 L256 255 L301 173 L264 152 L120 268 L55 386 L70 422 L184 396 L359 281 L406 183 L380 151 L213 293 L106 472 L118 504 L233 484 L397 381 L442 311 L427 294 L342 386 L266 536 L282 584 L349 568 L414 517 L433 469 L466 437 L541 335 L577 264 L572 235 L531 224 L435 256 L381 305 L374 319 L395 312 L450 270 L476 202 L461 185 L389 219 L320 292 L321 327 L350 331 L398 309 L435 270 L436 214 L401 191 L323 233 L265 329 L275 364 L329 356 L396 319 L442 247 L427 198 L350 216 L250 295 L200 372 L204 389 L244 376 L313 319 L346 260 L339 213 L288 220 L219 271 L201 311 L211 330 L270 303 L375 199 L396 136 L370 112 L333 130 L295 191 L300 237 L315 246 L396 256 L500 243 L590 217 L622 202 L619 190 L573 182 L512 213 L483 245 L481 255 L490 255 L517 231 L529 197 L513 152 L474 140 L431 166 L412 203 L413 222 L430 226 L481 193 L515 145 L515 108 L487 99 L435 127 L403 165 L398 183 L398 185 L399 185 " fill="none" stroke="black" /></svg>