<?xml version="1.0" encoding="utf-8" ?>
<svg baseProfile="tiny" height="551" version="1.2" viewBox="-3 -3 915 551" width="915" xmlns="http://www.w3.org/2000/svg" xmlns:ev="http://www.w3.org/2001/xml-events" xmlns:xlink="http://www.w3.org/1999/xlink"><defs /><path d="M345 408 L387 412 L463 387 L522 343 L544 279 L542 228 L509 197 L405 253 L346 331 L340 367 L358 401 L395 410 L441 387 L479 330 L504 242 L508 152 L469 119 L287 190 L133 318 L48 457 L51 503 L86 515 L197 460 L262 405 L297 342 L294 285 L244 254 L134 270 L40 380 L12 464 L29 502 L72 508 L143 469 L221 376 L254 271 L250 182 L204 151 L111 200 L57 296 L70 344 L106 363 L226 350 L365 281 L487 159 L515 81 L476 96 L323 276 L296 373 L327 408 L424 402 L555 350 L627 273 L643 198 L626 173 L569 189 L492 253 L477 312 L503 340 L538 345 L624 305 L699 248 L718 223 L710 207 L671 198 L660 199 L659 206 L653 264 L658 313 L678 356 L728 376 L803 362 L856 324 L901 247 L915 119 L874 34 L759 87 L620 222 L544 377 L552 430 L599 454 L723 426 L815 364 L865 266 L854 187 L754 139 L636 168 L496 282 L432 405 L429 476 L455 517 L491 521 L554 481 L596 406 L596 338 L548 265 L460 222 L315 292 L213 425 L197 498 L213 543 L263 551 L346 506 L390 429 L393 335 L352 233 L251 136 L179 137 L72 225 L32 347 L51 405 L110 426 L196 405 L270 346 L280 294 L245 198 L192 150 L120 174 L23 287 L0 375 L27 422 L79 442 L189 411 L296 321 L356 187 L376 69 L358 35 L272 109 L213 245 L211 345 L233 387 L279 404 L381 366 L505 259 L584 122 L613 12 L590 0 L494 80 L440 164 L426 253 L451 304 L504 322 L582 297 L630 242 L662 149 L645 100 L598 108 L532 159 L506 195 L503 215 L504 218 " fill="none" stroke="black" /></svg>