<?xml version="1.0" encoding="utf-8" ?>
<svg baseProfile="tiny" height="409" version="1.2" viewBox="-3 -3 489 409" width="489" xmlns="http://www.w3.org/2000/svg" xmlns:ev="http://www.w3.org/2001/xml-events" xmlns:xlink="http://www.w3.org/1999/xlink"><defs /><path d="M358 149 L294 215 L290 222 L301 214 L367 125 L380 83 L355 84 L286 177 L260 290 L296 360 L358 352 L450 274 L470 180 L420 86 L335 99 L264 214 L271 266 L307 279 L338 241 L335 189 L297 185 L238 283 L223 400 L247 409 L288 302 L308 103 L298 75 L244 184 L236 323 L269 365 L279 352 L284 189 L294 52 L290 64 L285 186 L316 255 L356 255 L415 161 L457 14 L454 0 L380 111 L353 193 L383 227 L406 226 L425 181 L417 116 L384 118 L301 238 L290 307 L325 331 L363 313 L394 226 L378 144 L336 144 L277 225 L282 275 L319 290 L371 265 L410 186 L401 116 L366 105 L264 201 L239 278 L277 308 L349 284 L384 237 L381 164 L336 124 L203 178 L109 297 L112 343 L140 361 L152 355 L130 295 L59 242 L5 234 L0 239 L6 251 L78 268 L210 240 L395 202 L483 183 L489 182 L465 180 L381 192 L229 261 L193 283 L195 279 L293 197 L378 107 L394 66 L339 78 L211 156 L167 201 L183 223 L241 240 L304 232 L317 225 L318 222 L313 222 L302 237 L303 248 L311 253 L338 239 L356 187 L353 145 L317 90 L231 118 L157 208 L161 268 L207 327 L260 340 L334 326 L381 287 L411 212 L410 138 L377 118 L280 186 L239 235 L236 275 L261 298 L304 287 L344 240 L356 191 L349 149 L299 172 L238 252 L240 287 L263 292 L305 264 L338 202 L352 128 L346 115 L297 170 L280 228 L289 242 L304 239 L337 191 L353 146 L353 145 L344 158 L335 191 L337 196 L344 192 L374 137 L377 106 L368 101 L345 119 L343 122 L343 123 " fill="none" stroke="black" /></svg>