<?xml version="1.0" encoding="utf-8" ?>
<svg baseProfile="tiny" height="453" version="1.2" viewBox="-3 -3 667 453" width="667" xmlns="http://www.w3.org/2000/svg" xmlns:ev="http://www.w3.org/2001/xml-events" xmlns:xlink="http://www.w3.org/1999/xlink"><defs /><path d="M300 115 L275 157 L252 191 L248 201 L248 205 L248 206 L248 207 L238 202 L173 174 L111 160 L60 153 L24 144 L2 131 L1 130 L0 129 L3 128 L55 116 L129 99 L201 96 L277 99 L330 101 L374 105 L391 105 L393 105 L393 106 L380 125 L321 192 L284 228 L248 259 L222 278 L218 281 L216 281 L216 278 L277 202 L367 127 L456 51 L504 10 L509 7 L494 29 L451 77 L409 132 L357 220 L322 285 L308 311 L306 314 L304 314 L306 312 L381 261 L431 230 L464 216 L477 213 L428 274 L377 347 L349 402 L341 444 L344 453 L359 451 L403 414 L466 347 L507 301 L531 269 L538 242 L533 227 L523 224 L477 250 L416 306 L392 350 L376 401 L381 417 L394 423 L426 422 L479 397 L532 355 L577 297 L622 228 L654 164 L652 137 L630 131 L606 139 L566 167 L530 208 L513 252 L511 278 L515 297 L525 305 L545 308 L572 296 L604 259 L634 212 L659 155 L667 112 L659 93 L616 81 L551 93 L496 121 L403 191 L363 230 L343 276 L351 295 L373 305 L414 300 L450 283 L481 253 L504 202 L501 146 L476 113 L435 97 L353 118 L274 159 L223 200 L204 235 L203 262 L217 287 L244 303 L280 308 L321 296 L360 261 L412 177 L426 118 L425 72 L404 48 L381 43 L349 52 L326 66 L314 77 L310 82 L309 84 L308 86 L306 93 L306 101 L309 108 L313 114 L315 116 L317 116 L319 117 L321 117 L327 117 L353 102 L375 66 L382 18 L379 3 L371 0 L344 7 L294 45 L271 72 L259 90 L259 93 L259 95 L260 99 L260 101 " fill="none" stroke="black" /></svg>