<?xml version="1.0" encoding="utf-8" ?>
<svg baseProfile="tiny" height="420" version="1.2" viewBox="-3 -3 648 420" width="648" xmlns="http://www.w3.org/2000/svg" xmlns:ev="http://www.w3.org/2001/xml-events" xmlns:xlink="http://www.w3.org/1999/xlink"><defs /><path d="M88 329 L82 389 L81 420 L83 405 L123 266 L156 181 L186 130 L187 134 L183 177 L167 247 L159 297 L159 304 L158 291 L195 152 L222 73 L223 84 L202 172 L185 262 L185 291 L186 294 L202 219 L248 71 L273 9 L268 42 L248 137 L239 229 L242 255 L242 256 L242 254 L257 158 L300 2 L304 0 L293 83 L283 202 L290 236 L294 244 L294 235 L299 186 L299 194 L317 276 L345 321 L371 342 L380 344 L386 331 L411 244 L436 168 L439 167 L443 189 L446 242 L457 288 L466 311 L467 313 L479 179 L491 103 L493 97 L489 152 L485 204 L490 227 L490 228 L512 141 L537 30 L541 27 L539 71 L533 133 L535 164 L538 170 L538 171 L557 140 L608 55 L622 55 L641 87 L642 148 L644 186 L646 212 L648 216 L632 112 L622 55 L604 44 L490 103 L294 228 L210 304 L194 324 L194 317 L227 249 L229 209 L197 173 L148 159 L82 198 L54 230 L34 283 L32 299 L33 298 L56 231 L53 170 L36 119 L11 99 L3 104 L0 129 L21 167 L60 188 L140 201 L253 205 L297 198 L316 172 L314 156 L264 220 L211 351 L206 395 L219 411 L273 409 L339 390 L394 351 L420 312 L423 303 L414 307 L384 327 L381 329 L390 304 L411 225 L413 163 L410 157 L389 190 L361 260 L365 276 L370 280 L381 277 L430 215 L447 140 L448 101 L440 110 L398 190 L386 244 L391 254 L412 259 L459 249 L503 213 L534 168 L542 151 L540 157 L485 220 L468 256 L470 274 L483 276 L542 247 L579 221 L585 216 L574 219 L560 225 L558 225 L558 226 " fill="none" stroke="black" /></svg>