<?xml version="1.0" encoding="utf-8" ?>
<svg baseProfile="tiny" height="427" version="1.2" viewBox="-3 -3 900 427" width="900" xmlns="http://www.w3.org/2000/svg" xmlns:ev="http://www.w3.org/2001/xml-events" xmlns:xlink="http://www.w3.org/1999/xlink"><defs /><path d="M287 144 L287 148 L287 149 L287 148 L292 137 L305 118 L310 112 L311 112 L307 127 " fill="none" stroke="black" /><path d="M287 144 L287 148 L287 149 L287 148 L292 137 L305 118 L310 112 L311 112 L307 127 M307 127 L287 145 L274 159 L273 161 L351 50 L383 15 L383 17 L358 59 L321 130 L314 150 L314 149 L338 118 L359 102 L362 103 L357 142 L341 199 L340 208 L350 194 L379 157 L380 156 L328 210 L295 247 L293 250 L305 228 L356 152 L355 151 L298 191 L238 235 L208 251 L227 197 L293 71 L297 62 L267 88 L227 131 L216 158 L218 160 L259 115 L283 95 L292 116 L297 166 L306 203 L334 204 L465 123 L529 82 L521 93 L483 140 L429 202 L425 206 L465 173 L509 136 L512 136 L462 194 L421 234 L418 236 L418 235 L406 248 L399 279 L407 283 L466 251 L562 197 L605 189 L599 210 L534 290 L502 335 L515 328 L611 254 L706 172 L728 161 L720 178 L694 211 L693 221 L752 195 L861 110 L873 100 L828 136 L741 214 L711 247 L748 226 L868 141 L900 113 L891 125 L790 224 L716 318 L713 322 L756 290 L847 207 L856 197 L830 225 L711 339 L668 378 L668 361 L711 257 L761 96 L741 21 L598 69 L392 193 L305 240 L298 238 L351 168 L379 132 L376 141 L309 235 L210 398 L197 427 L207 397 L251 309 L252 251 L182 280 L50 382 L0 413 L1 401 L84 276 L184 154 L206 152 L206 181 L197 235 L227 260 L354 209 L524 117 L621 82 L630 111 L587 199 L574 229 L599 208 L695 96 L763 0 L756 8 L647 116 L541 229 L507 265 L518 242 L596 108 L617 59 L606 66 L499 156 L407 228 L400 233 L400 232 L400 231 L403 231 L428 229 " fill="none" stroke="black" /></svg>