<?xml version="1.0" encoding="utf-8" ?>
<svg baseProfile="tiny" height="203" version="1.2" viewBox="-3 -3 330 203" width="330" xmlns="http://www.w3.org/2000/svg" xmlns:ev="http://www.w3.org/2001/xml-events" xmlns:xlink="http://www.w3.org/1999/xlink"><defs /><path d="M1 186 L1 190 L0 192 L0 193 L2 190 L26 152 L40 124 L51 108 L63 86 L74 69 L85 50 L94 30 L99 17 L102 10 L103 6 L103 3 L103 2 L103 0 L102 1 L91 20 L80 52 L75 72 L71 94 L66 115 L65 133 L64 161 L64 180 L66 191 L68 198 L69 201 L70 202 L72 203 L99 150 L113 107 L121 70 L129 40 L131 25 L131 16 L131 12 L131 7 L131 4 L131 2 L131 1 L130 0 L128 6 L123 45 L119 72 L118 90 L117 102 L115 123 L115 147 L116 165 L118 172 L121 177 L123 180 L124 181 L128 179 L148 136 L153 109 L161 73 L167 37 L168 20 L167 16 L166 13 L164 10 L164 7 L163 5 L163 4 L162 4 L158 17 L156 50 L154 82 L153 107 L154 118 L157 130 L159 140 L161 145 L162 148 L164 150 L166 152 L175 148 L196 127 L209 104 L213 82 L214 50 L214 24 L212 13 L210 4 L208 1 L207 0 L206 0 L205 0 L204 9 L201 41 L201 68 L203 91 L205 110 L208 126 L211 137 L213 142 L214 145 L216 148 L224 152 L233 155 L247 152 L262 132 L268 97 L267 61 L264 48 L260 41 L259 40 L256 37 L253 34 L251 33 L249 31 L248 31 L245 39 L242 58 L242 79 L244 99 L248 114 L250 125 L252 136 L253 140 L253 141 L253 142 L254 143 L258 143 L267 142 L286 131 L320 91 L327 67 L330 50 L330 44 L328 37 L325 29 L322 27 L322 26 L318 35 L307 90 L305 120 L304 143 L305 167 L309 179 L313 186 L317 192 L322 199 L323 200 L324 202 L325 202 " fill="none" stroke="black" /></svg>