<?xml version="1.0" encoding="utf-8" ?>
<svg baseProfile="tiny" height="470" version="1.2" viewBox="-3 -3 354 470" width="354" xmlns="http://www.w3.org/2000/svg" xmlns:ev="http://www.w3.org/2001/xml-events" xmlns:xlink="http://www.w3.org/1999/xlink"><defs /><path d="M222 126 L167 193 L104 267 L101 271 L149 211 L225 114 L244 95 L210 141 L148 231 L134 252 L137 246 L214 144 L270 71 L262 84 L178 198 L117 290 L204 180 L307 60 L339 33 L271 120 L169 264 L153 297 L162 291 L253 179 L334 81 L332 86 L252 168 L163 292 L148 316 L174 278 L262 144 L354 10 L339 28 L214 162 L106 313 L91 337 L104 307 L213 121 L258 21 L232 32 L149 102 L63 198 L54 211 L64 185 L114 86 L125 59 L87 92 L41 140 L31 153 L31 154 L33 154 L87 74 L103 47 L99 53 L39 145 L12 196 L8 205 L17 185 L113 20 L127 0 L75 99 L32 183 L19 232 L36 233 L118 123 L202 30 L230 21 L199 113 L182 172 L187 188 L207 182 L270 123 L295 106 L236 204 L154 352 L124 426 L127 452 L138 457 L182 414 L265 303 L273 293 L261 309 L179 402 L126 463 L123 463 L143 406 L172 321 L171 302 L126 334 L55 392 L45 398 L50 383 L124 234 L160 167 L154 175 L102 235 L31 316 L22 332 L22 331 L54 286 L97 226 L98 225 L97 226 " fill="none" stroke="black" /><path d="M222 126 L167 193 L104 267 L101 271 L149 211 L225 114 L244 95 L210 141 L148 231 L134 252 L137 246 L214 144 L270 71 L262 84 L178 198 L117 290 L204 180 L307 60 L339 33 L271 120 L169 264 L153 297 L162 291 L253 179 L334 81 L332 86 L252 168 L163 292 L148 316 L174 278 L262 144 L354 10 L339 28 L214 162 L106 313 L91 337 L104 307 L213 121 L258 21 L232 32 L149 102 L63 198 L54 211 L64 185 L114 86 L125 59 L87 92 L41 140 L31 153 L31 154 L33 154 L87 74 L103 47 L99 53 L39 145 L12 196 L8 205 L17 185 L113 20 L127 0 L75 99 L32 183 L19 232 L36 233 L118 123 L202 30 L230 21 L199 113 L182 172 L187 188 L207 182 L270 123 L295 106 L236 204 L154 352 L124 426 L127 452 L138 457 L182 414 L265 303 L273 293 L261 309 L179 402 L126 463 L123 463 L143 406 L172 321 L171 302 L126 334 L55 392 L45 398 L50 383 L124 234 L160 167 L154 175 L102 235 L31 316 L22 332 L22 331 L54 286 L97 226 L98 225 L97 226 M133 190 L165 159 L162 167 L81 279 L7 380 L0 394 L19 376 L117 266 L204 198 L214 205 L184 270 L114 409 L111 435 L147 408 L226 318 L251 297 L247 309 L150 431 L125 470 L129 464 L229 356 L319 276 L336 263 L270 324 L187 391 L166 410 L176 385 L251 253 L278 206 L274 210 L212 255 L175 291 L175 290 L180 279 L234 232 L269 218 L273 221 L244 262 L200 329 L198 333 L198 331 L233 294 L247 281 L247 283 L246 286 L245 287 " fill="none" stroke="black" /></svg>