<?xml version="1.0" encoding="utf-8" ?>
<svg baseProfile="tiny" height="418" version="1.2" viewBox="-3 -3 568 418" width="568" xmlns="http://www.w3.org/2000/svg" xmlns:ev="http://www.w3.org/2001/xml-events" xmlns:xlink="http://www.w3.org/1999/xlink"><defs /><path d="M269 85 L161 197 L126 273 L123 311 L135 331 L156 339 L189 327 L224 303 L240 287 L243 272 L231 244 L202 209 L159 207 L109 240 L87 282 L84 312 L92 321 L106 318 L140 273 L149 220 L135 168 L104 136 L54 141 L16 174 L0 205 L0 226 L9 235 L40 228 L94 190 L132 138 L153 85 L156 38 L127 34 L66 96 L24 181 L38 223 L75 244 L123 240 L209 202 L270 146 L295 92 L292 55 L266 58 L182 119 L158 166 L167 203 L195 224 L249 226 L316 193 L362 136 L380 88 L383 46 L351 57 L277 144 L266 183 L270 218 L288 243 L309 251 L327 252 L337 246 L347 230 L351 207 L341 218 L306 269 L305 322 L328 363 L363 388 L421 388 L488 351 L526 307 L542 263 L538 246 L502 249 L443 293 L425 320 L426 329 L436 332 L460 319 L505 268 L540 193 L536 150 L501 141 L383 191 L339 216 L335 222 L335 225 L340 226 L389 210 L419 193 L424 186 L425 173 L372 161 L278 190 L194 218 L150 227 L127 217 L125 213 L149 198 L287 143 L422 118 L524 113 L564 114 L568 115 L563 116 L455 128 L279 167 L183 196 L141 209 L134 211 L143 211 L260 183 L381 158 L488 149 L517 153 L505 165 L407 219 L229 323 L134 382 L123 390 L125 391 L150 390 L294 342 L470 282 L526 264 L533 264 L509 274 L373 334 L213 408 L183 418 L182 416 L223 380 L368 287 L518 198 L551 159 L550 129 L493 117 L360 143 L185 195 L151 203 L150 199 " fill="none" stroke="black" /><path d="M269 85 L161 197 L126 273 L123 311 L135 331 L156 339 L189 327 L224 303 L240 287 L243 272 L231 244 L202 209 L159 207 L109 240 L87 282 L84 312 L92 321 L106 318 L140 273 L149 220 L135 168 L104 136 L54 141 L16 174 L0 205 L0 226 L9 235 L40 228 L94 190 L132 138 L153 85 L156 38 L127 34 L66 96 L24 181 L38 223 L75 244 L123 240 L209 202 L270 146 L295 92 L292 55 L266 58 L182 119 L158 166 L167 203 L195 224 L249 226 L316 193 L362 136 L380 88 L383 46 L351 57 L277 144 L266 183 L270 218 L288 243 L309 251 L327 252 L337 246 L347 230 L351 207 L341 218 L306 269 L305 322 L328 363 L363 388 L421 388 L488 351 L526 307 L542 263 L538 246 L502 249 L443 293 L425 320 L426 329 L436 332 L460 319 L505 268 L540 193 L536 150 L501 141 L383 191 L339 216 L335 222 L335 225 L340 226 L389 210 L419 193 L424 186 L425 173 L372 161 L278 190 L194 218 L150 227 L127 217 L125 213 L149 198 L287 143 L422 118 L524 113 L564 114 L568 115 L563 116 L455 128 L279 167 L183 196 L141 209 L134 211 L143 211 L260 183 L381 158 L488 149 L517 153 L505 165 L407 219 L229 323 L134 382 L123 390 L125 391 L150 390 L294 342 L470 282 L526 264 L533 264 L509 274 L373 334 L213 408 L183 418 L182 416 L223 380 L368 287 L518 198 L551 159 L550 129 L493 117 L360 143 L185 195 L151 203 L150 199 M169 0 L262 8 L315 13 L328 17 L329 20 L287 48 L192 108 L167 128 L167 129 L167 128 " fill="none" stroke="black" /></svg>