<?xml version="1.0" encoding="utf-8" ?>
<svg baseProfile="tiny" height="451" version="1.2" viewBox="-3 -3 582 451" width="582" xmlns="http://www.w3.org/2000/svg" xmlns:ev="http://www.w3.org/2001/xml-events" xmlns:xlink="http://www.w3.org/1999/xlink"><defs /><path d="M273 394 L330 348 L354 265 L358 169 L346 131 L311 120 L231 165 L147 273 L119 343 L116 394 L132 419 L157 427 L201 414 L247 386 L308 316 L345 212 L365 80 L358 12 L314 3 L179 73 L81 174 L46 261 L45 320 L65 355 L94 367 L147 351 L211 307 L265 236 L294 137 L293 56 L265 24 L182 44 L60 139 L8 228 L0 292 L16 338 L46 358 L89 355 L160 320 L246 249 L290 183 L318 94 L301 30 L246 39 L137 113 L65 237 L56 308 L74 338 L108 353 L172 350 L237 327 L281 297 L307 263 L309 226 L305 217 L338 218 L430 194 L514 168 L564 147 L566 145 L561 143 L502 146 L435 193 L395 255 L389 280 L393 288 L411 295 L474 284 L543 245 L576 208 L582 171 L561 121 L507 106 L379 149 L298 217 L254 292 L253 336 L271 363 L299 371 L333 361 L391 324 L447 258 L467 205 L470 145 L416 69 L313 86 L229 154 L185 237 L174 295 L179 347 L199 369 L224 371 L274 339 L322 287 L378 184 L398 80 L381 0 L263 17 L133 104 L54 216 L29 306 L39 389 L63 420 L99 421 L186 360 L255 291 L327 190 L376 66 L368 26 L305 37 L172 137 L107 257 L112 312 L131 339 L163 352 L232 339 L327 288 L375 235 L420 137 L423 67 L360 75 L242 168 L151 320 L137 399 L151 435 L177 451 L221 442 L307 384 L381 292 L433 169 L422 95 L381 87 L254 153 L160 276 L131 396 L140 429 L175 446 L235 434 L315 375 L400 275 L457 183 L474 99 L435 87 L319 126 L240 179 L158 304 L147 359 L160 380 L166 382 L167 382 " fill="none" stroke="black" /></svg>