<?xml version="1.0" encoding="utf-8" ?>
<svg baseProfile="tiny" height="355" version="1.2" viewBox="-3 -3 406 355" width="406" xmlns="http://www.w3.org/2000/svg" xmlns:ev="http://www.w3.org/2001/xml-events" xmlns:xlink="http://www.w3.org/1999/xlink"><defs /><path d="M216 179 L228 187 L230 189 L231 190 L229 192 L168 218 L104 250 L61 261 L22 254 L2 238 L0 217 L23 167 L52 130 L78 115 L107 114 L138 124 L155 132 L182 143 L216 153 L243 155 L260 151 L282 127 L300 76 L298 56 L288 49 L268 40 L236 35 L191 41 L173 50 L158 65 L132 99 L101 132 L73 159 L44 180 L24 185 L11 185 L3 177 L4 140 L13 121 L36 98 L65 81 L100 79 L131 85 L166 96 L206 108 L257 122 L304 129 L325 126 L338 108 L351 73 L356 49 L356 46 L348 46 L278 80 L238 127 L210 178 L193 217 L177 252 L149 289 L114 315 L76 342 L48 355 L33 355 L24 348 L26 304 L48 249 L91 198 L135 183 L177 186 L216 193 L259 209 L299 223 L326 225 L334 223 L350 213 L379 183 L390 146 L381 118 L346 108 L302 113 L272 123 L243 152 L224 180 L203 207 L175 235 L137 264 L101 280 L73 283 L63 279 L60 271 L69 233 L104 178 L143 135 L170 113 L194 113 L224 117 L256 124 L285 130 L308 133 L330 130 L348 121 L390 67 L406 23 L400 13 L347 18 L325 22 L287 33 L249 66 L221 96 L184 133 L157 155 L127 169 L98 169 L72 165 L59 162 L52 156 L58 125 L89 80 L128 52 L166 42 L202 42 L247 43 L277 43 L308 34 L338 21 L346 13 L346 8 L314 0 L231 17 L181 38 L147 68 L127 98 L105 133 L84 161 L61 186 L44 198 L34 199 L27 197 L21 183 L28 132 L55 86 L81 66 L106 68 L138 81 L155 88 L180 96 L209 103 L223 105 L224 105 L224 106 " fill="none" stroke="black" /></svg>