<?xml version="1.0" encoding="utf-8" ?>
<svg baseProfile="tiny" height="500" version="1.2" viewBox="-3 -3 520 500" width="520" xmlns="http://www.w3.org/2000/svg" xmlns:ev="http://www.w3.org/2001/xml-events" xmlns:xlink="http://www.w3.org/1999/xlink"><defs /><path d="M93 350 L79 355 L68 355 L51 343 L40 312 L45 280 L70 247 L91 242 L126 250 L166 270 L234 306 L321 341 L360 347 L395 338 L423 326 L460 302 L502 267 L520 244 L520 241 L505 240 L466 240 L434 246 L390 276 L338 332 L300 383 L267 433 L240 460 L224 469 L199 475 L170 475 L145 466 L132 447 L136 395 L171 325 L215 271 L239 264 L280 268 L320 278 L365 296 L405 310 L426 311 L443 304 L475 268 L506 207 L508 180 L474 175 L412 193 L341 232 L292 268 L230 328 L195 361 L166 385 L142 393 L120 390 L109 385 L95 364 L94 312 L108 264 L115 253 L139 246 L173 246 L205 269 L239 323 L266 380 L282 439 L289 484 L290 499 L290 500 L289 498 L261 357 L264 202 L281 110 L284 88 L284 99 L280 153 L286 239 L304 314 L324 354 L329 360 L342 271 L353 142 L377 39 L383 24 L384 39 L378 96 L376 222 L392 300 L405 333 L406 334 L406 270 L410 119 L421 40 L422 40 L425 83 L434 168 L451 229 L462 246 L464 249 L465 247 L475 142 L486 41 L493 0 L492 6 L488 65 L488 133 L488 175 L465 221 L398 280 L296 329 L241 336 L171 318 L115 259 L93 169 L126 93 L155 68 L203 71 L260 121 L302 193 L327 245 L348 287 L354 295 L358 293 L372 264 L375 243 L361 234 L312 240 L213 297 L134 354 L72 396 L49 399 L44 397 L44 396 L43 397 L35 401 L23 401 L0 376 L15 310 L43 279 L82 271 L137 284 L198 312 L229 326 L240 331 L243 331 L249 331 L279 320 L305 307 L308 305 L309 305 L309 304 " fill="none" stroke="black" /></svg>