<?xml version="1.0" encoding="utf-8" ?>
<svg baseProfile="tiny" height="304" version="1.2" viewBox="-3 -3 667 304" width="667" xmlns="http://www.w3.org/2000/svg" xmlns:ev="http://www.w3.org/2001/xml-events" xmlns:xlink="http://www.w3.org/1999/xlink"><defs /><path d="M87 62 L86 60 L83 59 L46 108 L14 178 L5 205 L0 243 L1 274 L5 296 L8 301 L10 303 L15 304 L30 295 L72 232 L87 194 L106 144 L117 103 L123 80 L124 76 L124 74 L123 74 L122 74 L96 125 L84 155 L75 191 L71 228 L72 246 L75 256 L80 269 L85 277 L86 278 L91 277 L113 247 L149 177 L173 115 L191 70 L197 46 L197 34 L196 33 L182 60 L165 106 L158 141 L155 177 L156 201 L160 214 L166 222 L176 231 L184 234 L201 227 L244 168 L272 80 L287 27 L290 4 L288 0 L285 1 L262 31 L241 73 L233 98 L228 138 L229 166 L235 188 L244 202 L249 210 L256 217 L262 220 L266 221 L286 211 L324 163 L343 126 L358 83 L364 50 L364 35 L363 32 L360 31 L340 41 L318 79 L309 115 L304 166 L308 197 L318 224 L331 242 L339 248 L345 248 L360 239 L411 170 L437 117 L451 80 L464 35 L464 24 L464 22 L461 22 L433 49 L402 109 L389 163 L389 190 L396 212 L404 224 L412 231 L418 233 L434 230 L464 203 L496 138 L518 89 L538 42 L539 26 L539 22 L537 21 L534 20 L520 28 L491 74 L482 105 L477 134 L477 160 L481 175 L490 188 L500 195 L507 198 L513 199 L520 199 L527 196 L532 192 L534 190 L536 190 L537 189 L538 189 L538 188 L541 184 L556 149 L574 82 L578 48 L577 38 L575 37 L574 37 L570 38 L540 95 L534 124 L534 152 L536 168 L545 190 L559 205 L564 210 L565 213 L565 215 L567 215 L609 194 L648 171 L657 157 L666 137 L667 135 L667 134 " fill="none" stroke="black" /></svg>