<?xml version="1.0" encoding="utf-8" ?>
<svg baseProfile="tiny" height="434" version="1.2" viewBox="-3 -3 669 434" width="669" xmlns="http://www.w3.org/2000/svg" xmlns:ev="http://www.w3.org/2001/xml-events" xmlns:xlink="http://www.w3.org/1999/xlink"><defs /><circle cx="220" cy="168" fill="black" r="1" /><path d="M89 296 L131 277 L213 244 L296 217 L341 203 L342 203 L341 204 L308 217 L286 226 " fill="none" stroke="black" /><path d="M89 296 L131 277 L213 244 L296 217 L341 203 L342 203 L341 204 L308 217 L286 226 M45 241 L106 221 L178 202 L282 173 L349 156 L364 153 " fill="none" stroke="black" /><path d="M89 296 L131 277 L213 244 L296 217 L341 203 L342 203 L341 204 L308 217 L286 226 M45 241 L106 221 L178 202 L282 173 L349 156 L364 153 M104 124 L171 107 L296 82 L342 79 L374 77 L377 77 L376 79 L318 99 L231 133 L99 195 L20 247 L0 265 L2 265 L66 246 L190 200 L296 161 L389 126 L413 119 L412 122 L349 165 L274 219 L169 302 L102 354 L87 376 L86 382 L86 384 L95 381 L94 383 L92 386 L95 388 L158 364 L275 301 L401 254 L463 243 L473 244 L472 248 L390 303 L304 364 L249 407 L235 419 L233 421 L233 423 L247 421 L379 347 L486 283 L610 202 L665 168 L669 165 L632 170 L508 216 L427 255 L344 309 L331 316 L334 311 L431 229 L523 153 L603 97 L629 79 L629 77 L577 77 L493 100 L368 150 L264 207 L207 244 L193 253 L190 255 L191 253 L308 165 L418 85 L469 49 L481 36 L439 35 L313 88 L201 144 L101 204 L68 230 L62 233 L61 233 L65 228 L198 130 L260 88 L265 80 L262 77 L177 92 L105 126 L72 144 L47 161 L42 166 L41 166 L45 156 L156 50 L239 7 L270 0 L271 0 L269 2 L185 55 L127 113 L100 144 L91 165 L90 175 L93 178 L176 151 L269 123 L429 99 L497 103 L509 120 L482 160 L400 242 L315 328 L272 375 L267 383 L347 332 L472 249 L560 191 L603 166 L614 163 L590 178 L471 247 L309 350 L232 408 L200 434 L199 434 L210 422 L312 327 L372 268 L404 228 L402 198 L381 182 L334 188 L237 247 L194 274 L191 276 L204 263 L242 235 " fill="none" stroke="black" /></svg>