<?xml version="1.0" encoding="utf-8" ?>
<svg baseProfile="tiny" height="337" version="1.2" viewBox="-3 -3 382 337" width="382" xmlns="http://www.w3.org/2000/svg" xmlns:ev="http://www.w3.org/2001/xml-events" xmlns:xlink="http://www.w3.org/1999/xlink"><defs /><path d="M238 74 L237 60 L205 116 L188 168 L208 197 L248 187 L290 133 L301 75 L285 44 L210 125 L194 184 L219 208 L261 207 L311 159 L319 121 L297 119 L263 159 L254 203 L276 212 L327 171 L343 131 L328 97 L255 131 L122 265 L97 329 L127 337 L198 275 L216 186 L174 129 L82 161 L0 240 L7 266 L46 268 L107 232 L149 173 L132 136 L83 139 L37 196 L44 214 L91 215 L189 153 L220 102 L221 66 L175 59 L54 175 L45 225 L80 238 L132 221 L180 173 L184 140 L151 139 L104 181 L86 226 L118 243 L186 220 L236 173 L251 124 L233 95 L132 170 L94 256 L114 279 L176 270 L240 208 L273 124 L262 81 L218 107 L171 194 L184 232 L226 228 L282 183 L310 117 L303 68 L246 103 L200 168 L204 190 L248 179 L338 100 L382 9 L374 0 L317 40 L285 81 L288 95 L318 89 L347 51 L340 20 L284 27 L162 103 L115 155 L122 161 L162 140 L182 90 L165 66 L108 87 L73 125 L82 146 L114 146 L154 115 L161 67 L135 45 L93 69 L69 116 L89 141 L135 139 L184 82 L186 51 L151 59 L99 121 L89 174 L118 194 L146 185 L172 149 L166 129 L116 161 L96 202 L117 219 L172 200 L212 155 L217 128 L183 134 L117 204 L116 232 L153 228 L216 184 L242 139 L232 128 L179 172 L166 200 L176 212 L221 201 L265 152 L266 126 L245 130 L205 173 L205 192 L234 188 L259 160 L265 128 L239 121 L207 148 L206 166 L226 170 L273 138 L290 91 L282 78 L254 89 L224 126 L228 143 L244 142 L261 122 L262 115 " fill="none" stroke="black" /></svg>