<?xml version="1.0" encoding="utf-8" ?>
<svg baseProfile="tiny" height="689" version="1.2" viewBox="-3 -3 674 689" width="674" xmlns="http://www.w3.org/2000/svg" xmlns:ev="http://www.w3.org/2001/xml-events" xmlns:xlink="http://www.w3.org/1999/xlink"><defs /><path d="M258 235 L255 327 L262 395 L265 415 L267 420 L267 421 L265 392 L252 220 L253 136 L253 129 L233 207 L195 336 L168 433 L158 481 L156 479 L130 397 L112 284 L107 218 L107 237 L102 292 L99 358 L100 381 L100 382 L97 369 L71 230 L65 187 L61 204 L54 268 L54 329 L54 352 L46 336 L13 205 L5 130 L0 205 L11 298 L25 342 L27 349 L25 239 L48 105 L68 115 L91 140 L144 183 L223 218 L249 222 L266 163 L286 25 L294 0 L309 50 L327 159 L345 205 L365 234 L367 235 L333 119 L320 80 L321 89 L327 161 L337 227 L355 291 L379 339 L410 375 L423 373 L430 312 L419 167 L397 86 L380 74 L357 136 L318 276 L317 348 L337 398 L370 430 L393 435 L405 433 L405 420 L403 428 L385 476 L349 569 L302 669 L293 689 L292 688 L277 651 L241 601 L190 583 L166 580 L166 579 L173 569 L266 498 L393 451 L485 460 L521 476 L535 484 L528 485 L410 496 L331 526 L312 534 L312 530 L397 445 L483 357 L522 307 L513 310 L453 375 L411 433 L408 443 L409 443 L408 421 L372 354 L344 341 L327 348 L304 352 L282 349 L270 344 L268 343 L267 343 L268 342 L340 328 L480 342 L604 350 L666 339 L674 321 L668 312 L610 320 L507 359 L424 385 L404 383 L394 369 L391 348 L388 338 L384 337 L357 358 L310 410 L299 429 L298 431 L297 433 L291 438 L261 460 L247 467 L245 467 L244 467 L239 469 L214 470 L160 467 L120 456 L93 438 L85 421 L95 382 L127 349 L157 335 L176 333 L185 335 L188 337 L189 338 " fill="none" stroke="black" /></svg>