<?xml version="1.0" encoding="utf-8" ?>
<svg baseProfile="tiny" height="507" version="1.2" viewBox="-3 -3 625 507" width="625" xmlns="http://www.w3.org/2000/svg" xmlns:ev="http://www.w3.org/2001/xml-events" xmlns:xlink="http://www.w3.org/1999/xlink"><defs /><path d="M137 222 L136 217 L131 217 L99 242 L48 318 L21 370 L0 425 L2 464 L12 492 L18 500 L26 505 L41 507 L87 472 L120 427 L159 332 L191 246 L207 179 L200 155 L191 148 L175 151 L113 211 L53 321 L38 375 L37 424 L45 462 L53 474 L61 480 L73 481 L103 468 L139 419 L180 326 L215 246 L249 167 L258 136 L256 131 L255 130 L235 147 L173 217 L138 291 L125 338 L124 368 L128 413 L137 438 L145 454 L151 466 L156 478 L159 481 L165 480 L236 427 L278 367 L305 311 L322 251 L330 199 L317 182 L301 183 L267 221 L233 277 L206 345 L197 410 L204 447 L214 466 L226 479 L239 481 L252 476 L302 407 L348 306 L409 172 L469 33 L478 2 L471 0 L455 6 L382 74 L351 133 L331 195 L318 295 L322 326 L333 349 L351 365 L367 368 L375 365 L413 313 L452 231 L502 110 L500 84 L493 83 L480 90 L460 110 L428 158 L375 283 L369 316 L372 352 L383 375 L394 384 L411 387 L434 382 L472 346 L502 290 L519 229 L520 205 L515 203 L485 225 L456 267 L436 317 L429 371 L429 406 L435 420 L441 426 L449 430 L457 425 L466 412 L463 416 L459 429 L461 448 L478 465 L501 469 L538 447 L572 402 L603 333 L613 281 L604 260 L579 251 L546 254 L513 281 L492 322 L478 364 L472 413 L477 440 L489 456 L500 459 L517 458 L540 450 L557 441 L560 439 L561 438 L562 437 L564 436 L565 434 L571 427 L594 398 L621 346 L625 309 L623 298 L621 297 L615 294 L553 304 L499 331 L491 338 L486 352 L486 356 " fill="none" stroke="black" /></svg>