<?xml version="1.0" encoding="utf-8" ?>
<svg baseProfile="tiny" height="352" version="1.2" viewBox="-3 -3 654 352" width="654" xmlns="http://www.w3.org/2000/svg" xmlns:ev="http://www.w3.org/2001/xml-events" xmlns:xlink="http://www.w3.org/1999/xlink"><defs /><path d="M59 236 L107 169 L145 112 L136 132 L69 236 L57 260 L62 252 L139 157 L180 106 L180 117 L145 198 L129 250 L136 247 L199 180 L255 132 L256 142 L223 202 L208 221 L208 220 L270 154 L313 118 L318 120 L307 149 L283 179 L264 192 L309 149 L382 92 L398 91 L387 146 L337 229 L327 248 L328 246 L404 158 L443 124 L435 154 L399 208 L382 235 L384 233 L457 164 L481 147 L476 158 L418 223 L407 235 L447 203 L559 108 L626 65 L623 72 L532 145 L499 174 L500 173 L586 99 L654 37 L641 47 L550 114 L433 216 L410 237 L439 205 L505 131 L505 125 L422 167 L294 255 L245 298 L244 291 L330 179 L370 106 L341 114 L254 183 L160 267 L157 266 L219 191 L259 125 L247 120 L168 176 L67 275 L54 285 L69 255 L129 130 L126 113 L87 126 L31 160 L15 171 L21 150 L75 38 L87 0 L81 6 L34 76 L2 129 L0 134 L3 127 L41 70 L45 70 L48 123 L52 184 L66 211 L128 199 L270 124 L300 118 L288 144 L222 246 L208 274 L228 258 L327 172 L425 96 L423 113 L343 224 L309 286 L313 288 L417 214 L515 163 L521 179 L455 261 L370 344 L362 352 L417 307 L527 183 L538 173 L513 178 L401 225 L308 255 L284 243 L320 142 L343 78 L307 91 L213 157 L167 187 L162 189 L204 122 L245 43 L243 42 L189 106 L144 162 L130 188 L134 189 L210 141 L263 133 L281 188 L281 279 L292 298 L344 287 L390 247 L395 242 L394 242 L379 247 L372 248 L366 218 L350 175 L311 171 L249 196 L208 221 L206 221 " fill="none" stroke="black" /></svg>