<?xml version="1.0" encoding="utf-8" ?>
<svg baseProfile="tiny" height="270" version="1.2" viewBox="-3 -3 218 270" width="218" xmlns="http://www.w3.org/2000/svg" xmlns:ev="http://www.w3.org/2001/xml-events" xmlns:xlink="http://www.w3.org/1999/xlink"><defs /><path d="M138 131 L84 205 L75 225 L80 219 L177 113 L195 93 L182 104 L122 149 L107 164 L139 124 L141 121 L118 136 L97 154 L140 111 L147 104 L134 113 L85 159 L83 161 L95 146 L123 101 L103 113 L24 174 L0 206 L10 203 L95 128 L121 93 L99 138 L93 166 L110 173 L183 116 L213 71 L200 73 L157 112 L140 151 L147 158 L180 142 L200 109 L197 105 L155 131 L132 176 L138 182 L172 165 L218 98 L208 71 L159 86 L115 151 L122 189 L164 175 L196 119 L183 98 L130 105 L94 147 L97 183 L139 183 L173 148 L169 109 L125 111 L73 160 L66 210 L92 216 L141 165 L159 102 L131 86 L78 122 L25 211 L48 239 L105 207 L132 136 L115 99 L61 104 L1 177 L12 236 L59 240 L135 170 L166 80 L131 45 L71 79 L24 165 L60 220 L128 207 L161 165 L154 122 L113 109 L75 163 L80 220 L107 226 L157 180 L167 122 L132 108 L94 145 L81 195 L102 219 L141 196 L192 103 L196 39 L172 16 L80 94 L39 195 L63 220 L124 196 L186 107 L184 47 L115 56 L55 116 L51 149 L80 155 L144 113 L164 73 L150 51 L68 80 L29 137 L38 160 L79 160 L159 100 L186 40 L163 0 L89 18 L5 118 L21 158 L78 154 L114 119 L124 63 L94 39 L26 93 L4 161 L26 187 L70 172 L100 118 L90 74 L56 85 L3 165 L10 217 L48 231 L78 204 L84 165 L62 125 L26 150 L0 240 L18 270 L62 263 L101 196 L97 134 L73 123 L26 167 L18 208 L43 221 L75 201 L84 169 L76 146 L72 146 " fill="none" stroke="black" /></svg>