<?xml version="1.0" encoding="utf-8" ?>
<svg baseProfile="tiny" height="220" version="1.2" viewBox="-3 -3 477 220" width="477" xmlns="http://www.w3.org/2000/svg" xmlns:ev="http://www.w3.org/2001/xml-events" xmlns:xlink="http://www.w3.org/1999/xlink"><defs /><path d="M0 41 L3 44 L7 49 L11 57 L14 62 L16 68 L19 74 L22 82 L26 89 L29 96 L34 104 L38 109 L43 115 L49 120 L57 124 L67 127 L77 128 L88 128 L97 127 L108 124 L115 121 L121 118 L127 115 L134 111 L140 109 L144 107 L149 106 L154 106 L159 106 L162 107 L164 109 L167 112 L169 114 L172 117 L174 120 L176 122 L177 123 L178 126 L179 128 L180 131 L181 134 L183 137 L185 140 L185 141 L185 142 L189 142 L200 142 L209 143 L219 143 L231 143 L236 143 L243 142 L249 140 L255 137 L262 131 L270 124 L276 120 L281 118 L285 117 L289 117 L293 117 L299 117 L307 121 L313 126 L318 130 L323 133 L329 135 L333 137 L339 139 L342 140 " fill="none" stroke="black" /><path d="M0 41 L3 44 L7 49 L11 57 L14 62 L16 68 L19 74 L22 82 L26 89 L29 96 L34 104 L38 109 L43 115 L49 120 L57 124 L67 127 L77 128 L88 128 L97 127 L108 124 L115 121 L121 118 L127 115 L134 111 L140 109 L144 107 L149 106 L154 106 L159 106 L162 107 L164 109 L167 112 L169 114 L172 117 L174 120 L176 122 L177 123 L178 126 L179 128 L180 131 L181 134 L183 137 L185 140 L185 141 L185 142 L189 142 L200 142 L209 143 L219 143 L231 143 L236 143 L243 142 L249 140 L255 137 L262 131 L270 124 L276 120 L281 118 L285 117 L289 117 L293 117 L299 117 L307 121 L313 126 L318 130 L323 133 L329 135 L333 137 L339 139 L342 140 M128 200 L128 192 L128 175 L128 154 L128 134 L130 116 L137 97 L150 80 L163 71 L180 65 L196 64 L209 68 L219 76 L225 84 L229 92 L233 101 L239 113 L245 127 L252 141 L260 155 L266 167 L272 175 L278 179 L289 182 L303 182 L320 178 L338 168 L350 159 L357 150 L363 142 L370 125 L376 114 L385 105 L391 103 L397 103 L404 106 L408 110 L413 116 L416 122 L422 132 L427 140 L432 146 L435 151 L438 152 L440 153 L442 153 L446 152 L451 151 L458 149 L464 146 L469 141 L471 136 L474 130 L476 127 L477 125 L477 124 " fill="none" stroke="black" /><path d="M0 41 L3 44 L7 49 L11 57 L14 62 L16 68 L19 74 L22 82 L26 89 L29 96 L34 104 L38 109 L43 115 L49 120 L57 124 L67 127 L77 128 L88 128 L97 127 L108 124 L115 121 L121 118 L127 115 L134 111 L140 109 L144 107 L149 106 L154 106 L159 106 L162 107 L164 109 L167 112 L169 114 L172 117 L174 120 L176 122 L177 123 L178 126 L179 128 L180 131 L181 134 L183 137 L185 140 L185 141 L185 142 L189 142 L200 142 L209 143 L219 143 L231 143 L236 143 L243 142 L249 140 L255 137 L262 131 L270 124 L276 120 L281 118 L285 117 L289 117 L293 117 L299 117 L307 121 L313 126 L318 130 L323 133 L329 135 L333 137 L339 139 L342 140 M128 200 L128 192 L128 175 L128 154 L128 134 L130 116 L137 97 L150 80 L163 71 L180 65 L196 64 L209 68 L219 76 L225 84 L229 92 L233 101 L239 113 L245 127 L252 141 L260 155 L266 167 L272 175 L278 179 L289 182 L303 182 L320 178 L338 168 L350 159 L357 150 L363 142 L370 125 L376 114 L385 105 L391 103 L397 103 L404 106 L408 110 L413 116 L416 122 L422 132 L427 140 L432 146 L435 151 L438 152 L440 153 L442 153 L446 152 L451 151 L458 149 L464 146 L469 141 L471 136 L474 130 L476 127 L477 125 L477 124 M462 0 L453 0 L436 5 L412 17 L396 29 L390 44 L389 67 L389 94 L394 126 L396 150 L396 164 L395 169 L388 176 L369 186 L353 194 L334 202 L316 210 L301 216 L286 219 L269 220 L256 220 L245 220 L242 220 L240 220 " fill="none" stroke="black" /></svg>