<?xml version="1.0" encoding="utf-8" ?>
<svg baseProfile="tiny" height="325" version="1.2" viewBox="-3 -3 443 325" width="443" xmlns="http://www.w3.org/2000/svg" xmlns:ev="http://www.w3.org/2001/xml-events" xmlns:xlink="http://www.w3.org/1999/xlink"><defs /><path d="M7 271 L7 269 L7 257 L9 230 L21 196 L61 140 L117 89 L154 68 L174 64 L190 64 L204 68 L216 72 L226 78 L236 84 L255 96 L272 106 L283 112 L292 115 L302 118 L313 119 L324 120 L338 118 L349 115 L361 108 L372 100 L381 94 L387 89 L392 83 L397 77 L403 70 L408 65 L414 62 L419 61 L426 61 L432 62 L437 63 L440 64 L442 63 L442 61 L443 59 " fill="none" stroke="black" /><path d="M7 271 L7 269 L7 257 L9 230 L21 196 L61 140 L117 89 L154 68 L174 64 L190 64 L204 68 L216 72 L226 78 L236 84 L255 96 L272 106 L283 112 L292 115 L302 118 L313 119 L324 120 L338 118 L349 115 L361 108 L372 100 L381 94 L387 89 L392 83 L397 77 L403 70 L408 65 L414 62 L419 61 L426 61 L432 62 L437 63 L440 64 L442 63 L442 61 L443 59 M389 0 L388 0 L382 1 L371 10 L355 27 L341 45 L331 62 L327 78 L324 96 L325 110 L331 131 L335 149 L338 164 L338 175 L337 182 L333 186 L323 191 L300 198 L277 200 L259 200 L245 193 L234 183 L222 170 L213 159 L204 149 L195 137 L188 129 L180 121 L172 114 L161 108 L150 103 L138 99 L121 96 L105 95 L89 95 L71 95 L57 97 L44 102 L35 108 L30 114 L25 120 L21 125 L17 132 L13 139 L8 147 L4 155 L0 161 " fill="none" stroke="black" /><circle cx="122" cy="171" fill="black" r="1" /><circle cx="193" cy="198" fill="black" r="1" /><path d="M7 271 L7 269 L7 257 L9 230 L21 196 L61 140 L117 89 L154 68 L174 64 L190 64 L204 68 L216 72 L226 78 L236 84 L255 96 L272 106 L283 112 L292 115 L302 118 L313 119 L324 120 L338 118 L349 115 L361 108 L372 100 L381 94 L387 89 L392 83 L397 77 L403 70 L408 65 L414 62 L419 61 L426 61 L432 62 L437 63 L440 64 L442 63 L442 61 L443 59 M389 0 L388 0 L382 1 L371 10 L355 27 L341 45 L331 62 L327 78 L324 96 L325 110 L331 131 L335 149 L338 164 L338 175 L337 182 L333 186 L323 191 L300 198 L277 200 L259 200 L245 193 L234 183 L222 170 L213 159 L204 149 L195 137 L188 129 L180 121 L172 114 L161 108 L150 103 L138 99 L121 96 L105 95 L89 95 L71 95 L57 97 L44 102 L35 108 L30 114 L25 120 L21 125 L17 132 L13 139 L8 147 L4 155 L0 161 M209 209 L210 207 L212 206 L214 205 L218 203 L226 198 L234 193 L242 188 L250 182 L255 177 L257 175 L258 174 L259 173 L259 172 " fill="none" stroke="black" /><path d="M7 271 L7 269 L7 257 L9 230 L21 196 L61 140 L117 89 L154 68 L174 64 L190 64 L204 68 L216 72 L226 78 L236 84 L255 96 L272 106 L283 112 L292 115 L302 118 L313 119 L324 120 L338 118 L349 115 L361 108 L372 100 L381 94 L387 89 L392 83 L397 77 L403 70 L408 65 L414 62 L419 61 L426 61 L432 62 L437 63 L440 64 L442 63 L442 61 L443 59 M389 0 L388 0 L382 1 L371 10 L355 27 L341 45 L331 62 L327 78 L324 96 L325 110 L331 131 L335 149 L338 164 L338 175 L337 182 L333 186 L323 191 L300 198 L277 200 L259 200 L245 193 L234 183 L222 170 L213 159 L204 149 L195 137 L188 129 L180 121 L172 114 L161 108 L150 103 L138 99 L121 96 L105 95 L89 95 L71 95 L57 97 L44 102 L35 108 L30 114 L25 120 L21 125 L17 132 L13 139 L8 147 L4 155 L0 161 M209 209 L210 207 L212 206 L214 205 L218 203 L226 198 L234 193 L242 188 L250 182 L255 177 L257 175 L258 174 L259 173 L259 172 M236 58 L236 62 L242 77 L256 91 L277 103 L294 107 L309 109 L325 109 L341 110 L353 113 L367 120 L374 126 L380 132 L385 141 L389 150 L393 161 L395 179 L395 204 L386 243 L377 268 L368 283 L355 296 L336 315 L326 324 L318 325 " fill="none" stroke="black" /></svg>