<?xml version="1.0" encoding="utf-8" ?>
<svg baseProfile="tiny" height="395" version="1.2" viewBox="-3 -3 796 395" width="796" xmlns="http://www.w3.org/2000/svg" xmlns:ev="http://www.w3.org/2001/xml-events" xmlns:xlink="http://www.w3.org/1999/xlink"><defs /><path d="M12 364 L14 352 L33 314 L58 270 L74 245 L77 241 L75 249 L72 260 L70 267 L70 269 L70 270 L88 233 L116 191 L140 161 L149 153 L152 152 L151 156 L149 161 L173 136 L190 124 L195 120 L195 122 L199 117 L210 107 L216 101 L220 98 L232 86 L240 79 L241 79 L241 80 L241 81 L246 73 L261 61 L270 55 L271 55 L271 58 L271 59 L279 54 L296 45 L306 41 L307 41 L306 44 L305 45 L305 46 L314 45 L338 37 L349 34 L351 34 L351 35 L358 32 L367 27 L372 25 L373 25 L374 25 L380 22 L396 11 L405 5 L406 5 L410 4 L417 2 L422 1 L423 1 L424 2 L426 2 L434 2 L442 2 L444 2 L445 2 L449 3 L456 4 L460 5 L462 5 L463 5 L463 4 L463 3 L464 2 L464 1 L464 0 L464 1 L464 2 L464 3 L464 4 L464 5 L467 5 L470 5 L474 5 L479 2 L484 1 L490 0 L496 0 L501 0 L508 0 L516 0 L524 0 L532 0 L540 0 L549 0 L556 0 L562 0 L568 0 L573 0 L579 0 L584 1 L588 1 L594 1 L599 1 L603 0 L608 0 L612 0 L615 0 L619 0 L624 0 L629 0 L635 0 L640 0 L647 0 L652 0 L657 0 L663 0 L670 0 L676 0 L682 0 L687 0 L692 0 L696 1 L700 1 L703 1 L708 1 L711 1 L715 2 L720 2 L724 3 L728 3 L729 3 " fill="none" stroke="black" /><circle cx="754" cy="2" fill="black" r="1" /><circle cx="781" cy="4" fill="black" r="1" /><circle cx="796" cy="4" fill="black" r="1" /><circle cx="8" cy="380" fill="black" r="1" /><circle cx="0" cy="395" fill="black" r="1" /></svg>