<?xml version="1.0" encoding="utf-8" ?>
<svg baseProfile="tiny" height="345" version="1.2" viewBox="-3 -3 372 345" width="372" xmlns="http://www.w3.org/2000/svg" xmlns:ev="http://www.w3.org/2001/xml-events" xmlns:xlink="http://www.w3.org/1999/xlink"><defs /><path d="M68 173 L85 165 L119 125 L135 109 L140 106 L140 111 L140 120 L149 130 L173 135 L196 133 L208 130 L211 130 L216 132 L235 131 L255 121 L266 117 L268 117 L268 118 L269 118 L270 118 L271 119 L274 120 L277 121 " fill="none" stroke="black" /><path d="M68 173 L85 165 L119 125 L135 109 L140 106 L140 111 L140 120 L149 130 L173 135 L196 133 L208 130 L211 130 L216 132 L235 131 L255 121 L266 117 L268 117 L268 118 L269 118 L270 118 L271 119 L274 120 L277 121 M272 90 L272 99 L272 124 L272 140 L272 144 L272 142 L265 116 L253 95 L244 86 L238 85 L234 94 L231 109 L227 123 L224 129 L214 124 L195 101 L180 89 L174 89 L169 109 L160 142 L154 160 L150 164 L135 133 L116 105 L104 99 L97 102 L86 124 L74 159 L64 179 L52 182 L30 150 L18 139 L13 137 L12 141 L10 147 L9 150 L7 144 L3 111 L2 97 L1 95 " fill="none" stroke="black" /><path d="M68 173 L85 165 L119 125 L135 109 L140 106 L140 111 L140 120 L149 130 L173 135 L196 133 L208 130 L211 130 L216 132 L235 131 L255 121 L266 117 L268 117 L268 118 L269 118 L270 118 L271 119 L274 120 L277 121 M272 90 L272 99 L272 124 L272 140 L272 144 L272 142 L265 116 L253 95 L244 86 L238 85 L234 94 L231 109 L227 123 L224 129 L214 124 L195 101 L180 89 L174 89 L169 109 L160 142 L154 160 L150 164 L135 133 L116 105 L104 99 L97 102 L86 124 L74 159 L64 179 L52 182 L30 150 L18 139 L13 137 L12 141 L10 147 L9 150 L7 144 L3 111 L2 97 L1 95 M0 96 L0 100 L12 146 L39 218 L47 236 L50 238 L57 221 L95 122 L118 68 L130 40 L131 38 L128 48 L128 77 L140 104 L151 116 L172 104 L210 52 L232 19 L236 15 L234 32 L234 85 L242 140 L248 162 L250 165 L267 118 L295 47 L308 16 L309 15 L302 35 L299 108 L300 166 L303 187 L306 189 L323 148 L351 93 L360 78 L360 82 L360 107 L362 137 L367 164 L370 176 L372 178 L372 163 L369 151 L365 145 " fill="none" stroke="black" /><path d="M68 173 L85 165 L119 125 L135 109 L140 106 L140 111 L140 120 L149 130 L173 135 L196 133 L208 130 L211 130 L216 132 L235 131 L255 121 L266 117 L268 117 L268 118 L269 118 L270 118 L271 119 L274 120 L277 121 M272 90 L272 99 L272 124 L272 140 L272 144 L272 142 L265 116 L253 95 L244 86 L238 85 L234 94 L231 109 L227 123 L224 129 L214 124 L195 101 L180 89 L174 89 L169 109 L160 142 L154 160 L150 164 L135 133 L116 105 L104 99 L97 102 L86 124 L74 159 L64 179 L52 182 L30 150 L18 139 L13 137 L12 141 L10 147 L9 150 L7 144 L3 111 L2 97 L1 95 M0 96 L0 100 L12 146 L39 218 L47 236 L50 238 L57 221 L95 122 L118 68 L130 40 L131 38 L128 48 L128 77 L140 104 L151 116 L172 104 L210 52 L232 19 L236 15 L234 32 L234 85 L242 140 L248 162 L250 165 L267 118 L295 47 L308 16 L309 15 L302 35 L299 108 L300 166 L303 187 L306 189 L323 148 L351 93 L360 78 L360 82 L360 107 L362 137 L367 164 L370 176 L372 178 L372 163 L369 151 L365 145 M364 143 L364 138 L364 125 L364 114 L359 97 L353 90 L349 90 L347 97 L342 148 L337 224 L332 266 L329 275 L315 246 L273 119 L244 44 L228 20 L218 15 L215 23 L213 80 L213 172 L212 214 L208 219 L186 183 L153 71 L137 15 L131 0 L127 3 L123 40 L121 233 L122 313 L123 345 L121 338 L89 265 L51 166 L36 120 L30 107 L27 114 L25 149 L25 212 L25 240 L25 247 L20 200 " fill="none" stroke="black" /></svg>