<?xml version="1.0" encoding="utf-8" ?>
<svg baseProfile="tiny" height="415" version="1.2" viewBox="-3 -3 884 415" width="884" xmlns="http://www.w3.org/2000/svg" xmlns:ev="http://www.w3.org/2001/xml-events" xmlns:xlink="http://www.w3.org/1999/xlink"><defs /><path d="M0 295 L0 294 L0 281 L1 227 L29 138 L77 61 L120 16 L163 0 L198 0 L226 10 L239 25 L242 41 L242 57 L241 74 L238 93 L235 113 L231 141 L227 169 L224 200 L223 224 L222 242 L222 255 L222 268 L222 278 L224 293 L227 303 L231 315 L235 326 L239 335 L245 346 L250 354 L256 362 L262 369 L267 376 L272 381 L277 385 L282 388 L286 391 L291 393 L297 396 L301 397 L306 399 L311 400 L315 402 L319 403 L321 404 L324 405 L329 406 L334 407 L340 409 L347 410 L354 412 L362 413 L368 414 L373 414 L380 415 L385 415 L390 415 L395 415 L400 415 L405 415 L411 415 L420 414 L428 413 L433 413 L437 413 L442 412 L445 412 L449 412 L453 411 L458 411 L462 410 L468 409 L477 409 " fill="none" stroke="black" /><path d="M0 295 L0 294 L0 281 L1 227 L29 138 L77 61 L120 16 L163 0 L198 0 L226 10 L239 25 L242 41 L242 57 L241 74 L238 93 L235 113 L231 141 L227 169 L224 200 L223 224 L222 242 L222 255 L222 268 L222 278 L224 293 L227 303 L231 315 L235 326 L239 335 L245 346 L250 354 L256 362 L262 369 L267 376 L272 381 L277 385 L282 388 L286 391 L291 393 L297 396 L301 397 L306 399 L311 400 L315 402 L319 403 L321 404 L324 405 L329 406 L334 407 L340 409 L347 410 L354 412 L362 413 L368 414 L373 414 L380 415 L385 415 L390 415 L395 415 L400 415 L405 415 L411 415 L420 414 L428 413 L433 413 L437 413 L442 412 L445 412 L449 412 L453 411 L458 411 L462 410 L468 409 L477 409 M480 409 L483 409 L489 409 L496 409 L506 409 L513 409 L518 409 L522 409 L525 409 L530 409 L536 409 L542 409 L548 409 L554 409 L559 409 L563 409 L568 409 L571 409 L575 409 L579 410 L583 410 L587 410 L592 410 L597 410 L602 410 L607 410 L613 410 L617 410 L622 410 L627 410 L632 410 L635 410 L637 410 L639 410 L641 409 L643 408 L645 407 L648 404 L651 401 L657 396 L664 391 L670 387 L677 382 L684 376 L691 371 L699 363 L712 343 L730 307 L752 257 L774 217 L796 187 L822 167 L856 150 L875 139 L883 135 L884 136 L883 149 L878 184 L875 238 L874 281 L874 315 L874 341 L874 351 L874 359 L875 363 L877 368 L878 370 L879 371 L880 372 L881 372 " fill="none" stroke="black" /></svg>