<?xml version="1.0" encoding="utf-8" ?>
<svg baseProfile="tiny" height="358" version="1.2" viewBox="-3 -3 448 358" width="448" xmlns="http://www.w3.org/2000/svg" xmlns:ev="http://www.w3.org/2001/xml-events" xmlns:xlink="http://www.w3.org/1999/xlink"><defs /><path d="M263 75 L255 124 L251 151 L248 158 L245 151 L234 131 L210 108 L191 95 L176 93 L170 101 L165 117 L157 138 L145 158 L132 163 L114 153 L96 141 L85 138 L77 141 L71 155 L61 183 L49 210 L42 220 L31 217 L16 195 L8 186 L5 186 L5 194 L8 217 L18 268 L37 321 L45 332 " fill="none" stroke="black" /><path d="M263 75 L255 124 L251 151 L248 158 L245 151 L234 131 L210 108 L191 95 L176 93 L170 101 L165 117 L157 138 L145 158 L132 163 L114 153 L96 141 L85 138 L77 141 L71 155 L61 183 L49 210 L42 220 L31 217 L16 195 L8 186 L5 186 L5 194 L8 217 L18 268 L37 321 L45 332 M34 300 L34 277 L36 220 L40 198 L45 193 L47 196 L51 218 L59 249 L65 267 L71 272 L82 258 L118 205 L154 137 L165 78 L166 46 L166 33 L172 40 L193 64 L211 100 L221 138 L225 163 L232 179 L249 191 L272 197 L284 198 L288 202 L288 211 L288 238 L287 280 L287 301 L287 305 L288 301 L285 284 L263 263 L223 241 L177 221 L128 207 L84 204 L46 197 L19 179 L7 143 L6 88 L7 54 L10 39 L24 31 L67 27 L122 43 L172 80 L213 107 L234 121 L240 131 L237 141 L217 163 L186 199 L162 236 L152 269 L154 288 L170 307 L194 322 L222 329 L237 330 L246 329 L250 325 L247 312 L221 285 L171 252 L110 207 L63 158 L26 123 L0 99 L0 41 L56 4 L118 0 L186 46 L230 94 L244 121 L245 142 L250 180 L259 252 L260 282 L250 297 L211 314 L179 328 L156 339 L133 349 L99 357 L56 358 L32 346 L11 300 L22 208 L65 134 L102 112 L139 110 L166 117 L198 121 L219 119 L233 119 L244 117 " fill="none" stroke="black" /><path d="M263 75 L255 124 L251 151 L248 158 L245 151 L234 131 L210 108 L191 95 L176 93 L170 101 L165 117 L157 138 L145 158 L132 163 L114 153 L96 141 L85 138 L77 141 L71 155 L61 183 L49 210 L42 220 L31 217 L16 195 L8 186 L5 186 L5 194 L8 217 L18 268 L37 321 L45 332 M34 300 L34 277 L36 220 L40 198 L45 193 L47 196 L51 218 L59 249 L65 267 L71 272 L82 258 L118 205 L154 137 L165 78 L166 46 L166 33 L172 40 L193 64 L211 100 L221 138 L225 163 L232 179 L249 191 L272 197 L284 198 L288 202 L288 211 L288 238 L287 280 L287 301 L287 305 L288 301 L285 284 L263 263 L223 241 L177 221 L128 207 L84 204 L46 197 L19 179 L7 143 L6 88 L7 54 L10 39 L24 31 L67 27 L122 43 L172 80 L213 107 L234 121 L240 131 L237 141 L217 163 L186 199 L162 236 L152 269 L154 288 L170 307 L194 322 L222 329 L237 330 L246 329 L250 325 L247 312 L221 285 L171 252 L110 207 L63 158 L26 123 L0 99 L0 41 L56 4 L118 0 L186 46 L230 94 L244 121 L245 142 L250 180 L259 252 L260 282 L250 297 L211 314 L179 328 L156 339 L133 349 L99 357 L56 358 L32 346 L11 300 L22 208 L65 134 L102 112 L139 110 L166 117 L198 121 L219 119 L233 119 L244 117 M237 129 L230 129 L196 140 L164 168 L129 225 L110 270 L99 293 L89 302 L73 304 L50 297 L33 254 L49 189 L122 120 L231 91 L299 97 L354 116 L386 131 L405 143 L421 151 L433 153 L448 150 " fill="none" stroke="black" /></svg>