<?xml version="1.0" encoding="utf-8" ?>
<svg baseProfile="tiny" height="219" version="1.2" viewBox="-3 -3 542 219" width="542" xmlns="http://www.w3.org/2000/svg" xmlns:ev="http://www.w3.org/2001/xml-events" xmlns:xlink="http://www.w3.org/1999/xlink"><defs /><path d="M0 219 L0 217 L8 206 L40 171 L63 148 L77 135 L80 134 L80 140 L77 155 L76 173 L77 184 L81 186 L104 152 L132 111 L146 90 L152 83 L148 95 L136 128 L128 155 L125 165 L129 161 L140 141 L147 131 L148 131 L142 149 L130 183 L128 192 L149 166 L174 132 L187 115 L189 115 L183 129 L179 143 L178 151 L185 151 L225 124 L248 110 L253 109 L250 117 L241 133 L239 141 L239 142 L245 134 L256 122 L261 119 L260 123 L250 148 L244 167 L253 161 L281 137 L295 128 L297 128 L293 136 L289 148 L288 156 L294 158 L317 146 L333 138 L339 137 L339 143 L333 154 L331 161 L331 163 L350 145 L367 129 L375 125 L375 127 L372 134 L369 141 L369 145 L374 145 L387 136 L392 135 L392 136 L388 145 L384 158 L383 167 L384 168 L399 153 L408 145 L411 144 L410 148 L407 154 L406 159 L407 160 L416 157 L429 146 L432 145 L432 146 L429 153 L426 157 L426 158 L427 156 L437 146 L445 139 L446 139 L443 146 L440 151 L440 152 L442 151 L456 134 L471 117 L479 109 L479 110 L478 114 L477 115 L477 114 L479 101 L485 84 L488 77 L487 80 L474 97 L450 149 L442 175 L440 184 L443 178 L468 130 L507 57 L518 35 L520 30 L521 30 L517 38 L512 46 L509 53 L510 54 L521 42 L530 25 L533 18 L533 20 L528 32 L522 48 L519 56 L526 43 L532 32 L533 30 L533 33 L530 43 L527 54 L526 59 L527 57 L536 29 L541 8 L542 0 L542 4 L542 5 " fill="none" stroke="black" /></svg>