<?xml version="1.0" encoding="utf-8" ?>
<svg baseProfile="tiny" height="356" version="1.2" viewBox="-3 -3 639 356" width="639" xmlns="http://www.w3.org/2000/svg" xmlns:ev="http://www.w3.org/2001/xml-events" xmlns:xlink="http://www.w3.org/1999/xlink"><defs /><path d="M0 356 L0 354 L0 348 L0 342 L1 334 L5 324 L9 316 L14 307 L19 298 L23 293 L29 288 L34 283 L39 279 L46 275 L54 271 L61 267 L70 263 L78 259 L85 256 L93 253 L100 251 L105 250 L110 248 L115 246 L121 244 L125 243 L129 242 L132 241 L135 240 L139 239 L143 238 L150 237 L157 235 L164 233 L170 232 L178 230 L187 227 L195 225 L204 223 L214 220 L221 217 L227 215 L234 213 L241 210 L245 209 L250 207 L256 205 L260 204 L263 202 L267 200 L270 198 L275 195 L279 192 L281 190 L284 188 L288 185 L291 183 L294 181 L296 178 L299 177 L301 174 L303 172 L305 170 L307 166 L310 162 L313 157 L315 154 L318 150 L322 146 L325 143 L330 140 L338 136 L342 134 L346 132 L350 131 L355 129 L359 127 L361 126 L364 124 L366 123 L368 122 L370 120 L372 118 L374 116 L377 113 L380 110 L381 108 L383 105 L384 101 L386 98 L386 97 L387 94 L389 92 L390 92 L391 93 L395 94 L401 96 L408 97 L415 97 L422 97 L427 97 L430 97 L432 96 L433 94 L434 92 L435 88 L437 85 L437 84 L437 83 " fill="none" stroke="black" /><path d="M0 356 L0 354 L0 348 L0 342 L1 334 L5 324 L9 316 L14 307 L19 298 L23 293 L29 288 L34 283 L39 279 L46 275 L54 271 L61 267 L70 263 L78 259 L85 256 L93 253 L100 251 L105 250 L110 248 L115 246 L121 244 L125 243 L129 242 L132 241 L135 240 L139 239 L143 238 L150 237 L157 235 L164 233 L170 232 L178 230 L187 227 L195 225 L204 223 L214 220 L221 217 L227 215 L234 213 L241 210 L245 209 L250 207 L256 205 L260 204 L263 202 L267 200 L270 198 L275 195 L279 192 L281 190 L284 188 L288 185 L291 183 L294 181 L296 178 L299 177 L301 174 L303 172 L305 170 L307 166 L310 162 L313 157 L315 154 L318 150 L322 146 L325 143 L330 140 L338 136 L342 134 L346 132 L350 131 L355 129 L359 127 L361 126 L364 124 L366 123 L368 122 L370 120 L372 118 L374 116 L377 113 L380 110 L381 108 L383 105 L384 101 L386 98 L386 97 L387 94 L389 92 L390 92 L391 93 L395 94 L401 96 L408 97 L415 97 L422 97 L427 97 L430 97 L432 96 L433 94 L434 92 L435 88 L437 85 L437 84 L437 83 M437 83 L438 81 L443 74 L452 66 L459 62 L465 59 L469 57 L474 57 L478 57 L484 57 L491 56 L498 55 L507 53 L515 50 L522 47 L530 44 L538 41 L544 38 L550 35 L555 33 L560 30 L562 26 L564 23 L568 19 L571 16 L576 14 L582 12 L587 11 L592 10 L597 9 L601 9 L605 8 L609 8 L613 7 L618 6 L623 5 L627 4 L631 2 L634 2 L637 1 L639 0 " fill="none" stroke="black" /></svg>