<?xml version="1.0" encoding="utf-8" ?>
<svg baseProfile="tiny" height="303" version="1.2" viewBox="-3 -3 398 303" width="398" xmlns="http://www.w3.org/2000/svg" xmlns:ev="http://www.w3.org/2001/xml-events" xmlns:xlink="http://www.w3.org/1999/xlink"><defs /><path d="M87 128 L93 124 L97 121 L101 119 L107 115 L111 112 L115 110 L118 105 L121 101 L124 97 L128 91 L133 83 L138 76 L141 74 L143 73 L147 73 L150 73 L151 73 L153 73 L155 74 L157 76 L159 78 L161 79 L160 79 L176 74 L186 69 L196 64 L205 58 L213 53 L221 49 L226 47 L231 45 L236 43 L241 41 L244 39 L247 37 L250 34 L254 30 L260 28 L265 28 L269 32 L273 40 L276 47 L278 51 L282 53 L284 53 L289 53 L296 52 L306 50 L315 49 L325 47 L333 44 L342 42 L352 40 L357 38 L361 34 L364 29 L366 25 L367 20 L368 13 L369 6 L371 2 L372 2 L374 2 L376 2 L378 3 L380 3 L382 4 L385 7 L387 9 L387 12 L387 15 L389 19 L390 26 L393 33 L397 44 L398 54 L398 71 L398 85 L395 96 L392 104 L388 108 L381 112 L374 118 L364 123 L355 124 L349 124 L346 125 L345 125 L345 127 L345 131 L355 143 L365 155 L373 163 L379 167 L384 169 L387 170 L390 169 L392 169 L395 169 L394 169 L394 170 " fill="none" stroke="black" /><path d="M87 128 L93 124 L97 121 L101 119 L107 115 L111 112 L115 110 L118 105 L121 101 L124 97 L128 91 L133 83 L138 76 L141 74 L143 73 L147 73 L150 73 L151 73 L153 73 L155 74 L157 76 L159 78 L161 79 L160 79 L176 74 L186 69 L196 64 L205 58 L213 53 L221 49 L226 47 L231 45 L236 43 L241 41 L244 39 L247 37 L250 34 L254 30 L260 28 L265 28 L269 32 L273 40 L276 47 L278 51 L282 53 L284 53 L289 53 L296 52 L306 50 L315 49 L325 47 L333 44 L342 42 L352 40 L357 38 L361 34 L364 29 L366 25 L367 20 L368 13 L369 6 L371 2 L372 2 L374 2 L376 2 L378 3 L380 3 L382 4 L385 7 L387 9 L387 12 L387 15 L389 19 L390 26 L393 33 L397 44 L398 54 L398 71 L398 85 L395 96 L392 104 L388 108 L381 112 L374 118 L364 123 L355 124 L349 124 L346 125 L345 125 L345 127 L345 131 L355 143 L365 155 L373 163 L379 167 L384 169 L387 170 L390 169 L392 169 L395 169 L394 169 L394 170 M41 293 L41 291 L41 286 L41 279 L57 266 L85 256 L97 255 L103 258 L104 264 L104 271 L104 278 L109 290 L117 299 L132 303 L143 300 L153 291 L163 278 L170 262 L174 246 L174 231 L170 215 L163 199 L155 188 L146 180 L136 175 L120 170 L101 170 L80 170 L57 170 L33 171 L21 170 L10 165 L4 158 L0 146 L1 131 L29 104 L71 84 L116 73 L166 67 L196 64 L223 62 L247 58 L269 51 L290 37 L314 17 L333 4 L341 1 L345 0 " fill="none" stroke="black" /></svg>