<?xml version="1.0" encoding="utf-8" ?>
<svg baseProfile="tiny" height="256" version="1.2" viewBox="-3 -3 434 256" width="434" xmlns="http://www.w3.org/2000/svg" xmlns:ev="http://www.w3.org/2001/xml-events" xmlns:xlink="http://www.w3.org/1999/xlink"><defs /><path d="M100 0 L101 3 L102 8 L104 14 L105 21 L107 29 L108 40 L110 50 L113 62 L115 71 L116 81 L118 90 L119 100 L121 110 L122 119 L124 130 L125 138 L128 144 L130 148 L132 151 L134 153 L137 154 L140 156 L144 156 L146 156 L149 154 L152 149 L153 141 L155 134 L156 124 L157 118 L157 114 L157 110 L157 107 L158 102 L158 92 L159 85 L159 82 " fill="none" stroke="black" /><path d="M100 0 L101 3 L102 8 L104 14 L105 21 L107 29 L108 40 L110 50 L113 62 L115 71 L116 81 L118 90 L119 100 L121 110 L122 119 L124 130 L125 138 L128 144 L130 148 L132 151 L134 153 L137 154 L140 156 L144 156 L146 156 L149 154 L152 149 L153 141 L155 134 L156 124 L157 118 L157 114 L157 110 L157 107 L158 102 L158 92 L159 85 L159 82 M159 81 L163 80 L172 78 L181 78 L184 81 L189 89 L200 100 L217 107 L234 111 L250 111 L267 98 L281 84 L292 70 L301 60 L309 56 L321 55 L336 54 L354 53 L371 49 L380 48 L387 48 L393 48 L399 49 L404 49 L411 49 L418 49 L425 48 L430 47 L434 47 " fill="none" stroke="black" /><path d="M100 0 L101 3 L102 8 L104 14 L105 21 L107 29 L108 40 L110 50 L113 62 L115 71 L116 81 L118 90 L119 100 L121 110 L122 119 L124 130 L125 138 L128 144 L130 148 L132 151 L134 153 L137 154 L140 156 L144 156 L146 156 L149 154 L152 149 L153 141 L155 134 L156 124 L157 118 L157 114 L157 110 L157 107 L158 102 L158 92 L159 85 L159 82 M159 81 L163 80 L172 78 L181 78 L184 81 L189 89 L200 100 L217 107 L234 111 L250 111 L267 98 L281 84 L292 70 L301 60 L309 56 L321 55 L336 54 L354 53 L371 49 L380 48 L387 48 L393 48 L399 49 L404 49 L411 49 L418 49 L425 48 L430 47 L434 47 M421 16 L418 16 L408 19 L399 27 L392 45 L388 73 L384 99 L379 120 L373 132 L358 142 L337 148 L316 146 L297 127 L282 101 L273 78 L265 58 L257 44 L248 32 L234 20 L216 9 L202 3 L188 2 L180 4 L173 17 L171 31 L170 57 L182 93 L195 115 L203 122 L210 127 L220 134 L230 141 L238 149 L242 157 L244 160 L248 160 L272 158 L290 158 L295 159 L295 161 L295 165 L296 175 L300 191 L303 208 L304 217 " fill="none" stroke="black" /><path d="M100 0 L101 3 L102 8 L104 14 L105 21 L107 29 L108 40 L110 50 L113 62 L115 71 L116 81 L118 90 L119 100 L121 110 L122 119 L124 130 L125 138 L128 144 L130 148 L132 151 L134 153 L137 154 L140 156 L144 156 L146 156 L149 154 L152 149 L153 141 L155 134 L156 124 L157 118 L157 114 L157 110 L157 107 L158 102 L158 92 L159 85 L159 82 M159 81 L163 80 L172 78 L181 78 L184 81 L189 89 L200 100 L217 107 L234 111 L250 111 L267 98 L281 84 L292 70 L301 60 L309 56 L321 55 L336 54 L354 53 L371 49 L380 48 L387 48 L393 48 L399 49 L404 49 L411 49 L418 49 L425 48 L430 47 L434 47 M421 16 L418 16 L408 19 L399 27 L392 45 L388 73 L384 99 L379 120 L373 132 L358 142 L337 148 L316 146 L297 127 L282 101 L273 78 L265 58 L257 44 L248 32 L234 20 L216 9 L202 3 L188 2 L180 4 L173 17 L171 31 L170 57 L182 93 L195 115 L203 122 L210 127 L220 134 L230 141 L238 149 L242 157 L244 160 L248 160 L272 158 L290 158 L295 159 L295 161 L295 165 L296 175 L300 191 L303 208 L304 217 M0 105 L0 101 L0 87 L0 72 L3 63 L6 64 L7 76 L12 95 L20 122 L28 148 L37 175 L49 204 L58 222 L64 229 L71 237 L86 247 L106 255 L130 256 L147 256 L157 254 L167 254 L172 254 L177 254 L181 254 L183 254 L184 248 L178 223 L167 178 L163 146 L158 119 L154 105 L151 95 L149 81 L148 63 L148 52 L150 49 L154 48 " fill="none" stroke="black" /></svg>