<?xml version="1.0" encoding="utf-8" ?>
<svg baseProfile="tiny" height="257" version="1.2" viewBox="-3 -3 533 257" width="533" xmlns="http://www.w3.org/2000/svg" xmlns:ev="http://www.w3.org/2001/xml-events" xmlns:xlink="http://www.w3.org/1999/xlink"><defs /><path d="M0 132 L5 131 L11 130 L18 128 L26 127 L34 125 L42 124 L50 123 L57 122 L64 120 L70 120 L75 119 L82 119 L89 119 L94 119 L100 119 L104 119 L110 119 L117 118 L123 118 L130 117 L141 117 L152 115 L162 114 L170 113 L176 112 L181 111 L187 110 L192 108 L198 106 L203 105 L207 103 L212 101 L217 100 L221 98 L224 97 L228 96 L232 95 L235 94 L239 93 L242 93 L244 93 L247 92 L250 92 " fill="none" stroke="black" /><path d="M0 132 L5 131 L11 130 L18 128 L26 127 L34 125 L42 124 L50 123 L57 122 L64 120 L70 120 L75 119 L82 119 L89 119 L94 119 L100 119 L104 119 L110 119 L117 118 L123 118 L130 117 L141 117 L152 115 L162 114 L170 113 L176 112 L181 111 L187 110 L192 108 L198 106 L203 105 L207 103 L212 101 L217 100 L221 98 L224 97 L228 96 L232 95 L235 94 L239 93 L242 93 L244 93 L247 92 L250 92 M276 175 L270 175 L264 175 L251 173 L241 166 L235 161 L230 155 L223 149 L218 144 L214 140 L211 135 L208 130 L206 124 L205 117 L205 111 L205 106 L206 99 L208 95 L211 90 L217 83 L225 76 L233 71 L243 68 L257 66 L268 65 L280 64 L290 64 L300 64 L310 64 L318 65 L328 67 L338 68 L347 69 L359 71 L370 71 L380 71 L392 70 L405 66 L419 60 L430 57 L438 53 L445 50 L452 47 L459 45 L465 42 L471 40 L478 38 L482 36 L484 34 L486 31 L488 28 L489 25 L492 21 L496 18 L497 17 L499 17 L503 16 L507 15 L511 14 L517 14 L522 14 L527 14 L533 14 " fill="none" stroke="black" /><path d="M0 132 L5 131 L11 130 L18 128 L26 127 L34 125 L42 124 L50 123 L57 122 L64 120 L70 120 L75 119 L82 119 L89 119 L94 119 L100 119 L104 119 L110 119 L117 118 L123 118 L130 117 L141 117 L152 115 L162 114 L170 113 L176 112 L181 111 L187 110 L192 108 L198 106 L203 105 L207 103 L212 101 L217 100 L221 98 L224 97 L228 96 L232 95 L235 94 L239 93 L242 93 L244 93 L247 92 L250 92 M276 175 L270 175 L264 175 L251 173 L241 166 L235 161 L230 155 L223 149 L218 144 L214 140 L211 135 L208 130 L206 124 L205 117 L205 111 L205 106 L206 99 L208 95 L211 90 L217 83 L225 76 L233 71 L243 68 L257 66 L268 65 L280 64 L290 64 L300 64 L310 64 L318 65 L328 67 L338 68 L347 69 L359 71 L370 71 L380 71 L392 70 L405 66 L419 60 L430 57 L438 53 L445 50 L452 47 L459 45 L465 42 L471 40 L478 38 L482 36 L484 34 L486 31 L488 28 L489 25 L492 21 L496 18 L497 17 L499 17 L503 16 L507 15 L511 14 L517 14 L522 14 L527 14 L533 14 M491 0 L491 1 L491 5 L491 16 L491 25 L491 32 L492 36 L496 40 L501 45 L505 52 L509 57 L512 67 L513 72 L513 77 L513 84 L511 91 L508 99 L504 107 L498 116 L493 123 L488 129 L482 135 L475 141 L466 147 L458 153 L450 158 L440 165 L432 173 L424 182 L416 192 L408 202 L402 212 L396 221 L389 228 L380 236 L373 241 L368 246 L365 249 L365 252 L365 254 L365 255 L366 256 L368 257 " fill="none" stroke="black" /></svg>