<?xml version="1.0" encoding="utf-8" ?>
<svg baseProfile="tiny" height="335" version="1.2" viewBox="-3 -3 539 335" width="539" xmlns="http://www.w3.org/2000/svg" xmlns:ev="http://www.w3.org/2001/xml-events" xmlns:xlink="http://www.w3.org/1999/xlink"><defs /><path d="M169 187 L169 185 L169 176 L178 147 L202 118 L235 96 L267 87 L287 87 L300 97 L308 110 L309 124 L311 142 L314 165 L320 190 L327 210 L336 223 L344 230 L353 234 L366 235 L382 229 L400 216 L417 198 L433 175 L442 157 L449 135 L459 117 L471 106 L475 105 L482 105 L487 110 L490 117 L493 125 L494 132 L494 143 L494 171 L494 203 L492 234 L491 256 L491 269 L491 276 L495 279 L502 277 L509 269 L519 258 L529 238 L536 214 L538 192 L539 165 L531 144 L516 123 L500 107 L489 104 L479 104 L474 106 L468 112 L456 131 L437 173 L425 205 L415 230 L408 248 L400 262 L392 274 L381 285 L356 302 L334 315 L312 324 L286 331 L263 334 L243 335 L224 325 L204 306 L182 274 L166 243 L147 212 L130 191 L115 183 L102 182 L91 184 L82 189 L74 195 L64 206 L54 217 L43 227 L33 235 L23 242 L17 243 L13 243 L9 236 L3 212 L0 185 L2 146 L17 107 L34 75 L61 45 L95 22 L130 8 L150 2 L165 1 L178 3 L192 8 L211 16 L229 24 L247 33 L265 42 L276 47 L286 51 L300 54 L315 55 L328 50 L341 42 L354 29 L364 16 L374 6 L382 2 L390 0 L396 0 L402 4 L405 9 L408 17 L413 25 L420 34 L432 43 L446 49 L457 52 L468 53 L477 53 L484 51 L490 46 L498 37 L506 25 L513 17 L515 15 L516 15 L518 16 L521 21 L528 34 L533 42 L535 43 " fill="none" stroke="black" /></svg>