<?xml version="1.0" encoding="utf-8" ?>
<svg baseProfile="tiny" height="572" version="1.2" viewBox="-3 -3 459 572" width="459" xmlns="http://www.w3.org/2000/svg" xmlns:ev="http://www.w3.org/2001/xml-events" xmlns:xlink="http://www.w3.org/1999/xlink"><defs /><path d="M50 406 L63 395 L107 331 L140 281 L154 260 L157 258 L157 264 L155 280 L157 330 L161 355 L163 364 L169 354 L197 288 L252 165 L291 71 L303 22 L303 17 L301 19 L297 29 L285 78 L246 269 L213 454 L201 530 L197 567 L197 572 L197 568 L213 499 L280 321 L330 193 L349 141 L354 119 L354 114 L350 119 L338 151 L318 251 L303 348 L298 395 L298 402 L304 390 L355 294 L379 252 L393 230 L394 229 L392 234 L385 261 L381 300 L379 322 L379 326 L388 310 L412 264 L424 242 L426 239 L424 244 L419 263 L416 285 L416 297 L426 279 L432 269 L434 269 L433 276 L431 293 L431 314 L431 325 L436 321 L450 290 L457 276 L459 275 L459 281 L457 295 L456 313 L456 318 L456 312 L458 298 L459 295 L459 298 L459 306 L459 314 " fill="none" stroke="black" /><path d="M50 406 L63 395 L107 331 L140 281 L154 260 L157 258 L157 264 L155 280 L157 330 L161 355 L163 364 L169 354 L197 288 L252 165 L291 71 L303 22 L303 17 L301 19 L297 29 L285 78 L246 269 L213 454 L201 530 L197 567 L197 572 L197 568 L213 499 L280 321 L330 193 L349 141 L354 119 L354 114 L350 119 L338 151 L318 251 L303 348 L298 395 L298 402 L304 390 L355 294 L379 252 L393 230 L394 229 L392 234 L385 261 L381 300 L379 322 L379 326 L388 310 L412 264 L424 242 L426 239 L424 244 L419 263 L416 285 L416 297 L426 279 L432 269 L434 269 L433 276 L431 293 L431 314 L431 325 L436 321 L450 290 L457 276 L459 275 L459 281 L457 295 L456 313 L456 318 L456 312 L458 298 L459 295 L459 298 L459 306 L459 314 M458 318 L458 313 L458 303 L458 261 L449 182 L439 141 L433 120 L430 120 L420 176 L406 329 L393 467 L387 511 L385 515 L385 494 L390 420 L397 297 L392 217 L382 183 L378 177 L367 223 L331 369 L292 509 L280 550 L275 560 L270 522 L272 291 L304 95 L313 23 L314 0 L308 0 L299 20 L274 89 L211 298 L182 440 L168 510 L163 522 L158 515 L153 406 L161 283 L166 204 L165 173 L161 165 L156 169 L139 239 L107 397 L88 508 L81 544 L78 545 L77 432 L91 275 L96 218 L96 204 L91 210 L78 250 L57 318 L39 376 L31 402 L28 407 L25 349 L26 280 L28 254 L28 251 L27 258 L20 283 L11 317 L4 337 L1 342 L1 299 L2 273 L2 267 L2 272 L0 281 " fill="none" stroke="black" /></svg>