<?xml version="1.0" encoding="utf-8" ?>
<svg baseProfile="tiny" height="149" version="1.2" viewBox="-3 -3 610 149" width="610" xmlns="http://www.w3.org/2000/svg" xmlns:ev="http://www.w3.org/2001/xml-events" xmlns:xlink="http://www.w3.org/1999/xlink"><defs /><path d="M0 149 L1 149 L8 149 L20 149 L38 149 L51 149 L67 147 L76 146 L83 145 L89 144 L95 144 L100 143 L104 142 L111 141 L115 139 L121 138 L126 136 L132 135 L137 133 L141 132 L147 130 L151 129 L159 126 L165 125 L172 123 L179 122 L186 120 L197 119 L203 119 L210 118 L215 118 L219 117 L222 116 L226 116 L231 115 L237 115 L244 115 L250 115 L255 115 L258 114 L262 114 L268 114 L272 113 L276 113 L280 113 L283 113 L288 113 L294 112 L300 112 L305 112 L308 112 L311 112 L315 111 L320 110 L323 110 L327 110 L329 110 L332 110 L335 110 L338 109 " fill="none" stroke="black" /><circle cx="134" cy="108" fill="black" r="1" /><circle cx="200" cy="107" fill="black" r="1" /><circle cx="202" cy="136" fill="black" r="1" /><circle cx="235" cy="136" fill="black" r="1" /><circle cx="315" cy="95" fill="black" r="1" /><circle cx="368" cy="93" fill="black" r="1" /><path d="M0 149 L1 149 L8 149 L20 149 L38 149 L51 149 L67 147 L76 146 L83 145 L89 144 L95 144 L100 143 L104 142 L111 141 L115 139 L121 138 L126 136 L132 135 L137 133 L141 132 L147 130 L151 129 L159 126 L165 125 L172 123 L179 122 L186 120 L197 119 L203 119 L210 118 L215 118 L219 117 L222 116 L226 116 L231 115 L237 115 L244 115 L250 115 L255 115 L258 114 L262 114 L268 114 L272 113 L276 113 L280 113 L283 113 L288 113 L294 112 L300 112 L305 112 L308 112 L311 112 L315 111 L320 110 L323 110 L327 110 L329 110 L332 110 L335 110 L338 109 M336 106 L340 106 L351 106 L364 106 L378 106 L389 106 L400 105 L409 103 L418 103 L422 102 L427 101 L432 100 L437 98 L442 97 L447 95 L451 93 L455 91 L462 87 L466 84 L469 82 L472 80 L474 78 L476 76 L479 74 L482 72 L486 70 L492 67 L498 65 L502 63 L504 62 L506 60 L508 59 L509 58 L510 58 L511 56 L512 52 L514 48 L515 45 L516 42 L516 40 L516 38 L516 37 L516 36 L516 35 " fill="none" stroke="black" /><path d="M0 149 L1 149 L8 149 L20 149 L38 149 L51 149 L67 147 L76 146 L83 145 L89 144 L95 144 L100 143 L104 142 L111 141 L115 139 L121 138 L126 136 L132 135 L137 133 L141 132 L147 130 L151 129 L159 126 L165 125 L172 123 L179 122 L186 120 L197 119 L203 119 L210 118 L215 118 L219 117 L222 116 L226 116 L231 115 L237 115 L244 115 L250 115 L255 115 L258 114 L262 114 L268 114 L272 113 L276 113 L280 113 L283 113 L288 113 L294 112 L300 112 L305 112 L308 112 L311 112 L315 111 L320 110 L323 110 L327 110 L329 110 L332 110 L335 110 L338 109 M336 106 L340 106 L351 106 L364 106 L378 106 L389 106 L400 105 L409 103 L418 103 L422 102 L427 101 L432 100 L437 98 L442 97 L447 95 L451 93 L455 91 L462 87 L466 84 L469 82 L472 80 L474 78 L476 76 L479 74 L482 72 L486 70 L492 67 L498 65 L502 63 L504 62 L506 60 L508 59 L509 58 L510 58 L511 56 L512 52 L514 48 L515 45 L516 42 L516 40 L516 38 L516 37 L516 36 L516 35 M516 35 L518 34 L525 32 L534 29 L541 28 L549 26 L554 25 L560 25 L565 23 L569 21 L573 20 L579 16 L584 14 L588 11 L594 7 L601 4 L606 2 L609 1 L610 0 " fill="none" stroke="black" /><circle cx="479" cy="109" fill="black" r="1" /><circle cx="501" cy="85" fill="black" r="1" /><circle cx="497" cy="53" fill="black" r="1" /><circle cx="541" cy="9" fill="black" r="1" /><circle cx="576" cy="8" fill="black" r="1" /><circle cx="597" cy="9" fill="black" r="1" /><circle cx="608" cy="25" fill="black" r="1" /></svg>