<?xml version="1.0" encoding="utf-8" ?>
<svg baseProfile="tiny" height="244" version="1.2" viewBox="-3 -3 765 244" width="765" xmlns="http://www.w3.org/2000/svg" xmlns:ev="http://www.w3.org/2001/xml-events" xmlns:xlink="http://www.w3.org/1999/xlink"><defs /><path d="M0 126 L0 125 L0 109 L0 73 L0 38 L16 8 L39 0 L57 5 L67 22 L71 39 L77 71 L88 102 L103 129 L117 141 L130 145 L146 147 L158 147 L172 147 L188 147 L201 145 L213 143 L222 142 L230 140 L237 138 L242 137 L248 136 L253 135 L258 134 L263 133 L267 132 L272 132 L279 131 L284 131 L290 131 L296 131 L303 131 L308 130 L312 130 L315 130 L319 130 L324 130 L328 130 L335 130 L341 130 L345 130 L348 130 L350 130 L351 130 L352 129 L353 129 L354 129 L354 128 L355 128 L355 127 L355 126 " fill="none" stroke="black" /><path d="M0 126 L0 125 L0 109 L0 73 L0 38 L16 8 L39 0 L57 5 L67 22 L71 39 L77 71 L88 102 L103 129 L117 141 L130 145 L146 147 L158 147 L172 147 L188 147 L201 145 L213 143 L222 142 L230 140 L237 138 L242 137 L248 136 L253 135 L258 134 L263 133 L267 132 L272 132 L279 131 L284 131 L290 131 L296 131 L303 131 L308 130 L312 130 L315 130 L319 130 L324 130 L328 130 L335 130 L341 130 L345 130 L348 130 L350 130 L351 130 L352 129 L353 129 L354 129 L354 128 L355 128 L355 127 L355 126 M355 126 L358 126 L369 126 L384 126 L394 126 L403 126 L413 126 L423 126 L433 126 L442 126 L449 125 L457 125 L465 125 L472 125 L479 124 L485 124 L492 124 L498 124 L507 124 L514 125 L526 126 L536 126 L546 127 L557 127 L566 127 L575 127 L587 128 L600 129 L608 129 L616 129 L623 129 L628 129 L633 127 L639 125 L643 123 L648 120 L651 117 L654 114 L657 111 L659 109 L662 106 L666 103 L670 100 L676 99 L681 99 L686 99 L690 101 L693 105 L695 109 L696 112 L696 114 L697 117 L697 119 " fill="none" stroke="black" /><path d="M0 126 L0 125 L0 109 L0 73 L0 38 L16 8 L39 0 L57 5 L67 22 L71 39 L77 71 L88 102 L103 129 L117 141 L130 145 L146 147 L158 147 L172 147 L188 147 L201 145 L213 143 L222 142 L230 140 L237 138 L242 137 L248 136 L253 135 L258 134 L263 133 L267 132 L272 132 L279 131 L284 131 L290 131 L296 131 L303 131 L308 130 L312 130 L315 130 L319 130 L324 130 L328 130 L335 130 L341 130 L345 130 L348 130 L350 130 L351 130 L352 129 L353 129 L354 129 L354 128 L355 128 L355 127 L355 126 M355 126 L358 126 L369 126 L384 126 L394 126 L403 126 L413 126 L423 126 L433 126 L442 126 L449 125 L457 125 L465 125 L472 125 L479 124 L485 124 L492 124 L498 124 L507 124 L514 125 L526 126 L536 126 L546 127 L557 127 L566 127 L575 127 L587 128 L600 129 L608 129 L616 129 L623 129 L628 129 L633 127 L639 125 L643 123 L648 120 L651 117 L654 114 L657 111 L659 109 L662 106 L666 103 L670 100 L676 99 L681 99 L686 99 L690 101 L693 105 L695 109 L696 112 L696 114 L697 117 L697 119 M698 118 L698 120 L698 129 L698 136 L698 140 L700 144 L707 150 L715 152 L724 153 L730 153 L733 153 L735 153 L738 155 L741 163 L745 177 L747 187 L748 197 L748 208 L748 220 L748 229 L753 236 L760 242 L765 244 " fill="none" stroke="black" /></svg>