<?xml version="1.0" encoding="utf-8" ?>
<svg baseProfile="tiny" height="354" version="1.2" viewBox="-3 -3 531 354" width="531" xmlns="http://www.w3.org/2000/svg" xmlns:ev="http://www.w3.org/2001/xml-events" xmlns:xlink="http://www.w3.org/1999/xlink"><defs /><path d="M0 354 L0 348 L20 302 L64 238 L98 204 L112 192 L113 193 L108 205 L102 254 L101 284 L101 299 L102 301 L121 267 L161 204 L184 172 L192 163 L192 167 L188 189 L188 231 L189 250 L193 253 L223 228 L262 192 L286 171 L288 169 L287 172 L284 176 L284 178 L288 174 L312 145 L350 92 L372 57 L376 49 L375 50 L374 51 L374 52 L375 51 L389 43 L408 28 L413 25 L410 32 L410 40 L410 45 L414 46 L428 33 L443 20 L452 14 L453 14 L455 14 L458 14 " fill="none" stroke="black" /><path d="M0 354 L0 348 L20 302 L64 238 L98 204 L112 192 L113 193 L108 205 L102 254 L101 284 L101 299 L102 301 L121 267 L161 204 L184 172 L192 163 L192 167 L188 189 L188 231 L189 250 L193 253 L223 228 L262 192 L286 171 L288 169 L287 172 L284 176 L284 178 L288 174 L312 145 L350 92 L372 57 L376 49 L375 50 L374 51 L374 52 L375 51 L389 43 L408 28 L413 25 L410 32 L410 40 L410 45 L414 46 L428 33 L443 20 L452 14 L453 14 L455 14 L458 14 M461 0 L461 3 L460 21 L458 41 L458 48 L458 47 L458 38 L458 25 L454 14 L450 7 L447 6 L444 7 L441 16 L434 37 L430 44 L428 43 L424 28 L418 15 L415 11 L413 12 L412 22 L409 45 L407 58 L406 60 L405 54 L401 41 L396 36 L391 36 L385 50 L370 92 L363 111 L362 114 L361 106 L359 96 L356 88 L353 85 L351 85 L346 99 L340 116 L334 128 L331 131 L329 125 L323 115 L317 110 L314 112 L308 137 L301 164 L297 180 L293 189 L290 190 L286 181 L283 178 L280 178 L277 185 L271 194 L263 202 L255 206 L246 205 L238 196 L232 193 L229 194 L228 203 L226 214 L223 223 L221 225 L219 225 L217 224 L215 224 L215 227 L214 233 L213 237 " fill="none" stroke="black" /><path d="M0 354 L0 348 L20 302 L64 238 L98 204 L112 192 L113 193 L108 205 L102 254 L101 284 L101 299 L102 301 L121 267 L161 204 L184 172 L192 163 L192 167 L188 189 L188 231 L189 250 L193 253 L223 228 L262 192 L286 171 L288 169 L287 172 L284 176 L284 178 L288 174 L312 145 L350 92 L372 57 L376 49 L375 50 L374 51 L374 52 L375 51 L389 43 L408 28 L413 25 L410 32 L410 40 L410 45 L414 46 L428 33 L443 20 L452 14 L453 14 L455 14 L458 14 M461 0 L461 3 L460 21 L458 41 L458 48 L458 47 L458 38 L458 25 L454 14 L450 7 L447 6 L444 7 L441 16 L434 37 L430 44 L428 43 L424 28 L418 15 L415 11 L413 12 L412 22 L409 45 L407 58 L406 60 L405 54 L401 41 L396 36 L391 36 L385 50 L370 92 L363 111 L362 114 L361 106 L359 96 L356 88 L353 85 L351 85 L346 99 L340 116 L334 128 L331 131 L329 125 L323 115 L317 110 L314 112 L308 137 L301 164 L297 180 L293 189 L290 190 L286 181 L283 178 L280 178 L277 185 L271 194 L263 202 L255 206 L246 205 L238 196 L232 193 L229 194 L228 203 L226 214 L223 223 L221 225 L219 225 L217 224 L215 224 L215 227 L214 233 L213 237 M215 293 L215 292 L216 274 L221 248 L225 234 L234 215 L242 199 L254 180 L268 159 L281 141 L294 126 L310 112 L339 93 L361 83 L380 76 L408 69 L440 60 L466 52 L489 44 L510 34 L523 24 L530 19 L531 18 " fill="none" stroke="black" /></svg>