<?xml version="1.0" encoding="utf-8" ?>
<svg baseProfile="tiny" height="691" version="1.2" viewBox="-3 -3 851 691" width="851" xmlns="http://www.w3.org/2000/svg" xmlns:ev="http://www.w3.org/2001/xml-events" xmlns:xlink="http://www.w3.org/1999/xlink"><defs /><path d="M206 341 L206 339 L219 290 L255 230 L269 206 L270 202 L268 212 L242 292 L196 427 L174 508 L165 548 L169 537 L241 386 L381 156 L431 80 L447 52 L445 55 L406 133 L276 419 L235 533 L219 581 L217 585 L287 492 L426 311 L507 219 L532 194 L537 193 L485 261 L340 491 L257 624 L225 677 L217 691 L249 640 L424 420 L682 113 L762 33 L795 2 L798 0 L746 49 L607 183 L481 331 L435 396 L426 411 L433 407 L548 339 L690 261 L749 228 L776 215 L774 219 L730 261 L624 383 L548 483 L521 521 L514 530 L542 495 L675 349 L771 239 L809 193 L821 180 L809 196 L764 260 L707 348 L675 395 L664 414 L667 411 L760 330 L822 278 L848 256 L851 253 L845 261 L816 293 L737 355 L613 431 L553 460 L520 452 L518 357 L565 191 L586 124 L591 95 L582 100 L532 142 L408 261 L352 320 L323 353 L315 359 L316 327 L389 169 L446 80 L474 38 L475 34 L442 65 L306 181 L185 310 L108 406 L82 443 L72 457 L78 438 L201 243 L279 123 L308 84 L309 82 L269 111 L183 196 L100 288 L41 358 L10 396 L0 405 L3 379 L63 249 L132 126 L174 69 L188 51 L180 59 L137 103 L79 167 L43 214 L23 245 L18 255 L18 254 L44 203 L141 77 L191 32 L216 13 L219 12 L216 18 L204 32 L196 41 " fill="none" stroke="black" /></svg>