<?xml version="1.0" encoding="utf-8" ?>
<svg baseProfile="tiny" height="297" version="1.2" viewBox="-3 -3 183 297" width="183" xmlns="http://www.w3.org/2000/svg" xmlns:ev="http://www.w3.org/2001/xml-events" xmlns:xlink="http://www.w3.org/1999/xlink"><defs /><path d="M0 212 L8 196 L14 186 L15 185 L16 185 L16 188 L16 192 L19 198 L24 202 L27 204 L31 204 L36 204 L42 199 L49 191 L54 183 L57 175 L59 169 L60 165 L61 164 L61 166 L61 169 L61 172 L61 175 L61 177 L62 177 L65 173 L69 161 L75 143 L78 124 L79 106 L77 91 L70 78 L61 71 L51 70 L41 74 L36 80 L33 91 L32 128 L34 164 L38 193 L41 217 L43 241 L45 264 L45 276 L41 286 L38 292 L36 295 L34 296 L32 297 L31 297 L30 297 L29 297 L28 297 L26 295 L22 291 L21 285 L21 279 L26 274 L34 270 L41 268 L52 266 L64 265 L72 263 L79 259 L84 254 L89 246 L95 233 L98 223 L100 212 L102 201 L103 192 L104 181 L104 172 L106 161 L107 150 L109 141 L110 134 L111 129 L112 124 L114 119 L114 117 L114 119 L114 125 L114 133 L114 148 L115 164 L116 174 L117 182 L118 192 L119 203 L120 216 L121 222 L121 224 L122 225 L125 221 L128 211 L134 191 L140 172 L146 153 L150 140 L152 129 L154 117 L156 103 L156 92 L156 84 L156 80 L156 81 L155 87 L155 101 L155 126 L156 156 L156 178 L156 199 L155 217 L154 235 L153 250 L151 264 L148 277 L144 287 L141 292 L139 293 L137 291 L134 279 L133 261 L133 243 L137 230 L143 222 L149 219 L152 219 L157 219 L165 215 L173 202 L179 187 L183 170 L183 150 L183 114 L183 92 L183 66 L182 36 L182 11 L182 2 L182 0 L181 2 L177 15 L176 49 L176 84 L176 102 L179 129 L181 144 L181 150 " fill="none" stroke="black" /></svg>