<?xml version="1.0" encoding="utf-8" ?>
<svg baseProfile="tiny" height="18" version="1.2" viewBox="-3 -3 332 18" width="332" xmlns="http://www.w3.org/2000/svg" xmlns:ev="http://www.w3.org/2001/xml-events" xmlns:xlink="http://www.w3.org/1999/xlink"><defs /><path d="M0 18 L1 18 L6 18 L14 18 L25 18 L34 18 L41 18 L47 18 L53 18 L58 18 L62 18 L65 18 L70 18 L75 18 L81 17 L87 17 L93 17 L98 16 L104 16 L111 14 L115 14 L118 14 L122 14 L126 14 L131 14 L137 14 L143 13 L148 12 L152 12 L158 11 L164 11 L169 11 L173 11 L177 11 L181 11 L184 11 L187 10 L190 10 L192 10 L195 9 L197 9 L198 9 L199 9 L200 8 L201 7 L203 5 L205 3 L206 3 L207 3 L208 3 L210 4 L213 5 L216 7 L220 8 L223 8 L225 8 L227 8 L231 9 L239 11 L248 13 L254 15 L257 16 L259 16 L260 16 L261 16 L263 16 L269 15 L274 13 L277 12 L278 12 L280 11 L282 10 L284 10 L287 10 L289 10 L291 10 L293 10 L296 10 L301 10 L304 10 L307 10 L310 11 L315 12 L319 12 L321 12 L322 12 L323 12 L325 12 L326 11 L328 10 L329 9 L330 7 L330 5 L331 3 L332 1 L332 0 " fill="none" stroke="black" /></svg>