<?xml version="1.0" encoding="utf-8" ?>
<svg baseProfile="tiny" height="332" version="1.2" viewBox="-3 -3 502 332" width="502" xmlns="http://www.w3.org/2000/svg" xmlns:ev="http://www.w3.org/2001/xml-events" xmlns:xlink="http://www.w3.org/1999/xlink"><defs /><path d="M452 91 L457 86 L460 82 L464 79 L469 75 L476 70 L483 63 L489 56 L493 49 L497 40 L499 34 L500 28 L502 22 L502 18 L502 17 " fill="none" stroke="black" /><path d="M452 91 L457 86 L460 82 L464 79 L469 75 L476 70 L483 63 L489 56 L493 49 L497 40 L499 34 L500 28 L502 22 L502 18 L502 17 M461 0 L461 5 L462 18 L468 34 L478 55 L488 76 L493 89 L496 97 L496 103 L496 110 L494 114 L489 116 L481 117 L467 117 L449 117 L430 113 L419 108 L408 101 L396 92 L387 85 L377 76 L363 64 L347 56 L332 55 L325 58 L322 63 L321 68 L321 76 L325 87 L331 103 L339 123 L345 142 L351 158 L356 171 L360 182 L363 191 L364 198 L364 200 L361 199 L350 191 L323 172 L294 149 L267 129 L247 117 L237 112 L231 110 L228 112 L228 119 L228 126 L232 141 L241 172 L248 196 L252 210 L253 215 L250 216 L245 211 L238 202 L221 181 L204 157 L191 137 L184 128 L179 126 L177 127 L175 136 L172 148 L167 176 L163 214 L160 241 L158 252 L155 252 L146 247 L137 237 L123 224 L107 209 L93 199 L83 194 L77 194 L75 199 L73 205 L71 225 L68 255 L65 276 L62 283 L57 283 L50 277 L41 267 L29 251 L17 236 L10 227 L6 224 L4 224 L2 227 L1 233 L0 245 L0 272 L0 303 L0 323 L1 332 " fill="none" stroke="black" /><path d="M452 91 L457 86 L460 82 L464 79 L469 75 L476 70 L483 63 L489 56 L493 49 L497 40 L499 34 L500 28 L502 22 L502 18 L502 17 M461 0 L461 5 L462 18 L468 34 L478 55 L488 76 L493 89 L496 97 L496 103 L496 110 L494 114 L489 116 L481 117 L467 117 L449 117 L430 113 L419 108 L408 101 L396 92 L387 85 L377 76 L363 64 L347 56 L332 55 L325 58 L322 63 L321 68 L321 76 L325 87 L331 103 L339 123 L345 142 L351 158 L356 171 L360 182 L363 191 L364 198 L364 200 L361 199 L350 191 L323 172 L294 149 L267 129 L247 117 L237 112 L231 110 L228 112 L228 119 L228 126 L232 141 L241 172 L248 196 L252 210 L253 215 L250 216 L245 211 L238 202 L221 181 L204 157 L191 137 L184 128 L179 126 L177 127 L175 136 L172 148 L167 176 L163 214 L160 241 L158 252 L155 252 L146 247 L137 237 L123 224 L107 209 L93 199 L83 194 L77 194 L75 199 L73 205 L71 225 L68 255 L65 276 L62 283 L57 283 L50 277 L41 267 L29 251 L17 236 L10 227 L6 224 L4 224 L2 227 L1 233 L0 245 L0 272 L0 303 L0 323 L1 332 M62 325 L62 324 L62 281 L70 215 L103 131 L114 112 L120 106 L120 110 L126 134 L146 178 L165 209 L190 224 L228 215 L281 169 L326 125 L341 109 L347 103 L349 102 L350 106 L359 132 L373 150 L383 159 L390 159 L402 146 L422 115 L437 79 L443 57 L445 47 L446 47 L446 50 L448 58 L463 79 L478 98 L486 107 L493 113 L498 116 " fill="none" stroke="black" /></svg>