<?xml version="1.0" encoding="utf-8" ?>
<svg baseProfile="tiny" height="218" version="1.2" viewBox="-3 -3 553 218" width="553" xmlns="http://www.w3.org/2000/svg" xmlns:ev="http://www.w3.org/2001/xml-events" xmlns:xlink="http://www.w3.org/1999/xlink"><defs /><path d="M0 135 L5 151 L10 163 L22 175 L39 189 L59 201 L76 211 L93 217 L112 218 L129 214 L150 209 L171 201 L186 194 L190 187 L196 175 L203 156 L205 134 L205 118 L203 102 L200 86 L194 71 L187 58 L177 45 L167 35 L152 24 L135 13 L125 6 L116 3 L105 0 L103 1 L98 7 L88 20 L77 32 L72 43 L64 62 L58 80 L56 91 L55 102 L58 117 L67 140 L78 156 L88 168 L106 181 L135 196 L159 203 L182 208 L200 210 L219 210 L252 197 L275 165 L280 141 L279 120 L275 99 L268 80 L259 68 L249 58 L239 50 L229 44 L216 39 L203 35 L194 33 L188 32 L181 32 L175 38 L167 50 L159 61 L155 73 L153 93 L152 113 L156 132 L162 146 L171 159 L185 170 L198 179 L218 188 L248 194 L277 194 L293 190 L302 178 L308 159 L311 143 L313 128 L313 112 L311 98 L307 86 L298 74 L285 63 L277 59 L271 59 L263 61 L255 69 L250 80 L245 96 L243 115 L244 135 L250 155 L268 177 L292 194 L317 201 L351 208 L386 202 L402 183 L403 159 L400 134 L395 115 L389 102 L383 93 L365 81 L350 77 L345 77 L338 82 L326 94 L321 107 L321 117 L324 130 L334 146 L349 160 L377 174 L420 182 L459 182 L471 164 L471 140 L466 119 L459 107 L451 101 L441 100 L424 102 L407 110 L405 118 L405 132 L409 147 L422 162 L447 179 L486 188 L522 184 L535 164 L533 143 L526 129 L517 119 L508 115 L501 115 L498 122 L496 136 L498 150 L508 163 L524 171 L543 169 L553 157 L553 151 L553 149 " fill="none" stroke="black" /></svg>