<?xml version="1.0" encoding="utf-8" ?>
<svg baseProfile="tiny" height="271" version="1.2" viewBox="-3 -3 978 271" width="978" xmlns="http://www.w3.org/2000/svg" xmlns:ev="http://www.w3.org/2001/xml-events" xmlns:xlink="http://www.w3.org/1999/xlink"><defs /><path d="M195 182 L71 158 L0 112 L16 60 L58 28 L67 27 L67 34 L67 42 L71 26 L105 1 L156 0 L233 49 L295 133 L307 207 L226 243 L113 245 L75 201 L96 136 L138 85 L206 76 L304 111 L350 159 L336 195 L317 197 L319 163 L350 105 L377 65 L381 47 L365 33 L342 23 L320 22 L307 42 L298 81 L298 115 L330 156 L427 212 L514 238 L553 256 L551 262 L538 270 L520 271 L498 271 L490 270 L490 269 L490 264 " fill="none" stroke="black" /><path d="M195 182 L71 158 L0 112 L16 60 L58 28 L67 27 L67 34 L67 42 L71 26 L105 1 L156 0 L233 49 L295 133 L307 207 L226 243 L113 245 L75 201 L96 136 L138 85 L206 76 L304 111 L350 159 L336 195 L317 197 L319 163 L350 105 L377 65 L381 47 L365 33 L342 23 L320 22 L307 42 L298 81 L298 115 L330 156 L427 212 L514 238 L553 256 L551 262 L538 270 L520 271 L498 271 L490 270 L490 269 L490 264 M487 259 L487 260 L484 256 L482 249 L480 244 L480 241 L478 235 L473 226 L466 217 L463 211 L461 206 L460 200 L459 195 L459 191 L463 186 L469 181 L473 178 L478 175 L480 172 L485 172 L494 168 L507 165 L516 162 L523 160 L529 159 L538 157 L546 156 L551 156 L557 155 L565 154 L572 154 L581 153 L587 153 L593 153 L602 153 L612 153 L618 153 L625 153 L635 154 L645 155 L651 155 L653 155 L660 155 L669 155 L674 155 L677 155 L679 155 L685 154 L694 151 L703 149 L711 147 L718 145 L725 144 L735 143 L747 140 L758 139 L760 139 L762 139 L766 139 L768 139 L769 139 L770 139 L771 139 L773 139 L774 139 L775 139 L781 140 L786 141 L788 141 L790 141 L792 142 L795 142 L798 143 L802 143 L804 143 L807 143 L812 143 L818 142 L825 142 L834 142 L841 141 L844 140 L845 140 L846 140 L854 139 L862 138 L869 137 L872 137 L879 136 L886 136 L889 136 L890 136 L894 136 L898 136 L901 137 L902 137 L909 137 L931 139 L944 139 L945 139 L955 141 L969 142 L972 142 L973 142 L978 142 " fill="none" stroke="black" /></svg>