<?xml version="1.0" encoding="utf-8" ?>
<svg baseProfile="tiny" height="310" version="1.2" viewBox="-3 -3 551 310" width="551" xmlns="http://www.w3.org/2000/svg" xmlns:ev="http://www.w3.org/2001/xml-events" xmlns:xlink="http://www.w3.org/1999/xlink"><defs /><path d="M396 151 L330 144 L304 120 L316 102 L346 102 L381 121 L390 141 L360 152 L288 134 L257 103 L281 84 L347 88 L406 120 L412 153 L339 164 L210 132 L185 103 L213 87 L279 96 L344 132 L350 167 L284 182 L178 146 L139 92 L171 65 L253 80 L319 130 L323 153 L250 144 L192 107 L203 90 L278 112 L333 157 L316 174 L269 169 L243 135 L290 102 L400 107 L480 142 L468 165 L391 181 L302 167 L272 142 L297 125 L354 126 L424 159 L436 180 L364 182 L189 141 L155 116 L242 103 L379 119 L447 161 L403 181 L223 165 L104 118 L117 70 L210 51 L348 80 L432 123 L415 142 L296 144 L170 124 L167 106 L257 91 L392 124 L476 178 L458 217 L352 260 L208 264 L156 218 L169 178 L233 143 L361 136 L487 179 L503 229 L427 275 L294 262 L177 174 L157 101 L227 51 L365 52 L450 99 L444 154 L370 196 L247 195 L127 128 L95 76 L139 54 L271 75 L377 133 L365 187 L260 221 L180 190 L166 131 L213 85 L318 81 L431 116 L471 156 L446 187 L336 185 L190 141 L141 100 L167 60 L273 31 L421 53 L492 112 L468 168 L368 215 L220 216 L125 174 L126 122 L220 63 L373 66 L507 135 L532 212 L471 279 L338 310 L189 267 L140 198 L173 127 L261 62 L388 51 L489 92 L516 148 L493 217 L389 272 L201 270 L4 200 L0 138 L60 58 L185 14 L374 32 L493 86 L512 150 L471 221 L366 270 L210 265 L106 208 L133 116 L266 23 L445 0 L543 43 L551 99 L507 142 L418 155 L337 132 L302 108 L301 108 " fill="none" stroke="black" /></svg>