<?xml version="1.0" encoding="utf-8" ?>
<svg baseProfile="tiny" height="486" version="1.2" viewBox="-3 -3 1118 486" width="1118" xmlns="http://www.w3.org/2000/svg" xmlns:ev="http://www.w3.org/2001/xml-events" xmlns:xlink="http://www.w3.org/1999/xlink"><defs /><path d="M49 103 L8 183 L0 270 L46 344 L133 377 L224 346 L284 251 L283 124 L245 44 L216 32 L177 60 L124 139 L88 246 L101 318 L170 347 L250 330 L318 271 L347 192 L331 128 L279 110 L181 147 L107 232 L100 306 L138 355 L187 367 L241 341 L293 287 L306 243 L304 241 L297 250 L273 306 L250 383 L267 403 L316 377 L382 266 L399 120 L327 24 L215 15 L128 97 L92 240 L133 401 L256 486 L403 486 L506 407 L554 286 L525 152 L466 93 L427 98 L375 157 L319 274 L320 384 L387 422 L502 388 L601 292 L622 183 L593 127 L560 131 L508 192 L452 285 L457 348 L522 368 L616 339 L706 256 L716 151 L677 118 L634 154 L599 265 L620 371 L705 420 L831 383 L909 257 L873 107 L779 46 L723 81 L687 175 L696 268 L747 306 L820 298 L879 245 L885 174 L858 135 L837 155 L805 240 L817 303 L853 305 L911 238 L935 142 L926 117 L910 132 L901 150 L898 153 L903 161 L914 183 L934 218 L959 244 L986 245 L992 220 L944 145 L787 71 L676 98 L669 167 L720 290 L829 390 L975 423 L1069 377 L1118 275 L1107 115 L1016 0 L948 0 L909 72 L890 193 L903 277 L948 310 L998 298 L1043 253 L1055 199 L1037 172 L1003 184 L954 243 L924 299 L928 311 L941 310 L965 282 L976 211 L891 107 L716 84 L569 166 L535 286 L579 387 L648 430 L720 419 L776 350 L777 216 L670 77 L519 51 L404 115 L362 223 L360 317 L396 377 L460 391 L552 341 L612 241 L584 117 L495 69 L397 103 L334 184 L311 266 L316 305 L323 309 L332 292 " fill="none" stroke="black" /></svg>