<?xml version="1.0" encoding="utf-8" ?>
<svg baseProfile="tiny" height="258" version="1.2" viewBox="-3 -3 525 258" width="525" xmlns="http://www.w3.org/2000/svg" xmlns:ev="http://www.w3.org/2001/xml-events" xmlns:xlink="http://www.w3.org/1999/xlink"><defs /><path d="M16 159 L3 96 L0 74 L6 91 L25 138 L36 159 L37 159 L42 141 L64 112 L83 101 L98 133 L139 234 L153 258 L152 225 L147 155 L148 114 L148 113 L146 155 L148 180 L148 175 L145 137 L136 83 L135 76 L132 97 L115 112 L62 99 L27 73 L22 67 L25 75 L41 108 L63 133 L78 143 L103 130 L130 99 L136 102 L157 153 L181 190 L192 185 L212 144 L238 109 L242 105 L244 128 L250 162 L253 166 L254 144 L261 100 L264 89 L267 114 L268 156 L268 165 L240 124 L178 45 L133 0 L134 12 L146 95 L168 174 L188 200 L189 188 L189 143 L196 115 L202 116 L223 146 L251 186 L262 197 L264 185 L276 147 L284 127 L285 133 L298 160 L304 167 L307 145 L316 116 L320 111 L334 143 L350 180 L353 183 L361 151 L368 126 L370 125 L375 142 L377 150 L378 147 L377 139 L376 139 L378 151 L381 154 L381 150 L384 137 L386 132 L387 136 L393 169 L398 197 L399 197 L397 159 L398 125 L402 114 L404 121 L410 156 L416 188 L418 192 L418 168 L421 126 L428 111 L435 125 L452 164 L457 172 L455 155 L454 125 L454 117 L457 133 L463 160 L465 163 L465 141 L468 112 L475 106 L492 127 L504 158 L506 163 L502 132 L494 92 L492 82 L498 101 L512 145 L514 155 L513 140 L504 108 L501 100 L507 118 L520 156 L525 162 L517 124 L503 81 L500 77 L509 116 L513 156 L511 164 L484 151 L415 135 L375 125 L377 128 L382 151 L383 166 L382 164 L378 142 L376 131 L376 133 L379 147 L381 155 L382 158 L381 158 " fill="none" stroke="black" /></svg>