<?xml version="1.0" encoding="utf-8" ?>
<svg baseProfile="tiny" height="154" version="1.2" viewBox="-3 -3 534 154" width="534" xmlns="http://www.w3.org/2000/svg" xmlns:ev="http://www.w3.org/2001/xml-events" xmlns:xlink="http://www.w3.org/1999/xlink"><defs /><path d="M0 147 L6 150 L11 152 L15 152 L19 153 L20 153 L24 154 L28 154 L31 154 L32 154 L33 154 L35 154 L39 153 L43 152 L46 152 L47 151 L48 151 L50 150 L55 149 L60 147 L61 146 L63 146 L68 144 L72 142 L77 139 L83 137 L89 134 L93 133 L97 131 L101 129 L103 127 L104 125 L108 122 L113 119 L118 115 L121 112 L126 107 L129 105 L130 103 L133 101 L139 98 L147 93 L152 89 L153 89 L155 88 L157 86 L160 84 L164 82 L168 79 L170 78 L172 77 L177 74 L182 72 L185 71 L186 71 L186 70 L187 70 L189 69 L191 68 L195 66 L200 63 L203 61 L207 60 L210 59 L210 58 L211 58 L212 57 L214 55 L217 53 L220 52 L224 50 L225 49 L227 48 L228 47 L230 46 L231 45 L233 44 L234 43 L236 42 L241 39 L245 36 L248 35 L250 33 L252 33 L253 33 L255 31 L259 29 L260 28 L261 28 L264 26 L270 23 L273 22 L275 21 L277 19 L281 18 L284 17 L287 16 L290 15 L292 14 L296 14 L299 13 L301 12 L304 11 L307 11 L311 10 L315 10 L320 9 L323 8 L324 8 L325 8 L326 8 L327 8 L332 8 L337 8 L338 7 L340 7 L347 7 L353 7 L357 7 L358 7 L360 7 L364 7 L368 6 L371 6 L378 5 L383 5 L389 5 L402 4 L416 4 L423 3 L424 3 L425 3 L428 3 L436 3 L449 3 L458 3 L460 3 L463 3 L469 3 L474 3 L480 2 L489 2 L497 2 L503 2 L507 1 L510 1 L512 1 L518 1 L529 0 L534 0 " fill="none" stroke="black" /></svg>