<?xml version="1.0" encoding="utf-8" ?>
<svg baseProfile="tiny" height="313" version="1.2" viewBox="-3 -3 330 313" width="330" xmlns="http://www.w3.org/2000/svg" xmlns:ev="http://www.w3.org/2001/xml-events" xmlns:xlink="http://www.w3.org/1999/xlink"><defs /><path d="M151 176 L159 177 L167 177 L174 174 L177 170 L177 165 L177 156 L177 147 L176 139 L173 132 L169 124 L163 118 L156 114 L153 114 L148 117 L138 123 L136 128 L134 134 L130 147 L129 156 L130 163 L133 172 L141 186 L149 197 L159 204 L177 213 L197 219 L213 215 L220 199 L226 182 L227 164 L225 150 L217 135 L203 121 L184 106 L168 98 L158 94 L154 93 L142 94 L118 97 L103 101 L96 107 L84 123 L71 143 L65 166 L67 199 L74 226 L85 243 L102 256 L125 262 L161 265 L197 263 L213 250 L220 232 L230 215 L239 199 L240 186 L240 173 L236 158 L229 141 L213 121 L202 107 L185 92 L162 77 L147 69 L135 64 L118 62 L99 62 L90 66 L86 75 L79 94 L71 125 L65 161 L64 192 L62 215 L61 230 L61 240 L63 249 L70 256 L87 265 L125 277 L192 288 L262 291 L301 277 L309 244 L312 215 L314 195 L311 174 L300 151 L276 123 L229 88 L177 59 L137 41 L107 33 L88 30 L82 29 L78 31 L71 39 L62 55 L54 79 L48 108 L47 133 L47 150 L49 171 L49 194 L49 215 L55 235 L60 252 L68 273 L81 290 L91 300 L115 310 L154 312 L203 307 L242 295 L257 276 L274 250 L302 222 L321 187 L330 162 L326 132 L293 86 L255 54 L208 29 L155 6 L127 0 L124 0 L118 11 L102 25 L85 36 L69 47 L51 60 L31 76 L13 91 L3 104 L1 113 L0 129 L1 149 L5 174 L10 201 L17 224 L25 247 L36 264 L50 276 L65 286 L89 298 L113 306 L131 312 L138 313 L140 310 " fill="none" stroke="black" /></svg>