<?xml version="1.0" encoding="utf-8" ?>
<svg baseProfile="tiny" height="318" version="1.2" viewBox="-3 -3 942 318" width="942" xmlns="http://www.w3.org/2000/svg" xmlns:ev="http://www.w3.org/2001/xml-events" xmlns:xlink="http://www.w3.org/1999/xlink"><defs /><path d="M78 138 L102 113 L111 93 L111 79 L107 68 L96 55 L74 42 L48 32 L33 28 L25 26 L22 26 L15 33 L6 49 L1 66 L0 89 L3 116 L9 147 L17 179 L22 208 L23 235 L25 256 L32 275 L46 292 L76 307 L120 312 L162 308 L186 285 L204 240 L224 178 L236 118 L242 72 L238 45 L228 30 L205 17 L158 3 L108 0 L84 7 L77 24 L67 51 L60 90 L54 132 L57 169 L71 204 L88 237 L107 266 L134 293 L165 312 L191 318 L214 313 L241 303 L266 287 L279 263 L285 231 L289 199 L290 172 L288 154 L281 143 L269 135 L241 128 L194 124 L167 123 L164 124 L157 136 L148 160 L149 180 L165 197 L201 204 L252 193 L291 173 L294 169 L282 164 L267 163 L265 163 L274 163 L293 160 L306 164 L314 174 L330 183 L353 181 L385 162 L403 150 L404 149 L405 149 L411 155 L419 163 L433 174 L449 180 L467 181 L485 177 L490 174 L498 172 L515 166 L518 166 L531 166 L549 164 L559 163 L567 158 L571 157 L573 156 L578 157 L596 159 L637 153 L668 146 L669 146 L670 147 L673 149 L686 150 L708 154 L711 155 L713 157 L717 158 L726 160 L726 161 L729 162 L740 165 L757 165 L765 166 L766 166 L772 166 L778 164 L780 164 L786 164 L795 164 L805 164 L807 165 L808 165 L811 165 L812 165 L817 166 L822 166 L834 163 L835 163 L839 163 L846 162 L858 162 L860 163 L862 163 L870 162 L883 160 L892 159 L895 159 L905 159 L911 161 L920 163 L923 163 L926 163 L939 160 L942 160 " fill="none" stroke="black" /></svg>