<?xml version="1.0" encoding="utf-8" ?>
<svg baseProfile="tiny" height="40" version="1.2" viewBox="-3 -3 1004 40" width="1004" xmlns="http://www.w3.org/2000/svg" xmlns:ev="http://www.w3.org/2001/xml-events" xmlns:xlink="http://www.w3.org/1999/xlink"><defs /><path d="M0 20 L3 20 L11 22 L25 26 L33 27 L34 28 L36 29 L40 30 L49 30 L58 31 L62 31 L66 32 L73 33 L79 34 L84 34 L89 35 L95 35 L101 35 L105 35 L111 35 L118 35 L120 34 L121 34 L128 34 L137 34 L143 34 L151 35 L162 35 L169 36 L174 36 L181 37 L190 36 L198 36 L205 36 L216 38 L229 39 L238 40 L241 40 L246 40 L251 40 L256 40 L264 40 L270 40 L274 40 L279 40 L291 40 L300 39 L302 39 L307 38 L323 35 L340 32 L349 31 L354 29 L361 27 L370 24 L379 22 L393 19 L406 16 L412 14 L421 13 L434 12 L441 12 L443 12 L451 12 L459 12 L468 11 L472 10 L473 10 L474 10 L478 10 L485 8 L490 8 L499 8 L509 7 L519 7 L530 7 L541 7 L549 7 L552 7 L557 6 L566 4 L577 4 L585 3 L591 2 L598 2 L606 2 L617 1 L627 1 L631 1 L632 1 L637 1 L651 1 L662 0 L667 0 L674 0 L686 0 L698 0 L710 1 L721 2 L730 2 L741 2 L756 3 L764 3 L765 3 L770 4 L782 4 L791 5 L794 4 L797 4 L808 5 L826 6 L831 6 L832 6 L837 6 L847 6 L859 6 L867 6 L870 6 L872 6 L876 6 L885 5 L894 5 L900 5 L905 5 L912 5 L921 5 L925 5 L926 5 L927 5 L931 5 L936 6 L939 6 L943 6 L946 6 L947 7 L951 7 L958 7 L965 8 L969 8 L973 8 L977 9 L979 9 L981 9 L985 9 L988 9 L992 10 L996 10 L998 10 L1004 11 " fill="none" stroke="black" /></svg>