<?xml version="1.0" encoding="utf-8" ?>
<svg baseProfile="tiny" height="339" version="1.2" viewBox="-3 -3 702 339" width="702" xmlns="http://www.w3.org/2000/svg" xmlns:ev="http://www.w3.org/2001/xml-events" xmlns:xlink="http://www.w3.org/1999/xlink"><defs /><path d="M1 191 L1 183 L0 173 L0 164 L0 155 L0 144 L1 135 L3 124 L7 112 L12 102 L18 93 L25 84 L31 76 L38 67 L45 60 L51 54 L58 48 L64 43 L72 39 L80 34 L89 31 L102 28 L115 26 L128 25 L137 25 L144 23 L150 22 L160 20 L177 20 L187 20 L192 20 L204 20 L220 22 L225 23 L233 24 L247 25 L259 25 L267 26 L278 27 L290 27 L302 29 L314 30 L322 30 L328 31 L337 33 L348 35 L360 37 L371 39 L384 41 L406 44 L428 48 L442 50 L454 55 L464 57 L469 59 L474 61 L483 64 L494 67 L503 70 L507 71 L514 75 L523 82 L533 88 L539 92 L545 97 L551 102 L559 108 L566 113 L573 118 L581 124 L587 131 L592 138 L595 142 L598 149 L601 159 L604 170 L605 176 L606 180 L606 190 L606 198 L606 206 L606 213 L605 220 L603 229 L601 237 L598 246 L593 256 L586 267 L577 277 L569 287 L559 296 L544 306 L523 316 L498 326 L476 333 L458 336 L446 339 L432 339 L408 339 L375 336 L341 332 L315 324 L301 318 L283 309 L258 295 L240 282 L228 264 L215 242 L204 216 L200 190 L198 169 L198 148 L202 129 L208 112 L216 95 L228 79 L242 65 L253 54 L267 44 L283 34 L299 25 L318 18 L334 13 L347 8 L362 5 L375 1 L389 0 L408 0 L423 0 L436 2 L452 5 L466 10 L481 13 L501 17 L519 21 L534 25 L550 31 L562 37 L575 45 L592 57 L611 70 L629 85 L644 101 L666 124 L686 141 L693 150 L697 161 L700 175 L701 187 L702 191 " fill="none" stroke="black" /></svg>