<?xml version="1.0" encoding="utf-8" ?>
<svg baseProfile="tiny" height="129" version="1.2" viewBox="-3 -3 425 129" width="425" xmlns="http://www.w3.org/2000/svg" xmlns:ev="http://www.w3.org/2001/xml-events" xmlns:xlink="http://www.w3.org/1999/xlink"><defs /><path d="M191 129 L181 128 L166 127 L154 126 L144 124 L137 123 L131 123 L123 123 L109 122 L91 122 L74 122 L54 122 L20 119 L2 117 L0 116 L0 113 L0 109 L12 103 L48 101 L89 103 L131 111 L159 116 L166 116 L168 117 L191 117 L233 119 L267 122 L284 124 L292 125 L304 126 L319 127 L333 128 L350 127 L371 125 L393 123 L408 120 L417 115 L423 112 L425 110 L425 109 L425 106 L415 99 L394 93 L372 92 L348 90 L317 89 L296 89 L292 90 L285 91 L260 91 L237 93 L227 94 L219 93 L205 93 L189 93 L179 93 L170 92 L157 91 L130 89 L102 88 L81 86 L67 85 L54 84 L47 82 L38 81 L32 81 L32 80 L30 78 L28 73 L29 70 L39 67 L60 66 L76 66 L88 71 L105 76 L122 78 L132 78 L144 79 L170 80 L199 81 L224 81 L250 81 L287 81 L332 82 L368 82 L387 80 L395 79 L395 78 L395 77 L389 68 L348 54 L299 48 L261 47 L243 51 L230 55 L215 58 L191 59 L167 59 L145 58 L133 57 L125 54 L108 50 L89 47 L78 44 L63 40 L38 36 L21 35 L15 35 L8 33 L5 33 L5 31 L11 29 L34 27 L68 25 L102 26 L125 34 L144 37 L167 41 L197 44 L220 44 L238 44 L257 45 L278 45 L294 47 L304 47 L321 47 L340 48 L353 49 L358 49 L359 49 L359 48 L360 45 L359 40 L348 31 L326 23 L294 15 L260 12 L234 12 L214 12 L190 12 L162 12 L129 12 L102 11 L89 9 L84 8 L75 7 L56 3 L47 2 L47 0 " fill="none" stroke="black" /></svg>