<?xml version="1.0" encoding="utf-8" ?>
<svg baseProfile="tiny" height="120" version="1.2" viewBox="-3 -3 504 120" width="504" xmlns="http://www.w3.org/2000/svg" xmlns:ev="http://www.w3.org/2001/xml-events" xmlns:xlink="http://www.w3.org/1999/xlink"><defs /><path d="M41 0 L31 5 L21 10 L12 15 L5 21 L2 25 L1 33 L0 48 L0 57 L3 65 L6 74 L9 81 L13 85 L18 90 L25 98 L36 107 L51 113 L62 115 L73 116 L88 113 L95 110 L98 105 L105 96 L115 82 L119 71 L120 64 L122 55 L122 46 L119 39 L115 32 L105 25 L95 19 L82 14 L68 11 L64 11 L62 11 L56 14 L47 23 L41 36 L37 51 L37 61 L40 68 L45 76 L54 87 L64 96 L85 107 L111 117 L133 120 L135 119 L137 116 L148 108 L156 97 L159 89 L160 82 L162 76 L162 69 L162 62 L160 54 L154 45 L147 38 L140 33 L129 29 L118 25 L114 24 L113 28 L111 42 L111 50 L114 61 L119 68 L120 70 L125 74 L131 78 L146 83 L158 83 L166 81 L168 80 L169 79 L173 75 L184 72 L194 70 L201 69 L204 68 L206 67 L211 66 L223 65 L236 64 L246 63 L253 63 L255 63 L256 63 L259 63 L265 63 L269 62 L273 62 L274 62 L278 61 L288 60 L299 60 L305 60 L306 60 L307 60 L313 60 L319 60 L325 60 L333 60 L337 60 L338 60 L340 60 L350 60 L362 60 L367 59 L368 59 L372 59 L380 60 L389 60 L394 60 L396 61 L400 61 L405 61 L414 62 L424 63 L432 63 L437 63 L440 64 L443 64 L445 64 L446 64 L449 65 L450 65 " fill="none" stroke="black" /><path d="M41 0 L31 5 L21 10 L12 15 L5 21 L2 25 L1 33 L0 48 L0 57 L3 65 L6 74 L9 81 L13 85 L18 90 L25 98 L36 107 L51 113 L62 115 L73 116 L88 113 L95 110 L98 105 L105 96 L115 82 L119 71 L120 64 L122 55 L122 46 L119 39 L115 32 L105 25 L95 19 L82 14 L68 11 L64 11 L62 11 L56 14 L47 23 L41 36 L37 51 L37 61 L40 68 L45 76 L54 87 L64 96 L85 107 L111 117 L133 120 L135 119 L137 116 L148 108 L156 97 L159 89 L160 82 L162 76 L162 69 L162 62 L160 54 L154 45 L147 38 L140 33 L129 29 L118 25 L114 24 L113 28 L111 42 L111 50 L114 61 L119 68 L120 70 L125 74 L131 78 L146 83 L158 83 L166 81 L168 80 L169 79 L173 75 L184 72 L194 70 L201 69 L204 68 L206 67 L211 66 L223 65 L236 64 L246 63 L253 63 L255 63 L256 63 L259 63 L265 63 L269 62 L273 62 L274 62 L278 61 L288 60 L299 60 L305 60 L306 60 L307 60 L313 60 L319 60 L325 60 L333 60 L337 60 L338 60 L340 60 L350 60 L362 60 L367 59 L368 59 L372 59 L380 60 L389 60 L394 60 L396 61 L400 61 L405 61 L414 62 L424 63 L432 63 L437 63 L440 64 L443 64 L445 64 L446 64 L449 65 L450 65 M447 63 L449 63 L451 63 L453 63 L455 64 L457 65 L459 66 L460 66 L460 67 L461 67 L462 68 L467 68 L468 68 L469 68 L474 66 L479 65 L483 65 L487 65 L495 64 L501 64 L504 64 " fill="none" stroke="black" /></svg>