<?xml version="1.0" encoding="utf-8" ?>
<svg baseProfile="tiny" height="370" version="1.2" viewBox="-3 -3 655 370" width="655" xmlns="http://www.w3.org/2000/svg" xmlns:ev="http://www.w3.org/2001/xml-events" xmlns:xlink="http://www.w3.org/1999/xlink"><defs /><path d="M79 230 L86 264 L86 217 L86 151 L87 148 L96 181 L97 184 L88 143 L75 69 L73 48 L77 91 L106 227 L118 320 L120 317 L116 260 L107 228 L106 230 L99 252 L73 266 L63 254 L66 196 L91 136 L146 134 L185 185 L188 246 L145 286 L57 264 L0 179 L9 83 L59 59 L135 117 L180 208 L169 248 L147 228 L131 141 L129 66 L165 65 L254 129 L285 188 L239 211 L135 190 L93 139 L112 102 L196 123 L277 190 L274 235 L212 242 L178 202 L188 143 L238 130 L304 185 L324 228 L284 232 L195 187 L174 135 L210 80 L248 57 L249 55 L229 52 L166 58 L90 139 L74 267 L138 369 L262 370 L384 247 L395 107 L322 74 L226 112 L182 163 L183 180 L197 200 L227 234 L278 259 L315 244 L322 195 L318 183 L312 204 L308 254 L336 279 L391 289 L432 302 L427 316 L367 322 L323 282 L314 221 L342 179 L401 184 L455 223 L455 255 L398 267 L333 224 L332 154 L406 66 L513 41 L568 76 L549 115 L458 114 L330 55 L285 13 L326 0 L417 41 L480 123 L482 194 L429 219 L399 208 L399 206 L413 229 L418 264 L399 302 L408 323 L481 351 L591 368 L619 339 L528 243 L370 145 L305 133 L309 185 L348 274 L386 336 L435 357 L503 347 L559 314 L545 293 L426 258 L312 220 L303 179 L387 122 L523 79 L596 54 L599 50 L598 37 L607 8 L605 3 L593 33 L578 105 L562 187 L547 212 L547 189 L563 136 L606 115 L655 153 L653 214 L586 261 L526 252 L522 226 L536 226 L557 247 L565 256 L564 252 " fill="none" stroke="black" /></svg>