<?xml version="1.0" encoding="utf-8" ?>
<svg baseProfile="tiny" height="180" version="1.2" viewBox="-3 -3 548 180" width="548" xmlns="http://www.w3.org/2000/svg" xmlns:ev="http://www.w3.org/2001/xml-events" xmlns:xlink="http://www.w3.org/1999/xlink"><defs /><path d="M0 31 L16 28 L32 29 L47 35 L59 41 L68 52 L80 69 L88 85 L94 105 L97 129 L99 148 L98 160 L94 169 L88 177 L78 180 L72 180 L53 175 L36 172 L32 171 L27 164 L19 152 L16 139 L14 128 L14 116 L17 100 L20 89 L25 81 L33 70 L46 54 L58 40 L69 31 L78 25 L92 19 L107 16 L126 15 L143 19 L164 30 L182 39 L190 46 L196 56 L205 74 L215 93 L216 106 L216 123 L215 134 L212 139 L209 143 L202 145 L189 149 L181 151 L175 149 L169 147 L167 144 L162 134 L158 121 L156 100 L158 81 L162 64 L167 49 L174 35 L184 23 L197 13 L212 5 L235 0 L264 0 L296 4 L312 14 L328 30 L343 46 L349 55 L354 69 L356 92 L355 111 L353 122 L351 128 L347 135 L339 143 L333 148 L330 150 L327 151 L317 152 L303 152 L294 150 L290 148 L288 144 L283 134 L278 119 L278 105 L279 90 L283 77 L291 62 L301 48 L316 32 L336 19 L355 12 L368 11 L380 14 L400 23 L418 31 L426 37 L433 46 L441 57 L444 69 L446 79 L448 89 L449 96 L449 107 L449 121 L447 128 L444 132 L438 138 L428 144 L421 146 L416 146 L411 146 L409 146 L403 140 L395 130 L388 115 L382 100 L381 84 L381 73 L385 63 L391 50 L399 37 L407 29 L417 21 L430 12 L443 8 L456 7 L475 7 L491 7 L496 8 L504 12 L515 21 L524 31 L533 44 L541 57 L545 68 L546 74 L548 81 L548 91 L548 99 L547 106 L544 112 L541 117 L537 122 L533 125 L533 126 " fill="none" stroke="black" /></svg>