<?xml version="1.0" encoding="utf-8" ?>
<svg baseProfile="tiny" height="191" version="1.2" viewBox="-3 -3 152 191" width="152" xmlns="http://www.w3.org/2000/svg" xmlns:ev="http://www.w3.org/2001/xml-events" xmlns:xlink="http://www.w3.org/1999/xlink"><defs /><path d="M14 112 L12 95 L12 98 L15 133 L17 143 L17 130 L11 94 L10 87 L11 109 L17 147 L19 149 L15 109 L7 39 L1 0 L0 4 L11 49 L28 115 L32 144 L32 142 L26 105 L14 44 L12 32 L19 78 L35 165 L41 186 L41 158 L35 94 L31 61 L32 73 L46 131 L53 158 L51 143 L42 90 L36 73 L36 89 L41 120 L43 122 L41 105 L39 100 L41 118 L46 137 L46 130 L45 89 L38 46 L36 45 L41 85 L50 128 L52 131 L49 101 L40 53 L36 33 L37 50 L53 115 L64 161 L64 165 L58 129 L41 61 L33 33 L36 56 L54 138 L62 184 L62 179 L52 119 L36 51 L33 39 L37 60 L49 95 L54 113 L54 109 L56 113 L63 125 L67 132 L68 133 L68 125 L67 114 L67 109 L66 109 L66 111 L67 126 L71 150 L71 154 L71 148 L69 118 L66 84 L65 76 L66 90 L76 139 L83 175 L83 181 L82 168 L77 123 L69 79 L67 70 L67 84 L74 130 L77 163 L77 164 L77 146 L73 104 L72 73 L73 78 L86 121 L100 167 L103 173 L103 151 L99 102 L95 73 L95 75 L101 108 L114 163 L118 191 L118 189 L115 150 L108 88 L105 52 L105 57 L117 107 L128 159 L130 169 L128 153 L122 111 L117 90 L117 96 L127 137 L133 153 L133 145 L130 114 L129 106 L132 125 L143 158 L144 158 L143 122 L137 82 L136 81 L139 113 L147 151 L148 156 L147 139 L139 100 L135 84 L136 103 L148 152 L152 165 L150 147 L142 102 L137 79 L137 84 L143 110 L146 120 L146 118 " fill="none" stroke="black" /></svg>