<?xml version="1.0" encoding="utf-8" ?>
<svg baseProfile="tiny" height="326" version="1.2" viewBox="-3 -3 822 326" width="822" xmlns="http://www.w3.org/2000/svg" xmlns:ev="http://www.w3.org/2001/xml-events" xmlns:xlink="http://www.w3.org/1999/xlink"><defs /><path d="M117 297 L85 318 L71 326 L66 318 L42 282 L11 239 L0 200 L2 169 L12 148 L25 134 L48 119 L71 107 L85 97 L96 92 L100 89 L109 86 L124 82 L144 78 L160 75 L174 72 L187 72 L204 76 L220 81 L236 88 L255 100 L267 110 L274 122 L281 138 L284 153 L291 172 L295 183 L297 194 L302 205 L308 217 L316 228 L326 239 L335 247 L343 254 L351 263 L364 271 L376 277 L384 281 L392 286 L402 288 L412 289 L417 288 L423 284 L429 277 L435 269 L437 262 L438 257 L442 248 L444 240 L447 229 L450 216 L453 206 L457 194 L461 181 L467 164 L474 148 L483 132 L492 117 L504 105 L515 97 L522 93 L527 90 L537 88 L556 88 L578 89 L589 94 L600 103 L614 117 L622 131 L627 145 L632 166 L637 183 L642 198 L649 212 L656 225 L663 237 L671 245 L679 251 L693 258 L707 263 L717 267 L720 268 L721 269 L727 269 L744 272 L755 272 L756 270 L763 265 L777 256 L788 248 L796 238 L804 228 L810 214 L816 197 L819 181 L821 167 L821 152 L822 138 L820 125 L817 110 L811 93 L802 77 L793 63 L780 47 L762 30 L748 21 L742 18 L733 15 L718 13 L700 9 L675 3 L650 0 L639 1 L632 4 L616 14 L600 25 L591 35 L584 43 L578 49 L573 57 L561 69 L551 82 L548 87 L546 92 L540 99 L535 108 L526 121 L515 137 L504 151 L491 170 L477 188 L468 203 L458 222 L444 245 L423 267 L387 276 L345 272 L319 241 L306 174 " fill="none" stroke="black" /></svg>