<?xml version="1.0" encoding="utf-8" ?>
<svg baseProfile="tiny" height="141" version="1.2" viewBox="-3 -3 515 141" width="515" xmlns="http://www.w3.org/2000/svg" xmlns:ev="http://www.w3.org/2001/xml-events" xmlns:xlink="http://www.w3.org/1999/xlink"><defs /><path d="M0 40 L0 38 L1 36 L2 36 L2 38 L8 60 L18 87 L24 103 L27 111 L28 117 L28 106 L29 91 L28 70 L27 51 L26 44 L26 42 L25 40 L22 31 L21 25 L21 24 L23 29 L27 42 L32 57 L37 79 L41 98 L44 112 L48 122 L50 127 L51 127 L54 121 L66 104 L74 80 L79 56 L79 43 L78 35 L78 27 L78 18 L77 9 L79 3 L82 10 L86 22 L91 41 L94 64 L95 87 L96 101 L99 112 L104 121 L110 123 L116 119 L120 109 L122 93 L120 65 L107 32 L100 18 L98 11 L98 6 L98 5 L100 11 L104 28 L116 57 L123 82 L125 97 L125 105 L126 109 L127 115 L130 122 L133 126 L140 129 L146 125 L149 111 L150 90 L145 68 L132 51 L121 38 L116 25 L116 17 L119 13 L127 10 L145 19 L171 46 L182 76 L185 98 L185 110 L185 116 L187 121 L189 124 L192 124 L200 115 L205 99 L205 81 L195 46 L186 15 L179 1 L178 0 L185 2 L220 18 L250 42 L256 61 L259 80 L259 90 L259 96 L262 98 L270 101 L285 95 L297 78 L296 59 L284 36 L254 10 L246 0 L247 3 L265 16 L301 39 L324 61 L331 79 L330 91 L319 108 L315 115 L317 115 L321 115 L333 97 L346 62 L347 38 L344 27 L343 27 L343 35 L347 56 L367 90 L387 109 L389 110 L389 96 L390 65 L390 39 L390 35 L390 37 L392 51 L400 79 L418 115 L441 139 L449 141 L450 121 L452 81 L450 57 L449 55 L452 59 L470 84 L500 110 L505 111 L508 94 L514 70 L515 64 " fill="none" stroke="black" /></svg>