<?xml version="1.0" encoding="utf-8" ?>
<svg baseProfile="tiny" height="247" version="1.2" viewBox="-3 -3 295 247" width="295" xmlns="http://www.w3.org/2000/svg" xmlns:ev="http://www.w3.org/2001/xml-events" xmlns:xlink="http://www.w3.org/1999/xlink"><defs /><path d="M0 154 L17 135 L17 133 L16 139 L13 181 L2 227 L0 229 L14 199 L32 159 L46 140 L46 141 L48 165 L51 176 L51 172 L54 152 L55 134 L55 131 L53 141 L48 149 L48 142 L47 115 L52 87 L55 80 L55 100 L60 163 L62 232 L63 241 L62 228 L60 186 L58 168 L58 169 L58 176 L58 166 L44 89 L40 8 L42 0 L51 48 L62 120 L78 199 L97 247 L100 246 L103 192 L102 125 L99 97 L97 95 L97 113 L96 150 L95 160 L90 130 L80 88 L78 79 L86 94 L108 159 L133 228 L136 228 L136 165 L127 92 L122 61 L131 101 L137 126 L138 126 L135 104 L135 99 L138 115 L144 142 L144 141 L144 126 L145 122 L146 121 L149 131 L155 146 L156 142 L156 112 L156 92 L158 101 L166 123 L170 132 L171 128 L172 128 L179 140 L183 143 L185 125 L190 110 L192 116 L194 134 L199 147 L199 148 L199 131 L199 112 L198 111 L199 126 L203 141 L204 142 L204 136 L204 133 L204 134 L208 150 L210 154 L210 146 L209 128 L209 123 L211 128 L217 143 L220 147 L220 139 L220 131 L220 138 L227 161 L231 167 L231 152 L232 124 L230 118 L230 121 L231 124 L236 145 L245 166 L246 162 L247 116 L247 85 L247 87 L249 104 L253 118 L253 117 L253 118 L256 134 L262 146 L263 131 L263 116 L265 124 L276 166 L286 184 L286 172 L286 139 L284 128 L284 131 L285 132 L285 127 L286 121 L287 122 L290 132 L293 144 L294 146 L292 136 L291 119 L289 111 L289 113 L290 128 L293 139 L295 142 L295 138 " fill="none" stroke="black" /></svg>