<?xml version="1.0" encoding="utf-8" ?>
<svg baseProfile="tiny" height="134" version="1.2" viewBox="-3 -3 191 134" width="191" xmlns="http://www.w3.org/2000/svg" xmlns:ev="http://www.w3.org/2001/xml-events" xmlns:xlink="http://www.w3.org/1999/xlink"><defs /><path d="M113 23 L101 21 L79 21 L51 28 L20 46 L0 74 L6 100 L37 120 L84 131 L134 134 L177 125 L191 101 L182 61 L160 31 L125 7 L95 0 " fill="none" stroke="black" /><path d="M113 23 L101 21 L79 21 L51 28 L20 46 L0 74 L6 100 L37 120 L84 131 L134 134 L177 125 L191 101 L182 61 L160 31 L125 7 L95 0 M83 70 L83 71 L83 75 L91 84 L102 88 L105 88 L106 88 L108 88 L109 87 L109 84 L109 78 L108 74 L100 68 L92 63 L91 62 L89 62 L88 62 L86 62 L86 63 " fill="none" stroke="black" /></svg>