<?xml version="1.0" encoding="utf-8" ?>
<svg baseProfile="tiny" height="99" version="1.2" viewBox="-3 -3 277 99" width="277" xmlns="http://www.w3.org/2000/svg" xmlns:ev="http://www.w3.org/2001/xml-events" xmlns:xlink="http://www.w3.org/1999/xlink"><defs /><path d="M34 65 L32 66 L30 67 L29 68 L27 70 L24 72 L19 74 L12 79 L3 84 L0 87 L0 88 L6 92 L15 97 L23 98 L31 99 L38 98 L43 90 L44 78 L45 71 L44 66 L42 66 L40 65 L36 65 L34 64 L32 64 " fill="none" stroke="black" /><path d="M34 65 L32 66 L30 67 L29 68 L27 70 L24 72 L19 74 L12 79 L3 84 L0 87 L0 88 L6 92 L15 97 L23 98 L31 99 L38 98 L43 90 L44 78 L45 71 L44 66 L42 66 L40 65 L36 65 L34 64 L32 64 M87 66 L86 66 L85 67 L82 69 L81 71 L80 75 L80 81 L82 87 L87 95 L92 98 L93 99 L94 98 L95 93 L96 80 L96 69 L93 61 L86 53 L81 52 L79 52 L77 55 " fill="none" stroke="black" /><path d="M34 65 L32 66 L30 67 L29 68 L27 70 L24 72 L19 74 L12 79 L3 84 L0 87 L0 88 L6 92 L15 97 L23 98 L31 99 L38 98 L43 90 L44 78 L45 71 L44 66 L42 66 L40 65 L36 65 L34 64 L32 64 M87 66 L86 66 L85 67 L82 69 L81 71 L80 75 L80 81 L82 87 L87 95 L92 98 L93 99 L94 98 L95 93 L96 80 L96 69 L93 61 L86 53 L81 52 L79 52 L77 55 M49 45 L54 42 L56 29 L57 12 L62 2 L64 0 L65 3 L70 18 L72 30 L73 35 L72 35 L67 35 L58 34 L57 34 L56 34 " fill="none" stroke="black" /><path d="M34 65 L32 66 L30 67 L29 68 L27 70 L24 72 L19 74 L12 79 L3 84 L0 87 L0 88 L6 92 L15 97 L23 98 L31 99 L38 98 L43 90 L44 78 L45 71 L44 66 L42 66 L40 65 L36 65 L34 64 L32 64 M87 66 L86 66 L85 67 L82 69 L81 71 L80 75 L80 81 L82 87 L87 95 L92 98 L93 99 L94 98 L95 93 L96 80 L96 69 L93 61 L86 53 L81 52 L79 52 L77 55 M49 45 L54 42 L56 29 L57 12 L62 2 L64 0 L65 3 L70 18 L72 30 L73 35 L72 35 L67 35 L58 34 L57 34 L56 34 M82 29 L87 36 L90 39 L92 39 L94 39 L98 37 L102 35 L106 34 L108 33 L109 33 L111 33 L114 32 L118 32 L126 31 L134 30 L138 30 L144 30 L154 30 L165 30 L179 29 L197 27 L227 23 L260 17 L277 14 " fill="none" stroke="black" /></svg>