<?xml version="1.0" encoding="utf-8" ?>
<svg baseProfile="tiny" height="182" version="1.2" viewBox="-3 -3 266 182" width="266" xmlns="http://www.w3.org/2000/svg" xmlns:ev="http://www.w3.org/2001/xml-events" xmlns:xlink="http://www.w3.org/1999/xlink"><defs /><path d="M8 151 L6 151 L5 151 L4 157 L6 168 L15 178 L28 182 L34 180 L42 169 L47 155 L45 147 L36 141 L20 137 L7 136 L3 136 L0 147 " fill="none" stroke="black" /><path d="M8 151 L6 151 L5 151 L4 157 L6 168 L15 178 L28 182 L34 180 L42 169 L47 155 L45 147 L36 141 L20 137 L7 136 L3 136 L0 147 M47 102 L47 113 L47 121 L46 122 L44 115 L47 89 L61 53 L91 19 L121 2 L159 0 L206 17 L232 49 L248 92 L255 115 " fill="none" stroke="black" /><path d="M8 151 L6 151 L5 151 L4 157 L6 168 L15 178 L28 182 L34 180 L42 169 L47 155 L45 147 L36 141 L20 137 L7 136 L3 136 L0 147 M47 102 L47 113 L47 121 L46 122 L44 115 L47 89 L61 53 L91 19 L121 2 L159 0 L206 17 L232 49 L248 92 L255 115 M248 135 L236 150 L233 169 L242 178 L259 179 L266 172 L266 157 L252 136 " fill="none" stroke="black" /></svg>