<?xml version="1.0" encoding="utf-8" ?>
<svg baseProfile="tiny" height="204" version="1.2" viewBox="-3 -3 468 204" width="468" xmlns="http://www.w3.org/2000/svg" xmlns:ev="http://www.w3.org/2001/xml-events" xmlns:xlink="http://www.w3.org/1999/xlink"><defs /><path d="M6 144 L5 152 L2 181 L0 200 L6 178 L24 124 L34 102 L35 106 L31 154 L27 185 L28 186 L40 167 L76 133 L96 122 L97 127 L92 173 L91 194 L101 186 L127 140 L160 101 L167 95 L162 114 L154 165 L156 175 L166 169 L201 128 L245 98 L248 97 L244 128 L239 168 L242 172 L253 161 L281 124 L298 114 L298 125 L294 182 L298 204 L300 204 L312 182 L335 160 L342 154 L342 162 L345 192 L347 196 L354 192 L372 163 L390 145 L390 147 L389 177 L389 187 L392 186 L413 169 L455 142 L468 138 L465 163 L463 178 L463 181 L457 192 L453 202 L452 204 L451 204 " fill="none" stroke="black" /><path d="M6 144 L5 152 L2 181 L0 200 L6 178 L24 124 L34 102 L35 106 L31 154 L27 185 L28 186 L40 167 L76 133 L96 122 L97 127 L92 173 L91 194 L101 186 L127 140 L160 101 L167 95 L162 114 L154 165 L156 175 L166 169 L201 128 L245 98 L248 97 L244 128 L239 168 L242 172 L253 161 L281 124 L298 114 L298 125 L294 182 L298 204 L300 204 L312 182 L335 160 L342 154 L342 162 L345 192 L347 196 L354 192 L372 163 L390 145 L390 147 L389 177 L389 187 L392 186 L413 169 L455 142 L468 138 L465 163 L463 178 L463 181 L457 192 L453 202 L452 204 L451 204 M123 1 L127 1 L133 0 L143 0 L149 0 L151 1 " fill="none" stroke="black" /><path d="M6 144 L5 152 L2 181 L0 200 L6 178 L24 124 L34 102 L35 106 L31 154 L27 185 L28 186 L40 167 L76 133 L96 122 L97 127 L92 173 L91 194 L101 186 L127 140 L160 101 L167 95 L162 114 L154 165 L156 175 L166 169 L201 128 L245 98 L248 97 L244 128 L239 168 L242 172 L253 161 L281 124 L298 114 L298 125 L294 182 L298 204 L300 204 L312 182 L335 160 L342 154 L342 162 L345 192 L347 196 L354 192 L372 163 L390 145 L390 147 L389 177 L389 187 L392 186 L413 169 L455 142 L468 138 L465 163 L463 178 L463 181 L457 192 L453 202 L452 204 L451 204 M123 1 L127 1 L133 0 L143 0 L149 0 L151 1 M265 3 L266 3 L280 6 L308 8 L328 11 L332 12 " fill="none" stroke="black" /><path d="M6 144 L5 152 L2 181 L0 200 L6 178 L24 124 L34 102 L35 106 L31 154 L27 185 L28 186 L40 167 L76 133 L96 122 L97 127 L92 173 L91 194 L101 186 L127 140 L160 101 L167 95 L162 114 L154 165 L156 175 L166 169 L201 128 L245 98 L248 97 L244 128 L239 168 L242 172 L253 161 L281 124 L298 114 L298 125 L294 182 L298 204 L300 204 L312 182 L335 160 L342 154 L342 162 L345 192 L347 196 L354 192 L372 163 L390 145 L390 147 L389 177 L389 187 L392 186 L413 169 L455 142 L468 138 L465 163 L463 178 L463 181 L457 192 L453 202 L452 204 L451 204 M123 1 L127 1 L133 0 L143 0 L149 0 L151 1 M265 3 L266 3 L280 6 L308 8 L328 11 L332 12 M231 31 L225 44 L219 59 L216 70 L216 71 L225 71 L236 71 L242 71 " fill="none" stroke="black" /></svg>