<?xml version="1.0" encoding="utf-8" ?>
<svg baseProfile="tiny" height="111" version="1.2" viewBox="-3 -3 360 111" width="360" xmlns="http://www.w3.org/2000/svg" xmlns:ev="http://www.w3.org/2001/xml-events" xmlns:xlink="http://www.w3.org/1999/xlink"><defs /><path d="M0 95 L3 92 L4 80 L6 67 L8 53 L12 40 L18 28 L20 25 L23 23 L27 34 L30 51 L30 66 L30 76 L29 85 L30 93 L33 95 L34 95 L39 86 L45 72 L50 57 L53 40 L54 27 L54 13 L55 3 L57 0 L61 3 L67 15 L71 32 L72 44 L72 54 L71 64 L71 74 L70 83 L73 87 L76 88 L79 86 L83 78 L87 69 L89 57 L89 40 L90 21 L93 11 L96 4 L98 2 L102 5 L115 16 L124 28 L127 39 L129 53 L129 68 L126 79 L124 92 L124 98 L126 99 L129 99 L134 92 L141 77 L145 58 L149 42 L151 30 L154 22 L158 15 L159 13 L161 13 L167 22 L175 37 L178 55 L178 69 L176 80 L178 93 L181 101 L183 102 L189 100 L204 91 L215 78 L220 66 L222 54 L223 41 L224 29 L225 23 L228 19 L236 16 L241 20 L250 39 L258 58 L260 68 L262 79 L265 87 L269 95 L276 101 L280 101 L284 96 L296 78 L306 55 L307 41 L308 34 L308 30 L310 25 L314 18 L315 18 L323 20 L335 27 L343 38 L351 56 L355 73 L358 87 L359 98 L359 109 L359 111 L360 110 " fill="none" stroke="black" /></svg>