<?xml version="1.0" encoding="utf-8" ?>
<svg baseProfile="tiny" height="52" version="1.2" viewBox="-3 -3 62 52" width="62" xmlns="http://www.w3.org/2000/svg" xmlns:ev="http://www.w3.org/2001/xml-events" xmlns:xlink="http://www.w3.org/1999/xlink"><defs /><path d="M0 18 L0 16 L3 11 L6 4 L9 1 L10 0 L11 1 L12 4 L13 7 L14 9 L15 11 L16 13 L16 14 L16 15 L17 16 L17 17 L18 17 L18 18 L19 19 L19 20 L19 21 L18 21 L17 21 L16 21 L15 21 L14 22 L13 22 L12 22 L11 22 L10 22 L10 23 L9 23 L8 23 L7 23 L7 24 L6 25 L5 26 L5 27 L5 28 L5 30 L5 33 L7 38 L8 41 L9 44 L10 46 L11 47 L12 48 L13 49 L15 50 L16 50 L18 51 L20 51 L22 52 L26 52 L28 52 L29 52 L30 52 L31 52 L32 52 L33 52 L34 52 L34 51 L35 51 L36 49 L38 47 L39 46 L40 45 L41 44 L42 44 L43 43 L44 41 L47 39 L49 37 L50 36 L51 36 L53 34 L55 33 L57 32 L59 31 L61 30 L61 29 L62 29 " fill="none" stroke="black" /></svg>