<?xml version="1.0" encoding="utf-8" ?>
<svg baseProfile="tiny" height="229" version="1.2" viewBox="-3 -3 292 229" width="292" xmlns="http://www.w3.org/2000/svg" xmlns:ev="http://www.w3.org/2001/xml-events" xmlns:xlink="http://www.w3.org/1999/xlink"><defs /><path d="M86 0 L63 3 L37 8 L18 18 L4 32 L0 40 L1 45 L16 52 L52 58 L94 57 L119 52 L128 44 L132 35 L132 23 L123 14 L113 11 L97 9 L78 7 " fill="none" stroke="black" /><path d="M86 0 L63 3 L37 8 L18 18 L4 32 L0 40 L1 45 L16 52 L52 58 L94 57 L119 52 L128 44 L132 35 L132 23 L123 14 L113 11 L97 9 L78 7 M104 90 L139 126 L190 176 L209 204 L209 207 L207 207 " fill="none" stroke="black" /><path d="M86 0 L63 3 L37 8 L18 18 L4 32 L0 40 L1 45 L16 52 L52 58 L94 57 L119 52 L128 44 L132 35 L132 23 L123 14 L113 11 L97 9 L78 7 M104 90 L139 126 L190 176 L209 204 L209 207 L207 207 M173 125 L216 159 L253 195 L267 216 L268 217 " fill="none" stroke="black" /><path d="M86 0 L63 3 L37 8 L18 18 L4 32 L0 40 L1 45 L16 52 L52 58 L94 57 L119 52 L128 44 L132 35 L132 23 L123 14 L113 11 L97 9 L78 7 M104 90 L139 126 L190 176 L209 204 L209 207 L207 207 M173 125 L216 159 L253 195 L267 216 L268 217 M176 97 L209 138 L251 189 L271 221 L273 229 " fill="none" stroke="black" /><path d="M86 0 L63 3 L37 8 L18 18 L4 32 L0 40 L1 45 L16 52 L52 58 L94 57 L119 52 L128 44 L132 35 L132 23 L123 14 L113 11 L97 9 L78 7 M104 90 L139 126 L190 176 L209 204 L209 207 L207 207 M173 125 L216 159 L253 195 L267 216 L268 217 M176 97 L209 138 L251 189 L271 221 L273 229 M158 73 L176 90 L235 141 L280 184 L292 200 " fill="none" stroke="black" /></svg>