<?xml version="1.0" encoding="utf-8" ?>
<svg baseProfile="tiny" height="294" version="1.2" viewBox="-3 -3 497 294" width="497" xmlns="http://www.w3.org/2000/svg" xmlns:ev="http://www.w3.org/2001/xml-events" xmlns:xlink="http://www.w3.org/1999/xlink"><defs /><path d="M0 251 L1 256 L2 261 L2 265 L4 273 L5 278 L5 281 L6 285 L8 290 L9 293 L9 294 L10 294 L11 294 L15 294 L22 292 L25 289 L27 279 L39 248 L52 215 L61 182 L69 132 L74 97 L81 52 L85 19 L87 3 L87 0 L87 1 L88 3 L88 4 L89 9 L90 14 L92 20 L92 26 L94 30 L95 36 L96 44 L97 50 L99 56 L100 64 L102 69 L103 74 L104 78 L105 80 L106 84 L107 87 L107 90 L108 93 L108 94 L109 94 L111 93 L116 91 L127 86 L138 80 L143 76 L153 66 L169 50 L181 38 L188 29 L194 22 L194 21 L194 22 L195 26 L198 40 L201 58 L204 75 L207 88 L208 96 L209 102 L210 109 L211 116 L212 121 L212 123 L213 123 L217 122 L225 117 L236 110 L246 104 L258 93 L274 75 L284 63 L291 52 L299 41 L304 34 L309 29 L313 24 L315 23 L316 23 L317 23 L320 27 L324 34 L329 42 L333 50 L337 57 L341 64 L345 71 L348 76 L351 82 L354 87 L356 91 L357 94 L359 96 L360 97 L360 98 L361 99 L362 99 L365 96 L370 89 L379 77 L390 60 L398 46 L408 32 L420 15 L427 6 L427 5 L427 6 L427 10 L428 15 L429 23 L430 31 L432 37 L433 46 L435 54 L436 59 L437 66 L438 72 L439 78 L440 83 L441 88 L441 90 L441 91 L441 92 L442 92 L445 90 L451 85 L457 79 L467 70 L477 58 L483 52 L487 48 L488 47 L488 50 L490 60 L493 71 L495 83 L497 90 L497 93 " fill="none" stroke="black" /></svg>