<?xml version="1.0" encoding="utf-8" ?>
<svg baseProfile="tiny" height="142" version="1.2" viewBox="-3 -3 147 142" width="147" xmlns="http://www.w3.org/2000/svg" xmlns:ev="http://www.w3.org/2001/xml-events" xmlns:xlink="http://www.w3.org/1999/xlink"><defs /><path d="M108 0 L98 1 L81 3 L66 6 L53 10 L49 11 L58 13 L77 16 L93 21 L100 23 L103 24 L103 25 " fill="none" stroke="black" /><path d="M108 0 L98 1 L81 3 L66 6 L53 10 L49 11 L58 13 L77 16 L93 21 L100 23 L103 24 L103 25 M80 42 L64 47 L42 54 L31 60 L41 62 L65 65 L79 69 L87 72 L88 73 L87 73 " fill="none" stroke="black" /><path d="M108 0 L98 1 L81 3 L66 6 L53 10 L49 11 L58 13 L77 16 L93 21 L100 23 L103 24 L103 25 M80 42 L64 47 L42 54 L31 60 L41 62 L65 65 L79 69 L87 72 L88 73 L87 73 M63 102 L58 103 L45 108 L25 116 L4 126 L0 128 L4 129 L17 131 L36 133 L49 135 L56 136 " fill="none" stroke="black" /><path d="M108 0 L98 1 L81 3 L66 6 L53 10 L49 11 L58 13 L77 16 L93 21 L100 23 L103 24 L103 25 M80 42 L64 47 L42 54 L31 60 L41 62 L65 65 L79 69 L87 72 L88 73 L87 73 M63 102 L58 103 L45 108 L25 116 L4 126 L0 128 L4 129 L17 131 L36 133 L49 135 L56 136 M125 0 L128 2 L138 8 L146 13 L147 14 L145 18 L136 22 L131 24 L128 25 L124 26 L123 26 " fill="none" stroke="black" /><path d="M108 0 L98 1 L81 3 L66 6 L53 10 L49 11 L58 13 L77 16 L93 21 L100 23 L103 24 L103 25 M80 42 L64 47 L42 54 L31 60 L41 62 L65 65 L79 69 L87 72 L88 73 L87 73 M63 102 L58 103 L45 108 L25 116 L4 126 L0 128 L4 129 L17 131 L36 133 L49 135 L56 136 M125 0 L128 2 L138 8 L146 13 L147 14 L145 18 L136 22 L131 24 L128 25 L124 26 L123 26 M117 55 L132 63 L138 68 L138 71 L135 74 L133 75 L132 75 L131 75 L128 76 L123 77 L121 77 L120 77 " fill="none" stroke="black" /><path d="M108 0 L98 1 L81 3 L66 6 L53 10 L49 11 L58 13 L77 16 L93 21 L100 23 L103 24 L103 25 M80 42 L64 47 L42 54 L31 60 L41 62 L65 65 L79 69 L87 72 L88 73 L87 73 M63 102 L58 103 L45 108 L25 116 L4 126 L0 128 L4 129 L17 131 L36 133 L49 135 L56 136 M125 0 L128 2 L138 8 L146 13 L147 14 L145 18 L136 22 L131 24 L128 25 L124 26 L123 26 M117 55 L132 63 L138 68 L138 71 L135 74 L133 75 L132 75 L131 75 L128 76 L123 77 L121 77 L120 77 M89 116 L100 119 L104 120 L104 122 L104 131 L100 138 L94 142 L92 142 " fill="none" stroke="black" /></svg>