<?xml version="1.0" encoding="utf-8" ?>
<svg baseProfile="tiny" height="402" version="1.2" viewBox="-3 -3 964 402" width="964" xmlns="http://www.w3.org/2000/svg" xmlns:ev="http://www.w3.org/2001/xml-events" xmlns:xlink="http://www.w3.org/1999/xlink"><defs /><path d="M0 402 L0 401 L0 395 L8 379 L14 357 L21 335 L29 317 L44 295 L56 276 L67 257 L79 234 L92 208 L105 179 L114 161 L127 139 L141 120 L157 100 L174 83 L193 64 L213 48 L233 36 L253 25 L277 15 L305 8 L327 2 L357 0 L400 2 L434 7 L473 12 L504 16 L518 19 L531 24 L558 37 L584 51 L602 63 L612 71 L624 82 L636 95 L645 106 L652 118 L660 130 L670 143 L678 155 L685 167 L690 175 L695 182 L700 191 L705 200 L711 211 L716 221 L720 227 L724 238 L731 250 L737 262 L744 271 L751 279 L757 284 L761 289 L769 296 L777 300 L782 301 L788 302 L793 302 L799 302 L804 302 L809 301 L817 299 L826 297 L838 291 L849 285 L857 280 L868 272 L881 260 L894 246 L905 230 L916 211 L928 192 L940 172 L950 154 L959 138 L963 130 L964 128 " fill="none" stroke="black" /></svg>