<?xml version="1.0" encoding="utf-8" ?>
<svg baseProfile="tiny" height="257" version="1.2" viewBox="-3 -3 210 257" width="210" xmlns="http://www.w3.org/2000/svg" xmlns:ev="http://www.w3.org/2001/xml-events" xmlns:xlink="http://www.w3.org/1999/xlink"><defs /><path d="M2 223 L0 230 L0 236 L4 240 L7 244 L11 249 L16 253 L20 255 L23 257 L26 257 L28 257 L32 257 L42 256 L53 253 L59 251 L63 249 L68 240 L74 228 L75 210 L74 184 L72 158 L69 132 L68 104 L68 73 L69 53 L73 36 L79 25 L82 13 L83 6 L84 4 L84 2 L85 1 L86 1 L87 1 L89 0 L91 0 L92 0 L93 0 L95 0 L97 0 L98 1 L100 2 L102 3 L103 4 L104 5 L106 8 L106 9 L107 10 L107 12 L108 14 L109 18 L110 20 L111 23 L113 26 L114 28 L115 28 L116 28 L117 28 L119 27 L120 26 L121 24 L122 22 L123 20 L124 19 L124 17 L124 14 L124 11 L125 10 L126 7 L127 6 L128 5 L129 5 L130 4 L131 4 L132 6 L133 9 L133 13 L133 18 L133 23 L135 28 L137 31 L141 34 L143 35 L144 35 L145 35 L146 33 L147 31 L147 28 L148 24 L149 21 L150 16 L153 11 L155 8 L158 6 L160 5 L162 5 L163 5 L165 11 L166 18 L168 25 L169 30 L172 34 L174 35 L176 36 L178 36 L180 36 L184 34 L187 30 L189 27 L192 22 L195 17 L198 13 L199 11 L201 10 L202 9 L203 9 L204 9 L205 12 L207 19 L209 24 L210 26 " fill="none" stroke="black" /></svg>