<?xml version="1.0" encoding="utf-8" ?>
<svg baseProfile="tiny" height="417" version="1.2" viewBox="-3 -3 75 417" width="75" xmlns="http://www.w3.org/2000/svg" xmlns:ev="http://www.w3.org/2001/xml-events" xmlns:xlink="http://www.w3.org/1999/xlink"><defs /><path d="M54 4 L53 6 L52 9 L52 10 L52 13 L52 17 L52 19 L53 21 L53 22 L54 23 L54 24 L55 25 L55 26 L56 29 L56 31 L56 32 L57 33 L57 34 L57 36 L57 38 L57 40 L57 42 L57 43 L57 45 L57 46 L57 47 L57 49 L57 51 L57 53 L58 56 L58 60 L59 63 L59 65 L60 68 L60 69 L60 71 L60 74 L60 75 L60 78 L60 82 L60 86 L59 91 L56 102 L53 114 L51 125 L50 135 L49 144 L48 153 L46 162 L43 175 L37 188 L31 199 L25 212 L20 228 L17 240 L16 251 L15 259 L14 267 L13 277 L13 287 L12 296 L11 305 L9 314 L8 323 L6 333 L3 345 L2 357 L1 368 L0 379 L0 388 L1 398 L3 409 L3 417 " fill="none" stroke="black" /><path d="M54 4 L53 6 L52 9 L52 10 L52 13 L52 17 L52 19 L53 21 L53 22 L54 23 L54 24 L55 25 L55 26 L56 29 L56 31 L56 32 L57 33 L57 34 L57 36 L57 38 L57 40 L57 42 L57 43 L57 45 L57 46 L57 47 L57 49 L57 51 L57 53 L58 56 L58 60 L59 63 L59 65 L60 68 L60 69 L60 71 L60 74 L60 75 L60 78 L60 82 L60 86 L59 91 L56 102 L53 114 L51 125 L50 135 L49 144 L48 153 L46 162 L43 175 L37 188 L31 199 L25 212 L20 228 L17 240 L16 251 L15 259 L14 267 L13 277 L13 287 L12 296 L11 305 L9 314 L8 323 L6 333 L3 345 L2 357 L1 368 L0 379 L0 388 L1 398 L3 409 L3 417 M69 0 L71 12 L72 25 L72 36 L73 49 L74 62 L75 73 L74 89 L72 106 L71 116 L68 125 L64 138 L61 150 L57 161 L55 175 L53 187 L53 202 L52 218 L50 235 L47 252 L44 263 L40 274 L37 286 L34 300 L32 311 L31 323 L31 332 L30 337 L30 344 L29 351 L28 356 L27 361 L26 367 L25 372 L24 377 L23 382 L22 386 L22 389 L22 393 L22 401 L22 408 L21 416 " fill="none" stroke="black" /></svg>