<?xml version="1.0" encoding="utf-8" ?>
<svg baseProfile="tiny" height="181" version="1.2" viewBox="-3 -3 263 181" width="263" xmlns="http://www.w3.org/2000/svg" xmlns:ev="http://www.w3.org/2001/xml-events" xmlns:xlink="http://www.w3.org/1999/xlink"><defs /><path d="M98 43 L93 46 L87 49 L82 52 L75 56 L65 61 L60 65 L59 68 L57 74 L55 84 L54 93 L55 98 L57 106 L61 116 L65 123 L68 128 L72 131 L79 133 L86 135 L94 136 L100 138 L103 139 L109 140 L117 141 L121 141 L124 142 L127 142 L132 143 L137 143 L142 143 L150 140 L162 137 L171 134 L178 130 L186 125 L194 120 L199 115 L205 109 L209 103 L214 96 L219 88 L221 81 L222 78 L222 77 L222 76 L221 72 L218 66 L215 60 L212 56 L206 49 L199 44 L191 40 L175 36 L158 30 L146 25 L138 24 L125 25 L114 26 L105 28 L91 34 L78 40 L71 43 L65 47 L56 55 L48 63 L42 70 L38 79 L35 89 L35 100 L35 112 L40 124 L48 134 L60 142 L76 149 L89 153 L102 156 L118 158 L135 159 L151 160 L163 160 L176 159 L192 155 L211 147 L224 138 L241 122 L257 103 L262 89 L263 75 L260 64 L253 51 L243 36 L237 29 L234 26 L228 20 L219 13 L212 9 L202 5 L185 2 L172 0 L163 0 L155 0 L144 2 L130 5 L120 7 L113 9 L106 10 L97 12 L85 15 L78 17 L72 20 L63 24 L55 29 L47 35 L37 43 L26 56 L17 71 L9 89 L3 110 L0 126 L0 141 L5 157 L16 170 L27 178 L32 181 " fill="none" stroke="black" /></svg>