<?xml version="1.0" encoding="utf-8" ?>
<svg baseProfile="tiny" height="128" version="1.2" viewBox="-3 -3 302 128" width="302" xmlns="http://www.w3.org/2000/svg" xmlns:ev="http://www.w3.org/2001/xml-events" xmlns:xlink="http://www.w3.org/1999/xlink"><defs /><path d="M28 13 L27 16 L24 22 L20 28 L14 34 L11 39 L12 39 L17 36 L27 22 L46 5 L54 0 L54 4 L54 22 L52 37 L51 46 L51 47 L51 48 L51 49 " fill="none" stroke="black" /><path d="M28 13 L27 16 L24 22 L20 28 L14 34 L11 39 L12 39 L17 36 L27 22 L46 5 L54 0 L54 4 L54 22 L52 37 L51 46 L51 47 L51 48 L51 49 M0 46 L3 53 L5 65 L7 85 L10 97 L15 96 L20 88 L28 72 L34 68 L32 69 L31 69 " fill="none" stroke="black" /><path d="M28 13 L27 16 L24 22 L20 28 L14 34 L11 39 L12 39 L17 36 L27 22 L46 5 L54 0 L54 4 L54 22 L52 37 L51 46 L51 47 L51 48 L51 49 M0 46 L3 53 L5 65 L7 85 L10 97 L15 96 L20 88 L28 72 L34 68 L32 69 L31 69 M68 42 L68 47 L69 55 L72 61 L75 60 L94 45 L126 21 L149 5 L156 2 L156 8 L157 25 L157 43 L158 48 L161 46 L171 38 L203 30 L236 25 L245 24 L245 32 L242 62 L242 74 L243 72 L251 54 L273 26 L296 8 L297 7 L297 20 L298 45 L298 54 L299 55 L299 58 " fill="none" stroke="black" /><path d="M28 13 L27 16 L24 22 L20 28 L14 34 L11 39 L12 39 L17 36 L27 22 L46 5 L54 0 L54 4 L54 22 L52 37 L51 46 L51 47 L51 48 L51 49 M0 46 L3 53 L5 65 L7 85 L10 97 L15 96 L20 88 L28 72 L34 68 L32 69 L31 69 M68 42 L68 47 L69 55 L72 61 L75 60 L94 45 L126 21 L149 5 L156 2 L156 8 L157 25 L157 43 L158 48 L161 46 L171 38 L203 30 L236 25 L245 24 L245 32 L242 62 L242 74 L243 72 L251 54 L273 26 L296 8 L297 7 L297 20 L298 45 L298 54 L299 55 L299 58 M68 80 L69 91 L70 97 L75 96 L88 85 L112 70 L130 62 L131 62 L131 73 L133 98 L136 112 L138 112 L145 100 L154 84 L166 71 L172 68 L174 75 L179 98 L186 117 L187 119 L195 108 L215 90 L224 84 L226 86 L236 104 L250 124 L254 128 L257 120 L268 104 L279 93 L281 91 L282 95 L284 114 L287 125 L288 123 L291 112 L296 100 L302 90 " fill="none" stroke="black" /></svg>