<?xml version="1.0" encoding="utf-8" ?>
<svg baseProfile="tiny" height="128" version="1.2" viewBox="-3 -3 268 128" width="268" xmlns="http://www.w3.org/2000/svg" xmlns:ev="http://www.w3.org/2001/xml-events" xmlns:xlink="http://www.w3.org/1999/xlink"><defs /><path d="M0 119 L0 118 L1 117 L2 117 L4 116 L6 115 L11 111 L20 95 L32 67 L46 37 L54 15 L56 6 L57 2 L58 2 L61 1 L63 1 L66 1 L71 1 L73 0 L74 0 L75 0 L76 0 L78 0 L82 0 L87 0 L92 1 L99 2 L106 3 L111 4 L114 4 L118 4 L122 5 L126 5 L131 5 L134 5 L137 5 L140 5 L144 5 L146 5 L147 5 L148 5 L151 5 L156 6 L160 6 L166 6 L171 7 L176 8 L179 8 L183 9 L188 9 L193 10 L199 10 L206 11 L213 12 L218 12 L224 13 L228 13 L232 13 L236 14 L237 14 L238 14 " fill="none" stroke="black" /><path d="M0 119 L0 118 L1 117 L2 117 L4 116 L6 115 L11 111 L20 95 L32 67 L46 37 L54 15 L56 6 L57 2 L58 2 L61 1 L63 1 L66 1 L71 1 L73 0 L74 0 L75 0 L76 0 L78 0 L82 0 L87 0 L92 1 L99 2 L106 3 L111 4 L114 4 L118 4 L122 5 L126 5 L131 5 L134 5 L137 5 L140 5 L144 5 L146 5 L147 5 L148 5 L151 5 L156 6 L160 6 L166 6 L171 7 L176 8 L179 8 L183 9 L188 9 L193 10 L199 10 L206 11 L213 12 L218 12 L224 13 L228 13 L232 13 L236 14 L237 14 L238 14 M238 21 L239 37 L239 53 L241 70 L242 82 L243 90 L244 93 L247 101 L257 115 L262 122 L264 126 L267 127 L268 128 " fill="none" stroke="black" /></svg>