<?xml version="1.0" encoding="utf-8" ?>
<svg baseProfile="tiny" height="147" version="1.2" viewBox="-3 -3 111 147" width="111" xmlns="http://www.w3.org/2000/svg" xmlns:ev="http://www.w3.org/2001/xml-events" xmlns:xlink="http://www.w3.org/1999/xlink"><defs /><path d="M0 4 L0 5 L0 1 L0 0 L0 1 L0 2 L1 2 L2 0 L2 1 L2 4 L2 3 L2 7 L2 9 L4 4 L6 0 L6 1 L5 7 L5 8 L7 4 L8 4 L9 4 L12 4 L17 4 L15 5 L14 5 L10 6 L8 7 L12 8 L17 8 L16 8 L13 8 L21 8 L24 8 L20 8 L16 10 L17 10 L23 10 L22 10 L14 11 L12 12 L17 12 L23 11 L21 11 L15 13 L14 14 L26 14 L34 12 L29 13 L16 21 L10 28 L21 29 L24 29 L17 31 L9 38 L14 42 L27 41 L30 39 L22 42 L14 48 L17 50 L26 49 L25 49 L14 53 L7 59 L17 60 L34 53 L31 53 L19 60 L15 69 L29 70 L39 67 L37 71 L39 87 L60 91 L79 78 L63 71 L22 84 L13 96 L39 96 L53 89 L35 88 L30 91 L53 95 L68 95 L58 96 L40 103 L48 106 L81 101 L91 97 L66 105 L42 115 L56 118 L88 112 L84 109 L64 113 L62 118 L78 117 L80 114 L64 115 L58 119 L71 122 L88 121 L79 121 L60 126 L67 129 L103 130 L108 128 L82 135 L68 145 L95 147 L111 142 L108 141 L102 143 " fill="none" stroke="black" /></svg>