<?xml version="1.0" encoding="utf-8" ?>
<svg baseProfile="tiny" height="312" version="1.2" viewBox="-3 -3 336 312" width="336" xmlns="http://www.w3.org/2000/svg" xmlns:ev="http://www.w3.org/2001/xml-events" xmlns:xlink="http://www.w3.org/1999/xlink"><defs /><path d="M79 21 L77 21 L60 26 L29 36 L9 47 L0 58 L1 78 L19 94 L53 100 L111 93 L137 81 L146 57 L144 39 L129 29 L104 24 " fill="none" stroke="black" /><path d="M79 21 L77 21 L60 26 L29 36 L9 47 L0 58 L1 78 L19 94 L53 100 L111 93 L137 81 L146 57 L144 39 L129 29 L104 24 M266 32 L245 56 L217 94 L224 125 L262 133 L304 121 L335 76 L336 32 L309 0 " fill="none" stroke="black" /><path d="M79 21 L77 21 L60 26 L29 36 L9 47 L0 58 L1 78 L19 94 L53 100 L111 93 L137 81 L146 57 L144 39 L129 29 L104 24 M266 32 L245 56 L217 94 L224 125 L262 133 L304 121 L335 76 L336 32 L309 0 M79 163 L74 168 L60 202 L48 249 L44 287 L45 304 L57 300 L104 270 L167 236 L213 214 L223 207 L222 221 L221 266 L221 303 L224 312 L226 309 L239 282 L262 243 L281 217 L289 206 L287 206 L272 205 L227 198 L164 188 L101 182 L72 181 " fill="none" stroke="black" /></svg>