<?xml version="1.0" encoding="utf-8" ?>
<svg baseProfile="tiny" height="140" version="1.2" viewBox="-3 -3 394 140" width="394" xmlns="http://www.w3.org/2000/svg" xmlns:ev="http://www.w3.org/2001/xml-events" xmlns:xlink="http://www.w3.org/1999/xlink"><defs /><path d="M1 83 L2 85 L5 95 L7 95 L17 76 L30 28 L41 1 L42 0 L44 27 L49 70 L54 87 L56 86 L72 60 L88 51 L91 60 L93 88 L96 97 L102 90 L120 55 L137 41 L137 45 L136 78 L140 90 L141 88 L154 67 L182 51 L183 55 L186 79 L189 87 L191 87 L209 69 L234 61 L235 61 L237 78 L242 90 L243 90 L251 78 L274 60 L281 55 L282 70 L289 102 L293 113 L294 112 L300 87 L314 64 L316 88 L322 103 L328 93 L351 74 L354 74 L357 87 L360 94 L361 94 L370 83 L375 80 L376 84 L380 91 L376 91 L376 92 L375 92 " fill="none" stroke="black" /><path d="M1 83 L2 85 L5 95 L7 95 L17 76 L30 28 L41 1 L42 0 L44 27 L49 70 L54 87 L56 86 L72 60 L88 51 L91 60 L93 88 L96 97 L102 90 L120 55 L137 41 L137 45 L136 78 L140 90 L141 88 L154 67 L182 51 L183 55 L186 79 L189 87 L191 87 L209 69 L234 61 L235 61 L237 78 L242 90 L243 90 L251 78 L274 60 L281 55 L282 70 L289 102 L293 113 L294 112 L300 87 L314 64 L316 88 L322 103 L328 93 L351 74 L354 74 L357 87 L360 94 L361 94 L370 83 L375 80 L376 84 L380 91 L376 91 L376 92 L375 92 M0 91 L2 97 L8 115 L12 127 L15 127 L25 111 L43 79 L51 70 L52 77 L56 113 L61 135 L64 137 L68 130 L85 115 L94 114 L102 130 L117 140 L133 140 L159 125 L190 107 L194 109 L197 130 L204 137 L207 136 L222 119 L249 99 L253 100 L255 116 L260 124 L264 124 L282 114 L301 112 L304 122 L310 132 L313 133 L322 126 L342 118 L349 117 L351 127 L356 135 L359 136 L372 127 L384 119 L385 119 L386 118 L391 107 L394 99 L394 98 L394 97 L392 97 " fill="none" stroke="black" /></svg>