<?xml version="1.0" encoding="utf-8" ?>
<svg baseProfile="tiny" height="52" version="1.2" viewBox="-3 -3 500 52" width="500" xmlns="http://www.w3.org/2000/svg" xmlns:ev="http://www.w3.org/2001/xml-events" xmlns:xlink="http://www.w3.org/1999/xlink"><defs /><path d="M0 22 L1 22 L3 22 L4 22 L6 21 L9 21 L14 20 L22 20 L35 20 L50 20 L62 21 L79 22 L109 23 L141 26 L171 27 L202 27 L237 27 L261 27 L277 27 L300 27 L323 27 L340 27 L356 27 L372 28 L387 29 L399 29 L412 30 L425 31 L441 31 L454 32 L463 33 L474 33 L487 33 L491 33 " fill="none" stroke="black" /><path d="M0 22 L1 22 L3 22 L4 22 L6 21 L9 21 L14 20 L22 20 L35 20 L50 20 L62 21 L79 22 L109 23 L141 26 L171 27 L202 27 L237 27 L261 27 L277 27 L300 27 L323 27 L340 27 L356 27 L372 28 L387 29 L399 29 L412 30 L425 31 L441 31 L454 32 L463 33 L474 33 L487 33 L491 33 M11 13 L10 14 L10 19 L9 27 L8 31 L12 30 L19 25 L28 17 L44 8 L56 1 L58 0 L58 1 L56 7 L52 19 L51 27 L51 28 L57 27 L68 22 L98 16 L125 12 L126 12 L122 19 L121 31 L121 36 L125 36 L141 29 L167 20 L185 15 L186 15 L185 17 L182 27 L181 31 L183 31 L190 26 L211 17 L237 8 L245 6 L242 11 L239 24 L238 29 L245 29 L265 25 L301 21 L333 20 L336 20 L332 28 L332 35 L335 35 L355 31 L392 25 L422 21 L424 21 L420 28 L417 38 L418 39 L428 34 L455 27 L490 22 L500 21 L494 29 L483 45 L479 52 " fill="none" stroke="black" /></svg>