<?xml version="1.0" encoding="utf-8" ?>
<svg baseProfile="tiny" height="40" version="1.2" viewBox="-3 -3 398 40" width="398" xmlns="http://www.w3.org/2000/svg" xmlns:ev="http://www.w3.org/2001/xml-events" xmlns:xlink="http://www.w3.org/1999/xlink"><defs /><path d="M0 0 L1 0 L21 0 L37 0 L45 0 L55 0 L59 0 L63 0 L66 0 L69 0 L71 0 " fill="none" stroke="black" /><path d="M0 0 L1 0 L21 0 L37 0 L45 0 L55 0 L59 0 L63 0 L66 0 L69 0 L71 0 M54 13 L56 13 L63 13 L79 13 L88 13 L93 13 L97 13 L101 13 L105 13 L107 13 L111 13 L113 13 L115 13 L117 13 L119 13 L120 13 L121 13 L122 13 L123 13 L125 13 " fill="none" stroke="black" /><path d="M0 0 L1 0 L21 0 L37 0 L45 0 L55 0 L59 0 L63 0 L66 0 L69 0 L71 0 M54 13 L56 13 L63 13 L79 13 L88 13 L93 13 L97 13 L101 13 L105 13 L107 13 L111 13 L113 13 L115 13 L117 13 L119 13 L120 13 L121 13 L122 13 L123 13 L125 13 M111 28 L131 28 L143 30 L156 32 L175 32 L183 32 L186 32 L191 32 L195 32 L199 32 L201 32 L205 32 L207 32 L209 32 L211 32 " fill="none" stroke="black" /><path d="M0 0 L1 0 L21 0 L37 0 L45 0 L55 0 L59 0 L63 0 L66 0 L69 0 L71 0 M54 13 L56 13 L63 13 L79 13 L88 13 L93 13 L97 13 L101 13 L105 13 L107 13 L111 13 L113 13 L115 13 L117 13 L119 13 L120 13 L121 13 L122 13 L123 13 L125 13 M111 28 L131 28 L143 30 L156 32 L175 32 L183 32 L186 32 L191 32 L195 32 L199 32 L201 32 L205 32 L207 32 L209 32 L211 32 M177 16 L203 16 L259 15 L267 14 L271 14 L277 14 L284 14 L287 14 L289 14 L291 14 L293 14 L292 14 " fill="none" stroke="black" /><path d="M0 0 L1 0 L21 0 L37 0 L45 0 L55 0 L59 0 L63 0 L66 0 L69 0 L71 0 M54 13 L56 13 L63 13 L79 13 L88 13 L93 13 L97 13 L101 13 L105 13 L107 13 L111 13 L113 13 L115 13 L117 13 L119 13 L120 13 L121 13 L122 13 L123 13 L125 13 M111 28 L131 28 L143 30 L156 32 L175 32 L183 32 L186 32 L191 32 L195 32 L199 32 L201 32 L205 32 L207 32 L209 32 L211 32 M177 16 L203 16 L259 15 L267 14 L271 14 L277 14 L284 14 L287 14 L289 14 L291 14 L293 14 L292 14 M255 36 L261 36 L319 38 L356 38 L368 38 L375 38 L385 40 L390 40 L393 40 L397 40 L398 40 " fill="none" stroke="black" /></svg>