<?xml version="1.0" encoding="utf-8" ?>
<svg baseProfile="tiny" height="71" version="1.2" viewBox="-3 -3 613 71" width="613" xmlns="http://www.w3.org/2000/svg" xmlns:ev="http://www.w3.org/2001/xml-events" xmlns:xlink="http://www.w3.org/1999/xlink"><defs /><path d="M0 2 L7 2 L19 2 L33 4 L43 7 L53 9 L62 12 L73 17 L87 22 L95 26 L103 29 L113 34 L123 38 L131 41 L139 46 L145 49 L154 54 L165 58 L174 60 L187 64 L207 68 L233 70 L248 71 L262 71 L275 71 L291 70 L307 67 L317 66 L324 64 L334 62 L339 60 L345 56 L351 54 L353 51 L357 50 L360 46 L362 44 L365 42 L367 38 L369 36 L369 35 L370 33 L373 32 L374 29 L376 27 L380 23 L383 21 L385 19 L387 18 L389 16 L391 14 L394 12 L397 10 L399 8 L401 8 L403 6 L407 4 L411 3 L415 2 L419 1 L423 0 L428 0 L437 2 L447 7 L457 14 L464 17 L474 22 L483 26 L491 30 L497 34 L501 35 L505 37 L515 41 L526 44 L540 46 L547 48 L557 49 L572 50 L588 50 L597 50 L601 49 L603 48 L606 48 L609 47 L610 47 L612 47 L613 47 L613 46 L613 45 L613 43 " fill="none" stroke="black" /></svg>