<?xml version="1.0" encoding="utf-8" ?>
<svg baseProfile="tiny" height="249" version="1.2" viewBox="-3 -3 980 249" width="980" xmlns="http://www.w3.org/2000/svg" xmlns:ev="http://www.w3.org/2001/xml-events" xmlns:xlink="http://www.w3.org/1999/xlink"><defs /><path d="M0 249 L9 213 L19 172 L22 163 L27 152 L45 126 L76 90 L111 58 L142 39 L171 25 L207 15 L246 6 L288 0 L324 0 L352 4 L379 8 L418 16 L461 32 L490 47 L520 63 L539 75 L552 85 L569 98 L586 111 L601 121 L614 127 L638 136 L662 142 L672 144 L684 146 L694 148 L708 149 L722 150 L746 152 L768 152 L792 152 L812 150 L820 148 L831 146 L840 144 L848 139 L858 134 L877 125 L894 120 L911 116 L932 112 L951 109 L968 108 L973 108 L980 107 " fill="none" stroke="black" /></svg>