<?xml version="1.0" encoding="utf-8" ?>
<svg baseProfile="tiny" height="89" version="1.2" viewBox="-3 -3 472 89" width="472" xmlns="http://www.w3.org/2000/svg" xmlns:ev="http://www.w3.org/2001/xml-events" xmlns:xlink="http://www.w3.org/1999/xlink"><defs /><path d="M0 28 L20 13 L48 0 L52 0 L53 2 L53 7 L50 34 L50 38 L50 40 L54 35 L60 24 L63 22 L64 22 L64 29 L63 34 L63 36 L71 35 L80 32 L84 30 L85 30 L89 28 L92 28 L95 29 L96 33 L98 35 L101 36 L134 23 L137 22 L138 24 L138 25 L138 26 L138 29 L138 34 L136 42 L134 47 L133 50 L134 50 L146 41 L156 35 L158 35 L158 36 L158 39 L160 39 L163 39 L180 36 L191 32 L194 32 L195 33 L195 35 L196 36 L204 36 L209 36 L212 37 L214 38 L231 38 L256 35 L261 35 L262 38 L262 39 L265 39 L270 38 L273 38 L274 39 L275 41 L276 42 L295 40 L321 34 L322 35 L322 40 L322 42 L322 44 L325 44 L334 42 L338 42 L340 44 L344 44 L371 40 L394 38 L396 38 L396 42 L396 44 L398 44 L402 43 L406 43 L407 44 L407 46 L408 46 L409 45 L412 42 L422 38 L428 36 L432 34 L436 34 L439 31 L449 16 L455 8 L458 5 L459 4 L459 5 L460 6 L460 7 L462 15 L462 26 L462 30 L465 34 L469 37 L472 40 L472 44 L468 56 L464 61 L462 64 L464 62 L466 60 L467 59 L466 56 L445 52 L396 54 L333 58 L300 68 L268 80 L264 82 L262 85 L261 86 L261 89 L262 89 L268 89 L272 86 " fill="none" stroke="black" /></svg>