<?xml version="1.0" encoding="utf-8" ?>
<svg baseProfile="tiny" height="197" version="1.2" viewBox="-3 -3 592 197" width="592" xmlns="http://www.w3.org/2000/svg" xmlns:ev="http://www.w3.org/2001/xml-events" xmlns:xlink="http://www.w3.org/1999/xlink"><defs /><path d="M5 79 L1 118 L0 137 L0 142 L2 147 L6 151 L14 154 L22 155 L30 155 L34 154 L41 150 L51 144 L59 135 L66 121 L71 107 L71 103 L71 101 L70 111 L73 153 L76 160 L77 162 L78 163 L85 161 L119 127 L129 112 L130 110 L130 112 L129 121 L129 154 L131 164 L132 167 L133 167 L159 146 L184 119 L185 119 L189 121 L197 125 L210 126 L220 123 L228 117 L232 95 L230 73 L226 66 L217 55 L203 42 L194 35 L187 31 L183 29 L179 29 L175 29 L174 31 L174 34 L174 36 L177 39 L184 44 L197 49 L241 44 L287 15 L299 3 L301 1 L302 0 L301 2 L242 80 L222 106 L221 109 L220 110 L221 109 L279 75 L303 69 L305 71 L302 79 L293 103 L291 118 L291 121 L295 121 L309 122 L320 123 L322 124 L321 133 L316 144 L315 147 L328 146 L375 144 L412 146 L423 146 L432 142 L449 121 L470 56 L469 49 L465 45 L463 43 L459 40 L456 39 L453 38 L448 39 L444 41 L441 43 L437 46 L434 49 L432 49 L431 48 L443 33 L465 21 L476 19 L481 22 L482 35 L439 145 L420 173 L419 173 L418 172 L419 165 L443 133 L471 113 L488 113 L503 143 L512 185 L516 195 L520 197 L522 194 L561 85 L569 61 L571 57 L571 58 L574 64 L583 70 L589 73 L592 73 L592 74 L573 72 L536 53 L533 51 " fill="none" stroke="black" /></svg>