<?xml version="1.0" encoding="utf-8" ?>
<svg baseProfile="tiny" height="258" version="1.2" viewBox="-3 -3 414 258" width="414" xmlns="http://www.w3.org/2000/svg" xmlns:ev="http://www.w3.org/2001/xml-events" xmlns:xlink="http://www.w3.org/1999/xlink"><defs /><path d="M0 50 L71 66 L159 96 L212 113 L249 128 L262 138 L275 152 L284 164 L288 174 L296 199 L300 220 L303 232 L304 241 L305 248 L306 252 L306 255 L306 257 L306 258 L306 254 L302 221 L304 98 L307 83 L309 72 L314 58 L330 31 L346 10 L354 3 L360 1 L368 0 L376 0 L382 2 L387 3 L392 6 L397 9 L400 11 L402 13 L405 17 L407 20 L410 24 L411 28 L413 33 L414 40 L414 43 L414 46 L414 48 L413 50 L410 57 L408 62 L404 70 L396 88 L386 104 L385 106 L383 108 L380 110 L369 114 L357 118 L350 117 L345 113 L338 107 L330 100 L326 98 L324 96 L323 93 L323 92 " fill="none" stroke="black" /></svg>