<?xml version="1.0" encoding="utf-8" ?>
<svg baseProfile="tiny" height="307" version="1.2" viewBox="-3 -3 958 307" width="958" xmlns="http://www.w3.org/2000/svg" xmlns:ev="http://www.w3.org/2001/xml-events" xmlns:xlink="http://www.w3.org/1999/xlink"><defs /><path d="M336 83 L335 87 L330 109 L327 127 L326 156 L326 173 L327 185 L333 206 L342 227 L350 243 L356 251 L360 257 L366 261 L374 267 L386 273 L398 278 L408 281 L417 281 L428 283 L440 283 L456 283 L481 282 L508 281 L528 278 L556 273 L581 269 L609 263 L637 255 L662 249 L692 239 L713 233 L738 222 L758 215 L767 212 L780 205 L798 198 L811 191 L820 185 L834 175 L855 161 L870 151 L904 123 L932 93 L950 69 L954 63 L956 58 L958 45 L958 29 L954 21 L952 17 L949 13 L947 9 L945 6 L942 3 L941 1 L940 0 L939 0 L938 0 L936 0 L912 1 L778 9 L689 30 L642 37 L565 55 L460 77 L396 88 L304 103 L222 111 L160 113 L122 112 L84 108 L47 106 L21 104 L6 101 L2 100 L1 99 L0 99 L2 99 L3 101 L4 101 L5 102 L8 103 L38 130 L78 178 L112 219 L148 258 L192 279 L260 294 L363 307 L458 301 L594 279 L692 258 L748 237 L789 219 L820 203 L834 195 L838 192 L842 173 L825 129 L797 116 L725 111 L635 121 L516 139 L388 157 L296 183 L222 203 L175 205 L154 201 L133 193 " fill="none" stroke="black" /></svg>