<?xml version="1.0" encoding="utf-8" ?>
<svg baseProfile="tiny" height="224" version="1.2" viewBox="-3 -3 284 224" width="284" xmlns="http://www.w3.org/2000/svg" xmlns:ev="http://www.w3.org/2001/xml-events" xmlns:xlink="http://www.w3.org/1999/xlink"><defs /><path d="M0 152 L12 166 L21 175 L34 186 L56 201 L72 209 L94 217 L121 224 L134 224 L164 222 L200 218 L231 210 L242 208 L253 203 L265 196 L273 190 L274 187 L276 182 L277 175 L280 160 L284 135 L284 114 L284 95 L282 82 L280 76 L278 70 L277 67 L274 63 L270 58 L267 55 L264 51 L259 48 L255 44 L252 42 L247 40 L244 37 L238 34 L234 32 L230 31 L227 30 L223 29 L220 28 L217 28 L216 26 L213 26 L212 26 L210 26 L208 25 L204 24 L202 24 L198 24 L195 24 L192 23 L188 22 L185 22 L182 21 L179 20 L175 19 L168 18 L160 18 L152 16 L144 15 L138 14 L133 14 L129 13 L124 12 L122 10 L120 10 L118 9 L118 7 L117 6 L116 4 L116 2 L116 1 L116 0 " fill="none" stroke="black" /><path d="M0 152 L12 166 L21 175 L34 186 L56 201 L72 209 L94 217 L121 224 L134 224 L164 222 L200 218 L231 210 L242 208 L253 203 L265 196 L273 190 L274 187 L276 182 L277 175 L280 160 L284 135 L284 114 L284 95 L282 82 L280 76 L278 70 L277 67 L274 63 L270 58 L267 55 L264 51 L259 48 L255 44 L252 42 L247 40 L244 37 L238 34 L234 32 L230 31 L227 30 L223 29 L220 28 L217 28 L216 26 L213 26 L212 26 L210 26 L208 25 L204 24 L202 24 L198 24 L195 24 L192 23 L188 22 L185 22 L182 21 L179 20 L175 19 L168 18 L160 18 L152 16 L144 15 L138 14 L133 14 L129 13 L124 12 L122 10 L120 10 L118 9 L118 7 L117 6 L116 4 L116 2 L116 1 L116 0 M114 72 L102 76 L88 81 L75 87 L72 89 L71 91 L70 96 L70 115 L72 132 L78 149 L86 162 L96 176 L103 184 L112 190 L123 194 L140 195 L180 190 L188 188 L194 184 L198 180 L204 175 L208 170 L214 164 L218 158 L224 148 L230 139 L233 130 L236 118 L237 107 L237 100 L236 90 L234 85 L230 80 L227 77 L222 72 L218 70 L212 68 L208 66 L202 64 L196 63 L191 63 L188 63 L184 63 L180 64 L175 64 L172 67 L170 68 L166 71 L160 77 L152 84 L148 90 L146 94 L146 99 L146 105 L146 110 L148 114 L152 120 L156 126 L162 130 L170 135 L182 140 L186 141 L189 141 L193 141 L195 139 L198 138 L199 135 L200 132 L200 130 L200 126 L198 121 L196 118 L195 116 L193 114 L192 114 " fill="none" stroke="black" /></svg>