<?xml version="1.0" encoding="utf-8" ?>
<svg baseProfile="tiny" height="286" version="1.2" viewBox="-3 -3 481 286" width="481" xmlns="http://www.w3.org/2000/svg" xmlns:ev="http://www.w3.org/2001/xml-events" xmlns:xlink="http://www.w3.org/1999/xlink"><defs /><path d="M0 139 L1 137 L2 135 L5 131 L10 124 L15 119 L20 114 L26 107 L28 105 L30 105 L32 105 L34 112 L58 144 L68 154 L72 158 L75 159 L78 160 L80 160 L90 152 L128 92 L149 66 L159 61 L166 60 L174 66 L200 93 L230 134 L248 160 L269 188 L272 191 L274 194 L278 194 L286 196 L299 197 L320 192 L340 184 L356 178 L363 176 L364 174 L365 170 L364 163 L362 155 L360 150 L357 147 L352 145 L340 146 L322 153 L313 158 L306 161 L304 164 L304 166 L312 168 L388 177 L441 168 L470 158 L478 154 L480 154 L481 154 L477 155 L386 158 L313 160 L303 157 L302 156 L318 110 L389 18 L438 2 L452 6 L451 12 L396 84 L285 166 L150 207 L97 207 L71 196 L58 173 L66 104 L124 46 L173 48 L201 76 L201 156 L174 206 L150 226 L125 232 L112 230 L93 208 L99 117 L144 72 L210 72 L284 130 L330 196 L336 203 L335 208 L292 242 L199 257 L146 230 L118 171 L130 104 L148 97 L188 135 L222 204 L246 269 L249 273 L250 276 L254 282 L254 285 L254 286 L208 170 L206 15 L212 0 L214 0 " fill="none" stroke="black" /></svg>