<?xml version="1.0" encoding="utf-8" ?>
<svg baseProfile="tiny" height="310" version="1.2" viewBox="-3 -3 869 310" width="869" xmlns="http://www.w3.org/2000/svg" xmlns:ev="http://www.w3.org/2001/xml-events" xmlns:xlink="http://www.w3.org/1999/xlink"><defs /><path d="M6 302 L0 211 L4 162 L12 128 L26 78 L47 43 L84 16 L155 0 L202 2 L221 8 L244 22 L270 41 L290 62 L303 77 L310 87 L319 102 L327 116 L330 124 L334 137 L337 149 L337 153 L337 155 L337 158 L337 160 L337 162 L337 163 L337 164 " fill="none" stroke="black" /><path d="M6 302 L0 211 L4 162 L12 128 L26 78 L47 43 L84 16 L155 0 L202 2 L221 8 L244 22 L270 41 L290 62 L303 77 L310 87 L319 102 L327 116 L330 124 L334 137 L337 149 L337 153 L337 155 L337 158 L337 160 L337 162 L337 163 L337 164 M252 102 L286 191 L312 246 L342 276 L402 306 L428 310 L454 310 L462 304 L465 297 L486 246 L533 136 L533 128 L531 120 L524 102 L513 80 L508 72 L505 67 L503 66 L502 66 L500 66 L499 66 L498 66 L496 66 L494 66 L490 69 " fill="none" stroke="black" /><path d="M6 302 L0 211 L4 162 L12 128 L26 78 L47 43 L84 16 L155 0 L202 2 L221 8 L244 22 L270 41 L290 62 L303 77 L310 87 L319 102 L327 116 L330 124 L334 137 L337 149 L337 153 L337 155 L337 158 L337 160 L337 162 L337 163 L337 164 M252 102 L286 191 L312 246 L342 276 L402 306 L428 310 L454 310 L462 304 L465 297 L486 246 L533 136 L533 128 L531 120 L524 102 L513 80 L508 72 L505 67 L503 66 L502 66 L500 66 L499 66 L498 66 L496 66 L494 66 L490 69 M434 203 L506 102 L551 68 L579 56 L601 56 L626 66 L702 131 L726 167 L735 182 L745 196 L760 224 L764 234 L764 238 L766 239 L770 243 L774 247 L777 250 L789 252 L805 254 L828 250 L842 246 L850 242 L860 235 L868 222 L869 194 L865 182 L859 170 L820 121 L805 108 L803 107 L800 107 L798 107 " fill="none" stroke="black" /></svg>