<?xml version="1.0" encoding="utf-8" ?>
<svg baseProfile="tiny" height="95" version="1.2" viewBox="-3 -3 741 95" width="741" xmlns="http://www.w3.org/2000/svg" xmlns:ev="http://www.w3.org/2001/xml-events" xmlns:xlink="http://www.w3.org/1999/xlink"><defs /><path d="M0 95 L5 83 L11 73 L15 67 L22 59 L30 50 L38 44 L48 39 L56 34 L66 31 L75 28 L80 27 L84 27 L91 27 L97 28 L104 30 L109 31 L113 34 L116 36 L121 39 L123 42 L128 45 L130 47 L133 49 L137 52 L139 53 L142 54 L146 58 L148 59 L152 62 L155 65 L158 67 L162 70 L166 73 L171 76 L177 80 L184 82 L189 84 L198 86 L206 88 L213 88 L220 89 L230 89 L236 88 L248 86 L257 85 L267 82 L278 77 L291 72 L298 68 L304 64 L308 62 L310 58 L313 55 L314 53 L316 50 L317 47 L319 43 L325 35 L336 24 L343 16 L352 10 L358 5 L364 3 L371 1 L382 0 L390 0 L403 2 L416 6 L422 8 L430 12 L438 16 L443 20 L448 24 L454 30 L458 34 L461 38 L464 42 L467 44 L470 47 L473 50 L478 54 L487 60 L506 66 L519 70 L527 70 L530 70 L532 70 L532 69 L534 68 L534 66 L535 63 L536 55 L537 50 L538 46 L540 42 L541 40 L544 38 L548 38 L560 36 L575 32 L584 32 L590 30 L594 30 L602 32 L622 36 L636 40 L649 44 L663 48 L676 55 L690 63 L698 68 L706 71 L711 74 L717 76 L722 78 L727 80 L731 82 L736 83 L741 83 " fill="none" stroke="black" /></svg>