<?xml version="1.0" encoding="utf-8" ?>
<svg baseProfile="tiny" height="228" version="1.2" viewBox="-3 -3 839 228" width="839" xmlns="http://www.w3.org/2000/svg" xmlns:ev="http://www.w3.org/2001/xml-events" xmlns:xlink="http://www.w3.org/1999/xlink"><defs /><path d="M294 31 L322 30 L352 28 L388 25 L422 23 L486 18 L548 12 L614 6 L681 0 L739 0 L777 0 L806 4 L819 8 L824 9 L828 9 L830 10 L834 11 L836 12 L837 12 L838 12 L839 12 L774 14 L696 26 L629 35 L542 52 L472 64 L411 69 L306 82 L240 74 L199 67 L145 60 L99 56 L82 55 L75 55 L66 55 L52 55 L44 55 L41 55 L40 56 L38 56 L40 56 L42 56 L44 56 L44 57 L46 57 L48 57 L53 58 L62 62 L97 79 L135 96 L159 102 L192 109 L246 113 L312 116 L396 108 L442 104 L505 95 L560 88 L596 82 L633 76 L661 70 L672 68 L678 67 L681 66 L685 64 L694 61 L714 52 L732 45 L750 39 L763 36 L774 33 L781 31 L787 31 L792 31 L794 31 L796 31 L798 31 L799 31 L800 31 L802 32 L806 32 L809 32 L813 32 L816 32 L818 31 L820 30 L822 28 L823 28 L822 29 L814 32 L784 48 L737 76 L694 108 L656 128 L619 138 L580 145 L529 157 L486 162 L449 160 L405 160 L332 162 L292 162 L243 164 L196 171 L150 172 L114 172 L76 166 L65 162 L50 154 L41 148 L37 144 L30 139 L22 128 L16 118 L10 108 L5 98 L3 92 L2 90 L0 80 L0 76 L1 74 L2 74 L4 76 L6 81 L14 94 L29 110 L48 130 L76 155 L96 174 L120 191 L158 206 L191 218 L227 226 L302 228 L372 228 L456 226 L528 221 L570 219 L612 217 L650 208 L675 197 L702 184 L717 173 L727 164 L733 155 L762 86 L778 26 L781 16 L781 14 L781 13 " fill="none" stroke="black" /></svg>