<?xml version="1.0" encoding="utf-8" ?>
<svg baseProfile="tiny" height="134" version="1.2" viewBox="-3 -3 207 134" width="207" xmlns="http://www.w3.org/2000/svg" xmlns:ev="http://www.w3.org/2001/xml-events" xmlns:xlink="http://www.w3.org/1999/xlink"><defs /><path d="M0 84 L2 89 L5 93 L6 96 L9 98 L11 100 L13 102 L17 104 L21 106 L30 110 L40 112 L53 116 L71 117 L85 117 L99 116 L107 112 L114 109 L117 105 L118 102 L119 98 L122 90 L123 84 L123 79 L123 77 L123 74 L122 71 L119 70 L117 67 L113 64 L111 62 L105 59 L101 56 L96 54 L90 53 L85 53 L81 53 L75 54 L69 55 L65 56 L63 60 L59 63 L58 68 L55 76 L53 82 L53 87 L54 90 L56 92 L58 94 L59 95 L63 95 L66 95 L69 94 L72 92 L75 90 L78 88 L80 86 L82 84 L83 82 L83 81 L83 79 L83 78 L82 76 L80 76 L78 74 L77 74 L77 73 L75 73 L76 73 L77 72 L79 72 L83 71 L85 71 L88 71 L90 71 L92 71 L94 71 L96 71 L97 72 L98 72 L99 74 L100 76 L101 77 L104 80 L106 84 L107 87 L107 90 L107 91 L107 93 L106 94 L105 95 L104 95 L103 95 L103 94 L103 92 L103 90 L103 85 L103 82 L102 79 L102 75 L102 67 L102 61 L102 54 L103 42 L103 33 L107 22 L109 16 L111 14 L113 10 L114 6 L116 2 L117 1 L120 0 L121 0 L126 4 L133 12 L145 32 L148 43 L149 49 L149 55 L148 62 L147 70 L146 80 L145 91 L145 100 L146 109 L148 118 L152 126 L158 132 L165 134 L173 134 L179 132 L183 127 L193 106 L205 73 L207 36 L203 29 L201 24 L195 18 L191 14 L189 13 L185 12 L180 12 L173 15 L167 21 L161 29 L155 61 L154 96 L155 117 L155 125 L154 128 " fill="none" stroke="black" /></svg>