<?xml version="1.0" encoding="utf-8" ?>
<svg baseProfile="tiny" height="217" version="1.2" viewBox="-3 -3 523 217" width="523" xmlns="http://www.w3.org/2000/svg" xmlns:ev="http://www.w3.org/2001/xml-events" xmlns:xlink="http://www.w3.org/1999/xlink"><defs /><path d="M0 24 L2 22 L12 9 L25 3 L39 0 L50 0 L70 9 L85 20 L101 49 L111 79 L137 128 L177 184 L196 202 L227 214 L241 217 L262 212 L307 186 L325 169 L329 160 L329 154 L337 78 L335 68 L334 67 L332 66 L329 64 L327 62 L326 61 L324 60 L322 60 L321 60 L320 62 L319 62 L318 62 L316 64 L315 65 L313 66 L311 68 L310 70 L309 73 L309 74 L309 76 L309 78 L310 79 L310 80 L311 82 L311 83 L311 84 L311 83 L309 81 L300 75 L287 66 L281 60 L275 52 L271 48 L271 45 L271 38 L273 36 L275 32 L284 28 L314 23 L352 24 L373 30 L384 35 L391 40 L402 48 L409 54 L417 60 L422 65 L428 70 L435 75 L448 80 L477 84 L492 84 L503 83 L510 82 L514 80 L517 79 L520 77 L523 76 " fill="none" stroke="black" /></svg>