<?xml version="1.0" encoding="utf-8" ?>
<svg baseProfile="tiny" height="216" version="1.2" viewBox="-3 -3 833 216" width="833" xmlns="http://www.w3.org/2000/svg" xmlns:ev="http://www.w3.org/2001/xml-events" xmlns:xlink="http://www.w3.org/1999/xlink"><defs /><path d="M0 102 L165 86 L302 88 L476 93 L622 102 L702 105 L754 106 L778 110 L790 114 L798 114 L802 114 L808 114 L816 110 L828 102 L832 96 L833 83 L822 64 L750 8 L716 0 L700 3 L681 8 L632 21 L578 34 L524 43 L468 56 L408 66 L354 71 L318 75 L296 76 L280 79 L272 80 L265 80 L260 78 L257 73 L256 68 L260 62 L277 55 L340 38 L391 37 L426 49 L456 76 L474 102 L511 163 L537 196 L558 209 L600 216 L654 211 L676 200 L710 174 L730 154 L746 130 L754 116 L754 104 L746 90 L732 78 L699 72 L614 68 L532 70 L458 74 L374 88 L301 109 L240 126 L198 135 L181 137 L157 138 L147 136 L142 130 L133 120 L128 110 L129 103 L172 82 L304 53 L390 56 L490 74 L569 92 L670 106 L725 118 L768 127 L781 127 L788 127 L793 126 L795 124 " fill="none" stroke="black" /></svg>