<?xml version="1.0" encoding="utf-8" ?>
<svg baseProfile="tiny" height="151" version="1.2" viewBox="-3 -3 597 151" width="597" xmlns="http://www.w3.org/2000/svg" xmlns:ev="http://www.w3.org/2001/xml-events" xmlns:xlink="http://www.w3.org/1999/xlink"><defs /><path d="M0 151 L3 149 L93 102 L125 86 L141 74 L152 64 L162 54 L169 45 L171 37 L175 29 L175 20 L175 13 L174 10 L171 6 L168 4 L165 2 L161 1 L159 0 L156 0 L153 0 L150 0 L147 0 L145 1 L144 2 L143 2 L143 3 L142 6 L142 7 L142 8 L142 16 L142 24 L142 35 L151 52 L157 59 L161 61 L167 66 L172 68 L178 70 L185 73 L191 76 L199 76 L217 77 L229 77 L243 74 L254 72 L263 68 L271 66 L277 63 L282 60 L286 57 L290 54 L296 47 L302 36 L305 25 L305 19 L305 16 L305 14 L303 11 L300 8 L298 6 L295 5 L292 4 L289 4 L285 4 L281 4 L279 5 L277 6 L275 8 L274 10 L273 12 L273 16 L273 24 L273 32 L274 37 L275 46 L275 57 L275 65 L275 70 L275 78 L275 86 L275 96 L275 104 L274 110 L273 113 L271 120 L270 128 L269 135 L267 139 L266 142 L263 146 L259 148 L257 150 L255 150 L251 150 L246 150 L239 149 L233 149 L228 148 L223 146 L217 144 L216 142 L215 138 L219 132 L223 128 L241 118 L265 112 L279 112 L303 117 L323 122 L340 128 L358 132 L378 134 L393 134 L414 130 L450 117 L477 104 L503 82 L527 41 L533 22 L531 18 L527 16 L519 11 L513 8 L506 6 L498 6 L491 8 L487 10 L485 12 L485 16 L489 32 L512 68 L527 82 L540 89 L553 95 L564 99 L569 100 L571 100 L577 100 L585 96 L590 94 L593 93 L594 92 L595 92 L597 90 " fill="none" stroke="black" /></svg>