<?xml version="1.0" encoding="utf-8" ?>
<svg baseProfile="tiny" height="369" version="1.2" viewBox="-3 -3 1083 369" width="1083" xmlns="http://www.w3.org/2000/svg" xmlns:ev="http://www.w3.org/2001/xml-events" xmlns:xlink="http://www.w3.org/1999/xlink"><defs /><path d="M301 36 L263 37 L219 41 L177 54 L137 76 L121 93 L101 123 L97 150 L97 185 L101 229 L112 273 L125 301 L146 331 L190 349 L272 357 L407 353 L654 303 L933 199 L1007 151 L1011 145 L1011 143 L1009 142 L1007 136 L1003 130 L992 121 L964 105 L933 95 L902 88 L846 83 L795 83 L763 83 L713 85 L663 85 L638 83 L603 83 L573 81 L553 83 L525 85 L515 83 L513 83 L512 80 L513 76 L521 69 L562 39 L661 7 L735 0 L818 7 L901 23 L968 39 L1022 53 L1049 69 L1064 90 L1079 135 L1083 170 L1077 202 L1049 274 L999 317 L943 344 L881 357 L791 367 L739 361 L659 338 L610 330 L543 315 L477 298 L417 285 L375 263 L341 239 L329 223 L329 212 L343 187 L428 131 L516 103 L601 95 L707 115 L799 156 L862 191 L913 221 L955 237 L979 232 L1001 217 L1021 172 L1008 127 L963 101 L872 81 L757 94 L637 121 L520 145 L395 179 L313 199 L215 221 L105 240 L63 234 L27 222 L7 212 L2 206 L0 181 L7 163 L83 133 L181 127 L277 143 L337 169 L397 226 L434 271 L501 319 L551 340 L632 363 L684 369 L741 352 L781 333 L792 324 L794 275 L761 164 L710 117 L619 98 L491 99 L395 111 L289 117 L215 145 L174 186 L121 245 L97 265 L92 269 " fill="none" stroke="black" /></svg>