<?xml version="1.0" encoding="utf-8" ?>
<svg baseProfile="tiny" height="357" version="1.2" viewBox="-3 -3 763 357" width="763" xmlns="http://www.w3.org/2000/svg" xmlns:ev="http://www.w3.org/2001/xml-events" xmlns:xlink="http://www.w3.org/1999/xlink"><defs /><path d="M47 55 L30 67 L19 81 L11 93 L5 116 L0 158 L2 190 L7 204 L20 229 L33 254 L41 264 L51 274 L65 283 L97 293 L158 300 L203 299 L252 293 L303 285 L347 271 L380 255 L393 243 L399 235 L403 227 L435 163 L446 125 L447 117 L447 109 L447 96 L445 89 L443 78 L441 71 L437 65 L434 59 L431 55 L430 52 L428 50 L426 47 L424 45 L422 42 L419 40 L418 39 L416 39 L414 37 L413 37 L411 35 L409 35 L408 35 L406 35 L405 35 L403 35 L402 35 L401 35 L400 35 L400 34 L400 33 L400 32 L402 28 L405 24 L410 19 L416 14 L430 9 L445 3 L457 1 L475 0 L491 3 L513 10 L543 29 L564 50 L572 59 L583 73 L600 101 L605 112 L613 129 L618 146 L618 151 L618 157 L615 171 L611 191 L602 211 L595 224 L580 239 L569 250 L560 257 L553 261 L543 265 L535 269 L528 270 L520 270 L509 266 L503 261 L494 255 L486 249 L481 245 L477 241 L475 238 L474 235 L473 232 L473 230 L473 223 L475 217 L477 212 L481 203 L483 198 L485 196 L487 194 L489 193 L491 192 L493 191 L494 190 L495 190 L496 189 L493 189 L489 189 L485 189 L480 189 L475 190 L469 191 L463 194 L459 196 L455 199 L450 205 L443 218 L437 231 L434 246 L435 262 L439 285 L446 306 L453 317 L471 337 L497 353 L539 357 L598 351 L635 340 L666 327 L691 312 L726 283 L733 273 L740 265 L754 241 L757 233 L763 182 L763 144 L759 123 L756 105 L753 99 L751 95 L744 85 L740 79 L739 77 L737 75 " fill="none" stroke="black" /></svg>