<?xml version="1.0" encoding="utf-8" ?>
<svg baseProfile="tiny" height="211" version="1.2" viewBox="-3 -3 626 211" width="626" xmlns="http://www.w3.org/2000/svg" xmlns:ev="http://www.w3.org/2001/xml-events" xmlns:xlink="http://www.w3.org/1999/xlink"><defs /><path d="M0 135 L24 115 L57 104 L84 122 L92 184 L90 208 L90 210 L90 211 L146 139 L190 80 L193 76 L192 83 L190 92 L190 112 L200 132 L204 135 L207 136 L208 136 L211 138 L217 148 L248 150 L322 102 L322 104 L317 112 L312 120 L313 121 L315 120 L315 121 L313 123 L317 122 L319 123 L310 145 L391 116 L462 76 L457 84 L434 107 L436 106 L600 0 L602 2 L596 8 L588 13 L586 14 L626 10 L614 35 L592 53 L593 52 L600 49 L512 193 L502 202 L526 184 L546 180 L545 182 L543 186 L545 186 L613 158 L618 156 L611 161 L609 162 " fill="none" stroke="black" /></svg>