<?xml version="1.0" encoding="utf-8" ?>
<svg baseProfile="tiny" height="153" version="1.2" viewBox="-3 -3 156 153" width="156" xmlns="http://www.w3.org/2000/svg" xmlns:ev="http://www.w3.org/2001/xml-events" xmlns:xlink="http://www.w3.org/1999/xlink"><defs /><path d="M0 98 L0 101 L0 103 L0 104 L0 106 L0 107 L0 108 L0 110 L0 111 L0 113 L0 114 " fill="none" stroke="black" /><path d="M0 98 L0 101 L0 103 L0 104 L0 106 L0 107 L0 108 L0 110 L0 111 L0 113 L0 114 M21 0 L21 10 L21 36 L21 61 L23 73 L23 91 L21 114 L21 126 L21 133 L22 142 L23 148 L23 150 L24 150 " fill="none" stroke="black" /><path d="M0 98 L0 101 L0 103 L0 104 L0 106 L0 107 L0 108 L0 110 L0 111 L0 113 L0 114 M21 0 L21 10 L21 36 L21 61 L23 73 L23 91 L21 114 L21 126 L21 133 L22 142 L23 148 L23 150 L24 150 M40 15 L41 23 L42 35 L45 51 L46 65 L46 75 L46 91 L46 104 L46 114 L46 123 L46 126 L46 128 L46 130 L46 131 L46 130 L46 128 L46 127 " fill="none" stroke="black" /><path d="M0 98 L0 101 L0 103 L0 104 L0 106 L0 107 L0 108 L0 110 L0 111 L0 113 L0 114 M21 0 L21 10 L21 36 L21 61 L23 73 L23 91 L21 114 L21 126 L21 133 L22 142 L23 148 L23 150 L24 150 M40 15 L41 23 L42 35 L45 51 L46 65 L46 75 L46 91 L46 104 L46 114 L46 123 L46 126 L46 128 L46 130 L46 131 L46 130 L46 128 L46 127 M69 21 L69 24 L67 34 L66 48 L66 60 L65 70 L65 80 L65 90 L65 94 L65 99 L65 102 L65 106 L66 109 L67 112 L67 115 L67 119 L67 122 L67 126 L67 129 L67 133 L67 135 L67 138 L66 139 " fill="none" stroke="black" /><path d="M0 98 L0 101 L0 103 L0 104 L0 106 L0 107 L0 108 L0 110 L0 111 L0 113 L0 114 M21 0 L21 10 L21 36 L21 61 L23 73 L23 91 L21 114 L21 126 L21 133 L22 142 L23 148 L23 150 L24 150 M40 15 L41 23 L42 35 L45 51 L46 65 L46 75 L46 91 L46 104 L46 114 L46 123 L46 126 L46 128 L46 130 L46 131 L46 130 L46 128 L46 127 M69 21 L69 24 L67 34 L66 48 L66 60 L65 70 L65 80 L65 90 L65 94 L65 99 L65 102 L65 106 L66 109 L67 112 L67 115 L67 119 L67 122 L67 126 L67 129 L67 133 L67 135 L67 138 L66 139 M95 30 L95 31 L95 36 L95 43 L95 51 L96 62 L96 71 L96 84 L96 96 L95 105 L94 114 L93 123 L92 128 L92 132 L92 134 L92 136 L92 138 L92 140 L91 140 " fill="none" stroke="black" /><path d="M0 98 L0 101 L0 103 L0 104 L0 106 L0 107 L0 108 L0 110 L0 111 L0 113 L0 114 M21 0 L21 10 L21 36 L21 61 L23 73 L23 91 L21 114 L21 126 L21 133 L22 142 L23 148 L23 150 L24 150 M40 15 L41 23 L42 35 L45 51 L46 65 L46 75 L46 91 L46 104 L46 114 L46 123 L46 126 L46 128 L46 130 L46 131 L46 130 L46 128 L46 127 M69 21 L69 24 L67 34 L66 48 L66 60 L65 70 L65 80 L65 90 L65 94 L65 99 L65 102 L65 106 L66 109 L67 112 L67 115 L67 119 L67 122 L67 126 L67 129 L67 133 L67 135 L67 138 L66 139 M95 30 L95 31 L95 36 L95 43 L95 51 L96 62 L96 71 L96 84 L96 96 L95 105 L94 114 L93 123 L92 128 L92 132 L92 134 L92 136 L92 138 L92 140 L91 140 M127 35 L127 59 L127 99 L127 115 L127 118 L127 119 L126 120 L125 121 L125 122 L125 124 L124 124 L123 125 L123 127 L123 129 L122 133 L122 137 L122 140 L122 144 L122 146 L122 148 L122 150 L120 152 L119 153 L119 150 " fill="none" stroke="black" /><path d="M0 98 L0 101 L0 103 L0 104 L0 106 L0 107 L0 108 L0 110 L0 111 L0 113 L0 114 M21 0 L21 10 L21 36 L21 61 L23 73 L23 91 L21 114 L21 126 L21 133 L22 142 L23 148 L23 150 L24 150 M40 15 L41 23 L42 35 L45 51 L46 65 L46 75 L46 91 L46 104 L46 114 L46 123 L46 126 L46 128 L46 130 L46 131 L46 130 L46 128 L46 127 M69 21 L69 24 L67 34 L66 48 L66 60 L65 70 L65 80 L65 90 L65 94 L65 99 L65 102 L65 106 L66 109 L67 112 L67 115 L67 119 L67 122 L67 126 L67 129 L67 133 L67 135 L67 138 L66 139 M95 30 L95 31 L95 36 L95 43 L95 51 L96 62 L96 71 L96 84 L96 96 L95 105 L94 114 L93 123 L92 128 L92 132 L92 134 L92 136 L92 138 L92 140 L91 140 M127 35 L127 59 L127 99 L127 115 L127 118 L127 119 L126 120 L125 121 L125 122 L125 124 L124 124 L123 125 L123 127 L123 129 L122 133 L122 137 L122 140 L122 144 L122 146 L122 148 L122 150 L120 152 L119 153 L119 150 M156 41 L156 42 L156 45 L154 49 L153 52 L153 54 L152 57 L151 60 L151 63 L149 65 L148 68 L147 73 L145 77 L144 81 L142 85 L141 91 L140 95 L140 100 L140 104 L140 110 L140 116 L140 119 L141 124 L142 128 L143 131 L143 133 L143 136 L144 138 L144 139 L145 141 L145 142 L145 144 L146 145 L147 146 L147 147 L147 148 L147 149 L148 149 L149 149 L149 148 L149 146 L149 143 " fill="none" stroke="black" /></svg>