<?xml version="1.0" encoding="utf-8" ?>
<svg baseProfile="tiny" height="16" version="1.2" viewBox="-3 -3 225 16" width="225" xmlns="http://www.w3.org/2000/svg" xmlns:ev="http://www.w3.org/2001/xml-events" xmlns:xlink="http://www.w3.org/1999/xlink"><defs /><path d="M0 5 L2 5 L5 5 L7 5 L10 4 L14 4 L16 3 L19 3 L22 3 L25 3 L27 3 L30 3 L33 3 L35 3 L37 3 L38 4 L40 6 L41 7 L42 9 L43 11 L44 12 L45 13 L45 14 L46 14 L47 14 L49 13 L50 13 L52 13 L53 13 L54 13 L56 13 L58 13 L60 13 L63 13 L65 13 L67 13 L69 14 L70 15 L71 15 L73 15 L74 16 L75 16 L75 14 L75 13 L75 12 L75 11 L75 10 L75 9 L75 8 L76 7 L76 6 L77 5 L77 4 L79 2 L79 1 L81 0 L82 0 L83 0 L86 0 L87 0 L89 0 L92 0 L94 0 L96 0 L98 0 L100 0 L102 0 L105 0 L107 0 L110 0 L112 0 L114 0 L116 0 L118 0 L119 0 L121 0 L123 0 L126 0 L127 0 L128 1 L129 1 L130 1 L131 1 L132 1 L133 1 L134 1 L135 1 L136 1 L137 1 L138 1 L139 1 L140 1 L142 1 L143 1 L143 2 L144 2 L145 2 L148 2 L150 2 L151 2 L154 2 L155 2 L157 2 L159 2 L161 2 L163 2 L164 2 L165 2 L166 2 L168 2 L169 2 L171 2 L172 2 L175 2 L176 2 L178 2 L180 3 L183 3 L184 3 L185 3 L187 3 L188 3 L189 3 L191 3 L193 3 L195 3 L196 3 L197 3 L198 3 L200 3 L201 3 L203 3 L204 3 L206 3 L208 3 L210 3 L212 3 L214 3 L216 3 L217 3 L218 3 L219 3 L220 3 L221 3 L222 3 L223 3 L224 3 L225 3 L224 3 L223 3 " fill="none" stroke="black" /></svg>