<?xml version="1.0" encoding="utf-8" ?>
<svg baseProfile="tiny" height="59" version="1.2" viewBox="-3 -3 237 59" width="237" xmlns="http://www.w3.org/2000/svg" xmlns:ev="http://www.w3.org/2001/xml-events" xmlns:xlink="http://www.w3.org/1999/xlink"><defs /><path d="M0 49 L1 47 L2 45 L4 40 L8 32 L10 25 L13 19 L15 14 L15 12 L15 11 L16 10 L16 9 L16 8 L16 7 L17 5 L18 4 L19 2 L19 0 L19 1 L19 3 L19 5 L19 6 L19 8 L19 10 L19 11 L19 14 L19 15 L19 16 L19 18 L19 20 L19 21 L19 24 L20 26 L21 28 L22 30 L23 33 L24 35 L25 37 L26 39 L27 41 L28 43 L28 44 L30 47 L31 48 L33 49 L35 50 L38 51 L40 52 L43 53 L46 54 L49 55 L52 56 L56 57 L59 59 L62 59 L65 59 L67 59 L69 59 L72 59 L74 59 L76 59 L78 59 L80 59 L82 59 L83 59 L84 59 L85 59 L86 59 L87 59 L88 59 L90 59 L91 59 L92 59 L94 59 L95 58 L98 57 L99 57 L100 57 L101 57 L103 57 L105 57 L109 57 L113 56 L115 56 L118 56 L122 56 L124 56 L128 55 L131 55 L132 55 L134 55 L136 55 L139 55 L140 55 L141 55 L143 55 L144 55 L145 55 L146 55 L147 54 L148 54 L150 53 L153 53 L156 53 L159 52 L162 52 L165 52 L167 52 L172 52 L173 52 L176 52 L178 52 L180 52 L182 52 L184 52 L185 52 L186 52 L188 52 L190 52 L191 52 L193 52 L194 52 L196 52 L197 52 L198 52 L200 52 L201 52 L203 52 L204 52 L205 52 L206 52 L207 52 L209 52 L211 52 L213 52 L215 52 L216 52 L217 52 L218 52 L220 52 L222 51 L223 51 L225 51 L227 51 L229 51 L230 51 L231 51 L233 51 L235 51 L237 51 " fill="none" stroke="black" /></svg>