<?xml version="1.0" encoding="utf-8" ?>
<svg baseProfile="tiny" height="51" version="1.2" viewBox="-3 -3 132 51" width="132" xmlns="http://www.w3.org/2000/svg" xmlns:ev="http://www.w3.org/2001/xml-events" xmlns:xlink="http://www.w3.org/1999/xlink"><defs /><path d="M0 41 L0 38 L3 36 L4 35 L4 33 L5 32 L6 31 L6 30 L7 29 L8 27 L10 23 L13 15 L17 8 L19 4 L19 3 L19 2 L19 3 L19 5 L20 9 L22 13 L23 16 L23 20 L23 24 L25 31 L28 38 L31 43 L32 46 L33 48 L34 50 L34 51 " fill="none" stroke="black" /><circle cx="47" cy="48" fill="black" r="1" /><circle cx="69" cy="48" fill="black" r="1" /><circle cx="88" cy="50" fill="black" r="1" /><circle cx="103" cy="50" fill="black" r="1" /><circle cx="115" cy="51" fill="black" r="1" /><circle cx="132" cy="49" fill="black" r="1" /><path d="M0 41 L0 38 L3 36 L4 35 L4 33 L5 32 L6 31 L6 30 L7 29 L8 27 L10 23 L13 15 L17 8 L19 4 L19 3 L19 2 L19 3 L19 5 L20 9 L22 13 L23 16 L23 20 L23 24 L25 31 L28 38 L31 43 L32 46 L33 48 L34 50 L34 51 M110 29 L109 29 L107 29 L104 29 L101 29 L100 29 L98 29 L97 29 " fill="none" stroke="black" /><circle cx="97" cy="29" fill="black" r="1" /><circle cx="80" cy="27" fill="black" r="1" /><circle cx="67" cy="27" fill="black" r="1" /><circle cx="51" cy="27" fill="black" r="1" /><circle cx="42" cy="30" fill="black" r="1" /><circle cx="29" cy="0" fill="black" r="1" /><circle cx="36" cy="2" fill="black" r="1" /><circle cx="48" cy="14" fill="black" r="1" /><circle cx="48" cy="14" fill="black" r="1" /></svg>