<?xml version="1.0" encoding="utf-8" ?>
<svg baseProfile="tiny" height="327" version="1.2" viewBox="-3 -3 218 327" width="218" xmlns="http://www.w3.org/2000/svg" xmlns:ev="http://www.w3.org/2001/xml-events" xmlns:xlink="http://www.w3.org/1999/xlink"><defs /><path d="M24 294 L26 294 L29 294 L31 294 L36 294 L39 294 L41 297 L44 299 L44 301 L45 302 L45 305 L45 308 L43 312 L42 315 L41 318 L38 321 L34 323 L31 324 L27 325 L25 327 L22 327 L18 326 L14 326 L11 323 L10 321 L6 313 L2 303 L0 297 L0 291 L0 288 L2 287 L4 284 L7 283 L10 282 L13 282 L14 281 L17 280 L19 279 L21 279 L23 279 L24 279 L27 279 L30 279 L33 279 L35 279 L37 279 L39 279 L41 279 L42 279 L43 279 L43 277 L42 267 L34 244 L32 241 L31 240 L35 244 L46 251 L55 256 L71 266 L88 278 L94 279 L95 279 L95 277 L95 275 L95 273 L87 266 L81 258 L76 252 L73 248 L72 246 L72 245 L72 243 L73 243 L84 245 L96 249 L109 251 L142 260 L149 262 L150 262 L150 260 L145 253 L138 247 L130 237 L120 227 L116 222 L111 217 L109 215 L112 214 L123 218 L133 221 L139 222 L142 222 L146 222 L149 222 L150 221 L149 216 L143 205 L136 183 L126 154 L124 144 L124 137 L130 136 L151 152 L164 155 L169 156 L170 156 L165 156 L156 143 L147 124 L143 112 L142 104 L148 101 L165 105 L180 107 L192 111 L202 115 L206 116 L207 116 L206 116 L203 113 L196 105 L188 87 L185 75 L184 67 L184 62 L184 57 L191 56 L199 57 L207 56 L212 56 L215 56 L218 56 L215 54 L207 42 L201 28 L198 18 L197 11 L197 6 L207 6 L215 5 L218 0 " fill="none" stroke="black" /></svg>