<?xml version="1.0" encoding="utf-8" ?>
<svg baseProfile="tiny" height="63" version="1.2" viewBox="-3 -3 150 63" width="150" xmlns="http://www.w3.org/2000/svg" xmlns:ev="http://www.w3.org/2001/xml-events" xmlns:xlink="http://www.w3.org/1999/xlink"><defs /><path d="M0 53 L1 52 L1 50 L2 43 L4 38 L6 32 L8 27 L12 19 L15 12 L18 5 L18 1 L19 0 L20 0 L20 2 L21 5 L22 11 L27 22 L29 27 L31 31 L33 36 L34 38 L36 41 L37 42 L37 43 L38 44 L38 45 L38 46 L39 46 L39 47 L40 47 L41 47 L42 47 L43 47 L44 47 L44 46 L45 45 L45 44 L45 43 L45 42 L46 41 L46 40 L46 39 L48 38 L49 38 L51 38 L53 38 L60 39 L63 41 L65 43 L66 46 L66 50 L66 52 L66 54 L65 55 L63 55 L62 55 L61 55 L59 54 L59 52 L59 50 L60 48 L62 46 L66 44 L69 43 L72 42 L76 41 L81 41 L85 41 L90 42 L93 44 L94 47 L94 49 L94 51 L94 52 L94 55 L93 56 L90 56 L87 56 L84 56 L81 55 L80 54 L79 53 L79 50 L79 49 L81 46 L83 46 L88 45 L91 43 L96 43 L100 43 L105 43 L109 44 L111 47 L113 50 L115 56 L115 59 L115 61 L115 62 L114 63 L112 63 L110 62 L108 61 L106 58 L104 56 L103 54 L103 52 L103 50 L103 49 L105 47 L108 46 L111 45 L115 44 L119 44 L125 44 L131 44 L133 44 L135 45 L137 46 L138 47 L140 48 L141 49 L142 50 L144 51 L146 53 L146 56 L147 57 L147 58 L143 58 L140 58 L138 56 L136 54 L133 52 L131 51 L128 50 L127 48 L124 47 L124 46 L124 44 L126 44 L128 44 L130 44 L134 43 L136 43 L139 43 L141 43 L143 43 L145 43 L147 43 L149 43 L150 43 " fill="none" stroke="black" /></svg>