<?xml version="1.0" encoding="utf-8" ?>
<svg baseProfile="tiny" height="67" version="1.2" viewBox="-3 -3 148 67" width="148" xmlns="http://www.w3.org/2000/svg" xmlns:ev="http://www.w3.org/2001/xml-events" xmlns:xlink="http://www.w3.org/1999/xlink"><defs /><path d="M0 27 L1 26 L1 22 L1 20 L3 15 L6 4 L8 0 L9 1 L10 9 L11 17 L13 27 L16 44 L18 57 L19 62 L19 63 L18 58 L13 43 L10 29 L7 20 L5 13 L3 6 L2 3 L2 4 L8 16 L18 33 L23 44 L29 54 L37 63 L41 67 L42 67 L44 58 L48 51 L50 44 L48 27 L45 15 L45 14 L44 14 L44 15 L44 24 L44 33 L45 42 L45 49 L45 55 L45 56 L44 56 L37 47 L29 30 L25 26 L24 26 L28 33 L35 43 L43 59 L46 66 L48 66 L52 60 L55 48 L55 36 L53 21 L54 18 L56 23 L60 33 L62 47 L64 55 L66 59 L67 61 L67 59 L68 52 L70 43 L72 30 L76 20 L77 19 L79 19 L79 22 L80 34 L82 43 L84 50 L86 53 L87 53 L89 46 L90 33 L92 27 L92 25 L94 26 L96 35 L97 47 L99 56 L99 58 L101 58 L104 52 L103 35 L102 24 L102 18 L103 17 L106 23 L107 32 L109 41 L113 52 L117 59 L122 62 L126 60 L131 51 L136 36 L136 31 L135 31 L135 35 L135 42 L135 50 L135 55 L133 57 L132 57 L131 49 L132 30 L132 16 L130 16 L130 20 L128 27 L127 31 L126 32 L123 32 L121 29 L120 26 L119 24 L118 23 L118 25 L117 34 L116 35 L115 36 L115 27 L122 11 L124 5 L126 3 L128 3 L135 12 L138 20 L139 22 L140 25 L142 25 L145 22 L146 16 L145 14 L145 13 L146 15 L147 20 L147 23 L147 25 L147 24 L147 23 L148 20 L148 19 " fill="none" stroke="black" /></svg>