<?xml version="1.0" encoding="utf-8" ?>
<svg baseProfile="tiny" height="58" version="1.2" viewBox="-3 -3 49 58" width="49" xmlns="http://www.w3.org/2000/svg" xmlns:ev="http://www.w3.org/2001/xml-events" xmlns:xlink="http://www.w3.org/1999/xlink"><defs /><path d="M15 0 L16 0 L19 0 L22 1 L24 2 L27 4 L30 6 L32 8 L35 12 L39 17 L42 22 L45 28 L47 33 L49 37 L49 42 L49 48 L47 52 L44 56 L41 57 L37 58 L33 58 L23 56 L16 54 L11 53 L9 52 L8 50 L7 49 L4 48 L3 45 L1 42 L0 39 L0 36 L0 32 L0 29 L0 27 L0 25 L0 24 L0 23 L2 21 L2 20 L2 19 L3 17 L3 16 L4 16 L6 14 L6 12 L7 11 L8 10 L9 8 L10 7 L11 6 L12 5 L13 4 L14 3 L15 2 L16 2 " fill="none" stroke="black" /><path d="M15 0 L16 0 L19 0 L22 1 L24 2 L27 4 L30 6 L32 8 L35 12 L39 17 L42 22 L45 28 L47 33 L49 37 L49 42 L49 48 L47 52 L44 56 L41 57 L37 58 L33 58 L23 56 L16 54 L11 53 L9 52 L8 50 L7 49 L4 48 L3 45 L1 42 L0 39 L0 36 L0 32 L0 29 L0 27 L0 25 L0 24 L0 23 L2 21 L2 20 L2 19 L3 17 L3 16 L4 16 L6 14 L6 12 L7 11 L8 10 L9 8 L10 7 L11 6 L12 5 L13 4 L14 3 L15 2 L16 2 M21 13 L22 15 L23 18 L24 19 L25 19 L26 20 L27 23 L28 24 L29 26 L30 28 L31 30 L31 32 L31 34 L31 36 L31 38 L30 40 L30 42 L29 42 L28 42 L26 42 L25 42 L24 42 L22 42 L21 41 L20 40 L18 40 L17 39 L16 37 L14 36 L13 35 L12 34 L12 33 L12 32 L12 31 L12 29 L12 27 L12 26 L12 24 L12 22 L12 20 L12 19 L13 18 L13 17 L14 16 L15 15 L16 14 L19 14 " fill="none" stroke="black" /><circle cx="22" cy="30" fill="black" r="1" /></svg>