<?xml version="1.0" encoding="utf-8" ?>
<svg baseProfile="tiny" height="121" version="1.2" viewBox="-3 -3 143 121" width="143" xmlns="http://www.w3.org/2000/svg" xmlns:ev="http://www.w3.org/2001/xml-events" xmlns:xlink="http://www.w3.org/1999/xlink"><defs /><path d="M98 0 L113 6 L130 14 L134 18 L138 24 L140 37 L143 68 L143 84 L143 93 L139 103 L131 110 L120 117 L104 121 L78 120 L56 111 L36 100 L20 90 L15 84 L13 80 L12 74 L13 68 L15 63 L19 58 L25 52 L30 49 L37 45 L41 43 L44 41 L48 40 L52 39 L58 38 L63 38 L67 38 L78 40 L84 44 L88 46 L90 49 L91 50 L93 53 L94 56 L95 61 L96 65 L96 70 L96 74 L96 77 L96 80 L94 83 L91 86 L89 87 L86 87 L81 87 L73 87 L64 87 L59 87 L55 85 L55 83 L53 82 L52 79 L52 77 L52 75 L52 72 L52 68 L53 68 " fill="none" stroke="black" /><path d="M98 0 L113 6 L130 14 L134 18 L138 24 L140 37 L143 68 L143 84 L143 93 L139 103 L131 110 L120 117 L104 121 L78 120 L56 111 L36 100 L20 90 L15 84 L13 80 L12 74 L13 68 L15 63 L19 58 L25 52 L30 49 L37 45 L41 43 L44 41 L48 40 L52 39 L58 38 L63 38 L67 38 L78 40 L84 44 L88 46 L90 49 L91 50 L93 53 L94 56 L95 61 L96 65 L96 70 L96 74 L96 77 L96 80 L94 83 L91 86 L89 87 L86 87 L81 87 L73 87 L64 87 L59 87 L55 85 L55 83 L53 82 L52 79 L52 77 L52 75 L52 72 L52 68 L53 68 M62 16 L65 16 L68 17 L71 18 L73 19 L77 20 L80 21 L82 22 L83 24 L84 25 " fill="none" stroke="black" /><circle cx="36" cy="23" fill="black" r="1" /><circle cx="120" cy="31" fill="black" r="1" /><path d="M98 0 L113 6 L130 14 L134 18 L138 24 L140 37 L143 68 L143 84 L143 93 L139 103 L131 110 L120 117 L104 121 L78 120 L56 111 L36 100 L20 90 L15 84 L13 80 L12 74 L13 68 L15 63 L19 58 L25 52 L30 49 L37 45 L41 43 L44 41 L48 40 L52 39 L58 38 L63 38 L67 38 L78 40 L84 44 L88 46 L90 49 L91 50 L93 53 L94 56 L95 61 L96 65 L96 70 L96 74 L96 77 L96 80 L94 83 L91 86 L89 87 L86 87 L81 87 L73 87 L64 87 L59 87 L55 85 L55 83 L53 82 L52 79 L52 77 L52 75 L52 72 L52 68 L53 68 M62 16 L65 16 L68 17 L71 18 L73 19 L77 20 L80 21 L82 22 L83 24 L84 25 M109 41 L109 43 L110 46 L111 48 L111 50 L111 51 L111 52 L111 53 L111 54 L112 54 L112 55 L111 53 L110 52 L109 50 L109 48 L109 47 " fill="none" stroke="black" /><circle cx="115" cy="64" fill="black" r="1" /><circle cx="114" cy="89" fill="black" r="1" /><circle cx="100" cy="95" fill="black" r="1" /><circle cx="90" cy="109" fill="black" r="1" /><circle cx="75" cy="104" fill="black" r="1" /><circle cx="50" cy="90" fill="black" r="1" /><circle cx="41" cy="72" fill="black" r="1" /><circle cx="38" cy="78" fill="black" r="1" /><circle cx="68" cy="72" fill="black" r="1" /><circle cx="75" cy="70" fill="black" r="1" /><circle cx="66" cy="55" fill="black" r="1" /><circle cx="46" cy="54" fill="black" r="1" /><circle cx="34" cy="61" fill="black" r="1" /><circle cx="28" cy="74" fill="black" r="1" /><path d="M98 0 L113 6 L130 14 L134 18 L138 24 L140 37 L143 68 L143 84 L143 93 L139 103 L131 110 L120 117 L104 121 L78 120 L56 111 L36 100 L20 90 L15 84 L13 80 L12 74 L13 68 L15 63 L19 58 L25 52 L30 49 L37 45 L41 43 L44 41 L48 40 L52 39 L58 38 L63 38 L67 38 L78 40 L84 44 L88 46 L90 49 L91 50 L93 53 L94 56 L95 61 L96 65 L96 70 L96 74 L96 77 L96 80 L94 83 L91 86 L89 87 L86 87 L81 87 L73 87 L64 87 L59 87 L55 85 L55 83 L53 82 L52 79 L52 77 L52 75 L52 72 L52 68 L53 68 M62 16 L65 16 L68 17 L71 18 L73 19 L77 20 L80 21 L82 22 L83 24 L84 25 M109 41 L109 43 L110 46 L111 48 L111 50 L111 51 L111 52 L111 53 L111 54 L112 54 L112 55 L111 53 L110 52 L109 50 L109 48 L109 47 M39 8 L38 8 L37 8 L36 8 L35 8 L34 8 L33 8 L32 8 L31 8 L31 9 L31 10 L31 13 L30 14 L28 17 L26 19 L25 21 L23 22 L22 23 L21 24 L20 24 L18 24 L17 24 L16 25 L16 26 L15 26 L14 27 L13 28 L12 29 L12 30 L10 32 L9 34 L8 35 L8 37 L6 38 L5 40 L4 42 L3 44 L3 45 L3 46 L3 48 L2 49 L1 50 L1 51 L1 52 L0 52 " fill="none" stroke="black" /></svg>