<?xml version="1.0" encoding="utf-8" ?>
<svg baseProfile="tiny" height="128" version="1.2" viewBox="-3 -3 142 128" width="142" xmlns="http://www.w3.org/2000/svg" xmlns:ev="http://www.w3.org/2001/xml-events" xmlns:xlink="http://www.w3.org/1999/xlink"><defs /><path d="M61 17 L58 15 L56 13 L53 11 L51 10 L49 9 L47 7 L47 6 L45 6 L42 5 L39 3 L36 2 L34 2 L32 1 L28 1 L27 0 L27 1 " fill="none" stroke="black" /><path d="M61 17 L58 15 L56 13 L53 11 L51 10 L49 9 L47 7 L47 6 L45 6 L42 5 L39 3 L36 2 L34 2 L32 1 L28 1 L27 0 L27 1 M36 22 L36 23 L41 27 L47 31 L51 32 L53 33 L56 34 L57 36 L59 37 L60 37 L62 37 L66 36 L74 33 L82 27 L89 23 L92 21 L95 18 L96 15 L100 13 L103 13 L107 12 L110 11 L113 10 L115 10 L114 10 " fill="none" stroke="black" /><path d="M61 17 L58 15 L56 13 L53 11 L51 10 L49 9 L47 7 L47 6 L45 6 L42 5 L39 3 L36 2 L34 2 L32 1 L28 1 L27 0 L27 1 M36 22 L36 23 L41 27 L47 31 L51 32 L53 33 L56 34 L57 36 L59 37 L60 37 L62 37 L66 36 L74 33 L82 27 L89 23 L92 21 L95 18 L96 15 L100 13 L103 13 L107 12 L110 11 L113 10 L115 10 L114 10 M28 40 L32 42 L35 45 L38 48 L41 49 L44 51 L48 53 L50 54 L51 55 L52 56 L53 56 L54 56 L56 56 L59 54 L65 51 L75 48 L84 45 L92 41 L98 38 L103 36 L106 35 L108 34 L112 33 L114 32 L116 32 L116 33 " fill="none" stroke="black" /><path d="M61 17 L58 15 L56 13 L53 11 L51 10 L49 9 L47 7 L47 6 L45 6 L42 5 L39 3 L36 2 L34 2 L32 1 L28 1 L27 0 L27 1 M36 22 L36 23 L41 27 L47 31 L51 32 L53 33 L56 34 L57 36 L59 37 L60 37 L62 37 L66 36 L74 33 L82 27 L89 23 L92 21 L95 18 L96 15 L100 13 L103 13 L107 12 L110 11 L113 10 L115 10 L114 10 M28 40 L32 42 L35 45 L38 48 L41 49 L44 51 L48 53 L50 54 L51 55 L52 56 L53 56 L54 56 L56 56 L59 54 L65 51 L75 48 L84 45 L92 41 L98 38 L103 36 L106 35 L108 34 L112 33 L114 32 L116 32 L116 33 M19 71 L21 71 L24 73 L28 75 L31 79 L35 81 L38 84 L40 85 L42 86 L43 87 L44 87 L45 87 L46 87 L47 86 L50 84 L55 80 L64 75 L78 68 L86 65 L98 62 L112 57 L121 53 L122 53 L124 51 L127 50 L130 49 L133 48 L137 45 L141 42 L142 40 L142 39 L141 39 " fill="none" stroke="black" /><path d="M61 17 L58 15 L56 13 L53 11 L51 10 L49 9 L47 7 L47 6 L45 6 L42 5 L39 3 L36 2 L34 2 L32 1 L28 1 L27 0 L27 1 M36 22 L36 23 L41 27 L47 31 L51 32 L53 33 L56 34 L57 36 L59 37 L60 37 L62 37 L66 36 L74 33 L82 27 L89 23 L92 21 L95 18 L96 15 L100 13 L103 13 L107 12 L110 11 L113 10 L115 10 L114 10 M28 40 L32 42 L35 45 L38 48 L41 49 L44 51 L48 53 L50 54 L51 55 L52 56 L53 56 L54 56 L56 56 L59 54 L65 51 L75 48 L84 45 L92 41 L98 38 L103 36 L106 35 L108 34 L112 33 L114 32 L116 32 L116 33 M19 71 L21 71 L24 73 L28 75 L31 79 L35 81 L38 84 L40 85 L42 86 L43 87 L44 87 L45 87 L46 87 L47 86 L50 84 L55 80 L64 75 L78 68 L86 65 L98 62 L112 57 L121 53 L122 53 L124 51 L127 50 L130 49 L133 48 L137 45 L141 42 L142 40 L142 39 L141 39 M12 89 L17 92 L24 97 L26 98 L29 101 L32 104 L36 107 L38 109 L40 109 L42 109 L43 109 L46 109 L48 108 L52 104 L58 101 L65 97 L73 95 L83 91 L95 85 L103 81 L112 77 L120 73 L127 71 L134 68 L136 67 L137 66 L136 66 L135 66 " fill="none" stroke="black" /><path d="M61 17 L58 15 L56 13 L53 11 L51 10 L49 9 L47 7 L47 6 L45 6 L42 5 L39 3 L36 2 L34 2 L32 1 L28 1 L27 0 L27 1 M36 22 L36 23 L41 27 L47 31 L51 32 L53 33 L56 34 L57 36 L59 37 L60 37 L62 37 L66 36 L74 33 L82 27 L89 23 L92 21 L95 18 L96 15 L100 13 L103 13 L107 12 L110 11 L113 10 L115 10 L114 10 M28 40 L32 42 L35 45 L38 48 L41 49 L44 51 L48 53 L50 54 L51 55 L52 56 L53 56 L54 56 L56 56 L59 54 L65 51 L75 48 L84 45 L92 41 L98 38 L103 36 L106 35 L108 34 L112 33 L114 32 L116 32 L116 33 M19 71 L21 71 L24 73 L28 75 L31 79 L35 81 L38 84 L40 85 L42 86 L43 87 L44 87 L45 87 L46 87 L47 86 L50 84 L55 80 L64 75 L78 68 L86 65 L98 62 L112 57 L121 53 L122 53 L124 51 L127 50 L130 49 L133 48 L137 45 L141 42 L142 40 L142 39 L141 39 M12 89 L17 92 L24 97 L26 98 L29 101 L32 104 L36 107 L38 109 L40 109 L42 109 L43 109 L46 109 L48 108 L52 104 L58 101 L65 97 L73 95 L83 91 L95 85 L103 81 L112 77 L120 73 L127 71 L134 68 L136 67 L137 66 L136 66 L135 66 M0 104 L2 106 L5 108 L8 109 L11 110 L14 111 L16 113 L19 115 L21 116 L23 118 L28 121 L32 125 L35 126 L37 128 L39 128 L40 128 L41 128 L42 128 L44 127 L44 126 L44 125 L43 123 " fill="none" stroke="black" /></svg>