<?xml version="1.0" encoding="utf-8" ?>
<svg baseProfile="tiny" height="315" version="1.2" viewBox="-3 -3 180 315" width="180" xmlns="http://www.w3.org/2000/svg" xmlns:ev="http://www.w3.org/2001/xml-events" xmlns:xlink="http://www.w3.org/1999/xlink"><defs /><path d="M39 272 L40 272 L43 272 L48 273 L49 274 L51 275 L54 278 L57 279 L58 282 L59 283 L59 286 L61 294 L61 303 L61 308 L61 311 L61 313 L58 313 L56 314 L46 315 L37 314 L28 313 L18 310 L10 308 L7 307 L5 306 L3 304 L2 301 L0 296 L0 293 L0 288 L1 282 L2 273 L4 267 L5 260 L8 251 L12 242 L15 236 L19 230 L25 223 L30 219 L33 216 L36 214 L41 210 L46 207 L50 205 L56 202 L61 200 L67 199 L74 199 L89 202 L96 204 L98 205 L101 207 L103 210 L108 216 L111 220 L113 226 L114 229 L114 231 L114 233 L114 236 L112 237 L110 239 L108 240 L106 241 L103 242 L100 242 L96 242 L92 241 L85 240 L80 236 L77 235 L73 231 L68 228 L65 225 L65 221 L64 217 L64 211 L63 205 L63 202 L63 199 L66 191 L68 185 L70 179 L73 173 L79 156 L82 143 L85 129 L88 119 L93 108 L98 99 L103 89 L107 84 L112 79 L120 75 L126 73 L131 70 L134 70 L141 70 L146 69 L153 67 L158 69 L160 71 L163 73 L166 75 L173 84 L177 92 L180 101 L180 108 L180 115 L177 118 L171 121 L168 121 L165 121 L160 119 L156 117 L154 117 L152 117 L149 116 L147 115 L145 114 L143 113 L140 110 L140 109 L139 106 L137 103 L137 99 L137 97 L137 93 L138 90 L139 87 L139 82 L141 79 L142 74 L143 62 L145 51 L146 39 L148 30 L149 22 L151 13 L154 6 L156 0 " fill="none" stroke="black" /></svg>