<?xml version="1.0" encoding="utf-8" ?>
<svg baseProfile="tiny" height="39" version="1.2" viewBox="-3 -3 154 39" width="154" xmlns="http://www.w3.org/2000/svg" xmlns:ev="http://www.w3.org/2001/xml-events" xmlns:xlink="http://www.w3.org/1999/xlink"><defs /><path d="M0 12 L2 12 L3 12 L4 12 L5 12 L6 12 L7 12 L8 12 L9 10 L9 9 L9 8 L10 6 L11 5 L13 3 L14 2 L17 1 L21 0 L24 0 L27 0 L30 1 L31 4 L32 5 L34 7 L34 8 L34 9 L34 11 L34 12 L35 15 L36 16 L37 17 L37 19 L38 20 L39 20 L40 20 L41 20 L42 20 L43 20 L44 20 L46 20 L47 20 L48 20 L49 20 L51 20 L52 19 L53 18 L54 17 L55 16 L56 15 L57 14 L58 13 L59 12 L61 11 L63 10 L64 9 L67 9 L69 9 L71 9 L73 9 L75 9 L77 11 L78 12 L79 13 L80 15 L80 16 L80 17 L80 18 L81 20 L81 21 L82 23 L83 24 L84 25 L84 26 L84 27 L85 27 L87 27 L89 27 L91 27 L92 27 L93 27 L94 27 L96 27 L97 27 L98 27 L99 27 L100 27 L100 26 L100 25 L101 24 L102 23 L103 22 L104 21 L105 20 L107 19 L109 19 L110 19 L111 19 L113 19 L114 19 L115 19 L117 19 L117 20 L117 21 L117 23 L117 24 L117 25 L117 27 L117 28 L118 29 L118 30 L118 31 L119 31 L120 31 L121 31 L122 31 L123 31 L125 32 L128 33 L130 33 L132 34 L133 35 L134 35 L134 34 L134 33 L135 31 L136 29 L137 29 L138 27 L138 26 L141 25 L142 24 L144 24 L146 24 L147 24 L149 24 L150 24 L151 24 L152 25 L153 27 L154 28 L154 29 L154 31 L154 32 L154 33 L154 34 L154 35 L154 36 L154 37 L154 38 L154 39 L154 38 " fill="none" stroke="black" /></svg>