<?xml version="1.0" encoding="utf-8" ?>
<svg baseProfile="tiny" height="55" version="1.2" viewBox="-3 -3 140 55" width="140" xmlns="http://www.w3.org/2000/svg" xmlns:ev="http://www.w3.org/2001/xml-events" xmlns:xlink="http://www.w3.org/1999/xlink"><defs /><path d="M0 25 L4 29 L6 32 L7 35 L9 36 L10 39 L11 41 L11 43 L12 43 L13 43 L14 43 L15 40 L16 35 L16 29 L18 23 L20 19 L21 15 L23 11 L26 6 L28 3 L29 1 L30 0 L31 0 L31 1 L33 3 L34 6 L35 9 L36 13 L37 17 L38 21 L40 26 L41 29 L42 32 L43 33 L44 35 L44 36 L44 37 L44 38 L45 39 L45 40 L45 41 L46 41 L47 41 L48 41 L49 41 L51 41 L52 41 L53 41 L54 41 L55 41 L56 41 L57 41 L57 40 L58 40 L59 38 L60 37 L61 36 L61 35 L62 34 L63 33 L64 32 L65 30 L66 28 L68 26 L71 24 L72 22 L74 20 L76 18 L78 16 L80 13 L82 13 L85 12 L88 12 L90 12 L91 12 L92 13 L93 14 L93 15 L93 16 L93 17 L93 19 L92 20 L92 21 L92 23 L92 26 L92 30 L92 33 L92 36 L92 38 L92 41 L93 44 L95 47 L96 49 L96 51 L98 52 L99 52 L101 52 L104 52 L105 52 L107 49 L110 47 L112 43 L113 40 L114 36 L115 32 L117 28 L117 25 L119 22 L120 19 L121 16 L123 15 L124 12 L126 12 L129 9 L131 8 L133 7 L135 7 L137 7 L138 7 L139 7 L140 7 L140 8 L140 9 L140 11 L140 12 L140 14 L138 15 L137 17 L137 19 L137 21 L137 24 L137 26 L137 27 L137 30 L137 32 L137 34 L137 36 L137 38 L137 40 L137 42 L137 44 L137 46 L137 48 L137 49 L137 51 L137 52 L137 53 L137 54 L138 55 L138 54 " fill="none" stroke="black" /></svg>