<?xml version="1.0" encoding="utf-8" ?>
<svg baseProfile="tiny" height="85" version="1.2" viewBox="-3 -3 159 85" width="159" xmlns="http://www.w3.org/2000/svg" xmlns:ev="http://www.w3.org/2001/xml-events" xmlns:xlink="http://www.w3.org/1999/xlink"><defs /><path d="M142 0 L146 1 L149 2 L150 3 L151 5 L151 7 L151 8 L151 11 L151 12 L150 15 L149 16 L148 17 L147 17 L146 17 L144 17 L142 17 L140 17 L138 17 L135 17 L130 15 L127 15 L122 15 L121 15 L118 15 L115 15 L112 14 L109 13 L106 12 L104 11 L103 10 L102 10 L101 9 L101 7 L102 6 L103 3 L105 3 L107 1 L108 1 L110 0 L111 0 L112 0 L114 0 L116 0 L119 0 L121 1 " fill="none" stroke="black" /><path d="M142 0 L146 1 L149 2 L150 3 L151 5 L151 7 L151 8 L151 11 L151 12 L150 15 L149 16 L148 17 L147 17 L146 17 L144 17 L142 17 L140 17 L138 17 L135 17 L130 15 L127 15 L122 15 L121 15 L118 15 L115 15 L112 14 L109 13 L106 12 L104 11 L103 10 L102 10 L101 9 L101 7 L102 6 L103 3 L105 3 L107 1 L108 1 L110 0 L111 0 L112 0 L114 0 L116 0 L119 0 L121 1 M109 25 L110 24 L113 23 L117 23 L122 23 L127 23 L133 22 L136 22 L140 22 L144 22 L146 22 L148 23 L150 24 L152 26 L154 29 L156 30 L158 32 L159 34 L159 37 L159 38 L159 39 L157 40 L156 40 L153 41 L149 41 L147 42 L141 44 L132 46 L127 47 L124 47 L120 47 L115 47 L111 47 L107 47 L102 47 L95 45 L90 43 L88 42 L86 40 L85 38 L84 36 L84 34 L84 32 L84 30 L85 29 L88 26 L91 26 L95 25 L99 25 L105 25 L119 25 L126 25 L129 25 " fill="none" stroke="black" /><path d="M142 0 L146 1 L149 2 L150 3 L151 5 L151 7 L151 8 L151 11 L151 12 L150 15 L149 16 L148 17 L147 17 L146 17 L144 17 L142 17 L140 17 L138 17 L135 17 L130 15 L127 15 L122 15 L121 15 L118 15 L115 15 L112 14 L109 13 L106 12 L104 11 L103 10 L102 10 L101 9 L101 7 L102 6 L103 3 L105 3 L107 1 L108 1 L110 0 L111 0 L112 0 L114 0 L116 0 L119 0 L121 1 M109 25 L110 24 L113 23 L117 23 L122 23 L127 23 L133 22 L136 22 L140 22 L144 22 L146 22 L148 23 L150 24 L152 26 L154 29 L156 30 L158 32 L159 34 L159 37 L159 38 L159 39 L157 40 L156 40 L153 41 L149 41 L147 42 L141 44 L132 46 L127 47 L124 47 L120 47 L115 47 L111 47 L107 47 L102 47 L95 45 L90 43 L88 42 L86 40 L85 38 L84 36 L84 34 L84 32 L84 30 L85 29 L88 26 L91 26 L95 25 L99 25 L105 25 L119 25 L126 25 L129 25 M107 57 L109 56 L114 55 L123 53 L132 53 L137 53 L143 53 L147 53 L148 54 L151 55 L152 56 L154 57 L155 59 L155 61 L155 63 L155 64 L155 66 L155 68 L153 69 L151 70 L148 71 L140 75 L132 78 L124 81 L114 83 L104 84 L94 85 L84 85 L72 85 L60 84 L47 82 L39 80 L29 78 L19 75 L12 71 L7 68 L4 64 L2 62 L0 60 L4 57 L17 54 L29 54 L42 54 L57 55 L84 59 L101 59 L121 62 L129 64 L131 65 L132 65 L133 66 " fill="none" stroke="black" /></svg>