<?xml version="1.0" encoding="utf-8" ?>
<svg baseProfile="tiny" height="34" version="1.2" viewBox="-3 -3 152 34" width="152" xmlns="http://www.w3.org/2000/svg" xmlns:ev="http://www.w3.org/2001/xml-events" xmlns:xlink="http://www.w3.org/1999/xlink"><defs /><path d="M43 12 L45 13 L46 16 L46 17 L46 20 L46 22 L46 24 L45 27 L42 29 L41 31 L38 33 L34 34 L28 34 L21 34 L14 34 L9 34 L6 33 L4 33 L1 31 L0 28 L0 25 L0 22 L3 18 L5 15 L7 12 L10 9 L13 5 L16 4 L18 2 L22 1 L26 1 L29 0 L33 1 L34 1 L38 3 L40 4 L42 5 L44 6 L47 8 L49 9 L52 13 L54 16 L57 19 L60 22 L62 25 L63 27 L64 28 L65 28 L66 29 L68 29 L69 29 L70 28 L72 27 L74 25 L77 22 L79 21 L80 20 L82 20 L83 20 L83 21 L83 24 L83 26 L83 28 L83 29 L84 29 L85 29 L86 28 L87 26 L88 25 L91 23 L93 22 L96 22 L97 22 L98 22 L98 24 L99 25 L100 27 L101 27 L103 26 L104 26 L104 25 L105 24 L106 24 L107 24 L107 25 L107 27 L107 28 L108 28 L109 26 L111 24 L112 23 L113 23 L115 23 L116 23 L117 24 L117 25 L118 26 L119 27 L121 27 L123 27 L124 26 L125 25 L126 25 L126 27 L127 28 L129 29 L131 29 L133 28 L136 27 L138 27 L140 27 L141 28 L142 29 L143 29 L144 29 L145 27 L146 25 L146 24 L146 25 L146 26 L147 26 L148 26 L149 26 L149 25 L151 24 L151 25 L152 25 " fill="none" stroke="black" /></svg>