<?xml version="1.0" encoding="utf-8" ?>
<svg baseProfile="tiny" height="78" version="1.2" viewBox="-3 -3 156 78" width="156" xmlns="http://www.w3.org/2000/svg" xmlns:ev="http://www.w3.org/2001/xml-events" xmlns:xlink="http://www.w3.org/1999/xlink"><defs /><path d="M0 52 L5 52 L12 51 L18 51 L29 51 L34 53 L38 54 L42 57 L45 60 L47 63 L48 66 L49 69 L49 72 L49 73 L48 76 L47 77 L43 78 L38 78 L37 77 L33 75 L30 73 L27 71 L25 68 L22 66 L20 63 L18 60 L18 57 L18 55 L19 53 L20 51 L22 49 L26 47 L31 43 L37 41 L44 39 L52 36 L57 36 L63 36 L67 36 L71 36 L78 37 L82 41 L86 44 L89 48 L92 53 L95 59 L96 64 L96 67 L95 68 L94 69 L90 69 L87 69 L79 68 L69 67 L64 65 L60 63 L57 60 L55 57 L54 55 L53 52 L53 48 L53 45 L53 43 L55 40 L57 37 L60 35 L64 33 L68 32 L71 31 L76 30 L82 30 L94 30 L102 30 L107 30 L113 31 L118 33 L123 35 L128 37 L131 39 L133 40 L134 42 L134 43 L134 45 L133 46 L131 46 L128 46 L125 46 L123 46 L120 46 L115 46 L110 45 L107 44 L102 41 L99 40 L97 38 L95 36 L93 34 L92 31 L92 29 L92 27 L93 24 L96 23 L98 21 L101 20 L106 19 L111 17 L120 15 L123 15 L126 15 L130 15 L135 15 L140 16 L144 17 L149 18 L151 21 L154 22 L154 24 L156 26 L156 27 L155 28 L152 29 L150 29 L147 29 L144 28 L141 27 L138 26 L134 25 L130 24 L126 23 L123 21 L121 19 L119 16 L118 14 L118 12 L118 11 L118 9 L119 8 L121 7 L123 5 L125 4 L128 3 L132 2 L135 1 L137 0 L139 0 L142 0 L143 0 L145 0 L146 0 L148 0 " fill="none" stroke="black" /></svg>