<?xml version="1.0" encoding="utf-8" ?>
<svg baseProfile="tiny" height="133" version="1.2" viewBox="-3 -3 25 133" width="25" xmlns="http://www.w3.org/2000/svg" xmlns:ev="http://www.w3.org/2001/xml-events" xmlns:xlink="http://www.w3.org/1999/xlink"><defs /><path d="M18 0 L17 0 L16 1 L16 2 L16 4 L16 5 L16 6 L18 8 L21 10 L23 11 L24 12 L25 13 L25 14 L24 14 L23 14 L22 13 L21 13 L20 13 L18 13 L16 13 L14 14 L12 16 L11 17 L8 20 L7 21 L6 22 L5 24 L5 25 L5 27 L5 28 L6 29 L8 30 L10 31 L12 33 L14 34 L16 35 L18 36 L19 37 L20 37 L21 38 L20 38 L19 38 L16 38 L13 38 L10 39 L8 41 L6 42 L6 43 L5 45 L5 46 L5 47 L5 48 L7 49 L7 50 L9 51 L12 52 L13 54 L15 55 L17 56 L17 57 L19 57 L19 58 L18 58 L16 57 L14 57 L11 58 L9 60 L6 62 L4 65 L3 66 L2 67 L2 68 L2 70 L2 71 L3 72 L5 74 L6 74 L8 75 L10 75 L13 76 L14 78 L16 79 L17 80 L14 80 L11 80 L8 82 L5 85 L3 86 L3 88 L3 89 L3 91 L5 92 L8 94 L10 94 L12 95 L15 97 L16 98 L18 98 L19 99 L20 99 L19 99 L18 99 L17 99 L15 99 L13 99 L11 99 L9 99 L6 100 L3 102 L2 102 L1 103 L1 104 L1 105 L1 106 L1 107 L0 107 L0 109 L0 110 L1 111 L3 112 L5 113 L7 114 L10 115 L13 116 L16 117 L19 118 L21 119 L22 119 L21 119 L19 119 L17 119 L15 119 L12 119 L11 120 L8 121 L7 122 L6 123 L6 125 L6 126 L6 127 L7 128 L9 128 L11 129 L13 130 L15 130 L17 131 L20 133 L21 133 L22 133 " fill="none" stroke="black" /></svg>