<?xml version="1.0" encoding="utf-8" ?>
<svg baseProfile="tiny" height="122" version="1.2" viewBox="-3 -3 103 122" width="103" xmlns="http://www.w3.org/2000/svg" xmlns:ev="http://www.w3.org/2001/xml-events" xmlns:xlink="http://www.w3.org/1999/xlink"><defs /><path d="M88 112 L85 112 L74 115 L65 119 L56 122 L53 122 L49 122 L44 119 L39 116 L34 111 L30 108 L27 103 L21 91 L18 83 L17 81 L17 80 L17 77 L17 76 L17 72 L17 70 L18 69 L19 66 L20 65 L21 62 L22 60 L24 58 L26 56 L28 54 L30 53 L33 52 L34 50 L37 49 L40 49 L44 47 L47 46 L51 46 L53 46 L56 46 L58 45 L63 45 L66 45 L71 45 L77 47 L84 51 L86 53 L89 56 L96 63 L102 71 L103 74 L103 76 L103 77 L101 78 L99 79 L97 79 L95 79 L89 81 L83 85 L79 86 L76 87 L72 88 L70 88 L68 88 L65 88 L63 88 L58 88 L56 88 L53 87 L50 86 L45 85 L40 82 L32 78 L25 76 L22 74 L19 71 L14 68 L9 64 L4 60 L2 58 L1 55 L0 53 L0 51 L0 48 L0 44 L1 40 L5 31 L9 24 L10 22 L12 21 L14 19 L17 19 L20 18 L23 17 L27 16 L35 16 L41 16 L47 16 L53 16 L60 16 L67 16 L72 16 L79 18 L85 19 L90 20 L93 21 L95 24 L97 25 L98 28 L98 30 L98 32 L97 33 L95 38 L94 39 L93 40 L91 41 L88 42 L85 43 L83 43 L78 43 L73 43 L70 43 L61 43 L53 43 L49 42 L46 41 L41 40 L38 39 L34 38 L31 37 L28 35 L23 31 L18 28 L17 26 L14 23 L12 21 L10 18 L8 17 L8 14 L8 13 L8 10 L8 8 L8 6 L8 4 L8 2 L8 1 L9 0 L10 0 L12 0 L13 0 L15 0 L16 0 " fill="none" stroke="black" /></svg>