<?xml version="1.0" encoding="utf-8" ?>
<svg baseProfile="tiny" height="119" version="1.2" viewBox="-3 -3 101 119" width="101" xmlns="http://www.w3.org/2000/svg" xmlns:ev="http://www.w3.org/2001/xml-events" xmlns:xlink="http://www.w3.org/1999/xlink"><defs /><path d="M26 65 L27 66 L27 67 L27 69 L27 70 L26 71 L24 71 L23 73 L19 79 L16 83 L14 86 L13 88 L11 91 L10 94 L7 97 L5 102 L3 105 L3 108 L2 110 L1 111 L1 112 L0 112 " fill="none" stroke="black" /><path d="M26 65 L27 66 L27 67 L27 69 L27 70 L26 71 L24 71 L23 73 L19 79 L16 83 L14 86 L13 88 L11 91 L10 94 L7 97 L5 102 L3 105 L3 108 L2 110 L1 111 L1 112 L0 112 M33 16 L33 19 L35 24 L39 33 L42 38 L44 40 L45 41 L46 42 L46 43 L46 44 L46 46 L47 47 L47 50 L47 51 L47 54 L47 56 L47 58 L47 61 L46 63 L45 66 L42 73 L38 78 L35 87 L31 95 L27 100 L26 102 L23 105 L23 107 L22 109 L20 110 L20 111 " fill="none" stroke="black" /><path d="M26 65 L27 66 L27 67 L27 69 L27 70 L26 71 L24 71 L23 73 L19 79 L16 83 L14 86 L13 88 L11 91 L10 94 L7 97 L5 102 L3 105 L3 108 L2 110 L1 111 L1 112 L0 112 M33 16 L33 19 L35 24 L39 33 L42 38 L44 40 L45 41 L46 42 L46 43 L46 44 L46 46 L47 47 L47 50 L47 51 L47 54 L47 56 L47 58 L47 61 L46 63 L45 66 L42 73 L38 78 L35 87 L31 95 L27 100 L26 102 L23 105 L23 107 L22 109 L20 110 L20 111 M58 13 L58 14 L59 15 L60 18 L62 20 L63 23 L63 25 L65 28 L67 35 L68 37 L69 40 L70 42 L71 44 L71 46 L71 49 L71 52 L71 55 L71 60 L70 65 L67 69 L65 76 L59 84 L56 93 L51 101 L47 108 L43 113 L41 116 L40 117 L39 118 L39 119 " fill="none" stroke="black" /><path d="M26 65 L27 66 L27 67 L27 69 L27 70 L26 71 L24 71 L23 73 L19 79 L16 83 L14 86 L13 88 L11 91 L10 94 L7 97 L5 102 L3 105 L3 108 L2 110 L1 111 L1 112 L0 112 M33 16 L33 19 L35 24 L39 33 L42 38 L44 40 L45 41 L46 42 L46 43 L46 44 L46 46 L47 47 L47 50 L47 51 L47 54 L47 56 L47 58 L47 61 L46 63 L45 66 L42 73 L38 78 L35 87 L31 95 L27 100 L26 102 L23 105 L23 107 L22 109 L20 110 L20 111 M58 13 L58 14 L59 15 L60 18 L62 20 L63 23 L63 25 L65 28 L67 35 L68 37 L69 40 L70 42 L71 44 L71 46 L71 49 L71 52 L71 55 L71 60 L70 65 L67 69 L65 76 L59 84 L56 93 L51 101 L47 108 L43 113 L41 116 L40 117 L39 118 L39 119 M82 0 L82 2 L83 5 L86 10 L88 14 L89 19 L92 29 L94 35 L95 37 L96 38 L96 39 L96 41 L96 43 L96 46 L95 55 L93 60 L93 64 L92 70 L90 74 L89 77 L89 78 L87 80 L86 86 L82 94 L78 101 L75 107 L73 111 L72 114 L70 116 L69 118 " fill="none" stroke="black" /><path d="M26 65 L27 66 L27 67 L27 69 L27 70 L26 71 L24 71 L23 73 L19 79 L16 83 L14 86 L13 88 L11 91 L10 94 L7 97 L5 102 L3 105 L3 108 L2 110 L1 111 L1 112 L0 112 M33 16 L33 19 L35 24 L39 33 L42 38 L44 40 L45 41 L46 42 L46 43 L46 44 L46 46 L47 47 L47 50 L47 51 L47 54 L47 56 L47 58 L47 61 L46 63 L45 66 L42 73 L38 78 L35 87 L31 95 L27 100 L26 102 L23 105 L23 107 L22 109 L20 110 L20 111 M58 13 L58 14 L59 15 L60 18 L62 20 L63 23 L63 25 L65 28 L67 35 L68 37 L69 40 L70 42 L71 44 L71 46 L71 49 L71 52 L71 55 L71 60 L70 65 L67 69 L65 76 L59 84 L56 93 L51 101 L47 108 L43 113 L41 116 L40 117 L39 118 L39 119 M82 0 L82 2 L83 5 L86 10 L88 14 L89 19 L92 29 L94 35 L95 37 L96 38 L96 39 L96 41 L96 43 L96 46 L95 55 L93 60 L93 64 L92 70 L90 74 L89 77 L89 78 L87 80 L86 86 L82 94 L78 101 L75 107 L73 111 L72 114 L70 116 L69 118 M98 16 L98 18 L99 26 L100 39 L101 43 L101 45 L101 47 L101 49 L101 50 L101 51 L101 52 L101 54 L101 55 L101 56 L101 58 L100 58 " fill="none" stroke="black" /><path d="M26 65 L27 66 L27 67 L27 69 L27 70 L26 71 L24 71 L23 73 L19 79 L16 83 L14 86 L13 88 L11 91 L10 94 L7 97 L5 102 L3 105 L3 108 L2 110 L1 111 L1 112 L0 112 M33 16 L33 19 L35 24 L39 33 L42 38 L44 40 L45 41 L46 42 L46 43 L46 44 L46 46 L47 47 L47 50 L47 51 L47 54 L47 56 L47 58 L47 61 L46 63 L45 66 L42 73 L38 78 L35 87 L31 95 L27 100 L26 102 L23 105 L23 107 L22 109 L20 110 L20 111 M58 13 L58 14 L59 15 L60 18 L62 20 L63 23 L63 25 L65 28 L67 35 L68 37 L69 40 L70 42 L71 44 L71 46 L71 49 L71 52 L71 55 L71 60 L70 65 L67 69 L65 76 L59 84 L56 93 L51 101 L47 108 L43 113 L41 116 L40 117 L39 118 L39 119 M82 0 L82 2 L83 5 L86 10 L88 14 L89 19 L92 29 L94 35 L95 37 L96 38 L96 39 L96 41 L96 43 L96 46 L95 55 L93 60 L93 64 L92 70 L90 74 L89 77 L89 78 L87 80 L86 86 L82 94 L78 101 L75 107 L73 111 L72 114 L70 116 L69 118 M98 16 L98 18 L99 26 L100 39 L101 43 L101 45 L101 47 L101 49 L101 50 L101 51 L101 52 L101 54 L101 55 L101 56 L101 58 L100 58 M100 55 L100 63 L99 84 L98 95 L98 96 L98 97 L97 99 L97 100 L96 100 L95 100 L95 101 L94 103 L93 104 L91 105 L90 107 L89 108 L88 109 L86 111 L86 112 L85 112 L85 111 " fill="none" stroke="black" /></svg>