<?xml version="1.0" encoding="utf-8" ?>
<svg baseProfile="tiny" height="88" version="1.2" viewBox="-3 -3 112 88" width="112" xmlns="http://www.w3.org/2000/svg" xmlns:ev="http://www.w3.org/2001/xml-events" xmlns:xlink="http://www.w3.org/1999/xlink"><defs /><path d="M22 37 L24 37 L27 37 L30 37 L34 37 L36 37 L38 37 L40 36 L42 35 L44 34 L45 32 L48 29 L56 21 L63 12 L66 7 L68 4 L69 2 L69 1 L70 0 L70 1 L70 3 L70 6 L70 9 L69 12 L69 14 L69 17 L70 21 L72 24 L73 27 L76 29 L78 31 L81 33 L84 34 L88 35 L91 36 L96 36 L100 39 L105 40 L108 41 L110 41 L111 41 L112 41 L111 41 L110 41 L109 41 L108 41 L107 41 L106 41 L105 41 L103 41 L101 41 L100 41 L97 41 L94 41 L90 42 L86 46 L81 49 L78 52 L77 53 L75 56 L74 59 L71 62 L70 67 L68 72 L67 75 L67 78 L66 81 L66 84 L66 86 L65 88 L64 88 L64 87 L63 86 L61 84 L59 82 L56 79 L54 78 L52 75 L52 73 L50 71 L49 68 L49 65 L45 59 L41 53 L37 49 L34 44 L28 37 L20 31 L15 30 L7 28 L2 27 L0 27 " fill="none" stroke="black" /><path d="M22 37 L24 37 L27 37 L30 37 L34 37 L36 37 L38 37 L40 36 L42 35 L44 34 L45 32 L48 29 L56 21 L63 12 L66 7 L68 4 L69 2 L69 1 L70 0 L70 1 L70 3 L70 6 L70 9 L69 12 L69 14 L69 17 L70 21 L72 24 L73 27 L76 29 L78 31 L81 33 L84 34 L88 35 L91 36 L96 36 L100 39 L105 40 L108 41 L110 41 L111 41 L112 41 L111 41 L110 41 L109 41 L108 41 L107 41 L106 41 L105 41 L103 41 L101 41 L100 41 L97 41 L94 41 L90 42 L86 46 L81 49 L78 52 L77 53 L75 56 L74 59 L71 62 L70 67 L68 72 L67 75 L67 78 L66 81 L66 84 L66 86 L65 88 L64 88 L64 87 L63 86 L61 84 L59 82 L56 79 L54 78 L52 75 L52 73 L50 71 L49 68 L49 65 L45 59 L41 53 L37 49 L34 44 L28 37 L20 31 L15 30 L7 28 L2 27 L0 27 M63 5 L63 6 L63 8 L63 9 L63 10 L63 11 L63 12 L62 13 L62 14 L62 15 L62 17 L62 19 L62 22 L62 23 L62 25 L62 27 L62 30 L62 31 L62 32 L62 34 L62 35 L62 37 L61 39 L61 41 " fill="none" stroke="black" /><path d="M22 37 L24 37 L27 37 L30 37 L34 37 L36 37 L38 37 L40 36 L42 35 L44 34 L45 32 L48 29 L56 21 L63 12 L66 7 L68 4 L69 2 L69 1 L70 0 L70 1 L70 3 L70 6 L70 9 L69 12 L69 14 L69 17 L70 21 L72 24 L73 27 L76 29 L78 31 L81 33 L84 34 L88 35 L91 36 L96 36 L100 39 L105 40 L108 41 L110 41 L111 41 L112 41 L111 41 L110 41 L109 41 L108 41 L107 41 L106 41 L105 41 L103 41 L101 41 L100 41 L97 41 L94 41 L90 42 L86 46 L81 49 L78 52 L77 53 L75 56 L74 59 L71 62 L70 67 L68 72 L67 75 L67 78 L66 81 L66 84 L66 86 L65 88 L64 88 L64 87 L63 86 L61 84 L59 82 L56 79 L54 78 L52 75 L52 73 L50 71 L49 68 L49 65 L45 59 L41 53 L37 49 L34 44 L28 37 L20 31 L15 30 L7 28 L2 27 L0 27 M63 5 L63 6 L63 8 L63 9 L63 10 L63 11 L63 12 L62 13 L62 14 L62 15 L62 17 L62 19 L62 22 L62 23 L62 25 L62 27 L62 30 L62 31 L62 32 L62 34 L62 35 L62 37 L61 39 L61 41 M82 37 L81 37 L80 37 L79 37 L78 38 L77 38 L76 38 L74 39 L73 40 " fill="none" stroke="black" /><path d="M22 37 L24 37 L27 37 L30 37 L34 37 L36 37 L38 37 L40 36 L42 35 L44 34 L45 32 L48 29 L56 21 L63 12 L66 7 L68 4 L69 2 L69 1 L70 0 L70 1 L70 3 L70 6 L70 9 L69 12 L69 14 L69 17 L70 21 L72 24 L73 27 L76 29 L78 31 L81 33 L84 34 L88 35 L91 36 L96 36 L100 39 L105 40 L108 41 L110 41 L111 41 L112 41 L111 41 L110 41 L109 41 L108 41 L107 41 L106 41 L105 41 L103 41 L101 41 L100 41 L97 41 L94 41 L90 42 L86 46 L81 49 L78 52 L77 53 L75 56 L74 59 L71 62 L70 67 L68 72 L67 75 L67 78 L66 81 L66 84 L66 86 L65 88 L64 88 L64 87 L63 86 L61 84 L59 82 L56 79 L54 78 L52 75 L52 73 L50 71 L49 68 L49 65 L45 59 L41 53 L37 49 L34 44 L28 37 L20 31 L15 30 L7 28 L2 27 L0 27 M63 5 L63 6 L63 8 L63 9 L63 10 L63 11 L63 12 L62 13 L62 14 L62 15 L62 17 L62 19 L62 22 L62 23 L62 25 L62 27 L62 30 L62 31 L62 32 L62 34 L62 35 L62 37 L61 39 L61 41 M82 37 L81 37 L80 37 L79 37 L78 38 L77 38 L76 38 L74 39 L73 40 M58 60 L58 61 L58 66 L58 69 L58 72 L58 74 L58 76 L58 78 " fill="none" stroke="black" /><path d="M22 37 L24 37 L27 37 L30 37 L34 37 L36 37 L38 37 L40 36 L42 35 L44 34 L45 32 L48 29 L56 21 L63 12 L66 7 L68 4 L69 2 L69 1 L70 0 L70 1 L70 3 L70 6 L70 9 L69 12 L69 14 L69 17 L70 21 L72 24 L73 27 L76 29 L78 31 L81 33 L84 34 L88 35 L91 36 L96 36 L100 39 L105 40 L108 41 L110 41 L111 41 L112 41 L111 41 L110 41 L109 41 L108 41 L107 41 L106 41 L105 41 L103 41 L101 41 L100 41 L97 41 L94 41 L90 42 L86 46 L81 49 L78 52 L77 53 L75 56 L74 59 L71 62 L70 67 L68 72 L67 75 L67 78 L66 81 L66 84 L66 86 L65 88 L64 88 L64 87 L63 86 L61 84 L59 82 L56 79 L54 78 L52 75 L52 73 L50 71 L49 68 L49 65 L45 59 L41 53 L37 49 L34 44 L28 37 L20 31 L15 30 L7 28 L2 27 L0 27 M63 5 L63 6 L63 8 L63 9 L63 10 L63 11 L63 12 L62 13 L62 14 L62 15 L62 17 L62 19 L62 22 L62 23 L62 25 L62 27 L62 30 L62 31 L62 32 L62 34 L62 35 L62 37 L61 39 L61 41 M82 37 L81 37 L80 37 L79 37 L78 38 L77 38 L76 38 L74 39 L73 40 M58 60 L58 61 L58 66 L58 69 L58 72 L58 74 L58 76 L58 78 M36 43 L39 44 L42 44 L43 46 L45 46 L46 46 L48 46 L49 46 L51 46 L52 46 L53 46 L54 46 L56 47 L57 47 L58 47 L58 48 " fill="none" stroke="black" /></svg>